<?xml version="1.0" encoding="UTF-8" standalone="no"?>
<!-- Generator: flash2svg, http://dissentgraphics.com/tools/flash2svg -->

<svg
   xmlns:dc="http://purl.org/dc/elements/1.1/"
   xmlns:cc="http://creativecommons.org/ns#"
   xmlns:rdf="http://www.w3.org/1999/02/22-rdf-syntax-ns#"
   xmlns:svg="http://www.w3.org/2000/svg"
   xmlns="http://www.w3.org/2000/svg"
   xmlns:sodipodi="http://sodipodi.sourceforge.net/DTD/sodipodi-0.dtd"
   xmlns:inkscape="http://www.inkscape.org/namespaces/inkscape"
   id="Drive-External"
   version="1.1"
   x="0px"
   y="0px"
   width="512"
   height="512"
   viewBox="0 0 512 512"
   enable-background="new 0 0 1024 1024"
   inkscape:version="0.92.2 5c3e80d, 2017-08-06"
   sodipodi:docname="ac-adapter.svg">
  <metadata
     id="metadata26">
    <rdf:RDF>
      <cc:Work
         rdf:about="">
        <dc:format>image/svg+xml</dc:format>
        <dc:type
           rdf:resource="http://purl.org/dc/dcmitype/StillImage" />
        <dc:title></dc:title>
      </cc:Work>
    </rdf:RDF>
  </metadata>
  <sodipodi:namedview
     pagecolor="#f7f7f7"
     bordercolor="#666666"
     borderopacity="1"
     objecttolerance="10"
     gridtolerance="10"
     guidetolerance="10"
     inkscape:pageopacity="0"
     inkscape:pageshadow="2"
     inkscape:window-width="1366"
     inkscape:window-height="717"
     id="namedview24"
     showgrid="false"
     inkscape:zoom="0.39067619"
     inkscape:cx="398.52053"
     inkscape:cy="25.96243"
     inkscape:window-x="0"
     inkscape:window-y="24"
     inkscape:window-maximized="1"
     inkscape:current-layer="Drive-External" />
  <defs
     transform="matrix(1 0 0 1 0 0) "
     id="defs3">
    <path
       d="m 38.650563,12.764798 h -8.308794 v 8.310562 h 2.882358 c -0.257227,4.816849 -3.169536,5.132217 -5.755905,5.400015 -0.16209,0.01762 -0.29775,0.037 -0.45103,0.05286 V 10.107958 h 4.154401 l -5.792904,-8.107955 -5.838713,8.107954 h 4.154401 v 21.300551 c -0.186755,-0.02291 -0.366461,-0.04581 -0.569072,-0.06519 -2.491231,-0.257228 -5.280211,-0.560261 -5.717146,-4.882038 1.744213,-0.776966 2.961641,-2.522943 2.961641,-4.554335 0,-2.751982 -2.230481,-4.984224 -4.984224,-4.984224 -2.753745,0 -4.985984,2.232242 -4.985984,4.984224 0,2.607512 1.999678,4.742852 4.552574,4.964844 0.628973,5.415871 4.374629,6.485303 6.915191,6.832384 -1.89397,1.171619 -3.158965,3.261151 -3.158965,5.650197 0,3.67342 2.975735,6.64563 6.647392,6.64563 3.671658,0 6.645632,-2.973973 6.645632,-6.64563 0,-3.097301 -2.121246,-5.688957 -4.985986,-6.428928 V 29.03708 c 0.218468,-0.03172 0.466885,-0.05462 0.706495,-0.07929 2.517658,-0.262512 7.655161,-0.819252 7.986386,-7.882437 h 2.938728 v -8.310562 h 0.0035 v 0 z"
       id="path-main"
       inkscape:connector-curvature="0" />
  </defs>
  <g
     id="g863">
    <path
       style="fill:#3689e6;fill-opacity:1;stroke-width:11.10955811"
       inkscape:connector-curvature="0"
       d="M 432.91383,56.473967 C 535.10674,145.04856 538.7406,306.17367 441.03063,416.37276 343.32047,526.57184 181.27969,544.10061 79.086779,455.52602 -23.106167,366.95143 -26.740032,205.82631 70.969979,95.627227 168.67995,-14.571854 330.72066,-32.100623 432.91383,56.473967 Z"
       id="path911" />
    <g
       id="g915"
       transform="matrix(8.0447857,6.9727288,-7.6918814,8.6750446,247.53035,-119.54657)">
      <path
         id="path913"
         d="m 40.03,7.531 c 3.712,4.084 5.969,9.514 5.969,15.469 0,12.703 -10.297,23 -23,23 C 17.045,46 11.615,43.744 7.53,40.031 11.708,44.322 17.54,47 23.999,47 c 12.703,0 23,-10.298 23,-23 0,-6.462 -2.677,-12.291 -6.969,-16.469 z"
         inkscape:connector-curvature="0"
         style="opacity:0.1" />
    </g>
    <path
       style="fill:#317ccf;fill-opacity:1;stroke-width:1.56286407"
       d="M 128.7098,403.24133 110,384.48267 l 28.87365,-28.90533 28.87365,-28.90532 19.16829,19.12227 19.16829,19.12227 -28.51042,28.54173 C 161.89271,409.15623 148.69324,422 148.2413,422 c -0.45194,0 -9.2411,-8.4414 -19.5315,-18.75867 z M 233.05506,361.8987 c -14.23975,-3.22667 -27.9081,-11.07303 -39.52383,-22.68876 -27.42121,-27.42121 -31.53199,-62.16294 -12.35877,-104.44858 4.44134,-9.79514 23.54245,-39.6625 31.45612,-49.18617 l 3.6059,-4.33951 67.72945,67.77776 67.72945,67.77778 -10.68491,7.87953 c -16.32088,12.03577 -32.52691,22.13621 -43.50095,27.11208 -22.50661,10.20499 -47.05552,14.05796 -64.45246,10.11587 z m 64.80546,-127.08522 -77.74765,-77.75932 c 0,0 3.2817,-13.93256 7.9874,-18.52786 4.70571,-4.59532 17.8879,-7.21303 17.8879,-7.21303 l 17.14061,17.19393 17.1406,17.19391 27.39563,-27.3639 27.39561,-27.36392 c 0,0 11.26169,-4.71273 21.79583,4.88878 10.53415,9.6015 6.23789,23.27542 6.23789,23.27542 l -27.31206,27.34556 -27.31205,27.34554 15.22117,15.22116 15.22117,15.22118 27.3566,-27.32309 27.35656,-27.32306 c 0,0 13.41828,-4.01732 21.84476,4.87245 8.42646,8.88976 6.2868,23.2591 6.2868,23.2591 l -27.34937,27.31586 -27.34936,27.31588 17.19269,17.24159 17.19268,17.2416 c 0,0 -4.27298,11.17418 -8.67481,15.67949 -4.40182,4.50531 -17.16094,10.02206 -17.16094,10.02206 z"
       id="path856"
       inkscape:connector-curvature="0"
       sodipodi:nodetypes="scccccssssssscccssscczccccczccccccczccccczcc" />
    <path
       sodipodi:nodetypes="scccccssssssscccssscczccccczccccccczccccczcc"
       inkscape:connector-curvature="0"
       id="path854"
       d="M 118.7098,393.24133 100,374.48267 l 28.87365,-28.90533 28.87365,-28.90532 19.16829,19.12227 19.16829,19.12227 -28.51042,28.54173 C 151.89271,399.15623 138.69324,412 138.2413,412 c -0.45194,0 -9.2411,-8.4414 -19.5315,-18.75867 z M 223.05506,351.8987 c -14.23975,-3.22667 -27.9081,-11.07303 -39.52383,-22.68876 -27.42121,-27.42121 -31.53199,-62.16294 -12.35877,-104.44858 4.44134,-9.79514 23.54245,-39.6625 31.45612,-49.18617 l 3.6059,-4.33951 67.72945,67.77776 67.72945,67.77778 -10.68491,7.87953 c -16.32088,12.03577 -32.52691,22.13621 -43.50095,27.11208 -22.50661,10.20499 -47.05552,14.05796 -64.45246,10.11587 z m 64.80546,-127.08522 -77.74765,-77.75932 c 0,0 3.2817,-13.93256 7.9874,-18.52786 4.70571,-4.59532 17.8879,-7.21303 17.8879,-7.21303 l 17.14061,17.19393 17.1406,17.19391 27.39563,-27.3639 27.39561,-27.36392 c 0,0 11.26169,-4.712726 21.79583,4.88878 10.53415,9.6015 6.23789,23.27542 6.23789,23.27542 l -27.31206,27.34556 -27.31205,27.34554 15.22117,15.22116 15.22117,15.22118 27.3566,-27.32309 27.35656,-27.32306 c 0,0 13.41828,-4.01732 21.84476,4.87245 8.42646,8.88976 6.2868,23.2591 6.2868,23.2591 l -27.34937,27.31586 -27.34936,27.31588 17.19269,17.24159 17.19268,17.2416 c 0,0 -4.27298,11.17418 -8.67481,15.67949 -4.40182,4.50531 -17.16094,10.02206 -17.16094,10.02206 z"
       style="fill:#ffffff;stroke-width:1.56286407" />
  </g>
</svg>
