<?xml version="1.0" encoding="UTF-8" standalone="no"?>
<!-- Created using Karbon, part of Calligra: http://www.calligra.org/karbon -->

<svg
   xmlns:dc="http://purl.org/dc/elements/1.1/"
   xmlns:cc="http://creativecommons.org/ns#"
   xmlns:rdf="http://www.w3.org/1999/02/22-rdf-syntax-ns#"
   xmlns:svg="http://www.w3.org/2000/svg"
   xmlns="http://www.w3.org/2000/svg"
   xmlns:sodipodi="http://sodipodi.sourceforge.net/DTD/sodipodi-0.dtd"
   xmlns:inkscape="http://www.inkscape.org/namespaces/inkscape"
   width="512"
   height="512"
   id="svg2"
   version="1.1"
   inkscape:version="0.92.2 5c3e80d, 2017-08-06"
   sodipodi:docname="call-stop.svg"
   viewBox="0 0 512 512">
  <metadata
     id="metadata11">
    <rdf:RDF>
      <cc:Work
         rdf:about="">
        <dc:format>image/svg+xml</dc:format>
        <dc:type
           rdf:resource="http://purl.org/dc/dcmitype/StillImage" />
        <dc:title />
      </cc:Work>
    </rdf:RDF>
  </metadata>
  <sodipodi:namedview
     pagecolor="#ffffff"
     bordercolor="#666666"
     borderopacity="1"
     objecttolerance="10"
     gridtolerance="10"
     guidetolerance="10"
     inkscape:pageopacity="0"
     inkscape:pageshadow="2"
     inkscape:window-width="1366"
     inkscape:window-height="717"
     id="namedview9"
     showgrid="false"
     inkscape:showpageshadow="false"
     borderlayer="true"
     inkscape:zoom="0.61458332"
     inkscape:cx="340.19402"
     inkscape:cy="186.39492"
     inkscape:window-x="0"
     inkscape:window-y="24"
     inkscape:window-maximized="1"
     inkscape:current-layer="svg2"
     inkscape:snap-global="false"
     inkscape:document-units="px" />
  <defs
     id="defs4" />
  <g
     id="g827">
    <path
       id="path4548"
       d="M 432.91316,56.473999 C 535.1063,145.04859 538.73993,306.17371 441.03007,416.37279 343.32021,526.57187 181.27977,544.10064 79.086633,455.52605 -23.106124,366.95146 -26.74014,205.82634 70.970097,95.627259 168.67996,-14.571822 330.7204,-32.100591 432.91316,56.473999 Z"
       inkscape:connector-curvature="0"
       style="fill:#c6262e;fill-opacity:1;stroke-width:11.10955811" />
    <path
       id="path4550"
       d="m 511.63543,224.90354 c -1.55112,61.31165 -25.16107,124.15461 -70.9663,175.81448 C 342.95927,510.91714 180.91882,528.44587 78.725688,439.87132 30.826979,398.35567 4.4968999,340.92287 0.19390772,280.22884 0.79901009,346.58551 27.117373,410.4822 79.078696,455.51909 c 102.192754,88.57455 264.241134,71.03713 361.943444,-39.1533 49.70494,-56.0581 73.00497,-125.29096 70.61329,-191.46225 z"
       inkscape:connector-curvature="0"
       style="opacity:1;stroke-width:11.10955811;fill:#000000;fill-opacity:0.49019608" />
    <path
       style="fill:#000000;fill-opacity:0.49019608;stroke-width:0.83673406"
       d="m 122.75467,347.87773 c -2.46501,-5.03622 -3.28101,-10.38126 -2.42646,-15.89159 1.37122,-8.84114 -4.03011,-3.01277 96.60662,-104.24024 l 91.70419,-92.24428 4.38387,-1.51499 c 5.6024,-1.93595 13.56208,-1.9728 18.76271,-0.0862 4.0664,1.47473 4.10457,1.51075 50.72844,47.70629 l 46.65941,46.23054 1.42903,4.18806 c 1.9321,5.6632 1.85575,13.02773 -0.19653,18.82541 l -1.69663,4.7972 -92.1668,93.02117 -92.16643,93.02117 -4.90696,1.79981 c -5.79062,2.12458 -12.97323,2.24326 -18.74759,0.30992 l -4.15068,-1.38992 -45.90274,-45.21049 C 127.81319,354.99149 124.63158,351.716 122.75278,347.87714 Z m 62.06513,41.20562 c 5.24788,2.34059 13.75635,0.70413 17.85676,-3.43442 4.10041,-4.13854 5.65833,-12.66179 3.26929,-17.88782 -2.24126,-4.90277 -8.7496,-9.32413 -14.08403,-9.56761 -3.84038,-0.17499 -8.60145,1.92881 -11.90135,5.25944 -7.61348,7.68393 -5.0487,21.21124 4.85933,25.63041 z m 145.12895,-59.31662 70.3767,-71.02897 -47.55138,-47.11392 -47.55023,-47.11378 -70.37632,71.02896 -70.37669,71.02893 47.55099,47.11374 47.55062,47.11397 z"
       id="path4724"
       inkscape:connector-curvature="0" />
    <path
       inkscape:connector-curvature="0"
       id="path4726"
       d="m 102.75449,327.87779 c -2.46501,-5.03622 -3.28101,-10.38126 -2.42646,-15.89159 1.37121,-8.84114 -4.030109,-3.01277 96.60662,-104.24024 l 91.70419,-92.24428 4.38387,-1.51499 c 5.60239,-1.93595 13.56208,-1.9728 18.76271,-0.0862 4.06639,1.47473 4.10457,1.51075 50.72844,47.70629 l 46.6594,46.23054 1.42904,4.18806 c 1.9321,5.6632 1.85575,13.02773 -0.19653,18.82541 l -1.69663,4.7972 -92.16681,93.02117 -92.16642,93.02117 -4.90696,1.79981 c -5.79062,2.12458 -12.97323,2.24326 -18.74759,0.30992 l -4.15068,-1.38992 -45.90274,-45.21049 C 107.81301,334.99158 104.6314,331.71609 102.7526,327.87723 Z m 62.06513,41.20562 c 5.24788,2.34059 13.75635,0.70413 17.85676,-3.43442 4.10041,-4.13854 5.65833,-12.66179 3.26929,-17.88782 -2.24126,-4.90276 -8.74961,-9.32413 -14.08403,-9.56761 -3.84038,-0.17499 -8.60145,1.92881 -11.90136,5.25944 -7.61348,7.68393 -5.04869,21.21124 4.85934,25.63041 z m 145.12895,-59.31662 70.37669,-71.02897 -47.55137,-47.11392 -47.55023,-47.11378 -70.37632,71.02896 -70.37669,71.02893 47.55099,47.11374 47.55061,47.11397 z"
       style="fill:#ffffff;stroke-width:0.83673406" />
  </g>
</svg>
