<?xml version="1.0" encoding="UTF-8" standalone="no"?>
<!-- Created using Karbon, part of Calligra: http://www.calligra.org/karbon -->

<svg
   xmlns:dc="http://purl.org/dc/elements/1.1/"
   xmlns:cc="http://creativecommons.org/ns#"
   xmlns:rdf="http://www.w3.org/1999/02/22-rdf-syntax-ns#"
   xmlns:svg="http://www.w3.org/2000/svg"
   xmlns="http://www.w3.org/2000/svg"
   xmlns:sodipodi="http://sodipodi.sourceforge.net/DTD/sodipodi-0.dtd"
   xmlns:inkscape="http://www.inkscape.org/namespaces/inkscape"
   width="512"
   height="512"
   id="svg2"
   version="1.1"
   inkscape:version="0.92.2 5c3e80d, 2017-08-06"
   sodipodi:docname="infrared-remote.svg"
   viewBox="0 0 511.99999 511.99999">
  <metadata
     id="metadata13">
    <rdf:RDF>
      <cc:Work
         rdf:about="">
        <dc:format>image/svg+xml</dc:format>
        <dc:type
           rdf:resource="http://purl.org/dc/dcmitype/StillImage" />
        <dc:title />
      </cc:Work>
    </rdf:RDF>
  </metadata>
  <sodipodi:namedview
     pagecolor="#ffffff"
     bordercolor="#666666"
     borderopacity="1"
     objecttolerance="10"
     gridtolerance="10"
     guidetolerance="10"
     inkscape:pageopacity="0"
     inkscape:pageshadow="2"
     inkscape:window-width="1366"
     inkscape:window-height="717"
     id="namedview11"
     inkscape:document-units="px"
     showgrid="false"
     inkscape:zoom="0.27575515"
     inkscape:cx="568.41042"
     inkscape:cy="-46.28184"
     inkscape:window-x="0"
     inkscape:window-y="24"
     inkscape:window-maximized="1"
     inkscape:current-layer="svg2"
     units="px" />
  <defs
     id="defs4" />
  <g
     id="g870">
    <path
       style="fill:#c6262e;fill-opacity:1;stroke-width:11.10955811"
       inkscape:connector-curvature="0"
       d="m 432.91327,56.47397 c 102.19291,88.57459 105.82678,249.69971 8.1168,359.89879 C 343.3201,526.57184 181.27964,544.10061 79.086729,455.52602 -23.106186,366.95143 -26.740042,205.82631 70.969928,95.62723 168.6799,-14.571852 330.72036,-32.10062 432.91327,56.47397 Z"
       id="path27" />
    <g
       id="g53"
       transform="matrix(8.0447857,6.9727288,-7.6918814,8.6750446,247.5303,-119.54657)">
      <path
         id="path51"
         d="m 40.03,7.531 c 3.712,4.084 5.969,9.514 5.969,15.469 0,12.703 -10.297,23 -23,23 C 17.045,46 11.615,43.744 7.53,40.031 11.708,44.322 17.54,47 23.999,47 c 12.703,0 23,-10.298 23,-23 0,-6.462 -2.677,-12.291 -6.969,-16.469 z"
         inkscape:connector-curvature="0"
         style="opacity:0.1" />
    </g>
    <path
       style="fill:#b32229;fill-opacity:1;stroke-width:0.74194443"
       d="m 110.50172,385.56546 c 1.47039,-12.9967 7.16626,-21.00569 18.0291,-25.35087 4.16868,-1.66748 5.07266,-1.72315 31.92759,-1.96582 l 27.63742,-0.24975 v -2.82191 c 0,-1.55205 0.50952,-5.78704 1.13226,-9.4111 5.59616,-32.56688 29.50211,-57.20145 62.304,-64.20298 5.74128,-1.22548 23.19454,-1.22548 28.93582,0 24.30258,5.18735 44.49779,20.50999 54.98223,41.71646 4.79785,9.7044 7.1408,18.06617 8.1344,29.03099 l 0.51557,5.68962 27.53946,0.24921 c 26.75301,0.24209 27.66196,0.29821 31.82961,1.96528 10.86284,4.34518 16.55871,12.35417 18.0291,25.35087 L 422,390 H 266 110 Z m 106.15897,-136.0647 c -2.63839,-1.62629 -5.19106,-5.67655 -23.00027,-36.49402 -11.01788,-19.06558 -20.50552,-36.11183 -21.08367,-37.88054 -1.98296,-6.06646 1.66956,-12.54819 8.16822,-14.49523 3.65606,-1.09538 7.97397,0.0532 11.01459,2.93002 1.16312,1.10046 11.22894,17.82794 22.36848,37.17219 18.52472,32.16889 20.25267,35.46244 20.24149,38.58111 -0.024,6.68711 -4.29261,11.25899 -10.96336,11.74217 -3.02841,0.21935 -4.36634,-0.0893 -6.74548,-1.5557 z m 87.3332,0.51825 c -4.6912,-2.31208 -7.54713,-8.29716 -6.232,-13.06017 0.76667,-2.77666 39.65387,-70.57076 41.90074,-73.04773 2.14464,-2.36429 7.40666,-4.20829 10.3366,-3.6223 6.8004,1.36008 11.31576,7.93342 9.66671,14.07259 -0.45377,1.68934 -9.96022,18.88085 -21.12544,38.20337 -18.05792,31.25096 -20.62456,35.32803 -23.2347,36.90793 -3.45374,2.09052 -7.75703,2.29835 -11.31191,0.54631 z m -42.81653,-8.79009 c -3.48129,-1.87726 -5.52293,-4.12269 -6.35817,-6.99281 -0.50208,-1.72533 -0.69072,-17.09499 -0.54398,-44.32176 0.2197,-40.76038 0.25843,-41.72574 1.75438,-43.72888 2.90743,-3.89313 5.2785,-5.10783 9.97041,-5.10783 4.69191,0 7.06301,1.21472 9.97041,5.10784 1.49727,2.00492 1.53404,2.94533 1.73304,44.32113 0.2263,47.04994 0.38055,45.45916 -4.79066,49.40344 -3.19065,2.43362 -8.55102,3.03604 -11.73543,1.31887 z"
       id="path863"
       inkscape:connector-curvature="0" />
    <path
       inkscape:connector-curvature="0"
       id="path861"
       d="m 100.50172,375.56546 c 1.47039,-12.9967 7.16626,-21.00569 18.0291,-25.35087 4.16868,-1.66748 5.07266,-1.72315 31.92759,-1.96582 l 27.63742,-0.24975 v -2.82191 c 0,-1.55205 0.50952,-5.78704 1.13226,-9.4111 5.59616,-32.56688 29.50211,-57.20145 62.304,-64.20298 5.74128,-1.22548 23.19454,-1.22548 28.93582,0 24.30258,5.18735 44.49779,20.50999 54.98223,41.71646 4.79785,9.7044 7.1408,18.06617 8.1344,29.03099 l 0.51557,5.68962 27.53946,0.24921 c 26.75301,0.24209 27.66196,0.29821 31.82961,1.96528 10.86284,4.34518 16.55871,12.35417 18.0291,25.35087 L 412,380 H 256 100 Z m 106.15897,-136.0647 c -2.63839,-1.62629 -5.19106,-5.67655 -23.00027,-36.49402 -11.01788,-19.06558 -20.50552,-36.11183 -21.08367,-37.88054 -1.98296,-6.06646 1.66956,-12.54819 8.16822,-14.49523 3.65606,-1.09538 7.97397,0.0532 11.01459,2.93002 1.16312,1.10046 11.22894,17.82794 22.36848,37.17219 18.52472,32.16889 20.25267,35.46244 20.24149,38.58111 -0.024,6.68711 -4.29261,11.25899 -10.96336,11.74217 -3.02841,0.21935 -4.36634,-0.0893 -6.74548,-1.5557 z m 87.3332,0.51825 c -4.6912,-2.31208 -7.54713,-8.29716 -6.232,-13.06017 0.76667,-2.77666 39.65387,-70.57076 41.90074,-73.04773 2.14464,-2.36429 7.40666,-4.20829 10.3366,-3.6223 6.8004,1.36008 11.31576,7.93342 9.66671,14.07259 -0.45377,1.68934 -9.96022,18.88085 -21.12544,38.20337 -18.05792,31.25096 -20.62456,35.32803 -23.2347,36.90793 -3.45374,2.09052 -7.75703,2.29835 -11.31191,0.54631 z m -42.81653,-8.79009 c -3.48129,-1.87726 -5.52293,-4.12269 -6.35817,-6.99281 -0.50208,-1.72533 -0.69072,-17.09499 -0.54398,-44.32176 0.2197,-40.76038 0.25843,-41.72574 1.75438,-43.72888 2.90743,-3.89313 5.2785,-5.10783 9.97041,-5.10783 4.69191,0 7.06301,1.21472 9.97041,5.10784 1.49727,2.00492 1.53404,2.94533 1.73304,44.32113 0.2263,47.04994 0.38055,45.45916 -4.79066,49.40344 -3.19065,2.43362 -8.55102,3.03604 -11.73543,1.31887 z"
       style="fill:#ffffff;stroke-width:0.74194443" />
  </g>
</svg>
