<?xml version="1.0" encoding="UTF-8" standalone="no"?>
<!-- Created using Karbon, part of Calligra: http://www.calligra.org/karbon -->

<svg
   xmlns:dc="http://purl.org/dc/elements/1.1/"
   xmlns:cc="http://creativecommons.org/ns#"
   xmlns:rdf="http://www.w3.org/1999/02/22-rdf-syntax-ns#"
   xmlns:svg="http://www.w3.org/2000/svg"
   xmlns="http://www.w3.org/2000/svg"
   xmlns:sodipodi="http://sodipodi.sourceforge.net/DTD/sodipodi-0.dtd"
   xmlns:inkscape="http://www.inkscape.org/namespaces/inkscape"
   width="512"
   height="512"
   id="svg2"
   version="1.1"
   inkscape:version="0.92.2 5c3e80d, 2017-08-06"
   sodipodi:docname="input-gaming.svg"
   viewBox="0 0 512.00001 512.00001">
  <metadata
     id="metadata23">
    <rdf:RDF>
      <cc:Work
         rdf:about="">
        <dc:format>image/svg+xml</dc:format>
        <dc:type
           rdf:resource="http://purl.org/dc/dcmitype/StillImage" />
        <dc:title />
      </cc:Work>
    </rdf:RDF>
  </metadata>
  <sodipodi:namedview
     pagecolor="#ffffff"
     bordercolor="#666666"
     borderopacity="1"
     objecttolerance="10"
     gridtolerance="10"
     guidetolerance="10"
     inkscape:pageopacity="0"
     inkscape:pageshadow="2"
     inkscape:window-width="1366"
     inkscape:window-height="717"
     id="namedview21"
     inkscape:document-units="px"
     showgrid="false"
     units="px"
     inkscape:zoom="0.36485463"
     inkscape:cx="776.49974"
     inkscape:cy="-56.480616"
     inkscape:window-x="0"
     inkscape:window-y="24"
     inkscape:window-maximized="1"
     inkscape:current-layer="svg2" />
  <defs
     id="defs4" />
  <g
     id="g885">
    <path
       style="fill:#3689e6;fill-opacity:1;stroke-width:11.10955811"
       inkscape:connector-curvature="0"
       d="M 432.91383,56.473967 C 535.10674,145.04856 538.7406,306.17367 441.03063,416.37276 343.32047,526.57184 181.27969,544.10061 79.086779,455.52602 -23.106167,366.95143 -26.740032,205.82631 70.969979,95.627227 168.67995,-14.571854 330.72066,-32.100623 432.91383,56.473967 Z"
       id="path911" />
    <g
       id="g915"
       transform="matrix(8.0447857,6.9727288,-7.6918814,8.6750446,247.53035,-119.54657)">
      <path
         id="path913"
         d="m 40.03,7.531 c 3.712,4.084 5.969,9.514 5.969,15.469 0,12.703 -10.297,23 -23,23 C 17.045,46 11.615,43.744 7.53,40.031 11.708,44.322 17.54,47 23.999,47 c 12.703,0 23,-10.298 23,-23 0,-6.462 -2.677,-12.291 -6.969,-16.469 z"
         inkscape:connector-curvature="0"
         style="opacity:0.1" />
    </g>
    <path
       style="fill:#317ccf;fill-opacity:1;stroke-width:0.59272379"
       d="m 133.98875,374.66213 c -8.38216,-1.16872 -15.19083,-7.86706 -19.3814,-19.06736 -3.33769,-8.92077 -5.095,-24.04829 -4.48916,-38.64419 2.37425,-57.20022 28.73245,-121.53693 60.14586,-146.80772 11.62613,-9.35274 21.94131,-13.5286 33.55531,-13.58409 5.71308,-0.0273 7.73532,0.60231 24.04787,7.48704 20.0414,8.45849 28.79097,10.94742 38.48449,10.94742 9.8412,0 17.34798,-2.14653 37.56794,-10.74242 15.84953,-6.73793 19.0231,-7.72476 24.78787,-7.70785 21.49818,0.063 42.22436,15.62354 60.01134,45.05441 15.64991,25.89483 27.42498,61.09479 32.14385,96.08969 1.51103,11.20574 1.51778,36.97088 0.0117,44.89107 -2.26124,11.89181 -5.70315,19.69279 -11.06702,25.08301 -4.54857,4.57092 -7.9152,6.07476 -14.28081,6.3791 -12.3006,0.5881 -25.18224,-5.53405 -45.89723,-21.8132 -22.25193,-17.48696 -30.17628,-23.19101 -39.76096,-28.62041 -7.0934,-4.01817 -16.80478,-7.98977 -24.52927,-10.03157 -5.88739,-1.5562 -8.19751,-1.8483 -16.63806,-2.10375 -10.83006,-0.32776 -17.21932,0.28788 -26.12254,2.51706 -16.39205,4.10424 -29.04159,11.78988 -46.95931,28.53171 -14.84072,13.86676 -19.45614,17.87929 -24.82834,21.58509 -9.0226,6.22389 -17.89379,9.73031 -26.24395,10.37318 -2.28199,0.17568 -4.81588,0.397 -5.63088,0.4918 -0.815,0.0948 -3.03231,-0.0438 -4.92736,-0.30802 z m 213.97636,-92.25594 c 3.79563,-2.70273 4.88735,-9.31603 2.15691,-13.06585 -1.84088,-2.52815 -5.9685,-4.38842 -8.79074,-3.96187 -9.15115,1.38307 -11.46296,12.65096 -3.60892,17.59003 2.46488,1.55005 7.67814,1.26385 10.24275,-0.56231 z m -134.79372,-5.02283 c 12.91344,-4.23443 23.2369,-14.5487 27.56662,-27.54212 1.35567,-4.06831 1.53815,-5.58567 1.55244,-12.90837 0.0146,-7.46326 -0.14427,-8.7752 -1.57875,-13.03992 -4.8923,-14.54489 -16.56281,-25.18707 -31.58468,-28.80163 -4.43393,-1.06689 -14.69301,-0.90895 -19.23667,0.29615 -12.02764,3.19005 -22.41729,11.50385 -27.86658,22.29883 -3.22285,6.38443 -4.40377,11.47257 -4.39822,18.95021 0.006,8.04729 0.9759,12.20642 4.56142,19.55988 1.99915,4.1 3.45515,6.03592 7.81912,10.39641 6.0419,6.0371 11.91634,9.53232 19.42757,11.55915 6.28613,1.69625 17.30933,1.33934 23.73773,-0.76859 z m -20.1671,-17.87009 c -1.3843,-0.45081 -3.83744,-1.66702 -5.4514,-2.7027 -12.76574,-8.19175 -14.81093,-25.52371 -4.29234,-36.37538 11.46134,-11.82429 31.11124,-8.44442 38.22605,6.57504 1.73671,3.6662 1.89265,4.48484 1.89265,9.93568 0,5.52148 -0.13777,6.22008 -1.95414,9.90911 -2.49962,5.0767 -6.49144,9.0563 -11.38045,11.34557 -3.25034,1.52197 -4.69044,1.83049 -9.18892,1.96858 -3.36463,0.10328 -6.26395,-0.13892 -7.85145,-0.6559 z m 125.91736,-5.55782 c 3.79562,-2.70273 4.88735,-9.31603 2.15691,-13.06585 -1.84089,-2.52815 -5.9685,-4.38842 -8.79074,-3.96188 -9.15116,1.38308 -11.46297,12.65096 -3.60892,17.59004 2.46487,1.55005 7.67814,1.26385 10.24275,-0.56231 z m 57.4942,0 c 3.79563,-2.70273 4.88735,-9.31603 2.15691,-13.06585 -1.84088,-2.52815 -5.96849,-4.38842 -8.79074,-3.96188 -9.15115,1.38308 -11.46296,12.65096 -3.60891,17.59004 2.46487,1.55005 7.67813,1.26385 10.24274,-0.56231 z M 347.96511,225.5047 c 3.79563,-2.70272 4.88735,-9.31602 2.15691,-13.06584 -1.84088,-2.52816 -5.9685,-4.38842 -8.79074,-3.96188 -9.15115,1.38308 -11.46296,12.65096 -3.60892,17.59004 2.46488,1.55005 7.67814,1.26385 10.24275,-0.56232 z"
       id="path878"
       inkscape:connector-curvature="0" />
    <path
       inkscape:connector-curvature="0"
       id="path876"
       d="m 123.98875,364.66213 c -8.38216,-1.16872 -15.19083,-7.86706 -19.3814,-19.06736 -3.33769,-8.92077 -5.094997,-24.04829 -4.48916,-38.64419 2.37425,-57.20022 28.73245,-121.53693 60.14586,-146.80772 11.62613,-9.35274 21.94131,-13.5286 33.55531,-13.58409 5.71308,-0.0273 7.73532,0.60231 24.04787,7.48704 20.0414,8.45849 28.79097,10.94742 38.48449,10.94742 9.8412,0 17.34798,-2.14653 37.56794,-10.74242 15.84953,-6.73793 19.0231,-7.72476 24.78787,-7.70785 21.49818,0.063 42.22436,15.62354 60.01134,45.05441 15.64991,25.89483 27.42498,61.09479 32.14385,96.08969 1.51103,11.20574 1.51778,36.97088 0.0117,44.89107 -2.26124,11.89181 -5.70315,19.69279 -11.06702,25.08301 -4.54857,4.57092 -7.9152,6.07476 -14.28081,6.3791 -12.3006,0.5881 -25.18224,-5.53405 -45.89723,-21.8132 -22.25193,-17.48696 -30.17628,-23.19101 -39.76096,-28.62041 -7.0934,-4.01817 -16.80478,-7.98977 -24.52927,-10.03157 -5.88739,-1.5562 -8.19751,-1.8483 -16.63806,-2.10375 -10.83006,-0.32776 -17.21932,0.28788 -26.12254,2.51706 -16.39205,4.10424 -29.04159,11.78988 -46.95931,28.53171 -14.84072,13.86676 -19.45614,17.87929 -24.82834,21.58509 -9.0226,6.22389 -17.89379,9.73031 -26.24395,10.37318 -2.28199,0.17568 -4.81588,0.397 -5.63088,0.4918 -0.815,0.0948 -3.03231,-0.0438 -4.92736,-0.30802 z m 213.97636,-92.25594 c 3.79563,-2.70273 4.88735,-9.31603 2.15691,-13.06585 -1.84088,-2.52815 -5.9685,-4.38842 -8.79074,-3.96187 -9.15115,1.38307 -11.46296,12.65096 -3.60892,17.59003 2.46488,1.55005 7.67814,1.26385 10.24275,-0.56231 z m -134.79372,-5.02283 c 12.91344,-4.23443 23.2369,-14.5487 27.56662,-27.54212 1.35567,-4.06831 1.53815,-5.58567 1.55244,-12.90837 0.0146,-7.46326 -0.14427,-8.7752 -1.57875,-13.03992 -4.8923,-14.54489 -16.56281,-25.18707 -31.58468,-28.80163 -4.43393,-1.06689 -14.69301,-0.90895 -19.23667,0.29615 -12.02764,3.19005 -22.41729,11.50385 -27.86658,22.29883 -3.22285,6.38443 -4.40377,11.47257 -4.39822,18.95021 0.006,8.04729 0.9759,12.20642 4.56142,19.55988 1.99915,4.1 3.45515,6.03592 7.81912,10.39641 6.0419,6.0371 11.91634,9.53232 19.42757,11.55915 6.28613,1.69625 17.30933,1.33934 23.73773,-0.76859 z m -20.1671,-17.87009 c -1.3843,-0.45081 -3.83744,-1.66702 -5.4514,-2.7027 -12.76574,-8.19175 -14.81093,-25.52371 -4.29234,-36.37538 11.46134,-11.82429 31.11124,-8.44442 38.22605,6.57504 1.73671,3.6662 1.89265,4.48484 1.89265,9.93568 0,5.52148 -0.13777,6.22008 -1.95414,9.90911 -2.49962,5.0767 -6.49144,9.0563 -11.38045,11.34557 -3.25034,1.52197 -4.69044,1.83049 -9.18892,1.96858 -3.36463,0.10328 -6.26395,-0.13892 -7.85145,-0.6559 z m 125.91736,-5.55782 c 3.79562,-2.70273 4.88735,-9.31603 2.15691,-13.06585 -1.84089,-2.52815 -5.9685,-4.38842 -8.79074,-3.96188 -9.15116,1.38308 -11.46297,12.65096 -3.60892,17.59004 2.46487,1.55005 7.67814,1.26385 10.24275,-0.56231 z m 57.4942,0 c 3.79563,-2.70273 4.88735,-9.31603 2.15691,-13.06585 -1.84088,-2.52815 -5.96849,-4.38842 -8.79074,-3.96188 -9.15115,1.38308 -11.46296,12.65096 -3.60891,17.59004 2.46487,1.55005 7.67813,1.26385 10.24274,-0.56231 z M 337.96511,215.5047 c 3.79563,-2.70272 4.88735,-9.31602 2.15691,-13.06584 -1.84088,-2.52816 -5.9685,-4.38842 -8.79074,-3.96188 -9.15115,1.38308 -11.46296,12.65096 -3.60892,17.59004 2.46488,1.55005 7.67814,1.26385 10.24275,-0.56232 z"
       style="fill:#ffffff;stroke-width:0.59272379" />
  </g>
</svg>
