<?xml version="1.0" encoding="UTF-8" standalone="no"?>
<!-- Created with Inkscape (http://www.inkscape.org/) -->

<svg
   xmlns:dc="http://purl.org/dc/elements/1.1/"
   xmlns:cc="http://creativecommons.org/ns#"
   xmlns:rdf="http://www.w3.org/1999/02/22-rdf-syntax-ns#"
   xmlns:svg="http://www.w3.org/2000/svg"
   xmlns="http://www.w3.org/2000/svg"
   xmlns:sodipodi="http://sodipodi.sourceforge.net/DTD/sodipodi-0.dtd"
   xmlns:inkscape="http://www.inkscape.org/namespaces/inkscape"
   width="512"
   height="512"
   id="svg2"
   version="1.1"
   inkscape:version="0.92.2 5c3e80d, 2017-08-06"
   sodipodi:docname="network-wired-disconected.svg">
  <defs
     id="defs4">
    <radialGradient
       id="polygon413_1_"
       cx="7976.3457"
       cy="-10508.842"
       r="13293.867"
       gradientTransform="matrix(0.0222,0,0,-0.0248,721.1671,674.6745)"
       gradientUnits="userSpaceOnUse">
      <stop
         offset="0"
         style="stop-color:#80FF80"
         id="stop388" />
      <stop
         offset="1"
         style="stop-color:#0f0"
         id="stop390" />
    </radialGradient>
    <radialGradient
       id="polygon413_1_-6"
       cx="7976.3457"
       cy="-10508.842"
       r="13293.867"
       gradientTransform="matrix(0.0222,0,0,-0.0248,721.1671,674.6745)"
       gradientUnits="userSpaceOnUse">
      <stop
         offset="0"
         style="stop-color:#80FF80"
         id="stop388-7" />
      <stop
         offset="1"
         style="stop-color:#0f0"
         id="stop390-5" />
    </radialGradient>
    <radialGradient
       id="polygon413_1_-9"
       cx="7976.3457"
       cy="-10508.842"
       r="13293.867"
       gradientTransform="matrix(0.0222,0,0,-0.0248,721.1671,674.6745)"
       gradientUnits="userSpaceOnUse">
      <stop
         offset="0"
         style="stop-color:#80FF80"
         id="stop388-2" />
      <stop
         offset="1"
         style="stop-color:#0f0"
         id="stop390-0" />
    </radialGradient>
    <radialGradient
       id="polygon413_1_-4"
       cx="7976.3457"
       cy="-10508.842"
       r="13293.867"
       gradientTransform="matrix(0.0222,0,0,-0.0248,721.1671,674.6745)"
       gradientUnits="userSpaceOnUse">
      <stop
         offset="0"
         style="stop-color:#80FF80"
         id="stop388-5" />
      <stop
         offset="1"
         style="stop-color:#0f0"
         id="stop390-03" />
    </radialGradient>
    <radialGradient
       id="polygon413_1_-5"
       cx="7976.3457"
       cy="-10508.842"
       r="13293.867"
       gradientTransform="matrix(0.0222,0,0,-0.0248,721.1671,674.6745)"
       gradientUnits="userSpaceOnUse">
      <stop
         offset="0"
         style="stop-color:#80FF80"
         id="stop388-25" />
      <stop
         offset="1"
         style="stop-color:#0f0"
         id="stop390-4" />
    </radialGradient>
    <radialGradient
       id="polygon413_1_-49"
       cx="7976.3457"
       cy="-10508.842"
       r="13293.867"
       gradientTransform="matrix(0.0222,0,0,-0.0248,721.1671,674.6745)"
       gradientUnits="userSpaceOnUse">
      <stop
         offset="0"
         style="stop-color:#80FF80"
         id="stop388-50" />
      <stop
         offset="1"
         style="stop-color:#0f0"
         id="stop390-48" />
    </radialGradient>
    <radialGradient
       id="polygon413_1_-3"
       cx="7976.3457"
       cy="-10508.842"
       r="13293.867"
       gradientTransform="matrix(0.0222,0,0,-0.0248,721.1671,674.6745)"
       gradientUnits="userSpaceOnUse">
      <stop
         offset="0"
         style="stop-color:#80FF80"
         id="stop388-6" />
      <stop
         offset="1"
         style="stop-color:#0f0"
         id="stop390-7" />
    </radialGradient>
  </defs>
  <sodipodi:namedview
     id="base"
     pagecolor="#ffffff"
     bordercolor="#666666"
     borderopacity="1.0"
     inkscape:pageopacity="0.0"
     inkscape:pageshadow="2"
     inkscape:zoom="0.42711806"
     inkscape:cx="-34.193975"
     inkscape:cy="277.38107"
     inkscape:document-units="px"
     inkscape:current-layer="layer1"
     showgrid="false"
     inkscape:window-width="1366"
     inkscape:window-height="717"
     inkscape:window-x="0"
     inkscape:window-y="24"
     inkscape:window-maximized="1" />
  <metadata
     id="metadata7">
    <rdf:RDF>
      <cc:Work
         rdf:about="">
        <dc:format>image/svg+xml</dc:format>
        <dc:type
           rdf:resource="http://purl.org/dc/dcmitype/StillImage" />
        <dc:title />
      </cc:Work>
    </rdf:RDF>
  </metadata>
  <g
     inkscape:label="Layer 1"
     inkscape:groupmode="layer"
     id="layer1"
     transform="translate(0,-540.36218)">
    <g
       id="g846">
      <path
         style="fill:#c6262e;fill-opacity:1;stroke-width:11.10955715"
         inkscape:connector-curvature="0"
         d="m 432.91327,596.83617 c 102.19291,88.57459 105.82678,249.6997 8.1168,359.89877 C 343.3201,1066.934 181.27964,1084.4628 79.086729,995.8882 -23.106186,907.31362 -26.740042,746.18851 70.969928,635.98943 168.6799,525.79036 330.72036,508.26159 432.91327,596.83617 Z"
         id="path27" />
      <path
         style="opacity:1;stroke-width:11.10955715;fill:#000000;fill-opacity:0.49019608"
         inkscape:connector-curvature="0"
         d="m 511.63551,765.26571 c -1.55139,61.31165 -25.16123,124.1546 -70.96638,175.81447 C 342.95915,1051.2793 180.91869,1068.808 78.725776,980.23348 30.827124,938.71782 4.4968216,881.28503 0.19382768,820.591 0.79907934,886.94767 27.117411,950.84436 79.078682,995.88125 181.27159,1084.4558 343.31975,1066.9184 441.02202,956.72795 490.72697,900.66985 514.02704,831.437 511.63551,765.26571 Z"
         id="path51" />
      <path
         style="fill:#000000;fill-opacity:0.49019608;stroke-width:1.38665676"
         d="m 131.78767,948.03976 c -3.79546,-1.56994 -8.52529,-6.89008 -10.30756,-11.59397 -1.00511,-2.65277 -1.47902,-41.43356 -1.47902,-121.03037 0,-126.87068 -0.26703,-122.29568 7.55935,-129.5176 l 3.7568,-3.46666 143.17431,-0.36586 143.1743,-0.36585 4.73983,3.1666 c 10.14512,6.77767 9.58889,-0.80311 9.58889,130.6837 0,131.45124 0.55185,123.90919 -9.56069,130.6648 l -4.71171,3.14763 -141.58059,-0.0881 c -77.86932,-0.0476 -142.82859,-0.60347 -144.35391,-1.23435 z M 413.97235,815.55024 V 699.76442 H 275.99998 138.02762 V 815.55024 931.3361 H 275.99998 413.97235 Z M 254.5068,892.50969 v -8.31991 H 231.62697 208.74713 V 866.85657 849.52335 H 192.10724 175.46736 V 790.59039 731.6575 h 100.53262 100.53263 v 58.93289 58.93296 h -16.63988 -16.63989 v 17.33322 17.33321 H 320.373 297.49316 v 8.31991 8.31995 H 275.99998 254.5068 Z M 224.00035,774.64388 v -15.25322 h -6.93328 -6.93329 v 14.32879 c 0,7.8808 0.41597,14.74477 0.92444,15.25319 0.50842,0.50838 3.62842,0.92443 6.93329,0.92443 h 6.00884 z m 29.11979,0 v -15.25322 h -6.93328 -6.93328 v 14.32879 c 0,7.8808 0.41597,14.74477 0.92443,15.25319 0.50843,0.50838 3.62842,0.92443 6.93329,0.92443 h 6.00884 z m 29.1198,0 v -15.25322 h -6.23996 -6.23995 v 15.25322 15.25319 h 6.23995 6.23996 z m 30.2067,-0.34658 0.39359,-14.90657 h -6.98021 -6.9802 v 15.3292 15.32923 l 6.58662,-0.42244 6.58662,-0.4224 z m 29.11979,0 0.39359,-14.90657 h -6.98021 -6.9802 v 15.3292 15.32923 l 6.58662,-0.42244 6.58663,-0.4224 z"
         id="path852"
         inkscape:connector-curvature="0" />
      <path
         inkscape:connector-curvature="0"
         id="path850"
         d="m 111.78766,928.03979 c -3.79546,-1.56994 -8.52529,-6.89008 -10.30756,-11.59397 -1.00511,-2.65277 -1.47902,-41.43356 -1.47902,-121.03037 0,-126.87068 -0.267026,-122.29568 7.55935,-129.5176 l 3.7568,-3.46665 143.17431,-0.36586 143.17431,-0.36586 4.73983,3.1666 c 10.14513,6.77768 9.58889,-0.80311 9.58889,130.6837 0,131.45124 0.55185,123.9092 -9.56069,130.6648 l -4.71171,3.14763 -141.58059,-0.0881 c -77.86933,-0.0476 -142.8286,-0.60348 -144.35392,-1.23436 z M 393.97235,795.55027 V 679.76445 H 255.99997 118.02761 V 795.55027 911.33613 H 255.99997 393.97235 Z M 234.5068,872.50973 v -8.31992 H 211.62696 188.74712 V 846.8566 829.52338 H 172.10723 155.46735 V 770.59042 711.65754 H 255.99997 356.5326 v 58.93288 58.93296 h -16.63988 -16.63989 v 17.33322 17.33321 h -22.87984 -22.87984 v 8.31992 8.31994 H 255.99997 234.5068 Z M 204.00034,754.64392 v -15.25323 h -6.93328 -6.93329 v 14.32879 c 0,7.88081 0.41597,14.74477 0.92444,15.25319 0.50842,0.50839 3.62842,0.92444 6.93329,0.92444 h 6.00884 z m 29.11979,0 v -15.25323 h -6.93328 -6.93328 v 14.32879 c 0,7.88081 0.41597,14.74477 0.92444,15.25319 0.50842,0.50839 3.62841,0.92444 6.93328,0.92444 h 6.00884 z m 29.1198,0 v -15.25323 h -6.23996 -6.23995 v 15.25323 15.25319 h 6.23995 6.23996 z m 30.2067,-0.34659 0.39359,-14.90657 h -6.98021 -6.9802 v 15.3292 15.32923 l 6.58662,-0.42243 6.58662,-0.4224 z m 29.11979,0 0.39359,-14.90657 h -6.98021 -6.9802 v 15.3292 15.32923 l 6.58662,-0.42243 6.58663,-0.4224 z"
         style="fill:#ffffff;stroke-width:1.38665676" />
    </g>
  </g>
</svg>
