<?xml version="1.0" encoding="UTF-8" standalone="no"?>
<!-- Created using Karbon, part of Calligra: http://www.calligra.org/karbon -->

<svg
   xmlns:dc="http://purl.org/dc/elements/1.1/"
   xmlns:cc="http://creativecommons.org/ns#"
   xmlns:rdf="http://www.w3.org/1999/02/22-rdf-syntax-ns#"
   xmlns:svg="http://www.w3.org/2000/svg"
   xmlns="http://www.w3.org/2000/svg"
   xmlns:sodipodi="http://sodipodi.sourceforge.net/DTD/sodipodi-0.dtd"
   xmlns:inkscape="http://www.inkscape.org/namespaces/inkscape"
   width="512"
   height="512"
   id="svg2"
   version="1.1"
   inkscape:version="0.92.2 5c3e80d, 2017-08-06"
   sodipodi:docname="network-wireless-connected-100.svg">
  <metadata
     id="metadata15">
    <rdf:RDF>
      <cc:Work
         rdf:about="">
        <dc:format>image/svg+xml</dc:format>
        <dc:type
           rdf:resource="http://purl.org/dc/dcmitype/StillImage" />
        <dc:title />
      </cc:Work>
    </rdf:RDF>
  </metadata>
  <sodipodi:namedview
     pagecolor="#ffffff"
     bordercolor="#666666"
     borderopacity="1"
     objecttolerance="10"
     gridtolerance="10"
     guidetolerance="10"
     inkscape:pageopacity="0"
     inkscape:pageshadow="2"
     inkscape:window-width="1366"
     inkscape:window-height="717"
     id="namedview13"
     showgrid="false"
     inkscape:zoom="0.30729166"
     inkscape:cx="99.269036"
     inkscape:cy="210.91978"
     inkscape:window-x="0"
     inkscape:window-y="24"
     inkscape:window-maximized="1"
     inkscape:current-layer="svg2"
     units="px" />
  <defs
     id="defs4" />
  <g
     transform="translate(-2.6729846e-5,1.9769029e-5)"
     id="g827">
    <path
       style="fill:#68b723;fill-opacity:1;stroke-width:11.10955906"
       inkscape:connector-curvature="0"
       d="M 432.91333,56.473929 C 535.10624,145.04852 538.74007,306.17364 441.0301,416.37272 343.32012,526.57184 181.27968,544.10057 79.086734,455.52602 -23.106174,366.95143 -26.740001,205.82631 70.969972,95.62719 168.67994,-14.571892 330.72039,-32.100661 432.91333,56.473929 Z"
       id="path27-6" />
    <path
       style="opacity:1;fill:#000000;fill-opacity:0.48627451;stroke-width:11.10955906"
       inkscape:connector-curvature="0"
       d="M 511.63556,224.90347 C 510.08414,286.21516 486.4743,349.05808 440.66915,400.71799 342.95918,510.91707 180.91874,528.44584 78.725789,439.87125 30.827156,398.35563 4.4968498,340.9228 0.19385759,280.22877 0.79911114,346.58544 27.117436,410.48217 79.078721,455.51902 181.27163,544.09361 343.31978,526.55619 441.02205,416.36576 c 49.70494,-56.05814 73.00505,-125.291 70.61351,-191.46229 z"
       id="path51-6" />
    <path
       style="fill:#000000;fill-opacity:0.48627451;stroke-width:0.63813853"
       d="m 169.01455,355.10988 c -23.80766,-3.39299 -43.82759,-22.7478 -48.18342,-46.58264 -0.8597,-4.70464 -0.97202,-9.26313 -0.69929,-28.39616 0.32315,-22.66269 0.33486,-22.82381 2.07621,-28.40299 7.53222,-24.13278 26.71184,-39.83622 51.4964,-42.16305 5.04605,-0.47373 40.47889,-0.75277 108.00941,-0.85055 91.23598,-0.1319 100.89774,-0.0491 104.81647,0.90403 23.22727,5.64763 39.84707,22.69402 44.43662,45.57687 1.102,5.49498 1.18473,8.19231 0.88052,28.72101 -0.3326,22.47023 -0.35036,22.70275 -2.08078,28.27169 -3.09218,9.95003 -7.5408,17.6668 -14.2111,24.65072 -6.31979,6.61679 -14.54669,11.90744 -23.19704,14.91761 -9.33834,3.24949 -7.02285,3.18013 -117.22761,3.51356 -56.54539,0.17159 -104.29772,0.0987 -106.11639,-0.16025 z m 217.03018,-9.60208 c 20.15607,-5.75682 34.26316,-21.45161 37.55033,-41.77655 0.85712,-5.29992 0.99704,-38.49566 0.18746,-44.26239 -1.55667,-11.07564 -6.27995,-20.34134 -14.49528,-28.43535 -5.74371,-5.65655 -10.11624,-8.60958 -16.61748,-11.2156 -8.17679,-3.27757 -10.36532,-3.43083 -44.2404,-3.09955 l -31.33459,0.30652 -6.07048,2.13487 c -16.8454,5.92429 -28.95515,19.01427 -33.25592,35.94799 -1.24932,4.9189 -1.37661,7.16202 -1.4516,25.58128 -0.11943,29.30687 -1.42877,39.33449 -6.55498,50.19999 -3.17897,6.7381 -8.26863,12.27515 -13.7664,14.97645 l -3.88029,1.90655 64.4488,-0.41314 c 64.41578,-0.41307 64.45138,-0.41432 69.48167,-1.85084 z m -66.46004,-61.96248 c 0.0151,-18.33967 0.008,-34.06265 -0.0151,-34.94011 l -0.0393,-1.59526 20.25642,-0.24567 20.25645,-0.24529 -0.0265,6.70991 -0.0265,6.70987 -13.08113,0.0495 -13.08102,0.0495 -0.0302,7.3392 -0.0302,7.33917 12.12397,-0.0461 12.1239,-0.0457 -0.0265,6.70099 -0.0265,6.70095 -12.12389,0.0457 -12.12393,0.0461 -0.0582,14.35914 -0.0586,14.35922 -7.01911,0.0265 -7.01911,0.0265 0.0265,-33.34488 z m 51.12726,7.30428 0.10545,-25.84657 7.33814,-0.0265 7.33818,-0.0265 -0.10545,25.8466 -0.10545,25.84657 -7.3381,0.0265 -7.33818,0.0265 z m 3.36839,-28.5806 c -4.0825,-2.08717 -5.53244,-8.07232 -2.84395,-11.73921 3.17511,-4.33066 8.68354,-5.04246 12.51837,-1.61775 3.7833,3.37572 2.97286,10.88129 -1.41906,13.16462 -2.25937,1.1746 -6.1564,1.26539 -8.25536,0.19238 z m -195.47479,34.89698 c 3.03632,-10.97903 5.66411,-19.96214 5.83956,-19.96256 0.17575,-4.1e-4 2.44668,8.96429 5.04703,19.92163 l 4.72796,19.92238 6.77896,0.15496 6.779,0.15496 0.67767,-2.09756 c 0.90864,-2.8125 19.49983,-67.58109 19.50127,-67.93924 0.002,-0.56867 -14.61219,-0.20598 -14.97052,0.37153 -0.20372,0.32844 -2.79897,9.73712 -5.76669,20.90774 l -5.39596,20.31035 -2.30252,-9.86857 c -1.26649,-5.42763 -3.48359,-14.81783 -4.92696,-20.86704 l -2.62431,-10.99857 -6.82269,0.0227 -6.82262,0.0227 -0.42365,1.75665 c -1.73227,7.18371 -10.37125,38.90517 -10.69916,39.28652 -0.22639,0.2623 -2.52744,-8.77436 -5.11389,-20.08308 l -4.70267,-20.56135 -7.83462,-0.15005 c -7.26176,-0.13871 -7.81006,-0.0669 -7.49821,0.98578 0.35112,1.1856 3.91827,15.36385 11.99528,47.67813 2.62953,10.5199 4.93069,19.63866 5.11385,20.26383 0.29707,1.01348 1.06877,1.11454 7.12822,0.93014 l 6.79522,-0.20636 z m 70.71557,-6.01455 -0.0608,-26.00549 -7.17865,0.0265 c -3.94824,0.0151 -7.17948,0.24265 -7.18057,0.50589 -7.6e-4,0.26268 -0.0488,11.96603 -0.10583,26.0061 l -0.10394,25.52746 7.34536,-0.0265 7.34529,-0.0265 z m -3.04324,-28.45296 c 3.81237,-2.12553 5.11767,-7.81436 2.70512,-11.78933 -1.29139,-2.12769 -4.52568,-3.93298 -7.02924,-3.92345 -2.29723,0.0113 -5.79685,2.05115 -7.06617,4.12388 -2.25158,3.67687 -0.95297,9.65752 2.50277,11.52676 2.07719,1.12358 6.92292,1.15744 8.88752,0.0624 z"
       id="path839-1"
       inkscape:connector-curvature="0" />
    <path
       inkscape:connector-curvature="0"
       id="path843-8"
       d="m 149.01461,335.10974 c -23.8077,-3.393 -43.82763,-22.74781 -48.18342,-46.58264 -0.859694,-4.70465 -0.972021,-9.26313 -0.69929,-28.39616 0.32315,-22.66269 0.33487,-22.82381 2.07621,-28.403 7.53222,-24.13277 26.71181,-39.83622 51.4964,-42.16305 5.04601,-0.47372 40.47889,-0.75277 108.00941,-0.85054 91.23599,-0.13191 100.89771,-0.0491 104.81647,0.90402 23.22728,5.64764 39.84707,22.69402 44.43662,45.57687 1.102,5.49498 1.18474,8.19232 0.88052,28.72101 -0.3326,22.47024 -0.35036,22.70275 -2.08078,28.2717 -3.09218,9.95002 -7.5408,17.66679 -14.2111,24.65072 -6.31979,6.61678 -14.54668,11.90744 -23.19704,14.91761 -9.33834,3.24948 -7.02285,3.18013 -117.22764,3.51356 -56.54536,0.17159 -104.29773,0.0986 -106.11636,-0.16025 z m 217.03019,-9.60208 c 20.15607,-5.75683 34.26315,-21.45162 37.55032,-41.77656 0.85712,-5.29991 0.99704,-38.49566 0.18747,-44.26238 -1.55668,-11.07565 -6.27995,-20.34135 -14.49529,-28.43536 -5.74371,-5.65655 -10.11624,-8.60957 -16.61748,-11.21559 -8.17678,-3.27757 -10.36532,-3.43083 -44.24039,-3.09956 l -31.33459,0.30652 -6.07053,2.13487 c -16.84539,5.9243 -28.95511,19.01427 -33.25587,35.94799 -1.24933,4.91891 -1.37662,7.16202 -1.45164,25.58128 -0.11944,29.30688 -1.42878,39.33449 -6.55495,50.19999 -3.17896,6.73811 -8.26863,12.27515 -13.7664,14.97646 l -3.88033,1.90654 64.44884,-0.41314 c 64.41578,-0.41306 64.45138,-0.41431 69.48167,-1.85083 z m -66.46009,-61.96248 c 0.0151,-18.33967 0.008,-34.06266 -0.0151,-34.94011 l -0.0393,-1.59526 20.25645,-0.24567 20.25642,-0.2453 -0.0265,6.70991 -0.0265,6.70987 -13.0811,0.0495 -13.08102,0.0495 -0.0302,7.3392 -0.0302,7.33916 12.12396,-0.0461 12.12386,-0.0457 -0.0265,6.70099 -0.0264,6.70095 -12.1239,0.0457 -12.12393,0.0461 -0.0582,14.35914 -0.0586,14.35922 -7.01908,0.0265 -7.01915,0.0265 0.0265,-33.34485 z m 51.12726,7.30427 0.10545,-25.84656 7.33818,-0.0265 7.33818,-0.0264 -0.10545,25.8466 -0.10545,25.84656 -7.33814,0.0265 -7.33818,0.0265 z m 3.36843,-28.5806 c -4.08253,-2.08716 -5.53243,-8.07231 -2.84394,-11.73921 3.1751,-4.33066 8.68354,-5.04246 12.51836,-1.61775 3.78331,3.37572 2.97286,10.8813 -1.41906,13.16462 -2.2594,1.17461 -6.15644,1.26539 -8.25536,0.19238 z m -195.47479,34.89699 c 3.03632,-10.97904 5.66412,-19.96214 5.83956,-19.96256 0.17575,-4.2e-4 2.44668,8.96428 5.04703,19.92163 l 4.72796,19.92238 6.77893,0.15496 6.779,0.15496 0.67767,-2.09756 c 0.90863,-2.8125 19.49983,-67.5811 19.5013,-67.93924 0.002,-0.56867 -14.61218,-0.20599 -14.97056,0.37152 -0.20371,0.32845 -2.79893,9.73713 -5.76669,20.90775 l -5.39595,20.31035 -2.30253,-9.86858 c -1.26648,-5.42763 -3.48359,-14.81782 -4.92695,-20.86703 l -2.62432,-10.99858 -6.82265,0.0227 -6.82265,0.0227 -0.42365,1.75662 c -1.73227,7.18374 -10.37121,38.90521 -10.69912,39.28656 -0.2264,0.2623 -2.52749,-8.77436 -5.11389,-20.08309 l -4.70272,-20.56135 -7.83462,-0.15004 c -7.26176,-0.13871 -7.81002,-0.0669 -7.49821,0.98574 0.35112,1.1856 3.91832,15.36389 11.99532,47.67817 2.62949,10.5199 4.93069,19.63865 5.11385,20.26379 0.29707,1.01348 1.06878,1.11458 7.12819,0.93018 l 6.79525,-0.20637 z m 70.71557,-6.01455 -0.0608,-26.0055 -7.17865,0.0265 c -3.94824,0.0151 -7.17947,0.24265 -7.18057,0.50589 -7.6e-4,0.26268 -0.0488,11.96606 -0.10583,26.0061 l -0.10393,25.52746 7.34536,-0.0265 7.34528,-0.0265 z m -3.04324,-28.45297 c 3.81234,-2.12553 5.11763,-7.81436 2.70512,-11.78933 -1.29139,-2.12768 -4.52572,-3.93297 -7.02928,-3.92345 -2.29723,0.0113 -5.79685,2.05115 -7.06612,4.12388 -2.25158,3.67688 -0.95301,9.65753 2.50272,11.52677 2.07719,1.12357 6.92296,1.15744 8.88756,0.0624 z"
       style="fill:#ffffff;stroke-width:0.63813853" />
  </g>
</svg>
