<?xml version="1.0" encoding="UTF-8" standalone="no"?>
<!-- Created using Karbon, part of Calligra: http://www.calligra.org/karbon -->

<svg
   xmlns:dc="http://purl.org/dc/elements/1.1/"
   xmlns:cc="http://creativecommons.org/ns#"
   xmlns:rdf="http://www.w3.org/1999/02/22-rdf-syntax-ns#"
   xmlns:svg="http://www.w3.org/2000/svg"
   xmlns="http://www.w3.org/2000/svg"
   xmlns:sodipodi="http://sodipodi.sourceforge.net/DTD/sodipodi-0.dtd"
   xmlns:inkscape="http://www.inkscape.org/namespaces/inkscape"
   width="512"
   height="512"
   id="svg2"
   version="1.1"
   inkscape:version="0.92.2 5c3e80d, 2017-08-06"
   sodipodi:docname="network-wireless-25.svg">
  <metadata
     id="metadata15">
    <rdf:RDF>
      <cc:Work
         rdf:about="">
        <dc:format>image/svg+xml</dc:format>
        <dc:type
           rdf:resource="http://purl.org/dc/dcmitype/StillImage" />
        <dc:title />
      </cc:Work>
    </rdf:RDF>
  </metadata>
  <sodipodi:namedview
     pagecolor="#ffffff"
     bordercolor="#666666"
     borderopacity="1"
     objecttolerance="10"
     gridtolerance="10"
     guidetolerance="10"
     inkscape:pageopacity="0"
     inkscape:pageshadow="2"
     inkscape:window-width="1366"
     inkscape:window-height="717"
     id="namedview13"
     showgrid="false"
     inkscape:zoom="0.43457603"
     inkscape:cx="40.295614"
     inkscape:cy="319.07354"
     inkscape:window-x="0"
     inkscape:window-y="24"
     inkscape:window-maximized="1"
     inkscape:current-layer="svg2"
     units="px" />
  <defs
     id="defs4" />
  <g
     id="g827">
    <path
       style="fill:#8a715e;fill-opacity:1;stroke-width:11.10955906"
       inkscape:connector-curvature="0"
       d="M 432.91331,56.473952 C 535.10622,145.04854 538.74005,306.17366 441.03007,416.37274 343.3201,526.57186 181.27966,544.10059 79.086712,455.52604 -23.106196,366.95145 -26.740023,205.82633 70.96995,95.627227 168.67992,-14.57187 330.72037,-32.100619 432.91331,56.473952 Z"
       id="path27-5" />
    <path
       inkscape:connector-curvature="0"
       style="fill:#f9c440;fill-opacity:1;stroke:none;stroke-width:1.6307044;stroke-miterlimit:4;stroke-dasharray:none;stroke-opacity:1"
       d="m 8.19167,341.33876 c 11.51973,43.40869 35.17872,83.23121 70.89453,114.1875 102.19295,88.57455 264.23337,71.04482 361.94337,-39.15429 20.5217,-23.1448 36.5554,-48.53954 48.1621,-75.03321 z"
       id="rect832" />
    <path
       style="opacity:1;stroke-width:11.10955906;fill:#000000;fill-opacity:0.49019608"
       inkscape:connector-curvature="0"
       d="M 511.63554,224.9035 C 510.08412,286.21518 486.47428,349.05811 440.66913,400.71801 342.95916,510.91709 180.91871,528.44586 78.725767,439.87127 30.827133,398.35566 4.4968277,340.92282 0.19383549,280.22879 0.79908904,346.58546 27.117414,410.48219 79.078699,455.51905 181.27161,544.09364 343.31976,526.55621 441.02202,416.36579 c 49.70495,-56.05815 73.00506,-125.291 70.61352,-191.46229 z"
       id="path51-5" />
    <path
       style="fill:#000000;fill-opacity:0.49019608;stroke-width:0.63813853"
       d="m 169.01455,355.10989 c -23.80769,-3.39299 -43.82762,-22.7478 -48.18342,-46.58264 -0.85973,-4.70464 -0.97202,-9.26313 -0.69928,-28.39615 0.32314,-22.66269 0.33486,-22.82381 2.0762,-28.403 7.53222,-24.13278 26.71181,-39.83622 51.49641,-42.16305 5.04601,-0.47373 40.47889,-0.75277 108.00941,-0.85055 91.23598,-0.1319 100.89774,-0.0491 104.81647,0.90403 23.22727,5.64763 39.84706,22.69402 44.43662,45.57687 1.102,5.49498 1.18473,8.19231 0.88052,28.72101 -0.3326,22.47023 -0.35037,22.70275 -2.08078,28.2717 -3.09219,9.95002 -7.5408,17.66679 -14.2111,24.65072 -6.31979,6.61678 -14.54669,11.90744 -23.19704,14.9176 -9.33838,3.24949 -7.02286,3.18014 -117.22765,3.51357 -56.54536,0.17159 -104.29772,0.0986 -106.11636,-0.16026 z m 217.03015,-9.60207 c 20.15611,-5.75683 34.2632,-21.45162 37.55037,-41.77656 0.85712,-5.29992 0.99704,-38.49566 0.18746,-44.26239 -1.55667,-11.07564 -6.27995,-20.34134 -14.49528,-28.43535 -5.74371,-5.65655 -10.11625,-8.60957 -16.61749,-11.2156 -8.17678,-3.27756 -10.36531,-3.43082 -44.24043,-3.09955 l -31.33455,0.30652 -6.07052,2.13487 c -16.8454,5.92429 -28.95512,19.01427 -33.25588,35.94799 -1.24936,4.91891 -1.37662,7.16202 -1.45164,25.58128 -0.11943,29.30687 -1.42877,39.33449 -6.55495,50.19999 -3.179,6.7381 -8.26866,12.27515 -13.7664,14.97645 l -3.88032,1.90655 64.44884,-0.41314 c 64.41574,-0.41307 64.45138,-0.41431 69.48163,-1.85084 z m -66.46004,-61.96249 c 0.0151,-18.33966 0.008,-34.06265 -0.0113,-34.9401 l -0.0393,-1.59527 20.25646,-0.24567 20.25641,-0.24529 -0.0265,6.70991 -0.0265,6.70987 -13.0811,0.0495 -13.08102,0.0495 -0.0302,7.3392 -0.0302,7.33916 12.12397,-0.0461 12.12386,-0.0457 -0.0265,6.70098 -0.0265,6.70096 -12.12389,0.0457 -12.12393,0.0461 -0.0582,14.35914 -0.0586,14.35922 -7.01907,0.0265 -7.01915,0.0265 0.0264,-33.34488 z m 51.12726,7.30428 0.10545,-25.84656 7.33818,-0.0265 7.33818,-0.0265 -0.10545,25.8466 -0.10545,25.84657 -7.33814,0.0265 -7.33815,0.0265 z m 3.36843,-28.5806 c -4.08254,-2.08717 -5.53244,-8.07231 -2.84395,-11.73921 3.17511,-4.33066 8.68354,-5.04246 12.51836,-1.61775 3.78331,3.37572 2.97287,10.8813 -1.41909,13.16462 -2.25937,1.1746 -6.1564,1.26539 -8.25532,0.19238 z m -195.47479,34.89698 c 3.03632,-10.97903 5.66407,-19.96214 5.83956,-19.96255 0.17575,-4.2e-4 2.44668,8.96428 5.04703,19.92162 l 4.72796,19.92238 6.77892,0.15496 6.779,0.15497 0.67767,-2.09757 c 0.90868,-2.81249 19.49983,-67.58109 19.50131,-67.93924 0.002,-0.56866 -14.61219,-0.20598 -14.97056,0.37153 -0.20372,0.32844 -2.79893,9.73712 -5.76665,20.90774 l -5.396,20.31035 -2.30252,-9.86857 c -1.26649,-5.42763 -3.48359,-14.81783 -4.92696,-20.86704 l -2.62431,-10.99857 -6.82266,0.0227 -6.82265,0.0227 -0.42364,1.75665 c -1.73228,7.18371 -10.37122,38.90517 -10.69913,39.28653 -0.22639,0.2623 -2.52748,-8.77437 -5.11389,-20.08309 l -4.70271,-20.56135 -7.83462,-0.15005 c -7.26176,-0.1387 -7.81002,-0.0669 -7.49821,0.98578 0.35112,1.1856 3.91831,15.36386 11.99531,47.67814 2.6295,10.5199 4.9307,19.63865 5.11386,20.26382 0.29707,1.01348 1.06877,1.11455 7.12818,0.93014 l 6.79526,-0.20636 z m 70.71557,-6.01455 -0.0609,-26.00549 -7.17864,0.0265 c -3.94825,0.0151 -7.17952,0.24264 -7.18057,0.50589 -7.6e-4,0.26267 -0.0488,11.96602 -0.10583,26.00609 l -0.10394,25.52746 7.34536,-0.0265 7.34525,-0.0265 z m -3.04324,-28.45296 c 3.81233,-2.12553 5.11763,-7.81436 2.70512,-11.78933 -1.29139,-2.12768 -4.52572,-3.93298 -7.02928,-3.92345 -2.29723,0.0113 -5.79685,2.05115 -7.06617,4.12388 -2.25154,3.67687 -0.95297,9.65752 2.50277,11.52676 2.07719,1.12358 6.92296,1.15745 8.88756,0.0624 z"
       id="path839-6"
       inkscape:connector-curvature="0" />
    <path
       inkscape:connector-curvature="0"
       id="path843-2"
       d="m 149.01455,335.10976 c -23.80766,-3.393 -43.82759,-22.74781 -48.18342,-46.58264 -0.859693,-4.70464 -0.972021,-9.26313 -0.69929,-28.39616 0.32315,-22.66269 0.33487,-22.82381 2.07625,-28.403 7.53218,-24.13277 26.71181,-39.83622 51.49636,-42.16305 5.04605,-0.47372 40.47889,-0.75276 108.00941,-0.85054 91.23602,-0.13191 100.89774,-0.0491 104.81647,0.90402 23.22731,5.64764 39.84711,22.69403 44.43666,45.57687 1.102,5.49498 1.18473,8.19232 0.88052,28.72101 -0.3326,22.47024 -0.35036,22.70275 -2.08078,28.2717 -3.09218,9.95002 -7.5408,17.6668 -14.2111,24.65072 -6.31979,6.61678 -14.54668,11.90744 -23.19704,14.91761 -9.33838,3.24948 -7.02285,3.18013 -117.22764,3.51356 -56.5454,0.17159 -104.29773,0.0987 -106.1164,-0.16025 z m 217.03019,-9.60208 c 20.1561,-5.75682 34.26319,-21.45162 37.55036,-41.77655 0.85712,-5.29992 0.99704,-38.49566 0.18746,-44.26239 -1.55667,-11.07564 -6.27995,-20.34134 -14.49528,-28.43535 -5.74371,-5.65656 -10.11624,-8.60958 -16.61752,-11.2156 -8.17675,-3.27757 -10.36532,-3.43083 -44.24039,-3.09955 l -31.33455,0.30652 -6.07053,2.13486 c -16.84539,5.9243 -28.95511,19.01428 -33.25591,35.948 -1.24933,4.9189 -1.37662,7.16201 -1.45161,25.58128 -0.11943,29.30687 -1.42881,39.33448 -6.55494,50.19998 -3.179,6.73811 -8.26867,12.27515 -13.7664,14.97646 l -3.88033,1.90654 64.4488,-0.41314 c 64.41578,-0.41306 64.45138,-0.41431 69.48167,-1.85083 z M 299.58469,263.5452 c 0.0151,-18.33967 0.008,-34.06265 -0.0113,-34.94011 l -0.0393,-1.59526 20.25645,-0.24567 20.25642,-0.24529 -0.0265,6.70991 -0.0265,6.70987 -13.08109,0.0495 -13.08106,0.0495 -0.0302,7.3392 -0.0302,7.33916 12.12396,-0.0461 12.1239,-0.0457 -0.0265,6.70099 -0.0265,6.70095 -12.12389,0.0457 -12.12397,0.0461 -0.0582,14.35915 -0.0586,14.35922 -7.01908,0.0265 -7.01915,0.0265 0.0265,-33.34485 z m 51.12726,7.30428 0.10545,-25.84657 7.33814,-0.0265 7.33818,-0.0265 -0.10545,25.8466 -0.10545,25.84656 -7.3381,0.0265 -7.33818,0.0265 z m 3.36843,-28.5806 c -4.08253,-2.08717 -5.53247,-8.07232 -2.84398,-11.73922 3.1751,-4.33065 8.68354,-5.04245 12.5184,-1.61775 3.78327,3.37573 2.97282,10.8813 -1.4191,13.16463 -2.25937,1.1746 -6.1564,1.26538 -8.25532,0.19237 z m -195.47483,34.89698 c 3.03633,-10.97904 5.66412,-19.96214 5.8396,-19.96256 0.17575,-4.1e-4 2.44664,8.96429 5.04699,19.92163 l 4.72797,19.92238 6.77896,0.15496 6.77899,0.15496 0.67767,-2.09756 c 0.90864,-2.8125 19.49983,-67.58109 19.50127,-67.93924 0.002,-0.56867 -14.61215,-0.20599 -14.97052,0.37153 -0.20372,0.32844 -2.79893,9.73712 -5.76669,20.90774 l -5.39596,20.31035 -2.30252,-9.86857 c -1.26648,-5.42763 -3.48359,-14.81783 -4.92696,-20.86704 l -2.62431,-10.99858 -6.82269,0.0227 -6.82262,0.0227 -0.42364,1.75661 c -1.73227,7.18375 -10.37122,38.90521 -10.69916,39.28656 -0.2264,0.2623 -2.52745,-8.77436 -5.11389,-20.08309 l -4.70268,-20.56134 -7.83462,-0.15005 c -7.26176,-0.13871 -7.81006,-0.0669 -7.49821,0.98574 0.35112,1.1856 3.91828,15.36389 11.99528,47.67817 2.62953,10.5199 4.93069,19.63865 5.11385,20.26379 0.29707,1.01348 1.06878,1.11458 7.12823,0.93018 l 6.79521,-0.20636 z m 70.71557,-6.01455 -0.0609,-26.00549 -7.17861,0.0265 c -3.94828,0.0151 -7.17951,0.24265 -7.18057,0.50589 -8e-4,0.26268 -0.0488,11.96606 -0.10583,26.0061 l -0.10394,25.52746 7.34537,-0.0265 7.34524,-0.0265 z m -3.04324,-28.45297 c 3.81237,-2.12553 5.11767,-7.81436 2.70516,-11.78933 -1.29143,-2.12768 -4.52572,-3.93297 -7.02928,-3.92345 -2.29727,0.0113 -5.79685,2.05115 -7.06616,4.12388 -2.25154,3.67688 -0.95297,9.65753 2.50276,11.52677 2.07719,1.12358 6.92292,1.15744 8.88752,0.0624 z"
       style="fill:#ffffff;stroke-width:0.63813853" />
  </g>
</svg>
