<?xml version="1.0" encoding="UTF-8" standalone="no"?>
<!-- Generator: Adobe Illustrator 19.0.0, SVG Export Plug-In . SVG Version: 6.00 Build 0)  -->

<svg
   xmlns:dc="http://purl.org/dc/elements/1.1/"
   xmlns:cc="http://creativecommons.org/ns#"
   xmlns:rdf="http://www.w3.org/1999/02/22-rdf-syntax-ns#"
   xmlns:svg="http://www.w3.org/2000/svg"
   xmlns="http://www.w3.org/2000/svg"
   xmlns:sodipodi="http://sodipodi.sourceforge.net/DTD/sodipodi-0.dtd"
   xmlns:inkscape="http://www.inkscape.org/namespaces/inkscape"
   version="1.1"
   id="Layer_1"
   x="0px"
   y="0px"
   viewBox="0 0 512 512"
   xml:space="preserve"
   inkscape:version="0.92.2 5c3e80d, 2017-08-06"
   width="512"
   height="512"
   sodipodi:docname="video-television.svg"><metadata
     id="metadata57"><rdf:RDF><cc:Work
         rdf:about=""><dc:format>image/svg+xml</dc:format><dc:type
           rdf:resource="http://purl.org/dc/dcmitype/StillImage" /><dc:title /></cc:Work></rdf:RDF></metadata><defs
     id="defs55" /><sodipodi:namedview
     pagecolor="#ffffff"
     bordercolor="#666666"
     borderopacity="1"
     objecttolerance="10"
     gridtolerance="10"
     guidetolerance="10"
     inkscape:pageopacity="0"
     inkscape:pageshadow="2"
     inkscape:window-width="1366"
     inkscape:window-height="717"
     id="namedview53"
     showgrid="false"
     inkscape:zoom="0.52559509"
     inkscape:cx="106.14865"
     inkscape:cy="143.17093"
     inkscape:window-x="0"
     inkscape:window-y="24"
     inkscape:window-maximized="1"
     inkscape:current-layer="Layer_1"
     units="px" /><g
     id="g23"
     transform="translate(0,39.767)" /><g
     id="g25"
     transform="translate(0,39.767)" /><g
     id="g27"
     transform="translate(0,39.767)" /><g
     id="g29"
     transform="translate(0,39.767)" /><g
     id="g31"
     transform="translate(0,39.767)" /><g
     id="g33"
     transform="translate(0,39.767)" /><g
     id="g35"
     transform="translate(0,39.767)" /><g
     id="g37"
     transform="translate(0,39.767)" /><g
     id="g39"
     transform="translate(0,39.767)" /><g
     id="g41"
     transform="translate(0,39.767)" /><g
     id="g43"
     transform="translate(0,39.767)" /><g
     id="g45"
     transform="translate(0,39.767)" /><g
     id="g47"
     transform="translate(0,39.767)" /><g
     id="g49"
     transform="translate(0,39.767)" /><g
     id="g51"
     transform="translate(0,39.767)" /><g
     id="g864"><path
       id="path27"
       d="M 432.91327,56.473967 C 535.10618,145.04856 538.74005,306.17367 441.03007,416.37276 343.3201,526.57184 181.27964,544.10061 79.086729,455.52602 -23.106186,366.95143 -26.740042,205.82631 70.969928,95.627227 168.6799,-14.571854 330.72036,-32.100623 432.91327,56.473967 Z"
       inkscape:connector-curvature="0"
       style="fill:#3689e6;fill-opacity:1;stroke-width:11.10955811" /><path
       id="path51"
       d="M 511.63551,224.90351 C 510.08412,286.21516 486.47428,349.05812 440.66913,400.71799 342.95915,510.91711 180.91869,528.44584 78.725776,439.87129 30.827124,398.35563 4.4968216,340.92284 0.19382768,280.2288 0.79907934,346.58548 27.117411,410.48217 79.078682,455.51906 181.27159,544.09361 343.31975,526.55619 441.02202,416.36576 490.72697,360.30766 514.02704,291.0748 511.63551,224.90351 Z"
       inkscape:connector-curvature="0"
       style="opacity:1;fill:#000000;fill-opacity:0.49019608;stroke-width:11.10955811" /><path
       inkscape:connector-curvature="0"
       id="path871"
       d="m 190.31533,410.73791 c -2.43813,-1.90837 -3.29327,-5.07811 -2.12804,-7.86851 1.51906,-3.6352 3.48625,-4.24262 13.71676,-4.24262 h 8.91318 l 4.07902,-3.4816 c 6.57615,-5.61571 12.63378,-13.01412 17.40569,-21.26197 3.17119,-5.48073 7.95621,-18.30401 7.96311,-21.3411 l 0.005,-1.74545 -50.27909,-0.23273 -50.27911,-0.23273 -4.80936,-2.37614 c -5.88,-2.90677 -10.04639,-7.15172 -12.87028,-13.11419 L 120,330.55171 v -85.21079 -85.21078 l 2.37721,-4.81048 c 2.90634,-5.88102 7.15059,-10.04684 13.1122,-12.86982 l 4.28964,-2.02473 h 136.22091 136.22089 l 4.28973,2.02473 c 5.96161,2.82298 10.20586,6.9888 13.1122,12.86982 L 432,160.13014 v 85.21078 85.21079 l -2.03217,4.28916 c -2.82389,5.96247 -6.9903,10.20742 -12.87029,13.11419 l -4.80934,2.37614 -50.27913,0.23273 -50.27909,0.23273 v 1.536 c 0,2.21091 2.96332,11.35476 5.39167,16.64233 4.09674,8.92044 11.51695,18.74618 19.24806,25.4883 l 4.75076,4.14487 h 8.9438 c 10.26374,0 12.22731,0.60509 13.74741,4.24262 1.16527,2.7904 0.31,5.95084 -2.12805,7.86851 -1.62049,1.28 -2.38371,1.28 -85.68374,1.28 -83.30004,0 -84.06338,-0.0116 -85.68374,-1.28 z m 127.16404,-15.9907 c -9.74864,-11.71549 -16.08257,-24.49222 -19.10442,-38.53964 l -1.10057,-5.11535 h -21.27537 -21.27535 l -1.10662,5.14327 c -2.99857,13.94037 -8.87566,25.87928 -18.58871,37.76467 l -3.78028,4.62662 h 44.73006 44.73003 z m 94.9413,-59.45252 c 1.46269,-0.97746 3.45158,-2.95564 4.41961,-4.41717 1.68146,-2.53905 1.76989,-3.06501 1.97935,-11.79927 l 0.21876,-9.1392 H 276.05889 133.07878 l 0.002,7.81498 c 0.002,4.3008 0.3106,8.92277 0.68587,10.27491 0.8408,3.02778 5.44613,7.78008 8.35532,8.62255 1.33367,0.39564 51.39797,0.58182 134.87926,0.512 h 132.75838 l 2.65954,-1.76873 z m -140.43663,-6.22546 c -2.43812,-1.90836 -3.29323,-5.07811 -2.12806,-7.86851 0.96931,-2.32727 3.75473,-4.24262 6.14305,-4.24262 2.38834,0 5.17376,1.93164 6.14307,4.24262 1.8304,4.38226 -1.37286,9.15549 -6.14307,9.15549 -1.4201,0 -3.03946,-0.512 -4.01501,-1.28 z m 146.78727,-99.40948 -0.16989,-66.88118 -1.76011,-2.66007 c -0.96792,-1.46618 -2.95687,-3.45135 -4.41966,-4.41949 l -2.65963,-1.76873 H 275.99905 142.23712 l -2.65962,1.76873 c -1.46278,0.97745 -3.45162,2.95564 -4.41966,4.41949 l -1.76005,2.66007 -0.17105,66.88118 -0.17106,66.88118 h 142.94321 142.94322 z"
       style="fill:#000000;fill-opacity:0.49019608;stroke-width:0.63803709" /><path
       sodipodi:nodetypes="cccc"
       inkscape:connector-curvature="0"
       id="path873"
       d="M 138.83057,293.6109 412.67393,159.0433 H 138.83057 Z"
       style="fill:#000000;fill-opacity:0.49019608;stroke:none;stroke-width:23.27273369px;stroke-linecap:butt;stroke-linejoin:miter;stroke-opacity:1" /><g
       transform="matrix(23.272733,0,0,23.272733,-2.3717561e-5,-23983.319)"
       id="g861"><path
         inkscape:connector-curvature="0"
         id="path857"
         d="m 7.3182352,1047.3225 c -0.1047632,-0.082 -0.1415073,-0.2182 -0.091439,-0.3381 0.065272,-0.1562 0.1497997,-0.1823 0.5893917,-0.1823 h 0.3829884 l 0.1752701,-0.1496 c 0.2825688,-0.2413 0.5428578,-0.5592 0.7479005,-0.9136 0.1362621,-0.2355 0.3418687,-0.7865 0.342165,-0.917 l 2.112e-4,-0.075 -2.1604291,-0.01 -2.16043,-0.01 -0.2066521,-0.1021 c -0.2526562,-0.1249 -0.4316806,-0.3073 -0.5530196,-0.5635 l -0.087318,-0.1843 v -3.6614 -3.6614 l 0.1021458,-0.2067 c 0.1248817,-0.2527 0.3072517,-0.4317 0.5634146,-0.553 l 0.1843204,-0.087 h 5.8532409 5.85324 l 0.184324,0.087 c 0.256163,0.1213 0.438533,0.3003 0.563415,0.553 l 0.102146,0.2067 v 3.6614 3.6614 l -0.08732,0.1843 c -0.121339,0.2562 -0.300364,0.4386 -0.55302,0.5635 l -0.206651,0.1021 -2.160431,0.01 -2.160429,0.01 v 0.066 c 0,0.095 0.12733,0.4879 0.231673,0.7151 0.176032,0.3833 0.494869,0.8055 0.827065,1.0952 l 0.204134,0.1781 h 0.384304 c 0.44102,0 0.525392,0.026 0.590709,0.1823 0.05007,0.1199 0.01332,0.2557 -0.09144,0.3381 -0.06963,0.055 -0.102425,0.055 -3.681722,0.055 -3.579298,0 -3.6120975,-5e-4 -3.6817226,-0.055 z m 5.4640788,-0.6871 c -0.418887,-0.5034 -0.691048,-1.0524 -0.820893,-1.656 l -0.04729,-0.2198 H 10.999955 10.08578 l -0.04755,0.221 c -0.1288447,0.599 -0.3813757,1.112 -0.7987332,1.6227 l -0.1624339,0.1988 h 1.9219941 1.921993 z m 4.079508,-2.5546 c 0.06285,-0.042 0.14831,-0.127 0.189905,-0.1898 0.07225,-0.1091 0.07605,-0.1317 0.08505,-0.507 l 0.0094,-0.3927 H 11.002528 4.8588531 l 1.036e-4,0.3358 c 8.51e-5,0.1848 0.013346,0.3834 0.029471,0.4415 0.036128,0.1301 0.2340133,0.3343 0.3590173,0.3705 0.057306,0.017 2.2085059,0.025 5.795592,0.022 h 5.70446 l 0.114277,-0.076 z m -6.034385,-0.2675 c -0.104763,-0.082 -0.141506,-0.2182 -0.09144,-0.3381 0.04165,-0.1 0.161336,-0.1823 0.263959,-0.1823 0.102624,0 0.22231,0.083 0.26396,0.1823 0.07865,0.1883 -0.05899,0.3934 -0.26396,0.3934 -0.06102,0 -0.130602,-0.022 -0.17252,-0.055 z m 6.307264,-4.2715 -0.0073,-2.8738 -0.07563,-0.1143 c -0.04159,-0.063 -0.127053,-0.1483 -0.189907,-0.1899 l -0.114281,-0.076 H 10.999957 5.2523753 l -0.1142805,0.076 c -0.062854,0.042 -0.1483118,0.127 -0.1899072,0.1899 l -0.075627,0.1143 -0.00735,2.8738 -0.00735,2.8738 h 6.1420894 6.14209 z"
         style="fill:#ffffff;stroke-width:0.02741565" /><path
         sodipodi:nodetypes="cccc"
         inkscape:connector-curvature="0"
         id="path851"
         d="m 5.106,1042.2897 11.766704,-5.7822 H 5.106 Z"
         style="fill:#ffffff;stroke:none;stroke-width:1px;stroke-linecap:butt;stroke-linejoin:miter;stroke-opacity:1" /><path
         style="fill:#ffffff;stroke-width:0.02741565"
         d="m 7.3182352,1047.3225 c -0.1047632,-0.082 -0.1415073,-0.2182 -0.091439,-0.3381 0.065272,-0.1562 0.1497997,-0.1823 0.5893917,-0.1823 h 0.3829884 l 0.1752701,-0.1496 c 0.2825688,-0.2413 0.5428578,-0.5592 0.7479005,-0.9136 0.1362621,-0.2355 0.3418687,-0.7865 0.342165,-0.917 l 2.112e-4,-0.075 -2.1604291,-0.01 -2.16043,-0.01 -0.2066521,-0.1021 c -0.2526562,-0.1249 -0.4316806,-0.3073 -0.5530196,-0.5635 l -0.087318,-0.1843 v -3.6614 -3.6614 l 0.1021458,-0.2067 c 0.1248817,-0.2527 0.3072517,-0.4317 0.5634146,-0.553 l 0.1843204,-0.087 h 5.8532409 5.85324 l 0.184324,0.087 c 0.256163,0.1213 0.438533,0.3003 0.563415,0.553 l 0.102146,0.2067 v 3.6614 3.6614 l -0.08732,0.1843 c -0.121339,0.2562 -0.300364,0.4386 -0.55302,0.5635 l -0.206651,0.1021 -2.160431,0.01 -2.160429,0.01 v 0.066 c 0,0.095 0.12733,0.4879 0.231673,0.7151 0.176032,0.3833 0.494869,0.8055 0.827065,1.0952 l 0.204134,0.1781 h 0.384304 c 0.44102,0 0.525392,0.026 0.590709,0.1823 0.05007,0.1199 0.01332,0.2557 -0.09144,0.3381 -0.06963,0.055 -0.102425,0.055 -3.681722,0.055 -3.579298,0 -3.6120975,-5e-4 -3.6817226,-0.055 z m 5.4640788,-0.6871 c -0.418887,-0.5034 -0.691048,-1.0524 -0.820893,-1.656 l -0.04729,-0.2198 H 10.999955 10.08578 l -0.04755,0.221 c -0.1288447,0.599 -0.3813757,1.112 -0.7987332,1.6227 l -0.1624339,0.1988 h 1.9219941 1.921993 z m 4.079508,-2.5546 c 0.06285,-0.042 0.14831,-0.127 0.189905,-0.1898 0.07225,-0.1091 0.07605,-0.1317 0.08505,-0.507 l 0.0094,-0.3927 H 11.002528 4.8588531 l 1.036e-4,0.3358 c 8.51e-5,0.1848 0.013346,0.3834 0.029471,0.4415 0.036128,0.1301 0.2340133,0.3343 0.3590173,0.3705 0.057306,0.017 2.2085059,0.025 5.795592,0.022 h 5.70446 l 0.114277,-0.076 z m -6.034385,-0.2675 c -0.104763,-0.082 -0.141506,-0.2182 -0.09144,-0.3381 0.04165,-0.1 0.161336,-0.1823 0.263959,-0.1823 0.102624,0 0.22231,0.083 0.26396,0.1823 0.07865,0.1883 -0.05899,0.3934 -0.26396,0.3934 -0.06102,0 -0.130602,-0.022 -0.17252,-0.055 z m 6.307264,-4.2715 -0.0073,-2.8738 -0.07563,-0.1143 c -0.04159,-0.063 -0.127053,-0.1483 -0.189907,-0.1899 l -0.114281,-0.076 H 10.999957 5.2523753 l -0.1142805,0.076 c -0.062854,0.042 -0.1483118,0.127 -0.1899072,0.1899 l -0.075627,0.1143 -0.00735,2.8738 -0.00735,2.8738 h 6.1420894 6.14209 z"
         id="path853"
         inkscape:connector-curvature="0" /><path
         style="fill:#ffffff;stroke:none;stroke-width:1px;stroke-linecap:butt;stroke-linejoin:miter;stroke-opacity:1"
         d="m 5.106,1042.2897 11.766704,-5.7822 H 5.106 Z"
         id="path855"
         inkscape:connector-curvature="0"
         sodipodi:nodetypes="cccc" /></g></g></svg>