<?xml version="1.0" encoding="UTF-8" standalone="no"?>
<!-- Created with Inkscape (http://www.inkscape.org/) -->

<svg
   xmlns:dc="http://purl.org/dc/elements/1.1/"
   xmlns:cc="http://creativecommons.org/ns#"
   xmlns:rdf="http://www.w3.org/1999/02/22-rdf-syntax-ns#"
   xmlns:svg="http://www.w3.org/2000/svg"
   xmlns="http://www.w3.org/2000/svg"
   xmlns:sodipodi="http://sodipodi.sourceforge.net/DTD/sodipodi-0.dtd"
   xmlns:inkscape="http://www.inkscape.org/namespaces/inkscape"
   id="svg2"
   version="1.1"
   inkscape:version="0.92.2 5c3e80d, 2017-08-06"
   width="512"
   height="512"
   sodipodi:docname="video-projector.svg"
   viewBox="0 0 512 512">
  <metadata
     id="metadata8">
    <rdf:RDF>
      <cc:Work
         rdf:about="">
        <dc:format>image/svg+xml</dc:format>
        <dc:type
           rdf:resource="http://purl.org/dc/dcmitype/StillImage" />
        <dc:title />
      </cc:Work>
    </rdf:RDF>
  </metadata>
  <defs
     id="defs6" />
  <sodipodi:namedview
     pagecolor="#ffffff"
     bordercolor="#666666"
     borderopacity="1"
     objecttolerance="10"
     gridtolerance="10"
     guidetolerance="10"
     inkscape:pageopacity="0"
     inkscape:pageshadow="2"
     inkscape:window-width="1366"
     inkscape:window-height="717"
     id="namedview4"
     showgrid="false"
     inkscape:zoom="0.53515625"
     inkscape:cx="67.543391"
     inkscape:cy="284.55824"
     inkscape:window-x="0"
     inkscape:window-y="24"
     inkscape:window-maximized="1"
     inkscape:current-layer="svg2"
     showguides="true"
     inkscape:guide-bbox="true"
     inkscape:document-units="px" />
  <path
     style="fill:#cccccc;fill-opacity:1;fill-rule:evenodd;stroke:none;stroke-width:1.02230215"
     d=""
     id="path3783"
     inkscape:connector-curvature="0" />
  <g
     id="g825">
    <path
       id="path27"
       d="M 432.91327,56.473967 C 535.10618,145.04856 538.74005,306.17367 441.03007,416.37276 343.3201,526.57184 181.27964,544.10061 79.086729,455.52602 -23.106186,366.95143 -26.740042,205.82631 70.969928,95.627227 168.6799,-14.571854 330.72036,-32.100623 432.91327,56.473967 Z"
       inkscape:connector-curvature="0"
       style="fill:#3689e6;fill-opacity:1;stroke-width:11.10955811" />
    <path
       id="path51"
       d="M 511.63551,224.90351 C 510.08412,286.21516 486.47428,349.05812 440.66913,400.71799 342.95915,510.91711 180.91869,528.44584 78.725776,439.87129 30.827124,398.35563 4.4968216,340.92284 0.19382768,280.2288 0.79907934,346.58548 27.117411,410.48217 79.078682,455.51906 181.27159,544.09361 343.31975,526.55619 441.02202,416.36576 490.72697,360.30766 514.02704,291.0748 511.63551,224.90351 Z"
       inkscape:connector-curvature="0"
       style="opacity:1;stroke-width:11.10955811;fill:#000000;fill-opacity:0.49019608" />
    <path
       style="fill:#000000;fill-opacity:0.49019608;stroke-width:0.74225998"
       d="m 147.21789,348.11585 c -2.46525,-1.394 -2.95284,-2.89017 -3.34017,-10.24933 l -0.37113,-7.05147 -4.18402,-0.44983 c -8.45765,-0.90929 -15.85256,-6.74246 -18.08721,-14.26737 -1.64715,-5.54653 -1.64715,-82.29615 0,-87.84268 1.44451,-4.86418 6.27565,-10.33945 11.10905,-12.59018 3.61358,-1.68271 4.37607,-1.74163 22.6296,-1.74863 l 18.89001,-0.007 8.20247,-4.10109 c 12.03117,-6.01538 17.51434,-7.27909 31.58367,-7.27909 14.06933,0 19.5525,1.26371 31.58367,7.27909 l 8.20248,4.10126 81.23985,0.007 81.23985,0.007 3.73958,1.74138 c 4.8334,2.25073 9.66455,7.726 11.10905,12.59018 1.64714,5.54653 1.64714,82.29615 0,87.84269 -2.23465,7.5249 -9.62955,13.35807 -18.08721,14.26736 l -4.18402,0.44949 -0.19192,6.68034 c -0.21126,7.35312 -0.92331,9.44486 -3.63586,10.68078 C 403.43472,348.73659 393.24276,349 372.7729,349 h -30.0837 l -2.16968,-2.16969 c -2.096,-2.09599 -2.16968,-2.41109 -2.16968,-9.27825 v -7.10856 h -42.71491 -42.71492 l -5.34641,2.92713 c -7.52189,4.11819 -17.633,7.31057 -26.41964,8.34148 -5.49806,0.64507 -7.5038,1.15679 -7.5038,1.91446 0,0.56874 -0.97635,2.01042 -2.16968,3.20374 L 209.3108,349 179.0066,348.9774 c -21.13277,-0.0157 -30.75347,-0.27662 -31.78871,-0.86201 z m 81.26535,-23.61237 c 23.59803,-6.72699 39.40035,-27.7138 39.40035,-52.32697 0,-22.60662 -12.71555,-41.74899 -33.45015,-50.35681 -33.33014,-13.83678 -71.02625,8.43325 -74.8147,44.19887 -2.61268,24.66554 11.07773,47.49257 34.04796,56.77065 10.45221,4.22184 23.72717,4.87546 34.81654,1.71426 z m -24.55005,-22.93079 c -7.21232,-2.30754 -14.37869,-8.32037 -17.71803,-14.86602 -3.32914,-6.52564 -4.56201,-15.2516 -2.96653,-20.9963 0.70997,-2.55636 0.90033,-2.70343 2.64208,-2.04122 6.44296,2.44961 15.70101,-1.90202 18.58998,-8.73799 1.17074,-2.77022 1.44993,-6.95542 0.69117,-10.3609 -0.51116,-2.29421 -0.43799,-2.38386 2.30511,-2.82439 1.55816,-0.25024 3.43263,-0.57624 4.16549,-0.72447 2.59035,-0.52389 11.29097,1.15696 15.16175,2.92907 7.75501,3.55036 14.66151,11.96408 16.98547,20.69224 4.13892,15.54467 -5.58139,32.59695 -21.18155,37.15869 -5.25941,1.53793 -13.46741,1.43741 -18.67494,-0.22871 z m 184.41841,-5.55391 c 3.64514,-1.52304 5.66774,-4.50847 5.66774,-8.36581 0,-2.66649 -0.45674,-3.74943 -2.54045,-6.02355 l -2.54046,-2.77257 -37.72715,-0.19515 c -34.79168,-0.17996 -37.92929,-0.0933 -40.32506,1.11339 -3.34088,1.68277 -5.53478,5.94935 -4.87303,9.4768 0.54003,2.87863 4.06308,6.78785 6.54941,7.26732 0.91509,0.17647 17.79083,0.36634 37.50167,0.42193 28.95288,0.0817 36.30846,-0.0955 38.28733,-0.92236 z m 0,-31.17492 c 3.64514,-1.52304 5.66774,-4.50847 5.66774,-8.3658 0,-2.6665 -0.45674,-3.74944 -2.54045,-6.02356 l -2.54046,-2.77257 -37.72715,-0.19514 c -34.79168,-0.17997 -37.92929,-0.0933 -40.32506,1.11339 -3.34088,1.68276 -5.53478,5.94934 -4.87303,9.47679 0.54003,2.87863 4.06308,6.78785 6.54941,7.26732 0.91509,0.17647 17.79083,0.36634 37.50167,0.42193 28.95288,0.0817 36.30846,-0.0955 38.28733,-0.92236 z"
       id="path882"
       inkscape:connector-curvature="0" />
    <path
       inkscape:connector-curvature="0"
       id="path880"
       d="m 127.21789,328.11585 c -2.46525,-1.394 -2.95284,-2.89017 -3.34017,-10.24933 l -0.37113,-7.05147 -4.18402,-0.44983 c -8.45765,-0.90929 -15.85256,-6.74246 -18.08721,-14.26737 -1.647146,-5.54653 -1.647146,-82.29615 0,-87.84268 1.44451,-4.86418 6.27565,-10.33945 11.10905,-12.59018 3.61358,-1.68271 4.37607,-1.74163 22.6296,-1.74863 l 18.89001,-0.007 8.20247,-4.10109 c 12.03117,-6.01538 17.51434,-7.27909 31.58367,-7.27909 14.06933,0 19.5525,1.26371 31.58367,7.27909 l 8.20248,4.10126 81.23985,0.007 81.23985,0.007 3.73958,1.74138 c 4.8334,2.25073 9.66455,7.726 11.10905,12.59018 1.64714,5.54653 1.64714,82.29615 0,87.84269 -2.23465,7.5249 -9.62955,13.35807 -18.08721,14.26736 l -4.18402,0.44949 -0.19192,6.68034 c -0.21126,7.35312 -0.92331,9.44486 -3.63586,10.68078 C 383.43472,328.73659 373.24276,329 352.7729,329 h -30.0837 l -2.16968,-2.16969 c -2.096,-2.09599 -2.16968,-2.41109 -2.16968,-9.27825 v -7.10856 h -42.71491 -42.71492 l -5.34641,2.92713 c -7.52189,4.11819 -17.633,7.31057 -26.41964,8.34148 -5.49806,0.64507 -7.5038,1.15679 -7.5038,1.91446 0,0.56874 -0.97635,2.01042 -2.16968,3.20374 L 189.3108,329 159.0066,328.9774 c -21.13277,-0.0157 -30.75347,-0.27662 -31.78871,-0.86201 z m 81.26535,-23.61237 c 23.59803,-6.72699 39.40035,-27.7138 39.40035,-52.32697 0,-22.60662 -12.71555,-41.74899 -33.45015,-50.35681 -33.33014,-13.83678 -71.02625,8.43325 -74.8147,44.19887 -2.61268,24.66554 11.07773,47.49257 34.04796,56.77065 10.45221,4.22184 23.72717,4.87546 34.81654,1.71426 z m -24.55005,-22.93079 c -7.21232,-2.30754 -14.37869,-8.32037 -17.71803,-14.86602 -3.32914,-6.52564 -4.56201,-15.2516 -2.96653,-20.9963 0.70997,-2.55636 0.90033,-2.70343 2.64208,-2.04122 6.44296,2.44961 15.70101,-1.90202 18.58998,-8.73799 1.17074,-2.77022 1.44993,-6.95542 0.69117,-10.3609 -0.51116,-2.29421 -0.43799,-2.38386 2.30511,-2.82439 1.55816,-0.25024 3.43263,-0.57624 4.16549,-0.72447 2.59035,-0.52389 11.29097,1.15696 15.16175,2.92907 7.75501,3.55036 14.66151,11.96408 16.98547,20.69224 4.13892,15.54467 -5.58139,32.59695 -21.18155,37.15869 -5.25941,1.53793 -13.46741,1.43741 -18.67494,-0.22871 z m 184.41841,-5.55391 c 3.64514,-1.52304 5.66774,-4.50847 5.66774,-8.36581 0,-2.66649 -0.45674,-3.74943 -2.54045,-6.02355 l -2.54046,-2.77257 -37.72715,-0.19515 c -34.79168,-0.17996 -37.92929,-0.0933 -40.32506,1.11339 -3.34088,1.68277 -5.53478,5.94935 -4.87303,9.4768 0.54003,2.87863 4.06308,6.78785 6.54941,7.26732 0.91509,0.17647 17.79083,0.36634 37.50167,0.42193 28.95288,0.0817 36.30846,-0.0955 38.28733,-0.92236 z m 0,-31.17492 c 3.64514,-1.52304 5.66774,-4.50847 5.66774,-8.3658 0,-2.6665 -0.45674,-3.74944 -2.54045,-6.02356 l -2.54046,-2.77257 -37.72715,-0.19514 c -34.79168,-0.17997 -37.92929,-0.0933 -40.32506,1.11339 -3.34088,1.68276 -5.53478,5.94934 -4.87303,9.47679 0.54003,2.87863 4.06308,6.78785 6.54941,7.26732 0.91509,0.17647 17.79083,0.36634 37.50167,0.42193 28.95288,0.0817 36.30846,-0.0955 38.28733,-0.92236 z"
       style="fill:#ffffff;stroke-width:0.74225998" />
  </g>
</svg>
