<?xml version="1.0" encoding="UTF-8" standalone="no"?>
<!-- Created with Inkscape (http://www.inkscape.org/) -->

<svg
   xmlns:dc="http://purl.org/dc/elements/1.1/"
   xmlns:cc="http://creativecommons.org/ns#"
   xmlns:rdf="http://www.w3.org/1999/02/22-rdf-syntax-ns#"
   xmlns:svg="http://www.w3.org/2000/svg"
   xmlns="http://www.w3.org/2000/svg"
   xmlns:sodipodi="http://sodipodi.sourceforge.net/DTD/sodipodi-0.dtd"
   xmlns:inkscape="http://www.inkscape.org/namespaces/inkscape"
   width="512"
   height="512"
   id="svg2"
   version="1.1"
   inkscape:version="0.92.2 5c3e80d, 2017-08-06"
   sodipodi:docname="0_onenoteonline.svg">
  <defs
     id="defs4" />
  <sodipodi:namedview
     id="base"
     pagecolor="#ffffff"
     bordercolor="#666666"
     borderopacity="1.0"
     inkscape:pageopacity="0.0"
     inkscape:pageshadow="2"
     inkscape:zoom="0.4289781"
     inkscape:cx="343.28571"
     inkscape:cy="412.77028"
     inkscape:document-units="px"
     inkscape:current-layer="layer1"
     showgrid="false"
     inkscape:window-width="1366"
     inkscape:window-height="717"
     inkscape:window-x="0"
     inkscape:window-y="24"
     inkscape:window-maximized="1"
     units="in" />
  <metadata
     id="metadata7">
    <rdf:RDF>
      <cc:Work
         rdf:about="">
        <dc:format>image/svg+xml</dc:format>
        <dc:type
           rdf:resource="http://purl.org/dc/dcmitype/StillImage" />
        <dc:title />
      </cc:Work>
    </rdf:RDF>
  </metadata>
  <g
     inkscape:label="Layer 1"
     inkscape:groupmode="layer"
     id="layer1"
     transform="translate(0,-540.36218)">
    <g
       id="g845">
      <path
         id="path943"
         d="m 432.91326,596.83616 c 102.19291,88.57459 105.82678,249.69971 8.1168,359.89879 C 343.32009,1066.934 181.27965,1084.4628 79.086741,995.8882 -23.106205,907.31362 -26.740032,746.1885 70.969941,635.98942 168.67991,525.79034 330.72036,508.26157 432.91326,596.83616 Z"
         inkscape:connector-curvature="0"
         style="fill:#a56de2;fill-opacity:1;stroke-width:11.10955811" />
      <path
         id="path947"
         d="m 511.6355,765.26571 c -1.55139,61.31164 -25.16123,124.1546 -70.96638,175.81447 C 342.95915,1051.2793 180.9187,1068.808 78.725758,980.23348 30.827125,938.71783 4.4968187,881.28503 0.19382679,820.591 0.79907979,886.94767 27.117405,950.84437 79.07869,995.8813 c 102.19291,88.5745 264.24106,71.0371 361.94332,-39.15334 49.70495,-56.05811 73.00502,-125.29097 70.61349,-191.46225 z"
         inkscape:connector-curvature="0"
         style="opacity:1;fill:#000000;fill-opacity:0.49019608;stroke-width:11.10955811" />
      <g
         id="flowRoot890"
         style="font-style:normal;font-weight:normal;font-size:40px;line-height:1.25;font-family:sans-serif;letter-spacing:0px;word-spacing:0px;fill:#000000;fill-opacity:0.49019608;stroke:none"
         transform="matrix(9.8002454,0,0,9.8002454,-1254.2763,-490.20009)"
         aria-label="N">
        <path
           id="path833"
           style="font-style:normal;font-variant:normal;font-weight:normal;font-stretch:normal;font-family:'Comic Sans MS';-inkscape-font-specification:'Comic Sans MS';fill:#000000;fill-opacity:0.49019608"
           d="m 169.96484,143.3584 q 0,0.9375 -0.3125,3.125 -0.3125,1.97266 -2.08984,1.97266 -1.07422,0 -2.55859,-1.40625 -7.94922,-7.51953 -18.24219,-21.69922 l -0.0977,4.4336 -0.0586,4.45312 q 0,1.62109 0.0586,4.86328 0.0781,3.24219 0.0781,4.88281 0,5.25391 -2.03125,5.25391 -1.07422,0 -1.69922,-0.68359 -0.56641,-0.60547 -0.56641,-1.44532 0,-0.82031 0.11719,-2.48046 0.13672,-1.66016 0.13672,-2.48047 0,-1.21094 0.0781,-3.61328 0.0781,-2.42188 0.0781,-3.63282 0,-1.28906 -0.0586,-3.88672 -0.0586,-2.61718 -0.0586,-3.90625 0,-1.23046 -0.23437,-3.65234 -0.23438,-2.44141 -0.23438,-3.67187 0,-0.89844 0.76172,-1.64063 0.78125,-0.74219 1.75781,-0.74219 1.03516,0 2.5586,2.26563 4.86328,7.28515 8.75,12.10937 4.6289,5.72266 10.15625,10.9375 0.0586,-0.83984 0,-2.48047 l -0.0586,-2.46093 q 0,-8.57422 -0.66406,-13.65235 -0.0781,-0.50781 -0.52734,-2.05078 -0.39063,-1.32812 -0.39063,-2.07031 0,-2.26563 2.07031,-2.26563 3.39844,0 3.39844,12.67579 0,2.16796 -0.0586,6.48437 -0.0586,4.29688 -0.0586,6.46484 z" />
      </g>
      <g
         id="flowRoot876"
         style="font-style:normal;font-weight:normal;font-size:40px;line-height:1.25;font-family:sans-serif;letter-spacing:0px;word-spacing:0px;fill:#ffffff;fill-opacity:1;stroke:none"
         transform="matrix(9.8002454,0,0,9.8002454,-1274.2763,-510.20009)"
         aria-label="N">
        <path
           id="path836"
           style="font-style:normal;font-variant:normal;font-weight:normal;font-stretch:normal;font-family:'Comic Sans MS';-inkscape-font-specification:'Comic Sans MS';fill:#ffffff"
           d="m 169.96484,143.3584 q 0,0.9375 -0.3125,3.125 -0.3125,1.97266 -2.08984,1.97266 -1.07422,0 -2.55859,-1.40625 -7.94922,-7.51953 -18.24219,-21.69922 l -0.0977,4.4336 -0.0586,4.45312 q 0,1.62109 0.0586,4.86328 0.0781,3.24219 0.0781,4.88281 0,5.25391 -2.03125,5.25391 -1.07422,0 -1.69922,-0.68359 -0.56641,-0.60547 -0.56641,-1.44532 0,-0.82031 0.11719,-2.48046 0.13672,-1.66016 0.13672,-2.48047 0,-1.21094 0.0781,-3.61328 0.0781,-2.42188 0.0781,-3.63282 0,-1.28906 -0.0586,-3.88672 -0.0586,-2.61718 -0.0586,-3.90625 0,-1.23046 -0.23437,-3.65234 -0.23438,-2.44141 -0.23438,-3.67187 0,-0.89844 0.76172,-1.64063 0.78125,-0.74219 1.75781,-0.74219 1.03516,0 2.5586,2.26563 4.86328,7.28515 8.75,12.10937 4.6289,5.72266 10.15625,10.9375 0.0586,-0.83984 0,-2.48047 l -0.0586,-2.46093 q 0,-8.57422 -0.66406,-13.65235 -0.0781,-0.50781 -0.52734,-2.05078 -0.39063,-1.32812 -0.39063,-2.07031 0,-2.26563 2.07031,-2.26563 3.39844,0 3.39844,12.67579 0,2.16796 -0.0586,6.48437 -0.0586,4.29688 -0.0586,6.46484 z" />
      </g>
    </g>
  </g>
</svg>
