<?xml version="1.0" encoding="UTF-8" standalone="no"?>
<!-- Created with Inkscape (http://www.inkscape.org/) -->

<svg
   xmlns:dc="http://purl.org/dc/elements/1.1/"
   xmlns:cc="http://creativecommons.org/ns#"
   xmlns:rdf="http://www.w3.org/1999/02/22-rdf-syntax-ns#"
   xmlns:svg="http://www.w3.org/2000/svg"
   xmlns="http://www.w3.org/2000/svg"
   xmlns:sodipodi="http://sodipodi.sourceforge.net/DTD/sodipodi-0.dtd"
   xmlns:inkscape="http://www.inkscape.org/namespaces/inkscape"
   width="512"
   height="512"
   id="svg2"
   version="1.1"
   inkscape:version="0.92.2 5c3e80d, 2017-08-06"
   sodipodi:docname="0ad.svg">
  <defs
     id="defs4" />
  <sodipodi:namedview
     id="base"
     pagecolor="#ffffff"
     bordercolor="#666666"
     borderopacity="1.0"
     inkscape:pageopacity="0.0"
     inkscape:pageshadow="2"
     inkscape:zoom="0.60666665"
     inkscape:cx="246.12199"
     inkscape:cy="209.35394"
     inkscape:document-units="px"
     inkscape:current-layer="layer1"
     showgrid="false"
     inkscape:window-width="1366"
     inkscape:window-height="717"
     inkscape:window-x="0"
     inkscape:window-y="24"
     inkscape:window-maximized="1"
     inkscape:snap-global="false" />
  <metadata
     id="metadata7">
    <rdf:RDF>
      <cc:Work
         rdf:about="">
        <dc:format>image/svg+xml</dc:format>
        <dc:type
           rdf:resource="http://purl.org/dc/dcmitype/StillImage" />
        <dc:title></dc:title>
      </cc:Work>
    </rdf:RDF>
  </metadata>
  <g
     inkscape:label="Layer 1"
     inkscape:groupmode="layer"
     id="layer1"
     transform="translate(0,-540.36218)">
    <g
       id="g846">
      <path
         id="path1165"
         d="m 432.91325,596.83611 c 102.19291,88.57459 105.82677,249.69975 8.1168,359.89883 C 343.32005,1066.934 181.27961,1084.4628 79.08674,995.8882 -23.106205,907.31361 -26.740032,746.18846 70.96994,635.98937 168.67987,525.79029 330.72032,508.26152 432.91325,596.83611 Z"
         inkscape:connector-curvature="0"
         style="fill:#8a715e;fill-opacity:1;stroke-width:11.10955906" />
      <path
         id="path1167"
         d="M 511.63548,765.2657 C 510.0841,826.57731 486.47426,889.42027 440.66911,941.08014 342.95911,1051.2793 180.91867,1068.808 78.725757,980.23343 30.827125,938.71782 4.4968191,881.28499 0.19382686,820.59099 0.79908041,886.94763 27.117405,950.84436 79.07869,995.88121 181.27156,1084.4558 343.31971,1066.9183 441.022,956.72795 490.72695,900.6698 514.02702,831.43695 511.63548,765.2657 Z"
         inkscape:connector-curvature="0"
         style="opacity:1;fill:#000000;fill-opacity:0.49019608;stroke-width:11.10955906" />
      <path
         style="fill:#000000;fill-opacity:0.49019608;stroke-width:3.56222725"
         d="M 245.60117,969.48307 C 166.42561,953.93392 108.8131,871.90191 121.84298,793.26899 135.8791,708.56385 216.8962,648.60276 298.94103,662.19802 c 84.40828,13.98691 144.66264,95.07475 131.16689,176.51905 -14.63186,88.30039 -98.40749,147.6751 -184.50675,130.766 z m 22.72931,-82.42969 -0.92961,-62.24424 -62.55724,-0.93079 -62.55723,-0.93084 2.29452,14.5734 c 3.61132,22.93671 20.28501,55.46495 36.99757,72.17751 16.35826,16.35825 41.93802,30.98269 62.78662,35.89628 26.91176,6.34269 25.00397,11.00287 23.96537,-58.54132 z m 64.55716,48.58331 c 37.46903,-17.18187 67.97992,-57.42582 74.38637,-98.11578 l 2.29455,-14.5734 -62.55724,0.93084 -62.55723,0.93079 -0.93081,62.55723 -0.93083,62.55716 14.57341,-2.29453 c 8.01535,-1.26193 24.09015,-6.6585 35.72178,-11.99231 z m -64.55597,-190.438 0.93084,-62.55723 -14.57341,2.29452 c -23.148,3.64457 -55.51886,20.33892 -72.64407,37.4641 -17.12518,17.12521 -33.81953,49.49608 -37.46411,72.64407 l -2.29452,14.57341 62.55723,-0.93083 62.55724,-0.9308 z m 138.92913,49.76732 c -3.63147,-23.07407 -20.34645,-55.46148 -37.45087,-72.56593 -17.10443,-17.10445 -49.49184,-33.8194 -72.56594,-37.45088 l -14.49522,-2.28135 v 61.12297 c 0,33.61759 1.02318,62.14611 2.27377,63.39665 1.25054,1.25059 29.77907,2.27377 63.39666,2.27377 h 61.12296 z"
         id="path840"
         inkscape:connector-curvature="0" />
      <path
         inkscape:connector-curvature="0"
         id="path49-3"
         d="M 225.60117,949.48307 C 146.42561,933.93392 88.813094,851.90191 101.84298,773.26899 115.8791,688.56385 196.8962,628.60276 278.94103,642.19802 c 84.40828,13.98691 144.66264,95.07475 131.16689,176.51905 -14.63186,88.30039 -98.40749,147.6751 -184.50675,130.766 z m 22.72931,-82.42969 -0.92961,-62.24424 -62.55724,-0.93079 -62.55723,-0.93084 2.29452,14.5734 c 3.61132,22.93671 20.28501,55.46495 36.99757,72.17751 16.35826,16.35825 41.93802,30.98269 62.78662,35.89628 26.91176,6.34269 25.00397,11.00287 23.96537,-58.54132 z m 64.55716,48.58331 c 37.46903,-17.18187 67.97992,-57.42582 74.38637,-98.11578 l 2.29455,-14.5734 -62.55724,0.93084 -62.55723,0.93079 -0.93081,62.55723 -0.93083,62.55716 14.57341,-2.29453 c 8.01535,-1.26193 24.09015,-6.6585 35.72178,-11.99231 z m -64.55597,-190.438 0.93084,-62.55723 -14.57341,2.29452 c -23.148,3.64457 -55.51886,20.33892 -72.64407,37.4641 -17.12518,17.12521 -33.81953,49.49608 -37.46411,72.64407 l -2.29452,14.57341 62.55723,-0.93083 62.55724,-0.9308 z m 138.92913,49.76732 c -3.63147,-23.07407 -20.34645,-55.46148 -37.45087,-72.56593 -17.10443,-17.10445 -49.49184,-33.8194 -72.56594,-37.45088 l -14.49522,-2.28135 v 61.12297 c 0,33.61759 1.02318,62.14611 2.27377,63.39665 1.25054,1.25059 29.77907,2.27377 63.39666,2.27377 h 61.12296 z"
         style="fill:#ffffff;fill-opacity:1;stroke-width:3.56222725" />
    </g>
  </g>
</svg>
