<?xml version="1.0" encoding="UTF-8" standalone="no"?>
<!-- Created with Inkscape (http://www.inkscape.org/) -->

<svg
   xmlns:dc="http://purl.org/dc/elements/1.1/"
   xmlns:cc="http://creativecommons.org/ns#"
   xmlns:rdf="http://www.w3.org/1999/02/22-rdf-syntax-ns#"
   xmlns:svg="http://www.w3.org/2000/svg"
   xmlns="http://www.w3.org/2000/svg"
   xmlns:sodipodi="http://sodipodi.sourceforge.net/DTD/sodipodi-0.dtd"
   xmlns:inkscape="http://www.inkscape.org/namespaces/inkscape"
   id="svg3047"
   version="1.1"
   inkscape:version="0.92.2 5c3e80d, 2017-08-06"
   width="512"
   height="512"
   sodipodi:docname="abiword_48.svg"
   viewBox="0 0 512 512">
  <metadata
     id="metadata3053">
    <rdf:RDF>
      <cc:Work
         rdf:about="">
        <dc:format>image/svg+xml</dc:format>
        <dc:type
           rdf:resource="http://purl.org/dc/dcmitype/StillImage" />
        <dc:title></dc:title>
      </cc:Work>
    </rdf:RDF>
  </metadata>
  <defs
     id="defs3051" />
  <sodipodi:namedview
     pagecolor="#ffffff"
     bordercolor="#666666"
     borderopacity="1"
     objecttolerance="10"
     gridtolerance="10"
     guidetolerance="10"
     inkscape:pageopacity="0"
     inkscape:pageshadow="2"
     inkscape:window-width="1366"
     inkscape:window-height="717"
     id="namedview3049"
     showgrid="false"
     inkscape:zoom="0.23046875"
     inkscape:cx="161.19242"
     inkscape:cy="502.24928"
     inkscape:window-x="0"
     inkscape:window-y="24"
     inkscape:window-maximized="1"
     inkscape:current-layer="svg3047"
     inkscape:document-units="px" />
  <g
     transform="translate(3.8414072e-8,5.2705502e-6)"
     id="g836">
    <path
       id="path1165"
       d="M 432.91328,56.474957 C 535.10618,145.04845 538.74005,306.17451 441.03006,416.37298 343.32007,526.57147 181.27962,544.10043 79.086743,455.52693 -23.106206,366.95111 -26.740033,205.82737 70.969944,95.626584 168.67988,-14.571874 330.72033,-32.100857 432.91328,56.474957 Z"
       inkscape:connector-curvature="0"
       style="fill:#3689e6;fill-opacity:1;stroke-width:11.10954762" />
    <path
       id="path1167"
       d="M 511.63552,224.90399 C 510.08416,286.21586 486.47428,349.05908 440.66913,400.71744 342.95911,510.9159 180.91867,528.44487 78.725762,439.8714 30.827125,398.35527 4.4968196,340.92295 0.19382729,280.22781 0.79908089,346.5852 27.117406,410.48266 79.078693,455.51762 181.27157,544.09343 343.31972,526.55517 441.02203,416.36599 c 49.70494,-56.05922 73.00501,-125.29079 70.61349,-191.462 z"
       inkscape:connector-curvature="0"
       style="opacity:1;fill:#000000;fill-opacity:0.49019608;stroke-width:11.10954762" />
    <path
       style="fill:#000000;fill-opacity:0.49019608;stroke-width:0.34076354"
       d="m 139.32718,431.7213 c -4.53054,-0.39743 -8.10387,-1.97073 -11.21514,-4.93796 -8.43196,-8.04156 -10.30604,-26.33709 -5.54972,-54.17875 9.48423,-55.51689 42.94573,-135.69529 78.30786,-187.63654 24.91037,-36.58926 48.6301,-57.88595 70.67207,-63.45268 5.26154,-1.3288 10.26235,-1.81212 13.83324,-1.33691 17.3155,2.30424 35.20042,17.69673 54.7907,47.15504 21.96509,33.02942 45.58246,84.04737 66.6602,143.99862 13.28079,37.77449 23.14734,73.22211 24.97378,89.72327 0.72106,6.51468 -0.48808,10.0484 -3.97316,11.61159 -1.03805,0.46561 -2.18626,0.84152 -2.55159,0.83536 -1.44233,-0.0243 -4.43095,-0.66948 -5.38377,-1.16218 -2.36819,-1.22463 -6.17892,-6.48657 -11.21961,-15.49226 -2.92046,-5.21773 -15.02298,-29.40817 -20.18723,-40.35016 -17.59542,-37.28101 -35.33115,-72.87976 -46.82414,-93.98433 -23.79733,-43.69901 -42.76684,-69.10847 -56.53799,-75.73208 -7.91894,-3.80881 -15.58485,-0.6982 -27.41129,11.12271 -12.52201,12.51615 -25.57745,31.12854 -40.0283,57.06592 -4.94773,8.88058 -15.42657,29.98649 -19.73065,39.74044 -13.29907,30.13855 -21.68145,56.68008 -23.27142,73.68534 -0.55954,5.98455 0.23363,10.4514 1.95272,10.99701 0.88396,0.28055 6.49832,-0.35977 10.26404,-1.17062 7.07553,-1.52355 24.1868,-7.22503 42.60299,-14.19536 7.85555,-2.97324 28.80965,-11.37859 45.66413,-18.31733 35.78828,-14.73349 46.33469,-18.78781 60.11062,-23.10809 4.34099,-1.36138 5.45898,-1.58309 8.69442,-1.72422 3.36026,-0.14657 3.85911,-0.0912 5.25254,0.58339 2.03465,0.98493 3.22306,2.78275 3.42153,5.17596 0.12844,1.54859 -0.006,2.13106 -0.91414,3.97686 -1.48329,3.01295 -4.16782,6.25745 -9.20864,11.12953 -15.16049,14.65301 -42.44798,34.19035 -68.8508,49.29593 -35.97566,20.58242 -70.16118,33.7511 -100.37064,38.66399 -12.16654,1.9786 -25.43848,2.7672 -33.97261,2.01851 z"
       id="path830"
       inkscape:connector-curvature="0" />
    <path
       inkscape:connector-curvature="0"
       id="path2982"
       d="m 119.32718,411.7213 c -4.53054,-0.39743 -8.10387,-1.97073 -11.21514,-4.93796 -8.431966,-8.04156 -10.306046,-26.33709 -5.54972,-54.17875 9.48423,-55.51689 42.94573,-135.69529 78.30786,-187.63654 24.91037,-36.58926 48.6301,-57.88595 70.67207,-63.45268 5.26154,-1.3288 10.26235,-1.812114 13.83324,-1.33691 17.3155,2.30424 35.20042,17.69673 54.7907,47.15504 21.96509,33.02942 45.58246,84.04737 66.6602,143.99862 13.28079,37.77449 23.14734,73.22211 24.97378,89.72327 0.72106,6.51468 -0.48808,10.0484 -3.97316,11.61159 -1.03805,0.46561 -2.18626,0.84152 -2.55159,0.83536 -1.44233,-0.0243 -4.43095,-0.66948 -5.38377,-1.16218 -2.36819,-1.22463 -6.17892,-6.48657 -11.21961,-15.49226 -2.92046,-5.21773 -15.02298,-29.40817 -20.18723,-40.35016 -17.59542,-37.28101 -35.33115,-72.87976 -46.82414,-93.98433 -23.79733,-43.69901 -42.76684,-69.10847 -56.53799,-75.73208 -7.91894,-3.80881 -15.58485,-0.6982 -27.41129,11.12271 -12.52201,12.51615 -25.57745,31.12854 -40.0283,57.06592 -4.94773,8.88058 -15.42657,29.98649 -19.73065,39.74044 -13.29907,30.13855 -21.68145,56.68008 -23.27142,73.68534 -0.55954,5.98455 0.23363,10.4514 1.95272,10.99701 0.88396,0.28055 6.49832,-0.35977 10.26404,-1.17062 7.07553,-1.52355 24.1868,-7.22503 42.60299,-14.19536 7.85555,-2.97324 28.80965,-11.37859 45.66413,-18.31733 35.78828,-14.73349 46.33469,-18.78781 60.11062,-23.10809 4.34099,-1.36138 5.45898,-1.58309 8.69442,-1.72422 3.36026,-0.14657 3.85911,-0.0912 5.25254,0.58339 2.03465,0.98493 3.22306,2.78275 3.42153,5.17596 0.12844,1.54859 -0.006,2.13106 -0.91414,3.97686 -1.48329,3.01295 -4.16782,6.25745 -9.20864,11.12953 -15.16049,14.65301 -42.44798,34.19035 -68.8508,49.29593 -35.97566,20.58242 -70.16118,33.7511 -100.37064,38.66399 -12.16654,1.9786 -25.43848,2.7672 -33.97261,2.01851 z"
       style="fill:#ffffff;fill-opacity:1;stroke-width:0.34076354" />
  </g>
</svg>
