<?xml version="1.0" encoding="UTF-8" standalone="no"?>
<!-- Created with Inkscape (http://www.inkscape.org/) -->

<svg
   xmlns:dc="http://purl.org/dc/elements/1.1/"
   xmlns:cc="http://creativecommons.org/ns#"
   xmlns:rdf="http://www.w3.org/1999/02/22-rdf-syntax-ns#"
   xmlns:svg="http://www.w3.org/2000/svg"
   xmlns="http://www.w3.org/2000/svg"
   xmlns:sodipodi="http://sodipodi.sourceforge.net/DTD/sodipodi-0.dtd"
   xmlns:inkscape="http://www.inkscape.org/namespaces/inkscape"
   version="1.1"
   width="512"
   height="512"
   viewBox="0 0 512 512"
   id="svg2"
   inkscape:version="0.92.2 5c3e80d, 2017-08-06"
   sodipodi:docname="accessories-maps.svg">
  <sodipodi:namedview
     pagecolor="#ffffff"
     bordercolor="#666666"
     borderopacity="1"
     objecttolerance="10"
     gridtolerance="10"
     guidetolerance="10"
     inkscape:pageopacity="0"
     inkscape:pageshadow="2"
     inkscape:window-width="1366"
     inkscape:window-height="717"
     id="namedview42"
     showgrid="false"
     inkscape:zoom="0.65186406"
     inkscape:cx="10.397022"
     inkscape:cy="333.79006"
     inkscape:window-x="0"
     inkscape:window-y="24"
     inkscape:window-maximized="1"
     inkscape:current-layer="svg2"
     units="px" />
  <metadata
     id="metadata82">
    <rdf:RDF>
      <cc:Work
         rdf:about="">
        <dc:format>image/svg+xml</dc:format>
        <dc:type
           rdf:resource="http://purl.org/dc/dcmitype/StillImage" />
        <dc:title></dc:title>
      </cc:Work>
    </rdf:RDF>
  </metadata>
  <defs
     id="defs80" />
  <text
     x="-1081.7688"
     y="794.64862"
     id="text14"
     style="font-size:185.36489868px;line-height:0%;font-family:'Gentium Book Basic';letter-spacing:0;word-spacing:0;stroke-width:0.92682451">
    <tspan
       x="-1081.7688"
       y="794.64862"
       id="tspan16"
       style="stroke-width:0.92682451" />
  </text>
  <text
     x="695.70459"
     y="740.86499"
     id="text30"
     style="font-size:119.77352142px;line-height:0%;font-family:'Gentium Book Basic';letter-spacing:0;word-spacing:0;stroke-width:0.92682451">
    <tspan
       x="695.70459"
       y="740.86499"
       id="tspan32"
       style="stroke-width:0.92682451" />
  </text>
  <text
     x="356.02982"
     y="2649.3582"
     transform="scale(4.0128205,0.24920128)"
     id="text34"
     style="font-size:43.51789093px;font-family:Arial;text-anchor:middle;stroke-width:0.92681974" />
  <text
     x="1234.4398"
     y="666.71899"
     id="text36"
     style="font-size:119.77352142px;line-height:0%;font-family:'Gentium Book Basic';letter-spacing:0;word-spacing:0;stroke-width:0.92682451">
    <tspan
       x="1234.4398"
       y="666.71899"
       id="tspan38"
       style="stroke-width:0.92682451" />
  </text>
  <text
     x="490.27966"
     y="2351.812"
     transform="scale(4.0128205,0.24920128)"
     id="text40"
     style="font-size:43.51789093px;font-family:Arial;text-anchor:middle;stroke-width:0.92681974" />
  <text
     x="241.27324"
     y="498.72281"
     id="text42"
     style="font-size:119.77352142px;line-height:0%;font-family:'Gentium Book Basic';letter-spacing:0;word-spacing:0;stroke-width:0.92682451">
    <tspan
       x="241.27324"
       y="498.72281"
       id="tspan44"
       style="stroke-width:0.92682451" />
  </text>
  <text
     x="242.78171"
     y="1677.6896"
     transform="scale(4.0128205,0.24920128)"
     id="text46"
     style="font-size:43.51789093px;font-family:Arial;text-anchor:middle;stroke-width:0.92681974" />
  <text
     x="1258.9729"
     y="298.09311"
     id="text48"
     style="font-size:119.77352142px;line-height:0%;font-family:'Gentium Book Basic';letter-spacing:0;word-spacing:0;stroke-width:0.92682451">
    <tspan
       x="1258.9729"
       y="298.09311"
       id="tspan50"
       style="stroke-width:0.92682451" />
  </text>
  <text
     x="496.39667"
     y="872.58899"
     transform="scale(4.0128205,0.24920128)"
     id="text52"
     style="font-size:43.51789093px;font-family:Arial;text-anchor:middle;stroke-width:0.92681974" />
  <text
     x="1797.7081"
     y="223.94714"
     id="text54"
     style="font-size:119.77352142px;line-height:0%;font-family:'Gentium Book Basic';letter-spacing:0;word-spacing:0;stroke-width:0.92682451">
    <tspan
       x="1797.7081"
       y="223.94714"
       id="tspan56"
       style="stroke-width:0.92682451" />
  </text>
  <text
     x="630.64648"
     y="575.05212"
     transform="scale(4.0128205,0.24920128)"
     id="text58"
     style="font-size:43.51789093px;font-family:Arial;text-anchor:middle;stroke-width:0.92681974" />
  <text
     x="1437.0623"
     y="-213.88477"
     id="text60"
     style="font-size:119.77352142px;line-height:0%;font-family:'Gentium Book Basic';letter-spacing:0;word-spacing:0;stroke-width:0.92682451">
    <tspan
       x="1437.0623"
       y="-213.88477"
       id="tspan62"
       style="stroke-width:0.92682451" />
  </text>
  <text
     x="540.77277"
     y="-1181.8738"
     transform="scale(4.0128205,0.24920128)"
     id="text64"
     style="font-size:43.51789093px;font-family:Arial;text-anchor:middle;stroke-width:0.92681974" />
  <text
     x="1975.7882"
     y="-288.03998"
     id="text66"
     style="font-size:119.77352142px;line-height:0%;font-family:'Gentium Book Basic';letter-spacing:0;word-spacing:0;stroke-width:0.92682451">
    <tspan
       x="1975.7882"
       y="-288.03998"
       id="tspan68"
       style="stroke-width:0.92682451" />
  </text>
  <text
     x="675.02264"
     y="-1479.4199"
     transform="scale(4.0128205,0.24920128)"
     id="text70"
     style="font-size:43.51789093px;font-family:Arial;text-anchor:middle;stroke-width:0.92681974" />
  <text
     x="277.10425"
     y="1023.1572"
     id="text72"
     style="font-size:193.08534241px;line-height:0%;font-family:'Gentium Book Basic';letter-spacing:0;word-spacing:0;stroke-width:0.92682451">
    <tspan
       x="277.10425"
       y="1023.1572"
       id="tspan74"
       style="stroke-width:0.92682451" />
  </text>
  <g
     id="g853"
     transform="translate(-6.1868113e-8,448)">
    <path
       style="fill:#3689e6;fill-opacity:1;stroke-width:11.10955906"
       inkscape:connector-curvature="0"
       d="m 432.91328,-391.52606 c 102.1929,88.57459 105.82676,249.69974 8.1168,359.89882 C 343.32007,78.57184 181.27963,96.100608 79.086738,7.526016 -23.106204,-81.04856 -26.740031,-242.17372 70.969938,-352.37279 168.67989,-462.57187 330.72033,-480.10064 432.91328,-391.52606 Z"
       id="path27-5" />
    <path
       style="opacity:1;fill:#000000;fill-opacity:0.49019608;stroke-width:11.10955906"
       inkscape:connector-curvature="0"
       d="m 511.63551,-223.09648 c -1.55139,61.31161 -25.16123,124.154568 -70.96637,175.81444 C 342.95912,62.917072 180.91868,80.4458 78.725756,-8.128752 30.827124,-49.64436 4.4968184,-107.07719 0.19382632,-167.77119 0.79907984,-101.41455 27.117404,-37.517816 79.078686,7.519024 181.27157,96.093616 343.31973,78.556152 441.02203,-31.634232 490.72698,-87.692376 514.02704,-156.92523 511.63551,-223.09648 Z"
       id="path51-6" />
    <path
       style="fill:#000000;fill-opacity:0.49019608;stroke-width:0.61989266"
       d="m 268.96845,-16.272018 c -15.06223,-0.799628 -34.70917,-4.254319 -46.89436,-8.245877 -24.19043,-7.924131 -36.5405,-19.193163 -35.71286,-32.586711 0.77926,-12.610881 12.87815,-21.262233 36.34622,-25.989474 3.96427,-0.79853 8.88148,-1.63721 10.92712,-1.86372 2.04566,-0.22651 4.17179,-0.53593 4.72476,-0.68758 0.72097,-0.19773 2.17774,1.52042 5.14911,6.07295 l 4.14369,6.34869 -6.62973,1.41969 c -12.69279,2.718042 -25.85749,7.979021 -31.26722,12.495249 l -2.13228,1.780113 2.06616,1.25651 c 7.22813,4.395683 25.28737,7.740255 47.50143,8.797277 20.92629,0.995733 57.82823,-0.92765 71.74416,-3.739406 6.39876,-1.292894 13.6021,-3.73279 15.66072,-5.304567 1.21394,-0.926856 1.19455,-0.985353 -0.92984,-2.80564 -4.79704,-4.110345 -20.28184,-10.482701 -31.35073,-12.901564 -2.9317,-0.640666 -5.46534,-1.299814 -5.63032,-1.464789 -0.16496,-0.164963 1.315,-2.767587 3.2888,-5.783606 1.97381,-3.016007 3.63326,-5.565967 3.68768,-5.666567 0.0545,-0.10063 3.65641,0.2556 8.00439,0.79154 19.99381,2.46447 32.70378,7.212179 39.89905,14.903944 4.26217,4.556278 5.65726,7.981459 5.65656,13.887778 -10e-4,11.036836 -9.96779,20.827975 -29.11279,28.60061 -20.77408,8.434098 -43.98247,12.02085 -69.13972,10.68515 z m 4.96267,-44.360752 c -1.36182,-2.127897 -19.75636,-30.36932 -40.87674,-62.75872 -21.1204,-32.38938 -39.88479,-61.73027 -41.69867,-65.20198 -1.81388,-3.4717 -4.39474,-9.60864 -5.73526,-13.63763 -3.65698,-10.99122 -4.6195,-17.23063 -4.62045,-29.95154 -0.001,-16.2369 2.38538,-26.92475 9.22154,-41.29659 13.17033,-27.68837 38.11813,-46.95334 68.68745,-53.04123 9.90569,-1.97273 25.71056,-1.97273 35.61625,0 26.44482,5.26648 48.95117,20.59402 63.5177,43.25753 2.96581,4.61437 7.19875,13.59325 9.42913,20.00095 3.68441,10.58508 4.9608,18.55554 4.97702,31.07934 0.0162,12.49996 -1.23963,20.34213 -4.97702,31.07934 -3.19095,9.16738 -6.51531,15.35306 -16.15327,30.05671 -4.72071,7.20191 -23.36756,35.85494 -41.43743,63.67342 -18.06986,27.818462 -32.99378,50.58584 -33.16425,50.594167 -0.17048,0.0079 -1.42417,-1.72587 -2.786,-3.853767 z m 14.56396,-122.96258 c 5.72807,-1.36411 15.79462,-6.44371 20.01465,-10.09942 8.28537,-7.17744 13.98601,-16.23612 16.61351,-26.39996 1.78057,-6.88765 1.77177,-17.35177 -0.0203,-24.17581 -4.73748,-18.0398 -18.3063,-31.6042 -36.29788,-36.28606 -6.85386,-1.78355 -17.32195,-1.78355 -24.17582,0 -18.00651,4.68574 -31.51235,18.18277 -36.30974,36.28606 -1.81865,6.86277 -1.82205,17.2886 -0.008,24.17581 5.22401,19.83229 21.20889,34.33543 41.3009,37.47245 4.68828,0.732 13.66536,0.26939 18.8826,-0.97307 z"
       id="path847"
       inkscape:connector-curvature="0" />
    <path
       inkscape:connector-curvature="0"
       id="path871"
       d="m 248.96845,-36.272018 c -15.06223,-0.799628 -34.70917,-4.254319 -46.89436,-8.245877 -24.19043,-7.924131 -36.5405,-19.193163 -35.71286,-32.586711 0.77926,-12.610881 12.87815,-21.262233 36.34622,-25.989474 3.96427,-0.79853 8.88148,-1.63721 10.92712,-1.86372 2.04566,-0.22651 4.17179,-0.53593 4.72476,-0.68758 0.72097,-0.19773 2.17774,1.52042 5.14911,6.07295 l 4.14369,6.34869 -6.62973,1.41969 c -12.69279,2.718042 -25.85749,7.979021 -31.26722,12.495249 l -2.13228,1.780113 2.06616,1.25651 c 7.22813,4.395683 25.28737,7.740255 47.50143,8.797277 20.92629,0.995733 57.82823,-0.92765 71.74416,-3.739406 6.39876,-1.292894 13.6021,-3.73279 15.66072,-5.304567 1.21394,-0.926856 1.19455,-0.985353 -0.92984,-2.80564 -4.79704,-4.110345 -20.28184,-10.482701 -31.35073,-12.901564 -2.9317,-0.640666 -5.46534,-1.299814 -5.63032,-1.464789 -0.16496,-0.164963 1.315,-2.767587 3.2888,-5.783606 1.97381,-3.016007 3.63326,-5.565967 3.68768,-5.666567 0.0545,-0.10063 3.65641,0.2556 8.00439,0.79154 19.99381,2.46447 32.70378,7.212179 39.89905,14.903944 4.26217,4.556278 5.65726,7.981459 5.65656,13.887778 -10e-4,11.036836 -9.96779,20.827975 -29.11279,28.60061 -20.77408,8.434098 -43.98247,12.02085 -69.13972,10.68515 z m 4.96267,-44.360752 c -1.36182,-2.127897 -19.75636,-30.36932 -40.87674,-62.75872 -21.1204,-32.38938 -39.88479,-61.73027 -41.69867,-65.20198 -1.81388,-3.4717 -4.39474,-9.60864 -5.73526,-13.63763 -3.65698,-10.99122 -4.6195,-17.23063 -4.62045,-29.95154 -0.001,-16.2369 2.38538,-26.92475 9.22154,-41.29659 13.17033,-27.68837 38.11813,-46.95334 68.68745,-53.04123 9.90569,-1.97273 25.71056,-1.97273 35.61625,0 26.44482,5.26648 48.95117,20.59402 63.5177,43.25753 2.96581,4.61437 7.19875,13.59325 9.42913,20.00095 3.68441,10.58508 4.9608,18.55554 4.97702,31.07934 0.0162,12.49996 -1.23963,20.34213 -4.97702,31.07934 -3.19095,9.16738 -6.51531,15.35306 -16.15327,30.05671 -4.72071,7.20191 -23.36756,35.85494 -41.43743,63.67342 -18.06986,27.818462 -32.99378,50.58584 -33.16425,50.594167 -0.17048,0.0079 -1.42417,-1.72587 -2.786,-3.853767 z m 14.56396,-122.96258 c 5.72807,-1.36411 15.79462,-6.44371 20.01465,-10.09942 8.28537,-7.17744 13.98601,-16.23612 16.61351,-26.39996 1.78057,-6.88765 1.77177,-17.35177 -0.0203,-24.17581 -4.73748,-18.0398 -18.3063,-31.6042 -36.29788,-36.28606 -6.85386,-1.78355 -17.32195,-1.78355 -24.17582,0 -18.00651,4.68574 -31.51235,18.18277 -36.30974,36.28606 -1.81865,6.86277 -1.82205,17.2886 -0.008,24.17581 5.22401,19.83229 21.20889,34.33543 41.3009,37.47245 4.68828,0.732 13.66536,0.26939 18.8826,-0.97307 z"
       style="fill:#ffffff;stroke-width:0.61989266" />
  </g>
</svg>
