<?xml version="1.0" encoding="UTF-8" standalone="no"?>
<!-- Created with Inkscape (http://www.inkscape.org/) -->

<svg
   xmlns:dc="http://purl.org/dc/elements/1.1/"
   xmlns:cc="http://creativecommons.org/ns#"
   xmlns:rdf="http://www.w3.org/1999/02/22-rdf-syntax-ns#"
   xmlns:svg="http://www.w3.org/2000/svg"
   xmlns="http://www.w3.org/2000/svg"
   xmlns:sodipodi="http://sodipodi.sourceforge.net/DTD/sodipodi-0.dtd"
   xmlns:inkscape="http://www.inkscape.org/namespaces/inkscape"
   id="svg2"
   version="1.1"
   inkscape:version="0.92.2 2405546, 2018-03-11"
   width="512"
   height="512"
   viewBox="0 0 511.99999 511.99999"
   sodipodi:docname="accessories-thesaurus.svg">
  <metadata
     id="metadata8">
    <rdf:RDF>
      <cc:Work
         rdf:about="">
        <dc:format>image/svg+xml</dc:format>
        <dc:type
           rdf:resource="http://purl.org/dc/dcmitype/StillImage" />
        <dc:title />
      </cc:Work>
    </rdf:RDF>
  </metadata>
  <defs
     id="defs6" />
  <sodipodi:namedview
     pagecolor="#ffffff"
     bordercolor="#666666"
     borderopacity="1"
     objecttolerance="10"
     gridtolerance="10"
     guidetolerance="10"
     inkscape:pageopacity="0"
     inkscape:pageshadow="2"
     inkscape:window-width="1366"
     inkscape:window-height="717"
     id="namedview4"
     inkscape:document-units="px"
     showgrid="false"
     inkscape:zoom="0.20556641"
     inkscape:cx="-757.76664"
     inkscape:cy="857.32905"
     inkscape:window-x="0"
     inkscape:window-y="24"
     inkscape:window-maximized="1"
     inkscape:current-layer="svg2" />
  <g
     id="g842">
    <path
       style="fill:#3689e6;fill-opacity:1;stroke-width:11.10955811"
       inkscape:connector-curvature="0"
       d="M 432.91327,56.473967 C 535.10618,145.04856 538.74005,306.17367 441.03007,416.37276 343.3201,526.57184 181.27964,544.10061 79.086729,455.52602 -23.106186,366.95143 -26.740042,205.82631 70.969928,95.627227 168.6799,-14.571854 330.72036,-32.100623 432.91327,56.473967 Z"
       id="path27" />
    <path
       style="opacity:1;fill:#000000;fill-opacity:0.49019608;stroke-width:11.10955811"
       inkscape:connector-curvature="0"
       d="M 511.63551,224.90351 C 510.08412,286.21516 486.47428,349.05812 440.66913,400.71799 342.95915,510.91711 180.91869,528.44584 78.725776,439.87129 30.827124,398.35563 4.4968216,340.92284 0.19382768,280.2288 0.79907934,346.58548 27.117411,410.48217 79.078682,455.51906 181.27159,544.09361 343.31975,526.55619 441.02202,416.36576 490.72697,360.30766 514.02704,291.0748 511.63551,224.90351 Z"
       id="path51" />
    <path
       style="fill:#000000;stroke-width:2.0526216;fill-opacity:0.49019608"
       d="m 120,284.78983 v -86.21012 h 10.26311 10.26311 v 77.69896 77.69896 l 34.38141,1.23767 c 35.76774,1.28761 54.61721,4.33284 70.30229,11.35775 l 9.2368,4.13691 -67.22336,0.14492 L 120,371 Z m 183.92905,82.18145 c 16.87288,-8.16831 31.56823,-10.68614 69.05658,-11.83181 l 36.43403,-1.11346 -0.002,-78.23629 -0.002,-78.23632 11.29223,0.70313 11.29221,0.70312 v 84.99384 84.99383 h -64.4897 c -35.46934,0 -66.1817,0.47362 -68.24967,1.05248 -2.068,0.57886 0.0335,-0.78398 4.66992,-3.02852 z m -51.62666,-9.6954 C 232.9958,348.14305 214.9535,344.51246 181.0655,342.94113 l -28.22355,-1.30869 -0.002,-80.25001 -0.002,-80.25 33.3574,1.36442 c 36.70702,1.50141 49.87268,3.53868 65.04301,10.06476 17.78749,7.65199 16.66809,1.27232 16.06197,91.54036 l -0.53727,80.01413 z m 29.85473,-73.16469 c 0,-74.37459 0.28523,-81.04007 3.59208,-83.9395 12.31641,-10.79903 35.50804,-16.07179 78.00193,-17.73424 l 33.3574,-1.30502 -0.002,80.24587 -0.002,80.24585 -29.24985,1.28043 c -33.02968,1.44586 -53.79725,5.89367 -73.16269,15.6693 l -12.53476,6.32729 z"
       id="path836"
       inkscape:connector-curvature="0" />
    <path
       inkscape:connector-curvature="0"
       id="path834"
       d="m 100,264.78983 v -86.21012 h 10.26311 10.26311 v 77.69896 77.69896 l 34.38141,1.23767 c 35.76774,1.28761 54.61721,4.33284 70.30229,11.35775 l 9.2368,4.13691 -67.22336,0.14492 L 100,351 Z m 183.92905,82.18145 c 16.87288,-8.16831 31.56823,-10.68614 69.05658,-11.83181 l 36.43403,-1.11346 -0.002,-78.23629 -0.002,-78.23632 11.29223,0.70313 11.29221,0.70312 v 84.99384 84.99383 h -64.4897 c -35.46934,0 -66.1817,0.47362 -68.24967,1.05248 -2.068,0.57886 0.0335,-0.78398 4.66992,-3.02852 z m -51.62666,-9.6954 C 212.9958,328.14305 194.9535,324.51246 161.0655,322.94113 l -28.22355,-1.30869 -0.002,-80.25001 -0.002,-80.25 33.3574,1.36442 c 36.70702,1.50141 49.87268,3.53868 65.04301,10.06476 17.78749,7.65199 16.66809,1.27232 16.06197,91.54036 l -0.53727,80.01413 z m 29.85473,-73.16469 c 0,-74.37459 0.28523,-81.04007 3.59208,-83.9395 12.31641,-10.79903 35.50804,-16.07179 78.00193,-17.73424 l 33.3574,-1.30502 -0.002,80.24587 -0.002,80.24585 -29.24985,1.28043 c -33.02968,1.44586 -53.79725,5.89367 -73.16269,15.6693 l -12.53476,6.32729 z"
       style="fill:#ffffff;stroke-width:2.0526216" />
  </g>
</svg>
