<?xml version="1.0" encoding="UTF-8" standalone="no"?>
<svg
   xmlns:dc="http://purl.org/dc/elements/1.1/"
   xmlns:cc="http://creativecommons.org/ns#"
   xmlns:rdf="http://www.w3.org/1999/02/22-rdf-syntax-ns#"
   xmlns:svg="http://www.w3.org/2000/svg"
   xmlns="http://www.w3.org/2000/svg"
   xmlns:sodipodi="http://sodipodi.sourceforge.net/DTD/sodipodi-0.dtd"
   xmlns:inkscape="http://www.inkscape.org/namespaces/inkscape"
   version="1.1"
   id="Layer_1"
   x="0px"
   y="0px"
   width="512"
   height="512"
   viewBox="0 0 512 512"
   enable-background="new 0 0 100 100"
   xml:space="preserve"
   inkscape:version="0.92.2 5c3e80d, 2017-08-06"
   sodipodi:docname="accessories-painting.svg"><metadata
     id="metadata8"><rdf:RDF><cc:Work
         rdf:about=""><dc:format>image/svg+xml</dc:format><dc:type
           rdf:resource="http://purl.org/dc/dcmitype/StillImage" /><dc:title></dc:title></cc:Work></rdf:RDF></metadata><defs
     id="defs6" /><sodipodi:namedview
     pagecolor="#ffffff"
     bordercolor="#666666"
     borderopacity="1"
     objecttolerance="10"
     gridtolerance="10"
     guidetolerance="10"
     inkscape:pageopacity="0"
     inkscape:pageshadow="2"
     inkscape:window-width="1366"
     inkscape:window-height="717"
     id="namedview4"
     showgrid="false"
     inkscape:zoom="0.5"
     inkscape:cx="-51.340843"
     inkscape:cy="37.196601"
     inkscape:window-x="0"
     inkscape:window-y="24"
     inkscape:window-maximized="1"
     inkscape:current-layer="Layer_1" /><g
     id="g3344"
     transform="translate(-148.83006,354.69516)" /><g
     id="g3346"
     transform="translate(-148.83006,354.69516)" /><g
     id="g3348"
     transform="translate(-148.83006,354.69516)" /><g
     id="g3350"
     transform="translate(-148.83006,354.69516)" /><g
     id="g3352"
     transform="translate(-148.83006,354.69516)" /><g
     id="g3354"
     transform="translate(-148.83006,354.69516)" /><g
     id="g3356"
     transform="translate(-148.83006,354.69516)" /><g
     id="g3358"
     transform="translate(-148.83006,354.69516)" /><g
     id="g3360"
     transform="translate(-148.83006,354.69516)" /><g
     id="g3362"
     transform="translate(-148.83006,354.69516)" /><g
     id="g3364"
     transform="translate(-148.83006,354.69516)" /><g
     id="g3366"
     transform="translate(-148.83006,354.69516)" /><g
     id="g3368"
     transform="translate(-148.83006,354.69516)" /><g
     id="g3370"
     transform="translate(-148.83006,354.69516)" /><g
     id="g3372"
     transform="translate(-148.83006,354.69516)" /><g
     id="g842"
     transform="scale(0.99999895,1)"><path
       style="fill:#3689e6;fill-opacity:1;stroke-width:11.10955811"
       inkscape:connector-curvature="0"
       d="M 432.91381,56.473967 C 535.10672,145.04856 538.74058,306.17367 441.03061,416.37276 343.32045,526.57184 181.27967,544.10061 79.086756,455.52602 -23.10619,366.95143 -26.740055,205.82631 70.969956,95.627227 168.67993,-14.571854 330.72064,-32.100623 432.91381,56.473967 Z"
       id="path911" /><path
       style="opacity:1;fill:#000000;fill-opacity:0.49019608;stroke-width:11.10955811"
       inkscape:connector-curvature="0"
       d="m 511.63554,224.90352 c -1.5514,61.31166 -25.16123,124.1546 -70.96638,175.81449 C 342.95919,510.9171 180.91872,528.44585 78.725812,439.87127 30.827158,398.35564 4.4968559,340.92283 0.193862,280.22879 0.79911356,346.58547 27.117445,410.48219 79.078716,455.51904 181.27163,544.09362 343.31978,526.5562 441.02206,416.36578 490.727,360.30764 514.02708,291.07481 511.63554,224.90352 Z"
       id="path913" /><path
       style="fill:#000000;fill-opacity:0.49019608;stroke-width:0.61078233"
       d="m 234.88921,428.92866 c -5.46458,-10.78383 -9.62921,-41.57445 -11.90852,-88.04387 -0.77241,-15.74751 -1.95485,-79.81076 -1.48707,-80.56764 0.41426,-0.67026 30.61326,-0.76222 31.02595,-0.0945 0.44662,0.72264 -0.69921,65.04867 -1.42419,79.95317 -1.88239,38.69904 -4.72162,64.31974 -8.87088,80.04916 C 240.68693,426.05375 238.06669,432 237.03579,432 c -0.32461,0 -1.29057,-1.38211 -2.14658,-3.07137 z m 47.95526,-34.25979 c -6.52748,-0.74914 -15.73986,-2.68033 -23.38691,-4.90259 l -6.59039,-1.91519 0.32854,-2.50952 c 0.18069,-1.38023 0.61295,-5.7938 0.96057,-9.80793 0.34763,-4.01413 0.69179,-7.33215 0.76482,-7.37339 9.32509,-5.26568 12.62778,-9.95092 13.12255,-18.61584 0.35536,-6.22318 -1.28681,-10.6146 -5.58711,-14.94084 -1.71996,-1.73034 -3.70781,-3.54285 -4.41745,-4.02782 -1.25439,-0.85725 -1.28206,-1.19887 -0.99526,-12.28899 l 0.295,-11.40724 4.65995,-1.01613 c 9.33686,-2.03594 17.10277,-7.08341 20.31733,-13.20531 1.93869,-3.69207 1.94451,-9.56718 0.0131,-13.24431 -3.07827,-5.8607 -10.18183,-10.68362 -18.72442,-12.71283 -2.35151,-0.55858 -4.61904,-1.10348 -5.03896,-1.21088 -0.54481,-0.13934 -0.7655,-1.90634 -0.77052,-6.16957 -0.004,-3.80862 -0.66829,-9.84893 -1.83116,-16.66298 l -1.82411,-10.6887 3.00619,-6.21551 c 6.92647,-14.32098 14.34316,-21.66547 25.70407,-25.45382 15.82363,-5.27649 37.3493,-2.86857 56.69006,6.3415 35.11409,16.72133 59.62647,52.9191 63.62293,93.95286 2.01025,20.64029 -1.63709,36.62584 -11.86065,51.98283 -15.43927,23.19159 -42.20664,37.84959 -76.4284,41.85273 -8.42947,0.98604 -24.47919,1.10604 -32.02981,0.23947 z m 45.94135,-21.76794 c 1.58466,-0.70508 4.22887,-2.54254 5.87602,-4.08325 8.70495,-8.14246 8.70495,-21.85312 0,-29.99557 -4.56194,-4.26716 -7.67045,-5.45725 -14.25426,-5.45725 -6.58381,0 -9.69232,1.19009 -14.25425,5.45725 -6.36901,5.95746 -8.31558,15.46346 -4.76059,23.24808 2.59183,5.67551 7.13989,9.82333 12.79963,11.67323 3.62654,1.18534 10.99148,0.76016 14.59345,-0.84249 z m 32.02037,-63.06303 c 4.42284,-2.16743 7.68315,-5.5582 9.90789,-10.30434 2.29383,-4.89351 2.29383,-11.74421 0,-16.63772 -3.15177,-6.72382 -8.44305,-10.78453 -15.82512,-12.14475 -8.52981,-1.57172 -17.63541,3.144 -21.82286,11.30188 -2.12225,4.13453 -2.62255,11.83215 -1.043,16.04773 4.46529,11.91719 17.5379,17.24795 28.78309,11.7372 z m -41.62017,-52.04438 c 15.825,-8.14341 15.33418,-30.06896 -0.84288,-37.65192 -4.8935,-2.29382 -11.74421,-2.29382 -16.63772,0 -6.80871,3.19157 -11.58035,9.5596 -12.46427,16.63429 -0.77839,6.22999 2.77641,15.00734 7.48898,18.49143 4.85182,3.58704 7.87254,4.49625 14.21033,4.27718 4.14553,-0.1433 5.80701,-0.49613 8.24556,-1.75098 z M 216.15467,370.65625 c -21.42191,-12.9176 -40.70352,-30.63569 -52.52506,-48.26587 -17.01518,-25.37579 -20.02922,-52.99699 -7.25674,-66.502 3.74973,-3.96479 7.39363,-6.01917 13.80066,-7.78061 8.60427,-2.36551 27.42165,-1.56532 41.60363,1.76916 l 4.36431,1.02614 0.32918,34.5092 c 0.31872,33.41393 0.97631,53.91471 2.45385,76.50049 0.39008,5.96276 0.70805,10.84067 0.70662,10.83981 -0.001,-6.1e-4 -1.56585,-0.9442 -3.47645,-2.09632 z m -20.93309,-59.30583 c 9.13419,-2.34925 14.90712,-9.43499 15.40985,-18.91415 0.33369,-6.29191 -1.25179,-10.8394 -5.28098,-15.14693 -10.35454,-11.06985 -27.71152,-8.22419 -34.19659,5.6065 -2.12479,4.53153 -2.22362,12.22387 -0.21455,16.69861 2.55049,5.68061 8.52133,10.58812 14.63558,12.02913 3.46752,0.81724 5.64707,0.75552 9.64669,-0.27316 z m 26.58086,-58.15692 c 0.0199,-0.92381 2.28743,-15.00998 5.03895,-31.30259 l 5.00275,-29.62295 h 5.16843 5.16843 l 5.02429,29.92834 c 2.76337,16.46058 5.04135,30.54675 5.06218,31.30259 l 0.0379,1.37426 h -15.26956 -15.26956 l 0.0362,-1.67965 z m 7.21205,-68.10223 c -8.03123,-8.64264 -9.80069,-26.54465 -3.93472,-39.80863 0.84432,-1.90916 3.37167,-6.51934 5.61633,-10.24485 4.12733,-6.85021 6.33969,-11.71223 6.33969,-13.93252 0,-1.92569 0.73385,-1.44343 3.50888,2.30595 6.22662,8.41285 10.67669,19.68721 11.66654,29.55748 1.30001,12.96298 -1.43625,25.6351 -6.95032,32.18819 l -1.61508,1.91942 h -6.39335 -6.39335 z"
       id="path887"
       inkscape:connector-curvature="0" /><path
       inkscape:connector-curvature="0"
       id="path885"
       d="m 214.88921,408.92866 c -5.46458,-10.78383 -9.62921,-41.57445 -11.90852,-88.04387 -0.77241,-15.74751 -1.95485,-79.81076 -1.48707,-80.56764 0.41426,-0.67026 30.61326,-0.76222 31.02595,-0.0945 0.44662,0.72264 -0.69921,65.04867 -1.42419,79.95317 -1.88239,38.69904 -4.72162,64.31974 -8.87088,80.04916 C 220.68693,406.05375 218.06669,412 217.03579,412 c -0.32461,0 -1.29057,-1.38211 -2.14658,-3.07137 z m 47.95526,-34.25979 c -6.52748,-0.74914 -15.73986,-2.68033 -23.38691,-4.90259 l -6.59039,-1.91519 0.32854,-2.50952 c 0.18069,-1.38023 0.61295,-5.7938 0.96057,-9.80793 0.34763,-4.01413 0.69179,-7.33215 0.76482,-7.37339 9.32509,-5.26568 12.62778,-9.95092 13.12255,-18.61584 0.35536,-6.22318 -1.28681,-10.6146 -5.58711,-14.94084 -1.71996,-1.73034 -3.70781,-3.54285 -4.41745,-4.02782 -1.25439,-0.85725 -1.28206,-1.19887 -0.99526,-12.28899 l 0.295,-11.40724 4.65995,-1.01613 c 9.33686,-2.03594 17.10277,-7.08341 20.31733,-13.20531 1.93869,-3.69207 1.94451,-9.56718 0.0131,-13.24431 -3.07827,-5.8607 -10.18183,-10.68362 -18.72442,-12.71283 -2.35151,-0.55858 -4.61904,-1.10348 -5.03896,-1.21088 -0.54481,-0.13934 -0.7655,-1.90634 -0.77052,-6.16957 -0.004,-3.80862 -0.66829,-9.84893 -1.83116,-16.66298 l -1.82411,-10.6887 3.00619,-6.21551 c 6.92647,-14.32098 14.34316,-21.66547 25.70407,-25.45382 15.82363,-5.27649 37.3493,-2.86857 56.69006,6.3415 35.11409,16.72133 59.62647,52.9191 63.62293,93.95286 2.01025,20.64029 -1.63709,36.62584 -11.86065,51.98283 -15.43927,23.19159 -42.20664,37.84959 -76.4284,41.85273 -8.42947,0.98604 -24.47919,1.10604 -32.02981,0.23947 z m 45.94135,-21.76794 c 1.58466,-0.70508 4.22887,-2.54254 5.87602,-4.08325 8.70495,-8.14246 8.70495,-21.85312 0,-29.99557 -4.56194,-4.26716 -7.67045,-5.45725 -14.25426,-5.45725 -6.58381,0 -9.69232,1.19009 -14.25425,5.45725 -6.36901,5.95746 -8.31558,15.46346 -4.76059,23.24808 2.59183,5.67551 7.13989,9.82333 12.79963,11.67323 3.62654,1.18534 10.99148,0.76016 14.59345,-0.84249 z m 32.02037,-63.06303 c 4.42284,-2.16743 7.68315,-5.5582 9.90789,-10.30434 2.29383,-4.89351 2.29383,-11.74421 0,-16.63772 -3.15177,-6.72382 -8.44305,-10.78453 -15.82512,-12.14475 -8.52981,-1.57172 -17.63541,3.144 -21.82286,11.30188 -2.12225,4.13453 -2.62255,11.83215 -1.043,16.04773 4.46529,11.91719 17.5379,17.24795 28.78309,11.7372 z m -41.62017,-52.04438 c 15.825,-8.14341 15.33418,-30.06896 -0.84288,-37.65192 -4.8935,-2.29382 -11.74421,-2.29382 -16.63772,0 -6.80871,3.19157 -11.58035,9.5596 -12.46427,16.63429 -0.77839,6.22999 2.77641,15.00734 7.48898,18.49143 4.85182,3.58704 7.87254,4.49625 14.21033,4.27718 4.14553,-0.1433 5.80701,-0.49613 8.24556,-1.75098 z M 196.15467,350.65625 c -21.42191,-12.9176 -40.70352,-30.63569 -52.52506,-48.26587 -17.01518,-25.37579 -20.02922,-52.99699 -7.25674,-66.502 3.74973,-3.96479 7.39363,-6.01917 13.80066,-7.78061 8.60427,-2.36551 27.42165,-1.56532 41.60363,1.76916 l 4.36431,1.02614 0.32918,34.5092 c 0.31872,33.41393 0.97631,53.91471 2.45385,76.50049 0.39008,5.96276 0.70805,10.84067 0.70662,10.83981 -0.001,-6.1e-4 -1.56585,-0.9442 -3.47645,-2.09632 z m -20.93309,-59.30583 c 9.13419,-2.34925 14.90712,-9.43499 15.40985,-18.91415 0.33369,-6.29191 -1.25179,-10.8394 -5.28098,-15.14693 -10.35454,-11.06985 -27.71152,-8.22419 -34.19659,5.6065 -2.12479,4.53153 -2.22362,12.22387 -0.21455,16.69861 2.55049,5.68061 8.52133,10.58812 14.63558,12.02913 3.46752,0.81724 5.64707,0.75552 9.64669,-0.27316 z m 26.58086,-58.15692 c 0.0199,-0.92381 2.28743,-15.00998 5.03895,-31.30259 l 5.00275,-29.62295 h 5.16843 5.16843 l 5.02429,29.92834 c 2.76337,16.46058 5.04135,30.54675 5.06218,31.30259 l 0.0379,1.37426 h -15.26956 -15.26956 l 0.0362,-1.67965 z m 7.21205,-68.10223 c -8.03123,-8.64264 -9.80069,-26.54465 -3.93472,-39.80863 0.84432,-1.90916 3.37167,-6.51934 5.61633,-10.24485 4.12733,-6.85021 6.33969,-11.71223 6.33969,-13.93252 0,-1.92569 0.73385,-1.44343 3.50888,2.30595 6.22662,8.41285 10.67669,19.68721 11.66654,29.55748 1.30001,12.96298 -1.43625,25.6351 -6.95032,32.18819 l -1.61508,1.91942 h -6.39335 -6.39335 z"
       style="fill:#ffffff;stroke-width:0.61078233" /></g></svg>