<?xml version="1.0" encoding="UTF-8" standalone="no"?>
<!-- Created with Inkscape (http://www.inkscape.org/) -->

<svg
   xmlns:dc="http://purl.org/dc/elements/1.1/"
   xmlns:cc="http://creativecommons.org/ns#"
   xmlns:rdf="http://www.w3.org/1999/02/22-rdf-syntax-ns#"
   xmlns:svg="http://www.w3.org/2000/svg"
   xmlns="http://www.w3.org/2000/svg"
   xmlns:sodipodi="http://sodipodi.sourceforge.net/DTD/sodipodi-0.dtd"
   xmlns:inkscape="http://www.inkscape.org/namespaces/inkscape"
   width="512"
   height="512"
   id="svg2"
   version="1.1"
   inkscape:version="0.92.2 5c3e80d, 2017-08-06"
   sodipodi:docname="adobe-flashplugin.svg"
   inkscape:export-filename="/home/uri/workspace/NitruxforAndroid/res/drawable-xhdpi/flash_settings.png"
   inkscape:export-xdpi="180"
   inkscape:export-ydpi="180"
   viewBox="0 0 512 512">
  <defs
     id="defs4" />
  <sodipodi:namedview
     id="base"
     pagecolor="#ffffff"
     bordercolor="#666666"
     borderopacity="1.0"
     inkscape:pageopacity="0.0"
     inkscape:pageshadow="2"
     inkscape:zoom="0.87003251"
     inkscape:cx="227.26544"
     inkscape:cy="256"
     inkscape:document-units="px"
     inkscape:current-layer="layer1"
     showgrid="false"
     inkscape:window-width="1366"
     inkscape:window-height="717"
     inkscape:window-x="0"
     inkscape:window-y="24"
     inkscape:window-maximized="1" />
  <metadata
     id="metadata7">
    <rdf:RDF>
      <cc:Work
         rdf:about="">
        <dc:format>image/svg+xml</dc:format>
        <dc:type
           rdf:resource="http://purl.org/dc/dcmitype/StillImage" />
        <dc:title />
      </cc:Work>
    </rdf:RDF>
  </metadata>
  <g
     inkscape:label="Capa 1"
     inkscape:groupmode="layer"
     id="layer1"
     transform="translate(0,-540.3622)">
    <g
       id="g841"
       transform="translate(-7.3296789e-8,1.58446e-5)">
      <path
         style="fill:#c6262e;fill-opacity:1;stroke-width:11.10955811"
         inkscape:connector-curvature="0"
         d="m 432.91326,596.83618 c 102.19291,88.57459 105.82678,249.69972 8.1168,359.89879 C 343.32009,1066.934 181.27966,1084.4628 79.086741,995.88822 -23.106205,907.31365 -26.740032,746.18852 70.969941,635.98945 168.67991,525.79036 330.72036,508.2616 432.91326,596.83618 Z"
         id="path961" />
      <path
         style="opacity:1;fill:#000000;fill-opacity:0.49019608;stroke-width:11.10955811"
         inkscape:connector-curvature="0"
         d="m 511.63551,765.26574 c -1.5514,61.31163 -25.16124,124.1546 -70.96639,175.81446 C 342.95916,1051.2793 180.91871,1068.808 78.725758,980.2335 30.827125,938.71785 4.4968179,881.28505 0.19382598,820.59102 0.79907998,886.9477 27.117406,950.8444 79.07869,995.88132 c 102.19292,88.57448 264.24107,71.03708 361.94332,-39.15333 49.70495,-56.05812 73.00502,-125.29098 70.6135,-191.46225 z"
         id="path965" />
      <path
         style="fill:#000000;fill-opacity:0.49019608;stroke:none;stroke-width:17.33297157"
         id="path27"
         inkscape:connector-curvature="0"
         d="m 400.59338,660.46466 v 62.77136 c -62.66387,1.09198 -78.06434,62.20976 -78.06434,62.20976 h 47.26344 v 62.76443 H 296.50764 C 252.43051,984.1943 151,972.08549 151,972.08549 v -62.76962 c 0,0 64.36392,11.94761 97.18209,-107.90642 41.05256,-149.9146 152.41129,-140.94479 152.41129,-140.94479 z" />
      <path
         d="m 380.59338,640.46466 v 62.77136 c -62.66387,1.09198 -78.06434,62.20976 -78.06434,62.20976 h 47.26344 v 62.76443 H 276.50764 C 232.43051,964.1943 131,952.08549 131,952.08549 v -62.76962 c 0,0 64.36392,11.94761 97.18209,-107.90642 41.05256,-149.9146 152.41129,-140.94479 152.41129,-140.94479 z"
         inkscape:connector-curvature="0"
         id="path3727"
         style="fill:#ffffff;fill-opacity:1;stroke:none;stroke-width:17.33297157" />
    </g>
  </g>
</svg>
