<?xml version="1.0" encoding="UTF-8" standalone="no"?>
<!-- Created with Inkscape (http://www.inkscape.org/) -->

<svg
   xmlns:dc="http://purl.org/dc/elements/1.1/"
   xmlns:cc="http://creativecommons.org/ns#"
   xmlns:rdf="http://www.w3.org/1999/02/22-rdf-syntax-ns#"
   xmlns:svg="http://www.w3.org/2000/svg"
   xmlns="http://www.w3.org/2000/svg"
   xmlns:sodipodi="http://sodipodi.sourceforge.net/DTD/sodipodi-0.dtd"
   xmlns:inkscape="http://www.inkscape.org/namespaces/inkscape"
   id="svg2"
   version="1.1"
   inkscape:version="0.92.2 5c3e80d, 2017-08-06"
   width="512"
   height="512"
   sodipodi:docname="aim.svg">
  <metadata
     id="metadata8">
    <rdf:RDF>
      <cc:Work
         rdf:about="">
        <dc:format>image/svg+xml</dc:format>
        <dc:type
           rdf:resource="http://purl.org/dc/dcmitype/StillImage" />
        <dc:title />
      </cc:Work>
    </rdf:RDF>
  </metadata>
  <defs
     id="defs6" />
  <sodipodi:namedview
     pagecolor="#ffffff"
     bordercolor="#666666"
     borderopacity="1"
     objecttolerance="10"
     gridtolerance="10"
     guidetolerance="10"
     inkscape:pageopacity="0"
     inkscape:pageshadow="2"
     inkscape:window-width="1366"
     inkscape:window-height="717"
     id="namedview4"
     showgrid="false"
     inkscape:zoom="0.23046874"
     inkscape:cx="1235.5873"
     inkscape:cy="99.569201"
     inkscape:window-x="0"
     inkscape:window-y="24"
     inkscape:window-maximized="1"
     inkscape:current-layer="svg2" />
  <g
     id="g869">
    <path
       style="fill:#f37329;fill-opacity:1;stroke-width:11.10955811"
       inkscape:connector-curvature="0"
       d="M 432.91327,56.473965 C 535.10618,145.04855 538.74005,306.17367 441.03007,416.37275 343.3201,526.57182 181.27964,544.10062 79.086729,455.52601 -23.106186,366.95142 -26.740042,205.8263 70.969928,95.627225 168.6799,-14.571855 330.72036,-32.100625 432.91327,56.473965 Z"
       id="path27" />
    <path
       style="opacity:1;fill:#000000;fill-opacity:0.49019608;stroke-width:11.10955811"
       inkscape:connector-curvature="0"
       d="M 511.63551,224.90351 C 510.08412,286.21516 486.47428,349.05812 440.66913,400.71798 342.95915,510.91712 180.91869,528.44582 78.725776,439.87128 30.827124,398.35563 4.4968216,340.92283 0.19382772,280.2288 0.79907938,346.58547 27.117411,410.48217 79.078682,455.51906 181.27159,544.09362 343.31975,526.55622 441.02202,416.36576 490.72697,360.30765 514.02704,291.0748 511.63551,224.90351 Z"
       id="path51" />
    <path
       sodipodi:type="arc"
       style="fill:#000000;fill-opacity:0.49019608;stroke:none;stroke-width:4.02100325"
       id="path833"
       sodipodi:cx="357.68982"
       sodipodi:cy="222.34584"
       sodipodi:rx="38.29958"
       sodipodi:ry="38.29958"
       d="m 395.9894,222.34584 a 38.29958,38.29958 0 0 1 -38.25463,38.29955 38.29958,38.29958 0 0 1 -38.34442,-38.20964 38.29958,38.29958 0 0 1 38.16461,-38.38925 38.29958,38.29958 0 0 1 38.43402,38.11953"
       sodipodi:start="0"
       sodipodi:end="6.2784904"
       sodipodi:open="true" />
    <path
       style="fill:#000000;fill-opacity:0.49019608;stroke:none;stroke-width:0.67631179"
       d="m 202.00334,352.25078 0.35208,47.24336 c 46.87684,7.7522 86.3632,-13.19879 114.30166,-42.09197 0,0 20.10781,9.46427 30.61236,20.22601 C 357.77391,388.38992 375.69515,423 375.69515,423 l 35.5322,-13.11954 c 0,0 -16.96784,-41.46328 -27.87916,-56.85149 C 372.43696,337.64076 348.3627,317.4968 348.3627,317.4968 l 3.27989,-7.65307 c 0,0 22.52308,4.79684 36.07883,4.37317 C 401.27717,313.79323 432,306.0172 432,306.0172 l -7.65312,-32.25227 c 0,0 -38.79415,3.13726 -55.21153,-0.54668 -16.41731,-3.68393 -41.54531,-19.13269 -41.54531,-19.13269 0,0 -21.09738,16.73659 -27.33243,28.42574 -6.23505,11.68915 -3.85616,29.06503 -10.93296,39.90534 -24.07533,32.00748 -56.04879,44.25898 -87.32131,29.83414 z"
       id="path835"
       inkscape:connector-curvature="0"
       sodipodi:nodetypes="ccczcczcczcczczcc" />
    <path
       id="path837"
       d="M 310.7832 128.49219 C 308.26681 128.49915 305.62232 128.58175 302.8457 128.74219 C 181.02575 139.15648 65.120034 295.79685 147.99805 376.98242 C 154.52474 385.31508 168.27048 390.25623 176.46289 393.80078 C 195.05652 401.84556 218.51551 401.33497 223.75781 401.10547 C 216.81431 401.21563 209.6752 400.70463 202.35547 399.49414 L 202.00391 352.25 C 204.15932 353.24421 206.31731 354.10072 208.47656 354.84375 C 149.10669 330.97364 174.6855 170.19827 326.72461 181.39648 C 344.77266 178.45019 355.76967 194.67839 356.72461 169.15234 C 357.61987 145.22168 348.52903 128.38772 310.7832 128.49219 z "
       style="fill:#000000;fill-opacity:0.49019608;stroke:none;stroke-width:0.67631179" />
    <g
       style="fill:#ffffff"
       transform="matrix(0.67631177,0,0,0.67631177,90.751909,77.017727)"
       id="g4135">
      <path
         sodipodi:type="arc"
         style="fill:#ffffff;fill-opacity:1;stroke:none"
         id="path2994"
         sodipodi:cx="878.98303"
         sodipodi:cy="263.86441"
         sodipodi:rx="9.4237289"
         sodipodi:ry="9.6271191"
         d="m 888.40676,263.86441 a 9.4237289,9.6271191 0 0 1 -9.41267,9.62711 9.4237289,9.6271191 0 0 1 -9.43476,-9.60451 9.4237289,9.6271191 0 0 1 9.39052,-9.64966 9.4237289,9.6271191 0 0 1 9.45681,9.58186"
         sodipodi:start="0"
         sodipodi:end="6.2784904"
         sodipodi:open="true"
         transform="matrix(6.0093051,0,0,5.8823478,-4916.9529,-1366.8311)" />
      <path
         style="fill:#ffffff;fill-opacity:1;stroke:none"
         d="m 134.9251,377.38963 0.52059,69.85441 c 69.31247,11.46247 127.69731,-19.51583 169.00735,-62.23751 0,0 29.73156,13.99394 45.26368,29.90633 C 365.24871,430.82526 391.74719,482 391.74719,482 l 52.5382,-19.39866 c 0,0 -25.08878,-61.30794 -41.22234,-84.06107 -16.13344,-22.75312 -51.72984,-52.53815 -51.72984,-52.53815 l 4.84968,-11.31588 c 0,0 33.30281,7.09264 53.34645,6.4662 C 429.57298,320.52599 475,309.0283 475,309.0283 l -11.31597,-47.68847 c 0,0 -57.36134,4.63878 -81.63621,-0.80832 -24.27476,-5.4471 -61.42922,-28.28976 -61.42922,-28.28976 0,0 -31.19476,24.74686 -40.41395,42.03053 -9.2192,17.28368 -5.70175,42.97579 -16.16556,59.00436 -35.59798,47.32652 -82.8742,65.44168 -129.11399,44.11299 z"
         id="path2996"
         inkscape:connector-curvature="0"
         sodipodi:nodetypes="ccczcczcczcczczcc" />
      <path
         style="fill:#ffffff;fill-opacity:1;stroke:none"
         d="m 168.77371,449.54176 c 0,0 -40.4841,2.75288 -71.612159,-10.71507 C 85.048185,433.58568 64.723716,426.2778 55.073295,413.95706 -67.470795,293.91543 103.90793,62.306751 284.03189,46.9081 c 65.68856,-3.795465 81.07803,22.00653 79.66605,59.74954 -1.41198,37.74301 -17.67351,13.74951 -44.35951,18.10592 C 82.434589,107.31475 53.176498,372.26053 159.7446,385.10039 Z"
         id="path3766"
         inkscape:connector-curvature="0"
         sodipodi:nodetypes="cscczccc" />
    </g>
  </g>
</svg>
