<?xml version="1.0" encoding="UTF-8" standalone="no"?>
<!-- Created with Inkscape (http://www.inkscape.org/) -->

<svg
   xmlns:dc="http://purl.org/dc/elements/1.1/"
   xmlns:cc="http://creativecommons.org/ns#"
   xmlns:rdf="http://www.w3.org/1999/02/22-rdf-syntax-ns#"
   xmlns:svg="http://www.w3.org/2000/svg"
   xmlns="http://www.w3.org/2000/svg"
   xmlns:sodipodi="http://sodipodi.sourceforge.net/DTD/sodipodi-0.dtd"
   xmlns:inkscape="http://www.inkscape.org/namespaces/inkscape"
   id="svg2"
   version="1.1"
   inkscape:version="0.92.2 5c3e80d, 2017-08-06"
   width="512"
   height="512"
   viewBox="0 0 511.99999 511.99999"
   sodipodi:docname="alc.svg">
  <metadata
     id="metadata8">
    <rdf:RDF>
      <cc:Work
         rdf:about="">
        <dc:format>image/svg+xml</dc:format>
        <dc:type
           rdf:resource="http://purl.org/dc/dcmitype/StillImage" />
        <dc:title />
      </cc:Work>
    </rdf:RDF>
  </metadata>
  <defs
     id="defs6" />
  <sodipodi:namedview
     pagecolor="#ffffff"
     bordercolor="#666666"
     borderopacity="1"
     objecttolerance="10"
     gridtolerance="10"
     guidetolerance="10"
     inkscape:pageopacity="0"
     inkscape:pageshadow="2"
     inkscape:window-width="1366"
     inkscape:window-height="717"
     id="namedview4"
     inkscape:document-units="px"
     showgrid="false"
     inkscape:zoom="0.41113281"
     inkscape:cx="322.03767"
     inkscape:cy="166.37908"
     inkscape:window-x="0"
     inkscape:window-y="24"
     inkscape:window-maximized="1"
     inkscape:current-layer="svg2" />
  <g
     id="g842">
    <path
       style="fill:#3689e6;fill-opacity:1;stroke-width:11.10955811"
       inkscape:connector-curvature="0"
       d="M 432.91327,56.473967 C 535.10618,145.04856 538.74005,306.17367 441.03007,416.37276 343.3201,526.57184 181.27964,544.10061 79.086729,455.52602 -23.106186,366.95143 -26.740042,205.82631 70.969928,95.627227 168.6799,-14.571854 330.72036,-32.100623 432.91327,56.473967 Z"
       id="path27" />
    <path
       style="opacity:1;fill:#000000;fill-opacity:0.49019608;stroke-width:11.10955811"
       inkscape:connector-curvature="0"
       d="M 511.63551,224.90351 C 510.08412,286.21516 486.47428,349.05812 440.66913,400.71799 342.95915,510.91711 180.91869,528.44584 78.725776,439.87129 30.827124,398.35563 4.4968216,340.92284 0.19382768,280.2288 0.79907934,346.58548 27.117411,410.48217 79.078682,455.51906 181.27159,544.09361 343.31975,526.55619 441.02202,416.36576 490.72697,360.30766 514.02704,291.0748 511.63551,224.90351 Z"
       id="path51" />
    <path
       style="fill:#000000;fill-opacity:0.49019608;stroke-width:0.76821142"
       d="m 267.21249,396.91639 c -3.329,-1.3703 -7.68816,-4.33115 -9.73205,-6.6102 -1.23387,-1.37582 -3.72068,-1.42035 -66.53621,-1.19184 l -65.2545,0.23736 -2.78674,-2.68872 -2.78674,-2.68876 -0.0922,-96.14974 c -0.0856,-89.34822 5.6e-4,-96.30667 1.21848,-98.36848 0.72085,-1.2203 2.29299,-2.65353 3.49365,-3.18497 2.1271,-0.9416 7.91516,-0.87553 8.89213,0.10129 0.26838,0.26835 0.44526,41.72727 0.39311,92.13094 -0.0522,50.40366 0.10193,92.35714 0.34246,93.22994 0.43685,1.58536 0.49826,1.5871 61.84163,1.72982 42.85739,0.0994 61.40429,-0.10356 61.40429,-0.67204 0,-1.59122 1.42582,0.0964 1.89808,2.24636 0.84986,3.86937 7.03328,11.02847 8.0728,9.34655 0.45642,-0.73856 0.74748,-0.58311 1.1229,0.59973 0.37417,1.17959 1.39956,1.73053 3.925,2.10924 5.22312,0.78327 10.15004,-0.18217 10.7616,-2.10924 0.38242,-1.2048 0.66093,-1.34725 1.13488,-0.58042 0.46999,0.76048 1.43138,0.21279 3.81963,-2.17531 1.75529,-1.75532 2.97014,-3.54977 2.69949,-3.98759 -0.27061,-0.43778 -0.15345,-0.79604 0.26041,-0.79604 0.4139,0 0.97943,-1.0331 1.25673,-2.29584 0.48348,-2.20116 1.92246,-3.99957 1.92246,-2.40261 0,0.50729 20.91968,0.78547 61.36671,0.81593 l 61.36668,0.0461 0.43363,-1.65812 c 0.23849,-0.91196 0.4433,-42.96397 0.45509,-93.44889 0.0113,-50.48493 0.20258,-91.97171 0.42361,-92.19285 0.8561,-0.8561 4.77385,-0.88977 7.8483,-0.0673 6.03598,1.6145 5.61585,-5.95775 5.61585,101.21079 0,66.88445 -0.24869,95.84353 -0.83369,97.1277 -0.45853,1.00638 -1.80823,2.40541 -2.99932,3.109 -1.97461,1.16644 -7.89894,1.2793 -67.15124,1.2793 h -64.98562 l -2.83079,2.67008 c -4.68673,4.42061 -8.94727,6.0646 -16.37805,6.31953 -4.72846,0.16214 -7.37753,-0.12473 -9.60261,-1.04085 z m -124.8497,-35.22024 c -0.34205,-24.9199 0.0378,-176.48652 0.44342,-177.14385 0.39885,-0.64536 0.24378,-0.74276 -0.50143,-0.31484 -0.59343,0.34092 0.64199,-0.98849 2.74537,-2.95411 2.10338,-1.96566 4.09111,-3.57392 4.41721,-3.57392 0.75757,0 0.68991,-8.54661 0.66024,83.45881 -0.0265,78.08749 0.008,80.01105 1.44023,80.38526 0.87141,0.2279 1.64459,-0.082 1.90624,-0.76373 0.24416,-0.63602 0.95074,-0.95123 1.58604,-0.70745 0.6302,0.24188 1.14584,0.0847 1.14584,-0.34961 0,-0.43423 0.34583,-0.57577 0.76819,-0.31484 0.42252,0.26117 0.76827,0.0884 0.76827,-0.38411 0,-0.47236 0.34582,-0.6452 0.76819,-0.38407 0.42251,0.26116 0.76819,0.16629 0.76819,-0.2109 0,-0.3772 0.43211,-0.69283 0.96026,-0.70171 0.52815,-0.008 3.81615,-0.92632 7.30666,-2.03875 23.76117,-7.5727 62.3605,-4.92042 83.33624,5.72636 8.66362,4.3974 16.71466,11.71858 16.71466,15.19941 0,1.14523 -2.21791,0.49062 -3.28577,-0.96979 -0.53983,-0.73822 -1.49057,-1.44355 -2.11276,-1.56741 -2.16635,-0.43128 -4.20824,-1.50055 -4.82748,-2.52809 -0.3428,-0.56889 -0.94783,-0.8338 -1.34437,-0.58873 -0.39655,0.24491 -0.72099,0.0903 -0.72099,-0.34394 0,-0.43416 -0.51859,-0.59044 -1.15234,-0.34734 -0.63379,0.2434 -1.1523,0.0393 -1.1523,-0.45358 0,-0.49266 -0.32164,-0.69683 -0.71512,-0.45373 -0.39334,0.24302 -0.90422,0.13606 -1.1353,-0.23774 -0.23093,-0.37379 -1.8799,-0.9132 -3.66399,-1.19852 -1.78408,-0.28536 -3.60665,-0.81921 -4.05014,-1.18647 -0.44349,-0.36737 -3.57188,-1.07482 -6.95198,-1.57225 -3.38015,-0.4975 -7.70132,-1.1314 -9.60269,-1.4087 -1.90129,-0.27742 -11.23506,-0.46284 -20.74167,-0.41231 -15.18244,0.0809 -21.43506,0.50952 -31.27419,2.14496 -4.59938,0.76448 -14.24307,3.49171 -15.22314,4.30511 -0.53624,0.44507 -1.74471,0.95746 -2.68547,1.13862 -0.94073,0.18104 -2.61808,0.93694 -3.72741,1.6795 -1.10929,0.74257 -2.21446,1.35909 -2.4559,1.37005 -0.24113,0.0113 -1.03635,0.61731 -1.7664,1.3474 -0.73009,0.73005 -1.78707,1.59432 -2.34882,1.92053 -0.56179,0.32617 -1.7534,1.80302 -2.64798,3.28184 -1.25609,2.07639 -1.63132,2.33881 -1.64761,1.1523 z m 265.46979,-1.56677 c -0.78739,-1.46211 -1.6577,-2.6584 -1.93406,-2.6584 -0.27628,0 -1.33723,-0.77783 -2.35767,-1.72849 -1.02039,-0.95063 -2.03626,-1.73745 -2.25743,-1.74845 -0.22111,-0.0113 -1.30976,-0.62748 -2.41909,-1.37004 -1.10933,-0.74253 -2.66495,-1.48392 -3.45691,-1.64746 -0.79204,-0.16365 -2.62828,-0.901 -4.0806,-1.63877 -1.45229,-0.73776 -3.61289,-1.34139 -4.80129,-1.34139 -1.18844,0 -2.16076,-0.25776 -2.16076,-0.57267 0,-0.31484 -1.46921,-0.83377 -3.2649,-1.15295 -1.79573,-0.31899 -3.78346,-0.69339 -4.41725,-0.83168 -8.56762,-1.86932 -41.96444,-2.93499 -51.47014,-1.64236 -13.08495,1.7794 -15.40709,2.27501 -23.81457,5.08297 -0.63376,0.21166 -1.41158,0.32996 -1.7285,0.26268 -0.31672,-0.0669 -0.57611,0.26079 -0.57611,0.72847 0,0.46771 -0.51859,0.65144 -1.15234,0.40819 -0.63379,-0.2434 -1.1523,-0.0869 -1.1523,0.34734 0,0.43419 -0.32429,0.58892 -0.72098,0.34393 -0.39659,-0.24491 -1.00154,0.0189 -1.34442,0.58878 -0.62173,1.03162 -2.66517,2.09858 -4.84751,2.53103 -0.63322,0.12548 -1.68238,0.85104 -2.3314,1.61243 -1.79123,2.10115 -3.04709,2.01974 -3.04709,-0.1973 0,-1.11496 0.33259,-1.76035 0.76822,-1.49106 0.42252,0.26117 0.76819,-0.0264 0.76819,-0.64066 0,-0.61354 0.55442,-1.32824 1.23205,-1.58828 0.69801,-0.26759 1.04296,-0.9654 0.79582,-1.60939 -0.24,-0.62518 -0.18935,-1.06077 0.11225,-0.96802 0.30161,0.0926 2.62269,-1.24637 5.15781,-2.97577 10.63098,-7.25208 22.01371,-11.21352 39.56289,-13.76878 15.59867,-2.27127 38.81877,-0.83683 51.54822,3.1844 3.43249,1.08435 6.80693,2.11015 7.49866,2.27962 3.29246,0.80652 7.0193,2.30967 7.0193,2.83113 0,0.319 0.60495,0.58031 1.34434,0.58035 1.27279,1.1e-4 1.33584,-4.24611 1.18382,-79.70192 -0.0881,-43.8361 0.0382,-80.6527 0.28158,-81.81464 0.2434,-1.1619 0.66867,-2.11257 0.94548,-2.11257 0.27667,0 2.22429,1.60827 4.32771,3.57389 2.10335,1.96565 3.33876,3.29503 2.74534,2.95415 -0.69226,-0.39761 -0.89665,-0.32466 -0.57033,0.20334 0.52305,0.84631 0.85591,177.53662 0.33562,178.0571 -0.15949,0.15949 -0.93422,-0.90637 -1.72161,-2.36848 z M 263.67962,347.42953 c -7.69452,-7.66224 -18.88041,-12.66218 -36.02245,-16.10158 -19.85224,-3.98313 -45.10976,-3.02306 -62.6016,2.37966 -2.75471,0.85085 -5.00856,1.89918 -5.00856,2.32967 0,0.43045 -0.31634,0.58726 -0.70261,0.34847 -0.38642,-0.23887 -0.81853,-0.10469 -0.96027,0.2982 -0.14173,0.40279 -1.38115,0.92844 -2.75433,1.16807 -2.31855,0.40456 -2.49724,0.28422 -2.50412,-1.68787 -0.19616,-56.18407 0.12397,-169.3872 0.48162,-170.31957 0.27099,-0.7056 0.96624,-1.10105 1.54549,-0.87874 0.57925,0.22224 1.05316,0.0695 1.05316,-0.33978 0,-0.40925 0.25928,-0.70318 0.57616,-0.6531 1.47575,0.2332 2.54702,-0.1561 2.15882,-0.7844 -0.23584,-0.38132 0.60813,-1.05476 1.87518,-1.49643 1.26705,-0.44168 2.30373,-0.6361 2.30373,-0.43189 0,0.2041 0.77783,-0.0608 1.7285,-0.58893 0.95066,-0.52803 1.90132,-0.99707 2.1126,-1.04235 2.59487,-0.55586 9.82159,-3.0217 10.53899,-3.59611 0.51499,-0.41231 2.24349,-0.89794 3.84105,-1.07917 1.59757,-0.18104 4.11462,-0.50683 5.59344,-0.72366 3.4142,-0.50045 20.55712,-0.40158 26.11918,0.1508 2.32384,0.23093 5.0894,0.50744 6.1457,0.61497 1.05627,0.10734 2.54589,0.24982 3.31023,0.31559 0.76433,0.0661 1.17849,0.46197 0.92035,0.87961 -0.2623,0.4241 0.0227,0.57055 0.6452,0.33184 0.61297,-0.23509 1.34268,-0.0582 1.62165,0.39292 0.27893,0.45131 1.33118,0.82057 2.33843,0.82057 1.0072,0 3.03341,0.70931 4.50274,1.57622 1.46929,0.86691 3.64229,1.75222 4.82884,1.96739 1.18658,0.21506 2.39641,0.7779 2.68853,1.25053 0.29215,0.47263 1.0953,0.94217 1.78488,1.04334 0.68965,0.10129 2.14855,0.81695 3.24208,1.5905 1.09349,0.77356 2.5367,1.75216 3.20711,2.17467 0.67042,0.42251 1.58204,1.21965 2.02587,1.77135 0.44383,0.55174 1.31603,1.08 1.93822,1.17392 1.7167,0.25928 3.12385,1.30999 2.69136,2.0098 -0.21203,0.34318 0.81706,1.44269 2.28688,2.44362 1.46974,1.00093 2.67469,2.07915 2.67757,2.39603 0.003,0.31672 0.67827,1.24917 1.50081,2.07171 0.82258,0.82254 2.0414,2.55107 2.70848,3.84106 0.66709,1.29003 1.52229,2.3455 1.90035,2.3455 0.37811,0 0.91589,1.04012 1.19513,2.31133 0.2793,1.27124 0.76622,2.1515 1.0823,1.95617 0.31597,-0.1954 0.50816,0.4066 0.42682,1.33765 -0.0813,0.93105 0.0113,1.97548 0.20863,2.32097 0.3967,0.69925 0.46379,158.84425 0.0677,159.03772 -0.13758,0.0673 -2.53138,-2.14949 -5.3195,-4.92593 z m 19.24751,3.46643 c -0.23358,-15.67174 -0.0189,-157.13035 0.24,-157.58616 0.19351,-0.34091 0.28497,-1.38194 0.20371,-2.31303 -0.0813,-0.93105 0.10205,-1.53842 0.40736,-1.34967 0.30539,0.1886 0.76789,-0.504 1.02777,-1.53944 0.25965,-1.03544 1.33383,-2.812 2.38654,-3.94794 1.05279,-1.1359 1.91411,-2.53334 1.91411,-3.10541 0,-0.57211 0.353,-1.0402 0.7847,-1.0402 0.43155,0 1.14501,-0.77779 1.58544,-1.72846 0.44043,-0.95066 1.95477,-2.59272 3.36525,-3.64898 1.41045,-1.0563 2.41981,-2.15592 2.24304,-2.44362 -0.3772,-0.61409 1.1399,-1.66522 2.7555,-1.90915 0.62219,-0.0941 1.49439,-0.62219 1.93818,-1.17388 0.44383,-0.55174 1.35549,-1.34884 2.0259,-1.77135 0.67042,-0.42256 2.11359,-1.40115 3.20712,-2.17471 1.09353,-0.77351 2.55243,-1.48928 3.24204,-1.5905 0.68961,-0.10129 1.49284,-0.57071 1.78492,-1.04334 0.29216,-0.47259 1.42934,-1.02217 2.52722,-1.22127 2.03947,-0.36964 5.32173,-1.9787 6.06932,-2.97506 0.22866,-0.30501 2.12137,-0.75919 4.20567,-1.00936 2.08429,-0.25021 4.17702,-0.77647 4.65055,-1.16946 0.47354,-0.393 2.72931,-0.89515 5.01287,-1.11595 2.28355,-0.2211 5.26099,-0.58151 6.61648,-0.80156 3.38645,-0.54973 20.65617,-0.50536 24.42281,0.0627 1.69009,0.25474 3.74642,0.45721 4.56964,0.4495 0.82318,-0.008 2.55167,0.46553 3.84102,1.05158 2.68649,1.22109 13.1746,4.92695 15.27326,5.3966 3.18936,0.71376 4.35417,1.29679 3.93755,1.97091 -0.39832,0.64448 0.65598,1.03929 2.14678,0.80387 0.31672,-0.0499 0.57611,0.24378 0.57611,0.65314 0,0.40928 0.60499,0.52701 1.34441,0.26154 0.73939,-0.26532 1.08805,-0.19994 0.77488,0.14551 -0.31332,0.34545 -0.24264,1.02153 0.15648,1.50267 0.96449,1.16216 1.00274,5.22149 0.89219,94.68038 l -0.0952,76.97665 -2.11257,-0.28157 c -2.78978,-0.37191 -4.80132,-1.19758 -4.80132,-1.97035 0,-1.35636 -13.55426,-4.91792 -23.26285,-6.11255 -8.75444,-1.07732 -28.53914,-1.09096 -35.88941,-0.0265 -12.56247,1.82219 -28.81156,6.44531 -27.89072,7.93531 0.27666,0.44776 0.0794,0.52157 -0.47626,0.17839 -2.56581,-1.58577 -19.53948,10.32718 -18.07963,12.68924 0.40626,0.65733 0.27741,0.76263 -0.41212,0.33675 -0.63183,-0.3905 -1.38705,-0.0956 -2.03925,0.79635 -0.95622,1.30772 -1.03839,1.24297 -1.06945,-0.84291 z"
       id="path848"
       inkscape:connector-curvature="0" />
    <path
       inkscape:connector-curvature="0"
       id="path846"
       d="m 247.21244,376.91638 c -3.32901,-1.37031 -7.68816,-4.33115 -9.73206,-6.61021 -1.23386,-1.37582 -3.72068,-1.42034 -66.5362,-1.19183 l -65.2545,0.23735 -2.78674,-2.68872 -2.78675,-2.68875 -0.0921,-96.14975 c -0.08564,-89.34822 5.6e-4,-96.30667 1.21848,-98.36848 0.72084,-1.2203 2.29299,-2.65353 3.49365,-3.18497 2.1271,-0.94159 7.91516,-0.87553 8.89212,0.10129 0.26839,0.26835 0.44527,41.72727 0.39311,92.13094 -0.0522,50.40366 0.10194,92.35714 0.34247,93.22995 0.43685,1.58536 0.49825,1.58709 61.84163,1.72981 42.85739,0.0994 61.40429,-0.10356 61.40429,-0.67204 0,-1.59122 1.42582,0.0964 1.89807,2.24636 0.84987,3.86937 7.03329,11.02848 8.07281,9.34655 0.45642,-0.73856 0.74748,-0.58311 1.1229,0.59973 0.37417,1.1796 1.39956,1.73054 3.925,2.10925 5.22312,0.78326 10.15003,-0.18218 10.7616,-2.10925 0.38241,-1.2048 0.66093,-1.34725 1.13488,-0.58042 0.46998,0.76048 1.43138,0.21279 3.81963,-2.1753 1.75529,-1.75533 2.97014,-3.54977 2.69949,-3.9876 -0.27062,-0.43778 -0.15345,-0.79604 0.26041,-0.79604 0.41389,0 0.97942,-1.0331 1.25673,-2.29584 0.48347,-2.20115 1.92245,-3.99957 1.92245,-2.4026 0,0.50728 20.91969,0.78546 61.36672,0.81592 l 61.3667,0.0461 0.43362,-1.65812 c 0.23849,-0.91196 0.4433,-42.96396 0.45509,-93.44889 0.0113,-50.48493 0.20259,-91.97171 0.42361,-92.19285 0.8561,-0.8561 4.77385,-0.88977 7.84831,-0.0673 6.03598,1.6145 5.61585,-5.95775 5.61585,101.2108 0,66.88444 -0.2487,95.84353 -0.83369,97.1277 -0.45854,1.00637 -1.80824,2.4054 -2.99932,3.109 -1.97462,1.16643 -7.89895,1.27929 -67.15127,1.27929 h -64.98561 l -2.83079,2.67009 c -4.68673,4.42061 -8.94728,6.06459 -16.37805,6.31952 -4.72846,0.16214 -7.37753,-0.12473 -9.60261,-1.04085 z m -124.8497,-35.22025 c -0.34205,-24.9199 0.0378,-176.48651 0.44341,-177.14385 0.39886,-0.64535 0.24378,-0.74275 -0.50143,-0.31483 -0.59342,0.34091 0.64199,-0.9885 2.74538,-2.95412 2.10338,-1.96566 4.09111,-3.57392 4.41721,-3.57392 0.75756,0 0.68991,-8.54661 0.66024,83.45881 -0.0265,78.08749 0.008,80.01105 1.44023,80.38526 0.87141,0.2279 1.64458,-0.082 1.90624,-0.76373 0.24416,-0.63602 0.95074,-0.95123 1.58604,-0.70745 0.6302,0.24189 1.14584,0.0847 1.14584,-0.34961 0,-0.43423 0.34583,-0.57577 0.76819,-0.31483 0.42251,0.26116 0.76827,0.0884 0.76827,-0.38412 0,-0.47236 0.34582,-0.6452 0.76818,-0.38407 0.42252,0.26116 0.76819,0.1663 0.76819,-0.2109 0,-0.3772 0.43212,-0.69283 0.96027,-0.70171 0.52815,-0.008 3.81615,-0.92632 7.30666,-2.03875 23.76117,-7.5727 62.3605,-4.92042 83.33624,5.72636 8.66362,4.39741 16.71465,11.71858 16.71465,15.19941 0,1.14524 -2.2179,0.49062 -3.28577,-0.96979 -0.53983,-0.73822 -1.49057,-1.44355 -2.11275,-1.56741 -2.16635,-0.43128 -4.20824,-1.50054 -4.82748,-2.52808 -0.3428,-0.5689 -0.94783,-0.83381 -1.34438,-0.58874 -0.39654,0.24491 -0.72098,0.0903 -0.72098,-0.34394 0,-0.43415 -0.51859,-0.59044 -1.15234,-0.34734 -0.63379,0.2434 -1.1523,0.0393 -1.1523,-0.45358 0,-0.49266 -0.32164,-0.69683 -0.71513,-0.45373 -0.39333,0.24302 -0.90421,0.13606 -1.13529,-0.23773 -0.23093,-0.3738 -1.8799,-0.91321 -3.66399,-1.19853 -1.78409,-0.28535 -3.60665,-0.81921 -4.05014,-1.18647 -0.44349,-0.36737 -3.57188,-1.07482 -6.95199,-1.57224 -3.38014,-0.4975 -7.70131,-1.13141 -9.60268,-1.40871 -1.90129,-0.27742 -11.23506,-0.46284 -20.74167,-0.41231 -15.18244,0.0809 -21.43506,0.50952 -31.27419,2.14496 -4.59939,0.76448 -14.24308,3.49172 -15.22315,4.30511 -0.53624,0.44508 -1.7447,0.95747 -2.68546,1.13862 -0.94073,0.18104 -2.61808,0.93694 -3.72741,1.67951 -1.10929,0.74256 -2.21447,1.35908 -2.4559,1.37004 -0.24114,0.0113 -1.03635,0.61731 -1.7664,1.3474 -0.73009,0.73005 -1.78708,1.59432 -2.34883,1.92053 -0.56179,0.32617 -1.7534,1.80302 -2.64797,3.28184 -1.25609,2.0764 -1.63132,2.33881 -1.64761,1.1523 z m 265.4698,-1.56676 c -0.78739,-1.46211 -1.6577,-2.65841 -1.93406,-2.65841 -0.27628,0 -1.33723,-0.77783 -2.35767,-1.72849 -1.02039,-0.95063 -2.03625,-1.73745 -2.25743,-1.74845 -0.2211,-0.0113 -1.30976,-0.62748 -2.41909,-1.37004 -1.10935,-0.74253 -2.66496,-1.48392 -3.45692,-1.64746 -0.79204,-0.16365 -2.62829,-0.901 -4.08061,-1.63876 -1.45228,-0.73777 -3.61289,-1.3414 -4.80128,-1.3414 -1.18844,0 -2.16076,-0.25776 -2.16076,-0.57267 0,-0.31483 -1.46922,-0.83376 -3.26491,-1.15295 -1.79573,-0.31899 -3.78346,-0.69339 -4.41724,-0.83168 -8.56763,-1.86932 -41.96444,-2.93499 -51.47014,-1.64236 -13.08495,1.77941 -15.40709,2.27502 -23.81458,5.08298 -0.63375,0.21165 -1.41158,0.32995 -1.72849,0.26267 -0.31672,-0.0669 -0.57611,0.26079 -0.57611,0.72847 0,0.46772 -0.51859,0.65144 -1.15234,0.40819 -0.63379,-0.2434 -1.1523,-0.0869 -1.1523,0.34734 0,0.43419 -0.32429,0.58892 -0.72099,0.34394 -0.39658,-0.24492 -1.00153,0.0189 -1.34441,0.58877 -0.62174,1.03162 -2.66517,2.09858 -4.84751,2.53104 -0.63322,0.12548 -1.68238,0.85103 -2.3314,1.61242 -1.79123,2.10115 -3.0471,2.01974 -3.0471,-0.19729 0,-1.11496 0.3326,-1.76036 0.76823,-1.49106 0.42251,0.26116 0.76819,-0.0265 0.76819,-0.64067 0,-0.61353 0.55442,-1.32824 1.23205,-1.58827 0.698,-0.26759 1.04296,-0.96541 0.79582,-1.6094 -0.24,-0.62517 -0.18936,-1.06076 0.11225,-0.96801 0.30161,0.0926 2.62269,-1.24638 5.15781,-2.97578 10.63098,-7.25208 22.0137,-11.21352 39.56288,-13.76878 15.59868,-2.27127 38.81877,-0.83682 51.54822,3.1844 3.43249,1.08435 6.80693,2.11015 7.49866,2.27963 3.29246,0.80651 7.01932,2.30967 7.01932,2.83113 0,0.31899 0.60495,0.58031 1.34434,0.58034 1.2728,1.2e-4 1.33584,-4.24611 1.18383,-79.70192 -0.0881,-43.83609 0.0382,-80.6527 0.28157,-81.81464 0.2434,-1.1619 0.66867,-2.11257 0.94549,-2.11257 0.27666,0 2.22429,1.60827 4.32771,3.57389 2.10334,1.96565 3.33876,3.29503 2.74533,2.95415 -0.69226,-0.3976 -0.89665,-0.32466 -0.57033,0.20334 0.52305,0.84631 0.85591,177.53662 0.33562,178.0571 -0.15949,0.15949 -0.93422,-0.90637 -1.72161,-2.36848 z M 243.67957,327.42951 c -7.69452,-7.66224 -18.88041,-12.66217 -36.02246,-16.10158 -19.85223,-3.98313 -45.10975,-3.02306 -62.6016,2.37967 -2.7547,0.85084 -5.00855,1.89917 -5.00855,2.32966 0,0.43045 -0.31635,0.58726 -0.70261,0.34847 -0.38642,-0.23887 -0.81854,-0.10469 -0.96027,0.29821 -0.14173,0.40278 -1.38115,0.92844 -2.75433,1.16806 -2.31855,0.40456 -2.49725,0.28422 -2.50413,-1.68786 -0.19615,-56.18408 0.12397,-169.3872 0.48163,-170.31958 0.27099,-0.7056 0.96624,-1.10105 1.54549,-0.87874 0.57925,0.22224 1.05316,0.0695 1.05316,-0.33978 0,-0.40924 0.25928,-0.70318 0.57615,-0.6531 1.47576,0.2332 2.54703,-0.15609 2.15883,-0.7844 -0.23584,-0.38132 0.60813,-1.05475 1.87518,-1.49643 1.26704,-0.44168 2.30373,-0.63609 2.30373,-0.43189 0,0.2041 0.77783,-0.0609 1.72849,-0.58892 0.95067,-0.52804 1.90133,-0.99708 2.11261,-1.04236 2.59487,-0.55585 9.82159,-3.02169 10.53898,-3.59611 0.515,-0.4123 2.24349,-0.89794 3.84106,-1.07916 1.59757,-0.18104 4.11462,-0.50684 5.59344,-0.72367 3.4142,-0.50045 20.55711,-0.40158 26.11918,0.1508 2.32384,0.23093 5.0894,0.50744 6.1457,0.61497 1.05626,0.10734 2.54589,0.24983 3.31022,0.31559 0.76434,0.0661 1.1785,0.46197 0.92036,0.87961 -0.2623,0.4241 0.0227,0.57056 0.6452,0.33184 0.61296,-0.23508 1.34268,-0.0582 1.62164,0.39292 0.27893,0.45132 1.33119,0.82058 2.33844,0.82058 1.0072,0 3.03341,0.7093 4.50274,1.57621 1.46929,0.86691 3.64229,1.75223 4.82883,1.96739 1.18659,0.21506 2.39641,0.77791 2.68853,1.25054 0.29216,0.47263 1.09531,0.94216 1.78488,1.04334 0.68965,0.10129 2.14855,0.81694 3.24208,1.5905 1.0935,0.77355 2.53671,1.75215 3.20712,2.17466 0.67041,0.42251 1.58204,1.21965 2.02587,1.77135 0.44383,0.55174 1.31603,1.08 1.93821,1.17392 1.7167,0.25928 3.12386,1.30999 2.69137,2.0098 -0.21203,0.34319 0.81706,1.44269 2.28688,2.44362 1.46974,1.00093 2.67469,2.07916 2.67756,2.39603 0.003,0.31673 0.67828,1.24917 1.50082,2.07171 0.82257,0.82254 2.0414,2.55107 2.70848,3.84106 0.66709,1.29003 1.52228,2.3455 1.90035,2.3455 0.3781,0 0.91589,1.04013 1.19512,2.31133 0.27931,1.27125 0.76623,2.1515 1.08231,1.95617 0.31597,-0.1954 0.50816,0.4066 0.42682,1.33765 -0.0813,0.93105 0.0113,1.97549 0.20863,2.32097 0.3967,0.69925 0.46379,158.84425 0.0676,159.03772 -0.13757,0.0673 -2.53137,-2.14949 -5.31949,-4.92593 z m 19.2475,3.46643 c -0.23357,-15.67173 -0.0189,-157.13034 0.24,-157.58615 0.19352,-0.34092 0.28498,-1.38195 0.20372,-2.31304 -0.0813,-0.93105 0.10205,-1.53842 0.40736,-1.34967 0.30538,0.1886 0.76789,-0.504 1.02777,-1.53944 0.25965,-1.03544 1.33383,-2.812 2.38654,-3.94794 1.05279,-1.1359 1.9141,-2.53334 1.9141,-3.10541 0,-0.57211 0.35301,-1.0402 0.78471,-1.0402 0.43155,0 1.14501,-0.77779 1.58544,-1.72846 0.44042,-0.95066 1.95477,-2.59271 3.36525,-3.64898 1.41044,-1.0563 2.4198,-2.15592 2.24304,-2.44361 -0.3772,-0.6141 1.1399,-1.66523 2.7555,-1.90916 0.62218,-0.0941 1.49439,-0.62218 1.93818,-1.17388 0.44383,-0.55174 1.35549,-1.34884 2.0259,-1.77135 0.67041,-0.42255 2.11359,-1.40115 3.20712,-2.1747 1.09353,-0.77352 2.55243,-1.48929 3.24204,-1.5905 0.68961,-0.1013 1.49284,-0.57071 1.78492,-1.04334 0.29216,-0.4726 1.42934,-1.02218 2.52722,-1.22128 2.03947,-0.36964 5.32172,-1.9787 6.06931,-2.97506 0.22867,-0.30501 2.12138,-0.75919 4.20567,-1.00936 2.0843,-0.2502 4.17702,-0.77646 4.65056,-1.16946 0.47354,-0.39299 2.72931,-0.89514 5.01286,-1.11594 2.28356,-0.2211 5.26099,-0.58152 6.61648,-0.80156 3.38646,-0.54974 20.65618,-0.50537 24.42282,0.0627 1.69009,0.25474 3.74642,0.4572 4.56964,0.44949 0.82318,-0.008 2.55167,0.46553 3.84102,1.05158 2.68649,1.22109 13.1746,4.92696 15.27326,5.3966 3.18935,0.71376 4.35416,1.29679 3.93755,1.97091 -0.39833,0.64449 0.65597,1.0393 2.14677,0.80387 0.31672,-0.0499 0.57611,0.24378 0.57611,0.65314 0,0.40928 0.60499,0.52702 1.34442,0.26154 0.73941,-0.26532 1.08807,-0.19993 0.7749,0.14551 -0.31333,0.34545 -0.24269,1.02154 0.15647,1.50267 0.9645,1.16217 1.00274,5.22149 0.89219,94.68038 l -0.0952,76.97665 -2.11259,-0.28157 c -2.78978,-0.37191 -4.80132,-1.19758 -4.80132,-1.97034 0,-1.35636 -13.55425,-4.91793 -23.26284,-6.11256 -8.75444,-1.07732 -28.53914,-1.09096 -35.88941,-0.0265 -12.56247,1.82219 -28.81157,6.44531 -27.89072,7.93531 0.27666,0.44776 0.0794,0.52158 -0.47626,0.1784 -2.56581,-1.58578 -19.53948,10.32718 -18.07964,12.68923 0.40626,0.65734 0.27742,0.76263 -0.41212,0.33676 -0.63182,-0.3905 -1.38705,-0.0956 -2.03924,0.79634 -0.95622,1.30772 -1.03839,1.24298 -1.06946,-0.84291 z"
       style="fill:#ffffff;stroke-width:0.76821142" />
  </g>
</svg>
