<?xml version="1.0" encoding="UTF-8" standalone="no"?>
<!-- Created with Inkscape (http://www.inkscape.org/) -->

<svg
   xmlns:dc="http://purl.org/dc/elements/1.1/"
   xmlns:cc="http://creativecommons.org/ns#"
   xmlns:rdf="http://www.w3.org/1999/02/22-rdf-syntax-ns#"
   xmlns:svg="http://www.w3.org/2000/svg"
   xmlns="http://www.w3.org/2000/svg"
   xmlns:sodipodi="http://sodipodi.sourceforge.net/DTD/sodipodi-0.dtd"
   xmlns:inkscape="http://www.inkscape.org/namespaces/inkscape"
   version="1.1"
   width="100%"
   height="100%"
   viewBox="0 0 512 512"
   id="svg2"
   inkscape:version="0.92.2 5c3e80d, 2017-08-06"
   sodipodi:docname="alchemy.svg">
  <sodipodi:namedview
     pagecolor="#ffffff"
     bordercolor="#666666"
     borderopacity="1"
     objecttolerance="10"
     gridtolerance="10"
     guidetolerance="10"
     inkscape:pageopacity="0"
     inkscape:pageshadow="2"
     inkscape:window-width="1366"
     inkscape:window-height="717"
     id="namedview38"
     showgrid="false"
     inkscape:zoom="0.32593203"
     inkscape:cx="22.094872"
     inkscape:cy="22.422526"
     inkscape:window-x="0"
     inkscape:window-y="24"
     inkscape:window-maximized="1"
     inkscape:current-layer="svg2" />
  <metadata
     id="metadata74">
    <rdf:RDF>
      <cc:Work
         rdf:about="">
        <dc:format>image/svg+xml</dc:format>
        <dc:type
           rdf:resource="http://purl.org/dc/dcmitype/StillImage" />
      </cc:Work>
    </rdf:RDF>
  </metadata>
  <defs
     id="defs72" />
  <text
     style="font-size:129.22999573px;line-height:0%;font-family:'Gentium Book Basic';letter-spacing:0;word-spacing:0"
     id="text22"
     y="231.35997"
     x="729.64001">
    <tspan
       id="tspan24"
       y="231.35997"
       x="729.64001" />
  </text>
  <text
     style="font-size:46.95375824px;font-family:Arial;text-anchor:middle"
     id="text26"
     transform="scale(4.0128205,0.24920128)"
     y="579.25812"
     x="378.90805" />
  <text
     style="font-size:129.22999573px;line-height:0%;font-family:'Gentium Book Basic';letter-spacing:0;word-spacing:0"
     id="text28"
     y="151.35997"
     x="1310.91">
    <tspan
       id="tspan30"
       y="151.35997"
       x="1310.91" />
  </text>
  <text
     style="font-size:46.95375824px;font-family:Arial;text-anchor:middle"
     id="text32"
     transform="scale(4.0128205,0.24920128)"
     y="258.21997"
     x="523.75732" />
  <text
     style="font-size:129.22999573px;line-height:0%;font-family:'Gentium Book Basic';letter-spacing:0;word-spacing:0"
     id="text34"
     y="-29.900009"
     x="239.33">
    <tspan
       id="tspan36"
       y="-29.900009"
       x="239.33" />
  </text>
  <text
     style="font-size:46.95375824px;font-family:Arial;text-anchor:middle"
     id="text38"
     transform="scale(4.0128205,0.24920128)"
     y="-469.1264"
     x="256.71869" />
  <text
     style="font-size:129.22999573px;line-height:0%;font-family:'Gentium Book Basic';letter-spacing:0;word-spacing:0"
     id="text40"
     y="-246.37001"
     x="1337.38">
    <tspan
       id="tspan42"
       y="-246.37001"
       x="1337.38" />
  </text>
  <text
     style="font-size:46.95375824px;font-family:Arial;text-anchor:middle"
     id="text44"
     transform="scale(4.0128205,0.24920128)"
     y="-1337.802"
     x="530.3573" />
  <text
     style="font-size:129.22999573px;line-height:0%;font-family:'Gentium Book Basic';letter-spacing:0;word-spacing:0"
     id="text46"
     y="-326.37"
     x="1918.65">
    <tspan
       id="tspan48"
       y="-326.37"
       x="1918.65" />
  </text>
  <text
     style="font-size:46.95375824px;font-family:Arial;text-anchor:middle"
     id="text50"
     transform="scale(4.0128205,0.24920128)"
     y="-1658.8303"
     x="675.20654" />
  <text
     style="font-size:129.22999573px;line-height:0%;font-family:'Gentium Book Basic';letter-spacing:0;word-spacing:0"
     id="text52"
     y="-798.77002"
     x="1529.53">
    <tspan
       id="tspan54"
       y="-798.77002"
       x="1529.53" />
  </text>
  <text
     style="font-size:46.95375824px;font-family:Arial;text-anchor:middle"
     id="text56"
     transform="scale(4.0128205,0.24920128)"
     y="-3554.4807"
     x="578.237" />
  <text
     style="font-size:129.22999573px;line-height:0%;font-family:'Gentium Book Basic';letter-spacing:0;word-spacing:0"
     id="text58"
     y="-878.78003"
     x="2110.79">
    <tspan
       id="tspan60"
       y="-878.78003"
       x="2110.79" />
  </text>
  <text
     style="font-size:46.95375824px;font-family:Arial;text-anchor:middle"
     id="text62"
     transform="scale(4.0128205,0.24920128)"
     y="-3875.519"
     x="723.0863" />
  <text
     style="font-size:208.33000183px;line-height:0%;font-family:'Gentium Book Basic';letter-spacing:0;word-spacing:0"
     id="text64"
     y="535.94006"
     x="277.98999">
    <tspan
       id="tspan66"
       y="535.94006"
       x="277.98999" />
  </text>
  <g
     id="g883">
    <path
       style="fill:#3689e6;fill-opacity:1;stroke-width:11.10955811"
       inkscape:connector-curvature="0"
       d="M 432.91327,56.473967 C 535.10618,145.04856 538.74005,306.17367 441.03007,416.37276 343.3201,526.57184 181.27964,544.10061 79.086729,455.52602 -23.106186,366.95143 -26.740042,205.82631 70.969928,95.627227 168.6799,-14.571854 330.72036,-32.100623 432.91327,56.473967 Z"
       id="path27" />
    <path
       style="opacity:1;fill:#000000;fill-opacity:0.49019608;stroke-width:11.10955811"
       inkscape:connector-curvature="0"
       d="M 511.63551,224.90351 C 510.08412,286.21516 486.47428,349.05812 440.66913,400.71799 342.95915,510.91711 180.91869,528.44584 78.725776,439.87129 30.827124,398.35563 4.4968216,340.92284 0.19382768,280.2288 0.79907934,346.58548 27.117411,410.48217 79.078682,455.51906 181.27159,544.09361 343.31975,526.55619 441.02202,416.36576 490.72697,360.30766 514.02704,291.0748 511.63551,224.90351 Z"
       id="path51" />
    <g
       style="fill:#000000;fill-opacity:0.49019608"
       id="g68"
       transform="translate(36.318372,32.619938)">
      <path
         sodipodi:nodetypes="ccccc"
         inkscape:connector-curvature="0"
         id="path64"
         d="M 170.51686,310.82016 H 308.3305 l 24.64959,67.59963 H 148.10815 Z"
         style="fill:#000000;fill-opacity:0.49019608;stroke:none;stroke-width:0.68860132px;stroke-linecap:butt;stroke-linejoin:miter;stroke-opacity:1" />
      <path
         inkscape:connector-curvature="0"
         id="path66"
         d="m 299.6251,87.384805 a 10.330052,10.330052 0 0 0 -0.72222,0.003 l -20.59887,0.52856 a 10.330052,10.330052 0 0 0 -10.06138,10.12324 l -2.11287,107.748625 a 10.330052,10.330052 0 0 0 0.70473,3.95945 l 65.69687,168.2366 c -0.16553,0.0521 -0.52049,0.13718 -0.52049,0.13718 a 10.330052,10.330052 0 0 0 -2.22315,-0.23805 l -181.4061,0.25823 60.68299,-169.19284 a 10.330052,10.330052 0 0 0 0.60656,-3.43628 L 210.19973,97.897045 A 10.330052,10.330052 0 0 0 199.8075,87.516915 l -21.65598,0.13181 a 10.330052,10.330052 0 1 0 0.12643,20.658035 l 11.21263,-0.0686 -0.46803,95.40356 -61.728,172.10459 a 10.330052,10.330052 0 0 0 -0.60655,3.3919 c 0,0 -0.3903,7.1902 4.93856,13.41831 5.3414,6.24275 14.27233,6.20414 14.27233,6.20414 l -0.94413,0.0444 183.47055,-0.26226 c 2.02287,0.6601 10.87709,2.98379 19.26873,-4.83904 7.53509,-7.02434 6.11133,-17.54857 6.11133,-17.54857 a 10.330052,10.330052 0 0 0 -0.52586,-1.83179 l -66.4554,-170.18001 1.87886,-95.82855 10.72981,-0.27571 a 10.330052,10.330052 0 0 0 0.19232,-20.654005 z"
         style="color:#000000;font-style:normal;font-variant:normal;font-weight:normal;font-stretch:normal;font-size:medium;line-height:normal;font-family:sans-serif;font-variant-ligatures:normal;font-variant-position:normal;font-variant-caps:normal;font-variant-numeric:normal;font-variant-alternates:normal;font-feature-settings:normal;text-indent:0;text-align:start;text-decoration:none;text-decoration-line:none;text-decoration-style:solid;text-decoration-color:#000000;letter-spacing:normal;word-spacing:normal;text-transform:none;writing-mode:lr-tb;direction:ltr;text-orientation:mixed;dominant-baseline:auto;baseline-shift:baseline;text-anchor:start;white-space:normal;shape-padding:0;clip-rule:nonzero;display:inline;overflow:visible;visibility:visible;opacity:1;isolation:auto;mix-blend-mode:normal;color-interpolation:sRGB;color-interpolation-filters:linearRGB;solid-color:#000000;solid-opacity:1;vector-effect:none;fill:#000000;fill-opacity:0.49019608;fill-rule:nonzero;stroke:none;stroke-width:20.65803909;stroke-linecap:round;stroke-linejoin:round;stroke-miterlimit:4;stroke-dasharray:none;stroke-dashoffset:0;stroke-opacity:1;color-rendering:auto;image-rendering:auto;shape-rendering:auto;text-rendering:auto;enable-background:accumulate" />
    </g>
    <g
       transform="translate(16.318372,12.619938)"
       id="g62">
      <path
         style="fill:#ffffff;fill-opacity:1;stroke:none;stroke-width:0.68860132px;stroke-linecap:butt;stroke-linejoin:miter;stroke-opacity:1"
         d="M 170.51686,310.82016 H 308.3305 l 24.64959,67.59963 H 148.10815 Z"
         id="path3774"
         inkscape:connector-curvature="0"
         sodipodi:nodetypes="ccccc" />
      <path
         style="color:#000000;font-style:normal;font-variant:normal;font-weight:normal;font-stretch:normal;font-size:medium;line-height:normal;font-family:sans-serif;font-variant-ligatures:normal;font-variant-position:normal;font-variant-caps:normal;font-variant-numeric:normal;font-variant-alternates:normal;font-feature-settings:normal;text-indent:0;text-align:start;text-decoration:none;text-decoration-line:none;text-decoration-style:solid;text-decoration-color:#000000;letter-spacing:normal;word-spacing:normal;text-transform:none;writing-mode:lr-tb;direction:ltr;text-orientation:mixed;dominant-baseline:auto;baseline-shift:baseline;text-anchor:start;white-space:normal;shape-padding:0;clip-rule:nonzero;display:inline;overflow:visible;visibility:visible;opacity:1;isolation:auto;mix-blend-mode:normal;color-interpolation:sRGB;color-interpolation-filters:linearRGB;solid-color:#000000;solid-opacity:1;vector-effect:none;fill:#ffffff;fill-opacity:1;fill-rule:nonzero;stroke:none;stroke-width:20.65803909;stroke-linecap:round;stroke-linejoin:round;stroke-miterlimit:4;stroke-dasharray:none;stroke-dashoffset:0;stroke-opacity:1;color-rendering:auto;image-rendering:auto;shape-rendering:auto;text-rendering:auto;enable-background:accumulate"
         d="m 299.6251,87.384805 a 10.330052,10.330052 0 0 0 -0.72222,0.003 l -20.59887,0.52856 a 10.330052,10.330052 0 0 0 -10.06138,10.12324 l -2.11287,107.748625 a 10.330052,10.330052 0 0 0 0.70473,3.95945 l 65.69687,168.2366 c -0.16553,0.0521 -0.52049,0.13718 -0.52049,0.13718 a 10.330052,10.330052 0 0 0 -2.22315,-0.23805 l -181.4061,0.25823 60.68299,-169.19284 a 10.330052,10.330052 0 0 0 0.60656,-3.43628 L 210.19973,97.897045 A 10.330052,10.330052 0 0 0 199.8075,87.516915 l -21.65598,0.13181 a 10.330052,10.330052 0 1 0 0.12643,20.658035 l 11.21263,-0.0686 -0.46803,95.40356 -61.728,172.10459 a 10.330052,10.330052 0 0 0 -0.60655,3.3919 c 0,0 -0.3903,7.1902 4.93856,13.41831 5.3414,6.24275 14.27233,6.20414 14.27233,6.20414 l -0.94413,0.0444 183.47055,-0.26226 c 2.02287,0.6601 10.87709,2.98379 19.26873,-4.83904 7.53509,-7.02434 6.11133,-17.54857 6.11133,-17.54857 a 10.330052,10.330052 0 0 0 -0.52586,-1.83179 l -66.4554,-170.18001 1.87886,-95.82855 10.72981,-0.27571 a 10.330052,10.330052 0 0 0 0.19232,-20.654005 z"
         id="path3803"
         inkscape:connector-curvature="0" />
    </g>
  </g>
</svg>
