<?xml version="1.0" encoding="UTF-8" standalone="no"?>
<!-- Created with Inkscape (http://www.inkscape.org/) -->

<svg
   xmlns:dc="http://purl.org/dc/elements/1.1/"
   xmlns:cc="http://creativecommons.org/ns#"
   xmlns:rdf="http://www.w3.org/1999/02/22-rdf-syntax-ns#"
   xmlns:svg="http://www.w3.org/2000/svg"
   xmlns="http://www.w3.org/2000/svg"
   xmlns:sodipodi="http://sodipodi.sourceforge.net/DTD/sodipodi-0.dtd"
   xmlns:inkscape="http://www.inkscape.org/namespaces/inkscape"
   id="svg2"
   version="1.1"
   inkscape:version="0.92.2 5c3e80d, 2017-08-06"
   width="512"
   height="512"
   sodipodi:docname="amarok-icon.svg">
  <metadata
     id="metadata8">
    <rdf:RDF>
      <cc:Work
         rdf:about="">
        <dc:format>image/svg+xml</dc:format>
        <dc:type
           rdf:resource="http://purl.org/dc/dcmitype/StillImage" />
        <dc:title></dc:title>
      </cc:Work>
    </rdf:RDF>
  </metadata>
  <defs
     id="defs6" />
  <sodipodi:namedview
     pagecolor="#ffffff"
     bordercolor="#666666"
     borderopacity="1"
     objecttolerance="10"
     gridtolerance="10"
     guidetolerance="10"
     inkscape:pageopacity="0"
     inkscape:pageshadow="2"
     inkscape:window-width="1366"
     inkscape:window-height="717"
     id="namedview4"
     showgrid="false"
     inkscape:zoom="0.3480826"
     inkscape:cx="14.014287"
     inkscape:cy="101.24208"
     inkscape:window-x="0"
     inkscape:window-y="24"
     inkscape:window-maximized="1"
     inkscape:current-layer="svg2" />
  <g
     id="g893">
    <path
       style="fill:#3689e6;fill-opacity:1;stroke-width:11.10955811"
       inkscape:connector-curvature="0"
       d="m 432.91333,56.47398 c 102.1928,88.57458 105.8267,249.69969 8.1168,359.89878 -97.71,110.19908 -259.75064,127.72785 -361.943448,39.15326 C -23.106168,366.95143 -26.740028,205.82631 70.969882,95.62724 168.67976,-14.57185 330.72033,-32.10062 432.91333,56.47398 Z"
       id="path911" />
    <path
       style="opacity:1;fill:#000000;fill-opacity:0.49019608;stroke-width:11.10955238"
       inkscape:connector-curvature="0"
       d="m 511.63503,224.90352 c -1.5514,61.31166 -25.1612,124.1546 -70.9663,175.81449 C 342.95883,510.9171 180.91854,528.44585 78.725732,439.87127 30.827122,398.35564 4.4968517,340.92283 0.19386172,280.22879 0.79911172,346.58547 27.117412,410.48219 79.078632,455.51904 181.27145,544.09362 343.31943,526.5562 441.02163,416.36578 c 49.7049,-56.05814 73.0049,-125.29097 70.6134,-191.46226 z"
       id="path913" />
    <path
       inkscape:connector-curvature="0"
       id="path856"
       d="m 227.69531,298.16016 -44.09961,21.72461 c 0,0 -13.69194,15.90604 -20.26172,23.13281 -6.56978,7.22677 -15.60351,10.40234 -15.60351,10.40234 0,0 18.0635,25.32753 26.00391,34.45508 5.4035,6.21136 13.45123,12.99761 18.09765,16.75 l 39.72852,-37.54102 z m -33.8164,108.10156 c 0.77211,0.6056 1.63476,1.2793 1.63476,1.2793 l 0.17188,-0.18946 c -0.68042,-0.38023 -1.27159,-0.74372 -1.80664,-1.08984 z"
       style="fill:#000000;fill-opacity:0.49019608;stroke:none;stroke-width:1.81033564" />
    <path
       inkscape:connector-curvature="0"
       id="path858"
       d="m 397.26172,133.03906 -25.25586,2.58985 1.16797,-1.06055 -10.82227,7.01367 -59.99023,40.45313 c 0,0 -29.239,4.96597 -44.58985,13.10156 -15.35083,8.1356 -31.2574,29.43195 -43.67187,36.77539 -12.41446,7.34345 -17.98742,4.33399 -26.89063,9.6543 -8.90321,5.32028 -14.44419,13.48903 -24.36523,22.0664 C 152.92271,272.21018 124,287.76562 124,287.76562 c 1e-5,0 7.81217,20.01443 34.70508,34.24805 6.68079,3.53595 13.31896,4.54476 19.52344,4.07031 2.46214,-2.8429 5.36718,-6.19921 5.36718,-6.19921 l 44.09961,-21.72461 3.86524,68.92187 17.21875,-16.27148 44.20703,-22.10547 37.70703,-87.76367 z m -92.51758,81.33985 c 0,0 -12.93082,8.05961 -16.25195,13.00195 -3.32114,4.94235 -4.22461,14.30273 -4.22461,14.30273 0,0 -15.40904,5.69503 -21.45508,10.72657 -6.04606,5.03153 -13.97656,18.52734 -13.97656,18.52734 0,0 -1.57338,-26.27521 8.125,-37.70508 9.69839,-11.42986 47.7832,-18.85351 47.7832,-18.85351 z m -146.375,72.5 c 3.99455,-0.0363 7.88083,0.17196 11.14453,0.79101 13.05478,2.47622 38.68164,17.87891 38.68164,17.87891 0,0 -35.61353,14.04133 -49.4082,9.75 -13.79467,-4.29133 -25.35352,-26.00391 -25.35352,-26.00391 0,-10e-6 12.95192,-2.30712 24.93555,-2.41601 z m 31.58398,116.19531 1.82422,1.60351 0.0547,-0.0527 c -0.54179,-0.43754 -1.25421,-1.03646 -1.87891,-1.55078 z"
       style="fill:#000000;fill-opacity:0.49019608;stroke:none;stroke-width:1.81033564" />
    <path
       inkscape:connector-curvature="0"
       id="path860"
       d="m 396.42773,130.98242 1.0918,1.63672 -66.82617,108.32227 -37.70703,87.76367 -44.20703,22.10547 -57.00196,53.86718 -0.72851,-0.64062 c -0.003,0.002 -0.0742,0.0566 -0.0742,0.0566 0,0 2.13917,2.0326 6.25781,4.07422 13.827,6.85408 48.29693,21.32079 84.75781,23.63672 36.46088,2.31592 83.71485,-16.66211 83.71485,-16.66211 l 0.23047,-7.58594 -21.60743,-4.36719 12.41211,-2.29883 -11.49218,-37.23437 7.125,8.73437 1.60937,-40.45312 1.63281,6.25 3.41407,-18.68945 4.0625,-8.61524 2.60156,4.87696 2.11133,-13.65235 4.22656,-3.57617 v -9.75195 l 2.92578,-6.98828 0.48633,-8.12696 6.50195,9.75196 v -21.77735 l 15.60352,-12.35351 27.79101,-17.06446 c 0,0 2.70793,-9.83259 1.625,-13.97851 -1.08292,-4.14592 -6.82617,-9.42578 -6.82617,-9.42578 0,0 -9.45707,9.65451 -17.22656,12.35156 -7.76949,2.69706 -28.11719,1.30078 -28.11719,1.30078 0,0 4.3759,-24.99371 9.10156,-37.05664 4.72566,-12.06294 19.17774,-34.61719 19.17774,-34.61719 l -3.73828,-17.7168 z"
       style="fill:#000000;fill-opacity:0.49019608;stroke:none;stroke-width:1.81033564" />
    <path
       style="fill:#000000;fill-opacity:0.49019608;stroke:none;stroke-width:1.81033564"
       d="M 372.00605,135.6297 399.38592,132.82053 389.2447,120 Z"
       id="path862"
       inkscape:connector-curvature="0"
       sodipodi:nodetypes="cccc" />
    <g
       transform="translate(-5.88365,-7.6141522)"
       id="g854">
      <path
         style="fill:#ffffff;stroke:none;stroke-width:1.81033564"
         d="m 133.61459,341.03377 c 0,0 18.064,25.32828 26.0044,34.45583 7.94041,9.12755 21.77867,19.66584 21.77867,19.66584 l 36.08111,-39.81924 -3.90066,-69.56176 -44.09923,21.72356 c 0,0 -13.69186,15.90725 -20.26164,23.13402 -6.56978,7.22677 -15.60265,10.40175 -15.60265,10.40175 z"
         id="path3771"
         inkscape:connector-curvature="0"
         sodipodi:nodetypes="czcccczc" />
      <path
         style="fill:#ffffff;fill-opacity:1;stroke:none;stroke-width:1.81033564"
         d="m 376.96729,110.57865 -28.73135,18.61844 -59.99093,40.45302 c 0,0 -29.23915,4.96597 -44.59,13.10156 -15.35083,8.1356 -31.25741,29.43166 -43.67188,36.7751 -12.41446,7.34345 -17.98783,4.33355 -26.89104,9.65386 -8.90321,5.32028 -14.44312,13.48877 -24.36416,22.06614 -9.92104,8.57737 -38.84428,24.13396 -38.84428,24.13396 1e-5,0 7.81303,20.01326 34.70594,34.24688 26.89292,14.23362 53.09552,-12.41094 53.09552,-12.41094 0,0 -3.59778,10.4119 -3.44771,16.08886 0.15012,5.67696 3.68691,9.21902 4.5974,17.00833 0.91049,7.78931 3.46839,19.09655 -0.91948,29.42062 -4.38788,10.32407 -26.43333,27.1226 -26.43333,27.1226 l 6.17906,5.43563 57.00229,-53.86875 44.20677,-22.10406 37.70677,-87.7649 66.82541,-108.3225 z m -86.33895,91.41437 c 0,0 -12.93158,8.06037 -16.25271,13.00271 -3.32114,4.94235 -4.225,14.30136 -4.225,14.30136 0,0 -15.40802,5.69617 -21.45406,10.72771 -6.04606,5.03153 -13.97771,18.5277 -13.97771,18.5277 0,0 -1.57203,-26.2769 8.12635,-37.70677 9.69839,-11.42986 47.78313,-18.85271 47.78313,-18.85271 z M 144.2524,274.49375 c 3.99455,-0.0363 7.8811,0.17178 11.1448,0.79083 13.05478,2.47622 38.68176,17.87771 38.68176,17.87771 0,0 -35.61345,14.04268 -49.40812,9.75135 -13.79467,-4.29133 -25.35406,-26.00405 -25.35406,-26.00405 0,-10e-6 12.95199,-2.30695 24.93562,-2.41584 z"
         id="path3765"
         inkscape:connector-curvature="0" />
      <path
         style="fill:#ffffff;stroke:none;stroke-width:1.81033564"
         d="m 351.58858,402.75602 0.22986,-7.58501 -21.60578,-4.36711 12.41182,-2.29849 -11.49243,-37.23548 7.12531,8.73426 1.60895,-40.45335 1.63321,6.25155 3.41308,-18.69067 4.06319,-8.61396 2.60044,4.87583 2.11286,-13.6523 4.22572,-3.57561 v -9.75164 l 2.92549,-6.9887 0.48759,-8.12635 6.5011,9.75164 v -21.77868 l 15.60263,-12.3521 27.7922,-17.06538 c 0,0 2.70821,-9.83145 1.62528,-13.97737 -1.08292,-4.14592 -6.82616,-9.42658 -6.82616,-9.42658 0,0 -9.45842,9.65503 -17.22791,12.35208 -7.76949,2.69706 -28.11726,1.30022 -28.11726,1.30022 0,0 4.37589,-24.99333 9.10155,-37.05626 4.72566,-12.06294 19.17824,-34.61837 19.17824,-34.61837 l -3.73814,-17.71549 -6.98868,-5.03834 c 0,0 -22.44224,34.80556 -35.3764,52.19643 -12.93416,17.39086 -29.88525,29.61696 -42.29214,51.94576 -12.40688,22.32881 -12.83667,64.9089 -28.04154,81.59625 -15.20486,16.68734 -30.65019,7.92087 -44.82046,20.22668 -14.17028,12.30581 -24.71319,42.52614 -33.93815,53.59125 -9.22496,11.06512 -16.90287,16.49656 -16.90287,16.49656 0,0 2.13897,2.03267 6.25761,4.07429 13.827,6.85408 48.2969,21.3207 84.75778,23.63663 36.46088,2.31592 83.71401,-16.66219 83.71401,-16.66219 z"
         id="path2993"
         inkscape:connector-curvature="0"
         sodipodi:nodetypes="cccccccccccccccccccczczczccczzzzzcszc" />
      <path
         style="fill:#ffffff;stroke:none;stroke-width:1.81033564"
         d="m 357.8897,123.24385 27.37987,-2.80917 -10.14122,-12.82053 z"
         id="path3775"
         inkscape:connector-curvature="0"
         sodipodi:nodetypes="cccc" />
    </g>
  </g>
</svg>
