<?xml version="1.0" encoding="UTF-8" standalone="no"?>
<!-- Created with Inkscape (http://www.inkscape.org/) -->

<svg
   xmlns:dc="http://purl.org/dc/elements/1.1/"
   xmlns:cc="http://creativecommons.org/ns#"
   xmlns:rdf="http://www.w3.org/1999/02/22-rdf-syntax-ns#"
   xmlns:svg="http://www.w3.org/2000/svg"
   xmlns="http://www.w3.org/2000/svg"
   xmlns:sodipodi="http://sodipodi.sourceforge.net/DTD/sodipodi-0.dtd"
   xmlns:inkscape="http://www.inkscape.org/namespaces/inkscape"
   id="svg2"
   version="1.1"
   inkscape:version="0.92.2 2405546, 2018-03-11"
   width="512"
   height="512"
   sodipodi:docname="aplication-x-executable.svg">
  <metadata
     id="metadata8">
    <rdf:RDF>
      <cc:Work
         rdf:about="">
        <dc:format>image/svg+xml</dc:format>
        <dc:type
           rdf:resource="http://purl.org/dc/dcmitype/StillImage" />
        <dc:title />
      </cc:Work>
    </rdf:RDF>
  </metadata>
  <defs
     id="defs6" />
  <sodipodi:namedview
     pagecolor="#ffffff"
     bordercolor="#666666"
     borderopacity="1"
     objecttolerance="10"
     gridtolerance="10"
     guidetolerance="10"
     inkscape:pageopacity="0"
     inkscape:pageshadow="2"
     inkscape:window-width="1366"
     inkscape:window-height="717"
     id="namedview4"
     showgrid="false"
     inkscape:zoom="0.32593203"
     inkscape:cx="361.72983"
     inkscape:cy="2.011203"
     inkscape:window-x="0"
     inkscape:window-y="24"
     inkscape:window-maximized="1"
     inkscape:current-layer="svg2" />
  <path
     sodipodi:type="arc"
     style="fill:#ffffff;fill-opacity:1;fill-rule:nonzero;stroke:#4169e1;stroke-width:0;stroke-linecap:round;stroke-linejoin:miter;stroke-miterlimit:4;stroke-opacity:1;stroke-dasharray:none"
     id="path3012"
     sodipodi:cx="278.77966"
     sodipodi:cy="273.35593"
     sodipodi:rx="137.76271"
     sodipodi:ry="134.50847"
     d="m 416.54237,273.35593 a 137.76271,134.50847 0 1 1 -275.52542,0 137.76271,134.50847 0 1 1 275.52542,0 z"
     transform="matrix(1.1612903,0,0,1.1612903,1152.07,-195.78458)" />
  <g
     id="g853">
    <path
       id="path1165"
       d="M 432.91328,56.474953 C 535.10618,145.04845 538.74005,306.17451 441.03006,416.37298 343.32007,526.57151 181.27962,544.10041 79.086743,455.52692 -23.106206,366.95111 -26.740033,205.82737 70.969944,95.626583 168.67988,-14.571877 330.72033,-32.100857 432.91328,56.474953 Z"
       inkscape:connector-curvature="0"
       style="fill:#c6262e;fill-opacity:1;stroke-width:11.10954762" />
    <path
       id="path1167"
       d="M 511.63552,224.90399 C 510.08416,286.21586 486.47428,349.05908 440.66913,400.71744 342.95911,510.91591 180.91867,528.44491 78.725762,439.8714 30.827125,398.35526 4.4968196,340.92294 0.19382737,280.2278 0.79908097,346.58519 27.117406,410.48266 79.078693,455.51761 c 102.192877,88.5758 264.241027,71.0376 361.943337,-39.15162 49.70494,-56.05923 73.00501,-125.29079 70.61349,-191.462 z"
       inkscape:connector-curvature="0"
       style="opacity:1;fill:#000000;fill-opacity:0.49019608;stroke-width:11.10954762" />
    <path
       inkscape:connector-curvature="0"
       style="fill:#000000;fill-opacity:0.49019608;stroke-width:1.37342501"
       d="m 416.69141,120.00318 c -0.11764,-0.0137 -0.24222,0.006 -0.375,0.043 -1.23795,0.34732 -38.28037,7.74741 -82.31641,16.44335 l -80.06641,15.81055 v 57.16406 57.16407 l 38.79493,-0.84961 c 21.33744,-0.46778 58.37983,-0.84961 82.3164,-0.84961 h 43.52149 v -72.75781 c 0,-64.38291 -0.11053,-71.96313 -1.875,-72.16797 z m -184.99219,36.88476 c -0.91098,0 -23.31675,4.34093 -49.79102,9.64649 -26.47428,5.30554 -48.30228,9.64648 -48.50586,9.64648 -0.20357,0 -0.37109,20.54724 -0.37109,45.66016 v 45.66015 l 24.11719,-0.004 c 13.26386,-0.002 35.83714,-0.38353 50.16211,-0.84766 l 26.04492,-0.84375 v -54.45898 c 0,-43.56199 -0.33135,-54.45899 -1.65625,-54.45899 z M 133,284.6438 l 0.33789,45.74805 0.33789,45.74804 49.51758,9.70704 49.51953,9.70898 0.33399,-54.58203 c 0.18452,-30.01971 0.18452,-54.71113 0,-54.86914 -0.18454,-0.15801 -22.77061,-0.55022 -50.19141,-0.87305 z m 120.93359,1.3457 v 56.90235 56.9043 l 7.39649,1.53906 c 4.06759,0.84604 40.09599,8.0597 80.06445,16.03125 39.96845,7.97152 73.68393,14.55576 74.92188,14.63086 2.11845,0.12858 2.25,-4.09194 2.25,-71.74414 v -71.88086 l -35.04883,-0.7793 c -19.27682,-0.42828 -56.31922,-0.9644 -82.31641,-1.19141 z m 76.66211,7.33594 c 1.19259,-0.0216 2.70257,-0.0121 4.65039,0.01 l 7.09766,0.0801 1.10937,0.73437 c 1.91008,1.26485 2.14196,2.05073 2.5918,8.8125 0.21774,3.27305 0.4547,6.20601 0.52735,6.51758 0.10229,0.4385 0.68828,0.76176 2.58984,1.42578 1.35115,0.47182 3.51318,1.38943 4.80664,2.03906 1.29347,0.64961 2.45732,1.17969 2.58398,1.17969 0.1267,0 2.20169,-1.8099 4.61329,-4.02344 2.41156,-2.21353 4.83164,-4.25792 5.37695,-4.54297 1.28901,-0.67379 3.20748,-0.66876 4.61719,0.0137 0.66932,0.32401 2.94297,2.39308 5.79882,5.27734 4.9022,4.95098 5.28916,5.51755 5.29297,7.75977 0.002,1.58586 -0.70351,2.62763 -4.91797,7.24804 -2.29155,2.51227 -4.16601,4.67449 -4.16601,4.80469 0,0.13018 0.5971,1.48207 1.32812,3.00586 0.73104,1.5238 1.60299,3.6577 1.9375,4.74219 0.41561,1.34726 0.77739,2.0441 1.14258,2.19922 0.29395,0.12486 3.24921,0.39634 6.56641,0.60351 6.58308,0.41115 7.64433,0.68198 8.74804,2.23438 1.04341,1.46753 1.1646,2.56812 1.07422,9.73828 l -0.0879,6.85937 -0.80468,1.14453 c -1.43811,2.04491 -1.80223,2.15039 -9.10547,2.62696 -3.56854,0.23286 -6.55047,0.486 -6.62696,0.5625 -0.0765,0.0765 -0.51942,1.2157 -0.98437,2.5332 -0.46497,1.31751 -1.37872,3.45838 -2.03125,4.75781 -0.65253,1.29942 -1.15041,2.52284 -1.10547,2.71875 0.0449,0.19591 1.82589,2.25863 3.95703,4.58203 2.13114,2.32342 4.14585,4.75799 4.47656,5.41016 0.70243,1.38527 0.76679,2.85178 0.1875,4.23828 -0.51126,1.22358 -9.18913,10.04367 -10.59961,10.77344 -1.17937,0.61019 -3.32803,0.67519 -4.5625,0.13867 -0.47293,-0.20557 -2.84249,-2.18935 -5.26757,-4.4082 -2.42511,-2.21887 -4.60213,-4.0345 -4.83789,-4.03516 -0.23573,-4.7e-4 -1.60323,0.54674 -3.03711,1.2168 -1.43391,0.67007 -3.55774,1.53285 -4.72071,1.91601 -1.60739,0.52958 -2.14553,0.83054 -2.24414,1.25391 -0.0714,0.30631 -0.30765,3.23477 -0.52539,6.50781 -0.47893,7.19895 -0.75489,7.97864 -3.26172,9.24805 -0.7269,0.36808 -1.92857,0.43076 -8.01562,0.42187 -5.38727,-0.008 -7.36178,-0.098 -7.96485,-0.36718 -1.03748,-0.46308 -2.14039,-1.64831 -2.63281,-2.82813 -0.25377,-0.60807 -0.50776,-2.94639 -0.72461,-6.68164 -0.18344,-3.15997 -0.42334,-5.99671 -0.53515,-6.30469 -0.14828,-0.40852 -0.8745,-0.79474 -2.68164,-1.42578 -1.36239,-0.47575 -3.41341,-1.33436 -4.5586,-1.91015 -1.14519,-0.57578 -2.33177,-1.04688 -2.63672,-1.04688 -0.34201,0 -2.21275,1.52131 -4.88281,3.9707 -2.38062,2.18386 -4.7132,4.16697 -5.18359,4.40821 -0.96819,0.49654 -3.14657,0.57709 -4.27149,0.1582 -0.89446,-0.33307 -10.35621,-9.65653 -10.96289,-10.80273 -0.60173,-1.13684 -0.53837,-3.2644 0.13672,-4.55274 0.30733,-0.58645 2.30851,-2.96278 4.44727,-5.28125 2.30231,-2.49573 3.88867,-4.43393 3.88867,-4.75 0,-0.29361 -0.47111,-1.47005 -1.04688,-2.61523 -0.57581,-1.1452 -1.43276,-3.19098 -1.90625,-4.54688 -0.47349,-1.35591 -1.05618,-2.56673 -1.29297,-2.68945 -0.23675,-0.12272 -3.01581,-0.36486 -6.17578,-0.53906 -3.67506,-0.2026 -6.14766,-0.46057 -6.86328,-0.7168 -1.36369,-0.48826 -2.93428,-2.16006 -3.15625,-3.35938 -0.09,-0.48644 -0.12703,-4.0915 -0.082,-8.00976 l 0.082,-7.12305 0.81836,-1.02734 c 1.44705,-1.81377 2.12736,-1.99479 9.03906,-2.41992 3.91202,-0.24062 6.29077,-0.49565 6.48829,-0.69532 0.17153,-0.17338 0.75775,-1.51853 1.30273,-2.98828 0.54497,-1.46976 1.39652,-3.48035 1.89258,-4.46875 0.49605,-0.98842 0.90039,-2.01574 0.90039,-2.28125 0,-0.26553 -1.63487,-2.27703 -3.63477,-4.4707 -1.99989,-2.19368 -3.91377,-4.35353 -4.25195,-4.80078 -0.95108,-1.25789 -1.27275,-2.81581 -0.89648,-4.3418 0.28415,-1.15222 0.80579,-1.7781 5.15234,-6.18359 2.65926,-2.69534 5.28086,-5.12925 5.82617,-5.41016 1.26543,-0.65189 3.27676,-0.66208 4.5332,-0.0215 0.52905,0.26973 2.85041,2.22512 5.15821,4.34375 2.3078,2.11862 4.35184,3.94029 4.54297,4.04883 0.20139,0.11437 1.44435,-0.3225 2.95703,-1.03907 1.43535,-0.67992 3.58388,-1.56391 4.77343,-1.96484 1.61292,-0.5436 2.23825,-0.89005 2.46094,-1.36524 0.16423,-0.35046 0.44694,-3.22284 0.62695,-6.38281 0.34621,-6.07717 0.55353,-7.03935 1.80665,-8.34765 1.04545,-1.09148 1.75816,-1.43117 5.33593,-1.4961 z m 4.35742,32.44336 c -4.10104,-0.0179 -4.95532,0.0559 -6.94726,0.59961 -9.94582,2.71515 -17.55235,10.70729 -19.63086,20.625 -1.86745,8.9105 0.86182,18.00534 7.36719,24.54297 3.40617,3.42304 7.82719,5.93425 12.61523,7.16797 1.3653,0.3518 3.30297,0.62418 6.0625,0.84961 0.22044,0.018 1.54319,-0.0881 2.93946,-0.23438 6.46037,-0.67707 11.85782,-3.25314 16.45312,-7.85351 3.5024,-3.50625 5.76227,-7.44052 7.12305,-12.40039 0.85308,-3.10938 0.84829,-9.97571 -0.01,-13.12305 -2.6028,-9.55127 -9.44044,-16.58232 -18.89062,-19.42774 -2.20201,-0.663 -2.80041,-0.72739 -7.08204,-0.74609 z m -0.21093,10.60352 c 4.07081,-0.0238 8.13127,1.50952 11.23437,4.60351 5.11178,5.09676 6.33877,12.34615 3.16602,18.70899 -2.70239,5.4195 -7.68102,8.61623 -13.78711,8.85547 -2.07876,0.0815 -3.10642,-0.0125 -4.62305,-0.42383 -6.81396,-1.848 -11.58364,-7.64602 -12.00586,-14.59766 -0.2952,-4.8605 1.26912,-8.97419 4.72071,-12.41211 3.14291,-3.13051 7.22411,-4.71057 11.29492,-4.73437 z m -0.57617,6.6582 c -2.34691,0.0466 -3.93452,0.7377 -5.80079,2.44336 -2.70417,2.47147 -3.78064,5.90861 -2.91211,9.29883 0.75176,2.93441 2.34443,4.92563 5.02344,6.2832 2.49926,1.26646 5.07254,1.37225 7.87891,0.32227 1.88202,-0.70416 4.12618,-2.79017 5.07031,-4.71289 0.66623,-1.35676 0.748,-1.80895 0.74805,-4.19336 6e-5,-2.53653 -0.0468,-2.758 -0.91602,-4.36133 -1.75479,-3.23645 -4.35921,-4.87704 -8.03711,-5.0625 -0.36931,-0.0186 -0.71941,-0.0242 -1.05468,-0.0176 z"
       id="path847" />
    <path
       id="path2984"
       d="M 396.69141 100.00391 C 396.57377 99.99025 396.44919 100.00962 396.31641 100.04688 C 395.07846 100.3942 358.03604 107.79429 314 116.49023 L 233.93359 132.30078 L 233.93359 189.46484 L 233.93359 246.62891 L 272.72852 245.7793 C 294.06596 245.31152 331.10835 244.92969 355.04492 244.92969 L 398.56641 244.92969 L 398.56641 172.17188 C 398.56641 107.78897 398.45588 100.20875 396.69141 100.00391 z M 211.69922 136.88867 C 210.78824 136.88867 188.38247 141.2296 161.9082 146.53516 C 135.43392 151.8407 113.60592 156.18164 113.40234 156.18164 C 113.19877 156.18164 113.03125 176.72888 113.03125 201.8418 L 113.03125 247.50195 L 137.14844 247.49805 C 150.4123 247.4962 172.98558 247.11452 187.31055 246.65039 L 213.35547 245.80664 L 213.35547 191.34766 C 213.35547 147.78567 213.02412 136.88867 211.69922 136.88867 z M 113 264.64453 L 113.33789 310.39258 L 113.67578 356.14062 L 163.19336 365.84766 L 212.71289 375.55664 L 213.04688 320.97461 C 213.2314 290.9549 213.2314 266.26348 213.04688 266.10547 C 212.86234 265.94746 190.27627 265.55525 162.85547 265.23242 L 113 264.64453 z M 233.93359 265.99023 L 233.93359 322.89258 L 233.93359 379.79688 L 241.33008 381.33594 C 245.39767 382.18198 281.42607 389.39564 321.39453 397.36719 C 361.36298 405.33871 395.07846 411.92295 396.31641 411.99805 C 398.43486 412.12663 398.56641 407.90611 398.56641 340.25391 L 398.56641 268.37305 L 363.51758 267.59375 C 344.24076 267.16547 307.19836 266.62935 281.20117 266.40234 L 233.93359 265.99023 z M 310.5957 273.32617 C 311.78829 273.30453 313.29827 273.31409 315.24609 273.33594 L 322.34375 273.41602 L 323.45312 274.15039 C 325.3632 275.41524 325.59508 276.20112 326.04492 282.96289 C 326.26266 286.23594 326.49962 289.1689 326.57227 289.48047 C 326.67456 289.91897 327.26055 290.24223 329.16211 290.90625 C 330.51326 291.37807 332.67529 292.29568 333.96875 292.94531 C 335.26222 293.59492 336.42607 294.125 336.55273 294.125 C 336.67943 294.125 338.75442 292.3151 341.16602 290.10156 C 343.57758 287.88803 345.99766 285.84364 346.54297 285.55859 C 347.83198 284.8848 349.75045 284.88983 351.16016 285.57227 C 351.82948 285.89628 354.10313 287.96535 356.95898 290.84961 C 361.86118 295.80059 362.24814 296.36716 362.25195 298.60938 C 362.25395 300.19524 361.54844 301.23701 357.33398 305.85742 C 355.04243 308.36969 353.16797 310.53191 353.16797 310.66211 C 353.16797 310.79229 353.76507 312.14418 354.49609 313.66797 C 355.22713 315.19177 356.09908 317.32567 356.43359 318.41016 C 356.8492 319.75742 357.21098 320.45426 357.57617 320.60938 C 357.87012 320.73424 360.82538 321.00572 364.14258 321.21289 C 370.72566 321.62404 371.78691 321.89487 372.89062 323.44727 C 373.93403 324.9148 374.05522 326.01539 373.96484 333.18555 L 373.87695 340.04492 L 373.07227 341.18945 C 371.63416 343.23436 371.27004 343.33984 363.9668 343.81641 C 360.39826 344.04927 357.41633 344.30241 357.33984 344.37891 C 357.26334 344.45541 356.82042 345.59461 356.35547 346.91211 C 355.8905 348.22962 354.97675 350.37049 354.32422 351.66992 C 353.67169 352.96934 353.17381 354.19276 353.21875 354.38867 C 353.26365 354.58458 355.04464 356.6473 357.17578 358.9707 C 359.30692 361.29412 361.32163 363.72869 361.65234 364.38086 C 362.35477 365.76613 362.41913 367.23264 361.83984 368.61914 C 361.32858 369.84272 352.65071 378.66281 351.24023 379.39258 C 350.06086 380.00277 347.9122 380.06777 346.67773 379.53125 C 346.2048 379.32568 343.83524 377.3419 341.41016 375.12305 C 338.98505 372.90418 336.80803 371.08855 336.57227 371.08789 C 336.33654 371.08742 334.96904 371.63463 333.53516 372.30469 C 332.10125 372.97476 329.97742 373.83754 328.81445 374.2207 C 327.20706 374.75028 326.66892 375.05124 326.57031 375.47461 C 326.49891 375.78092 326.26266 378.70938 326.04492 381.98242 C 325.56599 389.18137 325.29003 389.96106 322.7832 391.23047 C 322.0563 391.59855 320.85463 391.66123 314.76758 391.65234 C 309.38031 391.64434 307.4058 391.55437 306.80273 391.28516 C 305.76525 390.82208 304.66234 389.63685 304.16992 388.45703 C 303.91615 387.84896 303.66216 385.51064 303.44531 381.77539 C 303.26187 378.61542 303.02197 375.77868 302.91016 375.4707 C 302.76188 375.06218 302.03566 374.67596 300.22852 374.04492 C 298.86613 373.56917 296.81511 372.71056 295.66992 372.13477 C 294.52473 371.55899 293.33815 371.08789 293.0332 371.08789 C 292.69119 371.08789 290.82045 372.6092 288.15039 375.05859 C 285.76977 377.24245 283.43719 379.22556 282.9668 379.4668 C 281.99861 379.96334 279.82023 380.04389 278.69531 379.625 C 277.80085 379.29193 268.3391 369.96847 267.73242 368.82227 C 267.13069 367.68543 267.19405 365.55787 267.86914 364.26953 C 268.17647 363.68308 270.17765 361.30675 272.31641 358.98828 C 274.61872 356.49255 276.20508 354.55435 276.20508 354.23828 C 276.20508 353.94467 275.73397 352.76823 275.1582 351.62305 C 274.58239 350.47785 273.72544 348.43207 273.25195 347.07617 C 272.77846 345.72026 272.19577 344.50944 271.95898 344.38672 C 271.72223 344.264 268.94317 344.02186 265.7832 343.84766 C 262.10814 343.64506 259.63554 343.38709 258.91992 343.13086 C 257.55623 342.6426 255.98564 340.9708 255.76367 339.77148 C 255.67367 339.28504 255.63664 335.67998 255.68164 331.76172 L 255.76367 324.63867 L 256.58203 323.61133 C 258.02908 321.79756 258.70939 321.61654 265.62109 321.19141 C 269.53311 320.95079 271.91186 320.69576 272.10938 320.49609 C 272.28091 320.32271 272.86713 318.97756 273.41211 317.50781 C 273.95708 316.03805 274.80863 314.02746 275.30469 313.03906 C 275.80074 312.05064 276.20508 311.02332 276.20508 310.75781 C 276.20508 310.49228 274.57021 308.48078 272.57031 306.28711 C 270.57042 304.09343 268.65654 301.93358 268.31836 301.48633 C 267.36728 300.22844 267.04561 298.67052 267.42188 297.14453 C 267.70603 295.99231 268.22767 295.36643 272.57422 290.96094 C 275.23348 288.2656 277.85508 285.83169 278.40039 285.55078 C 279.66582 284.89889 281.67715 284.8887 282.93359 285.5293 C 283.46264 285.79903 285.784 287.75442 288.0918 289.87305 C 290.3996 291.99167 292.44364 293.81334 292.63477 293.92188 C 292.83616 294.03625 294.07912 293.59938 295.5918 292.88281 C 297.02715 292.20289 299.17568 291.3189 300.36523 290.91797 C 301.97815 290.37437 302.60348 290.02792 302.82617 289.55273 C 302.9904 289.20227 303.27311 286.32989 303.45312 283.16992 C 303.79933 277.09275 304.00665 276.13057 305.25977 274.82227 C 306.30522 273.73079 307.01793 273.3911 310.5957 273.32617 z M 314.95312 305.76953 C 310.85208 305.75163 309.9978 305.82539 308.00586 306.36914 C 298.06004 309.08429 290.45351 317.07643 288.375 326.99414 C 286.50755 335.90464 289.23682 344.99948 295.74219 351.53711 C 299.14836 354.96015 303.56938 357.47136 308.35742 358.70508 C 309.72272 359.05688 311.66039 359.32926 314.41992 359.55469 C 314.64036 359.57269 315.96311 359.46662 317.35938 359.32031 C 323.81975 358.64324 329.2172 356.06717 333.8125 351.4668 C 337.3149 347.96055 339.57477 344.02628 340.93555 339.06641 C 341.78863 335.95703 341.78384 329.0907 340.92578 325.94336 C 338.32298 316.39209 331.48534 309.36104 322.03516 306.51562 C 319.83315 305.85262 319.23475 305.78823 314.95312 305.76953 z M 314.74219 316.37305 C 318.813 316.34925 322.87346 317.88257 325.97656 320.97656 C 331.08834 326.07332 332.31533 333.32271 329.14258 339.68555 C 326.44019 345.10505 321.46156 348.30178 315.35547 348.54102 C 313.27671 348.62252 312.24905 348.52848 310.73242 348.11719 C 303.91846 346.26919 299.14878 340.47117 298.72656 333.51953 C 298.43136 328.65903 299.99568 324.54534 303.44727 321.10742 C 306.59018 317.97691 310.67138 316.39685 314.74219 316.37305 z M 314.16602 323.03125 C 311.81911 323.07788 310.2315 323.76895 308.36523 325.47461 C 305.66106 327.94608 304.58459 331.38322 305.45312 334.77344 C 306.20488 337.70785 307.79755 339.69907 310.47656 341.05664 C 312.97582 342.3231 315.5491 342.42889 318.35547 341.37891 C 320.23749 340.67475 322.48165 338.58874 323.42578 336.66602 C 324.09201 335.30926 324.17378 334.85707 324.17383 332.47266 C 324.17389 329.93613 324.12707 329.71466 323.25781 328.11133 C 321.50302 324.87488 318.8986 323.23429 315.2207 323.04883 C 314.85139 323.03021 314.50129 323.02459 314.16602 323.03125 z "
       style="fill:#ffffff;fill-opacity:1;stroke-width:1.37342501" />
  </g>
</svg>
