<?xml version="1.0" encoding="UTF-8" standalone="no"?>
<!-- Created with Inkscape (http://www.inkscape.org/) -->

<svg
   xmlns:dc="http://purl.org/dc/elements/1.1/"
   xmlns:cc="http://creativecommons.org/ns#"
   xmlns:rdf="http://www.w3.org/1999/02/22-rdf-syntax-ns#"
   xmlns:svg="http://www.w3.org/2000/svg"
   xmlns="http://www.w3.org/2000/svg"
   xmlns:sodipodi="http://sodipodi.sourceforge.net/DTD/sodipodi-0.dtd"
   xmlns:inkscape="http://www.inkscape.org/namespaces/inkscape"
   id="svg2"
   version="1.1"
   inkscape:version="0.92.2 2405546, 2018-03-11"
   width="512"
   height="512"
   sodipodi:docname="aptdaemon-download.svg">
  <metadata
     id="metadata8">
    <rdf:RDF>
      <cc:Work
         rdf:about="">
        <dc:format>image/svg+xml</dc:format>
        <dc:type
           rdf:resource="http://purl.org/dc/dcmitype/StillImage" />
        <dc:title></dc:title>
      </cc:Work>
    </rdf:RDF>
  </metadata>
  <defs
     id="defs6" />
  <sodipodi:namedview
     pagecolor="#ffffff"
     bordercolor="#666666"
     borderopacity="1"
     objecttolerance="10"
     gridtolerance="10"
     guidetolerance="10"
     inkscape:pageopacity="0"
     inkscape:pageshadow="2"
     inkscape:window-width="1366"
     inkscape:window-height="717"
     id="namedview4"
     showgrid="false"
     inkscape:zoom="0.16296602"
     inkscape:cx="-624.24008"
     inkscape:cy="458.04867"
     inkscape:window-x="0"
     inkscape:window-y="24"
     inkscape:window-maximized="1"
     inkscape:current-layer="svg2" />
  <g
     id="g844">
    <path
       style="fill:#3689e6;fill-opacity:1;stroke-width:11.10955238"
       inkscape:connector-curvature="0"
       d="M 432.91336,56.473967 C 535.10616,145.04856 538.74002,306.17367 441.03015,416.37276 343.32009,526.57184 181.27947,544.10061 79.086668,455.52602 -23.106173,366.95143 -26.740033,205.82631 70.969876,95.627227 168.67975,-14.571854 330.72029,-32.100623 432.91336,56.473967 Z"
       id="path911" />
    <path
       style="opacity:1;stroke-width:11.10955238;fill:#000000;fill-opacity:0.49019608"
       inkscape:connector-curvature="0"
       d="m 511.635,224.90352 c -1.5514,61.31166 -25.16121,124.1546 -70.96631,175.81449 C 342.95882,510.9171 180.91852,528.44585 78.725714,439.87127 30.82711,398.35564 4.4968351,340.92283 0.19384574,280.22879 0.79909653,346.58547 27.117401,410.48219 79.078618,455.51904 181.27143,544.09362 343.31941,526.5562 441.02159,416.36578 490.72648,360.30764 514.02654,291.07481 511.635,224.90352 Z"
       id="path913" />
    <path
       style="fill:#000000;stroke-width:0.19796944;fill-opacity:0.49019608"
       d="M 152.74443,430.81378 C 137.17366,429.42299 124.11839,417.85208 120.82269,402.52149 120.04191,398.88955 120,397.32566 120,371.81524 v -24.72521 h 11.97202 11.97205 l 0.0548,25.09262 0.0544,25.09263 0.46193,1.28681 c 0.73644,2.05153 1.57746,3.35845 3.18493,4.94926 1.5747,1.55837 3.01157,2.40347 5.27285,3.10132 1.1359,0.35037 5.40166,0.36322 122.92784,0.36322 115.647,0 121.81496,-0.0189 123.01382,-0.34885 4.11522,-1.137 7.43826,-4.42232 8.67662,-8.57817 0.32315,-1.08465 0.35263,-2.97657 0.40739,-26.06423 l 0.059,-24.89465 h 11.9713 11.9713 l -0.002,24.30074 c -0.002,14.77806 -0.0805,25.18911 -0.2022,26.56773 -0.42629,4.81626 -1.55652,8.77656 -3.76002,13.17464 -1.87975,3.75194 -3.53325,6.01588 -6.72464,9.20727 -3.1914,3.1914 -5.45533,4.8449 -9.20723,6.72465 -4.44422,2.2266 -8.45917,3.36284 -13.29987,3.76392 -2.86983,0.23773 -243.39404,0.22299 -246.05996,-0.0151 z m 120.17392,-64.2777 c -2.94893,-0.9981 -6.35753,-3.39266 -11.46926,-8.05728 -4.16239,-3.79827 -93.32143,-93.06005 -95.11931,-95.2289 -4.58476,-5.5307 -5.4737,-8.56422 -3.00941,-10.26947 0.9583,-0.66311 2.10447,-1.05324 4.28333,-1.45791 1.59696,-0.29669 4.29925,-0.3394 25.10054,-0.39772 l 23.31089,-0.0654 v -49.17762 c 0,-53.41221 -0.0431,-51.18902 1.07977,-55.61583 3.74207,-14.75172 16.20505,-25.49404 31.35867,-27.02921 2.79534,-0.28309 52.28745,-0.28384 55.09249,-7.6e-4 17.13028,1.72895 30.48481,15.16562 32.23122,32.42956 0.13833,1.36838 0.20749,18.23879 0.20749,50.72969 v 48.67952 h 22.18048 c 13.9698,0 22.89216,0.076 24.10293,0.2056 3.86369,0.41322 6.25299,1.28081 7.20486,2.61623 0.75357,1.05717 0.64778,2.65621 -0.30311,4.57988 -1.35602,2.74371 -3.4523,5.23283 -10.02186,11.90003 -15.7811,16.01571 -84.00026,84.42713 -86.91397,87.1589 -5.99221,5.61815 -9.68646,8.23037 -13.05357,9.23028 -1.73964,0.51663 -4.339,0.42131 -6.26221,-0.22942 z"
       id="path838"
       inkscape:connector-curvature="0" />
    <path
       inkscape:connector-curvature="0"
       id="path919"
       d="m 132.74434,410.17667 c -15.57077,-1.39079 -28.62604,-12.9617 -31.92174,-28.29229 -0.78078,-3.63194 -0.822694,-5.19583 -0.822694,-30.70625 v -24.72521 h 11.972024 11.97205 l 0.0548,25.09262 0.0544,25.09263 0.46193,1.28681 c 0.73644,2.05153 1.57746,3.35845 3.18493,4.94926 1.5747,1.55837 3.01157,2.40347 5.27285,3.10132 1.1359,0.35037 5.40166,0.36322 122.92784,0.36322 115.647,0 121.81496,-0.0189 123.01382,-0.34885 4.11522,-1.137 7.43826,-4.42232 8.67662,-8.57817 0.32315,-1.08465 0.35263,-2.97657 0.40739,-26.06423 l 0.059,-24.89465 h 11.9713 11.9713 l -0.002,24.30074 c -0.002,14.77806 -0.0805,25.18911 -0.2022,26.56773 -0.42629,4.81626 -1.55652,8.77656 -3.76002,13.17464 -1.87975,3.75194 -3.53325,6.01588 -6.72464,9.20727 -3.1914,3.1914 -5.45533,4.8449 -9.20723,6.72465 -4.44422,2.2266 -8.45917,3.36284 -13.29987,3.76392 -2.86983,0.23773 -243.39404,0.22299 -246.05996,-0.0151 z m 120.17392,-64.2777 c -2.94893,-0.9981 -6.35753,-3.39266 -11.46926,-8.05728 -4.16239,-3.79827 -93.32143,-93.06005 -95.11931,-95.2289 -4.58476,-5.5307 -5.4737,-8.56422 -3.00941,-10.26947 0.9583,-0.66311 2.10447,-1.05324 4.28333,-1.45791 1.59696,-0.29669 4.29925,-0.3394 25.10054,-0.39772 l 23.31089,-0.0654 v -49.17762 c 0,-53.41221 -0.0431,-51.18902 1.07977,-55.61583 3.74207,-14.75172 16.20505,-25.49404 31.35867,-27.029213 2.79534,-0.283087 52.28745,-0.283843 55.09249,-7.56e-4 17.13028,1.728949 30.48481,15.165619 32.23122,32.429559 0.13833,1.36838 0.20749,18.23879 0.20749,50.72969 v 48.67952 h 22.18048 c 13.9698,0 22.89216,0.076 24.10293,0.2056 3.86369,0.41322 6.25299,1.28081 7.20486,2.61623 0.75357,1.05717 0.64778,2.65621 -0.30311,4.57988 -1.35602,2.74371 -3.4523,5.23283 -10.02186,11.90003 -15.7811,16.01571 -84.00026,84.42713 -86.91397,87.1589 -5.99221,5.61815 -9.68646,8.23037 -13.05357,9.23028 -1.73964,0.51663 -4.339,0.42131 -6.26221,-0.22942 z"
       style="fill:#ffffff;stroke-width:0.19796944" />
  </g>
</svg>
