<?xml version="1.0" encoding="UTF-8" standalone="no"?>
<!-- Created with Inkscape (http://www.inkscape.org/) -->

<svg
   xmlns:dc="http://purl.org/dc/elements/1.1/"
   xmlns:cc="http://creativecommons.org/ns#"
   xmlns:rdf="http://www.w3.org/1999/02/22-rdf-syntax-ns#"
   xmlns:svg="http://www.w3.org/2000/svg"
   xmlns="http://www.w3.org/2000/svg"
   xmlns:sodipodi="http://sodipodi.sourceforge.net/DTD/sodipodi-0.dtd"
   xmlns:inkscape="http://www.inkscape.org/namespaces/inkscape"
   id="svg2"
   version="1.1"
   inkscape:version="0.92.2 2405546, 2018-03-11"
   width="512"
   height="512"
   sodipodi:docname="aqsis.svg">
  <metadata
     id="metadata8">
    <rdf:RDF>
      <cc:Work
         rdf:about="">
        <dc:format>image/svg+xml</dc:format>
        <dc:type
           rdf:resource="http://purl.org/dc/dcmitype/StillImage" />
        <dc:title></dc:title>
      </cc:Work>
    </rdf:RDF>
  </metadata>
  <defs
     id="defs6" />
  <sodipodi:namedview
     pagecolor="#ffffff"
     bordercolor="#666666"
     borderopacity="1"
     objecttolerance="10"
     gridtolerance="10"
     guidetolerance="10"
     inkscape:pageopacity="0"
     inkscape:pageshadow="2"
     inkscape:window-width="1188"
     inkscape:window-height="679"
     id="namedview4"
     showgrid="false"
     inkscape:zoom="0.5"
     inkscape:cx="69.086278"
     inkscape:cy="445.18003"
     inkscape:window-x="38"
     inkscape:window-y="36"
     inkscape:window-maximized="0"
     inkscape:current-layer="svg2" />
  <g
     id="g888">
    <path
       style="fill:#3689e6;fill-opacity:1;stroke-width:11.10955715"
       inkscape:connector-curvature="0"
       d="M 432.91328,56.473985 C 535.10618,145.04857 538.74004,306.17368 441.03008,416.37276 343.32011,526.57184 181.27963,544.10061 79.086725,455.52602 -23.10618,366.95144 -26.740045,205.82632 70.969926,95.627248 168.67989,-14.57184 330.72037,-32.100602 432.91328,56.473985 Z"
       id="path941" />
    <path
       style="opacity:1;fill:#000000;fill-opacity:0.49019608;stroke-width:11.10955715"
       inkscape:connector-curvature="0"
       d="M 511.63551,224.90352 C 510.08412,286.21517 486.47428,349.05814 440.66913,400.718 342.95916,510.91712 180.91868,528.44585 78.725781,439.8713 30.82711,398.35565 4.4968433,340.92285 0.19381353,280.22882 0.79906703,346.58548 27.117428,410.48219 79.078675,455.51907 181.27158,544.09362 343.31973,526.5562 441.02203,416.36577 c 49.70494,-56.0581 73.00501,-125.29096 70.61348,-191.46225 z"
       id="path943" />
    <g
       style="fill:#000000;fill-opacity:0.49019608"
       transform="translate(20,20.000002)"
       id="g872">
      <path
         inkscape:connector-curvature="0"
         id="path862"
         d="m 300.60613,396.81451 c -31.74588,-10.81904 -49.9261,-41.61205 -43.30184,-73.34306 6.96757,-33.37542 39.22184,-55.79427 72.39097,-50.3165 33.96623,5.60941 58.54487,39.13759 52.89031,72.14865 -6.71379,39.19489 -45.8894,63.81047 -81.97944,51.51091 z"
         style="fill:#000000;fill-opacity:0.49019608;fill-rule:nonzero;stroke:none;stroke-width:0.69333333" />
      <path
         sodipodi:nodetypes="ccccccscccc"
         inkscape:connector-curvature="0"
         id="path864"
         d="M 348.87655,267.2573 C 371.91783,142.48908 221.64534,132.09672 138.59699,133.32754 l 4.68773,-5.42897 5.30572,-5.71566 5.99664,-5.92752 4.61733,-4.20049 17.59858,0.93052 c 55.23979,2.92079 105.90072,5.92189 146.53564,23.30303 64.78349,29.15984 101.09445,89.90694 84.76815,153.59147 -3.98209,11.89629 -11.44145,31.32648 -14.27383,26.56158 -11.04861,-21.66631 -24.50868,-40.65532 -44.9564,-49.1842 z"
         style="fill:#000000;fill-opacity:0.49019608;fill-rule:nonzero;stroke:none;stroke-width:0.69333333" />
      <path
         sodipodi:nodetypes="cccscscc"
         inkscape:connector-curvature="0"
         id="path866"
         d="m 100,324.67984 c 29.77017,7.83366 61.06203,10.17611 85.56897,7.74464 32.99223,-3.55296 62.47078,-13.21922 62.74294,-12.94706 0.27218,0.27216 -2.08948,5.67693 -2.86946,9.89627 -3.75279,20.3007 1.56291,35.75198 17.64657,55.70436 -12.29089,8.45026 -40.44012,12.42234 -68.17991,12.50505 -23.02918,0.0686 -45.77616,-2.87931 -58.933,-5.10736 C 118.85101,371.49567 107.0723,349.7918 100,324.67984 Z"
         style="fill:#000000;fill-opacity:0.49019608;fill-rule:nonzero;stroke:none;stroke-width:0.69333333" />
      <circle
         r="18.596561"
         cy="214.01892"
         cx="183.44592"
         id="circle868"
         style="fill:#000000;fill-opacity:0.49019608;stroke:none;stroke-width:0.43247819" />
      <circle
         r="32.86834"
         cy="254.67184"
         cx="240.53305"
         id="circle870"
         style="fill:#000000;fill-opacity:0.49019608;stroke:none;stroke-width:0.43247819" />
    </g>
    <g
       id="g860">
      <path
         style="fill:#ffffff;fill-opacity:1;fill-rule:nonzero;stroke:none;stroke-width:0.69333333"
         d="m 300.60613,396.81451 c -31.74588,-10.81904 -49.9261,-41.61205 -43.30184,-73.34306 6.96757,-33.37542 39.22184,-55.79427 72.39097,-50.3165 33.96623,5.60941 58.54487,39.13759 52.89031,72.14865 -6.71379,39.19489 -45.8894,63.81047 -81.97944,51.51091 z"
         id="path3007"
         inkscape:connector-curvature="0" />
      <path
         style="fill:#ffffff;fill-opacity:1;fill-rule:nonzero;stroke:none;stroke-width:0.69333333"
         d="M 348.87655,267.2573 C 371.91783,142.48908 221.64534,132.09672 138.59699,133.32754 l 4.68773,-5.42897 5.30572,-5.71566 5.99664,-5.92752 4.61733,-4.20049 17.59858,0.93052 c 55.23979,2.92079 105.90072,5.92189 146.53564,23.30303 64.78349,29.15984 101.09445,89.90694 84.76815,153.59147 -3.98209,11.89629 -11.44145,31.32648 -14.27383,26.56158 -11.04861,-21.66631 -24.50868,-40.65532 -44.9564,-49.1842 z"
         id="path3013"
         inkscape:connector-curvature="0"
         sodipodi:nodetypes="ccccccscccc" />
      <path
         style="fill:#ffffff;fill-opacity:1;fill-rule:nonzero;stroke:none;stroke-width:0.69333333"
         d="m 100,324.67984 c 29.77017,7.83366 61.06203,10.17611 85.56897,7.74464 32.99223,-3.55296 62.47078,-13.21922 62.74294,-12.94706 0.27218,0.27216 -2.08948,5.67693 -2.86946,9.89627 -3.75279,20.3007 1.56291,35.75198 17.64657,55.70436 -12.29089,8.45026 -40.44012,12.42234 -68.17991,12.50505 -23.02918,0.0686 -45.77616,-2.87931 -58.933,-5.10736 C 118.85101,371.49567 107.0723,349.7918 100,324.67984 Z"
         id="path3015"
         inkscape:connector-curvature="0"
         sodipodi:nodetypes="cccscscc" />
      <circle
         style="fill:#ffffff;fill-opacity:1;stroke:none;stroke-width:0.43247819"
         id="path3338"
         cx="183.44592"
         cy="214.01892"
         r="18.596561" />
      <circle
         style="fill:#ffffff;fill-opacity:1;stroke:none;stroke-width:0.43247819"
         id="path3338-2"
         cx="240.53305"
         cy="254.67184"
         r="32.86834" />
    </g>
  </g>
</svg>
