<?xml version="1.0" encoding="UTF-8" standalone="no"?>
<!-- Created with Inkscape (http://www.inkscape.org/) -->

<svg
   xmlns:dc="http://purl.org/dc/elements/1.1/"
   xmlns:cc="http://creativecommons.org/ns#"
   xmlns:rdf="http://www.w3.org/1999/02/22-rdf-syntax-ns#"
   xmlns:svg="http://www.w3.org/2000/svg"
   xmlns="http://www.w3.org/2000/svg"
   xmlns:sodipodi="http://sodipodi.sourceforge.net/DTD/sodipodi-0.dtd"
   xmlns:inkscape="http://www.inkscape.org/namespaces/inkscape"
   width="512"
   height="512"
   id="svg2"
   version="1.1"
   inkscape:version="0.92.2 2405546, 2018-03-11"
   sodipodi:docname="ark.svg">
  <defs
     id="defs4" />
  <sodipodi:namedview
     id="base"
     pagecolor="#ffffff"
     bordercolor="#666666"
     borderopacity="1.0"
     inkscape:pageopacity="0.0"
     inkscape:pageshadow="2"
     inkscape:zoom="0.35"
     inkscape:cx="-374.37412"
     inkscape:cy="361.97999"
     inkscape:document-units="px"
     inkscape:current-layer="layer1"
     showgrid="false"
     inkscape:window-width="1366"
     inkscape:window-height="717"
     inkscape:window-x="0"
     inkscape:window-y="24"
     inkscape:window-maximized="1" />
  <metadata
     id="metadata7">
    <rdf:RDF>
      <cc:Work
         rdf:about="">
        <dc:format>image/svg+xml</dc:format>
        <dc:type
           rdf:resource="http://purl.org/dc/dcmitype/StillImage" />
        <dc:title />
      </cc:Work>
    </rdf:RDF>
  </metadata>
  <g
     inkscape:label="Layer 1"
     inkscape:groupmode="layer"
     id="layer1"
     transform="translate(0,-540.36218)">
    <g
       transform="translate(-7.3296832e-8,4.3058885e-6)"
       id="g849">
      <path
         id="path955"
         d="m 432.91324,596.83612 c 102.19291,88.57459 105.82677,249.69971 8.1168,359.89879 C 343.32009,1066.934 181.27965,1084.4628 79.086741,995.8882 -23.106205,907.31358 -26.740032,746.18846 70.969941,635.98938 168.67991,525.7903 330.72036,508.26153 432.91324,596.83612 Z"
         inkscape:connector-curvature="0"
         style="fill:#8a715e;fill-opacity:1;stroke-width:11.10955811" />
      <path
         id="path959"
         d="M 511.63547,765.26567 C 510.08409,826.57731 486.47425,889.42027 440.6691,941.08014 342.95915,1051.2793 180.9187,1068.808 78.725758,980.23344 30.827124,938.71779 4.4968188,881.28499 0.19382686,820.59096 0.79907986,886.94763 27.117405,950.84433 79.078691,995.8813 181.2716,1084.4558 343.31975,1066.9184 441.02199,956.72792 490.72694,900.66981 514.02701,831.43695 511.63547,765.26567 Z"
         inkscape:connector-curvature="0"
         style="opacity:1;fill:#000000;fill-opacity:0.49019608;stroke-width:11.10955811" />
      <path
         style="fill:#000000;fill-opacity:0.49019608;stroke-width:1.64255524"
         d="m 257.11819,969.9993 c -8.99801,-3.91094 -9.60815,-7.48463 -6.21198,-36.3848 2.61106,-22.21925 3.5261,-26.17593 7.01144,-30.31803 3.86542,-4.59379 4.52558,-4.76379 18.49944,-4.76379 13.97385,0 14.63402,0.17 18.49944,4.76379 3.48535,4.1421 4.40037,8.09878 7.01145,30.31803 3.42153,29.11615 2.80486,32.53659 -6.57244,36.45468 -7.3962,3.09034 -31.06605,3.04708 -38.23735,-0.0698 z m 27.74034,-35.18528 c 3.07487,-2.48989 3.87772,-4.73041 3.87772,-10.82174 0,-8.84613 -4.51375,-13.96172 -12.31916,-13.96172 -7.80541,0 -12.31917,5.11559 -12.31917,13.96172 0,8.84613 4.51376,13.96173 12.31917,13.96173 2.51005,0 6.30869,-1.41299 8.44144,-3.13999 z m -27.07625,-49.14048 c -3.65517,-4.03893 -3.42766,-9.42738 0.5667,-13.42174 2.79842,-2.79843 5.47518,-3.28511 18.06811,-3.28511 12.59294,0 15.26968,0.48668 18.06811,3.28511 4.09951,4.0995 4.22346,10.13955 0.2813,13.70713 -4.5857,4.14999 -33.16988,3.92941 -36.98422,-0.28539 z m 15.34969,-26.56218 v -6.57022 h -9.03405 -9.03405 v -5.74895 -5.74893 h 9.03405 9.03405 v -5.74895 -5.74895 h -9.03405 -9.03405 v -5.74894 -5.74895 h 9.03405 9.03405 v -6.57022 -6.57022 h -9.03405 -9.03405 v -5.74893 -5.74894 h 9.03405 9.03405 v -5.74896 -5.74893 h -9.03405 -9.03405 v -6.57023 -6.57021 h 9.03405 9.03405 v -5.74895 -5.74895 h -9.03405 -9.03405 v -6.57022 -6.57022 h 9.03405 9.03405 v -5.74893 -5.74896 h -9.03405 -9.03405 v -5.74895 -5.74892 h 9.03405 9.03405 v -6.57023 -6.57022 h -9.03405 -9.03405 v -5.74895 -5.74893 h 9.03405 9.03405 v -5.74895 -5.74894 h -9.03405 -9.03405 v -12.31916 -12.31917 h 21.35322 21.35322 v 5.74894 5.74894 h -9.03406 -9.03404 v 6.57022 6.57023 h 9.03404 9.03406 v 5.74894 5.74895 h -9.03406 -9.03404 v 5.74893 5.74895 h 9.03404 9.03406 v 6.57022 6.57023 h -9.03406 -9.03404 v 5.74892 5.74895 h 9.03404 9.03406 v 6.57023 6.57022 h -9.03406 -9.03404 v 5.74894 5.74894 h 9.03404 9.03406 v 5.74895 5.74895 h -9.03406 -9.03404 v 6.57021 6.57023 h 9.03404 9.03406 v 5.74893 5.74896 h -9.03406 -9.03404 v 5.74894 5.74893 h 9.03404 9.03406 v 5.74896 5.74893 h -9.03406 -9.03404 v 6.57022 6.57022 h 9.03404 9.03406 v 5.74895 5.74895 h -9.03406 -9.03404 v 5.74893 5.74895 h 9.03404 9.03406 v 6.57022 6.57021 h -12.31917 -12.31917 z"
         id="path38"
         inkscape:connector-curvature="0" />
      <path
         inkscape:connector-curvature="0"
         id="path924"
         d="m 237.11819,949.9993 c -8.99801,-3.91094 -9.60815,-7.48463 -6.21198,-36.3848 2.61106,-22.21925 3.5261,-26.17593 7.01144,-30.31803 3.86542,-4.59379 4.52558,-4.76379 18.49944,-4.76379 13.97385,0 14.63402,0.17 18.49944,4.76379 3.48535,4.1421 4.40037,8.09878 7.01145,30.31803 3.42153,29.11615 2.80486,32.53659 -6.57244,36.45468 -7.3962,3.09034 -31.06605,3.04708 -38.23735,-0.0698 z m 27.74034,-35.18528 c 3.07487,-2.48989 3.87772,-4.73041 3.87772,-10.82174 0,-8.84613 -4.51375,-13.96172 -12.31916,-13.96172 -7.80541,0 -12.31917,5.11559 -12.31917,13.96172 0,8.84613 4.51376,13.96173 12.31917,13.96173 2.51005,0 6.30869,-1.41299 8.44144,-3.13999 z m -27.07625,-49.14048 c -3.65517,-4.03893 -3.42766,-9.42738 0.5667,-13.42174 2.79842,-2.79843 5.47518,-3.28511 18.06811,-3.28511 12.59294,0 15.26968,0.48668 18.06811,3.28511 4.09951,4.0995 4.22346,10.13955 0.2813,13.70713 -4.5857,4.14999 -33.16988,3.92941 -36.98422,-0.28539 z m 15.34969,-26.56218 v -6.57022 h -9.03405 -9.03405 v -5.74895 -5.74893 h 9.03405 9.03405 v -5.74895 -5.74895 h -9.03405 -9.03405 v -5.74894 -5.74895 h 9.03405 9.03405 v -6.57022 -6.57022 h -9.03405 -9.03405 v -5.74893 -5.74894 h 9.03405 9.03405 v -5.74896 -5.74893 h -9.03405 -9.03405 v -6.57023 -6.57021 h 9.03405 9.03405 v -5.74895 -5.74895 h -9.03405 -9.03405 v -6.57022 -6.57022 h 9.03405 9.03405 v -5.74893 -5.74896 h -9.03405 -9.03405 v -5.74895 -5.74892 h 9.03405 9.03405 v -6.57023 -6.57022 h -9.03405 -9.03405 v -5.74895 -5.74893 h 9.03405 9.03405 v -5.74895 -5.74894 h -9.03405 -9.03405 v -12.31916 -12.31917 h 21.35322 21.35322 v 5.74894 5.74894 h -9.03406 -9.03404 v 6.57022 6.57023 h 9.03404 9.03406 v 5.74894 5.74895 h -9.03406 -9.03404 v 5.74893 5.74895 h 9.03404 9.03406 v 6.57022 6.57023 h -9.03406 -9.03404 v 5.74892 5.74895 h 9.03404 9.03406 v 6.57023 6.57022 h -9.03406 -9.03404 v 5.74894 5.74894 h 9.03404 9.03406 v 5.74895 5.74895 h -9.03406 -9.03404 v 6.57021 6.57023 h 9.03404 9.03406 v 5.74893 5.74896 h -9.03406 -9.03404 v 5.74894 5.74893 h 9.03404 9.03406 v 5.74896 5.74893 h -9.03406 -9.03404 v 6.57022 6.57022 h 9.03404 9.03406 v 5.74895 5.74895 h -9.03406 -9.03404 v 5.74893 5.74895 h 9.03404 9.03406 v 6.57022 6.57021 h -12.31917 -12.31917 z"
         style="fill:#ffffff;stroke-width:1.64255524" />
    </g>
  </g>
</svg>
