<?xml version="1.0" encoding="UTF-8" standalone="no"?>
<!-- Generator: flash2svg, http://dissentgraphics.com/tools/flash2svg -->

<svg
   xmlns:dc="http://purl.org/dc/elements/1.1/"
   xmlns:cc="http://creativecommons.org/ns#"
   xmlns:rdf="http://www.w3.org/1999/02/22-rdf-syntax-ns#"
   xmlns:svg="http://www.w3.org/2000/svg"
   xmlns="http://www.w3.org/2000/svg"
   xmlns:sodipodi="http://sodipodi.sourceforge.net/DTD/sodipodi-0.dtd"
   xmlns:inkscape="http://www.inkscape.org/namespaces/inkscape"
   id="Neutron"
   version="1.1"
   x="0px"
   y="0px"
   width="512"
   height="512"
   viewBox="0 0 512 512"
   enable-background="new 0 0 1024 1024"
   inkscape:version="0.92.2 2405546, 2018-03-11"
   sodipodi:docname="atom.svg"
   style="image-rendering:optimizeSpeed">
  <metadata
     id="metadata37">
    <rdf:RDF>
      <cc:Work
         rdf:about="">
        <dc:format>image/svg+xml</dc:format>
        <dc:type
           rdf:resource="http://purl.org/dc/dcmitype/StillImage" />
        <dc:title></dc:title>
      </cc:Work>
    </rdf:RDF>
  </metadata>
  <sodipodi:namedview
     pagecolor="#ffffff"
     bordercolor="#666666"
     borderopacity="1"
     objecttolerance="10"
     gridtolerance="10"
     guidetolerance="10"
     inkscape:pageopacity="0"
     inkscape:pageshadow="2"
     inkscape:window-width="1366"
     inkscape:window-height="717"
     id="namedview35"
     showgrid="false"
     inkscape:zoom="0.23046875"
     inkscape:cx="1280.1742"
     inkscape:cy="-409.50957"
     inkscape:window-x="0"
     inkscape:window-y="24"
     inkscape:window-maximized="1"
     inkscape:current-layer="Neutron" />
  <defs
     transform="matrix(1 0 0 1 0 0) "
     id="defs3" />
  <g
     id="g997">
    <path
       style="fill:#3689e6;fill-opacity:1;stroke-width:11.10955715"
       inkscape:connector-curvature="0"
       d="M 432.91328,56.473985 C 535.10618,145.04857 538.74004,306.17367 441.03008,416.37276 343.32011,526.57184 181.27963,544.10061 79.086725,455.52602 -23.10618,366.95144 -26.740045,205.82632 70.969926,95.627248 168.67989,-14.57184 330.72037,-32.100602 432.91328,56.473985 Z"
       id="path941" />
    <path
       style="opacity:1;fill:#000000;fill-opacity:0.49019608;stroke-width:11.10955715"
       inkscape:connector-curvature="0"
       d="M 511.63551,224.90352 C 510.08412,286.21517 486.47428,349.05814 440.66913,400.718 342.95916,510.91712 180.91868,528.44585 78.725781,439.8713 30.82711,398.35565 4.4968434,340.92285 0.19381365,280.22882 0.79906715,346.58547 27.117428,410.48219 79.078675,455.51907 181.27158,544.09362 343.31973,526.5562 441.02203,416.36577 c 49.70494,-56.0581 73.00501,-125.29096 70.61348,-191.46225 z"
       id="path943" />
    <g
       style="overflow:visible;fill:#000000;fill-opacity:0.49019608;stroke:none"
       overflow="visible"
       id="g856"
       transform="matrix(0.46282129,0,0,0.46282129,39.534711,39.035482)">
      <g
         id="g854"
         style="fill:#000000;fill-opacity:0.49019608;stroke:none">
        <path
           id="path852"
           transform="matrix(2.1606612,0,0,2.1606612,-85.421116,-84.342451)"
           d="M 275.16406 120.00195 C 261.44006 120.23734 250.08129 136.28283 241.04688 168.13867 C 238.07304 178.6245 235.6338 189.89338 233.70508 201.91016 C 237.19549 203.24105 240.72317 204.65042 244.28906 206.13867 C 246.20313 193.64642 248.68561 181.99028 251.73828 171.17188 C 259.074 145.25387 267.313 131.90037 276.5 131.13672 C 285.67466 131.91333 293.92713 145.25512 301.25977 171.16016 L 301.25977 171.17188 C 307.02248 191.59444 310.7482 215.01446 312.44922 241.40234 C 316.39094 243.80134 320.2316 246.20902 323.98242 248.62305 C 322.51027 218.08882 318.50431 191.24523 311.95117 168.13867 C 302.62532 135.25522 290.82432 119.21936 276.5 120.0293 C 276.05237 120.00399 275.60677 119.99436 275.16406 120.00195 z M 232.07422 213.21094 C 229.61102 232.35121 228.36523 253.27077 228.36523 276 C 228.36523 280.69636 228.42596 285.30439 228.53125 289.84766 C 232.21012 292.30045 235.98497 294.74403 239.86523 297.18164 C 239.60828 290.30525 239.47266 283.25135 239.47266 276 C 239.47266 254.92799 240.56673 235.45616 242.73438 217.56055 C 239.14174 216.02929 235.58852 214.5797 232.07422 213.21094 z M 313.13477 254.88477 C 313.39012 261.73966 313.52539 268.77128 313.52539 276 C 313.52539 297.09397 312.43082 316.59254 310.25781 334.50781 C 313.84752 336.03849 317.40455 337.50066 320.91602 338.86914 C 323.3872 319.70728 324.63281 298.75879 324.63281 276 C 324.63281 271.32638 324.57107 266.74076 324.4668 262.21875 C 320.78817 259.76625 317.01437 257.32193 313.13477 254.88477 z M 229.01758 303.44531 C 230.49242 333.95176 234.49861 360.77552 241.04688 383.88281 C 250.37272 416.76627 262.17568 432.78064 276.5 431.9707 C 288.92101 432.67302 299.44162 420.70361 308.09961 396.07617 C 307.90133 396.08244 307.70872 396.10156 307.50781 396.10156 C 303.70897 396.10156 300.38848 394.96667 297.51758 392.71289 C 291.15188 410.81263 284.15708 420.2268 276.5 420.86328 C 267.313 420.09963 259.074 406.74641 251.73828 380.85156 C 245.98027 360.44569 242.25569 337.03628 240.55273 310.66797 C 236.61023 308.26857 232.76903 305.85969 229.01758 303.44531 z M 308.69336 345.91406 C 307.77252 351.91799 306.72668 357.74028 305.54297 363.35742 C 306.18475 363.28744 306.83672 363.24219 307.50781 363.24219 C 310.82541 363.24219 313.78011 364.10464 316.38867 365.82227 C 317.46121 360.75191 318.4254 355.52371 319.28906 350.14844 C 315.79494 348.81549 312.26283 347.40457 308.69336 345.91406 z "
           style="fill:#000000;fill-opacity:0.49019608;stroke:none;stroke-width:0.4628213" />
      </g>
    </g>
    <g
       style="overflow:visible;fill:#000000;fill-opacity:0.49019608;stroke:none"
       overflow="visible"
       id="g864"
       transform="matrix(0.46282129,0,0,0.46282129,39.534711,39.035482)">
      <g
         id="g862"
         style="fill:#000000;fill-opacity:0.49019608;stroke:none">
        <g
           id="g860"
           style="fill:#000000;fill-opacity:0.49019608;stroke:none">
          <path
             id="path858"
             transform="matrix(2.1606612,0,0,2.1606612,-85.421116,-84.342451)"
             d="M 167.03711 186.44141 C 153.799 186.57638 145.26394 190.44291 141.42773 198.04883 C 133.5644 210.0484 141.55123 228.28673 165.36523 252.80469 C 172.95377 260.61761 181.48569 268.35991 190.91992 276.0332 C 193.81821 273.67768 196.80709 271.32839 199.87891 268.98633 C 190.02289 261.08646 181.17455 253.11134 173.33594 245.0625 L 173.32617 245.05664 C 154.55877 225.75391 147.13201 211.93481 151.04688 203.60156 C 154.99406 197.91232 164.82772 196.23974 180.54297 198.55859 C 180.33713 197.4941 180.23242 196.38875 180.23242 195.23828 C 180.23242 192.43371 180.84775 189.88671 182.07422 187.58984 C 176.52812 186.78406 171.50938 186.39581 167.03711 186.44141 z M 213.07422 194.82422 C 213.07729 194.9635 213.0918 195.09772 213.0918 195.23828 C 213.0918 199.10528 211.92158 202.47905 209.58594 205.38477 C 226.84078 210.61839 245.14649 218.02772 264.48828 227.58984 C 268.53864 225.37559 272.54624 223.24558 276.51367 221.20508 C 254.04033 209.63874 232.88895 200.84476 213.07422 194.82422 z M 288.5332 227.58594 C 284.5665 229.54578 280.55839 231.59397 276.50391 233.73633 C 282.57638 236.94644 288.74253 240.34909 295.01172 243.96875 C 313.26159 254.50559 329.58374 265.19285 344.00391 276.02148 C 347.12676 273.67573 350.15841 271.32397 353.10156 268.96484 C 337.7523 257.25715 320.25445 245.71684 300.56641 234.34961 C 296.51532 232.01064 292.50488 229.75818 288.5332 227.58594 z M 362.0625 276.01758 C 359.16028 278.37849 356.20371 280.73447 353.12695 283.08203 C 362.98894 290.98565 371.84129 298.96485 379.68164 307.01562 C 398.4384 326.31575 405.88135 340.12712 401.94922 348.46484 C 396.69435 356.03891 381.0124 356.49708 354.91992 349.90234 C 334.35887 344.68285 312.2119 336.19753 288.51172 324.47852 C 284.46415 326.69133 280.45705 328.81801 276.49219 330.85742 C 303.66103 344.84252 328.90475 354.7907 352.19922 360.67578 C 385.33907 369.04128 405.10784 366.82904 411.56836 354.01953 C 419.43216 342.0195 411.46635 323.7914 387.65234 299.27344 C 380.05092 291.45054 371.50836 283.69845 362.0625 276.01758 z M 208.97852 276.03125 C 205.8537 278.37706 202.82787 280.73068 199.88281 283.08984 C 215.23316 294.80013 232.73623 306.34531 252.43164 317.7168 C 256.48652 320.05795 260.49527 322.30213 264.4707 324.47656 C 268.435 322.51782 272.44054 320.47281 276.49219 318.33203 C 270.41948 315.12144 264.25459 311.71673 257.98633 308.09766 C 239.7256 297.55441 223.40015 286.86368 208.97852 276.03125 z "
             style="fill:#000000;fill-opacity:0.49019608;stroke:none;stroke-width:0.4628213" />
        </g>
      </g>
    </g>
    <g
       style="overflow:visible;fill:#000000;fill-opacity:0.49019608;stroke:none"
       overflow="visible"
       id="g872"
       transform="matrix(0.46282129,0,0,0.46282129,39.534711,39.035482)">
      <g
         id="g870"
         style="fill:#000000;fill-opacity:0.49019608;stroke:none">
        <g
           id="g868"
           style="fill:#000000;fill-opacity:0.49019608;stroke:none">
          <path
             id="path866"
             transform="matrix(2.1606612,0,0,2.1606612,-85.421116,-84.342451)"
             d="M 385.96094 186.44141 C 376.90329 186.34906 365.64471 188.00191 352.18164 191.40039 C 341.62353 194.06564 330.65473 197.58318 319.29492 201.91602 C 319.88575 205.60409 320.42562 209.36721 320.91797 213.19922 C 332.68471 208.61488 344.01281 204.93946 354.90039 202.17578 C 381.01323 195.56947 396.6963 196.02749 401.95117 203.60156 C 404.93935 209.96227 401.29716 219.52956 391.07031 232.28125 C 392.83552 233.07811 394.46687 234.20125 395.95312 235.6875 C 397.27555 237.00992 398.31045 238.45225 399.08789 240 C 413.8234 221.83581 417.99696 207.85599 411.57031 198.04883 C 407.7341 190.44291 399.19904 186.57638 385.96094 186.44141 z M 308.69727 206.15234 C 290.88001 213.59183 272.12991 222.9776 252.43359 234.34961 C 248.37767 236.69137 244.4284 239.04017 240.55664 241.39648 C 240.271 245.80894 240.04077 250.30136 239.86914 254.88086 C 245.68654 251.22649 251.71734 247.58824 257.98633 243.96875 C 276.24881 233.42449 293.67048 224.63034 310.26367 217.55664 C 309.79461 213.67751 309.26782 209.88248 308.69727 206.15234 z M 229.02148 248.62109 C 203.32689 265.15746 182.08853 282.0428 165.3457 299.27344 C 141.5317 323.7914 133.56589 342.0195 141.42969 354.01953 C 147.89021 366.82904 167.65897 369.04128 200.79883 360.67578 C 211.3676 358.0057 222.34404 354.48477 233.71094 350.14844 C 233.11963 346.46102 232.58076 342.69815 232.08789 338.86719 C 220.31007 343.45747 208.97235 347.13681 198.07812 349.90234 C 171.98565 356.49708 156.3037 356.03891 151.04883 348.46484 C 147.1167 340.12712 154.55965 326.31575 173.31641 307.01562 C 188.11625 291.81856 206.5385 276.88059 228.53711 262.21484 C 228.64439 257.60438 228.80541 253.07322 229.02148 248.62109 z M 369.6582 254.76758 C 356.81527 266.62571 341.7437 278.31988 324.46094 289.84766 C 324.35327 294.46245 324.19122 298.99877 323.97461 303.45508 C 344.8711 290.00319 362.80809 276.31927 377.77734 262.41211 C 375.94367 261.61235 374.25646 260.45762 372.7207 258.92188 C 371.4404 257.64156 370.4267 256.25465 369.6582 254.76758 z M 313.12891 297.18359 C 307.3124 300.83868 301.28248 304.47709 295.01172 308.09766 C 276.75505 318.63841 259.33344 327.43235 242.74023 334.50781 C 243.2097 338.38693 243.73571 342.18398 244.30664 345.91406 C 262.12474 338.47367 280.87279 329.08725 300.56641 317.7168 C 304.61692 315.37816 308.57127 313.03287 312.4375 310.67969 C 312.72388 306.26278 312.95677 301.76757 313.12891 297.18359 z "
             style="fill:#000000;fill-opacity:0.49019608;stroke:none;stroke-width:0.4628213" />
        </g>
      </g>
    </g>
    <g
       style="overflow:visible;fill:#000000;fill-opacity:0.49019608"
       overflow="visible"
       id="g880"
       transform="matrix(0.46282129,0,0,0.46282129,39.534711,39.035482)">
      <g
         id="g878"
         style="fill:#000000;fill-opacity:0.49019608">
        <g
           id="g876"
           style="fill:#000000;fill-opacity:0.49019608">
          <path
             style="fill:#000000;fill-opacity:0.49019608"
             inkscape:connector-curvature="0"
             d="M 549.45,549.45 Q 565,533.95 565,512 c 0,-14.65 -5.2,-27.15 -15.55,-37.5 C 539.1,464.15 526.65,459 512,459 c -14.65,0 -27.15,5.15 -37.5,15.5 -10.35,10.35 -15.5,22.85 -15.5,37.5 0,14.65 5.15,27.1 15.5,37.45 10.35,10.35 22.85,15.55 37.5,15.55 14.65,0 27.1,-5.2 37.45,-15.55 z"
             id="path874" />
        </g>
      </g>
    </g>
    <path
       id="path882"
       d="m 400.76673,247.30506 q 0,-6.80347 -4.81334,-11.61681 c -3.21661,-3.21661 -7.08117,-4.81334 -11.61682,-4.81334 -4.53565,0 -8.4002,1.59673 -11.61681,4.81334 -3.21661,3.21661 -4.81334,7.08116 -4.81334,11.61681 0,4.53565 1.59673,8.40021 4.81334,11.61682 3.21661,3.2166 7.08116,4.81334 11.61681,4.81334 4.53565,0 8.40021,-1.59674 11.61682,-4.81334 3.2166,-3.21661 4.81334,-7.08117 4.81334,-11.61682 z M 213.09269,195.23767 c 0,-4.53565 -1.59673,-8.40021 -4.81334,-11.61682 -3.2166,-3.2166 -7.08116,-4.81334 -11.61681,-4.81334 -4.53565,0 -8.40021,1.59674 -11.61682,4.81334 -3.2166,3.21661 -4.81334,7.08117 -4.81334,11.61682 0,4.53565 1.59674,8.4002 4.81334,11.61681 3.21661,3.21661 7.08117,4.81334 11.61682,4.81334 4.53565,0 8.40021,-1.59673 11.61681,-4.81334 3.21661,-3.21661 4.81334,-7.08116 4.81334,-11.61681 z m 110.8457,184.43428 c 0,-4.53565 -1.59673,-8.4002 -4.81334,-11.61681 -3.21661,-3.21661 -7.08116,-4.81334 -11.61681,-4.81334 -4.53565,0 -8.40021,1.59673 -11.61682,4.81334 -3.2166,3.21661 -4.81334,7.08116 -4.81334,11.61681 0,4.53565 1.59674,8.40021 4.81334,11.61682 3.21661,3.2166 7.08117,4.81334 11.61682,4.81334 4.53565,0 8.4002,-1.59674 11.61681,-4.81334 3.21661,-3.21661 4.81334,-7.08117 4.81334,-11.61682 z"
       inkscape:connector-curvature="0"
       style="fill:#000000;fill-opacity:0.49019608;stroke-width:0.4628213" />
    <g
       style="fill:#ffffff"
       transform="matrix(0.69333333,0,0,0.69333333,83.833334,82.666669)"
       id="g4151">
      <g
         style="overflow:visible;fill:#ffffff;fill-opacity:1;stroke:none"
         overflow="visible"
         id="Symbole.__208_4"
         transform="matrix(0.66753071,0,0,0.66753071,-92.738393,-91.775752)">
        <g
           id="shape24"
           style="fill:#ffffff;fill-opacity:1;stroke:none">
          <path
             id="path18"
             d="M 616,512 C 616,421 606.85,343.3 588.6,278.95 568.45,207.9 542.95,173.25 512,175 481.05,173.25 455.55,207.9 435.4,278.95 417.15,343.3 408,421 408,512 c 0,91 9.15,168.7 27.4,233.1 20.15,71.05 45.65,105.65 76.6,103.9 30.95,1.75 56.45,-32.85 76.6,-103.9 C 606.85,680.7 616,603 616,512 Z M 565.5,285.5 C 583.15,348.05 592,423.55 592,512 592,600.45 583.15,676 565.5,738.55 549.65,794.5 531.85,823.35 512,825 492.15,823.35 474.35,794.5 458.5,738.55 440.85,676 432,600.45 432,512 c 0,-88.45 8.85,-163.95 26.5,-226.5 15.85,-56 33.65,-84.85 53.5,-86.5 q 29.735,2.517 53.5,86.475 z"
             inkscape:connector-curvature="0"
             style="fill:#ffffff;fill-opacity:1;stroke:none" />
        </g>
      </g>
      <g
         style="overflow:visible;fill:#ffffff;fill-opacity:1;stroke:none"
         overflow="visible"
         id="Symbole.__208_5"
         transform="matrix(0.66753071,0,0,0.66753071,-92.738393,-91.775752)">
        <g
           id="Calque.__215"
           style="fill:#ffffff;fill-opacity:1;stroke:none">
          <g
             id="shape25"
             style="fill:#ffffff;fill-opacity:1;stroke:none">
            <path
               style="fill:#ffffff;fill-opacity:1;stroke:none"
               inkscape:connector-curvature="0"
               d="m 459.999,602.135 c -78.806,-45.5 -141.519,-92.273 -188.121,-140.253 -51.454,-52.975 -68.71,-92.383 -51.72,-118.31 13.96,-27.678 56.716,-32.436 128.32,-14.361 64.852,16.371 136.715,47.297 215.521,92.797 78.806,45.5 141.519,92.274 188.164,140.278 51.454,52.975 68.668,92.358 51.677,118.286 -13.959,27.677 -56.673,32.46 -128.277,14.385 C 610.668,678.562 538.805,647.635 459.999,602.135 Z M 289.101,445.153 c 45.343,46.559 106.301,91.974 182.898,136.199 76.598,44.225 146.449,74.335 209.442,90.326 56.377,14.249 90.261,13.259 101.615,-3.106 8.496,-18.015 -7.588,-47.855 -48.115,-89.556 C 689.598,532.456 628.597,487.017 551.999,442.792 475.402,398.567 405.594,368.481 342.601,352.491 286.18,338.217 252.296,339.207 240.942,355.572 q -12.688,27.008 48.137,89.568 z"
               id="path19" />
          </g>
        </g>
      </g>
      <g
         style="overflow:visible;fill:#ffffff;fill-opacity:1;stroke:none"
         overflow="visible"
         id="Symbole.__208_6"
         transform="matrix(0.66753071,0,0,0.66753071,-92.738393,-91.775752)">
        <g
           id="Calque.__216"
           style="fill:#ffffff;fill-opacity:1;stroke:none">
          <g
             id="shape26"
             style="fill:#ffffff;fill-opacity:1;stroke:none">
            <path
               style="fill:#ffffff;fill-opacity:1;stroke:none"
               inkscape:connector-curvature="0"
               d="m 564.001,602.135 c 78.806,-45.5 141.519,-92.273 188.121,-140.253 51.454,-52.975 68.71,-92.383 51.72,-118.31 -13.96,-27.678 -56.716,-32.436 -128.32,-14.361 -64.852,16.371 -136.715,47.297 -215.521,92.797 -78.806,45.5 -141.519,92.274 -188.164,140.278 -51.454,52.975 -68.668,92.358 -51.677,118.286 13.959,27.677 56.673,32.46 128.277,14.385 64.895,-16.395 136.758,-47.322 215.564,-92.822 z M 734.899,445.153 c -45.343,46.559 -106.301,91.974 -182.898,136.199 -76.598,44.225 -146.449,74.335 -209.442,90.326 -56.377,14.249 -90.261,13.259 -101.615,-3.106 -8.496,-18.015 7.588,-47.855 48.115,-89.556 45.343,-46.56 106.344,-91.999 182.942,-136.224 76.597,-44.225 146.405,-74.311 209.398,-90.301 56.421,-14.274 90.305,-13.284 101.659,3.081 q 12.688,27.008 -48.137,89.568 z"
               id="path20" />
          </g>
        </g>
      </g>
      <g
         style="overflow:visible;fill:#ffffff"
         overflow="visible"
         id="Symbole.__212_2"
         transform="matrix(0.66753071,0,0,0.66753071,-92.738393,-91.775752)">
        <g
           id="Calque.__217"
           style="fill:#ffffff">
          <g
             id="shape27"
             style="fill:#ffffff">
            <path
               style="fill:#ffffff;fill-opacity:1"
               inkscape:connector-curvature="0"
               d="M 549.45,549.45 Q 565,533.95 565,512 c 0,-14.65 -5.2,-27.15 -15.55,-37.5 C 539.1,464.15 526.65,459 512,459 c -14.65,0 -27.15,5.15 -37.5,15.5 -10.35,10.35 -15.5,22.85 -15.5,37.5 0,14.65 5.15,27.1 15.5,37.45 10.35,10.35 22.85,15.55 37.5,15.55 14.65,0 27.1,-5.2 37.45,-15.55 z"
               id="path21" />
          </g>
        </g>
      </g>
      <g
         style="overflow:visible;fill:#ffffff;fill-opacity:1"
         overflow="visible"
         id="Symbole.__214_2"
         transform="matrix(0.66753071,0,0,0.66753071,-92.738393,-91.775752)">
        <g
           id="Calque.__218"
           style="fill:#ffffff;fill-opacity:1">
          <g
             id="shape28"
             style="fill:#ffffff;fill-opacity:1">
            <path
               style="fill:#ffffff;fill-opacity:1"
               inkscape:connector-curvature="0"
               d="m 780.5,450 q 0,-14.7 -10.4,-25.1 c -6.95,-6.95 -15.3,-10.4 -25.1,-10.4 -9.8,0 -18.15,3.45 -25.1,10.4 -6.95,6.95 -10.4,15.3 -10.4,25.1 0,9.8 3.45,18.15 10.4,25.1 6.95,6.95 15.3,10.4 25.1,10.4 9.8,0 18.15,-3.45 25.1,-10.4 6.95,-6.95 10.4,-15.3 10.4,-25.1 z M 375,337.5 c 0,-9.8 -3.45,-18.15 -10.4,-25.1 -6.95,-6.95 -15.3,-10.4 -25.1,-10.4 -9.8,0 -18.15,3.45 -25.1,10.4 -6.95,6.95 -10.4,15.3 -10.4,25.1 0,9.8 3.45,18.15 10.4,25.1 6.95,6.95 15.3,10.4 25.1,10.4 9.8,0 18.15,-3.45 25.1,-10.4 6.95,-6.95 10.4,-15.3 10.4,-25.1 z M 614.5,736 c 0,-9.8 -3.45,-18.15 -10.4,-25.1 -6.95,-6.95 -15.3,-10.4 -25.1,-10.4 -9.8,0 -18.15,3.45 -25.1,10.4 -6.95,6.95 -10.4,15.3 -10.4,25.1 0,9.8 3.45,18.15 10.4,25.1 6.95,6.95 15.3,10.4 25.1,10.4 9.8,0 18.15,-3.45 25.1,-10.4 6.95,-6.95 10.4,-15.3 10.4,-25.1 z"
               id="path22" />
          </g>
        </g>
      </g>
    </g>
    <g
       transform="matrix(0.46282129,0,0,0.46282129,39.534711,39.035482)"
       id="g940"
       overflow="visible"
       style="overflow:visible;fill:#000000;fill-opacity:0.49019608;stroke:none">
      <g
         style="fill:#000000;fill-opacity:0.49019608;stroke:none"
         id="g938">
        <g
           style="fill:#000000;fill-opacity:0.49019608;stroke:none"
           id="g936" />
      </g>
    </g>
    <g
       transform="matrix(0.46282129,0,0,0.46282129,39.534711,39.035482)"
       id="g948"
       overflow="visible"
       style="overflow:visible;fill:#000000;fill-opacity:0.49019608;stroke:none">
      <g
         style="fill:#000000;fill-opacity:0.49019608;stroke:none"
         id="g946" />
    </g>
  </g>
</svg>
