<?xml version="1.0" encoding="UTF-8" standalone="no"?>
<svg
   xmlns:dc="http://purl.org/dc/elements/1.1/"
   xmlns:cc="http://creativecommons.org/ns#"
   xmlns:rdf="http://www.w3.org/1999/02/22-rdf-syntax-ns#"
   xmlns:svg="http://www.w3.org/2000/svg"
   xmlns="http://www.w3.org/2000/svg"
   xmlns:sodipodi="http://sodipodi.sourceforge.net/DTD/sodipodi-0.dtd"
   xmlns:inkscape="http://www.inkscape.org/namespaces/inkscape"
   viewBox="0 0 512 512"
   id="svg2"
   version="1.1"
   inkscape:version="0.92.2 2405546, 2018-03-11"
   width="512"
   height="512"
   sodipodi:docname="avatar-default.svg">
  <metadata
     id="metadata76">
    <rdf:RDF>
      <cc:Work
         rdf:about="">
        <dc:format>image/svg+xml</dc:format>
        <dc:type
           rdf:resource="http://purl.org/dc/dcmitype/StillImage" />
        <dc:title></dc:title>
      </cc:Work>
    </rdf:RDF>
  </metadata>
  <sodipodi:namedview
     pagecolor="#ffffff"
     bordercolor="#666666"
     borderopacity="1"
     objecttolerance="10"
     gridtolerance="10"
     guidetolerance="10"
     inkscape:pageopacity="0"
     inkscape:pageshadow="2"
     inkscape:window-width="1366"
     inkscape:window-height="717"
     id="namedview74"
     showgrid="false"
     inkscape:zoom="0.21728803"
     inkscape:cx="-262.5199"
     inkscape:cy="589.69563"
     inkscape:window-x="0"
     inkscape:window-y="24"
     inkscape:window-maximized="1"
     inkscape:current-layer="svg2"
     units="px" />
  <defs
     id="defs4">
    <linearGradient
       id="linearGradient3764"
       x1="1"
       x2="47"
       gradientUnits="userSpaceOnUse"
       gradientTransform="rotate(-90,23.999998,24)">
      <stop
         stop-color="#8358b4"
         stop-opacity="1"
         id="stop7" />
      <stop
         offset="1"
         stop-color="#8d65ba"
         stop-opacity="1"
         id="stop9" />
    </linearGradient>
    <clipPath
       id="clipPath-057129763">
      <g
         transform="translate(0,-1004.3622)"
         id="g12">
        <path
           d="m -24,13 c 0,1.105 -0.672,2 -1.5,2 -0.828,0 -1.5,-0.895 -1.5,-2 0,-1.105 0.672,-2 1.5,-2 0.828,0 1.5,0.895 1.5,2 z"
           transform="matrix(15.8a715e,0,0,11.5,414.99999,878.8622)"
           id="path14"
           inkscape:connector-curvature="0"
           style="fill:#1890d0" />
      </g>
    </clipPath>
    <clipPath
       id="clipPath-064426159">
      <g
         transform="translate(0,-1004.3622)"
         id="g17">
        <path
           d="m -24,13 c 0,1.105 -0.672,2 -1.5,2 -0.828,0 -1.5,-0.895 -1.5,-2 0,-1.105 0.672,-2 1.5,-2 0.828,0 1.5,0.895 1.5,2 z"
           transform="matrix(15.8a715e,0,0,11.5,414.99999,878.8622)"
           id="path19"
           inkscape:connector-curvature="0"
           style="fill:#1890d0" />
      </g>
    </clipPath>
  </defs>
  <g
     id="g33"
     transform="translate(0,963)" />
  <g
     id="g850">
    <path
       style="fill:#f9c440;fill-opacity:1;stroke-width:11.10955811"
       inkscape:connector-curvature="0"
       d="m 432.91346,56.47399 c 102.19296,88.57472 105.82688,249.69983 8.1168,359.89887 C 343.32019,526.57189 181.27987,544.10053 79.086916,455.52614 -23.106041,366.95142 -26.739641,205.8263 70.970116,95.627268 168.68019,-14.571768 330.72051,-32.100728 432.91346,56.47399 Z"
       id="path52" />
    <path
       style="opacity:1;fill:#000000;fill-opacity:0.49019608;stroke-width:11.10955811"
       inkscape:connector-curvature="0"
       d="M 511.6357,224.90342 C 510.0837,286.2151 486.47442,349.0583 440.6693,400.71814 342.95955,510.91718 180.91891,528.44581 78.725956,439.87142 30.827397,398.35558 4.4971582,340.92294 0.19411835,280.22886 0.79891833,346.58566 27.117638,410.4823 79.078916,455.5191 181.27187,544.09381 343.31987,526.55621 441.02226,416.36582 490.72722,360.30758 514.02738,291.07494 511.6357,224.90342 Z"
       id="path54" />
    <path
       style="fill:#000000;fill-opacity:0.49019608;stroke-width:0.55780447"
       d="m 264.11155,431.78918 c -6.45728,-0.5216 -18.93856,-2.6464 -26.17152,-4.4608 -20.0416,-5.02496 -38.8224,-14.04064 -56.10464,-26.93376 -7.4816,-5.58112 -23.15872,-20.93056 -28.5392,-27.94272 -23.00992,-29.98656 -34.49952,-65.12416 -33.19616,-101.52032 1.1744,-32.79488 11.79968,-62.90112 31.48384,-89.20767 6.3616,-8.50176 21.79328,-23.93312 30.29792,-30.29664 22.60128,-16.91168 48.31136,-27.23296 76.3728,-30.65952 7.6032,-0.928 28.21216,-0.9184 35.6992,0.015 28.46944,3.5568 53.70688,13.68288 76.3728,30.64288 8.50464,6.36384 23.93632,21.79488 30.29792,30.29664 16.41504,21.93759 26.224,45.81055 30.35135,73.86815 1.3696,9.30944 1.3664,31.29312 -0.008,40.71968 -4.17375,28.64256 -14.69343,53.64416 -32.01215,76.08288 -5.53216,7.16768 -21.13088,22.45152 -28.58144,28.0048 -21.6128,16.10848 -45.16224,25.98976 -71.67776,30.07584 -7.59712,1.1712 -27.14336,1.9136 -34.584,1.3152 z m -88.28224,-87.18304 c 9.7792,-13.82048 22.83584,-25.80384 37.91264,-34.7952 6.13792,-3.66048 15.41632,-8.11136 19.96928,-9.5792 1.6864,-0.544 3.25504,-1.1584 3.48416,-1.3664 0.224,-0.192 -1.696,-1.9392 -4.27808,-3.85312 -2.5824,-1.9136 -6.70688,-5.60256 -9.16576,-8.20032 -17.83616,-18.84256 -24.33408,-45.48032 -17.11776,-70.1728 7.19264,-24.61279 26.752,-43.50239 51.72288,-49.95231 13.312,-3.4384 30.46624,-2.5248 42.84864,2.2784 25.69728,9.97088 42.97856,31.64896 46.60032,58.45631 0.4352,3.22144 0.7904,7.48864 0.7904,9.48256 0,22.15232 -11.45952,44.89056 -29.27232,58.08352 -2.6016,1.9264 -4.5408,3.67104 -4.31168,3.87776 0.224,0.192 1.7984,0.8224 3.48448,1.3664 4.54848,1.4656 13.82688,5.9168 19.96896,9.57728 18.86272,11.24256 34.36128,27.06528 44.67264,45.60704 l 3.30656,5.94624 2.7008,-3.77536 c 25.44544,-35.56128 32.98976,-80.43648 20.4688,-121.75296 -15.80384,-52.14879 -59.42112,-89.66207 -113.98848,-98.03711 -8.98304,-1.3792 -30.06336,-1.3792 -39.0464,0 -55.42144,8.50592 -99.26464,46.84512 -114.63424,100.24287 -6.39584,22.22144 -6.952,47.04544 -1.568,69.9856 3.98208,16.96576 12.18656,34.89312 22.68256,49.5616 l 2.7008,3.77536 3.28544,-5.90784 c 1.808,-3.24928 4.85824,-8.13088 6.78112,-10.84832 z"
       id="path56"
       inkscape:connector-curvature="0"
       sodipodi:nodetypes="ccssssscccccccccccccccccscccssccscccssssscccc" />
    <path
       sodipodi:nodetypes="ccssssscccccccccccccccccscccssccscccssssscccc"
       inkscape:connector-curvature="0"
       id="path58"
       d="m 244.11155,411.78918 c -6.45728,-0.5216 -18.93856,-2.6464 -26.17152,-4.4608 -20.0416,-5.02496 -38.8224,-14.04064 -56.10464,-26.93376 -7.4816,-5.58112 -23.15872,-20.93056 -28.5392,-27.94272 -23.00992,-29.98656 -34.499515,-65.12416 -33.19615,-101.52032 1.1744,-32.79488 11.79967,-62.90111 31.48383,-89.20767 6.3616,-8.50176 21.79328,-23.93312 30.29792,-30.29664 22.60128,-16.91168 48.31136,-27.23296 76.3728,-30.65952 7.6032,-0.928002 28.21216,-0.918402 35.6992,0.015 28.46944,3.5568 53.70688,13.68288 76.3728,30.64288 8.50464,6.36384 23.93632,21.79488 30.29792,30.29664 16.41504,21.9376 26.224,45.81055 30.35136,73.86815 1.3696,9.30944 1.3664,31.29312 -0.008,40.71968 -4.17376,28.64256 -14.69344,53.64416 -32.01216,76.08288 -5.53216,7.16768 -21.13088,22.45152 -28.58144,28.0048 -21.6128,16.10848 -45.16224,25.98976 -71.67776,30.07584 -7.59712,1.1712 -27.14336,1.9136 -34.584,1.3152 z m -88.28224,-87.18304 c 9.7792,-13.82048 22.83584,-25.80384 37.91264,-34.7952 6.13792,-3.66048 15.41632,-8.11136 19.96928,-9.5792 1.6864,-0.544 3.25504,-1.1584 3.48416,-1.3664 0.224,-0.192 -1.696,-1.9392 -4.27808,-3.85312 -2.5824,-1.9136 -6.70688,-5.60256 -9.16576,-8.20032 -17.83616,-18.84256 -24.33408,-45.48032 -17.11776,-70.17279 7.19264,-24.6128 26.752,-43.5024 51.72288,-49.95232 13.312,-3.4384 30.46624,-2.5248 42.84864,2.2784 25.69728,9.97088 42.97856,31.64896 46.60032,58.45631 0.4352,3.22144 0.7904,7.48864 0.7904,9.48256 0,22.15232 -11.45952,44.89056 -29.27232,58.08352 -2.6016,1.9264 -4.5408,3.67104 -4.31168,3.87776 0.224,0.192 1.7984,0.8224 3.48448,1.3664 4.54848,1.4656 13.82688,5.9168 19.96896,9.57728 18.86272,11.24256 34.36128,27.06528 44.67264,45.60704 l 3.30656,5.94624 2.7008,-3.77536 c 25.44544,-35.56128 32.98976,-80.43648 20.4688,-121.75296 -15.80384,-52.14879 -59.42112,-89.66207 -113.98848,-98.03711 -8.98304,-1.3792 -30.06336,-1.3792 -39.0464,0 -55.42144,8.50592 -99.26464,46.84512 -114.63424,100.24287 -6.39584,22.22144 -6.952,47.04544 -1.568,69.9856 3.98208,16.96576 12.18656,34.89312 22.68256,49.5616 l 2.7008,3.77536 3.28544,-5.90784 c 1.808,-3.24928 4.85824,-8.13088 6.78112,-10.84832 z"
       style="fill:#ffffff;stroke-width:0.55780447" />
  </g>
</svg>
