<?xml version="1.0" encoding="UTF-8" standalone="no"?>
<!-- Generator: Adobe Illustrator 19.0.0, SVG Export Plug-In . SVG Version: 6.00 Build 0)  -->

<svg
   xmlns:dc="http://purl.org/dc/elements/1.1/"
   xmlns:cc="http://creativecommons.org/ns#"
   xmlns:rdf="http://www.w3.org/1999/02/22-rdf-syntax-ns#"
   xmlns:svg="http://www.w3.org/2000/svg"
   xmlns="http://www.w3.org/2000/svg"
   xmlns:sodipodi="http://sodipodi.sourceforge.net/DTD/sodipodi-0.dtd"
   xmlns:inkscape="http://www.inkscape.org/namespaces/inkscape"
   version="1.1"
   id="Layer_1"
   x="0px"
   y="0px"
   viewBox="0 0 512 512"
   xml:space="preserve"
   inkscape:version="0.92.2 2405546, 2018-03-11"
   width="512"
   height="512"
   sodipodi:docname="awf.svg"><metadata
     id="metadata57"><rdf:RDF><cc:Work
         rdf:about=""><dc:format>image/svg+xml</dc:format><dc:type
           rdf:resource="http://purl.org/dc/dcmitype/StillImage" /><dc:title></dc:title></cc:Work></rdf:RDF></metadata><defs
     id="defs55" /><sodipodi:namedview
     pagecolor="#ffffff"
     bordercolor="#666666"
     borderopacity="1"
     objecttolerance="10"
     gridtolerance="10"
     guidetolerance="10"
     inkscape:pageopacity="0"
     inkscape:pageshadow="2"
     inkscape:window-width="1366"
     inkscape:window-height="717"
     id="namedview53"
     showgrid="false"
     inkscape:zoom="0.18582593"
     inkscape:cx="417.95107"
     inkscape:cy="344.68752"
     inkscape:window-x="0"
     inkscape:window-y="24"
     inkscape:window-maximized="1"
     inkscape:current-layer="Layer_1"
     units="px" /><g
     id="g23"
     transform="translate(0,550.767)" /><g
     id="g25"
     transform="translate(0,550.767)" /><g
     id="g27"
     transform="translate(0,550.767)" /><g
     id="g29"
     transform="translate(0,550.767)" /><g
     id="g31"
     transform="translate(0,550.767)" /><g
     id="g33"
     transform="translate(0,550.767)" /><g
     id="g35"
     transform="translate(0,550.767)" /><g
     id="g37"
     transform="translate(0,550.767)" /><g
     id="g39"
     transform="translate(0,550.767)" /><g
     id="g41"
     transform="translate(0,550.767)" /><g
     id="g43"
     transform="translate(0,550.767)" /><g
     id="g45"
     transform="translate(0,550.767)" /><g
     id="g47"
     transform="translate(0,550.767)" /><g
     id="g49"
     transform="translate(0,550.767)" /><g
     id="g51"
     transform="translate(0,550.767)" /><g
     id="g858"><path
       style="fill:#3689e6;fill-opacity:1;stroke-width:11.10955715;image-rendering:optimizeSpeed"
       inkscape:connector-curvature="0"
       d="M 432.91328,56.473985 C 535.10618,145.04857 538.74004,306.17367 441.03008,416.37276 343.32011,526.57184 181.27963,544.10061 79.086725,455.52602 -23.10618,366.95144 -26.740045,205.82632 70.969926,95.627248 168.67989,-14.57184 330.72037,-32.100602 432.91328,56.473985 Z"
       id="path941" /><path
       style="opacity:1;fill:#000000;fill-opacity:0.49019608;stroke-width:11.10955715;image-rendering:optimizeSpeed"
       inkscape:connector-curvature="0"
       d="M 511.63551,224.90352 C 510.08412,286.21517 486.47428,349.05814 440.66913,400.718 342.95916,510.91712 180.91868,528.44585 78.725781,439.8713 30.82711,398.35565 4.4968434,340.92285 0.19381365,280.22882 0.79906715,346.58547 27.117428,410.48219 79.078675,455.51907 181.27158,544.09362 343.31973,526.5562 441.02203,416.36577 c 49.70494,-56.0581 73.00501,-125.29096 70.61348,-191.46225 z"
       id="path943" /><path
       style="fill:#000000;fill-opacity:0.49019608;fill-rule:evenodd;stroke:none;stroke-width:0.73488092px;stroke-linecap:butt;stroke-linejoin:miter;stroke-opacity:1"
       d="M 400.85951,120 151,171.44166 V 369.85951 L 400.85951,432 Z m -81.8531,91.3678 V 341.04701 L 215.15568,323.62229 v -94.33316 z"
       id="path852"
       inkscape:connector-curvature="0" /><path
       inkscape:connector-curvature="0"
       id="path3360"
       d="M 380.85951,100 131,151.44166 V 349.85951 L 380.85951,412 Z m -81.8531,91.3678 V 321.04701 L 195.15568,303.62229 v -94.33316 z"
       style="fill:#ffffff;fill-opacity:1;fill-rule:evenodd;stroke:none;stroke-width:0.73488092px;stroke-linecap:butt;stroke-linejoin:miter;stroke-opacity:1" /></g></svg>