<?xml version="1.0" encoding="UTF-8" standalone="no"?>
<!-- Created with Inkscape (http://www.inkscape.org/) -->

<svg
   xmlns:dc="http://purl.org/dc/elements/1.1/"
   xmlns:cc="http://creativecommons.org/ns#"
   xmlns:rdf="http://www.w3.org/1999/02/22-rdf-syntax-ns#"
   xmlns:svg="http://www.w3.org/2000/svg"
   xmlns="http://www.w3.org/2000/svg"
   xmlns:sodipodi="http://sodipodi.sourceforge.net/DTD/sodipodi-0.dtd"
   xmlns:inkscape="http://www.inkscape.org/namespaces/inkscape"
   id="svg2"
   version="1.1"
   inkscape:version="0.92.2 2405546, 2018-03-11"
   width="512"
   height="512"
   sodipodi:docname="B884_steam.0.svg">
  <metadata
     id="metadata8">
    <rdf:RDF>
      <cc:Work
         rdf:about="">
        <dc:format>image/svg+xml</dc:format>
        <dc:type
           rdf:resource="http://purl.org/dc/dcmitype/StillImage" />
        <dc:title />
      </cc:Work>
    </rdf:RDF>
  </metadata>
  <defs
     id="defs6" />
  <sodipodi:namedview
     pagecolor="#ffffff"
     bordercolor="#666666"
     borderopacity="1"
     objecttolerance="10"
     gridtolerance="10"
     guidetolerance="10"
     inkscape:pageopacity="0"
     inkscape:pageshadow="2"
     inkscape:window-width="1193"
     inkscape:window-height="665"
     id="namedview4"
     showgrid="false"
     inkscape:zoom="0.23046875"
     inkscape:cx="419.40796"
     inkscape:cy="656.52377"
     inkscape:window-x="15"
     inkscape:window-y="39"
     inkscape:window-maximized="0"
     inkscape:current-layer="svg2" />
  <g
     id="g845">
    <rect
       y="490"
       x="0"
       height="22"
       width="22"
       id="rect6452-6-2-6"
       style="fill:#f7f7f7;fill-opacity:0;stroke:none;stroke-opacity:1" />
    <g
       transform="matrix(8.0447857,6.9727288,-7.6918814,8.6750446,247.5303,-119.54657)"
       id="g1014"
       style="fill:#8a715e;fill-opacity:1">
      <path
         style="fill:#8a715e;fill-opacity:1"
         inkscape:connector-curvature="0"
         d="M 24,1 C 36.703,1 47,11.297 47,24 47,36.703 36.703,47 24,47 11.297,47 1,36.703 1,24 1,11.297 11.297,1 24,1 Z"
         id="path1012" />
    </g>
    <path
       id="path1016"
       d="m 511.63551,224.90352 c -1.5514,61.31166 -25.16123,124.1546 -70.96638,175.81449 C 342.95916,510.9171 180.91869,528.44584 78.725782,439.87127 30.827128,398.35564 4.4968259,340.92283 0.193832,280.22879 0.79908356,346.58547 27.117415,410.48219 79.078686,455.51904 181.2716,544.09362 343.31975,526.5562 441.02203,416.36578 490.72697,360.30764 514.02705,291.07481 511.63551,224.90352 Z"
       inkscape:connector-curvature="0"
       style="opacity:1;fill:#000000;fill-opacity:0.49019608;stroke-width:11.10955811" />
    <path
       sodipodi:nodetypes="ccscccczccccccccccccccsscccccccscccccccscccccsccscccccccccccsccscccsscscccccsssccccccc"
       inkscape:connector-curvature="0"
       id="path1020"
       d="m 238.58548,400.86396 c -14.27783,-1.56228 -27.08367,-7.65533 -37.21961,-17.70914 -3.67954,-3.6497 -5.85918,-6.29102 -8.44515,-10.2339 -4.8757,-7.4341 -8.02546,-15.55627 -9.53723,-24.59323 l -0.44411,-2.65486 -24.84067,-7.17842 -24.84066,-7.17845 c 0,0 -15.78019,-1.12415 -12.90887,-25.56526 2.87131,-24.44103 20.74642,-22.44174 20.74642,-22.44174 12.48624,3.66581 13.86434,3.58647 24.02707,6.53776 l 30.94249,8.98541 1.2118,-1.3838 c 9.7869,-11.17625 22.55564,-18.44035 36.80036,-20.93552 3.01908,-0.52887 5.63958,-0.78611 9.73355,-0.95547 l 3.27867,-0.13568 17.21307,-23.98356 17.21303,-23.9836 0.13243,-3.50222 c 0.58507,-15.48756 5.67497,-30.01195 14.78076,-42.17791 9.48898,-12.67797 22.1953,-21.83625 37.01633,-26.6801 7.75828,-2.53561 14.73439,-3.64157 23.07029,-3.6576 5.33809,-0.0113 7.91758,0.19163 12.80463,1.00188 36.87307,6.11365 63.78633,38.89803 62.64491,76.31067 -0.44394,14.55054 -4.76882,27.95297 -12.92753,40.06133 -10.37333,15.39518 -26.66283,26.65704 -44.79666,30.97039 -4.80908,1.14387 -7.93505,1.53785 -16.45554,2.07402 l -2.41867,0.15231 -23.75947,17.19167 -23.75952,17.19164 -0.002,2.27546 c -0.0144,17.26148 -7.59337,34.39816 -20.33533,45.98994 -7.95084,7.23307 -17.13996,12.14385 -27.5099,14.70164 -5.05864,1.24774 -7.71453,1.55626 -14.03765,1.63064 -3.09935,0.0378 -6.41902,-0.0189 -7.37702,-0.12434 z m 11.57783,-20.08842 c 14.81868,-1.62101 28.06269,-11.47975 34.06883,-25.36056 4.33203,-10.01182 4.67948,-21.45864 0.96296,-31.72569 -2.01965,-5.57938 -5.14755,-10.58298 -9.30924,-14.89168 -6.73958,-6.97769 -15.00186,-11.24308 -24.69796,-12.75043 -3.03961,-0.47251 -9.23889,-0.47524 -12.17788,-0.004 -7.15168,1.14335 -13.46369,3.80761 -19.33792,8.16231 -0.76902,0.5701 -1.32348,1.10634 -1.23213,1.19164 0.0912,0.0854 7.2112,2.15143 15.82184,4.59137 8.61068,2.43992 15.82029,4.52425 16.02132,4.63185 0.20084,0.10734 0.59662,0.19578 0.87907,0.19578 0.69892,0 3.17959,0.91004 5.04615,1.85122 3.34761,1.68793 6.64184,4.55712 8.77353,7.64144 1.4733,2.1317 2.97171,5.34165 3.65171,7.82283 0.5242,1.91271 0.56187,2.32207 0.5657,6.14752 0.004,3.80761 -0.0363,4.24097 -0.54225,6.10926 -2.4955,9.18361 -9.56806,15.91114 -18.80112,17.88397 -2.15293,0.46001 -7.27106,0.52177 -9.11881,0.10999 -0.67623,-0.15043 -9.05363,-2.48353 -18.61648,-5.18412 -9.56282,-2.70054 -17.41769,-4.8794 -17.45521,-4.84191 -0.16864,0.16857 2.08077,5.18891 3.19521,7.1317 3.39976,5.92676 8.27629,11.13627 13.77423,14.71472 8.33864,5.42744 18.2121,7.70276 28.52845,6.57423 z M 363.18125,278.63943 c 21.65953,-2.66713 39.57616,-18.70526 44.6309,-39.95157 1.04606,-4.39695 1.34109,-7.04814 1.34524,-12.0901 0.008,-6.35641 -0.70783,-10.86898 -2.62083,-16.5854 -5.45178,-16.29109 -18.5765,-28.90534 -35.16473,-33.79699 -7.72006,-2.27656 -16.92128,-2.65625 -24.99991,-1.03174 -6.34475,1.27594 -13.15281,4.12842 -18.59415,7.79071 -3.2876,2.21272 -5.19405,3.77506 -7.96448,6.52683 -6.76633,6.72083 -11.57211,15.17223 -13.87005,24.39171 -1.19852,4.80854 -1.46787,7.13979 -1.46787,12.70488 0,5.56531 0.26925,7.89675 1.46798,12.70484 4.67774,18.76487 19.58526,33.59479 38.4148,38.21473 2.14106,0.52532 5.36368,1.09493 7.34162,1.29766 2.12662,0.2177 9.15878,0.11037 11.48148,-0.17537 z m -11.27984,-15.96438 c -15.16247,-2.17259 -27.27524,-13.34377 -30.61511,-28.23523 -2.82953,-12.61591 1.27806,-25.66068 10.88477,-34.56744 4.91069,-4.5529 11.12798,-7.70359 17.88937,-9.06561 2.02809,-0.40853 2.97063,-0.47471 6.76229,-0.47471 3.77454,0 4.73839,0.0669 6.72816,0.4682 14.69208,2.96194 25.89517,14.02228 28.92167,28.55324 1.22464,5.88019 0.84487,12.6251 -1.03673,18.41223 -0.76947,2.36652 -2.67847,6.41137 -3.98457,8.44241 -5.49142,8.5398 -14.27051,14.37819 -24.4586,16.26584 -2.42869,0.44999 -8.57628,0.56145 -11.09125,0.20107 z"
       style="fill:#000000;fill-opacity:0.49019608;stroke-width:0.20491722" />
    <path
       style="fill:#ffffff;stroke-width:0.20491722"
       d="m 218.58547,380.86436 c -14.27783,-1.56227 -27.08367,-7.65532 -37.21961,-17.70913 -3.67954,-3.6497 -5.85918,-6.29102 -8.44515,-10.2339 -4.8757,-7.4341 -8.02546,-15.55627 -9.53723,-24.59323 l -0.44411,-2.65486 -24.84067,-7.17842 -24.84066,-7.17845 c 0,0 -15.780187,-1.12415 -12.90887,-25.56526 2.87131,-24.44103 20.74642,-22.44173 20.74642,-22.44173 12.48625,3.6658 13.86434,3.58646 24.02707,6.53775 l 30.94249,8.98541 1.2118,-1.3838 c 9.7869,-11.17625 22.55564,-18.44035 36.80036,-20.93552 3.01908,-0.52887 5.63958,-0.78611 9.73355,-0.95547 l 3.27867,-0.13568 17.21307,-23.98356 17.21303,-23.9836 0.13243,-3.50222 c 0.58507,-15.48756 5.67498,-30.01195 14.78076,-42.1779 9.48898,-12.67798 22.1953,-21.83626 37.01633,-26.68011 7.75828,-2.53561 14.7344,-3.64157 23.07031,-3.6576 5.33805,-0.0113 7.91758,0.19163 12.80462,1.00188 36.87307,6.11365 63.78633,38.89803 62.64491,76.31067 -0.44394,14.55054 -4.76882,27.95297 -12.92753,40.06133 -10.37333,15.39518 -26.66287,26.65704 -44.79666,30.97039 -4.80907,1.14387 -7.93505,1.53785 -16.45554,2.07402 l -2.41867,0.15231 -23.75948,17.19167 -23.75952,17.19164 -0.002,2.27546 c -0.0144,17.26148 -7.59337,34.39816 -20.33533,45.98994 -7.95084,7.23307 -17.13996,12.14385 -27.5099,14.70164 -5.05864,1.24774 -7.71453,1.55626 -14.03765,1.63064 -3.09935,0.0378 -6.41902,-0.0189 -7.37702,-0.12435 z m 11.57783,-20.08841 c 14.81868,-1.62101 28.0627,-11.47975 34.06883,-25.36056 4.33203,-10.01182 4.67949,-21.45864 0.96296,-31.72569 -2.01964,-5.57938 -5.14755,-10.58298 -9.30923,-14.89168 -6.73959,-6.97769 -15.00187,-11.24308 -24.69797,-12.75043 -3.03961,-0.47251 -9.23889,-0.47523 -12.17788,-0.004 -7.15168,1.14335 -13.46369,3.80761 -19.33792,8.16231 -0.76902,0.5701 -1.32348,1.10634 -1.23213,1.19165 0.0912,0.0854 7.2112,2.15142 15.82184,4.59137 8.61068,2.43991 15.82029,4.52424 16.02132,4.63184 0.20084,0.10734 0.59662,0.19578 0.87907,0.19578 0.69892,0 3.17959,0.91004 5.04615,1.85122 3.34761,1.68793 6.64184,4.55712 8.77353,7.64145 1.4733,2.13169 2.97171,5.34164 3.65171,7.82282 0.5242,1.91271 0.56187,2.32207 0.56571,6.14752 0.004,3.80761 -0.0363,4.24097 -0.54226,6.10926 -2.4955,9.18361 -9.56806,15.91114 -18.80112,17.88397 -2.15293,0.46001 -7.27106,0.52177 -9.11881,0.10999 -0.67623,-0.15043 -9.05363,-2.48353 -18.61648,-5.18412 -9.56282,-2.70054 -17.41768,-4.8794 -17.45521,-4.84191 -0.16864,0.16857 2.08077,5.18891 3.19522,7.1317 3.39975,5.92676 8.27628,11.13627 13.77422,14.71472 8.33864,5.42744 18.2121,7.70276 28.52845,6.57423 z M 343.18126,258.63984 c 21.65953,-2.66713 39.57615,-18.70526 44.63089,-39.95157 1.04606,-4.39695 1.34109,-7.04814 1.34525,-12.0901 0.008,-6.35641 -0.70783,-10.86898 -2.62084,-16.5854 -5.45178,-16.29109 -18.57653,-28.90534 -35.16473,-33.79699 -7.72006,-2.27656 -16.92128,-2.65625 -24.99991,-1.03173 -6.34476,1.27593 -13.15282,4.12841 -18.59416,7.7907 -3.2876,2.21272 -5.19405,3.77507 -7.96448,6.52683 -6.76633,6.72083 -11.57211,15.17223 -13.87005,24.39171 -1.19852,4.80854 -1.46787,7.13979 -1.46787,12.70488 0,5.56532 0.26925,7.89675 1.46798,12.70484 4.67774,18.76487 19.58527,33.59479 38.41479,38.21473 2.14107,0.52532 5.36368,1.09493 7.34164,1.29766 2.12663,0.2177 9.15874,0.11037 11.48149,-0.17537 z m -11.27985,-15.96438 c -15.16248,-2.17259 -27.27525,-13.34377 -30.61512,-28.23523 -2.82952,-12.61591 1.27806,-25.66068 10.88477,-34.56744 4.91069,-4.5529 11.128,-7.70359 17.88937,-9.06561 2.02806,-0.40853 2.97064,-0.47471 6.76226,-0.47471 3.77458,0 4.7384,0.0669 6.72821,0.46821 14.69208,2.96194 25.89513,14.02227 28.92162,28.55323 1.22468,5.88019 0.84491,12.6251 -1.03672,18.41223 -0.76944,2.36652 -2.67848,6.41137 -3.98453,8.44241 -5.49143,8.5398 -14.27055,14.37819 -24.45865,16.26584 -2.42869,0.44999 -8.57624,0.56145 -11.09121,0.20107 z"
       id="path1022"
       inkscape:connector-curvature="0"
       sodipodi:nodetypes="ccscccczccccccccccccccsscccccccscccccccscccccsccscccccccccccsccscccsscscccccsssccccccc" />
  </g>
</svg>
