<?xml version="1.0" encoding="UTF-8" standalone="no"?>
<!-- Created with Inkscape (http://www.inkscape.org/) -->

<svg
   xmlns:dc="http://purl.org/dc/elements/1.1/"
   xmlns:cc="http://creativecommons.org/ns#"
   xmlns:rdf="http://www.w3.org/1999/02/22-rdf-syntax-ns#"
   xmlns:svg="http://www.w3.org/2000/svg"
   xmlns="http://www.w3.org/2000/svg"
   xmlns:sodipodi="http://sodipodi.sourceforge.net/DTD/sodipodi-0.dtd"
   xmlns:inkscape="http://www.inkscape.org/namespaces/inkscape"
   version="1.1"
   width="100%"
   height="100%"
   viewBox="0 0 512 512"
   id="svg2"
   inkscape:version="0.92.2 2405546, 2018-03-11"
   sodipodi:docname="betaradio-tuner.svg">
  <sodipodi:namedview
     pagecolor="#ffffff"
     bordercolor="#666666"
     borderopacity="1"
     objecttolerance="10"
     gridtolerance="10"
     guidetolerance="10"
     inkscape:pageopacity="0"
     inkscape:pageshadow="2"
     inkscape:window-width="1366"
     inkscape:window-height="717"
     id="namedview37"
     showgrid="false"
     inkscape:zoom="0.23046875"
     inkscape:cx="-558.18752"
     inkscape:cy="291.72774"
     inkscape:window-x="0"
     inkscape:window-y="24"
     inkscape:window-maximized="1"
     inkscape:current-layer="svg2" />
  <metadata
     id="metadata101">
    <rdf:RDF>
      <cc:Work
         rdf:about="">
        <dc:format>image/svg+xml</dc:format>
        <dc:type
           rdf:resource="http://purl.org/dc/dcmitype/StillImage" />
      </cc:Work>
    </rdf:RDF>
  </metadata>
  <defs
     id="defs4" />
  <text
     x="729.64001"
     y="231.36"
     id="text49"
     style="font-size:129.22999573px;line-height:0%;font-family:'Gentium Book Basic';letter-spacing:0;word-spacing:0">
    <tspan
       x="729.64001"
       y="231.36"
       id="tspan51" />
  </text>
  <text
     x="378.91"
     y="579.26001"
     transform="scale(4.0128,0.2492)"
     id="text53"
     style="font-size:46.95399857px;font-family:Arial;text-anchor:middle" />
  <text
     x="1310.91"
     y="151.36"
     id="text55"
     style="font-size:129.22999573px;line-height:0%;font-family:'Gentium Book Basic';letter-spacing:0;word-spacing:0">
    <tspan
       x="1310.91"
       y="151.36"
       id="tspan57" />
  </text>
  <text
     x="523.76001"
     y="258.22"
     transform="scale(4.0128,0.2492)"
     id="text59"
     style="font-size:46.95399857px;font-family:Arial;text-anchor:middle" />
  <text
     x="239.33"
     y="-29.9"
     id="text61"
     style="font-size:129.22999573px;line-height:0%;font-family:'Gentium Book Basic';letter-spacing:0;word-spacing:0">
    <tspan
       x="239.33"
       y="-29.9"
       id="tspan63" />
  </text>
  <text
     x="256.72"
     y="-469.13"
     transform="scale(4.0128,0.2492)"
     id="text65"
     style="font-size:46.95399857px;font-family:Arial;text-anchor:middle" />
  <text
     x="1337.38"
     y="-246.37"
     id="text67"
     style="font-size:129.22999573px;line-height:0%;font-family:'Gentium Book Basic';letter-spacing:0;word-spacing:0">
    <tspan
       x="1337.38"
       y="-246.37"
       id="tspan69" />
  </text>
  <text
     x="530.35999"
     y="-1337.8"
     transform="scale(4.0128,0.2492)"
     id="text71"
     style="font-size:46.95399857px;font-family:Arial;text-anchor:middle" />
  <text
     x="1918.65"
     y="-326.37"
     id="text73"
     style="font-size:129.22999573px;line-height:0%;font-family:'Gentium Book Basic';letter-spacing:0;word-spacing:0">
    <tspan
       x="1918.65"
       y="-326.37"
       id="tspan75" />
  </text>
  <text
     x="675.21002"
     y="-1658.83"
     transform="scale(4.0128,0.2492)"
     id="text77"
     style="font-size:46.95399857px;font-family:Arial;text-anchor:middle" />
  <text
     x="1529.53"
     y="-798.77002"
     id="text79"
     style="font-size:129.22999573px;line-height:0%;font-family:'Gentium Book Basic';letter-spacing:0;word-spacing:0">
    <tspan
       x="1529.53"
       y="-798.77002"
       id="tspan81" />
  </text>
  <text
     x="578.23999"
     y="-3554.48"
     transform="scale(4.0128,0.2492)"
     id="text83"
     style="font-size:46.95399857px;font-family:Arial;text-anchor:middle" />
  <text
     x="2110.79"
     y="-878.78003"
     id="text85"
     style="font-size:129.22999573px;line-height:0%;font-family:'Gentium Book Basic';letter-spacing:0;word-spacing:0">
    <tspan
       x="2110.79"
       y="-878.78003"
       id="tspan87" />
  </text>
  <text
     x="723.09003"
     y="-3875.52"
     transform="scale(4.0128,0.2492)"
     id="text89"
     style="font-size:46.95399857px;font-family:Arial;text-anchor:middle" />
  <text
     x="277.98999"
     y="535.94"
     id="text91"
     style="font-size:208.33000183px;line-height:0%;font-family:'Gentium Book Basic';letter-spacing:0;word-spacing:0">
    <tspan
       x="277.98999"
       y="535.94"
       id="tspan93" />
  </text>
  <g
     id="g867">
    <g
       style="fill:#8a715e;fill-opacity:1"
       id="g29"
       transform="matrix(8.0447856,6.9727289,-7.6918815,8.6750446,247.5303,-119.54657)">
      <path
         id="path27"
         d="M 24,1 C 36.703,1 47,11.297 47,24 47,36.703 36.703,47 24,47 11.297,47 1,36.703 1,24 1,11.297 11.297,1 24,1 Z"
         inkscape:connector-curvature="0"
         style="fill:#8a715e;fill-opacity:1" />
    </g>
    <path
       style="opacity:1;fill:#000000;fill-opacity:0.49019608;stroke-width:11.10955811"
       inkscape:connector-curvature="0"
       d="m 511.63551,224.90353 c -1.5514,61.31165 -25.16124,124.15459 -70.96639,175.81448 C 342.95915,510.91711 180.91869,528.44585 78.725777,439.87128 30.827124,398.35565 4.4968216,340.92283 0.19382846,280.22879 0.79907918,346.58547 27.117411,410.48219 79.078681,455.51905 181.27159,544.09362 343.31974,526.5562 441.02202,416.36579 490.72696,360.30765 514.02705,291.07482 511.63551,224.90353 Z"
       id="path51" />
    <path
       style="fill:#000000;fill-opacity:0.49019608;stroke-width:0.67574072"
       d="M 244.82776,427.83265 C 179.51523,413.1731 133.05051,364.169 121.42955,297.69045 c -4.3897,-25.11142 1.56551,-61.38251 14.6325,-89.12179 18.94255,-40.21223 53.59655,-70.04796 97.02045,-83.53089 12.52338,-3.88847 18.85412,-4.55858 43.06597,-4.55858 24.21183,0 30.54257,0.67011 43.06595,4.55858 43.4239,13.48293 78.07791,43.31866 97.0205,83.53089 21.85606,46.39717 20.95793,96.39952 -2.514,139.96437 -19.81573,36.77869 -56.99861,66.28545 -97.44282,77.32636 -16.5379,4.51467 -55.35187,5.58663 -71.45034,1.97326 z m 63.45328,-31.65656 c 24.60168,-6.14888 50.39939,-22.66131 65.99413,-42.24113 10.53058,-13.22156 22.23988,-38.1908 25.30926,-53.97015 1.45562,-7.48309 1.98902,-19.86672 1.35294,-31.40997 -2.90211,-52.66784 -36.57458,-96.84281 -86.1969,-113.08192 -13.67181,-4.47411 -19.45198,-5.26229 -38.592,-5.26229 -19.14004,0 -24.92022,0.78818 -38.59202,5.26229 -49.62232,16.23911 -83.29473,60.41408 -86.1969,113.08192 -1.31475,23.85913 1.51347,38.98754 11.10893,59.42398 8.88766,18.92893 20.03715,33.33508 34.71555,44.85563 31.78779,24.94912 71.38185,33.2679 111.09701,23.34164 z m -55.10522,-31.08538 c -35.77685,-9.63513 -62.94019,-39.16804 -68.98441,-75.00231 -2.85707,-16.93876 0.91128,-40.27873 9.19607,-56.95726 10.52099,-21.18031 34.50842,-40.75737 59.07579,-48.21415 11.56137,-3.50912 35.80902,-3.50912 47.37037,0 24.56738,7.45678 48.5548,27.03384 59.07575,48.21415 8.28478,16.67853 12.05319,40.0185 9.19612,56.95726 -8.96717,53.16349 -63.61041,88.82325 -114.92969,75.00231 z M 290.739,335.75836 c 16.5497,-2.68372 34.06553,-16.60942 42.54525,-33.8249 6.74189,-13.6874 6.46485,-38.33668 -0.59828,-53.23516 -10.91416,-23.02149 -31.25341,-35.95699 -56.5375,-35.95699 -25.28411,0 -45.62336,12.9355 -56.53752,35.95699 -7.06313,14.89848 -7.34017,39.54776 -0.59828,53.23516 5.4084,10.98005 17.9122,23.95126 28.09691,29.14711 7.73136,3.94426 25.29052,7.52521 31.9752,6.52096 2.15329,-0.32364 7.39769,-1.15297 11.65422,-1.84317 z m -27.41161,-32.93637 c -13.5401,-6.14351 -21.00894,-21.9923 -16.62456,-35.27714 4.8641,-14.73831 15.45217,-22.76164 30.03769,-22.76164 22.71012,0 38.5124,29.08488 25.36778,46.69065 -9.12371,12.22025 -25.98464,17.15415 -38.78091,11.34813 z"
       id="path52"
       inkscape:connector-curvature="0" />
    <path
       inkscape:connector-curvature="0"
       id="path3367"
       d="M 224.82776,407.83265 C 159.51523,393.1731 113.05051,344.169 101.42955,277.69045 c -4.389706,-25.11142 1.56551,-61.38251 14.6325,-89.12179 18.94255,-40.21223 53.59655,-70.04796 97.02045,-83.53089 12.52338,-3.88847 18.85412,-4.55858 43.06597,-4.55858 24.21183,0 30.54257,0.67011 43.06595,4.55858 43.4239,13.48293 78.07791,43.31866 97.0205,83.53089 21.85606,46.39717 20.95793,96.39952 -2.514,139.96437 -19.81573,36.77869 -56.99861,66.28545 -97.44282,77.32636 -16.5379,4.51467 -55.35187,5.58663 -71.45034,1.97326 z m 63.45328,-31.65656 c 24.60168,-6.14888 50.39939,-22.66131 65.99413,-42.24113 10.53058,-13.22156 22.23988,-38.1908 25.30926,-53.97015 1.45562,-7.48309 1.98902,-19.86672 1.35294,-31.40997 -2.90211,-52.66784 -36.57458,-96.84281 -86.1969,-113.08192 -13.67181,-4.47411 -19.45198,-5.26229 -38.592,-5.26229 -19.14004,0 -24.92022,0.78818 -38.59202,5.26229 -49.62232,16.23911 -83.29473,60.41408 -86.1969,113.08192 -1.31475,23.85913 1.51347,38.98754 11.10893,59.42398 8.88766,18.92893 20.03715,33.33508 34.71555,44.85563 31.78779,24.94912 71.38185,33.2679 111.09701,23.34164 z m -55.10522,-31.08538 c -35.77685,-9.63513 -62.94019,-39.16804 -68.98441,-75.00231 -2.85707,-16.93876 0.91128,-40.27873 9.19607,-56.95726 10.52099,-21.18031 34.50842,-40.75737 59.07579,-48.21415 11.56137,-3.50912 35.80902,-3.50912 47.37037,0 24.56738,7.45678 48.5548,27.03384 59.07575,48.21415 8.28478,16.67853 12.05319,40.0185 9.19612,56.95726 -8.96717,53.16349 -63.61041,88.82325 -114.92969,75.00231 z M 270.739,315.75836 c 16.5497,-2.68372 34.06553,-16.60942 42.54525,-33.8249 6.74189,-13.6874 6.46485,-38.33668 -0.59828,-53.23516 -10.91416,-23.02149 -31.25341,-35.95699 -56.5375,-35.95699 -25.28411,0 -45.62336,12.9355 -56.53752,35.95699 -7.06313,14.89848 -7.34017,39.54776 -0.59828,53.23516 5.4084,10.98005 17.9122,23.95126 28.09691,29.14711 7.73136,3.94426 25.29052,7.52521 31.9752,6.52096 2.15329,-0.32364 7.39769,-1.15297 11.65422,-1.84317 z m -27.41161,-32.93637 c -13.5401,-6.14351 -21.00894,-21.9923 -16.62456,-35.27714 4.8641,-14.73831 15.45217,-22.76164 30.03769,-22.76164 22.71012,0 38.5124,29.08488 25.36778,46.69065 -9.12371,12.22025 -25.98464,17.15415 -38.78091,11.34813 z"
       style="fill:#ffffff;fill-opacity:1;stroke-width:0.67574072" />
  </g>
</svg>
