<?xml version="1.0" encoding="UTF-8" standalone="no"?>
<!-- Created with Inkscape (http://www.inkscape.org/) -->

<svg
   xmlns:dc="http://purl.org/dc/elements/1.1/"
   xmlns:cc="http://creativecommons.org/ns#"
   xmlns:rdf="http://www.w3.org/1999/02/22-rdf-syntax-ns#"
   xmlns:svg="http://www.w3.org/2000/svg"
   xmlns="http://www.w3.org/2000/svg"
   xmlns:sodipodi="http://sodipodi.sourceforge.net/DTD/sodipodi-0.dtd"
   xmlns:inkscape="http://www.inkscape.org/namespaces/inkscape"
   id="svg2"
   version="1.1"
   inkscape:version="0.92.2 2405546, 2018-03-11"
   width="512"
   height="512"
   sodipodi:docname="bittorrent.svg">
  <metadata
     id="metadata8">
    <rdf:RDF>
      <cc:Work
         rdf:about="">
        <dc:format>image/svg+xml</dc:format>
        <dc:type
           rdf:resource="http://purl.org/dc/dcmitype/StillImage" />
        <dc:title></dc:title>
      </cc:Work>
    </rdf:RDF>
  </metadata>
  <defs
     id="defs6" />
  <sodipodi:namedview
     pagecolor="#ffffff"
     bordercolor="#666666"
     borderopacity="1"
     objecttolerance="10"
     gridtolerance="10"
     guidetolerance="10"
     inkscape:pageopacity="0"
     inkscape:pageshadow="2"
     inkscape:window-width="1366"
     inkscape:window-height="717"
     id="namedview4"
     showgrid="false"
     inkscape:zoom="0.16296602"
     inkscape:cx="141.12392"
     inkscape:cy="577.96353"
     inkscape:window-x="0"
     inkscape:window-y="24"
     inkscape:window-maximized="1"
     inkscape:current-layer="svg2" />
  <g
     id="g874">
    <path
       style="fill:#a56de2;fill-opacity:1;stroke-width:11.10955811"
       inkscape:connector-curvature="0"
       d="M 432.91326,56.473998 C 535.10617,145.04858 538.74004,306.17371 441.03006,416.37278 343.32009,526.57182 181.27966,544.10062 79.086741,455.52603 -23.106205,366.95146 -26.740032,205.82633 70.969941,95.627258 168.67991,-14.571832 330.72036,-32.100592 432.91326,56.473998 Z"
       id="path961" />
    <path
       inkscape:connector-curvature="0"
       id="path851"
       d="m 282.91797,118.55859 a 16.92728,16.92728 0 0 0 -4.5293,0.47266 c 0,0 -35.35181,8.0337 -70.66211,34.57227 -35.31031,26.53859 -71.69526,73.46773 -73.42578,146.73046 l -0.006,0.2168 v 0.21875 c 0.0705,33.09894 7.95351,78.12197 35.78711,117.10156 27.83364,38.97959 76.45175,70.31676 150.96094,73.81836 l 0.36328,0.0156 13.83398,0.0547 c 20.89126,-8.54746 41.06682,-19.7734 59.96094,-33.61133 l -72.8125,-0.28906 C 256.4654,454.70164 219.89739,429.38243 197.63086,398.19922 175.38981,367.05179 168.247,328.47506 168.1543,300.90625 c 1.5484,-62.58573 30.58961,-98.20344 59.91015,-120.24023 29.35699,-22.06419 57.8711,-28.63477 57.8711,-28.63477 a 16.92728,16.92728 0 0 0 -3.01758,-33.47266 z"
       style="color:#000000;font-style:normal;font-variant:normal;font-weight:normal;font-stretch:normal;font-size:medium;line-height:normal;font-family:sans-serif;text-indent:0;text-align:start;text-decoration:none;text-decoration-line:none;text-decoration-style:solid;text-decoration-color:#000000;letter-spacing:normal;word-spacing:normal;text-transform:none;writing-mode:lr-tb;direction:ltr;baseline-shift:baseline;text-anchor:start;white-space:normal;clip-rule:nonzero;display:inline;overflow:visible;visibility:visible;opacity:1;isolation:auto;mix-blend-mode:normal;color-interpolation:sRGB;color-interpolation-filters:linearRGB;solid-color:#000000;solid-opacity:1;fill:#000000;fill-opacity:0.49019608;fill-rule:evenodd;stroke:none;stroke-width:33.85117722;stroke-linecap:round;stroke-linejoin:miter;stroke-miterlimit:4;stroke-dasharray:none;stroke-dashoffset:0;stroke-opacity:1;color-rendering:auto;image-rendering:auto;shape-rendering:auto;text-rendering:auto;enable-background:accumulate" />
    <path
       inkscape:connector-curvature="0"
       id="path4135"
       d="m 262.91797,97.783203 a 16.92728,16.92728 0 0 0 -4.5293,0.472656 c 0,0 -35.35181,8.033691 -70.66211,34.572261 -35.31031,26.53859 -71.69526,73.46774 -73.42578,146.73047 l -0.006,0.2168 v 0.21875 c 0.0705,33.09894 7.95351,78.12197 35.78711,117.10156 27.83364,38.97959 76.45175,70.31676 150.96094,73.81836 l 0.36328,0.0156 74.3125,0.29492 c 15.6205,-9.57523 30.5498,-20.81167 44.51172,-33.67188 l -117.8418,-0.46875 C 236.4654,433.92625 199.89739,408.60704 177.63086,377.42383 155.38981,346.2764 148.247,307.69967 148.1543,280.13086 c 1.5484,-62.58573 30.58961,-98.20345 59.91015,-120.24024 29.35699,-22.06419 57.8711,-28.63476 57.8711,-28.63476 a 16.92728,16.92728 0 0 0 -3.01758,-33.472657 z"
       style="color:#000000;font-style:normal;font-variant:normal;font-weight:normal;font-stretch:normal;font-size:medium;line-height:normal;font-family:sans-serif;text-indent:0;text-align:start;text-decoration:none;text-decoration-line:none;text-decoration-style:solid;text-decoration-color:#000000;letter-spacing:normal;word-spacing:normal;text-transform:none;writing-mode:lr-tb;direction:ltr;baseline-shift:baseline;text-anchor:start;white-space:normal;clip-rule:nonzero;display:inline;overflow:visible;visibility:visible;opacity:1;isolation:auto;mix-blend-mode:normal;color-interpolation:sRGB;color-interpolation-filters:linearRGB;solid-color:#000000;solid-opacity:1;fill:#ffffff;fill-opacity:1;fill-rule:evenodd;stroke:none;stroke-width:33.85117722;stroke-linecap:round;stroke-linejoin:miter;stroke-miterlimit:4;stroke-dasharray:none;stroke-dashoffset:0;stroke-opacity:1;color-rendering:auto;image-rendering:auto;shape-rendering:auto;text-rendering:auto;enable-background:accumulate" />
    <path
       inkscape:connector-curvature="0"
       id="path853"
       d="m 307.82617,163.51953 a 16.92728,16.92728 0 0 0 -2.86914,0.10742 c 0,0 -29.87394,3.14396 -59.95312,22.19727 -30.07919,19.05331 -61.23908,56.1923 -62.9961,117.3789 L 182,303.46875 v 0.26367 c 0.0726,29.34879 8.38547,66.26933 35.5332,95.77149 27.05444,29.40074 72.27132,49.33844 139.38868,46.90039 l 52.99023,0.20898 c 10.92963,-9.15076 21.34929,-19.22382 31.11719,-30.24023 1.01964,-1.14998 2.01219,-2.31369 3.00976,-3.47461 l -87.3789,-0.34766 -0.35938,0.0137 c -60.50043,2.3318 -94.02615,-14.43109 -113.85937,-35.98437 -19.76802,-21.48245 -26.47992,-49.79974 -26.58008,-72.69922 1.53767,-50.46994 24.25457,-74.88909 47.25586,-89.45898 23.04757,-14.59924 45.49609,-17.14258 45.49609,-17.14258 a 16.92728,16.92728 0 0 0 -0.78516,-33.75977 z"
       style="color:#000000;font-style:normal;font-variant:normal;font-weight:normal;font-stretch:normal;font-size:medium;line-height:normal;font-family:sans-serif;text-indent:0;text-align:start;text-decoration:none;text-decoration-line:none;text-decoration-style:solid;text-decoration-color:#000000;letter-spacing:normal;word-spacing:normal;text-transform:none;writing-mode:lr-tb;direction:ltr;baseline-shift:baseline;text-anchor:start;white-space:normal;clip-rule:nonzero;display:inline;overflow:visible;visibility:visible;opacity:1;isolation:auto;mix-blend-mode:normal;color-interpolation:sRGB;color-interpolation-filters:linearRGB;solid-color:#000000;solid-opacity:1;fill:#000000;fill-opacity:0.49019608;fill-rule:evenodd;stroke:none;stroke-width:33.85117722;stroke-linecap:round;stroke-linejoin:miter;stroke-miterlimit:4;stroke-dasharray:none;stroke-dashoffset:0;stroke-opacity:1;color-rendering:auto;image-rendering:auto;shape-rendering:auto;text-rendering:auto;enable-background:accumulate" />
    <path
       inkscape:connector-curvature="0"
       id="path4135-3"
       d="m 287.82617,142.74414 a 16.92728,16.92728 0 0 0 -2.86914,0.10742 c 0,0 -29.87394,3.14396 -59.95312,22.19727 -30.07919,19.05331 -61.23908,56.19229 -62.9961,117.3789 L 162,282.69336 v 0.26367 c 0.0726,29.34879 8.38547,66.26933 35.5332,95.77149 27.05444,29.40074 72.27132,49.33844 139.38868,46.90039 l 95.16796,0.37695 c 3.03427,-3.12987 6.01697,-6.33678 8.93946,-9.63281 6.90983,-7.79304 13.29423,-15.8487 19.1914,-24.10743 l -123.56054,-0.49023 -0.35938,0.0137 c -60.50043,2.3318 -94.02615,-14.43109 -113.85937,-35.98437 -19.76802,-21.48245 -26.47992,-49.79974 -26.58008,-72.69922 1.53767,-50.46994 24.25457,-74.88909 47.25586,-89.45899 23.04757,-14.59923 45.49609,-17.14257 45.49609,-17.14257 a 16.92728,16.92728 0 0 0 -0.78516,-33.75977 z"
       style="color:#000000;font-style:normal;font-variant:normal;font-weight:normal;font-stretch:normal;font-size:medium;line-height:normal;font-family:sans-serif;text-indent:0;text-align:start;text-decoration:none;text-decoration-line:none;text-decoration-style:solid;text-decoration-color:#000000;letter-spacing:normal;word-spacing:normal;text-transform:none;writing-mode:lr-tb;direction:ltr;baseline-shift:baseline;text-anchor:start;white-space:normal;clip-rule:nonzero;display:inline;overflow:visible;visibility:visible;opacity:1;isolation:auto;mix-blend-mode:normal;color-interpolation:sRGB;color-interpolation-filters:linearRGB;solid-color:#000000;solid-opacity:1;fill:#ffffff;fill-opacity:1;fill-rule:evenodd;stroke:none;stroke-width:33.85117722;stroke-linecap:round;stroke-linejoin:miter;stroke-miterlimit:4;stroke-dasharray:none;stroke-dashoffset:0;stroke-opacity:1;color-rendering:auto;image-rendering:auto;shape-rendering:auto;text-rendering:auto;enable-background:accumulate" />
    <path
       inkscape:connector-curvature="0"
       id="path855"
       d="m 330.42383,209.66797 a 16.92728,16.92728 0 0 0 -1.18164,0.0195 c 0,0 -22.87063,0.6618 -46.80274,11.10352 -23.93215,10.44173 -51.26465,33.93849 -53.20703,73.66601 l -0.041,0.83203 0.043,0.83203 c 1.18653,23.93871 6.03735,53.55574 30.39062,74.87305 24.27119,21.24543 63.78527,31.72052 128.06836,28.18555 l 67.24023,0.26562 c 8.29173,-10.88825 15.67306,-22.17596 22.15235,-33.76172 l -90.15039,-0.35937 -0.50782,0.0293 c -60.18454,3.38957 -90.00904,-7.14047 -104.50585,-19.83008 -14.27869,-12.49864 -17.72079,-29.56904 -18.81641,-50.15039 1.51402,-25.4263 15.90952,-36.15427 32.87109,-43.55469 17.12951,-7.47371 34.51758,-8.30274 34.51758,-8.30274 a 16.92728,16.92728 0 0 0 -0.0703,-33.84765 z"
       style="color:#000000;font-style:normal;font-variant:normal;font-weight:normal;font-stretch:normal;font-size:medium;line-height:normal;font-family:sans-serif;text-indent:0;text-align:start;text-decoration:none;text-decoration-line:none;text-decoration-style:solid;text-decoration-color:#000000;letter-spacing:normal;word-spacing:normal;text-transform:none;writing-mode:lr-tb;direction:ltr;baseline-shift:baseline;text-anchor:start;white-space:normal;clip-rule:nonzero;display:inline;overflow:visible;visibility:visible;opacity:1;isolation:auto;mix-blend-mode:normal;color-interpolation:sRGB;color-interpolation-filters:linearRGB;solid-color:#000000;solid-opacity:1;fill:#000000;fill-opacity:0.49019608;fill-rule:evenodd;stroke:none;stroke-width:33.85117722;stroke-linecap:round;stroke-linejoin:miter;stroke-miterlimit:4;stroke-dasharray:none;stroke-dashoffset:0;stroke-opacity:1;color-rendering:auto;image-rendering:auto;shape-rendering:auto;text-rendering:auto;enable-background:accumulate" />
    <path
       inkscape:connector-curvature="0"
       id="path4135-3-6"
       d="m 310.42383,188.89258 a 16.92728,16.92728 0 0 0 -1.18164,0.0195 c 0,0 -22.87063,0.66179 -46.80274,11.10351 -23.93215,10.44173 -51.26465,33.9385 -53.20703,73.66602 l -0.041,0.83203 0.043,0.83203 c 1.18653,23.93871 6.03735,53.55574 30.39062,74.87305 24.27119,21.24543 63.78527,31.72052 128.06836,28.18555 l 101.5957,0.40234 c 6.93681,-10.97558 13.01873,-22.26709 18.26172,-33.77734 l -120.61523,-0.48047 -0.50782,0.0293 c -60.18454,3.38957 -90.00904,-7.14046 -104.50585,-19.83007 -14.27868,-12.49864 -17.72079,-29.56904 -18.81641,-50.15039 1.51402,-25.4263 15.90952,-36.15427 32.87109,-43.55469 17.12951,-7.47371 34.51758,-8.30274 34.51758,-8.30274 a 16.92728,16.92728 0 0 0 -0.0703,-33.84765 z"
       style="color:#000000;font-style:normal;font-variant:normal;font-weight:normal;font-stretch:normal;font-size:medium;line-height:normal;font-family:sans-serif;text-indent:0;text-align:start;text-decoration:none;text-decoration-line:none;text-decoration-style:solid;text-decoration-color:#000000;letter-spacing:normal;word-spacing:normal;text-transform:none;writing-mode:lr-tb;direction:ltr;baseline-shift:baseline;text-anchor:start;white-space:normal;clip-rule:nonzero;display:inline;overflow:visible;visibility:visible;opacity:1;isolation:auto;mix-blend-mode:normal;color-interpolation:sRGB;color-interpolation-filters:linearRGB;solid-color:#000000;solid-opacity:1;fill:#ffffff;fill-opacity:1;fill-rule:evenodd;stroke:none;stroke-width:33.85117722;stroke-linecap:round;stroke-linejoin:miter;stroke-miterlimit:4;stroke-dasharray:none;stroke-dashoffset:0;stroke-opacity:1;color-rendering:auto;image-rendering:auto;shape-rendering:auto;text-rendering:auto;enable-background:accumulate" />
    <path
       style="opacity:1;fill:#000000;fill-opacity:0.49019608;stroke-width:11.10955811"
       inkscape:connector-curvature="0"
       d="m 511.63551,224.90354 c -1.5514,61.31164 -25.16124,124.15461 -70.96639,175.81447 C 342.95916,510.91712 180.91871,528.44582 78.725758,439.87131 30.827125,398.35566 4.4968178,340.92286 0.19382591,280.22883 0.79907991,346.58551 27.117406,410.48221 79.07869,455.51913 c 102.19292,88.57449 264.24107,71.03709 361.94332,-39.15333 49.70495,-56.05812 73.00502,-125.29098 70.6135,-191.46226 z"
       id="path965" />
  </g>
</svg>
