<?xml version="1.0" encoding="UTF-8" standalone="no"?>
<!-- Created using Karbon, part of Calligra: http://www.calligra.org/karbon -->

<svg
   xmlns:dc="http://purl.org/dc/elements/1.1/"
   xmlns:cc="http://creativecommons.org/ns#"
   xmlns:rdf="http://www.w3.org/1999/02/22-rdf-syntax-ns#"
   xmlns:svg="http://www.w3.org/2000/svg"
   xmlns="http://www.w3.org/2000/svg"
   xmlns:sodipodi="http://sodipodi.sourceforge.net/DTD/sodipodi-0.dtd"
   xmlns:inkscape="http://www.inkscape.org/namespaces/inkscape"
   width="512"
   height="512"
   id="svg2"
   version="1.1"
   inkscape:version="0.92.2 2405546, 2018-03-11"
   sodipodi:docname="blam.svg">
  <metadata
     id="metadata11">
    <rdf:RDF>
      <cc:Work
         rdf:about="">
        <dc:format>image/svg+xml</dc:format>
        <dc:type
           rdf:resource="http://purl.org/dc/dcmitype/StillImage" />
        <dc:title></dc:title>
      </cc:Work>
    </rdf:RDF>
  </metadata>
  <sodipodi:namedview
     pagecolor="#ffffff"
     bordercolor="#666666"
     borderopacity="1"
     objecttolerance="10"
     gridtolerance="10"
     guidetolerance="10"
     inkscape:pageopacity="0"
     inkscape:pageshadow="2"
     inkscape:window-width="1366"
     inkscape:window-height="717"
     id="namedview9"
     showgrid="false"
     inkscape:showpageshadow="false"
     borderlayer="true"
     inkscape:zoom="0.30729165"
     inkscape:cx="949.12746"
     inkscape:cy="-2.5574412"
     inkscape:window-x="0"
     inkscape:window-y="24"
     inkscape:window-maximized="1"
     inkscape:current-layer="svg2"
     showguides="false">
    <sodipodi:guide
       position="9.5367432e-07,48.000001"
       orientation="47.999999,0"
       id="guide4069"
       inkscape:locked="false" />
    <sodipodi:guide
       position="9.5367432e-07,1.9073486e-06"
       orientation="0,47.999999"
       id="guide4071"
       inkscape:locked="false" />
    <sodipodi:guide
       position="48,1.9073486e-06"
       orientation="-47.999999,0"
       id="guide4073"
       inkscape:locked="false" />
    <sodipodi:guide
       position="48,48.000001"
       orientation="0,-47.999999"
       id="guide4075"
       inkscape:locked="false" />
    <sodipodi:guide
       position="4.000001,44.000001"
       orientation="39.999999,0"
       id="guide4077"
       inkscape:locked="false" />
    <sodipodi:guide
       position="4.000001,4.0000019"
       orientation="0,39.999999"
       id="guide4079"
       inkscape:locked="false" />
    <sodipodi:guide
       position="44,4.0000019"
       orientation="-39.999999,0"
       id="guide4081"
       inkscape:locked="false" />
    <sodipodi:guide
       position="44,44.000001"
       orientation="0,-39.999999"
       id="guide4083"
       inkscape:locked="false" />
  </sodipodi:namedview>
  <defs
     id="defs4" />
  <g
     id="g851">
    <path
       style="fill:#f37329;fill-opacity:1;stroke-width:11.10955811"
       inkscape:connector-curvature="0"
       d="m 432.91327,56.47398 c 102.19291,88.57459 105.82678,249.69971 8.1168,359.89879 C 343.3201,526.57182 181.27964,544.10062 79.086727,455.52603 -23.106185,366.95144 -26.740041,205.82632 70.969927,95.62724 168.6799,-14.57184 330.72036,-32.10061 432.91327,56.47398 Z"
       id="path27" />
    <path
       style="opacity:1;fill:#000000;fill-opacity:0.49019608;stroke-width:11.10955811"
       inkscape:connector-curvature="0"
       d="M 511.63551,224.90353 C 510.08412,286.21518 486.47428,349.05814 440.66913,400.718 342.95915,510.91712 180.91869,528.44582 78.725777,439.8713 30.827125,398.35565 4.4968212,340.92285 0.19382726,280.22882 0.79907926,346.58549 27.117413,410.48218 79.078687,455.51908 181.27159,544.09362 343.31975,526.55622 441.02202,416.36578 490.72697,360.30767 514.02704,291.07481 511.63551,224.90353 Z"
       id="path51" />
    <path
       style="fill:#000000;fill-opacity:0.49019608;stroke-width:0.4989084"
       d="m 285.13552,431.56841 c -5.51612,-1.10721 -13.33312,-5.80933 -14.99265,-9.01851 -0.41171,-0.79622 -0.92524,-1.44756 -1.14116,-1.44756 -0.39994,0 -2.14425,-3.69522 -3.37565,-7.15116 -0.38926,-1.09256 -0.89152,-5.9061 -1.17125,-11.22542 -0.72967,-13.87481 -2.79524,-24.40872 -7.10891,-36.25383 -9.41911,-25.86446 -26.71509,-46.94897 -50.87873,-62.02345 -1.45953,-0.91059 -5.5723,-3.0829 -9.13949,-4.82754 -16.37968,-8.01082 -30.78471,-11.49954 -51.46766,-12.46483 -10.77219,-0.50274 -16.76119,-3.65981 -22.11685,-11.65876 -4.98999,-7.45284 -4.99112,-19.08288 -0.002,-26.61419 3.23001,-4.87642 7.99525,-8.49655 14.05272,-10.67577 2.57624,-0.92682 16.73711,-1.03004 24.06913,-0.17545 29.30741,3.41599 53.58568,12.18596 77.37355,27.94943 9.29211,6.15758 16.35685,12.01935 25.47296,21.13546 9.11852,9.11851 14.98288,16.18678 21.1342,25.47292 15.18587,22.92485 23.45747,45.04963 27.512,73.58901 0.7787,5.48099 1.37305,20.19287 0.96823,23.96682 -1.47063,13.71075 -15.67376,24.13541 -29.18784,21.42283 z m 117.49298,0.0601 c -6.13772,-1.40309 -10.10489,-3.64915 -14.0289,-7.94273 -5.22442,-5.71629 -6.21231,-9.29522 -6.91028,-25.03477 -1.31472,-29.64828 -6.73881,-55.08615 -17.23379,-80.82321 -19.59892,-48.06231 -55.00511,-88.93228 -100.02468,-115.45977 -7.04571,-4.15163 -23.88294,-12.46323 -30.847,-15.22743 -26.43644,-10.49325 -50.85495,-15.65666 -80.40958,-17.00296 -15.78229,-0.71894 -19.14508,-1.6487 -25.00847,-6.91444 -5.54382,-4.97875 -8.02759,-10.50165 -8.10276,-18.01722 -0.1113,-11.12548 6.03876,-19.94436 16.63974,-23.86059 2.48483,-0.91795 4.60181,-1.25805 8.98787,-1.44389 6.13131,-0.2598 23.52279,0.81137 34.17522,2.10487 23.10791,2.80597 49.21042,9.44159 70.09663,17.81951 6.43385,2.58077 7.41356,2.99678 14.29752,6.07125 8.49214,3.79272 24.44026,12.3803 31.92184,17.18897 1.13625,0.73031 3.15683,1.99609 4.49018,2.81281 4.13425,2.53246 16.1089,11.17667 22.28025,16.08357 20.9073,16.62365 39.72527,36.35157 55.26053,57.93272 4.54621,6.31545 5.60619,7.90763 11.68055,17.54517 4.81157,7.63398 14.24154,25.67698 18.12195,34.67413 13.9559,32.35796 21.321,63.7227 23.59068,100.46258 0.9847,15.93968 0.25958,21.36236 -3.73298,27.91674 -2.89138,4.7466 -7.17615,8.05187 -13.08732,10.0953 -3.23477,1.11832 -9.44708,1.63942 -12.1572,1.01984 z m -242.71896,-7.5462 c -16.41408,-1.7691 -30.38657,-16.00833 -32.178,-32.79212 -1.28709,-12.05885 2.74565,-22.96184 11.60605,-31.37835 6.75194,-6.4137 14.39347,-9.63218 23.82744,-10.03562 4.77572,-0.20433 6.46649,-0.0658 9.97817,0.81494 14.24038,3.57303 24.39648,13.7305 27.9872,27.99083 1.46832,5.83145 1.15218,13.91838 -0.77089,19.71954 -4.63001,13.96693 -17.12651,24.19078 -31.40756,25.69564 -2.50372,0.26389 -4.77674,0.45314 -5.05114,0.42069 -0.2744,-0.0329 -2.07048,-0.2285 -3.99127,-0.43555 z"
       id="path834"
       inkscape:connector-curvature="0" />
    <path
       inkscape:connector-curvature="0"
       id="path842"
       d="m 265.13552,411.56841 c -5.51612,-1.10721 -13.33312,-5.80933 -14.99265,-9.01851 -0.41171,-0.79622 -0.92524,-1.44756 -1.14116,-1.44756 -0.39994,0 -2.14425,-3.69522 -3.37565,-7.15116 -0.38926,-1.09256 -0.89152,-5.9061 -1.17125,-11.22542 -0.72967,-13.87481 -2.79524,-24.40872 -7.10891,-36.25383 -9.41911,-25.86446 -26.71509,-46.94897 -50.87873,-62.02345 -1.45953,-0.91059 -5.5723,-3.0829 -9.13949,-4.82754 -16.37968,-8.01082 -30.78471,-11.49954 -51.46766,-12.46483 -10.77219,-0.50274 -16.76119,-3.65981 -22.11685,-11.65876 -4.989994,-7.45284 -4.991124,-19.08288 -0.002,-26.61419 3.23001,-4.87642 7.99525,-8.49655 14.05272,-10.67577 2.57624,-0.92682 16.73711,-1.03004 24.06913,-0.17545 29.30741,3.41599 53.58568,12.18596 77.37355,27.94943 9.29211,6.15758 16.35685,12.01935 25.47296,21.13546 9.11852,9.11851 14.98288,16.18678 21.1342,25.47292 15.18587,22.92485 23.45747,45.04963 27.512,73.58901 0.7787,5.48099 1.37305,20.19287 0.96823,23.96682 -1.47063,13.71075 -15.67376,24.13541 -29.18784,21.42283 z m 117.49298,0.0601 c -6.13772,-1.40309 -10.10489,-3.64915 -14.0289,-7.94273 -5.22442,-5.71629 -6.21231,-9.29522 -6.91028,-25.03477 -1.31472,-29.64828 -6.73881,-55.08615 -17.23379,-80.82321 -19.59892,-48.06231 -55.00511,-88.93228 -100.02468,-115.45977 -7.04571,-4.15163 -23.88294,-12.46323 -30.847,-15.22743 -26.43644,-10.49325 -50.85495,-15.65666 -80.40958,-17.00296 -15.78229,-0.71894 -19.14508,-1.6487 -25.00847,-6.91444 -5.54382,-4.97875 -8.02759,-10.50165 -8.10276,-18.01722 -0.111304,-11.12548 6.03876,-19.94436 16.63974,-23.86059 2.48483,-0.91795 4.60181,-1.25805 8.98787,-1.443884 6.13131,-0.2598 23.52279,0.811364 34.17522,2.104864 23.10791,2.80597 49.21042,9.44159 70.09663,17.81951 6.43385,2.58077 7.41356,2.99678 14.29752,6.07125 8.49214,3.79272 24.44026,12.3803 31.92184,17.18897 1.13625,0.73031 3.15683,1.99609 4.49018,2.81281 4.13425,2.53246 16.1089,11.17667 22.28025,16.08357 20.9073,16.62365 39.72527,36.35157 55.26053,57.93272 4.54621,6.31545 5.60619,7.90763 11.68055,17.54517 4.81157,7.63398 14.24154,25.67698 18.12195,34.67413 13.9559,32.35796 21.321,63.7227 23.59068,100.46258 0.9847,15.93968 0.25958,21.36236 -3.73298,27.91674 -2.89138,4.7466 -7.17615,8.05187 -13.08732,10.0953 -3.23477,1.11832 -9.44708,1.63942 -12.1572,1.01984 z m -242.71896,-7.5462 c -16.41408,-1.7691 -30.38657,-16.00833 -32.178,-32.79212 -1.28709,-12.05885 2.74565,-22.96184 11.60605,-31.37835 6.75194,-6.4137 14.39347,-9.63218 23.82744,-10.03562 4.77572,-0.20433 6.46649,-0.0658 9.97817,0.81494 14.24038,3.57303 24.39648,13.7305 27.9872,27.99083 1.46832,5.83145 1.15218,13.91838 -0.77089,19.71954 -4.63001,13.96693 -17.12651,24.19078 -31.40756,25.69564 -2.50372,0.26389 -4.77674,0.45314 -5.05114,0.42069 -0.2744,-0.0329 -2.07048,-0.2285 -3.99127,-0.43555 z"
       style="fill:#ffffff;stroke-width:0.4989084" />
  </g>
</svg>
