<?xml version="1.0" encoding="UTF-8" standalone="no"?>
<!-- Created with Inkscape (http://www.inkscape.org/) -->

<svg
   xmlns:dc="http://purl.org/dc/elements/1.1/"
   xmlns:cc="http://creativecommons.org/ns#"
   xmlns:rdf="http://www.w3.org/1999/02/22-rdf-syntax-ns#"
   xmlns:svg="http://www.w3.org/2000/svg"
   xmlns="http://www.w3.org/2000/svg"
   xmlns:sodipodi="http://sodipodi.sourceforge.net/DTD/sodipodi-0.dtd"
   xmlns:inkscape="http://www.inkscape.org/namespaces/inkscape"
   id="svg2"
   version="1.1"
   inkscape:version="0.92.2 2405546, 2018-03-11"
   width="512"
   height="512"
   sodipodi:docname="bluefish.svg">
  <metadata
     id="metadata8">
    <rdf:RDF>
      <cc:Work
         rdf:about="">
        <dc:format>image/svg+xml</dc:format>
        <dc:type
           rdf:resource="http://purl.org/dc/dcmitype/StillImage" />
        <dc:title />
      </cc:Work>
    </rdf:RDF>
  </metadata>
  <defs
     id="defs6" />
  <sodipodi:namedview
     pagecolor="#ffffff"
     bordercolor="#666666"
     borderopacity="1"
     objecttolerance="10"
     gridtolerance="10"
     guidetolerance="10"
     inkscape:pageopacity="0"
     inkscape:pageshadow="2"
     inkscape:window-width="1366"
     inkscape:window-height="717"
     id="namedview4"
     showgrid="false"
     inkscape:zoom="0.11523438"
     inkscape:cx="3294.2684"
     inkscape:cy="-236.22876"
     inkscape:window-x="0"
     inkscape:window-y="24"
     inkscape:window-maximized="1"
     inkscape:current-layer="svg2"
     inkscape:snap-global="false" />
  <g
     id="g931">
    <path
       style="fill:#3689e6;fill-opacity:1;stroke-width:11.10955811"
       inkscape:connector-curvature="0"
       d="M 432.91327,56.473967 C 535.10618,145.04856 538.74005,306.17367 441.03007,416.37276 343.3201,526.57184 181.27964,544.10061 79.086729,455.52602 -23.106186,366.95143 -26.740042,205.82631 70.969928,95.627227 168.6799,-14.571854 330.72036,-32.100623 432.91327,56.473967 Z"
       id="path27" />
    <path
       style="opacity:1;fill:#000000;fill-opacity:0.49019608;stroke-width:11.10955811"
       inkscape:connector-curvature="0"
       d="M 511.63551,224.90351 C 510.08412,286.21516 486.47428,349.05812 440.66913,400.71799 342.95915,510.91711 180.91869,528.44584 78.725776,439.87129 30.827124,398.35563 4.4968216,340.92284 0.19382768,280.2288 0.79907934,346.58548 27.117411,410.48217 79.078682,455.51906 181.27159,544.09361 343.31975,526.55619 441.02202,416.36576 490.72697,360.30766 514.02704,291.0748 511.63551,224.90351 Z"
       id="path51" />
    <g
       style="fill:#000000;fill-opacity:0.49019608"
       id="g102"
       transform="matrix(0.9689441,0,0,0.9689441,26.981366,31.863548)">
      <path
         sodipodi:nodetypes="cccc"
         inkscape:connector-curvature="0"
         id="path84"
         d="m 100.00977,243.80078 c 0,0 2.67684,10.58682 9.1582,21.10352 -0.0452,-2.39636 -0.0771,-5.1933 -0.0254,-8.64063 -6.19825,-6.19697 -9.13281,-12.46289 -9.13281,-12.46289 z"
         style="fill:#000000;stroke:none;stroke-width:3.55731893;fill-opacity:0.49019608" />
      <path
         sodipodi:nodetypes="ssccccs"
         inkscape:connector-curvature="0"
         id="path86"
         d="m 134.375,146.6875 c -10.59871,0.0383 -17.35997,4.45652 -25.07227,11.9375 C 98.57257,169.03332 96,205.69336 96,205.69336 c 0,0 9.91055,-4.23791 22.86914,-6.61524 6.80091,-18.26779 18.26156,-36.02343 37.48828,-47.875 -2.21866,-0.94084 -4.69346,-1.76779 -7.49219,-2.46874 -5.60897,-1.40479 -10.34291,-2.06186 -14.49023,-2.04688 z"
         style="fill:#000000;stroke:none;stroke-width:3.55731893;fill-opacity:0.49019608" />
      <path
         sodipodi:nodetypes="czczczczc"
         inkscape:connector-curvature="0"
         id="path88"
         d="m 348.54186,230.51876 c 0,0 9.39598,-54.95844 20.74098,-71.8699 11.345,-16.9115 37.14083,-29.42326 37.14083,-29.42326 0,0 -4.466,16.073 -6.27056,32.31735 -1.80459,16.24432 -1.92938,65.11701 -1.92938,65.11701 0,0 -14.29441,39.66123 -10.61166,58.84652 C 391.29478,304.69174 418,334.22365 418,334.22365 c 0,0 -44.84989,-5.33235 -59.81119,-24.59979 -14.96127,-19.2674 -9.64695,-79.1051 -9.64695,-79.1051 z"
         style="fill:#000000;stroke:none;stroke-width:3.55731893;fill-opacity:0.49019608" />
      <path
         inkscape:connector-curvature="0"
         id="path90"
         d="m 117.2838,208.28906 a 12.782231,12.299883 0 0 0 -10.07422,12.07032 12.782231,12.299883 0 0 0 5.38867,9.95703 c 1.00824,-7.02753 2.48844,-14.48394 4.68555,-22.02735 z"
         style="fill:#000000;fill-opacity:0.49019608;stroke:none;stroke-width:3.3715899" />
      <path
         sodipodi:nodetypes="cscsccsccccccscccsc"
         inkscape:connector-curvature="0"
         id="path92"
         d="m 205.01562,137.32617 c -94.12077,8.21748 -92.31788,107.81944 -91.80664,129.97461 0.16103,6.97812 1.7148,21.00708 6.54883,36.92774 4.24774,3.79311 15.44161,11.58292 38.68555,15.24609 31.3633,4.94278 100.69336,-17.96094 100.69336,-17.96094 0,0 -38.1545,74.75897 -93.29492,67.33594 14.44372,8.71249 32.72441,13.94746 55.82812,13.05078 66.09604,-2.56528 104.70366,-64.46836 121.5332,-100.11523 -2.56896,-19.67182 -1.34745,-41.79706 -0.84765,-48.84571 -14.97973,-28.81929 -45.54493,-75.09807 -93.1582,-90.73828 9.31138,6.35792 12.71087,15.78921 17.07812,27.54297 7.48702,7.31735 7.69238,44.43605 7.69238,44.43605 0,0 1.43147,10.28943 -0.0381,0.43895 0,0 16.44941,44.81841 -29.66016,64.50977 -46.10956,19.69134 -61.54101,-41.52344 -61.54101,-41.52344 0,0 -6.22171,-15.81024 6.5332,-44.77344 -6.39952,1.92568 -10.50586,3.67383 -10.50586,3.67383 0,0 2.72787,-38.87184 14.10547,-49.9082 4.08982,-3.96716 7.93352,-7.1039 12.15429,-9.27149 z"
         style="fill:#000000;fill-opacity:0.49019608;stroke:none;stroke-width:3.55731893" />
      <path
         sodipodi:nodetypes="czczc"
         inkscape:connector-curvature="0"
         id="path94"
         d="m 188.48057,238.95107 c 0,0 13.13691,27.21961 42.74294,22.27468 29.60603,-4.94492 38.13987,-42.0037 38.13987,-42.0037 0,0 14.58934,38.46711 -26.30336,55.36851 -40.8927,16.9014 -54.57945,-35.63949 -54.57945,-35.63949 z"
         style="fill:#000000;stroke:none;stroke-width:3.37360716;fill-opacity:0.49019608" />
      <path
         sodipodi:nodetypes="czczzzc"
         inkscape:connector-curvature="0"
         id="path96"
         d="m 185.55519,190.54387 c 0,0 23.33682,-9.9874 44.01762,-6.81962 20.6808,3.1678 36.26805,24.1787 36.26805,24.1787 0,0 -0.0343,-26.20793 -5.26971,-40.29785 -5.23527,-14.08992 -8.84332,-24.28894 -26.96854,-28.82847 -18.12521,-4.53951 -26.20595,-0.47008 -35.95806,8.98953 -9.75212,9.45962 -12.08936,42.77771 -12.08936,42.77771 z"
         style="fill:#000000;stroke:none;stroke-width:3.2330718;fill-opacity:0.49019608" />
      <path
         sodipodi:end="6.2773337"
         sodipodi:start="6.2786748"
         d="m 248.01281,216.38773 a 12.782231,12.299883 0 0 1 -12.72016,12.35522 12.782231,12.299883 0 0 1 -12.844,-12.23602 12.782231,12.299883 0 0 1 12.71155,-12.36342 12.782231,12.299883 0 0 1 12.85253,12.22772 l -12.78202,0.072 z"
         sodipodi:ry="12.299883"
         sodipodi:rx="12.782231"
         sodipodi:cy="216.44321"
         sodipodi:cx="235.23071"
         id="path98"
         style="fill:#000000;fill-opacity:0.49019608;stroke:none;stroke-width:3.3715899"
         sodipodi:type="arc" />
      <path
         sodipodi:nodetypes="czcczc"
         inkscape:connector-curvature="0"
         id="path100"
         d="m 122.05147,309.04697 c 0,0 8.38229,11.05494 36.17612,15.43517 27.79383,4.38024 89.23442,-15.91751 89.23442,-15.91751 0,0 -34.83754,68.26303 -84.89328,59.32886 -36.20817,-3.53466 -53.12646,-35.99637 -52.45541,-48.47601 0.67105,-12.47964 11.93815,-10.37051 11.93815,-10.37051 z"
         style="fill:#000000;stroke:none;stroke-width:3.55731893;fill-opacity:0.49019608" />
    </g>
    <g
       transform="matrix(0.9689441,0,0,0.9689441,6.9813664,11.863348)"
       id="g82">
      <path
         style="fill:#ffffff;stroke:none;stroke-width:3.55731893"
         d="m 100.00977,243.80078 c 0,0 2.67684,10.58682 9.1582,21.10352 -0.0452,-2.39636 -0.0771,-5.1933 -0.0254,-8.64063 -6.19825,-6.19697 -9.13281,-12.46289 -9.13281,-12.46289 z"
         id="path3765-6"
         inkscape:connector-curvature="0"
         sodipodi:nodetypes="cccc" />
      <path
         style="fill:#ffffff;stroke:none;stroke-width:3.55731893"
         d="m 134.375,146.6875 c -10.59871,0.0383 -17.35997,4.45652 -25.07227,11.9375 C 98.57257,169.03332 96,205.69336 96,205.69336 c 0,0 9.91055,-4.23791 22.86914,-6.61524 6.80091,-18.26779 18.26156,-36.02343 37.48828,-47.875 -2.21866,-0.94084 -4.69346,-1.76779 -7.49219,-2.46874 -5.60897,-1.40479 -10.34291,-2.06186 -14.49023,-2.04688 z"
         id="path3767-7"
         inkscape:connector-curvature="0"
         sodipodi:nodetypes="ssccccs" />
      <path
         style="fill:#ffffff;stroke:none;stroke-width:3.55731893"
         d="m 348.54186,230.51876 c 0,0 9.39598,-54.95844 20.74098,-71.8699 11.345,-16.9115 37.14083,-29.42326 37.14083,-29.42326 0,0 -4.466,16.073 -6.27056,32.31735 -1.80459,16.24432 -1.92938,65.11701 -1.92938,65.11701 0,0 -14.29441,39.66123 -10.61166,58.84652 C 391.29478,304.69174 418,334.22365 418,334.22365 c 0,0 -44.84989,-5.33235 -59.81119,-24.59979 -14.96127,-19.2674 -9.64695,-79.1051 -9.64695,-79.1051 z"
         id="path3813"
         inkscape:connector-curvature="0"
         sodipodi:nodetypes="czczczczc" />
      <path
         style="fill:#ffffff;fill-opacity:1;stroke:none;stroke-width:3.3715899"
         d="m 117.2838,208.28906 a 12.782231,12.299883 0 0 0 -10.07422,12.07032 12.782231,12.299883 0 0 0 5.38867,9.95703 c 1.00824,-7.02753 2.48844,-14.48394 4.68555,-22.02735 z"
         id="path61"
         inkscape:connector-curvature="0" />
      <path
         style="fill:#ffffff;fill-opacity:1;stroke:none;stroke-width:3.55731893"
         d="m 205.01562,137.32617 c -94.12077,8.21748 -92.31788,107.81944 -91.80664,129.97461 0.16103,6.97812 1.7148,21.00708 6.54883,36.92774 4.24774,3.79311 15.44161,11.58292 38.68555,15.24609 31.3633,4.94278 100.69336,-17.96094 100.69336,-17.96094 0,0 -38.1545,74.75897 -93.29492,67.33594 14.44372,8.71249 32.72441,13.94746 55.82812,13.05078 66.09604,-2.56528 104.70366,-64.46836 121.5332,-100.11523 -2.56896,-19.67182 -1.34745,-41.79706 -0.84765,-48.84571 -14.97973,-28.81929 -45.54493,-75.09807 -93.1582,-90.73828 9.31138,6.35792 12.71087,15.78921 17.07812,27.54297 7.48702,7.31735 7.69238,44.43605 7.69238,44.43605 0,0 1.43147,10.28943 -0.0381,0.43895 0,0 16.44941,44.81841 -29.66016,64.50977 -46.10956,19.69134 -61.54101,-41.52344 -61.54101,-41.52344 0,0 -6.22171,-15.81024 6.5332,-44.77344 -6.39952,1.92568 -10.50586,3.67383 -10.50586,3.67383 0,0 2.72787,-38.87184 14.10547,-49.9082 4.08982,-3.96716 7.93352,-7.1039 12.15429,-9.27149 z"
         id="path2993"
         inkscape:connector-curvature="0"
         sodipodi:nodetypes="cscsccsccccccscccsc" />
      <path
         style="fill:#ffffff;stroke:none;stroke-width:3.37360716"
         d="m 188.48057,238.95107 c 0,0 13.13691,27.21961 42.74294,22.27468 29.60603,-4.94492 38.13987,-42.0037 38.13987,-42.0037 0,0 14.58934,38.46711 -26.30336,55.36851 -40.8927,16.9014 -54.57945,-35.63949 -54.57945,-35.63949 z"
         id="path3765"
         inkscape:connector-curvature="0"
         sodipodi:nodetypes="czczc" />
      <path
         style="fill:#ffffff;stroke:none;stroke-width:3.2330718"
         d="m 185.55519,190.54387 c 0,0 23.33682,-9.9874 44.01762,-6.81962 20.6808,3.1678 36.26805,24.1787 36.26805,24.1787 0,0 -0.0343,-26.20793 -5.26971,-40.29785 -5.23527,-14.08992 -8.84332,-24.28894 -26.96854,-28.82847 -18.12521,-4.53951 -26.20595,-0.47008 -35.95806,8.98953 -9.75212,9.45962 -12.08936,42.77771 -12.08936,42.77771 z"
         id="path3767"
         inkscape:connector-curvature="0"
         sodipodi:nodetypes="czczzzc" />
      <path
         sodipodi:type="arc"
         style="fill:#ffffff;fill-opacity:1;stroke:none;stroke-width:3.3715899"
         id="path3793"
         sodipodi:cx="235.23071"
         sodipodi:cy="216.44321"
         sodipodi:rx="12.782231"
         sodipodi:ry="12.299883"
         d="m 248.01281,216.38773 a 12.782231,12.299883 0 0 1 -12.72016,12.35522 12.782231,12.299883 0 0 1 -12.844,-12.23602 12.782231,12.299883 0 0 1 12.71155,-12.36342 12.782231,12.299883 0 0 1 12.85253,12.22772 l -12.78202,0.072 z"
         sodipodi:start="6.2786748"
         sodipodi:end="6.2773337" />
      <path
         style="fill:#ffffff;stroke:none;stroke-width:3.55731893"
         d="m 122.05147,309.04697 c 0,0 8.38229,11.05494 36.17612,15.43517 27.79383,4.38024 89.23442,-15.91751 89.23442,-15.91751 0,0 -34.83754,68.26303 -84.89328,59.32886 -36.20817,-3.53466 -53.12646,-35.99637 -52.45541,-48.47601 0.67105,-12.47964 11.93815,-10.37051 11.93815,-10.37051 z"
         id="path3815"
         inkscape:connector-curvature="0"
         sodipodi:nodetypes="czcczc" />
    </g>
  </g>
</svg>
