<?xml version="1.0" encoding="UTF-8" standalone="no"?>
<svg
   xmlns:dc="http://purl.org/dc/elements/1.1/"
   xmlns:cc="http://creativecommons.org/ns#"
   xmlns:rdf="http://www.w3.org/1999/02/22-rdf-syntax-ns#"
   xmlns:svg="http://www.w3.org/2000/svg"
   xmlns="http://www.w3.org/2000/svg"
   xmlns:sodipodi="http://sodipodi.sourceforge.net/DTD/sodipodi-0.dtd"
   xmlns:inkscape="http://www.inkscape.org/namespaces/inkscape"
   viewBox="0 0 511.99999 511.99999"
   height="512"
   width="512"
   version="1.1"
   id="svg2"
   inkscape:version="0.92.2 2405546, 2018-03-11"
   sodipodi:docname="braindump.svg">
  <sodipodi:namedview
     pagecolor="#ffffff"
     bordercolor="#666666"
     borderopacity="1"
     objecttolerance="10"
     gridtolerance="10"
     guidetolerance="10"
     inkscape:pageopacity="0"
     inkscape:pageshadow="2"
     inkscape:window-width="1366"
     inkscape:window-height="717"
     id="namedview18"
     showgrid="false"
     inkscape:zoom="0.14363107"
     inkscape:cx="-1158.7102"
     inkscape:cy="95.360405"
     inkscape:window-x="0"
     inkscape:window-y="24"
     inkscape:window-maximized="1"
     inkscape:current-layer="svg2" />
  <metadata
     id="metadata8">
    <rdf:RDF>
      <cc:Work
         rdf:about="">
        <dc:format>image/svg+xml</dc:format>
        <dc:type
           rdf:resource="http://purl.org/dc/dcmitype/StillImage" />
        <dc:title></dc:title>
      </cc:Work>
    </rdf:RDF>
  </metadata>
  <defs
     id="defs6">
    <filter
       height="1.096"
       y="-0.048"
       width="1.096"
       x="-0.048"
       id="filter4329"
       style="color-interpolation-filters:sRGB">
      <feGaussianBlur
         id="feGaussianBlur4331"
         stdDeviation="2.1324205" />
    </filter>
    <filter
       height="1.0327445"
       y="-0.016372267"
       width="1.0399742"
       x="-0.019987123"
       id="filter4376"
       style="color-interpolation-filters:sRGB">
      <feGaussianBlur
         id="feGaussianBlur4378"
         stdDeviation="1.1736058" />
    </filter>
    <filter
       height="1.0570984"
       y="-0.0285492"
       width="1.0632123"
       x="-0.031606145"
       id="filter4436"
       style="color-interpolation-filters:sRGB">
      <feGaussianBlur
         id="feGaussianBlur4438"
         stdDeviation="0.63519096" />
    </filter>
  </defs>
  <g
     id="g884">
    <path
       style="fill:#f9c440;fill-opacity:1;stroke-width:11.10955811"
       inkscape:connector-curvature="0"
       d="M 432.91321,56.473965 C 535.10617,145.04868 538.74009,306.17379 441.03001,416.37283 343.31994,526.5719 181.27962,544.1005 79.086662,455.52611 -23.106295,366.95139 -26.739895,205.82627 70.969862,95.627245 168.67994,-14.571795 330.72026,-32.100755 432.91321,56.473965 Z"
       id="path52" />
    <path
       style="opacity:1;fill:#000000;fill-opacity:0.49019608;stroke-width:11.10955811"
       inkscape:connector-curvature="0"
       d="m 511.63545,224.90339 c -1.552,61.31168 -25.16128,124.15488 -70.9664,175.81472 C 342.9593,510.9172 180.91866,528.4458 78.725702,439.87139 30.827143,398.35555 4.496903,340.92291 0.19386321,280.22883 0.79866319,346.58563 27.117384,410.48227 79.078662,455.51907 181.27162,544.0938 343.31962,526.5562 441.02201,416.36579 c 49.70496,-56.05824 73.00512,-125.29088 70.61344,-191.4624 z"
       id="path54" />
    <g
       style="fill:#000000;fill-opacity:0.49019608"
       transform="translate(20.000001,19.999997)"
       id="g69">
      <path
         style="fill:#000000;stroke-width:1.19321442;fill-opacity:0.49019608"
         d="m 219.00528,345.28568 c -1.73468,-0.94703 -48.25328,-47.47617 -50.49423,-50.50567 -1.36893,-1.8506 -1.81293,-3.14394 -1.80808,-5.26688 0.006,-2.47604 0.52717,-3.5379 4.34317,-8.84341 11.59063,-16.11478 18.40255,-31.09828 21.83212,-48.02201 2.26285,-11.16621 2.83721,-17.84635 3.56577,-41.46965 0.36205,-11.74081 0.95568,-23.32414 1.31903,-25.7407 2.60721,-17.33735 8.14565,-28.66809 19.47458,-39.84183 34.84072,-34.363571 93.98694,-33.97056 140.40285,0.93294 7.51994,5.65479 18.16593,15.8663 24.63723,23.63165 13.73162,16.47759 23.58307,36.83888 28.05436,57.98356 1.56554,7.40352 1.69221,9.1121 1.66488,22.45479 -0.0253,13.64871 -0.12782,14.85496 -1.81786,21.9722 -4.28751,18.05615 -12.369,32.82115 -24.45345,44.67683 -9.74109,9.55664 -19.52864,15.13676 -32.0139,18.25182 -8.8756,2.21445 -14.32965,2.86945 -33.87067,4.06766 -28.41317,1.74225 -40.76591,3.70423 -56.98493,9.05086 -9.40769,3.10129 -22.03097,8.8473 -31.90078,14.52105 -5.2529,3.01967 -9.08894,3.7088 -11.95009,2.14679 z"
         id="path65"
         inkscape:connector-curvature="0" />
      <path
         style="fill:#000000;stroke-width:1.19321442;fill-opacity:0.49019608"
         d="m 138.49557,411.70869 c -16.00061,-2.71057 -32.68524,-18.061 -37.53664,-34.53501 -1.241916,-4.2171 -1.285356,-12.22066 -0.0846,-15.59929 1.11818,-3.14655 4.07816,-7.66573 5.01946,-7.66358 0.9647,0.002 51.75568,51.10391 51.75347,52.07013 -0.002,0.99965 -4.01258,3.62734 -7.23162,4.73845 -3.53047,1.21862 -8.25282,1.61055 -11.92006,0.9893 z m 35.47073,-2.99842 c -1.2072,-0.65327 -17.60447,-16.71301 -36.4383,-35.68832 -29.30008,-29.52012 -34.35284,-34.87728 -35.00193,-37.11025 -2.20178,-7.57501 3.90845,-12.56545 11.25407,-9.19159 2.33068,1.07047 64.3043,62.4266 69.06331,68.37519 4.24258,5.3031 4.52659,10.63322 0.72508,13.60949 -2.07107,1.6215 -6.6111,1.62409 -9.60224,0.006 z m 17.93417,-18.17522 c -1.6091,-0.80109 -14.79661,-13.62902 -36.71741,-35.71618 -31.49317,-31.73221 -34.26822,-34.69858 -34.98432,-37.39647 -2.11692,-7.97525 4.7089,-12.48027 12.2388,-8.0776 4.40438,2.57527 68.8106,67.47166 70.13289,70.66669 3.47214,8.38982 -2.70951,14.48663 -10.66996,10.52356 z m 20.04159,-15.68473 c -1.08442,-0.23317 -2.91928,-1.01902 -4.07736,-1.7469 -1.15808,-0.7279 -17.10535,-16.41722 -35.43841,-34.86513 -22.96824,-23.1121 -33.63223,-34.26825 -34.29562,-35.87834 -3.63551,-8.82373 4.00493,-14.60968 12.35804,-9.35851 1.14166,0.71768 17.07551,16.39863 35.40859,34.84655 22.96819,23.11209 33.63217,34.26825 34.29556,35.87833 2.85049,6.91833 -1.36568,12.60265 -8.2508,11.124 z"
         id="path67"
         inkscape:connector-curvature="0" />
    </g>
    <g
       id="g63">
      <path
         inkscape:connector-curvature="0"
         id="path2986"
         d="m 219.00528,345.28568 c -1.73468,-0.94703 -48.25328,-47.47617 -50.49423,-50.50567 -1.36893,-1.8506 -1.81293,-3.14394 -1.80808,-5.26688 0.006,-2.47604 0.52717,-3.5379 4.34317,-8.84341 11.59063,-16.11478 18.40255,-31.09828 21.83212,-48.02201 2.26285,-11.16621 2.83721,-17.84635 3.56577,-41.46965 0.36205,-11.74081 0.95568,-23.32414 1.31903,-25.7407 2.60721,-17.33735 8.14565,-28.66809 19.47458,-39.84183 34.84072,-34.363571 93.98694,-33.97056 140.40285,0.93294 7.51994,5.65479 18.16593,15.8663 24.63723,23.63165 13.73162,16.47759 23.58307,36.83888 28.05436,57.98356 1.56554,7.40352 1.69221,9.1121 1.66488,22.45479 -0.0253,13.64871 -0.12782,14.85496 -1.81786,21.9722 -4.28751,18.05615 -12.369,32.82115 -24.45345,44.67683 -9.74109,9.55664 -19.52864,15.13676 -32.0139,18.25182 -8.8756,2.21445 -14.32965,2.86945 -33.87067,4.06766 -28.41317,1.74225 -40.76591,3.70423 -56.98493,9.05086 -9.40769,3.10129 -22.03097,8.8473 -31.90078,14.52105 -5.2529,3.01967 -9.08894,3.7088 -11.95009,2.14679 z"
         style="fill:#ffffff;stroke-width:1.19321442" />
      <path
         inkscape:connector-curvature="0"
         id="path2984"
         d="m 138.49557,411.70869 c -16.00061,-2.71057 -32.68524,-18.061 -37.53664,-34.53501 -1.241916,-4.2171 -1.285356,-12.22066 -0.0846,-15.59929 1.11818,-3.14655 4.07816,-7.66573 5.01946,-7.66358 0.9647,0.002 51.75568,51.10391 51.75347,52.07013 -0.002,0.99965 -4.01258,3.62734 -7.23162,4.73845 -3.53047,1.21862 -8.25282,1.61055 -11.92006,0.9893 z m 35.47073,-2.99842 c -1.2072,-0.65327 -17.60447,-16.71301 -36.4383,-35.68832 -29.30008,-29.52012 -34.35284,-34.87728 -35.00193,-37.11025 -2.20178,-7.57501 3.90845,-12.56545 11.25407,-9.19159 2.33068,1.07047 64.3043,62.4266 69.06331,68.37519 4.24258,5.3031 4.52659,10.63322 0.72508,13.60949 -2.07107,1.6215 -6.6111,1.62409 -9.60224,0.006 z m 17.93417,-18.17522 c -1.6091,-0.80109 -14.79661,-13.62902 -36.71741,-35.71618 -31.49317,-31.73221 -34.26822,-34.69858 -34.98432,-37.39647 -2.11692,-7.97525 4.7089,-12.48027 12.2388,-8.0776 4.40438,2.57527 68.8106,67.47166 70.13289,70.66669 3.47214,8.38982 -2.70951,14.48663 -10.66996,10.52356 z m 20.04159,-15.68473 c -1.08442,-0.23317 -2.91928,-1.01902 -4.07736,-1.7469 -1.15808,-0.7279 -17.10535,-16.41722 -35.43841,-34.86513 -22.96824,-23.1121 -33.63223,-34.26825 -34.29562,-35.87834 -3.63551,-8.82373 4.00493,-14.60968 12.35804,-9.35851 1.14166,0.71768 17.07551,16.39863 35.40859,34.84655 22.96819,23.11209 33.63217,34.26825 34.29556,35.87833 2.85049,6.91833 -1.36568,12.60265 -8.2508,11.124 z"
         style="fill:#ffffff;stroke-width:1.19321442" />
    </g>
  </g>
</svg>
