<?xml version="1.0" encoding="UTF-8" standalone="no"?>
<!-- Created using Karbon, part of Calligra: http://www.calligra.org/karbon -->

<svg
   xmlns:dc="http://purl.org/dc/elements/1.1/"
   xmlns:cc="http://creativecommons.org/ns#"
   xmlns:rdf="http://www.w3.org/1999/02/22-rdf-syntax-ns#"
   xmlns:svg="http://www.w3.org/2000/svg"
   xmlns="http://www.w3.org/2000/svg"
   xmlns:sodipodi="http://sodipodi.sourceforge.net/DTD/sodipodi-0.dtd"
   xmlns:inkscape="http://www.inkscape.org/namespaces/inkscape"
   width="512"
   height="512"
   id="svg2"
   version="1.1"
   inkscape:version="0.92.2 2405546, 2018-03-11"
   sodipodi:docname="bt-logo.svg"
   viewBox="0 0 512 512">
  <metadata
     id="metadata11">
    <rdf:RDF>
      <cc:Work
         rdf:about="">
        <dc:format>image/svg+xml</dc:format>
        <dc:type
           rdf:resource="http://purl.org/dc/dcmitype/StillImage" />
        <dc:title></dc:title>
      </cc:Work>
    </rdf:RDF>
  </metadata>
  <sodipodi:namedview
     pagecolor="#ffffff"
     bordercolor="#666666"
     borderopacity="1"
     objecttolerance="10"
     gridtolerance="10"
     guidetolerance="10"
     inkscape:pageopacity="0"
     inkscape:pageshadow="2"
     inkscape:window-width="1366"
     inkscape:window-height="717"
     id="namedview9"
     showgrid="false"
     inkscape:showpageshadow="false"
     borderlayer="true"
     inkscape:zoom="0.43457603"
     inkscape:cx="-166.18933"
     inkscape:cy="251.41421"
     inkscape:window-x="0"
     inkscape:window-y="24"
     inkscape:window-maximized="1"
     inkscape:current-layer="svg2"
     inkscape:snap-global="false"
     inkscape:document-units="px" />
  <defs
     id="defs4" />
  <g
     transform="matrix(3.7795276,0,0,3.7795276,-1.4959261e-5,-610.51964)"
     id="g855">
    <path
       style="fill:#3689e6;fill-opacity:1;stroke-width:2.93940377"
       inkscape:connector-curvature="0"
       d="m 114.54164,176.47539 c 27.03854,23.43536 28,66.06638 2.14757,95.22322 -25.85243,29.15684 -68.725635,33.79466 -95.764176,10.3593 -27.0385417,-23.43536 -27.9999994,-66.06638 -2.14757,-95.22322 25.852429,-29.15684 68.725634,-33.79466 95.764176,-10.3593 z"
       id="path27" />
    <path
       style="opacity:1;fill:#000000;fill-opacity:0.49019608;stroke-width:2.93940377"
       inkscape:connector-curvature="0"
       d="m 135.37023,221.03904 c -0.41047,16.22204 -6.65724,32.84924 -18.77652,46.51758 C 90.741279,296.71347 47.868074,301.35128 20.829532,277.91593 8.156347,266.93158 1.189788,251.73582 0.05128753,235.67719 c 0.1601395,17.55687 7.12353137,34.46287 20.87161747,46.37888 27.038541,23.43535 69.913781,18.79524 95.764175,-10.35931 13.1511,-14.83204 19.31591,-33.1499 18.68315,-50.65772 z"
       id="path51" />
    <path
       style="fill:#000000;fill-opacity:0.49019608;stroke-width:0.04431933"
       d="m 69.49531,260.07901 0.05158,-15.75409 -6.572138,6.55261 c -3.614676,3.60393 -6.591004,6.55269 -6.614064,6.5528 -0.02311,4e-5 -1.10516,-1.06574 -2.404507,-2.36832 l -2.362431,-2.36836 0.265347,-0.27786 c 0.14594,-0.15285 3.867103,-3.87555 8.269174,-8.27275 l 8.003877,-7.99481 -8.204866,-8.22794 c -4.512673,-4.52536 -8.204808,-8.24689 -8.204725,-8.27004 9.6e-5,-0.0231 1.070258,-1.10956 2.378199,-2.41423 l 2.378063,-2.3721 0.232721,0.21967 c 0.128011,0.12079 3.080358,3.06941 6.560815,6.55243 l 6.328093,6.33278 0.05157,-15.75524 0.05157,-15.75524 11.090681,11.11426 c 6.099882,6.11282 11.450803,11.4892 11.890952,11.94752 l 0.800122,0.83342 -7.911708,7.89267 -7.91171,7.89267 7.860026,7.87882 7.860021,7.87881 -0.672313,0.70164 c -0.369805,0.38587 -5.75593,5.77169 -11.969251,11.96841 l -11.296923,11.26678 z m 14.361679,-8.21269 c 2.6e-5,-0.0122 -1.713855,-1.73523 -3.808682,-3.82893 l -3.808786,-3.80674 -0.02502,7.64234 -0.02502,7.64233 3.834072,-3.81309 c 2.108393,-2.09754 3.833786,-3.82339 3.833804,-3.8356 z m 0.103012,-31.46634 c 1.58e-4,-0.0121 -1.713855,-1.73522 -3.808675,-3.82892 l -3.808787,-3.80675 -0.02502,7.64234 -0.02502,7.64234 3.834076,-3.81309 c 2.10839,-2.09755 3.83378,-3.82339 3.833799,-3.83559 z"
       id="path839"
       inkscape:connector-curvature="0" />
    <path
       inkscape:connector-curvature="0"
       id="path850"
       d="m 64.203643,254.78734 0.05158,-15.75409 -6.572138,6.55261 c -3.614676,3.60393 -6.591004,6.55269 -6.614064,6.5528 -0.02311,4e-5 -1.10516,-1.06574 -2.404507,-2.36832 l -2.362431,-2.36836 0.265347,-0.27786 c 0.14594,-0.15285 3.867103,-3.87555 8.269174,-8.27275 l 8.003877,-7.99481 -8.204866,-8.22794 c -4.512673,-4.52536 -8.204808,-8.24689 -8.204725,-8.27004 9.6e-5,-0.0231 1.070258,-1.10956 2.378199,-2.41423 l 2.378063,-2.3721 0.232721,0.21967 c 0.128011,0.12079 3.080358,3.06941 6.560815,6.55243 l 6.328093,6.33278 0.05157,-15.75524 0.05157,-15.75524 11.090681,11.11426 c 6.099882,6.11282 11.450803,11.4892 11.890952,11.94752 l 0.800122,0.83342 -7.911708,7.89267 -7.91171,7.89267 7.860026,7.87882 7.860021,7.87881 -0.672313,0.70164 c -0.369805,0.38587 -5.75593,5.77169 -11.969251,11.96841 l -11.296923,11.26678 z m 14.361679,-8.21269 c 2.6e-5,-0.0122 -1.713855,-1.73523 -3.808682,-3.82893 l -3.808786,-3.80674 -0.02502,7.64234 -0.02502,7.64233 3.834072,-3.81309 c 2.108393,-2.09754 3.833786,-3.82339 3.833804,-3.8356 z m 0.103012,-31.46634 c 1.58e-4,-0.0121 -1.713855,-1.73522 -3.808675,-3.82892 l -3.808787,-3.80675 -0.02502,7.64234 -0.02502,7.64234 3.834076,-3.81309 c 2.10839,-2.09755 3.83378,-3.82339 3.833799,-3.83559 z"
       style="fill:#ffffff;stroke-width:0.04431933" />
  </g>
</svg>
