<?xml version="1.0" encoding="UTF-8" standalone="no"?>
<!-- Created with Inkscape (http://www.inkscape.org/) -->

<svg
   xmlns:dc="http://purl.org/dc/elements/1.1/"
   xmlns:cc="http://creativecommons.org/ns#"
   xmlns:rdf="http://www.w3.org/1999/02/22-rdf-syntax-ns#"
   xmlns:svg="http://www.w3.org/2000/svg"
   xmlns="http://www.w3.org/2000/svg"
   xmlns:sodipodi="http://sodipodi.sourceforge.net/DTD/sodipodi-0.dtd"
   xmlns:inkscape="http://www.inkscape.org/namespaces/inkscape"
   id="svg2"
   version="1.1"
   inkscape:version="0.92.2 2405546, 2018-03-11"
   width="512"
   height="512"
   sodipodi:docname="cairo-dock.svg">
  <metadata
     id="metadata8">
    <rdf:RDF>
      <cc:Work
         rdf:about="">
        <dc:format>image/svg+xml</dc:format>
        <dc:type
           rdf:resource="http://purl.org/dc/dcmitype/StillImage" />
        <dc:title />
      </cc:Work>
    </rdf:RDF>
  </metadata>
  <defs
     id="defs6" />
  <sodipodi:namedview
     pagecolor="#ffffff"
     bordercolor="#666666"
     borderopacity="1"
     objecttolerance="10"
     gridtolerance="10"
     guidetolerance="10"
     inkscape:pageopacity="0"
     inkscape:pageshadow="2"
     inkscape:window-width="1366"
     inkscape:window-height="717"
     id="namedview4"
     showgrid="false"
     inkscape:zoom="0.11523438"
     inkscape:cx="-1632.8528"
     inkscape:cy="1278.16"
     inkscape:window-x="0"
     inkscape:window-y="24"
     inkscape:window-maximized="1"
     inkscape:current-layer="g2982" />
  <g
     id="g2982"
     transform="translate(2.7446683e-6,-6.136249)">
    <g
       id="g861">
      <path
         style="fill:#f37329;fill-opacity:1;stroke-width:11.10955811"
         inkscape:connector-curvature="0"
         d="m 432.91326,62.61024 c 102.19291,88.57459 105.82678,249.69972 8.1168,359.89879 C 343.32009,532.70807 181.27966,550.23687 79.086738,461.66228 -23.106208,373.08771 -26.740035,211.96258 70.969938,101.7635 168.67991,-8.435589 330.72036,-25.96435 432.91326,62.61024 Z"
         id="path961" />
      <path
         style="opacity:1;fill:#000000;fill-opacity:0.49019608;stroke-width:11.10955811"
         inkscape:connector-curvature="0"
         d="M 511.63551,231.03979 C 510.08411,292.35143 486.47427,355.1944 440.66912,406.85426 342.95916,517.05337 180.91871,534.58207 78.725755,446.00756 30.827122,404.49191 4.4968151,347.05911 0.1938232,286.36508 c 0.605254,66.35668 26.9235798,130.25338 78.8848638,175.2903 102.192923,88.57449 264.241073,71.03709 361.943323,-39.15333 49.70495,-56.05812 73.00502,-125.29098 70.6135,-191.46226 z"
         id="path965" />
      <g
         style="fill:#000000;fill-opacity:0.49019608"
         transform="translate(20,19.999999)"
         id="g851">
        <path
           inkscape:connector-curvature="0"
           id="path847"
           d="m 189.49714,173.22019 c -10.91204,0 -20.75895,1.97769 -29.54181,5.93405 -8.64979,3.95636 -15.96862,9.41398 -21.95693,16.37171 -5.98832,6.95774 -10.57935,15.14347 -13.77312,24.55688 -3.19376,9.27698 -4.79158,19.37132 -4.79158,30.28542 0,10.64124 1.59782,20.60148 4.79158,29.87847 3.19377,9.14055 7.7848,17.12039 13.77312,23.94171 5.98831,6.8213 13.30714,12.21119 21.95693,16.16755 4.89928,2.13084 10.12983,3.6655 15.69164,4.60771 9.47371,-2.30534 18.09194,-4.79383 24.54471,-7.38208 15.06914,-6.0443 30.38905,-35.29015 50.79568,-42.45502 0.52372,-2.77405 0.92852,-5.63075 1.18709,-8.59079 h -30.34086 c -1.19766,9.82269 -4.5233,17.7348 -9.97932,23.73756 -5.32294,6.00275 -12.77583,9.0045 -22.35713,9.0045 -7.0529,0 -13.04067,-1.36406 -17.96439,-4.09259 -4.92373,-2.86494 -8.91693,-6.61714 -11.97762,-11.25563 -3.0607,-4.63849 -5.32202,-9.82247 -6.78583,-15.55237 -1.33074,-5.86633 -1.99695,-11.86984 -1.99695,-18.00902 0,-6.41203 0.66621,-12.61873 1.99695,-18.62148 1.46381,-6.00275 3.72513,-11.32354 6.78583,-15.96204 3.06069,-4.77492 7.05389,-8.52711 11.97762,-11.25563 4.92372,-2.86495 10.91149,-4.29674 17.96439,-4.29674 3.85913,0 7.51856,0.68135 10.97846,2.04562 3.593,1.22783 6.78728,3.00233 9.58183,5.32158 2.79454,2.31924 5.12289,5.04737 6.98593,8.18517 1.86302,3.00138 3.06139,6.34449 3.59368,10.028 h 30.34086 c -0.93152,-8.45843 -3.19419,-15.96281 -6.78718,-22.51127 -3.59299,-6.54845 -8.18402,-12.00471 -13.77311,-16.37035 -5.45602,-4.50207 -11.71053,-7.91291 -18.76344,-10.23215 -6.91983,-2.31925 -14.30569,-3.47877 -22.15703,-3.47877 z m 83.88386,3.47877 v 100.61251 c 15.96117,9.62081 23.63337,35.04245 43.21893,45.49979 h 18.26048 c 10.91205,0 20.36085,-1.84223 28.34527,-5.52574 8.11749,-3.81994 14.83714,-9.00393 20.16009,-15.55238 5.45602,-6.54845 9.51489,-14.32511 12.17636,-23.32924 2.66148,-9.00413 3.99254,-18.82621 3.99254,-29.46745 0,-12.14192 -1.6635,-22.71444 -4.99034,-31.71857 -3.19376,-9.00413 -7.71911,-16.50851 -13.57435,-22.51126 -5.72217,-6.00275 -12.57452,-10.50403 -20.55894,-13.50541 -7.85135,-3.00137 -16.36854,-4.50225 -25.55063,-4.50225 z m 31.33866,27.01216 h 22.35578 c 7.71827,0 14.17252,1.15952 19.36239,3.47877 5.32294,2.18281 9.58155,5.38911 12.77531,9.61833 3.19377,4.2292 5.45645,9.34546 6.78718,15.34822 1.46381,5.86632 2.19569,12.4821 2.19569,19.84912 0,8.04914 -0.99863,14.87082 -2.99474,20.4643 -1.9961,5.59347 -4.65688,10.16383 -7.98372,13.71091 -3.32684,3.41064 -7.12032,5.86651 -11.37867,7.3672 -4.25836,1.50068 -8.64966,2.25113 -13.17416,2.25113 h -27.94506 z"
           style="font-style:normal;font-variant:normal;font-weight:bold;font-stretch:normal;font-size:medium;line-height:125%;font-family:'Helvetica Neue';-inkscape-font-specification:'Helvetica Neue Bold';letter-spacing:0px;word-spacing:0px;fill:#000000;fill-opacity:0.49019608;stroke:none;stroke-width:0.71797675" />
        <path
           sodipodi:nodetypes="cszzzc"
           inkscape:connector-curvature="0"
           id="path849"
           d="m 99.999997,351.13625 c 0,0 10.859263,-1.45475 25.812973,-3.91237 23.40986,-3.84739 56.85422,-10.15257 74.37915,-17.18191 17.52494,-7.02934 35.38869,-45.43952 61.19856,-44.00326 25.80987,1.43626 31.60865,38.3324 57.12195,50.19269 C 344.02594,348.09169 412,350.35866 412,350.35866"
           style="fill:#000000;fill-opacity:0.49019608;stroke:none;stroke-width:6.92238283;stroke-miterlimit:4;stroke-dasharray:none;stroke-opacity:1" />
      </g>
      <g
         id="g845">
        <path
           style="font-style:normal;font-variant:normal;font-weight:bold;font-stretch:normal;font-size:medium;line-height:125%;font-family:'Helvetica Neue';-inkscape-font-specification:'Helvetica Neue Bold';letter-spacing:0px;word-spacing:0px;fill:#ffffff;fill-opacity:1;stroke:none;stroke-width:0.71797675"
           d="m 189.49714,173.22019 c -10.91204,0 -20.75895,1.97769 -29.54181,5.93405 -8.64979,3.95636 -15.96862,9.41398 -21.95693,16.37171 -5.98832,6.95774 -10.57935,15.14347 -13.77312,24.55688 -3.19376,9.27698 -4.79158,19.37132 -4.79158,30.28542 0,10.64124 1.59782,20.60148 4.79158,29.87847 3.19377,9.14055 7.7848,17.12039 13.77312,23.94171 5.98831,6.8213 13.30714,12.21119 21.95693,16.16755 4.89928,2.13084 10.12983,3.6655 15.69164,4.60771 9.47371,-2.30534 18.09194,-4.79383 24.54471,-7.38208 15.06914,-6.0443 30.38905,-35.29015 50.79568,-42.45502 0.52372,-2.77405 0.92852,-5.63075 1.18709,-8.59079 h -30.34086 c -1.19766,9.82269 -4.5233,17.7348 -9.97932,23.73756 -5.32294,6.00275 -12.77583,9.0045 -22.35713,9.0045 -7.0529,0 -13.04067,-1.36406 -17.96439,-4.09259 -4.92373,-2.86494 -8.91693,-6.61714 -11.97762,-11.25563 -3.0607,-4.63849 -5.32202,-9.82247 -6.78583,-15.55237 -1.33074,-5.86633 -1.99695,-11.86984 -1.99695,-18.00902 0,-6.41203 0.66621,-12.61873 1.99695,-18.62148 1.46381,-6.00275 3.72513,-11.32354 6.78583,-15.96204 3.06069,-4.77492 7.05389,-8.52711 11.97762,-11.25563 4.92372,-2.86495 10.91149,-4.29674 17.96439,-4.29674 3.85913,0 7.51856,0.68135 10.97846,2.04562 3.593,1.22783 6.78728,3.00233 9.58183,5.32158 2.79454,2.31924 5.12289,5.04737 6.98593,8.18517 1.86302,3.00138 3.06139,6.34449 3.59368,10.028 h 30.34086 c -0.93152,-8.45843 -3.19419,-15.96281 -6.78718,-22.51127 -3.59299,-6.54845 -8.18402,-12.00471 -13.77311,-16.37035 -5.45602,-4.50207 -11.71053,-7.91291 -18.76344,-10.23215 -6.91983,-2.31925 -14.30569,-3.47877 -22.15703,-3.47877 z m 83.88386,3.47877 v 100.61251 c 15.96117,9.62081 23.63337,35.04245 43.21893,45.49979 h 18.26048 c 10.91205,0 20.36085,-1.84223 28.34527,-5.52574 8.11749,-3.81994 14.83714,-9.00393 20.16009,-15.55238 5.45602,-6.54845 9.51489,-14.32511 12.17636,-23.32924 2.66148,-9.00413 3.99254,-18.82621 3.99254,-29.46745 0,-12.14192 -1.6635,-22.71444 -4.99034,-31.71857 -3.19376,-9.00413 -7.71911,-16.50851 -13.57435,-22.51126 -5.72217,-6.00275 -12.57452,-10.50403 -20.55894,-13.50541 -7.85135,-3.00137 -16.36854,-4.50225 -25.55063,-4.50225 z m 31.33866,27.01216 h 22.35578 c 7.71827,0 14.17252,1.15952 19.36239,3.47877 5.32294,2.18281 9.58155,5.38911 12.77531,9.61833 3.19377,4.2292 5.45645,9.34546 6.78718,15.34822 1.46381,5.86632 2.19569,12.4821 2.19569,19.84912 0,8.04914 -0.99863,14.87082 -2.99474,20.4643 -1.9961,5.59347 -4.65688,10.16383 -7.98372,13.71091 -3.32684,3.41064 -7.12032,5.86651 -11.37867,7.3672 -4.25836,1.50068 -8.64966,2.25113 -13.17416,2.25113 h -27.94506 z"
           id="path3339"
           inkscape:connector-curvature="0" />
        <path
           style="fill:#ffffff;fill-opacity:1;stroke:none;stroke-width:6.92238283;stroke-miterlimit:4;stroke-dasharray:none;stroke-opacity:1"
           d="m 99.999997,351.13625 c 0,0 10.859263,-1.45475 25.812973,-3.91237 23.40986,-3.84739 56.85422,-10.15257 74.37915,-17.18191 17.52494,-7.02934 35.38869,-45.43952 61.19856,-44.00326 25.80987,1.43626 31.60865,38.3324 57.12195,50.19269 C 344.02594,348.09169 412,350.35866 412,350.35866"
           id="path3753"
           inkscape:connector-curvature="0"
           sodipodi:nodetypes="cszzzc" />
      </g>
    </g>
  </g>
</svg>
