<?xml version="1.0" encoding="UTF-8" standalone="no"?>
<svg
   xmlns:dc="http://purl.org/dc/elements/1.1/"
   xmlns:cc="http://creativecommons.org/ns#"
   xmlns:rdf="http://www.w3.org/1999/02/22-rdf-syntax-ns#"
   xmlns:svg="http://www.w3.org/2000/svg"
   xmlns="http://www.w3.org/2000/svg"
   xmlns:sodipodi="http://sodipodi.sourceforge.net/DTD/sodipodi-0.dtd"
   xmlns:inkscape="http://www.inkscape.org/namespaces/inkscape"
   height="512"
   width="512"
   viewBox="0 0 512 512"
   id="svg2"
   version="1.1"
   inkscape:version="0.92.2 2405546, 2018-03-11"
   sodipodi:docname="calendar-blue-20.svg">
  <metadata
     id="metadata16">
    <rdf:RDF>
      <cc:Work
         rdf:about="">
        <dc:format>image/svg+xml</dc:format>
        <dc:type
           rdf:resource="http://purl.org/dc/dcmitype/StillImage" />
        <dc:title />
        <dc:title />
      </cc:Work>
    </rdf:RDF>
  </metadata>
  <defs
     id="defs14" />
  <sodipodi:namedview
     pagecolor="#ffffff"
     bordercolor="#666666"
     borderopacity="1"
     objecttolerance="10"
     gridtolerance="10"
     guidetolerance="10"
     inkscape:pageopacity="0"
     inkscape:pageshadow="2"
     inkscape:window-width="1366"
     inkscape:window-height="713"
     id="namedview12"
     showgrid="false"
     inkscape:zoom="0.58004855"
     inkscape:cx="204.44623"
     inkscape:cy="289.9557"
     inkscape:window-x="0"
     inkscape:window-y="24"
     inkscape:window-maximized="1"
     inkscape:current-layer="svg2" />
  <g
     id="g933">
    <path
       id="path842"
       d="M 432.91327,56.473983 C 535.10618,145.04857 538.74004,306.17368 441.03007,416.37276 343.3201,526.57184 181.27963,544.1006 79.086723,455.52602 -23.10618,366.95143 -26.740045,205.82632 70.969925,95.627244 168.67989,-14.571837 330.72037,-32.100607 432.91327,56.473983 Z"
       inkscape:connector-curvature="0"
       style="fill:#3689e6;fill-opacity:1;stroke-width:11.10955715" />
    <path
       id="path845"
       d="M 511.6355,224.90352 C 510.08412,286.21517 486.47428,349.05813 440.66913,400.71799 342.95916,510.91711 180.91868,528.44584 78.725783,439.87129 30.827148,398.35564 4.4968427,340.92284 0.19385072,280.22881 0.79910472,346.58548 27.117428,410.48218 79.078673,455.51906 181.27161,544.09361 343.31976,526.55619 441.02202,416.36577 490.72697,360.30766 514.02704,291.07481 511.6355,224.90352 Z"
       inkscape:connector-curvature="0"
       style="opacity:1;fill:#000000;fill-opacity:0.49019608;stroke-width:11.10955715" />
    <g
       style="fill:#000000;fill-opacity:0.49019608"
       transform="translate(20.000015,19.999993)"
       id="g879">
      <path
         sodipodi:nodetypes="ccscccccccccccccccscccccccccscccccsccscccsccscccccccccccccscccccccccccccccscc"
         style="fill:#000000;stroke-width:0.39013538;fill-opacity:0.49019608"
         d="m 106.6532,409.33256 c -2.35457,-0.83131 -5.17822,-3.71902 -6.00276,-6.13901 -0.60227,-1.76746 -0.650455,-11.94758 -0.650455,-137.39683 0,-134.38688 0.0076,-135.50479 0.777745,-137.56663 0.91057,-2.43364 2.97986,-4.60101 5.46444,-5.72334 1.65956,-0.74963 2.52597,-0.79351 15.83921,-0.8016 l 14.08361,-0.008 -0.0227,9.26574 c -0.0265,9.77809 0.35074,12.84619 2.12315,17.34289 2.64529,6.71115 8.4579,11.86616 15.57411,13.81221 4.03903,1.10452 10.6597,0.9403 14.63009,-0.36284 8.60644,-2.82486 13.52652,-8.29274 15.87364,-17.64091 0.79661,-3.17287 0.87421,-4.36849 0.84087,-12.95622 l -0.0378,-9.4608 h 69.45271 69.4529 l -0.26495,6.53477 c -0.30236,7.45206 0.16214,13.38886 1.36528,17.45858 2.4816,8.3935 8.30661,14.24659 16.34117,16.41997 3.11357,0.84223 9.83565,0.95369 12.87446,0.21354 6.78271,-1.65218 12.85078,-6.33142 15.41896,-11.88997 2.71166,-5.86904 3.51961,-11.46403 3.14964,-21.81188 l -0.24756,-6.92493 14.15006,0.008 c 13.38485,0.008 14.24504,0.0514 15.90568,0.80235 2.14908,0.97168 4.08235,2.77214 5.20347,4.84604 l 0.84363,1.56057 0.0998,136.14746 c 0.11225,153.40815 0.4295,138.40588 -2.99815,141.83353 -3.44757,3.44757 12.89265,3.11543 -151.56718,3.08073 -131.56222,-0.0265 -146.10954,-0.0911 -147.67336,-0.64327 z m 275.60972,-20.92105 c 2.3495,-1.0964 4.53279,-3.41544 5.41527,-5.75199 0.6,-1.58849 0.64093,-9.27624 0.54285,-101.9828 -0.10242,-96.86097 -0.13077,-100.31433 -0.83195,-101.72504 -1.08091,-2.1744 -3.55151,-4.44219 -5.59978,-5.14011 -1.63673,-0.55771 -13.89559,-0.61713 -127.31615,-0.61713 -136.89588,0 -127.02617,-0.16441 -130.08412,2.16794 -0.74437,0.56776 -1.87657,2.0866 -2.52967,3.39356 l -1.1822,2.36584 0.008,100.10494 c 0.008,99.82813 0.0113,100.10982 0.80232,101.86057 1.28662,2.84557 3.7011,4.99608 6.59917,5.87762 0.53782,0.16365 57.50846,0.31068 126.60143,0.32731 l 125.6236,0.0302 1.95069,-0.9103 z M 156.85617,153.65334 c -3.98816,-0.93963 -8.4576,-4.70305 -10.28599,-8.66116 l -1.11942,-2.42336 v -16.58895 -16.58895 l 1.26826,-2.52771 c 0.69755,-1.39019 1.68541,-2.99509 2.19523,-3.56644 4.43047,-4.964827 11.29213,-6.606647 17.60383,-4.212127 3.21543,1.219877 7.10392,5.084557 8.42358,8.371987 l 0.93967,2.34081 v 16.19063 c 0,16.03204 -0.008,16.21259 -0.90535,18.4326 -1.05377,2.60954 -4.09674,6.1194 -6.5537,7.55925 -3.21623,1.88485 -7.8333,2.55284 -11.56611,1.67342 z m 187.28114,-0.12737 c -2.63765,-0.76199 -4.93708,-2.21567 -7.00977,-4.43153 -4.10329,-4.38675 -4.30515,-5.56815 -4.14788,-24.27666 0.12472,-14.81745 0.1387,-15.05182 1.06586,-17.36104 0.68152,-1.69772 1.64614,-3.04724 3.51122,-4.91236 3.46613,-3.466087 5.83952,-4.425147 10.9595,-4.428507 3.37424,-10e-4 3.936,0.10923 6.27087,1.24267 3.12911,1.519107 6.22114,4.654107 7.69754,7.804607 l 1.05177,2.24428 v 16.58895 16.58899 l -1.24638,2.5318 c -1.56922,3.1875 -4.29014,5.92958 -7.40583,7.46343 -1.97208,0.97085 -3.01671,1.21704 -5.66109,1.33417 -2.00485,0.0888 -3.94636,-0.0597 -5.08581,-0.3888 z"
         id="path871"
         inkscape:connector-curvature="0" />
      <g
         transform="matrix(5.139271,0,0,5.139271,558.92617,-894.77723)"
         id="g877"
         style="font-style:normal;font-weight:normal;font-size:40px;line-height:1.25;font-family:sans-serif;letter-spacing:0px;word-spacing:0px;fill:#000000;fill-opacity:0.49019608;stroke:none"
         aria-label="20">
        <path
           inkscape:connector-curvature="0"
           id="path873"
           style="font-style:normal;font-variant:normal;font-weight:normal;font-stretch:normal;font-family:'Comic Sans MS';-inkscape-font-specification:'Comic Sans MS';fill:#000000;fill-opacity:0.49019608"
           d="m -64.427734,244.03028 q -0.488282,0 -1.386719,-0.29297 -0.878906,-0.3125 -1.347656,-0.3125 -0.996094,0 -2.988282,0.11719 -1.992187,0.11719 -3.007812,0.11719 -0.761719,0 -2.265625,0.19531 -1.484375,0.19531 -2.246094,0.19531 -0.214844,0 -0.625,-0.0781 -0.410156,-0.0781 -0.625,-0.0781 -1.347656,0 -1.757812,-1.30859 -0.234375,-0.6836 -0.234375,-2.34375 0,-4.55078 2.480468,-7.32422 1.132813,-1.26953 6.113282,-4.6875 2.792968,-1.91406 3.730468,-2.98828 1.679688,-1.875 1.679688,-4.39453 0,-1.25 -1.621094,-2.22657 -1.425781,-0.8789 -2.792969,-0.8789 -1.796875,0 -3.417968,1.03515 l -2.792969,2.1875 q -0.839844,0.66407 -1.347656,0.66407 -2.011719,0 -2.011719,-1.60157 0,-0.91797 0.742187,-1.58203 2.285157,-2.14844 3.964844,-3.10547 2.363281,-1.34765 4.863281,-1.34765 3.164063,0 5.644532,1.71875 2.773437,1.93359 2.773437,4.96093 0,1.99219 -0.566406,3.67188 -0.566406,1.67969 -1.71875,3.06641 -1.464844,1.75781 -4.960938,3.92578 -3.671875,2.30468 -4.824218,3.49609 -2.167969,2.24609 -2.128907,5.44922 l 4.023438,-0.37109 q 4.140625,-0.23438 5.917969,-0.23438 1.484375,0 2.8125,0.50781 1.757812,0.6836 1.757812,1.89453 0,0.76172 -0.527344,1.36719 -0.527343,0.58594 -1.308593,0.58594 z" />
        <path
           inkscape:connector-curvature="0"
           id="path875"
           style="font-style:normal;font-variant:normal;font-weight:normal;font-stretch:normal;font-family:'Comic Sans MS';-inkscape-font-specification:'Comic Sans MS';fill:#000000;fill-opacity:0.49019608"
           d="m -47.728516,244.75294 q -5.9375,0 -8.671875,-5.42969 -2.070312,-4.17969 -2.070312,-10.87891 0,-5.66406 2.695312,-9.88281 3.183594,-4.94141 8.652344,-4.94141 5.136719,0 8.007813,4.375 2.480468,3.78907 2.480468,9.23828 0,8.75 -2.773437,13.14454 -2.773438,4.375 -8.320313,4.375 z m 0.585938,-27.36329 q -3.632813,0 -5.761719,3.69141 -1.777344,3.08594 -1.777344,7.05078 0,6.42578 1.738282,9.64844 1.738281,3.22266 5.214843,3.22266 4.140625,0 5.9375,-4.72657 1.25,-3.28125 1.25,-8.32031 0,-5.29297 -1.660156,-7.92969 -1.640625,-2.63672 -4.941406,-2.63672 z" />
      </g>
    </g>
    <g
       id="g869">
      <path
         inkscape:connector-curvature="0"
         id="path849"
         d="m 106.6532,409.33256 c -2.35457,-0.83131 -5.17822,-3.71902 -6.00276,-6.13901 -0.60227,-1.76746 -0.650455,-11.94758 -0.650455,-137.39683 0,-134.38688 0.0076,-135.50479 0.777745,-137.56663 0.91057,-2.43364 2.97986,-4.60101 5.46444,-5.72334 1.65956,-0.74963 2.52597,-0.79351 15.83921,-0.8016 l 14.08361,-0.008 -0.0227,9.26574 c -0.0265,9.77809 0.35074,12.84619 2.12315,17.34289 2.64529,6.71115 8.4579,11.86616 15.57411,13.81221 4.03903,1.10452 10.6597,0.9403 14.63009,-0.36284 8.60644,-2.82486 13.52652,-8.29274 15.87364,-17.64091 0.79661,-3.17287 0.87421,-4.36849 0.84087,-12.95622 l -0.0378,-9.4608 h 69.45271 69.4529 l -0.26495,6.53477 c -0.30236,7.45206 0.16214,13.38886 1.36528,17.45858 2.4816,8.3935 8.30661,14.24659 16.34117,16.41997 3.11357,0.84223 9.83565,0.95369 12.87446,0.21354 6.78271,-1.65218 12.85078,-6.33142 15.41896,-11.88997 2.71166,-5.86904 3.51961,-11.46403 3.14964,-21.81188 l -0.24756,-6.92493 14.15006,0.008 c 13.38485,0.008 14.24504,0.0514 15.90568,0.80235 2.14908,0.97168 4.08235,2.77214 5.20347,4.84604 l 0.84363,1.56057 0.0998,136.14746 c 0.11225,153.40815 0.4295,138.40588 -2.99815,141.83353 -3.44757,3.44757 12.89265,3.11543 -151.56718,3.08073 -131.56222,-0.0265 -146.10954,-0.0911 -147.67336,-0.64327 z m 275.60972,-20.92105 c 2.3495,-1.0964 4.53279,-3.41544 5.41527,-5.75199 0.6,-1.58849 0.64093,-9.27624 0.54285,-101.9828 -0.10242,-96.86097 -0.13077,-100.31433 -0.83195,-101.72504 -1.08091,-2.1744 -3.55151,-4.44219 -5.59978,-5.14011 -1.63673,-0.55771 -13.89559,-0.61713 -127.31615,-0.61713 -136.89588,0 -127.02617,-0.16441 -130.08412,2.16794 -0.74437,0.56776 -1.87657,2.0866 -2.52967,3.39356 l -1.1822,2.36584 0.008,100.10494 c 0.008,99.82813 0.0113,100.10982 0.80232,101.86057 1.28662,2.84557 3.7011,4.99608 6.59917,5.87762 0.53782,0.16365 57.50846,0.31068 126.60143,0.32731 l 125.6236,0.0302 1.95069,-0.9103 z M 156.85617,153.65334 c -3.98816,-0.93963 -8.4576,-4.70305 -10.28599,-8.66116 l -1.11942,-2.42336 v -16.58895 -16.58895 l 1.26826,-2.52771 c 0.69755,-1.39019 1.68541,-2.99509 2.19523,-3.56644 4.43047,-4.964827 11.29213,-6.606647 17.60383,-4.212127 3.21543,1.219877 7.10392,5.084557 8.42358,8.371987 l 0.93967,2.34081 v 16.19063 c 0,16.03204 -0.008,16.21259 -0.90535,18.4326 -1.05377,2.60954 -4.09674,6.1194 -6.5537,7.55925 -3.21623,1.88485 -7.8333,2.55284 -11.56611,1.67342 z m 187.28114,-0.12737 c -2.63765,-0.76199 -4.93708,-2.21567 -7.00977,-4.43153 -4.10329,-4.38675 -4.30515,-5.56815 -4.14788,-24.27666 0.12472,-14.81745 0.1387,-15.05182 1.06586,-17.36104 0.68152,-1.69772 1.64614,-3.04724 3.51122,-4.91236 3.46613,-3.466087 5.83952,-4.425147 10.9595,-4.428507 3.37424,-10e-4 3.936,0.10923 6.27087,1.24267 3.12911,1.519107 6.22114,4.654107 7.69754,7.804607 l 1.05177,2.24428 v 16.58895 16.58899 l -1.24638,2.5318 c -1.56922,3.1875 -4.29014,5.92958 -7.40583,7.46343 -1.97208,0.97085 -3.01671,1.21704 -5.66109,1.33417 -2.00485,0.0888 -3.94636,-0.0597 -5.08581,-0.3888 z"
         style="fill:#ffffff;stroke-width:0.39013538"
         sodipodi:nodetypes="ccscccccccccccccccscccccccccscccccsccscccsccscccccccccccccscccccccccccccccscc" />
      <g
         aria-label="20"
         style="font-style:normal;font-weight:normal;font-size:40px;line-height:1.25;font-family:sans-serif;letter-spacing:0px;word-spacing:0px;fill:#ffffff;fill-opacity:1;stroke:none"
         id="flowRoot852"
         transform="matrix(5.139271,0,0,5.139271,558.92617,-894.77723)">
        <path
           d="m -64.427734,244.03028 q -0.488282,0 -1.386719,-0.29297 -0.878906,-0.3125 -1.347656,-0.3125 -0.996094,0 -2.988282,0.11719 -1.992187,0.11719 -3.007812,0.11719 -0.761719,0 -2.265625,0.19531 -1.484375,0.19531 -2.246094,0.19531 -0.214844,0 -0.625,-0.0781 -0.410156,-0.0781 -0.625,-0.0781 -1.347656,0 -1.757812,-1.30859 -0.234375,-0.6836 -0.234375,-2.34375 0,-4.55078 2.480468,-7.32422 1.132813,-1.26953 6.113282,-4.6875 2.792968,-1.91406 3.730468,-2.98828 1.679688,-1.875 1.679688,-4.39453 0,-1.25 -1.621094,-2.22657 -1.425781,-0.8789 -2.792969,-0.8789 -1.796875,0 -3.417968,1.03515 l -2.792969,2.1875 q -0.839844,0.66407 -1.347656,0.66407 -2.011719,0 -2.011719,-1.60157 0,-0.91797 0.742187,-1.58203 2.285157,-2.14844 3.964844,-3.10547 2.363281,-1.34765 4.863281,-1.34765 3.164063,0 5.644532,1.71875 2.773437,1.93359 2.773437,4.96093 0,1.99219 -0.566406,3.67188 -0.566406,1.67969 -1.71875,3.06641 -1.464844,1.75781 -4.960938,3.92578 -3.671875,2.30468 -4.824218,3.49609 -2.167969,2.24609 -2.128907,5.44922 l 4.023438,-0.37109 q 4.140625,-0.23438 5.917969,-0.23438 1.484375,0 2.8125,0.50781 1.757812,0.6836 1.757812,1.89453 0,0.76172 -0.527344,1.36719 -0.527343,0.58594 -1.308593,0.58594 z"
           style="font-style:normal;font-variant:normal;font-weight:normal;font-stretch:normal;font-family:'Comic Sans MS';-inkscape-font-specification:'Comic Sans MS';fill:#ffffff"
           id="path860"
           inkscape:connector-curvature="0" />
        <path
           d="m -47.728516,244.75294 q -5.9375,0 -8.671875,-5.42969 -2.070312,-4.17969 -2.070312,-10.87891 0,-5.66406 2.695312,-9.88281 3.183594,-4.94141 8.652344,-4.94141 5.136719,0 8.007813,4.375 2.480468,3.78907 2.480468,9.23828 0,8.75 -2.773437,13.14454 -2.773438,4.375 -8.320313,4.375 z m 0.585938,-27.36329 q -3.632813,0 -5.761719,3.69141 -1.777344,3.08594 -1.777344,7.05078 0,6.42578 1.738282,9.64844 1.738281,3.22266 5.214843,3.22266 4.140625,0 5.9375,-4.72657 1.25,-3.28125 1.25,-8.32031 0,-5.29297 -1.660156,-7.92969 -1.640625,-2.63672 -4.941406,-2.63672 z"
           style="font-style:normal;font-variant:normal;font-weight:normal;font-stretch:normal;font-family:'Comic Sans MS';-inkscape-font-specification:'Comic Sans MS';fill:#ffffff"
           id="path862"
           inkscape:connector-curvature="0" />
      </g>
    </g>
  </g>
</svg>
