<?xml version="1.0" encoding="UTF-8" standalone="no"?>
<svg
   xmlns:dc="http://purl.org/dc/elements/1.1/"
   xmlns:cc="http://creativecommons.org/ns#"
   xmlns:rdf="http://www.w3.org/1999/02/22-rdf-syntax-ns#"
   xmlns:svg="http://www.w3.org/2000/svg"
   xmlns="http://www.w3.org/2000/svg"
   xmlns:sodipodi="http://sodipodi.sourceforge.net/DTD/sodipodi-0.dtd"
   xmlns:inkscape="http://www.inkscape.org/namespaces/inkscape"
   height="512"
   width="512"
   viewBox="0 0 512 512"
   id="svg2"
   version="1.1"
   inkscape:version="0.92.2 2405546, 2018-03-11"
   sodipodi:docname="calendar-red-26.svg">
  <metadata
     id="metadata16">
    <rdf:RDF>
      <cc:Work
         rdf:about="">
        <dc:format>image/svg+xml</dc:format>
        <dc:type
           rdf:resource="http://purl.org/dc/dcmitype/StillImage" />
        <dc:title />
        <dc:title />
      </cc:Work>
    </rdf:RDF>
  </metadata>
  <defs
     id="defs14" />
  <sodipodi:namedview
     pagecolor="#ffffff"
     bordercolor="#666666"
     borderopacity="1"
     objecttolerance="10"
     gridtolerance="10"
     guidetolerance="10"
     inkscape:pageopacity="0"
     inkscape:pageshadow="2"
     inkscape:window-width="1366"
     inkscape:window-height="713"
     id="namedview12"
     showgrid="false"
     inkscape:zoom="0.41015626"
     inkscape:cx="-155.41577"
     inkscape:cy="321.8427"
     inkscape:window-x="0"
     inkscape:window-y="24"
     inkscape:window-maximized="1"
     inkscape:current-layer="svg2" />
  <g
     id="g872">
    <path
       id="path842"
       d="M 432.91327,56.473988 C 535.10618,145.04858 538.74004,306.17368 441.03007,416.37276 343.3201,526.57184 181.27963,544.1006 79.086726,455.52602 -23.106181,366.95143 -26.740046,205.82633 70.969926,95.627252 168.67989,-14.571832 330.72037,-32.100602 432.91327,56.473988 Z"
       inkscape:connector-curvature="0"
       style="fill:#c6262e;fill-opacity:1;stroke-width:11.10955715" />
    <path
       id="path845"
       d="m 511.6355,224.90353 c -1.55138,61.31165 -25.16122,124.1546 -70.96637,175.81446 C 342.95916,510.91711 180.91868,528.44584 78.725776,439.87129 30.827146,398.35564 4.4968468,340.92284 0.19384672,280.22882 0.79910672,346.58548 27.117426,410.48218 79.078676,455.51906 181.27161,544.09361 343.31976,526.55619 441.02202,416.36577 490.72697,360.30766 514.02704,291.07482 511.6355,224.90353 Z"
       inkscape:connector-curvature="0"
       style="opacity:1;fill:#000000;fill-opacity:0.49019608;stroke-width:11.10955715" />
    <g
       style="fill:#000000;fill-opacity:0.49019608"
       transform="translate(20.000019,19.999997)"
       id="g901">
      <path
         sodipodi:nodetypes="ccscccccccccccccccscccccccccscccccsccscccsccscccccccccccccscccccccccccccccscc"
         style="fill:#000000;fill-opacity:0.49019608;stroke-width:0.39013538"
         d="m 106.6532,409.33256 c -2.35457,-0.83131 -5.17822,-3.71902 -6.00276,-6.13901 -0.60227,-1.76746 -0.650459,-11.94758 -0.650459,-137.39683 0,-134.38688 0.0076,-135.50479 0.777749,-137.56663 0.91057,-2.43364 2.97986,-4.60101 5.46444,-5.72334 1.65956,-0.74963 2.52597,-0.79351 15.83921,-0.8016 l 14.08361,-0.008 -0.0227,9.26574 c -0.0265,9.77809 0.35074,12.84619 2.12315,17.34289 2.64529,6.71115 8.4579,11.86616 15.57411,13.81221 4.03903,1.10452 10.6597,0.9403 14.63009,-0.36284 8.60644,-2.82486 13.52652,-8.29274 15.87364,-17.64091 0.79661,-3.17287 0.87421,-4.36849 0.84087,-12.95622 l -0.0378,-9.4608 h 69.45271 69.4529 l -0.26495,6.53477 c -0.30236,7.45206 0.16214,13.38886 1.36528,17.45858 2.4816,8.3935 8.30661,14.24659 16.34117,16.41997 3.11357,0.84223 9.83565,0.95369 12.87446,0.21354 6.78271,-1.65218 12.85078,-6.33142 15.41896,-11.88997 2.71166,-5.86904 3.51961,-11.46403 3.14964,-21.81188 l -0.24756,-6.92493 14.15006,0.008 c 13.38485,0.008 14.24504,0.0514 15.90568,0.80235 2.14908,0.97168 4.08235,2.77214 5.20347,4.84604 l 0.84363,1.56057 0.0998,136.14746 c 0.11225,153.40815 0.4295,138.40588 -2.99815,141.83353 -3.44757,3.44757 12.89265,3.11543 -151.56718,3.08073 -131.56222,-0.0265 -146.10954,-0.0911 -147.67336,-0.64327 z m 275.60972,-20.92105 c 2.3495,-1.0964 4.53279,-3.41544 5.41527,-5.75199 0.6,-1.58849 0.64093,-9.27624 0.54285,-101.9828 -0.10242,-96.86097 -0.13077,-100.31433 -0.83195,-101.72504 -1.08091,-2.1744 -3.55151,-4.44219 -5.59978,-5.14011 -1.63673,-0.55771 -13.89559,-0.61713 -127.31615,-0.61713 -136.89588,0 -127.02617,-0.16441 -130.08412,2.16794 -0.74437,0.56776 -1.87657,2.0866 -2.52967,3.39356 l -1.1822,2.36584 0.008,100.10494 c 0.008,99.82813 0.0113,100.10982 0.80232,101.86057 1.28662,2.84557 3.7011,4.99608 6.59917,5.87762 0.53782,0.16365 57.50846,0.31068 126.60143,0.32731 l 125.6236,0.0302 1.95069,-0.9103 z M 156.85617,153.65334 c -3.98816,-0.93963 -8.4576,-4.70305 -10.28599,-8.66116 l -1.11942,-2.42336 v -16.58895 -16.58895 l 1.26826,-2.52771 c 0.69755,-1.39019 1.68541,-2.99509 2.19523,-3.56644 4.43047,-4.964826 11.29213,-6.606646 17.60383,-4.212126 3.21543,1.219876 7.10392,5.084556 8.42358,8.371986 l 0.93967,2.34081 v 16.19063 c 0,16.03204 -0.008,16.21259 -0.90535,18.4326 -1.05377,2.60954 -4.09674,6.1194 -6.5537,7.55925 -3.21623,1.88485 -7.8333,2.55284 -11.56611,1.67342 z m 187.28114,-0.12737 c -2.63765,-0.76199 -4.93708,-2.21567 -7.00977,-4.43153 -4.10329,-4.38675 -4.30515,-5.56815 -4.14788,-24.27666 0.12472,-14.81745 0.1387,-15.05182 1.06586,-17.36104 0.68152,-1.69772 1.64614,-3.04724 3.51122,-4.91236 3.46613,-3.466086 5.83952,-4.425146 10.9595,-4.428506 3.37424,-0.001 3.936,0.10923 6.27087,1.24267 3.12911,1.519106 6.22114,4.654106 7.69754,7.804606 l 1.05177,2.24428 v 16.58895 16.58899 l -1.24638,2.5318 c -1.56922,3.1875 -4.29014,5.92958 -7.40583,7.46343 -1.97208,0.97085 -3.01671,1.21704 -5.66109,1.33417 -2.00485,0.0888 -3.94636,-0.0597 -5.08581,-0.3888 z"
         id="path893"
         inkscape:connector-curvature="0" />
      <g
         transform="matrix(5.0319402,0,0,5.0319402,-334.39158,-386.5808)"
         id="g899"
         style="font-style:normal;font-weight:normal;font-size:40px;line-height:1.25;font-family:sans-serif;letter-spacing:0px;word-spacing:0px;fill:#000000;fill-opacity:0.49019608;stroke:none"
         aria-label="26">
        <path
           inkscape:connector-curvature="0"
           id="path895"
           style="font-style:normal;font-variant:normal;font-weight:normal;font-stretch:normal;font-family:'Comic Sans MS';-inkscape-font-specification:'Comic Sans MS';fill:#000000;fill-opacity:0.49019608"
           d="m 112.33594,147.72559 q -0.48828,0 -1.38672,-0.29297 -0.87891,-0.3125 -1.34766,-0.3125 -0.99609,0 -2.98828,0.11719 -1.99219,0.11719 -3.00781,0.11719 -0.76172,0 -2.26563,0.19531 -1.484371,0.19531 -2.24609,0.19531 -0.214844,0 -0.625,-0.0781 -0.410156,-0.0781 -0.625,-0.0781 -1.347656,0 -1.757813,-1.30859 -0.234375,-0.68359 -0.234375,-2.34375 0,-4.55078 2.480469,-7.32422 1.132813,-1.26953 6.113279,-4.6875 2.79297,-1.91406 3.73047,-2.98828 1.67969,-1.875 1.67969,-4.39453 0,-1.25 -1.62109,-2.22656 -1.42579,-0.87891 -2.79297,-0.87891 -1.79688,0 -3.41797,1.03516 l -2.792971,2.1875 q -0.839844,0.66406 -1.347657,0.66406 -2.011718,0 -2.011718,-1.60156 0,-0.91797 0.742187,-1.58204 2.285156,-2.14843 3.964849,-3.10546 2.36328,-1.34766 4.86328,-1.34766 3.16406,0 5.64453,1.71875 2.77344,1.93359 2.77344,4.96094 0,1.99218 -0.56641,3.67187 -0.56641,1.67969 -1.71875,3.06641 -1.46484,1.75781 -4.96094,3.92578 -3.67187,2.30469 -4.82422,3.49609 -2.167966,2.2461 -2.128904,5.44922 l 4.023434,-0.37109 q 4.14063,-0.23438 5.91797,-0.23438 1.48438,0 2.8125,0.50782 1.75782,0.68359 1.75782,1.89453 0,0.76172 -0.52735,1.36718 -0.52734,0.58594 -1.30859,0.58594 z" />
        <path
           inkscape:connector-curvature="0"
           id="path897"
           style="font-style:normal;font-variant:normal;font-weight:normal;font-stretch:normal;font-family:'Comic Sans MS';-inkscape-font-specification:'Comic Sans MS';fill:#000000;fill-opacity:0.49019608"
           d="m 128.76172,149.09278 q -5.09766,0 -7.5,-3.73047 -1.99219,-3.06641 -1.99219,-8.18359 0,-9.64844 7.83203,-16.73828 l 1.83594,-1.85547 q 1.34766,-1.28907 2.03125,-1.28907 0.78125,0 1.36719,0.56641 0.58593,0.54688 0.60547,1.30859 0.0391,0.70313 -1.99219,2.71485 l -3.98438,3.88672 q -1.58203,1.60156 -2.71484,4.84375 1.69922,-0.78125 2.96875,-1.15235 1.26953,-0.39062 2.08984,-0.39062 4.57032,0 7.01172,2.4414 2.44141,2.44141 2.44141,6.89454 0,4.66796 -2.63672,7.61718 -2.75391,3.06641 -7.36328,3.06641 z m 0,-16.03516 q -1.67969,0 -3.00781,0.58594 -0.50782,0.23438 -2.5586,1.50391 -0.11718,1.03515 -0.11718,2.03125 0,3.49609 1.17187,5.70312 1.48438,2.8125 4.62891,2.8125 2.94921,0 4.57031,-2.10937 1.5039,-1.95313 1.5039,-5.17578 0,-2.67579 -1.54296,-4.00391 -1.54297,-1.34766 -4.64844,-1.34766 z" />
      </g>
    </g>
    <g
       transform="translate(3.5802808e-7,4.0220718e-6)"
       id="g891">
      <path
         inkscape:connector-curvature="0"
         id="path849"
         d="m 106.6532,409.33256 c -2.35457,-0.83131 -5.17822,-3.71902 -6.00276,-6.13901 -0.60227,-1.76746 -0.650459,-11.94758 -0.650459,-137.39683 0,-134.38688 0.0076,-135.50479 0.777749,-137.56663 0.91057,-2.43364 2.97986,-4.60101 5.46444,-5.72334 1.65956,-0.74963 2.52597,-0.79351 15.83921,-0.8016 l 14.08361,-0.008 -0.0227,9.26574 c -0.0265,9.77809 0.35074,12.84619 2.12315,17.34289 2.64529,6.71115 8.4579,11.86616 15.57411,13.81221 4.03903,1.10452 10.6597,0.9403 14.63009,-0.36284 8.60644,-2.82486 13.52652,-8.29274 15.87364,-17.64091 0.79661,-3.17287 0.87421,-4.36849 0.84087,-12.95622 l -0.0378,-9.4608 h 69.45271 69.4529 l -0.26495,6.53477 c -0.30236,7.45206 0.16214,13.38886 1.36528,17.45858 2.4816,8.3935 8.30661,14.24659 16.34117,16.41997 3.11357,0.84223 9.83565,0.95369 12.87446,0.21354 6.78271,-1.65218 12.85078,-6.33142 15.41896,-11.88997 2.71166,-5.86904 3.51961,-11.46403 3.14964,-21.81188 l -0.24756,-6.92493 14.15006,0.008 c 13.38485,0.008 14.24504,0.0514 15.90568,0.80235 2.14908,0.97168 4.08235,2.77214 5.20347,4.84604 l 0.84363,1.56057 0.0998,136.14746 c 0.11225,153.40815 0.4295,138.40588 -2.99815,141.83353 -3.44757,3.44757 12.89265,3.11543 -151.56718,3.08073 -131.56222,-0.0265 -146.10954,-0.0911 -147.67336,-0.64327 z m 275.60972,-20.92105 c 2.3495,-1.0964 4.53279,-3.41544 5.41527,-5.75199 0.6,-1.58849 0.64093,-9.27624 0.54285,-101.9828 -0.10242,-96.86097 -0.13077,-100.31433 -0.83195,-101.72504 -1.08091,-2.1744 -3.55151,-4.44219 -5.59978,-5.14011 -1.63673,-0.55771 -13.89559,-0.61713 -127.31615,-0.61713 -136.89588,0 -127.02617,-0.16441 -130.08412,2.16794 -0.74437,0.56776 -1.87657,2.0866 -2.52967,3.39356 l -1.1822,2.36584 0.008,100.10494 c 0.008,99.82813 0.0113,100.10982 0.80232,101.86057 1.28662,2.84557 3.7011,4.99608 6.59917,5.87762 0.53782,0.16365 57.50846,0.31068 126.60143,0.32731 l 125.6236,0.0302 1.95069,-0.9103 z M 156.85617,153.65334 c -3.98816,-0.93963 -8.4576,-4.70305 -10.28599,-8.66116 l -1.11942,-2.42336 v -16.58895 -16.58895 l 1.26826,-2.52771 c 0.69755,-1.39019 1.68541,-2.99509 2.19523,-3.56644 4.43047,-4.964826 11.29213,-6.606646 17.60383,-4.212126 3.21543,1.219876 7.10392,5.084556 8.42358,8.371986 l 0.93967,2.34081 v 16.19063 c 0,16.03204 -0.008,16.21259 -0.90535,18.4326 -1.05377,2.60954 -4.09674,6.1194 -6.5537,7.55925 -3.21623,1.88485 -7.8333,2.55284 -11.56611,1.67342 z m 187.28114,-0.12737 c -2.63765,-0.76199 -4.93708,-2.21567 -7.00977,-4.43153 -4.10329,-4.38675 -4.30515,-5.56815 -4.14788,-24.27666 0.12472,-14.81745 0.1387,-15.05182 1.06586,-17.36104 0.68152,-1.69772 1.64614,-3.04724 3.51122,-4.91236 3.46613,-3.466086 5.83952,-4.425146 10.9595,-4.428506 3.37424,-0.001 3.936,0.10923 6.27087,1.24267 3.12911,1.519106 6.22114,4.654106 7.69754,7.804606 l 1.05177,2.24428 v 16.58895 16.58899 l -1.24638,2.5318 c -1.56922,3.1875 -4.29014,5.92958 -7.40583,7.46343 -1.97208,0.97085 -3.01671,1.21704 -5.66109,1.33417 -2.00485,0.0888 -3.94636,-0.0597 -5.08581,-0.3888 z"
         style="fill:#ffffff;stroke-width:0.39013538"
         sodipodi:nodetypes="ccscccccccccccccccscccccccccscccccsccscccsccscccccccccccccscccccccccccccccscc" />
      <g
         aria-label="26"
         style="font-style:normal;font-weight:normal;font-size:40px;line-height:1.25;font-family:sans-serif;letter-spacing:0px;word-spacing:0px;fill:#ffffff;fill-opacity:1;stroke:none"
         id="flowRoot849"
         transform="matrix(5.0319402,0,0,5.0319402,-334.39158,-386.5808)">
        <path
           d="m 112.33594,147.72559 q -0.48828,0 -1.38672,-0.29297 -0.87891,-0.3125 -1.34766,-0.3125 -0.99609,0 -2.98828,0.11719 -1.99219,0.11719 -3.00781,0.11719 -0.76172,0 -2.26563,0.19531 -1.484371,0.19531 -2.24609,0.19531 -0.214844,0 -0.625,-0.0781 -0.410156,-0.0781 -0.625,-0.0781 -1.347656,0 -1.757813,-1.30859 -0.234375,-0.68359 -0.234375,-2.34375 0,-4.55078 2.480469,-7.32422 1.132813,-1.26953 6.113279,-4.6875 2.79297,-1.91406 3.73047,-2.98828 1.67969,-1.875 1.67969,-4.39453 0,-1.25 -1.62109,-2.22656 -1.42579,-0.87891 -2.79297,-0.87891 -1.79688,0 -3.41797,1.03516 l -2.792971,2.1875 q -0.839844,0.66406 -1.347657,0.66406 -2.011718,0 -2.011718,-1.60156 0,-0.91797 0.742187,-1.58204 2.285156,-2.14843 3.964849,-3.10546 2.36328,-1.34766 4.86328,-1.34766 3.16406,0 5.64453,1.71875 2.77344,1.93359 2.77344,4.96094 0,1.99218 -0.56641,3.67187 -0.56641,1.67969 -1.71875,3.06641 -1.46484,1.75781 -4.96094,3.92578 -3.67187,2.30469 -4.82422,3.49609 -2.167966,2.2461 -2.128904,5.44922 l 4.023434,-0.37109 q 4.14063,-0.23438 5.91797,-0.23438 1.48438,0 2.8125,0.50782 1.75782,0.68359 1.75782,1.89453 0,0.76172 -0.52735,1.36718 -0.52734,0.58594 -1.30859,0.58594 z"
           style="font-style:normal;font-variant:normal;font-weight:normal;font-stretch:normal;font-family:'Comic Sans MS';-inkscape-font-specification:'Comic Sans MS';fill:#ffffff"
           id="path857"
           inkscape:connector-curvature="0" />
        <path
           d="m 128.76172,149.09278 q -5.09766,0 -7.5,-3.73047 -1.99219,-3.06641 -1.99219,-8.18359 0,-9.64844 7.83203,-16.73828 l 1.83594,-1.85547 q 1.34766,-1.28907 2.03125,-1.28907 0.78125,0 1.36719,0.56641 0.58593,0.54688 0.60547,1.30859 0.0391,0.70313 -1.99219,2.71485 l -3.98438,3.88672 q -1.58203,1.60156 -2.71484,4.84375 1.69922,-0.78125 2.96875,-1.15235 1.26953,-0.39062 2.08984,-0.39062 4.57032,0 7.01172,2.4414 2.44141,2.44141 2.44141,6.89454 0,4.66796 -2.63672,7.61718 -2.75391,3.06641 -7.36328,3.06641 z m 0,-16.03516 q -1.67969,0 -3.00781,0.58594 -0.50782,0.23438 -2.5586,1.50391 -0.11718,1.03515 -0.11718,2.03125 0,3.49609 1.17187,5.70312 1.48438,2.8125 4.62891,2.8125 2.94921,0 4.57031,-2.10937 1.5039,-1.95313 1.5039,-5.17578 0,-2.67579 -1.54296,-4.00391 -1.54297,-1.34766 -4.64844,-1.34766 z"
           style="font-style:normal;font-variant:normal;font-weight:normal;font-stretch:normal;font-family:'Comic Sans MS';-inkscape-font-specification:'Comic Sans MS';fill:#ffffff"
           id="path859"
           inkscape:connector-curvature="0" />
      </g>
    </g>
  </g>
</svg>
