<?xml version="1.0" encoding="UTF-8" standalone="no"?>
<svg
   xmlns:dc="http://purl.org/dc/elements/1.1/"
   xmlns:cc="http://creativecommons.org/ns#"
   xmlns:rdf="http://www.w3.org/1999/02/22-rdf-syntax-ns#"
   xmlns:svg="http://www.w3.org/2000/svg"
   xmlns="http://www.w3.org/2000/svg"
   xmlns:xlink="http://www.w3.org/1999/xlink"
   xmlns:sodipodi="http://sodipodi.sourceforge.net/DTD/sodipodi-0.dtd"
   xmlns:inkscape="http://www.inkscape.org/namespaces/inkscape"
   viewBox="0 0 511.99999 511.99999"
   height="512"
   width="512"
   version="1.1"
   id="svg2"
   inkscape:version="0.92.2 2405546, 2018-03-11"
   sodipodi:docname="calligrawords.svg">
  <sodipodi:namedview
     pagecolor="#ffffff"
     bordercolor="#666666"
     borderopacity="1"
     objecttolerance="10"
     gridtolerance="10"
     guidetolerance="10"
     inkscape:pageopacity="0"
     inkscape:pageshadow="2"
     inkscape:window-width="1366"
     inkscape:window-height="713"
     id="namedview18"
     showgrid="false"
     inkscape:zoom="0.40625"
     inkscape:cx="338.85871"
     inkscape:cy="83.193224"
     inkscape:window-x="0"
     inkscape:window-y="24"
     inkscape:window-maximized="1"
     inkscape:current-layer="svg2" />
  <metadata
     id="metadata8">
    <rdf:RDF>
      <cc:Work
         rdf:about="">
        <dc:format>image/svg+xml</dc:format>
        <dc:type
           rdf:resource="http://purl.org/dc/dcmitype/StillImage" />
        <dc:title />
      </cc:Work>
    </rdf:RDF>
  </metadata>
  <defs
     id="defs6">
    <filter
       height="1.096"
       y="-0.048"
       width="1.096"
       x="-0.048"
       id="filter4329"
       style="color-interpolation-filters:sRGB">
      <feGaussianBlur
         id="feGaussianBlur4331"
         stdDeviation="2.1324205" />
    </filter>
    <filter
       height="1.0327445"
       y="-0.016372267"
       width="1.0399742"
       x="-0.019987123"
       id="filter4376"
       style="color-interpolation-filters:sRGB">
      <feGaussianBlur
         id="feGaussianBlur4378"
         stdDeviation="1.1736058" />
    </filter>
    <filter
       height="1.0570984"
       y="-0.0285492"
       width="1.0632123"
       x="-0.031606145"
       id="filter4436"
       style="color-interpolation-filters:sRGB">
      <feGaussianBlur
         id="feGaussianBlur4438"
         stdDeviation="0.63519096" />
    </filter>
    <linearGradient
       x1="16.541649"
       y1="144.70755"
       x2="-24.629177"
       y2="-0.77768874"
       id="linearGradient3504"
       xlink:href="#linearGradient3526"
       gradientUnits="userSpaceOnUse"
       gradientTransform="matrix(0.6969214,-0.3124156,0.3124156,0.6969214,29.229254,21.999738)" />
    <linearGradient
       id="linearGradient3526">
      <stop
         id="stop3528"
         style="stop-color:#006e29;stop-opacity:1"
         offset="0" />
      <stop
         id="stop3530"
         style="stop-color:#77b753;stop-opacity:1"
         offset="1" />
    </linearGradient>
  </defs>
  <g
     id="g1168">
    <path
       id="path842"
       d="M 432.91327,56.473996 C 535.10618,145.04858 538.74004,306.17368 441.03007,416.37276 343.3201,526.57184 181.27963,544.1006 79.086725,455.52602 -23.10618,366.95143 -26.740045,205.82632 70.969925,95.627256 168.67989,-14.571824 330.72037,-32.100594 432.91327,56.473996 Z"
       inkscape:connector-curvature="0"
       style="fill:#3689e6;fill-opacity:1;stroke-width:11.10955715;image-rendering:optimizeSpeed" />
    <path
       id="path845"
       d="M 511.6355,224.90352 C 510.08412,286.21517 486.47428,349.05813 440.66913,400.71799 342.95916,510.91711 180.91868,528.44584 78.72578,439.87129 30.827148,398.35564 4.496842,340.92284 0.19384988,280.22881 0.79910388,346.58548 27.117428,410.48218 79.078675,455.51906 181.27161,544.09361 343.31976,526.55619 441.02202,416.36577 490.72697,360.30766 514.02704,291.07481 511.6355,224.90352 Z"
       inkscape:connector-curvature="0"
       style="opacity:1;fill:#000000;fill-opacity:0.49019608;stroke-width:11.10955715;image-rendering:optimizeSpeed" />
    <path
       inkscape:connector-curvature="0"
       d="m 410.55084,120 -40.79356,0.96274 c 6.32712,6.5794 10.19623,14.38384 12.81552,25.40058 4.14607,17.4385 2.6364,40.84727 -3.90189,67.94438 -8.38971,33.39954 -23.11622,68.32082 -57.78575,135.60479 -3.14557,-18.51379 -5.26561,-31.03228 -6.30213,-35.39194 L 303.6592,258.09456 c -3.73033,-19.21225 -8.11173,-42.94037 -13.02815,-70.66397 -1.65729,-10.49306 -3.3214,-20.90614 -5.37504,-31.30493 l -20.82455,14.58857 c -10.8813,35.24814 -55.48606,153.8109 -75.59939,201.30356 -3.27283,-33.13915 -8.56873,-123.91783 -10.36426,-173.73875 7.66331,-4.75308 11.75504,-8.68638 17.58914,-17.61063 -14.3585,3.57054 -46.21407,13.39846 -56.05695,15.87517 L 162.58011,432 185.61667,418.43391 c 38.28385,-97.87325 48.65028,-124.56121 77.32239,-202.98123 10.51473,47.74791 29.74384,147.78171 34.75167,184.69564 l 23.37736,-14.30344 c 8.57529,-23.81282 11.66514,-31.73378 29.5861,-69.07432 C 402.27055,209.9695 418.2352,158.48477 410.55084,120 Z"
       id="path1162"
       style="font-style:normal;font-weight:normal;font-size:169.21452332px;font-family:'URW Chancery L';fill:#000000;fill-opacity:0.49019608;stroke:none;stroke-width:0.7541185"
       sodipodi:nodetypes="ccccccccccccccccccccc" />
    <path
       sodipodi:nodetypes="ccccccccccccccccccccc"
       style="font-style:normal;font-weight:normal;font-size:169.21452332px;font-family:'URW Chancery L';fill:#ffffff;fill-opacity:1;stroke:none;stroke-width:0.7541185"
       id="text3399"
       d="m 390.55084,100 -40.79356,0.96274 c 6.32712,6.5794 10.19623,14.38384 12.81552,25.40058 4.14607,17.4385 2.6364,40.84727 -3.90189,67.94438 -8.38971,33.39954 -23.11622,68.32082 -57.78575,135.60479 -3.14557,-18.51379 -5.26561,-31.03228 -6.30213,-35.39194 L 283.6592,238.09456 c -3.73033,-19.21225 -8.11173,-42.94037 -13.02815,-70.66397 -1.65729,-10.49306 -3.3214,-20.90614 -5.37504,-31.30493 l -20.82455,14.58857 c -10.8813,35.24814 -55.48606,153.8109 -75.59939,201.30356 -3.27283,-33.13915 -8.56873,-123.91783 -10.36426,-173.73875 7.66331,-4.75308 11.75504,-8.68638 17.58914,-17.61063 -14.3585,3.57054 -46.21407,13.39846 -56.05695,15.87517 L 142.58011,412 165.61667,398.43391 c 38.28385,-97.87325 48.65028,-124.56121 77.32239,-202.98123 10.51473,47.74791 29.74384,147.78171 34.75167,184.69564 l 23.37736,-14.30344 c 8.57529,-23.81282 11.66514,-31.73378 29.5861,-69.07432 C 382.27055,189.9695 398.2352,138.48477 390.55084,100 Z"
       inkscape:connector-curvature="0" />
  </g>
</svg>
