<?xml version="1.0" encoding="UTF-8" standalone="no"?>
<!-- Created with Inkscape (http://www.inkscape.org/) -->

<svg
   xmlns:dc="http://purl.org/dc/elements/1.1/"
   xmlns:cc="http://creativecommons.org/ns#"
   xmlns:rdf="http://www.w3.org/1999/02/22-rdf-syntax-ns#"
   xmlns:svg="http://www.w3.org/2000/svg"
   xmlns="http://www.w3.org/2000/svg"
   xmlns:sodipodi="http://sodipodi.sourceforge.net/DTD/sodipodi-0.dtd"
   xmlns:inkscape="http://www.inkscape.org/namespaces/inkscape"
   id="svg2"
   version="1.1"
   inkscape:version="0.92.2 2405546, 2018-03-11"
   width="512"
   height="512"
   sodipodi:docname="checkbox.svg">
  <metadata
     id="metadata8">
    <rdf:RDF>
      <cc:Work
         rdf:about="">
        <dc:format>image/svg+xml</dc:format>
        <dc:type
           rdf:resource="http://purl.org/dc/dcmitype/StillImage" />
        <dc:title></dc:title>
      </cc:Work>
    </rdf:RDF>
  </metadata>
  <defs
     id="defs6" />
  <sodipodi:namedview
     pagecolor="#ffffff"
     bordercolor="#666666"
     borderopacity="1"
     objecttolerance="10"
     gridtolerance="10"
     guidetolerance="10"
     inkscape:pageopacity="0"
     inkscape:pageshadow="2"
     inkscape:window-width="1366"
     inkscape:window-height="713"
     id="namedview4"
     showgrid="false"
     inkscape:zoom="0.32593203"
     inkscape:cx="1085.3311"
     inkscape:cy="291.53815"
     inkscape:window-x="0"
     inkscape:window-y="24"
     inkscape:window-maximized="1"
     inkscape:current-layer="g2986" />
  <g
     id="g2986"
     transform="translate(-22,-512)">
    <g
       id="g854"
       transform="translate(22,959.99997)">
      <path
         id="path943"
         d="m 432.9133,-391.52603 c 102.19291,88.57459 105.82677,249.69974 8.1168,359.898825 C 343.32009,78.571877 181.27965,96.100646 79.086741,7.5260556 -23.106205,-81.048534 -26.740032,-242.17369 70.969941,-352.37277 168.67991,-462.57185 330.72036,-480.10062 432.9133,-391.52603 Z"
         inkscape:connector-curvature="0"
         style="fill:#68b723;fill-opacity:1;stroke-width:11.10955906" />
      <path
         id="path945"
         d="m 511.63553,-223.09645 c -1.55138,61.31161 -25.16122,124.154574 -70.96637,175.814442 C 342.95915,62.917111 180.9187,80.445842 78.725758,-8.1287099 30.827125,-49.644326 4.4968188,-107.07716 0.19382662,-167.77116 0.79908017,-101.41452 27.117405,-37.517787 79.07869,7.5190635 181.2716,96.093653 343.31975,78.556192 441.02205,-31.634197 490.727,-87.692339 514.02707,-156.9252 511.63553,-223.09645 Z"
         inkscape:connector-curvature="0"
         style="opacity:1;fill:#000000;fill-opacity:0.49019608;stroke-width:11.10955906" />
      <path
         style="fill:#000000;fill-opacity:0.49019608;stroke-width:0.97580373"
         d="m 233.54991,-40.746186 c -3.34511,-1.46383 -76.57238,-72.622614 -98.46221,-95.680884 -13.94647,-14.69093 -14.5614,-15.51003 -14.98963,-19.96667 -0.29055,-3.02386 0.0682,-5.64114 1.02701,-7.49234 1.71237,-3.30617 16.5985,-20.8659 27.14621,-32.02174 7.12676,-7.53766 7.40782,-7.71888 12.64475,-8.15317 5.06228,-0.4198 5.62212,-0.23242 10.20873,3.41687 2.669,2.12356 16.61524,15.33643 30.99167,29.36193 14.37643,14.02551 27.02664,25.976 28.11159,26.55664 4.52167,2.41993 7.1468,0.42029 24.18654,-18.42375 9.06095,-10.02039 40.32864,-45.22426 69.48375,-78.23082 29.15512,-33.00657 53.6872,-60.54698 54.51572,-61.20093 2.20056,-1.73686 7.33479,-2.54001 11.38281,-1.78059 2.84063,0.53291 6.3063,3.37703 17.67081,14.5017 20.67192,20.23564 23.88215,24.15689 24.42809,29.83857 0.31301,3.25752 -0.0696,5.65662 -1.2732,7.98419 -2.19529,4.24521 -47.25457,56.17465 -131.59632,151.6607 -48.39138,54.785437 -52.2696,58.934754 -56.07126,59.990714 -4.53026,1.25834 -5.81874,1.20897 -9.40506,-0.36042 z"
         id="path848"
         inkscape:connector-curvature="0" />
      <path
         inkscape:connector-curvature="0"
         id="path846"
         d="m 213.54991,-60.746186 c -3.34511,-1.46383 -76.57238,-72.622614 -98.46221,-95.680884 -13.94647,-14.69093 -14.5614,-15.51003 -14.98963,-19.96667 -0.290554,-3.02386 0.0682,-5.64114 1.02701,-7.49234 1.71237,-3.30617 16.5985,-20.8659 27.14621,-32.02174 7.12676,-7.53766 7.40782,-7.71888 12.64475,-8.15317 5.06228,-0.4198 5.62212,-0.23242 10.20873,3.41687 2.669,2.12356 16.61524,15.33643 30.99167,29.36193 14.37643,14.02551 27.02664,25.976 28.11159,26.55664 4.52167,2.41993 7.1468,0.42029 24.18654,-18.42375 9.06095,-10.02039 40.32864,-45.22426 69.48375,-78.23082 29.15512,-33.00657 53.6872,-60.54698 54.51572,-61.20093 2.20056,-1.73686 7.33479,-2.54001 11.38281,-1.78059 2.84063,0.53291 6.3063,3.37703 17.67081,14.5017 20.67192,20.23564 23.88215,24.15689 24.42809,29.83857 0.31301,3.25752 -0.0696,5.65662 -1.2732,7.98419 -2.19529,4.24521 -47.25457,56.17465 -131.59632,151.6607 -48.39138,54.785437 -52.2696,58.934754 -56.07126,59.990714 -4.53026,1.25834 -5.81874,1.20897 -9.40506,-0.36042 z"
         style="fill:#ffffff;stroke-width:0.97580373" />
    </g>
  </g>
</svg>
