<?xml version="1.0" encoding="UTF-8" standalone="no"?>
<!-- Generator: Adobe Illustrator 19.0.0, SVG Export Plug-In . SVG Version: 6.00 Build 0)  -->

<svg
   xmlns:dc="http://purl.org/dc/elements/1.1/"
   xmlns:cc="http://creativecommons.org/ns#"
   xmlns:rdf="http://www.w3.org/1999/02/22-rdf-syntax-ns#"
   xmlns:svg="http://www.w3.org/2000/svg"
   xmlns="http://www.w3.org/2000/svg"
   xmlns:sodipodi="http://sodipodi.sourceforge.net/DTD/sodipodi-0.dtd"
   xmlns:inkscape="http://www.inkscape.org/namespaces/inkscape"
   version="1.1"
   id="Layer_1"
   x="0px"
   y="0px"
   viewBox="0 0 512 512"
   xml:space="preserve"
   inkscape:version="0.92.2 2405546, 2018-03-11"
   width="512"
   height="512"
   sodipodi:docname="childsplay.svg"><metadata
     id="metadata65"><rdf:RDF><cc:Work
         rdf:about=""><dc:format>image/svg+xml</dc:format><dc:type
           rdf:resource="http://purl.org/dc/dcmitype/StillImage" /><dc:title></dc:title></cc:Work></rdf:RDF></metadata><defs
     id="defs63" /><sodipodi:namedview
     pagecolor="#ffffff"
     bordercolor="#666666"
     borderopacity="1"
     objecttolerance="10"
     gridtolerance="10"
     guidetolerance="10"
     inkscape:pageopacity="0"
     inkscape:pageshadow="2"
     inkscape:window-width="1366"
     inkscape:window-height="713"
     id="namedview61"
     showgrid="false"
     inkscape:zoom="0.65186406"
     inkscape:cx="674.63362"
     inkscape:cy="215.99001"
     inkscape:window-x="0"
     inkscape:window-y="24"
     inkscape:window-maximized="1"
     inkscape:current-layer="Layer_1"
     units="px" /><g
     id="g31"
     transform="translate(0,499)" /><g
     id="g33"
     transform="translate(0,499)" /><g
     id="g35"
     transform="translate(0,499)" /><g
     id="g37"
     transform="translate(0,499)" /><g
     id="g39"
     transform="translate(0,499)" /><g
     id="g41"
     transform="translate(0,499)" /><g
     id="g43"
     transform="translate(0,499)" /><g
     id="g45"
     transform="translate(0,499)" /><g
     id="g47"
     transform="translate(0,499)" /><g
     id="g49"
     transform="translate(0,499)" /><g
     id="g51"
     transform="translate(0,499)" /><g
     id="g53"
     transform="translate(0,499)" /><g
     id="g55"
     transform="translate(0,499)" /><g
     id="g57"
     transform="translate(0,499)" /><g
     id="g59"
     transform="translate(0,499)" /><g
     id="g922"><path
       style="fill:#f9c440;fill-opacity:1;stroke-width:11.10955811"
       inkscape:connector-curvature="0"
       d="M 432.91321,56.473975 C 535.10617,145.04868 538.74009,306.17379 441.03001,416.37283 343.31994,526.5719 181.27962,544.1005 79.086662,455.52611 -23.106295,366.95139 -26.739895,205.82627 70.969862,95.627255 168.67994,-14.571785 330.72026,-32.100745 432.91321,56.473975 Z"
       id="path52" /><path
       style="opacity:1;fill:#000000;fill-opacity:0.49019608;stroke-width:11.10955811"
       inkscape:connector-curvature="0"
       d="m 511.63545,224.90339 c -1.552,61.31168 -25.16128,124.15488 -70.9664,175.81472 C 342.9593,510.9172 180.91866,528.4458 78.725702,439.87139 30.827143,398.35555 4.4969022,340.92291 0.19386245,280.22883 0.79866243,346.58563 27.117384,410.48227 79.078662,455.51907 181.27162,544.0938 343.31962,526.5562 441.02201,416.36579 c 49.70496,-56.05824 73.00512,-125.29088 70.61344,-191.4624 z"
       id="path54" /><path
       style="fill:#000000;fill-opacity:0.49019608;stroke-width:0.69850779"
       d="m 249.98185,123.57484 c -9.69454,0.66165 -16.46863,4.65072 -20.56844,10.49286 5.32829,-5.38414 13.80156,-9.79505 20.56844,-10.49286 z m -1.19918,6.84468 c -3.82786,-0.12024 -8.99692,2.30152 -13.49892,6.32407 -10.98697,9.81684 -10.01861,17.79945 4.82307,39.79185 12.87719,19.08143 31.89384,57.05001 31.89384,63.67831 0,3.11213 1.10545,3.60255 5.10463,2.2667 12.87555,-4.30078 28.80348,-3.82501 39.11934,1.16881 5.6226,2.72186 10.22346,6.49845 10.22346,8.39225 0,2.44481 -1.15144,2.9285 -3.97028,1.66509 -9.43224,-4.22759 -25.43439,-3.74371 -33.49613,1.01282 -5.55495,3.2775 -10.17627,4.31117 -15.30581,3.42538 -12.51282,-2.16079 -13.79713,-2.87586 -11.06814,-6.16405 1.84511,-2.22324 0.38278,-6.47907 -5.8359,-16.99115 -19.55278,-33.05213 -42.7859,-57.90748 -60.77151,-65.01321 l -9.0749,-3.5854 6.61779,5.55636 c 9.1218,7.6606 9.1218,18.25599 0,25.55761 -8.20558,6.56818 -19.92036,8.97056 -27.31588,5.60092 -14.90135,-6.78952 -5.60657,2.76449 19.33077,19.86959 18.45137,12.65622 44.0725,36.82064 49.58993,46.77022 2.46974,4.45373 2.64936,4.45983 9.65018,0.33625 l 7.13029,-4.20119 -1.6266,10.85546 c -1.21566,8.10665 -3.34862,12.30435 -8.42264,16.57386 -7.81684,6.57741 -12.98441,17.48504 -12.98441,27.40905 0,3.78337 -1.00018,6.87708 -2.22417,6.87708 -6.16388,0 -5.45912,-30.02281 0.93383,-39.7797 3.237,-4.94031 2.85238,-5.6989 -8.4348,-16.65286 -20.09585,-19.50259 -50.96219,-38.9586 -61.48859,-38.75877 -4.30437,0.0816 -4.17346,0.42182 1.29844,3.39296 3.34565,1.81664 6.72027,5.31091 7.49896,7.76432 2.71379,8.55036 -7.89798,21.25964 -20.07013,24.03838 -5.8981,1.34647 -4.03332,2.67729 20.52995,14.64544 28.608,13.93893 50.02795,30.42013 46.50081,35.77905 -1.46124,2.22014 -5.01664,1.03599 -15.07287,-5.01957 -20.43599,-12.3059 -33.14763,-15.73839 -52.04702,-14.05395 -13.41902,1.19596 -16.96287,2.40388 -21.21463,7.22751 -2.80745,3.18508 -5.10463,8.2128 -5.10463,11.17349 0,5.46003 6.28108,13.79511 8.62723,11.44896 0.7041,-0.70409 0.0708,-2.48766 -1.40579,-3.96419 -1.4765,-1.4765 -2.57877,-5.79795 -2.45104,-9.6036 l 0.23092,-6.91962 1.74814,7.35919 c 3.31878,13.97986 10.13443,17.55076 20.13293,10.54755 10.39948,-7.28407 10.20985,-19.29854 -0.37273,-23.56235 -3.17562,-1.27948 -3.68598,-2.04898 -1.41998,-2.14111 12.38374,-0.50356 16.118,17.41814 5.528,26.5279 -6.92601,5.95786 -5.9424,6.53066 13.87773,8.06614 27.79725,2.15345 49.50046,16.37257 68.17322,44.66556 6.99968,10.60595 15.36698,22.1271 18.59344,25.6042 6.81156,7.34064 21.68388,11.98039 44.5582,13.89798 8.73431,0.7322 20.98593,2.73503 27.22473,4.45238 18.29083,5.03486 24.49323,4.45936 34.09369,-3.17014 4.74579,-3.77145 11.05306,-7.46644 14.01548,-8.20995 3.33978,-0.83824 7.17093,-4.91189 10.08569,-10.7238 2.58541,-5.15511 9.77218,-18.22676 15.97022,-29.0478 11.08548,-19.3539 11.30104,-20.09501 13.12823,-45.37454 1.09968,-15.21406 3.42783,-29.35226 5.70829,-34.65481 4.5051,-10.47541 3.35918,-22.09815 -3.42943,-34.76419 -2.47346,-4.61497 -4.45867,-9.93767 -4.40983,-11.82777 0.0487,-1.89013 1.69614,0.13791 3.66034,4.50505 2.45309,5.45413 3.95241,6.87493 4.78864,4.53745 0.66955,-1.87164 1.95104,-3.91358 2.84807,-4.53745 3.30504,-2.29865 13.68801,-25.19791 12.38279,-27.3098 -0.74226,-1.20098 -3.33098,-2.18366 -5.75285,-2.18366 -2.42188,0 -4.40376,-1.13079 -4.40376,-2.51383 0,-7.54375 -26.91121,7.41382 -34.28006,19.05326 -4.08079,6.44575 -4.45578,9.68586 -3.27142,28.21324 l 1.33692,20.93306 -8.24641,9.12758 c -4.5355,5.02024 -9.10821,9.12757 -10.16269,9.12757 -1.05447,0 -3.00418,-4.0373 -4.33286,-8.9716 -1.32866,-4.9343 -4.7112,-11.82584 -7.51718,-15.31391 -2.80597,-3.48807 -6.54197,-9.17954 -8.30112,-12.64815 -1.75916,-3.46864 -8.74267,-11.55124 -15.52052,-17.96143 -11.57545,-10.94759 -12.87414,-13.31869 -21.39491,-39.06667 -4.98922,-15.07635 -12.35184,-34.57932 -16.36117,-43.33877 -7.23788,-15.81314 -19.96244,-32.84792 -24.53466,-32.84792 -1.31189,0 -0.56806,2.00632 1.65293,4.46048 10.73089,11.8575 -0.0353,27.29967 -19.033,27.29967 -8.68068,0 -12.09299,-1.18694 -16.7197,-5.81362 -4.99725,-4.99725 -5.49809,-6.71816 -3.56718,-12.2572 2.7779,-7.96869 8.54609,-13.3542 17.02559,-15.89527 l 6.48208,-1.94259 z m 5.52192,4.40173 c -3.28615,0.0695 -6.81876,0.8712 -10.40171,2.5037 -6.25803,2.85136 -11.71569,13.60419 -9.64412,19.00261 2.90179,7.56192 17.46631,9.82311 29.87428,4.63874 6.361,-2.65783 7.85167,-4.50426 7.79064,-9.64208 -0.12267,-10.32911 -7.76066,-16.71144 -17.61909,-16.50297 z m -81.49389,31.94246 c -0.7226,-0.11053 -3.20594,0.97473 -7.48276,3.18635 -7.92317,4.09723 -11.37987,9.88888 -11.06612,18.54279 l 0.23093,6.3889 2.38622,-7.44426 c 1.31207,-4.09429 5.83646,-10.47533 10.05532,-14.17955 4.82296,-4.23462 6.80546,-6.35211 5.87641,-6.49423 z m 8.49556,2.29911 c -2.50454,0.0544 -5.35292,1.17875 -9.41926,3.28155 -7.28712,3.7683 -14.16096,16.57024 -11.96754,22.28619 3.12902,8.1541 19.58046,8.2978 31.82093,0.27752 7.24533,-4.74731 6.9852,-13.51552 -0.60972,-20.55426 -3.95164,-3.66224 -6.60428,-5.36091 -9.82441,-5.291 z m 48.76144,2.87237 c 1.27218,2.40924 2.7458,4.75622 4.43616,6.99052 -1.65889,-2.45156 -3.1289,-4.77266 -4.43616,-6.99052 z m 184.31584,58.60001 c 0.69094,0.12929 0.11463,3.16259 -1.72788,7.45034 -1.2856,2.99176 -1.99203,3.37818 -2.07426,1.13436 -0.0686,-1.87164 0.86472,-4.93454 2.07426,-6.80618 0.83751,-1.29595 1.41382,-1.83729 1.72788,-1.77852 z m -275.51057,2.52396 c -3.30494,0.0867 -5.36105,1.41712 -8.6637,4.71976 -5.80243,5.80244 -7.79985,17.90781 -3.40309,20.62516 1.28976,0.79711 2.26873,-1.1389 2.26873,-4.48479 0,-6.93652 5.4925,-16.07976 10.90811,-18.15791 2.37161,-0.91008 1.45615,1.01023 -2.40445,5.03981 -8.00484,8.35526 -8.65088,20.25658 -1.24779,22.99517 7.65514,2.83182 20.05203,-2.01884 24.70279,-9.66639 6.45584,-10.61578 1.0283,-17.29511 -16.64476,-20.4854 -2.25198,-0.40652 -4.0136,-0.62481 -5.51584,-0.58541 z m 172.20044,25.25985 c 11.86092,0.29977 23.64679,9.37818 25.80879,20.90266 2.86225,15.25708 -9.22218,30.22753 -24.39691,30.22472 h -7.59011 l 0.78595,11.35174 c 0.59087,8.52685 -0.4132,13.38785 -4.03914,19.53333 -4.00048,6.78032 -4.33092,8.79102 -1.92235,11.73256 2.37167,2.89648 1.81095,2.836 -3.05265,-0.32816 -15.77899,-10.26542 -31.17452,-8.69372 -42.62978,4.35313 -3.84594,4.38024 -6.99255,7.35091 -6.99255,6.60158 0,-0.74931 0.98819,-3.20878 2.19581,-5.4652 1.67235,-3.12483 1.05609,-5.1164 -2.58271,-8.35782 -10.6268,-9.4663 -13.77346,-27.12659 -7.2741,-40.82291 6.63776,-13.98803 25.47263,-23.0159 39.57916,-18.97021 6.4215,1.84168 6.64818,1.64433 6.64818,-5.79538 0,-9.68154 10.74446,-22.60106 20.40233,-24.53263 1.6697,-0.33395 3.36565,-0.47024 5.06008,-0.42741 z m -0.31195,5.92704 c -6.08262,0.088 -12.18297,3.04684 -16.13633,9.53068 -6.00555,9.8496 -5.62219,11.98994 1.33086,7.43413 7.62698,-4.99741 14.25455,-3.78216 19.76426,3.62592 4.16141,5.59522 4.23088,6.50915 0.97028,13.04517 -4.27493,8.5693 -1.93587,8.9384 7.31462,1.15462 5.4924,-4.62153 6.98039,-7.67203 6.98039,-14.31728 0,-12.78911 -10.0864,-20.61995 -20.22408,-20.47324 z m -5.2991,15.78184 c -1.69718,0.0431 -1.20047,1.31294 1.23767,3.16204 2.94085,2.23031 3.66207,4.73369 2.59081,9.00197 -1.67919,6.69041 -5.81571,7.63161 -10.21941,2.32545 -2.46017,-2.96431 -2.44469,-4.44182 0.0871,-8.50772 2.79221,-4.4841 2.72857,-4.64449 -0.70493,-1.80688 -4.74302,3.91987 -4.82933,10.24763 -0.20256,14.87434 5.03285,5.03284 11.45798,4.42461 15.59142,-1.4767 1.94238,-2.77315 3.53071,-5.83605 3.53071,-6.80618 0,-2.86239 -8.83091,-10.84468 -11.91082,-10.76632 z m -32.5846,13.66503 c -2.79459,-0.10482 -6.93266,0.56239 -11.50568,2.29505 -19.97907,7.56987 -26.15997,31.82947 -11.98577,47.04369 5.53268,5.93863 4.18421,5.81688 14.87232,1.3511 5.92589,-2.47599 11.97666,-3.19575 19.01071,-2.26265 8.40255,1.11464 10.78913,0.61593 12.8487,-2.68196 2.86756,-4.59171 6.33018,-18.6461 4.59417,-18.6461 -0.62703,0 -4.20131,3.06087 -7.94459,6.80415 -11.43977,11.43975 -27.30138,7.50925 -31.12208,-7.71367 -1.79061,-7.13432 3.24771,-17.73553 9.79807,-20.61503 7.01724,-3.08471 6.09182,-5.3999 1.43415,-5.57458 z m 5.64347,8.08841 c -1.86724,-0.0385 -3.62631,0.19137 -5.07831,0.74342 -6.04635,2.29879 -8.24844,6.58706 -8.24844,16.05529 0,12.09793 16.06729,17.90283 24.95397,9.01616 4.54911,-4.54912 5.96291,-14.66235 2.75489,-19.70754 -2.20257,-3.46396 -8.78044,-5.99171 -14.38211,-6.10733 z m 0.28967,3.5854 c 2.95923,-0.043 5.72195,1.5502 7.69138,4.71369 1.89321,3.04108 1.79631,4.4816 -0.39905,5.8521 -1.60804,1.00385 -2.26318,3.51525 -1.4605,5.607 1.94391,5.06576 -8.59907,5.23818 -13.61438,0.22281 -4.72402,-4.72461 -4.49793,-8.49982 0.80216,-13.29636 2.25829,-2.04373 4.67875,-3.06582 6.98039,-3.09924 z m 97.50462,34.7804 c 0.0957,-0.006 0.17828,0.0109 0.24915,0.0547 1.13392,0.70079 2.06211,9.19841 2.06211,18.8831 0,23.77696 -7.65311,39.81015 -22.60016,47.34753 -11.97459,6.03841 -37.17209,6.78497 -55.66889,1.64888 -6.23879,-1.73238 -11.65894,-3.19405 -12.04451,-3.24914 -0.38559,-0.0551 -0.0703,0.91968 0.70087,2.16744 1.79986,2.91224 -0.28234,2.88454 -5.81969,-0.079 -6.95677,-3.72315 -5.14038,-8.05135 4.6043,-10.97092 4.94588,-1.48185 10.67615,-4.96101 12.73526,-7.7319 l 3.74542,-5.03982 -1.18096,5.10464 c -0.64939,2.80745 -0.81944,5.10464 -0.37677,5.10464 0.44263,0 8.99009,-2.58502 18.99249,-5.74474 23.19737,-7.32807 35.14634,-16.49269 45.02208,-34.52922 4.00479,-7.31416 8.14344,-12.87675 9.5793,-12.96618 z m -4.49492,16.82707 -13.04518,13.3004 c -10.61691,10.82508 -16.42162,14.60436 -31.19297,20.30916 -13.19975,5.09783 -17.05036,7.4363 -14.12081,8.57458 3.30124,1.28264 3.51555,2.18111 1.19514,4.97702 -2.48677,2.99641 -0.74149,3.30548 14.3335,2.54422 14.65987,-0.74029 18.40804,-1.81747 25.70548,-7.38349 9.93333,-7.57655 17.00321,-21.55458 17.07419,-33.75745 z"
       id="path916"
       inkscape:connector-curvature="0" /><path
       sodipodi:nodetypes="ccssccsccccscccccscccccsscsccccsccccscccccscccscccccccsccccscccssccccsccccscscscccccccsccccccccscccsccccccccccccccscccssccsccccsccscsccscccscsscscccccccccsccccssscsscccccsccccccscccccscccccccccsccccccsccsccc"
       inkscape:connector-curvature="0"
       id="path4172"
       d="m 228.78267,110.41952 c -3.82786,-0.12024 -8.99692,2.30152 -13.49892,6.32407 -10.98697,9.81684 -10.01861,17.79945 4.82307,39.79185 12.87719,19.08143 31.89384,57.05001 31.89384,63.67831 0,3.11213 1.10545,3.60255 5.10463,2.2667 12.87555,-4.30078 28.80348,-3.82501 39.11934,1.16881 5.6226,2.72186 10.22346,6.49845 10.22346,8.39225 0,2.44481 -1.15144,2.9285 -3.97028,1.66509 -9.43224,-4.22759 -25.43439,-3.74371 -33.49613,1.01282 -5.55495,3.2775 -10.17627,4.31117 -15.30581,3.42538 -12.51282,-2.16079 -13.79713,-2.87586 -11.06814,-6.16405 1.84511,-2.22324 0.38278,-6.47907 -5.8359,-16.99115 -19.55278,-33.05213 -42.7859,-57.90748 -60.77151,-65.01321 l -9.0749,-3.5854 6.61779,5.55636 c 9.1218,7.6606 9.1218,18.25599 0,25.55761 -8.20558,6.56818 -19.92036,8.97056 -27.31588,5.60092 -14.90135,-6.78952 -5.60657,2.76449 19.33077,19.86959 18.45137,12.65622 44.0725,36.82064 49.58993,46.77022 2.46974,4.45373 2.64936,4.45983 9.65018,0.33625 l 7.13029,-4.20119 -1.6266,10.85546 c -1.21566,8.10665 -3.34862,12.30435 -8.42264,16.57386 -7.81684,6.57741 -12.98441,17.48504 -12.98441,27.40905 0,3.78337 -1.00018,6.87708 -2.22417,6.87708 -6.16388,0 -5.45912,-30.02281 0.93383,-39.7797 3.237,-4.94031 2.85238,-5.6989 -8.4348,-16.65286 -20.09585,-19.50259 -50.96219,-38.9586 -61.48859,-38.75877 -4.30437,0.0816 -4.17346,0.42182 1.29844,3.39296 3.34565,1.81664 6.72027,5.31091 7.49896,7.76432 2.71379,8.55036 -7.89798,21.25964 -20.07013,24.03838 -5.8981,1.34647 -4.03332,2.67729 20.52995,14.64544 28.608,13.93893 50.02795,30.42013 46.50081,35.77905 -1.46124,2.22014 -5.01664,1.03599 -15.07287,-5.01957 -20.43599,-12.3059 -33.14763,-15.73839 -52.04702,-14.05395 -13.41902,1.19596 -16.96287,2.40388 -21.21463,7.22751 -2.80745,3.18508 -5.10463,8.2128 -5.10463,11.17349 0,5.46003 6.28108,13.79511 8.62723,11.44896 0.7041,-0.70409 0.0708,-2.48766 -1.40579,-3.96419 -1.4765,-1.4765 -2.57877,-5.79795 -2.45104,-9.6036 l 0.23092,-6.91962 1.74814,7.35919 c 3.31878,13.97986 10.13443,17.55076 20.13293,10.54755 10.39948,-7.28407 10.20985,-19.29854 -0.37273,-23.56235 -3.17562,-1.27948 -3.68598,-2.04898 -1.41998,-2.14111 12.38374,-0.50356 16.118,17.41814 5.528,26.5279 -6.92601,5.95786 -5.9424,6.53066 13.87773,8.06614 27.79725,2.15345 49.50046,16.37257 68.17322,44.66556 6.99968,10.60595 15.36698,22.1271 18.59344,25.6042 6.81156,7.34064 21.68388,11.98039 44.5582,13.89798 8.73431,0.7322 20.98593,2.73503 27.22473,4.45238 18.29083,5.03486 24.49323,4.45936 34.09369,-3.17014 4.74579,-3.77145 11.05306,-7.46644 14.01548,-8.20995 3.33978,-0.83824 7.17093,-4.91189 10.08569,-10.7238 2.58541,-5.15511 9.77218,-18.22676 15.97022,-29.0478 11.08548,-19.3539 11.30104,-20.09501 13.12823,-45.37454 1.09968,-15.21406 3.42783,-29.35226 5.70829,-34.65481 4.5051,-10.47541 3.35918,-22.09815 -3.42943,-34.76419 -2.47346,-4.61497 -4.45867,-9.93767 -4.40983,-11.82777 0.0487,-1.89013 1.69614,0.13791 3.66034,4.50505 2.45309,5.45413 3.95241,6.87493 4.78864,4.53745 0.66955,-1.87164 1.95104,-3.91358 2.84807,-4.53745 3.30504,-2.29865 13.68801,-25.19791 12.38279,-27.3098 -0.74226,-1.20098 -3.33098,-2.18366 -5.75285,-2.18366 -2.42188,0 -4.40376,-1.13079 -4.40376,-2.51383 0,-7.54375 -26.91121,7.41382 -34.28006,19.05326 -4.08079,6.44575 -4.45578,9.68586 -3.27142,28.21324 l 1.33692,20.93306 -8.24641,9.12758 c -4.5355,5.02024 -9.10821,9.12757 -10.16269,9.12757 -1.05447,0 -3.00418,-4.0373 -4.33286,-8.9716 -1.32866,-4.9343 -4.7112,-11.82584 -7.51718,-15.31391 -2.80597,-3.48807 -6.54197,-9.17954 -8.30112,-12.64815 -1.75916,-3.46864 -8.74267,-11.55124 -15.52052,-17.96143 -11.57545,-10.94759 -12.87414,-13.31869 -21.39491,-39.06667 -4.98922,-15.07635 -12.35184,-34.57932 -16.36117,-43.33877 -7.23788,-15.81314 -19.96244,-32.84792 -24.53466,-32.84792 -1.31189,0 -0.56806,2.00632 1.65293,4.46048 10.73089,11.8575 -0.0353,27.29967 -19.033,27.29967 -8.68068,0 -12.09299,-1.18694 -16.7197,-5.81362 -4.99725,-4.99725 -5.49809,-6.71816 -3.56718,-12.2572 2.7779,-7.96869 8.54609,-13.3542 17.02559,-15.89527 l 6.48208,-1.94259 z m 5.52192,4.40173 c -3.28615,0.0695 -6.81876,0.8712 -10.40171,2.5037 -6.25803,2.85136 -11.71569,13.60419 -9.64412,19.00261 2.90179,7.56192 17.46631,9.82311 29.87428,4.63874 6.361,-2.65783 7.85167,-4.50426 7.79064,-9.64208 -0.12267,-10.32911 -7.76066,-16.71144 -17.61909,-16.50297 z m -81.49389,31.94246 c -0.7226,-0.11053 -3.20594,0.97473 -7.48276,3.18635 -7.92317,4.09723 -11.37987,9.88888 -11.06612,18.54279 l 0.23093,6.3889 2.38622,-7.44426 c 1.31207,-4.09429 5.83646,-10.47533 10.05532,-14.17955 4.82296,-4.23462 6.80546,-6.35211 5.87641,-6.49423 z m 8.49556,2.29911 c -2.50454,0.0544 -5.35292,1.17875 -9.41926,3.28155 -7.28712,3.7683 -14.16096,16.57024 -11.96754,22.28619 3.12902,8.1541 19.58046,8.2978 31.82093,0.27752 7.24533,-4.74731 6.9852,-13.51552 -0.60972,-20.55426 -3.95164,-3.66224 -6.60428,-5.36091 -9.82441,-5.291 z m 48.76144,2.87237 c 1.27218,2.40924 2.7458,4.75622 4.43616,6.99052 -1.65889,-2.45156 -3.1289,-4.77266 -4.43616,-6.99052 z m 184.31584,58.60001 c 0.69094,0.12929 0.11463,3.16259 -1.72788,7.45034 -1.2856,2.99176 -1.99203,3.37818 -2.07426,1.13436 -0.0686,-1.87164 0.86472,-4.93454 2.07426,-6.80618 0.83751,-1.29595 1.41382,-1.83729 1.72788,-1.77852 z m -275.51057,2.52396 c -3.30494,0.0867 -5.36105,1.41712 -8.6637,4.71976 -5.80243,5.80244 -7.79985,17.90781 -3.40309,20.62516 1.28976,0.79711 2.26873,-1.1389 2.26873,-4.48479 0,-6.93652 5.4925,-16.07976 10.90811,-18.15791 2.37161,-0.91008 1.45615,1.01023 -2.40445,5.03981 -8.00484,8.35526 -8.65088,20.25658 -1.24779,22.99517 7.65514,2.83182 20.05203,-2.01884 24.70279,-9.66639 6.45584,-10.61578 1.0283,-17.29511 -16.64476,-20.4854 -2.25198,-0.40652 -4.0136,-0.62481 -5.51584,-0.58541 z m 172.20044,25.25985 c 11.86092,0.29977 23.64679,9.37818 25.80879,20.90266 2.86225,15.25708 -9.22218,30.22753 -24.39691,30.22472 h -7.59011 l 0.78595,11.35174 c 0.59087,8.52685 -0.4132,13.38785 -4.03914,19.53333 -4.00048,6.78032 -4.33092,8.79102 -1.92235,11.73256 2.37167,2.89648 1.81095,2.836 -3.05265,-0.32816 -15.77899,-10.26542 -31.17452,-8.69372 -42.62978,4.35313 -3.84594,4.38024 -6.99255,7.35091 -6.99255,6.60158 0,-0.74931 0.98819,-3.20878 2.19581,-5.4652 1.67235,-3.12483 1.05609,-5.1164 -2.58271,-8.35782 -10.6268,-9.4663 -13.77346,-27.12659 -7.2741,-40.82291 6.63776,-13.98803 25.47263,-23.0159 39.57916,-18.97021 6.4215,1.84168 6.64818,1.64433 6.64818,-5.79538 0,-9.68154 10.74446,-22.60106 20.40233,-24.53263 1.6697,-0.33395 3.36565,-0.47024 5.06008,-0.42741 z m -0.31195,5.92704 c -6.08262,0.088 -12.18297,3.04684 -16.13633,9.53068 -6.00555,9.8496 -5.62219,11.98994 1.33086,7.43413 7.62698,-4.99741 14.25455,-3.78216 19.76426,3.62592 4.16141,5.59522 4.23088,6.50915 0.97028,13.04517 -4.27493,8.5693 -1.93587,8.9384 7.31462,1.15462 5.4924,-4.62153 6.98039,-7.67203 6.98039,-14.31728 0,-12.78911 -10.0864,-20.61995 -20.22408,-20.47324 z m -5.2991,15.78184 c -1.69718,0.0431 -1.20047,1.31294 1.23767,3.16204 2.94085,2.23031 3.66207,4.73369 2.59081,9.00197 -1.67919,6.69041 -5.81571,7.63161 -10.21941,2.32545 -2.46017,-2.96431 -2.44469,-4.44182 0.0871,-8.50772 2.79221,-4.4841 2.72857,-4.64449 -0.70493,-1.80688 -4.74302,3.91987 -4.82933,10.24763 -0.20256,14.87434 5.03285,5.03284 11.45798,4.42461 15.59142,-1.4767 1.94238,-2.77315 3.53071,-5.83605 3.53071,-6.80618 0,-2.86239 -8.83091,-10.84468 -11.91082,-10.76632 z m -32.5846,13.66503 c -2.79459,-0.10482 -6.93266,0.56239 -11.50568,2.29505 -19.97907,7.56987 -26.15997,31.82947 -11.98577,47.04369 5.53268,5.93863 4.18421,5.81688 14.87232,1.3511 5.92589,-2.47599 11.97666,-3.19575 19.01071,-2.26265 8.40255,1.11464 10.78913,0.61593 12.8487,-2.68196 2.86756,-4.59171 6.33018,-18.6461 4.59417,-18.6461 -0.62703,0 -4.20131,3.06087 -7.94459,6.80415 -11.43977,11.43975 -27.30138,7.50925 -31.12208,-7.71367 -1.79061,-7.13432 3.24771,-17.73553 9.79807,-20.61503 7.01724,-3.08471 6.09182,-5.3999 1.43415,-5.57458 z m 5.64347,8.08841 c -1.86724,-0.0385 -3.62631,0.19137 -5.07831,0.74342 -6.04635,2.29879 -8.24844,6.58706 -8.24844,16.05529 0,12.09793 16.06729,17.90283 24.95397,9.01616 4.54911,-4.54912 5.96291,-14.66235 2.75489,-19.70754 -2.20257,-3.46396 -8.78044,-5.99171 -14.38211,-6.10733 z m 0.28967,3.5854 c 2.95923,-0.043 5.72195,1.5502 7.69138,4.71369 1.89321,3.04108 1.79631,4.4816 -0.39905,5.8521 -1.60804,1.00385 -2.26318,3.51525 -1.4605,5.607 1.94391,5.06576 -8.59907,5.23818 -13.61438,0.22281 -4.72402,-4.72461 -4.49793,-8.49982 0.80216,-13.29636 2.25829,-2.04373 4.67875,-3.06582 6.98039,-3.09924 z m 97.50462,34.7804 c 0.0957,-0.006 0.17828,0.0109 0.24915,0.0547 1.13392,0.70079 2.06211,9.19841 2.06211,18.8831 0,23.77696 -7.65311,39.81015 -22.60016,47.34753 -11.97459,6.03841 -37.17209,6.78497 -55.66889,1.64888 -6.23879,-1.73238 -11.65894,-3.19405 -12.04451,-3.24914 -0.38559,-0.0551 -0.0703,0.91968 0.70087,2.16744 1.79986,2.91224 -0.28234,2.88454 -5.81969,-0.079 -6.95677,-3.72315 -5.14038,-8.05135 4.6043,-10.97092 4.94588,-1.48185 10.67615,-4.96101 12.73526,-7.7319 l 3.74542,-5.03982 -1.18096,5.10464 c -0.64939,2.80745 -0.81944,5.10464 -0.37677,5.10464 0.44263,0 8.99009,-2.58502 18.99249,-5.74474 23.19737,-7.32807 35.14634,-16.49269 45.02208,-34.52922 4.00479,-7.31416 8.14344,-12.87675 9.5793,-12.96618 z m -4.49492,16.82707 -13.04518,13.3004 c -10.61691,10.82508 -16.42162,14.60436 -31.19297,20.30916 -13.19975,5.09783 -17.05036,7.4363 -14.12081,8.57458 3.30124,1.28264 3.51555,2.18111 1.19514,4.97702 -2.48677,2.99641 -0.74149,3.30548 14.3335,2.54422 14.65987,-0.74029 18.40804,-1.81747 25.70548,-7.38349 9.93333,-7.57655 17.00321,-21.55458 17.07419,-33.75745 z"
       style="fill:#ffffff;fill-opacity:1;stroke-width:0.69850779" /></g></svg>