<?xml version="1.0" encoding="UTF-8" standalone="no"?>
<!-- Created with Inkscape (http://www.inkscape.org/) -->

<svg
   xmlns:dc="http://purl.org/dc/elements/1.1/"
   xmlns:cc="http://creativecommons.org/ns#"
   xmlns:rdf="http://www.w3.org/1999/02/22-rdf-syntax-ns#"
   xmlns:svg="http://www.w3.org/2000/svg"
   xmlns="http://www.w3.org/2000/svg"
   xmlns:sodipodi="http://sodipodi.sourceforge.net/DTD/sodipodi-0.dtd"
   xmlns:inkscape="http://www.inkscape.org/namespaces/inkscape"
   width="512"
   height="512"
   id="svg2"
   version="1.1"
   inkscape:version="0.92.2 2405546, 2018-03-11"
   viewBox="0 0 512 512"
   sodipodi:docname="choqok-offline.svg">
  <defs
     id="defs4" />
  <sodipodi:namedview
     id="base"
     pagecolor="#ffffff"
     bordercolor="#666666"
     borderopacity="1.0"
     inkscape:pageopacity="0.0"
     inkscape:pageshadow="2"
     inkscape:zoom="0.5"
     inkscape:cx="531.55803"
     inkscape:cy="209.41765"
     inkscape:document-units="px"
     inkscape:current-layer="layer1"
     showgrid="false"
     inkscape:showpageshadow="false"
     borderlayer="true"
     units="px"
     inkscape:window-width="1366"
     inkscape:window-height="713"
     inkscape:window-x="0"
     inkscape:window-y="24"
     inkscape:window-maximized="1" />
  <metadata
     id="metadata7">
    <rdf:RDF>
      <cc:Work
         rdf:about="">
        <dc:format>image/svg+xml</dc:format>
        <dc:type
           rdf:resource="http://purl.org/dc/dcmitype/StillImage" />
        <dc:title></dc:title>
      </cc:Work>
    </rdf:RDF>
  </metadata>
  <g
     inkscape:label="Capa 1"
     inkscape:groupmode="layer"
     id="layer1"
     transform="translate(0,-143.88888)">
    <g
       transform="translate(-3.6897458e-7,-2.0269251e-6)"
       id="g848">
      <path
         style="fill:#8a715e;fill-opacity:1;stroke-width:11.10955811"
         inkscape:connector-curvature="0"
         d="m 432.91327,200.36357 c 102.19291,88.57445 105.82678,249.69932 8.1168,359.89823 C 343.3201,670.46068 181.27964,687.98945 79.08673,599.415 -23.106186,510.84055 -26.740042,349.71568 70.96993,239.51677 168.6799,129.31786 330.72036,111.78912 432.91327,200.36357 Z"
         id="path27" />
      <path
         style="opacity:1;fill:#000000;fill-opacity:0.49019608;stroke-width:11.10955811"
         inkscape:connector-curvature="0"
         d="M 511.63551,368.79286 C 510.08412,430.1044 486.47428,492.94726 440.66913,544.60705 342.95915,654.806 180.91869,672.33467 78.72578,583.76029 30.827124,542.24471 4.4968204,484.812 0.19382652,424.11806 0.79907852,490.47463 27.117411,554.37123 79.07868,599.40804 c 102.19291,88.57441 264.24107,71.03704 361.94334,-39.15323 49.70495,-56.05802 73.00502,-125.29078 70.61349,-191.46195 z"
         id="path51" />
      <g
         transform="matrix(1.56,0,0,-1.5599974,120,546.88905)"
         inkscape:label="ink_ext_XXXXXX"
         id="g33"
         style="fill:#000000;fill-opacity:0.49019608">
        <path
           d="m 200,143.296 c -7.358,-3.264 -15.267,-5.469 -23.566,-6.461 8.47,5.078 14.977,13.119 18.041,22.701 -7.929,-4.703 -16.71,-8.117 -26.057,-9.957 -7.484,7.975 -18.148,12.957 -29.95,12.957 -22.66,0 -41.0328,-18.371 -41.0328,-41.031 0,-3.216 0.3628,-6.348 1.0625,-9.351 -34.1016,1.711 -64.3368,18.047 -84.5739,42.872 -3.5324,-6.06 -5.55583,-13.109 -5.55583,-20.629 0,-14.236 7.24373,-26.795 18.25433,-34.153 -6.7262,0.213 -13.0535,2.059 -18.58519,5.132 -0.00391,-0.171 -0.00391,-0.342 -0.00391,-0.516 0,-19.8803 14.1441,-36.4635 32.9145,-40.2342 -3.4426,-0.9375 -7.0676,-1.4395 -10.8098,-1.4395 -2.6441,0 -5.2145,0.2578 -7.7203,0.7364 C 27.6391,47.6219 42.7926,35.7578 60.748,35.4281 46.7051,24.4219 29.0129,17.8621 9.78828,17.8621 6.47617,17.8621 3.20977,18.057 0,18.4359 18.1586,6.79414 39.727,0 62.8988,0 138.372,0 179.645,62.5238 179.645,116.747 c 0,1.779 -0.041,3.548 -0.12,5.308 8.018,5.786 14.974,13.012 20.475,21.241"
           style="fill:#000000;fill-opacity:0.49019608;fill-rule:nonzero;stroke:none"
           id="path31"
           inkscape:connector-curvature="0" />
      </g>
      <g
         style="fill:#ffffff"
         id="g10"
         inkscape:label="ink_ext_XXXXXX"
         transform="matrix(1.56,0,0,-1.5599974,100,526.88908)">
        <path
           inkscape:connector-curvature="0"
           id="path14"
           style="fill:#ffffff;fill-opacity:1;fill-rule:nonzero;stroke:none"
           d="m 200,143.296 c -7.358,-3.264 -15.267,-5.469 -23.566,-6.461 8.47,5.078 14.977,13.119 18.041,22.701 -7.929,-4.703 -16.71,-8.117 -26.057,-9.957 -7.484,7.975 -18.148,12.957 -29.95,12.957 -22.66,0 -41.0328,-18.371 -41.0328,-41.031 0,-3.216 0.3628,-6.348 1.0625,-9.351 -34.1016,1.711 -64.3368,18.047 -84.5739,42.872 -3.5324,-6.06 -5.55583,-13.109 -5.55583,-20.629 0,-14.236 7.24373,-26.795 18.25433,-34.153 -6.7262,0.213 -13.0535,2.059 -18.58519,5.132 -0.00391,-0.171 -0.00391,-0.342 -0.00391,-0.516 0,-19.8803 14.1441,-36.4635 32.9145,-40.2342 -3.4426,-0.9375 -7.0676,-1.4395 -10.8098,-1.4395 -2.6441,0 -5.2145,0.2578 -7.7203,0.7364 C 27.6391,47.6219 42.7926,35.7578 60.748,35.4281 46.7051,24.4219 29.0129,17.8621 9.78828,17.8621 6.47617,17.8621 3.20977,18.057 0,18.4359 18.1586,6.79414 39.727,0 62.8988,0 138.372,0 179.645,62.5238 179.645,116.747 c 0,1.779 -0.041,3.548 -0.12,5.308 8.018,5.786 14.974,13.012 20.475,21.241" />
      </g>
    </g>
  </g>
</svg>
