<?xml version="1.0" encoding="UTF-8" standalone="no"?>
<!-- Created with Inkscape (http://www.inkscape.org/) -->

<svg
   xmlns:dc="http://purl.org/dc/elements/1.1/"
   xmlns:cc="http://creativecommons.org/ns#"
   xmlns:rdf="http://www.w3.org/1999/02/22-rdf-syntax-ns#"
   xmlns:svg="http://www.w3.org/2000/svg"
   xmlns="http://www.w3.org/2000/svg"
   xmlns:sodipodi="http://sodipodi.sourceforge.net/DTD/sodipodi-0.dtd"
   xmlns:inkscape="http://www.inkscape.org/namespaces/inkscape"
   id="svg2"
   version="1.1"
   inkscape:version="0.92.2 2405546, 2018-03-11"
   width="512"
   height="512"
   sodipodi:docname="chrome-cnkjkdjlofllcpbemipjbcpfnglbgieh-Default.svg"
   viewBox="0 0 512 512">
  <metadata
     id="metadata8">
    <rdf:RDF>
      <cc:Work
         rdf:about="">
        <dc:format>image/svg+xml</dc:format>
        <dc:type
           rdf:resource="http://purl.org/dc/dcmitype/StillImage" />
        <dc:title />
      </cc:Work>
    </rdf:RDF>
  </metadata>
  <defs
     id="defs6" />
  <sodipodi:namedview
     pagecolor="#ffffff"
     bordercolor="#666666"
     borderopacity="1"
     objecttolerance="10"
     gridtolerance="10"
     guidetolerance="10"
     inkscape:pageopacity="0"
     inkscape:pageshadow="2"
     inkscape:window-width="1366"
     inkscape:window-height="713"
     id="namedview4"
     showgrid="false"
     inkscape:zoom="0.4609375"
     inkscape:cx="142.28315"
     inkscape:cy="179.98834"
     inkscape:window-x="0"
     inkscape:window-y="24"
     inkscape:window-maximized="1"
     inkscape:current-layer="svg2"
     inkscape:document-units="px" />
  <g
     id="g840">
    <path
       id="path943"
       d="m 432.9133,56.47393 c 102.19291,88.57459 105.82677,249.69974 8.1168,359.89882 C 343.32009,526.57184 181.27965,544.10061 79.086741,455.52602 -23.106205,366.95143 -26.740032,205.82627 70.969941,95.62719 168.67991,-14.57189 330.72036,-32.10066 432.9133,56.47393 Z"
       inkscape:connector-curvature="0"
       style="fill:#68b723;fill-opacity:1;stroke-width:11.10955906" />
    <path
       id="path945"
       d="M 511.63553,224.90351 C 510.08415,286.21512 486.47431,349.05808 440.66916,400.71795 342.95915,510.91707 180.9187,528.4458 78.725758,439.87125 30.827125,398.35563 4.4968187,340.9228 0.19382655,280.2288 0.7990801,346.58544 27.117405,410.48217 79.07869,455.51902 c 102.19291,88.57459 264.24106,71.03713 361.94336,-39.15326 49.70495,-56.05814 73.00502,-125.291 70.61348,-191.46225 z"
       inkscape:connector-curvature="0"
       style="opacity:1;fill:#000000;fill-opacity:0.49019608;stroke-width:11.10955906" />
    <path
       inkscape:connector-curvature="0"
       id="path834"
       d="m 317.16189,428.40977 c -4.12369,-5.94685 -19.1098,-19.44686 -26.5473,-23.91469 -14.83064,-8.90903 -30.01636,-13.43833 -48.22844,-14.3846 -21.48065,-1.1161 -41.12741,4.65532 -60.98312,17.91441 l -7.28513,4.86479 -7.67989,-4.67399 c -12.24484,-7.45218 -24.45691,-17.1083 -36.11309,-28.55468 -7.57844,-7.44203 -10.66756,-11.04834 -10.29501,-12.01863 0.72433,-1.88644 10.03189,-9.24209 19.83396,-15.67456 9.82623,-6.44832 28.39231,-15.63939 39.11847,-19.36544 29.37303,-10.20363 65.225,-12.64378 95.53459,-6.50226 41.82716,8.47527 79.20606,31.5893 106.42705,65.81141 3.43791,4.32214 6.25075,8.59156 6.25075,9.48758 0,3.09558 -21.78169,15.60505 -39.17314,22.49759 -10.60704,4.20375 -23.2135,8.1033 -26.19636,8.1033 -1.54972,0 -2.88853,-1.03073 -4.66334,-3.59023 z m 27.73774,-122.09803 c -20.65324,-10.30658 -40.47998,-16.36915 -65.54107,-20.04095 -7.95436,-1.16543 -16.21679,-1.5488 -33.45122,-1.55213 -24.30866,-0.004 -36.74177,1.05748 -60.7828,5.19274 -8.66088,1.48976 -13.30542,1.91676 -15.13737,1.39168 -10.94442,-3.13691 -13.31663,-14.17619 -4.61818,-21.491 5.40798,-4.54776 23.35758,-8.33957 50.6083,-10.69088 51.19314,-4.41716 99.67099,3.66424 136.38758,22.73624 20.7752,10.79144 26.51318,22.4105 14.58307,29.52983 -1.69457,1.01124 -4.26943,1.81957 -5.72191,1.79628 -1.46246,-0.0234 -8.74768,-3.08981 -16.3264,-6.87181 z m 29.97097,-51.70506 c -28.42473,-15.39016 -56.24611,-23.88326 -93.75146,-28.61977 -11.29932,-1.42697 -53.04746,-1.43252 -66.46228,-0.009 -15.41271,1.63571 -31.2548,3.62742 -40.1041,5.04197 -10.82646,1.7306 -15.63278,1.61722 -19.71692,-0.46507 -6.74116,-3.43699 -9.36053,-10.18175 -6.67919,-17.19848 3.34681,-8.75818 13.85684,-12.99594 42.29208,-17.05273 53.98137,-7.70139 103.14507,-4.90694 147.18694,8.36604 19.9038,5.99844 40.84842,15.62025 52.25272,24.00451 13.32478,9.79618 15.14444,20.72059 4.56796,27.42391 -6.12418,3.88148 -10.24111,3.56795 -19.58575,-1.49156 z m 28.02935,-59.71148 c -36.86057,-19.92293 -70.73647,-30.14083 -118.69977,-35.80305 -12.83145,-1.5148 -54.17437,-1.22006 -71.30392,0.50833 -16.84995,1.7002 -35.33413,4.28413 -48.24085,6.74368 -15.59758,2.97234 -21.28205,1.92188 -27.62041,-5.10408 -7.90704,-8.76484 -3.90657,-20.98809 9.00017,-27.49942 8.3521,-4.21356 25.03493,-7.68368 53.65667,-11.16086 18.70902,-2.27293 75.87525,-2.24733 94.63173,0.0424 48.50673,5.92143 93.26357,19.89894 119.97088,37.46677 15.46468,10.17253 20.92712,20.20984 15.88135,29.18214 -2.97044,5.28193 -10.63843,9.59261 -17.06375,9.59261 -1.73016,0 -5.7853,-1.57587 -10.2121,-3.96853 z"
       style="fill:#000000;fill-opacity:0.49019608;stroke-width:0.88002735" />
    <path
       style="fill:#ffffff;fill-opacity:1;stroke-width:0.88002735"
       d="m 297.16189,408.40977 c -4.12369,-5.94685 -19.1098,-19.44686 -26.5473,-23.91469 -14.83064,-8.90903 -30.01636,-13.43833 -48.22844,-14.3846 -21.48065,-1.1161 -41.12741,4.65532 -60.98312,17.91441 l -7.28513,4.86479 -7.67989,-4.67399 c -12.24484,-7.45218 -24.45691,-17.1083 -36.11309,-28.55468 -7.57844,-7.44203 -10.667566,-11.04834 -10.29501,-12.01863 0.72433,-1.88644 10.03189,-9.24209 19.83396,-15.67456 9.82623,-6.44832 28.39231,-15.63939 39.11847,-19.36544 29.37303,-10.20363 65.225,-12.64378 95.53459,-6.50226 41.82716,8.47527 79.20606,31.5893 106.42705,65.81141 3.43791,4.32214 6.25075,8.59156 6.25075,9.48758 0,3.09558 -21.78169,15.60505 -39.17314,22.49759 -10.60704,4.20375 -23.2135,8.1033 -26.19636,8.1033 -1.54972,0 -2.88853,-1.03073 -4.66334,-3.59023 z m 27.73774,-122.09803 c -20.65324,-10.30658 -40.47998,-16.36915 -65.54107,-20.04095 -7.95436,-1.16543 -16.21679,-1.5488 -33.45122,-1.55213 -24.30866,-0.004 -36.74177,1.05748 -60.7828,5.19274 -8.66088,1.48976 -13.30542,1.91676 -15.13737,1.39168 -10.94442,-3.13691 -13.31663,-14.17619 -4.61818,-21.491 5.40798,-4.54776 23.35758,-8.33957 50.6083,-10.69088 51.19314,-4.41716 99.67099,3.66424 136.38758,22.73624 20.7752,10.79144 26.51318,22.4105 14.58307,29.52983 -1.69457,1.01124 -4.26943,1.81957 -5.72191,1.79628 -1.46246,-0.0234 -8.74768,-3.08981 -16.3264,-6.87181 z m 29.97097,-51.70506 c -28.42473,-15.39016 -56.24611,-23.88326 -93.75146,-28.61977 -11.29932,-1.42697 -53.04746,-1.43252 -66.46228,-0.009 -15.41271,1.63571 -31.2548,3.62742 -40.1041,5.04197 -10.82646,1.7306 -15.63278,1.61722 -19.71692,-0.46507 -6.74116,-3.43699 -9.36053,-10.18175 -6.67919,-17.19848 3.34681,-8.75818 13.85684,-12.99594 42.29208,-17.05273 53.98137,-7.70139 103.14507,-4.90694 147.18694,8.36604 19.9038,5.99844 40.84842,15.62025 52.25272,24.00451 13.32478,9.79618 15.14444,20.72059 4.56796,27.42391 -6.12418,3.88148 -10.24111,3.56795 -19.58575,-1.49156 z m 28.02935,-59.71148 c -36.86057,-19.92293 -70.73647,-30.14083 -118.69977,-35.80305 -12.83145,-1.5148 -54.17437,-1.22006 -71.30392,0.50833 -16.84995,1.7002 -35.33413,4.28413 -48.24085,6.74368 -15.59758,2.97234 -21.28205,1.92188 -27.62041,-5.10408 -7.90704,-8.76484 -3.90657,-20.98809 9.00017,-27.49942 8.3521,-4.21356 25.03493,-7.68368 53.65667,-11.16086 18.70902,-2.27293 75.87525,-2.24733 94.63173,0.0424 48.50673,5.92143 93.26357,19.89894 119.97088,37.46677 15.46468,10.17253 20.92712,20.20984 15.88135,29.18214 -2.97044,5.28193 -10.63843,9.59261 -17.06375,9.59261 -1.73016,0 -5.7853,-1.57587 -10.2121,-3.96853 z"
       id="path2990"
       inkscape:connector-curvature="0" />
  </g>
</svg>
