<?xml version="1.0" encoding="UTF-8" standalone="no"?>
<!-- Created with Inkscape (http://www.inkscape.org/) -->

<svg
   xmlns:dc="http://purl.org/dc/elements/1.1/"
   xmlns:cc="http://creativecommons.org/ns#"
   xmlns:rdf="http://www.w3.org/1999/02/22-rdf-syntax-ns#"
   xmlns:svg="http://www.w3.org/2000/svg"
   xmlns="http://www.w3.org/2000/svg"
   xmlns:sodipodi="http://sodipodi.sourceforge.net/DTD/sodipodi-0.dtd"
   xmlns:inkscape="http://www.inkscape.org/namespaces/inkscape"
   id="svg2"
   version="1.1"
   inkscape:version="0.92.2 2405546, 2018-03-11"
   width="512"
   height="512"
   sodipodi:docname="chromium.svg"
   viewBox="0 0 512 512">
  <metadata
     id="metadata8">
    <rdf:RDF>
      <cc:Work
         rdf:about="">
        <dc:format>image/svg+xml</dc:format>
        <dc:type
           rdf:resource="http://purl.org/dc/dcmitype/StillImage" />
        <dc:title></dc:title>
      </cc:Work>
    </rdf:RDF>
  </metadata>
  <defs
     id="defs6">
    <clipPath
       id="clipPath3947"
       clipPathUnits="userSpaceOnUse">
      <ellipse
         ry="212.23589"
         rx="203.24309"
         cy="256.47083"
         cx="256.52075"
         id="ellipse3949"
         style="opacity:1;fill:#ffc82d;fill-opacity:1;stroke:none;stroke-width:0;stroke-linecap:butt;stroke-linejoin:miter;stroke-miterlimit:4;stroke-dasharray:none;stroke-dashoffset:0;stroke-opacity:1" />
    </clipPath>
    <clipPath
       id="clipPath4806"
       clipPathUnits="userSpaceOnUse">
      <circle
         r="211.62711"
         cy="248.91539"
         cx="249.4608"
         id="circle4808"
         style="opacity:1;fill:#f6c439;fill-opacity:1;stroke:none;stroke-width:0;stroke-linecap:butt;stroke-linejoin:miter;stroke-miterlimit:4;stroke-dasharray:none;stroke-dashoffset:0;stroke-opacity:1" />
    </clipPath>
    <clipPath
       id="clipPath4837"
       clipPathUnits="userSpaceOnUse">
      <circle
         r="207.13615"
         cy="256"
         cx="256"
         id="circle4839"
         style="opacity:1;fill:#0fa15f;fill-opacity:1;stroke:none;stroke-width:0;stroke-linecap:butt;stroke-linejoin:miter;stroke-miterlimit:4;stroke-dasharray:none;stroke-dashoffset:0;stroke-opacity:1" />
    </clipPath>
    <clipPath
       id="clipPath5050"
       clipPathUnits="userSpaceOnUse">
      <path
         inkscape:connector-curvature="0"
         id="path5052"
         d="M 255.99999,45.26758 A 210.73167,210.73167 0 0 0 45.267565,256 210.73167,210.73167 0 0 0 255.99999,466.73242 210.73167,210.73167 0 0 0 466.73244,256 210.73167,210.73167 0 0 0 255.99999,45.26758 Z m 0,111.84375 A 98.888542,98.888542 0 0 1 354.88866,256 98.888542,98.888542 0 0 1 255.99999,354.88867 98.888542,98.888542 0 0 1 157.11132,256 98.888542,98.888542 0 0 1 255.99999,157.11133 Z"
         style="opacity:1;fill:#f9f9f9;fill-opacity:1;stroke:none;stroke-width:0;stroke-linecap:butt;stroke-linejoin:miter;stroke-miterlimit:4;stroke-dasharray:none;stroke-dashoffset:0;stroke-opacity:1" />
    </clipPath>
    <clipPath
       id="clipPath5127"
       clipPathUnits="userSpaceOnUse">
      <path
         inkscape:connector-curvature="0"
         id="path5129"
         d="M 255.99999,45.26758 A 210.73167,210.73167 0 0 0 45.26756,256 210.73167,210.73167 0 0 0 255.99999,466.73242 210.73167,210.73167 0 0 0 466.73244,256 210.73167,210.73167 0 0 0 255.99999,45.26758 Z m 0,111.84375 A 98.888542,98.888542 0 0 1 354.88864,256 98.888542,98.888542 0 0 1 255.99999,354.88867 98.888542,98.888542 0 0 1 157.11132,256 98.888542,98.888542 0 0 1 255.99999,157.11133 Z"
         style="opacity:1;fill:#f9f9f9;fill-opacity:1;stroke:none;stroke-width:0;stroke-linecap:butt;stroke-linejoin:miter;stroke-miterlimit:4;stroke-dasharray:none;stroke-dashoffset:0;stroke-opacity:1" />
    </clipPath>
  </defs>
  <sodipodi:namedview
     pagecolor="#ffffff"
     bordercolor="#666666"
     borderopacity="1"
     objecttolerance="10"
     gridtolerance="10"
     guidetolerance="10"
     inkscape:pageopacity="0"
     inkscape:pageshadow="2"
     inkscape:window-width="1366"
     inkscape:window-height="713"
     id="namedview4"
     showgrid="false"
     inkscape:zoom="0.16296602"
     inkscape:cx="-457.58423"
     inkscape:cy="189.86168"
     inkscape:window-x="0"
     inkscape:window-y="24"
     inkscape:window-maximized="1"
     inkscape:current-layer="svg2"
     inkscape:document-units="px" />
  <g
     id="g890">
    <path
       id="path1165"
       d="M 432.91349,56.473929 C 535.1064,145.04852 538.74026,306.17367 441.03029,416.37276 343.32029,526.57184 181.27985,544.10061 79.086976,455.52602 -23.105969,366.95143 -26.739796,205.82627 70.970176,95.62719 168.68011,-14.571892 330.72056,-32.100661 432.91349,56.473929 Z"
       inkscape:connector-curvature="0"
       style="fill:#3689e6;fill-opacity:1;stroke-width:11.10955906" />
    <path
       id="path1167"
       d="M 511.63572,224.90351 C 510.08434,286.21512 486.4745,349.05808 440.66935,400.71795 342.95935,510.91707 180.91891,528.4458 78.725993,439.87125 30.827361,398.35563 4.4970549,340.9228 0.19406263,280.2288 0.79931618,346.58544 27.117641,410.48217 79.078926,455.51902 181.2718,544.09361 343.31995,526.55615 441.02224,416.36576 c 49.70495,-56.05814 73.00502,-125.291 70.61348,-191.46225 z"
       inkscape:connector-curvature="0"
       style="opacity:1;fill:#000000;fill-opacity:0.49019608;stroke-width:11.10955906" />
    <g
       style="fill:#000000;fill-opacity:0.49019608"
       transform="translate(20.000236,20)"
       id="g886">
      <path
         sodipodi:nodetypes="cccccccssc"
         inkscape:connector-curvature="0"
         id="path878"
         d="m 394.77289,188.07468 c -211.93386,170.85851 -105.96693,85.42926 0,0 z m 0,0 -122.50126,0.0481 c 33.73273,5.58248 59.47279,35.1305 59.47309,70.75014 -0.0248,17.51777 -6.40371,34.42038 -17.93252,47.51724 L 253.05872,411.3705 c 2.52748,0.12665 5.07044,0.19247 7.62907,0.19246 83.56755,3e-4 151.31252,-68.36154 151.31221,-152.69004 10e-5,-25.55368 -6.2306,-49.63473 -17.22711,-70.79826 z"
         style="opacity:1;fill:#000000;fill-opacity:0.49019608;stroke:none;stroke-width:0;stroke-linecap:butt;stroke-linejoin:miter;stroke-miterlimit:4;stroke-dasharray:none;stroke-dashoffset:0;stroke-opacity:1" />
      <path
         sodipodi:nodetypes="sccccccscc"
         inkscape:connector-curvature="0"
         id="path880"
         d="m 257.0238,100.00002 c -54.40033,-2.02e-4 -102.08793,28.97445 -128.75457,72.45966 l 59.04675,93.83727 c 0.27392,4.46616 -1.34586,-13.28608 -1.34911,-13.6069 3.4e-4,-39.60085 31.81341,-71.70361 71.05693,-71.70395 3.68437,0.0298 7.36087,0.34867 10.99623,0.95382 l 123.08886,-0.0481 C 365.81637,133.21463 315.26825,99.999788 257.0238,100 Z M 128.251,172.48941 c -36.695259,177.12676 -18.34764,88.56338 0,0 z"
         clip-path="none"
         style="fill:#000000;fill-opacity:0.49019608;stroke-width:0.8042888" />
      <path
         sodipodi:nodetypes="csccccc"
         inkscape:connector-curvature="0"
         id="path882"
         d="M 122.55764,179.27204 C 108.26009,202.58702 99.99989,230.06961 100,259.50242 99.99971,341.24898 163.66065,407.98989 243.68314,412 l 60.75349,-104.98033 c -13.46634,15.35666 -32.8037,24.16067 -53.12442,24.18671 -34.02258,-0.0283 -63.25129,-24.38855 -69.70781,-58.09708 z"
         clip-path="none"
         style="fill:#000000;fill-opacity:0.49019608;stroke-width:0.8042888" />
      <circle
         r="60"
         cy="256.29535"
         cx="255.72011"
         id="circle884"
         style="opacity:1;fill:#000000;fill-opacity:0.49019608;stroke:none;stroke-width:4.83599138;stroke-linecap:square;stroke-linejoin:miter;stroke-miterlimit:4;stroke-dasharray:none;stroke-dashoffset:0;stroke-opacity:1" />
    </g>
    <g
       transform="translate(2.3576806e-4)"
       id="g876">
      <path
         style="opacity:1;fill:#ffffff;fill-opacity:1;stroke:none;stroke-width:0;stroke-linecap:butt;stroke-linejoin:miter;stroke-miterlimit:4;stroke-dasharray:none;stroke-dashoffset:0;stroke-opacity:1"
         d="m 394.77289,188.07468 c -211.93386,170.85851 -105.96693,85.42926 0,0 z m 0,0 -122.50126,0.0481 c 33.73273,5.58248 59.47279,35.1305 59.47309,70.75014 -0.0248,17.51777 -6.40371,34.42038 -17.93252,47.51724 L 253.05872,411.3705 c 2.52748,0.12665 5.07044,0.19247 7.62907,0.19246 83.56755,3e-4 151.31252,-68.36154 151.31221,-152.69004 10e-5,-25.55368 -6.2306,-49.63473 -17.22711,-70.79826 z"
         id="path4797"
         inkscape:connector-curvature="0"
         sodipodi:nodetypes="cccccccssc" />
      <path
         style="fill:#ffffff;fill-opacity:1;stroke-width:0.8042888"
         clip-path="none"
         d="m 257.0238,100.00002 c -54.40033,-2.02e-4 -102.08793,28.97445 -128.75457,72.45966 l 59.04675,93.83727 c 0.27392,4.46616 -1.34586,-13.28608 -1.34911,-13.6069 3.4e-4,-39.60085 31.81341,-71.70361 71.05693,-71.70395 3.68437,0.0298 7.36087,0.34867 10.99623,0.95382 l 123.08886,-0.0481 C 365.81637,133.21463 315.26825,99.999788 257.0238,100 Z M 128.251,172.48941 c -36.695259,177.12676 -18.34764,88.56338 0,0 z"
         id="path3923"
         inkscape:connector-curvature="0"
         sodipodi:nodetypes="sccccccscc" />
      <path
         style="fill:#ffffff;fill-opacity:1;stroke-width:0.8042888"
         clip-path="none"
         d="M 122.55764,179.27204 C 108.26009,202.58702 99.99989,230.06961 100,259.50242 99.99971,341.24898 163.66065,407.98989 243.68314,412 l 60.75349,-104.98033 c -13.46634,15.35666 -32.8037,24.16067 -53.12442,24.18671 -34.02258,-0.0283 -63.25129,-24.38855 -69.70781,-58.09708 z"
         id="path3923-1"
         inkscape:connector-curvature="0"
         sodipodi:nodetypes="csccccc" />
      <circle
         style="opacity:1;fill:#ffffff;fill-opacity:1;stroke:none;stroke-width:4.83599138;stroke-linecap:square;stroke-linejoin:miter;stroke-miterlimit:4;stroke-dasharray:none;stroke-dashoffset:0;stroke-opacity:1"
         id="path870"
         cx="255.72011"
         cy="256.29535"
         r="60" />
    </g>
  </g>
</svg>
