<?xml version="1.0" encoding="UTF-8" standalone="no"?>
<!-- Created with Inkscape (http://www.inkscape.org/) -->

<svg
   xmlns:dc="http://purl.org/dc/elements/1.1/"
   xmlns:cc="http://creativecommons.org/ns#"
   xmlns:rdf="http://www.w3.org/1999/02/22-rdf-syntax-ns#"
   xmlns:svg="http://www.w3.org/2000/svg"
   xmlns="http://www.w3.org/2000/svg"
   xmlns:sodipodi="http://sodipodi.sourceforge.net/DTD/sodipodi-0.dtd"
   xmlns:inkscape="http://www.inkscape.org/namespaces/inkscape"
   id="svg2"
   version="1.1"
   inkscape:version="0.92.2 2405546, 2018-03-11"
   width="512"
   height="512"
   sodipodi:docname="cinnamon-session-properties.svg">
  <metadata
     id="metadata8">
    <rdf:RDF>
      <cc:Work
         rdf:about="">
        <dc:format>image/svg+xml</dc:format>
        <dc:type
           rdf:resource="http://purl.org/dc/dcmitype/StillImage" />
        <dc:title />
      </cc:Work>
    </rdf:RDF>
  </metadata>
  <defs
     id="defs6" />
  <sodipodi:namedview
     pagecolor="#ffffff"
     bordercolor="#666666"
     borderopacity="1"
     objecttolerance="10"
     gridtolerance="10"
     guidetolerance="10"
     inkscape:pageopacity="0"
     inkscape:pageshadow="2"
     inkscape:window-width="1366"
     inkscape:window-height="713"
     id="namedview4"
     showgrid="false"
     inkscape:zoom="0.23046875"
     inkscape:cx="-394.32676"
     inkscape:cy="232.82924"
     inkscape:window-x="0"
     inkscape:window-y="24"
     inkscape:window-maximized="1"
     inkscape:current-layer="svg2" />
  <g
     id="g909">
    <path
       id="path1165"
       d="M 432.91325,56.473929 C 535.10616,145.04852 538.74002,306.17367 441.03005,416.37276 343.32005,526.57184 181.27961,544.10061 79.08674,455.52602 -23.106205,366.95143 -26.740032,205.82627 70.96994,95.62719 168.67987,-14.571892 330.72032,-32.100661 432.91325,56.473929 Z"
       inkscape:connector-curvature="0"
       style="fill:#c6262e;fill-opacity:1;stroke-width:11.10955906" />
    <path
       id="path1167"
       d="M 511.63548,224.90351 C 510.0841,286.21512 486.47426,349.05808 440.66911,400.71795 342.95911,510.91707 180.91867,528.4458 78.725757,439.87125 30.827125,398.35563 4.4968191,340.9228 0.19382681,280.2288 0.79908036,346.58544 27.117405,410.48217 79.07869,455.51902 c 102.19287,88.57459 264.24102,71.03713 361.94331,-39.15326 49.70495,-56.05814 73.00502,-125.291 70.61348,-191.46225 z"
       inkscape:connector-curvature="0"
       style="opacity:1;fill:#000000;fill-opacity:0.49019608;stroke-width:11.10955906" />
    <g
       id="g889"
       transform="matrix(0.66626052,0,0,0.66626052,475.40112,98.859022)"
       style="fill:#000000;fill-opacity:0.49019608">
      <path
         inkscape:connector-curvature="0"
         id="path875"
         d="m -428.76571,459.72627 c -3.40731,-31.81718 2.56379,-42.01976 11.73962,-20.05893 6.3686,15.24216 12.75846,17.33634 31.34088,10.27131 18.78873,-7.14346 14.25271,-1.00766 -8.77927,11.87557 -12.38855,6.92973 -24.55334,15.0938 -27.03291,18.14241 -3.57394,4.39424 -5.08024,0.20163 -7.26832,-20.23036 z"
         style="fill:#000000;fill-opacity:0.49019608;fill-rule:nonzero;stroke:none" />
      <path
         inkscape:connector-curvature="0"
         id="path877"
         d="m -333.8617,495.24021 c -5.53925,-3.87982 -4.96295,-7.35983 2.28076,-13.77295 12.41239,-10.98909 17.092,-35.47562 9.69856,-50.74845 -2.04246,-4.21913 -3.44987,-8.77311 -3.12761,-10.12 0.74574,-3.11681 42.7895,-42.64073 52.82854,-49.66226 7.19207,-5.03042 7.81722,-5.15761 12.76742,-2.59771 14.19451,7.34022 23.35482,22.61357 23.41738,39.0443 0.0483,12.61229 -2.77572,19.72071 -13.12523,33.04357 -15.90827,20.4784 -37.24611,37.83694 -60.27595,49.03493 -17.52753,8.52259 -19.78496,9.0558 -24.46387,5.77857 z"
         style="fill:#000000;fill-opacity:0.49019608" />
      <path
         inkscape:connector-curvature="0"
         id="path879"
         d="m -483.8169,406.57277 c -6.12622,-6.12621 -2.64702,-43.74457 6.28263,-67.92969 4.43189,-12.00341 15.48381,-31.7787 22.2629,-39.83519 5.91045,-7.02418 20.99651,-14.33778 32.34834,-15.68223 12.10588,-1.43375 27.60974,3.19069 35.77062,10.6696 l 6.30193,5.77527 -3.07605,10.67207 c -1.69181,5.86961 -7.01085,21.93143 -11.82005,35.6929 l -8.74402,25.02086 h -16.49335 c -14.944,0 -17.39298,0.4983 -26.0706,5.30469 -10.9745,6.07858 -20.9863,16.87168 -22.64167,24.40861 -1.7434,7.93755 -9.03714,10.98668 -14.12068,5.90311 z"
         style="fill:#000000;fill-opacity:0.49019608" />
      <path
         inkscape:connector-curvature="0"
         id="path881"
         d="m -131.00546,83.871117 c -11.34123,-2.463976 -25.82036,-9.752499 -35.02381,-17.630232 -5.81572,-4.978032 -15.80537,-17.712312 -15.80537,-20.147828 0,-1.884363 20.55653,-10.314583 31.13177,-12.767159 25.84573,-5.994033 37.12788,4.60176 39.33196,36.939567 1.18052,17.320571 0.29352,17.935184 -19.63455,13.605652 z"
         style="fill:#000000;fill-opacity:0.49019608;stroke-width:0.88153243" />
      <path
         style="fill:#000000;fill-opacity:0.49019608"
         d="m -218.33801,208.17306 c -39.19105,-7.47641 -54.59049,-51.35516 -27.52274,-78.42278 25.04924,-25.04922 68.66275,-18.0867 83.54355,13.33701 16.30467,34.43024 -16.5606,72.61352 -56.02081,65.08577 z"
         id="path883"
         inkscape:connector-curvature="0" />
      <path
         id="path885"
         d="m -396.74414,386.08203 c -8.16955,7.99106 -15.95241,17.76541 -22.6543,28.45117 -22.41576,35.7647 -27.58551,72.90617 -11.54687,82.95703 16.03793,10.05089 47.20989,-10.79309 69.625,-46.55664 7.09527,-11.34907 12.72578,-23.32873 16.32812,-34.74023 -6.25888,-2.32368 -20.62699,-10.03211 -23.79101,-12.3457 l -1.00782,-0.61914 c -0.32415,0.48244 -0.90103,1.31149 -1.14453,1.68359 -16.11306,24.62306 -26.59961,34.2871 -26.59961,24.51172 0,-1.86301 7.83498,-15.36819 18.39258,-31.93945 l -12.84375,-7.88868 c -2.06541,-1.42307 -3.69543,-2.28824 -4.75781,-3.51367 z"
         style="fill:#000000;fill-opacity:0.49019608;fill-rule:nonzero;stroke:none;stroke-width:1.25583112"
         inkscape:connector-curvature="0" />
      <path
         sodipodi:nodetypes="ssssssssssscssssssssscs"
         inkscape:connector-curvature="0"
         id="path887"
         d="m -362.27568,395.17032 c -6.68049,-4.88489 -2.62848,-2.06367 18.09089,-32.4884 21.43876,-31.48107 29.03885,-37.19382 16.81371,-37.19382 -5.6047,0 -8.24233,10.47924 -34.33936,48.50903 -12.4076,18.08093 -8.4237,17.49244 -23.76785,6.92039 -7.73814,-5.33157 -9.44938,-2.76637 2.45438,-41.08202 14.51992,-46.73652 46.55461,-126.09696 61.03721,-151.20923 27.47015,-47.63216 66.1957,-91.616151 102.77065,-116.725528 12.14493,-8.337795 23.61826,-15.15963 25.49606,-15.15963 1.87782,0 7.6144,4.470864 12.74795,9.935278 13.93304,14.831109 32.14358,24.925028 50.89224,28.208938 l 16.73359,2.930985 -0.50237,19.204947 c -0.70631,27.00279 -20.61599,74.73253 -41.40242,108.18303 -9.7047,15.61715 -31.15736,45.86028 -50.6343,65.42985 -36.60961,36.78371 -99.35929,99.13679 -129.7724,117.48943 -1.67575,1.01122 -22.70775,-10.09402 -26.61798,-12.95325 z M -190.9802,219.82676 c 19.93894,-5.53551 40.35779,-30.30938 42.59582,-45.21928 6.64072,-44.24075 -18.32434,-71.33847 -59.95636,-71.33847 -57.38873,0 -86.17711,62.07725 -46.26016,99.75249 10.95841,10.34286 30.03134,18.19266 41.35487,19.0998 3.19876,0.1503 13.78394,0.0601 22.26583,-2.29454 z"
         style="fill:#000000;fill-opacity:0.49019608;fill-rule:nonzero;stroke:none" />
    </g>
    <g
       style="fill:#ffffff"
       transform="matrix(0.66626052,0,0,0.66626052,455.40112,78.859022)"
       id="g873">
      <path
         style="fill:#ffffff;fill-opacity:1;fill-rule:nonzero;stroke:none"
         d="m -428.76571,459.72627 c -3.40731,-31.81718 2.56379,-42.01976 11.73962,-20.05893 6.3686,15.24216 12.75846,17.33634 31.34088,10.27131 18.78873,-7.14346 14.25271,-1.00766 -8.77927,11.87557 -12.38855,6.92973 -24.55334,15.0938 -27.03291,18.14241 -3.57394,4.39424 -5.08024,0.20163 -7.26832,-20.23036 z"
         id="path3009"
         inkscape:connector-curvature="0" />
      <path
         style="fill:#ffffff;fill-opacity:1"
         d="m -333.8617,495.24021 c -5.53925,-3.87982 -4.96295,-7.35983 2.28076,-13.77295 12.41239,-10.98909 17.092,-35.47562 9.69856,-50.74845 -2.04246,-4.21913 -3.44987,-8.77311 -3.12761,-10.12 0.74574,-3.11681 42.7895,-42.64073 52.82854,-49.66226 7.19207,-5.03042 7.81722,-5.15761 12.76742,-2.59771 14.19451,7.34022 23.35482,22.61357 23.41738,39.0443 0.0483,12.61229 -2.77572,19.72071 -13.12523,33.04357 -15.90827,20.4784 -37.24611,37.83694 -60.27595,49.03493 -17.52753,8.52259 -19.78496,9.0558 -24.46387,5.77857 z"
         id="path3023"
         inkscape:connector-curvature="0" />
      <path
         style="fill:#ffffff;fill-opacity:1"
         d="m -483.8169,406.57277 c -6.12622,-6.12621 -2.64702,-43.74457 6.28263,-67.92969 4.43189,-12.00341 15.48381,-31.7787 22.2629,-39.83519 5.91045,-7.02418 20.99651,-14.33778 32.34834,-15.68223 12.10588,-1.43375 27.60974,3.19069 35.77062,10.6696 l 6.30193,5.77527 -3.07605,10.67207 c -1.69181,5.86961 -7.01085,21.93143 -11.82005,35.6929 l -8.74402,25.02086 h -16.49335 c -14.944,0 -17.39298,0.4983 -26.0706,5.30469 -10.9745,6.07858 -20.9863,16.87168 -22.64167,24.40861 -1.7434,7.93755 -9.03714,10.98668 -14.12068,5.90311 z"
         id="path3019"
         inkscape:connector-curvature="0" />
      <path
         style="fill:#ffffff;fill-opacity:1;stroke-width:0.88153243"
         d="m -131.00546,83.871117 c -11.34123,-2.463976 -25.82036,-9.752499 -35.02381,-17.630232 -5.81572,-4.978032 -15.80537,-17.712312 -15.80537,-20.147828 0,-1.884363 20.55653,-10.314583 31.13177,-12.767159 25.84573,-5.994033 37.12788,4.60176 39.33196,36.939567 1.18052,17.320571 0.29352,17.935184 -19.63455,13.605652 z"
         id="path2986"
         inkscape:connector-curvature="0" />
      <path
         inkscape:connector-curvature="0"
         id="path2984"
         d="m -218.33801,208.17306 c -39.19105,-7.47641 -54.59049,-51.35516 -27.52274,-78.42278 25.04924,-25.04922 68.66275,-18.0867 83.54355,13.33701 16.30467,34.43024 -16.5606,72.61352 -56.02081,65.08577 z"
         style="fill:#ffffff;fill-opacity:1" />
      <path
         inkscape:connector-curvature="0"
         style="fill:#ffffff;fill-opacity:1;fill-rule:nonzero;stroke:none;stroke-width:1.25583112"
         d="m -396.74414,386.08203 c -8.16955,7.99106 -15.95241,17.76541 -22.6543,28.45117 -22.41576,35.7647 -27.58551,72.90617 -11.54687,82.95703 16.03793,10.05089 47.20989,-10.79309 69.625,-46.55664 7.09527,-11.34907 12.72578,-23.32873 16.32812,-34.74023 -6.25888,-2.32368 -20.62699,-10.03211 -23.79101,-12.3457 l -1.00782,-0.61914 c -0.32415,0.48244 -0.90103,1.31149 -1.14453,1.68359 -16.11306,24.62306 -26.59961,34.2871 -26.59961,24.51172 0,-1.86301 7.83498,-15.36819 18.39258,-31.93945 l -12.84375,-7.88868 c -2.06541,-1.42307 -3.69543,-2.28824 -4.75781,-3.51367 z"
         id="path3005" />
      <path
         style="fill:#ffffff;fill-opacity:1;fill-rule:nonzero;stroke:none"
         d="m -362.27568,395.17032 c -6.68049,-4.88489 -2.62848,-2.06367 18.09089,-32.4884 21.43876,-31.48107 29.03885,-37.19382 16.81371,-37.19382 -5.6047,0 -8.24233,10.47924 -34.33936,48.50903 -12.4076,18.08093 -8.4237,17.49244 -23.76785,6.92039 -7.73814,-5.33157 -9.44938,-2.76637 2.45438,-41.08202 14.51992,-46.73652 46.55461,-126.09696 61.03721,-151.20923 27.47015,-47.63216 66.1957,-91.616151 102.77065,-116.725528 12.14493,-8.337795 23.61826,-15.15963 25.49606,-15.15963 1.87782,0 7.6144,4.470864 12.74795,9.935278 13.93304,14.831109 32.14358,24.925028 50.89224,28.208938 l 16.73359,2.930985 -0.50237,19.204947 c -0.70631,27.00279 -20.61599,74.73253 -41.40242,108.18303 -9.7047,15.61715 -31.15736,45.86028 -50.6343,65.42985 -36.60961,36.78371 -99.35929,99.13679 -129.7724,117.48943 -1.67575,1.01122 -22.70775,-10.09402 -26.61798,-12.95325 z M -190.9802,219.82676 c 19.93894,-5.53551 40.35779,-30.30938 42.59582,-45.21928 6.64072,-44.24075 -18.32434,-71.33847 -59.95636,-71.33847 -57.38873,0 -86.17711,62.07725 -46.26016,99.75249 10.95841,10.34286 30.03134,18.19266 41.35487,19.0998 3.19876,0.1503 13.78394,0.0601 22.26583,-2.29454 z"
         id="path3007"
         inkscape:connector-curvature="0"
         sodipodi:nodetypes="ssssssssssscssssssssscs" />
    </g>
  </g>
</svg>
