<?xml version="1.0" encoding="UTF-8" standalone="no"?>
<!-- Created with Inkscape (http://www.inkscape.org/) -->

<svg
   xmlns:dc="http://purl.org/dc/elements/1.1/"
   xmlns:cc="http://creativecommons.org/ns#"
   xmlns:rdf="http://www.w3.org/1999/02/22-rdf-syntax-ns#"
   xmlns:svg="http://www.w3.org/2000/svg"
   xmlns="http://www.w3.org/2000/svg"
   xmlns:xlink="http://www.w3.org/1999/xlink"
   xmlns:sodipodi="http://sodipodi.sourceforge.net/DTD/sodipodi-0.dtd"
   xmlns:inkscape="http://www.inkscape.org/namespaces/inkscape"
   id="svg2"
   version="1.1"
   inkscape:version="0.92.2 2405546, 2018-03-11"
   width="512"
   height="512"
   sodipodi:docname="clementine-panel-grey.svg">
  <metadata
     id="metadata8">
    <rdf:RDF>
      <cc:Work
         rdf:about="">
        <dc:format>image/svg+xml</dc:format>
        <dc:type
           rdf:resource="http://purl.org/dc/dcmitype/StillImage" />
        <dc:title />
      </cc:Work>
    </rdf:RDF>
  </metadata>
  <defs
     id="defs6">
    <clipPath
       clipPathUnits="userSpaceOnUse"
       id="clipPath6018">
      <path
         inkscape:connector-curvature="0"
         style="fill:#fda864;stroke:none"
         d="m 505.7188,535.46875 c -0.0913,0.006 -0.19131,0.0169 -0.28125,0.0312 -0.0854,0.0137 -0.16595,0.0411 -0.25,0.0625 -0.01,0.003 -0.0213,-0.003 -0.0312,0 -0.0938,0.025 -0.19066,0.0593 -0.28125,0.0937 -1.79515,0.60007 -4.41142,2.89744 -5.28125,4.875 -0.37352,0.81205 -0.6923,1.71506 -0.96875,2.8125 -0.51252,2.03105 -0.65384,4.74515 -0.25,7.9375 0.3298,2.69483 1.08634,5.84095 2.5625,9.21875 0.91661,2.44272 2.74644,5.44877 6.15625,8.4375 0.40045,0.29688 0.78917,0.57928 1.1875,0.84375 3.20319,2.12655 6.07314,3.06958 8.3125,3.4375 3.67177,0.81981 6.96924,0.98331 9.78125,0.8125 3.34236,-0.19132 6.12479,-0.83507 8.125,-1.75 0.84192,-0.45733 1.95625,-1.13921 2.5625,-1.6875 1.786,-1.61523 3.19802,-3.02233 3.96875,-4.25 0.031,-0.043 0.065,-0.0816 0.0937,-0.125 0.0859,-0.14409 0.15233,-0.26698 0.21875,-0.40625 0.0327,-0.0654 0.066,-0.1212 0.0937,-0.1875 0.0488,-0.11704 0.0914,-0.23009 0.125,-0.34375 0.009,-0.0679 0.0235,-0.0718 0.0312,-0.125 0.01,-0.0396 0.0234,-0.0858 0.0312,-0.125 0.0139,-0.0884 0.0233,-0.24156 0.0312,-0.28125 0.0149,-0.0743 -7.3e-4,-0.0622 0,-0.0625 -6.8e-4,-4.5e-4 0.004,-0.018 0,-0.0937 -0.005,-0.0773 -8.2e-4,-0.21231 0,-0.5 -0.024,-0.1922 -0.0676,-0.40226 -0.125,-0.59375 -0.1152,-0.3785 -0.28887,-0.75013 -0.53125,-1.125 -0.47138,-0.72912 -1.16539,-1.44783 -2.0625,-2.15625 -1.66351,-1.31335 -3.99576,-2.58272 -6.71875,-3.8125 -2.31868,-1.04924 -4.86763,-2.00674 -7.34375,-3.0625 -1.72915,-0.84294 -3.0941,-1.28598 -3.59375,-1.6875 -0.0621,-0.0499 -0.0901,-0.10636 -0.125,-0.15625 -0.45282,-0.0886 -1.1746,-1.31192 -2.4375,-2.84375 -1.45776,-1.97251 -2.84903,-4.05918 -4.25,-5.96875 -1.6371,-2.2372 -3.21894,-4.12471 -4.71875,-5.40625 -0.8097,-0.69174 -1.59101,-1.19859 -2.34375,-1.5 -0.38731,-0.15511 -0.75607,-0.27401 -1.125,-0.3125 -0.18689,-0.0199 -0.3809,-0.0121 -0.5625,0 z"
         id="path6020" />
    </clipPath>
    <inkscape:path-effect
       effect="bend_path"
       id="path-effect2873"
       is_visible="true"
       bendpath="m 493.92856,544.77289 c 0,0 14.5273,11.15646 22.519,11.15146 7.93979,-0.005 24.44529,-11.15146 24.44529,-11.15146"
       prop_scale="1"
       scale_y_rel="false"
       vertical="false"
       bendpath-nodetypes="csc" />
    <clipPath
       clipPathUnits="userSpaceOnUse"
       id="clipPath5802">
      <path
         inkscape:connector-curvature="0"
         style="fill:#241c1c;stroke:none"
         d="m 505.71875,535.46875 c -0.0913,0.006 -0.19131,0.0169 -0.28125,0.0312 -0.0955,0.0153 -0.1874,0.0375 -0.28125,0.0625 -0.0844,0.0225 -0.16817,0.0636 -0.25,0.0937 -0.003,0.005 -0.0284,-0.005 -0.0312,0 -0.79083,1.25489 -1.4864,2.70521 -1.71875,4.09375 -0.3364,2.01031 -0.60558,4.59838 -0.21875,7.65625 0.31871,2.60411 1.03448,5.62431 2.46875,8.90625 a 1.0096098,0.99067979 1.5151289 0 1 0,0.0625 c 0.85048,2.26648 2.57266,5.1072 5.8125,7.96875 0.0263,0.0232 0.0673,0.0393 0.0937,0.0625 0.36148,0.26611 0.70356,0.54293 1.0625,0.78125 3.08915,2.05084 5.83226,2.96661 7.9375,3.3125 a 1.0096098,0.99067979 1.5151289 0 1 0.0625,0 c 3.57728,0.79896 6.80296,0.94697 9.53125,0.78125 l -0.0312,0.0312 c 2.7977,-0.24267 5.93557,-0.42426 8.34375,-1.34375 1.4935,-0.57027 2.4005,-1.43904 3.1875,-2.34375 0.0506,-0.11958 0.12205,-0.22132 0.15625,-0.34375 0.0391,-0.28476 0.0785,-0.45542 0.0937,-0.53125 0.015,-0.0749 -7.3e-4,-0.0621 0,-0.0625 -6.8e-4,-4.2e-4 0.005,-0.018 0,-0.0937 -0.005,-0.0773 -8.1e-4,-0.21231 0,-0.5 -0.024,-0.1922 -0.0676,-0.40226 -0.125,-0.59375 -0.1152,-0.3785 -0.28887,-0.75013 -0.53125,-1.125 -0.47139,-0.72912 -1.16519,-1.44809 -2.0625,-2.15625 -1.66351,-1.31336 -3.99576,-2.58272 -6.71875,-3.8125 -2.31867,-1.04924 -4.86763,-2.00675 -7.34375,-3.0625 -1.72915,-0.84294 -3.09392,-1.28622 -3.59375,-1.6875 -0.0621,-0.0499 -0.0901,-0.10636 -0.125,-0.15625 -0.45281,-0.0886 -1.17461,-1.31192 -2.4375,-2.84375 -1.45775,-1.97251 -2.84904,-4.05918 -4.25,-5.96875 -1.6371,-2.2372 -3.21891,-4.12475 -4.71875,-5.40625 -0.80971,-0.69174 -1.59101,-1.19859 -2.34375,-1.5 -0.3873,-0.15511 -0.75608,-0.274 -1.125,-0.3125 -0.1869,-0.0199 -0.3809,-0.0121 -0.5625,0 z"
         id="path5804" />
    </clipPath>
    <radialGradient
       inkscape:collect="always"
       xlink:href="#linearGradient5196"
       id="radialGradient3848"
       gradientUnits="userSpaceOnUse"
       cx="520.73364"
       cy="551.07397"
       fx="520.73364"
       fy="551.07397"
       r="15.404826" />
    <linearGradient
       inkscape:collect="always"
       id="linearGradient5196">
      <stop
         style="stop-color:#ffffff;stop-opacity:1;"
         offset="0"
         id="stop5198" />
      <stop
         style="stop-color:#ffffff;stop-opacity:0;"
         offset="1"
         id="stop5200" />
    </linearGradient>
    <radialGradient
       r="15.404826"
       fy="551.07397"
       fx="520.73364"
       cy="551.07397"
       cx="520.73364"
       gradientUnits="userSpaceOnUse"
       id="radialGradient3038"
       xlink:href="#linearGradient5196"
       inkscape:collect="always" />
    <radialGradient
       inkscape:collect="always"
       xlink:href="#linearGradient5196"
       id="radialGradient3796"
       gradientUnits="userSpaceOnUse"
       cx="520.73364"
       cy="551.07397"
       fx="520.73364"
       fy="551.07397"
       r="15.404826" />
  </defs>
  <sodipodi:namedview
     pagecolor="#ffffff"
     bordercolor="#666666"
     borderopacity="1"
     objecttolerance="10"
     gridtolerance="10"
     guidetolerance="10"
     inkscape:pageopacity="0"
     inkscape:pageshadow="2"
     inkscape:window-width="1366"
     inkscape:window-height="713"
     id="namedview4"
     showgrid="false"
     inkscape:zoom="0.32593203"
     inkscape:cx="114.60638"
     inkscape:cy="311.45082"
     inkscape:window-x="0"
     inkscape:window-y="24"
     inkscape:window-maximized="1"
     inkscape:current-layer="svg2" />
  <g
     id="g852">
    <path
       style="fill:#8a715e;fill-opacity:1;stroke-width:11.10955811"
       inkscape:connector-curvature="0"
       d="M 432.91336,56.473967 C 535.10616,145.04856 538.74001,306.17367 441.03015,416.37276 343.32009,526.57184 181.27948,544.10061 79.086673,455.52602 -23.106166,366.95143 -26.740027,205.82631 70.969881,95.627227 168.67975,-14.571854 330.72029,-32.100623 432.91336,56.473967 Z"
       id="path911" />
    <path
       style="opacity:1;fill:#000000;fill-opacity:0.49019608;stroke-width:11.10955238"
       inkscape:connector-curvature="0"
       d="M 511.63501,224.90352 C 510.08361,286.21518 486.4738,349.05812 440.6687,400.71801 342.95883,510.9171 180.91854,528.44585 78.725731,439.87127 30.827127,398.35564 4.4968527,340.92283 0.193863,280.22879 0.79911423,346.58547 27.117419,410.48219 79.078635,455.51904 181.27144,544.09362 343.31942,526.5562 441.0216,416.36578 490.72648,360.30764 514.02655,291.07481 511.63501,224.90352 Z"
       id="path913" />
    <path
       style="fill:#000000;fill-opacity:0.49019608;stroke-width:0.81325114"
       d="m 276.21468,431.87504 c -8.57835,-0.36964 -22.50687,-2.62306 -32.53005,-5.26285 -38.00788,-10.01011 -70.13378,-32.87946 -92.3342,-65.72965 -10.82924,-16.02414 -19.15232,-35.31759 -23.50937,-54.49622 -2.88149,-12.6836 -3.82459,-21.66943 -3.84096,-36.5963 -0.06,-54.69248 27.71598,-105.04664 74.57623,-135.19686 3.1161,-2.00491 10.33669,-6.10857 16.04576,-9.11923 L 225.00222,120 l 2.03532,4.6022 c 1.11942,2.53122 2.94582,6.39902 4.05867,8.59513 l 2.02336,3.99291 -8.64482,4.07776 c -53.85387,25.40277 -87.19565,82.25084 -82.51029,140.68085 2.93479,36.59918 17.36708,67.8914 42.85943,92.92822 27.60035,27.10714 62.56702,41.4209 101.1498,41.4061 35.82433,-0.0137 67.58439,-11.83035 95.02543,-35.35506 14.21221,-12.18387 28.73191,-31.25565 35.574,-46.72684 l 1.93629,-4.37829 3.0618,1.83443 c 7.0514,4.22474 8.14451,6.37147 6.36367,12.49738 -1.357,4.6679 -7.91819,15.5701 -14.94943,24.84026 -18.19311,23.98627 -46.07341,44.04639 -75.37031,54.22961 -17.36101,6.03446 -41.89468,9.49088 -61.40046,8.65038 z m 1.21988,-23.35543 c -7.15051,-1.64535 -12.57149,-3.8939 -17.87548,-7.41448 l -4.70108,-3.12041 0.48018,-5.74659 c 1.02884,-12.31259 10.91934,-48.84698 27.45076,-101.40012 l 3.22814,-10.26218 4.29525,-0.0386 4.29525,-0.0386 4.2115,11.11403 c 10.79444,28.48625 28.4356,84.0143 31.13973,98.01677 l 1.07714,5.57764 -2.80979,2.32178 c -3.9494,3.26346 -13.17089,7.80255 -19.88806,9.78948 -7.38977,2.18587 -23.84483,2.82552 -30.90354,1.20127 z m -44.32219,-16.4433 c -27.14468,-7.16159 -43.87735,-18.90031 -53.5237,-37.54928 -3.0457,-5.88816 -7.47014,-18.30606 -7.47014,-20.96617 0,-3.29496 44.82059,-29.55873 88.01063,-51.57208 l 16.75373,-8.53913 2.30896,2.24605 c 1.26993,1.23534 2.91077,2.69919 3.64632,3.25301 1.21874,0.91764 0.99646,2.08896 -2.50597,13.20571 -12.28248,38.98476 -32.10726,90.06048 -38.43151,99.01333 -1.77151,2.50781 -2.45777,2.57876 -8.78832,0.90856 z m 106.60528,-7.23624 c -6.64743,-9.25638 -22.75602,-47.90205 -39.85272,-95.60949 l -3.37932,-9.42984 3.28467,-3.28468 c 1.82098,-1.82098 3.51201,-4.42137 3.79485,-5.83553 0.28059,-1.40297 0.82004,-2.74237 1.19876,-2.97644 0.71347,-0.44094 45.37455,21.65652 58.65352,29.02065 12.39506,6.87394 27.41566,16.04928 34.95433,21.35184 8.00898,5.63339 8.08025,5.81296 5.92884,14.93761 -5.4116,22.9518 -28.99488,47.2917 -52.27108,53.9481 -8.19162,2.34259 -9.23457,2.16282 -12.31185,-2.12222 z M 161.50244,316.76902 c -11.66266,-16.09982 -15.47202,-43.65486 -9.35355,-67.65886 2.48105,-9.73367 8.60109,-22.83777 10.95325,-23.45287 3.45505,-0.90352 19.18816,2.72978 40.32656,9.31274 14.15541,4.4083 48.69513,16.55752 61.83353,21.74972 l 10.59872,4.18853 -0.11222,5.45743 -0.11222,5.45744 -10.4865,5.55459 c -5.76756,3.05503 -21.64836,10.9825 -35.29065,17.61661 -35.47832,17.25276 -55.28142,25.21724 -62.7009,25.21724 -2.78339,0 -3.46101,-0.41243 -5.65602,-3.44257 z m 106.98635,-60.5741 c -12.37929,-4.8772 -47.55323,-19.39258 -55.62515,-22.95506 -14.42057,-6.36441 -35.02097,-17.20404 -37.95544,-19.9716 -3.42114,-3.22656 -3.37689,-4.31128 0.56659,-13.88561 6.18054,-15.00572 18.39463,-29.47232 31.459,-37.26067 12.11558,-7.22273 30.80812,-12.81572 34.00582,-10.17487 5.47424,4.52097 24.24401,40.72194 38.71972,74.67811 5.2189,12.24217 9.8555,24.55369 9.36231,24.85964 -0.11087,0.0688 -1.95581,0.77527 -4.09988,1.56999 -2.20716,0.81809 -4.65492,2.4683 -5.64239,3.80392 -0.95923,1.29744 -2.1327,2.32766 -2.60769,2.28939 -0.475,-0.0383 -4.15729,-1.36723 -8.18289,-2.95324 z"
       id="path1879"
       inkscape:connector-curvature="0" />
    <path
       inkscape:connector-curvature="0"
       id="path1877"
       d="m 256.21468,411.87504 c -8.57835,-0.36964 -22.50687,-2.62306 -32.53005,-5.26285 -38.00788,-10.01011 -70.13378,-32.87946 -92.3342,-65.72965 -10.82924,-16.02414 -19.15232,-35.31759 -23.50937,-54.49622 -2.88149,-12.6836 -3.82459,-21.66943 -3.84096,-36.5963 -0.06,-54.69248 27.71598,-105.04664 74.57623,-135.19686 3.1161,-2.00491 10.33669,-6.10857 16.04576,-9.11923 l 10.38013,-5.473932 2.03532,4.602202 c 1.11942,2.53122 2.94582,6.39902 4.05867,8.59513 l 2.02336,3.99291 -8.64482,4.07776 c -53.85387,25.40277 -87.19565,82.25084 -82.51029,140.68085 2.93479,36.59918 17.36708,67.8914 42.85943,92.92822 27.60035,27.10714 62.56702,41.4209 101.1498,41.4061 35.82433,-0.0137 67.58439,-11.83035 95.02543,-35.35506 14.21221,-12.18387 28.73191,-31.25565 35.574,-46.72684 l 1.93629,-4.37829 3.0618,1.83443 c 7.0514,4.22474 8.14451,6.37147 6.36367,12.49738 -1.357,4.6679 -7.91819,15.5701 -14.94943,24.84026 -18.19311,23.98627 -46.07341,44.04639 -75.37031,54.22961 -17.36101,6.03446 -41.89468,9.49088 -61.40046,8.65038 z m 1.21988,-23.35543 c -7.15051,-1.64535 -12.57149,-3.8939 -17.87548,-7.41448 l -4.70108,-3.12041 0.48018,-5.74659 c 1.02884,-12.31259 10.91934,-48.84698 27.45076,-101.40012 l 3.22814,-10.26218 4.29525,-0.0386 4.29525,-0.0386 4.2115,11.11403 c 10.79444,28.48625 28.4356,84.0143 31.13973,98.01677 l 1.07714,5.57764 -2.80979,2.32178 c -3.9494,3.26346 -13.17089,7.80255 -19.88806,9.78948 -7.38977,2.18587 -23.84483,2.82552 -30.90354,1.20127 z m -44.32219,-16.4433 c -27.14468,-7.16159 -43.87735,-18.90031 -53.5237,-37.54928 -3.0457,-5.88816 -7.47014,-18.30606 -7.47014,-20.96617 0,-3.29496 44.82059,-29.55873 88.01063,-51.57208 l 16.75373,-8.53913 2.30896,2.24605 c 1.26993,1.23534 2.91077,2.69919 3.64632,3.25301 1.21874,0.91764 0.99646,2.08896 -2.50597,13.20571 -12.28248,38.98476 -32.10726,90.06048 -38.43151,99.01333 -1.77151,2.50781 -2.45777,2.57876 -8.78832,0.90856 z m 106.60528,-7.23624 c -6.64743,-9.25638 -22.75602,-47.90205 -39.85272,-95.60949 l -3.37932,-9.42984 3.28467,-3.28468 c 1.82098,-1.82098 3.51201,-4.42137 3.79485,-5.83553 0.28059,-1.40297 0.82004,-2.74237 1.19876,-2.97644 0.71347,-0.44094 45.37455,21.65652 58.65352,29.02065 12.39506,6.87394 27.41566,16.04928 34.95433,21.35184 8.00898,5.63339 8.08025,5.81296 5.92884,14.93761 -5.4116,22.9518 -28.99488,47.2917 -52.27108,53.9481 -8.19162,2.34259 -9.23457,2.16282 -12.31185,-2.12222 z M 141.50244,296.76902 c -11.66266,-16.09982 -15.47202,-43.65486 -9.35355,-67.65886 2.48105,-9.73367 8.60109,-22.83777 10.95325,-23.45287 3.45505,-0.90352 19.18816,2.72978 40.32656,9.31274 14.15541,4.4083 48.69513,16.55752 61.83353,21.74972 l 10.59872,4.18853 -0.11222,5.45743 -0.11222,5.45744 -10.4865,5.55459 c -5.76756,3.05503 -21.64836,10.9825 -35.29065,17.61661 -35.47832,17.25276 -55.28142,25.21724 -62.7009,25.21724 -2.78339,0 -3.46101,-0.41243 -5.65602,-3.44257 z m 106.98635,-60.5741 c -12.37929,-4.8772 -47.55323,-19.39258 -55.62515,-22.95506 -14.42057,-6.36441 -35.02097,-17.20404 -37.95544,-19.9716 -3.42114,-3.22656 -3.37689,-4.31128 0.56659,-13.88561 6.18054,-15.00572 18.39463,-29.47232 31.459,-37.26067 12.11558,-7.22273 30.80812,-12.81572 34.00582,-10.17487 5.47424,4.52097 24.24401,40.72194 38.71972,74.67811 5.2189,12.24217 9.8555,24.55369 9.36231,24.85964 -0.11087,0.0688 -1.95581,0.77527 -4.09988,1.56999 -2.20716,0.81809 -4.65492,2.4683 -5.64239,3.80392 -0.95923,1.29744 -2.1327,2.32766 -2.60769,2.28939 -0.475,-0.0383 -4.15729,-1.36723 -8.18289,-2.95324 z"
       style="fill:#ffffff;stroke-width:0.81325114" />
  </g>
</svg>
