<?xml version="1.0" encoding="UTF-8" standalone="no"?>
<!-- Created with Inkscape (http://www.inkscape.org/) -->

<svg
   xmlns:dc="http://purl.org/dc/elements/1.1/"
   xmlns:cc="http://creativecommons.org/ns#"
   xmlns:rdf="http://www.w3.org/1999/02/22-rdf-syntax-ns#"
   xmlns:svg="http://www.w3.org/2000/svg"
   xmlns="http://www.w3.org/2000/svg"
   xmlns:sodipodi="http://sodipodi.sourceforge.net/DTD/sodipodi-0.dtd"
   xmlns:inkscape="http://www.inkscape.org/namespaces/inkscape"
   width="512"
   height="512"
   id="svg2"
   version="1.1"
   inkscape:version="0.92.2 2405546, 2018-03-11"
   sodipodi:docname="config-language.svg">
  <defs
     id="defs4">
    <radialGradient
       id="polygon413_1_"
       cx="7976.3457"
       cy="-10508.842"
       r="13293.867"
       gradientTransform="matrix(0.0222,0,0,-0.0248,721.1671,674.6745)"
       gradientUnits="userSpaceOnUse">
      <stop
         offset="0"
         style="stop-color:#80FF80"
         id="stop388" />
      <stop
         offset="1"
         style="stop-color:#0f0"
         id="stop390" />
    </radialGradient>
  </defs>
  <sodipodi:namedview
     id="base"
     pagecolor="#ffffff"
     bordercolor="#666666"
     borderopacity="1.0"
     inkscape:pageopacity="0.0"
     inkscape:pageshadow="2"
     inkscape:zoom="0.49497475"
     inkscape:cx="238.69388"
     inkscape:cy="212.80911"
     inkscape:document-units="px"
     inkscape:current-layer="layer1"
     showgrid="false"
     inkscape:window-width="1366"
     inkscape:window-height="713"
     inkscape:window-x="0"
     inkscape:window-y="24"
     inkscape:window-maximized="1" />
  <metadata
     id="metadata7">
    <rdf:RDF>
      <cc:Work
         rdf:about="">
        <dc:format>image/svg+xml</dc:format>
        <dc:type
           rdf:resource="http://purl.org/dc/dcmitype/StillImage" />
        <dc:title />
      </cc:Work>
    </rdf:RDF>
  </metadata>
  <g
     inkscape:label="Layer 1"
     inkscape:groupmode="layer"
     id="layer1"
     transform="translate(0,-540.36218)">
    <g
       id="g887"
       transform="translate(-3.2135401e-7,1.14663e-6)">
      <path
         id="path943"
         d="m 432.91326,596.83616 c 102.19291,88.57459 105.82678,249.69971 8.1168,359.89879 C 343.32009,1066.934 181.27965,1084.4628 79.086739,995.8882 -23.106204,907.31362 -26.740031,746.1885 70.969939,635.98942 168.67991,525.79034 330.72036,508.26157 432.91326,596.83616 Z"
         inkscape:connector-curvature="0"
         style="fill:#3689e6;fill-opacity:1;stroke-width:11.10955811" />
      <path
         id="path947"
         d="m 511.6355,765.26571 c -1.55139,61.31164 -25.16123,124.1546 -70.96638,175.81447 C 342.95915,1051.2793 180.9187,1068.808 78.725759,980.23348 30.827129,938.71783 4.4968194,881.28503 0.19382736,820.591 0.79908136,886.94767 27.117409,950.84437 79.078689,995.8813 181.2716,1084.4558 343.31975,1066.9184 441.02201,956.72796 490.72696,900.66985 514.02703,831.43699 511.6355,765.26571 Z"
         inkscape:connector-curvature="0"
         style="opacity:1;fill:#000000;fill-opacity:0.49019608;stroke-width:11.10955811" />
      <path
         style="fill:#000000;fill-opacity:0.49019608;stroke-width:0.6099059"
         d="m 263.01293,971.84278 c -25.77011,-2.14441 -51.69085,-11.15973 -73.1887,-25.45512 -37.4293,-24.88943 -61.45338,-62.73189 -68.41488,-107.76636 -1.87913,-12.15634 -1.87913,-32.3668 0,-44.52313 5.16908,-33.4392 19.28747,-62.19507 42.18734,-85.92577 52.43206,-54.33436 135.64238,-63.44827 198.38769,-21.72913 33.46403,22.25011 57.38336,56.79549 65.9283,95.21666 2.82122,12.68522 3.65256,20.58306 3.65256,34.6998 0,14.11673 -0.83134,22.01459 -3.65256,34.69979 -8.5614,38.4952 -32.45609,72.96228 -66.07962,95.31691 -8.74636,5.81511 -23.18749,13.22778 -31.73048,16.2873 -22.12179,7.92276 -44.83803,11.03062 -67.08965,9.17905 z m 57.11088,-26.21946 c 14.27271,-4.88502 29.93826,-13.58278 41.99882,-23.31821 10.76439,-8.68912 23.39476,-23.24107 30.77026,-35.45159 11.63549,-19.26315 19.54698,-46.19346 19.54698,-66.53692 0,-2.94189 -0.11073,-3.20381 -1.23055,-2.91097 -0.74637,0.19518 -2.1994,-0.31936 -3.69292,-1.30773 -2.8006,-1.85334 -18.24662,-15.09485 -20.95916,-17.96778 -1.4505,-1.53627 -2.27766,-1.89728 -4.34714,-1.89728 -3.41614,0 -4.2051,1.01028 -3.01441,3.86001 2.22823,5.33288 0.47847,8.90183 -4.92778,10.0512 -9.54838,2.02994 -18.75296,-4.36623 -32.30709,-22.44989 -10.84532,-14.46962 -11.6469,-15.1619 -25.6579,-22.15924 -9.62007,-4.80444 -18.29223,-8.0908 -23.87791,-9.04862 l -4.21188,-0.72227 -7.74473,3.74385 -7.74472,3.74386 -0.58604,-1.54138 c -0.85563,-2.25049 -0.71624,-6.14998 0.28934,-8.09458 2.35935,-4.56246 9.22818,-8.596 23.96409,-14.07228 8.60032,-3.19613 8.68048,-3.24335 9.07529,-5.34793 0.26248,-1.39914 -0.06,-3.79576 -0.94552,-7.02697 -0.73914,-2.69701 -1.19031,-5.51548 -1.00263,-6.26327 0.18768,-0.7478 1.61447,-2.40293 3.17061,-3.67808 4.85968,-3.98214 17.90283,-12.4248 20.30886,-13.14567 3.0678,-0.91914 5.61452,0.36615 7.00553,3.53556 2.15067,4.90033 2.52273,5.36806 4.17987,5.25466 0.87516,-0.0599 4.65847,-1.63801 8.40735,-3.50696 3.74888,-1.86895 7.19914,-3.39808 7.66722,-3.39808 1.86243,0 0.61139,-1.27095 -4.48561,-4.557 -7.47675,-4.82029 -21.13056,-11.42921 -29.42796,-14.24417 -13.46687,-4.56874 -29.29254,-7.42478 -41.14166,-7.42478 h -4.85974 l 2.72133,1.37229 c 2.62791,1.32518 2.72686,1.47698 2.88236,4.42182 0.19918,3.77231 1.08425,6.58013 2.45404,7.78524 0.60469,0.53201 2.68732,1.03154 4.94695,1.18656 3.45514,0.23704 4.10195,0.49088 5.64163,2.21408 1.21409,1.35881 1.73905,2.59436 1.73905,4.09306 0,2.56029 1.60908,1.7689 -22.29566,10.96561 -33.0418,12.71196 -42.84208,15.36362 -45.14701,12.21543 -2.31625,-3.16366 -1.58254,-3.97887 14.68581,-16.31696 11.89642,-9.02237 14.9427,-11.61782 14.9427,-12.73133 0,-1.25464 -3.50902,-0.12873 -13.72084,4.40252 -17.33756,7.69312 -28.67236,13.8309 -32.85193,17.78932 -1.70185,1.61181 -2.1736,2.65661 -2.7795,6.15588 -0.90324,5.21651 -1.9919,7.38981 -4.29949,8.58312 -2.48361,1.28433 -7.69867,1.15535 -11.91313,-0.29463 -4.87859,-1.6785 -8.09028,-1.53348 -14.45765,0.65277 -2.9996,1.02993 -6.32963,1.79714 -7.40004,1.70491 -1.07041,-0.0922 -2.31111,0.0579 -2.75711,0.3335 -1.40437,0.86794 -8.89024,12.69644 -12.49432,19.74236 -1.90274,3.71982 -4.72964,10.00587 -6.28201,13.96902 -2.6006,6.63919 -2.84569,7.73316 -3.11743,13.91467 -0.25426,5.78424 -0.0768,7.61083 1.2877,13.25204 1.80739,7.47245 4.83808,15.9009 8.69337,24.17666 2.29567,4.92785 3.49752,6.58136 8.73933,12.02359 6.91358,7.17793 7.73338,8.9549 7.13327,15.46207 -0.59454,6.44696 -2.53226,11.083 -8.08722,19.3489 -6.4063,9.53271 -6.93737,10.56656 -6.93737,13.50481 0,4.39421 10.21829,19.21599 21.04175,30.52135 12.3373,12.88668 23.69924,21.26984 39.19635,28.92053 l 8.70108,4.29551 12.64564,-2.81856 c 17.49879,-3.90034 25.65137,-4.88467 37.34682,-4.50925 7.4021,0.23758 10.71753,0.63399 15.27834,1.82719 6.43144,1.68253 13.28672,4.73525 17.96153,7.99854 1.67723,1.17086 3.49932,2.14384 4.04906,2.16233 0.54975,0.0182 4.25492,-1.08054 8.23373,-2.44244 z m -23.23456,-49.20076 c -3.63986,-3.63985 -4.90755,-8.33739 -6.13445,-22.73168 -2.29628,-26.94023 -6.34405,-43.50857 -11.24497,-46.0279 -0.85482,-0.43941 -6.35721,-2.17797 -12.22756,-3.86348 -17.03877,-4.89218 -24.13428,-8.41039 -28.88836,-14.32389 -2.51916,-3.13353 -2.97125,-8.61679 -1.06565,-12.92475 3.17613,-7.18014 12.31275,-17.04064 19.9714,-21.55368 5.90379,-3.47894 11.10998,-5.08723 17.63684,-5.4483 6.36716,-0.35223 10.054,0.28404 17.50514,3.02103 4.50057,1.65317 5.28157,2.13657 4.98115,3.08311 -0.62158,1.95844 1.51421,4.16421 6.05387,6.25214 4.897,2.25231 16.65426,5.3705 24.55901,6.51341 5.18189,0.74923 5.26033,0.78686 8.07164,3.87246 1.5614,1.71374 4.58173,6.44067 6.71184,10.50427 5.21086,9.94076 6.63392,11.46749 14.87304,15.95655 10.54605,5.74599 9.91772,4.95867 8.98117,11.25375 -0.74409,5.00146 -0.92352,5.41635 -3.27886,7.58201 -1.37041,1.26008 -4.41288,3.35752 -6.76101,4.661 -6.80077,3.77517 -7.76584,4.75149 -14.6833,14.85442 -14.7255,21.50657 -27.24172,35.83077 -34.38141,39.34779 -4.56747,2.24995 -8.4115,2.23978 -10.67953,-0.0283 z"
         id="path73"
         inkscape:connector-curvature="0" />
      <path
         inkscape:connector-curvature="0"
         id="path887"
         d="m 243.01293,951.84278 c -25.77011,-2.14441 -51.69085,-11.15973 -73.1887,-25.45512 -37.4293,-24.88943 -61.45338,-62.73189 -68.41488,-107.76636 -1.879133,-12.15634 -1.879133,-32.3668 0,-44.52313 5.16908,-33.4392 19.28747,-62.19507 42.18734,-85.92577 52.43206,-54.33436 135.64238,-63.44827 198.38769,-21.72913 33.46403,22.25011 57.38336,56.79549 65.9283,95.21666 2.82122,12.68522 3.65256,20.58306 3.65256,34.6998 0,14.11673 -0.83134,22.01459 -3.65256,34.69979 -8.5614,38.4952 -32.45609,72.96228 -66.07962,95.31691 -8.74636,5.81511 -23.18749,13.22778 -31.73048,16.2873 -22.12179,7.92276 -44.83803,11.03062 -67.08965,9.17905 z m 57.11088,-26.21946 c 14.27271,-4.88502 29.93826,-13.58278 41.99882,-23.31821 10.76439,-8.68912 23.39476,-23.24107 30.77026,-35.45159 11.63549,-19.26315 19.54698,-46.19346 19.54698,-66.53692 0,-2.94189 -0.11073,-3.20381 -1.23055,-2.91097 -0.74637,0.19518 -2.1994,-0.31936 -3.69292,-1.30773 -2.8006,-1.85334 -18.24662,-15.09485 -20.95916,-17.96778 -1.4505,-1.53627 -2.27766,-1.89728 -4.34714,-1.89728 -3.41614,0 -4.2051,1.01028 -3.01441,3.86001 2.22823,5.33288 0.47847,8.90183 -4.92778,10.0512 -9.54838,2.02994 -18.75296,-4.36623 -32.30709,-22.44989 -10.84532,-14.46962 -11.6469,-15.1619 -25.6579,-22.15924 -9.62007,-4.80444 -18.29223,-8.0908 -23.87791,-9.04862 l -4.21188,-0.72227 -7.74473,3.74385 -7.74472,3.74386 -0.58604,-1.54138 c -0.85563,-2.25049 -0.71624,-6.14998 0.28934,-8.09458 2.35935,-4.56246 9.22818,-8.596 23.96409,-14.07228 8.60032,-3.19613 8.68048,-3.24335 9.07529,-5.34793 0.26248,-1.39914 -0.06,-3.79576 -0.94552,-7.02697 -0.73914,-2.69701 -1.19031,-5.51548 -1.00263,-6.26327 0.18768,-0.7478 1.61447,-2.40293 3.17061,-3.67808 4.85968,-3.98214 17.90283,-12.4248 20.30886,-13.14567 3.0678,-0.91914 5.61452,0.36615 7.00553,3.53556 2.15067,4.90033 2.52273,5.36806 4.17987,5.25466 0.87516,-0.0599 4.65847,-1.63801 8.40735,-3.50696 3.74888,-1.86895 7.19914,-3.39808 7.66722,-3.39808 1.86243,0 0.61139,-1.27095 -4.48561,-4.557 -7.47675,-4.82029 -21.13056,-11.42921 -29.42796,-14.24417 -13.46687,-4.56874 -29.29254,-7.42478 -41.14166,-7.42478 h -4.85974 l 2.72133,1.37229 c 2.62791,1.32518 2.72686,1.47698 2.88236,4.42182 0.19918,3.77231 1.08425,6.58013 2.45404,7.78524 0.60469,0.53201 2.68732,1.03154 4.94695,1.18656 3.45514,0.23704 4.10195,0.49088 5.64163,2.21408 1.21409,1.35881 1.73905,2.59436 1.73905,4.09306 0,2.56029 1.60908,1.7689 -22.29566,10.96561 -33.0418,12.71196 -42.84208,15.36362 -45.14701,12.21543 -2.31625,-3.16366 -1.58254,-3.97887 14.68581,-16.31696 11.89642,-9.02237 14.9427,-11.61782 14.9427,-12.73133 0,-1.25464 -3.50902,-0.12873 -13.72084,4.40252 -17.33756,7.69312 -28.67236,13.8309 -32.85193,17.78932 -1.70185,1.61181 -2.1736,2.65661 -2.7795,6.15588 -0.90324,5.21651 -1.9919,7.38981 -4.29949,8.58312 -2.48361,1.28433 -7.69867,1.15535 -11.91313,-0.29463 -4.87859,-1.6785 -8.09028,-1.53348 -14.45765,0.65277 -2.9996,1.02993 -6.32963,1.79714 -7.40004,1.70491 -1.07041,-0.0922 -2.31111,0.0579 -2.75711,0.3335 -1.40437,0.86794 -8.89024,12.69644 -12.49432,19.74236 -1.90274,3.71982 -4.72964,10.00587 -6.28201,13.96902 -2.6006,6.63919 -2.84569,7.73316 -3.11743,13.91467 -0.25426,5.78424 -0.0768,7.61083 1.2877,13.25204 1.80739,7.47245 4.83808,15.9009 8.69337,24.17666 2.29567,4.92785 3.49752,6.58136 8.73933,12.02359 6.91358,7.17793 7.73338,8.9549 7.13327,15.46207 -0.59454,6.44696 -2.53226,11.083 -8.08722,19.3489 -6.4063,9.53271 -6.93737,10.56656 -6.93737,13.50481 0,4.39421 10.21829,19.21599 21.04175,30.52135 12.3373,12.88668 23.69924,21.26984 39.19635,28.92053 l 8.70108,4.29551 12.64564,-2.81856 c 17.49879,-3.90034 25.65137,-4.88467 37.34682,-4.50925 7.4021,0.23758 10.71753,0.63399 15.27834,1.82719 6.43144,1.68253 13.28672,4.73525 17.96153,7.99854 1.67723,1.17086 3.49932,2.14384 4.04906,2.16233 0.54975,0.0182 4.25492,-1.08054 8.23373,-2.44244 z m -23.23456,-49.20076 c -3.63986,-3.63985 -4.90755,-8.33739 -6.13445,-22.73168 -2.29628,-26.94023 -6.34405,-43.50857 -11.24497,-46.0279 -0.85482,-0.43941 -6.35721,-2.17797 -12.22756,-3.86348 -17.03877,-4.89218 -24.13428,-8.41039 -28.88836,-14.32389 -2.51916,-3.13353 -2.97125,-8.61679 -1.06565,-12.92475 3.17613,-7.18014 12.31275,-17.04064 19.9714,-21.55368 5.90379,-3.47894 11.10998,-5.08723 17.63684,-5.4483 6.36716,-0.35223 10.054,0.28404 17.50514,3.02103 4.50057,1.65317 5.28157,2.13657 4.98115,3.08311 -0.62158,1.95844 1.51421,4.16421 6.05387,6.25214 4.897,2.25231 16.65426,5.3705 24.55901,6.51341 5.18189,0.74923 5.26033,0.78686 8.07164,3.87246 1.5614,1.71374 4.58173,6.44067 6.71184,10.50427 5.21086,9.94076 6.63392,11.46749 14.87304,15.95655 10.54605,5.74599 9.91772,4.95867 8.98117,11.25375 -0.74409,5.00146 -0.92352,5.41635 -3.27886,7.58201 -1.37041,1.26008 -4.41288,3.35752 -6.76101,4.661 -6.80077,3.77517 -7.76584,4.75149 -14.6833,14.85442 -14.7255,21.50657 -27.24172,35.83077 -34.38141,39.34779 -4.56747,2.24995 -8.4115,2.23978 -10.67953,-0.0283 z"
         style="fill:#ffffff;stroke-width:0.6099059" />
    </g>
  </g>
</svg>
