<?xml version="1.0" encoding="UTF-8" standalone="no"?>
<!-- Created with Inkscape (http://www.inkscape.org/) -->

<svg
   xmlns:dc="http://purl.org/dc/elements/1.1/"
   xmlns:cc="http://creativecommons.org/ns#"
   xmlns:rdf="http://www.w3.org/1999/02/22-rdf-syntax-ns#"
   xmlns:svg="http://www.w3.org/2000/svg"
   xmlns="http://www.w3.org/2000/svg"
   xmlns:sodipodi="http://sodipodi.sourceforge.net/DTD/sodipodi-0.dtd"
   xmlns:inkscape="http://www.inkscape.org/namespaces/inkscape"
   width="512"
   height="512"
   id="svg2"
   version="1.1"
   inkscape:version="0.92.2 2405546, 2018-03-11"
   sodipodi:docname="cs-applets.svg"
   inkscape:export-filename="/home/uri/workspace/NitruxforAndroid/res/drawable-xhdpi/downloads.png"
   inkscape:export-xdpi="180"
   inkscape:export-ydpi="180">
  <defs
     id="defs4" />
  <sodipodi:namedview
     id="base"
     pagecolor="#ffffff"
     bordercolor="#666666"
     borderopacity="1.0"
     inkscape:pageopacity="0.0"
     inkscape:pageshadow="2"
     inkscape:zoom="0.19527872"
     inkscape:cx="585.92979"
     inkscape:cy="495.97481"
     inkscape:document-units="px"
     inkscape:current-layer="layer1"
     showgrid="false"
     inkscape:window-width="1366"
     inkscape:window-height="713"
     inkscape:window-x="0"
     inkscape:window-y="24"
     inkscape:window-maximized="1"
     showguides="true"
     inkscape:snap-global="false">
    <inkscape:grid
       type="xygrid"
       id="grid3850" />
  </sodipodi:namedview>
  <metadata
     id="metadata7">
    <rdf:RDF>
      <cc:Work
         rdf:about="">
        <dc:format>image/svg+xml</dc:format>
        <dc:type
           rdf:resource="http://purl.org/dc/dcmitype/StillImage" />
        <dc:title></dc:title>
      </cc:Work>
    </rdf:RDF>
  </metadata>
  <g
     inkscape:label="Capa 1"
     inkscape:groupmode="layer"
     id="layer1"
     transform="translate(0,-540.3622)">
    <g
       id="g858">
      <path
         style="fill:#3689e6;fill-opacity:1;stroke-width:11.10955811"
         inkscape:connector-curvature="0"
         d="m 432.91335,596.83617 c 102.19279,88.57459 105.82669,249.6997 8.11679,359.89879 C 343.32011,1066.934 181.27949,1084.4628 79.08668,995.88822 -23.10617,907.31363 -26.74003,746.18851 70.96989,635.98943 168.67976,525.79035 330.72031,508.26158 432.91335,596.83617 Z"
         id="path911" />
      <path
         id="path44"
         transform="translate(0,540.3622)"
         d="M 213.62891 115.42969 C 210.42829 115.39349 206.99276 115.99958 203.42188 117.37305 C 196.20505 120.10855 192.11493 126.70291 190.39453 133.92188 C 188.63432 141.31031 188.8804 149.78677 190.0332 158.19531 C 191.18267 166.58866 192.79511 174.8191 194.61719 181.42969 C 196.19345 187.14729 197.59764 190.4617 198.13867 192.35742 C 198.19507 192.6942 198.19507 193.04885 198.13867 193.39648 C 198.09417 194.02984 197.84858 194.65847 197.43945 195.1582 C 197.32778 195.28857 197.20328 195.40002 197.07812 195.51953 C 196.58339 195.93235 195.95543 196.24023 195.31641 196.24023 C 194.04355 196.30543 193.1193 196.21574 191.79492 195.87891 C 190.91974 195.67249 189.78192 195.0276 190.0332 195.17969 C 189.60495 194.91895 189.23066 194.54283 188.97266 194.11914 C 189.05306 194.2821 188.92675 193.96116 188.63281 193.41797 C 188.33526 192.87261 188.02876 191.93478 187.57227 190.95703 C 186.54891 188.7832 185.11569 186.409 183.71094 183.21289 C 180.91253 176.84564 177.48495 169.07327 173.48242 161.74023 C 169.465 154.38004 164.99812 147.33367 159.75586 142.72852 C 157.13585 140.42648 154.4037 138.56516 151.28906 137.80469 C 148.28224 137.06597 144.55443 137.65052 141.44336 139.20508 C 133.41 143.66031 128.75759 150.96805 126.99414 158.57812 C 125.20308 166.3066 126.04812 174.41515 127.35547 182.17188 C 128.6618 189.91228 130.60167 196.98502 131.91602 202.22461 C 132.46942 204.43212 132.81057 206.04273 132.97852 207.14648 C 133.04582 208.24047 132.54448 211.72636 132.27734 212.79102 C 128.68527 227.09966 120.85752 236.41042 114.32617 243.76953 C 112.63124 245.67938 109.69071 246.21552 105.52148 247.29102 C 101.36601 248.3774 95.611884 249.05273 89.310547 249.05273 C 76.711571 249.08093 60.6298 247.12928 43.882812 244.46875 C 38.011882 243.53562 32.095883 242.57248 26.214844 241.56641 C 9.4976 317.30014 26.552082 395.97371 76.830078 453.51367 C 77.582988 454.18385 78.322011 454.86327 79.085938 455.52539 C 81.69119 457.78347 84.344404 459.95579 87.025391 462.07617 C 105.2156 460.98861 121.23147 459.27613 132.97852 457.77734 C 139.76269 456.91148 145.33656 456.28433 149.1875 455.6543 C 151.11123 455.29579 152.63533 455.17539 153.75 455.29492 C 159.06035 455.47207 163.41451 458.56393 168.19922 460.57812 C 176.71595 464.43363 187.81523 469.66862 199.53906 474.66602 C 211.26299 479.66432 223.37112 484.37841 233 487.69531 C 237.82291 489.35741 241.93137 490.82884 245.32812 491.55664 C 247.03794 491.92614 248.56001 491.91797 249.91211 491.91797 C 251.5641 491.98397 252.16561 492.2597 253.77344 491.2168 C 253.88512 491.1398 253.90609 491.05097 254.13477 490.85547 C 259.55806 484.98457 259.86692 477.16329 257.29492 470.80469 C 254.60774 464.16049 249.65377 457.72343 244.26758 451.79297 C 238.8938 445.87657 233.36226 440.54737 229.83984 435.94336 C 228.64074 434.37572 228.13832 433.21492 227.7168 432.42188 C 227.4325 431.88738 227.32045 431.26853 227.37695 430.66016 C 227.5235 428.99475 229.23789 427.63125 230.90039 427.85938 C 232.43055 428.12009 234.12107 428.25748 236.52344 428.89844 C 243.14125 430.65185 251.85528 433.47251 260.47852 436.30469 C 269.10097 439.13689 277.5986 442.08515 284.43359 443.6875 C 287.87971 444.4871 290.71858 445.10937 293.23828 445.10938 C 294.58745 445.14178 295.56844 444.82304 296.76172 444.41016 C 297.6217 444.10709 299.07906 443.17273 299.5625 441.94727 C 299.6178 441.7952 299.86735 442.09934 299.92383 441.94727 C 301.5559 437.02381 299.65029 432.07536 296.74023 426.79883 C 293.87205 421.60052 289.60762 416.17792 285.13477 410.96875 C 280.66667 405.76391 276.03667 400.73575 272.10547 396.51953 C 270.12788 394.39783 268.21223 392.16015 266.82227 390.53711 C 265.67248 389.19435 264.94841 388.62715 264.33984 387.73633 C 264.32894 387.71463 264.37344 387.375 264.33984 387.375 L 264 387.375 C 263.9772 387.3315 264.0228 387.01367 264 387.01367 C 263.88277 387.01967 263.75687 387.01967 263.64062 387.01367 C 261.6486 383.41232 260.61424 378.60558 261.17773 373.98633 C 261.72885 369.46374 264.0781 365.2867 269.2832 361.6582 C 270.04616 361.12697 270.97442 360.67867 272.44531 359.89648 C 273.91618 359.11865 275.88524 358.14949 278.08984 357.0957 C 282.44785 355.00878 287.85567 352.35974 294.2793 349.35156 C 307.12057 343.3363 323.16388 335.66886 338.66797 327.1582 C 354.17804 318.6421 368.87435 309.02247 379.87305 299.36133 C 390.88807 289.68498 398.60216 279.6416 397.12305 269.08203 C 394.78728 252.05962 383.66353 239.07295 368.60742 229.29883 C 353.49925 219.49103 334.19867 212.76373 315.41211 207.82617 C 296.62935 202.88966 278.27206 199.42709 264.33984 197.25977 C 257.37715 196.17665 251.54191 195.54647 247.44922 194.79688 C 246.26314 194.59046 245.64869 194.23888 244.98828 194.09766 C 244.61968 194.03246 244.25342 193.93163 243.92773 193.75781 C 243.49936 193.49707 243.1252 193.12096 242.86719 192.69727 C 242.64177 192.26708 242.51031 191.78571 242.50586 191.29688 C 242.50678 191.12306 242.50495 190.84557 242.50586 190.5957 C 242.51676 187.93734 242.56226 184.67854 242.50586 180.39062 C 242.39093 171.80609 241.8429 160.67742 240.04492 150.11133 C 238.23942 139.50287 235.31789 129.51453 229.47852 122.65625 C 226.00606 118.57826 220.95107 115.89747 214.98633 115.48438 C 214.53898 115.45338 214.08614 115.43489 213.62891 115.42969 z M 352.39648 125.13867 C 351.73771 125.17667 351.2151 125.5831 350.63477 126.53906 C 344.2125 137.34958 344.01558 151.31413 341.12891 163.5 C 339.74719 176.89826 335.12985 191.05608 339.02734 204.3457 C 342.36753 210.15346 348.55528 204.48827 348.87305 199.76367 C 354.5951 177.43649 358.48209 153.54973 356.97852 130.42188 C 356.62264 128.33496 354.37195 125.01916 352.39648 125.13867 z M 402.37695 138.46875 C 402.16247 138.46575 401.93957 138.47776 401.70703 138.50586 C 391.02437 143.28699 386.05412 155.62816 379.17383 164.5625 C 370.92025 179.18186 359.80086 193.80265 358.74023 211.0293 C 358.77393 217.26726 366.63175 218.30852 369.30664 213.13086 C 384.55729 192.33982 396.20349 168.77268 405.58984 144.84961 C 406.76921 141.96427 405.59384 138.52083 402.37695 138.46875 z "
         style="fill:#000000;fill-opacity:0.49019608;stroke:none;stroke-width:10.86375332" />
      <path
         id="path2997"
         transform="translate(0,540.3622)"
         d="M 193.63867 95.275391 C 190.43805 95.239231 187.00252 95.84528 183.43164 97.21875 C 176.21481 99.95425 172.1247 106.54861 170.4043 113.76758 C 168.64409 121.15602 168.89017 129.63248 170.04297 138.04102 C 171.19244 146.43437 172.80487 154.6648 174.62695 161.27539 C 176.20321 166.99299 177.60741 170.3074 178.14844 172.20312 C 178.20484 172.5399 178.20484 172.89456 178.14844 173.24219 C 178.10394 173.87555 177.85835 174.50418 177.44922 175.00391 C 177.33755 175.13428 177.21304 175.24572 177.08789 175.36523 C 176.59316 175.77805 175.96519 176.08594 175.32617 176.08594 C 174.05331 176.15114 173.12907 176.06139 171.80469 175.72461 C 170.92951 175.51819 169.79169 174.8733 170.04297 175.02539 C 169.61472 174.76465 169.24042 174.38853 168.98242 173.96484 C 169.06282 174.1278 168.93648 173.80686 168.64258 173.26367 C 168.34503 172.71831 168.03852 171.78048 167.58203 170.80273 C 166.55867 168.6289 165.12545 166.2547 163.7207 163.05859 C 160.92229 156.69134 157.49472 148.91898 153.49219 141.58594 C 149.47477 134.22575 145.00788 127.17937 139.76562 122.57422 C 137.14561 120.27218 134.41347 118.41086 131.29883 117.65039 C 128.29201 116.91167 124.56419 117.49622 121.45312 119.05078 C 113.41976 123.50601 108.76736 130.81376 107.00391 138.42383 C 105.21285 146.1523 106.05788 154.26085 107.36523 162.01758 C 108.67156 169.75799 110.61143 176.83072 111.92578 182.07031 C 112.47918 184.27782 112.82033 185.88844 112.98828 186.99219 C 113.05558 188.08618 112.55425 191.57206 112.28711 192.63672 C 108.69504 206.94536 100.86729 216.25612 94.335938 223.61523 C 92.641008 225.52508 89.700476 226.06122 85.53125 227.13672 C 81.375776 228.2231 75.621649 228.89844 69.320312 228.89844 C 56.721336 228.92664 40.639566 226.97498 23.892578 224.31445 C 18.021647 223.38132 12.105649 222.41818 6.2246094 221.41211 C -11.351081 301.03484 8.3976196 383.91104 64.84375 442.05664 C 83.9504 440.97968 100.76655 439.1824 112.98828 437.62305 C 119.77245 436.75719 125.34633 436.13003 129.19727 435.5 C 131.121 435.14149 132.6451 435.02109 133.75977 435.14062 C 139.07012 435.31777 143.42427 438.40968 148.20898 440.42383 C 156.72571 444.2794 167.825 449.51435 179.54883 454.51172 C 191.27276 459.51006 203.38089 464.22412 213.00977 467.54102 C 217.83268 469.20312 221.94113 470.67454 225.33789 471.40234 C 227.0477 471.77184 228.56978 471.76367 229.92188 471.76367 C 231.57387 471.82967 232.17537 472.1054 233.7832 471.0625 C 233.89488 470.9855 233.91585 470.89667 234.14453 470.70117 C 239.56782 464.83027 239.87669 457.00897 237.30469 450.65039 C 234.61751 444.00615 229.66353 437.56913 224.27734 431.63867 C 218.90356 425.72227 213.37203 420.39307 209.84961 415.78906 C 208.65051 414.22142 208.14808 413.06063 207.72656 412.26758 C 207.44226 411.73308 207.33022 411.11423 207.38672 410.50586 C 207.53327 408.84045 209.24766 407.47695 210.91016 407.70508 C 212.44032 407.9658 214.13083 408.10318 216.5332 408.74414 C 223.15101 410.49755 231.86504 413.31821 240.48828 416.15039 C 249.11073 418.98259 257.60837 421.93085 264.44336 423.5332 C 267.88948 424.3328 270.72835 424.95508 273.24805 424.95508 C 274.59722 424.98748 275.5782 424.66874 276.77148 424.25586 C 277.63146 423.95279 279.08883 423.01843 279.57227 421.79297 C 279.62757 421.6409 279.87711 421.94504 279.93359 421.79297 C 281.56566 416.86951 279.66006 411.92106 276.75 406.64453 C 273.88182 401.44622 269.61738 396.02362 265.14453 390.81445 C 260.67643 385.60961 256.04643 380.58145 252.11523 376.36523 C 250.13764 374.24353 248.22199 372.00585 246.83203 370.38281 C 245.68224 369.04005 244.95818 368.47285 244.34961 367.58203 C 244.33871 367.56033 244.38321 367.2207 244.34961 367.2207 L 244.00977 367.2207 C 243.98697 367.1772 244.03257 366.85938 244.00977 366.85938 C 243.89254 366.86537 243.76664 366.86537 243.65039 366.85938 C 241.65836 363.25803 240.62401 358.45128 241.1875 353.83203 C 241.73862 349.30944 244.08787 345.13241 249.29297 341.50391 C 250.05593 340.97268 250.98419 340.52438 252.45508 339.74219 C 253.92595 338.96436 255.89501 337.9952 258.09961 336.94141 C 262.45762 334.85449 267.86543 332.20545 274.28906 329.19727 C 287.13033 323.18201 303.17364 315.51457 318.67773 307.00391 C 334.1878 298.48781 348.88411 288.86817 359.88281 279.20703 C 370.89783 269.53068 378.61192 259.4873 377.13281 248.92773 C 374.79704 231.90532 363.6733 218.91865 348.61719 209.14453 C 333.50902 199.33673 314.20844 192.60944 295.42188 187.67188 C 276.63912 182.73537 258.28183 179.27279 244.34961 177.10547 C 237.38692 176.02235 231.55167 175.39218 227.45898 174.64258 C 226.2729 174.43617 225.65846 174.08458 224.99805 173.94336 C 224.62945 173.87816 224.26319 173.77734 223.9375 173.60352 C 223.50913 173.34278 223.13496 172.96666 222.87695 172.54297 C 222.65153 172.11278 222.52007 171.63142 222.51562 171.14258 C 222.51654 170.96876 222.51471 170.69128 222.51562 170.44141 C 222.52652 167.78305 222.57202 164.52425 222.51562 160.23633 C 222.40069 151.65179 221.85267 140.52312 220.05469 129.95703 C 218.24919 119.34857 215.32765 109.36023 209.48828 102.50195 C 206.01582 98.423963 200.96083 95.743168 194.99609 95.330078 C 194.54874 95.299089 194.0959 95.280556 193.63867 95.275391 z M 332.40625 104.98438 C 331.74748 105.02238 331.22486 105.42881 330.64453 106.38477 C 324.22226 117.19529 324.02534 131.15983 321.13867 143.3457 C 319.75695 156.74396 315.13962 170.90179 319.03711 184.19141 C 322.3773 189.99917 328.56504 184.33398 328.88281 179.60938 C 334.60486 157.2822 338.49185 133.39543 336.98828 110.26758 C 336.6324 108.18066 334.38172 104.86487 332.40625 104.98438 z M 382.38672 118.31445 C 382.17224 118.31098 381.94934 118.32372 381.7168 118.35156 C 371.03414 123.13269 366.06388 135.47386 359.18359 144.4082 C 350.93001 159.02756 339.81063 173.64835 338.75 190.875 C 338.7837 197.11296 346.64152 198.15422 349.31641 192.97656 C 364.56706 172.18552 376.21326 148.61838 385.59961 124.69531 C 386.77898 121.80997 385.60393 118.36653 382.38672 118.31445 z "
         style="fill:#ffffff;fill-opacity:1;stroke:none;stroke-width:10.86375332" />
      <path
         style="opacity:1;fill:#000000;fill-opacity:0.49019608;stroke-width:11.10955238"
         inkscape:connector-curvature="0"
         d="m 511.63503,765.26572 c -1.5514,61.31166 -25.16121,124.1546 -70.96632,175.81449 C 342.95884,1051.2793 180.91854,1068.808 78.72573,980.23347 30.82713,938.71784 4.49685,881.28503 0.19386,820.59099 c 0.60525,66.35668 26.92356,130.2534 78.88478,175.29025 102.19281,88.57456 264.2408,71.03716 361.94298,-39.15326 49.70489,-56.05814 73.00495,-125.29097 70.61341,-191.46226 z"
         id="path913" />
    </g>
  </g>
</svg>
