<?xml version="1.0" encoding="UTF-8" standalone="no"?>
<svg
   xmlns:dc="http://purl.org/dc/elements/1.1/"
   xmlns:cc="http://creativecommons.org/ns#"
   xmlns:rdf="http://www.w3.org/1999/02/22-rdf-syntax-ns#"
   xmlns:svg="http://www.w3.org/2000/svg"
   xmlns="http://www.w3.org/2000/svg"
   xmlns:xlink="http://www.w3.org/1999/xlink"
   xmlns:sodipodi="http://sodipodi.sourceforge.net/DTD/sodipodi-0.dtd"
   xmlns:inkscape="http://www.inkscape.org/namespaces/inkscape"
   viewBox="0 0 512 512"
   version="1.0"
   id="svg2"
   height="512"
   width="512"
   inkscape:version="0.92.2 2405546, 2018-03-11"
   sodipodi:docname="cs-keyboard.svg">
  <sodipodi:namedview
     pagecolor="#ffffff"
     bordercolor="#666666"
     borderopacity="1"
     objecttolerance="10"
     gridtolerance="10"
     guidetolerance="10"
     inkscape:pageopacity="0"
     inkscape:pageshadow="2"
     inkscape:window-width="1366"
     inkscape:window-height="713"
     id="namedview30"
     showgrid="false"
     inkscape:zoom="0.29209588"
     inkscape:cx="13.912511"
     inkscape:cy="165.18935"
     inkscape:window-x="0"
     inkscape:window-y="24"
     inkscape:window-maximized="1"
     inkscape:current-layer="svg2" />
  <defs
     id="defs4">
    <linearGradient
       id="linearGradient4132">
      <stop
         id="stop4134"
         offset="0"
         style="stop-color:#f2f2f2;stop-opacity:1;" />
      <stop
         id="stop4136"
         offset="1"
         style="stop-color:#f2f2f2;stop-opacity:0;" />
    </linearGradient>
    <linearGradient
       id="linearGradient3155">
      <stop
         id="stop3157"
         offset="0"
         style="stop-color:#303030;stop-opacity:1;" />
      <stop
         id="stop3159"
         offset="1"
         style="stop-color:#303030;stop-opacity:0;" />
    </linearGradient>
    <linearGradient
       id="linearGradient6067">
      <stop
         id="stop6069"
         offset="0"
         style="stop-color:#ffffff;stop-opacity:1;" />
      <stop
         id="stop6071"
         offset="1"
         style="stop-color:#ffffff;stop-opacity:0;" />
    </linearGradient>
    <linearGradient
       id="linearGradient3142">
      <stop
         id="stop3144"
         offset="0"
         style="stop-color:#303030;stop-opacity:1;" />
      <stop
         id="stop3146"
         offset="1"
         style="stop-color:#303030;stop-opacity:0;" />
    </linearGradient>
    <linearGradient
       gradientTransform="matrix(1.6258627,0,0,1.6258627,-28.787153,-52.145846)"
       gradientUnits="userSpaceOnUse"
       y2="110.71667"
       x2="92.804863"
       y1="75.855133"
       x1="92.804863"
       id="linearGradient3148"
       xlink:href="#linearGradient3142" />
    <linearGradient
       gradientUnits="userSpaceOnUse"
       y2="119.78299"
       x2="29.731594"
       y1="96.211563"
       x1="29.731594"
       id="linearGradient6073"
       xlink:href="#linearGradient6067" />
    <linearGradient
       gradientUnits="userSpaceOnUse"
       y2="124.82345"
       x2="100.75668"
       y1="85.389313"
       x1="100.75668"
       id="linearGradient3161"
       xlink:href="#linearGradient3155" />
    <linearGradient
       gradientTransform="translate(-2.2728432)"
       gradientUnits="userSpaceOnUse"
       y2="-115.67227"
       x2="96.899597"
       y1="-101.65641"
       x1="96.899597"
       id="linearGradient4138"
       xlink:href="#linearGradient4132" />
    <filter
       style="color-interpolation-filters:sRGB"
       height="1"
       width="1"
       y="0"
       x="0"
       id="filter3004">
      <feColorMatrix
         result="result2"
         type="saturate"
         in="SourceGraphic"
         values="1"
         id="feColorMatrix3006" />
      <feFlood
         result="result1"
         flood-opacity="1"
         flood-color="rgb(254,102,0)"
         id="feFlood3008" />
      <feBlend
         result="result3"
         in="result1"
         mode="multiply"
         in2="result2"
         id="feBlend3010" />
      <feComposite
         result="result4"
         operator="in"
         in2="SourceGraphic"
         id="feComposite3012" />
    </filter>
  </defs>
  <metadata
     id="metadata7">
    <rdf:RDF>
      <cc:Work
         rdf:about="">
        <dc:format>image/svg+xml</dc:format>
        <dc:type
           rdf:resource="http://purl.org/dc/dcmitype/StillImage" />
        <dc:title />
      </cc:Work>
    </rdf:RDF>
  </metadata>
  <g
     id="g884">
    <path
       id="path1165"
       d="M 432.91328,56.474957 C 535.10618,145.04846 538.74005,306.17452 441.03006,416.37299 343.32007,526.57148 181.27962,544.10044 79.086743,455.52694 -23.106206,366.95112 -26.740033,205.82738 70.969944,95.626584 168.67988,-14.571874 330.72033,-32.100857 432.91328,56.474957 Z"
       inkscape:connector-curvature="0"
       style="fill:#3689e6;fill-opacity:1;stroke-width:11.10954762" />
    <path
       id="path1167"
       d="M 511.63552,224.904 C 510.08416,286.21587 486.47428,349.05909 440.66913,400.71745 342.95911,510.91591 180.91867,528.44488 78.725762,439.87141 30.827125,398.35528 4.4968196,340.92296 0.19382737,280.22782 0.79908097,346.58521 27.117406,410.48267 79.078693,455.51763 181.27157,544.09344 343.31972,526.55518 441.02203,416.366 490.72697,360.30678 514.02704,291.07521 511.63552,224.904 Z"
       inkscape:connector-curvature="0"
       style="opacity:1;fill:#000000;fill-opacity:0.49019608;stroke-width:11.10954762" />
    <g
       style="fill:#000000;fill-opacity:0.49019608"
       id="g69"
       transform="translate(20,20)">
      <path
         id="path65"
         d="M 137.66602,100 C 116.79885,100 100,120.55874 100,146.09766 V 365.90039 C 100,391.43931 116.79885,412 137.66602,412 H 374.33398 C 395.20114,412 412,391.43931 412,365.90039 V 146.09766 C 412,120.55874 395.20114,100 374.33398,100 Z m 16.91015,23.10938 h 197.71289 c 17.43256,0 31.4668,17.17436 31.4668,38.50976 v 183.625 c 0,21.33539 -14.03424,38.51172 -31.4668,38.51172 H 154.57617 c -17.43257,0 -31.46679,-17.17633 -31.46679,-38.51172 v -183.625 c 0,-21.3354 14.03422,-38.50976 31.46679,-38.50976 z"
         style="fill:#000000;fill-opacity:0.49019608;fill-rule:nonzero;stroke:none;stroke-width:0.89142859"
         inkscape:connector-curvature="0" />
      <path
         inkscape:connector-curvature="0"
         style="fill:#000000;fill-opacity:0.49019608;fill-rule:nonzero;stroke:none;stroke-width:0.64933586"
         d="m 166.80664,140.22656 c -15.2001,0 -27.43555,14.97502 -27.43555,33.57813 v 160.10937 c 0,18.60311 12.23545,33.58008 27.43555,33.58008 h 172.39453 c 15.20009,0 27.4375,-14.97697 27.4375,-33.58008 V 173.80469 c 0,-18.60311 -12.23741,-33.57813 -27.4375,-33.57813 z m 86.1543,33.82422 12.27734,12.27734 65.86524,65.86329 v 17.36523 H 292.0332 v 43.41016 17.36523 H 274.66797 231.25586 213.89062 V 312.9668 269.55664 h -39.07031 v -17.36523 l 65.86328,-65.86329 z m 0,24.55469 -53.58594,53.58594 h 31.88086 v 17.36523 43.41016 h 43.41211 v -43.41016 -17.36523 h 31.88086 z"
         transform="translate(-3.8414115e-8,4.7294498e-6)"
         id="path67" />
    </g>
    <g
       transform="translate(3.8414115e-8,-4.7294498e-6)"
       id="g885">
      <path
         inkscape:connector-curvature="0"
         style="fill:#ffffff;fill-opacity:1;fill-rule:nonzero;stroke:none;stroke-width:0.89142859"
         d="M 137.66602,100 C 116.79885,100 100,120.55874 100,146.09766 V 365.90039 C 100,391.43931 116.79885,412 137.66602,412 H 374.33398 C 395.20114,412 412,391.43931 412,365.90039 V 146.09766 C 412,120.55874 395.20114,100 374.33398,100 Z m 16.91015,23.10938 h 197.71289 c 17.43256,0 31.4668,17.17436 31.4668,38.50976 v 183.625 c 0,21.33539 -14.03424,38.51172 -31.4668,38.51172 H 154.57617 c -17.43257,0 -31.46679,-17.17633 -31.46679,-38.51172 v -183.625 c 0,-21.3354 14.03422,-38.50976 31.46679,-38.50976 z"
         id="path875" />
      <path
         id="rect4444-3-3"
         transform="translate(-3.8414115e-8,4.7294498e-6)"
         d="M 166.80664 140.22656 C 151.60654 140.22656 139.37109 155.20158 139.37109 173.80469 L 139.37109 333.91406 C 139.37109 352.51717 151.60654 367.49414 166.80664 367.49414 L 339.20117 367.49414 C 354.40126 367.49414 366.63867 352.51717 366.63867 333.91406 L 366.63867 173.80469 C 366.63867 155.20158 354.40126 140.22656 339.20117 140.22656 L 166.80664 140.22656 z M 252.96094 174.05078 L 265.23828 186.32812 L 331.10352 252.19141 L 331.10352 269.55664 L 292.0332 269.55664 L 292.0332 312.9668 L 292.0332 330.33203 L 274.66797 330.33203 L 231.25586 330.33203 L 213.89062 330.33203 L 213.89062 312.9668 L 213.89062 269.55664 L 174.82031 269.55664 L 174.82031 252.19141 L 240.68359 186.32812 L 252.96094 174.05078 z M 252.96094 198.60547 L 199.375 252.19141 L 231.25586 252.19141 L 231.25586 269.55664 L 231.25586 312.9668 L 274.66797 312.9668 L 274.66797 269.55664 L 274.66797 252.19141 L 306.54883 252.19141 L 252.96094 198.60547 z "
         style="fill:#ffffff;fill-opacity:1;fill-rule:nonzero;stroke:none;stroke-width:0.64933586" />
    </g>
  </g>
</svg>
