<?xml version="1.0" encoding="UTF-8" standalone="no"?>
<!-- Created with Inkscape (http://www.inkscape.org/) -->

<svg
   xmlns:dc="http://purl.org/dc/elements/1.1/"
   xmlns:cc="http://creativecommons.org/ns#"
   xmlns:rdf="http://www.w3.org/1999/02/22-rdf-syntax-ns#"
   xmlns:svg="http://www.w3.org/2000/svg"
   xmlns="http://www.w3.org/2000/svg"
   xmlns:sodipodi="http://sodipodi.sourceforge.net/DTD/sodipodi-0.dtd"
   xmlns:inkscape="http://www.inkscape.org/namespaces/inkscape"
   id="svg2"
   version="1.1"
   inkscape:version="0.92.2 2405546, 2018-03-11"
   width="512"
   height="512"
   sodipodi:docname="cs-power.svg"
   viewBox="0 0 512 512">
  <metadata
     id="metadata8">
    <rdf:RDF>
      <cc:Work
         rdf:about="">
        <dc:format>image/svg+xml</dc:format>
        <dc:type
           rdf:resource="http://purl.org/dc/dcmitype/StillImage" />
        <dc:title></dc:title>
      </cc:Work>
    </rdf:RDF>
  </metadata>
  <defs
     id="defs6" />
  <sodipodi:namedview
     pagecolor="#ffffff"
     bordercolor="#666666"
     borderopacity="1"
     objecttolerance="10"
     gridtolerance="10"
     guidetolerance="10"
     inkscape:pageopacity="0"
     inkscape:pageshadow="2"
     inkscape:window-width="1366"
     inkscape:window-height="713"
     id="namedview4"
     showgrid="false"
     inkscape:zoom="0.65186405"
     inkscape:cx="6.2979901"
     inkscape:cy="119.16159"
     inkscape:window-x="0"
     inkscape:window-y="24"
     inkscape:window-maximized="1"
     inkscape:current-layer="svg2"
     showguides="true"
     inkscape:guide-bbox="true"
     inkscape:document-units="px" />
  <g
     id="g1157"
     transform="matrix(3.7795276,0,0,3.7795276,1217.426,-1335.5726)">
    <path
       style="fill:#3689e6;fill-opacity:1;stroke-width:2.93940401"
       inkscape:connector-curvature="0"
       d="m -207.56899,368.3123 c 27.03854,23.43536 28,66.06639 2.14757,95.22323 -25.85244,29.15684 -68.72564,33.79466 -95.76417,10.3593 -27.03855,-23.43536 -28,-66.06639 -2.14757,-95.22323 25.85242,-29.15684 68.72562,-33.79466 95.76417,-10.3593 z"
       id="path1123" />
    <path
       style="opacity:1;fill:#000000;fill-opacity:0.49019608;stroke-width:2.93940401"
       inkscape:connector-curvature="0"
       d="m -186.7404,412.87596 c -0.41047,16.22203 -6.65724,32.84923 -18.77652,46.51757 -25.85244,29.15685 -68.72564,33.79466 -95.76418,10.35931 -12.67318,-10.98434 -19.63974,-26.18011 -20.77824,-42.23873 0.16014,17.55686 7.12353,34.46287 20.87162,46.37887 27.03853,23.43536 69.91377,18.79524 95.76417,-10.3593 13.1511,-14.83205 19.31591,-33.14991 18.68315,-50.65772 z"
       id="path1125" />
    <g
       transform="matrix(6.1685657,0,0,6.1684529,-487.09466,243.60304)"
       id="g1131"
       style="fill:#000000;fill-opacity:0.49019608">
      <path
         class="ColorScheme-Text"
         style="fill:#000000;fill-opacity:0.49019608;fill-rule:evenodd;stroke:none"
         d="m 39.502299,23.075 -4.909005,7.363575 h 2.454435 V 36.575 l 4.909005,-7.36371 h -2.454435 z"
         id="path1127"
         inkscape:connector-curvature="0"
         sodipodi:nodetypes="ccccccc" />
      <g
         id="g1129"
         transform="translate(27,24.3)"
         style="fill:#000000;fill-opacity:0.49019608" />
    </g>
    <g
       style="fill:#ffffff;fill-opacity:1"
       id="g1137"
       transform="matrix(6.1685657,0,0,6.1684529,-492.38616,238.31142)">
      <path
         sodipodi:nodetypes="ccccccc"
         inkscape:connector-curvature="0"
         id="path1133"
         d="m 39.502299,23.075 -4.909005,7.363575 h 2.454435 V 36.575 l 4.909005,-7.36371 h -2.454435 z"
         style="fill:#ffffff;fill-opacity:1;fill-rule:evenodd;stroke:none"
         class="ColorScheme-Text" />
      <g
         style="fill:#ffffff;fill-opacity:1"
         transform="translate(27,24.3)"
         id="g1135" />
    </g>
  </g>
</svg>
