<?xml version="1.0" encoding="UTF-8" standalone="no"?>
<!-- Created with Inkscape (http://www.inkscape.org/) -->

<svg
   xmlns:dc="http://purl.org/dc/elements/1.1/"
   xmlns:cc="http://creativecommons.org/ns#"
   xmlns:rdf="http://www.w3.org/1999/02/22-rdf-syntax-ns#"
   xmlns:svg="http://www.w3.org/2000/svg"
   xmlns="http://www.w3.org/2000/svg"
   xmlns:sodipodi="http://sodipodi.sourceforge.net/DTD/sodipodi-0.dtd"
   xmlns:inkscape="http://www.inkscape.org/namespaces/inkscape"
   id="svg2"
   version="1.1"
   inkscape:version="0.92.2 2405546, 2018-03-11"
   width="512"
   height="512"
   sodipodi:docname="d4x.svg">
  <metadata
     id="metadata8">
    <rdf:RDF>
      <cc:Work
         rdf:about="">
        <dc:format>image/svg+xml</dc:format>
        <dc:type
           rdf:resource="http://purl.org/dc/dcmitype/StillImage" />
        <dc:title />
      </cc:Work>
    </rdf:RDF>
  </metadata>
  <defs
     id="defs6" />
  <sodipodi:namedview
     pagecolor="#ffffff"
     bordercolor="#666666"
     borderopacity="1"
     objecttolerance="10"
     gridtolerance="10"
     guidetolerance="10"
     inkscape:pageopacity="0"
     inkscape:pageshadow="2"
     inkscape:window-width="1366"
     inkscape:window-height="713"
     id="namedview4"
     showgrid="false"
     inkscape:zoom="0.32593203"
     inkscape:cx="240.92707"
     inkscape:cy="240.51535"
     inkscape:window-x="0"
     inkscape:window-y="24"
     inkscape:window-maximized="1"
     inkscape:current-layer="svg2" />
  <g
     id="g935">
    <path
       id="path1148"
       d="m 432.9132,56.47397 c 102.19309,88.57459 105.82677,249.69971 8.11688,359.89879 C 343.32022,526.57184 181.27977,544.10061 79.086634,455.52602 -23.106121,366.95143 -26.740136,205.82632 70.9701,95.62723 168.67996,-14.57185 330.72041,-32.10062 432.9132,56.47397 Z"
       inkscape:connector-curvature="0"
       style="fill:#3689e6;fill-opacity:1;stroke-width:11.10955811" />
    <path
       id="path1150"
       d="M 511.63546,224.90352 C 510.08431,286.21517 486.47439,349.05813 440.66916,400.718 342.9593,510.91712 180.91883,528.44585 78.72569,439.87129 30.826982,398.35564 4.4969024,340.92285 0.19391032,280.22881 0.79901264,346.58549 27.117375,410.48218 79.078698,455.51907 181.27146,544.09362 343.31983,526.5562 441.02217,416.36577 c 49.70494,-56.0581 73.00497,-125.29096 70.61329,-191.46225 z"
       inkscape:connector-curvature="0"
       style="opacity:1;fill:#000000;fill-opacity:0.49019608;stroke-width:11.10955811" />
    <g
       style="fill:#000000;fill-opacity:0.49019608"
       transform="translate(19.999998,19.999995)"
       id="g923">
      <path
         inkscape:connector-curvature="0"
         id="path917"
         d="m 303.45895,100.00491 c -5.63023,0.53887 -32.60226,44.34438 -49.97765,73.51534 5.17417,3.61937 14.32327,10.80587 19.11659,19.28851 6.91912,12.24464 3.00786,32.32844 3.00786,32.32844 0,0 14.42201,9.74274 17.85496,16.35103 3.43295,6.60829 2.63155,20.2997 2.63155,20.2997 0,0 1.53842,-8.06015 6.76566,-13.909 3.81717,-4.27111 16.22841,-11.28602 22.68081,-14.78077 -13.67942,-5.36009 -23.73533,-9.11023 -23.73533,-9.11023 0,0 9.01996,-121.57474 2.02104,-123.94647 -0.10936,-0.0371 -0.23148,-0.04941 -0.36549,-0.0365 z m -187.11297,65.16453 c -1.68182,0.0326 -2.77161,0.31419 -3.15677,0.88665 -2.95119,4.38638 29.20693,33.4041 55.53448,56.03129 l 1.43896,-11.2355 -10.52481,2.25522 -1.62441,-38.98717 c -18.58017,-5.1845 -34.9106,-9.08149 -41.66745,-8.95049 z m 232.58018,77.30968 c 3.87983,5.17908 7.6063,12.67175 7.6063,12.67175 0,0 -1.45572,7.42718 -4.51857,12.3604 -1.66339,2.67915 -5.90087,7.04369 -9.45135,10.50586 26.82024,-1.67075 57.5848,-4.53227 58.26349,-8.89635 0.62689,-4.03104 -26.0682,-16.02494 -51.89987,-26.64166 z m -97.38739,28.88606 c 0,0 -24.43371,13.16748 -39.87111,16.48098 -10.23493,2.19683 -29.38819,2.17649 -41.25458,1.9168 -24.38106,32.20776 -53.71937,72.6957 -50.48798,77.03219 5.26799,7.06958 108.15264,-51.51145 114.66839,-55.23126 3.00375,-5.51389 7.86524,-13.8089 11.69032,-17.25935 5.94828,-5.3657 18.98393,-9.58672 18.98393,-9.58672 0,0 -5.97427,-3.74374 -8.26959,-6.01437 -2.29533,-2.27064 -5.45938,-7.33827 -5.45938,-7.33827 z m 39.66672,47.93631 c 0,0 -1.50523,8.88415 -8.26959,14.28532 -5.21936,4.16752 -22.40978,8.14219 -30.04345,9.75322 16.46394,30.30087 39.86585,70.59313 46.88992,68.58797 5.46317,-1.55958 6.39114,-33.05277 5.9142,-64.88567 -3.47307,-2.51854 -10.00882,-7.57498 -12.0477,-11.38846 -2.81536,-5.2658 -2.44338,-16.35238 -2.44338,-16.35238 z"
         style="fill:#000000;fill-opacity:0.49019608;stroke:none;stroke-width:0.6930812" />
      <path
         sodipodi:nodetypes="czczczczczczczczczczczczc"
         inkscape:connector-curvature="0"
         id="path919"
         d="m 303.76074,338.95636 c 0,0 8.77291,3.85178 21.43449,0 12.66158,-3.85176 15.00414,-8.57377 15.00414,-8.57377 0,0 -2.44686,-17.26208 -8.57379,-24.29246 -6.12693,-7.03037 -20.48184,-16.4331 -20.48184,-16.4331 0,0 15.47133,-3.76335 22.38713,-9.76459 6.91578,-6.00124 15.71863,-22.86347 15.71863,-22.86347 0,0 -2.90655,-6.16935 -8.33559,-11.90203 -5.42903,-5.7327 -10.71729,-6.67452 -10.71729,-6.67452 0,0 -18.44072,9.56952 -24.29243,16.67129 -5.8517,7.10177 -10.24092,22.38712 -10.24092,22.38712 0,0 -3.52424,-21.65328 -7.14484,-29.29379 -3.62059,-7.64052 -12.38436,-16.43313 -12.38436,-16.43313 0,0 -8.28941,0.73687 -14.39612,4.54374 -6.10669,3.80687 -10.61078,7.84063 -10.61078,7.84063 0,0 1.4179,18.1832 6.90667,25.24506 5.48878,7.06184 19.52918,16.67129 19.52918,16.67129 0,0 -19.62856,7.04793 -26.19771,13.33702 -6.56916,6.28908 -12.38437,21.91079 -12.38437,21.91079 0,0 1.90461,5.7487 5.97961,9.97863 4.07501,4.22995 9.50086,6.45449 9.50086,6.45449 0,0 17.28856,-6.86131 23.57794,-12.38439 6.28938,-5.52307 13.57519,-19.29104 13.57519,-19.29104 0,0 4.85493,15.16811 6.19218,20.95819 1.33725,5.79008 5.95402,11.90804 5.95402,11.90804 z"
         style="fill:#000000;stroke:none;stroke-width:0.6930812;fill-opacity:0.49019608" />
      <path
         inkscape:connector-curvature="0"
         id="path921"
         d="m 172.64844,157.48242 c -6.11708,-0.0312 -9.87891,0.23438 -9.87891,0.23438 l 1.19141,47.39258 c 0,0 4.76683,-0.97477 11.94336,-1.97461 l 0.20117,53.41796 -7.62109,-0.23828 0.23828,23.33985 c 0,0 51.92319,5.29978 81.5664,-16.9336 l -1.06836,-0.7539 c 0,0 -6.44341,-11.61404 -0.54297,-22.78125 4.75483,-8.99904 16.85345,-11.38581 21.42579,-11.98633 0.22087,-2.25582 0.33715,-4.59591 0.31445,-7.04492 -0.52694,-56.8464 -71.26218,-62.53644 -97.76953,-62.67188 z m 32.09179,43.50586 c 20.55941,0.055 41.45757,4.34184 42.81446,21.26953 2.71378,33.85537 -45.25,28.10352 -45.25,28.10352 l -0.20899,-49.34766 c 0.88079,-0.0126 1.76092,-0.0277 2.64453,-0.0254 z"
         style="fill:#000000;stroke:none;stroke-width:0.6930812;fill-opacity:0.49019608" />
    </g>
    <g
       id="g915">
      <path
         style="fill:#ffffff;fill-opacity:1;stroke:none;stroke-width:0.6930812"
         d="m 303.45895,100.00491 c -5.63023,0.53887 -32.60226,44.34438 -49.97765,73.51534 5.17417,3.61937 14.32327,10.80587 19.11659,19.28851 6.91912,12.24464 3.00786,32.32844 3.00786,32.32844 0,0 14.42201,9.74274 17.85496,16.35103 3.43295,6.60829 2.63155,20.2997 2.63155,20.2997 0,0 1.53842,-8.06015 6.76566,-13.909 3.81717,-4.27111 16.22841,-11.28602 22.68081,-14.78077 -13.67942,-5.36009 -23.73533,-9.11023 -23.73533,-9.11023 0,0 9.01996,-121.57474 2.02104,-123.94647 -0.10936,-0.0371 -0.23148,-0.04941 -0.36549,-0.0365 z m -187.11297,65.16453 c -1.68182,0.0326 -2.77161,0.31419 -3.15677,0.88665 -2.95119,4.38638 29.20693,33.4041 55.53448,56.03129 l 1.43896,-11.2355 -10.52481,2.25522 -1.62441,-38.98717 c -18.58017,-5.1845 -34.9106,-9.08149 -41.66745,-8.95049 z m 232.58018,77.30968 c 3.87983,5.17908 7.6063,12.67175 7.6063,12.67175 0,0 -1.45572,7.42718 -4.51857,12.3604 -1.66339,2.67915 -5.90087,7.04369 -9.45135,10.50586 26.82024,-1.67075 57.5848,-4.53227 58.26349,-8.89635 0.62689,-4.03104 -26.0682,-16.02494 -51.89987,-26.64166 z m -97.38739,28.88606 c 0,0 -24.43371,13.16748 -39.87111,16.48098 -10.23493,2.19683 -29.38819,2.17649 -41.25458,1.9168 -24.38106,32.20776 -53.71937,72.6957 -50.48798,77.03219 5.26799,7.06958 108.15264,-51.51145 114.66839,-55.23126 3.00375,-5.51389 7.86524,-13.8089 11.69032,-17.25935 5.94828,-5.3657 18.98393,-9.58672 18.98393,-9.58672 0,0 -5.97427,-3.74374 -8.26959,-6.01437 -2.29533,-2.27064 -5.45938,-7.33827 -5.45938,-7.33827 z m 39.66672,47.93631 c 0,0 -1.50523,8.88415 -8.26959,14.28532 -5.21936,4.16752 -22.40978,8.14219 -30.04345,9.75322 16.46394,30.30087 39.86585,70.59313 46.88992,68.58797 5.46317,-1.55958 6.39114,-33.05277 5.9142,-64.88567 -3.47307,-2.51854 -10.00882,-7.57498 -12.0477,-11.38846 -2.81536,-5.2658 -2.44338,-16.35238 -2.44338,-16.35238 z"
         id="path2994"
         inkscape:connector-curvature="0" />
      <path
         style="fill:#ffffff;stroke:none;stroke-width:0.6930812"
         d="m 303.76074,338.95636 c 0,0 8.77291,3.85178 21.43449,0 12.66158,-3.85176 15.00414,-8.57377 15.00414,-8.57377 0,0 -2.44686,-17.26208 -8.57379,-24.29246 -6.12693,-7.03037 -20.48184,-16.4331 -20.48184,-16.4331 0,0 15.47133,-3.76335 22.38713,-9.76459 6.91578,-6.00124 15.71863,-22.86347 15.71863,-22.86347 0,0 -2.90655,-6.16935 -8.33559,-11.90203 -5.42903,-5.7327 -10.71729,-6.67452 -10.71729,-6.67452 0,0 -18.44072,9.56952 -24.29243,16.67129 -5.8517,7.10177 -10.24092,22.38712 -10.24092,22.38712 0,0 -3.52424,-21.65328 -7.14484,-29.29379 -3.62059,-7.64052 -12.38436,-16.43313 -12.38436,-16.43313 0,0 -8.28941,0.73687 -14.39612,4.54374 -6.10669,3.80687 -10.61078,7.84063 -10.61078,7.84063 0,0 1.4179,18.1832 6.90667,25.24506 5.48878,7.06184 19.52918,16.67129 19.52918,16.67129 0,0 -19.62856,7.04793 -26.19771,13.33702 -6.56916,6.28908 -12.38437,21.91079 -12.38437,21.91079 0,0 1.90461,5.7487 5.97961,9.97863 4.07501,4.22995 9.50086,6.45449 9.50086,6.45449 0,0 17.28856,-6.86131 23.57794,-12.38439 6.28938,-5.52307 13.57519,-19.29104 13.57519,-19.29104 0,0 4.85493,15.16811 6.19218,20.95819 1.33725,5.79008 5.95402,11.90804 5.95402,11.90804 z"
         id="path3766"
         inkscape:connector-curvature="0"
         sodipodi:nodetypes="czczczczczczczczczczczczc" />
      <path
         style="fill:#ffffff;stroke:none;stroke-width:0.6930812"
         d="M 172.64844 157.48242 C 166.53136 157.45117 162.76953 157.7168 162.76953 157.7168 L 163.96094 205.10938 C 163.96094 205.10938 168.72777 204.13461 175.9043 203.13477 L 176.10547 256.55273 L 168.48438 256.31445 L 168.72266 279.6543 C 168.72266 279.6543 220.64585 284.95408 250.28906 262.7207 L 249.2207 261.9668 C 249.2207 261.9668 242.77729 250.35276 248.67773 239.18555 C 253.43256 230.18651 265.53118 227.79974 270.10352 227.19922 C 270.32439 224.9434 270.44067 222.60331 270.41797 220.1543 C 269.89103 163.3079 199.15579 157.61786 172.64844 157.48242 z M 204.74023 200.98828 C 225.29964 201.04326 246.1978 205.33012 247.55469 222.25781 C 250.26847 256.11318 202.30469 250.36133 202.30469 250.36133 L 202.0957 201.01367 C 202.97649 201.00107 203.85662 200.98592 204.74023 200.98828 z "
         id="path3764" />
    </g>
  </g>
</svg>
