<?xml version="1.0" encoding="UTF-8" standalone="no"?>
<!-- Created with Inkscape (http://www.inkscape.org/) -->

<svg
   xmlns:dc="http://purl.org/dc/elements/1.1/"
   xmlns:cc="http://creativecommons.org/ns#"
   xmlns:rdf="http://www.w3.org/1999/02/22-rdf-syntax-ns#"
   xmlns:svg="http://www.w3.org/2000/svg"
   xmlns="http://www.w3.org/2000/svg"
   xmlns:sodipodi="http://sodipodi.sourceforge.net/DTD/sodipodi-0.dtd"
   xmlns:inkscape="http://www.inkscape.org/namespaces/inkscape"
   id="svg2"
   version="1.1"
   inkscape:version="0.92.2 2405546, 2018-03-11"
   width="512"
   height="512"
   sodipodi:docname="deja-dup.svg">
  <metadata
     id="metadata8">
    <rdf:RDF>
      <cc:Work
         rdf:about="">
        <dc:format>image/svg+xml</dc:format>
        <dc:type
           rdf:resource="http://purl.org/dc/dcmitype/StillImage" />
        <dc:title></dc:title>
      </cc:Work>
    </rdf:RDF>
  </metadata>
  <defs
     id="defs6" />
  <sodipodi:namedview
     pagecolor="#ffffff"
     bordercolor="#666666"
     borderopacity="1"
     objecttolerance="10"
     gridtolerance="10"
     guidetolerance="10"
     inkscape:pageopacity="0"
     inkscape:pageshadow="2"
     inkscape:window-width="1366"
     inkscape:window-height="742"
     id="namedview4"
     showgrid="false"
     inkscape:zoom="0.273"
     inkscape:cx="155.06783"
     inkscape:cy="166.24757"
     inkscape:window-x="0"
     inkscape:window-y="0"
     inkscape:window-maximized="1"
     inkscape:current-layer="svg2" />
  <g
     id="g892">
    <path
       id="path27"
       d="M 432.91327,56.473967 C 535.10618,145.04856 538.74005,306.17367 441.03007,416.37276 343.3201,526.57184 181.27964,544.10061 79.086729,455.52602 -23.106186,366.95143 -26.740042,205.82631 70.969928,95.627227 168.6799,-14.571854 330.72036,-32.100623 432.91327,56.473967 Z"
       inkscape:connector-curvature="0"
       style="fill:#3689e6;fill-opacity:1;stroke-width:11.10955811" />
    <path
       id="path51"
       d="M 511.63551,224.90351 C 510.08412,286.21516 486.47428,349.05812 440.66913,400.71799 342.95915,510.91711 180.91869,528.44584 78.725776,439.87129 30.827124,398.35563 4.4968216,340.92284 0.19382768,280.2288 0.79907934,346.58548 27.117411,410.48217 79.078682,455.51906 181.27159,544.09361 343.31975,526.55619 441.02202,416.36576 490.72697,360.30766 514.02704,291.0748 511.63551,224.90351 Z"
       inkscape:connector-curvature="0"
       style="opacity:1;fill:#000000;fill-opacity:0.49019608;stroke-width:11.10955811" />
    <g
       style="fill:#000000;fill-opacity:0.49019608"
       transform="translate(19.500855,20.000129)"
       id="g882">
      <path
         sodipodi:nodetypes="ssccccccccccccccsscscccccccccsscccccssccsssccccccsscccssssc"
         inkscape:connector-curvature="0"
         id="path878"
         d="m 202.02344,100.00195 c -65.6629,-0.04875 -62.72449,1.3012 -70.73047,10.39649 -2.96021,3.36298 -6.12522,8.58924 -7.03125,11.61328 -2.33638,7.79798 -2.35656,260.22183 -0.0215,268.01562 2.16986,7.24233 10.20612,16.38771 17.20704,19.58399 5.39803,2.46446 11.23721,2.57783 117.14453,2.26172 l 111.46484,-0.33203 5.83789,-3.86524 c 3.21111,-2.12523 7.57789,-6.48998 9.70313,-9.70117 l 3.86328,-5.83984 0.32812,-134.57618 0.33008,-134.57617 -3.83203,-6.95117 c -2.19402,-3.98135 -6.42397,-8.76827 -9.90234,-11.20508 l -6.07422,-4.25586 -110.89063,-0.38867 c -23.43706,-0.0824 -42.24351,-0.16844 -57.39648,-0.17969 z m 55.76562,32.85157 c 16.09864,0.0571 19.3039,0.48298 27.65235,3.67382 34.87956,13.33129 56.95163,42.64441 59.41211,78.90625 1.43332,21.1238 -7.29439,46.54105 -21.34961,62.17383 l -6.45703,7.18164 -5.77344,-4.5625 c -2.31866,-1.83218 -4.18491,-3.06 -7.76367,-6.13281 -0.0362,0.0299 -0.0938,0.0866 -0.12891,0.11523 -7.44152,6.06043 -15.65401,10.40941 -24.48242,13.00782 12.43696,8.47852 64.56449,46.35403 70.03711,51.16601 6.97614,6.13405 9.62475,12.78649 8.625,21.65625 -0.80581,7.14906 -4.08585,12.25657 -10.8086,16.83203 -5.97893,4.06924 -17.03515,4.29328 -23.30078,0.47266 -5.93279,-3.61767 -10.77536,-9.62496 -39.15234,-48.57031 -14.78467,-20.2909 -24.40764,-30.76322 -24.40821,-32.71094 -3.5e-4,-1.22551 0.59864,-2.69722 1.52344,-4.13086 -0.0105,6.6e-4 -0.0208,10e-4 -0.0312,0.002 -2.07156,0.12956 -5.78332,0.15314 -7.73047,0.0488 -6.4053,-0.34261 -12.62365,-1.54196 -18.5625,-3.53711 -1.18641,6.2924 -1.24185,9.82582 0.16211,14.18555 1.34401,4.17357 -0.42875,4.03433 -12.10547,-0.94727 -25.98667,-11.08661 -45.98802,-34.33808 -52.19921,-60.68164 -2.70586,-11.4763 -2.66428,-31.38176 0.0879,-42.17578 7.35365,-28.8412 30.26484,-53.50026 58.21289,-62.65429 8.84056,-2.89562 12.95915,-3.37366 28.54101,-3.31836 z m 11.90625,119.96484 c -12.03777,0 -22.01223,4.91436 -28.56054,13.85156 5.89262,3.82787 12.46823,6.52712 19.46679,7.81641 3.45369,0.63626 5.76738,0.84212 9.50391,0.8457 3.70527,0.003 5.6588,-0.15 8.91406,-0.69726 7.33156,-1.23293 14.26083,-3.98399 20.61914,-8.16407 -0.63488,-0.5517 -1.30538,-1.12756 -1.88476,-1.63867 -10.52386,-9.28371 -16.90081,-12.01367 -28.0586,-12.01367 z m -98.02343,94.97461 c 2.8284,-0.0351 5.70793,0.76111 8.48632,2.40234 4.09545,2.41924 8.29297,9.36306 8.29297,13.71875 0,4.47372 -4.57648,12.02925 -8.52344,14.07032 -8.67088,4.48386 -18.90749,1.34507 -22.87304,-7.01172 -3.28926,-6.93161 -1.77357,-13.63545 4.28515,-18.95508 3.14408,-2.76054 6.69551,-4.17947 10.33204,-4.22461 z"
         style="fill:#000000;stroke-width:1.40076447;fill-opacity:0.49019608" />
      <path
         inkscape:connector-curvature="0"
         id="path880"
         d="m 253.65198,287.9822 c -15.21649,-0.8139 -29.40027,-6.40259 -41.2043,-16.23524 -1.84034,-1.53293 -5.70497,-5.32045 -7.3628,-7.21583 -10.37246,-11.85865 -16.26904,-26.14128 -17.24537,-41.77168 -0.36375,-5.82327 0.0708,-8.30244 1.96594,-11.21663 1.90351,-2.92702 4.69407,-4.88786 8.10371,-5.69431 1.41448,-0.33454 4.35867,-0.33081 5.72504,0.007 3.97323,0.98314 7.18273,3.59311 8.88467,7.22494 0.93111,1.98698 1.13122,3.09208 1.27735,7.05467 0.20003,5.42321 0.73125,9.45321 1.8418,13.97225 5.64207,22.95868 23.30135,40.38813 44.96409,44.37887 3.45369,0.63626 5.7667,0.84207 9.50323,0.84565 3.70527,0.003 5.65874,-0.14928 8.914,-0.69654 9.18803,-1.54512 17.74884,-5.46739 25.33893,-11.60936 2.19985,-1.78015 6.82717,-6.46373 8.63122,-8.73609 4.97341,-6.26465 8.34821,-12.70136 11.00634,-20.99225 0.2376,-0.74113 0.39348,-1.12404 0.34641,-0.85099 -0.0471,0.273 -0.37062,1.42189 -0.71898,2.55308 -2.66845,8.66495 -6.84297,16.43835 -12.69389,23.6374 -2.00377,2.46548 -7.11805,7.592 -9.54847,9.57139 -11.64313,9.48225 -25.16524,14.79827 -39.99867,15.72483 -2.07156,0.12956 -5.7831,0.15281 -7.73025,0.0485 z m 70.80191,-52.24445 c 0.002,-0.1171 0.0553,-0.37234 0.11776,-0.56735 0.0913,-0.28507 0.11441,-0.29896 0.11777,-0.0709 0.002,0.15619 -0.0507,0.41132 -0.11777,0.56736 -0.0747,0.17381 -0.12029,0.20131 -0.11776,0.0709 z m 0.27075,-1.21747 c 0.007,-0.16545 0.0404,-0.19882 0.0858,-0.0858 0.0409,0.10243 0.0358,0.22475 -0.0118,0.27187 -0.0472,0.0472 -0.0807,-0.0367 -0.0745,-0.1862 z m 0.14187,-0.56735 c 0.007,-0.16545 0.0404,-0.19884 0.0858,-0.0858 0.0409,0.10242 0.0358,0.22469 -0.0118,0.27182 -0.0472,0.0472 -0.0807,-0.0367 -0.0745,-0.18614 z m 0.14186,-0.56734 c 0.007,-0.16546 0.0404,-0.19884 0.0858,-0.0858 0.041,0.10243 0.0358,0.22475 -0.0118,0.27187 -0.0472,0.0472 -0.0807,-0.0367 -0.0745,-0.18614 z m 0.14186,-0.70923 c 0.007,-0.16546 0.0404,-0.19883 0.0858,-0.0858 0.0409,0.10242 0.0358,0.22474 -0.0118,0.27186 -0.0472,0.0472 -0.0807,-0.0367 -0.0745,-0.18618 z m -13.72118,-1.26182 c -2.62021,-0.47547 -4.80901,-1.59772 -6.76613,-3.46927 -1.22492,-1.17128 -2.06842,-2.34482 -2.7858,-3.87564 -0.93111,-1.98696 -1.1312,-3.09205 -1.27737,-7.05463 -0.2,-5.42322 -0.73123,-9.45323 -1.84178,-13.97226 -5.64301,-22.96252 -23.30249,-40.39202 -44.96408,-44.37853 -9.856,-1.81387 -19.80965,-0.84121 -29.14796,2.84818 -16.27493,6.43002 -29.08941,20.87528 -34.32626,38.69464 -0.3439,1.17016 -0.62794,2.03811 -0.63119,1.9287 -0.01,-0.35357 0.97494,-3.7704 1.70627,-5.91592 2.79809,-8.20895 6.97034,-15.60676 12.63034,-22.39488 1.52714,-1.83153 5.31277,-5.696 7.21702,-7.3673 15.1408,-13.28861 34.85532,-19.33052 54.82088,-16.80094 13.74444,1.74138 26.57873,7.55593 37.09096,16.80405 1.63878,1.44175 5.27177,5.09828 6.61209,6.65497 10.09284,11.72229 15.85088,25.96345 16.80426,41.56141 0.34201,5.59556 -0.12334,8.09256 -2.06143,11.06093 -2.81421,4.31039 -8.06064,6.58729 -13.07982,5.67649 z M 189.26817,203.74116 c 0.007,-0.16546 0.0404,-0.19884 0.0857,-0.0858 0.041,0.10243 0.0358,0.22475 -0.0113,0.27188 -0.0472,0.0472 -0.0807,-0.0366 -0.0745,-0.1862 z m 0.14183,-0.56735 c 0.007,-0.16545 0.0404,-0.19883 0.0857,-0.0858 0.041,0.10243 0.036,0.2247 -0.0113,0.27187 -0.0472,0.0472 -0.0807,-0.0367 -0.0745,-0.1862 z m 0.14181,-0.56734 c 0.007,-0.16545 0.0404,-0.19883 0.0857,-0.0858 0.0409,0.10242 0.0358,0.22469 -0.0113,0.27182 -0.0472,0.0472 -0.0807,-0.0367 -0.0745,-0.18614 z"
         style="fill:#000000;stroke-width:0.14183927;fill-opacity:0.49019608" />
    </g>
    <g
       id="g876">
      <path
         style="fill:#ffffff;stroke-width:1.40076447"
         d="m 202.02344,100.00195 c -65.6629,-0.04875 -62.72449,1.3012 -70.73047,10.39649 -2.96021,3.36298 -6.12522,8.58924 -7.03125,11.61328 -2.33638,7.79798 -2.35656,260.22183 -0.0215,268.01562 2.16986,7.24233 10.20612,16.38771 17.20704,19.58399 5.39803,2.46446 11.23721,2.57783 117.14453,2.26172 l 111.46484,-0.33203 5.83789,-3.86524 c 3.21111,-2.12523 7.57789,-6.48998 9.70313,-9.70117 l 3.86328,-5.83984 0.32812,-134.57618 0.33008,-134.57617 -3.83203,-6.95117 c -2.19402,-3.98135 -6.42397,-8.76827 -9.90234,-11.20508 l -6.07422,-4.25586 -110.89063,-0.38867 c -23.43706,-0.0824 -42.24351,-0.16844 -57.39648,-0.17969 z m 55.76562,32.85157 c 16.09864,0.0571 19.3039,0.48298 27.65235,3.67382 34.87956,13.33129 56.95163,42.64441 59.41211,78.90625 1.43332,21.1238 -7.29439,46.54105 -21.34961,62.17383 l -6.45703,7.18164 -5.77344,-4.5625 c -2.31866,-1.83218 -4.18491,-3.06 -7.76367,-6.13281 -0.0362,0.0299 -0.0938,0.0866 -0.12891,0.11523 -7.44152,6.06043 -15.65401,10.40941 -24.48242,13.00782 12.43696,8.47852 64.56449,46.35403 70.03711,51.16601 6.97614,6.13405 9.62475,12.78649 8.625,21.65625 -0.80581,7.14906 -4.08585,12.25657 -10.8086,16.83203 -5.97893,4.06924 -17.03515,4.29328 -23.30078,0.47266 -5.93279,-3.61767 -10.77536,-9.62496 -39.15234,-48.57031 -14.78467,-20.2909 -24.40764,-30.76322 -24.40821,-32.71094 -3.5e-4,-1.22551 0.59864,-2.69722 1.52344,-4.13086 -0.0105,6.6e-4 -0.0208,10e-4 -0.0312,0.002 -2.07156,0.12956 -5.78332,0.15314 -7.73047,0.0488 -6.4053,-0.34261 -12.62365,-1.54196 -18.5625,-3.53711 -1.18641,6.2924 -1.24185,9.82582 0.16211,14.18555 1.34401,4.17357 -0.42875,4.03433 -12.10547,-0.94727 -25.98667,-11.08661 -45.98802,-34.33808 -52.19921,-60.68164 -2.70586,-11.4763 -2.66428,-31.38176 0.0879,-42.17578 7.35365,-28.8412 30.26484,-53.50026 58.21289,-62.65429 8.84056,-2.89562 12.95915,-3.37366 28.54101,-3.31836 z m 11.90625,119.96484 c -12.03777,0 -22.01223,4.91436 -28.56054,13.85156 5.89262,3.82787 12.46823,6.52712 19.46679,7.81641 3.45369,0.63626 5.76738,0.84212 9.50391,0.8457 3.70527,0.003 5.6588,-0.15 8.91406,-0.69726 7.33156,-1.23293 14.26083,-3.98399 20.61914,-8.16407 -0.63488,-0.5517 -1.30538,-1.12756 -1.88476,-1.63867 -10.52386,-9.28371 -16.90081,-12.01367 -28.0586,-12.01367 z m -98.02343,94.97461 c 2.8284,-0.0351 5.70793,0.76111 8.48632,2.40234 4.09545,2.41924 8.29297,9.36306 8.29297,13.71875 0,4.47372 -4.57648,12.02925 -8.52344,14.07032 -8.67088,4.48386 -18.90749,1.34507 -22.87304,-7.01172 -3.28926,-6.93161 -1.77357,-13.63545 4.28515,-18.95508 3.14408,-2.76054 6.69551,-4.17947 10.33204,-4.22461 z"
         id="path867"
         inkscape:connector-curvature="0"
         sodipodi:nodetypes="ssccccccccccccccsscscccccccccsscccccssccsssccccccsscccssssc" />
      <path
         style="fill:#ffffff;stroke-width:0.14183927"
         d="m 253.65198,287.9822 c -15.21649,-0.8139 -29.40027,-6.40259 -41.2043,-16.23524 -1.84034,-1.53293 -5.70497,-5.32045 -7.3628,-7.21583 -10.37246,-11.85865 -16.26904,-26.14128 -17.24537,-41.77168 -0.36375,-5.82327 0.0708,-8.30244 1.96594,-11.21663 1.90351,-2.92702 4.69407,-4.88786 8.10371,-5.69431 1.41448,-0.33454 4.35867,-0.33081 5.72504,0.007 3.97323,0.98314 7.18273,3.59311 8.88467,7.22494 0.93111,1.98698 1.13122,3.09208 1.27735,7.05467 0.20003,5.42321 0.73125,9.45321 1.8418,13.97225 5.64207,22.95868 23.30135,40.38813 44.96409,44.37887 3.45369,0.63626 5.7667,0.84207 9.50323,0.84565 3.70527,0.003 5.65874,-0.14928 8.914,-0.69654 9.18803,-1.54512 17.74884,-5.46739 25.33893,-11.60936 2.19985,-1.78015 6.82717,-6.46373 8.63122,-8.73609 4.97341,-6.26465 8.34821,-12.70136 11.00634,-20.99225 0.2376,-0.74113 0.39348,-1.12404 0.34641,-0.85099 -0.0471,0.273 -0.37062,1.42189 -0.71898,2.55308 -2.66845,8.66495 -6.84297,16.43835 -12.69389,23.6374 -2.00377,2.46548 -7.11805,7.592 -9.54847,9.57139 -11.64313,9.48225 -25.16524,14.79827 -39.99867,15.72483 -2.07156,0.12956 -5.7831,0.15281 -7.73025,0.0485 z m 70.80191,-52.24445 c 0.002,-0.1171 0.0553,-0.37234 0.11776,-0.56735 0.0913,-0.28507 0.11441,-0.29896 0.11777,-0.0709 0.002,0.15619 -0.0507,0.41132 -0.11777,0.56736 -0.0747,0.17381 -0.12029,0.20131 -0.11776,0.0709 z m 0.27075,-1.21747 c 0.007,-0.16545 0.0404,-0.19882 0.0858,-0.0858 0.0409,0.10243 0.0358,0.22475 -0.0118,0.27187 -0.0472,0.0472 -0.0807,-0.0367 -0.0745,-0.1862 z m 0.14187,-0.56735 c 0.007,-0.16545 0.0404,-0.19884 0.0858,-0.0858 0.0409,0.10242 0.0358,0.22469 -0.0118,0.27182 -0.0472,0.0472 -0.0807,-0.0367 -0.0745,-0.18614 z m 0.14186,-0.56734 c 0.007,-0.16546 0.0404,-0.19884 0.0858,-0.0858 0.041,0.10243 0.0358,0.22475 -0.0118,0.27187 -0.0472,0.0472 -0.0807,-0.0367 -0.0745,-0.18614 z m 0.14186,-0.70923 c 0.007,-0.16546 0.0404,-0.19883 0.0858,-0.0858 0.0409,0.10242 0.0358,0.22474 -0.0118,0.27186 -0.0472,0.0472 -0.0807,-0.0367 -0.0745,-0.18618 z m -13.72118,-1.26182 c -2.62021,-0.47547 -4.80901,-1.59772 -6.76613,-3.46927 -1.22492,-1.17128 -2.06842,-2.34482 -2.7858,-3.87564 -0.93111,-1.98696 -1.1312,-3.09205 -1.27737,-7.05463 -0.2,-5.42322 -0.73123,-9.45323 -1.84178,-13.97226 -5.64301,-22.96252 -23.30249,-40.39202 -44.96408,-44.37853 -9.856,-1.81387 -19.80965,-0.84121 -29.14796,2.84818 -16.27493,6.43002 -29.08941,20.87528 -34.32626,38.69464 -0.3439,1.17016 -0.62794,2.03811 -0.63119,1.9287 -0.01,-0.35357 0.97494,-3.7704 1.70627,-5.91592 2.79809,-8.20895 6.97034,-15.60676 12.63034,-22.39488 1.52714,-1.83153 5.31277,-5.696 7.21702,-7.3673 15.1408,-13.28861 34.85532,-19.33052 54.82088,-16.80094 13.74444,1.74138 26.57873,7.55593 37.09096,16.80405 1.63878,1.44175 5.27177,5.09828 6.61209,6.65497 10.09284,11.72229 15.85088,25.96345 16.80426,41.56141 0.34201,5.59556 -0.12334,8.09256 -2.06143,11.06093 -2.81421,4.31039 -8.06064,6.58729 -13.07982,5.67649 z M 189.26817,203.74116 c 0.007,-0.16546 0.0404,-0.19884 0.0857,-0.0858 0.041,0.10243 0.0358,0.22475 -0.0113,0.27188 -0.0472,0.0472 -0.0807,-0.0366 -0.0745,-0.1862 z m 0.14183,-0.56735 c 0.007,-0.16545 0.0404,-0.19883 0.0857,-0.0858 0.041,0.10243 0.036,0.2247 -0.0113,0.27187 -0.0472,0.0472 -0.0807,-0.0367 -0.0745,-0.1862 z m 0.14181,-0.56734 c 0.007,-0.16545 0.0404,-0.19883 0.0857,-0.0858 0.0409,0.10242 0.0358,0.22469 -0.0113,0.27182 -0.0472,0.0472 -0.0807,-0.0367 -0.0745,-0.18614 z"
         id="path844"
         inkscape:connector-curvature="0" />
    </g>
  </g>
</svg>
