<?xml version="1.0" encoding="UTF-8" standalone="no"?>
<!-- Created with Inkscape (http://www.inkscape.org/) -->

<svg
   xmlns:dc="http://purl.org/dc/elements/1.1/"
   xmlns:cc="http://creativecommons.org/ns#"
   xmlns:rdf="http://www.w3.org/1999/02/22-rdf-syntax-ns#"
   xmlns:svg="http://www.w3.org/2000/svg"
   xmlns="http://www.w3.org/2000/svg"
   xmlns:sodipodi="http://sodipodi.sourceforge.net/DTD/sodipodi-0.dtd"
   xmlns:inkscape="http://www.inkscape.org/namespaces/inkscape"
   id="svg2"
   version="1.1"
   inkscape:version="0.92.2 2405546, 2018-03-11"
   width="512"
   height="512"
   sodipodi:docname="deluge-torrent.svg">
  <metadata
     id="metadata8">
    <rdf:RDF>
      <cc:Work
         rdf:about="">
        <dc:format>image/svg+xml</dc:format>
        <dc:type
           rdf:resource="http://purl.org/dc/dcmitype/StillImage" />
        <dc:title></dc:title>
      </cc:Work>
    </rdf:RDF>
  </metadata>
  <defs
     id="defs6" />
  <sodipodi:namedview
     pagecolor="#ffffff"
     bordercolor="#666666"
     borderopacity="1"
     objecttolerance="10"
     gridtolerance="10"
     guidetolerance="10"
     inkscape:pageopacity="0"
     inkscape:pageshadow="2"
     inkscape:window-width="1366"
     inkscape:window-height="742"
     id="namedview4"
     showgrid="false"
     inkscape:zoom="0.19304015"
     inkscape:cx="-115.91039"
     inkscape:cy="350.81824"
     inkscape:window-x="0"
     inkscape:window-y="0"
     inkscape:window-maximized="1"
     inkscape:current-layer="svg2" />
  <g
     id="g870">
    <path
       style="fill:#3689e6;fill-opacity:1;stroke-width:11.10955811"
       inkscape:connector-curvature="0"
       d="m 432.91333,56.470316 c 102.19279,88.579994 105.82669,249.699994 8.1168,359.899994 -97.71,110.2 -259.75064,127.73 -361.943448,39.16 -102.19285,-88.58 -105.82671,-249.7 -8.1168,-359.899994 97.709878,-110.2 259.750448,-127.73 361.943448,-39.16 z"
       id="path911" />
    <path
       style="opacity:1;fill:#000000;fill-opacity:0.49019608;stroke-width:11.10955238"
       inkscape:connector-curvature="0"
       d="m 511.63503,224.90031 c -1.5514,61.32 -25.1612,124.16 -70.9663,175.82 -97.7099,110.2 -259.75019,127.73 -361.942998,39.15 -47.89861,-41.51 -74.2288806,-98.95 -78.53187056,-159.64 0.60525,66.36 26.92355056,130.25 78.88477056,175.29 102.192818,88.57 264.240798,71.04 361.942998,-39.15 49.7049,-56.06 73.0049,-125.3 70.6134,-191.47 z"
       id="path913" />
    <path
       sodipodi:nodetypes="ccccsccccssccccc"
       id="path864"
       d="m 280.86744,120.00198 c -1.9537,5.1943 -4.153,10.45274 -6.399,15.47653 -0.1876,0.43596 -0.4827,0.80407 -0.6743,1.23541 -2.0722,4.57836 -4.1255,8.87073 -6.399,13.31403 -0.4719,0.9184 -0.8676,1.87223 -1.3473,2.78099 -2.0544,3.92558 -4.2199,7.94089 -6.399,11.76148 -0.7572,1.33182 -1.5879,2.71395 -2.358,4.025 -19.4915,32.63589 -45.10574,66.72374 -65.33727,95.33308 C 175.92296,285.45288 166.70444,308.68489 164,331.0967 164,386.75603 216.27008,432 280.86614,432 c 64.596,0 116.8661,-45.24397 116.8661,-100.9033 0,-35.06856 -27.979,-71.10336 -60.2855,-117.31015 -10.2258,-14.35263 -20.0941,-29.44853 -28.9639,-43.64469 -4.8142,-7.77373 -9.5212,-15.77734 -14.1452,-24.14063 -1.4444,-2.61076 -2.9618,-5.37493 -4.3783,-8.04697 -3.0615,-5.79018 -6.1974,-11.86499 -9.0932,-17.95426 z"
       style="fill:#000000;fill-opacity:0.49019608;fill-rule:nonzero;stroke:none;stroke-width:0.69333333"
       inkscape:connector-curvature="0" />
    <path
       inkscape:connector-curvature="0"
       style="fill:#ffffff;fill-opacity:1;fill-rule:nonzero;stroke:none;stroke-width:0.69333333"
       d="m 260.86744,100.00198 c -1.9537,5.1943 -4.153,10.45274 -6.399,15.47653 -0.1876,0.43596 -0.4827,0.80407 -0.6743,1.23541 -2.0722,4.57836 -4.1255,8.87073 -6.399,13.31403 -0.4719,0.9184 -0.8676,1.87223 -1.3473,2.78099 -2.0544,3.92558 -4.2199,7.94089 -6.399,11.76148 -0.7572,1.33182 -1.5879,2.71395 -2.358,4.025 -19.4915,32.63589 -45.10574,66.72374 -65.33727,95.33308 C 155.92296,265.45288 146.70444,288.68489 144,311.0967 144,366.75603 196.27008,412 260.86614,412 c 64.596,0 116.8661,-45.24397 116.8661,-100.9033 0,-35.06856 -27.979,-71.10336 -60.2855,-117.31015 -10.2258,-14.35263 -20.0941,-29.44853 -28.9639,-43.64469 -4.8142,-7.77373 -9.5212,-15.77734 -14.1452,-24.14063 -1.4444,-2.61076 -2.9618,-5.37493 -4.3783,-8.04697 -3.0615,-5.79018 -6.1974,-11.86499 -9.0932,-17.954265 z"
       id="path895"
       sodipodi:nodetypes="ccccsccccssccccc" />
  </g>
</svg>
