<?xml version="1.0" encoding="UTF-8" standalone="no"?>
<svg
   xmlns:dc="http://purl.org/dc/elements/1.1/"
   xmlns:cc="http://creativecommons.org/ns#"
   xmlns:rdf="http://www.w3.org/1999/02/22-rdf-syntax-ns#"
   xmlns:svg="http://www.w3.org/2000/svg"
   xmlns="http://www.w3.org/2000/svg"
   xmlns:sodipodi="http://sodipodi.sourceforge.net/DTD/sodipodi-0.dtd"
   xmlns:inkscape="http://www.inkscape.org/namespaces/inkscape"
   height="512"
   width="512"
   version="1.1"
   id="svg2"
   inkscape:version="0.92.2 2405546, 2018-03-11"
   sodipodi:docname="designer.svg">
  <metadata
     id="metadata43">
    <rdf:RDF>
      <cc:Work
         rdf:about="">
        <dc:format>image/svg+xml</dc:format>
        <dc:type
           rdf:resource="http://purl.org/dc/dcmitype/StillImage" />
        <dc:title></dc:title>
      </cc:Work>
    </rdf:RDF>
  </metadata>
  <sodipodi:namedview
     pagecolor="#ffffff"
     bordercolor="#666666"
     borderopacity="1"
     objecttolerance="10"
     gridtolerance="10"
     guidetolerance="10"
     inkscape:pageopacity="0"
     inkscape:pageshadow="2"
     inkscape:window-width="1366"
     inkscape:window-height="742"
     id="namedview41"
     showgrid="false"
     inkscape:zoom="0.43457604"
     inkscape:cx="375.15888"
     inkscape:cy="7.721844"
     inkscape:window-x="0"
     inkscape:window-y="0"
     inkscape:window-maximized="1"
     inkscape:current-layer="svg2" />
  <defs
     id="defs4">
    <linearGradient
       id="linearGradient12443"
       y2="3"
       gradientUnits="userSpaceOnUse"
       x2="27.5"
       y1="0.5"
       x1="27.5"
       gradientTransform="matrix(2.402228,0,0,2.402228,6.3280064,6.9402887)">
      <stop
         stop-color="#fff"
         offset="0"
         id="stop7" />
      <stop
         stop-color="#fff"
         stop-opacity="0"
         offset="1"
         id="stop9" />
    </linearGradient>
    <filter
       id="filter4549"
       height="1.4594001"
       width="1.5025001"
       y="-0.22969"
       x="-0.25127"
       style="color-interpolation-filters:sRGB">
      <feGaussianBlur
         stdDeviation="2.8192388"
         id="feGaussianBlur12" />
    </filter>
    <clipPath
       id="clipPath4571"
       clipPathUnits="userSpaceOnUse">
      <path
         d="m 16.562,9.2812 c -0.74132,0.048211 -1.4937,0.22542 -2.125,0.5 -1.676,0.7268 -2.965,2.6818 -3.593,5.4688 -0.44683,1.9819 -0.41916,7.4073 0.03125,9.5 0.44637,2.0716 1.3217,3.7905 2.4062,4.875 l 0.407,0.375 2.5312,2.5312 c 0.30041,0.8334 0.62131,1.3713 1,1.75 l 0.343,0.313 13.407,13.406 h 15.031 c 1.108,0 2,-0.892 2,-2 v -16.031 l -19.094,-19.063 -0.031,-0.031 c -0.078,-0.045 -0.553,-0.117 -1.063,-0.156 l -0.90625,-0.0625 -0.34375,1.3125 c -0.17758,0.7241 -0.37237,1.5281 -0.4375,1.8125 -0.10143,0.4425 -0.18982,0.53125 -0.75,0.53125 H 24.7814 l -3.25,-3.25 c -0.843,-0.845 -1.941,-1.3838 -3.28,-1.6568 -0.31525,-0.064 -0.63979,-0.1093 -0.96875,-0.125 -0.24672,-0.01175 -0.47164,-0.01607 -0.71875,0 z"
         id="path15"
         inkscape:connector-curvature="0"
         style="opacity:0.35985;fill:#364e59" />
    </clipPath>
  </defs>
  <g
     id="g844">
    <path
       style="fill:#68b723;fill-opacity:1;stroke-width:11.10955238"
       inkscape:connector-curvature="0"
       d="M 432.91337,56.473967 C 535.10617,145.04856 538.74003,306.17367 441.03016,416.37276 343.3201,526.57184 181.27948,544.10061 79.086674,455.52602 -23.106167,366.95143 -26.740027,205.82631 70.969882,95.627227 168.67976,-14.571854 330.7203,-32.100623 432.91337,56.473967 Z"
       id="path911" />
    <path
       style="opacity:1;fill:#000000;fill-opacity:0.49019608;stroke-width:11.10955238"
       inkscape:connector-curvature="0"
       d="M 511.63501,224.90352 C 510.08361,286.21518 486.4738,349.05812 440.6687,400.71801 342.95883,510.9171 180.91853,528.44585 78.72572,439.87127 30.827116,398.35564 4.496841,340.92283 0.19385162,280.22879 0.79910241,346.58547 27.117407,410.48219 79.078624,455.51904 181.27144,544.09362 343.31942,526.5562 441.0216,416.36578 490.72649,360.30764 514.02655,291.07481 511.63501,224.90352 Z"
       id="path913" />
    <path
       style="fill:#000000;fill-opacity:0.49019608;stroke-width:4.40907192"
       inkscape:connector-curvature="0"
       id="path838"
       d="m 214.58864,120.07751 c -10.45268,-0.49783 -21.20548,1.41822 -30.1204,5.29578 -17.7515,7.70432 -31.4041,28.41091 -38.06621,57.91911 -4.73264,20.99146 -4.43957,78.45512 0.33112,100.62014 7.00624,32.5162 23.51019,56.60045 43.35988,63.21807 7.35058,2.45515 8.16357,3.66998 11.25358,13.57099 4.8054,15.40018 9.37567,22.60038 16.21784,27.47143 6.84399,4.87427 20.12931,8.18522 28.46489,6.9513 3.15663,-0.46604 7.98906,-0.65669 10.5916,-0.65669 4.49584,0 4.63385,-0.59315 4.63385,-12.90906 0,-11.51729 -0.51115,-13.23947 -3.97187,-13.23947 -7.3796,0 -13.39097,-4.17839 -16.88088,-11.91556 -1.92545,-4.26842 -3.09107,-8.26463 -2.64792,-8.60567 0.44633,-0.34964 4.75162,-3.00589 9.92963,-5.95776 25.70793,-14.71916 37.32796,-47.75753 37.40106,-106.91158 0.0952,-71.14906 -17.76424,-104.87163 -60.2397,-113.53131 -3.33899,-0.6779 -6.77639,-1.15769 -10.26062,-1.32396 z m 101.94405,14.56343 -3.64083,13.90149 c -1.88087,7.66936 -3.94401,16.185 -4.63385,19.19723 -1.07427,4.6868 -2.01049,5.62735 -7.94369,5.62735 h -6.95073 v 12.90795 12.90906 h 5.95776 5.9578 v 57.92224 c 0,21.64502 -0.0763,36.41815 0.66198,47.33175 9.38286,-8.55378 20.76056,-14.91828 33.42919,-18.20484 -0.16182,-7.76363 -0.33112,-17.4751 -0.33112,-33.42919 v -51.63403 h 11.91551 11.91556 v -11.5851 -11.58404 l -11.91551,-1.65548 -11.91556,-1.32391 v -18.5353 c 0,-10.29293 -0.83252,-19.02783 -1.65495,-19.52773 -0.82242,-0.47662 -5.85811,-1.24133 -11.25358,-1.65548 l -9.59864,-0.65668 z m -98.96572,14.56343 c 8.37287,0 18.92612,10.06626 22.83758,21.84518 6.91823,20.82943 8.06803,90.76044 1.98593,120.15105 -4.83529,23.3672 -17.58629,35.37492 -30.78127,28.79539 -6.07482,-3.02921 -13.34754,-13.68858 -15.88739,-23.1691 -8.30373,-31.00901 -7.79149,-107.7907 0.99297,-129.74704 3.98708,-9.9646 13.28608,-17.87332 20.85271,-17.87332 z m 141.8003,233.22699 c -10.64879,0 -19.27673,-8.61947 -19.27673,-19.27673 0,-10.65725 8.62772,-19.27668 19.27673,-19.27668 10.65196,0 19.27668,8.61943 19.27668,19.27668 0,10.65726 -8.62494,19.27673 -19.27668,19.27673 z m 68.84541,-5.50764 v -27.53818 h -15.33881 c -1.23648,-5.14962 -3.18066,-10.02385 -5.75547,-14.51259 l 10.66572,-10.65726 -19.46945,-19.46949 -10.44522,10.43698 c -4.53001,-2.75382 -9.47038,-4.84672 -14.73292,-6.19607 V 294.30926 H 345.5984 v 14.67785 c -5.25981,1.34935 -10.20291,3.44225 -14.72974,6.19607 l -10.44523,-10.43698 -19.46949,19.46949 10.66577,10.65726 c -2.57481,4.48874 -4.51904,9.36297 -5.75547,14.51259 H 290.5223 v 27.53818 h 15.81005 c 1.36042,4.9293 3.38171,9.55574 5.97305,13.82412 l -11.35102,11.34573 19.46949,19.4695 11.57448,-11.56606 c 4.21609,2.42336 8.77917,4.26842 13.60066,5.53519 V 432 h 27.53814 v -16.4678 c 4.82194,-1.26677 9.38775,-3.11183 13.60389,-5.53519 l 11.57447,11.56606 19.46949,-19.4695 -11.35102,-11.34573 c 2.59134,-4.26838 4.61264,-8.89482 5.97301,-13.82412 h 15.80697" />
    <path
       d="m 194.58864,100.07751 c -10.45268,-0.497832 -21.20548,1.41822 -30.1204,5.29578 -17.7515,7.70432 -31.4041,28.41091 -38.06621,57.91911 -4.73264,20.99146 -4.43957,78.45512 0.33112,100.62014 7.00624,32.5162 23.51019,56.60045 43.35988,63.21807 7.35058,2.45515 8.16357,3.66998 11.25358,13.57099 4.8054,15.40018 9.37567,22.60038 16.21784,27.47143 6.84399,4.87427 20.12931,8.18522 28.46489,6.9513 3.15663,-0.46604 7.98906,-0.65669 10.5916,-0.65669 4.49584,0 4.63385,-0.59315 4.63385,-12.90906 0,-11.51729 -0.51115,-13.23947 -3.97187,-13.23947 -7.3796,0 -13.39097,-4.17839 -16.88088,-11.91556 -1.92545,-4.26842 -3.09107,-8.26463 -2.64792,-8.60567 0.44633,-0.34964 4.75162,-3.00589 9.92963,-5.95776 25.70793,-14.71916 37.32796,-47.75753 37.40106,-106.91158 0.0952,-71.14906 -17.76424,-104.87163 -60.2397,-113.53131 -3.33899,-0.6779 -6.77639,-1.15769 -10.26062,-1.32396 z m 101.94405,14.56343 -3.64083,13.90149 c -1.88087,7.66936 -3.94401,16.185 -4.63385,19.19723 -1.07427,4.6868 -2.01049,5.62735 -7.94369,5.62735 h -6.95073 v 12.90795 12.90906 h 5.95776 5.9578 v 57.92224 c 0,21.64502 -0.0763,36.41815 0.66198,47.33175 9.38286,-8.55378 20.76056,-14.91828 33.42919,-18.20484 -0.16182,-7.76363 -0.33112,-17.4751 -0.33112,-33.42919 v -51.63403 h 11.91551 11.91556 v -11.5851 -11.58404 l -11.91551,-1.65548 -11.91556,-1.32391 v -18.5353 c 0,-10.29293 -0.83252,-19.02783 -1.65495,-19.52773 -0.82242,-0.47662 -5.85811,-1.24133 -11.25358,-1.65548 l -9.59864,-0.65668 z m -98.96572,14.56343 c 8.37287,0 18.92612,10.06626 22.83758,21.84518 6.91823,20.82943 8.06803,90.76044 1.98593,120.15105 -4.83529,23.3672 -17.58629,35.37492 -30.78127,28.79539 -6.07482,-3.02921 -13.34754,-13.68858 -15.88739,-23.1691 -8.30373,-31.00901 -7.79149,-107.7907 0.99297,-129.74704 3.98708,-9.9646 13.28608,-17.87332 20.85271,-17.87332 z m 141.8003,233.22699 c -10.64879,0 -19.27673,-8.61947 -19.27673,-19.27673 0,-10.65725 8.62772,-19.27668 19.27673,-19.27668 10.65196,0 19.27668,8.61943 19.27668,19.27668 0,10.65726 -8.62494,19.27673 -19.27668,19.27673 z m 68.84541,-5.50764 v -27.53818 h -15.33881 c -1.23648,-5.14962 -3.18066,-10.02385 -5.75547,-14.51259 l 10.66572,-10.65726 -19.46945,-19.46949 -10.44522,10.43698 c -4.53001,-2.75382 -9.47038,-4.84672 -14.73292,-6.19607 V 274.30926 H 325.5984 v 14.67785 c -5.25981,1.34935 -10.20291,3.44225 -14.72974,6.19607 l -10.44523,-10.43698 -19.46949,19.46949 10.66577,10.65726 c -2.57481,4.48874 -4.51904,9.36297 -5.75547,14.51259 H 270.5223 v 27.53818 h 15.81005 c 1.36042,4.9293 3.38171,9.55574 5.97305,13.82412 l -11.35102,11.34573 19.46949,19.4695 11.57448,-11.56606 c 4.21609,2.42336 8.77917,4.26842 13.60066,5.53519 V 412 h 27.53814 v -16.4678 c 4.82194,-1.26677 9.38775,-3.11183 13.60389,-5.53519 l 11.57447,11.56606 19.46949,-19.4695 -11.35102,-11.34573 c 2.59134,-4.26838 4.61264,-8.89482 5.97301,-13.82412 h 15.80697"
       id="path37"
       inkscape:connector-curvature="0"
       style="fill:#ffffff;stroke-width:4.40907192" />
  </g>
</svg>
