<?xml version="1.0" encoding="UTF-8" standalone="no"?>
<!-- Created with Inkscape (http://www.inkscape.org/) -->

<svg
   xmlns:dc="http://purl.org/dc/elements/1.1/"
   xmlns:cc="http://creativecommons.org/ns#"
   xmlns:rdf="http://www.w3.org/1999/02/22-rdf-syntax-ns#"
   xmlns:svg="http://www.w3.org/2000/svg"
   xmlns="http://www.w3.org/2000/svg"
   xmlns:sodipodi="http://sodipodi.sourceforge.net/DTD/sodipodi-0.dtd"
   xmlns:inkscape="http://www.inkscape.org/namespaces/inkscape"
   width="512"
   height="512"
   id="svg2"
   version="1.1"
   inkscape:version="0.92.2 2405546, 2018-03-11"
   sodipodi:docname="desktop-environment-xfce.svg"
   inkscape:export-filename="/home/uri/workspace/NitruxforAndroid/res/drawable-xhdpi/downloads.png"
   inkscape:export-xdpi="180"
   inkscape:export-ydpi="180">
  <defs
     id="defs4" />
  <sodipodi:namedview
     id="base"
     pagecolor="#ffffff"
     bordercolor="#666666"
     borderopacity="1.0"
     inkscape:pageopacity="0.0"
     inkscape:pageshadow="2"
     inkscape:zoom="0.55233163"
     inkscape:cx="615.97539"
     inkscape:cy="288.8101"
     inkscape:document-units="px"
     inkscape:current-layer="layer1"
     showgrid="false"
     inkscape:window-width="1366"
     inkscape:window-height="742"
     inkscape:window-x="0"
     inkscape:window-y="0"
     inkscape:window-maximized="1"
     showguides="true"
     inkscape:snap-global="false">
    <inkscape:grid
       type="xygrid"
       id="grid3850" />
  </sodipodi:namedview>
  <metadata
     id="metadata7">
    <rdf:RDF>
      <cc:Work
         rdf:about="">
        <dc:format>image/svg+xml</dc:format>
        <dc:type
           rdf:resource="http://purl.org/dc/dcmitype/StillImage" />
        <dc:title></dc:title>
      </cc:Work>
    </rdf:RDF>
  </metadata>
  <g
     inkscape:label="Capa 1"
     inkscape:groupmode="layer"
     id="layer1"
     transform="translate(0,-540.3622)">
    <g
       id="g852">
      <path
         style="fill:#3689e6;fill-opacity:1;stroke-width:11.10955238"
         inkscape:connector-curvature="0"
         d="m 432.91335,596.83621 c 102.1928,88.5746 105.82667,249.69972 8.11679,359.89878 C 343.32008,1066.934 181.27947,1084.4628 79.08667,995.88825 -23.10617,907.31366 -26.74003,746.18855 70.96988,635.98947 168.67975,525.79039 330.72028,508.26162 432.91335,596.83621 Z"
         id="path911" />
      <path
         style="opacity:1;fill:#000000;fill-opacity:0.49019608;stroke-width:11.10955238"
         inkscape:connector-curvature="0"
         d="m 511.63499,765.26576 c -1.5514,61.31165 -25.16121,124.15459 -70.96631,175.81448 C 342.95882,1051.2793 180.91853,1068.808 78.72572,980.2335 30.82712,938.71787 4.49684,881.28507 0.19385,820.59103 c 0.60525,66.35668 26.92356,130.25339 78.88477,175.29024 102.19281,88.57453 264.24078,71.03713 361.94296,-39.15326 49.70489,-56.05814 73.00496,-125.29097 70.61341,-191.46225 z"
         id="path913" />
      <path
         inkscape:connector-curvature="0"
         style="fill:#000000;fill-opacity:0.49019608;stroke:none;stroke-width:7.14275885"
         d="m 274.36931,660.37934 c -10.77296,0 -21.33422,1.16213 -31.49274,3.23996 -10.15838,2.07783 -19.84237,5.07993 -29.17711,9.02702 -9.33475,3.94637 -18.32804,8.74416 -26.6299,14.3498 -8.30185,5.60564 -15.865,11.92269 -22.92486,18.97974 -7.05978,7.05562 -13.61116,14.84694 -19.21984,23.14468 -5.60867,8.29846 -10.40876,17.28762 -14.35698,26.61749 -3.70718,8.7606 -6.50329,17.82047 -8.56788,27.31177 6.6815,1.26141 13.57833,2.3914 20.37766,3.4721 11.01089,1.74926 21.58816,3.0271 29.87179,3.00853 4.14304,0 7.9198,-0.44286 10.65196,-1.15713 2.74121,-0.70713 4.67471,-1.05927 5.7891,-2.31497 4.29428,-4.8385 9.44805,-10.95985 11.80978,-20.36758 0.17564,-0.69999 0.50764,-2.98353 0.46314,-3.7028 -0.11043,-0.72571 -0.3305,-1.78998 -0.69435,-3.24139 -0.86416,-3.44495 -2.15144,-8.10274 -3.01034,-13.19196 -0.85956,-5.09993 -1.40879,-10.427 -0.23121,-15.50836 1.15945,-5.0035 4.21232,-9.79986 9.49414,-12.72911 2.04547,-1.02213 4.50686,-1.41141 6.4838,-0.9257 2.04784,0.49999 3.83493,1.72641 5.55755,3.23996 3.44671,3.02781 6.38961,7.65918 9.031,12.4984 2.63161,4.82136 4.87545,9.93272 6.71537,14.11909 0.92359,2.1014 1.87437,3.6628 2.5472,5.09207 0.30013,0.64285 0.4987,1.26141 0.69434,1.61998 0.19336,0.35714 0.28379,0.56428 0.23122,0.45713 0.16964,0.27857 0.41277,0.52143 0.69434,0.69285 -0.16521,-0.1 0.58242,0.32143 1.15782,0.45714 0.87076,0.22142 1.47876,0.27857 2.31565,0.23571 0.42014,0 0.83252,-0.19285 1.15782,-0.46428 0.0823,-0.0786 0.15778,-0.15 0.23121,-0.23571 0.269,-0.32857 0.43349,-0.74142 0.46314,-1.15784 0.0371,-0.22857 0.0371,-0.47142 0,-0.69285 -0.35571,-1.24641 -1.27927,-3.41567 -2.31564,-7.1749 -1.19799,-4.34637 -2.25459,-9.75772 -3.01035,-15.27622 -0.75792,-5.5285 -0.9261,-11.11199 0.23121,-15.96978 1.13115,-4.74636 3.82293,-9.07988 8.56789,-10.87842 7.15522,-2.75211 13.48281,-0.81856 17.13575,3.47138 3.83931,4.50922 5.75984,11.07913 6.94693,18.05404 1.18213,6.94704 1.54536,14.26051 1.62095,19.90472 0.0371,2.81925 0.007,4.96422 0,6.71205 -8.9e-4,0.16429 5.9e-4,0.34286 0,0.45714 0.003,0.32142 0.083,0.64285 0.23121,0.9257 0.16964,0.27857 0.41271,0.52142 0.69435,0.69285 0.21414,0.11428 0.45199,0.19285 0.69434,0.23571 0.43421,0.0929 0.84112,0.32142 1.62095,0.45714 2.69089,0.49285 6.53723,0.90784 11.11509,1.61997 9.16024,1.42499 21.22745,3.69781 33.57682,6.94348 12.3519,3.24638 25.03282,7.67061 34.96622,14.11909 9.89917,6.42634 17.22097,14.96194 18.7567,26.15393 0.9725,6.94276 -4.10442,13.5441 -11.34664,19.90615 -7.23148,6.35206 -16.89538,12.68554 -27.09303,18.28475 -10.19372,5.59564 -20.73416,10.62629 -29.1771,14.58123 -4.22344,1.97783 -7.78663,3.71924 -10.65196,5.09136 -1.44949,0.69285 -2.73795,1.3407 -3.70503,1.85212 -0.96708,0.51428 -1.58242,0.80784 -2.08408,1.15712 -3.42226,2.38569 -4.96362,5.12779 -5.32598,8.10132 -0.3705,3.0371 0.31121,6.19563 1.62095,8.56346 0.0764,0.004 0.15414,0.004 0.23121,0 0.015,0 -0.015,0.20714 0,0.23571 0.015,0 0.21635,0 0.23121,0 0.0221,0 -0.007,0.22142 0,0.23571 0.40014,0.5857 0.86497,0.96856 1.62095,1.8514 0.91388,1.06713 2.17322,2.53997 3.47346,3.93495 2.58471,2.7721 5.63017,6.06777 8.56788,9.48987 2.94083,3.42495 5.75584,6.99704 7.64163,10.41485 1.91335,3.46924 3.15713,6.71634 2.08407,9.95344 -0.0371,0.1 -0.19492,-0.1 -0.23121,0 -0.31785,0.8057 -1.28712,1.4207 -1.85251,1.62 -0.78457,0.2714 -1.42858,0.4785 -2.31564,0.4571 -1.65667,0 -3.52333,-0.4 -5.78911,-0.9257 -4.49391,-1.0535 -10.07724,-2.9985 -15.74638,-4.8606 -5.66965,-1.8622 -11.39526,-3.70784 -15.74637,-4.86068 -1.57953,-0.42143 -2.69897,-0.52143 -3.70503,-0.69285 -1.09306,-0.15 -2.21931,0.75642 -2.31564,1.8514 -0.0371,0.4 0.0443,0.80642 0.23121,1.15784 0.27714,0.52139 0.60099,1.28359 1.38938,2.31429 2.31594,3.0271 5.96095,6.5256 9.49414,10.4155 3.54134,3.8993 6.8011,8.1299 8.56788,12.4984 1.69105,4.1807 1.48164,9.3335 -2.08408,13.1934 -0.15036,0.1286 -0.15778,0.1857 -0.23121,0.2357 -1.05712,0.6857 -1.46105,0.5 -2.54721,0.4572 -0.88898,0 -1.88616,0.01 -3.01034,-0.2357 -2.23332,-0.4786 -4.93376,-1.4536 -8.10475,-2.5464 -6.33085,-2.1807 -14.2903,-5.2771 -21.99861,-8.5635 -7.70824,-3.2857 -15.00959,-6.7227 -20.60922,-9.2577 -3.14587,-1.3243 -6.00267,-3.355 -9.49414,-3.4714 -0.73288,-0.079 -1.74551,0 -3.01033,0.2357 -2.53195,0.4143 -6.19147,0.82 -10.65196,1.3893 -8.39752,1.0714 -20.07674,2.315 -33.34526,3.0085 6.11307,5.7492 12.47246,11.2577 19.4514,15.9705 8.30186,5.6056 17.29515,10.4034 26.62989,14.3505 9.33476,3.9457 19.01874,6.9492 29.17711,9.0263 10.15852,2.0779 20.71978,3.2407 31.49275,3.2407 86.18645,0 156.07694,-69.85761 156.07694,-156 0,-86.1431 -69.89049,-156 -156.07435,-156 z m 70.85868,47.67935 c 1.29884,-0.0786 2.77633,2.09925 3.01034,3.47138 0.98857,15.20622 -1.56382,30.91672 -5.32598,45.59652 -0.20893,3.10638 -4.28768,6.82776 -6.4838,3.00924 -2.56255,-8.73774 0.48092,-18.03904 1.38939,-26.8482 1.89793,-8.01204 2.02968,-17.19548 6.25223,-24.30324 0.38157,-0.62856 0.7247,-0.9007 1.15782,-0.9257 z m 32.419,8.79488 c 2.44637,-0.29286 3.37432,2.14354 2.54721,4.16708 -6.17139,15.72907 -13.82405,31.23172 -23.85113,44.90153 -1.75869,3.40424 -6.92469,2.71282 -6.94692,-1.38855 0.69735,-11.32628 8.00412,-20.93972 13.43073,-30.55173 4.52369,-5.8742 7.79642,-13.9848 14.82011,-17.12833 z"
         id="path846"
         sodipodi:nodetypes="csssssscssssssssscsssssssssssssssssssssssssssssssssssssssssssssssssssssssssssssssssscssscsssssccccccsccscccc" />
      <path
         sodipodi:nodetypes="csssssscssssssssscsssssssssssssssssssssssssssssssssssssssssssssssssssssssssssssssssscssscsssssccccccsccscccc"
         id="path2831"
         d="m 254.36931,640.37934 c -10.77296,0 -21.33422,1.16213 -31.49274,3.23996 -10.15838,2.07783 -19.84237,5.07993 -29.17711,9.02702 -9.33475,3.94637 -18.32804,8.74416 -26.6299,14.3498 -8.30185,5.60564 -15.865,11.92269 -22.92486,18.97974 -7.05978,7.05562 -13.61116,14.84694 -19.21984,23.14468 -5.60867,8.29846 -10.40876,17.28762 -14.35698,26.61749 -3.70718,8.7606 -6.50329,17.82047 -8.56788,27.31177 6.6815,1.26141 13.57833,2.3914 20.37766,3.4721 11.01089,1.74926 21.58816,3.0271 29.87179,3.00853 4.14304,0 7.9198,-0.44286 10.65196,-1.15713 2.74121,-0.70713 4.67471,-1.05927 5.7891,-2.31497 4.29428,-4.8385 9.44805,-10.95985 11.80978,-20.36758 0.17564,-0.69999 0.50764,-2.98353 0.46314,-3.7028 -0.11043,-0.72571 -0.3305,-1.78998 -0.69435,-3.24139 -0.86416,-3.44495 -2.15144,-8.10274 -3.01034,-13.19196 -0.85956,-5.09993 -1.40879,-10.427 -0.23121,-15.50836 1.15945,-5.0035 4.21232,-9.79986 9.49414,-12.72911 2.04547,-1.02213 4.50686,-1.41141 6.4838,-0.9257 2.04784,0.49999 3.83493,1.72641 5.55755,3.23996 3.44671,3.02781 6.38961,7.65918 9.031,12.4984 2.63161,4.82136 4.87545,9.93272 6.71537,14.11909 0.92359,2.1014 1.87437,3.6628 2.5472,5.09207 0.30013,0.64285 0.4987,1.26141 0.69434,1.61998 0.19336,0.35714 0.28379,0.56428 0.23122,0.45713 0.16964,0.27857 0.41277,0.52143 0.69434,0.69285 -0.16521,-0.1 0.58242,0.32143 1.15782,0.45714 0.87076,0.22142 1.47876,0.27857 2.31565,0.23571 0.42014,0 0.83252,-0.19285 1.15782,-0.46428 0.0823,-0.0786 0.15778,-0.15 0.23121,-0.23571 0.269,-0.32857 0.43349,-0.74142 0.46314,-1.15784 0.0371,-0.22857 0.0371,-0.47142 0,-0.69285 -0.35571,-1.24641 -1.27927,-3.41567 -2.31564,-7.1749 -1.19799,-4.34637 -2.25459,-9.75772 -3.01035,-15.27622 -0.75792,-5.5285 -0.9261,-11.11199 0.23121,-15.96978 1.13115,-4.74636 3.82293,-9.07988 8.56789,-10.87842 7.15522,-2.75211 13.48281,-0.81856 17.13575,3.47138 3.83931,4.50922 5.75984,11.07913 6.94693,18.05404 1.18213,6.94704 1.54536,14.26051 1.62095,19.90472 0.0371,2.81925 0.007,4.96422 0,6.71205 -8.9e-4,0.16429 5.9e-4,0.34286 0,0.45714 0.003,0.32142 0.083,0.64285 0.23121,0.9257 0.16964,0.27857 0.41271,0.52142 0.69435,0.69285 0.21414,0.11428 0.45199,0.19285 0.69434,0.23571 0.43421,0.0929 0.84112,0.32142 1.62095,0.45714 2.69089,0.49285 6.53723,0.90784 11.11509,1.61997 9.16024,1.42499 21.22745,3.69781 33.57682,6.94348 12.3519,3.24638 25.03282,7.67061 34.96622,14.11909 9.89917,6.42634 17.22097,14.96194 18.7567,26.15393 0.9725,6.94276 -4.10442,13.5441 -11.34664,19.90615 -7.23148,6.35206 -16.89538,12.68554 -27.09303,18.28475 -10.19372,5.59564 -20.73416,10.62629 -29.1771,14.58123 -4.22344,1.97783 -7.78663,3.71924 -10.65196,5.09136 -1.44949,0.69285 -2.73795,1.3407 -3.70503,1.85212 -0.96708,0.51428 -1.58242,0.80784 -2.08408,1.15712 -3.42226,2.38569 -4.96362,5.12779 -5.32598,8.10132 -0.3705,3.0371 0.31121,6.19563 1.62095,8.56346 0.0764,0.004 0.15414,0.004 0.23121,0 0.015,0 -0.015,0.20714 0,0.23571 0.015,0 0.21635,0 0.23121,0 0.0221,0 -0.007,0.22142 0,0.23571 0.40014,0.5857 0.86497,0.96856 1.62095,1.8514 0.91388,1.06713 2.17322,2.53997 3.47346,3.93495 2.58471,2.7721 5.63017,6.06777 8.56788,9.48987 2.94083,3.42495 5.75584,6.99704 7.64163,10.41485 1.91335,3.46924 3.15713,6.71634 2.08407,9.95344 -0.0371,0.1 -0.19492,-0.1 -0.23121,0 -0.31785,0.8057 -1.28712,1.4207 -1.85251,1.62 -0.78457,0.2714 -1.42858,0.4785 -2.31564,0.4571 -1.65667,0 -3.52333,-0.4 -5.78911,-0.9257 -4.49391,-1.0535 -10.07724,-2.9985 -15.74638,-4.8606 -5.66965,-1.8622 -11.39526,-3.70784 -15.74637,-4.86068 -1.57953,-0.42143 -2.69897,-0.52143 -3.70503,-0.69285 -1.09306,-0.15 -2.21931,0.75642 -2.31564,1.8514 -0.0371,0.4 0.0443,0.80642 0.23121,1.15784 0.27714,0.52139 0.60099,1.28359 1.38938,2.31429 2.31594,3.0271 5.96095,6.5256 9.49414,10.4155 3.54134,3.8993 6.8011,8.1299 8.56788,12.4984 1.69105,4.1807 1.48164,9.3335 -2.08408,13.1934 -0.15036,0.1286 -0.15778,0.1857 -0.23121,0.2357 -1.05712,0.6857 -1.46105,0.5 -2.54721,0.4572 -0.88898,0 -1.88616,0.01 -3.01034,-0.2357 -2.23332,-0.4786 -4.93376,-1.4536 -8.10475,-2.5464 -6.33085,-2.1807 -14.2903,-5.2771 -21.99861,-8.5635 -7.70824,-3.2857 -15.00959,-6.7227 -20.60922,-9.2577 -3.14587,-1.3243 -6.00267,-3.355 -9.49414,-3.4714 -0.73288,-0.079 -1.74551,0 -3.01033,0.2357 -2.53195,0.4143 -6.19147,0.82 -10.65196,1.3893 -8.39752,1.0714 -20.07674,2.315 -33.34526,3.0085 6.11307,5.7492 12.47246,11.2577 19.4514,15.9705 8.30186,5.6056 17.29515,10.4034 26.62989,14.3505 9.33476,3.9457 19.01874,6.9492 29.17711,9.0263 10.15852,2.0779 20.71978,3.2407 31.49275,3.2407 86.18645,0 156.07694,-69.85761 156.07694,-156 0,-86.1431 -69.89049,-156 -156.07435,-156 z m 70.85868,47.67935 c 1.29884,-0.0786 2.77633,2.09925 3.01034,3.47138 0.98857,15.20622 -1.56382,30.91672 -5.32598,45.59652 -0.20893,3.10638 -4.28768,6.82776 -6.4838,3.00924 -2.56255,-8.73774 0.48092,-18.03904 1.38939,-26.8482 1.89793,-8.01204 2.02968,-17.19548 6.25223,-24.30324 0.38157,-0.62856 0.7247,-0.9007 1.15782,-0.9257 z m 32.419,8.79488 c 2.44637,-0.29286 3.37432,2.14354 2.54721,4.16708 -6.17139,15.72907 -13.82405,31.23172 -23.85113,44.90153 -1.75869,3.40424 -6.92469,2.71282 -6.94692,-1.38855 0.69735,-11.32628 8.00412,-20.93972 13.43073,-30.55173 4.52369,-5.8742 7.79642,-13.9848 14.82011,-17.12833 z"
         style="fill:#ffffff;fill-opacity:1;stroke:none;stroke-width:7.14275885"
         inkscape:connector-curvature="0" />
    </g>
  </g>
</svg>
