<?xml version="1.0" encoding="UTF-8" standalone="no"?>
<!-- Created with Inkscape (http://www.inkscape.org/) -->

<svg
   xmlns:dc="http://purl.org/dc/elements/1.1/"
   xmlns:cc="http://creativecommons.org/ns#"
   xmlns:rdf="http://www.w3.org/1999/02/22-rdf-syntax-ns#"
   xmlns:svg="http://www.w3.org/2000/svg"
   xmlns="http://www.w3.org/2000/svg"
   xmlns:xlink="http://www.w3.org/1999/xlink"
   xmlns:sodipodi="http://sodipodi.sourceforge.net/DTD/sodipodi-0.dtd"
   xmlns:inkscape="http://www.inkscape.org/namespaces/inkscape"
   width="512"
   height="512"
   id="svg5453"
   version="1.1"
   inkscape:version="0.92.2 2405546, 2018-03-11"
   sodipodi:docname="distributor-logo-gnome.svg">
  <defs
     id="defs5455">
    <linearGradient
       y2="-1004.7695"
       x2="-13.025376"
       y1="-1052.8632"
       x1="-13.025376"
       gradientTransform="translate(432.1173,504.8513)"
       gradientUnits="userSpaceOnUse"
       id="linearGradient4264"
       xlink:href="#linearGradient5020"
       inkscape:collect="always" />
    <linearGradient
       id="linearGradient5020"
       inkscape:collect="always">
      <stop
         id="stop5022"
         offset="0"
         style="stop-color:#10b5d4;stop-opacity:1" />
      <stop
         id="stop5024"
         offset="1"
         style="stop-color:#37d5f1;stop-opacity:1" />
    </linearGradient>
  </defs>
  <sodipodi:namedview
     id="base"
     pagecolor="#ffffff"
     bordercolor="#666666"
     borderopacity="1.0"
     inkscape:pageopacity="0"
     inkscape:pageshadow="2"
     inkscape:zoom="0.75995421"
     inkscape:cx="204.88414"
     inkscape:cy="266.2286"
     inkscape:document-units="px"
     inkscape:current-layer="layer1"
     showgrid="true"
     fit-margin-top="0"
     fit-margin-left="0"
     fit-margin-right="0"
     fit-margin-bottom="0"
     inkscape:window-width="1366"
     inkscape:window-height="712"
     inkscape:window-x="0"
     inkscape:window-y="27"
     inkscape:window-maximized="1">
    <inkscape:grid
       type="xygrid"
       id="grid3000"
       enabled="false" />
  </sodipodi:namedview>
  <metadata
     id="metadata5458">
    <rdf:RDF>
      <cc:Work
         rdf:about="">
        <dc:format>image/svg+xml</dc:format>
        <dc:type
           rdf:resource="http://purl.org/dc/dcmitype/StillImage" />
        <dc:title></dc:title>
      </cc:Work>
    </rdf:RDF>
  </metadata>
  <g
     inkscape:label="Capa 1"
     inkscape:groupmode="layer"
     id="layer1"
     transform="translate(-384.57143,-35.798)">
    <g
       transform="translate(2.8595243e-6,1.3323845e-6)"
       id="g854">
      <path
         style="fill:#3689e6;fill-opacity:1;stroke-width:11.10955238"
         inkscape:connector-curvature="0"
         d="m 817.48478,92.27201 c 102.1928,88.5746 105.82667,249.69972 8.11679,359.89878 C 727.89151,562.36981 565.8509,579.89861 463.6581,491.32405 361.46526,402.74946 357.8314,241.62435 455.54131,131.42527 553.25118,21.22619 715.29171,3.69742 817.48478,92.27201 Z"
         id="path911" />
      <path
         style="opacity:1;fill:#000000;fill-opacity:0.49019608;stroke-width:11.10955238"
         inkscape:connector-curvature="0"
         d="m 896.20642,260.70156 c -1.5514,61.31165 -25.16121,124.15459 -70.96631,175.81448 -97.70986,110.19907 -259.75015,127.72777 -361.94296,39.15326 -47.8986,-41.51563 -74.22888,-98.94843 -78.53187,-159.64247 0.60525,66.35668 26.92356,130.25339 78.88477,175.29024 102.19281,88.57454 264.24078,71.03714 361.94296,-39.15326 49.70489,-56.05814 73.00496,-125.29097 70.61341,-191.46225 z"
         id="path913" />
      <path
         inkscape:connector-curvature="0"
         id="path848"
         d="m 758.0567,155.89931 c -11.99001,0.53464 -25.7266,6.10602 -36.80881,15.18072 -13.57867,11.14796 -24.60868,39.40496 -21.65296,55.20384 1.52533,8.12185 7.65885,18.03029 13.53267,21.12525 10.93885,5.72259 30.87577,-3.84392 49.25986,-23.29564 19.8593,-21.07737 28.9793,-44.25132 22.19374,-57.37245 -4.17053,-8.08035 -14.53434,-11.60317 -26.5245,-10.84172 z m -97.97723,12.44919 c -16.68095,0 -25.50653,11.77165 -25.44234,34.14334 0.0233,15.30108 5.4256,29.07092 12.45012,32.46148 5.22332,2.52825 5.35395,2.2673 11.90927,0 10.8588,-3.83497 21.06028,-29.11567 18.94576,-46.0355 -1.72894,-13.82649 -7.68715,-20.57429 -17.86281,-20.56932 z m -66.04113,22.73854 c -3.12116,0.29918 -6.25117,2.47105 -9.2016,5.39615 -5.94803,6.00725 -6.02714,9.22709 -5.95456,20.56473 0.0545,13.40905 3.35809,20.76414 12.45028,30.3612 6.80056,7.11583 11.70458,7.57858 17.8632,0.71336 6.67134,-7.05211 8.74235,-18.14272 6.49532,-30.30368 -3.42701,-18.54517 -12.2884,-28.41026 -21.65264,-27.05672 z m -46.55258,40.58024 c -3.23827,0.34968 -6.15683,2.40088 -9.20199,5.45838 -7.99145,7.94871 -2.40219,29.98159 10.28408,41.07103 15.1434,13.32683 27.37121,0.74989 22.19467,-22.17943 -3.68346,-16.57791 -13.5615,-25.92583 -23.27676,-24.34998 z m 139.11797,29.25073 c -10.72344,-0.13365 -22.74072,0.46703 -35.18579,3.21581 -32.05873,6.53783 -57.71088,18.64518 -74.15994,35.19177 -9.4735,9.57398 -14.8932,18.37328 -19.48747,31.90332 -11.11905,32.91398 9.47374,79.58693 48.71824,111.5441 14.62159,11.87321 23.5436,17.18908 38.43353,22.17702 7.72079,2.55575 13.84343,3.16374 28.14836,2.71039 16.39872,-0.3629 19.73388,-0.85898 30.31333,-6.48662 15.50429,-7.68824 33.07756,-25.30176 40.5988,-40.58412 4.5882,-9.3295 5.32356,-13.33878 4.87161,-21.13588 -0.77398,-13.34339 -5.93544,-16.90382 -22.73474,-16.80016 -23.98328,0.14143 -34.05093,5.83178 -38.97477,22.74508 -3.71889,12.79755 -7.83028,17.34629 -16.23911,17.34629 -13.32775,0 -27.0665,-10.58397 -27.0665,-21.68801 0,-7.63858 12.39082,-19.11051 43.30561,-40.01211 43.5493,-29.49132 58.52206,-47.37193 56.29674,-67.09548 -2.29948,-20.46238 -24.66828,-32.46016 -56.8379,-33.0314 z"
         style="fill:#000000;fill-opacity:0.49019608;stroke:none;stroke-width:7.77083397" />
      <path
         style="fill:#ffffff;fill-opacity:1;stroke:none;stroke-width:7.77083397"
         d="m 738.0567,135.89931 c -11.99001,0.53464 -25.7266,6.10602 -36.80881,15.18072 -13.57867,11.14796 -24.60868,39.40496 -21.65296,55.20384 1.52533,8.12185 7.65885,18.03029 13.53267,21.12525 10.93885,5.72259 30.87577,-3.84392 49.25986,-23.29564 19.8593,-21.07737 28.9793,-44.25132 22.19374,-57.37245 -4.17053,-8.08035 -14.53434,-11.60317 -26.5245,-10.84172 z m -97.97723,12.44919 c -16.68095,0 -25.50653,11.77165 -25.44234,34.14334 0.0233,15.30108 5.4256,29.07092 12.45012,32.46148 5.22332,2.52825 5.35395,2.2673 11.90927,0 10.8588,-3.83497 21.06028,-29.11567 18.94576,-46.0355 -1.72894,-13.82649 -7.68715,-20.57429 -17.86281,-20.56932 z m -66.04113,22.73854 c -3.12116,0.29918 -6.25117,2.47105 -9.2016,5.39615 -5.94803,6.00725 -6.02714,9.22709 -5.95456,20.56473 0.0545,13.40905 3.35809,20.76414 12.45028,30.3612 6.80056,7.11583 11.70458,7.57858 17.8632,0.71336 6.67134,-7.05211 8.74235,-18.14272 6.49532,-30.30368 -3.42701,-18.54517 -12.2884,-28.41026 -21.65264,-27.05672 z m -46.55258,40.58024 c -3.23827,0.34968 -6.15683,2.40088 -9.20199,5.45838 -7.99145,7.94871 -2.40219,29.98159 10.28408,41.07103 15.1434,13.32683 27.37121,0.74989 22.19467,-22.17943 -3.68346,-16.57791 -13.5615,-25.92583 -23.27676,-24.34998 z m 139.11797,29.25073 c -10.72344,-0.13365 -22.74072,0.46703 -35.18579,3.21581 -32.05873,6.53783 -57.71088,18.64518 -74.15994,35.19177 -9.4735,9.57398 -14.8932,18.37328 -19.48747,31.90332 -11.11905,32.91398 9.47374,79.58693 48.71824,111.5441 14.62159,11.87321 23.5436,17.18908 38.43353,22.17702 7.72079,2.55575 13.84343,3.16374 28.14836,2.71039 16.39872,-0.3629 19.73388,-0.85898 30.31333,-6.48662 15.50429,-7.68824 33.07756,-25.30176 40.5988,-40.58412 4.5882,-9.3295 5.32356,-13.33878 4.87161,-21.13588 -0.77398,-13.34339 -5.93544,-16.90382 -22.73474,-16.80016 -23.98328,0.14143 -34.05093,5.83178 -38.97477,22.74508 -3.71889,12.79755 -7.83028,17.34629 -16.23911,17.34629 -13.32775,0 -27.0665,-10.58397 -27.0665,-21.68801 0,-7.63858 12.39082,-19.11051 43.30561,-40.01211 43.5493,-29.49132 58.52206,-47.37193 56.29674,-67.09548 -2.29948,-20.46238 -24.66828,-32.46016 -56.8379,-33.0314 z"
         id="path4909-2"
         inkscape:connector-curvature="0" />
    </g>
  </g>
</svg>
