<?xml version="1.0" encoding="UTF-8" standalone="no"?>
<!-- Created with Inkscape (http://www.inkscape.org/) -->

<svg
   xmlns:dc="http://purl.org/dc/elements/1.1/"
   xmlns:cc="http://creativecommons.org/ns#"
   xmlns:rdf="http://www.w3.org/1999/02/22-rdf-syntax-ns#"
   xmlns:svg="http://www.w3.org/2000/svg"
   xmlns="http://www.w3.org/2000/svg"
   xmlns:sodipodi="http://sodipodi.sourceforge.net/DTD/sodipodi-0.dtd"
   xmlns:inkscape="http://www.inkscape.org/namespaces/inkscape"
   width="512"
   height="512"
   id="svg4429"
   sodipodi:version="0.32"
   inkscape:version="0.92.2 2405546, 2018-03-11"
   sodipodi:docname="dolphin-emu.svg"
   inkscape:output_extension="org.inkscape.output.svg.inkscape"
   version="1.0"
   inkscape:export-filename="C:\Users\Gregor\Desktop\delphin.png"
   inkscape:export-xdpi="11.427757"
   inkscape:export-ydpi="11.427757">
  <defs
     id="defs4431">
    <inkscape:perspective
       sodipodi:type="inkscape:persp3d"
       inkscape:vp_x="0 : 372.04724 : 1"
       inkscape:vp_y="0 : 1000 : 0"
       inkscape:vp_z="1052.3622 : 372.04724 : 1"
       inkscape:persp3d-origin="526.18109 : 248.03149 : 1"
       id="perspective4438" />
  </defs>
  <sodipodi:namedview
     inkscape:document-units="mm"
     pagecolor="#ffffff"
     bordercolor="#666666"
     borderopacity="1.0"
     inkscape:pageopacity="0.0"
     inkscape:pageshadow="2"
     inkscape:zoom="0.18060641"
     inkscape:cx="-241.94548"
     inkscape:cy="771.35108"
     inkscape:current-layer="layer1"
     id="namedview4433"
     showgrid="false"
     inkscape:window-width="1366"
     inkscape:window-height="712"
     inkscape:window-x="0"
     inkscape:window-y="27"
     units="px"
     inkscape:window-maximized="1" />
  <metadata
     id="metadata4435">
    <rdf:RDF>
      <cc:Work
         rdf:about="">
        <dc:format>image/svg+xml</dc:format>
        <dc:type
           rdf:resource="http://purl.org/dc/dcmitype/StillImage" />
        <dc:title>delfin</dc:title>
        <dc:date>2009</dc:date>
        <dc:creator>
          <cc:Agent>
            <dc:title>SKV MeriDian e.V.</dc:title>
          </cc:Agent>
        </dc:creator>
        <dc:rights>
          <cc:Agent>
            <dc:title>GNU/GPL</dc:title>
          </cc:Agent>
        </dc:rights>
        <dc:subject>
          <rdf:Bag>
            <rdf:li>delfin</rdf:li>
            <rdf:li>dolphin</rdf:li>
            <rdf:li>delphin</rdf:li>
          </rdf:Bag>
        </dc:subject>
        <cc:license
           rdf:resource="http://creativecommons.org/publicdomain/zero/1.0/" />
      </cc:Work>
      <cc:License
         rdf:about="http://creativecommons.org/publicdomain/zero/1.0/">
        <cc:permits
           rdf:resource="http://creativecommons.org/ns#Reproduction" />
        <cc:permits
           rdf:resource="http://creativecommons.org/ns#Distribution" />
        <cc:permits
           rdf:resource="http://creativecommons.org/ns#DerivativeWorks" />
      </cc:License>
    </rdf:RDF>
  </metadata>
  <g
     inkscape:label="Layer 1"
     inkscape:groupmode="layer"
     id="layer1"
     transform="translate(-174.93103,-199.31883)">
    <g
       id="g979">
      <path
         id="path1165"
         d="m 607.84431,255.79285 c 102.1929,88.57368 105.82677,249.70008 8.11679,359.89878 -97.70999,110.1987 -259.75045,127.7277 -361.94333,39.15404 C 151.82482,566.26966 148.191,405.14559 245.90097,294.94456 343.61091,184.74587 505.65137,167.21685 607.84431,255.79285 Z"
         inkscape:connector-curvature="0"
         style="fill:#3689e6;fill-opacity:1;stroke-width:11.10955906" />
      <path
         id="path1167"
         d="m 686.56655,424.22224 c -1.55136,61.312 -25.16124,124.15535 -70.96639,175.81382 -97.71001,110.19867 -259.75045,127.72767 -361.94337,39.15404 -47.89863,-41.51622 -74.22894,-98.94866 -78.53193,-159.64393 0.60525,66.35753 26.92358,130.25513 78.88486,175.29019 102.19288,88.57597 264.24104,71.03767 361.94335,-39.15171 49.70493,-56.05935 73.00501,-125.29106 70.61348,-191.46241 z"
         inkscape:connector-curvature="0"
         style="opacity:1;fill:#000000;fill-opacity:0.49019608;stroke-width:11.10955906" />
      <path
         style="display:inline;fill:#000000;fill-opacity:0.49019608;stroke:none;stroke-width:0.4245446"
         d="m 370.70933,336.69061 c -22.69024,0.25273 -37.65538,3.69391 -47.4738,8.47683 -10.74225,5.80651 -16.29392,18.28589 -13.31433,25.54778 8.05292,-0.80522 20.44345,-1.69115 30.66087,1.40922 -12.58051,-0.98458 -25.83062,-0.28694 -34.2709,5.15021 0.0221,0.0636 0.0666,0.20665 0.0743,0.22673 -0.74231,0.59904 -9.69398,6.24945 -9.80201,8.21101 0.17728,1.01043 0.58928,1.53494 0.79158,1.74932 -0.70688,0.0637 -2.96563,0.39616 -2.33372,4.1319 0.68961,4.07671 3.09585,4.90028 4.14753,5.56456 6.37437,3.69286 36.41647,0.48387 50.3587,11.62757 -11.28324,24.33284 -4.0822,47.90106 20.42689,59.76393 0.73052,-3.98046 -2.648,-25.64519 11.50441,-37.91806 -5.52342,-8.25655 -4.65596,-9.63665 -4.62248,-9.6261 4.90967,4.29181 42.16923,23.72503 64.15579,33.54576 11.54394,5.1824 36.35913,20.2776 43.85204,23.47791 7.49548,3.19035 11.83034,4.84045 17.98567,11.44578 7.56682,8.13157 31.23013,44.10315 39.18264,69.76532 -20.0065,1.57567 -46.26689,29.01681 -44.35435,48.85175 0.0952,0.10467 11.886,-8.34822 19.97539,-8.69379 8.62984,0.34894 17.02582,2.12021 26.28073,1.18054 9.25487,-0.93965 21.53203,-1.97745 26.71268,-1.18445 20.13056,1.94622 26.45935,8.44132 36.28407,14.4245 -1.08512,-15.71579 -0.68244,-21.53635 -14.34241,-35.71334 -16.37308,-17.15143 -30.9138,-14.70866 -32.33394,-26.69314 -0.52159,-3.80995 -1.99879,-94.80714 -53.01687,-152.6925 -21.45872,-23.76118 -3.42653,-28.7454 -3.29536,-28.7454 0.13376,0 -3.94404,-9.05009 -10.17142,-11.39301 -5.96242,-2.43513 -19.91029,-0.32546 -31.6088,1.55386 -4.8255,-2.53982 -39.83012,-23.56746 -91.45288,-23.44469 z m -47.4738,8.47683 c -0.84452,0.4114 -1.65967,0.83054 -2.42949,1.26068 0.78463,-0.43349 1.58765,-0.85636 2.42949,-1.26068 z m -3.27385,1.74932 c -0.32613,0.19169 -0.64533,0.38566 -0.95772,0.58049 0.31582,-0.19485 0.63137,-0.39076 0.95772,-0.58049 z m 44.66512,15.71448 c 0.95687,-0.0203 1.85393,0.18622 2.4334,0.43977 1.39492,0.61037 3.64989,1.56206 1.80209,3.05104 -2.03465,1.56278 -6.40586,2.88027 -8.69966,1.84118 -0.0383,-4.14525 2.35906,-5.28737 4.46417,-5.33199 z m 39.16114,36.08471 c 6.37306,-0.0493 16.87026,3.49848 18.79485,4.31366 16.78566,7.10976 21.29657,12.70913 22.72934,17.10026 5.37335,16.46828 23.99587,26.44101 23.99588,26.44101 -24.01278,3.81254 -55.9152,-31.03286 -70.46309,-44.96417 9.3e-4,-2.1035 2.04619,-2.86837 4.94302,-2.89076 z"
         id="path168"
         inkscape:connector-curvature="0" />
      <path
         inkscape:connector-curvature="0"
         id="body"
         d="m 350.70933,316.69061 c -22.69024,0.25273 -37.65538,3.69391 -47.4738,8.47683 -10.74225,5.80651 -16.29392,18.28589 -13.31433,25.54778 8.05292,-0.80522 20.44345,-1.69115 30.66087,1.40922 -12.58051,-0.98458 -25.83062,-0.28694 -34.2709,5.15021 0.0221,0.0636 0.0666,0.20665 0.0743,0.22673 -0.74231,0.59904 -9.69398,6.24945 -9.80201,8.21101 0.17728,1.01043 0.58928,1.53494 0.79158,1.74932 -0.70688,0.0637 -2.96563,0.39616 -2.33372,4.1319 0.68961,4.07671 3.09585,4.90028 4.14753,5.56456 6.37437,3.69286 36.41647,0.48387 50.3587,11.62757 -11.28324,24.33284 -4.0822,47.90106 20.42689,59.76393 0.73052,-3.98046 -2.648,-25.64519 11.50441,-37.91806 -5.52342,-8.25655 -4.65596,-9.63665 -4.62248,-9.6261 4.90967,4.29181 42.16923,23.72503 64.15579,33.54576 11.54394,5.1824 36.35913,20.2776 43.85204,23.47791 7.49548,3.19035 11.83034,4.84045 17.98567,11.44578 7.56682,8.13157 31.23013,44.10315 39.18264,69.76532 -20.0065,1.57567 -46.26689,29.01681 -44.35435,48.85175 0.0952,0.10467 11.886,-8.34822 19.97539,-8.69379 8.62984,0.34894 17.02582,2.12021 26.28073,1.18054 9.25487,-0.93965 21.53203,-1.97745 26.71268,-1.18445 20.13056,1.94622 26.45935,8.44132 36.28407,14.4245 -1.08512,-15.71579 -0.68244,-21.53635 -14.34241,-35.71334 -16.37308,-17.15143 -30.9138,-14.70866 -32.33394,-26.69314 -0.52159,-3.80995 -1.99879,-94.80714 -53.01687,-152.6925 -21.45872,-23.76118 -3.42653,-28.7454 -3.29536,-28.7454 0.13376,0 -3.94404,-9.05009 -10.17142,-11.39301 -5.96242,-2.43513 -19.91029,-0.32546 -31.6088,1.55386 -4.8255,-2.53982 -39.83012,-23.56746 -91.45288,-23.44469 z m -47.4738,8.47683 c -0.84452,0.4114 -1.65967,0.83054 -2.42949,1.26068 0.78463,-0.43349 1.58765,-0.85636 2.42949,-1.26068 z m -3.27385,1.74932 c -0.32613,0.19169 -0.64533,0.38566 -0.95772,0.58049 0.31582,-0.19485 0.63137,-0.39076 0.95772,-0.58049 z m 44.66512,15.71448 c 0.95687,-0.0203 1.85393,0.18622 2.4334,0.43977 1.39492,0.61037 3.64989,1.56206 1.80209,3.05104 -2.03465,1.56278 -6.40586,2.88027 -8.69966,1.84118 -0.0383,-4.14525 2.35906,-5.28737 4.46417,-5.33199 z m 39.16114,36.08471 c 6.37306,-0.0493 16.87026,3.49848 18.79485,4.31366 16.78566,7.10976 21.29657,12.70913 22.72934,17.10026 5.37335,16.46828 23.99587,26.44101 23.99588,26.44101 -24.01278,3.81254 -55.9152,-31.03286 -70.46309,-44.96417 9.3e-4,-2.1035 2.04619,-2.86837 4.94302,-2.89076 z"
         style="display:inline;fill:#ffffff;fill-opacity:1;stroke:none;stroke-width:0.4245446" />
    </g>
  </g>
</svg>
