<?xml version="1.0" encoding="UTF-8" standalone="no"?>
<!-- Created with Inkscape (http://www.inkscape.org/) -->

<svg
   xmlns:dc="http://purl.org/dc/elements/1.1/"
   xmlns:cc="http://creativecommons.org/ns#"
   xmlns:rdf="http://www.w3.org/1999/02/22-rdf-syntax-ns#"
   xmlns:svg="http://www.w3.org/2000/svg"
   xmlns="http://www.w3.org/2000/svg"
   xmlns:sodipodi="http://sodipodi.sourceforge.net/DTD/sodipodi-0.dtd"
   xmlns:inkscape="http://www.inkscape.org/namespaces/inkscape"
   id="svg2"
   version="1.1"
   inkscape:version="0.92.2 2405546, 2018-03-11"
   width="512"
   height="512"
   sodipodi:docname="dropbox.svg">
  <metadata
     id="metadata8">
    <rdf:RDF>
      <cc:Work
         rdf:about="">
        <dc:format>image/svg+xml</dc:format>
        <dc:type
           rdf:resource="http://purl.org/dc/dcmitype/StillImage" />
        <dc:title></dc:title>
      </cc:Work>
    </rdf:RDF>
  </metadata>
  <defs
     id="defs6" />
  <sodipodi:namedview
     pagecolor="#ffffff"
     bordercolor="#666666"
     borderopacity="1"
     objecttolerance="10"
     gridtolerance="10"
     guidetolerance="10"
     inkscape:pageopacity="0"
     inkscape:pageshadow="2"
     inkscape:window-width="1151"
     inkscape:window-height="591"
     id="namedview4"
     showgrid="false"
     inkscape:zoom="0.4609375"
     inkscape:cx="256"
     inkscape:cy="256"
     inkscape:window-x="15"
     inkscape:window-y="39"
     inkscape:window-maximized="0"
     inkscape:current-layer="svg2" />
  <g
     id="g836">
    <path
       id="path27"
       d="M 432.91327,56.473967 C 535.10618,145.04856 538.74005,306.17367 441.03007,416.37276 343.3201,526.57184 181.27964,544.10061 79.086729,455.52602 -23.106186,366.95143 -26.740042,205.82631 70.969928,95.627227 168.6799,-14.571854 330.72036,-32.100623 432.91327,56.473967 Z"
       inkscape:connector-curvature="0"
       style="fill:#3689e6;fill-opacity:1;stroke-width:11.10955811" />
    <path
       id="path51"
       d="M 511.63551,224.90351 C 510.08412,286.21516 486.47428,349.05812 440.66913,400.71799 342.95915,510.91711 180.91869,528.44584 78.725776,439.87129 30.827124,398.35563 4.4968216,340.92284 0.19382768,280.2288 0.79907934,346.58548 27.117411,410.48217 79.078682,455.51906 181.27159,544.09361 343.31975,526.55619 441.02202,416.36576 490.72697,360.30766 514.02704,291.0748 511.63551,224.90351 Z"
       inkscape:connector-curvature="0"
       style="opacity:1;fill:#000000;fill-opacity:0.49019608;stroke-width:11.10955811" />
    <path
       inkscape:connector-curvature="0"
       id="path25"
       d="m 229.98544,394.26852 -45.69721,-27.7311 -0.1771,-8.40786 c -0.0974,-4.62431 0.0649,-8.40785 0.36063,-8.40785 0.29574,0 6.2166,3.57009 13.15747,7.93354 6.94087,4.36345 13.06528,7.93354 13.60981,7.93354 0.54454,0 15.26712,-11.98598 32.71684,-26.63554 C 261.4056,324.3037 275.82546,312.31772 276,312.31772 c 0.17453,0 14.59439,11.98598 32.04412,26.63553 17.44972,14.64956 32.1723,26.63554 32.71683,26.63554 0.54453,0 6.66895,-3.57009 13.60982,-7.93354 6.94085,-4.36345 12.86172,-7.93354 13.15747,-7.93354 0.29574,0 0.45802,3.78116 0.36062,8.40258 l -0.17709,8.40257 -45.69722,27.73676 C 296.88109,409.51884 276.17453,422.00021 276,422 c -0.17454,-2.1e-4 -20.88109,-12.47938 -46.01456,-27.73148 z m -64.55687,-71.424 c -24.68492,-16.11077 -44.89166,-29.46996 -44.90386,-29.6871 -0.0295,-0.52441 61.33029,-49.7452 62.01347,-49.7452 0.79209,0 90.90784,55.78258 90.91604,56.27797 0.011,0.66323 -61.78931,52.57807 -62.50693,52.50844 -0.35037,-0.034 -20.8338,-13.24334 -45.51872,-29.35411 z m 144.05098,3.34929 c -17.01744,-14.3475 -30.93765,-26.27605 -30.93377,-26.50791 0.008,-0.49259 90.12842,-56.27368 90.91603,-56.27368 0.68269,0 62.0427,49.2204 62.01424,49.7452 -0.0239,0.43998 -89.3265,58.68774 -90.38576,58.95421 -0.36845,0.0927 -14.59328,-11.57033 -31.61074,-25.91782 z M 151.20498,215.11401 c -17.06089,-13.64409 -31.10296,-25.0323 -31.20461,-25.30714 -0.20735,-0.56056 87.49421,-58.37972 89.24715,-58.83813 0.77313,-0.20217 10.82676,7.77741 32.50785,25.80154 17.2637,14.35183 31.47142,26.3283 31.5727,26.6144 0.15964,0.45093 -89.88808,56.53678 -90.7717,56.53678 -0.18238,0 -14.29051,-11.16335 -31.35139,-24.80745 z M 323.9186,212.009 c -24.78439,-15.33391 -45.06252,-28.16191 -45.06252,-28.5067 0,-0.34478 14.12485,-12.37172 31.38856,-26.72656 21.6824,-18.029 31.73467,-26.00918 32.50783,-25.807 1.75295,0.45841 89.4545,58.27757 89.24716,58.83813 -0.23548,0.63666 -62.0885,50.12017 -62.62145,50.09828 -0.21838,-0.009 -20.67518,-12.56224 -45.45958,-27.89615 z"
       style="fill:#000000;fill-opacity:0.49019608;stroke-width:0.69333333" />
    <path
       style="fill:#ffffff;fill-opacity:1;stroke-width:0.69333333"
       d="m 209.98544,374.26852 -45.69721,-27.7311 -0.1771,-8.40786 c -0.0974,-4.62431 0.0649,-8.40785 0.36063,-8.40785 0.29574,0 6.2166,3.57009 13.15747,7.93354 6.94087,4.36345 13.06528,7.93354 13.60981,7.93354 0.54454,0 15.26712,-11.98598 32.71684,-26.63554 C 241.4056,304.3037 255.82546,292.31772 256,292.31772 c 0.17453,0 14.59439,11.98598 32.04412,26.63553 17.44972,14.64956 32.1723,26.63554 32.71683,26.63554 0.54453,0 6.66895,-3.57009 13.60982,-7.93354 6.94085,-4.36345 12.86172,-7.93354 13.15747,-7.93354 0.29574,0 0.45802,3.78116 0.36062,8.40258 l -0.17709,8.40257 -45.69722,27.73676 C 276.88109,389.51884 256.17453,402.00021 256,402 c -0.17454,-2.1e-4 -20.88109,-12.47938 -46.01456,-27.73148 z m -64.55687,-71.424 c -24.68492,-16.11077 -44.89166,-29.46996 -44.90386,-29.6871 -0.0295,-0.52441 61.33029,-49.7452 62.01347,-49.7452 0.79209,0 90.90784,55.78258 90.91604,56.27797 0.011,0.66323 -61.78931,52.57807 -62.50693,52.50844 -0.35037,-0.034 -20.8338,-13.24334 -45.51872,-29.35411 z m 144.05098,3.34929 c -17.01744,-14.3475 -30.93765,-26.27605 -30.93377,-26.50791 0.008,-0.49259 90.12842,-56.27368 90.91603,-56.27368 0.68269,0 62.0427,49.2204 62.01424,49.7452 -0.0239,0.43998 -89.3265,58.68774 -90.38576,58.95421 -0.36845,0.0927 -14.59328,-11.57033 -31.61074,-25.91782 z M 131.20498,195.11401 c -17.06089,-13.64409 -31.10296,-25.0323 -31.20461,-25.30714 -0.207343,-0.56056 87.49421,-58.37972 89.24715,-58.83813 0.77313,-0.20217 10.82676,7.77741 32.50785,25.80154 17.2637,14.35183 31.47142,26.3283 31.5727,26.6144 0.15964,0.45093 -89.88808,56.53678 -90.7717,56.53678 -0.18238,0 -14.29051,-11.16335 -31.35139,-24.80745 z M 303.9186,192.009 c -24.78439,-15.33391 -45.06252,-28.16191 -45.06252,-28.5067 0,-0.34478 14.12485,-12.37172 31.38856,-26.72656 21.6824,-18.029 31.73467,-26.00918 32.50783,-25.807 1.75295,0.45841 89.4545,58.27757 89.24716,58.83813 -0.23548,0.63666 -62.0885,50.12017 -62.62145,50.09828 -0.21838,-0.009 -20.67518,-12.56224 -45.45958,-27.89615 z"
       id="path2984"
       inkscape:connector-curvature="0" />
  </g>
</svg>
