<?xml version="1.0" encoding="UTF-8" standalone="no"?>
<!-- Created with Inkscape (http://www.inkscape.org/) -->

<svg
   xmlns:osb="http://www.openswatchbook.org/uri/2009/osb"
   xmlns:dc="http://purl.org/dc/elements/1.1/"
   xmlns:cc="http://creativecommons.org/ns#"
   xmlns:rdf="http://www.w3.org/1999/02/22-rdf-syntax-ns#"
   xmlns:svg="http://www.w3.org/2000/svg"
   xmlns="http://www.w3.org/2000/svg"
   xmlns:sodipodi="http://sodipodi.sourceforge.net/DTD/sodipodi-0.dtd"
   xmlns:inkscape="http://www.inkscape.org/namespaces/inkscape"
   width="512"
   height="512"
   id="svg2985"
   version="1.1"
   inkscape:version="0.92.2 2405546, 2018-03-11"
   sodipodi:docname="eagle.svg"
   viewBox="0 0 512 512">
  <defs
     id="defs2987">
    <linearGradient
       id="linearGradient5207"
       osb:paint="solid">
      <stop
         style="stop-color:#000015;stop-opacity:1;"
         offset="0"
         id="stop5209" />
    </linearGradient>
  </defs>
  <sodipodi:namedview
     id="base"
     pagecolor="#ffffff"
     bordercolor="#666666"
     borderopacity="1.0"
     inkscape:pageopacity="0.0"
     inkscape:pageshadow="2"
     inkscape:zoom="0.32593203"
     inkscape:cx="310.68847"
     inkscape:cy="223.07944"
     inkscape:current-layer="layer1"
     showgrid="true"
     inkscape:document-units="px"
     inkscape:grid-bbox="true"
     inkscape:window-width="1366"
     inkscape:window-height="712"
     inkscape:window-x="0"
     inkscape:window-y="27"
     inkscape:window-maximized="1"
     inkscape:snap-text-baseline="true" />
  <metadata
     id="metadata2990">
    <rdf:RDF>
      <cc:Work
         rdf:about="">
        <dc:format>image/svg+xml</dc:format>
        <dc:type
           rdf:resource="http://purl.org/dc/dcmitype/StillImage" />
        <dc:title />
      </cc:Work>
    </rdf:RDF>
  </metadata>
  <g
     id="layer1"
     inkscape:label="Layer 1"
     inkscape:groupmode="layer"
     transform="translate(0,448)">
    <g
       id="g843">
      <path
         style="fill:#8a715e;fill-opacity:1;stroke-width:11.10955811"
         inkscape:connector-curvature="0"
         d="m 432.91327,-391.52603 c 102.19291,88.57459 105.82678,249.6997 8.1168,359.898789 C 343.3201,78.571841 181.27964,96.10061 79.086729,7.52602 -23.106186,-81.048566 -26.740042,-242.17369 70.969928,-352.37277 168.6799,-462.57185 330.72036,-480.10062 432.91327,-391.52603 Z"
         id="path27" />
      <path
         style="opacity:1;fill:#000000;fill-opacity:0.49019608;stroke-width:11.10955811"
         inkscape:connector-curvature="0"
         d="m 511.63551,-223.09649 c -1.55139,61.31165 -25.16123,124.154614 -70.96638,175.814484 C 342.95915,62.917113 180.91869,80.445844 78.725776,-8.128708 30.827124,-49.644362 4.4968216,-107.07716 0.1938277,-167.7712 0.79907936,-101.41452 27.117411,-37.517823 79.078682,7.519065 181.27159,96.093617 343.31975,78.556194 441.02202,-31.634233 490.72697,-87.692336 514.02704,-156.9252 511.63551,-223.09649 Z"
         id="path51" />
      <path
         style="fill:#000000;fill-opacity:0.49019608;stroke-width:1.22630632"
         d="m 236.3106,-16.905364 c -2.17514,-0.516802 -5.40054,-1.886919 -7.16758,-3.044741 -3.09345,-2.026894 -3.32044,-2.003994 -6.11023,0.616869 -2.52219,2.369499 -3.71396,2.613689 -9.20234,1.885628 -7.48447,-0.992846 -25.28972,-6.448966 -26.28138,-8.05346 -0.38288,-0.619565 1.2645,-1.494315 3.66093,-1.94388 2.39641,-0.449565 7.51623,-1.792493 11.37742,-2.984252 l 7.02029,-2.166878 0.79802,-10.260476 c 0.4389,-5.643275 0.84542,-13.571532 0.90334,-17.618344 l 0.10545,-7.357834 -8.1724,-6.744684 C 189.52946,-85.89447 189.65099,-85.8361 181.57132,-84.98879 c -16.19887,1.69881 -31.74654,13.713753 -28.54431,22.058552 1.17915,3.072845 -3.89266,2.182368 -7.36882,-1.293785 -2.61196,-2.611966 -3.01536,-3.892695 -2.41413,-7.664411 0.39705,-2.490625 1.20417,-8.131266 1.79365,-12.534686 1.34511,-10.04805 2.9788,-13.17802 13.61354,-26.08194 7.3721,-8.94517 9.82707,-11.0134 17.50264,-14.74535 4.91028,-2.38746 11.58495,-5.00547 14.83258,-5.81778 l 5.90476,-1.47696 -0.82648,-5.04613 c -0.96578,-5.89681 -3.19278,-8.75258 -9.22725,-11.8325 -4.98462,-2.54411 -12.29431,-10.19395 -15.30645,-16.01879 -3.52954,-6.8254 -1.9638,-16.63671 5.44652,-34.12892 8.62912,-20.36926 20.85006,-46.00154 21.58312,-45.26852 1.3566,1.35663 -6.09702,33.44012 -9.86245,42.45202 -0.99508,2.38161 -1.55437,4.58513 -1.2428,4.89667 1.1301,1.13011 8.44822,-11.86752 19.99944,-35.52084 6.4877,-13.28482 12.261,-23.86675 12.82952,-23.51538 2.70348,1.67082 -1.72817,20.68736 -7.47327,32.06834 -2.439,4.83162 -3.18704,7.31176 -2.07683,6.88575 2.1792,-0.83626 6.65515,-7.55774 11.73814,-17.62706 3.7451,-7.41903 21.98612,-31.18846 23.08849,-30.08607 0.2888,0.28879 -2.49764,5.65364 -6.19221,11.92175 -3.69455,6.26814 -7.07004,12.50028 -7.50113,13.84923 -1.02896,3.21982 7.36008,-6.11471 9.91886,-11.03676 2.04019,-3.92451 23.38888,-34.48183 28.09839,-40.2185 2.45942,-2.99582 8.19298,-14.28634 14.92423,-29.38879 1.97767,-4.43717 2.83893,-8.13101 8.14689,-7.82225 l 5.5184,0.32098 -0.98347,10.44452 c -0.38107,6.41105 1.06302,10.10162 2.83241,7.23868 0.41329,-0.66871 3.99964,-3.71531 7.96973,-6.77019 l 8.93569,-7.74881 6.20654,1.33106 c 3.41355,0.73208 6.46156,1.74381 6.77328,2.24825 0.31179,0.50447 -2.81602,5.13224 -4.85168,7.60184 -5.63653,6.83806 -3.15799,7.43681 5.69501,1.37579 4.3753,-2.99544 8.83744,-5.6371 9.44948,-5.6371 1.18987,0 12.57679,4.72042 13.41927,5.56292 0.66925,0.66923 -9.85176,14.2488 -11.02777,14.2488 -0.50382,0 -4.07288,3.08224 -7.93121,6.84939 -6.56824,6.4129 -8.73078,10.3189 -5.71302,10.3189 0.71617,0 9.95949,-3.90912 20.54065,-8.68696 27.57387,-12.45085 24.98654,-11.64342 28.96259,-9.03825 l 3.44537,2.25754 -4.86555,4.36148 c -7.23234,6.48311 -25.66683,19.68636 -27.52939,19.71725 -3.73379,0.0618 -11.72333,4.74053 -12.37935,7.24907 l -0.69345,2.65162 22.28065,-0.29861 c 18.71678,-0.25078 23.04009,0.0343 27.02924,1.78103 3.84236,1.68252 4.47705,2.4068 3.32538,3.79446 -0.78281,0.94324 -3.47153,1.98257 -5.97499,2.30962 -7.10104,0.92768 -27.64592,4.65721 -29.69094,5.38984 -1.46465,0.5247 -1.33961,0.86448 0.61316,1.66747 1.3489,0.55465 3.65829,1.04727 5.13195,1.09469 1.47366,0.0476 4.23282,0.68038 6.13155,1.40661 l 3.45219,1.32044 -3.60362,3.11174 c -3.46492,2.99193 -4.01933,3.07918 -14.40579,2.26666 -8.9824,-0.70268 -10.69164,-0.55659 -10.14525,0.86722 0.36139,0.94177 3.34452,2.57171 6.62924,3.62214 7.44647,2.38127 20.57359,10.69511 21.32417,13.50529 0.30862,1.15551 -0.15269,2.69335 -1.02508,3.41743 -0.87246,0.72407 -1.3216,2.32857 -0.99813,3.56557 0.43788,1.67443 -0.29954,2.46746 -2.88575,3.10372 -1.91069,0.47005 -4.74303,1.67573 -6.29416,2.67927 -3.1689,2.0503 -2.85155,4.79094 1.22513,10.57891 2.36209,3.35365 2.36054,3.39298 -0.27527,7.0948 -2.97582,4.17907 -2.48439,7.31431 1.14639,7.31431 3.74941,0 4.31775,2.34572 1.33708,5.51847 l -2.70963,2.88429 2.58114,1.61199 c 3.69087,2.30493 3.19381,3.47461 -1.47647,3.47461 -2.2317,0 -5.09409,0.75782 -6.3608,1.68406 -2.22361,1.62599 -2.2106,1.71342 0.37877,2.53527 3.436,1.09052 3.4087,2.67404 -0.0773,4.48778 -3.98872,2.07526 -4.03228,2.18985 -1.52974,4.01974 2.12777,1.55588 1.98156,1.80485 -2.23557,3.806 -2.48178,1.17765 -4.51231,2.91419 -4.51231,3.85897 0,0.94475 -1.79347,2.78059 -3.98548,4.07962 -5.95255,3.52758 -7.05123,4.76973 -7.05123,7.97184 0,1.60337 0.68979,3.19356 1.53284,3.53376 1.08524,0.43789 1.01677,0.64681 -0.23453,0.71534 -1.29338,0.0708 -1.12901,0.57955 0.61316,1.89728 2.14072,1.61915 1.02199,1.80625 -11.10897,1.85811 -13.13977,0.0561 -23.36172,1.88371 -23.85183,4.26456 -0.13336,0.64813 0.69288,1.50654 1.83623,1.90759 1.79821,0.63079 1.6863,0.97229 -0.82898,2.52991 -1.59928,0.99038 -4.51099,2.61522 -6.47045,3.61074 -5.10031,2.59131 -1.65425,2.97879 12.03335,1.35313 6.13259,-0.72835 15.01303,-1.67733 19.73433,-2.10881 9.52604,-0.87062 26.55497,-5.42913 33.50558,-8.96923 6.25638,-3.18646 17.38618,-6.35783 17.38618,-4.95406 0,0.63814 -0.41389,1.17249 -0.91974,1.18749 -0.50586,0.0154 -2.29933,1.14862 -3.98549,2.51917 -2.5171,2.04597 -1.9209,1.93133 3.33158,-0.64041 5.86009,-2.86928 15.06301,-4.28012 15.06301,-2.30916 0,0.45272 -0.91327,1.8323 -2.02955,3.06576 -1.89634,2.09548 -1.88128,2.24258 0.22932,2.24258 1.94814,0 1.80551,0.47333 -1.03619,3.43944 -1.8124,1.89171 -3.2952,3.79713 -3.2952,4.23428 0,0.43719 2.82382,0.46043 6.27516,0.0514 5.97802,-0.708 6.21353,-0.62786 4.97222,1.69154 -0.71667,1.33909 -2.18702,3.16838 -3.26755,4.06505 -2.85788,2.37187 -0.2011,3.64465 7.65552,3.66755 6.96426,0.0215 7.23572,0.31095 4.59872,4.92402 -2.5366,4.4372 -2.28047,8.27891 0.61309,9.19729 4.64467,1.47414 2.4314,2.71553 -6.28565,3.5257 -4.80601,0.44667 -9.27484,1.14378 -9.93064,1.54907 -0.6558,0.40532 -7.89835,0.98193 -16.09442,1.28137 -8.19614,0.29952 -19.8686,0.92319 -25.93879,1.38618 -10.67869,0.81452 -11.02651,0.93606 -10.7188,3.74701 0.27288,2.491698 -0.0763,2.787398 -2.45258,2.07746 -6.13873,-1.83401 -18.08082,-2.22217 -21.7397,-0.7066 -2.04465,0.846948 -3.71759,1.820198 -3.71759,2.162798 0,0.3426 2.48328,2.93548 5.51838,5.761893 3.03511,2.826425 5.51838,5.800922 5.51838,6.609978 0,1.487078 -7.58762,1.296482 -17.16829,-0.431264 -4.05018,-0.730389 -4.15791,-0.665364 -1.91165,1.153467 1.30924,1.060077 2.96475,1.944215 3.67892,1.964722 0.71416,0.02149 0.32119,0.606256 -0.87332,1.30166 -1.19451,0.695439 -1.88971,1.720908 -1.54483,2.278879 0.34482,0.557972 -3.99817,0.725945 -9.65111,0.373258 l -10.27807,-0.641206 -0.86742,3.949288 c -0.63109,2.873361 -1.83683,4.28726 -4.42565,5.189731 -3.93712,1.372477 -4.29455,2.182057 -2.02533,4.587422 1.22771,1.301359 1.21471,1.741088 -0.0653,2.208675 -0.87901,0.32111 -2.90359,1.991608 -4.49903,3.712271 -2.69792,2.90957 -3.44845,3.077298 -10.72856,2.397465 -7.79117,-0.727571 -7.83408,-0.714172 -9.1855,2.86618 -0.74676,1.978397 -1.06937,4.699913 -0.7169,6.047808 0.41671,1.593432 -0.0871,2.730037 -1.44054,3.249372 -1.65474,0.634981 -1.7461,1.011246 -0.4457,1.835597 1.18373,0.750348 0.90097,1.042053 -1.0232,1.055633 -4.72477,0.03342 -6.20848,1.191693 -5.60048,4.372309 0.61441,3.214085 0.51977,3.245263 -5.50584,1.813643 z"
         id="path32"
         inkscape:connector-curvature="0"
         sodipodi:nodetypes="cccscccccccsccscccccccscccccscsccccsccsccccccccccscscssccccccccccccccccscccccccccscccssccccscscsscccccsccscccscssscccccccccccccsssccccccccccccccccccccc" />
      <path
         sodipodi:nodetypes="cccscccccccsccscccccccscccccscsccccsccsccccccccccscscssccccccccccccccccscccccccccscccssccccscscsscccccsccscccscssscccccccccccccsssccccccccccccccccccccc"
         inkscape:connector-curvature="0"
         id="path828"
         d="m 216.3106,-36.905364 c -2.17514,-0.516802 -5.40054,-1.886919 -7.16758,-3.044741 -3.09345,-2.026894 -3.32044,-2.003994 -6.11023,0.616869 -2.52219,2.369499 -3.71396,2.613689 -9.20234,1.885628 -7.48447,-0.992846 -25.28972,-6.448966 -26.28138,-8.05346 -0.38288,-0.619565 1.2645,-1.494315 3.66093,-1.94388 2.39641,-0.449565 7.51623,-1.792493 11.37742,-2.984252 l 7.02029,-2.166878 0.79802,-10.260476 c 0.4389,-5.643275 0.84542,-13.571532 0.90334,-17.618344 l 0.10545,-7.357834 -8.1724,-6.744684 c -13.71266,-11.317054 -13.59113,-11.258684 -21.6708,-10.411374 -16.19887,1.69881 -31.74654,13.713753 -28.54431,22.058552 1.17915,3.072845 -3.89266,2.182368 -7.36882,-1.293785 -2.61196,-2.611966 -3.01536,-3.892695 -2.41413,-7.664411 0.39705,-2.490625 1.20417,-8.131266 1.79365,-12.534686 1.34511,-10.04805 2.9788,-13.17802 13.61354,-26.08194 7.3721,-8.94517 9.82707,-11.0134 17.50264,-14.74535 4.91028,-2.38746 11.58495,-5.00547 14.83258,-5.81778 l 5.90476,-1.47696 -0.82648,-5.04613 c -0.96578,-5.89681 -3.19278,-8.75258 -9.22725,-11.8325 -4.98462,-2.54411 -12.29431,-10.19395 -15.30645,-16.01879 -3.52954,-6.8254 -1.9638,-16.63671 5.44652,-34.12892 8.62912,-20.36926 20.85006,-46.00154 21.58312,-45.26852 1.3566,1.35663 -6.09702,33.44012 -9.86245,42.45202 -0.99508,2.38161 -1.55437,4.58513 -1.2428,4.89667 1.1301,1.13011 8.44822,-11.86752 19.99944,-35.52084 6.4877,-13.28482 12.261,-23.86675 12.82952,-23.51538 2.70348,1.67082 -1.72817,20.68736 -7.47327,32.06834 -2.439,4.83162 -3.18704,7.31176 -2.07683,6.88575 2.1792,-0.83626 6.65515,-7.55774 11.73814,-17.62706 3.7451,-7.41903 21.98612,-31.18846 23.08849,-30.08607 0.2888,0.28879 -2.49764,5.65364 -6.19221,11.92175 -3.69455,6.26814 -7.07004,12.50028 -7.50113,13.84923 -1.02896,3.21982 7.36008,-6.11471 9.91886,-11.03676 2.04019,-3.92451 23.38888,-34.48183 28.09839,-40.2185 2.45942,-2.99582 8.19298,-14.28634 14.92423,-29.38879 1.97767,-4.43717 2.83893,-8.13101 8.14689,-7.82225 l 5.5184,0.32098 -0.98347,10.44452 c -0.38107,6.41105 1.06302,10.10162 2.83241,7.23868 0.41329,-0.66871 3.99964,-3.71531 7.96973,-6.77019 l 8.93569,-7.74881 6.20654,1.33106 c 3.41355,0.73208 6.46156,1.74381 6.77328,2.24825 0.31179,0.50447 -2.81602,5.13224 -4.85168,7.60184 -5.63653,6.83806 -3.15799,7.43681 5.69501,1.37579 4.3753,-2.99544 8.83744,-5.6371 9.44948,-5.6371 1.18987,0 12.57679,4.72042 13.41927,5.56292 0.66925,0.66923 -9.85176,14.2488 -11.02777,14.2488 -0.50382,0 -4.07288,3.08224 -7.93121,6.84939 -6.56824,6.4129 -8.73078,10.3189 -5.71302,10.3189 0.71617,0 9.95949,-3.90912 20.54065,-8.68696 27.57387,-12.45085 24.98654,-11.64342 28.96259,-9.03825 l 3.44537,2.25754 -4.86555,4.36148 c -7.23234,6.48311 -25.66683,19.68636 -27.52939,19.71725 -3.73379,0.0618 -11.72333,4.74053 -12.37935,7.24907 l -0.69345,2.65162 22.28065,-0.29861 c 18.71678,-0.25078 23.04009,0.0343 27.02924,1.78103 3.84236,1.68252 4.47705,2.4068 3.32538,3.79446 -0.78281,0.94324 -3.47153,1.98257 -5.97499,2.30962 -7.10104,0.92768 -27.64592,4.65721 -29.69094,5.38984 -1.46465,0.5247 -1.33961,0.86448 0.61316,1.66747 1.3489,0.55465 3.65829,1.04727 5.13195,1.09469 1.47366,0.0476 4.23282,0.68038 6.13155,1.40661 l 3.45219,1.32044 -3.60362,3.11174 c -3.46492,2.99193 -4.01933,3.07918 -14.40579,2.26666 -8.9824,-0.70268 -10.69164,-0.55659 -10.14525,0.86722 0.36139,0.94177 3.34452,2.57171 6.62924,3.62214 7.44647,2.38127 20.57359,10.69511 21.32417,13.50529 0.30862,1.15551 -0.15269,2.69335 -1.02508,3.41743 -0.87246,0.72407 -1.3216,2.32857 -0.99813,3.56557 0.43788,1.67443 -0.29954,2.46746 -2.88575,3.10372 -1.91069,0.47005 -4.74303,1.67573 -6.29416,2.67927 -3.1689,2.0503 -2.85155,4.79094 1.22513,10.57891 2.36209,3.35365 2.36054,3.39298 -0.27527,7.0948 -2.97582,4.17907 -2.48439,7.31431 1.14639,7.31431 3.74941,0 4.31775,2.34572 1.33708,5.51847 l -2.70963,2.88429 2.58114,1.61199 c 3.69087,2.30493 3.19381,3.47461 -1.47647,3.47461 -2.2317,0 -5.09409,0.75782 -6.3608,1.68406 -2.22361,1.62599 -2.2106,1.71342 0.37877,2.53527 3.436,1.09052 3.4087,2.67404 -0.0773,4.48778 -3.98872,2.07526 -4.03228,2.18985 -1.52974,4.01974 2.12777,1.55588 1.98156,1.80485 -2.23557,3.806 -2.48178,1.17765 -4.51231,2.91419 -4.51231,3.85897 0,0.94475 -1.79347,2.78059 -3.98548,4.07962 -5.95255,3.52758 -7.05123,4.76973 -7.05123,7.97184 0,1.60337 0.68979,3.19356 1.53284,3.53376 1.08524,0.43789 1.01677,0.64681 -0.23453,0.71534 -1.29338,0.0708 -1.12901,0.57955 0.61316,1.89728 2.14072,1.61915 1.02199,1.80625 -11.10897,1.85811 -13.13977,0.0561 -23.36172,1.88371 -23.85183,4.26456 -0.13336,0.64813 0.69288,1.50654 1.83623,1.90759 1.79821,0.63079 1.6863,0.97229 -0.82898,2.52991 -1.59928,0.99038 -4.51099,2.61522 -6.47045,3.61074 -5.10031,2.59131 -1.65425,2.97879 12.03335,1.35313 6.13259,-0.72835 15.01303,-1.67733 19.73433,-2.10881 9.52604,-0.87062 26.55497,-5.42913 33.50558,-8.96923 6.25638,-3.18646 17.38618,-6.35783 17.38618,-4.95406 0,0.63814 -0.41389,1.17249 -0.91974,1.18749 -0.50586,0.0154 -2.29933,1.14862 -3.98549,2.51917 -2.5171,2.04597 -1.9209,1.93133 3.33158,-0.64041 5.86009,-2.86928 15.06301,-4.28012 15.06301,-2.30916 0,0.45272 -0.91327,1.8323 -2.02955,3.06576 -1.89634,2.09548 -1.88128,2.24258 0.22932,2.24258 1.94814,0 1.80551,0.47333 -1.03619,3.43944 -1.8124,1.89171 -3.2952,3.79713 -3.2952,4.23428 0,0.43719 2.82382,0.46043 6.27516,0.0514 5.97802,-0.708 6.21353,-0.62786 4.97222,1.69154 -0.71667,1.33909 -2.18702,3.16838 -3.26755,4.06505 -2.85788,2.37187 -0.2011,3.64465 7.65552,3.66755 6.96426,0.0215 7.23572,0.31095 4.59872,4.92402 -2.5366,4.4372 -2.28047,8.27891 0.61309,9.19729 4.64467,1.47414 2.4314,2.71553 -6.28565,3.5257 -4.80601,0.44667 -9.27484,1.14378 -9.93064,1.54907 -0.6558,0.40532 -7.89835,0.98193 -16.09442,1.28137 -8.19614,0.29952 -19.8686,0.92319 -25.93879,1.38618 -10.67869,0.81452 -11.02651,0.93606 -10.7188,3.74701 0.27288,2.491698 -0.0763,2.787398 -2.45258,2.07746 -6.13873,-1.83401 -18.08082,-2.22217 -21.7397,-0.7066 -2.04465,0.846948 -3.71759,1.820198 -3.71759,2.162798 0,0.3426 2.48328,2.93548 5.51838,5.761893 3.03511,2.826425 5.51838,5.800922 5.51838,6.609978 0,1.487078 -7.58762,1.296482 -17.16829,-0.431264 -4.05018,-0.730389 -4.15791,-0.665364 -1.91165,1.153467 1.30924,1.060077 2.96475,1.944215 3.67892,1.964722 0.71416,0.02149 0.32119,0.606256 -0.87332,1.30166 -1.19451,0.695439 -1.88971,1.720908 -1.54483,2.278879 0.34482,0.557972 -3.99817,0.725945 -9.65111,0.373258 l -10.27807,-0.641206 -0.86742,3.949288 c -0.63109,2.873361 -1.83683,4.28726 -4.42565,5.189731 -3.93712,1.372477 -4.29455,2.182057 -2.02533,4.587422 1.22771,1.301359 1.21471,1.741088 -0.0653,2.208675 -0.87901,0.32111 -2.90359,1.991608 -4.49903,3.712271 -2.69792,2.90957 -3.44845,3.077298 -10.72856,2.397465 -7.79117,-0.727571 -7.83408,-0.714172 -9.1855,2.86618 -0.74676,1.978397 -1.06937,4.699913 -0.7169,6.047808 0.41671,1.593432 -0.0871,2.730037 -1.44054,3.249372 -1.65474,0.634981 -1.7461,1.011246 -0.4457,1.835597 1.18373,0.750348 0.90097,1.042053 -1.0232,1.055633 -4.72477,0.03342 -6.20848,1.191693 -5.60048,4.372309 0.61441,3.214085 0.51977,3.245263 -5.50584,1.813643 z"
         style="fill:#ffffff;fill-opacity:1;stroke-width:1.22630632" />
    </g>
  </g>
</svg>
