<?xml version="1.0" encoding="UTF-8" standalone="no"?>
<!-- Generator: Adobe Illustrator 16.0.0, SVG Export Plug-In . SVG Version: 6.00 Build 0)  -->

<svg
   xmlns:dc="http://purl.org/dc/elements/1.1/"
   xmlns:cc="http://creativecommons.org/ns#"
   xmlns:rdf="http://www.w3.org/1999/02/22-rdf-syntax-ns#"
   xmlns:svg="http://www.w3.org/2000/svg"
   xmlns="http://www.w3.org/2000/svg"
   xmlns:xlink="http://www.w3.org/1999/xlink"
   xmlns:sodipodi="http://sodipodi.sourceforge.net/DTD/sodipodi-0.dtd"
   xmlns:inkscape="http://www.inkscape.org/namespaces/inkscape"
   version="1.1"
   x="0px"
   y="0px"
   width="512"
   height="512"
   viewBox="0 0 512 512"
   enable-background="new 0 0 256 256"
   xml:space="preserve"
   id="svg2"
   inkscape:version="0.92.2 2405546, 2018-03-11"
   sodipodi:docname="easytag.svg"><metadata
     id="metadata164"><rdf:RDF><cc:Work
         rdf:about=""><dc:format>image/svg+xml</dc:format><dc:type
           rdf:resource="http://purl.org/dc/dcmitype/StillImage" /><dc:title></dc:title></cc:Work></rdf:RDF></metadata><defs
     id="defs162"><linearGradient
       inkscape:collect="always"
       xlink:href="#SVGID_7_"
       id="linearGradient3145"
       gradientUnits="userSpaceOnUse"
       x1="128.46919"
       y1="247.29691"
       x2="128.46919"
       y2="5.5654001" /><linearGradient
       inkscape:collect="always"
       xlink:href="#SVGID_8_"
       id="linearGradient3147"
       gradientUnits="userSpaceOnUse"
       x1="128.46919"
       y1="247.29691"
       x2="128.46919"
       y2="5.5654001" /><linearGradient
       inkscape:collect="always"
       xlink:href="#SVGID_9_"
       id="linearGradient3149"
       gradientUnits="userSpaceOnUse"
       x1="136.6797"
       y1="229.4668"
       x2="136.6797"
       y2="39.945801" /><linearGradient
       inkscape:collect="always"
       xlink:href="#SVGID_10_"
       id="linearGradient3151"
       gradientUnits="userSpaceOnUse"
       x1="67.374496"
       y1="87.669403"
       x2="67.374496"
       y2="43.831501" /><linearGradient
       inkscape:collect="always"
       xlink:href="#SVGID_11_"
       id="linearGradient3153"
       gradientUnits="userSpaceOnUse"
       x1="67.374496"
       y1="82.337898"
       x2="67.374496"
       y2="49.163601" /><defs
       id="defs20"><path
         inkscape:connector-curvature="0"
         d="M 245.46,129.523 147.569,32.625 c -5.556,-5.502 -16.222,-11.873 -23.7,-14.16 L 84.351,6.382 C 76.872,4.096 66.255,6.773 60.752,12.33 L 47.311,25.908 c -5.5,5.559 -14.502,14.653 -20.005,20.21 l -13.44,13.579 c -5.5,5.558 -8.07,16.206 -5.706,23.658 l 12.483,39.391 c 2.363,7.456 8.843,18.056 14.399,23.556 l 97.89,96.898 c 5.558,5.502 14.605,5.455 20.105,-0.101 l 36.26,-36.63 c 5.504,-5.559 14.503,-14.651 20.005,-20.209 l 36.259,-36.629 c 5.502,-5.56 5.455,-14.606 -0.101,-20.108 z M 67.375,78.783 c -7.198,0 -13.033,-5.835 -13.033,-13.033 0,-7.197 5.835,-13.033 13.033,-13.033 7.197,0 13.033,5.835 13.033,13.033 -0.001,7.198 -5.836,13.033 -13.033,13.033 z"
         id="SVGID_3_" /></defs><defs
       id="defs23"><path
         inkscape:connector-curvature="0"
         d="M 245.46,129.523 147.569,32.625 c -5.556,-5.502 -16.222,-11.873 -23.7,-14.16 L 84.351,6.382 C 76.872,4.096 66.255,6.773 60.752,12.33 L 47.311,25.908 c -5.5,5.559 -14.502,14.653 -20.005,20.21 l -13.44,13.579 c -5.5,5.558 -8.07,16.206 -5.706,23.658 l 12.483,39.391 c 2.363,7.456 8.843,18.056 14.399,23.556 l 97.89,96.898 c 5.558,5.502 14.605,5.455 20.105,-0.101 l 36.26,-36.63 c 5.504,-5.559 14.503,-14.651 20.005,-20.209 l 36.259,-36.629 c 5.502,-5.56 5.455,-14.606 -0.101,-20.108 z M 67.375,78.783 c -7.198,0 -13.033,-5.835 -13.033,-13.033 0,-7.197 5.835,-13.033 13.033,-13.033 7.197,0 13.033,5.835 13.033,13.033 -0.001,7.198 -5.836,13.033 -13.033,13.033 z"
         id="SVGID_4_" /></defs><clipPath
       id="SVGID_5_"><use
         height="256"
         width="256"
         y="0"
         x="0"
         style="overflow:visible"
         id="use27"
         overflow="visible"
         xlink:href="#SVGID_3_" /></clipPath><clipPath
       clip-path="url(#SVGID_5_)"
       id="SVGID_6_"><use
         height="256"
         width="256"
         y="0"
         x="0"
         style="overflow:visible"
         id="use30"
         overflow="visible"
         xlink:href="#SVGID_4_" /></clipPath><linearGradient
       y2="39.945801"
       x2="136.6797"
       y1="229.4668"
       x1="136.6797"
       gradientUnits="userSpaceOnUse"
       id="SVGID_9_"><stop
         id="stop63"
         style="stop-color:#E6E7E8"
         offset="0" /><stop
         id="stop65"
         style="stop-color:#FFFFFF"
         offset="1" /></linearGradient><linearGradient
       inkscape:collect="always"
       xlink:href="#SVGID_10_"
       id="linearGradient3229"
       gradientUnits="userSpaceOnUse"
       x1="67.374496"
       y1="87.669403"
       x2="67.374496"
       y2="43.831501" /><linearGradient
       inkscape:collect="always"
       xlink:href="#SVGID_10_"
       id="linearGradient3244"
       gradientUnits="userSpaceOnUse"
       x1="67.374496"
       y1="87.669403"
       x2="67.374496"
       y2="43.831501" /><linearGradient
       y2="43.831501"
       x2="67.374496"
       y1="87.669403"
       x1="67.374496"
       gradientUnits="userSpaceOnUse"
       id="SVGID_10_"><stop
         id="stop112"
         style="stop-color:#777777"
         offset="0" /><stop
         id="stop114"
         style="stop-color:#7C7C7C"
         offset="0.2068" /><stop
         id="stop116"
         style="stop-color:#898989"
         offset="0.4394" /><stop
         id="stop118"
         style="stop-color:#A0A0A0"
         offset="0.6845" /><stop
         id="stop120"
         style="stop-color:#BFBFBF"
         offset="0.9368" /><stop
         id="stop122"
         style="stop-color:#C8C8C8"
         offset="1" /></linearGradient><linearGradient
       inkscape:collect="always"
       xlink:href="#SVGID_7_"
       id="linearGradient3258"
       gradientUnits="userSpaceOnUse"
       x1="128.46919"
       y1="247.29691"
       x2="128.46919"
       y2="5.5654001" /><linearGradient
       inkscape:collect="always"
       xlink:href="#SVGID_8_"
       id="linearGradient3260"
       gradientUnits="userSpaceOnUse"
       x1="128.46919"
       y1="247.29691"
       x2="128.46919"
       y2="5.5654001" /><linearGradient
       id="SVGID_7_"
       gradientUnits="userSpaceOnUse"
       x1="128.46919"
       y1="247.29691"
       x2="128.46919"
       y2="5.5654001"><stop
         offset="0"
         style="stop-color:#39B54A"
         id="stop37" /><stop
         offset="0.0817"
         style="stop-color:#45B748"
         id="stop39" /><stop
         offset="0.329"
         style="stop-color:#64BE44"
         id="stop41" /><stop
         offset="0.5693"
         style="stop-color:#7BC241"
         id="stop43" /><stop
         offset="0.7973"
         style="stop-color:#88C540"
         id="stop45" /><stop
         offset="1"
         style="stop-color:#8DC63F"
         id="stop47" /></linearGradient><linearGradient
       inkscape:collect="always"
       xlink:href="#SVGID_7_"
       id="linearGradient3276"
       gradientUnits="userSpaceOnUse"
       x1="128.46919"
       y1="247.29691"
       x2="128.46919"
       y2="5.5654001"
       gradientTransform="matrix(1.8200114,0,0,1.8200114,310.5219,38.115899)" /><linearGradient
       inkscape:collect="always"
       xlink:href="#SVGID_8_"
       id="linearGradient3279"
       gradientUnits="userSpaceOnUse"
       x1="128.46919"
       y1="247.29691"
       x2="128.46919"
       y2="5.5654001" /><linearGradient
       y2="5.5654001"
       x2="128.46919"
       y1="247.29691"
       x1="128.46919"
       gradientUnits="userSpaceOnUse"
       id="SVGID_8_"><stop
         id="stop54"
         style="stop-color:#006838"
         offset="0" /><stop
         id="stop56"
         style="stop-color:#006838;stop-opacity:0.8587"
         offset="0.0357" /><stop
         id="stop58"
         style="stop-color:#006838;stop-opacity:0"
         offset="0.2527" /></linearGradient><linearGradient
       inkscape:collect="always"
       xlink:href="#SVGID_7_"
       id="linearGradient3288"
       gradientUnits="userSpaceOnUse"
       gradientTransform="matrix(1.8200114,0,0,1.8200114,256.82972,6.6676245)"
       x1="128.46919"
       y1="247.29691"
       x2="128.46919"
       y2="5.5654001" /><linearGradient
       inkscape:collect="always"
       xlink:href="#SVGID_8_"
       id="linearGradient3286"
       gradientUnits="userSpaceOnUse"
       x1="128.46919"
       y1="247.29691"
       x2="128.46919"
       y2="5.5654001"
       gradientTransform="matrix(1.8200114,0,0,1.8200114,35.190606,39.618088)" /></defs><sodipodi:namedview
     pagecolor="#ffffff"
     bordercolor="#666666"
     borderopacity="1"
     objecttolerance="10"
     gridtolerance="10"
     guidetolerance="10"
     inkscape:pageopacity="0"
     inkscape:pageshadow="2"
     inkscape:window-width="1366"
     inkscape:window-height="712"
     id="namedview160"
     showgrid="false"
     inkscape:zoom="0.32593203"
     inkscape:cx="-168.63134"
     inkscape:cy="288.70956"
     inkscape:window-x="0"
     inkscape:window-y="27"
     inkscape:window-maximized="1"
     inkscape:current-layer="svg2" /><g
     id="g1041"><path
       id="path901"
       d="M 432.91335,56.473974 C 535.10615,145.04856 538.74002,306.17368 441.03014,416.37276 343.32009,526.57184 181.27948,544.10061 79.086673,455.52602 -23.106169,366.95143 -26.740025,205.82631 70.969882,95.627234 168.67975,-14.57185 330.72029,-32.10062 432.91335,56.473974 Z"
       inkscape:connector-curvature="0"
       style="fill:#68b723;fill-opacity:1;stroke-width:11.10955811" /><path
       id="path903"
       d="m 511.635,224.90352 c -1.5514,61.31166 -25.16121,124.1546 -70.96631,175.81449 C 342.95883,510.9171 180.91853,528.44585 78.725729,439.87127 30.827125,398.35564 4.4968511,340.92283 0.19386179,280.22879 0.79911271,346.58547 27.117416,410.48219 79.078632,455.51904 181.27144,544.09362 343.31942,526.5562 441.02159,416.36578 490.72648,360.30764 514.02654,291.07481 511.635,224.90352 Z"
       inkscape:connector-curvature="0"
       style="opacity:1;fill:#000000;fill-opacity:0.49019608;stroke-width:11.10955811" /><path
       d="M 481.93061,275.35142 303.76787,98.99596 C 293.65589,88.982257 274.24365,77.386965 260.6336,73.224599 L 188.71039,51.233401 c -13.61186,-4.160546 -32.93492,0.711624 -42.95045,10.825428 L 121.29717,86.770943 C 111.28711,96.888387 94.903366,113.43957 84.887836,123.55338 l -24.46095,24.71393 c -10.01006,10.11562 -14.68749,29.4951 -10.38498,43.05783 l 22.7192,71.69207 c 4.30069,13.57 16.09436,32.86212 26.20634,42.87219 L 277.12837,482.24486 c 10.11562,10.0137 26.58126,9.92816 36.59133,-0.18382 l 65.99361,-66.66702 c 10.01734,-10.11744 26.39562,-26.66499 36.40933,-36.78061 l 65.99179,-66.6652 c 10.0137,-10.11926 9.92816,-26.58308 -0.18382,-36.59679 z M 157.81388,183.00405 c -13.10044,0 -23.72021,-10.61977 -23.72021,-23.72021 0,-13.09862 10.61977,-23.72021 23.72021,-23.72021 13.09862,0 23.72021,10.61977 23.72021,23.72021 -0.002,13.10044 -10.62159,23.72021 -23.72021,23.72021 z"
       id="path60"
       inkscape:connector-curvature="0"
       style="opacity:0;fill:url(#linearGradient3286)" /><g
       style="fill:#000000;fill-opacity:0.49019608"
       transform="translate(20,20)"
       id="g1018"><g
         style="fill:#000000;fill-opacity:0.49019608"
         transform="matrix(0.70727622,0,0,0.70727622,65.738828,65.646968)"
         id="g1010"><path
           style="fill:#000000;fill-opacity:0.49019608"
           d="m 177.66602,49.748047 c -11.6466,0.08915 -24.39461,4.725194 -31.90625,12.310547 l -24.46289,24.71289 C 111.28682,96.888928 94.904202,113.43892 84.888672,123.55273 l -24.460938,24.71485 c -10.01006,10.11562 -14.689228,29.49391 -10.386718,43.05664 l 18.720703,67.69336 c 0.61294,1.93401 1.392467,3.99223 2.283203,6.11523 15.773733,-36.06731 38.659808,-70.13402 66.369138,-92.74414 -3.35164,-4.12409 -3.32031,-6.37554 -3.32031,-13.10547 0,-13.09862 10.62026,-23.71875 23.7207,-23.71875 13.09862,0 23.71875,10.61831 23.71875,23.71875 0,0.0354 -0.002,0.0701 -0.002,0.10547 3.93001,-1.83015 8.23307,-3.46819 12.94727,-4.91601 42.5585,-13.0715 85.45178,-25.21503 128.56054,-36.40235 L 303.76758,98.996094 C 293.6556,88.982391 274.24286,77.386975 260.63281,73.224609 L 188.71094,51.234375 c -3.40297,-1.040137 -7.16273,-1.516045 -11.04492,-1.486328 z M 152.23047,187.75781 c -30.42257,23.57979 -52.08237,58.96093 -67.341798,97.23633 5.304225,9.4796 7.990985,14.86874 14.078125,20.89453 l 42.214843,41.78711 5.875,5.81641 3.25781,3.22265 20.4375,20.23047 c -1.22422,-8.19266 -2.37764,-16.39685 -3.51757,-24.59179 -6.0843,-43.74398 -12.17539,-87.51819 -16.65626,-131.45508 -1.57124,-15.38504 2.01166,-21.89511 7.06446,-31.99805 -1.87595,-0.17036 -3.6879,-0.56122 -5.41211,-1.14258 z m 153.99219,-0.94922 c -1.33831,0.0114 -2.85649,0.28191 -4.55274,0.77149 -18.7898,5.44001 -37.84542,10.08282 -56.34765,16.36914 -3.98401,1.36501 -8.88132,8.45802 -8.59375,12.58398 1.27764,18.50224 4.28183,36.89055 6.93359,57.39844 23.98411,-6.74132 46.47169,-12.59722 68.54297,-19.74805 3.3743,-1.09018 7.08288,-8.2667 6.80078,-12.36718 -1.07017,-15.7431 -3.80965,-31.36726 -5.69336,-47.07032 -0.68387,-5.67843 -3.07493,-7.97162 -7.08984,-7.9375 z m 92.58007,6.25977 c 2.03379,15.98816 3.50223,32.05962 4.47852,48.08984 1.82547,30.03747 -10.62805,47.22872 -39.37695,56.81836 -31.33514,10.45597 -63.29865,19.04336 -94.99414,28.42188 -5.27804,1.55793 -10.59623,2.98641 -16.87891,4.75 1.52881,13.14776 3.11121,24.19245 4.01758,35.28906 0.93184,11.53705 5.52926,15.17011 17.33203,11.70117 41.1086,-12.07577 82.46011,-23.36524 123.70703,-34.95508 4.85943,-1.365 9.72086,-2.73139 16.42578,-4.61328 0.93335,13.83668 1.81015,26.78933 2.70117,39.94922 l 65.90039,-66.57226 c 10.0137,-10.11926 9.92644,-26.582 -0.18554,-36.59571 z M 379.69922,415.4082 c -44.18807,12.43332 -88.37691,24.84659 -132.60547,37.10547 l 30.03516,29.73047 c 10.11562,10.0137 26.57977,9.92839 36.58984,-0.18359 z"
           id="path1002"
           inkscape:connector-curvature="0"
           sodipodi:nodetypes="sccccccccsssccccccscccccccccccccccccccccccccccccccccccccc" /><g
           id="g1008"
           transform="matrix(1.8200114,0,0,1.8200114,35.190606,39.618088)"
           style="fill:#000000;fill-opacity:0.49019608"><g
             id="g1006"
             style="fill:#000000;fill-opacity:0.49019608"><path
               d="m 63.255,174.228 c -0.938,10.178 -4.014,26.452 -13.949,35.368 -4.674,4.193 -10.322,6.308 -16.834,6.308 -1.382,0 -2.804,-0.096 -4.263,-0.287 C 19.241,214.446 13.083,207.812 10.401,196.435 2.383,162.438 26.194,96.403 64.386,70.658 c 1.222,-0.823 2.878,-0.499 3.7,0.721 0.824,1.22 0.501,2.878 -0.72,3.701 -38.153,25.718 -58.625,91.091 -51.776,120.131 2.16,9.16 6.638,14.246 13.309,15.119 6.806,0.889 12.32,-0.647 16.839,-4.696 10.111,-9.065 12.113,-28.142 12.498,-36.373"
               id="path1004"
               inkscape:connector-curvature="0"
               style="fill:#000000;fill-opacity:0.49019608" /></g></g></g><path
         sodipodi:nodetypes="cczccc"
         inkscape:connector-curvature="0"
         id="path1012"
         d="m 186.50762,332.25142 4.48312,44.36759 c 0,0 1.49129,8.06709 8.05383,12.65601 6.56254,4.58892 17.2582,2.68461 17.2582,2.68461 l 24.19959,-6.2605 z"
         style="fill:#000000;fill-opacity:0.49019608;stroke:none;stroke-width:1px;stroke-linecap:butt;stroke-linejoin:miter;stroke-opacity:1" /><path
         inkscape:connector-curvature="0"
         id="path1014"
         d="m 334.29106,359.45531 28.51465,-6.61426 -2.68802,-19.47622 z"
         style="fill:#000000;fill-opacity:0.49019608;stroke:none;stroke-width:1px;stroke-linecap:butt;stroke-linejoin:miter;stroke-opacity:1" /><path
         sodipodi:nodetypes="ccczcc"
         inkscape:connector-curvature="0"
         id="path1016"
         d="m 294.21664,149.15529 53.58588,53.04434 -5.02285,-39.60809 c 0,0 -1.50267,-12.09199 -10.14623,-17.29012 -8.64355,-5.19814 -19.14191,-1.15055 -19.14191,-1.15055 z"
         style="fill:#000000;fill-opacity:0.49019608;stroke:none;stroke-width:1px;stroke-linecap:butt;stroke-linejoin:miter;stroke-opacity:1" /></g><g
       id="g1000"><g
         id="g108"
         transform="matrix(0.70727622,0,0,0.70727622,65.738828,65.646968)"><path
           sodipodi:nodetypes="sccccccccsssccccccscccccccccccccccccccccccccccccccccccccc"
           inkscape:connector-curvature="0"
           id="path34"
           d="m 177.66602,49.748047 c -11.6466,0.08915 -24.39461,4.725194 -31.90625,12.310547 l -24.46289,24.71289 C 111.28682,96.888928 94.904202,113.43892 84.888672,123.55273 l -24.460938,24.71485 c -10.01006,10.11562 -14.689228,29.49391 -10.386718,43.05664 l 18.720703,67.69336 c 0.61294,1.93401 1.392467,3.99223 2.283203,6.11523 15.773733,-36.06731 38.659808,-70.13402 66.369138,-92.74414 -3.35164,-4.12409 -3.32031,-6.37554 -3.32031,-13.10547 0,-13.09862 10.62026,-23.71875 23.7207,-23.71875 13.09862,0 23.71875,10.61831 23.71875,23.71875 0,0.0354 -0.002,0.0701 -0.002,0.10547 3.93001,-1.83015 8.23307,-3.46819 12.94727,-4.91601 42.5585,-13.0715 85.45178,-25.21503 128.56054,-36.40235 L 303.76758,98.996094 C 293.6556,88.982391 274.24286,77.386975 260.63281,73.224609 L 188.71094,51.234375 c -3.40297,-1.040137 -7.16273,-1.516045 -11.04492,-1.486328 z M 152.23047,187.75781 c -30.42257,23.57979 -52.08237,58.96093 -67.341798,97.23633 5.304225,9.4796 7.990985,14.86874 14.078125,20.89453 l 42.214843,41.78711 5.875,5.81641 3.25781,3.22265 20.4375,20.23047 c -1.22422,-8.19266 -2.37764,-16.39685 -3.51757,-24.59179 -6.0843,-43.74398 -12.17539,-87.51819 -16.65626,-131.45508 -1.57124,-15.38504 2.01166,-21.89511 7.06446,-31.99805 -1.87595,-0.17036 -3.6879,-0.56122 -5.41211,-1.14258 z m 153.99219,-0.94922 c -1.33831,0.0114 -2.85649,0.28191 -4.55274,0.77149 -18.7898,5.44001 -37.84542,10.08282 -56.34765,16.36914 -3.98401,1.36501 -8.88132,8.45802 -8.59375,12.58398 1.27764,18.50224 4.28183,36.89055 6.93359,57.39844 23.98411,-6.74132 46.47169,-12.59722 68.54297,-19.74805 3.3743,-1.09018 7.08288,-8.2667 6.80078,-12.36718 -1.07017,-15.7431 -3.80965,-31.36726 -5.69336,-47.07032 -0.68387,-5.67843 -3.07493,-7.97162 -7.08984,-7.9375 z m 92.58007,6.25977 c 2.03379,15.98816 3.50223,32.05962 4.47852,48.08984 1.82547,30.03747 -10.62805,47.22872 -39.37695,56.81836 -31.33514,10.45597 -63.29865,19.04336 -94.99414,28.42188 -5.27804,1.55793 -10.59623,2.98641 -16.87891,4.75 1.52881,13.14776 3.11121,24.19245 4.01758,35.28906 0.93184,11.53705 5.52926,15.17011 17.33203,11.70117 41.1086,-12.07577 82.46011,-23.36524 123.70703,-34.95508 4.85943,-1.365 9.72086,-2.73139 16.42578,-4.61328 0.93335,13.83668 1.81015,26.78933 2.70117,39.94922 l 65.90039,-66.57226 c 10.0137,-10.11926 9.92644,-26.582 -0.18554,-36.59571 z M 379.69922,415.4082 c -44.18807,12.43332 -88.37691,24.84659 -132.60547,37.10547 l 30.03516,29.73047 c 10.11562,10.0137 26.57977,9.92839 36.58984,-0.18359 z"
           style="fill:#ffffff;fill-opacity:1" /><g
           style="fill:#ffffff"
           transform="matrix(1.8200114,0,0,1.8200114,35.190606,39.618088)"
           id="Layer_2"><g
             style="fill:#ffffff"
             id="g156"><path
               style="fill:#ffffff"
               inkscape:connector-curvature="0"
               id="path158"
               d="m 63.255,174.228 c -0.938,10.178 -4.014,26.452 -13.949,35.368 -4.674,4.193 -10.322,6.308 -16.834,6.308 -1.382,0 -2.804,-0.096 -4.263,-0.287 C 19.241,214.446 13.083,207.812 10.401,196.435 2.383,162.438 26.194,96.403 64.386,70.658 c 1.222,-0.823 2.878,-0.499 3.7,0.721 0.824,1.22 0.501,2.878 -0.72,3.701 -38.153,25.718 -58.625,91.091 -51.776,120.131 2.16,9.16 6.638,14.246 13.309,15.119 6.806,0.889 12.32,-0.647 16.839,-4.696 10.111,-9.065 12.113,-28.142 12.498,-36.373" /></g></g></g><path
         style="fill:#ffffff;stroke:none;stroke-width:1px;stroke-linecap:butt;stroke-linejoin:miter;stroke-opacity:1"
         d="m 186.50762,332.25142 4.48312,44.36759 c 0,0 1.49129,8.06709 8.05383,12.65601 6.56254,4.58892 17.2582,2.68461 17.2582,2.68461 l 24.19959,-6.2605 z"
         id="path986"
         inkscape:connector-curvature="0"
         sodipodi:nodetypes="cczccc" /><path
         style="fill:#ffffff;stroke:none;stroke-width:1px;stroke-linecap:butt;stroke-linejoin:miter;stroke-opacity:1"
         d="m 334.29106,359.45531 28.51465,-6.61426 -2.68802,-19.47622 z"
         id="path988"
         inkscape:connector-curvature="0" /><path
         style="fill:#ffffff;stroke:none;stroke-width:1px;stroke-linecap:butt;stroke-linejoin:miter;stroke-opacity:1"
         d="m 294.21664,149.15529 53.58588,53.04434 -5.02285,-39.60809 c 0,0 -1.50267,-12.09199 -10.14623,-17.29012 -8.64355,-5.19814 -19.14191,-1.15055 -19.14191,-1.15055 z"
         id="path990"
         inkscape:connector-curvature="0"
         sodipodi:nodetypes="ccczcc" /></g></g></svg>