<?xml version="1.0" encoding="UTF-8" standalone="no"?>
<!-- Generator: Adobe Illustrator 19.0.0, SVG Export Plug-In . SVG Version: 6.00 Build 0)  -->

<svg
   xmlns:dc="http://purl.org/dc/elements/1.1/"
   xmlns:cc="http://creativecommons.org/ns#"
   xmlns:rdf="http://www.w3.org/1999/02/22-rdf-syntax-ns#"
   xmlns:svg="http://www.w3.org/2000/svg"
   xmlns="http://www.w3.org/2000/svg"
   xmlns:xlink="http://www.w3.org/1999/xlink"
   xmlns:sodipodi="http://sodipodi.sourceforge.net/DTD/sodipodi-0.dtd"
   xmlns:inkscape="http://www.inkscape.org/namespaces/inkscape"
   version="1.1"
   id="Layer_1"
   x="0px"
   y="0px"
   viewBox="0 0 512 512"
   xml:space="preserve"
   inkscape:version="0.92.2 2405546, 2018-03-11"
   width="512"
   height="512"
   sodipodi:docname="ebay.svg"><metadata
     id="metadata57"><rdf:RDF><cc:Work
         rdf:about=""><dc:format>image/svg+xml</dc:format><dc:type
           rdf:resource="http://purl.org/dc/dcmitype/StillImage" /><dc:title></dc:title></cc:Work></rdf:RDF></metadata><defs
     id="defs55"><linearGradient
       inkscape:collect="always"
       xlink:href="#SVGID_8_"
       id="linearGradient3286"
       gradientUnits="userSpaceOnUse"
       x1="128.46919"
       y1="247.29691"
       x2="128.46919"
       y2="5.5654001"
       gradientTransform="matrix(1.8200114,0,0,1.8200114,35.190606,39.618088)" /><linearGradient
       y2="5.5654001"
       x2="128.46919"
       y1="247.29691"
       x1="128.46919"
       gradientUnits="userSpaceOnUse"
       id="SVGID_8_"><stop
         id="stop54"
         style="stop-color:#006838"
         offset="0" /><stop
         id="stop56"
         style="stop-color:#006838;stop-opacity:0.8587"
         offset="0.0357" /><stop
         id="stop58"
         style="stop-color:#006838;stop-opacity:0"
         offset="0.2527" /></linearGradient></defs><sodipodi:namedview
     pagecolor="#ffffff"
     bordercolor="#666666"
     borderopacity="1"
     objecttolerance="10"
     gridtolerance="10"
     guidetolerance="10"
     inkscape:pageopacity="0"
     inkscape:pageshadow="2"
     inkscape:window-width="1366"
     inkscape:window-height="712"
     id="namedview53"
     showgrid="false"
     inkscape:zoom="0.26279755"
     inkscape:cx="-372.75167"
     inkscape:cy="629.60531"
     inkscape:window-x="0"
     inkscape:window-y="27"
     inkscape:window-maximized="1"
     inkscape:current-layer="Layer_1"
     units="px" /><g
     id="g23"
     transform="translate(0,550.767)" /><g
     id="g25"
     transform="translate(0,550.767)" /><g
     id="g27"
     transform="translate(0,550.767)" /><g
     id="g29"
     transform="translate(0,550.767)" /><g
     id="g31"
     transform="translate(0,550.767)" /><g
     id="g33"
     transform="translate(0,550.767)" /><g
     id="g35"
     transform="translate(0,550.767)" /><g
     id="g37"
     transform="translate(0,550.767)" /><g
     id="g39"
     transform="translate(0,550.767)" /><g
     id="g41"
     transform="translate(0,550.767)" /><g
     id="g43"
     transform="translate(0,550.767)" /><g
     id="g45"
     transform="translate(0,550.767)" /><g
     id="g47"
     transform="translate(0,550.767)" /><g
     id="g49"
     transform="translate(0,550.767)" /><g
     id="g51"
     transform="translate(0,550.767)" /><g
     id="g971"><path
       id="path901"
       d="M 432.91335,56.473974 C 535.10615,145.04856 538.74002,306.17368 441.03014,416.37276 343.32009,526.57184 181.27948,544.10061 79.086673,455.52602 -23.106169,366.95143 -26.740025,205.82631 70.969882,95.627234 168.67975,-14.57185 330.72029,-32.10062 432.91335,56.473974 Z"
       inkscape:connector-curvature="0"
       style="fill:#8a715e;fill-opacity:1;stroke-width:11.10955811" /><path
       id="path903"
       d="m 511.635,224.90352 c -1.5514,61.31166 -25.16121,124.1546 -70.96631,175.81449 C 342.95883,510.9171 180.91853,528.44585 78.725729,439.87127 30.827125,398.35564 4.4968511,340.92283 0.19386179,280.22879 0.79911271,346.58547 27.117416,410.48219 79.078632,455.51904 181.27144,544.09362 343.31942,526.5562 441.02159,416.36578 490.72648,360.30764 514.02654,291.07481 511.635,224.90352 Z"
       inkscape:connector-curvature="0"
       style="opacity:1;fill:#000000;fill-opacity:0.49019608;stroke-width:11.10955811" /><path
       d="M 481.93061,275.35142 303.76787,98.99596 C 293.65589,88.982257 274.24365,77.386965 260.6336,73.224599 L 188.71039,51.233401 c -13.61186,-4.160546 -32.93492,0.711624 -42.95045,10.825428 L 121.29717,86.770943 C 111.28711,96.888387 94.903366,113.43957 84.887836,123.55338 l -24.46095,24.71393 c -10.01006,10.11562 -14.68749,29.4951 -10.38498,43.05783 l 22.7192,71.69207 c 4.30069,13.57 16.09436,32.86212 26.20634,42.87219 L 277.12837,482.24486 c 10.11562,10.0137 26.58126,9.92816 36.59133,-0.18382 l 65.99361,-66.66702 c 10.01734,-10.11744 26.39562,-26.66499 36.40933,-36.78061 l 65.99179,-66.6652 c 10.0137,-10.11926 9.92816,-26.58308 -0.18382,-36.59679 z M 157.81388,183.00405 c -13.10044,0 -23.72021,-10.61977 -23.72021,-23.72021 0,-13.09862 10.61977,-23.72021 23.72021,-23.72021 13.09862,0 23.72021,10.61977 23.72021,23.72021 -0.002,13.10044 -10.62159,23.72021 -23.72021,23.72021 z"
       id="path60"
       inkscape:connector-curvature="0"
       style="opacity:0;fill:url(#linearGradient3286)" /><g
       aria-label="ebay"
       style="font-style:normal;font-weight:normal;font-size:40px;line-height:1.25;font-family:sans-serif;letter-spacing:0px;word-spacing:0px;fill:#000000;fill-opacity:0.49019608;stroke:none"
       id="g956"
       transform="matrix(3.4985546,0,0,3.4985546,-113.84284,-404.41684)"><path
         d="m 77.757812,205.22656 q -4.667968,0 -7.636718,-2.22656 -3.28125,-2.46094 -3.28125,-6.93359 0,-4.94141 2.597656,-8.35938 2.890625,-3.78906 7.792969,-3.78906 3.398437,0 5.644531,1.09375 2.949219,1.44531 2.949219,4.49219 0,2.14843 -2.402344,3.80859 -1.09375,0.76172 -4.394531,2.22656 l -6.582032,2.91016 q 0.9375,1.01562 2.265625,1.52344 1.328125,0.50781 3.046875,0.50781 2.617188,0 4.433594,-1.07422 1.621094,-0.95703 2.597656,-0.95703 2.03125,0 2.03125,1.97265 0,2.22657 -3.261718,3.63282 -2.734375,1.17187 -5.800782,1.17187 z m -0.527343,-16.58203 q -1.816407,0 -3.105469,1.21094 -1.289063,1.21094 -2.070313,3.63281 2.207032,-0.95703 4.394532,-1.89453 2.636718,-1.19141 4.199218,-2.20703 -1.308593,-0.74219 -3.417968,-0.74219 z"
         style="font-style:normal;font-variant:normal;font-weight:bold;font-stretch:normal;font-family:'Comic Sans MS';-inkscape-font-specification:'Comic Sans MS Bold';fill:#000000;fill-opacity:0.49019608"
         id="path948"
         inkscape:connector-curvature="0" /><path
         d="m 99.535156,205.14844 q -2.734375,0 -5.195312,-0.95703 -0.722657,0.72265 -1.757813,0.72265 -1.054687,0 -1.816406,-0.70312 -0.742188,-0.70313 -0.742188,-1.75782 0,-0.46875 0.05859,-1.42578 0.05859,-0.97656 0.05859,-1.44531 v -22.12891 q 0,-1.40625 0.625,-2.5 0.78125,-1.38671 2.226562,-1.38671 2.089844,0 2.089844,2.26562 0,0.25391 -0.07813,0.82031 -0.05859,0.54688 -0.05859,0.80078 v 7.48047 q 1.445313,-0.80078 2.773438,-1.1914 1.328125,-0.41016 2.558589,-0.41016 4.58985,0 7.42188,3.33984 2.63672,3.125 2.63672,7.57813 0,4.53125 -3.06641,7.67578 -3.125,3.22266 -7.734373,3.22266 z m 0.742184,-16.81641 q -1.015621,0 -2.343746,0.58594 -1.328125,0.58594 -2.988282,1.75781 -0.01953,1.85547 0,8.30078 2.675782,1.15235 4.589844,1.15235 2.480474,0 4.082034,-1.66016 1.60156,-1.67969 1.60156,-4.21875 0,-2.53906 -1.30859,-4.19922 -1.36719,-1.71875 -3.63282,-1.71875 z"
         style="font-style:normal;font-variant:normal;font-weight:bold;font-stretch:normal;font-family:'Comic Sans MS';-inkscape-font-specification:'Comic Sans MS Bold';fill:#000000;fill-opacity:0.49019608"
         id="path950"
         inkscape:connector-curvature="0" /><path
         d="m 130.86328,205.61719 q -0.89844,0 -2.85156,-1.95313 -1.79688,0.85938 -3.16406,1.28906 -1.36719,0.44922 -2.32422,0.44922 -4.70703,0 -7.07031,-2.51953 -2.34375,-2.51953 -2.34375,-7.53906 0,-4.70703 3.47656,-8.04688 3.47656,-3.35937 8.32031,-3.35937 1.85547,0 4.29687,1.05469 2.94922,1.26953 2.94922,2.94922 0,0.70312 -0.44922,1.23046 -0.19531,0.78125 -0.3125,1.97266 -0.0977,1.17188 -0.0977,2.75391 0,3.73047 0.52734,5.37109 0.0586,0.17578 0.89844,2.03125 0.76172,1.67969 0.76172,1.91406 0,1.03516 -0.80078,1.71875 -0.78125,0.6836 -1.81641,0.6836 z m -4.84375,-13.39844 q 0,-0.625 0.0781,-1.42578 0.0977,-0.82031 0.27343,-1.81641 -0.39062,-0.19531 -0.70312,-0.27344 -0.29297,-0.0977 -0.50781,-0.0977 -2.65625,0 -4.64844,2.08984 -1.99219,2.07031 -1.99219,4.80469 0,2.61719 0.9375,3.94531 0.9375,1.3086 2.8125,1.3086 1.21094,0 2.28516,-0.39063 1.09375,-0.41016 2.05078,-1.19141 -0.58594,-4.64843 -0.58594,-6.95312 z"
         style="font-style:normal;font-variant:normal;font-weight:bold;font-stretch:normal;font-family:'Comic Sans MS';-inkscape-font-specification:'Comic Sans MS Bold';fill:#000000;fill-opacity:0.49019608"
         id="path952"
         inkscape:connector-curvature="0" /><path
         d="m 155.6875,187.82422 q -2.12891,4.43359 -6.73828,13.92578 -2.5,5.09766 -3.8086,8.45703 -0.41015,1.21094 -1.28906,3.59375 -0.70312,1.83594 -2.5,1.83594 -1.11328,0 -1.95312,-0.72266 -0.83985,-0.72265 -0.83985,-1.8164 0,-1.81641 4.14063,-10.76172 -2.14844,-4.23828 -6.81641,-12.48047 -0.46875,-0.74219 -0.95703,-1.50391 -0.52734,-0.89844 -0.52734,-1.64062 0,-1.05469 0.83984,-1.85547 0.83984,-0.80078 1.93359,-0.80078 1.28907,0 2.01172,0.95703 2.77344,3.6914 6.46485,11.11328 2.08984,-4.62891 2.53906,-5.58594 1.38672,-2.91015 2.71484,-5.11719 0.83985,-1.40625 2.30469,-1.40625 1.09375,0 1.95313,0.74219 0.85937,0.74219 0.85937,1.81641 0,0.5664 -0.33203,1.25 z"
         style="font-style:normal;font-variant:normal;font-weight:bold;font-stretch:normal;font-family:'Comic Sans MS';-inkscape-font-specification:'Comic Sans MS Bold';fill:#000000;fill-opacity:0.49019608"
         id="path954"
         inkscape:connector-curvature="0" /></g><g
       transform="matrix(3.4985546,0,0,3.4985546,-133.84284,-424.41684)"
       id="flowRoot911"
       style="font-style:normal;font-weight:normal;font-size:40px;line-height:1.25;font-family:sans-serif;letter-spacing:0px;word-spacing:0px;fill:#000000;fill-opacity:1;stroke:none"
       aria-label="ebay"><path
         inkscape:connector-curvature="0"
         id="path939"
         style="font-style:normal;font-variant:normal;font-weight:bold;font-stretch:normal;font-family:'Comic Sans MS';-inkscape-font-specification:'Comic Sans MS Bold';fill:#c6262e;fill-opacity:1"
         d="m 77.757812,205.22656 q -4.667968,0 -7.636718,-2.22656 -3.28125,-2.46094 -3.28125,-6.93359 0,-4.94141 2.597656,-8.35938 2.890625,-3.78906 7.792969,-3.78906 3.398437,0 5.644531,1.09375 2.949219,1.44531 2.949219,4.49219 0,2.14843 -2.402344,3.80859 -1.09375,0.76172 -4.394531,2.22656 l -6.582032,2.91016 q 0.9375,1.01562 2.265625,1.52344 1.328125,0.50781 3.046875,0.50781 2.617188,0 4.433594,-1.07422 1.621094,-0.95703 2.597656,-0.95703 2.03125,0 2.03125,1.97265 0,2.22657 -3.261718,3.63282 -2.734375,1.17187 -5.800782,1.17187 z m -0.527343,-16.58203 q -1.816407,0 -3.105469,1.21094 -1.289063,1.21094 -2.070313,3.63281 2.207032,-0.95703 4.394532,-1.89453 2.636718,-1.19141 4.199218,-2.20703 -1.308593,-0.74219 -3.417968,-0.74219 z" /><path
         inkscape:connector-curvature="0"
         id="path941"
         style="font-style:normal;font-variant:normal;font-weight:bold;font-stretch:normal;font-family:'Comic Sans MS';-inkscape-font-specification:'Comic Sans MS Bold';fill:#3689e6;fill-opacity:1"
         d="m 99.535156,205.14844 q -2.734375,0 -5.195312,-0.95703 -0.722657,0.72265 -1.757813,0.72265 -1.054687,0 -1.816406,-0.70312 -0.742188,-0.70313 -0.742188,-1.75782 0,-0.46875 0.05859,-1.42578 0.05859,-0.97656 0.05859,-1.44531 v -22.12891 q 0,-1.40625 0.625,-2.5 0.78125,-1.38671 2.226562,-1.38671 2.089844,0 2.089844,2.26562 0,0.25391 -0.07813,0.82031 -0.05859,0.54688 -0.05859,0.80078 v 7.48047 q 1.445313,-0.80078 2.773438,-1.1914 1.328125,-0.41016 2.558589,-0.41016 4.58985,0 7.42188,3.33984 2.63672,3.125 2.63672,7.57813 0,4.53125 -3.06641,7.67578 -3.125,3.22266 -7.734373,3.22266 z m 0.742184,-16.81641 q -1.015621,0 -2.343746,0.58594 -1.328125,0.58594 -2.988282,1.75781 -0.01953,1.85547 0,8.30078 2.675782,1.15235 4.589844,1.15235 2.480474,0 4.082034,-1.66016 1.60156,-1.67969 1.60156,-4.21875 0,-2.53906 -1.30859,-4.19922 -1.36719,-1.71875 -3.63282,-1.71875 z" /><path
         inkscape:connector-curvature="0"
         id="path943"
         style="font-style:normal;font-variant:normal;font-weight:bold;font-stretch:normal;font-family:'Comic Sans MS';-inkscape-font-specification:'Comic Sans MS Bold';fill:#f9c440;fill-opacity:1"
         d="m 130.86328,205.61719 q -0.89844,0 -2.85156,-1.95313 -1.79688,0.85938 -3.16406,1.28906 -1.36719,0.44922 -2.32422,0.44922 -4.70703,0 -7.07031,-2.51953 -2.34375,-2.51953 -2.34375,-7.53906 0,-4.70703 3.47656,-8.04688 3.47656,-3.35937 8.32031,-3.35937 1.85547,0 4.29687,1.05469 2.94922,1.26953 2.94922,2.94922 0,0.70312 -0.44922,1.23046 -0.19531,0.78125 -0.3125,1.97266 -0.0977,1.17188 -0.0977,2.75391 0,3.73047 0.52734,5.37109 0.0586,0.17578 0.89844,2.03125 0.76172,1.67969 0.76172,1.91406 0,1.03516 -0.80078,1.71875 -0.78125,0.6836 -1.81641,0.6836 z m -4.84375,-13.39844 q 0,-0.625 0.0781,-1.42578 0.0977,-0.82031 0.27343,-1.81641 -0.39062,-0.19531 -0.70312,-0.27344 -0.29297,-0.0977 -0.50781,-0.0977 -2.65625,0 -4.64844,2.08984 -1.99219,2.07031 -1.99219,4.80469 0,2.61719 0.9375,3.94531 0.9375,1.3086 2.8125,1.3086 1.21094,0 2.28516,-0.39063 1.09375,-0.41016 2.05078,-1.19141 -0.58594,-4.64843 -0.58594,-6.95312 z" /><path
         inkscape:connector-curvature="0"
         id="path945"
         style="font-style:normal;font-variant:normal;font-weight:bold;font-stretch:normal;font-family:'Comic Sans MS';-inkscape-font-specification:'Comic Sans MS Bold';fill:#68b723;fill-opacity:1"
         d="m 155.6875,187.82422 q -2.12891,4.43359 -6.73828,13.92578 -2.5,5.09766 -3.8086,8.45703 -0.41015,1.21094 -1.28906,3.59375 -0.70312,1.83594 -2.5,1.83594 -1.11328,0 -1.95312,-0.72266 -0.83985,-0.72265 -0.83985,-1.8164 0,-1.81641 4.14063,-10.76172 -2.14844,-4.23828 -6.81641,-12.48047 -0.46875,-0.74219 -0.95703,-1.50391 -0.52734,-0.89844 -0.52734,-1.64062 0,-1.05469 0.83984,-1.85547 0.83984,-0.80078 1.93359,-0.80078 1.28907,0 2.01172,0.95703 2.77344,3.6914 6.46485,11.11328 2.08984,-4.62891 2.53906,-5.58594 1.38672,-2.91015 2.71484,-5.11719 0.83985,-1.40625 2.30469,-1.40625 1.09375,0 1.95313,0.74219 0.85937,0.74219 0.85937,1.81641 0,0.5664 -0.33203,1.25 z" /></g></g></svg>