<?xml version="1.0" encoding="UTF-8" standalone="no"?>
<svg
   xmlns:dc="http://purl.org/dc/elements/1.1/"
   xmlns:cc="http://creativecommons.org/ns#"
   xmlns:rdf="http://www.w3.org/1999/02/22-rdf-syntax-ns#"
   xmlns:svg="http://www.w3.org/2000/svg"
   xmlns="http://www.w3.org/2000/svg"
   xmlns:xlink="http://www.w3.org/1999/xlink"
   xmlns:sodipodi="http://sodipodi.sourceforge.net/DTD/sodipodi-0.dtd"
   xmlns:inkscape="http://www.inkscape.org/namespaces/inkscape"
   viewBox="0 0 512 512"
   version="1.0"
   id="svg2"
   height="512"
   width="512"
   inkscape:version="0.92.2 2405546, 2018-03-11"
   sodipodi:docname="eekboard.svg">
  <sodipodi:namedview
     pagecolor="#ffffff"
     bordercolor="#666666"
     borderopacity="1"
     objecttolerance="10"
     gridtolerance="10"
     guidetolerance="10"
     inkscape:pageopacity="0"
     inkscape:pageshadow="2"
     inkscape:window-width="1366"
     inkscape:window-height="712"
     id="namedview30"
     showgrid="false"
     inkscape:zoom="0.20654298"
     inkscape:cx="-91.221425"
     inkscape:cy="141.79115"
     inkscape:window-x="0"
     inkscape:window-y="27"
     inkscape:window-maximized="1"
     inkscape:current-layer="svg2" />
  <defs
     id="defs4">
    <linearGradient
       id="linearGradient4132">
      <stop
         id="stop4134"
         offset="0"
         style="stop-color:#f2f2f2;stop-opacity:1;" />
      <stop
         id="stop4136"
         offset="1"
         style="stop-color:#f2f2f2;stop-opacity:0;" />
    </linearGradient>
    <linearGradient
       id="linearGradient3155">
      <stop
         id="stop3157"
         offset="0"
         style="stop-color:#303030;stop-opacity:1;" />
      <stop
         id="stop3159"
         offset="1"
         style="stop-color:#303030;stop-opacity:0;" />
    </linearGradient>
    <linearGradient
       id="linearGradient6067">
      <stop
         id="stop6069"
         offset="0"
         style="stop-color:#ffffff;stop-opacity:1;" />
      <stop
         id="stop6071"
         offset="1"
         style="stop-color:#ffffff;stop-opacity:0;" />
    </linearGradient>
    <linearGradient
       id="linearGradient3142">
      <stop
         id="stop3144"
         offset="0"
         style="stop-color:#303030;stop-opacity:1;" />
      <stop
         id="stop3146"
         offset="1"
         style="stop-color:#303030;stop-opacity:0;" />
    </linearGradient>
    <linearGradient
       gradientTransform="matrix(1.6258627,0,0,1.6258627,-28.787153,-52.145846)"
       gradientUnits="userSpaceOnUse"
       y2="110.71667"
       x2="92.804863"
       y1="75.855133"
       x1="92.804863"
       id="linearGradient3148"
       xlink:href="#linearGradient3142" />
    <linearGradient
       gradientUnits="userSpaceOnUse"
       y2="119.78299"
       x2="29.731594"
       y1="96.211563"
       x1="29.731594"
       id="linearGradient6073"
       xlink:href="#linearGradient6067" />
    <linearGradient
       gradientUnits="userSpaceOnUse"
       y2="124.82345"
       x2="100.75668"
       y1="85.389313"
       x1="100.75668"
       id="linearGradient3161"
       xlink:href="#linearGradient3155" />
    <linearGradient
       gradientTransform="translate(-2.2728432)"
       gradientUnits="userSpaceOnUse"
       y2="-115.67227"
       x2="96.899597"
       y1="-101.65641"
       x1="96.899597"
       id="linearGradient4138"
       xlink:href="#linearGradient4132" />
    <filter
       style="color-interpolation-filters:sRGB"
       height="1"
       width="1"
       y="0"
       x="0"
       id="filter3004">
      <feColorMatrix
         result="result2"
         type="saturate"
         in="SourceGraphic"
         values="1"
         id="feColorMatrix3006" />
      <feFlood
         result="result1"
         flood-opacity="1"
         flood-color="rgb(254,102,0)"
         id="feFlood3008" />
      <feBlend
         result="result3"
         in="result1"
         mode="multiply"
         in2="result2"
         id="feBlend3010" />
      <feComposite
         result="result4"
         operator="in"
         in2="SourceGraphic"
         id="feComposite3012" />
    </filter>
  </defs>
  <metadata
     id="metadata7">
    <rdf:RDF>
      <cc:Work
         rdf:about="">
        <dc:format>image/svg+xml</dc:format>
        <dc:type
           rdf:resource="http://purl.org/dc/dcmitype/StillImage" />
        <dc:title></dc:title>
      </cc:Work>
    </rdf:RDF>
  </metadata>
  <g
     id="g896">
    <path
       id="path1165"
       d="M 432.91328,56.474957 C 535.10618,145.04846 538.74005,306.17452 441.03006,416.37299 343.32007,526.57148 181.27962,544.10044 79.086743,455.52694 -23.106206,366.95112 -26.740033,205.82738 70.969944,95.626584 168.67988,-14.571874 330.72033,-32.100857 432.91328,56.474957 Z"
       inkscape:connector-curvature="0"
       style="fill:#3689e6;fill-opacity:1;stroke-width:11.10954762" />
    <path
       id="path1167"
       d="M 511.63552,224.904 C 510.08416,286.21587 486.47428,349.05909 440.66913,400.71745 342.95911,510.91591 180.91867,528.44488 78.725762,439.87141 30.827125,398.35528 4.4968196,340.92296 0.19382737,280.22782 0.79908097,346.58521 27.117406,410.48267 79.078693,455.51763 181.27157,544.09344 343.31972,526.55518 441.02203,416.366 490.72697,360.30678 514.02704,291.07521 511.63552,224.904 Z"
       inkscape:connector-curvature="0"
       style="opacity:1;fill:#000000;fill-opacity:0.49019608;stroke-width:11.10954762" />
    <g
       style="fill:#000000;fill-opacity:0.49019608"
       id="g886"
       transform="translate(20,20)">
      <path
         id="path882"
         d="M 137.66602,100 C 116.79885,100 100,120.55874 100,146.09766 V 365.90039 C 100,391.43931 116.79885,412 137.66602,412 H 374.33398 C 395.20114,412 412,391.43931 412,365.90039 V 146.09766 C 412,120.55874 395.20114,100 374.33398,100 Z m 16.91015,23.10938 h 197.71289 c 17.43256,0 31.4668,17.17436 31.4668,38.50976 v 183.625 c 0,21.33539 -14.03424,38.51172 -31.4668,38.51172 H 154.57617 c -17.43257,0 -31.46679,-17.17633 -31.46679,-38.51172 v -183.625 c 0,-21.3354 14.03422,-38.50976 31.46679,-38.50976 z"
         style="fill:#000000;fill-opacity:0.49019608;fill-rule:nonzero;stroke:none;stroke-width:0.89142859"
         inkscape:connector-curvature="0" />
      <path
         inkscape:connector-curvature="0"
         style="fill:#000000;fill-opacity:0.49019608;fill-rule:nonzero;stroke:none;stroke-width:0.64933586"
         d="m 166.80664,140.22656 c -15.2001,0 -27.43555,14.97502 -27.43555,33.57813 v 160.10937 c 0,18.60311 12.23545,33.58008 27.43555,33.58008 h 172.39453 c 15.20009,0 27.4375,-14.97697 27.4375,-33.58008 V 173.80469 c 0,-18.60311 -12.23741,-33.57813 -27.4375,-33.57813 z m 93.29297,42.02149 c 14.06753,0 25.29915,1.67942 33.69336,5.03711 3.8787,1.56306 5.81836,4.34145 5.81836,8.33593 0,2.31565 -0.75265,4.3714 -2.25781,6.16602 -1.67885,1.9683 -3.76264,2.95117 -6.25196,2.95117 -0.81047,0 -1.70921,-0.14414 -2.69336,-0.43359 -9.78359,-2.77877 -19.21969,-4.16797 -28.30859,-4.16797 -4.74707,0 -9.92753,0.43437 -15.54297,1.30273 -5.61543,0.86837 -11.66464,2.19952 -18.14844,3.99414 0.52102,3.76292 0.78125,6.7735 0.78125,9.03125 0,8.04686 -0.49241,19.10434 -1.47656,33.17188 l 38.03516,-3.64844 c 11.17298,-1.15782 18.03287,-1.73633 20.58007,-1.73633 2.54721,0 4.68905,0.81069 6.42579,2.43164 1.73673,1.62095 2.60547,3.79084 2.60547,6.51172 0,5.26809 -2.66426,8.22062 -7.99024,8.85742 l -20.66602,1.82422 -40.11914,3.64649 c -0.23156,4.11026 -0.43374,8.01958 -0.60742,11.72461 -0.11578,3.64714 -0.17383,7.06208 -0.17383,10.24609 0,12.79393 0.92679,20.32037 2.7793,22.57813 1.38939,1.62095 5.9333,2.43164 13.63281,2.43164 3.58925,0 8.97385,-0.0881 16.15235,-0.26172 7.23638,-0.23157 12.67708,-0.34766 16.32422,-0.34766 1.15782,0 2.86529,-0.17218 5.12304,-0.51953 2.25776,-0.40524 3.93718,-0.60938 5.03711,-0.60938 6.13646,0 9.20508,3.01058 9.20508,9.03126 0,4.86285 -2.46012,7.78733 -7.38086,8.77148 -5.44176,1.09993 -17.22384,1.64844 -35.34375,1.64844 -17.94624,0 -29.46613,-2.37207 -34.56055,-7.11914 -5.55754,-5.15231 -8.33593,-17.02048 -8.33593,-35.60352 0,-3.70503 0.0861,-7.75848 0.25976,-12.1582 0.17368,-4.39973 0.40586,-9.14582 0.69531,-14.24024 -0.6368,-1.33149 -0.95507,-2.75069 -0.95507,-4.25586 0,-1.96829 0.55046,-3.73381 1.65039,-5.29687 1.15782,-16.73053 1.73633,-29.08916 1.73633,-37.07813 0,-2.14197 -0.29023,-5.26864 -0.86915,-9.3789 -0.57891,-4.16816 -0.86718,-7.32288 -0.86718,-9.46485 0,-6.88904 2.89448,-10.33398 8.68359,-10.33398 2.43143,0 4.51522,0.83874 6.25195,2.51758 6.94693,-1.85252 13.48855,-3.24171 19.625,-4.16797 6.19435,-0.92626 12.01137,-1.38867 17.45313,-1.38867 z"
         transform="translate(-3.8414072e-8,4.72945e-6)"
         id="path884" />
    </g>
    <g
       transform="translate(3.8414072e-8,-4.72945e-6)"
       id="g885">
      <path
         inkscape:connector-curvature="0"
         style="fill:#ffffff;fill-opacity:1;fill-rule:nonzero;stroke:none;stroke-width:0.89142859"
         d="M 137.66602,100 C 116.79885,100 100,120.55874 100,146.09766 V 365.90039 C 100,391.43931 116.79885,412 137.66602,412 H 374.33398 C 395.20114,412 412,391.43931 412,365.90039 V 146.09766 C 412,120.55874 395.20114,100 374.33398,100 Z m 16.91015,23.10938 h 197.71289 c 17.43256,0 31.4668,17.17436 31.4668,38.50976 v 183.625 c 0,21.33539 -14.03424,38.51172 -31.4668,38.51172 H 154.57617 c -17.43257,0 -31.46679,-17.17633 -31.46679,-38.51172 v -183.625 c 0,-21.3354 14.03422,-38.50976 31.46679,-38.50976 z"
         id="path875" />
      <path
         id="rect4444-3-3"
         transform="translate(-3.8414072e-8,4.72945e-6)"
         d="M 166.80664 140.22656 C 151.60654 140.22656 139.37109 155.20158 139.37109 173.80469 L 139.37109 333.91406 C 139.37109 352.51717 151.60654 367.49414 166.80664 367.49414 L 339.20117 367.49414 C 354.40126 367.49414 366.63867 352.51717 366.63867 333.91406 L 366.63867 173.80469 C 366.63867 155.20158 354.40126 140.22656 339.20117 140.22656 L 166.80664 140.22656 z M 260.09961 182.24805 C 274.16714 182.24805 285.39876 183.92747 293.79297 187.28516 C 297.67167 188.84822 299.61133 191.62661 299.61133 195.62109 C 299.61133 197.93674 298.85868 199.99249 297.35352 201.78711 C 295.67467 203.75541 293.59088 204.73828 291.10156 204.73828 C 290.29109 204.73828 289.39235 204.59414 288.4082 204.30469 C 278.62461 201.52592 269.18851 200.13672 260.09961 200.13672 C 255.35254 200.13672 250.17208 200.57109 244.55664 201.43945 C 238.94121 202.30782 232.892 203.63897 226.4082 205.43359 C 226.92922 209.19651 227.18945 212.20709 227.18945 214.46484 C 227.18945 222.5117 226.69704 233.56918 225.71289 247.63672 L 263.74805 243.98828 C 274.92103 242.83046 281.78092 242.25195 284.32812 242.25195 C 286.87533 242.25195 289.01717 243.06264 290.75391 244.68359 C 292.49064 246.30454 293.35938 248.47443 293.35938 251.19531 C 293.35938 256.4634 290.69512 259.41593 285.36914 260.05273 L 264.70312 261.87695 L 224.58398 265.52344 C 224.35242 269.6337 224.15024 273.54302 223.97656 277.24805 C 223.86078 280.89519 223.80273 284.31013 223.80273 287.49414 C 223.80273 300.28807 224.72952 307.81451 226.58203 310.07227 C 227.97142 311.69322 232.51533 312.50391 240.21484 312.50391 C 243.80409 312.50391 249.18869 312.41586 256.36719 312.24219 C 263.60357 312.01062 269.04427 311.89453 272.69141 311.89453 C 273.84923 311.89453 275.5567 311.72235 277.81445 311.375 C 280.07221 310.96976 281.75163 310.76562 282.85156 310.76562 C 288.98802 310.76562 292.05664 313.7762 292.05664 319.79688 C 292.05664 324.65973 289.59652 327.58421 284.67578 328.56836 C 279.23402 329.66829 267.45194 330.2168 249.33203 330.2168 C 231.38579 330.2168 219.8659 327.84473 214.77148 323.09766 C 209.21394 317.94535 206.43555 306.07718 206.43555 287.49414 C 206.43555 283.78911 206.52164 279.73566 206.69531 275.33594 C 206.86899 270.93621 207.10117 266.19012 207.39062 261.0957 C 206.75382 259.76421 206.43555 258.34501 206.43555 256.83984 C 206.43555 254.87155 206.98601 253.10603 208.08594 251.54297 C 209.24376 234.81244 209.82227 222.45381 209.82227 214.46484 C 209.82227 212.32287 209.53204 209.1962 208.95312 205.08594 C 208.37421 200.91778 208.08594 197.76306 208.08594 195.62109 C 208.08594 188.73205 210.98042 185.28711 216.76953 185.28711 C 219.20096 185.28711 221.28475 186.12585 223.02148 187.80469 C 229.96841 185.95217 236.51003 184.56298 242.64648 183.63672 C 248.84083 182.71046 254.65785 182.24805 260.09961 182.24805 z "
         style="fill:#ffffff;fill-opacity:1;fill-rule:nonzero;stroke:none;stroke-width:0.64933586" />
    </g>
  </g>
</svg>
