<?xml version="1.0" encoding="UTF-8" standalone="no"?>
<!-- Created with Inkscape (http://www.inkscape.org/) -->

<svg
   xmlns:dc="http://purl.org/dc/elements/1.1/"
   xmlns:cc="http://creativecommons.org/ns#"
   xmlns:rdf="http://www.w3.org/1999/02/22-rdf-syntax-ns#"
   xmlns:svg="http://www.w3.org/2000/svg"
   xmlns="http://www.w3.org/2000/svg"
   xmlns:sodipodi="http://sodipodi.sourceforge.net/DTD/sodipodi-0.dtd"
   xmlns:inkscape="http://www.inkscape.org/namespaces/inkscape"
   width="512"
   height="512"
   id="svg2"
   version="1.1"
   inkscape:version="0.92.2 2405546, 2018-03-11"
   sodipodi:docname="efax-gtk.svg">
  <defs
     id="defs4" />
  <sodipodi:namedview
     id="base"
     pagecolor="#ffffff"
     bordercolor="#666666"
     borderopacity="1.0"
     inkscape:pageopacity="0.0"
     inkscape:pageshadow="2"
     inkscape:zoom="0.35"
     inkscape:cx="225.4182"
     inkscape:cy="204.98684"
     inkscape:document-units="px"
     inkscape:current-layer="layer1"
     showgrid="false"
     inkscape:window-width="1366"
     inkscape:window-height="712"
     inkscape:window-x="0"
     inkscape:window-y="27"
     inkscape:window-maximized="1"
     showguides="false" />
  <metadata
     id="metadata7">
    <rdf:RDF>
      <cc:Work
         rdf:about="">
        <dc:format>image/svg+xml</dc:format>
        <dc:type
           rdf:resource="http://purl.org/dc/dcmitype/StillImage" />
        <dc:title />
      </cc:Work>
    </rdf:RDF>
  </metadata>
  <g
     inkscape:label="Layer 1"
     inkscape:groupmode="layer"
     id="layer1"
     transform="translate(0,-540.36218)">
    <g
       id="g901">
      <path
         id="path1165"
         d="m 432.91328,596.83714 c 102.1929,88.5735 105.82677,249.69956 8.11678,359.89803 C 343.32007,1066.9337 181.27962,1084.4626 79.086743,995.88912 -23.106206,907.3133 -26.740033,746.18956 70.969944,635.98876 168.67988,525.79031 330.72033,508.26132 432.91328,596.83714 Z"
         inkscape:connector-curvature="0"
         style="fill:#3689e6;fill-opacity:1;stroke-width:11.10954762" />
      <path
         id="path1167"
         d="M 511.63552,765.26618 C 510.08416,826.57805 486.47428,889.42127 440.66913,941.07963 342.95911,1051.2781 180.91867,1068.8071 78.725762,980.23359 30.827125,938.71746 4.4968196,881.28514 0.19382741,820.59 0.79908101,886.94739 27.117406,950.84485 79.078693,995.87981 181.27157,1084.4556 343.31972,1066.9174 441.02203,956.72818 c 49.70494,-56.05922 73.00501,-125.29079 70.61349,-191.462 z"
         inkscape:connector-curvature="0"
         style="opacity:1;fill:#000000;fill-opacity:0.49019608;stroke-width:11.10954762" />
      <path
         style="fill:#000000;stroke-width:0.31841484;fill-opacity:0.49019608"
         d="m 165.16837,965.72558 c -5.91101,-3.18055 -7.32772,-4.57105 -10.01978,-9.83402 l -1.76157,-3.44387 V 851.32207 750.19645 l 1.64788,-3.41964 c 1.40883,-2.92353 2.00094,-3.76596 4.08196,-5.80769 1.92462,-1.88827 3.12925,-2.73971 5.75527,-4.06785 l 3.32118,-1.67974 13.21421,0.0105 c 7.61686,0.006 14.08335,0.15148 15.26606,0.34337 2.5446,0.41286 7.04742,2.67618 9.2323,4.64052 1.68215,1.51237 3.39023,4.0188 5.23428,7.68053 l 1.15361,2.29082 v 100.96952 100.96953 l -1.93354,3.79252 c -2.57708,5.0549 -4.2704,6.77524 -9.30456,9.45318 l -3.74104,1.99016 h -14.56066 -14.56066 z m 57.74981,-20.17495 c -0.0663,-0.1751 -0.0839,-42.73127 -0.0391,-94.56916 l 0.0815,-94.25086 9.38386,-0.25596 c 5.16113,-0.14077 9.44706,-0.31917 9.52431,-0.39644 0.0773,-0.0776 0.26019,-7.26965 0.40654,-15.98315 0.32557,-19.38509 0.57285,-23.12334 1.67776,-25.36408 1.08,-2.19024 6.59246,-8.17768 17.94925,-19.49591 14.07133,-14.02352 27.45549,-26.53336 30.69744,-28.69213 0.9551,-0.63598 1.80466,-0.83993 4.45781,-1.07019 5.38144,-0.46702 69.69942,-0.72741 81.13027,-0.32844 10.85076,0.3787 13.41515,0.72644 15.8773,2.15292 2.14665,1.2437 5.39432,4.73861 7.09209,7.632 l 1.4764,2.51611 0.19918,35.50326 c 0.10955,19.52679 0.28612,37.25521 0.39237,39.39652 l 0.19319,3.89326 1.15617,0.17888 c 5.47211,0.84669 7.87378,1.537 11.34546,3.26102 3.14366,1.56114 5.69295,3.45696 8.29945,6.17204 3.25618,3.39181 4.87809,5.97707 6.95236,11.08185 L 432,778.97023 v 72.21707 72.21698 l -0.97832,2.47599 c -3.48475,8.81945 -9.66712,15.01854 -18.6042,18.65458 l -2.86573,1.16586 -93.25652,0.0843 c -61.95578,0.0562 -93.29698,-0.0223 -93.37707,-0.23424 z m 69.93455,-35.50321 v -11.46298 l -16.9556,0.032 c -9.32557,0.0174 -17.3138,0.13127 -17.75162,0.25305 l -0.79604,0.22134 -0.092,10.17495 c -0.0506,5.59634 -0.009,10.64072 0.094,11.20993 l 0.18603,1.03478 h 17.6576 17.6576 v -11.46288 z m 46.80698,-0.0107 v -11.47344 l -17.20617,0.0902 c -14.88121,0.0776 -17.24694,0.15474 -17.50794,0.56786 -0.3424,0.54187 -0.41676,14.44089 -0.10264,19.18443 l 0.20558,3.10454 h 17.30559 17.30558 z m 47.44381,2e-4 v -11.47335 l -17.52457,0.0902 c -15.16441,0.0776 -17.56523,0.15434 -17.82636,0.56766 -0.34536,0.54652 -0.41038,12.18052 -0.10189,18.22924 l 0.20706,4.05972 h 17.62287 17.62289 z m -94.25079,-34.06006 v -10.82609 l -16.9556,0.032 c -9.32557,0.0175 -17.3138,0.13137 -17.75162,0.25315 l -0.79604,0.22125 -0.0921,9.53825 c -0.0507,5.24595 -0.009,10.00383 0.094,10.57305 l 0.18618,1.03478 h 17.6576 17.6576 v -10.82609 z m 46.80698,-0.0107 V 865.1296 l -17.20617,0.0902 c -14.88121,0.0785 -17.24694,0.15474 -17.50794,0.56785 -0.34299,0.54285 -0.41889,13.67342 -0.10464,18.10069 l 0.20689,2.91461 h 17.30593 17.30593 z m 47.44381,2e-4 v -10.83647 l -17.52457,0.0902 c -15.16441,0.0776 -17.56523,0.15435 -17.82636,0.56766 -0.34649,0.54837 -0.41196,11.40548 -0.10339,17.14434 l 0.20814,3.87095 h 17.62309 17.62309 z m -94.25079,-34.01023 v -11.41314 l -13.97687,-0.2259 c -13.71398,-0.22154 -20.02016,-0.0727 -21.12837,0.49834 -0.51301,0.26449 -0.55722,1.09169 -0.55722,10.42548 0,5.57607 0.0896,10.58603 0.199,11.13333 l 0.19901,0.99503 h 17.63223 17.63222 z m 46.80698,10e-5 v -11.41305 l -13.66596,-0.22541 c -13.42449,-0.22144 -19.69838,-0.0717 -20.80245,0.49766 -0.50843,0.26206 -0.55708,0.99028 -0.55558,8.31597 9.6e-4,4.41583 0.0941,9.42589 0.20724,11.13333 l 0.20558,3.10454 h 17.30559 17.30558 z m 47.44381,6.8e-4 v -11.41247 l -13.68169,-0.22328 c -14.90763,-0.24335 -20.79799,-0.0601 -21.52866,0.67092 -0.36282,0.3628 -0.45186,1.81545 -0.45082,7.35487 6.4e-4,3.79649 0.0944,8.72967 0.20835,10.9626 l 0.20706,4.05972 h 17.62287 17.62289 z m 6.0361,-95.01776 c -0.008,-32.26738 -0.13477,-60.54249 -0.28265,-62.8336 -0.17603,-2.72715 -0.44445,-4.50519 -0.77731,-5.14888 -0.69684,-1.34755 -3.11368,-3.26354 -4.57,-3.62295 -2.34825,-0.57953 -25.82709,-0.93475 -55.86348,-0.84519 -16.75399,0.0499 -30.5659,0.19498 -30.69314,0.32227 -0.12724,0.1273 -0.34257,7.72149 -0.4785,16.87599 -0.22643,15.24783 -0.36111,17.60756 -1.11354,19.51027 -0.67821,1.71501 -2.92701,4.76596 -4.84876,6.57831 -2.92715,2.76053 -5.99214,4.33277 -9.2008,4.71975 -1.93454,0.23332 -26.2253,0.96091 -32.07984,0.96091 h -1.13597 v 41.07547 41.0756 h 70.52888 70.5289 l -0.0138,-58.66795 z m -120.66544,33.67234 v -4.61701 h 50.15033 50.15034 v 4.61701 4.61701 h -50.15034 -50.15033 z m 0,-30.09021 v -4.77621 h 50.15033 50.15034 v 4.77621 4.7762 h -50.15034 -50.15033 z m 46.80698,-30.09019 v -4.61701 h 26.74685 26.74684 v 4.61701 4.61702 H 346.02801 319.28116 Z M 139.85439,944.45903 c -7.24672,-2.58293 -13.81957,-8.53101 -17.47959,-15.81792 -2.38353,-4.74547 -2.53978,-10.68308 -2.28599,-86.86457 l 0.20993,-63.01699 1.12568,-2.73563 c 2.87536,-6.98781 8.55449,-13.30402 14.76805,-16.42466 2.50291,-1.257 5.63341,-2.27694 5.96656,-1.94381 0.13348,0.1334 0.28831,42.35702 0.34407,93.83008 0.0978,90.30448 0.081,93.58663 -0.47762,93.56424 -0.31845,-0.0126 -1.29545,-0.27865 -2.17109,-0.59074 z"
         id="path895"
         inkscape:connector-curvature="0" />
      <path
         inkscape:connector-curvature="0"
         id="path893"
         d="m 145.16837,945.72558 c -5.91101,-3.18055 -7.32772,-4.57105 -10.01978,-9.83402 l -1.76157,-3.44387 V 831.32207 730.19645 l 1.64788,-3.41964 c 1.40883,-2.92353 2.00094,-3.76596 4.08196,-5.80769 1.92462,-1.88827 3.12925,-2.73971 5.75527,-4.06785 l 3.32118,-1.67974 13.21421,0.0105 c 7.61686,0.006 14.08335,0.15148 15.26606,0.34337 2.5446,0.41286 7.04742,2.67618 9.2323,4.64052 1.68215,1.51237 3.39023,4.0188 5.23428,7.68053 l 1.15361,2.29082 v 100.96952 100.96953 l -1.93354,3.79252 c -2.57708,5.0549 -4.2704,6.77524 -9.30456,9.45318 l -3.74104,1.99016 h -14.56066 -14.56066 z m 57.74981,-20.17495 c -0.0663,-0.1751 -0.0839,-42.73127 -0.0391,-94.56916 l 0.0815,-94.25086 9.38386,-0.25596 c 5.16113,-0.14077 9.44706,-0.31917 9.52431,-0.39644 0.0773,-0.0776 0.26019,-7.26965 0.40654,-15.98315 0.32557,-19.38509 0.57285,-23.12334 1.67776,-25.36408 1.08,-2.19024 6.59246,-8.17768 17.94925,-19.49591 14.07133,-14.02352 27.45549,-26.53336 30.69744,-28.69213 0.9551,-0.63598 1.80466,-0.83993 4.45781,-1.07019 5.38144,-0.46702 69.69942,-0.72741 81.13027,-0.32844 10.85076,0.3787 13.41515,0.72644 15.8773,2.15292 2.14665,1.2437 5.39432,4.73861 7.09209,7.632 l 1.4764,2.51611 0.19918,35.50326 c 0.10955,19.52679 0.28612,37.25521 0.39237,39.39652 l 0.19319,3.89326 1.15617,0.17888 c 5.47211,0.84669 7.87378,1.537 11.34546,3.26102 3.14366,1.56114 5.69295,3.45696 8.29945,6.17204 3.25618,3.39181 4.87809,5.97707 6.95236,11.08185 L 412,758.97023 v 72.21707 72.21698 l -0.97832,2.47599 c -3.48475,8.81945 -9.66712,15.01854 -18.6042,18.65458 l -2.86573,1.16586 -93.25652,0.0843 c -61.95578,0.0562 -93.29698,-0.0223 -93.37707,-0.23424 z m 69.93455,-35.50321 v -11.46298 l -16.9556,0.032 c -9.32557,0.0174 -17.3138,0.13127 -17.75162,0.25305 l -0.79604,0.22134 -0.092,10.17495 c -0.0506,5.59634 -0.009,10.64072 0.094,11.20993 l 0.18603,1.03478 h 17.6576 17.6576 v -11.46288 z m 46.80698,-0.0107 v -11.47344 l -17.20617,0.0902 c -14.88121,0.0776 -17.24694,0.15474 -17.50794,0.56786 -0.3424,0.54187 -0.41676,14.44089 -0.10264,19.18443 l 0.20558,3.10454 h 17.30559 17.30558 z m 47.44381,2e-4 v -11.47335 l -17.52457,0.0902 c -15.16441,0.0776 -17.56523,0.15434 -17.82636,0.56766 -0.34536,0.54652 -0.41038,12.18052 -0.10189,18.22924 l 0.20706,4.05972 h 17.62287 17.62289 z m -94.25079,-34.06006 v -10.82609 l -16.9556,0.032 c -9.32557,0.0175 -17.3138,0.13137 -17.75162,0.25315 l -0.79604,0.22125 -0.0921,9.53825 c -0.0507,5.24595 -0.009,10.00383 0.094,10.57305 l 0.18618,1.03478 h 17.6576 17.6576 v -10.82609 z m 46.80698,-0.0107 V 845.1296 l -17.20617,0.0902 c -14.88121,0.0785 -17.24694,0.15474 -17.50794,0.56785 -0.34299,0.54285 -0.41889,13.67342 -0.10464,18.10069 l 0.20689,2.91461 h 17.30593 17.30593 z m 47.44381,2e-4 v -10.83647 l -17.52457,0.0902 c -15.16441,0.0776 -17.56523,0.15435 -17.82636,0.56766 -0.34649,0.54837 -0.41196,11.40548 -0.10339,17.14434 l 0.20814,3.87095 h 17.62309 17.62309 z m -94.25079,-34.01023 v -11.41314 l -13.97687,-0.2259 c -13.71398,-0.22154 -20.02016,-0.0727 -21.12837,0.49834 -0.51301,0.26449 -0.55722,1.09169 -0.55722,10.42548 0,5.57607 0.0896,10.58603 0.199,11.13333 l 0.19901,0.99503 h 17.63223 17.63222 z m 46.80698,10e-5 v -11.41305 l -13.66596,-0.22541 c -13.42449,-0.22144 -19.69838,-0.0717 -20.80245,0.49766 -0.50843,0.26206 -0.55708,0.99028 -0.55558,8.31597 9.6e-4,4.41583 0.0941,9.42589 0.20724,11.13333 l 0.20558,3.10454 h 17.30559 17.30558 z m 47.44381,6.8e-4 v -11.41247 l -13.68169,-0.22328 c -14.90763,-0.24335 -20.79799,-0.0601 -21.52866,0.67092 -0.36282,0.3628 -0.45186,1.81545 -0.45082,7.35487 6.4e-4,3.79649 0.0944,8.72967 0.20835,10.9626 l 0.20706,4.05972 h 17.62287 17.62289 z m 6.0361,-95.01776 c -0.008,-32.26738 -0.13477,-60.54249 -0.28265,-62.8336 -0.17603,-2.72715 -0.44445,-4.50519 -0.77731,-5.14888 -0.69684,-1.34755 -3.11368,-3.26354 -4.57,-3.62295 -2.34825,-0.57953 -25.82709,-0.93475 -55.86348,-0.84519 -16.75399,0.0499 -30.5659,0.19498 -30.69314,0.32227 -0.12724,0.1273 -0.34257,7.72149 -0.4785,16.87599 -0.22643,15.24783 -0.36111,17.60756 -1.11354,19.51027 -0.67821,1.71501 -2.92701,4.76596 -4.84876,6.57831 -2.92715,2.76053 -5.99214,4.33277 -9.2008,4.71975 -1.93454,0.23332 -26.2253,0.96091 -32.07984,0.96091 h -1.13597 v 41.07547 41.0756 h 70.52888 70.5289 l -0.0138,-58.66795 z m -120.66544,33.67234 v -4.61701 h 50.15033 50.15034 v 4.61701 4.61701 h -50.15034 -50.15033 z m 0,-30.09021 v -4.77621 h 50.15033 50.15034 v 4.77621 4.7762 h -50.15034 -50.15033 z m 46.80698,-30.09019 v -4.61701 h 26.74685 26.74684 v 4.61701 4.61702 H 326.02801 299.28116 Z M 119.85439,924.45903 c -7.24672,-2.58293 -13.81957,-8.53101 -17.47959,-15.81792 -2.383526,-4.74547 -2.539776,-10.68308 -2.28599,-86.86457 l 0.20993,-63.01699 1.12568,-2.73563 c 2.87536,-6.98781 8.55449,-13.30402 14.76805,-16.42466 2.50291,-1.257 5.63341,-2.27694 5.96656,-1.94381 0.13348,0.1334 0.28831,42.35702 0.34407,93.83008 0.0978,90.30448 0.081,93.58663 -0.47762,93.56424 -0.31845,-0.0126 -1.29545,-0.27865 -2.17109,-0.59074 z"
         style="fill:#ffffff;stroke-width:0.31841484" />
    </g>
  </g>
</svg>
