<?xml version="1.0" encoding="UTF-8" standalone="no"?>
<!-- Created with Inkscape (http://www.inkscape.org/) -->

<svg
   xmlns:dc="http://purl.org/dc/elements/1.1/"
   xmlns:cc="http://creativecommons.org/ns#"
   xmlns:rdf="http://www.w3.org/1999/02/22-rdf-syntax-ns#"
   xmlns:svg="http://www.w3.org/2000/svg"
   xmlns="http://www.w3.org/2000/svg"
   xmlns:sodipodi="http://sodipodi.sourceforge.net/DTD/sodipodi-0.dtd"
   xmlns:inkscape="http://www.inkscape.org/namespaces/inkscape"
   width="512"
   height="512"
   id="svg2"
   version="1.1"
   inkscape:version="0.92.2 2405546, 2018-03-11"
   sodipodi:docname="eric.svg">
  <defs
     id="defs4">
    <radialGradient
       id="polygon413_1_"
       cx="7976.3457"
       cy="-10508.842"
       r="13293.867"
       gradientTransform="matrix(0.0222,0,0,-0.0248,721.1671,674.6745)"
       gradientUnits="userSpaceOnUse">
      <stop
         offset="0"
         style="stop-color:#80FF80"
         id="stop388" />
      <stop
         offset="1"
         style="stop-color:#0f0"
         id="stop390" />
    </radialGradient>
  </defs>
  <sodipodi:namedview
     id="base"
     pagecolor="#ffffff"
     bordercolor="#666666"
     borderopacity="1.0"
     inkscape:pageopacity="0.0"
     inkscape:pageshadow="2"
     inkscape:zoom="0.35"
     inkscape:cx="859.36812"
     inkscape:cy="125.60757"
     inkscape:document-units="px"
     inkscape:current-layer="layer1"
     showgrid="false"
     inkscape:window-width="1366"
     inkscape:window-height="717"
     inkscape:window-x="0"
     inkscape:window-y="0"
     inkscape:window-maximized="1" />
  <metadata
     id="metadata7">
    <rdf:RDF>
      <cc:Work
         rdf:about="">
        <dc:format>image/svg+xml</dc:format>
        <dc:type
           rdf:resource="http://purl.org/dc/dcmitype/StillImage" />
        <dc:title></dc:title>
      </cc:Work>
    </rdf:RDF>
  </metadata>
  <g
     inkscape:label="Layer 1"
     inkscape:groupmode="layer"
     id="layer1"
     transform="translate(0,-540.36218)">
    <g
       transform="translate(-1.8759818e-7,540.36218)"
       id="g891">
      <path
         id="path943"
         d="m 432.91326,56.474 c 102.19291,88.57459 105.82678,249.69971 8.1168,359.89879 C 343.32009,526.57182 181.27965,544.10062 79.086742,455.52602 -23.106205,366.95146 -26.740032,205.82634 70.969941,95.62726 168.67991,-14.57182 330.72036,-32.10059 432.91326,56.474 Z"
         inkscape:connector-curvature="0"
         style="fill:#3689e6;fill-opacity:1;stroke-width:11.10955811" />
      <path
         id="path947"
         d="m 511.6355,224.90355 c -1.55139,61.31164 -25.16123,124.1546 -70.96638,175.81447 C 342.95915,510.91712 180.9187,528.44582 78.725762,439.87132 30.827125,398.35567 4.4968186,340.92287 0.19382662,280.22884 0.79907962,346.58551 27.117405,410.48221 79.078692,455.51912 181.2716,544.09362 343.31975,526.55622 441.02201,416.3658 490.72696,360.30769 514.02703,291.07483 511.6355,224.90355 Z"
         inkscape:connector-curvature="0"
         style="opacity:1;fill:#000000;fill-opacity:0.49019608;stroke-width:11.10955811" />
      <g
         style="fill:#000000;fill-opacity:0.49019608"
         id="g73"
         transform="matrix(1.248,0,0,1.248,-58.588013,-636.89078)">
        <path
           d="m 266.59772,606.55258 c -10.28907,0.0417 -20.14077,0.93726 -28.80526,2.4369 -25.50403,4.47804 -30.14869,13.78819 -30.14869,31.00264 v 22.74429 h 60.28695 v 7.57101 h -82.90628 c -17.53726,0 -32.86676,10.41406 -37.66762,30.22158 -5.52987,22.70265 -5.82146,36.897 0,60.56814 4.26976,17.65183 14.48594,30.2216 32.01278,30.2216 h 17.73514 v -30.17995 c 0,-19.6513 17.24567,-36.89698 37.70929,-36.89698 h 63.10918 c 16.75622,0 32.62724,-13.67365 32.62724,-30.30491 v -53.81982 c 0,-16.15221 -16.23552,-28.31582 -32.62724,-31.00264 -10.33074,-1.70791 -21.06765,-2.47855 -31.3463,-2.4369 m -32.58559,18.1413 c 6.22761,0 11.30967,5.12371 11.30967,11.43461 0,6.26927 -5.08206,11.30967 -11.30967,11.30967 -6.26926,0 -11.35132,-5.0404 -11.35132,-11.30967 0,-6.30048 5.0404,-11.43461 11.35132,-11.43461 m 0,0"
           id="path69"
           inkscape:connector-curvature="0"
           style="fill:#000000;fill-opacity:0.49019608;fill-rule:nonzero;stroke:none" />
        <path
           d="m 339.13163,670.28661 v 26.48294 c 0,20.50525 -17.61018,35.3557 -37.66764,35.3557 h -66.15007 c -16.47505,0 -30.1487,16.43338 -30.1487,32.75221 v 56.78782 c 0,16.15225 14.19436,25.62901 30.1487,30.26331 19.07854,5.5298 39.86499,6.5921 62.6926,0 15.17327,-4.3531 30.14868,-13.10096 30.14868,-30.26331 v -22.7443 h -60.20364 v -7.571 h 90.39401 c 17.49558,0 24.04608,-12.12196 30.14868,-30.22158 6.3005,-18.67242 5.9777,-36.65749 0,-60.56815 -4.3531,-17.28734 -12.6114,-30.22159 -30.14868,-30.22159 m -56.50668,143.76601 c 6.22761,0 11.30966,5.04043 11.30966,11.30967 0,6.26927 -5.0404,11.43469 -11.30966,11.43469 -6.26925,0 -11.35133,-5.16542 -11.35133,-11.43469 0,-6.26924 5.08208,-11.30967 11.35133,-11.30967 m 0,0"
           id="path71"
           inkscape:connector-curvature="0"
           style="fill:#000000;fill-opacity:0.49019608;fill-rule:nonzero;stroke:none" />
      </g>
      <g
         transform="matrix(1.248,0,0,1.248,-78.588013,-656.89078)"
         id="g858">
        <path
           style="fill:#ffffff;fill-opacity:1;fill-rule:nonzero;stroke:none"
           inkscape:connector-curvature="0"
           id="path61"
           d="m 266.59772,606.55258 c -10.28907,0.0417 -20.14077,0.93726 -28.80526,2.4369 -25.50403,4.47804 -30.14869,13.78819 -30.14869,31.00264 v 22.74429 h 60.28695 v 7.57101 h -82.90628 c -17.53726,0 -32.86676,10.41406 -37.66762,30.22158 -5.52987,22.70265 -5.82146,36.897 0,60.56814 4.26976,17.65183 14.48594,30.2216 32.01278,30.2216 h 17.73514 v -30.17995 c 0,-19.6513 17.24567,-36.89698 37.70929,-36.89698 h 63.10918 c 16.75622,0 32.62724,-13.67365 32.62724,-30.30491 v -53.81982 c 0,-16.15221 -16.23552,-28.31582 -32.62724,-31.00264 -10.33074,-1.70791 -21.06765,-2.47855 -31.3463,-2.4369 m -32.58559,18.1413 c 6.22761,0 11.30967,5.12371 11.30967,11.43461 0,6.26927 -5.08206,11.30967 -11.30967,11.30967 -6.26926,0 -11.35132,-5.0404 -11.35132,-11.30967 0,-6.30048 5.0404,-11.43461 11.35132,-11.43461 m 0,0" />
        <path
           style="fill:#ffffff;fill-opacity:1;fill-rule:nonzero;stroke:none"
           inkscape:connector-curvature="0"
           id="path65"
           d="m 339.13163,670.28661 v 26.48294 c 0,20.50525 -17.61018,35.3557 -37.66764,35.3557 h -66.15007 c -16.47505,0 -30.1487,16.43338 -30.1487,32.75221 v 56.78782 c 0,16.15225 14.19436,25.62901 30.1487,30.26331 19.07854,5.5298 39.86499,6.5921 62.6926,0 15.17327,-4.3531 30.14868,-13.10096 30.14868,-30.26331 v -22.7443 h -60.20364 v -7.571 h 90.39401 c 17.49558,0 24.04608,-12.12196 30.14868,-30.22158 6.3005,-18.67242 5.9777,-36.65749 0,-60.56815 -4.3531,-17.28734 -12.6114,-30.22159 -30.14868,-30.22159 m -56.50668,143.76601 c 6.22761,0 11.30966,5.04043 11.30966,11.30967 0,6.26927 -5.0404,11.43469 -11.30966,11.43469 -6.26925,0 -11.35133,-5.16542 -11.35133,-11.43469 0,-6.26924 5.08208,-11.30967 11.35133,-11.30967 m 0,0" />
      </g>
    </g>
  </g>
</svg>
