<?xml version="1.0" encoding="UTF-8" standalone="no"?>
<!-- Created with Inkscape (http://www.inkscape.org/) -->

<svg
   xmlns:dc="http://purl.org/dc/elements/1.1/"
   xmlns:cc="http://creativecommons.org/ns#"
   xmlns:rdf="http://www.w3.org/1999/02/22-rdf-syntax-ns#"
   xmlns:svg="http://www.w3.org/2000/svg"
   xmlns="http://www.w3.org/2000/svg"
   xmlns:sodipodi="http://sodipodi.sourceforge.net/DTD/sodipodi-0.dtd"
   xmlns:inkscape="http://www.inkscape.org/namespaces/inkscape"
   id="svg2"
   version="1.1"
   inkscape:version="0.92.2 2405546, 2018-03-11"
   width="512"
   height="512"
   sodipodi:docname="etube.svg">
  <metadata
     id="metadata8">
    <rdf:RDF>
      <cc:Work
         rdf:about="">
        <dc:format>image/svg+xml</dc:format>
        <dc:type
           rdf:resource="http://purl.org/dc/dcmitype/StillImage" />
        <dc:title></dc:title>
      </cc:Work>
    </rdf:RDF>
  </metadata>
  <defs
     id="defs6">
    <clipPath
       clipPathUnits="userSpaceOnUse"
       id="clipPath4141">
      <rect
         style="opacity:1;fill:none;fill-opacity:1;stroke:#000000;stroke-width:1;stroke-miterlimit:4;stroke-dasharray:none;stroke-dashoffset:0;stroke-opacity:1"
         id="rect4143"
         width="416"
         height="417"
         x="51"
         y="54"
         ry="60.628601" />
    </clipPath>
    <clipPath
       clipPathUnits="userSpaceOnUse"
       id="clipPath4145">
      <rect
         style="opacity:1;fill:none;fill-opacity:1;stroke:#000000;stroke-width:1;stroke-miterlimit:4;stroke-dasharray:none;stroke-dashoffset:0;stroke-opacity:1"
         id="rect4147"
         width="416"
         height="417"
         x="51"
         y="54"
         ry="60.628601" />
    </clipPath>
    <clipPath
       clipPathUnits="userSpaceOnUse"
       id="clipPath4149">
      <rect
         style="opacity:1;fill:none;fill-opacity:1;stroke:#000000;stroke-width:1;stroke-miterlimit:4;stroke-dasharray:none;stroke-dashoffset:0;stroke-opacity:1"
         id="rect4151"
         width="416"
         height="417"
         x="51"
         y="54"
         ry="60.628601" />
    </clipPath>
  </defs>
  <sodipodi:namedview
     pagecolor="#ffffff"
     bordercolor="#666666"
     borderopacity="1"
     objecttolerance="10"
     gridtolerance="10"
     guidetolerance="10"
     inkscape:pageopacity="0"
     inkscape:pageshadow="2"
     inkscape:window-width="1366"
     inkscape:window-height="717"
     id="namedview4"
     showgrid="false"
     inkscape:zoom="0.1767767"
     inkscape:cx="66.140025"
     inkscape:cy="335.61719"
     inkscape:window-x="0"
     inkscape:window-y="0"
     inkscape:window-maximized="1"
     inkscape:current-layer="svg2" />
  <g
     id="g4550">
    <path
       style="fill:#3689e6;fill-opacity:1;stroke-width:11.10955811"
       inkscape:connector-curvature="0"
       d="M 432.91327,56.473965 C 535.10618,145.04855 538.74005,306.17367 441.03007,416.37275 343.3201,526.57182 181.27964,544.10062 79.086729,455.52601 -23.106186,366.95142 -26.740042,205.8263 70.969928,95.627225 168.6799,-14.571855 330.72036,-32.100625 432.91327,56.473965 Z"
       id="path27" />
    <path
       style="opacity:1;fill:#000000;fill-opacity:0.49019608;stroke-width:11.10955811"
       inkscape:connector-curvature="0"
       d="M 511.63551,224.90351 C 510.08412,286.21516 486.47428,349.05812 440.66913,400.71798 342.95915,510.91712 180.91869,528.44582 78.725776,439.87128 30.827124,398.35563 4.4968216,340.92283 0.19382778,280.2288 0.79907944,346.58547 27.117411,410.48217 79.078682,455.51906 181.27159,544.09362 343.31975,526.55622 441.02202,416.36576 490.72697,360.30765 514.02704,291.0748 511.63551,224.90351 Z"
       id="path51" />
    <path
       style="opacity:1;fill:#000000;fill-opacity:0.49019608;stroke:none;stroke-width:1.01626039;stroke-miterlimit:4;stroke-dasharray:none;stroke-opacity:1"
       d="m 274.98346,120.00119 c -68.23161,0.36742 -125.34916,47.22148 -124.9817,102.52338 0.0481,7.21802 4.09276,22.86769 8.98947,34.77825 l 8.90362,21.65488 -7.93659,15.0881 c -10.91948,20.75835 -10.97893,57.12237 -0.12676,77.54625 7.02941,13.22941 21.69873,29.14888 38.39699,41.67012 23.88648,17.91147 85.83018,24.44272 124.62391,13.13973 10.97593,-3.19799 28.61156,-10.63789 39.19024,-16.53353 10.57858,-5.89565 22.3647,-10.71909 26.18946,-10.71909 16.27244,0 19.21709,-22.7842 3.586,-27.74532 -5.57579,-1.76968 -10.24822,0.53887 -17.77245,8.77686 -23.54387,25.77718 -94.17769,30.70173 -132.60149,9.24503 -27.98707,-15.62863 -43.76564,-39.42782 -43.76564,-66.01348 0,-10.88608 1.24041,-19.76862 2.75591,-19.73922 1.51571,0.0294 10.02631,2.58685 18.91321,5.68155 60.36833,21.02208 152.64678,7.44209 165.83818,-24.40469 4.06771,-9.82053 3.74144,-12.40082 -2.67207,-21.06199 -18.81586,-25.41018 -94.89368,-37.67651 -146.2564,-23.58281 -14.14563,3.88148 -28.61261,8.3188 -32.14899,9.86041 -5.65314,2.46444 -6.42984,0.52161 -6.42984,-16.07965 0,-33.89039 17.30193,-58.0426 53.27652,-74.37324 14.71066,-6.67785 24.59241,-8.28815 49.60049,-8.07766 36.43674,0.3068 71.39461,11.32315 74.5798,23.50307 1.2378,4.73346 5.02906,7.23329 10.97048,7.23329 19.54692,0 22.32974,-23.57546 3.3039,-27.98861 -5.42254,-1.25778 -19.77888,-7.01202 -31.90373,-12.78807 -27.31389,-13.01183 -60.56177,-21.71183 -82.52252,-21.59356 z m 12.16452,127.93802 c 28.1536,0.43266 51.33415,11.98944 49.40434,31.68295 -0.88703,9.05251 -4.16224,12.68709 -17.48627,19.40598 -20.03753,10.10436 -42.57473,10.5017 -69.43998,1.22463 -10.83409,-3.74126 -23.89998,-11.00352 -29.0354,-16.13894 l -9.33701,-9.33908 17.5721,-11.14229 c 17.46773,-11.07771 39.05929,-15.98928 58.32222,-15.69325 z"
       id="path3739"
       inkscape:connector-curvature="0"
       sodipodi:nodetypes="sccccscccsccsscsccscscccsssssccccccs" />
    <path
       sodipodi:nodetypes="sccccscccsccsscsccscscccsssssccccccs"
       inkscape:connector-curvature="0"
       id="rect4488"
       d="m 254.98346,100.00119 c -68.23161,0.36742 -125.34916,47.22148 -124.9817,102.52338 0.0481,7.21802 4.09276,22.86769 8.98947,34.77825 l 8.90362,21.65488 -7.93659,15.0881 c -10.91948,20.75835 -10.97893,57.12237 -0.12676,77.54625 7.02941,13.22941 21.69873,29.14888 38.39699,41.67012 23.88648,17.91147 85.83018,24.44272 124.62391,13.13973 10.97593,-3.19799 28.61156,-10.63789 39.19024,-16.53353 10.57858,-5.89565 22.3647,-10.71909 26.18946,-10.71909 16.27244,0 19.21709,-22.7842 3.586,-27.74532 -5.57579,-1.76968 -10.24822,0.53887 -17.77245,8.77686 -23.54387,25.77718 -94.17769,30.70173 -132.60149,9.24503 -27.98707,-15.62863 -43.76564,-39.42782 -43.76564,-66.01348 0,-10.88608 1.24041,-19.76862 2.75591,-19.73922 1.51571,0.0294 10.02631,2.58685 18.91321,5.68155 60.36833,21.02208 152.64678,7.44209 165.83818,-24.40469 4.06771,-9.82053 3.74144,-12.40082 -2.67207,-21.06199 -18.81586,-25.41018 -94.89368,-37.67651 -146.2564,-23.58281 -14.14563,3.88148 -28.61261,8.3188 -32.14899,9.86041 -5.65314,2.46444 -6.42984,0.52161 -6.42984,-16.07965 0,-33.89039 17.30193,-58.0426 53.27652,-74.37324 14.71066,-6.67785 24.59241,-8.28815 49.60049,-8.07766 36.43674,0.3068 71.39461,11.32315 74.5798,23.50307 1.2378,4.73346 5.02906,7.23329 10.97048,7.23329 19.54692,0 22.32974,-23.57546 3.3039,-27.98861 -5.42254,-1.25778 -19.77888,-7.01202 -31.90373,-12.78807 -27.31389,-13.01183 -60.56177,-21.711829 -82.52252,-21.59356 z m 12.16452,127.93802 c 28.1536,0.43266 51.33415,11.98944 49.40434,31.68295 -0.88703,9.05251 -4.16224,12.68709 -17.48627,19.40598 -20.03753,10.10436 -42.57473,10.5017 -69.43998,1.22463 -10.83409,-3.74126 -23.89998,-11.00352 -29.0354,-16.13894 l -9.33701,-9.33908 17.5721,-11.14229 c 17.46773,-11.07771 39.05929,-15.98928 58.32222,-15.69325 z"
       style="opacity:1;fill:#ffffff;fill-opacity:1;stroke:none;stroke-width:1.01626039;stroke-miterlimit:4;stroke-dasharray:none;stroke-opacity:1" />
  </g>
</svg>
