<?xml version="1.0" encoding="UTF-8" standalone="no"?>
<!-- Created with Inkscape (http://www.inkscape.org/) -->

<svg
   xmlns:dc="http://purl.org/dc/elements/1.1/"
   xmlns:cc="http://creativecommons.org/ns#"
   xmlns:rdf="http://www.w3.org/1999/02/22-rdf-syntax-ns#"
   xmlns:svg="http://www.w3.org/2000/svg"
   xmlns="http://www.w3.org/2000/svg"
   xmlns:sodipodi="http://sodipodi.sourceforge.net/DTD/sodipodi-0.dtd"
   xmlns:inkscape="http://www.inkscape.org/namespaces/inkscape"
   width="512"
   height="512"
   id="svg2"
   version="1.1"
   inkscape:version="0.92.2 2405546, 2018-03-11"
   sodipodi:docname="evince.svg">
  <defs
     id="defs4">
    <radialGradient
       id="polygon413_1_"
       cx="7976.3457"
       cy="-10508.842"
       r="13293.867"
       gradientTransform="matrix(0.0222,0,0,-0.0248,721.1671,674.6745)"
       gradientUnits="userSpaceOnUse">
      <stop
         offset="0"
         style="stop-color:#80FF80"
         id="stop388" />
      <stop
         offset="1"
         style="stop-color:#0f0"
         id="stop390" />
    </radialGradient>
  </defs>
  <sodipodi:namedview
     id="base"
     pagecolor="#ffffff"
     bordercolor="#666666"
     borderopacity="1.0"
     inkscape:pageopacity="0.0"
     inkscape:pageshadow="2"
     inkscape:zoom="0.29550535"
     inkscape:cx="18.419753"
     inkscape:cy="274.43915"
     inkscape:document-units="px"
     inkscape:current-layer="layer1"
     showgrid="false"
     inkscape:window-width="1366"
     inkscape:window-height="717"
     inkscape:window-x="0"
     inkscape:window-y="0"
     inkscape:window-maximized="1" />
  <metadata
     id="metadata7">
    <rdf:RDF>
      <cc:Work
         rdf:about="">
        <dc:format>image/svg+xml</dc:format>
        <dc:type
           rdf:resource="http://purl.org/dc/dcmitype/StillImage" />
        <dc:title></dc:title>
      </cc:Work>
    </rdf:RDF>
  </metadata>
  <g
     inkscape:label="Layer 1"
     inkscape:groupmode="layer"
     id="layer1"
     transform="translate(0,-540.36218)">
    <g
       id="g853">
      <path
         id="path864"
         d="m 432.91329,596.83615 c 102.19291,88.57459 105.82673,249.69971 8.1168,359.89879 C 343.32012,1066.934 181.27964,1084.4628 79.086727,995.8882 -23.106181,907.31361 -26.740046,746.18849 70.969927,635.98941 168.6799,525.79033 330.72034,508.26156 432.91329,596.83615 Z"
         inkscape:connector-curvature="0"
         style="fill:#c6262e;fill-opacity:1;stroke-width:11.10955811" />
      <path
         id="path868"
         d="M 511.63552,765.2657 C 510.0841,826.57734 486.47426,889.42031 440.66911,941.08017 342.95913,1051.2793 180.91869,1068.808 78.725782,980.23347 30.827111,938.71782 4.4968051,881.28502 0.193813,820.59099 0.79906654,886.94766 27.117391,950.84436 79.078677,995.88125 181.27159,1084.4558 343.31974,1066.9184 441.02204,956.72795 490.72695,900.66984 514.02705,831.43699 511.63552,765.2657 Z"
         inkscape:connector-curvature="0"
         style="opacity:1;fill:#000000;fill-opacity:0.49019608;stroke-width:11.10955811" />
      <path
         d="m 120.00101,913.10803 c 53.20994,-15.17864 103.52507,-40.43959 147.48388,-74.04512 14.93217,-11.41517 29.43963,-24.14783 38.54248,-40.59211 4.55132,-8.22204 7.6667,-17.31052 8.46832,-26.67403 0.80202,-9.36352 -0.77368,-19.00552 -5.09108,-27.35272 -3.65208,-7.06072 -9.20169,-13.08121 -15.7504,-17.58758 -6.54891,-4.50616 -14.07708,-7.51844 -21.86305,-9.1219 -15.57177,-3.20691 -31.87387,-0.78987 -46.95227,4.25077 -20.38396,6.81423 -39.34167,18.61544 -53.04528,35.17293 -13.70359,16.5573 -21.859,38.02015 -20.7716,59.48543 1.18482,23.36039 13.20862,45.4201 30.32673,61.35987 17.1183,15.93996 38.99291,26.13083 61.62639,32.03285 33.07854,8.62569 68.41551,8.42558 101.39421,-0.57317 32.97869,-8.99976 63.51887,-26.77711 87.63066,-51.00961 l -0.2471,-62.88919 c -21.28786,32.90172 -53.59435,58.53694 -90.473,71.79053 -27.77946,9.98347 -58.7316,12.93134 -86.91511,4.15394 -14.09186,-4.38888 -27.33469,-11.67948 -38.20891,-21.65889 -10.8744,-9.97942 -19.33159,-22.67339 -23.82863,-36.73102 -5.20814,-16.28063 -4.85513,-34.67976 2.94665,-49.88899 3.90079,-7.60452 9.60738,-14.31302 16.65249,-19.15175 7.04511,-4.83872 15.43141,-7.77059 23.97183,-8.09505 5.71447,-0.21671 11.49356,0.73115 16.758,2.96489 5.26465,2.23312 10.00049,5.76632 13.47352,10.30955 4.00083,5.23365 6.24875,11.70661 6.81423,18.27012 0.56507,6.56328 -0.50633,13.21225 -2.66392,19.4365 -4.31639,12.44829 -12.77437,22.99197 -21.58113,32.79174 -35.68858,39.71313 -79.86735,71.75873 -128.69872,93.35283 H 120"
         id="path42"
         style="color:#000000;display:inline;overflow:visible;visibility:visible;fill:#000000;fill-opacity:0.49019608;fill-rule:nonzero;stroke:none;stroke-width:0.69333327;marker:none;enable-background:accumulate"
         inkscape:connector-curvature="0" />
      <path
         inkscape:connector-curvature="0"
         style="color:#000000;display:inline;overflow:visible;visibility:visible;fill:#ffffff;fill-opacity:1;fill-rule:nonzero;stroke:none;stroke-width:0.69333327;marker:none;enable-background:accumulate"
         id="path14726"
         d="m 100.00101,893.10803 c 53.20994,-15.17864 103.52507,-40.43959 147.48388,-74.04512 14.93217,-11.41517 29.43963,-24.14783 38.54248,-40.59211 4.55132,-8.22204 7.6667,-17.31052 8.46832,-26.67403 0.80202,-9.36352 -0.77368,-19.00552 -5.09108,-27.35272 -3.65208,-7.06072 -9.20169,-13.08121 -15.7504,-17.58758 -6.54891,-4.50616 -14.07708,-7.51844 -21.86305,-9.1219 -15.57177,-3.20691 -31.87387,-0.78987 -46.95227,4.25077 -20.38396,6.81423 -39.34167,18.61544 -53.04528,35.17293 -13.70359,16.5573 -21.859,38.02015 -20.7716,59.48543 1.18482,23.36039 13.20862,45.4201 30.32673,61.35987 17.1183,15.93996 38.99291,26.13083 61.62639,32.03285 33.07854,8.62569 68.41551,8.42558 101.39421,-0.57317 32.97869,-8.99976 63.51887,-26.77711 87.63066,-51.00961 l -0.2471,-62.88919 c -21.28786,32.90172 -53.59435,58.53694 -90.473,71.79053 -27.77946,9.98347 -58.7316,12.93134 -86.91511,4.15394 -14.09186,-4.38888 -27.33469,-11.67948 -38.20891,-21.65889 -10.8744,-9.97942 -19.33159,-22.67339 -23.82863,-36.73102 -5.20814,-16.28063 -4.85513,-34.67976 2.94665,-49.88899 3.90079,-7.60452 9.60738,-14.31302 16.65249,-19.15175 7.04511,-4.83872 15.43141,-7.77059 23.97183,-8.09505 5.71447,-0.21671 11.49356,0.73115 16.758,2.96489 5.26465,2.23312 10.00049,5.76632 13.47352,10.30955 4.00083,5.23365 6.24875,11.70661 6.81423,18.27012 0.56507,6.56328 -0.50633,13.21225 -2.66392,19.4365 -4.31639,12.44829 -12.77437,22.99197 -21.58113,32.79174 -35.68858,39.71313 -79.86735,71.75873 -128.69872,93.35283 H 100" />
    </g>
  </g>
</svg>
