<?xml version="1.0" encoding="UTF-8" standalone="no"?>
<svg
   xmlns:dc="http://purl.org/dc/elements/1.1/"
   xmlns:cc="http://creativecommons.org/ns#"
   xmlns:rdf="http://www.w3.org/1999/02/22-rdf-syntax-ns#"
   xmlns:svg="http://www.w3.org/2000/svg"
   xmlns="http://www.w3.org/2000/svg"
   xmlns:sodipodi="http://sodipodi.sourceforge.net/DTD/sodipodi-0.dtd"
   xmlns:inkscape="http://www.inkscape.org/namespaces/inkscape"
   height="512"
   id="Layer_1"
   version="1.1"
   viewBox="0 0 512 512"
   width="512"
   xml:space="preserve"
   inkscape:version="0.92.2 2405546, 2018-03-11"
   sodipodi:docname="evolution.svg"><metadata
     id="metadata52"><rdf:RDF><cc:Work
         rdf:about=""><dc:format>image/svg+xml</dc:format><dc:type
           rdf:resource="http://purl.org/dc/dcmitype/StillImage" /><dc:title></dc:title></cc:Work></rdf:RDF></metadata><defs
     id="defs50" /><sodipodi:namedview
     pagecolor="#ffffff"
     bordercolor="#666666"
     borderopacity="1"
     objecttolerance="10"
     gridtolerance="10"
     guidetolerance="10"
     inkscape:pageopacity="0"
     inkscape:pageshadow="2"
     inkscape:window-width="1366"
     inkscape:window-height="717"
     id="namedview48"
     showgrid="false"
     inkscape:zoom="0.65185388"
     inkscape:cx="54.713562"
     inkscape:cy="252.88989"
     inkscape:window-x="0"
     inkscape:window-y="0"
     inkscape:window-maximized="1"
     inkscape:current-layer="Layer_1" /><g
     id="g18"
     transform="translate(0,447.999)" /><g
     id="g20"
     transform="translate(0,447.999)" /><g
     id="g22"
     transform="translate(0,447.999)" /><g
     id="g24"
     transform="translate(0,447.999)" /><g
     id="g26"
     transform="translate(0,447.999)" /><g
     id="g28"
     transform="translate(0,447.999)" /><g
     id="g30"
     transform="translate(0,447.999)" /><g
     id="g32"
     transform="translate(0,447.999)" /><g
     id="g34"
     transform="translate(0,447.999)" /><g
     id="g36"
     transform="translate(0,447.999)" /><g
     id="g38"
     transform="translate(0,447.999)" /><g
     id="g40"
     transform="translate(0,447.999)" /><g
     id="g42"
     transform="translate(0,447.999)" /><g
     id="g44"
     transform="translate(0,447.999)" /><g
     id="g46"
     transform="translate(0,447.999)" /><g
     id="g827"
     transform="translate(1.8019335e-8,489.99996)"><path
       style="fill:#3689e6;fill-opacity:1;stroke-width:11.10955811"
       inkscape:connector-curvature="0"
       d="m 432.91327,-433.52599 c 102.19291,88.57459 105.82678,249.6997 8.1168,359.898785 C 343.3201,36.571877 181.27964,54.100646 79.086729,-34.473944 -23.106186,-123.04853 -26.740042,-284.17365 70.969928,-394.37273 168.6799,-504.57181 330.72036,-522.10058 432.91327,-433.52599 Z"
       id="path27" /><path
       style="opacity:1;fill:#000000;fill-opacity:0.49019608;stroke-width:11.10955811"
       inkscape:connector-curvature="0"
       d="m 511.63551,-265.09645 c -1.55139,61.31165 -25.16123,124.15461 -70.96638,175.81448 C 342.95915,20.917149 180.91869,38.44588 78.725776,-50.128672 30.827124,-91.644326 4.4968216,-149.07712 0.19382768,-209.77116 0.79907934,-143.41448 27.117411,-79.517787 79.078682,-34.480899 181.27159,54.093653 343.31975,36.55623 441.02202,-73.634197 490.72697,-129.6923 514.02704,-198.92516 511.63551,-265.09645 Z"
       id="path51" /><path
       style="fill:#000000;fill-opacity:0.49019608;stroke-width:0.69387025"
       d="m 140.7002,-102.66858 c -1.5273,-0.48136 -3.64594,-1.33156 -4.70807,-1.88927 l -1.93118,-1.01408 48.25484,-48.81638 48.2549,-48.81642 10.92004,10.7003 c 6.00596,5.88521 12.61123,11.77194 14.67816,13.08193 11.49042,7.28201 25.37124,7.93171 37.58334,1.75895 3.34848,-1.69247 6.97492,-4.80952 15.95814,-13.71647 l 11.62497,-11.52631 48.64816,48.4693 48.64697,48.47048 -3.65979,1.74047 -3.65991,1.74062 -133.91653,0.34545 c -106.50702,0.27553 -134.48555,0.16706 -136.69405,-0.52887 z m -18.26753,-16.1187 c -2.15325,-5.50004 -2.23373,-8.72073 -2.37567,-95.04529 -0.14049,-86.14791 -0.12182,-87.60023 1.26436,-92.1134 0.77456,-2.52204 1.67158,-4.58597 1.99332,-4.58646 0.40569,-7.5e-4 76.34583,76.01689 96.45404,96.55148 0.0801,0.082 -21.61428,21.97693 -48.20984,48.65567 -48.33562,48.48669 -48.35608,48.506 -49.12636,46.53819 z m 257.95699,-46.73295 -48.23987,-48.08912 48.0693,-48.70545 c 26.4381,-26.78805 48.26858,-48.70575 48.51225,-48.70598 0.2434,-3.4e-4 1.03487,1.79373 1.7585,3.98691 1.26156,3.82394 1.32143,7.63461 1.45776,92.80298 0.13606,85.1684 0.0884,88.97918 -1.16081,92.80716 -0.71659,2.19546 -1.4951,3.99209 -1.73015,3.99251 -0.23509,4.5e-4 -22.1353,-21.63946 -48.66702,-48.08863 z M 270.193,-189.60304 c -1.59444,-0.51878 -3.93797,-1.59213 -5.20784,-2.38518 -1.26992,-0.79299 -31.3429,-30.39753 -66.82893,-65.78775 l -64.52007,-64.34577 3.70072,-1.67868 3.70068,-1.6786 133.22263,-0.39848 c 131.67621,-0.39375 133.27499,-0.38215 137.73498,0.98676 2.48183,0.76184 4.86535,1.62191 5.29671,1.91138 0.49375,0.33109 -23.11922,24.666 -63.73105,65.67909 -54.75195,55.2929 -65.03836,65.37947 -67.97112,66.6511 -4.26417,1.8489 -11.43214,2.33582 -15.39668,1.0459 z"
       id="path846"
       inkscape:connector-curvature="0" /><path
       inkscape:connector-curvature="0"
       id="path844"
       d="m 120.70018,-122.66854 c -1.5273,-0.48136 -3.64594,-1.33157 -4.70807,-1.88927 l -1.93118,-1.01409 48.25484,-48.81638 48.2549,-48.81641 10.92004,10.70029 c 6.00596,5.88522 12.61123,11.77195 14.67816,13.08193 11.49042,7.28202 25.37124,7.93172 37.58335,1.75896 3.34847,-1.69248 6.97491,-4.80953 15.95813,-13.71648 l 11.62498,-11.52631 48.64815,48.46931 48.64698,48.47047 -3.65979,1.74047 -3.6599,1.74063 -133.91655,0.34545 c -106.50702,0.27552 -134.48555,0.16705 -136.69405,-0.52887 z m -18.26753,-16.1187 c -2.15325,-5.50005 -2.23373,-8.72073 -2.37567,-95.0453 -0.140485,-86.1479 -0.121814,-87.60022 1.26437,-92.11339 0.77455,-2.52205 1.67157,-4.58597 1.99331,-4.58646 0.40569,-7.6e-4 76.34583,76.01688 96.45404,96.55147 0.0801,0.082 -21.61428,21.97693 -48.20984,48.65567 -48.33562,48.48669 -48.35608,48.50601 -49.12636,46.5382 z m 257.95699,-46.73295 -48.23987,-48.08913 48.0693,-48.70545 c 26.43812,-26.78804 48.26859,-48.70575 48.51226,-48.70597 0.2434,-3.4e-4 1.03487,1.79372 1.7585,3.98691 1.26157,3.82393 1.32144,7.6346 1.45776,92.80297 0.13607,85.1684 0.0884,88.97919 -1.1608,92.80717 -0.7166,2.19545 -1.49511,3.99209 -1.73016,3.9925 -0.23508,4.6e-4 -22.13529,-21.63945 -48.66703,-48.08863 z M 250.19298,-209.603 c -1.59443,-0.51878 -3.93797,-1.59213 -5.20784,-2.38519 -1.26992,-0.79298 -31.3429,-30.39753 -66.82893,-65.78774 l -64.52007,-64.34578 3.70072,-1.67868 3.70068,-1.6786 133.22263,-0.39847 c 131.67622,-0.39375 133.275,-0.38215 137.73499,0.98676 2.48183,0.76184 4.86535,1.62191 5.29671,1.91138 0.49376,0.33109 -23.11924,24.66599 -63.73106,65.67908 -54.75195,55.2929 -65.03836,65.37948 -67.97112,66.6511 -4.26416,1.84891 -11.43214,2.33582 -15.39668,1.04591 z"
       style="fill:#ffffff;stroke-width:0.69387025" /></g></svg>