<?xml version="1.0" encoding="UTF-8" standalone="no"?>
<!-- Created with Inkscape (http://www.inkscape.org/) -->

<svg
   xmlns:dc="http://purl.org/dc/elements/1.1/"
   xmlns:cc="http://creativecommons.org/ns#"
   xmlns:rdf="http://www.w3.org/1999/02/22-rdf-syntax-ns#"
   xmlns:svg="http://www.w3.org/2000/svg"
   xmlns="http://www.w3.org/2000/svg"
   xmlns:sodipodi="http://sodipodi.sourceforge.net/DTD/sodipodi-0.dtd"
   xmlns:inkscape="http://www.inkscape.org/namespaces/inkscape"
   id="svg2"
   version="1.1"
   inkscape:version="0.92.2 2405546, 2018-03-11"
   width="512"
   height="512"
   sodipodi:docname="fasttracker.svg">
  <metadata
     id="metadata8">
    <rdf:RDF>
      <cc:Work
         rdf:about="">
        <dc:format>image/svg+xml</dc:format>
        <dc:type
           rdf:resource="http://purl.org/dc/dcmitype/StillImage" />
        <dc:title />
      </cc:Work>
    </rdf:RDF>
  </metadata>
  <defs
     id="defs6">
    <clipPath
       clipPathUnits="userSpaceOnUse"
       id="clipPath4141">
      <rect
         style="opacity:1;fill:none;fill-opacity:1;stroke:#000000;stroke-width:1;stroke-miterlimit:4;stroke-dasharray:none;stroke-dashoffset:0;stroke-opacity:1"
         id="rect4143"
         width="416"
         height="417"
         x="51"
         y="54"
         ry="60.628601" />
    </clipPath>
    <clipPath
       clipPathUnits="userSpaceOnUse"
       id="clipPath4145">
      <rect
         style="opacity:1;fill:none;fill-opacity:1;stroke:#000000;stroke-width:1;stroke-miterlimit:4;stroke-dasharray:none;stroke-dashoffset:0;stroke-opacity:1"
         id="rect4147"
         width="416"
         height="417"
         x="51"
         y="54"
         ry="60.628601" />
    </clipPath>
    <clipPath
       clipPathUnits="userSpaceOnUse"
       id="clipPath4149">
      <rect
         style="opacity:1;fill:none;fill-opacity:1;stroke:#000000;stroke-width:1;stroke-miterlimit:4;stroke-dasharray:none;stroke-dashoffset:0;stroke-opacity:1"
         id="rect4151"
         width="416"
         height="417"
         x="51"
         y="54"
         ry="60.628601" />
    </clipPath>
  </defs>
  <sodipodi:namedview
     pagecolor="#ffffff"
     bordercolor="#666666"
     borderopacity="1"
     objecttolerance="10"
     gridtolerance="10"
     guidetolerance="10"
     inkscape:pageopacity="0"
     inkscape:pageshadow="2"
     inkscape:window-width="1366"
     inkscape:window-height="717"
     id="namedview4"
     showgrid="false"
     inkscape:zoom="0.35355339"
     inkscape:cx="514.89637"
     inkscape:cy="109.85955"
     inkscape:window-x="0"
     inkscape:window-y="0"
     inkscape:window-maximized="1"
     inkscape:current-layer="svg2" />
  <g
     id="g1069">
    <path
       style="fill:#3689e6;fill-opacity:1;stroke-width:11.10955811"
       inkscape:connector-curvature="0"
       d="m 432.91327,56.47397 c 102.19291,88.57458 105.82678,249.6997 8.1168,359.89878 C 343.3201,526.57182 181.27964,544.10062 79.086729,455.52601 -23.106186,366.95142 -26.740042,205.8263 70.969928,95.62723 168.6799,-14.57185 330.72036,-32.10062 432.91327,56.47397 Z"
       id="path27" />
    <path
       style="opacity:1;fill:#000000;fill-opacity:0.49019608;stroke-width:11.10955811"
       inkscape:connector-curvature="0"
       d="M 511.63551,224.90351 C 510.08412,286.21516 486.47428,349.05812 440.66913,400.71798 342.95915,510.91712 180.91869,528.44582 78.725776,439.87128 30.827124,398.35563 4.4968216,340.92283 0.19382776,280.2288 0.79907942,346.58547 27.117411,410.48217 79.078682,455.51906 181.27159,544.09362 343.31975,526.55622 441.02202,416.36576 490.72697,360.30765 514.02704,291.0748 511.63551,224.90351 Z"
       id="path51" />
    <g
       aria-label="Fast
Tracker"
       style="font-style:normal;font-weight:normal;font-size:40px;line-height:1.25;font-family:sans-serif;letter-spacing:0px;word-spacing:0px;fill:#000000;fill-opacity:0.49019608;stroke:none"
       id="g181"
       transform="matrix(2.1270828,0,0,2.1270828,-59.289831,-60.393165)">
      <path
         d="m 103.625,121.84278 q -0.35156,0 -0.74219,-0.15625 -2.42187,-0.89844 -6.406248,-0.89844 -1.289062,0 -3.027343,0.19531 -1.71875,0.17579 -3.867188,0.56641 l -0.03906,8.4375 q 3.769531,-0.99609 5.664062,-0.99609 3.007813,0 6.230467,0.35156 1.83594,0.19531 1.83594,1.99219 0,0.8789 -0.56641,1.46484 -0.5664,0.56641 -1.40625,0.56641 -1.01562,0 -3.046872,-0.17578 -2.03125,-0.17579 -3.046875,-0.17579 -1.328125,0 -5.742187,1.13282 l -0.175782,13.4375 q 0,0.83984 -0.546875,1.40625 -0.546875,0.58593 -1.386718,0.58593 -0.839844,0 -1.40625,-0.58593 -0.546875,-0.56641 -0.546875,-1.40625 0,-3.84766 0.136718,-11.54297 0.15625,-7.71485 0.15625,-11.5625 0,-0.85938 -0.03906,-2.57813 -0.01953,-1.73828 -0.01953,-2.59765 0,-0.85938 0.527343,-1.44532 0.546875,-0.58593 1.40625,-0.58593 0.644532,0 1.152344,0.35156 2.421875,-0.42969 4.355469,-0.625 1.933594,-0.21484 3.398437,-0.21484 2.246094,0 5.136713,0.64453 3.92578,0.89843 3.92578,2.34375 0,0.78125 -0.50781,1.38672 -0.56641,0.68359 -1.40625,0.68359 z"
         style="font-style:normal;font-variant:normal;font-weight:normal;font-stretch:normal;font-family:'Comic Sans MS';-inkscape-font-specification:'Comic Sans MS';fill:#000000;fill-opacity:0.49019608"
         id="path159"
         inkscape:connector-curvature="0" />
      <path
         d="m 124.28906,148.7959 q -0.37109,0 -1.34765,-0.85937 -0.87891,-0.80078 -1.3086,-1.42578 -1.875,1.01562 -3.30078,1.52344 -1.42578,0.52734 -2.38281,0.52734 -4.57031,0 -6.66016,-2.57813 -1.97265,-2.42187 -1.97265,-7.42187 0,-4.72656 3.24218,-8.08594 3.26172,-3.35937 7.77344,-3.35937 1.69922,0 3.8086,0.8789 2.65625,1.09375 2.65625,2.63672 0,0.52735 -0.39063,0.9375 -0.19531,0.74219 -0.3125,2.44141 -0.0977,1.69922 -0.11719,4.35547 -0.0195,2.42187 0.33203,3.82812 0.19532,0.85938 1.23047,3.4375 0.13672,0.35156 0.44922,1.03516 l 0.11719,0.33203 q 0,0.78125 -0.54688,1.28906 -0.54687,0.50781 -1.26953,0.50781 z m -4.0625,-13.57421 q 0,-0.83985 0.0977,-1.81641 0.11719,-0.99609 0.33203,-2.10938 -0.72266,-0.37109 -1.25,-0.54687 -0.50781,-0.17578 -0.82031,-0.17578 -3.02735,0 -5.23438,2.48047 -2.1875,2.46093 -2.1875,5.68359 0,3.20313 1.13282,4.80469 1.13281,1.60156 3.39843,1.60156 1.875,0 3.1836,-0.68359 0.70312,-0.3711 1.97265,-1.48438 -0.625,-5.17578 -0.625,-7.7539 z"
         style="font-style:normal;font-variant:normal;font-weight:normal;font-stretch:normal;font-family:'Comic Sans MS';-inkscape-font-specification:'Comic Sans MS';fill:#000000;fill-opacity:0.49019608"
         id="path161"
         inkscape:connector-curvature="0" />
      <path
         d="m 142.6875,132.46778 q -1.07422,0 -1.50391,-0.72266 -0.29297,-0.50781 -0.50781,-2.10937 -1.46484,0.37109 -4.51172,1.36719 -3.14453,1.25 -3.16406,3.08593 0.58594,0.21485 1.15234,0.3125 4.49219,0.80078 6.67969,2.20703 3.18359,2.05079 3.18359,5.9375 0,3.1836 -2.7539,4.80469 -2.28516,1.32813 -5.78125,1.32813 -2.5586,0 -4.88281,-0.85938 -3.00782,-1.09375 -3.00782,-3.04687 0,-0.78125 0.60547,-1.36719 0.625,-0.58594 1.40625,-0.58594 0.60547,0 1.5625,0.9375 0.46875,0.44922 2.10938,0.74219 1.30859,0.23437 2.20703,0.23437 1.64062,0 2.89062,-0.39062 1.81641,-0.56641 1.81641,-1.79688 0,-2.65625 -3.71094,-3.59375 l -2.03125,-0.44921 q -2.59765,-0.56641 -3.6914,-1.32813 -1.58204,-1.09375 -1.58204,-3.30078 0,-4.08203 3.84766,-5.82031 1.17188,-0.52735 3.75,-1.25 2.57813,-0.74219 3.69141,-1.25 0.80078,-0.35157 1.73828,-0.35157 0.83984,0 1.36719,0.54688 0.54687,0.54687 0.54687,1.42578 0,0.56641 0.23438,1.66016 0.2539,1.09375 0.2539,1.66015 0,0.87891 -0.54687,1.42578 -0.52735,0.54688 -1.36719,0.54688 z"
         style="font-style:normal;font-variant:normal;font-weight:normal;font-stretch:normal;font-family:'Comic Sans MS';-inkscape-font-specification:'Comic Sans MS';fill:#000000;fill-opacity:0.49019608"
         id="path163"
         inkscape:connector-curvature="0" />
      <path
         d="m 162.02344,130.86622 q -0.41016,0 -0.97657,-0.0391 -0.54687,-0.0391 -0.95703,-0.0391 -0.44922,0 -2.65625,0.29297 l 0.3711,11.54297 0.0195,0.85937 0.0195,0.9961 q 0.0781,4.27734 -2.05078,4.27734 -0.78125,0 -1.36719,-0.50781 -0.56641,-0.50781 -0.56641,-1.26953 0,-0.74219 0.0586,-2.22656 0.0586,-1.48438 0.0586,-2.22657 l -0.39062,-11.40625 q -1.42578,-0.0586 -4.33594,-0.33203 -1.73828,-0.23437 -1.73828,-1.93359 0,-0.85938 0.52734,-1.42578 0.52735,-0.56641 1.34766,-0.56641 l 4.10156,0.33203 q 0,-0.99609 -0.0977,-2.65625 -0.0781,-1.67969 -0.0781,-2.42187 0,-0.82032 0.56641,-1.34766 0.5664,-0.54687 1.38671,-0.54687 1.75782,0 2.05079,2.87109 0.0586,0.72266 0.0586,1.73828 l -0.0391,1.13281 -0.0195,1.21094 q 2.42187,-0.3125 2.77343,-0.3125 2.03125,0 2.65625,0.19531 1.19141,0.39063 1.19141,1.83594 0,0.85938 -0.54688,1.42578 -0.52734,0.54688 -1.36718,0.54688 z"
         style="font-style:normal;font-variant:normal;font-weight:normal;font-stretch:normal;font-family:'Comic Sans MS';-inkscape-font-specification:'Comic Sans MS';fill:#000000;fill-opacity:0.49019608"
         id="path165"
         inkscape:connector-curvature="0" />
      <path
         d="m 108.625,173.07227 q -1.44531,0 -4.45312,-0.23437 -2.92969,-0.21485 -4.45313,-0.19532 h -1.386719 q 0.05859,2.69532 0.527344,8.75 0.429687,5.64454 0.429687,8.76954 0,0.68359 0.136719,2.07031 0.136719,1.38672 0.136719,2.08984 0,1.32813 -0.429688,2.28516 -0.546875,1.28906 -1.699218,1.28906 -0.78125,0 -1.40625,-0.54687 -0.625,-0.54688 -0.625,-1.40625 0,-0.29297 0.09766,-0.87891 0.09766,-0.58594 0.09766,-0.87891 0,-0.95703 -0.136719,-2.87109 -0.117187,-1.91406 -0.117187,-2.89063 0,-2.79296 -0.449219,-7.85156 -0.46875,-5.46875 -0.527344,-7.85156 l -1.777343,0.0195 q -4.277344,0 -6.71875,-0.625 -1.582032,-0.41016 -1.582032,-1.93359 0,-0.80078 0.507813,-1.40625 0.585937,-0.6836 1.503906,-0.625 0.683594,0.0391 3.125,0.35156 1.953125,0.23437 3.164063,0.23437 1.171875,0 3.554687,-0.0391 2.382813,-0.0586 3.554688,-0.0586 1.503913,0 4.453123,0.21484 2.96875,0.21485 4.47266,0.21485 0.83984,0 1.40625,0.58593 0.56641,0.56641 0.56641,1.42578 0,0.83985 -0.56641,1.42579 -0.56641,0.5664 -1.40625,0.5664 z"
         style="font-style:normal;font-variant:normal;font-weight:normal;font-stretch:normal;font-family:'Comic Sans MS';-inkscape-font-specification:'Comic Sans MS';fill:#000000;fill-opacity:0.49019608"
         id="path167"
         inkscape:connector-curvature="0" />
      <path
         d="m 127.12109,183.30665 q -0.13671,2.4414 -1.95312,2.4414 -1.67969,0 -1.67969,-1.93359 0,-0.37109 -0.0586,-1.36719 l -0.0586,-1.64062 q -3.08593,0.37109 -4.9414,1.73828 -1.73828,1.26953 -2.89063,3.82812 l 0.0391,10.70313 q 0,1.97265 -1.9336,1.97265 -1.71875,0 -1.71875,-1.97265 v -13.71094 q 0,-0.64453 0.0391,-1.93359 0.0586,-1.28907 0.0586,-1.9336 0,-1.97265 1.71875,-1.97265 1.91406,0 1.93359,3.24218 3.75,-3.61328 8.32031,-3.61328 1.58204,0 2.36329,1.19141 0.78125,1.19141 0.78125,3.59375 0,1.01562 -0.0195,1.36719 z"
         style="font-style:normal;font-variant:normal;font-weight:normal;font-stretch:normal;font-family:'Comic Sans MS';-inkscape-font-specification:'Comic Sans MS';fill:#000000;fill-opacity:0.49019608"
         id="path169"
         inkscape:connector-curvature="0" />
      <path
         d="m 146.39844,199.0293 q -0.3711,0 -1.34766,-0.85937 -0.87891,-0.80078 -1.30859,-1.42578 -1.875,1.01562 -3.30078,1.52343 -1.42579,0.52735 -2.38282,0.52735 -4.57031,0 -6.66015,-2.57813 -1.97266,-2.42187 -1.97266,-7.42187 0,-4.72656 3.24219,-8.08594 3.26172,-3.35937 7.77344,-3.35937 1.69921,0 3.80859,0.8789 2.65625,1.09375 2.65625,2.63672 0,0.52734 -0.39063,0.9375 -0.19531,0.74219 -0.3125,2.44141 -0.0977,1.69922 -0.11718,4.35547 -0.0195,2.42187 0.33203,3.82812 0.19531,0.85938 1.23047,3.4375 0.13672,0.35156 0.44922,1.03516 l 0.11718,0.33203 q 0,0.78125 -0.54687,1.28906 -0.54688,0.50781 -1.26953,0.50781 z m -4.0625,-13.57422 q 0,-0.83984 0.0977,-1.8164 0.11719,-0.9961 0.33203,-2.10938 -0.72265,-0.37109 -1.25,-0.54687 -0.50781,-0.17578 -0.82031,-0.17578 -3.02734,0 -5.23437,2.48047 -2.1875,2.46093 -2.1875,5.68359 0,3.20312 1.13281,4.80469 1.13281,1.60156 3.39844,1.60156 1.875,0 3.18359,-0.68359 0.70313,-0.3711 1.97266,-1.48438 -0.625,-5.17578 -0.625,-7.75391 z"
         style="font-style:normal;font-variant:normal;font-weight:normal;font-stretch:normal;font-family:'Comic Sans MS';-inkscape-font-specification:'Comic Sans MS';fill:#000000;fill-opacity:0.49019608"
         id="path171"
         inkscape:connector-curvature="0" />
      <path
         d="m 160.44141,198.97071 q -4.00391,0 -6.67969,-2.42188 -2.8125,-2.53906 -2.8125,-6.69921 0,-3.96485 2.63672,-8.1836 2.92968,-4.6875 6.60156,-4.6875 1.91406,0 4.27734,0.89844 2.98828,1.15234 2.98828,2.8125 0,0.74219 -0.48828,1.32812 -0.48828,0.56641 -1.21093,0.56641 -0.56641,0 -0.9961,-0.33203 -0.41015,-0.35156 -0.80078,-0.68359 -1.15234,-0.91797 -3.76953,-0.91797 -1.99219,0 -3.94531,3.55468 -1.77735,3.26172 -1.77735,5.64454 0,2.57812 1.75782,4.0625 1.64062,1.38671 4.21875,1.38671 1.17187,0 2.5,-0.625 l 2.26562,-1.21093 q 0.58594,-0.3125 0.83984,-0.3125 0.72266,0 1.25,0.58593 0.52735,0.56641 0.52735,1.3086 0,1.42578 -3.00781,2.7539 -2.63672,1.17188 -4.375,1.17188 z"
         style="font-style:normal;font-variant:normal;font-weight:normal;font-stretch:normal;font-family:'Comic Sans MS';-inkscape-font-specification:'Comic Sans MS';fill:#000000;fill-opacity:0.49019608"
         id="path173"
         inkscape:connector-curvature="0" />
      <path
         d="m 188.42969,198.54102 q -1.07422,0 -1.66016,-1.13281 -1.01562,-1.97266 -3.06641,-4.66797 l -3.45703,-4.70703 q -1.13281,0.89844 -3.51562,2.51953 -0.21485,3.02734 -0.21485,5.89844 0,0.8789 -0.54687,1.42578 -0.52734,0.54687 -1.36719,0.54687 -1.97265,0 -1.97265,-2.65625 0,-1.62109 0.21484,-4.84375 0.23437,-3.24218 0.23437,-4.86328 0,-2.96875 0.0781,-6.77734 0.0977,-3.82813 0.0977,-6.75781 0,-0.87891 -0.0977,-2.07032 -0.0781,-1.1914 -0.0781,-2.07031 0,-0.8789 0.52735,-1.42578 0.54687,-0.54687 1.38672,-0.54687 0.83984,0 1.36718,0.54687 0.54688,0.54688 0.54688,1.42578 0,0.89844 0.0977,2.12891 0.0977,1.21094 0.0977,2.10937 l -0.13672,6.28907 q -0.0977,3.39843 -0.0586,6.79687 2.65625,-2.03125 5.11719,-4.45312 l 4.29687,-4.4336 q 0.64453,-0.66406 1.38672,-0.66406 0.76172,0 1.36719,0.60547 0.625,0.60547 0.625,1.40625 0,0.66406 -0.56641,1.30859 -2.40234,2.8125 -5.91797,6.03516 l 4.25782,5.80078 q 2.98828,4.08203 2.98828,5.3125 0,0.78125 -0.625,1.34766 -0.60547,0.5664 -1.40625,0.5664 z"
         style="font-style:normal;font-variant:normal;font-weight:normal;font-stretch:normal;font-family:'Comic Sans MS';-inkscape-font-specification:'Comic Sans MS';fill:#000000;fill-opacity:0.49019608"
         id="path175"
         inkscape:connector-curvature="0" />
      <path
         d="m 202.92187,198.63868 q -4.41406,0 -7.14843,-2.20703 -2.98828,-2.44141 -2.98828,-6.83594 0,-5.07813 2.46093,-8.51563 2.67578,-3.75 7.14844,-3.75 3.24219,0 5.29297,1.09375 2.51953,1.34766 2.51953,4.14063 0,1.95312 -2.20703,3.55469 -0.97656,0.70312 -4.14063,2.1875 l -7.46093,3.53515 q 1.09375,1.6211 2.71484,2.44141 1.64063,0.82031 3.80859,0.82031 1.34766,0 3.16407,-0.50781 2.30468,-0.64453 2.96875,-1.67969 0.66406,-1.05469 1.42578,-1.05469 0.68359,0 1.21094,0.52735 0.54687,0.50781 0.54687,1.1914 0,2.16797 -3.49609,3.73047 -2.98828,1.32813 -5.82032,1.32813 z m -0.52734,-17.79297 q -2.38281,0 -3.96484,1.85547 -1.58203,1.83594 -2.36328,5.54687 l 5.99609,-2.85156 q 3.53516,-1.71875 5.03906,-2.98828 -1.67969,-1.5625 -4.70703,-1.5625 z"
         style="font-style:normal;font-variant:normal;font-weight:normal;font-stretch:normal;font-family:'Comic Sans MS';-inkscape-font-specification:'Comic Sans MS';fill:#000000;fill-opacity:0.49019608"
         id="path177"
         inkscape:connector-curvature="0" />
      <path
         d="m 230.94922,183.30665 q -0.13672,2.4414 -1.95313,2.4414 -1.67968,0 -1.67968,-1.93359 0,-0.37109 -0.0586,-1.36719 l -0.0586,-1.64062 q -3.08594,0.37109 -4.94141,1.73828 -1.73828,1.26953 -2.89062,3.82812 l 0.0391,10.70313 q 0,1.97265 -1.93359,1.97265 -1.71875,0 -1.71875,-1.97265 v -13.71094 q 0,-0.64453 0.0391,-1.93359 0.0586,-1.28907 0.0586,-1.9336 0,-1.97265 1.71875,-1.97265 1.91406,0 1.9336,3.24218 3.75,-3.61328 8.32031,-3.61328 1.58203,0 2.36328,1.19141 0.78125,1.19141 0.78125,3.59375 0,1.01562 -0.0195,1.36719 z"
         style="font-style:normal;font-variant:normal;font-weight:normal;font-stretch:normal;font-family:'Comic Sans MS';-inkscape-font-specification:'Comic Sans MS';fill:#000000;fill-opacity:0.49019608"
         id="path179"
         inkscape:connector-curvature="0" />
    </g>
    <rect
       ry="12.534375"
       style="opacity:1;fill:#000000;fill-opacity:0.49019608;stroke:none;stroke-width:0.73293078;stroke-miterlimit:4;stroke-dasharray:none;stroke-opacity:1"
       id="rect183"
       width="309.60001"
       height="25.06875"
       x="122.4"
       y="160.013" />
    <rect
       ry="12.534375"
       style="opacity:1;fill:#000000;fill-opacity:0.49019608;stroke:none;stroke-width:0.73293078;stroke-miterlimit:4;stroke-dasharray:none;stroke-opacity:1"
       id="rect185"
       width="309.60001"
       height="25.06875"
       x="120"
       y="364.14426" />
    <path
       id="path187"
       d="M 211.19922 185.08203 L 211.19922 191.17383 L 244.80078 191.17383 L 244.80078 185.08203 L 211.19922 185.08203 z M 211.19922 264.10742 L 211.19922 305.5 L 244.80078 305.5 L 244.80078 264.10742 L 211.19922 264.10742 z M 211.19922 364 L 211.19922 364.14453 L 244.80078 364.14453 L 244.80078 364 L 211.19922 364 z "
       style="opacity:1;fill:#000000;fill-opacity:0.49019608;stroke:none;stroke-width:0.70690119;stroke-miterlimit:4;stroke-dasharray:none;stroke-opacity:1" />
    <path
       id="path189"
       d="M 298.80078 185.08203 L 298.80078 281.875 L 332.40039 281.875 L 332.40039 185.08203 L 298.80078 185.08203 z M 298.80078 363.375 L 298.80078 364.14453 L 332.40039 364.14453 L 332.40039 363.375 L 298.80078 363.375 z "
       style="opacity:1;fill:#000000;fill-opacity:0.49019608;stroke:none;stroke-width:0.70690119;stroke-miterlimit:4;stroke-dasharray:none;stroke-opacity:1" />
    <g
       id="g157">
      <g
         aria-label="Fast
Tracker"
         style="font-style:normal;font-weight:normal;font-size:40px;line-height:1.25;font-family:sans-serif;letter-spacing:0px;word-spacing:0px;fill:#ffffff;fill-opacity:1;stroke:none"
         id="flowRoot50"
         transform="matrix(2.1270828,0,0,2.1270828,-79.289831,-80.393343)">
        <path
           d="m 103.625,121.84278 q -0.35156,0 -0.74219,-0.15625 -2.42187,-0.89844 -6.406248,-0.89844 -1.289062,0 -3.027343,0.19531 -1.71875,0.17579 -3.867188,0.56641 l -0.03906,8.4375 q 3.769531,-0.99609 5.664062,-0.99609 3.007813,0 6.230467,0.35156 1.83594,0.19531 1.83594,1.99219 0,0.8789 -0.56641,1.46484 -0.5664,0.56641 -1.40625,0.56641 -1.01562,0 -3.046872,-0.17578 -2.03125,-0.17579 -3.046875,-0.17579 -1.328125,0 -5.742187,1.13282 l -0.175782,13.4375 q 0,0.83984 -0.546875,1.40625 -0.546875,0.58593 -1.386718,0.58593 -0.839844,0 -1.40625,-0.58593 -0.546875,-0.56641 -0.546875,-1.40625 0,-3.84766 0.136718,-11.54297 0.15625,-7.71485 0.15625,-11.5625 0,-0.85938 -0.03906,-2.57813 -0.01953,-1.73828 -0.01953,-2.59765 0,-0.85938 0.527343,-1.44532 0.546875,-0.58593 1.40625,-0.58593 0.644532,0 1.152344,0.35156 2.421875,-0.42969 4.355469,-0.625 1.933594,-0.21484 3.398437,-0.21484 2.246094,0 5.136713,0.64453 3.92578,0.89843 3.92578,2.34375 0,0.78125 -0.50781,1.38672 -0.56641,0.68359 -1.40625,0.68359 z"
           style="font-style:normal;font-variant:normal;font-weight:normal;font-stretch:normal;font-family:'Comic Sans MS';-inkscape-font-specification:'Comic Sans MS';fill:#ffffff"
           id="path39"
           inkscape:connector-curvature="0" />
        <path
           d="m 124.28906,148.7959 q -0.37109,0 -1.34765,-0.85937 -0.87891,-0.80078 -1.3086,-1.42578 -1.875,1.01562 -3.30078,1.52344 -1.42578,0.52734 -2.38281,0.52734 -4.57031,0 -6.66016,-2.57813 -1.97265,-2.42187 -1.97265,-7.42187 0,-4.72656 3.24218,-8.08594 3.26172,-3.35937 7.77344,-3.35937 1.69922,0 3.8086,0.8789 2.65625,1.09375 2.65625,2.63672 0,0.52735 -0.39063,0.9375 -0.19531,0.74219 -0.3125,2.44141 -0.0977,1.69922 -0.11719,4.35547 -0.0195,2.42187 0.33203,3.82812 0.19532,0.85938 1.23047,3.4375 0.13672,0.35156 0.44922,1.03516 l 0.11719,0.33203 q 0,0.78125 -0.54688,1.28906 -0.54687,0.50781 -1.26953,0.50781 z m -4.0625,-13.57421 q 0,-0.83985 0.0977,-1.81641 0.11719,-0.99609 0.33203,-2.10938 -0.72266,-0.37109 -1.25,-0.54687 -0.50781,-0.17578 -0.82031,-0.17578 -3.02735,0 -5.23438,2.48047 -2.1875,2.46093 -2.1875,5.68359 0,3.20313 1.13282,4.80469 1.13281,1.60156 3.39843,1.60156 1.875,0 3.1836,-0.68359 0.70312,-0.3711 1.97265,-1.48438 -0.625,-5.17578 -0.625,-7.7539 z"
           style="font-style:normal;font-variant:normal;font-weight:normal;font-stretch:normal;font-family:'Comic Sans MS';-inkscape-font-specification:'Comic Sans MS';fill:#ffffff"
           id="path41"
           inkscape:connector-curvature="0" />
        <path
           d="m 142.6875,132.46778 q -1.07422,0 -1.50391,-0.72266 -0.29297,-0.50781 -0.50781,-2.10937 -1.46484,0.37109 -4.51172,1.36719 -3.14453,1.25 -3.16406,3.08593 0.58594,0.21485 1.15234,0.3125 4.49219,0.80078 6.67969,2.20703 3.18359,2.05079 3.18359,5.9375 0,3.1836 -2.7539,4.80469 -2.28516,1.32813 -5.78125,1.32813 -2.5586,0 -4.88281,-0.85938 -3.00782,-1.09375 -3.00782,-3.04687 0,-0.78125 0.60547,-1.36719 0.625,-0.58594 1.40625,-0.58594 0.60547,0 1.5625,0.9375 0.46875,0.44922 2.10938,0.74219 1.30859,0.23437 2.20703,0.23437 1.64062,0 2.89062,-0.39062 1.81641,-0.56641 1.81641,-1.79688 0,-2.65625 -3.71094,-3.59375 l -2.03125,-0.44921 q -2.59765,-0.56641 -3.6914,-1.32813 -1.58204,-1.09375 -1.58204,-3.30078 0,-4.08203 3.84766,-5.82031 1.17188,-0.52735 3.75,-1.25 2.57813,-0.74219 3.69141,-1.25 0.80078,-0.35157 1.73828,-0.35157 0.83984,0 1.36719,0.54688 0.54687,0.54687 0.54687,1.42578 0,0.56641 0.23438,1.66016 0.2539,1.09375 0.2539,1.66015 0,0.87891 -0.54687,1.42578 -0.52735,0.54688 -1.36719,0.54688 z"
           style="font-style:normal;font-variant:normal;font-weight:normal;font-stretch:normal;font-family:'Comic Sans MS';-inkscape-font-specification:'Comic Sans MS';fill:#ffffff"
           id="path43"
           inkscape:connector-curvature="0" />
        <path
           d="m 162.02344,130.86622 q -0.41016,0 -0.97657,-0.0391 -0.54687,-0.0391 -0.95703,-0.0391 -0.44922,0 -2.65625,0.29297 l 0.3711,11.54297 0.0195,0.85937 0.0195,0.9961 q 0.0781,4.27734 -2.05078,4.27734 -0.78125,0 -1.36719,-0.50781 -0.56641,-0.50781 -0.56641,-1.26953 0,-0.74219 0.0586,-2.22656 0.0586,-1.48438 0.0586,-2.22657 l -0.39062,-11.40625 q -1.42578,-0.0586 -4.33594,-0.33203 -1.73828,-0.23437 -1.73828,-1.93359 0,-0.85938 0.52734,-1.42578 0.52735,-0.56641 1.34766,-0.56641 l 4.10156,0.33203 q 0,-0.99609 -0.0977,-2.65625 -0.0781,-1.67969 -0.0781,-2.42187 0,-0.82032 0.56641,-1.34766 0.5664,-0.54687 1.38671,-0.54687 1.75782,0 2.05079,2.87109 0.0586,0.72266 0.0586,1.73828 l -0.0391,1.13281 -0.0195,1.21094 q 2.42187,-0.3125 2.77343,-0.3125 2.03125,0 2.65625,0.19531 1.19141,0.39063 1.19141,1.83594 0,0.85938 -0.54688,1.42578 -0.52734,0.54688 -1.36718,0.54688 z"
           style="font-style:normal;font-variant:normal;font-weight:normal;font-stretch:normal;font-family:'Comic Sans MS';-inkscape-font-specification:'Comic Sans MS';fill:#ffffff"
           id="path45"
           inkscape:connector-curvature="0" />
        <path
           d="m 108.625,173.07227 q -1.44531,0 -4.45312,-0.23437 -2.92969,-0.21485 -4.45313,-0.19532 h -1.386719 q 0.05859,2.69532 0.527344,8.75 0.429687,5.64454 0.429687,8.76954 0,0.68359 0.136719,2.07031 0.136719,1.38672 0.136719,2.08984 0,1.32813 -0.429688,2.28516 -0.546875,1.28906 -1.699218,1.28906 -0.78125,0 -1.40625,-0.54687 -0.625,-0.54688 -0.625,-1.40625 0,-0.29297 0.09766,-0.87891 0.09766,-0.58594 0.09766,-0.87891 0,-0.95703 -0.136719,-2.87109 -0.117187,-1.91406 -0.117187,-2.89063 0,-2.79296 -0.449219,-7.85156 -0.46875,-5.46875 -0.527344,-7.85156 l -1.777343,0.0195 q -4.277344,0 -6.71875,-0.625 -1.582032,-0.41016 -1.582032,-1.93359 0,-0.80078 0.507813,-1.40625 0.585937,-0.6836 1.503906,-0.625 0.683594,0.0391 3.125,0.35156 1.953125,0.23437 3.164063,0.23437 1.171875,0 3.554687,-0.0391 2.382813,-0.0586 3.554688,-0.0586 1.503913,0 4.453123,0.21484 2.96875,0.21485 4.47266,0.21485 0.83984,0 1.40625,0.58593 0.56641,0.56641 0.56641,1.42578 0,0.83985 -0.56641,1.42579 -0.56641,0.5664 -1.40625,0.5664 z"
           style="font-style:normal;font-variant:normal;font-weight:normal;font-stretch:normal;font-family:'Comic Sans MS';-inkscape-font-specification:'Comic Sans MS';fill:#ffffff"
           id="path47"
           inkscape:connector-curvature="0" />
        <path
           d="m 127.12109,183.30665 q -0.13671,2.4414 -1.95312,2.4414 -1.67969,0 -1.67969,-1.93359 0,-0.37109 -0.0586,-1.36719 l -0.0586,-1.64062 q -3.08593,0.37109 -4.9414,1.73828 -1.73828,1.26953 -2.89063,3.82812 l 0.0391,10.70313 q 0,1.97265 -1.9336,1.97265 -1.71875,0 -1.71875,-1.97265 v -13.71094 q 0,-0.64453 0.0391,-1.93359 0.0586,-1.28907 0.0586,-1.9336 0,-1.97265 1.71875,-1.97265 1.91406,0 1.93359,3.24218 3.75,-3.61328 8.32031,-3.61328 1.58204,0 2.36329,1.19141 0.78125,1.19141 0.78125,3.59375 0,1.01562 -0.0195,1.36719 z"
           style="font-style:normal;font-variant:normal;font-weight:normal;font-stretch:normal;font-family:'Comic Sans MS';-inkscape-font-specification:'Comic Sans MS';fill:#ffffff"
           id="path49"
           inkscape:connector-curvature="0" />
        <path
           d="m 146.39844,199.0293 q -0.3711,0 -1.34766,-0.85937 -0.87891,-0.80078 -1.30859,-1.42578 -1.875,1.01562 -3.30078,1.52343 -1.42579,0.52735 -2.38282,0.52735 -4.57031,0 -6.66015,-2.57813 -1.97266,-2.42187 -1.97266,-7.42187 0,-4.72656 3.24219,-8.08594 3.26172,-3.35937 7.77344,-3.35937 1.69921,0 3.80859,0.8789 2.65625,1.09375 2.65625,2.63672 0,0.52734 -0.39063,0.9375 -0.19531,0.74219 -0.3125,2.44141 -0.0977,1.69922 -0.11718,4.35547 -0.0195,2.42187 0.33203,3.82812 0.19531,0.85938 1.23047,3.4375 0.13672,0.35156 0.44922,1.03516 l 0.11718,0.33203 q 0,0.78125 -0.54687,1.28906 -0.54688,0.50781 -1.26953,0.50781 z m -4.0625,-13.57422 q 0,-0.83984 0.0977,-1.8164 0.11719,-0.9961 0.33203,-2.10938 -0.72265,-0.37109 -1.25,-0.54687 -0.50781,-0.17578 -0.82031,-0.17578 -3.02734,0 -5.23437,2.48047 -2.1875,2.46093 -2.1875,5.68359 0,3.20312 1.13281,4.80469 1.13281,1.60156 3.39844,1.60156 1.875,0 3.18359,-0.68359 0.70313,-0.3711 1.97266,-1.48438 -0.625,-5.17578 -0.625,-7.75391 z"
           style="font-style:normal;font-variant:normal;font-weight:normal;font-stretch:normal;font-family:'Comic Sans MS';-inkscape-font-specification:'Comic Sans MS';fill:#ffffff"
           id="path52"
           inkscape:connector-curvature="0" />
        <path
           d="m 160.44141,198.97071 q -4.00391,0 -6.67969,-2.42188 -2.8125,-2.53906 -2.8125,-6.69921 0,-3.96485 2.63672,-8.1836 2.92968,-4.6875 6.60156,-4.6875 1.91406,0 4.27734,0.89844 2.98828,1.15234 2.98828,2.8125 0,0.74219 -0.48828,1.32812 -0.48828,0.56641 -1.21093,0.56641 -0.56641,0 -0.9961,-0.33203 -0.41015,-0.35156 -0.80078,-0.68359 -1.15234,-0.91797 -3.76953,-0.91797 -1.99219,0 -3.94531,3.55468 -1.77735,3.26172 -1.77735,5.64454 0,2.57812 1.75782,4.0625 1.64062,1.38671 4.21875,1.38671 1.17187,0 2.5,-0.625 l 2.26562,-1.21093 q 0.58594,-0.3125 0.83984,-0.3125 0.72266,0 1.25,0.58593 0.52735,0.56641 0.52735,1.3086 0,1.42578 -3.00781,2.7539 -2.63672,1.17188 -4.375,1.17188 z"
           style="font-style:normal;font-variant:normal;font-weight:normal;font-stretch:normal;font-family:'Comic Sans MS';-inkscape-font-specification:'Comic Sans MS';fill:#ffffff"
           id="path54"
           inkscape:connector-curvature="0" />
        <path
           d="m 188.42969,198.54102 q -1.07422,0 -1.66016,-1.13281 -1.01562,-1.97266 -3.06641,-4.66797 l -3.45703,-4.70703 q -1.13281,0.89844 -3.51562,2.51953 -0.21485,3.02734 -0.21485,5.89844 0,0.8789 -0.54687,1.42578 -0.52734,0.54687 -1.36719,0.54687 -1.97265,0 -1.97265,-2.65625 0,-1.62109 0.21484,-4.84375 0.23437,-3.24218 0.23437,-4.86328 0,-2.96875 0.0781,-6.77734 0.0977,-3.82813 0.0977,-6.75781 0,-0.87891 -0.0977,-2.07032 -0.0781,-1.1914 -0.0781,-2.07031 0,-0.8789 0.52735,-1.42578 0.54687,-0.54687 1.38672,-0.54687 0.83984,0 1.36718,0.54687 0.54688,0.54688 0.54688,1.42578 0,0.89844 0.0977,2.12891 0.0977,1.21094 0.0977,2.10937 l -0.13672,6.28907 q -0.0977,3.39843 -0.0586,6.79687 2.65625,-2.03125 5.11719,-4.45312 l 4.29687,-4.4336 q 0.64453,-0.66406 1.38672,-0.66406 0.76172,0 1.36719,0.60547 0.625,0.60547 0.625,1.40625 0,0.66406 -0.56641,1.30859 -2.40234,2.8125 -5.91797,6.03516 l 4.25782,5.80078 q 2.98828,4.08203 2.98828,5.3125 0,0.78125 -0.625,1.34766 -0.60547,0.5664 -1.40625,0.5664 z"
           style="font-style:normal;font-variant:normal;font-weight:normal;font-stretch:normal;font-family:'Comic Sans MS';-inkscape-font-specification:'Comic Sans MS';fill:#ffffff"
           id="path56"
           inkscape:connector-curvature="0" />
        <path
           d="m 202.92187,198.63868 q -4.41406,0 -7.14843,-2.20703 -2.98828,-2.44141 -2.98828,-6.83594 0,-5.07813 2.46093,-8.51563 2.67578,-3.75 7.14844,-3.75 3.24219,0 5.29297,1.09375 2.51953,1.34766 2.51953,4.14063 0,1.95312 -2.20703,3.55469 -0.97656,0.70312 -4.14063,2.1875 l -7.46093,3.53515 q 1.09375,1.6211 2.71484,2.44141 1.64063,0.82031 3.80859,0.82031 1.34766,0 3.16407,-0.50781 2.30468,-0.64453 2.96875,-1.67969 0.66406,-1.05469 1.42578,-1.05469 0.68359,0 1.21094,0.52735 0.54687,0.50781 0.54687,1.1914 0,2.16797 -3.49609,3.73047 -2.98828,1.32813 -5.82032,1.32813 z m -0.52734,-17.79297 q -2.38281,0 -3.96484,1.85547 -1.58203,1.83594 -2.36328,5.54687 l 5.99609,-2.85156 q 3.53516,-1.71875 5.03906,-2.98828 -1.67969,-1.5625 -4.70703,-1.5625 z"
           style="font-style:normal;font-variant:normal;font-weight:normal;font-stretch:normal;font-family:'Comic Sans MS';-inkscape-font-specification:'Comic Sans MS';fill:#ffffff"
           id="path58"
           inkscape:connector-curvature="0" />
        <path
           d="m 230.94922,183.30665 q -0.13672,2.4414 -1.95313,2.4414 -1.67968,0 -1.67968,-1.93359 0,-0.37109 -0.0586,-1.36719 l -0.0586,-1.64062 q -3.08594,0.37109 -4.94141,1.73828 -1.73828,1.26953 -2.89062,3.82812 l 0.0391,10.70313 q 0,1.97265 -1.93359,1.97265 -1.71875,0 -1.71875,-1.97265 v -13.71094 q 0,-0.64453 0.0391,-1.93359 0.0586,-1.28907 0.0586,-1.9336 0,-1.97265 1.71875,-1.97265 1.91406,0 1.9336,3.24218 3.75,-3.61328 8.32031,-3.61328 1.58203,0 2.36328,1.19141 0.78125,1.19141 0.78125,3.59375 0,1.01562 -0.0195,1.36719 z"
           style="font-style:normal;font-variant:normal;font-weight:normal;font-stretch:normal;font-family:'Comic Sans MS';-inkscape-font-specification:'Comic Sans MS';fill:#ffffff"
           id="path60"
           inkscape:connector-curvature="0" />
      </g>
      <g
         id="g909"
         style="fill:#ffffff;fill-opacity:1"
         transform="matrix(0.84852814,0,0,0.63308154,40,92.526636)">
        <rect
           y="75.008011"
           x="73.539108"
           height="39.59798"
           width="364.8671"
           id="rect858"
           style="opacity:1;fill:#ffffff;fill-opacity:1;stroke:none;stroke-width:1;stroke-miterlimit:4;stroke-dasharray:none;stroke-opacity:1"
           ry="19.79899" />
        <rect
           y="397.4487"
           x="70.710678"
           height="39.59798"
           width="364.8671"
           id="rect858-3"
           style="opacity:1;fill:#ffffff;fill-opacity:1;stroke:none;stroke-width:1;stroke-miterlimit:4;stroke-dasharray:none;stroke-opacity:1"
           ry="19.79899" />
        <path
           style="opacity:1;fill:#ffffff;fill-opacity:1;stroke:none;stroke-width:0.70690119;stroke-miterlimit:4;stroke-dasharray:none;stroke-opacity:1"
           d="M 191.19922 147.17578 L 191.19922 171.17383 L 224.80078 171.17383 L 224.80078 147.17578 L 191.19922 147.17578 z M 191.19922 244.10742 L 191.19922 285.5 L 224.80078 285.5 L 224.80078 244.10742 L 191.19922 244.10742 z M 191.19922 344 L 191.19922 362.05078 L 224.80078 362.05078 L 224.80078 344 L 191.19922 344 z "
           transform="matrix(1.1785113,0,0,1.5795754,-47.140452,-146.15279)"
           id="rect858-3-7" />
        <path
           style="opacity:1;fill:#ffffff;fill-opacity:1;stroke:none;stroke-width:0.70690119;stroke-miterlimit:4;stroke-dasharray:none;stroke-opacity:1"
           d="M 278.80078 150.75586 L 278.80078 261.875 L 312.40039 261.875 L 312.40039 150.75586 L 278.80078 150.75586 z M 278.80078 343.375 L 278.80078 365.63086 L 312.40039 365.63086 L 312.40039 343.375 L 278.80078 343.375 z "
           transform="matrix(1.1785113,0,0,1.5795754,-47.140452,-146.15279)"
           id="rect858-3-7-3" />
      </g>
    </g>
  </g>
</svg>
