<?xml version="1.0" encoding="UTF-8" standalone="no"?>
<svg
   xmlns:dc="http://purl.org/dc/elements/1.1/"
   xmlns:cc="http://creativecommons.org/ns#"
   xmlns:rdf="http://www.w3.org/1999/02/22-rdf-syntax-ns#"
   xmlns:svg="http://www.w3.org/2000/svg"
   xmlns="http://www.w3.org/2000/svg"
   xmlns:sodipodi="http://sodipodi.sourceforge.net/DTD/sodipodi-0.dtd"
   xmlns:inkscape="http://www.inkscape.org/namespaces/inkscape"
   viewBox="0 0 511.99999 511.99999"
   height="512"
   width="512"
   version="1.1"
   id="svg2"
   inkscape:version="0.92.2 2405546, 2018-03-11"
   sodipodi:docname="feedly.svg">
  <sodipodi:namedview
     pagecolor="#ffffff"
     bordercolor="#666666"
     borderopacity="1"
     objecttolerance="10"
     gridtolerance="10"
     guidetolerance="10"
     inkscape:pageopacity="0"
     inkscape:pageshadow="2"
     inkscape:window-width="1366"
     inkscape:window-height="717"
     id="namedview18"
     showgrid="false"
     inkscape:zoom="0.57452424"
     inkscape:cx="336.27529"
     inkscape:cy="414.77007"
     inkscape:window-x="0"
     inkscape:window-y="0"
     inkscape:window-maximized="1"
     inkscape:current-layer="svg2" />
  <metadata
     id="metadata8">
    <rdf:RDF>
      <cc:Work
         rdf:about="">
        <dc:format>image/svg+xml</dc:format>
        <dc:type
           rdf:resource="http://purl.org/dc/dcmitype/StillImage" />
        <dc:title></dc:title>
      </cc:Work>
    </rdf:RDF>
  </metadata>
  <defs
     id="defs6">
    <filter
       height="1.096"
       y="-0.048"
       width="1.096"
       x="-0.048"
       id="filter4329"
       style="color-interpolation-filters:sRGB">
      <feGaussianBlur
         id="feGaussianBlur4331"
         stdDeviation="2.1324205" />
    </filter>
    <filter
       height="1.0327445"
       y="-0.016372267"
       width="1.0399742"
       x="-0.019987123"
       id="filter4376"
       style="color-interpolation-filters:sRGB">
      <feGaussianBlur
         id="feGaussianBlur4378"
         stdDeviation="1.1736058" />
    </filter>
    <filter
       height="1.0570984"
       y="-0.0285492"
       width="1.0632123"
       x="-0.031606145"
       id="filter4436"
       style="color-interpolation-filters:sRGB">
      <feGaussianBlur
         id="feGaussianBlur4438"
         stdDeviation="0.63519096" />
    </filter>
  </defs>
  <g
     id="g856">
    <path
       id="path884"
       d="M 432.91329,56.473966 C 535.1062,145.04856 538.74006,306.17367 441.03009,416.37276 343.32012,526.57184 181.27963,544.10061 79.086727,455.52602 -23.106182,366.95143 -26.740046,205.82631 70.969927,95.627226 168.6799,-14.571854 330.72038,-32.100624 432.91329,56.473966 Z"
       inkscape:connector-curvature="0"
       style="fill:#68b723;fill-opacity:1;stroke-width:11.10955811" />
    <path
       id="path886"
       d="M 511.63552,224.90351 C 510.08414,286.21516 486.4743,349.05812 440.66914,400.71799 342.95917,510.91711 180.91869,528.44584 78.725782,439.87129 30.82711,398.35563 4.4968433,340.92284 0.19385109,280.22881 0.79906684,346.58548 27.117428,410.48217 79.078676,455.51906 181.27158,544.09361 343.31974,526.55619 441.02204,416.36576 490.72698,360.30766 514.02705,291.0748 511.63552,224.90351 Z"
       inkscape:connector-curvature="0"
       style="opacity:1;fill:#000000;fill-opacity:0.49019608;stroke-width:11.10955811" />
    <path
       style="fill:#000000;fill-opacity:0.49019608;stroke-width:0.60973823"
       d="m 229.96476,412.89936 c -8.21149,-2.35959 -7.48795,-1.7114 -56.75141,-50.84204 -30.50115,-30.41891 -47.05124,-47.35866 -48.32887,-49.46674 -3.19109,-5.26527 -4.50492,-9.77136 -4.82179,-16.53744 -0.33891,-7.23684 0.65649,-11.83332 3.96134,-18.29215 2.0159,-3.93977 7.09037,-9.17835 65.95223,-68.08521 42.10454,-42.13671 64.90758,-64.52914 67.12185,-65.91318 5.59344,-3.4962 9.95264,-4.84099 16.77466,-5.17491 7.62021,-0.37299 11.68426,0.43967 18.15979,3.63126 4.97608,2.45256 5.35498,2.81773 69.38249,66.86994 59.46649,59.48945 64.54562,64.72962 66.56197,68.6721 3.30414,6.46058 4.29918,11.05641 3.96026,18.29215 -0.31681,6.76608 -1.63069,11.27217 -4.8218,16.53744 -1.27713,2.10734 -17.83852,19.06133 -48.32884,49.4747 -49.99154,49.86534 -48.75051,48.76349 -57.44915,51.00626 -3.25034,0.83803 -9.30599,0.96019 -45.73037,0.9225 -37.8413,-0.0392 -42.34491,-0.14717 -45.64236,-1.09468 z m 60.99407,-36.10355 c 6.16328,-6.21832 7.60148,-7.99875 7.60148,-9.41033 0,-1.4363 -1.78318,-3.53537 -10.18969,-11.99469 -13.40949,-13.49377 -11.7482,-13.40684 -24.08135,-1.26009 -9.16967,9.03109 -10.84959,11.14189 -10.84959,13.63233 0,1.42563 13.23875,15.42843 15.54833,16.44566 0.67071,0.29541 4.1782,0.47397 7.79441,0.3968 l 6.57493,-0.14031 z m -19.0493,-53.45689 c 13.69869,-13.66576 25.31652,-25.62141 25.81742,-26.56812 1.65111,-3.12069 0.73212,-4.52889 -9.75232,-14.94392 -8.92867,-8.86955 -10.13262,-9.8584 -12.00281,-9.8584 -1.9285,0 -4.12616,2.04607 -30.41465,28.3168 -26.99723,26.97901 -28.33594,28.42166 -28.33594,30.53593 0,2.03126 0.64663,2.86014 7.63888,9.79182 l 7.63888,7.57272 h 7.25192 7.25191 z m -17.40752,-55.79576 c 38.25895,-38.25895 44.0583,-44.29312 44.0583,-45.8422 0,-1.49182 -1.66833,-3.46271 -10.18969,-12.03762 -9.81693,-9.87863 -10.27945,-10.25372 -12.64357,-10.25372 -2.43727,0 -2.76667,0.31279 -48.65006,46.19617 -45.93193,45.93193 -46.19616,46.21025 -46.19616,48.65786 0,2.3409 0.36918,2.82668 7.52366,9.89975 l 7.52368,7.43806 h 7.25776 7.25778 z"
       id="path35"
       inkscape:connector-curvature="0" />
    <path
       inkscape:connector-curvature="0"
       id="path833"
       d="m 209.96476,392.89936 c -8.21149,-2.35959 -7.48795,-1.7114 -56.75141,-50.84204 -30.50115,-30.41891 -47.05124,-47.35866 -48.32887,-49.46674 -3.19109,-5.26527 -4.50492,-9.77136 -4.82179,-16.53744 -0.338916,-7.23684 0.65649,-11.83332 3.96134,-18.29215 2.0159,-3.93977 7.09037,-9.17835 65.95223,-68.08521 42.10454,-42.13671 64.90758,-64.52914 67.12185,-65.91318 5.59344,-3.4962 9.95264,-4.84099 16.77466,-5.17491 7.62021,-0.37299 11.68426,0.43967 18.15979,3.63126 4.97608,2.45256 5.35498,2.81773 69.38249,66.86994 59.46649,59.48945 64.54562,64.72962 66.56197,68.6721 3.30414,6.46058 4.29918,11.05641 3.96026,18.29215 -0.31681,6.76608 -1.63069,11.27217 -4.8218,16.53744 -1.27713,2.10734 -17.83852,19.06133 -48.32884,49.4747 -49.99154,49.86534 -48.75051,48.76349 -57.44915,51.00626 -3.25034,0.83803 -9.30599,0.96019 -45.73037,0.9225 -37.8413,-0.0392 -42.34491,-0.14717 -45.64236,-1.09468 z m 60.99407,-36.10355 c 6.16328,-6.21832 7.60148,-7.99875 7.60148,-9.41033 0,-1.4363 -1.78318,-3.53537 -10.18969,-11.99469 -13.40949,-13.49377 -11.7482,-13.40684 -24.08135,-1.26009 -9.16967,9.03109 -10.84959,11.14189 -10.84959,13.63233 0,1.42563 13.23875,15.42843 15.54833,16.44566 0.67071,0.29541 4.1782,0.47397 7.79441,0.3968 l 6.57493,-0.14031 z m -19.0493,-53.45689 c 13.69869,-13.66576 25.31652,-25.62141 25.81742,-26.56812 1.65111,-3.12069 0.73212,-4.52889 -9.75232,-14.94392 -8.92867,-8.86955 -10.13262,-9.8584 -12.00281,-9.8584 -1.9285,0 -4.12616,2.04607 -30.41465,28.3168 -26.99723,26.97901 -28.33594,28.42166 -28.33594,30.53593 0,2.03126 0.64663,2.86014 7.63888,9.79182 l 7.63888,7.57272 h 7.25192 7.25191 z m -17.40752,-55.79576 c 38.25895,-38.25895 44.0583,-44.29312 44.0583,-45.8422 0,-1.49182 -1.66833,-3.46271 -10.18969,-12.03762 -9.81693,-9.87863 -10.27945,-10.25372 -12.64357,-10.25372 -2.43727,0 -2.76667,0.31279 -48.65006,46.19617 -45.93193,45.93193 -46.19616,46.21025 -46.19616,48.65786 0,2.3409 0.36918,2.82668 7.52366,9.89975 l 7.52368,7.43806 h 7.25776 7.25778 z"
       style="fill:#ffffff;fill-opacity:1;stroke-width:0.60973823" />
  </g>
</svg>
