<?xml version="1.0" encoding="UTF-8" standalone="no"?>
<svg
   xmlns:dc="http://purl.org/dc/elements/1.1/"
   xmlns:cc="http://creativecommons.org/ns#"
   xmlns:rdf="http://www.w3.org/1999/02/22-rdf-syntax-ns#"
   xmlns:svg="http://www.w3.org/2000/svg"
   xmlns="http://www.w3.org/2000/svg"
   xmlns:sodipodi="http://sodipodi.sourceforge.net/DTD/sodipodi-0.dtd"
   xmlns:inkscape="http://www.inkscape.org/namespaces/inkscape"
   viewBox="0 0 512 512"
   id="svg2"
   version="1.1"
   inkscape:version="0.92.2 2405546, 2018-03-11"
   width="512"
   height="512"
   sodipodi:docname="ffado-mixer-qt4.svg">
  <metadata
     id="metadata61">
    <rdf:RDF>
      <cc:Work
         rdf:about="">
        <dc:format>image/svg+xml</dc:format>
        <dc:type
           rdf:resource="http://purl.org/dc/dcmitype/StillImage" />
        <dc:title></dc:title>
      </cc:Work>
    </rdf:RDF>
  </metadata>
  <sodipodi:namedview
     pagecolor="#ffffff"
     bordercolor="#666666"
     borderopacity="1"
     objecttolerance="10"
     gridtolerance="10"
     guidetolerance="10"
     inkscape:pageopacity="0"
     inkscape:pageshadow="2"
     inkscape:window-width="1366"
     inkscape:window-height="717"
     id="namedview59"
     showgrid="false"
     inkscape:zoom="0.86915209"
     inkscape:cx="418.39262"
     inkscape:cy="242.01396"
     inkscape:window-x="0"
     inkscape:window-y="0"
     inkscape:window-maximized="1"
     inkscape:current-layer="svg2" />
  <defs
     id="defs4">
    <linearGradient
       id="linearGradient3764"
       x1="1"
       x2="47"
       gradientUnits="userSpaceOnUse"
       gradientTransform="rotate(-90,23.999998,24)">
      <stop
         stop-color="#a80000"
         stop-opacity="1"
         id="stop7" />
      <stop
         offset="1"
         stop-color="#b00"
         stop-opacity="1"
         id="stop9" />
    </linearGradient>
    <clipPath
       id="clipPath-400042892">
      <g
         transform="translate(0,-1004.3622)"
         id="g12">
        <path
           d="m -24,13 c 0,1.105 -0.672,2 -1.5,2 -0.828,0 -1.5,-0.895 -1.5,-2 0,-1.105 0.672,-2 1.5,-2 0.828,0 1.5,0.895 1.5,2 z"
           transform="matrix(15.8a715e,0,0,11.5,414.99999,878.8622)"
           id="path14"
           inkscape:connector-curvature="0"
           style="fill:#1890d0" />
      </g>
    </clipPath>
    <clipPath
       id="clipPath-411038796">
      <g
         transform="translate(0,-1004.3622)"
         id="g17">
        <path
           d="m -24,13 c 0,1.105 -0.672,2 -1.5,2 -0.828,0 -1.5,-0.895 -1.5,-2 0,-1.105 0.672,-2 1.5,-2 0.828,0 1.5,0.895 1.5,2 z"
           transform="matrix(15.8a715e,0,0,11.5,414.99999,878.8622)"
           id="path19"
           inkscape:connector-curvature="0"
           style="fill:#1890d0" />
      </g>
    </clipPath>
  </defs>
  <g
     id="g33"
     transform="matrix(3.9021162,0,0,3.9021162,4.1481354,317.37561)" />
  <g
     id="g874">
    <path
       id="path842"
       d="M 432.91327,56.473991 C 535.10618,145.04857 538.74004,306.17368 441.03007,416.37276 343.3201,526.57184 181.27963,544.1006 79.086723,455.52602 -23.106179,366.95143 -26.740044,205.82632 70.969923,95.627251 168.67989,-14.571824 330.72037,-32.100594 432.91327,56.473991 Z"
       inkscape:connector-curvature="0"
       style="fill:#c6262e;fill-opacity:1;stroke-width:11.10955715" />
    <path
       id="path845"
       d="M 511.6355,224.90352 C 510.08412,286.21517 486.47428,349.05813 440.66913,400.71799 342.95916,510.91711 180.91868,528.44584 78.725783,439.87129 30.827153,398.35564 4.4968414,340.92284 0.19385144,280.22881 0.79910144,346.58548 27.117433,410.48218 79.078673,455.51906 181.27161,544.09361 343.31976,526.55619 441.02202,416.36577 490.72697,360.30766 514.02704,291.07481 511.6355,224.90352 Z"
       inkscape:connector-curvature="0"
       style="opacity:1;fill:#000000;fill-opacity:0.49019608;stroke-width:11.10955715" />
    <path
       style="fill:#000000;fill-opacity:0.49019608;stroke-width:2.38153124"
       d="m 237.6533,430.04943 c -12.25773,5.17262 -14.47384,3.54102 -67.28945,-49.54133 l -49.08519,-49.33311 -0.63934,-8.78998 -0.63932,-8.78995 96.20424,-96.64195 96.20428,-96.64196 33.10408,0.0834 33.10416,0.0834 26.69163,26.82644 26.69161,26.82642 -0.0832,33.0227 -0.0832,33.02268 -94.55489,93.86674 c -52.00524,51.62669 -96.83664,94.82965 -99.62543,96.00649 z m 171.64237,-194.32489 -5.03926,-5.06471 -16.8823,16.79747 -16.88237,16.79752 5.03925,5.06471 5.03926,5.06469 16.88235,-16.79752 16.88231,-16.79746 z m -197.3876,142.64299 c -6.55901,-6.59215 -6.57835,-6.89286 -0.81017,-12.63206 5.13628,-5.11047 5.37367,-6.41696 1.81588,-9.99273 -3.3899,-3.40702 -5.12586,-3.26676 -10.10608,0.81653 -5.07971,4.16485 -6.84767,4.26337 -11.38927,0.63462 -10.43483,-8.33739 -11.81079,-13.63567 -5.71521,-22.00729 4.56378,-5.92108 7.40752,-15.73213 2.55687,-21.10462 -1.32246,-1.32915 -4.79302,1.51402 -11.24204,9.20971 -15.65278,18.67867 -13.20431,27.04132 15.62023,53.3502 17.5096,15.98142 18.10769,16.32007 21.99394,12.45335 3.53519,-3.51741 3.22172,-4.75182 -2.72415,-10.72771 z m 27.01173,-26.876 c -6.55901,-6.59214 -6.57835,-6.89285 -0.81017,-12.63205 5.17726,-5.15124 5.38891,-6.40167 1.70945,-10.09971 -3.67945,-3.69804 -4.93094,-3.49269 -10.1082,1.65854 -5.8301,5.80082 -6.00355,5.78324 -13.02191,-1.32159 -9.53669,-9.65405 -9.87226,-13.02071 -2.27845,-22.85483 4.12739,-5.34508 6.36696,-11.17379 6.21839,-16.18414 -0.12769,-4.30677 -0.57117,-8.17121 -0.98549,-8.58762 -1.45086,-1.45818 -16.81646,15.29603 -21.36595,23.29683 -7.77939,13.68099 -5.59134,18.14426 22.35575,45.60191 16.48598,16.19725 16.58441,16.25446 20.78501,12.07497 3.79852,-3.77943 3.54867,-4.87466 -2.49843,-10.95231 z m 27.01175,-26.876 -6.719,-6.75292 9.28529,-9.23863 9.28527,-9.2386 6.71899,6.75292 c 6.04711,6.07765 7.14109,6.33298 10.93958,2.55357 l 4.22058,-4.19937 -22.3952,-23.07114 C 264.9497,268.7322 253.61228,256.95779 252.0729,255.25587 c -2.3503,-2.59853 -4.17212,-1.65558 -11.36848,5.8844 -10.161,10.64611 -13.96332,22.62451 -11.40573,35.93132 1.57581,8.19873 3.97374,11.60242 18.36159,26.06295 16.53254,16.61604 16.55211,16.62969 20.76968,12.4333 3.79853,-3.77943 3.54869,-4.87466 -2.49841,-10.95231 z m -17.52801,-17.61654 c -5.35296,-5.37998 -7.61624,-14.83758 -5.55904,-23.2296 3.43129,-13.99745 5.16451,-14.30849 16.46137,-2.95458 l 10.07849,10.1294 -9.28527,9.23861 c -6.94087,6.90599 -9.89384,8.62699 -11.69555,6.81617 z m 76.20166,-34.02503 c 8.73121,-35.61867 -34.46318,-59.74193 -60.55707,-33.81998 l -8.02582,7.97201 25.19625,25.32351 25.19624,25.32349 8.01234,-7.98555 c 5.01795,-4.9987 8.822,-11.28622 10.17715,-16.81439 z M 291.50566,262.5295 c -15.84593,-15.92596 -16.43602,-16.84312 -12.36004,-19.21548 6.00711,-3.49633 21.84543,-1.6398 26.57654,3.1152 6.8118,6.84622 9.28037,15.40243 6.73294,23.33679 -1.34934,4.2027 -2.87089,8.05669 -3.38126,8.5645 -0.51039,0.50781 -8.41604,-6.60264 -17.56818,-15.80101 z m 90.49944,-46.66699 c 8.56253,-34.93031 -34.41852,-59.7833 -59.79678,-34.57645 -8.75188,8.69443 -12.18177,18.37134 -11.09923,31.32523 1.60266,19.17812 24.46024,34.17082 44.69758,29.31798 11.60536,-2.78291 23.35712,-14.47562 26.19843,-26.06676 z m -29.29672,14.01463 c -13.01465,3.81364 -29.10585,-8.3828 -28.41649,-21.53844 0.86519,-16.5114 15.25232,-27.29289 30.0713,-22.53503 9.27879,2.9791 12.02043,5.50774 15.16813,13.98955 4.4552,12.00513 -3.46575,26.16986 -16.82294,30.08392 z m -5.45965,-97.84131 -20.9733,-0.0528 0.004,9.31152 0.004,9.31141 20.94613,-0.2762 20.94621,-0.27625 0.0227,-8.98244 0.0226,-8.98237 z m -70.32593,53.72673 -13.73643,-0.0346 -24.41661,22.42109 c -13.4292,12.33165 -23.67604,22.40582 -22.77088,22.38702 18.67084,-0.38654 50.93225,-4.14016 54.68036,-6.36208 2.71922,-1.612 8.28894,-3.36771 12.3771,-3.90158 l 7.43304,-0.97069 0.0849,-16.75226 0.0849,-16.75236 z"
       id="path63"
       inkscape:connector-curvature="0"
       sodipodi:nodetypes="cscccccccccccccccccccccccsssccccsssssssscccscsssscccsscccccsssscscssccccccccssscssscssscsscccccccccccccsccccccc" />
    <path
       sodipodi:nodetypes="cscccccccccccccccccccccccsssccccsssssssscccscsssscccsscccccsssscscssccccccccssscssscssscsscccccccccccccsccccccc"
       inkscape:connector-curvature="0"
       id="path837"
       d="m 217.6533,410.04943 c -12.25773,5.17262 -14.47384,3.54102 -67.28945,-49.54133 l -49.08519,-49.33311 -0.63934,-8.78998 -0.63932,-8.78995 96.20424,-96.64195 96.20428,-96.64196 33.10408,0.0834 33.10416,0.0834 26.69163,26.82644 26.69161,26.82642 -0.0832,33.0227 -0.0832,33.02268 -94.55489,93.86674 c -52.00524,51.62669 -96.83664,94.82965 -99.62543,96.00649 z m 171.64237,-194.32489 -5.03926,-5.06471 -16.8823,16.79747 -16.88237,16.79752 5.03925,5.06471 5.03926,5.06469 16.88235,-16.79752 16.88231,-16.79746 z m -197.3876,142.64299 c -6.55901,-6.59215 -6.57835,-6.89286 -0.81017,-12.63206 5.13628,-5.11047 5.37367,-6.41696 1.81588,-9.99273 -3.3899,-3.40702 -5.12586,-3.26676 -10.10608,0.81653 -5.07971,4.16485 -6.84767,4.26337 -11.38927,0.63462 -10.43483,-8.33739 -11.81079,-13.63567 -5.71521,-22.00729 4.56378,-5.92108 7.40752,-15.73213 2.55687,-21.10462 -1.32246,-1.32915 -4.79302,1.51402 -11.24204,9.20971 -15.65278,18.67867 -13.20431,27.04132 15.62023,53.3502 17.5096,15.98142 18.10769,16.32007 21.99394,12.45335 3.53519,-3.51741 3.22172,-4.75182 -2.72415,-10.72771 z m 27.01173,-26.876 c -6.55901,-6.59214 -6.57835,-6.89285 -0.81017,-12.63205 5.17726,-5.15124 5.38891,-6.40167 1.70945,-10.09971 -3.67945,-3.69804 -4.93094,-3.49269 -10.1082,1.65854 -5.8301,5.80082 -6.00355,5.78324 -13.02191,-1.32159 -9.53669,-9.65405 -9.87226,-13.02071 -2.27845,-22.85483 4.12739,-5.34508 6.36696,-11.17379 6.21839,-16.18414 -0.12769,-4.30677 -0.57117,-8.17121 -0.98549,-8.58762 -1.45086,-1.45818 -16.81646,15.29603 -21.36595,23.29683 -7.77939,13.68099 -5.59134,18.14426 22.35575,45.60191 16.48598,16.19725 16.58441,16.25446 20.78501,12.07497 3.79852,-3.77943 3.54867,-4.87466 -2.49843,-10.95231 z m 27.01175,-26.876 -6.719,-6.75292 9.28529,-9.23863 9.28527,-9.2386 6.71899,6.75292 c 6.04711,6.07765 7.14109,6.33298 10.93958,2.55357 l 4.22058,-4.19937 -22.3952,-23.07114 C 244.9497,248.7322 233.61228,236.95779 232.0729,235.25587 c -2.3503,-2.59853 -4.17212,-1.65558 -11.36848,5.8844 -10.161,10.64611 -13.96332,22.62451 -11.40573,35.93132 1.57581,8.19873 3.97374,11.60242 18.36159,26.06295 16.53254,16.61604 16.55211,16.62969 20.76968,12.4333 3.79853,-3.77943 3.54869,-4.87466 -2.49841,-10.95231 z m -17.52801,-17.61654 c -5.35296,-5.37998 -7.61624,-14.83758 -5.55904,-23.2296 3.43129,-13.99745 5.16451,-14.30849 16.46137,-2.95458 l 10.07849,10.1294 -9.28527,9.23861 c -6.94087,6.90599 -9.89384,8.62699 -11.69555,6.81617 z m 76.20166,-34.02503 c 8.73121,-35.61867 -34.46318,-59.74193 -60.55707,-33.81998 l -8.02582,7.97201 25.19625,25.32351 25.19624,25.32349 8.01234,-7.98555 c 5.01795,-4.9987 8.822,-11.28622 10.17715,-16.81439 z M 271.50566,242.5295 c -15.84593,-15.92596 -16.43602,-16.84312 -12.36004,-19.21548 6.00711,-3.49633 21.84543,-1.6398 26.57654,3.1152 6.8118,6.84622 9.28037,15.40243 6.73294,23.33679 -1.34934,4.2027 -2.87089,8.05669 -3.38126,8.5645 -0.51039,0.50781 -8.41604,-6.60264 -17.56818,-15.80101 z m 90.49944,-46.66699 c 8.56253,-34.93031 -34.41852,-59.7833 -59.79678,-34.57645 -8.75188,8.69443 -12.18177,18.37134 -11.09923,31.32523 1.60266,19.17812 24.46024,34.17082 44.69758,29.31798 11.60536,-2.78291 23.35712,-14.47562 26.19843,-26.06676 z m -29.29672,14.01463 c -13.01465,3.81364 -29.10585,-8.3828 -28.41649,-21.53844 0.86519,-16.5114 15.25232,-27.29289 30.0713,-22.53503 9.27879,2.9791 12.02043,5.50774 15.16813,13.98955 4.4552,12.00513 -3.46575,26.16986 -16.82294,30.08392 z m -5.45965,-97.84131 -20.9733,-0.0528 0.004,9.31152 0.004,9.31141 20.94613,-0.2762 20.94621,-0.27625 0.0227,-8.98244 0.0226,-8.98237 z m -70.32593,53.72673 -13.73643,-0.0346 -24.41661,22.42109 c -13.4292,12.33165 -23.67604,22.40582 -22.77088,22.38702 18.67084,-0.38654 50.93225,-4.14016 54.68036,-6.36208 2.71922,-1.612 8.28894,-3.36771 12.3771,-3.90158 l 7.43304,-0.97069 0.0849,-16.75226 0.0849,-16.75236 z"
       style="fill:#ffffff;fill-opacity:1;stroke-width:2.38153124" />
  </g>
</svg>
