<?xml version="1.0" encoding="UTF-8" standalone="no"?>
<svg
   xmlns:dc="http://purl.org/dc/elements/1.1/"
   xmlns:cc="http://creativecommons.org/ns#"
   xmlns:rdf="http://www.w3.org/1999/02/22-rdf-syntax-ns#"
   xmlns:svg="http://www.w3.org/2000/svg"
   xmlns="http://www.w3.org/2000/svg"
   xmlns:sodipodi="http://sodipodi.sourceforge.net/DTD/sodipodi-0.dtd"
   xmlns:inkscape="http://www.inkscape.org/namespaces/inkscape"
   viewBox="0 0 512 512"
   id="svg2"
   version="1.1"
   inkscape:version="0.92.2 2405546, 2018-03-11"
   width="512"
   height="512"
   sodipodi:docname="ffgtk.svg">
  <metadata
     id="metadata76">
    <rdf:RDF>
      <cc:Work
         rdf:about="">
        <dc:format>image/svg+xml</dc:format>
        <dc:type
           rdf:resource="http://purl.org/dc/dcmitype/StillImage" />
        <dc:title></dc:title>
      </cc:Work>
    </rdf:RDF>
  </metadata>
  <sodipodi:namedview
     pagecolor="#ffffff"
     bordercolor="#666666"
     borderopacity="1"
     objecttolerance="10"
     gridtolerance="10"
     guidetolerance="10"
     inkscape:pageopacity="0"
     inkscape:pageshadow="2"
     inkscape:window-width="1366"
     inkscape:window-height="717"
     id="namedview74"
     showgrid="false"
     inkscape:zoom="0.25"
     inkscape:cx="500.56062"
     inkscape:cy="41.017386"
     inkscape:window-x="0"
     inkscape:window-y="0"
     inkscape:window-maximized="1"
     inkscape:current-layer="svg2"
     units="px" />
  <defs
     id="defs4">
    <linearGradient
       id="linearGradient3764"
       x1="1"
       x2="47"
       gradientUnits="userSpaceOnUse"
       gradientTransform="rotate(-90,23.999998,24)">
      <stop
         stop-color="#8358b4"
         stop-opacity="1"
         id="stop7" />
      <stop
         offset="1"
         stop-color="#8d65ba"
         stop-opacity="1"
         id="stop9" />
    </linearGradient>
    <clipPath
       id="clipPath-057129763">
      <g
         transform="translate(0,-1004.3622)"
         id="g12">
        <path
           d="m -24,13 c 0,1.105 -0.672,2 -1.5,2 -0.828,0 -1.5,-0.895 -1.5,-2 0,-1.105 0.672,-2 1.5,-2 0.828,0 1.5,0.895 1.5,2 z"
           transform="matrix(15.333333,0,0,11.5,414.99999,878.8622)"
           id="path14"
           inkscape:connector-curvature="0"
           style="fill:#1890d0" />
      </g>
    </clipPath>
    <clipPath
       id="clipPath-064426159">
      <g
         transform="translate(0,-1004.3622)"
         id="g17">
        <path
           d="m -24,13 c 0,1.105 -0.672,2 -1.5,2 -0.828,0 -1.5,-0.895 -1.5,-2 0,-1.105 0.672,-2 1.5,-2 0.828,0 1.5,0.895 1.5,2 z"
           transform="matrix(15.333333,0,0,11.5,414.99999,878.8622)"
           id="path19"
           inkscape:connector-curvature="0"
           style="fill:#1890d0" />
      </g>
    </clipPath>
  </defs>
  <g
     id="g33"
     transform="translate(0,963)" />
  <g
     id="g873">
    <path
       style="fill:#f9c440;fill-opacity:1;stroke-width:11.10955811"
       inkscape:connector-curvature="0"
       d="m 432.91327,56.47397 c 102.19291,88.57459 105.82678,249.6997 8.1168,359.89878 C 343.3201,526.57184 181.27964,544.10061 79.086729,455.52602 -23.106186,366.95143 -26.740042,205.82631 70.969928,95.62723 168.6799,-14.57185 330.72036,-32.10062 432.91327,56.47397 Z"
       id="path27" />
    <path
       style="opacity:1;fill:#000000;fill-opacity:0.49019608;stroke-width:11.10955811"
       inkscape:connector-curvature="0"
       d="M 511.63551,224.90351 C 510.08412,286.21516 486.47428,349.05812 440.66913,400.71799 342.95915,510.91711 180.91869,528.44584 78.725776,439.87129 30.827124,398.35563 4.4968216,340.92284 0.1938277,280.2288 0.79907936,346.58548 27.117411,410.48217 79.078682,455.51906 181.27159,544.09361 343.31975,526.55619 441.02202,416.36576 490.72697,360.30766 514.02704,291.0748 511.63551,224.90351 Z"
       id="path51" />
    <g
       transform="matrix(0.72397921,0.25661998,-0.25661998,0.72397921,201.60892,107.03425)"
       id="g851"
       style="fill:#000000;fill-opacity:0.49019608">
      <g
         id="g849"
         style="fill:#000000;fill-opacity:0.49019608">
        <g
           id="g847"
           style="fill:#000000;fill-opacity:0.49019608">
          <path
             inkscape:connector-curvature="0"
             d="M 340.273,275.083 286.518,221.322 C 275.811,210.658 258.08,210.982 247,222.066 l -27.082,27.076 c -1.711,-0.943 -3.482,-1.928 -5.344,-2.973 -17.102,-9.476 -40.509,-22.464 -65.14,-47.113 -24.704,-24.701 -37.704,-48.144 -47.209,-65.257 -1.003,-1.813 -1.964,-3.561 -2.913,-5.221 l 18.176,-18.149 8.936,-8.947 c 11.097,-11.1 11.403,-28.826 0.721,-39.521 L 73.39,8.194 C 62.708,-2.486 44.969,-2.162 33.872,8.938 l -15.15,15.237 0.414,0.411 C 14.056,31.068 9.811,38.544 6.652,46.606 3.74,54.28 1.927,61.603 1.098,68.941 -6,127.785 20.89,181.564 93.866,254.541 c 100.875,100.868 182.167,93.248 185.674,92.876 7.638,-0.913 14.958,-2.738 22.397,-5.627 7.992,-3.122 15.463,-7.361 21.941,-12.43 l 0.331,0.294 15.348,-15.029 c 11.074,-11.098 11.393,-28.83 0.716,-39.542 z"
             id="path845"
             style="fill:#000000;fill-opacity:0.49019608" />
        </g>
      </g>
    </g>
    <g
       style="fill:#ffffff;fill-opacity:1"
       id="g3"
       transform="matrix(0.72397921,0.25661998,-0.25661998,0.72397921,181.60891,87.03428)">
      <g
         style="fill:#ffffff;fill-opacity:1"
         id="g5">
        <g
           style="fill:#ffffff;fill-opacity:1"
           id="g7">
          <path
             style="fill:#ffffff;fill-opacity:1"
             id="path9"
             d="M 340.273,275.083 286.518,221.322 C 275.811,210.658 258.08,210.982 247,222.066 l -27.082,27.076 c -1.711,-0.943 -3.482,-1.928 -5.344,-2.973 -17.102,-9.476 -40.509,-22.464 -65.14,-47.113 -24.704,-24.701 -37.704,-48.144 -47.209,-65.257 -1.003,-1.813 -1.964,-3.561 -2.913,-5.221 l 18.176,-18.149 8.936,-8.947 c 11.097,-11.1 11.403,-28.826 0.721,-39.521 L 73.39,8.194 C 62.708,-2.486 44.969,-2.162 33.872,8.938 l -15.15,15.237 0.414,0.411 C 14.056,31.068 9.811,38.544 6.652,46.606 3.74,54.28 1.927,61.603 1.098,68.941 -6,127.785 20.89,181.564 93.866,254.541 c 100.875,100.868 182.167,93.248 185.674,92.876 7.638,-0.913 14.958,-2.738 22.397,-5.627 7.992,-3.122 15.463,-7.361 21.941,-12.43 l 0.331,0.294 15.348,-15.029 c 11.074,-11.098 11.393,-28.83 0.716,-39.542 z"
             inkscape:connector-curvature="0" />
        </g>
      </g>
    </g>
  </g>
</svg>
