<?xml version="1.0" encoding="UTF-8" standalone="no"?>
<svg
   xmlns:dc="http://purl.org/dc/elements/1.1/"
   xmlns:cc="http://creativecommons.org/ns#"
   xmlns:rdf="http://www.w3.org/1999/02/22-rdf-syntax-ns#"
   xmlns:svg="http://www.w3.org/2000/svg"
   xmlns="http://www.w3.org/2000/svg"
   xmlns:sodipodi="http://sodipodi.sourceforge.net/DTD/sodipodi-0.dtd"
   xmlns:inkscape="http://www.inkscape.org/namespaces/inkscape"
   viewBox="0 0 512 512"
   id="svg2"
   version="1.1"
   inkscape:version="0.92.2 2405546, 2018-03-11"
   width="512"
   height="512"
   sodipodi:docname="ffmulticonverter.svg">
  <metadata
     id="metadata61">
    <rdf:RDF>
      <cc:Work
         rdf:about="">
        <dc:format>image/svg+xml</dc:format>
        <dc:type
           rdf:resource="http://purl.org/dc/dcmitype/StillImage" />
        <dc:title></dc:title>
      </cc:Work>
    </rdf:RDF>
  </metadata>
  <sodipodi:namedview
     pagecolor="#ffffff"
     bordercolor="#666666"
     borderopacity="1"
     objecttolerance="10"
     gridtolerance="10"
     guidetolerance="10"
     inkscape:pageopacity="0"
     inkscape:pageshadow="2"
     inkscape:window-width="1366"
     inkscape:window-height="717"
     id="namedview59"
     showgrid="false"
     inkscape:zoom="0.30729167"
     inkscape:cx="27.13747"
     inkscape:cy="75.892744"
     inkscape:window-x="0"
     inkscape:window-y="0"
     inkscape:window-maximized="1"
     inkscape:current-layer="svg2"
     units="px" />
  <defs
     id="defs4">
    <linearGradient
       id="linearGradient3764"
       x1="1"
       x2="47"
       gradientUnits="userSpaceOnUse"
       gradientTransform="rotate(-90,23.999998,24)">
      <stop
         stop-color="#1b3745"
         stop-opacity="1"
         id="stop7" />
      <stop
         offset="1"
         stop-color="#214152"
         stop-opacity="1"
         id="stop9" />
    </linearGradient>
    <clipPath
       id="clipPath-228903986">
      <g
         transform="translate(0,-1004.3622)"
         id="g12">
        <path
           d="m -24,13 c 0,1.105 -0.672,2 -1.5,2 -0.828,0 -1.5,-0.895 -1.5,-2 0,-1.105 0.672,-2 1.5,-2 0.828,0 1.5,0.895 1.5,2 z"
           transform="matrix(15.8a715e,0,0,11.5,414.99999,878.8622)"
           id="path14"
           inkscape:connector-curvature="0"
           style="fill:#1890d0" />
      </g>
    </clipPath>
    <clipPath
       id="clipPath-235725216">
      <g
         transform="translate(0,-1004.3622)"
         id="g17">
        <path
           d="m -24,13 c 0,1.105 -0.672,2 -1.5,2 -0.828,0 -1.5,-0.895 -1.5,-2 0,-1.105 0.672,-2 1.5,-2 0.828,0 1.5,0.895 1.5,2 z"
           transform="matrix(15.8a715e,0,0,11.5,414.99999,878.8622)"
           id="path19"
           inkscape:connector-curvature="0"
           style="fill:#1890d0" />
      </g>
    </clipPath>
  </defs>
  <g
     id="g33"
     transform="translate(0,591)" />
  <g
     id="g902">
    <path
       style="fill:#8a715e;fill-opacity:1;stroke-width:11.10955811"
       inkscape:connector-curvature="0"
       d="m 432.91335,56.47397 c 102.19279,88.57459 105.82669,249.6997 8.11679,359.89879 C 343.32011,526.57184 181.27949,544.10061 79.086678,455.52602 -23.10617,366.95143 -26.740026,205.82631 70.969886,95.62723 168.67976,-14.571854 330.72031,-32.100623 432.91335,56.47397 Z"
       id="path911" />
    <path
       style="opacity:1;fill:#000000;fill-opacity:0.49019608;stroke-width:11.10955238"
       inkscape:connector-curvature="0"
       d="m 511.63503,224.90352 c -1.5514,61.31166 -25.16121,124.1546 -70.96632,175.81449 C 342.95884,510.9171 180.91854,528.44585 78.725732,439.87127 30.827126,398.35564 4.4968499,340.92283 0.19386,280.22879 0.79911118,346.58547 27.117417,410.48219 79.078636,455.51904 181.27145,544.09362 343.31944,526.5562 441.02162,416.36578 490.72651,360.30764 514.02657,291.07481 511.63503,224.90352 Z"
       id="path913" />
    <g
       style="fill:#000000;fill-opacity:0.49019608"
       id="g87"
       transform="matrix(3.0949891,1.0206336,-1.0206336,3.0949891,-255.00889,-821.28781)">
      <path
         sodipodi:nodetypes="scsssscscccssssss"
         inkscape:connector-curvature="0"
         id="path83"
         d="m 250.71212,317.34764 c -0.33355,-2.16548 -0.8396,-5.2361 -1.12457,-6.8236 -0.51808,-2.88614 -0.51763,-2.88649 5.81489,-4.50613 17.55301,-4.48947 30.01167,-10.16281 33.40097,-15.2099 4.19897,-6.25279 1.52412,-13.93603 -5.08535,-14.60714 -1.39043,-0.14118 -4.72285,-1.04048 -7.40539,-1.99843 l -4.87733,-1.74174 7.97634,-0.61311 c 12.95458,-0.99577 20.81027,-5.57852 22.19248,-12.94635 0.80088,-4.26904 -2.23299,-12.31641 -7.48952,-19.86599 l -4.33238,-6.22232 4.51632,4.63204 c 9.26069,9.49798 13.24635,17.71608 13.97288,28.81092 0.403,6.15437 0.12654,8.59981 -1.53757,13.60048 -4.27389,12.84304 -13.48815,23.00587 -28.14811,31.04582 -6.46599,3.54614 -24.20051,10.38268 -26.9335,10.38268 -0.18355,0 -0.60662,-1.77176 -0.94016,-3.93723 z"
         style="fill:#000000;fill-opacity:0.49019608;stroke-width:0.92640769" />
      <path
         sodipodi:nodetypes="sssccsssscsssccss"
         inkscape:connector-curvature="0"
         id="path85"
         d="m 224.62057,298.8209 c -6.75011,-7.36654 -10.87706,-15.41114 -12.33809,-24.05037 -3.76639,-22.27117 14.28462,-44.50771 44.51034,-54.83105 10.95386,-3.7412 11.93894,-3.78192 12.62269,-0.52181 0.29389,1.40119 0.92715,4.29554 1.40727,6.43188 1.13221,5.03793 1.15269,4.91661 -0.83005,4.91661 -0.93664,0 -6.46035,1.40482 -12.2749,3.12182 -25.46722,7.52031 -33.16381,15.13762 -24.05262,23.80488 2.01181,1.91379 5.78382,4.27268 8.38224,5.24198 l 4.72441,1.76236 -6.76103,1.0799 c -10.23631,1.635 -13.57411,2.82314 -17.15826,6.10776 -2.72903,2.50098 -3.35023,3.79183 -3.73081,7.75262 -0.37781,3.93201 0.0179,5.76049 2.29321,10.59622 1.51239,3.21432 4.27008,7.8244 6.12819,10.24465 1.85811,2.42024 3.20962,4.40043 3.00337,4.40043 -0.20627,0 -2.87294,-2.72604 -5.92596,-6.05788 z"
         style="fill:#000000;fill-opacity:0.49019608;stroke-width:0.92640769" />
    </g>
    <g
       transform="matrix(3.0949891,1.0206336,-1.0206336,3.0949891,-275.00889,-841.28781)"
       id="g81">
      <path
         style="fill:#ffffff;fill-opacity:1;stroke-width:0.92640769"
         d="m 250.71212,317.34764 c -0.33355,-2.16548 -0.8396,-5.2361 -1.12457,-6.8236 -0.51808,-2.88614 -0.51763,-2.88649 5.81489,-4.50613 17.55301,-4.48947 30.01167,-10.16281 33.40097,-15.2099 4.19897,-6.25279 1.52412,-13.93603 -5.08535,-14.60714 -1.39043,-0.14118 -4.72285,-1.04048 -7.40539,-1.99843 l -4.87733,-1.74174 7.97634,-0.61311 c 12.95458,-0.99577 20.81027,-5.57852 22.19248,-12.94635 0.80088,-4.26904 -2.23299,-12.31641 -7.48952,-19.86599 l -4.33238,-6.22232 4.51632,4.63204 c 9.26069,9.49798 13.24635,17.71608 13.97288,28.81092 0.403,6.15437 0.12654,8.59981 -1.53757,13.60048 -4.27389,12.84304 -13.48815,23.00587 -28.14811,31.04582 -6.46599,3.54614 -24.20051,10.38268 -26.9335,10.38268 -0.18355,0 -0.60662,-1.77176 -0.94016,-3.93723 z"
         id="path53"
         inkscape:connector-curvature="0"
         sodipodi:nodetypes="scsssscscccssssss" />
      <path
         style="fill:#ffffff;fill-opacity:1;stroke-width:0.92640769"
         d="m 224.62057,298.8209 c -6.75011,-7.36654 -10.87706,-15.41114 -12.33809,-24.05037 -3.76639,-22.27117 14.28462,-44.50771 44.51034,-54.83105 10.95386,-3.7412 11.93894,-3.78192 12.62269,-0.52181 0.29389,1.40119 0.92715,4.29554 1.40727,6.43188 1.13221,5.03793 1.15269,4.91661 -0.83005,4.91661 -0.93664,0 -6.46035,1.40482 -12.2749,3.12182 -25.46722,7.52031 -33.16381,15.13762 -24.05262,23.80488 2.01181,1.91379 5.78382,4.27268 8.38224,5.24198 l 4.72441,1.76236 -6.76103,1.0799 c -10.23631,1.635 -13.57411,2.82314 -17.15826,6.10776 -2.72903,2.50098 -3.35023,3.79183 -3.73081,7.75262 -0.37781,3.93201 0.0179,5.76049 2.29321,10.59622 1.51239,3.21432 4.27008,7.8244 6.12819,10.24465 1.85811,2.42024 3.20962,4.40043 3.00337,4.40043 -0.20627,0 -2.87294,-2.72604 -5.92596,-6.05788 z"
         id="path53-6"
         inkscape:connector-curvature="0"
         sodipodi:nodetypes="sssccsssscsssccss" />
    </g>
  </g>
</svg>
