<?xml version="1.0" encoding="UTF-8" standalone="no"?>
<svg
   xmlns:dc="http://purl.org/dc/elements/1.1/"
   xmlns:cc="http://creativecommons.org/ns#"
   xmlns:rdf="http://www.w3.org/1999/02/22-rdf-syntax-ns#"
   xmlns:svg="http://www.w3.org/2000/svg"
   xmlns="http://www.w3.org/2000/svg"
   xmlns:sodipodi="http://sodipodi.sourceforge.net/DTD/sodipodi-0.dtd"
   xmlns:inkscape="http://www.inkscape.org/namespaces/inkscape"
   viewBox="0 0 512 512"
   id="svg2"
   version="1.1"
   inkscape:version="0.92.2 2405546, 2018-03-11"
   width="512"
   height="512"
   sodipodi:docname="filezilla.svg">
  <metadata
     id="metadata61">
    <rdf:RDF>
      <cc:Work
         rdf:about="">
        <dc:format>image/svg+xml</dc:format>
        <dc:type
           rdf:resource="http://purl.org/dc/dcmitype/StillImage" />
        <dc:title />
      </cc:Work>
    </rdf:RDF>
  </metadata>
  <sodipodi:namedview
     pagecolor="#ffffff"
     bordercolor="#666666"
     borderopacity="1"
     objecttolerance="10"
     gridtolerance="10"
     guidetolerance="10"
     inkscape:pageopacity="0"
     inkscape:pageshadow="2"
     inkscape:window-width="1366"
     inkscape:window-height="717"
     id="namedview59"
     showgrid="false"
     inkscape:zoom="0.61458333"
     inkscape:cx="553.4797"
     inkscape:cy="115.30113"
     inkscape:window-x="0"
     inkscape:window-y="0"
     inkscape:window-maximized="1"
     inkscape:current-layer="svg2" />
  <defs
     id="defs4">
    <linearGradient
       id="linearGradient3764"
       x1="1"
       x2="47"
       gradientUnits="userSpaceOnUse"
       gradientTransform="rotate(-90,23.999998,24)">
      <stop
         stop-color="#a80000"
         stop-opacity="1"
         id="stop7" />
      <stop
         offset="1"
         stop-color="#b00"
         stop-opacity="1"
         id="stop9" />
    </linearGradient>
    <clipPath
       id="clipPath-400042892">
      <g
         transform="translate(0,-1004.3622)"
         id="g12">
        <path
           d="m -24,13 c 0,1.105 -0.672,2 -1.5,2 -0.828,0 -1.5,-0.895 -1.5,-2 0,-1.105 0.672,-2 1.5,-2 0.828,0 1.5,0.895 1.5,2 z"
           transform="matrix(15.333333,0,0,11.5,414.99999,878.8622)"
           id="path14"
           inkscape:connector-curvature="0"
           style="fill:#1890d0" />
      </g>
    </clipPath>
    <clipPath
       id="clipPath-411038796">
      <g
         transform="translate(0,-1004.3622)"
         id="g17">
        <path
           d="m -24,13 c 0,1.105 -0.672,2 -1.5,2 -0.828,0 -1.5,-0.895 -1.5,-2 0,-1.105 0.672,-2 1.5,-2 0.828,0 1.5,0.895 1.5,2 z"
           transform="matrix(15.333333,0,0,11.5,414.99999,878.8622)"
           id="path19"
           inkscape:connector-curvature="0"
           style="fill:#1890d0" />
      </g>
    </clipPath>
  </defs>
  <g
     id="g33"
     transform="matrix(3.9021162,0,0,3.9021162,4.1481354,317.37561)" />
  <g
     id="g862">
    <path
       id="path842"
       d="M 432.91327,56.473995 C 535.10618,145.04857 538.74004,306.17368 441.03007,416.37276 343.3201,526.57184 181.27963,544.1006 79.086723,455.52602 -23.106179,366.95143 -26.740044,205.82632 70.969923,95.627255 168.67989,-14.57182 330.72037,-32.10059 432.91327,56.473995 Z"
       inkscape:connector-curvature="0"
       style="fill:#c6262e;fill-opacity:1;stroke-width:11.10955715" />
    <path
       id="path845"
       d="M 511.6355,224.90352 C 510.08412,286.21517 486.47428,349.05813 440.66913,400.71799 342.95916,510.91711 180.91868,528.44584 78.725783,439.87129 30.827153,398.35564 4.496841,340.92284 0.19385105,280.22881 0.79910105,346.58548 27.117433,410.48218 79.078673,455.51906 181.27161,544.09361 343.31976,526.55619 441.02202,416.36577 490.72697,360.30766 514.02704,291.07481 511.6355,224.90352 Z"
       inkscape:connector-curvature="0"
       style="opacity:1;fill:#000000;fill-opacity:0.49019608;stroke-width:11.10955715" />
    <g
       style="fill:#000000;fill-opacity:0.49019608"
       id="g45"
       transform="matrix(13.003793,0,0,13.003793,-36.045516,-36.032518)">
      <g
         style="fill:#000000;fill-opacity:0.49019608"
         clip-path="url(#clipPath-411038796)"
         id="g43">
        <!-- color: #bb0000 -->
        <g
           style="fill:#000000;fill-opacity:0.49019608"
           id="g41">
          <path
             d="M 16.867,12 12,33.578 h 3.953 l 2.293,-9.656 h 10.793 l -10.11,9.04 2.633,3.03 1.348,-0.695 c 2.551,-1.309 3.621,-0.543 5.555,-0.008 1.883,0.52 3.656,1.078 7.328,-1.035 l -0.73,-3.734 c -4,2.848 -5.273,0.309 -8.129,0.203 l 8.172,-6.914 0.887,-3.695 h -17.12 l 1.105,-4.426 h 11.223 l 0.773,-3.695 h -15.11 m 0.008,0.004"
             id="path39"
             inkscape:connector-curvature="0"
             style="fill:#000000;fill-opacity:0.49019608;fill-rule:nonzero;stroke:none" />
        </g>
      </g>
    </g>
    <g
       transform="matrix(13.003793,0,0,13.003793,-56.045516,-56.032518)"
       id="g47">
      <g
         id="g49"
         clip-path="url(#clipPath-411038796)">
        <!-- color: #bb0000 -->
        <g
           id="g51">
          <path
             style="fill:#ffffff;fill-opacity:1;fill-rule:nonzero;stroke:none"
             inkscape:connector-curvature="0"
             id="path53"
             d="M 16.867,12 12,33.578 h 3.953 l 2.293,-9.656 h 10.793 l -10.11,9.04 2.633,3.03 1.348,-0.695 c 2.551,-1.309 3.621,-0.543 5.555,-0.008 1.883,0.52 3.656,1.078 7.328,-1.035 l -0.73,-3.734 c -4,2.848 -5.273,0.309 -8.129,0.203 l 8.172,-6.914 0.887,-3.695 h -17.12 l 1.105,-4.426 h 11.223 l 0.773,-3.695 h -15.11 m 0.008,0.004" />
        </g>
      </g>
    </g>
  </g>
</svg>
