<?xml version="1.0" encoding="UTF-8" standalone="no"?>
<!-- Created with Inkscape (http://www.inkscape.org/) -->

<svg
   xmlns:osb="http://www.openswatchbook.org/uri/2009/osb"
   xmlns:dc="http://purl.org/dc/elements/1.1/"
   xmlns:cc="http://creativecommons.org/ns#"
   xmlns:rdf="http://www.w3.org/1999/02/22-rdf-syntax-ns#"
   xmlns:svg="http://www.w3.org/2000/svg"
   xmlns="http://www.w3.org/2000/svg"
   xmlns:sodipodi="http://sodipodi.sourceforge.net/DTD/sodipodi-0.dtd"
   xmlns:inkscape="http://www.inkscape.org/namespaces/inkscape"
   id="svg2"
   version="1.1"
   inkscape:version="0.92.2 2405546, 2018-03-11"
   width="512"
   height="512"
   viewBox="0 0 511.99999 511.99999"
   sodipodi:docname="firefox-default.svg">
  <metadata
     id="metadata8">
    <rdf:RDF>
      <cc:Work
         rdf:about="">
        <dc:format>image/svg+xml</dc:format>
        <dc:type
           rdf:resource="http://purl.org/dc/dcmitype/StillImage" />
        <dc:title />
      </cc:Work>
    </rdf:RDF>
  </metadata>
  <defs
     id="defs6">
    <linearGradient
       id="linearGradient6575"
       osb:paint="solid">
      <stop
         style="stop-color:#ec8840;stop-opacity:1;"
         offset="0"
         id="stop6577" />
    </linearGradient>
    <linearGradient
       id="linearGradient6569"
       osb:paint="solid">
      <stop
         style="stop-color:#ec8840;stop-opacity:1;"
         offset="0"
         id="stop6571" />
    </linearGradient>
    <linearGradient
       id="linearGradient5117"
       osb:paint="solid">
      <stop
         style="stop-color:#655041;stop-opacity:1;"
         offset="0"
         id="stop5119" />
    </linearGradient>
    <linearGradient
       id="linearGradient5109"
       osb:paint="solid">
      <stop
         style="stop-color:#b02222;stop-opacity:1;"
         offset="0"
         id="stop5111" />
    </linearGradient>
    <clipPath
       clipPathUnits="userSpaceOnUse"
       id="clipPath6662">
      <circle
         style="opacity:1;fill:#8a715e;fill-opacity:0.6707355;stroke:none;stroke-width:4.18520069;stroke-linecap:butt;stroke-linejoin:miter;stroke-miterlimit:4;stroke-dasharray:8.37040105, 8.37040105;stroke-dashoffset:0;stroke-opacity:1"
         id="circle6664"
         cx="104.66113"
         cy="103.60957"
         r="86.010262" />
    </clipPath>
    <clipPath
       clipPathUnits="userSpaceOnUse"
       id="clipPath6658">
      <circle
         style="opacity:1;fill:#8a715e;fill-opacity:0.6707355;stroke:none;stroke-width:4.18520069;stroke-linecap:butt;stroke-linejoin:miter;stroke-miterlimit:4;stroke-dasharray:8.37040105, 8.37040105;stroke-dashoffset:0;stroke-opacity:1"
         id="circle6660"
         cx="104.66113"
         cy="103.60957"
         r="86.010262" />
    </clipPath>
  </defs>
  <sodipodi:namedview
     pagecolor="#ffffff"
     bordercolor="#666666"
     borderopacity="1"
     objecttolerance="10"
     gridtolerance="10"
     guidetolerance="10"
     inkscape:pageopacity="0"
     inkscape:pageshadow="2"
     inkscape:window-width="1366"
     inkscape:window-height="717"
     id="namedview4"
     inkscape:document-units="px"
     showgrid="false"
     inkscape:zoom="0.36621093"
     inkscape:cx="-28.15979"
     inkscape:cy="303.36055"
     inkscape:window-x="0"
     inkscape:window-y="0"
     inkscape:window-maximized="1"
     inkscape:current-layer="svg2" />
  <g
     transform="translate(1.8019321e-8,4.5874596e-6)"
     id="g855">
    <path
       style="fill:#f37329;fill-opacity:1;stroke-width:11.10955811"
       inkscape:connector-curvature="0"
       d="M 432.91327,56.473965 C 535.10618,145.04855 538.74005,306.17367 441.03007,416.37275 343.3201,526.57182 181.27964,544.10062 79.086729,455.52601 -23.106186,366.95142 -26.740042,205.8263 70.969928,95.627225 168.6799,-14.571855 330.72036,-32.100625 432.91327,56.473965 Z"
       id="path27" />
    <path
       style="opacity:1;fill:#000000;fill-opacity:0.49019608;stroke-width:11.10955811"
       inkscape:connector-curvature="0"
       d="M 511.63551,224.90351 C 510.08412,286.21516 486.47428,349.05812 440.66913,400.71798 342.95915,510.91712 180.91869,528.44582 78.725776,439.87128 30.827124,398.35563 4.4968216,340.92283 0.19382774,280.2288 0.7990794,346.58547 27.117411,410.48217 79.078682,455.51906 181.27159,544.09362 343.31975,526.55622 441.02202,416.36576 490.72697,360.30765 514.02704,291.0748 511.63551,224.90351 Z"
       id="path51" />
    <path
       style="fill:#000000;fill-opacity:0.49019608;fill-rule:evenodd;stroke:none;stroke-width:0.64410305px;stroke-linecap:butt;stroke-linejoin:miter;stroke-opacity:1"
       d="m 241.94824,249.01174 c 1.68066,-3.77121 14.37231,-7.22506 19.55034,-10.26172 5.17802,-3.03667 9.12089,-4.10043 11.67712,-7.60783 2.55625,-3.50738 3.18468,-11.67712 3.18468,-11.67712 0,0 -7.81245,-3.06662 -12.65022,-4.06932 -4.83776,-1.00269 -11.57866,0.99222 -16.27722,-1.59233 -4.69856,-2.58455 -9.73093,-12.4733 -9.73093,-12.4733 0,0 6.28726,-11.89043 10.17325,-16.45414 3.88599,-4.56371 12.56177,-10.88095 12.56177,-10.88095 0,0 -18.49721,-0.57293 -25.47738,1.94619 -6.98018,2.51911 -15.48105,10.96942 -15.48105,10.96942 0,0 -14.42132,-4.21641 -20.20696,-4.60799 -5.78565,-0.39158 -14.01185,1.25105 -14.01185,1.25105 0,0 -7.29045,-7.63783 -9.75824,-12.76078 -2.4678,-5.12294 -4.3787,-17.5148 -4.3787,-17.5148 0,0 -14.34871,19.66357 -17.3897,28.64922 -3.04098,8.98563 -2.50212,23.26965 -2.50212,23.26965 0,0 -10.84706,13.76389 -15.13779,22.26882 -4.29072,8.50494 -10.00846,28.52411 -10.00846,28.52411 0,0 3.41489,-6.31887 4.94168,-8.69485 1.5268,-2.37598 4.06593,-5.62975 4.06593,-5.62975 0,0 -5.71359,15.78721 -7.4385,24.50827 -1.7249,8.72105 -2.65389,27.60049 -2.65389,27.60049 0,0 1.47226,-5.38935 2.16735,-7.78477 0.69509,-2.39542 1.99042,-6.59049 1.99042,-6.59049 0,0 -0.52564,29.04821 4.55847,45.39925 5.0841,16.35105 15.44204,35.27907 27.52326,50.0423 12.08121,14.76322 27.66139,27.83125 43.787,37.03129 16.1256,9.20004 33.68385,14.87381 51.04313,17.76502 17.35929,2.89121 34.63735,3.48982 51.54356,-0.25021 16.90623,-3.74004 47.56782,-21.84883 47.56782,-21.84883 0,0 -13.78547,4.70759 -19.63881,5.83856 -5.85335,1.13097 -15.21566,1.41541 -15.21566,1.41541 0,0 33.32143,-9.98047 46.5316,-17.51569 13.21017,-7.53522 25.80807,-17.48266 32.37751,-26.00816 6.56944,-8.5255 9.37708,-21.05423 9.37708,-21.05423 0,0 -6.25212,9.76771 -10.43864,13.4464 -4.18652,3.67868 -14.1541,8.31553 -14.1541,8.31553 0,0 26.08514,-29.95034 33.26213,-46.17775 7.17699,-16.22741 9.65838,-36.85459 10.26172,-48.47777 0.60333,-11.62318 -2.12312,-20.16959 -2.12312,-20.16959 0,0 -0.68009,14.74728 -1.94618,22.11577 -1.2661,7.36849 -5.66163,21.93886 -5.66163,21.93886 0,0 4.13153,-26.63871 2.1231,-41.7546 -2.00842,-15.11588 -7.90131,-31.02155 -15.39257,-47.2393 -7.49126,-16.21774 -24.35474,-38.23243 -30.07746,-49.00855 -5.72274,-10.77611 -6.48927,-14.3031 -6.48927,-14.3031 0,0 -2.82629,4.82161 -3.81573,7.31868 -0.98943,2.49706 -2.12679,7.56889 -2.12679,7.56889 0,0 -18.87403,-18.84895 -24.02029,-25.14625 -5.14626,-6.29729 -6.48329,-8.27976 -8.00678,-11.50973 C 328.48363,123.90106 328.00543,120 328.00543,120 c 0,0 -9.21159,10.41402 -13.38631,18.26543 -4.17471,7.85142 -8.8383,18.08385 -10.38378,28.89943 -1.54549,10.81557 -1.24615,23.69857 2.12681,34.77939 3.37294,11.08082 11.76785,22.71862 17.51479,29.90027 5.74696,7.18164 10.27906,7.00907 15.01269,14.01183 4.73363,7.00277 9.62563,16.12989 10.8842,28.14879 1.25856,12.0189 -1.65512,30.59795 -6.75571,41.78533 -5.10058,11.18736 -11.84639,17.78127 -20.14202,24.14539 -8.29562,6.36412 -17.99133,11.11885 -28.399,13.13611 -10.40767,2.01726 -23.21899,0.54844 -32.27729,-1.62638 -9.05828,-2.17482 -15.77726,-5.53102 -21.51818,-9.63314 -5.74091,-4.10212 -12.79903,-13.71469 -12.79903,-13.71469 0,0 15.65423,4.21296 22.91195,4.0693 7.25771,-0.14366 13.40868,-2.05796 19.81574,-4.33469 6.40706,-2.27673 13.86815,-8.27793 18.31186,-9.24439 4.44372,-0.96646 4.53499,0.5356 6.76743,0.26538 2.23243,-0.27022 5.06019,-0.3702 6.4578,-1.85772 1.39761,-1.48751 2.10899,-2.26007 1.19425,-5.39625 -0.91474,-3.13619 -5.91833,-7.5027 -9.9521,-9.95211 -4.03376,-2.4494 -7.68602,-4.02817 -13.57909,-4.29045 -5.89307,-0.26228 -14.39215,3.83963 -20.65613,4.55585 -6.26399,0.71622 -10.44663,2.26356 -16.6753,0.17693 -6.22866,-2.08664 -14.34064,-9.77277 -18.00224,-13.88871 -3.66161,-4.11594 -4.72388,-4.77616 -5.30779,-8.84632 -0.58391,-4.07016 1.83759,-11.37754 3.62699,-13.8887 1.7894,-2.51117 2.01807,-2.34549 3.45006,-2.30005 1.432,0.0454 3.53852,2.69814 3.53852,2.69814 l -1.45964,-3.09622 c 0,0 3.50105,1.91355 5.30779,3.14045 1.80673,1.22689 5.48472,4.24623 5.48472,4.24623 0,0 0.13581,-2.18284 -0.35385,-3.31737 -0.48967,-1.13453 -2.6539,-3.09621 -2.6539,-3.09621 0,0 2.13184,0.87568 2.87505,1.45964 0.74321,0.58395 1.59234,1.85773 1.59234,1.85773 0,0 0.8419,-4.82276 0.88463,-7.34245 0.0427,-2.51969 -1.60991,-6.41005 -0.66348,-7.69629 0.94643,-1.28624 1.41534,0.24719 1.8135,-0.39808 0.39817,-0.64527 -2.34413,1.16154 -0.66347,-2.60966 z"
       id="path44"
       inkscape:connector-curvature="0"
       sodipodi:nodetypes="zzzczzczczczczczczczczczczzzzzczczzczczzczczzzczczzczzzzzzzzzzzczzzzzzzzzzzzzzcczczczczzzz" />
    <path
       sodipodi:nodetypes="zzzczzczczczczczczczczczczzzzzczczzczczzczczzzczczzczzzzzzzzzzzczzzzzzzzzzzzzzcczczczczzzz"
       inkscape:connector-curvature="0"
       id="path4161"
       d="m 221.94824,229.01174 c 1.68066,-3.77121 14.37231,-7.22506 19.55034,-10.26172 5.17802,-3.03667 9.12089,-4.10043 11.67712,-7.60783 2.55625,-3.50738 3.18468,-11.67712 3.18468,-11.67712 0,0 -7.81245,-3.06662 -12.65022,-4.06932 -4.83776,-1.00269 -11.57866,0.99222 -16.27722,-1.59233 -4.69856,-2.58455 -9.73093,-12.4733 -9.73093,-12.4733 0,0 6.28726,-11.89043 10.17325,-16.45414 3.88599,-4.56371 12.56177,-10.88095 12.56177,-10.88095 0,0 -18.49721,-0.57293 -25.47738,1.94619 -6.98018,2.51911 -15.48105,10.96942 -15.48105,10.96942 0,0 -14.42132,-4.21641 -20.20696,-4.60799 -5.78565,-0.39158 -14.01185,1.25105 -14.01185,1.25105 0,0 -7.29045,-7.63783 -9.75824,-12.76078 -2.4678,-5.12294 -4.3787,-17.5148 -4.3787,-17.5148 0,0 -14.34871,19.66357 -17.3897,28.64922 -3.04098,8.98563 -2.50212,23.26965 -2.50212,23.26965 0,0 -10.84706,13.76389 -15.13779,22.26882 -4.29072,8.50494 -10.00846,28.52411 -10.00846,28.52411 0,0 3.41489,-6.31887 4.94168,-8.69485 1.5268,-2.37598 4.06593,-5.62975 4.06593,-5.62975 0,0 -5.71359,15.78721 -7.4385,24.50827 -1.7249,8.72105 -2.65389,27.60049 -2.65389,27.60049 0,0 1.47226,-5.38935 2.16735,-7.78477 0.69509,-2.39542 1.99042,-6.59049 1.99042,-6.59049 0,0 -0.52564,29.04821 4.55847,45.39925 5.0841,16.35105 15.44204,35.27907 27.52326,50.0423 12.08121,14.76322 27.66139,27.83125 43.787,37.03129 16.1256,9.20004 33.68385,14.87381 51.04313,17.76502 17.35929,2.89121 34.63735,3.48982 51.54356,-0.25021 16.90623,-3.74004 47.56782,-21.84883 47.56782,-21.84883 0,0 -13.78547,4.70759 -19.63881,5.83856 -5.85335,1.13097 -15.21566,1.41541 -15.21566,1.41541 0,0 33.32143,-9.98047 46.5316,-17.51569 13.21017,-7.53522 25.80807,-17.48266 32.37751,-26.00816 6.56944,-8.5255 9.37708,-21.05423 9.37708,-21.05423 0,0 -6.25212,9.76771 -10.43864,13.4464 -4.18652,3.67868 -14.1541,8.31553 -14.1541,8.31553 0,0 26.08514,-29.95034 33.26213,-46.17775 7.17699,-16.22741 9.65838,-36.85459 10.26172,-48.47777 0.60333,-11.62318 -2.12312,-20.16959 -2.12312,-20.16959 0,0 -0.68009,14.74728 -1.94618,22.11577 -1.2661,7.36849 -5.66163,21.93886 -5.66163,21.93886 0,0 4.13153,-26.63871 2.1231,-41.7546 -2.00842,-15.11588 -7.90131,-31.02155 -15.39257,-47.2393 -7.49126,-16.21774 -24.35474,-38.23243 -30.07746,-49.00855 -5.72274,-10.77611 -6.48927,-14.3031 -6.48927,-14.3031 0,0 -2.82629,4.82161 -3.81573,7.31868 -0.98943,2.49706 -2.12679,7.56889 -2.12679,7.56889 0,0 -18.87403,-18.84895 -24.02029,-25.14625 -5.14626,-6.29729 -6.48329,-8.27976 -8.00678,-11.50973 C 308.48363,103.90106 308.00543,100 308.00543,100 c 0,0 -9.21159,10.41402 -13.38631,18.26543 -4.17471,7.85142 -8.8383,18.08385 -10.38378,28.89943 -1.54549,10.81557 -1.24615,23.69857 2.12681,34.77939 3.37294,11.08082 11.76785,22.71862 17.51479,29.90027 5.74696,7.18164 10.27906,7.00907 15.01269,14.01183 4.73363,7.00277 9.62563,16.12989 10.8842,28.14879 1.25856,12.0189 -1.65512,30.59795 -6.75571,41.78533 -5.10058,11.18736 -11.84639,17.78127 -20.14202,24.14539 -8.29562,6.36412 -17.99133,11.11885 -28.399,13.13611 -10.40767,2.01726 -23.21899,0.54844 -32.27729,-1.62638 -9.05828,-2.17482 -15.77726,-5.53102 -21.51818,-9.63314 -5.74091,-4.10212 -12.79903,-13.71469 -12.79903,-13.71469 0,0 15.65423,4.21296 22.91195,4.0693 7.25771,-0.14366 13.40868,-2.05796 19.81574,-4.33469 6.40706,-2.27673 13.86815,-8.27793 18.31186,-9.24439 4.44372,-0.96646 4.53499,0.5356 6.76743,0.26538 2.23243,-0.27022 5.06019,-0.3702 6.4578,-1.85772 1.39761,-1.48751 2.10899,-2.26007 1.19425,-5.39625 -0.91474,-3.13619 -5.91833,-7.5027 -9.9521,-9.95211 -4.03376,-2.4494 -7.68602,-4.02817 -13.57909,-4.29045 -5.89307,-0.26228 -14.39215,3.83963 -20.65613,4.55585 -6.26399,0.71622 -10.44663,2.26356 -16.6753,0.17693 -6.22866,-2.08664 -14.34064,-9.77277 -18.00224,-13.88871 -3.66161,-4.11594 -4.72388,-4.77616 -5.30779,-8.84632 -0.58391,-4.07016 1.83759,-11.37754 3.62699,-13.8887 1.7894,-2.51117 2.01807,-2.34549 3.45006,-2.30005 1.432,0.0454 3.53852,2.69814 3.53852,2.69814 l -1.45964,-3.09622 c 0,0 3.50105,1.91355 5.30779,3.14045 1.80673,1.22689 5.48472,4.24623 5.48472,4.24623 0,0 0.13581,-2.18284 -0.35385,-3.31737 -0.48967,-1.13453 -2.6539,-3.09621 -2.6539,-3.09621 0,0 2.13184,0.87568 2.87505,1.45964 0.74321,0.58395 1.59234,1.85773 1.59234,1.85773 0,0 0.8419,-4.82276 0.88463,-7.34245 0.0427,-2.51969 -1.60991,-6.41005 -0.66348,-7.69629 0.94643,-1.28624 1.41534,0.24719 1.8135,-0.39808 0.39817,-0.64527 -2.34413,1.16154 -0.66347,-2.60966 z"
       style="fill:#ffffff;fill-opacity:1;fill-rule:evenodd;stroke:none;stroke-width:0.64410305px;stroke-linecap:butt;stroke-linejoin:miter;stroke-opacity:1" />
  </g>
</svg>
