<?xml version="1.0" encoding="UTF-8" standalone="no"?>
<!-- Created with Inkscape (http://www.inkscape.org/) -->

<svg
   xmlns:dc="http://purl.org/dc/elements/1.1/"
   xmlns:cc="http://creativecommons.org/ns#"
   xmlns:rdf="http://www.w3.org/1999/02/22-rdf-syntax-ns#"
   xmlns:svg="http://www.w3.org/2000/svg"
   xmlns="http://www.w3.org/2000/svg"
   xmlns:sodipodi="http://sodipodi.sourceforge.net/DTD/sodipodi-0.dtd"
   xmlns:inkscape="http://www.inkscape.org/namespaces/inkscape"
   width="512"
   height="512"
   id="svg2"
   version="1.1"
   inkscape:version="0.92.2 2405546, 2018-03-11"
   sodipodi:docname="fjt.svg"
   viewBox="0 0 512 512">
  <defs
     id="defs4" />
  <sodipodi:namedview
     id="base"
     pagecolor="#ffffff"
     bordercolor="#666666"
     borderopacity="1.0"
     inkscape:pageopacity="0.0"
     inkscape:pageshadow="2"
     inkscape:zoom="0.4609375"
     inkscape:cx="-110.64407"
     inkscape:cy="256"
     inkscape:document-units="px"
     inkscape:current-layer="layer1"
     showgrid="true"
     inkscape:snap-page="true"
     inkscape:snap-global="false"
     inkscape:snap-center="true"
     inkscape:snap-object-midpoints="false"
     showguides="true"
     inkscape:guide-bbox="true"
     inkscape:snap-bbox="true"
     inkscape:object-paths="true"
     inkscape:object-nodes="true"
     inkscape:window-width="1366"
     inkscape:window-height="717"
     inkscape:window-x="0"
     inkscape:window-y="0"
     inkscape:window-maximized="1"
     inkscape:snap-midpoints="false"
     inkscape:snap-grids="true"
     inkscape:snap-to-guides="false"
     borderlayer="false"
     showborder="true">
    <inkscape:grid
       type="xygrid"
       id="grid3002"
       empspacing="5"
       visible="true"
       enabled="false"
       snapvisiblegridlinesonly="true" />
  </sodipodi:namedview>
  <metadata
     id="metadata7">
    <rdf:RDF>
      <cc:Work
         rdf:about="">
        <dc:format>image/svg+xml</dc:format>
        <dc:type
           rdf:resource="http://purl.org/dc/dcmitype/StillImage" />
        <dc:title></dc:title>
      </cc:Work>
    </rdf:RDF>
  </metadata>
  <g
     inkscape:label="Layer 1"
     inkscape:groupmode="layer"
     id="layer1"
     transform="translate(0,-540.36218)">
    <g
       id="g877">
      <path
         style="fill:#3689e6;fill-opacity:1;stroke-width:11.10955811"
         inkscape:connector-curvature="0"
         d="m 432.91327,596.83615 c 102.19291,88.57458 105.82678,249.6997 8.1168,359.89878 C 343.3201,1066.934 181.27964,1084.4628 79.086729,995.88819 -23.106186,907.3136 -26.740042,746.18848 70.969928,635.98941 168.6799,525.79033 330.72036,508.26156 432.91327,596.83615 Z"
         id="path27" />
      <path
         style="opacity:1;fill:#000000;fill-opacity:0.49019608;stroke-width:11.10955811"
         inkscape:connector-curvature="0"
         d="M 511.63551,765.26569 C 510.08412,826.57734 486.47428,889.4203 440.66913,941.08016 342.95915,1051.2793 180.91869,1068.808 78.725776,980.23346 30.827124,938.71781 4.4968216,881.28501 0.19382778,820.59098 0.79907944,886.94765 27.117411,950.84435 79.078682,995.88124 181.27159,1084.4558 343.31975,1066.9184 441.02202,956.72794 490.72697,900.66983 514.02704,831.43698 511.63551,765.26569 Z"
         id="path51" />
      <path
         style="fill:#000000;fill-opacity:0.49019608;fill-rule:evenodd;stroke:none;stroke-width:3.51386023"
         d="m 287.85031,660.36218 c 38.40282,33.15218 48.00385,66.7553 48.00385,119.55938 l 15.75168,-40.80376 c 16.58328,16.30438 27.88566,37.90719 31.2027,62.10479 1.22073,18.6073 -1.81746,35.0804 -6.61781,49.48126 19.58879,-12.47245 44.33039,-26.72515 54.92094,-49.48126 -7.069,-75.29609 -67.59149,-135.10288 -143.26136,-140.86041 z m -26.9899,0.88833 c -75.2962,7.06888 -135.10282,67.59061 -140.86041,143.26 33.15242,-38.40269 66.75415,-48.00249 119.55802,-48.00249 l -40.8024,-15.75168 c 16.30445,-16.58323 37.90704,-27.88462 62.10479,-31.20135 18.60691,-1.22072 35.0802,1.81607 49.48126,6.61646 -12.47234,-19.58896 -26.72497,-44.33044 -49.48126,-54.92094 z m -85.04979,120.77 c -19.58893,12.47231 -44.3318,26.72479 -54.92229,49.48126 7.06886,75.29604 67.59169,135.10301 143.26136,140.86041 -38.40282,-33.1522 -48.00386,-66.75555 -48.00385,-119.55938 l -15.75168,40.80376 c -16.58314,-16.30432 -27.88459,-37.9073 -31.20135,-62.10479 -1.22068,-18.6073 1.81746,-35.08012 6.61781,-49.48126 z M 432,828.21249 c -33.15219,38.40263 -66.75415,48.00385 -119.55802,48.00385 l 40.8024,15.75168 c -16.3044,16.5833 -37.90718,27.88561 -62.10479,31.2027 -18.60713,1.22071 -35.0802,-1.81753 -49.48126,-6.61781 12.47233,19.58867 26.72485,44.33047 49.48126,54.92097 C 366.43549,964.40508 426.24246,903.88242 432,828.21249 Z"
         id="path871"
         inkscape:connector-curvature="0" />
      <path
         inkscape:connector-curvature="0"
         id="path3794"
         d="m 267.85031,640.36218 c 38.40282,33.15218 48.00385,66.7553 48.00385,119.55938 l 15.75168,-40.80376 c 16.58328,16.30438 27.88566,37.90719 31.2027,62.10479 1.22073,18.6073 -1.81746,35.0804 -6.61781,49.48126 19.58879,-12.47245 44.33039,-26.72515 54.92094,-49.48126 -7.069,-75.29609 -67.59149,-135.10288 -143.26136,-140.86041 z m -26.9899,0.88833 c -75.2962,7.06888 -135.10282,67.59061 -140.86041,143.26 33.15242,-38.40269 66.75415,-48.00249 119.55802,-48.00249 l -40.8024,-15.75168 c 16.30445,-16.58323 37.90704,-27.88462 62.10479,-31.20135 18.60691,-1.22072 35.0802,1.81607 49.48126,6.61646 -12.47234,-19.58896 -26.72497,-44.33044 -49.48126,-54.92094 z m -85.04979,120.77 c -19.58893,12.47231 -44.3318,26.72479 -54.92229,49.48126 7.06886,75.29604 67.59169,135.10301 143.26136,140.86041 -38.40282,-33.1522 -48.00386,-66.75555 -48.00385,-119.55938 l -15.75168,40.80376 c -16.58314,-16.30432 -27.88459,-37.9073 -31.20135,-62.10479 -1.22068,-18.6073 1.81746,-35.08012 6.61781,-49.48126 z M 412,808.21249 c -33.15219,38.40263 -66.75415,48.00385 -119.55802,48.00385 l 40.8024,15.75168 c -16.3044,16.5833 -37.90718,27.88561 -62.10479,31.2027 -18.60713,1.22071 -35.0802,-1.81753 -49.48126,-6.61781 12.47233,19.58867 26.72485,44.33047 49.48126,54.92097 C 346.43549,944.40508 406.24246,883.88242 412,808.21249 Z"
         style="fill:#ffffff;fill-opacity:1;fill-rule:evenodd;stroke:none;stroke-width:3.51386023" />
    </g>
  </g>
</svg>
