<?xml version="1.0" encoding="UTF-8" standalone="no"?>
<!-- Created with Inkscape (http://www.inkscape.org/) -->

<svg
   xmlns:dc="http://purl.org/dc/elements/1.1/"
   xmlns:cc="http://creativecommons.org/ns#"
   xmlns:rdf="http://www.w3.org/1999/02/22-rdf-syntax-ns#"
   xmlns:svg="http://www.w3.org/2000/svg"
   xmlns="http://www.w3.org/2000/svg"
   xmlns:sodipodi="http://sodipodi.sourceforge.net/DTD/sodipodi-0.dtd"
   xmlns:inkscape="http://www.inkscape.org/namespaces/inkscape"
   width="512"
   height="512"
   id="svg2"
   version="1.1"
   inkscape:version="0.92.2 2405546, 2018-03-11"
   sodipodi:docname="focuswriter.svg">
  <defs
     id="defs4" />
  <sodipodi:namedview
     id="base"
     pagecolor="#ffffff"
     bordercolor="#666666"
     borderopacity="1.0"
     inkscape:pageopacity="0.0"
     inkscape:pageshadow="2"
     inkscape:zoom="0.30333332"
     inkscape:cx="114.79477"
     inkscape:cy="209.53391"
     inkscape:document-units="px"
     inkscape:current-layer="layer1"
     showgrid="false"
     inkscape:window-width="1366"
     inkscape:window-height="717"
     inkscape:window-x="0"
     inkscape:window-y="0"
     inkscape:window-maximized="1" />
  <metadata
     id="metadata7">
    <rdf:RDF>
      <cc:Work
         rdf:about="">
        <dc:format>image/svg+xml</dc:format>
        <dc:type
           rdf:resource="http://purl.org/dc/dcmitype/StillImage" />
        <dc:title></dc:title>
      </cc:Work>
    </rdf:RDF>
  </metadata>
  <g
     inkscape:label="Layer 1"
     inkscape:groupmode="layer"
     id="layer1"
     transform="translate(0,-540.36218)">
    <g
       id="g868">
      <path
         style="fill:#8a715e;fill-opacity:1;stroke-width:11.10955715;image-rendering:optimizeSpeed"
         inkscape:connector-curvature="0"
         d="m 432.91328,596.83616 c 102.1929,88.57459 105.82676,249.69969 8.1168,359.89878 C 343.32011,1066.934 181.27963,1084.4628 79.086725,995.8882 -23.10618,907.31362 -26.740045,746.1885 70.969926,635.98943 168.67989,525.79034 330.72037,508.26158 432.91328,596.83616 Z"
         id="path941" />
      <path
         style="opacity:1;fill:#000000;fill-opacity:0.49019608;stroke-width:11.10955715;image-rendering:optimizeSpeed"
         inkscape:connector-curvature="0"
         d="M 511.63551,765.2657 C 510.08412,826.57735 486.47428,889.42032 440.66913,941.08018 342.95916,1051.2793 180.91868,1068.808 78.725781,980.23348 30.82711,938.71783 4.4968431,881.28503 0.19381337,820.591 0.79906687,886.94765 27.117428,950.84437 79.078675,995.88125 181.27158,1084.4558 343.31973,1066.9184 441.02203,956.72795 490.72697,900.66985 514.02704,831.43699 511.63551,765.2657 Z"
         id="path943" />
      <g
         aria-label="F"
         transform="matrix(9.5142349,0,0,9.5142349,-1254.7333,-265.85308)"
         style="font-style:normal;font-weight:normal;font-size:40px;line-height:1.25;font-family:sans-serif;letter-spacing:0px;word-spacing:0px;fill:#000000;fill-opacity:0.49019608;stroke:none"
         id="g52">
        <path
           d="m 168.97656,103.65907 q -0.44922,0 -0.99609,-0.17579 -2.51953,-0.82031 -6.15235,-0.82031 -1.1914,0 -2.7539,0.15625 -1.54297,0.15625 -3.4375,0.46875 0.0391,3.75 0,6.44531 2.96875,-0.72265 4.92187,-0.72265 3.63282,0 6.32813,0.33203 2.51953,0.3125 2.51953,2.65625 0,1.13281 -0.80078,1.89453 -0.80078,0.76172 -1.95313,0.76172 -1.01562,0 -3.04687,-0.15625 -2.03125,-0.15625 -3.04688,-0.15625 -1.42578,0 -4.92187,0.89844 v 12.24609 q 0,1.13281 -0.89844,1.89453 -0.87891,0.76172 -2.03125,0.76172 -1.13281,0 -1.83594,-0.76172 -0.70312,-0.74219 -0.70312,-1.89453 v -22.38281 q 0,-0.76172 0.0195,-2.30469 0.0391,-1.54297 0.0391,-2.30469 0,-1.152341 0.76172,-1.91406 0.78125,-0.761718 1.95313,-0.761718 0.74218,0 1.30859,0.292968 2.26562,-0.390625 4.16016,-0.566406 1.89453,-0.195312 3.41796,-0.195312 2.22657,0 5.60547,0.917968 4.23828,1.152344 4.23828,2.67578 0,1.11328 -0.80078,1.91406 -0.78125,0.80079 -1.89453,0.80079 z"
           style="font-style:normal;font-variant:normal;font-weight:bold;font-stretch:normal;font-family:'Comic Sans MS';-inkscape-font-specification:'Comic Sans MS Bold';fill:#000000;fill-opacity:0.49019608"
           id="path50"
           inkscape:connector-curvature="0" />
      </g>
      <g
         id="flowRoot39"
         style="font-style:normal;font-weight:normal;font-size:40px;line-height:1.25;font-family:sans-serif;letter-spacing:0px;word-spacing:0px;fill:#000000;fill-opacity:1;stroke:none"
         transform="matrix(9.5142349,0,0,9.5142349,-1274.7333,-285.85307)"
         aria-label="F">
        <path
           inkscape:connector-curvature="0"
           id="path47"
           style="font-style:normal;font-variant:normal;font-weight:bold;font-stretch:normal;font-family:'Comic Sans MS';-inkscape-font-specification:'Comic Sans MS Bold';fill:#ffffff"
           d="m 168.97656,103.65907 q -0.44922,0 -0.99609,-0.17579 -2.51953,-0.82031 -6.15235,-0.82031 -1.1914,0 -2.7539,0.15625 -1.54297,0.15625 -3.4375,0.46875 0.0391,3.75 0,6.44531 2.96875,-0.72265 4.92187,-0.72265 3.63282,0 6.32813,0.33203 2.51953,0.3125 2.51953,2.65625 0,1.13281 -0.80078,1.89453 -0.80078,0.76172 -1.95313,0.76172 -1.01562,0 -3.04687,-0.15625 -2.03125,-0.15625 -3.04688,-0.15625 -1.42578,0 -4.92187,0.89844 v 12.24609 q 0,1.13281 -0.89844,1.89453 -0.87891,0.76172 -2.03125,0.76172 -1.13281,0 -1.83594,-0.76172 -0.70312,-0.74219 -0.70312,-1.89453 v -22.38281 q 0,-0.76172 0.0195,-2.30469 0.0391,-1.54297 0.0391,-2.30469 0,-1.152341 0.76172,-1.91406 0.78125,-0.761718 1.95313,-0.761718 0.74218,0 1.30859,0.292968 2.26562,-0.390625 4.16016,-0.566406 1.89453,-0.195312 3.41796,-0.195312 2.22657,0 5.60547,0.917968 4.23828,1.152344 4.23828,2.67578 0,1.11328 -0.80078,1.91406 -0.78125,0.80079 -1.89453,0.80079 z" />
      </g>
    </g>
  </g>
</svg>
