<?xml version="1.0" encoding="UTF-8" standalone="no"?>
<!-- Created with Inkscape (http://www.inkscape.org/) -->

<svg
   xmlns:dc="http://purl.org/dc/elements/1.1/"
   xmlns:cc="http://creativecommons.org/ns#"
   xmlns:rdf="http://www.w3.org/1999/02/22-rdf-syntax-ns#"
   xmlns:svg="http://www.w3.org/2000/svg"
   xmlns="http://www.w3.org/2000/svg"
   xmlns:sodipodi="http://sodipodi.sourceforge.net/DTD/sodipodi-0.dtd"
   xmlns:inkscape="http://www.inkscape.org/namespaces/inkscape"
   id="svg2"
   version="1.1"
   inkscape:version="0.92.2 2405546, 2018-03-11"
   width="512"
   height="512"
   sodipodi:docname="four-in-a-row.svg"
   inkscape:export-filename="/home/steph/.icons/ultra-flat-icons/apps/scalable/gnome-sudoku.png"
   inkscape:export-xdpi="90"
   inkscape:export-ydpi="90"
   viewBox="0 0 512 512">
  <metadata
     id="metadata8">
    <rdf:RDF>
      <cc:Work
         rdf:about="">
        <dc:format>image/svg+xml</dc:format>
        <dc:type
           rdf:resource="http://purl.org/dc/dcmitype/StillImage" />
        <dc:title></dc:title>
      </cc:Work>
    </rdf:RDF>
  </metadata>
  <defs
     id="defs6" />
  <sodipodi:namedview
     pagecolor="#ffffff"
     bordercolor="#666666"
     borderopacity="1"
     objecttolerance="10"
     gridtolerance="10"
     guidetolerance="10"
     inkscape:pageopacity="0"
     inkscape:pageshadow="2"
     inkscape:window-width="1366"
     inkscape:window-height="717"
     id="namedview4"
     showgrid="false"
     inkscape:zoom="0.35735504"
     inkscape:cx="-159.27191"
     inkscape:cy="266.24725"
     inkscape:window-x="0"
     inkscape:window-y="0"
     inkscape:window-maximized="1"
     inkscape:current-layer="svg2"
     inkscape:snap-global="false"
     inkscape:document-units="px" />
  <g
     id="g937">
    <path
       style="fill:#3689e6;fill-opacity:1;stroke-width:11.10955811"
       inkscape:connector-curvature="0"
       d="m 432.91327,56.47396 c 102.19291,88.57459 105.82678,249.69971 8.1168,359.89879 C 343.3201,526.57182 181.27964,544.10062 79.086729,455.52601 -23.106186,366.95142 -26.740042,205.8263 70.969928,95.62722 168.6799,-14.57186 330.72036,-32.10063 432.91327,56.47396 Z"
       id="path27" />
    <path
       style="opacity:1;fill:#000000;fill-opacity:0.49019608;stroke-width:11.10955811"
       inkscape:connector-curvature="0"
       d="M 511.63551,224.90351 C 510.08412,286.21516 486.47428,349.05812 440.66913,400.71798 342.95915,510.91712 180.91869,528.44582 78.725776,439.87128 30.827124,398.35563 4.4968216,340.92283 0.19382772,280.2288 0.79907938,346.58547 27.117411,410.48217 79.078682,455.51906 181.27159,544.09362 343.31975,526.55622 441.02202,416.36576 490.72697,360.30765 514.02704,291.0748 511.63551,224.90351 Z"
       id="path51" />
    <g
       style="fill:#000000;fill-opacity:0.49019608"
       transform="translate(20.000008,20.000015)"
       id="g913">
      <path
         d="m 176.9315,372.72385 a 38.465752,39.276138 0 0 1 -38.42061,39.27611 38.465752,39.276138 0 0 1 -38.51079,-39.18391 38.465752,39.276138 0 0 1 38.3302,-39.3681 38.465752,39.276138 0 0 1 38.60077,39.0915"
         sodipodi:open="true"
         sodipodi:end="6.2784904"
         sodipodi:start="0"
         sodipodi:ry="39.276138"
         sodipodi:rx="38.465752"
         sodipodi:cy="372.72385"
         sodipodi:cx="138.46574"
         sodipodi:type="arc"
         id="path895"
         style="fill:#000000;fill-opacity:0.49019608;stroke:none;stroke-width:49.94475555;stroke-miterlimit:4;stroke-dasharray:none;stroke-opacity:1" />
      <path
         d="m 294.46584,372.72385 a 38.465752,39.276138 0 0 1 -38.4206,39.27611 38.465752,39.276138 0 0 1 -38.51079,-39.18391 38.465752,39.276138 0 0 1 38.3302,-39.3681 38.465752,39.276138 0 0 1 38.60077,39.0915"
         sodipodi:open="true"
         sodipodi:end="6.2784904"
         sodipodi:start="0"
         sodipodi:ry="39.276138"
         sodipodi:rx="38.465752"
         sodipodi:cy="372.72385"
         sodipodi:cx="256.00009"
         sodipodi:type="arc"
         id="path897"
         style="fill:#000000;fill-opacity:0.49019608;stroke:none;stroke-width:49.94475555;stroke-miterlimit:4;stroke-dasharray:none;stroke-opacity:1" />
      <path
         d="m 411.99999,372.72385 a 38.465752,39.276138 0 0 1 -38.4206,39.27611 38.465752,39.276138 0 0 1 -38.51079,-39.18391 38.465752,39.276138 0 0 1 38.3302,-39.3681 38.465752,39.276138 0 0 1 38.60077,39.0915"
         sodipodi:open="true"
         sodipodi:end="6.2784904"
         sodipodi:start="0"
         sodipodi:ry="39.276138"
         sodipodi:rx="38.465752"
         sodipodi:cy="372.72385"
         sodipodi:cx="373.53424"
         sodipodi:type="arc"
         id="path899"
         style="fill:#000000;fill-opacity:0.49019608;stroke:none;stroke-width:49.94475555;stroke-miterlimit:4;stroke-dasharray:none;stroke-opacity:1" />
      <path
         d="m 176.9315,253.37485 a 38.465752,39.276138 0 0 1 -38.42061,39.27611 38.465752,39.276138 0 0 1 -38.51079,-39.18391 38.465752,39.276138 0 0 1 38.3302,-39.3681 38.465752,39.276138 0 0 1 38.60077,39.0915"
         sodipodi:open="true"
         sodipodi:end="6.2784904"
         sodipodi:start="0"
         sodipodi:ry="39.276138"
         sodipodi:rx="38.465752"
         sodipodi:cy="253.37485"
         sodipodi:cx="138.46574"
         sodipodi:type="arc"
         id="path901"
         style="fill:#000000;fill-opacity:0.49019608;stroke:none;stroke-width:49.94475555;stroke-miterlimit:4;stroke-dasharray:none;stroke-opacity:1" />
      <path
         d="m 294.46578,253.37485 a 38.465752,39.276138 0 0 1 -38.4206,39.27611 38.465752,39.276138 0 0 1 -38.5108,-39.18391 38.465752,39.276138 0 0 1 38.33021,-39.3681 38.465752,39.276138 0 0 1 38.60077,39.0915"
         sodipodi:open="true"
         sodipodi:end="6.2784904"
         sodipodi:start="0"
         sodipodi:ry="39.276138"
         sodipodi:rx="38.465752"
         sodipodi:cy="253.37485"
         sodipodi:cx="256.00003"
         sodipodi:type="arc"
         id="path903"
         style="fill:#000000;fill-opacity:0.49019608;stroke:none;stroke-width:49.94475555;stroke-miterlimit:4;stroke-dasharray:none;stroke-opacity:1" />
      <path
         d="m 411.99999,253.37485 a 38.465752,39.276138 0 0 1 -38.4206,39.27611 38.465752,39.276138 0 0 1 -38.51079,-39.18391 38.465752,39.276138 0 0 1 38.3302,-39.3681 38.465752,39.276138 0 0 1 38.60077,39.0915"
         sodipodi:open="true"
         sodipodi:end="6.2784904"
         sodipodi:start="0"
         sodipodi:ry="39.276138"
         sodipodi:rx="38.465752"
         sodipodi:cy="253.37485"
         sodipodi:cx="373.53424"
         sodipodi:type="arc"
         id="path905"
         style="fill:#000000;fill-opacity:0.49019608;stroke:none;stroke-width:49.94475555;stroke-miterlimit:4;stroke-dasharray:none;stroke-opacity:1" />
      <path
         d="m 176.9315,139.27614 a 38.465752,39.276138 0 0 1 -38.42061,39.27611 38.465752,39.276138 0 0 1 -38.51079,-39.18391 38.465752,39.276138 0 0 1 38.3302,-39.3681 38.465752,39.276138 0 0 1 38.60077,39.0915"
         sodipodi:open="true"
         sodipodi:end="6.2784904"
         sodipodi:start="0"
         sodipodi:ry="39.276138"
         sodipodi:rx="38.465752"
         sodipodi:cy="139.27614"
         sodipodi:cx="138.46574"
         sodipodi:type="arc"
         id="path907"
         style="fill:#000000;fill-opacity:0.49019608;stroke:none;stroke-width:49.94475555;stroke-miterlimit:4;stroke-dasharray:none;stroke-opacity:1" />
      <path
         d="m 294.46584,139.27614 a 38.465752,39.276138 0 0 1 -38.4206,39.27611 38.465752,39.276138 0 0 1 -38.51079,-39.18391 38.465752,39.276138 0 0 1 38.3302,-39.3681 38.465752,39.276138 0 0 1 38.60077,39.0915"
         sodipodi:open="true"
         sodipodi:end="6.2784904"
         sodipodi:start="0"
         sodipodi:ry="39.276138"
         sodipodi:rx="38.465752"
         sodipodi:cy="139.27614"
         sodipodi:cx="256.00009"
         sodipodi:type="arc"
         id="path909"
         style="fill:#000000;fill-opacity:0.49019608;stroke:none;stroke-width:49.94475555;stroke-miterlimit:4;stroke-dasharray:none;stroke-opacity:1" />
      <path
         d="m 411.99999,139.27614 a 38.465752,39.276138 0 0 1 -38.4206,39.27611 38.465752,39.276138 0 0 1 -38.51079,-39.18391 38.465752,39.276138 0 0 1 38.3302,-39.3681 38.465752,39.276138 0 0 1 38.60077,39.0915"
         sodipodi:open="true"
         sodipodi:end="6.2784904"
         sodipodi:start="0"
         sodipodi:ry="39.276138"
         sodipodi:rx="38.465752"
         sodipodi:cy="139.27614"
         sodipodi:cx="373.53424"
         sodipodi:type="arc"
         id="path911"
         style="fill:#000000;fill-opacity:0.49019608;stroke:none;stroke-width:49.94475555;stroke-miterlimit:4;stroke-dasharray:none;stroke-opacity:1" />
    </g>
    <g
       id="g893">
      <path
         style="fill:#ffffff;fill-opacity:1;stroke:none;stroke-width:49.94475555;stroke-miterlimit:4;stroke-dasharray:none;stroke-opacity:1"
         id="path4202-3-6-9-3-3"
         sodipodi:type="arc"
         sodipodi:cx="138.46574"
         sodipodi:cy="372.72385"
         sodipodi:rx="38.465752"
         sodipodi:ry="39.276138"
         sodipodi:start="0"
         sodipodi:end="6.2784904"
         sodipodi:open="true"
         d="m 176.9315,372.72385 a 38.465752,39.276138 0 0 1 -38.42061,39.27611 38.465752,39.276138 0 0 1 -38.51079,-39.18391 38.465752,39.276138 0 0 1 38.3302,-39.3681 38.465752,39.276138 0 0 1 38.60077,39.0915" />
      <path
         style="fill:#ffffff;fill-opacity:1;stroke:none;stroke-width:49.94475555;stroke-miterlimit:4;stroke-dasharray:none;stroke-opacity:1"
         id="path4202-3-6-9-3-6-5"
         sodipodi:type="arc"
         sodipodi:cx="256.00009"
         sodipodi:cy="372.72385"
         sodipodi:rx="38.465752"
         sodipodi:ry="39.276138"
         sodipodi:start="0"
         sodipodi:end="6.2784904"
         sodipodi:open="true"
         d="m 294.46584,372.72385 a 38.465752,39.276138 0 0 1 -38.4206,39.27611 38.465752,39.276138 0 0 1 -38.51079,-39.18391 38.465752,39.276138 0 0 1 38.3302,-39.3681 38.465752,39.276138 0 0 1 38.60077,39.0915" />
      <path
         style="fill:#ffffff;fill-opacity:1;stroke:none;stroke-width:49.94475555;stroke-miterlimit:4;stroke-dasharray:none;stroke-opacity:1"
         id="path4202-3-6-9-3-6-7-6"
         sodipodi:type="arc"
         sodipodi:cx="373.53424"
         sodipodi:cy="372.72385"
         sodipodi:rx="38.465752"
         sodipodi:ry="39.276138"
         sodipodi:start="0"
         sodipodi:end="6.2784904"
         sodipodi:open="true"
         d="m 411.99999,372.72385 a 38.465752,39.276138 0 0 1 -38.4206,39.27611 38.465752,39.276138 0 0 1 -38.51079,-39.18391 38.465752,39.276138 0 0 1 38.3302,-39.3681 38.465752,39.276138 0 0 1 38.60077,39.0915" />
      <path
         style="fill:#ffffff;fill-opacity:1;stroke:none;stroke-width:49.94475555;stroke-miterlimit:4;stroke-dasharray:none;stroke-opacity:1"
         id="path4202-3-6-9-3-0"
         sodipodi:type="arc"
         sodipodi:cx="138.46574"
         sodipodi:cy="253.37485"
         sodipodi:rx="38.465752"
         sodipodi:ry="39.276138"
         sodipodi:start="0"
         sodipodi:end="6.2784904"
         sodipodi:open="true"
         d="m 176.9315,253.37485 a 38.465752,39.276138 0 0 1 -38.42061,39.27611 38.465752,39.276138 0 0 1 -38.51079,-39.18391 38.465752,39.276138 0 0 1 38.3302,-39.3681 38.465752,39.276138 0 0 1 38.60077,39.0915" />
      <path
         style="fill:#ffffff;fill-opacity:1;stroke:none;stroke-width:49.94475555;stroke-miterlimit:4;stroke-dasharray:none;stroke-opacity:1"
         id="path4202-3-6-9-3-6-9"
         sodipodi:type="arc"
         sodipodi:cx="256.00003"
         sodipodi:cy="253.37485"
         sodipodi:rx="38.465752"
         sodipodi:ry="39.276138"
         sodipodi:start="0"
         sodipodi:end="6.2784904"
         sodipodi:open="true"
         d="m 294.46578,253.37485 a 38.465752,39.276138 0 0 1 -38.4206,39.27611 38.465752,39.276138 0 0 1 -38.5108,-39.18391 38.465752,39.276138 0 0 1 38.33021,-39.3681 38.465752,39.276138 0 0 1 38.60077,39.0915" />
      <path
         style="fill:#ffffff;fill-opacity:1;stroke:none;stroke-width:49.94475555;stroke-miterlimit:4;stroke-dasharray:none;stroke-opacity:1"
         id="path4202-3-6-9-3-6-7-3"
         sodipodi:type="arc"
         sodipodi:cx="373.53424"
         sodipodi:cy="253.37485"
         sodipodi:rx="38.465752"
         sodipodi:ry="39.276138"
         sodipodi:start="0"
         sodipodi:end="6.2784904"
         sodipodi:open="true"
         d="m 411.99999,253.37485 a 38.465752,39.276138 0 0 1 -38.4206,39.27611 38.465752,39.276138 0 0 1 -38.51079,-39.18391 38.465752,39.276138 0 0 1 38.3302,-39.3681 38.465752,39.276138 0 0 1 38.60077,39.0915" />
      <path
         style="fill:#ffffff;fill-opacity:1;stroke:none;stroke-width:49.94475555;stroke-miterlimit:4;stroke-dasharray:none;stroke-opacity:1"
         id="path4202-3-6-9-3-3-0"
         sodipodi:type="arc"
         sodipodi:cx="138.46574"
         sodipodi:cy="139.27614"
         sodipodi:rx="38.465752"
         sodipodi:ry="39.276138"
         sodipodi:start="0"
         sodipodi:end="6.2784904"
         sodipodi:open="true"
         d="m 176.9315,139.27614 a 38.465752,39.276138 0 0 1 -38.42061,39.27611 38.465752,39.276138 0 0 1 -38.51079,-39.18391 38.465752,39.276138 0 0 1 38.3302,-39.3681 38.465752,39.276138 0 0 1 38.60077,39.0915" />
      <path
         style="fill:#ffffff;fill-opacity:1;stroke:none;stroke-width:49.94475555;stroke-miterlimit:4;stroke-dasharray:none;stroke-opacity:1"
         id="path4202-3-6-9-3-6-5-6"
         sodipodi:type="arc"
         sodipodi:cx="256.00009"
         sodipodi:cy="139.27614"
         sodipodi:rx="38.465752"
         sodipodi:ry="39.276138"
         sodipodi:start="0"
         sodipodi:end="6.2784904"
         sodipodi:open="true"
         d="m 294.46584,139.27614 a 38.465752,39.276138 0 0 1 -38.4206,39.27611 38.465752,39.276138 0 0 1 -38.51079,-39.18391 38.465752,39.276138 0 0 1 38.3302,-39.3681 38.465752,39.276138 0 0 1 38.60077,39.0915" />
      <path
         style="fill:#ffffff;fill-opacity:1;stroke:none;stroke-width:49.94475555;stroke-miterlimit:4;stroke-dasharray:none;stroke-opacity:1"
         id="path4202-3-6-9-3-6-7-6-2"
         sodipodi:type="arc"
         sodipodi:cx="373.53424"
         sodipodi:cy="139.27614"
         sodipodi:rx="38.465752"
         sodipodi:ry="39.276138"
         sodipodi:start="0"
         sodipodi:end="6.2784904"
         sodipodi:open="true"
         d="m 411.99999,139.27614 a 38.465752,39.276138 0 0 1 -38.4206,39.27611 38.465752,39.276138 0 0 1 -38.51079,-39.18391 38.465752,39.276138 0 0 1 38.3302,-39.3681 38.465752,39.276138 0 0 1 38.60077,39.0915" />
    </g>
  </g>
</svg>
