<?xml version="1.0" encoding="UTF-8" standalone="no"?>
<!-- Created with Inkscape (http://www.inkscape.org/) -->

<svg
   xmlns:dc="http://purl.org/dc/elements/1.1/"
   xmlns:cc="http://creativecommons.org/ns#"
   xmlns:rdf="http://www.w3.org/1999/02/22-rdf-syntax-ns#"
   xmlns:svg="http://www.w3.org/2000/svg"
   xmlns="http://www.w3.org/2000/svg"
   xmlns:sodipodi="http://sodipodi.sourceforge.net/DTD/sodipodi-0.dtd"
   xmlns:inkscape="http://www.inkscape.org/namespaces/inkscape"
   id="svg2"
   version="1.1"
   inkscape:version="0.92.2 2405546, 2018-03-11"
   width="512"
   height="512"
   sodipodi:docname="fslint.svg">
  <metadata
     id="metadata8">
    <rdf:RDF>
      <cc:Work
         rdf:about="">
        <dc:format>image/svg+xml</dc:format>
        <dc:type
           rdf:resource="http://purl.org/dc/dcmitype/StillImage" />
        <dc:title></dc:title>
      </cc:Work>
    </rdf:RDF>
  </metadata>
  <defs
     id="defs6" />
  <sodipodi:namedview
     pagecolor="#ffffff"
     bordercolor="#666666"
     borderopacity="1"
     objecttolerance="10"
     gridtolerance="10"
     guidetolerance="10"
     inkscape:pageopacity="0"
     inkscape:pageshadow="2"
     inkscape:window-width="1366"
     inkscape:window-height="717"
     id="namedview4"
     showgrid="false"
     inkscape:zoom="0.32593203"
     inkscape:cx="-297.90777"
     inkscape:cy="86.644282"
     inkscape:window-x="0"
     inkscape:window-y="0"
     inkscape:window-maximized="1"
     inkscape:current-layer="g2986" />
  <g
     id="g2986"
     transform="translate(-22,-512)">
    <g
       id="g851">
      <path
         id="path943"
         d="m 454.9133,568.47393 c 102.19291,88.57459 105.82677,249.69974 8.1168,359.89882 C 365.32009,1038.5718 203.27965,1056.1006 101.08674,967.52602 -1.106205,878.95143 -4.740032,717.82627 92.969941,607.62719 190.67991,497.42811 352.72036,479.89934 454.9133,568.47393 Z"
         inkscape:connector-curvature="0"
         style="fill:#68b723;fill-opacity:1;stroke-width:11.10955906" />
      <path
         id="path945"
         d="M 533.63553,736.90351 C 532.08415,798.21512 508.47431,861.05808 462.66916,912.71795 364.95915,1022.9171 202.9187,1040.4458 100.72576,951.87125 52.827125,910.35563 26.496819,852.9228 22.193827,792.2288 c 0.605253,66.35664 26.923578,130.25337 78.884863,175.29022 102.19291,88.57458 264.24106,71.03718 361.94336,-39.15326 49.70495,-56.05814 73.00502,-125.291 70.61348,-191.46225 z"
         inkscape:connector-curvature="0"
         style="opacity:1;fill:#000000;fill-opacity:0.49019608;stroke-width:11.10955906" />
      <g
         style="fill:#000000;fill-opacity:0.49019608"
         transform="translate(20,19.999999)"
         id="g841">
        <path
           inkscape:connector-curvature="0"
           id="path837"
           d="m 284.87735,821.88613 c -2.42406,-1.06077 -55.4886,-52.62637 -71.35119,-69.33568 -10.10638,-10.64586 -10.55199,-11.23942 -10.86231,-14.46895 -0.21055,-2.19126 0.0494,-4.08789 0.74423,-5.42937 1.24087,-2.39583 12.02819,-15.12059 19.67165,-23.20473 5.16444,-5.46221 5.36811,-5.59353 9.16308,-5.90824 3.66841,-0.30421 4.0741,-0.16842 7.39782,2.47606 1.9341,1.53884 12.04032,11.11362 22.45828,21.27728 10.41796,10.16366 19.585,18.82365 20.37122,19.24441 3.27665,1.75362 5.17897,0.30457 17.52691,-13.35087 6.56607,-7.26133 29.22437,-32.77201 50.35178,-56.69039 21.12742,-23.91839 38.90473,-43.8757 39.50512,-44.34959 1.59464,-1.25863 5.31519,-1.84063 8.24861,-1.29032 2.05848,0.38618 4.5699,2.44719 12.80525,10.50874 14.98002,14.66387 17.30633,17.50542 17.70195,21.62268 0.22683,2.36058 -0.0504,4.0991 -0.92263,5.78579 -1.59083,3.07632 -34.24328,40.70727 -95.362,109.90176 -35.06708,39.70057 -37.87745,42.70739 -40.63234,43.4726 -3.28288,0.91186 -4.21659,0.87609 -6.81543,-0.26118 z"
           style="fill:#000000;stroke-width:0.70712155;fill-opacity:0.49019608" />
        <path
           sodipodi:nodetypes="csscccczccccsscczcc"
           inkscape:connector-curvature="0"
           style="fill:#000000;fill-opacity:0.49019608;fill-rule:evenodd;stroke:none;stroke-width:0.75991625"
           d="m 277.92865,612.02086 c -40.84086,0.005 -81.41171,16.82293 -110.26929,45.70011 C 138.80196,686.59793 122,727.17569 122,768.01052 c 0,40.83464 16.80196,81.41241 45.65936,110.28955 28.85758,28.877 69.42843,45.69751 110.26929,45.69993 40.84087,0.005 81.43582,-16.80249 110.33011,-45.67967 28.8943,-28.87731 45.72044,-69.47066 45.72044,-110.30981 0,0 1.45456,-15.82889 -19.96095,-16.12062 -21.4155,-0.29172 -21.63633,16.12062 -21.63633,16.12062 0,29.94865 -12.34446,59.72255 -33.53366,80.89919 -21.18905,21.17664 -50.96956,33.49496 -80.91961,33.49306 -29.95001,0 -59.69654,-12.33668 -80.85862,-33.51332 -21.16226,-21.17647 -33.4728,-50.93359 -33.4728,-80.87893 0,-29.94552 12.31054,-59.70247 33.4728,-80.8791 21.16208,-21.17648 50.90861,-33.51161 80.85862,-33.51334 h 0.0694 c 0,0 18.36204,-0.75068 18.76783,-20.84536 0.40579,-20.0947 -18.76783,-20.75186 -18.76783,-20.75186 z"
           id="path839" />
      </g>
      <g
         id="g835">
        <path
           style="fill:#ffffff;stroke-width:0.70712155"
           d="m 284.87735,821.88613 c -2.42406,-1.06077 -55.4886,-52.62637 -71.35119,-69.33568 -10.10638,-10.64586 -10.55199,-11.23942 -10.86231,-14.46895 -0.21055,-2.19126 0.0494,-4.08789 0.74423,-5.42937 1.24087,-2.39583 12.02819,-15.12059 19.67165,-23.20473 5.16444,-5.46221 5.36811,-5.59353 9.16308,-5.90824 3.66841,-0.30421 4.0741,-0.16842 7.39782,2.47606 1.9341,1.53884 12.04032,11.11362 22.45828,21.27728 10.41796,10.16366 19.585,18.82365 20.37122,19.24441 3.27665,1.75362 5.17897,0.30457 17.52691,-13.35087 6.56607,-7.26133 29.22437,-32.77201 50.35178,-56.69039 21.12742,-23.91839 38.90473,-43.8757 39.50512,-44.34959 1.59464,-1.25863 5.31519,-1.84063 8.24861,-1.29032 2.05848,0.38618 4.5699,2.44719 12.80525,10.50874 14.98002,14.66387 17.30633,17.50542 17.70195,21.62268 0.22683,2.36058 -0.0504,4.0991 -0.92263,5.78579 -1.59083,3.07632 -34.24328,40.70727 -95.362,109.90176 -35.06708,39.70057 -37.87745,42.70739 -40.63234,43.4726 -3.28288,0.91186 -4.21659,0.87609 -6.81543,-0.26118 z"
           id="path846"
           inkscape:connector-curvature="0" />
        <path
           id="path3304"
           d="m 277.92865,612.02086 c -40.84086,0.005 -81.41171,16.82293 -110.26929,45.70011 C 138.80196,686.59793 122,727.17569 122,768.01052 c 0,40.83464 16.80196,81.41241 45.65936,110.28955 28.85758,28.877 69.42843,45.69751 110.26929,45.69993 40.84087,0.005 81.43582,-16.80249 110.33011,-45.67967 28.8943,-28.87731 45.72044,-69.47066 45.72044,-110.30981 0,0 1.45456,-15.82889 -19.96095,-16.12062 -21.4155,-0.29172 -21.63633,16.12062 -21.63633,16.12062 0,29.94865 -12.34446,59.72255 -33.53366,80.89919 -21.18905,21.17664 -50.96956,33.49496 -80.91961,33.49306 -29.95001,0 -59.69654,-12.33668 -80.85862,-33.51332 -21.16226,-21.17647 -33.4728,-50.93359 -33.4728,-80.87893 0,-29.94552 12.31054,-59.70247 33.4728,-80.8791 21.16208,-21.17648 50.90861,-33.51161 80.85862,-33.51334 h 0.0694 c 0,0 18.36204,-0.75068 18.76783,-20.84536 0.40579,-20.0947 -18.76783,-20.75186 -18.76783,-20.75186 z"
           style="fill:#ffffff;fill-opacity:1;fill-rule:evenodd;stroke:none;stroke-width:0.75991625"
           inkscape:connector-curvature="0"
           sodipodi:nodetypes="csscccczccccsscczcc" />
      </g>
    </g>
  </g>
</svg>
