<?xml version="1.0" encoding="UTF-8" standalone="no"?>
<!-- Created with Inkscape (http://www.inkscape.org/) -->

<svg
   xmlns:dc="http://purl.org/dc/elements/1.1/"
   xmlns:cc="http://creativecommons.org/ns#"
   xmlns:rdf="http://www.w3.org/1999/02/22-rdf-syntax-ns#"
   xmlns:svg="http://www.w3.org/2000/svg"
   xmlns="http://www.w3.org/2000/svg"
   xmlns:xlink="http://www.w3.org/1999/xlink"
   xmlns:sodipodi="http://sodipodi.sourceforge.net/DTD/sodipodi-0.dtd"
   xmlns:inkscape="http://www.inkscape.org/namespaces/inkscape"
   width="512"
   height="512"
   id="svg2"
   version="1.1"
   inkscape:version="0.92.2 2405546, 2018-03-11"
   sodipodi:docname="gambas.svg"
   inkscape:export-filename="/home/alecive/Scrivania/firefoxTest1.png"
   inkscape:export-xdpi="100"
   inkscape:export-ydpi="100">
  <sodipodi:namedview
     id="base"
     pagecolor="#ffffff"
     bordercolor="#666666"
     borderopacity="1.0"
     inkscape:pageopacity="0.0"
     inkscape:pageshadow="2"
     inkscape:zoom="0.16214788"
     inkscape:cx="-408.93335"
     inkscape:cy="232.18623"
     inkscape:document-units="px"
     inkscape:current-layer="svg2"
     showgrid="false"
     inkscape:window-width="1191"
     inkscape:window-height="688"
     inkscape:window-x="163"
     inkscape:window-y="25"
     inkscape:window-maximized="0"
     inkscape:object-paths="false"
     inkscape:snap-intersection-paths="false"
     inkscape:object-nodes="true"
     inkscape:snap-smooth-nodes="true"
     inkscape:snap-nodes="true" />
  <defs
     id="defs4">
    <linearGradient
       x1="19.244999"
       y1="21.030804"
       x2="19.360001"
       gradientUnits="userSpaceOnUse"
       y2="44.984001"
       id="linearGradient2460">
      <stop
         offset="0"
         style="stop-color:#00bdf0;stop-opacity:1;"
         id="stop3602" />
      <stop
         offset="1"
         style="stop-color:#0093dc;stop-opacity:1;"
         id="stop3604" />
    </linearGradient>
    <linearGradient
       inkscape:collect="always"
       xlink:href="#ButtonShadow-0-1-1-5-9"
       id="linearGradient4114-2-6"
       gradientUnits="userSpaceOnUse"
       gradientTransform="matrix(1.0317796,0,0,1.0317796,-830.86406,592.67791)"
       x1="1012.5133"
       y1="484.41721"
       x2="1006.8082"
       y2="20.625916" />
    <linearGradient
       x1="45.447727"
       y1="92.539597"
       x2="45.447727"
       y2="7.0165396"
       id="ButtonShadow-0-1-1-5-9"
       gradientUnits="userSpaceOnUse"
       gradientTransform="matrix(1.0058652,0,0,0.994169,100,0)">
      <stop
         id="stop3750-8-9-3-6-4"
         style="stop-color:#000000;stop-opacity:1"
         offset="0" />
      <stop
         id="stop3752-5-6-4-2-9"
         style="stop-color:#000000;stop-opacity:0.58823532"
         offset="1" />
    </linearGradient>
    <linearGradient
       inkscape:collect="always"
       xlink:href="#ButtonShadow-0-1-1-5-9"
       id="linearGradient4112-2-6"
       gradientUnits="userSpaceOnUse"
       gradientTransform="matrix(1.0402541,0,0,1.0402541,-837.95116,592.51825)"
       x1="1012.5133"
       y1="484.41721"
       x2="1006.8082"
       y2="20.625916" />
    <linearGradient
       inkscape:collect="always"
       xlink:href="#ButtonShadow-0-1-1-5-9"
       id="linearGradient4110-6-7"
       gradientUnits="userSpaceOnUse"
       gradientTransform="matrix(1.023305,0,0,1.023305,-823.77704,592.83757)"
       x1="1012.5133"
       y1="484.41721"
       x2="1006.8082"
       y2="20.625916" />
    <linearGradient
       inkscape:collect="always"
       xlink:href="#ButtonShadow-0-1-1-5-9"
       id="linearGradient4116-6-3"
       gradientUnits="userSpaceOnUse"
       gradientTransform="matrix(1.0148305,0,0,1.0148305,-816.68996,592.99723)"
       x1="1012.5133"
       y1="484.41721"
       x2="1006.8082"
       y2="20.625916" />
    <linearGradient
       y2="20.625916"
       x2="1006.8082"
       y1="484.41721"
       x1="1012.5133"
       gradientTransform="matrix(1.0074153,0,0,1.0074153,-810.48879,593.1369)"
       gradientUnits="userSpaceOnUse"
       id="linearGradient5342-3"
       xlink:href="#ButtonShadow-0-1-1-5-9"
       inkscape:collect="always" />
    <linearGradient
       inkscape:collect="always"
       xlink:href="#linearGradient3737-9"
       id="linearGradient4084-8"
       gradientUnits="userSpaceOnUse"
       gradientTransform="translate(778.59979,-360.55963)"
       x1="993.43896"
       y1="51.511765"
       x2="988.78552"
       y2="363.73825" />
    <linearGradient
       id="linearGradient3737-9">
      <stop
         id="stop3739-7"
         style="stop-color:#ffffff;stop-opacity:1"
         offset="0" />
      <stop
         id="stop3741-4"
         style="stop-color:#ffffff;stop-opacity:0"
         offset="1" />
    </linearGradient>
    <linearGradient
       inkscape:collect="always"
       xlink:href="#linearGradient4046-3"
       id="linearGradient4086-12"
       gradientUnits="userSpaceOnUse"
       x1="1764.6487"
       y1="155.59685"
       x2="1763.6903"
       y2="-55.941216" />
    <linearGradient
       id="linearGradient4046-3">
      <stop
         id="stop4048-7"
         style="stop-color:#000000;stop-opacity:1;"
         offset="0" />
      <stop
         id="stop4050-73"
         style="stop-color:#ffffff;stop-opacity:0.2"
         offset="1" />
    </linearGradient>
    <linearGradient
       y2="32"
       x2="272"
       y1="288"
       x1="272"
       gradientTransform="translate(0,-4)"
       gradientUnits="userSpaceOnUse"
       id="linearGradient3876"
       xlink:href="#outerBackgroundGradient"
       inkscape:collect="always" />
    <linearGradient
       id="outerBackgroundGradient">
      <stop
         id="stop3864-8-6"
         offset="0"
         style="stop-color:#007dbb;stop-opacity:1;" />
      <stop
         id="stop3866-9-1"
         offset="1"
         style="stop-color:#00abd7;stop-opacity:1;" />
    </linearGradient>
    <linearGradient
       inkscape:collect="always"
       xlink:href="#outerBackgroundGradient"
       id="linearGradient5589"
       gradientUnits="userSpaceOnUse"
       gradientTransform="translate(571.12383,-178.05409)"
       x1="272"
       y1="288"
       x2="272"
       y2="32" />
    <linearGradient
       y2="32"
       x2="272"
       y1="288"
       x1="272"
       gradientTransform="translate(571.12383,-178.05409)"
       gradientUnits="userSpaceOnUse"
       id="linearGradient5614"
       xlink:href="#outerBackgroundGradient"
       inkscape:collect="always" />
    <radialGradient
       gradientUnits="userSpaceOnUse"
       r="236"
       fy="151.78598"
       fx="256"
       cy="151.78598"
       cx="256"
       id="radialGradient6124"
       xlink:href="#linearGradient2460"
       inkscape:collect="always" />
    <linearGradient
       inkscape:collect="always"
       xlink:href="#linearGradient3737-9"
       id="linearGradient7749"
       gradientUnits="userSpaceOnUse"
       gradientTransform="translate(778.59979,-360.55963)"
       x1="993.43896"
       y1="51.511765"
       x2="988.78552"
       y2="363.73825" />
    <linearGradient
       inkscape:collect="always"
       xlink:href="#linearGradient4046-3"
       id="linearGradient7751"
       gradientUnits="userSpaceOnUse"
       x1="1764.6487"
       y1="155.59685"
       x2="1763.6903"
       y2="-55.941216" />
    <linearGradient
       inkscape:collect="always"
       xlink:href="#linearGradient2460-9"
       id="linearGradient3157"
       gradientUnits="userSpaceOnUse"
       gradientTransform="matrix(12.102564,0,0,12.102564,-34.468255,-46.187105)"
       x1="18.930269"
       y1="6.2951212"
       x2="19.360001"
       y2="36.643665" />
    <linearGradient
       id="linearGradient2460-9"
       y2="44.984001"
       gradientUnits="userSpaceOnUse"
       x2="19.360001"
       y1="21.030804"
       x1="19.244999">
      <stop
         id="stop3602-6"
         style="stop-color:#fafafa;stop-opacity:1;"
         offset="0" />
      <stop
         id="stop3604-4"
         style="stop-color:#f0f0f0;stop-opacity:1;"
         offset="1" />
    </linearGradient>
    <radialGradient
       gradientUnits="userSpaceOnUse"
       r="236"
       fy="151.78598"
       fx="256"
       cy="151.78598"
       cx="256"
       id="radialGradient6124-5"
       xlink:href="#linearGradient2460-7"
       inkscape:collect="always" />
    <linearGradient
       x1="19.244999"
       y1="21.030804"
       x2="19.360001"
       gradientUnits="userSpaceOnUse"
       y2="44.984001"
       id="linearGradient2460-7">
      <stop
         offset="0"
         style="stop-color:#00bdf0;stop-opacity:1;"
         id="stop3602-2" />
      <stop
         offset="1"
         style="stop-color:#0093dc;stop-opacity:1;"
         id="stop3604-5" />
    </linearGradient>
    <radialGradient
       gradientTransform="translate(-20,-20)"
       r="236"
       fy="151.78598"
       fx="256"
       cy="151.78598"
       cx="256"
       gradientUnits="userSpaceOnUse"
       id="radialGradient8295"
       xlink:href="#linearGradient2460-7"
       inkscape:collect="always" />
    <linearGradient
       y2="363.73825"
       x2="988.78552"
       y1="51.511765"
       x1="993.43896"
       gradientTransform="translate(778.59979,-360.55963)"
       gradientUnits="userSpaceOnUse"
       id="linearGradient4084-8-0"
       xlink:href="#linearGradient3737-9-9"
       inkscape:collect="always" />
    <linearGradient
       id="linearGradient3737-9-9">
      <stop
         offset="0"
         style="stop-color:#ffffff;stop-opacity:1"
         id="stop3739-7-4" />
      <stop
         offset="1"
         style="stop-color:#ffffff;stop-opacity:0"
         id="stop3741-4-1" />
    </linearGradient>
    <linearGradient
       y2="-55.941216"
       x2="1763.6903"
       y1="155.59685"
       x1="1764.6487"
       gradientUnits="userSpaceOnUse"
       id="linearGradient4086-12-7"
       xlink:href="#linearGradient4046-3-0"
       inkscape:collect="always" />
    <linearGradient
       id="linearGradient4046-3-0">
      <stop
         offset="0"
         style="stop-color:#000000;stop-opacity:1;"
         id="stop4048-7-4" />
      <stop
         offset="1"
         style="stop-color:#ffffff;stop-opacity:0.2"
         id="stop4050-73-8" />
    </linearGradient>
    <linearGradient
       id="linearGradient3602">
      <stop
         style="stop-color:#ff0d00;stop-opacity:1;"
         offset="0"
         id="stop3604-3" />
      <stop
         id="stop3610"
         offset="0.5"
         style="stop-color:#ff0c00;stop-opacity:1;" />
      <stop
         style="stop-color:#f1d3d3;stop-opacity:1;"
         offset="1"
         id="stop3606" />
    </linearGradient>
    <linearGradient
       inkscape:collect="always"
       xlink:href="#linearGradient3428"
       id="linearGradient3137"
       gradientUnits="userSpaceOnUse"
       x1="203.04065"
       y1="137.41652"
       x2="232.33508"
       y2="137.41652"
       gradientTransform="translate(-6.9939814,-5.6271766)" />
    <linearGradient
       inkscape:collect="always"
       id="linearGradient3428">
      <stop
         style="stop-color:#00ffff;stop-opacity:1;"
         offset="0"
         id="stop3430" />
      <stop
         style="stop-color:#00ffff;stop-opacity:0;"
         offset="1"
         id="stop3432" />
    </linearGradient>
  </defs>
  <metadata
     id="metadata7">
    <rdf:RDF>
      <cc:Work
         rdf:about="">
        <dc:format>image/svg+xml</dc:format>
        <dc:type
           rdf:resource="http://purl.org/dc/dcmitype/StillImage" />
        <dc:title></dc:title>
      </cc:Work>
    </rdf:RDF>
  </metadata>
  <g
     id="layer1"
     inkscape:groupmode="layer"
     inkscape:label="Livello 1"
     transform="translate(0,-540.36218)" />
  <g
     id="g2036"
     transform="matrix(1.1,0,0,0.44444,95.081063,256.39254)">
    <g
       id="g3712"
       style="opacity:0.4"
       transform="matrix(1.0526,0,0,1.2857,-1.2632,-13.429)" />
  </g>
  <g
     transform="translate(97.481063,231.28154)"
     id="g3541" />
  <g
     transform="translate(97.481063,231.28154)"
     id="g3536" />
  <g
     id="g4103"
     transform="translate(-11.985071,-592.11719)" />
  <g
     id="g4076"
     transform="translate(-605.51932,-353.96833)">
    <g
       transform="translate(-926.66758,684.38448)"
       id="g4038" />
  </g>
  <g
     id="g963">
    <path
       id="path1165"
       d="m 432.91328,56.47496 c 102.1929,88.57349 105.82677,249.69955 8.11678,359.89802 C 343.32007,526.57151 181.27962,544.10041 79.086743,455.52693 -23.106206,366.95111 -26.740033,205.82737 70.969944,95.62658 168.67988,-14.57187 330.72033,-32.10086 432.91328,56.47496 Z"
       inkscape:connector-curvature="0"
       style="fill:#3689e6;fill-opacity:1;stroke-width:11.10954762" />
    <path
       id="path1167"
       d="M 511.63552,224.90399 C 510.08416,286.21586 486.47428,349.05908 440.66913,400.71744 342.95911,510.91591 180.91867,528.44491 78.725762,439.8714 30.827125,398.35527 4.4968196,340.92295 0.19382737,280.22781 0.79908097,346.5852 27.117406,410.48266 79.078693,455.51762 181.27157,544.09341 343.31972,526.55521 441.02203,416.36599 c 49.70494,-56.05922 73.00501,-125.29079 70.61349,-191.462 z"
       inkscape:connector-curvature="0"
       style="opacity:1;fill:#000000;fill-opacity:0.49019608;stroke-width:11.10954762" />
    <path
       style="fill:#000000;fill-opacity:0.49019608;stroke-width:0.32878312"
       d="m 263.00772,431.66656 c -16.34546,-1.36836 -32.40845,-5.2752 -46.02964,-11.1953 -7.65541,-3.32724 -8.74861,-3.87591 -8.58291,-4.30774 0.2879,-0.75024 24.54565,-34.00053 24.80509,-34.00053 0.13844,0 1.96346,0.73774 4.0556,1.63941 12.13753,5.23107 25.85812,6.7039 39.72514,4.26429 9.48435,-1.66858 17.51996,-4.82407 25.53325,-10.02661 l 2.68281,-1.74179 15.15532,20.82844 c 8.33543,11.45564 15.23688,21.04099 15.33657,21.30077 0.13405,0.34932 -0.87249,0.90203 -3.86485,2.12228 -13.74878,5.60658 -26.71168,8.96592 -40.86981,10.59144 -7.71917,0.88625 -20.71685,1.13058 -27.94657,0.52534 z m 67.5513,-39.39688 C 321.99956,380.47234 314.705,370.41929 314.34887,369.92956 l -0.64751,-0.89042 1.6134,-1.84672 c 2.50805,-2.87077 4.40526,-5.22748 4.40672,-5.47402 0.006,-0.96141 -16.00699,-2.55845 -25.72595,-2.56581 -3.20974,-0.002 -5.8359,-0.12468 -5.8359,-0.27166 0,-0.52648 6.46381,-6.57802 9.1136,-8.53231 7.52855,-5.55252 15.33974,-8.14937 23.80055,-7.91255 2.13318,0.0597 3.77453,0.009 3.64744,-0.11323 -0.9122,-0.8756 -16.40625,-5.34577 -22.6705,-6.54064 -1.1302,-0.21558 -2.0549,-0.50545 -2.0549,-0.64417 0,-0.4949 6.25551,-4.29347 9.42865,-5.72541 5.52347,-2.49256 7.91319,-2.98241 14.40813,-2.95341 4.00836,0.0179 6.08495,0.16894 7.34162,0.534 1.60426,0.46604 1.77062,0.46393 1.96917,-0.0249 0.47281,-1.16418 0.20781,-14.60773 -0.35052,-17.78233 -0.3009,-1.71086 -0.51667,-3.13138 -0.4795,-3.15673 0.0372,-0.0254 20.26033,-6.59576 44.94034,-14.60094 24.68002,-8.00518 45.08182,-14.6351 45.33733,-14.73314 0.39621,-0.15205 0.43693,1.19634 0.27673,9.16323 -0.10544,5.24325 -0.42031,11.28877 -0.71772,13.78008 -2.91703,24.43509 -10.90222,46.33667 -24.33413,66.74297 -4.38302,6.65888 -6.93604,9.90709 -13.07778,16.63889 -10.96566,12.01918 -23.61368,22.21964 -36.77408,29.65779 l -1.8424,1.04131 z M 194.33416,408.6749 c -14.28434,-9.10753 -28.75965,-22.57582 -38.74181,-36.04662 -11.96657,-16.14874 -20.29424,-33.60904 -25.09002,-52.6053 -1.62831,-6.44978 -1.35199,-8.33947 1.41428,-9.67213 2.01389,-0.9702 3.58968,-0.66743 9.83127,1.88896 10.96772,4.49206 18.93563,9.77035 27.08392,17.94155 4.53653,4.54928 7.40062,8.02365 10.11824,12.27425 0.66239,1.03602 1.3153,1.88675 1.45092,1.8905 0.13563,0.004 0.24659,-0.44327 0.24659,-0.99339 0,-4.58459 4.99213,-18.09101 7.38126,-19.97029 1.37997,-1.08549 2.824,-1.22843 4.57689,-0.45304 2.07475,0.91776 2.64787,2.01856 3.15113,6.05238 0.84029,6.73532 3.66806,16.12707 6.62843,22.01476 4.31019,8.57223 10.79014,16.70059 17.95536,22.52292 1.67681,1.36255 3.04874,2.57115 3.04874,2.68578 0,0.50771 -24.92031,34.40498 -25.34012,34.46831 -0.25815,0.0389 -1.92994,-0.86045 -3.71508,-1.99864 z m 110.56519,-92.18634 c -0.6051,-4.09665 -0.51778,-10.81722 0.18475,-14.21987 1.72554,-8.35747 5.66255,-14.78723 12.10144,-19.76353 l 3.01085,-2.32694 -1.63412,0.23059 c -5.47979,0.77325 -14.93164,5.63938 -25.63528,13.19791 -2.16997,1.53235 -4.42625,3.16544 -5.01395,3.62908 l -1.06854,0.84299 9.8e-4,-1.27508 c 0.002,-1.94616 0.92462,-6.80058 1.8599,-9.78186 2.87592,-9.16713 8.07266,-15.75215 15.76144,-19.972 l 2.42825,-1.3327 -2.21672,-1.72045 c -6.82029,-5.29346 -16.35451,-10.4589 -23.58756,-12.77927 -1.98913,-0.63813 -3.91252,-1.2256 -4.27418,-1.3055 -0.36166,-0.0799 2.81932,-0.14733 7.06884,-0.14983 28.2476,-0.0166 55.1965,-8.21082 78.74356,-23.94304 12.30662,-8.22228 19.2706,-14.46914 31.264,-28.04454 l 1.01596,-1.14997 2.1511,3.09363 c 9.57142,13.76521 17.10997,30.65457 21.42124,47.99212 1.4287,5.7454 3.16202,14.93544 3.16356,16.77307 6.6e-4,0.95739 -0.62882,1.20361 -20.71263,8.0999 -22.459,7.71188 -33.81453,11.37074 -50.27392,16.19877 -8.70251,2.5527 -14.46758,4.71161 -19.55831,7.3242 -10.26112,5.26607 -19.48835,13.37315 -24.51028,21.53483 -0.58355,0.94839 -1.107,1.72435 -1.16323,1.72435 -0.0562,0 -0.29344,-1.29459 -0.52715,-2.87686 z m -30.87739,-76.91163 c -6.72427,-0.49123 -18.50297,-2.49882 -24.67247,-4.20524 -34.29433,-9.48546 -62.69848,-31.14377 -80.20361,-61.15565 -2.80404,-4.80743 -3.78656,-6.75539 -13.97775,-27.7125 -9.44564,-19.42398 -10.10252,-20.88994 -9.93158,-22.16439 0.23264,-1.73444 1.08202,-2.89572 2.70799,-3.70235 l 1.2836,-0.6368 53.10879,6.1734 c 88.69641,10.31013 105.98048,12.34653 107.52382,12.66841 14.26646,2.97545 43.94121,21.67363 74.56627,46.98454 3.25083,2.68673 3.66293,3.13856 3.29866,3.61661 -2.05204,2.69294 -5.6882,6.82575 -8.97389,10.19958 -7.02356,7.21195 -13.76438,12.80741 -21.90792,18.18546 -18.81278,12.42407 -39.79514,19.67286 -62.60175,21.62705 -3.58643,0.30731 -16.6076,0.3858 -20.22016,0.12188 z m 8.25689,-54.0312 c 3.93123,-0.74084 7.6634,-3.69792 9.43299,-7.47399 0.77888,-1.66201 0.88583,-2.29007 0.882,-5.1792 -0.004,-2.8721 -0.11589,-3.52699 -0.88636,-5.1792 -1.13284,-2.42928 -3.71121,-5.14868 -5.96083,-6.28688 -6.42456,-3.25054 -14.31726,-0.59789 -17.49825,5.88096 -0.89434,1.82154 -0.96577,2.2385 -0.95678,5.58512 0.0118,4.40307 0.55508,5.82987 3.32559,8.73447 3.26979,3.42802 7.22059,4.75563 11.66164,3.91872 z"
       id="path957"
       inkscape:connector-curvature="0" />
    <path
       inkscape:connector-curvature="0"
       id="path955"
       d="m 243.00772,411.66656 c -16.34546,-1.36836 -32.40845,-5.2752 -46.02964,-11.1953 -7.65541,-3.32724 -8.74861,-3.87591 -8.58291,-4.30774 0.2879,-0.75024 24.54565,-34.00053 24.80509,-34.00053 0.13844,0 1.96346,0.73774 4.0556,1.63941 12.13753,5.23107 25.85812,6.7039 39.72514,4.26429 9.48435,-1.66858 17.51996,-4.82407 25.53325,-10.02661 l 2.68281,-1.74179 15.15532,20.82844 c 8.33543,11.45564 15.23688,21.04099 15.33657,21.30077 0.13405,0.34932 -0.87249,0.90203 -3.86485,2.12228 -13.74878,5.60658 -26.71168,8.96592 -40.86981,10.59144 -7.71917,0.88625 -20.71685,1.13058 -27.94657,0.52534 z m 67.5513,-39.39688 C 301.99956,360.47234 294.705,350.41929 294.34887,349.92956 l -0.64751,-0.89042 1.6134,-1.84672 c 2.50805,-2.87077 4.40526,-5.22748 4.40672,-5.47402 0.006,-0.96141 -16.00699,-2.55845 -25.72595,-2.56581 -3.20974,-0.002 -5.8359,-0.12468 -5.8359,-0.27166 0,-0.52648 6.46381,-6.57802 9.1136,-8.53231 7.52855,-5.55252 15.33974,-8.14937 23.80055,-7.91255 2.13318,0.0597 3.77453,0.009 3.64744,-0.11323 -0.9122,-0.8756 -16.40625,-5.34577 -22.6705,-6.54064 -1.1302,-0.21558 -2.0549,-0.50545 -2.0549,-0.64417 0,-0.4949 6.25551,-4.29347 9.42865,-5.72541 5.52347,-2.49256 7.91319,-2.98241 14.40813,-2.95341 4.00836,0.0179 6.08495,0.16894 7.34162,0.534 1.60426,0.46604 1.77062,0.46393 1.96917,-0.0249 0.47281,-1.16418 0.20781,-14.60773 -0.35052,-17.78233 -0.3009,-1.71086 -0.51667,-3.13138 -0.4795,-3.15673 0.0372,-0.0254 20.26033,-6.59576 44.94034,-14.60094 24.68002,-8.00518 45.08182,-14.6351 45.33733,-14.73314 0.39621,-0.15205 0.43693,1.19634 0.27673,9.16323 -0.10544,5.24325 -0.42031,11.28877 -0.71772,13.78008 -2.91703,24.43509 -10.90222,46.33667 -24.33413,66.74297 -4.38302,6.65888 -6.93604,9.90709 -13.07778,16.63889 -10.96566,12.01918 -23.61368,22.21964 -36.77408,29.65779 l -1.8424,1.04131 z M 174.33416,388.6749 c -14.28434,-9.10753 -28.75965,-22.57582 -38.74181,-36.04662 -11.96657,-16.14874 -20.29424,-33.60904 -25.09002,-52.6053 -1.62831,-6.44978 -1.35199,-8.33947 1.41428,-9.67213 2.01389,-0.9702 3.58968,-0.66743 9.83127,1.88896 10.96772,4.49206 18.93563,9.77035 27.08392,17.94155 4.53653,4.54928 7.40062,8.02365 10.11824,12.27425 0.66239,1.03602 1.3153,1.88675 1.45092,1.8905 0.13563,0.004 0.24659,-0.44327 0.24659,-0.99339 0,-4.58459 4.99213,-18.09101 7.38126,-19.97029 1.37997,-1.08549 2.824,-1.22843 4.57689,-0.45304 2.07475,0.91776 2.64787,2.01856 3.15113,6.05238 0.84029,6.73532 3.66806,16.12707 6.62843,22.01476 4.31019,8.57223 10.79014,16.70059 17.95536,22.52292 1.67681,1.36255 3.04874,2.57115 3.04874,2.68578 0,0.50771 -24.92031,34.40498 -25.34012,34.46831 -0.25815,0.0389 -1.92994,-0.86045 -3.71508,-1.99864 z m 110.56519,-92.18634 c -0.6051,-4.09665 -0.51778,-10.81722 0.18475,-14.21987 1.72554,-8.35747 5.66255,-14.78723 12.10144,-19.76353 l 3.01085,-2.32694 -1.63412,0.23059 c -5.47979,0.77325 -14.93164,5.63938 -25.63528,13.19791 -2.16997,1.53235 -4.42625,3.16544 -5.01395,3.62908 l -1.06854,0.84299 9.8e-4,-1.27508 c 0.002,-1.94616 0.92462,-6.80058 1.8599,-9.78186 2.87592,-9.16713 8.07266,-15.75215 15.76144,-19.972 l 2.42825,-1.3327 -2.21672,-1.72045 c -6.82029,-5.29346 -16.35451,-10.4589 -23.58756,-12.77927 -1.98913,-0.63813 -3.91252,-1.2256 -4.27418,-1.3055 -0.36166,-0.0799 2.81932,-0.14733 7.06884,-0.14983 28.2476,-0.0166 55.1965,-8.21082 78.74356,-23.94304 12.30662,-8.22228 19.2706,-14.46914 31.264,-28.04454 l 1.01596,-1.14997 2.1511,3.09363 c 9.57142,13.76521 17.10997,30.65457 21.42124,47.99212 1.4287,5.7454 3.16202,14.93544 3.16356,16.77307 6.6e-4,0.95739 -0.62882,1.20361 -20.71263,8.0999 -22.459,7.71188 -33.81453,11.37074 -50.27392,16.19877 -8.70251,2.5527 -14.46758,4.71161 -19.55831,7.3242 -10.26112,5.26607 -19.48835,13.37315 -24.51028,21.53483 -0.58355,0.94839 -1.107,1.72435 -1.16323,1.72435 -0.0562,0 -0.29344,-1.29459 -0.52715,-2.87686 z m -30.87739,-76.91163 c -6.72427,-0.49123 -18.50297,-2.49882 -24.67247,-4.20524 -34.29433,-9.48546 -62.69848,-31.14377 -80.20361,-61.15565 -2.80404,-4.80743 -3.78656,-6.75539 -13.97775,-27.7125 -9.44564,-19.42398 -10.10252,-20.88994 -9.93158,-22.16439 0.23264,-1.73444 1.08202,-2.89572 2.70799,-3.70235 l 1.2836,-0.6368 53.10879,6.1734 c 88.69641,10.31013 105.98048,12.34653 107.52382,12.66841 14.26646,2.97545 43.94121,21.67363 74.56627,46.98454 3.25083,2.68673 3.66293,3.13856 3.29866,3.61661 -2.05204,2.69294 -5.6882,6.82575 -8.97389,10.19958 -7.02356,7.21195 -13.76438,12.80741 -21.90792,18.18546 -18.81278,12.42407 -39.79514,19.67286 -62.60175,21.62705 -3.58643,0.30731 -16.6076,0.3858 -20.22016,0.12188 z m 8.25689,-54.0312 c 3.93123,-0.74084 7.6634,-3.69792 9.43299,-7.47399 0.77888,-1.66201 0.88583,-2.29007 0.882,-5.1792 -0.004,-2.8721 -0.11589,-3.52699 -0.88636,-5.1792 -1.13284,-2.42928 -3.71121,-5.14868 -5.96083,-6.28688 -6.42456,-3.25054 -14.31726,-0.59789 -17.49825,5.88096 -0.89434,1.82154 -0.96577,2.2385 -0.95678,5.58512 0.0118,4.40307 0.55508,5.82987 3.32559,8.73447 3.26979,3.42802 7.22059,4.75563 11.66164,3.91872 z"
       style="fill:#ffffff;stroke-width:0.32878312" />
  </g>
</svg>
