<?xml version="1.0" encoding="UTF-8" standalone="no"?>
<!-- Created with Inkscape (http://www.inkscape.org/) -->

<svg
   xmlns:osb="http://www.openswatchbook.org/uri/2009/osb"
   xmlns:dc="http://purl.org/dc/elements/1.1/"
   xmlns:cc="http://creativecommons.org/ns#"
   xmlns:rdf="http://www.w3.org/1999/02/22-rdf-syntax-ns#"
   xmlns:svg="http://www.w3.org/2000/svg"
   xmlns="http://www.w3.org/2000/svg"
   xmlns:sodipodi="http://sodipodi.sourceforge.net/DTD/sodipodi-0.dtd"
   xmlns:inkscape="http://www.inkscape.org/namespaces/inkscape"
   width="512"
   height="512"
   id="svg2985"
   version="1.1"
   inkscape:version="0.92.3 (2405546, 2018-03-11)"
   sodipodi:docname="gaupol.svg"
   viewBox="0 0 512 512">
  <defs
     id="defs2987">
    <linearGradient
       id="linearGradient5207"
       osb:paint="solid">
      <stop
         style="stop-color:#000015;stop-opacity:1;"
         offset="0"
         id="stop5209" />
    </linearGradient>
  </defs>
  <sodipodi:namedview
     id="base"
     pagecolor="#ffffff"
     bordercolor="#666666"
     borderopacity="1.0"
     inkscape:pageopacity="0.0"
     inkscape:pageshadow="2"
     inkscape:zoom="0.32593203"
     inkscape:cx="-213.18593"
     inkscape:cy="216.9421"
     inkscape:current-layer="layer1"
     showgrid="true"
     inkscape:document-units="px"
     inkscape:grid-bbox="true"
     inkscape:window-width="1366"
     inkscape:window-height="720"
     inkscape:window-x="0"
     inkscape:window-y="23"
     inkscape:window-maximized="1"
     inkscape:snap-text-baseline="true" />
  <metadata
     id="metadata2990">
    <rdf:RDF>
      <cc:Work
         rdf:about="">
        <dc:format>image/svg+xml</dc:format>
        <dc:type
           rdf:resource="http://purl.org/dc/dcmitype/StillImage" />
        <dc:title />
      </cc:Work>
    </rdf:RDF>
  </metadata>
  <g
     id="layer1"
     inkscape:label="Layer 1"
     inkscape:groupmode="layer"
     transform="translate(0,448)">
    <g
       id="g849">
      <path
         id="path881"
         d="m 432.91329,-391.52603 c 102.19291,88.57459 105.82677,249.69971 8.1168,359.89879 C 343.32012,78.57182 181.27964,96.10062 79.08673,7.52602 -23.10618,-81.04857 -26.74004,-242.17369 70.96993,-352.37277 168.6799,-462.57185 330.72038,-480.10062 432.91329,-391.52603 Z"
         inkscape:connector-curvature="0"
         style="fill:#8a715e;fill-opacity:1;stroke-width:11.10955811" />
      <path
         id="path883"
         d="m 511.63551,-223.09648 c -1.5514,61.31166 -25.16123,124.1546 -70.96638,175.81449 C 342.95916,62.91712 180.91869,80.44582 78.72578,-8.12873 30.82713,-49.64436 4.49683,-107.07717 0.19383,-167.77121 c 0.60525,66.35668 26.92358,130.2534 78.88486,175.29025 102.19291,88.57458 264.24106,71.03718 361.94334,-39.15326 49.70494,-56.05814 73.00502,-125.29097 70.61348,-191.46226 z"
         inkscape:connector-curvature="0"
         style="opacity:1;fill:#000000;fill-opacity:0.49019608;stroke-width:11.10955811" />
      <path
         style="opacity:1;fill:#000000;fill-opacity:0.49019608;stroke:none;stroke-width:1.01393282;stroke-linecap:round;stroke-miterlimit:4;stroke-dasharray:none;stroke-opacity:1"
         d="m 280.4711,-328 c -91.28149,0 -124.72426,8.08742 -137.40916,33.22922 -10.13141,20.08089 -11.29311,114.00703 -1.89221,152.98375 4.92419,20.41603 3.72656,39.48684 -4.80465,76.490885 L 125,-16 c 0,0 65.42194,-34.807352 101.07569,-52.536813 45.41449,-23.130847 62.99225,-28.283027 106.46955,-31.208507 59.32346,-3.99171 78.41999,-11.85701 87.6365,-36.09818 9.49854,-24.9831 7.84862,-138.80547 -2.30347,-158.92728 C 405.19337,-319.91258 371.75258,-328 280.4711,-328 Z m 110.64347,78.90705 c 2.74699,-0.0952 2.73252,4.0353 2.73252,20.73514 0,20.67502 0.84028,25.53784 4.41712,25.53784 1.00687,0 1.83092,1.12447 1.83092,2.49921 0,2.31437 -0.83378,2.49921 -11.24843,2.49921 -10.28394,0 -11.24646,-0.20787 -11.24646,-2.41617 0,-1.32842 1.12448,-2.77073 2.49921,-3.20706 2.34119,-0.74308 2.49921,-1.89266 2.49921,-18.12324 0,-16.23058 -0.15802,-17.37819 -2.49921,-18.12126 -3.8006,-1.20626 -3.17311,-5.43203 0.93721,-6.31129 1.89026,-0.40434 4.72842,-1.25834 6.30734,-1.89814 1.63234,-0.66144 2.85491,-1.16253 3.77057,-1.19424 z m -197.91024,10.02848 c 1.91602,0.0885 3.56378,0.8825 4.38351,2.41419 1.79446,3.353 -1.52166,6.61611 -5.66672,5.57577 -3.65718,-0.91791 -3.65102,-0.97845 -0.5635,5.07751 2.80101,5.49406 2.32116,9.79268 -1.56993,14.07982 -3.28362,3.61781 -10.09058,5.80647 -15.38675,4.94701 -3.84797,-0.62444 -6.75972,0.81699 -5.06762,2.50909 0.38122,0.38122 5.17463,1.14613 10.65327,1.69844 5.47864,0.55231 11.15546,1.64312 12.61469,2.42408 6.74942,3.61217 5.0492,14.84187 -2.73252,18.04612 -5.39975,2.22343 -15.5056,3.23116 -20.97834,2.09191 -10.11967,-2.10662 -13.9217,-7.74079 -8.85995,-13.12877 2.39031,-2.54439 2.47732,-3.04755 0.77705,-4.45864 -2.8348,-2.35269 -2.32941,-6.70811 1.15865,-9.98498 2.79961,-2.63008 2.91339,-3.12215 1.25159,-5.49471 -2.62758,-3.7514 -2.28618,-11.12803 0.69202,-14.9142 3.04062,-3.86553 10.12311,-6.41656 15.06843,-5.42748 2.78261,0.55651 4.32787,0.0122 6.70477,-2.36476 2.15138,-2.15138 5.05793,-3.20413 7.52135,-3.0904 z m 88.16443,5.92574 v 14.44955 c 0,13.35182 0.18955,14.51134 2.49921,15.2444 1.40693,0.44653 2.49921,1.89052 2.49921,3.30394 0,2.31409 -0.75836,2.49653 -9.68445,2.33313 -5.3271,-0.0975 -12.4976,0.10443 -15.93444,0.44883 -3.43683,0.34441 -7.24237,0.33785 -8.45461,-0.0139 -3.85513,-1.11854 -5.91784,-7.17763 -5.91784,-17.37584 0,-8.50121 -0.27668,-9.62471 -2.50118,-10.20643 -2.41035,-0.63031 -3.48455,-4.61054 -1.56201,-5.78734 0.51552,-0.31557 4.17205,-0.97553 8.12441,-1.46709 l 7.18524,-0.89371 v 12.53955 c 0,6.89666 0.34203,13.42952 0.75925,14.51679 0.8972,2.33806 4.14131,2.53715 8.55545,0.52594 2.83961,-1.29381 3.18333,-2.17941 3.18333,-8.20548 0,-7.41522 -1.59042,-11.59049 -4.41712,-11.59049 -1.8964,0 -2.58012,-4.388 -0.8502,-5.45715 0.53941,-0.33338 4.47507,-1.00154 8.74723,-1.48488 z m 73.10983,0.14433 c 13.05531,0 19.84416,6.8488 19.05055,19.2206 -0.34956,5.44951 -1.19029,7.96092 -3.50561,10.47138 -5.66018,6.13719 -13.95794,8.04908 -23.25216,5.35827 -7.79258,-2.25607 -13.00133,-12.24544 -11.16736,-21.4153 1.80911,-9.04555 8.1611,-13.63495 18.87458,-13.63495 z m -137.75715,0.33614 c 1.01914,0.006 2.1045,0.0475 3.26242,0.11862 11.18778,0.6876 12.64434,2.68513 12.64434,17.36003 0,10.33343 0.17735,11.11003 2.53877,11.11003 3.53353,0 4.67978,3.69685 1.79927,5.80315 -3.04588,2.22719 -8.12689,2.15269 -11.44022,-0.16806 -2.35181,-1.64727 -3.06909,-1.647 -6.21441,-0.006 -5.7915,3.02058 -11.36105,2.38068 -15.52517,-1.78345 v -0.002 c -2.00924,-2.00922 -3.65193,-4.86443 -3.65193,-6.34491 0,-5.5295 10.6275,-12.46399 19.1415,-12.49013 1.73792,-0.005 2.17716,-0.81317 1.87441,-3.44433 -0.32952,-2.86376 -1.07221,-3.50157 -4.45666,-3.8279 -3.26937,-0.31522 -4.06122,0.0632 -4.06122,1.93769 0,5.34943 -7.54669,7.41119 -10.04429,2.74438 -1.07813,-2.01452 -0.93556,-3.264 0.64655,-5.67859 2.48477,-3.79225 6.3527,-5.37411 13.48664,-5.32861 z m 96.03179,0.10676 c 8.99021,0.0992 11.33988,1.76071 14.91025,7.61627 8.24861,13.5281 -4.61527,32.24569 -18.76979,27.3114 l -3.78045,-1.31683 v 4.84815 c 0,3.7522 0.56539,5.0312 2.49921,5.64497 1.59711,0.5069 2.50119,1.88929 2.50119,3.83187 0,2.98195 -0.20413,3.04096 -10.62363,3.04096 -10.4195,0 -10.62362,-0.059 -10.62362,-3.04096 0,-1.94258 0.9021,-3.32497 2.49921,-3.83187 2.33598,-0.74143 2.50119,-1.89226 2.50119,-17.57159 0,-15.42344 -0.20332,-16.90174 -2.50119,-18.33677 -2.71791,-1.69736 -3.32275,-5.30331 -1.11911,-6.66523 0.75866,-0.46886 7.56532,-1.09028 15.12577,-1.38207 2.87843,-0.1111 5.3063,-0.17119 7.38097,-0.1483 z m -135.87483,4.92527 c -2.4638,-0.15576 -4.23917,2.90471 -4.23917,7.87923 0,6.06951 0.5717,6.9282 4.61286,6.9282 2.05968,0 3.34816,-1.03442 4.27674,-3.43642 1.53332,-3.96629 0.25308,-8.78754 -2.84918,-10.73434 -0.6286,-0.39448 -1.23268,-0.60072 -1.80125,-0.63667 z m 133.34597,1.11911 c -3.38784,0.0621 -4.52391,2.93328 -4.86003,10.57023 -0.20561,4.67162 -0.0829,9.25333 0.27286,10.18074 0.87903,2.2907 7.59608,2.13583 9.96126,-0.22937 5.04498,-5.04496 3.25284,-18.65813 -2.65146,-20.14 -1.03967,-0.26094 -1.94084,-0.39592 -2.72263,-0.3816 z m 44.96008,0.19376 c -0.56216,-0.0113 -1.15729,0.0614 -1.7874,0.21948 -6.04269,1.51662 -8.01973,13.85398 -3.20113,19.97985 3.10059,3.94177 5.3077,4.14341 8.65826,0.79286 1.88111,-1.88112 2.49921,-4.16475 2.49921,-9.23363 0,-7.50404 -2.23381,-11.67944 -6.16894,-11.75856 z m -135.10568,12.60085 c -0.38271,0.0171 -0.87549,0.1434 -1.51061,0.33811 -3.98891,1.22287 -5.93562,3.02589 -5.93562,5.49865 0,3.63524 2.40892,4.72043 6.77001,3.04691 1.27563,-0.4895 1.97723,-2.2928 1.97723,-5.08344 0,-2.93032 -0.1529,-3.85161 -1.30101,-3.80023 z m -50.74348,20.90123 c -3.43091,-0.0139 -4.64802,3.10469 -2.17692,5.57578 2.12019,2.12021 14.84797,2.66899 17.8484,0.76914 4.74306,-3.00329 -3.38799,-6.29509 -15.67148,-6.34492 z"
         id="path38"
         inkscape:connector-curvature="0" />
      <path
         inkscape:connector-curvature="0"
         id="rect845"
         d="m 260.4711,-348 c -91.28149,0 -124.72426,8.08742 -137.40916,33.22922 -10.13141,20.08089 -11.29311,114.00703 -1.89221,152.98375 4.92419,20.41603 3.72656,39.48684 -4.80465,76.490885 L 105,-36 c 0,0 65.42194,-34.807352 101.07569,-52.536813 45.41449,-23.130847 62.99225,-28.283027 106.46955,-31.208507 59.32346,-3.99171 78.41999,-11.85701 87.6365,-36.09818 9.49854,-24.9831 7.84862,-138.80547 -2.30347,-158.92728 C 385.19337,-339.91258 351.75258,-348 260.4711,-348 Z m 110.64347,78.90705 c 2.74699,-0.0952 2.73252,4.0353 2.73252,20.73514 0,20.67502 0.84028,25.53784 4.41712,25.53784 1.00687,0 1.83092,1.12447 1.83092,2.49921 0,2.31437 -0.83378,2.49921 -11.24843,2.49921 -10.28394,0 -11.24646,-0.20787 -11.24646,-2.41617 0,-1.32842 1.12448,-2.77073 2.49921,-3.20706 2.34119,-0.74308 2.49921,-1.89266 2.49921,-18.12324 0,-16.23058 -0.15802,-17.37819 -2.49921,-18.12126 -3.8006,-1.20626 -3.17311,-5.43203 0.93721,-6.31129 1.89026,-0.40434 4.72842,-1.25834 6.30734,-1.89814 1.63234,-0.66144 2.85491,-1.16253 3.77057,-1.19424 z m -197.91024,10.02848 c 1.91602,0.0885 3.56378,0.8825 4.38351,2.41419 1.79446,3.353 -1.52166,6.61611 -5.66672,5.57577 -3.65718,-0.91791 -3.65102,-0.97845 -0.5635,5.07751 2.80101,5.49406 2.32116,9.79268 -1.56993,14.07982 -3.28362,3.61781 -10.09058,5.80647 -15.38675,4.94701 -3.84797,-0.62444 -6.75972,0.81699 -5.06762,2.50909 0.38122,0.38122 5.17463,1.14613 10.65327,1.69844 5.47864,0.55231 11.15546,1.64312 12.61469,2.42408 6.74942,3.61217 5.0492,14.84187 -2.73252,18.04612 -5.39975,2.22343 -15.5056,3.23116 -20.97834,2.09191 -10.11967,-2.10662 -13.9217,-7.74079 -8.85995,-13.12877 2.39031,-2.54439 2.47732,-3.04755 0.77705,-4.45864 -2.8348,-2.35269 -2.32941,-6.70811 1.15865,-9.98498 2.79961,-2.63008 2.91339,-3.12215 1.25159,-5.49471 -2.62758,-3.7514 -2.28618,-11.12803 0.69202,-14.9142 3.04062,-3.86553 10.12311,-6.41656 15.06843,-5.42748 2.78261,0.55651 4.32787,0.0122 6.70477,-2.36476 2.15138,-2.15138 5.05793,-3.20413 7.52135,-3.0904 z m 88.16443,5.92574 v 14.44955 c 0,13.35182 0.18955,14.51134 2.49921,15.2444 1.40693,0.44653 2.49921,1.89052 2.49921,3.30394 0,2.31409 -0.75836,2.49653 -9.68445,2.33313 -5.3271,-0.0975 -12.4976,0.10443 -15.93444,0.44883 -3.43683,0.34441 -7.24237,0.33785 -8.45461,-0.0139 -3.85513,-1.11854 -5.91784,-7.17763 -5.91784,-17.37584 0,-8.50121 -0.27668,-9.62471 -2.50118,-10.20643 -2.41035,-0.63031 -3.48455,-4.61054 -1.56201,-5.78734 0.51552,-0.31557 4.17205,-0.97553 8.12441,-1.46709 l 7.18524,-0.89371 v 12.53955 c 0,6.89666 0.34203,13.42952 0.75925,14.51679 0.8972,2.33806 4.14131,2.53715 8.55545,0.52594 2.83961,-1.29381 3.18333,-2.17941 3.18333,-8.20548 0,-7.41522 -1.59042,-11.59049 -4.41712,-11.59049 -1.8964,0 -2.58012,-4.388 -0.8502,-5.45715 0.53941,-0.33338 4.47507,-1.00154 8.74723,-1.48488 z m 73.10983,0.14433 c 13.05531,0 19.84416,6.8488 19.05055,19.2206 -0.34956,5.44951 -1.19029,7.96092 -3.50561,10.47138 -5.66018,6.13719 -13.95794,8.04908 -23.25216,5.35827 -7.79258,-2.25607 -13.00133,-12.24544 -11.16736,-21.4153 1.80911,-9.04555 8.1611,-13.63495 18.87458,-13.63495 z m -137.75715,0.33614 c 1.01914,0.006 2.1045,0.0475 3.26242,0.11862 11.18778,0.6876 12.64434,2.68513 12.64434,17.36003 0,10.33343 0.17735,11.11003 2.53877,11.11003 3.53353,0 4.67978,3.69685 1.79927,5.80315 -3.04588,2.22719 -8.12689,2.15269 -11.44022,-0.16806 -2.35181,-1.64727 -3.06909,-1.647 -6.21441,-0.006 -5.7915,3.02058 -11.36105,2.38068 -15.52517,-1.78345 v -0.002 c -2.00924,-2.00922 -3.65193,-4.86443 -3.65193,-6.34491 0,-5.5295 10.6275,-12.46399 19.1415,-12.49013 1.73792,-0.005 2.17716,-0.81317 1.87441,-3.44433 -0.32952,-2.86376 -1.07221,-3.50157 -4.45666,-3.8279 -3.26937,-0.31522 -4.06122,0.0632 -4.06122,1.93769 0,5.34943 -7.54669,7.41119 -10.04429,2.74438 -1.07813,-2.01452 -0.93556,-3.264 0.64655,-5.67859 2.48477,-3.79225 6.3527,-5.37411 13.48664,-5.32861 z m 96.03179,0.10676 c 8.99021,0.0992 11.33988,1.76071 14.91025,7.61627 8.24861,13.5281 -4.61527,32.24569 -18.76979,27.3114 l -3.78045,-1.31683 v 4.84815 c 0,3.7522 0.56539,5.0312 2.49921,5.64497 1.59711,0.5069 2.50119,1.88929 2.50119,3.83187 0,2.98195 -0.20413,3.04096 -10.62363,3.04096 -10.4195,0 -10.62362,-0.059 -10.62362,-3.04096 0,-1.94258 0.9021,-3.32497 2.49921,-3.83187 2.33598,-0.74143 2.50119,-1.89226 2.50119,-17.57159 0,-15.42344 -0.20332,-16.90174 -2.50119,-18.33677 -2.71791,-1.69736 -3.32275,-5.30331 -1.11911,-6.66523 0.75866,-0.46886 7.56532,-1.09028 15.12577,-1.38207 2.87843,-0.1111 5.3063,-0.17119 7.38097,-0.1483 z m -135.87483,4.92527 c -2.4638,-0.15576 -4.23917,2.90471 -4.23917,7.87923 0,6.06951 0.5717,6.9282 4.61286,6.9282 2.05968,0 3.34816,-1.03442 4.27674,-3.43642 1.53332,-3.96629 0.25308,-8.78754 -2.84918,-10.73434 -0.6286,-0.39448 -1.23268,-0.60072 -1.80125,-0.63667 z m 133.34597,1.11911 c -3.38784,0.0621 -4.52391,2.93328 -4.86003,10.57023 -0.20561,4.67162 -0.0829,9.25333 0.27286,10.18074 0.87903,2.2907 7.59608,2.13583 9.96126,-0.22937 5.04498,-5.04496 3.25284,-18.65813 -2.65146,-20.14 -1.03967,-0.26094 -1.94084,-0.39592 -2.72263,-0.3816 z m 44.96008,0.19376 c -0.56216,-0.0113 -1.15729,0.0614 -1.7874,0.21948 -6.04269,1.51662 -8.01973,13.85398 -3.20113,19.97985 3.10059,3.94177 5.3077,4.14341 8.65826,0.79286 1.88111,-1.88112 2.49921,-4.16475 2.49921,-9.23363 0,-7.50404 -2.23381,-11.67944 -6.16894,-11.75856 z m -135.10568,12.60085 c -0.38271,0.0171 -0.87549,0.1434 -1.51061,0.33811 -3.98891,1.22287 -5.93562,3.02589 -5.93562,5.49865 0,3.63524 2.40892,4.72043 6.77001,3.04691 1.27563,-0.4895 1.97723,-2.2928 1.97723,-5.08344 0,-2.93032 -0.1529,-3.85161 -1.30101,-3.80023 z m -50.74348,20.90123 c -3.43091,-0.0139 -4.64802,3.10469 -2.17692,5.57578 2.12019,2.12021 14.84797,2.66899 17.8484,0.76914 4.74306,-3.00329 -3.38799,-6.29509 -15.67148,-6.34492 z"
         style="opacity:1;fill:#ffffff;fill-opacity:1;stroke:none;stroke-width:1.01393282;stroke-linecap:round;stroke-miterlimit:4;stroke-dasharray:none;stroke-opacity:1" />
    </g>
  </g>
</svg>
