<?xml version="1.0" encoding="UTF-8" standalone="no"?>
<svg
   xmlns:dc="http://purl.org/dc/elements/1.1/"
   xmlns:cc="http://creativecommons.org/ns#"
   xmlns:rdf="http://www.w3.org/1999/02/22-rdf-syntax-ns#"
   xmlns:svg="http://www.w3.org/2000/svg"
   xmlns="http://www.w3.org/2000/svg"
   xmlns:sodipodi="http://sodipodi.sourceforge.net/DTD/sodipodi-0.dtd"
   xmlns:inkscape="http://www.inkscape.org/namespaces/inkscape"
   viewBox="0 0 511.99999 511.99999"
   height="512"
   width="512"
   version="1.1"
   id="svg2"
   inkscape:version="0.92.3 (2405546, 2018-03-11)"
   sodipodi:docname="gcolor2.svg">
  <sodipodi:namedview
     pagecolor="#ffffff"
     bordercolor="#666666"
     borderopacity="1"
     objecttolerance="10"
     gridtolerance="10"
     guidetolerance="10"
     inkscape:pageopacity="0"
     inkscape:pageshadow="2"
     inkscape:window-width="1366"
     inkscape:window-height="720"
     id="namedview26"
     showgrid="false"
     inkscape:zoom="0.20370752"
     inkscape:cx="-205.0601"
     inkscape:cy="670.43216"
     inkscape:window-x="0"
     inkscape:window-y="23"
     inkscape:window-maximized="1"
     inkscape:current-layer="svg2" />
  <metadata
     id="metadata8">
    <rdf:RDF>
      <cc:Work
         rdf:about="">
        <dc:format>image/svg+xml</dc:format>
        <dc:type
           rdf:resource="http://purl.org/dc/dcmitype/StillImage" />
        <dc:title></dc:title>
      </cc:Work>
    </rdf:RDF>
  </metadata>
  <defs
     id="defs6" />
  <g
     transform="translate(1.8019307e-8,3e-6)"
     id="g836">
    <path
       style="fill:#333333;fill-opacity:1;stroke-width:11.10955811"
       inkscape:connector-curvature="0"
       d="M 432.91327,56.473962 C 535.10618,145.04855 538.74005,306.17367 441.03007,416.37275 343.3201,526.57182 181.27964,544.10062 79.086729,455.52602 -23.106186,366.95142 -26.740042,205.8263 70.969928,95.627224 168.6799,-14.571858 330.72036,-32.100628 432.91327,56.473962 Z"
       id="path27" />
    <path
       style="opacity:1;fill:#000000;fill-opacity:0.49019608;stroke-width:11.10955811"
       inkscape:connector-curvature="0"
       d="M 511.63551,224.90351 C 510.08412,286.21516 486.47428,349.05812 440.66913,400.71798 342.95915,510.91712 180.91869,528.44582 78.725776,439.87128 30.827124,398.35563 4.4968218,340.92283 0.19382794,280.2288 0.79907954,346.58547 27.117412,410.48217 79.078682,455.51906 181.27159,544.09362 343.31975,526.55622 441.02202,416.36576 490.72697,360.30766 514.02704,291.0748 511.63551,224.90351 Z"
       id="path51" />
    <path
       style="fill:#000000;fill-opacity:0.49019608;stroke-width:0.87624747"
       d="m 136.62592,418.25399 c -6.5725,-2.05425 -11.93659,-6.83854 -14.82172,-13.21962 -1.76617,-3.90627 -1.78292,-5.11779 -1.79351,-129.68463 L 120,149.60822 l 2.04456,-4.38123 c 2.41259,-5.16988 7.7428,-10.26205 12.50093,-11.94265 2.67326,-0.94421 11.27075,-1.20107 40.20285,-1.20107 h 36.8024 l 4.60409,2.55101 c 2.53225,1.40305 5.60836,3.86766 6.83578,5.47689 5.07186,6.64957 4.77237,-1.85906 4.75147,134.99136 -0.0192,124.80615 -0.036,126.02573 -1.80208,129.93184 -2.1824,4.82685 -6.22624,9.16897 -10.88427,11.68706 -3.41708,1.84726 -4.41703,1.89884 -39.86926,2.0569 -20.00035,0.0892 -37.3526,-0.1468 -38.56056,-0.52432 z m 59.35799,-27.78345 c 7.50295,-5.96844 9.18393,-15.21595 4.07927,-22.4412 -8.59612,-12.16715 -27.4427,-7.73173 -29.77177,7.00657 -1.05252,6.66031 2.83864,13.58271 9.71443,17.28197 4.25186,2.28756 11.89028,1.40443 15.97807,-1.84734 z m 45.79738,26.45358 c 2.65065,-1.14173 43.06756,-17.92962 89.81537,-37.30642 46.7478,-19.3768 86.13356,-35.81779 87.52391,-36.53548 1.39036,-0.71768 4.85701,-3.56993 7.70367,-6.33823 L 432,331.71072 l -0.2556,35.56652 c -0.2476,34.46299 -0.314,35.67561 -2.13904,39.08298 -2.39388,4.46943 -5.90308,7.97864 -10.37251,10.37252 l -3.51648,1.88347 -89.37724,0.19192 -89.37724,0.19192 z m 77.63143,-91.73154 c 75.03499,-75.30036 70.83248,-70.70743 75.57655,-82.59772 0.48056,-1.2044 4.16747,6.8158 13.69571,29.79242 14.65996,35.35143 15.27694,37.74008 11.82235,45.7705 -3.85415,8.95924 -1.73827,7.91657 -89.904,44.30276 -44.27372,18.27188 -80.892,33.40639 -81.37394,33.63226 -0.48192,0.22584 31.10057,-31.67924 70.18333,-70.90022 z m -66.37583,42.16314 c 0.45136,-1.20484 16.68823,-40.43882 36.08192,-87.18662 19.39368,-46.7478 36.03157,-87.16472 36.97308,-89.81536 1.09122,-3.07215 1.74302,-7.3002 1.79785,-11.66224 l 0.0861,-6.84286 23.44637,23.43432 c 25.77432,25.76106 28.11999,28.83407 28.2753,37.04303 0.18944,10.0138 2.61417,7.22523 -65.21967,75.00679 -34.24385,34.21746 -61.89225,61.22779 -61.44088,60.02294 z m -8.60021,-118.83098 c -0.0168,-61.03239 -0.35112,-98.19748 -0.9096,-101.14249 -0.4856,-2.56069 -1.8439,-6.75478 -3.01839,-9.3202 -1.17449,-2.56542 -2.03248,-4.66441 -1.90665,-4.66441 1.51476,0 61.94295,25.82319 64.3287,27.49003 8.50973,5.94541 11.05794,15.97659 6.86802,27.03638 -2.78759,7.35817 -63.62654,154.09841 -64.58397,155.77299 -0.42128,0.73696 -0.7632,-41.07574 -0.77808,-95.1723 z"
       id="path908"
       inkscape:connector-curvature="0" />
    <path
       sodipodi:nodetypes="cscscccscccc"
       style="fill:#68b723;fill-opacity:1;stroke-width:0.87624747"
       d="m 221.78129,396.92412 c 2.65065,-1.14173 43.06756,-17.92962 89.81537,-37.30642 46.7478,-19.3768 86.13356,-35.81779 87.52391,-36.53548 1.39036,-0.71768 4.85701,-3.56993 7.70367,-6.33823 L 412,311.71072 l -0.2556,35.56652 c -0.2476,34.46299 -0.314,35.67561 -2.13904,39.08298 -2.39388,4.46943 -5.90308,7.97864 -10.37251,10.37252 l -3.51648,1.88347 -89.37724,0.19192 -89.37724,0.19192 z"
       id="path928"
       inkscape:connector-curvature="0" />
    <path
       sodipodi:nodetypes="ccccsssccccccccccsscc"
       style="fill:#ffffff;stroke-width:0.87624747"
       d="m 116.62563,398.25399 c -6.5725,-2.05425 -11.93659,-6.83854 -14.82172,-13.21962 -1.76617,-3.90627 -1.78292,-5.11779 -1.79351,-129.68463 L 100,129.60822 l 2.04456,-4.38123 c 2.41259,-5.16988 7.7428,-10.26205 12.50093,-11.94265 2.67326,-0.94421 11.27075,-1.20107 40.20285,-1.20107 h 36.8024 l 4.60409,2.55101 c 2.53225,1.40305 5.60836,3.86766 6.83578,5.4769 5.07186,6.64956 4.77237,-1.85907 4.75147,134.99135 -0.0192,124.80615 -0.036,126.02573 -1.80208,129.93184 -2.1824,4.82685 -6.22624,9.16897 -10.88427,11.68706 -3.41708,1.84726 -4.41703,1.89884 -39.86926,2.0569 -20.00035,0.0892 -37.3526,-0.1468 -38.56056,-0.52432 z m 59.35799,-27.78345 c 7.50295,-5.96844 9.18393,-15.21595 4.07927,-22.4412 -8.59612,-12.16715 -27.4427,-7.73173 -29.77177,7.00657 -1.05252,6.66031 2.83864,13.58271 9.71443,17.28197 4.25186,2.28756 11.89028,1.40443 15.97807,-1.84734 z"
       id="path920"
       inkscape:connector-curvature="0" />
    <path
       sodipodi:nodetypes="cscscsccc"
       style="fill:#c6262e;fill-opacity:1;stroke-width:0.87624747"
       d="m 224.43665,228.52474 c -0.0168,-61.03239 -0.35112,-98.19748 -0.9096,-101.14249 -0.4856,-2.56069 -1.84391,-6.75478 -3.01839,-9.3202 -1.17449,-2.56542 -2.03248,-4.66441 -1.90665,-4.66441 1.51476,0 61.94295,25.82319 64.32869,27.49003 8.50974,5.94541 11.05795,15.97659 6.86803,27.03638 -2.78759,7.35817 -63.62655,154.09841 -64.58397,155.77299 -0.42128,0.73696 -0.7632,-41.07574 -0.77808,-95.1723 z"
       id="path922"
       inkscape:connector-curvature="0" />
    <path
       sodipodi:nodetypes="cscccscscc"
       style="fill:#f37329;fill-opacity:1;stroke-width:0.87624747"
       d="m 233.03689,347.35572 c 0.45136,-1.20484 16.68823,-40.43882 36.08192,-87.18662 19.39368,-46.7478 36.03157,-87.16472 36.97308,-89.81536 1.09122,-3.07215 1.74302,-7.3002 1.79785,-11.66224 l 0.0861,-6.84286 23.44637,23.43432 c 25.77432,25.76106 28.11999,28.83407 28.2753,37.04303 0.18944,10.0138 2.61417,7.22523 -65.21967,75.00679 -34.24385,34.21746 -61.89225,61.22779 -61.44088,60.02294 z"
       id="path924"
       inkscape:connector-curvature="0" />
    <path
       sodipodi:nodetypes="scssscs"
       style="fill:#f9c440;fill-opacity:1;stroke-width:0.87624747"
       d="m 299.41272,305.19258 c 75.03499,-75.30036 70.83248,-70.70743 75.57655,-82.59772 0.48056,-1.2044 4.16747,6.8158 13.69571,29.79242 14.65996,35.35143 15.27694,37.74008 11.82235,45.7705 -3.85415,8.95924 -1.73827,7.91657 -89.904,44.30276 -44.27372,18.27188 -80.892,33.40639 -81.37394,33.63226 -0.48192,0.22584 31.10057,-31.67924 70.18333,-70.90022 z"
       id="path926"
       inkscape:connector-curvature="0" />
  </g>
</svg>
