<?xml version="1.0" encoding="UTF-8" standalone="no"?>
<!-- Created with Inkscape (http://www.inkscape.org/) -->

<svg
   xmlns:dc="http://purl.org/dc/elements/1.1/"
   xmlns:cc="http://creativecommons.org/ns#"
   xmlns:rdf="http://www.w3.org/1999/02/22-rdf-syntax-ns#"
   xmlns:svg="http://www.w3.org/2000/svg"
   xmlns="http://www.w3.org/2000/svg"
   xmlns:sodipodi="http://sodipodi.sourceforge.net/DTD/sodipodi-0.dtd"
   xmlns:inkscape="http://www.inkscape.org/namespaces/inkscape"
   id="svg2"
   version="1.1"
   inkscape:version="0.92.3 (2405546, 2018-03-11)"
   width="512"
   height="512"
   sodipodi:docname="gda-control-center.svg">
  <metadata
     id="metadata8">
    <rdf:RDF>
      <cc:Work
         rdf:about="">
        <dc:format>image/svg+xml</dc:format>
        <dc:type
           rdf:resource="http://purl.org/dc/dcmitype/StillImage" />
        <dc:title></dc:title>
      </cc:Work>
    </rdf:RDF>
  </metadata>
  <defs
     id="defs6" />
  <sodipodi:namedview
     pagecolor="#ffffff"
     bordercolor="#666666"
     borderopacity="1"
     objecttolerance="10"
     gridtolerance="10"
     guidetolerance="10"
     inkscape:pageopacity="0"
     inkscape:pageshadow="2"
     inkscape:window-width="1366"
     inkscape:window-height="720"
     id="namedview4"
     showgrid="false"
     inkscape:zoom="0.4609375"
     inkscape:cx="-43.175551"
     inkscape:cy="282.81388"
     inkscape:window-x="0"
     inkscape:window-y="23"
     inkscape:window-maximized="1"
     inkscape:current-layer="svg2" />
  <g
     id="g840">
    <path
       id="path848"
       d="m 432.91325,56.47397 c 102.19291,88.57459 105.82677,249.69971 8.1168,359.89879 C 343.32009,526.57182 181.27965,544.10062 79.08674,455.52602 -23.106205,366.95143 -26.740032,205.82631 70.96994,95.62723 168.67991,-14.57185 330.72036,-32.10062 432.91325,56.47397 Z"
       inkscape:connector-curvature="0"
       style="fill:#3689e6;fill-opacity:1;stroke-width:11.10955811" />
    <path
       id="path850"
       d="M 511.63548,224.90352 C 510.0841,286.21516 486.47426,349.05813 440.66911,400.71799 342.95915,510.91712 180.9187,528.44582 78.725757,439.87129 30.827125,398.35564 4.4968193,340.92284 0.19382704,280.22881 0.79908059,346.58548 27.117405,410.48218 79.07869,455.51907 181.2716,544.09362 343.31975,526.55622 441.022,416.36577 490.72695,360.30766 514.02702,291.07481 511.63548,224.90352 Z"
       inkscape:connector-curvature="0"
       style="opacity:1;fill:#000000;fill-opacity:0.49019608;stroke-width:11.10955811" />
    <path
       inkscape:connector-curvature="0"
       id="path846"
       d="m 237.65122,430.41894 c -16.45596,-2.31481 -34.84126,-6.52307 -46.28961,-10.59531 -23.95027,-8.51907 -43.5873,-22.38132 -50.0355,-35.32121 C 138.123,378.0746 138,376.98126 138,354.93542 c 0,-12.80188 0.51291,-22.89232 1.16365,-22.89232 0.64001,0 2.65651,2.54742 4.48116,5.66092 16.8523,28.75625 76.81011,47.86527 142.22473,45.3279 60.53217,-2.34784 108.52783,-20.56409 121.64009,-46.167 1.72038,-3.35917 3.67062,-6.10763 4.33387,-6.10763 2.18564,0 2.93032,8.8831 2.35072,28.04079 -0.51848,17.13692 -0.87837,19.48912 -3.87459,25.32344 -10.45712,20.36246 -40.56403,36.1068 -85.14782,44.5281 -18.6553,3.52356 -67.96276,4.52037 -87.52059,1.76932 z m 7.07201,-62.52668 C 205.00714,363.9023 168.21052,350.3517 150.86646,333.3289 139.42299,322.09742 138.71103,319.83168 138.2403,293.14694 c -0.27073,-15.34633 0.0398,-22.8233 0.94823,-22.8233 0.74297,0 2.79082,2.28106 4.55077,5.06899 11.17068,17.69556 40.29206,32.50683 78.35386,39.85131 75.88752,14.64333 164.68574,-4.85847 184.85584,-40.59786 2.13992,-3.79176 4.37871,-6.89408 4.97506,-6.89408 1.95789,0 2.86503,11.51733 2.27573,28.89317 -0.51976,15.32535 -0.93966,17.82073 -4.07809,24.23537 -16.18423,33.0794 -91.36751,54.4489 -165.39847,47.01172 z m 3.85747,-62.99842 c -50.95231,-4.50127 -94.31215,-23.4951 -106.44204,-46.62711 -3.24403,-6.18644 -3.48194,-7.81528 -3.90795,-26.75422 -0.55441,-24.6486 0.27172,-27.00097 6.22464,-17.72417 10.82691,16.87232 36.28982,29.83964 73.16189,37.25871 80.90381,16.27875 171.40646,-3.68812 190.92121,-42.12141 1.16704,-2.2984 2.59562,-4.17893 3.17466,-4.17893 1.63598,0 2.81706,34.6929 1.46406,43.00591 -6.14861,37.77858 -82.7507,64.37177 -164.59647,57.14122 z m 6.29216,-62.98959 c -53.01041,-3.37044 -101.35775,-24.01342 -112.55443,-48.05771 -15.34175,-32.94562 30.98419,-65.11343 104.82351,-72.78729 20.78313,-2.15992 61.06914,-0.87 79.3157,2.53961 21.42917,4.00434 35.66788,8.48934 51.64183,16.2664 23.40595,11.39543 35.06645,24.99559 35.06645,40.89955 0,37.92348 -73.98541,66.49975 -158.29306,61.13944 z"
       style="fill:#000000;fill-opacity:0.49019608;stroke-width:1.13454545" />
    <path
       style="fill:#ffffff;fill-opacity:1;stroke-width:1.13454545"
       d="m 217.65122,410.41894 c -16.45596,-2.31481 -34.84126,-6.52307 -46.28961,-10.59531 -23.95027,-8.51907 -43.5873,-22.38132 -50.0355,-35.32121 C 118.123,358.0746 118,356.98126 118,334.93542 c 0,-12.80188 0.51291,-22.89232 1.16365,-22.89232 0.64001,0 2.65651,2.54742 4.48116,5.66092 16.8523,28.75625 76.81011,47.86527 142.22473,45.3279 60.53217,-2.34784 108.52783,-20.56409 121.64009,-46.167 1.72038,-3.35917 3.67062,-6.10763 4.33387,-6.10763 2.18564,0 2.93032,8.8831 2.35072,28.04079 -0.51848,17.13692 -0.87837,19.48912 -3.87459,25.32344 -10.45712,20.36246 -40.56403,36.1068 -85.14782,44.5281 -18.6553,3.52356 -67.96276,4.52037 -87.52059,1.76932 z m 7.07201,-62.52668 C 185.00714,343.9023 148.21052,330.3517 130.86646,313.3289 119.42299,302.09742 118.71103,299.83168 118.2403,273.14694 c -0.27073,-15.34633 0.0398,-22.8233 0.94823,-22.8233 0.74297,0 2.79082,2.28106 4.55077,5.06899 11.17068,17.69556 40.29206,32.50683 78.35386,39.85131 75.88752,14.64333 164.68574,-4.85847 184.85584,-40.59786 2.13992,-3.79176 4.37871,-6.89408 4.97506,-6.89408 1.95789,0 2.86503,11.51733 2.27573,28.89317 -0.51976,15.32535 -0.93966,17.82073 -4.07809,24.23537 -16.18423,33.0794 -91.36751,54.4489 -165.39847,47.01172 z m 3.85747,-62.99842 c -50.95231,-4.50127 -94.31215,-23.4951 -106.44204,-46.62711 -3.24403,-6.18644 -3.48194,-7.81528 -3.90795,-26.75422 -0.55441,-24.6486 0.27172,-27.00097 6.22464,-17.72417 10.82691,16.87232 36.28982,29.83964 73.16189,37.25871 80.90381,16.27875 171.40646,-3.68812 190.92121,-42.12141 1.16704,-2.2984 2.59562,-4.17893 3.17466,-4.17893 1.63598,0 2.81706,34.6929 1.46406,43.00591 -6.14861,37.77858 -82.7507,64.37177 -164.59647,57.14122 z m 6.29216,-62.98959 c -53.01041,-3.37044 -101.35775,-24.01342 -112.55443,-48.05771 -15.34175,-32.94562 30.98419,-65.11343 104.82351,-72.78729 20.78313,-2.15992 61.06914,-0.87 79.3157,2.53961 21.42917,4.00434 35.66788,8.48934 51.64183,16.2664 23.40595,11.39543 35.06645,24.99559 35.06645,40.89955 0,37.92348 -73.98541,66.49975 -158.29306,61.13944 z"
       id="path3026"
       inkscape:connector-curvature="0" />
  </g>
</svg>
