<?xml version="1.0" encoding="UTF-8" standalone="no"?>
<!-- Generator: Adobe Illustrator 19.0.0, SVG Export Plug-In . SVG Version: 6.00 Build 0)  -->

<svg
   xmlns:dc="http://purl.org/dc/elements/1.1/"
   xmlns:cc="http://creativecommons.org/ns#"
   xmlns:rdf="http://www.w3.org/1999/02/22-rdf-syntax-ns#"
   xmlns:svg="http://www.w3.org/2000/svg"
   xmlns="http://www.w3.org/2000/svg"
   xmlns:sodipodi="http://sodipodi.sourceforge.net/DTD/sodipodi-0.dtd"
   xmlns:inkscape="http://www.inkscape.org/namespaces/inkscape"
   version="1.1"
   id="Layer_1"
   x="0px"
   y="0px"
   viewBox="0 0 512 512"
   xml:space="preserve"
   inkscape:version="0.92.3 (2405546, 2018-03-11)"
   width="512"
   height="512"
   sodipodi:docname="gdmflexiserver.svg"><metadata
     id="metadata57"><rdf:RDF><cc:Work
         rdf:about=""><dc:format>image/svg+xml</dc:format><dc:type
           rdf:resource="http://purl.org/dc/dcmitype/StillImage" /><dc:title></dc:title></cc:Work></rdf:RDF></metadata><defs
     id="defs55" /><sodipodi:namedview
     pagecolor="#ffffff"
     bordercolor="#666666"
     borderopacity="1"
     objecttolerance="10"
     gridtolerance="10"
     guidetolerance="10"
     inkscape:pageopacity="0"
     inkscape:pageshadow="2"
     inkscape:window-width="1366"
     inkscape:window-height="720"
     id="namedview53"
     showgrid="false"
     inkscape:zoom="0.37165185"
     inkscape:cx="550.88835"
     inkscape:cy="611.16521"
     inkscape:window-x="0"
     inkscape:window-y="23"
     inkscape:window-maximized="1"
     inkscape:current-layer="Layer_1"
     units="px" /><g
     id="g23"
     transform="translate(0,550.767)" /><g
     id="g25"
     transform="translate(0,550.767)" /><g
     id="g27"
     transform="translate(0,550.767)" /><g
     id="g29"
     transform="translate(0,550.767)" /><g
     id="g31"
     transform="translate(0,550.767)" /><g
     id="g33"
     transform="translate(0,550.767)" /><g
     id="g35"
     transform="translate(0,550.767)" /><g
     id="g37"
     transform="translate(0,550.767)" /><g
     id="g39"
     transform="translate(0,550.767)" /><g
     id="g41"
     transform="translate(0,550.767)" /><g
     id="g43"
     transform="translate(0,550.767)" /><g
     id="g45"
     transform="translate(0,550.767)" /><g
     id="g47"
     transform="translate(0,550.767)" /><g
     id="g49"
     transform="translate(0,550.767)" /><g
     id="g51"
     transform="translate(0,550.767)" /><g
     transform="translate(3.84141e-8,5.2705502e-6)"
     id="g884"><path
       id="path1165"
       d="M 432.91328,56.474957 C 535.10618,145.04845 538.74005,306.17451 441.03006,416.37298 343.32007,526.57147 181.27962,544.10043 79.086743,455.52693 -23.106206,366.95111 -26.740033,205.82737 70.969944,95.626584 168.67988,-14.571874 330.72033,-32.100857 432.91328,56.474957 Z"
       inkscape:connector-curvature="0"
       style="fill:#c6262e;fill-opacity:1;stroke-width:11.10954762" /><path
       id="path1167"
       d="M 511.63552,224.90399 C 510.08416,286.21586 486.47428,349.05908 440.66913,400.71744 342.95911,510.9159 180.91867,528.44487 78.725762,439.8714 30.827125,398.35527 4.4968196,340.92295 0.19382729,280.22781 0.79908089,346.5852 27.117406,410.48266 79.078693,455.51762 181.27157,544.09343 343.31972,526.55517 441.02203,416.36599 c 49.70494,-56.05922 73.00501,-125.29079 70.61349,-191.462 z"
       inkscape:connector-curvature="0"
       style="opacity:1;fill:#000000;fill-opacity:0.49019608;stroke-width:11.10954762" /><path
       style="fill:#000000;fill-opacity:0.49019608;stroke-width:0.74035466"
       d="m 310.20577,370.77682 c -2.1042,-0.734 -4.99349,-2.22516 -6.42064,-3.31371 -3.30742,-2.52269 -6.37873,-8.78105 -6.92984,-14.12083 l -0.4292,-4.15844 -73.00643,-0.0427 c -66.54176,-0.0389 -73.4379,-0.1553 -77.87886,-1.31459 -9.66762,-2.52367 -17.84954,-9.24649 -22.09902,-18.15805 -8.86666,-18.59421 -0.008,-39.82159 19.75391,-47.3343 l 4.2561,-1.61801 74.59073,-0.21947 74.59073,-0.21946 v -2.0599 c 0,-4.84257 2.30755,-10.02949 6.18762,-13.90856 3.6224,-3.62146 5.39482,-4.49729 11.70329,-5.78313 l 1.97327,-0.40221 0.28877,-19.80612 c 0.27841,-19.09651 0.35955,-20.01831 2.26481,-25.72895 6.69748,-20.07436 22.57328,-31.40722 44.06029,-31.45222 19.2146,-0.0403 34.00877,8.42134 41.51022,23.74189 4.08768,8.34848 5.30108,13.39723 5.81209,24.18322 l 0.42968,9.06934 h -7.88143 -7.88144 l -0.006,-5.36757 c -0.017,-16.2382 -5.91042,-28.00381 -16.52712,-32.99424 -7.62387,-3.58365 -19.90542,-3.97577 -28.07119,-0.89625 -5.43574,2.04996 -11.73202,7.74128 -14.199,12.83474 -3.57129,7.37415 -4.12691,11.34572 -4.12691,29.50156 v 16.83388 l 42.75548,0.22381 42.75548,0.22383 4.04562,2.22106 c 4.5771,2.51284 8.49194,7.17133 9.65437,11.48822 0.52033,1.93239 0.71389,16.92664 0.57542,44.57524 -0.20666,41.26133 -0.22432,41.69261 -1.83086,44.69487 -0.89219,1.66733 -2.86692,4.12442 -4.38828,5.46019 -5.7888,5.08263 -2.60603,4.81645 -59.8811,5.00803 -48.28778,0.16151 -52.08594,0.0823 -55.65064,-1.16119 z M 295.15254,315.1136 v -22.96492 l -73.85037,0.19901 -73.85038,0.19902 -3.12592,1.67034 c -8.18146,4.37178 -12.79009,11.65823 -12.79112,20.22332 -3.2e-4,2.67603 0.52982,6.42215 1.17808,8.3247 2.27349,6.67232 9.99063,13.19763 17.30217,14.63003 1.4406,0.28223 34.68589,0.55145 73.87841,0.59828 l 71.25913,0.0851 z m -80.3761,16.74752 c -0.15802,-0.44878 -0.37853,-2.92056 -0.49002,-5.49284 l -0.20271,-4.67687 -5.31838,4.1367 -5.31837,4.13671 -1.90008,-2.49113 c -1.04505,-1.37013 -1.90009,-2.63068 -1.90009,-2.80121 0,-0.17054 2.65204,-2.30463 5.89343,-4.74242 3.24138,-2.4378 5.90666,-4.66803 5.92283,-4.95609 0.0162,-0.28805 -2.38599,-2.42215 -5.33815,-4.74243 -2.95217,-2.3203 -5.66871,-4.48466 -6.03676,-4.80969 -0.38117,-0.33664 0.19297,-1.72134 1.33399,-3.2173 l 2.00319,-2.6263 5.10458,4.07286 c 2.80752,2.24008 5.28895,4.07287 5.51429,4.07287 0.22533,0 0.4097,-2.33212 0.4097,-5.18248 v -5.18249 h 3.33159 3.3316 v 5.23581 5.23581 l 5.26148,-4.08819 5.2615,-4.08819 1.77187,2.10576 c 0.97454,1.15817 1.77189,2.45915 1.77189,2.89107 0,0.43191 -2.66528,2.8142 -5.92284,5.29396 -3.25756,2.47977 -5.92284,4.63903 -5.92284,4.79835 0,0.15933 2.66528,2.35152 5.92284,4.87154 3.25756,2.52002 5.91086,4.95669 5.89621,5.4148 -0.0147,0.45812 -0.79087,1.76681 -1.72496,2.90823 l -1.69833,2.07528 -5.30841,-4.15355 -5.30841,-4.15354 v 5.22476 c 0,3.62444 -0.28346,5.26026 -0.92545,5.34065 -3.42615,0.42902 -5.16604,0.29715 -5.41519,-0.41044 z m 52.32355,0.44493 c -0.48467,-0.16155 -0.82128,-2.17028 -0.82128,-4.90098 0,-2.54497 -0.20523,-4.83245 -0.45607,-5.08329 -0.25085,-0.25085 -2.7595,1.405 -5.57479,3.67965 -2.81529,2.27465 -5.21334,4.00686 -5.329,3.84937 -0.11566,-0.1575 -0.9386,-1.24748 -1.82876,-2.42218 -0.89016,-1.1747 -1.61847,-2.34515 -1.61847,-2.60101 0,-0.25586 2.65204,-2.45976 5.89342,-4.89755 3.24139,-2.4378 5.90666,-4.68258 5.92284,-4.98839 0.0162,-0.30583 -2.02208,-2.13821 -4.52946,-4.07195 -2.50738,-1.93376 -5.24278,-4.05885 -6.07867,-4.72244 l -1.5198,-1.20652 2.0451,-2.68126 2.04509,-2.68125 5.05794,4.03564 c 2.78187,2.21961 5.26329,3.83029 5.51428,3.5793 0.25099,-0.251 0.45635,-2.56636 0.45635,-5.14527 v -4.68891 h 3.3316 3.33159 v 5.22478 5.22476 l 5.27747,-4.12933 5.27747,-4.12933 1.7559,2.37999 c 0.96574,1.309 1.7559,2.60681 1.7559,2.88401 0,0.27721 -2.67938,2.57676 -5.95417,5.11012 -6.82793,5.28203 -6.87415,4.7179 0.85613,10.4486 2.80393,2.07863 5.08751,4.16425 5.07465,4.6347 -0.0129,0.47045 -0.84353,1.78752 -1.84591,2.92683 l -1.82252,2.07149 -5.18746,-4.13899 -5.18746,-4.13899 v 5.13302 5.13302 l -2.51031,0.29306 c -1.38067,0.16119 -2.87989,0.16987 -3.3316,0.0193 z m -104.62358,-5.30107 -0.21753,-5.15072 -5.33175,4.03774 -5.33175,4.03774 -2.05525,-2.69457 -2.05525,-2.69458 1.75908,-1.16798 c 3.88855,-2.5819 10.48502,-8.18987 10.29743,-8.75433 -0.10991,-0.33071 -2.54187,-2.39139 -5.40436,-4.57929 -2.86249,-2.18791 -5.50566,-4.25479 -5.87372,-4.59307 -0.38674,-0.35546 0.17859,-1.72655 1.33942,-3.24847 l 2.0086,-2.63342 5.32378,4.16919 5.32377,4.16918 0.21753,-5.27169 0.21752,-5.2717 h 3.29916 3.29917 v 5.2329 5.2329 l 2.03597,-1.51814 c 1.11979,-0.83498 3.56877,-2.68513 5.44218,-4.11146 l 3.4062,-2.59332 1.91292,2.68853 1.91292,2.68854 -6.24456,4.78058 c -3.43452,2.62932 -6.24457,4.89777 -6.24457,5.04101 0,0.14323 2.64562,2.27437 5.87916,4.73585 3.23353,2.46148 6.03147,4.72528 6.21762,5.03067 0.18616,0.30538 -0.56884,1.63895 -1.67778,2.96348 l -2.01624,2.40824 -5.31191,-4.12735 -5.31191,-4.12737 v 5.2358 5.23581 h -3.29917 -3.29916 z m 212.80883,10.65236 c 0.23165,-0.23165 -1.07439,-4.89519 -2.90231,-10.36342 l -3.32348,-9.94224 2.98986,-3.39666 c 5.1855,-5.89105 4.75357,-13.65691 -1.04264,-18.74606 -4.06789,-3.57164 -11.68567,-4.04476 -15.8213,-0.9826 -6.90355,5.11161 -7.66911,13.69419 -1.80091,20.18959 l 2.6183,2.89814 -3.32978,9.96103 c -1.83137,5.47858 -3.14023,10.15057 -2.90858,10.38222 0.23164,0.23165 5.97383,0.42118 12.76042,0.42118 6.78658,0 12.52877,-0.18953 12.76042,-0.42118 z"
       id="path878"
       inkscape:connector-curvature="0" /><path
       inkscape:connector-curvature="0"
       id="path876"
       d="m 290.20576,350.77682 c -2.1042,-0.734 -4.99349,-2.22516 -6.42064,-3.31371 -3.30742,-2.52269 -6.37873,-8.78105 -6.92984,-14.12083 l -0.4292,-4.15844 -73.00643,-0.0427 c -66.54176,-0.0389 -73.4379,-0.1553 -77.87886,-1.31459 -9.66762,-2.52367 -17.84954,-9.24649 -22.09902,-18.15805 -8.866669,-18.59421 -0.008,-39.82159 19.75391,-47.3343 l 4.2561,-1.61801 74.59073,-0.21947 74.59073,-0.21946 v -2.0599 c 0,-4.84257 2.30755,-10.02949 6.18762,-13.90856 3.6224,-3.62146 5.39482,-4.49729 11.70329,-5.78313 l 1.97327,-0.40221 0.28877,-19.80612 c 0.27841,-19.09651 0.35955,-20.01831 2.26481,-25.72895 6.69748,-20.07436 22.57328,-31.40722 44.06029,-31.45222 19.2146,-0.0403 34.00877,8.42134 41.51022,23.74189 4.08768,8.34848 5.30108,13.39723 5.81209,24.18322 l 0.42968,9.06934 h -7.88143 -7.88144 l -0.006,-5.36757 c -0.017,-16.2382 -5.91042,-28.00381 -16.52712,-32.99424 -7.62387,-3.58365 -19.90542,-3.97577 -28.07119,-0.89625 -5.43574,2.04996 -11.73202,7.74128 -14.199,12.83474 -3.57129,7.37415 -4.12691,11.34572 -4.12691,29.50156 v 16.83388 l 42.75548,0.22381 42.75548,0.22383 4.04562,2.22106 c 4.5771,2.51284 8.49194,7.17133 9.65437,11.48822 0.52033,1.93239 0.71389,16.92664 0.57542,44.57524 -0.20666,41.26133 -0.22432,41.69261 -1.83086,44.69487 -0.89219,1.66733 -2.86692,4.12442 -4.38828,5.46019 -5.7888,5.08263 -2.60603,4.81645 -59.8811,5.00803 -48.28778,0.16151 -52.08594,0.0823 -55.65064,-1.16119 z M 275.15253,295.1136 v -22.96492 l -73.85037,0.19901 -73.85038,0.19902 -3.12592,1.67034 c -8.18146,4.37178 -12.79009,11.65823 -12.79112,20.22332 -3.2e-4,2.67603 0.52982,6.42215 1.17808,8.3247 2.27349,6.67232 9.99063,13.19763 17.30217,14.63003 1.4406,0.28223 34.68589,0.55145 73.87841,0.59828 l 71.25913,0.0851 z m -80.3761,16.74752 c -0.15802,-0.44878 -0.37853,-2.92056 -0.49002,-5.49284 l -0.20271,-4.67687 -5.31838,4.1367 -5.31837,4.13671 -1.90008,-2.49113 c -1.04505,-1.37013 -1.90009,-2.63068 -1.90009,-2.80121 0,-0.17054 2.65204,-2.30463 5.89343,-4.74242 3.24138,-2.4378 5.90666,-4.66803 5.92283,-4.95609 0.0162,-0.28805 -2.38599,-2.42215 -5.33815,-4.74243 -2.95217,-2.3203 -5.66871,-4.48466 -6.03676,-4.80969 -0.38117,-0.33664 0.19297,-1.72134 1.33399,-3.2173 l 2.00319,-2.6263 5.10458,4.07286 c 2.80752,2.24008 5.28895,4.07287 5.51429,4.07287 0.22533,0 0.4097,-2.33212 0.4097,-5.18248 v -5.18249 h 3.33159 3.3316 v 5.23581 5.23581 l 5.26148,-4.08819 5.2615,-4.08819 1.77187,2.10576 c 0.97454,1.15817 1.77189,2.45915 1.77189,2.89107 0,0.43191 -2.66528,2.8142 -5.92284,5.29396 -3.25756,2.47977 -5.92284,4.63903 -5.92284,4.79835 0,0.15933 2.66528,2.35152 5.92284,4.87154 3.25756,2.52002 5.91086,4.95669 5.89621,5.4148 -0.0147,0.45812 -0.79087,1.76681 -1.72496,2.90823 l -1.69833,2.07528 -5.30841,-4.15355 -5.30841,-4.15354 v 5.22476 c 0,3.62444 -0.28346,5.26026 -0.92545,5.34065 -3.42615,0.42902 -5.16604,0.29715 -5.41519,-0.41044 z m 52.32355,0.44493 c -0.48467,-0.16155 -0.82128,-2.17028 -0.82128,-4.90098 0,-2.54497 -0.20523,-4.83245 -0.45607,-5.08329 -0.25085,-0.25085 -2.7595,1.405 -5.57479,3.67965 -2.81529,2.27465 -5.21334,4.00686 -5.329,3.84937 -0.11566,-0.1575 -0.9386,-1.24748 -1.82876,-2.42218 -0.89016,-1.1747 -1.61847,-2.34515 -1.61847,-2.60101 0,-0.25586 2.65204,-2.45976 5.89342,-4.89755 3.24139,-2.4378 5.90666,-4.68258 5.92284,-4.98839 0.0162,-0.30583 -2.02208,-2.13821 -4.52946,-4.07195 -2.50738,-1.93376 -5.24278,-4.05885 -6.07867,-4.72244 l -1.5198,-1.20652 2.0451,-2.68126 2.04509,-2.68125 5.05794,4.03564 c 2.78187,2.21961 5.26329,3.83029 5.51428,3.5793 0.25099,-0.251 0.45635,-2.56636 0.45635,-5.14527 v -4.68891 h 3.3316 3.33159 v 5.22478 5.22476 l 5.27747,-4.12933 5.27747,-4.12933 1.7559,2.37999 c 0.96574,1.309 1.7559,2.60681 1.7559,2.88401 0,0.27721 -2.67938,2.57676 -5.95417,5.11012 -6.82793,5.28203 -6.87415,4.7179 0.85613,10.4486 2.80393,2.07863 5.08751,4.16425 5.07465,4.6347 -0.0129,0.47045 -0.84353,1.78752 -1.84591,2.92683 l -1.82252,2.07149 -5.18746,-4.13899 -5.18746,-4.13899 v 5.13302 5.13302 l -2.51031,0.29306 c -1.38067,0.16119 -2.87989,0.16987 -3.3316,0.0193 z m -104.62358,-5.30107 -0.21753,-5.15072 -5.33175,4.03774 -5.33175,4.03774 -2.05525,-2.69457 -2.05525,-2.69458 1.75908,-1.16798 c 3.88855,-2.5819 10.48502,-8.18987 10.29743,-8.75433 -0.10991,-0.33071 -2.54187,-2.39139 -5.40436,-4.57929 -2.86249,-2.18791 -5.50566,-4.25479 -5.87372,-4.59307 -0.38674,-0.35546 0.17859,-1.72655 1.33942,-3.24847 l 2.0086,-2.63342 5.32378,4.16919 5.32377,4.16918 0.21753,-5.27169 0.21752,-5.2717 h 3.29916 3.29917 v 5.2329 5.2329 l 2.03597,-1.51814 c 1.11979,-0.83498 3.56877,-2.68513 5.44218,-4.11146 l 3.4062,-2.59332 1.91292,2.68853 1.91292,2.68854 -6.24456,4.78058 c -3.43452,2.62932 -6.24457,4.89777 -6.24457,5.04101 0,0.14323 2.64562,2.27437 5.87916,4.73585 3.23353,2.46148 6.03147,4.72528 6.21762,5.03067 0.18616,0.30538 -0.56884,1.63895 -1.67778,2.96348 l -2.01624,2.40824 -5.31191,-4.12735 -5.31191,-4.12737 v 5.2358 5.23581 h -3.29917 -3.29916 z m 212.80883,10.65236 c 0.23165,-0.23165 -1.07439,-4.89519 -2.90231,-10.36342 l -3.32348,-9.94224 2.98986,-3.39666 c 5.1855,-5.89105 4.75357,-13.65691 -1.04264,-18.74606 -4.06789,-3.57164 -11.68567,-4.04476 -15.8213,-0.9826 -6.90355,5.11161 -7.66911,13.69419 -1.80091,20.18959 l 2.6183,2.89814 -3.32978,9.96103 c -1.83137,5.47858 -3.14023,10.15057 -2.90858,10.38222 0.23164,0.23165 5.97383,0.42118 12.76042,0.42118 6.78658,0 12.52877,-0.18953 12.76042,-0.42118 z"
       style="fill:#ffffff;stroke-width:0.74035466" /></g></svg>