<?xml version="1.0" encoding="UTF-8" standalone="no"?>
<!-- Created with Inkscape (http://www.inkscape.org/) -->

<svg
   xmlns:dc="http://purl.org/dc/elements/1.1/"
   xmlns:cc="http://creativecommons.org/ns#"
   xmlns:rdf="http://www.w3.org/1999/02/22-rdf-syntax-ns#"
   xmlns:svg="http://www.w3.org/2000/svg"
   xmlns="http://www.w3.org/2000/svg"
   xmlns:xlink="http://www.w3.org/1999/xlink"
   xmlns:sodipodi="http://sodipodi.sourceforge.net/DTD/sodipodi-0.dtd"
   xmlns:inkscape="http://www.inkscape.org/namespaces/inkscape"
   version="1.0"
   width="512"
   height="512"
   id="svg2"
   inkscape:version="0.92.3 (2405546, 2018-03-11)"
   sodipodi:docname="geany.svg">
  <sodipodi:namedview
     pagecolor="#ffffff"
     bordercolor="#666666"
     borderopacity="1"
     objecttolerance="10"
     gridtolerance="10"
     guidetolerance="10"
     inkscape:pageopacity="0"
     inkscape:pageshadow="2"
     inkscape:window-width="1366"
     inkscape:window-height="720"
     id="namedview104"
     showgrid="false"
     inkscape:zoom="0.23046875"
     inkscape:cx="-262.20536"
     inkscape:cy="99.966549"
     inkscape:window-x="0"
     inkscape:window-y="23"
     inkscape:window-maximized="1"
     inkscape:current-layer="svg2" />
  <defs
     id="defs4">
    <linearGradient
       id="linearGradient3235">
      <stop
         id="stop3237"
         style="stop-color:#fce94f;stop-opacity:1"
         offset="0" />
      <stop
         id="stop3239"
         style="stop-color:#fce94f;stop-opacity:1"
         offset="0.5" />
      <stop
         id="stop3241"
         style="stop-color:#edd400;stop-opacity:1"
         offset="0.75" />
      <stop
         id="stop3243"
         style="stop-color:#c4a000;stop-opacity:1"
         offset="1" />
    </linearGradient>
    <linearGradient
       id="linearGradient19744">
      <stop
         id="stop19746"
         style="stop-color:#ffffff;stop-opacity:1"
         offset="0" />
      <stop
         id="stop19748"
         style="stop-color:#edd400;stop-opacity:1"
         offset="0.78597295" />
      <stop
         id="stop19750"
         style="stop-color:#ffffff;stop-opacity:1"
         offset="1" />
    </linearGradient>
    <linearGradient
       id="linearGradient14664">
      <stop
         id="stop14666"
         style="stop-color:#ffffff;stop-opacity:1"
         offset="0" />
      <stop
         id="stop14668"
         style="stop-color:#eeeeec;stop-opacity:1"
         offset="1" />
    </linearGradient>
    <linearGradient
       id="linearGradient12294">
      <stop
         id="stop12296"
         style="stop-color:#fef8c4;stop-opacity:1"
         offset="0" />
      <stop
         id="stop12298"
         style="stop-color:#edd400;stop-opacity:1"
         offset="1" />
    </linearGradient>
    <linearGradient
       id="linearGradient11853">
      <stop
         id="stop11855"
         style="stop-color:#ffffff;stop-opacity:1"
         offset="0" />
      <stop
         id="stop11857"
         style="stop-color:#ffffff;stop-opacity:0"
         offset="1" />
    </linearGradient>
    <linearGradient
       id="linearGradient8285">
      <stop
         id="stop8287"
         style="stop-color:#ff6c6c;stop-opacity:1"
         offset="0" />
      <stop
         id="stop8289"
         style="stop-color:#cc0000;stop-opacity:1"
         offset="1" />
    </linearGradient>
    <linearGradient
       id="linearGradient7499">
      <stop
         id="stop7501"
         style="stop-color:#fff5ac;stop-opacity:1"
         offset="0" />
      <stop
         id="stop7503"
         style="stop-color:#edd400;stop-opacity:1"
         offset="1" />
    </linearGradient>
    <linearGradient
       id="linearGradient7106">
      <stop
         id="stop7108"
         style="stop-color:#000000;stop-opacity:1"
         offset="0" />
      <stop
         id="stop7110"
         style="stop-color:#000000;stop-opacity:0"
         offset="1" />
    </linearGradient>
    <linearGradient
       id="linearGradient6328">
      <stop
         id="stop6330"
         style="stop-color:#ffffff;stop-opacity:1"
         offset="0" />
      <stop
         id="stop6332"
         style="stop-color:#ffffff;stop-opacity:0"
         offset="1" />
    </linearGradient>
    <linearGradient
       id="linearGradient5539">
      <stop
         id="stop5541"
         style="stop-color:#000000;stop-opacity:1"
         offset="0" />
      <stop
         id="stop5543"
         style="stop-color:#000000;stop-opacity:0"
         offset="1" />
    </linearGradient>
    <linearGradient
       id="linearGradient3570">
      <stop
         id="stop3572"
         style="stop-color:#ffffff;stop-opacity:1"
         offset="0" />
      <stop
         id="stop3574"
         style="stop-color:#fce94f;stop-opacity:1"
         offset="1" />
    </linearGradient>
    <linearGradient
       id="linearGradient2790">
      <stop
         id="stop2792"
         style="stop-color:#ffffff;stop-opacity:1"
         offset="0" />
      <stop
         id="stop2794"
         style="stop-color:#fce94f;stop-opacity:1"
         offset="1" />
    </linearGradient>
    <linearGradient
       id="linearGradient2188">
      <stop
         id="stop2190"
         style="stop-color:#c4a000;stop-opacity:1"
         offset="0" />
      <stop
         id="stop3626"
         style="stop-color:#edd400;stop-opacity:1"
         offset="0.20552924" />
      <stop
         id="stop2848"
         style="stop-color:#fce94f;stop-opacity:1"
         offset="0.5" />
      <stop
         id="stop2850"
         style="stop-color:#edd400;stop-opacity:1"
         offset="0.75" />
      <stop
         id="stop2192"
         style="stop-color:#c4a000;stop-opacity:1"
         offset="1" />
    </linearGradient>
    <radialGradient
       cx="23.078409"
       cy="12.74359"
       r="3.5"
       fx="23.078409"
       fy="12.74359"
       id="radialGradient3185"
       xlink:href="#linearGradient2790"
       gradientUnits="userSpaceOnUse"
       gradientTransform="matrix(5.8649264,-14.075821,-10.000003,-10.666666,103.63831,316.7792)" />
    <linearGradient
       x1="21"
       y1="37.6782"
       x2="42.230766"
       y2="54.179626"
       id="linearGradient4751"
       xlink:href="#linearGradient12294"
       gradientUnits="userSpaceOnUse"
       gradientTransform="matrix(12,0,0,6.7872917,-165.33334,-255.73293)" />
    <radialGradient
       cx="23.5"
       cy="19.5"
       r="14.5"
       fx="23.5"
       fy="19.5"
       id="radialGradient5545"
       xlink:href="#linearGradient5539"
       gradientUnits="userSpaceOnUse"
       gradientTransform="matrix(1.6551723,0,0,0.735632,86.436789,-126.34481)" />
    <radialGradient
       cx="21.624998"
       cy="16.749998"
       r="5.5"
       fx="21.624998"
       fy="16.749998"
       id="radialGradient5934"
       xlink:href="#linearGradient7499"
       gradientUnits="userSpaceOnUse"
       gradientTransform="matrix(3.7333338,0,0,-3.8787877,34.933336,-73.696962)" />
    <radialGradient
       cx="10.450585"
       cy="27.331398"
       r="7"
       fx="10.450585"
       fy="27.331398"
       id="radialGradient6717"
       xlink:href="#linearGradient6328"
       gradientUnits="userSpaceOnUse"
       gradientTransform="matrix(13.999998,14.636586,-2.3088315,11.717362,-26.537912,-554.33553)" />
    <radialGradient
       cx="24"
       cy="38.5"
       r="6"
       fx="24"
       fy="38.5"
       id="radialGradient7112"
       xlink:href="#linearGradient7106"
       gradientUnits="userSpaceOnUse"
       gradientTransform="matrix(15.555556,0,0,5.7777765,-248.00001,-209.11107)" />
    <radialGradient
       cx="23.5"
       cy="19.5"
       r="14.5"
       fx="23.5"
       fy="19.5"
       id="radialGradient7116"
       xlink:href="#linearGradient5539"
       gradientUnits="userSpaceOnUse"
       gradientTransform="matrix(2.9425285,0,0,1.2873563,58.850576,-17.103442)" />
    <radialGradient
       cx="22.999998"
       cy="28.5"
       r="3"
       fx="22.999998"
       fy="28.5"
       id="radialGradient11865"
       xlink:href="#linearGradient8285"
       gradientUnits="userSpaceOnUse"
       gradientTransform="matrix(3.1999989,0,0,6.2222229,1.0666852,-239.15563)" />
    <linearGradient
       x1="21"
       y1="26"
       x2="25"
       y2="31"
       id="linearGradient11867"
       xlink:href="#linearGradient11853"
       gradientUnits="userSpaceOnUse"
       gradientTransform="matrix(1.7777771,0,0,4.4444443,33.77778,-186.26671)" />
    <radialGradient
       cx="22.999998"
       cy="28.5"
       r="3"
       fx="22.999998"
       fy="28.5"
       id="radialGradient14259"
       xlink:href="#linearGradient8285"
       gradientUnits="userSpaceOnUse"
       gradientTransform="matrix(3.2,0,0,6.2222229,97.066661,-238.66669)" />
    <linearGradient
       x1="21"
       y1="26"
       x2="25"
       y2="31"
       id="linearGradient14261"
       xlink:href="#linearGradient11853"
       gradientUnits="userSpaceOnUse"
       gradientTransform="matrix(1.7777771,0,0,4.4444443,129.77778,-185.77777)" />
    <linearGradient
       x1="12"
       y1="14"
       x2="44.565216"
       y2="47.6875"
       id="linearGradient17109"
       xlink:href="#linearGradient3570"
       gradientUnits="userSpaceOnUse"
       gradientTransform="matrix(4.9066666,0,0,4.7407408,4.6223715e-6,-199.4074)" />
    <radialGradient
       cx="22.999998"
       cy="28.5"
       r="3"
       fx="22.999998"
       fy="28.5"
       id="radialGradient17172"
       xlink:href="#linearGradient8285"
       gradientUnits="userSpaceOnUse"
       gradientTransform="matrix(5.3333306,0,0,8.2962949,5.0855414e-5,-281.77775)" />
    <linearGradient
       x1="21"
       y1="26"
       x2="25"
       y2="31"
       id="linearGradient17174"
       xlink:href="#linearGradient11853"
       gradientUnits="userSpaceOnUse"
       gradientTransform="matrix(2.9629616,0,0,5.9259237,54.518544,-211.25921)" />
    <radialGradient
       cx="13.071457"
       cy="21.094482"
       r="15.5"
       fx="13.071457"
       fy="21.094482"
       id="radialGradient17706"
       xlink:href="#linearGradient2790"
       gradientUnits="userSpaceOnUse"
       gradientTransform="matrix(7.6190416,12.046227,-9.8827178,8.6225861,177.84974,-446.03407)" />
    <radialGradient
       cx="3.5"
       cy="16.969122"
       r="3.0477226"
       fx="3.5"
       fy="16.969122"
       id="radialGradient18099"
       xlink:href="#linearGradient14664"
       gradientUnits="userSpaceOnUse"
       gradientTransform="matrix(0.5290677,1.2697623,-1.3124555,0.7874732,23.91948,-1.0068978)" />
    <radialGradient
       cx="3.5"
       cy="16.969122"
       r="3.0477226"
       fx="3.5"
       fy="16.969122"
       id="radialGradient18124"
       xlink:href="#linearGradient14664"
       gradientUnits="userSpaceOnUse"
       gradientTransform="matrix(0.5290677,1.2697623,-1.3124555,0.7874732,23.91948,-1.0068978)" />
    <radialGradient
       cx="3.5"
       cy="16.969122"
       r="3.0477226"
       fx="3.5"
       fy="16.969122"
       id="radialGradient18126"
       xlink:href="#linearGradient14664"
       gradientUnits="userSpaceOnUse"
       gradientTransform="matrix(0.5290677,1.2697623,-1.3124555,0.7874732,23.91948,-1.0068978)" />
    <radialGradient
       cx="3.5"
       cy="16.969122"
       r="3.0477226"
       fx="3.5"
       fy="16.969122"
       id="radialGradient18128"
       xlink:href="#linearGradient14664"
       gradientUnits="userSpaceOnUse"
       gradientTransform="matrix(0.5290677,1.2697623,-1.3124555,0.7874732,23.91948,-1.0068978)" />
    <linearGradient
       x1="40.035717"
       y1="12.358853"
       x2="41.660713"
       y2="35.394569"
       id="linearGradient19742"
       xlink:href="#linearGradient19744"
       gradientUnits="userSpaceOnUse"
       gradientTransform="matrix(5.8a715e8a715e,0,0,5.8a715e8a715e,-1.291434e-7,-207.99999)" />
    <radialGradient
       cx="13.819342"
       cy="8.8798504"
       r="14.5"
       fx="13.819342"
       fy="8.8798504"
       id="radialGradient19774"
       xlink:href="#linearGradient3570"
       gradientUnits="userSpaceOnUse"
       gradientTransform="matrix(1.9024965,2.4521072,-3.016456,3.8878768,86.747307,-183.96581)" />
    <linearGradient
       x1="3"
       y1="27"
       x2="39"
       y2="28"
       id="linearGradient2846"
       xlink:href="#linearGradient2188"
       gradientUnits="userSpaceOnUse"
       gradientTransform="matrix(5.8a715e8a715e,0,0,5.8a715e8a715e,-1.291434e-7,-207.99999)" />
    <linearGradient
       x1="8"
       y1="39"
       x2="38"
       y2="39"
       id="linearGradient3233"
       xlink:href="#linearGradient3235"
       gradientUnits="userSpaceOnUse"
       gradientTransform="matrix(5.8a715e8a715e,0,0,5.8a715e8a715e,-1.291434e-7,-207.99999)" />
  </defs>
  <metadata
     id="metadata7">
    <rdf:RDF>
      <cc:Work
         rdf:about="">
        <dc:format>image/svg+xml</dc:format>
        <dc:type
           rdf:resource="http://purl.org/dc/dcmitype/StillImage" />
        <dc:title></dc:title>
        <dc:date>29-06-07</dc:date>
        <dc:creator>
          <cc:Agent>
            <dc:title>Sebastian Kraft</dc:title>
          </cc:Agent>
        </dc:creator>
        <dc:subject>
          <rdf:Bag>
            <rdf:li>application</rdf:li>
            <rdf:li>geany</rdf:li>
            <rdf:li>editor</rdf:li>
            <rdf:li>programming</rdf:li>
          </rdf:Bag>
        </dc:subject>
        <cc:license
           rdf:resource="http://www.gnu.org/copyleft/gpl.html" />
      </cc:Work>
    </rdf:RDF>
  </metadata>
  <g
     id="g994">
    <path
       style="fill:#f9c440;fill-opacity:1;stroke-width:11.10955811"
       inkscape:connector-curvature="0"
       d="M 432.91327,56.473965 C 535.10618,145.04855 538.74005,306.17367 441.03007,416.37275 343.3201,526.57182 181.27964,544.10063 79.086729,455.52601 -23.106186,366.95142 -26.740042,205.8263 70.969928,95.627225 168.6799,-14.571855 330.72036,-32.100625 432.91327,56.473965 Z"
       id="path27" />
    <path
       style="opacity:1;fill:#000000;fill-opacity:0.49019608;stroke-width:11.10955811"
       inkscape:connector-curvature="0"
       d="M 511.63551,224.90351 C 510.08412,286.21517 486.47428,349.05812 440.66913,400.71798 342.95915,510.91712 180.91869,528.44583 78.725776,439.87128 30.827124,398.35563 4.4968216,340.92283 0.19382774,280.2288 0.7990794,346.58547 27.117411,410.48217 79.078682,455.51906 181.27159,544.09362 343.31975,526.55623 441.02202,416.36576 490.72697,360.30765 514.02704,291.0748 511.63551,224.90351 Z"
       id="path51" />
    <path
       inkscape:connector-curvature="0"
       style="fill:#000000;fill-opacity:0.49019608;stroke:none;stroke-width:0.68982756"
       id="path956"
       d="m 388.79055,202.9488 c -23.5333,0 -39.21125,18.94556 -39.21125,42.47885 l 6.5352,13.07041 c -1e-5,-19.38034 6.22806,-35.94364 26.14083,-35.94364 19.91277,0 35.94366,15.54216 35.94366,34.92252 v 59.22532 c -2.47147,30.78151 -53.90449,26.98999 -77.93505,31.58895 -2.92544,4.28118 -6.05881,8.02875 -9.39437,11.43663 31.84784,-8.62947 97.02263,0.80498 100.39982,-42.4129 v -71.88729 c 0,-23.53329 -18.94556,-42.47885 -42.47884,-42.47885 z"
       sodipodi:nodetypes="sccssccccss" />
    <path
       style="color:#000000;display:inline;overflow:visible;visibility:visible;fill:#000000;fill-opacity:0.49019608;fill-rule:evenodd;stroke:none;stroke-width:3.67907906px;marker:none;enable-background:accumulate"
       d="m 317.82719,373.12214 c -17.95681,15.85054 -40.04077,19.66683 -58.72023,19.66683 -21.66345,-0.97477 -42.80639,-7.05794 -61.39195,-17.70783 -19.18723,5.98099 -31.25377,14.62915 -31.25377,24.24367 0,18.03717 42.45322,32.67519 94.76102,32.67519 52.30781,0 94.75967,-14.63802 94.75967,-32.67519 0,-10.72166 -15.00112,-20.24334 -38.15474,-26.20267 z"
       id="path958"
       inkscape:connector-curvature="0" />
    <path
       id="path960"
       d="M 238.53516 217.18945 C 198.76951 221.91652 169.12305 240.0292 169.12305 261.68359 C 169.12305 268.32494 168.12472 282.44153 169.85156 298.98633 C 154.89777 293.22404 153.70617 280.81652 152.50391 265.8418 C 149.70853 267.05064 146.3529 267.6875 142.70117 267.6875 C 139.4596 267.6875 136.45415 267.1821 133.86328 266.22461 C 140.2363 339.2085 197.58385 383.12233 259.10742 385.89062 C 283.94479 385.89062 314.80262 379.15069 333.9707 346.33203 C 353.1388 313.51338 349.08982 274.31062 349.08984 261.68359 C 349.08984 240.82063 321.56995 223.24686 283.99609 217.76172 C 284.05759 218.2497 284.0957 218.74283 284.0957 219.24219 C 284.0957 220.44124 283.90238 221.85053 283.55859 223.37695 C 313.38182 226.91487 334.82617 236.62861 334.82617 248.05469 C 334.82617 262.46771 300.71757 274.16602 258.69141 274.16602 C 216.66525 274.16602 182.55859 262.46771 182.55859 248.05469 C 182.55859 236.00575 206.4011 225.85956 238.77344 222.85352 C 238.50293 221.53044 238.34961 220.30251 238.34961 219.24219 C 238.34961 218.54639 238.41678 217.86244 238.53516 217.18945 z M 202.4043 287.26367 L 212.20898 306.86914 L 202.4043 326.47461 L 192.60156 306.86914 L 202.4043 287.26367 z M 320.03906 287.86328 L 329.8418 307.46875 L 320.03906 327.07422 L 310.23633 307.46875 L 320.03906 287.86328 z M 261.22266 300.93359 L 277.56055 327.07422 L 261.22266 353.21484 L 244.88281 327.07422 L 261.22266 300.93359 z "
       style="color:#000000;display:inline;overflow:visible;visibility:visible;fill:#000000;fill-opacity:0.49019608;fill-rule:evenodd;stroke:none;stroke-width:3.67907906px;marker:none;enable-background:accumulate" />
    <path
       inkscape:connector-curvature="0"
       style="color:#000000;display:inline;overflow:visible;visibility:visible;fill:#000000;fill-opacity:0.49019608;fill-rule:evenodd;stroke:none;stroke-width:3.67908049px;marker:none;enable-background:accumulate"
       id="path962"
       d="m 284.09512,219.24285 c 0,-9.0186 -10.24723,-16.33802 -22.87324,-16.33802 -12.62602,0 -22.87322,7.31942 -22.87322,16.33802 0,9.01858 10.2472,29.40844 22.87322,29.40844 12.62601,0 22.87324,-20.38986 22.87324,-29.40844 z" />
    <path
       style="color:#000000;font-style:normal;font-variant:normal;font-weight:normal;font-stretch:normal;font-size:medium;line-height:normal;font-family:sans-serif;font-variant-ligatures:normal;font-variant-position:normal;font-variant-caps:normal;font-variant-numeric:normal;font-variant-alternates:normal;font-feature-settings:normal;text-indent:0;text-align:start;text-decoration:none;text-decoration-line:none;text-decoration-style:solid;text-decoration-color:#000000;letter-spacing:normal;word-spacing:normal;text-transform:none;writing-mode:lr-tb;direction:ltr;text-orientation:mixed;dominant-baseline:auto;baseline-shift:baseline;text-anchor:start;white-space:normal;shape-padding:0;clip-rule:nonzero;display:inline;overflow:visible;visibility:visible;opacity:1;isolation:auto;mix-blend-mode:normal;color-interpolation:sRGB;color-interpolation-filters:linearRGB;solid-color:#000000;solid-opacity:1;vector-effect:none;fill:#000000;fill-opacity:0.49019608;fill-rule:evenodd;stroke:none;stroke-width:6.5352087px;stroke-linecap:butt;stroke-linejoin:miter;stroke-miterlimit:4;stroke-dasharray:none;stroke-dashoffset:0;stroke-opacity:1;marker:none;color-rendering:auto;image-rendering:auto;shape-rendering:auto;text-rendering:auto;enable-background:accumulate"
       d="m 131.75968,250.47295 c -2.86215,1.49343 -5.39602,3.93857 -5.39601,7.41162 0,3.57058 2.67456,6.06502 5.63448,7.54498 2.95992,1.47996 6.65232,2.25811 10.70311,2.25811 4.05078,0 7.74453,-0.77815 10.70445,-2.25811 2.95992,-1.47996 5.63449,-3.9744 5.63449,-7.54498 0,-3.38435 -2.40796,-5.78859 -5.1791,-7.2917 -2.45026,2.22873 -5.58134,3.71935 -9.04186,4.13088 2.29498,0.22247 4.29871,0.78115 5.66279,1.46319 1.77064,0.88532 2.02233,1.65892 2.02233,1.69763 0,0.0387 -0.25169,0.81365 -2.02233,1.69896 -1.77064,0.88532 -4.61296,1.56963 -7.78077,1.56963 -3.16781,0 -6.01013,-0.68431 -7.78077,-1.56963 -1.77065,-0.88531 -2.02233,-1.66026 -2.02233,-1.69896 0,-0.0387 0.25168,-0.81231 2.02233,-1.69763 1.40544,-0.70272 3.49165,-1.27161 5.87431,-1.47936 -3.46838,-0.44128 -6.59729,-1.96952 -9.03512,-4.23463 z"
       id="path964"
       inkscape:connector-curvature="0" />
    <path
       inkscape:connector-curvature="0"
       style="color:#000000;display:inline;overflow:visible;visibility:visible;fill:#000000;fill-opacity:0.49019608;stroke:none;stroke-width:3.67908001px;marker:none;enable-background:accumulate"
       id="path966"
       d="m 159.21125,120 c -18.03717,0 -32.67604,14.63887 -32.67604,32.67605 0,4.60923 1.13486,8.88836 2.85915,12.86619 C 123.71399,170.33864 120,177.3411 120,185.35209 c 0,9.82279 5.46176,18.2025 13.47886,22.66901 -0.21082,1.15133 -0.40844,2.25987 -0.40844,3.47182 0,3.09264 0.76511,5.97523 2.04225,8.57746 -5.09284,2.76774 -8.57746,8.09548 -8.57746,14.29578 0,9.01858 7.31943,16.33801 16.33802,16.33801 9.01859,0 16.33802,-7.31943 16.33802,-16.33801 0,-1.49687 -0.2351,-2.91119 -0.61267,-4.28874 7.88433,-2.53998 13.68308,-9.85901 13.68308,-18.5845 0,-4.52786 -1.50349,-8.72917 -4.0845,-12.04928 2.57713,-4.04991 4.0845,-8.9389 4.0845,-14.09155 0,-0.9058 -0.31837,-1.77278 -0.40844,-2.65493 11.72661,-4.96267 20.01407,-16.49323 20.01407,-30.02111 C 191.88729,134.63887 177.24842,120 159.21125,120 Z" />
    <g
       style="fill:#ffffff"
       transform="translate(713.24063,-56.97656)"
       id="g954">
      <path
         inkscape:connector-curvature="0"
         style="fill:#ffffff;fill-opacity:1;stroke:none;stroke-width:0.68982756"
         id="rect19335"
         d="m -344.45008,239.92536 c -23.5333,0 -39.21125,18.94556 -39.21125,42.47885 l 6.5352,13.07041 c -1e-5,-19.38034 6.22806,-35.94364 26.14083,-35.94364 19.91277,0 35.94366,15.54216 35.94366,34.92252 v 59.22532 c -2.47147,30.78151 -53.90449,26.98999 -77.93505,31.58895 -2.92544,4.28118 -6.05881,8.02875 -9.39437,11.43663 31.84784,-8.62947 97.02263,0.80498 100.39982,-42.4129 v -71.88729 c 0,-23.53329 -18.94556,-42.47885 -42.47884,-42.47885 z"
         sodipodi:nodetypes="sccssccccss" />
      <path
         style="color:#000000;display:inline;overflow:visible;visibility:visible;fill:#ffffff;fill-opacity:1;fill-rule:evenodd;stroke:none;stroke-width:3.67907906px;marker:none;enable-background:accumulate"
         d="m -415.41344,410.0987 c -17.95681,15.85054 -40.04077,19.66683 -58.72023,19.66683 -21.66345,-0.97477 -42.80639,-7.05794 -61.39195,-17.70783 -19.18723,5.98099 -31.25377,14.62915 -31.25377,24.24367 0,18.03717 42.45322,32.67519 94.76102,32.67519 52.30781,0 94.75967,-14.63802 94.75967,-32.67519 0,-10.72166 -15.00112,-20.24334 -38.15474,-26.20267 z"
         id="path3580"
         inkscape:connector-curvature="0" />
      <path
         style="color:#000000;display:inline;overflow:visible;visibility:visible;fill:#ffffff;fill-opacity:1;fill-rule:evenodd;stroke:none;stroke-width:3.67907906px;marker:none;enable-background:accumulate"
         d="m -474.13367,252.9514 c -49.67475,0 -89.98342,20.45374 -89.98342,45.70781 0,6.64135 -0.99929,20.75844 0.72755,37.30324 -14.95379,-5.76229 -16.14447,-18.16934 -17.34673,-33.14406 -2.79538,1.20884 -6.15137,1.84583 -9.8031,1.84583 -3.24157,0 -6.2462,-0.5057 -8.83707,-1.46319 6.37302,72.98389 63.7192,116.89792 125.24277,119.66622 24.83737,0 55.69573,-6.73999 74.86381,-39.55865 19.1681,-32.81865 15.1196,-72.02236 15.11962,-84.64939 0,-25.25407 -40.30869,-45.70781 -89.98343,-45.70781 z m -0.41497,5.96863 c 42.02616,0 76.13433,11.69802 76.13433,26.11105 0,14.41302 -34.10817,26.11105 -76.13433,26.11105 -42.02616,0 -76.13433,-11.69803 -76.13433,-26.11105 0,-14.41303 34.10817,-26.11105 76.13433,-26.11105 z m -56.28696,65.3194 9.80309,19.60618 -9.80309,19.6062 -9.8031,-19.6062 z m 117.63311,0.59955 9.80309,19.60619 -9.80309,19.60485 -9.80175,-19.60485 z m -58.81588,13.07034 16.33759,26.1407 -16.33759,26.14069 -16.33895,-26.14069 z"
         id="path2196"
         inkscape:connector-curvature="0" />
      <path
         inkscape:connector-curvature="0"
         style="color:#000000;display:inline;overflow:visible;visibility:visible;fill:#ffffff;fill-opacity:1;fill-rule:evenodd;stroke:none;stroke-width:3.67908049px;marker:none;enable-background:accumulate"
         id="path2201"
         d="m -449.14551,256.21941 c 0,-9.0186 -10.24723,-16.33802 -22.87324,-16.33802 -12.62602,0 -22.87322,7.31942 -22.87322,16.33802 0,9.01858 10.2472,29.40844 22.87322,29.40844 12.62601,0 22.87324,-20.38986 22.87324,-29.40844 z" />
      <path
         style="color:#000000;font-style:normal;font-variant:normal;font-weight:normal;font-stretch:normal;font-size:medium;line-height:normal;font-family:sans-serif;font-variant-ligatures:normal;font-variant-position:normal;font-variant-caps:normal;font-variant-numeric:normal;font-variant-alternates:normal;font-feature-settings:normal;text-indent:0;text-align:start;text-decoration:none;text-decoration-line:none;text-decoration-style:solid;text-decoration-color:#000000;letter-spacing:normal;word-spacing:normal;text-transform:none;writing-mode:lr-tb;direction:ltr;text-orientation:mixed;dominant-baseline:auto;baseline-shift:baseline;text-anchor:start;white-space:normal;shape-padding:0;clip-rule:nonzero;display:inline;overflow:visible;visibility:visible;opacity:1;isolation:auto;mix-blend-mode:normal;color-interpolation:sRGB;color-interpolation-filters:linearRGB;solid-color:#000000;solid-opacity:1;vector-effect:none;fill:#ffffff;fill-opacity:1;fill-rule:evenodd;stroke:none;stroke-width:6.5352087px;stroke-linecap:butt;stroke-linejoin:miter;stroke-miterlimit:4;stroke-dasharray:none;stroke-dashoffset:0;stroke-opacity:1;marker:none;color-rendering:auto;image-rendering:auto;shape-rendering:auto;text-rendering:auto;enable-background:accumulate"
         d="m -601.48095,287.44951 c -2.86215,1.49343 -5.39602,3.93857 -5.39601,7.41162 0,3.57058 2.67456,6.06502 5.63448,7.54498 2.95992,1.47996 6.65232,2.25811 10.70311,2.25811 4.05078,0 7.74453,-0.77815 10.70445,-2.25811 2.95992,-1.47996 5.63449,-3.9744 5.63449,-7.54498 0,-3.38435 -2.40796,-5.78859 -5.1791,-7.2917 -2.45026,2.22873 -5.58134,3.71935 -9.04186,4.13088 2.29498,0.22247 4.29871,0.78115 5.66279,1.46319 1.77064,0.88532 2.02233,1.65892 2.02233,1.69763 0,0.0387 -0.25169,0.81365 -2.02233,1.69896 -1.77064,0.88532 -4.61296,1.56963 -7.78077,1.56963 -3.16781,0 -6.01013,-0.68431 -7.78077,-1.56963 -1.77065,-0.88531 -2.02233,-1.66026 -2.02233,-1.69896 0,-0.0387 0.25168,-0.81231 2.02233,-1.69763 1.40544,-0.70272 3.49165,-1.27161 5.87431,-1.47936 -3.46838,-0.44128 -6.59729,-1.96952 -9.03512,-4.23463 z"
         id="path17203"
         inkscape:connector-curvature="0" />
      <path
         inkscape:connector-curvature="0"
         style="color:#000000;display:inline;overflow:visible;visibility:visible;fill:#ffffff;stroke:none;stroke-width:3.67908001px;marker:none;enable-background:accumulate"
         id="path18113"
         d="m -574.02938,156.97656 c -18.03717,0 -32.67604,14.63887 -32.67604,32.67605 0,4.60923 1.13486,8.88836 2.85915,12.86619 -5.68037,4.7964 -9.39436,11.79886 -9.39436,19.80985 0,9.82279 5.46176,18.2025 13.47886,22.66901 -0.21082,1.15133 -0.40844,2.25987 -0.40844,3.47182 0,3.09264 0.76511,5.97523 2.04225,8.57746 -5.09284,2.76774 -8.57746,8.09548 -8.57746,14.29578 0,9.01858 7.31943,16.33801 16.33802,16.33801 9.01859,0 16.33802,-7.31943 16.33802,-16.33801 0,-1.49687 -0.2351,-2.91119 -0.61267,-4.28874 7.88433,-2.53998 13.68308,-9.85901 13.68308,-18.5845 0,-4.52786 -1.50349,-8.72917 -4.0845,-12.04928 2.57713,-4.04991 4.0845,-8.9389 4.0845,-14.09155 0,-0.9058 -0.31837,-1.77278 -0.40844,-2.65493 11.72661,-4.96267 20.01407,-16.49323 20.01407,-30.02111 0,-18.03718 -14.63887,-32.67605 -32.67604,-32.67605 z" />
    </g>
  </g>
</svg>
