<?xml version="1.0" encoding="UTF-8" standalone="no"?>
<!-- Created with Inkscape (http://www.inkscape.org/) -->

<svg
   xmlns:dc="http://purl.org/dc/elements/1.1/"
   xmlns:cc="http://creativecommons.org/ns#"
   xmlns:rdf="http://www.w3.org/1999/02/22-rdf-syntax-ns#"
   xmlns:svg="http://www.w3.org/2000/svg"
   xmlns="http://www.w3.org/2000/svg"
   xmlns:xlink="http://www.w3.org/1999/xlink"
   xmlns:sodipodi="http://sodipodi.sourceforge.net/DTD/sodipodi-0.dtd"
   xmlns:inkscape="http://www.inkscape.org/namespaces/inkscape"
   version="1.0"
   width="512"
   height="512"
   id="svg11300"
   inkscape:version="0.92.3 (2405546, 2018-03-11)"
   sodipodi:docname="gimp2.svg">
  <metadata
     id="metadata82">
    <rdf:RDF>
      <cc:Work
         rdf:about="">
        <dc:format>image/svg+xml</dc:format>
        <dc:type
           rdf:resource="http://purl.org/dc/dcmitype/StillImage" />
        <dc:title></dc:title>
      </cc:Work>
    </rdf:RDF>
  </metadata>
  <sodipodi:namedview
     pagecolor="#ffffff"
     bordercolor="#666666"
     borderopacity="1"
     objecttolerance="10"
     gridtolerance="10"
     guidetolerance="10"
     inkscape:pageopacity="0"
     inkscape:pageshadow="2"
     inkscape:window-width="1366"
     inkscape:window-height="720"
     id="namedview80"
     showgrid="false"
     inkscape:zoom="0.61458333"
     inkscape:cx="325.87523"
     inkscape:cy="198.16752"
     inkscape:window-x="0"
     inkscape:window-y="23"
     inkscape:window-maximized="1"
     inkscape:current-layer="svg11300" />
  <defs
     id="defs3">
    <linearGradient
       id="linearGradient8542">
      <stop
         style="stop-color:#5b676b;stop-opacity:1"
         offset="0"
         id="stop8544" />
      <stop
         style="stop-color:#141718;stop-opacity:1"
         offset="1"
         id="stop8546" />
    </linearGradient>
    <linearGradient
       id="linearGradient8534">
      <stop
         style="stop-color:black;stop-opacity:1"
         offset="0"
         id="stop8536" />
      <stop
         style="stop-color:black;stop-opacity:0"
         offset="1"
         id="stop8538" />
    </linearGradient>
    <linearGradient
       id="linearGradient8524">
      <stop
         style="stop-color:white;stop-opacity:1"
         offset="0"
         id="stop8526" />
      <stop
         style="stop-color:white;stop-opacity:0"
         offset="1"
         id="stop8528" />
    </linearGradient>
    <linearGradient
       id="linearGradient2446">
      <stop
         style="stop-color:white;stop-opacity:1"
         offset="0"
         id="stop2448" />
      <stop
         style="stop-color:white;stop-opacity:0"
         offset="1"
         id="stop2450" />
    </linearGradient>
    <linearGradient
       x1="13.236155"
       y1="37.752247"
       x2="7.7521091"
       y2="42.282146"
       id="linearGradient2452"
       xlink:href="#linearGradient2446"
       gradientUnits="userSpaceOnUse"
       gradientTransform="matrix(0.755165,0.395143,-0.395143,0.755165,-25.91245,6.532586)" />
    <linearGradient
       id="linearGradient6963">
      <stop
         style="stop-color:#696969;stop-opacity:1"
         offset="0"
         id="stop6965" />
      <stop
         style="stop-color:black;stop-opacity:1"
         offset="1"
         id="stop6967" />
    </linearGradient>
    <radialGradient
       cx="15.415101"
       cy="35.356506"
       r="7.5791559"
       fx="15.415101"
       fy="35.356506"
       id="radialGradient6969"
       xlink:href="#linearGradient6963"
       gradientUnits="userSpaceOnUse"
       gradientTransform="matrix(1.572694,0,0,1.532639,-55.36682,-21.35823)" />
    <linearGradient
       id="linearGradient6939">
      <stop
         style="stop-color:#bdbdbd;stop-opacity:1"
         offset="0"
         id="stop6941" />
      <stop
         style="stop-color:#e2e2e2;stop-opacity:1"
         offset="0.33333334"
         id="stop6947" />
      <stop
         style="stop-color:#a3a3a3;stop-opacity:1"
         offset="0.66666669"
         id="stop6949" />
      <stop
         style="stop-color:#ddd;stop-opacity:1"
         offset="1"
         id="stop6943" />
    </linearGradient>
    <linearGradient
       x1="19.394735"
       y1="30.001331"
       x2="23.109331"
       y2="33.438831"
       id="linearGradient6945"
       xlink:href="#linearGradient6939"
       gradientUnits="userSpaceOnUse"
       gradientTransform="translate(-46.40695,-1.802856)" />
    <linearGradient
       id="linearGradient6951">
      <stop
         style="stop-color:#6e3d09;stop-opacity:1"
         offset="0"
         id="stop6953" />
      <stop
         style="stop-color:#ea8113;stop-opacity:1"
         offset="0.24242425"
         id="stop6959" />
      <stop
         style="stop-color:#5c3307;stop-opacity:1"
         offset="0.62121212"
         id="stop6961" />
      <stop
         style="stop-color:#e07c12;stop-opacity:1"
         offset="1"
         id="stop6955" />
    </linearGradient>
    <linearGradient
       x1="37.017639"
       y1="19.239889"
       x2="27.753893"
       y2="11.182488"
       id="linearGradient6957"
       xlink:href="#linearGradient6951"
       gradientUnits="userSpaceOnUse"
       gradientTransform="translate(-49.30496,1.877723)" />
    <linearGradient
       id="linearGradient6500">
      <stop
         style="stop-color:#857c63;stop-opacity:1"
         offset="0"
         id="stop6502" />
      <stop
         style="stop-color:#221f19;stop-opacity:1"
         offset="1"
         id="stop6504" />
    </linearGradient>
    <linearGradient
       id="linearGradient6492">
      <stop
         style="stop-color:black;stop-opacity:1"
         offset="0"
         id="stop6494" />
      <stop
         style="stop-color:black;stop-opacity:0"
         offset="1"
         id="stop6496" />
    </linearGradient>
    <linearGradient
       id="linearGradient6482">
      <stop
         style="stop-color:black;stop-opacity:1"
         offset="0"
         id="stop6484" />
      <stop
         style="stop-color:black;stop-opacity:0"
         offset="1"
         id="stop6486" />
    </linearGradient>
    <linearGradient
       id="linearGradient6468">
      <stop
         style="stop-color:white;stop-opacity:1"
         offset="0"
         id="stop6470" />
      <stop
         style="stop-color:#b9b9b0;stop-opacity:1"
         offset="1"
         id="stop6472" />
    </linearGradient>
    <linearGradient
       id="linearGradient6452">
      <stop
         style="stop-color:white;stop-opacity:1"
         offset="0"
         id="stop6454" />
      <stop
         style="stop-color:white;stop-opacity:0"
         offset="1"
         id="stop6456" />
    </linearGradient>
    <linearGradient
       x1="6.3051529"
       y1="23.362427"
       x2="5.9846287"
       y2="31.57"
       id="linearGradient6458"
       xlink:href="#linearGradient6452"
       gradientUnits="userSpaceOnUse" />
    <radialGradient
       cx="69.473244"
       cy="19.597878"
       r="3.5153139"
       fx="69.473244"
       fy="19.597878"
       id="radialGradient6474"
       xlink:href="#linearGradient6468"
       gradientUnits="userSpaceOnUse"
       gradientTransform="matrix(1.318488,0,0,1.318488,-22.1264,-6.241691)" />
    <radialGradient
       cx="23"
       cy="33.9375"
       r="18.25"
       fx="23"
       fy="33.9375"
       id="radialGradient6498"
       xlink:href="#linearGradient6492"
       gradientUnits="userSpaceOnUse"
       gradientTransform="matrix(1,0,0,0.284247,0,24.29088)" />
    <linearGradient
       x1="14.96875"
       y1="19.110678"
       x2="39.524544"
       y2="46.98568"
       id="linearGradient8530"
       xlink:href="#linearGradient8524"
       gradientUnits="userSpaceOnUse" />
    <radialGradient
       cx="6.0242186"
       cy="25.271027"
       r="4.8310289"
       fx="6.0242186"
       fy="25.271027"
       id="radialGradient8548"
       xlink:href="#linearGradient8542"
       gradientUnits="userSpaceOnUse"
       gradientTransform="matrix(0.916159,0.09318684,-0.108765,1.069309,3.253668,-3.029272)" />
    <linearGradient
       x1="26.162951"
       y1="30.543303"
       x2="24.328892"
       y2="30.985245"
       id="linearGradient4330"
       xlink:href="#linearGradient8534"
       gradientUnits="userSpaceOnUse" />
    <linearGradient
       x1="32.350136"
       y1="28.083355"
       x2="21.213203"
       y2="30.293064"
       id="linearGradient4351"
       xlink:href="#linearGradient6482"
       gradientUnits="userSpaceOnUse"
       gradientTransform="translate(-3.836549,0.345971)" />
    <radialGradient
       cx="18.557627"
       cy="22.300018"
       r="19.2292"
       fx="18.557627"
       fy="22.300018"
       id="radialGradient4354"
       xlink:href="#linearGradient6500"
       gradientUnits="userSpaceOnUse"
       gradientTransform="matrix(1.77275,0,0,1.29668,-16.3404,-6.615959)" />
    <radialGradient
       cx="69.473244"
       cy="19.597878"
       r="3.5153139"
       fx="69.473244"
       fy="19.597878"
       id="radialGradient4363"
       xlink:href="#linearGradient6468"
       gradientUnits="userSpaceOnUse"
       gradientTransform="matrix(1.318488,0,0,1.318488,-22.1264,-6.241691)" />
    <linearGradient
       inkscape:collect="always"
       xlink:href="#linearGradient8534"
       id="linearGradient3060"
       gradientUnits="userSpaceOnUse"
       x1="26.162951"
       y1="30.543303"
       x2="24.328892"
       y2="30.985245"
       gradientTransform="translate(5.8246423,-1.0786375)" />
    <linearGradient
       inkscape:collect="always"
       xlink:href="#linearGradient6452"
       id="linearGradient3078"
       gradientUnits="userSpaceOnUse"
       x1="6.3051529"
       y1="23.362427"
       x2="5.9846287"
       y2="31.57"
       gradientTransform="rotate(-36.832736,13.292436,29.905396)" />
    <radialGradient
       inkscape:collect="always"
       xlink:href="#linearGradient8542"
       id="radialGradient3082"
       gradientUnits="userSpaceOnUse"
       gradientTransform="matrix(0.79751102,-0.46044319,0.53741287,0.93082752,-13.91157,2.5868096)"
       cx="6.0242186"
       cy="25.271027"
       fx="6.0242186"
       fy="25.271027"
       r="4.8310289" />
    <linearGradient
       inkscape:collect="always"
       xlink:href="#linearGradient8524"
       id="linearGradient3088"
       gradientUnits="userSpaceOnUse"
       x1="14.96875"
       y1="19.110678"
       x2="39.524544"
       y2="46.98568"
       gradientTransform="translate(5.9684606,0.57527331)" />
    <radialGradient
       inkscape:collect="always"
       xlink:href="#linearGradient6492"
       id="radialGradient3097"
       gradientUnits="userSpaceOnUse"
       gradientTransform="matrix(1,0,0,0.43493202,-7.0659164,100.01636)"
       cx="23"
       cy="33.9375"
       fx="23"
       fy="33.9375"
       r="18.25" />
    <linearGradient
       inkscape:collect="always"
       xlink:href="#linearGradient6951"
       id="linearGradient3867"
       gradientUnits="userSpaceOnUse"
       gradientTransform="translate(-49.30496,1.877723)"
       x1="37.017639"
       y1="19.239889"
       x2="27.753893"
       y2="11.182488" />
    <linearGradient
       inkscape:collect="always"
       xlink:href="#linearGradient6939"
       id="linearGradient3869"
       gradientUnits="userSpaceOnUse"
       gradientTransform="translate(-46.40695,-1.802856)"
       x1="19.394735"
       y1="30.001331"
       x2="23.109331"
       y2="33.438831" />
    <radialGradient
       inkscape:collect="always"
       xlink:href="#linearGradient6963"
       id="radialGradient3871"
       gradientUnits="userSpaceOnUse"
       gradientTransform="matrix(1.572694,0,0,1.532639,-55.36682,-21.35823)"
       cx="15.415101"
       cy="35.356506"
       fx="15.415101"
       fy="35.356506"
       r="7.5791559" />
    <linearGradient
       inkscape:collect="always"
       xlink:href="#linearGradient2446"
       id="linearGradient3873"
       gradientUnits="userSpaceOnUse"
       gradientTransform="matrix(0.755165,0.395143,-0.395143,0.755165,-25.91245,6.532586)"
       x1="13.236155"
       y1="37.752247"
       x2="7.7521091"
       y2="42.282146" />
    <linearGradient
       inkscape:collect="always"
       xlink:href="#linearGradient2446"
       id="linearGradient3876"
       gradientUnits="userSpaceOnUse"
       gradientTransform="matrix(0.06731982,-0.33979461,0.33979461,0.06731982,30.237987,39.041471)"
       x1="13.236155"
       y1="37.752247"
       x2="7.7521091"
       y2="42.282146" />
    <linearGradient
       inkscape:collect="always"
       xlink:href="#linearGradient6939"
       id="linearGradient3885"
       gradientUnits="userSpaceOnUse"
       gradientTransform="matrix(-0.114852,-0.389864,0.389864,-0.114852,29.342132,47.988881)"
       x1="19.394735"
       y1="30.001331"
       x2="23.109331"
       y2="33.438831" />
  </defs>
  <g
     transform="translate(-7.3296832e-8,2e-5)"
     id="g992">
    <path
       id="path955"
       d="m 432.91324,56.47396 c 102.19291,88.57459 105.82677,249.69971 8.1168,359.89879 C 343.32009,526.5718 181.27965,544.1006 79.086741,455.526 -23.106205,366.95142 -26.740032,205.8263 70.969941,95.62722 168.67991,-14.57186 330.72036,-32.10063 432.91324,56.47396 Z"
       inkscape:connector-curvature="0"
       style="fill:#8a715e;fill-opacity:1;stroke-width:11.10955811" />
    <path
       id="path959"
       d="M 511.63547,224.90351 C 510.08409,286.21515 486.47425,349.05811 440.6691,400.71798 342.95915,510.9171 180.9187,528.4458 78.725758,439.87128 30.827124,398.35563 4.4968188,340.92283 0.19382686,280.2288 0.79907986,346.58547 27.117405,410.48217 79.078691,455.5191 181.2716,544.0936 343.31975,526.5562 441.02199,416.36576 490.72694,360.30765 514.02701,291.07479 511.63547,224.90351 Z"
       inkscape:connector-curvature="0"
       style="opacity:1;fill:#000000;fill-opacity:0.49019608;stroke-width:11.10955811" />
    <g
       style="fill:#000000;fill-opacity:0.49019608"
       id="g939"
       transform="matrix(1.0903589,0,0,1.0903589,-16.40155,-562.72243)">
      <path
         inkscape:connector-curvature="0"
         id="path925"
         d="m 364.74955,643.55773 c -1.24542,-0.1923 -2.6741,1.24308 -3.80273,4.62891 -1.98344,5.95035 -14.4139,42.90872 -78.44336,53.31836 a 30.472431,30.472431 0 0 1 14.11328,25.68554 30.472655,30.472655 0 0 1 -60.09766,7.09571 25.958002,25.958002 0 0 1 -47.91015,0.0781 c -0.24808,0.435 -0.51732,0.87314 -0.80274,1.3125 a 38.93703,27.650934 54.192151 0 1 -7.38867,49.34766 c 34.37289,25.37743 96.81529,47.64743 140.6211,23.69726 -16.14384,-8.97255 -29.17969,-18.30468 -29.17969,-18.30468 -0.68243,-0.57554 -1.21092,-1.19629 -1.6211,-1.82618 -14.89647,4.09065 -37.0286,0.77993 -64.33984,-8.86328 43.02366,8.60512 64.93291,0.62601 77.75586,-9.27539 -3.38583,-4.37336 -9.16992,-9.16992 -9.16992,-9.16992 0,0 15.02391,4.17499 20.31445,11.00391 4.81493,6.21508 2.47731,10.26297 0.98242,17.54492 6.14466,2.27435 13.11248,5.06661 20.05078,8.27148 25.47996,-23.43195 40.46917,-69.12469 31.625,-149.40234 -0.39924,-3.12931 -1.4616,-4.95028 -2.70703,-5.14258 z m -173.09375,23.81641 -1.00195,43.07226 a 25.958002,25.958002 0 0 1 46.77734,6.67188 30.472431,30.472431 0 0 1 8.97266,-13.11524 c -38.26355,-2.6492 -54.74805,-36.6289 -54.74805,-36.6289 z m 114.13477,111.0664 c -1.67329,2.3131 -3.7194,4.26665 -6.09766,5.89063 3.12469,0.97397 8.05789,2.56965 14.32422,4.84961 -3.16147,-5.59503 -7.55386,-8.10691 -8.22656,-10.74024 z"
         style="color:#000000;display:inline;overflow:visible;visibility:visible;fill:#000000;fill-opacity:0.49019608;fill-rule:evenodd;stroke:none;stroke-width:6.38437176;stroke-linecap:butt;stroke-linejoin:miter;stroke-miterlimit:10;stroke-dasharray:none;stroke-dashoffset:0;stroke-opacity:1;marker:none" />
      <path
         inkscape:connector-curvature="0"
         id="path927"
         d="m 218.72026,712.66125 a 15.6905,15.657429 0 0 0 -6.66211,1.30273 8.652658,8.652658 0 0 1 10.39258,8.48242 8.652658,8.652658 0 1 1 -17.30469,0 8.652658,8.652658 0 0 1 0.97851,-3.99804 15.6905,15.657429 0 0 0 -3.52148,9.89648 15.691405,15.658332 0 1 0 31.38281,0 15.6905,15.657429 0 0 0 -15.26562,-15.68359 z"
         style="color:#000000;display:inline;overflow:visible;visibility:visible;fill:#000000;fill-opacity:0.49019608;fill-rule:evenodd;stroke:none;stroke-width:8.00656223;stroke-linecap:butt;stroke-linejoin:miter;stroke-miterlimit:10;stroke-dasharray:none;stroke-dashoffset:0;stroke-opacity:1;marker:none" />
      <path
         inkscape:connector-curvature="0"
         id="path929"
         d="m 272.6558,713.54015 a 17.864,17.863999 0 0 0 -8.24023,1.76368 10.157477,10.157477 0 0 1 13.36914,9.6289 10.158205,10.158205 0 1 1 -20.31641,0 10.157477,10.157477 0 0 1 2.26758,-6.39258 17.864,17.863999 0 0 0 -5.46484,12.85742 17.864255,17.864254 0 1 0 35.72851,0 17.864,17.863999 0 0 0 -17.34375,-17.85742 z"
         style="color:#000000;display:inline;overflow:visible;visibility:visible;fill:#000000;fill-opacity:0.49019608;fill-rule:evenodd;stroke:none;stroke-width:7.77337503;stroke-linecap:butt;stroke-linejoin:miter;stroke-miterlimit:10;stroke-dasharray:none;stroke-dashoffset:0;stroke-opacity:1;marker:none" />
      <path
         id="path931"
         transform="translate(0,540.36218)"
         d="m 335.50977,258.13867 c -0.93858,0.7696 -3.0573,2.51191 -6.45704,5.37305 -2.62612,2.21009 -5.55774,3.82136 -7.54882,4.81055 9.3975,5.16359 19.80771,10.11949 29.11914,12.79687 l 5.60937,-11.17383 c -5.91689,-4.3288 -13.25396,-8.30477 -20.72265,-11.80664 z"
         style="color:#000000;display:inline;overflow:visible;visibility:visible;fill:#000000;fill-opacity:0.49019608;fill-rule:nonzero;stroke:none;stroke-width:6.05589819;stroke-linecap:round;stroke-linejoin:miter;stroke-miterlimit:4;stroke-dasharray:none;stroke-dashoffset:0;stroke-opacity:1;marker:none"
         inkscape:connector-curvature="0" />
      <path
         inkscape:connector-curvature="0"
         id="path933"
         style="color:#000000;display:inline;overflow:visible;visibility:visible;fill:#000000;fill-opacity:0.49019608;fill-rule:nonzero;stroke:none;stroke-width:6.05589819;stroke-linecap:round;stroke-linejoin:miter;stroke-miterlimit:4;stroke-dasharray:none;stroke-dashoffset:0;stroke-opacity:1;marker:none"
         d="m 377.37893,831.77879 3.00331,-6.64854 -23.30036,-14.92718 -1.85776,-0.15867 -0.80326,-2.5715 c -3.38476,2.11974 -8.3033,9.99368 -6.99923,14.42053 l 2.51659,-0.95186 1.36325,1.31752 26.07746,9.5196 z" />
      <path
         inkscape:connector-curvature="0"
         id="path935"
         style="color:#000000;display:inline;overflow:visible;visibility:visible;fill:#000000;fill-opacity:0.49019608;fill-rule:nonzero;stroke:none;stroke-width:1.2111789;marker:none"
         d="m 411.24217,860.01263 c -7.26411,-24.65796 -9.84053,-44.23632 -28.824,-42.49416 -15.2981,1.40399 -16.36909,23.32365 -0.56077,29.37232 15.22832,5.82673 29.38477,13.12184 29.38477,13.12184 z" />
      <path
         inkscape:connector-curvature="0"
         id="path937"
         style="color:#000000;display:inline;overflow:visible;visibility:visible;fill:#000000;fill-opacity:0.49019608;fill-rule:evenodd;stroke:none;stroke-width:6.38437462;stroke-linecap:butt;stroke-linejoin:miter;stroke-miterlimit:10;stroke-dasharray:none;stroke-dashoffset:0;stroke-opacity:1;marker:none"
         d="m 181.77782,732.08848 a 38.93703,27.650934 54.192151 1 1 -44.84888,32.35543 38.93703,27.650934 54.192151 0 1 44.84888,-32.35543 z" />
    </g>
    <g
       transform="matrix(1.0903589,0,0,1.0903589,-38.910025,-585.2309)"
       id="g923">
      <path
         style="color:#000000;display:inline;overflow:visible;visibility:visible;fill:#ffffff;fill-opacity:1;fill-rule:evenodd;stroke:none;stroke-width:6.38437176;stroke-linecap:butt;stroke-linejoin:miter;stroke-miterlimit:10;stroke-dasharray:none;stroke-dashoffset:0;stroke-opacity:1;marker:none"
         d="m 364.74955,643.55773 c -1.24542,-0.1923 -2.6741,1.24308 -3.80273,4.62891 -1.98344,5.95035 -14.4139,42.90872 -78.44336,53.31836 a 30.472431,30.472431 0 0 1 14.11328,25.68554 30.472655,30.472655 0 0 1 -60.09766,7.09571 25.958002,25.958002 0 0 1 -47.91015,0.0781 c -0.24808,0.435 -0.51732,0.87314 -0.80274,1.3125 a 38.93703,27.650934 54.192151 0 1 -7.38867,49.34766 c 34.37289,25.37743 96.81529,47.64743 140.6211,23.69726 -16.14384,-8.97255 -29.17969,-18.30468 -29.17969,-18.30468 -0.68243,-0.57554 -1.21092,-1.19629 -1.6211,-1.82618 -14.89647,4.09065 -37.0286,0.77993 -64.33984,-8.86328 43.02366,8.60512 64.93291,0.62601 77.75586,-9.27539 -3.38583,-4.37336 -9.16992,-9.16992 -9.16992,-9.16992 0,0 15.02391,4.17499 20.31445,11.00391 4.81493,6.21508 2.47731,10.26297 0.98242,17.54492 6.14466,2.27435 13.11248,5.06661 20.05078,8.27148 25.47996,-23.43195 40.46917,-69.12469 31.625,-149.40234 -0.39924,-3.12931 -1.4616,-4.95028 -2.70703,-5.14258 z m -173.09375,23.81641 -1.00195,43.07226 a 25.958002,25.958002 0 0 1 46.77734,6.67188 30.472431,30.472431 0 0 1 8.97266,-13.11524 c -38.26355,-2.6492 -54.74805,-36.6289 -54.74805,-36.6289 z m 114.13477,111.0664 c -1.67329,2.3131 -3.7194,4.26665 -6.09766,5.89063 3.12469,0.97397 8.05789,2.56965 14.32422,4.84961 -3.16147,-5.59503 -7.55386,-8.10691 -8.22656,-10.74024 z"
         id="path4323"
         inkscape:connector-curvature="0" />
      <path
         style="color:#000000;display:inline;overflow:visible;visibility:visible;fill:#ffffff;fill-opacity:1;fill-rule:evenodd;stroke:none;stroke-width:8.00656223;stroke-linecap:butt;stroke-linejoin:miter;stroke-miterlimit:10;stroke-dasharray:none;stroke-dashoffset:0;stroke-opacity:1;marker:none"
         d="m 218.72026,712.66125 a 15.6905,15.657429 0 0 0 -6.66211,1.30273 8.652658,8.652658 0 0 1 10.39258,8.48242 8.652658,8.652658 0 1 1 -17.30469,0 8.652658,8.652658 0 0 1 0.97851,-3.99804 15.6905,15.657429 0 0 0 -3.52148,9.89648 15.691405,15.658332 0 1 0 31.38281,0 15.6905,15.657429 0 0 0 -15.26562,-15.68359 z"
         id="path4359"
         inkscape:connector-curvature="0" />
      <path
         style="color:#000000;display:inline;overflow:visible;visibility:visible;fill:#ffffff;fill-opacity:1;fill-rule:evenodd;stroke:none;stroke-width:7.77337503;stroke-linecap:butt;stroke-linejoin:miter;stroke-miterlimit:10;stroke-dasharray:none;stroke-dashoffset:0;stroke-opacity:1;marker:none"
         d="m 272.6558,713.54015 a 17.864,17.863999 0 0 0 -8.24023,1.76368 10.157477,10.157477 0 0 1 13.36914,9.6289 10.158205,10.158205 0 1 1 -20.31641,0 10.157477,10.157477 0 0 1 2.26758,-6.39258 17.864,17.863999 0 0 0 -5.46484,12.85742 17.864255,17.864254 0 1 0 35.72851,0 17.864,17.863999 0 0 0 -17.34375,-17.85742 z"
         id="path6464"
         inkscape:connector-curvature="0" />
      <path
         inkscape:connector-curvature="0"
         style="color:#000000;display:inline;overflow:visible;visibility:visible;fill:#ffffff;fill-opacity:1;fill-rule:nonzero;stroke:none;stroke-width:6.05589819;stroke-linecap:round;stroke-linejoin:miter;stroke-miterlimit:4;stroke-dasharray:none;stroke-dashoffset:0;stroke-opacity:1;marker:none"
         d="m 335.50977,258.13867 c -0.93858,0.7696 -3.0573,2.51191 -6.45704,5.37305 -2.62612,2.21009 -5.55774,3.82136 -7.54882,4.81055 9.3975,5.16359 19.80771,10.11949 29.11914,12.79687 l 5.60937,-11.17383 c -5.91689,-4.3288 -13.25396,-8.30477 -20.72265,-11.80664 z"
         transform="translate(0,540.36218)"
         id="path6937" />
      <path
         d="m 377.37893,831.77879 3.00331,-6.64854 -23.30036,-14.92718 -1.85776,-0.15867 -0.80326,-2.5715 c -3.38476,2.11974 -8.3033,9.99368 -6.99923,14.42053 l 2.51659,-0.95186 1.36325,1.31752 26.07746,9.5196 z"
         style="color:#000000;display:inline;overflow:visible;visibility:visible;fill:#ffffff;fill-opacity:1;fill-rule:nonzero;stroke:none;stroke-width:6.05589819;stroke-linecap:round;stroke-linejoin:miter;stroke-miterlimit:4;stroke-dasharray:none;stroke-dashoffset:0;stroke-opacity:1;marker:none"
         id="path6935"
         inkscape:connector-curvature="0" />
      <path
         d="m 411.24217,860.01263 c -7.26411,-24.65796 -9.84053,-44.23632 -28.824,-42.49416 -15.2981,1.40399 -16.36909,23.32365 -0.56077,29.37232 15.22832,5.82673 29.38477,13.12184 29.38477,13.12184 z"
         style="color:#000000;display:inline;overflow:visible;visibility:visible;fill:#ffffff;fill-opacity:1;fill-rule:nonzero;stroke:none;stroke-width:1.2111789;marker:none"
         id="path6933"
         inkscape:connector-curvature="0" />
      <path
         d="m 181.77782,732.08848 a 38.93703,27.650934 54.192151 1 1 -44.84888,32.35543 38.93703,27.650934 54.192151 0 1 44.84888,-32.35543 z"
         style="color:#000000;display:inline;overflow:visible;visibility:visible;fill:#ffffff;fill-opacity:1;fill-rule:evenodd;stroke:none;stroke-width:6.38437462;stroke-linecap:butt;stroke-linejoin:miter;stroke-miterlimit:10;stroke-dasharray:none;stroke-dashoffset:0;stroke-opacity:1;marker:none"
         id="path873"
         inkscape:connector-curvature="0" />
    </g>
  </g>
</svg>
