<?xml version="1.0" encoding="UTF-8" standalone="no"?>
<svg
   xmlns:dc="http://purl.org/dc/elements/1.1/"
   xmlns:cc="http://creativecommons.org/ns#"
   xmlns:rdf="http://www.w3.org/1999/02/22-rdf-syntax-ns#"
   xmlns:svg="http://www.w3.org/2000/svg"
   xmlns="http://www.w3.org/2000/svg"
   xmlns:sodipodi="http://sodipodi.sourceforge.net/DTD/sodipodi-0.dtd"
   xmlns:inkscape="http://www.inkscape.org/namespaces/inkscape"
   version="1.1"
   x="0px"
   y="0px"
   width="512"
   height="512"
   viewBox="0 0 512 512"
   enable-background="new 0 0 512 512"
   xml:space="preserve"
   id="svg2"
   inkscape:version="0.92.3 (2405546, 2018-03-11)"
   sodipodi:docname="git-gui.svg"><metadata
     id="metadata12"><rdf:RDF><cc:Work
         rdf:about=""><dc:format>image/svg+xml</dc:format><dc:type
           rdf:resource="http://purl.org/dc/dcmitype/StillImage" /><dc:title></dc:title></cc:Work></rdf:RDF></metadata><defs
     id="defs10" /><sodipodi:namedview
     pagecolor="#ffffff"
     bordercolor="#666666"
     borderopacity="1"
     objecttolerance="10"
     gridtolerance="10"
     guidetolerance="10"
     inkscape:pageopacity="0"
     inkscape:pageshadow="2"
     inkscape:window-width="1366"
     inkscape:window-height="720"
     id="namedview8"
     showgrid="false"
     inkscape:zoom="0.4609375"
     inkscape:cx="419.52506"
     inkscape:cy="358.44861"
     inkscape:window-x="0"
     inkscape:window-y="23"
     inkscape:window-maximized="1"
     inkscape:current-layer="5151e0c8492e5103c096af88a5006e1e" /><g
     id="5151e0c8492e5103c096af88a5006e1e"
     style="fill:#ba174e;fill-opacity:1;stroke:#000000;stroke-width:20;stroke-linejoin:round;stroke-miterlimit:6.80000019;stroke-dasharray:none;stroke-opacity:1"
     transform="matrix(0.96029956,0,0,0.96029956,10.163327,10.157471)"><g
       id="g5"
       style="fill:#ba174e;fill-opacity:1;stroke:#000000;stroke-width:20;stroke-linejoin:round;stroke-miterlimit:6.80000019;stroke-dasharray:none;stroke-opacity:1" /><g
       transform="translate(3.6810963e-7,-1.7713508e-6)"
       style="fill:#ba174e;fill-opacity:1;stroke:none;stroke-width:20;stroke-linejoin:round;stroke-miterlimit:6.80000019;stroke-dasharray:none;stroke-opacity:1"
       id="g836"><path
         style="fill:#c6262e;fill-opacity:1;stroke:none;stroke-width:11.56884575;stroke-linejoin:round;stroke-miterlimit:6.80000019;stroke-dasharray:none;stroke-opacity:1"
         inkscape:connector-curvature="0"
         d="M 440.2271,48.231337 C 546.64488,140.46788 550.42903,308.25419 448.67946,423.00904 346.92988,537.76387 178.19053,556.01717 71.77274,463.78097 -34.64504,371.54444 -38.42887,203.75813 63.32038,89.00328 165.06996,-25.751576 333.8093,-44.005214 440.2271,48.231337 Z"
         id="path52" /><path
         style="opacity:1;fill:#000000;fill-opacity:0.49019608;stroke:none;stroke-width:11.56884575;stroke-linejoin:round;stroke-miterlimit:6.80000019;stroke-dasharray:none;stroke-opacity:1"
         inkscape:connector-curvature="0"
         d="m 522.20384,223.62394 c -1.61617,63.8464 -26.20148,129.28764 -73.90027,183.08319 C 346.55433,521.46197 177.81465,539.71526 71.39686,447.47907 21.51809,404.2469 -5.9006692,344.43989 -10.38161,281.23662 c 0.6298108,69.1001 28.03659,135.63834 82.14602,182.53702 106.41779,92.23653 275.16513,73.9739 376.90672,-40.77194 51.75983,-58.37576 76.02326,-130.4706 73.53271,-199.37776 z"
         id="path54" /><path
         id="path838"
         display="inline"
         d="m 118.48664,283.72349 c 14.3629,-3.58659 33.89174,-8.4715 68.10648,-9.38007 -0.94545,-1.8909 -1.79934,-3.84854 -2.55531,-5.86724 -13.31383,-0.11572 -54.31709,1.77518 -68.36272,5.24542 -0.0795,0.0248 -0.16467,0.0305 -0.24987,0.0305 -0.46986,0 -0.90285,-0.323 -1.01856,-0.79858 -0.13416,-0.55506 0.20727,-1.12793 0.76805,-1.26844 13.91784,-3.43972 53.93241,-5.34905 68.10649,-5.31217 -3.18986,-9.38008 -4.59881,-20.12651 -4.59881,-32.12293 0,-21.30975 6.63594,-29.34827 15.55187,-40.70444 -6.81841,-24.28595 2.44596,-40.8869 2.44596,-40.8869 0,0 14.32665,-2.96985 41.41144,16.42419 14.68017,-6.28813 53.81925,-6.81204 72.33589,-1.39623 11.36824,-7.51398 32.15344,-18.17457 40.54547,-15.19263 2.26857,3.65907 7.16047,14.31394 2.96414,37.73393 2.85414,5.13542 17.65066,16.07704 17.71107,47.00401 -0.24415,11.40513 -1.42739,21.03508 -3.62284,29.18296 35.31278,-0.29883 56.0859,2.61635 70.39349,5.25114 0.56141,0.11572 0.93973,0.65869 0.84181,1.22583 -0.0973,0.50039 -0.53662,0.86026 -1.02429,0.86026 -0.0731,0 -0.13415,-0.006 -0.20727,-0.0121 -14.28407,-2.64687 -35.09279,-5.54996 -70.61347,-5.22697 -0.62246,2.06765 -1.3174,4.03165 -2.07401,5.90411 12.08862,0.40247 45.29051,1.6957 72.36957,9.97773 0.56142,0.17104 0.86598,0.75598 0.69558,1.3174 -0.13416,0.44506 -0.5487,0.73754 -1.00013,0.73754 -0.0973,0 -0.20727,-0.0121 -0.30455,-0.0483 -27.45737,-8.39203 -61.37964,-9.54474 -72.66205,-9.91733 -9.81942,21.57234 -29.958,29.6223 -62.51391,32.97046 10.55123,6.64165 13.57641,14.97201 13.57641,37.51459 0,22.5413 -0.30456,25.56647 -0.23144,30.74958 0.10999,8.50901 12.57565,12.582 12.11278,15.32043 -0.4635,2.73334 -10.42916,2.29335 -15.08836,0.66569 -13.1981,-4.59816 -11.88135,-15.5773 -11.88135,-15.5773 l -0.4387,-30.13984 c 0,0 0.90284,-16.22328 -5.08647,-16.22328 0,3.26233 0,37.66654 0,49.33362 0,10.72163 7.5019,13.97887 7.5019,17.94314 0,6.81268 -13.70993,-0.64599 -17.93106,-4.89763 -6.44328,-6.4649 -5.71083,-20.17419 -5.55251,-31.0179 0.14624,-10.47239 -0.0973,-33.37356 -0.0973,-33.37356 l -4.37245,0.0922 c 0,0 1.79298,50.02919 -2.30544,59.14604 -5.29946,11.70396 -21.28495,15.72989 -21.28495,10.39864 0,-3.58659 3.93947,-2.44531 6.11711,-10.4832 1.85974,-6.83748 1.22584,-57.84263 1.22584,-57.84263 0,0 -5.12271,3.03153 -5.12271,12.582 0,4.37245 -0.12207,29.34763 -0.12207,36.78277 0,9.34956 -13.27758,14.67318 -19.65728,14.67318 -3.23244,0 -7.25139,-0.15769 -7.25139,-1.87119 0,-4.32413 12.1433,-6.86228 12.1433,-15.85769 0,-7.80009 -0.17103,-27.86492 -0.17103,-27.86492 0,0 -6.12347,1.04781 -14.85693,1.04781 -22.01676,0 -28.98204,-14.05136 -32.29396,-21.91313 -4.31205,-10.23968 -9.90462,-15.05148 -15.84497,-18.8943 -3.647,-2.36012 -4.48881,-5.1475 -0.26832,-5.94035 19.49198,-3.67116 24.4748,22.10259 37.48979,26.20673 9.28852,2.93425 21.23026,1.66518 27.17062,-2.17701 0.78713,-7.87448 6.45918,-14.68017 11.18578,-18.26613 -33.10463,-3.17777 -52.73138,-14.67381 -62.90431,-33.15421 -34.62992,0.82974 -54.28021,5.74517 -68.6857,9.34321 -1.04909,0.26258 -2.07338,0.51818 -3.06142,0.76869 -0.0852,0.0178 -0.17103,0.0242 -0.25623,0.0242 -0.46986,0 -0.89649,-0.31727 -1.01857,-0.79285 -0.14051,-0.56078 0.20728,-1.13428 0.7687,-1.2748 0.99186,-0.24415 2.01042,-0.49338 3.05315,-0.76169 z"
         style="display:inline;fill:#000000;fill-opacity:0.49019608;stroke:none;stroke-width:13.86666679;stroke-linejoin:round;stroke-miterlimit:6.80000019;stroke-dasharray:none;stroke-opacity:1"
         inkscape:connector-curvature="0" /><path
         inkscape:connector-curvature="0"
         style="display:inline;fill:#ffffff;fill-opacity:1;stroke:none;stroke-width:13.86666679;stroke-linejoin:round;stroke-miterlimit:6.80000019;stroke-dasharray:none;stroke-opacity:1"
         d="m 97.659802,262.89666 c 14.362908,-3.58659 33.891748,-8.4715 68.106488,-9.38007 -0.94545,-1.8909 -1.79934,-3.84854 -2.55531,-5.86724 -13.31383,-0.11572 -54.31709,1.77518 -68.362722,5.24542 -0.07948,0.0248 -0.164674,0.0305 -0.249872,0.0305 -0.469862,0 -0.902847,-0.323 -1.018564,-0.79858 -0.134156,-0.55506 0.207273,-1.12793 0.768055,-1.26844 13.917843,-3.43972 53.932413,-5.34905 68.106493,-5.31217 -3.18986,-9.38008 -4.59881,-20.12651 -4.59881,-32.12293 0,-21.30975 6.63594,-29.34827 15.55187,-40.70444 -6.81841,-24.28595 2.44596,-40.8869 2.44596,-40.8869 0,0 14.32665,-2.96985 41.41144,16.42419 14.68017,-6.28813 53.81925,-6.81204 72.33589,-1.39623 11.36824,-7.51398 32.15344,-18.17457 40.54547,-15.19263 2.26857,3.65907 7.16047,14.31394 2.96414,37.73393 2.85414,5.13542 17.65066,16.07704 17.71107,47.00401 -0.24415,11.40513 -1.42739,21.03508 -3.62284,29.18296 35.31278,-0.29883 56.0859,2.61635 70.39349,5.25114 0.56141,0.11572 0.93973,0.65869 0.84181,1.22583 -0.0973,0.50039 -0.53662,0.86026 -1.02429,0.86026 -0.0731,0 -0.13415,-0.006 -0.20727,-0.0121 -14.28407,-2.64687 -35.09279,-5.54996 -70.61347,-5.22697 -0.62246,2.06765 -1.3174,4.03165 -2.07401,5.90411 12.08862,0.40247 45.29051,1.6957 72.36957,9.97773 0.56142,0.17104 0.86598,0.75598 0.69558,1.3174 -0.13416,0.44506 -0.5487,0.73754 -1.00013,0.73754 -0.0973,0 -0.20727,-0.0121 -0.30455,-0.0483 -27.45737,-8.39203 -61.37964,-9.54474 -72.66205,-9.91733 -9.81942,21.57234 -29.958,29.6223 -62.51391,32.97046 10.55123,6.64165 13.57641,14.97201 13.57641,37.51459 0,22.5413 -0.30456,25.56647 -0.23144,30.74958 0.10999,8.50901 12.57565,12.582 12.11278,15.32043 -0.4635,2.73334 -10.42916,2.29335 -15.08836,0.66569 -13.1981,-4.59816 -11.88135,-15.5773 -11.88135,-15.5773 l -0.4387,-30.13984 c 0,0 0.90284,-16.22328 -5.08647,-16.22328 0,3.26233 0,37.66654 0,49.33362 0,10.72163 7.5019,13.97887 7.5019,17.94314 0,6.81268 -13.70993,-0.64599 -17.93106,-4.89763 -6.44328,-6.4649 -5.71083,-20.17419 -5.55251,-31.0179 0.14624,-10.47239 -0.0973,-33.37356 -0.0973,-33.37356 l -4.37245,0.0922 c 0,0 1.79298,50.02919 -2.30544,59.14604 -5.29946,11.70396 -21.28495,15.72989 -21.28495,10.39864 0,-3.58659 3.93947,-2.44531 6.11711,-10.4832 1.85974,-6.83748 1.22584,-57.84263 1.22584,-57.84263 0,0 -5.12271,3.03153 -5.12271,12.582 0,4.37245 -0.12207,29.34763 -0.12207,36.78277 0,9.34956 -13.27758,14.67318 -19.65728,14.67318 -3.23244,0 -7.25139,-0.15769 -7.25139,-1.87119 0,-4.32413 12.1433,-6.86228 12.1433,-15.85769 0,-7.80009 -0.17103,-27.86492 -0.17103,-27.86492 0,0 -6.12347,1.04781 -14.85693,1.04781 -22.01676,0 -28.98204,-14.05136 -32.29396,-21.91313 -4.31205,-10.23968 -9.90462,-15.05148 -15.84497,-18.8943 -3.647,-2.36012 -4.48881,-5.1475 -0.26832,-5.94035 19.49198,-3.67116 24.4748,22.10259 37.48979,26.20673 9.28852,2.93425 21.23026,1.66518 27.17062,-2.17701 0.78713,-7.87448 6.45918,-14.68017 11.18578,-18.26613 -33.10463,-3.17777 -52.73138,-14.67381 -62.90431,-33.15421 -34.62992,0.82974 -54.28021,5.74517 -68.685709,9.34321 -1.049084,0.26258 -2.073371,0.51818 -3.061417,0.76869 -0.0852,0.0178 -0.171032,0.0242 -0.25623,0.0242 -0.469862,0 -0.89649,-0.31727 -1.018565,-0.79285 -0.140513,-0.56078 0.207274,-1.13428 0.768693,-1.2748 0.99186,-0.24415 2.010424,-0.49338 3.05315,-0.76169 z"
         display="inline"
         id="XMLID_1_" /></g></g></svg>