<?xml version="1.0" encoding="UTF-8" standalone="no"?>
<!-- Created with Inkscape (http://www.inkscape.org/) -->

<svg
   xmlns:dc="http://purl.org/dc/elements/1.1/"
   xmlns:cc="http://creativecommons.org/ns#"
   xmlns:rdf="http://www.w3.org/1999/02/22-rdf-syntax-ns#"
   xmlns:svg="http://www.w3.org/2000/svg"
   xmlns="http://www.w3.org/2000/svg"
   xmlns:sodipodi="http://sodipodi.sourceforge.net/DTD/sodipodi-0.dtd"
   xmlns:inkscape="http://www.inkscape.org/namespaces/inkscape"
   version="1.1"
   width="512"
   height="512"
   viewBox="0 0 512 512"
   id="svg2"
   inkscape:version="0.92.3 (2405546, 2018-03-11)"
   sodipodi:docname="gnash.svg">
  <sodipodi:namedview
     pagecolor="#ffffff"
     bordercolor="#666666"
     borderopacity="1"
     objecttolerance="10"
     gridtolerance="10"
     guidetolerance="10"
     inkscape:pageopacity="0"
     inkscape:pageshadow="2"
     inkscape:window-width="1366"
     inkscape:window-height="720"
     id="namedview35"
     showgrid="false"
     inkscape:zoom="0.4609375"
     inkscape:cx="342.77966"
     inkscape:cy="316.51873"
     inkscape:window-x="0"
     inkscape:window-y="23"
     inkscape:window-maximized="1"
     inkscape:current-layer="svg2"
     units="px" />
  <metadata
     id="metadata70">
    <rdf:RDF>
      <cc:Work
         rdf:about="">
        <dc:format>image/svg+xml</dc:format>
        <dc:type
           rdf:resource="http://purl.org/dc/dcmitype/StillImage" />
        <dc:title></dc:title>
      </cc:Work>
    </rdf:RDF>
  </metadata>
  <defs
     id="defs68" />
  <text
     x="729.64001"
     y="742.35999"
     id="text20"
     style="font-size:129.22999573px;line-height:0%;font-family:'Gentium Book Basic';letter-spacing:0;word-spacing:0">
    <tspan
       x="729.64001"
       y="742.35999"
       id="tspan22" />
  </text>
  <text
     x="378.90805"
     y="2629.8093"
     transform="scale(4.0128205,0.24920128)"
     id="text24"
     style="font-size:46.95375824px;font-family:Arial;text-anchor:middle" />
  <text
     x="1310.91"
     y="662.35999"
     id="text26"
     style="font-size:129.22999573px;line-height:0%;font-family:'Gentium Book Basic';letter-spacing:0;word-spacing:0">
    <tspan
       x="1310.91"
       y="662.35999"
       id="tspan28" />
  </text>
  <text
     x="523.75732"
     y="2308.7712"
     transform="scale(4.0128205,0.24920128)"
     id="text30"
     style="font-size:46.95375824px;font-family:Arial;text-anchor:middle" />
  <text
     x="239.33"
     y="481.09998"
     id="text32"
     style="font-size:129.22999573px;line-height:0%;font-family:'Gentium Book Basic';letter-spacing:0;word-spacing:0">
    <tspan
       x="239.33"
       y="481.09998"
       id="tspan34" />
  </text>
  <text
     x="256.71869"
     y="1581.4249"
     transform="scale(4.0128205,0.24920128)"
     id="text36"
     style="font-size:46.95375824px;font-family:Arial;text-anchor:middle" />
  <text
     x="1337.38"
     y="264.63"
     id="text38"
     style="font-size:129.22999573px;line-height:0%;font-family:'Gentium Book Basic';letter-spacing:0;word-spacing:0">
    <tspan
       x="1337.38"
       y="264.63"
       id="tspan40" />
  </text>
  <text
     x="530.3573"
     y="712.74927"
     transform="scale(4.0128205,0.24920128)"
     id="text42"
     style="font-size:46.95375824px;font-family:Arial;text-anchor:middle" />
  <text
     x="1918.65"
     y="184.63"
     id="text44"
     style="font-size:129.22999573px;line-height:0%;font-family:'Gentium Book Basic';letter-spacing:0;word-spacing:0">
    <tspan
       x="1918.65"
       y="184.63"
       id="tspan46" />
  </text>
  <text
     x="675.20654"
     y="391.72095"
     transform="scale(4.0128205,0.24920128)"
     id="text48"
     style="font-size:46.95375824px;font-family:Arial;text-anchor:middle" />
  <text
     x="1529.53"
     y="-287.77002"
     id="text50"
     style="font-size:129.22999573px;line-height:0%;font-family:'Gentium Book Basic';letter-spacing:0;word-spacing:0">
    <tspan
       x="1529.53"
       y="-287.77002"
       id="tspan52" />
  </text>
  <text
     x="578.237"
     y="-1503.9294"
     transform="scale(4.0128205,0.24920128)"
     id="text54"
     style="font-size:46.95375824px;font-family:Arial;text-anchor:middle" />
  <text
     x="2110.79"
     y="-367.78003"
     id="text56"
     style="font-size:129.22999573px;line-height:0%;font-family:'Gentium Book Basic';letter-spacing:0;word-spacing:0">
    <tspan
       x="2110.79"
       y="-367.78003"
       id="tspan58" />
  </text>
  <text
     x="723.0863"
     y="-1824.9678"
     transform="scale(4.0128205,0.24920128)"
     id="text60"
     style="font-size:46.95375824px;font-family:Arial;text-anchor:middle" />
  <text
     x="277.98999"
     y="1046.9401"
     id="text62"
     style="font-size:208.33000183px;line-height:0%;font-family:'Gentium Book Basic';letter-spacing:0;word-spacing:0">
    <tspan
       x="277.98999"
       y="1046.9401"
       id="tspan64" />
  </text>
  <g
     id="g860">
    <path
       id="path27"
       d="M 432.91327,56.473967 C 535.10618,145.04856 538.74005,306.17367 441.03007,416.37276 343.3201,526.57184 181.27964,544.10061 79.086729,455.52602 -23.106186,366.95143 -26.740042,205.82631 70.969928,95.627227 168.6799,-14.571854 330.72036,-32.100623 432.91327,56.473967 Z"
       inkscape:connector-curvature="0"
       style="fill:#c6262e;fill-opacity:1;stroke-width:11.10955811" />
    <path
       id="path51"
       d="M 511.63551,224.90351 C 510.08412,286.21516 486.47428,349.05812 440.66913,400.71799 342.95915,510.91711 180.91869,528.44584 78.725776,439.87129 30.827124,398.35563 4.4968216,340.92284 0.19382768,280.2288 0.79907934,346.58548 27.117411,410.48217 79.078682,455.51906 181.27159,544.09361 343.31975,526.55619 441.02202,416.36576 490.72697,360.30766 514.02704,291.0748 511.63551,224.90351 Z"
       inkscape:connector-curvature="0"
       style="opacity:1;fill:#000000;fill-opacity:0.49019608;stroke-width:11.10955811" />
    <path
       d="M 405.82319,231.87631 Q 379.30077,260.32706 315.16476,292.63628 275.62225,432 198.94839,432 q -51.59815,0 -47.25813,-46.7767 2.41113,-27.00421 35.6847,-51.11532 23.62905,-16.8784 75.22721,-40.02514 5.78672,-17.35956 9.16229,-32.30922 -38.57807,40.98951 -80.04947,40.50732 -28.45131,-0.48624 -39.5425,-22.66458 -7.71562,-16.3962 -5.78671,-40.02514 4.34004,-50.63314 40.50696,-84.87109 Q 223.05967,120 273.69334,120 q 23.14684,0 44.36478,6.26836 21.21793,5.7872 25.55797,13.50211 -6.75118,45.32915 -22.18239,127.79034 54.4915,-26.03985 76.67388,-48.22224 z M 274.17558,182.6887 q 0.48228,-8.68028 -3.37559,-13.50211 -3.37557,-5.30399 -12.53785,-4.8218 -19.28902,0.96234 -36.64915,27.96857 -14.46677,23.14674 -15.43123,40.50731 -0.96446,17.84175 15.91345,17.84175 16.87791,0 34.23801,-25.55766 16.39568,-23.62895 17.84236,-42.43606 z M 248.1354,324.94551 q -42.43585,20.73585 -43.40031,33.27358 -0.48219,6.75156 7.23338,6.75156 13.98456,0 36.16693,-40.02514 z"
       inkscape:connector-curvature="0"
       id="path854"
       style="font-style:normal;font-variant:normal;font-weight:normal;font-stretch:normal;font-size:47.60432816px;line-height:125%;font-family:'Black Rose';-inkscape-font-specification:'Black Rose';text-align:start;letter-spacing:0px;word-spacing:0px;writing-mode:lr-tb;text-anchor:start;fill:#000000;fill-opacity:0.49019608;stroke:none;stroke-width:1.05949831" />
    <path
       style="font-style:normal;font-variant:normal;font-weight:normal;font-stretch:normal;font-size:47.60432816px;line-height:125%;font-family:'Black Rose';-inkscape-font-specification:'Black Rose';text-align:start;letter-spacing:0px;word-spacing:0px;writing-mode:lr-tb;text-anchor:start;fill:#ffffff;fill-opacity:1;stroke:none;stroke-width:1.05949831"
       id="path4083"
       inkscape:connector-curvature="0"
       d="M 385.82319,211.87631 Q 359.30077,240.32706 295.16476,272.63628 255.62225,412 178.94839,412 q -51.59815,0 -47.25813,-46.7767 2.41113,-27.00421 35.6847,-51.11532 23.62905,-16.8784 75.22721,-40.02514 5.78672,-17.35956 9.16229,-32.30922 -38.57807,40.98951 -80.04947,40.50732 -28.45131,-0.48624 -39.5425,-22.66458 -7.71562,-16.3962 -5.78671,-40.02514 4.34004,-50.63314 40.50696,-84.87109 Q 203.05967,100 253.69334,100 q 23.14684,0 44.36478,6.26836 21.21793,5.7872 25.55797,13.50211 -6.75118,45.32915 -22.18239,127.79034 54.4915,-26.03985 76.67388,-48.22224 z M 254.17558,162.6887 q 0.48228,-8.68028 -3.37559,-13.50211 -3.37557,-5.30399 -12.53785,-4.8218 -19.28902,0.96234 -36.64915,27.96857 -14.46677,23.14674 -15.43123,40.50731 -0.96446,17.84175 15.91345,17.84175 16.87791,0 34.23801,-25.55766 16.39568,-23.62895 17.84236,-42.43606 z M 228.1354,304.94551 q -42.43585,20.73585 -43.40031,33.27358 -0.48219,6.75156 7.23338,6.75156 13.98456,0 36.16693,-40.02514 z" />
  </g>
</svg>
