<?xml version="1.0" encoding="UTF-8" standalone="no"?>
<!-- Created with Inkscape (http://www.inkscape.org/) -->

<svg
   xmlns:dc="http://purl.org/dc/elements/1.1/"
   xmlns:cc="http://creativecommons.org/ns#"
   xmlns:rdf="http://www.w3.org/1999/02/22-rdf-syntax-ns#"
   xmlns:svg="http://www.w3.org/2000/svg"
   xmlns="http://www.w3.org/2000/svg"
   xmlns:sodipodi="http://sodipodi.sourceforge.net/DTD/sodipodi-0.dtd"
   xmlns:inkscape="http://www.inkscape.org/namespaces/inkscape"
   id="svg2"
   version="1.1"
   inkscape:version="0.92.3 (2405546, 2018-03-11)"
   width="512"
   height="512"
   sodipodi:docname="gnome-settings-default-applications.svg"
   viewBox="0 0 512 512">
  <metadata
     id="metadata8">
    <rdf:RDF>
      <cc:Work
         rdf:about="">
        <dc:format>image/svg+xml</dc:format>
        <dc:type
           rdf:resource="http://purl.org/dc/dcmitype/StillImage" />
        <dc:title></dc:title>
      </cc:Work>
    </rdf:RDF>
  </metadata>
  <defs
     id="defs6" />
  <sodipodi:namedview
     pagecolor="#ffffff"
     bordercolor="#666666"
     borderopacity="1"
     objecttolerance="10"
     gridtolerance="10"
     guidetolerance="10"
     inkscape:pageopacity="0"
     inkscape:pageshadow="2"
     inkscape:window-width="1366"
     inkscape:window-height="720"
     id="namedview4"
     showgrid="false"
     inkscape:zoom="0.65186408"
     inkscape:cx="-64.639228"
     inkscape:cy="234.8814"
     inkscape:window-x="0"
     inkscape:window-y="23"
     inkscape:window-maximized="1"
     inkscape:current-layer="svg2"
     inkscape:document-units="px" />
  <g
     id="g854">
    <path
       id="path1165"
       d="m 432.91325,56.47393 c 102.19291,88.57459 105.82677,249.69975 8.1168,359.89883 -97.71,110.19906 -259.75044,127.72786 -361.94331,39.15326 C -23.106205,366.95143 -26.740032,205.82628 70.96994,95.62719 168.67987,-14.57189 330.72032,-32.10066 432.91325,56.47393 Z"
       inkscape:connector-curvature="0"
       style="fill:#f9c440;fill-opacity:1;stroke-width:11.10955906" />
    <path
       id="path1167"
       d="M 511.63548,224.90352 C 510.0841,286.21513 486.47426,349.05809 440.66911,400.71796 342.95911,510.91712 180.91867,528.44582 78.725757,439.87125 30.827125,398.35564 4.4968193,340.92281 0.19382704,280.22881 0.79908059,346.58545 27.117405,410.48218 79.07869,455.51903 c 102.19287,88.57459 264.24102,71.03709 361.94331,-39.15326 49.70495,-56.05815 73.00502,-125.291 70.61348,-191.46225 z"
       inkscape:connector-curvature="0"
       style="opacity:1;fill:#000000;fill-opacity:0.49019608;stroke-width:11.10955906" />
    <path
       style="fill:#000000;fill-opacity:0.49019608;stroke-width:1.13736749"
       d="m 365.30935,426.51934 c -3.47861,-1.43121 -23.69532,-11.62 -44.926,-22.64159 -21.23068,-11.02171 -39.92691,-20.36599 -41.54722,-20.76473 -2.35301,-0.57919 -11.90463,3.75461 -47.45369,21.53113 -24.4792,12.241 -45.7642,22.25645 -47.29995,22.25645 -3.53574,0 -7.09408,-4.42416 -8.03146,-9.98549 -0.41494,-2.46168 1.47088,-23.02249 4.50865,-49.1576 2.87206,-24.70933 4.93584,-46.49834 4.5862,-48.41993 -0.34963,-1.92151 -1.7812,-5.04301 -3.18126,-6.9366 -2.83221,-3.83052 -30.70919,-34.39009 -47.58463,-52.16364 -7.58014,-7.98357 -11.55353,-13.16313 -12.99667,-16.94191 -4.1221,-10.79358 -2.27656,-11.55471 52.38262,-21.60378 33.75517,-6.20588 45.80234,-8.84424 48.09239,-10.53235 1.8889,-1.39239 8.40053,-12.20389 17.05551,-28.31792 26.79997,-49.89671 29.23985,-54.20269 32.56356,-57.4692 4.09104,-4.02063 5.21872,-4.06924 9.56473,-0.41232 3.9031,3.28423 32.61032,51.97266 44.39098,75.28859 3.28638,6.5043 9.03685,12.85962 13.21556,14.60558 1.8952,0.79187 12.39541,3.00752 23.3338,4.92366 31.87571,5.58387 58.91621,11.28881 63.24629,13.34357 5.68273,2.69663 7.81208,6.29012 6.29906,10.63031 -2.69737,7.73769 -11.43248,17.98132 -43.0142,50.44265 -10.84619,11.14826 -20.03123,21.50816 -20.41115,23.02196 -0.37995,1.5138 1.41329,17.4714 3.98496,35.46139 9.30864,65.11837 9.71456,70.31068 5.80225,74.22303 -2.88742,2.88738 -4.774,2.83022 -12.58033,-0.38126 z"
       id="path43"
       inkscape:connector-curvature="0" />
    <path
       inkscape:connector-curvature="0"
       id="path844"
       d="m 345.30935,406.51934 c -3.47861,-1.43121 -23.69532,-11.62 -44.926,-22.64159 -21.23068,-11.02171 -39.92691,-20.36599 -41.54722,-20.76473 -2.35301,-0.57919 -11.90463,3.75461 -47.45369,21.53113 -24.4792,12.241 -45.7642,22.25645 -47.29995,22.25645 -3.53574,0 -7.09408,-4.42416 -8.03146,-9.98549 -0.41494,-2.46168 1.47088,-23.02249 4.50865,-49.1576 2.87206,-24.70933 4.93584,-46.49834 4.5862,-48.41993 -0.34963,-1.92151 -1.7812,-5.04301 -3.18126,-6.9366 -2.83221,-3.83052 -30.70919,-34.39009 -47.58463,-52.16364 -7.58014,-7.98357 -11.55353,-13.16313 -12.99667,-16.94191 -4.122097,-10.79358 -2.276557,-11.55471 52.38262,-21.60378 33.75517,-6.20588 45.80234,-8.84424 48.09239,-10.53235 1.8889,-1.39239 8.40053,-12.20389 17.05551,-28.31792 26.79997,-49.89671 29.23985,-54.20269 32.56356,-57.4692 4.09104,-4.02063 5.21872,-4.06924 9.56473,-0.41232 3.9031,3.28423 32.61032,51.97266 44.39098,75.28859 3.28638,6.5043 9.03685,12.85962 13.21556,14.60558 1.8952,0.79187 12.39541,3.00752 23.3338,4.92366 31.87571,5.58387 58.91621,11.28881 63.24629,13.34357 5.68273,2.69663 7.81208,6.29012 6.29906,10.63031 -2.69737,7.73769 -11.43248,17.98132 -43.0142,50.44265 -10.84619,11.14826 -20.03123,21.50816 -20.41115,23.02196 -0.37995,1.5138 1.41329,17.4714 3.98496,35.46139 9.30864,65.11837 9.71456,70.31068 5.80225,74.22303 -2.88742,2.88738 -4.774,2.83022 -12.58033,-0.38126 z"
       style="fill:#ffffff;fill-opacity:1;stroke-width:1.13736749" />
  </g>
</svg>
