<?xml version="1.0" encoding="UTF-8" standalone="no"?>
<!-- Generator: Adobe Illustrator 19.0.0, SVG Export Plug-In . SVG Version: 6.00 Build 0)  -->

<svg
   xmlns:dc="http://purl.org/dc/elements/1.1/"
   xmlns:cc="http://creativecommons.org/ns#"
   xmlns:rdf="http://www.w3.org/1999/02/22-rdf-syntax-ns#"
   xmlns:svg="http://www.w3.org/2000/svg"
   xmlns="http://www.w3.org/2000/svg"
   xmlns:sodipodi="http://sodipodi.sourceforge.net/DTD/sodipodi-0.dtd"
   xmlns:inkscape="http://www.inkscape.org/namespaces/inkscape"
   version="1.1"
   id="Layer_1"
   x="0px"
   y="0px"
   viewBox="0 0 512 512"
   xml:space="preserve"
   inkscape:version="0.92.3 (2405546, 2018-03-11)"
   width="512"
   height="512"
   sodipodi:docname="gnome-settings-background.svg"><metadata
     id="metadata57"><rdf:RDF><cc:Work
         rdf:about=""><dc:format>image/svg+xml</dc:format><dc:type
           rdf:resource="http://purl.org/dc/dcmitype/StillImage" /><dc:title></dc:title></cc:Work></rdf:RDF></metadata><defs
     id="defs55" /><sodipodi:namedview
     pagecolor="#ffffff"
     bordercolor="#666666"
     borderopacity="1"
     objecttolerance="10"
     gridtolerance="10"
     guidetolerance="10"
     inkscape:pageopacity="0"
     inkscape:pageshadow="2"
     inkscape:window-width="1366"
     inkscape:window-height="720"
     id="namedview53"
     showgrid="false"
     inkscape:zoom="0.52559509"
     inkscape:cx="101.39214"
     inkscape:cy="143.17093"
     inkscape:window-x="0"
     inkscape:window-y="23"
     inkscape:window-maximized="1"
     inkscape:current-layer="Layer_1"
     units="px" /><g
     id="g23"
     transform="translate(0,550.767)" /><g
     id="g25"
     transform="translate(0,550.767)" /><g
     id="g27"
     transform="translate(0,550.767)" /><g
     id="g29"
     transform="translate(0,550.767)" /><g
     id="g31"
     transform="translate(0,550.767)" /><g
     id="g33"
     transform="translate(0,550.767)" /><g
     id="g35"
     transform="translate(0,550.767)" /><g
     id="g37"
     transform="translate(0,550.767)" /><g
     id="g39"
     transform="translate(0,550.767)" /><g
     id="g41"
     transform="translate(0,550.767)" /><g
     id="g43"
     transform="translate(0,550.767)" /><g
     id="g45"
     transform="translate(0,550.767)" /><g
     id="g47"
     transform="translate(0,550.767)" /><g
     id="g49"
     transform="translate(0,550.767)" /><g
     id="g51"
     transform="translate(0,550.767)" /><g
     id="g897"><path
       id="path1165"
       d="m 432.91328,56.47469 c 102.1929,88.5735 105.82677,249.69956 8.11678,359.89803 C 343.32007,526.57121 181.27962,544.10017 79.086743,455.52667 -23.106206,366.95085 -26.740033,205.82711 70.969944,95.62632 168.67988,-14.57214 330.72033,-32.10112 432.91328,56.47469 Z"
       inkscape:connector-curvature="0"
       style="fill:#3689e6;fill-opacity:1;stroke-width:11.10954762" /><path
       inkscape:connector-curvature="0"
       id="path886"
       d="m 182.43359,257.42383 c -0.60984,0.002 -1.22118,0.0123 -1.83593,0.0332 -78.68893,2.67775 -136.156254,100.83789 -136.156254,100.83789 11.612312,43.03738 35.190956,82.503 70.644534,113.23242 12.25977,10.6259 25.38821,19.70773 39.15625,27.30274 95.49596,32.993 210.66325,3.39636 286.78711,-82.45703 7.56016,-8.52645 14.51134,-17.35848 20.85937,-26.4375 -27.71569,11.2789 -61.02538,21.29456 -92.29687,21.50195 -71.57731,0.47469 -109.70775,-154.21213 -187.15821,-154.01367 z"
       style="opacity:1;fill:#000000;fill-opacity:0.49019608;stroke:none;stroke-width:0.79707313;stroke-linecap:square;stroke-linejoin:bevel;stroke-miterlimit:4;stroke-dasharray:none;stroke-dashoffset:0;stroke-opacity:1" /><path
       sodipodi:nodetypes="ccsczzc"
       inkscape:connector-curvature="0"
       id="rect852"
       d="M 8.4414062,342.295 C 20.053718,385.33238 43.63221,424.79777 79.085792,455.52719 181.27845,544.1005 343.31862,526.57124 441.02841,416.37298 c 20.27481,-22.86619 36.17132,-47.92948 47.74404,-74.07798 0,0 -83.03887,52.66421 -155.17978,53.14264 C 261.45176,395.91607 223.28694,238.77917 144.598,241.45692 65.909069,244.13467 8.4414062,342.295 8.4414062,342.295 Z"
       style="opacity:1;fill:#0d52bf;fill-opacity:1;stroke:none;stroke-width:0.79707313;stroke-linecap:square;stroke-linejoin:bevel;stroke-miterlimit:4;stroke-dasharray:none;stroke-dashoffset:0;stroke-opacity:1" /><path
       id="path1167"
       d="M 511.63552,224.90373 C 510.08416,286.2156 486.47428,349.05882 440.66913,400.71718 342.95911,510.91564 180.91867,528.44461 78.725762,439.87114 30.827125,398.35501 4.4968196,340.92269 0.19382741,280.22755 0.79908101,346.58494 27.117406,410.4824 79.078693,455.51736 181.27157,544.09317 343.31972,526.55491 441.02203,416.36573 c 49.70494,-56.05922 73.00501,-125.29079 70.61349,-191.462 z"
       inkscape:connector-curvature="0"
       style="opacity:1;fill:#000000;fill-opacity:0.49019608;stroke-width:11.10954762" /><circle
       style="opacity:1;fill:#000000;fill-opacity:0.49019608;stroke:none;stroke-width:0.94473493;stroke-linecap:square;stroke-linejoin:bevel;stroke-miterlimit:4;stroke-dasharray:none;stroke-dashoffset:0;stroke-opacity:1"
       id="circle884"
       cx="385.01401"
       cy="199.33"
       r="62.5" /><circle
       r="62.5"
       cy="179.33005"
       cx="365.01425"
       id="path882"
       style="opacity:1;fill:#ffffff;fill-opacity:1;stroke:none;stroke-width:0.94473493;stroke-linecap:square;stroke-linejoin:bevel;stroke-miterlimit:4;stroke-dasharray:none;stroke-dashoffset:0;stroke-opacity:1" /></g></svg>