<?xml version="1.0" encoding="UTF-8" standalone="no"?>
<!-- Created with Inkscape (http://www.inkscape.org/) -->

<svg
   xmlns:dc="http://purl.org/dc/elements/1.1/"
   xmlns:cc="http://creativecommons.org/ns#"
   xmlns:rdf="http://www.w3.org/1999/02/22-rdf-syntax-ns#"
   xmlns:svg="http://www.w3.org/2000/svg"
   xmlns="http://www.w3.org/2000/svg"
   xmlns:sodipodi="http://sodipodi.sourceforge.net/DTD/sodipodi-0.dtd"
   xmlns:inkscape="http://www.inkscape.org/namespaces/inkscape"
   width="512"
   height="512"
   id="svg2"
   version="1.1"
   inkscape:version="0.92.3 (2405546, 2018-03-11)"
   viewBox="0 0 144.49777 144.49779"
   sodipodi:docname="gnome-user-share.svg">
  <defs
     id="defs4" />
  <sodipodi:namedview
     id="base"
     pagecolor="#ffffff"
     bordercolor="#666666"
     borderopacity="1.0"
     inkscape:pageopacity="0"
     inkscape:pageshadow="2"
     inkscape:zoom="0.55626455"
     inkscape:cx="208.44723"
     inkscape:cy="238.05544"
     inkscape:document-units="px"
     inkscape:current-layer="layer1"
     showgrid="false"
     inkscape:showpageshadow="false"
     borderlayer="true"
     units="px"
     fit-margin-top="0"
     fit-margin-left="0"
     fit-margin-right="0"
     fit-margin-bottom="0"
     showguides="true"
     inkscape:window-width="1366"
     inkscape:window-height="720"
     inkscape:window-x="0"
     inkscape:window-y="23"
     inkscape:window-maximized="1" />
  <metadata
     id="metadata7">
    <rdf:RDF>
      <cc:Work
         rdf:about="">
        <dc:format>image/svg+xml</dc:format>
        <dc:type
           rdf:resource="http://purl.org/dc/dcmitype/StillImage" />
        <dc:title />
      </cc:Work>
    </rdf:RDF>
  </metadata>
  <g
     inkscape:label="Capa 1"
     inkscape:groupmode="layer"
     id="layer1"
     transform="translate(38.119153,-266.89383)">
    <g
       id="g838">
      <path
         id="path911"
         d="M 84.058623,282.83204 C 112.8997,307.82976 113.92526,353.30285 86.349361,384.40349 58.77341,415.5041 13.041945,420.45112 -15.799135,395.4534 -44.640227,370.45568 -45.665783,324.98259 -18.089874,293.88196 9.4860242,262.78133 55.217467,257.83432 84.058623,282.83204 Z"
         inkscape:connector-curvature="0"
         style="fill:#c6262e;fill-opacity:1;stroke-width:3.13536263" />
      <path
         id="path913"
         d="m 106.27562,330.36661 c -0.43784,17.30351 -7.101053,35.03918 -20.028271,49.61875 -27.575897,31.10064 -73.307272,36.04763 -102.148353,11.04993 -13.518051,-11.71665 -20.94904,-27.92546 -22.163439,-45.05466 0.170815,18.72733 7.598425,36.7604 22.263036,49.47079 28.841083,24.99772 74.574625,20.04828 102.148353,-11.0499 14.027824,-15.82086 20.603624,-35.35991 19.928674,-54.03491 z"
         inkscape:connector-curvature="0"
         style="opacity:1;fill:#000000;fill-opacity:0.49019608;stroke-width:3.13536263" />
      <path
         style="fill:#000000;fill-opacity:0.49019608;stroke:none;stroke-width:15.42670059"
         d="m 7.9771442,300.76062 c -6.77521,0 -12.22963,5.45442 -12.22963,12.22966 0,5.93804 4.18706999,10.85515 9.7836999,11.98114 v 39.63163 c -5.59662991,1.12614 -9.7836999,6.04324 -9.7836999,11.98127 0,6.7751 5.45442,12.22951 12.22963,12.22951 6.7752098,0 12.2296298,-5.45441 12.2296298,-12.22951 0,-2.81336 -0.97574,-5.3714 -2.56059,-7.43335 l 47.141415,-45.97569 c 1.93873,1.28968 4.270456,2.04466 6.78362,2.04466 6.775207,0 12.22963,-5.45441 12.22963,-12.22966 0,-6.77524 -5.454423,-12.22966 -12.22963,-12.22966 -6.775207,0 -12.229625,5.45442 -12.229625,12.22966 0,2.48261 0.7451,4.78258 2.00642,6.70721 l -47.41846,46.25276 c -1.08652,-0.6078 -2.24528,-1.09375 -3.50648,-1.34674 v -39.63163 c 5.59663,-1.12614 9.7837,-6.04309 9.7837,-11.98114 0,-6.77524 -5.45442,-12.22966 -12.2296298,-12.22966 z"
         id="path832"
         inkscape:connector-curvature="0" />
      <path
         inkscape:connector-curvature="0"
         id="rect4120"
         d="m 2.3326997,295.11618 c -6.77521,0 -12.22963,5.45442 -12.22963,12.22966 0,5.93804 4.18707,10.85515 9.78369996,11.98114 v 39.63163 c -5.59662996,1.12614 -9.78369996,6.04324 -9.78369996,11.98127 0,6.7751 5.45442,12.22951 12.22963,12.22951 6.77521,0 12.2296303,-5.45441 12.2296303,-12.22951 0,-2.81336 -0.97574,-5.3714 -2.56059,-7.43335 l 47.141415,-45.97569 c 1.93873,1.28968 4.270456,2.04466 6.78362,2.04466 6.775207,0 12.22963,-5.45441 12.22963,-12.22966 0,-6.77524 -5.454423,-12.22966 -12.22963,-12.22966 -6.775207,0 -12.229625,5.45442 -12.229625,12.22966 0,2.48261 0.7451,4.78258 2.00642,6.70721 L 8.2851097,360.30581 c -1.08652,-0.6078 -2.24528,-1.09375 -3.50648,-1.34674 V 319.32744 C 10.37526,318.2013 14.56233,313.28435 14.56233,307.3463 c 0,-6.77524 -5.4544203,-12.22966 -12.2296303,-12.22966 z"
         style="fill:#ffffff;fill-opacity:1;stroke:none;stroke-width:15.42670059" />
    </g>
  </g>
</svg>
