<?xml version="1.0" encoding="UTF-8" standalone="no"?>
<!-- Created with Inkscape (http://www.inkscape.org/) -->

<svg
   xmlns:dc="http://purl.org/dc/elements/1.1/"
   xmlns:cc="http://creativecommons.org/ns#"
   xmlns:rdf="http://www.w3.org/1999/02/22-rdf-syntax-ns#"
   xmlns:svg="http://www.w3.org/2000/svg"
   xmlns="http://www.w3.org/2000/svg"
   xmlns:sodipodi="http://sodipodi.sourceforge.net/DTD/sodipodi-0.dtd"
   xmlns:inkscape="http://www.inkscape.org/namespaces/inkscape"
   id="svg2"
   version="1.1"
   inkscape:version="0.92.3 (2405546, 2018-03-11)"
   width="512"
   height="512"
   sodipodi:docname="gnome-mines.svg"
   viewBox="0 0 512 512">
  <metadata
     id="metadata8">
    <rdf:RDF>
      <cc:Work
         rdf:about="">
        <dc:format>image/svg+xml</dc:format>
        <dc:type
           rdf:resource="http://purl.org/dc/dcmitype/StillImage" />
        <dc:title></dc:title>
      </cc:Work>
    </rdf:RDF>
  </metadata>
  <defs
     id="defs6" />
  <sodipodi:namedview
     pagecolor="#ffffff"
     bordercolor="#666666"
     borderopacity="1"
     objecttolerance="10"
     gridtolerance="10"
     guidetolerance="10"
     inkscape:pageopacity="0"
     inkscape:pageshadow="2"
     inkscape:window-width="1366"
     inkscape:window-height="720"
     id="namedview4"
     showgrid="false"
     inkscape:zoom="0.39111328"
     inkscape:cx="-55.887752"
     inkscape:cy="229.61363"
     inkscape:window-x="0"
     inkscape:window-y="23"
     inkscape:window-maximized="1"
     inkscape:current-layer="svg2"
     inkscape:document-units="px" />
  <g
     id="g870">
    <path
       style="fill:#333333;fill-opacity:1;stroke-width:11.10955906"
       inkscape:connector-curvature="0"
       d="m 432.91329,56.47394 c 102.1929,88.57459 105.82674,249.69974 8.1168,359.89882 C 343.32008,526.57184 181.27963,544.10061 79.08674,455.52602 -23.106204,366.95144 -26.740032,205.82628 70.96994,95.6272 168.67989,-14.57187 330.72032,-32.10065 432.91329,56.47394 Z"
       id="path27-5" />
    <path
       style="opacity:1;fill:#000000;fill-opacity:0.49019608;stroke-width:11.10955906"
       inkscape:connector-curvature="0"
       d="M 511.63553,224.90352 C 510.08411,286.21513 486.4743,349.05809 440.66915,400.71796 342.95912,510.91707 180.91868,528.4458 78.725758,439.87125 30.827126,398.35564 4.4968183,340.92281 0.19382613,280.22881 0.79907966,346.58545 27.117406,410.48218 79.078686,455.51902 c 102.192884,88.5746 264.241054,71.03713 361.943344,-39.15325 49.70496,-56.05815 73.00502,-125.291 70.6135,-191.46225 z"
       id="path51-6" />
    <path
       style="fill:#000000;fill-opacity:0.49019608;stroke-width:1.07498336"
       d="m 396.8838,158.29355 c -8.99173,-9.29709 -9.00663,-9.30936 -11.33991,-7.96452 -1.28469,0.74034 -10.38423,7.04408 -20.22089,14.00752 l -17.88406,12.66012 -8.18774,-4.93748 c -9.09163,-5.48216 -22.92936,-11.52302 -29.94533,-13.07346 -2.51784,-0.55642 -4.94115,-1.38465 -5.38403,-1.84257 -0.44286,-0.45789 -2.45933,-8.30783 -4.47989,-17.44244 -2.02054,-9.13459 -3.93937,-17.23176 -4.26362,-17.99385 -0.67195,-1.57918 -32.68578,-2.44052 -33.15827,-0.89212 -0.16493,0.54054 -2.26628,8.55932 -4.66923,17.81964 -2.40294,9.26028 -4.74316,17.20078 -5.20108,17.64366 -0.4579,0.44285 -2.90681,1.19012 -5.44184,1.66216 -7.0638,1.31531 -21.0956,6.8925 -30.36519,12.06803 l -8.34867,4.66073 -17.45102,-13.25177 c -9.59873,-7.28803 -18.48342,-13.89154 -19.74269,-14.67435 -2.28649,-1.42143 -2.30177,-1.40987 -11.59884,7.58178 -6.53464,6.31997 -9.26663,9.50543 -9.168,10.68923 0.0772,0.92756 6.1848,10.20959 13.57332,20.62642 l 13.43417,18.93857 -4.75134,7.90073 c -5.32841,8.85817 -11.29716,22.48335 -13.11364,29.93858 -0.66238,2.71852 -1.57831,5.30579 -2.03557,5.74803 -0.45726,0.44225 -8.30563,2.45571 -17.44026,4.47621 -9.13463,2.02049 -17.23025,3.93996 -17.99234,4.26422 -1.57755,0.67127 -2.44187,32.68296 -0.89529,33.16006 0.53913,0.16632 8.53583,2.24606 17.77097,4.62014 9.23514,2.3741 17.17603,4.71364 17.64489,5.19843 0.46887,0.48477 1.32024,3.12189 1.8915,5.86098 1.56661,7.51174 7.07545,21.32859 12.10515,30.35975 l 4.48474,8.05374 -14.05727,18.48056 c -7.73211,10.16431 -14.14841,19.23778 -14.25661,20.16224 -0.13711,1.17137 2.39992,4.36619 8.36828,10.53721 5.96837,6.17104 9.07522,8.81179 10.25054,8.71386 0.92756,-0.0773 10.21023,-6.18702 20.62706,-13.57544 l 18.93965,-13.43239 7.89955,4.75109 c 8.85824,5.32842 22.48357,11.29549 29.93879,13.11194 2.71855,0.66244 5.35009,1.644 5.84811,2.18065 0.49796,0.53651 2.60378,8.78551 4.68015,18.33105 2.76261,12.70022 4.26252,17.50839 5.58764,17.92437 3.04617,0.9562 31.24743,0.82888 31.55113,-0.14234 0.15658,-0.5006 2.22656,-8.4655 4.60061,-17.7006 2.37404,-9.2351 4.71333,-17.17487 5.19811,-17.64372 0.48479,-0.46887 3.12336,-1.31944 5.86256,-1.8906 7.51168,-1.56663 21.32863,-7.0771 30.35982,-12.10675 l 8.05498,-4.48491 18.47958,14.05892 c 10.16437,7.73213 19.23739,14.14616 20.16185,14.25435 1.1714,0.13712 4.36477,-2.39899 10.5358,-8.3673 6.17104,-5.96831 8.81235,-9.0752 8.7144,-10.25052 -0.0772,-0.92757 -6.18633,-10.20817 -13.57482,-20.62498 l -13.43268,-18.94003 4.75137,-7.90073 c 5.32839,-8.85819 11.29706,-22.48338 13.11364,-29.93857 0.66229,-2.71857 1.59898,-5.32581 2.08376,-5.79468 0.48478,-0.46886 8.49825,-2.54174 17.80751,-4.60613 9.30926,-2.06439 17.37161,-3.87533 17.91592,-4.02361 1.56167,-0.42518 1.76825,-32.44736 0.21395,-33.17092 -0.7508,-0.34948 -8.77947,-2.5376 -17.84154,-4.86197 -9.06209,-2.32439 -16.83952,-4.60093 -17.28177,-5.05821 -0.44224,-0.45727 -1.27047,-3.0734 -1.84176,-5.81257 -1.56655,-7.51167 -7.07542,-21.32857 -12.10514,-30.35974 l -4.48474,-8.05373 14.05728,-18.48054 c 7.73212,-10.16433 14.14688,-19.23633 14.25509,-20.1608 0.13809,-1.17984 -2.48676,-4.45598 -8.8068,-10.99063 z m -35.92084,35.93426 c 10.77857,11.14459 11.4983,12.08765 11.44952,15.00472 -0.0304,1.82203 -0.7208,3.39624 -1.66437,3.79774 -1.39239,0.59247 -3.47588,-1.24172 -15.3007,-13.46809 -11.82481,-12.22637 -13.587,-14.36844 -12.94836,-15.74027 0.43278,-0.92962 2.02916,-1.56703 3.85121,-1.53663 2.91707,0.0487 3.83417,0.79797 14.6127,11.94253 z m -60.5841,-32.28907 c 1.39987,1.44732 1.95761,2.7753 1.39568,3.31878 -0.51525,0.49832 -11.28659,0.72513 -23.93816,0.5049 -12.6516,-0.22024 -23.40338,-0.81486 -23.89255,-1.32065 -0.51825,-0.53584 0.0831,-1.85891 1.44103,-3.17221 5.05618,-4.89008 40.12144,-4.36851 44.994,0.66918 z m 90.83409,93.91866 c 1.84325,1.90595 2.47577,4.69052 3.01287,13.25073 0.92246,14.70263 -0.78256,28.7773 -3.84625,31.74034 -1.38087,1.33552 -2.69926,1.87125 -3.2361,1.31618 -1.17188,-1.21167 -0.39685,-46.65918 0.81574,-47.83195 0.54258,-0.52475 1.87693,0.10101 3.25374,1.5247 z m -99.87904,6.809 c 1.69086,1.84614 3.05272,3.96411 3.9465,6.24876 4.24675,10.85544 -1.47623,23.14816 -12.58535,27.0319 -5.19866,1.81744 -9.7334,1.65407 -14.81464,-0.53203 -7.5388,-3.24345 -13.1946,-12.11497 -12.73245,-19.97414 0.64167,-10.91222 11.1774,-20.52213 21.81315,-19.89722 5.35123,0.3144 10.65297,3.06119 14.37279,7.12273 z m 77.57668,80.43722 c 0.74421,0.62044 1.2289,2.04321 1.20224,3.6375 -0.0488,2.91587 -0.79972,3.83612 -11.88919,14.56129 -10.51905,10.17348 -12.15625,11.45845 -14.71189,11.54326 -2.91866,0.0968 -4.58197,-0.86442 -4.55245,-2.62927 0.009,-0.53553 6.32003,-7.06897 14.02369,-14.51955 12.09286,-11.6956 14.2228,-13.44687 15.59382,-12.80866 0.11623,0.0541 0.2274,0.12684 0.33381,0.2154 z M 212.13805,181.01044 c 0.23202,0.20103 0.40695,0.42544 0.5095,0.66855 0.61065,1.43513 -1.06658,3.29042 -13.79892,15.2616 -12.43435,11.69102 -14.6855,13.49514 -15.83841,12.68542 -0.73916,-0.51913 -1.2569,-2.25932 -1.14977,-3.8667 0.17433,-2.61547 1.43697,-4.12479 12.03033,-14.37016 11.08948,-10.72517 12.03428,-11.44499 14.95018,-11.39637 1.38571,0.0231 2.60123,0.41437 3.29709,1.01766 z m -47.27391,69.61977 c 1.17186,1.21165 0.39386,46.65914 -0.81872,47.83189 -0.5426,0.52476 -1.87547,-0.0995 -3.25228,-1.52317 -1.84323,-1.90595 -2.47578,-4.69053 -3.01286,-13.25075 -0.92249,-14.70263 0.78255,-28.77731 3.84623,-31.74034 1.38089,-1.33551 2.70078,-1.87271 3.23763,-1.31763 z m 133.19817,137.72136 c 0.52474,0.54256 -0.10026,1.87848 -1.52396,3.25535 -1.90602,1.84329 -4.68987,2.47507 -13.25015,3.01254 -5.96074,0.37426 -15.03467,0.18695 -20.16315,-0.4169 -6.94604,-0.81786 -9.89934,-1.69221 -11.57822,-3.4281 -1.33546,-1.38081 -1.87184,-2.70033 -1.31673,-3.2372 1.21172,-1.1719 46.65953,-0.39819 47.83221,0.81431 z m -101.35008,-35.2542 c 6.889,7.13973 13.34284,14.69985 12.79481,15.87703 -0.42024,0.90273 -1.92535,1.56216 -3.48581,1.52843 -2.27346,-0.0491 -4.2156,-1.4734 -11.31711,-8.29074 -11.67609,-11.2089 -15.35994,-15.8638 -15.14163,-19.13887 0.0976,-1.46351 0.8826,-2.96083 1.7433,-3.32709 1.19376,-0.50796 8.51738,6.21154 15.40644,13.35124 z"
       id="path864"
       inkscape:connector-curvature="0"
       sodipodi:nodetypes="scsccssscsssscccssscccssscssssccccsscccccsscsscccccscccccssccssscccssssssscsssssssssssssssssssscsscssccccscssscsssssssssssssscssscs" />
    <path
       sodipodi:nodetypes="scsccssscsssscccssscccssscssssccccsscccccsscsscccccscccccssccssscccssssssscsssssssssssssssssssscsscssccccscssscsssssssssssssscssscs"
       inkscape:connector-curvature="0"
       id="path2996"
       d="m 376.8838,138.29355 c -8.99173,-9.29709 -9.00663,-9.30936 -11.33991,-7.96452 -1.28469,0.74034 -10.38423,7.04408 -20.22089,14.00752 l -17.88406,12.66012 -8.18774,-4.93748 c -9.09163,-5.48216 -22.92936,-11.52302 -29.94533,-13.07346 -2.51784,-0.55642 -4.94115,-1.38465 -5.38403,-1.84257 -0.44286,-0.45789 -2.45933,-8.30783 -4.47989,-17.44244 -2.02054,-9.13459 -3.93937,-17.23176 -4.26362,-17.99385 -0.67195,-1.57918 -32.68578,-2.440523 -33.15827,-0.89212 -0.16493,0.54054 -2.26628,8.55932 -4.66923,17.81964 -2.40294,9.26028 -4.74316,17.20078 -5.20108,17.64366 -0.4579,0.44285 -2.90681,1.19012 -5.44184,1.66216 -7.0638,1.31531 -21.0956,6.8925 -30.36519,12.06803 l -8.34867,4.66073 -17.45102,-13.25177 c -9.59873,-7.28803 -18.48342,-13.89154 -19.74269,-14.67435 -2.28649,-1.42143 -2.30177,-1.40987 -11.59884,7.58178 -6.53464,6.31997 -9.26663,9.50543 -9.168,10.68923 0.0772,0.92756 6.1848,10.20959 13.57332,20.62642 l 13.43417,18.93857 -4.75134,7.90073 c -5.32841,8.85817 -11.29716,22.48335 -13.11364,29.93858 -0.66238,2.71852 -1.57831,5.30579 -2.03557,5.74803 -0.45726,0.44225 -8.30563,2.45571 -17.44026,4.47621 -9.13463,2.02049 -17.23025,3.93996 -17.99234,4.26422 -1.57755,0.67127 -2.441876,32.68296 -0.89529,33.16006 0.53913,0.16632 8.53583,2.24606 17.77097,4.62014 9.23514,2.3741 17.17603,4.71364 17.64489,5.19843 0.46887,0.48477 1.32024,3.12189 1.8915,5.86098 1.56661,7.51174 7.07545,21.32859 12.10515,30.35975 l 4.48474,8.05374 -14.05727,18.48056 c -7.73211,10.16431 -14.14841,19.23778 -14.25661,20.16224 -0.13711,1.17137 2.39992,4.36619 8.36828,10.53721 5.96837,6.17104 9.07522,8.81179 10.25054,8.71386 0.92756,-0.0773 10.21023,-6.18702 20.62706,-13.57544 l 18.93965,-13.43239 7.89955,4.75109 c 8.85824,5.32842 22.48357,11.29549 29.93879,13.11194 2.71855,0.66244 5.35009,1.644 5.84811,2.18065 0.49796,0.53651 2.60378,8.78551 4.68015,18.33105 2.76261,12.70022 4.26252,17.50839 5.58764,17.92437 3.04617,0.9562 31.24743,0.82888 31.55113,-0.14234 0.15658,-0.5006 2.22656,-8.4655 4.60061,-17.7006 2.37404,-9.2351 4.71333,-17.17487 5.19811,-17.64372 0.48479,-0.46887 3.12336,-1.31944 5.86256,-1.8906 7.51168,-1.56663 21.32863,-7.0771 30.35982,-12.10675 l 8.05498,-4.48491 18.47958,14.05892 c 10.16437,7.73213 19.23739,14.14616 20.16185,14.25435 1.1714,0.13712 4.36477,-2.39899 10.5358,-8.3673 6.17104,-5.96831 8.81235,-9.0752 8.7144,-10.25052 -0.0772,-0.92757 -6.18633,-10.20817 -13.57482,-20.62498 l -13.43268,-18.94003 4.75137,-7.90073 c 5.32839,-8.85819 11.29706,-22.48338 13.11364,-29.93857 0.66229,-2.71857 1.59898,-5.32581 2.08376,-5.79468 0.48478,-0.46886 8.49825,-2.54174 17.80751,-4.60613 9.30926,-2.06439 17.37161,-3.87533 17.91592,-4.02361 1.56167,-0.42518 1.76825,-32.44736 0.21395,-33.17092 -0.7508,-0.34948 -8.77947,-2.5376 -17.84154,-4.86197 -9.06209,-2.32439 -16.83952,-4.60093 -17.28177,-5.05821 -0.44224,-0.45727 -1.27047,-3.0734 -1.84176,-5.81257 -1.56655,-7.51167 -7.07542,-21.32857 -12.10514,-30.35974 l -4.48474,-8.05373 14.05728,-18.48054 c 7.73212,-10.16433 14.14688,-19.23633 14.25509,-20.1608 0.13809,-1.17984 -2.48676,-4.45598 -8.8068,-10.99063 z m -35.92084,35.93426 c 10.77857,11.14459 11.4983,12.08765 11.44952,15.00472 -0.0304,1.82203 -0.7208,3.39624 -1.66437,3.79774 -1.39239,0.59247 -3.47588,-1.24172 -15.3007,-13.46809 -11.82481,-12.22637 -13.587,-14.36844 -12.94836,-15.74027 0.43278,-0.92962 2.02916,-1.56703 3.85121,-1.53663 2.91707,0.0487 3.83417,0.79797 14.6127,11.94253 z m -60.5841,-32.28907 c 1.39987,1.44732 1.95761,2.7753 1.39568,3.31878 -0.51525,0.49832 -11.28659,0.72513 -23.93816,0.5049 -12.6516,-0.22024 -23.40338,-0.81486 -23.89255,-1.32065 -0.51825,-0.53584 0.0831,-1.85891 1.44103,-3.17221 5.05618,-4.89008 40.12144,-4.36851 44.994,0.66918 z m 90.83409,93.91866 c 1.84325,1.90595 2.47577,4.69052 3.01287,13.25073 0.92246,14.70263 -0.78256,28.7773 -3.84625,31.74034 -1.38087,1.33552 -2.69926,1.87125 -3.2361,1.31618 -1.17188,-1.21167 -0.39685,-46.65918 0.81574,-47.83195 0.54258,-0.52475 1.87693,0.10101 3.25374,1.5247 z m -99.87904,6.809 c 1.69086,1.84614 3.05272,3.96411 3.9465,6.24876 4.24675,10.85544 -1.47623,23.14816 -12.58535,27.0319 -5.19866,1.81744 -9.7334,1.65407 -14.81464,-0.53203 -7.5388,-3.24345 -13.1946,-12.11497 -12.73245,-19.97414 0.64167,-10.91222 11.1774,-20.52213 21.81315,-19.89722 5.35123,0.3144 10.65297,3.06119 14.37279,7.12273 z m 77.57668,80.43722 c 0.74421,0.62044 1.2289,2.04321 1.20224,3.6375 -0.0488,2.91587 -0.79972,3.83612 -11.88919,14.56129 -10.51905,10.17348 -12.15625,11.45845 -14.71189,11.54326 -2.91866,0.0968 -4.58197,-0.86442 -4.55245,-2.62927 0.009,-0.53553 6.32003,-7.06897 14.02369,-14.51955 12.09286,-11.6956 14.2228,-13.44687 15.59382,-12.80866 0.11623,0.0541 0.2274,0.12684 0.33381,0.2154 z M 192.13805,161.01044 c 0.23202,0.20103 0.40695,0.42544 0.5095,0.66855 0.61065,1.43513 -1.06658,3.29042 -13.79892,15.2616 -12.43435,11.69102 -14.6855,13.49514 -15.83841,12.68542 -0.73916,-0.51913 -1.2569,-2.25932 -1.14977,-3.8667 0.17433,-2.61547 1.43697,-4.12479 12.03033,-14.37016 11.08948,-10.72517 12.03428,-11.44499 14.95018,-11.39637 1.38571,0.0231 2.60123,0.41437 3.29709,1.01766 z m -47.27391,69.61977 c 1.17186,1.21165 0.39386,46.65914 -0.81872,47.83189 -0.5426,0.52476 -1.87547,-0.0995 -3.25228,-1.52317 -1.84323,-1.90595 -2.47578,-4.69053 -3.01286,-13.25075 -0.92249,-14.70263 0.78255,-28.77731 3.84623,-31.74034 1.38089,-1.33551 2.70078,-1.87271 3.23763,-1.31763 z m 133.19817,137.72136 c 0.52474,0.54256 -0.10026,1.87848 -1.52396,3.25535 -1.90602,1.84329 -4.68987,2.47507 -13.25015,3.01254 -5.96074,0.37426 -15.03467,0.18695 -20.16315,-0.4169 -6.94604,-0.81786 -9.89934,-1.69221 -11.57822,-3.4281 -1.33546,-1.38081 -1.87184,-2.70033 -1.31673,-3.2372 1.21172,-1.1719 46.65953,-0.39819 47.83221,0.81431 z m -101.35008,-35.2542 c 6.889,7.13973 13.34284,14.69985 12.79481,15.87703 -0.42024,0.90273 -1.92535,1.56216 -3.48581,1.52843 -2.27346,-0.0491 -4.2156,-1.4734 -11.31711,-8.29074 -11.67609,-11.2089 -15.35994,-15.8638 -15.14163,-19.13887 0.0976,-1.46351 0.8826,-2.96083 1.7433,-3.32709 1.19376,-0.50796 8.51738,6.21154 15.40644,13.35124 z"
       style="fill:#ffffff;fill-opacity:1;stroke-width:1.07498336" />
  </g>
</svg>
