<?xml version="1.0" encoding="UTF-8" standalone="no"?>
<svg
   xmlns:dc="http://purl.org/dc/elements/1.1/"
   xmlns:cc="http://creativecommons.org/ns#"
   xmlns:rdf="http://www.w3.org/1999/02/22-rdf-syntax-ns#"
   xmlns:svg="http://www.w3.org/2000/svg"
   xmlns="http://www.w3.org/2000/svg"
   xmlns:sodipodi="http://sodipodi.sourceforge.net/DTD/sodipodi-0.dtd"
   xmlns:inkscape="http://www.inkscape.org/namespaces/inkscape"
   width="512"
   height="512"
   version="1.1"
   id="svg2"
   inkscape:version="0.92.3 (2405546, 2018-03-11)"
   sodipodi:docname="gnome-tali.svg"
   viewBox="0 0 512 512">
  <sodipodi:namedview
     pagecolor="#ffffff"
     bordercolor="#666666"
     borderopacity="1"
     objecttolerance="10"
     gridtolerance="10"
     guidetolerance="10"
     inkscape:pageopacity="0"
     inkscape:pageshadow="2"
     inkscape:window-width="1366"
     inkscape:window-height="720"
     id="namedview17"
     showgrid="false"
     inkscape:zoom="0.32593203"
     inkscape:cx="210.50174"
     inkscape:cy="-109.3954"
     inkscape:window-x="0"
     inkscape:window-y="23"
     inkscape:window-maximized="1"
     inkscape:current-layer="svg2"
     inkscape:document-units="px" />
  <title
     id="title4">Double Dice Icon</title>
  <desc
     id="desc6">This icon is a part of Clarity icon theme for gtk</desc>
  <metadata
     id="metadata8">
    <rdf:RDF>
      <cc:Work
         rdf:about="">
        <dc:title>Double Dice Icon</dc:title>
        <dc:description>This icon is a part of Clarity icon theme for gtk</dc:description>
        <dc:creator>
          <cc:Agent>
            <dc:title>Jakub Jankiewicz</dc:title>
          </cc:Agent>
        </dc:creator>
        <dc:rights>
          <cc:Agent>
            <dc:title>Jakub Jankiewicz</dc:title>
          </cc:Agent>
        </dc:rights>
        <dc:date>2010</dc:date>
        <dc:format>image/svg+xml</dc:format>
        <dc:type
           rdf:resource="http://purl.org/dc/dcmitype/StillImage" />
        <cc:license
           rdf:resource="http://www.gnu.org/copyleft/gpl.html" />
      </cc:Work>
    </rdf:RDF>
  </metadata>
  <defs
     id="defs10">
    <linearGradient
       x1="0"
       y1="128"
       x2="128"
       y2="0"
       id="gradient"
       gradientUnits="userSpaceOnUse">
      <stop
         id="start"
         style="stop-color:#dbdbdb;stop-opacity:1"
         offset="0" />
      <stop
         id="stop"
         style="stop-color:#757575;stop-opacity:1"
         offset="1" />
    </linearGradient>
  </defs>
  <g
     id="g928">
    <path
       style="fill:#3689e6;fill-opacity:1;stroke-width:11.10955811"
       inkscape:connector-curvature="0"
       d="M 432.91327,56.473975 C 535.10618,145.04855 538.74005,306.17367 441.03007,416.37275 343.3201,526.57182 181.27964,544.10063 79.086729,455.52601 -23.106186,366.95142 -26.740042,205.8263 70.969928,95.627235 168.6799,-14.571845 330.72036,-32.100615 432.91327,56.473975 Z"
       id="path27" />
    <path
       style="opacity:1;fill:#000000;fill-opacity:0.49019608;stroke-width:11.10955811"
       inkscape:connector-curvature="0"
       d="M 511.63551,224.90351 C 510.08412,286.21517 486.47428,349.05812 440.66913,400.71798 342.95915,510.91712 180.91869,528.44583 78.725776,439.87128 30.827124,398.35563 4.4968216,340.92283 0.19382778,280.2288 0.79907944,346.58547 27.117411,410.48217 79.078682,455.51906 181.27159,544.09362 343.31975,526.55623 441.02202,416.36576 490.72697,360.30765 514.02704,291.0748 511.63551,224.90351 Z"
       id="path51" />
    <path
       style="fill:#000000;fill-opacity:0.49019608;stroke:none;stroke-width:96.26317596;stroke-linecap:round;stroke-linejoin:bevel;stroke-miterlimit:4;stroke-dasharray:none;stroke-opacity:1"
       d="M 170.73935,120 C 142.62891,120 120,143.84601 120,173.467 V 378.53023 C 120,408.15123 142.62891,432 170.73935,432 H 381.25789 C 409.36833,432 432,408.15123 432,378.53023 V 173.467 C 432,143.84601 409.36833,120 381.25789,120 Z m 45.62672,27.09968 c 19.75812,-9.3e-4 35.77548,16.01643 35.77456,35.77455 -5.9e-4,19.75705 -16.01751,35.77273 -35.77456,35.77179 -19.75596,-6.1e-4 -35.77119,-16.01583 -35.77179,-35.77179 -9.2e-4,-19.75703 16.01475,-35.77394 35.77179,-35.77455 z m 119.24299,0 c 19.75812,-9.2e-4 35.77547,16.01643 35.77455,35.77455 -6e-4,19.75704 -16.01752,35.77271 -35.77455,35.77179 -19.75596,-6.1e-4 -35.7712,-16.01583 -35.77179,-35.77179 -9.2e-4,-19.75703 16.01475,-35.77394 35.77179,-35.77455 z m -119.24299,95.39605 c 19.75705,-9.4e-4 35.77397,16.01474 35.77456,35.77179 -5.9e-4,19.75705 -16.01751,35.77272 -35.77456,35.77179 -19.75596,-6.1e-4 -35.77119,-16.01583 -35.77179,-35.77179 6e-4,-19.75596 16.01583,-35.77118 35.77179,-35.77179 z m 119.24299,0 c 19.75703,-9.2e-4 35.77395,16.01475 35.77455,35.77179 -6e-4,19.75704 -16.01752,35.77271 -35.77455,35.77179 -19.75596,-6.1e-4 -35.7712,-16.01583 -35.77179,-35.77179 5.9e-4,-19.75596 16.01583,-35.77118 35.77179,-35.77179 z m -119.24299,95.39328 c 19.75705,-9.3e-4 35.77397,16.01474 35.77456,35.7718 9.2e-4,19.75812 -16.01644,35.77548 -35.77456,35.77455 -19.75704,-6.1e-4 -35.77271,-16.01752 -35.77179,-35.77455 6e-4,-19.75597 16.01583,-35.77119 35.77179,-35.7718 z m 119.24299,0 c 19.75703,-9.1e-4 35.77395,16.01476 35.77455,35.7718 9.2e-4,19.75812 -16.01643,35.77547 -35.77455,35.77455 -19.75704,-6.1e-4 -35.77271,-16.01752 -35.77179,-35.77455 5.9e-4,-19.75597 16.01583,-35.77119 35.77179,-35.7718 z"
       id="path922"
       inkscape:connector-curvature="0"
       sodipodi:nodetypes="ssssssssscccccccccccccccccccccccccccccc" />
    <path
       sodipodi:nodetypes="ssssssssscccccccccccccccccccccccccccccc"
       inkscape:connector-curvature="0"
       id="rect3001"
       d="M 150.73935,100 C 122.62891,100 100,123.84601 100,153.467 V 358.53023 C 100,388.15123 122.62891,412 150.73935,412 H 361.25789 C 389.36833,412 412,388.15123 412,358.53023 V 153.467 C 412,123.84601 389.36833,100 361.25789,100 Z m 45.62672,27.09968 c 19.75812,-9.3e-4 35.77548,16.01643 35.77456,35.77455 -5.9e-4,19.75705 -16.01751,35.77273 -35.77456,35.77179 -19.75596,-6.1e-4 -35.77119,-16.01583 -35.77179,-35.77179 -9.2e-4,-19.75703 16.01475,-35.77394 35.77179,-35.77455 z m 119.24299,0 c 19.75812,-9.2e-4 35.77547,16.01643 35.77455,35.77455 -6e-4,19.75704 -16.01752,35.77271 -35.77455,35.77179 -19.75596,-6.1e-4 -35.7712,-16.01583 -35.77179,-35.77179 -9.2e-4,-19.75703 16.01475,-35.77394 35.77179,-35.77455 z m -119.24299,95.39605 c 19.75705,-9.4e-4 35.77397,16.01474 35.77456,35.77179 -5.9e-4,19.75705 -16.01751,35.77272 -35.77456,35.77179 -19.75596,-6.1e-4 -35.77119,-16.01583 -35.77179,-35.77179 6e-4,-19.75596 16.01583,-35.77118 35.77179,-35.77179 z m 119.24299,0 c 19.75703,-9.2e-4 35.77395,16.01475 35.77455,35.77179 -6e-4,19.75704 -16.01752,35.77271 -35.77455,35.77179 -19.75596,-6.1e-4 -35.7712,-16.01583 -35.77179,-35.77179 5.9e-4,-19.75596 16.01583,-35.77118 35.77179,-35.77179 z m -119.24299,95.39328 c 19.75705,-9.3e-4 35.77397,16.01474 35.77456,35.7718 9.2e-4,19.75812 -16.01644,35.77548 -35.77456,35.77455 -19.75704,-6.1e-4 -35.77271,-16.01752 -35.77179,-35.77455 6e-4,-19.75597 16.01583,-35.77119 35.77179,-35.7718 z m 119.24299,0 c 19.75703,-9.1e-4 35.77395,16.01476 35.77455,35.7718 9.2e-4,19.75812 -16.01643,35.77547 -35.77455,35.77455 -19.75704,-6.1e-4 -35.77271,-16.01752 -35.77179,-35.77455 5.9e-4,-19.75597 16.01583,-35.77119 35.77179,-35.7718 z"
       style="fill:#ffffff;fill-opacity:1;stroke:none;stroke-width:96.26317596;stroke-linecap:round;stroke-linejoin:bevel;stroke-miterlimit:4;stroke-dasharray:none;stroke-opacity:1" />
  </g>
</svg>
