<?xml version="1.0" encoding="UTF-8" standalone="no"?>
<!-- Created with Inkscape (http://www.inkscape.org/) -->

<svg
   xmlns:osb="http://www.openswatchbook.org/uri/2009/osb"
   xmlns:dc="http://purl.org/dc/elements/1.1/"
   xmlns:cc="http://creativecommons.org/ns#"
   xmlns:rdf="http://www.w3.org/1999/02/22-rdf-syntax-ns#"
   xmlns:svg="http://www.w3.org/2000/svg"
   xmlns="http://www.w3.org/2000/svg"
   xmlns:sodipodi="http://sodipodi.sourceforge.net/DTD/sodipodi-0.dtd"
   xmlns:inkscape="http://www.inkscape.org/namespaces/inkscape"
   width="512"
   height="512"
   id="svg859"
   version="1.1"
   inkscape:version="0.92.3 (2405546, 2018-03-11)"
   sodipodi:docname="gnome-panel-window-menu.svg"
   viewBox="0 0 512 512">
  <defs
     id="defs861">
    <linearGradient
       id="linearGradient4241"
       osb:paint="solid">
      <stop
         style="stop-color:#ba174e;stop-opacity:1;"
         offset="0"
         id="stop4243" />
    </linearGradient>
  </defs>
  <sodipodi:namedview
     id="base"
     pagecolor="#ffffff"
     bordercolor="#666666"
     borderopacity="1.0"
     inkscape:pageopacity="0.0"
     inkscape:pageshadow="2"
     inkscape:zoom="0.39111328"
     inkscape:cx="817.7224"
     inkscape:cy="209.55484"
     inkscape:document-units="px"
     inkscape:current-layer="layer1"
     showgrid="false"
     width="0px"
     height="0px"
     fit-margin-top="0"
     fit-margin-left="0"
     fit-margin-right="0"
     fit-margin-bottom="0"
     inkscape:window-width="1366"
     inkscape:window-height="720"
     inkscape:window-x="0"
     inkscape:window-y="23"
     inkscape:window-maximized="1" />
  <metadata
     id="metadata864">
    <rdf:RDF>
      <cc:Work
         rdf:about="">
        <dc:format>image/svg+xml</dc:format>
        <dc:type
           rdf:resource="http://purl.org/dc/dcmitype/StillImage" />
        <dc:title></dc:title>
      </cc:Work>
    </rdf:RDF>
  </metadata>
  <g
     inkscape:label="Capa 1"
     inkscape:groupmode="layer"
     id="layer1"
     transform="translate(0,-540.3622)">
    <g
       transform="translate(-1.1584018e-7,1.1332384e-5)"
       id="g902">
      <path
         style="fill:#3689e6;fill-opacity:1;stroke-width:11.10955238"
         inkscape:connector-curvature="0"
         d="m 432.91335,596.8362 c 102.1928,88.5746 105.82667,249.69972 8.11679,359.89878 C 343.32008,1066.934 181.27947,1084.4628 79.086671,995.88824 -23.106166,907.31365 -26.740026,746.18854 70.969879,635.98946 168.67975,525.79038 330.72028,508.26161 432.91335,596.8362 Z"
         id="path911" />
      <path
         style="opacity:1;fill:#000000;fill-opacity:0.49019608;stroke-width:11.10955238"
         inkscape:connector-curvature="0"
         d="M 511.63499,765.26575 C 510.08359,826.5774 486.47378,889.42034 440.66868,941.08023 342.95882,1051.2793 180.91853,1068.808 78.725718,980.23349 30.827115,938.71786 4.4968406,881.28506 0.19385127,820.59102 0.79910207,886.9477 27.117407,950.84441 79.078622,995.88126 181.27143,1084.4558 343.3194,1066.9184 441.02158,956.728 490.72647,900.66986 514.02654,831.43703 511.63499,765.26575 Z"
         id="path913" />
      <g
         style="fill:#000000;fill-opacity:0.49411765"
         transform="translate(20.000128,1013.3613)"
         id="g855">
        <path
           sodipodi:nodetypes="ccccccccccccccccccccsssssssssssssss"
           inkscape:connector-curvature="0"
           id="path851"
           d="m 256.57227,-315.8457 c -87.6555,-0.006 -127.60554,0.19224 -130.11133,0.64648 -12.49721,2.2656 -23.54886,13.31724 -25.81446,25.81445 -0.4496,2.47989 -0.652483,33.11776 -0.64648,97.50782 0.008,81.5257 0.12985,94.406013 0.92773,97.791012 2.67196,11.335296 12.03142,21.050166 23.25196,24.134766 1.32812,0.365045 24.95816,0.612276 56.42969,0.767578 v -12.800781 c -55.46593,-0.04888 -54.05439,-0.492046 -57.79688,-2.443359 -2.63625,-1.374704 -6.85342,-6.136786 -8.40234,-9.488282 l -1.31641,-2.849609 -0.16406,-70.541015 -0.16602,-70.54102 h 143.24219 143.24219 l -0.0293,12.22071 12.78125,10 c -0.0135,-69.5768 -0.28284,-76.11935 -3.79102,-82.80274 -2.49693,-4.75689 -8.86029,-11.12023 -13.61718,-13.61719 -7.69426,-4.03876 1.38177,-3.78882 -138.01953,-3.79882 z M 145,-289 c 8.28427,0 15,6.71573 15,15 0,8.28427 -6.71573,15 -15,15 -8.28427,0 -15,-6.71573 -15,-15 0,-8.28427 6.71573,-15 15,-15 z m 44,0 c 8.28427,0 15,6.71573 15,15 0,8.28427 -6.71573,15 -15,15 -8.28427,0 -15,-6.71573 -15,-15 0,-8.28427 6.71573,-15 15,-15 z m 44,0 c 8.28427,0 15,6.71573 15,15 0,8.28427 -6.71573,15 -15,15 -8.28427,0 -15,-6.71573 -15,-15 0,-8.28427 6.71573,-15 15,-15 z"
           style="fill:#000000;fill-opacity:0.49411765;stroke-width:0.60942405" />
        <path
           inkscape:connector-curvature="0"
           style="fill:#000000;fill-opacity:0.49411765;stroke-width:0.44070628"
           d="m 299.60206,-219.50673 c -63.38826,-0.004 -92.27822,0.13902 -94.09028,0.4675 -9.03739,1.63837 -17.0294,9.63039 -18.66778,18.66777 -0.32513,1.79334 -0.47184,23.94918 -0.4675,70.51299 0.006,58.955481 0.0939,68.269907 0.67088,70.717777 1.93224,8.197142 8.70055,15.222473 16.81471,17.453108 3.28875,0.90394 187.06895,0.924552 190.463,0.02141 8.26742,-2.200396 15.05207,-9.169754 17.00962,-17.474287 0.57725,-2.448883 0.66383,-11.790826 0.66383,-71.128778 0,-75.26073 0.14793,-71.14092 -2.74007,-76.64284 -1.80567,-3.43995 -6.40734,-8.04163 -9.8473,-9.84729 -5.56412,-2.92064 0.99923,-2.73989 -99.80911,-2.74712 z m -80.68372,19.41352 a 10.847282,10.847282 0 0 1 10.84729,10.84728 10.847282,10.847282 0 0 1 -10.84729,10.84728 10.847282,10.847282 0 0 1 -10.84728,-10.84728 10.847282,10.847282 0 0 1 10.84728,-10.84728 z m 31.8187,0 a 10.847282,10.847282 0 0 1 10.84728,10.84728 10.847282,10.847282 0 0 1 -10.84728,10.84728 10.847282,10.847282 0 0 1 -10.84729,-10.84728 10.847282,10.847282 0 0 1 10.84729,-10.84728 z m 31.81868,0 a 10.847282,10.847282 0 0 1 10.84728,10.84728 10.847282,10.847282 0 0 1 -10.84728,10.84728 10.847282,10.847282 0 0 1 -10.84727,-10.84728 10.847282,10.847282 0 0 1 10.84727,-10.84728 z m -86.94915,36.99093 h 103.58589 103.58589 l -0.12149,51.01188 -0.12004,51.011891 -0.96044,2.079062 c -1.34897,2.919938 -4.59388,6.226588 -7.31909,7.458914 l -2.29798,1.038123 -92.10726,0.08331 c -96.45926,0.08672 -93.37354,0.142432 -96.97866,-1.737255 -1.90641,-0.99412 -4.95606,-4.437833 -6.07616,-6.861474 l -0.95197,-2.060695 -0.11866,-51.011886 z"
           id="path853" />
      </g>
      <g
         transform="translate(-4.0948178e-7,988.36221)"
         id="g849">
        <path
           style="fill:#ffffff;stroke-width:0.60942405"
           d="m 256.57227,-315.8457 c -87.6555,-0.006 -127.60554,0.19224 -130.11133,0.64648 -12.49721,2.2656 -23.54886,13.31724 -25.81446,25.81445 -0.4496,2.47989 -0.652483,33.11776 -0.64648,97.50782 0.008,81.5257 0.12985,94.406013 0.92773,97.791012 2.67196,11.335296 12.03142,21.050166 23.25196,24.134766 1.32812,0.365045 24.95816,0.612276 56.42969,0.767578 v -12.800781 c -55.46593,-0.04888 -54.05439,-0.492046 -57.79688,-2.443359 -2.63625,-1.374704 -6.85342,-6.136786 -8.40234,-9.488282 l -1.31641,-2.849609 -0.16406,-70.541015 -0.16602,-70.54102 h 143.24219 143.24219 l -0.0293,12.22071 12.78125,10 c -0.0135,-69.5768 -0.28284,-76.11935 -3.79102,-82.80274 -2.49693,-4.75689 -8.86029,-11.12023 -13.61718,-13.61719 -7.69426,-4.03876 1.38177,-3.78882 -138.01953,-3.79882 z M 145,-289 c 8.28427,0 15,6.71573 15,15 0,8.28427 -6.71573,15 -15,15 -8.28427,0 -15,-6.71573 -15,-15 0,-8.28427 6.71573,-15 15,-15 z m 44,0 c 8.28427,0 15,6.71573 15,15 0,8.28427 -6.71573,15 -15,15 -8.28427,0 -15,-6.71573 -15,-15 0,-8.28427 6.71573,-15 15,-15 z m 44,0 c 8.28427,0 15,6.71573 15,15 0,8.28427 -6.71573,15 -15,15 -8.28427,0 -15,-6.71573 -15,-15 0,-8.28427 6.71573,-15 15,-15 z"
           id="path936"
           inkscape:connector-curvature="0"
           sodipodi:nodetypes="ccccccccccccccccccccsssssssssssssss" />
        <path
           id="path841"
           d="m 299.60206,-219.50673 c -63.38826,-0.004 -92.27822,0.13902 -94.09028,0.4675 -9.03739,1.63837 -17.0294,9.63039 -18.66778,18.66777 -0.32513,1.79334 -0.47184,23.94918 -0.4675,70.51299 0.006,58.955481 0.0939,68.269907 0.67088,70.717777 1.93224,8.197142 8.70055,15.222473 16.81471,17.453108 3.28875,0.90394 187.06895,0.924552 190.463,0.02141 8.26742,-2.200396 15.05207,-9.169754 17.00962,-17.474287 0.57725,-2.448883 0.66383,-11.790826 0.66383,-71.128778 0,-75.26073 0.14793,-71.14092 -2.74007,-76.64284 -1.80567,-3.43995 -6.40734,-8.04163 -9.8473,-9.84729 -5.56412,-2.92064 0.99923,-2.73989 -99.80911,-2.74712 z m -80.68372,19.41352 a 10.847282,10.847282 0 0 1 10.84729,10.84728 10.847282,10.847282 0 0 1 -10.84729,10.84728 10.847282,10.847282 0 0 1 -10.84728,-10.84728 10.847282,10.847282 0 0 1 10.84728,-10.84728 z m 31.8187,0 a 10.847282,10.847282 0 0 1 10.84728,10.84728 10.847282,10.847282 0 0 1 -10.84728,10.84728 10.847282,10.847282 0 0 1 -10.84729,-10.84728 10.847282,10.847282 0 0 1 10.84729,-10.84728 z m 31.81868,0 a 10.847282,10.847282 0 0 1 10.84728,10.84728 10.847282,10.847282 0 0 1 -10.84728,10.84728 10.847282,10.847282 0 0 1 -10.84727,-10.84728 10.847282,10.847282 0 0 1 10.84727,-10.84728 z m -86.94915,36.99093 h 103.58589 103.58589 l -0.12149,51.01188 -0.12004,51.011891 -0.96044,2.079062 c -1.34897,2.919938 -4.59388,6.226588 -7.31909,7.458914 l -2.29798,1.038123 -92.10726,0.08331 c -96.45926,0.08672 -93.37354,0.142432 -96.97866,-1.737255 -1.90641,-0.99412 -4.95606,-4.437833 -6.07616,-6.861474 l -0.95197,-2.060695 -0.11866,-51.011886 z"
           style="fill:#ffffff;stroke-width:0.44070628"
           inkscape:connector-curvature="0" />
      </g>
    </g>
  </g>
</svg>
