<?xml version="1.0" encoding="UTF-8" standalone="no"?>
<!-- Created with Inkscape (http://www.inkscape.org/) -->

<svg
   xmlns:dc="http://purl.org/dc/elements/1.1/"
   xmlns:cc="http://creativecommons.org/ns#"
   xmlns:rdf="http://www.w3.org/1999/02/22-rdf-syntax-ns#"
   xmlns:svg="http://www.w3.org/2000/svg"
   xmlns="http://www.w3.org/2000/svg"
   xmlns:sodipodi="http://sodipodi.sourceforge.net/DTD/sodipodi-0.dtd"
   xmlns:inkscape="http://www.inkscape.org/namespaces/inkscape"
   width="512"
   height="512"
   id="svg2"
   version="1.1"
   inkscape:version="0.92.3 (2405546, 2018-03-11)"
   sodipodi:docname="gnome-settings-accessibility-technologies.svg">
  <defs
     id="defs4" />
  <sodipodi:namedview
     id="base"
     pagecolor="#ffffff"
     bordercolor="#666666"
     borderopacity="1.0"
     inkscape:pageopacity="0.0"
     inkscape:pageshadow="2"
     inkscape:zoom="0.69999999"
     inkscape:cx="463.52956"
     inkscape:cy="271.79915"
     inkscape:document-units="px"
     inkscape:current-layer="layer1"
     showgrid="false"
     inkscape:window-width="1366"
     inkscape:window-height="720"
     inkscape:window-x="0"
     inkscape:window-y="23"
     inkscape:window-maximized="1" />
  <metadata
     id="metadata7">
    <rdf:RDF>
      <cc:Work
         rdf:about="">
        <dc:format>image/svg+xml</dc:format>
        <dc:type
           rdf:resource="http://purl.org/dc/dcmitype/StillImage" />
        <dc:title></dc:title>
      </cc:Work>
    </rdf:RDF>
  </metadata>
  <g
     inkscape:label="Layer 1"
     inkscape:groupmode="layer"
     id="layer1"
     transform="translate(0,-540.36218)">
    <g
       transform="translate(1.7735078e-7,1.9364447e-6)"
       id="g861">
      <path
         id="path1165"
         d="m 432.91325,596.83611 c 102.19291,88.57459 105.82677,249.69975 8.1168,359.89883 C 343.32005,1066.934 181.27961,1084.4628 79.08674,995.8882 -23.106205,907.31361 -26.740032,746.18846 70.96994,635.98937 168.67987,525.79029 330.72032,508.26152 432.91325,596.83611 Z"
         inkscape:connector-curvature="0"
         style="fill:#f9c440;fill-opacity:1;stroke-width:11.10955906" />
      <path
         id="path1167"
         d="M 511.63548,765.2657 C 510.0841,826.57731 486.47426,889.42027 440.66911,941.08014 342.95911,1051.2793 180.91867,1068.808 78.725757,980.23343 30.827125,938.71782 4.4968191,881.28499 0.19382686,820.59099 0.79908041,886.94763 27.117405,950.84436 79.07869,995.88121 181.27156,1084.4558 343.31971,1066.9183 441.022,956.72795 490.72695,900.6698 514.02702,831.43695 511.63548,765.2657 Z"
         inkscape:connector-curvature="0"
         style="opacity:1;fill:#000000;fill-opacity:0.49019608;stroke-width:11.10955906" />
      <g
         transform="matrix(15.600001,0,0,15.600001,100.86798,645.49583)"
         id="g851"
         style="fill:#000000;fill-opacity:0.49019608">
        <path
           sodipodi:open="true"
           sodipodi:end="6.2784904"
           sodipodi:start="0"
           d="M 13.109706,2.9727294 A 2.0585997,2.019758 0 0 1 11.053523,4.992486 2.0585997,2.019758 0 0 1 8.9925124,2.9774707 2.0585997,2.019758 0 0 1 11.043858,0.95298398 2.0585997,2.019758 0 0 1 13.109683,2.9632469"
           sodipodi:ry="2.019758"
           sodipodi:rx="2.0585997"
           sodipodi:cy="2.9727294"
           sodipodi:cx="11.051106"
           id="path847"
           style="fill:#000000;fill-opacity:0.49019608;stroke:none"
           sodipodi:type="arc" />
        <path
           sodipodi:nodetypes="zczczczzczcczcczczzcz"
           inkscape:connector-curvature="0"
           id="path849"
           d="m 2.278332,6.0226262 c 0.18828,-0.8056 0.87119,-0.81311 0.87119,-0.81311 0,0 5.48673,0.57833 8.18917,0.58079 2.70245,0.002 7.98591,-0.55175 7.98591,-0.55175 0,0 0.79321,0.0173 0.90022,0.78407 0.10702,0.7668 -0.49367,0.98735 -0.49367,0.98735 0,0 -5.16801,0.79214 -5.80793,1.48102 -0.63991,0.68888 -0.3186,2.7343398 -0.11616,4.5882598 0.20245,1.85392 1.5391,6.38872 1.5391,6.38872 0,0 0.33463,1.13127 -0.52271,1.42295 -0.85734,0.29167 -1.3259,-0.5397 -1.3259,-0.5397 l -1.63614,-4.91976 c 0,0 -0.24739,-0.94743 -0.60983,-0.95831 -0.36245,-0.0109 -0.60984,0.84215 -0.60984,0.84215 l -1.48102,4.79155 c 0,0 -0.40346,1.04047 -1.36486,0.78407 -0.96141,-0.25641 -0.63887,-1.36487 -0.63887,-1.36487 0,0 1.28581,-4.40964 1.48102,-6.24352 0.19521,-1.83389 0.5224,-4.1456098 -0.31944,-4.8786598 -0.84184,-0.73306 -5.34329,-1.33583 -5.34329,-1.33583 0,0 -0.88524,-0.23982 -0.69695,-1.04542 z"
           style="fill:#000000;fill-opacity:0.49019608;stroke:none" />
      </g>
      <g
         style="fill:#ffffff"
         id="g4143"
         transform="matrix(15.600001,0,0,15.600001,80.867982,625.49582)">
        <path
           sodipodi:type="arc"
           style="fill:#ffffff;fill-opacity:1;stroke:none"
           id="path3760"
           sodipodi:cx="11.051106"
           sodipodi:cy="2.9727294"
           sodipodi:rx="2.0585997"
           sodipodi:ry="2.019758"
           d="M 13.109706,2.9727294 A 2.0585997,2.019758 0 0 1 11.053523,4.992486 2.0585997,2.019758 0 0 1 8.9925124,2.9774707 2.0585997,2.019758 0 0 1 11.043858,0.95298398 2.0585997,2.019758 0 0 1 13.109683,2.9632469"
           sodipodi:start="0"
           sodipodi:end="6.2784904"
           sodipodi:open="true" />
        <path
           style="fill:#ffffff;fill-opacity:1;stroke:none"
           d="m 2.278332,6.0226262 c 0.18828,-0.8056 0.87119,-0.81311 0.87119,-0.81311 0,0 5.48673,0.57833 8.18917,0.58079 2.70245,0.002 7.98591,-0.55175 7.98591,-0.55175 0,0 0.79321,0.0173 0.90022,0.78407 0.10702,0.7668 -0.49367,0.98735 -0.49367,0.98735 0,0 -5.16801,0.79214 -5.80793,1.48102 -0.63991,0.68888 -0.3186,2.7343398 -0.11616,4.5882598 0.20245,1.85392 1.5391,6.38872 1.5391,6.38872 0,0 0.33463,1.13127 -0.52271,1.42295 -0.85734,0.29167 -1.3259,-0.5397 -1.3259,-0.5397 l -1.63614,-4.91976 c 0,0 -0.24739,-0.94743 -0.60983,-0.95831 -0.36245,-0.0109 -0.60984,0.84215 -0.60984,0.84215 l -1.48102,4.79155 c 0,0 -0.40346,1.04047 -1.36486,0.78407 -0.96141,-0.25641 -0.63887,-1.36487 -0.63887,-1.36487 0,0 1.28581,-4.40964 1.48102,-6.24352 0.19521,-1.83389 0.5224,-4.1456098 -0.31944,-4.8786598 -0.84184,-0.73306 -5.34329,-1.33583 -5.34329,-1.33583 0,0 -0.88524,-0.23982 -0.69695,-1.04542 z"
           id="path2983"
           inkscape:connector-curvature="0"
           sodipodi:nodetypes="zczczczzczcczcczczzcz" />
      </g>
    </g>
  </g>
</svg>
