<?xml version="1.0" encoding="UTF-8" standalone="no"?>
<!-- Created with Inkscape (http://www.inkscape.org/) -->

<svg
   xmlns:dc="http://purl.org/dc/elements/1.1/"
   xmlns:cc="http://creativecommons.org/ns#"
   xmlns:rdf="http://www.w3.org/1999/02/22-rdf-syntax-ns#"
   xmlns:svg="http://www.w3.org/2000/svg"
   xmlns="http://www.w3.org/2000/svg"
   xmlns:sodipodi="http://sodipodi.sourceforge.net/DTD/sodipodi-0.dtd"
   xmlns:inkscape="http://www.inkscape.org/namespaces/inkscape"
   width="512"
   height="512"
   id="svg2"
   version="1.1"
   inkscape:version="0.92.3 (2405546, 2018-03-11)"
   sodipodi:docname="gnome-mouse-properties.svg">
  <defs
     id="defs4">
    <radialGradient
       id="polygon413_1_"
       cx="7976.3457"
       cy="-10508.842"
       r="13293.867"
       gradientTransform="matrix(0.0222,0,0,-0.0248,721.1671,674.6745)"
       gradientUnits="userSpaceOnUse">
      <stop
         offset="0"
         style="stop-color:#80FF80"
         id="stop388" />
      <stop
         offset="1"
         style="stop-color:#0f0"
         id="stop390" />
    </radialGradient>
  </defs>
  <sodipodi:namedview
     id="base"
     pagecolor="#ffffff"
     bordercolor="#666666"
     borderopacity="1.0"
     inkscape:pageopacity="0.0"
     inkscape:pageshadow="2"
     inkscape:zoom="0.35"
     inkscape:cx="318.79646"
     inkscape:cy="157.77408"
     inkscape:document-units="px"
     inkscape:current-layer="layer1"
     showgrid="false"
     inkscape:window-width="1366"
     inkscape:window-height="720"
     inkscape:window-x="0"
     inkscape:window-y="23"
     inkscape:window-maximized="1" />
  <metadata
     id="metadata7">
    <rdf:RDF>
      <cc:Work
         rdf:about="">
        <dc:format>image/svg+xml</dc:format>
        <dc:type
           rdf:resource="http://purl.org/dc/dcmitype/StillImage" />
        <dc:title></dc:title>
      </cc:Work>
    </rdf:RDF>
  </metadata>
  <g
     inkscape:label="Layer 1"
     inkscape:groupmode="layer"
     id="layer1"
     transform="translate(0,-540.36218)">
    <g
       transform="translate(1.6676305e-5,7.2384746e-6)"
       id="g828">
      <path
         id="path1148"
         d="m 432.91318,596.83613 c 102.1931,88.57459 105.82677,249.69971 8.11688,359.89879 C 343.3202,1066.934 181.27975,1084.4628 79.086619,995.88818 -23.106138,907.31359 -26.740153,746.18848 70.970084,635.98939 168.67994,525.79031 330.72039,508.26154 432.91318,596.83613 Z"
         inkscape:connector-curvature="0"
         style="fill:#3689e6;fill-opacity:1;stroke-width:11.10955811" />
      <path
         id="path1150"
         d="m 511.63545,765.26568 c -1.55116,61.31165 -25.16107,124.15461 -70.9663,175.81448 C 342.95929,1051.2793 180.91881,1068.808 78.725674,980.23345 30.826965,938.7178 4.4968862,881.28501 0.19389407,820.59097 0.79899644,886.94765 27.117359,950.84434 79.078682,995.88123 181.27144,1084.4558 343.31982,1066.9184 441.02216,956.72793 490.7271,900.66983 514.02713,831.43697 511.63545,765.26568 Z"
         inkscape:connector-curvature="0"
         style="opacity:1;fill:#000000;fill-opacity:0.49019608;stroke-width:11.10955811" />
      <path
         style="fill:#000000;fill-opacity:0.49019608;stroke-width:0.6376245"
         d="m 186.50061,968.76695 c -11.13865,-2.34678 -21.9035,-7.51018 -29.39755,-14.10051 -4.00856,-3.52527 -22.37064,-26.44932 -27.38267,-34.18601 -17.06193,-26.3359 -8.66041,-69.76173 18.34771,-94.84581 4.50407,-4.18235 83.62848,-65.80963 84.4218,-65.75244 0.25323,0.0189 6.90482,8.33658 14.78211,18.48525 7.87767,10.14868 30.85871,39.74268 51.07011,65.76446 l 36.74759,47.31232 -1.60365,1.32245 c -3.06482,2.52749 -74.74772,57.93608 -78.77292,60.88895 -11.76945,8.63482 -26.39962,14.26666 -41.75206,16.07267 -6.72907,0.79166 -20.51754,0.29064 -26.46047,-0.96133 z m 130.4776,-112.71624 c -12.99477,-16.78934 -23.60995,-30.76698 -23.5884,-31.06137 0.0378,-0.42096 10.03464,-8.42872 18.15458,-14.53187 1.07754,-0.81014 1.3149,-0.76135 2.51943,0.51795 3.42728,3.63946 5.26262,4.38217 12.04347,4.87321 5.94708,0.43037 6.75023,0.33789 10.22815,-1.18352 2.12977,-0.93158 7.99862,-4.96419 13.46835,-9.25471 12.02759,-9.43381 13.60743,-11.66192 13.69776,-19.32162 0.0454,-3.85327 -0.30992,-5.806 -1.60705,-8.89406 l -1.66526,-3.95675 7.41279,-5.75169 c 4.27578,-3.3171 7.76844,-5.58512 8.25222,-5.35819 1.10513,0.51791 8.06362,9.95875 10.77241,14.61509 7.19093,12.3597 10.03653,26.67984 8.31382,41.83234 -1.87502,16.49182 -8.90532,30.82088 -20.42683,41.63293 -4.10381,3.85062 -32.832,26.44872 -33.55767,26.39641 -0.21543,-0.0151 -11.02299,-13.76489 -24.01777,-30.55423 z M 263.20083,786.5788 c -12.62703,-16.30976 -23.32195,-30.14771 -23.76643,-30.75085 -0.71924,-0.97621 0.82923,-2.36776 14.08857,-12.6596 16.94249,-13.15113 20.42154,-15.5088 27.54671,-18.67056 11.27509,-5.00327 22.01801,-6.53991 35.39716,-5.06306 19.01027,2.0984 32.7772,9.60166 45.8555,24.99198 3.48473,4.10018 6.32051,7.64953 6.30312,7.88749 0,0.23774 -3.36756,3.00613 -7.44378,6.15152 l -7.41128,5.71888 -2.74847,-2.4294 c -3.20239,-2.83128 -6.08164,-3.99152 -10.752,-4.33293 -4.06942,-0.29745 -10.60989,1.28939 -13.80548,3.34957 -4.8892,3.1513 -19.03899,14.51104 -20.60598,16.54239 -4.24252,5.50027 -4.83289,12.28074 -1.70684,19.62682 l 1.9578,4.6032 -9.43484,7.19172 c -5.18853,3.95543 -9.67748,7.26048 -9.97417,7.34446 -0.29858,0.0835 -10.87068,-13.19173 -23.49808,-29.50152 z m 56.60561,14.9577 c -3.41821,-2.00167 -5.08649,-5.24678 -5.0143,-9.7511 0.0529,-3.23074 0.34771,-4.29634 1.69285,-6.10292 1.71023,-2.29701 17.12693,-14.61751 20.55571,-16.42775 2.4121,-1.27389 7.98161,-1.03491 10.38766,0.44556 5.75697,3.54316 7.30923,11.46048 3.23263,16.48834 -2.22123,2.7388 -18.75062,15.354 -21.26287,16.22809 -2.81499,0.97905 -7.08661,0.587 -9.59168,-0.88022 z m 52.74368,-44.21949 c -1.84932,-2.15886 -3.3377,-4.26304 -3.30746,-4.6761 0.0378,-0.41307 1.1467,-0.94969 2.48315,-1.19241 1.33606,-0.24227 4.31924,-0.77873 6.63004,-1.191 12.4577,-2.22301 23.19307,-10.78432 23.85071,-19.02085 0.57071,-7.14989 -2.28586,-12.50415 -13.11193,-24.57736 -4.51767,-5.0383 -9.11963,-10.76406 -10.22665,-12.72405 -3.76517,-6.66754 -4.76221,-14.37203 -2.63169,-20.34115 2.19289,-6.14317 10.09021,-12.53787 18.07711,-14.6383 6.09675,-1.60316 16.78601,-0.86411 24.07067,1.66409 6.37985,2.21438 12.23245,5.10591 12.91314,6.38003 0.73738,1.3793 -1.41392,4.06254 -3.94205,4.91754 -1.79868,0.60843 -2.66608,0.38729 -8.89776,-2.26877 -10.81814,-4.61069 -18.37455,-5.84803 -26.4703,-4.33429 -2.95786,0.55298 -6.65499,3.24019 -7.91396,5.75184 -1.60592,3.20364 -1.23968,9.41386 0.8572,14.53837 1.53789,3.75775 3.42312,6.31785 11.11862,15.10129 12.29178,14.02851 14.58557,18.24302 14.48844,26.61486 -0.0718,6.01289 -1.74766,9.89964 -6.74381,15.62854 -5.44706,6.2445 -12.94904,11.5573 -22.23345,15.74487 l -5.64851,2.54785 z"
         id="path1152"
         inkscape:connector-curvature="0" />
      <path
         inkscape:connector-curvature="0"
         id="path1154"
         d="m 166.50078,948.76651 c -11.13864,-2.34679 -21.9035,-7.51019 -29.39754,-14.10051 -4.00857,-3.52528 -22.37065,-26.44933 -27.38268,-34.18602 -17.061922,-26.3359 -8.66041,-69.76173 18.34772,-94.84581 4.50406,-4.18235 83.62847,-65.80963 84.42179,-65.75244 0.25323,0.0189 6.90482,8.33658 14.78211,18.48525 7.87767,10.14868 30.85871,39.74268 51.07011,65.76446 l 36.74759,47.31232 -1.60365,1.32246 c -3.06482,2.52748 -74.74772,57.93607 -78.77291,60.88894 -11.76945,8.63482 -26.39963,14.26666 -41.75207,16.07267 -6.72907,0.79166 -20.51754,0.29064 -26.46047,-0.96132 z M 296.97839,836.05026 c -12.99477,-16.78934 -23.60995,-30.76698 -23.58841,-31.06137 0.0378,-0.42096 10.03464,-8.42872 18.15458,-14.53187 1.07755,-0.81014 1.3149,-0.76134 2.51943,0.51795 3.42728,3.63946 5.26262,4.38217 12.04347,4.87321 5.94709,0.43037 6.75024,0.33789 10.22816,-1.18352 2.12976,-0.93158 7.99861,-4.96418 13.46834,-9.2547 12.02759,-9.43382 13.60744,-11.66193 13.69777,-19.32163 0.0453,-3.85327 -0.30992,-5.806 -1.60706,-8.89406 l -1.66526,-3.95675 7.41279,-5.75168 c 4.27578,-3.31711 7.76844,-5.58513 8.25222,-5.3582 1.10513,0.51791 8.06362,9.95875 10.77241,14.61509 7.19093,12.3597 10.03654,26.67984 8.31383,41.83234 -1.87503,16.49182 -8.90533,30.82088 -20.42684,41.63293 -4.10381,3.85062 -32.832,26.44872 -33.55767,26.39641 -0.21543,-0.0151 -11.02299,-13.76488 -24.01776,-30.55423 z M 243.201,766.57835 c -12.62702,-16.30976 -23.32195,-30.14771 -23.76642,-30.75084 -0.71925,-0.97622 0.82923,-2.36777 14.08856,-12.65961 16.94249,-13.15113 20.42155,-15.5088 27.54671,-18.67056 11.27509,-5.00327 22.01802,-6.53991 35.39717,-5.06306 19.01027,2.0984 32.7772,9.60167 45.8555,24.99198 3.48472,4.10018 6.3205,7.64953 6.30311,7.88749 0,0.23774 -3.36756,3.00613 -7.44378,6.15153 l -7.41127,5.71887 -2.74847,-2.4294 c -3.2024,-2.83128 -6.08164,-3.99152 -10.752,-4.33293 -4.06942,-0.29745 -10.60989,1.28939 -13.80549,3.34957 -4.88919,3.1513 -19.03899,14.51104 -20.60598,16.54239 -4.24252,5.50027 -4.83288,12.28074 -1.70683,19.62682 l 1.95779,4.6032 -9.43483,7.19172 c -5.18854,3.95543 -9.67748,7.26048 -9.97418,7.34446 -0.29858,0.0835 -10.87067,-13.19172 -23.49808,-29.50152 z m 56.60561,14.9577 c -3.41821,-2.00167 -5.08649,-5.24677 -5.0143,-9.7511 0.0529,-3.23074 0.34772,-4.29634 1.69285,-6.10292 1.71024,-2.29701 17.12693,-14.61751 20.55572,-16.42775 2.41209,-1.27389 7.9816,-1.03491 10.38765,0.44557 5.75698,3.54315 7.30923,11.46047 3.23263,16.48834 -2.22123,2.73879 -18.75061,15.35399 -21.26287,16.22808 -2.81499,0.97905 -7.08661,0.587 -9.59168,-0.88022 z m 52.74368,-44.21949 c -1.84932,-2.15886 -3.3377,-4.26304 -3.30746,-4.6761 0.0378,-0.41307 1.14671,-0.94969 2.48315,-1.19241 1.33606,-0.24226 4.31924,-0.77873 6.63005,-1.191 12.4577,-2.22301 23.19307,-10.78432 23.85071,-19.02085 0.5707,-7.14989 -2.28586,-12.50415 -13.11194,-24.57736 -4.51767,-5.0383 -9.11962,-10.76406 -10.22665,-12.72405 -3.76516,-6.66754 -4.7622,-14.37203 -2.63168,-20.34115 2.19288,-6.14317 10.0902,-12.53786 18.0771,-14.6383 6.09676,-1.60316 16.78602,-0.86411 24.07068,1.66409 6.37984,2.21439 12.23244,5.10591 12.91313,6.38003 0.73739,1.3793 -1.41392,4.06254 -3.94205,4.91754 -1.79867,0.60843 -2.66607,0.38729 -8.89776,-2.26877 -10.81814,-4.61068 -18.37455,-5.84803 -26.4703,-4.33429 -2.95786,0.55298 -6.65499,3.24019 -7.91395,5.75184 -1.60592,3.20364 -1.23969,9.41386 0.8572,14.53837 1.53789,3.75775 3.42311,6.31786 11.11861,15.10129 12.29178,14.02851 14.58557,18.24302 14.48844,26.61486 -0.0718,6.01289 -1.74765,9.89965 -6.74381,15.62854 -5.44706,6.2445 -12.94904,11.5573 -22.23345,15.74487 l -5.6485,2.54786 z"
         style="fill:#ffffff;fill-opacity:1;stroke-width:0.6376245" />
    </g>
  </g>
</svg>
