<?xml version="1.0" encoding="UTF-8" standalone="no"?>
<!-- Created with Inkscape (http://www.inkscape.org/) -->

<svg
   xmlns:dc="http://purl.org/dc/elements/1.1/"
   xmlns:cc="http://creativecommons.org/ns#"
   xmlns:rdf="http://www.w3.org/1999/02/22-rdf-syntax-ns#"
   xmlns:svg="http://www.w3.org/2000/svg"
   xmlns="http://www.w3.org/2000/svg"
   xmlns:sodipodi="http://sodipodi.sourceforge.net/DTD/sodipodi-0.dtd"
   xmlns:inkscape="http://www.inkscape.org/namespaces/inkscape"
   width="512"
   height="512"
   id="svg2"
   version="1.1"
   inkscape:version="0.92.3 (2405546, 2018-03-11)"
   sodipodi:docname="gnome-network-properties.svg">
  <defs
     id="defs4">
    <radialGradient
       id="polygon413_1_"
       cx="7976.3457"
       cy="-10508.842"
       r="13293.867"
       gradientTransform="matrix(0.0222,0,0,-0.0248,721.1671,674.6745)"
       gradientUnits="userSpaceOnUse">
      <stop
         offset="0"
         style="stop-color:#80FF80"
         id="stop388" />
      <stop
         offset="1"
         style="stop-color:#0f0"
         id="stop390" />
    </radialGradient>
  </defs>
  <sodipodi:namedview
     id="base"
     pagecolor="#ffffff"
     bordercolor="#666666"
     borderopacity="1.0"
     inkscape:pageopacity="0.0"
     inkscape:pageshadow="2"
     inkscape:zoom="0.24748738"
     inkscape:cx="-604.60953"
     inkscape:cy="322.06541"
     inkscape:document-units="px"
     inkscape:current-layer="layer1"
     showgrid="false"
     inkscape:window-width="1366"
     inkscape:window-height="720"
     inkscape:window-x="0"
     inkscape:window-y="23"
     inkscape:window-maximized="1" />
  <metadata
     id="metadata7">
    <rdf:RDF>
      <cc:Work
         rdf:about="">
        <dc:format>image/svg+xml</dc:format>
        <dc:type
           rdf:resource="http://purl.org/dc/dcmitype/StillImage" />
        <dc:title />
      </cc:Work>
    </rdf:RDF>
  </metadata>
  <g
     inkscape:label="Layer 1"
     inkscape:groupmode="layer"
     id="layer1"
     transform="translate(0,-540.36218)">
    <g
       id="g865">
      <path
         style="fill:#3689e6;fill-opacity:1;stroke-width:11.10955811"
         inkscape:connector-curvature="0"
         d="m 432.91328,596.83611 c 102.19291,88.57459 105.82677,249.69974 8.1168,359.89882 C 343.32011,1066.934 181.27963,1084.4628 79.086729,995.88819 -23.106176,907.3136 -26.740041,746.18845 70.969929,635.98937 168.6799,525.79029 330.72038,508.26152 432.91328,596.83611 Z"
         id="path27-3" />
      <path
         style="opacity:1;fill:#000000;fill-opacity:0.49019608;stroke-width:11.10955811"
         inkscape:connector-curvature="0"
         d="M 511.63551,765.26569 C 510.08413,826.5773 486.47429,889.42026 440.66914,941.08012 342.95917,1051.2792 180.91869,1068.808 78.725784,980.23342 30.827152,938.71781 4.4968469,881.28498 0.19385485,820.59098 0.79910839,886.94762 27.117432,950.84435 79.078679,995.88119 181.27162,1084.4558 343.31977,1066.9183 441.02203,956.72794 c 49.70494,-56.05815 73.00501,-125.291 70.61348,-191.46225 z"
         id="path51-6" />
      <path
         style="fill:#000000;fill-opacity:0.49019608;stroke-width:1.38665676"
         d="m 131.78729,948.03956 c -3.79548,-1.5699 -8.52529,-6.89008 -10.30757,-11.59397 -1.00512,-2.65273 -1.479,-41.43356 -1.479,-121.03033 0,-126.87073 -0.26721,-122.29572 7.55932,-129.51764 l 3.75681,-3.46666 143.17432,-0.36586 143.17429,-0.36586 4.73983,3.16656 c 10.14512,6.77768 9.58889,-0.80307 9.58889,130.68371 0,131.45124 0.55184,123.90924 -9.5607,130.6648 l -4.71171,3.14767 -141.58057,-0.0881 c -77.86934,-0.0476 -142.82861,-0.60351 -144.35391,-1.23439 z M 413.97195,815.55004 V 699.76425 H 275.99958 138.02725 V 815.55004 931.3359 h 137.97233 137.97237 z m -159.46552,76.95945 v -8.31991 H 231.62657 208.74675 V 866.8564 849.52315 h -16.6399 -16.63986 v -58.93293 -58.93288 h 100.53259 100.53264 v 58.93288 58.93293 h -16.63986 -16.6399 v 17.33325 17.33318 H 320.3726 297.49277 v 8.31991 8.31995 H 275.99958 254.50643 Z M 223.99997,774.64372 v -15.25327 h -6.93327 -6.93332 v 14.3288 c 0,7.8808 0.41597,14.74476 0.92443,15.25319 0.50843,0.50842 3.62843,0.92443 6.93332,0.92443 h 6.00884 z m 29.11979,0 v -15.25327 h -6.93328 -6.93328 v 14.3288 c 0,7.8808 0.41598,14.74476 0.92444,15.25319 0.50842,0.50842 3.62842,0.92443 6.93328,0.92443 h 6.00884 z m 29.11978,0 v -15.25327 h -6.23996 -6.23992 v 15.25327 15.25315 h 6.23992 6.23996 z m 30.20671,-0.34658 0.3936,-14.90661 h -6.98022 -6.98019 v 15.32919 15.32928 l 6.58662,-0.42248 6.58662,-0.4224 z m 29.11978,0 0.3936,-14.90661 h -6.98022 -6.98018 v 15.32919 15.32928 l 6.58662,-0.42248 6.58662,-0.4224 z"
         id="path852-7"
         inkscape:connector-curvature="0" />
      <path
         inkscape:connector-curvature="0"
         id="path850-5"
         d="m 111.78769,928.03973 c -3.79547,-1.56994 -8.52529,-6.89007 -10.30756,-11.59392 -1.00513,-2.65282 -1.47905,-41.4336 -1.47905,-121.03041 0,-126.87069 -0.267208,-122.29569 7.55936,-129.51761 l 3.75681,-3.46666 143.17429,-0.36585 143.17432,-0.36586 4.73983,3.1666 c 10.14512,6.77771 9.58889,-0.80311 9.58889,130.68374 0,131.45125 0.55185,123.90916 -9.56069,130.66477 l -4.71171,3.14762 -141.58057,-0.0881 C 178.27226,929.22647 113.313,928.67061 111.78769,928.03973 Z M 393.97236,795.55025 V 679.76439 H 255.99999 118.02762 V 795.55025 911.33607 H 255.99999 393.97236 Z M 234.5068,872.50971 v -8.31995 h -22.87983 -22.87982 v -17.33318 -17.33325 h -16.6399 -16.6399 V 770.5904 711.65748 h 100.53264 100.53263 v 58.93292 58.93293 h -16.6399 -16.6399 v 17.33325 17.33318 H 300.373 277.49318 v 8.31995 8.31995 H 255.99999 234.5068 Z M 204.00034,754.64386 v -15.25323 h -6.93328 -6.93328 v 14.32883 c 0,7.88077 0.41598,14.74473 0.92444,15.25319 0.50842,0.50835 3.62842,0.9244 6.93328,0.9244 h 6.00884 z m 29.11979,0 v -15.25323 h -6.93328 -6.93328 v 14.32883 c 0,7.88077 0.41597,14.74473 0.92447,15.25319 0.50838,0.50835 3.62838,0.9244 6.93328,0.9244 h 6.00881 z m 29.11982,0 v -15.25323 h -6.23996 -6.23997 v 15.25323 15.25319 h 6.23997 6.23996 z m 30.2067,-0.34659 0.3936,-14.90657 h -6.98022 -6.98022 v 15.32916 15.32924 l 6.58662,-0.42244 6.58662,-0.4224 z m 29.11979,0 0.3936,-14.90657 h -6.98022 -6.98023 v 15.32916 15.32924 l 6.58663,-0.42244 6.58665,-0.4224 z"
         style="fill:#ffffff;stroke-width:1.38665676" />
    </g>
  </g>
</svg>
