<?xml version="1.0" encoding="UTF-8" standalone="no"?>
<!-- Created with Inkscape (http://www.inkscape.org/) -->

<svg
   xmlns:dc="http://purl.org/dc/elements/1.1/"
   xmlns:cc="http://creativecommons.org/ns#"
   xmlns:rdf="http://www.w3.org/1999/02/22-rdf-syntax-ns#"
   xmlns:svg="http://www.w3.org/2000/svg"
   xmlns="http://www.w3.org/2000/svg"
   xmlns:xlink="http://www.w3.org/1999/xlink"
   xmlns:sodipodi="http://sodipodi.sourceforge.net/DTD/sodipodi-0.dtd"
   xmlns:inkscape="http://www.inkscape.org/namespaces/inkscape"
   width="512"
   height="512"
   id="svg2"
   version="1.1"
   inkscape:version="0.92.3 (2405546, 2018-03-11)"
   sodipodi:docname="gnome-todo.svg">
  <defs
     id="defs4">
    <linearGradient
       id="linearGradient7468"
       inkscape:collect="always">
      <stop
         id="stop7470"
         style="stop-color:#ffffff"
         offset="0" />
      <stop
         id="stop7472"
         style="stop-color:#333333"
         offset="1" />
    </linearGradient>
    <linearGradient
       id="linearGradient7460"
       inkscape:collect="always">
      <stop
         id="stop7462"
         style="stop-color:#880000"
         offset="0" />
      <stop
         id="stop7464"
         style="stop-color:#ff0000"
         offset="1" />
    </linearGradient>
    <radialGradient
       id="radialGradient3359"
       xlink:href="#linearGradient7468"
       gradientUnits="userSpaceOnUse"
       cy="576.95001"
       cx="360.41"
       gradientTransform="matrix(1.0468,0.50953,-0.43766,0.89914,235.64,-125.45)"
       r="15.5"
       inkscape:collect="always" />
    <radialGradient
       id="radialGradient3367"
       xlink:href="#linearGradient7468"
       gradientUnits="userSpaceOnUse"
       cy="576.95001"
       cx="360.41"
       gradientTransform="matrix(1.0468,0.50953,-0.43766,0.89914,235.64,-125.45)"
       r="15.5"
       inkscape:collect="always" />
    <linearGradient
       id="linearGradient3375"
       y2="563.59998"
       xlink:href="#linearGradient7460"
       gradientUnits="userSpaceOnUse"
       x2="358.75"
       y1="591.23999"
       x1="371.28"
       inkscape:collect="always" />
    <linearGradient
       id="linearGradient6874">
      <stop
         id="stop6876"
         style="stop-color:#000000"
         offset="0" />
      <stop
         id="stop6878"
         style="stop-color:#ffffff"
         offset=".12566" />
      <stop
         id="stop6880"
         style="stop-color:#666666"
         offset=".41176" />
      <stop
         id="stop6882"
         style="stop-color:#cccccc"
         offset=".64706" />
      <stop
         id="stop6884"
         style="stop-color:#333333"
         offset=".82353" />
      <stop
         id="stop6886"
         style="stop-color:#000000"
         offset="1" />
    </linearGradient>
    <linearGradient
       id="linearGradient3407">
      <stop
         id="stop3409"
         style="stop-color:#000000"
         offset="0" />
      <stop
         id="stop3411"
         style="stop-color:#ffffff"
         offset=".12566" />
      <stop
         id="stop3413"
         style="stop-color:#666666"
         offset=".41176" />
      <stop
         id="stop3415"
         style="stop-color:#cccccc"
         offset=".64706" />
      <stop
         id="stop3417"
         style="stop-color:#333333"
         offset=".82353" />
      <stop
         id="stop3419"
         style="stop-color:#000000"
         offset="1" />
    </linearGradient>
    <linearGradient
       id="linearGradient3422">
      <stop
         id="stop3424"
         style="stop-color:#000000"
         offset="0" />
      <stop
         id="stop3426"
         style="stop-color:#ffffff"
         offset=".12566" />
      <stop
         id="stop3428"
         style="stop-color:#666666"
         offset=".41176" />
      <stop
         id="stop3430"
         style="stop-color:#cccccc"
         offset=".64706" />
      <stop
         id="stop3432"
         style="stop-color:#333333"
         offset=".82353" />
      <stop
         id="stop3434"
         style="stop-color:#000000"
         offset="1" />
    </linearGradient>
    <linearGradient
       id="linearGradient3440">
      <stop
         id="stop3442"
         style="stop-color:#000000"
         offset="0" />
      <stop
         id="stop3444"
         style="stop-color:#ffffff"
         offset=".12566" />
      <stop
         id="stop3446"
         style="stop-color:#666666"
         offset=".41176" />
      <stop
         id="stop3448"
         style="stop-color:#cccccc"
         offset=".64706" />
      <stop
         id="stop3450"
         style="stop-color:#333333"
         offset=".82353" />
      <stop
         id="stop3452"
         style="stop-color:#000000"
         offset="1" />
    </linearGradient>
    <linearGradient
       id="linearGradient6850">
      <stop
         id="stop6852"
         style="stop-color:#000000"
         offset="0" />
      <stop
         id="stop6858"
         style="stop-color:#ffffff"
         offset=".11765" />
      <stop
         id="stop6860"
         style="stop-color:#666666"
         offset=".41176" />
      <stop
         id="stop6862"
         style="stop-color:#cccccc"
         offset=".64706" />
      <stop
         id="stop6864"
         style="stop-color:#333333"
         offset=".82353" />
      <stop
         id="stop6854"
         style="stop-color:#000000"
         offset="1" />
    </linearGradient>
    <linearGradient
       id="linearGradient3463">
      <stop
         id="stop3465"
         style="stop-color:#000000"
         offset="0" />
      <stop
         id="stop3467"
         style="stop-color:#ffffff"
         offset=".11765" />
      <stop
         id="stop3469"
         style="stop-color:#666666"
         offset=".41176" />
      <stop
         id="stop3471"
         style="stop-color:#cccccc"
         offset=".64706" />
      <stop
         id="stop3473"
         style="stop-color:#333333"
         offset=".82353" />
      <stop
         id="stop3475"
         style="stop-color:#000000"
         offset="1" />
    </linearGradient>
    <linearGradient
       gradientTransform="translate(323.92404,487.04243)"
       id="linearGradient7542"
       y2="54.868999"
       xlink:href="#linearGradient7260"
       gradientUnits="userSpaceOnUse"
       x2="463.01001"
       y1="54.868999"
       x1="266.98999"
       inkscape:collect="always" />
    <linearGradient
       id="linearGradient7260">
      <stop
         id="stop7262"
         style="stop-color:#ffffff;stop-opacity:.8"
         offset="0" />
      <stop
         id="stop7268"
         style="stop-color:#ffffff"
         offset=".5" />
      <stop
         id="stop7264"
         style="stop-color:#ffffff;stop-opacity:.8"
         offset="1" />
    </linearGradient>
    <linearGradient
       gradientTransform="translate(323.92404,487.04243)"
       id="linearGradient7540"
       y2="154.88"
       xlink:href="#linearGradient7286"
       gradientUnits="userSpaceOnUse"
       x2="463.01001"
       y1="154.88"
       x1="266.98999"
       inkscape:collect="always" />
    <linearGradient
       id="linearGradient7286">
      <stop
         id="stop7288"
         style="stop-color:#000000;stop-opacity:.6"
         offset="0" />
      <stop
         id="stop7294"
         style="stop-color:#000000"
         offset=".5" />
      <stop
         id="stop7290"
         style="stop-color:#000000;stop-opacity:.6"
         offset="1" />
    </linearGradient>
    <linearGradient
       gradientTransform="translate(323.92404,487.04243)"
       id="linearGradient7538"
       y2="153.86"
       xlink:href="#linearGradient7260"
       gradientUnits="userSpaceOnUse"
       x2="454.03"
       y1="153.86"
       x1="275.97"
       inkscape:collect="always" />
    <linearGradient
       id="linearGradient3492">
      <stop
         id="stop3494"
         style="stop-color:#ffffff;stop-opacity:.8"
         offset="0" />
      <stop
         id="stop3496"
         style="stop-color:#ffffff"
         offset=".5" />
      <stop
         id="stop3498"
         style="stop-color:#ffffff;stop-opacity:.8"
         offset="1" />
    </linearGradient>
    <linearGradient
       gradientTransform="translate(323.92404,487.04243)"
       id="linearGradient7536"
       y2="55.868999"
       xlink:href="#linearGradient7286"
       gradientUnits="userSpaceOnUse"
       x2="454.03"
       y1="55.868999"
       x1="275.97"
       inkscape:collect="always" />
    <linearGradient
       id="linearGradient3503">
      <stop
         id="stop3505"
         style="stop-color:#000000;stop-opacity:.6"
         offset="0" />
      <stop
         id="stop3507"
         style="stop-color:#000000"
         offset=".5" />
      <stop
         id="stop3509"
         style="stop-color:#000000;stop-opacity:.6"
         offset="1" />
    </linearGradient>
  </defs>
  <sodipodi:namedview
     id="base"
     pagecolor="#ffffff"
     bordercolor="#666666"
     borderopacity="1.0"
     inkscape:pageopacity="0.0"
     inkscape:pageshadow="2"
     inkscape:zoom="0.35"
     inkscape:cx="-13.480699"
     inkscape:cy="146.01484"
     inkscape:document-units="px"
     inkscape:current-layer="layer1"
     showgrid="false"
     inkscape:window-width="1366"
     inkscape:window-height="720"
     inkscape:window-x="0"
     inkscape:window-y="23"
     inkscape:window-maximized="1" />
  <metadata
     id="metadata7">
    <rdf:RDF>
      <cc:Work
         rdf:about="">
        <dc:format>image/svg+xml</dc:format>
        <dc:type
           rdf:resource="http://purl.org/dc/dcmitype/StillImage" />
        <dc:title></dc:title>
      </cc:Work>
    </rdf:RDF>
  </metadata>
  <g
     inkscape:label="Layer 1"
     inkscape:groupmode="layer"
     id="layer1"
     transform="translate(0,-540.36218)">
    <g
       id="g908">
      <path
         id="path943"
         d="m 432.9133,596.83613 c 102.19291,88.57459 105.82677,249.69974 8.1168,359.89882 C 343.32009,1066.934 181.27965,1084.4628 79.08674,995.88822 -23.106205,907.31363 -26.740032,746.18847 70.969941,635.98939 168.67991,525.79031 330.72036,508.26154 432.9133,596.83613 Z"
         inkscape:connector-curvature="0"
         style="fill:#3689e6;fill-opacity:1;stroke-width:11.10955906" />
      <path
         id="path945"
         d="M 511.63553,765.26571 C 510.08415,826.57732 486.47431,889.42028 440.66916,941.08015 342.95915,1051.2793 180.9187,1068.808 78.72576,980.23345 30.827125,938.71783 4.496819,881.285 0.193827,820.591 0.79908,886.94764 27.117405,950.84437 79.07869,995.88122 c 102.19291,88.57458 264.24106,71.03718 361.94336,-39.15326 49.70495,-56.05814 73.00502,-125.291 70.61348,-191.46225 z"
         inkscape:connector-curvature="0"
         style="opacity:1;fill:#000000;fill-opacity:0.49019608;stroke-width:11.10955906" />
      <path
         inkscape:connector-curvature="0"
         style="fill:#000000;fill-opacity:0.49019608;stroke-width:1.47007895"
         d="m 276,660.3622 a 156,156 0 0 0 -156,156 156,156 0 0 0 156,156 156,156 0 0 0 156,-156 156,156 0 0 0 -156,-156 z m 79.83594,72.13867 c 0.7849,0.003 1.56476,0.0697 2.29687,0.20703 2.055,0.38552 4.5637,2.44227 12.78516,10.49024 14.95475,14.63913 17.27692,17.47561 17.67187,21.58594 0.22645,2.35658 -0.0511,4.0935 -0.92187,5.77734 -1.58814,3.07113 -34.18557,40.63708 -95.20117,109.71484 -35.00793,39.63359 -37.81226,42.63646 -40.5625,43.40039 -3.27734,0.91032 -4.21023,0.87363 -6.80469,-0.26172 -2.41996,-1.05898 -55.39465,-52.53764 -71.23047,-69.21875 -10.08933,-10.6279 -10.53396,-11.21927 -10.84375,-14.44336 -0.2102,-2.18754 0.0485,-4.08069 0.74219,-5.41992 1.23879,-2.39179 12.00811,-15.09551 19.63867,-23.16601 5.15574,-5.45301 5.35987,-5.58426 9.14844,-5.89844 3.66223,-0.3037 4.06665,-0.16736 7.38476,2.47266 1.93084,1.53626 12.01953,11.09372 22.41993,21.24023 10.40038,10.14651 19.553,18.79283 20.33789,19.21289 3.27113,1.75065 5.16899,0.30428 17.49609,-13.32812 6.555,-7.24908 29.17581,-32.71766 50.26758,-56.59571 21.09177,-23.87804 38.83812,-43.80231 39.4375,-44.27539 1.19396,-0.94237 3.58279,-1.5036 5.9375,-1.49414 z"
         id="path838" />
      <path
         inkscape:connector-curvature="0"
         id="path30"
         d="m 256,640.3622 a 156,156 0 0 0 -156,156 156,156 0 0 0 156,156 156,156 0 0 0 156,-156 156,156 0 0 0 -156,-156 z m 79.83594,72.13867 c 0.7849,0.003 1.56476,0.0697 2.29687,0.20703 2.055,0.38552 4.5637,2.44227 12.78516,10.49024 14.95475,14.63913 17.27692,17.47561 17.67187,21.58594 0.22645,2.35658 -0.0511,4.0935 -0.92187,5.77734 -1.58814,3.07113 -34.18557,40.63708 -95.20117,109.71484 -35.00793,39.63359 -37.81226,42.63646 -40.5625,43.40039 -3.27734,0.91032 -4.21023,0.87363 -6.80469,-0.26172 -2.41996,-1.05898 -55.39465,-52.53764 -71.23047,-69.21875 -10.08933,-10.6279 -10.53396,-11.21927 -10.84375,-14.44336 -0.2102,-2.18754 0.0485,-4.08069 0.74219,-5.41992 1.23879,-2.39179 12.00811,-15.09551 19.63867,-23.16601 5.15574,-5.45301 5.35987,-5.58426 9.14844,-5.89844 3.66223,-0.3037 4.06665,-0.16736 7.38476,2.47266 1.93084,1.53626 12.01953,11.09372 22.41993,21.24023 10.40038,10.14651 19.553,18.79283 20.33789,19.21289 3.27113,1.75065 5.16899,0.30428 17.49609,-13.32812 6.555,-7.24908 29.17581,-32.71766 50.26758,-56.59571 21.09177,-23.87804 38.83812,-43.80231 39.4375,-44.27539 1.19396,-0.94237 3.58279,-1.5036 5.9375,-1.49414 z"
         style="fill:#ffffff;fill-opacity:1;stroke-width:1.47007895" />
    </g>
  </g>
</svg>
