<?xml version="1.0" encoding="UTF-8" standalone="no"?>
<!-- Created with Inkscape (http://www.inkscape.org/) -->

<svg
   xmlns:dc="http://purl.org/dc/elements/1.1/"
   xmlns:cc="http://creativecommons.org/ns#"
   xmlns:rdf="http://www.w3.org/1999/02/22-rdf-syntax-ns#"
   xmlns:svg="http://www.w3.org/2000/svg"
   xmlns="http://www.w3.org/2000/svg"
   xmlns:sodipodi="http://sodipodi.sourceforge.net/DTD/sodipodi-0.dtd"
   xmlns:inkscape="http://www.inkscape.org/namespaces/inkscape"
   id="svg2"
   version="1.1"
   inkscape:version="0.92.3 (2405546, 2018-03-11)"
   width="512"
   height="512"
   sodipodi:docname="gnome-cpu-frequency-applet.svg"
   viewBox="0 0 512 512">
  <metadata
     id="metadata8">
    <rdf:RDF>
      <cc:Work
         rdf:about="">
        <dc:format>image/svg+xml</dc:format>
        <dc:type
           rdf:resource="http://purl.org/dc/dcmitype/StillImage" />
        <dc:title></dc:title>
      </cc:Work>
    </rdf:RDF>
  </metadata>
  <defs
     id="defs6" />
  <sodipodi:namedview
     pagecolor="#ffffff"
     bordercolor="#666666"
     borderopacity="1"
     objecttolerance="10"
     gridtolerance="10"
     guidetolerance="10"
     inkscape:pageopacity="0"
     inkscape:pageshadow="2"
     inkscape:window-width="1366"
     inkscape:window-height="720"
     id="namedview4"
     showgrid="false"
     inkscape:zoom="0.37703154"
     inkscape:cx="239.82338"
     inkscape:cy="207.55024"
     inkscape:window-x="0"
     inkscape:window-y="23"
     inkscape:window-maximized="1"
     inkscape:current-layer="svg2"
     showguides="true"
     inkscape:guide-bbox="true"
     inkscape:document-units="px" />
  <path
     style="fill:#cccccc;fill-opacity:1;fill-rule:evenodd;stroke:none;stroke-width:1.02230215"
     d=""
     id="path3783"
     inkscape:connector-curvature="0" />
  <g
     id="g890">
    <path
       id="path901"
       d="M 432.91335,56.473974 C 535.10615,145.04856 538.74002,306.17368 441.03014,416.37276 343.32009,526.57184 181.27948,544.10061 79.086673,455.52602 -23.106169,366.95143 -26.740025,205.82631 70.969882,95.627234 168.67975,-14.57185 330.72029,-32.10062 432.91335,56.473974 Z"
       inkscape:connector-curvature="0"
       style="fill:#c6262e;fill-opacity:1;stroke-width:11.10955811" />
    <path
       id="path903"
       d="m 511.635,224.90352 c -1.5514,61.31166 -25.16121,124.1546 -70.96631,175.81449 C 342.95883,510.9171 180.91853,528.44585 78.725729,439.87127 30.827125,398.35564 4.4968511,340.92283 0.19386179,280.22879 0.79911271,346.58547 27.117416,410.48219 79.078632,455.51904 181.27144,544.09362 343.31942,526.5562 441.02159,416.36578 490.72648,360.30764 514.02654,291.07481 511.635,224.90352 Z"
       inkscape:connector-curvature="0"
       style="opacity:1;fill:#000000;fill-opacity:0.49019608;stroke-width:11.10955811" />
    <path
       inkscape:connector-curvature="0"
       style="fill:#000000;stroke-width:0.49873799;fill-opacity:0.49019608"
       d="m 276.11066,119.94107 c -1.73331,0.003 -3.50749,0.54567 -5.12695,1.66798 -3.88963,2.69557 -3.93946,2.97416 -3.93946,21.60742 0,10.40712 0.19361,16.96114 0.5293,17.84961 0.70087,1.85505 2.84838,4.10792 4.70703,4.9375 1.95574,0.87313 5.35825,0.88156 7.37305,0.0195 1.94083,-0.83037 4.09256,-3.04642 4.81445,-4.95703 0.33599,-0.8893 0.53125,-7.48019 0.53125,-17.98047 v -16.57813 l -1.44141,-2.26953 c -1.78018,-2.80706 -4.55841,-4.30156 -7.44726,-4.29688 z m 86.7539,0.0137 c -1.73211,-1e-5 -3.48492,0.53324 -5.08007,1.63868 -3.91397,2.71235 -3.96094,2.97102 -3.96094,21.67578 0,15.23597 0.0729,16.63882 0.94922,18.34766 1.10772,2.16005 2.78107,3.83296 4.53711,4.5332 1.80608,0.72021 5.26743,0.66536 7.13086,-0.11328 1.93647,-0.80904 4.67908,-3.80874 5.20703,-5.69531 0.20969,-0.74931 0.38086,-8.69405 0.38086,-17.6543 v -16.29102 l -1.50391,-2.1621 c -1.94391,-2.79641 -4.77329,-4.27929 -7.66016,-4.27931 z m -173.67382,0.002 c -2.89408,-0.0111 -5.72123,1.46843 -7.67383,4.27735 l -1.50196,2.1621 v 16.29102 c 0,8.96025 0.17117,16.90499 0.38086,17.6543 0.51178,1.82875 3.23771,4.86432 5.09571,5.67382 4.494,1.95823 9.4712,0.0984 11.77734,-4.39843 0.87658,-1.70929 0.9477,-3.09665 0.9375,-18.20313 -0.0125,-18.63507 -0.10546,-19.15571 -3.9082,-21.79101 -1.61132,-1.11665 -3.37098,-1.65938 -5.10742,-1.66602 z m 43.13671,0.0606 c -1.64011,0.0423 -3.28109,0.53975 -4.7207,1.55664 -1.16501,0.82292 -2.58711,2.39496 -3.16015,3.49219 -0.9934,1.90215 -1.04297,2.73584 -1.04297,17.95312 0,8.77779 0.16935,16.55977 0.375,17.29297 0.47739,1.70206 2.64048,4.27884 4.59179,5.46875 3.04583,1.85748 8.23608,0.95462 10.78907,-1.87695 2.58547,-2.8676 2.69726,-3.71659 2.69726,-20.38477 0,-13.81024 -0.0975,-15.7145 -0.91601,-17.83594 -1.40689,-3.64644 -5.00503,-5.75915 -8.61329,-5.66601 z m 87.12305,0.0605 c -3.69013,0 -6.68409,1.90537 -8.22656,5.23633 -0.98369,2.12434 -1.03906,3.08467 -1.03906,17.95508 0,16.93785 0.10715,17.76149 2.69726,20.63281 0.7106,0.7878 1.96614,1.7342 2.78907,2.10157 1.99196,0.88901 5.94746,0.88111 7.68164,-0.0156 1.83425,-0.94848 4.42429,-3.93128 4.90429,-5.64648 0.20969,-0.74931 0.38086,-8.54448 0.38086,-17.32227 0,-15.21728 -0.0476,-16.05097 -1.04101,-17.95312 -0.57304,-1.09723 -1.99516,-2.66927 -3.16016,-3.49219 -1.76021,-1.24336 -2.6035,-1.49608 -4.98633,-1.4961 z m -192.96679,59.84766 -2.16016,1.50391 c -2.91519,2.02653 -4.53982,5.20326 -4.26367,8.33789 0.27055,3.07122 2.43027,6.22451 5.09179,7.43359 1.79879,0.8171 3.61774,0.90657 18.34961,0.91797 15.10644,0.0102 16.49579,-0.0609 18.20508,-0.9375 2.23365,-1.14544 3.84187,-2.80368 4.55859,-4.69531 0.75434,-1.9909 0.66011,-5.63051 -0.18945,-7.27344 -0.94855,-1.83422 -3.93128,-4.42622 -5.64648,-4.90625 -0.74931,-0.20966 -8.69211,-0.38086 -17.65235,-0.38086 z m 149.5371,0 c -82.18051,0 -76.01231,-0.20475 -81.77734,2.73633 -6.57248,3.35303 -9.89815,7.14834 -12.83203,14.64258 l -1.39649,3.56836 v 75.06054 c 0,70.32492 0.0549,75.21036 0.875,77.45313 2.42196,6.62359 5.30997,10.55292 10.25586,13.95508 3.26292,2.24458 7.50726,3.92238 11.0625,4.37109 1.50869,0.19039 35.73373,0.31153 76.05664,0.26953 68.43442,-0.0715 73.45863,-0.13422 75.48047,-0.94531 9.31948,-3.73901 14.08992,-8.57538 17.40821,-17.65039 0.81995,-2.24277 0.875,-7.12821 0.875,-77.45313 v -75.06054 l -1.42188,-3.63282 c -3.29217,-8.41277 -8.28695,-13.20498 -17.13281,-16.43945 -2.24272,-0.8197 -7.12836,-0.875 -77.45313,-0.875 z m 133.2461,0.002 c -8.96016,0 -16.90499,0.1712 -17.6543,0.38086 -1.71521,0.48003 -4.69599,3.07008 -5.64453,4.9043 -0.39745,0.76854 -0.72266,2.42491 -0.72266,3.68164 0,3.89285 1.62562,6.50466 5.23633,8.4082 1.2756,0.67244 3.92343,0.78558 17.95508,0.79688 18.7556,0.0103 19.25409,-0.0785 21.89453,-3.88867 2.97777,-4.29697 1.883,-9.65716 -2.61133,-12.78125 l -2.16211,-1.50196 z m -142.91406,28.25972 c 4.50085,-0.0369 8.98185,0.11256 11.52148,0.46484 29.62756,4.10978 54.51993,21.47899 68.04492,47.47852 4.79776,9.22285 7.58762,17.93441 9.27344,28.95898 0.7776,5.08512 0.87708,17.99455 0.17773,22.98828 -1.51945,10.84966 -4.29605,19.9197 -8.93164,29.17579 -2.35878,4.70987 -8.4364,14.10396 -9.49023,14.66797 -1.57897,0.84503 -2.34357,0.39339 -12.60547,-7.44336 -5.62117,-4.29275 -10.49945,-8.13043 -10.83984,-8.52735 -0.34038,-0.39691 -0.61914,-1.06913 -0.61914,-1.49414 0,-0.425 1.21779,-2.59438 2.70507,-4.82226 14.20203,-21.2742 16.06207,-47.89457 4.92969,-70.53711 -12.47791,-25.3793 -38.1556,-40.73372 -66.33984,-39.66993 -17.01028,0.64203 -32.72436,6.77997 -44.49024,17.37696 -1.9629,1.7679 -2.81853,2.3125 -3.63281,2.3125 -1.46135,0 -2.80078,-1.38903 -2.80078,-2.90235 0,-0.98774 0.38853,-1.53136 2.5625,-3.58398 8.41928,-7.9493 19.02634,-14.63854 29.88867,-18.84766 4.98612,-1.93211 13.19412,-4.0666 19.00391,-4.9414 2.62064,-0.39461 7.14169,-0.6174 11.64258,-0.6543 z m -125.77344,14.91992 c -11.46416,-0.036 -14.69985,0.47424 -17.02539,2.24805 -3.88351,2.96207 -4.60217,8.12266 -1.7168,12.31641 1.48155,2.15336 3.26219,3.20968 6.80664,4.0371 0.54861,0.12412 7.73178,0.18315 15.96094,0.12305 16.34401,-0.11867 17.03089,-0.22697 19.79297,-3.13867 1.71546,-1.80835 2.40039,-3.65367 2.40039,-6.46484 0,-2.5213 -0.52348,-3.78019 -2.42969,-5.83985 -2.76802,-2.99066 -3.05066,-3.04003 -18.35156,-3.23437 -1.99496,-0.0254 -3.79976,-0.0417 -5.4375,-0.0469 z m 270.88281,0 c -1.63774,0.005 -3.44254,0.0215 -5.4375,0.0469 -15.3009,0.19434 -15.58159,0.24371 -18.34961,3.23437 -1.90622,2.05966 -2.42969,3.31855 -2.42969,5.83985 0,2.80844 0.68335,4.65266 2.40039,6.4746 1.43752,1.52551 2.80988,2.22604 5.57813,2.84766 0.96006,0.21554 8.36697,0.34662 16.45898,0.29102 17.04023,-0.11754 17.84809,-0.28205 20.53516,-4.1875 2.87262,-4.17524 2.14547,-9.34254 -1.73047,-12.29883 -2.32554,-1.77381 -5.56123,-2.28404 -17.02539,-2.24805 z m -201.16016,21.78125 50.30665,74.81445 a 16,16 0 0 1 4.07226,10.63672 16,16 0 0 1 -16,16 16,16 0 0 1 -15.99023,-15.73437 z m -66.94921,22.06641 c -18.74534,0 -18.9518,0.0396 -21.72071,4.03515 -2.03719,2.93961 -2.07681,6.83747 -0.0977,9.82813 2.49307,3.76737 2.70187,3.81054 19.57812,4.0918 19.26532,0.32108 20.44018,0.17926 23.28516,-2.82422 1.66201,-1.75458 2.40039,-3.64772 2.40039,-6.15235 0,-2.49929 -0.73527,-4.39097 -2.40039,-6.17187 -2.55322,-2.73029 -3.12107,-2.80664 -21.04492,-2.80664 z m 265.37304,0 c -17.96386,0 -18.52628,0.0753 -21.08008,2.80664 -1.66513,1.7809 -2.40039,3.67258 -2.40039,6.17187 0,3.58369 2.0731,6.85759 5.23633,8.26953 1.15064,0.51361 5.36076,0.67271 18.23047,0.6875 l 16.73438,0.0195 2.27148,-1.43946 c 5.91144,-3.74887 5.62918,-11.96841 -0.5293,-15.42968 -1.87554,-1.05362 -2.40918,-1.08594 -18.46289,-1.08594 z m -265.36914,43.14258 c -14.8704,0 -15.83073,0.0553 -17.95508,1.03906 -2.78941,1.29168 -5.01284,4.34649 -5.35156,7.35156 -0.5021,4.45479 2.82643,8.85119 7.41602,9.79297 1.19662,0.24529 9.02041,0.40622 17.38672,0.35742 16.62056,-0.097 16.68968,-0.10686 19.51562,-3.16015 1.91334,-2.06725 2.42969,-3.31973 2.42969,-5.88868 0,-2.8409 -0.93722,-5.10933 -2.80664,-6.79492 -2.87279,-2.59006 -3.69707,-2.69726 -20.63477,-2.69726 z m 265.32813,0 c -16.93769,0 -17.76197,0.10709 -20.63477,2.69726 -0.78812,0.71067 -1.74146,2.01382 -2.11914,2.89649 -0.89454,2.09074 -0.87579,5.8069 0.0371,7.57226 0.92095,1.78089 3.94732,4.45335 5.39453,4.76172 0.61215,0.13047 1.56272,0.3312 2.11133,0.44727 2.17274,0.45949 29.03899,0.27587 31.16016,-0.21289 8.68228,-2.00054 10.01943,-13.41218 2.00585,-17.12305 -2.12432,-0.98364 -3.08467,-1.03906 -17.95507,-1.03906 z m -0.14453,43.65039 c -15.10646,-0.0101 -16.49383,0.0608 -18.20313,0.9375 -3.53712,1.81391 -5.0918,4.35831 -5.0918,8.33398 0,3.71144 2.50241,7.06844 6.30274,8.45508 1.53572,0.56015 5.18038,0.67818 17.96875,0.58398 l 16.04101,-0.11914 2.16211,-1.50195 c 4.49382,-3.12442 5.58888,-8.48461 2.61133,-12.78125 -2.6353,-3.80311 -3.15596,-3.8957 -21.79101,-3.9082 z m -265.03907,0.004 c -14.73187,0.01 -16.55082,0.10076 -18.34961,0.91797 -2.53276,1.15066 -4.77565,4.3215 -5.10156,7.21289 -0.47216,4.1892 2.80404,8.80925 6.98047,9.8418 0.88775,0.21893 8.6836,0.35739 17.32422,0.30859 17.17055,-0.0978 17.17874,-0.0991 20.01367,-3.16211 1.90621,-2.05966 2.42969,-3.31854 2.42969,-5.83984 0,-3.98396 -1.55224,-6.52664 -5.0918,-8.3418 -1.70929,-0.87674 -3.09864,-0.9489 -18.20508,-0.9375 z m 45.51953,31.33789 c -1.12698,0.0265 -2.2818,0.2686 -3.41992,0.74414 -1.93645,0.80904 -4.67713,3.80879 -5.20508,5.69532 -0.20969,0.74936 -0.38086,8.69215 -0.38086,17.65234 v 16.29297 l 1.50196,2.16211 c 0.86717,1.24754 2.44911,2.65011 3.74023,3.3164 4.34961,2.2447 9.772,0.37819 11.94531,-4.11132 0.95752,-1.97786 1.01563,-3.02253 1.01563,-18.41797 0,-15.06166 -0.0735,-16.46232 -0.94922,-18.16992 -1.73077,-3.37506 -4.8671,-5.2436 -8.24805,-5.16407 z m 43.92188,0.0449 c -2.31462,-0.074 -4.67022,0.72782 -6.46484,2.42578 -3.01189,2.84975 -3.04553,3.03617 -3.23633,18.82031 -0.1092,9.03268 0.029,15.58562 0.36523,17.4043 0.65407,3.5383 2.42341,6.01899 5.22656,7.33007 4.51593,2.11219 10.29954,-0.24194 12.10743,-4.92773 0.81852,-2.12148 0.91601,-4.02569 0.91601,-17.83594 0,-16.66818 -0.11174,-17.51709 -2.69726,-20.38476 -1.62969,-1.80751 -3.90218,-2.75802 -6.2168,-2.83203 z m 43.02539,0.0215 c -1.21294,-0.0179 -2.43325,0.20154 -3.57813,0.69141 -1.94083,0.83048 -4.09452,3.04645 -4.8164,4.95703 -0.33601,0.88937 -0.5293,7.48013 -0.5293,17.98047 v 16.57812 l 1.43164,2.25781 c 0.91464,1.44223 2.22046,2.65867 3.61524,3.36719 4.32977,2.19955 9.71251,0.35604 11.84961,-4.05859 1.0117,-2.08994 1.05859,-2.89431 1.05859,-18.45313 0,-10.28182 -0.19599,-16.78454 -0.53125,-17.67187 -1.28737,-3.4073 -4.86118,-5.59473 -8.5,-5.64844 z m 43.71875,0.0312 c -1.41111,-0.007 -2.86281,0.21286 -3.9082,0.66016 -0.88268,0.37769 -2.18589,1.33097 -2.89649,2.11914 -2.58548,2.86767 -2.69726,3.71658 -2.69726,20.38476 0,13.70281 0.10157,15.72603 0.89843,17.79102 0.87712,2.27295 2.97525,4.35802 5.4375,5.4043 3.52197,1.49669 9.05553,-0.87316 11.07618,-4.74219 0.99349,-1.90218 1.04101,-2.73581 1.04101,-17.95313 0,-8.77775 -0.17117,-16.57301 -0.38086,-17.32226 -0.48,-1.71521 -3.07004,-4.69801 -4.90429,-5.64649 -0.88269,-0.45659 -2.25491,-0.68856 -3.66602,-0.69531 z m 43.54883,0 c -1.36444,-0.0358 -2.77213,0.12868 -3.76758,0.50586 -1.89164,0.71669 -3.54984,2.32697 -4.69531,4.56055 -0.87544,1.70692 -0.94922,3.107 -0.94922,18.06836 0,13.65244 0.12633,16.53118 0.79297,18.19726 0.77458,1.93587 3.00394,4.05457 5.29297,5.02735 3.3576,1.4268 8.66095,-0.6752 10.93554,-4.33399 1.18258,-1.90173 1.1836,-1.92195 1.1836,-18.11328 0,-8.91492 -0.17117,-16.82095 -0.38086,-17.57031 -0.47999,-1.71521 -3.07199,-4.6979 -4.90625,-5.64649 -0.82145,-0.42477 -2.14143,-0.65956 -3.50586,-0.69531 z"
       id="path884" />
    <path
       id="path870"
       d="M 256.11133 99.941406 C 254.37802 99.944215 252.60384 100.48707 250.98438 101.60938 C 247.09475 104.30495 247.04492 104.58354 247.04492 123.2168 C 247.04492 133.62392 247.23853 140.17794 247.57422 141.06641 C 248.27509 142.92146 250.4226 145.17433 252.28125 146.00391 C 254.23699 146.87704 257.6395 146.88547 259.6543 146.02344 C 261.59513 145.19307 263.74686 142.97702 264.46875 141.06641 C 264.80474 140.17711 265 133.58622 265 123.08594 L 265 106.50781 L 263.55859 104.23828 C 261.77841 101.43122 259.00018 99.936725 256.11133 99.941406 z M 342.86523 99.955078 C 341.13312 99.955068 339.38031 100.48831 337.78516 101.59375 C 333.87119 104.3061 333.82422 104.56477 333.82422 123.26953 C 333.82422 138.5055 333.89709 139.90835 334.77344 141.61719 C 335.88116 143.77724 337.55451 145.45015 339.31055 146.15039 C 341.11663 146.8706 344.57798 146.81575 346.44141 146.03711 C 348.37788 145.22807 351.12049 142.22837 351.64844 140.3418 C 351.85813 139.59249 352.0293 131.64775 352.0293 122.6875 L 352.0293 106.39648 L 350.52539 104.23438 C 348.58148 101.43797 345.7521 99.955095 342.86523 99.955078 z M 169.19141 99.957031 C 166.29733 99.945974 163.47018 101.42546 161.51758 104.23438 L 160.01562 106.39648 L 160.01562 122.6875 C 160.01562 131.64775 160.18679 139.59249 160.39648 140.3418 C 160.90826 142.17055 163.63419 145.20612 165.49219 146.01562 C 169.98619 147.97385 174.96339 146.11403 177.26953 141.61719 C 178.14611 139.9079 178.21723 138.52054 178.20703 123.41406 C 178.19455 104.77899 178.10157 104.25835 174.29883 101.62305 C 172.68751 100.5064 170.92785 99.963666 169.19141 99.957031 z M 212.32812 100.01758 C 210.68801 100.05992 209.04703 100.55733 207.60742 101.57422 C 206.44241 102.39714 205.02031 103.96918 204.44727 105.06641 C 203.45387 106.96856 203.4043 107.80225 203.4043 123.01953 C 203.4043 131.79732 203.57365 139.5793 203.7793 140.3125 C 204.25669 142.01456 206.41978 144.59134 208.37109 145.78125 C 211.41692 147.63873 216.60717 146.73587 219.16016 143.9043 C 221.74563 141.0367 221.85742 140.18771 221.85742 123.51953 C 221.85742 109.70929 221.75991 107.80503 220.94141 105.68359 C 219.53452 102.03715 215.93638 99.924431 212.32812 100.01758 z M 299.45117 100.07812 C 295.76104 100.07812 292.76708 101.98349 291.22461 105.31445 C 290.24092 107.43879 290.18555 108.39912 290.18555 123.26953 C 290.18555 140.20738 290.2927 141.03102 292.88281 143.90234 C 293.59341 144.69014 294.84895 145.63654 295.67188 146.00391 C 297.66384 146.89292 301.61934 146.88502 303.35352 145.98828 C 305.18777 145.0398 307.77781 142.057 308.25781 140.3418 C 308.4675 139.59249 308.63867 131.79732 308.63867 123.01953 C 308.63867 107.80225 308.59109 106.96856 307.59766 105.06641 C 307.02462 103.96918 305.6025 102.39714 304.4375 101.57422 C 302.67729 100.33086 301.834 100.07814 299.45117 100.07812 z M 106.48438 159.92578 L 104.32422 161.42969 C 101.40903 163.45622 99.784405 166.63295 100.06055 169.76758 C 100.3311 172.8388 102.49082 175.99209 105.15234 177.20117 C 106.95113 178.01827 108.77008 178.10774 123.50195 178.11914 C 138.60839 178.12935 139.99774 178.05819 141.70703 177.18164 C 143.94068 176.0362 145.5489 174.37796 146.26562 172.48633 C 147.01996 170.49543 146.92573 166.85582 146.07617 165.21289 C 145.12762 163.37867 142.14489 160.78667 140.42969 160.30664 C 139.68038 160.09698 131.73758 159.92578 122.77734 159.92578 L 106.48438 159.92578 z M 256.02148 159.92578 C 173.84097 159.92578 180.00917 159.72103 174.24414 162.66211 C 167.67166 166.01514 164.34599 169.81045 161.41211 177.30469 L 160.01562 180.87305 L 160.01562 255.93359 C 160.01562 326.25851 160.07057 331.14395 160.89062 333.38672 C 163.31258 340.01031 166.20059 343.93964 171.14648 347.3418 C 174.4094 349.58638 178.65374 351.26418 182.20898 351.71289 C 183.71767 351.90328 217.94271 352.02442 258.26562 351.98242 C 326.70004 351.91095 331.72425 351.8482 333.74609 351.03711 C 343.06557 347.2981 347.83601 342.46173 351.1543 333.38672 C 351.97425 331.14395 352.0293 326.25851 352.0293 255.93359 L 352.0293 180.87305 L 350.60742 177.24023 C 347.31525 168.82746 342.32047 164.03525 333.47461 160.80078 C 331.23189 159.98108 326.34625 159.92578 256.02148 159.92578 z M 389.26758 159.92773 C 380.30742 159.92773 372.36259 160.09893 371.61328 160.30859 C 369.89807 160.78862 366.91729 163.37867 365.96875 165.21289 C 365.5713 165.98143 365.24609 167.6378 365.24609 168.89453 C 365.24609 172.78738 366.87171 175.39919 370.48242 177.30273 C 371.75802 177.97517 374.40585 178.08831 388.4375 178.09961 C 407.1931 178.10994 407.69159 178.02109 410.33203 174.21094 C 413.3098 169.91397 412.21503 164.55378 407.7207 161.42969 L 405.55859 159.92773 L 389.26758 159.92773 z M 246.35352 188.1875 C 250.85437 188.15059 255.33537 188.30006 257.875 188.65234 C 287.50256 192.76212 312.39493 210.13133 325.91992 236.13086 C 330.71768 245.35371 333.50754 254.06527 335.19336 265.08984 C 335.97096 270.17496 336.07044 283.08439 335.37109 288.07812 C 333.85164 298.92778 331.07504 307.99782 326.43945 317.25391 C 324.08067 321.96378 318.00305 331.35787 316.94922 331.92188 C 315.37025 332.76691 314.60565 332.31527 304.34375 324.47852 C 298.72258 320.18577 293.8443 316.34809 293.50391 315.95117 C 293.16353 315.55426 292.88477 314.88204 292.88477 314.45703 C 292.88477 314.03203 294.10256 311.86265 295.58984 309.63477 C 309.79187 288.36057 311.65191 261.7402 300.51953 239.09766 C 288.04162 213.71836 262.36393 198.36394 234.17969 199.42773 C 217.16941 200.06976 201.45533 206.2077 189.68945 216.80469 C 187.72655 218.57259 186.87092 219.11719 186.05664 219.11719 C 184.59529 219.11719 183.25586 217.72816 183.25586 216.21484 C 183.25586 215.2271 183.64439 214.68348 185.81836 212.63086 C 194.23764 204.68156 204.8447 197.99232 215.70703 193.7832 C 220.69315 191.85109 228.90115 189.7166 234.71094 188.8418 C 237.33158 188.44719 241.85263 188.2244 246.35352 188.1875 z M 120.58008 203.10742 C 109.11592 203.07143 105.88023 203.58166 103.55469 205.35547 C 99.671186 208.31754 98.952518 213.47813 101.83789 217.67188 C 103.31944 219.82524 105.10008 220.88156 108.64453 221.70898 C 109.19314 221.8331 116.37631 221.89213 124.60547 221.83203 C 140.94948 221.71336 141.63636 221.60506 144.39844 218.69336 C 146.1139 216.88501 146.79883 215.03969 146.79883 212.22852 C 146.79883 209.70722 146.27535 208.44833 144.36914 206.38867 C 141.60112 203.39801 141.31848 203.34864 126.01758 203.1543 C 124.02262 203.12895 122.21782 203.11256 120.58008 203.10742 z M 391.46289 203.10742 C 389.82515 203.11256 388.02035 203.12895 386.02539 203.1543 C 370.72449 203.34864 370.4438 203.39801 367.67578 206.38867 C 365.76956 208.44833 365.24609 209.70722 365.24609 212.22852 C 365.24609 215.03696 365.92944 216.88118 367.64648 218.70312 C 369.084 220.22863 370.45636 220.92916 373.22461 221.55078 C 374.18467 221.76632 381.59158 221.8974 389.68359 221.8418 C 406.72382 221.72426 407.53168 221.55975 410.21875 217.6543 C 413.09137 213.47906 412.36422 208.31176 408.48828 205.35547 C 406.16274 203.58166 402.92705 203.07143 391.46289 203.10742 z M 190.30273 224.88867 L 240.60938 299.70312 A 16 16 0 0 1 244.68164 310.33984 A 16 16 0 0 1 228.68164 326.33984 A 16 16 0 0 1 212.69141 310.60547 L 190.30273 224.88867 z M 123.35352 246.95508 C 104.60818 246.95508 104.40172 246.9947 101.63281 250.99023 C 99.595621 253.92984 99.556002 257.8277 101.53516 260.81836 C 104.02823 264.58573 104.23703 264.6289 121.11328 264.91016 C 140.3786 265.23124 141.55346 265.08942 144.39844 262.08594 C 146.06045 260.33136 146.79883 258.43822 146.79883 255.93359 C 146.79883 253.4343 146.06356 251.54262 144.39844 249.76172 C 141.84522 247.03143 141.27737 246.95508 123.35352 246.95508 z M 388.72656 246.95508 C 370.7627 246.95508 370.20028 247.03042 367.64648 249.76172 C 365.98135 251.54262 365.24609 253.4343 365.24609 255.93359 C 365.24609 259.51728 367.31919 262.79118 370.48242 264.20312 C 371.63306 264.71673 375.84318 264.87583 388.71289 264.89062 L 405.44727 264.91016 L 407.71875 263.4707 C 413.63019 259.72183 413.34793 251.50229 407.18945 248.04102 C 405.31391 246.9874 404.78027 246.95508 388.72656 246.95508 z M 123.35742 290.09766 C 108.48702 290.09766 107.52669 290.15296 105.40234 291.13672 C 102.61293 292.4284 100.3895 295.48321 100.05078 298.48828 C 99.548677 302.94307 102.87721 307.33947 107.4668 308.28125 C 108.66342 308.52654 116.48721 308.68747 124.85352 308.63867 C 141.47408 308.54167 141.5432 308.53181 144.36914 305.47852 C 146.28248 303.41127 146.79883 302.15879 146.79883 299.58984 C 146.79883 296.74894 145.86161 294.48051 143.99219 292.79492 C 141.1194 290.20486 140.29512 290.09766 123.35742 290.09766 z M 388.68555 290.09766 C 371.74786 290.09766 370.92358 290.20475 368.05078 292.79492 C 367.26266 293.50559 366.30932 294.80874 365.93164 295.69141 C 365.0371 297.78215 365.05585 301.49831 365.96875 303.26367 C 366.8897 305.04456 369.91607 307.71702 371.36328 308.02539 C 371.97543 308.15586 372.926 308.35659 373.47461 308.47266 C 375.64735 308.93215 402.5136 308.74853 404.63477 308.25977 C 413.31705 306.25923 414.6542 294.84759 406.64062 291.13672 C 404.5163 290.15308 403.55595 290.09766 388.68555 290.09766 z M 388.54102 333.74805 C 373.43456 333.73795 372.04719 333.80889 370.33789 334.68555 C 366.80077 336.49946 365.24609 339.04386 365.24609 343.01953 C 365.24609 346.73097 367.7485 350.08797 371.54883 351.47461 C 373.08455 352.03476 376.72921 352.15279 389.51758 352.05859 L 405.55859 351.93945 L 407.7207 350.4375 C 412.21452 347.31308 413.30958 341.95289 410.33203 337.65625 C 407.69673 333.85314 407.17607 333.76055 388.54102 333.74805 z M 123.50195 333.75195 C 108.77008 333.76182 106.95113 333.85271 105.15234 334.66992 C 102.61958 335.82058 100.37669 338.99142 100.05078 341.88281 C 99.578617 346.07201 102.85482 350.69206 107.03125 351.72461 C 107.919 351.94354 115.71485 352.082 124.35547 352.0332 C 141.52602 351.93541 141.53421 351.93413 144.36914 348.87109 C 146.27535 346.81143 146.79883 345.55255 146.79883 343.03125 C 146.79883 339.04729 145.24659 336.50461 141.70703 334.68945 C 139.99774 333.81271 138.60839 333.74055 123.50195 333.75195 z M 169.02148 365.08984 C 167.8945 365.11635 166.73968 365.35844 165.60156 365.83398 C 163.66511 366.64302 160.92443 369.64277 160.39648 371.5293 C 160.18679 372.27866 160.01562 380.22145 160.01562 389.18164 L 160.01562 405.47461 L 161.51758 407.63672 C 162.38475 408.88426 163.96669 410.28683 165.25781 410.95312 C 169.60742 413.19782 175.02981 411.33131 177.20312 406.8418 C 178.16064 404.86394 178.21875 403.81927 178.21875 388.42383 C 178.21875 373.36217 178.14526 371.96151 177.26953 370.25391 C 175.53876 366.87885 172.40243 365.01031 169.02148 365.08984 z M 212.94336 365.13477 C 210.62874 365.06075 208.27314 365.86259 206.47852 367.56055 C 203.46663 370.4103 203.43299 370.59672 203.24219 386.38086 C 203.13299 395.41354 203.27122 401.96648 203.60742 403.78516 C 204.26149 407.32346 206.03083 409.80415 208.83398 411.11523 C 213.34991 413.22742 219.13352 410.87329 220.94141 406.1875 C 221.75993 404.06602 221.85742 402.16181 221.85742 388.35156 C 221.85742 371.68338 221.74568 370.83447 219.16016 367.9668 C 217.53047 366.15929 215.25798 365.20878 212.94336 365.13477 z M 255.96875 365.15625 C 254.75581 365.13835 253.5355 365.35779 252.39062 365.84766 C 250.44979 366.67814 248.2961 368.89411 247.57422 370.80469 C 247.23821 371.69406 247.04492 378.28482 247.04492 388.78516 L 247.04492 405.36328 L 248.47656 407.62109 C 249.3912 409.06332 250.69702 410.27976 252.0918 410.98828 C 256.42157 413.18783 261.80431 411.34432 263.94141 406.92969 C 264.95311 404.83975 265 404.03538 265 388.47656 C 265 378.19474 264.80401 371.69202 264.46875 370.80469 C 263.18138 367.39739 259.60757 365.20996 255.96875 365.15625 z M 299.6875 365.1875 C 298.27639 365.18075 296.82469 365.40036 295.7793 365.84766 C 294.89662 366.22535 293.59341 367.17863 292.88281 367.9668 C 290.29733 370.83447 290.18555 371.68338 290.18555 388.35156 C 290.18555 402.05437 290.28712 404.07759 291.08398 406.14258 C 291.9611 408.41553 294.05923 410.5006 296.52148 411.54688 C 300.04345 413.04357 305.57701 410.67372 307.59766 406.80469 C 308.59115 404.90251 308.63867 404.06888 308.63867 388.85156 C 308.63867 380.07381 308.4675 372.27855 308.25781 371.5293 C 307.77781 369.81409 305.18777 366.83129 303.35352 365.88281 C 302.47083 365.42622 301.09861 365.19425 299.6875 365.1875 z M 343.23633 365.1875 C 341.87189 365.15175 340.4642 365.31618 339.46875 365.69336 C 337.57711 366.41005 335.91891 368.02033 334.77344 370.25391 C 333.898 371.96083 333.82422 373.36091 333.82422 388.32227 C 333.82422 401.97471 333.95055 404.85345 334.61719 406.51953 C 335.39177 408.4554 337.62113 410.5741 339.91016 411.54688 C 343.26776 412.97368 348.57111 410.87168 350.8457 407.21289 C 352.02828 405.31116 352.0293 405.29094 352.0293 389.09961 C 352.0293 380.18469 351.85813 372.27866 351.64844 371.5293 C 351.16845 369.81409 348.57645 366.8314 346.74219 365.88281 C 345.92074 365.45804 344.60076 365.22325 343.23633 365.1875 z "
       style="fill:#ffffff;stroke-width:0.49873799" />
  </g>
</svg>
