<?xml version="1.0" encoding="UTF-8" standalone="no"?>
<!-- Created with Inkscape (http://www.inkscape.org/) -->

<svg
   xmlns:dc="http://purl.org/dc/elements/1.1/"
   xmlns:cc="http://creativecommons.org/ns#"
   xmlns:rdf="http://www.w3.org/1999/02/22-rdf-syntax-ns#"
   xmlns:svg="http://www.w3.org/2000/svg"
   xmlns="http://www.w3.org/2000/svg"
   xmlns:sodipodi="http://sodipodi.sourceforge.net/DTD/sodipodi-0.dtd"
   xmlns:inkscape="http://www.inkscape.org/namespaces/inkscape"
   id="svg3007"
   version="1.1"
   inkscape:version="0.92.3 (2405546, 2018-03-11)"
   width="513"
   height="513"
   sodipodi:docname="gnome-nettool.svg"
   viewBox="0 0 513 513">
  <metadata
     id="metadata3013">
    <rdf:RDF>
      <cc:Work
         rdf:about="">
        <dc:format>image/svg+xml</dc:format>
        <dc:type
           rdf:resource="http://purl.org/dc/dcmitype/StillImage" />
        <dc:title />
      </cc:Work>
    </rdf:RDF>
  </metadata>
  <defs
     id="defs3011" />
  <sodipodi:namedview
     pagecolor="#ffffff"
     bordercolor="#666666"
     borderopacity="1"
     objecttolerance="10"
     gridtolerance="10"
     guidetolerance="10"
     inkscape:pageopacity="0"
     inkscape:pageshadow="2"
     inkscape:window-width="1366"
     inkscape:window-height="720"
     id="namedview3009"
     showgrid="false"
     inkscape:zoom="0.11500975"
     inkscape:cx="-728.06433"
     inkscape:cy="724.39421"
     inkscape:window-x="0"
     inkscape:window-y="23"
     inkscape:window-maximized="1"
     inkscape:current-layer="svg3007"
     inkscape:document-units="px" />
  <g
     id="g836">
    <path
       id="path1148"
       d="m 432.9132,57.47396 c 102.1931,88.57459 105.82677,249.69971 8.11688,359.89879 C 343.32022,527.57183 181.27977,545.10063 79.086636,456.52601 -23.106121,367.95142 -26.740136,206.82631 70.970101,96.62722 168.67996,-13.57186 330.72041,-31.10063 432.9132,57.47396 Z"
       inkscape:connector-curvature="0"
       style="fill:#3689e6;fill-opacity:1;stroke-width:11.10955811" />
    <path
       id="path1150"
       d="M 511.63547,225.90351 C 510.08431,287.21516 486.4744,350.05812 440.66917,401.71799 342.95931,511.91713 180.91883,529.44583 78.725691,440.87128 30.826982,399.35563 4.4969029,341.92284 0.19391075,281.2288 0.79901312,347.58548 27.117376,411.48217 79.078699,456.51906 181.27146,545.09363 343.31984,527.55623 441.02218,417.36576 490.72712,361.30766 514.02715,292.0748 511.63547,225.90351 Z"
       inkscape:connector-curvature="0"
       style="opacity:1;fill:#000000;fill-opacity:0.49019608;stroke-width:11.10955811" />
    <path
       inkscape:connector-curvature="0"
       d="M 275.99999,121 C 189.9819,121 120,190.98114 120,276.99999 120,363.01809 189.9819,433 275.99999,433 362.01809,433 432,363.01809 432,276.99999 432,190.98114 362.01809,121 275.99999,121 Z m 79.22076,71.6358 c -19.92864,-19.61359 -45.52096,-32.09812 -77.32678,-33.31054 v -31.877 c 40.8932,0.81785 74.41198,16.49965 100.59273,41.59898 z m -77.32755,11.22064 c 18.93204,0.76486 33.95727,7.90299 46.26611,19.19331 l -46.26611,46.26461 z m -6.81553,71.25036 h -68.22123 c 1.62892,-37.86408 33.38628,-69.62144 68.22123,-71.25036 z m 0,6.81553 v 68.22123 c -34.83495,-1.62892 -66.59231,-33.38628 -68.22123,-68.22123 z m 6.81553,0 h 71.25036 c -1.62892,34.83495 -33.38628,66.59231 -71.25036,68.22123 z m 51.41032,-63.37234 C 315.83831,206.11088 299.85437,198.26317 277.8932,197.48923 v -31.79675 c 28.01942,1.20787 53.72988,12.98207 72.5029,31.44233 z m -58.22585,-21.06076 c -37.86408,1.63724 -72.95197,36.72436 -74.58845,77.61757 h -31.87776 c 0.85041,-59.82525 49.67009,-108.64492 106.46621,-109.49458 z m -74.58845,84.4331 c 1.63648,37.86408 36.72437,72.95045 74.58845,74.58845 v 28.69415 C 214.28155,384.36889 167.18166,338.71845 164.69324,281.92233 Z m 81.40398,74.58845 c 40.89321,-1.638 75.97957,-36.72437 77.61757,-74.58845 h 28.61237 C 381.6794,335.68932 334.68932,382.68016 277.8932,385.12314 Z m -6.81553,-229.06252 v 31.79598 c -60.58253,0.85194 -111.9815,52.2509 -112.83344,115.86256 h -31.79522 c 1.68343,-82.54369 65.1141,-145.97511 144.62866,-147.65854 z M 126.44901,281.92233 h 31.87701 c 2.49524,60.58253 52.16988,108.81302 112.7524,109.64983 v 34.97958 C 191.56311,424.86679 128.13244,361.43689 126.44901,281.92233 Z M 277.8932,426.55174 v -35.06137 c 59.82525,-2.45283 110.14432,-52.77269 112.59793,-109.56879 h 35.06137 c -1.68571,79.51531 -65.11561,142.94521 -147.6593,144.63016 z"
       id="path830"
       style="fill:#000000;fill-opacity:0.49019608;stroke-width:0.698a715e" />
    <path
       style="fill:#ffffff;fill-opacity:1;stroke-width:0.698a715e"
       id="path3340"
       d="M 255.99999,101 C 169.9819,101 100,170.98114 100,256.99999 100,343.01809 169.9819,413 255.99999,413 342.01809,413 412,343.01809 412,256.99999 412,170.98114 342.01809,101 255.99999,101 Z m 79.22076,71.6358 c -19.92864,-19.61359 -45.52096,-32.09812 -77.32678,-33.31054 v -31.877 c 40.8932,0.81785 74.41198,16.49965 100.59273,41.59898 z m -77.32755,11.22064 c 18.93204,0.76486 33.95727,7.90299 46.26611,19.19331 l -46.26611,46.26461 z m -6.81553,71.25036 h -68.22123 c 1.62892,-37.86408 33.38628,-69.62144 68.22123,-71.25036 z m 0,6.81553 v 68.22123 c -34.83495,-1.62892 -66.59231,-33.38628 -68.22123,-68.22123 z m 6.81553,0 h 71.25036 c -1.62892,34.83495 -33.38628,66.59231 -71.25036,68.22123 z m 51.41032,-63.37234 C 295.83831,186.11088 279.85437,178.26317 257.8932,177.48923 v -31.79675 c 28.01942,1.20787 53.72988,12.98207 72.5029,31.44233 z m -58.22585,-21.06076 c -37.86408,1.63724 -72.95197,36.72436 -74.58845,77.61757 h -31.87776 c 0.85041,-59.82525 49.67009,-108.64492 106.46621,-109.49458 z m -74.58845,84.4331 c 1.63648,37.86408 36.72437,72.95045 74.58845,74.58845 v 28.69415 C 194.28155,364.36889 147.18166,318.71845 144.69324,261.92233 Z m 81.40398,74.58845 c 40.89321,-1.638 75.97957,-36.72437 77.61757,-74.58845 h 28.61237 C 361.6794,315.68932 314.68932,362.68016 257.8932,365.12314 Z m -6.81553,-229.06252 v 31.79598 c -60.58253,0.85194 -111.9815,52.2509 -112.83344,115.86256 h -31.79522 c 1.68343,-82.54369 65.1141,-145.97511 144.62866,-147.65854 z M 106.44901,261.92233 h 31.87701 c 2.49524,60.58253 52.16988,108.81302 112.7524,109.64983 v 34.97958 C 171.56311,404.86679 108.13244,341.43689 106.44901,261.92233 Z M 257.8932,406.55174 v -35.06137 c 59.82525,-2.45283 110.14432,-52.77269 112.59793,-109.56879 h 35.06137 c -1.68571,79.51531 -65.11561,142.94521 -147.6593,144.63016 z"
       inkscape:connector-curvature="0" />
  </g>
</svg>
