<?xml version="1.0" encoding="UTF-8" standalone="no"?>
<!-- Created with Inkscape (http://www.inkscape.org/) -->

<svg
   xmlns:dc="http://purl.org/dc/elements/1.1/"
   xmlns:cc="http://creativecommons.org/ns#"
   xmlns:rdf="http://www.w3.org/1999/02/22-rdf-syntax-ns#"
   xmlns:svg="http://www.w3.org/2000/svg"
   xmlns="http://www.w3.org/2000/svg"
   xmlns:sodipodi="http://sodipodi.sourceforge.net/DTD/sodipodi-0.dtd"
   xmlns:inkscape="http://www.inkscape.org/namespaces/inkscape"
   id="svg2"
   version="1.1"
   inkscape:version="0.92.3 (2405546, 2018-03-11)"
   width="512"
   height="512"
   sodipodi:docname="gnutella.svg">
  <metadata
     id="metadata8">
    <rdf:RDF>
      <cc:Work
         rdf:about="">
        <dc:format>image/svg+xml</dc:format>
        <dc:type
           rdf:resource="http://purl.org/dc/dcmitype/StillImage" />
        <dc:title></dc:title>
      </cc:Work>
    </rdf:RDF>
  </metadata>
  <defs
     id="defs6" />
  <sodipodi:namedview
     pagecolor="#ffffff"
     bordercolor="#666666"
     borderopacity="1"
     objecttolerance="10"
     gridtolerance="10"
     guidetolerance="10"
     inkscape:pageopacity="0"
     inkscape:pageshadow="2"
     inkscape:window-width="1366"
     inkscape:window-height="720"
     id="namedview4"
     showgrid="false"
     inkscape:zoom="0.32593203"
     inkscape:cx="46.019485"
     inkscape:cy="468.4264"
     inkscape:window-x="0"
     inkscape:window-y="23"
     inkscape:window-maximized="1"
     inkscape:current-layer="svg2" />
  <g
     id="g876">
    <path
       id="path911"
       d="M 432.91337,56.473981 C 535.10617,145.04858 538.74003,306.17369 441.03016,416.37282 343.3201,526.57177 181.27948,544.10058 79.086674,455.52601 -23.106167,366.95144 -26.740027,205.82632 70.969882,95.627244 168.67976,-14.571835 330.7203,-32.100608 432.91337,56.473981 Z"
       inkscape:connector-curvature="0"
       style="fill:#3689e6;fill-opacity:1;stroke-width:11.10955238" />
    <path
       id="path913"
       d="M 511.63501,224.90354 C 510.08361,286.21519 486.4738,349.05814 440.6687,400.71802 342.95883,510.91715 180.91853,528.44586 78.725719,439.87131 30.827116,398.35561 4.4968409,340.92285 0.19385148,280.2288 0.79910237,346.58549 27.117407,410.48222 79.078623,455.51902 181.27144,544.09358 343.31942,526.55626 441.0216,416.36582 c 49.70489,-56.05817 73.00495,-125.291 70.61341,-191.46228 z"
       inkscape:connector-curvature="0"
       style="opacity:1;fill:#000000;fill-opacity:0.49019608;stroke-width:11.10955238" />
    <path
       inkscape:connector-curvature="0"
       id="path870"
       d="m 266.8662,431.82994 c -25.44659,-1.59206 -49.73223,-9.12463 -71.40516,-22.14745 -22.36287,-13.43738 -41.83227,-33.35104 -54.97053,-56.22485 -2.72777,-4.74906 -7.46482,-14.56511 -9.47601,-19.636 -12.13289,-30.5913 -14.31447,-64.59926 -6.1856,-96.42615 9.03094,-35.35881 30.52419,-66.74567 60.38126,-88.17548 19.9021,-14.28466 43.66333,-23.90015 67.68835,-27.39154 8.89085,-1.29204 13.64738,-1.62724 23.09095,-1.62724 9.44358,0 14.2001,0.3352 23.09095,1.62724 42.09696,6.11765 80.44249,29.96344 105.09227,65.35332 6.36186,9.13377 12.85808,21.23381 16.90425,31.48635 15.97529,40.47945 14.36672,85.82805 -4.42699,124.80509 -24.03887,49.85524 -71.96327,83.06293 -127.01232,88.00918 -5.57521,0.50094 -17.428,0.68183 -22.77142,0.34753 z m 23.50087,-11.50048 c 11.13803,-1.099 19.01697,-3.63882 24.1155,-7.77375 4.63759,-3.76112 6.8415,-9.5615 5.7976,-15.2585 -0.70298,-3.83646 -7.8224,-29.4708 -12.63467,-45.49269 -1.09779,-3.65493 -1.93331,-6.70798 -1.85671,-6.78455 0.0766,-0.0766 0.37807,0.29291 0.66995,0.82109 0.29189,0.52817 3.01109,5.52817 6.04267,11.11112 3.03159,5.58295 8.66554,15.69216 12.51989,22.46492 6.35452,11.16596 7.22755,12.5337 9.36351,14.6693 2.72995,2.7295 4.93286,3.92254 8.63747,4.67787 2.3083,0.47063 2.87898,0.47405 5.47102,0.0328 8.86239,-1.50883 18.99055,-8.20462 31.84467,-21.05269 18.24664,-18.23804 23.18741,-27.84052 18.83222,-36.60079 -1.98115,-3.98499 -6.37427,-7.98446 -14.32837,-13.04446 -9.42351,-5.99476 -28.45644,-17.08906 -41.86032,-24.40039 -2.79228,-1.5231 -5.01429,-2.83183 -4.9378,-2.90831 0.0765,-0.0765 3.33477,0.84218 7.24061,2.04147 17.35636,5.32925 50.62073,14.49295 55.1731,15.19913 8.19504,1.27124 15.36833,-3.97579 18.98259,-13.88518 1.29194,-3.54214 2.54311,-9.34445 3.18163,-14.75477 1.14826,-9.72934 0.98457,-26.80245 -0.34248,-35.72317 -1.72462,-11.59331 -5.885,-17.66722 -13.17148,-19.22957 -3.29532,-0.70657 -10.4272,-0.20457 -16.60956,1.16911 -13.79388,3.06493 -36.45574,9.0496 -51.89874,13.70572 -6.05436,1.82542 -5.84646,1.67279 6.54247,-4.80301 12.80556,-6.69357 33.04364,-17.88883 44.14298,-24.41893 7.40894,-4.35891 10.17002,-8.44879 10.19296,-15.09836 0.024,-6.97244 -4.03865,-15.18142 -12.668,-25.59668 -3.49018,-4.2125 -15.07349,-15.7841 -19.44696,-19.42729 -9.5451,-7.95128 -16.81409,-11.02491 -22.6615,-9.58221 -1.25999,0.31087 -3.09066,1.04942 -4.06815,1.64122 -2.18764,1.32447 -6.14807,5.09915 -7.9762,7.6021 -4.71659,6.45765 -17.77785,28.47252 -28.0668,47.30682 -2.27501,4.16451 -4.184,7.42901 -4.2422,7.25446 -0.0582,-0.17456 1.1896,-4.5312 2.77288,-9.68143 5.98603,-19.47183 14.60304,-50.58559 15.11262,-54.56767 1.28651,-10.05334 -6.32851,-17.63975 -20.715,-20.63719 -7.58789,-1.58094 -10.71712,-1.81213 -24.52765,-1.81213 -10.63141,0 -13.91814,0.10919 -17.16703,0.57033 -8.4014,1.19248 -13.74534,3.10024 -17.07948,6.0973 -3.34558,3.00735 -5.04682,8.47617 -4.54698,14.61684 0.57983,7.12353 6.95692,33.10319 13.68373,55.74627 1.22354,4.11857 2.30107,7.78784 2.3945,8.15394 0.38226,1.49791 -0.7051,-0.31586 -4.58904,-7.65471 -6.46882,-12.22308 -14.23908,-26.25372 -22.39419,-40.43686 -4.91048,-8.54016 -7.21158,-11.4963 -10.34342,-13.28779 -4.20337,-2.40443 -9.84246,-2.66127 -15.35583,-0.69939 -8.22421,2.92651 -16.6992,9.21763 -28.52772,21.17659 -7.19625,7.27562 -10.54503,11.15758 -13.75163,15.94114 -5.23618,7.81126 -6.41947,13.75134 -3.79933,19.07252 1.54893,3.14566 6.13768,7.76821 10.90953,10.98987 9.19395,6.2072 38.36949,23.0449 57.78604,33.34932 2.18652,1.1604 3.8271,2.15927 3.64573,2.21971 -0.18138,0.0605 -4.5169,-1.17601 -9.63449,-2.74769 -23.14278,-7.10744 -51.9403,-14.73971 -61.40495,-16.27431 -3.59617,-0.58308 -7.59021,-0.65728 -10.4219,-0.19361 -6.26085,1.02516 -10.84067,6.13146 -12.84595,14.32267 -1.43685,5.86932 -1.75503,9.37165 -1.93299,21.27779 -0.28895,19.33197 1.05822,29.00636 5.22057,37.4902 1.90103,3.87475 4.83453,7.30452 7.73945,9.04877 2.30722,1.38536 6.03359,2.20415 8.74978,1.92258 4.14687,-0.42987 39.42016,-10.25941 59.7251,-16.64348 2.09053,-0.65728 3.94797,-1.14607 4.12764,-1.08619 0.17967,0.0599 -3.17852,2.03897 -7.46266,4.39798 -15.68539,8.63697 -33.65832,19.19573 -42.07617,24.71896 -5.44503,3.57268 -10.1608,8.14202 -11.76072,11.39556 -4.30288,8.75021 0.42123,18.24969 17.79219,35.77746 11.88259,11.98986 21.32847,18.72513 29.91977,21.33395 3.01801,0.91644 9.03591,0.84846 11.48443,-0.12973 2.39569,-0.9571 4.78211,-2.79735 6.64917,-5.12743 2.38762,-2.97974 18.33225,-31.28834 28.79407,-51.12192 2.15312,-4.08189 3.98379,-7.35259 4.06816,-7.26824 0.0844,0.0844 -1.12631,4.54733 -2.69041,9.91771 -7.95219,27.30413 -13.11221,48.15738 -13.69846,55.3598 -0.30117,3.69992 0.30573,7.84061 1.51587,10.34242 1.97144,4.07571 6.4404,7.22879 12.43428,8.77303 8.39524,2.16292 26.59557,2.83957 40.21959,1.49528 z m -28.02576,-6.80154 c -10.10716,-1.01037 -16.02846,-2.90569 -17.89762,-5.72876 -0.84324,-1.27359 -0.91863,-1.67039 -1.02478,-5.39321 -0.1019,-3.5741 0.0178,-4.66712 1.08247,-9.88422 2.85277,-13.97914 9.34163,-38.17044 15.98102,-59.57932 4.38721,-14.14666 15.37341,-46.52402 15.99845,-47.14893 0.0959,-0.0959 0.24208,-0.10665 0.32483,-0.0239 0.29361,0.29356 5.80971,14.55738 8.67234,22.42544 3.70605,10.18622 11.27584,32.88852 14.98127,44.92983 5.92349,19.24918 12.76313,43.48212 13.04597,46.22204 0.74964,7.26178 -5.75304,11.58504 -20.62429,13.71192 -4.31399,0.61699 -25.7644,0.9465 -30.53966,0.46914 z m -58.68166,-22.12767 c -7.38606,-2.03083 -18.67122,-10.62641 -30.48325,-23.21819 -7.0099,-7.47266 -10.66062,-12.27569 -12.81432,-16.85907 -1.96217,-4.17576 -1.28553,-6.90242 2.71981,-10.95993 4.46601,-4.52417 28.984,-19.215 57.81563,-34.64228 13.63685,-7.29683 47.1132,-23.82128 47.78284,-23.58636 0.30642,0.1075 -3.04051,7.98922 -7.81594,18.40586 -4.09862,8.94033 -16.59955,33.98472 -22.17757,44.43062 -10.68786,20.01502 -23.20704,42.14575 -24.91005,44.03464 -2.38052,2.64035 -6.05799,3.51079 -10.11715,2.39471 z m 138.58324,0.12707 c -2.63315,-1.05066 -3.71381,-2.5401 -10.23546,-14.1071 -17.64928,-31.30335 -33.82171,-63.10132 -44.5798,-87.65211 -2.89769,-6.61274 -3.31968,-7.69898 -2.99095,-7.69898 0.42932,0 23.03911,11.0453 33.63991,16.43372 18.62416,9.46674 33.6112,17.72868 50.36606,27.76545 16.64843,9.97302 22.68724,14.42629 24.61395,18.15136 1.28269,2.47994 -0.14241,7.15037 -3.86457,12.66524 -5.45021,8.0752 -18.93392,21.62476 -27.92513,28.06149 -3.64117,2.60669 -9.25948,5.53958 -11.92504,6.22516 -2.26838,0.58343 -5.83126,0.66161 -7.09897,0.15577 z m 50.75454,-82.31449 c -32.06422,-8.83548 -64.92561,-19.29857 -88.71301,-28.24628 -13.21278,-4.97003 -16.38891,-6.27476 -16.06445,-6.59916 0.57831,-0.57819 21.543,-7.86899 36.85893,-12.81828 23.22337,-7.50454 52.59995,-15.63681 69.08362,-19.12429 4.32273,-0.91458 5.8886,-1.09438 9.65357,-1.1085 3.84983,-0.0144 4.68474,0.0785 5.82543,0.64877 4.55063,2.27485 6.61935,12.05946 6.61436,31.28448 -0.004,13.61369 -0.99964,21.74158 -3.51688,28.69689 -2.32709,6.42993 -5.65378,9.4405 -10.37951,9.39319 -1.02051,-0.0102 -4.78155,-0.86463 -9.36206,-2.12682 z m -246.66787,1.02853 c -4.40697,-2.0518 -7.32291,-8.67683 -9.03059,-20.51752 -0.70278,-4.87292 -0.98961,-22.09983 -0.47427,-28.48438 0.85028,-10.53424 2.66597,-16.80972 5.51093,-19.04711 2.21727,-1.74375 7.42196,-1.76325 15.81366,-0.0593 21.27056,4.31912 59.6089,15.40483 91.5448,26.47062 6.68134,2.31508 12.82198,4.43972 13.64586,4.7214 0.82389,0.28169 1.6216,0.62335 1.7727,0.75924 0.30299,0.27249 -2.10677,1.32246 -10.00823,4.36076 -25.81053,9.92477 -62.32505,21.62168 -95.99499,30.75064 -7.85944,2.13093 -10.06175,2.31112 -12.77987,1.04562 z m 138.31483,-44.16943 c 0,-0.97862 14.53076,-30.30647 22.16749,-44.74128 11.57466,-21.87822 26.74496,-47.96953 32.99314,-56.74472 3.91213,-5.49434 7.28197,-7.8996 10.58945,-7.5583 4.5314,0.46758 12.36966,5.98009 22.56525,15.86971 10.36341,10.05242 17.44722,19.2414 20.40395,26.46761 0.80367,1.96417 0.95398,2.79965 0.95799,5.32502 0.008,5.2666 -0.79567,6.07359 -12.85164,12.8988 -34.00011,19.24837 -69.32391,37.20259 -92.49816,47.01455 -1.19006,0.50387 -2.65058,1.12231 -3.2456,1.37432 -0.72535,0.30719 -1.08187,0.33826 -1.08187,0.0943 z m -29.62648,-6.25946 c -31.7265,-15.45704 -66.92948,-34.83407 -85.05131,-46.81537 -8.00502,-5.29254 -10.82861,-8.43668 -10.81076,-12.03802 0.0246,-4.95488 6.4716,-13.99588 18.39501,-25.79621 12.43368,-12.30535 22.67697,-18.90155 29.34283,-18.89542 5.05283,0.005 6.18001,1.07671 12.07042,11.48021 19.65341,34.7114 36.23818,67.19813 46.8475,91.76628 2.47208,5.72463 2.77494,6.59927 2.27192,6.56128 -0.13732,-0.0104 -6.01684,-2.8286 -13.06561,-6.26275 z m 19.31154,-2.78756 c -3.08278,-8.55018 -12.28418,-36.26251 -14.94579,-45.01304 -6.34076,-20.84634 -12.53504,-44.24384 -15.00508,-56.67835 -0.74996,-3.77543 -1.01154,-6.02172 -1.01154,-8.68669 0,-4.10948 0.33445,-5.4109 1.78638,-6.95112 3.32757,-3.52993 13.75191,-5.39297 30.18696,-5.39501 18.3371,-0.002 30.82191,2.74986 35.82575,7.89737 2.98897,3.07479 2.87747,5.22214 -0.99833,19.22613 -10.28649,37.16714 -20.67122,69.16359 -31.02805,95.60071 -1.23699,3.15756 -2.35961,5.74103 -2.49472,5.74103 -0.1351,0 -1.17711,-2.58347 -2.31558,-5.74103 z"
       style="fill:#000000;fill-opacity:0.49019608;stroke-width:0.33284771" />
    <path
       style="fill:#ffffff;fill-opacity:1;stroke-width:0.33284771"
       d="m 246.8662,411.82994 c -25.44659,-1.59206 -49.73223,-9.12463 -71.40516,-22.14745 -22.36287,-13.43738 -41.83227,-33.35104 -54.97053,-56.22485 -2.72777,-4.74906 -7.46482,-14.56511 -9.47601,-19.636 -12.132893,-30.5913 -14.314473,-64.59926 -6.1856,-96.42615 9.03094,-35.35881 30.52419,-66.74567 60.38126,-88.17548 19.9021,-14.28466 43.66333,-23.90015 67.68835,-27.39154 8.89085,-1.29204 13.64738,-1.62724 23.09095,-1.62724 9.44358,0 14.2001,0.3352 23.09095,1.62724 42.09696,6.11765 80.44249,29.96344 105.09227,65.35332 6.36186,9.13377 12.85808,21.23381 16.90425,31.48635 15.97529,40.47945 14.36672,85.82805 -4.42699,124.80509 -24.03887,49.85524 -71.96327,83.06293 -127.01232,88.00918 -5.57521,0.50094 -17.428,0.68183 -22.77142,0.34753 z m 23.50087,-11.50048 c 11.13803,-1.099 19.01697,-3.63882 24.1155,-7.77375 4.63759,-3.76112 6.8415,-9.5615 5.7976,-15.2585 -0.70298,-3.83646 -7.8224,-29.4708 -12.63467,-45.49269 -1.09779,-3.65493 -1.93331,-6.70798 -1.85671,-6.78455 0.0766,-0.0766 0.37807,0.29291 0.66995,0.82109 0.29189,0.52817 3.01109,5.52817 6.04267,11.11112 3.03159,5.58295 8.66554,15.69216 12.51989,22.46492 6.35452,11.16596 7.22755,12.5337 9.36351,14.6693 2.72995,2.7295 4.93286,3.92254 8.63747,4.67787 2.3083,0.47063 2.87898,0.47405 5.47102,0.0328 8.86239,-1.50883 18.99055,-8.20462 31.84467,-21.05269 18.24664,-18.23804 23.18741,-27.84052 18.83222,-36.60079 -1.98115,-3.98499 -6.37427,-7.98446 -14.32837,-13.04446 -9.42351,-5.99476 -28.45644,-17.08906 -41.86032,-24.40039 -2.79228,-1.5231 -5.01429,-2.83183 -4.9378,-2.90831 0.0765,-0.0765 3.33477,0.84218 7.24061,2.04147 17.35636,5.32925 50.62073,14.49295 55.1731,15.19913 8.19504,1.27124 15.36833,-3.97579 18.98259,-13.88518 1.29194,-3.54214 2.54311,-9.34445 3.18163,-14.75477 1.14826,-9.72934 0.98457,-26.80245 -0.34248,-35.72317 -1.72462,-11.59331 -5.885,-17.66722 -13.17148,-19.22957 -3.29532,-0.70657 -10.4272,-0.20457 -16.60956,1.16911 -13.79388,3.06493 -36.45574,9.0496 -51.89874,13.70572 -6.05436,1.82542 -5.84646,1.67279 6.54247,-4.80301 12.80556,-6.69357 33.04364,-17.88883 44.14298,-24.41893 7.40894,-4.35891 10.17002,-8.44879 10.19296,-15.09836 0.024,-6.97244 -4.03865,-15.18142 -12.668,-25.59668 -3.49018,-4.2125 -15.07349,-15.7841 -19.44696,-19.42729 -9.5451,-7.95128 -16.81409,-11.02491 -22.6615,-9.58221 -1.25999,0.31087 -3.09066,1.04942 -4.06815,1.64122 -2.18764,1.32447 -6.14807,5.09915 -7.9762,7.6021 -4.71659,6.45765 -17.77785,28.47252 -28.0668,47.30682 -2.27501,4.16451 -4.184,7.42901 -4.2422,7.25446 -0.0582,-0.17456 1.1896,-4.5312 2.77288,-9.68143 5.98603,-19.47183 14.60304,-50.58559 15.11262,-54.56767 1.28651,-10.05334 -6.32851,-17.63975 -20.715,-20.63719 -7.58789,-1.58094 -10.71712,-1.81213 -24.52765,-1.81213 -10.63141,0 -13.91814,0.10919 -17.16703,0.57033 -8.4014,1.19248 -13.74534,3.10024 -17.07948,6.0973 -3.34558,3.00735 -5.04682,8.47617 -4.54698,14.61684 0.57983,7.12353 6.95692,33.10319 13.68373,55.74627 1.22354,4.11857 2.30107,7.78784 2.3945,8.15394 0.38226,1.49791 -0.7051,-0.31586 -4.58904,-7.65471 -6.46882,-12.22308 -14.23908,-26.25372 -22.39419,-40.43686 -4.91048,-8.54016 -7.21158,-11.4963 -10.34342,-13.28779 -4.20337,-2.40443 -9.84246,-2.66127 -15.35583,-0.69939 -8.22421,2.92651 -16.6992,9.21763 -28.52772,21.17659 -7.19625,7.27562 -10.54503,11.15758 -13.75163,15.94114 -5.23618,7.81126 -6.41947,13.75134 -3.79933,19.07252 1.54893,3.14566 6.13768,7.76821 10.90953,10.98987 9.19395,6.2072 38.36949,23.0449 57.78604,33.34932 2.18652,1.1604 3.8271,2.15927 3.64573,2.21971 -0.18138,0.0605 -4.5169,-1.17601 -9.63449,-2.74769 -23.14278,-7.10744 -51.9403,-14.73971 -61.40495,-16.27431 -3.59617,-0.58308 -7.59021,-0.65728 -10.4219,-0.19361 -6.26085,1.02516 -10.84067,6.13146 -12.84595,14.32267 -1.43685,5.86932 -1.75503,9.37165 -1.93299,21.27779 -0.28895,19.33197 1.05822,29.00636 5.22057,37.4902 1.90103,3.87475 4.83453,7.30452 7.73945,9.04877 2.30722,1.38536 6.03359,2.20415 8.74978,1.92258 4.14687,-0.42987 39.42016,-10.25941 59.7251,-16.64348 2.09053,-0.65728 3.94797,-1.14607 4.12764,-1.08619 0.17967,0.0599 -3.17852,2.03897 -7.46266,4.39798 -15.68539,8.63697 -33.65832,19.19573 -42.07617,24.71896 -5.44503,3.57268 -10.1608,8.14202 -11.76072,11.39556 -4.30288,8.75021 0.42123,18.24969 17.79219,35.77746 11.88259,11.98986 21.32847,18.72513 29.91977,21.33395 3.01801,0.91644 9.03591,0.84846 11.48443,-0.12973 2.39569,-0.9571 4.78211,-2.79735 6.64917,-5.12743 2.38762,-2.97974 18.33225,-31.28834 28.79407,-51.12192 2.15312,-4.08189 3.98379,-7.35259 4.06816,-7.26824 0.0844,0.0844 -1.12631,4.54733 -2.69041,9.91771 -7.95219,27.30413 -13.11221,48.15738 -13.69846,55.3598 -0.30117,3.69992 0.30573,7.84061 1.51587,10.34242 1.97144,4.07571 6.4404,7.22879 12.43428,8.77303 8.39524,2.16292 26.59557,2.83957 40.21959,1.49528 z m -28.02576,-6.80154 c -10.10716,-1.01037 -16.02846,-2.90569 -17.89762,-5.72876 -0.84324,-1.27359 -0.91863,-1.67039 -1.02478,-5.39321 -0.1019,-3.5741 0.0178,-4.66712 1.08247,-9.88422 2.85277,-13.97914 9.34163,-38.17044 15.98102,-59.57932 4.38721,-14.14666 15.37341,-46.52402 15.99845,-47.14893 0.0959,-0.0959 0.24208,-0.10665 0.32483,-0.0239 0.29361,0.29356 5.80971,14.55738 8.67234,22.42544 3.70605,10.18622 11.27584,32.88852 14.98127,44.92983 5.92349,19.24918 12.76313,43.48212 13.04597,46.22204 0.74964,7.26178 -5.75304,11.58504 -20.62429,13.71192 -4.31399,0.61699 -25.7644,0.9465 -30.53966,0.46914 z m -58.68166,-22.12767 c -7.38606,-2.03083 -18.67122,-10.62641 -30.48325,-23.21819 -7.0099,-7.47266 -10.66062,-12.27569 -12.81432,-16.85907 -1.96217,-4.17576 -1.28553,-6.90242 2.71981,-10.95993 4.46601,-4.52417 28.984,-19.215 57.81563,-34.64228 13.63685,-7.29683 47.1132,-23.82128 47.78284,-23.58636 0.30642,0.1075 -3.04051,7.98922 -7.81594,18.40586 -4.09862,8.94033 -16.59955,33.98472 -22.17757,44.43062 -10.68786,20.01502 -23.20704,42.14575 -24.91005,44.03464 -2.38052,2.64035 -6.05799,3.51079 -10.11715,2.39471 z m 138.58324,0.12707 c -2.63315,-1.05066 -3.71381,-2.5401 -10.23546,-14.1071 -17.64928,-31.30335 -33.82171,-63.10132 -44.5798,-87.65211 -2.89769,-6.61274 -3.31968,-7.69898 -2.99095,-7.69898 0.42932,0 23.03911,11.0453 33.63991,16.43372 18.62416,9.46674 33.6112,17.72868 50.36606,27.76545 16.64843,9.97302 22.68724,14.42629 24.61395,18.15136 1.28269,2.47994 -0.14241,7.15037 -3.86457,12.66524 -5.45021,8.0752 -18.93392,21.62476 -27.92513,28.06149 -3.64117,2.60669 -9.25948,5.53958 -11.92504,6.22516 -2.26838,0.58343 -5.83126,0.66161 -7.09897,0.15577 z m 50.75454,-82.31449 c -32.06422,-8.83548 -64.92561,-19.29857 -88.71301,-28.24628 -13.21278,-4.97003 -16.38891,-6.27476 -16.06445,-6.59916 0.57831,-0.57819 21.543,-7.86899 36.85893,-12.81828 23.22337,-7.50454 52.59995,-15.63681 69.08362,-19.12429 4.32273,-0.91458 5.8886,-1.09438 9.65357,-1.1085 3.84983,-0.0144 4.68474,0.0785 5.82543,0.64877 4.55063,2.27485 6.61935,12.05946 6.61436,31.28448 -0.004,13.61369 -0.99964,21.74158 -3.51688,28.69689 -2.32709,6.42993 -5.65378,9.4405 -10.37951,9.39319 -1.02051,-0.0102 -4.78155,-0.86463 -9.36206,-2.12682 z m -246.66787,1.02853 c -4.40697,-2.0518 -7.32291,-8.67683 -9.03059,-20.51752 -0.70278,-4.87292 -0.98961,-22.09983 -0.47427,-28.48438 0.85028,-10.53424 2.66597,-16.80972 5.51093,-19.04711 2.21727,-1.74375 7.42196,-1.76325 15.81366,-0.0593 21.27056,4.31912 59.6089,15.40483 91.5448,26.47062 6.68134,2.31508 12.82198,4.43972 13.64586,4.7214 0.82389,0.28169 1.6216,0.62335 1.7727,0.75924 0.30299,0.27249 -2.10677,1.32246 -10.00823,4.36076 -25.81053,9.92477 -62.32505,21.62168 -95.99499,30.75064 -7.85944,2.13093 -10.06175,2.31112 -12.77987,1.04562 z m 138.31483,-44.16943 c 0,-0.97862 14.53076,-30.30647 22.16749,-44.74128 11.57466,-21.87822 26.74496,-47.96953 32.99314,-56.74472 3.91213,-5.49434 7.28197,-7.8996 10.58945,-7.5583 4.5314,0.46758 12.36966,5.98009 22.56525,15.86971 10.36341,10.05242 17.44722,19.2414 20.40395,26.46761 0.80367,1.96417 0.95398,2.79965 0.95799,5.32502 0.008,5.2666 -0.79567,6.07359 -12.85164,12.8988 -34.00011,19.24837 -69.32391,37.20259 -92.49816,47.01455 -1.19006,0.50387 -2.65058,1.12231 -3.2456,1.37432 -0.72535,0.30719 -1.08187,0.33826 -1.08187,0.0943 z m -29.62648,-6.25946 c -31.7265,-15.45704 -66.92948,-34.83407 -85.05131,-46.81537 -8.00502,-5.29254 -10.82861,-8.43668 -10.81076,-12.03802 0.0246,-4.95488 6.4716,-13.99588 18.39501,-25.79621 12.43368,-12.30535 22.67697,-18.90155 29.34283,-18.89542 5.05283,0.005 6.18001,1.07671 12.07042,11.48021 19.65341,34.7114 36.23818,67.19813 46.8475,91.76628 2.47208,5.72463 2.77494,6.59927 2.27192,6.56128 -0.13732,-0.0104 -6.01684,-2.8286 -13.06561,-6.26275 z m 19.31154,-2.78756 c -3.08278,-8.55018 -12.28418,-36.26251 -14.94579,-45.01304 -6.34076,-20.84634 -12.53504,-44.24384 -15.00508,-56.67835 -0.74996,-3.77543 -1.01154,-6.02172 -1.01154,-8.68669 0,-4.10948 0.33445,-5.4109 1.78638,-6.95112 3.32757,-3.52993 13.75191,-5.39297 30.18696,-5.39501 18.3371,-0.002 30.82191,2.74986 35.82575,7.89737 2.98897,3.07479 2.87747,5.22214 -0.99833,19.22613 -10.28649,37.16714 -20.67122,69.16359 -31.02805,95.60071 -1.23699,3.15756 -2.35961,5.74103 -2.49472,5.74103 -0.1351,0 -1.17711,-2.58347 -2.31558,-5.74103 z"
       id="path2984"
       inkscape:connector-curvature="0" />
  </g>
</svg>
