<?xml version="1.0" encoding="UTF-8" standalone="no"?>
<!-- Created with Inkscape (http://www.inkscape.org/) -->

<svg
   xmlns:dc="http://purl.org/dc/elements/1.1/"
   xmlns:cc="http://creativecommons.org/ns#"
   xmlns:rdf="http://www.w3.org/1999/02/22-rdf-syntax-ns#"
   xmlns:svg="http://www.w3.org/2000/svg"
   xmlns="http://www.w3.org/2000/svg"
   xmlns:sodipodi="http://sodipodi.sourceforge.net/DTD/sodipodi-0.dtd"
   xmlns:inkscape="http://www.inkscape.org/namespaces/inkscape"
   id="svg2"
   version="1.1"
   inkscape:version="0.92.3 (2405546, 2018-03-11)"
   width="512"
   height="512"
   sodipodi:docname="goa-account-twitter.svg">
  <metadata
     id="metadata8">
    <rdf:RDF>
      <cc:Work
         rdf:about="">
        <dc:format>image/svg+xml</dc:format>
        <dc:type
           rdf:resource="http://purl.org/dc/dcmitype/StillImage" />
        <dc:title></dc:title>
      </cc:Work>
    </rdf:RDF>
  </metadata>
  <defs
     id="defs6" />
  <sodipodi:namedview
     pagecolor="#ffffff"
     bordercolor="#666666"
     borderopacity="1"
     objecttolerance="10"
     gridtolerance="10"
     guidetolerance="10"
     inkscape:pageopacity="0"
     inkscape:pageshadow="2"
     inkscape:window-width="1366"
     inkscape:window-height="720"
     id="namedview4"
     showgrid="false"
     inkscape:zoom="0.32593203"
     inkscape:cx="368.93965"
     inkscape:cy="365.41935"
     inkscape:window-x="0"
     inkscape:window-y="23"
     inkscape:window-maximized="1"
     inkscape:current-layer="svg2" />
  <g
     id="g834">
    <path
       id="path911"
       d="M 432.91336,56.474002 C 535.10616,145.04861 538.74002,306.17372 441.03015,416.37285 343.32009,526.5718 181.27947,544.10061 79.086673,455.52604 -23.106167,366.95147 -26.740027,205.82635 70.969883,95.627272 168.67975,-14.571809 330.72029,-32.100582 432.91336,56.474002 Z"
       inkscape:connector-curvature="0"
       style="fill:#3689e6;fill-opacity:1;stroke-width:11.10955238" />
    <path
       id="path913"
       d="m 511.635,224.90357 c -1.5514,61.31165 -25.16121,124.1546 -70.96631,175.81448 C 342.95882,510.91718 180.91852,528.44589 78.725713,439.87134 30.827113,398.35564 4.4968329,340.92288 0.19384286,280.22883 0.79910286,346.58552 27.117403,410.48225 79.078623,455.51905 181.27143,544.09361 343.31941,526.55629 441.02159,416.36585 490.72648,360.30768 514.02654,291.07485 511.635,224.90357 Z"
       inkscape:connector-curvature="0"
       style="opacity:1;fill:#000000;fill-opacity:0.49019608;stroke-width:11.10955238" />
    <path
       inkscape:connector-curvature="0"
       id="path23"
       d="m 205.73746,403.65447 c -11.80985,-0.75718 -26.97658,-3.2555 -40.36244,-6.64864 -15.90399,-4.03145 -38.53293,-13.36198 -43.34628,-17.87287 L 120,377.23172 l 12.57907,-0.75728 c 6.91848,-0.4165 14.26371,-0.97453 16.32273,-1.24008 23.52328,-3.0337 41.31395,-9.6589 56.78149,-21.1453 6.33035,-4.70101 7.3889,-6.84138 3.66993,-7.42056 -1.23993,-0.19311 -4.39852,-0.68885 -7.01909,-1.10167 -17.12901,-2.69833 -35.10546,-13.325 -44.22577,-26.14383 -3.30725,-4.64842 -7.64266,-13.06972 -7.03919,-13.6732 0.2178,-0.2178 2.4739,-0.0342 5.01357,0.40812 5.57135,0.97021 12.80751,0.48528 18.34406,-1.22931 5.95063,-1.84282 5.63658,-3.22127 -1.36133,-5.97543 -25.68566,-10.10906 -39.18584,-27.68935 -42.20618,-54.96194 -0.23839,-2.15261 -0.2388,-3.91384 -6.8e-4,-3.91384 0.23789,0 4.14429,1.26318 8.68087,2.80707 6.31708,2.14983 9.36996,2.82715 13.03874,2.89284 6.72683,0.12043 6.71887,-0.88002 -0.0632,-7.95016 -18.92235,-19.72603 -24.6119,-41.08345 -17.49354,-65.6672 0.94516,-3.26418 2.32098,-7.29851 3.05739,-8.96517 l 1.33893,-3.03031 8.31562,8.20472 c 20.13542,19.86686 38.06874,33.0947 58.00429,42.78465 20.49096,9.95992 40.77229,15.31393 58.87766,15.54294 l 8.50833,0.10762 -0.14206,-2.042 c -0.0782,-1.1231 -0.34975,-4.98015 -0.60357,-8.57122 -1.15469,-16.33633 4.91382,-34.57985 16.02101,-48.16336 6.25715,-7.65218 19.94531,-15.63832 32.38727,-18.89585 13.32517,-3.48877 31.43023,-2.03416 43.03219,3.45733 6.47487,3.06472 10.24241,5.71146 16.24099,11.40953 l 4.94133,4.69377 4.98108,-1.4644 c 12.14015,-3.56914 22.51494,-7.95955 30.05177,-12.71734 l 2.69785,-1.70308 -0.4124,2.54128 c -0.22682,1.39771 -1.70094,5.14243 -3.27582,8.32161 -2.85794,5.76921 -5.32869,8.68646 -15.08239,17.80794 -2.1641,2.02383 -3.82517,4.01422 -3.69125,4.42308 0.74859,2.28547 11.6309,0.44133 23.49922,-3.98222 4.37256,-1.62973 8.06362,-2.85536 8.20237,-2.72361 0.52256,0.49618 -6.18615,9.19547 -11.20862,14.53438 -2.87079,3.05168 -8.54837,8.47543 -12.61681,12.05278 l -7.39717,6.50426 -0.0136,7.93923 c -0.0801,46.99736 -20.06211,95.06 -54.0404,129.98306 -22.44304,23.06707 -47.84779,38.45146 -77.72156,47.06592 -18.02416,5.19749 -42.75392,7.69214 -63.23549,6.37898 z"
       style="fill:#000000;fill-opacity:0.49019608;stroke-width:0.67785931" />
    <path
       style="fill:#ffffff;fill-opacity:1;stroke-width:0.67785931"
       d="m 185.73746,383.65447 c -11.80985,-0.75718 -26.97658,-3.2555 -40.36244,-6.64864 -15.90399,-4.03145 -38.53293,-13.36198 -43.34628,-17.87287 L 100,357.23172 l 12.57907,-0.75728 c 6.91848,-0.4165 14.26371,-0.97453 16.32273,-1.24008 23.52328,-3.0337 41.31395,-9.6589 56.78149,-21.1453 6.33035,-4.70101 7.3889,-6.84138 3.66993,-7.42056 -1.23993,-0.19311 -4.39852,-0.68885 -7.01909,-1.10167 -17.12901,-2.69833 -35.10546,-13.325 -44.22577,-26.14383 -3.30725,-4.64842 -7.64266,-13.06972 -7.03919,-13.6732 0.2178,-0.2178 2.4739,-0.0342 5.01357,0.40812 5.57135,0.97021 12.80751,0.48528 18.34406,-1.22931 5.95063,-1.84282 5.63658,-3.22127 -1.36133,-5.97543 -25.68566,-10.10906 -39.18584,-27.68935 -42.20618,-54.96194 -0.23839,-2.15261 -0.2388,-3.91384 -6.8e-4,-3.91384 0.23789,0 4.14429,1.26318 8.68087,2.80707 6.31708,2.14983 9.36996,2.82715 13.03874,2.89284 6.72683,0.12043 6.71887,-0.88002 -0.0632,-7.95016 -18.92235,-19.72603 -24.6119,-41.08345 -17.49354,-65.6672 0.94516,-3.26418 2.32098,-7.29851 3.05739,-8.96517 l 1.33893,-3.03031 8.31562,8.20472 c 20.13542,19.86686 38.06874,33.0947 58.00429,42.78465 20.49096,9.95992 40.77229,15.31393 58.87766,15.54294 l 8.50833,0.10762 -0.14206,-2.042 c -0.0782,-1.1231 -0.34975,-4.98015 -0.60357,-8.57122 -1.15469,-16.33633 4.91382,-34.57985 16.02101,-48.16336 6.25715,-7.65218 19.94531,-15.63832 32.38727,-18.89585 13.32517,-3.48877 31.43023,-2.03416 43.03219,3.45733 6.47487,3.06472 10.24241,5.71146 16.24099,11.40953 l 4.94133,4.69377 4.98108,-1.4644 c 12.14015,-3.56914 22.51494,-7.95955 30.05177,-12.71734 l 2.69785,-1.70308 -0.4124,2.54128 c -0.22682,1.39771 -1.70094,5.14243 -3.27582,8.32161 -2.85794,5.76921 -5.32869,8.68646 -15.08239,17.80794 -2.1641,2.02383 -3.82517,4.01422 -3.69125,4.42308 0.74859,2.28547 11.6309,0.44133 23.49922,-3.98222 4.37256,-1.62973 8.06362,-2.85536 8.20237,-2.72361 0.52256,0.49618 -6.18615,9.19547 -11.20862,14.53438 -2.87079,3.05168 -8.54837,8.47543 -12.61681,12.05278 l -7.39717,6.50426 -0.0136,7.93923 c -0.0801,46.99736 -20.06211,95.06 -54.0404,129.98306 -22.44304,23.06707 -47.84779,38.45146 -77.72156,47.06592 -18.02416,5.19749 -42.75392,7.69214 -63.23549,6.37898 z"
       id="path2988"
       inkscape:connector-curvature="0" />
  </g>
</svg>
