<?xml version="1.0" encoding="UTF-8" standalone="no"?>
<!-- Created with Inkscape (http://www.inkscape.org/) -->

<svg
   xmlns:dc="http://purl.org/dc/elements/1.1/"
   xmlns:cc="http://creativecommons.org/ns#"
   xmlns:rdf="http://www.w3.org/1999/02/22-rdf-syntax-ns#"
   xmlns:svg="http://www.w3.org/2000/svg"
   xmlns="http://www.w3.org/2000/svg"
   xmlns:sodipodi="http://sodipodi.sourceforge.net/DTD/sodipodi-0.dtd"
   xmlns:inkscape="http://www.inkscape.org/namespaces/inkscape"
   id="svg2"
   version="1.1"
   inkscape:version="0.92.3 (2405546, 2018-03-11)"
   width="512"
   height="512"
   sodipodi:docname="goa-account-owncloud.svg"
   viewBox="0 0 512 512">
  <metadata
     id="metadata8">
    <rdf:RDF>
      <cc:Work
         rdf:about="">
        <dc:format>image/svg+xml</dc:format>
        <dc:type
           rdf:resource="http://purl.org/dc/dcmitype/StillImage" />
        <dc:title></dc:title>
      </cc:Work>
    </rdf:RDF>
  </metadata>
  <defs
     id="defs6">
    <clipPath
       clipPathUnits="userSpaceOnUse"
       id="clipPath4201">
      <rect
         style="fill:#51c3c3;fill-opacity:1;stroke:none"
         id="rect4203"
         width="460"
         height="460"
         x="26"
         y="26"
         rx="36"
         ry="36" />
    </clipPath>
  </defs>
  <sodipodi:namedview
     pagecolor="#ffffff"
     bordercolor="#666666"
     borderopacity="1"
     objecttolerance="10"
     gridtolerance="10"
     guidetolerance="10"
     inkscape:pageopacity="0"
     inkscape:pageshadow="2"
     inkscape:window-width="1366"
     inkscape:window-height="720"
     id="namedview4"
     showgrid="true"
     inkscape:zoom="0.46093749"
     inkscape:cx="363.76941"
     inkscape:cy="294.37534"
     inkscape:window-x="0"
     inkscape:window-y="23"
     inkscape:window-maximized="1"
     inkscape:current-layer="g4142"
     showguides="false">
    <inkscape:grid
       type="xygrid"
       id="grid3787"
       empspacing="5"
       visible="true"
       enabled="false"
       snapvisiblegridlinesonly="true" />
  </sodipodi:namedview>
  <g
     id="g4142"
     transform="matrix(0.97826087,0,0,0.97826087,5.5652172,5.565217)">
    <g
       id="g833">
      <path
         id="path911"
         d="M 436.84478,52.040099 C 541.30853,142.58302 545.02314,307.28869 445.14194,419.93669 345.26055,532.58451 179.61902,550.50285 75.155271,459.95995 -29.308526,369.41706 -33.023139,204.71138 66.858101,92.063434 166.73931,-20.584513 332.38075,-38.502814 436.84478,52.040099 Z"
         inkscape:connector-curvature="0"
         style="fill:#3689e6;fill-opacity:1;stroke-width:11.35643101" />
      <path
         id="path913"
         d="m 517.31579,224.21254 c -1.58588,62.67413 -25.72035,126.91359 -72.54334,179.72147 -99.8812,112.648 -265.5224,130.56623 -369.986159,40.02336 C 25.823274,401.5191 -1.0921183,342.81005 -5.4907293,280.76725 c 0.618701,67.83128 27.5218563,133.14794 80.6377703,179.18556 104.463769,90.54288 270.112809,72.61584 369.986149,-40.02327 50.80944,-57.30391 74.62728,-128.07525 72.1826,-195.717 z"
         inkscape:connector-curvature="0"
         style="opacity:1;fill:#000000;fill-opacity:0.49019608;stroke-width:11.35643101" />
      <path
         sodipodi:nodetypes="cccccccccc"
         inkscape:connector-curvature="0"
         id="path827"
         d="m 282.45274,188.52975 c -32.80069,0.0237 -62.89203,18.20615 -78.16829,47.23235 -6.83184,-2.34143 -14.0013,-3.54712 -21.2232,-3.56911 -36.49637,-6.9e-4 -66.08307,29.58491 -66.08347,66.08129 4e-4,36.49638 29.5871,66.08209 66.08347,66.08128 h 186.25807 c 36.77819,-6.9e-4 66.59227,-29.81579 66.59178,-66.59399 4.9e-4,-36.77818 -29.8136,-66.59325 -66.59178,-66.59397 -3.62156,0.009 -7.2364,0.31246 -10.80855,0.90877 -15.86702,-26.94527 -44.7881,-43.50389 -76.05803,-43.54662 z"
         style="fill:#000000;fill-opacity:0.49019608;stroke:none;stroke-width:0.69333333" />
      <path
         style="fill:#ffffff;fill-opacity:1;stroke:none;stroke-width:0.69333333"
         d="m 262.0083,168.0853 c -32.80069,0.0237 -62.89203,18.20615 -78.16829,47.23235 -6.83184,-2.34143 -14.0013,-3.54712 -21.2232,-3.56911 -36.49637,-6.9e-4 -66.083071,29.58491 -66.083477,66.08129 4.06e-4,36.49638 29.587107,66.08209 66.083477,66.08128 h 186.25807 c 36.77819,-6.9e-4 66.59227,-29.81579 66.59178,-66.59399 4.9e-4,-36.77818 -29.8136,-66.59325 -66.59178,-66.59397 -3.62156,0.009 -7.2364,0.31246 -10.80855,0.90877 -15.86702,-26.94527 -44.7881,-43.50389 -76.05803,-43.54662 z"
         id="path3755"
         inkscape:connector-curvature="0"
         sodipodi:nodetypes="cccccccccc" />
    </g>
  </g>
</svg>
