<?xml version="1.0" encoding="UTF-8" standalone="no"?>
<svg
   xmlns:dc="http://purl.org/dc/elements/1.1/"
   xmlns:cc="http://creativecommons.org/ns#"
   xmlns:rdf="http://www.w3.org/1999/02/22-rdf-syntax-ns#"
   xmlns:svg="http://www.w3.org/2000/svg"
   xmlns="http://www.w3.org/2000/svg"
   xmlns:sodipodi="http://sodipodi.sourceforge.net/DTD/sodipodi-0.dtd"
   xmlns:inkscape="http://www.inkscape.org/namespaces/inkscape"
   viewBox="0 0 512 512"
   id="svg2"
   version="1.1"
   inkscape:version="0.92.3 (2405546, 2018-03-11)"
   width="512"
   height="512"
   sodipodi:docname="goa-account.svg">
  <metadata
     id="metadata76">
    <rdf:RDF>
      <cc:Work
         rdf:about="">
        <dc:format>image/svg+xml</dc:format>
        <dc:type
           rdf:resource="http://purl.org/dc/dcmitype/StillImage" />
        <dc:title></dc:title>
      </cc:Work>
    </rdf:RDF>
  </metadata>
  <sodipodi:namedview
     pagecolor="#ffffff"
     bordercolor="#666666"
     borderopacity="1"
     objecttolerance="10"
     gridtolerance="10"
     guidetolerance="10"
     inkscape:pageopacity="0"
     inkscape:pageshadow="2"
     inkscape:window-width="1366"
     inkscape:window-height="720"
     id="namedview74"
     showgrid="false"
     inkscape:zoom="0.43457605"
     inkscape:cx="160.8464"
     inkscape:cy="249.73764"
     inkscape:window-x="0"
     inkscape:window-y="23"
     inkscape:window-maximized="1"
     inkscape:current-layer="svg2"
     units="px" />
  <defs
     id="defs4">
    <linearGradient
       id="linearGradient3764"
       x1="1"
       x2="47"
       gradientUnits="userSpaceOnUse"
       gradientTransform="rotate(-90,23.999998,24)">
      <stop
         stop-color="#8358b4"
         stop-opacity="1"
         id="stop7" />
      <stop
         offset="1"
         stop-color="#8d65ba"
         stop-opacity="1"
         id="stop9" />
    </linearGradient>
    <clipPath
       id="clipPath-057129763">
      <g
         transform="translate(0,-1004.3622)"
         id="g12">
        <path
           d="m -24,13 c 0,1.105 -0.672,2 -1.5,2 -0.828,0 -1.5,-0.895 -1.5,-2 0,-1.105 0.672,-2 1.5,-2 0.828,0 1.5,0.895 1.5,2 z"
           transform="matrix(15.333333,0,0,11.5,414.99999,878.8622)"
           id="path14"
           inkscape:connector-curvature="0"
           style="fill:#1890d0" />
      </g>
    </clipPath>
    <clipPath
       id="clipPath-064426159">
      <g
         transform="translate(0,-1004.3622)"
         id="g17">
        <path
           d="m -24,13 c 0,1.105 -0.672,2 -1.5,2 -0.828,0 -1.5,-0.895 -1.5,-2 0,-1.105 0.672,-2 1.5,-2 0.828,0 1.5,0.895 1.5,2 z"
           transform="matrix(15.333333,0,0,11.5,414.99999,878.8622)"
           id="path19"
           inkscape:connector-curvature="0"
           style="fill:#1890d0" />
      </g>
    </clipPath>
  </defs>
  <g
     id="g33"
     transform="translate(0,963)" />
  <g
     transform="translate(-3.8111912e-7,-540.3622)"
     id="g827">
    <path
       style="fill:#f9c440;fill-opacity:1;stroke-width:11.10955811"
       inkscape:connector-curvature="0"
       d="m 432.91321,596.83616 c 102.19296,88.57472 105.82688,249.69983 8.1168,359.89887 C 343.31994,1066.9341 181.27962,1084.4627 79.086662,995.88831 -23.106295,907.31359 -26.739895,746.18847 70.969862,635.98944 168.67994,525.7904 330.72026,508.26144 432.91321,596.83616 Z"
       id="path52" />
    <path
       style="opacity:1;fill:#000000;fill-opacity:0.49019608;stroke-width:11.10955811"
       inkscape:connector-curvature="0"
       d="m 511.63545,765.26559 c -1.552,61.31168 -25.16128,124.15488 -70.9664,175.81472 C 342.9593,1051.2794 180.91866,1068.808 78.725702,980.23359 30.827143,938.71775 4.4969038,881.28511 0.19386397,820.59103 0.79866395,886.94783 27.117384,950.84447 79.078662,995.88127 181.27162,1084.456 343.31962,1066.9184 441.02201,956.72799 c 49.70496,-56.05824 73.00512,-125.29088 70.61344,-191.4624 z"
       id="path54" />
    <path
       style="fill:#000000;fill-opacity:0.49019608;stroke-width:0.28771961"
       d="m 349.9573,971.84135 c -1.95104,-0.62959 -3.22673,-1.27334 -4.83953,-2.44193 -1.58808,-1.15073 -37.03256,-48.23184 -37.93441,-50.38841 -0.33088,-0.7913 -5.17157,-14.5803 -10.75713,-30.64213 -5.58554,-16.06199 -10.18407,-29.24398 -10.21893,-29.29325 -0.0348,-0.0502 -2.54254,0.40146 -5.57262,1.00169 l -5.50924,1.09157 -14.37818,18.80019 -14.3782,18.80019 -1.86311,29.39801 c -1.02472,16.16896 -2.05345,30.42983 -2.28608,31.69091 -1.54468,8.37324 -9.70889,13.74135 -17.94569,11.79946 -2.72117,-0.64153 -4.85446,-1.80334 -6.97761,-3.8004 -3.12774,-2.94182 -4.58154,-6.34902 -4.58154,-10.73756 0,-4.67757 4.83648,-66.17684 5.33888,-67.88766 0.25558,-0.87039 0.79892,-2.16041 1.20742,-2.86658 0.4085,-0.70616 6.58665,-8.99248 13.72923,-18.41405 7.14258,-9.42156 13.07666,-17.27941 13.18688,-17.46193 0.14966,-0.24773 -6.83737,-33.73077 -7.37528,-35.34348 -0.0531,-0.15919 -0.71886,1.58777 -1.47943,3.88245 -1.64807,4.97194 -2.29192,6.32009 -3.87698,8.11738 -1.14537,1.29873 -39.69023,34.29545 -42.89807,36.72335 -4.28262,3.2415 -10.32916,3.73874 -15.47033,1.27247 -2.10787,-1.0113 -5.41364,-4.29382 -6.45311,-6.40788 -1.83045,-3.72296 -2.13994,-8.35229 -0.79519,-11.89448 1.45424,-3.83067 1.68647,-4.05287 22.27721,-21.31679 l 19.24164,-16.13273 8.89235,-26.03863 c 4.8908,-14.32123 9.07351,-26.85178 9.29495,-27.84562 0.75135,-3.37245 2.99209,-6.35034 5.89133,-7.82941 1.21478,-0.61972 45.55425,-10.35997 47.16175,-10.36022 0.41134,-7e-5 2.10735,0.27681 3.76893,0.61529 2.40086,0.48908 8.45953,2.69781 29.51246,10.75905 14.57025,5.57899 27.1535,10.47915 27.9627,10.88922 3.00673,1.52361 3.98034,2.8008 21.95997,28.80678 9.51831,13.76739 17.67952,25.45722 18.13603,25.97733 2.67454,3.04732 3.80195,8.45201 2.67491,12.82329 -2.01458,7.81358 -10.11272,12.68106 -17.77668,10.68488 -3.70818,-0.96586 -7.39982,-3.60299 -9.05415,-6.46809 -0.42131,-0.72963 -7.87598,-11.50112 -16.56595,-23.93676 l -15.79993,-22.61019 -13.77325,-5.39426 c -7.57529,-2.96683 -13.82119,-5.34479 -13.87978,-5.28435 -0.11221,0.11564 13.94537,68.43217 14.4388,70.1697 0.48869,1.72071 21.1138,60.81478 21.43901,61.42592 0.16901,0.31767 7.64849,10.28813 16.62109,22.15663 8.97258,11.86836 16.6563,22.25651 17.07488,23.08456 4.22091,8.35035 -0.17027,18.22903 -9.29416,20.90895 -2.0999,0.6169 -6.03324,0.57662 -8.07586,-0.0826 z M 245.37122,729.65982 c -8.83247,-1.30362 -15.07565,-4.34026 -20.88069,-10.15624 -17.70015,-17.73348 -11.45517,-47.72874 11.86358,-56.98181 4.48771,-1.78076 6.72565,-2.15958 12.75746,-2.15958 4.67706,0 5.82705,0.0912 7.96178,0.63104 11.84349,2.99543 20.96746,11.25648 24.94298,22.58397 2.6474,7.54327 2.49807,16.37116 -0.40406,23.88572 -4.29731,11.12717 -13.83438,19.19781 -25.59543,21.6598 -2.21779,0.46427 -8.86639,0.7997 -10.64562,0.5371 z"
       id="path821"
       inkscape:connector-curvature="0"
       sodipodi:nodetypes="cccccccccscscsccsccccccccccsccccsccccccsccccccccccccsscsccc" />
    <path
       sodipodi:nodetypes="cccccccccscscsccsccccccccccsccccsccccccsccccccccccccsscsccc"
       inkscape:connector-curvature="0"
       id="path851"
       d="m 329.9573,951.84135 c -1.95104,-0.62959 -3.22673,-1.27334 -4.83953,-2.44193 -1.58808,-1.15073 -37.03256,-48.23184 -37.93441,-50.38841 -0.33088,-0.7913 -5.17157,-14.5803 -10.75713,-30.64213 -5.58554,-16.06199 -10.18407,-29.24398 -10.21893,-29.29325 -0.0348,-0.0502 -2.54254,0.40146 -5.57262,1.00169 l -5.50924,1.09157 -14.37818,18.80019 -14.3782,18.80019 -1.86311,29.39801 c -1.02472,16.16896 -2.05345,30.42983 -2.28608,31.69091 -1.54468,8.37324 -9.70889,13.74135 -17.94569,11.79946 -2.72117,-0.64153 -4.85446,-1.80334 -6.97761,-3.8004 -3.12774,-2.94182 -4.58154,-6.34902 -4.58154,-10.73756 0,-4.67757 4.83648,-66.17684 5.33888,-67.88766 0.25558,-0.87039 0.79892,-2.16041 1.20742,-2.86658 0.4085,-0.70616 6.58665,-8.99248 13.72923,-18.41405 7.14258,-9.42156 13.07666,-17.27941 13.18688,-17.46193 0.14966,-0.24773 -6.83737,-33.73077 -7.37528,-35.34348 -0.0531,-0.15919 -0.71886,1.58777 -1.47943,3.88245 -1.64807,4.97194 -2.29192,6.32009 -3.87698,8.11738 -1.14537,1.29873 -39.69023,34.29545 -42.89807,36.72335 -4.28262,3.2415 -10.32916,3.73874 -15.47033,1.27247 -2.10787,-1.0113 -5.41364,-4.29382 -6.45311,-6.40788 -1.83045,-3.72296 -2.13994,-8.35229 -0.79519,-11.89448 1.45424,-3.83067 1.68647,-4.05287 22.27721,-21.31679 l 19.24164,-16.13273 8.89235,-26.03863 c 4.8908,-14.32123 9.07351,-26.85178 9.29495,-27.84562 0.75135,-3.37245 2.99209,-6.35034 5.89133,-7.82941 1.21478,-0.61972 45.55425,-10.35997 47.16175,-10.36022 0.41134,-7e-5 2.10735,0.27681 3.76893,0.61529 2.40086,0.48908 8.45953,2.69781 29.51246,10.75905 14.57025,5.57899 27.1535,10.47915 27.9627,10.88922 3.00673,1.52361 3.98034,2.8008 21.95997,28.80678 9.51831,13.76739 17.67952,25.45722 18.13603,25.97733 2.67454,3.04732 3.80195,8.45201 2.67491,12.82329 -2.01458,7.81358 -10.11272,12.68106 -17.77668,10.68488 -3.70818,-0.96586 -7.39982,-3.60299 -9.05415,-6.46809 -0.42131,-0.72963 -7.87598,-11.50112 -16.56595,-23.93676 l -15.79993,-22.61019 -13.77325,-5.39426 c -7.57529,-2.96683 -13.82119,-5.34479 -13.87978,-5.28435 -0.11221,0.11564 13.94537,68.43217 14.4388,70.1697 0.48869,1.72071 21.1138,60.81478 21.43901,61.42592 0.16901,0.31767 7.64849,10.28813 16.62109,22.15663 8.97258,11.86836 16.6563,22.25651 17.07488,23.08456 4.22091,8.35035 -0.17027,18.22903 -9.29416,20.90895 -2.0999,0.6169 -6.03324,0.57662 -8.07586,-0.0826 z M 225.37122,709.65982 c -8.83247,-1.30362 -15.07565,-4.34026 -20.88069,-10.15624 -17.70015,-17.73348 -11.45517,-47.72874 11.86358,-56.98181 4.48771,-1.78076 6.72565,-2.15958 12.75746,-2.15958 4.67706,0 5.82705,0.0912 7.96178,0.63104 11.84349,2.99543 20.96746,11.25648 24.94298,22.58397 2.6474,7.54327 2.49807,16.37116 -0.40406,23.88572 -4.29731,11.12717 -13.83438,19.19781 -25.59543,21.6598 -2.21779,0.46427 -8.86639,0.7997 -10.64562,0.5371 z"
       style="fill:#ffffff;stroke-width:0.28771961" />
  </g>
</svg>
