<?xml version="1.0" encoding="UTF-8" standalone="no"?>
<!-- Created with Inkscape (http://www.inkscape.org/) -->

<svg
   xmlns:dc="http://purl.org/dc/elements/1.1/"
   xmlns:cc="http://creativecommons.org/ns#"
   xmlns:rdf="http://www.w3.org/1999/02/22-rdf-syntax-ns#"
   xmlns:svg="http://www.w3.org/2000/svg"
   xmlns="http://www.w3.org/2000/svg"
   xmlns:sodipodi="http://sodipodi.sourceforge.net/DTD/sodipodi-0.dtd"
   xmlns:inkscape="http://www.inkscape.org/namespaces/inkscape"
   id="svg2"
   version="1.1"
   inkscape:version="0.92.3 (2405546, 2018-03-11)"
   width="512"
   height="512"
   sodipodi:docname="googleearth.svg">
  <metadata
     id="metadata8">
    <rdf:RDF>
      <cc:Work
         rdf:about="">
        <dc:format>image/svg+xml</dc:format>
        <dc:type
           rdf:resource="http://purl.org/dc/dcmitype/StillImage" />
        <dc:title></dc:title>
      </cc:Work>
    </rdf:RDF>
  </metadata>
  <defs
     id="defs6" />
  <sodipodi:namedview
     pagecolor="#ffffff"
     bordercolor="#666666"
     borderopacity="1"
     objecttolerance="10"
     gridtolerance="10"
     guidetolerance="10"
     inkscape:pageopacity="0"
     inkscape:pageshadow="2"
     inkscape:window-width="1309"
     inkscape:window-height="695"
     id="namedview4"
     showgrid="false"
     inkscape:zoom="0.4609375"
     inkscape:cx="584.83457"
     inkscape:cy="127.65412"
     inkscape:window-x="15"
     inkscape:window-y="23"
     inkscape:window-maximized="0"
     inkscape:current-layer="svg2" />
  <g
     id="g827">
    <path
       id="path911"
       d="m 432.91337,56.47401 c 102.1928,88.5746 105.82666,249.69971 8.11679,359.89884 C 343.3201,526.5718 181.27948,544.10061 79.086675,455.52604 -23.106167,366.95147 -26.740027,205.82635 70.969883,95.62727 168.67976,-14.57181 330.7203,-32.10058 432.91337,56.47401 Z"
       inkscape:connector-curvature="0"
       style="fill:#3689e6;fill-opacity:1;stroke-width:11.10955238" />
    <path
       id="path913"
       d="M 511.63501,224.90357 C 510.08361,286.21522 486.4738,349.05817 440.6687,400.71805 342.95883,510.91718 180.91853,528.44589 78.72572,439.87134 30.827117,398.35564 4.4968406,340.92288 0.19385263,280.22883 0.79910263,346.58552 27.117408,410.48225 79.078624,455.51905 181.27144,544.09361 343.31942,526.55629 441.0216,416.36585 c 49.70489,-56.05817 73.00495,-125.291 70.61341,-191.46228 z"
       inkscape:connector-curvature="0"
       style="opacity:1;fill:#000000;fill-opacity:0.49019608;stroke-width:11.10955238" />
    <path
       inkscape:connector-curvature="0"
       id="path16"
       d="m 255.81824,429.67915 c -33.11938,-4.34202 -63.83847,-19.75809 -88.57623,-44.45114 -21.68484,-21.64562 -35.64317,-47.12244 -42.8649,-78.23716 -1.60717,-6.92452 -4.41947,-18.04167 -4.37663,-35.97198 0.0506,-21.18808 2.34487,-26.38369 5.54173,-36.54875 14.23439,-45.26108 40.38536,-76.82771 80.95147,-97.52934 36.2854,-18.5171 80.93166,-21.71627 120.00675,-8.59917 37.46372,12.57614 71.52204,42.30505 89.32905,77.9737 29.69764,59.4864 17.75317,131.2873 -29.77311,178.97289 -34.1724,34.28695 -82.26766,50.67996 -130.23813,44.39095 z m -43.72112,-22.26513 c -0.21994,-0.95978 -0.71158,-4.3768 -1.09255,-7.5934 -0.62966,-5.31654 -0.34871,-6.1923 3.08962,-9.63063 4.92193,-4.92193 9.30272,-4.92791 30.0842,-0.0411 8.75024,2.05764 21.63267,4.64227 28.62766,5.74359 15.82263,2.49122 54.4025,2.80943 68.41684,0.56432 11.38576,-1.82402 30.42821,-6.92341 35.3414,-9.46412 5.36646,-2.7751 23.49039,-24.47604 21.82908,-26.13735 -0.39608,-0.39609 -6.45914,0.71449 -13.47346,2.46795 -24.15403,6.03809 -35.53314,0.32117 -59.16888,-0.39155 -40.90392,-1.23343 -74.51492,-9.83339 -129.58025,-33.15534 -32.96227,-13.96061 -41.11565,-8.09259 -49.42287,0.21464 -6.25311,6.25311 -6.42191,9.20978 -1.0818,18.94906 12.16984,22.19539 32.65619,43.18867 54.80533,56.16147 8.25494,4.83493 12.39232,5.65789 11.62568,2.31244 z m 207.75151,-88.15415 c 0.66735,-1.53172 2.02213,-6.68384 3.01063,-11.44918 1.6374,-7.89367 1.61617,-8.80183 -0.23875,-10.21142 -1.11979,-0.85095 -2.79653,-1.54718 -3.7261,-1.54718 -3.44778,0 -23.08903,-8.92377 -33.63652,-15.28237 -20.26072,-12.21426 -45.78832,-32.92427 -81.78633,-66.35156 -35.40957,-32.88087 -46.01266,-41.35204 -59.6394,-47.64799 -16.13617,-7.45535 -37.67553,-8.75564 -59.18448,-3.5728 -7.94822,1.9152 -10.09102,3.04034 -14.90138,7.82442 -10.97563,10.91567 -21.29552,25.3523 -27.88362,39.00677 -10.62823,22.02797 -10.17048,37.75337 3.23451,26.37427 10.189,-8.64916 20.34578,-9.65479 30.58246,-11.40492 6.68151,-1.14228 16.61745,0.38087 24.55022,2.14796 16.37208,3.64704 28.04645,15.54918 70.44136,45.63979 47.99253,34.06364 56.51834,34.03526 89.22291,47.05868 14.12309,5.62401 50.53118,2.0287 55.92964,2.14164 1.76642,0.037 3.2625,-0.97637 4.02485,-2.72611 z m -4.27347,-77.91144 c 3.98564,-3.49946 4.43566,-4.47736 3.89962,-8.47394 -0.95559,-7.12445 -8.87062,-25.30489 -16.01663,-36.7894 -8.43139,-13.55029 -29.17982,-34.81184 -42.43128,-43.48063 -19.56136,-12.79657 -38.20076,-20.28097 -60.44404,-24.2705 -19.81434,-3.55388 -60.77304,-0.86261 -62.42788,4.10192 -0.3432,1.02956 1.78435,1.47113 7.08806,1.47113 33.09331,0 61.35128,9.21129 82.7707,26.98087 12.71256,10.54635 21.61758,20.56144 36.18229,40.69264 24.49638,33.85868 34.10196,43.35843 44.13167,43.64541 1.50805,0.0433 4.7694,-1.70172 7.24749,-3.8775 z"
       style="fill:#000000;fill-opacity:0.49019608;stroke-width:1.28784633"
       sodipodi:nodetypes="ssssssssssssssssscssssssssssssssssssssssssssssssssscs" />
    <path
       sodipodi:nodetypes="ssssssssssssssssscssssssssssssssssssssssssssssssssscs"
       style="fill:#ffffff;fill-opacity:1;stroke-width:1.28784633"
       d="m 235.81824,409.67915 c -33.11938,-4.34202 -63.83847,-19.75809 -88.57623,-44.45114 -21.68484,-21.64562 -35.64317,-47.12244 -42.8649,-78.23716 -1.60717,-6.92452 -4.419476,-18.04167 -4.37663,-35.97198 0.0506,-21.18808 2.34487,-26.38369 5.54173,-36.54875 14.23439,-45.26108 40.38536,-76.82771 80.95147,-97.52934 36.2854,-18.517095 80.93166,-21.716265 120.00675,-8.59917 37.46372,12.57614 71.52204,42.30505 89.32905,77.9737 29.69764,59.4864 17.75317,131.2873 -29.77311,178.97289 -34.1724,34.28695 -82.26766,50.67996 -130.23813,44.39095 z m -43.72112,-22.26513 c -0.21994,-0.95978 -0.71158,-4.3768 -1.09255,-7.5934 -0.62966,-5.31654 -0.34871,-6.1923 3.08962,-9.63063 4.92193,-4.92193 9.30272,-4.92791 30.0842,-0.0411 8.75024,2.05764 21.63267,4.64227 28.62766,5.74359 15.82263,2.49122 54.4025,2.80943 68.41684,0.56432 11.38576,-1.82402 30.42821,-6.92341 35.3414,-9.46412 5.36646,-2.7751 23.49039,-24.47604 21.82908,-26.13735 -0.39608,-0.39609 -6.45914,0.71449 -13.47346,2.46795 -24.15403,6.03809 -35.53314,0.32117 -59.16888,-0.39155 -40.90392,-1.23343 -74.51492,-9.83339 -129.58025,-33.15534 -32.96227,-13.96061 -41.11565,-8.09259 -49.42287,0.21464 -6.25311,6.25311 -6.42191,9.20978 -1.0818,18.94906 12.16984,22.19539 32.65619,43.18867 54.80533,56.16147 8.25494,4.83493 12.39232,5.65789 11.62568,2.31244 z m 207.75151,-88.15415 c 0.66735,-1.53172 2.02213,-6.68384 3.01063,-11.44918 1.6374,-7.89367 1.61617,-8.80183 -0.23875,-10.21142 -1.11979,-0.85095 -2.79653,-1.54718 -3.7261,-1.54718 -3.44778,0 -23.08903,-8.92377 -33.63652,-15.28237 -20.26072,-12.21426 -45.78832,-32.92427 -81.78633,-66.35156 -35.40957,-32.88087 -46.01266,-41.35204 -59.6394,-47.64799 -16.13617,-7.45535 -37.67553,-8.75564 -59.18448,-3.5728 -7.94822,1.9152 -10.09102,3.04034 -14.90138,7.82442 -10.97563,10.91567 -21.29552,25.3523 -27.88362,39.00677 -10.62823,22.02797 -10.17048,37.75337 3.23451,26.37427 10.189,-8.64916 20.34578,-9.65479 30.58246,-11.40492 6.68151,-1.14228 16.61745,0.38087 24.55022,2.14796 16.37208,3.64704 28.04645,15.54918 70.44136,45.63979 47.99253,34.06364 56.51834,34.03526 89.22291,47.05868 14.12309,5.62401 50.53118,2.0287 55.92964,2.14164 1.76642,0.037 3.2625,-0.97637 4.02485,-2.72611 z m -4.27347,-77.91144 c 3.98564,-3.49946 4.43566,-4.47736 3.89962,-8.47394 -0.95559,-7.12445 -8.87062,-25.30489 -16.01663,-36.7894 -8.43139,-13.55029 -29.17982,-34.81184 -42.43128,-43.48063 -19.56136,-12.79657 -38.20076,-20.28097 -60.44404,-24.2705 -19.81434,-3.55388 -60.77304,-0.86261 -62.42788,4.10192 -0.3432,1.02956 1.78435,1.47113 7.08806,1.47113 33.09331,0 61.35128,9.21129 82.7707,26.98087 12.71256,10.54635 21.61758,20.56144 36.18229,40.69264 24.49638,33.85868 34.10196,43.35843 44.13167,43.64541 1.50805,0.0433 4.7694,-1.70172 7.24749,-3.8775 z"
       id="path2997"
       inkscape:connector-curvature="0" />
  </g>
</svg>
