<?xml version="1.0" encoding="UTF-8" standalone="no"?>
<svg
   xmlns:dc="http://purl.org/dc/elements/1.1/"
   xmlns:cc="http://creativecommons.org/ns#"
   xmlns:rdf="http://www.w3.org/1999/02/22-rdf-syntax-ns#"
   xmlns:svg="http://www.w3.org/2000/svg"
   xmlns="http://www.w3.org/2000/svg"
   xmlns:sodipodi="http://sodipodi.sourceforge.net/DTD/sodipodi-0.dtd"
   xmlns:inkscape="http://www.inkscape.org/namespaces/inkscape"
   viewBox="0 0 512 512"
   height="512"
   width="512"
   id="svg2"
   version="1.1"
   inkscape:version="0.92.3 (2405546, 2018-03-11)"
   sodipodi:docname="Google-plus.google.com.svg">
  <metadata
     id="metadata20">
    <rdf:RDF>
      <cc:Work
         rdf:about="">
        <dc:format>image/svg+xml</dc:format>
        <dc:type
           rdf:resource="http://purl.org/dc/dcmitype/StillImage" />
        <dc:title></dc:title>
      </cc:Work>
    </rdf:RDF>
  </metadata>
  <defs
     id="defs18" />
  <sodipodi:namedview
     pagecolor="#ffffff"
     bordercolor="#666666"
     borderopacity="1"
     objecttolerance="10"
     gridtolerance="10"
     guidetolerance="10"
     inkscape:pageopacity="0"
     inkscape:pageshadow="2"
     inkscape:window-width="1366"
     inkscape:window-height="720"
     id="namedview16"
     showgrid="false"
     inkscape:zoom="0.4609375"
     inkscape:cx="334.1017"
     inkscape:cy="256"
     inkscape:window-x="0"
     inkscape:window-y="23"
     inkscape:window-maximized="1"
     inkscape:current-layer="svg2" />
  <g
     transform="translate(-1.8631562e-7,-2.8024442e-6)"
     id="g915">
    <path
       d="M 20,20 H 492 V 492 H 20 Z"
       id="path14"
       inkscape:connector-curvature="0"
       style="fill:none" />
    <path
       style="fill:#333333;fill-opacity:1;stroke-width:11.10955906"
       inkscape:connector-curvature="0"
       d="m 432.91329,56.47396 c 102.1929,88.57459 105.82674,249.69974 8.1168,359.89886 -97.71001,110.199 -259.75046,127.7278 -361.94335,39.1532 C -23.106204,366.95146 -26.740032,205.8263 70.96994,95.62722 168.67989,-14.57185 330.72032,-32.10063 432.91329,56.47396 Z"
       id="path27-5" />
    <path
       style="opacity:1;fill:#000000;fill-opacity:0.49019608;stroke-width:11.10955906"
       inkscape:connector-curvature="0"
       d="M 511.63553,224.90354 C 510.08411,286.21515 486.4743,349.05811 440.66915,400.71802 342.95912,510.91712 180.91868,528.44582 78.725758,439.87132 30.827126,398.35562 4.4968177,340.92283 0.19382556,280.22883 0.79907909,346.58547 27.117406,410.48222 79.078686,455.51902 c 102.192884,88.5746 264.241054,71.0372 361.943344,-39.1532 49.70496,-56.05818 73.00502,-125.29103 70.6135,-191.46228 z"
       id="path51-6" />
    <path
       inkscape:connector-curvature="0"
       id="path877"
       d="m 279,247.63672 v 60.34375 h 83.95508 c -3.61576,19.5 -14.60814,36.01855 -31.12696,47.08398 l 50.41602,39.13867 c 29.50118,-27.16118 46.51563,-67.15286 46.51563,-114.66015 0,-11.05881 -0.99171,-21.70015 -2.83594,-31.90625 z"
       style="fill:#000000;fill-opacity:0.49019608;fill-rule:evenodd;stroke-width:0.66101694" />
    <path
       inkscape:connector-curvature="0"
       id="path879"
       d="M 191.71289,305.64062 139.5918,346.06055 C 165.25909,397.04478 218.01458,432 279,432 c 42.12,0 77.43143,-13.96721 103.24414,-37.79688 l -50.41602,-39.13867 c -13.96728,9.36 -31.84083,14.89258 -52.82812,14.89258 -40.63271,0 -75.01863,-27.43826 -87.28711,-64.31641 z"
       style="fill:#000000;fill-opacity:0.49019608;fill-rule:evenodd;stroke-width:0.66101694" />
    <path
       inkscape:connector-curvature="0"
       id="path881"
       d="M 139.5918,205.93945 C 129.02875,226.99945 123,250.82848 123,276 c 0,25.17153 6.02875,49.00055 16.5918,70.06055 l 52.12109,-40.41993 c -3.12,-9.36 -4.89258,-19.3618 -4.89258,-29.64062 0,-10.27881 1.77258,-20.28063 4.89258,-29.64062 z"
       style="fill:#000000;fill-opacity:0.49019608;fill-rule:evenodd;stroke-width:0.66101694" />
    <path
       style="fill:#000000;fill-opacity:0.49019608;fill-rule:evenodd;stroke-width:0.66101694"
       inkscape:connector-curvature="0"
       id="path883"
       d="m 279,182.04305 c 22.90424,0 43.46847,7.87272 59.63695,23.32729 L 383.38119,160.6261 C 356.35881,135.46119 321.04729,120 279,120 218.02119,120 165.25881,154.96119 139.59152,205.93882 L 191.71271,246.36 C 203.98119,209.48848 238.3739,182.04305 279,182.04305 Z" />
    <path
       d="m 408.76,259.54305 c 0,-11.05881 -0.99153,-21.70118 -2.83576,-31.90728 H 259 V 287.98 h 83.95576 c -3.61576,19.5 -14.60847,36.01881 -31.12729,47.08424 v 39.13881 h 50.41577 C 391.74542,347.04187 408.76,307.05034 408.76,259.54305 Z"
       id="path6"
       inkscape:connector-curvature="0"
       style="fill:#3689e6;fill-opacity:1;fill-rule:evenodd;stroke-width:0.66101694" />
    <path
       d="m 259,412 c 42.12,0 77.43153,-13.96729 103.24424,-37.79695 l -50.41577,-39.13881 c -13.96728,9.36 -31.84118,14.89271 -52.82847,14.89271 -40.63271,0 -75.01881,-27.43881 -87.28729,-64.31695 h -52.12119 v 40.42119 C 145.25881,377.04542 198.01458,412 259,412 Z"
       id="path8"
       inkscape:connector-curvature="0"
       style="fill:#68b723;fill-opacity:1;fill-rule:evenodd;stroke-width:0.66101694" />
    <path
       d="m 171.71271,285.64 c -3.12,-9.36 -4.89152,-19.36118 -4.89152,-29.64 0,-10.27881 1.77152,-20.28 4.89152,-29.64 V 185.93882 H 119.59152 C 109.02847,206.99882 103,230.82848 103,256 c 0,25.17153 6.02847,49.00119 16.59152,70.06119 z"
       id="path10"
       inkscape:connector-curvature="0"
       style="fill:#f9c440;fill-opacity:1;fill-rule:evenodd;stroke-width:0.66101694" />
    <path
       d="m 259,162.04305 c 22.90424,0 43.46847,7.87272 59.63695,23.32729 L 363.38119,140.6261 C 336.35881,115.46119 301.04729,100 259,100 198.02119,100 145.25881,134.96119 119.59152,185.93882 L 171.71271,226.36 C 183.98119,189.48848 218.3739,162.04305 259,162.04305 Z"
       id="path12"
       inkscape:connector-curvature="0"
       style="fill:#c6262e;fill-opacity:1;fill-rule:evenodd;stroke-width:0.66101694" />
  </g>
</svg>
