<?xml version="1.0" encoding="UTF-8" standalone="no"?>
<!-- Generator: Adobe Illustrator 19.0.0, SVG Export Plug-In . SVG Version: 6.00 Build 0)  -->

<svg
   xmlns:dc="http://purl.org/dc/elements/1.1/"
   xmlns:cc="http://creativecommons.org/ns#"
   xmlns:rdf="http://www.w3.org/1999/02/22-rdf-syntax-ns#"
   xmlns:svg="http://www.w3.org/2000/svg"
   xmlns="http://www.w3.org/2000/svg"
   xmlns:sodipodi="http://sodipodi.sourceforge.net/DTD/sodipodi-0.dtd"
   xmlns:inkscape="http://www.inkscape.org/namespaces/inkscape"
   version="1.1"
   id="Layer_1"
   x="0px"
   y="0px"
   viewBox="0 0 512 512"
   xml:space="preserve"
   inkscape:version="0.92.3 (2405546, 2018-03-11)"
   width="512"
   height="512"
   sodipodi:docname="gprename.svg"><metadata
     id="metadata57"><rdf:RDF><cc:Work
         rdf:about=""><dc:format>image/svg+xml</dc:format><dc:type
           rdf:resource="http://purl.org/dc/dcmitype/StillImage" /><dc:title></dc:title></cc:Work></rdf:RDF></metadata><defs
     id="defs55" /><sodipodi:namedview
     pagecolor="#ffffff"
     bordercolor="#666666"
     borderopacity="1"
     objecttolerance="10"
     gridtolerance="10"
     guidetolerance="10"
     inkscape:pageopacity="0"
     inkscape:pageshadow="2"
     inkscape:window-width="1366"
     inkscape:window-height="720"
     id="namedview53"
     showgrid="false"
     inkscape:zoom="0.52559509"
     inkscape:cx="405.18928"
     inkscape:cy="143.31637"
     inkscape:window-x="0"
     inkscape:window-y="23"
     inkscape:window-maximized="1"
     inkscape:current-layer="Layer_1"
     units="px" /><g
     id="g23"
     transform="translate(0,550.767)" /><g
     id="g25"
     transform="translate(0,550.767)" /><g
     id="g27"
     transform="translate(0,550.767)" /><g
     id="g29"
     transform="translate(0,550.767)" /><g
     id="g31"
     transform="translate(0,550.767)" /><g
     id="g33"
     transform="translate(0,550.767)" /><g
     id="g35"
     transform="translate(0,550.767)" /><g
     id="g37"
     transform="translate(0,550.767)" /><g
     id="g39"
     transform="translate(0,550.767)" /><g
     id="g41"
     transform="translate(0,550.767)" /><g
     id="g43"
     transform="translate(0,550.767)" /><g
     id="g45"
     transform="translate(0,550.767)" /><g
     id="g47"
     transform="translate(0,550.767)" /><g
     id="g49"
     transform="translate(0,550.767)" /><g
     id="g51"
     transform="translate(0,550.767)" /><g
     transform="translate(-19.026053,509.09739)"
     style="font-style:normal;font-weight:normal;font-size:225.55084229px;line-height:125%;font-family:sans-serif;letter-spacing:0px;word-spacing:0px;fill:#45d03f;fill-opacity:1;stroke:none;stroke-width:1px;stroke-linecap:butt;stroke-linejoin:miter;stroke-opacity:1"
     id="flowRoot4170" /><g
     transform="translate(0,510.0487)"
     style="font-style:normal;font-weight:normal;font-size:225.55084229px;line-height:125%;font-family:sans-serif;letter-spacing:0px;word-spacing:0px;fill:#00bbf2;fill-opacity:1;stroke:none;stroke-width:1px;stroke-linecap:butt;stroke-linejoin:miter;stroke-opacity:1"
     id="flowRoot4170-2" /><g
     id="g939"><path
       style="fill:#68b723;fill-opacity:1;stroke-width:11.10955715"
       inkscape:connector-curvature="0"
       d="M 432.91328,56.473985 C 535.10618,145.04857 538.74004,306.17368 441.03008,416.37276 343.32011,526.57184 181.27963,544.10061 79.086725,455.52602 -23.10618,366.95144 -26.740045,205.82632 70.969926,95.627248 168.67989,-14.57184 330.72037,-32.100602 432.91328,56.473985 Z"
       id="path941" /><path
       style="opacity:1;fill:#000000;fill-opacity:0.49019608;stroke-width:11.10955715"
       inkscape:connector-curvature="0"
       d="M 511.63551,224.90352 C 510.08412,286.21517 486.47428,349.05814 440.66913,400.718 342.95916,510.91712 180.91868,528.44585 78.725781,439.8713 30.82711,398.35565 4.4968433,340.92285 0.19381353,280.22882 0.79906703,346.58548 27.117428,410.48219 79.078675,455.51907 181.27158,544.09362 343.31973,526.5562 441.02203,416.36577 c 49.70494,-56.0581 73.00501,-125.29096 70.61348,-191.46225 z"
       id="path943" /><path
       style="fill:#000000;fill-opacity:0.49019608;fill-rule:evenodd;stroke:none;stroke-width:0.58237094px;stroke-linecap:butt;stroke-linejoin:miter;stroke-opacity:1"
       d="m 271.87562,164.56733 c 0,0 -11.85723,-11.35227 -23.92058,1.42169 -12.06334,12.77396 -9.42395,40.51002 -9.42395,40.51002 l -16.06632,1.10801 c 0,0 -2.5565,-48.93756 24.50275,-66.5543 27.05926,-17.61673 47.08444,7.51621 47.08444,7.51621 z"
       id="path905"
       inkscape:connector-curvature="0"
       sodipodi:nodetypes="czcczcc" /><path
       style="fill:#000000;fill-opacity:0.49019608;stroke:none;stroke-width:0.71609354"
       d="M 159.51102,184.75087 C 137.62201,184.75087 120,202.37288 120,224.26189 v 94.00825 c 0,21.88902 17.62201,39.51102 39.51102,39.51102 h 53.08883 l 0.0266,-19.97649 59.94766,14.30649 -6.56513,5.67 h 34.9739 c 0.11881,-1.84014 0.42239,-6.70977 0.39581,-9.36795 -0.0319,-3.1958 -0.54127,-8.36935 -0.54127,-8.36935 l 22.15834,-1.50631 c 0,0 0.17677,4.64244 0.0602,8.24906 -0.0907,2.80385 -0.53693,8.22962 -0.76925,10.99455 h 70.20234 c 21.88902,0 39.51103,-17.622 39.51103,-39.51102 v -94.00825 c 0,-21.88901 -17.62201,-39.51103 -39.51103,-39.51102 h -65.53514 l -0.0349,26.3514 -59.94767,-14.30648 13.94845,-12.04492 h -38.87046 c -0.47058,2.38068 -1.03984,5.59118 -1.2168,8.17493 -0.30921,4.51495 0.42518,15.66735 0.42518,15.66735 l -21.03244,1.1077 c 0,0 -0.77471,-10.9552 -0.5105,-15.58342 0.16619,-2.91135 0.80806,-6.77487 1.27833,-9.36656 z m 51.42307,27.10106 c 6.15147,0 11.56704,1.2081 16.24637,3.62662 4.67932,2.41853 8.96405,6.23144 12.85472,11.43652 v -13.09248 h 28.39059 v 79.41785 c 0,14.1957 -4.49489,25.02546 -13.4855,32.49135 -8.93803,7.51846 -21.92372,11.27844 -38.95856,11.27847 -5.52055,0 -10.85749,-0.42033 -16.01001,-1.26156 -5.15251,-0.84123 -10.33218,-2.12936 -15.53727,-3.86439 v -22.00448 c 4.94222,2.83913 9.78019,4.94217 14.51208,6.30917 4.73191,1.41957 9.48985,2.1301 14.27432,2.1301 9.25349,0 16.03584,-2.02441 20.34713,-6.07281 4.31129,-4.04841 6.46722,-10.38328 6.46722,-19.00585 v -6.07281 c -3.89067,5.15252 -8.1754,8.93827 -12.85472,11.35679 -4.67933,2.41854 -10.0949,3.62663 -16.24637,3.62663 -10.77822,0 -19.69075,-4.23183 -26.73603,-12.69668 -7.04527,-8.51742 -10.56797,-19.34858 -10.56797,-32.49274 0,-13.19674 3.5227,-24.00075 10.56797,-32.41302 7.04528,-8.46485 15.95781,-12.69668 26.73603,-12.69668 z m 129.42132,0.36644 c 10.88337,0 19.82165,4.33762 26.81434,13.01276 6.9927,8.62258 10.48965,19.74254 10.48965,33.35989 0,13.61736 -3.49695,24.76307 -10.48965,33.43821 -6.99269,8.62258 -15.93097,12.93444 -26.81434,12.93444 -6.15147,0 -11.5928,-1.20949 -16.3247,-3.62801 -4.7319,-2.47111 -9.04377,-6.28262 -12.93444,-11.43512 v 46.37265 H 282.86372 V 214.34707 h 28.23255 v 12.93444 c 3.89067,-5.15251 8.20254,-8.93827 12.93444,-11.35679 4.7319,-2.47111 10.17323,-3.70635 16.3247,-3.70635 z m -118.93307,19.98069 c -5.83601,0 -10.38379,2.15453 -13.64354,6.46582 -3.25976,4.31129 -4.88958,10.41025 -4.88958,18.29675 0,8.09681 1.57695,14.24866 4.73153,18.45479 3.15461,4.15356 7.75528,6.23082 13.80159,6.23086 5.88859,0 10.46351,-2.15593 13.72326,-6.46723 3.25976,-4.31127 4.88958,-10.38449 4.88958,-18.21842 0,-7.8865 -1.62982,-13.98546 -4.88958,-18.29675 -3.25975,-4.31129 -7.83467,-6.46582 -13.72326,-6.46582 z m 108.44482,0.52448 c -6.04632,0 -10.69988,2.23457 -13.95963,6.70359 -3.20718,4.41643 -4.81126,10.8042 -4.81126,19.16389 0,8.35969 1.60408,14.77321 4.81126,19.24222 3.25975,4.41644 7.91331,6.62527 13.95963,6.62527 6.04631,0 10.64698,-2.20883 13.80158,-6.62527 3.20718,-4.41644 4.80985,-10.82995 4.80985,-19.24222 0,-8.41226 -1.60267,-14.82717 -4.80985,-19.24361 -3.1546,-4.41644 -7.75527,-6.62387 -13.80158,-6.62387 z"
       id="path907"
       inkscape:connector-curvature="0" /><path
       style="fill:#000000;fill-opacity:0.49019608;fill-rule:evenodd;stroke:none;stroke-width:0.58191603px;stroke-linecap:butt;stroke-linejoin:miter;stroke-opacity:1"
       d="m 274.15374,195.38253 48.71489,11.62514 0.0614,-46.37778 -13.28588,8.85726 -15.62537,-20.97359 -22.14313,16.05377 14.45682,20.29721 z"
       id="path909"
       inkscape:connector-curvature="0"
       sodipodi:nodetypes="cccccccc" /><path
       style="fill:#000000;fill-opacity:0.49019608;fill-rule:evenodd;stroke:none;stroke-width:0.60638243px;stroke-linecap:butt;stroke-linejoin:miter;stroke-opacity:1"
       d="m 266.74097,353.48068 -50.76308,-12.11391 -0.0639,48.32771 13.84447,-9.22966 16.28234,21.85542 23.07412,-16.72874 -15.06464,-21.15061 z"
       id="path911"
       inkscape:connector-curvature="0"
       sodipodi:nodetypes="cccccccc" /><path
       style="fill:#000000;fill-opacity:0.49019608;fill-rule:evenodd;stroke:none;stroke-width:0.60445738px;stroke-linecap:butt;stroke-linejoin:miter;stroke-opacity:1"
       d="m 269.11488,385.5915 c 0,0 12.30692,11.7828 24.82778,-1.47561 12.52086,-13.25842 9.78135,-42.04638 9.78135,-42.04638 l 16.67565,-1.15004 c 0,0 2.65345,50.79353 -25.43203,69.07838 -28.08547,18.28491 -48.87012,-7.80125 -48.87012,-7.80125 z"
       id="path915"
       inkscape:connector-curvature="0"
       sodipodi:nodetypes="czcczcc" /><g
       id="g903"><path
         style="fill:#ffffff;fill-opacity:1;fill-rule:evenodd;stroke:none;stroke-width:0.58237094px;stroke-linecap:butt;stroke-linejoin:miter;stroke-opacity:1"
         d="m 251.87562,144.56733 c 0,0 -11.85723,-11.35227 -23.92058,1.42169 -12.06334,12.77396 -9.42395,40.51002 -9.42395,40.51002 l -16.06632,1.10801 c 0,0 -2.5565,-48.93756 24.50275,-66.5543 27.05926,-17.61673 47.08444,7.51621 47.08444,7.51621 z"
         id="path4226"
         inkscape:connector-curvature="0"
         sodipodi:nodetypes="czcczcc" /><path
         style="fill:#ffffff;fill-opacity:1;stroke:none;stroke-width:0.71609354"
         d="M 139.51102,164.75087 C 117.62201,164.75087 100,182.37288 100,204.26189 v 94.00825 c 0,21.88902 17.62201,39.51102 39.51102,39.51102 h 53.08883 l 0.0266,-19.97649 59.94766,14.30649 -6.56513,5.67 h 34.9739 c 0.11881,-1.84014 0.42239,-6.70977 0.39581,-9.36795 -0.0319,-3.1958 -0.54127,-8.36935 -0.54127,-8.36935 l 22.15834,-1.50631 c 0,0 0.17677,4.64244 0.0602,8.24906 -0.0907,2.80385 -0.53693,8.22962 -0.76925,10.99455 h 70.20234 c 21.88902,0 39.51103,-17.622 39.51103,-39.51102 v -94.00825 c 0,-21.88901 -17.62201,-39.51103 -39.51103,-39.51102 h -65.53514 l -0.0349,26.3514 -59.94767,-14.30648 13.94845,-12.04492 h -38.87046 c -0.47058,2.38068 -1.03984,5.59118 -1.2168,8.17493 -0.30921,4.51495 0.42518,15.66735 0.42518,15.66735 l -21.03244,1.1077 c 0,0 -0.77471,-10.9552 -0.5105,-15.58342 0.16619,-2.91135 0.80806,-6.77487 1.27833,-9.36656 z m 51.42307,27.10106 c 6.15147,0 11.56704,1.2081 16.24637,3.62662 4.67932,2.41853 8.96405,6.23144 12.85472,11.43652 v -13.09248 h 28.39059 v 79.41785 c 0,14.1957 -4.49489,25.02546 -13.4855,32.49135 -8.93803,7.51846 -21.92372,11.27844 -38.95856,11.27847 -5.52055,0 -10.85749,-0.42033 -16.01001,-1.26156 -5.15251,-0.84123 -10.33218,-2.12936 -15.53727,-3.86439 v -22.00448 c 4.94222,2.83913 9.78019,4.94217 14.51208,6.30917 4.73191,1.41957 9.48985,2.1301 14.27432,2.1301 9.25349,0 16.03584,-2.02441 20.34713,-6.07281 4.31129,-4.04841 6.46722,-10.38328 6.46722,-19.00585 v -6.07281 c -3.89067,5.15252 -8.1754,8.93827 -12.85472,11.35679 -4.67933,2.41854 -10.0949,3.62663 -16.24637,3.62663 -10.77822,0 -19.69075,-4.23183 -26.73603,-12.69668 -7.04527,-8.51742 -10.56797,-19.34858 -10.56797,-32.49274 0,-13.19674 3.5227,-24.00075 10.56797,-32.41302 7.04528,-8.46485 15.95781,-12.69668 26.73603,-12.69668 z m 129.42132,0.36644 c 10.88337,0 19.82165,4.33762 26.81434,13.01276 6.9927,8.62258 10.48965,19.74254 10.48965,33.35989 0,13.61736 -3.49695,24.76307 -10.48965,33.43821 -6.99269,8.62258 -15.93097,12.93444 -26.81434,12.93444 -6.15147,0 -11.5928,-1.20949 -16.3247,-3.62801 -4.7319,-2.47111 -9.04377,-6.28262 -12.93444,-11.43512 v 46.37265 H 262.86372 V 194.34707 h 28.23255 v 12.93444 c 3.89067,-5.15251 8.20254,-8.93827 12.93444,-11.35679 4.7319,-2.47111 10.17323,-3.70635 16.3247,-3.70635 z m -118.93307,19.98069 c -5.83601,0 -10.38379,2.15453 -13.64354,6.46582 -3.25976,4.31129 -4.88958,10.41025 -4.88958,18.29675 0,8.09681 1.57695,14.24866 4.73153,18.45479 3.15461,4.15356 7.75528,6.23082 13.80159,6.23086 5.88859,0 10.46351,-2.15593 13.72326,-6.46723 3.25976,-4.31127 4.88958,-10.38449 4.88958,-18.21842 0,-7.8865 -1.62982,-13.98546 -4.88958,-18.29675 -3.25975,-4.31129 -7.83467,-6.46582 -13.72326,-6.46582 z m 108.44482,0.52448 c -6.04632,0 -10.69988,2.23457 -13.95963,6.70359 -3.20718,4.41643 -4.81126,10.8042 -4.81126,19.16389 0,8.35969 1.60408,14.77321 4.81126,19.24222 3.25975,4.41644 7.91331,6.62527 13.95963,6.62527 6.04631,0 10.64698,-2.20883 13.80158,-6.62527 3.20718,-4.41644 4.80985,-10.82995 4.80985,-19.24222 0,-8.41226 -1.60267,-14.82717 -4.80985,-19.24361 -3.1546,-4.41644 -7.75527,-6.62387 -13.80158,-6.62387 z"
         id="rect4160"
         inkscape:connector-curvature="0" /><path
         style="fill:#ffffff;fill-opacity:1;fill-rule:evenodd;stroke:none;stroke-width:0.58191603px;stroke-linecap:butt;stroke-linejoin:miter;stroke-opacity:1"
         d="m 254.15374,175.38253 48.71489,11.62514 0.0614,-46.37778 -13.28588,8.85726 -15.62537,-20.97359 -22.14313,16.05377 14.45682,20.29721 z"
         id="path4224"
         inkscape:connector-curvature="0"
         sodipodi:nodetypes="cccccccc" /><path
         style="fill:#ffffff;fill-opacity:1;fill-rule:evenodd;stroke:none;stroke-width:0.60638243px;stroke-linecap:butt;stroke-linejoin:miter;stroke-opacity:1"
         d="m 246.74097,333.48068 -50.76308,-12.11391 -0.0639,48.32771 13.84447,-9.22966 16.28234,21.85542 23.07412,-16.72874 -15.06464,-21.15061 z"
         id="path4224-0"
         inkscape:connector-curvature="0"
         sodipodi:nodetypes="cccccccc" /><path
         sodipodi:nodetypes="czcczcc"
         inkscape:connector-curvature="0"
         id="path48"
         d="m 251.87562,144.56733 c 0,0 -11.85723,-11.35227 -23.92058,1.42169 -12.06334,12.77396 -9.42395,40.51002 -9.42395,40.51002 l -16.06632,1.10801 c 0,0 -2.5565,-48.93756 24.50275,-66.5543 27.05926,-17.61673 47.08444,7.51621 47.08444,7.51621 z"
         style="fill:#ffffff;fill-opacity:1;fill-rule:evenodd;stroke:none;stroke-width:0.58237094px;stroke-linecap:butt;stroke-linejoin:miter;stroke-opacity:1" /><path
         style="fill:#ffffff;fill-opacity:1;fill-rule:evenodd;stroke:none;stroke-width:0.60445738px;stroke-linecap:butt;stroke-linejoin:miter;stroke-opacity:1"
         d="m 249.11488,365.5915 c 0,0 12.30692,11.7828 24.82778,-1.47561 12.52086,-13.25842 9.78135,-42.04638 9.78135,-42.04638 l 16.67565,-1.15004 c 0,0 2.65345,50.79353 -25.43203,69.07838 -28.08547,18.28491 -48.87012,-7.80125 -48.87012,-7.80125 z"
         id="path4226-2"
         inkscape:connector-curvature="0"
         sodipodi:nodetypes="czcczcc" /></g></g></svg>