<?xml version="1.0" encoding="UTF-8" standalone="no"?>
<!-- Generator: Adobe Illustrator 19.0.0, SVG Export Plug-In . SVG Version: 6.00 Build 0)  -->

<svg
   xmlns:dc="http://purl.org/dc/elements/1.1/"
   xmlns:cc="http://creativecommons.org/ns#"
   xmlns:rdf="http://www.w3.org/1999/02/22-rdf-syntax-ns#"
   xmlns:svg="http://www.w3.org/2000/svg"
   xmlns="http://www.w3.org/2000/svg"
   xmlns:sodipodi="http://sodipodi.sourceforge.net/DTD/sodipodi-0.dtd"
   xmlns:inkscape="http://www.inkscape.org/namespaces/inkscape"
   version="1.1"
   id="Layer_1"
   x="0px"
   y="0px"
   viewBox="0 0 512 512"
   xml:space="preserve"
   inkscape:version="0.92.3 (2405546, 2018-03-11)"
   width="512"
   height="512"
   sodipodi:docname="grandr.svg"><metadata
     id="metadata57"><rdf:RDF><cc:Work
         rdf:about=""><dc:format>image/svg+xml</dc:format><dc:type
           rdf:resource="http://purl.org/dc/dcmitype/StillImage" /><dc:title></dc:title></cc:Work></rdf:RDF></metadata><defs
     id="defs55" /><sodipodi:namedview
     pagecolor="#ffffff"
     bordercolor="#666666"
     borderopacity="1"
     objecttolerance="10"
     gridtolerance="10"
     guidetolerance="10"
     inkscape:pageopacity="0"
     inkscape:pageshadow="2"
     inkscape:window-width="1366"
     inkscape:window-height="720"
     id="namedview53"
     showgrid="false"
     inkscape:zoom="0.37165185"
     inkscape:cx="291.67467"
     inkscape:cy="-73.367345"
     inkscape:window-x="0"
     inkscape:window-y="23"
     inkscape:window-maximized="1"
     inkscape:current-layer="Layer_1"
     units="px" /><g
     id="g23"
     transform="translate(0,550.767)" /><g
     id="g25"
     transform="translate(0,550.767)" /><g
     id="g27"
     transform="translate(0,550.767)" /><g
     id="g29"
     transform="translate(0,550.767)" /><g
     id="g31"
     transform="translate(0,550.767)" /><g
     id="g33"
     transform="translate(0,550.767)" /><g
     id="g35"
     transform="translate(0,550.767)" /><g
     id="g37"
     transform="translate(0,550.767)" /><g
     id="g39"
     transform="translate(0,550.767)" /><g
     id="g41"
     transform="translate(0,550.767)" /><g
     id="g43"
     transform="translate(0,550.767)" /><g
     id="g45"
     transform="translate(0,550.767)" /><g
     id="g47"
     transform="translate(0,550.767)" /><g
     id="g49"
     transform="translate(0,550.767)" /><g
     id="g51"
     transform="translate(0,550.767)" /><g
     id="g909"><path
       id="path27"
       d="M 432.91327,56.473967 C 535.10618,145.04856 538.74005,306.17367 441.03007,416.37276 343.3201,526.57184 181.27964,544.10061 79.086729,455.52602 -23.106186,366.95143 -26.740042,205.82631 70.969928,95.627227 168.6799,-14.571854 330.72036,-32.100623 432.91327,56.473967 Z"
       inkscape:connector-curvature="0"
       style="fill:#3689e6;fill-opacity:1;stroke-width:11.10955811" /><path
       id="path51"
       d="M 511.63551,224.90351 C 510.08412,286.21516 486.47428,349.05812 440.66913,400.71799 342.95915,510.91711 180.91869,528.44584 78.725776,439.87129 30.827124,398.35563 4.4968216,340.92284 0.19382768,280.2288 0.79907934,346.58548 27.117411,410.48217 79.078682,455.51906 181.27159,544.09361 343.31975,526.55619 441.02202,416.36576 490.72697,360.30766 514.02704,291.0748 511.63551,224.90351 Z"
       inkscape:connector-curvature="0"
       style="opacity:1;fill:#000000;fill-opacity:0.49019608;stroke-width:11.10955811" /><path
       inkscape:connector-curvature="0"
       id="path889"
       d="m 190.31524,410.73862 c -2.43813,-1.90837 -3.29326,-5.07811 -2.12804,-7.86851 1.51906,-3.6352 3.48625,-4.24262 13.71676,-4.24262 h 8.91319 l 4.07901,-3.4816 c 6.57615,-5.61571 12.63379,-13.01412 17.40569,-21.26197 3.17119,-5.48073 7.95622,-18.30401 7.96311,-21.3411 l 0.005,-1.74545 -50.27909,-0.23273 -50.27911,-0.23273 -4.80936,-2.37614 c -5.88,-2.90677 -10.04639,-7.15172 -12.87028,-13.11419 L 120,330.55242 v -85.21079 -85.21078 l 2.37721,-4.81048 c 2.90633,-5.88102 7.15058,-10.04684 13.11219,-12.86982 l 4.28964,-2.02473 h 136.22092 136.22089 l 4.28972,2.02473 c 5.96161,2.82298 10.20586,6.9888 13.11221,12.86982 l 2.37721,4.81048 v 85.21078 85.21079 l -2.03217,4.28916 c -2.82389,5.96247 -6.99029,10.20742 -12.87029,13.11419 l -4.80933,2.37614 -50.27913,0.23273 -50.27909,0.23273 v 1.536 c 0,2.21091 2.96332,11.35476 5.39166,16.64233 4.09675,8.92044 11.51696,18.74618 19.24806,25.4883 l 4.75076,4.14487 h 8.94381 c 10.26374,0 12.2273,0.60509 13.74741,4.24262 1.16526,2.7904 0.30999,5.95084 -2.12806,7.86851 -1.62048,1.28 -2.38371,1.28 -85.68373,1.28 -83.30005,0 -84.06338,-0.0116 -85.68375,-1.28 z m 127.16405,-15.9907 c -9.74865,-11.71549 -16.08258,-24.49222 -19.10443,-38.53964 l -1.10056,-5.11535 h -21.27538 -21.27535 l -1.10662,5.14327 c -2.99857,13.94037 -8.87565,25.87928 -18.5887,37.76467 l -3.78028,4.62662 h 44.73005 44.73003 z m 94.9413,-59.45252 c 1.46269,-0.97746 3.45158,-2.95564 4.41961,-4.41717 1.68145,-2.53905 1.76989,-3.06501 1.97934,-11.79927 l 0.21877,-9.1392 H 276.0588 133.0787 l 0.002,7.81498 c 0.002,4.3008 0.3106,8.92277 0.68587,10.27491 0.8408,3.02778 5.44613,7.78008 8.35531,8.62255 1.33367,0.39564 51.39797,0.58182 134.87927,0.512 h 132.75878 l 2.65954,-1.76873 z m -140.43663,-6.22546 c -2.43812,-1.90836 -3.29323,-5.07811 -2.12806,-7.86851 0.96931,-2.32727 3.75473,-4.24262 6.14305,-4.24262 2.38834,0 5.17376,1.93164 6.14307,4.24262 1.8304,4.38226 -1.37286,9.15549 -6.14307,9.15549 -1.42011,0 -3.03947,-0.512 -4.01502,-1.28 z m 146.78727,-99.40948 -0.16989,-66.88118 -1.76012,-2.66007 c -0.96791,-1.46618 -2.95687,-3.45135 -4.41965,-4.41949 l -2.65964,-1.76873 H 275.99897 142.23703 l -2.65962,1.76873 c -1.46278,0.97745 -3.45162,2.95564 -4.41965,4.41949 l -1.76005,2.66007 -0.17106,66.88118 -0.17105,66.88118 h 142.94321 142.94322 z"
       style="fill:#000000;fill-opacity:0.49019608;stroke-width:0.63803709" /><path
       style="fill:#000000;fill-opacity:0.49019608;stroke-width:0.26329878"
       d="m 271.86424,288.14564 c -1.22771,-0.15176 -2.52258,-0.51949 -3.42289,-0.97207 -2.09657,-1.05394 -2.75857,-2.50505 -3.15487,-6.91551 -0.367,-4.08422 -0.55654,-5.02995 -1.0579,-5.27858 -0.21724,-0.1077 -1.78677,-0.63571 -3.48788,-1.17329 -1.7011,-0.5376 -4.60397,-1.73459 -6.45082,-2.65997 -1.84683,-0.92539 -3.54856,-1.68272 -3.78159,-1.68295 -0.23305,-2.5e-4 -0.94395,0.45089 -1.5798,1.00252 -2.09078,1.81388 -4.83096,3.91226 -5.68671,4.35478 -1.33204,0.68884 -3.4443,0.56746 -5.03401,-0.28924 -4.11059,-2.21523 -9.68766,-8.45714 -10.18465,-11.39876 -0.32,-1.89407 0.63461,-3.6131 4.59326,-8.27144 0.73307,-0.86261 1.33263,-1.75125 1.33239,-1.97474 -2.4e-4,-0.22348 -0.74286,-1.88801 -1.65024,-3.69894 -0.9074,-1.81093 -2.10153,-4.7138 -2.65364,-6.45083 -0.55209,-1.73702 -1.09481,-3.33594 -1.20601,-3.55315 -0.24968,-0.48775 -1.15703,-0.68049 -5.02161,-1.06674 -1.66537,-0.16643 -3.46559,-0.42597 -4.0005,-0.57673 -1.54696,-0.436 -2.74068,-1.60097 -3.37347,-3.29228 -0.75775,-2.0253 -1.11163,-6.5542 -0.78873,-10.09427 0.292,-3.20127 0.57323,-4.3172 1.3957,-5.53826 1.05453,-1.56563 2.2831,-2.02398 6.66246,-2.48574 2.1573,-0.22745 4.17285,-0.46337 4.47899,-0.52425 0.45646,-0.0908 0.75416,-0.7186 1.65434,-3.48887 0.60374,-1.858 1.86086,-4.91076 2.7936,-6.78392 0.93273,-1.87314 1.69894,-3.64472 1.70272,-3.93686 0.004,-0.2921 -0.50076,-1.12148 -1.12116,-1.84307 -4.01138,-4.66561 -4.76207,-5.97349 -4.61283,-8.03668 0.15938,-2.20349 1.35373,-4.0263 5.09861,-7.78155 3.87519,-3.88589 5.75058,-4.99 8.13942,-4.79189 1.65621,0.13732 2.89336,0.88747 6.19433,3.75584 3.0081,2.61388 2.61143,2.57154 6.36683,0.67951 1.78397,-0.8988 4.90236,-2.19588 6.92976,-2.8824 4.2756,-1.44782 3.84324,-0.8295 4.34576,-6.21499 0.39148,-4.19541 0.62155,-4.96732 1.84528,-6.19106 1.64253,-1.64251 3.12595,-1.96913 8.94864,-1.97026 5.44675,-8.3e-4 7.01405,0.26424 8.67684,1.46875 1.66215,1.20406 2.07616,2.32289 2.55162,6.8955 0.40656,3.91003 0.77803,5.19469 1.50209,5.19469 0.92691,0 5.72085,1.81962 9.18007,3.48441 l 3.87466,1.86476 0.90598,-0.63402 c 0.4983,-0.34871 2.01303,-1.53583 3.36607,-2.63805 1.35304,-1.10221 2.83925,-2.1982 3.30271,-2.43551 1.25891,-0.64465 3.16014,-0.5502 4.73634,0.23524 2.99899,1.49446 8.15506,6.72535 9.59432,9.73357 0.88286,1.84526 0.96622,3.29468 0.26825,4.66373 -0.51611,1.01231 -2.64985,3.8242 -4.27403,5.63242 -0.53389,0.59438 -1.04896,1.32727 -1.14461,1.62862 -0.12221,0.38506 0.35988,1.62912 1.62187,4.1853 0.98768,2.00053 2.24826,5.02931 2.80131,6.73059 0.55303,1.7013 1.13921,3.17586 1.30259,3.27685 0.16338,0.10103 2.22445,0.39427 4.58015,0.65174 3.0796,0.33661 4.57985,0.61955 5.33925,1.00697 2.27741,1.16184 3.15112,3.8876 3.15856,9.85395 0.004,4.37413 -0.31092,6.42512 -1.26237,8.18343 -1.06534,1.96882 -2.14041,2.44971 -6.56282,2.93558 -5.8433,0.64201 -5.34881,0.33979 -6.50422,3.97531 -0.54097,1.70217 -1.79749,4.78888 -2.79228,6.85934 -1.47031,3.06016 -1.7646,3.88054 -1.57293,4.38469 0.12969,0.3411 0.36127,0.69772 0.51462,0.79251 0.49527,0.30608 4.39696,5.24771 4.87776,6.17784 0.70275,1.35953 0.59976,3.1762 -0.28113,4.95902 -0.53977,1.09237 -1.69898,2.46469 -4.17735,4.94527 -3.98468,3.9882 -5.76561,5.12389 -8.03506,5.12389 -1.7384,0 -2.5317,-0.38913 -5.13726,-2.51998 -3.14655,-2.57326 -4.11906,-3.27258 -4.55098,-3.27258 -0.21497,0 -1.94484,0.77006 -3.84416,1.71121 -1.89931,0.94119 -4.87243,2.17336 -6.60692,2.73821 -1.94019,0.63183 -3.27332,1.21445 -3.46469,1.51418 -0.17107,0.26796 -0.49954,2.25659 -0.72992,4.41916 -0.61266,5.75116 -1.38217,6.96187 -5.02682,7.9089 -1.93907,0.50388 -7.7273,0.72155 -10.40029,0.39115 z m 7.50401,-34.24603 c 9.33596,-1.14409 17.10805,-6.68177 21.20827,-15.1111 2.08707,-4.29065 2.49222,-6.23481 2.46912,-11.84845 -0.0179,-4.359 -0.0761,-4.92499 -0.72552,-7.05221 -1.49859,-4.90923 -3.53682,-8.35111 -6.99083,-11.80512 -3.45064,-3.45065 -6.88168,-5.48357 -11.80511,-6.99465 -2.15696,-0.662 -2.64113,-0.70983 -7.18386,-0.70983 -4.55113,0 -5.02666,0.0471 -7.24072,0.71885 -4.95178,1.50216 -8.75657,3.80702 -12.16523,7.36942 -2.39392,2.50189 -3.68323,4.36869 -5.08643,7.36457 -4.75483,10.15181 -2.58225,22.33583 5.40746,30.32554 4.22787,4.22787 10.0729,7.08143 15.90048,7.76268 2.59115,0.30291 3.60613,0.29969 6.21237,-0.0197 z"
       id="path893"
       inkscape:connector-curvature="0" /><path
       style="fill:#ffffff;stroke-width:0.63803709"
       d="m 170.31531,390.73791 c -2.43813,-1.90837 -3.29326,-5.07811 -2.12804,-7.86851 1.51906,-3.6352 3.48625,-4.24262 13.71676,-4.24262 h 8.91319 l 4.07901,-3.4816 c 6.57615,-5.61571 12.63379,-13.01412 17.40569,-21.26197 3.17119,-5.48073 7.95622,-18.30401 7.96311,-21.3411 l 0.005,-1.74545 -50.27909,-0.23273 -50.27911,-0.23273 -4.80936,-2.37614 c -5.88,-2.90677 -10.04639,-7.15172 -12.87028,-13.11419 l -2.03212,-4.28916 v -85.21079 -85.21078 l 2.37721,-4.81048 c 2.90633,-5.88102 7.15058,-10.04684 13.11219,-12.86982 l 4.28964,-2.02473 h 136.22092 136.22089 l 4.28972,2.02473 c 5.96161,2.82298 10.20586,6.9888 13.11221,12.86982 l 2.37721,4.81048 v 85.21078 85.21079 l -2.03217,4.28916 c -2.82389,5.96247 -6.99029,10.20742 -12.87029,13.11419 l -4.80933,2.37614 -50.27913,0.23273 -50.27909,0.23273 v 1.536 c 0,2.21091 2.96332,11.35476 5.39166,16.64233 4.09675,8.92044 11.51696,18.74618 19.24806,25.4883 l 4.75076,4.14487 h 8.94381 c 10.26374,0 12.2273,0.60509 13.74741,4.24262 1.16526,2.7904 0.30999,5.95084 -2.12806,7.86851 -1.62048,1.28 -2.38371,1.28 -85.68373,1.28 -83.30005,0 -84.06338,-0.0116 -85.68375,-1.28 z m 127.16405,-15.9907 c -9.74865,-11.71549 -16.08258,-24.49222 -19.10443,-38.53964 l -1.10056,-5.11535 h -21.27538 -21.27535 l -1.10662,5.14327 c -2.99857,13.94037 -8.87565,25.87928 -18.5887,37.76467 l -3.78028,4.62662 h 44.73005 44.73003 z m 94.9413,-59.45252 c 1.46269,-0.97746 3.45158,-2.95564 4.41961,-4.41717 1.68145,-2.53905 1.76989,-3.06501 1.97934,-11.79927 l 0.21877,-9.1392 H 256.05887 113.07877 l 0.002,7.81498 c 0.002,4.3008 0.3106,8.92277 0.68587,10.27491 0.8408,3.02778 5.44613,7.78008 8.35531,8.62255 1.33367,0.39564 51.39797,0.58182 134.87927,0.512 H 389.76 l 2.65954,-1.76873 z m -140.43663,-6.22546 c -2.43812,-1.90836 -3.29323,-5.07811 -2.12806,-7.86851 0.96931,-2.32727 3.75473,-4.24262 6.14305,-4.24262 2.38834,0 5.17376,1.93164 6.14307,4.24262 1.8304,4.38226 -1.37286,9.15549 -6.14307,9.15549 -1.42011,0 -3.03947,-0.512 -4.01502,-1.28 z m 146.78727,-99.40948 -0.16989,-66.88118 -1.76012,-2.66007 c -0.96791,-1.46618 -2.95687,-3.45135 -4.41965,-4.41949 L 389.762,133.93028 H 255.99904 122.2371 l -2.65962,1.76873 c -1.46278,0.97745 -3.45162,2.95564 -4.41965,4.41949 l -1.76005,2.66007 -0.17106,66.88118 -0.17105,66.88118 H 255.99888 398.9421 Z"
       id="path857"
       inkscape:connector-curvature="0" /><path
       inkscape:connector-curvature="0"
       id="path844"
       d="m 251.86431,268.14493 c -1.22771,-0.15176 -2.52258,-0.51949 -3.42289,-0.97207 -2.09657,-1.05394 -2.75857,-2.50505 -3.15487,-6.91551 -0.367,-4.08422 -0.55654,-5.02995 -1.0579,-5.27858 -0.21724,-0.1077 -1.78677,-0.63571 -3.48788,-1.17329 -1.7011,-0.5376 -4.60397,-1.73459 -6.45082,-2.65997 -1.84683,-0.92539 -3.54856,-1.68272 -3.78159,-1.68295 -0.23305,-2.5e-4 -0.94395,0.45089 -1.5798,1.00252 -2.09078,1.81388 -4.83096,3.91226 -5.68671,4.35478 -1.33204,0.68884 -3.4443,0.56746 -5.03401,-0.28924 -4.11059,-2.21523 -9.68766,-8.45714 -10.18465,-11.39876 -0.32,-1.89407 0.63461,-3.6131 4.59326,-8.27144 0.73307,-0.86261 1.33263,-1.75125 1.33239,-1.97474 -2.4e-4,-0.22348 -0.74286,-1.88801 -1.65024,-3.69894 -0.9074,-1.81093 -2.10153,-4.7138 -2.65364,-6.45083 -0.55209,-1.73702 -1.09481,-3.33594 -1.20601,-3.55315 -0.24968,-0.48775 -1.15703,-0.68049 -5.02161,-1.06674 -1.66537,-0.16643 -3.46559,-0.42597 -4.0005,-0.57673 -1.54696,-0.436 -2.74068,-1.60097 -3.37347,-3.29228 -0.75775,-2.0253 -1.11163,-6.5542 -0.78873,-10.09427 0.292,-3.20127 0.57323,-4.3172 1.3957,-5.53826 1.05453,-1.56563 2.2831,-2.02398 6.66246,-2.48574 2.1573,-0.22745 4.17285,-0.46337 4.47899,-0.52425 0.45646,-0.0908 0.75416,-0.7186 1.65434,-3.48887 0.60374,-1.858 1.86086,-4.91076 2.7936,-6.78392 0.93273,-1.87314 1.69894,-3.64472 1.70272,-3.93686 0.004,-0.2921 -0.50076,-1.12148 -1.12116,-1.84307 -4.01138,-4.66561 -4.76207,-5.97349 -4.61283,-8.03668 0.15938,-2.20349 1.35373,-4.0263 5.09861,-7.78155 3.87519,-3.88589 5.75058,-4.99 8.13942,-4.79189 1.65621,0.13732 2.89336,0.88747 6.19433,3.75584 3.0081,2.61388 2.61143,2.57154 6.36683,0.67951 1.78397,-0.8988 4.90236,-2.19588 6.92976,-2.8824 4.2756,-1.44782 3.84324,-0.8295 4.34576,-6.21499 0.39148,-4.19541 0.62155,-4.96732 1.84528,-6.19106 1.64253,-1.64251 3.12595,-1.96913 8.94864,-1.97026 5.44675,-8.3e-4 7.01405,0.26424 8.67684,1.46875 1.66215,1.20406 2.07616,2.32289 2.55162,6.8955 0.40656,3.91003 0.77803,5.19469 1.50209,5.19469 0.92691,0 5.72085,1.81962 9.18007,3.48441 l 3.87466,1.86476 0.90598,-0.63402 c 0.4983,-0.34871 2.01303,-1.53583 3.36607,-2.63805 1.35304,-1.10221 2.83925,-2.1982 3.30271,-2.43551 1.25891,-0.64465 3.16014,-0.5502 4.73634,0.23524 2.99899,1.49446 8.15506,6.72535 9.59432,9.73357 0.88286,1.84526 0.96622,3.29468 0.26825,4.66373 -0.51611,1.01231 -2.64985,3.8242 -4.27403,5.63242 -0.53389,0.59438 -1.04896,1.32727 -1.14461,1.62862 -0.12221,0.38506 0.35988,1.62912 1.62187,4.1853 0.98768,2.00053 2.24826,5.02931 2.80131,6.73059 0.55303,1.7013 1.13921,3.17586 1.30259,3.27685 0.16338,0.10103 2.22445,0.39427 4.58015,0.65174 3.0796,0.33661 4.57985,0.61955 5.33925,1.00697 2.27741,1.16184 3.15112,3.8876 3.15856,9.85395 0.004,4.37413 -0.31092,6.42512 -1.26237,8.18343 -1.06534,1.96882 -2.14041,2.44971 -6.56282,2.93558 -5.8433,0.64201 -5.34881,0.33979 -6.50422,3.97531 -0.54097,1.70217 -1.79749,4.78888 -2.79228,6.85934 -1.47031,3.06016 -1.7646,3.88054 -1.57293,4.38469 0.12969,0.3411 0.36127,0.69772 0.51462,0.79251 0.49527,0.30608 4.39696,5.24771 4.87776,6.17784 0.70275,1.35953 0.59976,3.1762 -0.28113,4.95902 -0.53977,1.09237 -1.69898,2.46469 -4.17735,4.94527 -3.98468,3.9882 -5.76561,5.12389 -8.03506,5.12389 -1.7384,0 -2.5317,-0.38913 -5.13726,-2.51998 -3.14655,-2.57326 -4.11906,-3.27258 -4.55098,-3.27258 -0.21497,0 -1.94484,0.77006 -3.84416,1.71121 -1.89931,0.94119 -4.87243,2.17336 -6.60692,2.73821 -1.94019,0.63183 -3.27332,1.21445 -3.46469,1.51418 -0.17107,0.26796 -0.49954,2.25659 -0.72992,4.41916 -0.61266,5.75116 -1.38217,6.96187 -5.02682,7.9089 -1.93907,0.50388 -7.7273,0.72155 -10.40029,0.39115 z m 7.50401,-34.24603 c 9.33596,-1.14409 17.10805,-6.68177 21.20827,-15.1111 2.08707,-4.29065 2.49222,-6.23481 2.46912,-11.84845 -0.0179,-4.359 -0.0761,-4.92499 -0.72552,-7.05221 -1.49859,-4.90923 -3.53682,-8.35111 -6.99083,-11.80512 -3.45064,-3.45065 -6.88168,-5.48357 -11.80511,-6.99465 -2.15696,-0.662 -2.64113,-0.70983 -7.18386,-0.70983 -4.55113,0 -5.02666,0.0471 -7.24072,0.71885 -4.95178,1.50216 -8.75657,3.80702 -12.16523,7.36942 -2.39392,2.50189 -3.68323,4.36869 -5.08643,7.36457 -4.75483,10.15181 -2.58225,22.33583 5.40746,30.32554 4.22787,4.22787 10.0729,7.08143 15.90048,7.76268 2.59115,0.30291 3.60613,0.29969 6.21237,-0.0197 z"
       style="fill:#ffffff;stroke-width:0.26329878" /></g></svg>