<?xml version="1.0" encoding="UTF-8" standalone="no"?>
<svg
   xmlns:dc="http://purl.org/dc/elements/1.1/"
   xmlns:cc="http://creativecommons.org/ns#"
   xmlns:rdf="http://www.w3.org/1999/02/22-rdf-syntax-ns#"
   xmlns:svg="http://www.w3.org/2000/svg"
   xmlns="http://www.w3.org/2000/svg"
   xmlns:xlink="http://www.w3.org/1999/xlink"
   xmlns:sodipodi="http://sodipodi.sourceforge.net/DTD/sodipodi-0.dtd"
   xmlns:inkscape="http://www.inkscape.org/namespaces/inkscape"
   viewBox="0 0 511.99999 511.99999"
   height="512"
   width="512"
   version="1.1"
   id="svg2"
   inkscape:version="0.92.3 (2405546, 2018-03-11)"
   sodipodi:docname="graphics-viewer-document.svg">
  <sodipodi:namedview
     pagecolor="#ffffff"
     bordercolor="#666666"
     borderopacity="1"
     objecttolerance="10"
     gridtolerance="10"
     guidetolerance="10"
     inkscape:pageopacity="0"
     inkscape:pageshadow="2"
     inkscape:window-width="1366"
     inkscape:window-height="720"
     id="namedview18"
     showgrid="false"
     inkscape:zoom="0.40625"
     inkscape:cx="218.61785"
     inkscape:cy="354.35804"
     inkscape:window-x="0"
     inkscape:window-y="23"
     inkscape:window-maximized="1"
     inkscape:current-layer="svg2" />
  <metadata
     id="metadata8">
    <rdf:RDF>
      <cc:Work
         rdf:about="">
        <dc:format>image/svg+xml</dc:format>
        <dc:type
           rdf:resource="http://purl.org/dc/dcmitype/StillImage" />
        <dc:title></dc:title>
      </cc:Work>
    </rdf:RDF>
  </metadata>
  <defs
     id="defs6">
    <filter
       height="1.096"
       y="-0.048"
       width="1.096"
       x="-0.048"
       id="filter4329"
       style="color-interpolation-filters:sRGB">
      <feGaussianBlur
         id="feGaussianBlur4331"
         stdDeviation="2.1324205" />
    </filter>
    <filter
       height="1.0327445"
       y="-0.016372267"
       width="1.0399742"
       x="-0.019987123"
       id="filter4376"
       style="color-interpolation-filters:sRGB">
      <feGaussianBlur
         id="feGaussianBlur4378"
         stdDeviation="1.1736058" />
    </filter>
    <filter
       height="1.0570984"
       y="-0.0285492"
       width="1.0632123"
       x="-0.031606145"
       id="filter4436"
       style="color-interpolation-filters:sRGB">
      <feGaussianBlur
         id="feGaussianBlur4438"
         stdDeviation="0.63519096" />
    </filter>
    <linearGradient
       x1="16.541649"
       y1="144.70755"
       x2="-24.629177"
       y2="-0.77768874"
       id="linearGradient3504"
       xlink:href="#linearGradient3526"
       gradientUnits="userSpaceOnUse"
       gradientTransform="matrix(0.6969214,-0.3124156,0.3124156,0.6969214,29.229254,21.999738)" />
    <linearGradient
       id="linearGradient3526">
      <stop
         id="stop3528"
         style="stop-color:#006e29;stop-opacity:1"
         offset="0" />
      <stop
         id="stop3530"
         style="stop-color:#77b753;stop-opacity:1"
         offset="1" />
    </linearGradient>
  </defs>
  <g
     id="g854">
    <path
       style="fill:#3689e6;fill-opacity:1;stroke-width:11.10955811"
       inkscape:connector-curvature="0"
       d="m 432.91327,56.47397 c 102.19291,88.57459 105.82678,249.6997 8.1168,359.89878 C 343.3201,526.57184 181.27964,544.10061 79.086729,455.52602 -23.106186,366.95143 -26.740042,205.82631 70.969928,95.62723 168.6799,-14.57185 330.72036,-32.10062 432.91327,56.47397 Z"
       id="path27" />
    <path
       style="opacity:1;fill:#000000;fill-opacity:0.49019608;stroke-width:11.10955811"
       inkscape:connector-curvature="0"
       d="M 511.63551,224.90351 C 510.08412,286.21516 486.47428,349.05812 440.66913,400.71799 342.95915,510.91711 180.91869,528.44584 78.725776,439.87129 30.827124,398.35563 4.4968216,340.92284 0.1938277,280.2288 0.79907936,346.58548 27.117411,410.48217 79.078682,455.51906 181.27159,544.09361 343.31975,526.55619 441.02202,416.36576 490.72697,360.30766 514.02704,291.0748 511.63551,224.90351 Z"
       id="path51" />
    <path
       d="m 219.58629,120.07196 c -14.98713,-0.26608 -27.92119,14.86478 -24.75262,29.98155 2.13276,23.09889 16.80583,41.84335 28.25604,60.91722 1.28754,7.10301 -2.40297,14.01731 -2.65007,21.06876 -7.46527,41.39914 -18.85432,82.57556 -36.37607,120.56383 -21.68106,10.13174 -46.23508,20.13694 -58.91392,41.97344 -8.04842,15.15075 3.28402,35.59834 19.91895,37.1959 15.43284,2.14265 26.88769,-11.28161 35.3241,-22.5292 8.80824,-12.09858 14.60494,-26.50506 21.93396,-39.50734 44.35289,-18.13147 91.0152,-30.80321 138.64751,-35.61474 19.2596,13.99155 39.66472,30.49846 64.36193,31.49592 14.3555,-0.21684 25.97199,-14.36194 24.3993,-28.72857 -0.92495,-13.08077 -12.37287,-22.25377 -24.23302,-24.70818 -19.12797,-5.84886 -39.61855,-2.64547 -59.07562,-2.50363 -37.44301,-30.36952 -72.00845,-65.31147 -99.2357,-105.29115 2.02078,-24.30615 6.07849,-51.19217 -6.39021,-73.30411 -4.73434,-6.97411 -12.75967,-11.75634 -21.2157,-11.00384 m 0.71362,22.07446 c 4.21589,0.82515 4.49647,7.19912 5.67661,10.60765 1.11085,6.94711 0.98958,14.0361 0.90876,21.05235 -5.02072,-9.52577 -11.5426,-19.47703 -10.38095,-30.76802 1.32331,-0.0528 2.49537,-0.73374 3.79558,-0.88963 m 23.23299,94.78901 c 22.31618,28.16591 47.1046,54.10485 74.15628,77.61748 -35.67053,5.52182 -71.10778,14.77217 -105.0451,27.2517 13.01605,-34.53053 22.92586,-70.20504 29.45583,-106.61564 0.47572,0.58251 0.95148,1.16391 1.42722,1.74646 m 139.20181,94.6835 c 8.65235,0.84741 18.6372,0.33871 25.56554,6.3915 0.65011,5.46325 -5.93411,6.26029 -9.43986,4.28294 -7.31515,-2.47904 -14.55181,-5.59569 -20.76191,-10.3451 1.54733,-0.0973 3.08891,-0.29887 4.64199,-0.32934 m -216.22178,57.45709 c -4.11426,7.76763 -10.10381,15.09101 -16.34971,20.59174 -2.07849,3.41554 -7.78282,-2.89984 -5.15812,-5.56755 5.4191,-8.61036 14.88089,-13.17459 23.25608,-18.31782 -0.58429,1.09824 -1.16626,2.19653 -1.75171,3.29482"
       inkscape:connector-curvature="0"
       id="path848"
       style="fill:#000000;fill-opacity:0.49019608;stroke-width:0.88197005" />
    <path
       style="fill:#ffffff;fill-opacity:1;stroke-width:0.88197005"
       id="path70"
       inkscape:connector-curvature="0"
       d="m 199.58629,100.07196 c -14.98713,-0.266081 -27.92119,14.86478 -24.75262,29.98155 2.13276,23.09889 16.80583,41.84335 28.25604,60.91722 1.28754,7.10301 -2.40297,14.01731 -2.65007,21.06876 -7.46527,41.39914 -18.85432,82.57556 -36.37607,120.56383 -21.68106,10.13174 -46.23508,20.13694 -58.91392,41.97344 -8.04842,15.15075 3.28402,35.59834 19.91895,37.1959 15.43284,2.14265 26.88769,-11.28161 35.3241,-22.5292 8.80824,-12.09858 14.60494,-26.50506 21.93396,-39.50734 44.35289,-18.13147 91.0152,-30.80321 138.64751,-35.61474 19.2596,13.99155 39.66472,30.49846 64.36193,31.49592 14.3555,-0.21684 25.97199,-14.36194 24.3993,-28.72857 -0.92495,-13.08077 -12.37287,-22.25377 -24.23302,-24.70818 -19.12797,-5.84886 -39.61855,-2.64547 -59.07562,-2.50363 -37.44301,-30.36952 -72.00845,-65.31147 -99.2357,-105.29115 2.02078,-24.30615 6.07849,-51.19217 -6.39021,-73.30411 -4.73434,-6.97411 -12.75967,-11.756341 -21.2157,-11.00384 m 0.71362,22.07446 c 4.21589,0.82515 4.49647,7.19912 5.67661,10.60765 1.11085,6.94711 0.98958,14.0361 0.90876,21.05235 -5.02072,-9.52577 -11.5426,-19.47703 -10.38095,-30.76802 1.32331,-0.0528 2.49537,-0.73374 3.79558,-0.88963 m 23.23299,94.78901 c 22.31618,28.16591 47.1046,54.10485 74.15628,77.61748 -35.67053,5.52182 -71.10778,14.77217 -105.0451,27.2517 13.01605,-34.53053 22.92586,-70.20504 29.45583,-106.61564 0.47572,0.58251 0.95148,1.16391 1.42722,1.74646 m 139.20181,94.6835 c 8.65235,0.84741 18.6372,0.33871 25.56554,6.3915 0.65011,5.46325 -5.93411,6.26029 -9.43986,4.28294 -7.31515,-2.47904 -14.55181,-5.59569 -20.76191,-10.3451 1.54733,-0.0973 3.08891,-0.29887 4.64199,-0.32934 m -216.22178,57.45709 c -4.11426,7.76763 -10.10381,15.09101 -16.34971,20.59174 -2.07849,3.41554 -7.78282,-2.89984 -5.15812,-5.56755 5.4191,-8.61036 14.88089,-13.17459 23.25608,-18.31782 -0.58429,1.09824 -1.16626,2.19653 -1.75171,3.29482" />
  </g>
</svg>
