<?xml version="1.0" encoding="UTF-8" standalone="no"?>
<!-- Generator: Adobe Illustrator 19.0.0, SVG Export Plug-In . SVG Version: 6.00 Build 0)  -->

<svg
   xmlns:dc="http://purl.org/dc/elements/1.1/"
   xmlns:cc="http://creativecommons.org/ns#"
   xmlns:rdf="http://www.w3.org/1999/02/22-rdf-syntax-ns#"
   xmlns:svg="http://www.w3.org/2000/svg"
   xmlns="http://www.w3.org/2000/svg"
   xmlns:sodipodi="http://sodipodi.sourceforge.net/DTD/sodipodi-0.dtd"
   xmlns:inkscape="http://www.inkscape.org/namespaces/inkscape"
   version="1.1"
   id="Layer_1"
   x="0px"
   y="0px"
   viewBox="0 0 512 512"
   xml:space="preserve"
   inkscape:version="0.92.3 (2405546, 2018-03-11)"
   width="512"
   height="512"
   sodipodi:docname="gtk.svg"><metadata
     id="metadata57"><rdf:RDF><cc:Work
         rdf:about=""><dc:format>image/svg+xml</dc:format><dc:type
           rdf:resource="http://purl.org/dc/dcmitype/StillImage" /><dc:title></dc:title></cc:Work></rdf:RDF></metadata><defs
     id="defs55" /><sodipodi:namedview
     pagecolor="#ffffff"
     bordercolor="#666666"
     borderopacity="1"
     objecttolerance="10"
     gridtolerance="10"
     guidetolerance="10"
     inkscape:pageopacity="0"
     inkscape:pageshadow="2"
     inkscape:window-width="1366"
     inkscape:window-height="720"
     id="namedview53"
     showgrid="false"
     inkscape:zoom="0.37165185"
     inkscape:cx="164.36255"
     inkscape:cy="308.36368"
     inkscape:window-x="0"
     inkscape:window-y="23"
     inkscape:window-maximized="1"
     inkscape:current-layer="Layer_1"
     units="px" /><g
     id="g23"
     transform="translate(0,550.767)" /><g
     id="g25"
     transform="translate(0,550.767)" /><g
     id="g27"
     transform="translate(0,550.767)" /><g
     id="g29"
     transform="translate(0,550.767)" /><g
     id="g31"
     transform="translate(0,550.767)" /><g
     id="g33"
     transform="translate(0,550.767)" /><g
     id="g35"
     transform="translate(0,550.767)" /><g
     id="g37"
     transform="translate(0,550.767)" /><g
     id="g39"
     transform="translate(0,550.767)" /><g
     id="g41"
     transform="translate(0,550.767)" /><g
     id="g43"
     transform="translate(0,550.767)" /><g
     id="g45"
     transform="translate(0,550.767)" /><g
     id="g47"
     transform="translate(0,550.767)" /><g
     id="g49"
     transform="translate(0,550.767)" /><g
     id="g51"
     transform="translate(0,550.767)" /><g
     id="g862"><path
       style="fill:#3689e6;fill-opacity:1;stroke-width:11.10955811"
       inkscape:connector-curvature="0"
       d="M 432.91327,56.473979 C 535.10618,145.04857 538.74005,306.17369 441.03007,416.37277 343.3201,526.57182 181.27964,544.10062 79.086729,455.52603 -23.106186,366.95144 -26.740042,205.82632 70.969928,95.627239 168.6799,-14.571841 330.72036,-32.100611 432.91327,56.473979 Z"
       id="path27" /><path
       style="opacity:1;fill:#000000;fill-opacity:0.49019608;stroke-width:11.10955811"
       inkscape:connector-curvature="0"
       d="M 511.63551,224.90353 C 510.08412,286.21518 486.47428,349.05814 440.66913,400.718 342.95915,510.91712 180.91869,528.44582 78.725776,439.8713 30.827124,398.35565 4.4968216,340.92285 0.19382772,280.22882 0.79907938,346.58549 27.117411,410.48219 79.078682,455.51908 181.27159,544.09362 343.31975,526.55622 441.02202,416.36578 490.72697,360.30767 514.02704,291.07482 511.63551,224.90353 Z"
       id="path51" /><path
       style="fill:#000000;fill-opacity:0.49019608;stroke-width:1.20464599"
       d="m 249.45069,426.17381 c -5.24418,-3.20439 -28.23703,-18.31469 -51.09518,-33.57843 -40.45185,-27.01206 -60.58614,-39.50829 -65.79996,-40.83831 -1.40582,-0.35862 -3.14779,-1.83041 -3.87103,-3.27065 -3.06451,-6.10251 -3.74933,-142.71467 -0.77299,-154.19749 2.10123,-8.10659 9.14665,-12.14587 63.81842,-36.58835 51.30304,-22.93638 89.21396,-37.70627 96.76883,-37.70058 5.16223,0.003 51.90118,22.6617 91.49192,44.35289 26.90692,14.74189 35.14151,19.8887 41.66649,26.04255 4.12527,3.89065 4.31791,4.41446 3.64827,9.92048 -1.22811,10.09787 -6.38488,42.91111 -13.69236,87.12656 -3.88727,23.5207 -7.42081,46.01747 -7.85233,49.9928 -1.36408,12.56662 -1.47458,12.69183 -22.73845,25.76879 C 352.27481,380.88337 262.49414,432 260.18995,432 c -0.6624,0 -5.49508,-2.62178 -10.73926,-5.82619 z m 10.15711,-90.54549 c 0.60162,-32.13394 0.69299,-58.96743 0.20304,-59.62998 -0.48996,-0.66256 -1.25445,-2.72534 -1.69889,-4.58393 -1.34464,-5.62316 -27.08478,-21.74437 -75.40482,-47.22653 -13.57577,-7.15934 -29.02535,-15.58958 -34.33241,-18.73388 -9.39177,-5.56437 -9.67572,-5.64769 -10.64362,-3.12334 -1.34488,3.50763 -1.50009,54.33431 -0.30843,101.00476 l 0.97483,38.17891 10.2491,5.75229 c 5.637,3.16377 32.27326,20.50688 59.19166,38.54026 l 48.94258,32.78796 0.86655,-12.27059 c 0.47659,-6.74883 1.35878,-38.56199 1.96041,-70.69593 z m -66.17929,13.34862 -8.92643,-4.72107 v -8.8312 c 0,-4.85716 0.45047,-18.69259 1.00105,-30.74541 l 1.00106,-21.91421 -11.54172,-5.7312 -11.5417,-5.7312 0.0288,-6.68701 c 0.0277,-6.45194 1.51241,-15.25524 2.78792,-16.53076 0.33993,-0.33993 9.46736,3.53052 20.28316,8.60098 10.81582,5.07046 26.90966,12.55405 35.76412,16.63019 l 16.099,7.41116 -0.72929,6.06808 c -0.40111,3.33745 -0.73401,8.37197 -0.73978,11.18783 -0.0132,6.40778 -0.84196,6.45955 -14.46622,0.90349 -11.88465,-4.84664 -11.56926,-4.78808 -12.51499,-2.32355 -1.37749,3.58969 -4.35005,31.18599 -4.35005,40.38451 0,9.87978 -0.97095,16.75043 -2.36713,16.75043 -0.47374,0 -4.87822,-2.12447 -9.78775,-4.72106 z m 120.87619,40.7892 c 23.35396,-13.33102 50.39284,-29.10663 60.08638,-35.05689 l 17.62464,-10.81868 0.7848,-6.23926 c 0.43165,-3.43159 5.08134,-32.53066 10.33267,-64.66459 5.25132,-32.13393 9.91341,-61.28514 10.36018,-64.78047 l 0.81232,-6.35512 -3.09001,1.17482 c -9.62982,3.66125 -29.6834,12.67356 -60.56149,27.21705 -19.16513,9.02671 -44.15191,20.78275 -55.52619,26.12454 l -20.68048,9.71232 -0.69181,6.76621 c -0.84545,8.26905 -4.01471,87.20891 -4.78532,119.19294 -0.47745,19.81589 -0.30535,23.18483 1.15578,22.62415 0.94422,-0.36233 20.82455,-11.56597 44.17853,-24.89701 z m -20.2995,-45.94111 c 0.94891,-25.49871 2.60652,-48.91421 4.51789,-63.82037 l 1.33991,-10.44942 5.94174,-0.8172 c 3.26796,-0.44946 6.14522,-0.61371 6.39392,-0.36501 0.2487,0.24868 0.83734,10.06195 1.30809,21.80726 0.47075,11.74531 1.25835,21.35511 1.75024,21.35511 1.45475,0 13.3786,-13.33876 29.96372,-33.51929 21.01204,-25.56714 20.92896,-25.49672 34.53442,-29.26578 l 11.38916,-3.15511 -3.30961,4.35975 c -1.82028,2.39785 -12.42639,15.93931 -23.56914,30.09212 -11.14273,14.15281 -20.07794,26.27717 -19.85599,26.94303 0.22196,0.66585 7.97187,4.57014 17.22204,8.67621 9.25018,4.10606 18.6886,8.44987 20.97429,9.65291 l 4.15578,2.18735 -2.90603,2.35318 c -1.59834,1.29425 -5.23303,3.71687 -8.07711,5.38361 l -5.17105,3.03044 -17.77419,-8.45507 c -9.77581,-4.65029 -19.24893,-8.82521 -21.05138,-9.27759 -2.37204,-0.59535 -5.39412,0.16809 -10.94178,2.76417 l -7.66459,3.58669 -0.83879,14.84217 c -0.46134,8.16321 -1.45893,15.5894 -2.21687,16.50266 -1.73205,2.087 -8.87393,5.69666 -13.45351,6.79971 l -3.48174,0.83862 z m -16.37819,-91.17975 c 4.43594,-1.91203 26.49642,-12.26391 49.0233,-23.00417 38.6532,-18.42889 57.86953,-27.39776 73.7249,-34.40976 l 6.87232,-3.03926 -7.01061,-4.22314 c -25.93355,-15.62218 -107.2457,-57.13046 -111.91503,-57.13046 -4.14704,0 -16.51675,4.46644 -44.18983,15.95599 -40.71956,16.90631 -97.57633,42.62443 -97.57633,44.13687 0,0.93024 7.60328,5.58291 23.4906,14.3746 10.40698,5.75899 98.1364,50.69357 99.14816,50.7832 0.20196,0.0178 3.9966,-1.53186 8.43252,-3.44387 z m -16.02758,-19.83613 c -15.9481,-3.3602 -38.32312,-14.12809 -43.83822,-21.09695 -13.99762,-17.68736 -7.33579,-41.50526 13.34911,-47.72684 14.71128,-4.42482 50.6365,-7.52675 64.25969,-5.54843 18.42482,2.67561 32.8536,9.27288 35.66781,16.30842 0.80886,2.02216 2.99855,5.45732 4.86597,7.63368 1.86741,2.17635 3.3953,5.02232 3.3953,6.32439 0,2.06159 -0.81687,2.35841 -6.32439,2.29795 -11.71089,-0.12855 -15.15676,-1.29602 -17.47687,-5.92123 -2.61408,-5.21128 -10.82107,-11.53903 -17.50852,-13.49945 -7.47495,-2.19125 -34.50582,-1.85866 -45.25135,0.55679 -13.76902,3.09508 -17.22957,5.23648 -19.80733,12.25685 -2.90577,7.91367 -3.08164,19.19988 -0.34628,22.22243 3.03689,3.35571 14.50237,9.14562 25.25695,12.75438 8.59319,2.88349 10.05142,3.05147 15.38439,1.77211 8.65112,-2.07537 9.28501,-4.36589 3.37643,-12.20034 -3.59306,-4.76421 -4.75894,-7.36339 -4.50436,-10.04192 0.32883,-3.45984 0.57464,-3.60634 5.76439,-3.43582 6.11942,0.20108 20.98155,5.07252 27.19916,8.91521 8.19684,5.06593 7.07634,12.52941 -2.8369,18.89604 -14.67958,9.42776 -27.19018,12.36338 -40.62498,9.53273 z"
       id="path856"
       inkscape:connector-curvature="0" /><path
       inkscape:connector-curvature="0"
       id="path3393"
       d="m 229.45069,406.17381 c -5.24418,-3.20439 -28.23703,-18.31469 -51.09518,-33.57843 -40.45185,-27.01206 -60.58614,-39.50829 -65.79996,-40.83831 -1.40582,-0.35862 -3.14779,-1.83041 -3.87103,-3.27065 -3.06451,-6.10251 -3.74933,-142.71467 -0.77299,-154.19749 2.10123,-8.10659 9.14665,-12.14587 63.81842,-36.58835 C 223.03299,114.7642 260.94391,99.99431 268.49878,100 c 5.16223,0.003 51.90118,22.6617 91.49192,44.35289 26.90692,14.74189 35.14151,19.8887 41.66649,26.04255 4.12527,3.89065 4.31791,4.41446 3.64827,9.92048 -1.22811,10.09787 -6.38488,42.91111 -13.69236,87.12656 -3.88727,23.5207 -7.42081,46.01747 -7.85233,49.9928 -1.36408,12.56662 -1.47458,12.69183 -22.73845,25.76879 C 332.27481,360.88337 242.49414,412 240.18995,412 c -0.6624,0 -5.49508,-2.62178 -10.73926,-5.82619 z m 10.15711,-90.54549 c 0.60162,-32.13394 0.69299,-58.96743 0.20304,-59.62998 -0.48996,-0.66256 -1.25445,-2.72534 -1.69889,-4.58393 -1.34464,-5.62316 -27.08478,-21.74437 -75.40482,-47.22653 -13.57577,-7.15934 -29.02535,-15.58958 -34.33241,-18.73388 -9.39177,-5.56437 -9.67572,-5.64769 -10.64362,-3.12334 -1.34488,3.50763 -1.50009,54.33431 -0.30843,101.00476 l 0.97483,38.17891 10.2491,5.75229 c 5.637,3.16377 32.27326,20.50688 59.19166,38.54026 l 48.94258,32.78796 0.86655,-12.27059 c 0.47659,-6.74883 1.35878,-38.56199 1.96041,-70.69593 z m -66.17929,13.34862 -8.92643,-4.72107 v -8.8312 c 0,-4.85716 0.45047,-18.69259 1.00105,-30.74541 l 1.00106,-21.91421 -11.54172,-5.7312 -11.5417,-5.7312 0.0288,-6.68701 c 0.0277,-6.45194 1.51241,-15.25524 2.78792,-16.53076 0.33993,-0.33993 9.46736,3.53052 20.28316,8.60098 10.81582,5.07046 26.90966,12.55405 35.76412,16.63019 l 16.099,7.41116 -0.72929,6.06808 c -0.40111,3.33745 -0.73401,8.37197 -0.73978,11.18783 -0.0132,6.40778 -0.84196,6.45955 -14.46622,0.90349 -11.88465,-4.84664 -11.56926,-4.78808 -12.51499,-2.32355 -1.37749,3.58969 -4.35005,31.18599 -4.35005,40.38451 0,9.87978 -0.97095,16.75043 -2.36713,16.75043 -0.47374,0 -4.87822,-2.12447 -9.78775,-4.72106 z m 120.87619,40.7892 c 23.35396,-13.33102 50.39284,-29.10663 60.08638,-35.05689 l 17.62464,-10.81868 0.7848,-6.23926 c 0.43165,-3.43159 5.08134,-32.53066 10.33267,-64.66459 5.25132,-32.13393 9.91341,-61.28514 10.36018,-64.78047 l 0.81232,-6.35512 -3.09001,1.17482 c -9.62982,3.66125 -29.6834,12.67356 -60.56149,27.21705 -19.16513,9.02671 -44.15191,20.78275 -55.52619,26.12454 l -20.68048,9.71232 -0.69181,6.76621 c -0.84545,8.26905 -4.01471,87.20891 -4.78532,119.19294 -0.47745,19.81589 -0.30535,23.18483 1.15578,22.62415 0.94422,-0.36233 20.82455,-11.56597 44.17853,-24.89701 z m -20.2995,-45.94111 c 0.94891,-25.49871 2.60652,-48.91421 4.51789,-63.82037 l 1.33991,-10.44942 5.94174,-0.8172 c 3.26796,-0.44946 6.14522,-0.61371 6.39392,-0.36501 0.2487,0.24868 0.83734,10.06195 1.30809,21.80726 0.47075,11.74531 1.25835,21.35511 1.75024,21.35511 1.45475,0 13.3786,-13.33876 29.96372,-33.51929 21.01204,-25.56714 20.92896,-25.49672 34.53442,-29.26578 l 11.38916,-3.15511 -3.30961,4.35975 c -1.82028,2.39785 -12.42639,15.93931 -23.56914,30.09212 -11.14273,14.15281 -20.07794,26.27717 -19.85599,26.94303 0.22196,0.66585 7.97187,4.57014 17.22204,8.67621 9.25018,4.10606 18.6886,8.44987 20.97429,9.65291 l 4.15578,2.18735 -2.90603,2.35318 c -1.59834,1.29425 -5.23303,3.71687 -8.07711,5.38361 l -5.17105,3.03044 -17.77419,-8.45507 c -9.77581,-4.65029 -19.24893,-8.82521 -21.05138,-9.27759 -2.37204,-0.59535 -5.39412,0.16809 -10.94178,2.76417 l -7.66459,3.58669 -0.83879,14.84217 c -0.46134,8.16321 -1.45893,15.5894 -2.21687,16.50266 -1.73205,2.087 -8.87393,5.69666 -13.45351,6.79971 l -3.48174,0.83862 z m -16.37819,-91.17975 c 4.43594,-1.91203 26.49642,-12.26391 49.0233,-23.00417 38.6532,-18.42889 57.86953,-27.39776 73.7249,-34.40976 l 6.87232,-3.03926 -7.01061,-4.22314 c -25.93355,-15.62218 -107.2457,-57.13046 -111.91503,-57.13046 -4.14704,0 -16.51675,4.46644 -44.18983,15.95599 -40.71956,16.90631 -97.57633,42.62443 -97.57633,44.13687 0,0.93024 7.60328,5.58291 23.4906,14.3746 10.40698,5.75899 98.1364,50.69357 99.14816,50.7832 0.20196,0.0178 3.9966,-1.53186 8.43252,-3.44387 z m -16.02758,-19.83613 c -15.9481,-3.3602 -38.32312,-14.12809 -43.83822,-21.09695 -13.99762,-17.68736 -7.33579,-41.50526 13.34911,-47.72684 14.71128,-4.42482 50.6365,-7.52675 64.25969,-5.54843 18.42482,2.67561 32.8536,9.27288 35.66781,16.30842 0.80886,2.02216 2.99855,5.45732 4.86597,7.63368 1.86741,2.17635 3.3953,5.02232 3.3953,6.32439 0,2.06159 -0.81687,2.35841 -6.32439,2.29795 -11.71089,-0.12855 -15.15676,-1.29602 -17.47687,-5.92123 -2.61408,-5.21128 -10.82107,-11.53903 -17.50852,-13.49945 -7.47495,-2.19125 -34.50582,-1.85866 -45.25135,0.55679 -13.76902,3.09508 -17.22957,5.23648 -19.80733,12.25685 -2.90577,7.91367 -3.08164,19.19988 -0.34628,22.22243 3.03689,3.35571 14.50237,9.14562 25.25695,12.75438 8.59319,2.88349 10.05142,3.05147 15.38439,1.77211 8.65112,-2.07537 9.28501,-4.36589 3.37643,-12.20034 -3.59306,-4.76421 -4.75894,-7.36339 -4.50436,-10.04192 0.32883,-3.45984 0.57464,-3.60634 5.76439,-3.43582 6.11942,0.20108 20.98155,5.07252 27.19916,8.91521 8.19684,5.06593 7.07634,12.52941 -2.8369,18.89604 -14.67958,9.42776 -27.19018,12.36338 -40.62498,9.53273 z"
       style="fill:#ffffff;fill-opacity:1;stroke-width:1.20464599" /></g></svg>