<?xml version="1.0" encoding="UTF-8" standalone="no"?>
<!-- Creator: CorelDRAW X5 -->

<svg
   xmlns:dc="http://purl.org/dc/elements/1.1/"
   xmlns:cc="http://creativecommons.org/ns#"
   xmlns:rdf="http://www.w3.org/1999/02/22-rdf-syntax-ns#"
   xmlns:svg="http://www.w3.org/2000/svg"
   xmlns="http://www.w3.org/2000/svg"
   xmlns:sodipodi="http://sodipodi.sourceforge.net/DTD/sodipodi-0.dtd"
   xmlns:inkscape="http://www.inkscape.org/namespaces/inkscape"
   style="clip-rule:evenodd;fill-rule:evenodd;image-rendering:optimizeQuality;shape-rendering:geometricPrecision;text-rendering:geometricPrecision"
   xml:space="preserve"
   height="512"
   width="512"
   viewBox="0 0 14912.91 14912.615"
   id="svg2"
   version="1.1"
   inkscape:version="0.92.3 (2405546, 2018-03-11)"
   sodipodi:docname="gtranslator.svg"><metadata
     id="metadata17"><rdf:RDF><cc:Work
         rdf:about=""><dc:format>image/svg+xml</dc:format><dc:type
           rdf:resource="http://purl.org/dc/dcmitype/StillImage" /><dc:title></dc:title></cc:Work></rdf:RDF></metadata><sodipodi:namedview
     pagecolor="#ffffff"
     bordercolor="#666666"
     borderopacity="1"
     objecttolerance="10"
     gridtolerance="10"
     guidetolerance="10"
     inkscape:pageopacity="0"
     inkscape:pageshadow="2"
     inkscape:window-width="1221"
     inkscape:window-height="666"
     id="namedview15"
     showgrid="false"
     inkscape:zoom="0.1767767"
     inkscape:cx="975.28182"
     inkscape:cy="916.27114"
     inkscape:window-x="132"
     inkscape:window-y="45"
     inkscape:window-maximized="0"
     inkscape:current-layer="svg2"
     units="px" /><defs
     id="defs4"><style
       type="text/css"
       id="style6">
    .fil0 {fill:red}
    .fil1 {fill:black;fill-rule:nonzero}
   </style></defs><g
     transform="matrix(29.126778,0,0,29.126778,5.2484601e-7,-0.56089849)"
     id="g902"><path
       id="path27"
       d="M 432.91327,56.473967 C 535.10618,145.04856 538.74005,306.17367 441.03007,416.37276 343.3201,526.57184 181.27964,544.10061 79.086729,455.52602 -23.106186,366.95143 -26.740042,205.82631 70.969928,95.627227 168.6799,-14.571854 330.72036,-32.100623 432.91327,56.473967 Z"
       inkscape:connector-curvature="0"
       style="fill:#3689e6;fill-opacity:1;stroke-width:11.10955811" /><path
       id="path51"
       d="M 511.63551,224.90351 C 510.08412,286.21516 486.47428,349.05812 440.66913,400.71799 342.95915,510.91711 180.91869,528.44584 78.725776,439.87129 30.827124,398.35563 4.4968216,340.92284 0.19382768,280.2288 0.79907934,346.58548 27.117411,410.48217 79.078682,455.51906 181.27159,544.09361 343.31975,526.55619 441.02202,416.36576 490.72697,360.30766 514.02704,291.0748 511.63551,224.90351 Z"
       inkscape:connector-curvature="0"
       style="opacity:1;fill:#000000;fill-opacity:0.49019608;stroke-width:11.10955811" /><g
       style="fill:#000000;fill-opacity:0.49019608"
       transform="translate(19.999768,20.000296)"
       id="g892"><path
         inkscape:connector-curvature="0"
         id="path888"
         d="m 271.20117,100.00977 c -46.00568,-0.507602 -93.53032,19.44103 -127.95312,58.26367 -59.542161,67.15271 -57.328628,165.33722 4.94531,219.3125 62.27394,53.97521 161.01645,43.29333 220.55859,-23.85938 59.54213,-67.15271 57.32862,-165.33725 -4.94531,-219.3125 -26.27181,-22.7708 -59.03376,-34.03394 -92.60547,-34.40429 z m -66.38476,35.25195 h 12.5332 l 33.02734,89.67773 10.07032,2.01758 v 5.72266 h -45.49415 v -5.72266 l 11.95508,-2.01758 -6.89843,-19.03125 h -32.73829 l -7.34375,19.03125 11.89063,2.01758 v 5.72266 h -31.45313 v -5.72266 l 9.36133,-2.01758 z m -0.77735,27.4375 -13.33008,34.42383 h 26.26172 l -12.42187,-34.42383 z m 69.23438,81.73047 c 1.72791,0 4.30367,1.8745 7.72851,5.65039 3.42487,3.65906 5.18179,6.58523 5.29883,8.75195 -1.57993,3.22002 -3.19163,6.46945 -4.80078,9.77735 -1.14103,2.63486 -2.40029,6.41133 -3.77539,11.33007 2.19604,-0.58515 5.50425,-1.43346 9.95312,-2.57617 13.14356,-3.30789 20.75304,-4.97851 22.83204,-4.97851 l -0.002,0.002 c 2.48862,0 4.94686,0.29358 7.37696,0.84961 2.40084,1.02403 3.59961,2.28321 3.59961,3.77539 -0.46813,2.51788 -8.3143,5.50479 -23.50586,8.92969 -9.16279,1.93273 -16.68426,3.36463 -22.65625,4.27148 -1.81571,9.63096 -2.84017,17.38926 -3.07422,23.33203 10.39162,-3.98077 19.848,-6.23691 28.30859,-6.67578 -0.23406,-2.16673 -0.70404,-4.01005 -1.37695,-5.50391 -0.58516,-1.49217 -0.84766,-2.45761 -0.84766,-2.89648 0,-1.72784 0.73076,-2.57813 2.22461,-2.57813 2.04975,0 4.27493,1.43369 6.67578,4.27344 1.25809,1.84486 2.10806,4.0702 2.57617,6.70508 9.71868,0.67302 17.88634,3.36591 24.53125,8.04883 9.60166,6.64493 14.40235,15.04755 14.40235,25.20508 0,11.56352 -7.20211,22.07197 -21.60547,31.58593 -12.70467,8.22647 -26.46254,12.49862 -41.33399,12.84961 12.67544,-4.80159 23.21307,-10.24492 31.55665,-16.30468 12.11952,-8.7825 18.2972,-18.17821 18.53124,-28.13086 0.23407,-8.66553 -2.57665,-15.48722 -8.40234,-20.4043 -4.7122,-3.07373 -10.53716,-4.97569 -17.5039,-5.65039 -1.25809,6.8498 -4.24504,13.87566 -8.92969,21.10742 -4.5659,6.96679 -10.68482,13.64197 -18.35547,20.05274 1.96199,3.3079 4.244,6.11668 6.8789,8.40039 1.46286,1.84502 2.40085,3.4256 2.72266,4.80078 -0.32181,2.28371 -2.72105,3.60002 -7.19922,3.95117 -2.40083,-0.35115 -5.037,-2.51728 -7.875,-6.52734 -0.70216,-0.90702 -1.66967,-2.40117 -2.92773,-4.44922 -9.95275,6.17694 -18.41217,9.19122 -25.37891,9.10351 -10.30383,-0.11699 -15.42773,-5.73623 -15.42773,-16.83008 0,-7.08378 3.54125,-14.40145 10.625,-21.95507 4.44888,-4.80009 10.30505,-9.25203 17.50586,-13.37891 0.2048,-6.6158 1.46232,-15.54306 3.77539,-26.75391 h -2.92774 c -3.10302,0 -6.64423,-0.49748 -10.625,-1.52148 -5.50388,-1.37503 -8.25586,-3.16321 -8.25586,-5.33008 0,-0.70215 1.90375,-1.02344 5.67969,-1.02344 5.03577,0 11.09394,-0.64249 18.17774,-1.90234 l 5.15429,-23.65234 c 0,-3.42489 -0.87749,-6.11806 -2.57617,-8.08008 -1.61087,-1.57986 -2.40234,-2.72363 -2.40234,-3.42578 0,-1.49218 1.87444,-2.22461 5.65039,-2.22461 z m 27.10742,69.46679 c -8.57763,0.67287 -17.21355,2.8704 -25.9082,6.5293 -0.46813,0.117 -1.19887,0.37952 -2.22461,0.84766 0.3511,10.30383 2.40178,19.0865 6.17773,26.40429 0,0.117 0.0568,0.2344 0.17383,0.35157 11.4168,-9.95234 18.67799,-21.34116 21.78125,-34.13282 z"
         style="fill:#000000;fill-opacity:0.49019608;stroke-width:6.76990175" /><path
         sodipodi:nodetypes="czccc"
         inkscape:connector-curvature="0"
         id="path890"
         d="m 263.07692,326.15385 c 0,0 0.65058,12.26581 2.15385,17.23077 1.50327,4.96496 6.15385,12.30769 6.15385,12.30769 -11.6642,3.93388 -23.35183,13.93571 -29.01,2.7351 -4.25271,-12.20943 13.19897,-25.47366 20.7023,-32.27356 z"
         style="fill:#000000;fill-opacity:0.49019608;stroke:none;stroke-width:1px;stroke-linecap:butt;stroke-linejoin:miter;stroke-opacity:1" /></g><g
       id="g886"><path
         inkscape:connector-curvature="0"
         style="fill:#ffffff;fill-opacity:1;stroke-width:6.76990175"
         d="m 271.20117,100.00977 c -46.00568,-0.507602 -93.53032,19.44103 -127.95312,58.26367 -59.542161,67.15271 -57.328628,165.33722 4.94531,219.3125 62.27394,53.97521 161.01645,43.29333 220.55859,-23.85938 59.54213,-67.15271 57.32862,-165.33725 -4.94531,-219.3125 -26.27181,-22.7708 -59.03376,-34.03394 -92.60547,-34.40429 z m -66.38476,35.25195 h 12.5332 l 33.02734,89.67773 10.07032,2.01758 v 5.72266 h -45.49415 v -5.72266 l 11.95508,-2.01758 -6.89843,-19.03125 h -32.73829 l -7.34375,19.03125 11.89063,2.01758 v 5.72266 h -31.45313 v -5.72266 l 9.36133,-2.01758 z m -0.77735,27.4375 -13.33008,34.42383 h 26.26172 l -12.42187,-34.42383 z m 69.23438,81.73047 c 1.72791,0 4.30367,1.8745 7.72851,5.65039 3.42487,3.65906 5.18179,6.58523 5.29883,8.75195 -1.57993,3.22002 -3.19163,6.46945 -4.80078,9.77735 -1.14103,2.63486 -2.40029,6.41133 -3.77539,11.33007 2.19604,-0.58515 5.50425,-1.43346 9.95312,-2.57617 13.14356,-3.30789 20.75304,-4.97851 22.83204,-4.97851 l -0.002,0.002 c 2.48862,0 4.94686,0.29358 7.37696,0.84961 2.40084,1.02403 3.59961,2.28321 3.59961,3.77539 -0.46813,2.51788 -8.3143,5.50479 -23.50586,8.92969 -9.16279,1.93273 -16.68426,3.36463 -22.65625,4.27148 -1.81571,9.63096 -2.84017,17.38926 -3.07422,23.33203 10.39162,-3.98077 19.848,-6.23691 28.30859,-6.67578 -0.23406,-2.16673 -0.70404,-4.01005 -1.37695,-5.50391 -0.58516,-1.49217 -0.84766,-2.45761 -0.84766,-2.89648 0,-1.72784 0.73076,-2.57813 2.22461,-2.57813 2.04975,0 4.27493,1.43369 6.67578,4.27344 1.25809,1.84486 2.10806,4.0702 2.57617,6.70508 9.71868,0.67302 17.88634,3.36591 24.53125,8.04883 9.60166,6.64493 14.40235,15.04755 14.40235,25.20508 0,11.56352 -7.20211,22.07197 -21.60547,31.58593 -12.70467,8.22647 -26.46254,12.49862 -41.33399,12.84961 12.67544,-4.80159 23.21307,-10.24492 31.55665,-16.30468 12.11952,-8.7825 18.2972,-18.17821 18.53124,-28.13086 0.23407,-8.66553 -2.57665,-15.48722 -8.40234,-20.4043 -4.7122,-3.07373 -10.53716,-4.97569 -17.5039,-5.65039 -1.25809,6.8498 -4.24504,13.87566 -8.92969,21.10742 -4.5659,6.96679 -10.68482,13.64197 -18.35547,20.05274 1.96199,3.3079 4.244,6.11668 6.8789,8.40039 1.46286,1.84502 2.40085,3.4256 2.72266,4.80078 -0.32181,2.28371 -2.72105,3.60002 -7.19922,3.95117 -2.40083,-0.35115 -5.037,-2.51728 -7.875,-6.52734 -0.70216,-0.90702 -1.66967,-2.40117 -2.92773,-4.44922 -9.95275,6.17694 -18.41217,9.19122 -25.37891,9.10351 -10.30383,-0.11699 -15.42773,-5.73623 -15.42773,-16.83008 0,-7.08378 3.54125,-14.40145 10.625,-21.95507 4.44888,-4.80009 10.30505,-9.25203 17.50586,-13.37891 0.2048,-6.6158 1.46232,-15.54306 3.77539,-26.75391 h -2.92774 c -3.10302,0 -6.64423,-0.49748 -10.625,-1.52148 -5.50388,-1.37503 -8.25586,-3.16321 -8.25586,-5.33008 0,-0.70215 1.90375,-1.02344 5.67969,-1.02344 5.03577,0 11.09394,-0.64249 18.17774,-1.90234 l 5.15429,-23.65234 c 0,-3.42489 -0.87749,-6.11806 -2.57617,-8.08008 -1.61087,-1.57986 -2.40234,-2.72363 -2.40234,-3.42578 0,-1.49218 1.87444,-2.22461 5.65039,-2.22461 z m 27.10742,69.46679 c -8.57763,0.67287 -17.21355,2.8704 -25.9082,6.5293 -0.46813,0.117 -1.19887,0.37952 -2.22461,0.84766 0.3511,10.30383 2.40178,19.0865 6.17773,26.40429 0,0.117 0.0568,0.2344 0.17383,0.35157 11.4168,-9.95234 18.67799,-21.34116 21.78125,-34.13282 z"
         id="path833" /><path
         style="fill:#ffffff;fill-opacity:1;stroke:none;stroke-width:1px;stroke-linecap:butt;stroke-linejoin:miter;stroke-opacity:1"
         d="m 263.07692,326.15385 c 0,0 0.65058,12.26581 2.15385,17.23077 1.50327,4.96496 6.15385,12.30769 6.15385,12.30769 -11.6642,3.93388 -23.35183,13.93571 -29.01,2.7351 -4.25271,-12.20943 13.19897,-25.47366 20.7023,-32.27356 z"
         id="path882"
         inkscape:connector-curvature="0"
         sodipodi:nodetypes="czccc" /></g></g></svg>