<?xml version="1.0" encoding="UTF-8" standalone="no"?>
<!-- Created with Inkscape (http://www.inkscape.org/) -->

<svg
   xmlns:dc="http://purl.org/dc/elements/1.1/"
   xmlns:cc="http://creativecommons.org/ns#"
   xmlns:rdf="http://www.w3.org/1999/02/22-rdf-syntax-ns#"
   xmlns:svg="http://www.w3.org/2000/svg"
   xmlns="http://www.w3.org/2000/svg"
   xmlns:sodipodi="http://sodipodi.sourceforge.net/DTD/sodipodi-0.dtd"
   xmlns:inkscape="http://www.inkscape.org/namespaces/inkscape"
   version="1.1"
   width="100%"
   height="100%"
   viewBox="0 0 512 512"
   id="svg2"
   inkscape:version="0.92.3 (2405546, 2018-03-11)"
   sodipodi:docname="gvbam.svg">
  <sodipodi:namedview
     pagecolor="#ffffff"
     bordercolor="#666666"
     borderopacity="1"
     objecttolerance="10"
     gridtolerance="10"
     guidetolerance="10"
     inkscape:pageopacity="0"
     inkscape:pageshadow="2"
     inkscape:window-width="1366"
     inkscape:window-height="720"
     id="namedview42"
     showgrid="false"
     inkscape:zoom="0.4609375"
     inkscape:cx="232.97351"
     inkscape:cy="243.76197"
     inkscape:window-x="0"
     inkscape:window-y="23"
     inkscape:window-maximized="1"
     inkscape:current-layer="svg2" />
  <metadata
     id="metadata70">
    <rdf:RDF>
      <cc:Work
         rdf:about="">
        <dc:format>image/svg+xml</dc:format>
        <dc:type
           rdf:resource="http://purl.org/dc/dcmitype/StillImage" />
        <dc:title />
      </cc:Work>
    </rdf:RDF>
  </metadata>
  <defs
     id="defs68">
    <filter
       color-interpolation-filters="sRGB"
       id="filter3174">
      <feGaussianBlur
         stdDeviation="1.71"
         id="feGaussianBlur3176" />
    </filter>
    <linearGradient
       x1="45.447727"
       y1="92.539597"
       x2="45.447727"
       y2="7.0165396"
       id="ButtonShadow"
       gradientUnits="userSpaceOnUse"
       gradientTransform="scale(1.0058652,0.994169)">
      <stop
         id="stop3750"
         style="stop-color:#000000;stop-opacity:1"
         offset="0" />
      <stop
         id="stop3752"
         style="stop-color:#000000;stop-opacity:0.58823532"
         offset="1" />
    </linearGradient>
  </defs>
  <text
     x="729.64001"
     y="231.35997"
     id="text20"
     style="font-size:129.22999573px;line-height:0%;font-family:'Gentium Book Basic';letter-spacing:0;word-spacing:0">
    <tspan
       x="729.64001"
       y="231.35997"
       id="tspan22" />
  </text>
  <text
     x="378.90805"
     y="579.25812"
     transform="scale(4.0128205,0.24920128)"
     id="text24"
     style="font-size:46.95375824px;font-family:Arial;text-anchor:middle" />
  <text
     x="1310.91"
     y="151.35997"
     id="text26"
     style="font-size:129.22999573px;line-height:0%;font-family:'Gentium Book Basic';letter-spacing:0;word-spacing:0">
    <tspan
       x="1310.91"
       y="151.35997"
       id="tspan28" />
  </text>
  <text
     x="523.75732"
     y="258.21997"
     transform="scale(4.0128205,0.24920128)"
     id="text30"
     style="font-size:46.95375824px;font-family:Arial;text-anchor:middle" />
  <text
     x="239.33"
     y="-29.900009"
     id="text32"
     style="font-size:129.22999573px;line-height:0%;font-family:'Gentium Book Basic';letter-spacing:0;word-spacing:0">
    <tspan
       x="239.33"
       y="-29.900009"
       id="tspan34" />
  </text>
  <text
     x="256.71869"
     y="-469.1264"
     transform="scale(4.0128205,0.24920128)"
     id="text36"
     style="font-size:46.95375824px;font-family:Arial;text-anchor:middle" />
  <text
     x="1337.38"
     y="-246.37001"
     id="text38"
     style="font-size:129.22999573px;line-height:0%;font-family:'Gentium Book Basic';letter-spacing:0;word-spacing:0">
    <tspan
       x="1337.38"
       y="-246.37001"
       id="tspan40" />
  </text>
  <text
     x="530.3573"
     y="-1337.802"
     transform="scale(4.0128205,0.24920128)"
     id="text42"
     style="font-size:46.95375824px;font-family:Arial;text-anchor:middle" />
  <text
     x="1918.65"
     y="-326.37"
     id="text44"
     style="font-size:129.22999573px;line-height:0%;font-family:'Gentium Book Basic';letter-spacing:0;word-spacing:0">
    <tspan
       x="1918.65"
       y="-326.37"
       id="tspan46" />
  </text>
  <text
     x="675.20654"
     y="-1658.8303"
     transform="scale(4.0128205,0.24920128)"
     id="text48"
     style="font-size:46.95375824px;font-family:Arial;text-anchor:middle" />
  <text
     x="1529.53"
     y="-798.77002"
     id="text50"
     style="font-size:129.22999573px;line-height:0%;font-family:'Gentium Book Basic';letter-spacing:0;word-spacing:0">
    <tspan
       x="1529.53"
       y="-798.77002"
       id="tspan52" />
  </text>
  <text
     x="578.237"
     y="-3554.4807"
     transform="scale(4.0128205,0.24920128)"
     id="text54"
     style="font-size:46.95375824px;font-family:Arial;text-anchor:middle" />
  <text
     x="2110.79"
     y="-878.78003"
     id="text56"
     style="font-size:129.22999573px;line-height:0%;font-family:'Gentium Book Basic';letter-spacing:0;word-spacing:0">
    <tspan
       x="2110.79"
       y="-878.78003"
       id="tspan58" />
  </text>
  <text
     x="723.0863"
     y="-3875.519"
     transform="scale(4.0128205,0.24920128)"
     id="text60"
     style="font-size:46.95375824px;font-family:Arial;text-anchor:middle" />
  <text
     x="277.98999"
     y="535.94006"
     id="text62"
     style="font-size:208.33000183px;line-height:0%;font-family:'Gentium Book Basic';letter-spacing:0;word-spacing:0">
    <tspan
       x="277.98999"
       y="535.94006"
       id="tspan64" />
  </text>
  <g
     transform="matrix(2.2712069,0,0,2.2712069,37.572877,-373.38174)"
     id="layer2"
     style="display:none">
    <rect
       width="86"
       height="85"
       rx="6"
       ry="6"
       x="5"
       y="7"
       id="rect3745"
       style="opacity:0.9;fill:url(#ButtonShadow);fill-opacity:1;fill-rule:nonzero;stroke:none;filter:url(#filter3174)" />
  </g>
  <g
     id="g870">
    <path
       style="fill:#a56de2;fill-opacity:1;stroke-width:11.10955811"
       inkscape:connector-curvature="0"
       d="M 432.91327,56.473984 C 535.10618,145.04857 538.74005,306.17368 441.03007,416.37277 343.3201,526.57187 181.27964,544.10057 79.086729,455.52603 -23.106186,366.95144 -26.740042,205.82632 70.969928,95.627244 168.6799,-14.571836 330.72036,-32.100606 432.91327,56.473984 Z"
       id="path27" />
    <path
       style="opacity:1;fill:#000000;fill-opacity:0.49019608;stroke-width:11.10955811"
       inkscape:connector-curvature="0"
       d="M 511.63551,224.90352 C 510.08412,286.21517 486.47428,349.05813 440.66913,400.718 342.95915,510.91707 180.91869,528.44587 78.725776,439.8713 30.827124,398.35564 4.4968216,340.92285 0.19382774,280.22881 0.7990794,346.58549 27.117411,410.48218 79.078682,455.51907 c 102.192908,88.5746 264.241068,71.0371 361.943338,-39.1533 49.70495,-56.0581 73.00502,-125.29096 70.61349,-191.46225 z"
       id="path51" />
    <path
       style="fill:#000000;fill-opacity:0.49019608;stroke-width:0.65354145"
       d="m 266.85213,431.69948 c -21.55865,-1.21268 -41.38787,-6.58882 -61.01802,-16.54334 -46.58442,-23.62315 -78.0632,-68.12301 -84.83955,-119.93316 -1.17618,-8.9927 -1.34294,-27.96042 -0.31895,-36.27654 5.74913,-46.69019 30.18991,-86.74421 68.738,-112.64913 22.97542,-15.43986 49.75359,-24.42823 77.55798,-26.03316 77.08635,-4.4496 145.2957,47.75305 161.96578,123.95727 4.08299,18.66443 4.08403,45.00482 0,63.48118 -6.51497,29.49269 -20.10647,55.05478 -40.67029,76.4904 -18.8597,19.65919 -44.3804,34.86998 -70.86036,42.23397 -9.20332,2.55942 -20.88073,4.54981 -29.25728,4.98688 -3.6385,0.18984 -8.0839,0.43502 -9.87866,0.54484 -1.79475,0.10982 -6.93429,-0.007 -11.42118,-0.25921 z m -36.94854,-84.38386 c 21.40842,-5.49051 35.64326,-23.88418 35.64326,-46.05673 0,-10.44311 -2.76405,-19.12463 -8.78098,-27.57994 -8.85129,-12.4383 -22.45307,-19.31362 -38.20903,-19.31362 -15.75596,0 -29.35774,6.87532 -38.20902,19.31362 -6.01694,8.45531 -8.78099,17.13683 -8.78099,27.57994 0,22.01579 14.1762,40.45363 35.38837,46.02676 6.53278,1.71638 16.32296,1.72916 22.94839,0.03 z m 114.86447,-52.35561 c 21.40839,-5.49051 35.64325,-23.88418 35.64325,-46.05673 0,-10.44311 -2.76403,-19.12463 -8.78096,-27.57994 -8.85131,-12.4383 -22.45308,-19.31362 -38.20904,-19.31362 -15.75596,0 -29.35773,6.87532 -38.20902,19.31362 -6.01694,8.45531 -8.78099,17.13683 -8.78099,27.57994 0,22.0158 14.17621,40.45362 35.38838,46.02676 6.53277,1.71638 16.32295,1.72916 22.94838,0.03 z"
       id="path864"
       inkscape:connector-curvature="0" />
    <path
       inkscape:connector-curvature="0"
       id="path4487"
       d="m 246.85213,411.69948 c -21.55865,-1.21268 -41.38787,-6.58882 -61.01802,-16.54334 -46.58442,-23.62315 -78.0632,-68.12301 -84.83955,-119.93316 -1.176179,-8.9927 -1.342939,-27.96042 -0.31895,-36.27654 5.74913,-46.69019 30.18991,-86.74421 68.738,-112.64913 22.97542,-15.43986 49.75359,-24.42823 77.55798,-26.03316 77.08635,-4.449594 145.2957,47.75305 161.96578,123.95727 4.08299,18.66443 4.08403,45.00482 0,63.48118 -6.51497,29.49269 -20.10647,55.05478 -40.67029,76.4904 -18.8597,19.65919 -44.3804,34.86998 -70.86036,42.23397 -9.20332,2.55942 -20.88073,4.54981 -29.25728,4.98688 -3.6385,0.18984 -8.0839,0.43502 -9.87866,0.54484 -1.79475,0.10982 -6.93429,-0.007 -11.42118,-0.25921 z m -36.94854,-84.38386 c 21.40842,-5.49051 35.64326,-23.88418 35.64326,-46.05673 0,-10.44311 -2.76405,-19.12463 -8.78098,-27.57994 -8.85129,-12.4383 -22.45307,-19.31362 -38.20903,-19.31362 -15.75596,0 -29.35774,6.87532 -38.20902,19.31362 -6.01694,8.45531 -8.78099,17.13683 -8.78099,27.57994 0,22.01579 14.1762,40.45363 35.38837,46.02676 6.53278,1.71638 16.32296,1.72916 22.94839,0.03 z m 114.86447,-52.35561 c 21.40839,-5.49051 35.64325,-23.88418 35.64325,-46.05673 0,-10.44311 -2.76403,-19.12463 -8.78096,-27.57994 -8.85131,-12.4383 -22.45308,-19.31362 -38.20904,-19.31362 -15.75596,0 -29.35773,6.87532 -38.20902,19.31362 -6.01694,8.45531 -8.78099,17.13683 -8.78099,27.57994 0,22.0158 14.17621,40.45362 35.38838,46.02676 6.53277,1.71638 16.32295,1.72916 22.94838,0.03 z"
       style="fill:#ffffff;fill-opacity:1;stroke-width:0.65354145" />
  </g>
</svg>
