<?xml version="1.0" encoding="UTF-8" standalone="no"?>
<!-- Created with Inkscape (http://www.inkscape.org/) -->

<svg
   xmlns:dc="http://purl.org/dc/elements/1.1/"
   xmlns:cc="http://creativecommons.org/ns#"
   xmlns:rdf="http://www.w3.org/1999/02/22-rdf-syntax-ns#"
   xmlns:svg="http://www.w3.org/2000/svg"
   xmlns="http://www.w3.org/2000/svg"
   xmlns:sodipodi="http://sodipodi.sourceforge.net/DTD/sodipodi-0.dtd"
   xmlns:inkscape="http://www.inkscape.org/namespaces/inkscape"
   id="svg2"
   version="1.1"
   inkscape:version="0.92.3 (2405546, 2018-03-11)"
   width="512"
   height="512"
   sodipodi:docname="gvim.svg">
  <metadata
     id="metadata8">
    <rdf:RDF>
      <cc:Work
         rdf:about="">
        <dc:format>image/svg+xml</dc:format>
        <dc:type
           rdf:resource="http://purl.org/dc/dcmitype/StillImage" />
        <dc:title></dc:title>
      </cc:Work>
    </rdf:RDF>
  </metadata>
  <defs
     id="defs6" />
  <sodipodi:namedview
     pagecolor="#ffffff"
     bordercolor="#666666"
     borderopacity="1"
     objecttolerance="10"
     gridtolerance="10"
     guidetolerance="10"
     inkscape:pageopacity="0"
     inkscape:pageshadow="2"
     inkscape:window-width="1275"
     inkscape:window-height="658"
     id="namedview4"
     showgrid="false"
     inkscape:zoom="0.4609375"
     inkscape:cx="206.3155"
     inkscape:cy="150.6321"
     inkscape:window-x="15"
     inkscape:window-y="39"
     inkscape:window-maximized="0"
     inkscape:current-layer="svg2" />
  <g
     id="g836">
    <path
       style="fill:#68b723;fill-opacity:1;stroke-width:11.10955811"
       inkscape:connector-curvature="0"
       d="M 432.91327,56.473984 C 535.10618,145.04857 538.74005,306.17368 441.03007,416.37277 343.3201,526.57187 181.27964,544.10057 79.086729,455.52603 -23.106186,366.95144 -26.740042,205.82632 70.969928,95.627244 168.6799,-14.571836 330.72036,-32.100606 432.91327,56.473984 Z"
       id="path27" />
    <path
       style="opacity:1;fill:#000000;fill-opacity:0.49019608;stroke-width:11.10955811"
       inkscape:connector-curvature="0"
       d="M 511.63551,224.90352 C 510.08412,286.21517 486.47428,349.05813 440.66913,400.718 342.95915,510.91707 180.91869,528.44587 78.725776,439.8713 30.827124,398.35564 4.4968216,340.92285 0.19382774,280.22881 0.7990794,346.58549 27.117411,410.48218 79.078682,455.51907 c 102.192908,88.5746 264.241068,71.0371 361.943338,-39.1533 49.70495,-56.0581 73.00502,-125.29096 70.61349,-191.46225 z"
       id="path51" />
    <path
       inkscape:connector-curvature="0"
       id="path830"
       d="m 264.63242,431.86713 c -7.46555,-0.71331 -10.81507,-1.09412 -13.95996,-1.58716 -26.54807,-4.16204 -49.77725,-14.30723 -70.48352,-30.78321 C 152.19643,377.22309 132.95023,348.43273 124.8043,316.64696 121.12676,302.29688 120,292.7757 120,276.04974 c 0,-13.80069 0.40883,-18.85827 2.40118,-29.70527 6.40591,-34.8761 24.37163,-65.36984 52.86558,-89.73034 28.46915,-24.33929 62.13519,-36.60405 100.50358,-36.61412 43.34337,-0.0114 79.96736,15.13224 110.5548,45.71319 27.64994,27.64409 42.44069,59.60515 45.37887,98.05836 0.58031,7.59474 0.26627,24.4073 -0.58445,31.28956 -4.88565,39.52472 -22.36877,72.23026 -52.9479,99.04929 -24.01665,21.06347 -50.97508,33.08696 -83.02414,37.02882 -4.85349,0.59695 -26.48515,1.11295 -30.5151,0.7279 z m 76.25319,-146.46054 c 30.25802,-100.80045 31.46187,-104.93106 30.7364,-105.46123 -0.63224,-0.46204 -5.44076,-0.53445 -29.56604,-0.44527 -15.84606,0.0586 -28.92652,0.22201 -29.06769,0.36318 -0.14117,0.14117 -8.52999,31.39825 -18.64183,69.4602 -10.11184,38.06195 -18.47337,69.29169 -18.58118,69.39944 -0.10782,0.10776 -0.32453,-0.31526 -0.48157,-0.94002 -0.15706,-0.62477 -7.80212,-31.83404 -16.98904,-69.35395 -9.18692,-37.51992 -16.83947,-68.354 -17.00567,-68.52018 -0.35447,-0.35443 -56.09845,-0.64347 -57.99714,-0.30073 -0.97747,0.17645 -1.28798,0.43602 -1.28798,1.07666 0,0.93418 58.53543,208.02777 59.11342,209.13848 0.34139,0.65604 2.28037,0.68961 34.31936,0.5941 l 33.95752,-0.10123 z"
       style="fill:#000000;fill-opacity:0.49019608;stroke-width:0.69313246" />
    <path
       style="fill:#ffffff;fill-opacity:1;stroke-width:0.69313246"
       d="m 244.63242,411.86713 c -7.46555,-0.71331 -10.81507,-1.09412 -13.95996,-1.58716 -26.54807,-4.16204 -49.77725,-14.30723 -70.48352,-30.78321 C 132.19643,357.22309 112.95023,328.43273 104.8043,296.64696 101.12676,282.29688 100,272.7757 100,256.04974 c 0,-13.80069 0.40883,-18.85827 2.40118,-29.70527 6.40591,-34.8761 24.37163,-65.36984 52.86558,-89.73034 28.46915,-24.33929 62.13519,-36.60405 100.50358,-36.61412 43.34337,-0.0114 79.96736,15.13224 110.5548,45.71319 27.64994,27.64409 42.44069,59.60515 45.37887,98.05836 0.58031,7.59474 0.26627,24.4073 -0.58445,31.28956 -4.88565,39.52472 -22.36877,72.23026 -52.9479,99.04929 -24.01665,21.06347 -50.97508,33.08696 -83.02414,37.02882 -4.85349,0.59695 -26.48515,1.11295 -30.5151,0.7279 z m 76.25319,-146.46054 c 30.25802,-100.80045 31.46187,-104.93106 30.7364,-105.46123 -0.63224,-0.46204 -5.44076,-0.53445 -29.56604,-0.44527 -15.84606,0.0586 -28.92652,0.22201 -29.06769,0.36318 -0.14117,0.14117 -8.52999,31.39825 -18.64183,69.4602 -10.11184,38.06195 -18.47337,69.29169 -18.58118,69.39944 -0.10782,0.10776 -0.32453,-0.31526 -0.48157,-0.94002 -0.15706,-0.62477 -7.80212,-31.83404 -16.98904,-69.35395 -9.18692,-37.51992 -16.83947,-68.354 -17.00567,-68.52018 -0.35447,-0.35443 -56.09845,-0.64347 -57.99714,-0.30073 -0.97747,0.17645 -1.28798,0.43602 -1.28798,1.07666 0,0.93418 58.53543,208.02777 59.11342,209.13848 0.34139,0.65604 2.28037,0.68961 34.31936,0.5941 l 33.95752,-0.10123 z"
       id="path2984"
       inkscape:connector-curvature="0" />
  </g>
</svg>
