<?xml version="1.0" encoding="UTF-8" standalone="no"?>
<!-- Generator: flash2svg, http://dissentgraphics.com/tools/flash2svg -->

<svg
   xmlns:dc="http://purl.org/dc/elements/1.1/"
   xmlns:cc="http://creativecommons.org/ns#"
   xmlns:rdf="http://www.w3.org/1999/02/22-rdf-syntax-ns#"
   xmlns:svg="http://www.w3.org/2000/svg"
   xmlns="http://www.w3.org/2000/svg"
   xmlns:xlink="http://www.w3.org/1999/xlink"
   xmlns:sodipodi="http://sodipodi.sourceforge.net/DTD/sodipodi-0.dtd"
   xmlns:inkscape="http://www.inkscape.org/namespaces/inkscape"
   id="Messages"
   version="1.1"
   style="image-rendering:optimizeSpeed"
   x="0px"
   y="0px"
   width="512"
   height="512"
   viewBox="0 0 512 512"
   enable-background="new 0 0 1024 1024"
   inkscape:version="0.92.3 (2405546, 2018-03-11)"
   sodipodi:docname="gwibber.svg">
  <metadata
     id="metadata25">
    <rdf:RDF>
      <cc:Work
         rdf:about="">
        <dc:format>image/svg+xml</dc:format>
        <dc:type
           rdf:resource="http://purl.org/dc/dcmitype/StillImage" />
        <dc:title />
      </cc:Work>
    </rdf:RDF>
  </metadata>
  <sodipodi:namedview
     pagecolor="#ffffff"
     bordercolor="#666666"
     borderopacity="1"
     objecttolerance="10"
     gridtolerance="10"
     guidetolerance="10"
     inkscape:pageopacity="0"
     inkscape:pageshadow="2"
     inkscape:window-width="1366"
     inkscape:window-height="720"
     id="namedview23"
     showgrid="false"
     inkscape:zoom="0.32593204"
     inkscape:cx="27.927077"
     inkscape:cy="364.27941"
     inkscape:window-x="0"
     inkscape:window-y="23"
     inkscape:window-maximized="1"
     inkscape:current-layer="Messages" />
  <defs
     transform="matrix(1 0 0 1 0 0) "
     id="defs3">
    <radialGradient
       cx="48"
       cy="48.277454"
       r="33"
       fx="48"
       fy="48.277454"
       id="radialGradient3301"
       xlink:href="#linearGradient3993"
       gradientUnits="userSpaceOnUse"
       gradientTransform="matrix(1,0,0,0.9174986,0,3.9829576)" />
    <linearGradient
       id="linearGradient3993">
      <stop
         id="stop3995"
         style="stop-color:#7da3c7;stop-opacity:1"
         offset="0" />
      <stop
         id="stop3997"
         style="stop-color:#b3c9e0;stop-opacity:0.62015504"
         offset="1" />
    </linearGradient>
    <clipPath
       id="clipPath3176">
      <path
         d="m 48,18 c -18.225397,0 -33,12.088312 -33,27 0,9.498438 5.99976,17.843462 15.0625,22.65625 -0.344625,2.508754 -1.914014,8.649817 -9.34375,10.75 9.622915,1.045823 16.013601,-3.646306 19.40625,-7.1875 C 42.648507,71.724251 45.286067,72 48,72 66.225397,72 81,59.911688 81,45 81,30.088312 66.225397,18 48,18 Z"
         inkscape:connector-curvature="0"
         id="path3178"
         style="display:inline;fill:#ff0000;fill-opacity:1;stroke:none" />
    </clipPath>
  </defs>
  <g
     id="g852">
    <path
       style="fill:#3689e6;fill-opacity:1;stroke-width:11.10955811"
       inkscape:connector-curvature="0"
       d="M 432.91327,56.473984 C 535.10618,145.04857 538.74005,306.17368 441.03007,416.37277 343.3201,526.57187 181.27964,544.10057 79.086729,455.52603 -23.106186,366.95144 -26.740042,205.82632 70.969928,95.627244 168.6799,-14.571836 330.72036,-32.100606 432.91327,56.473984 Z"
       id="path27" />
    <path
       style="opacity:1;fill:#000000;fill-opacity:0.49019608;stroke-width:11.10955811"
       inkscape:connector-curvature="0"
       d="M 511.63551,224.90352 C 510.08412,286.21517 486.47428,349.05813 440.66913,400.718 342.95915,510.91707 180.91869,528.44587 78.725776,439.8713 30.827124,398.35564 4.4968216,340.92285 0.19382774,280.22881 0.7990794,346.58549 27.117411,410.48218 79.078682,455.51907 c 102.192908,88.5746 264.241068,71.0371 361.943338,-39.1533 49.70495,-56.0581 73.00502,-125.29096 70.61349,-191.46225 z"
       id="path51" />
    <path
       style="display:inline;opacity:1;fill:#000000;fill-opacity:0.49019608;stroke:none;stroke-width:0.65684211"
       d="m 276,132.74029 c -86.15644,0 -156,57.14486 -156,127.63648 0,44.90171 28.36246,84.3511 71.2045,107.10247 -1.62911,11.85954 -9.04766,40.8899 -44.17006,50.81802 45.49016,4.94388 75.70053,-17.23729 91.73852,-33.97747 11.92933,2.38964 24.39755,3.69346 37.22704,3.69346 86.15644,0 156,-57.14486 156,-127.63648 0,-70.49162 -69.84356,-127.63648 -156,-127.63648 z m -0.58756,24.55589 c 19.67208,-0.0478 39.47864,5.57118 56.88996,17.13178 22.01125,14.6148 37.74389,37.30576 43.36441,62.54239 1.85568,8.33219 2.40286,13.51943 2.40286,22.79191 0,9.27247 -0.54718,14.45972 -2.40286,22.79191 -5.63135,25.28526 -21.34831,47.92438 -43.46448,62.60783 -5.75299,3.81962 -15.25089,8.68971 -20.87013,10.69934 -14.55079,5.204 -29.49283,7.24452 -44.12901,6.02832 -16.95051,-1.40853 -34.00024,-7.33014 -48.14063,-16.71996 -24.61945,-16.34842 -40.42112,-41.20447 -45.00009,-70.785 -1.23602,-7.98479 -1.23602,-21.26009 0,-29.24487 3.40001,-21.96429 12.68642,-40.85236 27.74901,-56.43967 19.93818,-20.63277 46.64291,-31.33854 73.60096,-31.40398 z m -0.75692,12.72888 1.78964,0.90188 c 1.72854,0.8704 1.79383,0.9702 1.89612,2.90447 0.13102,2.47783 0.71289,4.32204 1.61388,5.11362 0.39773,0.34944 1.76841,0.67689 3.25471,0.77872 2.27264,0.1557 2.69739,0.32292 3.71013,1.4548 0.79858,0.89252 1.14434,1.70323 1.14434,2.68766 0,1.6817 1.0575,1.16267 -14.66605,7.20345 -21.73353,8.34977 -28.17907,10.0911 -29.69517,8.02323 -1.52353,-2.07801 -1.04045,-2.61313 9.6602,-10.7173 7.82498,-5.92628 9.82826,-7.63178 9.82826,-8.36319 0,-0.8241 -2.30824,-0.0834 -9.02517,2.89293 -11.40392,5.05314 -18.85991,9.08456 -21.60908,11.6846 -1.11939,1.0587 -1.42958,1.74394 -1.82812,4.0424 -0.5941,3.42643 -1.30965,4.8545 -2.8275,5.63832 -1.63362,0.8436 -5.06383,0.75868 -7.83592,-0.19371 -3.20895,-1.1025 -5.32192,-1.00754 -9.5101,0.42848 -1.97304,0.67649 -4.16324,1.18056 -4.86731,1.11997 -0.70407,-0.0605 -1.52065,0.0383 -1.814,0.21938 -0.92375,0.57009 -5.84762,8.33944 -8.21823,12.96749 -1.25154,2.44334 -3.10984,6.5721 -4.13092,9.17526 -1.71056,4.36088 -1.87264,5.08036 -2.05135,9.14063 -0.16726,3.79935 -0.0508,4.99906 0.84671,8.70444 1.18883,4.90822 3.18327,10.44379 5.71914,15.87967 1.51,3.23683 2.29954,4.32282 5.74737,7.8975 4.54747,4.71477 5.08756,5.88252 4.69283,10.15668 -0.39106,4.23465 -1.66634,7.27899 -5.32016,12.70836 -4.2138,6.26149 -4.56326,6.94122 -4.56326,8.87121 0,2.8863 6.72195,12.62197 13.84115,20.0478 8.11499,8.4645 15.58769,13.97052 25.78105,18.99582 l 5.72428,2.82108 8.31701,-1.85121 c 11.50998,-2.5619 16.87209,-3.20752 24.56486,-2.96092 4.86879,0.15604 7.05027,0.41576 10.0502,1.1995 4.23033,1.10514 8.73929,3.10999 11.81418,5.25346 1.10321,0.76905 2.30171,1.40802 2.66329,1.42016 0.36161,0.0116 2.798,-0.70906 5.4151,-1.60362 9.388,-3.20869 19.69291,-8.92184 27.62586,-15.31648 7.08036,-5.70737 15.38764,-15.26543 20.23895,-23.28582 7.65334,-12.65285 12.85716,-30.34193 12.85716,-43.70438 0,-1.93236 -0.073,-2.10514 -0.8095,-1.91279 -0.49093,0.12823 -1.44615,-0.20906 -2.42852,-0.85826 -1.84211,-1.21735 -12.00179,-9.91557 -13.78599,-11.80263 -0.95407,-1.00909 -1.49836,-1.24569 -2.85957,-1.24569 -2.247,0 -2.76653,0.66318 -1.98335,2.535 1.46566,3.50288 0.31542,5.84811 -3.2406,6.60306 -6.28052,1.33334 -12.33454,-2.86876 -21.24987,-14.74687 -7.13361,-9.50426 -7.66191,-9.95829 -16.87776,-14.55445 -6.3277,-3.15575 -12.03115,-5.31449 -15.7052,-5.94364 l -2.77105,-0.47467 -5.09309,2.4593 -5.09438,2.45931 -0.38615,-1.01349 c -0.56279,-1.47821 -0.47028,-4.03903 0.19115,-5.31631 1.55188,-2.99682 6.06898,-5.6462 15.76165,-9.24325 5.65695,-2.09934 5.70962,-2.13019 5.96931,-3.51257 0.17266,-0.91902 -0.0386,-2.49345 -0.62093,-4.61585 -0.48618,-1.77152 -0.78285,-3.62308 -0.6594,-4.11425 0.12333,-0.49118 1.06113,-1.57813 2.0847,-2.41569 3.19651,-2.61565 11.7762,-8.16038 13.35879,-8.63388 2.01787,-0.60373 3.69321,0.24022 4.60815,2.32203 1.41462,3.21873 1.65926,3.52548 2.74925,3.45099 0.57565,-0.0393 3.06342,-1.0752 5.52927,-2.30279 2.46585,-1.22762 4.73517,-2.23224 5.04306,-2.23224 1.22502,0 0.40322,-0.83459 -2.94937,-2.993 -4.9179,-3.16616 -13.89993,-7.50716 -19.35761,-9.35615 -8.85795,-3.00094 -19.26752,-4.87756 -27.06137,-4.87756 z m 1.88714,58.9349 c 3.33685,-0.0504 5.72844,0.46676 10.01685,2.0398 2.96029,1.08588 3.47411,1.40269 3.27651,2.02441 -0.40885,1.28639 0.9961,2.7351 3.9821,4.10654 3.22104,1.47943 10.9548,3.52774 16.15421,4.27846 3.40844,0.49211 3.45945,0.51724 5.30862,2.54398 1.02702,1.12568 3.01462,4.23026 4.41573,6.89941 3.42749,6.5295 4.36272,7.53264 9.78207,10.48125 6.93675,3.7742 6.52374,3.25715 5.90773,7.39204 -0.48943,3.28516 -0.60729,3.55769 -2.15655,4.9802 -0.90139,0.82765 -2.90201,2.20481 -4.44651,3.06098 -4.47327,2.4797 -5.10889,3.12166 -9.65892,9.7577 -9.68581,14.1264 -17.9187,23.53506 -22.61486,25.8452 -3.0043,1.47785 -5.53203,1.47053 -7.02385,-0.0192 -2.39416,-2.39081 -3.2277,-5.47683 -4.03471,-14.93161 -1.51038,-17.69548 -4.17353,-28.57789 -7.39717,-30.23269 -0.56225,-0.28863 -4.1812,-1.43048 -8.04246,-2.53757 -11.2074,-3.21341 -15.87519,-5.5245 -19.00224,-9.40875 -1.657,-2.05822 -1.95391,-5.65928 -0.70047,-8.48892 2.08911,-4.71621 8.09931,-11.19368 13.13685,-14.15802 3.88327,-2.28511 7.30681,-3.34083 11.59993,-3.57799 0.52351,-0.0289 1.02045,-0.048 1.49714,-0.0552 z"
       id="path846"
       inkscape:connector-curvature="0" />
    <path
       inkscape:connector-curvature="0"
       id="path3625"
       d="m 256,112.74029 c -86.15644,0 -156,57.14486 -156,127.63648 0,44.90171 28.36246,84.3511 71.2045,107.10247 -1.62911,11.85954 -9.04766,40.8899 -44.17006,50.81802 45.49016,4.94388 75.70053,-17.23729 91.73852,-33.97747 11.92933,2.38964 24.39755,3.69346 37.22704,3.69346 86.15644,0 156,-57.14486 156,-127.63648 0,-70.49162 -69.84356,-127.63648 -156,-127.63648 z m -0.58756,24.55589 c 19.67208,-0.0478 39.47864,5.57118 56.88996,17.13178 22.01125,14.6148 37.74389,37.30576 43.36441,62.54239 1.85568,8.33219 2.40286,13.51943 2.40286,22.79191 0,9.27247 -0.54718,14.45972 -2.40286,22.79191 -5.63135,25.28526 -21.34831,47.92438 -43.46448,62.60783 -5.75299,3.81962 -15.25089,8.68971 -20.87013,10.69934 -14.55079,5.204 -29.49283,7.24452 -44.12901,6.02832 -16.95051,-1.40853 -34.00024,-7.33014 -48.14063,-16.71996 -24.61945,-16.34842 -40.42112,-41.20447 -45.00009,-70.785 -1.23602,-7.98479 -1.23602,-21.26009 0,-29.24487 3.40001,-21.96429 12.68642,-40.85236 27.74901,-56.43967 19.93818,-20.63277 46.64291,-31.33854 73.60096,-31.40398 z m -0.75692,12.72888 1.78964,0.90188 c 1.72854,0.8704 1.79383,0.9702 1.89612,2.90447 0.13102,2.47783 0.71289,4.32204 1.61388,5.11362 0.39773,0.34944 1.76841,0.67689 3.25471,0.77872 2.27264,0.1557 2.69739,0.32292 3.71013,1.4548 0.79858,0.89252 1.14434,1.70323 1.14434,2.68766 0,1.6817 1.0575,1.16267 -14.66605,7.20345 -21.73353,8.34977 -28.17907,10.0911 -29.69517,8.02323 -1.52353,-2.07801 -1.04045,-2.61313 9.6602,-10.7173 7.82498,-5.92628 9.82826,-7.63178 9.82826,-8.36319 0,-0.8241 -2.30824,-0.0834 -9.02517,2.89293 -11.40392,5.05314 -18.85991,9.08456 -21.60908,11.6846 -1.11939,1.0587 -1.42958,1.74394 -1.82812,4.0424 -0.5941,3.42643 -1.30965,4.8545 -2.8275,5.63832 -1.63362,0.8436 -5.06383,0.75868 -7.83592,-0.19371 -3.20895,-1.1025 -5.32192,-1.00754 -9.5101,0.42848 -1.97304,0.67649 -4.16324,1.18056 -4.86731,1.11997 -0.70407,-0.0605 -1.52065,0.0383 -1.814,0.21938 -0.92375,0.57009 -5.84762,8.33944 -8.21823,12.96749 -1.25154,2.44334 -3.10984,6.5721 -4.13092,9.17526 -1.71056,4.36088 -1.87264,5.08036 -2.05135,9.14063 -0.16726,3.79935 -0.0508,4.99906 0.84671,8.70444 1.18883,4.90822 3.18327,10.44379 5.71914,15.87967 1.51,3.23683 2.29954,4.32282 5.74737,7.8975 4.54747,4.71477 5.08756,5.88252 4.69283,10.15668 -0.39106,4.23465 -1.66634,7.27899 -5.32016,12.70836 -4.2138,6.26149 -4.56326,6.94122 -4.56326,8.87121 0,2.8863 6.72195,12.62197 13.84115,20.0478 8.11499,8.4645 15.58769,13.97052 25.78105,18.99582 l 5.72428,2.82108 8.31701,-1.85121 c 11.50998,-2.5619 16.87209,-3.20752 24.56486,-2.96092 4.86879,0.15604 7.05027,0.41576 10.0502,1.1995 4.23033,1.10514 8.73929,3.10999 11.81418,5.25346 1.10321,0.76905 2.30171,1.40802 2.66329,1.42016 0.36161,0.0116 2.798,-0.70906 5.4151,-1.60362 9.388,-3.20869 19.69291,-8.92184 27.62586,-15.31648 7.08036,-5.70737 15.38764,-15.26543 20.23895,-23.28582 7.65334,-12.65285 12.85716,-30.34193 12.85716,-43.70438 0,-1.93236 -0.073,-2.10514 -0.8095,-1.91279 -0.49093,0.12823 -1.44615,-0.20906 -2.42852,-0.85826 -1.84211,-1.21735 -12.00179,-9.91557 -13.78599,-11.80263 -0.95407,-1.00909 -1.49836,-1.24569 -2.85957,-1.24569 -2.247,0 -2.76653,0.66318 -1.98335,2.535 1.46566,3.50288 0.31542,5.84811 -3.2406,6.60306 -6.28052,1.33334 -12.33454,-2.86876 -21.24987,-14.74687 -7.13361,-9.50426 -7.66191,-9.95829 -16.87776,-14.55445 -6.3277,-3.15575 -12.03115,-5.31449 -15.7052,-5.94364 l -2.77105,-0.47467 -5.09309,2.4593 -5.09438,2.45931 -0.38615,-1.01349 c -0.56279,-1.47821 -0.47028,-4.03903 0.19115,-5.31631 1.55188,-2.99682 6.06898,-5.6462 15.76165,-9.24325 5.65695,-2.09934 5.70962,-2.13019 5.96931,-3.51257 0.17266,-0.91902 -0.0386,-2.49345 -0.62093,-4.61585 -0.48618,-1.77152 -0.78285,-3.62308 -0.6594,-4.11425 0.12333,-0.49118 1.06113,-1.57813 2.0847,-2.41569 3.19651,-2.61565 11.7762,-8.16038 13.35879,-8.63388 2.01787,-0.60373 3.69321,0.24022 4.60815,2.32203 1.41462,3.21873 1.65926,3.52548 2.74925,3.45099 0.57565,-0.0393 3.06342,-1.0752 5.52927,-2.30279 2.46585,-1.22762 4.73517,-2.23224 5.04306,-2.23224 1.22502,0 0.40322,-0.83459 -2.94937,-2.993 -4.9179,-3.16616 -13.89993,-7.50716 -19.35761,-9.35615 -8.85795,-3.00094 -19.26752,-4.87756 -27.06137,-4.87756 z m 1.88714,58.9349 c 3.33685,-0.0504 5.72844,0.46676 10.01685,2.0398 2.96029,1.08588 3.47411,1.40269 3.27651,2.02441 -0.40885,1.28639 0.9961,2.7351 3.9821,4.10654 3.22104,1.47943 10.9548,3.52774 16.15421,4.27846 3.40844,0.49211 3.45945,0.51724 5.30862,2.54398 1.02702,1.12568 3.01462,4.23026 4.41573,6.89941 3.42749,6.5295 4.36272,7.53264 9.78207,10.48125 6.93675,3.7742 6.52374,3.25715 5.90773,7.39204 -0.48943,3.28516 -0.60729,3.55769 -2.15655,4.9802 -0.90139,0.82765 -2.90201,2.20481 -4.44651,3.06098 -4.47327,2.4797 -5.10889,3.12166 -9.65892,9.7577 -9.68581,14.1264 -17.9187,23.53506 -22.61486,25.8452 -3.0043,1.47785 -5.53203,1.47053 -7.02385,-0.0192 -2.39416,-2.39081 -3.2277,-5.47683 -4.03471,-14.93161 -1.51038,-17.69548 -4.17353,-28.57789 -7.39717,-30.23269 -0.56225,-0.28863 -4.1812,-1.43048 -8.04246,-2.53757 -11.2074,-3.21341 -15.87519,-5.5245 -19.00224,-9.40875 -1.657,-2.05822 -1.95391,-5.65928 -0.70047,-8.48892 2.08911,-4.71621 8.09931,-11.19368 13.13685,-14.15802 3.88327,-2.28511 7.30681,-3.34083 11.59993,-3.57799 0.52351,-0.0289 1.02045,-0.048 1.49714,-0.0552 z"
       style="display:inline;opacity:1;fill:#ffffff;fill-opacity:1;stroke:none;stroke-width:0.65684211" />
  </g>
</svg>
