<?xml version="1.0" encoding="UTF-8" standalone="no"?>
<!-- Created with Inkscape (http://www.inkscape.org/) -->

<svg
   xmlns:dc="http://purl.org/dc/elements/1.1/"
   xmlns:cc="http://creativecommons.org/ns#"
   xmlns:rdf="http://www.w3.org/1999/02/22-rdf-syntax-ns#"
   xmlns:svg="http://www.w3.org/2000/svg"
   xmlns="http://www.w3.org/2000/svg"
   xmlns:sodipodi="http://sodipodi.sourceforge.net/DTD/sodipodi-0.dtd"
   xmlns:inkscape="http://www.inkscape.org/namespaces/inkscape"
   id="svg2"
   version="1.1"
   inkscape:version="0.92.3 (2405546, 2018-03-11)"
   width="512"
   height="512"
   sodipodi:docname="hb-icon.svg">
  <sodipodi:namedview
     pagecolor="#ffffff"
     bordercolor="#666666"
     borderopacity="1"
     objecttolerance="10"
     gridtolerance="10"
     guidetolerance="10"
     inkscape:pageopacity="0"
     inkscape:pageshadow="2"
     inkscape:window-width="1366"
     inkscape:window-height="720"
     id="namedview4"
     showgrid="false"
     inkscape:zoom="0.33714286"
     inkscape:cx="150.32014"
     inkscape:cy="130.96719"
     inkscape:window-x="0"
     inkscape:window-y="23"
     inkscape:window-maximized="1"
     inkscape:current-layer="svg2" />
  <metadata
     id="metadata8">
    <rdf:RDF>
      <cc:Work
         rdf:about="">
        <dc:format>image/svg+xml</dc:format>
        <dc:type
           rdf:resource="http://purl.org/dc/dcmitype/StillImage" />
        <dc:title></dc:title>
      </cc:Work>
    </rdf:RDF>
  </metadata>
  <defs
     id="defs6" />
  <g
     transform="translate(3.8414093e-8,5.2705501e-6)"
     id="g962">
    <path
       id="path1165"
       d="M 432.91328,56.474957 C 535.10618,145.04845 538.74005,306.17451 441.03006,416.37298 343.32007,526.57147 181.27962,544.10043 79.086743,455.52693 -23.106206,366.95111 -26.740033,205.82737 70.969944,95.626584 168.67988,-14.571874 330.72033,-32.100857 432.91328,56.474957 Z"
       inkscape:connector-curvature="0"
       style="fill:#f9c440;fill-opacity:1;stroke-width:11.10954762" />
    <path
       id="path1167"
       d="M 511.63552,224.90399 C 510.08416,286.21586 486.47428,349.05908 440.66913,400.71744 342.95911,510.9159 180.91867,528.44487 78.725762,439.8714 30.827125,398.35527 4.4968196,340.92295 0.19382729,280.22781 0.79908089,346.5852 27.117406,410.48266 79.078693,455.51762 181.27157,544.09343 343.31972,526.55517 441.02203,416.36599 c 49.70494,-56.05922 73.00501,-125.29079 70.61349,-191.462 z"
       inkscape:connector-curvature="0"
       style="opacity:1;fill:#000000;fill-opacity:0.49019608;stroke-width:11.10954762" />
    <path
       style="fill:#000000;fill-opacity:0.49019608;stroke:none;stroke-width:6.49798727;stroke-miterlimit:4;stroke-dasharray:none;stroke-opacity:1"
       d="m 343.40024,123.6638 a 54.11339,54.11339 0 0 0 -54.11249,54.11431 54.11339,54.11339 0 0 0 0.0551,1.10855 l 50.6545,-0.10661 -27.43586,43.38558 a 54.11339,54.11339 0 0 0 30.8387,9.72499 54.11339,54.11339 0 0 0 54.11432,-54.11249 54.11339,54.11339 0 0 0 -54.11432,-54.11431 z m 2.98184,9.80221 c 5.55286,-0.10926 21.78838,5.59235 21.78838,8.18994 0,2.29489 -19.93642,29.50539 -22.27554,30.40299 -0.56246,0.21585 -1.28832,-0.017 -1.61226,-0.51658 -0.98314,-1.51655 -0.56129,-36.63449 0.45225,-37.64802 0.27875,-0.27876 0.8539,-0.41274 1.64717,-0.42833 z m -12.15347,1.04051 c 0.47413,-0.0101 0.82236,0.0705 1.01109,0.25921 0.89403,0.89403 4.83849,23.87321 5.50226,32.05385 0.36178,4.4589 0.27102,6.45085 -0.29414,6.45085 -0.44969,0 -2.78461,-1.63889 -5.18789,-3.64182 -5.84689,-4.87289 -22.06781,-22.2359 -22.06781,-23.62124 0,-2.75455 16.45313,-11.40176 21.03649,-11.50085 z m 41.25858,13.29695 c 2.56963,0.20944 9.38904,11.42111 11.3979,18.915 0.96441,3.59765 1.23734,3.48089 -14.40181,6.11075 -14.33132,2.40994 -23.89331,3.26154 -23.89331,2.127 0,-1.62827 6.09077,-8.41166 15.74014,-17.52888 5.4644,-5.16306 10.37889,-9.4867 10.92177,-9.60916 0.0738,-0.0166 0.15242,-0.0215 0.23531,-0.0147 z m -68.33597,5.88462 c 2.48742,0 29.37903,19.81561 29.38455,21.65236 10e-4,0.73026 -4.12283,0.89678 -18.51977,0.75189 -10.18733,-0.10259 -18.67521,-0.43357 -18.86354,-0.73719 -1.56955,-2.53037 5.49494,-21.66704 7.99876,-21.66706 z m 56.08874,24.38601 c 2.90294,-0.005 6.26211,0.0514 10.0706,0.1728 10.7614,0.34301 14.6493,0.71389 14.92207,1.42474 1.14265,2.97774 -4.18922,19.82342 -7.1053,22.44837 -1.17294,1.05582 -2.03821,0.62618 -10.07613,-4.99853 -12.71099,-8.89479 -21.85738,-16.24725 -21.5108,-17.29356 0.38055,-1.14902 4.99072,-1.73672 13.69956,-1.75382 z m -16.33394,4.98751 c 2.17625,0 27.29064,24.81322 27.29064,26.96341 0,2.32751 -11.93029,9.42138 -19.05657,11.33172 -2.60236,0.69763 -2.92482,0.61787 -3.54623,-0.87691 -1.06039,-2.55071 -4.5423,-24.02457 -5.0408,-31.08871 -0.29932,-4.24121 -0.18252,-6.32951 0.35296,-6.32951 z m -4.92501,0.85667 c 1.44234,0.0433 1.57634,4.86729 1.49828,19.47573 -0.0532,9.96378 -0.30028,18.4453 -0.54967,18.84882 -0.66477,1.07563 -3.80932,0.83405 -9.89411,-0.76108 -6.48899,-1.70107 -11.55969,-4.17024 -11.55969,-5.6291 0,-1.43724 15.50904,-27.15489 18.14473,-30.08863 1.03053,-1.14707 1.79608,-1.86267 2.36046,-1.84574 z"
       id="path916"
       inkscape:connector-curvature="0" />
    <path
       style="fill:#000000;fill-opacity:0.49019608;stroke:none;stroke-width:0.74777561"
       d="M 330.28913,183.77185 155,184.2582 242.8578,336.29617 Z m -151.78531,12.31347 h 129.17824 c 0.48315,0.12847 0.68089,0.28118 0.63969,0.50241 -0.33529,1.79999 -38.77952,69.51675 -46.6644,82.19398 -4.55291,7.32013 -10.82474,14.60183 -13.99743,16.24951 -2.90541,1.5089 -6.25665,1.3741 -9.18216,-0.34467 -3.32737,-1.95488 -8.42938,-7.95838 -13.02327,-15.3221 -8.37117,-13.41843 -46.43858,-80.51905 -46.97404,-82.80301 -0.0437,-0.18652 -0.0484,-0.34325 0.0233,-0.47612 z"
       id="path918"
       inkscape:connector-curvature="0" />
    <path
       inkscape:connector-curvature="0"
       id="rect920"
       d="m 252.42969,319.59766 -9.57227,16.69922 -9.53515,-16.5 v 105.40039 h 19.10742 z"
       style="fill:#000000;fill-opacity:0.49019608;stroke:none;stroke-width:0.65524173" />
    <rect
       transform="rotate(90)"
       y="-287.62943"
       x="424.86649"
       height="90.164665"
       width="7.1335034"
       id="rect922"
       style="fill:#000000;fill-opacity:0.49019608;stroke:none;stroke-width:0.74777561" />
    <path
       inkscape:connector-curvature="0"
       id="path924"
       d="m 192.10938,131.51953 -6.73243,0.28125 2.82813,7.98438 a 16.954432,16.954432 0 0 1 5.75,-2.29297 z m 11.79101,38.16797 a 16.954432,16.954432 0 0 1 -4.66797,1.23438 l 39.53125,111.6289 z"
       style="fill:#000000;fill-opacity:0.49019608;stroke:none;stroke-width:0.74777561" />
    <path
       sodipodi:type="arc"
       style="fill:#000000;fill-opacity:0.49019608;stroke:none;stroke-width:5.16234159;stroke-miterlimit:4;stroke-dasharray:none;stroke-dashoffset:0;stroke-opacity:1"
       id="path926"
       sodipodi:cx="142.67671"
       sodipodi:cy="-175.70114"
       sodipodi:rx="6.767025"
       sodipodi:ry="6.767025"
       d="m 149.44374,-175.70114 a 6.767025,6.767025 0 0 1 -6.76521,6.76702 6.767025,6.767025 0 0 1 -6.76884,-6.76338 6.767025,6.767025 0 0 1 6.76156,-6.77066 6.767025,6.767025 0 0 1 6.77248,6.75974 l -6.76702,0.007 z"
       sodipodi:start="0"
       sodipodi:end="6.2821096"
       transform="rotate(84.983683)" />
    <circle
       r="16.954432"
       cy="154.10188"
       cx="197.27493"
       id="circle928"
       style="fill:#000000;fill-opacity:0.49019608;stroke:none;stroke-width:0.29939768" />
    <g
       id="g914">
      <path
         style="fill:#ffffff;fill-opacity:1;stroke:none;stroke-width:6.49798727;stroke-miterlimit:4;stroke-dasharray:none;stroke-opacity:1"
         d="m 323.40024,103.66379 a 54.11339,54.11339 0 0 0 -54.11249,54.11431 54.11339,54.11339 0 0 0 0.0551,1.10855 l 50.6545,-0.10661 -27.43586,43.38558 a 54.11339,54.11339 0 0 0 30.8387,9.72499 54.11339,54.11339 0 0 0 54.11432,-54.11249 54.11339,54.11339 0 0 0 -54.11432,-54.11431 z m 2.98184,9.80221 c 5.55286,-0.10926 21.78838,5.59235 21.78838,8.18994 0,2.29489 -19.93642,29.50539 -22.27554,30.40299 -0.56246,0.21585 -1.28832,-0.017 -1.61226,-0.51658 -0.98314,-1.51655 -0.56129,-36.63449 0.45225,-37.64802 0.27875,-0.27876 0.8539,-0.41274 1.64717,-0.42833 z m -12.15347,1.04051 c 0.47413,-0.0101 0.82236,0.0705 1.01109,0.25921 0.89403,0.89403 4.83849,23.87321 5.50226,32.05385 0.36178,4.4589 0.27102,6.45085 -0.29414,6.45085 -0.44969,0 -2.78461,-1.63889 -5.18789,-3.64182 -5.84689,-4.87289 -22.06781,-22.2359 -22.06781,-23.62124 0,-2.75455 16.45313,-11.40176 21.03649,-11.50085 z m 41.25858,13.29695 c 2.56963,0.20944 9.38904,11.42111 11.3979,18.915 0.96441,3.59765 1.23734,3.48089 -14.40181,6.11075 -14.33132,2.40994 -23.89331,3.26154 -23.89331,2.127 0,-1.62827 6.09077,-8.41166 15.74014,-17.52888 5.4644,-5.16306 10.37889,-9.4867 10.92177,-9.60916 0.0738,-0.0166 0.15242,-0.0215 0.23531,-0.0147 z m -68.33597,5.88462 c 2.48742,0 29.37903,19.81561 29.38455,21.65236 10e-4,0.73026 -4.12283,0.89678 -18.51977,0.75189 -10.18733,-0.10259 -18.67521,-0.43357 -18.86354,-0.73719 -1.56955,-2.53037 5.49494,-21.66704 7.99876,-21.66706 z m 56.08874,24.38601 c 2.90294,-0.005 6.26211,0.0514 10.0706,0.1728 10.7614,0.34301 14.6493,0.71389 14.92207,1.42474 1.14265,2.97774 -4.18922,19.82342 -7.1053,22.44837 -1.17294,1.05582 -2.03821,0.62618 -10.07613,-4.99853 -12.71099,-8.89479 -21.85738,-16.24725 -21.5108,-17.29356 0.38055,-1.14902 4.99072,-1.73672 13.69956,-1.75382 z m -16.33394,4.98751 c 2.17625,0 27.29064,24.81322 27.29064,26.96341 0,2.32751 -11.93029,9.42138 -19.05657,11.33172 -2.60236,0.69763 -2.92482,0.61787 -3.54623,-0.87691 -1.06039,-2.55071 -4.5423,-24.02457 -5.0408,-31.08871 -0.29932,-4.24121 -0.18252,-6.32951 0.35296,-6.32951 z m -4.92501,0.85667 c 1.44234,0.0433 1.57634,4.86729 1.49828,19.47573 -0.0532,9.96378 -0.30028,18.4453 -0.54967,18.84882 -0.66477,1.07563 -3.80932,0.83405 -9.89411,-0.76108 -6.48899,-1.70107 -11.55969,-4.17024 -11.55969,-5.6291 0,-1.43724 15.50904,-27.15489 18.14473,-30.08863 1.03053,-1.14707 1.79608,-1.86267 2.36046,-1.84574 z"
         id="path4029"
         inkscape:connector-curvature="0" />
      <path
         style="fill:#ffffff;fill-opacity:1;stroke:none;stroke-width:0.74777561"
         d="M 310.28913,163.77184 135,164.25819 222.8578,316.29616 Z m -151.78531,12.31347 h 129.17824 c 0.48315,0.12847 0.68089,0.28118 0.63969,0.50241 -0.33529,1.79999 -38.77952,69.51675 -46.6644,82.19398 -4.55291,7.32013 -10.82474,14.60183 -13.99743,16.24951 -2.90541,1.5089 -6.25665,1.3741 -9.18216,-0.34467 -3.32737,-1.95488 -8.42938,-7.95838 -13.02327,-15.3221 -8.37117,-13.41843 -46.43858,-80.51905 -46.97404,-82.80301 -0.0437,-0.18652 -0.0484,-0.34325 0.0233,-0.47612 z"
         id="path3104"
         inkscape:connector-curvature="0" />
      <rect
         y="288.49823"
         x="213.32201"
         height="116.6982"
         width="19.106894"
         id="rect3059"
         style="fill:#ffffff;fill-opacity:1;stroke:none;stroke-width:0.65524173" />
      <rect
         transform="rotate(90)"
         y="-267.62943"
         x="404.86649"
         height="90.164665"
         width="7.1335034"
         id="rect3059-0"
         style="fill:#ffffff;fill-opacity:1;stroke:none;stroke-width:0.74777561" />
      <path
         id="path3104-5"
         inkscape:label="Triangle"
         style="fill:#ffffff;fill-opacity:1;stroke:none;stroke-width:0.74777561"
         d="M 165.37726,111.80152 218.76363,262.55 172.10915,111.51954 Z"
         inkscape:connector-curvature="0"
         sodipodi:nodetypes="cccc" />
      <path
         sodipodi:type="arc"
         style="fill:#ffffff;fill-opacity:1;stroke:none;stroke-width:5.16234159;stroke-miterlimit:4;stroke-dasharray:none;stroke-dashoffset:0;stroke-opacity:1"
         id="path4082"
         sodipodi:cx="121.00452"
         sodipodi:cy="-157.52654"
         sodipodi:rx="6.767025"
         sodipodi:ry="6.767025"
         d="m 127.77154,-157.52654 a 6.767025,6.767025 0 0 1 -6.7652,6.76703 6.767025,6.767025 0 0 1 -6.76885,-6.76339 6.767025,6.767025 0 0 1 6.76157,-6.77066 6.767025,6.767025 0 0 1 6.77248,6.75975 l -6.76702,0.007 z"
         sodipodi:start="0"
         sodipodi:end="6.2821096"
         transform="rotate(84.983683)" />
      <circle
         r="16.954432"
         cy="134.10187"
         cx="177.27493"
         id="path4029-1"
         style="fill:#ffffff;fill-opacity:1;stroke:none;stroke-width:0.29939768" />
    </g>
  </g>
</svg>
