<?xml version="1.0" encoding="UTF-8" standalone="no"?>
<!-- Created with Inkscape (http://www.inkscape.org/) -->

<svg
   xmlns:dc="http://purl.org/dc/elements/1.1/"
   xmlns:cc="http://creativecommons.org/ns#"
   xmlns:rdf="http://www.w3.org/1999/02/22-rdf-syntax-ns#"
   xmlns:svg="http://www.w3.org/2000/svg"
   xmlns="http://www.w3.org/2000/svg"
   xmlns:sodipodi="http://sodipodi.sourceforge.net/DTD/sodipodi-0.dtd"
   xmlns:inkscape="http://www.inkscape.org/namespaces/inkscape"
   id="svg2987"
   version="1.1"
   inkscape:version="0.92.3 (2405546, 2018-03-11)"
   width="512"
   height="512"
   sodipodi:docname="heimdall-frontend.svg"
   viewBox="0 0 512 512">
  <metadata
     id="metadata2993">
    <rdf:RDF>
      <cc:Work
         rdf:about="">
        <dc:format>image/svg+xml</dc:format>
        <dc:type
           rdf:resource="http://purl.org/dc/dcmitype/StillImage" />
        <dc:title />
      </cc:Work>
    </rdf:RDF>
  </metadata>
  <defs
     id="defs2991" />
  <sodipodi:namedview
     pagecolor="#ffffff"
     bordercolor="#666666"
     borderopacity="1"
     objecttolerance="10"
     gridtolerance="10"
     guidetolerance="10"
     inkscape:pageopacity="0"
     inkscape:pageshadow="2"
     inkscape:window-width="1366"
     inkscape:window-height="720"
     id="namedview2989"
     showgrid="false"
     inkscape:zoom="0.32593203"
     inkscape:cx="270.79805"
     inkscape:cy="244.60827"
     inkscape:window-x="0"
     inkscape:window-y="23"
     inkscape:window-maximized="1"
     inkscape:current-layer="svg2987"
     inkscape:document-units="px" />
  <g
     id="g836">
    <path
       style="fill:#3689e6;fill-opacity:1;stroke-width:11.10955811"
       inkscape:connector-curvature="0"
       d="M 432.91327,56.473984 C 535.10618,145.04857 538.74005,306.17368 441.03007,416.37277 343.3201,526.57187 181.27964,544.10057 79.086729,455.52603 -23.106186,366.95144 -26.740042,205.82632 70.969928,95.627244 168.6799,-14.571836 330.72036,-32.100606 432.91327,56.473984 Z"
       id="path27" />
    <path
       style="opacity:1;fill:#000000;fill-opacity:0.49019608;stroke-width:11.10955811"
       inkscape:connector-curvature="0"
       d="M 511.63551,224.90352 C 510.08412,286.21517 486.47428,349.05813 440.66913,400.718 342.95915,510.91707 180.91869,528.44587 78.725776,439.8713 30.827124,398.35564 4.4968216,340.92285 0.19382774,280.22881 0.7990794,346.58549 27.117411,410.48218 79.078682,455.51907 c 102.192908,88.5746 264.241068,71.0371 361.943338,-39.1533 49.70495,-56.0581 73.00502,-125.29096 70.61349,-191.46225 z"
       id="path51" />
    <path
       style="fill:#000000;fill-opacity:0.49019608;stroke-width:0.6685819"
       d="M 362.20733,307.74384 C 422.85947,246.50873 432,243.06674 432,281.46271 c 0,14.42211 -3.36524,27.23099 -9.36972,35.66355 -13.94084,19.57811 -52.73091,38.66409 -85.87991,42.25569 L 307.97248,362.5 Z m -238.30632,35.03719 c -4.4273,-4.89208 -3.87945,-13.11341 -3.87945,-15.83204 0,-8.62735 13.18,-19.04372 25.39579,-19.15451 19.67455,-0.17851 49.106,-16.56162 80.74527,-44.94724 35.201,-31.58105 74.05002,-59.17163 77.89832,-55.32337 5.1218,5.12185 -32.27876,131.84048 -40.7515,138.07205 -5.58542,4.10799 -28.22686,6.07978 -69.81261,6.07978 -53.44803,0 -62.60544,-1.17037 -69.59582,-8.89467 z m 130.5694,-54.33504 c 0,-14.15913 -16.71545,-19.38784 -26.04461,-8.14691 -9.08377,10.94526 -1.42924,23.49252 13.29045,21.78551 9.96749,-1.15589 12.75416,-4.13581 12.75416,-13.6386 z m 46.20634,40.26059 c 0,-9.12355 34.67935,-134.70691 38.26944,-138.58397 5.57297,-6.01844 75.80198,12.70378 77.30709,20.60915 0.75277,3.95384 -24.94403,33.41923 -57.10393,65.47864 -32.15995,32.05942 -58.4726,55.68267 -58.4726,52.49618 z"
       id="path830"
       inkscape:connector-curvature="0"
       sodipodi:nodetypes="sssscssssssssssssssssss" />
    <path
       sodipodi:nodetypes="sssscssssssssssssssssss"
       inkscape:connector-curvature="0"
       id="path4147"
       d="M 342.20733,287.74384 C 402.85947,226.50873 412,223.06674 412,261.46271 c 0,14.42211 -3.36524,27.23099 -9.36972,35.66355 -13.94084,19.57811 -52.73091,38.66409 -85.87991,42.25569 L 287.97248,342.5 Z m -238.30632,35.03719 c -4.427298,-4.89208 -3.87945,-13.11341 -3.87945,-15.83204 0,-8.62735 13.18,-19.04372 25.39579,-19.15451 19.67455,-0.17851 49.106,-16.56162 80.74527,-44.94724 35.201,-31.58105 74.05002,-59.17163 77.89832,-55.32337 5.1218,5.12185 -32.27876,131.84048 -40.7515,138.07205 -5.58542,4.10799 -28.22686,6.07978 -69.81261,6.07978 -53.44803,0 -62.60544,-1.17037 -69.59582,-8.89467 z m 130.5694,-54.33504 c 0,-14.15913 -16.71545,-19.38784 -26.04461,-8.14691 -9.08377,10.94526 -1.42924,23.49252 13.29045,21.78551 9.96749,-1.15589 12.75416,-4.13581 12.75416,-13.6386 z m 46.20634,40.26059 c 0,-9.12355 34.67935,-134.70691 38.26944,-138.58397 5.57297,-6.01844 75.80198,12.70378 77.30709,20.60915 0.75277,3.95384 -24.94403,33.41923 -57.10393,65.47864 -32.15995,32.05942 -58.4726,55.68267 -58.4726,52.49618 z"
       style="fill:#ffffff;fill-opacity:1;stroke-width:0.6685819" />
  </g>
</svg>
