<?xml version="1.0" encoding="UTF-8" standalone="no"?>
<!-- Created with Inkscape (http://www.inkscape.org/) -->

<svg
   xmlns:dc="http://purl.org/dc/elements/1.1/"
   xmlns:cc="http://creativecommons.org/ns#"
   xmlns:rdf="http://www.w3.org/1999/02/22-rdf-syntax-ns#"
   xmlns:svg="http://www.w3.org/2000/svg"
   xmlns="http://www.w3.org/2000/svg"
   xmlns:sodipodi="http://sodipodi.sourceforge.net/DTD/sodipodi-0.dtd"
   xmlns:inkscape="http://www.inkscape.org/namespaces/inkscape"
   id="svg2987"
   version="1.1"
   inkscape:version="0.92.3 (2405546, 2018-03-11)"
   width="512"
   height="512"
   sodipodi:docname="ibus-engine.svg"
   viewBox="0 0 512 512">
  <metadata
     id="metadata2993">
    <rdf:RDF>
      <cc:Work
         rdf:about="">
        <dc:format>image/svg+xml</dc:format>
        <dc:type
           rdf:resource="http://purl.org/dc/dcmitype/StillImage" />
        <dc:title />
      </cc:Work>
    </rdf:RDF>
  </metadata>
  <defs
     id="defs2991" />
  <sodipodi:namedview
     pagecolor="#ffffff"
     bordercolor="#666666"
     borderopacity="1"
     objecttolerance="10"
     gridtolerance="10"
     guidetolerance="10"
     inkscape:pageopacity="0"
     inkscape:pageshadow="2"
     inkscape:window-width="1366"
     inkscape:window-height="720"
     id="namedview2989"
     showgrid="false"
     inkscape:zoom="0.65186406"
     inkscape:cx="263.01808"
     inkscape:cy="339.07322"
     inkscape:window-x="0"
     inkscape:window-y="23"
     inkscape:window-maximized="1"
     inkscape:current-layer="svg2987"
     inkscape:document-units="px" />
  <g
     transform="translate(3.8413987e-8,1.0500818e-6)"
     id="g847">
    <path
       id="path1165"
       d="m 432.91328,56.47495 c 102.1929,88.5735 105.82677,249.69956 8.11678,359.89803 C 343.32007,526.57151 181.27962,544.10041 79.086743,455.52693 -23.106206,366.95111 -26.740033,205.82737 70.969944,95.62657 168.67988,-14.57188 330.72033,-32.10087 432.91328,56.47495 Z"
       inkscape:connector-curvature="0"
       style="fill:#3689e6;fill-opacity:1;stroke-width:11.10954762" />
    <path
       id="path1167"
       d="M 511.63552,224.90399 C 510.08416,286.21586 486.47428,349.05908 440.66913,400.71744 342.95911,510.91591 180.91867,528.44491 78.725762,439.8714 30.827125,398.35527 4.4968196,340.92295 0.19382745,280.22781 0.79908105,346.5852 27.117406,410.48266 79.078693,455.51762 181.27157,544.09341 343.31972,526.55521 441.02203,416.36599 c 49.70494,-56.05922 73.00501,-125.29079 70.61349,-191.462 z"
       inkscape:connector-curvature="0"
       style="opacity:1;fill:#000000;fill-opacity:0.49019608;stroke-width:11.10954762" />
    <g
       style="font-style:normal;font-variant:normal;font-weight:normal;font-stretch:normal;font-size:396.30551147px;line-height:125%;font-family:Cantarell;-inkscape-font-specification:Cantarell;letter-spacing:0px;word-spacing:0px;fill:#000000;fill-opacity:0.49019608;stroke:none;stroke-width:9.90763855px;stroke-linecap:butt;stroke-linejoin:miter;stroke-opacity:1"
       id="g837"
       transform="matrix(1.1343968,0,0,1.1343968,-32.993658,-21.636659)">
      <path
         d="M 151.61684,208.87314 V 399.8924 H 184.5102 V 208.87314 Z m 0,-58.50544 v 32.89336 H 184.5102 V 150.3677 Z"
         style="fill:#000000;fill-opacity:0.49019608;stroke-width:9.90763855px"
         id="path833"
         inkscape:connector-curvature="0"
         sodipodi:nodetypes="cccccccccc" />
      <path
         d="m 360.48978,192.62461 c 0.69246,38.97574 -21.21078,46.76405 -71.33499,46.76405 h -36.46011 v -85.20568 h 52.70864 c 33.28966,0 54.57959,9.91214 55.08646,38.44163 z m 1.7968,127.21407 c 0,36.85641 -11.70444,51.12341 -48.95715,51.12341 H 252.69468 V 267.13005 h 47.95297 c 37.25272,0 61.63893,7.5298 61.63893,52.70863 z M 356.52673,248.9 c 22.19311,-10.70025 35.66749,-35.2712 35.66749,-57.86061 0,-20.21158 -6.73719,-36.85641 -19.41897,-48.34927 -13.47439,-11.88917 -34.08227,-17.83375 -56.27538,-17.83375 H 219.80132 V 399.8924 h 89.16875 c 34.47857,0 49.17335,-3.85896 67.79971,-20.50379 17.43744,-15.85222 18.01386,-42.9051 18.01386,-62.72037 0,-36.0638 -6.94878,-53.31903 -38.25691,-67.76824 z"
         style="fill:#000000;fill-opacity:0.49019608;stroke-width:9.90763855px"
         id="path835"
         inkscape:connector-curvature="0"
         sodipodi:nodetypes="ssccssssccsscscsccscsc" />
    </g>
    <g
       transform="matrix(1.1343968,0,0,1.1343968,-52.993658,-41.636659)"
       id="text4139"
       style="font-style:normal;font-variant:normal;font-weight:normal;font-stretch:normal;font-size:396.30551147px;line-height:125%;font-family:Cantarell;-inkscape-font-specification:Cantarell;letter-spacing:0px;word-spacing:0px;fill:#ffffff;fill-opacity:1;stroke:none;stroke-width:9.90763855px;stroke-linecap:butt;stroke-linejoin:miter;stroke-opacity:1">
      <path
         sodipodi:nodetypes="cccccccccc"
         inkscape:connector-curvature="0"
         id="path4141"
         style="fill:#ffffff;fill-opacity:1;stroke-width:9.90763855px"
         d="M 151.61684,208.87314 V 399.8924 H 184.5102 V 208.87314 Z m 0,-58.50544 v 32.89336 H 184.5102 V 150.3677 Z" />
      <path
         sodipodi:nodetypes="ssccssssccsscscsccscsc"
         inkscape:connector-curvature="0"
         id="path4143"
         style="fill:#ffffff;fill-opacity:1;stroke-width:9.90763855px"
         d="m 360.48978,192.62461 c 0.69246,38.97574 -21.21078,46.76405 -71.33499,46.76405 h -36.46011 v -85.20568 h 52.70864 c 33.28966,0 54.57959,9.91214 55.08646,38.44163 z m 1.7968,127.21407 c 0,36.85641 -11.70444,51.12341 -48.95715,51.12341 H 252.69468 V 267.13005 h 47.95297 c 37.25272,0 61.63893,7.5298 61.63893,52.70863 z M 356.52673,248.9 c 22.19311,-10.70025 35.66749,-35.2712 35.66749,-57.86061 0,-20.21158 -6.73719,-36.85641 -19.41897,-48.34927 -13.47439,-11.88917 -34.08227,-17.83375 -56.27538,-17.83375 H 219.80132 V 399.8924 h 89.16875 c 34.47857,0 49.17335,-3.85896 67.79971,-20.50379 17.43744,-15.85222 18.01386,-42.9051 18.01386,-62.72037 0,-36.0638 -6.94878,-53.31903 -38.25691,-67.76824 z" />
    </g>
  </g>
</svg>
