<?xml version="1.0" encoding="UTF-8" standalone="no"?>
<!-- Created with Inkscape (http://www.inkscape.org/) -->

<svg
   xmlns:dc="http://purl.org/dc/elements/1.1/"
   xmlns:cc="http://creativecommons.org/ns#"
   xmlns:rdf="http://www.w3.org/1999/02/22-rdf-syntax-ns#"
   xmlns:svg="http://www.w3.org/2000/svg"
   xmlns="http://www.w3.org/2000/svg"
   xmlns:xlink="http://www.w3.org/1999/xlink"
   xmlns:sodipodi="http://sodipodi.sourceforge.net/DTD/sodipodi-0.dtd"
   xmlns:inkscape="http://www.inkscape.org/namespaces/inkscape"
   id="svg2"
   version="1.1"
   inkscape:version="0.92.3 (2405546, 2018-03-11)"
   width="513"
   height="512"
   sodipodi:docname="iceweasel.svg">
  <metadata
     id="metadata8">
    <rdf:RDF>
      <cc:Work
         rdf:about="">
        <dc:format>image/svg+xml</dc:format>
        <dc:type
           rdf:resource="http://purl.org/dc/dcmitype/StillImage" />
        <dc:title></dc:title>
      </cc:Work>
    </rdf:RDF>
  </metadata>
  <defs
     id="defs6">
    <linearGradient
       gradientTransform="scale(1.0058652,0.994169)"
       gradientUnits="userSpaceOnUse"
       id="ButtonShadow"
       y2="7.0165396"
       x2="45.447727"
       y1="92.539597"
       x1="45.447727">
      <stop
         offset="0"
         style="stop-color:#000000;stop-opacity:1"
         id="stop3750" />
      <stop
         offset="1"
         style="stop-color:#000000;stop-opacity:0.58823532"
         id="stop3752" />
    </linearGradient>
    <filter
       id="filter3174"
       color-interpolation-filters="sRGB">
      <feGaussianBlur
         stdDeviation="1.71"
         id="feGaussianBlur3176" />
    </filter>
    <filter
       color-interpolation-filters="sRGB"
       id="filter3174-4">
      <feGaussianBlur
         id="feGaussianBlur3176-9"
         stdDeviation="1.71" />
    </filter>
    <linearGradient
       y2="7.0165396"
       x2="45.447727"
       y1="92.539597"
       x1="45.447727"
       gradientTransform="scale(1.0058652,0.994169)"
       gradientUnits="userSpaceOnUse"
       id="linearGradient14325"
       xlink:href="#ButtonShadow"
       inkscape:collect="always" />
    <linearGradient
       inkscape:collect="always"
       xlink:href="#ButtonShadow"
       id="linearGradient3427"
       gradientUnits="userSpaceOnUse"
       gradientTransform="scale(1.0058652,0.994169)"
       x1="45.447727"
       y1="92.539597"
       x2="45.447727"
       y2="7.0165396" />
  </defs>
  <sodipodi:namedview
     pagecolor="#ffffff"
     bordercolor="#666666"
     borderopacity="1"
     objecttolerance="10"
     gridtolerance="10"
     guidetolerance="10"
     inkscape:pageopacity="0"
     inkscape:pageshadow="2"
     inkscape:window-width="1366"
     inkscape:window-height="720"
     id="namedview4"
     showgrid="false"
     inkscape:zoom="0.4609375"
     inkscape:cx="409.14727"
     inkscape:cy="328.13127"
     inkscape:window-x="0"
     inkscape:window-y="23"
     inkscape:window-maximized="1"
     inkscape:current-layer="svg2" />
  <path
     style="fill:#b1b1aa"
     d="m -259.8568,29.595421 c -1.2375,-0.49742 -2.25,-1.44389 -2.25,-2.10328 0,-0.65939 -0.28913,-0.90977 -0.6425,-0.55639 -0.97488,0.97488 1.66522,3.69948 3.51494,3.62744 1.1014,-0.0429 0.90018,-0.35576 -0.62244,-0.96777 z"
     id="path3045" />
  <g
     id="layer2"
     style="display:none"
     transform="matrix(5.1129943,0,0,5.1129943,545.35593,-4.6101763)">
    <path
       d="M 11,7 C 7.676,7 5,9.676 5,13 l 0,33.6875 c 2.2377507,0.124029 4.660506,0.235683 5.875,0.4375 0.66093,0.10983 -0.08406,0.240848 -1.125,0.34375 C 8.7090622,47.571654 7.3545491,47.665119 6.84375,47.75 6.2216014,47.853382 5.6264179,47.903999 5,48 l 0,1.0625 c 0.3803657,0.03607 0.7183843,0.03125 0.9375,0.03125 0.80883,10e-7 1.1599727,0.215701 1.3125,0.5625 0.1525272,0.346797 0.09375,0.839723 0.09375,1.40625 0,0.424828 -0.9420178,0.663014 -1.15625,1.375 C 6.110939,52.691968 5.5510552,52.945524 5,53.1875 l 0,2.21875 c 0.7355867,0.02497 1.4332639,0.05671 1.84375,0.3125 C 7.1254716,55.894306 6.0687957,56.124098 5,56.3125 l 0,7.5625 c 1.1379643,0.180337 3.3100715,0.925679 3.96875,1.0625 1.090152,0.226446 1.224723,0.33476 0.875,0.4375 -0.3497231,0.102744 -1.173581,0.175172 -2,0.3125 C 6.8656638,65.850029 5.90816,66.141998 5,66.34375 L 5,86 c 0,3.324 2.676,6 6,6 l 13,0 c 0.0954,-0.438237 0.150955,-0.931178 0.25,-1.4375 0.140364,-0.717512 0.25498,-1.34159 0.375,-1.59375 0.03001,-0.06304 0.05815,-0.114053 0.09375,-0.125 0.106804,-0.03285 0.238198,0.191956 0.46875,0.78125 0.304338,0.777871 0.540174,1.646782 0.6875,2.375 l 0.75,0 c 0.276152,-0.493694 0.578538,-1.138496 0.8125,-1.4375 0.09907,-0.126629 0.275237,0.131501 0.53125,0.375 0.256014,0.2435 0.588904,0.486378 0.9375,0.375 0.648614,-0.207227 1.602807,-0.726227 2.03125,-1 0.139883,-0.08938 0.300164,-0.157976 0.40625,-0.1875 0.106087,-0.02952 0.174331,-0.01774 0.25,0 0.151339,0.03548 0.232196,0.144559 0.34375,0.28125 0.223098,0.27338 0.466785,0.656251 1.0625,0.65625 0.478344,0 0.657185,-0.0325 0.78125,0.0625 0.124065,0.095 0.197087,0.314551 0.40625,0.875 l 8.875,0 c -0.04778,-0.593879 1.040547,-2.151517 1.21875,-3.0625 0.19092,-0.975995 0.214078,-1.242419 0.28125,-1.0625 0.06717,0.179919 0.192504,0.793906 0.46875,1.5 0.110448,0.282298 0.213887,0.358235 0.3125,0.28125 0.09861,-0.07699 0.168895,-0.293948 0.25,-0.5625 0.162213,-0.537107 0.285649,-1.296709 0.34375,-1.59375 0.131129,-0.670335 0.128655,-1.786501 0.125,-2.28125 -9.11e-4,-0.123687 -0.0059,-0.217815 0,-0.25 0.01779,-0.09656 0.08067,0.312079 0.28125,1.59375 0.163819,1.046767 0.54767,2.687946 0.71875,3.5625 0.169798,0.867992 0.298106,1.322124 0.40625,1.875 l 28.21875,0 c 0.03877,-0.494956 0.03519,-1.098589 0.0625,-1.5 0.02049,-0.301057 0.06649,-0.487005 0.15625,-0.46875 0.02992,0.0061 0.05077,0.03882 0.09375,0.09375 0.233449,0.298339 0.630596,1.164908 0.96875,1.875 L 85,92 c 3.324,0 6,-2.676 6,-6 l 0,-7.21875 c -0.16942,0.0045 -0.290112,-4e-6 -0.5,0 -1.330307,0 -2.638456,-4e-6 -3.96875,0 -1.226564,0 -2.05394,-9.64e-4 -2.25,-0.0625 -0.19606,-0.06154 0.232972,-0.183183 1.46875,-0.5 C 86.405034,78.050819 89.092469,77.290673 91,76.875 L 91,38.46875 C 90.34725,38.202412 89.792969,37.980093 89.25,37.5625 89.107486,37.452886 88.801155,37.170028 88.28125,37 87.761349,36.829972 87.007124,36.743855 86,36.9375 c -1.533473,0.294852 -1.685602,0.283469 -1.25,0.15625 0.4356,-0.127221 1.468635,-0.381012 2.25,-0.53125 1.152717,-0.221645 2.722214,-1.204246 4,-1.84375 l 0,-4.5625 c -0.69831,-0.257978 -1.422206,-0.558272 -1.75,-1.0625 -0.209707,-0.322576 -0.321618,-0.513018 -0.3125,-0.625 0.0091,-0.111981 0.13299,-0.149124 0.25,-0.1875 0.117011,-0.03837 0.261032,-0.05449 0.375,-0.15625 0.11397,-0.101759 0.187497,-0.291619 0.1875,-0.59375 0,-0.32292 0.08246,-0.887065 0.0625,-1.40625 -0.01,-0.259593 -0.03562,-0.49724 -0.125,-0.6875 -0.08939,-0.19026 -0.219089,-0.333004 -0.4375,-0.375 -0.574572,-0.110478 -0.848143,-0.233682 -0.90625,-0.34375 -0.05811,-0.110067 0.07208,-0.18937 0.28125,-0.28125 0.418339,-0.18376 1.132532,-0.339398 1.125,-0.34375 -0.668701,-0.385725 -5.247169,-0.921226 -5,-0.96875 0.332574,-0.06395 0.667437,-0.123553 1,-0.1875 1.047644,-0.201439 2.43278,-0.309227 3.75,-0.5625 0.573261,-0.110227 0.911769,-0.250569 1.125,-0.4375 0.213229,-0.18693 0.294201,-0.423258 0.375,-0.625 L 91,13 C 91,9.676 88.324,7 85,7 L 33.625,7 C 33.72158,8.3975706 33.82658,9.959362 33.53125,9.1875 33.320827,8.6375466 33.210422,8.0499534 33,7.5 32.946762,7.3608606 32.903941,7.1705291 32.84375,7 L 30.8125,7 C 30.571803,7.4923127 30.362863,7.9708281 30.03125,8.1875 29.524321,8.5187294 29.245447,8.6821159 29,8.59375 28.754552,8.5053839 28.523162,8.1669814 28.15625,7.6875 27.992502,7.4735174 27.721718,7.2560338 27.40625,7 l -6.8125,0 -1.3125,5.5625 L 17.53125,7 17.3125,7 15.5625,15.9375 14.15625,7 11,7 Z"
       inkscape:connector-curvature="0"
       id="rect3745"
       style="opacity:0.9;fill:url(#linearGradient3427);fill-opacity:1;fill-rule:nonzero;stroke:none;filter:url(#filter3174)" />
  </g>
  <g
     id="layer2-6"
     style="display:none"
     transform="matrix(5.1129943,0,0,5.1129943,560.24336,765.05131)">
    <path
       d="M 11,7 C 7.676,7 5,9.676 5,13 l 0,33.6875 c 2.2377507,0.124029 4.660506,0.235683 5.875,0.4375 0.66093,0.10983 -0.08406,0.240848 -1.125,0.34375 C 8.7090622,47.571654 7.3545491,47.665119 6.84375,47.75 6.2216014,47.853382 5.6264179,47.903999 5,48 l 0,1.0625 c 0.3803657,0.03607 0.7183843,0.03125 0.9375,0.03125 0.80883,10e-7 1.1599727,0.215701 1.3125,0.5625 0.1525272,0.346797 0.09375,0.839723 0.09375,1.40625 0,0.424828 -0.9420178,0.663014 -1.15625,1.375 C 6.110939,52.691968 5.5510552,52.945524 5,53.1875 l 0,2.21875 c 0.7355867,0.02497 1.4332639,0.05671 1.84375,0.3125 C 7.1254716,55.894306 6.0687957,56.124098 5,56.3125 l 0,7.5625 c 1.1379643,0.180337 3.3100715,0.925679 3.96875,1.0625 1.090152,0.226446 1.224723,0.33476 0.875,0.4375 -0.3497231,0.102744 -1.173581,0.175172 -2,0.3125 C 6.8656638,65.850029 5.90816,66.141998 5,66.34375 L 5,86 c 0,3.324 2.676,6 6,6 l 13,0 c 0.0954,-0.438237 0.150955,-0.931178 0.25,-1.4375 0.140364,-0.717512 0.25498,-1.34159 0.375,-1.59375 0.03001,-0.06304 0.05815,-0.114053 0.09375,-0.125 0.106804,-0.03285 0.238198,0.191956 0.46875,0.78125 0.304338,0.777871 0.540174,1.646782 0.6875,2.375 l 0.75,0 c 0.276152,-0.493694 0.578538,-1.138496 0.8125,-1.4375 0.09907,-0.126629 0.275237,0.131501 0.53125,0.375 0.256014,0.2435 0.588904,0.486378 0.9375,0.375 0.648614,-0.207227 1.602807,-0.726227 2.03125,-1 0.139883,-0.08938 0.300164,-0.157976 0.40625,-0.1875 0.106087,-0.02952 0.174331,-0.01774 0.25,0 0.151339,0.03548 0.232196,0.144559 0.34375,0.28125 0.223098,0.27338 0.466785,0.656251 1.0625,0.65625 0.478344,0 0.657185,-0.0325 0.78125,0.0625 0.124065,0.095 0.197087,0.314551 0.40625,0.875 l 8.875,0 c -0.04778,-0.593879 1.040547,-2.151517 1.21875,-3.0625 0.19092,-0.975995 0.214078,-1.242419 0.28125,-1.0625 0.06717,0.179919 0.192504,0.793906 0.46875,1.5 0.110448,0.282298 0.213887,0.358235 0.3125,0.28125 0.09861,-0.07699 0.168895,-0.293948 0.25,-0.5625 0.162213,-0.537107 0.285649,-1.296709 0.34375,-1.59375 0.131129,-0.670335 0.128655,-1.786501 0.125,-2.28125 -9.11e-4,-0.123687 -0.0059,-0.217815 0,-0.25 0.01779,-0.09656 0.08067,0.312079 0.28125,1.59375 0.163819,1.046767 0.54767,2.687946 0.71875,3.5625 0.169798,0.867992 0.298106,1.322124 0.40625,1.875 l 28.21875,0 c 0.03877,-0.494956 0.03519,-1.098589 0.0625,-1.5 0.02049,-0.301057 0.06649,-0.487005 0.15625,-0.46875 0.02992,0.0061 0.05077,0.03882 0.09375,0.09375 0.233449,0.298339 0.630596,1.164908 0.96875,1.875 L 85,92 c 3.324,0 6,-2.676 6,-6 l 0,-7.21875 c -0.16942,0.0045 -0.290112,-4e-6 -0.5,0 -1.330307,0 -2.638456,-4e-6 -3.96875,0 -1.226564,0 -2.05394,-9.64e-4 -2.25,-0.0625 -0.19606,-0.06154 0.232972,-0.183183 1.46875,-0.5 C 86.405034,78.050819 89.092469,77.290673 91,76.875 L 91,38.46875 C 90.34725,38.202412 89.792969,37.980093 89.25,37.5625 89.107486,37.452886 88.801155,37.170028 88.28125,37 87.761349,36.829972 87.007124,36.743855 86,36.9375 c -1.533473,0.294852 -1.685602,0.283469 -1.25,0.15625 0.4356,-0.127221 1.468635,-0.381012 2.25,-0.53125 1.152717,-0.221645 2.722214,-1.204246 4,-1.84375 l 0,-4.5625 c -0.69831,-0.257978 -1.422206,-0.558272 -1.75,-1.0625 -0.209707,-0.322576 -0.321618,-0.513018 -0.3125,-0.625 0.0091,-0.111981 0.13299,-0.149124 0.25,-0.1875 0.117011,-0.03837 0.261032,-0.05449 0.375,-0.15625 0.11397,-0.101759 0.187497,-0.291619 0.1875,-0.59375 0,-0.32292 0.08246,-0.887065 0.0625,-1.40625 -0.01,-0.259593 -0.03562,-0.49724 -0.125,-0.6875 -0.08939,-0.19026 -0.219089,-0.333004 -0.4375,-0.375 -0.574572,-0.110478 -0.848143,-0.233682 -0.90625,-0.34375 -0.05811,-0.110067 0.07208,-0.18937 0.28125,-0.28125 0.418339,-0.18376 1.132532,-0.339398 1.125,-0.34375 -0.668701,-0.385725 -5.247169,-0.921226 -5,-0.96875 0.332574,-0.06395 0.667437,-0.123553 1,-0.1875 1.047644,-0.201439 2.43278,-0.309227 3.75,-0.5625 0.573261,-0.110227 0.911769,-0.250569 1.125,-0.4375 0.213229,-0.18693 0.294201,-0.423258 0.375,-0.625 L 91,13 C 91,9.676 88.324,7 85,7 L 33.625,7 C 33.72158,8.3975706 33.82658,9.959362 33.53125,9.1875 33.320827,8.6375466 33.210422,8.0499534 33,7.5 32.946762,7.3608606 32.903941,7.1705291 32.84375,7 L 30.8125,7 C 30.571803,7.4923127 30.362863,7.9708281 30.03125,8.1875 29.524321,8.5187294 29.245447,8.6821159 29,8.59375 28.754552,8.5053839 28.523162,8.1669814 28.15625,7.6875 27.992502,7.4735174 27.721718,7.2560338 27.40625,7 l -6.8125,0 -1.3125,5.5625 L 17.53125,7 17.3125,7 15.5625,15.9375 14.15625,7 11,7 Z"
       inkscape:connector-curvature="0"
       id="rect3745-8"
       style="opacity:0.9;fill:url(#linearGradient14325);fill-opacity:1;fill-rule:nonzero;stroke:none;filter:url(#filter3174-4)" />
  </g>
  <g
     id="g858">
    <path
       style="fill:#8a715e;fill-opacity:1;stroke-width:11.10955811"
       inkscape:connector-curvature="0"
       d="M 432.91327,56.473975 C 535.10618,145.04855 538.74005,306.17367 441.03007,416.37275 343.3201,526.57182 181.27964,544.10062 79.086729,455.52601 -23.106186,366.95142 -26.740042,205.8263 70.969928,95.627235 168.6799,-14.571845 330.72036,-32.100615 432.91327,56.473975 Z"
       id="path27" />
    <path
       style="opacity:1;fill:#000000;fill-opacity:0.49019608;stroke-width:11.10955811"
       inkscape:connector-curvature="0"
       d="M 511.63551,224.90351 C 510.08412,286.21516 486.47428,349.05812 440.66913,400.71798 342.95915,510.91712 180.91869,528.44582 78.725776,439.87128 30.827124,398.35563 4.4968216,340.92283 0.19382778,280.2288 0.79907944,346.58547 27.117411,410.48217 79.078682,455.51906 181.27159,544.09362 343.31975,526.55622 441.02202,416.36576 490.72697,360.30765 514.02704,291.0748 511.63551,224.90351 Z"
       id="path51" />
    <path
       style="fill:#000000;fill-opacity:0.49019608;fill-rule:evenodd;stroke:none;stroke-width:0.64410305px;stroke-linecap:butt;stroke-linejoin:miter;stroke-opacity:1"
       d="m 241.94824,249.01174 c 1.68066,-3.77121 14.37231,-7.22506 19.55034,-10.26172 5.17802,-3.03667 9.12089,-4.10043 11.67712,-7.60783 2.55625,-3.50738 3.18468,-11.67712 3.18468,-11.67712 0,0 -7.81245,-3.06662 -12.65022,-4.06932 -4.83776,-1.00269 -11.57866,0.99222 -16.27722,-1.59233 -4.69856,-2.58455 -9.73093,-12.4733 -9.73093,-12.4733 0,0 6.28726,-11.89043 10.17325,-16.45414 3.88599,-4.56371 12.56177,-10.88095 12.56177,-10.88095 0,0 -18.49721,-0.57293 -25.47738,1.94619 -6.98018,2.51911 -15.48105,10.96942 -15.48105,10.96942 0,0 -14.42132,-4.21641 -20.20696,-4.60799 -5.78565,-0.39158 -14.01185,1.25105 -14.01185,1.25105 0,0 -7.29045,-7.63783 -9.75824,-12.76078 -2.4678,-5.12294 -4.3787,-17.5148 -4.3787,-17.5148 0,0 -14.34871,19.66357 -17.3897,28.64922 -3.04098,8.98563 -2.50212,23.26965 -2.50212,23.26965 0,0 -10.84706,13.76389 -15.13779,22.26882 -4.29072,8.50494 -10.00846,28.52411 -10.00846,28.52411 0,0 3.41489,-6.31887 4.94168,-8.69485 1.5268,-2.37598 4.06593,-5.62975 4.06593,-5.62975 0,0 -5.71359,15.78721 -7.4385,24.50827 -1.7249,8.72105 -2.65389,27.60049 -2.65389,27.60049 0,0 1.47226,-5.38935 2.16735,-7.78477 0.69509,-2.39542 1.99042,-6.59049 1.99042,-6.59049 0,0 -0.52564,29.04821 4.55847,45.39925 5.0841,16.35105 15.44204,35.27907 27.52326,50.0423 12.08121,14.76322 27.66139,27.83125 43.787,37.03129 16.1256,9.20004 33.68385,14.87381 51.04313,17.76502 17.35929,2.89121 34.63735,3.48982 51.54356,-0.25021 16.90623,-3.74004 47.56782,-21.84883 47.56782,-21.84883 0,0 -13.78547,4.70759 -19.63881,5.83856 -5.85335,1.13097 -15.21566,1.41541 -15.21566,1.41541 0,0 33.32143,-9.98047 46.5316,-17.51569 13.21017,-7.53522 25.80807,-17.48266 32.37751,-26.00816 6.56944,-8.5255 9.37708,-21.05423 9.37708,-21.05423 0,0 -6.25212,9.76771 -10.43864,13.4464 -4.18652,3.67868 -14.1541,8.31553 -14.1541,8.31553 0,0 26.08514,-29.95034 33.26213,-46.17775 7.17699,-16.22741 9.65838,-36.85459 10.26172,-48.47777 0.60333,-11.62318 -2.12312,-20.16959 -2.12312,-20.16959 0,0 -0.68009,14.74728 -1.94618,22.11577 -1.2661,7.36849 -5.66163,21.93886 -5.66163,21.93886 0,0 4.13153,-26.63871 2.1231,-41.7546 -2.00842,-15.11588 -7.90131,-31.02155 -15.39257,-47.2393 -7.49126,-16.21774 -24.35474,-38.23243 -30.07746,-49.00855 -5.72274,-10.77611 -6.48927,-14.3031 -6.48927,-14.3031 0,0 -2.82629,4.82161 -3.81573,7.31868 -0.98943,2.49706 -2.12679,7.56889 -2.12679,7.56889 0,0 -18.87403,-18.84895 -24.02029,-25.14625 -5.14626,-6.29729 -6.48329,-8.27976 -8.00678,-11.50973 C 328.48363,123.90106 328.00543,120 328.00543,120 c 0,0 -9.21159,10.41402 -13.38631,18.26543 -4.17471,7.85142 -8.8383,18.08385 -10.38378,28.89943 -1.54549,10.81557 -1.24615,23.69857 2.12681,34.77939 3.37294,11.08082 11.76785,22.71862 17.51479,29.90027 5.74696,7.18164 10.27906,7.00907 15.01269,14.01183 4.73363,7.00277 9.62563,16.12989 10.8842,28.14879 1.25856,12.0189 -1.65512,30.59795 -6.75571,41.78533 -5.10058,11.18736 -11.84639,17.78127 -20.14202,24.14539 -8.29562,6.36412 -17.99133,11.11885 -28.399,13.13611 -10.40767,2.01726 -23.21899,0.54844 -32.27729,-1.62638 -9.05828,-2.17482 -15.77726,-5.53102 -21.51818,-9.63314 -5.74091,-4.10212 -12.79903,-13.71469 -12.79903,-13.71469 0,0 15.65423,4.21296 22.91195,4.0693 7.25771,-0.14366 13.40868,-2.05796 19.81574,-4.33469 6.40706,-2.27673 13.86815,-8.27793 18.31186,-9.24439 4.44372,-0.96646 4.53499,0.5356 6.76743,0.26538 2.23243,-0.27022 5.06019,-0.3702 6.4578,-1.85772 1.39761,-1.48751 2.10899,-2.26007 1.19425,-5.39625 -0.91474,-3.13619 -5.91833,-7.5027 -9.9521,-9.95211 -4.03376,-2.4494 -7.68602,-4.02817 -13.57909,-4.29045 -5.89307,-0.26228 -14.39215,3.83963 -20.65613,4.55585 -6.26399,0.71622 -10.44663,2.26356 -16.6753,0.17693 -6.22866,-2.08664 -14.34064,-9.77277 -18.00224,-13.88871 -3.66161,-4.11594 -4.72388,-4.77616 -5.30779,-8.84632 -0.58391,-4.07016 1.83759,-11.37754 3.62699,-13.8887 1.7894,-2.51117 2.01807,-2.34549 3.45006,-2.30005 1.432,0.0454 3.53852,2.69814 3.53852,2.69814 l -1.45964,-3.09622 c 0,0 3.50105,1.91355 5.30779,3.14045 1.80673,1.22689 5.48472,4.24623 5.48472,4.24623 0,0 0.13581,-2.18284 -0.35385,-3.31737 -0.48967,-1.13453 -2.6539,-3.09621 -2.6539,-3.09621 0,0 2.13184,0.87568 2.87505,1.45964 0.74321,0.58395 1.59234,1.85773 1.59234,1.85773 0,0 0.8419,-4.82276 0.88463,-7.34245 0.0427,-2.51969 -1.60991,-6.41005 -0.66348,-7.69629 0.94643,-1.28624 1.41534,0.24719 1.8135,-0.39808 0.39817,-0.64527 -2.34413,1.16154 -0.66347,-2.60966 z"
       id="path44"
       inkscape:connector-curvature="0"
       sodipodi:nodetypes="zzzczzczczczczczczczczczczzzzzczczzczczzczczzzczczzczzzzzzzzzzzczzzzzzzzzzzzzzcczczczczzzz" />
    <path
       sodipodi:nodetypes="zzzczzczczczczczczczczczczzzzzczczzczczzczczzzczczzczzzzzzzzzzzczzzzzzzzzzzzzzcczczczczzzz"
       inkscape:connector-curvature="0"
       id="path4161"
       d="m 221.94824,229.01174 c 1.68066,-3.77121 14.37231,-7.22506 19.55034,-10.26172 5.17802,-3.03667 9.12089,-4.10043 11.67712,-7.60783 2.55625,-3.50738 3.18468,-11.67712 3.18468,-11.67712 0,0 -7.81245,-3.06662 -12.65022,-4.06932 -4.83776,-1.00269 -11.57866,0.99222 -16.27722,-1.59233 -4.69856,-2.58455 -9.73093,-12.4733 -9.73093,-12.4733 0,0 6.28726,-11.89043 10.17325,-16.45414 3.88599,-4.56371 12.56177,-10.88095 12.56177,-10.88095 0,0 -18.49721,-0.57293 -25.47738,1.94619 -6.98018,2.51911 -15.48105,10.96942 -15.48105,10.96942 0,0 -14.42132,-4.21641 -20.20696,-4.60799 -5.78565,-0.39158 -14.01185,1.25105 -14.01185,1.25105 0,0 -7.29045,-7.63783 -9.75824,-12.76078 -2.4678,-5.12294 -4.3787,-17.5148 -4.3787,-17.5148 0,0 -14.34871,19.66357 -17.3897,28.64922 -3.04098,8.98563 -2.50212,23.26965 -2.50212,23.26965 0,0 -10.84706,13.76389 -15.13779,22.26882 -4.29072,8.50494 -10.00846,28.52411 -10.00846,28.52411 0,0 3.41489,-6.31887 4.94168,-8.69485 1.5268,-2.37598 4.06593,-5.62975 4.06593,-5.62975 0,0 -5.71359,15.78721 -7.4385,24.50827 -1.7249,8.72105 -2.65389,27.60049 -2.65389,27.60049 0,0 1.47226,-5.38935 2.16735,-7.78477 0.69509,-2.39542 1.99042,-6.59049 1.99042,-6.59049 0,0 -0.52564,29.04821 4.55847,45.39925 5.0841,16.35105 15.44204,35.27907 27.52326,50.0423 12.08121,14.76322 27.66139,27.83125 43.787,37.03129 16.1256,9.20004 33.68385,14.87381 51.04313,17.76502 17.35929,2.89121 34.63735,3.48982 51.54356,-0.25021 16.90623,-3.74004 47.56782,-21.84883 47.56782,-21.84883 0,0 -13.78547,4.70759 -19.63881,5.83856 -5.85335,1.13097 -15.21566,1.41541 -15.21566,1.41541 0,0 33.32143,-9.98047 46.5316,-17.51569 13.21017,-7.53522 25.80807,-17.48266 32.37751,-26.00816 6.56944,-8.5255 9.37708,-21.05423 9.37708,-21.05423 0,0 -6.25212,9.76771 -10.43864,13.4464 -4.18652,3.67868 -14.1541,8.31553 -14.1541,8.31553 0,0 26.08514,-29.95034 33.26213,-46.17775 7.17699,-16.22741 9.65838,-36.85459 10.26172,-48.47777 0.60333,-11.62318 -2.12312,-20.16959 -2.12312,-20.16959 0,0 -0.68009,14.74728 -1.94618,22.11577 -1.2661,7.36849 -5.66163,21.93886 -5.66163,21.93886 0,0 4.13153,-26.63871 2.1231,-41.7546 -2.00842,-15.11588 -7.90131,-31.02155 -15.39257,-47.2393 -7.49126,-16.21774 -24.35474,-38.23243 -30.07746,-49.00855 -5.72274,-10.77611 -6.48927,-14.3031 -6.48927,-14.3031 0,0 -2.82629,4.82161 -3.81573,7.31868 -0.98943,2.49706 -2.12679,7.56889 -2.12679,7.56889 0,0 -18.87403,-18.84895 -24.02029,-25.14625 -5.14626,-6.29729 -6.48329,-8.27976 -8.00678,-11.50973 C 308.48363,103.90106 308.00543,100 308.00543,100 c 0,0 -9.21159,10.41402 -13.38631,18.26543 -4.17471,7.85142 -8.8383,18.08385 -10.38378,28.89943 -1.54549,10.81557 -1.24615,23.69857 2.12681,34.77939 3.37294,11.08082 11.76785,22.71862 17.51479,29.90027 5.74696,7.18164 10.27906,7.00907 15.01269,14.01183 4.73363,7.00277 9.62563,16.12989 10.8842,28.14879 1.25856,12.0189 -1.65512,30.59795 -6.75571,41.78533 -5.10058,11.18736 -11.84639,17.78127 -20.14202,24.14539 -8.29562,6.36412 -17.99133,11.11885 -28.399,13.13611 -10.40767,2.01726 -23.21899,0.54844 -32.27729,-1.62638 -9.05828,-2.17482 -15.77726,-5.53102 -21.51818,-9.63314 -5.74091,-4.10212 -12.79903,-13.71469 -12.79903,-13.71469 0,0 15.65423,4.21296 22.91195,4.0693 7.25771,-0.14366 13.40868,-2.05796 19.81574,-4.33469 6.40706,-2.27673 13.86815,-8.27793 18.31186,-9.24439 4.44372,-0.96646 4.53499,0.5356 6.76743,0.26538 2.23243,-0.27022 5.06019,-0.3702 6.4578,-1.85772 1.39761,-1.48751 2.10899,-2.26007 1.19425,-5.39625 -0.91474,-3.13619 -5.91833,-7.5027 -9.9521,-9.95211 -4.03376,-2.4494 -7.68602,-4.02817 -13.57909,-4.29045 -5.89307,-0.26228 -14.39215,3.83963 -20.65613,4.55585 -6.26399,0.71622 -10.44663,2.26356 -16.6753,0.17693 -6.22866,-2.08664 -14.34064,-9.77277 -18.00224,-13.88871 -3.66161,-4.11594 -4.72388,-4.77616 -5.30779,-8.84632 -0.58391,-4.07016 1.83759,-11.37754 3.62699,-13.8887 1.7894,-2.51117 2.01807,-2.34549 3.45006,-2.30005 1.432,0.0454 3.53852,2.69814 3.53852,2.69814 l -1.45964,-3.09622 c 0,0 3.50105,1.91355 5.30779,3.14045 1.80673,1.22689 5.48472,4.24623 5.48472,4.24623 0,0 0.13581,-2.18284 -0.35385,-3.31737 -0.48967,-1.13453 -2.6539,-3.09621 -2.6539,-3.09621 0,0 2.13184,0.87568 2.87505,1.45964 0.74321,0.58395 1.59234,1.85773 1.59234,1.85773 0,0 0.8419,-4.82276 0.88463,-7.34245 0.0427,-2.51969 -1.60991,-6.41005 -0.66348,-7.69629 0.94643,-1.28624 1.41534,0.24719 1.8135,-0.39808 0.39817,-0.64527 -2.34413,1.16154 -0.66347,-2.60966 z"
       style="fill:#ffffff;fill-opacity:1;fill-rule:evenodd;stroke:none;stroke-width:0.64410305px;stroke-linecap:butt;stroke-linejoin:miter;stroke-opacity:1" />
  </g>
</svg>
