<?xml version="1.0" encoding="UTF-8" standalone="no"?>
<!-- Created with Inkscape (http://www.inkscape.org/) -->

<svg
   xmlns:dc="http://purl.org/dc/elements/1.1/"
   xmlns:cc="http://creativecommons.org/ns#"
   xmlns:rdf="http://www.w3.org/1999/02/22-rdf-syntax-ns#"
   xmlns:svg="http://www.w3.org/2000/svg"
   xmlns="http://www.w3.org/2000/svg"
   xmlns:sodipodi="http://sodipodi.sourceforge.net/DTD/sodipodi-0.dtd"
   xmlns:inkscape="http://www.inkscape.org/namespaces/inkscape"
   width="512"
   height="512"
   id="svg2"
   version="1.1"
   inkscape:version="0.92.3 (2405546, 2018-03-11)"
   sodipodi:docname="icons.svg">
  <defs
     id="defs4" />
  <sodipodi:namedview
     id="base"
     pagecolor="#ffffff"
     bordercolor="#666666"
     borderopacity="1.0"
     inkscape:pageopacity="0.0"
     inkscape:pageshadow="2"
     inkscape:zoom="0.24748737"
     inkscape:cx="-108.0175"
     inkscape:cy="432.20976"
     inkscape:document-units="px"
     inkscape:current-layer="layer1"
     showgrid="false"
     inkscape:window-width="1366"
     inkscape:window-height="720"
     inkscape:window-x="0"
     inkscape:window-y="23"
     inkscape:window-maximized="1" />
  <metadata
     id="metadata7">
    <rdf:RDF>
      <cc:Work
         rdf:about="">
        <dc:format>image/svg+xml</dc:format>
        <dc:type
           rdf:resource="http://purl.org/dc/dcmitype/StillImage" />
        <dc:title></dc:title>
      </cc:Work>
    </rdf:RDF>
  </metadata>
  <g
     inkscape:label="Layer 1"
     inkscape:groupmode="layer"
     id="layer1"
     transform="translate(0,-540.36218)">
    <g
       id="g894">
      <path
         style="fill:#3689e6;fill-opacity:1;stroke-width:11.10955811"
         inkscape:connector-curvature="0"
         d="m 432.91327,596.83611 c 102.19291,88.57459 105.82678,249.6997 8.1168,359.89879 C 343.3201,1066.934 181.27964,1084.4627 79.086729,995.88816 -23.106186,907.31357 -26.740042,746.18845 70.969928,635.98937 168.6799,525.79029 330.72036,508.26152 432.91327,596.83611 Z"
         id="path27" />
      <path
         style="opacity:1;fill:#000000;fill-opacity:0.49019608;stroke-width:11.10955811"
         inkscape:connector-curvature="0"
         d="M 511.63551,765.26565 C 510.08412,826.5773 486.47428,889.42026 440.66913,941.08013 342.95915,1051.2792 180.91869,1068.808 78.725776,980.23343 30.827124,938.71777 4.4968216,881.28498 0.1938277,820.59094 0.79907936,886.94762 27.117411,950.84431 79.078682,995.8812 c 102.192908,88.5746 264.241068,71.0371 361.943338,-39.1533 49.70495,-56.0581 73.00502,-125.29096 70.61349,-191.46225 z"
         id="path51" />
      <g
         style="fill:#000000;fill-opacity:0.49019608"
         transform="translate(19.999663,20.000374)"
         id="g884">
        <path
           inkscape:connector-curvature="0"
           id="path880"
           transform="translate(0,540.36218)"
           d="m 271.20117,100.00977 c -46.00558,-0.507547 -93.5304,19.44109 -127.95312,58.26367 -59.542016,67.15256 -57.328493,165.33736 4.94531,219.3125 62.27381,53.9751 161.01658,43.29323 220.55859,-23.85938 59.54202,-67.15258 57.3285,-165.33736 -4.94531,-219.3125 -26.27176,-22.77076 -59.03383,-34.03393 -92.60547,-34.40429 z m -4.87305,49.99609 c 22.8115,0.25166 45.07446,7.90451 62.92579,23.37695 42.31425,36.67541 43.81741,103.39218 3.35937,149.02149 -40.45803,45.62934 -107.55293,52.88828 -149.86719,16.21289 -42.31424,-36.67541 -43.81741,-103.39219 -3.35937,-149.02149 23.3898,-26.37944 55.6812,-39.93471 86.9414,-39.58984 z"
           style="fill:#000000;fill-opacity:0.49019608;stroke-width:6.76988697" />
        <path
           sodipodi:nodetypes="ssssss"
           inkscape:connector-curvature="0"
           style="fill:#000000;fill-opacity:0.49019608;stroke-width:2.43022108"
           d="m 261.45684,740.36558 c -16.51486,-0.1822 -33.57509,6.97886 -45.93199,20.91521 -21.3741,24.10609 -20.5795,59.352 1.77524,78.72773 22.35475,19.37572 57.80095,15.54119 79.17505,-8.56493 21.37411,-24.1061 20.57951,-59.352 -1.77524,-78.72773 -9.43091,-8.17413 -21.19168,-12.21733 -33.24306,-12.35028 z"
           id="path882" />
      </g>
      <g
         id="g878">
        <path
           style="fill:#ffffff;fill-opacity:1;stroke-width:6.76988697"
           d="M 271.20117 100.00977 C 225.19559 99.502223 177.67077 119.45086 143.24805 158.27344 C 83.706034 225.426 85.919557 323.6108 148.19336 377.58594 C 210.46717 431.56104 309.20994 420.87917 368.75195 353.72656 C 428.29397 286.57398 426.08045 188.3892 363.80664 134.41406 C 337.53488 111.6433 304.77281 100.38013 271.20117 100.00977 z M 266.32812 150.00586 C 289.13962 150.25752 311.40258 157.91037 329.25391 173.38281 C 371.56816 210.05822 373.07132 276.77499 332.61328 322.4043 C 292.15525 368.03364 225.06035 375.29258 182.74609 338.61719 C 140.43185 301.94178 138.92868 235.225 179.38672 189.5957 C 202.77652 163.21626 235.06792 149.66099 266.32812 150.00586 z "
           transform="translate(0,540.36218)"
           id="path869" />
        <path
           id="path874"
           d="m 261.45684,740.36558 c -16.51486,-0.1822 -33.57509,6.97886 -45.93199,20.91521 -21.3741,24.10609 -20.5795,59.352 1.77524,78.72773 22.35475,19.37572 57.80095,15.54119 79.17505,-8.56493 21.37411,-24.1061 20.57951,-59.352 -1.77524,-78.72773 -9.43091,-8.17413 -21.19168,-12.21733 -33.24306,-12.35028 z"
           style="fill:#ffffff;fill-opacity:1;stroke-width:2.43022108"
           inkscape:connector-curvature="0"
           sodipodi:nodetypes="ssssss" />
      </g>
    </g>
  </g>
</svg>
