<?xml version="1.0" encoding="UTF-8" standalone="no"?>
<!-- Created with Inkscape (http://www.inkscape.org/) -->

<svg
   xmlns:dc="http://purl.org/dc/elements/1.1/"
   xmlns:cc="http://creativecommons.org/ns#"
   xmlns:rdf="http://www.w3.org/1999/02/22-rdf-syntax-ns#"
   xmlns:svg="http://www.w3.org/2000/svg"
   xmlns="http://www.w3.org/2000/svg"
   xmlns:sodipodi="http://sodipodi.sourceforge.net/DTD/sodipodi-0.dtd"
   xmlns:inkscape="http://www.inkscape.org/namespaces/inkscape"
   id="svg2"
   version="1.1"
   inkscape:version="0.92.3 (2405546, 2018-03-11)"
   width="512"
   height="512"
   sodipodi:docname="icono_rakarrack_128x128.svg">
  <metadata
     id="metadata8">
    <rdf:RDF>
      <cc:Work
         rdf:about="">
        <dc:format>image/svg+xml</dc:format>
        <dc:type
           rdf:resource="http://purl.org/dc/dcmitype/StillImage" />
        <dc:title></dc:title>
      </cc:Work>
    </rdf:RDF>
  </metadata>
  <defs
     id="defs6">
    <clipPath
       clipPathUnits="userSpaceOnUse"
       id="clipPath3348">
      <circle
         style="opacity:1;fill:none;fill-opacity:1;stroke:#000000;stroke-width:9.69999981;stroke-miterlimit:4;stroke-dasharray:none;stroke-dashoffset:0;stroke-opacity:1"
         id="circle3350"
         cx="254.49155"
         cy="259.71185"
         r="242.37288" />
    </clipPath>
  </defs>
  <sodipodi:namedview
     pagecolor="#ffffff"
     bordercolor="#666666"
     borderopacity="1"
     objecttolerance="10"
     gridtolerance="10"
     guidetolerance="10"
     inkscape:pageopacity="0"
     inkscape:pageshadow="2"
     inkscape:window-width="1366"
     inkscape:window-height="720"
     id="namedview4"
     showgrid="false"
     inkscape:zoom="0.45384616"
     inkscape:cx="286.44383"
     inkscape:cy="-27.215953"
     inkscape:window-x="0"
     inkscape:window-y="23"
     inkscape:window-maximized="1"
     inkscape:current-layer="svg2" />
  <g
     id="g869">
    <path
       style="fill:#8a715e;fill-opacity:1;stroke-width:11.10955811"
       inkscape:connector-curvature="0"
       d="m 432.91327,56.47397 c 102.19291,88.57459 105.82678,249.6997 8.1168,359.89878 C 343.3201,526.57184 181.27964,544.10061 79.086729,455.52602 -23.106186,366.95143 -26.740042,205.82631 70.969928,95.62723 168.6799,-14.57185 330.72036,-32.10062 432.91327,56.47397 Z"
       id="path27" />
    <path
       style="opacity:1;fill:#000000;fill-opacity:0.49019608;stroke-width:11.10955811"
       inkscape:connector-curvature="0"
       d="M 511.63551,224.90351 C 510.08412,286.21516 486.47428,349.05812 440.66913,400.71799 342.95915,510.91711 180.91869,528.44584 78.725776,439.87129 30.827124,398.35563 4.4968216,340.92284 0.1938277,280.2288 0.79907936,346.58548 27.117411,410.48217 79.078682,455.51906 181.27159,544.09361 343.31975,526.55619 441.02202,416.36576 490.72697,360.30766 514.02704,291.0748 511.63551,224.90351 Z"
       id="path51" />
    <g
       style="fill:#000000;fill-opacity:0.49019608"
       transform="translate(19.999996,20)"
       id="g855">
      <path
         inkscape:connector-curvature="0"
         id="path847"
         d="m 300.46154,406.95501 c 3.0976,-6.04336 5.9496,-14.36875 6.9657,-20.33418 1.2203,-7.16342 0.4348,-19.74523 -1.6477,-26.39523 -3.6603,-11.68798 -10.2065,-23.19214 -23.1348,-40.65684 -11.7938,-15.93209 -14.9322,-23.80609 -14.9236,-37.44351 0.01,-8.35674 1.1951,-14.23451 5.0545,-24.96547 3.4622,-9.62658 4.453,-13.80515 4.9273,-20.78036 1.3482,-19.82679 -7.7423,-32.64302 -21.1372,-29.80022 -6.1501,1.30526 -8.3394,4.09982 -13.5102,17.24558 -2.1171,5.3825 -4.0419,7.86115 -7.5085,9.66913 -3.2193,1.67903 -8.8473,2.24645 -12.4363,1.25386 l -2.7179,-0.75168 v -65.02568 c 0,-35.76413 0.1251,-65.02569 0.2779,-65.02569 0.1529,0 2.3832,-0.4619 4.9562,-1.02644 12.4663,-2.73517 34.0893,-3.73083 47.7106,-2.1969 34.6951,3.90714 68.5559,20.67675 93.5256,46.31871 23.101,23.72303 37.6846,53.18426 43.5857,88.05057 2.0682,12.21943 2.0682,35.37934 0,47.59878 -4.1705,24.64116 -11.4693,43.898 -24.0606,63.47994 -11.7951,18.34381 -25.5613,32.51535 -43.7334,45.021 -11.248,7.74056 -34.3141,18.80257 -42.4671,20.36618 L 297.87564,412 Z"
         style="fill:#000000;fill-opacity:0.49019608;stroke-width:0.6466049" />
      <path
         inkscape:connector-curvature="0"
         id="path849"
         d="m 260.83254,218.17275 c -2.1279,0.0666 -4.4684,3.07435 -5.8043,7.66018 -1.495,5.13213 -5.3523,11.34284 -9.1405,14.71766 -5.3143,4.73449 -13.7357,7.30087 -21.3774,6.5148 l -3.997,-0.41117 -0.01,4.43088 c -0.012,5.21864 -0.3271,5.8773 -3.2326,6.74336 -6.0558,1.80512 -28.0758,1.23666 -30.4604,-0.78658 -0.6143,-0.52118 -0.8306,-3.29853 -0.8306,-10.67751 0,-7.1972 -0.2225,-10.15485 -0.7994,-10.62262 -1.3986,-1.13412 -7.4675,-2.28057 -9.7513,-1.84258 -4.8842,0.93673 -5.3992,5.55008 -1.5863,14.2069 5.2186,11.84834 5.1802,18.36243 -0.2135,36.5043 -4.6694,15.70507 -5.925,22.97449 -4.9138,28.45337 0.4108,2.22561 1.6839,5.78076 2.8291,7.90025 1.7278,3.19753 2.6711,4.16004 5.5407,5.65287 5.0355,2.61951 8.7675,3.10083 24.1703,3.12332 16.169,0.0236 21.2938,0.58909 28.5581,3.14886 13.105,4.61788 25.5307,16.03781 35.8189,32.92002 4.9109,8.05846 7.748,11.60253 10.1423,12.66822 5.4645,2.43228 14.2416,-0.76705 16.7134,-6.09214 1.8521,-3.98996 1.044,-10.57848 -2.1134,-17.23062 -3.6394,-7.66756 -10.492,-19.14746 -19.6687,-32.95193 -8.4198,-12.66589 -10.8958,-17.2224 -12.9701,-23.86289 -4.3292,-13.85897 -4.0975,-25.01415 0.8407,-40.41675 6.9838,-21.78299 8.2425,-37.59715 3.1513,-39.59441 -0.2918,-0.11448 -0.5916,-0.1653 -0.8956,-0.15579 z m -81.0092,90.34137 h 21.4385 21.4387 l 1.9459,1.67403 c 2.4515,2.10877 3.123,5.25851 1.715,8.04197 -1.9761,3.90669 -2.6763,4.01692 -25.1145,3.97119 -11.1849,-0.0228 -20.9443,-0.29205 -21.6872,-0.59887 -2.1678,-0.89543 -4.0856,-3.88947 -4.0856,-6.37816 0,-1.70467 0.5384,-2.81571 2.1746,-4.48834 z"
         style="fill:#000000;fill-opacity:0.49019608;stroke-width:0.6466049" />
      <path
         inkscape:connector-curvature="0"
         id="path851"
         d="m 224.98814,363.55836 c 4.1164,-1.99691 5.5081,-6.14556 3.4907,-10.40574 -2.2803,-4.81581 -2.7281,-4.90171 -25.5481,-4.90171 -21.5976,0 -22.1546,0.0821 -24.916,3.67088 -1.6303,2.11891 -1.7829,6.49939 -0.3015,8.66144 0.5686,0.82997 1.9356,2.07113 3.0377,2.75814 1.8597,1.15933 3.4444,1.24927 22.0516,1.25154 16.9831,0.002 20.3748,-0.15609 22.1856,-1.03455 z"
         style="fill:#000000;fill-opacity:0.49019608;stroke-width:0.6466049" />
      <path
         inkscape:connector-curvature="0"
         id="path853"
         d="m 113.70054,324.58569 c -5.6942,-12.52892 -9.6229,-25.92568 -12.2581,-41.79951 -1.2421,-7.48199 -1.461505,-11.11579 -1.4412,-23.86289 0.021,-13.32929 0.2174,-16.15006 1.7276,-24.83938 7.4615,-42.93323 29.5254,-79.28502 63.0732,-103.91755 6.1876,-4.54321 18.4896,-12.13218 19.6668,-12.13218 0.654,0 0.7821,10.39141 0.6506,52.79256 l -0.1636,52.79255 -3.0614,0.20026 c -5.8459,0.3824 -13.3782,-4.55219 -16.4428,-10.77199 -1.3606,-2.76147 -1.6104,-4.39922 -1.9912,-13.05466 -0.2615,-5.94345 -0.8553,-11.37344 -1.4864,-13.59291 -1.8225,-6.409 -7.6627,-11.41556 -14.5475,-12.47104 -8.0849,-1.23945 -16.1213,4.80194 -21.6548,16.27917 -6.8279,14.16188 -7.9852,27.96497 -3.7701,44.96615 0.6841,2.75947 2.8394,9.96737 4.7895,16.01756 8.2059,25.45863 9.0014,34.2376 4.4326,48.91946 -1.5783,5.07191 -13.5919,30.40067 -14.4192,30.40067 -0.2258,0 -1.6227,-2.66682 -3.104,-5.92627 z"
         style="fill:#000000;fill-opacity:0.49019608;stroke-width:0.6466049" />
    </g>
    <g
       id="g845">
      <path
         style="fill:#ffffff;fill-opacity:1;stroke-width:0.6466049"
         d="m 300.46154,406.95501 c 3.0976,-6.04336 5.9496,-14.36875 6.9657,-20.33418 1.2203,-7.16342 0.4348,-19.74523 -1.6477,-26.39523 -3.6603,-11.68798 -10.2065,-23.19214 -23.1348,-40.65684 -11.7938,-15.93209 -14.9322,-23.80609 -14.9236,-37.44351 0.01,-8.35674 1.1951,-14.23451 5.0545,-24.96547 3.4622,-9.62658 4.453,-13.80515 4.9273,-20.78036 1.3482,-19.82679 -7.7423,-32.64302 -21.1372,-29.80022 -6.1501,1.30526 -8.3394,4.09982 -13.5102,17.24558 -2.1171,5.3825 -4.0419,7.86115 -7.5085,9.66913 -3.2193,1.67903 -8.8473,2.24645 -12.4363,1.25386 l -2.7179,-0.75168 v -65.02568 c 0,-35.76413 0.1251,-65.02569 0.2779,-65.02569 0.1529,0 2.3832,-0.4619 4.9562,-1.02644 12.4663,-2.73517 34.0893,-3.73083 47.7106,-2.1969 34.6951,3.90714 68.5559,20.67675 93.5256,46.31871 23.101,23.72303 37.6846,53.18426 43.5857,88.05057 2.0682,12.21943 2.0682,35.37934 0,47.59878 -4.1705,24.64116 -11.4693,43.898 -24.0606,63.47994 -11.7951,18.34381 -25.5613,32.51535 -43.7334,45.021 -11.248,7.74056 -34.3141,18.80257 -42.4671,20.36618 L 297.87564,412 Z"
         id="path3013"
         inkscape:connector-curvature="0" />
      <path
         style="fill:#ffffff;fill-opacity:1;stroke-width:0.6466049"
         d="m 260.83254,218.17275 c -2.1279,0.0666 -4.4684,3.07435 -5.8043,7.66018 -1.495,5.13213 -5.3523,11.34284 -9.1405,14.71766 -5.3143,4.73449 -13.7357,7.30087 -21.3774,6.5148 l -3.997,-0.41117 -0.01,4.43088 c -0.012,5.21864 -0.3271,5.8773 -3.2326,6.74336 -6.0558,1.80512 -28.0758,1.23666 -30.4604,-0.78658 -0.6143,-0.52118 -0.8306,-3.29853 -0.8306,-10.67751 0,-7.1972 -0.2225,-10.15485 -0.7994,-10.62262 -1.3986,-1.13412 -7.4675,-2.28057 -9.7513,-1.84258 -4.8842,0.93673 -5.3992,5.55008 -1.5863,14.2069 5.2186,11.84834 5.1802,18.36243 -0.2135,36.5043 -4.6694,15.70507 -5.925,22.97449 -4.9138,28.45337 0.4108,2.22561 1.6839,5.78076 2.8291,7.90025 1.7278,3.19753 2.6711,4.16004 5.5407,5.65287 5.0355,2.61951 8.7675,3.10083 24.1703,3.12332 16.169,0.0236 21.2938,0.58909 28.5581,3.14886 13.105,4.61788 25.5307,16.03781 35.8189,32.92002 4.9109,8.05846 7.748,11.60253 10.1423,12.66822 5.4645,2.43228 14.2416,-0.76705 16.7134,-6.09214 1.8521,-3.98996 1.044,-10.57848 -2.1134,-17.23062 -3.6394,-7.66756 -10.492,-19.14746 -19.6687,-32.95193 -8.4198,-12.66589 -10.8958,-17.2224 -12.9701,-23.86289 -4.3292,-13.85897 -4.0975,-25.01415 0.8407,-40.41675 6.9838,-21.78299 8.2425,-37.59715 3.1513,-39.59441 -0.2918,-0.11448 -0.5916,-0.1653 -0.8956,-0.15579 z m -81.0092,90.34137 h 21.4385 21.4387 l 1.9459,1.67403 c 2.4515,2.10877 3.123,5.25851 1.715,8.04197 -1.9761,3.90669 -2.6763,4.01692 -25.1145,3.97119 -11.1849,-0.0228 -20.9443,-0.29205 -21.6872,-0.59887 -2.1678,-0.89543 -4.0856,-3.88947 -4.0856,-6.37816 0,-1.70467 0.5384,-2.81571 2.1746,-4.48834 z"
         id="path3011"
         inkscape:connector-curvature="0" />
      <path
         style="fill:#ffffff;fill-opacity:1;stroke-width:0.6466049"
         d="m 224.98814,363.55836 c 4.1164,-1.99691 5.5081,-6.14556 3.4907,-10.40574 -2.2803,-4.81581 -2.7281,-4.90171 -25.5481,-4.90171 -21.5976,0 -22.1546,0.0821 -24.916,3.67088 -1.6303,2.11891 -1.7829,6.49939 -0.3015,8.66144 0.5686,0.82997 1.9356,2.07113 3.0377,2.75814 1.8597,1.15933 3.4444,1.24927 22.0516,1.25154 16.9831,0.002 20.3748,-0.15609 22.1856,-1.03455 z"
         id="path3009"
         inkscape:connector-curvature="0" />
      <path
         style="fill:#ffffff;fill-opacity:1;stroke-width:0.6466049"
         d="m 113.70054,324.58569 c -5.6942,-12.52892 -9.6229,-25.92568 -12.2581,-41.79951 -1.2421,-7.48199 -1.461505,-11.11579 -1.4412,-23.86289 0.021,-13.32929 0.2174,-16.15006 1.7276,-24.83938 7.4615,-42.93323 29.5254,-79.28502 63.0732,-103.91755 6.1876,-4.54321 18.4896,-12.13218 19.6668,-12.13218 0.654,0 0.7821,10.39141 0.6506,52.79256 l -0.1636,52.79255 -3.0614,0.20026 c -5.8459,0.3824 -13.3782,-4.55219 -16.4428,-10.77199 -1.3606,-2.76147 -1.6104,-4.39922 -1.9912,-13.05466 -0.2615,-5.94345 -0.8553,-11.37344 -1.4864,-13.59291 -1.8225,-6.409 -7.6627,-11.41556 -14.5475,-12.47104 -8.0849,-1.23945 -16.1213,4.80194 -21.6548,16.27917 -6.8279,14.16188 -7.9852,27.96497 -3.7701,44.96615 0.6841,2.75947 2.8394,9.96737 4.7895,16.01756 8.2059,25.45863 9.0014,34.2376 4.4326,48.91946 -1.5783,5.07191 -13.5919,30.40067 -14.4192,30.40067 -0.2258,0 -1.6227,-2.66682 -3.104,-5.92627 z"
         id="path2984"
         inkscape:connector-curvature="0" />
    </g>
  </g>
</svg>
