<?xml version="1.0" encoding="UTF-8" standalone="no"?>
<svg
   xmlns:dc="http://purl.org/dc/elements/1.1/"
   xmlns:cc="http://creativecommons.org/ns#"
   xmlns:rdf="http://www.w3.org/1999/02/22-rdf-syntax-ns#"
   xmlns:svg="http://www.w3.org/2000/svg"
   xmlns="http://www.w3.org/2000/svg"
   xmlns:xlink="http://www.w3.org/1999/xlink"
   xmlns:sodipodi="http://sodipodi.sourceforge.net/DTD/sodipodi-0.dtd"
   xmlns:inkscape="http://www.inkscape.org/namespaces/inkscape"
   viewBox="0 0 512 512"
   version="1.0"
   id="svg2"
   height="512"
   width="512"
   inkscape:version="0.92.3 (2405546, 2018-03-11)"
   sodipodi:docname="im-chooser.svg">
  <sodipodi:namedview
     pagecolor="#ffffff"
     bordercolor="#666666"
     borderopacity="1"
     objecttolerance="10"
     gridtolerance="10"
     guidetolerance="10"
     inkscape:pageopacity="0"
     inkscape:pageshadow="2"
     inkscape:window-width="1366"
     inkscape:window-height="720"
     id="namedview30"
     showgrid="false"
     inkscape:zoom="0.58419177"
     inkscape:cx="426.79409"
     inkscape:cy="156.26422"
     inkscape:window-x="0"
     inkscape:window-y="23"
     inkscape:window-maximized="1"
     inkscape:current-layer="svg2" />
  <defs
     id="defs4">
    <linearGradient
       id="linearGradient4132">
      <stop
         id="stop4134"
         offset="0"
         style="stop-color:#f2f2f2;stop-opacity:1;" />
      <stop
         id="stop4136"
         offset="1"
         style="stop-color:#f2f2f2;stop-opacity:0;" />
    </linearGradient>
    <linearGradient
       id="linearGradient3155">
      <stop
         id="stop3157"
         offset="0"
         style="stop-color:#303030;stop-opacity:1;" />
      <stop
         id="stop3159"
         offset="1"
         style="stop-color:#303030;stop-opacity:0;" />
    </linearGradient>
    <linearGradient
       id="linearGradient6067">
      <stop
         id="stop6069"
         offset="0"
         style="stop-color:#ffffff;stop-opacity:1;" />
      <stop
         id="stop6071"
         offset="1"
         style="stop-color:#ffffff;stop-opacity:0;" />
    </linearGradient>
    <linearGradient
       id="linearGradient3142">
      <stop
         id="stop3144"
         offset="0"
         style="stop-color:#303030;stop-opacity:1;" />
      <stop
         id="stop3146"
         offset="1"
         style="stop-color:#303030;stop-opacity:0;" />
    </linearGradient>
    <linearGradient
       gradientTransform="matrix(1.6258627,0,0,1.6258627,-28.787153,-52.145846)"
       gradientUnits="userSpaceOnUse"
       y2="110.71667"
       x2="92.804863"
       y1="75.855133"
       x1="92.804863"
       id="linearGradient3148"
       xlink:href="#linearGradient3142" />
    <linearGradient
       gradientUnits="userSpaceOnUse"
       y2="119.78299"
       x2="29.731594"
       y1="96.211563"
       x1="29.731594"
       id="linearGradient6073"
       xlink:href="#linearGradient6067" />
    <linearGradient
       gradientUnits="userSpaceOnUse"
       y2="124.82345"
       x2="100.75668"
       y1="85.389313"
       x1="100.75668"
       id="linearGradient3161"
       xlink:href="#linearGradient3155" />
    <linearGradient
       gradientTransform="translate(-2.2728432)"
       gradientUnits="userSpaceOnUse"
       y2="-115.67227"
       x2="96.899597"
       y1="-101.65641"
       x1="96.899597"
       id="linearGradient4138"
       xlink:href="#linearGradient4132" />
    <filter
       style="color-interpolation-filters:sRGB"
       height="1"
       width="1"
       y="0"
       x="0"
       id="filter3004">
      <feColorMatrix
         result="result2"
         type="saturate"
         in="SourceGraphic"
         values="1"
         id="feColorMatrix3006" />
      <feFlood
         result="result1"
         flood-opacity="1"
         flood-color="rgb(254,102,0)"
         id="feFlood3008" />
      <feBlend
         result="result3"
         in="result1"
         mode="multiply"
         in2="result2"
         id="feBlend3010" />
      <feComposite
         result="result4"
         operator="in"
         in2="SourceGraphic"
         id="feComposite3012" />
    </filter>
  </defs>
  <metadata
     id="metadata7">
    <rdf:RDF>
      <cc:Work
         rdf:about="">
        <dc:format>image/svg+xml</dc:format>
        <dc:type
           rdf:resource="http://purl.org/dc/dcmitype/StillImage" />
        <dc:title></dc:title>
      </cc:Work>
    </rdf:RDF>
  </metadata>
  <g
     id="g897">
    <path
       id="path1165"
       d="M 432.91328,56.474957 C 535.10618,145.04846 538.74005,306.17452 441.03006,416.37299 343.32007,526.57148 181.27962,544.10044 79.086743,455.52694 -23.106206,366.95112 -26.740033,205.82738 70.969944,95.626584 168.67988,-14.571874 330.72033,-32.100857 432.91328,56.474957 Z"
       inkscape:connector-curvature="0"
       style="fill:#3689e6;fill-opacity:1;stroke-width:11.10954762" />
    <path
       id="path1167"
       d="M 511.63552,224.904 C 510.08416,286.21587 486.47428,349.05909 440.66913,400.71745 342.95911,510.91591 180.91867,528.44488 78.725762,439.87141 30.827125,398.35528 4.4968196,340.92296 0.19382737,280.22782 0.79908097,346.58521 27.117406,410.48267 79.078693,455.51763 181.27157,544.09344 343.31972,526.55518 441.02203,416.366 490.72697,360.30678 514.02704,291.07521 511.63552,224.904 Z"
       inkscape:connector-curvature="0"
       style="opacity:1;fill:#000000;fill-opacity:0.49019608;stroke-width:11.10954762" />
    <g
       style="fill:#000000;fill-opacity:0.49019608"
       id="g79"
       transform="translate(20,20)">
      <path
         id="path75"
         d="M 137.66602,100 C 116.79885,100 100,120.55874 100,146.09766 V 365.90039 C 100,391.43931 116.79885,412 137.66602,412 H 374.33398 C 395.20114,412 412,391.43931 412,365.90039 V 146.09766 C 412,120.55874 395.20114,100 374.33398,100 Z m 16.91015,23.10938 h 197.71289 c 17.43256,0 31.4668,17.17436 31.4668,38.50976 v 183.625 c 0,21.33539 -14.03424,38.51172 -31.4668,38.51172 H 154.57617 c -17.43257,0 -31.46679,-17.17633 -31.46679,-38.51172 v -183.625 c 0,-21.3354 14.03422,-38.50976 31.46679,-38.50976 z"
         style="fill:#000000;fill-opacity:0.49019608;fill-rule:nonzero;stroke:none;stroke-width:0.89142859"
         inkscape:connector-curvature="0" />
      <path
         inkscape:connector-curvature="0"
         style="fill:#000000;fill-opacity:0.49019608;fill-rule:nonzero;stroke:none;stroke-width:0.64933586"
         d="m 166.80664,140.22656 c -15.2001,0 -27.43555,14.97502 -27.43555,33.57813 v 160.10937 c 0,18.60311 12.23545,33.58008 27.43555,33.58008 h 172.39453 c 15.20009,0 27.4375,-14.97697 27.4375,-33.58008 V 173.80469 c 0,-18.60311 -12.23741,-33.57813 -27.4375,-33.57813 z m 87.07422,30.36914 c 2.51137,0 5.5374,1.39856 9.07617,4.19532 3.88123,3.13923 5.82031,6.3653 5.82031,9.67578 0,3.65292 -1.54089,6.64813 -4.62304,8.98828 -2.56847,1.9406 -5.25012,2.91211 -8.04688,2.91211 -2.62554,0 -5.70735,-1.39855 -9.24609,-4.19531 -3.88124,-3.13923 -5.82227,-6.39225 -5.82227,-9.75977 0,-3.71002 1.59862,-6.70716 4.79492,-8.99023 2.62554,-1.88354 5.30719,-2.82618 8.04688,-2.82618 z m -6.33594,34.2461 c 11.18705,0 25.59958,1.2004 43.23633,3.59765 7.02044,0.9703 10.53125,4.90816 10.53125,11.81446 0,3.65292 -1.42742,6.53466 -4.28125,8.64648 -2.34015,1.76939 -4.99488,2.6543 -7.96289,2.6543 -2.96798,0 -11.10149,-0.79835 -24.40039,-2.39649 -0.79908,10.50214 -1.19727,24.45681 -1.19727,41.86524 l -0.0859,38.4414 c 7.5912,-0.17124 15.32454,-0.25781 23.20117,-0.25781 3.42459,0 6.25056,1.14271 8.47656,3.42578 2.28307,2.28308 3.42383,5.02245 3.42383,8.21875 0,3.1963 -1.14076,5.93568 -3.42383,8.21875 -2.226,2.226 -5.05197,3.33985 -8.47656,3.33985 -3.19631,0 -7.99022,0.0846 -14.38282,0.25586 -6.3926,0.11426 -11.1865,0.17187 -14.38281,0.17187 -3.76708,0 -9.41899,0.48477 -16.95312,1.45508 -7.53416,1.0274 -13.18411,1.54101 -16.95117,1.54101 -3.4246,0 -6.27943,-1.11384 -8.5625,-3.33984 -2.226,-2.28307 -3.33789,-5.02245 -3.3379,-8.21875 1e-5,-3.1963 1.1119,-5.93568 3.3379,-8.21875 2.28307,-2.28307 5.1379,-3.42383 8.5625,-3.42383 3.88123,0 8.98871,-0.42899 15.32421,-1.28515 -0.11426,-6.73508 -0.16992,-19.6336 -0.16992,-38.69727 0,-15.5249 0.56939,-30.33757 1.71094,-44.43555 l -18.57813,0.51368 c -3.42462,0 -6.30633,-1.1119 -8.64648,-3.3379 -2.28307,-2.22599 -3.42578,-4.99424 -3.42578,-8.30468 0,-3.36752 1.14271,-6.1069 3.42578,-8.21875 2.11185,-1.94061 4.70889,-3.05445 7.79102,-3.33985 5.02276,-0.45662 13.75449,-0.68554 26.19726,-0.68554 z"
         transform="translate(-3.8414097e-8,4.7294498e-6)"
         id="path77" />
    </g>
    <g
       transform="translate(3.8414097e-8,-4.7294498e-6)"
       id="g885">
      <path
         inkscape:connector-curvature="0"
         style="fill:#ffffff;fill-opacity:1;fill-rule:nonzero;stroke:none;stroke-width:0.89142859"
         d="M 137.66602,100 C 116.79885,100 100,120.55874 100,146.09766 V 365.90039 C 100,391.43931 116.79885,412 137.66602,412 H 374.33398 C 395.20114,412 412,391.43931 412,365.90039 V 146.09766 C 412,120.55874 395.20114,100 374.33398,100 Z m 16.91015,23.10938 h 197.71289 c 17.43256,0 31.4668,17.17436 31.4668,38.50976 v 183.625 c 0,21.33539 -14.03424,38.51172 -31.4668,38.51172 H 154.57617 c -17.43257,0 -31.46679,-17.17633 -31.46679,-38.51172 v -183.625 c 0,-21.3354 14.03422,-38.50976 31.46679,-38.50976 z"
         id="path875" />
      <path
         id="rect4444-3"
         transform="translate(-3.8414097e-8,4.7294498e-6)"
         d="M 166.80664 140.22656 C 151.60654 140.22656 139.37109 155.20158 139.37109 173.80469 L 139.37109 333.91406 C 139.37109 352.51717 151.60654 367.49414 166.80664 367.49414 L 339.20117 367.49414 C 354.40126 367.49414 366.63867 352.51717 366.63867 333.91406 L 366.63867 173.80469 C 366.63867 155.20158 354.40126 140.22656 339.20117 140.22656 L 166.80664 140.22656 z M 253.88086 170.5957 C 256.39223 170.5957 259.41826 171.99426 262.95703 174.79102 C 266.83826 177.93025 268.77734 181.15632 268.77734 184.4668 C 268.77734 188.11972 267.23645 191.11493 264.1543 193.45508 C 261.58583 195.39568 258.90418 196.36719 256.10742 196.36719 C 253.48188 196.36719 250.40007 194.96864 246.86133 192.17188 C 242.98009 189.03265 241.03906 185.77963 241.03906 182.41211 C 241.03906 178.70209 242.63768 175.70495 245.83398 173.42188 C 248.45952 171.53834 251.14117 170.5957 253.88086 170.5957 z M 247.54492 204.8418 C 258.73197 204.8418 273.1445 206.0422 290.78125 208.43945 C 297.80169 209.40975 301.3125 213.34761 301.3125 220.25391 C 301.3125 223.90683 299.88508 226.78857 297.03125 228.90039 C 294.6911 230.66978 292.03637 231.55469 289.06836 231.55469 C 286.10038 231.55469 277.96687 230.75634 264.66797 229.1582 C 263.86889 239.66034 263.4707 253.61501 263.4707 271.02344 L 263.38477 309.46484 C 270.97597 309.2936 278.70931 309.20703 286.58594 309.20703 C 290.01053 309.20703 292.8365 310.34974 295.0625 312.63281 C 297.34557 314.91589 298.48633 317.65526 298.48633 320.85156 C 298.48633 324.04786 297.34557 326.78724 295.0625 329.07031 C 292.8365 331.29631 290.01053 332.41016 286.58594 332.41016 C 283.38963 332.41016 278.59572 332.49476 272.20312 332.66602 C 265.81052 332.78028 261.01662 332.83789 257.82031 332.83789 C 254.05323 332.83789 248.40132 333.32266 240.86719 334.29297 C 233.33303 335.32037 227.68308 335.83398 223.91602 335.83398 C 220.49142 335.83398 217.63659 334.72014 215.35352 332.49414 C 213.12752 330.21107 212.01563 327.47169 212.01562 324.27539 C 212.01563 321.07909 213.12752 318.33971 215.35352 316.05664 C 217.63659 313.77357 220.49142 312.63281 223.91602 312.63281 C 227.79725 312.63281 232.90473 312.20382 239.24023 311.34766 C 239.12597 304.61258 239.07031 291.71406 239.07031 272.65039 C 239.07031 257.12549 239.6397 242.31282 240.78125 228.21484 L 222.20312 228.72852 C 218.7785 228.72852 215.89679 227.61662 213.55664 225.39062 C 211.27357 223.16463 210.13086 220.39638 210.13086 217.08594 C 210.13086 213.71842 211.27357 210.97904 213.55664 208.86719 C 215.66849 206.92658 218.26553 205.81274 221.34766 205.52734 C 226.37042 205.07072 235.10215 204.8418 247.54492 204.8418 z "
         style="fill:#ffffff;fill-opacity:1;fill-rule:nonzero;stroke:none;stroke-width:0.64933586" />
    </g>
  </g>
</svg>
