<?xml version="1.0" encoding="UTF-8" standalone="no"?>
<svg
   xmlns:dc="http://purl.org/dc/elements/1.1/"
   xmlns:cc="http://creativecommons.org/ns#"
   xmlns:rdf="http://www.w3.org/1999/02/22-rdf-syntax-ns#"
   xmlns:svg="http://www.w3.org/2000/svg"
   xmlns="http://www.w3.org/2000/svg"
   xmlns:sodipodi="http://sodipodi.sourceforge.net/DTD/sodipodi-0.dtd"
   xmlns:inkscape="http://www.inkscape.org/namespaces/inkscape"
   height="512"
   id="Layer_1"
   version="1.1"
   viewBox="0 0 512 512"
   width="512"
   xml:space="preserve"
   inkscape:version="0.92.3 (2405546, 2018-03-11)"
   sodipodi:docname="imageshack-uploader.svg"><metadata
     id="metadata52"><rdf:RDF><cc:Work
         rdf:about=""><dc:format>image/svg+xml</dc:format><dc:type
           rdf:resource="http://purl.org/dc/dcmitype/StillImage" /><dc:title></dc:title></cc:Work></rdf:RDF></metadata><defs
     id="defs50" /><sodipodi:namedview
     pagecolor="#ffffff"
     bordercolor="#666666"
     borderopacity="1"
     objecttolerance="10"
     gridtolerance="10"
     guidetolerance="10"
     inkscape:pageopacity="0"
     inkscape:pageshadow="2"
     inkscape:window-width="1366"
     inkscape:window-height="720"
     id="namedview48"
     showgrid="false"
     inkscape:zoom="0.23046515"
     inkscape:cx="315.14653"
     inkscape:cy="634.16355"
     inkscape:window-x="0"
     inkscape:window-y="23"
     inkscape:window-maximized="1"
     inkscape:current-layer="Layer_1" /><g
     id="g18"
     transform="translate(0,447.999)" /><g
     id="g20"
     transform="translate(0,447.999)" /><g
     id="g22"
     transform="translate(0,447.999)" /><g
     id="g24"
     transform="translate(0,447.999)" /><g
     id="g26"
     transform="translate(0,447.999)" /><g
     id="g28"
     transform="translate(0,447.999)" /><g
     id="g30"
     transform="translate(0,447.999)" /><g
     id="g32"
     transform="translate(0,447.999)" /><g
     id="g34"
     transform="translate(0,447.999)" /><g
     id="g36"
     transform="translate(0,447.999)" /><g
     id="g38"
     transform="translate(0,447.999)" /><g
     id="g40"
     transform="translate(0,447.999)" /><g
     id="g42"
     transform="translate(0,447.999)" /><g
     id="g44"
     transform="translate(0,447.999)" /><g
     id="g46"
     transform="translate(0,447.999)" /><g
     id="g855"><path
       id="path1165"
       d="M 432.91328,56.474967 C 535.10618,145.04845 538.74005,306.17451 441.03006,416.37298 343.32007,526.57147 181.27962,544.10043 79.086743,455.52693 -23.106206,366.95112 -26.740033,205.82737 70.969944,95.626594 168.67988,-14.571864 330.72033,-32.100847 432.91328,56.474967 Z"
       inkscape:connector-curvature="0"
       style="fill:#68b723;fill-opacity:1;stroke-width:11.10954762" /><path
       id="path1167"
       d="M 511.63552,224.90399 C 510.08416,286.21586 486.47428,349.05908 440.66913,400.71744 342.95911,510.9159 180.91867,528.44488 78.725762,439.8714 30.827125,398.35527 4.4968196,340.92295 0.19382737,280.22781 0.79908097,346.5852 27.117406,410.48266 79.078693,455.51762 181.27157,544.09343 343.31972,526.55517 441.02203,416.36599 c 49.70494,-56.05921 73.00501,-125.29079 70.61349,-191.462 z"
       inkscape:connector-curvature="0"
       style="opacity:1;fill:#000000;fill-opacity:0.49019608;stroke-width:11.10954762" /><path
       style="fill:#000000;fill-opacity:0.49019608;stroke-width:0.69658381"
       d="m 392.68957,401.38335 c -5.2616,-2.39688 -5.7923,-2.47109 -19.4489,-2.71967 -9.138,-0.16631 -17.8781,0.18737 -25.0336,1.01303 -6.0465,0.69772 -13.0926,1.26858 -15.6579,1.26858 -5.778,0 -13.6735,-2.37488 -19.0173,-5.72029 -4.4329,-2.77512 -22.949,-20.63522 -28.0974,-27.10185 -1.7743,-2.22866 -7.1374,-8.0637 -11.9179,-12.96677 -4.7804,-4.90305 -9.9498,-10.54692 -11.4874,-12.5419 -1.5376,-1.99498 -4.43676,-5.29494 -6.44257,-7.33323 -4.53198,-4.60539 -6.11287,-6.87255 -9.83744,-14.10753 l -2.94877,-5.7281 -9.61279,-0.0178 c -5.74654,-0.0106 -10.26465,-0.39356 -11.2336,-0.95201 -0.89142,-0.51378 -3.12836,-1.48872 -4.97081,-2.16651 -4.36812,-1.60692 -5.1411,-0.95473 -8.03974,6.78327 -1.25229,3.34299 -2.87038,6.80756 -3.59575,7.69902 -4.80121,5.90049 -3.04543,8.8281 5.1591,8.60238 6.41793,-0.17655 8.52991,0.74602 10.82111,4.72706 1.81251,3.14936 9.80289,10.57804 11.37786,10.57804 1.48073,0 9.91406,8.5047 9.91406,9.99797 0,2.95945 -2.3091,5.98345 -4.97625,6.51686 -1.43845,0.2877 -2.82186,0.20326 -3.07431,-0.18761 -0.77592,-1.20168 -4.1058,-1.9497 -4.1058,-0.92235 0,0.8891 10.80694,12.14952 11.66018,12.14952 1.07581,0 7.50514,4.94092 8.4472,6.49166 1.48086,2.43754 0.51157,6.05164 -1.92007,7.15959 -3.04246,1.38622 -9.32342,-2.01484 -16.67552,-9.02959 -8.15114,-7.77704 -13.47792,-11.13658 -21.45377,-13.5306 -3.82308,-1.14751 -5.968,-0.68177 -10.27406,2.23087 -3.67085,2.48298 -10.60592,11.09987 -12.74652,15.8377 -2.4594,5.44335 -3.57078,6.4707 -6.34162,5.86212 -3.41671,-0.75045 -5.47817,-6.38272 -6.98118,-19.07387 -1.99255,-16.82481 -4.23182,-22.45466 -10.0383,-25.23778 -10.40713,-4.98826 -16.8971,-11.43523 -22.05211,-21.90602 -6.30399,-12.80454 -11.86753,-23.11796 -13.86433,-25.70099 -0.82176,-1.063 -1.49114,-2.33942 -1.48752,-2.83648 0.003,-0.49705 -1.2322,-3.82125 -2.74629,-7.38712 -3.13382,-7.38051 -4.73267,-14.71678 -3.65328,-16.76301 0.39601,-0.75072 0.72002,-2.13584 0.72002,-3.07802 0,-2.0376 4.8729,-9.88576 7.85269,-12.64733 2.47435,-2.29316 6.44404,-4.39083 8.27769,-4.37412 3.8771,0.0353 14.04086,5.29517 14.98466,7.75468 0.88821,2.31463 2.94853,1.04243 5.03101,-3.10653 1.17458,-2.3401 3.79407,-5.81386 5.8211,-7.71947 l 3.6855,-3.46474 -0.94489,-4.09351 c -1.25879,-5.45334 -1.19129,-8.51893 0.298,-13.5339 0.78195,-2.63311 1.90905,-4.54964 3.03909,-5.16772 0.98791,-0.54034 5.7546,-1.4413 10.59265,-2.00216 9.08275,-1.05291 12.84233,-2.41347 18.35272,-6.64174 3.5306,-2.70912 6.46247,-3.68274 16.20847,-5.38258 4.23448,-0.73855 9.22808,-1.68154 11.09702,-2.09553 1.86886,-0.414 4.65283,-0.75272 6.1865,-0.75272 1.97565,0 4.34132,-1.06315 8.11478,-3.64691 2.92941,-2.0058 5.59621,-3.6469 5.92626,-3.6469 0.33004,0 1.8961,-0.89714 3.48006,-1.99362 2.0761,-1.43708 5.14246,-2.34303 10.98429,-3.24526 9.59237,-1.48147 17.35457,-3.45375 19.04497,-4.83904 1.1305,-0.92655 4.07,-2.39092 8.9268,-4.44724 1.1077,-0.46895 4.202,-2.15469 6.8764,-3.74609 14.4645,-8.60704 27.1715,-13.83717 38.4951,-15.84442 6.2999,-1.1167 11.3656,-3.85223 13.0221,-7.03194 2.6445,-5.07624 8.912,-10.01094 14.7183,-11.58824 4.0177,-1.09142 12.64,-0.54718 19.3823,1.22341 3.3052,0.86798 5.3286,0.98553 7.2885,0.42343 5.0799,-1.45693 13.933,-0.91068 21.1048,1.30221 3.7081,1.14417 7.862,2.42058 9.2308,2.83648 1.3689,0.4159 3.5938,0.75618 4.9442,0.75618 7.0383,0 9.7406,3.49445 8.71,11.26335 -1.3074,9.85535 -18.8673,31.34384 -53.1168,65.00046 -5.638,5.54028 -8.4925,9.04325 -9.9063,12.15636 -1.0923,2.40532 -4.9406,7.78901 -8.5517,11.96377 -5.6623,6.54619 -6.5611,7.9956 -6.533,10.5355 0.036,3.25827 2.0903,8.34132 6.5945,16.31704 3.4624,6.13105 5.8798,12.9714 7.1787,20.31356 0.5075,2.86812 1.2281,6.91193 1.6015,8.98623 0.3734,2.0743 1.2481,4.87213 1.9438,6.21742 1.6784,3.24572 11.2995,8.50431 18.7128,10.22787 3.1201,0.7254 6.9494,1.66452 8.5094,2.08692 1.5601,0.42239 4.2953,1.13155 6.0782,1.57592 1.7829,0.44435 6.6766,2.54705 10.8747,4.67264 10.8502,5.49365 13.3627,9.69787 7.0525,11.80128 -1.7326,0.57751 -2.5956,0.41077 -3.9449,-0.76218 -1.7095,-1.48606 -1.709,-1.47518 0.054,1.06426 2.7233,3.92381 3.0822,7.06028 1.0414,9.10105 -2.4823,2.48228 -5.7787,2.17587 -8.8452,-0.82218 -1.4218,-1.39008 -2.5851,-2.76591 -2.5851,-3.05739 0,-1.44774 -13.3348,-6.57153 -17.1026,-6.57153 -1.3498,0 -3.1712,-0.38376 -4.0477,-0.8528 -0.8763,-0.46906 -3.7307,-0.86305 -6.343,-0.87554 -5.5635,-0.0266 -10.5451,2.57321 -12.6204,6.58648 -0.9533,1.84348 -1.8215,2.43568 -3.5708,2.43568 -2.9123,0 -3.7972,-1.12639 -4.3598,-5.55002 -0.8009,-6.29637 -5.3507,-9.03394 -10.3062,-6.20112 -5.4785,3.1318 -7.5828,-0.0421 -3.2783,-4.94472 1.3171,-1.50009 2.8278,-4.17294 3.3572,-5.93964 1.5059,-5.02633 -1.4079,-13.19471 -13.1076,-36.74525 -4.804,-9.67005 -7.3115,-13.058 -10.7048,-14.46357 -5.2029,-2.1551 -9.1356,-0.15246 -19.8105,10.08821 -8.2235,7.88891 -13.3726,14.85327 -16.0691,21.73382 -2.3303,5.94636 -2.4329,8.18944 -0.656,14.34314 1.221,4.2282 9.7905,18.45753 13.1371,21.81341 0.7725,0.77462 2.4755,2.85906 3.7845,4.63208 1.309,1.77303 3.5641,4.26338 5.0114,5.53412 1.4473,1.27074 3.7973,4.34814 5.2223,6.83864 3.5702,6.24007 14.2981,17.22571 16.8216,17.22571 1.2855,0 3.2855,-1.42982 5.9513,-4.25473 11.8567,-12.56391 13.9209,-14.34978 16.6063,-14.36761 3.1153,-0.0207 3.955,2.02796 3.1723,7.73909 l -0.492,3.58944 2.6184,-0.0591 c 7.8115,-0.17651 23.9136,-4.38585 29.4689,-7.70363 5.6113,-3.35129 9.6293,-4.4262 13.5946,-3.63688 7.3043,1.45398 9.2158,3.15263 7.7845,6.91738 -0.7874,2.07104 -3.9112,3.24267 -13.7867,5.17099 -11.9902,2.34126 -17.1071,3.71926 -21.0945,5.68086 -5.0915,2.50484 -6.4871,4.2545 -4.7663,5.97533 1.5147,1.51473 4.2765,2.1255 13.7044,3.03074 9.7316,0.93438 13.9101,1.84951 19.2466,4.21503 3.5967,1.59438 4.2537,2.21954 4.2546,4.04814 7e-4,1.5891 -0.7353,2.6177 -2.7759,3.87889 -3.6427,2.25132 -7.2941,1.95454 -14.1005,-1.14608 z"
       id="path79"
       inkscape:connector-curvature="0" /><path
       inkscape:connector-curvature="0"
       id="path4167"
       d="m 372.68957,381.38335 c -5.2616,-2.39688 -5.7923,-2.47109 -19.4489,-2.71967 -9.138,-0.16631 -17.8781,0.18737 -25.0336,1.01303 -6.0465,0.69772 -13.0926,1.26858 -15.6579,1.26858 -5.778,0 -13.6735,-2.37488 -19.0173,-5.72029 -4.4329,-2.77512 -22.949,-20.63522 -28.0974,-27.10185 -1.7743,-2.22866 -7.1374,-8.0637 -11.9179,-12.96677 -4.7804,-4.90305 -9.9498,-10.54692 -11.4874,-12.5419 -1.5376,-1.99498 -4.43676,-5.29494 -6.44257,-7.33323 -4.53198,-4.60539 -6.11287,-6.87255 -9.83744,-14.10753 l -2.94877,-5.7281 -9.61279,-0.0178 c -5.74654,-0.0106 -10.26465,-0.39356 -11.2336,-0.95201 -0.89142,-0.51378 -3.12836,-1.48872 -4.97081,-2.16651 -4.36812,-1.60692 -5.1411,-0.95473 -8.03974,6.78327 -1.25229,3.34299 -2.87038,6.80756 -3.59575,7.69902 -4.80121,5.90049 -3.04543,8.8281 5.1591,8.60238 6.41793,-0.17655 8.52991,0.74602 10.82111,4.72706 1.81251,3.14936 9.80289,10.57804 11.37786,10.57804 1.48073,0 9.91406,8.5047 9.91406,9.99797 0,2.95945 -2.3091,5.98345 -4.97625,6.51686 -1.43845,0.2877 -2.82186,0.20326 -3.07431,-0.18761 -0.77592,-1.20168 -4.1058,-1.9497 -4.1058,-0.92235 0,0.8891 10.80694,12.14952 11.66018,12.14952 1.07581,0 7.50514,4.94092 8.4472,6.49166 1.48086,2.43754 0.51157,6.05164 -1.92007,7.15959 -3.04246,1.38622 -9.32342,-2.01484 -16.67552,-9.02959 -8.15114,-7.77704 -13.47792,-11.13658 -21.45377,-13.5306 -3.82308,-1.14751 -5.968,-0.68177 -10.27406,2.23087 -3.67085,2.48298 -10.60592,11.09987 -12.74652,15.8377 -2.4594,5.44335 -3.57078,6.4707 -6.34162,5.86212 -3.41671,-0.75045 -5.47817,-6.38272 -6.98118,-19.07387 -1.99255,-16.82481 -4.23182,-22.45466 -10.0383,-25.23778 -10.40713,-4.98826 -16.8971,-11.43523 -22.05211,-21.90602 -6.30399,-12.80454 -11.86753,-23.11796 -13.86433,-25.70099 -0.82176,-1.063 -1.49114,-2.33942 -1.48752,-2.83648 0.003,-0.49705 -1.2322,-3.82125 -2.74629,-7.38712 -3.13382,-7.38051 -4.73267,-14.71678 -3.65328,-16.76301 0.39601,-0.75072 0.72002,-2.13584 0.72002,-3.07802 0,-2.0376 4.8729,-9.88576 7.85269,-12.64733 2.47435,-2.29316 6.44404,-4.39083 8.27769,-4.37412 3.8771,0.0353 14.04086,5.29517 14.98466,7.75468 0.88821,2.31463 2.94853,1.04243 5.03101,-3.10653 1.17458,-2.3401 3.79407,-5.81386 5.8211,-7.71947 l 3.6855,-3.46474 -0.94489,-4.09351 c -1.25879,-5.45334 -1.19129,-8.51893 0.298,-13.5339 0.78195,-2.63311 1.90905,-4.54964 3.03909,-5.16772 0.98791,-0.54034 5.7546,-1.4413 10.59265,-2.00216 9.08275,-1.05291 12.84233,-2.41347 18.35272,-6.64174 3.5306,-2.70912 6.46247,-3.68274 16.20847,-5.38258 4.23448,-0.73855 9.22808,-1.68154 11.09702,-2.09553 1.86886,-0.414 4.65283,-0.75272 6.1865,-0.75272 1.97565,0 4.34132,-1.06315 8.11478,-3.64691 2.92941,-2.0058 5.59621,-3.6469 5.92626,-3.6469 0.33004,0 1.8961,-0.89714 3.48006,-1.99362 2.0761,-1.43708 5.14246,-2.34303 10.98429,-3.24526 9.59237,-1.48147 17.35457,-3.45375 19.04497,-4.83904 1.1305,-0.92655 4.07,-2.39092 8.9268,-4.44724 1.1077,-0.46895 4.202,-2.15469 6.8764,-3.74609 14.4645,-8.60704 27.1715,-13.83717 38.4951,-15.84442 6.2999,-1.1167 11.3656,-3.85223 13.0221,-7.03194 2.6445,-5.07624 8.912,-10.01094 14.7183,-11.58824 4.0177,-1.09142 12.64,-0.54718 19.3823,1.22341 3.3052,0.86798 5.3286,0.98553 7.2885,0.42343 5.0799,-1.45693 13.933,-0.91068 21.1048,1.30221 3.7081,1.14417 7.862,2.42058 9.2308,2.83648 1.3689,0.4159 3.5938,0.75618 4.9442,0.75618 7.0383,0 9.7406,3.49445 8.71,11.26335 -1.3074,9.85535 -18.8673,31.34384 -53.1168,65.00046 -5.638,5.54028 -8.4925,9.04325 -9.9063,12.15636 -1.0923,2.40532 -4.9406,7.78901 -8.5517,11.96377 -5.6623,6.54619 -6.5611,7.9956 -6.533,10.5355 0.036,3.25827 2.0903,8.34132 6.5945,16.31704 3.4624,6.13105 5.8798,12.9714 7.1787,20.31356 0.5075,2.86812 1.2281,6.91193 1.6015,8.98623 0.3734,2.0743 1.2481,4.87213 1.9438,6.21742 1.6784,3.24572 11.2995,8.50431 18.7128,10.22787 3.1201,0.7254 6.9494,1.66452 8.5094,2.08692 1.5601,0.42239 4.2953,1.13155 6.0782,1.57592 1.7829,0.44435 6.6766,2.54705 10.8747,4.67264 10.8502,5.49365 13.3627,9.69787 7.0525,11.80128 -1.7326,0.57751 -2.5956,0.41077 -3.9449,-0.76218 -1.7095,-1.48606 -1.709,-1.47518 0.054,1.06426 2.7233,3.92381 3.0822,7.06028 1.0414,9.10105 -2.4823,2.48228 -5.7787,2.17587 -8.8452,-0.82218 -1.4218,-1.39008 -2.5851,-2.76591 -2.5851,-3.05739 0,-1.44774 -13.3348,-6.57153 -17.1026,-6.57153 -1.3498,0 -3.1712,-0.38376 -4.0477,-0.8528 -0.8763,-0.46906 -3.7307,-0.86305 -6.343,-0.87554 -5.5635,-0.0266 -10.5451,2.57321 -12.6204,6.58648 -0.9533,1.84348 -1.8215,2.43568 -3.5708,2.43568 -2.9123,0 -3.7972,-1.12639 -4.3598,-5.55002 -0.8009,-6.29637 -5.3507,-9.03394 -10.3062,-6.20112 -5.4785,3.1318 -7.5828,-0.0421 -3.2783,-4.94472 1.3171,-1.50009 2.8278,-4.17294 3.3572,-5.93964 1.5059,-5.02633 -1.4079,-13.19471 -13.1076,-36.74525 -4.804,-9.67005 -7.3115,-13.058 -10.7048,-14.46357 -5.2029,-2.1551 -9.1356,-0.15246 -19.8105,10.08821 -8.2235,7.88891 -13.3726,14.85327 -16.0691,21.73382 -2.3303,5.94636 -2.4329,8.18944 -0.656,14.34314 1.221,4.2282 9.7905,18.45753 13.1371,21.81341 0.7725,0.77462 2.4755,2.85906 3.7845,4.63208 1.309,1.77303 3.5641,4.26338 5.0114,5.53412 1.4473,1.27074 3.7973,4.34814 5.2223,6.83864 3.5702,6.24007 14.2981,17.22571 16.8216,17.22571 1.2855,0 3.2855,-1.42982 5.9513,-4.25473 11.8567,-12.56391 13.9209,-14.34978 16.6063,-14.36761 3.1153,-0.0207 3.955,2.02796 3.1723,7.73909 l -0.492,3.58944 2.6184,-0.0591 c 7.8115,-0.17651 23.9136,-4.38585 29.4689,-7.70363 5.6113,-3.35129 9.6293,-4.4262 13.5946,-3.63688 7.3043,1.45398 9.2158,3.15263 7.7845,6.91738 -0.7874,2.07104 -3.9112,3.24267 -13.7867,5.17099 -11.9902,2.34126 -17.1071,3.71926 -21.0945,5.68086 -5.0915,2.50484 -6.4871,4.2545 -4.7663,5.97533 1.5147,1.51473 4.2765,2.1255 13.7044,3.03074 9.7316,0.93438 13.9101,1.84951 19.2466,4.21503 3.5967,1.59438 4.2537,2.21954 4.2546,4.04814 7e-4,1.5891 -0.7353,2.6177 -2.7759,3.87889 -3.6427,2.25132 -7.2941,1.95454 -14.1005,-1.14608 z"
       style="fill:#ffffff;fill-opacity:1;stroke-width:0.69658381" /></g></svg>