<?xml version="1.0" encoding="UTF-8" standalone="no"?>
<svg
   xmlns:dc="http://purl.org/dc/elements/1.1/"
   xmlns:cc="http://creativecommons.org/ns#"
   xmlns:rdf="http://www.w3.org/1999/02/22-rdf-syntax-ns#"
   xmlns:svg="http://www.w3.org/2000/svg"
   xmlns="http://www.w3.org/2000/svg"
   xmlns:xlink="http://www.w3.org/1999/xlink"
   xmlns:sodipodi="http://sodipodi.sourceforge.net/DTD/sodipodi-0.dtd"
   xmlns:inkscape="http://www.inkscape.org/namespaces/inkscape"
   viewBox="0 0 512 512"
   version="1.0"
   id="svg2"
   height="512"
   width="512"
   inkscape:version="0.92.3 (2405546, 2018-03-11)"
   sodipodi:docname="input-keyboard.svg">
  <sodipodi:namedview
     pagecolor="#ffffff"
     bordercolor="#666666"
     borderopacity="1"
     objecttolerance="10"
     gridtolerance="10"
     guidetolerance="10"
     inkscape:pageopacity="0"
     inkscape:pageshadow="2"
     inkscape:window-width="1366"
     inkscape:window-height="720"
     id="namedview30"
     showgrid="false"
     inkscape:zoom="0.41308595"
     inkscape:cx="48.540607"
     inkscape:cy="343.3429"
     inkscape:window-x="0"
     inkscape:window-y="23"
     inkscape:window-maximized="1"
     inkscape:current-layer="svg2" />
  <defs
     id="defs4">
    <linearGradient
       id="linearGradient4132">
      <stop
         id="stop4134"
         offset="0"
         style="stop-color:#f2f2f2;stop-opacity:1;" />
      <stop
         id="stop4136"
         offset="1"
         style="stop-color:#f2f2f2;stop-opacity:0;" />
    </linearGradient>
    <linearGradient
       id="linearGradient3155">
      <stop
         id="stop3157"
         offset="0"
         style="stop-color:#303030;stop-opacity:1;" />
      <stop
         id="stop3159"
         offset="1"
         style="stop-color:#303030;stop-opacity:0;" />
    </linearGradient>
    <linearGradient
       id="linearGradient6067">
      <stop
         id="stop6069"
         offset="0"
         style="stop-color:#ffffff;stop-opacity:1;" />
      <stop
         id="stop6071"
         offset="1"
         style="stop-color:#ffffff;stop-opacity:0;" />
    </linearGradient>
    <linearGradient
       id="linearGradient3142">
      <stop
         id="stop3144"
         offset="0"
         style="stop-color:#303030;stop-opacity:1;" />
      <stop
         id="stop3146"
         offset="1"
         style="stop-color:#303030;stop-opacity:0;" />
    </linearGradient>
    <linearGradient
       gradientTransform="matrix(1.6258627,0,0,1.6258627,-28.787153,-52.145846)"
       gradientUnits="userSpaceOnUse"
       y2="110.71667"
       x2="92.804863"
       y1="75.855133"
       x1="92.804863"
       id="linearGradient3148"
       xlink:href="#linearGradient3142" />
    <linearGradient
       gradientUnits="userSpaceOnUse"
       y2="119.78299"
       x2="29.731594"
       y1="96.211563"
       x1="29.731594"
       id="linearGradient6073"
       xlink:href="#linearGradient6067" />
    <linearGradient
       gradientUnits="userSpaceOnUse"
       y2="124.82345"
       x2="100.75668"
       y1="85.389313"
       x1="100.75668"
       id="linearGradient3161"
       xlink:href="#linearGradient3155" />
    <linearGradient
       gradientTransform="translate(-2.2728432)"
       gradientUnits="userSpaceOnUse"
       y2="-115.67227"
       x2="96.899597"
       y1="-101.65641"
       x1="96.899597"
       id="linearGradient4138"
       xlink:href="#linearGradient4132" />
    <filter
       style="color-interpolation-filters:sRGB"
       height="1"
       width="1"
       y="0"
       x="0"
       id="filter3004">
      <feColorMatrix
         result="result2"
         type="saturate"
         in="SourceGraphic"
         values="1"
         id="feColorMatrix3006" />
      <feFlood
         result="result1"
         flood-opacity="1"
         flood-color="rgb(254,102,0)"
         id="feFlood3008" />
      <feBlend
         result="result3"
         in="result1"
         mode="multiply"
         in2="result2"
         id="feBlend3010" />
      <feComposite
         result="result4"
         operator="in"
         in2="SourceGraphic"
         id="feComposite3012" />
    </filter>
  </defs>
  <metadata
     id="metadata7">
    <rdf:RDF>
      <cc:Work
         rdf:about="">
        <dc:format>image/svg+xml</dc:format>
        <dc:type
           rdf:resource="http://purl.org/dc/dcmitype/StillImage" />
        <dc:title></dc:title>
      </cc:Work>
    </rdf:RDF>
  </metadata>
  <g
     id="g905">
    <path
       id="path1165"
       d="M 432.91328,56.474952 C 535.10618,145.04846 538.74005,306.17452 441.03006,416.37299 343.32007,526.57148 181.27962,544.10044 79.086743,455.52694 -23.106206,366.95112 -26.740033,205.82738 70.969944,95.626579 168.67988,-14.571879 330.72033,-32.100862 432.91328,56.474952 Z"
       inkscape:connector-curvature="0"
       style="fill:#3689e6;fill-opacity:1;stroke-width:11.10954762" />
    <path
       id="path1167"
       d="M 511.63552,224.904 C 510.08416,286.21587 486.47428,349.05909 440.66913,400.71745 342.95911,510.91591 180.91867,528.44488 78.725762,439.87141 30.827125,398.35528 4.4968196,340.92296 0.19382741,280.22782 0.79908101,346.58521 27.117406,410.48267 79.078693,455.51763 181.27157,544.09344 343.31972,526.55518 441.02203,416.366 490.72697,360.30678 514.02704,291.07521 511.63552,224.904 Z"
       inkscape:connector-curvature="0"
       style="opacity:1;fill:#000000;fill-opacity:0.49019608;stroke-width:11.10954762" />
    <g
       style="fill:#000000;fill-opacity:0.49019608"
       id="g90"
       transform="translate(20,20)">
      <path
         id="path86"
         d="M 137.66602,100 C 116.79885,100 100,120.55874 100,146.09766 V 365.90039 C 100,391.43931 116.79885,412 137.66602,412 H 374.33398 C 395.20114,412 412,391.43931 412,365.90039 V 146.09766 C 412,120.55874 395.20114,100 374.33398,100 Z m 16.91015,23.10938 h 197.71289 c 17.43256,0 31.4668,17.17436 31.4668,38.50976 v 183.625 c 0,21.33539 -14.03424,38.51172 -31.4668,38.51172 H 154.57617 c -17.43257,0 -31.46679,-17.17633 -31.46679,-38.51172 v -183.625 c 0,-21.3354 14.03422,-38.50976 31.46679,-38.50976 z"
         style="fill:#000000;fill-opacity:0.49019608;fill-rule:nonzero;stroke:none;stroke-width:0.89142859"
         inkscape:connector-curvature="0" />
      <path
         inkscape:connector-curvature="0"
         style="fill:#000000;fill-opacity:0.49019608;fill-rule:nonzero;stroke:none;stroke-width:0.64933586"
         d="m 166.80664,140.22656 c -15.2001,0 -27.43555,14.97502 -27.43555,33.57813 v 160.10937 c 0,18.60311 12.23545,33.58008 27.43555,33.58008 h 172.39453 c 15.20009,0 27.4375,-14.97697 27.4375,-33.58008 V 173.80469 c 0,-18.60311 -12.23741,-33.57813 -27.4375,-33.57813 z m 167.72461,68.47656 c 3.4213,0 5.13086,1.72773 5.13086,5.1836 0,5.46027 -0.0851,11.71567 -0.25781,18.76562 -0.17287,7.01542 -0.25977,13.25264 -0.25977,18.71289 l -0.77734,25.76368 c 0,2.73013 -0.1376,6.73987 -0.41407,12.02734 -0.34557,3.45587 -2.04087,5.18359 -5.08203,5.18359 -3.38674,0 -5.08007,-1.76212 -5.08007,-5.28711 0,-4.18159 0.19017,-10.45516 0.57031,-18.81835 0.38015,-8.39777 0.57031,-14.68755 0.57031,-18.86915 0,-5.46025 0.0871,-11.69747 0.25977,-18.71289 0.17287,-7.04995 0.25976,-13.30535 0.25976,-18.76562 0,-3.45587 1.69334,-5.1836 5.08008,-5.1836 z m -123.78906,4.45899 c 2.38453,0 3.88771,1.57195 4.50976,4.7168 0.55294,2.79924 0.83008,6.2385 0.83008,10.3164 0,1.41692 -0.38035,2.66112 -1.14062,3.73242 -0.9331,1.34779 -2.26426,2.02149 -3.99219,2.02149 -2.21176,0 -3.87069,-1.29678 -4.97656,-3.88867 -0.96764,-2.21176 -1.86591,-3.55915 -2.69532,-4.04297 -0.72574,-0.38014 -2.52226,-0.57031 -5.39062,-0.57031 -5.01102,0 -10.57648,3.83578 -16.69336,11.50781 -8.29407,10.29847 -12.43945,20.06191 -12.43945,29.28906 0,4.45807 1.4324,8.29385 4.30078,11.50781 2.93748,3.31763 6.47992,4.97657 10.62695,4.97657 3.55955,0 7.13637,-0.91644 10.73047,-2.74805 2.00439,-1.03675 5.08148,-3.07603 9.22851,-6.11719 1.96987,-1.45148 3.45485,-2.17578 4.45704,-2.17578 1.48603,0 2.73022,0.56855 3.73242,1.70898 1.0022,1.10588 1.5039,2.35008 1.5039,3.73243 0,1.55514 -0.65747,2.92071 -1.9707,4.0957 -9.12349,8.08674 -18.3508,12.13086 -27.68164,12.13086 -7.15364,0 -13.2007,-2.74736 -18.14258,-8.24219 -4.7691,-5.32205 -7.15429,-11.61183 -7.15429,-18.86914 0,-11.71537 4.90799,-23.72445 14.72265,-36.02734 8.19039,-10.26392 16.45065,-15.39649 24.7793,-15.39649 1.69337,0 3.21276,0.0869 4.56055,0.25977 1.34777,0.13819 2.54136,0.37897 3.57812,0.72461 1.20957,-1.7625 2.78151,-2.64258 4.7168,-2.64258 z m 30.99804,6.53125 c 3.1103,0 4.925,2.53903 5.44336,7.61914 0.10369,1.27868 0.15625,2.81624 0.15625,4.61328 l -0.10351,3.00781 -0.0527,3.21289 c 4.28528,-0.55294 6.73929,-0.82812 7.36133,-0.82812 3.5941,0 5.94295,0.17198 7.04883,0.51758 2.10809,0.69116 3.16211,2.31571 3.16211,4.87304 0,1.52059 -0.48352,2.78295 -1.45117,3.78516 -0.93266,0.96719 -2.14187,1.45073 -3.62696,1.45117 -0.7254,-5e-5 -1.59229,-0.0344 -2.59375,-0.10351 -0.96763,-0.0692 -1.81332,-0.10547 -2.53906,-0.10547 -0.79485,0 -3.14566,0.26096 -7.05078,0.77929 l 0.98633,30.63477 0.0508,2.28125 0.0527,2.64453 c 0.1382,7.56836 -1.67651,11.35156 -5.44336,11.35156 -1.38233,0 -2.59213,-0.44912 -3.6289,-1.34765 -1.00221,-0.89852 -1.50391,-2.02135 -1.50391,-3.36914 0,-1.31324 0.0526,-3.28371 0.15625,-5.91016 0.10369,-2.62647 0.15625,-4.59499 0.15625,-5.9082 l -1.03711,-30.27344 c -2.5228,-0.10369 -6.35858,-0.39901 -11.50781,-0.88281 -3.07572,-0.41472 -4.61523,-2.12425 -4.61523,-5.13086 0,-1.52057 0.46731,-2.78295 1.40039,-3.78516 0.93307,-1.0022 2.12469,-1.50195 3.57617,-1.50195 l 10.88672,0.88086 c 0,-1.76251 -0.0869,-4.11331 -0.25977,-7.05078 -0.13818,-2.97205 -0.20703,-5.1145 -0.20703,-6.42774 0,-1.45146 0.50172,-2.64308 1.50391,-3.57617 1.0022,-0.96763 2.22822,-1.45117 3.67968,-1.45117 z m 65.26563,17.7793 c 2.79925,0 4.88914,1.05404 6.27148,3.16211 1.38235,2.10808 2.07422,5.28835 2.07422,9.53906 0,1.79706 -0.0182,3.00686 -0.0527,3.6289 -0.24192,4.31984 -1.96964,6.48047 -5.1836,6.48047 -2.97204,0 -4.45898,-1.7115 -4.45898,-5.13281 0,-0.65661 -0.0506,-1.86643 -0.1543,-3.62891 l -0.15625,-4.35351 c -5.46027,0.65663 -9.83216,2.19419 -13.11523,4.61328 -3.07572,2.24631 -5.63292,5.63296 -7.67188,10.16016 l 0.10352,28.40625 c 0,3.49042 -1.70954,5.23632 -5.13086,5.23632 -3.04116,0 -4.5625,-1.7459 -4.5625,-5.23632 v -36.38868 c 0,-1.14045 0.0343,-2.85194 0.10352,-5.13281 0.10369,-2.28086 0.15625,-3.99238 0.15625,-5.13281 0,-3.49043 1.52134,-5.23438 4.5625,-5.23438 3.38674,0 5.0963,2.86873 5.13086,8.60547 6.63526,-6.39334 13.99725,-9.59179 22.08398,-9.59179 z"
         transform="translate(-7.6828254e-8,9.4588998e-6)"
         id="path88" />
    </g>
    <g
       transform="translate(7.6828254e-8,-9.4588998e-6)"
       id="g885">
      <path
         inkscape:connector-curvature="0"
         style="fill:#ffffff;fill-opacity:1;fill-rule:nonzero;stroke:none;stroke-width:0.89142859"
         d="M 137.66602,100 C 116.79885,100 100,120.55874 100,146.09766 V 365.90039 C 100,391.43931 116.79885,412 137.66602,412 H 374.33398 C 395.20114,412 412,391.43931 412,365.90039 V 146.09766 C 412,120.55874 395.20114,100 374.33398,100 Z m 16.91015,23.10938 h 197.71289 c 17.43256,0 31.4668,17.17436 31.4668,38.50976 v 183.625 c 0,21.33539 -14.03424,38.51172 -31.4668,38.51172 H 154.57617 c -17.43257,0 -31.46679,-17.17633 -31.46679,-38.51172 v -183.625 c 0,-21.3354 14.03422,-38.50976 31.46679,-38.50976 z"
         id="path875" />
      <path
         id="rect4444-3"
         transform="translate(-7.6828254e-8,9.4588998e-6)"
         d="M 166.80664 140.22656 C 151.60654 140.22656 139.37109 155.20158 139.37109 173.80469 L 139.37109 333.91406 C 139.37109 352.51717 151.60654 367.49414 166.80664 367.49414 L 339.20117 367.49414 C 354.40126 367.49414 366.63867 352.51717 366.63867 333.91406 L 366.63867 173.80469 C 366.63867 155.20158 354.40126 140.22656 339.20117 140.22656 L 166.80664 140.22656 z M 334.53125 208.70312 C 337.95255 208.70312 339.66211 210.43085 339.66211 213.88672 C 339.66211 219.34699 339.57699 225.60239 339.4043 232.65234 C 339.23143 239.66776 339.14453 245.90498 339.14453 251.36523 L 338.36719 277.12891 C 338.36719 279.85904 338.22959 283.86878 337.95312 289.15625 C 337.60755 292.61212 335.91225 294.33984 332.87109 294.33984 C 329.48435 294.33984 327.79102 292.57772 327.79102 289.05273 C 327.79102 284.87114 327.98119 278.59757 328.36133 270.23438 C 328.74148 261.83661 328.93164 255.54683 328.93164 251.36523 C 328.93164 245.90498 329.01871 239.66776 329.19141 232.65234 C 329.36428 225.60239 329.45117 219.34699 329.45117 213.88672 C 329.45117 210.43085 331.14451 208.70312 334.53125 208.70312 z M 210.74219 213.16211 C 213.12672 213.16211 214.6299 214.73406 215.25195 217.87891 C 215.80489 220.67815 216.08203 224.11741 216.08203 228.19531 C 216.08203 229.61223 215.70168 230.85643 214.94141 231.92773 C 214.00831 233.27552 212.67715 233.94922 210.94922 233.94922 C 208.73746 233.94922 207.07853 232.65244 205.97266 230.06055 C 205.00502 227.84879 204.10675 226.5014 203.27734 226.01758 C 202.5516 225.63744 200.75508 225.44727 197.88672 225.44727 C 192.8757 225.44727 187.31024 229.28305 181.19336 236.95508 C 172.89929 247.25355 168.75391 257.01699 168.75391 266.24414 C 168.75391 270.70221 170.18631 274.53799 173.05469 277.75195 C 175.99217 281.06958 179.53461 282.72852 183.68164 282.72852 C 187.24119 282.72852 190.81801 281.81208 194.41211 279.98047 C 196.4165 278.94372 199.49359 276.90444 203.64062 273.86328 C 205.61049 272.4118 207.09547 271.6875 208.09766 271.6875 C 209.58369 271.6875 210.82788 272.25605 211.83008 273.39648 C 212.83228 274.50236 213.33398 275.74656 213.33398 277.12891 C 213.33398 278.68405 212.67651 280.04962 211.36328 281.22461 C 202.23979 289.31135 193.01248 293.35547 183.68164 293.35547 C 176.528 293.35547 170.48094 290.60811 165.53906 285.11328 C 160.76996 279.79123 158.38477 273.50145 158.38477 266.24414 C 158.38477 254.52877 163.29276 242.51969 173.10742 230.2168 C 181.29781 219.95288 189.55807 214.82031 197.88672 214.82031 C 199.58009 214.82031 201.09948 214.90721 202.44727 215.08008 C 203.79504 215.21827 204.98863 215.45905 206.02539 215.80469 C 207.23496 214.04219 208.8069 213.16211 210.74219 213.16211 z M 241.74023 219.69336 C 244.85053 219.69336 246.66523 222.23239 247.18359 227.3125 C 247.28728 228.59118 247.33984 230.12874 247.33984 231.92578 L 247.23633 234.93359 L 247.18359 238.14648 C 251.46887 237.59354 253.92288 237.31836 254.54492 237.31836 C 258.13902 237.31836 260.48787 237.49034 261.59375 237.83594 C 263.70184 238.5271 264.75586 240.15165 264.75586 242.70898 C 264.75586 244.22957 264.27234 245.49193 263.30469 246.49414 C 262.37203 247.46133 261.16282 247.94487 259.67773 247.94531 C 258.95233 247.94526 258.08544 247.91093 257.08398 247.8418 C 256.11635 247.77262 255.27066 247.73633 254.54492 247.73633 C 253.75007 247.73633 251.39926 247.99729 247.49414 248.51562 L 248.48047 279.15039 L 248.53125 281.43164 L 248.58398 284.07617 C 248.72218 291.64453 246.90747 295.42773 243.14062 295.42773 C 241.75829 295.42773 240.54849 294.97861 239.51172 294.08008 C 238.50951 293.18156 238.00781 292.05873 238.00781 290.71094 C 238.00781 289.3977 238.06038 287.42723 238.16406 284.80078 C 238.26775 282.17431 238.32031 280.20579 238.32031 278.89258 L 237.2832 248.61914 C 234.7604 248.51545 230.92462 248.22013 225.77539 247.73633 C 222.69967 247.32161 221.16016 245.61208 221.16016 242.60547 C 221.16016 241.0849 221.62747 239.82252 222.56055 238.82031 C 223.49362 237.81811 224.68524 237.31836 226.13672 237.31836 L 237.02344 238.19922 C 237.02344 236.43671 236.93655 234.08591 236.76367 231.14844 C 236.62549 228.17639 236.55664 226.03394 236.55664 224.7207 C 236.55664 223.26924 237.05836 222.07762 238.06055 221.14453 C 239.06275 220.1769 240.28877 219.69336 241.74023 219.69336 z M 307.00586 237.47266 C 309.80511 237.47266 311.895 238.5267 313.27734 240.63477 C 314.65969 242.74285 315.35156 245.92312 315.35156 250.17383 C 315.35156 251.97089 315.33336 253.18069 315.29883 253.80273 C 315.05691 258.12257 313.32919 260.2832 310.11523 260.2832 C 307.14319 260.2832 305.65625 258.5717 305.65625 255.15039 C 305.65625 254.49378 305.60564 253.28396 305.50195 251.52148 L 305.3457 247.16797 C 299.88543 247.8246 295.51354 249.36216 292.23047 251.78125 C 289.15475 254.02756 286.59755 257.41421 284.55859 261.94141 L 284.66211 290.34766 C 284.66211 293.83808 282.95257 295.58398 279.53125 295.58398 C 276.49009 295.58398 274.96875 293.83808 274.96875 290.34766 L 274.96875 253.95898 C 274.96875 252.81853 275.00309 251.10704 275.07227 248.82617 C 275.17596 246.54531 275.22852 244.83379 275.22852 243.69336 C 275.22852 240.20293 276.74986 238.45898 279.79102 238.45898 C 283.17776 238.45898 284.88732 241.32771 284.92188 247.06445 C 291.55714 240.67111 298.91913 237.47266 307.00586 237.47266 z "
         style="fill:#ffffff;fill-opacity:1;fill-rule:nonzero;stroke:none;stroke-width:0.64933586" />
    </g>
  </g>
</svg>
