<?xml version="1.0" encoding="UTF-8" standalone="no"?>
<!-- Generator: flash2svg, http://dissentgraphics.com/tools/flash2svg -->

<svg
   xmlns:dc="http://purl.org/dc/elements/1.1/"
   xmlns:cc="http://creativecommons.org/ns#"
   xmlns:rdf="http://www.w3.org/1999/02/22-rdf-syntax-ns#"
   xmlns:svg="http://www.w3.org/2000/svg"
   xmlns="http://www.w3.org/2000/svg"
   xmlns:sodipodi="http://sodipodi.sourceforge.net/DTD/sodipodi-0.dtd"
   xmlns:inkscape="http://www.inkscape.org/namespaces/inkscape"
   id="Messages"
   version="1.1"
   style="image-rendering:optimizeSpeed"
   x="0px"
   y="0px"
   width="512"
   height="512"
   viewBox="0 0 512 512"
   enable-background="new 0 0 1024 1024"
   inkscape:version="0.92.3 (2405546, 2018-03-11)"
   sodipodi:docname="internet-chat.svg">
  <metadata
     id="metadata25">
    <rdf:RDF>
      <cc:Work
         rdf:about="">
        <dc:format>image/svg+xml</dc:format>
        <dc:type
           rdf:resource="http://purl.org/dc/dcmitype/StillImage" />
        <dc:title></dc:title>
      </cc:Work>
    </rdf:RDF>
  </metadata>
  <sodipodi:namedview
     pagecolor="#ffffff"
     bordercolor="#666666"
     borderopacity="1"
     objecttolerance="10"
     gridtolerance="10"
     guidetolerance="10"
     inkscape:pageopacity="0"
     inkscape:pageshadow="2"
     inkscape:window-width="1366"
     inkscape:window-height="720"
     id="namedview23"
     showgrid="false"
     inkscape:zoom="0.65186406"
     inkscape:cx="416.83645"
     inkscape:cy="170.22987"
     inkscape:window-x="0"
     inkscape:window-y="23"
     inkscape:window-maximized="1"
     inkscape:current-layer="Messages" />
  <defs
     transform="matrix(1 0 0 1 0 0) "
     id="defs3" />
  <g
     style="image-rendering:optimizeSpeed"
     id="g829"
     transform="translate(1.8019335e-8,489.99996)">
    <path
       style="fill:#3689e6;fill-opacity:1;stroke-width:11.10955811"
       inkscape:connector-curvature="0"
       d="m 432.91327,-433.52599 c 102.19291,88.57459 105.82678,249.6997 8.1168,359.898785 C 343.3201,36.571877 181.27964,54.100646 79.086729,-34.473944 -23.106186,-123.04853 -26.740042,-284.17365 70.969928,-394.37273 168.6799,-504.57181 330.72036,-522.10058 432.91327,-433.52599 Z"
       id="path27" />
    <path
       style="opacity:1;fill:#000000;fill-opacity:0.49019608;stroke-width:11.10955811"
       inkscape:connector-curvature="0"
       d="m 511.63551,-265.09645 c -1.55139,61.31165 -25.16123,124.15461 -70.96638,175.81448 C 342.95915,20.917149 180.91869,38.44588 78.725776,-50.128672 30.827124,-91.644326 4.4968216,-149.07712 0.19382768,-209.77116 0.79907934,-143.41448 27.117411,-79.517787 79.078682,-34.480899 181.27159,54.093653 343.31975,36.55623 441.02202,-73.634197 490.72697,-129.6923 514.02704,-198.92516 511.63551,-265.09645 Z"
       id="path51" />
    <path
       style="fill:#000000;fill-opacity:0.49019608;stroke-width:0.75068015"
       d="m 413.8104,-59.269187 c -2.47725,-0.939099 -17.42245,-6.452031 -33.21156,-12.250885 -34.42142,-12.642028 -32.985,-12.428901 -47.95957,-7.115187 -21.86391,7.758425 -33.0622,9.691389 -56.20336,9.701291 -17.48651,0.0076 -23.67209,-0.580157 -36.03265,-3.423118 -65.53755,-15.073777 -113.41802,-68.147224 -119.72476,-132.709834 -6.01901,-61.61681 28.44668,-121.24649 85.94415,-148.69357 82.62599,-39.44251 181.97566,-2.04385 215.03965,80.94834 17.26235,43.32933 12.7751,90.90739 -12.48223,132.34764 -8.28034,13.5857 -8.37102,10.17914 1.30012,48.833458 4.54684,18.173065 8.16963,33.273147 8.05062,33.555667 -0.11868,0.282709 -2.24319,-0.25474 -4.72041,-1.193802 z M 214.18854,-191.6914 c 4.678,-2.26458 9.23619,-6.83501 11.5759,-11.60696 2.65104,-5.407 2.66976,-14.90446 0.04,-20.24879 -2.34351,-4.76235 -6.93206,-9.35092 -11.69444,-11.69446 -3.0735,-1.51238 -4.86236,-1.83734 -10.11465,-1.83734 -7.52245,0 -11.92916,1.75548 -16.91007,6.73633 -12.61193,12.61198 -7.33273,34.33236 9.70076,39.91219 4.58571,1.50221 12.94602,0.89639 17.40258,-1.26097 z m 72.0653,0 c 4.678,-2.26458 9.23619,-6.83501 11.5759,-11.60696 2.65104,-5.407 2.66976,-14.90446 0.04,-20.24879 -2.34352,-4.76235 -6.93206,-9.35092 -11.69444,-11.69446 -3.07351,-1.51238 -4.86237,-1.83734 -10.11466,-1.83734 -7.52245,0 -11.92916,1.75548 -16.91006,6.73633 -12.61194,12.61198 -7.33276,34.33236 9.70076,39.91219 4.5857,1.50221 12.94601,0.89639 17.40257,-1.26097 z m 72.0653,0 c 4.67798,-2.26458 9.2362,-6.83501 11.57588,-11.60696 2.65107,-5.407 2.66979,-14.90446 0.04,-20.24879 -2.34351,-4.76235 -6.93209,-9.35092 -11.69448,-11.69446 -3.07347,-1.51238 -4.86233,-1.83734 -10.11462,-1.83734 -7.52245,0 -11.92916,1.75548 -16.91006,6.73633 -12.61194,12.61198 -7.33276,34.33236 9.70075,39.91219 4.58571,1.50221 12.94602,0.89639 17.40258,-1.26097 z"
       id="path4540"
       inkscape:connector-curvature="0" />
    <path
       inkscape:connector-curvature="0"
       id="path4538"
       d="m 393.8104,-79.269132 c -2.47726,-0.939099 -17.42246,-6.452032 -33.21158,-12.250885 -34.42142,-12.642033 -32.985,-12.428903 -47.95957,-7.115188 -21.86391,7.758425 -33.0622,9.691389 -56.20336,9.701292 -17.48651,0.0076 -23.67209,-0.580158 -36.03265,-3.423119 -65.53755,-15.073778 -113.41802,-68.147228 -119.72475,-132.709838 -6.019019,-61.6168 28.44667,-121.24649 85.94414,-148.69357 82.62599,-39.4425 181.97567,-2.04385 215.03966,80.94834 17.26235,43.32933 12.7751,90.90739 -12.48223,132.34764 -8.28034,13.5857 -8.37101,10.17914 1.30012,48.83346 4.54685,18.173068 8.16964,33.27315 8.05062,33.555669 -0.11868,0.282709 -2.24319,-0.25474 -4.7204,-1.193801 z M 194.18852,-211.69134 c 4.678,-2.26458 9.23619,-6.83502 11.5759,-11.60697 2.65104,-5.40699 2.66977,-14.90446 0.04,-20.24878 -2.34351,-4.76236 -6.93206,-9.35093 -11.69444,-11.69447 -3.0735,-1.51237 -4.86236,-1.83734 -10.11465,-1.83734 -7.52245,0 -11.92916,1.75548 -16.91007,6.73633 -12.61193,12.61198 -7.33273,34.33236 9.70076,39.91219 4.58571,1.50221 12.94602,0.89639 17.40258,-1.26096 z m 72.0653,0 c 4.678,-2.26458 9.23619,-6.83502 11.5759,-11.60697 2.65104,-5.40699 2.66977,-14.90446 0.04,-20.24878 -2.34352,-4.76236 -6.93206,-9.35093 -11.69444,-11.69447 -3.0735,-1.51237 -4.86237,-1.83734 -10.11465,-1.83734 -7.52246,0 -11.92916,1.75548 -16.91007,6.73633 -12.61194,12.61198 -7.33276,34.33236 9.70076,39.91219 4.5857,1.50221 12.94602,0.89639 17.40257,-1.26096 z m 72.0653,0 c 4.67798,-2.26458 9.2362,-6.83502 11.57588,-11.60697 2.65107,-5.40699 2.66979,-14.90446 0.04,-20.24878 -2.34351,-4.76236 -6.93208,-9.35093 -11.69447,-11.69447 -3.07347,-1.51237 -4.86234,-1.83734 -10.11463,-1.83734 -7.52245,0 -11.92916,1.75548 -16.91006,6.73633 -12.61194,12.61198 -7.33276,34.33236 9.70076,39.91219 4.5857,1.50221 12.94602,0.89639 17.40257,-1.26096 z"
       style="fill:#ffffff;stroke-width:0.75068015" />
  </g>
</svg>
