<?xml version="1.0" encoding="UTF-8" standalone="no"?>
<!-- Created with Inkscape (http://www.inkscape.org/) -->

<svg
   xmlns:dc="http://purl.org/dc/elements/1.1/"
   xmlns:cc="http://creativecommons.org/ns#"
   xmlns:rdf="http://www.w3.org/1999/02/22-rdf-syntax-ns#"
   xmlns:svg="http://www.w3.org/2000/svg"
   xmlns="http://www.w3.org/2000/svg"
   xmlns:sodipodi="http://sodipodi.sourceforge.net/DTD/sodipodi-0.dtd"
   xmlns:inkscape="http://www.inkscape.org/namespaces/inkscape"
   id="svg2"
   version="1.1"
   inkscape:version="0.92.3 (2405546, 2018-03-11)"
   width="512"
   height="512"
   sodipodi:docname="intel-installer.svg">
  <metadata
     id="metadata8">
    <rdf:RDF>
      <cc:Work
         rdf:about="">
        <dc:format>image/svg+xml</dc:format>
        <dc:type
           rdf:resource="http://purl.org/dc/dcmitype/StillImage" />
        <dc:title></dc:title>
      </cc:Work>
    </rdf:RDF>
  </metadata>
  <defs
     id="defs6" />
  <sodipodi:namedview
     pagecolor="#ffffff"
     bordercolor="#666666"
     borderopacity="1"
     objecttolerance="10"
     gridtolerance="10"
     guidetolerance="10"
     inkscape:pageopacity="0"
     inkscape:pageshadow="2"
     inkscape:window-width="1147"
     inkscape:window-height="716"
     id="namedview4"
     showgrid="false"
     inkscape:zoom="0.4609375"
     inkscape:cx="-85.447051"
     inkscape:cy="244.64098"
     inkscape:window-x="15"
     inkscape:window-y="23"
     inkscape:window-maximized="0"
     inkscape:current-layer="svg2" />
  <g
     transform="translate(-3.2369461e-7,-2.7615255e-6)"
     id="g878">
    <path
       id="path1148"
       d="M 432.9132,56.473957 C 535.1063,145.04855 538.73997,306.17367 441.03008,416.37275 343.32022,526.57183 181.27977,544.10063 79.086636,455.52601 -23.106121,366.95142 -26.740136,205.82631 70.970101,95.627217 168.67996,-14.571863 330.72041,-32.100633 432.9132,56.473957 Z"
       inkscape:connector-curvature="0"
       style="fill:#3689e6;fill-opacity:1;stroke-width:11.10955811" />
    <path
       id="path1150"
       d="M 511.63547,224.90351 C 510.08431,286.21516 486.4744,349.05812 440.66917,400.71799 342.95931,510.91713 180.91883,528.44583 78.725691,439.87128 30.826982,398.35563 4.4969026,340.92284 0.19391043,280.2288 0.7990128,346.58548 27.117376,410.48217 79.078699,455.51906 181.27146,544.09363 343.31984,526.55623 441.02218,416.36576 490.72712,360.30766 514.02715,291.0748 511.63547,224.90351 Z"
       inkscape:connector-curvature="0"
       style="opacity:1;fill:#000000;fill-opacity:0.49019608;stroke-width:11.10955811" />
    <path
       inkscape:connector-curvature="0"
       id="path872"
       d="m 218.0419,377.62599 c -47.52494,-4.56491 -80.68727,-22.70857 -92.26472,-50.47953 -4.18877,-10.04766 -6.54134,-24.5399 -5.55261,-34.20508 1.46866,-14.35663 7.0106,-28.35938 16.41107,-41.46562 3.60693,-5.02883 15.13953,-17.60205 16.14522,-17.60205 0.30034,0 0.54608,1.40422 0.54608,3.12049 0,2.72838 -0.29694,3.47637 -2.36306,5.95256 -2.9479,3.533 -8.5452,12.13472 -10.75446,16.52707 -6.67029,13.26159 -9.82213,29.00465 -8.29957,41.45532 1.56478,12.79605 6.49099,23.09022 15.24217,31.85118 13.96595,13.98157 33.71567,21.49729 66.00573,25.11837 8.58166,0.96236 38.43366,0.95134 49.452,-0.0182 37.87875,-3.33331 73.99818,-12.93944 104.93203,-27.90717 5.83382,-2.82276 10.71034,-5.13229 10.83671,-5.13229 0.12637,0 0.22978,4.94213 0.22978,10.98252 v 10.98252 l -5.03678,2.53497 c -23.13241,11.64239 -56.61166,21.50969 -88.67782,26.13589 -20.61665,2.97437 -48.82064,3.88106 -66.85177,2.14911 z m 96.84903,-66.92124 c -4.31114,-0.82464 -10.07253,-3.64091 -13.04801,-6.37809 -6.03514,-5.5518 -8.97844,-13.74147 -8.97378,-24.96932 0.003,-7.58861 0.82342,-11.71142 3.43833,-17.28142 7.47022,-15.91228 31.0187,-20.41403 43.07681,-8.23497 5.60585,5.66208 8.69806,14.22541 8.69806,24.08775 v 5.39702 h -19.1814 c -10.54977,0 -19.61597,0.16675 -20.14711,0.37057 -1.32149,0.50711 -1.23437,4.16843 0.17289,7.26614 2.24481,4.94136 7.20263,7.83507 13.51384,7.88759 4.93518,0.0411 7.50927,-0.66677 11.02262,-3.03108 1.7281,-1.16292 3.41291,-2.11441 3.74401,-2.11441 0.7499,0 8.43307,7.32698 8.43307,8.04211 0,0.9464 -3.9071,4.08922 -7.46675,6.00615 -6.04176,3.25357 -15.46182,4.44793 -23.28258,2.95196 z m 18.08049,-39.58941 c -0.69765,-9.72958 -9.73002,-14.85373 -18.371,-10.42206 -2.83339,1.45316 -4.66845,3.42032 -5.86739,6.28978 -0.98435,2.3559 -1.24814,5.4571 -0.52562,6.17962 0.2306,0.23061 5.93132,0.34508 12.66826,0.25438 l 12.24897,-0.16491 z m -156.53189,38.8356 c -6.24295,-2.23034 -9.36006,-6.05329 -10.31351,-12.64892 -0.62049,-4.2924 -0.81233,-46.87226 -0.21814,-48.42068 0.30918,-0.80569 1.57368,-0.96571 7.63148,-0.96571 h 7.26091 v 31.44171 c 0,35.18129 0.41094,32.29831 -4.36074,30.5936 z m 19.90353,-0.52556 c -0.1608,-0.41973 -0.22086,-14.36245 -0.13346,-30.98382 l 0.15889,-30.22067 17.39978,-0.18146 c 14.64858,-0.15277 18.00107,-0.0219 21.20262,0.82746 4.79757,1.27281 8.58851,4.46888 10.61189,8.94667 1.44905,3.20676 1.45998,3.39156 1.64332,27.8016 l 0.18457,24.57337 h -7.35816 -7.35817 l -0.0345,-21.82604 c -0.0371,-23.5153 -0.214,-25.03792 -3.16248,-27.22392 -1.38359,-1.02579 -2.86186,-1.28421 -8.60338,-1.50398 -10.64911,-0.40762 -9.56785,-3.32887 -9.56785,25.84941 v 24.70453 h -7.34538 c -5.31337,0 -7.42627,-0.21112 -7.63775,-0.76315 z m 74.91942,-0.3899 c -3.99998,-1.39383 -7.49446,-4.69335 -9.37815,-8.85494 l -1.41139,-3.11816 v -32.96801 -32.968 l 7.46149,-0.17127 7.46151,-0.17129 0.16998,8.41329 0.16998,8.41327 5.79992,0.30526 5.79993,0.30526 v 5.49467 5.49467 l -5.18941,0.30526 c -2.85418,0.16789 -5.53283,0.52752 -5.95256,0.79918 -0.57991,0.37532 -0.76314,4.50819 -0.76314,17.21309 v 16.7192 l 1.47222,1.71297 c 1.30193,1.51482 1.99049,1.74828 5.95255,2.01823 l 4.48034,0.30526 v 5.79992 5.79993 l -6.41045,0.14277 c -4.95114,0.11026 -7.15083,-0.11523 -9.66282,-0.99056 z m 97.86998,-0.55727 c -4.5569,-1.57569 -6.73953,-3.42021 -8.64943,-7.30956 l -1.71662,-3.49575 V 259.82075 221.9686 l 7.47885,-0.17142 7.47886,-0.17142 v 43.97612 c 0,34.78452 -0.15952,43.97197 -0.76315,43.9562 -0.41973,-0.0109 -2.14256,-0.49691 -3.82851,-1.07987 z m 16.80202,-6.50765 v -7.60745 l 4.73152,-3.47143 c 12.31987,-9.03889 21.2129,-21.41065 24.69324,-34.35264 1.68157,-6.25311 1.80138,-18.16364 0.24026,-23.88493 -5.73744,-21.02682 -22.55922,-35.80779 -49.54964,-43.53828 -26.06225,-7.46465 -61.29093,-7.93468 -96.72441,-1.29052 -24.90801,4.67053 -51.18965,13.04748 -72.21309,23.01701 -8.19752,3.88735 -9.55408,4.01027 -8.74648,0.79254 0.47085,-1.876 2.76968,-3.40252 13.49728,-8.96278 51.7894,-26.84313 117.9601,-36.23429 167.28206,-23.74118 17.38456,4.40345 30.4277,10.68387 41.68362,20.07114 9.22039,7.68968 18.40386,24.92023 20.50656,35.42793 0.36046,1.80127 -0.43959,-0.82397 -0.0475,-0.0319 1.09781,2.2176 0.87274,18.56959 -0.30792,22.37006 -0.52157,1.67892 -1.41782,4.70099 -1.99165,6.7157 -1.44329,5.06732 -5.77149,14.09657 -9.28402,19.36781 -3.61519,5.42529 -13.15817,15.18728 -18.54769,18.97337 -4.24718,2.9836 -13.13151,7.75297 -14.44215,7.75297 -0.59128,0 -0.78002,-1.84074 -0.78002,-7.60745 z M 165.83211,236.7929 c -0.19174,-0.76609 -0.26783,-3.86549 -0.16908,-6.88756 l 0.17953,-5.49467 7.49903,-0.17158 7.49902,-0.17158 -0.1728,6.88729 -0.1728,6.88728 -7.15714,0.17186 c -7.00806,0.16829 -7.16439,0.14285 -7.50576,-1.22104 z m 223.76549,-9.02438 c -181.21094,133.29621 -90.60547,66.6481 0,0 z"
       style="fill:#000000;fill-opacity:0.49019608;stroke-width:0.61420602"
       sodipodi:nodetypes="csssssssssssssscssccsscssscsssssssssssssscssssscsscscsssscccsssscsccsscccccccccccssscsscccsssscccccscsscsssssssssssssssssssscccccsscc" />
    <path
       sodipodi:nodetypes="csssssssssssssscssccsscssscsssssssssssssscssssscsscscsssscccsssscsccsscccccccccccssscsscccsssscccccscsscsssssssssssssssssssscccccsscc"
       style="fill:#ffffff;fill-opacity:1;stroke-width:0.61420602"
       d="m 198.0419,357.62599 c -47.52494,-4.56491 -80.68727,-22.70857 -92.26472,-50.47953 -4.18877,-10.04766 -6.541341,-24.5399 -5.55261,-34.20508 1.46866,-14.35663 7.0106,-28.35938 16.41107,-41.46562 3.60693,-5.02883 15.13953,-17.60205 16.14522,-17.60205 0.30034,0 0.54608,1.40422 0.54608,3.12049 0,2.72838 -0.29694,3.47637 -2.36306,5.95256 -2.9479,3.533 -8.5452,12.13472 -10.75446,16.52707 -6.67029,13.26159 -9.82213,29.00465 -8.29957,41.45532 1.56478,12.79605 6.49099,23.09022 15.24217,31.85118 13.96595,13.98157 33.71567,21.49729 66.00573,25.11837 8.58166,0.96236 38.43366,0.95134 49.452,-0.0182 37.87875,-3.33331 73.99818,-12.93944 104.93203,-27.90717 5.83382,-2.82276 10.71034,-5.13229 10.83671,-5.13229 0.12637,0 0.22978,4.94213 0.22978,10.98252 v 10.98252 l -5.03678,2.53497 c -23.13241,11.64239 -56.61166,21.50969 -88.67782,26.13589 -20.61665,2.97437 -48.82064,3.88106 -66.85177,2.14911 z m 96.84903,-66.92124 c -4.31114,-0.82464 -10.07253,-3.64091 -13.04801,-6.37809 -6.03514,-5.5518 -8.97844,-13.74147 -8.97378,-24.96932 0.003,-7.58861 0.82342,-11.71142 3.43833,-17.28142 7.47022,-15.91228 31.0187,-20.41403 43.07681,-8.23497 5.60585,5.66208 8.69806,14.22541 8.69806,24.08775 v 5.39702 h -19.1814 c -10.54977,0 -19.61597,0.16675 -20.14711,0.37057 -1.32149,0.50711 -1.23437,4.16843 0.17289,7.26614 2.24481,4.94136 7.20263,7.83507 13.51384,7.88759 4.93518,0.0411 7.50927,-0.66677 11.02262,-3.03108 1.7281,-1.16292 3.41291,-2.11441 3.74401,-2.11441 0.7499,0 8.43307,7.32698 8.43307,8.04211 0,0.9464 -3.9071,4.08922 -7.46675,6.00615 -6.04176,3.25357 -15.46182,4.44793 -23.28258,2.95196 z m 18.08049,-39.58941 c -0.69765,-9.72958 -9.73002,-14.85373 -18.371,-10.42206 -2.83339,1.45316 -4.66845,3.42032 -5.86739,6.28978 -0.98435,2.3559 -1.24814,5.4571 -0.52562,6.17962 0.2306,0.23061 5.93132,0.34508 12.66826,0.25438 l 12.24897,-0.16491 z m -156.53189,38.8356 c -6.24295,-2.23034 -9.36006,-6.05329 -10.31351,-12.64892 -0.62049,-4.2924 -0.81233,-46.87226 -0.21814,-48.42068 0.30918,-0.80569 1.57368,-0.96571 7.63148,-0.96571 h 7.26091 v 31.44171 c 0,35.18129 0.41094,32.29831 -4.36074,30.5936 z m 19.90353,-0.52556 c -0.1608,-0.41973 -0.22086,-14.36245 -0.13346,-30.98382 l 0.15889,-30.22067 17.39978,-0.18146 c 14.64858,-0.15277 18.00107,-0.0219 21.20262,0.82746 4.79757,1.27281 8.58851,4.46888 10.61189,8.94667 1.44905,3.20676 1.45998,3.39156 1.64332,27.8016 l 0.18457,24.57337 h -7.35816 -7.35817 l -0.0345,-21.82604 c -0.0371,-23.5153 -0.214,-25.03792 -3.16248,-27.22392 -1.38359,-1.02579 -2.86186,-1.28421 -8.60338,-1.50398 -10.64911,-0.40762 -9.56785,-3.32887 -9.56785,25.84941 v 24.70453 h -7.34538 c -5.31337,0 -7.42627,-0.21112 -7.63775,-0.76315 z m 74.91942,-0.3899 c -3.99998,-1.39383 -7.49446,-4.69335 -9.37815,-8.85494 l -1.41139,-3.11816 v -32.96801 -32.968 l 7.46149,-0.17127 7.46151,-0.17129 0.16998,8.41329 0.16998,8.41327 5.79992,0.30526 5.79993,0.30526 v 5.49467 5.49467 l -5.18941,0.30526 c -2.85418,0.16789 -5.53283,0.52752 -5.95256,0.79918 -0.57991,0.37532 -0.76314,4.50819 -0.76314,17.21309 v 16.7192 l 1.47222,1.71297 c 1.30193,1.51482 1.99049,1.74828 5.95255,2.01823 l 4.48034,0.30526 v 5.79992 5.79993 l -6.41045,0.14277 c -4.95114,0.11026 -7.15083,-0.11523 -9.66282,-0.99056 z m 97.86998,-0.55727 c -4.5569,-1.57569 -6.73953,-3.42021 -8.64943,-7.30956 l -1.71662,-3.49575 V 239.82075 201.9686 l 7.47885,-0.17142 7.47886,-0.17142 v 43.97612 c 0,34.78452 -0.15952,43.97197 -0.76315,43.9562 -0.41973,-0.0109 -2.14256,-0.49691 -3.82851,-1.07987 z m 16.80202,-6.50765 v -7.60745 l 4.73152,-3.47143 c 12.31987,-9.03889 21.2129,-21.41065 24.69324,-34.35264 1.68157,-6.25311 1.80138,-18.16364 0.24026,-23.88493 -5.73744,-21.02682 -22.55922,-35.80779 -49.54964,-43.53828 -26.06225,-7.46465 -61.29093,-7.93468 -96.72441,-1.29052 -24.90801,4.67053 -51.18965,13.04748 -72.21309,23.01701 -8.19752,3.88735 -9.55408,4.01027 -8.74648,0.79254 0.47085,-1.876 2.76968,-3.40252 13.49728,-8.96278 51.7894,-26.84313 117.9601,-36.23429 167.28206,-23.74118 17.38456,4.40345 30.4277,10.68387 41.68362,20.07114 9.22039,7.68968 18.40386,24.92023 20.50656,35.42793 0.36046,1.80127 -0.43959,-0.82397 -0.0475,-0.0319 1.09781,2.2176 0.87274,18.56959 -0.30792,22.37006 -0.52157,1.67892 -1.41782,4.70099 -1.99165,6.7157 -1.44329,5.06732 -5.77149,14.09657 -9.28402,19.36781 -3.61519,5.42529 -13.15817,15.18728 -18.54769,18.97337 -4.24718,2.9836 -13.13151,7.75297 -14.44215,7.75297 -0.59128,0 -0.78002,-1.84074 -0.78002,-7.60745 z M 145.83211,216.7929 c -0.19174,-0.76609 -0.26783,-3.86549 -0.16908,-6.88756 l 0.17953,-5.49467 7.49903,-0.17158 7.49902,-0.17158 -0.1728,6.88729 -0.1728,6.88728 -7.15714,0.17186 c -7.00806,0.16829 -7.16439,0.14285 -7.50576,-1.22104 z m 223.76549,-9.02438 c -181.21094,133.29621 -90.60547,66.6481 0,0 z"
       id="path2986"
       inkscape:connector-curvature="0" />
  </g>
</svg>
