<?xml version="1.0" encoding="UTF-8" standalone="no"?>
<!-- Created with Inkscape (http://www.inkscape.org/) -->

<svg
   xmlns:dc="http://purl.org/dc/elements/1.1/"
   xmlns:cc="http://creativecommons.org/ns#"
   xmlns:rdf="http://www.w3.org/1999/02/22-rdf-syntax-ns#"
   xmlns:svg="http://www.w3.org/2000/svg"
   xmlns="http://www.w3.org/2000/svg"
   xmlns:sodipodi="http://sodipodi.sourceforge.net/DTD/sodipodi-0.dtd"
   xmlns:inkscape="http://www.inkscape.org/namespaces/inkscape"
   version="1.1"
   width="512"
   height="512"
   viewBox="0 0 512 512"
   id="svg2"
   inkscape:version="0.92.3 (2405546, 2018-03-11)"
   sodipodi:docname="jokosher.svg">
  <sodipodi:namedview
     pagecolor="#ffffff"
     bordercolor="#666666"
     borderopacity="1"
     objecttolerance="10"
     gridtolerance="10"
     guidetolerance="10"
     inkscape:pageopacity="0"
     inkscape:pageshadow="2"
     inkscape:window-width="1366"
     inkscape:window-height="720"
     id="namedview41"
     showgrid="false"
     inkscape:zoom="0.32593203"
     inkscape:cx="918.9153"
     inkscape:cy="5.5123273"
     inkscape:window-x="0"
     inkscape:window-y="23"
     inkscape:window-maximized="1"
     inkscape:current-layer="svg2"
     units="px" />
  <metadata
     id="metadata93">
    <rdf:RDF>
      <cc:Work
         rdf:about="">
        <dc:format>image/svg+xml</dc:format>
        <dc:type
           rdf:resource="http://purl.org/dc/dcmitype/StillImage" />
        <dc:title></dc:title>
      </cc:Work>
    </rdf:RDF>
  </metadata>
  <defs
     id="defs4">
    <radialGradient
       cx="256"
       cy="256"
       r="226.38"
       id="0"
       gradientUnits="userSpaceOnUse"
       gradientTransform="matrix(1.2594955,0,0,1.2594955,-56.694131,-59.8182)">
      <stop
         id="stop21"
         style="stop-color:#d45500;stop-opacity:0.34400001"
         offset="0" />
      <stop
         id="stop23"
         style="stop-color:#e65c00;stop-opacity:1"
         offset="1" />
    </radialGradient>
  </defs>
  <text
     x="729.64001"
     y="742.35999"
     id="text43"
     style="font-size:129.22999573px;line-height:0%;font-family:'Gentium Book Basic';letter-spacing:0;word-spacing:0">
    <tspan
       x="729.64001"
       y="742.35999"
       id="tspan45" />
  </text>
  <text
     x="378.90805"
     y="2629.8083"
     transform="scale(4.0128205,0.24920128)"
     id="text47"
     style="font-size:46.95375824px;font-family:Arial;text-anchor:middle;stroke-width:0.99999487" />
  <text
     x="1310.91"
     y="662.35999"
     id="text49"
     style="font-size:129.22999573px;line-height:0%;font-family:'Gentium Book Basic';letter-spacing:0;word-spacing:0">
    <tspan
       x="1310.91"
       y="662.35999"
       id="tspan51" />
  </text>
  <text
     x="523.75732"
     y="2308.77"
     transform="scale(4.0128205,0.24920128)"
     id="text53"
     style="font-size:46.95375824px;font-family:Arial;text-anchor:middle;stroke-width:0.99999487" />
  <text
     x="239.33"
     y="481.10001"
     id="text55"
     style="font-size:129.22999573px;line-height:0%;font-family:'Gentium Book Basic';letter-spacing:0;word-spacing:0">
    <tspan
       x="239.33"
       y="481.10001"
       id="tspan57" />
  </text>
  <text
     x="256.71869"
     y="1581.4237"
     transform="scale(4.0128205,0.24920128)"
     id="text59"
     style="font-size:46.95375824px;font-family:Arial;text-anchor:middle;stroke-width:0.99999487" />
  <text
     x="1337.38"
     y="264.63"
     id="text61"
     style="font-size:129.22999573px;line-height:0%;font-family:'Gentium Book Basic';letter-spacing:0;word-spacing:0">
    <tspan
       x="1337.38"
       y="264.63"
       id="tspan63" />
  </text>
  <text
     x="530.3573"
     y="712.75806"
     transform="scale(4.0128205,0.24920128)"
     id="text65"
     style="font-size:46.95375824px;font-family:Arial;text-anchor:middle;stroke-width:0.99999487" />
  <text
     x="1918.65"
     y="184.63"
     id="text67"
     style="font-size:129.22999573px;line-height:0%;font-family:'Gentium Book Basic';letter-spacing:0;word-spacing:0">
    <tspan
       x="1918.65"
       y="184.63"
       id="tspan69" />
  </text>
  <text
     x="675.20654"
     y="391.72986"
     transform="scale(4.0128205,0.24920128)"
     id="text71"
     style="font-size:46.95375824px;font-family:Arial;text-anchor:middle;stroke-width:0.99999487" />
  <text
     x="1529.53"
     y="-287.77002"
     id="text73"
     style="font-size:129.22999573px;line-height:0%;font-family:'Gentium Book Basic';letter-spacing:0;word-spacing:0">
    <tspan
       x="1529.53"
       y="-287.77002"
       id="tspan75" />
  </text>
  <text
     x="578.237"
     y="-1503.9104"
     transform="scale(4.0128205,0.24920128)"
     id="text77"
     style="font-size:46.95375824px;font-family:Arial;text-anchor:middle;stroke-width:0.99999487" />
  <text
     x="2110.79"
     y="-367.78003"
     id="text79"
     style="font-size:129.22999573px;line-height:0%;font-family:'Gentium Book Basic';letter-spacing:0;word-spacing:0">
    <tspan
       x="2110.79"
       y="-367.78003"
       id="tspan81" />
  </text>
  <text
     x="723.0863"
     y="-1824.949"
     transform="scale(4.0128205,0.24920128)"
     id="text83"
     style="font-size:46.95375824px;font-family:Arial;text-anchor:middle;stroke-width:0.99999487" />
  <text
     x="277.98999"
     y="1046.9399"
     id="text85"
     style="font-size:208.33000183px;line-height:0%;font-family:'Gentium Book Basic';letter-spacing:0;word-spacing:0">
    <tspan
       x="277.98999"
       y="1046.9399"
       id="tspan87" />
  </text>
  <g
     id="g883">
    <path
       style="fill:#f37329;fill-opacity:1;stroke-width:11.10955811"
       inkscape:connector-curvature="0"
       d="m 432.91327,56.47398 c 102.19291,88.57459 105.82678,249.69971 8.1168,359.89879 C 343.3201,526.57182 181.27964,544.10062 79.086727,455.52603 -23.106185,366.95144 -26.740041,205.82632 70.969927,95.62724 168.6799,-14.57184 330.72036,-32.10061 432.91327,56.47398 Z"
       id="path27-3" />
    <path
       id="path27"
       d="M 320.99219 3.7011719 L 265.76367 250.54883 L 213.05469 8.2441406 C 182.7107 15.968825 153.13968 29.084165 125.93945 47.417969 L 256.60547 253.48828 L 50.798828 121.10352 C 31.597719 148.32767 17.866186 177.80331 9.5605469 207.98438 L 253.66992 262.61719 L 3.0820312 317.13672 C 8.3217671 350.20663 20.26445 381.83041 38.878906 409.85156 L 256.63086 271.75 L 120.16797 483.89648 C 148.9523 499.41474 180.49501 508.42286 212.86523 511.12695 L 265.76172 274.70312 L 314.5918 499.25977 C 342.29453 490.42011 369.09929 477.01645 393.76172 459.1875 L 274.89453 271.74609 L 460.84766 391.39258 C 478.45796 366.53528 491.50403 339.79056 500.00977 312.33594 L 277.85352 262.61328 L 511.01562 211.91602 C 508.20073 179.91069 499.25018 148.8955 484.21094 120.73828 L 274.89453 253.49609 L 411.99414 40.376953 C 384.295 21.493624 353.29281 9.3435651 320.99219 3.7011719 z "
       style="opacity:0.5;fill:url(#0);stroke-width:1.16697395" />
    <path
       style="opacity:1;fill:#000000;fill-opacity:0.49019608;stroke-width:11.10955811"
       inkscape:connector-curvature="0"
       d="M 511.63551,224.90353 C 510.08412,286.21518 486.47428,349.05814 440.66913,400.718 342.95915,510.91712 180.91869,528.44582 78.725777,439.8713 30.827125,398.35565 4.4968212,340.92285 0.19382726,280.22882 0.79907926,346.58549 27.117413,410.48218 79.078687,455.51908 181.27159,544.09362 343.31975,526.55622 441.02202,416.36578 490.72697,360.30767 514.02704,291.07481 511.63551,224.90353 Z"
       id="path51" />
    <path
       d="m 253.30882,432 c -4.09572,0 -10.09202,-0.43861 -17.99106,-1.31686 -8.19143,-0.8772 -15.79699,-2.48646 -22.81776,-4.82672 l 8.77622,-53.09808 c 4.38812,1.46306 8.48595,2.48646 12.28609,3.07125 3.51092,0.5848 8.04523,0.87721 13.60294,0.87721 10.23928,0 17.40626,-3.07127 21.50198,-9.21483 4.09571,-6.14358 6.14356,-15.066 6.14356,-26.77152 V 134.64224 L 340.19284,120 v 222.47802 c 0,30.4244 -7.45836,52.94976 -22.37493,67.57611 -14.91662,14.62634 -36.42071,21.94057 -64.50485,21.94057"
       inkscape:connector-curvature="0"
       id="path876"
       style="fill:#000000;stroke-width:0.98159492;fill-opacity:0.49019608" />
    <path
       style="fill:#ffffff;stroke-width:0.98159492"
       id="path89"
       inkscape:connector-curvature="0"
       d="m 233.30882,412 c -4.09572,0 -10.09202,-0.43861 -17.99106,-1.31686 -8.19143,-0.8772 -15.79699,-2.48646 -22.81776,-4.82672 l 8.77622,-53.09808 c 4.38812,1.46306 8.48595,2.48646 12.28609,3.07125 3.51092,0.5848 8.04523,0.87721 13.60294,0.87721 10.23928,0 17.40626,-3.07127 21.50198,-9.21483 4.09571,-6.14358 6.14356,-15.066 6.14356,-26.77152 V 114.64224 L 320.19284,100 v 222.47802 c 0,30.4244 -7.45836,52.94976 -22.37493,67.57611 -14.91662,14.62634 -36.42071,21.94057 -64.50485,21.94057" />
  </g>
</svg>
