<?xml version="1.0" encoding="UTF-8" standalone="no"?>
<svg
   xmlns:dc="http://purl.org/dc/elements/1.1/"
   xmlns:cc="http://creativecommons.org/ns#"
   xmlns:rdf="http://www.w3.org/1999/02/22-rdf-syntax-ns#"
   xmlns:svg="http://www.w3.org/2000/svg"
   xmlns="http://www.w3.org/2000/svg"
   xmlns:sodipodi="http://sodipodi.sourceforge.net/DTD/sodipodi-0.dtd"
   xmlns:inkscape="http://www.inkscape.org/namespaces/inkscape"
   viewBox="0 0 512 512"
   id="svg2"
   version="1.1"
   inkscape:version="0.92.3 (2405546, 2018-03-11)"
   width="512"
   height="512"
   sodipodi:docname="katimon.svg">
  <metadata
     id="metadata61">
    <rdf:RDF>
      <cc:Work
         rdf:about="">
        <dc:format>image/svg+xml</dc:format>
        <dc:type
           rdf:resource="http://purl.org/dc/dcmitype/StillImage" />
        <dc:title></dc:title>
      </cc:Work>
    </rdf:RDF>
  </metadata>
  <sodipodi:namedview
     pagecolor="#ffffff"
     bordercolor="#666666"
     borderopacity="1"
     objecttolerance="10"
     gridtolerance="10"
     guidetolerance="10"
     inkscape:pageopacity="0"
     inkscape:pageshadow="2"
     inkscape:window-width="1366"
     inkscape:window-height="718"
     id="namedview59"
     showgrid="false"
     inkscape:zoom="0.43457604"
     inkscape:cx="566.53028"
     inkscape:cy="111.23683"
     inkscape:window-x="0"
     inkscape:window-y="25"
     inkscape:window-maximized="1"
     inkscape:current-layer="svg2"
     units="px" />
  <defs
     id="defs4">
    <linearGradient
       id="linearGradient3764"
       x1="1"
       x2="47"
       gradientUnits="userSpaceOnUse"
       gradientTransform="rotate(-90,23.999998,24)">
      <stop
         stop-color="#b80000"
         stop-opacity="1"
         id="stop7" />
      <stop
         offset="1"
         stop-color="#cb0000"
         stop-opacity="1"
         id="stop9" />
    </linearGradient>
    <clipPath
       id="clipPath-292987263">
      <g
         transform="translate(0,-1004.3622)"
         id="g12">
        <path
           d="m -24,13 c 0,1.105 -0.672,2 -1.5,2 -0.828,0 -1.5,-0.895 -1.5,-2 0,-1.105 0.672,-2 1.5,-2 0.828,0 1.5,0.895 1.5,2 z"
           transform="matrix(15.8a715e,0,0,11.5,414.99999,878.8622)"
           id="path14"
           inkscape:connector-curvature="0"
           style="fill:#1890d0" />
      </g>
    </clipPath>
    <clipPath
       id="clipPath-303915126">
      <g
         transform="translate(0,-1004.3622)"
         id="g17">
        <path
           d="m -24,13 c 0,1.105 -0.672,2 -1.5,2 -0.828,0 -1.5,-0.895 -1.5,-2 0,-1.105 0.672,-2 1.5,-2 0.828,0 1.5,0.895 1.5,2 z"
           transform="matrix(15.8a715e,0,0,11.5,414.99999,878.8622)"
           id="path19"
           inkscape:connector-curvature="0"
           style="fill:#1890d0" />
      </g>
    </clipPath>
  </defs>
  <g
     id="g33"
     transform="translate(0,963)" />
  <g
     id="g868">
    <path
       id="path901"
       d="M 432.91335,56.473974 C 535.10615,145.04856 538.74002,306.17368 441.03014,416.37276 343.32009,526.57184 181.27948,544.10061 79.086673,455.52602 -23.106169,366.95143 -26.740025,205.82631 70.969882,95.627234 168.67975,-14.57185 330.72029,-32.10062 432.91335,56.473974 Z"
       inkscape:connector-curvature="0"
       style="fill:#68b723;fill-opacity:1;stroke-width:11.10955811" />
    <path
       id="path903"
       d="m 511.635,224.90352 c -1.5514,61.31166 -25.16121,124.1546 -70.96631,175.81449 C 342.95883,510.9171 180.91853,528.44585 78.725729,439.87127 30.827125,398.35564 4.4968511,340.92283 0.19386179,280.22879 0.79911271,346.58547 27.117416,410.48219 79.078632,455.51904 181.27144,544.09362 343.31942,526.5562 441.02159,416.36578 490.72648,360.30764 514.02654,291.07481 511.635,224.90352 Z"
       inkscape:connector-curvature="0"
       style="opacity:1;fill:#000000;fill-opacity:0.49019608;stroke-width:11.10955811" />
    <g
       id="g852"
       transform="matrix(13,0,0,13,-36,-36)"
       style="fill:#000000;fill-opacity:0.49019608">
      <g
         clip-path="url(#clipPath-303915126)"
         id="g850"
         style="fill:#000000;fill-opacity:0.49019608">
        <!-- color: #cb0000 -->
        <g
           id="g848"
           style="fill:#000000;fill-opacity:0.49019608">
          <path
             id="path846"
             transform="matrix(0.07692308,0,0,0.07692308,2.7692308,2.7692308)"
             d="M 120 120 L 211 211 L 341 211 L 341 340.94727 L 211 341 L 211 211 L 120 302 L 120 432 L 250 432 L 341 341 L 429.06445 429.06445 C 430.04586 428.08136 431.02956 427.10169 432 426.10156 L 432 120 L 120 120 z "
             style="fill:#000000;fill-opacity:0.49019608;fill-rule:nonzero;stroke:none;stroke-width:13" />
        </g>
      </g>
    </g>
    <g
       style="fill:#ffffff"
       transform="matrix(13,0,0,13,-56,-56)"
       id="g47">
      <g
         style="fill:#ffffff"
         id="g49"
         clip-path="url(#clipPath-303915126)">
        <!-- color: #cb0000 -->
        <g
           style="fill:#ffffff"
           id="g51">
          <path
             style="fill:#ffffff;fill-opacity:1;fill-rule:nonzero;stroke:none"
             inkscape:connector-curvature="0"
             id="path53"
             d="m 12,12 7,7 -7,7 v 10 h 10 l 7,-7 7,7 V 12 m -17,7 h 10 v 9.996 L 19,29 m 0,-10" />
        </g>
      </g>
    </g>
  </g>
</svg>
