<?xml version="1.0" encoding="UTF-8" standalone="no"?>
<!-- Created with Inkscape (http://www.inkscape.org/) -->

<svg
   xmlns:dc="http://purl.org/dc/elements/1.1/"
   xmlns:cc="http://creativecommons.org/ns#"
   xmlns:rdf="http://www.w3.org/1999/02/22-rdf-syntax-ns#"
   xmlns:svg="http://www.w3.org/2000/svg"
   xmlns="http://www.w3.org/2000/svg"
   xmlns:sodipodi="http://sodipodi.sourceforge.net/DTD/sodipodi-0.dtd"
   xmlns:inkscape="http://www.inkscape.org/namespaces/inkscape"
   width="512"
   height="512"
   id="svg2"
   version="1.1"
   inkscape:version="0.92.3 (2405546, 2018-03-11)"
   viewBox="0 0 144.49777 144.49779"
   sodipodi:docname="kdocker.svg">
  <defs
     id="defs4">
    <linearGradient
       id="linearGradient896">
      <stop
         style="stop-color:#394050;stop-opacity:1"
         offset="0"
         id="stop898" />
      <stop
         style="stop-color:#5d6a7b;stop-opacity:1"
         offset="1"
         id="stop900" />
    </linearGradient>
  </defs>
  <sodipodi:namedview
     id="base"
     pagecolor="#ffffff"
     bordercolor="#666666"
     borderopacity="1.0"
     inkscape:pageopacity="0"
     inkscape:pageshadow="2"
     inkscape:zoom="0.55626454"
     inkscape:cx="341.02099"
     inkscape:cy="158.3529"
     inkscape:document-units="px"
     inkscape:current-layer="layer1"
     showgrid="false"
     inkscape:showpageshadow="false"
     borderlayer="true"
     units="px"
     fit-margin-top="0"
     fit-margin-left="0"
     fit-margin-right="0"
     fit-margin-bottom="0"
     showguides="false"
     inkscape:window-width="1366"
     inkscape:window-height="718"
     inkscape:window-x="0"
     inkscape:window-y="25"
     inkscape:window-maximized="1">
    <sodipodi:guide
       position="-6.6748425e-06,47.999999"
       orientation="47.999977,0"
       id="guide4120"
       inkscape:locked="false" />
    <sodipodi:guide
       position="-6.6748425e-06,2.2810037e-05"
       orientation="0,48.000004"
       id="guide4122"
       inkscape:locked="false" />
    <sodipodi:guide
       position="47.999997,2.2810037e-05"
       orientation="-47.999977,0"
       id="guide4124"
       inkscape:locked="false" />
    <sodipodi:guide
       position="47.999997,47.999999"
       orientation="0,-48.000004"
       id="guide4126"
       inkscape:locked="false" />
    <sodipodi:guide
       position="3.9999733,44.000154"
       orientation="39.999962,0"
       id="guide4138"
       inkscape:locked="false" />
    <sodipodi:guide
       position="70.014646,-11.415433"
       orientation="0,40.000003"
       id="guide4140"
       inkscape:locked="false" />
    <sodipodi:guide
       position="43.999976,4.0001921"
       orientation="-39.999962,0"
       id="guide4142"
       inkscape:locked="false" />
    <sodipodi:guide
       position="43.999976,44.000154"
       orientation="0,-40.000003"
       id="guide4144"
       inkscape:locked="false" />
    <sodipodi:guide
       position="6.9999922,47.999999"
       orientation="39.999962,0"
       id="guide4148"
       inkscape:locked="false" />
    <sodipodi:guide
       position="6.9999922,8.0000369"
       orientation="0,34.000006"
       id="guide4150"
       inkscape:locked="false" />
    <sodipodi:guide
       position="40.999998,8.0000369"
       orientation="-39.999962,0"
       id="guide4152"
       inkscape:locked="false" />
    <sodipodi:guide
       position="40.999998,47.999999"
       orientation="0,-34.000006"
       id="guide4154"
       inkscape:locked="false" />
    <sodipodi:guide
       position="14.999993,32.999986"
       orientation="17.999951,0"
       id="guide4158"
       inkscape:locked="false" />
    <sodipodi:guide
       position="14.999993,15.000036"
       orientation="0,17.999998"
       id="guide4160"
       inkscape:locked="false" />
    <sodipodi:guide
       position="32.999991,15.000036"
       orientation="-17.999951,0"
       id="guide4162"
       inkscape:locked="false" />
    <sodipodi:guide
       position="32.999991,32.999986"
       orientation="0,-17.999998"
       id="guide4164"
       inkscape:locked="false" />
    <sodipodi:guide
       position="1.9999969,44.000046"
       orientation="39.999962,0"
       id="guide3279"
       inkscape:locked="false" />
    <sodipodi:guide
       position="1.9999969,4.0000839"
       orientation="0,44.000003"
       id="guide3281"
       inkscape:locked="false" />
    <sodipodi:guide
       position="46,4.0000839"
       orientation="-39.999962,0"
       id="guide3283"
       inkscape:locked="false" />
    <sodipodi:guide
       position="46,44.000046"
       orientation="0,-44.000003"
       id="guide3285"
       inkscape:locked="false" />
  </sodipodi:namedview>
  <metadata
     id="metadata7">
    <rdf:RDF>
      <cc:Work
         rdf:about="">
        <dc:format>image/svg+xml</dc:format>
        <dc:type
           rdf:resource="http://purl.org/dc/dcmitype/StillImage" />
        <dc:title></dc:title>
      </cc:Work>
    </rdf:RDF>
  </metadata>
  <g
     inkscape:label="Capa 1"
     inkscape:groupmode="layer"
     id="layer1"
     transform="translate(38.119153,-266.89382)">
    <g
       id="g913">
      <path
         style="fill:#3689e6;fill-opacity:1;stroke-width:3.13536429"
         inkscape:connector-curvature="0"
         d="m 84.058593,282.83203 c 28.841107,24.99772 29.866667,70.47081 2.290741,101.57144 -27.575926,31.10062 -73.30734,36.04764 -102.148452,11.04992 -28.84112,-24.99772 -29.866666,-70.47081 -2.29074,-101.57144 27.5759254,-31.10063 73.307343,-36.04764 102.148451,-11.04992 z"
         id="path961" />
      <path
         id="path893"
         transform="matrix(0.28222223,0,0,0.28222223,-38.119153,266.89382)"
         d="M 28.308594 392.24023 C 35.904388 406.2961 45.02768 419.62483 55.667969 432 L 426.10352 432 C 431.22394 427.01466 436.20729 421.81139 441.0293 416.37305 C 447.94639 408.57182 454.33792 400.50809 460.24023 392.24023 L 28.308594 392.24023 z M 261.73438 399.95898 L 286.01367 399.95898 L 286.01367 423.75977 L 261.73438 423.75977 L 261.73438 399.95898 z M 306.29297 399.95898 L 330.57227 399.95898 L 330.57227 423.75977 L 306.29297 423.75977 L 306.29297 399.95898 z M 350.85352 399.95898 L 375.13086 399.95898 L 375.13086 423.75977 L 350.85352 423.75977 L 350.85352 399.95898 z M 396.38672 400.80078 L 420.66602 400.80078 L 420.66602 424.60156 L 396.38672 424.60156 L 396.38672 400.80078 z M 127.82812 401.0625 L 152.10547 401.0625 L 152.10547 424.86328 L 127.82812 424.86328 L 127.82812 401.0625 z M 172.38672 401.0625 L 196.66406 401.0625 L 196.66406 424.86328 L 172.38672 424.86328 L 172.38672 401.0625 z M 216.94531 401.0625 L 241.22461 401.0625 L 241.22461 424.86328 L 216.94531 424.86328 L 216.94531 401.0625 z "
         style="fill:#000000;fill-opacity:0.49019608;stroke:none;stroke-width:14.79521465" />
      <path
         id="rect920"
         transform="matrix(0.28222223,0,0,0.28222223,-38.119153,266.89382)"
         d="M 18.714844 372.24023 C 24.555521 386.11027 31.773096 399.42445 40.337891 412 L 444.81641 412 C 455.62196 399.32244 465.12147 386.01081 473.3125 372.24023 L 18.714844 372.24023 z M 241.83398 379.95898 L 266.11328 379.95898 L 266.11328 403.75977 L 241.83398 403.75977 L 241.83398 379.95898 z M 286.39258 379.95898 L 310.67188 379.95898 L 310.67188 403.75977 L 286.39258 403.75977 L 286.39258 379.95898 z M 330.95312 379.95898 L 355.23047 379.95898 L 355.23047 403.75977 L 330.95312 403.75977 L 330.95312 379.95898 z M 376.48633 380.80078 L 400.76562 380.80078 L 400.76562 404.60156 L 376.48633 404.60156 L 376.48633 380.80078 z M 107.92773 381.0625 L 132.20508 381.0625 L 132.20508 404.86328 L 107.92773 404.86328 L 107.92773 381.0625 z M 152.48633 381.0625 L 176.76367 381.0625 L 176.76367 404.86328 L 152.48633 404.86328 L 152.48633 381.0625 z M 197.04492 381.0625 L 221.32422 381.0625 L 221.32422 404.86328 L 197.04492 404.86328 L 197.04492 381.0625 z "
         style="fill:#ffffff;fill-opacity:1;stroke:none;stroke-width:14.79521465" />
      <ellipse
         transform="scale(1,-1)"
         style="fill:none;stroke:none;stroke-width:3.7469871"
         id="path3305"
         cx="14.627485"
         cy="-377.79611"
         rx="2.8637495"
         ry="2.8053751" />
      <ellipse
         transform="scale(1,-1)"
         id="path3307"
         style="fill:none;stroke:none;stroke-width:3.7469871"
         cx="2.0519862"
         cy="-377.79611"
         rx="2.8637495"
         ry="2.8053751" />
      <ellipse
         transform="scale(1,-1)"
         style="fill:none;stroke:none;stroke-width:3.7469871"
         id="path3305-7"
         cx="52.419193"
         cy="-377.48474"
         rx="2.8637497"
         ry="2.8053751" />
      <ellipse
         transform="scale(1,-1)"
         id="path3307-5"
         style="fill:none;stroke:none;stroke-width:3.7469871"
         cx="39.843689"
         cy="-377.48474"
         rx="2.8637497"
         ry="2.8053751" />
      <path
         inkscape:connector-curvature="0"
         style="fill:#000000;fill-opacity:0.49019608;fill-rule:evenodd;stroke:none;stroke-width:3.7469871"
         id="path901"
         d="m 44.42192,300.76048 -10.520434,0.74895 v 41.90271 l 10.520434,-1.28102 v -18.29227 c 4.561717,6.88419 8.225716,13.28929 14.333223,19.94649 l 10.893642,-3.13192 c -5.832639,-6.7581 -10.187579,-12.70926 -14.164264,-19.1975 4.138076,-6.09747 9.317603,-12.22511 14.381128,-17.70219 L 58.5761,300.98493 c -5.270306,5.93852 -9.958105,12.07628 -14.15418,18.24179 m -23.966017,-9.86986 c -0.148793,0.0225 -0.325276,0.10866 -0.46399,0.24693 -1.240665,1.17254 -2.413243,2.34516 -3.643821,3.51771 -0.542162,0.52199 0.01012,1.14234 0.247114,1.57609 l 2.5015,3.4572 1.871088,2.52168 c 0.264762,0.36571 0.345472,0.40325 0.206796,0.66067 -0.166404,0.26491 -0.305155,0.48167 -0.463993,0.74895 -2.433417,4.08762 -0.728763,4.40282 -5.938551,5.73176 l -3.989294,0.66071 c -0.590068,0.19634 -1.3591816,0.17648 -1.3995296,0.99606 0,1.65422 -0.05043,3.30084 -0.05043,4.94501 -0.03035,0.75903 0.8170226,0.82708 1.3188336,0.95567 l 4.246506,0.73887 3.182357,0.57996 c 0.433751,0.0581 0.532076,-0.0397 0.63042,0.28477 1.301186,5.48716 3.003318,4.22634 0.166403,9.0226 l -2.284635,3.18235 c -0.305155,0.55223 -0.867457,1.09438 -0.295038,1.65422 1.202843,1.19274 2.355247,2.39305 3.565652,3.58579 0.532072,0.52199 1.220491,-0.007 1.65422,-0.24693 l 3.517738,-2.44348 2.630111,-1.77278 c 0.365669,-0.29488 0.413566,-0.3657 0.680854,-0.20683 5.270306,3.22016 5.456906,0.89519 6.992609,6.31427 l 0.759027,3.88083 c 0.196717,0.58004 0.216838,1.32895 1.0238,1.35922 h 5.121525 c 0.76911,0 0.837197,-0.87754 0.935544,-1.35922 l 0.718676,-4.12798 0.511906,-3.05372 c 0.03035,-0.29489 0.01986,-0.44383 0.07816,-0.54215 6.175589,-1.2709 4.63989,-3.06387 9.663067,-0.20683 l 3.260531,2.22664 c 0.600159,0.29489 1.172582,0.80688 1.74248,0.25742 1.210401,-1.1423 2.413244,-2.29469 3.62617,-3.42692 0.542159,-0.55227 0.01012,-1.1827 -0.247114,-1.60633 h -0.05043 l -2.372899,-3.26052 -1.565963,0.53208 c -0.40345,0.26491 -0.935541,0.16636 -1.409617,-0.45395 l -3.426957,-4.4129 c -3.202535,4.31458 -8.382059,7.10102 -14.252524,7.10102 -9.663067,0 -17.553393,-7.67345 -17.553393,-17.08937 0,-6.68751 3.979202,-12.47979 9.751327,-15.28141 v -3.93126 c -0.196717,0.0985 -0.423638,0.14875 -0.590072,0.20683 -2.256904,0.91539 -2.40316,1.32894 -6.09742,-0.73883 l -3.260522,-2.26453 c -0.453903,-0.19672 -0.857371,-0.57239 -1.27093,-0.47403 m 11.19877,8.78552 c -4.90466,2.69821 -8.235795,7.87017 -8.235795,13.7507 0,8.67712 7.26999,15.77058 16.214382,15.77058 5.524996,0 10.371664,-2.72848 13.296806,-6.87662 l -0.158872,-0.33536 c -3.426961,3.70435 -7.300259,6.10752 -13.188376,6.23611 -7.338077,0.12852 -14.764422,-6.23611 -14.804766,-14.61816 -0.05804,-5.409 2.501504,-9.04271 6.866527,-11.63252 v -2.27449 m 0.01012,0" />
      <path
         d="m 38.777572,295.11602 -10.520434,0.74895 v 41.90271 l 10.520434,-1.28102 v -18.29227 c 4.561717,6.88419 8.225716,13.28929 14.333223,19.94649 l 10.893642,-3.13192 c -5.832639,-6.7581 -10.187579,-12.70926 -14.164264,-19.1975 4.138076,-6.09747 9.317603,-12.22511 14.381128,-17.70219 l -11.289549,-2.7688 c -5.270306,5.93852 -9.958105,12.07628 -14.15418,18.24179 M 14.811555,303.7124 c -0.148793,0.0225 -0.325276,0.10866 -0.46399,0.24693 -1.240665,1.17254 -2.413243,2.34516 -3.643821,3.51771 -0.542162,0.52199 0.01012,1.14234 0.247114,1.57609 l 2.5015,3.4572 1.871088,2.52168 c 0.264762,0.36571 0.345472,0.40325 0.206796,0.66067 -0.166404,0.26491 -0.305155,0.48167 -0.463993,0.74895 -2.433417,4.08762 -0.728763,4.40282 -5.9385502,5.73176 l -3.989294,0.66071 c -0.590068,0.19634 -1.359182,0.17648 -1.39953,0.99606 0,1.65422 -0.05043,3.30084 -0.05043,4.94501 -0.03035,0.75903 0.817023,0.82708 1.318834,0.95567 l 4.246506,0.73887 3.1823562,0.57996 c 0.433751,0.0581 0.532076,-0.0397 0.63042,0.28477 1.301186,5.48716 3.003318,4.22634 0.166403,9.0226 l -2.284635,3.18235 c -0.305155,0.55223 -0.867457,1.09438 -0.295038,1.65422 1.202843,1.19274 2.355247,2.39305 3.565652,3.58579 0.532072,0.52199 1.220491,-0.007 1.65422,-0.24693 l 3.517738,-2.44348 2.630111,-1.77278 c 0.365669,-0.29488 0.413566,-0.3657 0.680854,-0.20683 5.270306,3.22016 5.456906,0.89519 6.992609,6.31427 l 0.759027,3.88083 c 0.196717,0.58004 0.216838,1.32895 1.0238,1.35922 h 5.121525 c 0.76911,0 0.837197,-0.87754 0.935544,-1.35922 l 0.718676,-4.12798 0.511906,-3.05372 c 0.03035,-0.29489 0.01986,-0.44383 0.07816,-0.54215 6.175589,-1.2709 4.63989,-3.06387 9.663067,-0.20683 l 3.260531,2.22664 c 0.600159,0.29489 1.172582,0.80688 1.74248,0.25742 1.210401,-1.1423 2.413244,-2.29469 3.62617,-3.42692 0.542159,-0.55227 0.01012,-1.1827 -0.247114,-1.60633 h -0.05043 l -2.372899,-3.26052 -1.565963,0.53208 c -0.40345,0.26491 -0.935541,0.16636 -1.409617,-0.45395 l -3.426957,-4.4129 c -3.202535,4.31458 -8.382059,7.10102 -14.252524,7.10102 -9.663067,0 -17.553393,-7.67345 -17.553393,-17.08937 0,-6.68751 3.979202,-12.47979 9.751327,-15.28141 v -3.93126 c -0.196717,0.0985 -0.423638,0.14875 -0.590072,0.20683 -2.256904,0.91539 -2.40316,1.32894 -6.09742,-0.73883 l -3.260522,-2.26453 c -0.453903,-0.19672 -0.857371,-0.57239 -1.27093,-0.47403 m 11.19877,8.78552 c -4.90466,2.69821 -8.235795,7.87017 -8.235795,13.7507 0,8.67712 7.26999,15.77058 16.214382,15.77058 5.524996,0 10.371664,-2.72848 13.296806,-6.87662 l -0.158872,-0.33536 c -3.426961,3.70435 -7.300259,6.10752 -13.188376,6.23611 -7.338077,0.12852 -14.764422,-6.23611 -14.804766,-14.61816 -0.05804,-5.409 2.501504,-9.04271 6.866527,-11.63252 v -2.27449 m 0.01012,0"
         id="path53"
         style="fill:#ffffff;fill-opacity:1;fill-rule:evenodd;stroke:none;stroke-width:3.7469871"
         inkscape:connector-curvature="0" />
      <path
         style="opacity:1;fill:#000000;fill-opacity:0.49019608;stroke-width:3.13536429"
         inkscape:connector-curvature="0"
         d="m 106.27576,330.36659 c -0.43784,17.30351 -7.10106,35.03919 -20.028291,49.61875 -27.575926,31.10065 -73.307343,36.04764 -102.148463,11.04994 -13.518059,-11.71664 -20.949056,-27.92546 -22.163457,-45.05466 0.170817,18.72733 7.598433,36.7604 22.263061,49.47082 28.841112,24.99769 74.574702,20.04825 102.148452,-11.04994 14.027838,-15.82085 20.603638,-35.3599 19.928698,-54.03491 z"
         id="path965" />
    </g>
  </g>
</svg>
