<?xml version="1.0" encoding="UTF-8" standalone="no"?>
<svg
   xmlns:dc="http://purl.org/dc/elements/1.1/"
   xmlns:cc="http://creativecommons.org/ns#"
   xmlns:rdf="http://www.w3.org/1999/02/22-rdf-syntax-ns#"
   xmlns:svg="http://www.w3.org/2000/svg"
   xmlns="http://www.w3.org/2000/svg"
   xmlns:xlink="http://www.w3.org/1999/xlink"
   xmlns:sodipodi="http://sodipodi.sourceforge.net/DTD/sodipodi-0.dtd"
   xmlns:inkscape="http://www.inkscape.org/namespaces/inkscape"
   viewBox="0 0 512 512"
   version="1.0"
   id="svg2"
   height="512"
   width="512"
   inkscape:version="0.92.3 (2405546, 2018-03-11)"
   sodipodi:docname="key-mon.svg">
  <sodipodi:namedview
     pagecolor="#ffffff"
     bordercolor="#666666"
     borderopacity="1"
     objecttolerance="10"
     gridtolerance="10"
     guidetolerance="10"
     inkscape:pageopacity="0"
     inkscape:pageshadow="2"
     inkscape:window-width="1366"
     inkscape:window-height="718"
     id="namedview30"
     showgrid="false"
     inkscape:zoom="0.29209588"
     inkscape:cx="-623.62639"
     inkscape:cy="377.28948"
     inkscape:window-x="0"
     inkscape:window-y="25"
     inkscape:window-maximized="1"
     inkscape:current-layer="svg2" />
  <defs
     id="defs4">
    <linearGradient
       id="linearGradient4132">
      <stop
         id="stop4134"
         offset="0"
         style="stop-color:#f2f2f2;stop-opacity:1;" />
      <stop
         id="stop4136"
         offset="1"
         style="stop-color:#f2f2f2;stop-opacity:0;" />
    </linearGradient>
    <linearGradient
       id="linearGradient3155">
      <stop
         id="stop3157"
         offset="0"
         style="stop-color:#303030;stop-opacity:1;" />
      <stop
         id="stop3159"
         offset="1"
         style="stop-color:#303030;stop-opacity:0;" />
    </linearGradient>
    <linearGradient
       id="linearGradient6067">
      <stop
         id="stop6069"
         offset="0"
         style="stop-color:#ffffff;stop-opacity:1;" />
      <stop
         id="stop6071"
         offset="1"
         style="stop-color:#ffffff;stop-opacity:0;" />
    </linearGradient>
    <linearGradient
       id="linearGradient3142">
      <stop
         id="stop3144"
         offset="0"
         style="stop-color:#303030;stop-opacity:1;" />
      <stop
         id="stop3146"
         offset="1"
         style="stop-color:#303030;stop-opacity:0;" />
    </linearGradient>
    <linearGradient
       gradientTransform="matrix(1.6258627,0,0,1.6258627,-28.787153,-52.145846)"
       gradientUnits="userSpaceOnUse"
       y2="110.71667"
       x2="92.804863"
       y1="75.855133"
       x1="92.804863"
       id="linearGradient3148"
       xlink:href="#linearGradient3142" />
    <linearGradient
       gradientUnits="userSpaceOnUse"
       y2="119.78299"
       x2="29.731594"
       y1="96.211563"
       x1="29.731594"
       id="linearGradient6073"
       xlink:href="#linearGradient6067" />
    <linearGradient
       gradientUnits="userSpaceOnUse"
       y2="124.82345"
       x2="100.75668"
       y1="85.389313"
       x1="100.75668"
       id="linearGradient3161"
       xlink:href="#linearGradient3155" />
    <linearGradient
       gradientTransform="translate(-2.2728432)"
       gradientUnits="userSpaceOnUse"
       y2="-115.67227"
       x2="96.899597"
       y1="-101.65641"
       x1="96.899597"
       id="linearGradient4138"
       xlink:href="#linearGradient4132" />
    <filter
       style="color-interpolation-filters:sRGB"
       height="1"
       width="1"
       y="0"
       x="0"
       id="filter3004">
      <feColorMatrix
         result="result2"
         type="saturate"
         in="SourceGraphic"
         values="1"
         id="feColorMatrix3006" />
      <feFlood
         result="result1"
         flood-opacity="1"
         flood-color="rgb(254,102,0)"
         id="feFlood3008" />
      <feBlend
         result="result3"
         in="result1"
         mode="multiply"
         in2="result2"
         id="feBlend3010" />
      <feComposite
         result="result4"
         operator="in"
         in2="SourceGraphic"
         id="feComposite3012" />
    </filter>
  </defs>
  <metadata
     id="metadata7">
    <rdf:RDF>
      <cc:Work
         rdf:about="">
        <dc:format>image/svg+xml</dc:format>
        <dc:type
           rdf:resource="http://purl.org/dc/dcmitype/StillImage" />
        <dc:title />
      </cc:Work>
    </rdf:RDF>
  </metadata>
  <g
     id="g4184"
     transform="translate(1129.766,-140.36487)">
    <rect
       ry="35.666451"
       rx="29.142105"
       y="243.03218"
       x="20.729401"
       height="241.39137"
       width="241.39137"
       id="rect4444"
       style="fill:#b3b3b3;fill-opacity:1;fill-rule:nonzero;stroke:none;stroke-width:3.86228538" />
    <rect
       ry="27.740574"
       rx="22.666082"
       y="270.55377"
       x="46.850349"
       height="187.74883"
       width="187.74883"
       id="rect4444-3"
       style="fill:#ebebeb;fill-opacity:1;fill-rule:nonzero;stroke:none" />
    <path
       d="M 189.13202,417.06743 147.56512,316.00009 H 136.1655 L 94.320573,417.06743 H 108.6396 l 12.92883,-33.22572 h 39.89866 l 13.20688,33.22572 z m -32.66964,-44.48632 h -30.02825 l 15.43118,-41.42786 z"
       style="font-style:normal;font-variant:normal;font-weight:bold;font-stretch:normal;font-size:230.9047699px;line-height:125%;font-family:Laksaman;-inkscape-font-specification:'Laksaman, Bold';text-align:start;letter-spacing:0px;word-spacing:0px;writing-mode:lr-tb;text-anchor:start;fill:#394050;fill-opacity:1;stroke:none"
       id="path4167"
       inkscape:connector-curvature="0" />
    <g
       style="fill:#ebebeb;fill-opacity:1"
       transform="matrix(2.8320714,0,0,-2.8320714,481.25414,295.24898)"
       id="g310">
      <path
         inkscape:connector-curvature="0"
         id="path312"
         style="fill:#ebebeb;fill-opacity:1;fill-rule:nonzero;stroke:none"
         d="m 0,0 c 0,0 6,57.667 -2,67 -8,9.333 -24.666,11.667 -24.666,11.667 H -27.5 V 45.5 c 0,-2.201 -1.8,-4 -4,-4 h -7.833 c -2.2,0 -4,1.799 -4,4 V 78.667 C -43.333,78.667 -60,76.333 -68,67 -76,57.667 -70,0 -70,0 -70,0 -89.334,-66.001 -35,-66.001 19.334,-66.001 0,0 0,0" />
    </g>
    <g
       style="fill:#394050"
       transform="matrix(2.8320714,0,0,-2.8320714,311.55389,461.82425)"
       id="g314">
      <path
         inkscape:connector-curvature="0"
         id="path316"
         style="fill:#394050;fill-opacity:1;fill-rule:nonzero;stroke:none"
         d="M 0,0 C 15.079,27.85 -10.079,58.817 -10.079,58.817 -10.079,58.817 -22.296,17.102 0,0" />
    </g>
    <g
       style="fill:#394050"
       transform="matrix(2.8320714,0,0,-2.8320714,452.71225,461.82425)"
       id="g318">
      <path
         inkscape:connector-curvature="0"
         id="path320"
         style="fill:#394050;fill-opacity:1;fill-rule:nonzero;stroke:none"
         d="M 0,0 C -15.078,27.85 10.08,58.817 10.08,58.817 10.08,58.817 22.297,17.102 0,0" />
    </g>
    <g
       style="fill:#394050"
       transform="matrix(2.8320714,0,0,-2.8320714,403.37216,166.74517)"
       id="g322">
      <path
         inkscape:connector-curvature="0"
         id="path324"
         style="fill:#394050;fill-opacity:1;fill-rule:nonzero;stroke:none"
         d="m 0,0 c 0,-2.2 -1.8,-4 -4,-4 h -7.833 c -2.2,0 -4,1.8 -4,4 v 29.292 c 0,2.199 1.8,4 4,4 H -4 c 2.2,0 4,-1.801 4,-4 z" />
    </g>
    <g
       transform="matrix(2.8320714,0,0,-2.8320714,393.40187,145.46866)"
       id="g326">
      <path
         inkscape:connector-curvature="0"
         id="path328"
         style="fill:#ffffff;fill-opacity:1;fill-rule:nonzero;stroke:none"
         d="m 0,0 c 0,-1.222 -0.999,-2.221 -2.221,-2.221 h -4.35 c -1.221,0 -2.221,0.999 -2.221,2.221 v 16.266 c 0,1.222 1,2.221 2.221,2.221 h 4.35 C -0.999,18.487 0,17.488 0,16.266 Z" />
    </g>
    <path
       sodipodi:open="true"
       sodipodi:end="6.2784904"
       sodipodi:start="0"
       d="m 413.04216,457.30792 a 30.854202,10.783992 0 0 1 -30.81799,10.78399 30.854202,10.783992 0 0 1 -30.89033,-10.75867 30.854202,10.783992 0 0 1 30.74547,-10.80924 30.854202,10.783992 0 0 1 30.96251,10.73329"
       sodipodi:ry="10.783992"
       sodipodi:rx="30.854202"
       sodipodi:cy="457.30792"
       sodipodi:cx="382.18796"
       id="path3767"
       style="fill:#394050;fill-opacity:1;stroke:#394050;stroke-width:5.93089294;stroke-linecap:round;stroke-linejoin:bevel;stroke-miterlimit:4;stroke-dasharray:none;stroke-opacity:1"
       sodipodi:type="arc" />
    <path
       sodipodi:nodetypes="cc"
       inkscape:connector-curvature="0"
       id="path3769"
       d="m 380.62356,177.29968 -0.0558,60.31994"
       style="fill:none;stroke:#394050;stroke-width:4.55233431;stroke-linecap:butt;stroke-linejoin:miter;stroke-miterlimit:4;stroke-dasharray:none;stroke-opacity:1" />
  </g>
  <g
     id="g912">
    <path
       id="path1165"
       d="M 432.91328,56.474957 C 535.10618,145.04846 538.74005,306.17452 441.03006,416.37299 343.32007,526.57148 181.27962,544.10044 79.086743,455.52694 -23.106206,366.95112 -26.740033,205.82738 70.969944,95.626584 168.67988,-14.571874 330.72033,-32.100857 432.91328,56.474957 Z"
       inkscape:connector-curvature="0"
       style="fill:#3689e6;fill-opacity:1;stroke-width:11.10954762" />
    <path
       id="path1167"
       d="M 511.63552,224.904 C 510.08416,286.21587 486.47428,349.05909 440.66913,400.71745 342.95911,510.91591 180.91867,528.44488 78.725762,439.87141 30.827125,398.35528 4.4968196,340.92296 0.19382737,280.22782 0.79908097,346.58521 27.117406,410.48267 79.078693,455.51763 181.27157,544.09344 343.31972,526.55518 441.02203,416.366 490.72697,360.30678 514.02704,291.07521 511.63552,224.904 Z"
       inkscape:connector-curvature="0"
       style="opacity:1;fill:#000000;fill-opacity:0.49019608;stroke-width:11.10954762" />
    <g
       style="fill:#000000;fill-opacity:0.49019608"
       id="g898"
       transform="translate(20,17.731503)">
      <g
         style="fill:#000000;fill-opacity:0.49019608"
         transform="matrix(0.54188295,0,0,0.54188295,45.811705,188.74423)"
         id="g894">
        <path
           inkscape:connector-curvature="0"
           style="fill:#000000;fill-opacity:0.49019608;fill-rule:nonzero;stroke:none;stroke-width:0.89142859"
           d="M 137.66602,100 C 116.79885,100 100,120.55874 100,146.09766 V 365.90039 C 100,391.43931 116.79885,412 137.66602,412 H 374.33398 C 395.20114,412 412,391.43931 412,365.90039 V 146.09766 C 412,120.55874 395.20114,100 374.33398,100 Z m 16.91015,23.10938 h 197.71289 c 17.43256,0 31.4668,17.17436 31.4668,38.50976 v 183.625 c 0,21.33539 -14.03424,38.51172 -31.4668,38.51172 H 154.57617 c -17.43257,0 -31.46679,-17.17633 -31.46679,-38.51172 v -183.625 c 0,-21.3354 14.03422,-38.50976 31.46679,-38.50976 z"
           id="path890" />
        <path
           style="fill:#000000;fill-opacity:0.49019608;fill-rule:nonzero;stroke:none;stroke-width:0.64933586"
           d="m 166.80761,140.22653 c -15.2001,0 -27.43697,14.97592 -27.43697,33.57903 v 160.1082 c 0,18.60311 12.23687,33.58031 27.43697,33.58031 h 172.3936 c 15.20009,0 27.43697,-14.9772 27.43697,-33.58031 v -160.1082 c 0,-18.60311 -12.23688,-33.57903 -27.43697,-33.57903 z m 104.66736,35.57142 c 5.50539,0 9.26884,3.83334 11.28981,11.49908 l 6.58594,35.12247 15.57518,72.6508 5.95817,16.5162 c 2.02098,5.64478 3.03108,9.40697 3.03108,11.28856 0,2.9966 -1.07999,5.50599 -3.24033,7.52698 -2.16035,2.02095 -4.63417,3.03107 -7.42171,3.03107 -6.41133,0 -11.98663,-8.2232 -16.72547,-24.6697 -1.81189,-6.27196 -4.07608,-17.24724 -6.79392,-32.92716 -7.10825,0.97564 -16.41146,2.71761 -27.91004,5.2264 l -27.80603,5.74891 c -3.48442,9.12921 -9.44346,22.47536 -17.87577,40.03687 -2.23004,3.90257 -5.26162,5.85291 -9.0945,5.85291 -2.78754,0 -5.29566,-1.01012 -7.5257,-3.03108 -2.16035,-2.02097 -3.24035,-4.53037 -3.24035,-7.52698 0,-3.34503 5.26148,-16.06227 15.78446,-38.15354 -1.18471,-1.81191 -1.7768,-3.90329 -1.7768,-6.27268 0,-5.64479 3.41406,-9.26847 10.24352,-10.87132 7.94452,-14.91335 17.97956,-32.05601 30.10534,-51.42943 16.51621,-26.41197 26.7952,-39.61836 30.83712,-39.61836 z m -5.12241,38.15483 -29.89608,48.18909 c 8.43232,-2.16033 21.2207,-4.77392 38.3641,-7.84023 z"
           id="path892"
           inkscape:connector-curvature="0" />
      </g>
      <path
         inkscape:connector-curvature="0"
         id="path896"
         d="m 388.89379,401.80965 c -6.86709,5.83838 -15.31696,10.07784 -23.07551,11.57753 -4.15012,0.80213 -27.40394,1.19312 -34.67769,0.58295 -24.76048,-2.0765 -47.88475,-28.38067 -50.50637,-57.44939 -0.43667,-4.84729 -0.6896,-84.2614 -0.26936,-84.73051 0.13454,-0.14942 8.56662,-0.28449 18.73928,-0.29992 10.17286,-0.0157 39.84192,-0.0672 65.9318,-0.11531 l 47.43595,-0.0871 0.0511,1.6451 c 0.0977,3.14408 0.0621,74.88458 -0.0391,78.83621 -0.29554,11.55475 -3.85792,23.44589 -10.16619,33.93547 -2.76491,4.59768 -9.76011,12.98992 -13.4239,16.10501 z m -7.36326,-136.33001 c -16.81114,0.002 -30.70839,-0.12297 -30.88231,-0.27911 -0.24531,-0.22766 -0.41602,-10.36846 -0.30346,-18.41095 0.0148,-1.06738 0.16037,-1.19237 1.5452,-1.3268 3.93996,-0.38277 5.29442,-1.17226 8.88772,-5.18082 3.15128,-3.51581 3.48254,-4.06359 4.21504,-6.97886 0.44861,-1.78518 0.76705,-7.4146 0.73057,-12.91906 -0.0797,-12.10358 -0.70955,-14.17263 -5.46266,-17.94083 -2.39115,-1.89554 -3.78617,-2.61931 -6.34862,-3.30335 l -3.28483,-0.87445 -0.01,-7.42932 c -0.006,-4.28506 0.26665,-7.57135 0.64319,-7.76435 0.85985,-0.44112 10.14402,-0.22415 14.37264,0.33578 11.22473,1.4858 21.57159,6.6428 30.22605,15.06405 9.41941,9.16563 14.98631,20.51174 16.1744,32.96623 0.42287,4.43588 0.65417,33.37718 0.26978,33.80628 -0.11385,0.12759 -13.96162,0.23313 -30.77277,0.23552 z m -69.56544,0.0143 c -16.33261,0.005 -30.18102,-0.003 -30.77411,-0.0172 -0.95988,-0.0227 -1.08099,-1.66665 -1.1012,-14.95738 -0.0261,-16.98281 0.18323,-20.30402 1.65581,-26.29823 2.33025,-9.48543 6.57359,-16.95778 13.98156,-24.62082 10.52587,-10.88834 21.89579,-15.87403 37.87127,-16.60666 4.25631,-0.19549 7.8532,-0.25149 7.9938,-0.1253 0.14889,0.1152 0.25078,3.5656 0.24538,7.64249 l -0.01,7.41247 -2.85322,0.54402 c -3.32486,0.63356 -5.44665,1.87446 -7.92356,4.63383 -2.15818,2.40434 -4.33373,7.26923 -4.59202,10.26877 -0.39564,4.58886 -0.13815,18.95471 0.37467,20.92036 1.38876,5.32212 5.34895,8.97743 11.4642,10.57941 l 3.83143,1.00449 -0.068,9.39343 c -0.0371,5.16598 -0.14252,9.57869 -0.2337,9.8052 -0.0924,0.22744 -13.52887,0.41547 -29.86168,0.42017 z m 36.79645,-28.20118 c -2.9099,1.17071 -5.75053,0.64299 -8.53638,-1.58487 -1.99762,-1.59863 -2.52209,-2.29962 -3.00165,-4.01741 -0.60977,-2.18409 -0.85505,-17.80889 -0.32723,-20.83334 0.37104,-2.12786 3.2195,-5.49995 5.31255,-6.28935 5.00853,-1.8884 10.71892,0.97597 11.89222,5.96528 0.63884,2.71817 0.52949,19.18258 -0.14047,21.17944 -0.75092,2.23729 -3.06633,4.72242 -5.19904,5.58025 z m -2.13456,-54.45797 c -2.2481,0.11202 -4.28706,0.0245 -4.53109,-0.19459 -0.24036,-0.22383 -0.0391,-1.17832 0.45652,-2.13287 0.49569,-0.9541 1.60528,-3.08227 2.46684,-4.72918 4.64443,-8.87882 4.48493,-19.75036 -0.35451,-24.15336 -4.20107,-3.822 -8.93836,-4.62758 -21.74516,-3.69804 -5.34435,0.38779 -11.16004,0.49524 -12.92392,0.23877 -6.00001,-0.87294 -11.30807,-3.98189 -14.01384,-8.20856 -2.78455,-4.35007 -2.96245,-12.39441 -0.40765,-18.414 1.95031,-4.59493 7.59281,-10.93095 12.70599,-14.26787 4.47822,-2.92235 9.125,-5.1864 10.25277,-4.99528 1.22109,0.20657 1.85901,2.85404 1.16941,4.85158 -0.49055,1.42124 -1.04935,1.85729 -5.73237,4.47284 -8.12955,4.54066 -12.56603,8.67328 -15.54099,14.47674 -1.08697,2.12031 -1.19562,5.73777 -0.23275,7.74325 1.2281,2.55808 5.29471,5.338 9.52001,6.50799 3.09849,0.85778 5.61527,0.91771 14.84487,0.35458 14.74153,-0.89996 18.49235,-0.29423 23.68814,3.82331 3.73077,2.95862 5.35279,5.89151 6.51953,11.79638 1.27114,6.43709 0.96306,13.70961 -0.9134,21.55312 l -1.14148,4.77197 z"
         style="fill:#000000;fill-opacity:0.49019608;stroke-width:0.50488937" />
    </g>
    <g
       transform="translate(0,-2.2684967)"
       id="g888">
      <g
         id="g885"
         transform="matrix(0.54188295,0,0,0.54188295,45.811705,188.74423)">
        <path
           id="path875"
           d="M 137.66602,100 C 116.79885,100 100,120.55874 100,146.09766 V 365.90039 C 100,391.43931 116.79885,412 137.66602,412 H 374.33398 C 395.20114,412 412,391.43931 412,365.90039 V 146.09766 C 412,120.55874 395.20114,100 374.33398,100 Z m 16.91015,23.10938 h 197.71289 c 17.43256,0 31.4668,17.17436 31.4668,38.50976 v 183.625 c 0,21.33539 -14.03424,38.51172 -31.4668,38.51172 H 154.57617 c -17.43257,0 -31.46679,-17.17633 -31.46679,-38.51172 v -183.625 c 0,-21.3354 14.03422,-38.50976 31.46679,-38.50976 z"
           style="fill:#ffffff;fill-opacity:1;fill-rule:nonzero;stroke:none;stroke-width:0.89142859"
           inkscape:connector-curvature="0" />
        <path
           inkscape:connector-curvature="0"
           id="rect4444-3-3"
           d="m 166.80761,140.22653 c -15.2001,0 -27.43697,14.97592 -27.43697,33.57903 v 160.1082 c 0,18.60311 12.23687,33.58031 27.43697,33.58031 h 172.3936 c 15.20009,0 27.43697,-14.9772 27.43697,-33.58031 v -160.1082 c 0,-18.60311 -12.23688,-33.57903 -27.43697,-33.57903 z m 104.66736,35.57142 c 5.50539,0 9.26884,3.83334 11.28981,11.49908 l 6.58594,35.12247 15.57518,72.6508 5.95817,16.5162 c 2.02098,5.64478 3.03108,9.40697 3.03108,11.28856 0,2.9966 -1.07999,5.50599 -3.24033,7.52698 -2.16035,2.02095 -4.63417,3.03107 -7.42171,3.03107 -6.41133,0 -11.98663,-8.2232 -16.72547,-24.6697 -1.81189,-6.27196 -4.07608,-17.24724 -6.79392,-32.92716 -7.10825,0.97564 -16.41146,2.71761 -27.91004,5.2264 l -27.80603,5.74891 c -3.48442,9.12921 -9.44346,22.47536 -17.87577,40.03687 -2.23004,3.90257 -5.26162,5.85291 -9.0945,5.85291 -2.78754,0 -5.29566,-1.01012 -7.5257,-3.03108 -2.16035,-2.02097 -3.24035,-4.53037 -3.24035,-7.52698 0,-3.34503 5.26148,-16.06227 15.78446,-38.15354 -1.18471,-1.81191 -1.7768,-3.90329 -1.7768,-6.27268 0,-5.64479 3.41406,-9.26847 10.24352,-10.87132 7.94452,-14.91335 17.97956,-32.05601 30.10534,-51.42943 16.51621,-26.41197 26.7952,-39.61836 30.83712,-39.61836 z m -5.12241,38.15483 -29.89608,48.18909 c 8.43232,-2.16033 21.2207,-4.77392 38.3641,-7.84023 z"
           style="fill:#ffffff;fill-opacity:1;fill-rule:nonzero;stroke:none;stroke-width:0.64933586" />
      </g>
      <path
         style="fill:#ffffff;fill-opacity:1;stroke-width:0.50488937"
         d="m 388.89379,401.80965 c -6.86709,5.83838 -15.31696,10.07784 -23.07551,11.57753 -4.15012,0.80213 -27.40394,1.19312 -34.67769,0.58295 -24.76048,-2.0765 -47.88475,-28.38067 -50.50637,-57.44939 -0.43667,-4.84729 -0.6896,-84.2614 -0.26936,-84.73051 0.13454,-0.14942 8.56662,-0.28449 18.73928,-0.29992 10.17286,-0.0157 39.84192,-0.0672 65.9318,-0.11531 l 47.43595,-0.0871 0.0511,1.6451 c 0.0977,3.14408 0.0621,74.88458 -0.0391,78.83621 -0.29554,11.55475 -3.85792,23.44589 -10.16619,33.93547 -2.76491,4.59768 -9.76011,12.98992 -13.4239,16.10501 z m -7.36326,-136.33001 c -16.81114,0.002 -30.70839,-0.12297 -30.88231,-0.27911 -0.24531,-0.22766 -0.41602,-10.36846 -0.30346,-18.41095 0.0148,-1.06738 0.16037,-1.19237 1.5452,-1.3268 3.93996,-0.38277 5.29442,-1.17226 8.88772,-5.18082 3.15128,-3.51581 3.48254,-4.06359 4.21504,-6.97886 0.44861,-1.78518 0.76705,-7.4146 0.73057,-12.91906 -0.0797,-12.10358 -0.70955,-14.17263 -5.46266,-17.94083 -2.39115,-1.89554 -3.78617,-2.61931 -6.34862,-3.30335 l -3.28483,-0.87445 -0.01,-7.42932 c -0.006,-4.28506 0.26665,-7.57135 0.64319,-7.76435 0.85985,-0.44112 10.14402,-0.22415 14.37264,0.33578 11.22473,1.4858 21.57159,6.6428 30.22605,15.06405 9.41941,9.16563 14.98631,20.51174 16.1744,32.96623 0.42287,4.43588 0.65417,33.37718 0.26978,33.80628 -0.11385,0.12759 -13.96162,0.23313 -30.77277,0.23552 z m -69.56544,0.0143 c -16.33261,0.005 -30.18102,-0.003 -30.77411,-0.0172 -0.95988,-0.0227 -1.08099,-1.66665 -1.1012,-14.95738 -0.0261,-16.98281 0.18323,-20.30402 1.65581,-26.29823 2.33025,-9.48543 6.57359,-16.95778 13.98156,-24.62082 10.52587,-10.88834 21.89579,-15.87403 37.87127,-16.60666 4.25631,-0.19549 7.8532,-0.25149 7.9938,-0.1253 0.14889,0.1152 0.25078,3.5656 0.24538,7.64249 l -0.01,7.41247 -2.85322,0.54402 c -3.32486,0.63356 -5.44665,1.87446 -7.92356,4.63383 -2.15818,2.40434 -4.33373,7.26923 -4.59202,10.26877 -0.39564,4.58886 -0.13815,18.95471 0.37467,20.92036 1.38876,5.32212 5.34895,8.97743 11.4642,10.57941 l 3.83143,1.00449 -0.068,9.39343 c -0.0371,5.16598 -0.14252,9.57869 -0.2337,9.8052 -0.0924,0.22744 -13.52887,0.41547 -29.86168,0.42017 z m 36.79645,-28.20118 c -2.9099,1.17071 -5.75053,0.64299 -8.53638,-1.58487 -1.99762,-1.59863 -2.52209,-2.29962 -3.00165,-4.01741 -0.60977,-2.18409 -0.85505,-17.80889 -0.32723,-20.83334 0.37104,-2.12786 3.2195,-5.49995 5.31255,-6.28935 5.00853,-1.8884 10.71892,0.97597 11.89222,5.96528 0.63884,2.71817 0.52949,19.18258 -0.14047,21.17944 -0.75092,2.23729 -3.06633,4.72242 -5.19904,5.58025 z m -2.13456,-54.45797 c -2.2481,0.11202 -4.28706,0.0245 -4.53109,-0.19459 -0.24036,-0.22383 -0.0391,-1.17832 0.45652,-2.13287 0.49569,-0.9541 1.60528,-3.08227 2.46684,-4.72918 4.64443,-8.87882 4.48493,-19.75036 -0.35451,-24.15336 -4.20107,-3.822 -8.93836,-4.62758 -21.74516,-3.69804 -5.34435,0.38779 -11.16004,0.49524 -12.92392,0.23877 -6.00001,-0.87294 -11.30807,-3.98189 -14.01384,-8.20856 -2.78455,-4.35007 -2.96245,-12.39441 -0.40765,-18.414 1.95031,-4.59493 7.59281,-10.93095 12.70599,-14.26787 4.47822,-2.92235 9.125,-5.1864 10.25277,-4.99528 1.22109,0.20657 1.85901,2.85404 1.16941,4.85158 -0.49055,1.42124 -1.04935,1.85729 -5.73237,4.47284 -8.12955,4.54066 -12.56603,8.67328 -15.54099,14.47674 -1.08697,2.12031 -1.19562,5.73777 -0.23275,7.74325 1.2281,2.55808 5.29471,5.338 9.52001,6.50799 3.09849,0.85778 5.61527,0.91771 14.84487,0.35458 14.74153,-0.89996 18.49235,-0.29423 23.68814,3.82331 3.73077,2.95862 5.35279,5.89151 6.51953,11.79638 1.27114,6.43709 0.96306,13.70961 -0.9134,21.55312 l -1.14148,4.77197 z"
         id="path1154"
         inkscape:connector-curvature="0" />
    </g>
  </g>
</svg>
