<?xml version="1.0" encoding="UTF-8" standalone="no"?>
<!-- Created with Inkscape (http://www.inkscape.org/) -->

<svg
   xmlns:dc="http://purl.org/dc/elements/1.1/"
   xmlns:cc="http://creativecommons.org/ns#"
   xmlns:rdf="http://www.w3.org/1999/02/22-rdf-syntax-ns#"
   xmlns:svg="http://www.w3.org/2000/svg"
   xmlns="http://www.w3.org/2000/svg"
   xmlns:sodipodi="http://sodipodi.sourceforge.net/DTD/sodipodi-0.dtd"
   xmlns:inkscape="http://www.inkscape.org/namespaces/inkscape"
   id="svg2"
   version="1.1"
   inkscape:version="0.92.3 (2405546, 2018-03-11)"
   width="512"
   height="512"
   viewBox="0 0 511.99999 511.99999"
   sodipodi:docname="kfontview.svg">
  <metadata
     id="metadata8">
    <rdf:RDF>
      <cc:Work
         rdf:about="">
        <dc:format>image/svg+xml</dc:format>
        <dc:type
           rdf:resource="http://purl.org/dc/dcmitype/StillImage" />
        <dc:title />
      </cc:Work>
    </rdf:RDF>
  </metadata>
  <defs
     id="defs6" />
  <sodipodi:namedview
     pagecolor="#ffffff"
     bordercolor="#666666"
     borderopacity="1"
     objecttolerance="10"
     gridtolerance="10"
     guidetolerance="10"
     inkscape:pageopacity="0"
     inkscape:pageshadow="2"
     inkscape:window-width="1366"
     inkscape:window-height="718"
     id="namedview4"
     inkscape:document-units="px"
     showgrid="false"
     inkscape:zoom="0.41113281"
     inkscape:cx="353.44926"
     inkscape:cy="145.31078"
     inkscape:window-x="0"
     inkscape:window-y="25"
     inkscape:window-maximized="1"
     inkscape:current-layer="svg2" />
  <g
     transform="translate(-8.3842856e-8,4.7443732e-6)"
     id="g857">
    <path
       style="fill:#3689e6;fill-opacity:1;stroke-width:11.10955811"
       inkscape:connector-curvature="0"
       d="M 432.91322,56.473985 C 535.10617,145.0487 538.74009,306.17382 441.03002,416.37285 343.31994,526.57187 181.27962,544.10051 79.086658,455.52613 -23.106292,366.95142 -26.739896,205.8263 70.969858,95.627265 168.67994,-14.571775 330.72026,-32.100735 432.91322,56.473985 Z"
       id="path52" />
    <path
       style="opacity:1;fill:#000000;fill-opacity:0.49019608;stroke-width:11.10955811"
       inkscape:connector-curvature="0"
       d="M 511.63545,224.90342 C 510.08345,286.2151 486.47418,349.0583 440.66906,400.71814 342.9593,510.91716 180.91866,528.44579 78.725698,439.87141 30.827138,398.35558 4.4969077,340.92294 0.19386776,280.22886 c 0.6048,66.3568 26.92352024,130.25343 78.88479024,175.29023 102.192962,88.5747 264.240962,71.0371 361.943362,-39.15328 49.70495,-56.05823 73.00511,-125.29087 70.61343,-191.46239 z"
       id="path54" />
    <path
       inkscape:connector-curvature="0"
       style="fill:#000000;fill-opacity:0.49019608;stroke-width:0.86791039"
       d="m 181.35742,120.00047 -5.85156,2.27734 c -13.35327,5.19512 -23.18283,13.80606 -28.80859,25.23828 -4.22932,8.59454 -5.66349,16.16718 -5.68165,29.98438 L 141,188.99852 h 18.20508 18.20703 l 1.53711,2.34765 c 2.12618,3.24522 2.12715,12.88183 0.002,16.13086 l -1.53906,2.35156 H 159.20703 141 v 27.77344 27.77344 h 18.58203 18.58399 l 2.13867,2.54102 c 2.68883,3.19551 3.56733,7.71099 2.36719,12.16796 -1.59371,5.91851 -2.358,6.1211 -23.20508,6.1211 H 141 v 27.77344 27.77343 h 19.07422 19.07422 l 1.53906,2.34766 c 1.12213,1.71259 1.53906,4.08175 1.53906,8.75391 0,9.83451 0.25375,9.72656 -22.66211,9.72656 H 141 v 12.4668 c 2e-5,14.20605 0.75487,19.26717 4.01367,26.86328 3.0248,11.19099 8.83072,16.04934 16.94141,21.57031 l 6.25586,2.9707 c 11.97638,5.68753 8.93421,5.53022 108.26172,5.54688 86.72022,0.0145 90.14331,-0.0455 96.60937,-1.69922 9.55614,-2.44405 16.47538,-6.38826 23.5918,-13.44727 4.40476,-4.36923 7.05764,-7.95025 9.34179,-12.61133 5.97454,-12.19159 5.74107,-7.09515 5.75782,-124.73242 l 0.01,-67.6582 h -0.19726 l -0.25,-50.61133 c 0,0 -1.76735,-5.44755 -2.87891,-8.49609 -5.21285,-14.29674 -16.91112,-25.49045 -32.14453,-30.75586 l -5.75024,-1.98633 h -94.60156 z m 111,68.21094 c 7.95268,0 17.96278,1.64119 30.03125,4.91992 15.13794,4.11583 22.70703,8.89269 22.70703,14.33398 0,3.97633 -1.43085,7.3957 -4.29101,10.25586 -2.79041,2.86016 -6.17407,4.28907 -10.15039,4.28907 -1.60449,0 -3.38268,-0.31357 -5.33594,-0.94141 -8.99905,-2.92992 -19.98553,-4.39453 -32.96094,-4.39453 -4.25534,0 -9.1731,0.27981 -14.7539,0.83789 -5.51106,0.55808 -11.65125,1.3936 -18.41797,2.50976 0.13965,13.39394 0.13965,24.90437 0,34.53125 10.60353,-2.5811 19.39314,-3.87109 26.36914,-3.87109 12.9754,0 24.27741,0.59338 33.90429,1.7793 8.99905,1.11616 13.49805,5.85925 13.49805,14.23047 0,4.04607 -1.4289,7.42974 -4.28906,10.15039 -2.86016,2.72065 -6.34898,4.08203 -10.46485,4.08203 -3.6275,0 -9.06916,-0.27981 -16.32421,-0.83789 -7.25505,-0.55808 -12.69668,-0.83789 -16.32422,-0.83789 -5.09249,0 -13.8821,1.60551 -26.36914,4.81445 v 65.60938 c 0,4.04607 -1.60353,7.42974 -4.8125,10.15039 -3.13922,2.72064 -6.76698,4.08007 -10.88282,4.08007 -4.04607,0 -7.32455,-1.35943 -9.83593,-4.08007 -2.51135,-2.6509 -3.76758,-6.03456 -3.76758,-10.15039 V 229.75438 c 0,-2.72065 0.0339,-6.83661 0.10351,-12.34766 0.13966,-5.51105 0.21094,-9.62701 0.21094,-12.34766 0,-4.11583 1.35943,-7.53325 4.08008,-10.2539 2.7904,-2.72065 6.27922,-4.08203 10.46484,-4.08203 2.65086,0 4.98671,0.5239 7.00977,1.57031 8.09215,-1.39522 15.5223,-2.40732 22.28906,-3.03516 6.76673,-0.69759 12.87124,-1.04687 18.3125,-1.04687 z"
       id="path45" />
    <path
       inkscape:connector-curvature="0"
       id="path36"
       d="m 161.35742,100 -5.85156,2.27734 c -13.35327,5.19512 -23.18283,13.80606 -28.80859,25.23828 -4.22932,8.59454 -5.66349,16.16718 -5.68165,29.98438 L 121,168.99805 h 18.20508 18.20703 l 1.53711,2.34765 c 2.12618,3.24522 2.12715,12.88183 0.002,16.13086 l -1.53906,2.35156 H 139.20703 121 v 27.77344 27.77344 h 18.58203 18.58399 l 2.13867,2.54102 c 2.68883,3.19551 3.56733,7.71099 2.36719,12.16796 -1.59371,5.91851 -2.358,6.1211 -23.20508,6.1211 H 121 v 27.77344 27.77343 h 19.07422 19.07422 l 1.53906,2.34766 c 1.12213,1.71259 1.53906,4.08175 1.53906,8.75391 0,9.83451 0.25375,9.72656 -22.66211,9.72656 H 121 v 12.4668 c 2e-5,14.20605 0.75487,19.26717 4.01367,26.86328 3.0248,11.19099 8.83072,16.04934 16.94141,21.57031 l 6.25586,2.9707 c 11.97638,5.68753 8.93421,5.53022 108.26172,5.54688 86.72022,0.0145 90.14331,-0.0455 96.60937,-1.69922 9.55614,-2.44405 16.47538,-6.38826 23.5918,-13.44727 4.40476,-4.36923 7.05764,-7.95025 9.34179,-12.61133 5.97454,-12.19159 5.74107,-7.09515 5.75782,-124.73242 l 0.01,-67.6582 h -0.19726 l -0.25,-50.61133 c 0,0 -1.76735,-5.44755 -2.87891,-8.49609 -5.21285,-14.29674 -16.91112,-25.49045 -32.14453,-30.75586 L 350.5625,100 h -94.60156 z m 111,68.21094 c 7.95268,0 17.96278,1.64119 30.03125,4.91992 15.13794,4.11583 22.70703,8.89269 22.70703,14.33398 0,3.97633 -1.43085,7.3957 -4.29101,10.25586 -2.79041,2.86016 -6.17407,4.28907 -10.15039,4.28907 -1.60449,0 -3.38268,-0.31357 -5.33594,-0.94141 -8.99905,-2.92992 -19.98553,-4.39453 -32.96094,-4.39453 -4.25534,0 -9.1731,0.27981 -14.7539,0.83789 -5.51106,0.55808 -11.65125,1.3936 -18.41797,2.50976 0.13965,13.39394 0.13965,24.90437 0,34.53125 10.60353,-2.5811 19.39314,-3.87109 26.36914,-3.87109 12.9754,0 24.27741,0.59338 33.90429,1.7793 8.99905,1.11616 13.49805,5.85925 13.49805,14.23047 0,4.04607 -1.4289,7.42974 -4.28906,10.15039 -2.86016,2.72065 -6.34898,4.08203 -10.46485,4.08203 -3.6275,0 -9.06916,-0.27981 -16.32421,-0.83789 -7.25505,-0.55808 -12.69668,-0.83789 -16.32422,-0.83789 -5.09249,0 -13.8821,1.60551 -26.36914,4.81445 v 65.60938 c 0,4.04607 -1.60353,7.42974 -4.8125,10.15039 -3.13922,2.72064 -6.76698,4.08007 -10.88282,4.08007 -4.04607,0 -7.32455,-1.35943 -9.83593,-4.08007 -2.51135,-2.6509 -3.76758,-6.03456 -3.76758,-10.15039 V 209.75391 c 0,-2.72065 0.0339,-6.83661 0.10351,-12.34766 0.13966,-5.51105 0.21094,-9.62701 0.21094,-12.34766 0,-4.11583 1.35943,-7.53325 4.08008,-10.2539 2.7904,-2.72065 6.27922,-4.08203 10.46484,-4.08203 2.65086,0 4.98671,0.5239 7.00977,1.57031 8.09215,-1.39522 15.5223,-2.40732 22.28906,-3.03516 6.76673,-0.69759 12.87124,-1.04687 18.3125,-1.04687 z"
       style="fill:#ffffff;stroke-width:0.86791039" />
    <g
       transform="matrix(5.3575761,0,0,5.3575761,-796.73069,-732.99572)"
       id="flowRoot33"
       style="font-style:normal;font-weight:normal;font-size:40px;line-height:1.25;font-family:sans-serif;letter-spacing:0px;word-spacing:0px;fill:#000000;fill-opacity:1;stroke:none"
       aria-label="F" />
  </g>
</svg>
