<?xml version="1.0" encoding="UTF-8" standalone="no"?>
<!-- Created with Inkscape (http://www.inkscape.org/) -->

<svg
   xmlns:dc="http://purl.org/dc/elements/1.1/"
   xmlns:cc="http://creativecommons.org/ns#"
   xmlns:rdf="http://www.w3.org/1999/02/22-rdf-syntax-ns#"
   xmlns:svg="http://www.w3.org/2000/svg"
   xmlns="http://www.w3.org/2000/svg"
   xmlns:xlink="http://www.w3.org/1999/xlink"
   xmlns:sodipodi="http://sodipodi.sourceforge.net/DTD/sodipodi-0.dtd"
   xmlns:inkscape="http://www.inkscape.org/namespaces/inkscape"
   id="svg2"
   version="1.1"
   inkscape:version="0.92.3 (2405546, 2018-03-11)"
   width="512"
   height="512"
   sodipodi:docname="kipi-logo.svg">
  <metadata
     id="metadata8">
    <rdf:RDF>
      <cc:Work
         rdf:about="">
        <dc:format>image/svg+xml</dc:format>
        <dc:type
           rdf:resource="http://purl.org/dc/dcmitype/StillImage" />
        <dc:title />
      </cc:Work>
    </rdf:RDF>
  </metadata>
  <defs
     id="defs6">
    <linearGradient
       id="linearGradient4460-6">
      <stop
         offset="0"
         style="stop-color:#350b0b;stop-opacity:1;"
         id="stop3807" />
      <stop
         offset="1"
         style="stop-color:#7a4242;stop-opacity:1;"
         id="stop3809" />
    </linearGradient>
    <linearGradient
       gradientTransform="matrix(1.10525,0,0,1.10525,-134.22538,-295.81512)"
       xlink:href="#linearGradient4460-6"
       id="linearGradient3004"
       y1="279.09601"
       y2="268.32999"
       gradientUnits="userSpaceOnUse"
       x2="0" />
    <linearGradient
       id="linearGradient3895-9-0-3-2-4-0">
      <stop
         offset="0"
         style="stop-color:#dda3a8"
         id="stop2999" />
      <stop
         offset="1"
         style="stop-color:#933039"
         id="stop3001" />
    </linearGradient>
    <radialGradient
       cx="148.004"
       cy="160"
       gradientTransform="matrix(0.97656,0,0,0.97656,-16.5349,-236.25)"
       r="128"
       id="radialGradient4432"
       xlink:href="#linearGradient3895-9-0-3-2-4-0"
       gradientUnits="userSpaceOnUse" />
    <linearGradient
       x2="0"
       gradientUnits="userSpaceOnUse"
       y2="268.32999"
       y1="279.09601"
       id="linearGradient3014"
       xlink:href="#linearGradient4460"
       gradientTransform="matrix(1.10525,0,0,1.10525,-134.27874,-295.76183)" />
    <linearGradient
       id="linearGradient4460">
      <stop
         id="stop7"
         style="stop-color:#71345c;stop-opacity:1;"
         offset="0" />
      <stop
         id="stop9"
         style="stop-color:#a55689;stop-opacity:1;"
         offset="1" />
    </linearGradient>
    <inkscape:perspective
       id="perspective53"
       inkscape:persp3d-origin="64 : 42.666667 : 1"
       inkscape:vp_z="128 : 64 : 1"
       inkscape:vp_y="0 : 1000 : 0"
       inkscape:vp_x="0 : 64 : 1"
       sodipodi:type="inkscape:persp3d" />
    <clipPath
       clipPathUnits="userSpaceOnUse"
       id="clipPath14186-9">
      <path
         inkscape:original-d="m 137.57703,281.0191 c 6.32494,-1.3585 11.99755,4.87308 16.86679,9.13228 6.42572,5.62067 -8.54781,26.01622 13.24488,19.8293 5.86081,-1.66388 6.89528,11.31183 10.16415,16.45304 4.09971,6.44793 11.58575,13.6827 13.65231,21.03883 1.58383,5.63779 1.34339,10.90606 -1.62666,15.95302 -3.57124,6.06857 -11.7907,10.42929 -18.78877,11.20919 -5.73056,0.63864 -11.87822,-3.8351 -17.38362,-5.54906 -12.31617,-3.83432 -23.77946,-5.82074 -36.09666,-9.65174 -2.50091,-0.77785 -8.28361,-2.638 -10.96988,-3.42629 -4.51043,-1.3236 -6.46556,-0.99271 -8.72046,-4.76819 -2.68251,-4.49147 0.68051,-9.72669 3.16379,-14.79408 4.06995,-8.30524 1.91195,-17.82603 0.46203,-25.51057 -0.92235,-4.8884 -0.66071,-7.92707 2.7425,-10.79139 4.99476,-4.20385 14.53027,-1.53186 20.35272,-4.08305 5.82246,-2.55119 6.66365,-13.6939 12.93688,-15.04129 z"
         sodipodi:nodetypes="ssssssssssssssss"
         inkscape:connector-curvature="0"
         id="path14188-1"
         d="m 137.57703,281.0191 c 1.59929,-0.66295 3.3982,-0.78361 5.10074,-0.46963 1.70253,0.31398 3.31141,1.04948 4.74342,2.02239 2.86402,1.94583 4.98821,4.77774 7.02263,7.57952 4.67189,6.43406 9.16868,13.00227 13.24488,19.8293 3.30635,5.53766 6.34352,11.25685 10.16415,16.45304 2.49398,3.3919 5.3066,6.53947 7.813,9.92221 2.50639,3.38273 4.72794,7.05586 5.83931,11.11662 1.44411,5.27653 0.88463,11.09291 -1.62666,15.95302 -1.76663,3.41896 -4.47646,6.35228 -7.77242,8.33898 -3.29595,1.9867 -7.17064,3.01444 -11.01635,2.87021 -6.11413,-0.2293 -11.69944,-3.28515 -17.38362,-5.54906 -11.58097,-4.6125 -24.15978,-6.0594 -36.09666,-9.65174 -3.66859,-1.10404 -7.27582,-2.4107 -10.96988,-3.42629 -1.64125,-0.45122 -3.30866,-0.8482 -4.85875,-1.55144 -1.55008,-0.70325 -2.999548,-1.7491 -3.86171,-3.21675 -0.666391,-1.13439 -0.948386,-2.47002 -0.930187,-3.78554 0.0182,-1.31552 0.325889,-2.61453 0.773815,-3.85158 0.895851,-2.47409 2.343262,-4.71374 3.320162,-7.15696 1.59511,-3.98935 1.88169,-8.38839 1.66657,-12.67942 -0.21511,-4.29103 -0.91078,-8.54478 -1.20454,-12.83115 -0.13118,-1.91406 -0.18066,-3.85256 0.18479,-5.73598 0.36545,-1.88343 1.17577,-3.72459 2.55771,-5.05541 1.27406,-1.22693 2.96492,-1.95531 4.69643,-2.31651 1.73151,-0.3612 3.51533,-0.37747 5.28367,-0.33762 1.76833,0.0399 3.54067,0.13425 5.30351,-0.0106 1.76284,-0.14488 3.53347,-0.54055 5.06911,-1.41828 1.45996,-0.83447 2.65433,-2.0745 3.64374,-3.43424 0.9894,-1.35974 1.78909,-2.84573 2.60891,-4.31396 0.81983,-1.46823 1.66834,-2.93151 2.74157,-4.22611 1.07324,-1.2946 2.38923,-2.42304 3.94266,-3.06698"
         style="fill:#402c07;fill-opacity:1;stroke:none" />
    </clipPath>
    <inkscape:path-effect
       is_visible="true"
       id="path-effect4669-1"
       effect="spiro" />
    <inkscape:path-effect
       is_visible="true"
       id="path-effect4669-4-3"
       effect="spiro" />
    <inkscape:path-effect
       effect="spiro"
       id="path-effect14300-7"
       is_visible="true" />
    <clipPath
       clipPathUnits="userSpaceOnUse"
       id="clipPath14489-3">
      <path
         style="fill:url(#linearGradient14493);fill-opacity:1;stroke:none"
         d="m 516.00562,331.8756 c 0.90859,1.59687 -1.57016,3.38773 -2.81579,4.73826 -2.74207,2.97299 -6.45099,4.90178 -9.89648,7.01985 -5.91373,3.63539 -12.61918,5.90302 -18.41964,9.71654 -3.88318,2.553 -7.32809,5.72221 -10.86016,8.74238 -3.0221,2.58411 -5.48201,5.87643 -8.83247,8.01771 -3.3519,2.1422 -7.0437,4.15414 -10.99061,4.6502 -4.78298,0.60114 -9.87221,-0.25577 -14.29898,-2.16416 -3.0947,-1.33413 -6.16113,-3.38144 -7.96301,-6.22931 -1.81288,-2.86525 -2.06093,-6.5375 -2.23266,-9.92375 -0.30734,-6.06031 1.36252,-12.0605 2.17848,-18.07349 0.67882,-5.00236 1.85312,-9.94325 2.26013,-14.97502 0.73946,-9.14185 -0.7797,-18.40771 0.3199,-27.51327 0.35468,-2.93704 -0.181,-6.65876 2.01238,-8.64398 2.0384,-1.84494 5.43058,-1.1212 8.17929,-1.06253 3.34492,0.0714 6.63224,0.95108 9.88917,1.71656 2.05612,0.48325 3.99816,1.41138 6.0722,1.81081 3.44031,0.66255 6.96573,1.06623 10.46739,0.95192 3.78516,-0.12356 7.43659,-1.79636 11.22363,-1.76474 1.55185,0.013 3.12359,0.28186 4.58649,0.79985 1.48266,0.52499 2.98786,1.20618 4.12281,2.29512 0.86547,0.83038 1.42933,1.95676 1.87872,3.06879 0.67163,1.66196 0.8942,3.4778 1.16703,5.24945 0.24238,1.57389 -0.1531,3.27141 0.41433,4.75933 1.83023,4.79924 5.57666,8.72712 9.22489,12.34277 1.74278,1.93455 4.03041,3.53404 6.16708,4.82839 2.26886,1.37444 4.3675,2.44991 5.46279,4.81597 0.65901,1.48517 -0.54371,3.76097 0.68307,4.82635 z"
         id="path14491-6"
         inkscape:connector-curvature="0"
         sodipodi:nodetypes="aaaaaaaaaaaaaaaaaaaaaaaacscaa"
         inkscape:original-d="m 516.00562,331.8756 c 0.90859,1.59687 -1.57016,3.38773 -2.81579,4.73826 -2.74207,2.97299 -6.45099,4.90178 -9.89648,7.01985 -5.91373,3.63539 -12.61918,5.90302 -18.41964,9.71654 -3.88318,2.553 -7.32809,5.72221 -10.86016,8.74238 -3.0221,2.58411 -5.48201,5.87643 -8.83247,8.01771 -3.3519,2.1422 -7.0437,4.15414 -10.99061,4.6502 -4.78298,0.60114 -9.87221,-0.25577 -14.29898,-2.16416 -3.0947,-1.33413 -6.16113,-3.38144 -7.96301,-6.22931 -1.81288,-2.86525 -2.06093,-6.5375 -2.23266,-9.92375 -0.30734,-6.06031 1.36252,-12.0605 2.17848,-18.07349 0.67882,-5.00236 1.85312,-9.94325 2.26013,-14.97502 0.73946,-9.14185 -0.7797,-18.40771 0.3199,-27.51327 0.35468,-2.93704 -0.181,-6.65876 2.01238,-8.64398 2.0384,-1.84494 5.43058,-1.1212 8.17929,-1.06253 3.34492,0.0714 6.63224,0.95108 9.88917,1.71656 2.05612,0.48325 3.99816,1.41138 6.0722,1.81081 3.44031,0.66255 6.96573,1.06623 10.46739,0.95192 3.78516,-0.12356 7.43659,-1.79636 11.22363,-1.76474 1.55185,0.013 3.12359,0.28186 4.58649,0.79985 1.48266,0.52499 2.98786,1.20618 4.12281,2.29512 0.86547,0.83038 1.42933,1.95676 1.87872,3.06879 0.67163,1.66196 0.8942,3.4778 1.16703,5.24945 0.24238,1.57389 -0.1531,3.27141 0.41433,4.75933 1.83023,4.79924 5.57666,8.72712 9.22489,12.34277 1.74278,1.93455 4.03041,3.53404 6.16708,4.82839 2.26886,1.37444 4.3675,2.44991 5.46279,4.81597 0.65901,1.48517 -0.54371,3.76097 0.68307,4.82635 z" />
    </clipPath>
    <inkscape:path-effect
       is_visible="true"
       id="path-effect29707-7-6"
       effect="spiro" />
    <inkscape:path-effect
       effect="spiro"
       id="path-effect14972-2-2"
       is_visible="true" />
    <inkscape:path-effect
       effect="spiro"
       id="path-effect15017-9"
       is_visible="true" />
    <clipPath
       clipPathUnits="userSpaceOnUse"
       id="clipPath15031-3">
      <path
         style="fill:none;stroke:#729fcf;stroke-width:0.125;stroke-linecap:butt;stroke-linejoin:miter;stroke-miterlimit:4;stroke-opacity:1;stroke-dasharray:none"
         d="m 248.06066,184.61218 c 0,0 -5.10626,6.34527 -7.89695,10.24696 -2.7907,3.9017 -5.73652,6.64881 -8.58729,10.75139 -2.85076,4.10259 -7.36482,9.43164 -9.44912,13.93045 -2.08429,4.49881 -2.32047,9.0356 -4.26498,13.84932 -1.94451,4.81371 -3.70129,10.64183 -5.97071,15.33612 -2.26943,4.69429 -5.37093,9.68473 -6.93891,13.53553 -1.56799,3.8508 -3.81119,5.72384 -4.10782,10.22071 -0.29663,4.49686 -0.57747,8.31749 3.77151,16.77227 4.34898,8.45478 17.23626,22.00721 24.24176,27.92472 7.00549,5.9175 9.39133,7.22492 14.60245,8.52595 5.21112,1.30104 13.85627,2.9981 16.72874,-1.2702 2.87246,-4.26829 2.27191,-5.96483 -0.74863,-10.66616 -3.02055,-4.70132 -4.82469,-5.30209 -9.79642,-9.57343 -4.97172,-4.27133 -18.63696,-14.87266 -22.68212,-19.23996 -4.04516,-4.36729 -7.10731,-3.41164 -5.53019,-6.28412 1.57712,-2.87249 -2.20738,-4.00856 -2.65783,-7.69253 -0.76361,-6.24511 0.9436,-18.71046 1.45958,-22.13343 0.51598,-3.42296 1.22371,-2.92446 3.51815,-8.03965 2.29444,-5.11519 4.12424,-8.62435 7.04933,-13.46723 2.92509,-4.84289 8.62493,-10.12787 11.15147,-15.27803 2.52654,-5.15017 3.50393,-10.72068 4.36185,-15.31831 0.85792,-4.59763 1.74613,-12.13037 1.74613,-12.13037 z"
         id="path15033-2"
         inkscape:connector-curvature="0"
         inkscape:original-d="m 248.06066,184.61218 c 0,0 -5.10626,6.34527 -7.89695,10.24696 -2.7907,3.9017 -5.73652,6.64881 -8.58729,10.75139 -2.85076,4.10259 -7.36482,9.43164 -9.44912,13.93045 -2.08429,4.49881 -2.32047,9.0356 -4.26498,13.84932 -1.94451,4.81371 -3.70129,10.64183 -5.97071,15.33612 -2.26943,4.69429 -5.37093,9.68473 -6.93891,13.53553 -1.56799,3.8508 -3.81119,5.72384 -4.10782,10.22071 -0.29663,4.49686 -0.57747,8.31749 3.77151,16.77227 4.34898,8.45478 17.23626,22.00721 24.24176,27.92472 7.00549,5.9175 9.39133,7.22492 14.60245,8.52595 5.21112,1.30104 13.85627,2.9981 16.72874,-1.2702 2.87246,-4.26829 2.27191,-5.96483 -0.74863,-10.66616 -3.02055,-4.70132 -4.82469,-5.30209 -9.79642,-9.57343 -4.97172,-4.27133 -18.63696,-14.87266 -22.68212,-19.23996 -4.04516,-4.36729 -7.10731,-3.41164 -5.53019,-6.28412 1.57712,-2.87249 -2.20738,-4.00856 -2.65783,-7.69253 -0.76361,-6.24511 0.9436,-18.71046 1.45958,-22.13343 0.51598,-3.42296 1.22371,-2.92446 3.51815,-8.03965 2.29444,-5.11519 4.12424,-8.62435 7.04933,-13.46723 2.92509,-4.84289 8.62493,-10.12787 11.15147,-15.27803 2.52654,-5.15017 3.50393,-10.72068 4.36185,-15.31831 0.85792,-4.59763 1.74613,-12.13037 1.74613,-12.13037 z"
         sodipodi:nodetypes="czzzzzzzzzzzzzzzszzzzzc" />
    </clipPath>
    <inkscape:path-effect
       is_visible="true"
       id="path-effect29716-6-1"
       effect="spiro" />
    <clipPath
       clipPathUnits="userSpaceOnUse"
       id="clipPath14822-9">
      <path
         sodipodi:nodetypes="aaaasssaccaa"
         inkscape:connector-curvature="0"
         d="m 386.1875,285.32775 c -0.40516,-1.10369 -1.11845,-2.08156 -1.9907,-2.86987 -0.87226,-0.78832 -1.90049,-1.39229 -2.98278,-1.85155 -2.16459,-0.91852 -4.52053,-1.26149 -6.83152,-1.69556 -2.17919,-0.40931 -4.34179,-0.90631 -6.52782,-1.27734 -2.27136,-0.38551 -4.6179,-0.63213 -6.8653,-0.1253 -1.96583,0.44333 -3.7845,1.45879 -5.27172,2.81864 -1.48723,1.35984 -2.64911,3.0564 -3.48499,4.89007 -1.47218,3.22952 -1.93451,6.86503 -1.65394,10.40316 0.20882,2.63325 0.87532,5.34594 2.60877,7.33912 1.40065,1.61052 3.38733,2.61526 5.43398,3.22092 3.52502,1.04316 7.36663,0.98822 10.86038,-0.1553 5.76689,-1.93113 10.87568,-5.77387 14.33034,-10.77903 1.13861,-1.64963 2.11217,-3.44809 2.5532,-5.4034 0.33597,-1.48955 0.34831,-3.08112 -0.1779,-4.51456"
         id="path14824-1"
         inkscape:original-d="m 386.1875,285.32775 c -2.36571,-3.81321 -7.59294,-4.9003 -11.805,-6.41698 -2.08672,-0.75138 -4.32322,-1.04333 -6.52782,-1.27734 -2.27612,-0.2416 -4.71593,-0.91505 -6.8653,-0.1253 -3.64566,1.33955 -7.24986,3.80684 -8.75671,7.70871 -1.13743,2.94527 -1.80122,7.05909 -1.65394,10.40316 0.13075,2.96891 0.9633,5.07273 2.60877,7.33912 1.08803,1.49859 3.40096,2.67896 5.43398,3.22092 3.49923,0.93284 7.37483,0.82779 10.86038,-0.1553 5.98587,-2.2615 11.09272,-5.76885 14.33034,-10.77903 1.07459,-1.67639 2.15539,-3.45031 2.5532,-5.4034 0.30053,-1.4755 0.61519,-3.23621 -0.1779,-4.51456 z"
         style="fill:none;stroke:#ce5c00;stroke-width:1px;stroke-linecap:butt;stroke-linejoin:miter;stroke-opacity:1" />
    </clipPath>
    <clipPath
       clipPathUnits="userSpaceOnUse"
       id="clipPath14822-2-4">
      <path
         sodipodi:nodetypes="aaaasssaccaa"
         inkscape:connector-curvature="0"
         d="m 386.1875,285.32775 c -0.40516,-1.10369 -1.11845,-2.08156 -1.9907,-2.86987 -0.87226,-0.78832 -1.90049,-1.39229 -2.98278,-1.85155 -2.16459,-0.91852 -4.52053,-1.26149 -6.83152,-1.69556 -2.17919,-0.40931 -4.34179,-0.90631 -6.52782,-1.27734 -2.27136,-0.38551 -4.6179,-0.63213 -6.8653,-0.1253 -1.96583,0.44333 -3.7845,1.45879 -5.27172,2.81864 -1.48723,1.35984 -2.64911,3.0564 -3.48499,4.89007 -1.47218,3.22952 -1.93451,6.86503 -1.65394,10.40316 0.20882,2.63325 0.87532,5.34594 2.60877,7.33912 1.40065,1.61052 3.38733,2.61526 5.43398,3.22092 3.52502,1.04316 7.36663,0.98822 10.86038,-0.1553 5.76689,-1.93113 10.87568,-5.77387 14.33034,-10.77903 1.13861,-1.64963 2.11217,-3.44809 2.5532,-5.4034 0.33597,-1.48955 0.34831,-3.08112 -0.1779,-4.51456"
         id="path14824-6-5"
         inkscape:original-d="m 386.1875,285.32775 c -2.36571,-3.81321 -7.59294,-4.9003 -11.805,-6.41698 -2.08672,-0.75138 -4.32322,-1.04333 -6.52782,-1.27734 -2.27612,-0.2416 -4.71593,-0.91505 -6.8653,-0.1253 -3.64566,1.33955 -7.24986,3.80684 -8.75671,7.70871 -1.13743,2.94527 -1.80122,7.05909 -1.65394,10.40316 0.13075,2.96891 0.9633,5.07273 2.60877,7.33912 1.08803,1.49859 3.40096,2.67896 5.43398,3.22092 3.49923,0.93284 7.37483,0.82779 10.86038,-0.1553 5.98587,-2.2615 11.09272,-5.76885 14.33034,-10.77903 1.07459,-1.67639 2.15539,-3.45031 2.5532,-5.4034 0.30053,-1.4755 0.61519,-3.23621 -0.1779,-4.51456 z"
         style="fill:none;stroke:#ce5c00;stroke-width:1px;stroke-linecap:butt;stroke-linejoin:miter;stroke-opacity:1" />
    </clipPath>
    <linearGradient
       id="linearGradient14518-6">
      <stop
         id="stop14540-0"
         offset="0"
         style="stop-color:#110800;stop-opacity:1;" />
      <stop
         style="stop-color:#a65a00;stop-opacity:0.80000001;"
         offset="0.59066743"
         id="stop14542-5" />
      <stop
         style="stop-color:#ff921e;stop-opacity:0;"
         offset="1"
         id="stop14522-4" />
    </linearGradient>
    <inkscape:path-effect
       is_visible="true"
       id="path-effect29716-0-0"
       effect="spiro" />
    <linearGradient
       id="linearGradient14518-2-2">
      <stop
         id="stop14540-5-0"
         offset="0"
         style="stop-color:#110800;stop-opacity:1;" />
      <stop
         style="stop-color:#a65a00;stop-opacity:0.80000001;"
         offset="0.59066743"
         id="stop14542-2-7" />
      <stop
         style="stop-color:#ff921e;stop-opacity:0;"
         offset="1"
         id="stop14522-2-1" />
    </linearGradient>
    <inkscape:path-effect
       is_visible="true"
       id="path-effect29716-0-8-3"
       effect="spiro" />
    <inkscape:path-effect
       is_visible="true"
       id="path-effect28273-44"
       effect="spiro" />
    <inkscape:path-effect
       is_visible="true"
       id="path-effect28273-54-7"
       effect="spiro" />
    <inkscape:path-effect
       is_visible="true"
       id="path-effect28463-4"
       effect="spiro" />
    <inkscape:path-effect
       is_visible="true"
       id="path-effect29455-3"
       effect="spiro" />
    <inkscape:path-effect
       is_visible="true"
       id="path-effect28881-6"
       effect="spiro" />
    <inkscape:path-effect
       is_visible="true"
       id="path-effect28273-4-2"
       effect="spiro" />
    <linearGradient
       id="linearGradient28799-3">
      <stop
         id="stop28801-6"
         offset="0"
         style="stop-color:#fefefc;stop-opacity:1;" />
      <stop
         style="stop-color:#fefefc;stop-opacity:1"
         offset="0.75733864"
         id="stop28807-7" />
      <stop
         id="stop28803-0"
         offset="1"
         style="stop-color:#d4d4d4;stop-opacity:1" />
    </linearGradient>
    <inkscape:path-effect
       is_visible="true"
       id="path-effect28797-81"
       effect="spiro" />
    <linearGradient
       id="linearGradient28799-5-5">
      <stop
         id="stop28801-1-9"
         offset="0"
         style="stop-color:#fefefc;stop-opacity:1;" />
      <stop
         style="stop-color:#fefefc;stop-opacity:1"
         offset="0.75733864"
         id="stop28807-2-6" />
      <stop
         id="stop28803-6-3"
         offset="1"
         style="stop-color:#d4d4d4;stop-opacity:1" />
    </linearGradient>
    <inkscape:path-effect
       is_visible="true"
       id="path-effect28797-8-1"
       effect="spiro" />
    <inkscape:path-effect
       is_visible="true"
       id="path-effect29721-2"
       effect="spiro" />
    <inkscape:path-effect
       is_visible="true"
       id="path-effect28714-5"
       effect="spiro" />
    <inkscape:path-effect
       is_visible="true"
       id="path-effect29678-4-6"
       effect="spiro" />
    <inkscape:path-effect
       is_visible="true"
       id="path-effect29678-1"
       effect="spiro" />
    <inkscape:path-effect
       is_visible="true"
       id="path-effect29672-0"
       effect="spiro" />
  </defs>
  <sodipodi:namedview
     pagecolor="#ffffff"
     bordercolor="#666666"
     borderopacity="1"
     objecttolerance="10"
     gridtolerance="10"
     guidetolerance="10"
     inkscape:pageopacity="0"
     inkscape:pageshadow="2"
     inkscape:window-width="1366"
     inkscape:window-height="718"
     id="namedview4"
     showgrid="false"
     inkscape:zoom="0.46093749"
     inkscape:cx="191.2856"
     inkscape:cy="122.67604"
     inkscape:window-x="0"
     inkscape:window-y="25"
     inkscape:window-maximized="1"
     inkscape:current-layer="svg2" />
  <g
     id="g991">
    <path
       id="path27"
       d="M 432.91327,56.473963 C 535.10618,145.04856 538.74005,306.17367 441.03007,416.37276 343.3201,526.57182 181.27964,544.10062 79.08673,455.52602 -23.106186,366.95142 -26.740042,205.8263 70.969924,95.627223 168.6799,-14.571857 330.72036,-32.100626 432.91327,56.473963 Z"
       inkscape:connector-curvature="0"
       style="fill:#3689e6;fill-opacity:1;stroke-width:11.10955811" />
    <path
       id="path51"
       d="M 511.63551,224.90351 C 510.08412,286.21516 486.47428,349.05812 440.66913,400.71798 342.95915,510.91713 180.91869,528.44582 78.725775,439.87128 30.827124,398.35563 4.4968209,340.92283 0.19382696,280.2288 0.79907855,346.58547 27.11741,410.48218 79.078678,455.51906 181.27159,544.09362 343.31975,526.55622 441.02201,416.36577 c 49.70495,-56.05812 73.00503,-125.29096 70.6135,-191.46226 z"
       inkscape:connector-curvature="0"
       style="opacity:1;fill:#000000;fill-opacity:0.49019608;stroke-width:11.10955811" />
    <g
       style="fill:#000000;fill-opacity:0.49019608"
       transform="translate(20,20.000004)"
       id="g176">
      <path
         style="fill:#000000;stroke-width:0.70588231;fill-opacity:0.49019608"
         d="M 339.29415,129.07123 H 225.77391 112.25372 l -3.82859,1.94116 c -2.50718,1.2714 -4.56052,2.99724 -5.95038,5.00187 l -2.12174,3.06062 -0.18482,85.70405 L 100,302.80787 v 36.71002 15.91681 c 0,15.79698 0.0151,15.94228 1.83228,19.2822 2.09541,3.84999 4.91414,6.17869 9.05238,7.47927 2.30895,0.72589 31.28769,0.87981 146.17418,0.77353 l 143.29412,-0.1338 2.88972,-1.54681 c 3.73631,-1.99941 7.07386,-5.83241 8.00866,-9.19861 0.5026,-1.8096 0.7417,-39.32319 0.74453,-116.76145 l 0.004,-114.09648 -1.97152,-3.77484 c -1.43519,-2.74689 -2.90989,-4.35626 -5.41288,-5.90487 l -3.44141,-2.12867 -16.43385,-0.21242 -16.43379,-0.21241 z M 128.9412,158.0124 h 127.05883 127.05883 v 98.11763 98.11767 H 256.00003 128.9412 v -98.11767 z"
         id="path172"
         inkscape:connector-curvature="0"
         sodipodi:nodetypes="cccccccccsccccccscccccccccccccccc" />
      <path
         sodipodi:nodetypes="csscccccscccccscccccccssccccsscccscsscsccscscccccccccccscccccccccccccsccccsccccccscsccsscscssccssccs"
         inkscape:connector-curvature="0"
         id="path174"
         d="m 280.50273,342.12169 c -4.991,-4.50912 -5.53492,-4.68103 -16.88492,-5.33706 -14.53405,-0.84007 -25.17441,1.01399 -30.22927,5.26739 -4.75372,4.00004 -8.35701,3.99071 -20.08409,-0.052 -5.15392,-1.77669 -14.41731,-4.32705 -20.5855,-5.66744 -13.79994,-2.99889 -15.22285,-4.01723 -13.93701,-9.9738 0.53144,-2.46157 1.0129,-8.45089 1.06994,-13.30963 l 0.10348,-8.83406 7.52398,-2.5429 c 6.01208,-2.03194 8.21037,-3.55345 10.9401,-7.57206 1.87887,-2.76604 3.66815,-7.30075 3.97607,-10.07718 1.05379,-9.49984 11.9044,-34.632 19.05684,-44.13948 10.0269,-13.32822 9.66686,-11.92615 9.3068,-36.24529 -0.30881,-20.85011 -0.19283,-22.04791 2.56365,-26.48088 1.69045,-2.71856 5.11568,-5.7218 8.26376,-7.24577 18.11991,-8.7717 35.63381,-1.08364 40.34527,17.71032 1.11132,4.43328 2.32714,12.93317 2.70183,18.88861 0.8781,13.95928 2.10743,17.30625 10.9517,29.82005 17.6401,24.95865 22.55171,37.05059 20.22066,49.7813 -0.98172,5.36163 -0.86839,7.15388 0.55213,8.73759 0.98298,1.09581 1.81274,3.36742 1.84405,5.04804 0.0934,5.03082 2.83194,9.70531 7.51513,12.82959 3.38331,2.25704 4.41703,3.81764 4.41703,6.66816 0,3.3484 -1.07535,4.3354 -10.72707,9.84579 -5.8999,3.36838 -13.76599,8.40569 -17.48021,11.19406 -4.06543,3.05207 -8.64627,5.32366 -11.51027,5.70779 -4.15175,0.55686 -5.41338,0.0452 -9.91433,-4.02114 z m 20.64317,-7.04287 c 2.10289,-2.02768 8.31046,-6.11014 13.79463,-9.07215 5.48419,-2.962 10.18972,-6.06478 10.45663,-6.89505 0.26703,-0.83027 -1.79559,-2.94955 -4.58361,-4.70954 -4.02783,-2.54268 -5.23141,-4.17674 -5.85989,-7.95547 -1.35805,-8.16676 -1.61941,-8.3855 -5.09056,-4.26029 -3.70388,4.4018 -10.71685,6.83687 -14.99998,5.2084 -3.022,-1.14895 -4.48177,-3.65692 -4.48177,-7.69987 0,-1.33143 -0.77891,-2.4208 -1.73085,-2.4208 -1.30958,0 -1.92594,3.30287 -2.53209,13.56659 -0.44068,7.46163 -1.1382,15.94929 -1.55012,18.86149 -0.64275,4.54405 -0.29279,5.75103 2.46785,8.51171 2.79636,2.79637 3.67888,3.04267 6.75149,1.88425 1.94413,-0.73291 5.25539,-2.99158 7.35827,-5.01927 z m -71.43256,1.7783 c 1.43854,-1.82886 2.61563,-4.24674 2.61563,-5.37308 0,-3.39064 -22.37591,-36.45593 -25.2981,-37.38338 -3.06781,-0.97369 -2.66675,-1.26596 -6.08527,4.4354 -2.08837,3.48312 -4.0537,4.82962 -9.2952,6.36843 l -6.64674,1.9514 -0.25417,7.51367 c -0.1397,4.1325 -0.42366,9.21513 -0.63101,11.2947 -0.34705,3.48227 0.0214,3.86855 4.6712,4.88822 10.64138,2.3339 17.91661,4.37695 24.60916,6.91085 9.47024,3.58552 13.12414,3.44975 16.3145,-0.60621 z m 36.8789,-13.12456 c 3.01948,-1.51138 7.61962,-4.79068 10.22253,-7.28731 4.61756,-4.42901 4.73251,-4.76208 4.73251,-13.70387 0,-7.65797 0.38771,-9.372 2.35808,-10.42655 1.29696,-0.69411 2.74764,-0.87252 3.22367,-0.39645 1.90576,1.9058 3.21345,-3.36982 3.20815,-12.94345 0,-7.88677 -0.79267,-12.30536 -3.60228,-20.19213 -5.46019,-15.32708 -15.45001,-37.37231 -17.24799,-38.06225 -0.87861,-0.33713 -6.17476,1.7757 -11.76924,4.69519 -9.30693,4.85681 -10.48918,5.17676 -13.90303,3.76271 -2.05216,-0.85002 -4.71209,-2.6294 -5.91101,-3.9542 -3.00041,-3.31541 -3.72759,-3.04058 -4.07666,1.5407 -0.16558,2.17216 -2.55771,8.27712 -5.31596,13.56658 -4.45564,8.54457 -7.40079,15.29273 -13.28541,30.44035 -2.26795,5.83787 -2.27377,15.66708 -0.0126,20.04106 0.99812,1.93029 5.00689,5.97218 8.90814,8.98201 7.0564,5.44395 11.99312,10.71013 11.99312,12.7934 0,0.6005 -1.19235,2.2842 -2.64972,3.74155 l -2.64971,2.64973 4.22722,4.42618 4.22722,4.42616 10.91612,-0.67572 c 7.62696,-0.47212 12.57049,-1.50376 16.40611,-3.42369 z m -9.55492,-101.65034 c 4.4448,-2.48566 8.35702,-4.96531 8.69385,-5.51037 1.90159,-3.07685 -14.31105,-9.95391 -18.72505,-7.94277 -5.1288,2.33687 -10.7951,7.92018 -10.03864,9.89162 0.75418,1.96534 9.00998,8.08089 10.90905,8.08089 0.59366,0 4.71612,-2.03372 9.16079,-4.51937 z m -18.3983,-12.56215 c 0,-0.37147 -0.89225,-2.03709 -1.98275,-3.7014 -1.53915,-2.34911 -1.67039,-3.6095 -0.58659,-5.63463 0.76794,-1.43475 1.83042,-2.60864 2.36135,-2.60864 1.95119,0 3.994,3.1127 3.994,6.08595 0,2.57439 0.29898,2.80907 1.89302,1.4861 4.36452,-3.62226 0.63365,-13.88209 -5.04803,-13.88209 -5.78985,0 -8.75721,8.51523 -5.47649,15.71572 1.24382,2.72984 4.84549,4.61707 4.84549,2.53899 z m 31.55019,-9.42066 c 0,-8.60179 -7.10018,-13.44682 -12.9559,-8.84078 -3.82489,3.0087 -5.45655,8.87778 -3.48983,12.5528 1.74851,3.26716 3.82565,3.36338 3.82565,0.17723 0,-4.10222 1.4228,-6.41326 3.94806,-6.41326 3.27403,0 5.58327,5.17309 3.79828,8.50848 -1.94614,3.63634 0.0214,4.77677 2.64668,1.53432 1.2499,-1.54359 2.22706,-4.84261 2.22706,-7.51879 z"
         style="fill:#000000;stroke-width:1.26200819;fill-opacity:0.49019608" />
    </g>
    <g
       id="g170">
      <path
         sodipodi:nodetypes="cccccccccsccccccscccccccccccccccc"
         inkscape:connector-curvature="0"
         id="path838-3"
         d="M 339.29415,129.07123 H 225.77391 112.25372 l -3.82859,1.94116 c -2.50718,1.2714 -4.56052,2.99724 -5.95038,5.00187 l -2.12174,3.06062 -0.18482,85.70405 L 100,302.80787 v 36.71002 15.91681 c 0,15.79698 0.0151,15.94228 1.83228,19.2822 2.09541,3.84999 4.91414,6.17869 9.05238,7.47927 2.30895,0.72589 31.28769,0.87981 146.17418,0.77353 l 143.29412,-0.1338 2.88972,-1.54681 c 3.73631,-1.99941 7.07386,-5.83241 8.00866,-9.19861 0.5026,-1.8096 0.7417,-39.32319 0.74453,-116.76145 l 0.004,-114.09648 -1.97152,-3.77484 c -1.43519,-2.74689 -2.90989,-4.35626 -5.41288,-5.90487 l -3.44141,-2.12867 -16.43385,-0.21242 -16.43379,-0.21241 z M 128.9412,158.0124 h 127.05883 127.05883 v 98.11763 98.11767 H 256.00003 128.9412 v -98.11767 z"
         style="fill:#ffffff;stroke-width:0.70588231" />
      <path
         style="fill:#ffffff;stroke-width:1.26200819"
         d="m 280.50273,342.12169 c -4.991,-4.50912 -5.53492,-4.68103 -16.88492,-5.33706 -14.53405,-0.84007 -25.17441,1.01399 -30.22927,5.26739 -4.75372,4.00004 -8.35701,3.99071 -20.08409,-0.052 -5.15392,-1.77669 -14.41731,-4.32705 -20.5855,-5.66744 -13.79994,-2.99889 -15.22285,-4.01723 -13.93701,-9.9738 0.53144,-2.46157 1.0129,-8.45089 1.06994,-13.30963 l 0.10348,-8.83406 7.52398,-2.5429 c 6.01208,-2.03194 8.21037,-3.55345 10.9401,-7.57206 1.87887,-2.76604 3.66815,-7.30075 3.97607,-10.07718 1.05379,-9.49984 11.9044,-34.632 19.05684,-44.13948 10.0269,-13.32822 9.66686,-11.92615 9.3068,-36.24529 -0.30881,-20.85011 -0.19283,-22.04791 2.56365,-26.48088 1.69045,-2.71856 5.11568,-5.7218 8.26376,-7.24577 18.11991,-8.7717 35.63381,-1.08364 40.34527,17.71032 1.11132,4.43328 2.32714,12.93317 2.70183,18.88861 0.8781,13.95928 2.10743,17.30625 10.9517,29.82005 17.6401,24.95865 22.55171,37.05059 20.22066,49.7813 -0.98172,5.36163 -0.86839,7.15388 0.55213,8.73759 0.98298,1.09581 1.81274,3.36742 1.84405,5.04804 0.0934,5.03082 2.83194,9.70531 7.51513,12.82959 3.38331,2.25704 4.41703,3.81764 4.41703,6.66816 0,3.3484 -1.07535,4.3354 -10.72707,9.84579 -5.8999,3.36838 -13.76599,8.40569 -17.48021,11.19406 -4.06543,3.05207 -8.64627,5.32366 -11.51027,5.70779 -4.15175,0.55686 -5.41338,0.0452 -9.91433,-4.02114 z m 20.64317,-7.04287 c 2.10289,-2.02768 8.31046,-6.11014 13.79463,-9.07215 5.48419,-2.962 10.18972,-6.06478 10.45663,-6.89505 0.26703,-0.83027 -1.79559,-2.94955 -4.58361,-4.70954 -4.02783,-2.54268 -5.23141,-4.17674 -5.85989,-7.95547 -1.35805,-8.16676 -1.61941,-8.3855 -5.09056,-4.26029 -3.70388,4.4018 -10.71685,6.83687 -14.99998,5.2084 -3.022,-1.14895 -4.48177,-3.65692 -4.48177,-7.69987 0,-1.33143 -0.77891,-2.4208 -1.73085,-2.4208 -1.30958,0 -1.92594,3.30287 -2.53209,13.56659 -0.44068,7.46163 -1.1382,15.94929 -1.55012,18.86149 -0.64275,4.54405 -0.29279,5.75103 2.46785,8.51171 2.79636,2.79637 3.67888,3.04267 6.75149,1.88425 1.94413,-0.73291 5.25539,-2.99158 7.35827,-5.01927 z m -71.43256,1.7783 c 1.43854,-1.82886 2.61563,-4.24674 2.61563,-5.37308 0,-3.39064 -22.37591,-36.45593 -25.2981,-37.38338 -3.06781,-0.97369 -2.66675,-1.26596 -6.08527,4.4354 -2.08837,3.48312 -4.0537,4.82962 -9.2952,6.36843 l -6.64674,1.9514 -0.25417,7.51367 c -0.1397,4.1325 -0.42366,9.21513 -0.63101,11.2947 -0.34705,3.48227 0.0214,3.86855 4.6712,4.88822 10.64138,2.3339 17.91661,4.37695 24.60916,6.91085 9.47024,3.58552 13.12414,3.44975 16.3145,-0.60621 z m 36.8789,-13.12456 c 3.01948,-1.51138 7.61962,-4.79068 10.22253,-7.28731 4.61756,-4.42901 4.73251,-4.76208 4.73251,-13.70387 0,-7.65797 0.38771,-9.372 2.35808,-10.42655 1.29696,-0.69411 2.74764,-0.87252 3.22367,-0.39645 1.90576,1.9058 3.21345,-3.36982 3.20815,-12.94345 0,-7.88677 -0.79267,-12.30536 -3.60228,-20.19213 -5.46019,-15.32708 -15.45001,-37.37231 -17.24799,-38.06225 -0.87861,-0.33713 -6.17476,1.7757 -11.76924,4.69519 -9.30693,4.85681 -10.48918,5.17676 -13.90303,3.76271 -2.05216,-0.85002 -4.71209,-2.6294 -5.91101,-3.9542 -3.00041,-3.31541 -3.72759,-3.04058 -4.07666,1.5407 -0.16558,2.17216 -2.55771,8.27712 -5.31596,13.56658 -4.45564,8.54457 -7.40079,15.29273 -13.28541,30.44035 -2.26795,5.83787 -2.27377,15.66708 -0.0126,20.04106 0.99812,1.93029 5.00689,5.97218 8.90814,8.98201 7.0564,5.44395 11.99312,10.71013 11.99312,12.7934 0,0.6005 -1.19235,2.2842 -2.64972,3.74155 l -2.64971,2.64973 4.22722,4.42618 4.22722,4.42616 10.91612,-0.67572 c 7.62696,-0.47212 12.57049,-1.50376 16.40611,-3.42369 z m -9.55492,-101.65034 c 4.4448,-2.48566 8.35702,-4.96531 8.69385,-5.51037 1.90159,-3.07685 -14.31105,-9.95391 -18.72505,-7.94277 -5.1288,2.33687 -10.7951,7.92018 -10.03864,9.89162 0.75418,1.96534 9.00998,8.08089 10.90905,8.08089 0.59366,0 4.71612,-2.03372 9.16079,-4.51937 z m -18.3983,-12.56215 c 0,-0.37147 -0.89225,-2.03709 -1.98275,-3.7014 -1.53915,-2.34911 -1.67039,-3.6095 -0.58659,-5.63463 0.76794,-1.43475 1.83042,-2.60864 2.36135,-2.60864 1.95119,0 3.994,3.1127 3.994,6.08595 0,2.57439 0.29898,2.80907 1.89302,1.4861 4.36452,-3.62226 0.63365,-13.88209 -5.04803,-13.88209 -5.78985,0 -8.75721,8.51523 -5.47649,15.71572 1.24382,2.72984 4.84549,4.61707 4.84549,2.53899 z m 31.55019,-9.42066 c 0,-8.60179 -7.10018,-13.44682 -12.9559,-8.84078 -3.82489,3.0087 -5.45655,8.87778 -3.48983,12.5528 1.74851,3.26716 3.82565,3.36338 3.82565,0.17723 0,-4.10222 1.4228,-6.41326 3.94806,-6.41326 3.27403,0 5.58327,5.17309 3.79828,8.50848 -1.94614,3.63634 0.0214,4.77677 2.64668,1.53432 1.2499,-1.54359 2.22706,-4.84261 2.22706,-7.51879 z"
         id="path1149"
         inkscape:connector-curvature="0"
         sodipodi:nodetypes="csscccccscccccscccccccssccccsscccscsscsccscscccccccccccscccccccccccccsccccsccccccscsccsscscssccssccs" />
    </g>
  </g>
</svg>
