<?xml version="1.0" encoding="UTF-8" standalone="no"?>
<!-- Created with Inkscape (http://www.inkscape.org/) -->

<svg
   xmlns:dc="http://purl.org/dc/elements/1.1/"
   xmlns:cc="http://creativecommons.org/ns#"
   xmlns:rdf="http://www.w3.org/1999/02/22-rdf-syntax-ns#"
   xmlns:svg="http://www.w3.org/2000/svg"
   xmlns="http://www.w3.org/2000/svg"
   xmlns:xlink="http://www.w3.org/1999/xlink"
   xmlns:sodipodi="http://sodipodi.sourceforge.net/DTD/sodipodi-0.dtd"
   xmlns:inkscape="http://www.inkscape.org/namespaces/inkscape"
   id="svg2"
   version="1.1"
   inkscape:version="0.92.3 (2405546, 2018-03-11)"
   width="512"
   height="512"
   sodipodi:docname="kipi-expoblending.svg">
  <metadata
     id="metadata8">
    <rdf:RDF>
      <cc:Work
         rdf:about="">
        <dc:format>image/svg+xml</dc:format>
        <dc:type
           rdf:resource="http://purl.org/dc/dcmitype/StillImage" />
        <dc:title />
      </cc:Work>
    </rdf:RDF>
  </metadata>
  <defs
     id="defs6">
    <linearGradient
       id="linearGradient4460-6">
      <stop
         offset="0"
         style="stop-color:#350b0b;stop-opacity:1;"
         id="stop3807" />
      <stop
         offset="1"
         style="stop-color:#7a4242;stop-opacity:1;"
         id="stop3809" />
    </linearGradient>
    <linearGradient
       gradientTransform="matrix(1.10525,0,0,1.10525,-134.22538,-295.81512)"
       xlink:href="#linearGradient4460-6"
       id="linearGradient3004"
       y1="279.09601"
       y2="268.32999"
       gradientUnits="userSpaceOnUse"
       x2="0" />
    <linearGradient
       id="linearGradient3895-9-0-3-2-4-0">
      <stop
         offset="0"
         style="stop-color:#dda3a8"
         id="stop2999" />
      <stop
         offset="1"
         style="stop-color:#933039"
         id="stop3001" />
    </linearGradient>
    <radialGradient
       cx="148.004"
       cy="160"
       gradientTransform="matrix(0.97656,0,0,0.97656,-16.5349,-236.25)"
       r="128"
       id="radialGradient4432"
       xlink:href="#linearGradient3895-9-0-3-2-4-0"
       gradientUnits="userSpaceOnUse" />
    <linearGradient
       x2="0"
       gradientUnits="userSpaceOnUse"
       y2="268.32999"
       y1="279.09601"
       id="linearGradient3014"
       xlink:href="#linearGradient4460"
       gradientTransform="matrix(1.10525,0,0,1.10525,-134.27874,-295.76183)" />
    <linearGradient
       id="linearGradient4460">
      <stop
         id="stop7"
         style="stop-color:#71345c;stop-opacity:1;"
         offset="0" />
      <stop
         id="stop9"
         style="stop-color:#a55689;stop-opacity:1;"
         offset="1" />
    </linearGradient>
    <linearGradient
       id="linearGradient4460-6-5">
      <stop
         offset="0"
         style="stop-color:#350b0b;stop-opacity:1;"
         id="stop3807-9" />
      <stop
         offset="1"
         style="stop-color:#7a4242;stop-opacity:1;"
         id="stop3809-2" />
    </linearGradient>
    <linearGradient
       gradientTransform="matrix(1.10525,0,0,1.10525,-134.22538,-295.81512)"
       xlink:href="#linearGradient4460-6-5"
       id="linearGradient3004-0"
       y1="279.09601"
       y2="268.32999"
       gradientUnits="userSpaceOnUse"
       x2="0" />
    <linearGradient
       id="linearGradient3895-9-0-3-2-4-0-0">
      <stop
         offset="0"
         style="stop-color:#dda3a8"
         id="stop2999-1" />
      <stop
         offset="1"
         style="stop-color:#933039"
         id="stop3001-5" />
    </linearGradient>
    <radialGradient
       cx="148.004"
       cy="160"
       gradientTransform="matrix(0.97656,0,0,0.97656,-16.5349,-236.25)"
       r="128"
       id="radialGradient4432-8"
       xlink:href="#linearGradient3895-9-0-3-2-4-0-0"
       gradientUnits="userSpaceOnUse" />
    <linearGradient
       y2="268.32999"
       x2="0"
       y1="279.09601"
       gradientTransform="matrix(1.10525,0,0,1.10525,-134.27874,-295.76183)"
       gradientUnits="userSpaceOnUse"
       id="linearGradient3804"
       xlink:href="#linearGradient4460-6-5"
       inkscape:collect="always" />
    <linearGradient
       x2="0"
       gradientUnits="userSpaceOnUse"
       y2="268.32999"
       y1="279.09601"
       id="linearGradient3014-1"
       xlink:href="#linearGradient4460-9"
       gradientTransform="matrix(1.10525,0,0,1.10525,-134.27874,-295.76183)" />
    <linearGradient
       id="linearGradient4460-9">
      <stop
         id="stop7-5"
         style="stop-color:#71345c;stop-opacity:1;"
         offset="0" />
      <stop
         id="stop9-3"
         style="stop-color:#a55689;stop-opacity:1;"
         offset="1" />
    </linearGradient>
    <linearGradient
       x1="23.999"
       y1="46"
       x2="23.999"
       gradientUnits="userSpaceOnUse"
       y2="2.0005"
       id="linearGradient2649">
      <stop
         offset="0"
         style="stop-color:#9B9B9B"
         id="stop248" />
      <stop
         offset="1"
         style="stop-color:#ECECEC"
         id="stop250" />
    </linearGradient>
  </defs>
  <sodipodi:namedview
     pagecolor="#ffffff"
     bordercolor="#666666"
     borderopacity="1"
     objecttolerance="10"
     gridtolerance="10"
     guidetolerance="10"
     inkscape:pageopacity="0"
     inkscape:pageshadow="2"
     inkscape:window-width="1366"
     inkscape:window-height="718"
     id="namedview4"
     showgrid="false"
     inkscape:zoom="0.32593203"
     inkscape:cx="403.56153"
     inkscape:cy="273.11437"
     inkscape:window-x="0"
     inkscape:window-y="25"
     inkscape:window-maximized="1"
     inkscape:current-layer="g3772" />
  <g
     id="g3772"
     transform="matrix(1.1182684,0,0,1.1182684,-53.072276,-18.727261)">
    <g
       id="g883">
      <path
         style="fill:#3689e6;fill-opacity:1;stroke-width:9.93460751"
         inkscape:connector-curvature="0"
         d="m 434.58757,67.24792 c 91.38496,79.20692 94.63451,223.29139 7.25836,321.83579 -87.37613,98.54438 -232.27914,114.21933 -323.6641,35.0124 C 26.796867,344.88919 23.547329,200.80471 110.92346,102.26032 198.2996,3.7159276 343.20261,-11.958994 434.58757,67.24792 Z"
         id="path27" />
      <path
         style="opacity:1;fill:#000000;fill-opacity:0.49019608;stroke-width:9.93460751"
         inkscape:connector-curvature="0"
         d="m 504.98412,217.86431 c -1.38731,54.82731 -22.50017,111.02398 -63.46095,157.22028 -87.37615,98.54445 -232.27916,114.2193 -323.66412,35.01243 -42.832876,-37.12494 -66.378478,-88.48363 -70.226386,-142.75864 0.54124,59.33877 24.076137,116.47774 70.541966,156.75151 91.38496,79.20689 236.29486,63.52425 323.6641,-35.01243 44.44814,-50.12939 65.28399,-112.04015 63.14539,-171.21315 z"
         id="path51" />
      <g
         style="fill:#000000;fill-opacity:0.49019608"
         transform="translate(17.88479,17.884797)"
         id="g873">
        <path
           sodipodi:nodetypes="cccccccccsccccccscccccccccccccccc"
           inkscape:connector-curvature="0"
           id="path869"
           d="M 350.86964,132.16728 H 249.35533 147.84107 l -3.42368,1.73586 c -2.24202,1.13694 -4.0782,2.68025 -5.32106,4.47287 l -1.89735,2.73693 -0.16527,76.63996 -0.1504,69.77658 v 32.82756 14.23344 c 0,14.12629 0.0135,14.25622 1.63849,17.24291 1.8738,3.44281 4.39442,5.52523 8.095,6.68826 2.06476,0.64912 27.9787,0.78676 130.71476,0.69172 l 128.13929,-0.11965 2.5841,-1.38322 c 3.34116,-1.78795 6.32573,-5.21557 7.16166,-8.22576 0.44945,-1.61822 0.66326,-35.16436 0.66579,-104.41272 l 0.004,-102.02961 -1.76301,-3.37561 c -1.28341,-2.45638 -2.60214,-3.89554 -4.84042,-5.28037 l -3.07744,-1.90354 -14.6958,-0.18995 -14.69575,-0.18995 z m -188.10596,25.88034 h 113.62105 113.62105 v 87.74068 87.74072 H 276.38473 162.76368 V 245.7883 Z"
           style="fill:#000000;stroke-width:0.63122797;fill-opacity:0.49019608" />
        <path
           sodipodi:nodetypes="ccccssccccccccccccccccsscccscccsscccccccscscccccccsscccscccsscccccsscccccccsscsccccccsscccccccccccccccccccsscccccscsscscsscscccccccccccccccccccscsccccccccssssscscccscccsscccsccccccscccscccsscsccccccccccccccccccccccccsccscccccsccccscccccscccsscscsscccss"
           inkscape:connector-curvature="0"
           id="path871"
           d="m 276.25,163.28906 c -4.47048,0 -8.67064,1.75639 -12.05273,5.07617 l -0.0195,0.0176 -0.0195,0.0195 c -3.17689,3.29844 -4.91601,7.45902 -4.91601,11.86719 v 18.03516 c 0,3.12441 0.90201,6.11088 2.5664,8.77929 -0.71839,0.27612 -1.42524,0.57097 -2.12304,0.88672 -0.70538,-2.98883 -2.19111,-5.72235 -4.41993,-7.95703 h -0.002 l -12.73242,-12.73242 c -3.16931,-3.17673 -7.37899,-4.89878 -12.04492,-4.93555 h -0.0156 -0.0156 c -4.59954,0.0406 -8.80221,1.7576 -11.94336,4.90625 -3.16575,3.15349 -4.88328,7.37583 -4.91992,12.07813 v 0.0156 0.0137 c 0.0366,4.57394 1.75871,8.77233 4.92773,11.9414 l 12.73242,12.73242 c 2.23807,2.24326 4.98429,3.73642 7.99024,4.43555 -0.31998,0.71505 -0.61919,1.43848 -0.89844,2.17383 -2.6174,-1.61751 -5.6095,-2.5 -8.76758,-2.5 h -17.98633 c -4.4784,0 -8.67688,1.75741 -12.00195,5.02734 l -0.01,0.01 -0.01,0.01 c -3.22341,3.26403 -4.99024,7.45484 -4.99024,11.9375 0,4.46597 1.76771,8.66697 5.07227,12.01563 l 0.0117,0.01 0.01,0.0117 c 3.2579,3.20243 7.44749,4.94141 11.91796,4.94141 h 17.98633 c 3.18376,0 6.19716,-0.89338 8.82813,-2.53516 0.259,0.6731 0.53265,1.33576 0.82617,1.99024 -2.9924,0.70552 -5.72482,2.18377 -7.94922,4.4082 v 0.002 l -12.70898,12.72852 c -3.16505,3.16189 -4.87732,7.37015 -4.91407,12.00976 v 0.008 0.008 c 0,4.61247 1.72121,8.84799 4.90235,12.02539 3.17898,3.18486 7.40474,4.90039 12.01367,4.90039 h 0.0859 0.0117 c 4.5834,-0.0554 8.77849,-1.76163 11.93164,-4.91797 l 12.73437,-12.73633 0.002,-0.002 c 2.21856,-2.23018 3.69159,-4.94967 4.39258,-7.89844 0.67113,0.30161 1.34987,0.58368 2.03906,0.84961 -1.6374,2.6253 -2.52929,5.62176 -2.52929,8.79297 v 18.00195 c 0,4.45429 1.76414,8.64498 5.01953,11.96289 l 0.006,0.006 0.006,0.006 c 3.25724,3.26092 7.46843,5.03516 11.97656,5.03516 4.49062,0 8.69175,-1.77966 11.98242,-5.07031 l 0.006,-0.006 0.004,-0.006 c 3.22198,-3.27366 4.98047,-7.46276 4.98047,-11.93164 v -18 c 0,-3.17001 -0.8849,-6.16329 -2.49414,-8.75586 0.72249,-0.27595 1.43468,-0.56935 2.13671,-0.88477 0.69449,3.05211 2.17078,5.82812 4.41407,8.05664 l 12.75781,12.77149 0.002,0.004 c 3.18382,3.16519 7.4046,4.85938 11.99219,4.85938 h 0.11523 c 4.55713,0 8.75792,-1.69898 11.92969,-4.88086 l 0.002,-0.002 c 3.19983,-3.20093 4.90392,-7.45413 4.86524,-12.03516 -0.002,-4.62305 -1.69287,-8.85881 -4.85742,-12.02344 l -12.73438,-12.74218 c -2.21566,-2.22742 -4.97553,-3.70042 -8.03711,-4.39844 0.31599,-0.69792 0.61115,-1.40577 0.88867,-2.125 2.639,1.65044 5.63771,2.55273 8.79883,2.55273 h 18.02344 c 4.47858,0 8.6686,-1.76742 11.88477,-4.97265 3.31384,-3.24344 5.12304,-7.47509 5.12304,-12.03321 0,-4.53485 -1.80403,-8.75071 -5.06836,-11.95117 l 0.006,0.002 c -0.005,-0.005 -0.0109,-0.007 -0.0156,-0.0117 -9.6e-4,-9.7e-4 -9.9e-4,-0.003 -0.002,-0.004 l -0.55468,-0.54297 h -0.0996 c -3.16462,-2.88294 -7.07847,-4.50586 -11.27344,-4.50586 h -18.02344 c -3.13156,0 -6.11472,0.89861 -8.73437,2.53125 -0.29308,-0.77156 -0.60736,-1.52982 -0.94531,-2.27734 3.02524,-0.70738 5.78407,-2.18641 8.02539,-4.41602 l 0.002,-0.004 12.73047,-12.75196 v -0.002 c 3.13495,-3.13554 4.86034,-7.32245 4.93359,-12.03516 v -0.0215 -0.0234 c -0.0367,-4.57898 -1.76069,-8.77842 -4.91797,-11.92383 l -0.004,-0.002 c -3.16557,-3.17517 -7.38399,-4.90477 -12.11914,-4.94141 l -0.0234,-0.002 -0.0234,0.002 c -4.5725,0.0774 -8.74992,1.77965 -11.86914,4.91016 l -12.76367,12.75586 -0.002,0.002 c -2.21928,2.22219 -3.68665,4.98544 -4.38477,8.04492 -0.71912,-0.32379 -1.44969,-0.62485 -2.19141,-0.9082 1.62096,-2.63022 2.50782,-5.6129 2.50782,-8.74609 v -18.03516 c 0,-4.43625 -1.74662,-8.62014 -5.03516,-12.00391 l -0.0137,-0.0137 -0.0156,-0.0156 c -3.25354,-3.20555 -7.43481,-4.94727 -11.9082,-4.94727 z m 0,10.45899 c 1.78804,0 3.15862,0.55776 4.56836,1.93359 1.36659,1.42233 1.95312,2.81314 1.95312,4.5918 v 18.0332 c 0,1.7457 -0.5949,3.18086 -1.94531,4.55664 -1.42057,1.38955 -2.8015,1.9707 -4.57617,1.9707 -1.77612,0 -3.16322,-0.58276 -4.58008,-1.97265 -1.35784,-1.38756 -1.97265,-2.82774 -1.97265,-4.55469 v -18.0332 c 0,-1.76054 0.60808,-3.15855 1.98046,-4.58789 1.4064,-1.37685 2.78237,-1.9375 4.57227,-1.9375 z m 45.83984,18.95507 c 1.97338,0.0219 3.33678,0.59781 4.60157,1.86524 v 0.002 c 1.26796,1.26799 1.84607,2.63534 1.86523,4.60352 -0.0404,1.97211 -0.6097,3.37141 -1.86523,4.62695 l -12.74219,12.75 c -1.23349,1.23609 -2.66582,1.82662 -4.58984,1.84961 -1.98882,-0.0202 -3.37308,-0.58798 -4.63282,-1.84766 -1.25829,-1.25833 -1.82592,-2.64668 -1.8457,-4.63867 0.0195,-1.9383 0.60468,-3.39313 1.82422,-4.61523 l 12.74414,-12.75195 c 1.23983,-1.23985 2.66383,-1.80266 4.64062,-1.84376 z m -91.5625,0.10743 c 1.97758,0.0231 3.34659,0.59785 4.61133,1.86523 l 12.72266,12.73242 0.002,0.002 c 1.2733,1.27324 1.86376,2.66632 1.84766,4.57812 l -0.002,0.008 v 0.008 c 0,2.0141 -0.56403,3.398 -1.82421,4.6582 -1.2336,1.23302 -2.65477,1.82812 -4.6543,1.82812 h -0.006 -0.008 c -1.90744,0.0134 -3.30397,-0.57933 -4.57813,-1.85351 l -12.7207,-12.72852 c -1.26788,-1.27053 -1.84735,-2.64138 -1.86719,-4.61718 0.0197,-1.9761 0.61544,-3.40453 1.8457,-4.63477 1.25729,-1.2573 2.64756,-1.82229 4.63086,-1.8457 z m 45.7793,21.89843 c 16.75279,0 30.29102,13.54651 30.29102,30.31055 0,16.76403 -13.53847,30.31445 -30.29102,30.31445 -16.75255,0 -30.29102,-13.55042 -30.29102,-30.31445 0,-16.76404 13.53823,-30.31055 30.29102,-30.31055 z m 46.69531,23.85546 h 18.02344 c 1.76495,0 3.15303,0.6007 4.54688,2 l 0.008,0.008 0.008,0.008 c 1.40408,1.37686 1.99023,2.79528 1.99023,4.54297 0,1.78399 -0.58645,3.19837 -1.98828,4.57031 l -0.008,0.008 -0.008,0.006 c -1.39095,1.39092 -2.77302,1.97461 -4.54883,1.97461 h -18.02344 c -1.78402,0 -3.16385,-0.58302 -4.55078,-1.97266 l -0.008,-0.008 -0.006,-0.006 c -1.39532,-1.36827 -1.95898,-2.76961 -1.95898,-4.57226 0,-1.7666 0.56366,-3.17471 1.95898,-4.54297 l 0.006,-0.006 0.006,-0.006 c 1.39891,-1.39888 2.78965,-2.00391 4.55273,-2.00391 z m -111.41601,0.0332 h 17.99414 c 1.79674,0 3.20254,0.56966 4.54101,1.92968 l 0.006,0.006 0.006,0.004 c 1.42515,1.42513 2,2.80012 2,4.58594 0,1.74761 -0.58592,3.17071 -2.00195,4.58398 l -0.008,0.006 -0.006,0.008 c -1.33849,1.36265 -2.74426,1.93164 -4.54102,1.93164 h -17.99023 c -1.79507,0 -3.16747,-0.56167 -4.57813,-1.94531 -1.38273,-1.41532 -1.97461,-2.8419 -1.97461,-4.58398 0,-1.78013 0.58084,-3.16512 1.97071,-4.58203 1.41453,-1.3856 2.78824,-1.94336 4.58203,-1.94336 z m 31.69922,32.93554 h 0.0156 0.0156 c 1.96986,-0.0163 3.37667,0.56415 4.63867,1.82618 1.23541,1.23799 1.82101,2.64931 1.80469,4.62304 v 0.0156 0.0137 c 0.0138,1.92345 -0.56844,3.3412 -1.82813,4.60351 l -12.72266,12.72657 c -1.26022,1.26017 -2.65014,1.82862 -4.64062,1.84961 -1.94919,-0.002 -3.36833,-0.5903 -4.59961,-1.82422 l -0.002,-0.002 h -0.002 c -1.25678,-1.25411 -1.84195,-2.67855 -1.84375,-4.6289 0.0179,-1.99634 0.58448,-3.38141 1.84571,-4.64258 v -0.002 l 12.72265,-12.73242 c 1.26269,-1.2591 2.68019,-1.84237 4.59571,-1.82618 z m 66.00976,0.14649 h 0.008 0.008 c 1.97615,0 3.38582,0.55637 4.63672,1.80469 l 12.74218,12.75195 c 1.24896,1.24897 1.80274,2.66073 1.80274,4.63867 v 0.008 l 0.002,0.01 c 0.0191,1.96831 -0.56776,3.38222 -1.80469,4.61914 -1.25803,1.25804 -2.67011,1.84326 -4.63672,1.82422 h -0.01 -0.01 c -1.96234,0 -3.34885,-0.56263 -4.60937,-1.82227 l -0.002,-0.002 -12.74219,-12.75586 h -0.002 c -1.26053,-1.25794 -1.82617,-2.64576 -1.82617,-4.61524 v -0.006 -0.008 c -0.016,-1.95969 0.57451,-3.34792 1.84766,-4.62109 1.2502,-1.25019 2.63632,-1.84244 4.5957,-1.82617 z M 276.25,285.17381 c 1.74549,0 3.15819,0.58216 4.53906,1.99023 l 0.0117,0.0117 0.0117,0.0137 c 1.36882,1.34458 1.95898,2.7612 1.95898,4.54297 v 18 c 0,1.78689 -0.58184,3.16964 -1.97851,4.59375 -1.37997,1.37718 -2.80036,1.9668 -4.54297,1.9668 -1.77847,0 -3.19467,-0.58834 -4.57422,-1.96485 -1.39653,-1.42975 -1.97851,-2.81103 -1.97851,-4.5957 v -18 c 0,-1.78581 0.58918,-3.19751 1.95898,-4.54297 l 0.0117,-0.0137 0.0137,-0.0117 c 1.38075,-1.40803 2.78657,-1.99023 4.56836,-1.99023 z"
           style="color:#000000;font-style:normal;font-variant:normal;font-weight:normal;font-stretch:normal;font-size:medium;line-height:normal;font-family:sans-serif;font-variant-ligatures:normal;font-variant-position:normal;font-variant-caps:normal;font-variant-numeric:normal;font-variant-alternates:normal;font-feature-settings:normal;text-indent:0;text-align:start;text-decoration:none;text-decoration-line:none;text-decoration-style:solid;text-decoration-color:#000000;letter-spacing:normal;word-spacing:normal;text-transform:none;writing-mode:lr-tb;direction:ltr;text-orientation:mixed;dominant-baseline:auto;baseline-shift:baseline;text-anchor:start;white-space:normal;shape-padding:0;clip-rule:nonzero;display:inline;overflow:visible;visibility:visible;opacity:1;isolation:auto;mix-blend-mode:normal;color-interpolation:sRGB;color-interpolation-filters:linearRGB;solid-color:#000000;solid-opacity:1;vector-effect:none;fill:#000000;fill-opacity:0.49019608;fill-rule:nonzero;stroke:none;stroke-width:3.80543447;stroke-linecap:butt;stroke-linejoin:miter;stroke-miterlimit:4;stroke-dasharray:none;stroke-dashoffset:0;stroke-opacity:1;color-rendering:auto;image-rendering:auto;shape-rendering:auto;text-rendering:auto;enable-background:accumulate" />
      </g>
      <g
         id="g867">
        <path
           style="fill:#ffffff;stroke-width:0.63122797"
           d="M 350.86964,132.16728 H 249.35533 147.84107 l -3.42368,1.73586 c -2.24202,1.13694 -4.0782,2.68025 -5.32106,4.47287 l -1.89735,2.73693 -0.16527,76.63996 -0.1504,69.77658 v 32.82756 14.23344 c 0,14.12629 0.0135,14.25622 1.63849,17.24291 1.8738,3.44281 4.39442,5.52523 8.095,6.68826 2.06476,0.64912 27.9787,0.78676 130.71476,0.69172 l 128.13929,-0.11965 2.5841,-1.38322 c 3.34116,-1.78795 6.32573,-5.21557 7.16166,-8.22576 0.44945,-1.61822 0.66326,-35.16436 0.66579,-104.41272 l 0.004,-102.02961 -1.76301,-3.37561 c -1.28341,-2.45638 -2.60214,-3.89554 -4.84042,-5.28037 l -3.07744,-1.90354 -14.6958,-0.18995 -14.69575,-0.18995 z m -188.10596,25.88034 h 113.62105 113.62105 v 87.74068 87.74072 H 276.38473 162.76368 V 245.7883 Z"
           id="path838-3"
           inkscape:connector-curvature="0"
           sodipodi:nodetypes="cccccccccsccccccscccccccccccccccc" />
        <path
           style="color:#000000;font-style:normal;font-variant:normal;font-weight:normal;font-stretch:normal;font-size:medium;line-height:normal;font-family:sans-serif;font-variant-ligatures:normal;font-variant-position:normal;font-variant-caps:normal;font-variant-numeric:normal;font-variant-alternates:normal;font-feature-settings:normal;text-indent:0;text-align:start;text-decoration:none;text-decoration-line:none;text-decoration-style:solid;text-decoration-color:#000000;letter-spacing:normal;word-spacing:normal;text-transform:none;writing-mode:lr-tb;direction:ltr;text-orientation:mixed;dominant-baseline:auto;baseline-shift:baseline;text-anchor:start;white-space:normal;shape-padding:0;clip-rule:nonzero;display:inline;overflow:visible;visibility:visible;opacity:1;isolation:auto;mix-blend-mode:normal;color-interpolation:sRGB;color-interpolation-filters:linearRGB;solid-color:#000000;solid-opacity:1;vector-effect:none;fill:#ffffff;fill-opacity:1;fill-rule:nonzero;stroke:none;stroke-width:3.80543447;stroke-linecap:butt;stroke-linejoin:miter;stroke-miterlimit:4;stroke-dasharray:none;stroke-dashoffset:0;stroke-opacity:1;color-rendering:auto;image-rendering:auto;shape-rendering:auto;text-rendering:auto;enable-background:accumulate"
           d="m 276.25,163.28906 c -4.47048,0 -8.67064,1.75639 -12.05273,5.07617 l -0.0195,0.0176 -0.0195,0.0195 c -3.17689,3.29844 -4.91601,7.45902 -4.91601,11.86719 v 18.03516 c 0,3.12441 0.90201,6.11088 2.5664,8.77929 -0.71839,0.27612 -1.42524,0.57097 -2.12304,0.88672 -0.70538,-2.98883 -2.19111,-5.72235 -4.41993,-7.95703 h -0.002 l -12.73242,-12.73242 c -3.16931,-3.17673 -7.37899,-4.89878 -12.04492,-4.93555 h -0.0156 -0.0156 c -4.59954,0.0406 -8.80221,1.7576 -11.94336,4.90625 -3.16575,3.15349 -4.88328,7.37583 -4.91992,12.07813 v 0.0156 0.0137 c 0.0366,4.57394 1.75871,8.77233 4.92773,11.9414 l 12.73242,12.73242 c 2.23807,2.24326 4.98429,3.73642 7.99024,4.43555 -0.31998,0.71505 -0.61919,1.43848 -0.89844,2.17383 -2.6174,-1.61751 -5.6095,-2.5 -8.76758,-2.5 h -17.98633 c -4.4784,0 -8.67688,1.75741 -12.00195,5.02734 l -0.01,0.01 -0.01,0.01 c -3.22341,3.26403 -4.99024,7.45484 -4.99024,11.9375 0,4.46597 1.76771,8.66697 5.07227,12.01563 l 0.0117,0.01 0.01,0.0117 c 3.2579,3.20243 7.44749,4.94141 11.91796,4.94141 h 17.98633 c 3.18376,0 6.19716,-0.89338 8.82813,-2.53516 0.259,0.6731 0.53265,1.33576 0.82617,1.99024 -2.9924,0.70552 -5.72482,2.18377 -7.94922,4.4082 v 0.002 l -12.70898,12.72852 c -3.16505,3.16189 -4.87732,7.37015 -4.91407,12.00976 v 0.008 0.008 c 0,4.61247 1.72121,8.84799 4.90235,12.02539 3.17898,3.18486 7.40474,4.90039 12.01367,4.90039 h 0.0859 0.0117 c 4.5834,-0.0554 8.77849,-1.76163 11.93164,-4.91797 l 12.73437,-12.73633 0.002,-0.002 c 2.21856,-2.23018 3.69159,-4.94967 4.39258,-7.89844 0.67113,0.30161 1.34987,0.58368 2.03906,0.84961 -1.6374,2.6253 -2.52929,5.62176 -2.52929,8.79297 v 18.00195 c 0,4.45429 1.76414,8.64498 5.01953,11.96289 l 0.006,0.006 0.006,0.006 c 3.25724,3.26092 7.46843,5.03516 11.97656,5.03516 4.49062,0 8.69175,-1.77966 11.98242,-5.07031 l 0.006,-0.006 0.004,-0.006 c 3.22198,-3.27366 4.98047,-7.46276 4.98047,-11.93164 v -18 c 0,-3.17001 -0.8849,-6.16329 -2.49414,-8.75586 0.72249,-0.27595 1.43468,-0.56935 2.13671,-0.88477 0.69449,3.05211 2.17078,5.82812 4.41407,8.05664 l 12.75781,12.77149 0.002,0.004 c 3.18382,3.16519 7.4046,4.85938 11.99219,4.85938 h 0.11523 c 4.55713,0 8.75792,-1.69898 11.92969,-4.88086 l 0.002,-0.002 c 3.19983,-3.20093 4.90392,-7.45413 4.86524,-12.03516 -0.002,-4.62305 -1.69287,-8.85881 -4.85742,-12.02344 l -12.73438,-12.74218 c -2.21566,-2.22742 -4.97553,-3.70042 -8.03711,-4.39844 0.31599,-0.69792 0.61115,-1.40577 0.88867,-2.125 2.639,1.65044 5.63771,2.55273 8.79883,2.55273 h 18.02344 c 4.47858,0 8.6686,-1.76742 11.88477,-4.97265 3.31384,-3.24344 5.12304,-7.47509 5.12304,-12.03321 0,-4.53485 -1.80403,-8.75071 -5.06836,-11.95117 l 0.006,0.002 c -0.005,-0.005 -0.0109,-0.007 -0.0156,-0.0117 -9.6e-4,-9.7e-4 -9.9e-4,-0.003 -0.002,-0.004 l -0.55468,-0.54297 h -0.0996 c -3.16462,-2.88294 -7.07847,-4.50586 -11.27344,-4.50586 h -18.02344 c -3.13156,0 -6.11472,0.89861 -8.73437,2.53125 -0.29308,-0.77156 -0.60736,-1.52982 -0.94531,-2.27734 3.02524,-0.70738 5.78407,-2.18641 8.02539,-4.41602 l 0.002,-0.004 12.73047,-12.75196 v -0.002 c 3.13495,-3.13554 4.86034,-7.32245 4.93359,-12.03516 v -0.0215 -0.0234 c -0.0367,-4.57898 -1.76069,-8.77842 -4.91797,-11.92383 l -0.004,-0.002 c -3.16557,-3.17517 -7.38399,-4.90477 -12.11914,-4.94141 l -0.0234,-0.002 -0.0234,0.002 c -4.5725,0.0774 -8.74992,1.77965 -11.86914,4.91016 l -12.76367,12.75586 -0.002,0.002 c -2.21928,2.22219 -3.68665,4.98544 -4.38477,8.04492 -0.71912,-0.32379 -1.44969,-0.62485 -2.19141,-0.9082 1.62096,-2.63022 2.50782,-5.6129 2.50782,-8.74609 v -18.03516 c 0,-4.43625 -1.74662,-8.62014 -5.03516,-12.00391 l -0.0137,-0.0137 -0.0156,-0.0156 c -3.25354,-3.20555 -7.43481,-4.94727 -11.9082,-4.94727 z m 0,10.45899 c 1.78804,0 3.15862,0.55776 4.56836,1.93359 1.36659,1.42233 1.95312,2.81314 1.95312,4.5918 v 18.0332 c 0,1.7457 -0.5949,3.18086 -1.94531,4.55664 -1.42057,1.38955 -2.8015,1.9707 -4.57617,1.9707 -1.77612,0 -3.16322,-0.58276 -4.58008,-1.97265 -1.35784,-1.38756 -1.97265,-2.82774 -1.97265,-4.55469 v -18.0332 c 0,-1.76054 0.60808,-3.15855 1.98046,-4.58789 1.4064,-1.37685 2.78237,-1.9375 4.57227,-1.9375 z m 45.83984,18.95507 c 1.97338,0.0219 3.33678,0.59781 4.60157,1.86524 v 0.002 c 1.26796,1.26799 1.84607,2.63534 1.86523,4.60352 -0.0404,1.97211 -0.6097,3.37141 -1.86523,4.62695 l -12.74219,12.75 c -1.23349,1.23609 -2.66582,1.82662 -4.58984,1.84961 -1.98882,-0.0202 -3.37308,-0.58798 -4.63282,-1.84766 -1.25829,-1.25833 -1.82592,-2.64668 -1.8457,-4.63867 0.0195,-1.9383 0.60468,-3.39313 1.82422,-4.61523 l 12.74414,-12.75195 c 1.23983,-1.23985 2.66383,-1.80266 4.64062,-1.84376 z m -91.5625,0.10743 c 1.97758,0.0231 3.34659,0.59785 4.61133,1.86523 l 12.72266,12.73242 0.002,0.002 c 1.2733,1.27324 1.86376,2.66632 1.84766,4.57812 l -0.002,0.008 v 0.008 c 0,2.0141 -0.56403,3.398 -1.82421,4.6582 -1.2336,1.23302 -2.65477,1.82812 -4.6543,1.82812 h -0.006 -0.008 c -1.90744,0.0134 -3.30397,-0.57933 -4.57813,-1.85351 l -12.7207,-12.72852 c -1.26788,-1.27053 -1.84735,-2.64138 -1.86719,-4.61718 0.0197,-1.9761 0.61544,-3.40453 1.8457,-4.63477 1.25729,-1.2573 2.64756,-1.82229 4.63086,-1.8457 z m 45.7793,21.89843 c 16.75279,0 30.29102,13.54651 30.29102,30.31055 0,16.76403 -13.53847,30.31445 -30.29102,30.31445 -16.75255,0 -30.29102,-13.55042 -30.29102,-30.31445 0,-16.76404 13.53823,-30.31055 30.29102,-30.31055 z m 46.69531,23.85546 h 18.02344 c 1.76495,0 3.15303,0.6007 4.54688,2 l 0.008,0.008 0.008,0.008 c 1.40408,1.37686 1.99023,2.79528 1.99023,4.54297 0,1.78399 -0.58645,3.19837 -1.98828,4.57031 l -0.008,0.008 -0.008,0.006 c -1.39095,1.39092 -2.77302,1.97461 -4.54883,1.97461 h -18.02344 c -1.78402,0 -3.16385,-0.58302 -4.55078,-1.97266 l -0.008,-0.008 -0.006,-0.006 c -1.39532,-1.36827 -1.95898,-2.76961 -1.95898,-4.57226 0,-1.7666 0.56366,-3.17471 1.95898,-4.54297 l 0.006,-0.006 0.006,-0.006 c 1.39891,-1.39888 2.78965,-2.00391 4.55273,-2.00391 z m -111.41601,0.0332 h 17.99414 c 1.79674,0 3.20254,0.56966 4.54101,1.92968 l 0.006,0.006 0.006,0.004 c 1.42515,1.42513 2,2.80012 2,4.58594 0,1.74761 -0.58592,3.17071 -2.00195,4.58398 l -0.008,0.006 -0.006,0.008 c -1.33849,1.36265 -2.74426,1.93164 -4.54102,1.93164 h -17.99023 c -1.79507,0 -3.16747,-0.56167 -4.57813,-1.94531 -1.38273,-1.41532 -1.97461,-2.8419 -1.97461,-4.58398 0,-1.78013 0.58084,-3.16512 1.97071,-4.58203 1.41453,-1.3856 2.78824,-1.94336 4.58203,-1.94336 z m 31.69922,32.93554 h 0.0156 0.0156 c 1.96986,-0.0163 3.37667,0.56415 4.63867,1.82618 1.23541,1.23799 1.82101,2.64931 1.80469,4.62304 v 0.0156 0.0137 c 0.0138,1.92345 -0.56844,3.3412 -1.82813,4.60351 l -12.72266,12.72657 c -1.26022,1.26017 -2.65014,1.82862 -4.64062,1.84961 -1.94919,-0.002 -3.36833,-0.5903 -4.59961,-1.82422 l -0.002,-0.002 h -0.002 c -1.25678,-1.25411 -1.84195,-2.67855 -1.84375,-4.6289 0.0179,-1.99634 0.58448,-3.38141 1.84571,-4.64258 v -0.002 l 12.72265,-12.73242 c 1.26269,-1.2591 2.68019,-1.84237 4.59571,-1.82618 z m 66.00976,0.14649 h 0.008 0.008 c 1.97615,0 3.38582,0.55637 4.63672,1.80469 l 12.74218,12.75195 c 1.24896,1.24897 1.80274,2.66073 1.80274,4.63867 v 0.008 l 0.002,0.01 c 0.0191,1.96831 -0.56776,3.38222 -1.80469,4.61914 -1.25803,1.25804 -2.67011,1.84326 -4.63672,1.82422 h -0.01 -0.01 c -1.96234,0 -3.34885,-0.56263 -4.60937,-1.82227 l -0.002,-0.002 -12.74219,-12.75586 h -0.002 c -1.26053,-1.25794 -1.82617,-2.64576 -1.82617,-4.61524 v -0.006 -0.008 c -0.016,-1.95969 0.57451,-3.34792 1.84766,-4.62109 1.2502,-1.25019 2.63632,-1.84244 4.5957,-1.82617 z M 276.25,285.17381 c 1.74549,0 3.15819,0.58216 4.53906,1.99023 l 0.0117,0.0117 0.0117,0.0137 c 1.36882,1.34458 1.95898,2.7612 1.95898,4.54297 v 18 c 0,1.78689 -0.58184,3.16964 -1.97851,4.59375 -1.37997,1.37718 -2.80036,1.9668 -4.54297,1.9668 -1.77847,0 -3.19467,-0.58834 -4.57422,-1.96485 -1.39653,-1.42975 -1.97851,-2.81103 -1.97851,-4.5957 v -18 c 0,-1.78581 0.58918,-3.19751 1.95898,-4.54297 l 0.0117,-0.0137 0.0137,-0.0117 c 1.38075,-1.40803 2.78657,-1.99023 4.56836,-1.99023 z"
           id="path242"
           inkscape:connector-curvature="0"
           sodipodi:nodetypes="ccccssccccccccccccccccsscccscccsscccccccscscccccccsscccscccsscccccsscccccccsscsccccccsscccccccccccccccccccsscccccscsscscsscscccccccccccccccccccscsccccccccssssscscccscccsscccsccccccscccscccsscsccccccccccccccccccccccccsccscccccsccccscccccscccsscscsscccss" />
      </g>
    </g>
  </g>
</svg>
