<?xml version="1.0" encoding="UTF-8" standalone="no"?>
<svg
   xmlns:dc="http://purl.org/dc/elements/1.1/"
   xmlns:cc="http://creativecommons.org/ns#"
   xmlns:rdf="http://www.w3.org/1999/02/22-rdf-syntax-ns#"
   xmlns:svg="http://www.w3.org/2000/svg"
   xmlns="http://www.w3.org/2000/svg"
   xmlns:sodipodi="http://sodipodi.sourceforge.net/DTD/sodipodi-0.dtd"
   xmlns:inkscape="http://www.inkscape.org/namespaces/inkscape"
   viewBox="0 0 512 512"
   id="svg2"
   version="1.1"
   inkscape:version="0.92.3 (2405546, 2018-03-11)"
   width="512"
   height="512"
   sodipodi:docname="kivio.svg">
  <metadata
     id="metadata69">
    <rdf:RDF>
      <cc:Work
         rdf:about="">
        <dc:format>image/svg+xml</dc:format>
        <dc:type
           rdf:resource="http://purl.org/dc/dcmitype/StillImage" />
        <dc:title></dc:title>
      </cc:Work>
    </rdf:RDF>
  </metadata>
  <sodipodi:namedview
     pagecolor="#ffffff"
     bordercolor="#666666"
     borderopacity="1"
     objecttolerance="10"
     gridtolerance="10"
     guidetolerance="10"
     inkscape:pageopacity="0"
     inkscape:pageshadow="2"
     inkscape:window-width="1139"
     inkscape:window-height="711"
     id="namedview67"
     showgrid="false"
     inkscape:zoom="0.61458333"
     inkscape:cx="264.07507"
     inkscape:cy="327.87832"
     inkscape:window-x="15"
     inkscape:window-y="25"
     inkscape:window-maximized="0"
     inkscape:current-layer="svg2"
     units="px" />
  <defs
     id="defs4">
    <linearGradient
       id="linearGradient3764"
       x1="1"
       x2="47"
       gradientUnits="userSpaceOnUse"
       gradientTransform="rotate(-90,23.999998,24)">
      <stop
         stop-color="#333"
         stop-opacity="1"
         id="stop7" />
      <stop
         offset="1"
         stop-color="#3d3d3d"
         stop-opacity="1"
         id="stop9" />
    </linearGradient>
    <clipPath
       id="clipPath-983302640">
      <g
         transform="translate(0,-1004.3622)"
         id="g12">
        <path
           d="m -24,13 c 0,1.105 -0.672,2 -1.5,2 -0.828,0 -1.5,-0.895 -1.5,-2 0,-1.105 0.672,-2 1.5,-2 0.828,0 1.5,0.895 1.5,2 z"
           transform="matrix(15.8a715e,0,0,11.5,414.99999,878.8622)"
           id="path14"
           inkscape:connector-curvature="0"
           style="fill:#1890d0" />
      </g>
    </clipPath>
    <clipPath
       id="clipPath-988409791">
      <g
         transform="translate(0,-1004.3622)"
         id="g17">
        <path
           d="m -24,13 c 0,1.105 -0.672,2 -1.5,2 -0.828,0 -1.5,-0.895 -1.5,-2 0,-1.105 0.672,-2 1.5,-2 0.828,0 1.5,0.895 1.5,2 z"
           transform="matrix(15.8a715e,0,0,11.5,414.99999,878.8622)"
           id="path19"
           inkscape:connector-curvature="0"
           style="fill:#1890d0" />
      </g>
    </clipPath>
  </defs>
  <g
     id="g33"
     transform="translate(0,591)" />
  <g
     id="g872">
    <path
       style="fill:#f37329;fill-opacity:1;stroke-width:11.10955906"
       inkscape:connector-curvature="0"
       d="m 432.91329,56.47394 c 102.1929,88.57459 105.82674,249.69974 8.1168,359.89882 C 343.32008,526.57184 181.27963,544.10061 79.08674,455.52602 -23.106204,366.95144 -26.740032,205.82628 70.96994,95.6272 168.67989,-14.57187 330.72032,-32.10065 432.91329,56.47394 Z"
       id="path27-5" />
    <path
       style="opacity:1;fill:#000000;fill-opacity:0.49019608;stroke-width:11.10955906"
       inkscape:connector-curvature="0"
       d="M 511.63553,224.90352 C 510.08411,286.21513 486.4743,349.05809 440.66915,400.71796 342.95912,510.91707 180.91868,528.4458 78.725758,439.87125 30.827126,398.35564 4.4968183,340.92281 0.19382613,280.22881 0.79907966,346.58545 27.117406,410.48218 79.078686,455.51902 c 102.192884,88.5746 264.241054,71.03713 361.943344,-39.15325 49.70496,-56.05815 73.00502,-125.291 70.6135,-191.46225 z"
       id="path51-6" />
    <g
       style="fill:#000000;fill-opacity:0.49019608"
       transform="translate(20,20)"
       id="g55">
      <path
         d="m 259.82852,183.76873 -50.43036,100.86071 h 100.86071 m -50.43035,-66.2907 25.16474,50.43035 h -50.43035 l 25.21518,-50.43035 m 0.0504,0"
         id="path49"
         inkscape:connector-curvature="0"
         style="fill:#000000;fill-opacity:0.49019608;fill-rule:nonzero;stroke:none;stroke-width:2.504879" />
      <path
         inkscape:connector-curvature="0"
         id="path51"
         d="m 165.16406,100 v 25.21875 h 12.60742 V 100.01172 Z M 140,129.50195 v 29.69141 l 13.73242,0.35156 v -29.74804 z m 126.02539,0.0117 -78.10351,0.48047 v 29.7793 l 78.10351,-0.56836 c 52.83841,-0.44127 94.40625,38.90673 94.40625,88.3789 0,49.4974 -41.56784,88.37891 -94.40625,88.37891 l -88.25391,0.44141 V 164.48633 H 165.16406 V 336.3418 L 140,335.90039 v 29.65234 l 25.16406,0.54297 v 19.11328 H 152.55664 L 171.46875,412 190.38086,385.20898 H 177.77148 V 366.0957 l 88.25391,-0.54297 c 69.83344,-0.44126 126.07617,-52.59858 126.07617,-117.99414 0,-65.40817 -56.24273,-118.04492 -126.07617,-118.04492 z"
         style="fill:#000000;fill-opacity:0.49019608;fill-rule:nonzero;stroke:none;stroke-width:2.504879" />
      <path
         d="m 153.73245,125.2182 h 34.19007 v 39.2681 h -34.19007 m 0,-39.2681"
         id="path53"
         inkscape:connector-curvature="0"
         style="fill:#000000;fill-opacity:0.49019608;fill-rule:nonzero;stroke:none;stroke-width:2.504879" />
    </g>
    <g
       id="g47">
      <path
         style="fill:#ffffff;fill-opacity:1;fill-rule:nonzero;stroke:none;stroke-width:2.504879"
         inkscape:connector-curvature="0"
         id="path57"
         d="m 259.82852,183.76873 -50.43036,100.86071 h 100.86071 m -50.43035,-66.2907 25.16474,50.43035 h -50.43035 l 25.21518,-50.43035 m 0.0504,0" />
      <path
         inkscape:connector-curvature="0"
         style="fill:#ffffff;fill-opacity:1;fill-rule:nonzero;stroke:none;stroke-width:2.504879"
         d="m 165.16406,100 v 25.21875 h 12.60742 V 100.01172 Z M 140,129.50195 v 29.69141 l 13.73242,0.35156 v -29.74804 z m 126.02539,0.0117 -78.10351,0.48047 v 29.7793 l 78.10351,-0.56836 c 52.83841,-0.44127 94.40625,38.90673 94.40625,88.3789 0,49.4974 -41.56784,88.37891 -94.40625,88.37891 l -88.25391,0.44141 V 164.48633 H 165.16406 V 336.3418 L 140,335.90039 v 29.65234 l 25.16406,0.54297 v 19.11328 H 152.55664 L 171.46875,412 190.38086,385.20898 H 177.77148 V 366.0957 l 88.25391,-0.54297 c 69.83344,-0.44126 126.07617,-52.59858 126.07617,-117.99414 0,-65.40817 -56.24273,-118.04492 -126.07617,-118.04492 z"
         id="path59" />
      <path
         style="fill:#ffffff;fill-opacity:1;fill-rule:nonzero;stroke:none;stroke-width:2.504879"
         inkscape:connector-curvature="0"
         id="path61"
         d="m 153.73245,125.2182 h 34.19007 v 39.2681 h -34.19007 m 0,-39.2681" />
    </g>
  </g>
</svg>
