<?xml version="1.0" encoding="UTF-8" standalone="no"?>
<!-- Generator: Adobe Illustrator 9.0, SVG Export Plug-In  -->

<svg
   xmlns:dc="http://purl.org/dc/elements/1.1/"
   xmlns:cc="http://creativecommons.org/ns#"
   xmlns:rdf="http://www.w3.org/1999/02/22-rdf-syntax-ns#"
   xmlns:svg="http://www.w3.org/2000/svg"
   xmlns="http://www.w3.org/2000/svg"
   xmlns:sodipodi="http://sodipodi.sourceforge.net/DTD/sodipodi-0.dtd"
   xmlns:inkscape="http://www.inkscape.org/namespaces/inkscape"
   width="512"
   height="512"
   viewBox="0 0 101.64705 101.64705"
   xml:space="preserve"
   id="svg2"
   sodipodi:version="0.32"
   inkscape:version="0.92.3 (2405546, 2018-03-11)"
   sodipodi:docname="klinkstatus.svg"
   version="1.1"><metadata
     id="metadata421"><rdf:RDF><cc:Work
         rdf:about=""><dc:format>image/svg+xml</dc:format><dc:type
           rdf:resource="http://purl.org/dc/dcmitype/StillImage" /><dc:title></dc:title></cc:Work></rdf:RDF></metadata><defs
     id="defs419"><clipPath
       clipPathUnits="userSpaceOnUse"
       id="clipPath5062"><circle
         style="opacity:1;fill:none;fill-opacity:1;stroke:#000000;stroke-width:0.51056468;stroke-miterlimit:4;stroke-dasharray:none;stroke-dashoffset:0;stroke-opacity:1"
         id="circle5064"
         cx="292.41159"
         cy="78.3964"
         r="43.65332" /></clipPath><linearGradient
       id="aigrd21"
       gradientUnits="userSpaceOnUse"
       x1="-28.083"
       y1="1.5566"
       x2="122.4775"
       y2="179.00301"
       gradientTransform="translate(3.0737088,3.230972)"><stop
         offset="0"
         style="stop-color:#FFFFFF"
         id="stop224" /><stop
         offset="1"
         style="stop-color:#8C8CA4"
         id="stop226" /></linearGradient><linearGradient
       id="aigrd22"
       gradientUnits="userSpaceOnUse"
       x1="40.394501"
       y1="96.763702"
       x2="89.714401"
       y2="134.94679"
       gradientTransform="translate(1.6941176,2.5411764)"><stop
         offset="0"
         style="stop-color:#FFFFFF"
         id="stop231" /><stop
         offset="1"
         style="stop-color:#545477"
         id="stop233" /></linearGradient><linearGradient
       id="aigrd23"
       gradientUnits="userSpaceOnUse"
       x1="16.2939"
       y1="53.110401"
       x2="151.1777"
       y2="213.9856"
       gradientTransform="translate(1.6941176,2.5411764)"><stop
         offset="0"
         style="stop-color:#FFFFFF"
         id="stop238" /><stop
         offset="0.178"
         style="stop-color:#FBFBFC"
         id="stop240" /><stop
         offset="0.367"
         style="stop-color:#EEEEF2"
         id="stop242" /><stop
         offset="0.5612"
         style="stop-color:#D9D9E1"
         id="stop244" /><stop
         offset="0.7589"
         style="stop-color:#BBBBC9"
         id="stop246" /><stop
         offset="0.9575"
         style="stop-color:#9595AB"
         id="stop248" /><stop
         offset="1"
         style="stop-color:#8C8CA4"
         id="stop250" /></linearGradient><linearGradient
       id="aigrd24"
       gradientUnits="userSpaceOnUse"
       x1="-32.7295"
       y1="5.5019999"
       x2="117.8273"
       y2="182.94389"
       gradientTransform="translate(3.0737088,3.230972)"><stop
         offset="0"
         style="stop-color:#FFFFFF"
         id="stop255" /><stop
         offset="1"
         style="stop-color:#8C8CA4"
         id="stop257" /></linearGradient><linearGradient
       id="aigrd25"
       gradientUnits="userSpaceOnUse"
       x1="-17.4727"
       y1="36.036098"
       x2="33.188202"
       y2="75.2575"
       gradientTransform="translate(1.6941176,2.5411764)"><stop
         offset="0"
         style="stop-color:#FFFFFF"
         id="stop262" /><stop
         offset="1"
         style="stop-color:#545477"
         id="stop264" /></linearGradient><linearGradient
       id="aigrd26"
       gradientUnits="userSpaceOnUse"
       x1="11.6523"
       y1="57.0117"
       x2="146.5186"
       y2="217.8661"
       gradientTransform="translate(1.6941176,2.5411764)"><stop
         offset="0"
         style="stop-color:#FFFFFF"
         id="stop269" /><stop
         offset="0.178"
         style="stop-color:#FBFBFC"
         id="stop271" /><stop
         offset="0.367"
         style="stop-color:#EEEEF2"
         id="stop273" /><stop
         offset="0.5612"
         style="stop-color:#D9D9E1"
         id="stop275" /><stop
         offset="0.7589"
         style="stop-color:#BBBBC9"
         id="stop277" /><stop
         offset="0.9575"
         style="stop-color:#9595AB"
         id="stop279" /><stop
         offset="1"
         style="stop-color:#8C8CA4"
         id="stop281" /></linearGradient><linearGradient
       id="aigrd27"
       gradientUnits="userSpaceOnUse"
       x1="-45.7183"
       y1="16.5156"
       x2="104.8478"
       y2="193.9686"
       gradientTransform="translate(3.0737088,3.230972)"><stop
         offset="0"
         style="stop-color:#FFFFFF"
         id="stop286" /><stop
         offset="1"
         style="stop-color:#8C8CA4"
         id="stop288" /></linearGradient><linearGradient
       id="aigrd28"
       gradientUnits="userSpaceOnUse"
       x1="4.2323999"
       y1="86.015602"
       x2="46.405998"
       y2="118.6661"
       gradientTransform="translate(1.6941176,2.5411764)"><stop
         offset="0"
         style="stop-color:#FFFFFF"
         id="stop293" /><stop
         offset="1"
         style="stop-color:#545477"
         id="stop295" /></linearGradient><linearGradient
       id="aigrd29"
       gradientUnits="userSpaceOnUse"
       x1="-0.7148"
       y1="67.377899"
       x2="134.1636"
       y2="228.2469"
       gradientTransform="translate(1.6941176,2.5411764)"><stop
         offset="0"
         style="stop-color:#FFFFFF"
         id="stop300" /><stop
         offset="0.178"
         style="stop-color:#FBFBFC"
         id="stop302" /><stop
         offset="0.367"
         style="stop-color:#EEEEF2"
         id="stop304" /><stop
         offset="0.5612"
         style="stop-color:#D9D9E1"
         id="stop306" /><stop
         offset="0.7589"
         style="stop-color:#BBBBC9"
         id="stop308" /><stop
         offset="0.9575"
         style="stop-color:#9595AB"
         id="stop310" /><stop
         offset="1"
         style="stop-color:#8C8CA4"
         id="stop312" /></linearGradient><linearGradient
       id="aigrd30"
       gradientUnits="userSpaceOnUse"
       x1="4.0088"
       y1="-25.6621"
       x2="154.5634"
       y2="151.7773"
       gradientTransform="translate(3.0737088,3.230972)"><stop
         offset="0"
         style="stop-color:#FFFFFF"
         id="stop317" /><stop
         offset="1"
         style="stop-color:#8C8CA4"
         id="stop319" /></linearGradient><linearGradient
       id="aigrd31"
       gradientUnits="userSpaceOnUse"
       x1="89.798798"
       y1="83.609398"
       x2="132.9068"
       y2="116.9833"
       gradientTransform="translate(1.6941176,2.5411764)"><stop
         offset="0"
         style="stop-color:#FFFFFF"
         id="stop324" /><stop
         offset="1"
         style="stop-color:#545477"
         id="stop326" /></linearGradient><linearGradient
       id="aigrd32"
       gradientUnits="userSpaceOnUse"
       x1="48.421902"
       y1="26.188499"
       x2="183.29131"
       y2="187.04671"
       gradientTransform="translate(1.6941176,2.5411764)"><stop
         offset="0"
         style="stop-color:#FFFFFF"
         id="stop331" /><stop
         offset="0.178"
         style="stop-color:#FBFBFC"
         id="stop333" /><stop
         offset="0.367"
         style="stop-color:#EEEEF2"
         id="stop335" /><stop
         offset="0.5612"
         style="stop-color:#D9D9E1"
         id="stop337" /><stop
         offset="0.7589"
         style="stop-color:#BBBBC9"
         id="stop339" /><stop
         offset="0.9575"
         style="stop-color:#9595AB"
         id="stop341" /><stop
         offset="1"
         style="stop-color:#8C8CA4"
         id="stop343" /></linearGradient><linearGradient
       id="aigrd33"
       gradientUnits="userSpaceOnUse"
       x1="-2.0176001"
       y1="-20.553699"
       x2="148.53819"
       y2="156.8871"
       gradientTransform="translate(3.0737088,3.230972)"><stop
         offset="0"
         style="stop-color:#FFFFFF"
         id="stop348" /><stop
         offset="1"
         style="stop-color:#8C8CA4"
         id="stop350" /></linearGradient><linearGradient
       id="aigrd34"
       gradientUnits="userSpaceOnUse"
       x1="2.0204999"
       y1="-0.65670002"
       x2="45.126999"
       y2="32.716"
       gradientTransform="translate(1.6941176,2.5411764)"><stop
         offset="0"
         style="stop-color:#FFFFFF"
         id="stop355" /><stop
         offset="1"
         style="stop-color:#545477"
         id="stop357" /></linearGradient><linearGradient
       id="aigrd35"
       gradientUnits="userSpaceOnUse"
       x1="42.288101"
       y1="31.3262"
       x2="177.1685"
       y2="192.1976"
       gradientTransform="translate(1.6941176,2.5411764)"><stop
         offset="0"
         style="stop-color:#FFFFFF"
         id="stop362" /><stop
         offset="0.178"
         style="stop-color:#FBFBFC"
         id="stop364" /><stop
         offset="0.367"
         style="stop-color:#EEEEF2"
         id="stop366" /><stop
         offset="0.5612"
         style="stop-color:#D9D9E1"
         id="stop368" /><stop
         offset="0.7589"
         style="stop-color:#BBBBC9"
         id="stop370" /><stop
         offset="0.9575"
         style="stop-color:#9595AB"
         id="stop372" /><stop
         offset="1"
         style="stop-color:#8C8CA4"
         id="stop374" /></linearGradient><linearGradient
       id="aigrd36"
       gradientUnits="userSpaceOnUse"
       x1="-9.1904001"
       y1="-14.3975"
       x2="141.2382"
       y2="162.8934"
       gradientTransform="translate(3.0737088,3.230972)"><stop
         offset="0"
         style="stop-color:#FFFFFF"
         id="stop379" /><stop
         offset="1"
         style="stop-color:#8C8CA4"
         id="stop381" /></linearGradient><linearGradient
       id="aigrd37"
       gradientUnits="userSpaceOnUse"
       x1="35.362301"
       y1="37.130901"
       x2="170.0874"
       y2="197.817"
       gradientTransform="translate(93.781827,-12.634326)"><stop
         offset="0"
         style="stop-color:#FFFFFF"
         id="stop388" /><stop
         offset="0.178"
         style="stop-color:#FBFBFC"
         id="stop390" /><stop
         offset="0.367"
         style="stop-color:#EEEEF2"
         id="stop392" /><stop
         offset="0.5612"
         style="stop-color:#D9D9E1"
         id="stop394" /><stop
         offset="0.7589"
         style="stop-color:#BBBBC9"
         id="stop396" /><stop
         offset="0.9575"
         style="stop-color:#9595AB"
         id="stop398" /><stop
         offset="1"
         style="stop-color:#8C8CA4"
         id="stop400" /></linearGradient><linearGradient
       id="aigrd38"
       gradientUnits="userSpaceOnUse"
       x1="-39.401402"
       y1="-8.9390001"
       x2="120.3301"
       y2="114.7241"
       gradientTransform="translate(1.6941176,2.5411764)"><stop
         offset="0"
         style="stop-color:#FFFFFF"
         id="stop405" /><stop
         offset="1"
         style="stop-color:#545477"
         id="stop407" /></linearGradient><linearGradient
       id="aigrd39"
       gradientUnits="userSpaceOnUse"
       x1="-25.284201"
       y1="-0.69919997"
       x2="115.9417"
       y2="108.6369"
       gradientTransform="translate(1.6941176,2.5411764)"><stop
         offset="0"
         style="stop-color:#FFFFFF"
         id="stop412" /><stop
         offset="1"
         style="stop-color:#545477"
         id="stop414" /></linearGradient><linearGradient
       y2="121.7395"
       x2="121.406"
       y1="114.6621"
       x1="128.4834"
       gradientUnits="userSpaceOnUse"
       id="aigrd17"><stop
         id="stop194"
         style="stop-color:#FFFFFF"
         offset="0" /><stop
         id="stop196"
         style="stop-color:#8C8CA4"
         offset="1" /></linearGradient><linearGradient
       y2="124.5975"
       x2="138.25661"
       y1="98.666"
       x1="104.7617"
       gradientUnits="userSpaceOnUse"
       id="aigrd18"><stop
         id="stop201"
         style="stop-color:#FFFFFF"
         offset="0" /><stop
         id="stop203"
         style="stop-color:#545477"
         offset="1" /></linearGradient><linearGradient
       y2="16.8859"
       x2="16.554501"
       y1="9.8095999"
       x1="23.630899"
       gradientUnits="userSpaceOnUse"
       id="aigrd19"><stop
         id="stop210"
         style="stop-color:#FFFFFF"
         offset="0" /><stop
         id="stop212"
         style="stop-color:#8C8CA4"
         offset="1" /></linearGradient><linearGradient
       y2="19.7453"
       x2="33.404099"
       y1="-6.1884999"
       x1="-0.093800001"
       gradientUnits="userSpaceOnUse"
       id="aigrd20"><stop
         id="stop217"
         style="stop-color:#FFFFFF"
         offset="0" /><stop
         id="stop219"
         style="stop-color:#545477"
         offset="1" /></linearGradient></defs><sodipodi:namedview
     inkscape:cy="564.87222"
     inkscape:cx="-98.833086"
     inkscape:zoom="0.30699632"
     inkscape:window-height="711"
     inkscape:window-width="1272"
     inkscape:pageshadow="2"
     inkscape:pageopacity="0.0"
     borderopacity="1.0"
     bordercolor="#666666"
     pagecolor="#ffffff"
     id="base"
     inkscape:window-x="15"
     inkscape:window-y="25"
     inkscape:current-layer="svg2"
     showgrid="false"
     inkscape:window-maximized="0"
     units="px"
     showguides="false" /><g
     id="g1163"><path
       id="path1165"
       d="M 85.946022,11.211929 C 106.23432,28.796373 106.95575,60.784636 87.557442,82.662274 68.159134,104.53993 35.989338,108.01993 15.701045,90.435485 -4.5872617,72.850579 -5.3086832,40.862777 14.089622,18.984678 33.487919,-2.8929567 65.657715,-6.3729769 85.946022,11.211929 Z"
       inkscape:connector-curvature="0"
       style="fill:#3689e6;fill-opacity:1;stroke-width:2.20557213" /><path
       id="path1167"
       d="M 101.5747,44.650047 C 101.26671,56.822257 96.579457,69.298485 87.485787,79.554189 68.087473,101.43183 35.917679,104.91185 15.62938,87.327402 6.1200912,79.085229 0.89275099,67.683224 0.03848044,55.633453 0.15864109,68.807347 5.3836029,81.492873 15.699447,90.433637 35.98774,108.01854 68.159065,104.53669 87.555848,82.660887 97.423741,71.531482 102.04949,57.786979 101.5747,44.650047 Z"
       inkscape:connector-curvature="0"
       style="opacity:1;fill:#000000;fill-opacity:0.49019608;stroke-width:2.20557213" /><path
       style="clip-rule:nonzero;fill:none;fill-rule:nonzero;stroke:none;stroke-width:0;stroke-miterlimit:4"
       d="M 81.794109,81.794111 H 19.852939 V 19.852943 h 61.94117 z"
       id="path5"
       inkscape:connector-curvature="0" /><g
       transform="translate(-36.741452,33.316184)"
       id="g1136"><path
         style="clip-rule:nonzero;fill:none;fill-rule:nonzero;stroke:none;stroke-width:0;stroke-miterlimit:4"
         d="M 122.50615,52.448514 H 60.564979 V -9.492654 h 61.941171 z"
         id="path283"
         inkscape:connector-curvature="0" /><path
         inkscape:connector-curvature="0"
         id="path285"
         d="M 91.436859,1.388995 A 17.097738,17.097738 0 0 0 74.339399,18.486808 17.097738,17.097738 0 0 0 91.436859,35.584622 17.097738,17.097738 0 0 0 108.53467,18.486808 17.097738,17.097738 0 0 0 91.436859,1.388995 Z m -4.66117,1.377283 11.37591,11.288499 3.360151,3.308963 -5.923541,5.688474 -0.0157,-0.01637 -2.98545,2.890378 3.93614,3.905496 7.514641,-7.51429 2.3137,2.313348 -9.819631,9.819629 -11.24671,-11.160696 -3.49109,-3.436766 5.92528,-5.688824 0.0157,0.01637 2.98544,-2.889683 -3.93579,-3.90619 -7.51637,7.516379 -2.3137,-2.315438 z m 6.25506,10.840316 -6.50928,6.300679 0.67141,0.66618 3.08226,3.03664 6.50962,-6.300679 -0.82428,-0.818012 z"
         style="fill:#000000;fill-opacity:0.49019608;stroke:none;stroke-width:0.38631254;stroke-miterlimit:4;stroke-dasharray:none;stroke-opacity:1" /><path
         inkscape:connector-curvature="0"
         id="path287"
         d="m 115.51275,39.58811 -2.16288,2.163271 3.32459,3.324204 2.16288,-2.162497 z"
         style="clip-rule:nonzero;fill:#000000;fill-opacity:0.49019608;fill-rule:nonzero;stroke:none;stroke-width:0;stroke-miterlimit:4" /><path
         inkscape:connector-curvature="0"
         id="path289"
         d="m 66.915309,-9.007389 -2.16249,2.162885 3.41571,3.41494 2.1625,-2.162498 z"
         style="clip-rule:nonzero;fill:#000000;fill-opacity:0.49019608;fill-rule:nonzero;stroke:none;stroke-width:0;stroke-miterlimit:4" /><path
         inkscape:connector-curvature="0"
         style="clip-rule:nonzero;fill:#000000;fill-opacity:0.49019608;fill-rule:nonzero;stroke:none;stroke-width:0;stroke-miterlimit:4"
         d="m 434.42969,200.57812 10.04883,48.32813 h 31.82421 0.002 l 11.70312,-47.87695 c -8.3014,1.9685 -16.95768,3.01758 -25.86133,3.01758 -9.56767,0 -18.85423,-1.20591 -27.71679,-3.46876 z"
         transform="scale(0.19852939)"
         id="path291" /><path
         inkscape:connector-curvature="0"
         style="clip-rule:nonzero;fill:#000000;fill-opacity:0.49019608;fill-rule:nonzero;stroke:none;stroke-width:0;stroke-miterlimit:4"
         d="m 354.44141,62.785156 -49.3125,10.251953 v 31.826171 0.002 l 47.97656,11.72461 c -1.72457,-7.79904 -2.64063,-15.90258 -2.64063,-24.220699 0,-10.244203 1.3932,-20.160515 3.97657,-29.583985 z"
         transform="scale(0.19852939)"
         id="path293" /><path
         inkscape:connector-curvature="0"
         style="clip-rule:nonzero;fill:#000000;fill-opacity:0.49019608;fill-rule:nonzero;stroke:none;stroke-width:0;stroke-miterlimit:4"
         d="m 365.91016,149.05664 -27.75586,42.33203 22.5039,22.5 43.21289,-26.23633 c -15.59394,-9.55627 -28.65594,-22.83348 -37.96093,-38.5957 z"
         transform="scale(0.19852939)"
         id="path295" /><path
         inkscape:connector-curvature="0"
         style="clip-rule:nonzero;fill:#000000;fill-opacity:0.49019608;fill-rule:nonzero;stroke:none;stroke-width:0;stroke-miterlimit:4"
         d="m 558.25391,149.25195 c -9.32397,15.72083 -22.3887,28.95572 -37.97657,38.47852 l 41.82032,27.42187 22.50781,-22.50976 z"
         transform="scale(0.19852939)"
         id="path297" /><path
         inkscape:connector-curvature="0"
         style="clip-rule:nonzero;fill:#000000;fill-opacity:0.49019608;fill-rule:nonzero;stroke:none;stroke-width:0;stroke-miterlimit:4"
         d="m 362.64844,-32.556641 -22.50391,22.503907 26.75195,44.0625 0.0762,-0.07617 c 9.35079,-15.191932 22.23396,-27.9742017 37.50976,-37.2031252 l 1.12696,-1.1171876 z"
         transform="scale(0.19852939)"
         id="path299" /><path
         inkscape:connector-curvature="0"
         id="path301"
         d="m 91.749489,37.698142 c -10.69216,0 -19.36005,-8.667465 -19.36005,-19.360059 0,-8.250649 5.16348,-15.291295 12.43297,-18.077787 l -0.60866,-2.778319 c -8.53498,3.085014 -14.63618,11.256946 -14.63618,20.856106 0,12.245855 9.9265,22.17107 22.17192,22.17107 9.552281,0 17.692811,-6.040555 20.811381,-14.509722 l -2.72713,-0.751036 c -2.78305,7.278946 -9.82757,12.449747 -18.084251,12.449747 z"
         style="clip-rule:nonzero;fill:#000000;fill-opacity:0.49019608;fill-rule:nonzero;stroke:none;stroke-width:0;stroke-miterlimit:4" /><path
         inkscape:connector-curvature="0"
         id="path303"
         d="m 91.712929,39.352487 c -11.58687,0 -20.9787,-9.392693 -20.9787,-20.978702 0,-8.938884 5.59363,-16.56711 13.4692,-19.588463 -0.0804,-0.367345 -0.15615,-0.714904 -0.19873,-0.90632 -8.46702,3.207176 -14.13807,11.380829 -14.13807,20.459081 0,12.066053 9.81595,21.882011 21.88286,21.882011 9.025351,0 17.185241,-5.627183 20.419091,-14.029247 -0.18325,-0.05033 -0.52693,-0.14539 -0.89041,-0.245184 -3.03813,7.842443 -10.65044,13.406824 -19.564811,13.406824 z"
         style="clip-rule:nonzero;fill:none;fill-rule:nonzero;stroke:none;stroke-width:0;stroke-miterlimit:4" /></g><path
       inkscape:connector-curvature="0"
       id="path4249"
       d="m 50.724819,30.734592 a 17.097738,17.097738 0 0 0 -17.09746,17.097813 17.097738,17.097738 0 0 0 17.09746,17.097814 17.097738,17.097738 0 0 0 17.09781,-17.097814 17.097738,17.097738 0 0 0 -17.09781,-17.097813 z m -4.66117,1.377283 11.37591,11.288499 3.36015,3.308963 -5.92354,5.688474 -0.0157,-0.01637 -2.98545,2.890378 3.93614,3.905496 7.51464,-7.51429 2.3137,2.313348 -9.81963,9.819629 -11.24671,-11.160696 -3.49109,-3.436766 5.92528,-5.688824 0.0157,0.01637 2.98544,-2.889683 -3.93579,-3.90619 -7.51637,7.516379 -2.3137,-2.315438 z m 6.25506,10.840316 -6.50928,6.300679 0.67141,0.66618 3.08226,3.03664 6.50962,-6.300679 -0.82428,-0.818012 z"
       style="fill:#ffffff;fill-opacity:1;stroke:none;stroke-width:0.38631254;stroke-miterlimit:4;stroke-dasharray:none;stroke-opacity:1" /><path
       inkscape:connector-curvature="0"
       id="path198"
       d="m 74.800709,68.933707 -2.16288,2.163271 3.32459,3.324204 2.16288,-2.162497 z"
       style="clip-rule:nonzero;fill:#ffffff;fill-opacity:1;fill-rule:nonzero;stroke:none;stroke-width:0;stroke-miterlimit:4" /><path
       inkscape:connector-curvature="0"
       id="path214"
       d="m 26.203269,20.338208 -2.16249,2.162885 3.41571,3.41494 2.1625,-2.162498 z"
       style="clip-rule:nonzero;fill:#ffffff;fill-opacity:1;fill-rule:nonzero;stroke:none;stroke-width:0;stroke-miterlimit:4" /><path
       inkscape:connector-curvature="0"
       id="path228"
       d="m 53.848029,78.760943 h -6.31799 l -2.07632,-9.985862 10.82507,0.04387 -2.43033,9.941987 z"
       style="clip-rule:nonzero;fill:#ffffff;fill-opacity:1;fill-rule:nonzero;stroke:none;stroke-width:0;stroke-miterlimit:4" /><path
       inkscape:connector-curvature="0"
       id="path259"
       d="m 19.865129,50.163908 v -6.318429 l 9.985,-2.07589 -0.0443,10.824219 -9.9407,-2.42947 z"
       style="clip-rule:nonzero;fill:#ffffff;fill-opacity:1;fill-rule:nonzero;stroke:none;stroke-width:0;stroke-miterlimit:4" /><path
       inkscape:connector-curvature="0"
       id="path290"
       d="m 30.889369,71.808907 -4.46794,-4.467076 5.59277,-8.529818 7.6235,7.685439 z"
       style="clip-rule:nonzero;fill:#ffffff;fill-opacity:1;fill-rule:nonzero;stroke:none;stroke-width:0;stroke-miterlimit:4" /><path
       inkscape:connector-curvature="0"
       id="path321"
       d="m 75.349369,67.590886 -4.46837,4.468797 -8.52896,-5.592771 7.68544,-7.622638 z"
       style="clip-rule:nonzero;fill:#ffffff;fill-opacity:1;fill-rule:nonzero;stroke:none;stroke-width:0;stroke-miterlimit:4" /><path
       inkscape:connector-curvature="0"
       id="path352"
       d="m 26.816739,27.349772 4.4675,-4.467506 8.52896,5.592341 -7.68544,7.623064 z"
       style="clip-rule:nonzero;fill:#ffffff;fill-opacity:1;fill-rule:nonzero;stroke:none;stroke-width:0;stroke-miterlimit:4" /><path
       inkscape:connector-curvature="0"
       id="path383"
       d="m 51.037449,67.043739 c -10.69216,0 -19.36005,-8.667465 -19.36005,-19.360059 0,-8.250649 5.16348,-15.291295 12.43297,-18.077787 l -0.60866,-2.778319 c -8.53498,3.085014 -14.63618,11.256946 -14.63618,20.856106 0,12.245855 9.9265,22.17107 22.17192,22.17107 9.55228,0 17.69281,-6.040555 20.81138,-14.509722 l -2.72713,-0.751036 c -2.78305,7.278946 -9.82757,12.449747 -18.08425,12.449747 z"
       style="clip-rule:nonzero;fill:#ffffff;fill-opacity:1;fill-rule:nonzero;stroke:none;stroke-width:0;stroke-miterlimit:4" /><path
       inkscape:connector-curvature="0"
       id="path385"
       d="m 51.000889,68.698084 c -11.58687,0 -20.9787,-9.392693 -20.9787,-20.978702 0,-8.938884 5.59363,-16.56711 13.4692,-19.588463 -0.0804,-0.367345 -0.15615,-0.714904 -0.19873,-0.90632 -8.46702,3.207176 -14.13807,11.380829 -14.13807,20.459081 0,12.066053 9.81595,21.882011 21.88286,21.882011 9.02535,0 17.18524,-5.627183 20.41909,-14.029247 -0.18325,-0.05033 -0.52693,-0.14539 -0.89041,-0.245184 -3.03813,7.842443 -10.65044,13.406824 -19.56481,13.406824 z"
       style="clip-rule:nonzero;fill:none;fill-rule:nonzero;stroke:none;stroke-width:0;stroke-miterlimit:4" /></g></svg>