<?xml version="1.0" encoding="UTF-8" standalone="no"?>
<!-- Generator: flash2svg, http://dissentgraphics.com/tools/flash2svg -->

<svg
   xmlns:dc="http://purl.org/dc/elements/1.1/"
   xmlns:cc="http://creativecommons.org/ns#"
   xmlns:rdf="http://www.w3.org/1999/02/22-rdf-syntax-ns#"
   xmlns:svg="http://www.w3.org/2000/svg"
   xmlns="http://www.w3.org/2000/svg"
   xmlns:sodipodi="http://sodipodi.sourceforge.net/DTD/sodipodi-0.dtd"
   xmlns:inkscape="http://www.inkscape.org/namespaces/inkscape"
   id="Mplayer"
   version="1.1"
   x="0px"
   y="0px"
   width="512"
   height="512"
   viewBox="0 0 512 512"
   enable-background="new 0 0 1024 1024"
   inkscape:version="0.92.3 (2405546, 2018-03-11)"
   sodipodi:docname="kmplayer.svg"
   style="image-rendering:optimizeSpeed">
  <metadata
     id="metadata26">
    <rdf:RDF>
      <cc:Work
         rdf:about="">
        <dc:format>image/svg+xml</dc:format>
        <dc:type
           rdf:resource="http://purl.org/dc/dcmitype/StillImage" />
        <dc:title></dc:title>
      </cc:Work>
    </rdf:RDF>
  </metadata>
  <sodipodi:namedview
     pagecolor="#ffffff"
     bordercolor="#666666"
     borderopacity="1"
     objecttolerance="10"
     gridtolerance="10"
     guidetolerance="10"
     inkscape:pageopacity="0"
     inkscape:pageshadow="2"
     inkscape:window-width="1366"
     inkscape:window-height="718"
     id="namedview24"
     showgrid="false"
     inkscape:zoom="0.32593203"
     inkscape:cx="332.5217"
     inkscape:cy="301.71992"
     inkscape:window-x="0"
     inkscape:window-y="25"
     inkscape:window-maximized="1"
     inkscape:current-layer="Mplayer" />
  <defs
     transform="matrix(1 0 0 1 0 0) "
     id="defs3" />
  <g
     transform="translate(-3.2369456e-7,-3e-6)"
     style="image-rendering:optimizeSpeed"
     id="g884">
    <path
       id="path1148"
       d="m 432.9132,56.47396 c 102.1931,88.57459 105.82677,249.69971 8.11688,359.89879 C 343.32022,526.57183 181.27977,544.10063 79.086636,455.52601 -23.106121,366.95142 -26.740136,205.82631 70.970101,95.62722 168.67996,-14.57186 330.72041,-32.10063 432.9132,56.47396 Z"
       inkscape:connector-curvature="0"
       style="fill:#3689e6;fill-opacity:1;stroke-width:11.10955811" />
    <path
       id="path1150"
       d="M 511.63547,224.90351 C 510.08431,286.21516 486.4744,349.05812 440.66917,400.71799 342.95931,510.91713 180.91883,528.44583 78.725691,439.87128 30.826982,398.35563 4.4969029,340.92284 0.19391075,280.2288 0.79901312,346.58548 27.117376,410.48217 79.078699,455.51906 181.27146,544.09363 343.31984,526.55623 441.02218,416.36576 490.72712,360.30766 514.02715,291.0748 511.63547,224.90351 Z"
       inkscape:connector-curvature="0"
       style="opacity:1;fill:#000000;fill-opacity:0.49019608;stroke-width:11.10955811" />
    <g
       style="fill:#000000;fill-opacity:0.49019608"
       transform="translate(20.000364,20.000001)"
       id="g864">
      <path
         style="fill:#000000;fill-opacity:0.49019608;stroke-width:0.69336349"
         inkscape:connector-curvature="0"
         d="m 344.85321,102.1018 q -5.587,-3.202077 -11.77568,-1.52582 l -174.14236,46.65575 206.28908,13.38855 -13.17241,-49.14865 c -1.09592,-4.10468 -3.50262,-7.22079 -7.19863,-9.36983 z M 159.94513,400.4751 c 1.0959,4.12616 3.50262,7.26377 7.19862,9.4343 3.7175,2.12755 7.64989,2.62184 11.75419,1.52583 l 176.8714,-47.37568 -208.91068,-12.44296 z"
         id="path850" />
      <path
         inkscape:connector-curvature="0"
         id="path852"
         d="m 158.93538,147.23204 -47.42564,12.70036 c -4.10429,1.09601 -7.24176,3.50352 -9.36913,7.22135 -2.170325,3.71786 -2.685752,7.6288 -1.56834,11.73348 l 46.28697,172.72843 0.8496,0.0508 c -0.001,-0.0856 -0.0117,-0.16779 -0.0117,-0.25393 V 160.57699 c 0,-3.54592 1.26709,-6.59776 3.78124,-9.11215 2.51414,-2.51437 5.5657,-3.78159 9.11129,-3.78159 h 5.29882 z m 205.36463,13.32737 c 1e-5,0.006 0,0.0116 0,0.0176 v 190.83553 c 0,3.54592 -1.26709,6.59776 -3.78124,9.11215 -1.78626,1.78643 -3.84888,2.93114 -6.16209,3.45148 l 1.41211,0.084 44.71862,-11.98155 c 4.10429,-1.09602 7.24175,-3.5035 9.3906,-7.22135 2.12735,-3.71783 2.66426,-7.65029 1.56835,-11.77645 L 365.22384,160.61997 Z"
         style="fill:#000000;fill-opacity:0.49019608;stroke-width:0.69336349" />
      <g
         style="fill:#000000;fill-opacity:0.49019608"
         transform="matrix(0.42976893,0,0,0.42980885,35.935296,35.911242)"
         id="g856">
        <g
           style="fill:#000000;fill-opacity:0.49019608"
           id="g854" />
      </g>
      <g
         style="fill:#000000;fill-opacity:0.49019608"
         transform="matrix(0.42976893,0,0,0.42980885,35.935296,35.911242)"
         id="g862">
        <g
           style="fill:#000000;fill-opacity:0.49019608"
           id="g860">
          <path
             style="fill:#000000;fill-opacity:0.49019608"
             inkscape:connector-curvature="0"
             d="m 455.9,395.95 q -7.55,-5.25 -16.6,-4.1 c -6.05,0.75 -11.05,3.4 -15.1,7.95 -4.05,4.55 -6.1,9.9 -6.1,16 v 192.5 c 0,6.1 2.05,11.45 6.1,16 4.05,4.55 9.05,7.2 15.1,7.95 6.05,0.75 11.55,-0.65 16.6,-4.1 L 595.55,531.9 c 4.45,-3.05 7.5,-7.15 9.2,-12.2 1.7,-5.1 1.7,-10.2 0,-15.25 -1.7,-5.05 -4.75,-9.15 -9.15,-12.25 z"
             id="path858" />
        </g>
      </g>
    </g>
    <g
       id="g848">
      <path
         id="path2"
         d="m 344.85321,102.1018 q -5.587,-3.202077 -11.77568,-1.52582 l -174.14236,46.65575 206.28908,13.38855 -13.17241,-49.14865 c -1.09592,-4.10468 -3.50262,-7.22079 -7.19863,-9.36983 z M 159.94513,400.4751 c 1.0959,4.12616 3.50262,7.26377 7.19862,9.4343 3.7175,2.12755 7.64989,2.62184 11.75419,1.52583 l 176.8714,-47.37568 -208.91068,-12.44296 z"
         inkscape:connector-curvature="0"
         style="fill:#ffffff;fill-opacity:1;stroke-width:0.69336349" />
      <path
         style="fill:#ffffff;fill-opacity:1;stroke-width:0.69336349"
         d="m 158.93538,147.23204 -47.42564,12.70036 c -4.10429,1.09601 -7.24176,3.50352 -9.36913,7.22135 -2.170325,3.71786 -2.685752,7.6288 -1.56834,11.73348 l 46.28697,172.72843 0.8496,0.0508 c -0.001,-0.0856 -0.0117,-0.16779 -0.0117,-0.25393 V 160.57699 c 0,-3.54592 1.26709,-6.59776 3.78124,-9.11215 2.51414,-2.51437 5.5657,-3.78159 9.11129,-3.78159 h 5.29882 z m 205.36463,13.32737 c 1e-5,0.006 0,0.0116 0,0.0176 v 190.83553 c 0,3.54592 -1.26709,6.59776 -3.78124,9.11215 -1.78626,1.78643 -3.84888,2.93114 -6.16209,3.45148 l 1.41211,0.084 44.71862,-11.98155 c 4.10429,-1.09602 7.24175,-3.5035 9.3906,-7.22135 2.12735,-3.71783 2.66426,-7.65029 1.56835,-11.77645 L 365.22384,160.61997 Z"
         id="path3"
         inkscape:connector-curvature="0" />
      <g
         id="Calque.__207"
         transform="matrix(0.42976893,0,0,0.42980885,35.935296,35.911242)">
        <g
           id="shape10" />
      </g>
      <g
         id="Calque.__209"
         transform="matrix(0.42976893,0,0,0.42980885,35.935296,35.911242)"
         style="fill:#ffffff">
        <g
           id="shape14"
           style="fill:#ffffff">
          <path
             id="path8"
             d="m 455.9,395.95 q -7.55,-5.25 -16.6,-4.1 c -6.05,0.75 -11.05,3.4 -15.1,7.95 -4.05,4.55 -6.1,9.9 -6.1,16 v 192.5 c 0,6.1 2.05,11.45 6.1,16 4.05,4.55 9.05,7.2 15.1,7.95 6.05,0.75 11.55,-0.65 16.6,-4.1 L 595.55,531.9 c 4.45,-3.05 7.5,-7.15 9.2,-12.2 1.7,-5.1 1.7,-10.2 0,-15.25 -1.7,-5.05 -4.75,-9.15 -9.15,-12.25 z"
             inkscape:connector-curvature="0"
             style="fill:#ffffff;fill-opacity:1" />
        </g>
      </g>
    </g>
  </g>
</svg>
