<?xml version="1.0" encoding="UTF-8" standalone="no"?>
<!-- Created with Inkscape (http://www.inkscape.org/) -->

<svg
   xmlns:dc="http://purl.org/dc/elements/1.1/"
   xmlns:cc="http://creativecommons.org/ns#"
   xmlns:rdf="http://www.w3.org/1999/02/22-rdf-syntax-ns#"
   xmlns:svg="http://www.w3.org/2000/svg"
   xmlns="http://www.w3.org/2000/svg"
   xmlns:sodipodi="http://sodipodi.sourceforge.net/DTD/sodipodi-0.dtd"
   xmlns:inkscape="http://www.inkscape.org/namespaces/inkscape"
   id="svg2"
   version="1.1"
   inkscape:version="0.92.3 (2405546, 2018-03-11)"
   width="512"
   height="512"
   sodipodi:docname="kobo-icon.svg"
   viewBox="0 0 512 512">
  <metadata
     id="metadata8">
    <rdf:RDF>
      <cc:Work
         rdf:about="">
        <dc:format>image/svg+xml</dc:format>
        <dc:type
           rdf:resource="http://purl.org/dc/dcmitype/StillImage" />
        <dc:title />
      </cc:Work>
    </rdf:RDF>
  </metadata>
  <defs
     id="defs6" />
  <sodipodi:namedview
     pagecolor="#ffffff"
     bordercolor="#666666"
     borderopacity="1"
     objecttolerance="10"
     gridtolerance="10"
     guidetolerance="10"
     inkscape:pageopacity="0"
     inkscape:pageshadow="2"
     inkscape:window-width="1366"
     inkscape:window-height="718"
     id="namedview4"
     showgrid="false"
     inkscape:zoom="0.39111328"
     inkscape:cx="114.08737"
     inkscape:cy="293.68137"
     inkscape:window-x="0"
     inkscape:window-y="25"
     inkscape:window-maximized="1"
     inkscape:current-layer="svg2"
     inkscape:document-units="px" />
  <g
     id="g894">
    <path
       style="fill:#3689e6;fill-opacity:1;stroke-width:11.10955811"
       inkscape:connector-curvature="0"
       d="m 432.91327,56.47397 c 102.19291,88.57459 105.82678,249.6997 8.1168,359.89878 C 343.3201,526.57184 181.27964,544.10061 79.086729,455.52602 -23.106186,366.95143 -26.740042,205.82631 70.969928,95.62723 168.6799,-14.57185 330.72036,-32.10062 432.91327,56.47397 Z"
       id="path27" />
    <path
       style="opacity:1;fill:#000000;fill-opacity:0.49019608;stroke-width:11.10955811"
       inkscape:connector-curvature="0"
       d="M 511.63551,224.90351 C 510.08412,286.21516 486.47428,349.05812 440.66913,400.71799 342.95915,510.91711 180.91869,528.44584 78.725776,439.87129 30.827124,398.35563 4.4968216,340.92284 0.1938277,280.2288 0.79907936,346.58548 27.117411,410.48217 79.078682,455.51906 181.27159,544.09361 343.31975,526.55619 441.02202,416.36576 490.72697,360.30766 514.02704,291.0748 511.63551,224.90351 Z"
       id="path51" />
    <g
       style="fill:#000000;fill-opacity:0.49019608"
       transform="translate(20.000057,20)"
       id="g872">
      <path
         sodipodi:nodetypes="ccccccccccc"
         inkscape:connector-curvature="0"
         id="path856"
         d="m 196.81606,410 4.96584,-36.31721 c 0,0 64.68168,-80.08982 85.82514,-94.41114 9.58818,-5.58747 18.66915,-6.04312 28.74761,-1.87213 -4.52641,-9.11754 -6.63149,-20.3081 -3.53511,-28.44486 7.14008,-17.98851 44.98577,-60.86707 44.98577,-60.86707 l 16.81693,13.91341 -39.8297,47.48102 c -8.20911,10.62534 -12.10561,21.74055 -2.87725,40.95007 -23.48761,-2.1998 -31.60348,-2.57052 -46.7784,13.81676 z"
         style="fill:#000000;fill-opacity:0.49019608;fill-rule:evenodd;stroke:none;stroke-width:0.65346384px;stroke-linecap:butt;stroke-linejoin:miter;stroke-opacity:1" />
      <rect
         transform="rotate(-49.925917)"
         ry="0"
         y="394.62418"
         x="93.76619"
         height="21.848083"
         width="21.848083"
         id="rect858"
         style="fill:#000000;fill-opacity:0.49019608;stroke:none;stroke-width:26.13855362;stroke-miterlimit:4;stroke-dasharray:none;stroke-opacity:1" />
      <rect
         transform="rotate(-49.925917)"
         ry="0"
         y="394.61176"
         x="123.10828"
         height="21.848083"
         width="21.848083"
         id="rect860"
         style="fill:#000000;fill-opacity:0.49019608;stroke:none;stroke-width:26.13855362;stroke-miterlimit:4;stroke-dasharray:none;stroke-opacity:1" />
      <g
         id="g870"
         style="font-style:normal;font-weight:normal;font-size:75.1862793px;line-height:125%;font-family:sans-serif;letter-spacing:0px;word-spacing:0px;fill:#000000;fill-opacity:0.49019608;stroke:none;stroke-width:1px;stroke-linecap:butt;stroke-linejoin:miter;stroke-opacity:1"
         transform="matrix(1.1157828,-1.3262517,1.5406246,1.2961359,-2069.235,-440.15841)">
        <path
           id="path862"
           style="font-style:normal;font-variant:normal;font-weight:bold;font-stretch:normal;font-family:Lato;-inkscape-font-specification:'Lato Bold';fill:#000000;fill-opacity:0.49019608"
           d="m 498.05937,1054.0332 v 31.9918 h 1.72928 q 0.93983,0 1.46614,-0.2256 0.56389,-0.2632 1.12779,-1.015 l 9.58625,-11.8419 q 0.60149,-0.7894 1.31576,-1.2029 0.75186,-0.4136 1.91725,-0.4136 h 8.49605 l -11.99221,14.323 q -1.27817,1.6917 -2.78189,2.5939 0.78945,0.5639 1.39094,1.3158 0.63909,0.7519 1.20298,1.6165 l 12.85686,18.7214 h -8.38327 q -1.0902,0 -1.87966,-0.3383 -0.78946,-0.376 -1.31576,-1.3158 l -9.8494,-14.6237 q -0.52631,-0.8647 -1.0902,-1.1278 -0.5639,-0.2632 -1.6917,-0.2632 h -2.10521 v 17.6688 h -9.28551 v -55.8634 z"
           inkscape:connector-curvature="0" />
        <path
           id="path864"
           style="font-style:normal;font-variant:normal;font-weight:bold;font-stretch:normal;font-family:Lato;-inkscape-font-specification:'Lato Bold';fill:#000000;fill-opacity:0.49019608"
           d="m 544.16853,1070.7245 q 4.28562,0 7.78178,1.391 3.53375,1.3909 6.0149,3.9473 2.51874,2.5563 3.8721,6.2404 1.35335,3.6842 1.35335,8.2329 0,4.5864 -1.35335,8.2705 -1.35336,3.6841 -3.8721,6.2781 -2.48115,2.5939 -6.0149,3.9848 -3.49616,1.391 -7.78178,1.391 -4.32321,0 -7.85697,-1.391 -3.53375,-1.3909 -6.05249,-3.9848 -2.48115,-2.594 -3.8721,-6.2781 -1.35335,-3.6841 -1.35335,-8.2705 0,-4.5487 1.35335,-8.2329 1.39095,-3.6841 3.8721,-6.2404 2.51874,-2.5564 6.05249,-3.9473 3.53376,-1.391 7.85697,-1.391 z m 0,32.5933 q 4.81192,0 7.1051,-3.233 2.33078,-3.233 2.33078,-9.4735 0,-6.2404 -2.33078,-9.511 -2.29318,-3.2707 -7.1051,-3.2707 -4.88711,0 -7.25548,3.3082 -2.33077,3.2706 -2.33077,9.4735 0,6.2029 2.33077,9.4735 2.36837,3.233 7.25548,3.233 z"
           inkscape:connector-curvature="0" />
        <path
           id="path866"
           style="font-style:normal;font-variant:normal;font-weight:bold;font-stretch:normal;font-family:Lato;-inkscape-font-specification:'Lato Bold';fill:#000000;fill-opacity:0.49019608"
           d="m 570.27461,1109.8966 v -55.8634 h 9.28551 v 22.0672 q 2.33077,-2.4812 5.15026,-3.9097 2.85707,-1.4662 6.50361,-1.4662 3.34579,0 6.0149,1.3158 2.70671,1.3158 4.58636,3.7969 1.91726,2.4436 2.93227,5.9397 1.01501,3.4962 1.01501,7.857 0,4.6991 -1.16538,8.5336 -1.16539,3.8345 -3.34579,6.5788 -2.14281,2.7067 -5.18786,4.2105 -3.04504,1.5037 -6.76676,1.5037 -1.80447,0 -3.3082,-0.3759 -1.46613,-0.3384 -2.7067,-0.9775 -1.20298,-0.639 -2.25559,-1.5413 -1.01502,-0.9398 -1.95484,-2.0676 l -0.41353,2.5939 q -0.22556,0.9774 -0.78946,1.391 -0.5263,0.4135 -1.46613,0.4135 z m 17.74396,-31.9542 q -2.66911,0 -4.66155,1.2406 -1.99243,1.203 -3.7969,3.421 v 17.2928 q 1.57891,1.9549 3.42097,2.7443 1.87966,0.7519 3.94728,0.7519 2.14281,0 3.8345,-0.7519 1.72929,-0.7894 2.93227,-2.4059 1.20298,-1.6541 1.84206,-4.1729 0.63908,-2.5563 0.63908,-6.0901 0,-6.3532 -2.10521,-9.1727 -2.10522,-2.8571 -6.0525,-2.8571 z"
           inkscape:connector-curvature="0" />
        <path
           id="path868"
           style="font-style:normal;font-variant:normal;font-weight:bold;font-stretch:normal;font-family:Lato;-inkscape-font-specification:'Lato Bold';fill:#000000;fill-opacity:0.49019608"
           d="m 630.07473,1070.7245 q 4.28562,0 7.78178,1.391 3.53376,1.3909 6.0149,3.9473 2.51874,2.5563 3.8721,6.2404 1.35335,3.6842 1.35335,8.2329 0,4.5864 -1.35335,8.2705 -1.35336,3.6841 -3.8721,6.2781 -2.48114,2.5939 -6.0149,3.9848 -3.49616,1.391 -7.78178,1.391 -4.32321,0 -7.85697,-1.391 -3.53375,-1.3909 -6.05249,-3.9848 -2.48115,-2.594 -3.8721,-6.2781 -1.35335,-3.6841 -1.35335,-8.2705 0,-4.5487 1.35335,-8.2329 1.39095,-3.6841 3.8721,-6.2404 2.51874,-2.5564 6.05249,-3.9473 3.53376,-1.391 7.85697,-1.391 z m 0,32.5933 q 4.81192,0 7.1051,-3.233 2.33078,-3.233 2.33078,-9.4735 0,-6.2404 -2.33078,-9.511 -2.29318,-3.2707 -7.1051,-3.2707 -4.88711,0 -7.25548,3.3082 -2.33077,3.2706 -2.33077,9.4735 0,6.2029 2.33077,9.4735 2.36837,3.233 7.25548,3.233 z"
           inkscape:connector-curvature="0" />
      </g>
    </g>
    <g
       id="g854">
      <path
         style="fill:#ffffff;fill-opacity:1;fill-rule:evenodd;stroke:none;stroke-width:0.65346384px;stroke-linecap:butt;stroke-linejoin:miter;stroke-opacity:1"
         d="m 196.81606,410 4.96584,-36.31721 c 0,0 64.68168,-80.08982 85.82514,-94.41114 9.58818,-5.58747 18.66915,-6.04312 28.74761,-1.87213 -4.52641,-9.11754 -6.63149,-20.3081 -3.53511,-28.44486 7.14008,-17.98851 44.98577,-60.86707 44.98577,-60.86707 l 16.81693,13.91341 -39.8297,47.48102 c -8.20911,10.62534 -12.10561,21.74055 -2.87725,40.95007 -23.48761,-2.1998 -31.60348,-2.57052 -46.7784,13.81676 z"
         id="path3358"
         inkscape:connector-curvature="0"
         sodipodi:nodetypes="ccccccccccc" />
      <rect
         style="fill:#ffffff;fill-opacity:1;stroke:none;stroke-width:26.13855362;stroke-miterlimit:4;stroke-dasharray:none;stroke-opacity:1"
         id="rect3360"
         width="21.848083"
         height="21.848083"
         x="93.76619"
         y="394.62418"
         ry="0"
         transform="rotate(-49.925917)" />
      <rect
         style="fill:#ffffff;fill-opacity:1;stroke:none;stroke-width:26.13855362;stroke-miterlimit:4;stroke-dasharray:none;stroke-opacity:1"
         id="rect3360-3"
         width="21.848083"
         height="21.848083"
         x="123.10828"
         y="394.61176"
         ry="0"
         transform="rotate(-49.925917)" />
      <g
         transform="matrix(1.1157828,-1.3262517,1.5406246,1.2961359,-2069.235,-440.15841)"
         style="font-style:normal;font-weight:normal;font-size:75.1862793px;line-height:125%;font-family:sans-serif;letter-spacing:0px;word-spacing:0px;fill:#ffffff;fill-opacity:1;stroke:none;stroke-width:1px;stroke-linecap:butt;stroke-linejoin:miter;stroke-opacity:1"
         id="flowRoot4177">
        <path
           inkscape:connector-curvature="0"
           d="m 498.05937,1054.0332 v 31.9918 h 1.72928 q 0.93983,0 1.46614,-0.2256 0.56389,-0.2632 1.12779,-1.015 l 9.58625,-11.8419 q 0.60149,-0.7894 1.31576,-1.2029 0.75186,-0.4136 1.91725,-0.4136 h 8.49605 l -11.99221,14.323 q -1.27817,1.6917 -2.78189,2.5939 0.78945,0.5639 1.39094,1.3158 0.63909,0.7519 1.20298,1.6165 l 12.85686,18.7214 h -8.38327 q -1.0902,0 -1.87966,-0.3383 -0.78946,-0.376 -1.31576,-1.3158 l -9.8494,-14.6237 q -0.52631,-0.8647 -1.0902,-1.1278 -0.5639,-0.2632 -1.6917,-0.2632 h -2.10521 v 17.6688 h -9.28551 v -55.8634 z"
           style="font-style:normal;font-variant:normal;font-weight:bold;font-stretch:normal;font-family:Lato;-inkscape-font-specification:'Lato Bold';fill:#ffffff;fill-opacity:1"
           id="path4186" />
        <path
           inkscape:connector-curvature="0"
           d="m 544.16853,1070.7245 q 4.28562,0 7.78178,1.391 3.53375,1.3909 6.0149,3.9473 2.51874,2.5563 3.8721,6.2404 1.35335,3.6842 1.35335,8.2329 0,4.5864 -1.35335,8.2705 -1.35336,3.6841 -3.8721,6.2781 -2.48115,2.5939 -6.0149,3.9848 -3.49616,1.391 -7.78178,1.391 -4.32321,0 -7.85697,-1.391 -3.53375,-1.3909 -6.05249,-3.9848 -2.48115,-2.594 -3.8721,-6.2781 -1.35335,-3.6841 -1.35335,-8.2705 0,-4.5487 1.35335,-8.2329 1.39095,-3.6841 3.8721,-6.2404 2.51874,-2.5564 6.05249,-3.9473 3.53376,-1.391 7.85697,-1.391 z m 0,32.5933 q 4.81192,0 7.1051,-3.233 2.33078,-3.233 2.33078,-9.4735 0,-6.2404 -2.33078,-9.511 -2.29318,-3.2707 -7.1051,-3.2707 -4.88711,0 -7.25548,3.3082 -2.33077,3.2706 -2.33077,9.4735 0,6.2029 2.33077,9.4735 2.36837,3.233 7.25548,3.233 z"
           style="font-style:normal;font-variant:normal;font-weight:bold;font-stretch:normal;font-family:Lato;-inkscape-font-specification:'Lato Bold';fill:#ffffff;fill-opacity:1"
           id="path4188" />
        <path
           inkscape:connector-curvature="0"
           d="m 570.27461,1109.8966 v -55.8634 h 9.28551 v 22.0672 q 2.33077,-2.4812 5.15026,-3.9097 2.85707,-1.4662 6.50361,-1.4662 3.34579,0 6.0149,1.3158 2.70671,1.3158 4.58636,3.7969 1.91726,2.4436 2.93227,5.9397 1.01501,3.4962 1.01501,7.857 0,4.6991 -1.16538,8.5336 -1.16539,3.8345 -3.34579,6.5788 -2.14281,2.7067 -5.18786,4.2105 -3.04504,1.5037 -6.76676,1.5037 -1.80447,0 -3.3082,-0.3759 -1.46613,-0.3384 -2.7067,-0.9775 -1.20298,-0.639 -2.25559,-1.5413 -1.01502,-0.9398 -1.95484,-2.0676 l -0.41353,2.5939 q -0.22556,0.9774 -0.78946,1.391 -0.5263,0.4135 -1.46613,0.4135 z m 17.74396,-31.9542 q -2.66911,0 -4.66155,1.2406 -1.99243,1.203 -3.7969,3.421 v 17.2928 q 1.57891,1.9549 3.42097,2.7443 1.87966,0.7519 3.94728,0.7519 2.14281,0 3.8345,-0.7519 1.72929,-0.7894 2.93227,-2.4059 1.20298,-1.6541 1.84206,-4.1729 0.63908,-2.5563 0.63908,-6.0901 0,-6.3532 -2.10521,-9.1727 -2.10522,-2.8571 -6.0525,-2.8571 z"
           style="font-style:normal;font-variant:normal;font-weight:bold;font-stretch:normal;font-family:Lato;-inkscape-font-specification:'Lato Bold';fill:#ffffff;fill-opacity:1"
           id="path4190" />
        <path
           inkscape:connector-curvature="0"
           d="m 630.07473,1070.7245 q 4.28562,0 7.78178,1.391 3.53376,1.3909 6.0149,3.9473 2.51874,2.5563 3.8721,6.2404 1.35335,3.6842 1.35335,8.2329 0,4.5864 -1.35335,8.2705 -1.35336,3.6841 -3.8721,6.2781 -2.48114,2.5939 -6.0149,3.9848 -3.49616,1.391 -7.78178,1.391 -4.32321,0 -7.85697,-1.391 -3.53375,-1.3909 -6.05249,-3.9848 -2.48115,-2.594 -3.8721,-6.2781 -1.35335,-3.6841 -1.35335,-8.2705 0,-4.5487 1.35335,-8.2329 1.39095,-3.6841 3.8721,-6.2404 2.51874,-2.5564 6.05249,-3.9473 3.53376,-1.391 7.85697,-1.391 z m 0,32.5933 q 4.81192,0 7.1051,-3.233 2.33078,-3.233 2.33078,-9.4735 0,-6.2404 -2.33078,-9.511 -2.29318,-3.2707 -7.1051,-3.2707 -4.88711,0 -7.25548,3.3082 -2.33077,3.2706 -2.33077,9.4735 0,6.2029 2.33077,9.4735 2.36837,3.233 7.25548,3.233 z"
           style="font-style:normal;font-variant:normal;font-weight:bold;font-stretch:normal;font-family:Lato;-inkscape-font-specification:'Lato Bold';fill:#ffffff;fill-opacity:1"
           id="path4192" />
      </g>
    </g>
  </g>
</svg>
