<?xml version="1.0" encoding="UTF-8" standalone="no"?>
<svg
   xmlns:dc="http://purl.org/dc/elements/1.1/"
   xmlns:cc="http://creativecommons.org/ns#"
   xmlns:rdf="http://www.w3.org/1999/02/22-rdf-syntax-ns#"
   xmlns:svg="http://www.w3.org/2000/svg"
   xmlns="http://www.w3.org/2000/svg"
   xmlns:xlink="http://www.w3.org/1999/xlink"
   xmlns:sodipodi="http://sodipodi.sourceforge.net/DTD/sodipodi-0.dtd"
   xmlns:inkscape="http://www.inkscape.org/namespaces/inkscape"
   version="1.1"
   id="Layer_1"
   x="0px"
   y="0px"
   width="512"
   height="512"
   viewBox="0 0 512 512"
   enable-background="new 0 0 100 100"
   xml:space="preserve"
   inkscape:version="0.92.3 (2405546, 2018-03-11)"
   sodipodi:docname="krita.svg"><metadata
     id="metadata8"><rdf:RDF><cc:Work
         rdf:about=""><dc:format>image/svg+xml</dc:format><dc:type
           rdf:resource="http://purl.org/dc/dcmitype/StillImage" /><dc:title /></cc:Work></rdf:RDF></metadata><defs
     id="defs6"><linearGradient
       inkscape:collect="always"
       id="linearGradient4386"><stop
         style="stop-color:#181818;stop-opacity:1"
         offset="0"
         id="stop4382" /><stop
         style="stop-color:#948080;stop-opacity:0;"
         offset="1"
         id="stop4384" /></linearGradient><clipPath
       id="clipPath4275"
       clipPathUnits="userSpaceOnUse"><path
         inkscape:connector-curvature="0"
         id="path4277"
         d="m 63.727539,106.45411 v 26.70507 5.3418 16.02148 251.02344 h 40.578131 96.13672 100.43359 147.39648 V 258.14942 106.45411 H 189.76075 104.30567 Z"
         style="opacity:1;fill:#424242;fill-opacity:1;stroke:none;stroke-width:21.36363602;stroke-linecap:round;stroke-linejoin:round;stroke-miterlimit:4;stroke-dasharray:none;stroke-opacity:0.55" /></clipPath><linearGradient
       inkscape:collect="always"
       xlink:href="#linearGradient4386"
       id="linearGradient4388"
       x1="324.67004"
       y1="315.31784"
       x2="336.37381"
       y2="357.03873"
       gradientUnits="userSpaceOnUse" /><linearGradient
       inkscape:collect="always"
       xlink:href="#linearGradient4631"
       id="linearGradient4563"
       x1="58.282818"
       y1="-179.13919"
       x2="-7.8796997"
       y2="-10.216331"
       gradientUnits="userSpaceOnUse"
       gradientTransform="matrix(1.794138,0,0,1.794138,210.79113,432.74028)" /><linearGradient
       id="linearGradient4631"
       inkscape:collect="always"><stop
         id="stop4609"
         offset="0"
         style="stop-color:#f64747;stop-opacity:0.99607843" /><stop
         id="stop4611"
         offset="1"
         style="stop-color:#367bf0;stop-opacity:1" /></linearGradient><linearGradient
       gradientTransform="matrix(1.794138,0,0,1.794138,210.79115,432.74025)"
       inkscape:collect="always"
       xlink:href="#linearGradient4238"
       id="linearGradient4563-1"
       x1="102.96957"
       y1="-26.336702"
       x2="15.138878"
       y2="-96.771301"
       gradientUnits="userSpaceOnUse" /><linearGradient
       inkscape:collect="always"
       id="linearGradient4238"><stop
         style="stop-color:#26bcc2;stop-opacity:1"
         offset="0"
         id="stop4234" /><stop
         style="stop-color:#367bf0;stop-opacity:0"
         offset="1"
         id="stop4236" /></linearGradient><radialGradient
       inkscape:collect="always"
       xlink:href="#linearGradient4268"
       id="radialGradient4270"
       cx="76.651588"
       cy="-264.59363"
       fx="76.651588"
       fy="-264.59363"
       r="101.84946"
       gradientUnits="userSpaceOnUse"
       gradientTransform="matrix(2.1671355,-0.96024522,0.71427238,1.61201,520.59263,729.6068)" /><linearGradient
       id="linearGradient4268"
       inkscape:collect="always"><stop
         id="stop4264"
         offset="0"
         style="stop-color:#ffc831;stop-opacity:1" /><stop
         id="stop4266"
         offset="1"
         style="stop-color:#ffffff;stop-opacity:0" /></linearGradient><radialGradient
       inkscape:collect="always"
       xlink:href="#linearGradient4268"
       id="radialGradient4270-7"
       cx="76.651588"
       cy="-264.59363"
       fx="76.651588"
       fy="-264.59363"
       r="101.84946"
       gradientUnits="userSpaceOnUse"
       gradientTransform="matrix(2.1671355,-0.96024522,0.71427238,1.61201,520.59263,729.60679)" /><radialGradient
       inkscape:collect="always"
       xlink:href="#linearGradient4375"
       id="radialGradient4270-7-5"
       cx="-3.3760083"
       cy="-248.22444"
       fx="-3.3760083"
       fy="-248.22444"
       r="101.84946"
       gradientUnits="userSpaceOnUse"
       gradientTransform="matrix(0.70968886,-0.80745893,1.1645648,1.0235549,601.289,584.31975)" /><linearGradient
       inkscape:collect="always"
       id="linearGradient4375"><stop
         style="stop-color:#ba174e;stop-opacity:1"
         offset="0"
         id="stop4371" /><stop
         style="stop-color:#ffffff;stop-opacity:0"
         offset="1"
         id="stop4373" /></linearGradient></defs><sodipodi:namedview
     pagecolor="#ffffff"
     bordercolor="#666666"
     borderopacity="1"
     objecttolerance="10"
     gridtolerance="10"
     guidetolerance="10"
     inkscape:pageopacity="0"
     inkscape:pageshadow="2"
     inkscape:window-width="1366"
     inkscape:window-height="718"
     id="namedview4"
     showgrid="false"
     inkscape:zoom="0.4267578"
     inkscape:cx="312.46671"
     inkscape:cy="291.59437"
     inkscape:window-x="0"
     inkscape:window-y="25"
     inkscape:window-maximized="1"
     inkscape:current-layer="Layer_1" /><g
     id="g3344"
     transform="matrix(1.0698132,0,0,1.0698132,-189.19775,344.88864)" /><g
     id="g3346"
     transform="matrix(1.0698132,0,0,1.0698132,-189.19775,344.88864)" /><g
     id="g3348"
     transform="matrix(1.0698132,0,0,1.0698132,-189.19775,344.88864)" /><g
     id="g3350"
     transform="matrix(1.0698132,0,0,1.0698132,-189.19775,344.88864)" /><g
     id="g3352"
     transform="matrix(1.0698132,0,0,1.0698132,-189.19775,344.88864)" /><g
     id="g3354"
     transform="matrix(1.0698132,0,0,1.0698132,-189.19775,344.88864)" /><g
     id="g3356"
     transform="matrix(1.0698132,0,0,1.0698132,-189.19775,344.88864)" /><g
     id="g3358"
     transform="matrix(1.0698132,0,0,1.0698132,-189.19775,344.88864)" /><g
     id="g3360"
     transform="matrix(1.0698132,0,0,1.0698132,-189.19775,344.88864)" /><g
     id="g3362"
     transform="matrix(1.0698132,0,0,1.0698132,-189.19775,344.88864)" /><g
     id="g3364"
     transform="matrix(1.0698132,0,0,1.0698132,-189.19775,344.88864)" /><g
     id="g3366"
     transform="matrix(1.0698132,0,0,1.0698132,-189.19775,344.88864)" /><g
     id="g3368"
     transform="matrix(1.0698132,0,0,1.0698132,-189.19775,344.88864)" /><g
     id="g3370"
     transform="matrix(1.0698132,0,0,1.0698132,-189.19775,344.88864)" /><g
     id="g3372"
     transform="matrix(1.0698132,0,0,1.0698132,-189.19775,344.88864)" /><g
     transform="translate(-4.8630917e-6,4.8766728e-6)"
     id="g989"><g
       id="g863"
       transform="matrix(1.2238936,-0.80568327,0.68174078,1.1461066,-305.48193,158.41798)"><circle
         style="opacity:1;fill:url(#linearGradient4563);fill-opacity:1;stroke:none;stroke-width:5.34906626;stroke-linecap:round;stroke-miterlimit:4;stroke-dasharray:none;stroke-opacity:1"
         id="path4555"
         cx="295.59351"
         cy="292.93677"
         r="182.73198" /><circle
         style="opacity:1;fill:url(#linearGradient4563-1);fill-opacity:1;stroke:none;stroke-width:5.34906626;stroke-linecap:round;stroke-miterlimit:4;stroke-dasharray:none;stroke-opacity:1"
         id="path4555-0"
         cx="295.59351"
         cy="292.93677"
         r="182.73198" /><circle
         style="opacity:1;fill:url(#radialGradient4270);fill-opacity:1;stroke:none;stroke-width:5.34906626;stroke-linecap:round;stroke-miterlimit:4;stroke-dasharray:none;stroke-opacity:1"
         id="path4555-0-4"
         cx="295.59351"
         cy="292.93677"
         r="182.73198" /><circle
         style="opacity:1;fill:url(#radialGradient4270-7);fill-opacity:1;stroke:none;stroke-width:5.34906626;stroke-linecap:round;stroke-miterlimit:4;stroke-dasharray:none;stroke-opacity:1"
         id="path4555-0-4-3"
         cx="295.59351"
         cy="292.93677"
         r="182.73198" /><circle
         style="opacity:1;fill:url(#radialGradient4270-7-5);fill-opacity:1;stroke:none;stroke-width:5.34906626;stroke-linecap:round;stroke-miterlimit:4;stroke-dasharray:none;stroke-opacity:1"
         id="path4555-0-4-3-1"
         cx="295.59351"
         cy="292.93677"
         r="182.73198" /></g><path
       style="opacity:1;fill:#000000;fill-opacity:0.49019608;stroke-width:11.10955811"
       inkscape:connector-curvature="0"
       d="M 511.63547,224.90352 C 510.08409,286.21516 486.47425,349.05812 440.6691,400.71799 342.95915,510.91712 180.9187,528.44582 78.725758,439.87129 30.827128,398.35564 4.4968176,340.92284 0.19382759,280.22881 0.79907759,346.58548 27.117408,410.48218 79.078688,455.51911 181.2716,544.09362 343.31975,526.55622 441.02199,416.36577 490.72694,360.30766 514.02701,291.0748 511.63547,224.90352 Z"
       id="path959" /><path
       inkscape:connector-curvature="0"
       id="path83"
       d="m 279.01462,431.91544 c -43.42954,-3.10321 -82.17686,-25.42892 -106.13571,-61.15395 -12.59129,-18.77481 -20.25686,-39.94895 -22.80153,-62.98307 -0.62883,-5.69213 -0.63609,-23.99111 -0.0116,-29.05992 2.09735,-17.02159 6.34615,-31.5735 13.43856,-46.02648 6.14935,-12.53117 13.18029,-22.76546 23.18438,-33.74707 l 3.77662,-4.14568 -12.88379,-13.18197 c -30.07196,-30.7679 -46.4437,-49.35023 -50.37896,-57.18131 -1.38497,-2.75605 -1.51231,-3.52511 -0.69591,-4.20266 2.52409,-2.09482 18.01088,9.9652 44.02111,34.28054 8.53733,7.98101 31.25639,30.09368 31.16126,30.32954 -0.0591,0.14645 -1.56941,1.49595 -3.35633,2.99891 -1.78691,1.50295 -4.19398,3.69634 -5.34905,4.87419 l -2.10012,2.14155 22.67669,22.37112 c 24.02146,23.69783 37.35397,36.61702 52.64184,51.01009 5.16068,4.85858 17.27828,16.34257 26.92804,25.52002 l 17.54499,16.68634 0.21484,4.44231 c 0.4618,9.54913 3.2433,15.9777 9.50823,21.97513 3.56269,3.41067 5.82333,4.868 15.5976,10.05559 7.02547,3.72869 10.12755,5.83475 12.96792,8.80419 2.73474,2.85895 3.67467,4.7719 3.68539,7.50049 0.0189,4.81104 -4.6916,10.2884 -10.28036,11.95403 l -1.44397,0.43033 1.44397,0.20342 c 0.79418,0.11232 2.31107,0.0749 3.37087,-0.0817 7.15294,-1.05774 14.6067,-10.28636 17.62228,-21.81846 1.30332,-4.98417 1.37552,-11.37575 0.17229,-15.25226 -2.30747,-7.43423 -7.5668,-14.80741 -14.30189,-20.05038 -8.05164,-6.2678 -14.86745,-9.40765 -28.29323,-13.03423 -3.51814,-0.95029 -3.84345,-1.11911 -5.46006,-2.83262 -0.94546,-1.00214 -9.72126,-10.67539 -19.50177,-21.49613 -19.02473,-21.04809 -37.81127,-40.61572 -72.4794,-75.49268 l -21.04193,-21.16865 2.27033,-1.77779 c 10.71818,-8.39289 25.7264,-16.18816 40.43015,-20.99944 9.51556,-3.11363 16.4269,-4.63341 27.54081,-6.05616 7.00022,-0.89614 23.84824,-0.9052 31.04536,-0.0167 15.3415,1.89395 28.27046,5.51845 42.05561,11.78984 20.52558,9.33786 39.23776,24.48994 53.18275,43.06443 14.16387,18.86591 23.44979,41.94757 26.39281,65.6033 0.84574,6.79786 1.38845,18.00785 1.12728,23.28394 -0.97259,19.64739 -5.5625,37.59965 -14.02546,54.85688 -21.13936,43.10628 -62.51885,71.9664 -110.53796,77.09478 -3.75495,0.40106 -19.46161,0.73564 -22.92303,0.48819 z"
       style="fill:#000000;fill-opacity:0.49019608;stroke-width:0.36099249" /><path
       style="fill:#ffffff;stroke-width:0.36099249"
       d="m 259.01462,411.91542 c -43.42954,-3.10321 -82.17686,-25.42892 -106.13571,-61.15395 -12.59129,-18.77481 -20.25686,-39.94895 -22.80153,-62.98307 -0.62883,-5.69213 -0.63609,-23.99111 -0.0116,-29.05992 2.09735,-17.02159 6.34615,-31.5735 13.43856,-46.02648 6.14935,-12.53117 13.18029,-22.76546 23.18438,-33.74707 l 3.77662,-4.14568 -12.88379,-13.18197 c -30.07196,-30.7679 -46.4437,-49.35023 -50.37896,-57.18131 -1.38497,-2.75605 -1.51231,-3.52511 -0.69591,-4.20266 2.52409,-2.094815 18.01088,9.9652 44.02111,34.28054 8.53733,7.98101 31.25639,30.09368 31.16126,30.32954 -0.0591,0.14645 -1.56941,1.49595 -3.35633,2.99891 -1.78691,1.50295 -4.19398,3.69634 -5.34905,4.87419 l -2.10012,2.14155 22.67669,22.37112 c 24.02146,23.69783 37.35397,36.61702 52.64184,51.01009 5.16068,4.85858 17.27828,16.34257 26.92804,25.52002 l 17.54499,16.68634 0.21484,4.44231 c 0.4618,9.54913 3.2433,15.9777 9.50823,21.97513 3.56269,3.41067 5.82333,4.868 15.5976,10.05559 7.02547,3.72869 10.12755,5.83475 12.96792,8.80419 2.73474,2.85895 3.67467,4.7719 3.68539,7.50049 0.0189,4.81104 -4.6916,10.2884 -10.28036,11.95403 l -1.44397,0.43033 1.44397,0.20342 c 0.79418,0.11232 2.31107,0.0749 3.37087,-0.0817 7.15294,-1.05774 14.6067,-10.28636 17.62228,-21.81846 1.30332,-4.98417 1.37552,-11.37575 0.17229,-15.25226 -2.30747,-7.43423 -7.5668,-14.80741 -14.30189,-20.05038 -8.05164,-6.2678 -14.86745,-9.40765 -28.29323,-13.03423 -3.51814,-0.95029 -3.84345,-1.11911 -5.46006,-2.83262 -0.94546,-1.00214 -9.72126,-10.67539 -19.50177,-21.49613 -19.02473,-21.04809 -37.81127,-40.61572 -72.4794,-75.49268 l -21.04193,-21.16865 2.27033,-1.77779 c 10.71818,-8.39289 25.7264,-16.18816 40.43015,-20.99944 9.51556,-3.11363 16.4269,-4.63341 27.54081,-6.05616 7.00022,-0.89614 23.84824,-0.9052 31.04536,-0.0167 15.3415,1.89395 28.27046,5.51845 42.05561,11.78984 20.52558,9.33786 39.23776,24.48994 53.18275,43.06443 14.16387,18.86591 23.44979,41.94757 26.39281,65.6033 0.84574,6.79786 1.38845,18.00785 1.12728,23.28394 -0.97259,19.64739 -5.5625,37.59965 -14.02546,54.85688 -21.13936,43.10628 -62.51885,71.9664 -110.53796,77.09478 -3.75495,0.40106 -19.46161,0.73564 -22.92303,0.48819 z"
       id="path873"
       inkscape:connector-curvature="0" /></g></svg>