<?xml version="1.0" encoding="UTF-8" standalone="no"?>
<svg
   xmlns:dc="http://purl.org/dc/elements/1.1/"
   xmlns:cc="http://creativecommons.org/ns#"
   xmlns:rdf="http://www.w3.org/1999/02/22-rdf-syntax-ns#"
   xmlns:svg="http://www.w3.org/2000/svg"
   xmlns="http://www.w3.org/2000/svg"
   xmlns:xlink="http://www.w3.org/1999/xlink"
   xmlns:sodipodi="http://sodipodi.sourceforge.net/DTD/sodipodi-0.dtd"
   xmlns:inkscape="http://www.inkscape.org/namespaces/inkscape"
   version="1.1"
   id="Layer_1"
   x="0px"
   y="0px"
   width="512"
   height="512"
   viewBox="0 0 512 512"
   enable-background="new 0 0 100 100"
   xml:space="preserve"
   inkscape:version="0.92.3 (2405546, 2018-03-11)"
   sodipodi:docname="kruler.svg"><metadata
     id="metadata8"><rdf:RDF><cc:Work
         rdf:about=""><dc:format>image/svg+xml</dc:format><dc:type
           rdf:resource="http://purl.org/dc/dcmitype/StillImage" /><dc:title /></cc:Work></rdf:RDF></metadata><defs
     id="defs6"><linearGradient
       inkscape:collect="always"
       id="linearGradient4386"><stop
         style="stop-color:#181818;stop-opacity:1"
         offset="0"
         id="stop4382" /><stop
         style="stop-color:#948080;stop-opacity:0;"
         offset="1"
         id="stop4384" /></linearGradient><clipPath
       id="clipPath4275"
       clipPathUnits="userSpaceOnUse"><path
         inkscape:connector-curvature="0"
         id="path4277"
         d="m 63.727539,106.45411 v 26.70507 5.3418 16.02148 251.02344 h 40.578131 96.13672 100.43359 147.39648 V 258.14942 106.45411 H 189.76075 104.30567 Z"
         style="opacity:1;fill:#424242;fill-opacity:1;stroke:none;stroke-width:21.36363602;stroke-linecap:round;stroke-linejoin:round;stroke-miterlimit:4;stroke-dasharray:none;stroke-opacity:0.55" /></clipPath><linearGradient
       inkscape:collect="always"
       xlink:href="#linearGradient4386"
       id="linearGradient4388"
       x1="324.67004"
       y1="315.31784"
       x2="336.37381"
       y2="357.03873"
       gradientUnits="userSpaceOnUse" /></defs><sodipodi:namedview
     pagecolor="#ffffff"
     bordercolor="#666666"
     borderopacity="1"
     objecttolerance="10"
     gridtolerance="10"
     guidetolerance="10"
     inkscape:pageopacity="0"
     inkscape:pageshadow="2"
     inkscape:window-width="1366"
     inkscape:window-height="718"
     id="namedview4"
     showgrid="false"
     inkscape:zoom="0.4267578"
     inkscape:cx="223.912"
     inkscape:cy="345.8138"
     inkscape:window-x="0"
     inkscape:window-y="25"
     inkscape:window-maximized="1"
     inkscape:current-layer="Layer_1" /><g
     id="g3344"
     transform="matrix(1.0698132,0,0,1.0698132,-189.19775,344.88864)" /><g
     id="g3346"
     transform="matrix(1.0698132,0,0,1.0698132,-189.19775,344.88864)" /><g
     id="g3348"
     transform="matrix(1.0698132,0,0,1.0698132,-189.19775,344.88864)" /><g
     id="g3350"
     transform="matrix(1.0698132,0,0,1.0698132,-189.19775,344.88864)" /><g
     id="g3352"
     transform="matrix(1.0698132,0,0,1.0698132,-189.19775,344.88864)" /><g
     id="g3354"
     transform="matrix(1.0698132,0,0,1.0698132,-189.19775,344.88864)" /><g
     id="g3356"
     transform="matrix(1.0698132,0,0,1.0698132,-189.19775,344.88864)" /><g
     id="g3358"
     transform="matrix(1.0698132,0,0,1.0698132,-189.19775,344.88864)" /><g
     id="g3360"
     transform="matrix(1.0698132,0,0,1.0698132,-189.19775,344.88864)" /><g
     id="g3362"
     transform="matrix(1.0698132,0,0,1.0698132,-189.19775,344.88864)" /><g
     id="g3364"
     transform="matrix(1.0698132,0,0,1.0698132,-189.19775,344.88864)" /><g
     id="g3366"
     transform="matrix(1.0698132,0,0,1.0698132,-189.19775,344.88864)" /><g
     id="g3368"
     transform="matrix(1.0698132,0,0,1.0698132,-189.19775,344.88864)" /><g
     id="g3370"
     transform="matrix(1.0698132,0,0,1.0698132,-189.19775,344.88864)" /><g
     id="g3372"
     transform="matrix(1.0698132,0,0,1.0698132,-189.19775,344.88864)" /><g
     id="g887"
     transform="translate(1.8019307e-8,4.4994953e-6)"><path
       style="fill:#f37329;fill-opacity:1;stroke-width:11.10955811"
       inkscape:connector-curvature="0"
       d="m 432.91327,56.47398 c 102.19291,88.57459 105.82678,249.6997 8.1168,359.89879 C 343.3201,526.57187 181.27964,544.10057 79.086729,455.52603 -23.106186,366.95144 -26.740042,205.82632 70.969928,95.62724 168.6799,-14.57184 330.72036,-32.10061 432.91327,56.47398 Z"
       id="path27" /><path
       style="opacity:1;fill:#000000;fill-opacity:0.49019608;stroke-width:11.10955811"
       inkscape:connector-curvature="0"
       d="M 511.63551,224.90352 C 510.08412,286.21517 486.47428,349.05813 440.66913,400.718 342.95915,510.91707 180.91869,528.44587 78.725776,439.8713 30.827124,398.35564 4.4968216,340.92285 0.19382772,280.22881 0.79907938,346.58549 27.117411,410.48218 79.078682,455.51907 c 102.192908,88.5746 264.241068,71.0371 361.943338,-39.1533 49.70495,-56.0581 73.00502,-125.29096 70.61349,-191.46225 z"
       id="path51" /><path
       style="fill:#000000;fill-opacity:0.49019608;stroke-width:0.7286185"
       d="m 185.21042,430.65754 c -4.08033,-1.91351 -62.55348,-60.6083 -64.0927,-64.33564 -2.3723,-5.74473 -0.80597,-14.83179 3.1657,-18.36586 l 1.57569,-1.40208 14.37467,14.2308 c 15.3413,15.18777 16.51557,15.96736 21.14042,14.03498 2.83881,-1.18614 4.80145,-5.11272 4.08018,-8.16307 -0.3008,-1.27209 -5.65818,-7.22687 -14.75121,-16.39615 l -14.27888,-14.39859 4.51648,-4.51646 4.51646,-4.51648 6.45601,6.31755 c 7.68569,7.52085 9.44134,8.39752 13.16521,6.57393 2.97556,-1.45713 4.21136,-4.04266 3.42665,-7.16918 -0.29783,-1.18667 -3.29745,-4.90625 -7.00746,-8.68942 l -6.48673,-6.61462 4.87422,-4.87421 4.87421,-4.87422 7.02685,6.90375 c 6.30992,6.19937 7.30083,6.90374 9.7122,6.90374 3.6576,0 6.2622,-2.6046 6.2622,-6.2622 0,-2.41137 -0.70437,-3.40228 -6.90374,-9.71219 l -6.90375,-7.02685 4.87516,-4.87517 4.87517,-4.87516 7.02685,6.90375 c 6.30991,6.19937 7.30082,6.90374 9.71219,6.90374 3.70123,0 6.2622,-2.59993 6.2622,-6.35748 0,-2.5323 -0.58566,-3.36358 -6.55757,-9.30782 -3.60666,-3.58996 -6.55757,-6.87137 -6.55757,-7.29204 0,-0.42067 2.09347,-2.83971 4.65215,-5.37565 l 4.65214,-4.61079 6.68274,6.63202 c 3.67552,3.64761 7.5299,6.84465 8.56532,7.10452 2.9422,0.73845 5.54961,-0.56018 6.97695,-3.4749 1.84099,-3.75939 0.89921,-5.64365 -6.60063,-13.20629 l -6.3264,-6.37937 4.52634,-4.52633 4.52633,-4.52633 14.4065,14.27681 c 15.30309,15.16532 16.9839,16.30746 21.08351,14.32651 1.09609,-0.52963 2.6104,-2.02343 3.36513,-3.31956 2.57915,-4.42922 1.72806,-5.74367 -13.93012,-21.51403 l -14.29617,-14.39859 4.53424,-4.53424 4.53426,-4.53425 6.37937,6.3264 c 3.50865,3.47953 7.21566,6.63831 8.23779,7.01952 2.65873,0.99158 5.59707,0.22447 7.26571,-1.89686 3.02915,-3.85094 1.57888,-7.08575 -6.92203,-15.43928 l -5.52066,-5.42497 4.5527,-4.59354 c 2.50399,-2.52645 4.86969,-4.59354 5.25709,-4.59354 0.38742,0 3.71347,2.95091 7.39125,6.55757 5.97393,5.85843 6.97274,6.55757 9.36828,6.55757 3.6535,0 6.25829,-2.60642 6.25829,-6.2622 0,-2.41137 -0.70437,-3.40228 -6.90374,-9.7122 l -6.90375,-7.02684 4.87517,-4.87517 4.87516,-4.87516 7.0723,6.9484 c 6.91022,6.78916 7.1429,6.9432 10.1527,6.72159 3.63261,-0.26748 6.01911,-2.82062 6.01911,-6.4394 0,-1.88532 -1.16973,-3.43511 -7.04018,-9.32767 l -7.04016,-7.06668 4.8666,-4.86661 4.8666,-4.8666 6.80585,6.50644 c 7.01283,6.70429 9.27209,7.93667 12.48107,6.80814 2.55379,-0.89813 4.78089,-4.85377 4.14938,-7.3699 -0.27031,-1.07701 -3.48867,-5.01448 -7.1519,-8.74994 l -6.66042,-6.79174 4.88681,-4.88681 4.88681,-4.8868 6.77939,6.75121 c 5.40069,5.37823 7.32091,6.83908 9.44207,7.1833 2.29439,0.37233 2.96968,0.12509 4.88233,-1.78757 3.9511,-3.9511 3.31825,-5.78939 -4.85795,-14.11139 l -7.07759,-7.2038 4.8831,-4.88311 4.8831,-4.8831 14.44038,14.37483 c 13.94681,13.88349 14.54012,14.37482 17.3581,14.37482 5.20314,0 8.20036,-4.64675 5.82796,-9.03539 -0.6714,-1.24201 -7.2648,-8.31572 -14.65198,-15.71936 l -13.43124,-13.46116 1.55125,-1.65123 c 4.51698,-4.80812 13.47754,-6.24541 19.66641,-3.15453 4.90259,2.44848 61.16152,58.90979 63.19566,63.42299 1.93787,4.29963 1.94031,10.26316 0.006,14.57237 -2.15169,4.79338 -226.13212,228.77381 -230.9255,230.92549 -4.2086,1.88919 -10.30742,1.93427 -14.20806,0.10503 z"
       id="path881"
       inkscape:connector-curvature="0" /><path
       inkscape:connector-curvature="0"
       id="path879"
       d="m 165.21042,410.65754 c -4.08033,-1.91351 -62.55348,-60.6083 -64.0927,-64.33564 -2.3723,-5.74473 -0.80597,-14.83179 3.1657,-18.36586 l 1.57569,-1.40208 14.37467,14.2308 c 15.3413,15.18777 16.51557,15.96736 21.14042,14.03498 2.83881,-1.18614 4.80145,-5.11272 4.08018,-8.16307 -0.3008,-1.27209 -5.65818,-7.22687 -14.75121,-16.39615 l -14.27888,-14.39859 4.51648,-4.51646 4.51646,-4.51648 6.45601,6.31755 c 7.68569,7.52085 9.44134,8.39752 13.16521,6.57393 2.97556,-1.45713 4.21136,-4.04266 3.42665,-7.16918 -0.29783,-1.18667 -3.29745,-4.90625 -7.00746,-8.68942 l -6.48673,-6.61462 4.87422,-4.87421 4.87421,-4.87422 7.02685,6.90375 c 6.30992,6.19937 7.30083,6.90374 9.7122,6.90374 3.6576,0 6.2622,-2.6046 6.2622,-6.2622 0,-2.41137 -0.70437,-3.40228 -6.90374,-9.71219 l -6.90375,-7.02685 4.87516,-4.87517 4.87517,-4.87516 7.02685,6.90375 c 6.30991,6.19937 7.30082,6.90374 9.71219,6.90374 3.70123,0 6.2622,-2.59993 6.2622,-6.35748 0,-2.5323 -0.58566,-3.36358 -6.55757,-9.30782 -3.60666,-3.58996 -6.55757,-6.87137 -6.55757,-7.29204 0,-0.42067 2.09347,-2.83971 4.65215,-5.37565 l 4.65214,-4.61079 6.68274,6.63202 c 3.67552,3.64761 7.5299,6.84465 8.56532,7.10452 2.9422,0.73845 5.54961,-0.56018 6.97695,-3.4749 1.84099,-3.75939 0.89921,-5.64365 -6.60063,-13.20629 l -6.3264,-6.37937 4.52634,-4.52633 4.52633,-4.52633 14.4065,14.27681 c 15.30309,15.16532 16.9839,16.30746 21.08351,14.32651 1.09609,-0.52963 2.6104,-2.02343 3.36513,-3.31956 2.57915,-4.42922 1.72806,-5.74367 -13.93012,-21.51403 l -14.29617,-14.39859 4.53424,-4.53424 4.53426,-4.53425 6.37937,6.3264 c 3.50865,3.47953 7.21566,6.63831 8.23779,7.01952 2.65873,0.99158 5.59707,0.22447 7.26571,-1.89686 3.02915,-3.85094 1.57888,-7.08575 -6.92203,-15.43928 l -5.52066,-5.42497 4.5527,-4.59354 c 2.50399,-2.52645 4.86969,-4.59354 5.25709,-4.59354 0.38742,0 3.71347,2.95091 7.39125,6.55757 5.97393,5.85843 6.97274,6.55757 9.36828,6.55757 3.6535,0 6.25829,-2.60642 6.25829,-6.2622 0,-2.41137 -0.70437,-3.40228 -6.90374,-9.7122 l -6.90375,-7.02684 4.87517,-4.87517 4.87516,-4.87516 7.0723,6.9484 c 6.91022,6.78916 7.1429,6.9432 10.1527,6.72159 3.63261,-0.26748 6.01911,-2.82062 6.01911,-6.4394 0,-1.88532 -1.16973,-3.43511 -7.04018,-9.32767 l -7.04016,-7.06668 4.8666,-4.86661 4.8666,-4.8666 6.80585,6.50644 c 7.01283,6.70429 9.27209,7.93667 12.48107,6.80814 2.55379,-0.89813 4.78089,-4.85377 4.14938,-7.3699 -0.27031,-1.07701 -3.48867,-5.01448 -7.1519,-8.74994 l -6.66042,-6.79174 4.88681,-4.88681 4.88681,-4.8868 6.77939,6.75121 c 5.40069,5.37823 7.32091,6.83908 9.44207,7.1833 2.29439,0.37233 2.96968,0.12509 4.88233,-1.78757 3.9511,-3.9511 3.31825,-5.78939 -4.85795,-14.11139 l -7.07759,-7.2038 4.8831,-4.88311 4.8831,-4.8831 14.44038,14.37483 c 13.94681,13.88349 14.54012,14.37482 17.3581,14.37482 5.20314,0 8.20036,-4.64675 5.82796,-9.03539 -0.6714,-1.24201 -7.2648,-8.31572 -14.65198,-15.71936 l -13.43124,-13.46116 1.55125,-1.65123 c 4.51698,-4.808114 13.47754,-6.245404 19.66641,-3.15453 4.90259,2.44848 61.16152,58.90979 63.19566,63.42299 1.93787,4.29963 1.94031,10.26316 0.006,14.57237 -2.15169,4.79338 -226.13212,228.77381 -230.9255,230.92549 -4.2086,1.88919 -10.30742,1.93427 -14.20806,0.10503 z"
       style="fill:#ffffff;stroke-width:0.7286185" /></g></svg>