<?xml version="1.0" encoding="UTF-8" standalone="no"?>
<!-- Created with Inkscape (http://www.inkscape.org/) -->

<svg
   xmlns:dc="http://purl.org/dc/elements/1.1/"
   xmlns:cc="http://creativecommons.org/ns#"
   xmlns:rdf="http://www.w3.org/1999/02/22-rdf-syntax-ns#"
   xmlns:svg="http://www.w3.org/2000/svg"
   xmlns="http://www.w3.org/2000/svg"
   xmlns:sodipodi="http://sodipodi.sourceforge.net/DTD/sodipodi-0.dtd"
   xmlns:inkscape="http://www.inkscape.org/namespaces/inkscape"
   id="svg2"
   version="1.1"
   inkscape:version="0.92.3 (2405546, 2018-03-11)"
   width="512"
   height="512"
   sodipodi:docname="ksystemlog.svg"
   viewBox="0 0 512 512">
  <metadata
     id="metadata8">
    <rdf:RDF>
      <cc:Work
         rdf:about="">
        <dc:format>image/svg+xml</dc:format>
        <dc:type
           rdf:resource="http://purl.org/dc/dcmitype/StillImage" />
        <dc:title></dc:title>
      </cc:Work>
    </rdf:RDF>
  </metadata>
  <defs
     id="defs6">
    <inkscape:perspective
       sodipodi:type="inkscape:persp3d"
       inkscape:vp_x="0 : 256 : 1"
       inkscape:vp_y="0 : 1000 : 0"
       inkscape:vp_z="512 : 256 : 1"
       inkscape:persp3d-origin="256 : 170.66667 : 1"
       id="perspective4141" />
  </defs>
  <sodipodi:namedview
     pagecolor="#ffffff"
     bordercolor="#666666"
     borderopacity="1"
     objecttolerance="10"
     gridtolerance="10"
     guidetolerance="10"
     inkscape:pageopacity="0"
     inkscape:pageshadow="2"
     inkscape:window-width="1366"
     inkscape:window-height="718"
     id="namedview4"
     showgrid="false"
     inkscape:zoom="0.75390625"
     inkscape:cx="24.53886"
     inkscape:cy="256"
     inkscape:window-x="0"
     inkscape:window-y="25"
     inkscape:window-maximized="1"
     inkscape:current-layer="svg2"
     showguides="false"
     inkscape:guide-bbox="true"
     inkscape:document-units="px" />
  <g
     transform="translate(1.7735084e-7,1.9364447e-6)"
     id="g851">
    <path
       id="path848"
       d="m 432.91325,56.47397 c 102.19291,88.57459 105.82677,249.69971 8.1168,359.89879 C 343.32009,526.57182 181.27965,544.10062 79.08674,455.52602 -23.106205,366.95143 -26.740032,205.82631 70.96994,95.62723 168.67991,-14.57185 330.72036,-32.10062 432.91325,56.47397 Z"
       inkscape:connector-curvature="0"
       style="fill:#3689e6;fill-opacity:1;stroke-width:11.10955811" />
    <path
       id="path850"
       d="M 511.63548,224.90352 C 510.0841,286.21516 486.47426,349.05813 440.66911,400.71799 342.95915,510.91712 180.9187,528.44582 78.725757,439.87129 30.827125,398.35564 4.4968193,340.92284 0.19382704,280.22881 0.79908059,346.58548 27.117405,410.48218 79.07869,455.51907 181.2716,544.09362 343.31975,526.55622 441.022,416.36577 490.72695,360.30766 514.02702,291.07481 511.63548,224.90352 Z"
       inkscape:connector-curvature="0"
       style="opacity:1;fill:#000000;fill-opacity:0.49019608;stroke-width:11.10955811" />
    <path
       style="fill:#000000;fill-opacity:0.49019608;stroke-width:0.80770892"
       d="m 361.74613,441.34391 c -0.88848,-0.3788 -22.06055,-21.1719 -47.04904,-46.20686 -43.17073,-43.25103 -45.43363,-45.66269 -45.43363,-48.42142 0,-1.66606 0.67846,-3.76578 1.59214,-4.92727 1.57014,-1.99617 1.57068,-2.0435 0.0393,-3.42937 -1.48001,-1.33942 -1.6544,-1.32537 -3.72034,0.29974 -1.36669,1.07506 -3.33524,1.705 -5.32793,1.705 -2.71144,0 -3.72857,-0.56823 -7.16045,-4.0001 -3.52658,-3.52662 -4.00006,-4.4021 -4.00006,-7.39643 0,-3.24909 0.40517,-3.80666 9.34144,-12.85437 l 9.34145,-9.45795 -52.44682,-52.81043 -52.44681,-52.81053 -3.99946,0.27002 -3.99946,0.27003 -14.81781,-11.9818 c -8.1498,-6.59 -15.57581,-13.008 -16.50225,-14.26224 -1.16863,-1.58212 -1.68444,-3.49378 -1.68444,-6.24282 0,-3.90964 0.0968,-4.05975 7.26938,-11.27366 7.56643,-7.61002 10.29987,-9.11808 14.43594,-7.96444 4.05978,1.13236 5.78842,2.7942 16.13482,15.51133 14.01115,17.22161 14.50032,17.99168 13.96413,21.98248 l -0.43945,3.27081 52.6731,52.66849 52.6731,52.66852 9.19618,-9.22234 c 5.66333,-5.67949 10.00439,-9.37686 11.29998,-9.6245 2.83527,-0.54205 6.40971,1.11004 9.52597,4.40274 4.51711,4.77292 5.04391,8.82559 1.63684,12.59218 -1.33891,1.48013 -1.4433,2.0095 -0.59731,3.02891 1.27422,1.5353 2.3528,1.56195 3.99459,0.0987 1.31656,-1.17335 3.04789,-1.54038 6.5084,-1.37964 2.69281,0.12511 91.67605,88.85678 92.93542,92.67272 1.92286,5.82633 -3.09411,19.5888 -10.95108,30.04088 -7.81704,10.39902 -22.1346,20.02452 -33.30717,22.39222 -6.21134,1.3163 -6.48094,1.3284 -8.6787,0.3914 z m -224.55363,-8.6945 c -13.45202,-4.7988 -22.27128,-14.99505 -24.69352,-28.54913 -1.8123,-10.14095 1.41074,-21.84643 8.06493,-29.29027 1.59944,-1.78924 25.98837,-23.40926 54.1976,-48.04463 28.20924,-24.63536 52.12083,-45.5417 53.13688,-46.45853 l 1.84735,-1.66703 13.87334,13.87337 13.87334,13.87337 -6.94493,7.0971 c -9.24554,9.44817 -10.769,14.54191 -6.73025,22.50269 1.10874,2.18542 2.01742,4.26672 2.01927,4.6251 0.004,0.82936 -63.88129,74.23144 -70.9994,81.57556 -3.7772,3.8971 -7.06569,6.3585 -11.30997,8.4653 -5.52842,2.7442 -6.60511,2.9884 -14.1349,3.206 -6.24346,0.1804 -9.0981,-0.1025 -12.19974,-1.2089 z m 17.78707,-20.29055 c 4.07019,-1.84901 8.11587,-6.39948 9.34906,-10.51548 2.96813,-9.90679 -4.87508,-20.2865 -15.32905,-20.2865 -5.09513,0 -7.86752,1.05374 -11.28706,4.28999 -3.51244,3.3242 -4.95187,6.77474 -4.95187,11.87041 0,11.70701 11.70294,19.41886 22.21892,14.64158 z m 112.01901,-141.70348 -13.14293,-13.16106 11.37786,-9.93902 c 6.25781,-5.46641 11.25096,-10.17365 11.09589,-10.46055 -2.11701,-3.9165 -5.13076,-11.38468 -6.84726,-16.96775 -1.93637,-6.29816 -2.14711,-8.23558 -2.16466,-19.90079 -0.0151,-10.02478 0.30746,-14.10089 1.43807,-18.17345 6.97962,-25.14127 24.84401,-43.28805 49.77815,-50.565 4.28275,-1.24991 7.78013,-1.52338 18.98116,-1.48422 12.61063,0.0441 14.32281,0.22941 20.98308,2.27115 3.9886,1.22273 7.41608,2.38721 7.6166,2.58773 0.20053,0.20053 -9.27341,10.08258 -21.05319,21.96012 -25.91769,26.13277 -26.12379,26.44971 -26.12379,40.17283 0,8.19528 0.17765,9.22222 2.28915,13.23253 8.42243,15.99646 26.28542,21.96527 42.10792,14.0701 2.94898,-1.4715 9.99256,-7.92706 25.64795,-23.50682 11.87038,-11.81303 21.7256,-21.3161 21.9005,-21.11796 0.74017,0.83856 3.75208,11.23567 4.53452,15.65315 0.46688,2.63597 0.84888,9.04094 0.84888,14.23326 0,32.36312 -20.97448,59.42217 -52.33148,67.51267 -6.19259,1.59773 -9.88227,2.02929 -17.53534,2.0511 -13.32914,0.038 -22.28743,-2.08882 -35.94305,-8.53345 -5.0981,-2.406 -9.94531,-2.69872 -14.36278,-0.8674 -1.65162,0.6847 -5.91657,4.13596 -9.47764,7.66936 l -6.47469,6.42452 z"
       id="path854"
       inkscape:connector-curvature="0" />
    <path
       inkscape:connector-curvature="0"
       id="path852"
       d="m 351.74613,421.34391 c -0.88848,-0.3788 -22.06055,-21.1719 -47.04904,-46.20686 -43.17073,-43.25103 -45.43363,-45.66269 -45.43363,-48.42142 0,-1.66606 0.67846,-3.76578 1.59214,-4.92727 1.57014,-1.99617 1.57068,-2.0435 0.0393,-3.42937 -1.48001,-1.33942 -1.6544,-1.32537 -3.72034,0.29974 -1.36669,1.07506 -3.33524,1.705 -5.32793,1.705 -2.71144,0 -3.72857,-0.56823 -7.16045,-4.0001 -3.52658,-3.52662 -4.00006,-4.4021 -4.00006,-7.39643 0,-3.24909 0.40517,-3.80666 9.34144,-12.85437 l 9.34145,-9.45795 -52.44682,-52.81043 -52.44681,-52.81053 -3.99946,0.27002 -3.99946,0.27003 -14.81781,-11.9818 c -8.1498,-6.59 -15.57581,-13.008 -16.50225,-14.26224 -1.16863,-1.58212 -1.68444,-3.49378 -1.68444,-6.24282 0,-3.90964 0.0968,-4.05975 7.26938,-11.27366 7.56643,-7.61002 10.29987,-9.11808 14.43594,-7.96444 4.05978,1.13236 5.78842,2.7942 16.13482,15.51133 14.01115,17.22161 14.50032,17.99168 13.96413,21.98248 l -0.43945,3.27081 52.6731,52.66849 52.6731,52.66852 9.19618,-9.22234 c 5.66333,-5.67949 10.00439,-9.37686 11.29998,-9.6245 2.83527,-0.54205 6.40971,1.11004 9.52597,4.40274 4.51711,4.77292 5.04391,8.82559 1.63684,12.59218 -1.33891,1.48013 -1.4433,2.0095 -0.59731,3.02891 1.27422,1.5353 2.3528,1.56195 3.99459,0.0987 1.31656,-1.17335 3.04789,-1.54038 6.5084,-1.37964 2.69281,0.12511 91.67605,88.85678 92.93542,92.67272 1.92286,5.82633 -3.09411,19.5888 -10.95108,30.04088 -7.81704,10.39902 -22.1346,20.02452 -33.30717,22.39222 -6.21134,1.3163 -6.48094,1.3284 -8.6787,0.3914 z m -224.55363,-8.6945 c -13.45202,-4.7988 -22.27128,-14.99505 -24.69352,-28.54913 -1.8123,-10.14095 1.41074,-21.84643 8.06493,-29.29027 1.59944,-1.78924 25.98837,-23.40926 54.1976,-48.04463 28.20924,-24.63536 52.12083,-45.5417 53.13688,-46.45853 l 1.84735,-1.66703 13.87334,13.87337 13.87334,13.87337 -6.94493,7.0971 c -9.24554,9.44817 -10.769,14.54191 -6.73025,22.50269 1.10874,2.18542 2.01742,4.26672 2.01927,4.6251 0.004,0.82936 -63.88129,74.23144 -70.9994,81.57556 -3.7772,3.8971 -7.06569,6.3585 -11.30997,8.4653 -5.52842,2.7442 -6.60511,2.9884 -14.1349,3.206 -6.24346,0.1804 -9.0981,-0.1025 -12.19974,-1.2089 z m 17.78707,-20.29055 c 4.07019,-1.84901 8.11587,-6.39948 9.34906,-10.51548 2.96813,-9.90679 -4.87508,-20.2865 -15.32905,-20.2865 -5.09513,0 -7.86752,1.05374 -11.28706,4.28999 -3.51244,3.3242 -4.95187,6.77474 -4.95187,11.87041 0,11.70701 11.70294,19.41886 22.21892,14.64158 z m 112.01901,-141.70348 -13.14293,-13.16106 11.37786,-9.93902 c 6.25781,-5.46641 11.25096,-10.17365 11.09589,-10.46055 -2.11701,-3.9165 -5.13076,-11.38468 -6.84726,-16.96775 -1.93637,-6.29816 -2.14711,-8.23558 -2.16466,-19.90079 -0.0151,-10.02478 0.30746,-14.10089 1.43807,-18.17345 6.97962,-25.14127 24.84401,-43.28805 49.77815,-50.565 4.28275,-1.24991 7.78013,-1.52338 18.98116,-1.48422 12.61063,0.0441 14.32281,0.22941 20.98308,2.27115 3.9886,1.22273 7.41608,2.38721 7.6166,2.58773 0.20053,0.20053 -9.27341,10.08258 -21.05319,21.96012 -25.91769,26.13277 -26.12379,26.44971 -26.12379,40.17283 0,8.19528 0.17765,9.22222 2.28915,13.23253 8.42243,15.99646 26.28542,21.96527 42.10792,14.0701 2.94898,-1.4715 9.99256,-7.92706 25.64795,-23.50682 11.87038,-11.81303 21.7256,-21.3161 21.9005,-21.11796 0.74017,0.83856 3.75208,11.23567 4.53452,15.65315 0.46688,2.63597 0.84888,9.04094 0.84888,14.23326 0,32.36312 -20.97448,59.42217 -52.33148,67.51267 -6.19259,1.59773 -9.88227,2.02929 -17.53534,2.0511 -13.32914,0.038 -22.28743,-2.08882 -35.94305,-8.53345 -5.0981,-2.406 -9.94531,-2.69872 -14.36278,-0.8674 -1.65162,0.6847 -5.91657,4.13596 -9.47764,7.66936 l -6.47469,6.42452 z"
       style="fill:#ffffff;stroke-width:0.80770892" />
  </g>
</svg>
