<?xml version="1.0" encoding="UTF-8" standalone="no"?>
<svg
   xmlns:dc="http://purl.org/dc/elements/1.1/"
   xmlns:cc="http://creativecommons.org/ns#"
   xmlns:rdf="http://www.w3.org/1999/02/22-rdf-syntax-ns#"
   xmlns:svg="http://www.w3.org/2000/svg"
   xmlns="http://www.w3.org/2000/svg"
   xmlns:sodipodi="http://sodipodi.sourceforge.net/DTD/sodipodi-0.dtd"
   xmlns:inkscape="http://www.inkscape.org/namespaces/inkscape"
   viewBox="0 0 512 512"
   id="svg2"
   version="1.1"
   inkscape:version="0.92.3 (2405546, 2018-03-11)"
   width="512"
   height="512"
   sodipodi:docname="ktip.svg">
  <metadata
     id="metadata65">
    <rdf:RDF>
      <cc:Work
         rdf:about="">
        <dc:format>image/svg+xml</dc:format>
        <dc:type
           rdf:resource="http://purl.org/dc/dcmitype/StillImage" />
        <dc:title></dc:title>
      </cc:Work>
    </rdf:RDF>
  </metadata>
  <sodipodi:namedview
     pagecolor="#ffffff"
     bordercolor="#666666"
     borderopacity="1"
     objecttolerance="10"
     gridtolerance="10"
     guidetolerance="10"
     inkscape:pageopacity="0"
     inkscape:pageshadow="2"
     inkscape:window-width="1366"
     inkscape:window-height="718"
     id="namedview63"
     showgrid="false"
     inkscape:zoom="0.43457604"
     inkscape:cx="532.14137"
     inkscape:cy="215.37854"
     inkscape:window-x="0"
     inkscape:window-y="25"
     inkscape:window-maximized="1"
     inkscape:current-layer="svg2"
     units="px"
     scale-x="1" />
  <defs
     id="defs4">
    <linearGradient
       id="linearGradient3764"
       x1="1"
       x2="47"
       gradientUnits="userSpaceOnUse"
       gradientTransform="rotate(-90,23.999998,24)">
      <stop
         stop-color="#3d3d3d"
         stop-opacity="1"
         id="stop7" />
      <stop
         offset="1"
         stop-color="#474747"
         stop-opacity="1"
         id="stop9" />
    </linearGradient>
    <clipPath
       id="clipPath-156864852">
      <g
         transform="translate(0,-1004.3622)"
         id="g12">
        <path
           d="m -24,13 c 0,1.105 -0.672,2 -1.5,2 -0.828,0 -1.5,-0.895 -1.5,-2 0,-1.105 0.672,-2 1.5,-2 0.828,0 1.5,0.895 1.5,2 z"
           transform="matrix(15.333333,0,0,11.5,414.99999,878.8622)"
           id="path14"
           inkscape:connector-curvature="0"
           style="fill:#1890d0" />
      </g>
    </clipPath>
    <clipPath
       id="clipPath-165128749">
      <g
         transform="translate(0,-1004.3622)"
         id="g17">
        <path
           d="m -24,13 c 0,1.105 -0.672,2 -1.5,2 -0.828,0 -1.5,-0.895 -1.5,-2 0,-1.105 0.672,-2 1.5,-2 0.828,0 1.5,0.895 1.5,2 z"
           transform="matrix(15.333333,0,0,11.5,414.99999,878.8622)"
           id="path19"
           inkscape:connector-curvature="0"
           style="fill:#1890d0" />
      </g>
    </clipPath>
  </defs>
  <g
     id="g33"
     transform="translate(0,963)" />
  <g
     id="g850">
    <path
       style="fill:#c6262e;fill-opacity:1;stroke-width:11.10955811"
       inkscape:connector-curvature="0"
       d="M 432.91327,56.473955 C 535.10618,145.04853 538.74004,306.17366 441.03007,416.37275 343.3201,526.57189 181.27964,544.10059 79.086725,455.52601 -23.106187,366.95144 -26.74004,205.82631 70.969931,95.627215 168.6799,-14.571875 330.72036,-32.100625 432.91327,56.473955 Z"
       id="path27" />
    <path
       style="opacity:1;fill:#000000;fill-opacity:0.49019608;stroke-width:11.10955811"
       inkscape:connector-curvature="0"
       d="m 511.63551,224.90352 c -1.5514,61.31165 -25.16124,124.1546 -70.96639,175.81449 C 342.95915,510.91709 180.91869,528.44589 78.725778,439.87127 30.827125,398.35564 4.4968223,340.92282 0.19382912,280.22878 0.79907984,346.58546 27.117412,410.48219 79.078682,455.51904 181.27159,544.09359 343.31974,526.55619 441.02202,416.36578 490.72696,360.30764 514.02705,291.07481 511.63551,224.90352 Z"
       id="path51" />
    <path
       inkscape:connector-curvature="0"
       style="fill:#000000;fill-opacity:0.49019608;stroke:none;stroke-width:0.7428593;stroke-miterlimit:4;stroke-dasharray:none;stroke-opacity:1"
       d="m 241.35265,120.00139 c -1.42758,-0.0109 -2.88367,0.0397 -4.21486,0.21618 -5.66002,0.74384 -11.37938,0.62172 -17.0669,1.50023 -10.89505,1.68248 -21.30292,5.10727 -31.50768,9.18998 -3.71582,1.48641 -7.46522,3.13386 -11.06599,4.87646 -1.12357,0.54367 -2.63229,0.89941 -3.72735,1.61195 -0.17198,1.30979 -0.26987,2.64337 -0.26987,4.00157 v 34.87377 c 0.60767,0.88485 1.41206,1.54246 2.49844,1.71206 4.80355,0.75169 8.52001,-4.98838 10.87738,-8.25271 5.50578,-7.62424 11.78802,-14.78466 20.81747,-18.19279 10.62977,-4.01213 22.8882,-5.04242 34.1338,-5.81375 31.55073,-2.16231 66.03201,3.58115 89.2737,26.81984 3.30532,3.30488 6.34213,6.83496 9.00283,10.6902 10.40621,15.06802 15.91689,32.26706 18.56712,50.26343 1.24605,8.44917 2.11472,16.9058 0.18717,25.31961 -3.3445,14.59737 -12.05381,27.44349 -22.13054,38.26015 -6.89696,7.40328 -14.80305,13.98445 -22.88065,20.06737 -4.50949,3.3951 -9.45053,6.4158 -13.69066,10.12726 -4.88344,4.27486 -8.91629,9.48855 -12.00327,15.19234 -8.30769,15.35827 -10.69625,33.86952 -8.2527,51.01354 0.50054,3.51405 1.07978,7.03738 1.87601,10.50305 0.23765,1.03671 0.26662,2.90343 0.93728,3.75056 1.25518,1.58448 4.64581,2.34467 6.56385,2.43752 2.00044,0.0967 3.26175,-1.394 3.75202,-3.18763 0.83937,-3.07349 0.48612,-6.47399 0,-9.56576 -0.99633,-6.33258 -1.97127,-12.70207 -1.68884,-19.13008 0.52035,-11.86905 5.08972,-22.90559 13.31634,-31.50768 8.36658,-8.74852 19.74937,-13.86448 29.25733,-21.19326 19.16235,-14.76999 36.17002,-34.61429 42.7623,-58.32751 2.35609,-8.48051 3.13774,-17.52668 2.06172,-26.25689 -1.35977,-11.0428 -5.3852,-22.04678 -9.18999,-32.44641 -11.59596,-31.69962 -31.4254,-61.83121 -63.01536,-76.33315 -12.53737,-5.75474 -25.62334,-8.42405 -39.19888,-10.31443 -6.36606,-0.88637 -12.72067,-1.40779 -19.13008,-1.68884 -1.78006,-0.078 -3.58101,-0.1278 -5.43797,-0.18717 h -0.001 c -0.46422,-0.015 -0.93586,-0.0254 -1.41173,-0.029 z m -16.97404,131.45998 c -0.44349,-0.007 -0.88404,0.001 -1.30581,0.0421 -2.53051,0.24426 -4.89906,1.08188 -7.12681,2.4375 -4.00348,2.43816 -6.24743,6.69563 -7.50259,11.066 -2.49204,8.67787 -1.36834,18.66684 0.37434,27.38133 0.55694,2.7872 1.0941,5.5165 1.87601,8.2527 0.28266,0.98702 0.48372,2.36804 1.12589,3.18907 1.12036,1.43539 3.76057,1.96977 5.43796,1.6874 5.03251,-0.84579 3.73471,-9.23023 3.56341,-12.75339 -0.4015,-8.25303 -2.73037,-16.17226 -0.37434,-24.38087 0.99765,-3.47353 2.86878,-7.49421 6.3767,-9.00282 3.16674,-1.3635 6.4359,0.28302 7.68975,3.37624 2.03041,5.00832 1.53983,10.91724 2.81329,16.12817 0.4327,1.77144 0.88853,3.41254 1.68739,5.06363 0.23168,0.47712 0.45492,1.56181 1.1259,1.50168 1.63045,-0.14878 4.02844,-2.92994 5.2508,-3.93918 3.94856,-3.26301 8.02012,-6.77539 12.56622,-9.18999 2.13901,-1.13606 5.69198,-2.86948 7.87692,-0.93728 0.55695,0.49273 0.91434,1.06383 1.31306,1.6874 2.56792,4.02257 -0.0188,7.0522 -1.68884,10.87737 -2.16124,4.95076 -4.36958,9.83111 -7.50114,14.25507 -2.69207,3.80427 -6.28897,7.28439 -8.43987,11.44032 -1.38463,2.67605 -2.26006,5.60715 -1.68739,8.62703 0.4639,2.44205 2.38429,3.76024 4.87501,3.18763 1.86446,-0.42852 3.06342,-1.90013 4.12635,-3.37479 1.89455,-2.63033 3.74382,-5.42478 5.62658,-8.06554 3.64267,-5.10764 8.00259,-9.88739 11.06599,-15.37806 3.69228,-6.61891 5.44204,-14.02979 5.43796,-21.56903 -0.004,-6.16137 -2.20025,-15.58813 -9.37714,-16.87974 -1.35048,-0.24186 -2.97204,-0.23407 -4.31352,0 -1.66688,0.29047 -3.35326,0.95155 -4.87647,1.68884 -4.08059,1.97405 -7.65814,4.8993 -10.6902,8.25125 -1.89176,2.08908 -3.56879,4.66152 -5.81375,6.3767 0,-4.5507 -0.73254,-9.49882 -3.37623,-13.31488 -3.31282,-4.78066 -9.08326,-7.4815 -14.81657,-7.68976 -0.42998,-0.0149 -0.87538,-0.0356 -1.31886,-0.0421 z m -34.99709,73.7433 c -0.49893,0.0211 -1.01415,0.11368 -1.56842,0.19297 -6.15692,0.88116 -8.07712,5.68536 -6.93964,11.25316 1.45652,7.12484 7.20065,12.59813 12.75338,16.87828 14.22664,10.9657 32.53426,16.91405 50.4506,16.12962 6.99108,-0.30605 14.59034,-1.53438 21.00608,-4.50068 3.43999,-1.58968 7.12223,-7.30177 2.43751,-9.75293 -0.642,-0.33608 -1.53501,-0.44386 -2.25034,-0.5615 -2.04606,-0.33489 -4.25062,0.56751 -6.18952,1.12445 -3.41905,0.9818 -6.98183,1.87421 -10.5016,2.43896 -10.51605,1.68904 -21.86534,-0.70901 -30.57185,-6.93964 -7.03799,-5.03838 -12.63028,-11.66306 -18.00419,-18.37997 -2.87828,-3.59752 -5.5523,-7.52469 -10.12726,-7.87692 -0.16339,-0.012 -0.32844,-0.0128 -0.49475,-0.006 z m -7.00784,34.70111 v 0.001 c -0.93095,0.013 -1.88474,0.0898 -2.62612,0.18717 -1.56635,0.20645 -3.34637,0.14013 -4.68785,1.12444 -2.798,2.05375 0.21491,6.19348 1.68739,8.06554 4.26882,5.424 9.95748,9.90888 15.56668,13.87783 15.63732,11.06112 33.27653,17.44975 52.3266,18.75575 5.47689,0.3751 11.08708,-0.0371 16.50396,-0.93873 1.98069,-0.33067 4.54619,-0.45668 6.37669,-1.31161 5.18009,-2.4224 3.68587,-12.07972 -0.93728,-14.25507 -2.01875,-0.94909 -5.38575,0.26887 -7.50258,0.56295 -5.00634,0.69809 -9.96862,0.68615 -15.00373,0.56295 -13.19634,-0.32289 -27.32513,-4.27654 -38.82311,-10.69021 -4.51993,-2.52312 -8.49686,-5.58684 -12.3776,-9.00282 -2.36001,-2.07732 -4.81624,-5.51412 -7.87692,-6.56386 -0.71258,-0.24425 -1.69517,-0.38538 -2.62613,-0.37577 z m 0.99387,29.60845 c -0.14321,7.5e-4 -0.2866,0.009 -0.43092,0.0247 -2.23043,0.24966 -3.97238,1.34685 -5.43941,3.00191 -1.01066,1.13994 -1.85697,2.12535 -2.43751,3.5634 -3.20071,7.91705 5.17175,15.39114 11.06455,19.13007 6.55817,4.15982 13.89363,7.34248 21.19325,9.9401 16.46374,5.85936 35.60454,9.5519 52.70239,4.31352 5.08216,-1.55572 10.18288,-4.40789 13.87783,-8.2527 2.08134,-2.16621 3.44339,-5.36399 -0.37434,-6.75103 -2.26194,-0.82101 -4.88818,1.23692 -6.93964,2.06318 -4.84286,1.95308 -9.99381,3.49605 -15.19234,4.1249 -6.84727,0.83014 -12.90554,-0.78642 -19.50441,-2.43751 -5.63652,-1.4093 -11.43005,-2.84493 -16.87974,-4.87647 -4.64937,-1.73347 -9.24761,-3.68513 -13.31633,-6.56385 -1.21593,-0.86019 -2.56706,-1.69291 -3.56341,-2.81329 -3.25694,-3.66439 -5.69771,-7.95501 -9.18997,-11.44032 -1.41451,-1.41191 -3.42188,-3.04074 -5.57,-3.02658 z"
       id="path844" />
    <path
       id="rect4151"
       d="m 221.35265,100.00139 c -1.42758,-0.0109 -2.88367,0.0397 -4.21486,0.21618 -5.66002,0.74384 -11.37938,0.62172 -17.0669,1.50023 -10.89505,1.68248 -21.30292,5.10727 -31.50768,9.18998 -3.71582,1.48641 -7.46522,3.13386 -11.06599,4.87646 -1.12357,0.54367 -2.63229,0.89941 -3.72735,1.61195 -0.17198,1.30979 -0.26987,2.64337 -0.26987,4.00157 v 34.87377 c 0.60767,0.88485 1.41206,1.54246 2.49844,1.71206 4.80355,0.75169 8.52001,-4.98838 10.87738,-8.25271 5.50578,-7.62424 11.78802,-14.78466 20.81747,-18.19279 10.62977,-4.01213 22.8882,-5.04242 34.1338,-5.81375 31.55073,-2.16231 66.03201,3.58115 89.2737,26.81984 3.30532,3.30488 6.34213,6.83496 9.00283,10.6902 10.40621,15.06802 15.91689,32.26706 18.56712,50.26343 1.24605,8.44917 2.11472,16.9058 0.18717,25.31961 -3.3445,14.59737 -12.05381,27.44349 -22.13054,38.26015 -6.89696,7.40328 -14.80305,13.98445 -22.88065,20.06737 -4.50949,3.3951 -9.45053,6.4158 -13.69066,10.12726 -4.88344,4.27486 -8.91629,9.48855 -12.00327,15.19234 -8.30769,15.35827 -10.69625,33.86952 -8.2527,51.01354 0.50054,3.51405 1.07978,7.03738 1.87601,10.50305 0.23765,1.03671 0.26662,2.90343 0.93728,3.75056 1.25518,1.58448 4.64581,2.34467 6.56385,2.43752 2.00044,0.0967 3.26175,-1.394 3.75202,-3.18763 0.83937,-3.07349 0.48612,-6.47399 0,-9.56576 -0.99633,-6.33258 -1.97127,-12.70207 -1.68884,-19.13008 0.52035,-11.86905 5.08972,-22.90559 13.31634,-31.50768 8.36658,-8.74852 19.74937,-13.86448 29.25733,-21.19326 19.16235,-14.76999 36.17002,-34.61429 42.7623,-58.32751 2.35609,-8.48051 3.13774,-17.52668 2.06172,-26.25689 -1.35977,-11.0428 -5.3852,-22.04678 -9.18999,-32.44641 -11.59596,-31.69962 -31.4254,-61.83121 -63.01536,-76.33315 -12.53737,-5.75474 -25.62334,-8.42405 -39.19888,-10.31443 -6.36606,-0.88637 -12.72067,-1.40779 -19.13008,-1.68884 -1.78006,-0.078 -3.58101,-0.1278 -5.43797,-0.18717 h -0.001 c -0.46422,-0.015 -0.93586,-0.0254 -1.41173,-0.029 z m -16.97404,131.45998 c -0.44349,-0.007 -0.88404,0.001 -1.30581,0.0421 -2.53051,0.24426 -4.89906,1.08188 -7.12681,2.4375 -4.00348,2.43816 -6.24743,6.69563 -7.50259,11.066 -2.49204,8.67787 -1.36834,18.66684 0.37434,27.38133 0.55694,2.7872 1.0941,5.5165 1.87601,8.2527 0.28266,0.98702 0.48372,2.36804 1.12589,3.18907 1.12036,1.43539 3.76057,1.96977 5.43796,1.6874 5.03251,-0.84579 3.73471,-9.23023 3.56341,-12.75339 -0.4015,-8.25303 -2.73037,-16.17226 -0.37434,-24.38087 0.99765,-3.47353 2.86878,-7.49421 6.3767,-9.00282 3.16674,-1.3635 6.4359,0.28302 7.68975,3.37624 2.03041,5.00832 1.53983,10.91724 2.81329,16.12817 0.4327,1.77144 0.88853,3.41254 1.68739,5.06363 0.23168,0.47712 0.45492,1.56181 1.1259,1.50168 1.63045,-0.14878 4.02844,-2.92994 5.2508,-3.93918 3.94856,-3.26301 8.02012,-6.77539 12.56622,-9.18999 2.13901,-1.13606 5.69198,-2.86948 7.87692,-0.93728 0.55695,0.49273 0.91434,1.06383 1.31306,1.6874 2.56792,4.02257 -0.0188,7.0522 -1.68884,10.87737 -2.16124,4.95076 -4.36958,9.83111 -7.50114,14.25507 -2.69207,3.80427 -6.28897,7.28439 -8.43987,11.44032 -1.38463,2.67605 -2.26006,5.60715 -1.68739,8.62703 0.4639,2.44205 2.38429,3.76024 4.87501,3.18763 1.86446,-0.42852 3.06342,-1.90013 4.12635,-3.37479 1.89455,-2.63033 3.74382,-5.42478 5.62658,-8.06554 3.64267,-5.10764 8.00259,-9.88739 11.06599,-15.37806 3.69228,-6.61891 5.44204,-14.02979 5.43796,-21.56903 -0.004,-6.16137 -2.20025,-15.58813 -9.37714,-16.87974 -1.35048,-0.24186 -2.97204,-0.23407 -4.31352,0 -1.66688,0.29047 -3.35326,0.95155 -4.87647,1.68884 -4.08059,1.97405 -7.65814,4.8993 -10.6902,8.25125 -1.89176,2.08908 -3.56879,4.66152 -5.81375,6.3767 0,-4.5507 -0.73254,-9.49882 -3.37623,-13.31488 -3.31282,-4.78066 -9.08326,-7.4815 -14.81657,-7.68976 -0.42998,-0.0149 -0.87538,-0.0356 -1.31886,-0.0421 z m -34.99709,73.7433 c -0.49893,0.0211 -1.01415,0.11368 -1.56842,0.19297 -6.15692,0.88116 -8.07712,5.68536 -6.93964,11.25316 1.45652,7.12484 7.20065,12.59813 12.75338,16.87828 14.22664,10.9657 32.53426,16.91405 50.4506,16.12962 6.99108,-0.30605 14.59034,-1.53438 21.00608,-4.50068 3.43999,-1.58968 7.12223,-7.30177 2.43751,-9.75293 -0.642,-0.33608 -1.53501,-0.44386 -2.25034,-0.5615 -2.04606,-0.33489 -4.25062,0.56751 -6.18952,1.12445 -3.41905,0.9818 -6.98183,1.87421 -10.5016,2.43896 -10.51605,1.68904 -21.86534,-0.70901 -30.57185,-6.93964 -7.03799,-5.03838 -12.63028,-11.66306 -18.00419,-18.37997 -2.87828,-3.59752 -5.5523,-7.52469 -10.12726,-7.87692 -0.16339,-0.012 -0.32844,-0.0128 -0.49475,-0.006 z m -7.00784,34.70111 v 0.001 c -0.93095,0.013 -1.88474,0.0898 -2.62612,0.18717 -1.56635,0.20645 -3.34637,0.14013 -4.68785,1.12444 -2.798,2.05375 0.21491,6.19348 1.68739,8.06554 4.26882,5.424 9.95748,9.90888 15.56668,13.87783 15.63732,11.06112 33.27653,17.44975 52.3266,18.75575 5.47689,0.3751 11.08708,-0.0371 16.50396,-0.93873 1.98069,-0.33067 4.54619,-0.45668 6.37669,-1.31161 5.18009,-2.4224 3.68587,-12.07972 -0.93728,-14.25507 -2.01875,-0.94909 -5.38575,0.26887 -7.50258,0.56295 -5.00634,0.69809 -9.96862,0.68615 -15.00373,0.56295 -13.19634,-0.32289 -27.32513,-4.27654 -38.82311,-10.69021 -4.51993,-2.52312 -8.49686,-5.58684 -12.3776,-9.00282 -2.36001,-2.07732 -4.81624,-5.51412 -7.87692,-6.56386 -0.71258,-0.24425 -1.69517,-0.38538 -2.62613,-0.37577 z m 0.99387,29.60845 c -0.14321,7.5e-4 -0.2866,0.009 -0.43092,0.0247 -2.23043,0.24966 -3.97238,1.34685 -5.43941,3.00191 -1.01066,1.13994 -1.85697,2.12535 -2.43751,3.5634 -3.20071,7.91705 5.17175,15.39114 11.06455,19.13007 6.55817,4.15982 13.89363,7.34248 21.19325,9.9401 16.46374,5.85936 35.60454,9.5519 52.70239,4.31352 5.08216,-1.55572 10.18288,-4.40789 13.87783,-8.2527 2.08134,-2.16621 3.44339,-5.36399 -0.37434,-6.75103 -2.26194,-0.82101 -4.88818,1.23692 -6.93964,2.06318 -4.84286,1.95308 -9.99381,3.49605 -15.19234,4.1249 -6.84727,0.83014 -12.90554,-0.78642 -19.50441,-2.43751 -5.63652,-1.4093 -11.43005,-2.84493 -16.87974,-4.87647 -4.64937,-1.73347 -9.24761,-3.68513 -13.31633,-6.56385 -1.21593,-0.86019 -2.56706,-1.69291 -3.56341,-2.81329 -3.25694,-3.66439 -5.69771,-7.95501 -9.18997,-11.44032 -1.41451,-1.41191 -3.42188,-3.04074 -5.57,-3.02658 z"
       style="fill:#ffffff;fill-opacity:1;stroke:none;stroke-width:0.7428593;stroke-miterlimit:4;stroke-dasharray:none;stroke-opacity:1"
       inkscape:connector-curvature="0" />
  </g>
</svg>
