<?xml version="1.0" encoding="UTF-8" standalone="no"?>
<!-- Created with Inkscape (http://www.inkscape.org/) -->

<svg
   xmlns:dc="http://purl.org/dc/elements/1.1/"
   xmlns:cc="http://creativecommons.org/ns#"
   xmlns:rdf="http://www.w3.org/1999/02/22-rdf-syntax-ns#"
   xmlns:svg="http://www.w3.org/2000/svg"
   xmlns="http://www.w3.org/2000/svg"
   xmlns:sodipodi="http://sodipodi.sourceforge.net/DTD/sodipodi-0.dtd"
   xmlns:inkscape="http://www.inkscape.org/namespaces/inkscape"
   id="svg2"
   version="1.1"
   inkscape:version="0.92.3 (2405546, 2018-03-11)"
   width="512"
   height="512"
   sodipodi:docname="ktorrent.svg">
  <metadata
     id="metadata8">
    <rdf:RDF>
      <cc:Work
         rdf:about="">
        <dc:format>image/svg+xml</dc:format>
        <dc:type
           rdf:resource="http://purl.org/dc/dcmitype/StillImage" />
        <dc:title />
      </cc:Work>
    </rdf:RDF>
  </metadata>
  <defs
     id="defs6" />
  <sodipodi:namedview
     pagecolor="#ffffff"
     bordercolor="#666666"
     borderopacity="1"
     objecttolerance="10"
     gridtolerance="10"
     guidetolerance="10"
     inkscape:pageopacity="0"
     inkscape:pageshadow="2"
     inkscape:window-width="1366"
     inkscape:window-height="718"
     id="namedview4"
     showgrid="false"
     inkscape:zoom="0.4609375"
     inkscape:cx="726.36602"
     inkscape:cy="225.05496"
     inkscape:window-x="0"
     inkscape:window-y="25"
     inkscape:window-maximized="1"
     inkscape:current-layer="svg2" />
  <g
     id="g839">
    <path
       style="fill:#3689e6;fill-opacity:1;stroke-width:11.10955811"
       inkscape:connector-curvature="0"
       d="m 432.91327,56.47396 c 102.19291,88.57459 105.82678,249.6997 8.1168,359.89879 C 343.3201,526.57188 181.27964,544.10058 79.086729,455.52601 -23.106186,366.95142 -26.740042,205.8263 70.969928,95.62722 168.6799,-14.57186 330.72036,-32.10063 432.91327,56.47396 Z"
       id="path27" />
    <path
       style="opacity:1;fill:#000000;fill-opacity:0.49019608;stroke-width:11.10955811"
       inkscape:connector-curvature="0"
       d="m 511.63551,224.9035 c -1.55139,61.31165 -25.16123,124.15461 -70.96638,175.81448 -97.70998,110.1991 -259.75044,127.7279 -361.943354,39.1533 C 30.827124,398.35562 4.4968216,340.92283 0.19382774,280.22879 0.7990794,346.58547 27.117411,410.48216 79.078682,455.51905 181.27159,544.09368 343.31975,526.55618 441.02202,416.36575 490.72697,360.30765 514.02704,291.07479 511.63551,224.9035 Z"
       id="path51" />
    <path
       style="fill:#000000;fill-opacity:0.48627451;stroke-width:1.24800003"
       d="m 275.59666,120 c -2.5982,0 -5.0546,1.16993 -6.6934,3.18337 C 264.49826,128.60042 161,256.51222 161,317.40581 161,380.59298 212.40606,432 275.59666,432 c 63.1907,0 114.6039,-51.40702 114.6039,-114.59419 0,-60.89359 -103.503,-188.8089 -107.9081,-194.22243 C 280.65366,121.16993 278.19486,120 275.59666,120 Z m -59.0094,180.49688 c 4.7657,0 8.6287,3.86058 8.6287,8.62631 0,32.34819 26.3138,58.66087 58.6585,58.66087 4.7657,0 8.6286,3.86058 8.6286,8.62631 0,4.76574 -3.858,8.63363 -8.6238,8.63363 -41.8621,0 -75.9184,-34.05866 -75.9184,-75.92081 0,-4.76573 3.8606,-8.62631 8.6264,-8.62631 z"
       id="path833"
       inkscape:connector-curvature="0" />
    <path
       inkscape:connector-curvature="0"
       id="path4"
       d="m 255.59666,100 c -2.5982,0 -5.0546,1.16993 -6.6934,3.18337 C 244.49826,108.60042 141,236.51222 141,297.40581 141,360.59298 192.40606,412 255.59666,412 c 63.1907,0 114.6039,-51.40702 114.6039,-114.59419 0,-60.89359 -103.503,-188.8089 -107.9081,-194.22243 C 260.65366,101.16993 258.19486,100 255.59666,100 Z m -59.0094,180.49688 c 4.7657,0 8.6287,3.86058 8.6287,8.62631 0,32.34819 26.3138,58.66087 58.6585,58.66087 4.7657,0 8.6286,3.86058 8.6286,8.62631 0,4.76574 -3.858,8.63363 -8.6238,8.63363 -41.8621,0 -75.9184,-34.05866 -75.9184,-75.92081 0,-4.76573 3.8606,-8.62631 8.6264,-8.62631 z"
       style="fill:#ffffff;fill-opacity:1;stroke-width:1.24800003" />
  </g>
</svg>
