<?xml version="1.0" encoding="UTF-8" standalone="no"?>
<!-- Generator: Adobe Illustrator 19.0.0, SVG Export Plug-In . SVG Version: 6.00 Build 0)  -->

<svg
   xmlns:dc="http://purl.org/dc/elements/1.1/"
   xmlns:cc="http://creativecommons.org/ns#"
   xmlns:rdf="http://www.w3.org/1999/02/22-rdf-syntax-ns#"
   xmlns:svg="http://www.w3.org/2000/svg"
   xmlns="http://www.w3.org/2000/svg"
   xmlns:sodipodi="http://sodipodi.sourceforge.net/DTD/sodipodi-0.dtd"
   xmlns:inkscape="http://www.inkscape.org/namespaces/inkscape"
   version="1.1"
   id="Layer_1"
   x="0px"
   y="0px"
   viewBox="0 0 512 512"
   xml:space="preserve"
   inkscape:version="0.92.3 (2405546, 2018-03-11)"
   width="512"
   height="512"
   sodipodi:docname="Launchpad-launchpad.net.svg"><metadata
     id="metadata57"><rdf:RDF><cc:Work
         rdf:about=""><dc:format>image/svg+xml</dc:format><dc:type
           rdf:resource="http://purl.org/dc/dcmitype/StillImage" /><dc:title></dc:title></cc:Work></rdf:RDF></metadata><defs
     id="defs55" /><sodipodi:namedview
     pagecolor="#ffffff"
     bordercolor="#666666"
     borderopacity="1"
     objecttolerance="10"
     gridtolerance="10"
     guidetolerance="10"
     inkscape:pageopacity="0"
     inkscape:pageshadow="2"
     inkscape:window-width="1366"
     inkscape:window-height="718"
     id="namedview53"
     showgrid="false"
     inkscape:zoom="0.50000001"
     inkscape:cx="617.05663"
     inkscape:cy="196.09813"
     inkscape:window-x="0"
     inkscape:window-y="25"
     inkscape:window-maximized="1"
     inkscape:current-layer="Layer_1"
     units="px" /><g
     id="g23"
     transform="translate(0,550.767)" /><g
     id="g25"
     transform="translate(0,550.767)" /><g
     id="g27"
     transform="translate(0,550.767)" /><g
     id="g29"
     transform="translate(0,550.767)" /><g
     id="g31"
     transform="translate(0,550.767)" /><g
     id="g33"
     transform="translate(0,550.767)" /><g
     id="g35"
     transform="translate(0,550.767)" /><g
     id="g37"
     transform="translate(0,550.767)" /><g
     id="g39"
     transform="translate(0,550.767)" /><g
     id="g41"
     transform="translate(0,550.767)" /><g
     id="g43"
     transform="translate(0,550.767)" /><g
     id="g45"
     transform="translate(0,550.767)" /><g
     id="g47"
     transform="translate(0,550.767)" /><g
     id="g49"
     transform="translate(0,550.767)" /><g
     id="g51"
     transform="translate(0,550.767)" /><g
     id="g935"><path
       style="fill:#8a715e;fill-opacity:1;stroke-width:11.10955811"
       inkscape:connector-curvature="0"
       d="M 432.91326,56.474004 C 535.10618,145.04859 538.74006,306.17371 441.03006,416.37278 343.32009,526.57181 181.27964,544.10061 79.086726,455.52604 -23.106185,366.95145 -26.740041,205.82633 70.969924,95.627264 168.6799,-14.571816 330.72036,-32.100586 432.91326,56.474004 Z"
       id="path27" /><path
       style="opacity:1;fill:#000000;fill-opacity:0.49019608;stroke-width:11.10955811"
       inkscape:connector-curvature="0"
       d="m 511.63549,224.90353 c -1.5514,61.31165 -25.16122,124.15461 -70.96637,175.81446 C 342.95914,510.91711 180.91869,528.44581 78.725773,439.87129 30.827124,398.35563 4.4968208,340.92285 0.19382883,280.22883 0.7990788,346.58548 27.117409,410.48218 79.078679,455.51906 181.27159,544.09361 343.31974,526.55621 441.02201,416.36577 c 49.70496,-56.05809 73.005,-125.29094 70.61348,-191.46224 z"
       id="path51" /><g
       style="fill:#000000;fill-opacity:0.49019608"
       transform="translate(20,20)"
       id="g915"><path
         transform="matrix(5.7485788,-1.1505945,1.1505945,5.7485788,2604.2907,-325.34304)"
         d="m -403.7717,26.354439 -0.003,0.0035 -11.25686,3.690551 -0.004,-4.48e-4 -8.82454,-7.903455 -0.002,-0.0039 2.43232,-11.594006 0.003,-0.0035 11.25686,-3.6905502 0.004,4.476e-4 8.82454,7.9034546 0.002,0.0039 z"
         inkscape:randomized="0"
         inkscape:rounded="0"
         inkscape:flatsided="false"
         sodipodi:arg2="0.73053962"
         sodipodi:arg1="0.73017798"
         sodipodi:r2="11.85033"
         sodipodi:r1="11.849889"
         sodipodi:cy="18.450537"
         sodipodi:cx="-412.60052"
         sodipodi:sides="6"
         id="path901"
         style="opacity:1;fill:#000000;fill-opacity:0.49019608;stroke:none;stroke-width:0.2;stroke-miterlimit:4;stroke-dasharray:none;stroke-opacity:1"
         sodipodi:type="star" /><path
         inkscape:connector-curvature="0"
         id="path903"
         d="m 182.57707,203.69466 60.45801,-35.54199 -0.73283,-67.78627 -116.15267,67.41985 z"
         style="fill:#000000;fill-opacity:0.49019608;fill-rule:evenodd;stroke:none;stroke-width:0.67105323px;stroke-linecap:butt;stroke-linejoin:miter;stroke-opacity:1" /><path
         inkscape:connector-curvature="0"
         id="path905"
         d="M 325.29462,203.32824 264.8366,167.78625 265.56943,99.999999 381.7221,167.41984 Z"
         style="fill:#000000;fill-opacity:0.49019608;fill-rule:evenodd;stroke:none;stroke-width:0.67105323px;stroke-linecap:butt;stroke-linejoin:miter;stroke-opacity:1" /><path
         inkscape:connector-curvature="0"
         id="path907"
         d="m 181.93587,308.30534 60.45802,35.54199 -0.73283,67.78625 -116.15267,-67.41984 z"
         style="fill:#000000;fill-opacity:0.49019608;fill-rule:evenodd;stroke:none;stroke-width:0.67105323px;stroke-linecap:butt;stroke-linejoin:miter;stroke-opacity:1" /><path
         inkscape:connector-curvature="0"
         id="path909"
         d="M 324.65343,308.67176 264.19541,344.21374 264.92824,412 381.08091,344.58015 Z"
         style="fill:#000000;fill-opacity:0.49019608;fill-rule:evenodd;stroke:none;stroke-width:0.67105323px;stroke-linecap:butt;stroke-linejoin:miter;stroke-opacity:1" /><path
         inkscape:connector-curvature="0"
         id="path911"
         d="M 175.4743,219.13676 174.68408,289.26364 115.5,322.32062 116.26871,188.02138 Z"
         style="fill:#000000;fill-opacity:0.49019608;fill-rule:evenodd;stroke:none;stroke-width:0.67105323px;stroke-linecap:butt;stroke-linejoin:miter;stroke-opacity:1" /><path
         inkscape:connector-curvature="0"
         id="path913"
         d="m 336.52888,220.42377 0.79021,70.12689 59.18408,33.05698 -0.7687,-134.29925 z"
         style="fill:#000000;fill-opacity:0.49019608;fill-rule:evenodd;stroke:none;stroke-width:0.67105323px;stroke-linecap:butt;stroke-linejoin:miter;stroke-opacity:1" /></g><g
       id="g899"><path
         sodipodi:type="star"
         style="opacity:1;fill:#f9c440;fill-opacity:1;stroke:none;stroke-width:0.2;stroke-miterlimit:4;stroke-dasharray:none;stroke-opacity:1"
         id="path4171"
         sodipodi:sides="6"
         sodipodi:cx="-412.60052"
         sodipodi:cy="18.450537"
         sodipodi:r1="11.849889"
         sodipodi:r2="11.85033"
         sodipodi:arg1="0.73017798"
         sodipodi:arg2="0.73053962"
         inkscape:flatsided="false"
         inkscape:rounded="0"
         inkscape:randomized="0"
         d="m -403.7717,26.354439 -0.003,0.0035 -11.25686,3.690551 -0.004,-4.48e-4 -8.82454,-7.903455 -0.002,-0.0039 2.43232,-11.594006 0.003,-0.0035 11.25686,-3.6905502 0.004,4.476e-4 8.82454,7.9034546 0.002,0.0039 z"
         transform="matrix(5.7485788,-1.1505945,1.1505945,5.7485788,2604.2907,-325.34304)" /><path
         style="fill:#ffffff;fill-opacity:1;fill-rule:evenodd;stroke:none;stroke-width:0.67105323px;stroke-linecap:butt;stroke-linejoin:miter;stroke-opacity:1"
         d="m 182.57707,203.69466 60.45801,-35.54199 -0.73283,-67.78627 -116.15267,67.41985 z"
         id="path4173"
         inkscape:connector-curvature="0" /><path
         style="fill:#68b723;fill-opacity:1;fill-rule:evenodd;stroke:none;stroke-width:0.67105323px;stroke-linecap:butt;stroke-linejoin:miter;stroke-opacity:1"
         d="M 325.29462,203.32824 264.8366,167.78625 265.56943,99.999999 381.7221,167.41984 Z"
         id="path4173-3"
         inkscape:connector-curvature="0" /><path
         style="fill:#a56de2;fill-opacity:1;fill-rule:evenodd;stroke:none;stroke-width:0.67105323px;stroke-linecap:butt;stroke-linejoin:miter;stroke-opacity:1"
         d="m 181.93587,308.30534 60.45802,35.54199 -0.73283,67.78625 -116.15267,-67.41984 z"
         id="path4173-6"
         inkscape:connector-curvature="0" /><path
         style="fill:#c6262e;fill-opacity:1;fill-rule:evenodd;stroke:none;stroke-width:0.67105323px;stroke-linecap:butt;stroke-linejoin:miter;stroke-opacity:1"
         d="M 324.65343,308.67176 264.19541,344.21374 264.92824,412 381.08091,344.58015 Z"
         id="path4173-3-7"
         inkscape:connector-curvature="0" /><path
         style="fill:#3689e6;fill-opacity:1;fill-rule:evenodd;stroke:none;stroke-width:0.67105323px;stroke-linecap:butt;stroke-linejoin:miter;stroke-opacity:1"
         d="M 175.4743,219.13676 174.68408,289.26364 115.5,322.32062 116.26871,188.02138 Z"
         id="path4173-6-5"
         inkscape:connector-curvature="0" /><path
         style="fill:#d48e15;fill-opacity:1;fill-rule:evenodd;stroke:none;stroke-width:0.67105323px;stroke-linecap:butt;stroke-linejoin:miter;stroke-opacity:1"
         d="m 336.52888,220.42377 0.79021,70.12689 59.18408,33.05698 -0.7687,-134.29925 z"
         id="path4173-6-5-3"
         inkscape:connector-curvature="0" /></g></g></svg>