<?xml version="1.0" encoding="UTF-8" standalone="no"?>
<!-- Created with Inkscape (http://www.inkscape.org/) -->

<svg
   xmlns:dc="http://purl.org/dc/elements/1.1/"
   xmlns:cc="http://creativecommons.org/ns#"
   xmlns:rdf="http://www.w3.org/1999/02/22-rdf-syntax-ns#"
   xmlns:svg="http://www.w3.org/2000/svg"
   xmlns="http://www.w3.org/2000/svg"
   xmlns:sodipodi="http://sodipodi.sourceforge.net/DTD/sodipodi-0.dtd"
   xmlns:inkscape="http://www.inkscape.org/namespaces/inkscape"
   id="svg2"
   version="1.1"
   inkscape:version="0.92.3 (2405546, 2018-03-11)"
   width="512"
   height="512"
   sodipodi:docname="libreoffice3-writer.svg"
   viewBox="0 0 512 512">
  <metadata
     id="metadata8">
    <rdf:RDF>
      <cc:Work
         rdf:about="">
        <dc:format>image/svg+xml</dc:format>
        <dc:type
           rdf:resource="http://purl.org/dc/dcmitype/StillImage" />
        <dc:title />
      </cc:Work>
    </rdf:RDF>
  </metadata>
  <defs
     id="defs6" />
  <sodipodi:namedview
     pagecolor="#ffffff"
     bordercolor="#666666"
     borderopacity="1"
     objecttolerance="10"
     gridtolerance="10"
     guidetolerance="10"
     inkscape:pageopacity="0"
     inkscape:pageshadow="2"
     inkscape:window-width="1366"
     inkscape:window-height="718"
     id="namedview4"
     showgrid="false"
     inkscape:zoom="0.5"
     inkscape:cx="170.71656"
     inkscape:cy="292.36226"
     inkscape:window-x="0"
     inkscape:window-y="25"
     inkscape:window-maximized="1"
     inkscape:current-layer="svg2" />
  <g
     id="g907">
    <path
       id="path943"
       d="m 432.91326,56.474 c 102.19291,88.57459 105.82678,249.69971 8.1168,359.89879 C 343.32009,526.57182 181.27965,544.10062 79.086741,455.52604 -23.106205,366.95146 -26.740032,205.82634 70.969941,95.62726 168.67991,-14.57182 330.72036,-32.10059 432.91326,56.474 Z"
       inkscape:connector-curvature="0"
       style="fill:#3689e6;fill-opacity:1;stroke-width:11.10955811" />
    <path
       id="path947"
       d="m 511.6355,224.90355 c -1.55139,61.31164 -25.16123,124.1546 -70.96638,175.81447 C 342.95915,510.91712 180.9187,528.44582 78.725758,439.87132 30.827125,398.35567 4.4968187,340.92287 0.19382679,280.22884 0.79907979,346.58551 27.117405,410.48221 79.07869,455.51914 181.2716,544.09362 343.31975,526.55622 441.02201,416.3658 490.72696,360.30769 514.02703,291.07483 511.6355,224.90355 Z"
       inkscape:connector-curvature="0"
       style="opacity:1;fill:#000000;fill-opacity:0.49019608;stroke-width:11.10955811" />
    <g
       style="fill:#000000;fill-opacity:0.49019608"
       id="g895"
       transform="matrix(1.1323247,0,0,1.1323247,-12.680477,-555.79725)">
      <path
         sodipodi:nodetypes="ccccsccscsscccccccccccccccccccccccc"
         inkscape:connector-curvature="0"
         id="path889"
         d="m 169.80093,871.82472 c -25.73207,-2.4948 -47.04867,-22.8181 -50.88028,-48.5094 -0.22452,-1.5055 -0.41111,-42.25665 -0.41465,-90.55818 l -0.006,-87.82095 1.30585,-4.74017 c 3.0651,-11.12616 7.82682,-19.4983 15.30101,-26.90251 6.43805,-6.37775 13.54885,-10.76843 22.23146,-13.72717 8.28134,-2.82201 5.44519,-2.74329 98.83482,-2.74329 h 87.82098 l 4.63741,1.29908 c 16.27752,4.55982 27.25721,12.90498 35.89622,27.28308 2.97475,4.95094 6.03871,13.82464 6.94391,20.11066 0.13774,0.95647 0.27188,26.0637 0.29809,55.79385 l -0.14418,129.1229 c -2.14093,6.9318 -3.84492,10.5616 -7.62455,16.2421 -9.63889,14.4863 -24.7657,23.4836 -42.35788,25.1941 -7.0432,0.6847 -164.7414,0.6443 -171.84178,-0.044 z m 159.3535,-25.4821 c 19.546,-3.1715 35.69326,-19.3187 38.86471,-38.86473 0.38156,-2.35157 0.60364,-21.43672 0.60642,-52.11476 l 0.005,-48.40443 -43.64035,-43.63748 -43.64034,-43.63748 -50.99183,0.16368 -50.99183,0.16368 -4.05773,1.37032 c -16.24568,5.48624 -27.24754,16.58964 -32.26247,32.56018 l -1.35876,4.32715 v 75.06806 75.0681 l 1.35876,4.32717 c 5.48127,17.45564 19.39241,30.20454 36.65363,33.59104 3.79454,0.7445 144.87386,0.7629 149.45541,0.02 z"
         style="fill:#000000;stroke-width:0.57967639;fill-opacity:0.49019608" />
      <g
         id="g893"
         style="font-style:normal;font-weight:normal;font-size:40px;line-height:1.25;font-family:sans-serif;letter-spacing:0px;word-spacing:0px;fill:#000000;fill-opacity:0.49019608;stroke:none"
         transform="translate(19.076924,535.4391)"
         aria-label="W">
        <path
           id="path891"
           style="font-style:normal;font-variant:normal;font-weight:normal;font-stretch:normal;font-size:173.33332825px;font-family:'Comic Sans MS';-inkscape-font-specification:'Comic Sans MS';fill:#000000;fill-opacity:0.49019608"
           d="m 262.12369,274.73147 q -3.89322,0 -6.85546,-2.20052 -3.38542,-2.53906 -3.38542,-6.26302 -3.89323,-10.24089 -4.90885,-16.67318 -1.01563,-6.43229 -6.6862,-36.47786 -4.31641,-22.76693 -5.75521,-36.5625 -7.53255,27.92969 -16.16536,47.3112 -9.98698,22.42838 -12.94922,35.12369 1.01562,1.94662 1.01562,3.8086 0,3.80859 -3.38541,6.26302 -3.04688,2.28515 -6.94011,2.28515 -11.42578,0 -11.42578,-10.24088 l -2.6237,-10.7487 -9.22526,-41.47135 q -5.5013,-20.98959 -18.78906,-60.17578 -0.59245,-1.86198 -0.59245,-3.38542 0,-7.87109 8.88672,-7.87109 5.5013,0 8.46354,6.00911 1.52344,3.04688 6.17839,17.51953 4.99349,15.31901 9.98698,36.90104 l 8.20963,37.40886 q 9.05599,-20.98959 18.02734,-51.11979 5.50131,-18.36589 8.37891,-25.47526 7.61719,-18.70443 14.8112,-18.70443 5.92448,0 8.3789,6.00911 3.04688,7.27865 6.17839,34.70052 1.69271,13.88021 5.75521,33.34636 l 7.27864,33.26171 q 11.34115,-27.2526 28.35287,-73.71744 0.93099,-2.53906 4.23177,-15.99609 2.45442,-9.90235 6.00911,-15.40365 3.04688,-4.65495 7.95573,-4.65495 8.54818,0 8.54818,8.46354 0,1.43881 -2.70834,8.46355 l -3.38541,9.14062 -4.65495,15.0651 -25.13672,61.10677 q -3.47005,10.07162 -11.93359,29.28386 -3.04688,5.67057 -9.14063,5.67057 z"
           inkscape:connector-curvature="0" />
      </g>
    </g>
    <g
       transform="matrix(1.1323247,0,0,1.1323247,-32.680477,-575.79725)"
       id="g957">
      <path
         style="fill:#ffffff;stroke-width:0.57967639"
         d="m 169.80093,871.82472 c -25.73207,-2.4948 -47.04867,-22.8181 -50.88028,-48.5094 -0.22452,-1.5055 -0.41111,-42.25665 -0.41465,-90.55818 l -0.006,-87.82095 1.30585,-4.74017 c 3.0651,-11.12616 7.82682,-19.4983 15.30101,-26.90251 6.43805,-6.37775 13.54885,-10.76843 22.23146,-13.72717 8.28134,-2.82201 5.44519,-2.74329 98.83482,-2.74329 h 87.82098 l 4.63741,1.29908 c 16.27752,4.55982 27.25721,12.90498 35.89622,27.28308 2.97475,4.95094 6.03871,13.82464 6.94391,20.11066 0.13774,0.95647 0.27188,26.0637 0.29809,55.79385 l -0.14418,129.1229 c -2.14093,6.9318 -3.84492,10.5616 -7.62455,16.2421 -9.63889,14.4863 -24.7657,23.4836 -42.35788,25.1941 -7.0432,0.6847 -164.7414,0.6443 -171.84178,-0.044 z m 159.3535,-25.4821 c 19.546,-3.1715 35.69326,-19.3187 38.86471,-38.86473 0.38156,-2.35157 0.60364,-21.43672 0.60642,-52.11476 l 0.005,-48.40443 -43.64035,-43.63748 -43.64034,-43.63748 -50.99183,0.16368 -50.99183,0.16368 -4.05773,1.37032 c -16.24568,5.48624 -27.24754,16.58964 -32.26247,32.56018 l -1.35876,4.32715 v 75.06806 75.0681 l 1.35876,4.32717 c 5.48127,17.45564 19.39241,30.20454 36.65363,33.59104 3.79454,0.7445 144.87386,0.7629 149.45541,0.02 z"
         id="path910"
         inkscape:connector-curvature="0"
         sodipodi:nodetypes="ccccsccscsscccccccccccccccccccccccc" />
      <g
         aria-label="W"
         transform="translate(19.076924,535.4391)"
         style="font-style:normal;font-weight:normal;font-size:40px;line-height:1.25;font-family:sans-serif;letter-spacing:0px;word-spacing:0px;fill:#ffffff;fill-opacity:1;stroke:none"
         id="flowRoot912">
        <path
           inkscape:connector-curvature="0"
           d="m 262.12369,274.73147 q -3.89322,0 -6.85546,-2.20052 -3.38542,-2.53906 -3.38542,-6.26302 -3.89323,-10.24089 -4.90885,-16.67318 -1.01563,-6.43229 -6.6862,-36.47786 -4.31641,-22.76693 -5.75521,-36.5625 -7.53255,27.92969 -16.16536,47.3112 -9.98698,22.42838 -12.94922,35.12369 1.01562,1.94662 1.01562,3.8086 0,3.80859 -3.38541,6.26302 -3.04688,2.28515 -6.94011,2.28515 -11.42578,0 -11.42578,-10.24088 l -2.6237,-10.7487 -9.22526,-41.47135 q -5.5013,-20.98959 -18.78906,-60.17578 -0.59245,-1.86198 -0.59245,-3.38542 0,-7.87109 8.88672,-7.87109 5.5013,0 8.46354,6.00911 1.52344,3.04688 6.17839,17.51953 4.99349,15.31901 9.98698,36.90104 l 8.20963,37.40886 q 9.05599,-20.98959 18.02734,-51.11979 5.50131,-18.36589 8.37891,-25.47526 7.61719,-18.70443 14.8112,-18.70443 5.92448,0 8.3789,6.00911 3.04688,7.27865 6.17839,34.70052 1.69271,13.88021 5.75521,33.34636 l 7.27864,33.26171 q 11.34115,-27.2526 28.35287,-73.71744 0.93099,-2.53906 4.23177,-15.99609 2.45442,-9.90235 6.00911,-15.40365 3.04688,-4.65495 7.95573,-4.65495 8.54818,0 8.54818,8.46354 0,1.43881 -2.70834,8.46355 l -3.38541,9.14062 -4.65495,15.0651 -25.13672,61.10677 q -3.47005,10.07162 -11.93359,29.28386 -3.04688,5.67057 -9.14063,5.67057 z"
           style="font-style:normal;font-variant:normal;font-weight:normal;font-stretch:normal;font-size:173.33332825px;font-family:'Comic Sans MS';-inkscape-font-specification:'Comic Sans MS';fill:#ffffff"
           id="path920" />
      </g>
    </g>
  </g>
</svg>
