<?xml version="1.0" encoding="UTF-8" standalone="no"?>
<!-- Created using Karbon, part of Calligra: http://www.calligra.org/karbon -->

<svg
   xmlns:dc="http://purl.org/dc/elements/1.1/"
   xmlns:cc="http://creativecommons.org/ns#"
   xmlns:rdf="http://www.w3.org/1999/02/22-rdf-syntax-ns#"
   xmlns:svg="http://www.w3.org/2000/svg"
   xmlns="http://www.w3.org/2000/svg"
   xmlns:sodipodi="http://sodipodi.sourceforge.net/DTD/sodipodi-0.dtd"
   xmlns:inkscape="http://www.inkscape.org/namespaces/inkscape"
   width="512"
   height="512"
   id="svg2"
   version="1.1"
   inkscape:version="0.92.3 (2405546, 2018-03-11)"
   sodipodi:docname="linphone.svg">
  <metadata
     id="metadata11">
    <rdf:RDF>
      <cc:Work
         rdf:about="">
        <dc:format>image/svg+xml</dc:format>
        <dc:type
           rdf:resource="http://purl.org/dc/dcmitype/StillImage" />
        <dc:title></dc:title>
      </cc:Work>
    </rdf:RDF>
  </metadata>
  <sodipodi:namedview
     pagecolor="#ffffff"
     bordercolor="#666666"
     borderopacity="1"
     objecttolerance="10"
     gridtolerance="10"
     guidetolerance="10"
     inkscape:pageopacity="0"
     inkscape:pageshadow="2"
     inkscape:window-width="1366"
     inkscape:window-height="718"
     id="namedview9"
     showgrid="false"
     inkscape:showpageshadow="false"
     borderlayer="true"
     inkscape:zoom="0.6145833"
     inkscape:cx="558.37332"
     inkscape:cy="226.53144"
     inkscape:window-x="0"
     inkscape:window-y="25"
     inkscape:window-maximized="1"
     inkscape:current-layer="svg2"
     showguides="false">
    <sodipodi:guide
       position="9.5367432e-07,48.000001"
       orientation="47.999999,0"
       id="guide4069"
       inkscape:locked="false" />
    <sodipodi:guide
       position="9.5367432e-07,1.9073486e-06"
       orientation="0,47.999999"
       id="guide4071"
       inkscape:locked="false" />
    <sodipodi:guide
       position="48,1.9073486e-06"
       orientation="-47.999999,0"
       id="guide4073"
       inkscape:locked="false" />
    <sodipodi:guide
       position="48,48.000001"
       orientation="0,-47.999999"
       id="guide4075"
       inkscape:locked="false" />
    <sodipodi:guide
       position="4.000001,44.000001"
       orientation="39.999999,0"
       id="guide4077"
       inkscape:locked="false" />
    <sodipodi:guide
       position="4.000001,4.0000019"
       orientation="0,39.999999"
       id="guide4079"
       inkscape:locked="false" />
    <sodipodi:guide
       position="44,4.0000019"
       orientation="-39.999999,0"
       id="guide4081"
       inkscape:locked="false" />
    <sodipodi:guide
       position="44,44.000001"
       orientation="0,-39.999999"
       id="guide4083"
       inkscape:locked="false" />
  </sodipodi:namedview>
  <defs
     id="defs4" />
  <g
     id="g851"
     transform="translate(0,384)">
    <path
       style="fill:#f37329;fill-opacity:1;stroke-width:11.10955811"
       inkscape:connector-curvature="0"
       d="m 432.91327,-327.52602 c 102.19291,88.57459 105.82678,249.69971 8.1168,359.89879 C 343.3201,142.57182 181.27964,160.10062 79.086727,71.52603 -23.106185,-17.04856 -26.740041,-178.17368 70.969927,-288.37276 168.6799,-398.57184 330.72036,-416.10061 432.91327,-327.52602 Z"
       id="path27" />
    <path
       style="opacity:1;fill:#000000;fill-opacity:0.49019608;stroke-width:11.10955811"
       inkscape:connector-curvature="0"
       d="M 511.63551,-159.09647 C 510.08412,-97.78482 486.47428,-34.94186 440.66913,16.718 342.95915,126.91712 180.91869,144.44582 78.725777,55.8713 30.827125,14.35565 4.4968208,-43.07715 0.19382689,-103.77118 0.79907889,-37.41451 27.117413,26.48218 79.078687,71.51908 181.27159,160.09362 343.31975,142.55622 441.02202,32.36578 c 49.70495,-56.05811 73.00502,-125.29097 70.61349,-191.46225 z"
       id="path51" />
    <path
       style="fill:#000000;fill-opacity:0.49019608;stroke-width:2.74917221"
       d="M 206.31611,46.416359 C 108.2764,28.024827 87.385657,-89.901325 176.78929,-124.03608 c 16.80345,-6.41564 59.92325,-10.65741 76.09258,-7.48533 7.06834,1.38665 17.78521,-1.3801 31.03718,-8.01276 11.13257,-5.5719 24.31113,-12.16788 29.28569,-14.65773 l 9.04467,-4.52701 -6.1602,22.31578 -6.16021,22.31578 14.37067,13.5627 c 18.46559,17.427395 28.11486,35.765847 30.13822,57.277723 2.64668,28.139049 -12.95191,54.545668 -43.87862,74.281542 -18.24816,11.645093 -75.5744,20.759817 -104.24316,15.381771 z m 87.59021,-23.603495 c 16.85482,-8.54351 32.96776,-29.0366265 35.42313,-45.052571 4.80488,-31.341469 -27.00304,-68.935698 -67.62478,-79.926663 -44.14443,-11.94411 -93.93784,-0.82878 -116.08134,25.912721 -14.20778,17.157959 -17.23152,36.355953 -9.14352,58.05295 19.22102,51.562572 96.76174,71.763892 157.42651,41.013563 z M 206.47348,19.201863 C 167.54588,8.9309575 144.70334,-14.67869 151.70631,-37.40451 c 4.25318,-13.802258 9.30344,-15.705481 26.16345,-9.85987 12.93544,4.484901 19.41091,16.693252 13.47045,25.396132 -5.64066,8.263679 5.37439,17.1231895 26.55353,21.35724448 21.93628,4.38542802 36.31708,0.455873 37.13329,-10.14667948 1.34007,-17.407397 22.72234,-26.902496 38.88457,-17.267246 11.48825,6.848828 7.27656,26.5712025 -8.13098,38.075389 -14.87206,11.104406 -54.41937,15.617945 -79.30714,9.051403 z M 345.12513,-184.81307 c -13.81937,-8.48063 -18.32474,-9.02477 -41.68754,-5.03484 -21.93951,3.74687 -25.5007,3.45821 -21.92699,-1.77735 7.24399,-10.61257 34.11684,-18.44212 52.50981,-15.29901 18.01984,3.07935 38.98048,18.69628 35.2378,26.2543 -3.46536,6.99804 -6.95448,6.39904 -24.13308,-4.1431 z m 41.04893,-13.0296 c -21.13018,-26.86876 -62.34452,-33.19431 -96.76911,-14.85206 -13.29975,7.08642 -14.79874,7.28167 -10.78748,1.40507 22.35196,-32.74601 100.59132,-33.897 121.22195,-1.7833 17.60505,27.40404 6.04258,40.29056 -13.66536,15.23029 z m 34.12392,-11.69219 c -13.27215,-28.77337 -52.77345,-45.0573 -92.39128,-38.08721 l -24.08412,4.23718 14.13297,-7.4715 c 31.70701,-16.76216 88.93647,-3.4529 105.60861,24.56027 9.33247,15.68084 10.56252,21.3677 5.45672,25.22789 -1.96452,1.48527 -5.88982,-2.32472 -8.7229,-8.46663 z"
       id="path845"
       inkscape:connector-curvature="0"
       sodipodi:nodetypes="csssscccsssccsssssssssssssssssssssssssssscssss" />
    <path
       sodipodi:nodetypes="csssscccsssccsssssssssssssssssssssssssssscssss"
       inkscape:connector-curvature="0"
       id="path4152"
       d="M 186.31611,23.416364 C 88.276403,5.0248317 67.385657,-112.90132 156.78929,-147.03608 c 16.80345,-6.41564 59.92325,-10.65741 76.09258,-7.48533 7.06834,1.38665 17.78521,-1.3801 31.03718,-8.01276 11.13257,-5.5719 24.31113,-12.16788 29.28569,-14.65773 l 9.04467,-4.52701 -6.1602,22.31578 -6.16021,22.31578 14.37067,13.5627 c 18.46559,17.4274 28.11486,35.765852 30.13822,57.277728 2.64668,28.139049 -12.95191,54.545668 -43.87862,74.2815411 C 272.31111,19.679713 214.98487,28.794437 186.31611,23.416391 Z m 87.59021,-23.60349563 c 16.85482,-8.54350957 32.96776,-29.03662637 35.42313,-45.05257037 4.80488,-31.341469 -27.00304,-68.935698 -67.62478,-79.926668 -44.14443,-11.94411 -93.93784,-0.82878 -116.08134,25.912726 -14.20778,17.157959 -17.23152,36.355953 -9.14352,58.05295 19.22102,51.562572 96.76174,71.763892 157.42651,41.01356237 z M 186.47348,-3.7981325 c -38.9276,-10.2709055 -61.77014,-33.8805525 -54.76717,-56.6063725 4.25318,-13.802258 9.30344,-15.705481 26.16345,-9.85987 12.93544,4.484901 19.41091,16.693252 13.47045,25.396132 -5.64066,8.263679 5.37439,17.123189 26.55353,21.357244 21.93628,4.385428 36.31708,0.455873 37.13329,-10.146679 1.34007,-17.407397 22.72234,-26.902496 38.88457,-17.267246 11.48825,6.848828 7.27656,26.571202 -8.13098,38.075389 -14.87206,11.1044051 -54.41937,15.6179442 -79.30714,9.0514025 z M 325.12513,-207.81307 c -13.81937,-8.48063 -18.32474,-9.02477 -41.68754,-5.03484 -21.93951,3.74687 -25.5007,3.45821 -21.92699,-1.77735 7.24399,-10.61257 34.11684,-18.44212 52.50981,-15.29901 18.01984,3.07935 38.98048,18.69628 35.2378,26.2543 -3.46536,6.99804 -6.95448,6.39904 -24.13308,-4.1431 z m 41.04893,-13.0296 c -21.13018,-26.86876 -62.34452,-33.19431 -96.76911,-14.85206 -13.29975,7.08642 -14.79874,7.28167 -10.78748,1.40507 22.35196,-32.74601 100.59132,-33.897 121.22195,-1.7833 17.60505,27.40404 6.04258,40.29056 -13.66536,15.23029 z m 34.12392,-11.69219 c -13.27215,-28.77337 -52.77345,-45.0573 -92.39128,-38.08721 l -24.08412,4.23718 14.13297,-7.4715 c 31.70701,-16.76216 88.93647,-3.4529 105.60861,24.56027 9.33247,15.68084 10.56252,21.3677 5.45672,25.22789 -1.96452,1.48527 -5.88982,-2.32472 -8.7229,-8.46663 z"
       style="fill:#ffffff;fill-opacity:1;stroke-width:2.74917221" />
  </g>
</svg>
