<?xml version="1.0" encoding="UTF-8" standalone="no"?>
<!-- Created with Inkscape (http://www.inkscape.org/) -->

<svg
   xmlns:dc="http://purl.org/dc/elements/1.1/"
   xmlns:cc="http://creativecommons.org/ns#"
   xmlns:rdf="http://www.w3.org/1999/02/22-rdf-syntax-ns#"
   xmlns:svg="http://www.w3.org/2000/svg"
   xmlns="http://www.w3.org/2000/svg"
   xmlns:sodipodi="http://sodipodi.sourceforge.net/DTD/sodipodi-0.dtd"
   xmlns:inkscape="http://www.inkscape.org/namespaces/inkscape"
   width="512"
   height="512"
   id="svg2"
   version="1.1"
   inkscape:version="0.92.3 (2405546, 2018-03-11)"
   sodipodi:docname="linuxdcpp.svg">
  <defs
     id="defs4" />
  <sodipodi:namedview
     id="base"
     pagecolor="#ffffff"
     bordercolor="#666666"
     borderopacity="1.0"
     inkscape:pageopacity="0.0"
     inkscape:pageshadow="2"
     inkscape:zoom="0.4289781"
     inkscape:cx="46.609912"
     inkscape:cy="309.05209"
     inkscape:document-units="px"
     inkscape:current-layer="layer1"
     showgrid="false"
     inkscape:window-width="1366"
     inkscape:window-height="718"
     inkscape:window-x="0"
     inkscape:window-y="25"
     inkscape:window-maximized="1" />
  <metadata
     id="metadata7">
    <rdf:RDF>
      <cc:Work
         rdf:about="">
        <dc:format>image/svg+xml</dc:format>
        <dc:type
           rdf:resource="http://purl.org/dc/dcmitype/StillImage" />
        <dc:title></dc:title>
      </cc:Work>
    </rdf:RDF>
  </metadata>
  <g
     inkscape:label="Layer 1"
     inkscape:groupmode="layer"
     id="layer1"
     transform="translate(0,-540.36218)">
    <g
       id="g33"
       transform="matrix(7.0918748,0,0,7.0918748,-216.72006,932.49923)" />
    <g
       transform="translate(-1.4067672e-7,-6.0166003e-6)"
       id="g872">
      <path
         id="path842"
         d="m 432.91327,596.83619 c 102.19291,88.57459 105.82677,249.6997 8.1168,359.89878 C 343.3201,1066.934 181.27963,1084.4628 79.086725,995.88823 -23.10618,907.31364 -26.740045,746.18853 70.969925,635.98945 168.67989,525.79037 330.72037,508.2616 432.91327,596.83619 Z"
         inkscape:connector-curvature="0"
         style="fill:#333333;fill-opacity:1;stroke-width:11.10955715" />
      <path
         id="path845"
         d="M 511.6355,765.26573 C 510.08412,826.57738 486.47428,889.42034 440.66913,941.0802 342.95916,1051.2793 180.91868,1068.8081 78.72578,980.2335 30.827148,938.71785 4.4968428,881.28505 0.1938507,820.59102 0.79910423,886.94769 27.117428,950.84439 79.078675,995.88127 181.27161,1084.4558 343.31976,1066.9184 441.02202,956.72798 490.72697,900.66987 514.02704,831.43702 511.6355,765.26573 Z"
         inkscape:connector-curvature="0"
         style="opacity:1;fill:#000000;fill-opacity:0.49019608;stroke-width:11.10955715" />
      <g
         style="fill:#000000;fill-opacity:0.49019608"
         transform="translate(20,19.999943)"
         id="g860">
        <path
           sodipodi:open="true"
           sodipodi:end="6.2784904"
           sodipodi:start="0"
           d="m 263.3736,722.04901 a 81.686798,81.686798 0 0 1 -81.59092,81.68674 81.686798,81.686798 0 0 1 -81.78245,-81.49498 81.686798,81.686798 0 0 1 81.39893,-81.87805 81.686798,81.686798 0 0 1 81.97354,81.30278"
           sodipodi:ry="81.686798"
           sodipodi:rx="81.686798"
           sodipodi:cy="722.04901"
           sodipodi:cx="181.6868"
           id="path854"
           style="fill:#000000;fill-opacity:0.49019608;stroke:none;stroke-width:0.69333339"
           sodipodi:type="arc" />
        <path
           inkscape:connector-curvature="0"
           id="path856"
           transform="translate(0,540.36218)"
           d="m 226.63672,249.8418 a 81.686798,81.686798 0 0 1 -44.85352,13.53125 81.686798,81.686798 0 0 1 -13.63281,-1.22071 81.686798,81.686798 0 0 0 -36.73242,68.35352 81.686798,81.686798 0 0 0 81.7832,81.49414 81.686798,81.686798 0 0 0 81.58985,-81.6875 v -0.38281 a 81.686798,81.686798 0 0 0 -68.1543,-80.08789 z"
           style="fill:#000000;fill-opacity:0.49019608;stroke:none;stroke-width:0.69333339" />
        <path
           inkscape:connector-curvature="0"
           id="path858"
           transform="translate(0,540.36218)"
           d="m 329.76953,154.75781 a 81.686798,81.686798 0 0 0 -66.83789,35.30078 81.686798,81.686798 0 0 1 -14.04102,38.03321 81.686798,81.686798 0 0 0 -0.52148,8.54297 81.686798,81.686798 0 0 0 2.95117,21.52148 81.686798,81.686798 0 0 1 40.50977,50.42969 81.686798,81.686798 0 0 0 38.32226,9.54492 81.686798,81.686798 0 0 0 81.5918,-81.6875 l -0.002,-0.38281 a 81.686798,81.686798 0 0 0 -81.97266,-81.30274 z"
           style="fill:#000000;fill-opacity:0.49019608;stroke:none;stroke-width:0.69333339" />
      </g>
      <g
         id="g852">
        <path
           sodipodi:type="arc"
           style="fill:#ffffff;fill-opacity:1;stroke:none;stroke-width:0.69333339"
           id="path2996-3"
           sodipodi:cx="181.6868"
           sodipodi:cy="722.04901"
           sodipodi:rx="81.686798"
           sodipodi:ry="81.686798"
           d="m 263.3736,722.04901 a 81.686798,81.686798 0 0 1 -81.59092,81.68674 81.686798,81.686798 0 0 1 -81.78245,-81.49498 81.686798,81.686798 0 0 1 81.39893,-81.87805 81.686798,81.686798 0 0 1 81.97354,81.30278"
           sodipodi:start="0"
           sodipodi:end="6.2784904"
           sodipodi:open="true" />
        <path
           inkscape:connector-curvature="0"
           style="fill:#ffffff;fill-opacity:1;stroke:none;stroke-width:0.69333339"
           d="m 226.63672,249.8418 a 81.686798,81.686798 0 0 1 -44.85352,13.53125 81.686798,81.686798 0 0 1 -13.63281,-1.22071 81.686798,81.686798 0 0 0 -36.73242,68.35352 81.686798,81.686798 0 0 0 81.7832,81.49414 81.686798,81.686798 0 0 0 81.58985,-81.6875 v -0.38281 a 81.686798,81.686798 0 0 0 -68.1543,-80.08789 z"
           transform="translate(0,540.36218)"
           id="path2996-3-6" />
        <path
           inkscape:connector-curvature="0"
           style="fill:#ffffff;fill-opacity:1;stroke:none;stroke-width:0.69333339"
           d="m 329.76953,154.75781 a 81.686798,81.686798 0 0 0 -66.83789,35.30078 81.686798,81.686798 0 0 1 -14.04102,38.03321 81.686798,81.686798 0 0 0 -0.52148,8.54297 81.686798,81.686798 0 0 0 2.95117,21.52148 81.686798,81.686798 0 0 1 40.50977,50.42969 81.686798,81.686798 0 0 0 38.32226,9.54492 81.686798,81.686798 0 0 0 81.5918,-81.6875 l -0.002,-0.38281 a 81.686798,81.686798 0 0 0 -81.97266,-81.30274 z"
           transform="translate(0,540.36218)"
           id="path2996-3-6-7" />
      </g>
    </g>
  </g>
</svg>
