<?xml version="1.0" encoding="UTF-8" standalone="no"?>
<!-- Created with Inkscape (http://www.inkscape.org/) -->

<svg
   xmlns:dc="http://purl.org/dc/elements/1.1/"
   xmlns:cc="http://creativecommons.org/ns#"
   xmlns:rdf="http://www.w3.org/1999/02/22-rdf-syntax-ns#"
   xmlns:svg="http://www.w3.org/2000/svg"
   xmlns="http://www.w3.org/2000/svg"
   xmlns:sodipodi="http://sodipodi.sourceforge.net/DTD/sodipodi-0.dtd"
   xmlns:inkscape="http://www.inkscape.org/namespaces/inkscape"
   version="1.1"
   width="100%"
   height="100%"
   viewBox="0 0 512 512"
   id="svg2"
   inkscape:version="0.92.3 (2405546, 2018-03-11)"
   sodipodi:docname="liveusb-creator.svg">
  <sodipodi:namedview
     pagecolor="#ffffff"
     bordercolor="#666666"
     borderopacity="1"
     objecttolerance="10"
     gridtolerance="10"
     guidetolerance="10"
     inkscape:pageopacity="0"
     inkscape:pageshadow="2"
     inkscape:window-width="1366"
     inkscape:window-height="718"
     id="namedview42"
     showgrid="false"
     inkscape:zoom="0.32593203"
     inkscape:cx="263.36644"
     inkscape:cy="-108.52535"
     inkscape:window-x="0"
     inkscape:window-y="25"
     inkscape:window-maximized="1"
     inkscape:current-layer="svg2" />
  <metadata
     id="metadata70">
    <rdf:RDF>
      <cc:Work
         rdf:about="">
        <dc:format>image/svg+xml</dc:format>
        <dc:type
           rdf:resource="http://purl.org/dc/dcmitype/StillImage" />
        <dc:title />
      </cc:Work>
    </rdf:RDF>
  </metadata>
  <defs
     id="defs68">
    <filter
       color-interpolation-filters="sRGB"
       id="filter3174">
      <feGaussianBlur
         stdDeviation="1.71"
         id="feGaussianBlur3176" />
    </filter>
    <linearGradient
       x1="45.447727"
       y1="92.539597"
       x2="45.447727"
       y2="7.0165396"
       id="ButtonShadow"
       gradientUnits="userSpaceOnUse"
       gradientTransform="scale(1.0058652,0.994169)">
      <stop
         id="stop3750"
         style="stop-color:#000000;stop-opacity:1"
         offset="0" />
      <stop
         id="stop3752"
         style="stop-color:#000000;stop-opacity:0.58823532"
         offset="1" />
    </linearGradient>
  </defs>
  <text
     x="729.64001"
     y="231.35997"
     id="text20"
     style="font-size:129.22999573px;line-height:0%;font-family:'Gentium Book Basic';letter-spacing:0;word-spacing:0">
    <tspan
       x="729.64001"
       y="231.35997"
       id="tspan22" />
  </text>
  <text
     x="378.90805"
     y="579.25812"
     transform="scale(4.0128205,0.24920128)"
     id="text24"
     style="font-size:46.95375824px;font-family:Arial;text-anchor:middle" />
  <text
     x="1310.91"
     y="151.35997"
     id="text26"
     style="font-size:129.22999573px;line-height:0%;font-family:'Gentium Book Basic';letter-spacing:0;word-spacing:0">
    <tspan
       x="1310.91"
       y="151.35997"
       id="tspan28" />
  </text>
  <text
     x="523.75732"
     y="258.21997"
     transform="scale(4.0128205,0.24920128)"
     id="text30"
     style="font-size:46.95375824px;font-family:Arial;text-anchor:middle" />
  <text
     x="239.33"
     y="-29.900009"
     id="text32"
     style="font-size:129.22999573px;line-height:0%;font-family:'Gentium Book Basic';letter-spacing:0;word-spacing:0">
    <tspan
       x="239.33"
       y="-29.900009"
       id="tspan34" />
  </text>
  <text
     x="256.71869"
     y="-469.1264"
     transform="scale(4.0128205,0.24920128)"
     id="text36"
     style="font-size:46.95375824px;font-family:Arial;text-anchor:middle" />
  <text
     x="1337.38"
     y="-246.37001"
     id="text38"
     style="font-size:129.22999573px;line-height:0%;font-family:'Gentium Book Basic';letter-spacing:0;word-spacing:0">
    <tspan
       x="1337.38"
       y="-246.37001"
       id="tspan40" />
  </text>
  <text
     x="530.3573"
     y="-1337.802"
     transform="scale(4.0128205,0.24920128)"
     id="text42"
     style="font-size:46.95375824px;font-family:Arial;text-anchor:middle" />
  <text
     x="1918.65"
     y="-326.37"
     id="text44"
     style="font-size:129.22999573px;line-height:0%;font-family:'Gentium Book Basic';letter-spacing:0;word-spacing:0">
    <tspan
       x="1918.65"
       y="-326.37"
       id="tspan46" />
  </text>
  <text
     x="675.20654"
     y="-1658.8303"
     transform="scale(4.0128205,0.24920128)"
     id="text48"
     style="font-size:46.95375824px;font-family:Arial;text-anchor:middle" />
  <text
     x="1529.53"
     y="-798.77002"
     id="text50"
     style="font-size:129.22999573px;line-height:0%;font-family:'Gentium Book Basic';letter-spacing:0;word-spacing:0">
    <tspan
       x="1529.53"
       y="-798.77002"
       id="tspan52" />
  </text>
  <text
     x="578.237"
     y="-3554.4807"
     transform="scale(4.0128205,0.24920128)"
     id="text54"
     style="font-size:46.95375824px;font-family:Arial;text-anchor:middle" />
  <text
     x="2110.79"
     y="-878.78003"
     id="text56"
     style="font-size:129.22999573px;line-height:0%;font-family:'Gentium Book Basic';letter-spacing:0;word-spacing:0">
    <tspan
       x="2110.79"
       y="-878.78003"
       id="tspan58" />
  </text>
  <text
     x="723.0863"
     y="-3875.519"
     transform="scale(4.0128205,0.24920128)"
     id="text60"
     style="font-size:46.95375824px;font-family:Arial;text-anchor:middle" />
  <text
     x="277.98999"
     y="535.94006"
     id="text62"
     style="font-size:208.33000183px;line-height:0%;font-family:'Gentium Book Basic';letter-spacing:0;word-spacing:0">
    <tspan
       x="277.98999"
       y="535.94006"
       id="tspan64" />
  </text>
  <g
     transform="matrix(2.2712069,0,0,2.2712069,37.572877,-373.38174)"
     id="layer2"
     style="display:none">
    <rect
       width="86"
       height="85"
       rx="6"
       ry="6"
       x="5"
       y="7"
       id="rect3745"
       style="opacity:0.9;fill:url(#ButtonShadow);fill-opacity:1;fill-rule:nonzero;stroke:none;filter:url(#filter3174)" />
  </g>
  <g
     id="g960">
    <path
       style="fill:#8a715e;fill-opacity:1;stroke-width:11.10955238"
       inkscape:connector-curvature="0"
       d="M 432.91337,56.473981 C 535.10617,145.04858 538.74003,306.1737 441.03016,416.37282 343.3201,526.57182 181.27948,544.10062 79.086674,455.52602 -23.106167,366.95145 -26.740027,205.82633 70.969882,95.627241 168.67976,-14.571839 330.7203,-32.100609 432.91337,56.473981 Z"
       id="path911" />
    <path
       style="opacity:1;fill:#000000;fill-opacity:0.49019608;stroke-width:11.10955238"
       inkscape:connector-curvature="0"
       d="M 511.63501,224.90354 C 510.08361,286.2152 486.4738,349.05814 440.6687,400.71802 342.95883,510.91712 180.91853,528.44582 78.72572,439.87132 30.827116,398.35562 4.4968407,340.92285 0.19385126,280.22881 0.79910205,346.58549 27.117407,410.48222 79.078624,455.51902 c 102.192816,88.5746 264.240796,71.0372 361.942976,-39.1532 49.70489,-56.05816 73.00495,-125.29099 70.61341,-191.46228 z"
       id="path913" />
    <g
       style="fill:#000000;fill-opacity:0.49019608"
       transform="translate(20,20)"
       id="g932">
      <path
         sodipodi:nodetypes="ccccc"
         inkscape:connector-curvature="0"
         id="path910"
         d="m 264.87384,244.14557 51.10193,-69.27148 c 10.19294,-13.41663 13.02637,-47.55924 5.47721,-72.90758 -22.0155,15.06938 -43.74257,40.32185 -45.45244,54.9899 z"
         style="fill:#000000;fill-opacity:0.49019608;fill-rule:evenodd;stroke:none;stroke-width:0.63525277px;stroke-linecap:butt;stroke-linejoin:miter;stroke-opacity:1" />
      <path
         sodipodi:nodetypes="ccccc"
         inkscape:connector-curvature="0"
         id="path912"
         d="m 283.62313,246.97858 81.7486,-26.96491 C 381.44597,214.96185 403.501,188.74498 412,163.69913 c -26.67545,-0.43631 -59.00401,7.60202 -68.88101,18.58019 z"
         style="fill:#000000;fill-opacity:0.49019608;fill-rule:evenodd;stroke:none;stroke-width:0.63525277px;stroke-linecap:butt;stroke-linejoin:miter;stroke-opacity:1" />
      <path
         sodipodi:nodetypes="ccccc"
         inkscape:connector-curvature="0"
         id="path914"
         d="m 249.57244,260.90326 -1.25119,-86.07193 c -0.006,-16.84941 -18.41762,-45.7423 -39.76976,-61.35048 -8.40333,25.32099 -10.41344,58.57324 -2.89618,71.28412 z"
         style="fill:#000000;fill-opacity:0.49019608;fill-rule:evenodd;stroke:none;stroke-width:0.63525277px;stroke-linecap:butt;stroke-linejoin:miter;stroke-opacity:1" />
      <path
         inkscape:transform-center-y="-82.238232"
         inkscape:transform-center-x="88.019046"
         sodipodi:nodetypes="ccccc"
         inkscape:connector-curvature="0"
         id="path916"
         d="m 249.51633,260.90705 -45.87844,-72.83617 c -8.7771,-14.38281 -39.53893,-29.46597 -65.89503,-31.6759 6.00774,25.99376 21.60309,55.43077 34.63873,62.36963 z"
         style="fill:#000000;fill-opacity:0.49019608;fill-rule:evenodd;stroke:none;stroke-width:0.63525277px;stroke-linecap:butt;stroke-linejoin:miter;stroke-opacity:1" />
      <path
         inkscape:transform-center-y="-31.787986"
         inkscape:transform-center-x="117.68177"
         sodipodi:nodetypes="ccccc"
         inkscape:connector-curvature="0"
         id="path918"
         d="M 249.48215,260.934 172.82881,221.76509 C 157.93502,213.88615 123.7851,216.63837 100,228.2054 c 18.44587,19.27481 46.89269,36.61065 61.64364,35.91475 z"
         style="fill:#000000;fill-opacity:0.49019608;fill-rule:evenodd;stroke:none;stroke-width:0.63525277px;stroke-linecap:butt;stroke-linejoin:miter;stroke-opacity:1" />
      <path
         inkscape:transform-center-y="40.155401"
         inkscape:transform-center-x="115.2537"
         sodipodi:nodetypes="ccccc"
         inkscape:connector-curvature="0"
         id="path920"
         d="m 249.47269,260.95946 -86.01941,3.25553 c -16.8447,0.39834 -45.30096,19.47802 -60.4076,41.18785 25.50984,7.81133 58.79991,9.04644 71.3322,1.23516 z"
         style="fill:#000000;fill-opacity:0.49019608;fill-rule:evenodd;stroke:none;stroke-width:0.63525277px;stroke-linecap:butt;stroke-linejoin:miter;stroke-opacity:1" />
      <path
         inkscape:transform-center-y="87.568818"
         inkscape:transform-center-x="82.717474"
         sodipodi:nodetypes="ccccc"
         inkscape:connector-curvature="0"
         id="path922"
         d="m 249.51449,260.967 -73.08552,45.48018 c -14.43051,8.69842 -29.68135,39.3775 -32.03512,65.72113 26.02617,-5.86575 55.5479,-21.30021 62.55777,-34.29773 z"
         style="fill:#000000;fill-opacity:0.49019608;fill-rule:evenodd;stroke:none;stroke-width:0.63525277px;stroke-linecap:butt;stroke-linejoin:miter;stroke-opacity:1" />
      <path
         inkscape:transform-center-y="117.30319"
         inkscape:transform-center-x="33.915357"
         sodipodi:nodetypes="ccccc"
         inkscape:connector-curvature="0"
         id="path924"
         d="m 249.52322,260.99957 -40.25766,76.08719 c -8.09046,14.77995 -5.82531,48.96567 5.40147,72.91324 19.53579,-18.16925 37.2754,-46.36607 36.78985,-61.12541 z"
         style="fill:#000000;fill-opacity:0.49019608;fill-rule:evenodd;stroke:none;stroke-width:0.63525277px;stroke-linecap:butt;stroke-linejoin:miter;stroke-opacity:1" />
      <path
         inkscape:transform-center-y="115.10764"
         inkscape:transform-center-x="-40.491216"
         sodipodi:nodetypes="ccccc"
         inkscape:connector-curvature="0"
         id="path926"
         d="m 249.54886,260.97534 3.61179,86.00518 c 0.46805,16.84292 19.66549,45.21988 41.43772,60.23648 7.70558,-25.542 8.80277,-58.8369 0.93968,-71.33671 z"
         style="fill:#000000;fill-opacity:0.49019608;fill-rule:evenodd;stroke:none;stroke-width:0.63525277px;stroke-linecap:butt;stroke-linejoin:miter;stroke-opacity:1" />
      <path
         inkscape:transform-center-y="80.8392"
         inkscape:transform-center-x="-89.305688"
         sodipodi:nodetypes="ccccc"
         inkscape:connector-curvature="0"
         id="path928"
         d="m 249.55634,260.97777 47.02196,72.1032 c 9.00287,14.24258 39.99892,28.83844 66.38657,30.63226 -6.41712,-25.89575 -22.47501,-55.08303 -35.61846,-61.8153 z"
         style="fill:#000000;fill-opacity:0.49019608;fill-rule:evenodd;stroke:none;stroke-width:0.63525277px;stroke-linecap:butt;stroke-linejoin:miter;stroke-opacity:1" />
      <path
         inkscape:transform-center-y="29.875227"
         inkscape:transform-center-x="-118.0026"
         sodipodi:nodetypes="ccccc"
         inkscape:connector-curvature="0"
         id="path930"
         d="m 249.53652,260.94764 77.15034,38.18062 c 14.99379,7.68694 49.10555,4.49605 72.74005,-7.37567 -18.69208,-19.03618 -47.35932,-36.00501 -62.10009,-35.11963 z"
         style="fill:#000000;fill-opacity:0.49019608;fill-rule:evenodd;stroke:none;stroke-width:0.63525277px;stroke-linecap:butt;stroke-linejoin:miter;stroke-opacity:1" />
    </g>
    <g
       id="g908">
      <path
         style="fill:#80e51e;fill-opacity:1;fill-rule:evenodd;stroke:none;stroke-width:0.63525277px;stroke-linecap:butt;stroke-linejoin:miter;stroke-opacity:1"
         d="m 264.87384,244.14557 51.10193,-69.27148 c 10.19294,-13.41663 13.02637,-47.55924 5.47721,-72.90758 -22.0155,15.06938 -43.74257,40.32185 -45.45244,54.9899 z"
         id="path4180"
         inkscape:connector-curvature="0"
         sodipodi:nodetypes="ccccc" />
      <path
         style="fill:#c6262e;fill-opacity:1;fill-rule:evenodd;stroke:none;stroke-width:0.63525277px;stroke-linecap:butt;stroke-linejoin:miter;stroke-opacity:1"
         d="m 283.62313,246.97858 81.7486,-26.96491 C 381.44597,214.96185 403.501,188.74498 412,163.69913 c -26.67545,-0.43631 -59.00401,7.60202 -68.88101,18.58019 z"
         id="path4180-3"
         inkscape:connector-curvature="0"
         sodipodi:nodetypes="ccccc" />
      <path
         style="fill:#f9c440;fill-opacity:1;fill-rule:evenodd;stroke:none;stroke-width:0.63525277px;stroke-linecap:butt;stroke-linejoin:miter;stroke-opacity:1"
         d="m 249.57244,260.90326 -1.25119,-86.07193 c -0.006,-16.84941 -18.41762,-45.7423 -39.76976,-61.35048 -8.40333,25.32099 -10.41344,58.57324 -2.89618,71.28412 z"
         id="path4180-6"
         inkscape:connector-curvature="0"
         sodipodi:nodetypes="ccccc" />
      <path
         style="fill:#8a715e;fill-opacity:1;fill-rule:evenodd;stroke:none;stroke-width:0.63525277px;stroke-linecap:butt;stroke-linejoin:miter;stroke-opacity:1"
         d="m 249.51633,260.90705 -45.87844,-72.83617 c -8.7771,-14.38281 -39.53893,-29.46597 -65.89503,-31.6759 6.00774,25.99376 21.60309,55.43077 34.63873,62.36963 z"
         id="path4180-6-7"
         inkscape:connector-curvature="0"
         sodipodi:nodetypes="ccccc"
         inkscape:transform-center-x="88.019046"
         inkscape:transform-center-y="-82.238232" />
      <path
         style="fill:#3689e6;fill-opacity:1;fill-rule:evenodd;stroke:none;stroke-width:0.63525277px;stroke-linecap:butt;stroke-linejoin:miter;stroke-opacity:1"
         d="M 249.48215,260.934 172.82881,221.76509 C 157.93502,213.88615 123.7851,216.63837 100,228.2054 c 18.44587,19.27481 46.89269,36.61065 61.64364,35.91475 z"
         id="path4180-6-7-5"
         inkscape:connector-curvature="0"
         sodipodi:nodetypes="ccccc"
         inkscape:transform-center-x="117.68177"
         inkscape:transform-center-y="-31.787986" />
      <path
         style="fill:#a56de2;fill-opacity:1;fill-rule:evenodd;stroke:none;stroke-width:0.63525277px;stroke-linecap:butt;stroke-linejoin:miter;stroke-opacity:1"
         d="m 249.47269,260.95946 -86.01941,3.25553 c -16.8447,0.39834 -45.30096,19.47802 -60.4076,41.18785 25.50984,7.81133 58.79991,9.04644 71.3322,1.23516 z"
         id="path4180-6-7-5-3"
         inkscape:connector-curvature="0"
         sodipodi:nodetypes="ccccc"
         inkscape:transform-center-x="115.2537"
         inkscape:transform-center-y="40.155401" />
      <path
         style="fill:#f37329;fill-opacity:1;fill-rule:evenodd;stroke:none;stroke-width:0.63525277px;stroke-linecap:butt;stroke-linejoin:miter;stroke-opacity:1"
         d="m 249.51449,260.967 -73.08552,45.48018 c -14.43051,8.69842 -29.68135,39.3775 -32.03512,65.72113 26.02617,-5.86575 55.5479,-21.30021 62.55777,-34.29773 z"
         id="path4180-6-7-5-3-5"
         inkscape:connector-curvature="0"
         sodipodi:nodetypes="ccccc"
         inkscape:transform-center-x="82.717474"
         inkscape:transform-center-y="87.568818" />
      <path
         style="fill:#68b723;fill-opacity:1;fill-rule:evenodd;stroke:none;stroke-width:0.63525277px;stroke-linecap:butt;stroke-linejoin:miter;stroke-opacity:1"
         d="m 249.52322,260.99957 -40.25766,76.08719 c -8.09046,14.77995 -5.82531,48.96567 5.40147,72.91324 19.53579,-18.16925 37.2754,-46.36607 36.78985,-61.12541 z"
         id="path4180-6-7-5-3-5-6"
         inkscape:connector-curvature="0"
         sodipodi:nodetypes="ccccc"
         inkscape:transform-center-x="33.915357"
         inkscape:transform-center-y="117.30319" />
      <path
         style="fill:#3689e6;fill-opacity:1;fill-rule:evenodd;stroke:none;stroke-width:0.63525277px;stroke-linecap:butt;stroke-linejoin:miter;stroke-opacity:1"
         d="m 249.54886,260.97534 3.61179,86.00518 c 0.46805,16.84292 19.66549,45.21988 41.43772,60.23648 7.70558,-25.542 8.80277,-58.8369 0.93968,-71.33671 z"
         id="path4180-6-7-5-3-5-6-2"
         inkscape:connector-curvature="0"
         sodipodi:nodetypes="ccccc"
         inkscape:transform-center-x="-40.491216"
         inkscape:transform-center-y="115.10764" />
      <path
         style="fill:#a56de2;fill-opacity:1;fill-rule:evenodd;stroke:none;stroke-width:0.63525277px;stroke-linecap:butt;stroke-linejoin:miter;stroke-opacity:1"
         d="m 249.55634,260.97777 47.02196,72.1032 c 9.00287,14.24258 39.99892,28.83844 66.38657,30.63226 -6.41712,-25.89575 -22.47501,-55.08303 -35.61846,-61.8153 z"
         id="path4180-6-7-5-3-5-6-2-9"
         inkscape:connector-curvature="0"
         sodipodi:nodetypes="ccccc"
         inkscape:transform-center-x="-89.305688"
         inkscape:transform-center-y="80.8392" />
      <path
         style="fill:#f9c440;fill-opacity:1;fill-rule:evenodd;stroke:none;stroke-width:0.63525277px;stroke-linecap:butt;stroke-linejoin:miter;stroke-opacity:1"
         d="m 249.53652,260.94764 77.15034,38.18062 c 14.99379,7.68694 49.10555,4.49605 72.74005,-7.37567 -18.69208,-19.03618 -47.35932,-36.00501 -62.10009,-35.11963 z"
         id="path4180-6-7-5-3-5-6-2-9-1"
         inkscape:connector-curvature="0"
         sodipodi:nodetypes="ccccc"
         inkscape:transform-center-x="-118.0026"
         inkscape:transform-center-y="29.875227" />
    </g>
  </g>
</svg>
