<?xml version="1.0" encoding="UTF-8" standalone="no"?>
<!-- Generator: Adobe Illustrator 19.0.0, SVG Export Plug-In . SVG Version: 6.00 Build 0)  -->

<svg
   xmlns:dc="http://purl.org/dc/elements/1.1/"
   xmlns:cc="http://creativecommons.org/ns#"
   xmlns:rdf="http://www.w3.org/1999/02/22-rdf-syntax-ns#"
   xmlns:svg="http://www.w3.org/2000/svg"
   xmlns="http://www.w3.org/2000/svg"
   xmlns:sodipodi="http://sodipodi.sourceforge.net/DTD/sodipodi-0.dtd"
   xmlns:inkscape="http://www.inkscape.org/namespaces/inkscape"
   version="1.1"
   id="Layer_1"
   x="0px"
   y="0px"
   viewBox="0 0 512 512"
   xml:space="preserve"
   inkscape:version="0.92.3 (2405546, 2018-03-11)"
   width="512"
   height="512"
   sodipodi:docname="lordofultima.svg"><metadata
     id="metadata57"><rdf:RDF><cc:Work
         rdf:about=""><dc:format>image/svg+xml</dc:format><dc:type
           rdf:resource="http://purl.org/dc/dcmitype/StillImage" /><dc:title></dc:title></cc:Work></rdf:RDF></metadata><defs
     id="defs55" /><sodipodi:namedview
     pagecolor="#ffffff"
     bordercolor="#666666"
     borderopacity="1"
     objecttolerance="10"
     gridtolerance="10"
     guidetolerance="10"
     inkscape:pageopacity="0"
     inkscape:pageshadow="2"
     inkscape:window-width="1366"
     inkscape:window-height="718"
     id="namedview53"
     showgrid="false"
     inkscape:zoom="0.18582593"
     inkscape:cx="532.06057"
     inkscape:cy="666.10511"
     inkscape:window-x="0"
     inkscape:window-y="25"
     inkscape:window-maximized="1"
     inkscape:current-layer="Layer_1"
     units="px" /><g
     id="g23"
     transform="translate(0,550.767)" /><g
     id="g25"
     transform="translate(0,550.767)" /><g
     id="g27"
     transform="translate(0,550.767)" /><g
     id="g29"
     transform="translate(0,550.767)" /><g
     id="g31"
     transform="translate(0,550.767)" /><g
     id="g33"
     transform="translate(0,550.767)" /><g
     id="g35"
     transform="translate(0,550.767)" /><g
     id="g37"
     transform="translate(0,550.767)" /><g
     id="g39"
     transform="translate(0,550.767)" /><g
     id="g41"
     transform="translate(0,550.767)" /><g
     id="g43"
     transform="translate(0,550.767)" /><g
     id="g45"
     transform="translate(0,550.767)" /><g
     id="g47"
     transform="translate(0,550.767)" /><g
     id="g49"
     transform="translate(0,550.767)" /><g
     id="g51"
     transform="translate(0,550.767)" /><g
     id="g879"><path
       style="fill:#8a715e;fill-opacity:1;stroke-width:11.10955811"
       inkscape:connector-curvature="0"
       d="m 432.91327,56.47397 c 102.19291,88.57459 105.82678,249.6997 8.1168,359.89878 C 343.3201,526.57188 181.27964,544.10058 79.086729,455.52602 -23.106186,366.95142 -26.740042,205.82631 70.969928,95.62723 168.6799,-14.57186 330.72036,-32.10062 432.91327,56.47397 Z"
       id="path27" /><path
       style="opacity:1;fill:#000000;fill-opacity:0.49019608;stroke-width:11.10955811"
       inkscape:connector-curvature="0"
       d="m 511.63551,224.90353 c -1.5514,61.31165 -25.16123,124.1546 -70.96638,175.81448 C 342.95916,510.91708 180.91869,528.44588 78.725782,439.87127 30.827128,398.35564 4.4968262,340.92283 0.19383232,280.22879 0.79908392,346.58547 27.117416,410.48219 79.078687,455.51904 181.2716,544.09358 343.31975,526.55618 441.02203,416.36578 490.72697,360.30764 514.02705,291.07482 511.63551,224.90353 Z"
       id="path51" /><path
       style="fill:#000000;fill-opacity:0.49019608;stroke-width:0.65842032"
       d="m 335.22499,351.08114 c 0,-0.50534 3.14392,-4.51278 6.98648,-8.90541 8.72799,-9.9774 11.7458,-18.65893 11.73833,-33.76847 -0.006,-12.97805 -3.69861,-21.96459 -9.02436,-21.96459 -5.71378,0 -6.57867,3.09403 -6.57867,23.53437 0,15.68534 0.48545,20.19114 2.34133,21.73138 1.28773,1.06871 2.34133,2.91072 2.34133,4.09333 0,1.66709 -3.15644,2.15022 -14.04799,2.15022 -7.72639,0 -14.04799,-0.56815 -14.04799,-1.26255 0,-0.69441 1.03127,-2.62602 2.2917,-4.29244 1.71428,-2.26648 2.3042,-7.78664 2.34133,-21.90885 0.0429,-16.3464 -0.33329,-19.22549 -2.80482,-21.46221 -3.71005,-3.35754 -6.96576,-3.27073 -10.17116,0.27121 -2.08897,2.30827 -2.58326,6.29402 -2.58326,20.83006 0,15.99329 0.34427,18.28717 3.12177,20.80078 6.2521,5.65806 4.12729,7.024 -10.9262,7.024 -7.72641,0 -14.04799,-0.56815 -14.04799,-1.26255 0,-0.69441 1.03126,-2.62602 2.29169,-4.29244 1.71276,-2.26449 2.30275,-7.76162 2.3355,-21.76055 0.0371,-15.83058 -0.42432,-19.49838 -2.97965,-23.68917 -3.57901,-5.86965 -3.1803,-6.32327 9.80777,-11.15915 10.84004,-4.03607 10.39711,-3.99125 10.39711,-1.05208 0,2.91318 1.47198,2.89958 5.37121,-0.0496 4.286,-3.24176 16.9543,-2.97224 20.6743,0.43985 1.63793,1.50235 1.89133,2.02916 0.56314,1.17067 -2.09685,-1.35531 -2.13616,-1.20523 -0.29846,1.13957 1.98494,2.53269 2.52679,2.45997 8.722,-1.17067 6.89613,-4.04138 18.03799,-5.30772 18.03799,-2.05008 0,1.00155 0.35546,1.46557 0.7899,1.03112 1.60533,-1.60533 13.54197,11.32642 12.63543,13.68879 -0.51167,1.33344 -0.23429,1.93889 0.64054,1.39819 2.14184,-1.32372 1.98194,21.7783 -0.20533,29.66793 C 366.75917,335.0749 350.18438,352 339.60207,352 c -2.40739,0 -4.37708,-0.41347 -4.37708,-0.91883 z M 144.7967,338.31207 c -14.59733,-7.11083 -16.22031,-11.7187 -17.16976,-48.74762 -0.73947,-28.83935 -0.97376,-30.70835 -4.46272,-35.60005 -2.02525,-2.83952 -3.43005,-5.41484 -3.12178,-5.72295 0.30828,-0.30811 8.09692,-1.06496 17.30811,-1.6819 19.52527,-1.30773 21.9362,0.17874 13.68033,8.43463 l -4.86683,4.86684 0.48698,29.04075 c 0.47558,28.35973 0.57342,29.11066 4.17192,32.02149 5.2886,4.27792 10.64848,3.71588 16.04708,-1.68271 l 4.66343,-4.66344 -0.49105,-27.23647 -0.49106,-27.23649 -4.49519,-4.68776 c -7.33368,-7.64784 -5.06094,-9.55679 11.37807,-9.55679 7.70268,0 14.41284,0.66012 14.91149,1.46694 0.49864,0.80682 -1.39151,4.72606 -4.20033,8.70942 -5.07484,7.19695 -5.11041,7.37646 -5.65895,28.5486 -0.47073,18.16835 -0.1422,22.06723 2.2312,26.47424 2.7065,5.02567 2.69202,5.35577 -0.52512,11.97763 -1.81957,3.74525 -5.91914,8.80091 -9.11015,11.23481 -4.93945,3.76749 -7.44745,4.48146 -16.87308,4.80332 -6.0892,0.20792 -12.12485,-0.13518 -13.41259,-0.76249 z m 240.73279,-1.28629 c -10.18761,-4.45324 -14.68128,-20.75192 -8.83732,-32.05293 2.85188,-5.51488 11.44953,-9.65461 17.10392,-8.23543 4.92123,1.23515 10.10793,7.69272 10.10793,12.58461 0,3.61943 -0.11357,3.65329 -3.91003,1.16574 -4.7634,-3.1211 -8.57704,-0.84233 -8.57704,5.12506 0,10.68671 9.13025,13.72417 13.52863,4.50069 2.37249,-4.97522 2.35978,-6.31915 -0.1812,-19.12087 -3.21381,-16.19195 -4.59235,-19.23264 -8.71966,-19.23264 -3.2761,0 -4.37974,5.2479 -1.48052,7.03973 2.92023,1.8048 -0.15249,3.88648 -5.73682,3.88648 -8.23776,0 -16.14108,-8.33054 -16.14108,-17.01367 0,-7.08788 0.4961,-7.35295 7.91985,-4.23148 4.40049,1.85025 6.05747,1.85025 11.30165,0 9.59286,-3.38457 15.56941,-2.78874 19.9188,1.98576 2.08127,2.28465 2.73053,3.63736 1.44279,3.00602 -1.44628,-0.70908 -1.30643,-0.29877 0.36595,1.07331 1.48902,1.22167 2.24996,2.67855 1.69096,3.23754 -0.559,0.55897 -0.12174,1.01631 0.9717,1.01631 1.09344,0 1.60114,1.00822 1.12827,2.24049 -0.47288,1.23227 -0.23197,2.46147 0.53529,2.73155 0.76726,0.27009 2.53136,8.21747 3.92017,17.66083 1.70485,11.59211 3.75846,19.38865 6.32169,24.00014 2.08818,3.75671 3.79659,7.4443 3.79659,8.19465 0,2.44361 -18.16246,1.58836 -20.2729,-0.95462 -1.68483,-2.0301 -2.41528,-1.93288 -5.86475,0.78044 -4.6117,3.62758 -12.86625,3.87615 -20.33287,0.61229 z M 190.06244,336.5822 c 0,-0.75338 1.0536,-2.24417 2.34134,-3.3129 3.63509,-3.01685 3.45739,-69.54133 -0.19653,-73.57887 -2.39855,-2.65036 -1.87371,-3.10696 9.56018,-8.31757 17.53635,-7.99156 21.22108,-7.27992 14.95004,2.88739 -2.68035,4.3457 -3.04765,8.50049 -3.42978,38.79661 -0.4142,32.83876 -0.31769,34.0789 3.00181,38.56876 1.8864,2.55148 3.42981,5.01869 3.42981,5.4827 0,0.46401 -6.6728,0.84365 -14.82844,0.84365 -8.15563,0 -14.82843,-0.6164 -14.82843,-1.36977 z m 38.48367,-1.48469 c -2.17958,-2.40841 -2.58325,-6.79892 -2.58325,-28.09598 v -25.24152 h -3.90222 c -6.02702,0 -5.40297,-6.9482 0.91763,-10.2167 4.36013,-2.25471 9.03209,-10.00942 12.88755,-21.39127 2.17403,-6.41805 4.14503,-2.15032 4.14503,8.97512 v 11.70664 h 4.68266 c 4.29376,0 4.68267,0.4451 4.68267,5.35943 0,4.68632 -0.53911,5.42147 -4.29245,5.85333 l -4.29244,0.4939 -0.43836,19.13353 c -0.51147,22.32383 0.6436,26.06895 7.57088,24.54748 5.87697,-1.29078 6.2256,2.41649 0.74285,7.89922 -4.85473,4.85475 -16.1163,5.40147 -20.12055,0.97682 z m 23.95184,1.48469 c 0,-0.75338 1.0536,-2.24417 2.34133,-3.3129 1.86254,-1.54576 2.34133,-6.1129 2.34133,-22.33317 0,-18.74761 -0.27169,-20.67922 -3.37278,-23.98021 l -3.37278,-3.59014 8.44566,-3.83474 c 5.32181,-2.41635 7.22453,-3.868 5.14417,-3.92465 -1.81582,-0.0495 -5.15222,-1.5457 -7.4142,-3.32499 -5.52624,-4.34692 -5.52624,-11.03536 0,-15.3823 4.91143,-3.86335 8.83189,-4.11543 12.1651,-0.78224 1.34905,1.34905 2.46357,1.87585 2.47672,1.17067 0.0124,-0.7052 0.70478,-0.22856 1.53698,1.05918 2.36171,3.65446 1.8275,9.59553 -1.17066,13.01907 -2.62607,2.99871 -2.611,3.07194 0.39023,1.89694 9.52678,-3.72982 10.45783,-2.94671 5.4631,4.59507 -2.72369,4.11263 -3.1012,7.34281 -3.1012,26.53509 0,19.19228 0.37751,22.42247 3.1012,26.53509 1.70567,2.57547 3.10584,5.20946 3.11149,5.85333 0.006,0.64387 -6.31131,1.17067 -14.0377,1.17067 -7.72639,0 -14.04799,-0.6164 -14.04799,-1.36977 z M 175.3351,233.53605 c -0.47499,-0.76852 0.18595,-1.80008 1.46875,-2.29234 3.47745,-1.33441 3.3798,-26.79215 -0.10784,-28.1305 -4.17316,-1.60138 -0.79408,-4.08024 5.56203,-4.08024 6.60764,0 9.29747,2.13111 5.42508,4.2982 -1.96477,1.09954 -2.35445,3.80104 -1.98394,13.7537 0.43141,11.5888 0.69278,12.41825 4.06332,12.89603 1.98122,0.28083 5.29291,-0.59717 7.35929,-1.95112 2.06638,-1.35394 4.13298,-2.46172 4.59243,-2.46172 1.60157,0 0.82134,5.63322 -1.03771,7.49226 -2.18793,2.18793 -24.02977,2.59796 -25.34139,0.47573 z m 35.19069,-0.69232 c -12.1593,-7.02809 -9.769,-27.79466 3.71134,-32.24358 6.90388,-2.27849 15.04658,-0.97644 18.62557,2.9783 6.23325,6.88767 5.68571,19.47889 -1.14407,26.30867 -4.65056,4.65057 -15.61557,6.1803 -21.19284,2.95661 z m 17.6899,-6.06209 c 3.08544,-4.40509 3.12973,-13.56772 0.0866,-17.91244 -3.61118,-5.15567 -11.31941,-6.23279 -15.39945,-2.15186 -4.73629,4.73735 -4.44117,16.66529 0.51158,20.67577 4.89839,3.9665 11.79429,3.68161 14.80128,-0.61147 z m 10.23427,5.81042 c 0,-1.28773 0.7024,-2.34134 1.56089,-2.34134 0.91861,0 1.56089,-5.47943 1.56089,-13.31654 0,-10.37425 -0.51533,-13.51427 -2.33238,-14.21153 -4.5155,-1.73276 -0.51466,-3.68941 7.49739,-3.66667 11.41755,0.0325 15.79249,2.58965 16.37983,9.57428 0.30492,3.6258 -0.42669,6.52287 -2.05954,8.15573 -2.336,2.33599 -2.27383,2.89564 0.80141,7.21441 3.18083,4.46706 10.01031,7.69135 12.02464,5.67701 1.48802,-1.48802 0.43374,-25.00904 -1.19516,-26.66418 -3.3606,-3.41473 -0.77482,-4.27973 11.172,-3.73719 11.96843,0.54351 12.86952,0.84019 17.16975,5.65301 6.39764,7.16017 6.39212,16.95307 -0.0141,24.12638 l -4.55153,5.09751 -17.21618,0.39806 -17.21617,0.39808 -5.87789,-7.03185 c -3.23284,-3.8675 -6.43154,-7.03183 -7.10822,-7.03183 -2.18038,0 -1.30749,7.35818 1.11096,9.36532 3.99072,3.31201 2.62006,4.68267 -4.68265,4.68267 -5.20296,0 -7.02399,-0.60701 -7.02399,-2.34133 z m 57.75285,-5.46311 c 3.42795,-3.42796 4.10138,-10.8619 1.43524,-15.84363 -1.5553,-2.9061 -10.1018,-7.56968 -13.87221,-7.56968 -0.98108,0 -1.61102,5.18786 -1.61102,13.26754 v 13.26754 h 5.4631 c 3.38193,0 6.65235,-1.18925 8.58489,-3.12177 z m -40.76204,-12.34347 c 3.01348,-1.90846 1.00992,-8.92756 -2.83536,-9.93313 -3.88406,-1.0157 -4.79012,-0.0498 -4.79012,5.10684 0,6.12304 2.7898,7.88877 7.62548,4.82629 z m 73.57143,18.23067 c -5.08385,-2.68738 -7.78381,-8.29064 -7.81219,-16.21269 -0.0292,-8.14619 4.38546,-13.97359 12.40644,-16.37674 7.36837,-2.20761 13.1722,-0.9082 18.14229,4.06188 5.64477,5.64478 5.36004,17.68729 -0.57528,24.33007 -5.05491,5.65743 -15.61547,7.65765 -22.16126,4.19748 z m 14.95423,-3.95999 c 4.39766,-2.9364 6.62158,-12.29294 4.33695,-18.2466 -1.39278,-3.62951 -9.68127,-7.50146 -13.82935,-6.46036 -7.19153,1.80496 -9.00893,16.30709 -2.89081,23.06755 2.59425,2.8666 9.2297,3.74506 12.38321,1.63941 z m 14.16513,4.85018 c -0.56488,-0.56489 -0.2523,-1.96059 0.69464,-3.10158 2.21058,-2.66358 2.18057,-25.01575 -0.0371,-27.68794 -0.92649,-1.11637 -1.22236,-2.49191 -0.65749,-3.0568 1.2125,-1.2125 21.4658,-1.40015 22.65603,-0.20992 0.44937,0.44942 0.48756,2.54117 0.0847,4.64832 -0.68087,3.56179 -0.964,3.66896 -4.02604,1.5242 -5.8102,-4.06957 -8.84267,-2.98722 -8.84267,3.15612 0,4.78673 0.48312,5.46311 3.90222,5.46311 2.14622,0 3.90225,-0.7024 3.90225,-1.56089 0,-0.85848 0.70234,-1.56089 1.56085,-1.56089 0.85851,0 1.56092,2.8096 1.56092,6.24355 0,6.23204 -1.9856,8.33399 -3.68624,3.90222 -0.49417,-1.28773 -2.32531,-2.34133 -4.06924,-2.34133 -2.56409,0 -3.17076,1.01331 -3.17076,5.29611 0,3.36318 0.89063,5.63788 2.44026,6.23253 4.1259,1.58325 0.82495,4.08024 -5.39401,4.08024 -3.24019,0 -6.35346,-0.46218 -6.91833,-1.02705 z"
       id="path873"
       inkscape:connector-curvature="0"
       sodipodi:nodetypes="cscssssssssssssssssssssssssscccsscccssssscssscccssssscssscssssssssssssssssccsccsssssssssssssssssscsssscssscsssssssscscssscsssssscsscsssssssssccssssscssscccsssssssssssccccssssccsssscsssssssssssssssssssscssssssssssssss" /><path
       sodipodi:nodetypes="cscssssssssssssssssssssssssscccsscccssssscssscccssssscssscssssssssssssssssccsccsssssssssssssssssscsssscssscsssssssscscssscsssssscsscsssssssssccssssscssscccsssssssssssccccssssccsssscsssssssssssssssssssscssssssssssssss"
       inkscape:connector-curvature="0"
       id="path4171"
       d="m 315.22499,331.08114 c 0,-0.50534 3.14392,-4.51278 6.98648,-8.90541 8.72799,-9.9774 11.7458,-18.65893 11.73833,-33.76847 -0.006,-12.97805 -3.69861,-21.96459 -9.02436,-21.96459 -5.71378,0 -6.57867,3.09403 -6.57867,23.53437 0,15.68534 0.48545,20.19114 2.34133,21.73138 1.28773,1.06871 2.34133,2.91072 2.34133,4.09333 0,1.66709 -3.15644,2.15022 -14.04799,2.15022 -7.72639,0 -14.04799,-0.56815 -14.04799,-1.26255 0,-0.69441 1.03127,-2.62602 2.2917,-4.29244 1.71428,-2.26648 2.3042,-7.78664 2.34133,-21.90885 0.0429,-16.3464 -0.33329,-19.22549 -2.80482,-21.46221 -3.71005,-3.35754 -6.96576,-3.27073 -10.17116,0.27121 -2.08897,2.30827 -2.58326,6.29402 -2.58326,20.83006 0,15.99329 0.34427,18.28717 3.12177,20.80078 6.2521,5.65806 4.12729,7.024 -10.9262,7.024 -7.72641,0 -14.04799,-0.56815 -14.04799,-1.26255 0,-0.69441 1.03126,-2.62602 2.29169,-4.29244 1.71276,-2.26449 2.30275,-7.76162 2.3355,-21.76055 0.0371,-15.83058 -0.42432,-19.49838 -2.97965,-23.68917 -3.57901,-5.86965 -3.1803,-6.32327 9.80777,-11.15915 10.84004,-4.03607 10.39711,-3.99125 10.39711,-1.05208 0,2.91318 1.47198,2.89958 5.37121,-0.0496 4.286,-3.24176 16.9543,-2.97224 20.6743,0.43985 1.63793,1.50235 1.89133,2.02916 0.56314,1.17067 -2.09685,-1.35531 -2.13616,-1.20523 -0.29846,1.13957 1.98494,2.53269 2.52679,2.45997 8.722,-1.17067 6.89613,-4.04138 18.03799,-5.30772 18.03799,-2.05008 0,1.00155 0.35546,1.46557 0.7899,1.03112 1.60533,-1.60533 13.54197,11.32642 12.63543,13.68879 -0.51167,1.33344 -0.23429,1.93889 0.64054,1.39819 2.14184,-1.32372 1.98194,21.7783 -0.20533,29.66793 C 346.75917,315.0749 330.18438,332 319.60207,332 c -2.40739,0 -4.37708,-0.41347 -4.37708,-0.91883 z M 124.7967,318.31207 c -14.59733,-7.11083 -16.22031,-11.7187 -17.16976,-48.74762 -0.73947,-28.83935 -0.97376,-30.70835 -4.46272,-35.60005 -2.02525,-2.83952 -3.430052,-5.41484 -3.12178,-5.72295 0.30828,-0.30811 8.09692,-1.06496 17.30811,-1.6819 19.52527,-1.30773 21.9362,0.17874 13.68033,8.43463 l -4.86683,4.86684 0.48698,29.04075 c 0.47558,28.35973 0.57342,29.11066 4.17192,32.02149 5.2886,4.27792 10.64848,3.71588 16.04708,-1.68271 l 4.66343,-4.66344 -0.49105,-27.23647 -0.49106,-27.23649 -4.49519,-4.68776 c -7.33368,-7.64784 -5.06094,-9.55679 11.37807,-9.55679 7.70268,0 14.41284,0.66012 14.91149,1.46694 0.49864,0.80682 -1.39151,4.72606 -4.20033,8.70942 -5.07484,7.19695 -5.11041,7.37646 -5.65895,28.5486 -0.47073,18.16835 -0.1422,22.06723 2.2312,26.47424 2.7065,5.02567 2.69202,5.35577 -0.52512,11.97763 -1.81957,3.74525 -5.91914,8.80091 -9.11015,11.23481 -4.93945,3.76749 -7.44745,4.48146 -16.87308,4.80332 -6.0892,0.20792 -12.12485,-0.13518 -13.41259,-0.76249 z m 240.73279,-1.28629 c -10.18761,-4.45324 -14.68128,-20.75192 -8.83732,-32.05293 2.85188,-5.51488 11.44953,-9.65461 17.10392,-8.23543 4.92123,1.23515 10.10793,7.69272 10.10793,12.58461 0,3.61943 -0.11357,3.65329 -3.91003,1.16574 -4.7634,-3.1211 -8.57704,-0.84233 -8.57704,5.12506 0,10.68671 9.13025,13.72417 13.52863,4.50069 2.37249,-4.97522 2.35978,-6.31915 -0.1812,-19.12087 -3.21381,-16.19195 -4.59235,-19.23264 -8.71966,-19.23264 -3.2761,0 -4.37974,5.2479 -1.48052,7.03973 2.92023,1.8048 -0.15249,3.88648 -5.73682,3.88648 -8.23776,0 -16.14108,-8.33054 -16.14108,-17.01367 0,-7.08788 0.4961,-7.35295 7.91985,-4.23148 4.40049,1.85025 6.05747,1.85025 11.30165,0 9.59286,-3.38457 15.56941,-2.78874 19.9188,1.98576 2.08127,2.28465 2.73053,3.63736 1.44279,3.00602 -1.44628,-0.70908 -1.30643,-0.29877 0.36595,1.07331 1.48902,1.22167 2.24996,2.67855 1.69096,3.23754 -0.559,0.55897 -0.12174,1.01631 0.9717,1.01631 1.09344,0 1.60114,1.00822 1.12827,2.24049 -0.47288,1.23227 -0.23197,2.46147 0.53529,2.73155 0.76726,0.27009 2.53136,8.21747 3.92017,17.66083 1.70485,11.59211 3.75846,19.38865 6.32169,24.00014 2.08818,3.75671 3.79659,7.4443 3.79659,8.19465 0,2.44361 -18.16246,1.58836 -20.2729,-0.95462 -1.68483,-2.0301 -2.41528,-1.93288 -5.86475,0.78044 -4.6117,3.62758 -12.86625,3.87615 -20.33287,0.61229 z M 170.06244,316.5822 c 0,-0.75338 1.0536,-2.24417 2.34134,-3.3129 3.63509,-3.01685 3.45739,-69.54133 -0.19653,-73.57887 -2.39855,-2.65036 -1.87371,-3.10696 9.56018,-8.31757 17.53635,-7.99156 21.22108,-7.27992 14.95004,2.88739 -2.68035,4.3457 -3.04765,8.50049 -3.42978,38.79661 -0.4142,32.83876 -0.31769,34.0789 3.00181,38.56876 1.8864,2.55148 3.42981,5.01869 3.42981,5.4827 0,0.46401 -6.6728,0.84365 -14.82844,0.84365 -8.15563,0 -14.82843,-0.6164 -14.82843,-1.36977 z m 38.48367,-1.48469 c -2.17958,-2.40841 -2.58325,-6.79892 -2.58325,-28.09598 v -25.24152 h -3.90222 c -6.02702,0 -5.40297,-6.9482 0.91763,-10.2167 4.36013,-2.25471 9.03209,-10.00942 12.88755,-21.39127 2.17403,-6.41805 4.14503,-2.15032 4.14503,8.97512 v 11.70664 h 4.68266 c 4.29376,0 4.68267,0.4451 4.68267,5.35943 0,4.68632 -0.53911,5.42147 -4.29245,5.85333 l -4.29244,0.4939 -0.43836,19.13353 c -0.51147,22.32383 0.6436,26.06895 7.57088,24.54748 5.87697,-1.29078 6.2256,2.41649 0.74285,7.89922 -4.85473,4.85475 -16.1163,5.40147 -20.12055,0.97682 z m 23.95184,1.48469 c 0,-0.75338 1.0536,-2.24417 2.34133,-3.3129 1.86254,-1.54576 2.34133,-6.1129 2.34133,-22.33317 0,-18.74761 -0.27169,-20.67922 -3.37278,-23.98021 l -3.37278,-3.59014 8.44566,-3.83474 c 5.32181,-2.41635 7.22453,-3.868 5.14417,-3.92465 -1.81582,-0.0495 -5.15222,-1.5457 -7.4142,-3.32499 -5.52624,-4.34692 -5.52624,-11.03536 0,-15.3823 4.91143,-3.86335 8.83189,-4.11543 12.1651,-0.78224 1.34905,1.34905 2.46357,1.87585 2.47672,1.17067 0.0124,-0.7052 0.70478,-0.22856 1.53698,1.05918 2.36171,3.65446 1.8275,9.59553 -1.17066,13.01907 -2.62607,2.99871 -2.611,3.07194 0.39023,1.89694 9.52678,-3.72982 10.45783,-2.94671 5.4631,4.59507 -2.72369,4.11263 -3.1012,7.34281 -3.1012,26.53509 0,19.19228 0.37751,22.42247 3.1012,26.53509 1.70567,2.57547 3.10584,5.20946 3.11149,5.85333 0.006,0.64387 -6.31131,1.17067 -14.0377,1.17067 -7.72639,0 -14.04799,-0.6164 -14.04799,-1.36977 z M 155.3351,213.53605 c -0.47499,-0.76852 0.18595,-1.80008 1.46875,-2.29234 3.47745,-1.33441 3.3798,-26.79215 -0.10784,-28.1305 -4.17316,-1.60138 -0.79408,-4.08024 5.56203,-4.08024 6.60764,0 9.29747,2.13111 5.42508,4.2982 -1.96477,1.09954 -2.35445,3.80104 -1.98394,13.7537 0.43141,11.5888 0.69278,12.41825 4.06332,12.89603 1.98122,0.28083 5.29291,-0.59717 7.35929,-1.95112 2.06638,-1.35394 4.13298,-2.46172 4.59243,-2.46172 1.60157,0 0.82134,5.63322 -1.03771,7.49226 -2.18793,2.18793 -24.02977,2.59796 -25.34139,0.47573 z m 35.19069,-0.69232 c -12.1593,-7.02809 -9.769,-27.79466 3.71134,-32.24358 6.90388,-2.27849 15.04658,-0.97644 18.62557,2.9783 6.23325,6.88767 5.68571,19.47889 -1.14407,26.30867 -4.65056,4.65057 -15.61557,6.1803 -21.19284,2.95661 z m 17.6899,-6.06209 c 3.08544,-4.40509 3.12973,-13.56772 0.0866,-17.91244 -3.61118,-5.15567 -11.31941,-6.23279 -15.39945,-2.15186 -4.73629,4.73735 -4.44117,16.66529 0.51158,20.67577 4.89839,3.9665 11.79429,3.68161 14.80128,-0.61147 z m 10.23427,5.81042 c 0,-1.28773 0.7024,-2.34134 1.56089,-2.34134 0.91861,0 1.56089,-5.47943 1.56089,-13.31654 0,-10.37425 -0.51533,-13.51427 -2.33238,-14.21153 -4.5155,-1.73276 -0.51466,-3.68941 7.49739,-3.66667 11.41755,0.0325 15.79249,2.58965 16.37983,9.57428 0.30492,3.6258 -0.42669,6.52287 -2.05954,8.15573 -2.336,2.33599 -2.27383,2.89564 0.80141,7.21441 3.18083,4.46706 10.01031,7.69135 12.02464,5.67701 1.48802,-1.48802 0.43374,-25.00904 -1.19516,-26.66418 -3.3606,-3.41473 -0.77482,-4.27973 11.172,-3.73719 11.96843,0.54351 12.86952,0.84019 17.16975,5.65301 6.39764,7.16017 6.39212,16.95307 -0.0141,24.12638 l -4.55153,5.09751 -17.21618,0.39806 -17.21617,0.39808 -5.87789,-7.03185 c -3.23284,-3.8675 -6.43154,-7.03183 -7.10822,-7.03183 -2.18038,0 -1.30749,7.35818 1.11096,9.36532 3.99072,3.31201 2.62006,4.68267 -4.68265,4.68267 -5.20296,0 -7.02399,-0.60701 -7.02399,-2.34133 z m 57.75285,-5.46311 c 3.42795,-3.42796 4.10138,-10.8619 1.43524,-15.84363 -1.5553,-2.9061 -10.1018,-7.56968 -13.87221,-7.56968 -0.98108,0 -1.61102,5.18786 -1.61102,13.26754 v 13.26754 h 5.4631 c 3.38193,0 6.65235,-1.18925 8.58489,-3.12177 z m -40.76204,-12.34347 c 3.01348,-1.90846 1.00992,-8.92756 -2.83536,-9.93313 -3.88406,-1.0157 -4.79012,-0.0498 -4.79012,5.10684 0,6.12304 2.7898,7.88877 7.62548,4.82629 z m 73.57143,18.23067 c -5.08385,-2.68738 -7.78381,-8.29064 -7.81219,-16.21269 -0.0292,-8.14619 4.38546,-13.97359 12.40644,-16.37674 7.36837,-2.20761 13.1722,-0.9082 18.14229,4.06188 5.64477,5.64478 5.36004,17.68729 -0.57528,24.33007 -5.05491,5.65743 -15.61547,7.65765 -22.16126,4.19748 z m 14.95423,-3.95999 c 4.39766,-2.9364 6.62158,-12.29294 4.33695,-18.2466 -1.39278,-3.62951 -9.68127,-7.50146 -13.82935,-6.46036 -7.19153,1.80496 -9.00893,16.30709 -2.89081,23.06755 2.59425,2.8666 9.2297,3.74506 12.38321,1.63941 z m 14.16513,4.85018 c -0.56488,-0.56489 -0.2523,-1.96059 0.69464,-3.10158 2.21058,-2.66358 2.18057,-25.01575 -0.0371,-27.68794 -0.92649,-1.11637 -1.22236,-2.49191 -0.65749,-3.0568 1.2125,-1.2125 21.4658,-1.40015 22.65603,-0.20992 0.44937,0.44942 0.48756,2.54117 0.0847,4.64832 -0.68087,3.56179 -0.964,3.66896 -4.02604,1.5242 -5.8102,-4.06957 -8.84267,-2.98722 -8.84267,3.15612 0,4.78673 0.48312,5.46311 3.90222,5.46311 2.14622,0 3.90225,-0.7024 3.90225,-1.56089 0,-0.85848 0.70234,-1.56089 1.56085,-1.56089 0.85851,0 1.56092,2.8096 1.56092,6.24355 0,6.23204 -1.9856,8.33399 -3.68624,3.90222 -0.49417,-1.28773 -2.32531,-2.34133 -4.06924,-2.34133 -2.56409,0 -3.17076,1.01331 -3.17076,5.29611 0,3.36318 0.89063,5.63788 2.44026,6.23253 4.1259,1.58325 0.82495,4.08024 -5.39401,4.08024 -3.24019,0 -6.35346,-0.46218 -6.91833,-1.02705 z"
       style="fill:#ffffff;fill-opacity:1;stroke-width:0.65842032" /></g></svg>