<?xml version="1.0" encoding="UTF-8" standalone="no"?>
<svg
   xmlns:dc="http://purl.org/dc/elements/1.1/"
   xmlns:cc="http://creativecommons.org/ns#"
   xmlns:rdf="http://www.w3.org/1999/02/22-rdf-syntax-ns#"
   xmlns:svg="http://www.w3.org/2000/svg"
   xmlns="http://www.w3.org/2000/svg"
   xmlns:sodipodi="http://sodipodi.sourceforge.net/DTD/sodipodi-0.dtd"
   xmlns:inkscape="http://www.inkscape.org/namespaces/inkscape"
   height="512"
   width="512"
   version="1.1"
   id="svg2"
   inkscape:version="0.92.3 (2405546, 2018-03-11)"
   sodipodi:docname="lprof.svg">
  <metadata
     id="metadata43">
    <rdf:RDF>
      <cc:Work
         rdf:about="">
        <dc:format>image/svg+xml</dc:format>
        <dc:type
           rdf:resource="http://purl.org/dc/dcmitype/StillImage" />
        <dc:title></dc:title>
      </cc:Work>
    </rdf:RDF>
  </metadata>
  <sodipodi:namedview
     pagecolor="#ffffff"
     bordercolor="#666666"
     borderopacity="1"
     objecttolerance="10"
     gridtolerance="10"
     guidetolerance="10"
     inkscape:pageopacity="0"
     inkscape:pageshadow="2"
     inkscape:window-width="1366"
     inkscape:window-height="718"
     id="namedview41"
     showgrid="false"
     inkscape:zoom="0.61458333"
     inkscape:cx="141.2982"
     inkscape:cy="243.65012"
     inkscape:window-x="0"
     inkscape:window-y="25"
     inkscape:window-maximized="1"
     inkscape:current-layer="svg2"
     showguides="false" />
  <defs
     id="defs4">
    <linearGradient
       id="linearGradient12443"
       y2="3"
       gradientUnits="userSpaceOnUse"
       x2="27.5"
       y1="0.5"
       x1="27.5"
       gradientTransform="matrix(2.402228,0,0,2.402228,6.3280064,6.9402887)">
      <stop
         stop-color="#fff"
         offset="0"
         id="stop7" />
      <stop
         stop-color="#fff"
         stop-opacity="0"
         offset="1"
         id="stop9" />
    </linearGradient>
    <filter
       id="filter4549"
       height="1.4594001"
       width="1.5025001"
       y="-0.22969"
       x="-0.25127"
       style="color-interpolation-filters:sRGB">
      <feGaussianBlur
         stdDeviation="2.8192388"
         id="feGaussianBlur12" />
    </filter>
    <clipPath
       id="clipPath4571"
       clipPathUnits="userSpaceOnUse">
      <path
         d="m 16.562,9.2812 c -0.74132,0.048211 -1.4937,0.22542 -2.125,0.5 -1.676,0.7268 -2.965,2.6818 -3.593,5.4688 -0.44683,1.9819 -0.41916,7.4073 0.03125,9.5 0.44637,2.0716 1.3217,3.7905 2.4062,4.875 l 0.407,0.375 2.5312,2.5312 c 0.30041,0.8334 0.62131,1.3713 1,1.75 l 0.343,0.313 13.407,13.406 h 15.031 c 1.108,0 2,-0.892 2,-2 v -16.031 l -19.094,-19.063 -0.031,-0.031 c -0.078,-0.045 -0.553,-0.117 -1.063,-0.156 l -0.90625,-0.0625 -0.34375,1.3125 c -0.17758,0.7241 -0.37237,1.5281 -0.4375,1.8125 -0.10143,0.4425 -0.18982,0.53125 -0.75,0.53125 H 24.7814 l -3.25,-3.25 c -0.843,-0.845 -1.941,-1.3838 -3.28,-1.6568 -0.31525,-0.064 -0.63979,-0.1093 -0.96875,-0.125 -0.24672,-0.01175 -0.47164,-0.01607 -0.71875,0 z"
         id="path15"
         inkscape:connector-curvature="0"
         style="opacity:0.35985;fill:#364e59" />
    </clipPath>
  </defs>
  <g
     id="g903">
    <path
       id="path1165"
       d="m 432.91328,56.47495 c 102.1929,88.57349 105.82677,249.69955 8.11678,359.89802 C 343.32007,526.57152 181.27962,544.10042 79.086743,455.52692 -23.106206,366.9511 -26.740033,205.82736 70.969944,95.62657 168.67988,-14.57188 330.72033,-32.10087 432.91328,56.47495 Z"
       inkscape:connector-curvature="0"
       style="fill:#3689e6;fill-opacity:1;stroke-width:11.10954762" />
    <path
       id="path1167"
       d="M 511.63552,224.90398 C 510.08416,286.21585 486.47428,349.05907 440.66913,400.71743 342.95911,510.91592 180.91867,528.44492 78.725762,439.87139 30.827125,398.35526 4.4968196,340.92294 0.19382745,280.2278 0.79908105,346.58519 27.117406,410.48265 79.078693,455.51761 181.27157,544.09342 343.31972,526.55522 441.02203,416.36598 c 49.70494,-56.05922 73.00501,-125.29079 70.61349,-191.462 z"
       inkscape:connector-curvature="0"
       style="opacity:1;fill:#000000;fill-opacity:0.49019608;stroke-width:11.10954762" />
    <g
       style="fill:#000000;fill-opacity:0.49019608"
       transform="translate(20.000212,19.999947)"
       id="g891">
      <path
         inkscape:connector-curvature="0"
         id="path885"
         d="M 176.41016,202.64062 A 76.679451,76.679451 0 0 0 100,279.5 76.679451,76.679451 0 0 0 176.76953,356 76.679451,76.679451 0 0 0 246.9375,309.80859 76.679451,76.679451 0 0 1 197.97461,286.59375 v 17.80078 h -13.10547 v -36.12695 a 76.679451,76.679451 0 0 1 -8.46094,-34.6543 76.679451,76.679451 0 0 1 6.37305,-30.68359 76.679451,76.679451 0 0 0 -6.37109,-0.28907 z m -35.92578,36.44141 h 13.10546 v 52.58203 h 23.00977 v 12.73047 h -36.11523 z"
         style="fill:#000000;fill-opacity:0.49019608;stroke:none;stroke-width:5.22814417;stroke-miterlimit:4;stroke-dasharray:none;stroke-opacity:1" />
      <path
         inkscape:connector-curvature="0"
         id="path887"
         d="m 335.05078,199.28906 a 76.679451,76.679451 0 0 0 -12.83984,1.13282 76.679451,76.679451 0 0 1 7.55664,32.65234 v 0.35937 a 76.679451,76.679451 0 0 1 -0.77539,10.2461 c 1.06517,0.9599 2.06418,2.0331 2.98828,3.23242 4.62908,6.00774 6.94336,14.30614 6.94336,24.89258 0,10.55728 -2.31428,18.83991 -6.94336,24.84765 -4.62909,6.00774 -11.02829,9.01172 -19.19727,9.01172 -7.5654,0 -13.62235,-2.59583 -18.17382,-7.77734 a 76.679451,76.679451 0 0 1 -28.41602,11.09375 76.679451,76.679451 0 0 0 69.2168,43.66601 A 76.679451,76.679451 0 0 0 412,275.9668 v -0.35938 a 76.679451,76.679451 0 0 0 -76.94922,-76.31836 z m 13.74414,39.79297 h 35.36328 v 12.73047 h -22.25976 v 12.16211 h 20.93359 v 12.72851 h -20.93359 v 27.69141 h -13.10352 z m -24.46094,22.51172 a 76.679451,76.679451 0 0 1 -19.39257,28.2207 c 2.04564,2.41544 4.65406,3.64453 7.84179,3.64453 4.01642,0 7.12507,-1.89621 9.32618,-5.6875 2.20107,-3.7913 3.30078,-9.11331 3.30078,-15.96679 0,-3.90766 -0.36666,-7.29977 -1.07618,-10.21094 z"
         style="fill:#000000;fill-opacity:0.49019608;stroke:none;stroke-width:5.22814417;stroke-miterlimit:4;stroke-dasharray:none;stroke-opacity:1" />
      <path
         inkscape:connector-curvature="0"
         id="path889"
         d="m 252.81836,156.75391 a 76.679451,76.679451 0 0 0 -76.41016,76.85937 76.679451,76.679451 0 0 0 8.46094,34.81836 v -29.34961 h 21.75 c 6.46711,0 11.42587,1.85286 14.875,5.55664 3.47181,3.67464 5.20703,8.92374 5.20703,15.74805 0,6.85349 -1.73522,12.13214 -5.20703,15.83594 -3.44913,3.67462 -8.40789,5.51172 -14.875,5.51172 h -8.64453 v 4.99414 a 76.679451,76.679451 0 0 0 55.20312,23.38476 76.679451,76.679451 0 0 0 41.38477,-12.27734 c -0.33342,-0.38171 -0.65938,-0.77396 -0.97656,-1.1836 -4.6291,-6.00774 -6.94336,-14.29037 -6.94336,-24.84765 0,-10.58644 2.31426,-18.88484 6.94336,-24.89258 4.65177,-6.00774 11.05098,-9.00977 19.19726,-9.00977 6.53773,0 11.93855,1.92744 16.20899,5.77539 a 76.679451,76.679451 0 0 0 0.77539,-10.24414 v -0.35937 a 76.679451,76.679451 0 0 0 -76.94922,-76.32031 z m -16.89258,82.32812 h 20.01367 c 6.69402,0 11.59632,1.44483 14.70508,4.33203 3.13143,2.88721 4.69727,7.45036 4.69727,13.69141 0,4.31625 -0.81738,7.86032 -2.45118,10.63086 -1.6111,2.77056 -4.05077,4.81067 -7.31835,6.12305 1.79264,0.52494 3.39194,1.72141 4.79882,3.58789 1.42956,1.83732 2.87196,4.63631 4.32422,8.39843 l 7.11328,18.54883 h -13.95507 l -6.19532,-16.22851 c -1.24803,-3.26634 -2.51908,-5.49765 -3.8125,-6.69336 -1.27073,-1.19572 -2.97245,-1.79493 -5.10547,-1.79493 h -3.70898 v 24.7168 h -13.10547 z m 76.85742,11.02344 c -3.99372,0 -7.09189,1.89621 -9.29297,5.6875 -2.20108,3.79129 -3.30078,9.12908 -3.30078,16.01172 0,6.85348 1.0997,12.17549 3.30078,15.96679 0.44163,0.7607 0.92957,1.42319 1.44336,2.03125 a 76.679451,76.679451 0 0 0 19.41797,-28.13671 c -0.54151,-2.24671 -1.28046,-4.21651 -2.24218,-5.87305 -2.2011,-3.79129 -5.30976,-5.6875 -9.32618,-5.6875 z m -114.80859,1.18164 v 18.24219 h 7.25 c 2.54145,0 4.50448,-0.78648 5.88867,-2.36133 1.38419,-1.60401 2.07617,-3.86486 2.07617,-6.78125 0,-2.91637 -0.69198,-5.16148 -2.07617,-6.73633 -1.38419,-1.57485 -3.34722,-2.36328 -5.88867,-2.36328 z m 51.05664,0 v 16.75586 h 5.51367 c 2.7457,0 4.70871,-0.65639 5.88867,-1.96875 1.20266,-1.31237 1.80274,-3.47074 1.80274,-6.47461 0,-2.97471 -0.60008,-5.10352 -1.80274,-6.38672 -1.17996,-1.28321 -3.14297,-1.92578 -5.88867,-1.92578 z"
         style="fill:#000000;fill-opacity:0.49019608;stroke:none;stroke-width:5.22814417;stroke-miterlimit:4;stroke-dasharray:none;stroke-opacity:1" />
    </g>
    <g
       id="g883">
      <path
         style="fill:#ffffff;fill-opacity:1;stroke:none;stroke-width:5.22814417;stroke-miterlimit:4;stroke-dasharray:none;stroke-opacity:1"
         d="M 176.41016 202.64062 A 76.679451 76.679451 0 0 0 100 279.5 A 76.679451 76.679451 0 0 0 176.76953 356 A 76.679451 76.679451 0 0 0 246.9375 309.80859 A 76.679451 76.679451 0 0 1 197.97461 286.59375 L 197.97461 304.39453 L 184.86914 304.39453 L 184.86914 268.26758 A 76.679451 76.679451 0 0 1 176.4082 233.61328 A 76.679451 76.679451 0 0 1 182.78125 202.92969 A 76.679451 76.679451 0 0 0 176.41016 202.64062 z M 140.48438 239.08203 L 153.58984 239.08203 L 153.58984 291.66406 L 176.59961 291.66406 L 176.59961 304.39453 L 140.48438 304.39453 L 140.48438 239.08203 z "
         id="path4155" />
      <path
         style="fill:#ffffff;fill-opacity:1;stroke:none;stroke-width:5.22814417;stroke-miterlimit:4;stroke-dasharray:none;stroke-opacity:1"
         d="M 335.05078 199.28906 A 76.679451 76.679451 0 0 0 322.21094 200.42188 A 76.679451 76.679451 0 0 1 329.76758 233.07422 L 329.76758 233.43359 A 76.679451 76.679451 0 0 1 328.99219 243.67969 C 330.05736 244.63959 331.05637 245.71279 331.98047 246.91211 C 336.60955 252.91985 338.92383 261.21825 338.92383 271.80469 C 338.92383 282.36197 336.60955 290.6446 331.98047 296.65234 C 327.35138 302.66008 320.95218 305.66406 312.7832 305.66406 C 305.2178 305.66406 299.16085 303.06823 294.60938 297.88672 A 76.679451 76.679451 0 0 1 266.19336 308.98047 A 76.679451 76.679451 0 0 0 335.41016 352.64648 A 76.679451 76.679451 0 0 0 412 275.9668 L 412 275.60742 A 76.679451 76.679451 0 0 0 335.05078 199.28906 z M 348.79492 239.08203 L 384.1582 239.08203 L 384.1582 251.8125 L 361.89844 251.8125 L 361.89844 263.97461 L 382.83203 263.97461 L 382.83203 276.70312 L 361.89844 276.70312 L 361.89844 304.39453 L 348.79492 304.39453 L 348.79492 239.08203 z M 324.33398 261.59375 A 76.679451 76.679451 0 0 1 304.94141 289.81445 C 306.98705 292.22989 309.59547 293.45898 312.7832 293.45898 C 316.79962 293.45898 319.90827 291.56277 322.10938 287.77148 C 324.31045 283.98018 325.41016 278.65817 325.41016 271.80469 C 325.41016 267.89703 325.0435 264.50492 324.33398 261.59375 z "
         id="path4155-3" />
      <path
         style="fill:#ffffff;fill-opacity:1;stroke:none;stroke-width:5.22814417;stroke-miterlimit:4;stroke-dasharray:none;stroke-opacity:1"
         d="M 252.81836 156.75391 A 76.679451 76.679451 0 0 0 176.4082 233.61328 A 76.679451 76.679451 0 0 0 184.86914 268.43164 L 184.86914 239.08203 L 206.61914 239.08203 C 213.08625 239.08203 218.04501 240.93489 221.49414 244.63867 C 224.96595 248.31331 226.70117 253.56241 226.70117 260.38672 C 226.70117 267.24021 224.96595 272.51886 221.49414 276.22266 C 218.04501 279.89728 213.08625 281.73438 206.61914 281.73438 L 197.97461 281.73438 L 197.97461 286.72852 A 76.679451 76.679451 0 0 0 253.17773 310.11328 A 76.679451 76.679451 0 0 0 294.5625 297.83594 C 294.22908 297.45423 293.90312 297.06198 293.58594 296.65234 C 288.95684 290.6446 286.64258 282.36197 286.64258 271.80469 C 286.64258 261.21825 288.95684 252.91985 293.58594 246.91211 C 298.23771 240.90437 304.63692 237.90234 312.7832 237.90234 C 319.32093 237.90234 324.72175 239.82978 328.99219 243.67773 A 76.679451 76.679451 0 0 0 329.76758 233.43359 L 329.76758 233.07422 A 76.679451 76.679451 0 0 0 252.81836 156.75391 z M 235.92578 239.08203 L 255.93945 239.08203 C 262.63347 239.08203 267.53577 240.52686 270.64453 243.41406 C 273.77596 246.30127 275.3418 250.86442 275.3418 257.10547 C 275.3418 261.42172 274.52442 264.96579 272.89062 267.73633 C 271.27952 270.50689 268.83985 272.547 265.57227 273.85938 C 267.36491 274.38432 268.96421 275.58079 270.37109 277.44727 C 271.80065 279.28459 273.24305 282.08358 274.69531 285.8457 L 281.80859 304.39453 L 267.85352 304.39453 L 261.6582 288.16602 C 260.41017 284.89968 259.13912 282.66837 257.8457 281.47266 C 256.57497 280.27694 254.87325 279.67773 252.74023 279.67773 L 249.03125 279.67773 L 249.03125 304.39453 L 235.92578 304.39453 L 235.92578 239.08203 z M 312.7832 250.10547 C 308.78948 250.10547 305.69131 252.00168 303.49023 255.79297 C 301.28915 259.58426 300.18945 264.92205 300.18945 271.80469 C 300.18945 278.65817 301.28915 283.98018 303.49023 287.77148 C 303.93186 288.53218 304.4198 289.19467 304.93359 289.80273 A 76.679451 76.679451 0 0 0 324.35156 261.66602 C 323.81005 259.41931 323.0711 257.44951 322.10938 255.79297 C 319.90828 252.00168 316.79962 250.10547 312.7832 250.10547 z M 197.97461 251.28711 L 197.97461 269.5293 L 205.22461 269.5293 C 207.76606 269.5293 209.72909 268.74282 211.11328 267.16797 C 212.49747 265.56396 213.18945 263.30311 213.18945 260.38672 C 213.18945 257.47035 212.49747 255.22524 211.11328 253.65039 C 209.72909 252.07554 207.76606 251.28711 205.22461 251.28711 L 197.97461 251.28711 z M 249.03125 251.28711 L 249.03125 268.04297 L 254.54492 268.04297 C 257.29062 268.04297 259.25363 267.38658 260.43359 266.07422 C 261.63625 264.76185 262.23633 262.60348 262.23633 259.59961 C 262.23633 256.6249 261.63625 254.49609 260.43359 253.21289 C 259.25363 251.92968 257.29062 251.28711 254.54492 251.28711 L 249.03125 251.28711 z "
         id="path4155-3-6" />
    </g>
  </g>
</svg>
