<?xml version="1.0" encoding="UTF-8" standalone="no"?>
<!-- Created with Inkscape (http://www.inkscape.org/) -->

<svg
   xmlns:dc="http://purl.org/dc/elements/1.1/"
   xmlns:cc="http://creativecommons.org/ns#"
   xmlns:rdf="http://www.w3.org/1999/02/22-rdf-syntax-ns#"
   xmlns:svg="http://www.w3.org/2000/svg"
   xmlns="http://www.w3.org/2000/svg"
   xmlns:sodipodi="http://sodipodi.sourceforge.net/DTD/sodipodi-0.dtd"
   xmlns:inkscape="http://www.inkscape.org/namespaces/inkscape"
   id="svg3057"
   version="1.1"
   inkscape:version="0.92.3 (2405546, 2018-03-11)"
   width="512"
   height="512"
   sodipodi:docname="magnatune.svg">
  <metadata
     id="metadata3063">
    <rdf:RDF>
      <cc:Work
         rdf:about="">
        <dc:format>image/svg+xml</dc:format>
        <dc:type
           rdf:resource="http://purl.org/dc/dcmitype/StillImage" />
        <dc:title />
      </cc:Work>
    </rdf:RDF>
  </metadata>
  <defs
     id="defs3061" />
  <sodipodi:namedview
     pagecolor="#ffffff"
     bordercolor="#666666"
     borderopacity="1"
     objecttolerance="10"
     gridtolerance="10"
     guidetolerance="10"
     inkscape:pageopacity="0"
     inkscape:pageshadow="2"
     inkscape:window-width="1366"
     inkscape:window-height="718"
     id="namedview3059"
     showgrid="false"
     inkscape:zoom="0.65186406"
     inkscape:cx="254.72527"
     inkscape:cy="208.89112"
     inkscape:window-x="0"
     inkscape:window-y="25"
     inkscape:window-maximized="1"
     inkscape:current-layer="svg3057" />
  <g
     id="g836">
    <path
       style="fill:#3689e6;fill-opacity:1;stroke-width:11.10955811"
       inkscape:connector-curvature="0"
       d="m 432.91327,56.47396 c 102.19291,88.57459 105.82678,249.69971 8.1168,359.89879 C 343.3201,526.57182 181.27964,544.10062 79.086729,455.52601 -23.106186,366.95142 -26.740042,205.8263 70.969928,95.62722 168.6799,-14.57186 330.72036,-32.10063 432.91327,56.47396 Z"
       id="path27" />
    <path
       style="opacity:1;fill:#000000;fill-opacity:0.49019608;stroke-width:11.10955811"
       inkscape:connector-curvature="0"
       d="M 511.63551,224.90351 C 510.08412,286.21516 486.47428,349.05812 440.66913,400.71798 342.95915,510.91712 180.91869,528.44582 78.725776,439.87128 30.827124,398.35563 4.4968216,340.92283 0.19382772,280.2288 0.79907938,346.58547 27.117411,410.48217 79.078682,455.51906 181.27159,544.09362 343.31975,526.55622 441.02202,416.36576 490.72697,360.30765 514.02704,291.0748 511.63551,224.90351 Z"
       id="path51" />
    <path
       style="fill:#000000;fill-opacity:0.49019608;stroke-width:0.65561312"
       d="m 261.61328,431.64278 c -29.58538,-3.03254 -55.49855,-13.05579 -79.42086,-30.72007 -8.77057,-6.47622 -25.27647,-22.95712 -31.40308,-31.35553 -16.01211,-21.94956 -25.4575,-44.46425 -29.51396,-70.35155 -1.6901,-10.78575 -1.70292,-35.76352 -0.0237,-46.15627 4.52007,-27.97457 16.00346,-53.93689 33.33575,-75.36736 6.21567,-7.68535 19.87005,-20.75874 27.9564,-26.76687 41.39166,-30.75384 93.68251,-39.05883 143.02783,-22.71614 50.6429,16.77245 89.39322,59.03091 102.16879,111.41833 5.70482,23.39326 5.51194,51.7384 -0.5119,75.23179 -14.68768,57.28266 -61.76695,102.29418 -119.22788,113.99126 -4.83202,0.98364 -11.85673,2.12167 -15.61048,2.52897 -6.31995,0.68575 -25.0895,0.84641 -30.77692,0.26344 z m 23.14282,-42.41616 c 27.06699,-2.39563 50.47981,-12.90561 69.48128,-31.19004 20.60556,-19.82798 32.13219,-43.93396 34.73123,-72.63443 2.45229,-27.07988 -5.88952,-55.92451 -22.511,-77.83947 -4.7435,-6.25417 -15.20989,-16.82051 -21.22119,-21.42383 -22.7519,-17.4229 -50.85581,-25.73376 -78.58265,-23.23837 -53.8587,4.84723 -96.38367,45.47142 -103.48877,98.86302 -1.2047,9.05282 -0.48883,28.38182 1.37241,37.05616 10.68228,49.78463 51.40282,85.88762 101.9595,90.39768 8.80818,0.78577 9.48226,0.78611 18.25919,0.009 z m -30.54595,-47.93808 c -0.18634,-0.48906 -0.25732,-34.41464 -0.15773,-75.39019 l 0.18105,-74.50098 h 20.73376 20.73377 v 75.20383 75.20382 l -20.57603,0.18635 c -16.08248,0.14566 -20.65002,-0.008 -20.91482,-0.70283 z m -61.14838,-1.40615 c -0.18689,-0.4888 -0.25778,-20.49795 -0.15756,-44.46477 l 0.18223,-43.57606 h 21.78802 21.78802 v 44.27889 44.27889 l -21.63046,0.18589 c -16.92602,0.14546 -21.70437,-0.007 -21.97025,-0.70284 z m 120.18569,3e-4 c -0.18694,-0.48897 -0.2579,-20.65639 -0.15768,-44.8165 l 0.1822,-43.92746 h 21.08519 21.08518 v 44.6303 44.63031 l -20.9275,0.1862 c -16.36336,0.14558 -21.00165,-0.008 -21.26739,-0.70285 z"
       id="path830"
       inkscape:connector-curvature="0" />
    <path
       inkscape:connector-curvature="0"
       id="path2982"
       d="m 241.61328,411.64278 c -29.58538,-3.03254 -55.49855,-13.05579 -79.42086,-30.72007 -8.77057,-6.47622 -25.27647,-22.95712 -31.40308,-31.35553 -16.01211,-21.94956 -25.4575,-44.46425 -29.51396,-70.35155 -1.690098,-10.78575 -1.702918,-35.76352 -0.0237,-46.15627 4.52007,-27.97457 16.00346,-53.93689 33.33575,-75.36736 6.21567,-7.68535 19.87005,-20.75874 27.9564,-26.76687 41.39166,-30.75384 93.68251,-39.058836 143.02783,-22.71614 50.6429,16.77245 89.39322,59.03091 102.16879,111.41833 5.70482,23.39326 5.51194,51.7384 -0.5119,75.23179 -14.68768,57.28266 -61.76695,102.29418 -119.22788,113.99126 -4.83202,0.98364 -11.85673,2.12167 -15.61048,2.52897 -6.31995,0.68575 -25.0895,0.84641 -30.77692,0.26344 z m 23.14282,-42.41616 c 27.06699,-2.39563 50.47981,-12.90561 69.48128,-31.19004 20.60556,-19.82798 32.13219,-43.93396 34.73123,-72.63443 2.45229,-27.07988 -5.88952,-55.92451 -22.511,-77.83947 -4.7435,-6.25417 -15.20989,-16.82051 -21.22119,-21.42383 -22.7519,-17.4229 -50.85581,-25.73376 -78.58265,-23.23837 -53.8587,4.84723 -96.38367,45.47142 -103.48877,98.86302 -1.2047,9.05282 -0.48883,28.38182 1.37241,37.05616 10.68228,49.78463 51.40282,85.88762 101.9595,90.39768 8.80818,0.78577 9.48226,0.78611 18.25919,0.009 z m -30.54595,-47.93808 c -0.18634,-0.48906 -0.25732,-34.41464 -0.15773,-75.39019 l 0.18105,-74.50098 h 20.73376 20.73377 v 75.20383 75.20382 l -20.57603,0.18635 c -16.08248,0.14566 -20.65002,-0.008 -20.91482,-0.70283 z m -61.14838,-1.40615 c -0.18689,-0.4888 -0.25778,-20.49795 -0.15756,-44.46477 l 0.18223,-43.57606 h 21.78802 21.78802 v 44.27889 44.27889 l -21.63046,0.18589 c -16.92602,0.14546 -21.70437,-0.007 -21.97025,-0.70284 z m 120.18569,3e-4 c -0.18694,-0.48897 -0.2579,-20.65639 -0.15768,-44.8165 l 0.1822,-43.92746 h 21.08519 21.08518 v 44.6303 44.63031 l -20.9275,0.1862 c -16.36336,0.14558 -21.00165,-0.008 -21.26739,-0.70285 z"
       style="fill:#ffffff;fill-opacity:1;stroke-width:0.65561312" />
  </g>
</svg>
