<?xml version="1.0" encoding="UTF-8" standalone="no"?>
<!-- Created with Inkscape (http://www.inkscape.org/) -->

<svg
   xmlns:dc="http://purl.org/dc/elements/1.1/"
   xmlns:cc="http://creativecommons.org/ns#"
   xmlns:rdf="http://www.w3.org/1999/02/22-rdf-syntax-ns#"
   xmlns:svg="http://www.w3.org/2000/svg"
   xmlns="http://www.w3.org/2000/svg"
   xmlns:sodipodi="http://sodipodi.sourceforge.net/DTD/sodipodi-0.dtd"
   xmlns:inkscape="http://www.inkscape.org/namespaces/inkscape"
   id="svg2"
   version="1.1"
   inkscape:version="0.92.3 (2405546, 2018-03-11)"
   width="512"
   height="512"
   sodipodi:docname="mahjongg.svg"
   viewBox="0 0 512 512">
  <metadata
     id="metadata8">
    <rdf:RDF>
      <cc:Work
         rdf:about="">
        <dc:format>image/svg+xml</dc:format>
        <dc:type
           rdf:resource="http://purl.org/dc/dcmitype/StillImage" />
        <dc:title></dc:title>
      </cc:Work>
    </rdf:RDF>
  </metadata>
  <defs
     id="defs6" />
  <sodipodi:namedview
     pagecolor="#ffffff"
     bordercolor="#666666"
     borderopacity="1"
     objecttolerance="10"
     gridtolerance="10"
     guidetolerance="10"
     inkscape:pageopacity="0"
     inkscape:pageshadow="2"
     inkscape:window-width="1366"
     inkscape:window-height="718"
     id="namedview4"
     showgrid="false"
     inkscape:zoom="0.703125"
     inkscape:cx="328.98671"
     inkscape:cy="160.81359"
     inkscape:window-x="0"
     inkscape:window-y="25"
     inkscape:window-maximized="1"
     inkscape:current-layer="svg2"
     showguides="false"
     inkscape:guide-bbox="true"
     inkscape:document-units="px">
    <sodipodi:guide
       orientation="0,1"
       position="139.98317,148.037"
       id="guide3786"
       inkscape:locked="false" />
    <sodipodi:guide
       orientation="0,1"
       position="165.2952,101.63162"
       id="guide3788"
       inkscape:locked="false" />
    <sodipodi:guide
       orientation="1,0"
       position="128.86122,133.07989"
       id="guide3790"
       inkscape:locked="false" />
    <sodipodi:guide
       orientation="1,0"
       position="230.10933,101.63162"
       id="guide3792"
       inkscape:locked="false" />
  </sodipodi:namedview>
  <g
     id="g912">
    <path
       style="fill:#c6262e;fill-opacity:1;stroke-width:11.10955811"
       inkscape:connector-curvature="0"
       d="M 432.91326,56.473987 C 535.10617,145.04857 538.74004,306.1737 441.03006,416.37277 343.32009,526.57182 181.27966,544.10062 79.086741,455.52602 -23.106205,366.95145 -26.740032,205.82632 70.969941,95.62725 168.67991,-14.571838 330.72036,-32.1006 432.91326,56.473987 Z"
       id="path961" />
    <path
       style="opacity:1;fill:#000000;fill-opacity:0.49019608;stroke-width:11.10955811"
       inkscape:connector-curvature="0"
       d="M 511.63551,224.90354 C 510.08411,286.21517 486.47427,349.05814 440.66912,400.718 342.95916,510.91712 180.91871,528.44582 78.725758,439.8713 30.827125,398.35565 4.4968178,340.92285 0.19382591,280.22882 0.79907991,346.5855 27.117406,410.4822 79.07869,455.51912 c 102.19292,88.5745 264.24107,71.0371 361.94332,-39.15333 49.70495,-56.05812 73.00502,-125.29098 70.6135,-191.46225 z"
       id="path965" />
    <g
       id="g902"
       transform="matrix(0.89149348,0,0,0.89149348,20.957412,51.439361)"
       style="fill:#000000;fill-opacity:0.49019608">
      <path
         inkscape:connector-curvature="0"
         id="path898"
         d="m 274.92561,426.87989 12.5083,-22.19821 4.88249,-22.78484 3.90595,-227.52299 24.08684,-31.89878 -42.96573,-45.569698 -30.59678,30.271298 19.20436,28.31831 1.95301,265.93171 z"
         style="fill:#000000;fill-opacity:0.49019608;stroke:none" />
      <path
         inkscape:connector-curvature="0"
         id="path900"
         d="m 358.61706,156.30699 -62.82031,22.89257 -0.28516,16.55664 41.6211,-12.10742 14.9746,21.48438 -39.06054,50.77734 -18.57813,0.56836 -0.3125,18.31055 h 46.23243 V 255.9105 l 37.10742,-41.66406 18.8789,-1.95313 -3.25586,-13.67187 z m -181.62891,24.73828 -1.95312,33.20117 49.47656,46.87109 -1.30273,20.83203 43.77343,-6.17187 -0.13671,-18.45313 -17.59571,0.53907 -28.35937,-30.14844 44.63281,-23.23438 0.93164,-0.27148 -0.10351,-14.2793 -60.32618,21.98242 z"
         style="fill:#000000;fill-opacity:0.49019608;stroke:none" />
    </g>
    <g
       style="fill:#ffffff"
       transform="matrix(0.89149348,0,0,0.89149348,0.95741198,31.439361)"
       id="g896">
      <path
         style="fill:#ffffff;stroke:none"
         d="m 274.92561,426.87989 12.5083,-22.19821 4.88249,-22.78484 3.90595,-227.52299 24.08684,-31.89878 -42.96573,-45.569698 -30.59678,30.271298 19.20436,28.31831 1.95301,265.93171 z"
         id="path3001"
         inkscape:connector-curvature="0" />
      <path
         style="fill:#ffffff;stroke:none"
         d="m 358.61706,156.30699 -62.82031,22.89257 -0.28516,16.55664 41.6211,-12.10742 14.9746,21.48438 -39.06054,50.77734 -18.57813,0.56836 -0.3125,18.31055 h 46.23243 V 255.9105 l 37.10742,-41.66406 18.8789,-1.95313 -3.25586,-13.67187 z m -181.62891,24.73828 -1.95312,33.20117 49.47656,46.87109 -1.30273,20.83203 43.77343,-6.17187 -0.13671,-18.45313 -17.59571,0.53907 -28.35937,-30.14844 44.63281,-23.23438 0.93164,-0.27148 -0.10351,-14.2793 -60.32618,21.98242 z"
         id="path3773"
         inkscape:connector-curvature="0" />
    </g>
  </g>
</svg>
