<?xml version="1.0" encoding="UTF-8" standalone="no"?>
<svg
   xmlns:dc="http://purl.org/dc/elements/1.1/"
   xmlns:cc="http://creativecommons.org/ns#"
   xmlns:rdf="http://www.w3.org/1999/02/22-rdf-syntax-ns#"
   xmlns:svg="http://www.w3.org/2000/svg"
   xmlns="http://www.w3.org/2000/svg"
   xmlns:sodipodi="http://sodipodi.sourceforge.net/DTD/sodipodi-0.dtd"
   xmlns:inkscape="http://www.inkscape.org/namespaces/inkscape"
   viewBox="0 0 512 512"
   id="svg2"
   version="1.1"
   inkscape:version="0.92.3 (2405546, 2018-03-11)"
   width="512"
   height="512"
   sodipodi:docname="mate-notification-properties.svg">
  <metadata
     id="metadata65">
    <rdf:RDF>
      <cc:Work
         rdf:about="">
        <dc:format>image/svg+xml</dc:format>
        <dc:type
           rdf:resource="http://purl.org/dc/dcmitype/StillImage" />
        <dc:title></dc:title>
      </cc:Work>
    </rdf:RDF>
  </metadata>
  <sodipodi:namedview
     pagecolor="#ffffff"
     bordercolor="#666666"
     borderopacity="1"
     objecttolerance="10"
     gridtolerance="10"
     guidetolerance="10"
     inkscape:pageopacity="0"
     inkscape:pageshadow="2"
     inkscape:window-width="1366"
     inkscape:window-height="718"
     id="namedview63"
     showgrid="false"
     inkscape:zoom="0.61458334"
     inkscape:cx="150.69909"
     inkscape:cy="290.10001"
     inkscape:window-x="0"
     inkscape:window-y="25"
     inkscape:window-maximized="1"
     inkscape:current-layer="svg2"
     units="px" />
  <defs
     id="defs4">
    <linearGradient
       id="linearGradient3764"
       x1="1"
       x2="47"
       gradientUnits="userSpaceOnUse"
       gradientTransform="rotate(-90,23.999998,24)">
      <stop
         stop-color="#3d3d3d"
         stop-opacity="1"
         id="stop7" />
      <stop
         offset="1"
         stop-color="#474747"
         stop-opacity="1"
         id="stop9" />
    </linearGradient>
    <clipPath
       id="clipPath-156864852">
      <g
         transform="translate(0,-1004.3622)"
         id="g12">
        <path
           d="m -24,13 c 0,1.105 -0.672,2 -1.5,2 -0.828,0 -1.5,-0.895 -1.5,-2 0,-1.105 0.672,-2 1.5,-2 0.828,0 1.5,0.895 1.5,2 z"
           transform="matrix(15.333333,0,0,11.5,414.99999,878.8622)"
           id="path14"
           inkscape:connector-curvature="0"
           style="fill:#1890d0" />
      </g>
    </clipPath>
    <clipPath
       id="clipPath-165128749">
      <g
         transform="translate(0,-1004.3622)"
         id="g17">
        <path
           d="m -24,13 c 0,1.105 -0.672,2 -1.5,2 -0.828,0 -1.5,-0.895 -1.5,-2 0,-1.105 0.672,-2 1.5,-2 0.828,0 1.5,0.895 1.5,2 z"
           transform="matrix(15.333333,0,0,11.5,414.99999,878.8622)"
           id="path19"
           inkscape:connector-curvature="0"
           style="fill:#1890d0" />
      </g>
    </clipPath>
  </defs>
  <g
     id="g33"
     transform="translate(0,963)" />
  <g
     id="g851">
    <path
       style="fill:#68b723;fill-opacity:1;stroke-width:11.10955238"
       inkscape:connector-curvature="0"
       d="m 432.91337,56.47397 c 102.1928,88.57459 105.82666,249.69971 8.11679,359.89879 C 343.3201,526.57182 181.27948,544.10062 79.086674,455.52602 -23.106167,366.95143 -26.740027,205.82631 70.969882,95.62723 168.67976,-14.57185 330.7203,-32.10062 432.91337,56.47397 Z"
       id="path911" />
    <path
       style="opacity:1;fill:#000000;fill-opacity:0.49019608;stroke-width:11.10955238"
       inkscape:connector-curvature="0"
       d="M 511.63501,224.90352 C 510.08361,286.21518 486.4738,349.05812 440.6687,400.71801 342.95883,510.91712 180.91853,528.44582 78.72572,439.87127 30.827116,398.35564 4.496841,340.92283 0.19385162,280.22879 0.79910241,346.58547 27.117407,410.48219 79.078624,455.51904 181.27144,544.09362 343.31942,526.55622 441.0216,416.36578 490.72649,360.30764 514.02655,291.07481 511.63501,224.90352 Z"
       id="path913" />
    <path
       style="fill:#000000;stroke-width:1.5132848;fill-opacity:0.49019608"
       d="m 134.0635,430.18643 c -9.74767,-5.33156 -8.98567,-10.59122 4.4386,-30.63737 12.65811,-18.90205 17.50403,-29.77869 17.50403,-39.28773 0,-5.39671 -1.16322,-7.98724 -6.90899,-15.38668 -22.03126,-28.37189 -32.43238,-64.85943 -28.15121,-98.75554 3.77656,-29.90101 15.61572,-54.44161 37.19109,-77.09101 46.8598,-49.19251 118.05637,-63.43507 184.00314,-36.80897 17.58678,7.10068 32.08424,17.09944 48.39365,33.37662 28.85984,28.8028 41.15268,57.2934 41.46152,96.09358 0.30513,38.33214 -14.35844,71.24006 -44.27417,99.35999 -40.27161,37.85416 -99.45512,52.35681 -154.25802,37.80025 l -11.07013,-2.9404 -15.41235,9.80123 c -32.89831,20.92114 -61.72534,30.59748 -72.91716,24.47603 z"
       id="path845"
       inkscape:connector-curvature="0"
       sodipodi:nodetypes="ssscssssssscss" />
    <path
       sodipodi:nodetypes="ssscssssssscss"
       inkscape:connector-curvature="0"
       id="path880"
       d="m 114.06351,410.18643 c -9.74767,-5.33156 -8.98567,-10.59122 4.4386,-30.63737 12.65811,-18.90205 17.50403,-29.77869 17.50403,-39.28773 0,-5.39671 -1.16322,-7.98724 -6.90899,-15.38668 -22.03126,-28.37189 -32.432376,-64.85943 -28.15121,-98.75554 3.77656,-29.90101 15.61572,-54.44161 37.19109,-77.09101 46.8598,-49.19251 118.05637,-63.43507 184.00314,-36.80897 17.58678,7.10068 32.08424,17.09944 48.39365,33.37662 28.85984,28.8028 41.15268,57.2934 41.46152,96.09358 0.30513,38.33214 -14.35844,71.24006 -44.27417,99.35999 -40.27161,37.85416 -99.45512,52.35681 -154.25802,37.80025 l -11.07013,-2.9404 -15.41235,9.80123 c -32.89831,20.92114 -61.72534,30.59748 -72.91716,24.47603 z"
       style="fill:#ffffff;stroke-width:1.5132848" />
  </g>
</svg>
