<?xml version="1.0" encoding="UTF-8" standalone="no"?>
<!-- Created with Inkscape (http://www.inkscape.org/) -->

<svg
   xmlns:dc="http://purl.org/dc/elements/1.1/"
   xmlns:cc="http://creativecommons.org/ns#"
   xmlns:rdf="http://www.w3.org/1999/02/22-rdf-syntax-ns#"
   xmlns:svg="http://www.w3.org/2000/svg"
   xmlns="http://www.w3.org/2000/svg"
   xmlns:sodipodi="http://sodipodi.sourceforge.net/DTD/sodipodi-0.dtd"
   xmlns:inkscape="http://www.inkscape.org/namespaces/inkscape"
   width="512"
   height="512"
   id="svg859"
   version="1.1"
   inkscape:version="0.92.3 (2405546, 2018-03-11)"
   sodipodi:docname="mate-panel-launcher.svg">
  <defs
     id="defs861" />
  <sodipodi:namedview
     id="base"
     pagecolor="#ffffff"
     bordercolor="#666666"
     borderopacity="1.0"
     inkscape:pageopacity="0.0"
     inkscape:pageshadow="2"
     inkscape:zoom="0.7173547"
     inkscape:cx="141.07613"
     inkscape:cy="214.19246"
     inkscape:document-units="px"
     inkscape:current-layer="layer1"
     showgrid="false"
     width="0px"
     height="0px"
     fit-margin-top="0"
     fit-margin-left="0"
     fit-margin-right="0"
     fit-margin-bottom="0"
     inkscape:window-width="1366"
     inkscape:window-height="718"
     inkscape:window-x="0"
     inkscape:window-y="25"
     inkscape:window-maximized="1"
     showguides="false">
    <sodipodi:guide
       position="2,41.000017"
       orientation="34,0"
       id="guide3353"
       inkscape:locked="false" />
    <sodipodi:guide
       position="2,7.0000174"
       orientation="0,43.999992"
       id="guide3355"
       inkscape:locked="false" />
    <sodipodi:guide
       position="45.999992,7.0000174"
       orientation="-34,0"
       id="guide3357"
       inkscape:locked="false" />
    <sodipodi:guide
       position="45.999992,41.000017"
       orientation="0,-43.999992"
       id="guide3359"
       inkscape:locked="false" />
    <sodipodi:guide
       position="2,41.000017"
       orientation="4,0"
       id="guide3361"
       inkscape:locked="false" />
    <sodipodi:guide
       position="2,37.000017"
       orientation="0,43.999981"
       id="guide3363"
       inkscape:locked="false" />
    <sodipodi:guide
       position="45.999981,37.000017"
       orientation="-4,0"
       id="guide3365"
       inkscape:locked="false" />
    <sodipodi:guide
       position="45.999981,41.000017"
       orientation="0,-43.999981"
       id="guide3367"
       inkscape:locked="false" />
  </sodipodi:namedview>
  <metadata
     id="metadata864">
    <rdf:RDF>
      <cc:Work
         rdf:about="">
        <dc:format>image/svg+xml</dc:format>
        <dc:type
           rdf:resource="http://purl.org/dc/dcmitype/StillImage" />
        <dc:title></dc:title>
      </cc:Work>
    </rdf:RDF>
  </metadata>
  <g
     inkscape:label="Capa 1"
     inkscape:groupmode="layer"
     id="layer1"
     transform="translate(0,-540.3622)">
    <g
       transform="translate(1.7476037e-7,2.114663e-5)"
       id="g972">
      <path
         id="path943"
         d="m 432.91326,596.83616 c 102.19291,88.57459 105.82678,249.69971 8.1168,359.89879 C 343.32009,1066.934 181.27965,1084.4628 79.086743,995.8882 -23.106206,907.31362 -26.740033,746.1885 70.969943,635.98942 168.67991,525.79034 330.72036,508.26157 432.91326,596.83616 Z"
         inkscape:connector-curvature="0"
         style="fill:#3689e6;fill-opacity:1;stroke-width:11.10955811" />
      <path
         id="path947"
         d="m 511.6355,765.26571 c -1.55139,61.31164 -25.16123,124.1546 -70.96638,175.81447 C 342.95915,1051.2793 180.9187,1068.808 78.725753,980.23348 30.827124,938.71783 4.4968184,881.28503 0.19382634,820.591 0.79907934,886.94767 27.117404,950.84437 79.078693,995.8813 181.2716,1084.4558 343.31975,1066.9184 441.02201,956.72796 490.72696,900.66985 514.02703,831.43699 511.6355,765.26571 Z"
         inkscape:connector-curvature="0"
         style="opacity:1;fill:#000000;fill-opacity:0.49019608;stroke-width:11.10955811" />
      <g
         style="fill:#000000;fill-opacity:0.49019608"
         transform="translate(20.000001,20)"
         id="g960">
        <g
           style="fill:#000000;fill-opacity:0.49019608"
           transform="translate(-18.442791,956.7562)"
           id="g956">
          <path
             id="path954"
             d="m 275.01521,-284.24059 c -87.65552,-0.006 -127.60557,0.19224 -130.11136,0.64647 -12.49722,2.2656 -23.54885,13.31724 -25.81446,25.81445 -0.4496,2.47989 -0.65248,33.11777 -0.64647,97.50785 0.008,81.525712 0.12984,94.406032 0.92771,97.791032 2.67197,11.3353 12.03143,21.05017 23.25198,24.13477 4.54779,1.25 258.68553,1.27851 263.37894,0.0296 11.43248,-3.04278 20.81453,-12.68026 23.5215,-24.16405 0.79824,-3.38641 0.91797,-16.30478 0.91797,-98.359382 0,-104.07319 0.20456,-98.37617 -3.78907,-105.98442 -2.49694,-4.75689 -8.86029,-11.12025 -13.61719,-13.61718 -7.69426,-4.03877 1.38177,-3.78882 -138.01955,-3.79882 z m -111.57229,26.84569 a 15.000004,15.000004 0 0 1 15.00001,15.00001 15.000004,15.000004 0 0 1 -15.00001,15 15.000004,15.000004 0 0 1 -15,-15 15.000004,15.000004 0 0 1 15,-15.00001 z m 44.00002,0 a 15.000004,15.000004 0 0 1 15,15.00001 15.000004,15.000004 0 0 1 -15,15 15.000004,15.000004 0 0 1 -15.00002,-15 15.000004,15.000004 0 0 1 15.00002,-15.00001 z m 43.99999,0 a 15.000004,15.000004 0 0 1 15,15.00001 15.000004,15.000004 0 0 1 -15,15 15.000004,15.000004 0 0 1 -14.99999,-15 15.000004,15.000004 0 0 1 14.99999,-15.00001 z m -120.23635,51.15237 H 274.4488 417.69102 l -0.168,70.54102 -0.166,70.541042 -1.32813,2.875 c -1.8654,4.03779 -6.35258,8.61034 -10.1211,10.31445 l -3.17772,1.43555 -127.36917,0.11519 c -133.38726,0.11989 -129.12022,0.19696 -134.1055,-2.40234 -2.63625,-1.37471 -6.85342,-6.13679 -8.40233,-9.48828 l -1.31642,-2.84961 -0.16409,-70.541032 z"
             style="fill:#000000;fill-opacity:0.49019608;stroke-width:0.60942417"
             inkscape:connector-curvature="0" />
        </g>
        <path
           inkscape:connector-curvature="0"
           id="path958"
           d="m 252.73275,898.5409 c -1.37927,-0.17051 -2.834,-0.58364 -3.84545,-1.09208 -2.35541,-1.18406 -3.09913,-2.81431 -3.54437,-7.76927 -0.4123,-4.58844 -0.62524,-5.65092 -1.1885,-5.93024 -0.24405,-0.121 -2.00735,-0.7142 -3.91847,-1.31815 -1.91111,-0.60398 -5.17235,-1.94873 -7.24721,-2.98835 -2.07484,-1.03962 -3.98665,-1.89046 -4.24845,-1.89072 -0.26181,-2.8e-4 -1.06048,0.50656 -1.77483,1.12629 -2.3489,2.03781 -5.42736,4.39525 -6.38877,4.8924 -1.49649,0.77387 -3.86952,0.6375 -5.65548,-0.32496 -4.61806,-2.4887 -10.88365,-9.50121 -11.44199,-12.80599 -0.35951,-2.12789 0.71295,-4.05916 5.16032,-9.29259 0.82357,-0.96911 1.49715,-1.96745 1.49688,-2.21853 -2.8e-4,-0.25107 -0.83458,-2.1211 -1.85398,-4.1556 -1.01942,-2.03449 -2.36098,-5.29573 -2.98124,-7.24721 -0.62025,-1.95147 -1.22997,-3.74778 -1.35489,-3.99181 -0.28051,-0.54796 -1.29988,-0.7645 -5.64157,-1.19843 -1.87096,-0.18698 -3.89342,-0.47855 -4.49437,-0.64792 -1.73794,-0.48984 -3.07903,-1.79863 -3.78995,-3.69874 -0.8513,-2.27534 -1.24886,-7.36335 -0.8861,-11.34046 0.32806,-3.59649 0.64399,-4.85018 1.56801,-6.22199 1.18472,-1.7589 2.56496,-2.27385 7.48498,-2.79261 2.42362,-0.25553 4.688,-0.52058 5.03194,-0.58897 0.51281,-0.10202 0.84727,-0.80731 1.85858,-3.91958 0.67828,-2.08739 2.09059,-5.51702 3.13847,-7.62144 1.04788,-2.1044 1.9087,-4.09468 1.91293,-4.42288 0.005,-0.32818 -0.56257,-1.25995 -1.25957,-2.07062 -4.5066,-5.2416 -5.34997,-6.71094 -5.1823,-9.02884 0.17905,-2.47552 1.52084,-4.52337 5.72807,-8.74222 4.35358,-4.36563 6.46051,-5.60603 9.14425,-5.38347 1.86068,0.15427 3.25057,0.99702 6.95906,4.21951 3.37946,2.93658 2.93383,2.88902 7.15284,0.7634 2.00422,-1.00977 5.50758,-2.46697 7.78527,-3.23824 4.80345,-1.62657 4.31772,-0.93191 4.88228,-6.98227 0.43981,-4.71336 0.69828,-5.58056 2.07309,-6.95537 1.84531,-1.8453 3.51187,-2.21224 10.05339,-2.21351 6.11918,-9e-4 7.87998,0.29687 9.74804,1.65008 1.86735,1.35271 2.33248,2.60966 2.86664,7.74678 0.45675,4.39274 0.87408,5.83601 1.68753,5.83601 1.04134,0 6.42711,2.04425 10.31339,3.91457 l 4.353,2.09498 1.01784,-0.7123 c 0.55981,-0.39176 2.26154,-1.72543 3.78162,-2.96372 1.52009,-1.2383 3.18978,-2.46958 3.71044,-2.7362 1.41434,-0.72423 3.55029,-0.61812 5.32108,0.26429 3.36923,1.67896 9.16183,7.55563 10.77879,10.93523 0.99185,2.07306 1.0855,3.70142 0.30135,5.23949 -0.57982,1.13729 -2.97697,4.29632 -4.80167,6.32777 -0.5998,0.66776 -1.17846,1.49112 -1.28592,1.82968 -0.1373,0.43261 0.4043,1.83024 1.8221,4.70199 1.10962,2.24751 2.52582,5.65021 3.14715,7.56152 0.6213,1.91134 1.27984,3.56795 1.4634,3.6814 0.18354,0.1135 2.49906,0.44293 5.14559,0.7322 3.4598,0.37816 5.14526,0.69603 5.9984,1.13128 2.55856,1.30528 3.54015,4.36755 3.54851,11.07047 0.005,4.91415 -0.34931,7.21833 -1.41822,9.19373 -1.19686,2.21187 -2.40466,2.75213 -7.37303,3.29798 -6.56468,0.72127 -6.00915,0.38175 -7.3072,4.46609 -0.60776,1.91231 -2.0194,5.38009 -3.137,7.70616 -1.65183,3.43795 -1.98246,4.35961 -1.76712,4.926 0.14571,0.3832 0.40587,0.78386 0.57815,0.89035 0.55642,0.34387 4.93979,5.89557 5.47995,6.94052 0.78951,1.52737 0.67379,3.56832 -0.31584,5.57123 -0.60641,1.22724 -1.90872,2.76897 -4.69306,5.5558 -4.47661,4.48056 -6.47742,5.75647 -9.02704,5.75647 -1.95301,0 -2.84424,-0.43718 -5.77147,-2.8311 -3.53502,-2.89094 -4.62758,-3.67659 -5.11283,-3.67659 -0.24151,0 -2.18494,0.86511 -4.31874,1.92247 -2.13379,1.05737 -5.47395,2.44168 -7.42258,3.07624 -2.17972,0.70984 -3.67742,1.36438 -3.89242,1.70113 -0.19219,0.30104 -0.56121,2.53517 -0.82002,4.96472 -0.68831,6.46117 -1.55281,7.82134 -5.64741,8.88529 -2.17847,0.56609 -8.68128,0.81063 -11.68427,0.43945 z m 8.43042,-38.47389 c 10.48854,-1.28532 19.22013,-7.50666 23.82653,-16.97664 2.34473,-4.82034 2.79991,-7.00453 2.77396,-13.3112 -0.0201,-4.89714 -0.0855,-5.53301 -0.81509,-7.92284 -1.6836,-5.5153 -3.97346,-9.3821 -7.85388,-13.26252 -3.87664,-3.87664 -7.73127,-6.16054 -13.26252,-7.85817 -2.42324,-0.74374 -2.96719,-0.79747 -8.07074,-0.79747 -5.11299,0 -5.64723,0.0529 -8.13462,0.80759 -5.56311,1.68762 -9.83761,4.27703 -13.66709,8.27922 -2.68946,2.81077 -4.13796,4.90802 -5.71438,8.27377 -5.34184,11.4051 -2.90104,25.0933 6.07505,34.06939 4.74981,4.74982 11.31644,7.95565 17.86346,8.721 2.91104,0.34031 4.05133,0.3367 6.97932,-0.0221 z"
           style="fill:#000000;fill-opacity:0.49019608;stroke-width:0.29580432" />
      </g>
      <g
         id="g952">
        <g
           id="g849"
           transform="translate(-18.442791,956.7562)">
          <path
             inkscape:connector-curvature="0"
             style="fill:#ffffff;stroke-width:0.60942417"
             d="m 275.01521,-284.24059 c -87.65552,-0.006 -127.60557,0.19224 -130.11136,0.64647 -12.49722,2.2656 -23.54885,13.31724 -25.81446,25.81445 -0.4496,2.47989 -0.65248,33.11777 -0.64647,97.50785 0.008,81.525712 0.12984,94.406032 0.92771,97.791032 2.67197,11.3353 12.03143,21.05017 23.25198,24.13477 4.54779,1.25 258.68553,1.27851 263.37894,0.0296 11.43248,-3.04278 20.81453,-12.68026 23.5215,-24.16405 0.79824,-3.38641 0.91797,-16.30478 0.91797,-98.359382 0,-104.07319 0.20456,-98.37617 -3.78907,-105.98442 -2.49694,-4.75689 -8.86029,-11.12025 -13.61719,-13.61718 -7.69426,-4.03877 1.38177,-3.78882 -138.01955,-3.79882 z m -111.57229,26.84569 a 15.000004,15.000004 0 0 1 15.00001,15.00001 15.000004,15.000004 0 0 1 -15.00001,15 15.000004,15.000004 0 0 1 -15,-15 15.000004,15.000004 0 0 1 15,-15.00001 z m 44.00002,0 a 15.000004,15.000004 0 0 1 15,15.00001 15.000004,15.000004 0 0 1 -15,15 15.000004,15.000004 0 0 1 -15.00002,-15 15.000004,15.000004 0 0 1 15.00002,-15.00001 z m 43.99999,0 a 15.000004,15.000004 0 0 1 15,15.00001 15.000004,15.000004 0 0 1 -15,15 15.000004,15.000004 0 0 1 -14.99999,-15 15.000004,15.000004 0 0 1 14.99999,-15.00001 z m -120.23635,51.15237 H 274.4488 417.69102 l -0.168,70.54102 -0.166,70.541042 -1.32813,2.875 c -1.8654,4.03779 -6.35258,8.61034 -10.1211,10.31445 l -3.17772,1.43555 -127.36917,0.11519 c -133.38726,0.11989 -129.12022,0.19696 -134.1055,-2.40234 -2.63625,-1.37471 -6.85342,-6.13679 -8.40233,-9.48828 l -1.31642,-2.84961 -0.16409,-70.541032 z"
             id="path841" />
        </g>
        <path
           style="fill:#ffffff;stroke-width:0.29580432"
           d="m 252.73275,898.5409 c -1.37927,-0.17051 -2.834,-0.58364 -3.84545,-1.09208 -2.35541,-1.18406 -3.09913,-2.81431 -3.54437,-7.76927 -0.4123,-4.58844 -0.62524,-5.65092 -1.1885,-5.93024 -0.24405,-0.121 -2.00735,-0.7142 -3.91847,-1.31815 -1.91111,-0.60398 -5.17235,-1.94873 -7.24721,-2.98835 -2.07484,-1.03962 -3.98665,-1.89046 -4.24845,-1.89072 -0.26181,-2.8e-4 -1.06048,0.50656 -1.77483,1.12629 -2.3489,2.03781 -5.42736,4.39525 -6.38877,4.8924 -1.49649,0.77387 -3.86952,0.6375 -5.65548,-0.32496 -4.61806,-2.4887 -10.88365,-9.50121 -11.44199,-12.80599 -0.35951,-2.12789 0.71295,-4.05916 5.16032,-9.29259 0.82357,-0.96911 1.49715,-1.96745 1.49688,-2.21853 -2.8e-4,-0.25107 -0.83458,-2.1211 -1.85398,-4.1556 -1.01942,-2.03449 -2.36098,-5.29573 -2.98124,-7.24721 -0.62025,-1.95147 -1.22997,-3.74778 -1.35489,-3.99181 -0.28051,-0.54796 -1.29988,-0.7645 -5.64157,-1.19843 -1.87096,-0.18698 -3.89342,-0.47855 -4.49437,-0.64792 -1.73794,-0.48984 -3.07903,-1.79863 -3.78995,-3.69874 -0.8513,-2.27534 -1.24886,-7.36335 -0.8861,-11.34046 0.32806,-3.59649 0.64399,-4.85018 1.56801,-6.22199 1.18472,-1.7589 2.56496,-2.27385 7.48498,-2.79261 2.42362,-0.25553 4.688,-0.52058 5.03194,-0.58897 0.51281,-0.10202 0.84727,-0.80731 1.85858,-3.91958 0.67828,-2.08739 2.09059,-5.51702 3.13847,-7.62144 1.04788,-2.1044 1.9087,-4.09468 1.91293,-4.42288 0.005,-0.32818 -0.56257,-1.25995 -1.25957,-2.07062 -4.5066,-5.2416 -5.34997,-6.71094 -5.1823,-9.02884 0.17905,-2.47552 1.52084,-4.52337 5.72807,-8.74222 4.35358,-4.36563 6.46051,-5.60603 9.14425,-5.38347 1.86068,0.15427 3.25057,0.99702 6.95906,4.21951 3.37946,2.93658 2.93383,2.88902 7.15284,0.7634 2.00422,-1.00977 5.50758,-2.46697 7.78527,-3.23824 4.80345,-1.62657 4.31772,-0.93191 4.88228,-6.98227 0.43981,-4.71336 0.69828,-5.58056 2.07309,-6.95537 1.84531,-1.8453 3.51187,-2.21224 10.05339,-2.21351 6.11918,-9e-4 7.87998,0.29687 9.74804,1.65008 1.86735,1.35271 2.33248,2.60966 2.86664,7.74678 0.45675,4.39274 0.87408,5.83601 1.68753,5.83601 1.04134,0 6.42711,2.04425 10.31339,3.91457 l 4.353,2.09498 1.01784,-0.7123 c 0.55981,-0.39176 2.26154,-1.72543 3.78162,-2.96372 1.52009,-1.2383 3.18978,-2.46958 3.71044,-2.7362 1.41434,-0.72423 3.55029,-0.61812 5.32108,0.26429 3.36923,1.67896 9.16183,7.55563 10.77879,10.93523 0.99185,2.07306 1.0855,3.70142 0.30135,5.23949 -0.57982,1.13729 -2.97697,4.29632 -4.80167,6.32777 -0.5998,0.66776 -1.17846,1.49112 -1.28592,1.82968 -0.1373,0.43261 0.4043,1.83024 1.8221,4.70199 1.10962,2.24751 2.52582,5.65021 3.14715,7.56152 0.6213,1.91134 1.27984,3.56795 1.4634,3.6814 0.18354,0.1135 2.49906,0.44293 5.14559,0.7322 3.4598,0.37816 5.14526,0.69603 5.9984,1.13128 2.55856,1.30528 3.54015,4.36755 3.54851,11.07047 0.005,4.91415 -0.34931,7.21833 -1.41822,9.19373 -1.19686,2.21187 -2.40466,2.75213 -7.37303,3.29798 -6.56468,0.72127 -6.00915,0.38175 -7.3072,4.46609 -0.60776,1.91231 -2.0194,5.38009 -3.137,7.70616 -1.65183,3.43795 -1.98246,4.35961 -1.76712,4.926 0.14571,0.3832 0.40587,0.78386 0.57815,0.89035 0.55642,0.34387 4.93979,5.89557 5.47995,6.94052 0.78951,1.52737 0.67379,3.56832 -0.31584,5.57123 -0.60641,1.22724 -1.90872,2.76897 -4.69306,5.5558 -4.47661,4.48056 -6.47742,5.75647 -9.02704,5.75647 -1.95301,0 -2.84424,-0.43718 -5.77147,-2.8311 -3.53502,-2.89094 -4.62758,-3.67659 -5.11283,-3.67659 -0.24151,0 -2.18494,0.86511 -4.31874,1.92247 -2.13379,1.05737 -5.47395,2.44168 -7.42258,3.07624 -2.17972,0.70984 -3.67742,1.36438 -3.89242,1.70113 -0.19219,0.30104 -0.56121,2.53517 -0.82002,4.96472 -0.68831,6.46117 -1.55281,7.82134 -5.64741,8.88529 -2.17847,0.56609 -8.68128,0.81063 -11.68427,0.43945 z m 8.43042,-38.47389 c 10.48854,-1.28532 19.22013,-7.50666 23.82653,-16.97664 2.34473,-4.82034 2.79991,-7.00453 2.77396,-13.3112 -0.0201,-4.89714 -0.0855,-5.53301 -0.81509,-7.92284 -1.6836,-5.5153 -3.97346,-9.3821 -7.85388,-13.26252 -3.87664,-3.87664 -7.73127,-6.16054 -13.26252,-7.85817 -2.42324,-0.74374 -2.96719,-0.79747 -8.07074,-0.79747 -5.11299,0 -5.64723,0.0529 -8.13462,0.80759 -5.56311,1.68762 -9.83761,4.27703 -13.66709,8.27922 -2.68946,2.81077 -4.13796,4.90802 -5.71438,8.27377 -5.34184,11.4051 -2.90104,25.0933 6.07505,34.06939 4.74981,4.74982 11.31644,7.95565 17.86346,8.721 2.91104,0.34031 4.05133,0.3367 6.97932,-0.0221 z"
           id="path844"
           inkscape:connector-curvature="0" />
      </g>
    </g>
  </g>
</svg>
