<?xml version="1.0" encoding="UTF-8" standalone="no"?>
<!-- Created with Inkscape (http://www.inkscape.org/) -->

<svg
   xmlns:dc="http://purl.org/dc/elements/1.1/"
   xmlns:cc="http://creativecommons.org/ns#"
   xmlns:rdf="http://www.w3.org/1999/02/22-rdf-syntax-ns#"
   xmlns:svg="http://www.w3.org/2000/svg"
   xmlns="http://www.w3.org/2000/svg"
   xmlns:sodipodi="http://sodipodi.sourceforge.net/DTD/sodipodi-0.dtd"
   xmlns:inkscape="http://www.inkscape.org/namespaces/inkscape"
   id="svg3007"
   version="1.1"
   inkscape:version="0.92.3 (2405546, 2018-03-11)"
   width="512"
   height="512"
   sodipodi:docname="media-player-banshee.svg">
  <metadata
     id="metadata3013">
    <rdf:RDF>
      <cc:Work
         rdf:about="">
        <dc:format>image/svg+xml</dc:format>
        <dc:type
           rdf:resource="http://purl.org/dc/dcmitype/StillImage" />
        <dc:title></dc:title>
      </cc:Work>
    </rdf:RDF>
  </metadata>
  <defs
     id="defs3011" />
  <sodipodi:namedview
     pagecolor="#ffffff"
     bordercolor="#666666"
     borderopacity="1"
     objecttolerance="10"
     gridtolerance="10"
     guidetolerance="10"
     inkscape:pageopacity="0"
     inkscape:pageshadow="2"
     inkscape:window-width="1366"
     inkscape:window-height="718"
     id="namedview3009"
     showgrid="false"
     inkscape:zoom="0.32593203"
     inkscape:cx="-151.73175"
     inkscape:cy="308.15137"
     inkscape:window-x="0"
     inkscape:window-y="25"
     inkscape:window-maximized="1"
     inkscape:current-layer="svg3007" />
  <g
     id="g852">
    <path
       style="fill:#3689e6;fill-opacity:1;stroke-width:11.10955143"
       inkscape:connector-curvature="0"
       d="M 432.91335,56.473967 C 535.10615,145.04856 538.74001,306.17367 441.03014,416.37276 343.32008,526.57184 181.27947,544.10061 79.086672,455.52602 -23.106166,366.95143 -26.740027,205.82631 70.96988,95.627227 168.67975,-14.571854 330.72028,-32.100623 432.91335,56.473967 Z"
       id="path911" />
    <path
       style="opacity:1;fill:#000000;fill-opacity:0.49019608;stroke-width:11.10955238"
       inkscape:connector-curvature="0"
       d="m 511.63499,224.90352 c -1.55139,61.31166 -25.1612,124.1546 -70.96631,175.81449 C 342.95881,510.9171 180.91852,528.44585 78.72572,439.87127 30.827117,398.35564 4.4968425,340.92283 0.19385326,280.22879 0.79910407,346.58547 27.117408,410.48219 79.078624,455.51904 181.27143,544.09362 343.31941,526.5562 441.02158,416.36578 490.72647,360.30764 514.02653,291.07481 511.63499,224.90352 Z"
       id="path913" />
    <g
       style="fill:#000000;fill-opacity:0.49019608"
       transform="translate(19.999996,20.000002)"
       id="g37">
      <path
         style="fill:#000000;fill-opacity:0.49019608;stroke-width:0.69342613"
         d="m 250.46086,367.88734 c -6.72362,-0.83218 -15.91494,-3.45454 -21.7031,-6.19207 -11.70714,-5.53694 -24.47329,-17.98816 -30.55519,-29.80149 -2.71513,-5.27387 -5.23941,-12.7854 -6.29576,-18.73455 -0.44005,-2.47817 -0.99828,-5.40064 -1.24056,-6.49439 -0.26114,-1.17886 -0.44051,-33.19018 -0.44051,-78.61394 0,-73.99458 -0.0298,-76.62532 -0.86981,-76.62532 -0.5056,0 -5.31084,4.49665 -11.47673,10.7397 -11.34417,11.48616 -12.50197,12.34352 -17.34317,12.84318 -8.53379,0.88077 -15.94508,-5.6347 -16.0352,-14.09704 -0.018,-1.6956 0.26053,-4.15005 0.6191,-5.45436 0.61548,-2.23891 2.09968,-3.81919 26.55462,-28.27355 l 25.90271,-25.90209 2.93222,-0.79239 c 3.24885,-0.877938 6.90418,-0.567708 10.38867,0.88169 2.78641,1.15903 6.21228,4.77841 7.31652,7.72988 0.92487,2.4719 0.94289,3.81904 0.94289,70.56316 0,59.59019 0.0867,68.04315 0.69811,68.04315 0.38399,0 2.67838,-1.30228 5.09865,-2.89396 5.63933,-3.70867 7.66461,-4.72326 13.43708,-6.73159 7.93884,-2.76205 11.51624,-3.39675 18.94669,-3.36146 17.36527,0.0824 31.67628,6.47269 45.53709,20.3335 11.18532,11.18534 17.27609,22.34741 19.929,36.52224 1.02111,5.45594 1.01716,15.5699 -0.008,21.34646 -0.99725,5.61753 -4.07958,14.76437 -6.473,19.20884 -6.01175,11.16336 -16.9589,22.15235 -28.06582,28.17315 -4.58532,2.48561 -12.14971,5.19852 -18.11308,6.49615 -4.16258,0.90579 -15.90729,1.55444 -19.68313,1.0871 z m 11.62016,-29.83498 c 8.91418,-1.88539 19.74701,-9.4188 25.22414,-17.54159 4.69815,-6.96741 6.79523,-12.75331 6.78357,-18.71562 -0.01,-4.98932 -1.05118,-8.96662 -3.79259,-14.48484 -4.80013,-9.66222 -10.13164,-14.99207 -19.67787,-19.67157 -6.11742,-2.99873 -9.03413,-3.8099 -13.65928,-3.79889 -8.07961,0.0193 -18.45139,4.91297 -25.47614,12.0204 -3.67746,3.72079 -7.97195,10.43383 -10.00671,15.64235 -1.26034,3.22618 -1.54937,4.70597 -1.73576,8.88716 -0.26632,5.97473 0.3606,8.61487 3.48571,14.67949 4.38322,8.50607 11.01511,14.97992 20.12906,19.64947 7.38971,3.78612 12.38329,4.67509 18.72587,3.33364 z"
         id="path33"
         inkscape:connector-curvature="0" />
      <path
         inkscape:connector-curvature="0"
         id="path35"
         d="m 250.11747,188.83303 a 14.952525,14.952525 0 0 0 0.35484,29.88369 c 0,0 20.75562,0.92957 42.07011,10.50703 21.31448,9.57746 41.37225,25.36756 44.71109,59.7904 3.46258,35.6986 -9.35993,61.77344 -30.13425,77.40504 -20.77432,15.63161 -50.31466,20.89392 -82.4676,10.03301 -30.8291,-10.41372 -41.24954,-32.25701 -45.73632,-54.01816 -4.48679,-21.76116 -1.14308,-41.13562 -1.14308,-41.13562 a 14.952525,14.952525 0 1 0 -29.43268,-5.2806 c 0,0 -4.50351,24.35962 1.28934,52.45526 5.79285,28.09563 23.77864,62.23227 65.45292,76.30937 40.35047,13.62994 80.83533,7.48636 110.01504,-14.46985 29.1797,-21.95622 46.23944,-59.65095 41.91977,-104.18592 -4.4434,-45.81074 -34.93248,-71.91732 -62.21874,-84.17814 -27.28626,-12.26083 -53.18524,-13.11144 -53.18524,-13.11144 a 14.952525,14.952525 0 0 0 -1.4952,-0.004 z"
         style="color:#000000;font-style:normal;font-variant:normal;font-weight:normal;font-stretch:normal;font-size:medium;line-height:normal;font-family:sans-serif;text-indent:0;text-align:start;text-decoration:none;text-decoration-line:none;text-decoration-style:solid;text-decoration-color:#000000;letter-spacing:normal;word-spacing:normal;text-transform:none;writing-mode:lr-tb;direction:ltr;baseline-shift:baseline;text-anchor:start;white-space:normal;clip-rule:nonzero;display:inline;overflow:visible;visibility:visible;opacity:1;isolation:auto;mix-blend-mode:normal;color-interpolation:sRGB;color-interpolation-filters:linearRGB;solid-color:#000000;solid-opacity:1;fill:#000000;fill-opacity:0.49019608;fill-rule:nonzero;stroke:none;stroke-width:29.90205956;stroke-linecap:round;stroke-linejoin:round;stroke-miterlimit:4;stroke-dasharray:none;stroke-dashoffset:0;stroke-opacity:1;color-rendering:auto;image-rendering:auto;shape-rendering:auto;text-rendering:auto;enable-background:accumulate" />
    </g>
    <g
       id="g31">
      <path
         inkscape:connector-curvature="0"
         id="path2984"
         d="m 250.46086,367.88734 c -6.72362,-0.83218 -15.91494,-3.45454 -21.7031,-6.19207 -11.70714,-5.53694 -24.47329,-17.98816 -30.55519,-29.80149 -2.71513,-5.27387 -5.23941,-12.7854 -6.29576,-18.73455 -0.44005,-2.47817 -0.99828,-5.40064 -1.24056,-6.49439 -0.26114,-1.17886 -0.44051,-33.19018 -0.44051,-78.61394 0,-73.99458 -0.0298,-76.62532 -0.86981,-76.62532 -0.5056,0 -5.31084,4.49665 -11.47673,10.7397 -11.34417,11.48616 -12.50197,12.34352 -17.34317,12.84318 -8.53379,0.88077 -15.94508,-5.6347 -16.0352,-14.09704 -0.018,-1.6956 0.26053,-4.15005 0.6191,-5.45436 0.61548,-2.23891 2.09968,-3.81919 26.55462,-28.27355 l 25.90271,-25.90209 2.93222,-0.79239 c 3.24885,-0.877938 6.90418,-0.567708 10.38867,0.88169 2.78641,1.15903 6.21228,4.77841 7.31652,7.72988 0.92487,2.4719 0.94289,3.81904 0.94289,70.56316 0,59.59019 0.0867,68.04315 0.69811,68.04315 0.38399,0 2.67838,-1.30228 5.09865,-2.89396 5.63933,-3.70867 7.66461,-4.72326 13.43708,-6.73159 7.93884,-2.76205 11.51624,-3.39675 18.94669,-3.36146 17.36527,0.0824 31.67628,6.47269 45.53709,20.3335 11.18532,11.18534 17.27609,22.34741 19.929,36.52224 1.02111,5.45594 1.01716,15.5699 -0.008,21.34646 -0.99725,5.61753 -4.07958,14.76437 -6.473,19.20884 -6.01175,11.16336 -16.9589,22.15235 -28.06582,28.17315 -4.58532,2.48561 -12.14971,5.19852 -18.11308,6.49615 -4.16258,0.90579 -15.90729,1.55444 -19.68313,1.0871 z m 11.62016,-29.83498 c 8.91418,-1.88539 19.74701,-9.4188 25.22414,-17.54159 4.69815,-6.96741 6.79523,-12.75331 6.78357,-18.71562 -0.01,-4.98932 -1.05118,-8.96662 -3.79259,-14.48484 -4.80013,-9.66222 -10.13164,-14.99207 -19.67787,-19.67157 -6.11742,-2.99873 -9.03413,-3.8099 -13.65928,-3.79889 -8.07961,0.0193 -18.45139,4.91297 -25.47614,12.0204 -3.67746,3.72079 -7.97195,10.43383 -10.00671,15.64235 -1.26034,3.22618 -1.54937,4.70597 -1.73576,8.88716 -0.26632,5.97473 0.3606,8.61487 3.48571,14.67949 4.38322,8.50607 11.01511,14.97992 20.12906,19.64947 7.38971,3.78612 12.38329,4.67509 18.72587,3.33364 z"
         style="fill:#ffffff;fill-opacity:1;stroke-width:0.69342613" />
      <path
         style="color:#000000;font-style:normal;font-variant:normal;font-weight:normal;font-stretch:normal;font-size:medium;line-height:normal;font-family:sans-serif;text-indent:0;text-align:start;text-decoration:none;text-decoration-line:none;text-decoration-style:solid;text-decoration-color:#000000;letter-spacing:normal;word-spacing:normal;text-transform:none;writing-mode:lr-tb;direction:ltr;baseline-shift:baseline;text-anchor:start;white-space:normal;clip-rule:nonzero;display:inline;overflow:visible;visibility:visible;opacity:1;isolation:auto;mix-blend-mode:normal;color-interpolation:sRGB;color-interpolation-filters:linearRGB;solid-color:#000000;solid-opacity:1;fill:#ffffff;fill-opacity:1;fill-rule:nonzero;stroke:none;stroke-width:29.90205956;stroke-linecap:round;stroke-linejoin:round;stroke-miterlimit:4;stroke-dasharray:none;stroke-dashoffset:0;stroke-opacity:1;color-rendering:auto;image-rendering:auto;shape-rendering:auto;text-rendering:auto;enable-background:accumulate"
         d="m 250.11747,188.83303 a 14.952525,14.952525 0 0 0 0.35484,29.88369 c 0,0 20.75562,0.92957 42.07011,10.50703 21.31448,9.57746 41.37225,25.36756 44.71109,59.7904 3.46258,35.6986 -9.35993,61.77344 -30.13425,77.40504 -20.77432,15.63161 -50.31466,20.89392 -82.4676,10.03301 -30.8291,-10.41372 -41.24954,-32.25701 -45.73632,-54.01816 -4.48679,-21.76116 -1.14308,-41.13562 -1.14308,-41.13562 a 14.952525,14.952525 0 1 0 -29.43268,-5.2806 c 0,0 -4.50351,24.35962 1.28934,52.45526 5.79285,28.09563 23.77864,62.23227 65.45292,76.30937 40.35047,13.62994 80.83533,7.48636 110.01504,-14.46985 29.1797,-21.95622 46.23944,-59.65095 41.91977,-104.18592 -4.4434,-45.81074 -34.93248,-71.91732 -62.21874,-84.17814 -27.28626,-12.26083 -53.18524,-13.11144 -53.18524,-13.11144 a 14.952525,14.952525 0 0 0 -1.4952,-0.004 z"
         id="path3753"
         inkscape:connector-curvature="0" />
    </g>
  </g>
</svg>
