<?xml version="1.0" encoding="UTF-8" standalone="no"?>
<!-- Created with Inkscape (http://www.inkscape.org/) -->

<svg
   xmlns:dc="http://purl.org/dc/elements/1.1/"
   xmlns:cc="http://creativecommons.org/ns#"
   xmlns:rdf="http://www.w3.org/1999/02/22-rdf-syntax-ns#"
   xmlns:svg="http://www.w3.org/2000/svg"
   xmlns="http://www.w3.org/2000/svg"
   xmlns:sodipodi="http://sodipodi.sourceforge.net/DTD/sodipodi-0.dtd"
   xmlns:inkscape="http://www.inkscape.org/namespaces/inkscape"
   id="svg3007"
   version="1.1"
   inkscape:version="0.92.3 (2405546, 2018-03-11)"
   width="512"
   height="512"
   sodipodi:docname="MeMaker.svg">
  <metadata
     id="metadata3013">
    <rdf:RDF>
      <cc:Work
         rdf:about="">
        <dc:format>image/svg+xml</dc:format>
        <dc:type
           rdf:resource="http://purl.org/dc/dcmitype/StillImage" />
        <dc:title></dc:title>
      </cc:Work>
    </rdf:RDF>
  </metadata>
  <defs
     id="defs3011" />
  <sodipodi:namedview
     pagecolor="#ffffff"
     bordercolor="#666666"
     borderopacity="1"
     objecttolerance="10"
     gridtolerance="10"
     guidetolerance="10"
     inkscape:pageopacity="0"
     inkscape:pageshadow="2"
     inkscape:window-width="1366"
     inkscape:window-height="718"
     id="namedview3009"
     showgrid="false"
     inkscape:zoom="0.16296602"
     inkscape:cx="-1482.3014"
     inkscape:cy="296.40561"
     inkscape:window-x="0"
     inkscape:window-y="25"
     inkscape:window-maximized="1"
     inkscape:current-layer="svg3007" />
  <g
     id="g960">
    <path
       id="path848"
       d="m 432.91325,56.47397 c 102.19291,88.57459 105.82677,249.69971 8.1168,359.89879 C 343.32009,526.57182 181.27965,544.10062 79.08674,455.52602 -23.106205,366.95143 -26.740032,205.82631 70.96994,95.62723 168.67991,-14.57185 330.72036,-32.10062 432.91325,56.47397 Z"
       inkscape:connector-curvature="0"
       style="fill:#f9c440;fill-opacity:1;stroke-width:11.10955811" />
    <path
       id="path850"
       d="M 511.63548,224.90352 C 510.0841,286.21516 486.47426,349.05813 440.66911,400.71799 342.95915,510.91712 180.9187,528.44582 78.725757,439.87129 30.827125,398.35564 4.4968195,340.92284 0.19382722,280.22881 0.79908077,346.58548 27.117405,410.48218 79.07869,455.51907 181.2716,544.09362 343.31975,526.55622 441.022,416.36577 490.72695,360.30766 514.02702,291.07481 511.63548,224.90352 Z"
       inkscape:connector-curvature="0"
       style="opacity:1;fill:#000000;fill-opacity:0.49019608;stroke-width:11.10955811" />
    <g
       id="g137"
       transform="matrix(0.68052718,0,0,0.68052718,-306.20571,94.283997)"
       style="fill:#000000;fill-opacity:0.49019608">
      <path
         inkscape:connector-curvature="0"
         id="path125"
         d="m 1025.1585,305.21491 a 36.694511,41.028378 0 0 0 -2.0996,0.10938 c -0.8625,5.86361 -1.8741,11.53484 -3.0722,16.5332 -0.4396,1.78603 -0.8977,3.57118 -1.3594,5.35547 a 20.858812,23.32238 0 0 1 7.2344,-1.43359 20.858812,23.32238 0 0 1 20.7851,23.37695 20.858812,23.32238 0 0 1 -20.8828,23.26758 20.858812,23.32238 0 0 1 -17.6113,-10.88086 c -1.9775,5.53799 -4.1027,11.01314 -6.3633,16.41797 a 36.694511,41.028378 0 0 0 23.1953,9.31054 36.694511,41.028378 0 0 0 36.7383,-40.93164 36.694511,41.028378 0 0 0 -36.5645,-41.125 z"
         style="opacity:1;fill:#000000;fill-opacity:0.49019608;stroke:none;stroke-width:7.82009745;stroke-linecap:round;stroke-miterlimit:4;stroke-dasharray:none;stroke-opacity:1" />
      <path
         inkscape:connector-curvature="0"
         id="path127"
         d="m 686.66635,305.57624 a 36.694511,41.028378 0 0 0 -36.13281,41.09766 36.694511,41.028378 0 0 0 36.73828,40.93359 36.694511,41.028378 0 0 0 21.14063,-7.55859 c -2.20994,-5.0536 -4.27186,-10.16883 -6.21094,-15.32032 a 20.858812,23.32238 0 0 1 -15.70898,8.03125 20.858812,23.32238 0 0 1 -20.88477,-23.26757 20.858812,23.32238 0 0 1 20.78516,-23.37696 20.858812,23.32238 0 0 1 3.90234,0.40821 c -0.56042,-2.23954 -1.09736,-4.47724 -1.61133,-6.70899 -0.79488,-4.06469 -1.45793,-8.91558 -2.01758,-14.23828 z"
         style="opacity:1;fill:#000000;fill-opacity:0.49019608;stroke:none;stroke-width:7.82009745;stroke-linecap:round;stroke-miterlimit:4;stroke-dasharray:none;stroke-opacity:1" />
      <path
         inkscape:connector-curvature="0"
         id="path129"
         d="m 893.75815,186.31257 -39.7168,59.22461 -45.29101,-52.25781 -41.10938,50.86523 -39.71484,-48.07813 -36.0957,32.97657 c -0.0364,22.29692 0.45698,68.28936 4.85351,90.77148 16.71572,72.5828 57.86305,150.21672 132.11328,172.29297 20.29451,5.6909 33.27901,5.37068 53.11719,0 76.44169,-26.1845 112.23461,-97.77468 130.0723,-170.25 5.9999,-25.02991 7.4902,-66.73828 7.4902,-66.73828 l -1.5215,-25.6543 -40.58397,-43.15234 -34.83984,59.22461 z m -82.54687,99.34765 c 22.57329,-0.19138 34.52539,18.41602 34.52539,18.41602 a 3.7671573,3.7671573 0 1 1 -6.33789,4.07031 c 0,0 -9.70458,-15.1093 -28.125,-14.95312 -18.81983,0.15946 -29.14649,12.60742 -29.14649,12.60742 a 3.7671573,3.7671573 0 1 1 -5.7832,-4.82813 c 0,0 12.69339,-15.12462 34.86719,-15.3125 z m 81.10351,0.7461 c 22.57329,-0.19138 34.52735,18.41601 34.52735,18.41601 a 3.7671573,3.7671573 0 1 1 -6.3379,4.07227 c 0,0 -9.70456,-15.11125 -28.125,-14.95508 -18.81981,0.15947 -29.14843,12.60938 -29.14843,12.60938 a 3.7671573,3.7671573 0 1 1 -5.78321,-4.82813 c 0,0 12.69339,-15.12656 34.86719,-15.31445 z m -6.3125,16.25195 a 27.44776,27.44776 0 0 1 27.34961,27.51172 27.44776,27.44776 0 0 1 -27.47851,27.38477 27.44776,27.44776 0 0 1 -27.41602,-27.44922 v -0.12891 a 27.44776,27.44776 0 0 1 27.54492,-27.31836 z m -70.72656,0.3418 a 27.44776,27.44776 0 0 1 27.54297,27.31836 l 0.002,0.1289 a 27.44776,27.44776 0 0 1 -27.41601,27.44727 27.44776,27.44776 0 0 1 -27.48047,-27.38281 27.44776,27.44776 0 0 1 27.35156,-27.51172 z m 12.31445,61.40234 3.47656,6.6836 c 10e-6,0 -4.57406,2.40493 -8.74414,6.24218 -4.17007,3.83726 -7.29899,8.51655 -6.29882,13.19336 1.00639,4.70598 6.14663,8.90465 13.375,11.9043 7.22836,2.99965 16.04744,4.66129 22.36523,5.14258 11.62557,0.88563 24.76724,-7.13764 28.31055,-14.90235 1.40048,-3.06899 0.4261,-9.22894 -1.55664,-14.49804 -1.98274,-5.26911 -4.49805,-9.4336 -4.49805,-9.4336 l 6.44141,-3.90625 c 0,0 2.84527,4.67393 5.10742,10.68555 2.26214,6.01162 4.41846,13.5757 1.35937,20.2793 -5.37583,11.78046 -20.60439,20.43985 -35.73633,19.28711 -7.06094,-0.53791 -16.3921,-2.25611 -24.67968,-5.69532 -8.28759,-3.43921 -16.02708,-8.73737 -17.85547,-17.28711 -1.83466,-8.57893 3.5319,-15.68355 8.56445,-20.31445 5.03255,-4.63089 10.36914,-7.38086 10.36914,-7.38086 z m 84.16992,51.18946 a 3.7671573,3.7671573 0 0 1 2.24024,6.90624 c 0,10e-6 -25.2397,17.34646 -47.61133,25.00977 -22.37956,7.66603 -50.22656,8.38867 -50.22656,8.38867 a 3.7672704,3.7672704 0 1 1 -0.22266,-7.53125 c 0,0 27.33477,-0.9029 48.00781,-7.98437 20.68098,-7.08419 45.80664,-24.10547 45.80664,-24.10547 a 3.7671573,3.7671573 0 0 1 2.00586,-0.68359 z m -19.06054,33.20703 a 1.4124156,1.4124156 0 0 1 0.83984,2.58984 c 0,0 -9.46376,6.50383 -17.85156,9.37695 -8.39067,2.87393 -18.83008,3.14453 -18.83008,3.14453 a 1.4127295,1.4127295 0 0 1 -0.084,-2.82421 c 0,0 10.24905,-0.33738 18,-2.99219 7.75389,-2.65599 17.17382,-9.03906 17.17382,-9.03906 a 1.4124156,1.4124156 0 0 1 0.75196,-0.25586 z"
         style="fill:#000000;fill-opacity:0.49019608;fill-rule:evenodd;stroke:none;stroke-width:1px;stroke-linecap:butt;stroke-linejoin:miter;stroke-opacity:1" />
      <path
         sodipodi:nodetypes="ccccccccccccc"
         inkscape:connector-curvature="0"
         id="path131"
         d="m 671.48629,231.62807 56.43888,-51.56141 39.71623,48.07754 41.10974,-50.8647 45.29042,52.25825 39.71623,-59.22594 48.77434,59.22594 34.83875,-59.22594 55.04542,58.52919 c 0,0 -2.3996,-88.95664 -22.9937,-121.23901 C 970.8644,54.761997 906.71396,35.975806 851.25449,37.924336 792.24541,40.005005 730.96421,61.208264 702.14447,103.42127 c -20.08593,30.37697 -30.65818,128.2068 -30.65818,128.2068 z"
         style="fill:#000000;fill-opacity:0.49019608;fill-rule:evenodd;stroke:none;stroke-width:1px;stroke-linecap:butt;stroke-linejoin:miter;stroke-opacity:1" />
      <path
         transform="scale(-1,1)"
         d="m -868.50516,330.82758 a 17.900721,17.900721 0 0 1 -17.87971,17.9007 17.900721,17.900721 0 0 1 -17.92169,-17.85868 17.900721,17.900721 0 0 1 17.83764,-17.94263 17.900721,17.900721 0 0 1 17.96356,17.81656"
         sodipodi:open="true"
         sodipodi:end="6.2784904"
         sodipodi:start="0"
         sodipodi:ry="17.900721"
         sodipodi:rx="17.900721"
         sodipodi:cy="330.82758"
         sodipodi:cx="-886.40588"
         sodipodi:type="arc"
         id="path133"
         style="opacity:1;fill:#000000;fill-opacity:0.49019608;stroke:none;stroke-width:1.00447488;stroke-miterlimit:4;stroke-dasharray:none;stroke-opacity:1" />
      <path
         d="m 832.772,331.16806 a 17.900721,17.900721 0 0 1 -17.87971,17.90071 17.900721,17.900721 0 0 1 -17.92168,-17.85869 17.900721,17.900721 0 0 1 17.83764,-17.94263 17.900721,17.900721 0 0 1 17.96355,17.81657"
         sodipodi:open="true"
         sodipodi:end="6.2784904"
         sodipodi:start="0"
         sodipodi:ry="17.900721"
         sodipodi:rx="17.900721"
         sodipodi:cy="331.16806"
         sodipodi:cx="814.87128"
         sodipodi:type="arc"
         id="path135"
         style="opacity:1;fill:#000000;fill-opacity:0.49019608;stroke:none;stroke-width:1.00447488;stroke-miterlimit:4;stroke-dasharray:none;stroke-opacity:1" />
    </g>
    <g
       style="fill:#ffffff"
       transform="matrix(0.68052718,0,0,0.68052718,-326.20571,74.283997)"
       id="g99">
      <path
         style="opacity:1;fill:#ffffff;fill-opacity:1;stroke:none;stroke-width:7.82009745;stroke-linecap:round;stroke-miterlimit:4;stroke-dasharray:none;stroke-opacity:1"
         d="m 1025.1585,305.21491 a 36.694511,41.028378 0 0 0 -2.0996,0.10938 c -0.8625,5.86361 -1.8741,11.53484 -3.0722,16.5332 -0.4396,1.78603 -0.8977,3.57118 -1.3594,5.35547 a 20.858812,23.32238 0 0 1 7.2344,-1.43359 20.858812,23.32238 0 0 1 20.7851,23.37695 20.858812,23.32238 0 0 1 -20.8828,23.26758 20.858812,23.32238 0 0 1 -17.6113,-10.88086 c -1.9775,5.53799 -4.1027,11.01314 -6.3633,16.41797 a 36.694511,41.028378 0 0 0 23.1953,9.31054 36.694511,41.028378 0 0 0 36.7383,-40.93164 36.694511,41.028378 0 0 0 -36.5645,-41.125 z"
         id="path4283-6"
         inkscape:connector-curvature="0" />
      <path
         style="opacity:1;fill:#ffffff;fill-opacity:1;stroke:none;stroke-width:7.82009745;stroke-linecap:round;stroke-miterlimit:4;stroke-dasharray:none;stroke-opacity:1"
         d="m 686.66635,305.57624 a 36.694511,41.028378 0 0 0 -36.13281,41.09766 36.694511,41.028378 0 0 0 36.73828,40.93359 36.694511,41.028378 0 0 0 21.14063,-7.55859 c -2.20994,-5.0536 -4.27186,-10.16883 -6.21094,-15.32032 a 20.858812,23.32238 0 0 1 -15.70898,8.03125 20.858812,23.32238 0 0 1 -20.88477,-23.26757 20.858812,23.32238 0 0 1 20.78516,-23.37696 20.858812,23.32238 0 0 1 3.90234,0.40821 c -0.56042,-2.23954 -1.09736,-4.47724 -1.61133,-6.70899 -0.79488,-4.06469 -1.45793,-8.91558 -2.01758,-14.23828 z"
         id="path4283"
         inkscape:connector-curvature="0" />
      <path
         style="fill:#ffffff;fill-opacity:1;fill-rule:evenodd;stroke:none;stroke-width:1px;stroke-linecap:butt;stroke-linejoin:miter;stroke-opacity:1"
         d="m 893.75815,186.31257 -39.7168,59.22461 -45.29101,-52.25781 -41.10938,50.86523 -39.71484,-48.07813 -36.0957,32.97657 c -0.0364,22.29692 0.45698,68.28936 4.85351,90.77148 16.71572,72.5828 57.86305,150.21672 132.11328,172.29297 20.29451,5.6909 33.27901,5.37068 53.11719,0 76.44169,-26.1845 112.23461,-97.77468 130.0723,-170.25 5.9999,-25.02991 7.4902,-66.73828 7.4902,-66.73828 l -1.5215,-25.6543 -40.58397,-43.15234 -34.83984,59.22461 z m -82.54687,99.34765 c 22.57329,-0.19138 34.52539,18.41602 34.52539,18.41602 a 3.7671573,3.7671573 0 1 1 -6.33789,4.07031 c 0,0 -9.70458,-15.1093 -28.125,-14.95312 -18.81983,0.15946 -29.14649,12.60742 -29.14649,12.60742 a 3.7671573,3.7671573 0 1 1 -5.7832,-4.82813 c 0,0 12.69339,-15.12462 34.86719,-15.3125 z m 81.10351,0.7461 c 22.57329,-0.19138 34.52735,18.41601 34.52735,18.41601 a 3.7671573,3.7671573 0 1 1 -6.3379,4.07227 c 0,0 -9.70456,-15.11125 -28.125,-14.95508 -18.81981,0.15947 -29.14843,12.60938 -29.14843,12.60938 a 3.7671573,3.7671573 0 1 1 -5.78321,-4.82813 c 0,0 12.69339,-15.12656 34.86719,-15.31445 z m -6.3125,16.25195 a 27.44776,27.44776 0 0 1 27.34961,27.51172 27.44776,27.44776 0 0 1 -27.47851,27.38477 27.44776,27.44776 0 0 1 -27.41602,-27.44922 v -0.12891 a 27.44776,27.44776 0 0 1 27.54492,-27.31836 z m -70.72656,0.3418 a 27.44776,27.44776 0 0 1 27.54297,27.31836 l 0.002,0.1289 a 27.44776,27.44776 0 0 1 -27.41601,27.44727 27.44776,27.44776 0 0 1 -27.48047,-27.38281 27.44776,27.44776 0 0 1 27.35156,-27.51172 z m 12.31445,61.40234 3.47656,6.6836 c 10e-6,0 -4.57406,2.40493 -8.74414,6.24218 -4.17007,3.83726 -7.29899,8.51655 -6.29882,13.19336 1.00639,4.70598 6.14663,8.90465 13.375,11.9043 7.22836,2.99965 16.04744,4.66129 22.36523,5.14258 11.62557,0.88563 24.76724,-7.13764 28.31055,-14.90235 1.40048,-3.06899 0.4261,-9.22894 -1.55664,-14.49804 -1.98274,-5.26911 -4.49805,-9.4336 -4.49805,-9.4336 l 6.44141,-3.90625 c 0,0 2.84527,4.67393 5.10742,10.68555 2.26214,6.01162 4.41846,13.5757 1.35937,20.2793 -5.37583,11.78046 -20.60439,20.43985 -35.73633,19.28711 -7.06094,-0.53791 -16.3921,-2.25611 -24.67968,-5.69532 -8.28759,-3.43921 -16.02708,-8.73737 -17.85547,-17.28711 -1.83466,-8.57893 3.5319,-15.68355 8.56445,-20.31445 5.03255,-4.63089 10.36914,-7.38086 10.36914,-7.38086 z m 84.16992,51.18946 a 3.7671573,3.7671573 0 0 1 2.24024,6.90624 c 0,10e-6 -25.2397,17.34646 -47.61133,25.00977 -22.37956,7.66603 -50.22656,8.38867 -50.22656,8.38867 a 3.7672704,3.7672704 0 1 1 -0.22266,-7.53125 c 0,0 27.33477,-0.9029 48.00781,-7.98437 20.68098,-7.08419 45.80664,-24.10547 45.80664,-24.10547 a 3.7671573,3.7671573 0 0 1 2.00586,-0.68359 z m -19.06054,33.20703 a 1.4124156,1.4124156 0 0 1 0.83984,2.58984 c 0,0 -9.46376,6.50383 -17.85156,9.37695 -8.39067,2.87393 -18.83008,3.14453 -18.83008,3.14453 a 1.4127295,1.4127295 0 0 1 -0.084,-2.82421 c 0,0 10.24905,-0.33738 18,-2.99219 7.75389,-2.65599 17.17382,-9.03906 17.17382,-9.03906 a 1.4124156,1.4124156 0 0 1 0.75196,-0.25586 z"
         id="path4160"
         inkscape:connector-curvature="0" />
      <path
         style="fill:#ffffff;fill-opacity:1;fill-rule:evenodd;stroke:none;stroke-width:1px;stroke-linecap:butt;stroke-linejoin:miter;stroke-opacity:1"
         d="m 671.48629,231.62807 56.43888,-51.56141 39.71623,48.07754 41.10974,-50.8647 45.29042,52.25825 39.71623,-59.22594 48.77434,59.22594 34.83875,-59.22594 55.04542,58.52919 c 0,0 -2.3996,-88.95664 -22.9937,-121.23901 C 970.8644,54.761997 906.71396,35.975806 851.25449,37.924336 792.24541,40.005005 730.96421,61.208264 702.14447,103.42127 c -20.08593,30.37697 -30.65818,128.2068 -30.65818,128.2068 z"
         id="path4158"
         inkscape:connector-curvature="0"
         sodipodi:nodetypes="ccccccccccccc" />
      <path
         style="opacity:1;fill:#ffffff;fill-opacity:1;stroke:none;stroke-width:1.00447488;stroke-miterlimit:4;stroke-dasharray:none;stroke-opacity:1"
         id="path4162-6-9"
         sodipodi:type="arc"
         sodipodi:cx="-886.40588"
         sodipodi:cy="330.82758"
         sodipodi:rx="17.900721"
         sodipodi:ry="17.900721"
         sodipodi:start="0"
         sodipodi:end="6.2784904"
         sodipodi:open="true"
         d="m -868.50516,330.82758 a 17.900721,17.900721 0 0 1 -17.87971,17.9007 17.900721,17.900721 0 0 1 -17.92169,-17.85868 17.900721,17.900721 0 0 1 17.83764,-17.94263 17.900721,17.900721 0 0 1 17.96356,17.81656"
         transform="scale(-1,1)" />
      <path
         style="opacity:1;fill:#ffffff;fill-opacity:1;stroke:none;stroke-width:1.00447488;stroke-miterlimit:4;stroke-dasharray:none;stroke-opacity:1"
         id="path4162-6"
         sodipodi:type="arc"
         sodipodi:cx="814.87128"
         sodipodi:cy="331.16806"
         sodipodi:rx="17.900721"
         sodipodi:ry="17.900721"
         sodipodi:start="0"
         sodipodi:end="6.2784904"
         sodipodi:open="true"
         d="m 832.772,331.16806 a 17.900721,17.900721 0 0 1 -17.87971,17.90071 17.900721,17.900721 0 0 1 -17.92168,-17.85869 17.900721,17.900721 0 0 1 17.83764,-17.94263 17.900721,17.900721 0 0 1 17.96355,17.81657" />
    </g>
  </g>
</svg>
