<?xml version="1.0" encoding="UTF-8" standalone="no"?>
<!-- Created with Inkscape (http://www.inkscape.org/) -->

<svg
   xmlns:dc="http://purl.org/dc/elements/1.1/"
   xmlns:cc="http://creativecommons.org/ns#"
   xmlns:rdf="http://www.w3.org/1999/02/22-rdf-syntax-ns#"
   xmlns:svg="http://www.w3.org/2000/svg"
   xmlns="http://www.w3.org/2000/svg"
   xmlns:sodipodi="http://sodipodi.sourceforge.net/DTD/sodipodi-0.dtd"
   xmlns:inkscape="http://www.inkscape.org/namespaces/inkscape"
   id="svg2"
   version="1.1"
   inkscape:version="0.92.3 (2405546, 2018-03-11)"
   width="512"
   height="512"
   sodipodi:docname="mgba.svg">
  <metadata
     id="metadata8">
    <rdf:RDF>
      <cc:Work
         rdf:about="">
        <dc:format>image/svg+xml</dc:format>
        <dc:type
           rdf:resource="http://purl.org/dc/dcmitype/StillImage" />
        <dc:title></dc:title>
      </cc:Work>
    </rdf:RDF>
  </metadata>
  <defs
     id="defs6" />
  <sodipodi:namedview
     pagecolor="#ffffff"
     bordercolor="#666666"
     borderopacity="1"
     objecttolerance="10"
     gridtolerance="10"
     guidetolerance="10"
     inkscape:pageopacity="0"
     inkscape:pageshadow="2"
     inkscape:window-width="1173"
     inkscape:window-height="627"
     id="namedview4"
     showgrid="false"
     inkscape:zoom="0.20344827"
     inkscape:cx="-210.80302"
     inkscape:cy="421.8659"
     inkscape:window-x="15"
     inkscape:window-y="39"
     inkscape:window-maximized="0"
     inkscape:current-layer="svg2" />
  <g
     transform="translate(1.0738047e-7,2e-6)"
     id="g844">
    <path
       id="path881"
       d="m 432.91329,56.47397 c 102.19291,88.57459 105.82677,249.69971 8.1168,359.89879 C 343.32012,526.57182 181.27964,544.10062 79.086727,455.52602 -23.106181,366.95143 -26.740046,205.82631 70.969927,95.62723 168.6799,-14.57185 330.72038,-32.10062 432.91329,56.47397 Z"
       inkscape:connector-curvature="0"
       style="fill:#68b723;fill-opacity:1;stroke-width:11.10955811" />
    <path
       id="path883"
       d="m 511.63551,224.90352 c -1.5514,61.31166 -25.16123,124.1546 -70.96638,175.81449 C 342.95916,510.91712 180.91869,528.44582 78.72578,439.87127 30.827126,398.35564 4.4968241,340.92283 0.19383022,280.22879 0.79908178,346.58547 27.117413,410.48219 79.078684,455.51904 181.2716,544.09362 343.31975,526.55622 441.02203,416.36578 490.72697,360.30764 514.02705,291.07481 511.63551,224.90352 Z"
       inkscape:connector-curvature="0"
       style="opacity:1;fill:#000000;fill-opacity:0.49019608;stroke-width:11.10955811" />
    <path
       style="fill:#000000;fill-opacity:0.49019608;fill-rule:evenodd;stroke:none;stroke-width:1.00764036"
       d="m 176.59864,163.16249 v 14.5034 14.5034 l 13.79592,0.35374 13.79592,0.35374 v 13.08844 13.08844 l -13.79592,0.35374 -13.79592,0.35374 -0.35374,13.79592 -0.35374,13.79591 -13.79592,0.35375 -13.79592,0.35374 -0.35374,13.79592 -0.35374,13.79591 -13.79592,0.35375 L 120,276.35977 v 42.80272 42.80272 h 14.5034 14.5034 l 0.35374,-27.94558 0.35375,-27.94558 h 13.08843 13.08844 l 0.35374,27.94558 0.35374,27.94558 13.79592,0.35374 13.79592,0.35374 0.1824,13.08844 c 0.10011,7.19864 0.33015,13.49026 0.51126,13.98108 0.25922,0.70221 6.40194,0.85298 28.82441,0.70748 l 28.49553,-0.18516 v -14.5034 -14.5034 l -27.94558,-0.35374 -27.94557,-0.35375 V 347.46181 334.37337 H 276 345.68707 l 0.19208,13.25702 0.19345,13.2584 -28.13903,0.18377 -28.13765,0.18517 v 14.5034 14.5034 h 28.65306 28.65306 l 0.19208,-13.95759 0.19206,-13.95759 13.9576,-0.19207 13.95758,-0.19207 0.35374,-27.94558 0.35374,-27.94558 h 13.08844 13.08843 l 0.35375,27.94558 0.35374,27.94558 H 417.4966 432 v -42.80272 -42.80272 l -13.79592,-0.35374 -13.79592,-0.35375 -0.35374,-13.79591 -0.35374,-13.79592 -13.79592,-0.35374 -13.79592,-0.35375 -0.35374,-13.79591 -0.35374,-13.79592 -13.79592,-0.35374 -13.79592,-0.35374 -0.19206,-13.25011 -0.19207,-13.25011 13.98798,-0.19206 13.98799,-0.19208 v -14.5034 -14.5034 h -14.5034 -14.5034 l -0.19207,13.95897 -0.19069,13.95759 -13.95897,0.19207 -13.95759,0.19069 -0.19207,13.97832 -0.19207,13.97969 -41.54943,-0.18377 -41.54943,-0.1824 -0.35374,-13.79592 -0.35374,-13.79592 -13.79592,-0.35374 -13.79591,-0.35374 -0.35375,-13.79592 -0.35374,-13.79592 h -14.5034 z m 29.71429,86.31292 h 13.08843 13.08844 v 13.08844 13.08843 l -12.92815,0.19346 c -10.13306,0.15119 -13.00356,-0.007 -13.28188,-0.73236 -0.19527,-0.50886 -0.26712,-6.48603 -0.16029,-13.28188 z m 113.19727,0 h 13.08844 13.08843 l 0.19208,13.26531 0.19345,13.26531 h -13.12712 c -10.03975,0 -13.20849,-0.21381 -13.47535,-0.90923 -0.19187,-0.50007 -0.2602,-6.46945 -0.15337,-13.2653 z"
       id="path838"
       inkscape:connector-curvature="0" />
    <path
       inkscape:connector-curvature="0"
       id="rect3005"
       d="m 156.59864,143.16249 v 14.5034 14.5034 l 13.79592,0.35374 13.79592,0.35374 v 13.08844 13.08844 l -13.79592,0.35374 -13.79592,0.35374 -0.35374,13.79592 -0.35374,13.79591 -13.79592,0.35375 -13.79592,0.35374 -0.35374,13.79592 -0.35374,13.79591 -13.79592,0.35375 L 100,256.35977 v 42.80272 42.80272 h 14.5034 14.5034 l 0.35374,-27.94558 0.35375,-27.94558 h 13.08843 13.08844 l 0.35374,27.94558 0.35374,27.94558 13.79592,0.35374 13.79592,0.35374 0.1824,13.08844 c 0.10011,7.19864 0.33015,13.49026 0.51126,13.98108 0.25922,0.70221 6.40194,0.85298 28.82441,0.70748 l 28.49553,-0.18516 v -14.5034 -14.5034 l -27.94558,-0.35374 -27.94557,-0.35375 V 327.46181 314.37337 H 256 325.68707 l 0.19208,13.25702 0.19345,13.2584 -28.13903,0.18377 -28.13765,0.18517 v 14.5034 14.5034 h 28.65306 28.65306 l 0.19208,-13.95759 0.19206,-13.95759 13.9576,-0.19207 13.95758,-0.19207 0.35374,-27.94558 0.35374,-27.94558 h 13.08844 13.08843 l 0.35375,27.94558 0.35374,27.94558 H 397.4966 412 v -42.80272 -42.80272 l -13.79592,-0.35374 -13.79592,-0.35375 -0.35374,-13.79591 -0.35374,-13.79592 -13.79592,-0.35374 -13.79592,-0.35375 -0.35374,-13.79591 -0.35374,-13.79592 -13.79592,-0.35374 -13.79592,-0.35374 -0.19206,-13.25011 -0.19207,-13.25011 13.98798,-0.19206 13.98799,-0.19208 v -14.5034 -14.5034 h -14.5034 -14.5034 l -0.19207,13.95897 -0.19069,13.95759 -13.95897,0.19207 -13.95759,0.19069 -0.19207,13.97832 -0.19207,13.97969 -41.54943,-0.18377 -41.54943,-0.1824 -0.35374,-13.79592 -0.35374,-13.79592 -13.79592,-0.35374 -13.79591,-0.35374 -0.35375,-13.79592 -0.35374,-13.79592 h -14.5034 z m 29.71429,86.31292 h 13.08843 13.08844 v 13.08844 13.08843 l -12.92815,0.19346 c -10.13306,0.15119 -13.00356,-0.007 -13.28188,-0.73236 -0.19527,-0.50886 -0.26712,-6.48603 -0.16029,-13.28188 z m 113.19727,0 h 13.08844 13.08843 l 0.19208,13.26531 0.19345,13.26531 h -13.12712 c -10.03975,0 -13.20849,-0.21381 -13.47535,-0.90923 -0.19187,-0.50007 -0.2602,-6.46945 -0.15337,-13.2653 z"
       style="fill:#ffffff;fill-opacity:1;fill-rule:evenodd;stroke:none;stroke-width:1.00764036" />
  </g>
</svg>
