<?xml version="1.0" encoding="UTF-8" standalone="no"?>
<!-- Generator: Adobe Illustrator 19.0.0, SVG Export Plug-In . SVG Version: 6.00 Build 0)  -->

<svg
   xmlns:dc="http://purl.org/dc/elements/1.1/"
   xmlns:cc="http://creativecommons.org/ns#"
   xmlns:rdf="http://www.w3.org/1999/02/22-rdf-syntax-ns#"
   xmlns:svg="http://www.w3.org/2000/svg"
   xmlns="http://www.w3.org/2000/svg"
   xmlns:sodipodi="http://sodipodi.sourceforge.net/DTD/sodipodi-0.dtd"
   xmlns:inkscape="http://www.inkscape.org/namespaces/inkscape"
   version="1.1"
   id="Layer_1"
   x="0px"
   y="0px"
   viewBox="0 0 512 512"
   xml:space="preserve"
   inkscape:version="0.92.3 (2405546, 2018-03-11)"
   width="512"
   height="512"
   sodipodi:docname="minbar.svg"><metadata
     id="metadata57"><rdf:RDF><cc:Work
         rdf:about=""><dc:format>image/svg+xml</dc:format><dc:type
           rdf:resource="http://purl.org/dc/dcmitype/StillImage" /><dc:title></dc:title></cc:Work></rdf:RDF></metadata><defs
     id="defs55" /><sodipodi:namedview
     pagecolor="#ffffff"
     bordercolor="#666666"
     borderopacity="1"
     objecttolerance="10"
     gridtolerance="10"
     guidetolerance="10"
     inkscape:pageopacity="0"
     inkscape:pageshadow="2"
     inkscape:window-width="1366"
     inkscape:window-height="718"
     id="namedview53"
     showgrid="false"
     inkscape:zoom="0.5255951"
     inkscape:cx="318.98711"
     inkscape:cy="194.29193"
     inkscape:window-x="0"
     inkscape:window-y="25"
     inkscape:window-maximized="1"
     inkscape:current-layer="Layer_1"
     units="px" /><g
     id="g23"
     transform="translate(0,550.767)" /><g
     id="g25"
     transform="translate(0,550.767)" /><g
     id="g27"
     transform="translate(0,550.767)" /><g
     id="g29"
     transform="translate(0,550.767)" /><g
     id="g31"
     transform="translate(0,550.767)" /><g
     id="g33"
     transform="translate(0,550.767)" /><g
     id="g35"
     transform="translate(0,550.767)" /><g
     id="g37"
     transform="translate(0,550.767)" /><g
     id="g39"
     transform="translate(0,550.767)" /><g
     id="g41"
     transform="translate(0,550.767)" /><g
     id="g43"
     transform="translate(0,550.767)" /><g
     id="g45"
     transform="translate(0,550.767)" /><g
     id="g47"
     transform="translate(0,550.767)" /><g
     id="g49"
     transform="translate(0,550.767)" /><g
     id="g51"
     transform="translate(0,550.767)" /><g
     id="g955"><path
       style="fill:#8a715e;fill-opacity:1;stroke-width:11.10955906"
       inkscape:connector-curvature="0"
       d="m 432.91328,56.47392 c 102.19291,88.57459 105.82677,249.69975 8.1168,359.89884 C 343.32006,526.57182 181.27962,544.10062 79.086743,455.52602 -23.106206,366.95143 -26.740032,205.82627 70.969943,95.62718 168.67988,-14.5719 330.72033,-32.10067 432.91328,56.47392 Z"
       id="path870" /><path
       style="opacity:1;fill:#000000;fill-opacity:0.49019608;stroke-width:11.10955906"
       inkscape:connector-curvature="0"
       d="M 511.63551,224.90351 C 510.08413,286.21512 486.47429,349.05808 440.66913,400.71795 342.95912,510.91712 180.91867,528.44582 78.72576,439.87125 30.827126,398.35564 4.4968185,340.9228 0.1938262,280.2288 0.79907976,346.58544 27.117406,410.48217 79.078693,455.51903 181.27157,544.09362 343.31972,526.55612 441.02203,416.36577 490.72697,360.30762 514.02704,291.07476 511.63551,224.90351 Z"
       id="path872" /><rect
       style="fill:#000000;fill-opacity:0.49019608;stroke:none;stroke-width:1.98757708;stroke-miterlimit:4;stroke-dasharray:none;stroke-opacity:1"
       id="rect897"
       width="151.54225"
       height="12.960479"
       x="316.93988"
       y="26.794533"
       transform="rotate(35.015462)" /><rect
       style="fill:#000000;fill-opacity:0.49019608;stroke:none;stroke-width:1.98757696;stroke-miterlimit:4;stroke-dasharray:none;stroke-opacity:1"
       id="rect899"
       width="5.3996053"
       height="24.576433"
       x="217.00554"
       y="133.29642" /><path
       id="path901"
       d="M 219.0625 147.08203 C 194.043 147.30694 191.44531 170.84766 191.44531 170.84766 L 191.0332 283.06445 L 203.75391 283.12109 L 203.75391 188.26367 L 236.98633 188.26367 L 236.98633 214.09766 L 244.19922 203.80469 L 248.95703 207.13867 L 248.82227 171.27734 C 248.82227 171.27734 244.08203 146.8572 219.0625 147.08203 z M 236.98633 214.57617 L 236.98633 283.26562 L 249.24609 283.32031 L 249.01758 223.00391 L 236.98633 214.57617 z "
       style="fill:#000000;fill-opacity:0.49019608;fill-rule:evenodd;stroke:none;stroke-width:0.66252565px;stroke-linecap:butt;stroke-linejoin:miter;stroke-opacity:1" /><path
       inkscape:connector-curvature="0"
       style="fill:#000000;fill-opacity:0.49019608;fill-rule:evenodd;stroke:none;stroke-width:0.66252565px;stroke-linecap:butt;stroke-linejoin:miter;stroke-opacity:1"
       d="M 184,283.03266 185.21118,432 H 359.9148 l 0.30279,-72.6669 -54.19641,0.30279 0.3028,-38.45236 -53.89492,-0.3028 0.3028,-37.54527 z m 20.09187,45.41147 142.03153,88.48989 H 203.51086 Z"
       id="path903" /><path
       style="fill:#000000;fill-opacity:0.49019608;fill-rule:evenodd;stroke:none;stroke-width:0.66252565px;stroke-linecap:butt;stroke-linejoin:miter;stroke-opacity:1"
       d="m 215.42341,120.10705 c 0,0 -5.14511,4.41554 -4.67118,8.02326 0.47393,3.60771 2.0197,7.41931 9.06017,7.4988 7.04048,0.0794 9.22861,-4.24927 9.50136,-7.94535 C 229.58651,123.98768 223.9873,120 223.9873,120 c 0,0 2.18421,5.03693 1.26621,6.87709 -0.91799,1.84013 -3.47751,3.53177 -5.44111,3.5402 -1.9636,0.008 -4.3843,-1.71456 -5.32108,-3.5402 -0.93678,-1.82565 0.93209,-6.77004 0.93209,-6.77004 z"
       id="path905"
       inkscape:connector-curvature="0"
       sodipodi:nodetypes="czzzczzzc" /><path
       id="rect907"
       d="M 350.26172 293.9375 L 350.24023 359.39062 L 360.2168 359.33398 L 360.19922 363.55469 L 360.31641 363.55469 L 360.33789 300.99609 L 350.26172 293.9375 z "
       style="fill:#000000;fill-opacity:0.49019608;stroke:none;stroke-width:1.98757696;stroke-miterlimit:4;stroke-dasharray:none;stroke-opacity:1" /><path
       id="rect909"
       d="M 296.2793 256.11523 L 296.25586 321.12695 L 306.32422 321.18359 L 306.27734 327.10156 L 306.33203 327.10156 L 306.35352 263.17578 L 296.2793 256.11523 z "
       style="fill:#000000;fill-opacity:0.49019608;stroke:none;stroke-width:1.98757696;stroke-miterlimit:4;stroke-dasharray:none;stroke-opacity:1" /><g
       style="fill:#ffffff"
       transform="matrix(0.66252567,0,0,0.66252567,90.812909,90.628468)"
       id="g4162"><rect
         style="fill:#ffffff;fill-opacity:1;stroke:none;stroke-width:3;stroke-miterlimit:4;stroke-dasharray:none;stroke-opacity:1"
         id="rect4186"
         width="228.73415"
         height="19.562229"
         x="245.58458"
         y="-0.34067854"
         transform="rotate(35.015462)" /><rect
         style="fill:#ffffff;fill-opacity:1;stroke:none;stroke-width:3;stroke-miterlimit:4;stroke-dasharray:none;stroke-opacity:1"
         id="rect4167-3"
         width="8.150032"
         height="37.095066"
         x="160.28456"
         y="34.214443" /><path
         inkscape:connector-curvature="0"
         style="fill:#ffffff;fill-opacity:1;fill-rule:evenodd;stroke:none;stroke-width:1px;stroke-linecap:butt;stroke-linejoin:miter;stroke-opacity:1"
         d="m 163.39062,55.023438 c -37.76382,0.339471 -41.6875,35.871093 -41.6875,35.871093 l -0.64648,176.441409 49.41406,-2.54297 H 140.2832 V 117.17969 h 50.16016 v 146.58593 l 18.51172,-0.95312 -0.64649,-171.271484 c 0,0 -7.15411,-36.856935 -44.91797,-36.517578 z"
         id="path4165" /><path
         inkscape:connector-curvature="0"
         style="fill:#ffffff;fill-opacity:1;fill-rule:evenodd;stroke:none;stroke-width:1px;stroke-linecap:butt;stroke-linejoin:miter;stroke-opacity:1"
         d="m 110.4668,260.22266 1.82812,224.84765 h 263.69336 l 0.45703,-109.68164 -81.80273,0.45703 0.45703,-58.03906 -81.34766,-0.45703 0.45703,-56.66992 z m 30.32617,68.54296 214.37891,133.56446 H 139.91602 Z"
         id="path4163" /><path
         style="fill:#ffffff;fill-opacity:1;fill-rule:evenodd;stroke:none;stroke-width:1px;stroke-linecap:butt;stroke-linejoin:miter;stroke-opacity:1"
         d="m 157.89653,14.306729 c 0,0 -7.76591,6.664712 -7.05057,12.110126 0.71534,5.445375 3.04848,11.198514 13.6752,11.3185 10.62672,0.119908 13.92943,-6.41375 14.34111,-11.992523 0.41169,-5.578773 -8.03962,-11.597672 -8.03962,-11.597672 0,0 3.29679,7.602611 1.91119,10.380103 -1.38559,2.777453 -5.24887,5.33077 -8.21268,5.343491 -2.96381,0.01153 -6.61756,-2.587906 -8.03151,-5.343491 -1.41396,-2.755586 1.40688,-10.218534 1.40688,-10.218534 z"
         id="path4184"
         inkscape:connector-curvature="0"
         sodipodi:nodetypes="czzzczzzc" /><rect
         style="fill:#ffffff;fill-opacity:1;stroke:none;stroke-width:3;stroke-miterlimit:4;stroke-dasharray:none;stroke-opacity:1"
         id="rect4186-6"
         width="110.66027"
         height="15.211301"
         x="271.07059"
         y="-376.72391"
         transform="matrix(-3.4142244e-4,0.99999994,-1,-7.7696975e-5,0,0)" /><rect
         style="fill:#ffffff;fill-opacity:1;stroke:none;stroke-width:3;stroke-miterlimit:4;stroke-dasharray:none;stroke-opacity:1"
         id="rect4186-6-7"
         width="110.66027"
         height="15.211301"
         x="216.05484"
         y="-295.22275"
         transform="matrix(-3.4142244e-4,0.99999994,-1,-7.7696975e-5,0,0)" /></g></g></svg>