<?xml version="1.0" encoding="UTF-8" standalone="no"?>
<!-- Created with Inkscape (http://www.inkscape.org/) -->

<svg
   xmlns:dc="http://purl.org/dc/elements/1.1/"
   xmlns:cc="http://creativecommons.org/ns#"
   xmlns:rdf="http://www.w3.org/1999/02/22-rdf-syntax-ns#"
   xmlns:svg="http://www.w3.org/2000/svg"
   xmlns="http://www.w3.org/2000/svg"
   xmlns:sodipodi="http://sodipodi.sourceforge.net/DTD/sodipodi-0.dtd"
   xmlns:inkscape="http://www.inkscape.org/namespaces/inkscape"
   width="512"
   height="512"
   id="svg2"
   version="1.1"
   inkscape:version="0.92.2 2405546, 2018-03-11"
   sodipodi:docname="mkvinfo.svg"
   viewBox="0 0 512 512">
  <defs
     id="defs4" />
  <sodipodi:namedview
     id="base"
     pagecolor="#ffffff"
     bordercolor="#666666"
     borderopacity="1.0"
     inkscape:pageopacity="0.0"
     inkscape:pageshadow="2"
     inkscape:zoom="0.32593203"
     inkscape:cx="-232.95685"
     inkscape:cy="342.50936"
     inkscape:document-units="px"
     inkscape:current-layer="layer1"
     showgrid="true"
     inkscape:snap-page="true"
     inkscape:snap-global="false"
     inkscape:snap-center="true"
     inkscape:snap-object-midpoints="false"
     showguides="false"
     inkscape:guide-bbox="true"
     inkscape:snap-bbox="true"
     inkscape:object-paths="true"
     inkscape:object-nodes="true"
     inkscape:window-width="1366"
     inkscape:window-height="706"
     inkscape:window-x="0"
     inkscape:window-y="0"
     inkscape:window-maximized="1"
     inkscape:snap-midpoints="false"
     inkscape:snap-grids="true"
     inkscape:snap-to-guides="false"
     borderlayer="false"
     showborder="true">
    <inkscape:grid
       type="xygrid"
       id="grid3002"
       empspacing="5"
       visible="true"
       enabled="false"
       snapvisiblegridlinesonly="true" />
  </sodipodi:namedview>
  <metadata
     id="metadata7">
    <rdf:RDF>
      <cc:Work
         rdf:about="">
        <dc:format>image/svg+xml</dc:format>
        <dc:type
           rdf:resource="http://purl.org/dc/dcmitype/StillImage" />
        <dc:title />
      </cc:Work>
    </rdf:RDF>
  </metadata>
  <g
     inkscape:label="Layer 1"
     inkscape:groupmode="layer"
     id="layer1"
     transform="translate(0,-540.36218)">
    <g
       transform="translate(1.9198154e-8,1.9364447e-6)"
       id="g854">
      <path
         style="fill:#3689e6;fill-opacity:1;stroke-width:11.10955143"
         inkscape:connector-curvature="0"
         d="m 432.91335,596.83615 c 102.1928,88.57459 105.82666,249.6997 8.11679,359.89879 C 343.32008,1066.934 181.27947,1084.4628 79.086672,995.8882 -23.106166,907.31361 -26.740027,746.18849 70.96988,635.98941 168.67975,525.79033 330.72028,508.26156 432.91335,596.83615 Z"
         id="path911" />
      <path
         style="opacity:1;fill:#000000;fill-opacity:0.49019608;stroke-width:11.10955238"
         inkscape:connector-curvature="0"
         d="M 511.63499,765.2657 C 510.0836,826.57736 486.47379,889.4203 440.66868,941.08019 342.95881,1051.2793 180.91852,1068.808 78.72572,980.23345 30.827117,938.71782 4.4968425,881.28501 0.19385326,820.59097 0.79910407,886.94765 27.117408,950.84437 79.078624,995.88122 181.27143,1084.4558 343.31941,1066.9184 441.02158,956.72796 490.72647,900.66982 514.02653,831.43699 511.63499,765.2657 Z"
         id="path913" />
      <path
         style="fill:#000000;fill-opacity:0.49019608;stroke-width:0.92307687"
         d="m 135.69231,960.38649 c -4.82469,-2.06344 -11.88489,-9.38141 -12.98208,-13.45606 -0.51438,-1.91022 -1.3346,-3.47318 -1.82273,-3.47318 -0.56366,0 -0.8875,-46.48142 -0.8875,-127.38463 0,-80.90321 0.32384,-127.38465 0.8875,-127.38465 0.48813,0 1.31057,-1.57115 1.82765,-3.49147 1.18315,-4.39388 7.53378,-10.95079 12.82292,-13.23944 3.85091,-1.66631 9.07297,-1.73064 140.46193,-1.73064 131.38896,0 136.61103,0.0643 140.46193,1.73064 5.28915,2.28865 11.63978,8.84556 12.82292,13.23944 0.51708,1.92032 1.33953,3.49147 1.82765,3.49147 0.56366,0 0.8875,46.48144 0.8875,127.38465 0,80.90321 -0.32384,127.38463 -0.8875,127.38463 -0.48812,0 -1.31057,1.57117 -1.82765,3.49147 -1.18314,4.39393 -7.53377,10.95082 -12.82292,13.2394 -3.85371,1.66754 -8.98867,1.72791 -140.76923,1.65536 -119.27741,-0.0655 -137.18282,-0.252 -140.00039,-1.45699 z m 47.08562,-29.39615 c 1.21018,-0.74792 1.22904,-34.30658 0.0196,-35.05399 -1.22819,-0.75906 -29.20966,-0.80883 -30.43077,-0.0542 -1.25226,0.77393 -1.35171,33.91322 -0.10553,35.15966 0.94448,0.94468 28.98129,0.89733 30.51658,-0.0515 z m 216.92308,0 c 1.26709,-0.7831 1.22408,-34.30965 -0.045,-35.094 -0.52768,-0.32611 -7.36518,-0.59293 -15.19446,-0.59293 -7.82928,0 -14.66679,0.26682 -15.19446,0.59293 -1.23112,0.76089 -1.3091,33.91883 -0.0826,35.14554 0.94447,0.94468 28.98129,0.89733 30.51658,-0.0515 z M 260.76924,913.45726 v -17.53847 h -22.61539 -22.61538 l -0.25289,16.58435 c -0.13908,9.12141 -0.0453,17.12497 0.20812,17.78571 0.36467,0.9503 5.14343,1.14967 22.86827,0.9541 l 22.40727,-0.24723 z m 75.6923,0 v -17.53847 h -22.61538 -22.61539 l -0.25288,16.58435 c -0.13908,9.12141 -0.0454,17.12497 0.20811,17.78571 0.36467,0.9503 5.14343,1.14967 22.86827,0.9541 l 22.40727,-0.24723 z m -75.87723,-60.12881 c 1.62479,-0.83239 3.16185,-1.77097 3.41569,-2.08577 0.25386,-0.31479 2.01924,-1.38975 3.92308,-2.3888 1.90385,-0.99905 3.46154,-2.1374 3.46154,-2.52963 0,-0.39224 0.38,-0.71318 0.84445,-0.71318 0.46445,0 4.17113,-2.2394 8.23709,-4.97645 4.06596,-2.73706 7.73595,-5.12553 8.15556,-5.30769 0.41959,-0.18218 4.74946,-2.9716 9.62192,-6.19871 16.0337,-10.6194 16.0337,-15.49181 0,-26.11121 -4.87246,-3.22711 -9.27747,-6.07517 -9.78891,-6.32901 -0.51144,-0.25386 -6.34321,-4.04026 -12.95949,-8.41426 -18.2392,-12.05785 -20.09874,-12.74866 -24.12805,-8.96331 l -2.13642,2.00705 v 34.62577 c 0,34.28066 0.02,34.64708 2.00706,36.76219 2.36502,2.51744 5.27053,2.71111 9.34648,0.62301 z m -77.84599,-117.0829 c 1.26724,-0.78322 1.30172,-34.31064 0.0361,-35.09286 -1.19766,-0.7402 -29.27423,-0.7402 -30.47189,0 -1.19263,0.7371 -1.23157,33.92922 -0.0413,35.1199 0.96008,0.96033 28.91954,0.93553 30.47701,-0.027 z m 77.2542,0.0524 c 1.03991,-0.39904 1.23216,-3.73183 1.02793,-17.81966 l -0.25121,-17.32883 h -22.61539 -22.61538 l -0.25202,16.95675 c -0.14283,9.60974 0.12305,17.40876 0.61365,18 0.88134,1.06215 41.36538,1.23821 44.09242,0.19174 z m 76.46902,-17.61003 v -17.53846 h -22.61538 -22.61539 v 17.49685 c 0,17.46557 0.004,17.49773 2.11063,18.00001 1.16084,0.27673 11.33776,0.29546 22.61538,0.0416 l 20.50476,-0.46154 z m 63.19985,17.55758 c 1.26724,-0.7832 1.30172,-34.31064 0.0361,-35.09285 -1.19766,-0.74019 -29.27422,-0.74019 -30.47188,0 -1.19263,0.73709 -1.23159,33.92921 -0.0412,35.1199 0.96008,0.96033 28.91953,0.93553 30.47701,-0.0272 z"
         id="path43"
         inkscape:connector-curvature="0" />
      <path
         inkscape:connector-curvature="0"
         id="path857"
         d="m 115.69231,940.38649 c -4.82469,-2.06344 -11.88489,-9.38141 -12.98208,-13.45606 -0.51438,-1.91022 -1.3346,-3.47318 -1.82273,-3.47318 -0.56366,0 -0.8875,-46.48142 -0.8875,-127.38463 0,-80.90321 0.32384,-127.38465 0.8875,-127.38465 0.48813,0 1.31057,-1.57115 1.82765,-3.49147 1.18315,-4.39388 7.53378,-10.95079 12.82292,-13.23944 3.85091,-1.66631 9.07297,-1.73064 140.46193,-1.73064 131.38896,0 136.61103,0.0643 140.46193,1.73064 5.28915,2.28865 11.63978,8.84556 12.82292,13.23944 0.51708,1.92032 1.33953,3.49147 1.82765,3.49147 0.56366,0 0.8875,46.48144 0.8875,127.38465 0,80.90321 -0.32384,127.38463 -0.8875,127.38463 -0.48812,0 -1.31057,1.57117 -1.82765,3.49147 -1.18314,4.39393 -7.53377,10.95082 -12.82292,13.2394 -3.85371,1.66754 -8.98867,1.72791 -140.76923,1.65536 -119.27741,-0.0655 -137.18282,-0.252 -140.00039,-1.45699 z m 47.08562,-29.39615 c 1.21018,-0.74792 1.22904,-34.30658 0.0196,-35.05399 -1.22819,-0.75906 -29.20966,-0.80883 -30.43077,-0.0542 -1.25226,0.77393 -1.35171,33.91322 -0.10553,35.15966 0.94448,0.94468 28.98129,0.89733 30.51658,-0.0515 z m 216.92308,0 c 1.26709,-0.7831 1.22408,-34.30965 -0.045,-35.094 -0.52768,-0.32611 -7.36518,-0.59293 -15.19446,-0.59293 -7.82928,0 -14.66679,0.26682 -15.19446,0.59293 -1.23112,0.76089 -1.3091,33.91883 -0.0826,35.14554 0.94447,0.94468 28.98129,0.89733 30.51658,-0.0515 z M 240.76924,893.45726 v -17.53847 h -22.61539 -22.61538 l -0.25289,16.58435 c -0.13908,9.12141 -0.0453,17.12497 0.20812,17.78571 0.36467,0.9503 5.14343,1.14967 22.86827,0.9541 l 22.40727,-0.24723 z m 75.6923,0 v -17.53847 h -22.61538 -22.61539 l -0.25288,16.58435 c -0.13908,9.12141 -0.0454,17.12497 0.20811,17.78571 0.36467,0.9503 5.14343,1.14967 22.86827,0.9541 l 22.40727,-0.24723 z m -75.87723,-60.12881 c 1.62479,-0.83239 3.16185,-1.77097 3.41569,-2.08577 0.25386,-0.31479 2.01924,-1.38975 3.92308,-2.3888 1.90385,-0.99905 3.46154,-2.1374 3.46154,-2.52963 0,-0.39224 0.38,-0.71318 0.84445,-0.71318 0.46445,0 4.17113,-2.2394 8.23709,-4.97645 4.06596,-2.73706 7.73595,-5.12553 8.15556,-5.30769 0.41959,-0.18218 4.74946,-2.9716 9.62192,-6.19871 16.0337,-10.6194 16.0337,-15.49181 0,-26.11121 -4.87246,-3.22711 -9.27747,-6.07517 -9.78891,-6.32901 -0.51144,-0.25386 -6.34321,-4.04026 -12.95949,-8.41426 -18.2392,-12.05785 -20.09874,-12.74866 -24.12805,-8.96331 l -2.13642,2.00705 v 34.62577 c 0,34.28066 0.02,34.64708 2.00706,36.76219 2.36502,2.51744 5.27053,2.71111 9.34648,0.62301 z m -77.84599,-117.0829 c 1.26724,-0.78322 1.30172,-34.31064 0.0361,-35.09286 -1.19766,-0.7402 -29.27423,-0.7402 -30.47189,0 -1.19263,0.7371 -1.23157,33.92922 -0.0413,35.1199 0.96008,0.96033 28.91954,0.93553 30.47701,-0.027 z m 77.2542,0.0524 c 1.03991,-0.39904 1.23216,-3.73183 1.02793,-17.81966 l -0.25121,-17.32883 h -22.61539 -22.61538 l -0.25202,16.95675 c -0.14283,9.60974 0.12305,17.40876 0.61365,18 0.88134,1.06215 41.36538,1.23821 44.09242,0.19174 z m 76.46902,-17.61003 v -17.53846 h -22.61538 -22.61539 v 17.49685 c 0,17.46557 0.004,17.49773 2.11063,18.00001 1.16084,0.27673 11.33776,0.29546 22.61538,0.0416 l 20.50476,-0.46154 z m 63.19985,17.55758 c 1.26724,-0.7832 1.30172,-34.31064 0.0361,-35.09285 -1.19766,-0.74019 -29.27422,-0.74019 -30.47188,0 -1.19263,0.73709 -1.23159,33.92921 -0.0412,35.1199 0.96008,0.96033 28.91953,0.93553 30.47701,-0.0272 z"
         style="fill:#ffffff;stroke-width:0.92307687" />
    </g>
  </g>
</svg>
