<?xml version="1.0" encoding="UTF-8" standalone="no"?>
<!-- Created with Inkscape (http://www.inkscape.org/) -->

<svg
   xmlns:dc="http://purl.org/dc/elements/1.1/"
   xmlns:cc="http://creativecommons.org/ns#"
   xmlns:rdf="http://www.w3.org/1999/02/22-rdf-syntax-ns#"
   xmlns:svg="http://www.w3.org/2000/svg"
   xmlns="http://www.w3.org/2000/svg"
   xmlns:sodipodi="http://sodipodi.sourceforge.net/DTD/sodipodi-0.dtd"
   xmlns:inkscape="http://www.inkscape.org/namespaces/inkscape"
   width="512"
   height="512"
   id="svg2"
   version="1.1"
   inkscape:version="0.92.3 (2405546, 2018-03-11)"
   sodipodi:docname="mkvinfo.svg"
   viewBox="0 0 512 512">
  <defs
     id="defs4" />
  <sodipodi:namedview
     id="base"
     pagecolor="#ffffff"
     bordercolor="#666666"
     borderopacity="1.0"
     inkscape:pageopacity="0.0"
     inkscape:pageshadow="2"
     inkscape:zoom="0.32593203"
     inkscape:cx="-232.95685"
     inkscape:cy="342.50936"
     inkscape:document-units="px"
     inkscape:current-layer="layer1"
     showgrid="true"
     inkscape:snap-page="true"
     inkscape:snap-global="false"
     inkscape:snap-center="true"
     inkscape:snap-object-midpoints="false"
     showguides="true"
     inkscape:guide-bbox="true"
     inkscape:snap-bbox="true"
     inkscape:object-paths="true"
     inkscape:object-nodes="true"
     inkscape:window-width="1366"
     inkscape:window-height="718"
     inkscape:window-x="0"
     inkscape:window-y="25"
     inkscape:window-maximized="1"
     inkscape:snap-midpoints="false"
     inkscape:snap-grids="true"
     inkscape:snap-to-guides="false"
     borderlayer="false"
     showborder="true">
    <inkscape:grid
       type="xygrid"
       id="grid3002"
       empspacing="5"
       visible="true"
       enabled="false"
       snapvisiblegridlinesonly="true" />
  </sodipodi:namedview>
  <metadata
     id="metadata7">
    <rdf:RDF>
      <cc:Work
         rdf:about="">
        <dc:format>image/svg+xml</dc:format>
        <dc:type
           rdf:resource="http://purl.org/dc/dcmitype/StillImage" />
        <dc:title></dc:title>
      </cc:Work>
    </rdf:RDF>
  </metadata>
  <g
     inkscape:label="Layer 1"
     inkscape:groupmode="layer"
     id="layer1"
     transform="translate(0,-540.36218)">
    <g
       transform="translate(1.9198183e-8,1.9364447e-6)"
       id="g910">
      <path
         style="fill:#3689e6;fill-opacity:1;stroke-width:11.10955143"
         inkscape:connector-curvature="0"
         d="m 432.91335,596.83615 c 102.1928,88.57459 105.82666,249.6997 8.11679,359.89879 C 343.32008,1066.934 181.27947,1084.4628 79.086672,995.8882 -23.106166,907.31361 -26.740027,746.18849 70.96988,635.98941 168.67975,525.79033 330.72028,508.26156 432.91335,596.83615 Z"
         id="path911" />
      <path
         style="opacity:1;fill:#000000;fill-opacity:0.49019608;stroke-width:11.10955238"
         inkscape:connector-curvature="0"
         d="M 511.63499,765.2657 C 510.0836,826.57736 486.47379,889.4203 440.66868,941.08019 342.95881,1051.2793 180.91852,1068.808 78.72572,980.23345 30.827117,938.71782 4.4968425,881.28501 0.19385326,820.59097 0.79910407,886.94765 27.117408,950.84437 79.078624,995.88122 181.27143,1084.4558 343.31941,1066.9184 441.02158,956.72796 490.72647,900.66982 514.02653,831.43699 511.63499,765.2657 Z"
         id="path913" />
      <g
         style="fill:#000000;fill-opacity:0.49019608"
         transform="translate(20.000029,20)"
         id="g894">
        <path
           inkscape:connector-curvature="0"
           id="path884"
           d="m 241.82492,951.61598 c -45.40573,-4.85042 -83.37381,-25.99745 -110.38525,-61.48115 -14.64454,-19.23786 -25.30706,-44.08543 -29.2496,-68.16229 -2.863701,-17.48841 -2.914711,-31.66768 -0.1785,-49.61806 9.48555,-62.22839 55.78386,-112.61183 117.26372,-127.61051 15.82277,-3.86014 34.0315,-5.37417 48.51873,-4.03427 15.35547,1.42021 30.07956,4.70706 43.20158,9.64387 23.96286,9.01538 45.69635,24.02564 62.02749,42.83934 11.05224,12.73234 18.55216,24.39082 25.26093,39.26765 18.49569,41.01455 18.27658,87.91745 -0.60272,129.01941 -12.29176,26.76028 -32.1127,49.70318 -56.6768,65.60386 -29.25596,18.93778 -66.14138,28.06142 -99.17958,24.53215 z m 35.40585,-32.31625 c 29.67655,-5.22931 55.02576,-19.88731 74.77545,-43.23837 6.45826,-7.63591 14.07608,-19.87258 17.6846,-28.40712 0.86974,-2.05703 1.92093,-4.50276 2.336,-5.43496 3.11462,-6.99525 6.35248,-19.6918 7.77029,-30.46956 1.32595,-10.07939 1.07935,-25.70141 -0.56282,-35.65519 -3.47764,-21.07922 -12.46596,-41.26903 -25.75258,-57.84617 -3.96304,-4.94451 -12.0927,-13.34564 -15.92449,-16.45624 -1.35144,-1.09709 -3.24778,-2.68794 -4.21408,-3.53523 -2.84413,-2.49385 -11.12034,-7.94621 -16.86549,-11.11098 -14.00639,-7.71556 -28.5379,-12.4533 -44.7323,-14.58416 -14.59545,-1.92048 -34.16703,-0.69392 -47.62336,2.98457 -21.42044,5.85561 -40.50237,16.7837 -55.6706,31.88216 -2.70505,2.69261 -5.81589,5.999 -6.91297,7.34754 -1.09709,1.34853 -2.68793,3.24249 -3.53523,4.20879 -2.49385,2.84414 -7.94621,11.12034 -11.11098,16.86549 -20.17879,36.63144 -20.81921,81.43317 -1.68329,117.75739 4.84448,9.19589 7.69225,13.56623 13.66757,20.97494 20.08388,24.90175 48.62711,40.92282 80.95373,45.43865 9.5955,1.34044 27.67857,0.99157 37.40055,-0.72155 z m -55.02409,-65.66375 c -1.4346,-0.61166 -2.90627,-2.25292 -3.79863,-4.23638 -0.54701,-1.21586 -0.70537,-11.02155 -0.8456,-52.36076 -0.17005,-50.12729 -0.15809,-50.88929 0.82479,-52.55798 1.61033,-2.7339 3.42686,-3.79587 6.44403,-3.76725 2.23609,0.0212 3.32781,0.42311 7.31755,2.69387 2.57915,1.46793 5.36257,3.05203 6.18538,3.52024 0.82281,0.46821 3.74006,2.1584 6.48276,3.75597 2.74271,1.59757 8.29354,4.82691 12.33519,7.17632 30.20904,17.56051 38.24771,22.25771 39.77624,23.24233 0.95994,0.61835 3.42838,2.07685 5.48541,3.2411 8.11434,4.59263 9.78473,5.59066 11.35509,6.7845 4.66455,3.54615 4.96154,8.84051 0.70923,12.643 -1.07351,0.95994 -4.39544,3.11554 -7.38208,4.7902 -2.98664,1.67467 -7.61818,4.31141 -10.29232,5.85942 -2.67414,1.54802 -6.9939,4.04879 -9.59948,5.55728 -9.04665,5.23754 -14.47382,8.36161 -16.70557,9.61633 -1.23422,0.6939 -3.81486,2.20603 -5.73475,3.3603 -1.9199,1.15427 -5.17374,3.05438 -7.23077,4.22247 -2.05703,1.16809 -4.41327,2.51055 -5.23608,2.98325 -23.75478,13.64675 -23.54453,13.53659 -26.25871,13.75706 -1.46541,0.11903 -3.18966,-0.008 -3.83168,-0.28127 z"
           style="fill:#000000;fill-opacity:0.49019608;stroke-width:0.49867395" />
        <g
           id="g892"
           style="font-style:normal;font-weight:normal;font-size:40px;line-height:1.25;font-family:sans-serif;letter-spacing:0px;word-spacing:0px;fill:#000000;fill-opacity:0.49019608;stroke:none"
           inkscape:transform-center-y="80.84355"
           inkscape:transform-center-x="6.6613609"
           transform="rotate(-1.3498544,280.02372,667.35832)"
           aria-label="M K V">
          <path
             inkscape:connector-curvature="0"
             id="path886"
             style="font-style:normal;font-variant:normal;font-weight:bold;font-stretch:normal;font-size:64px;font-family:'Comic Sans MS';-inkscape-font-specification:'Comic Sans MS Bold';fill:#000000;fill-opacity:0.49019608"
             d="m 193.03071,862.79522 q -4.14133,3.23354 -12.25365,9.94326 -2.57747,2.48574 -5.11123,4.96495 -3.66914,2.80543 -6.43264,0.76105 -1.73346,-1.28239 -1.86486,-3.20656 -0.11076,-1.63681 0.91143,-3.01856 3.01081,-4.06988 9.07464,-8.64108 9.0739,-6.85355 9.98112,-7.65953 3.59069,-3.32992 7.20651,-6.64126 5.07059,-4.48967 7.67794,-5.28183 2.65106,-0.79869 4.66088,0.68813 2.28616,1.69126 1.6566,4.80171 -0.61201,2.92909 -4.45581,10.54202 -3.74535,7.37478 -7.15384,16.55363 8.38381,-5.34272 17.4436,-12.43993 l 5.68149,-4.73744 q 4.01432,-2.58895 6.85318,-0.48881 2.73838,2.02579 0.98473,7.18118 -0.69252,2.0921 -3.46555,7.15419 -6.46021,11.78021 -9.89934,21.05302 -3.50692,9.417 -4.00873,10.09532 -1.09653,1.48224 -3.0207,1.61364 -1.77447,0.0867 -3.15622,-0.93553 -2.73838,-2.02579 -1.17058,-6.92995 l 3.09077,-7.12047 q 2.13945,-5.41418 6.99582,-14.92131 -3.62095,2.53011 -11.56768,7.80746 l -4.92705,3.50746 q -2.95534,2.05072 -5.26122,3.0659 -3.05993,1.35139 -5.44659,-0.41421 -2.36153,-1.74702 -1.5547,-5.4649 l 2.04999,-5.7136 q 2.79826,-7.88106 6.48169,-16.11795 z" />
          <path
             inkscape:connector-curvature="0"
             id="path888"
             style="font-style:normal;font-variant:normal;font-weight:bold;font-stretch:normal;font-size:64px;font-family:'Comic Sans MS';-inkscape-font-specification:'Comic Sans MS Bold';fill:#000000;fill-opacity:0.49019608"
             d="m 250.36851,898.571 0.68476,13.13845 q 0.0748,1.37296 -0.64234,2.57001 -1.0054,1.65092 -3.09604,1.76486 -2.46509,0.13435 -3.9781,-1.78616 -1.17716,-1.50066 -1.2741,-3.27927 -0.37754,-6.92722 -0.69746,-20.83668 -0.31993,-13.90945 -0.69747,-20.83667 -0.0952,-1.7474 1.08489,-3.06358 1.18012,-1.31617 3.05234,-1.41821 1.87222,-0.10203 3.15719,1.07979 1.31617,1.18012 1.41141,2.92753 0.15305,2.80833 0.13242,7.5978 -0.0405,5.57297 0.008,7.60461 2.07202,-2.17849 15.24917,-18.23188 1.35034,-1.63842 3.22256,-1.74045 1.77861,-0.0969 3.15719,1.07978 1.40978,1.17502 1.50672,2.95363 0.10544,1.93463 -6.87888,10.45234 -5.16703,6.25922 -10.93543,12.39473 3.57637,3.02861 7.18394,6.05552 4.19474,3.46435 7.50677,5.66237 1.65431,1.06781 3.52764,1.56034 3.39662,0.87896 3.56158,3.90571 0.0731,1.34176 -0.70135,2.63583 -1.0627,1.74792 -3.12215,1.86016 -4.46212,0.24319 -11.89458,-5.20416 -2.21709,-1.63176 -10.52828,-8.8464 z" />
          <path
             inkscape:connector-curvature="0"
             id="path890"
             style="font-style:normal;font-variant:normal;font-weight:bold;font-stretch:normal;font-size:64px;font-family:'Comic Sans MS';-inkscape-font-specification:'Comic Sans MS Bold';fill:#000000;fill-opacity:0.49019608"
             d="m 313.97026,879.09062 q -2.43916,-12.54323 -4.05196,-19.86204 -0.8503,-3.87256 -1.74378,-7.75455 -0.84377,-4.73063 -0.35417,-7.90332 0.32325,-2.10073 1.98043,-3.16363 1.49935,-0.96167 3.30529,-0.63496 1.78907,0.3004 2.75074,1.79975 0.67485,1.05217 0.62262,2.53357 -0.10447,2.96279 0.56768,6.61548 0.0149,0.13896 1.39401,6.45675 1.5299,7.59473 4.64229,22.75045 0.83144,3.95891 1.11048,8.27212 0.18488,2.77721 -1.97207,4.16066 -2.73566,1.75462 -5.46753,-0.13148 -8.1187,-5.59626 -21.28356,-17.49722 -3.35612,-2.85936 -6.73853,-5.70185 -4.64487,-4.00042 -5.87648,-5.92064 -0.99541,-1.55196 -0.496,-3.32017 0.49741,-1.65555 1.97046,-2.60035 2.52522,-1.61965 5.21192,0.36967 1.9939,1.95106 3.97092,3.8758 2.69015,2.28412 7.96524,6.91983 6.87695,6.20708 12.492,10.73613 z" />
        </g>
      </g>
      <g
         id="g882">
        <path
           style="fill:#ffffff;stroke-width:0.49867395"
           d="m 241.82492,951.61598 c -45.40573,-4.85042 -83.37381,-25.99745 -110.38525,-61.48115 -14.64454,-19.23786 -25.30706,-44.08543 -29.2496,-68.16229 -2.863701,-17.48841 -2.914711,-31.66768 -0.1785,-49.61806 9.48555,-62.22839 55.78386,-112.61183 117.26372,-127.61051 15.82277,-3.86014 34.0315,-5.37417 48.51873,-4.03427 15.35547,1.42021 30.07956,4.70706 43.20158,9.64387 23.96286,9.01538 45.69635,24.02564 62.02749,42.83934 11.05224,12.73234 18.55216,24.39082 25.26093,39.26765 18.49569,41.01455 18.27658,87.91745 -0.60272,129.01941 -12.29176,26.76028 -32.1127,49.70318 -56.6768,65.60386 -29.25596,18.93778 -66.14138,28.06142 -99.17958,24.53215 z m 35.40585,-32.31625 c 29.67655,-5.22931 55.02576,-19.88731 74.77545,-43.23837 6.45826,-7.63591 14.07608,-19.87258 17.6846,-28.40712 0.86974,-2.05703 1.92093,-4.50276 2.336,-5.43496 3.11462,-6.99525 6.35248,-19.6918 7.77029,-30.46956 1.32595,-10.07939 1.07935,-25.70141 -0.56282,-35.65519 -3.47764,-21.07922 -12.46596,-41.26903 -25.75258,-57.84617 -3.96304,-4.94451 -12.0927,-13.34564 -15.92449,-16.45624 -1.35144,-1.09709 -3.24778,-2.68794 -4.21408,-3.53523 -2.84413,-2.49385 -11.12034,-7.94621 -16.86549,-11.11098 -14.00639,-7.71556 -28.5379,-12.4533 -44.7323,-14.58416 -14.59545,-1.92048 -34.16703,-0.69392 -47.62336,2.98457 -21.42044,5.85561 -40.50237,16.7837 -55.6706,31.88216 -2.70505,2.69261 -5.81589,5.999 -6.91297,7.34754 -1.09709,1.34853 -2.68793,3.24249 -3.53523,4.20879 -2.49385,2.84414 -7.94621,11.12034 -11.11098,16.86549 -20.17879,36.63144 -20.81921,81.43317 -1.68329,117.75739 4.84448,9.19589 7.69225,13.56623 13.66757,20.97494 20.08388,24.90175 48.62711,40.92282 80.95373,45.43865 9.5955,1.34044 27.67857,0.99157 37.40055,-0.72155 z m -55.02409,-65.66375 c -1.4346,-0.61166 -2.90627,-2.25292 -3.79863,-4.23638 -0.54701,-1.21586 -0.70537,-11.02155 -0.8456,-52.36076 -0.17005,-50.12729 -0.15809,-50.88929 0.82479,-52.55798 1.61033,-2.7339 3.42686,-3.79587 6.44403,-3.76725 2.23609,0.0212 3.32781,0.42311 7.31755,2.69387 2.57915,1.46793 5.36257,3.05203 6.18538,3.52024 0.82281,0.46821 3.74006,2.1584 6.48276,3.75597 2.74271,1.59757 8.29354,4.82691 12.33519,7.17632 30.20904,17.56051 38.24771,22.25771 39.77624,23.24233 0.95994,0.61835 3.42838,2.07685 5.48541,3.2411 8.11434,4.59263 9.78473,5.59066 11.35509,6.7845 4.66455,3.54615 4.96154,8.84051 0.70923,12.643 -1.07351,0.95994 -4.39544,3.11554 -7.38208,4.7902 -2.98664,1.67467 -7.61818,4.31141 -10.29232,5.85942 -2.67414,1.54802 -6.9939,4.04879 -9.59948,5.55728 -9.04665,5.23754 -14.47382,8.36161 -16.70557,9.61633 -1.23422,0.6939 -3.81486,2.20603 -5.73475,3.3603 -1.9199,1.15427 -5.17374,3.05438 -7.23077,4.22247 -2.05703,1.16809 -4.41327,2.51055 -5.23608,2.98325 -23.75478,13.64675 -23.54453,13.53659 -26.25871,13.75706 -1.46541,0.11903 -3.18966,-0.008 -3.83168,-0.28127 z"
           id="path4551"
           inkscape:connector-curvature="0" />
        <g
           aria-label="M K V"
           transform="rotate(-1.3498544,280.02372,667.35832)"
           inkscape:transform-center-x="6.6613609"
           inkscape:transform-center-y="80.84355"
           style="font-style:normal;font-weight:normal;font-size:40px;line-height:1.25;font-family:sans-serif;letter-spacing:0px;word-spacing:0px;fill:#ffffff;fill-opacity:1;stroke:none"
           id="text864">
          <path
             d="m 193.03071,862.79522 q -4.14133,3.23354 -12.25365,9.94326 -2.57747,2.48574 -5.11123,4.96495 -3.66914,2.80543 -6.43264,0.76105 -1.73346,-1.28239 -1.86486,-3.20656 -0.11076,-1.63681 0.91143,-3.01856 3.01081,-4.06988 9.07464,-8.64108 9.0739,-6.85355 9.98112,-7.65953 3.59069,-3.32992 7.20651,-6.64126 5.07059,-4.48967 7.67794,-5.28183 2.65106,-0.79869 4.66088,0.68813 2.28616,1.69126 1.6566,4.80171 -0.61201,2.92909 -4.45581,10.54202 -3.74535,7.37478 -7.15384,16.55363 8.38381,-5.34272 17.4436,-12.43993 l 5.68149,-4.73744 q 4.01432,-2.58895 6.85318,-0.48881 2.73838,2.02579 0.98473,7.18118 -0.69252,2.0921 -3.46555,7.15419 -6.46021,11.78021 -9.89934,21.05302 -3.50692,9.417 -4.00873,10.09532 -1.09653,1.48224 -3.0207,1.61364 -1.77447,0.0867 -3.15622,-0.93553 -2.73838,-2.02579 -1.17058,-6.92995 l 3.09077,-7.12047 q 2.13945,-5.41418 6.99582,-14.92131 -3.62095,2.53011 -11.56768,7.80746 l -4.92705,3.50746 q -2.95534,2.05072 -5.26122,3.0659 -3.05993,1.35139 -5.44659,-0.41421 -2.36153,-1.74702 -1.5547,-5.4649 l 2.04999,-5.7136 q 2.79826,-7.88106 6.48169,-16.11795 z"
             style="font-style:normal;font-variant:normal;font-weight:bold;font-stretch:normal;font-size:64px;font-family:'Comic Sans MS';-inkscape-font-specification:'Comic Sans MS Bold';fill:#ffffff"
             id="path870"
             inkscape:connector-curvature="0" />
          <path
             d="m 250.36851,898.571 0.68476,13.13845 q 0.0748,1.37296 -0.64234,2.57001 -1.0054,1.65092 -3.09604,1.76486 -2.46509,0.13435 -3.9781,-1.78616 -1.17716,-1.50066 -1.2741,-3.27927 -0.37754,-6.92722 -0.69746,-20.83668 -0.31993,-13.90945 -0.69747,-20.83667 -0.0952,-1.7474 1.08489,-3.06358 1.18012,-1.31617 3.05234,-1.41821 1.87222,-0.10203 3.15719,1.07979 1.31617,1.18012 1.41141,2.92753 0.15305,2.80833 0.13242,7.5978 -0.0405,5.57297 0.008,7.60461 2.07202,-2.17849 15.24917,-18.23188 1.35034,-1.63842 3.22256,-1.74045 1.77861,-0.0969 3.15719,1.07978 1.40978,1.17502 1.50672,2.95363 0.10544,1.93463 -6.87888,10.45234 -5.16703,6.25922 -10.93543,12.39473 3.57637,3.02861 7.18394,6.05552 4.19474,3.46435 7.50677,5.66237 1.65431,1.06781 3.52764,1.56034 3.39662,0.87896 3.56158,3.90571 0.0731,1.34176 -0.70135,2.63583 -1.0627,1.74792 -3.12215,1.86016 -4.46212,0.24319 -11.89458,-5.20416 -2.21709,-1.63176 -10.52828,-8.8464 z"
             style="font-style:normal;font-variant:normal;font-weight:bold;font-stretch:normal;font-size:64px;font-family:'Comic Sans MS';-inkscape-font-specification:'Comic Sans MS Bold';fill:#ffffff"
             id="path872"
             inkscape:connector-curvature="0" />
          <path
             d="m 313.97026,879.09062 q -2.43916,-12.54323 -4.05196,-19.86204 -0.8503,-3.87256 -1.74378,-7.75455 -0.84377,-4.73063 -0.35417,-7.90332 0.32325,-2.10073 1.98043,-3.16363 1.49935,-0.96167 3.30529,-0.63496 1.78907,0.3004 2.75074,1.79975 0.67485,1.05217 0.62262,2.53357 -0.10447,2.96279 0.56768,6.61548 0.0149,0.13896 1.39401,6.45675 1.5299,7.59473 4.64229,22.75045 0.83144,3.95891 1.11048,8.27212 0.18488,2.77721 -1.97207,4.16066 -2.73566,1.75462 -5.46753,-0.13148 -8.1187,-5.59626 -21.28356,-17.49722 -3.35612,-2.85936 -6.73853,-5.70185 -4.64487,-4.00042 -5.87648,-5.92064 -0.99541,-1.55196 -0.496,-3.32017 0.49741,-1.65555 1.97046,-2.60035 2.52522,-1.61965 5.21192,0.36967 1.9939,1.95106 3.97092,3.8758 2.69015,2.28412 7.96524,6.91983 6.87695,6.20708 12.492,10.73613 z"
             style="font-style:normal;font-variant:normal;font-weight:bold;font-stretch:normal;font-size:64px;font-family:'Comic Sans MS';-inkscape-font-specification:'Comic Sans MS Bold';fill:#ffffff"
             id="path874"
             inkscape:connector-curvature="0" />
        </g>
      </g>
    </g>
  </g>
</svg>
