<?xml version="1.0" encoding="UTF-8" standalone="no"?>
<!-- Generator: Adobe Illustrator 19.0.0, SVG Export Plug-In . SVG Version: 6.00 Build 0)  -->

<svg
   xmlns:dc="http://purl.org/dc/elements/1.1/"
   xmlns:cc="http://creativecommons.org/ns#"
   xmlns:rdf="http://www.w3.org/1999/02/22-rdf-syntax-ns#"
   xmlns:svg="http://www.w3.org/2000/svg"
   xmlns="http://www.w3.org/2000/svg"
   xmlns:sodipodi="http://sodipodi.sourceforge.net/DTD/sodipodi-0.dtd"
   xmlns:inkscape="http://www.inkscape.org/namespaces/inkscape"
   version="1.1"
   id="Layer_1"
   x="0px"
   y="0px"
   viewBox="0 0 512 512"
   xml:space="preserve"
   inkscape:version="0.92.3 (2405546, 2018-03-11)"
   width="512"
   height="512"
   sodipodi:docname="mnemosyne.svg"><metadata
     id="metadata57"><rdf:RDF><cc:Work
         rdf:about=""><dc:format>image/svg+xml</dc:format><dc:type
           rdf:resource="http://purl.org/dc/dcmitype/StillImage" /><dc:title></dc:title></cc:Work></rdf:RDF></metadata><defs
     id="defs55" /><sodipodi:namedview
     pagecolor="#ffffff"
     bordercolor="#666666"
     borderopacity="1"
     objecttolerance="10"
     gridtolerance="10"
     guidetolerance="10"
     inkscape:pageopacity="0"
     inkscape:pageshadow="2"
     inkscape:window-width="1366"
     inkscape:window-height="718"
     id="namedview53"
     showgrid="false"
     inkscape:zoom="0.74330372"
     inkscape:cx="227.68634"
     inkscape:cy="217.757"
     inkscape:window-x="0"
     inkscape:window-y="25"
     inkscape:window-maximized="1"
     inkscape:current-layer="Layer_1"
     units="px" /><g
     id="g23"
     transform="translate(0,550.767)" /><g
     id="g25"
     transform="translate(0,550.767)" /><g
     id="g27"
     transform="translate(0,550.767)" /><g
     id="g29"
     transform="translate(0,550.767)" /><g
     id="g31"
     transform="translate(0,550.767)" /><g
     id="g33"
     transform="translate(0,550.767)" /><g
     id="g35"
     transform="translate(0,550.767)" /><g
     id="g37"
     transform="translate(0,550.767)" /><g
     id="g39"
     transform="translate(0,550.767)" /><g
     id="g41"
     transform="translate(0,550.767)" /><g
     id="g43"
     transform="translate(0,550.767)" /><g
     id="g45"
     transform="translate(0,550.767)" /><g
     id="g47"
     transform="translate(0,550.767)" /><g
     id="g49"
     transform="translate(0,550.767)" /><g
     id="g51"
     transform="translate(0,550.767)" /><g
     id="g1000"><path
       id="path1165"
       d="m 432.91328,56.47496 c 102.1929,88.5735 105.82677,249.69956 8.11678,359.89803 C 343.32007,526.57148 181.27962,544.10044 79.086741,455.52694 -23.106209,366.95112 -26.740029,205.82738 70.969941,95.62658 168.67988,-14.57187 330.72033,-32.10086 432.91328,56.47496 Z"
       inkscape:connector-curvature="0"
       style="fill:#c6262e;fill-opacity:1;stroke-width:11.10954762" /><path
       id="path1167"
       d="M 511.63552,224.904 C 510.08416,286.21587 486.47428,349.05909 440.66913,400.71745 342.95911,510.91591 180.91867,528.44488 78.725761,439.87141 30.827131,398.35528 4.4968218,340.92296 0.19383188,280.22782 0.79908188,346.58521 27.117411,410.48267 79.078691,455.51763 181.27157,544.09344 343.31972,526.55518 441.02203,416.366 490.72697,360.30678 514.02704,291.07521 511.63552,224.904 Z"
       inkscape:connector-curvature="0"
       style="opacity:1;fill:#000000;fill-opacity:0.49019608;stroke-width:11.10954762" /><g
       id="g165"
       transform="matrix(0.63791504,0,0,0.63791504,692.81059,-182.09414)"
       style="fill:#000000;fill-opacity:0.49019608"><path
         inkscape:connector-curvature="0"
         id="path141"
         d="m -842.77148,756.82617 -1.0879,10.13867 11.76954,0.18164 38.02929,23.16016 c 1.00135,-1.10325 2.07324,-2.18239 3.21289,-3.22461 l -37.07812,-24.82422 z"
         style="fill:#000000;fill-opacity:0.49019608;fill-rule:evenodd;stroke:none;stroke-width:4.30669641px;stroke-linecap:butt;stroke-linejoin:miter;stroke-opacity:1" /><path
         inkscape:connector-curvature="0"
         id="path143"
         d="m -822.68555,731.30273 -4.80468,8.99415 10.84375,4.57617 29.25,39.30859 c 1.13707,-0.86722 2.30815,-1.68822 3.50781,-2.44336 l -27.06641,-39.83789 z"
         style="fill:#000000;fill-opacity:0.49019608;fill-rule:evenodd;stroke:none;stroke-width:4.30669641px;stroke-linecap:butt;stroke-linejoin:miter;stroke-opacity:1" /><path
         inkscape:connector-curvature="0"
         id="path145"
         d="m -689.4707,807.81641 c 1.66267,7.51449 -1.14281,16.22238 -3.06836,21.05468 -2.40521,6.03604 -2.22849,6.53728 -8.27735,9.29688 7.11218,11.31812 23.54276,18.15782 44.125,31.16015 22.13478,13.98312 66.65189,46.35916 88.59766,47.11524 21.94576,0.75609 24.23865,-2.16355 28.67773,-12.80274 4.43909,-10.63918 0.55518,-19.62838 -13.31445,-35.33593 -13.86963,-15.70756 -55.41804,-31.40769 -77.8418,-40.97071 -22.42377,-9.56302 -43.4508,-15.45466 -55.31054,-18.43554 -1.38991,-0.34935 -2.56277,-0.71567 -3.58789,-1.08203 z"
         style="fill:#000000;fill-opacity:0.49019608;fill-rule:evenodd;stroke:none;stroke-width:4.30669641px;stroke-linecap:butt;stroke-linejoin:miter;stroke-opacity:1" /><path
         inkscape:connector-curvature="0"
         id="path147"
         d="m -748.29492,841.40234 c -0.29837,0.005 -0.56884,0.0144 -0.85742,0.0215 v 22.01367 l -22.06055,6.61133 -14.5957,58.125 20.99804,-52.23633 25.34961,-8.70508 -0.22656,-25.25781 c -1.20596,-0.11404 -2.35115,-0.23174 -3.35742,-0.34961 -1.92662,-0.22567 -3.65966,-0.24816 -5.25,-0.22266 z"
         style="fill:#000000;fill-opacity:0.49019608;fill-rule:evenodd;stroke:none;stroke-width:4.30669641px;stroke-linecap:butt;stroke-linejoin:miter;stroke-opacity:1" /><path
         inkscape:connector-curvature="0"
         id="path149"
         d="m -735.35352,842.16992 11.91993,14.20508 -16.29493,26.43555 3.80274,67.53515 6.88086,-66.26758 16.65625,-25.3496 -12.42188,-16.05664 c -3.65867,-0.04 -7.28493,-0.23848 -10.54297,-0.50196 z"
         style="fill:#000000;fill-opacity:0.49019608;fill-rule:evenodd;stroke:none;stroke-width:4.30669641px;stroke-linecap:butt;stroke-linejoin:miter;stroke-opacity:1" /><path
         inkscape:connector-curvature="0"
         id="path151"
         d="m -705.87109,841.33008 c -2.74121,0.77032 -6.31358,1.16057 -10.16797,1.29687 l 18.51562,22.98243 -2.89844,30.41796 30.05665,66.63086 -17.74415,-64.0957 3.25977,-36.21289 z"
         style="fill:#000000;fill-opacity:0.49019608;fill-rule:evenodd;stroke:none;stroke-width:4.30669641px;stroke-linecap:butt;stroke-linejoin:miter;stroke-opacity:1" /><path
         id="path153"
         d="m -742.85352,789.41016 c -2.0042,0.0144 -3.92248,0.1178 -5.75195,0.41796 5.41174,10.13401 0.77696,28.05605 -4.98828,37.0918 -1.26878,1.98853 -2.78141,3.94411 -4.46484,5.78125 4.68387,4.37664 9.30718,2.02115 17.01367,2.92383 8.7621,1.02633 26.1842,2.16209 33.28711,-1.02344 7.1029,-3.18554 6.68568,-3.37357 9.21875,-9.73047 1.65349,-4.14955 3.94916,-11.15839 3.51562,-17.81445 l -5.62304,-1.66797 c -3.54312,-1.05128 -6.64474,-3.0596 -9.125,-5.65429 -5.49231,-1.54937 -10.42818,-5.04301 -13.70508,-10.16211 -3.60446,-0.1094 -7.03636,-0.0634 -9.88672,-0.0371 -2.58301,0.0238 -5.07443,-0.0757 -7.45703,-0.11328 -0.68682,-0.0108 -1.36514,-0.0165 -2.03321,-0.0117 z"
         style="fill:#000000;fill-opacity:0.49019608;fill-rule:evenodd;stroke:none;stroke-width:4.30669641px;stroke-linecap:butt;stroke-linejoin:miter;stroke-opacity:1"
         inkscape:connector-curvature="0" /><path
         inkscape:connector-curvature="0"
         id="path155"
         d="m -796.79297,841.65625 c -2.17194,3.42043 -5.49061,8.84905 -8.81445,15.28711 -2.68741,5.20533 -5.28132,10.89433 -7.01563,16.31836 -1.73431,5.42403 -2.68599,10.57629 -1.69922,14.9707 3.53861,15.75858 16.93334,28.33799 30.74219,28.11524 7.01717,-0.11313 13.64528,-4.04546 18.6543,-9.23828 5.00902,-5.19283 8.51163,-11.69049 8.81055,-17.79493 0.2954,-6.03273 -2.37569,-11.80058 -6.20118,-16.17578 -3.82548,-4.37519 -8.8387,-7.49018 -13.92187,-7.80664 -5.09693,-0.31731 -9.69481,2.34201 -13.05664,5.80469 -3.36183,3.46268 -5.65638,7.75296 -5.88477,11.79492 -0.21746,3.84914 1.13565,7.63169 3.43555,10.45508 2.2999,2.82338 5.79346,4.77806 9.5957,4.09766 2.42491,-0.43395 3.95287,-2.34116 4.98242,-4.3418 1.02956,-2.00065 1.68427,-4.33011 2.16211,-6.5918 0.9557,-4.52337 1.14649,-8.83203 1.14649,-8.83203 l -4.30274,-0.19531 c 0,0 -0.19226,4.04753 -1.05664,8.13867 -0.43218,2.04557 -1.04703,4.08682 -1.77929,5.50977 -0.73226,1.42292 -1.45697,1.99116 -1.91016,2.07226 -1.95396,0.34966 -3.89457,-0.60772 -5.49805,-2.57617 -1.60348,-1.96845 -2.62364,-4.85615 -2.47461,-7.49414 0.13817,-2.44517 1.92287,-6.20558 4.67383,-9.03906 2.75097,-2.83349 6.2984,-4.71563 9.69922,-4.50391 3.41459,0.21258 7.71587,2.64382 10.94922,6.3418 3.23335,3.69797 5.3659,8.53031 5.14062,13.13086 -0.22176,4.52884 -3.17983,10.42354 -7.60937,15.01562 -4.42955,4.59209 -10.21769,7.83669 -15.62305,7.92383 -11.03622,0.17803 -23.34578,-10.82892 -26.47265,-24.75391 -0.6796,-3.02648 -0.0202,-7.65102 1.59961,-12.71679 1.61975,-5.06578 4.12237,-10.58172 6.74023,-15.65235 3.17913,-6.15776 6.36068,-11.38033 8.49023,-14.74414 -0.10241,-0.0514 -0.20674,-0.0943 -0.30859,-0.14844 -1.17931,-0.62648 -2.23829,-1.43277 -3.19336,-2.37109 z"
         style="color:#000000;font-style:normal;font-variant:normal;font-weight:normal;font-stretch:normal;font-size:medium;line-height:normal;font-family:sans-serif;font-variant-ligatures:normal;font-variant-position:normal;font-variant-caps:normal;font-variant-numeric:normal;font-variant-alternates:normal;font-feature-settings:normal;text-indent:0;text-align:start;text-decoration:none;text-decoration-line:none;text-decoration-style:solid;text-decoration-color:#000000;letter-spacing:normal;word-spacing:normal;text-transform:none;writing-mode:lr-tb;direction:ltr;text-orientation:mixed;dominant-baseline:auto;baseline-shift:baseline;text-anchor:start;white-space:normal;shape-padding:0;clip-rule:nonzero;display:inline;overflow:visible;visibility:visible;opacity:1;isolation:auto;mix-blend-mode:normal;color-interpolation:sRGB;color-interpolation-filters:linearRGB;solid-color:#000000;solid-opacity:1;vector-effect:none;fill:#000000;fill-opacity:0.49019608;fill-rule:evenodd;stroke:none;stroke-width:4.30669641px;stroke-linecap:butt;stroke-linejoin:miter;stroke-miterlimit:4;stroke-dasharray:none;stroke-dashoffset:0;stroke-opacity:1;color-rendering:auto;image-rendering:auto;shape-rendering:auto;text-rendering:auto;enable-background:accumulate" /><path
         id="path157"
         d="m -764.79492,780.63672 c -11.56142,-0.0404 -25.65274,11.44681 -30.69531,21.23633 -6.20625,12.04863 -5.00105,32.36828 5.89062,38.15429 10.89168,5.786 25.0452,-4.19813 32.00586,-15.10742 6.96065,-10.9093 12.28915,-34.78494 0.25586,-42.25 -2.25624,-1.3997 -4.78901,-2.02388 -7.45703,-2.0332 z m -7.83594,17.00586 c 1.10417,0.0206 2.17306,0.28106 3.17383,0.83789 6.40492,3.5637 4.23383,16.50322 0.51367,22.27734 -3.72017,5.77412 -12.00901,10.63556 -17.41211,7.42578 -5.40309,-3.20978 -4.8565,-12.68375 -1.79297,-18.69336 2.58485,-5.0706 9.55509,-11.95908 15.51758,-11.84765 z"
         style="fill:#000000;fill-opacity:0.49019608;fill-rule:evenodd;stroke:none;stroke-width:4.30669641px;stroke-linecap:butt;stroke-linejoin:miter;stroke-opacity:1"
         inkscape:connector-curvature="0" /><path
         inkscape:connector-curvature="0"
         id="path159"
         d="m -554.66602,622.11914 32.18946,60.18164 c 6.28815,11.75652 1.88542,26.28412 -9.8711,32.57227 l -147.53711,78.91211 c -4.62589,2.47423 -9.67911,3.28707 -14.49218,2.65429 2.71244,4.18941 6.80135,7.48669 11.73047,8.94922 l 166.88671,49.51758 c 10.21871,3.03201 19.9969,-2.9658 21.92383,-13.44922 L -462.23047,669.5 c 1.92694,-10.48342 -4.74809,-21.36252 -14.9668,-24.39453 z"
         style="fill:#000000;fill-opacity:0.49019608;stroke:none;stroke-width:10.19279575;stroke-miterlimit:4;stroke-dasharray:none;stroke-opacity:1" /><rect
         transform="rotate(-28.140776)"
         ry="24.065947"
         y="104.23512"
         x="-1006.6577"
         height="265.87119"
         width="215.44734"
         id="rect161"
         style="fill:#000000;fill-opacity:0.49019608;stroke:none;stroke-width:10.22188091;stroke-miterlimit:4;stroke-dasharray:none;stroke-opacity:1" /><path
         style="fill:#000000;fill-opacity:0.49019608;fill-rule:evenodd;stroke:none;stroke-width:4.30669641px;stroke-linecap:butt;stroke-linejoin:miter;stroke-opacity:1"
         d="m -764.79492,780.63672 c -11.56142,-0.0404 -25.65274,11.44681 -30.69531,21.23633 -6.20625,12.04863 -5.00105,32.36828 5.89062,38.15429 10.89168,5.786 25.0452,-4.19813 32.00586,-15.10742 6.96065,-10.9093 12.28915,-34.78494 0.25586,-42.25 -2.25624,-1.3997 -4.78901,-2.02388 -7.45703,-2.0332 z m -7.83594,17.00586 c 1.10417,0.0206 2.17306,0.28106 3.17383,0.83789 6.40492,3.5637 4.23383,16.50322 0.51367,22.27734 -3.72017,5.77412 -12.00901,10.63556 -17.41211,7.42578 -5.40309,-3.20978 -4.8565,-12.68375 -1.79297,-18.69336 2.58485,-5.0706 9.55509,-11.95908 15.51758,-11.84765 z"
         id="path163"
         inkscape:connector-curvature="0" /></g><g
       style="fill:#ffffff"
       transform="matrix(0.63791504,0,0,0.63791504,672.81059,-202.09414)"
       id="g139"><path
         style="fill:#ffffff;fill-opacity:1;fill-rule:evenodd;stroke:none;stroke-width:4.30669641px;stroke-linecap:butt;stroke-linejoin:miter;stroke-opacity:1"
         d="m -842.77148,756.82617 -1.0879,10.13867 11.76954,0.18164 38.02929,23.16016 c 1.00135,-1.10325 2.07324,-2.18239 3.21289,-3.22461 l -37.07812,-24.82422 z"
         id="path4185"
         inkscape:connector-curvature="0" /><path
         style="fill:#ffffff;fill-opacity:1;fill-rule:evenodd;stroke:none;stroke-width:4.30669641px;stroke-linecap:butt;stroke-linejoin:miter;stroke-opacity:1"
         d="m -822.68555,731.30273 -4.80468,8.99415 10.84375,4.57617 29.25,39.30859 c 1.13707,-0.86722 2.30815,-1.68822 3.50781,-2.44336 l -27.06641,-39.83789 z"
         id="path4185-3"
         inkscape:connector-curvature="0" /><path
         style="fill:#ffffff;fill-opacity:1;fill-rule:evenodd;stroke:none;stroke-width:4.30669641px;stroke-linecap:butt;stroke-linejoin:miter;stroke-opacity:1"
         d="m -689.4707,807.81641 c 1.66267,7.51449 -1.14281,16.22238 -3.06836,21.05468 -2.40521,6.03604 -2.22849,6.53728 -8.27735,9.29688 7.11218,11.31812 23.54276,18.15782 44.125,31.16015 22.13478,13.98312 66.65189,46.35916 88.59766,47.11524 21.94576,0.75609 24.23865,-2.16355 28.67773,-12.80274 4.43909,-10.63918 0.55518,-19.62838 -13.31445,-35.33593 -13.86963,-15.70756 -55.41804,-31.40769 -77.8418,-40.97071 -22.42377,-9.56302 -43.4508,-15.45466 -55.31054,-18.43554 -1.38991,-0.34935 -2.56277,-0.71567 -3.58789,-1.08203 z"
         id="path4175"
         inkscape:connector-curvature="0" /><path
         style="fill:#ffffff;fill-opacity:1;fill-rule:evenodd;stroke:none;stroke-width:4.30669641px;stroke-linecap:butt;stroke-linejoin:miter;stroke-opacity:1"
         d="m -748.29492,841.40234 c -0.29837,0.005 -0.56884,0.0144 -0.85742,0.0215 v 22.01367 l -22.06055,6.61133 -14.5957,58.125 20.99804,-52.23633 25.34961,-8.70508 -0.22656,-25.25781 c -1.20596,-0.11404 -2.35115,-0.23174 -3.35742,-0.34961 -1.92662,-0.22567 -3.65966,-0.24816 -5.25,-0.22266 z"
         id="path4177"
         inkscape:connector-curvature="0" /><path
         style="fill:#ffffff;fill-opacity:1;fill-rule:evenodd;stroke:none;stroke-width:4.30669641px;stroke-linecap:butt;stroke-linejoin:miter;stroke-opacity:1"
         d="m -735.35352,842.16992 11.91993,14.20508 -16.29493,26.43555 3.80274,67.53515 6.88086,-66.26758 16.65625,-25.3496 -12.42188,-16.05664 c -3.65867,-0.04 -7.28493,-0.23848 -10.54297,-0.50196 z"
         id="path4179"
         inkscape:connector-curvature="0" /><path
         style="fill:#ffffff;fill-opacity:1;fill-rule:evenodd;stroke:none;stroke-width:4.30669641px;stroke-linecap:butt;stroke-linejoin:miter;stroke-opacity:1"
         d="m -705.87109,841.33008 c -2.74121,0.77032 -6.31358,1.16057 -10.16797,1.29687 l 18.51562,22.98243 -2.89844,30.41796 30.05665,66.63086 -17.74415,-64.0957 3.25977,-36.21289 z"
         id="path4181"
         inkscape:connector-curvature="0" /><path
         inkscape:connector-curvature="0"
         style="fill:#ffffff;fill-opacity:1;fill-rule:evenodd;stroke:none;stroke-width:4.30669641px;stroke-linecap:butt;stroke-linejoin:miter;stroke-opacity:1"
         d="m -742.85352,789.41016 c -2.0042,0.0144 -3.92248,0.1178 -5.75195,0.41796 5.41174,10.13401 0.77696,28.05605 -4.98828,37.0918 -1.26878,1.98853 -2.78141,3.94411 -4.46484,5.78125 4.68387,4.37664 9.30718,2.02115 17.01367,2.92383 8.7621,1.02633 26.1842,2.16209 33.28711,-1.02344 7.1029,-3.18554 6.68568,-3.37357 9.21875,-9.73047 1.65349,-4.14955 3.94916,-11.15839 3.51562,-17.81445 l -5.62304,-1.66797 c -3.54312,-1.05128 -6.64474,-3.0596 -9.125,-5.65429 -5.49231,-1.54937 -10.42818,-5.04301 -13.70508,-10.16211 -3.60446,-0.1094 -7.03636,-0.0634 -9.88672,-0.0371 -2.58301,0.0238 -5.07443,-0.0757 -7.45703,-0.11328 -0.68682,-0.0108 -1.36514,-0.0165 -2.03321,-0.0117 z"
         id="path4173" /><path
         style="color:#000000;font-style:normal;font-variant:normal;font-weight:normal;font-stretch:normal;font-size:medium;line-height:normal;font-family:sans-serif;font-variant-ligatures:normal;font-variant-position:normal;font-variant-caps:normal;font-variant-numeric:normal;font-variant-alternates:normal;font-feature-settings:normal;text-indent:0;text-align:start;text-decoration:none;text-decoration-line:none;text-decoration-style:solid;text-decoration-color:#000000;letter-spacing:normal;word-spacing:normal;text-transform:none;writing-mode:lr-tb;direction:ltr;text-orientation:mixed;dominant-baseline:auto;baseline-shift:baseline;text-anchor:start;white-space:normal;shape-padding:0;clip-rule:nonzero;display:inline;overflow:visible;visibility:visible;opacity:1;isolation:auto;mix-blend-mode:normal;color-interpolation:sRGB;color-interpolation-filters:linearRGB;solid-color:#000000;solid-opacity:1;vector-effect:none;fill:#ffffff;fill-opacity:1;fill-rule:evenodd;stroke:none;stroke-width:4.30669641px;stroke-linecap:butt;stroke-linejoin:miter;stroke-miterlimit:4;stroke-dasharray:none;stroke-dashoffset:0;stroke-opacity:1;color-rendering:auto;image-rendering:auto;shape-rendering:auto;text-rendering:auto;enable-background:accumulate"
         d="m -796.79297,841.65625 c -2.17194,3.42043 -5.49061,8.84905 -8.81445,15.28711 -2.68741,5.20533 -5.28132,10.89433 -7.01563,16.31836 -1.73431,5.42403 -2.68599,10.57629 -1.69922,14.9707 3.53861,15.75858 16.93334,28.33799 30.74219,28.11524 7.01717,-0.11313 13.64528,-4.04546 18.6543,-9.23828 5.00902,-5.19283 8.51163,-11.69049 8.81055,-17.79493 0.2954,-6.03273 -2.37569,-11.80058 -6.20118,-16.17578 -3.82548,-4.37519 -8.8387,-7.49018 -13.92187,-7.80664 -5.09693,-0.31731 -9.69481,2.34201 -13.05664,5.80469 -3.36183,3.46268 -5.65638,7.75296 -5.88477,11.79492 -0.21746,3.84914 1.13565,7.63169 3.43555,10.45508 2.2999,2.82338 5.79346,4.77806 9.5957,4.09766 2.42491,-0.43395 3.95287,-2.34116 4.98242,-4.3418 1.02956,-2.00065 1.68427,-4.33011 2.16211,-6.5918 0.9557,-4.52337 1.14649,-8.83203 1.14649,-8.83203 l -4.30274,-0.19531 c 0,0 -0.19226,4.04753 -1.05664,8.13867 -0.43218,2.04557 -1.04703,4.08682 -1.77929,5.50977 -0.73226,1.42292 -1.45697,1.99116 -1.91016,2.07226 -1.95396,0.34966 -3.89457,-0.60772 -5.49805,-2.57617 -1.60348,-1.96845 -2.62364,-4.85615 -2.47461,-7.49414 0.13817,-2.44517 1.92287,-6.20558 4.67383,-9.03906 2.75097,-2.83349 6.2984,-4.71563 9.69922,-4.50391 3.41459,0.21258 7.71587,2.64382 10.94922,6.3418 3.23335,3.69797 5.3659,8.53031 5.14062,13.13086 -0.22176,4.52884 -3.17983,10.42354 -7.60937,15.01562 -4.42955,4.59209 -10.21769,7.83669 -15.62305,7.92383 -11.03622,0.17803 -23.34578,-10.82892 -26.47265,-24.75391 -0.6796,-3.02648 -0.0202,-7.65102 1.59961,-12.71679 1.61975,-5.06578 4.12237,-10.58172 6.74023,-15.65235 3.17913,-6.15776 6.36068,-11.38033 8.49023,-14.74414 -0.10241,-0.0514 -0.20674,-0.0943 -0.30859,-0.14844 -1.17931,-0.62648 -2.23829,-1.43277 -3.19336,-2.37109 z"
         id="path4202"
         inkscape:connector-curvature="0" /><path
         inkscape:connector-curvature="0"
         style="fill:#ffffff;fill-opacity:1;fill-rule:evenodd;stroke:none;stroke-width:4.30669641px;stroke-linecap:butt;stroke-linejoin:miter;stroke-opacity:1"
         d="m -764.79492,780.63672 c -11.56142,-0.0404 -25.65274,11.44681 -30.69531,21.23633 -6.20625,12.04863 -5.00105,32.36828 5.89062,38.15429 10.89168,5.786 25.0452,-4.19813 32.00586,-15.10742 6.96065,-10.9093 12.28915,-34.78494 0.25586,-42.25 -2.25624,-1.3997 -4.78901,-2.02388 -7.45703,-2.0332 z m -7.83594,17.00586 c 1.10417,0.0206 2.17306,0.28106 3.17383,0.83789 6.40492,3.5637 4.23383,16.50322 0.51367,22.27734 -3.72017,5.77412 -12.00901,10.63556 -17.41211,7.42578 -5.40309,-3.20978 -4.8565,-12.68375 -1.79297,-18.69336 2.58485,-5.0706 9.55509,-11.95908 15.51758,-11.84765 z"
         id="path4171" /><path
         style="fill:#ffffff;fill-opacity:1;stroke:none;stroke-width:10.19279575;stroke-miterlimit:4;stroke-dasharray:none;stroke-opacity:1"
         d="m -554.66602,622.11914 32.18946,60.18164 c 6.28815,11.75652 1.88542,26.28412 -9.8711,32.57227 l -147.53711,78.91211 c -4.62589,2.47423 -9.67911,3.28707 -14.49218,2.65429 2.71244,4.18941 6.80135,7.48669 11.73047,8.94922 l 166.88671,49.51758 c 10.21871,3.03201 19.9969,-2.9658 21.92383,-13.44922 L -462.23047,669.5 c 1.92694,-10.48342 -4.74809,-21.36252 -14.9668,-24.39453 z"
         id="rect4204-6"
         inkscape:connector-curvature="0" /><rect
         style="fill:#ffffff;fill-opacity:1;stroke:none;stroke-width:10.22188091;stroke-miterlimit:4;stroke-dasharray:none;stroke-opacity:1"
         id="rect4204"
         width="215.44734"
         height="265.87119"
         x="-1006.6577"
         y="104.23512"
         ry="24.065947"
         transform="rotate(-28.140776)" /><path
         inkscape:connector-curvature="0"
         id="path95"
         d="m -764.79492,780.63672 c -11.56142,-0.0404 -25.65274,11.44681 -30.69531,21.23633 -6.20625,12.04863 -5.00105,32.36828 5.89062,38.15429 10.89168,5.786 25.0452,-4.19813 32.00586,-15.10742 6.96065,-10.9093 12.28915,-34.78494 0.25586,-42.25 -2.25624,-1.3997 -4.78901,-2.02388 -7.45703,-2.0332 z m -7.83594,17.00586 c 1.10417,0.0206 2.17306,0.28106 3.17383,0.83789 6.40492,3.5637 4.23383,16.50322 0.51367,22.27734 -3.72017,5.77412 -12.00901,10.63556 -17.41211,7.42578 -5.40309,-3.20978 -4.8565,-12.68375 -1.79297,-18.69336 2.58485,-5.0706 9.55509,-11.95908 15.51758,-11.84765 z"
         style="fill:#ffffff;fill-opacity:1;fill-rule:evenodd;stroke:none;stroke-width:4.30669641px;stroke-linecap:butt;stroke-linejoin:miter;stroke-opacity:1" /></g></g></svg>