<?xml version="1.0" encoding="UTF-8" standalone="no"?>
<!-- Created with Inkscape (http://www.inkscape.org/) -->

<svg
   xmlns:dc="http://purl.org/dc/elements/1.1/"
   xmlns:cc="http://creativecommons.org/ns#"
   xmlns:rdf="http://www.w3.org/1999/02/22-rdf-syntax-ns#"
   xmlns:svg="http://www.w3.org/2000/svg"
   xmlns="http://www.w3.org/2000/svg"
   xmlns:sodipodi="http://sodipodi.sourceforge.net/DTD/sodipodi-0.dtd"
   xmlns:inkscape="http://www.inkscape.org/namespaces/inkscape"
   id="svg2"
   version="1.1"
   inkscape:version="0.92.3 (2405546, 2018-03-11)"
   width="512"
   height="512"
   sodipodi:docname="mono.svg"
   viewBox="0 0 512 512">
  <metadata
     id="metadata8">
    <rdf:RDF>
      <cc:Work
         rdf:about="">
        <dc:format>image/svg+xml</dc:format>
        <dc:type
           rdf:resource="http://purl.org/dc/dcmitype/StillImage" />
        <dc:title />
      </cc:Work>
    </rdf:RDF>
  </metadata>
  <defs
     id="defs6" />
  <sodipodi:namedview
     pagecolor="#ffffff"
     bordercolor="#666666"
     borderopacity="1"
     objecttolerance="10"
     gridtolerance="10"
     guidetolerance="10"
     inkscape:pageopacity="0"
     inkscape:pageshadow="2"
     inkscape:window-width="1366"
     inkscape:window-height="718"
     id="namedview4"
     showgrid="false"
     inkscape:zoom="0.57452426"
     inkscape:cx="199.10946"
     inkscape:cy="152.18275"
     inkscape:window-x="0"
     inkscape:window-y="25"
     inkscape:window-maximized="1"
     inkscape:current-layer="svg2"
     showguides="true"
     inkscape:guide-bbox="true"
     inkscape:document-units="px" />
  <path
     style="fill:#cccccc;fill-opacity:1;fill-rule:evenodd;stroke:none;stroke-width:1.02230215"
     d=""
     id="path3783"
     inkscape:connector-curvature="0" />
  <g
     id="g840">
    <path
       id="path901"
       d="M 432.91381,56.473974 C 535.10672,145.04856 538.74059,306.17368 441.03061,416.37276 343.32045,526.57184 181.27967,544.10061 79.086757,455.52602 -23.106193,366.95143 -26.740053,205.82631 70.969957,95.627234 168.67993,-14.57185 330.72064,-32.10062 432.91381,56.473974 Z"
       inkscape:connector-curvature="0"
       style="fill:#3689e6;fill-opacity:1;stroke-width:11.10955811" />
    <path
       id="path903"
       d="m 511.63554,224.90352 c -1.5514,61.31166 -25.16123,124.1546 -70.96638,175.81449 C 342.95919,510.9171 180.91872,528.44585 78.725812,439.87127 30.827158,398.35564 4.4968559,340.92283 0.193862,280.22879 0.79911356,346.58547 27.117445,410.48219 79.078716,455.51904 181.27163,544.09362 343.31978,526.5562 441.02206,416.36578 490.727,360.30764 514.02708,291.07481 511.63554,224.90352 Z"
       inkscape:connector-curvature="0"
       style="opacity:1;fill:#000000;fill-opacity:0.49019608;stroke-width:11.10955811" />
    <path
       style="fill:#000000;stroke-width:1.77820015;fill-opacity:0.49019608"
       d="m 144.55715,372.44975 c -17.44343,-42.19591 -24.53613,-73.18547 -24.55712,-107.29578 -0.0196,-32.63726 10.17842,-58.16292 31.92856,-79.91299 13.42447,-13.42447 34.09068,-24.93771 51.11325,-28.4754 48.4049,-10.05974 104.78947,25.16887 114.64444,71.62887 1.99435,9.4022 2.65768,10.36554 8.45479,12.27875 9.89934,3.26709 25.60643,20.17719 29.51097,31.77125 4.99751,14.83952 4.60307,32.70282 -0.94008,42.57315 -5.74202,10.22446 -19.58908,17.94396 -31.76611,17.70908 l -8.24339,-0.15897 8.01201,-2.21324 c 10.80838,-2.9857 14.77973,-5.29278 20.20062,-11.73514 12.27321,-14.58587 10.38146,-42.00232 -3.96538,-57.46903 -4.26233,-4.59503 -17.78442,-12.88797 -18.78317,-11.5195 -0.22825,0.31273 -1.41128,5.18271 -2.62899,10.8222 -3.1833,14.74266 -13.13272,33.4755 -22.23652,41.8671 -10.26688,9.46367 -19.30882,13.90648 -33.69826,16.55785 -6.49255,1.1963 -11.80462,2.925 -11.80462,3.84155 0,4.67652 12.20372,23.56229 19.84306,30.70801 17.22863,16.11536 48.46175,26.08537 70.35362,22.45777 40.47941,-6.70767 68.06313,-39.37381 68.06313,-80.60407 0,-29.35749 -7.94197,-53.54181 -32.15501,-97.91607 -7.95423,-14.57738 -14.17578,-26.71091 -13.82567,-26.96338 1.64982,-1.18971 32.8207,-13.60734 34.09921,-13.58421 2.34431,0.0423 17.14656,33.14414 23.46406,52.47184 11.72531,35.87231 15.89375,85.70374 9.07455,108.48159 -14.7525,49.2772 -61.42239,83.54225 -105.44673,77.41903 -25.61322,-3.56248 -54.38243,-19.79883 -70.05789,-39.53826 -7.74781,-9.75649 -17.63407,-28.61119 -17.63653,-33.63571 -8.7e-4,-1.76175 -4.48853,-5.07676 -11.6362,-8.59553 -20.77037,-10.22522 -33.06757,-31.25976 -33.48881,-57.28306 -0.20198,-12.47872 0.23282,-14.26764 5.18018,-21.31211 9.14093,-13.01567 24.18182,-20.58608 36.14624,-18.19319 7.53747,1.50749 7.02196,3.54107 -1.23225,4.86098 -8.66684,1.38587 -19.93533,9.5191 -25.37049,18.31157 -8.07248,13.05885 -4.18322,34.15847 9.08105,49.26564 6.01825,6.85441 18.74534,14.59982 20.11097,12.23906 0.4201,-0.72623 1.30207,-5.76659 1.95991,-11.20083 3.5025,-28.93284 24.91808,-50.01319 53.52212,-52.68428 6.3356,-0.59162 11.51928,-1.73015 11.51928,-2.53004 0,-6.16836 -8.747,-22.65265 -16.57389,-31.23455 -19.14325,-20.98987 -40.59156,-30.1335 -67.3194,-28.69889 -19.73159,1.05908 -35.29453,8.30959 -50.56012,23.55507 -18.46269,18.43839 -24.93218,36.50949 -23.27703,65.02 1.59708,27.51192 15.82294,67.95497 36.46319,103.66208 l 9.04126,15.64115 -4.69139,1.78368 c -2.58028,0.98102 -10.07128,4.14491 -16.64671,7.03088 -6.57543,2.88596 -12.22129,5.24683 -12.54636,5.24633 -0.32509,-4.8e-4 -5.1393,-11.00309 -10.69835,-24.45025 z m 129.60343,-71.30007 c 15.29851,-7.80473 25.90154,-25.00643 28.37242,-46.02967 0.98093,-8.34617 0.73527,-9.38575 -2.25587,-9.5463 -29.17045,-1.56565 -51.49675,18.78 -53.66756,48.90651 l -0.88437,12.27325 10.61164,-0.96224 c 5.83643,-0.52923 13.85709,-2.61792 17.82374,-4.64155 z"
       id="path834"
       inkscape:connector-curvature="0" />
    <path
       inkscape:connector-curvature="0"
       id="path828"
       d="m 124.55715,352.44975 c -17.44343,-42.19591 -24.53613,-73.18547 -24.55712,-107.29578 -0.0196,-32.63726 10.17842,-58.16292 31.92856,-79.91299 13.42447,-13.42447 34.09068,-24.93771 51.11325,-28.4754 48.4049,-10.05974 104.78947,25.16887 114.64444,71.62887 1.99435,9.4022 2.65768,10.36554 8.45479,12.27875 9.89934,3.26709 25.60643,20.17719 29.51097,31.77125 4.99751,14.83952 4.60307,32.70282 -0.94008,42.57315 -5.74202,10.22446 -19.58908,17.94396 -31.76611,17.70908 l -8.24339,-0.15897 8.01201,-2.21324 c 10.80838,-2.9857 14.77973,-5.29278 20.20062,-11.73514 12.27321,-14.58587 10.38146,-42.00232 -3.96538,-57.46903 -4.26233,-4.59503 -17.78442,-12.88797 -18.78317,-11.5195 -0.22825,0.31273 -1.41128,5.18271 -2.62899,10.8222 -3.1833,14.74266 -13.13272,33.4755 -22.23652,41.8671 -10.26688,9.46367 -19.30882,13.90648 -33.69826,16.55785 -6.49255,1.1963 -11.80462,2.925 -11.80462,3.84155 0,4.67652 12.20372,23.56229 19.84306,30.70801 17.22863,16.11536 48.46175,26.08537 70.35362,22.45777 40.47941,-6.70767 68.06313,-39.37381 68.06313,-80.60407 0,-29.35749 -7.94197,-53.54181 -32.15501,-97.91607 -7.95423,-14.57738 -14.17578,-26.71091 -13.82567,-26.96338 1.64982,-1.18971 32.8207,-13.60734 34.09921,-13.58421 2.34431,0.0423 17.14656,33.14414 23.46406,52.47184 11.72531,35.87231 15.89375,85.70374 9.07455,108.48159 -14.7525,49.2772 -61.42239,83.54225 -105.44673,77.41903 -25.61322,-3.56248 -54.38243,-19.79883 -70.05789,-39.53826 -7.74781,-9.75649 -17.63407,-28.61119 -17.63653,-33.63571 -8.7e-4,-1.76175 -4.48853,-5.07676 -11.6362,-8.59553 -20.77037,-10.22522 -33.06757,-31.25976 -33.48881,-57.28306 -0.20198,-12.47872 0.23282,-14.26764 5.18018,-21.31211 9.14093,-13.01567 24.18182,-20.58608 36.14624,-18.19319 7.53747,1.50749 7.02196,3.54107 -1.23225,4.86098 -8.66684,1.38587 -19.93533,9.5191 -25.37049,18.31157 -8.07248,13.05885 -4.18322,34.15847 9.08105,49.26564 6.01825,6.85441 18.74534,14.59982 20.11097,12.23906 0.4201,-0.72623 1.30207,-5.76659 1.95991,-11.20083 3.5025,-28.93284 24.91808,-50.01319 53.52212,-52.68428 6.3356,-0.59162 11.51928,-1.73015 11.51928,-2.53004 0,-6.16836 -8.747,-22.65265 -16.57389,-31.23455 -19.14325,-20.98987 -40.59156,-30.1335 -67.3194,-28.69889 -19.73159,1.05908 -35.29453,8.30959 -50.56012,23.55507 -18.46269,18.43839 -24.93218,36.50949 -23.27703,65.02 1.59708,27.51192 15.82294,67.95497 36.46319,103.66208 l 9.04126,15.64115 -4.69139,1.78368 c -2.58028,0.98102 -10.07128,4.14491 -16.64671,7.03088 -6.57543,2.88596 -12.22129,5.24683 -12.54636,5.24633 -0.32509,-4.8e-4 -5.1393,-11.00309 -10.69835,-24.45025 z m 129.60343,-71.30007 c 15.29851,-7.80473 25.90154,-25.00643 28.37242,-46.02967 0.98093,-8.34617 0.73527,-9.38575 -2.25587,-9.5463 -29.17045,-1.56565 -51.49675,18.78 -53.66756,48.90651 l -0.88437,12.27325 10.61164,-0.96224 c 5.83643,-0.52923 13.85709,-2.61792 17.82374,-4.64155 z"
       style="fill:#ffffff;stroke-width:1.77820015" />
  </g>
</svg>
