<?xml version="1.0" encoding="UTF-8" standalone="no"?>
<!-- Created with Inkscape (http://www.inkscape.org/) -->

<svg
   xmlns:dc="http://purl.org/dc/elements/1.1/"
   xmlns:cc="http://creativecommons.org/ns#"
   xmlns:rdf="http://www.w3.org/1999/02/22-rdf-syntax-ns#"
   xmlns:svg="http://www.w3.org/2000/svg"
   xmlns="http://www.w3.org/2000/svg"
   xmlns:sodipodi="http://sodipodi.sourceforge.net/DTD/sodipodi-0.dtd"
   xmlns:inkscape="http://www.inkscape.org/namespaces/inkscape"
   id="svg2"
   version="1.1"
   inkscape:version="0.92.2 2405546, 2018-03-11"
   width="512"
   height="512"
   sodipodi:docname="multiget.svg">
  <metadata
     id="metadata8">
    <rdf:RDF>
      <cc:Work
         rdf:about="">
        <dc:format>image/svg+xml</dc:format>
        <dc:type
           rdf:resource="http://purl.org/dc/dcmitype/StillImage" />
        <dc:title></dc:title>
      </cc:Work>
    </rdf:RDF>
  </metadata>
  <defs
     id="defs6" />
  <sodipodi:namedview
     pagecolor="#ffffff"
     bordercolor="#666666"
     borderopacity="1"
     objecttolerance="10"
     gridtolerance="10"
     guidetolerance="10"
     inkscape:pageopacity="0"
     inkscape:pageshadow="2"
     inkscape:window-width="839"
     inkscape:window-height="605"
     id="namedview4"
     showgrid="true"
     inkscape:zoom="0.65186406"
     inkscape:cx="403.7793"
     inkscape:cy="285.36268"
     inkscape:window-x="28"
     inkscape:window-y="64"
     inkscape:window-maximized="0"
     inkscape:current-layer="svg2">
    <inkscape:grid
       type="xygrid"
       id="grid4134"
       enabled="false" />
  </sodipodi:namedview>
  <g
     transform="translate(-4.1235327e-7,-4.1554e-6)"
     id="g885">
    <path
       id="path943"
       d="m 432.91326,56.474 c 102.19291,88.57459 105.82678,249.69971 8.1168,359.89879 C 343.32009,526.57182 181.27965,544.10062 79.086738,455.52604 -23.106202,366.95146 -26.740032,205.82634 70.969938,95.62726 168.67991,-14.57182 330.72036,-32.10059 432.91326,56.474 Z"
       inkscape:connector-curvature="0"
       style="fill:#3689e6;fill-opacity:1;stroke-width:11.10955811" />
    <path
       id="path947"
       d="m 511.6355,224.90355 c -1.55139,61.31164 -25.16123,124.1546 -70.96638,175.81447 C 342.95915,510.91712 180.9187,528.44582 78.725758,439.87132 30.827128,398.35567 4.4968168,340.92287 0.19382677,280.22884 0.79907677,346.58551 27.117408,410.48221 79.078688,455.51914 181.2716,544.09362 343.31975,526.55622 441.02201,416.3658 490.72696,360.30769 514.02703,291.07483 511.6355,224.90355 Z"
       inkscape:connector-curvature="0"
       style="opacity:1;fill:#000000;fill-opacity:0.49019608;stroke-width:11.10955811" />
    <path
       style="fill:#000000;fill-opacity:0.49019608;stroke-width:0.19796921"
       d="M 152.74442,431.81378 C 137.17365,430.42299 124.11839,418.8521 120.82269,403.52153 120.04192,399.8896 120,398.32571 120,372.81534 v -24.72518 h 11.97201 11.97205 l 0.0548,25.09259 0.0543,25.09257 0.46193,1.28683 c 0.73644,2.05152 1.57746,3.35844 3.18493,4.94924 1.57469,1.55838 3.01155,2.40348 5.27283,3.10132 1.13591,0.35036 5.40167,0.36321 122.92778,0.36321 115.64691,0 121.81487,-0.019 123.01372,-0.34885 4.11523,-1.13699 7.43827,-4.4223 8.67662,-8.57814 0.32315,-1.08465 0.35263,-2.97656 0.40739,-26.06419 l 0.059,-24.89461 H 420.02871 432 l -0.002,24.30069 c -0.002,14.77804 -0.0806,25.18907 -0.2022,26.56769 -0.4263,4.81625 -1.55653,8.77654 -3.76003,13.17462 -1.87974,3.75194 -3.53324,6.01586 -6.72463,9.20726 -3.19139,3.19138 -5.45533,4.84489 -9.20722,6.72463 -4.44423,2.22659 -8.45918,3.36283 -13.29987,3.76392 -2.86983,0.23773 -243.39387,0.22299 -246.05979,-0.0151 z m 120.17384,-64.2776 c -2.94893,-0.9981 -6.35754,-3.39264 -11.46926,-8.05726 -4.16239,-3.79826 -93.32137,-93.0599 -95.11925,-95.22873 -4.58476,-5.5307 -5.47368,-8.56421 -3.0094,-10.26946 0.95829,-0.66312 2.10446,-1.05324 4.28333,-1.45792 1.59696,-0.29669 4.29923,-0.3394 25.10051,-0.39771 l 23.31088,-0.0653 v -49.17752 c 0,-53.41212 -0.0431,-51.18893 1.07977,-55.61574 3.74207,-14.75169 16.20504,-25.494 31.35866,-27.02916 2.79533,-0.28308 52.28741,-0.28384 55.09246,-7.6e-4 17.13025,1.72894 30.48479,15.16559 32.23118,32.4295 0.13832,1.36837 0.2075,18.23876 0.2075,50.72961 v 48.67942 h 22.18046 c 13.96979,0 22.89214,0.076 24.10291,0.20562 3.86369,0.41322 6.25299,1.28081 7.20487,2.61623 0.75356,1.05717 0.64777,2.65619 -0.30312,4.57986 -1.35601,2.74371 -3.45229,5.23283 -10.02185,11.90001 -15.78109,16.01569 -84.0002,84.42698 -86.91392,87.15875 -5.9922,5.61815 -9.68645,8.23037 -13.05356,9.23028 -1.73963,0.51661 -4.339,0.42129 -6.2622,-0.22943 z"
       id="path74"
       inkscape:connector-curvature="0" />
    <path
       inkscape:connector-curvature="0"
       id="path899"
       d="M 132.74442,411.81378 C 117.17365,410.42299 104.11839,398.8521 100.82269,383.52153 100.04192,379.8896 100,378.32571 100,352.81534 v -24.72518 h 11.97201 11.97205 l 0.0548,25.09259 0.0543,25.09257 0.46193,1.28683 c 0.73644,2.05152 1.57746,3.35844 3.18493,4.94924 1.57469,1.55838 3.01155,2.40348 5.27283,3.10132 1.13591,0.35036 5.40167,0.36321 122.92778,0.36321 115.64691,0 121.81487,-0.019 123.01372,-0.34885 4.11523,-1.13699 7.43827,-4.4223 8.67662,-8.57814 0.32315,-1.08465 0.35263,-2.97656 0.40739,-26.06419 l 0.059,-24.89461 H 400.02871 412 l -0.002,24.30069 c -0.002,14.77804 -0.0806,25.18907 -0.2022,26.56769 -0.4263,4.81625 -1.55653,8.77654 -3.76003,13.17462 -1.87974,3.75194 -3.53324,6.01586 -6.72463,9.20726 -3.19139,3.19138 -5.45533,4.84489 -9.20722,6.72463 -4.44423,2.22659 -8.45918,3.36283 -13.29987,3.76392 -2.86983,0.23773 -243.39387,0.22299 -246.05979,-0.0151 z m 120.17384,-64.2776 c -2.94893,-0.9981 -6.35754,-3.39264 -11.46926,-8.05726 -4.16239,-3.79826 -93.32137,-93.0599 -95.11925,-95.22873 -4.58476,-5.5307 -5.47368,-8.56421 -3.0094,-10.26946 0.95829,-0.66312 2.10446,-1.05324 4.28333,-1.45792 1.59696,-0.29669 4.29923,-0.3394 25.10051,-0.39771 l 23.31088,-0.0653 v -49.17752 c 0,-53.41212 -0.0431,-51.18893 1.07977,-55.61574 3.74207,-14.75169 16.20504,-25.494 31.35866,-27.02916 2.79533,-0.283084 52.28741,-0.283844 55.09246,-7.6e-4 17.13025,1.72894 30.48479,15.16559 32.23118,32.4295 0.13832,1.36837 0.2075,18.23876 0.2075,50.72961 v 48.67942 h 22.18046 c 13.96979,0 22.89214,0.076 24.10291,0.20562 3.86369,0.41322 6.25299,1.28081 7.20487,2.61623 0.75356,1.05717 0.64777,2.65619 -0.30312,4.57986 -1.35601,2.74371 -3.45229,5.23283 -10.02185,11.90001 -15.78109,16.01569 -84.0002,84.42698 -86.91392,87.15875 -5.9922,5.61815 -9.68645,8.23037 -13.05356,9.23028 -1.73963,0.51661 -4.339,0.42129 -6.2622,-0.22943 z"
       style="fill:#ffffff;stroke-width:0.19796921" />
  </g>
</svg>
