<?xml version="1.0" encoding="UTF-8" standalone="no"?>
<!-- Created with Inkscape (http://www.inkscape.org/) -->

<svg
   xmlns:dc="http://purl.org/dc/elements/1.1/"
   xmlns:cc="http://creativecommons.org/ns#"
   xmlns:rdf="http://www.w3.org/1999/02/22-rdf-syntax-ns#"
   xmlns:svg="http://www.w3.org/2000/svg"
   xmlns="http://www.w3.org/2000/svg"
   xmlns:sodipodi="http://sodipodi.sourceforge.net/DTD/sodipodi-0.dtd"
   xmlns:inkscape="http://www.inkscape.org/namespaces/inkscape"
   version="1.1"
   width="512"
   height="512"
   viewBox="0 0 512 512"
   id="svg2"
   inkscape:version="0.92.3 (2405546, 2018-03-11)"
   sodipodi:docname="nero.svg">
  <sodipodi:namedview
     pagecolor="#ffffff"
     bordercolor="#666666"
     borderopacity="1"
     objecttolerance="10"
     gridtolerance="10"
     guidetolerance="10"
     inkscape:pageopacity="0"
     inkscape:pageshadow="2"
     inkscape:window-width="1366"
     inkscape:window-height="718"
     id="namedview140"
     showgrid="false"
     inkscape:zoom="0.4609375"
     inkscape:cx="578.16949"
     inkscape:cy="247.32203"
     inkscape:window-x="0"
     inkscape:window-y="25"
     inkscape:window-maximized="1"
     inkscape:current-layer="svg2"
     units="px" />
  <metadata
     id="metadata70">
    <rdf:RDF>
      <cc:Work
         rdf:about="">
        <dc:format>image/svg+xml</dc:format>
        <dc:type
           rdf:resource="http://purl.org/dc/dcmitype/StillImage" />
        <dc:title></dc:title>
      </cc:Work>
    </rdf:RDF>
  </metadata>
  <defs
     id="defs68">
    <style
       type="text/css"
       id="style2464-7" />
    <style
       type="text/css"
       id="style2464" />
    <clipPath
       id="clipPath3645">
      <path
         d="m 471.9456,253.05189 c 0,120.89699 -98.00565,218.90724 -218.90724,218.90724 -120.89698,0 -218.90723,-98.00566 -218.90723,-218.90724 0,-120.89698 98.00565,-218.907232 218.90723,-218.907232 120.89699,0 218.90724,98.005652 218.90724,218.907232"
         inkscape:connector-curvature="0"
         id="path3647"
         style="fill:#f55124;fill-opacity:1;fill-rule:evenodd" />
    </clipPath>
  </defs>
  <text
     x="729.64001"
     y="742.35999"
     id="text20"
     style="font-size:129.22999573px;line-height:0%;font-family:'Gentium Book Basic';letter-spacing:0;word-spacing:0">
    <tspan
       x="729.64001"
       y="742.35999"
       id="tspan22" />
  </text>
  <text
     x="378.90805"
     y="2629.8093"
     transform="scale(4.0128205,0.24920128)"
     id="text24"
     style="font-size:46.95375824px;font-family:Arial;text-anchor:middle" />
  <text
     x="1310.91"
     y="662.35999"
     id="text26"
     style="font-size:129.22999573px;line-height:0%;font-family:'Gentium Book Basic';letter-spacing:0;word-spacing:0">
    <tspan
       x="1310.91"
       y="662.35999"
       id="tspan28" />
  </text>
  <text
     x="523.75732"
     y="2308.7712"
     transform="scale(4.0128205,0.24920128)"
     id="text30"
     style="font-size:46.95375824px;font-family:Arial;text-anchor:middle" />
  <text
     x="239.33"
     y="481.09998"
     id="text32"
     style="font-size:129.22999573px;line-height:0%;font-family:'Gentium Book Basic';letter-spacing:0;word-spacing:0">
    <tspan
       x="239.33"
       y="481.09998"
       id="tspan34" />
  </text>
  <text
     x="256.71869"
     y="1581.4249"
     transform="scale(4.0128205,0.24920128)"
     id="text36"
     style="font-size:46.95375824px;font-family:Arial;text-anchor:middle" />
  <text
     x="1337.38"
     y="264.63"
     id="text38"
     style="font-size:129.22999573px;line-height:0%;font-family:'Gentium Book Basic';letter-spacing:0;word-spacing:0">
    <tspan
       x="1337.38"
       y="264.63"
       id="tspan40" />
  </text>
  <text
     x="530.3573"
     y="712.74927"
     transform="scale(4.0128205,0.24920128)"
     id="text42"
     style="font-size:46.95375824px;font-family:Arial;text-anchor:middle" />
  <text
     x="1918.65"
     y="184.63"
     id="text44"
     style="font-size:129.22999573px;line-height:0%;font-family:'Gentium Book Basic';letter-spacing:0;word-spacing:0">
    <tspan
       x="1918.65"
       y="184.63"
       id="tspan46" />
  </text>
  <text
     x="675.20654"
     y="391.72095"
     transform="scale(4.0128205,0.24920128)"
     id="text48"
     style="font-size:46.95375824px;font-family:Arial;text-anchor:middle" />
  <text
     x="1529.53"
     y="-287.77002"
     id="text50"
     style="font-size:129.22999573px;line-height:0%;font-family:'Gentium Book Basic';letter-spacing:0;word-spacing:0">
    <tspan
       x="1529.53"
       y="-287.77002"
       id="tspan52" />
  </text>
  <text
     x="578.237"
     y="-1503.9294"
     transform="scale(4.0128205,0.24920128)"
     id="text54"
     style="font-size:46.95375824px;font-family:Arial;text-anchor:middle" />
  <text
     x="2110.79"
     y="-367.78003"
     id="text56"
     style="font-size:129.22999573px;line-height:0%;font-family:'Gentium Book Basic';letter-spacing:0;word-spacing:0">
    <tspan
       x="2110.79"
       y="-367.78003"
       id="tspan58" />
  </text>
  <text
     x="723.0863"
     y="-1824.9678"
     transform="scale(4.0128205,0.24920128)"
     id="text60"
     style="font-size:46.95375824px;font-family:Arial;text-anchor:middle" />
  <text
     x="277.98999"
     y="1046.9401"
     id="text62"
     style="font-size:208.33000183px;line-height:0%;font-family:'Gentium Book Basic';letter-spacing:0;word-spacing:0">
    <tspan
       x="277.98999"
       y="1046.9401"
       id="tspan64" />
  </text>
  <g
     id="g867">
    <path
       style="fill:#f37329;fill-opacity:1;stroke-width:11.10955811"
       inkscape:connector-curvature="0"
       d="m 432.91326,56.473979 c 102.1929,88.574591 105.8268,249.699711 8.1168,359.898791 C 343.3201,526.57182 181.27964,544.10062 79.08673,455.52603 -23.10619,366.95144 -26.74004,205.82632 70.96993,95.627239 168.6799,-14.571841 330.72036,-32.100611 432.91326,56.473979 Z"
       id="path27" />
    <path
       style="opacity:1;fill:#000000;fill-opacity:0.49019608;stroke-width:11.10955811"
       inkscape:connector-curvature="0"
       d="m 511.63556,224.90353 c -1.5514,61.31165 -25.1613,124.15461 -70.9664,175.81447 C 342.95915,510.91712 180.91869,528.44582 78.72578,439.8713 30.82712,398.35565 4.4968203,340.92285 0.19383031,280.22882 0.79908031,346.58549 27.11741,410.48218 79.07869,455.51908 c 102.1929,88.57454 264.24106,71.03714 361.94337,-39.1533 49.7049,-56.05811 73.005,-125.29097 70.6135,-191.46225 z"
       id="path51" />
    <path
       d="m 243.15847,314.35216 c -10.60896,-0.71909 -19.21036,-3.71956 -26.20182,-9.13945 -3.08316,-2.39007 -6.49866,-6.27365 -8.48796,-9.65119 -0.46576,-0.79033 -1.0946,-1.5476 -1.18151,-1.68281 v 18.84725 h -29.79933 l -0.0743,-21.75627 c -0.0765,-22.54444 -0.10845,-23.63532 -0.78036,-26.34511 -1.20069,-4.94216 -5.6001,-6.85954 -10.2368,-6.86199 -5.39833,-0.1419 -9.45151,2.05317 -11.83052,7.06129 -0.98746,2.72041 -0.92908,1.20944 -0.98888,25.57226 l -0.0521,22.32982 h -29.94302 c -0.4368,-20.50099 0.45537,-41.04714 -0.36326,-61.54034 -0.3432,-3.32152 -1.00976,-6.05189 -2.43404,-9.96972 L 120,239.05783 l 29.11968,0.11885 0.74138,1.52345 c 0.43458,0.89269 0.85465,2.07243 1.01534,2.84946 0.1508,0.72948 0.32611,1.32599 0.38925,1.32599 0.0668,0 1.06043,-0.63366 2.2161,-1.40875 4.50839,-3.02283 9.04748,-4.72672 14.88447,-5.5874 3.08813,-0.45537 10.81607,-0.40708 13.98889,0.0869 7.25258,1.12952 13.01217,3.6022 17.47146,7.50077 3.28344,2.87063 5.64111,7.28483 6.66521,12.47934 l 0.36326,1.84413 0.76782,-1.45362 c 1.49277,-2.82626 3.25229,-5.22933 5.6437,-7.70796 7.18299,-7.4452 17.00719,-11.78868 29.75082,-13.15339 3.03227,-0.32463 10.7556,-0.28005 13.84864,0.0802 6.47422,0.75429 11.75102,2.2753 16.58278,4.77991 3.81711,1.97861 6.67109,4.09329 9.65165,7.15127 2.78972,2.8623 5.27637,6.43031 6.87811,9.86922 l 0.54526,1.17074 0.008,-3.44174 c 0.0149,-7.2132 -0.36622,-11.22009 -1.47599,-15.40557 l -0.67971,-2.70415 29.43117,0.24588 0.38183,1.2292 c 0.60023,1.93322 1.03473,4.33866 1.16376,6.43931 l 0.11886,1.9324 1.06102,-1.43788 c 3.51297,-4.76074 7.80839,-7.71249 13.19737,-9.06894 2.62005,-0.65966 4.97848,-0.87211 8.56514,-0.77228 2.97618,0.0825 4.92299,0.34989 8.3974,1.15024 l 0.90138,0.208 c -0.002,2.91765 -0.002,5.84569 0,8.76059 0.0372,0 0.79456,-0.40784 1.48966,-0.90673 11.17976,-8.02115 27.15363,-11.29663 42.35063,-8.6843 8.36821,1.43855 16.22815,4.68758 22.20704,9.1797 10.34086,7.76954 15.44176,19.5182 14.16604,32.62806 -0.87656,9.00773 -5.0633,17.00607 -12.02104,22.96475 -9.17436,7.85698 -22.31171,12.02677 -36.64372,11.63068 -9.3704,-0.25925 -17.29155,-2.2016 -24.57437,-6.0268 -5.98037,-3.09147 -11.04383,-7.61057 -14.85996,-13.13274 -6.69113,-10.08353 -7.58205,-23.63539 -2.29662,-34.93417 0.41749,-0.89202 0.75868,-1.64186 0.75868,-1.66623 -2.9842,-1.0212 -6.17543,-0.99609 -9.22636,-0.34023 -1.86419,0.56309 -3.04221,1.16673 -4.66617,2.39044 -3.90795,2.94476 -6.17983,7.24427 -7.1491,13.52965 -0.5044,3.27021 -0.58835,6.46895 -0.58984,22.41184 v 16.02016 H 290.6275 v -17.91184 l -0.87279,1.47449 c -1.33646,2.25807 -2.86898,4.21244 -4.8573,6.19484 -7.09414,7.07259 -17.18689,10.98321 -30.65326,11.87709 -2.80643,0.18645 -8.27311,0.18199 -11.08297,-0.008 z m 22.00542,-24.70134 25.54283,0.45835 v -8.35833 h -28.94549 -28.94556 l 0.11737,1.10618 c 0.0668,0.60841 0.28674,1.77581 0.494,2.59406 1.42116,5.61549 5.68405,9.09124 12.45556,10.15568 7.65581,0.71833 14.02284,0.35582 19.28084,-5.95608 z m 127.82218,4.30806 c 4.9238,-3.06696 7.93742,-8.85174 8.50467,-16.32531 0.41153,-5.41804 -0.97538,-11.16664 -3.65196,-15.13957 -0.87494,-1.29882 -2.75845,-3.24511 -3.88195,-4.01129 -3.97302,-2.7534 -8.86629,-3.08078 -13.48746,-2.08475 -7.13424,2.20123 -11.49125,8.89504 -11.86185,18.22383 -0.27264,6.85189 1.62573,12.66772 5.41727,16.59944 2.37016,2.45788 4.50655,3.65159 7.8228,4.37104 3.80225,0.60468 7.70789,0.15154 11.13848,-1.63339 z M 262.76855,265.49379 c 0.25554,-0.25628 -0.69308,-3.49997 -1.44106,-4.92566 -0.77429,-1.47606 -2.70995,-3.21895 -4.57534,-4.11966 -5.46244,-2.63752 -13.6774,-2.13601 -18.23044,1.11302 -2.33562,1.6666 -4.15168,4.31006 -5.11412,7.44403 l -0.21767,0.70868 14.73233,-0.052 c 8.10272,-0.0297 14.78361,-0.10475 14.8463,-0.16715 z"
       inkscape:connector-curvature="0"
       id="path861"
       style="fill:#000000;fill-opacity:0.49019608;stroke-width:0.80096465" />
    <path
       style="fill:#ffffff;fill-opacity:1;stroke-width:0.80096465"
       id="path2384"
       inkscape:connector-curvature="0"
       d="m 223.15847,294.35216 c -10.60896,-0.71909 -19.21036,-3.71956 -26.20182,-9.13945 -3.08316,-2.39007 -6.49866,-6.27365 -8.48796,-9.65119 -0.46576,-0.79033 -1.0946,-1.5476 -1.18151,-1.68281 v 18.84725 h -29.79933 l -0.0743,-21.75627 c -0.0765,-22.54444 -0.10845,-23.63532 -0.78036,-26.34511 -1.20069,-4.94216 -5.6001,-6.85954 -10.2368,-6.86199 -5.39833,-0.1419 -9.45151,2.05317 -11.83052,7.06129 -0.98746,2.72041 -0.92908,1.20944 -0.98888,25.57226 l -0.0521,22.32982 h -29.94302 c -0.4368,-20.50099 0.45537,-41.04714 -0.36326,-61.54034 -0.3432,-3.32152 -1.00976,-6.05189 -2.43404,-9.96972 L 100,219.05783 l 29.11968,0.11885 0.74138,1.52345 c 0.43458,0.89269 0.85465,2.07243 1.01534,2.84946 0.1508,0.72948 0.32611,1.32599 0.38925,1.32599 0.0668,0 1.06043,-0.63366 2.2161,-1.40875 4.50839,-3.02283 9.04748,-4.72672 14.88447,-5.5874 3.08813,-0.45537 10.81607,-0.40708 13.98889,0.0869 7.25258,1.12952 13.01217,3.6022 17.47146,7.50077 3.28344,2.87063 5.64111,7.28483 6.66521,12.47934 l 0.36326,1.84413 0.76782,-1.45362 c 1.49277,-2.82626 3.25229,-5.22933 5.6437,-7.70796 7.18299,-7.4452 17.00719,-11.78868 29.75082,-13.15339 3.03227,-0.32463 10.7556,-0.28005 13.84864,0.0802 6.47422,0.75429 11.75102,2.2753 16.58278,4.77991 3.81711,1.97861 6.67109,4.09329 9.65165,7.15127 2.78972,2.8623 5.27637,6.43031 6.87811,9.86922 l 0.54526,1.17074 0.008,-3.44174 c 0.0149,-7.2132 -0.36622,-11.22009 -1.47599,-15.40557 l -0.67971,-2.70415 29.43117,0.24588 0.38183,1.2292 c 0.60023,1.93322 1.03473,4.33866 1.16376,6.43931 l 0.11886,1.9324 1.06102,-1.43788 c 3.51297,-4.76074 7.80839,-7.71249 13.19737,-9.06894 2.62005,-0.65966 4.97848,-0.87211 8.56514,-0.77228 2.97618,0.0825 4.92299,0.34989 8.3974,1.15024 l 0.90138,0.208 c -0.002,2.91765 -0.002,5.84569 0,8.76059 0.0372,0 0.79456,-0.40784 1.48966,-0.90673 11.17976,-8.02115 27.15363,-11.29663 42.35063,-8.6843 8.36821,1.43855 16.22815,4.68758 22.20704,9.1797 10.34086,7.76954 15.44176,19.5182 14.16604,32.62806 -0.87656,9.00773 -5.0633,17.00607 -12.02104,22.96475 -9.17436,7.85698 -22.31171,12.02677 -36.64372,11.63068 -9.3704,-0.25925 -17.29155,-2.2016 -24.57437,-6.0268 -5.98037,-3.09147 -11.04383,-7.61057 -14.85996,-13.13274 -6.69113,-10.08353 -7.58205,-23.63539 -2.29662,-34.93417 0.41749,-0.89202 0.75868,-1.64186 0.75868,-1.66623 -2.9842,-1.0212 -6.17543,-0.99609 -9.22636,-0.34023 -1.86419,0.56309 -3.04221,1.16673 -4.66617,2.39044 -3.90795,2.94476 -6.17983,7.24427 -7.1491,13.52965 -0.5044,3.27021 -0.58835,6.46895 -0.58984,22.41184 v 16.02016 H 270.6275 v -17.91184 l -0.87279,1.47449 c -1.33646,2.25807 -2.86898,4.21244 -4.8573,6.19484 -7.09414,7.07259 -17.18689,10.98321 -30.65326,11.87709 -2.80643,0.18645 -8.27311,0.18199 -11.08297,-0.008 z m 22.00542,-24.70134 25.54283,0.45835 v -8.35833 h -28.94549 -28.94556 l 0.11737,1.10618 c 0.0668,0.60841 0.28674,1.77581 0.494,2.59406 1.42116,5.61549 5.68405,9.09124 12.45556,10.15568 7.65581,0.71833 14.02284,0.35582 19.28084,-5.95608 z m 127.82218,4.30806 c 4.9238,-3.06696 7.93742,-8.85174 8.50467,-16.32531 0.41153,-5.41804 -0.97538,-11.16664 -3.65196,-15.13957 -0.87494,-1.29882 -2.75845,-3.24511 -3.88195,-4.01129 -3.97302,-2.7534 -8.86629,-3.08078 -13.48746,-2.08475 -7.13424,2.20123 -11.49125,8.89504 -11.86185,18.22383 -0.27264,6.85189 1.62573,12.66772 5.41727,16.59944 2.37016,2.45788 4.50655,3.65159 7.8228,4.37104 3.80225,0.60468 7.70789,0.15154 11.13848,-1.63339 z M 242.76855,245.49379 c 0.25554,-0.25628 -0.69308,-3.49997 -1.44106,-4.92566 -0.77429,-1.47606 -2.70995,-3.21895 -4.57534,-4.11966 -5.46244,-2.63752 -13.6774,-2.13601 -18.23044,1.11302 -2.33562,1.6666 -4.15168,4.31006 -5.11412,7.44403 l -0.21767,0.70868 14.73233,-0.052 c 8.10272,-0.0297 14.78361,-0.10475 14.8463,-0.16715 z" />
  </g>
</svg>
