<?xml version="1.0" encoding="UTF-8" standalone="no"?>
<!-- Created with Inkscape (http://www.inkscape.org/) -->

<svg
   xmlns:dc="http://purl.org/dc/elements/1.1/"
   xmlns:cc="http://creativecommons.org/ns#"
   xmlns:rdf="http://www.w3.org/1999/02/22-rdf-syntax-ns#"
   xmlns:svg="http://www.w3.org/2000/svg"
   xmlns="http://www.w3.org/2000/svg"
   xmlns:sodipodi="http://sodipodi.sourceforge.net/DTD/sodipodi-0.dtd"
   xmlns:inkscape="http://www.inkscape.org/namespaces/inkscape"
   version="1.1"
   width="512"
   height="512"
   viewBox="0 0 512 512"
   id="svg2"
   inkscape:version="0.92.2 2405546, 2018-03-11"
   sodipodi:docname="netflix.svg">
  <sodipodi:namedview
     pagecolor="#ffffff"
     bordercolor="#666666"
     borderopacity="1"
     objecttolerance="10"
     gridtolerance="10"
     guidetolerance="10"
     inkscape:pageopacity="0"
     inkscape:pageshadow="2"
     inkscape:window-width="589"
     inkscape:window-height="435"
     id="namedview37"
     showgrid="false"
     inkscape:zoom="0.32593203"
     inkscape:cx="160.08923"
     inkscape:cy="399.46757"
     inkscape:window-x="698"
     inkscape:window-y="-16"
     inkscape:window-maximized="0"
     inkscape:current-layer="svg2"
     units="px" />
  <metadata
     id="metadata72">
    <rdf:RDF>
      <cc:Work
         rdf:about="">
        <dc:format>image/svg+xml</dc:format>
        <dc:type
           rdf:resource="http://purl.org/dc/dcmitype/StillImage" />
        <dc:title></dc:title>
      </cc:Work>
    </rdf:RDF>
  </metadata>
  <defs
     id="defs70" />
  <text
     x="729.64001"
     y="742.35999"
     id="text20"
     style="font-size:129.22999573px;line-height:0%;font-family:'Gentium Book Basic';letter-spacing:0;word-spacing:0">
    <tspan
       x="729.64001"
       y="742.35999"
       id="tspan22" />
  </text>
  <text
     x="378.90805"
     y="2629.7983"
     transform="scale(4.0128205,0.24920128)"
     id="text24"
     style="font-size:46.95375824px;font-family:Arial;text-anchor:middle;stroke-width:0.99999487" />
  <text
     x="1310.91"
     y="662.35999"
     id="text26"
     style="font-size:129.22999573px;line-height:0%;font-family:'Gentium Book Basic';letter-spacing:0;word-spacing:0">
    <tspan
       x="1310.91"
       y="662.35999"
       id="tspan28" />
  </text>
  <text
     x="523.75732"
     y="2308.77"
     transform="scale(4.0128205,0.24920128)"
     id="text30"
     style="font-size:46.95375824px;font-family:Arial;text-anchor:middle;stroke-width:0.99999487" />
  <text
     x="239.33"
     y="481.099"
     id="text32"
     style="font-size:129.22999573px;line-height:0%;font-family:'Gentium Book Basic';letter-spacing:0;word-spacing:0">
    <tspan
       x="239.33"
       y="481.099"
       id="tspan34" />
  </text>
  <text
     x="256.71869"
     y="1581.4137"
     transform="scale(4.0128205,0.24920128)"
     id="text36"
     style="font-size:46.95375824px;font-family:Arial;text-anchor:middle;stroke-width:0.99999487" />
  <text
     x="1337.38"
     y="264.63"
     id="text38"
     style="font-size:129.22999573px;line-height:0%;font-family:'Gentium Book Basic';letter-spacing:0;word-spacing:0">
    <tspan
       x="1337.38"
       y="264.63"
       id="tspan40" />
  </text>
  <text
     x="530.3573"
     y="712.74805"
     transform="scale(4.0128205,0.24920128)"
     id="text42"
     style="font-size:46.95375824px;font-family:Arial;text-anchor:middle;stroke-width:0.99999487" />
  <text
     x="1918.65"
     y="184.62"
     id="text44"
     style="font-size:129.22999573px;line-height:0%;font-family:'Gentium Book Basic';letter-spacing:0;word-spacing:0">
    <tspan
       x="1918.65"
       y="184.62"
       id="tspan46" />
  </text>
  <text
     x="675.20654"
     y="391.70984"
     transform="scale(4.0128205,0.24920128)"
     id="text48"
     style="font-size:46.95375824px;font-family:Arial;text-anchor:middle;stroke-width:0.99999487" />
  <text
     x="1529.53"
     y="-287.78003"
     id="text50"
     style="font-size:129.22999573px;line-height:0%;font-family:'Gentium Book Basic';letter-spacing:0;word-spacing:0">
    <tspan
       x="1529.53"
       y="-287.78003"
       id="tspan52" />
  </text>
  <text
     x="578.237"
     y="-1503.9404"
     transform="scale(4.0128205,0.24920128)"
     id="text54"
     style="font-size:46.95375824px;font-family:Arial;text-anchor:middle;stroke-width:0.99999487" />
  <text
     x="2110.79"
     y="-367.78003"
     id="text56"
     style="font-size:129.22999573px;line-height:0%;font-family:'Gentium Book Basic';letter-spacing:0;word-spacing:0">
    <tspan
       x="2110.79"
       y="-367.78003"
       id="tspan58" />
  </text>
  <text
     x="723.0863"
     y="-1824.969"
     transform="scale(4.0128205,0.24920128)"
     id="text60"
     style="font-size:46.95375824px;font-family:Arial;text-anchor:middle;stroke-width:0.99999487" />
  <text
     x="277.98999"
     y="1046.9399"
     id="text62"
     style="font-size:208.33000183px;line-height:0%;font-family:'Gentium Book Basic';letter-spacing:0;word-spacing:0">
    <tspan
       x="277.98999"
       y="1046.9399"
       id="tspan64" />
  </text>
  <g
     id="g860"
     transform="translate(0,-3.0492695e-6)">
    <path
       style="fill:#c6262e;fill-opacity:1;stroke-width:11.10955811"
       inkscape:connector-curvature="0"
       d="M 432.91326,56.473985 C 535.10617,145.04857 538.74004,306.1737 441.03006,416.37277 343.32009,526.57182 181.27966,544.10063 79.086741,455.52602 -23.106205,366.95145 -26.740032,205.82632 70.969941,95.627248 168.67991,-14.57184 330.72036,-32.100602 432.91326,56.473985 Z"
       id="path961" />
    <path
       style="opacity:1;fill:#000000;fill-opacity:0.49019608;stroke-width:11.10955811"
       inkscape:connector-curvature="0"
       d="M 511.63551,224.90354 C 510.08411,286.21517 486.47427,349.05814 440.66912,400.718 342.95916,510.91713 180.91871,528.44583 78.725758,439.8713 30.827125,398.35565 4.4968183,340.92285 0.19382643,280.22882 0.79908043,346.5855 27.117406,410.4822 79.07869,455.51912 c 102.19292,88.5745 264.24107,71.03711 361.94332,-39.15333 49.70495,-56.05812 73.00502,-125.29098 70.6135,-191.46225 z"
       id="path965" />
    <path
       d="M 120.00172,227.51742 V 228.37875 313.0043 314 l 0.9957,-0.13437 c 0,0 2.69854,-0.39363 8.47892,-1.04996 l 0.75366,-0.081 v -0.78037 l -0.51163,-56.46872 8.58659,55.60739 0.13437,0.83463 0.83463,-0.10767 c 0,0 3.32472,-0.40827 14.69426,-1.53403 l 0.78037,-0.081 v -0.78038 -81.01658 -0.86133 h -0.86132 -8.74766 -0.86134 v 0.86133 l 0.2696,59.64702 -9.12492,-59.78483 -0.13436,-0.72696 h -0.72697 l -13.70029,-0.0267 H 120 m 81.58507,0 -19.54183,0.0267 h -0.86133 v 0.86133 78.73406 0.9156 l 0.91559,-0.0543 c 0,0 5.0069,-0.3342 19.48757,-1.2653 l 0.80792,-0.0543 v -0.80793 -7.75196 -0.9156 l -0.91559,0.0543 -10.03965,0.70026 v -25.32821 h 10.09391 0.86133 v -0.86133 -7.88633 -0.86133 h -0.86133 -10.12061 v -25.94322 h 10.17488 0.86133 v -0.86133 -7.82948 -0.86133 h -0.86133 m 93.40249,0 -19.51426,0.0267 h -0.86133 v 0.86133 75.09926 0.86133 h 0.86133 8.53232 0.86133 v -0.86133 -30.87347 h 10.09391 0.86133 v -0.86133 -7.88632 -0.86133 h -0.86133 -10.12061 v -25.94323 h 10.14731 0.86133 v -0.86132 -7.82949 -0.86133 h -0.86133 m 25.97768,0 v 0.86133 75.74526 0.83463 l 0.83462,0.0267 c 0,0 5.75972,0.16107 19.62194,0.78036 l 0.88803,0.0267 v -0.88803 -7.69856 -0.78036 l -0.78036,-0.081 c 0,0 -2.55988,-0.17313 -10.36179,-0.45737 v -67.50234 -0.86133 h -0.86133 -8.47892 -0.86132 m 52.75638,0 -8.45222,0.0267 h -0.86132 v 0.86133 77.78661 0.80792 l 0.80792,0.0543 c 0,0 3.1249,0.17658 8.45222,0.56503 l 0.91559,0.0543 v -0.91559 -78.38093 -0.86132 h -0.86133 m 26.9975,0 0.21533,1.02326 7.24033,37.17495 -7.025,43.63147 -0.13437,0.91559 0.91559,0.081 9.07066,0.88803 0.83463,0.081 0.10766,-0.83462 4.09131,-31.46521 3.98365,32.46176 0.081,0.6727 0.6727,0.081 9.95955,1.13092 1.13092,0.13437 -0.16193,-1.13092 -7.10596,-45.56947 7.18693,-38.25161 0.21533,-1.02326 h -1.04996 -9.5263 -0.72696 l -0.13436,0.72696 -4.19898,26.64779 -4.38761,-26.64779 -0.13437,-0.72696 h -0.72696 -9.34026 -1.04995 m -178.56208,0.0267 v 0.86133 7.80364 0.86132 h 0.86133 8.34455 v 67.32147 0.94229 l 0.94229,-0.081 c 0,0 1.93197,-0.17829 8.37126,-0.32299 l 0.83463,-0.0267 v -0.83463 l 0.0543,-66.99415 h 8.45222 0.86133 v -0.86133 -7.80365 -0.86132 h -0.86133 -26.99749 -0.86133"
       inkscape:connector-curvature="0"
       id="path49"
       style="color:#000000;fill:#000000;fill-opacity:0.49019608;stroke-width:0.80173713" />
    <path
       style="color:#000000;fill:#ffffff;stroke-width:0.80173713"
       id="path66"
       inkscape:connector-curvature="0"
       d="M 100.00172,207.51742 V 208.37875 293.0043 294 l 0.9957,-0.13437 c 0,0 2.69854,-0.39363 8.47892,-1.04996 l 0.75366,-0.081 v -0.78037 l -0.51163,-56.46872 8.58659,55.60739 0.13437,0.83463 0.83463,-0.10767 c 0,0 3.32472,-0.40827 14.69426,-1.53403 l 0.78037,-0.081 v -0.78038 -81.01658 -0.86133 h -0.86132 -8.74766 -0.86134 v 0.86133 l 0.2696,59.64702 -9.12492,-59.78483 -0.13436,-0.72696 h -0.72697 l -13.70029,-0.0267 H 100 m 81.58507,0 -19.54183,0.0267 h -0.86133 v 0.86133 78.73406 0.9156 l 0.91559,-0.0543 c 0,0 5.0069,-0.3342 19.48757,-1.2653 l 0.80792,-0.0543 v -0.80793 -7.75196 -0.9156 l -0.91559,0.0543 -10.03965,0.70026 v -25.32821 h 10.09391 0.86133 v -0.86133 -7.88633 -0.86133 h -0.86133 -10.12061 v -25.94322 h 10.17488 0.86133 v -0.86133 -7.82948 -0.86133 h -0.86133 m 93.40249,0 -19.51426,0.0267 h -0.86133 v 0.86133 75.09926 0.86133 h 0.86133 8.53232 0.86133 v -0.86133 -30.87347 h 10.09391 0.86133 v -0.86133 -7.88632 -0.86133 h -0.86133 -10.12061 v -25.94323 h 10.14731 0.86133 v -0.86132 -7.82949 -0.86133 h -0.86133 m 25.97768,0 v 0.86133 75.74526 0.83463 l 0.83462,0.0267 c 0,0 5.75972,0.16107 19.62194,0.78036 l 0.88803,0.0267 v -0.88803 -7.69856 -0.78036 l -0.78036,-0.081 c 0,0 -2.55988,-0.17313 -10.36179,-0.45737 v -67.50234 -0.86133 h -0.86133 -8.47892 -0.86132 m 52.75638,0 -8.45222,0.0267 h -0.86132 v 0.86133 77.78661 0.80792 l 0.80792,0.0543 c 0,0 3.1249,0.17658 8.45222,0.56503 l 0.91559,0.0543 v -0.91559 -78.38093 -0.86132 h -0.86133 m 26.9975,0 0.21533,1.02326 7.24033,37.17495 -7.025,43.63147 -0.13437,0.91559 0.91559,0.081 9.07066,0.88803 0.83463,0.081 0.10766,-0.83462 4.09131,-31.46521 3.98365,32.46176 0.081,0.6727 0.6727,0.081 9.95955,1.13092 1.13092,0.13437 -0.16193,-1.13092 -7.10596,-45.56947 7.18693,-38.25161 0.21533,-1.02326 h -1.04996 -9.5263 -0.72696 l -0.13436,0.72696 -4.19898,26.64779 -4.38761,-26.64779 -0.13437,-0.72696 h -0.72696 -9.34026 -1.04995 m -178.56208,0.0267 v 0.86133 7.80364 0.86132 h 0.86133 8.34455 v 67.32147 0.94229 l 0.94229,-0.081 c 0,0 1.93197,-0.17829 8.37126,-0.32299 l 0.83463,-0.0267 v -0.83463 l 0.0543,-66.99415 h 8.45222 0.86133 v -0.86133 -7.80365 -0.86132 h -0.86133 -26.99749 -0.86133" />
  </g>
</svg>
