<?xml version="1.0" encoding="UTF-8" standalone="no"?>
<!-- Generator: Adobe Illustrator 19.0.0, SVG Export Plug-In . SVG Version: 6.00 Build 0)  -->

<svg
   xmlns:dc="http://purl.org/dc/elements/1.1/"
   xmlns:cc="http://creativecommons.org/ns#"
   xmlns:rdf="http://www.w3.org/1999/02/22-rdf-syntax-ns#"
   xmlns:svg="http://www.w3.org/2000/svg"
   xmlns="http://www.w3.org/2000/svg"
   xmlns:sodipodi="http://sodipodi.sourceforge.net/DTD/sodipodi-0.dtd"
   xmlns:inkscape="http://www.inkscape.org/namespaces/inkscape"
   version="1.1"
   id="Layer_1"
   x="0px"
   y="0px"
   viewBox="0 0 512 512"
   xml:space="preserve"
   inkscape:version="0.92.2 2405546, 2018-03-11"
   width="512"
   height="512"
   sodipodi:docname="NoMachine.svg"><metadata
     id="metadata57"><rdf:RDF><cc:Work
         rdf:about=""><dc:format>image/svg+xml</dc:format><dc:type
           rdf:resource="http://purl.org/dc/dcmitype/StillImage" /><dc:title></dc:title></cc:Work></rdf:RDF></metadata><defs
     id="defs55"><clipPath
       id="clipPath-147250665"><g
         transform="translate(0,-1004.3622)"
         id="g17"><path
           d="m -24,13 c 0,1.105 -0.672,2 -1.5,2 -0.828,0 -1.5,-0.895 -1.5,-2 0,-1.105 0.672,-2 1.5,-2 0.828,0 1.5,0.895 1.5,2 z"
           transform="matrix(15.8a715e,0,0,11.5,414.99999,878.8622)"
           id="path19"
           inkscape:connector-curvature="0"
           style="fill:#1890d0" /></g></clipPath><clipPath
       id="clipPath42"><g
         transform="translate(0,-1004.3622)"
         id="g40"><path
           d="m -24,13 c 0,1.105 -0.672,2 -1.5,2 -0.828,0 -1.5,-0.895 -1.5,-2 0,-1.105 0.672,-2 1.5,-2 0.828,0 1.5,0.895 1.5,2 z"
           transform="matrix(15.8a715e,0,0,11.5,414.99999,878.8622)"
           id="path38"
           inkscape:connector-curvature="0"
           style="fill:#1890d0" /></g></clipPath></defs><sodipodi:namedview
     pagecolor="#ffffff"
     bordercolor="#666666"
     borderopacity="1"
     objecttolerance="10"
     gridtolerance="10"
     guidetolerance="10"
     inkscape:pageopacity="0"
     inkscape:pageshadow="2"
     inkscape:window-width="1366"
     inkscape:window-height="700"
     id="namedview53"
     showgrid="false"
     inkscape:zoom="0.52559509"
     inkscape:cx="695.78654"
     inkscape:cy="125.73689"
     inkscape:window-x="0"
     inkscape:window-y="0"
     inkscape:window-maximized="1"
     inkscape:current-layer="Layer_1"
     units="px" /><g
     id="g23"
     transform="translate(0,550.767)" /><g
     id="g25"
     transform="translate(0,550.767)" /><g
     id="g27"
     transform="translate(0,550.767)" /><g
     id="g29"
     transform="translate(0,550.767)" /><g
     id="g31"
     transform="translate(0,550.767)" /><g
     id="g33"
     transform="translate(0,550.767)" /><g
     id="g35"
     transform="translate(0,550.767)" /><g
     id="g37"
     transform="translate(0,550.767)" /><g
     id="g39"
     transform="translate(0,550.767)" /><g
     id="g41"
     transform="translate(0,550.767)" /><g
     id="g43"
     transform="translate(0,550.767)" /><g
     id="g45"
     transform="translate(0,550.767)" /><g
     id="g47"
     transform="translate(0,550.767)" /><g
     id="g49"
     transform="translate(0,550.767)" /><g
     id="g51"
     transform="translate(0,550.767)" /><g
     id="g4597"><path
       style="fill:#8a715e;fill-opacity:1;stroke-width:11.10955811"
       inkscape:connector-curvature="0"
       d="m 432.91326,56.473979 c 102.1929,88.574591 105.8268,249.699711 8.1168,359.898791 C 343.3201,526.57182 181.27964,544.10062 79.08673,455.52603 -23.10619,366.95144 -26.74004,205.82632 70.96993,95.627239 168.6799,-14.571841 330.72036,-32.100611 432.91326,56.473979 Z"
       id="path27" /><path
       inkscape:connector-curvature="0"
       style="fill:#000000;stroke-width:0.698a715e;fill-opacity:0.49019608"
       d="m 133.87305,174.6875 c -7.3571,0 -13.87305,6.50814 -13.87305,13.86523 v 86.78907 0.002 86.78906 C 120,369.49067 126.51595,376 133.87305,376 H 418.08203 C 425.43981,376 432,369.48991 432,362.13281 v -86.78906 -0.002 -86.78907 c 0,-7.35709 -6.56019,-13.86523 -13.91797,-13.86523 z m 31.14062,62.69336 h 27.94922 l 35.29492,55.70312 v -55.70312 h 23.72657 V 318.5957 H 224.0332 l -35.29492,-55.70312 v 55.70312 h -23.72461 z m 111.53906,0 h 31.85157 l 22.09961,43.46289 22.23047,-43.46289 h 31.78515 v 81.21484 h -23.66015 v -59.40039 l -22.36133,43.78907 H 322.63867 L 300.2793,259.19531 v 59.40039 h -23.72657 z"
       id="path3785" /><path
       id="path7"
       d="M 113.87305 154.6875 C 106.51595 154.6875 100 161.19564 100 168.55273 L 100 255.3418 L 100 255.34375 L 100 342.13281 C 100 349.49067 106.51595 356 113.87305 356 L 398.08203 356 C 405.43981 356 412 349.48991 412 342.13281 L 412 255.34375 L 412 255.3418 L 412 168.55273 C 412 161.19564 405.43981 154.6875 398.08203 154.6875 L 113.87305 154.6875 z M 145.01367 217.38086 L 172.96289 217.38086 L 208.25781 273.08398 L 208.25781 217.38086 L 231.98438 217.38086 L 231.98438 298.5957 L 204.0332 298.5957 L 168.73828 242.89258 L 168.73828 298.5957 L 145.01367 298.5957 L 145.01367 217.38086 z M 256.55273 217.38086 L 288.4043 217.38086 L 310.50391 260.84375 L 332.73438 217.38086 L 364.51953 217.38086 L 364.51953 298.5957 L 340.85938 298.5957 L 340.85938 239.19531 L 318.49805 282.98438 L 302.63867 282.98438 L 280.2793 239.19531 L 280.2793 298.5957 L 256.55273 298.5957 L 256.55273 217.38086 z "
       style="fill:#ffffff;stroke-width:0.698a715e" /><path
       style="opacity:1;fill:#000000;fill-opacity:0.49019608;stroke-width:11.10955811"
       inkscape:connector-curvature="0"
       d="m 511.63556,224.90353 c -1.5514,61.31165 -25.1613,124.15461 -70.9664,175.81447 C 342.95915,510.91712 180.91869,528.44582 78.72578,439.8713 30.82712,398.35565 4.4968203,340.92285 0.19383031,280.22882 0.79908031,346.58549 27.11741,410.48218 79.07869,455.51908 c 102.1929,88.57454 264.24106,71.03714 361.94337,-39.1533 49.7049,-56.05811 73.005,-125.29097 70.6135,-191.46225 z"
       id="path51" /><g
       id="flowRoot4516"
       style="font-style:normal;font-weight:normal;font-size:40px;line-height:1.25;font-family:sans-serif;letter-spacing:0px;word-spacing:0px;fill:#ffffff;fill-opacity:1;stroke:none"
       transform="matrix(0.698a715e,0,0,0.58023897,90.581505,117.45424)"
       aria-label="NM" /></g></svg>