<?xml version="1.0" encoding="UTF-8" standalone="no"?>
<svg
   xmlns:dc="http://purl.org/dc/elements/1.1/"
   xmlns:cc="http://creativecommons.org/ns#"
   xmlns:rdf="http://www.w3.org/1999/02/22-rdf-syntax-ns#"
   xmlns:svg="http://www.w3.org/2000/svg"
   xmlns="http://www.w3.org/2000/svg"
   xmlns:sodipodi="http://sodipodi.sourceforge.net/DTD/sodipodi-0.dtd"
   xmlns:inkscape="http://www.inkscape.org/namespaces/inkscape"
   viewBox="0 0 511.99999 511.99999"
   height="512"
   width="512"
   version="1.1"
   id="svg2"
   inkscape:version="0.92.3 (2405546, 2018-03-11)"
   sodipodi:docname="notepad.svg">
  <sodipodi:namedview
     pagecolor="#ffffff"
     bordercolor="#666666"
     borderopacity="1"
     objecttolerance="10"
     gridtolerance="10"
     guidetolerance="10"
     inkscape:pageopacity="0"
     inkscape:pageshadow="2"
     inkscape:window-width="1366"
     inkscape:window-height="718"
     id="namedview18"
     showgrid="false"
     inkscape:zoom="0.28726213"
     inkscape:cx="-71.784988"
     inkscape:cy="708.94336"
     inkscape:window-x="0"
     inkscape:window-y="25"
     inkscape:window-maximized="1"
     inkscape:current-layer="svg2" />
  <metadata
     id="metadata8">
    <rdf:RDF>
      <cc:Work
         rdf:about="">
        <dc:format>image/svg+xml</dc:format>
        <dc:type
           rdf:resource="http://purl.org/dc/dcmitype/StillImage" />
        <dc:title />
      </cc:Work>
    </rdf:RDF>
  </metadata>
  <defs
     id="defs6">
    <filter
       height="1.096"
       y="-0.048"
       width="1.096"
       x="-0.048"
       id="filter4329"
       style="color-interpolation-filters:sRGB">
      <feGaussianBlur
         id="feGaussianBlur4331"
         stdDeviation="2.1324205" />
    </filter>
    <filter
       height="1.0327445"
       y="-0.016372267"
       width="1.0399742"
       x="-0.019987123"
       id="filter4376"
       style="color-interpolation-filters:sRGB">
      <feGaussianBlur
         id="feGaussianBlur4378"
         stdDeviation="1.1736058" />
    </filter>
    <filter
       height="1.0570984"
       y="-0.0285492"
       width="1.0632123"
       x="-0.031606145"
       id="filter4436"
       style="color-interpolation-filters:sRGB">
      <feGaussianBlur
         id="feGaussianBlur4438"
         stdDeviation="0.63519096" />
    </filter>
  </defs>
  <g
     transform="translate(2.4756224e-7,3.7976448e-6)"
     id="g860">
    <path
       style="fill:#3689e6;fill-opacity:1;stroke-width:11.10955811"
       inkscape:connector-curvature="0"
       d="m 432.91326,56.47397 c 102.19291,88.57459 105.82678,249.69971 8.1168,359.89879 C 343.32009,526.57182 181.27965,544.10062 79.086737,455.52601 -23.106205,366.95143 -26.740032,205.82631 70.969942,95.62723 168.67991,-14.57185 330.72036,-32.10062 432.91326,56.47397 Z"
       id="path961" />
    <path
       style="opacity:1;fill:#000000;fill-opacity:0.49019608;stroke-width:11.10955811"
       inkscape:connector-curvature="0"
       d="m 511.6355,224.90352 c -1.55139,61.31164 -25.16123,124.1546 -70.96638,175.81447 C 342.95915,510.91712 180.9187,528.44582 78.725759,439.87129 30.827126,398.35564 4.4968202,340.92284 0.1938274,280.22881 0.7990814,346.58548 27.117406,410.48218 79.078687,455.51911 181.2716,544.09362 343.31975,526.55622 441.02201,416.36577 490.72696,360.30766 514.02703,291.0748 511.6355,224.90352 Z"
       id="path965" />
    <path
       inkscape:connector-curvature="0"
       style="fill:#000000;fill-opacity:0.49019608;stroke-width:6.76990175"
       d="m 291.20122,120.00948 c -46.00569,-0.50758 -93.53061,19.44115 -127.9534,58.26379 -59.54217,67.1527 -57.32862,165.33771 4.94531,219.31299 62.27394,53.97521 161.01694,43.29326 220.55907,-23.85945 59.54214,-67.15271 57.3286,-165.33773 -4.94531,-219.31296 -26.27182,-22.7708 -59.03396,-34.03401 -92.60567,-34.40437 z m -64.95132,59.26185 h 167.82068 a 5.6698698,5.6698698 0 1 1 0,11.33792 H 226.2499 a 5.6698698,5.6698698 0 1 1 0,-11.33792 z m -53.99817,30.00005 h 221.81885 a 5.6698703,5.6698703 0 1 1 0,11.33794 H 172.25173 a 5.6698703,5.6698703 0 1 1 0,-11.33794 z m 0,30.00007 h 221.81885 a 5.6698703,5.6698703 0 1 1 0,11.33792 H 172.25173 a 5.6698703,5.6698703 0 1 1 0,-11.33792 z m 0,30.00006 h 221.81885 a 5.6698703,5.6698703 0 1 1 0,11.33794 H 172.25173 a 5.6698703,5.6698703 0 1 1 0,-11.33794 z m 0,30.00007 h 221.81885 a 5.6698703,5.6698703 0 1 1 0,11.33792 H 172.25173 a 5.6698703,5.6698703 0 1 1 0,-11.33792 z m 0,30.00006 h 221.81885 a 5.6698706,5.6698706 0 1 1 0,11.33793 H 172.25173 a 5.6698706,5.6698706 0 1 1 0,-11.33793 z m 0,30.00007 h 137.82062 a 5.6698706,5.6698706 0 1 1 0,11.33792 H 172.25173 a 5.6698706,5.6698706 0 1 1 0,-11.33792 z"
       id="path49" />
    <path
       id="path833"
       d="m 271.20122,100.00948 c -46.00569,-0.507582 -93.53061,19.44115 -127.9534,58.26379 -59.542171,67.1527 -57.328621,165.33771 4.94531,219.31299 62.27394,53.97521 161.01694,43.29326 220.55907,-23.85945 59.54214,-67.15271 57.3286,-165.33773 -4.94531,-219.31296 -26.27182,-22.7708 -59.03396,-34.03401 -92.60567,-34.40437 z m -64.95132,59.26185 h 167.82068 a 5.6698698,5.6698698 0 1 1 0,11.33792 H 206.2499 a 5.6698698,5.6698698 0 1 1 0,-11.33792 z m -53.99817,30.00005 h 221.81885 a 5.6698703,5.6698703 0 1 1 0,11.33794 H 152.25173 a 5.6698703,5.6698703 0 1 1 0,-11.33794 z m 0,30.00007 h 221.81885 a 5.6698703,5.6698703 0 1 1 0,11.33792 H 152.25173 a 5.6698703,5.6698703 0 1 1 0,-11.33792 z m 0,30.00006 h 221.81885 a 5.6698703,5.6698703 0 1 1 0,11.33794 H 152.25173 a 5.6698703,5.6698703 0 1 1 0,-11.33794 z m 0,30.00007 h 221.81885 a 5.6698703,5.6698703 0 1 1 0,11.33792 H 152.25173 a 5.6698703,5.6698703 0 1 1 0,-11.33792 z m 0,30.00006 h 221.81885 a 5.6698706,5.6698706 0 1 1 0,11.33793 H 152.25173 a 5.6698706,5.6698706 0 1 1 0,-11.33793 z m 0,30.00007 h 137.82062 a 5.6698706,5.6698706 0 1 1 0,11.33792 H 152.25173 a 5.6698706,5.6698706 0 1 1 0,-11.33792 z"
       style="fill:#ffffff;fill-opacity:1;stroke-width:6.76990175"
       inkscape:connector-curvature="0" />
  </g>
</svg>
