<?xml version="1.0" encoding="UTF-8" standalone="no"?>
<svg
   xmlns:dc="http://purl.org/dc/elements/1.1/"
   xmlns:cc="http://creativecommons.org/ns#"
   xmlns:rdf="http://www.w3.org/1999/02/22-rdf-syntax-ns#"
   xmlns:svg="http://www.w3.org/2000/svg"
   xmlns="http://www.w3.org/2000/svg"
   xmlns:sodipodi="http://sodipodi.sourceforge.net/DTD/sodipodi-0.dtd"
   xmlns:inkscape="http://www.inkscape.org/namespaces/inkscape"
   viewBox="0 0 512 512"
   id="svg2"
   version="1.1"
   inkscape:version="0.92.2 2405546, 2018-03-11"
   width="512"
   height="512"
   sodipodi:docname="notification_area_icon.svg">
  <metadata
     id="metadata76">
    <rdf:RDF>
      <cc:Work
         rdf:about="">
        <dc:format>image/svg+xml</dc:format>
        <dc:type
           rdf:resource="http://purl.org/dc/dcmitype/StillImage" />
        <dc:title></dc:title>
      </cc:Work>
    </rdf:RDF>
  </metadata>
  <sodipodi:namedview
     pagecolor="#ffffff"
     bordercolor="#666666"
     borderopacity="1"
     objecttolerance="10"
     gridtolerance="10"
     guidetolerance="10"
     inkscape:pageopacity="0"
     inkscape:pageshadow="2"
     inkscape:window-width="1366"
     inkscape:window-height="700"
     id="namedview74"
     showgrid="false"
     inkscape:zoom="0.5"
     inkscape:cx="-75.31102"
     inkscape:cy="207.25871"
     inkscape:window-x="0"
     inkscape:window-y="0"
     inkscape:window-maximized="1"
     inkscape:current-layer="svg2"
     units="px"
     showguides="false" />
  <defs
     id="defs4">
    <linearGradient
       id="linearGradient3764"
       x1="1"
       x2="47"
       gradientUnits="userSpaceOnUse"
       gradientTransform="rotate(-90,23.999998,24)">
      <stop
         stop-color="#8358b4"
         stop-opacity="1"
         id="stop7" />
      <stop
         offset="1"
         stop-color="#8d65ba"
         stop-opacity="1"
         id="stop9" />
    </linearGradient>
    <clipPath
       id="clipPath-057129763">
      <g
         transform="translate(0,-1004.3622)"
         id="g12">
        <path
           d="m -24,13 c 0,1.105 -0.672,2 -1.5,2 -0.828,0 -1.5,-0.895 -1.5,-2 0,-1.105 0.672,-2 1.5,-2 0.828,0 1.5,0.895 1.5,2 z"
           transform="matrix(15.8a715e,0,0,11.5,414.99999,878.8622)"
           id="path14"
           inkscape:connector-curvature="0"
           style="fill:#1890d0" />
      </g>
    </clipPath>
    <clipPath
       id="clipPath-064426159">
      <g
         transform="translate(0,-1004.3622)"
         id="g17">
        <path
           d="m -24,13 c 0,1.105 -0.672,2 -1.5,2 -0.828,0 -1.5,-0.895 -1.5,-2 0,-1.105 0.672,-2 1.5,-2 0.828,0 1.5,0.895 1.5,2 z"
           transform="matrix(15.8a715e,0,0,11.5,414.99999,878.8622)"
           id="path19"
           inkscape:connector-curvature="0"
           style="fill:#1890d0" />
      </g>
    </clipPath>
  </defs>
  <g
     id="g33"
     transform="translate(0,963)" />
  <g
     id="g825"
     transform="matrix(1,0,0,0.9999979,3.8414115e-8,-540.35999)">
    <path
       id="path1165"
       d="m 432.91328,596.8362 c 102.1929,88.57368 105.82677,249.70008 8.11678,359.89878 C 343.32007,1066.9337 181.27962,1084.4627 79.086743,995.88901 -23.106206,907.31301 -26.740033,746.18893 70.969944,635.98791 168.67988,525.78922 330.72033,508.2602 432.91328,596.8362 Z"
       inkscape:connector-curvature="0"
       style="fill:#f9c440;fill-opacity:1;stroke-width:11.10955906" />
    <path
       id="path1167"
       d="m 511.63552,765.26559 c -1.55136,61.312 -25.16124,124.15535 -70.96639,175.81382 C 342.95911,1051.2781 180.91867,1068.8071 78.725762,980.23345 30.827125,938.71723 4.4968196,881.28479 0.19382725,820.58952 0.79908085,886.94705 27.117406,950.84465 79.078693,995.8797 c 102.192877,88.576 264.241027,71.0377 361.943337,-39.15171 49.70494,-56.05934 73.00501,-125.29105 70.61349,-191.4624 z"
       inkscape:connector-curvature="0"
       style="opacity:1;fill:#000000;fill-opacity:0.49019608;stroke-width:11.10955906" />
    <path
       style="fill:#000000;fill-opacity:0.49019608;stroke-width:1.39246964"
       d="m 241.35251,971.46641 c -10.06193,-3.19302 -14.34684,-13.08858 -12.92918,-29.85891 0.47476,-5.61571 6.24555,-32.68887 12.82395,-60.16 6.57841,-27.47113 12.07562,-52.4544 12.21602,-55.51709 0.25461,-5.5552 0.24181,-5.56917 -4.61833,-5.17353 -2.68051,0.23273 -12.00007,3.81906 -20.71014,8.00582 -8.71007,4.18444 -16.01321,7.61018 -16.2292,7.61018 -0.21597,0 -2.07321,-2.8672 -4.12713,-6.37207 -3.18122,-5.42953 -3.43933,-6.61411 -1.74243,-8.00815 41.47886,-34.03171 97.96275,-59.52233 111.80211,-50.45527 6.1167,4.00756 8.05609,10.84044 7.13796,25.15084 -0.60998,9.50691 -4.02988,24.93672 -14.16851,63.93018 -8.90913,34.26444 -13.22529,53.29687 -12.94718,57.09033 0.4124,5.62734 0.47733,5.69018 5.58341,5.39229 5.53407,-0.32582 18.81067,-6.46284 28.84045,-13.34458 l 6.15729,-4.224 4.61363,5.45512 c 2.5375,2.99753 4.62294,5.86473 4.63435,6.37208 0.0349,1.58254 -19.71059,18.60887 -30.78273,26.52858 -27.25881,19.50022 -61.55385,32.01862 -75.55434,27.57818 z m 49.33222,-244.04713 c -10.43573,-3.5072 -18.16779,-15.70677 -18.16779,-28.66037 0,-7.68465 4.55378,-18.45992 10.68244,-25.27651 8.36201,-9.29978 16.59797,-12.93265 29.72958,-13.11418 14.67807,-0.23272 22.66352,3.90982 28.247,14.5408 3.46733,6.60015 3.92006,8.78313 3.45455,16.64699 -1.26859,21.43418 -16.87251,36.11694 -39.39053,37.06647 -5.36099,0.23273 -11.91087,-0.32582 -14.55525,-1.21018 z"
       id="path1253"
       inkscape:connector-curvature="0" />
    <path
       inkscape:connector-curvature="0"
       id="path1251"
       d="m 221.35252,951.46603 c -10.06193,-3.19302 -14.34684,-13.08858 -12.92918,-29.85891 0.47476,-5.61571 6.24555,-32.68887 12.82395,-60.16 6.57841,-27.47113 12.07563,-52.4544 12.21604,-55.51709 0.2546,-5.5552 0.2418,-5.56917 -4.61835,-5.17353 -2.68051,0.23273 -12.00007,3.82138 -20.71014,8.00582 -8.71007,4.18676 -16.01321,7.61018 -16.2292,7.61018 -0.21597,0 -2.0732,-2.8672 -4.12713,-6.37207 -3.18122,-5.42953 -3.43933,-6.61411 -1.74243,-8.00582 41.47888,-34.03404 97.96276,-59.52466 111.80215,-50.4576 6.1167,4.00989 8.05606,10.84276 7.13793,25.15083 -0.60998,9.50691 -4.02988,24.93673 -14.16848,63.93019 -8.90915,34.26444 -13.22531,53.29687 -12.9472,57.09033 0.41239,5.62734 0.47732,5.69018 5.58343,5.39461 5.53404,-0.32581 18.81064,-6.46516 28.84042,-13.3469 l 6.15729,-4.224 4.61363,5.45512 c 2.5375,2.99753 4.62297,5.86706 4.63435,6.37208 0.0349,1.58254 -19.71056,18.60887 -30.78272,26.52858 -27.25879,19.50254 -61.55386,32.01862 -75.55436,27.57818 z M 270.68475,707.4189 c -10.43573,-3.5072 -18.16779,-15.70444 -18.16779,-28.66037 0,-7.68465 4.55375,-18.45992 10.68242,-25.27651 8.36203,-9.29978 16.59799,-12.93265 29.7296,-13.11418 14.67804,-0.23273 22.66352,3.90982 28.247,14.5408 3.46733,6.60015 3.92003,8.78313 3.45456,16.64698 -1.2686,21.43419 -16.87255,36.11695 -39.39054,37.06648 -5.36101,0.23272 -11.91086,-0.32582 -14.55525,-1.21018 z"
       style="fill:#ffffff;fill-opacity:1;stroke-width:1.39246964" />
  </g>
</svg>
