<?xml version="1.0" encoding="UTF-8" standalone="no"?>
<!-- Created with Inkscape (http://www.inkscape.org/) -->

<svg
   xmlns:dc="http://purl.org/dc/elements/1.1/"
   xmlns:cc="http://creativecommons.org/ns#"
   xmlns:rdf="http://www.w3.org/1999/02/22-rdf-syntax-ns#"
   xmlns:svg="http://www.w3.org/2000/svg"
   xmlns="http://www.w3.org/2000/svg"
   xmlns:sodipodi="http://sodipodi.sourceforge.net/DTD/sodipodi-0.dtd"
   xmlns:inkscape="http://www.inkscape.org/namespaces/inkscape"
   version="1.1"
   width="512"
   height="512"
   viewBox="0 0 512 512"
   id="svg2"
   inkscape:version="0.92.3 (2405546, 2018-03-11)"
   sodipodi:docname="nvclock.svg">
  <sodipodi:namedview
     pagecolor="#ffffff"
     bordercolor="#666666"
     borderopacity="1"
     objecttolerance="10"
     gridtolerance="10"
     guidetolerance="10"
     inkscape:pageopacity="0"
     inkscape:pageshadow="2"
     inkscape:window-width="1366"
     inkscape:window-height="718"
     id="namedview44"
     showgrid="false"
     inkscape:zoom="0.4609375"
     inkscape:cx="-180.84262"
     inkscape:cy="53.202629"
     inkscape:window-x="0"
     inkscape:window-y="25"
     inkscape:window-maximized="1"
     inkscape:current-layer="svg2"
     units="px" />
  <metadata
     id="metadata86">
    <rdf:RDF>
      <cc:Work
         rdf:about="">
        <dc:format>image/svg+xml</dc:format>
        <dc:type
           rdf:resource="http://purl.org/dc/dcmitype/StillImage" />
        <dc:title></dc:title>
      </cc:Work>
    </rdf:RDF>
  </metadata>
  <defs
     id="defs84" />
  <text
     x="-1160.48"
     y="1060.52"
     id="text16"
     style="font-size:208.33000183px;line-height:0%;font-family:'Gentium Book Basic';letter-spacing:0;word-spacing:0">
    <tspan
       x="-1160.48"
       y="1060.52"
       id="tspan18" />
  </text>
  <text
     x="28.533854"
     y="3692.783"
     transform="scale(4.0128205,0.24920128)"
     id="text20"
     style="font-size:75.69960785px;font-family:Arial;text-anchor:middle;stroke-width:0.99999487" />
  <text
     x="729.64001"
     y="742.35999"
     id="text34"
     style="font-size:129.22999573px;line-height:0%;font-family:'Gentium Book Basic';letter-spacing:0;word-spacing:0">
    <tspan
       x="729.64001"
       y="742.35999"
       id="tspan36" />
  </text>
  <text
     x="378.90805"
     y="2629.7983"
     transform="scale(4.0128205,0.24920128)"
     id="text38"
     style="font-size:46.95375824px;font-family:Arial;text-anchor:middle;stroke-width:0.99999487" />
  <text
     x="1310.91"
     y="662.35999"
     id="text40"
     style="font-size:129.22999573px;line-height:0%;font-family:'Gentium Book Basic';letter-spacing:0;word-spacing:0">
    <tspan
       x="1310.91"
       y="662.35999"
       id="tspan42" />
  </text>
  <text
     x="523.75732"
     y="2308.77"
     transform="scale(4.0128205,0.24920128)"
     id="text44"
     style="font-size:46.95375824px;font-family:Arial;text-anchor:middle;stroke-width:0.99999487" />
  <text
     x="239.33"
     y="481.099"
     id="text46"
     style="font-size:129.22999573px;line-height:0%;font-family:'Gentium Book Basic';letter-spacing:0;word-spacing:0">
    <tspan
       x="239.33"
       y="481.099"
       id="tspan48" />
  </text>
  <text
     x="256.71869"
     y="1581.4137"
     transform="scale(4.0128205,0.24920128)"
     id="text50"
     style="font-size:46.95375824px;font-family:Arial;text-anchor:middle;stroke-width:0.99999487" />
  <text
     x="1337.38"
     y="264.63"
     id="text52"
     style="font-size:129.22999573px;line-height:0%;font-family:'Gentium Book Basic';letter-spacing:0;word-spacing:0">
    <tspan
       x="1337.38"
       y="264.63"
       id="tspan54" />
  </text>
  <text
     x="530.3573"
     y="712.74805"
     transform="scale(4.0128205,0.24920128)"
     id="text56"
     style="font-size:46.95375824px;font-family:Arial;text-anchor:middle;stroke-width:0.99999487" />
  <text
     x="1918.65"
     y="184.62"
     id="text58"
     style="font-size:129.22999573px;line-height:0%;font-family:'Gentium Book Basic';letter-spacing:0;word-spacing:0">
    <tspan
       x="1918.65"
       y="184.62"
       id="tspan60" />
  </text>
  <text
     x="675.20654"
     y="391.70984"
     transform="scale(4.0128205,0.24920128)"
     id="text62"
     style="font-size:46.95375824px;font-family:Arial;text-anchor:middle;stroke-width:0.99999487" />
  <text
     x="1529.53"
     y="-287.78003"
     id="text64"
     style="font-size:129.22999573px;line-height:0%;font-family:'Gentium Book Basic';letter-spacing:0;word-spacing:0">
    <tspan
       x="1529.53"
       y="-287.78003"
       id="tspan66" />
  </text>
  <text
     x="578.237"
     y="-1503.9404"
     transform="scale(4.0128205,0.24920128)"
     id="text68"
     style="font-size:46.95375824px;font-family:Arial;text-anchor:middle;stroke-width:0.99999487" />
  <text
     x="2110.79"
     y="-367.78003"
     id="text70"
     style="font-size:129.22999573px;line-height:0%;font-family:'Gentium Book Basic';letter-spacing:0;word-spacing:0">
    <tspan
       x="2110.79"
       y="-367.78003"
       id="tspan72" />
  </text>
  <text
     x="723.0863"
     y="-1824.969"
     transform="scale(4.0128205,0.24920128)"
     id="text74"
     style="font-size:46.95375824px;font-family:Arial;text-anchor:middle;stroke-width:0.99999487" />
  <text
     x="277.98999"
     y="1046.9399"
     id="text76"
     style="font-size:208.33000183px;line-height:0%;font-family:'Gentium Book Basic';letter-spacing:0;word-spacing:0">
    <tspan
       x="277.98999"
       y="1046.9399"
       id="tspan78" />
  </text>
  <g
     id="g876">
    <path
       id="path901"
       d="M 432.91381,56.473974 C 535.10672,145.04856 538.74059,306.17368 441.03061,416.37276 343.32045,526.57184 181.27967,544.10061 79.086757,455.52602 -23.106193,366.95143 -26.740053,205.82631 70.969957,95.627234 168.67993,-14.57185 330.72064,-32.10062 432.91381,56.473974 Z"
       inkscape:connector-curvature="0"
       style="fill:#68b723;fill-opacity:1;stroke-width:11.10955811" />
    <path
       id="rect866"
       d="M 280.94531,0.015625 C 272.64987,-0.07589179 264.32382,0.24337501 256,0.95898438 V 511.04102 C 323.43087,505.2439 390.74946,473.08165 441.03125,416.37305 488.35952,362.99537 511.90967,297.66953 512,234.42773 512.09616,167.10582 485.60728,102.14588 432.91406,56.474609 389.80132,19.107203 336.03732,0.62340973 280.94531,0.015625 Z"
       style="opacity:1;fill:#8a715e;fill-opacity:1;stroke:none;stroke-width:14.50460243;stroke-miterlimit:4;stroke-dasharray:none;stroke-opacity:1"
       inkscape:connector-curvature="0" />
    <path
       id="path903"
       d="m 511.63554,224.90352 c -1.5514,61.31166 -25.16123,124.1546 -70.96638,175.81449 C 342.95919,510.9171 180.91872,528.44585 78.725812,439.87127 30.827158,398.35564 4.4968559,340.92283 0.193862,280.22879 0.79911356,346.58547 27.117445,410.48219 79.078716,455.51904 181.27163,544.09362 343.31978,526.5562 441.02206,416.36578 490.727,360.30764 514.02708,291.07481 511.63554,224.90352 Z"
       inkscape:connector-curvature="0"
       style="opacity:1;fill:#000000;fill-opacity:0.49019608;stroke-width:11.10955811" />
    <path
       d="m 245.84208,178.97704 v 2.73422 c 0,-0.90923 0.0726,-1.78962 0.14518,-2.67559 -0.0419,-0.014 -0.10423,-0.0447 -0.14518,-0.0586 m 9.53907,25.2762 c -1.18564,0.007 -2.37872,0.0177 -3.57739,0.0586 -1.99157,0.0679 -3.98128,0.25406 -5.96168,0.40762 -0.0158,0.002 -0.013,-9.3e-4 -0.0288,0 C 178.35116,210.15257 120,267.30506 120,267.30506 c 0,0 33.03308,95.614 125.8412,104.38063 4.45498,0.42996 9.0663,0.81431 13.78558,0.81431 48.9582,0 135.31512,-25.07797 172.37322,-56.09901 -5.43773,-5.51218 -31.93027,-18.09165 -38.38892,-23.26601 -38.97057,33.64266 -79.26264,62.06441 -134.91494,62.06441 -4.4587,0 -8.73313,-0.29129 -12.85494,-0.81431 -68.10427,-8.56933 -91.37958,-83.67388 -91.37958,-83.67388 0,0 30.46172,-44.98716 91.37958,-49.64036 1.95993,-0.1368 3.94499,-0.19823 5.96168,-0.26151 0.86178,-0.027 1.7068,-0.0558 2.55926,-0.0586 53.71285,-0.16752 88.84825,47.37518 88.84825,47.37518 0,0 -39.08504,54.35871 -80.99364,54.35871 -6.03148,0 -11.50644,-1.09722 -16.37369,-2.73422 -29.01737,-9.75032 -38.38892,-43.50744 -38.38892,-43.50744 0,0 16.8446,-20.15116 38.38892,-17.56584 21.46988,2.59463 25.91462,12.12625 38.82539,33.65196 l 28.64604,-24.34556 c 0,0 -20.91242,-27.42504 -56.2479,-27.42504 -3.84355,0 -7.61823,0.28292 -11.22353,0.66913 -41.05055,4.43823 -65.69391,31.76276 -65.69391,31.76276 0,0 14.22391,53.55836 65.69391,62.73447 4.81979,0.85247 9.93273,1.36711 15.4142,1.36711 59.80295,0 117.20486,-69.76918 117.20486,-69.76918 0,0 -48.39331,-63.53482 -123.0772,-63.05089"
       inkscape:connector-curvature="0"
       id="path864"
       style="fill:#000000;fill-opacity:0.49019608;fill-rule:evenodd;stroke-width:0.93064046" />
    <path
       style="fill:#ffffff;fill-rule:evenodd;stroke-width:0.93064046"
       id="path80"
       inkscape:connector-curvature="0"
       d="m 225.84208,158.97704 v 2.73422 c 0,-0.90923 0.0726,-1.78962 0.14518,-2.67559 -0.0419,-0.014 -0.10423,-0.0447 -0.14518,-0.0586 m 9.53907,25.2762 c -1.18564,0.007 -2.37872,0.0177 -3.57739,0.0586 -1.99157,0.0679 -3.98128,0.25406 -5.96168,0.40762 -0.0158,0.002 -0.013,-9.3e-4 -0.0288,0 C 158.35116,190.15257 100,247.30506 100,247.30506 c 0,0 33.03308,95.614 125.8412,104.38063 4.45498,0.42996 9.0663,0.81431 13.78558,0.81431 48.9582,0 135.31512,-25.07797 172.37322,-56.09901 -5.43773,-5.51218 -31.93027,-18.09165 -38.38892,-23.26601 -38.97057,33.64266 -79.26264,62.06441 -134.91494,62.06441 -4.4587,0 -8.73313,-0.29129 -12.85494,-0.81431 -68.10427,-8.56933 -91.37958,-83.67388 -91.37958,-83.67388 0,0 30.46172,-44.98716 91.37958,-49.64036 1.95993,-0.1368 3.94499,-0.19823 5.96168,-0.26151 0.86178,-0.027 1.7068,-0.0558 2.55926,-0.0586 53.71285,-0.16752 88.84825,47.37518 88.84825,47.37518 0,0 -39.08504,54.35871 -80.99364,54.35871 -6.03148,0 -11.50644,-1.09722 -16.37369,-2.73422 -29.01737,-9.75032 -38.38892,-43.50744 -38.38892,-43.50744 0,0 16.8446,-20.15116 38.38892,-17.56584 21.46988,2.59463 25.91462,12.12625 38.82539,33.65196 l 28.64604,-24.34556 c 0,0 -20.91242,-27.42504 -56.2479,-27.42504 -3.84355,0 -7.61823,0.28292 -11.22353,0.66913 -41.05055,4.43823 -65.69391,31.76276 -65.69391,31.76276 0,0 14.22391,53.55836 65.69391,62.73447 4.81979,0.85247 9.93273,1.36711 15.4142,1.36711 59.80295,0 117.20486,-69.76918 117.20486,-69.76918 0,0 -48.39331,-63.53482 -123.0772,-63.05089" />
  </g>
</svg>
