<?xml version="1.0" encoding="UTF-8" standalone="no"?>
<!-- Created with Inkscape (http://www.inkscape.org/) -->

<svg
   xmlns:dc="http://purl.org/dc/elements/1.1/"
   xmlns:cc="http://creativecommons.org/ns#"
   xmlns:rdf="http://www.w3.org/1999/02/22-rdf-syntax-ns#"
   xmlns:svg="http://www.w3.org/2000/svg"
   xmlns="http://www.w3.org/2000/svg"
   xmlns:sodipodi="http://sodipodi.sourceforge.net/DTD/sodipodi-0.dtd"
   xmlns:inkscape="http://www.inkscape.org/namespaces/inkscape"
   id="svg2"
   version="1.1"
   inkscape:version="0.92.3 (2405546, 2018-03-11)"
   width="512"
   height="512"
   sodipodi:docname="nxclient-wizard.svg"
   viewBox="0 0 512 512">
  <metadata
     id="metadata8">
    <rdf:RDF>
      <cc:Work
         rdf:about="">
        <dc:format>image/svg+xml</dc:format>
        <dc:type
           rdf:resource="http://purl.org/dc/dcmitype/StillImage" />
        <dc:title />
      </cc:Work>
    </rdf:RDF>
  </metadata>
  <defs
     id="defs6" />
  <sodipodi:namedview
     pagecolor="#ffffff"
     bordercolor="#666666"
     borderopacity="1"
     objecttolerance="10"
     gridtolerance="10"
     guidetolerance="10"
     inkscape:pageopacity="0"
     inkscape:pageshadow="2"
     inkscape:window-width="1366"
     inkscape:window-height="718"
     id="namedview4"
     showgrid="false"
     inkscape:zoom="0.57452426"
     inkscape:cx="26.011861"
     inkscape:cy="257.57292"
     inkscape:window-x="0"
     inkscape:window-y="25"
     inkscape:window-maximized="1"
     inkscape:current-layer="svg2"
     showguides="true"
     inkscape:guide-bbox="true"
     inkscape:document-units="px" />
  <path
     style="fill:#cccccc;fill-opacity:1;fill-rule:evenodd;stroke:none;stroke-width:1.02230215"
     d=""
     id="path3783"
     inkscape:connector-curvature="0" />
  <g
     id="g828">
    <path
       id="path901"
       d="M 432.91381,56.473974 C 535.10672,145.04856 538.74059,306.17368 441.03061,416.37276 343.32045,526.57184 181.27967,544.10061 79.086757,455.52602 -23.106193,366.95143 -26.740053,205.82631 70.969957,95.627234 168.67993,-14.57185 330.72064,-32.10062 432.91381,56.473974 Z"
       inkscape:connector-curvature="0"
       style="fill:#68b723;fill-opacity:1;stroke-width:11.10955811" />
    <path
       id="path903"
       d="m 511.63554,224.90352 c -1.5514,61.31166 -25.16123,124.1546 -70.96638,175.81449 C 342.95919,510.9171 180.91872,528.44585 78.725812,439.87127 30.827158,398.35564 4.4968559,340.92283 0.193862,280.22879 0.79911356,346.58547 27.117445,410.48219 79.078716,455.51904 181.27163,544.09362 343.31978,526.5562 441.02206,416.36578 490.727,360.30764 514.02708,291.07481 511.63554,224.90352 Z"
       inkscape:connector-curvature="0"
       style="opacity:1;fill:#000000;fill-opacity:0.49019608;stroke-width:11.10955811" />
    <path
       style="fill:#000000;fill-opacity:0.49019608;stroke-width:0.49873799"
       d="m 185.2585,430.95262 c -1.29113,-0.66632 -2.87337,-2.0693 -3.74054,-3.31684 l -1.50289,-2.16211 V 409.1824 c 0,-8.96019 0.17157,-16.90428 0.38126,-17.65364 0.52795,-1.88653 3.26928,-4.88513 5.20574,-5.69417 4.55248,-1.90218 9.36031,-0.0817 11.66801,4.41837 0.87573,1.7076 0.94894,3.10945 0.94894,18.17111 0,15.39544 -0.0575,16.43967 -1.01502,18.41753 -2.17332,4.48951 -7.59589,6.35572 -11.9455,4.11102 z m 43.57501,0.16326 c -2.80315,-1.31108 -4.57209,-3.79222 -5.22616,-7.33052 -0.3362,-1.81868 -0.47329,-8.37159 -0.36409,-17.40427 0.1908,-15.78414 0.22272,-15.96986 3.23461,-18.81961 3.58925,-3.39592 9.42343,-3.20941 12.6828,0.4056 2.58553,2.86767 2.69792,3.71688 2.69792,20.38506 0,13.81025 -0.0978,15.71436 -0.91633,17.83584 -1.80789,4.68579 -7.59281,7.04009 -12.10875,4.9279 z m 43.25924,-0.12707 c -1.39478,-0.70852 -2.70122,-1.92521 -3.61586,-3.36744 l -1.43203,-2.25809 v -16.57763 c 0,-10.50034 0.19446,-17.09227 0.53047,-17.98164 0.72188,-1.91058 2.87411,-4.12612 4.81494,-4.9566 4.57951,-1.95948 10.3622,0.41354 12.07869,4.9566 0.33526,0.88733 0.53046,7.39065 0.53046,17.67247 0,15.55882 -0.0462,16.36378 -1.0579,18.45372 -2.1371,4.41463 -7.519,6.25816 -11.84877,4.05861 z m 44.42815,0.5574 c -2.46225,-1.04627 -4.559,-3.13043 -5.43612,-5.40338 -0.79686,-2.06499 -0.89909,-4.08788 -0.89909,-17.79069 0,-16.66818 0.11243,-17.51739 2.69791,-20.38506 0.7106,-0.78817 2.01419,-1.74198 2.89687,-2.11967 2.0908,-0.89459 5.80715,-0.87689 7.57252,0.0363 1.83425,0.94848 4.42475,3.93018 4.90475,5.64539 0.20969,0.74925 0.38125,8.54426 0.38125,17.32201 0,15.21732 -0.0484,16.05234 -1.04189,17.95452 -2.02066,3.86903 -7.55422,6.2375 -11.0762,4.74081 z m 43.3902,0 c -2.28903,-0.97275 -4.51929,-3.09016 -5.29388,-5.02603 -0.66664,-1.66608 -0.79196,-4.54567 -0.79196,-18.19811 0,-14.96136 0.0735,-16.36219 0.94894,-18.06911 1.14548,-2.23358 2.80269,-3.8435 4.69433,-4.56019 1.99091,-0.75436 5.63176,-0.65895 7.27466,0.1906 1.83426,0.94859 4.42476,3.93018 4.90475,5.64539 0.20969,0.74936 0.38125,8.65646 0.38125,17.57138 0,16.19133 -0.001,16.21118 -1.18358,18.11291 -2.27459,3.65879 -7.57691,5.75997 -10.93451,4.33316 z M 127.03097,371.7239 c -4.17643,-1.03255 -7.45304,-5.65139 -6.98087,-9.84059 0.32591,-2.89139 2.5692,-6.06335 5.10196,-7.21401 1.79879,-0.81721 3.61845,-0.9082 18.35033,-0.91807 15.10646,-0.0114 16.49464,0.0613 18.20393,0.93804 3.53956,1.81516 5.0922,4.35892 5.0922,8.34288 0,2.5213 -0.52372,3.77985 -2.42994,5.83951 -2.83493,3.06304 -2.8427,3.06418 -20.01327,3.16197 -8.64063,0.0488 -16.43659,-0.0908 -17.32434,-0.30973 z m 75.17795,-0.0113 c -3.55524,-0.44871 -7.79996,-2.12535 -11.06288,-4.36993 -4.94589,-3.40216 -7.83375,-7.33189 -10.2557,-13.95548 -0.82005,-2.24277 -0.87527,-7.12891 -0.87527,-77.45383 v -75.06004 l 1.39736,-3.56928 c 2.93388,-7.49424 6.26038,-11.28986 12.83286,-14.64289 5.76504,-2.94108 -0.40375,-2.73482 81.77685,-2.73482 70.32485,0 75.21107,0.0556 77.45379,0.8753 8.84587,3.23447 13.83959,8.02634 17.13176,16.43911 l 1.4215,3.63258 v 75.06004 c 0,70.32492 -0.0553,75.21106 -0.87525,77.45383 -3.31829,9.07501 -8.08749,13.91066 -17.40698,17.64967 -2.02184,0.81109 -7.04601,0.87406 -75.4805,0.94553 -40.32296,0.042 -74.54885,-0.0794 -76.05754,-0.26979 z m 157.10246,-27.70152 c 0,-8.36625 -0.11593,-15.21142 -0.25761,-15.21142 -0.14169,0 -6.98687,6.72922 -15.21151,14.95388 -8.22465,8.22466 -14.9539,15.06983 -14.9539,15.21153 0,0.14159 6.84518,0.25754 15.21151,0.25754 h 15.21151 z m -49.36754,-18.2242 c 8.1523,-3.179 13.46978,-8.71581 16.26595,-16.93684 0.87098,-2.56078 0.93299,-4.74829 0.93299,-32.91668 0,-28.16838 -0.0621,-30.35601 -0.93299,-32.91668 -2.79617,-8.22103 -8.11365,-13.75782 -16.26595,-16.93682 l -3.24932,-1.26717 h -30.67238 -30.67239 l -3.24931,1.26717 c -8.15229,3.179 -13.46978,8.71579 -16.26596,16.93682 -0.87098,2.56067 -0.93298,4.7483 -0.93298,32.91668 0,28.16839 0.0621,30.3559 0.93298,32.91668 3.22606,9.4848 10.49479,16.00663 20.01401,17.95736 1.09723,0.22487 15.23644,0.37236 31.4205,0.32777 l 29.42553,-0.0817 z m 81.6046,45.68848 c -3.80033,-1.38664 -6.30269,-4.74353 -6.30269,-8.45497 0,-3.97567 1.55508,-6.52103 5.0922,-8.33494 1.7093,-0.87666 3.09746,-0.94814 18.20393,-0.93804 18.63507,0.0125 19.1556,0.10551 21.7909,3.90862 2.97756,4.29664 1.88232,9.65703 -2.61151,12.78145 l -2.16155,1.50293 -16.04239,0.1189 c -12.78838,0.0942 -16.43316,-0.0238 -17.96889,-0.58395 z m -264.08159,-43.194 c -4.58959,-0.94178 -7.91886,-5.33735 -7.41675,-9.79214 0.33872,-3.00507 2.56376,-6.06143 5.35317,-7.35311 2.12435,-0.98376 3.08415,-1.03924 17.95457,-1.03924 16.93772,0 17.76157,0.10778 20.63436,2.69784 1.86942,1.68559 2.80632,3.954 2.80632,6.7949 0,2.56895 -0.51659,3.8207 -2.42994,5.88795 -2.82594,3.05329 -2.89396,3.06441 -19.51454,3.16141 -8.36632,0.0488 -16.19056,-0.11232 -17.38719,-0.35761 z m 266.00808,0.19152 c -0.54861,-0.11607 -1.49833,-0.31768 -2.11048,-0.44815 -1.44721,-0.30837 -4.47511,-2.97966 -5.39606,-4.76055 -0.9129,-1.76536 -0.93054,-5.48179 -0.036,-7.57253 0.37768,-0.88267 1.33152,-2.18627 2.11964,-2.89694 2.8728,-2.59017 3.69665,-2.69784 20.63436,-2.69784 14.87042,0 15.83023,0.0556 17.95457,1.03924 8.01359,3.71087 6.67735,15.12361 -2.00494,17.12415 -2.12117,0.48876 -28.98839,0.67211 -31.16113,0.21262 z M 141.11352,284.91053 c -16.87627,-0.28126 -17.08453,-0.32471 -19.5776,-4.09208 -1.97915,-2.99066 -1.941,-6.88873 0.0962,-9.82834 2.76891,-3.99553 2.97652,-4.0341 21.72188,-4.0341 17.92387,0 18.49058,0.076 21.0438,2.80629 1.66512,1.7809 2.40074,3.67173 2.40074,6.17102 0,2.50463 -0.73873,4.39784 -2.40074,6.15242 -2.84498,3.00348 -4.01893,3.14587 -23.28427,2.82479 z m 249.36899,-0.70682 c -3.16323,-1.41194 -5.23676,-4.6867 -5.23676,-8.27039 0,-2.49929 0.73562,-4.39012 2.40075,-6.17102 2.5538,-2.7313 3.11682,-2.80629 21.0807,-2.80629 16.05373,0 16.58693,0.0318 18.46247,1.08542 6.15849,3.46127 6.44011,11.6806 0.52866,15.42947 l -2.27009,1.43963 -16.73476,-0.0193 c -12.86972,-0.0148 -17.08033,-0.17381 -18.23097,-0.68742 z M 128.64507,241.70874 c -3.54446,-0.82742 -5.32599,-1.88391 -6.80754,-4.03728 -2.88538,-4.19373 -2.16569,-9.35375 1.71781,-12.31582 2.65776,-2.02721 6.50343,-2.40399 22.46312,-2.20124 15.30092,0.19434 15.5821,0.24392 18.35012,3.23458 1.90622,2.05966 2.42994,3.31821 2.42994,5.83951 0,2.81117 -0.68527,4.65662 -2.40073,6.46497 -2.76208,2.9117 -3.44908,3.02073 -19.79311,3.1394 -8.22917,0.0601 -15.411,0 -15.95961,-0.12412 z m 264.5805,-0.15781 c -2.76826,-0.62162 -4.14155,-1.32266 -5.57907,-2.84817 -1.71704,-1.82196 -2.40075,-3.66583 -2.40075,-6.47427 0,-2.5213 0.52373,-3.77985 2.42995,-5.83951 2.76802,-2.99066 3.04919,-3.04024 18.35011,-3.23458 15.9597,-0.20275 19.80537,0.17403 22.46313,2.20124 3.87595,2.95629 4.60278,8.12265 1.73015,12.29789 -2.68707,3.90545 -3.49492,4.0703 -20.53517,4.18784 -8.09202,0.0556 -15.49829,-0.0749 -16.45835,-0.29044 z M 125.15206,197.2011 c -2.66152,-1.20908 -4.82167,-4.36255 -5.09222,-7.43377 -0.27614,-3.13463 1.34839,-6.3117 4.26358,-8.33823 l 2.16196,-1.50281 h 16.29135 c 8.96025,0 16.90443,0.17154 17.65374,0.3812 1.7152,0.48003 4.69688,3.07054 5.64543,4.90476 0.84957,1.64293 0.945,5.2838 0.19066,7.2747 -0.71673,1.89163 -2.32659,3.54886 -4.56024,4.6943 -1.70929,0.87655 -3.09747,0.94814 -18.20393,0.93793 -14.73188,-0.0114 -16.55154,-0.10098 -18.35033,-0.91808 z m 265.33045,0.10098 c -3.61071,-1.90354 -5.23676,-4.51391 -5.23676,-8.40676 0,-1.25673 0.32519,-2.91397 0.72264,-3.68251 0.94854,-1.83422 3.93021,-4.42472 5.64542,-4.90475 0.74931,-0.20966 8.69343,-0.38121 17.6536,-0.38121 h 16.29123 l 2.16209,1.50282 c 4.49434,3.12409 5.58983,8.48459 2.61205,12.78156 -2.64044,3.81015 -3.14009,3.89887 -21.89571,3.88854 -14.03166,-0.0113 -16.67896,-0.12525 -17.95456,-0.79769 z M 185.49192,166.01517 c -1.85801,-0.8095 -4.58381,-3.84423 -5.09559,-5.67298 -0.20969,-0.74931 -0.38126,-8.69349 -0.38126,-17.65374 v -16.29134 l 1.50289,-2.16196 c 3.12417,-4.49423 8.48465,-5.58966 12.78151,-2.61193 3.80275,2.6353 3.89611,3.15582 3.90859,21.79089 0.0102,15.10648 -0.0614,16.49465 -0.93798,18.20394 -2.30614,4.49684 -7.28416,6.35534 -11.77816,4.39712 z m 42.87949,-0.23406 c -1.95131,-1.18991 -4.11482,-3.76614 -4.59221,-5.4682 -0.20565,-0.7332 -0.37392,-8.51493 -0.37392,-17.29272 0,-15.21728 0.0485,-16.05241 1.0419,-17.95456 0.57304,-1.09723 1.99507,-2.66825 3.16008,-3.49117 4.60674,-3.25406 11.28862,-1.19533 13.335,4.10859 0.81851,2.12144 0.91633,4.02564 0.91633,17.83588 0,16.66818 -0.11244,17.51739 -2.69792,20.38499 -2.55299,2.83157 -7.74343,3.73467 -10.78926,1.87719 z m 43.91019,0.22226 c -1.85865,-0.82958 -4.0054,-3.08134 -4.70627,-4.93639 -0.33569,-0.88847 -0.53047,-7.44264 -0.53047,-17.84976 0,-18.63326 0.0511,-18.91312 3.94074,-21.60869 4.31857,-2.99277 9.72588,-1.86217 12.57418,2.62913 l 1.43964,2.2701 v 16.5776 c 0,10.50028 -0.19447,17.09232 -0.53046,17.98162 -0.72189,1.91061 -2.87412,4.12621 -4.81495,4.95658 -2.01481,0.86203 -5.41667,0.85273 -7.37241,-0.0204 z m 43.39021,0 c -0.82292,-0.36737 -2.07761,-1.31233 -2.78821,-2.10013 -2.59011,-2.87132 -2.69791,-3.69583 -2.69791,-20.63368 0,-14.87041 0.0556,-15.83023 1.03929,-17.95457 1.54247,-3.33096 4.5363,-5.23675 8.22644,-5.23675 2.38283,0 3.2254,0.25286 4.98561,1.49622 1.165,0.82292 2.58703,2.39394 3.16007,3.49117 0.99343,1.90215 1.04189,2.73728 1.04189,17.95456 0,8.77779 -0.17156,16.57269 -0.38125,17.322 -0.48,1.7152 -3.0705,4.69693 -4.90475,5.64541 -1.73418,0.89674 -5.68921,0.90491 -7.68118,0.0159 z m 43.63982,0.14658 c -1.75604,-0.70024 -3.4297,-2.37185 -4.53743,-4.5319 -0.87635,-1.70884 -0.94894,-3.11252 -0.94894,-18.34849 0,-18.70476 0.0471,-18.96277 3.96108,-21.67512 4.25373,-2.94784 9.62971,-1.83352 12.73997,2.64071 l 1.50288,2.16196 v 16.29134 c 0,8.96025 -0.17156,16.90443 -0.38125,17.65374 -0.52795,1.88657 -3.26927,4.88515 -5.20574,5.69419 -1.86343,0.77864 -5.32449,0.83378 -7.13057,0.11357 z"
       id="path874"
       inkscape:connector-curvature="0" />
    <path
       inkscape:connector-curvature="0"
       id="path870"
       d="m 165.2585,410.95262 c -1.29113,-0.66632 -2.87337,-2.0693 -3.74054,-3.31684 l -1.50289,-2.16211 V 389.1824 c 0,-8.96019 0.17157,-16.90428 0.38126,-17.65364 0.52795,-1.88653 3.26928,-4.88513 5.20574,-5.69417 4.55248,-1.90218 9.36031,-0.0817 11.66801,4.41837 0.87573,1.7076 0.94894,3.10945 0.94894,18.17111 0,15.39544 -0.0575,16.43967 -1.01502,18.41753 -2.17332,4.48951 -7.59589,6.35572 -11.9455,4.11102 z m 43.57501,0.16326 c -2.80315,-1.31108 -4.57209,-3.79222 -5.22616,-7.33052 -0.3362,-1.81868 -0.47329,-8.37159 -0.36409,-17.40427 0.1908,-15.78414 0.22272,-15.96986 3.23461,-18.81961 3.58925,-3.39592 9.42343,-3.20941 12.6828,0.4056 2.58553,2.86767 2.69792,3.71688 2.69792,20.38506 0,13.81025 -0.0978,15.71436 -0.91633,17.83584 -1.80789,4.68579 -7.59281,7.04009 -12.10875,4.9279 z m 43.25924,-0.12707 c -1.39478,-0.70852 -2.70122,-1.92521 -3.61586,-3.36744 l -1.43203,-2.25809 v -16.57763 c 0,-10.50034 0.19446,-17.09227 0.53047,-17.98164 0.72188,-1.91058 2.87411,-4.12612 4.81494,-4.9566 4.57951,-1.95948 10.3622,0.41354 12.07869,4.9566 0.33526,0.88733 0.53046,7.39065 0.53046,17.67247 0,15.55882 -0.0462,16.36378 -1.0579,18.45372 -2.1371,4.41463 -7.519,6.25816 -11.84877,4.05861 z m 44.42815,0.5574 c -2.46225,-1.04627 -4.559,-3.13043 -5.43612,-5.40338 -0.79686,-2.06499 -0.89909,-4.08788 -0.89909,-17.79069 0,-16.66818 0.11243,-17.51739 2.69791,-20.38506 0.7106,-0.78817 2.01419,-1.74198 2.89687,-2.11967 2.0908,-0.89459 5.80715,-0.87689 7.57252,0.0363 1.83425,0.94848 4.42475,3.93018 4.90475,5.64539 0.20969,0.74925 0.38125,8.54426 0.38125,17.32201 0,15.21732 -0.0484,16.05234 -1.04189,17.95452 -2.02066,3.86903 -7.55422,6.2375 -11.0762,4.74081 z m 43.3902,0 c -2.28903,-0.97275 -4.51929,-3.09016 -5.29388,-5.02603 -0.66664,-1.66608 -0.79196,-4.54567 -0.79196,-18.19811 0,-14.96136 0.0735,-16.36219 0.94894,-18.06911 1.14548,-2.23358 2.80269,-3.8435 4.69433,-4.56019 1.99091,-0.75436 5.63176,-0.65895 7.27466,0.1906 1.83426,0.94859 4.42476,3.93018 4.90475,5.64539 0.20969,0.74936 0.38125,8.65646 0.38125,17.57138 0,16.19133 -0.001,16.21118 -1.18358,18.11291 -2.27459,3.65879 -7.57691,5.75997 -10.93451,4.33316 z M 107.03097,351.7239 c -4.17643,-1.03255 -7.45304,-5.65139 -6.98087,-9.84059 0.32591,-2.89139 2.5692,-6.06335 5.10196,-7.21401 1.79879,-0.81721 3.61845,-0.9082 18.35033,-0.91807 15.10646,-0.0114 16.49464,0.0613 18.20393,0.93804 3.53956,1.81516 5.0922,4.35892 5.0922,8.34288 0,2.5213 -0.52372,3.77985 -2.42994,5.83951 -2.83493,3.06304 -2.8427,3.06418 -20.01327,3.16197 -8.64063,0.0488 -16.43659,-0.0908 -17.32434,-0.30973 z m 75.17795,-0.0113 c -3.55524,-0.44871 -7.79996,-2.12535 -11.06288,-4.36993 -4.94589,-3.40216 -7.83375,-7.33189 -10.2557,-13.95548 -0.82005,-2.24277 -0.87527,-7.12891 -0.87527,-77.45383 v -75.06004 l 1.39736,-3.56928 c 2.93388,-7.49424 6.26038,-11.28986 12.83286,-14.64289 5.76504,-2.94108 -0.40375,-2.73482 81.77685,-2.73482 70.32485,0 75.21107,0.0556 77.45379,0.8753 8.84587,3.23447 13.83959,8.02634 17.13176,16.43911 l 1.4215,3.63258 v 75.06004 c 0,70.32492 -0.0553,75.21106 -0.87525,77.45383 -3.31829,9.07501 -8.08749,13.91066 -17.40698,17.64967 -2.02184,0.81109 -7.04601,0.87406 -75.4805,0.94553 -40.32296,0.042 -74.54885,-0.0794 -76.05754,-0.26979 z m 157.10246,-27.70152 c 0,-8.36625 -0.11593,-15.21142 -0.25761,-15.21142 -0.14169,0 -6.98687,6.72922 -15.21151,14.95388 -8.22465,8.22466 -14.9539,15.06983 -14.9539,15.21153 0,0.14159 6.84518,0.25754 15.21151,0.25754 h 15.21151 z m -49.36754,-18.2242 c 8.1523,-3.179 13.46978,-8.71581 16.26595,-16.93684 0.87098,-2.56078 0.93299,-4.74829 0.93299,-32.91668 0,-28.16838 -0.0621,-30.35601 -0.93299,-32.91668 -2.79617,-8.22103 -8.11365,-13.75782 -16.26595,-16.93682 l -3.24932,-1.26717 h -30.67238 -30.67239 l -3.24931,1.26717 c -8.15229,3.179 -13.46978,8.71579 -16.26596,16.93682 -0.87098,2.56067 -0.93298,4.7483 -0.93298,32.91668 0,28.16839 0.0621,30.3559 0.93298,32.91668 3.22606,9.4848 10.49479,16.00663 20.01401,17.95736 1.09723,0.22487 15.23644,0.37236 31.4205,0.32777 l 29.42553,-0.0817 z m 81.6046,45.68848 c -3.80033,-1.38664 -6.30269,-4.74353 -6.30269,-8.45497 0,-3.97567 1.55508,-6.52103 5.0922,-8.33494 1.7093,-0.87666 3.09746,-0.94814 18.20393,-0.93804 18.63507,0.0125 19.1556,0.10551 21.7909,3.90862 2.97756,4.29664 1.88232,9.65703 -2.61151,12.78145 l -2.16155,1.50293 -16.04239,0.1189 c -12.78838,0.0942 -16.43316,-0.0238 -17.96889,-0.58395 z m -264.08159,-43.194 c -4.58959,-0.94178 -7.91886,-5.33735 -7.41675,-9.79214 0.33872,-3.00507 2.56376,-6.06143 5.35317,-7.35311 2.12435,-0.98376 3.08415,-1.03924 17.95457,-1.03924 16.93772,0 17.76157,0.10778 20.63436,2.69784 1.86942,1.68559 2.80632,3.954 2.80632,6.7949 0,2.56895 -0.51659,3.8207 -2.42994,5.88795 -2.82594,3.05329 -2.89396,3.06441 -19.51454,3.16141 -8.36632,0.0488 -16.19056,-0.11232 -17.38719,-0.35761 z m 266.00808,0.19152 c -0.54861,-0.11607 -1.49833,-0.31768 -2.11048,-0.44815 -1.44721,-0.30837 -4.47511,-2.97966 -5.39606,-4.76055 -0.9129,-1.76536 -0.93054,-5.48179 -0.036,-7.57253 0.37768,-0.88267 1.33152,-2.18627 2.11964,-2.89694 2.8728,-2.59017 3.69665,-2.69784 20.63436,-2.69784 14.87042,0 15.83023,0.0556 17.95457,1.03924 8.01359,3.71087 6.67735,15.12361 -2.00494,17.12415 -2.12117,0.48876 -28.98839,0.67211 -31.16113,0.21262 z M 121.11352,264.91053 c -16.87627,-0.28126 -17.08453,-0.32471 -19.5776,-4.09208 -1.97915,-2.99066 -1.941,-6.88873 0.0962,-9.82834 2.76891,-3.99553 2.97652,-4.0341 21.72188,-4.0341 17.92387,0 18.49058,0.076 21.0438,2.80629 1.66512,1.7809 2.40074,3.67173 2.40074,6.17102 0,2.50463 -0.73873,4.39784 -2.40074,6.15242 -2.84498,3.00348 -4.01893,3.14587 -23.28427,2.82479 z m 249.36899,-0.70682 c -3.16323,-1.41194 -5.23676,-4.6867 -5.23676,-8.27039 0,-2.49929 0.73562,-4.39012 2.40075,-6.17102 2.5538,-2.7313 3.11682,-2.80629 21.0807,-2.80629 16.05373,0 16.58693,0.0318 18.46247,1.08542 6.15849,3.46127 6.44011,11.6806 0.52866,15.42947 l -2.27009,1.43963 -16.73476,-0.0193 c -12.86972,-0.0148 -17.08033,-0.17381 -18.23097,-0.68742 z M 108.64507,221.70874 c -3.54446,-0.82742 -5.32599,-1.88391 -6.80754,-4.03728 -2.88538,-4.19373 -2.16569,-9.35375 1.71781,-12.31582 2.65776,-2.02721 6.50343,-2.40399 22.46312,-2.20124 15.30092,0.19434 15.5821,0.24392 18.35012,3.23458 1.90622,2.05966 2.42994,3.31821 2.42994,5.83951 0,2.81117 -0.68527,4.65662 -2.40073,6.46497 -2.76208,2.9117 -3.44908,3.02073 -19.79311,3.1394 -8.22917,0.0601 -15.411,0 -15.95961,-0.12412 z m 264.5805,-0.15781 c -2.76826,-0.62162 -4.14155,-1.32266 -5.57907,-2.84817 -1.71704,-1.82196 -2.40075,-3.66583 -2.40075,-6.47427 0,-2.5213 0.52373,-3.77985 2.42995,-5.83951 2.76802,-2.99066 3.04919,-3.04024 18.35011,-3.23458 15.9597,-0.20275 19.80537,0.17403 22.46313,2.20124 3.87595,2.95629 4.60278,8.12265 1.73015,12.29789 -2.68707,3.90545 -3.49492,4.0703 -20.53517,4.18784 -8.09202,0.0556 -15.49829,-0.0749 -16.45835,-0.29044 z M 105.15206,177.2011 c -2.66152,-1.20908 -4.82167,-4.36255 -5.09222,-7.43377 -0.27614,-3.13463 1.34839,-6.3117 4.26358,-8.33823 l 2.16196,-1.50281 h 16.29135 c 8.96025,0 16.90443,0.17154 17.65374,0.3812 1.7152,0.48003 4.69688,3.07054 5.64543,4.90476 0.84957,1.64293 0.945,5.2838 0.19066,7.2747 -0.71673,1.89163 -2.32659,3.54886 -4.56024,4.6943 -1.70929,0.87655 -3.09747,0.94814 -18.20393,0.93793 -14.73188,-0.0114 -16.55154,-0.10098 -18.35033,-0.91808 z m 265.33045,0.10098 c -3.61071,-1.90354 -5.23676,-4.51391 -5.23676,-8.40676 0,-1.25673 0.32519,-2.91397 0.72264,-3.68251 0.94854,-1.83422 3.93021,-4.42472 5.64542,-4.90475 0.74931,-0.20966 8.69343,-0.38121 17.6536,-0.38121 h 16.29123 l 2.16209,1.50282 c 4.49434,3.12409 5.58983,8.48459 2.61205,12.78156 -2.64044,3.81015 -3.14009,3.89887 -21.89571,3.88854 -14.03166,-0.0113 -16.67896,-0.12525 -17.95456,-0.79769 z M 165.49192,146.01517 c -1.85801,-0.8095 -4.58381,-3.84423 -5.09559,-5.67298 -0.20969,-0.74931 -0.38126,-8.69349 -0.38126,-17.65374 v -16.29134 l 1.50289,-2.16196 c 3.12417,-4.494228 8.48465,-5.589654 12.78151,-2.61193 3.80275,2.6353 3.89611,3.15582 3.90859,21.79089 0.0102,15.10648 -0.0614,16.49465 -0.93798,18.20394 -2.30614,4.49684 -7.28416,6.35534 -11.77816,4.39712 z m 42.87949,-0.23406 c -1.95131,-1.18991 -4.11482,-3.76614 -4.59221,-5.4682 -0.20565,-0.7332 -0.37392,-8.51493 -0.37392,-17.29272 0,-15.21728 0.0485,-16.05241 1.0419,-17.95456 0.57304,-1.09723 1.99507,-2.66825 3.16008,-3.49117 4.60674,-3.254057 11.28862,-1.19533 13.335,4.10859 0.81851,2.12144 0.91633,4.02564 0.91633,17.83588 0,16.66818 -0.11244,17.51739 -2.69792,20.38499 -2.55299,2.83157 -7.74343,3.73467 -10.78926,1.87719 z m 43.91019,0.22226 c -1.85865,-0.82958 -4.0054,-3.08134 -4.70627,-4.93639 -0.33569,-0.88847 -0.53047,-7.44264 -0.53047,-17.84976 0,-18.63326 0.0511,-18.91312 3.94074,-21.60869 4.31857,-2.99277 9.72588,-1.862162 12.57418,2.62913 l 1.43964,2.2701 v 16.5776 c 0,10.50028 -0.19447,17.09232 -0.53046,17.98162 -0.72189,1.91061 -2.87412,4.12621 -4.81495,4.95658 -2.01481,0.86203 -5.41667,0.85273 -7.37241,-0.0204 z m 43.39021,0 c -0.82292,-0.36737 -2.07761,-1.31233 -2.78821,-2.10013 -2.59011,-2.87132 -2.69791,-3.69583 -2.69791,-20.63368 0,-14.87041 0.0556,-15.83023 1.03929,-17.95457 1.54247,-3.33096 4.5363,-5.23675 8.22644,-5.23675 2.38283,0 3.2254,0.25286 4.98561,1.49622 1.165,0.82292 2.58703,2.39394 3.16007,3.49117 0.99343,1.90215 1.04189,2.73728 1.04189,17.95456 0,8.77779 -0.17156,16.57269 -0.38125,17.322 -0.48,1.7152 -3.0705,4.69693 -4.90475,5.64541 -1.73418,0.89674 -5.68921,0.90491 -7.68118,0.0159 z m 43.63982,0.14658 c -1.75604,-0.70024 -3.4297,-2.37185 -4.53743,-4.5319 -0.87635,-1.70884 -0.94894,-3.11252 -0.94894,-18.34849 0,-18.70476 0.0471,-18.96277 3.96108,-21.67512 4.25373,-2.947832 9.62971,-1.833516 12.73997,2.64071 l 1.50288,2.16196 v 16.29134 c 0,8.96025 -0.17156,16.90443 -0.38125,17.65374 -0.52795,1.88657 -3.26927,4.88515 -5.20574,5.69419 -1.86343,0.77864 -5.32449,0.83378 -7.13057,0.11357 z"
       style="fill:#ffffff;stroke-width:0.49873799" />
  </g>
</svg>
