<?xml version="1.0" encoding="UTF-8" standalone="no"?>
<!-- Generator: Adobe Illustrator 19.0.0, SVG Export Plug-In . SVG Version: 6.00 Build 0)  -->

<svg
   xmlns:dc="http://purl.org/dc/elements/1.1/"
   xmlns:cc="http://creativecommons.org/ns#"
   xmlns:rdf="http://www.w3.org/1999/02/22-rdf-syntax-ns#"
   xmlns:svg="http://www.w3.org/2000/svg"
   xmlns="http://www.w3.org/2000/svg"
   xmlns:sodipodi="http://sodipodi.sourceforge.net/DTD/sodipodi-0.dtd"
   xmlns:inkscape="http://www.inkscape.org/namespaces/inkscape"
   version="1.1"
   id="Layer_1"
   x="0px"
   y="0px"
   viewBox="0 0 512 512"
   xml:space="preserve"
   inkscape:version="0.92.2 2405546, 2018-03-11"
   width="512"
   height="512"
   sodipodi:docname="omegat.svg"><metadata
     id="metadata57"><rdf:RDF><cc:Work
         rdf:about=""><dc:format>image/svg+xml</dc:format><dc:type
           rdf:resource="http://purl.org/dc/dcmitype/StillImage" /><dc:title></dc:title></cc:Work></rdf:RDF></metadata><defs
     id="defs55" /><sodipodi:namedview
     pagecolor="#ffffff"
     bordercolor="#666666"
     borderopacity="1"
     objecttolerance="10"
     gridtolerance="10"
     guidetolerance="10"
     inkscape:pageopacity="0"
     inkscape:pageshadow="2"
     inkscape:window-width="1366"
     inkscape:window-height="700"
     id="namedview53"
     showgrid="false"
     inkscape:zoom="0.26279754"
     inkscape:cx="416.54767"
     inkscape:cy="252.60951"
     inkscape:window-x="0"
     inkscape:window-y="0"
     inkscape:window-maximized="1"
     inkscape:current-layer="Layer_1"
     units="px"
     inkscape:snap-global="true" /><g
     id="g23"
     transform="translate(0,550.767)" /><g
     id="g25"
     transform="translate(0,550.767)" /><g
     id="g27"
     transform="translate(0,550.767)" /><g
     id="g29"
     transform="translate(0,550.767)" /><g
     id="g31"
     transform="translate(0,550.767)" /><g
     id="g33"
     transform="translate(0,550.767)" /><g
     id="g35"
     transform="translate(0,550.767)" /><g
     id="g37"
     transform="translate(0,550.767)" /><g
     id="g39"
     transform="translate(0,550.767)" /><g
     id="g41"
     transform="translate(0,550.767)" /><g
     id="g43"
     transform="translate(0,550.767)" /><g
     id="g45"
     transform="translate(0,550.767)" /><g
     id="g47"
     transform="translate(0,550.767)" /><g
     id="g49"
     transform="translate(0,550.767)" /><g
     id="g51"
     transform="translate(0,550.767)" /><g
     id="g870"><path
       style="fill:#3689e6;fill-opacity:1;stroke-width:11.10955811"
       inkscape:connector-curvature="0"
       d="M 432.91322,56.473985 C 535.10617,145.0487 538.74009,306.17382 441.03002,416.37285 343.31994,526.57187 181.27962,544.10051 79.086658,455.52613 -23.106292,366.95142 -26.739896,205.8263 70.969858,95.627265 168.67994,-14.571775 330.72026,-32.100735 432.91322,56.473985 Z"
       id="path52" /><path
       style="opacity:1;fill:#000000;fill-opacity:0.49019608;stroke-width:11.10955811"
       inkscape:connector-curvature="0"
       d="M 511.63545,224.90342 C 510.08345,286.2151 486.47418,349.0583 440.66906,400.71814 342.9593,510.91716 180.91866,528.44579 78.725698,439.87141 30.827138,398.35558 4.4969077,340.92294 0.19386776,280.22886 c 0.6048,66.3568 26.92352024,130.25343 78.88479024,175.29023 102.192962,88.5747 264.240962,71.0371 361.943362,-39.15328 49.70495,-56.05823 73.00511,-125.29087 70.61343,-191.46239 z"
       id="path54" /><g
       style="fill:#000000;fill-opacity:0.49019608"
       transform="translate(20,20)"
       id="g860"><path
         inkscape:connector-curvature="0"
         id="path856"
         d="m 253.68359,136.58008 c -1.76654,-0.0169 -3.55462,-0.015 -5.36523,0.006 -115.87899,1.33492 -137.58424,84.54022 -136.48438,136.03515 1.09985,51.49492 64.44532,91.9375 64.44532,91.9375 L 132.22852,361.87695 119.01367,341 103.5,340.42578 l 8.23633,70.86328 108.59179,0.38282 4.98047,-9.38477 c 0,0 -48.63108,-85.99924 -45.78125,-141.69531 2.84982,-55.69607 20.87487,-100.41773 68.79688,-100.75782 4.59523,-0.0326 9.00562,0.36273 13.22656,1.14258 l -0.83008,-8.2832 17.82032,-14.51367 c -7.75946,-0.96697 -16.03496,-1.51538 -24.85743,-1.59961 z m 109.35938,45.1582 -0.52735,0.006 -0.62109,54.83398 c 0,0 -5.26397,32.01856 11.05078,39.37305 4.78276,2.15601 8.83875,2.41444 12.19141,1.71485 0.98494,-4.25855 1.62118,-8.57901 1.81836,-12.94141 1.17118,-25.91115 -4.31054,-57.59983 -23.91211,-82.98633 z M 308.74609,322.94531 C 293.28363,364.51087 272.16016,403.875 272.16016,403.875 l 5.6875,8.125 107.52929,-0.27148 10.29297,-71.23438 -16.25195,0.27148 -13,21.39649 -47.12891,2.16797 c 0,0 16.81528,-12.08346 33.68946,-30.86719 -7.61802,0.92628 -15.42938,0.69807 -23.125,-1.26953 -8.8537,-2.2637 -15.7372,-5.52707 -21.10743,-9.24805 z"
         style="fill:#000000;fill-opacity:0.49019608;fill-rule:evenodd;stroke:none;stroke-width:1.13887835px;stroke-linecap:butt;stroke-linejoin:miter;stroke-opacity:1" /><path
         sodipodi:nodetypes="cccccccccczcczcc"
         inkscape:connector-curvature="0"
         id="path858"
         d="m 297.24367,172.58898 -24.91861,-0.27084 -2.43769,-13.81359 71.50559,-58.23372 14.35528,-0.270846 -0.5417,44.961846 h 54.1709 l -7.85478,27.89801 -47.94126,0.54171 -0.5417,79.36037 c 0,0 0.64309,27.97305 14.89699,34.39853 14.25391,6.42548 28.16887,-4.60453 28.16887,-4.60453 l 7.58393,12.73017 c 0,0 -37.2918,29.27572 -73.40157,20.04323 -36.10977,-9.23249 -34.94023,-37.37792 -34.94023,-37.37792 z"
         style="fill:#000000;fill-opacity:0.49019608;fill-rule:evenodd;stroke:none;stroke-width:1.13887835px;stroke-linecap:butt;stroke-linejoin:miter;stroke-opacity:1" /></g><g
       id="g854"><path
         style="fill:#ffffff;fill-opacity:1;fill-rule:evenodd;stroke:none;stroke-width:1.13887835px;stroke-linecap:butt;stroke-linejoin:miter;stroke-opacity:1"
         d="M 253.68359 136.58008 C 251.91705 136.56321 250.12897 136.56508 248.31836 136.58594 C 132.43937 137.92086 110.73412 221.12616 111.83398 272.62109 C 112.93383 324.11601 176.2793 364.55859 176.2793 364.55859 L 132.22852 361.87695 L 119.01367 341 L 103.5 340.42578 L 111.73633 411.28906 L 220.32812 411.67188 L 225.30859 402.28711 C 225.30859 402.28711 176.67751 316.28787 179.52734 260.5918 C 182.37716 204.89573 200.40221 160.17407 248.32422 159.83398 C 252.91945 159.80137 257.32984 160.19671 261.55078 160.97656 L 260.7207 152.69336 L 278.54102 138.17969 C 270.78156 137.21272 262.50606 136.66431 253.68359 136.58008 z M 363.04297 181.73828 L 362.51562 181.74414 L 361.89453 236.57812 C 361.89453 236.57812 356.63056 268.59668 372.94531 275.95117 C 377.72807 278.10718 381.78406 278.36561 385.13672 277.66602 C 386.12166 273.40747 386.7579 269.08701 386.95508 264.72461 C 388.12626 238.81346 382.64454 207.12478 363.04297 181.73828 z M 308.74609 322.94531 C 293.28363 364.51087 272.16016 403.875 272.16016 403.875 L 277.84766 412 L 385.37695 411.72852 L 395.66992 340.49414 L 379.41797 340.76562 L 366.41797 362.16211 L 319.28906 364.33008 C 319.28906 364.33008 336.10434 352.24662 352.97852 333.46289 C 345.3605 334.38917 337.54914 334.16096 329.85352 332.19336 C 320.99982 329.92966 314.11632 326.66629 308.74609 322.94531 z "
         id="path3363" /><path
         style="fill:#ffffff;fill-opacity:1;fill-rule:evenodd;stroke:none;stroke-width:1.13887835px;stroke-linecap:butt;stroke-linejoin:miter;stroke-opacity:1"
         d="m 297.24367,172.58898 -24.91861,-0.27084 -2.43769,-13.81359 71.50559,-58.23372 14.35528,-0.270846 -0.5417,44.961846 h 54.1709 l -7.85478,27.89801 -47.94126,0.54171 -0.5417,79.36037 c 0,0 0.64309,27.97305 14.89699,34.39853 14.25391,6.42548 28.16887,-4.60453 28.16887,-4.60453 l 7.58393,12.73017 c 0,0 -37.2918,29.27572 -73.40157,20.04323 -36.10977,-9.23249 -34.94023,-37.37792 -34.94023,-37.37792 z"
         id="path4165"
         inkscape:connector-curvature="0"
         sodipodi:nodetypes="cccccccccczcczcc" /></g></g></svg>