<?xml version="1.0" encoding="UTF-8" standalone="no"?>
<svg
   xmlns:dc="http://purl.org/dc/elements/1.1/"
   xmlns:cc="http://creativecommons.org/ns#"
   xmlns:rdf="http://www.w3.org/1999/02/22-rdf-syntax-ns#"
   xmlns:svg="http://www.w3.org/2000/svg"
   xmlns="http://www.w3.org/2000/svg"
   xmlns:xlink="http://www.w3.org/1999/xlink"
   xmlns:sodipodi="http://sodipodi.sourceforge.net/DTD/sodipodi-0.dtd"
   xmlns:inkscape="http://www.inkscape.org/namespaces/inkscape"
   height="512"
   width="512"
   version="1.1"
   id="svg2"
   inkscape:version="0.92.2 2405546, 2018-03-11"
   sodipodi:docname="onboard.svg">
  <metadata
     id="metadata108">
    <rdf:RDF>
      <cc:Work
         rdf:about="">
        <dc:format>image/svg+xml</dc:format>
        <dc:type
           rdf:resource="http://purl.org/dc/dcmitype/StillImage" />
        <dc:title></dc:title>
      </cc:Work>
    </rdf:RDF>
  </metadata>
  <sodipodi:namedview
     pagecolor="#ffffff"
     bordercolor="#666666"
     borderopacity="1"
     objecttolerance="10"
     gridtolerance="10"
     guidetolerance="10"
     inkscape:pageopacity="0"
     inkscape:pageshadow="2"
     inkscape:window-width="1238"
     inkscape:window-height="684"
     id="namedview106"
     showgrid="false"
     inkscape:zoom="0.43457605"
     inkscape:cx="665.1122"
     inkscape:cy="273.08424"
     inkscape:window-x="15"
     inkscape:window-y="14"
     inkscape:window-maximized="0"
     inkscape:current-layer="svg2" />
  <defs
     id="defs4">
    <linearGradient
       id="linearGradient3328"
       y2="22"
       gradientUnits="userSpaceOnUse"
       x2="10"
       x1="10">
      <stop
         stop-color="#fff"
         offset="0"
         id="stop7" />
      <stop
         stop-color="#fff"
         stop-opacity="0"
         offset=".13636"
         id="stop9" />
      <stop
         stop-opacity="0"
         offset=".81818"
         id="stop11" />
      <stop
         offset="1"
         id="stop13" />
    </linearGradient>
    <linearGradient
       id="linearGradient3328-2"
       y2="22"
       gradientUnits="userSpaceOnUse"
       gradientTransform="translate(0,25)"
       x2="10"
       x1="10">
      <stop
         stop-color="#fff"
         offset="0"
         id="stop16" />
      <stop
         stop-color="#fff"
         stop-opacity="0"
         offset=".13636"
         id="stop18" />
      <stop
         stop-opacity="0"
         offset=".81818"
         id="stop20" />
      <stop
         offset="1"
         id="stop22" />
    </linearGradient>
    <linearGradient
       id="linearGradient3328-7"
       y2="22"
       gradientUnits="userSpaceOnUse"
       gradientTransform="translate(25)"
       x2="10"
       x1="10">
      <stop
         stop-color="#fff"
         offset="0"
         id="stop25" />
      <stop
         stop-color="#fff"
         stop-opacity="0"
         offset=".13636"
         id="stop27" />
      <stop
         stop-opacity="0"
         offset=".81818"
         id="stop29" />
      <stop
         offset="1"
         id="stop31" />
    </linearGradient>
    <linearGradient
       id="linearGradient6815"
       y2="22"
       gradientUnits="userSpaceOnUse"
       gradientTransform="translate(25,25)"
       x2="10"
       x1="10">
      <stop
         stop-color="#fff"
         offset="0"
         id="stop34" />
      <stop
         stop-color="#fff"
         stop-opacity="0"
         offset=".13636"
         id="stop36" />
      <stop
         stop-opacity="0"
         offset=".81818"
         id="stop38" />
      <stop
         offset="1"
         id="stop40" />
    </linearGradient>
    <linearGradient
       inkscape:collect="always"
       xlink:href="#linearGradient6815"
       id="linearGradient3015"
       gradientUnits="userSpaceOnUse"
       gradientTransform="matrix(2.5100917,0,0,2.5100917,66.752292,66.829671)"
       x1="10"
       x2="10"
       y2="22" />
    <linearGradient
       inkscape:collect="always"
       xlink:href="#linearGradient3328-7"
       id="linearGradient3018"
       gradientUnits="userSpaceOnUse"
       gradientTransform="matrix(2.5100917,0,0,2.5100917,66.752292,4.077379)"
       x1="10"
       x2="10"
       y2="22" />
    <linearGradient
       inkscape:collect="always"
       xlink:href="#linearGradient3328-2"
       id="linearGradient3021"
       gradientUnits="userSpaceOnUse"
       gradientTransform="matrix(2.5100917,0,0,2.5100917,82.237172,49.859108)"
       x1="10"
       x2="10"
       y2="22" />
    <linearGradient
       inkscape:collect="always"
       xlink:href="#linearGradient3328"
       id="linearGradient3024"
       gradientUnits="userSpaceOnUse"
       x1="10"
       x2="10"
       y2="22"
       gradientTransform="matrix(2.5100917,0,0,2.5100917,4,4.077379)" />
  </defs>
  <g
     id="g4603">
    <path
       id="path881"
       d="m 432.91329,56.47397 c 102.19291,88.57459 105.82677,249.69971 8.1168,359.89879 C 343.32012,526.57182 181.27964,544.10062 79.086727,455.52602 -23.106181,366.95143 -26.740046,205.82631 70.969927,95.62723 168.6799,-14.57185 330.72038,-32.10062 432.91329,56.47397 Z"
       inkscape:connector-curvature="0"
       style="fill:#3689e6;fill-opacity:1;stroke-width:11.10955811" />
    <path
       id="path883"
       d="m 511.63551,224.90352 c -1.5514,61.31166 -25.16123,124.1546 -70.96638,175.81449 C 342.95916,510.91712 180.91869,528.44582 78.72578,439.87127 30.827126,398.35564 4.496824,340.92283 0.19383011,280.22879 0.79908167,346.58547 27.117413,410.48219 79.078684,455.51904 181.2716,544.09362 343.31975,526.55622 441.02203,416.36578 490.72697,360.30764 514.02705,291.07481 511.63551,224.90352 Z"
       inkscape:connector-curvature="0"
       style="opacity:1;fill:#000000;fill-opacity:0.49019608;stroke-width:11.10955811" />
    <g
       style="fill:#000000;fill-opacity:0.49019608"
       transform="translate(20,20.000015)"
       id="g4589">
      <path
         inkscape:connector-curvature="0"
         id="path4581"
         d="m 113.00173,100.00312 c -7.20196,0 -13.0016,5.79411 -13.0016,12.9961 V 236.4979 c 0,7.20196 5.79964,13.0016 13.0016,13.0016 h 123.49868 c 7.20198,0 13.00161,-5.79964 13.00161,-13.0016 V 112.99922 c 0,-7.20199 -5.79963,-12.9961 -13.00161,-12.9961 z m 38.65802,16.95933 c 10.66385,6e-5 19.01337,3.05185 25.05642,9.15394 6.04288,6.10227 9.0659,14.52985 9.0659,25.28214 -9e-5,10.723 -3.02327,19.13587 -9.0659,25.23808 -6.04305,6.10218 -14.39257,9.15394 -25.05642,9.15394 -10.63461,0 -18.98901,-3.05176 -25.06193,-9.15394 -6.04305,-6.10351 -9.0659,-14.51443 -9.0659,-25.23808 0,-10.75294 3.02285,-19.17996 9.0659,-25.28214 6.07228,-6.10217 14.42732,-9.15394 25.06193,-9.15394 z m 0,12.39609 c -5.21362,0 -9.25889,1.92298 -12.13189,5.77421 -2.87365,3.85058 -4.31002,9.27504 -4.31002,16.26578 -3e-5,6.96147 1.43662,12.36561 4.31002,16.2162 2.87331,3.85092 6.91824,5.77421 12.13189,5.77421 5.24308,0 9.29743,-1.92329 12.17043,-5.77421 2.87103,-3.84864 4.30999,-9.25473 4.30999,-16.2162 0,-6.99074 -1.43896,-12.40967 -4.30999,-16.26026 -2.87365,-3.85126 -6.92755,-5.77973 -12.17043,-5.77973 z"
         style="color:#000000;fill:#000000;stroke-width:2.81829762;fill-opacity:0.49019608" />
      <rect
         style="color:#000000;fill:#000000;fill-opacity:0.49019608;stroke-width:2.81829762"
         ry="12.999956"
         height="149.4995"
         width="149.4995"
         y="262.50049"
         x="100"
         id="rect4583" />
      <rect
         style="color:#000000;fill:#000000;fill-opacity:0.49019608;stroke-width:2.81829762"
         ry="12.999956"
         height="149.4995"
         width="149.4995"
         y="100.00105"
         x="262.49945"
         id="rect4585" />
      <path
         inkscape:connector-curvature="0"
         id="path4587"
         d="m 275.49971,262.50109 c -7.20197,0 -13.0016,5.79964 -13.0016,13.0016 V 399.0014 c 0,7.20196 5.79963,12.99607 13.0016,12.99607 H 398.9984 c 7.20198,0 13.0016,-5.79411 13.0016,-12.99607 V 275.50269 c 0,-7.20196 -5.79962,-13.0016 -13.0016,-13.0016 z m 8.35582,18.1648 h 25.67843 c 9.21242,9e-5 15.88007,1.38796 19.9978,4.17241 4.14706,2.78459 6.22001,7.24449 6.22007,13.37592 -5e-5,3.22887 -0.75718,5.98677 -2.26785,8.26773 -1.50955,2.24948 -3.69713,3.91859 -6.56685,5.0146 3.67066,1.06678 6.50754,3.03984 8.52095,5.9118 2.01428,2.8734 3.0219,6.39711 3.02196,10.57414 -6e-5,6.39844 -2.15946,11.16601 -6.48428,14.30616 -4.32249,3.13947 -10.90112,4.71183 -19.72809,4.71183 h -28.39214 z m 17.10244,11.6365 v 14.04194 h 9.46772 c 2.6956,6e-5 4.7397,-0.59299 6.132,-1.77795 1.39223,-1.18481 2.08613,-2.93514 2.0862,-5.24575 -4e-5,-2.28085 -0.69397,-4.01131 -2.0862,-5.19624 -1.3923,-1.21446 -3.4364,-1.82194 -6.132,-1.822 z m 0,25.68394 v 17.37215 h 10.04569 c 3.43615,3e-5 6.00983,-0.72824 7.7283,-2.17975 1.74765,-1.45145 2.62007,-3.63983 2.62013,-6.57236 -4e-5,-2.87334 -0.85809,-5.02389 -2.5761,-6.44575 -1.71814,-1.45145 -4.30648,-2.17429 -7.77233,-2.17429 z"
         style="color:#000000;fill:#000000;fill-opacity:0.49019608;stroke-width:2.81829762" />
    </g>
    <g
       id="g4579">
      <path
         style="color:#000000;fill:#ffffff;stroke-width:2.81829762"
         d="m 113.00173,100.00312 c -7.20196,0 -13.0016,5.79411 -13.0016,12.9961 V 236.4979 c 0,7.20196 5.79964,13.0016 13.0016,13.0016 h 123.49868 c 7.20198,0 13.00161,-5.79964 13.00161,-13.0016 V 112.99922 c 0,-7.20199 -5.79963,-12.9961 -13.00161,-12.9961 z m 38.65802,16.95933 c 10.66385,6e-5 19.01337,3.05185 25.05642,9.15394 6.04288,6.10227 9.0659,14.52985 9.0659,25.28214 -9e-5,10.723 -3.02327,19.13587 -9.0659,25.23808 -6.04305,6.10218 -14.39257,9.15394 -25.05642,9.15394 -10.63461,0 -18.98901,-3.05176 -25.06193,-9.15394 -6.04305,-6.10351 -9.0659,-14.51443 -9.0659,-25.23808 0,-10.75294 3.02285,-19.17996 9.0659,-25.28214 6.07228,-6.10217 14.42732,-9.15394 25.06193,-9.15394 z m 0,12.39609 c -5.21362,0 -9.25889,1.92298 -12.13189,5.77421 -2.87365,3.85058 -4.31002,9.27504 -4.31002,16.26578 -3e-5,6.96147 1.43662,12.36561 4.31002,16.2162 2.87331,3.85092 6.91824,5.77421 12.13189,5.77421 5.24308,0 9.29743,-1.92329 12.17043,-5.77421 2.87103,-3.84864 4.30999,-9.25473 4.30999,-16.2162 0,-6.99074 -1.43896,-12.40967 -4.30999,-16.26026 -2.87365,-3.85126 -6.92755,-5.77973 -12.17043,-5.77973 z"
         id="rect44"
         inkscape:connector-curvature="0" />
      <rect
         id="rect46"
         x="100"
         y="262.50049"
         width="149.4995"
         height="149.4995"
         ry="12.999956"
         style="color:#000000;fill:#ffffff;fill-opacity:1;stroke-width:2.81829762" />
      <rect
         id="rect48"
         x="262.49945"
         y="100.00105"
         width="149.4995"
         height="149.4995"
         ry="12.999956"
         style="color:#000000;fill:#ffffff;fill-opacity:1;stroke-width:2.81829762" />
      <path
         style="color:#000000;fill:#ffffff;fill-opacity:1;stroke-width:2.81829762"
         d="m 275.49971,262.50109 c -7.20197,0 -13.0016,5.79964 -13.0016,13.0016 V 399.0014 c 0,7.20196 5.79963,12.99607 13.0016,12.99607 H 398.9984 c 7.20198,0 13.0016,-5.79411 13.0016,-12.99607 V 275.50269 c 0,-7.20196 -5.79962,-13.0016 -13.0016,-13.0016 z m 8.35582,18.1648 h 25.67843 c 9.21242,9e-5 15.88007,1.38796 19.9978,4.17241 4.14706,2.78459 6.22001,7.24449 6.22007,13.37592 -5e-5,3.22887 -0.75718,5.98677 -2.26785,8.26773 -1.50955,2.24948 -3.69713,3.91859 -6.56685,5.0146 3.67066,1.06678 6.50754,3.03984 8.52095,5.9118 2.01428,2.8734 3.0219,6.39711 3.02196,10.57414 -6e-5,6.39844 -2.15946,11.16601 -6.48428,14.30616 -4.32249,3.13947 -10.90112,4.71183 -19.72809,4.71183 h -28.39214 z m 17.10244,11.6365 v 14.04194 h 9.46772 c 2.6956,6e-5 4.7397,-0.59299 6.132,-1.77795 1.39223,-1.18481 2.08613,-2.93514 2.0862,-5.24575 -4e-5,-2.28085 -0.69397,-4.01131 -2.0862,-5.19624 -1.3923,-1.21446 -3.4364,-1.82194 -6.132,-1.822 z m 0,25.68394 v 17.37215 h 10.04569 c 3.43615,3e-5 6.00983,-0.72824 7.7283,-2.17975 1.74765,-1.45145 2.62007,-3.63983 2.62013,-6.57236 -4e-5,-2.87334 -0.85809,-5.02389 -2.5761,-6.44575 -1.71814,-1.45145 -4.30648,-2.17429 -7.77233,-2.17429 z"
         id="rect50"
         inkscape:connector-curvature="0" />
    </g>
  </g>
</svg>
