<?xml version="1.0" encoding="UTF-8" standalone="no"?>
<!-- Created with Inkscape (http://www.inkscape.org/) -->

<svg
   xmlns:dc="http://purl.org/dc/elements/1.1/"
   xmlns:cc="http://creativecommons.org/ns#"
   xmlns:rdf="http://www.w3.org/1999/02/22-rdf-syntax-ns#"
   xmlns:svg="http://www.w3.org/2000/svg"
   xmlns="http://www.w3.org/2000/svg"
   xmlns:sodipodi="http://sodipodi.sourceforge.net/DTD/sodipodi-0.dtd"
   xmlns:inkscape="http://www.inkscape.org/namespaces/inkscape"
   id="svg2"
   version="1.1"
   inkscape:version="0.92.2 2405546, 2018-03-11"
   width="512"
   height="512"
   sodipodi:docname="ooo-math.svg">
  <metadata
     id="metadata8">
    <rdf:RDF>
      <cc:Work
         rdf:about="">
        <dc:format>image/svg+xml</dc:format>
        <dc:type
           rdf:resource="http://purl.org/dc/dcmitype/StillImage" />
        <dc:title />
      </cc:Work>
    </rdf:RDF>
  </metadata>
  <defs
     id="defs6" />
  <sodipodi:namedview
     pagecolor="#ffffff"
     bordercolor="#666666"
     borderopacity="1"
     objecttolerance="10"
     gridtolerance="10"
     guidetolerance="10"
     inkscape:pageopacity="0"
     inkscape:pageshadow="2"
     inkscape:window-width="1366"
     inkscape:window-height="700"
     id="namedview4"
     showgrid="false"
     inkscape:zoom="0.4609375"
     inkscape:cx="325.98555"
     inkscape:cy="199.46697"
     inkscape:window-x="0"
     inkscape:window-y="0"
     inkscape:window-maximized="1"
     inkscape:current-layer="svg2" />
  <g
     id="g887">
    <path
       id="path881"
       d="M 432.91329,56.473972 C 535.1062,145.04856 538.74006,306.17368 441.03009,416.37276 343.32012,526.57182 181.27964,544.10062 79.086727,455.52602 -23.106181,366.95143 -26.740046,205.82631 70.969927,95.627232 168.6799,-14.571848 330.72038,-32.100618 432.91329,56.473972 Z"
       inkscape:connector-curvature="0"
       style="fill:#8a715e;fill-opacity:1;stroke-width:11.10955811" />
    <path
       id="path883"
       d="m 511.63551,224.90352 c -1.5514,61.31166 -25.16123,124.1546 -70.96638,175.81449 C 342.95916,510.91712 180.91869,528.44582 78.72578,439.87127 30.827126,398.35564 4.4968241,340.92283 0.19383022,280.22879 0.79908178,346.58547 27.117413,410.48219 79.078684,455.51904 181.2716,544.09362 343.31975,526.55622 441.02203,416.36578 490.72697,360.30764 514.02705,291.07481 511.63551,224.90352 Z"
       inkscape:connector-curvature="0"
       style="opacity:1;fill:#000000;fill-opacity:0.49019608;stroke-width:11.10955811" />
    <g
       style="fill:#000000;fill-opacity:0.49019608"
       id="g875"
       transform="translate(20,13.694067)">
      <path
         sodipodi:nodetypes="czczczczc"
         inkscape:connector-curvature="0"
         id="path869"
         d="m 276.54636,275.96025 c 0,0 -31.87797,-22.06608 -76.09757,-20.16585 C 156.22919,257.69464 100,294.22368 100,294.22368 c 0,0 35.09231,-57.71525 82.18536,-66.2049 47.09306,-8.48963 79.14147,-0.76097 79.14147,-0.76097 0,0 13.6095,-20.98395 44.13658,-35.00485 C 335.99053,178.23205 412,180.07733 412,180.07733 c 0,0 -84.5292,26.16086 -105.77561,45.65854 -21.24641,19.4977 -29.67803,50.22438 -29.67803,50.22438 z"
         style="fill:#000000;fill-opacity:0.49019608;fill-rule:evenodd;stroke:none;stroke-width:0.9755246px;stroke-linecap:butt;stroke-linejoin:miter;stroke-opacity:1" />
      <path
         sodipodi:nodetypes="czczczczc"
         inkscape:connector-curvature="0"
         id="path871"
         d="m 280.79654,169.9887 c 0,0 -21.24078,-14.703 -50.70496,-13.43684 -29.46425,1.26617 -66.93062,25.60604 -66.93062,25.60604 0,0 23.38256,-38.45654 54.76138,-44.11333 31.37886,-5.65682 52.73322,-0.50704 52.73322,-0.50704 0,0 9.0682,-13.98198 29.40889,-23.32432 20.3407,-9.34229 70.987,-8.1128 70.987,-8.1128 0,0 -56.32313,17.43141 -70.47995,30.42299 -14.15678,12.99162 -19.77496,33.4653 -19.77496,33.4653 z"
         style="fill:#000000;fill-opacity:0.49019608;fill-rule:evenodd;stroke:none;stroke-width:0.9755246px;stroke-linecap:butt;stroke-linejoin:miter;stroke-opacity:1" />
      <path
         inkscape:connector-curvature="0"
         id="path873"
         d="m 273.48633,287.45508 a 10.223898,10.223898 0 0 0 -7.81055,16.81836 l 42.20703,49.98047 -38.5625,47.375 a 10.223898,10.223898 0 0 0 7.92969,16.67578 h 110.4043 a 10.223898,10.223898 0 1 0 0,-20.44531 h -88.90235 l 30.33789,-37.27149 a 10.223898,10.223898 0 0 0 -0.11914,-13.04883 l -33.47265,-39.63867 h 94.66601 a 10.223898,10.223898 0 1 0 0,-20.44531 z"
         style="color:#000000;font-style:normal;font-variant:normal;font-weight:normal;font-stretch:normal;font-size:medium;line-height:normal;font-family:sans-serif;font-variant-ligatures:normal;font-variant-position:normal;font-variant-caps:normal;font-variant-numeric:normal;font-variant-alternates:normal;font-feature-settings:normal;text-indent:0;text-align:start;text-decoration:none;text-decoration-line:none;text-decoration-style:solid;text-decoration-color:#000000;letter-spacing:normal;word-spacing:normal;text-transform:none;writing-mode:lr-tb;direction:ltr;text-orientation:mixed;dominant-baseline:auto;baseline-shift:baseline;text-anchor:start;white-space:normal;shape-padding:0;clip-rule:nonzero;display:inline;overflow:visible;visibility:visible;opacity:1;isolation:auto;mix-blend-mode:normal;color-interpolation:sRGB;color-interpolation-filters:linearRGB;solid-color:#000000;solid-opacity:1;vector-effect:none;fill:#000000;fill-opacity:0.49019608;fill-rule:evenodd;stroke:none;stroke-width:20.44575119;stroke-linecap:round;stroke-linejoin:round;stroke-miterlimit:4;stroke-dasharray:none;stroke-dashoffset:0;stroke-opacity:1;color-rendering:auto;image-rendering:auto;shape-rendering:auto;text-rendering:auto;enable-background:accumulate" />
    </g>
    <g
       transform="translate(0,-6.305933)"
       id="g867">
      <path
         style="fill:#ffffff;fill-opacity:1;fill-rule:evenodd;stroke:none;stroke-width:0.9755246px;stroke-linecap:butt;stroke-linejoin:miter;stroke-opacity:1"
         d="m 276.54636,275.96025 c 0,0 -31.87797,-22.06608 -76.09757,-20.16585 C 156.22919,257.69464 100,294.22368 100,294.22368 c 0,0 35.09231,-57.71525 82.18536,-66.2049 47.09306,-8.48963 79.14147,-0.76097 79.14147,-0.76097 0,0 13.6095,-20.98395 44.13658,-35.00485 C 335.99053,178.23205 412,180.07733 412,180.07733 c 0,0 -84.5292,26.16086 -105.77561,45.65854 -21.24641,19.4977 -29.67803,50.22438 -29.67803,50.22438 z"
         id="path4170-3"
         inkscape:connector-curvature="0"
         sodipodi:nodetypes="czczczczc" />
      <path
         style="fill:#ffffff;fill-opacity:1;fill-rule:evenodd;stroke:none;stroke-width:0.9755246px;stroke-linecap:butt;stroke-linejoin:miter;stroke-opacity:1"
         d="m 280.79654,169.9887 c 0,0 -21.24078,-14.703 -50.70496,-13.43684 -29.46425,1.26617 -66.93062,25.60604 -66.93062,25.60604 0,0 23.38256,-38.45654 54.76138,-44.11333 31.37886,-5.65682 52.73322,-0.50704 52.73322,-0.50704 0,0 9.0682,-13.98198 29.40889,-23.32432 20.3407,-9.34229 70.987,-8.1128 70.987,-8.1128 0,0 -56.32313,17.43141 -70.47995,30.42299 -14.15678,12.99162 -19.77496,33.4653 -19.77496,33.4653 z"
         id="path4170-6-6"
         inkscape:connector-curvature="0"
         sodipodi:nodetypes="czczczczc" />
      <path
         style="color:#000000;font-style:normal;font-variant:normal;font-weight:normal;font-stretch:normal;font-size:medium;line-height:normal;font-family:sans-serif;font-variant-ligatures:normal;font-variant-position:normal;font-variant-caps:normal;font-variant-numeric:normal;font-variant-alternates:normal;font-feature-settings:normal;text-indent:0;text-align:start;text-decoration:none;text-decoration-line:none;text-decoration-style:solid;text-decoration-color:#000000;letter-spacing:normal;word-spacing:normal;text-transform:none;writing-mode:lr-tb;direction:ltr;text-orientation:mixed;dominant-baseline:auto;baseline-shift:baseline;text-anchor:start;white-space:normal;shape-padding:0;clip-rule:nonzero;display:inline;overflow:visible;visibility:visible;opacity:1;isolation:auto;mix-blend-mode:normal;color-interpolation:sRGB;color-interpolation-filters:linearRGB;solid-color:#000000;solid-opacity:1;vector-effect:none;fill:#ffffff;fill-opacity:1;fill-rule:evenodd;stroke:none;stroke-width:20.44575119;stroke-linecap:round;stroke-linejoin:round;stroke-miterlimit:4;stroke-dasharray:none;stroke-dashoffset:0;stroke-opacity:1;color-rendering:auto;image-rendering:auto;shape-rendering:auto;text-rendering:auto;enable-background:accumulate"
         d="m 273.48633,287.45508 a 10.223898,10.223898 0 0 0 -7.81055,16.81836 l 42.20703,49.98047 -38.5625,47.375 a 10.223898,10.223898 0 0 0 7.92969,16.67578 h 110.4043 a 10.223898,10.223898 0 1 0 0,-20.44531 h -88.90235 l 30.33789,-37.27149 a 10.223898,10.223898 0 0 0 -0.11914,-13.04883 l -33.47265,-39.63867 h 94.66601 a 10.223898,10.223898 0 1 0 0,-20.44531 z"
         id="path4151"
         inkscape:connector-curvature="0" />
    </g>
  </g>
</svg>
