<?xml version="1.0" encoding="UTF-8" standalone="no"?>
<svg
   xmlns:dc="http://purl.org/dc/elements/1.1/"
   xmlns:cc="http://creativecommons.org/ns#"
   xmlns:rdf="http://www.w3.org/1999/02/22-rdf-syntax-ns#"
   xmlns:svg="http://www.w3.org/2000/svg"
   xmlns="http://www.w3.org/2000/svg"
   xmlns:sodipodi="http://sodipodi.sourceforge.net/DTD/sodipodi-0.dtd"
   xmlns:inkscape="http://www.inkscape.org/namespaces/inkscape"
   viewBox="0 0 512 512"
   id="svg2"
   version="1.1"
   inkscape:version="0.92.2 2405546, 2018-03-11"
   width="512"
   height="512"
   sodipodi:docname="openarena.svg">
  <metadata
     id="metadata61">
    <rdf:RDF>
      <cc:Work
         rdf:about="">
        <dc:format>image/svg+xml</dc:format>
        <dc:type
           rdf:resource="http://purl.org/dc/dcmitype/StillImage" />
        <dc:title></dc:title>
      </cc:Work>
    </rdf:RDF>
  </metadata>
  <sodipodi:namedview
     pagecolor="#ffffff"
     bordercolor="#666666"
     borderopacity="1"
     objecttolerance="10"
     gridtolerance="10"
     guidetolerance="10"
     inkscape:pageopacity="0"
     inkscape:pageshadow="2"
     inkscape:window-width="1366"
     inkscape:window-height="700"
     id="namedview59"
     showgrid="false"
     inkscape:zoom="0.43457605"
     inkscape:cx="9.9368672"
     inkscape:cy="124.82019"
     inkscape:window-x="0"
     inkscape:window-y="0"
     inkscape:window-maximized="1"
     inkscape:current-layer="g47"
     units="px" />
  <defs
     id="defs4">
    <linearGradient
       id="linearGradient3764"
       x1="1"
       x2="47"
       gradientUnits="userSpaceOnUse"
       gradientTransform="rotate(-90,23.999998,24)">
      <stop
         stop-color="#52b8d2"
         stop-opacity="1"
         id="stop7" />
      <stop
         offset="1"
         stop-color="#62bed6"
         stop-opacity="1"
         id="stop9" />
    </linearGradient>
    <clipPath
       id="clipPath-493364142">
      <g
         transform="translate(0,-1004.3622)"
         id="g12">
        <path
           d="m -24,13 c 0,1.105 -0.672,2 -1.5,2 -0.828,0 -1.5,-0.895 -1.5,-2 0,-1.105 0.672,-2 1.5,-2 0.828,0 1.5,0.895 1.5,2 z"
           transform="matrix(15.8a715e,0,0,11.5,414.99999,878.8622)"
           id="path14"
           inkscape:connector-curvature="0"
           style="fill:#1890d0" />
      </g>
    </clipPath>
    <clipPath
       id="clipPath-498582375">
      <g
         transform="translate(0,-1004.3622)"
         id="g17">
        <path
           d="m -24,13 c 0,1.105 -0.672,2 -1.5,2 -0.828,0 -1.5,-0.895 -1.5,-2 0,-1.105 0.672,-2 1.5,-2 0.828,0 1.5,0.895 1.5,2 z"
           transform="matrix(15.8a715e,0,0,11.5,414.99999,878.8622)"
           id="path19"
           inkscape:connector-curvature="0"
           style="fill:#1890d0" />
      </g>
    </clipPath>
  </defs>
  <g
     id="g33"
     transform="translate(0,963)" />
  <g
     id="g47"
     transform="matrix(17.304682,0,0,17.304682,-165.44753,359.03584)">
    <g
       id="g853"
       transform="translate(0,-28.836127)">
      <path
         id="path881"
         d="m 34.577973,11.351733 c 5.905507,5.118533 6.1155,14.429604 0.469052,20.79777 -5.646447,6.368164 -15.010414,7.381116 -20.915921,2.262582 C 8.2255974,29.293551 8.0156043,19.98248 13.662052,13.614315 19.308499,7.2461488 28.672467,6.2331992 34.577973,11.351733 Z"
         inkscape:connector-curvature="0"
         style="fill:#3689e6;fill-opacity:1;stroke-width:0.64199728" />
      <path
         id="path883"
         d="m 39.127159,21.084911 c -0.08965,3.543068 -1.454013,7.174625 -4.100993,10.159938 -5.646447,6.368167 -15.010414,7.381113 -20.915921,2.262582 -2.767959,-2.399099 -4.2895298,-5.718016 -4.5381905,-9.225393 0.034976,3.834609 1.5558555,7.527061 4.5585845,10.129643 5.905507,5.118533 15.269918,4.105085 20.915921,-2.262582 2.87234,-3.239478 4.218801,-7.240293 4.080599,-11.064188 z"
         inkscape:connector-curvature="0"
         style="opacity:1;fill:#000000;fill-opacity:0.49019608;stroke-width:0.64199728" />
      <path
         d="m 24.567492,29.552125 -0.920746,-1.47056 0.872213,-1.4352 c 0.481866,-0.791094 0.899253,-1.481654 0.929066,-1.53296 0.03536,-0.06517 0.365387,0.417386 0.9776,1.422026 0.506134,0.83408 0.920747,1.530187 0.920747,1.548907 0,0.04368 -1.73888,2.819093 -1.81168,2.88704 -0.02427,0.02704 -0.463147,-0.612213 -0.96928,-1.419253 m -4.812426,0.768906 -1.142614,-0.560906 0.477014,-0.88816 c 0.262773,-0.490187 0.44928,-0.912427 0.419466,-0.939467 -0.03536,-0.02704 -0.316853,-0.235733 -0.62816,-0.4576 -3.385546,-2.459253 -3.131093,-6.461866 0.552587,-8.7776 3.060373,-1.91776 7.84576,-2.128533 11.236853,-0.490186 1.66816,0.80704 2.794133,1.84704 3.41536,3.168533 0.316853,0.674613 0.433333,1.1648 0.441653,1.858133 0.0083,1.768693 -1.01296,3.418133 -2.875946,4.63424 l -0.181654,0.11648 0.43888,0.828533 c 0.24128,0.454827 0.44928,0.8528 0.4576,0.882614 0.02427,0.05408 -2.25056,1.19184 -2.38368,1.19184 -0.03259,0 -1.042773,-1.83872 -2.237386,-4.08928 -1.199467,-2.25056 -2.199254,-4.08928 -2.226294,-4.08928 -0.02427,0 -1.026133,1.831093 -2.223519,4.073333 -1.270187,2.380907 -2.22352,4.07888 -2.28592,4.0872 -0.05963,0.01595 -0.622614,-0.235733 -1.257014,-0.544267 m 3.081867,-8.295733 c 1.118347,-2.050186 2.0176,-3.740533 2.004426,-3.75648 -0.01387,-0.01387 -0.33072,0.01595 -0.707199,0.05685 -4.91296,0.606666 -7.39648,3.799466 -4.91296,6.342613 0.490186,0.50128 1.465013,1.189066 1.56,1.1024 0.01109,-0.01387 0.937386,-1.697974 2.055733,-3.745387 m 8.368533,3.17408 c 0.82368,-0.585173 1.400533,-1.427573 1.530187,-2.229067 0.343893,-2.152799 -2.055734,-4.117013 -5.641654,-4.617599 -0.460373,-0.0624 -0.8528,-0.100534 -0.874986,-0.08112 -0.03259,0.02981 2.938346,5.560533 3.81056,7.092799 l 0.25168,0.444427 0.23296,-0.137973 c 0.127573,-0.0728 0.43888,-0.289814 0.69056,-0.471467 m 0,0"
         id="path847"
         inkscape:connector-curvature="0"
         style="fill:#000000;fill-opacity:0.49019608;fill-rule:nonzero;stroke:none;stroke-width:0.698a715e" />
      <path
         style="fill:#ffffff;fill-opacity:1;fill-rule:nonzero;stroke:none;stroke-width:0.698a715e"
         inkscape:connector-curvature="0"
         id="path53"
         d="m 23.411735,28.396368 -0.920746,-1.47056 0.872213,-1.4352 c 0.481866,-0.791094 0.899253,-1.481654 0.929066,-1.53296 0.03536,-0.06517 0.365387,0.417386 0.9776,1.422026 0.506134,0.83408 0.920747,1.530187 0.920747,1.548907 0,0.04368 -1.73888,2.819093 -1.81168,2.88704 -0.02427,0.02704 -0.463147,-0.612213 -0.96928,-1.419253 m -4.812426,0.768906 -1.142614,-0.560906 0.477014,-0.88816 c 0.262773,-0.490187 0.44928,-0.912427 0.419466,-0.939467 -0.03536,-0.02704 -0.316853,-0.235733 -0.62816,-0.4576 -3.385546,-2.459253 -3.131093,-6.461866 0.552587,-8.7776 3.060373,-1.91776 7.84576,-2.128533 11.236853,-0.490186 1.66816,0.80704 2.794133,1.84704 3.41536,3.168533 0.316853,0.674613 0.433333,1.1648 0.441653,1.858133 0.0083,1.768693 -1.01296,3.418133 -2.875946,4.63424 l -0.181654,0.11648 0.43888,0.828533 c 0.24128,0.454827 0.44928,0.8528 0.4576,0.882614 0.02427,0.05408 -2.25056,1.19184 -2.38368,1.19184 -0.03259,0 -1.042773,-1.83872 -2.237386,-4.08928 -1.199467,-2.25056 -2.199254,-4.08928 -2.226294,-4.08928 -0.02427,0 -1.026133,1.831093 -2.223519,4.073333 -1.270187,2.380907 -2.22352,4.07888 -2.28592,4.0872 -0.05963,0.01595 -0.622614,-0.235733 -1.257014,-0.544267 m 3.081867,-8.295733 c 1.118347,-2.050186 2.0176,-3.740533 2.004426,-3.75648 -0.01387,-0.01387 -0.33072,0.01595 -0.707199,0.05685 -4.91296,0.606666 -7.39648,3.799466 -4.91296,6.342613 0.490186,0.50128 1.465013,1.189066 1.56,1.1024 0.01109,-0.01387 0.937386,-1.697974 2.055733,-3.745387 m 8.368533,3.17408 c 0.82368,-0.585173 1.400533,-1.427573 1.530187,-2.229067 0.343893,-2.152799 -2.055734,-4.117013 -5.641654,-4.617599 -0.460373,-0.0624 -0.8528,-0.100534 -0.874986,-0.08112 -0.03259,0.02981 2.938346,5.560533 3.81056,7.092799 l 0.25168,0.444427 0.23296,-0.137973 c 0.127573,-0.0728 0.43888,-0.289814 0.69056,-0.471467 m 0,0" />
    </g>
  </g>
</svg>
