<?xml version="1.0" encoding="UTF-8" standalone="no"?>
<!-- Created with Inkscape (http://www.inkscape.org/) -->

<svg
   xmlns:dc="http://purl.org/dc/elements/1.1/"
   xmlns:cc="http://creativecommons.org/ns#"
   xmlns:rdf="http://www.w3.org/1999/02/22-rdf-syntax-ns#"
   xmlns:svg="http://www.w3.org/2000/svg"
   xmlns="http://www.w3.org/2000/svg"
   xmlns:sodipodi="http://sodipodi.sourceforge.net/DTD/sodipodi-0.dtd"
   xmlns:inkscape="http://www.inkscape.org/namespaces/inkscape"
   id="svg2"
   version="1.1"
   inkscape:version="0.92.2 2405546, 2018-03-11"
   width="512"
   height="512"
   sodipodi:docname="ooo-calc2.svg">
  <metadata
     id="metadata8">
    <rdf:RDF>
      <cc:Work
         rdf:about="">
        <dc:format>image/svg+xml</dc:format>
        <dc:type
           rdf:resource="http://purl.org/dc/dcmitype/StillImage" />
        <dc:title />
      </cc:Work>
    </rdf:RDF>
  </metadata>
  <defs
     id="defs6" />
  <sodipodi:namedview
     pagecolor="#ffffff"
     bordercolor="#666666"
     borderopacity="1"
     objecttolerance="10"
     gridtolerance="10"
     guidetolerance="10"
     inkscape:pageopacity="0"
     inkscape:pageshadow="2"
     inkscape:window-width="1149"
     inkscape:window-height="685"
     id="namedview4"
     showgrid="false"
     inkscape:zoom="0.32593203"
     inkscape:cx="294.1173"
     inkscape:cy="349.47589"
     inkscape:window-x="90"
     inkscape:window-y="13"
     inkscape:window-maximized="0"
     inkscape:current-layer="svg2" />
  <g
     id="g1028">
    <path
       id="path881"
       d="M 432.91329,56.473972 C 535.1062,145.04856 538.74006,306.17368 441.03009,416.37276 343.32012,526.57182 181.27964,544.10062 79.086727,455.52602 -23.106181,366.95143 -26.740046,205.82631 70.969927,95.627232 168.6799,-14.571848 330.72038,-32.100618 432.91329,56.473972 Z"
       inkscape:connector-curvature="0"
       style="fill:#68b723;fill-opacity:1;stroke-width:11.10955811" />
    <path
       id="path883"
       d="m 511.63551,224.90352 c -1.5514,61.31166 -25.16123,124.1546 -70.96638,175.81449 C 342.95916,510.91712 180.91869,528.44582 78.72578,439.87127 30.827126,398.35564 4.4968241,340.92283 0.19383022,280.22879 0.79908178,346.58547 27.117413,410.48219 79.078684,455.51904 181.2716,544.09362 343.31975,526.55622 441.02203,416.36578 490.72697,360.30764 514.02705,291.07481 511.63551,224.90352 Z"
       inkscape:connector-curvature="0"
       style="opacity:1;fill:#000000;fill-opacity:0.49019608;stroke-width:11.10955811" />
    <path
       style="fill:#000000;fill-opacity:0.49019608;fill-rule:evenodd;stroke:none;stroke-width:0.9755246px;stroke-linecap:butt;stroke-linejoin:miter;stroke-opacity:1"
       d="m 296.54636,295.96024 c 0,0 -31.87797,-22.06608 -76.09757,-20.16585 C 176.22919,277.69463 120,314.22367 120,314.22367 c 0,0 35.09231,-57.71525 82.18536,-66.2049 47.09306,-8.48963 79.14147,-0.76097 79.14147,-0.76097 0,0 13.6095,-20.98395 44.13658,-35.00485 C 355.99053,198.23204 432,200.07732 432,200.07732 c 0,0 -84.5292,26.16086 -105.77561,45.65854 -21.24641,19.4977 -29.67803,50.22438 -29.67803,50.22438 z"
       id="path138"
       inkscape:connector-curvature="0"
       sodipodi:nodetypes="czczczczc" />
    <path
       style="fill:#000000;fill-opacity:0.49019608;fill-rule:evenodd;stroke:none;stroke-width:0.9755246px;stroke-linecap:butt;stroke-linejoin:miter;stroke-opacity:1"
       d="m 300.79654,189.98869 c 0,0 -21.24078,-14.703 -50.70496,-13.43684 -29.46425,1.26617 -66.93062,25.60604 -66.93062,25.60604 0,0 23.38256,-38.45654 54.76138,-44.11333 31.37886,-5.65682 52.73322,-0.50704 52.73322,-0.50704 0,0 9.0682,-13.98198 29.40889,-23.32432 20.3407,-9.34229 70.987,-8.1128 70.987,-8.1128 0,0 -56.32313,17.43141 -70.47995,30.42299 -14.15678,12.99162 -19.77496,33.4653 -19.77496,33.4653 z"
       id="path140"
       inkscape:connector-curvature="0"
       sodipodi:nodetypes="czczczczc" />
    <rect
       style="fill:#000000;fill-opacity:0.49019608;stroke-width:0.88191712"
       id="rect142"
       width="193.29182"
       height="21.476879"
       x="237.70058"
       y="322.52313"
       ry="10.73844" />
    <rect
       ry="10.73844"
       y="410.52313"
       x="237.70061"
       height="21.476879"
       width="193.29182"
       id="rect144"
       style="fill:#000000;fill-opacity:0.49019608;stroke-width:0.88191712" />
    <path
       id="rect146"
       d="M 430.8418 331.53516 C 430.93228 332.09824 430.99219 332.67234 430.99219 333.26172 L 430.99219 331.53516 L 430.8418 331.53516 z M 430.99219 333.26172 C 430.99219 339.21081 426.203 344 420.25391 344 L 409.51562 344 L 409.51562 366.52344 L 420.25391 366.52344 C 426.203 366.52344 430.99219 371.31262 430.99219 377.26172 L 430.99219 333.26172 z M 430.99219 377.26172 C 430.99219 383.21081 426.203 388 420.25391 388 L 409.51562 388 L 409.51562 410.52344 L 420.25391 410.52344 C 425.92743 410.52344 430.53545 414.88169 430.95117 420.44531 L 430.99219 420.44531 L 430.99219 377.26172 z "
       style="fill:#000000;fill-opacity:0.49019608;stroke-width:0.5981288" />
    <path
       id="rect148"
       d="M 248.43945 366.52344 C 242.49036 366.52344 237.70117 371.31262 237.70117 377.26172 C 237.70117 383.21081 242.49036 388 248.43945 388 L 420.25391 388 C 426.203 388 430.99219 383.21081 430.99219 377.26172 C 430.99219 371.31262 426.203 366.52344 420.25391 366.52344 L 248.43945 366.52344 z "
       style="fill:#000000;fill-opacity:0.49019608;stroke-width:0.88191712" />
    <path
       id="rect150"
       d="M 237.51562 331.53516 L 237.51562 420.44531 L 237.74219 420.44531 C 238.15791 414.88169 242.76593 410.52344 248.43945 410.52344 L 258.99219 410.52344 L 258.99219 388 L 248.43945 388 C 242.49036 388 237.70117 383.21081 237.70117 377.26172 C 237.70117 371.31262 242.49036 366.52344 248.43945 366.52344 L 258.99219 366.52344 L 258.99219 344 L 248.43945 344 C 242.49036 344 237.70117 339.21081 237.70117 333.26172 C 237.70117 332.67234 237.76108 332.09824 237.85156 331.53516 L 237.51562 331.53516 z "
       style="fill:#000000;fill-opacity:0.49019608;stroke-width:0.5981288" />
    <path
       id="rect152"
       d="M 323.51562 344 L 323.51562 366.52344 L 344.99219 366.52344 L 344.99219 344 L 323.51562 344 z M 323.51562 388 L 323.51562 410.52344 L 344.99219 410.52344 L 344.99219 388 L 323.51562 388 z "
       style="fill:#000000;fill-opacity:0.49019608;stroke-width:0.5981288" />
    <g
       id="g136">
      <path
         style="fill:#ffffff;fill-opacity:1;fill-rule:evenodd;stroke:none;stroke-width:0.9755246px;stroke-linecap:butt;stroke-linejoin:miter;stroke-opacity:1"
         d="m 276.54636,275.96025 c 0,0 -31.87797,-22.06608 -76.09757,-20.16585 C 156.22919,257.69464 100,294.22368 100,294.22368 c 0,0 35.09231,-57.71525 82.18536,-66.2049 47.09306,-8.48963 79.14147,-0.76097 79.14147,-0.76097 0,0 13.6095,-20.98395 44.13658,-35.00485 C 335.99053,178.23205 412,180.07733 412,180.07733 c 0,0 -84.5292,26.16086 -105.77561,45.65854 -21.24641,19.4977 -29.67803,50.22438 -29.67803,50.22438 z"
         id="path4170-3"
         inkscape:connector-curvature="0"
         sodipodi:nodetypes="czczczczc" />
      <path
         style="fill:#ffffff;fill-opacity:1;fill-rule:evenodd;stroke:none;stroke-width:0.9755246px;stroke-linecap:butt;stroke-linejoin:miter;stroke-opacity:1"
         d="m 280.79654,169.9887 c 0,0 -21.24078,-14.703 -50.70496,-13.43684 -29.46425,1.26617 -66.93062,25.60604 -66.93062,25.60604 0,0 23.38256,-38.45654 54.76138,-44.11333 31.37886,-5.65682 52.73322,-0.50704 52.73322,-0.50704 0,0 9.0682,-13.98198 29.40889,-23.32432 20.3407,-9.34229 70.987,-8.1128 70.987,-8.1128 0,0 -56.32313,17.43141 -70.47995,30.42299 -14.15678,12.99162 -19.77496,33.4653 -19.77496,33.4653 z"
         id="path4170-6-6"
         inkscape:connector-curvature="0"
         sodipodi:nodetypes="czczczczc" />
      <g
         id="g111">
        <rect
           ry="10.73844"
           y="302.52313"
           x="217.70058"
           height="21.476879"
           width="193.29182"
           id="rect39"
           style="fill:#ffffff;stroke-width:0.88191712" />
        <rect
           style="fill:#ffffff;stroke-width:0.88191712"
           id="rect79"
           width="193.29182"
           height="21.476879"
           x="217.70061"
           y="390.52313"
           ry="10.73844" />
        <rect
           style="fill:#ffffff;stroke-width:0.5981288"
           id="rect83"
           width="88.909348"
           height="21.476879"
           x="-400.4451"
           y="389.51553"
           ry="0"
           transform="rotate(-90)" />
        <rect
           ry="10.73844"
           y="346.52313"
           x="217.70061"
           height="21.476879"
           width="193.29182"
           id="rect87"
           style="fill:#ffffff;stroke-width:0.88191712" />
        <rect
           transform="rotate(-90)"
           ry="0"
           y="217.51553"
           x="-400.4451"
           height="21.476879"
           width="88.909348"
           id="rect89"
           style="fill:#ffffff;stroke-width:0.5981288" />
        <rect
           style="fill:#ffffff;stroke-width:0.5981288"
           id="rect91"
           width="88.909348"
           height="21.476879"
           x="-400.4451"
           y="303.51553"
           ry="0"
           transform="rotate(-90)" />
      </g>
    </g>
  </g>
</svg>
