<?xml version="1.0" encoding="UTF-8" standalone="no"?>
<!-- Created with Inkscape (http://www.inkscape.org/) -->

<svg
   xmlns:dc="http://purl.org/dc/elements/1.1/"
   xmlns:cc="http://creativecommons.org/ns#"
   xmlns:rdf="http://www.w3.org/1999/02/22-rdf-syntax-ns#"
   xmlns:svg="http://www.w3.org/2000/svg"
   xmlns="http://www.w3.org/2000/svg"
   xmlns:sodipodi="http://sodipodi.sourceforge.net/DTD/sodipodi-0.dtd"
   xmlns:inkscape="http://www.inkscape.org/namespaces/inkscape"
   id="svg2"
   version="1.1"
   inkscape:version="0.92.2 2405546, 2018-03-11"
   width="512"
   height="512"
   sodipodi:docname="ooo-draw.svg">
  <metadata
     id="metadata8">
    <rdf:RDF>
      <cc:Work
         rdf:about="">
        <dc:format>image/svg+xml</dc:format>
        <dc:type
           rdf:resource="http://purl.org/dc/dcmitype/StillImage" />
        <dc:title />
      </cc:Work>
    </rdf:RDF>
  </metadata>
  <defs
     id="defs6" />
  <sodipodi:namedview
     pagecolor="#ffffff"
     bordercolor="#666666"
     borderopacity="1"
     objecttolerance="10"
     gridtolerance="10"
     guidetolerance="10"
     inkscape:pageopacity="0"
     inkscape:pageshadow="2"
     inkscape:window-width="1366"
     inkscape:window-height="700"
     id="namedview4"
     showgrid="false"
     inkscape:zoom="0.23046875"
     inkscape:cx="-440.22202"
     inkscape:cy="699.50049"
     inkscape:window-x="0"
     inkscape:window-y="0"
     inkscape:window-maximized="1"
     inkscape:current-layer="svg2" />
  <g
     id="g877">
    <path
       id="path881"
       d="m 432.91329,56.47397 c 102.19291,88.57459 105.82677,249.69971 8.1168,359.89879 C 343.32012,526.57182 181.27964,544.10062 79.086727,455.52602 -23.106181,366.95143 -26.740046,205.82631 70.969927,95.62723 168.6799,-14.57185 330.72038,-32.10062 432.91329,56.47397 Z"
       inkscape:connector-curvature="0"
       style="fill:#f9c440;fill-opacity:1;stroke-width:11.10955811" />
    <path
       id="path883"
       d="m 511.63551,224.90352 c -1.5514,61.31166 -25.16123,124.1546 -70.96638,175.81449 C 342.95916,510.91712 180.91869,528.44582 78.72578,439.87127 30.827126,398.35564 4.496824,340.92283 0.19383011,280.22879 0.79908167,346.58547 27.117413,410.48219 79.078684,455.51904 181.2716,544.09362 343.31975,526.55622 441.02203,416.36578 490.72697,360.30764 514.02705,291.07481 511.63551,224.90352 Z"
       inkscape:connector-curvature="0"
       style="opacity:1;fill:#000000;fill-opacity:0.49019608;stroke-width:11.10955811" />
    <g
       style="fill:#000000;fill-opacity:0.49019608"
       transform="translate(20,17.52255)"
       id="g865">
      <path
         sodipodi:nodetypes="czczczczc"
         inkscape:connector-curvature="0"
         id="path859"
         d="m 276.54636,275.96025 c 0,0 -31.87797,-22.06608 -76.09757,-20.16585 C 156.22919,257.69464 100,294.22368 100,294.22368 c 0,0 35.09231,-57.71525 82.18536,-66.2049 47.09306,-8.48963 79.14147,-0.76097 79.14147,-0.76097 0,0 13.6095,-20.98395 44.13658,-35.00485 C 335.99053,178.23205 412,180.07733 412,180.07733 c 0,0 -84.5292,26.16086 -105.77561,45.65854 -21.24641,19.4977 -29.67803,50.22438 -29.67803,50.22438 z"
         style="fill:#000000;fill-opacity:0.49019608;fill-rule:evenodd;stroke:none;stroke-width:0.9755246px;stroke-linecap:butt;stroke-linejoin:miter;stroke-opacity:1" />
      <path
         sodipodi:nodetypes="czczczczc"
         inkscape:connector-curvature="0"
         id="path861"
         d="m 280.79654,169.9887 c 0,0 -21.24078,-14.703 -50.70496,-13.43684 -29.46425,1.26617 -66.93062,25.60604 -66.93062,25.60604 0,0 23.38256,-38.45654 54.76138,-44.11333 31.37886,-5.65682 52.73322,-0.50704 52.73322,-0.50704 0,0 9.0682,-13.98198 29.40889,-23.32432 20.3407,-9.34229 70.987,-8.1128 70.987,-8.1128 0,0 -56.32313,17.43141 -70.47995,30.42299 -14.15678,12.99162 -19.77496,33.4653 -19.77496,33.4653 z"
         style="fill:#000000;fill-opacity:0.49019608;fill-rule:evenodd;stroke:none;stroke-width:0.9755246px;stroke-linecap:butt;stroke-linejoin:miter;stroke-opacity:1" />
      <path
         inkscape:connector-curvature="0"
         id="path863"
         d="m 307.11438,299.90614 c -14.29194,-0.11558 -25.69089,8.31138 -33.29936,18.14763 -7.60847,9.83625 -12.90525,21.53827 -18.04717,32.65533 -5.1419,11.11705 -10.12777,21.66002 -15.23961,28.49156 -5.11185,6.83153 -8.86752,9.35357 -14.26733,9.38058 -5.6311,0.0282 -13.1044,-3.3771 -21.06099,-10.21836 -7.9566,-6.84126 -16.01125,-16.64559 -22.94287,-26.62405 -13.86324,-19.95693 -23.22809,-40.17917 -23.22809,-40.17917 a 11.482446,11.482446 0 1 0 -20.85112,9.61918 c 0,0 9.98158,21.72294 25.22118,43.66122 7.61981,10.96914 16.55748,22.10028 26.83036,30.93313 10.27288,8.83285 22.2684,15.84006 36.14635,15.77065 14.10927,-0.0706 25.15764,-8.72299 32.53872,-18.58715 7.38107,-9.86417 12.57637,-21.53897 17.69556,-32.60689 5.11917,-11.06792 10.16368,-21.51841 15.36879,-28.24759 5.2051,-6.72917 9.09056,-9.28085 14.94901,-9.23347 5.76309,0.0466 13.63482,3.86894 21.96157,11.44362 8.32674,7.5747 16.73313,18.34661 23.96542,29.27373 14.46458,21.85425 24.25244,43.91955 24.25244,43.91955 a 11.482446,11.482446 0 1 0 21.0036,-9.28191 c 0,0 -10.35503,-23.50927 -26.10919,-47.31191 -7.87708,-11.90133 -17.09928,-23.97862 -27.66095,-33.58639 -10.56169,-9.60776 -22.83902,-17.30292 -37.22632,-17.41929 z"
         style="color:#000000;font-style:normal;font-variant:normal;font-weight:normal;font-stretch:normal;font-size:medium;line-height:normal;font-family:sans-serif;font-variant-ligatures:normal;font-variant-position:normal;font-variant-caps:normal;font-variant-numeric:normal;font-variant-alternates:normal;font-feature-settings:normal;text-indent:0;text-align:start;text-decoration:none;text-decoration-line:none;text-decoration-style:solid;text-decoration-color:#000000;letter-spacing:normal;word-spacing:normal;text-transform:none;writing-mode:lr-tb;direction:ltr;text-orientation:mixed;dominant-baseline:auto;baseline-shift:baseline;text-anchor:start;white-space:normal;shape-padding:0;clip-rule:nonzero;display:inline;overflow:visible;visibility:visible;opacity:1;isolation:auto;mix-blend-mode:normal;color-interpolation:sRGB;color-interpolation-filters:linearRGB;solid-color:#000000;solid-opacity:1;vector-effect:none;fill:#000000;fill-opacity:0.49019608;fill-rule:nonzero;stroke:none;stroke-width:22.96259689;stroke-linecap:round;stroke-linejoin:miter;stroke-miterlimit:4;stroke-dasharray:none;stroke-dashoffset:0;stroke-opacity:1;color-rendering:auto;image-rendering:auto;shape-rendering:auto;text-rendering:auto;enable-background:accumulate" />
    </g>
    <g
       transform="translate(0,-2.4774496)"
       id="g857">
      <path
         style="fill:#ffffff;fill-opacity:1;fill-rule:evenodd;stroke:none;stroke-width:0.9755246px;stroke-linecap:butt;stroke-linejoin:miter;stroke-opacity:1"
         d="m 276.54636,275.96025 c 0,0 -31.87797,-22.06608 -76.09757,-20.16585 C 156.22919,257.69464 100,294.22368 100,294.22368 c 0,0 35.09231,-57.71525 82.18536,-66.2049 47.09306,-8.48963 79.14147,-0.76097 79.14147,-0.76097 0,0 13.6095,-20.98395 44.13658,-35.00485 C 335.99053,178.23205 412,180.07733 412,180.07733 c 0,0 -84.5292,26.16086 -105.77561,45.65854 -21.24641,19.4977 -29.67803,50.22438 -29.67803,50.22438 z"
         id="path4170"
         inkscape:connector-curvature="0"
         sodipodi:nodetypes="czczczczc" />
      <path
         style="fill:#ffffff;fill-opacity:1;fill-rule:evenodd;stroke:none;stroke-width:0.9755246px;stroke-linecap:butt;stroke-linejoin:miter;stroke-opacity:1"
         d="m 280.79654,169.9887 c 0,0 -21.24078,-14.703 -50.70496,-13.43684 -29.46425,1.26617 -66.93062,25.60604 -66.93062,25.60604 0,0 23.38256,-38.45654 54.76138,-44.11333 31.37886,-5.65682 52.73322,-0.50704 52.73322,-0.50704 0,0 9.0682,-13.98198 29.40889,-23.32432 20.3407,-9.34229 70.987,-8.1128 70.987,-8.1128 0,0 -56.32313,17.43141 -70.47995,30.42299 -14.15678,12.99162 -19.77496,33.4653 -19.77496,33.4653 z"
         id="path4170-6"
         inkscape:connector-curvature="0"
         sodipodi:nodetypes="czczczczc" />
      <path
         style="color:#000000;font-style:normal;font-variant:normal;font-weight:normal;font-stretch:normal;font-size:medium;line-height:normal;font-family:sans-serif;font-variant-ligatures:normal;font-variant-position:normal;font-variant-caps:normal;font-variant-numeric:normal;font-variant-alternates:normal;font-feature-settings:normal;text-indent:0;text-align:start;text-decoration:none;text-decoration-line:none;text-decoration-style:solid;text-decoration-color:#000000;letter-spacing:normal;word-spacing:normal;text-transform:none;writing-mode:lr-tb;direction:ltr;text-orientation:mixed;dominant-baseline:auto;baseline-shift:baseline;text-anchor:start;white-space:normal;shape-padding:0;clip-rule:nonzero;display:inline;overflow:visible;visibility:visible;opacity:1;isolation:auto;mix-blend-mode:normal;color-interpolation:sRGB;color-interpolation-filters:linearRGB;solid-color:#000000;solid-opacity:1;vector-effect:none;fill:#ffffff;fill-opacity:1;fill-rule:nonzero;stroke:none;stroke-width:22.96259689;stroke-linecap:round;stroke-linejoin:miter;stroke-miterlimit:4;stroke-dasharray:none;stroke-dashoffset:0;stroke-opacity:1;color-rendering:auto;image-rendering:auto;shape-rendering:auto;text-rendering:auto;enable-background:accumulate"
         d="m 307.11438,299.90614 c -14.29194,-0.11558 -25.69089,8.31138 -33.29936,18.14763 -7.60847,9.83625 -12.90525,21.53827 -18.04717,32.65533 -5.1419,11.11705 -10.12777,21.66002 -15.23961,28.49156 -5.11185,6.83153 -8.86752,9.35357 -14.26733,9.38058 -5.6311,0.0282 -13.1044,-3.3771 -21.06099,-10.21836 -7.9566,-6.84126 -16.01125,-16.64559 -22.94287,-26.62405 -13.86324,-19.95693 -23.22809,-40.17917 -23.22809,-40.17917 a 11.482446,11.482446 0 1 0 -20.85112,9.61918 c 0,0 9.98158,21.72294 25.22118,43.66122 7.61981,10.96914 16.55748,22.10028 26.83036,30.93313 10.27288,8.83285 22.2684,15.84006 36.14635,15.77065 14.10927,-0.0706 25.15764,-8.72299 32.53872,-18.58715 7.38107,-9.86417 12.57637,-21.53897 17.69556,-32.60689 5.11917,-11.06792 10.16368,-21.51841 15.36879,-28.24759 5.2051,-6.72917 9.09056,-9.28085 14.94901,-9.23347 5.76309,0.0466 13.63482,3.86894 21.96157,11.44362 8.32674,7.5747 16.73313,18.34661 23.96542,29.27373 14.46458,21.85425 24.25244,43.91955 24.25244,43.91955 a 11.482446,11.482446 0 1 0 21.0036,-9.28191 c 0,0 -10.35503,-23.50927 -26.10919,-47.31191 -7.87708,-11.90133 -17.09928,-23.97862 -27.66095,-33.58639 -10.56169,-9.60776 -22.83902,-17.30292 -37.22632,-17.41929 z"
         id="path45"
         inkscape:connector-curvature="0" />
    </g>
  </g>
</svg>
