<?xml version="1.0" encoding="UTF-8" standalone="no"?>
<!-- Created with Inkscape (http://www.inkscape.org/) -->

<svg
   xmlns:dc="http://purl.org/dc/elements/1.1/"
   xmlns:cc="http://creativecommons.org/ns#"
   xmlns:rdf="http://www.w3.org/1999/02/22-rdf-syntax-ns#"
   xmlns:svg="http://www.w3.org/2000/svg"
   xmlns="http://www.w3.org/2000/svg"
   xmlns:sodipodi="http://sodipodi.sourceforge.net/DTD/sodipodi-0.dtd"
   xmlns:inkscape="http://www.inkscape.org/namespaces/inkscape"
   id="svg2"
   version="1.1"
   inkscape:version="0.92.2 2405546, 2018-03-11"
   width="512"
   height="512"
   sodipodi:docname="ooo-base.svg">
  <metadata
     id="metadata8">
    <rdf:RDF>
      <cc:Work
         rdf:about="">
        <dc:format>image/svg+xml</dc:format>
        <dc:type
           rdf:resource="http://purl.org/dc/dcmitype/StillImage" />
        <dc:title />
      </cc:Work>
    </rdf:RDF>
  </metadata>
  <defs
     id="defs6" />
  <sodipodi:namedview
     pagecolor="#ffffff"
     bordercolor="#666666"
     borderopacity="1"
     objecttolerance="10"
     gridtolerance="10"
     guidetolerance="10"
     inkscape:pageopacity="0"
     inkscape:pageshadow="2"
     inkscape:window-width="1149"
     inkscape:window-height="685"
     id="namedview4"
     showgrid="false"
     inkscape:zoom="0.32593203"
     inkscape:cx="-325.86824"
     inkscape:cy="105.15538"
     inkscape:window-x="90"
     inkscape:window-y="13"
     inkscape:window-maximized="0"
     inkscape:current-layer="svg2" />
  <g
     id="g903">
    <path
       id="path881"
       d="M 432.91329,56.473972 C 535.1062,145.04856 538.74006,306.17368 441.03009,416.37276 343.32012,526.57182 181.27964,544.10062 79.086727,455.52602 -23.106181,366.95143 -26.740046,205.82631 70.969927,95.627232 168.6799,-14.571848 330.72038,-32.100618 432.91329,56.473972 Z"
       inkscape:connector-curvature="0"
       style="fill:#a56de2;fill-opacity:1;stroke-width:11.10955811" />
    <path
       id="path883"
       d="m 511.63551,224.90352 c -1.5514,61.31166 -25.16123,124.1546 -70.96638,175.81449 C 342.95916,510.91712 180.91869,528.44582 78.72578,439.87127 30.827126,398.35564 4.4968241,340.92283 0.19383022,280.22879 0.79908178,346.58547 27.117413,410.48219 79.078684,455.51904 181.2716,544.09362 343.31975,526.55622 441.02203,416.36578 490.72697,360.30764 514.02705,291.07481 511.63551,224.90352 Z"
       inkscape:connector-curvature="0"
       style="opacity:1;fill:#000000;fill-opacity:0.49019608;stroke-width:11.10955811" />
    <g
       style="fill:#000000;fill-opacity:0.49019608"
       transform="translate(20,13.432701)"
       id="g86">
      <path
         sodipodi:nodetypes="czczczczc"
         inkscape:connector-curvature="0"
         id="path80"
         d="m 276.54636,275.96025 c 0,0 -31.87797,-22.06608 -76.09757,-20.16585 C 156.22919,257.69464 100,294.22368 100,294.22368 c 0,0 35.09231,-57.71525 82.18536,-66.2049 47.09306,-8.48963 79.14147,-0.76097 79.14147,-0.76097 0,0 13.6095,-20.98395 44.13658,-35.00485 C 335.99053,178.23205 412,180.07733 412,180.07733 c 0,0 -84.5292,26.16086 -105.77561,45.65854 -21.24641,19.4977 -29.67803,50.22438 -29.67803,50.22438 z"
         style="fill:#000000;fill-opacity:0.49019608;fill-rule:evenodd;stroke:none;stroke-width:0.9755246px;stroke-linecap:butt;stroke-linejoin:miter;stroke-opacity:1" />
      <path
         sodipodi:nodetypes="czczczczc"
         inkscape:connector-curvature="0"
         id="path82"
         d="m 280.79654,169.9887 c 0,0 -21.24078,-14.703 -50.70496,-13.43684 -29.46425,1.26617 -66.93062,25.60604 -66.93062,25.60604 0,0 23.38256,-38.45654 54.76138,-44.11333 31.37886,-5.65682 52.73322,-0.50704 52.73322,-0.50704 0,0 9.0682,-13.98198 29.40889,-23.32432 20.3407,-9.34229 70.987,-8.1128 70.987,-8.1128 0,0 -56.32313,17.43141 -70.47995,30.42299 -14.15678,12.99162 -19.77496,33.4653 -19.77496,33.4653 z"
         style="fill:#000000;fill-opacity:0.49019608;fill-rule:evenodd;stroke:none;stroke-width:0.9755246px;stroke-linecap:butt;stroke-linejoin:miter;stroke-opacity:1" />
      <path
         style="fill:#000000;fill-opacity:0.49019608;stroke-width:0.75873488"
         d="m 327.22367,417.87417 c -7.21387,-1.01476 -15.27354,-2.85954 -20.29217,-4.64467 -10.49922,-3.7346 -19.1076,-9.81143 -21.93429,-15.48394 -1.40421,-2.81781 -1.45811,-3.2971 -1.45811,-12.96143 0,-5.61203 0.22501,-10.03544 0.51011,-10.03544 0.28057,0 1.16454,1.11676 1.96441,2.48163 7.38762,12.60601 33.67162,20.98288 62.34775,19.87063 26.53576,-1.02927 47.57586,-9.01479 53.32395,-20.23848 0.75414,-1.47258 1.6091,-2.67743 1.89984,-2.67743 0.95813,0 1.28459,3.89413 1.03049,12.29239 -0.22749,7.51239 -0.38506,8.54351 -1.69852,11.10115 -4.58411,8.92638 -17.78225,15.82829 -37.32663,19.51998 -8.17803,1.54468 -29.79317,1.98164 -38.36683,0.77561 z m 3.10017,-27.41009 c -17.41052,-1.74909 -33.54123,-7.68933 -41.14439,-15.15168 -5.01655,-4.92362 -5.32866,-5.91687 -5.53501,-17.61476 -0.11886,-6.72743 0.0186,-10.00518 0.41571,-10.00518 0.32568,0 1.22339,0.99997 1.99493,2.22214 4.89692,7.75726 17.663,14.25016 34.34831,17.4698 33.26718,6.41928 72.19408,-2.12984 81.03616,-17.79709 0.93809,-1.66223 1.91951,-3.02221 2.18094,-3.02221 0.8583,0 1.25596,5.04893 0.99762,12.66609 -0.22779,6.7182 -0.41192,7.81209 -1.78774,10.62417 -7.09474,14.50114 -40.0532,23.86901 -72.50653,20.60872 z m 1.69105,-27.6169 c -22.33623,-1.97327 -41.34406,-10.29969 -46.66151,-20.44018 -1.42208,-2.71197 -1.5264,-3.42602 -1.71314,-11.72836 -0.24291,-10.80533 0.11912,-11.83654 2.7287,-7.76981 4.74627,7.39637 15.90857,13.08093 32.07235,16.33325 35.46619,7.13619 75.14028,-1.61675 83.69504,-18.46495 0.51156,-1.00755 1.13785,-1.83194 1.39168,-1.83194 0.71716,0 1.23491,15.20849 0.64181,18.85269 -2.69542,16.56119 -36.27582,28.21899 -72.15493,25.0493 z m 2.75831,-27.61305 c -23.23844,-1.47751 -44.43267,-10.5269 -49.34102,-21.0673 -6.72544,-14.44252 13.58271,-28.54409 45.95199,-31.90812 9.1108,-0.94681 26.77116,-0.38137 34.76999,1.11333 9.39398,1.7554 15.63589,3.72149 22.63849,7.13078 10.26057,4.99545 15.37224,10.9574 15.37224,17.92929 0,16.62472 -32.43335,29.15185 -69.39169,26.80202 z"
         id="path84"
         inkscape:connector-curvature="0" />
    </g>
    <g
       transform="translate(0,-6.5672987)"
       id="g78">
      <path
         style="fill:#ffffff;fill-opacity:1;fill-rule:evenodd;stroke:none;stroke-width:0.9755246px;stroke-linecap:butt;stroke-linejoin:miter;stroke-opacity:1"
         d="m 276.54636,275.96025 c 0,0 -31.87797,-22.06608 -76.09757,-20.16585 C 156.22919,257.69464 100,294.22368 100,294.22368 c 0,0 35.09231,-57.71525 82.18536,-66.2049 47.09306,-8.48963 79.14147,-0.76097 79.14147,-0.76097 0,0 13.6095,-20.98395 44.13658,-35.00485 C 335.99053,178.23205 412,180.07733 412,180.07733 c 0,0 -84.5292,26.16086 -105.77561,45.65854 -21.24641,19.4977 -29.67803,50.22438 -29.67803,50.22438 z"
         id="path4170-3"
         inkscape:connector-curvature="0"
         sodipodi:nodetypes="czczczczc" />
      <path
         style="fill:#ffffff;fill-opacity:1;fill-rule:evenodd;stroke:none;stroke-width:0.9755246px;stroke-linecap:butt;stroke-linejoin:miter;stroke-opacity:1"
         d="m 280.79654,169.9887 c 0,0 -21.24078,-14.703 -50.70496,-13.43684 -29.46425,1.26617 -66.93062,25.60604 -66.93062,25.60604 0,0 23.38256,-38.45654 54.76138,-44.11333 31.37886,-5.65682 52.73322,-0.50704 52.73322,-0.50704 0,0 9.0682,-13.98198 29.40889,-23.32432 20.3407,-9.34229 70.987,-8.1128 70.987,-8.1128 0,0 -56.32313,17.43141 -70.47995,30.42299 -14.15678,12.99162 -19.77496,33.4653 -19.77496,33.4653 z"
         id="path4170-6-6"
         inkscape:connector-curvature="0"
         sodipodi:nodetypes="czczczczc" />
      <path
         inkscape:connector-curvature="0"
         id="path3026"
         d="m 327.22367,417.87417 c -7.21387,-1.01476 -15.27354,-2.85954 -20.29217,-4.64467 -10.49922,-3.7346 -19.1076,-9.81143 -21.93429,-15.48394 -1.40421,-2.81781 -1.45811,-3.2971 -1.45811,-12.96143 0,-5.61203 0.22501,-10.03544 0.51011,-10.03544 0.28057,0 1.16454,1.11676 1.96441,2.48163 7.38762,12.60601 33.67162,20.98288 62.34775,19.87063 26.53576,-1.02927 47.57586,-9.01479 53.32395,-20.23848 0.75414,-1.47258 1.6091,-2.67743 1.89984,-2.67743 0.95813,0 1.28459,3.89413 1.03049,12.29239 -0.22749,7.51239 -0.38506,8.54351 -1.69852,11.10115 -4.58411,8.92638 -17.78225,15.82829 -37.32663,19.51998 -8.17803,1.54468 -29.79317,1.98164 -38.36683,0.77561 z m 3.10017,-27.41009 c -17.41052,-1.74909 -33.54123,-7.68933 -41.14439,-15.15168 -5.01655,-4.92362 -5.32866,-5.91687 -5.53501,-17.61476 -0.11886,-6.72743 0.0186,-10.00518 0.41571,-10.00518 0.32568,0 1.22339,0.99997 1.99493,2.22214 4.89692,7.75726 17.663,14.25016 34.34831,17.4698 33.26718,6.41928 72.19408,-2.12984 81.03616,-17.79709 0.93809,-1.66223 1.91951,-3.02221 2.18094,-3.02221 0.8583,0 1.25596,5.04893 0.99762,12.66609 -0.22779,6.7182 -0.41192,7.81209 -1.78774,10.62417 -7.09474,14.50114 -40.0532,23.86901 -72.50653,20.60872 z m 1.69105,-27.6169 c -22.33623,-1.97327 -41.34406,-10.29969 -46.66151,-20.44018 -1.42208,-2.71197 -1.5264,-3.42602 -1.71314,-11.72836 -0.24291,-10.80533 0.11912,-11.83654 2.7287,-7.76981 4.74627,7.39637 15.90857,13.08093 32.07235,16.33325 35.46619,7.13619 75.14028,-1.61675 83.69504,-18.46495 0.51156,-1.00755 1.13785,-1.83194 1.39168,-1.83194 0.71716,0 1.23491,15.20849 0.64181,18.85269 -2.69542,16.56119 -36.27582,28.21899 -72.15493,25.0493 z m 2.75831,-27.61305 c -23.23844,-1.47751 -44.43267,-10.5269 -49.34102,-21.0673 -6.72544,-14.44252 13.58271,-28.54409 45.95199,-31.90812 9.1108,-0.94681 26.77116,-0.38137 34.76999,1.11333 9.39398,1.7554 15.63589,3.72149 22.63849,7.13078 10.26057,4.99545 15.37224,10.9574 15.37224,17.92929 0,16.62472 -32.43335,29.15185 -69.39169,26.80202 z"
         style="fill:#ffffff;fill-opacity:1;stroke-width:0.75873488" />
    </g>
  </g>
</svg>
