<?xml version="1.0" encoding="UTF-8" standalone="no"?>
<!-- Created with Inkscape (http://www.inkscape.org/) -->

<svg
   xmlns:dc="http://purl.org/dc/elements/1.1/"
   xmlns:cc="http://creativecommons.org/ns#"
   xmlns:rdf="http://www.w3.org/1999/02/22-rdf-syntax-ns#"
   xmlns:svg="http://www.w3.org/2000/svg"
   xmlns="http://www.w3.org/2000/svg"
   xmlns:sodipodi="http://sodipodi.sourceforge.net/DTD/sodipodi-0.dtd"
   xmlns:inkscape="http://www.inkscape.org/namespaces/inkscape"
   id="svg2"
   version="1.1"
   inkscape:version="0.92.2 2405546, 2018-03-11"
   width="512"
   height="512"
   sodipodi:docname="opera-beta.svg">
  <metadata
     id="metadata8">
    <rdf:RDF>
      <cc:Work
         rdf:about="">
        <dc:format>image/svg+xml</dc:format>
        <dc:type
           rdf:resource="http://purl.org/dc/dcmitype/StillImage" />
        <dc:title />
      </cc:Work>
    </rdf:RDF>
  </metadata>
  <defs
     id="defs6" />
  <sodipodi:namedview
     pagecolor="#ffffff"
     bordercolor="#666666"
     borderopacity="1"
     objecttolerance="10"
     gridtolerance="10"
     guidetolerance="10"
     inkscape:pageopacity="0"
     inkscape:pageshadow="2"
     inkscape:window-width="1366"
     inkscape:window-height="700"
     id="namedview4"
     showgrid="false"
     inkscape:zoom="0.16296602"
     inkscape:cx="1735.6711"
     inkscape:cy="93.045609"
     inkscape:window-x="0"
     inkscape:window-y="0"
     inkscape:window-maximized="1"
     inkscape:current-layer="svg2" />
  <g
     id="g873">
    <path
       id="path881"
       d="M 432.91329,56.473974 C 535.1062,145.04856 538.74006,306.17368 441.03009,416.37276 343.32012,526.57182 181.27964,544.10062 79.086727,455.52602 -23.106181,366.95143 -26.740046,205.82631 70.969927,95.627234 168.6799,-14.571846 330.72038,-32.100616 432.91329,56.473974 Z"
       inkscape:connector-curvature="0"
       style="fill:#8a715e;fill-opacity:1;stroke-width:11.10955811" />
    <path
       id="path883"
       d="m 511.63551,224.90352 c -1.5514,61.31166 -25.16123,124.1546 -70.96638,175.81449 C 342.95916,510.91712 180.91869,528.44582 78.72578,439.87127 30.827126,398.35564 4.4968242,340.92283 0.19383033,280.22879 0.79908189,346.58547 27.117413,410.48219 79.078684,455.51904 181.2716,544.09362 343.31975,526.55622 441.02203,416.36578 490.72697,360.30764 514.02705,291.07481 511.63551,224.90352 Z"
       inkscape:connector-curvature="0"
       style="opacity:1;fill:#000000;fill-opacity:0.49019608;stroke-width:11.10955811" />
    <g
       style="fill:#000000;fill-opacity:0.49019608"
       transform="translate(20,20.0003)"
       id="g863">
      <path
         inkscape:connector-curvature="0"
         id="path859"
         d="m 255.91797,100 c -8.45279,-0.002 -16.90203,0.41133 -22.25391,1.24219 -32.89837,5.10733 -61.92152,19.24496 -85.46289,41.6289 -21.14248,20.103 -36.47706,46.24302 -43.5664,74.26758 C 100.92773,231.79276 100,239.56322 100,255.94531 c 0,16.38209 0.92773,24.15254 4.63477,38.80664 5.04934,19.96035 13.98855,38.48801 26.94921,55.85157 6.21779,8.33007 21.32423,23.43649 29.6543,29.65429 24.45349,18.25278 51.9026,28.7528 82.48047,31.55469 6.21427,0.56943 28.30914,-0.24554 35.14063,-1.29688 16.79456,-2.58459 32.14624,-7.52406 47.46484,-15.27148 40.39525,-20.43002 69.83901,-57.03616 80.83203,-100.49219 3.70703,-14.6541 4.63477,-22.42455 4.63477,-38.80664 0,-16.38209 -0.92774,-24.15255 -4.63477,-38.80664 -6.91857,-27.34951 -20.51259,-51.0795 -40.95313,-71.48437 -24.35214,-24.30964 -53.59235,-39.06054 -88.00585,-44.40039 -5.37068,-0.83337 -13.82651,-1.25194 -22.2793,-1.25391 z m 1.17187,21.83203 c 15.30153,-0.0168 25.77107,2.24863 39.07813,8.45703 12.34605,5.76005 21.30582,12.14762 31.62891,22.54492 21.50754,21.66215 34.8421,50.16662 39.50976,84.4629 1.32035,9.70142 1.50136,31.36687 0.33789,40.36328 -2.98937,23.11522 -10.08706,44.70129 -20.18945,61.39843 -18.3441,30.31895 -44.29361,49.72101 -73.88281,55.24024 -7.00208,1.30609 -19.96035,1.77571 -26.61524,0.96484 -11.67484,-1.4225 -22.80361,-5.04006 -34.31836,-11.15429 -8.67085,-4.60414 -15.47569,-9.60514 -23.39453,-17.19532 -11.87605,-11.38316 -19.47796,-21.91233 -27.30664,-37.82226 -19.77883,-40.19583 -21.33201,-90.11299 -4.10742,-132.02344 3.84112,-9.34609 5.34709,-12.35839 10.10156,-20.19922 12.76594,-21.05294 31.20556,-37.98884 51.04102,-46.87891 13.54265,-6.06969 23.2253,-8.14188 38.11718,-8.1582 z"
         style="fill:#000000;fill-opacity:0.49019608;stroke-width:0.67655551" />
      <path
         style="fill:#000000;fill-opacity:0.49019608;stroke-width:0.62027401"
         d="m 249.06197,385.29766 c -10.70363,-1.30416 -20.90779,-4.62058 -31.46465,-10.22617 -7.94954,-4.22113 -14.18834,-8.80699 -21.44843,-15.76575 -10.88809,-10.43622 -17.85722,-20.08919 -25.03465,-34.6756 -18.13346,-36.85201 -19.55716,-82.61693 -3.76545,-121.04092 3.52158,-8.5686 4.90277,-11.3303 9.26172,-18.51886 11.70397,-19.30159 28.60866,-34.82783 46.79404,-42.97835 12.41606,-5.56476 21.29393,-7.46495 34.94697,-7.4799 14.02863,-0.0154 23.6274,2.06204 35.82748,7.75397 11.319,5.28088 19.53313,11.13548 28.99747,20.66784 19.71837,19.86012 31.94324,45.99492 36.22259,77.43815 1.21052,8.89437 1.37719,28.75712 0.31051,37.00513 -2.74069,21.1923 -9.2485,40.98271 -18.51048,56.29084 -16.8181,27.79677 -40.60934,45.58475 -67.73707,50.64485 -6.41959,1.19744 -18.29877,1.62819 -24.40005,0.88477 z m 23.37373,-9.47305 c 17.67527,-4.3336 32.95998,-16.0618 45.34226,-34.79184 22.91442,-34.66146 28.61462,-86.6003 14.24325,-129.78114 -9.20058,-27.6445 -24.9148,-48.4912 -44.52664,-59.06969 -18.9988,-10.24783 -40.95636,-9.43444 -59.49401,2.20386 -46.91592,29.45471 -63.32568,112.67328 -34.14029,173.13516 6.10043,12.63792 12.06179,21.14012 21.01692,29.97472 11.41514,11.26153 23.643,17.44329 38.97938,19.70594 3.60704,0.53215 13.90541,-0.23111 18.57913,-1.37701 z"
         id="path861"
         inkscape:connector-curvature="0" />
    </g>
    <g
       id="g857">
      <path
         style="fill:#ffffff;fill-opacity:1;stroke-width:0.67655551"
         d="M 255.91797 100 C 247.46518 99.998028 239.01594 100.41133 233.66406 101.24219 C 200.76569 106.34952 171.74254 120.48715 148.20117 142.87109 C 127.05869 162.97409 111.72411 189.11411 104.63477 217.13867 C 100.92773 231.79276 100 239.56322 100 255.94531 C 100 272.3274 100.92773 280.09785 104.63477 294.75195 C 109.68411 314.7123 118.62332 333.23996 131.58398 350.60352 C 137.80177 358.93359 152.90821 374.04001 161.23828 380.25781 C 185.69177 398.51059 213.14088 409.01061 243.71875 411.8125 C 249.93302 412.38193 272.02789 411.56696 278.85938 410.51562 C 295.65394 407.93103 311.00562 402.99156 326.32422 395.24414 C 366.71947 374.81412 396.16323 338.20798 407.15625 294.75195 C 410.86328 280.09785 411.79102 272.3274 411.79102 255.94531 C 411.79102 239.56322 410.86328 231.79276 407.15625 217.13867 C 400.23768 189.78916 386.64366 166.05917 366.20312 145.6543 C 341.85098 121.34466 312.61077 106.59376 278.19727 101.25391 C 272.82659 100.42054 264.37076 100.00197 255.91797 100 z M 257.08984 121.83203 C 272.39137 121.81523 282.86091 124.08066 296.16797 130.28906 C 308.51402 136.04911 317.47379 142.43668 327.79688 152.83398 C 349.30442 174.49613 362.63898 203.0006 367.30664 237.29688 C 368.62699 246.9983 368.808 268.66375 367.64453 277.66016 C 364.65516 300.77538 357.55747 322.36145 347.45508 339.05859 C 329.11098 369.37754 303.16147 388.7796 273.57227 394.29883 C 266.57019 395.60492 253.61192 396.07454 246.95703 395.26367 C 235.28219 393.84117 224.15342 390.22361 212.63867 384.10938 C 203.96782 379.50524 197.16298 374.50424 189.24414 366.91406 C 177.36809 355.5309 169.76618 345.00173 161.9375 329.0918 C 142.15867 288.89597 140.60549 238.97881 157.83008 197.06836 C 161.6712 187.72227 163.17717 184.70997 167.93164 176.86914 C 180.69758 155.8162 199.1372 138.8803 218.97266 129.99023 C 232.51531 123.92054 242.19796 121.84835 257.08984 121.83203 z "
         id="path2986" />
      <path
         inkscape:connector-curvature="0"
         id="path2984"
         d="m 249.06197,385.29766 c -10.70363,-1.30416 -20.90779,-4.62058 -31.46465,-10.22617 -7.94954,-4.22113 -14.18834,-8.80699 -21.44843,-15.76575 -10.88809,-10.43622 -17.85722,-20.08919 -25.03465,-34.6756 -18.13346,-36.85201 -19.55716,-82.61693 -3.76545,-121.04092 3.52158,-8.5686 4.90277,-11.3303 9.26172,-18.51886 11.70397,-19.30159 28.60866,-34.82783 46.79404,-42.97835 12.41606,-5.56476 21.29393,-7.46495 34.94697,-7.4799 14.02863,-0.0154 23.6274,2.06204 35.82748,7.75397 11.319,5.28088 19.53313,11.13548 28.99747,20.66784 19.71837,19.86012 31.94324,45.99492 36.22259,77.43815 1.21052,8.89437 1.37719,28.75712 0.31051,37.00513 -2.74069,21.1923 -9.2485,40.98271 -18.51048,56.29084 -16.8181,27.79677 -40.60934,45.58475 -67.73707,50.64485 -6.41959,1.19744 -18.29877,1.62819 -24.40005,0.88477 z m 23.37373,-9.47305 c 17.67527,-4.3336 32.95998,-16.0618 45.34226,-34.79184 22.91442,-34.66146 28.61462,-86.6003 14.24325,-129.78114 -9.20058,-27.6445 -24.9148,-48.4912 -44.52664,-59.06969 -18.9988,-10.24783 -40.95636,-9.43444 -59.49401,2.20386 -46.91592,29.45471 -63.32568,112.67328 -34.14029,173.13516 6.10043,12.63792 12.06179,21.14012 21.01692,29.97472 11.41514,11.26153 23.643,17.44329 38.97938,19.70594 3.60704,0.53215 13.90541,-0.23111 18.57913,-1.37701 z"
         style="fill:#ffffff;fill-opacity:1;stroke-width:0.62027401" />
    </g>
  </g>
</svg>
