<?xml version="1.0" encoding="UTF-8" standalone="no"?>
<!-- Created with Inkscape (http://www.inkscape.org/) -->

<svg
   xmlns:dc="http://purl.org/dc/elements/1.1/"
   xmlns:cc="http://creativecommons.org/ns#"
   xmlns:rdf="http://www.w3.org/1999/02/22-rdf-syntax-ns#"
   xmlns:svg="http://www.w3.org/2000/svg"
   xmlns="http://www.w3.org/2000/svg"
   xmlns:sodipodi="http://sodipodi.sourceforge.net/DTD/sodipodi-0.dtd"
   xmlns:inkscape="http://www.inkscape.org/namespaces/inkscape"
   width="512"
   height="512"
   id="svg2"
   version="1.1"
   inkscape:version="0.92.3 (2405546, 2018-03-11)"
   sodipodi:docname="org.gnome.Files.svg">
  <defs
     id="defs4" />
  <sodipodi:namedview
     id="base"
     pagecolor="#ffffff"
     bordercolor="#666666"
     borderopacity="1.0"
     inkscape:pageopacity="0.0"
     inkscape:pageshadow="2"
     inkscape:zoom="0.24748738"
     inkscape:cx="-104.45059"
     inkscape:cy="63.185625"
     inkscape:document-units="px"
     inkscape:current-layer="layer1"
     showgrid="false"
     inkscape:window-width="1366"
     inkscape:window-height="718"
     inkscape:window-x="0"
     inkscape:window-y="25"
     inkscape:window-maximized="1" />
  <metadata
     id="metadata7">
    <rdf:RDF>
      <cc:Work
         rdf:about="">
        <dc:format>image/svg+xml</dc:format>
        <dc:type
           rdf:resource="http://purl.org/dc/dcmitype/StillImage" />
        <dc:title />
      </cc:Work>
    </rdf:RDF>
  </metadata>
  <g
     inkscape:label="Layer 1"
     inkscape:groupmode="layer"
     id="layer1"
     transform="translate(0,-540.36218)">
    <g
       transform="translate(1.7735078e-7,1.9364447e-6)"
       id="g853">
      <path
         id="path848"
         d="m 432.91325,596.83615 c 102.19291,88.57459 105.82677,249.69971 8.1168,359.89879 C 343.32009,1066.934 181.27965,1084.4628 79.08674,995.8882 -23.106205,907.31361 -26.740032,746.18849 70.96994,635.98941 168.67991,525.79033 330.72036,508.26156 432.91325,596.83615 Z"
         inkscape:connector-curvature="0"
         style="fill:#7f6421;fill-opacity:1;stroke-width:11.10955811" />
      <path
         style="fill:#ffffff;fill-opacity:1;stroke-width:10.33090782"
         inkscape:connector-curvature="0"
         d="m 419.35612,611.39939 c 95.03037,82.36656 98.40957,232.19868 7.54791,334.67411 C 336.04238,1048.5489 185.35908,1064.8491 90.32868,982.48256 -4.7017194,900.11603 -8.0808816,750.28388 82.780775,647.80845 173.64243,545.33306 324.32573,529.03282 419.35612,611.39939 Z"
         id="path849" />
      <path
         inkscape:connector-curvature="0"
         id="path843"
         d="m 279.8415,540.37999 c -75.15243,-0.5037 -152.65749,32.21064 -208.871095,95.60935 -97.709979,110.19908 -94.075759,271.32385 8.117182,359.89844 102.192903,88.57462 264.233393,71.04672 361.943373,-39.15235 32.12689,-36.23327 53.2938,-77.97283 63.60737,-120.8281 C 485.01835,800.01887 436.88916,715.26039 386.63445,651.83701 351.73982,607.79856 310.65691,568.01604 279.8415,540.37999 Z"
         style="fill:#f9c440;fill-opacity:1;stroke:none;stroke-width:0.99999994px;stroke-linecap:butt;stroke-linejoin:miter;stroke-opacity:1" />
      <path
         inkscape:connector-curvature="0"
         transform="translate(0,540.36218)"
         id="path842"
         d="m 256.19727,312.1582 c -74.64897,0.44477 -125.04555,42.96797 -153.01954,82.72266 -14.087178,20.01973 -23.502969,40.03067 -29.388668,54.97852 1.13792,1.3585 2.299201,2.70293 3.472657,4.03906 0.610675,0.54082 1.20829,1.09141 1.826172,1.62695 14.133144,12.24975 29.415739,22.45901 45.509769,30.68555 2.17201,-7.44061 10.14529,-31.9257 27.65039,-56.80274 20.93811,-29.75578 51.35521,-56.9345 104.30664,-57.25 52.79719,-0.31457 85.32052,27.16843 108.02343,57.42188 9.32268,12.4232 16.30065,24.79634 21.32813,35.10742 16.68599,-11.23098 32.47421,-24.43471 47.00977,-39.55078 -5.52299,-10.00024 -12.25775,-20.78791 -20.34766,-31.56836 -29.74471,-39.63716 -81.5679,-81.85585 -156.37109,-81.41016 z"
         style="color:#000000;font-style:normal;font-variant:normal;font-weight:normal;font-stretch:normal;font-size:medium;line-height:normal;font-family:sans-serif;font-variant-ligatures:normal;font-variant-position:normal;font-variant-caps:normal;font-variant-numeric:normal;font-variant-alternates:normal;font-feature-settings:normal;text-indent:0;text-align:start;text-decoration:none;text-decoration-line:none;text-decoration-style:solid;text-decoration-color:#000000;letter-spacing:normal;word-spacing:normal;text-transform:none;writing-mode:lr-tb;direction:ltr;text-orientation:mixed;dominant-baseline:auto;baseline-shift:baseline;text-anchor:start;white-space:normal;shape-padding:0;clip-rule:nonzero;display:inline;overflow:visible;visibility:visible;opacity:1;isolation:auto;mix-blend-mode:normal;color-interpolation:sRGB;color-interpolation-filters:linearRGB;solid-color:#000000;solid-opacity:1;vector-effect:none;fill:#000000;fill-opacity:0.49019608;fill-rule:nonzero;stroke:none;stroke-width:60;stroke-linecap:butt;stroke-linejoin:miter;stroke-miterlimit:4;stroke-dasharray:none;stroke-dashoffset:0;stroke-opacity:1;color-rendering:auto;image-rendering:auto;shape-rendering:auto;text-rendering:auto;enable-background:accumulate" />
      <path
         id="path850"
         d="M 511.63548,765.2657 C 510.0841,826.57734 486.47426,889.42031 440.66911,941.08017 342.95915,1051.2793 180.9187,1068.808 78.725757,980.23347 30.827125,938.71782 4.4968193,881.28502 0.19382704,820.59099 0.79908059,886.94766 27.117405,950.84436 79.07869,995.88125 181.2716,1084.4558 343.31975,1066.9184 441.022,956.72795 490.72695,900.66984 514.02702,831.43699 511.63548,765.2657 Z"
         inkscape:connector-curvature="0"
         style="opacity:1;fill:#000000;fill-opacity:0.49019608;stroke-width:11.10955811" />
      <path
         inkscape:connector-curvature="0"
         id="path831"
         transform="translate(0,540.36218)"
         d="m 236.19727,292.0918 c -74.64897,0.44477 -125.04555,42.96796 -153.019536,82.72265 -14.087184,20.01973 -23.502974,40.03067 -29.388672,54.97852 7.628955,9.10784 16.054983,17.72042 25.298829,25.73242 4.094218,3.54862 8.29391,6.90831 12.572265,10.11719 l 12.226564,3 c 0,0 7.42322,-29.54499 28.36133,-59.30078 20.93811,-29.75578 51.35521,-56.9345 104.30664,-57.25 52.79719,-0.31457 85.32051,27.16842 108.02343,57.42187 22.70295,30.25345 31.70508,60.41992 31.70508,60.41992 l 2.86133,-0.83984 c 16.55694,-10.4753 32.30657,-22.83374 46.90625,-37.04102 -6.47436,-15.26338 -17.25247,-36.92308 -33.48242,-58.55078 -29.74471,-39.63716 -81.5679,-81.85584 -156.37109,-81.41015 z"
         style="color:#000000;font-style:normal;font-variant:normal;font-weight:normal;font-stretch:normal;font-size:medium;line-height:normal;font-family:sans-serif;font-variant-ligatures:normal;font-variant-position:normal;font-variant-caps:normal;font-variant-numeric:normal;font-variant-alternates:normal;font-feature-settings:normal;text-indent:0;text-align:start;text-decoration:none;text-decoration-line:none;text-decoration-style:solid;text-decoration-color:#000000;letter-spacing:normal;word-spacing:normal;text-transform:none;writing-mode:lr-tb;direction:ltr;text-orientation:mixed;dominant-baseline:auto;baseline-shift:baseline;text-anchor:start;white-space:normal;shape-padding:0;clip-rule:nonzero;display:inline;overflow:visible;visibility:visible;opacity:1;isolation:auto;mix-blend-mode:normal;color-interpolation:sRGB;color-interpolation-filters:linearRGB;solid-color:#000000;solid-opacity:1;vector-effect:none;fill:#3689e6;fill-opacity:1;fill-rule:nonzero;stroke:none;stroke-width:60;stroke-linecap:butt;stroke-linejoin:miter;stroke-miterlimit:4;stroke-dasharray:none;stroke-dashoffset:0;stroke-opacity:1;color-rendering:auto;image-rendering:auto;shape-rendering:auto;text-rendering:auto;enable-background:accumulate" />
    </g>
  </g>
</svg>
