<?xml version="1.0" encoding="UTF-8" standalone="no"?>
<!-- Generator: Adobe Illustrator 19.0.0, SVG Export Plug-In . SVG Version: 6.00 Build 0)  -->

<svg
   xmlns:dc="http://purl.org/dc/elements/1.1/"
   xmlns:cc="http://creativecommons.org/ns#"
   xmlns:rdf="http://www.w3.org/1999/02/22-rdf-syntax-ns#"
   xmlns:svg="http://www.w3.org/2000/svg"
   xmlns="http://www.w3.org/2000/svg"
   xmlns:sodipodi="http://sodipodi.sourceforge.net/DTD/sodipodi-0.dtd"
   xmlns:inkscape="http://www.inkscape.org/namespaces/inkscape"
   version="1.1"
   id="Layer_1"
   x="0px"
   y="0px"
   viewBox="0 0 512 512"
   xml:space="preserve"
   inkscape:version="0.92.2 2405546, 2018-03-11"
   width="512"
   height="512"
   sodipodi:docname="org.gnome.Builder.svg"><metadata
     id="metadata57"><rdf:RDF><cc:Work
         rdf:about=""><dc:format>image/svg+xml</dc:format><dc:type
           rdf:resource="http://purl.org/dc/dcmitype/StillImage" /><dc:title></dc:title></cc:Work></rdf:RDF></metadata><defs
     id="defs55" /><sodipodi:namedview
     pagecolor="#ffffff"
     bordercolor="#666666"
     borderopacity="1"
     objecttolerance="10"
     gridtolerance="10"
     guidetolerance="10"
     inkscape:pageopacity="0"
     inkscape:pageshadow="2"
     inkscape:window-width="1366"
     inkscape:window-height="700"
     id="namedview53"
     showgrid="false"
     inkscape:zoom="0.26279754"
     inkscape:cx="1441.7787"
     inkscape:cy="247.10761"
     inkscape:window-x="0"
     inkscape:window-y="0"
     inkscape:window-maximized="1"
     inkscape:current-layer="Layer_1"
     units="px" /><g
     id="g23"
     transform="translate(0,550.767)" /><g
     id="g25"
     transform="translate(0,550.767)" /><g
     id="g27"
     transform="translate(0,550.767)" /><g
     id="g29"
     transform="translate(0,550.767)" /><g
     id="g31"
     transform="translate(0,550.767)" /><g
     id="g33"
     transform="translate(0,550.767)" /><g
     id="g35"
     transform="translate(0,550.767)" /><g
     id="g37"
     transform="translate(0,550.767)" /><g
     id="g39"
     transform="translate(0,550.767)" /><g
     id="g41"
     transform="translate(0,550.767)" /><g
     id="g43"
     transform="translate(0,550.767)" /><g
     id="g45"
     transform="translate(0,550.767)" /><g
     id="g47"
     transform="translate(0,550.767)" /><g
     id="g49"
     transform="translate(0,550.767)" /><g
     id="g51"
     transform="translate(0,550.767)" /><g
     transform="translate(-3.8111921e-7,4.7830416e-6)"
     id="g951"><path
       style="fill:#f9c440;fill-opacity:1;stroke-width:11.10955811"
       inkscape:connector-curvature="0"
       d="m 432.91321,56.47397 c 102.19296,88.57471 105.82688,249.69982 8.1168,359.89886 C 343.31994,526.5719 181.27962,544.1005 79.086662,455.52611 -23.106295,366.95139 -26.739895,205.82627 70.969862,95.62725 168.67994,-14.57179 330.72026,-32.10075 432.91321,56.47397 Z"
       id="path52" /><path
       style="opacity:1;fill:#000000;fill-opacity:0.49019608;stroke-width:11.10955811"
       inkscape:connector-curvature="0"
       d="m 511.63545,224.90339 c -1.552,61.31168 -25.16128,124.15488 -70.9664,175.81472 C 342.9593,510.9172 180.91866,528.4458 78.725702,439.87139 30.827143,398.35555 4.4969026,340.92291 0.19386283,280.22883 0.79866281,346.58563 27.117384,410.48227 79.078662,455.51907 181.27162,544.0938 343.31962,526.5562 441.02201,416.36579 c 49.70496,-56.05824 73.00512,-125.29088 70.61344,-191.4624 z"
       id="path54" /><g
       style="fill:#000000;fill-opacity:0.49019608"
       id="g929"
       transform="translate(-12.293854,13.053707)"><path
         inkscape:connector-curvature="0"
         id="path913"
         d="m 253.78991,295.19289 a 59.711918,59.711918 0 0 1 -49.91606,27.02991 59.711918,59.711918 0 0 1 -49.92527,-27.00094 v 73.25648 h 99.84133 z"
         style="opacity:1;fill:#000000;fill-opacity:0.49019608;stroke:none;stroke-width:0.62522161;stroke-linecap:round;stroke-miterlimit:4;stroke-dasharray:none;stroke-opacity:1" /><path
         inkscape:connector-curvature="0"
         id="path915"
         d="m 153.51406,368.47834 c -5.53301,0 -9.98743,4.45442 -9.98743,9.98742 v 1.06524 h 121.11843 v -1.06524 c 0,-5.533 -4.45442,-9.98742 -9.98742,-9.98742 z"
         style="opacity:1;fill:#000000;fill-opacity:0.49019608;stroke:none;stroke-width:0.68417865;stroke-linecap:round;stroke-miterlimit:4;stroke-dasharray:none;stroke-opacity:1" /><rect
         ry="9.9873629"
         y="379.53061"
         x="132.29385"
         height="33.415684"
         width="143.69905"
         id="rect917"
         style="opacity:1;fill:#000000;fill-opacity:0.49019608;stroke:none;stroke-width:0.68417865;stroke-linecap:round;stroke-miterlimit:4;stroke-dasharray:none;stroke-opacity:1" /><path
         inkscape:connector-curvature="0"
         id="path919"
         d="m 265.24549,159.14401 -43.87356,46.28319 a 59.711918,59.711918 0 0 1 40.93988,45.1271 l 47.18252,-49.77649 a 43.92136,43.92136 0 0 1 -30.6562,-12.03889 43.92136,43.92136 0 0 1 -13.59264,-29.59491 z"
         style="opacity:1;fill:#000000;fill-opacity:0.49019608;stroke:none;stroke-width:0.53234589;stroke-linecap:round;stroke-miterlimit:4;stroke-dasharray:none;stroke-opacity:1" /><path
         inkscape:connector-curvature="0"
         id="path921"
         d="m 203.87385,202.799 a 59.711918,59.711918 0 0 0 -59.71256,59.71124 59.711918,59.711918 0 0 0 59.71256,59.71256 59.711918,59.711918 0 0 0 59.71124,-59.71256 59.711918,59.711918 0 0 0 -59.71124,-59.71124 z m -0.51615,16.90554 a 43.573562,43.573562 0 0 1 43.57335,43.57335 43.573562,43.573562 0 0 1 -43.57335,43.57336 43.573562,43.573562 0 0 1 -43.57336,-43.57336 43.573562,43.573562 0 0 1 43.57336,-43.57335 z"
         style="opacity:1;fill:#000000;fill-opacity:0.49019608;stroke:none;stroke-width:0.71155334;stroke-linecap:round;stroke-miterlimit:4;stroke-dasharray:none;stroke-opacity:1" /><path
         inkscape:connector-curvature="0"
         id="path923"
         d="m 351.33222,168.65609 a 43.92136,43.92136 0 0 1 -10.40219,18.42243 43.92136,43.92136 0 0 1 -21.89728,12.52477 l 44.57934,47.02978 v -0.13036 l 30.44156,-32.44695 h 0.31338 z"
         style="opacity:1;fill:#000000;fill-opacity:0.49019608;stroke:none;stroke-width:0.53234589;stroke-linecap:round;stroke-miterlimit:4;stroke-dasharray:none;stroke-opacity:1" /><path
         inkscape:connector-curvature="0"
         id="path925"
         d="m 308.52126,112.94509 a 43.92136,43.92136 0 0 0 -31.34353,13.70193 43.92136,43.92136 0 0 0 1.6604,62.0919 43.92136,43.92136 0 0 0 62.0919,-1.6604 43.92136,43.92136 0 0 0 -1.6604,-62.0919 43.92136,43.92136 0 0 0 -30.74837,-12.04153 z m -0.5201,12.01783 a 32.050723,32.050723 0 0 1 22.43845,8.78788 32.050723,32.050723 0 0 1 1.2114,45.31012 32.050723,32.050723 0 0 1 -45.31012,1.2114 32.050723,32.050723 0 0 1 -1.21272,-45.31012 32.050723,32.050723 0 0 1 22.87299,-9.99928 z"
         style="opacity:1;fill:#000000;fill-opacity:0.49019608;stroke:none;stroke-width:0.52338612;stroke-linecap:round;stroke-miterlimit:4;stroke-dasharray:none;stroke-opacity:1" /><path
         sodipodi:nodetypes="ccccczcccccczcc"
         inkscape:connector-curvature="0"
         id="path927"
         d="m 380.38473,267.72615 v -16.93509 l 19.75761,-19.97474 18.88915,0.21713 9.33601,21.27742 c 0,0 2.26984,5.82194 10.20798,2.81211 7.93814,-3.00982 5.2966,-8.67414 5.2966,-8.67414 l -14.0475,-32.39369 h -35.77124 l -30.44086,32.44786 0.043,30.26695 30.32111,17.04123 c 0,0 6.23385,2.79635 9.9791,-4.14517 3.74526,-6.94152 -1.8423,-10.3629 -1.8423,-10.3629 z"
         style="fill:#000000;fill-opacity:0.49019608;stroke:none;stroke-width:0.67416763px;stroke-linecap:butt;stroke-linejoin:miter;stroke-opacity:1" /></g><g
       transform="translate(-32.293854,-6.9462929)"
       id="g911"><path
         style="opacity:1;fill:#ffffff;fill-opacity:1;stroke:none;stroke-width:0.62522161;stroke-linecap:round;stroke-miterlimit:4;stroke-dasharray:none;stroke-opacity:1"
         d="m 253.78991,295.19289 a 59.711918,59.711918 0 0 1 -49.91606,27.02991 59.711918,59.711918 0 0 1 -49.92527,-27.00094 v 73.25648 h 99.84133 z"
         id="rect4511-3-6"
         inkscape:connector-curvature="0" /><path
         style="opacity:1;fill:#ffffff;fill-opacity:1;stroke:none;stroke-width:0.68417865;stroke-linecap:round;stroke-miterlimit:4;stroke-dasharray:none;stroke-opacity:1"
         d="m 153.51406,368.47834 c -5.53301,0 -9.98743,4.45442 -9.98743,9.98742 v 1.06524 h 121.11843 v -1.06524 c 0,-5.533 -4.45442,-9.98742 -9.98742,-9.98742 z"
         id="rect4511-3"
         inkscape:connector-curvature="0" /><rect
         style="opacity:1;fill:#ffffff;fill-opacity:1;stroke:none;stroke-width:0.68417865;stroke-linecap:round;stroke-miterlimit:4;stroke-dasharray:none;stroke-opacity:1"
         id="rect4511"
         width="143.69905"
         height="33.415684"
         x="132.29385"
         y="379.53061"
         ry="9.9873629" /><path
         style="opacity:1;fill:#ffffff;fill-opacity:1;stroke:none;stroke-width:0.53234589;stroke-linecap:round;stroke-miterlimit:4;stroke-dasharray:none;stroke-opacity:1"
         d="m 265.24549,159.14401 -43.87356,46.28319 a 59.711918,59.711918 0 0 1 40.93988,45.1271 l 47.18252,-49.77649 a 43.92136,43.92136 0 0 1 -30.6562,-12.03889 43.92136,43.92136 0 0 1 -13.59264,-29.59491 z"
         id="rect4511-3-6-3"
         inkscape:connector-curvature="0" /><path
         style="opacity:1;fill:#ffffff;fill-opacity:1;stroke:none;stroke-width:0.71155334;stroke-linecap:round;stroke-miterlimit:4;stroke-dasharray:none;stroke-opacity:1"
         d="m 203.87385,202.799 a 59.711918,59.711918 0 0 0 -59.71256,59.71124 59.711918,59.711918 0 0 0 59.71256,59.71256 59.711918,59.711918 0 0 0 59.71124,-59.71256 59.711918,59.711918 0 0 0 -59.71124,-59.71124 z m -0.51615,16.90554 a 43.573562,43.573562 0 0 1 43.57335,43.57335 43.573562,43.573562 0 0 1 -43.57335,43.57336 43.573562,43.573562 0 0 1 -43.57336,-43.57336 43.573562,43.573562 0 0 1 43.57336,-43.57335 z"
         id="path4543"
         inkscape:connector-curvature="0" /><path
         style="opacity:1;fill:#ffffff;fill-opacity:1;stroke:none;stroke-width:0.53234589;stroke-linecap:round;stroke-miterlimit:4;stroke-dasharray:none;stroke-opacity:1"
         d="m 351.33222,168.65609 a 43.92136,43.92136 0 0 1 -10.40219,18.42243 43.92136,43.92136 0 0 1 -21.89728,12.52477 l 44.57934,47.02978 v -0.13036 l 30.44156,-32.44695 h 0.31338 z"
         id="rect4511-3-6-3-9"
         inkscape:connector-curvature="0" /><path
         style="opacity:1;fill:#ffffff;fill-opacity:1;stroke:none;stroke-width:0.52338612;stroke-linecap:round;stroke-miterlimit:4;stroke-dasharray:none;stroke-opacity:1"
         d="m 308.52126,112.94509 a 43.92136,43.92136 0 0 0 -31.34353,13.70193 43.92136,43.92136 0 0 0 1.6604,62.0919 43.92136,43.92136 0 0 0 62.0919,-1.6604 43.92136,43.92136 0 0 0 -1.6604,-62.0919 43.92136,43.92136 0 0 0 -30.74837,-12.04153 z m -0.5201,12.01783 a 32.050723,32.050723 0 0 1 22.43845,8.78788 32.050723,32.050723 0 0 1 1.2114,45.31012 32.050723,32.050723 0 0 1 -45.31012,1.2114 32.050723,32.050723 0 0 1 -1.21272,-45.31012 32.050723,32.050723 0 0 1 22.87299,-9.99928 z"
         id="path4543-5"
         inkscape:connector-curvature="0" /><path
         style="fill:#ffffff;fill-opacity:1;stroke:none;stroke-width:0.67416763px;stroke-linecap:butt;stroke-linejoin:miter;stroke-opacity:1"
         d="m 380.38473,267.72615 v -16.93509 l 19.75761,-19.97474 18.88915,0.21713 9.33601,21.27742 c 0,0 2.26984,5.82194 10.20798,2.81211 7.93814,-3.00982 5.2966,-8.67414 5.2966,-8.67414 l -14.0475,-32.39369 h -35.77124 l -30.44086,32.44786 0.043,30.26695 30.32111,17.04123 c 0,0 6.23385,2.79635 9.9791,-4.14517 3.74526,-6.94152 -1.8423,-10.3629 -1.8423,-10.3629 z"
         id="path4624"
         inkscape:connector-curvature="0"
         sodipodi:nodetypes="ccccczcccccczcc" /></g></g></svg>