<?xml version="1.0" encoding="UTF-8" standalone="no"?>
<!-- Created using Karbon, part of Calligra: http://www.calligra.org/karbon -->

<svg
   xmlns:dc="http://purl.org/dc/elements/1.1/"
   xmlns:cc="http://creativecommons.org/ns#"
   xmlns:rdf="http://www.w3.org/1999/02/22-rdf-syntax-ns#"
   xmlns:svg="http://www.w3.org/2000/svg"
   xmlns="http://www.w3.org/2000/svg"
   xmlns:sodipodi="http://sodipodi.sourceforge.net/DTD/sodipodi-0.dtd"
   xmlns:inkscape="http://www.inkscape.org/namespaces/inkscape"
   width="512"
   height="512"
   id="svg2"
   version="1.1"
   inkscape:version="0.92.2 2405546, 2018-03-11"
   sodipodi:docname="Othman.svg"
   viewBox="0 0 512 512">
  <metadata
     id="metadata11">
    <rdf:RDF>
      <cc:Work
         rdf:about="">
        <dc:format>image/svg+xml</dc:format>
        <dc:type
           rdf:resource="http://purl.org/dc/dcmitype/StillImage" />
        <dc:title />
      </cc:Work>
    </rdf:RDF>
  </metadata>
  <sodipodi:namedview
     pagecolor="#ffffff"
     bordercolor="#666666"
     borderopacity="1"
     objecttolerance="10"
     gridtolerance="10"
     guidetolerance="10"
     inkscape:pageopacity="0"
     inkscape:pageshadow="2"
     inkscape:window-width="1366"
     inkscape:window-height="700"
     id="namedview9"
     showgrid="false"
     inkscape:showpageshadow="false"
     borderlayer="true"
     inkscape:zoom="0.61458332"
     inkscape:cx="595.67331"
     inkscape:cy="164.33106"
     inkscape:window-x="0"
     inkscape:window-y="0"
     inkscape:window-maximized="1"
     inkscape:current-layer="svg2"
     inkscape:snap-global="false"
     inkscape:document-units="px" />
  <defs
     id="defs4" />
  <g
     id="g853">
    <path
       style="fill:#68b723;fill-opacity:1;stroke-width:11.10955811"
       inkscape:connector-curvature="0"
       d="m 432.91327,56.47396 c 102.19291,88.57459 105.82678,249.69971 8.1168,359.89879 C 343.3201,526.57182 181.27964,544.10063 79.086729,455.52601 -23.106186,366.95142 -26.740042,205.8263 70.969928,95.62722 168.6799,-14.57186 330.72036,-32.10063 432.91327,56.47396 Z"
       id="path27" />
    <path
       style="opacity:1;fill:#000000;fill-opacity:0.49019608;stroke-width:11.10955811"
       inkscape:connector-curvature="0"
       d="M 511.63551,224.90351 C 510.08412,286.21516 486.47428,349.05813 440.66913,400.71798 342.95915,510.91712 180.91869,528.44583 78.725776,439.87128 30.827124,398.35563 4.4968216,340.92283 0.19382774,280.2288 0.7990794,346.58547 27.117411,410.48217 79.078682,455.51906 181.27159,544.09362 343.31975,526.55623 441.02202,416.36576 490.72697,360.30765 514.02704,291.0748 511.63551,224.90351 Z"
       id="path51" />
    <path
       style="fill:#000000;fill-opacity:0.49019608;fill-rule:evenodd;stroke:none;stroke-width:3.46667314px;stroke-linecap:butt;stroke-linejoin:miter;stroke-opacity:1"
       d="m 278.66759,120 c -54.17953,0 -95.87957,1.42067 -99.56471,3.3929 -3.48744,1.86642 -8.0645,8.33939 -10.17171,14.38416 -5.11137,14.66246 -5.29846,262.08713 -0.20838,275.79834 6.76802,18.23168 7.9113,18.4246 108.61617,18.4246 91.3104,0 93.77501,-0.18224 101.6038,-7.53683 l 8.02353,-7.53823 V 276.486 c 0,-139.42102 -0.054,-140.4972 -7.53683,-148.46247 C 371.91284,120.02248 371.63104,120 278.66759,120 Z m -4.76908,26.61455 c 22.0867,0.23854 43.73429,15.65896 43.73429,39.57358 0,30.52779 -35.34952,46.70463 -54.78989,25.07334 -10.11159,-11.25112 -8.85157,-24.23195 3.22368,-33.20595 7.50833,-5.57995 10.42668,-6.05309 16.67779,-2.70761 9.3768,5.01831 8.44861,18.53666 -1.40135,20.41615 -5.62946,1.07419 -6.08874,0.41886 -2.62929,-3.74954 2.30611,-2.77868 3.16638,-6.07804 1.91183,-7.33263 -4.42656,-4.42657 -11.32703,-2.1979 -15.11701,4.88376 -5.5354,10.34303 4.01517,24.03421 16.76591,24.03421 29.58697,0 37.59064,-40.02977 10.77588,-53.89622 -21.09384,-10.90805 -43.36988,-3.05037 -53.20951,18.77005 -9.09655,20.17261 -5.29813,35.14531 12.91847,50.91029 l 14.60654,12.64156 26.77538,-2.15238 c 14.72598,-1.18394 29.15541,-3.06756 32.06613,-4.18448 2.91069,-1.11693 5.29213,-0.54696 5.29213,1.26569 0,1.81265 -13.33701,9.45708 -30.3333,9.2151 -31.52255,-0.44879 -54.97194,11.86873 -70.65933,23.86078 -21.87575,16.72264 -31.58341,37.31179 -30.00465,63.63297 2.32815,38.81528 30.20465,66.01849 71.19637,69.47615 17.06375,1.43933 22.65473,0.26888 38.82395,-8.12842 25.71401,-13.35428 33.11085,-24.3144 33.11085,-49.06419 0,-21.52142 -6.45451,-33.73632 -23.06781,-43.65318 -11.77039,-7.02598 -38.37664,-7.06118 -51.89906,-0.0685 -18.1401,9.3806 -23.90565,35.72429 -10.46821,47.83067 10.29432,9.27461 22.70764,10.21826 31.92068,2.42649 8.38449,-7.09111 8.3963,-7.18428 1.51464,-12.65694 -6.89463,-5.48299 -6.89551,-5.50751 -0.0405,-4.29637 9.70506,1.71465 10.48573,11.49256 1.62512,20.35321 -8.98769,8.98765 -24.63081,7.30217 -36.60025,-3.94253 -24.11737,-22.6571 -0.49646,-58.56349 38.54424,-58.59258 39.15351,-0.0277 66.301,42.02115 48.78029,75.55848 -17.87562,34.21664 -63.72452,48.11465 -100.84299,30.56687 -53.95145,-25.5056 -63.46068,-89.86894 -18.91129,-128.00158 8.23026,-7.0448 20.14313,-14.68021 26.47189,-16.9687 13.02544,-4.71006 14.55629,-8.26729 4.88097,-11.33811 -9.0035,-2.8576 -24.21528,-23.43597 -26.77119,-36.21564 -3.10617,-15.53084 1.3604,-33.42127 11.28916,-45.22096 8.92133,-10.60238 21.44939,-15.24663 33.8395,-15.11281 z"
       id="path847"
       inkscape:connector-curvature="0" />
    <path
       inkscape:connector-curvature="0"
       id="path4146"
       d="m 258.66759,100 c -54.17953,0 -95.87957,1.42067 -99.56471,3.3929 -3.48744,1.86642 -8.0645,8.33939 -10.17171,14.38416 -5.11137,14.66246 -5.29846,262.08713 -0.20838,275.79834 6.76802,18.23168 7.9113,18.4246 108.61617,18.4246 91.3104,0 93.77501,-0.18224 101.6038,-7.53683 l 8.02353,-7.53823 V 256.486 c 0,-139.42102 -0.054,-140.4972 -7.53683,-148.46247 C 351.91284,100.02248 351.63104,100 258.66759,100 Z m -4.76908,26.61455 c 22.0867,0.23854 43.73429,15.65896 43.73429,39.57358 0,30.52779 -35.34952,46.70463 -54.78989,25.07334 -10.11159,-11.25112 -8.85157,-24.23195 3.22368,-33.20595 7.50833,-5.57995 10.42668,-6.05309 16.67779,-2.70761 9.3768,5.01831 8.44861,18.53666 -1.40135,20.41615 -5.62946,1.07419 -6.08874,0.41886 -2.62929,-3.74954 2.30611,-2.77868 3.16638,-6.07804 1.91183,-7.33263 -4.42656,-4.42657 -11.32703,-2.1979 -15.11701,4.88376 -5.5354,10.34303 4.01517,24.03421 16.76591,24.03421 29.58697,0 37.59064,-40.02977 10.77588,-53.89622 -21.09384,-10.90805 -43.36988,-3.05037 -53.20951,18.77005 -9.09655,20.17261 -5.29813,35.14531 12.91847,50.91029 l 14.60654,12.64156 26.77538,-2.15238 c 14.72598,-1.18394 29.15541,-3.06756 32.06613,-4.18448 2.91069,-1.11693 5.29213,-0.54696 5.29213,1.26569 0,1.81265 -13.33701,9.45708 -30.3333,9.2151 -31.52255,-0.44879 -54.97194,11.86873 -70.65933,23.86078 -21.87575,16.72264 -31.58341,37.31179 -30.00465,63.63297 2.32815,38.81528 30.20465,66.01849 71.19637,69.47615 17.06375,1.43933 22.65473,0.26888 38.82395,-8.12842 25.71401,-13.35428 33.11085,-24.3144 33.11085,-49.06419 0,-21.52142 -6.45451,-33.73632 -23.06781,-43.65318 -11.77039,-7.02598 -38.37664,-7.06118 -51.89906,-0.0685 -18.1401,9.3806 -23.90565,35.72429 -10.46821,47.83067 10.29432,9.27461 22.70764,10.21826 31.92068,2.42649 8.38449,-7.09111 8.3963,-7.18428 1.51464,-12.65694 -6.89463,-5.48299 -6.89551,-5.50751 -0.0405,-4.29637 9.70506,1.71465 10.48573,11.49256 1.62512,20.35321 -8.98769,8.98765 -24.63081,7.30217 -36.60025,-3.94253 -24.11737,-22.6571 -0.49646,-58.56349 38.54424,-58.59258 39.15351,-0.0277 66.301,42.02115 48.78029,75.55848 -17.87562,34.21664 -63.72452,48.11465 -100.84299,30.56687 -53.95145,-25.5056 -63.46068,-89.86894 -18.91129,-128.00158 8.23026,-7.0448 20.14313,-14.68021 26.47189,-16.9687 13.02544,-4.71006 14.55629,-8.26729 4.88097,-11.33811 -9.0035,-2.8576 -24.21528,-23.43597 -26.77119,-36.21564 -3.10617,-15.53084 1.3604,-33.42127 11.28916,-45.22096 8.92133,-10.60238 21.44939,-15.24663 33.8395,-15.11281 z"
       style="fill:#ffffff;fill-opacity:1;fill-rule:evenodd;stroke:none;stroke-width:3.46667314px;stroke-linecap:butt;stroke-linejoin:miter;stroke-opacity:1" />
  </g>
</svg>
