<?xml version="1.0" encoding="UTF-8" standalone="no"?>
<!-- Created with Inkscape (http://www.inkscape.org/) -->

<svg
   xmlns:dc="http://purl.org/dc/elements/1.1/"
   xmlns:cc="http://creativecommons.org/ns#"
   xmlns:rdf="http://www.w3.org/1999/02/22-rdf-syntax-ns#"
   xmlns:svg="http://www.w3.org/2000/svg"
   xmlns="http://www.w3.org/2000/svg"
   xmlns:sodipodi="http://sodipodi.sourceforge.net/DTD/sodipodi-0.dtd"
   xmlns:inkscape="http://www.inkscape.org/namespaces/inkscape"
   version="1.1"
   width="512"
   height="512"
   viewBox="0 0 512 512"
   id="svg2"
   inkscape:version="0.92.2 2405546, 2018-03-11"
   sodipodi:docname="palemoon.svg">
  <sodipodi:namedview
     pagecolor="#ffffff"
     bordercolor="#666666"
     borderopacity="1"
     objecttolerance="10"
     gridtolerance="10"
     guidetolerance="10"
     inkscape:pageopacity="0"
     inkscape:pageshadow="2"
     inkscape:window-width="1366"
     inkscape:window-height="700"
     id="namedview44"
     showgrid="false"
     inkscape:zoom="0.4609375"
     inkscape:cx="782.01396"
     inkscape:cy="206.81099"
     inkscape:window-x="0"
     inkscape:window-y="0"
     inkscape:window-maximized="1"
     inkscape:current-layer="svg2"
     units="px" />
  <metadata
     id="metadata86">
    <rdf:RDF>
      <cc:Work
         rdf:about="">
        <dc:format>image/svg+xml</dc:format>
        <dc:type
           rdf:resource="http://purl.org/dc/dcmitype/StillImage" />
        <dc:title></dc:title>
      </cc:Work>
    </rdf:RDF>
  </metadata>
  <defs
     id="defs84" />
  <text
     x="-1160.48"
     y="1060.52"
     id="text16"
     style="font-size:208.33000183px;line-height:0%;font-family:'Gentium Book Basic';letter-spacing:0;word-spacing:0">
    <tspan
       x="-1160.48"
       y="1060.52"
       id="tspan18" />
  </text>
  <text
     x="28.533854"
     y="3692.783"
     transform="scale(4.0128205,0.24920128)"
     id="text20"
     style="font-size:75.69960785px;font-family:Arial;text-anchor:middle;stroke-width:0.99999487" />
  <text
     x="729.64001"
     y="742.35999"
     id="text34"
     style="font-size:129.22999573px;line-height:0%;font-family:'Gentium Book Basic';letter-spacing:0;word-spacing:0">
    <tspan
       x="729.64001"
       y="742.35999"
       id="tspan36" />
  </text>
  <text
     x="378.90805"
     y="2629.7983"
     transform="scale(4.0128205,0.24920128)"
     id="text38"
     style="font-size:46.95375824px;font-family:Arial;text-anchor:middle;stroke-width:0.99999487" />
  <text
     x="1310.91"
     y="662.35999"
     id="text40"
     style="font-size:129.22999573px;line-height:0%;font-family:'Gentium Book Basic';letter-spacing:0;word-spacing:0">
    <tspan
       x="1310.91"
       y="662.35999"
       id="tspan42" />
  </text>
  <text
     x="523.75732"
     y="2308.77"
     transform="scale(4.0128205,0.24920128)"
     id="text44"
     style="font-size:46.95375824px;font-family:Arial;text-anchor:middle;stroke-width:0.99999487" />
  <text
     x="239.33"
     y="481.099"
     id="text46"
     style="font-size:129.22999573px;line-height:0%;font-family:'Gentium Book Basic';letter-spacing:0;word-spacing:0">
    <tspan
       x="239.33"
       y="481.099"
       id="tspan48" />
  </text>
  <text
     x="256.71869"
     y="1581.4137"
     transform="scale(4.0128205,0.24920128)"
     id="text50"
     style="font-size:46.95375824px;font-family:Arial;text-anchor:middle;stroke-width:0.99999487" />
  <text
     x="1337.38"
     y="264.63"
     id="text52"
     style="font-size:129.22999573px;line-height:0%;font-family:'Gentium Book Basic';letter-spacing:0;word-spacing:0">
    <tspan
       x="1337.38"
       y="264.63"
       id="tspan54" />
  </text>
  <text
     x="530.3573"
     y="712.74805"
     transform="scale(4.0128205,0.24920128)"
     id="text56"
     style="font-size:46.95375824px;font-family:Arial;text-anchor:middle;stroke-width:0.99999487" />
  <text
     x="1918.65"
     y="184.62"
     id="text58"
     style="font-size:129.22999573px;line-height:0%;font-family:'Gentium Book Basic';letter-spacing:0;word-spacing:0">
    <tspan
       x="1918.65"
       y="184.62"
       id="tspan60" />
  </text>
  <text
     x="675.20654"
     y="391.70984"
     transform="scale(4.0128205,0.24920128)"
     id="text62"
     style="font-size:46.95375824px;font-family:Arial;text-anchor:middle;stroke-width:0.99999487" />
  <text
     x="1529.53"
     y="-287.78003"
     id="text64"
     style="font-size:129.22999573px;line-height:0%;font-family:'Gentium Book Basic';letter-spacing:0;word-spacing:0">
    <tspan
       x="1529.53"
       y="-287.78003"
       id="tspan66" />
  </text>
  <text
     x="578.237"
     y="-1503.9404"
     transform="scale(4.0128205,0.24920128)"
     id="text68"
     style="font-size:46.95375824px;font-family:Arial;text-anchor:middle;stroke-width:0.99999487" />
  <text
     x="2110.79"
     y="-367.78003"
     id="text70"
     style="font-size:129.22999573px;line-height:0%;font-family:'Gentium Book Basic';letter-spacing:0;word-spacing:0">
    <tspan
       x="2110.79"
       y="-367.78003"
       id="tspan72" />
  </text>
  <text
     x="723.0863"
     y="-1824.969"
     transform="scale(4.0128205,0.24920128)"
     id="text74"
     style="font-size:46.95375824px;font-family:Arial;text-anchor:middle;stroke-width:0.99999487" />
  <text
     x="277.98999"
     y="1046.9399"
     id="text76"
     style="font-size:208.33000183px;line-height:0%;font-family:'Gentium Book Basic';letter-spacing:0;word-spacing:0">
    <tspan
       x="277.98999"
       y="1046.9399"
       id="tspan78" />
  </text>
  <g
     id="g915"
     transform="translate(0,-2.5757706e-6)">
    <path
       style="fill:#8a715e;fill-opacity:1;stroke-width:11.10955811"
       inkscape:connector-curvature="0"
       d="M 432.91327,56.473974 C 535.10618,145.04857 538.74005,306.17369 441.03007,416.37277 343.3201,526.57182 181.27964,544.10062 79.086729,455.52604 -23.106186,366.95144 -26.740042,205.82632 70.969928,95.627234 168.6799,-14.571846 330.72036,-32.100616 432.91327,56.473974 Z"
       id="path27" />
    <path
       style="opacity:1;fill:#000000;fill-opacity:0.49019608;stroke-width:11.10955811"
       inkscape:connector-curvature="0"
       d="M 511.63551,224.90353 C 510.08412,286.21518 486.47428,349.05815 440.66913,400.718 342.95915,510.91712 180.91869,528.44582 78.725776,439.8713 30.827124,398.35565 4.4968216,340.92285 0.19382778,280.22882 0.79907944,346.58549 27.117411,410.48219 79.078682,455.51908 181.27159,544.09362 343.31975,526.55622 441.02202,416.36578 490.72697,360.30767 514.02704,291.07482 511.63551,224.90353 Z"
       id="path51" />
    <path
       style="fill:#000000;fill-opacity:0.49019608;stroke:none;stroke-width:0.66141653"
       d="m 276.00019,120 a 156.00005,156.00005 0 0 0 -13.41564,0.6795 156.00005,156.00005 0 0 0 -7.29238,0.8849 156.31267,156.31267 0 0 0 -0.009,10e-4 156.00005,156.00005 0 0 0 -8.21344,1.24662 156.00005,156.00005 0 0 0 -7.01981,1.57603 156.00005,156.00005 0 0 0 -8.16694,2.09018 156.00005,156.00005 0 0 0 -0.005,0.001 156.00005,156.00005 0 0 0 -6.77694,2.25166 156.31267,156.31267 0 0 0 -0.0142,0.005 156.00005,156.00005 0 0 0 -7.91375,2.89499 156.00005,156.00005 0 0 0 -9.67967,4.3315 156.31267,156.31267 0 0 0 -0.003,0.001 156.00005,156.00005 0 0 0 -2.72188,1.27761 156.00005,156.00005 0 0 0 -0.50381,0.28937 c -6.86598,9.92011 -3.52362,42.82856 2.53844,81.26253 1.13557,7.19865 6.82159,18.86914 14.49174,32.47658 3.78796,6.71537 6.72306,-2.62433 9.33217,-18.01973 1.72111,-10.14959 -21.4816,-41.42093 -19.89804,-53.96358 0.99022,-7.85877 12.14953,-28.876 19.97297,-30.77783 6.287,-1.52854 6.46701,11.95282 10.41602,11.79957 0.005,0 39.7658,-9.4293 50.1669,-3.28771 9.32052,5.50116 19.95714,36.73522 16.68396,25.37928 -3.46178,-11.95718 75.58296,-11.14008 69.22913,31.56455 -1.64249,11.00226 20.69235,10.73086 26.07557,23.28135 2.39306,5.58758 -1.06603,18.30243 1.30733,21.61489 7.98063,11.1516 36.09207,2.37471 21.61231,36.3482 -12.77446,30.0127 -33.34072,-21.85572 -34.38204,-18.89688 -10.4718,29.7298 -64.66169,-18.17364 -24.13395,-46.97608 6.18489,-4.397 -70.82806,17.72889 -62.19124,-28.96798 2.58555,-13.98864 -21.40772,27.3764 -35.37674,29.17209 -11.7017,1.50106 -5.70907,21.51381 -4.82498,28.88143 1.07668,8.97078 2.12567,17.85903 3.11589,26.3701 4.05509,34.84587 7.15975,63.44446 7.59983,66.07319 3.01778,18.02021 -50.23255,-18.85401 -49.02621,-5.4076 1.33598,14.86487 1.07997,25.80074 -1.83957,30.29598 C 212.71624,394.85167 133.56138,255.19936 121.18719,257.72345 A 156.00005,156.00005 0 0 0 120,275.99895 156.00005,156.00005 0 0 0 262.68512,431.33237 c -5.51738,-4.54269 -22.50463,-17.14577 14.81211,-16.99789 1.25886,0.005 2.57934,0.0243 3.96462,0.0594 36.03207,0.91107 19.38045,11.88101 13.27484,16.27964 A 156.00005,156.00005 0 0 0 432,275.99893 a 156.00005,156.00005 0 0 0 -5.57166,-41.22485 156.31267,156.31267 0 0 0 -0.003,-0.009 156.00005,156.00005 0 0 0 -0.18602,-0.72084 156.00005,156.00005 0 0 0 -4.05635,-12.20908 156.00005,156.00005 0 0 0 -1.24661,-3.39493 156.00005,156.00005 0 0 0 -4.11318,-9.19007 156.00005,156.00005 0 0 0 -2.79682,-5.75639 156.00005,156.00005 0 0 0 -3.66621,-6.39326 156.31267,156.31267 0 0 0 -0.007,-0.0103 156.00005,156.00005 0 0 0 -4.73456,-7.6838 156.00005,156.00005 0 0 0 -2.73609,-3.8264 c 0.41065,6.94222 2.33907,30.1582 -19.2573,4.18682 -12.51861,-15.05546 -9.77067,-18.71775 -3.71659,-18.62948 4.63046,0.0675 11.15393,2.31591 14.30184,3.35101 a 156.00005,156.00005 0 0 0 -1.71426,-1.95195 156.31267,156.31267 0 0 0 -0.007,-0.008 156.00005,156.00005 0 0 0 -7.71869,-8.13723 156.00005,156.00005 0 0 0 -3.10943,-2.89628 156.00005,156.00005 0 0 0 -8.61779,-7.43706 156.00005,156.00005 0 0 0 -3.35101,-2.54749 156.00005,156.00005 0 0 0 -9.31796,-6.53794 156.00005,156.00005 0 0 0 -84.37582,-24.97365 z m 118.21142,54.48935 a 156.00005,156.00005 0 0 1 8.67205,11.09165 156.00005,156.00005 0 0 0 -8.67205,-11.09165 z M 204.26492,137.53141 a 156.00005,156.00005 0 0 0 -83.07496,120.17758 156.00005,156.00005 0 0 1 83.07496,-120.17758 z m 87.30052,293.52814 A 156.00005,156.00005 0 0 1 276.00019,432 a 156.00005,156.00005 0 0 0 15.56525,-0.94045 z"
       id="path104"
       inkscape:connector-curvature="0" />
    <path
       inkscape:connector-curvature="0"
       id="circle4198"
       d="m 256.00019,100 a 156.00005,156.00005 0 0 0 -13.41564,0.6795 156.00005,156.00005 0 0 0 -7.29238,0.8849 156.31267,156.31267 0 0 0 -0.009,10e-4 156.00005,156.00005 0 0 0 -8.21344,1.24662 156.00005,156.00005 0 0 0 -7.01981,1.57603 156.00005,156.00005 0 0 0 -8.16694,2.09018 156.00005,156.00005 0 0 0 -0.005,0.001 156.00005,156.00005 0 0 0 -6.77694,2.25166 156.31267,156.31267 0 0 0 -0.0142,0.005 156.00005,156.00005 0 0 0 -7.91375,2.89499 156.00005,156.00005 0 0 0 -9.67967,4.3315 156.31267,156.31267 0 0 0 -0.003,0.001 156.00005,156.00005 0 0 0 -2.72188,1.27761 156.00005,156.00005 0 0 0 -0.50381,0.28937 c -6.86598,9.92011 -3.52362,42.82856 2.53844,81.26253 1.13557,7.19865 6.82159,18.86914 14.49174,32.47658 3.78796,6.71537 6.72306,-2.62433 9.33217,-18.01973 1.72111,-10.14959 -21.4816,-41.42093 -19.89804,-53.96358 0.99022,-7.85877 12.14953,-28.876 19.97297,-30.77783 6.287,-1.52854 6.46701,11.95282 10.41602,11.79957 0.005,0 39.7658,-9.4293 50.1669,-3.28771 9.32052,5.50116 19.95714,36.73522 16.68396,25.37928 -3.46178,-11.95718 75.58296,-11.14008 69.22913,31.56455 -1.64249,11.00226 20.69235,10.73086 26.07557,23.28135 2.39306,5.58758 -1.06603,18.30243 1.30733,21.61489 7.98063,11.1516 36.09207,2.37471 21.61231,36.3482 -12.77446,30.0127 -33.34072,-21.85572 -34.38204,-18.89688 -10.4718,29.7298 -64.66169,-18.17364 -24.13395,-46.97608 6.18489,-4.397 -70.82806,17.72889 -62.19124,-28.96798 2.58555,-13.98864 -21.40772,27.3764 -35.37674,29.17209 -11.7017,1.50106 -5.70907,21.51381 -4.82498,28.88143 1.07668,8.97078 2.12567,17.85903 3.11589,26.3701 4.05509,34.84587 7.15975,63.44446 7.59983,66.07319 3.01778,18.02021 -50.23255,-18.85401 -49.02621,-5.4076 1.33598,14.86487 1.07997,25.80074 -1.83957,30.29598 C 192.71624,374.85167 113.56138,235.19936 101.18719,237.72345 A 156.00005,156.00005 0 0 0 100,255.99895 156.00005,156.00005 0 0 0 242.68512,411.33237 c -5.51738,-4.54269 -22.50463,-17.14577 14.81211,-16.99789 1.25886,0.005 2.57934,0.0243 3.96462,0.0594 36.03207,0.91107 19.38045,11.88101 13.27484,16.27964 A 156.00005,156.00005 0 0 0 412,255.99893 a 156.00005,156.00005 0 0 0 -5.57166,-41.22485 156.31267,156.31267 0 0 0 -0.003,-0.009 156.00005,156.00005 0 0 0 -0.18602,-0.72084 156.00005,156.00005 0 0 0 -4.05635,-12.20908 156.00005,156.00005 0 0 0 -1.24661,-3.39493 156.00005,156.00005 0 0 0 -4.11318,-9.19007 156.00005,156.00005 0 0 0 -2.79682,-5.75639 156.00005,156.00005 0 0 0 -3.66621,-6.39326 156.31267,156.31267 0 0 0 -0.007,-0.0103 156.00005,156.00005 0 0 0 -4.73456,-7.6838 156.00005,156.00005 0 0 0 -2.73609,-3.8264 c 0.41065,6.94222 2.33907,30.1582 -19.2573,4.18682 -12.51861,-15.05546 -9.77067,-18.71775 -3.71659,-18.62948 4.63046,0.0675 11.15393,2.31591 14.30184,3.35101 a 156.00005,156.00005 0 0 0 -1.71426,-1.95195 156.31267,156.31267 0 0 0 -0.007,-0.008 156.00005,156.00005 0 0 0 -7.71869,-8.13723 156.00005,156.00005 0 0 0 -3.10943,-2.89628 156.00005,156.00005 0 0 0 -8.61779,-7.43706 156.00005,156.00005 0 0 0 -3.35101,-2.54749 156.00005,156.00005 0 0 0 -9.31796,-6.53794 156.00005,156.00005 0 0 0 -84.37582,-24.97365 z m 118.21142,54.48935 a 156.00005,156.00005 0 0 1 8.67205,11.09165 156.00005,156.00005 0 0 0 -8.67205,-11.09165 z M 184.26492,117.53141 a 156.00005,156.00005 0 0 0 -83.07496,120.17758 156.00005,156.00005 0 0 1 83.07496,-120.17758 z m 87.30052,293.52814 A 156.00005,156.00005 0 0 1 256.00019,412 a 156.00005,156.00005 0 0 0 15.56525,-0.94045 z"
       style="fill:#ffffff;fill-opacity:1;stroke:none;stroke-width:0.66141653" />
  </g>
</svg>
