<?xml version="1.0" encoding="UTF-8" standalone="no"?>
<svg
   xmlns:dc="http://purl.org/dc/elements/1.1/"
   xmlns:cc="http://creativecommons.org/ns#"
   xmlns:rdf="http://www.w3.org/1999/02/22-rdf-syntax-ns#"
   xmlns:svg="http://www.w3.org/2000/svg"
   xmlns="http://www.w3.org/2000/svg"
   xmlns:sodipodi="http://sodipodi.sourceforge.net/DTD/sodipodi-0.dtd"
   xmlns:inkscape="http://www.inkscape.org/namespaces/inkscape"
   viewBox="0 0 512 512"
   id="svg2"
   version="1.1"
   inkscape:version="0.92.2 2405546, 2018-03-11"
   width="512"
   height="512"
   sodipodi:docname="palette_color.svg">
  <metadata
     id="metadata51">
    <rdf:RDF>
      <cc:Work
         rdf:about="">
        <dc:format>image/svg+xml</dc:format>
        <dc:type
           rdf:resource="http://purl.org/dc/dcmitype/StillImage" />
        <dc:title></dc:title>
      </cc:Work>
    </rdf:RDF>
  </metadata>
  <sodipodi:namedview
     pagecolor="#ffffff"
     bordercolor="#666666"
     borderopacity="1"
     objecttolerance="10"
     gridtolerance="10"
     guidetolerance="10"
     inkscape:pageopacity="0"
     inkscape:pageshadow="2"
     inkscape:window-width="1366"
     inkscape:window-height="700"
     id="namedview49"
     showgrid="false"
     inkscape:zoom="0.30729167"
     inkscape:cx="574.58265"
     inkscape:cy="441.59759"
     inkscape:window-x="0"
     inkscape:window-y="0"
     inkscape:window-maximized="1"
     inkscape:current-layer="svg2"
     units="px" />
  <defs
     id="defs4">
    <clipPath
       id="clipPath6">
      <g
         transform="translate(0,-1004.3622)"
         id="g8">
        <path
           d="m -24,13 c 0,1.105 -0.672,2 -1.5,2 -0.828,0 -1.5,-0.895 -1.5,-2 0,-1.105 0.672,-2 1.5,-2 0.828,0 1.5,0.895 1.5,2 z"
           transform="matrix(15.8a715e,0,0,11.5,414.99999,878.8622)"
           id="path10"
           inkscape:connector-curvature="0"
           style="fill:#1890d0" />
      </g>
    </clipPath>
    <clipPath
       id="clipPath12">
      <g
         transform="translate(0,-1004.3622)"
         id="g14">
        <path
           d="m -24,13 c 0,1.105 -0.672,2 -1.5,2 -0.828,0 -1.5,-0.895 -1.5,-2 0,-1.105 0.672,-2 1.5,-2 0.828,0 1.5,0.895 1.5,2 z"
           transform="matrix(15.8a715e,0,0,11.5,414.99999,878.8622)"
           id="path16"
           inkscape:connector-curvature="0"
           style="fill:#1890d0" />
      </g>
    </clipPath>
    <linearGradient
       id="linearGradient3165"
       gradientUnits="userSpaceOnUse"
       gradientTransform="matrix(0,-0.97498811,0.97498811,0,0.60028377,47.399713)"
       x1="1"
       x2="47">
      <stop
         stop-color="#e4e4e4"
         stop-opacity="1"
         id="stop19" />
      <stop
         offset="1"
         stop-color="#eee"
         stop-opacity="1"
         id="stop21" />
    </linearGradient>
  </defs>
  <g
     id="g951">
    <path
       style="fill:#8a715e;fill-opacity:1;stroke-width:11.10955811"
       inkscape:connector-curvature="0"
       d="M 432.91327,56.473974 C 535.10618,145.04857 538.74005,306.17369 441.03007,416.37277 343.3201,526.57182 181.27964,544.10062 79.086729,455.52604 -23.106186,366.95144 -26.740042,205.82632 70.969928,95.627234 168.6799,-14.571846 330.72036,-32.100616 432.91327,56.473974 Z"
       id="path27" />
    <path
       style="opacity:1;fill:#000000;fill-opacity:0.49019608;stroke-width:11.10955811"
       inkscape:connector-curvature="0"
       d="M 511.63551,224.90353 C 510.08412,286.21518 486.47428,349.05815 440.66913,400.718 342.95915,510.91712 180.91869,528.44582 78.725776,439.8713 30.827124,398.35565 4.4968216,340.92285 0.19382778,280.22882 0.79907944,346.58549 27.117411,410.48219 79.078682,455.51908 181.27159,544.09362 343.31975,526.55622 441.02202,416.36578 490.72697,360.30767 514.02704,291.07482 511.63551,224.90353 Z"
       id="path51" />
    <path
       d="m 420.13696,216.43714 c 1.56004,3.77121 2.97086,7.53564 4.23922,11.44929 -1.2548,-3.86617 -2.69274,-7.71199 -4.23922,-11.44929 z m 4.23922,11.44929 -70.79841,22.89181 c -0.84785,-2.6385 -1.86526,-5.12098 -2.97085,-7.6306 h -0.21026 c 4.42236,10.03847 6.99302,21.14184 6.99302,32.85566 0,28.61645 -14.65075,53.78048 -36.88463,68.23453 L 359.5059,407.616 C 403.0919,379.94913 432,331.43877 432,275.98974 c 0,-16.84158 -2.69952,-32.93706 -7.6306,-48.11687 z"
       id="path913"
       inkscape:connector-curvature="0"
       style="fill:#000000;fill-opacity:0.49019608;fill-rule:nonzero;stroke:none;stroke-width:2.76765752" />
    <path
       d="m 128.05792,227.03181 c -9.88926,141.16954 -4.94463,70.58136 0,0 z m -0.42732,0.84784 C 122.70632,243.01876 120,259.20242 120,275.99652 c 0,51.8406 25.32681,97.74638 64.22592,126.11865 l 43.87764,-60.19704 c -20.32113,-14.77284 -33.49324,-38.77024 -33.49324,-65.92161 0,-8.7701 1.26837,-17.31638 3.81869,-25.22507 z"
       id="path915"
       inkscape:connector-curvature="0"
       style="fill:#000000;fill-opacity:0.49019608;fill-rule:nonzero;stroke:none;stroke-width:2.76765752" />
    <path
       id="path917"
       d="M 228.10352 341.91797 L 184.22656 402.11523 C 209.98746 420.90347 241.67638 432 276.00391 432 C 310.33144 432 342.02034 420.90347 367.78125 402.11523 L 367.7168 402.02734 C 365.04193 403.97286 362.30563 405.83804 359.50586 407.61523 L 320.50781 344.24219 C 307.73767 352.56747 292.43822 357.38867 276.01758 357.38867 C 258.0772 357.38867 241.49967 351.66479 228.13086 341.91797 L 228.10352 341.91797 z "
       style="fill:#000000;fill-opacity:0.49019608;fill-rule:nonzero;stroke:none;stroke-width:2.76765752" />
    <path
       style="fill:#000000;fill-opacity:0.49019608;fill-rule:nonzero;stroke:none;stroke-width:2.76765752"
       d="m 276.00391,119.99219 c -69.36725,0 -128.09261,45.28188 -148.37305,107.88672 l 70.79883,22.89257 c 7.06719,-21.9242 23.18881,-39.67209 43.98437,-49.00586 v -0.65039 l 33.59571,-31.67382 v -49.44922 z"
       id="path919"
       inkscape:connector-curvature="0" />
    <path
       style="fill:#000000;fill-opacity:0.49019608;fill-rule:nonzero;stroke:none;stroke-width:2.76765752"
       d="m 275.79297,119.99219 0.14062,49.52148 0.49219,-0.46484 34.00977,32.0664 v 1.01758 c 20.39671,9.42485 36.18945,26.99048 43.14843,48.63867 l 70.79883,-22.89257 C 404.10238,165.26729 345.37702,119.99219 276.00977,119.99219 h -0.20899 z"
       id="path921"
       inkscape:connector-curvature="0" />
    <path
       style="fill:#000000;fill-opacity:0.49019608;stroke:none;stroke-width:138.38287354;stroke-miterlimit:4;stroke-dasharray:none;stroke-opacity:1"
       d="m 242.41413,213.11516 34.01097,-32.06584 34.01097,32.06584 v 65.71611 h -68.02194 z"
       id="path923"
       inkscape:connector-curvature="0"
       sodipodi:nodetypes="cccccc" />
    <g
       id="g911">
      <path
         d="m 400.13696,196.43714 c 1.56004,3.77121 2.97086,7.53564 4.23922,11.44929 -1.2548,-3.86617 -2.69274,-7.71199 -4.23922,-11.44929 z m 4.23922,11.44929 -70.79841,22.89181 c -0.84785,-2.6385 -1.86526,-5.12098 -2.97085,-7.6306 h -0.21026 c 4.42236,10.03847 6.99302,21.14184 6.99302,32.85566 0,28.61645 -14.65075,53.78048 -36.88463,68.23453 L 339.5059,387.616 C 383.0919,359.94913 412,311.43877 412,255.98974 c 0,-16.84158 -2.69952,-32.93706 -7.6306,-48.11687 z"
         id="path35"
         inkscape:connector-curvature="0"
         style="fill:#f9c440;fill-opacity:1;fill-rule:nonzero;stroke:none;stroke-width:2.76765752" />
      <path
         d="m 108.05792,207.03181 c -9.889264,141.16954 -4.94463,70.58136 0,0 z m -0.42732,0.84784 C 102.70632,223.01876 100,239.20242 100,255.99652 c 0,51.8406 25.32681,97.74638 64.22592,126.11865 l 43.87764,-60.19704 c -20.32113,-14.77284 -33.49324,-38.77024 -33.49324,-65.92161 0,-8.7701 1.26837,-17.31638 3.81869,-25.22507 z"
         id="path37"
         inkscape:connector-curvature="0"
         style="fill:#3689e6;fill-opacity:1;fill-rule:nonzero;stroke:none;stroke-width:2.76765752" />
      <path
         d="m 208.10356,321.91813 -43.87764,60.19704 C 189.98682,400.90341 221.67586,412 256.00339,412 c 34.32753,0 66.01656,-11.09659 91.77747,-29.88483 l -43.87765,-60.19704 c -13.40951,9.7536 -29.98656,15.47146 -47.88626,15.47146 -17.94038,0 -34.51744,-5.72464 -47.88625,-15.47146 z"
         id="path39"
         inkscape:connector-curvature="0"
         style="fill:#68b723;fill-opacity:1;fill-rule:nonzero;stroke:none;stroke-width:2.76765752" />
      <path
         style="fill:#c6262e;fill-opacity:1;fill-rule:nonzero;stroke:none;stroke-width:2.76765752"
         d="M 256.00391 99.992188 C 186.63666 99.992188 127.9113 145.27407 107.63086 207.87891 L 178.42969 230.77148 C 185.49688 208.84728 201.6185 191.09939 222.41406 181.76562 L 222.41406 181.11523 L 256.00977 149.44141 L 256.00977 99.992188 L 256.00391 99.992188 z "
         id="path41" />
      <path
         style="fill:#f37329;fill-opacity:1;fill-rule:nonzero;stroke:none;stroke-width:2.76765752"
         d="M 255.79297 99.992188 L 255.93359 149.51367 L 256.42578 149.04883 L 290.43555 181.11523 L 290.43555 182.13281 C 310.83226 191.55766 326.625 209.12329 333.58398 230.77148 L 404.38281 207.87891 C 384.10238 145.26729 325.37702 99.992188 256.00977 99.992188 L 255.80078 99.992188 L 255.79297 99.992188 z "
         id="path43" />
      <path
         style="fill:#ffffff;fill-opacity:1;stroke:none;stroke-width:138.38287354;stroke-miterlimit:4;stroke-dasharray:none;stroke-opacity:1"
         d="m 222.41413,193.11516 34.01097,-32.06584 34.01097,32.06584 v 65.71611 h -68.02194 z"
         id="rect3346"
         inkscape:connector-curvature="0"
         sodipodi:nodetypes="cccccc" />
    </g>
  </g>
</svg>
