<?xml version="1.0" encoding="UTF-8" standalone="no"?>
<!-- Created with Inkscape (http://www.inkscape.org/) -->

<svg
   xmlns:dc="http://purl.org/dc/elements/1.1/"
   xmlns:cc="http://creativecommons.org/ns#"
   xmlns:rdf="http://www.w3.org/1999/02/22-rdf-syntax-ns#"
   xmlns:svg="http://www.w3.org/2000/svg"
   xmlns="http://www.w3.org/2000/svg"
   xmlns:sodipodi="http://sodipodi.sourceforge.net/DTD/sodipodi-0.dtd"
   xmlns:inkscape="http://www.inkscape.org/namespaces/inkscape"
   id="svg2"
   version="1.1"
   inkscape:version="0.92.2 2405546, 2018-03-11"
   width="512"
   height="512"
   sodipodi:docname="pamac-updater.svg">
  <metadata
     id="metadata8">
    <rdf:RDF>
      <cc:Work
         rdf:about="">
        <dc:format>image/svg+xml</dc:format>
        <dc:type
           rdf:resource="http://purl.org/dc/dcmitype/StillImage" />
        <dc:title></dc:title>
      </cc:Work>
    </rdf:RDF>
  </metadata>
  <defs
     id="defs6" />
  <sodipodi:namedview
     pagecolor="#ffffff"
     bordercolor="#666666"
     borderopacity="1"
     objecttolerance="10"
     gridtolerance="10"
     guidetolerance="10"
     inkscape:pageopacity="0"
     inkscape:pageshadow="2"
     inkscape:window-width="1366"
     inkscape:window-height="700"
     id="namedview4"
     showgrid="false"
     inkscape:zoom="0.46093751"
     inkscape:cx="469.85058"
     inkscape:cy="323.5734"
     inkscape:window-x="0"
     inkscape:window-y="0"
     inkscape:window-maximized="1"
     inkscape:current-layer="svg2"
     showguides="true"
     inkscape:guide-bbox="true">
    <inkscape:grid
       type="xygrid"
       id="grid2985" />
  </sodipodi:namedview>
  <g
     id="g869">
    <path
       style="fill:#68b723;fill-opacity:1;stroke-width:11.10955715"
       inkscape:connector-curvature="0"
       d="M 432.91328,56.473985 C 535.10618,145.04857 538.74004,306.17368 441.03008,416.37276 343.32011,526.57184 181.27963,544.10061 79.086725,455.52602 -23.10618,366.95144 -26.740045,205.82632 70.969926,95.627248 168.67989,-14.57184 330.72037,-32.100602 432.91328,56.473985 Z"
       id="path941" />
    <path
       style="opacity:1;fill:#000000;fill-opacity:0.49019608;stroke-width:11.10955715"
       inkscape:connector-curvature="0"
       d="M 511.63551,224.90352 C 510.08412,286.21517 486.47428,349.05814 440.66913,400.718 342.95916,510.91712 180.91868,528.44585 78.725781,439.8713 30.82711,398.35565 4.4968433,340.92285 0.19381353,280.22882 0.79906703,346.58548 27.117428,410.48219 79.078675,455.51907 181.27158,544.09362 343.31973,526.5562 441.02203,416.36577 c 49.70494,-56.0581 73.00501,-125.29096 70.61348,-191.46225 z"
       id="path943" />
    <g
       style="fill:#000000;fill-opacity:0.49019608"
       transform="translate(19.999996,20.000009)"
       id="g859">
      <path
         inkscape:connector-curvature="0"
         id="path855"
         d="m 248.03844,411.85361 c -34.167,-1.82747 -66.01513,-14.37593 -92.51981,-36.45351 -4.13228,-3.44195 -12.80989,-11.94618 -16.53237,-16.20193 -23.29024,-26.62661 -36.53037,-58.69587 -38.72261,-93.79131 -0.816775,-13.07519 0.15898,-18.64174 4.4143,-25.18506 4.27413,-6.57213 10.54002,-10.97488 18.196,-12.78563 3.17606,-0.75114 9.78692,-0.74277 12.85495,0.0158 8.92146,2.20748 16.12805,8.06773 19.94959,16.22239 2.09069,4.46144 2.54001,6.94275 2.86813,15.84008 0.44917,12.17691 1.64195,21.22561 4.13556,31.37235 12.66867,51.54987 52.32068,90.68477 100.96202,99.64531 7.75487,1.42863 12.94849,1.89074 21.33847,1.89876 8.31979,0.007 12.70609,-0.33517 20.01542,-1.56396 20.63073,-3.46931 39.85311,-12.2761 56.89584,-26.06686 4.93952,-3.99703 15.32967,-14.51322 19.38046,-19.61543 11.16727,-14.06622 18.74502,-28.51878 24.71356,-47.13458 0.53349,-1.66408 0.8835,-2.52384 0.77782,-1.91075 -0.10574,0.61298 -0.83218,3.19261 -1.61439,5.73251 -5.99172,19.4557 -15.36514,36.90956 -28.50276,53.07383 -4.49925,5.53582 -15.98281,17.04656 -21.44006,21.49094 -26.14338,21.2908 -56.50582,33.22704 -89.81269,35.30747 -4.65145,0.29091 -12.98532,0.34311 -17.35743,0.10879 z M 407.01647,294.54746 c 0.004,-0.26293 0.1242,-0.83603 0.26441,-1.2739 0.20501,-0.64008 0.25691,-0.67126 0.26445,-0.15918 0.004,0.35069 -0.11386,0.92354 -0.26445,1.2739 -0.16772,0.39027 -0.2701,0.45202 -0.26441,0.15919 z m 0.60793,-2.73363 c 0.0158,-0.37148 0.0907,-0.44642 0.19266,-0.19265 0.0918,0.23 0.0803,0.50464 -0.0265,0.61043 -0.10606,0.10606 -0.18121,-0.0824 -0.16729,-0.41807 z m 0.31857,-1.27388 c 0.0157,-0.3715 0.0907,-0.44647 0.19265,-0.19266 0.0918,0.22997 0.0803,0.50451 -0.0265,0.61033 -0.10607,0.10606 -0.18121,-0.0824 -0.1673,-0.41796 z m 0.31852,-1.27387 c 0.0158,-0.37151 0.0907,-0.44646 0.19266,-0.19266 0.0921,0.23 0.0803,0.50465 -0.0266,0.61045 -0.10606,0.10606 -0.1812,-0.0824 -0.16728,-0.41795 z m 0.31854,-1.59246 c 0.0158,-0.37152 0.0907,-0.44644 0.19265,-0.19265 0.0918,0.22996 0.0803,0.50462 -0.0266,0.61042 -0.10606,0.10606 -0.18119,-0.0824 -0.16728,-0.41804 z m -30.80943,-2.83321 c -5.88341,-1.06759 -10.79811,-3.58741 -15.19261,-7.78966 -2.75044,-2.62991 -4.64442,-5.2649 -6.25522,-8.70209 -2.0907,-4.46141 -2.53998,-6.94269 -2.8682,-15.84001 -0.44908,-12.17692 -1.64189,-21.22564 -4.13551,-31.37236 -12.67077,-51.55848 -52.32323,-90.6935 -100.96199,-99.64455 -22.13057,-4.07275 -44.48042,-1.88879 -65.44859,6.39511 -36.54361,14.43753 -65.31712,46.87195 -77.0759,86.88233 -0.77219,2.6274 -1.40998,4.57624 -1.41727,4.33056 -0.0225,-0.79387 2.18912,-8.46578 3.83123,-13.2832 6.28282,-18.43182 15.65116,-35.04236 28.36007,-50.28395 3.42903,-4.11239 11.92926,-12.78941 16.20505,-16.54204 33.99702,-29.83733 78.26386,-43.403432 123.09435,-37.7237 30.86166,3.91 59.67967,16.96558 83.28374,37.73069 3.67972,3.2372 11.8372,11.44734 14.84673,14.94261 22.6624,26.32045 35.59144,58.29659 37.73216,93.3192 0.76794,12.56389 -0.27695,18.17048 -4.62873,24.83546 -6.31899,9.67826 -18.09929,14.79066 -29.36931,12.7456 z M 103.47154,222.70448 c 0.0158,-0.37151 0.0907,-0.44646 0.19244,-0.19265 0.0921,0.22998 0.0803,0.50464 -0.0254,0.61046 -0.10606,0.10606 -0.1812,-0.0822 -0.16728,-0.41809 z m 0.31846,-1.2739 c 0.0158,-0.37148 0.0907,-0.44643 0.19243,-0.19265 0.0921,0.23 0.0809,0.50454 -0.0254,0.61045 -0.10606,0.10606 -0.1812,-0.0824 -0.16728,-0.41809 z m 0.31842,-1.27387 c 0.0157,-0.37148 0.0907,-0.44644 0.19244,-0.19263 0.0918,0.22996 0.0803,0.50449 -0.0254,0.61032 -0.10606,0.10606 -0.1812,-0.0824 -0.16728,-0.41795 z"
         style="fill:#000000;stroke-width:0.31848055;fill-opacity:0.49019608" />
      <path
         inkscape:connector-curvature="0"
         id="path857"
         d="m 192.9188,298.13279 v -42.85436 h 19.40578 19.40576 v 42.85436 42.8544 H 212.32458 192.9188 Z m 46.89729,-10.91574 v -52.96157 h 19.40576 19.40577 v 52.96157 52.96156 h -19.40577 -19.40576 z m 46.89724,-27.89576 v -80.85737 h 19.40577 19.40577 v 80.85737 80.85732 H 306.1191 286.71333 Z m -93.79453,-46.493 v -34.36437 h 42.8544 42.85442 v 23.8529 23.85293 h -23.44866 -23.44862 v 10.51148 10.51143 H 212.32458 192.9188 Z"
         style="fill:#000000;fill-opacity:0.49019608;stroke-width:0.80857348" />
    </g>
    <g
       id="g853">
      <path
         style="fill:#ffffff;stroke-width:0.31848055"
         d="m 248.03844,411.85361 c -34.167,-1.82747 -66.01513,-14.37593 -92.51981,-36.45351 -4.13228,-3.44195 -12.80989,-11.94618 -16.53237,-16.20193 -23.29024,-26.62661 -36.53037,-58.69587 -38.72261,-93.79131 -0.816775,-13.07519 0.15898,-18.64174 4.4143,-25.18506 4.27413,-6.57213 10.54002,-10.97488 18.196,-12.78563 3.17606,-0.75114 9.78692,-0.74277 12.85495,0.0158 8.92146,2.20748 16.12805,8.06773 19.94959,16.22239 2.09069,4.46144 2.54001,6.94275 2.86813,15.84008 0.44917,12.17691 1.64195,21.22561 4.13556,31.37235 12.66867,51.54987 52.32068,90.68477 100.96202,99.64531 7.75487,1.42863 12.94849,1.89074 21.33847,1.89876 8.31979,0.007 12.70609,-0.33517 20.01542,-1.56396 20.63073,-3.46931 39.85311,-12.2761 56.89584,-26.06686 4.93952,-3.99703 15.32967,-14.51322 19.38046,-19.61543 11.16727,-14.06622 18.74502,-28.51878 24.71356,-47.13458 0.53349,-1.66408 0.8835,-2.52384 0.77782,-1.91075 -0.10574,0.61298 -0.83218,3.19261 -1.61439,5.73251 -5.99172,19.4557 -15.36514,36.90956 -28.50276,53.07383 -4.49925,5.53582 -15.98281,17.04656 -21.44006,21.49094 -26.14338,21.2908 -56.50582,33.22704 -89.81269,35.30747 -4.65145,0.29091 -12.98532,0.34311 -17.35743,0.10879 z M 407.01647,294.54746 c 0.004,-0.26293 0.1242,-0.83603 0.26441,-1.2739 0.20501,-0.64008 0.25691,-0.67126 0.26445,-0.15918 0.004,0.35069 -0.11386,0.92354 -0.26445,1.2739 -0.16772,0.39027 -0.2701,0.45202 -0.26441,0.15919 z m 0.60793,-2.73363 c 0.0158,-0.37148 0.0907,-0.44642 0.19266,-0.19265 0.0918,0.23 0.0803,0.50464 -0.0265,0.61043 -0.10606,0.10606 -0.18121,-0.0824 -0.16729,-0.41807 z m 0.31857,-1.27388 c 0.0157,-0.3715 0.0907,-0.44647 0.19265,-0.19266 0.0918,0.22997 0.0803,0.50451 -0.0265,0.61033 -0.10607,0.10606 -0.18121,-0.0824 -0.1673,-0.41796 z m 0.31852,-1.27387 c 0.0158,-0.37151 0.0907,-0.44646 0.19266,-0.19266 0.0921,0.23 0.0803,0.50465 -0.0266,0.61045 -0.10606,0.10606 -0.1812,-0.0824 -0.16728,-0.41795 z m 0.31854,-1.59246 c 0.0158,-0.37152 0.0907,-0.44644 0.19265,-0.19265 0.0918,0.22996 0.0803,0.50462 -0.0266,0.61042 -0.10606,0.10606 -0.18119,-0.0824 -0.16728,-0.41804 z m -30.80943,-2.83321 c -5.88341,-1.06759 -10.79811,-3.58741 -15.19261,-7.78966 -2.75044,-2.62991 -4.64442,-5.2649 -6.25522,-8.70209 -2.0907,-4.46141 -2.53998,-6.94269 -2.8682,-15.84001 -0.44908,-12.17692 -1.64189,-21.22564 -4.13551,-31.37236 -12.67077,-51.55848 -52.32323,-90.6935 -100.96199,-99.64455 -22.13057,-4.07275 -44.48042,-1.88879 -65.44859,6.39511 -36.54361,14.43753 -65.31712,46.87195 -77.0759,86.88233 -0.77219,2.6274 -1.40998,4.57624 -1.41727,4.33056 -0.0225,-0.79387 2.18912,-8.46578 3.83123,-13.2832 6.28282,-18.43182 15.65116,-35.04236 28.36007,-50.28395 3.42903,-4.11239 11.92926,-12.78941 16.20505,-16.54204 33.99702,-29.83733 78.26386,-43.403432 123.09435,-37.7237 30.86166,3.91 59.67967,16.96558 83.28374,37.73069 3.67972,3.2372 11.8372,11.44734 14.84673,14.94261 22.6624,26.32045 35.59144,58.29659 37.73216,93.3192 0.76794,12.56389 -0.27695,18.17048 -4.62873,24.83546 -6.31899,9.67826 -18.09929,14.79066 -29.36931,12.7456 z M 103.47154,222.70448 c 0.0158,-0.37151 0.0907,-0.44646 0.19244,-0.19265 0.0921,0.22998 0.0803,0.50464 -0.0254,0.61046 -0.10606,0.10606 -0.1812,-0.0822 -0.16728,-0.41809 z m 0.31846,-1.2739 c 0.0158,-0.37148 0.0907,-0.44643 0.19243,-0.19265 0.0921,0.23 0.0809,0.50454 -0.0254,0.61045 -0.10606,0.10606 -0.1812,-0.0824 -0.16728,-0.41809 z m 0.31842,-1.27387 c 0.0157,-0.37148 0.0907,-0.44644 0.19244,-0.19263 0.0918,0.22996 0.0803,0.50449 -0.0254,0.61032 -0.10606,0.10606 -0.1812,-0.0824 -0.16728,-0.41795 z"
         id="path844"
         inkscape:connector-curvature="0" />
      <path
         style="fill:#ffffff;fill-opacity:1;stroke-width:0.80857348"
         d="m 192.9188,298.13279 v -42.85436 h 19.40578 19.40576 v 42.85436 42.8544 H 212.32458 192.9188 Z m 46.89729,-10.91574 v -52.96157 h 19.40576 19.40577 v 52.96157 52.96156 h -19.40577 -19.40576 z m 46.89724,-27.89576 v -80.85737 h 19.40577 19.40577 v 80.85737 80.85732 H 306.1191 286.71333 Z m -93.79453,-46.493 v -34.36437 h 42.8544 42.85442 v 23.8529 23.85293 h -23.44866 -23.44862 v 10.51148 10.51143 H 212.32458 192.9188 Z"
         id="path903"
         inkscape:connector-curvature="0" />
    </g>
  </g>
</svg>
