<?xml version="1.0" encoding="UTF-8" standalone="no"?>
<!-- Created with Inkscape (http://www.inkscape.org/) -->

<svg
   xmlns:dc="http://purl.org/dc/elements/1.1/"
   xmlns:cc="http://creativecommons.org/ns#"
   xmlns:rdf="http://www.w3.org/1999/02/22-rdf-syntax-ns#"
   xmlns:svg="http://www.w3.org/2000/svg"
   xmlns="http://www.w3.org/2000/svg"
   xmlns:sodipodi="http://sodipodi.sourceforge.net/DTD/sodipodi-0.dtd"
   xmlns:inkscape="http://www.inkscape.org/namespaces/inkscape"
   version="1.1"
   width="512"
   height="512"
   viewBox="0 0 512 512"
   id="svg2"
   inkscape:version="0.92.2 2405546, 2018-03-11"
   sodipodi:docname="Pandora-pandora.com.svg">
  <sodipodi:namedview
     pagecolor="#ffffff"
     bordercolor="#666666"
     borderopacity="1"
     objecttolerance="10"
     gridtolerance="10"
     guidetolerance="10"
     inkscape:pageopacity="0"
     inkscape:pageshadow="2"
     inkscape:window-width="1366"
     inkscape:window-height="700"
     id="namedview78"
     showgrid="false"
     inkscape:zoom="0.65186406"
     inkscape:cx="568.11779"
     inkscape:cy="256.63543"
     inkscape:window-x="0"
     inkscape:window-y="0"
     inkscape:window-maximized="1"
     inkscape:current-layer="svg2"
     units="px" />
  <metadata
     id="metadata70">
    <rdf:RDF>
      <cc:Work
         rdf:about="">
        <dc:format>image/svg+xml</dc:format>
        <dc:type
           rdf:resource="http://purl.org/dc/dcmitype/StillImage" />
        <dc:title></dc:title>
      </cc:Work>
    </rdf:RDF>
  </metadata>
  <defs
     id="defs68">
    <clipPath
       id="clipPath3429">
      <path
         d="m 471.9456,253.05189 c 0,120.89699 -98.00565,218.90724 -218.90724,218.90724 -120.89698,0 -218.90723,-98.00566 -218.90723,-218.90724 0,-120.89698 98.00565,-218.907232 218.90723,-218.907232 120.89699,0 218.90724,98.005652 218.90724,218.907232"
         inkscape:connector-curvature="0"
         id="path3431"
         style="fill:#0e65aa;fill-opacity:1;fill-rule:evenodd" />
    </clipPath>
  </defs>
  <text
     x="729.64001"
     y="261863.36"
     id="text20"
     style="font-size:129.22999573px;line-height:0%;font-family:'Gentium Book Basic';letter-spacing:0;word-spacing:0">
    <tspan
       x="729.64001"
       y="261863.36"
       id="tspan22" />
  </text>
  <text
     x="378.90805"
     y="1050461.5"
     transform="scale(4.0128205,0.24920128)"
     id="text24"
     style="font-size:46.95375824px;font-family:Arial;text-anchor:middle" />
  <text
     x="1310.91"
     y="261783.36"
     id="text26"
     style="font-size:129.22999573px;line-height:0%;font-family:'Gentium Book Basic';letter-spacing:0;word-spacing:0">
    <tspan
       x="1310.91"
       y="261783.36"
       id="tspan28" />
  </text>
  <text
     x="523.75732"
     y="1050140.5"
     transform="scale(4.0128205,0.24920128)"
     id="text30"
     style="font-size:46.95375824px;font-family:Arial;text-anchor:middle" />
  <text
     x="239.33"
     y="261602.09"
     id="text32"
     style="font-size:129.22999573px;line-height:0%;font-family:'Gentium Book Basic';letter-spacing:0;word-spacing:0">
    <tspan
       x="239.33"
       y="261602.09"
       id="tspan34" />
  </text>
  <text
     x="256.71869"
     y="1049413.1"
     transform="scale(4.0128205,0.24920128)"
     id="text36"
     style="font-size:46.95375824px;font-family:Arial;text-anchor:middle" />
  <text
     x="1337.38"
     y="261385.62"
     id="text38"
     style="font-size:129.22999573px;line-height:0%;font-family:'Gentium Book Basic';letter-spacing:0;word-spacing:0">
    <tspan
       x="1337.38"
       y="261385.62"
       id="tspan40" />
  </text>
  <text
     x="530.3573"
     y="1048544.4"
     transform="scale(4.0128205,0.24920128)"
     id="text42"
     style="font-size:46.95375824px;font-family:Arial;text-anchor:middle" />
  <text
     x="1918.65"
     y="261305.62"
     id="text44"
     style="font-size:129.22999573px;line-height:0%;font-family:'Gentium Book Basic';letter-spacing:0;word-spacing:0">
    <tspan
       x="1918.65"
       y="261305.62"
       id="tspan46" />
  </text>
  <text
     x="675.20654"
     y="1048223.4"
     transform="scale(4.0128205,0.24920128)"
     id="text48"
     style="font-size:46.95375824px;font-family:Arial;text-anchor:middle" />
  <text
     x="1529.53"
     y="260833.23"
     id="text50"
     style="font-size:129.22999573px;line-height:0%;font-family:'Gentium Book Basic';letter-spacing:0;word-spacing:0">
    <tspan
       x="1529.53"
       y="260833.23"
       id="tspan52" />
  </text>
  <text
     x="578.237"
     y="1046327.8"
     transform="scale(4.0128205,0.24920128)"
     id="text54"
     style="font-size:46.95375824px;font-family:Arial;text-anchor:middle" />
  <text
     x="2110.79"
     y="260753.22"
     id="text56"
     style="font-size:129.22999573px;line-height:0%;font-family:'Gentium Book Basic';letter-spacing:0;word-spacing:0">
    <tspan
       x="2110.79"
       y="260753.22"
       id="tspan58" />
  </text>
  <text
     x="723.0863"
     y="1046006.8"
     transform="scale(4.0128205,0.24920128)"
     id="text60"
     style="font-size:46.95375824px;font-family:Arial;text-anchor:middle" />
  <text
     x="277.98999"
     y="262167.94"
     id="text62"
     style="font-size:208.33000183px;line-height:0%;font-family:'Gentium Book Basic';letter-spacing:0;word-spacing:0">
    <tspan
       x="277.98999"
       y="262167.94"
       id="tspan64" />
  </text>
  <g
     id="g874">
    <path
       style="fill:#3689e6;fill-opacity:1;stroke-width:11.10955715"
       inkscape:connector-curvature="0"
       d="M 432.91328,56.473985 C 535.10618,145.04857 538.74004,306.17368 441.03008,416.37276 343.32011,526.57184 181.27963,544.10061 79.086725,455.52602 -23.10618,366.95144 -26.740045,205.82632 70.969926,95.627248 168.67989,-14.57184 330.72037,-32.100602 432.91328,56.473985 Z"
       id="path941" />
    <path
       style="opacity:1;fill:#000000;fill-opacity:0.49019608;stroke-width:11.10955715"
       inkscape:connector-curvature="0"
       d="M 511.63551,224.90352 C 510.08412,286.21517 486.47428,349.05814 440.66913,400.718 342.95916,510.91712 180.91868,528.44585 78.725781,439.8713 30.82711,398.35565 4.4968433,340.92285 0.19381353,280.22882 0.79906703,346.58548 27.117428,410.48219 79.078675,455.51907 181.27158,544.09362 343.31973,526.5562 441.02203,416.36577 c 49.70494,-56.0581 73.00501,-125.29096 70.61348,-191.46225 z"
       id="path943" />
    <path
       d="m 395.06489,196.95581 c -2e-4,16.27071 -3.2084,30.7091 -9.62394,43.31502 -6.27028,12.45913 -15.01965,22.79312 -26.24732,31.00154 -11.08176,8.20947 -23.25787,14.21872 -36.52627,18.02968 -13.26973,3.81184 -27.34093,5.7175 -42.21392,5.71738 h -34.77663 v 94.54522 c -1.2e-4,5.12986 0.80632,9.67423 2.40562,13.63216 1.74964,3.81097 5.24899,6.74285 10.49891,8.79496 2.62445,1.02535 7.21742,1.97828 13.77987,2.85784 6.70708,0.88231 12.83119,1.39297 18.37233,1.53955 V 432 H 157.53091 v -15.61084 c 3.49938,-0.29479 8.53067,-0.81039 15.09189,-1.53955 6.7075,-0.73035 11.37392,-1.68559 13.99858,-2.85784 4.37408,-1.90573 7.50936,-4.69123 9.40518,-8.35541 2.04106,-3.66489 3.06206,-8.35532 3.06215,-14.07171 V 164.41481 c -9e-5,-5.13067 -0.72733,-9.74806 -2.18725,-13.85218 -1.45829,-4.10443 -4.88502,-7.18289 -10.28008,-9.23449 -5.54135,-1.90543 -11.08189,-3.22505 -16.62301,-3.95784 C 164.60309,136.48697 159.93656,135.9046 156,135.61075 V 120 h 141.73258 c 28.87135,1.9e-4 52.27509,7.0366 70.21053,21.10822 18.08101,13.92523 27.12158,32.54119 27.12178,55.84759 m -66.49243,53.20907 c 4.95765,-7.03611 8.23912,-14.29143 9.84289,-21.76788 1.60337,-7.6215 2.40544,-14.4374 2.40585,-20.44764 -4.1e-4,-8.35512 -1.02039,-16.85652 -3.06196,-25.50581 -1.89601,-8.64806 -5.24919,-16.19695 -10.0616,-22.64613 -5.10313,-6.88923 -11.81153,-12.24002 -20.12217,-16.05119 -8.31217,-3.81075 -18.6651,-5.71617 -31.05888,-5.71669 h -30.83978 v 137.85994 h 22.3093 c 15.7478,4.1e-4 28.50749,-2.41789 38.27692,-7.25522 9.91533,-4.98379 17.35158,-11.14001 22.30943,-18.46938"
       inkscape:connector-curvature="0"
       id="path63"
       style="font-size:10.58331108px;font-family:Georgia;fill:#000000;fill-opacity:0.49019608;stroke-width:1.06576109" />
    <path
       style="font-size:10.58331108px;font-family:Georgia;fill:#ffffff;fill-opacity:1;stroke-width:1.06576109"
       id="path3203"
       inkscape:connector-curvature="0"
       d="m 375.06489,176.95581 c -2e-4,16.27071 -3.2084,30.7091 -9.62394,43.31502 -6.27028,12.45913 -15.01965,22.79312 -26.24732,31.00154 -11.08176,8.20947 -23.25787,14.21872 -36.52627,18.02968 -13.26973,3.81184 -27.34093,5.7175 -42.21392,5.71738 h -34.77663 v 94.54522 c -1.2e-4,5.12986 0.80632,9.67423 2.40562,13.63216 1.74964,3.81097 5.24899,6.74285 10.49891,8.79496 2.62445,1.02535 7.21742,1.97828 13.77987,2.85784 6.70708,0.88231 12.83119,1.39297 18.37233,1.53955 V 412 H 137.53091 v -15.61084 c 3.49938,-0.29479 8.53067,-0.81039 15.09189,-1.53955 6.7075,-0.73035 11.37392,-1.68559 13.99858,-2.85784 4.37408,-1.90573 7.50936,-4.69123 9.40518,-8.35541 2.04106,-3.66489 3.06206,-8.35532 3.06215,-14.07171 V 144.41481 c -9e-5,-5.13067 -0.72733,-9.74806 -2.18725,-13.85218 -1.45829,-4.10443 -4.88502,-7.18289 -10.28008,-9.23449 -5.54135,-1.90543 -11.08189,-3.22505 -16.62301,-3.95784 C 144.60309,116.48697 139.93656,115.9046 136,115.61075 V 100 h 141.73258 c 28.87135,1.9e-4 52.27509,7.0366 70.21053,21.10822 18.08101,13.92523 27.12158,32.54119 27.12178,55.84759 m -66.49243,53.20907 c 4.95765,-7.03611 8.23912,-14.29143 9.84289,-21.76788 1.60337,-7.6215 2.40544,-14.4374 2.40585,-20.44764 -4.1e-4,-8.35512 -1.02039,-16.85652 -3.06196,-25.50581 -1.89601,-8.64806 -5.24919,-16.19695 -10.0616,-22.64613 -5.10313,-6.88923 -11.81153,-12.24002 -20.12217,-16.05119 -8.31217,-3.81075 -18.6651,-5.71617 -31.05888,-5.71669 h -30.83978 v 137.85994 h 22.3093 c 15.7478,4.1e-4 28.50749,-2.41789 38.27692,-7.25522 9.91533,-4.98379 17.35158,-11.14001 22.30943,-18.46938" />
  </g>
</svg>
