<?xml version="1.0" encoding="UTF-8" standalone="no"?>
<!-- Created with Inkscape (http://www.inkscape.org/) -->

<svg
   xmlns:dc="http://purl.org/dc/elements/1.1/"
   xmlns:cc="http://creativecommons.org/ns#"
   xmlns:rdf="http://www.w3.org/1999/02/22-rdf-syntax-ns#"
   xmlns:svg="http://www.w3.org/2000/svg"
   xmlns="http://www.w3.org/2000/svg"
   xmlns:sodipodi="http://sodipodi.sourceforge.net/DTD/sodipodi-0.dtd"
   xmlns:inkscape="http://www.inkscape.org/namespaces/inkscape"
   id="svg3007"
   version="1.1"
   inkscape:version="0.92.3 (2405546, 2018-03-11)"
   width="512"
   height="512"
   sodipodi:docname="pcsx-icon.svg">
  <metadata
     id="metadata3013">
    <rdf:RDF>
      <cc:Work
         rdf:about="">
        <dc:format>image/svg+xml</dc:format>
        <dc:type
           rdf:resource="http://purl.org/dc/dcmitype/StillImage" />
        <dc:title></dc:title>
      </cc:Work>
    </rdf:RDF>
  </metadata>
  <defs
     id="defs3011" />
  <sodipodi:namedview
     pagecolor="#ffffff"
     bordercolor="#666666"
     borderopacity="1"
     objecttolerance="10"
     gridtolerance="10"
     guidetolerance="10"
     inkscape:pageopacity="0"
     inkscape:pageshadow="2"
     inkscape:window-width="1366"
     inkscape:window-height="711"
     id="namedview3009"
     showgrid="false"
     inkscape:zoom="0.4609375"
     inkscape:cx="436.50567"
     inkscape:cy="222.26714"
     inkscape:window-x="0"
     inkscape:window-y="28"
     inkscape:window-maximized="1"
     inkscape:current-layer="g2982"
     borderlayer="false" />
  <g
     id="g2982"
     transform="translate(2.5745763e-6,-2.1694916)">
    <g
       id="g911">
      <g
         style="fill:#8a715e;fill-opacity:1"
         id="g29"
         transform="matrix(8.0447856,6.9727289,-7.6918815,8.6750446,247.5303,-117.37708)">
        <path
           id="path27"
           d="M 24,1 C 36.703,1 47,11.297 47,24 47,36.703 36.703,47 24,47 11.297,47 1,36.703 1,24 1,11.297 11.297,1 24,1 Z"
           inkscape:connector-curvature="0"
           style="fill:#8a715e;fill-opacity:1" />
      </g>
      <path
         style="opacity:1;fill:#000000;fill-opacity:0.49019608;stroke-width:11.10955811"
         inkscape:connector-curvature="0"
         d="M 511.63551,227.07302 C 510.08411,288.38467 486.47427,351.22761 440.66912,402.8875 342.95915,513.08659 180.91869,530.61539 78.725776,442.04077 30.827123,400.52514 4.4968202,343.09232 0.1938271,282.39828 0.79907782,348.75496 27.11741,412.65168 79.07868,457.68854 c 102.19291,88.57455 264.24106,71.03715 361.94334,-39.15326 49.70494,-56.05814 73.00503,-125.29097 70.61349,-191.46226 z"
         id="path51" />
      <path
         style="fill:#000000;fill-opacity:0.49019608;fill-rule:nonzero;stroke:none;stroke-width:0;stroke-linecap:round;stroke-linejoin:miter;stroke-miterlimit:4;stroke-dasharray:none;stroke-opacity:1"
         d="m 237.44133,157.76939 c -0.3828,0.0207 -0.635,0.0849 -0.74459,0.19445 -1.08719,1.0873 -0.6756,223.22122 0.41578,224.38528 0.77444,0.82602 46.69738,15.6972 48.84758,15.81827 0.70044,0.0394 1.48495,-0.4797 1.74372,-1.15404 0.25877,-0.67433 0.46952,-44.026 0.46952,-96.33721 V 205.5657 l 1.74529,-3.45897 c 1.66321,-3.29825 1.91556,-3.47055 5.47143,-3.69768 3.42581,-0.21881 3.96814,0.003 6.67763,2.71438 2.18857,2.19015 3.17592,4.01021 3.82888,7.05862 0.59167,2.76232 0.88055,17.16113 0.88055,43.96742 v 39.86029 l 2.16897,1.12243 c 6.19155,3.20178 12.93665,4.71043 21.1,4.7205 7.66795,0.009 8.46494,-0.14239 13.34578,-2.54521 15.7826,-7.76976 22.44305,-24.96868 20.66842,-53.36891 -2.18879,-35.02813 -17.24594,-51.87485 -59.06323,-66.08708 -26.60336,-9.04155 -61.81365,-18.39339 -67.55573,-18.0821 z M 225.2907,293.65703 c -1.02916,-0.0148 -2.45654,0.34516 -4.34268,1.07817 -1.60729,0.62465 -18.79209,6.74821 -38.1893,13.60821 -45.89835,16.23239 -59.30921,22.72066 -62.09378,30.04461 -1.03656,2.72637 -0.83268,7.72057 0.41261,10.1287 1.79941,3.47966 7.993,8.64696 13.19244,11.00449 9.16333,4.15486 29.55999,9.31479 43.83779,11.09146 5.37817,0.66923 37.70683,-0.1255 42.63157,-1.04813 2.77103,-0.51914 5.47444,-1.49644 6.00734,-2.17213 1.01381,-1.2855 1.43595,-22.06564 0.49798,-24.50995 -0.70398,-1.83453 -2.24179,-1.5548 -12.76561,2.31757 -15.88337,5.84447 -18.23012,6.51249 -25.4648,7.26098 -11.26345,1.16529 -21.75764,-1.03852 -21.75764,-4.57033 0,-2.99533 3.02855,-4.28426 44.93808,-19.11757 7.0241,-2.48608 13.3896,-5.13899 14.1457,-5.8951 1.20459,-1.20458 1.37537,-2.94889 1.37537,-14.09986 0,-6.99929 -0.21233,-13.27852 -0.4711,-13.95284 -0.29329,-0.76429 -0.92481,-1.1535 -1.95397,-1.16828 z m 129.88031,12.1048 c -16.9533,-0.0584 -34.2407,2.37737 -51.10667,7.32738 -8.44797,2.4794 -8.13995,1.81936 -8.13995,17.38493 0,7.35952 0.21233,13.93299 0.4711,14.60732 0.25877,0.67434 1.07483,1.22518 1.81327,1.22518 0.73844,0 12.82252,-4.04106 26.85282,-8.98097 31.07719,-10.94193 34.8001,-11.94671 44.28043,-11.94671 11.61104,0 17.78394,2.34669 15.82143,6.01367 -1.16865,2.18366 -5.81975,4.02058 -48.54564,19.17765 -21.31561,7.56175 -39.19144,14.29744 -39.72433,14.96776 -0.68987,0.86778 -0.96908,5.03697 -0.96908,14.47928 0,13.6076 0.44264,15.71752 3.07955,14.69901 0.65146,-0.25163 19.14778,-6.91757 41.10287,-14.81284 21.95508,-7.89526 46.7189,-16.80255 55.03198,-19.7926 18.14257,-6.52551 26.17461,-10.53331 31.51167,-15.72817 10.85805,-10.56878 5.0594,-20.86894 -16.23246,-28.83209 -17.24946,-6.45128 -36.03326,-9.72255 -55.24699,-9.7888 z"
         id="path52"
         inkscape:connector-curvature="0" />
      <path
         inkscape:connector-curvature="0"
         id="path2991"
         d="m 217.44133,137.76939 c -0.3828,0.0207 -0.635,0.0849 -0.74459,0.19445 -1.08719,1.0873 -0.6756,223.22122 0.41578,224.38528 0.77444,0.82602 46.69738,15.6972 48.84758,15.81827 0.70044,0.0394 1.48495,-0.4797 1.74372,-1.15404 0.25877,-0.67433 0.46952,-44.026 0.46952,-96.33721 V 185.5657 l 1.74529,-3.45897 c 1.66321,-3.29825 1.91556,-3.47055 5.47143,-3.69768 3.42581,-0.21881 3.96814,0.003 6.67763,2.71438 2.18857,2.19015 3.17592,4.01021 3.82888,7.05862 0.59167,2.76232 0.88055,17.16113 0.88055,43.96742 v 39.86029 l 2.16897,1.12243 c 6.19155,3.20178 12.93665,4.71043 21.1,4.7205 7.66795,0.009 8.46494,-0.14239 13.34578,-2.54521 15.7826,-7.76976 22.44305,-24.96868 20.66842,-53.36891 -2.18879,-35.02813 -17.24594,-51.87485 -59.06323,-66.08708 -26.60336,-9.04155 -61.81365,-18.39339 -67.55573,-18.0821 z M 205.2907,273.65703 c -1.02916,-0.0148 -2.45654,0.34516 -4.34268,1.07817 -1.60729,0.62465 -18.79209,6.74821 -38.1893,13.60821 -45.89835,16.23239 -59.30921,22.72066 -62.09378,30.04461 -1.036563,2.72637 -0.832676,7.72057 0.41261,10.1287 1.79941,3.47966 7.993,8.64696 13.19244,11.00449 9.16333,4.15486 29.55999,9.31479 43.83779,11.09146 5.37817,0.66923 37.70683,-0.1255 42.63157,-1.04813 2.77103,-0.51914 5.47444,-1.49644 6.00734,-2.17213 1.01381,-1.2855 1.43595,-22.06564 0.49798,-24.50995 -0.70398,-1.83453 -2.24179,-1.5548 -12.76561,2.31757 -15.88337,5.84447 -18.23012,6.51249 -25.4648,7.26098 -11.26345,1.16529 -21.75764,-1.03852 -21.75764,-4.57033 0,-2.99533 3.02855,-4.28426 44.93808,-19.11757 7.0241,-2.48608 13.3896,-5.13899 14.1457,-5.8951 1.20459,-1.20458 1.37537,-2.94889 1.37537,-14.09986 0,-6.99929 -0.21233,-13.27852 -0.4711,-13.95284 -0.29329,-0.76429 -0.92481,-1.1535 -1.95397,-1.16828 z m 129.88031,12.1048 c -16.9533,-0.0584 -34.2407,2.37737 -51.10667,7.32738 -8.44797,2.4794 -8.13995,1.81936 -8.13995,17.38493 0,7.35952 0.21233,13.93299 0.4711,14.60732 0.25877,0.67434 1.07483,1.22518 1.81327,1.22518 0.73844,0 12.82252,-4.04106 26.85282,-8.98097 31.07719,-10.94193 34.8001,-11.94671 44.28043,-11.94671 11.61104,0 17.78394,2.34669 15.82143,6.01367 -1.16865,2.18366 -5.81975,4.02058 -48.54564,19.17765 -21.31561,7.56175 -39.19144,14.29744 -39.72433,14.96776 -0.68987,0.86778 -0.96908,5.03697 -0.96908,14.47928 0,13.6076 0.44264,15.71752 3.07955,14.69901 0.65146,-0.25163 19.14778,-6.91757 41.10287,-14.81284 21.95508,-7.89526 46.7189,-16.80255 55.03198,-19.7926 18.14257,-6.52551 26.17461,-10.53331 31.51167,-15.72817 10.85805,-10.56878 5.0594,-20.86894 -16.23246,-28.83209 -17.24946,-6.45128 -36.03326,-9.72255 -55.24699,-9.7888 z"
         style="fill:#ffffff;fill-opacity:1;fill-rule:nonzero;stroke:#5f6a78;stroke-width:0;stroke-linecap:round;stroke-linejoin:miter;stroke-miterlimit:4;stroke-dasharray:none;stroke-opacity:1" />
    </g>
  </g>
</svg>
