<?xml version="1.0" encoding="UTF-8" standalone="no"?>
<!-- Created using Karbon, part of Calligra: http://www.calligra.org/karbon -->

<svg
   xmlns:dc="http://purl.org/dc/elements/1.1/"
   xmlns:cc="http://creativecommons.org/ns#"
   xmlns:rdf="http://www.w3.org/1999/02/22-rdf-syntax-ns#"
   xmlns:svg="http://www.w3.org/2000/svg"
   xmlns="http://www.w3.org/2000/svg"
   xmlns:sodipodi="http://sodipodi.sourceforge.net/DTD/sodipodi-0.dtd"
   xmlns:inkscape="http://www.inkscape.org/namespaces/inkscape"
   width="512"
   height="512"
   id="svg2"
   version="1.1"
   inkscape:version="0.92.3 (2405546, 2018-03-11)"
   sodipodi:docname="photofilmstrip.svg"
   viewBox="0 0 512 512">
  <metadata
     id="metadata12">
    <rdf:RDF>
      <cc:Work
         rdf:about="">
        <dc:format>image/svg+xml</dc:format>
        <dc:type
           rdf:resource="http://purl.org/dc/dcmitype/StillImage" />
        <dc:title></dc:title>
      </cc:Work>
    </rdf:RDF>
  </metadata>
  <sodipodi:namedview
     pagecolor="#ffffff"
     bordercolor="#666666"
     borderopacity="1"
     objecttolerance="10"
     gridtolerance="10"
     guidetolerance="10"
     inkscape:pageopacity="0"
     inkscape:pageshadow="2"
     inkscape:window-width="1366"
     inkscape:window-height="711"
     id="namedview10"
     showgrid="false"
     inkscape:zoom="0.57452426"
     inkscape:cx="456.30061"
     inkscape:cy="131.67067"
     inkscape:window-x="0"
     inkscape:window-y="28"
     inkscape:window-maximized="1"
     inkscape:current-layer="svg2"
     inkscape:showpageshadow="false"
     borderlayer="true"
     units="px"
     showguides="false"
     inkscape:document-units="px">
    <sodipodi:guide
       position="1.9073486e-06,48.000002"
       orientation="47.999998,0"
       id="guide4062"
       inkscape:locked="false" />
    <sodipodi:guide
       position="1.9073486e-06,3.8146973e-06"
       orientation="0,47.999998"
       id="guide4064"
       inkscape:locked="false" />
    <sodipodi:guide
       position="48,3.8146973e-06"
       orientation="-47.999998,0"
       id="guide4066"
       inkscape:locked="false" />
    <sodipodi:guide
       position="48,48.000002"
       orientation="0,-47.999998"
       id="guide4068"
       inkscape:locked="false" />
    <sodipodi:guide
       position="4.0000019,44.000002"
       orientation="39.999998,0"
       id="guide4072"
       inkscape:locked="false" />
    <sodipodi:guide
       position="4.0000019,4.0000038"
       orientation="0,39.999998"
       id="guide4074"
       inkscape:locked="false" />
    <sodipodi:guide
       position="44,4.0000038"
       orientation="-39.999998,0"
       id="guide4076"
       inkscape:locked="false" />
    <sodipodi:guide
       position="44,44.000002"
       orientation="0,-39.999998"
       id="guide4078"
       inkscape:locked="false" />
    <sodipodi:guide
       position="15.000002,33.000002"
       orientation="17.999998,0"
       id="guide4080"
       inkscape:locked="false" />
    <sodipodi:guide
       position="15.000002,15.000004"
       orientation="0,17.999998"
       id="guide4082"
       inkscape:locked="false" />
    <sodipodi:guide
       position="33,15.000004"
       orientation="-17.999998,0"
       id="guide4084"
       inkscape:locked="false" />
    <sodipodi:guide
       position="33,33.000002"
       orientation="0,-17.999998"
       id="guide4086"
       inkscape:locked="false" />
    <inkscape:grid
       type="xygrid"
       id="grid3359" />
  </sodipodi:namedview>
  <defs
     id="defs4" />
  <g
     id="g878">
    <g
       style="fill:#333333;fill-opacity:1"
       id="g29"
       transform="matrix(8.0447856,6.9727289,-7.6918815,8.6750446,247.5303,-119.54657)">
      <path
         id="path27"
         d="M 24,1 C 36.703,1 47,11.297 47,24 47,36.703 36.703,47 24,47 11.297,47 1,36.703 1,24 1,11.297 11.297,1 24,1 Z"
         inkscape:connector-curvature="0"
         style="fill:#333333;fill-opacity:1" />
    </g>
    <path
       style="opacity:1;fill:#000000;fill-opacity:0.49019608;stroke-width:11.10955811"
       inkscape:connector-curvature="0"
       d="m 511.63551,224.90353 c -1.5514,61.31165 -25.16124,124.15459 -70.96639,175.81448 C 342.95915,510.91712 180.91869,528.44592 78.725778,439.87128 30.827125,398.35565 4.4968214,340.92283 0.19382832,280.22879 0.79907904,346.58547 27.117412,410.48219 79.078682,455.51905 181.27159,544.09362 343.31974,526.55622 441.02202,416.36579 490.72696,360.30765 514.02705,291.07482 511.63551,224.90353 Z"
       id="path51" />
    <path
       style="fill:#000000;stroke-width:0.92307687;fill-opacity:0.49019608"
       d="m 135.69231,419.52431 c -4.82469,-2.06344 -11.88489,-9.38141 -12.98208,-13.45606 -0.51438,-1.91022 -1.3346,-3.47318 -1.82272,-3.47318 -0.56367,0 -0.88751,-46.48142 -0.88751,-127.38463 0,-80.90321 0.32384,-127.38465 0.88751,-127.38465 0.48812,0 1.31056,-1.57115 1.82764,-3.49147 1.18316,-4.39388 7.53378,-10.95079 12.82292,-13.23944 3.85091,-1.66631 9.07297,-1.73064 140.46193,-1.73064 131.38896,0 136.61103,0.0643 140.46193,1.73064 5.28915,2.28865 11.63977,8.84556 12.82292,13.23944 0.51707,1.92032 1.33953,3.49147 1.82764,3.49147 0.56367,0 0.88751,46.48144 0.88751,127.38465 0,80.90321 -0.32384,127.38463 -0.88751,127.38463 -0.48811,0 -1.31057,1.57117 -1.82764,3.49147 -1.18315,4.39393 -7.53377,10.95082 -12.82292,13.2394 -3.85371,1.66754 -8.98867,1.72791 -140.76923,1.65536 -119.27742,-0.0655 -137.18282,-0.252 -140.00039,-1.45699 z m 47.08561,-29.39615 c 1.21019,-0.74792 1.22905,-34.30658 0.0197,-35.05399 -1.22819,-0.75906 -29.20966,-0.80883 -30.43077,-0.0542 -1.25226,0.77393 -1.35171,33.91322 -0.10553,35.15966 0.94448,0.94468 28.98129,0.89734 30.51658,-0.0515 z m 216.92309,0 c 1.26708,-0.7831 1.22408,-34.30965 -0.045,-35.094 -0.52768,-0.32611 -7.36518,-0.59293 -15.19447,-0.59293 -7.82927,0 -14.66678,0.26682 -15.19445,0.59293 -1.23112,0.76089 -1.3091,33.91883 -0.0826,35.14554 0.94447,0.94468 28.98129,0.89733 30.51658,-0.0515 z M 260.76924,372.59508 v -17.53847 h -22.61539 -22.61538 l -0.25289,16.58435 c -0.13908,9.12141 -0.0454,17.12497 0.20812,17.78571 0.36467,0.9503 5.14343,1.14967 22.86827,0.9541 l 22.40727,-0.24723 z m 75.6923,0 v -17.53847 h -22.61538 -22.61539 l -0.25288,16.58435 c -0.13908,9.12141 -0.0455,17.12497 0.2081,17.78571 0.36468,0.9503 5.14344,1.14967 22.86827,0.9541 l 22.40728,-0.24723 z m -75.87723,-60.12881 c 1.62479,-0.83239 3.16185,-1.77097 3.41569,-2.08576 0.25385,-0.3148 2.01924,-1.38976 3.92308,-2.38881 1.90385,-0.99905 3.46153,-2.1374 3.46153,-2.52962 0,-0.39225 0.38001,-0.71318 0.84446,-0.71318 0.46445,0 4.17113,-2.23941 8.23708,-4.97646 4.06597,-2.73706 7.73596,-5.12553 8.15557,-5.30769 0.41959,-0.18218 4.74946,-2.9716 9.62192,-6.19871 16.03369,-10.6194 16.03369,-15.49181 0,-26.11121 -4.87246,-3.22711 -9.27747,-6.07517 -9.78891,-6.32901 -0.51144,-0.25385 -6.34321,-4.04026 -12.9595,-8.41426 -18.23919,-12.05785 -20.09873,-12.74866 -24.12804,-8.96331 l -2.13642,2.00706 v 34.62577 c 0,34.28065 0.02,34.64708 2.00706,36.76219 2.36502,2.51743 5.27053,2.7111 9.34648,0.623 z m -77.84599,-117.0829 c 1.26724,-0.78321 1.30172,-34.31064 0.0361,-35.09286 -1.19766,-0.74019 -29.27423,-0.74019 -30.47189,0 -1.19263,0.7371 -1.23157,33.92922 -0.0413,35.1199 0.96009,0.96034 28.91955,0.93553 30.47702,-0.027 z m 77.2542,0.0524 c 1.03991,-0.39905 1.23216,-3.73184 1.02793,-17.81967 l -0.25121,-17.32883 h -22.61539 -22.61538 l -0.25202,16.95675 c -0.14283,9.60974 0.12304,17.40876 0.61364,18 0.88135,1.06215 41.36539,1.23821 44.09243,0.19175 z m 76.46902,-17.61003 v -17.53845 h -22.61538 -22.61539 v 17.49686 c 0,17.46556 0.004,17.49773 2.11062,18 1.16085,0.27673 11.33777,0.29546 22.61539,0.0416 l 20.50476,-0.46154 z m 63.19984,17.55757 c 1.26724,-0.78319 1.30173,-34.31064 0.0361,-35.09285 -1.19765,-0.74019 -29.27421,-0.74019 -30.47187,0 -1.19263,0.73709 -1.23159,33.92921 -0.0412,35.1199 0.96009,0.96033 28.91953,0.93553 30.47702,-0.0271 z"
       id="path66"
       inkscape:connector-curvature="0" />
    <path
       inkscape:connector-curvature="0"
       id="path857"
       d="m 115.69231,399.52431 c -4.82469,-2.06344 -11.88489,-9.38141 -12.98208,-13.45606 -0.51438,-1.91022 -1.3346,-3.47318 -1.82272,-3.47318 -0.56367,0 -0.88751,-46.48142 -0.88751,-127.38463 0,-80.90321 0.32384,-127.38465 0.88751,-127.38465 0.48812,0 1.31056,-1.57115 1.82764,-3.49147 1.18316,-4.39388 7.53378,-10.95079 12.82292,-13.23944 3.85091,-1.66631 9.07297,-1.73064 140.46193,-1.73064 131.38896,0 136.61103,0.0643 140.46193,1.73064 5.28915,2.28865 11.63977,8.84556 12.82292,13.23944 0.51707,1.92032 1.33953,3.49147 1.82764,3.49147 0.56367,0 0.88751,46.48144 0.88751,127.38465 0,80.90321 -0.32384,127.38463 -0.88751,127.38463 -0.48811,0 -1.31057,1.57117 -1.82764,3.49147 -1.18315,4.39393 -7.53377,10.95082 -12.82292,13.2394 -3.85371,1.66754 -8.98867,1.72791 -140.76923,1.65536 -119.27742,-0.0655 -137.18282,-0.252 -140.00039,-1.45699 z m 47.08561,-29.39615 c 1.21019,-0.74792 1.22905,-34.30658 0.0197,-35.05399 -1.22819,-0.75906 -29.20966,-0.80883 -30.43077,-0.0542 -1.25226,0.77393 -1.35171,33.91322 -0.10553,35.15966 0.94448,0.94468 28.98129,0.89734 30.51658,-0.0515 z m 216.92309,0 c 1.26708,-0.7831 1.22408,-34.30965 -0.045,-35.094 -0.52768,-0.32611 -7.36518,-0.59293 -15.19447,-0.59293 -7.82927,0 -14.66678,0.26682 -15.19445,0.59293 -1.23112,0.76089 -1.3091,33.91883 -0.0826,35.14554 0.94447,0.94468 28.98129,0.89733 30.51658,-0.0515 z M 240.76924,352.59508 v -17.53847 h -22.61539 -22.61538 l -0.25289,16.58435 c -0.13908,9.12141 -0.0454,17.12497 0.20812,17.78571 0.36467,0.9503 5.14343,1.14967 22.86827,0.9541 l 22.40727,-0.24723 z m 75.6923,0 v -17.53847 h -22.61538 -22.61539 l -0.25288,16.58435 c -0.13908,9.12141 -0.0455,17.12497 0.2081,17.78571 0.36468,0.9503 5.14344,1.14967 22.86827,0.9541 l 22.40728,-0.24723 z m -75.87723,-60.12881 c 1.62479,-0.83239 3.16185,-1.77097 3.41569,-2.08576 0.25385,-0.3148 2.01924,-1.38976 3.92308,-2.38881 1.90385,-0.99905 3.46153,-2.1374 3.46153,-2.52962 0,-0.39225 0.38001,-0.71318 0.84446,-0.71318 0.46445,0 4.17113,-2.23941 8.23708,-4.97646 4.06597,-2.73706 7.73596,-5.12553 8.15557,-5.30769 0.41959,-0.18218 4.74946,-2.9716 9.62192,-6.19871 16.03369,-10.6194 16.03369,-15.49181 0,-26.11121 -4.87246,-3.22711 -9.27747,-6.07517 -9.78891,-6.32901 -0.51144,-0.25385 -6.34321,-4.04026 -12.9595,-8.41426 -18.23919,-12.05785 -20.09873,-12.74866 -24.12804,-8.96331 l -2.13642,2.00706 v 34.62577 c 0,34.28065 0.02,34.64708 2.00706,36.76219 2.36502,2.51743 5.27053,2.7111 9.34648,0.623 z m -77.84599,-117.0829 c 1.26724,-0.78321 1.30172,-34.31064 0.0361,-35.09286 -1.19766,-0.74019 -29.27423,-0.74019 -30.47189,0 -1.19263,0.7371 -1.23157,33.92922 -0.0413,35.1199 0.96009,0.96034 28.91955,0.93553 30.47702,-0.027 z m 77.2542,0.0524 c 1.03991,-0.39905 1.23216,-3.73184 1.02793,-17.81967 l -0.25121,-17.32883 h -22.61539 -22.61538 l -0.25202,16.95675 c -0.14283,9.60974 0.12304,17.40876 0.61364,18 0.88135,1.06215 41.36539,1.23821 44.09243,0.19175 z m 76.46902,-17.61003 v -17.53845 h -22.61538 -22.61539 v 17.49686 c 0,17.46556 0.004,17.49773 2.11062,18 1.16085,0.27673 11.33777,0.29546 22.61539,0.0416 l 20.50476,-0.46154 z m 63.19984,17.55757 c 1.26724,-0.78319 1.30173,-34.31064 0.0361,-35.09285 -1.19765,-0.74019 -29.27421,-0.74019 -30.47187,0 -1.19263,0.73709 -1.23159,33.92921 -0.0412,35.1199 0.96009,0.96033 28.91953,0.93553 30.47702,-0.0271 z"
       style="fill:#ffffff;stroke-width:0.92307687" />
  </g>
</svg>
