<?xml version="1.0" encoding="UTF-8" standalone="no"?>
<svg
   xmlns:dc="http://purl.org/dc/elements/1.1/"
   xmlns:cc="http://creativecommons.org/ns#"
   xmlns:rdf="http://www.w3.org/1999/02/22-rdf-syntax-ns#"
   xmlns:svg="http://www.w3.org/2000/svg"
   xmlns="http://www.w3.org/2000/svg"
   xmlns:sodipodi="http://sodipodi.sourceforge.net/DTD/sodipodi-0.dtd"
   xmlns:inkscape="http://www.inkscape.org/namespaces/inkscape"
   viewBox="0 0 512 512"
   id="svg2"
   version="1.1"
   inkscape:version="0.92.3 (2405546, 2018-03-11)"
   sodipodi:docname="phpstorm.svg"
   width="512"
   height="512">
  <metadata
     id="metadata73">
    <rdf:RDF>
      <cc:Work
         rdf:about="">
        <dc:format>image/svg+xml</dc:format>
        <dc:type
           rdf:resource="http://purl.org/dc/dcmitype/StillImage" />
        <dc:title></dc:title>
      </cc:Work>
    </rdf:RDF>
  </metadata>
  <sodipodi:namedview
     pagecolor="#ffffff"
     bordercolor="#666666"
     borderopacity="1"
     objecttolerance="10"
     gridtolerance="10"
     guidetolerance="10"
     inkscape:pageopacity="0"
     inkscape:pageshadow="2"
     inkscape:window-width="1366"
     inkscape:window-height="711"
     id="namedview71"
     showgrid="false"
     inkscape:zoom="0.15364583"
     inkscape:cx="-612.64823"
     inkscape:cy="626.57142"
     inkscape:window-x="0"
     inkscape:window-y="28"
     inkscape:window-maximized="1"
     inkscape:current-layer="svg2"
     showguides="false" />
  <defs
     id="defs4">
    <linearGradient
       id="linearGradient3764"
       x1="1"
       x2="47"
       gradientUnits="userSpaceOnUse"
       gradientTransform="rotate(-90,23.999998,24)">
      <stop
         stop-color="#acacac"
         stop-opacity="1"
         id="stop7" />
      <stop
         offset="1"
         stop-color="#b6b6b6"
         stop-opacity="1"
         id="stop9" />
    </linearGradient>
    <clipPath
       id="clipPath-593073577">
      <g
         transform="translate(0,-1004.3622)"
         id="g12">
        <path
           d="m -24,13 c 0,1.105 -0.672,2 -1.5,2 -0.828,0 -1.5,-0.895 -1.5,-2 0,-1.105 0.672,-2 1.5,-2 0.828,0 1.5,0.895 1.5,2 z"
           transform="matrix(15.333333,0,0,11.5,414.99999,878.8622)"
           id="path14"
           inkscape:connector-curvature="0"
           style="fill:#1890d0" />
      </g>
    </clipPath>
    <clipPath
       id="clipPath-601783356">
      <g
         transform="translate(0,-1004.3622)"
         id="g17">
        <path
           d="m -24,13 c 0,1.105 -0.672,2 -1.5,2 -0.828,0 -1.5,-0.895 -1.5,-2 0,-1.105 0.672,-2 1.5,-2 0.828,0 1.5,0.895 1.5,2 z"
           transform="matrix(15.333333,0,0,11.5,414.99999,878.8622)"
           id="path19"
           inkscape:connector-curvature="0"
           style="fill:#1890d0" />
      </g>
    </clipPath>
  </defs>
  <g
     id="g33"
     transform="translate(0,464)" />
  <g
     id="g898">
    <path
       id="path864"
       d="M 432.91329,56.473971 C 535.1062,145.04856 538.74002,306.17368 441.03009,416.37276 343.32012,526.57184 181.27964,544.10061 79.086727,455.52602 -23.106181,366.95143 -26.740046,205.82631 70.969927,95.627231 168.6799,-14.57185 330.72034,-32.100619 432.91329,56.473971 Z"
       inkscape:connector-curvature="0"
       style="fill:#a56de2;fill-opacity:1;stroke-width:11.10955811" />
    <path
       id="path886"
       d="M 241.03906 134.33398 L 24.195312 384.25391 C 37.242635 410.85368 55.540835 435.11793 79.085938 455.52539 C 123.63907 494.14133 179.56842 512.5837 236.58203 511.97852 L 241.03906 134.33398 z "
       style="fill:#452981;stroke:none;stroke-width:1px;stroke-linecap:butt;stroke-linejoin:miter;stroke-opacity:1;fill-opacity:1" />
    <path
       id="path868"
       d="M 511.63552,224.90352 C 510.0841,286.21516 486.47426,349.05813 440.66911,400.71799 342.95913,510.91711 180.91869,528.44584 78.725782,439.87129 30.827111,398.35564 4.496805,340.92284 0.19381289,280.22881 0.79906643,346.58548 27.117391,410.48218 79.078677,455.51907 181.27159,544.09362 343.31974,526.55619 441.02204,416.36577 490.72695,360.30766 514.02705,291.07481 511.63552,224.90352 Z"
       inkscape:connector-curvature="0"
       style="opacity:1;fill:#000000;fill-opacity:0.49019608;stroke-width:11.10955811" />
    <path
       id="path876"
       d="M 245.82812 2.0429688 C 181.84071 10.063628 118.72317 41.770859 70.970703 95.626953 C -4.2270296 180.43632 -19.386716 295.40258 24.195312 384.25391 L 241.03906 134.33398 L 245.82812 2.0429688 z "
       style="fill:#7239b3;stroke:none;stroke-width:1px;stroke-linecap:butt;stroke-linejoin:miter;stroke-opacity:1;fill-opacity:1" />
    <path
       id="path881"
       d="M 280.94531 0.015625 C 269.04167 -0.11569826 257.07614 0.59743668 245.14258 2.125 L 236.33984 304.54297 L 510.33789 205.20703 C 503.80883 148.58852 477.9301 95.491765 432.91406 56.474609 C 431.03393 54.845022 429.12691 53.262921 427.20703 51.705078 L 405.55078 36.152344 C 368.01651 12.388415 324.90865 0.50063697 280.94531 0.015625 z "
       style="fill:#cd9ef7;stroke:none;stroke-width:1px;stroke-linecap:butt;stroke-linejoin:miter;stroke-opacity:1;fill-opacity:1" />
    <path
       id="path59"
       d="M 121 120 L 121 432 L 426.10352 432 C 427.99168 430.16165 429.86598 428.30048 431.71484 426.40039 L 431.71484 120 L 121 120 z M 313.34766 156.46484 C 320.08451 156.46484 327.01439 156.98278 334.13477 158.02344 C 341.25504 159.00932 348.62116 160.51642 356.23438 162.54297 L 356.23438 188.50586 C 349.49741 185.49343 342.92583 183.21915 336.51758 181.68555 C 330.10932 180.15197 324.05561 179.38672 318.35938 179.38672 C 310.80097 179.38672 305.21451 180.42455 301.59961 182.50586 C 297.9847 184.58717 296.17773 187.81947 296.17773 192.20117 C 296.17773 195.48745 297.38304 198.06355 299.79297 199.92578 C 302.25772 201.73323 306.69527 203.29291 313.10352 204.60742 L 326.57617 207.31836 C 340.21422 210.05692 349.90921 214.21997 355.66016 219.80664 C 361.41112 225.39333 364.28516 233.33578 364.28516 243.63281 C 364.28516 257.16134 360.26239 267.2379 352.21094 273.86523 C 344.2143 280.4378 331.97256 283.72461 315.48633 283.72461 C 307.70886 283.72461 299.9026 282.98469 292.07031 281.50586 C 284.23792 280.02704 276.40456 277.83648 268.57227 274.93359 L 268.57227 248.23438 C 276.40456 252.397 283.96538 255.54361 291.25 257.67969 C 298.58934 259.761 305.6556 260.80274 312.44727 260.80273 C 319.34848 260.80273 324.63301 259.65392 328.30273 257.35352 C 331.97245 255.05311 333.80664 251.7663 333.80664 247.49414 C 333.80664 243.66014 332.54681 240.70239 330.02734 238.62109 C 327.56259 236.53977 322.60522 234.67634 315.15625 233.0332 L 302.91602 230.32422 C 290.64718 227.6952 281.66499 223.50294 275.96875 217.75195 C 270.32734 212.00095 267.50586 204.25321 267.50586 194.50391 C 267.50586 182.2899 271.44884 172.89678 279.33594 166.32422 C 287.22305 159.75165 298.55945 156.46484 313.34766 156.46484 z M 147.63867 158.68164 L 200.13867 158.68164 C 215.74851 158.68164 227.71382 162.16123 236.03906 169.11719 C 244.41908 176.01839 248.60937 185.87491 248.60938 198.69141 C 248.60938 211.56268 244.41908 221.47763 236.03906 228.43359 C 227.71382 235.33479 215.74851 238.78516 200.13867 238.78516 L 179.26953 238.78516 L 179.26953 281.3418 L 147.63867 281.3418 L 147.63867 158.68164 z M 179.26953 181.60547 L 179.26953 215.86328 L 196.76953 215.86328 C 202.90392 215.86328 207.64136 214.38343 210.98242 211.42578 C 214.32346 208.41335 215.99414 204.16854 215.99414 198.69141 C 215.99414 193.21427 214.32346 188.9967 210.98242 186.03906 C 207.64136 183.0814 202.90392 181.60547 196.76953 181.60547 L 179.26953 181.60547 z M 150.19141 389.02148 L 268.95703 389.02148 L 268.95703 406.35547 L 150.19141 406.35547 L 150.19141 389.02148 z "
       style="opacity:1;fill:#000000;fill-opacity:0.49019608;stroke:none;stroke-width:47.9412117;stroke-linecap:round;stroke-miterlimit:4;stroke-dasharray:none;stroke-opacity:1" />
    <path
       inkscape:connector-curvature="0"
       id="rect844"
       d="M 101,100 V 412 H 411.7147 V 100 Z m 192.34849,36.46412 c 6.73685,0 13.66664,0.51956 20.78702,1.56022 7.12027,0.98588 14.48605,2.49163 22.09927,4.51818 v 25.96337 c -6.73696,-3.01243 -13.30807,-5.28638 -19.71632,-6.81998 -6.40826,-1.53358 -12.46189,-2.2997 -18.15813,-2.2997 -7.5584,0 -13.14542,1.03913 -16.76032,3.12044 -3.61491,2.08131 -5.42225,5.3129 -5.42225,9.6946 0,3.28628 1.20625,5.8618 3.61618,7.72403 2.46475,1.80745 6.90057,3.36822 13.30882,4.68273 l 13.47328,2.71008 c 13.63805,2.73856 23.33282,6.90132 29.08377,12.48799 5.75096,5.58669 8.626,13.52912 8.626,23.82615 0,13.52853 -4.02413,23.60633 -12.07558,30.23366 -7.99664,6.57257 -20.23829,9.85917 -36.72452,9.85917 -7.77747,0 -15.58341,-0.73964 -23.4157,-2.21847 -7.83239,-1.47882 -15.66478,-3.6692 -23.49707,-6.57209 v -26.70077 c 7.83229,4.16262 15.39165,7.31064 22.67627,9.44672 7.33934,2.08131 14.40564,3.12252 21.19731,3.12251 6.90121,0 12.18662,-1.14915 15.85634,-3.44955 3.66972,-2.30041 5.50351,-5.58701 5.50351,-9.85917 0,-3.834 -1.25925,-6.79257 -3.77872,-8.87387 -2.46475,-2.08132 -7.4221,-3.94365 -14.87107,-5.58679 l -12.24005,-2.71008 c -12.26884,-2.62902 -21.25245,-6.82033 -26.94869,-12.57132 -5.64141,-5.751 -8.46143,-13.49984 -8.46143,-23.24914 0,-12.21401 3.94265,-21.60719 11.82975,-28.17975 7.88711,-6.57257 19.22412,-9.85917 34.01233,-9.85917 z m -165.7102,2.21846 h 52.49959 c 15.60984,0 27.57645,3.47814 35.90169,10.4341 8.38002,6.9012 12.56924,16.75892 12.56924,29.57542 0,12.87127 -4.18922,22.7861 -12.56924,29.74206 -8.32524,6.9012 -20.29185,10.35076 -35.90169,10.35076 h -20.86819 v 42.55711 h -31.6314 z m 31.6314,22.9221 v 34.25816 h 17.49986 c 6.13439,0 10.87173,-1.47929 14.21279,-4.43694 3.34104,-3.01243 5.01186,-7.25667 5.01186,-12.7338 0,-5.47714 -1.67082,-9.69492 -5.01186,-12.65256 -3.34106,-2.95766 -8.0784,-4.43486 -14.21279,-4.43486 z m -29.07756,207.41744 h 118.76412 v 17.33322 H 130.19213 Z"
       style="opacity:1;fill:#ffffff;fill-opacity:1;stroke:none;stroke-width:47.9412117;stroke-linecap:round;stroke-miterlimit:4;stroke-dasharray:none;stroke-opacity:1" />
  </g>
</svg>
