<?xml version="1.0" encoding="UTF-8" standalone="no"?>
<!-- Created with Inkscape (http://www.inkscape.org/) -->

<svg
   xmlns:dc="http://purl.org/dc/elements/1.1/"
   xmlns:cc="http://creativecommons.org/ns#"
   xmlns:rdf="http://www.w3.org/1999/02/22-rdf-syntax-ns#"
   xmlns:svg="http://www.w3.org/2000/svg"
   xmlns="http://www.w3.org/2000/svg"
   xmlns:sodipodi="http://sodipodi.sourceforge.net/DTD/sodipodi-0.dtd"
   xmlns:inkscape="http://www.inkscape.org/namespaces/inkscape"
   version="1.1"
   width="512"
   height="512"
   viewBox="0 0 512 512"
   id="svg2"
   inkscape:version="0.92.3 (2405546, 2018-03-11)"
   sodipodi:docname="picasa32x32.svg">
  <sodipodi:namedview
     pagecolor="#ffffff"
     bordercolor="#666666"
     borderopacity="1"
     objecttolerance="10"
     gridtolerance="10"
     guidetolerance="10"
     inkscape:pageopacity="0"
     inkscape:pageshadow="2"
     inkscape:window-width="1008"
     inkscape:window-height="709"
     id="namedview42"
     showgrid="false"
     inkscape:zoom="0.32593203"
     inkscape:cx="244.55554"
     inkscape:cy="202.73012"
     inkscape:window-x="15"
     inkscape:window-y="28"
     inkscape:window-maximized="0"
     inkscape:current-layer="svg2"
     units="px" />
  <metadata
     id="metadata70">
    <rdf:RDF>
      <cc:Work
         rdf:about="">
        <dc:format>image/svg+xml</dc:format>
        <dc:type
           rdf:resource="http://purl.org/dc/dcmitype/StillImage" />
        <dc:title></dc:title>
      </cc:Work>
    </rdf:RDF>
  </metadata>
  <defs
     id="defs68">
    <filter
       id="filter3174"
       style="color-interpolation-filters:sRGB">
      <feGaussianBlur
         stdDeviation="1.71"
         id="feGaussianBlur3176" />
    </filter>
    <linearGradient
       x1="45.447727"
       y1="92.539597"
       x2="45.447727"
       y2="7.0165396"
       id="ButtonShadow"
       gradientUnits="userSpaceOnUse"
       gradientTransform="scale(1.0058652,0.994169)">
      <stop
         id="stop3750"
         style="stop-color:#000000;stop-opacity:1"
         offset="0" />
      <stop
         id="stop3752"
         style="stop-color:#000000;stop-opacity:0.58823532"
         offset="1" />
    </linearGradient>
  </defs>
  <text
     x="729.64001"
     y="742.35999"
     id="text20"
     style="font-size:129.22999573px;line-height:0%;font-family:'Gentium Book Basic';letter-spacing:0;word-spacing:0">
    <tspan
       x="729.64001"
       y="742.35999"
       id="tspan22" />
  </text>
  <text
     x="378.90805"
     y="2629.8093"
     transform="scale(4.0128205,0.24920128)"
     id="text24"
     style="font-size:46.95375824px;font-family:Arial;text-anchor:middle" />
  <text
     x="1310.91"
     y="662.35999"
     id="text26"
     style="font-size:129.22999573px;line-height:0%;font-family:'Gentium Book Basic';letter-spacing:0;word-spacing:0">
    <tspan
       x="1310.91"
       y="662.35999"
       id="tspan28" />
  </text>
  <text
     x="523.75732"
     y="2308.7712"
     transform="scale(4.0128205,0.24920128)"
     id="text30"
     style="font-size:46.95375824px;font-family:Arial;text-anchor:middle" />
  <text
     x="239.33"
     y="481.09998"
     id="text32"
     style="font-size:129.22999573px;line-height:0%;font-family:'Gentium Book Basic';letter-spacing:0;word-spacing:0">
    <tspan
       x="239.33"
       y="481.09998"
       id="tspan34" />
  </text>
  <text
     x="256.71869"
     y="1581.4249"
     transform="scale(4.0128205,0.24920128)"
     id="text36"
     style="font-size:46.95375824px;font-family:Arial;text-anchor:middle" />
  <text
     x="1337.38"
     y="264.63"
     id="text38"
     style="font-size:129.22999573px;line-height:0%;font-family:'Gentium Book Basic';letter-spacing:0;word-spacing:0">
    <tspan
       x="1337.38"
       y="264.63"
       id="tspan40" />
  </text>
  <text
     x="530.3573"
     y="712.74927"
     transform="scale(4.0128205,0.24920128)"
     id="text42"
     style="font-size:46.95375824px;font-family:Arial;text-anchor:middle" />
  <text
     x="1918.65"
     y="184.63"
     id="text44"
     style="font-size:129.22999573px;line-height:0%;font-family:'Gentium Book Basic';letter-spacing:0;word-spacing:0">
    <tspan
       x="1918.65"
       y="184.63"
       id="tspan46" />
  </text>
  <text
     x="675.20654"
     y="391.72095"
     transform="scale(4.0128205,0.24920128)"
     id="text48"
     style="font-size:46.95375824px;font-family:Arial;text-anchor:middle" />
  <text
     x="1529.53"
     y="-287.77002"
     id="text50"
     style="font-size:129.22999573px;line-height:0%;font-family:'Gentium Book Basic';letter-spacing:0;word-spacing:0">
    <tspan
       x="1529.53"
       y="-287.77002"
       id="tspan52" />
  </text>
  <text
     x="578.237"
     y="-1503.9294"
     transform="scale(4.0128205,0.24920128)"
     id="text54"
     style="font-size:46.95375824px;font-family:Arial;text-anchor:middle" />
  <text
     x="2110.79"
     y="-367.78003"
     id="text56"
     style="font-size:129.22999573px;line-height:0%;font-family:'Gentium Book Basic';letter-spacing:0;word-spacing:0">
    <tspan
       x="2110.79"
       y="-367.78003"
       id="tspan58" />
  </text>
  <text
     x="723.0863"
     y="-1824.9678"
     transform="scale(4.0128205,0.24920128)"
     id="text60"
     style="font-size:46.95375824px;font-family:Arial;text-anchor:middle" />
  <text
     x="277.98999"
     y="1046.9401"
     id="text62"
     style="font-size:208.33000183px;line-height:0%;font-family:'Gentium Book Basic';letter-spacing:0;word-spacing:0">
    <tspan
       x="277.98999"
       y="1046.9401"
       id="tspan64" />
  </text>
  <g
     transform="matrix(2.2712069,0,0,2.2712069,37.572877,137.61826)"
     id="layer2"
     style="display:none">
    <rect
       width="86"
       height="85"
       rx="6"
       ry="6"
       x="5"
       y="7"
       id="rect3745"
       style="opacity:0.9;fill:url(#ButtonShadow);fill-opacity:1;fill-rule:nonzero;stroke:none;filter:url(#filter3174)" />
  </g>
  <g
     id="g916"
     transform="translate(1.8019364e-8,2.7262592e-6)">
    <path
       style="fill:#8a715e;fill-opacity:1;stroke-width:11.10955811"
       inkscape:connector-curvature="0"
       d="M 432.91327,56.473965 C 535.10618,145.04855 538.74005,306.17367 441.03007,416.37275 343.3201,526.57182 181.27964,544.10062 79.086729,455.52602 -23.106186,366.95142 -26.740042,205.8263 70.969928,95.627227 168.6799,-14.571855 330.72036,-32.100625 432.91327,56.473965 Z"
       id="path27" />
    <path
       style="opacity:1;fill:#000000;fill-opacity:0.49019608;stroke-width:11.10955811"
       inkscape:connector-curvature="0"
       d="M 511.63551,224.90351 C 510.08412,286.21516 486.47428,349.05812 440.66913,400.71798 342.95915,510.91712 180.91869,528.44582 78.725776,439.87128 30.827124,398.35563 4.4968218,340.92283 0.19382796,280.2288 0.79907956,346.58547 27.117412,410.48217 79.078682,455.51906 181.27159,544.09362 343.31975,526.55622 441.02202,416.36576 490.72697,360.30766 514.02704,291.0748 511.63551,224.90351 Z"
       id="path51" />
    <g
       style="fill:#000000;fill-opacity:0.49019608"
       transform="translate(20,19.999996)"
       id="g898">
      <path
         inkscape:connector-curvature="0"
         id="path886"
         d="m 295.7841,309.56342 c 0.92661,-0.94389 24.81042,-71.55546 24.81042,-73.35267 0,-0.4003 -4.08942,-3.9302 -9.08851,-7.84421 -9.60426,-7.52037 -51.41657,-37.93923 -54.18708,-39.42229 -1.37217,-0.73434 -4.08182,0.81299 -17.15577,9.79897 -30.61272,21.0396 -48.92589,35.00507 -48.9132,37.29988 0,0.79394 5.45142,17.80287 12.10507,37.79763 l 12.09747,36.35413 3.74701,0.57452 c 2.06034,0.31601 19.90091,0.41232 39.64543,0.21403 27.25461,-0.27371 36.14867,-0.61563 36.93916,-1.41999 z"
         style="fill:#000000;fill-opacity:0.49019608;stroke-width:0.71639603" />
      <path
         inkscape:connector-curvature="0"
         id="path888"
         d="m 225.48201,411.15305 c -8.63621,-1.91025 -17.73404,-4.77333 -26.95107,-8.48116 -45.27188,-18.21244 -80.11604,-56.9974 -93.08516,-103.61279 -0.34579,-1.24143 0.0508,-2.35938 1.2242,-3.45272 3.6278,-3.37928 58.95201,-43.26881 61.19414,-44.12114 3.33105,-1.26664 10.36853,-1.10848 13.06296,0.2936 5.64841,2.93886 6.73819,5.12323 14.79951,29.6709 3.51282,10.69486 14.40299,43.67909 24.20085,73.29827 9.79785,29.61918 17.81351,54.63376 17.81351,55.58799 0,1.54009 -0.49797,1.72539 -4.43858,1.65 -2.44079,-0.0468 -5.96038,-0.42153 -7.82036,-0.83295 z"
         style="fill:#000000;fill-opacity:0.49019608;stroke-width:0.71639603" />
      <path
         inkscape:connector-curvature="0"
         id="path890"
         d="m 102.60424,284.14739 c -3.568617,-4.29975 -3.440117,-41.25947 0.20376,-58.55576 7.10933,-33.75165 25.7015,-65.91929 50.43583,-87.26523 9.05894,-7.81783 17.26654,-13.22906 18.72492,-12.34572 2.31821,1.40336 46.31683,33.0815 54.13805,38.97841 10.35837,7.80958 12.80256,12.20871 10.83776,19.50613 -1.72218,6.39577 1.50742,3.74895 -52.50466,43.02697 -51.63131,37.54629 -78.65087,56.99379 -79.79391,57.43241 -0.58251,0.22361 -1.50152,-0.12612 -2.04175,-0.77721 z"
         style="fill:#000000;fill-opacity:0.49019608;stroke-width:0.71639603" />
      <path
         inkscape:connector-curvature="0"
         id="path892"
         d="m 310.669,214.67082 c -1.50657,-0.65493 -5.69153,-3.42459 -9.29988,-6.15478 -3.60836,-2.7302 -19.30573,-14.22065 -34.88305,-25.53434 -50.86869,-36.94615 -83.69902,-61.87209 -83.69902,-63.54873 0,-2.85344 16.81336,-10.20103 32.73984,-14.30735 45.68952,-11.780554 95.18185,-2.97542 132.33322,23.54344 3.60415,2.57231 6.55219,5.25722 6.55219,5.96646 0,2.34618 -22.07623,70.65674 -23.94975,74.10597 -3.3395,6.14998 -12.77974,8.97798 -19.79355,5.92933 z"
         style="fill:#000000;fill-opacity:0.49019608;stroke-width:0.71639603" />
      <path
         inkscape:connector-curvature="0"
         id="path894"
         d="m 251.55214,411.47773 c -1.48968,-0.19405 -2.9227,-0.98334 -3.23129,-1.77998 -0.30605,-0.78723 -5.68055,-17.22001 -11.94359,-36.51727 -12.23105,-37.68363 -12.26488,-37.85619 -8.62523,-43.77805 0.9376,-1.52568 3.17381,-3.52304 4.96783,-4.43859 3.17718,-1.62089 5.34998,-1.66459 82.71915,-1.66459 43.70018,0 79.65018,0.31544 79.8886,0.70101 0.62562,1.01187 -3.92963,9.46485 -10.09969,18.7442 -24.05797,36.17989 -66.73601,62.52249 -109.44195,67.55158 -9.0581,1.06673 -20.74384,1.63651 -24.23383,1.18169 z"
         style="fill:#000000;fill-opacity:0.49019608;stroke-width:0.71639603" />
      <path
         inkscape:connector-curvature="0"
         id="path896"
         d="m 321.79168,309.41586 c -5.99337,-2.60934 -8.85012,-9.78058 -6.91151,-17.35115 0.66113,-2.58328 9.66005,-30.56746 19.99813,-62.18708 10.33811,-31.61966 20.76921,-63.52859 23.18126,-70.90876 2.4856,-7.60558 4.91457,-13.62406 5.60867,-13.89297 1.56916,-0.60836 10.88763,9.47588 18.20666,19.70248 14.5112,20.27504 24.10193,44.18589 27.97744,69.74918 1.77376,11.6984 1.76445,33.16524 -0.0169,44.97096 -1.51674,10.03883 -5.8082,26.27573 -7.72146,29.21681 l -1.23772,1.90224 -38.23692,-0.033 c -30.08684,-0.0261 -38.79239,-0.2751 -40.84428,-1.16863 z"
         style="fill:#000000;fill-opacity:0.49019608;stroke-width:0.71639603" />
    </g>
    <g
       id="g884">
      <path
         style="fill:#ffffff;stroke-width:0.71639603"
         d="m 295.7841,309.56342 c 0.92661,-0.94389 24.81042,-71.55546 24.81042,-73.35267 0,-0.4003 -4.08942,-3.9302 -9.08851,-7.84421 -9.60426,-7.52037 -51.41657,-37.93923 -54.18708,-39.42229 -1.37217,-0.73434 -4.08182,0.81299 -17.15577,9.79897 -30.61272,21.0396 -48.92589,35.00507 -48.9132,37.29988 0,0.79394 5.45142,17.80287 12.10507,37.79763 l 12.09747,36.35413 3.74701,0.57452 c 2.06034,0.31601 19.90091,0.41232 39.64543,0.21403 27.25461,-0.27371 36.14867,-0.61563 36.93916,-1.41999 z"
         id="path2996-4"
         inkscape:connector-curvature="0" />
      <path
         style="fill:#3689e6;fill-opacity:1;stroke-width:0.71639603"
         d="m 225.48201,411.15305 c -8.63621,-1.91025 -17.73404,-4.77333 -26.95107,-8.48116 -45.27188,-18.21244 -80.11604,-56.9974 -93.08516,-103.61279 -0.34579,-1.24143 0.0508,-2.35938 1.2242,-3.45272 3.6278,-3.37928 58.95201,-43.26881 61.19414,-44.12114 3.33105,-1.26664 10.36853,-1.10848 13.06296,0.2936 5.64841,2.93886 6.73819,5.12323 14.79951,29.6709 3.51282,10.69486 14.40299,43.67909 24.20085,73.29827 9.79785,29.61918 17.81351,54.63376 17.81351,55.58799 0,1.54009 -0.49797,1.72539 -4.43858,1.65 -2.44079,-0.0468 -5.96038,-0.42153 -7.82036,-0.83295 z"
         id="path3039"
         inkscape:connector-curvature="0" />
      <path
         style="fill:#a56de2;fill-opacity:1;stroke-width:0.71639603"
         d="m 102.60424,284.14739 c -3.568617,-4.29975 -3.440117,-41.25947 0.20376,-58.55576 7.10933,-33.75165 25.7015,-65.91929 50.43583,-87.26523 9.05894,-7.81783 17.26654,-13.22906 18.72492,-12.34572 2.31821,1.40336 46.31683,33.0815 54.13805,38.97841 10.35837,7.80958 12.80256,12.20871 10.83776,19.50613 -1.72218,6.39577 1.50742,3.74895 -52.50466,43.02697 -51.63131,37.54629 -78.65087,56.99379 -79.79391,57.43241 -0.58251,0.22361 -1.50152,-0.12612 -2.04175,-0.77721 z"
         id="path3037"
         inkscape:connector-curvature="0" />
      <path
         style="fill:#c6262e;fill-opacity:1;stroke-width:0.71639603"
         d="m 310.669,214.67082 c -1.50657,-0.65493 -5.69153,-3.42459 -9.29988,-6.15478 -3.60836,-2.7302 -19.30573,-14.22065 -34.88305,-25.53434 -50.86869,-36.94615 -83.69902,-61.87209 -83.69902,-63.54873 0,-2.85344 16.81336,-10.20103 32.73984,-14.30735 45.68952,-11.780554 95.18185,-2.97542 132.33322,23.54344 3.60415,2.57231 6.55219,5.25722 6.55219,5.96646 0,2.34618 -22.07623,70.65674 -23.94975,74.10597 -3.3395,6.14998 -12.77974,8.97798 -19.79355,5.92933 z"
         id="path2994"
         inkscape:connector-curvature="0" />
      <path
         style="fill:#68b723;fill-opacity:1;stroke-width:0.71639603"
         d="m 251.55214,411.47773 c -1.48968,-0.19405 -2.9227,-0.98334 -3.23129,-1.77998 -0.30605,-0.78723 -5.68055,-17.22001 -11.94359,-36.51727 -12.23105,-37.68363 -12.26488,-37.85619 -8.62523,-43.77805 0.9376,-1.52568 3.17381,-3.52304 4.96783,-4.43859 3.17718,-1.62089 5.34998,-1.66459 82.71915,-1.66459 43.70018,0 79.65018,0.31544 79.8886,0.70101 0.62562,1.01187 -3.92963,9.46485 -10.09969,18.7442 -24.05797,36.17989 -66.73601,62.52249 -109.44195,67.55158 -9.0581,1.06673 -20.74384,1.63651 -24.23383,1.18169 z"
         id="path3033"
         inkscape:connector-curvature="0" />
      <path
         style="fill:#f9c440;fill-opacity:1;stroke-width:0.71639603"
         d="m 321.79168,309.41586 c -5.99337,-2.60934 -8.85012,-9.78058 -6.91151,-17.35115 0.66113,-2.58328 9.66005,-30.56746 19.99813,-62.18708 10.33811,-31.61966 20.76921,-63.52859 23.18126,-70.90876 2.4856,-7.60558 4.91457,-13.62406 5.60867,-13.89297 1.56916,-0.60836 10.88763,9.47588 18.20666,19.70248 14.5112,20.27504 24.10193,44.18589 27.97744,69.74918 1.77376,11.6984 1.76445,33.16524 -0.0169,44.97096 -1.51674,10.03883 -5.8082,26.27573 -7.72146,29.21681 l -1.23772,1.90224 -38.23692,-0.033 c -30.08684,-0.0261 -38.79239,-0.2751 -40.84428,-1.16863 z"
         id="path3029"
         inkscape:connector-curvature="0" />
    </g>
  </g>
</svg>
