<?xml version="1.0" encoding="UTF-8" standalone="no"?>
<!-- Generator: Adobe Illustrator 19.0.0, SVG Export Plug-In . SVG Version: 6.00 Build 0)  -->

<svg
   xmlns:dc="http://purl.org/dc/elements/1.1/"
   xmlns:cc="http://creativecommons.org/ns#"
   xmlns:rdf="http://www.w3.org/1999/02/22-rdf-syntax-ns#"
   xmlns:svg="http://www.w3.org/2000/svg"
   xmlns="http://www.w3.org/2000/svg"
   xmlns:sodipodi="http://sodipodi.sourceforge.net/DTD/sodipodi-0.dtd"
   xmlns:inkscape="http://www.inkscape.org/namespaces/inkscape"
   version="1.1"
   id="Layer_1"
   x="0px"
   y="0px"
   viewBox="0 0 512 512"
   xml:space="preserve"
   inkscape:version="0.92.3 (2405546, 2018-03-11)"
   width="512"
   height="512"
   sodipodi:docname="pinot.svg"><metadata
     id="metadata57"><rdf:RDF><cc:Work
         rdf:about=""><dc:format>image/svg+xml</dc:format><dc:type
           rdf:resource="http://purl.org/dc/dcmitype/StillImage" /><dc:title></dc:title></cc:Work></rdf:RDF></metadata><defs
     id="defs55"><radialGradient
       id="polygon413_1_"
       cx="7976.3457"
       cy="-10508.842"
       r="13293.867"
       gradientTransform="matrix(0.0222,0,0,-0.0248,721.1671,674.6745)"
       gradientUnits="userSpaceOnUse"><stop
         offset="0"
         style="stop-color:#80FF80"
         id="stop388" /><stop
         offset="1"
         style="stop-color:#0f0"
         id="stop390" /></radialGradient><radialGradient
       id="polygon413_1_-3"
       cx="7976.3457"
       cy="-10508.842"
       r="13293.867"
       gradientTransform="matrix(0.0222,0,0,-0.0248,721.1671,674.6745)"
       gradientUnits="userSpaceOnUse"><stop
         offset="0"
         style="stop-color:#80FF80"
         id="stop388-6" /><stop
         offset="1"
         style="stop-color:#0f0"
         id="stop390-7" /></radialGradient><radialGradient
       id="polygon413_1_-3-8"
       cx="7976.3457"
       cy="-10508.842"
       r="13293.867"
       gradientTransform="matrix(0.0222,0,0,-0.0248,721.1671,674.6745)"
       gradientUnits="userSpaceOnUse"><stop
         offset="0"
         style="stop-color:#80FF80"
         id="stop388-6-7" /><stop
         offset="1"
         style="stop-color:#0f0"
         id="stop390-7-9" /></radialGradient><radialGradient
       id="polygon413_1_-3-8-1"
       cx="7976.3457"
       cy="-10508.842"
       r="13293.867"
       gradientTransform="matrix(0.0222,0,0,-0.0248,721.1671,674.6745)"
       gradientUnits="userSpaceOnUse"><stop
         offset="0"
         style="stop-color:#80FF80"
         id="stop388-6-7-9" /><stop
         offset="1"
         style="stop-color:#0f0"
         id="stop390-7-9-4" /></radialGradient><radialGradient
       id="polygon413_1_-3-8-1-7"
       cx="7976.3457"
       cy="-10508.842"
       r="13293.867"
       gradientTransform="matrix(0.0222,0,0,-0.0248,721.1671,674.6745)"
       gradientUnits="userSpaceOnUse"><stop
         offset="0"
         style="stop-color:#80FF80"
         id="stop388-6-7-9-6" /><stop
         offset="1"
         style="stop-color:#0f0"
         id="stop390-7-9-4-5" /></radialGradient><radialGradient
       id="polygon413_1_-3-8-1-7-8"
       cx="7976.3457"
       cy="-10508.842"
       r="13293.867"
       gradientTransform="matrix(0.0222,0,0,-0.0248,721.1671,674.6745)"
       gradientUnits="userSpaceOnUse"><stop
         offset="0"
         style="stop-color:#80FF80"
         id="stop388-6-7-9-6-4" /><stop
         offset="1"
         style="stop-color:#0f0"
         id="stop390-7-9-4-5-3" /></radialGradient></defs><sodipodi:namedview
     pagecolor="#ffffff"
     bordercolor="#666666"
     borderopacity="1"
     objecttolerance="10"
     gridtolerance="10"
     guidetolerance="10"
     inkscape:pageopacity="0"
     inkscape:pageshadow="2"
     inkscape:window-width="1366"
     inkscape:window-height="711"
     id="namedview53"
     showgrid="false"
     inkscape:zoom="0.26279754"
     inkscape:cx="161.97441"
     inkscape:cy="67.965065"
     inkscape:window-x="0"
     inkscape:window-y="28"
     inkscape:window-maximized="1"
     inkscape:current-layer="Layer_1"
     units="px" /><g
     id="g23"
     transform="translate(0,550.767)" /><g
     id="g25"
     transform="translate(0,550.767)" /><g
     id="g27"
     transform="translate(0,550.767)" /><g
     id="g29"
     transform="translate(0,550.767)" /><g
     id="g31"
     transform="translate(0,550.767)" /><g
     id="g33"
     transform="translate(0,550.767)" /><g
     id="g35"
     transform="translate(0,550.767)" /><g
     id="g37"
     transform="translate(0,550.767)" /><g
     id="g39"
     transform="translate(0,550.767)" /><g
     id="g41"
     transform="translate(0,550.767)" /><g
     id="g43"
     transform="translate(0,550.767)" /><g
     id="g45"
     transform="translate(0,550.767)" /><g
     id="g47"
     transform="translate(0,550.767)" /><g
     id="g49"
     transform="translate(0,550.767)" /><g
     id="g51"
     transform="translate(0,550.767)" /><g
     id="g1095"><path
       style="fill:#c6262e;fill-opacity:1;stroke-width:11.10955811"
       inkscape:connector-curvature="0"
       d="M 432.91326,56.473986 C 535.10617,145.04857 538.74004,306.1737 441.03006,416.37277 343.32009,526.57182 181.27966,544.10062 79.086741,455.52602 -23.106205,366.95145 -26.740032,205.82632 70.969941,95.627249 168.67991,-14.571839 330.72036,-32.100601 432.91326,56.473986 Z"
       id="path961" /><path
       style="opacity:1;fill:#000000;fill-opacity:0.49019608;stroke-width:11.10955811"
       inkscape:connector-curvature="0"
       d="M 511.63551,224.90354 C 510.08411,286.21517 486.47427,349.05814 440.66912,400.718 342.95916,510.91712 180.91871,528.44582 78.725758,439.8713 30.827125,398.35565 4.4968179,340.92285 0.19382598,280.22882 0.79907998,346.5855 27.117406,410.4822 79.07869,455.51912 c 102.19292,88.5745 264.24107,71.0371 361.94332,-39.15333 49.70495,-56.05812 73.00502,-125.29098 70.6135,-191.46225 z"
       id="path965" /><g
       style="fill:#000000;fill-opacity:0.49019608"
       transform="translate(20,20)"
       id="g1085"><path
         inkscape:connector-curvature="0"
         d="m 160.81179,100 h 97.59143 q 42.63094,0 64.99128,19.85265 22.36036,19.85264 22.36036,58.09511 0,51.4079 -33.01809,80.03751 -33.01808,28.62959 -92.78499,28.62959 H 166.87207 L 142.42197,412 H 100 Z m 35.52579,34.68988 -22.56932,117.2351 h 53.0797 q 35.94374,0 55.16946,-18.38982 19.22571,-18.38982 19.22571,-52.66175 0,-21.9424 -13.16543,-34.06296 -12.95646,-12.12057 -36.57066,-12.12057 z"
         style="font-style:italic;font-variant:normal;font-weight:normal;font-stretch:normal;font-size:medium;line-height:125%;font-family:sans-serif;-inkscape-font-specification:'sans-serif Italic';letter-spacing:0px;word-spacing:0px;fill:#000000;fill-opacity:0.49019608;stroke:none;stroke-width:0.94465268px;stroke-linecap:butt;stroke-linejoin:miter;stroke-opacity:1"
         id="path1081" /><path
         inkscape:connector-curvature="0"
         id="path1083"
         d="m 326.24966,410.9092 c -11.87901,-0.98712 -23.82747,-5.13703 -33.73713,-11.71747 -17.25345,-11.45708 -28.32764,-28.87666 -31.53661,-49.60686 -0.86621,-5.59579 -0.86621,-14.89905 0,-20.49484 2.38276,-15.39269 8.89078,-28.62953 19.44673,-39.55322 24.16914,-25.01112 62.52585,-29.20644 91.44899,-10.00233 15.4256,10.24215 26.45149,26.14404 30.39037,43.83 1.30048,5.83925 1.68368,9.47475 1.68368,15.97295 0,6.4982 -0.3832,10.13374 -1.68368,15.97298 -3.94647,17.72006 -14.96098,33.58589 -30.46012,43.87614 -4.03173,2.6768 -10.68853,6.089 -14.62651,7.49737 -10.19729,3.64698 -20.6686,5.07759 -30.92572,4.22528 z m 26.32588,-12.06932 c 6.57916,-2.24867 13.80039,-6.2524 19.35982,-10.7338 4.96197,-3.99975 10.78407,-10.69829 14.18391,-16.31902 5.36349,-8.86719 9.01038,-21.26372 9.01038,-30.62819 0,-1.35421 -0.051,-1.47477 -0.56724,-1.33998 -0.34405,0.0899 -1.01383,-0.14699 -1.70228,-0.60197 -1.29097,-0.85312 -8.41099,-6.94844 -9.66135,-8.2709 -0.66863,-0.70717 -1.04992,-0.87336 -2.00386,-0.87336 -1.57472,0 -1.9384,0.46504 -1.38955,1.77684 1.02714,2.45483 0.22057,4.09768 -2.2715,4.62675 -4.40144,0.93441 -8.6444,-2.00984 -14.89232,-10.3341 -4.99927,-6.66063 -5.36876,-6.9793 -11.82728,-10.20031 -4.43448,-2.21157 -8.43201,-3.72434 -11.00681,-4.16525 l -1.9415,-0.33246 -3.57002,1.72335 -3.56999,1.72336 -0.27015,-0.70951 c -0.39441,-1.03595 -0.33016,-2.83097 0.13337,-3.72608 1.08757,-2.1002 4.25384,-3.95691 11.04651,-6.47775 3.96442,-1.47122 4.00136,-1.49297 4.18335,-2.46174 0.12099,-0.64405 -0.0277,-1.74726 -0.43585,-3.23465 -0.34072,-1.24148 -0.54869,-2.53888 -0.46215,-2.8831 0.0864,-0.34423 0.74418,-1.10611 1.4615,-1.69308 2.24014,-1.83306 8.25252,-5.71938 9.3616,-6.0512 1.41414,-0.42309 2.58809,0.16855 3.22928,1.62749 0.99137,2.25571 1.16289,2.47102 1.92677,2.41881 0.4034,-0.0276 2.14736,-0.75402 3.87545,-1.61431 1.72808,-0.86034 3.31852,-1.56423 3.53429,-1.56423 0.8585,0 0.28182,-0.58504 -2.0677,-2.09766 -3.44648,-2.21887 -9.74037,-5.26107 -13.56514,-6.55685 -6.20771,-2.10307 -13.50273,-3.41775 -18.9647,-3.41775 h -2.24015 l 1.25443,0.63168 c 1.21136,0.60999 1.25697,0.67989 1.32866,2.03542 0.0918,1.73649 0.4998,3.02897 1.13122,3.58371 0.27873,0.2449 1.23873,0.47483 2.28035,0.54619 1.59268,0.1091 1.89082,0.22596 2.60056,1.0192 0.55965,0.62548 0.80164,1.19422 0.80164,1.88412 0,1.17853 0.74171,0.81424 -10.27742,5.04764 -15.231,5.85158 -19.74854,7.07217 -20.81103,5.62302 -1.0677,-1.45629 -0.7295,-1.83156 6.76959,-7.51101 5.48378,-4.15316 6.88801,-5.34789 6.88801,-5.86047 0,-0.57753 -1.61752,-0.0593 -6.32479,2.02657 -7.99192,3.54127 -13.21683,6.36663 -15.14346,8.18874 -0.78447,0.74195 -1.00193,1.22289 -1.28124,2.83367 -0.41633,2.40125 -0.91817,3.40167 -1.98188,3.95097 -1.14487,0.59121 -3.5488,0.53181 -5.49149,-0.13562 -2.24885,-0.77264 -3.72932,-0.70588 -6.6644,0.30049 -1.38273,0.47408 -2.91774,0.82726 -3.41115,0.78478 -0.49341,-0.0423 -1.06533,0.0267 -1.27091,0.15352 -0.64737,0.39954 -4.09806,5.84442 -5.7594,9.08778 -0.87708,1.71231 -2.18018,4.60589 -2.89576,6.4302 -1.19879,3.05613 -1.31176,3.55972 -1.43701,6.40518 -0.11721,2.66259 -0.0353,3.50341 0.59356,6.10017 0.83313,3.43971 2.23017,7.31947 4.00732,11.12897 1.05821,2.26838 1.61223,3.02951 4.02849,5.53468 3.18689,3.30412 3.56478,4.12211 3.28815,7.11748 -0.27406,2.96765 -1.16727,5.10172 -3.72789,8.90665 -2.95304,4.38808 -3.19784,4.86398 -3.19784,6.21654 0,2.02273 4.71022,8.84548 9.69941,14.04953 5.68702,5.93198 10.92443,9.79091 18.06799,13.31266 l 4.01087,1.97731 5.82914,-1.29745 c 8.06626,-1.7954 11.82429,-2.2485 17.21543,-2.07568 3.41207,0.10931 4.94035,0.29183 7.04271,0.84109 2.96463,0.77449 6.12466,2.17971 8.27956,3.68187 0.77314,0.53896 1.61307,0.98684 1.86646,0.99536 0.25342,0.008 1.96136,-0.49739 3.79543,-1.12431 z m -10.71021,-22.648 c -1.67785,-1.67551 -2.26219,-3.83787 -2.82775,-10.46382 -1.05849,-12.4011 -2.92437,-20.02781 -5.1835,-21.18751 -0.39403,-0.20228 -2.93044,-1.00257 -5.63643,-1.77843 -7.8542,-2.25196 -11.12495,-3.87146 -13.3164,-6.59356 -1.16124,-1.44242 -1.36964,-3.96648 -0.49122,-5.9495 1.46407,-3.30515 5.67568,-7.84414 9.20602,-9.92157 2.72142,-1.60141 5.12127,-2.34174 8.1299,-2.50794 2.93502,-0.16216 4.6345,0.13072 8.06919,1.39062 2.07459,0.76099 2.4346,0.98351 2.29613,1.41923 -0.28652,0.9015 0.69798,1.91685 2.7906,2.87796 2.25731,1.0368 7.67696,2.47214 11.32074,2.99826 2.38865,0.34487 2.42479,0.36221 3.7207,1.78255 0.71975,0.78888 2.11199,2.96476 3.09391,4.83531 2.402,4.57592 3.05798,5.27871 6.85589,7.3451 4.86132,2.64499 4.57167,2.28257 4.13997,5.18032 -0.34299,2.30226 -0.42571,2.49324 -1.51142,3.49014 -0.63172,0.58002 -2.03418,1.54553 -3.11659,2.14554 -3.13488,1.73778 -3.57973,2.18721 -6.76842,6.83777 -6.78787,9.89988 -12.55737,16.49357 -15.84847,18.11253 -2.10543,1.03568 -3.87737,1.03102 -4.92285,-0.0131 z"
         style="fill:#000000;stroke-width:0.28094688;fill-opacity:0.49019608" /></g><g
       id="g1079"><path
         id="path3591"
         style="font-style:italic;font-variant:normal;font-weight:normal;font-stretch:normal;font-size:medium;line-height:125%;font-family:sans-serif;-inkscape-font-specification:'sans-serif Italic';letter-spacing:0px;word-spacing:0px;fill:#ffffff;fill-opacity:1;stroke:none;stroke-width:0.94465268px;stroke-linecap:butt;stroke-linejoin:miter;stroke-opacity:1"
         d="m 160.81179,100 h 97.59143 q 42.63094,0 64.99128,19.85265 22.36036,19.85264 22.36036,58.09511 0,51.4079 -33.01809,80.03751 -33.01808,28.62959 -92.78499,28.62959 H 166.87207 L 142.42197,412 H 100 Z m 35.52579,34.68988 -22.56932,117.2351 h 53.0797 q 35.94374,0 55.16946,-18.38982 19.22571,-18.38982 19.22571,-52.66175 0,-21.9424 -13.16543,-34.06296 -12.95646,-12.12057 -36.57066,-12.12057 z"
         inkscape:connector-curvature="0" /><path
         style="fill:#ffffff;stroke-width:0.28094688"
         d="m 326.24966,410.9092 c -11.87901,-0.98712 -23.82747,-5.13703 -33.73713,-11.71747 -17.25345,-11.45708 -28.32764,-28.87666 -31.53661,-49.60686 -0.86621,-5.59579 -0.86621,-14.89905 0,-20.49484 2.38276,-15.39269 8.89078,-28.62953 19.44673,-39.55322 24.16914,-25.01112 62.52585,-29.20644 91.44899,-10.00233 15.4256,10.24215 26.45149,26.14404 30.39037,43.83 1.30048,5.83925 1.68368,9.47475 1.68368,15.97295 0,6.4982 -0.3832,10.13374 -1.68368,15.97298 -3.94647,17.72006 -14.96098,33.58589 -30.46012,43.87614 -4.03173,2.6768 -10.68853,6.089 -14.62651,7.49737 -10.19729,3.64698 -20.6686,5.07759 -30.92572,4.22528 z m 26.32588,-12.06932 c 6.57916,-2.24867 13.80039,-6.2524 19.35982,-10.7338 4.96197,-3.99975 10.78407,-10.69829 14.18391,-16.31902 5.36349,-8.86719 9.01038,-21.26372 9.01038,-30.62819 0,-1.35421 -0.051,-1.47477 -0.56724,-1.33998 -0.34405,0.0899 -1.01383,-0.14699 -1.70228,-0.60197 -1.29097,-0.85312 -8.41099,-6.94844 -9.66135,-8.2709 -0.66863,-0.70717 -1.04992,-0.87336 -2.00386,-0.87336 -1.57472,0 -1.9384,0.46504 -1.38955,1.77684 1.02714,2.45483 0.22057,4.09768 -2.2715,4.62675 -4.40144,0.93441 -8.6444,-2.00984 -14.89232,-10.3341 -4.99927,-6.66063 -5.36876,-6.9793 -11.82728,-10.20031 -4.43448,-2.21157 -8.43201,-3.72434 -11.00681,-4.16525 l -1.9415,-0.33246 -3.57002,1.72335 -3.56999,1.72336 -0.27015,-0.70951 c -0.39441,-1.03595 -0.33016,-2.83097 0.13337,-3.72608 1.08757,-2.1002 4.25384,-3.95691 11.04651,-6.47775 3.96442,-1.47122 4.00136,-1.49297 4.18335,-2.46174 0.12099,-0.64405 -0.0277,-1.74726 -0.43585,-3.23465 -0.34072,-1.24148 -0.54869,-2.53888 -0.46215,-2.8831 0.0864,-0.34423 0.74418,-1.10611 1.4615,-1.69308 2.24014,-1.83306 8.25252,-5.71938 9.3616,-6.0512 1.41414,-0.42309 2.58809,0.16855 3.22928,1.62749 0.99137,2.25571 1.16289,2.47102 1.92677,2.41881 0.4034,-0.0276 2.14736,-0.75402 3.87545,-1.61431 1.72808,-0.86034 3.31852,-1.56423 3.53429,-1.56423 0.8585,0 0.28182,-0.58504 -2.0677,-2.09766 -3.44648,-2.21887 -9.74037,-5.26107 -13.56514,-6.55685 -6.20771,-2.10307 -13.50273,-3.41775 -18.9647,-3.41775 h -2.24015 l 1.25443,0.63168 c 1.21136,0.60999 1.25697,0.67989 1.32866,2.03542 0.0918,1.73649 0.4998,3.02897 1.13122,3.58371 0.27873,0.2449 1.23873,0.47483 2.28035,0.54619 1.59268,0.1091 1.89082,0.22596 2.60056,1.0192 0.55965,0.62548 0.80164,1.19422 0.80164,1.88412 0,1.17853 0.74171,0.81424 -10.27742,5.04764 -15.231,5.85158 -19.74854,7.07217 -20.81103,5.62302 -1.0677,-1.45629 -0.7295,-1.83156 6.76959,-7.51101 5.48378,-4.15316 6.88801,-5.34789 6.88801,-5.86047 0,-0.57753 -1.61752,-0.0593 -6.32479,2.02657 -7.99192,3.54127 -13.21683,6.36663 -15.14346,8.18874 -0.78447,0.74195 -1.00193,1.22289 -1.28124,2.83367 -0.41633,2.40125 -0.91817,3.40167 -1.98188,3.95097 -1.14487,0.59121 -3.5488,0.53181 -5.49149,-0.13562 -2.24885,-0.77264 -3.72932,-0.70588 -6.6644,0.30049 -1.38273,0.47408 -2.91774,0.82726 -3.41115,0.78478 -0.49341,-0.0423 -1.06533,0.0267 -1.27091,0.15352 -0.64737,0.39954 -4.09806,5.84442 -5.7594,9.08778 -0.87708,1.71231 -2.18018,4.60589 -2.89576,6.4302 -1.19879,3.05613 -1.31176,3.55972 -1.43701,6.40518 -0.11721,2.66259 -0.0353,3.50341 0.59356,6.10017 0.83313,3.43971 2.23017,7.31947 4.00732,11.12897 1.05821,2.26838 1.61223,3.02951 4.02849,5.53468 3.18689,3.30412 3.56478,4.12211 3.28815,7.11748 -0.27406,2.96765 -1.16727,5.10172 -3.72789,8.90665 -2.95304,4.38808 -3.19784,4.86398 -3.19784,6.21654 0,2.02273 4.71022,8.84548 9.69941,14.04953 5.68702,5.93198 10.92443,9.79091 18.06799,13.31266 l 4.01087,1.97731 5.82914,-1.29745 c 8.06626,-1.7954 11.82429,-2.2485 17.21543,-2.07568 3.41207,0.10931 4.94035,0.29183 7.04271,0.84109 2.96463,0.77449 6.12466,2.17971 8.27956,3.68187 0.77314,0.53896 1.61307,0.98684 1.86646,0.99536 0.25342,0.008 1.96136,-0.49739 3.79543,-1.12431 z m -10.71021,-22.648 c -1.67785,-1.67551 -2.26219,-3.83787 -2.82775,-10.46382 -1.05849,-12.4011 -2.92437,-20.02781 -5.1835,-21.18751 -0.39403,-0.20228 -2.93044,-1.00257 -5.63643,-1.77843 -7.8542,-2.25196 -11.12495,-3.87146 -13.3164,-6.59356 -1.16124,-1.44242 -1.36964,-3.96648 -0.49122,-5.9495 1.46407,-3.30515 5.67568,-7.84414 9.20602,-9.92157 2.72142,-1.60141 5.12127,-2.34174 8.1299,-2.50794 2.93502,-0.16216 4.6345,0.13072 8.06919,1.39062 2.07459,0.76099 2.4346,0.98351 2.29613,1.41923 -0.28652,0.9015 0.69798,1.91685 2.7906,2.87796 2.25731,1.0368 7.67696,2.47214 11.32074,2.99826 2.38865,0.34487 2.42479,0.36221 3.7207,1.78255 0.71975,0.78888 2.11199,2.96476 3.09391,4.83531 2.402,4.57592 3.05798,5.27871 6.85589,7.3451 4.86132,2.64499 4.57167,2.28257 4.13997,5.18032 -0.34299,2.30226 -0.42571,2.49324 -1.51142,3.49014 -0.63172,0.58002 -2.03418,1.54553 -3.11659,2.14554 -3.13488,1.73778 -3.57973,2.18721 -6.76842,6.83777 -6.78787,9.89988 -12.55737,16.49357 -15.84847,18.11253 -2.10543,1.03568 -3.87737,1.03102 -4.92285,-0.0131 z"
         id="path887"
         inkscape:connector-curvature="0" /></g></g></svg>