<?xml version="1.0" encoding="UTF-8" standalone="no"?>
<svg
   xmlns:dc="http://purl.org/dc/elements/1.1/"
   xmlns:cc="http://creativecommons.org/ns#"
   xmlns:rdf="http://www.w3.org/1999/02/22-rdf-syntax-ns#"
   xmlns:svg="http://www.w3.org/2000/svg"
   xmlns="http://www.w3.org/2000/svg"
   xmlns:sodipodi="http://sodipodi.sourceforge.net/DTD/sodipodi-0.dtd"
   xmlns:inkscape="http://www.inkscape.org/namespaces/inkscape"
   viewBox="0 0 512 512"
   height="512"
   width="512"
   id="svg2"
   version="1.1"
   inkscape:version="0.92.3 (2405546, 2018-03-11)"
   sodipodi:docname="play-store.svg">
  <metadata
     id="metadata20">
    <rdf:RDF>
      <cc:Work
         rdf:about="">
        <dc:format>image/svg+xml</dc:format>
        <dc:type
           rdf:resource="http://purl.org/dc/dcmitype/StillImage" />
        <dc:title></dc:title>
      </cc:Work>
    </rdf:RDF>
  </metadata>
  <defs
     id="defs18" />
  <sodipodi:namedview
     pagecolor="#ffffff"
     bordercolor="#666666"
     borderopacity="1"
     objecttolerance="10"
     gridtolerance="10"
     guidetolerance="10"
     inkscape:pageopacity="0"
     inkscape:pageshadow="2"
     inkscape:window-width="1366"
     inkscape:window-height="711"
     id="namedview16"
     showgrid="false"
     inkscape:zoom="0.35355339"
     inkscape:cx="534.13251"
     inkscape:cy="27.113959"
     inkscape:window-x="0"
     inkscape:window-y="28"
     inkscape:window-maximized="1"
     inkscape:current-layer="svg2" />
  <g
     transform="translate(1.075815e-7,1.6077824e-6)"
     id="g875">
    <path
       id="path911"
       d="M 432.91337,56.474014 C 535.10617,145.04862 538.74003,306.17372 441.03016,416.37285 343.3201,526.5718 181.27948,544.10061 79.086675,455.52604 -23.106168,366.95147 -26.740028,205.82635 70.969885,95.627278 168.67976,-14.571801 330.7203,-32.100574 432.91337,56.474014 Z"
       inkscape:connector-curvature="0"
       style="fill:#333333;fill-opacity:1;stroke-width:11.10955238" />
    <path
       id="path913"
       d="M 511.63501,224.90357 C 510.08361,286.21522 486.4738,349.05817 440.6687,400.71805 342.95883,510.91718 180.91853,528.44589 78.725715,439.87134 30.827115,398.35564 4.4968394,340.92288 0.19385041,280.22883 0.79910141,346.58552 27.117406,410.48225 79.078625,455.51905 181.27144,544.09361 343.31942,526.55629 441.0216,416.36585 c 49.70489,-56.05817 73.00495,-125.291 70.61341,-191.46228 z"
       inkscape:connector-curvature="0"
       style="opacity:1;fill:#000000;fill-opacity:0.49019608;stroke-width:11.10955238" />
    <path
       style="fill:#000000;fill-opacity:0.49019608;fill-rule:evenodd;stroke:none;stroke-width:0.65115917px;stroke-linecap:butt;stroke-linejoin:miter;stroke-opacity:1"
       d="m 136,136.53319 0.61223,275.96032 c 0,0 -1.32303,11.42097 7.6528,16.83618 8.97584,5.41521 19.74425,0.91834 19.74425,0.91834 L 406.60327,290.66078 c 0,0 8.99623,-3.64449 9.18338,-15.15255 0.18737,-11.50805 -9.9487,-16.53008 -9.9487,-16.53008 L 167.37652,123.67648 c 0,0 -10.42306,-6.57165 -20.66257,-2.14278 C 136.4744,125.96255 136,136.53319 136,136.53319 Z"
       id="path866"
       inkscape:connector-curvature="0"
       sodipodi:nodetypes="cczcczcczc" />
    <path
       sodipodi:nodetypes="cczcczcczc"
       inkscape:connector-curvature="0"
       id="path3348"
       d="m 116.00005,116.53319 0.61223,275.96032 c 0,0 -1.32303,11.42097 7.6528,16.83618 8.97584,5.41521 19.74425,0.91834 19.74425,0.91834 L 386.60332,270.66078 c 0,0 8.99623,-3.64449 9.18338,-15.15255 0.18737,-11.50805 -9.9487,-16.53008 -9.9487,-16.53008 L 147.37657,103.67648 c 0,0 -10.42306,-6.571651 -20.66257,-2.14278 -10.23955,4.42885 -10.71395,14.99949 -10.71395,14.99949 z"
       style="fill:#f9c440;fill-opacity:1;fill-rule:evenodd;stroke:none;stroke-width:0.65115917px;stroke-linecap:butt;stroke-linejoin:miter;stroke-opacity:1" />
    <path
       id="path4179"
       d="M 123.62187,103.24102 C 116.38012,108.21036 116,116.53256 116,116.53256 l 0.61174,275.96049 c 0,0 -1.32218,11.42081 7.65366,16.83602 8.97584,5.41521 19.74334,0.9195 19.74334,0.91951 L 324.89364,306.1674 Z"
       style="fill:#c6262e;fill-opacity:1;fill-rule:evenodd;stroke:none;stroke-width:0.65115917px;stroke-linecap:butt;stroke-linejoin:miter;stroke-opacity:1"
       inkscape:connector-curvature="0" />
    <path
       id="path4159"
       d="m 134.26171,100.00049 c -2.41709,0.007 -4.98823,0.42657 -7.5481,1.53378 C 116.47406,105.96313 116,116.53256 116,116.53256 l 0.61174,275.96049 c 0,0 -1.17606,10.1981 6.26994,15.8898 l 200.716,-204.7196 -176.22122,-99.98727 c 0,0 -5.86347,-3.695644 -13.11475,-3.67549 z"
       style="fill:#45d03f;fill-opacity:1;fill-rule:evenodd;stroke:none;stroke-width:0.65115917px;stroke-linecap:butt;stroke-linejoin:miter;stroke-opacity:1"
       inkscape:connector-curvature="0" />
    <path
       sodipodi:nodetypes="cccccc"
       id="path3354"
       d="M 123.21108,103.52718 C 116.3627,108.52319 116,116.53256 116,116.53256 l 0.61174,275.96049 c 0,0 -1.03365,8.97843 4.98924,14.78842 L 273.70569,254.55963 Z"
       style="fill:#3689e6;fill-opacity:1;fill-rule:evenodd;stroke:none;stroke-width:0.65115917px;stroke-linecap:butt;stroke-linejoin:miter;stroke-opacity:1"
       inkscape:connector-curvature="0" />
  </g>
</svg>
