<?xml version="1.0" encoding="UTF-8" standalone="no"?>
<!-- Created with Inkscape (http://www.inkscape.org/) -->

<svg
   xmlns:dc="http://purl.org/dc/elements/1.1/"
   xmlns:cc="http://creativecommons.org/ns#"
   xmlns:rdf="http://www.w3.org/1999/02/22-rdf-syntax-ns#"
   xmlns:svg="http://www.w3.org/2000/svg"
   xmlns="http://www.w3.org/2000/svg"
   xmlns:sodipodi="http://sodipodi.sourceforge.net/DTD/sodipodi-0.dtd"
   xmlns:inkscape="http://www.inkscape.org/namespaces/inkscape"
   width="512"
   height="512"
   viewBox="0 0 135.46666 135.46666"
   id="svg4166"
   version="1.1"
   inkscape:version="0.92.3 (2405546, 2018-03-11)"
   sodipodi:docname="polari.svg">
  <defs
     id="defs4168" />
  <sodipodi:namedview
     id="base"
     pagecolor="#ffffff"
     bordercolor="#666666"
     borderopacity="1.0"
     inkscape:pageopacity="0.0"
     inkscape:pageshadow="2"
     inkscape:zoom="0.82031253"
     inkscape:cx="346.95257"
     inkscape:cy="211.28623"
     inkscape:document-units="mm"
     inkscape:current-layer="layer1"
     showgrid="false"
     units="px"
     inkscape:window-width="1366"
     inkscape:window-height="711"
     inkscape:window-x="0"
     inkscape:window-y="28"
     inkscape:window-maximized="1" />
  <metadata
     id="metadata4171">
    <rdf:RDF>
      <cc:Work
         rdf:about="">
        <dc:format>image/svg+xml</dc:format>
        <dc:type
           rdf:resource="http://purl.org/dc/dcmitype/StillImage" />
        <dc:title></dc:title>
      </cc:Work>
    </rdf:RDF>
  </metadata>
  <g
     inkscape:label="Capa 1"
     inkscape:groupmode="layer"
     id="layer1"
     transform="translate(0,-161.53336)">
    <g
       id="g840">
      <path
         style="fill:#c6262e;fill-opacity:1;stroke-width:2.93940377;image-rendering:optimizeSpeed"
         inkscape:connector-curvature="0"
         d="m 114.54163,176.47543 c 27.03855,23.43536 28.00001,66.06638 2.14757,95.22322 -25.852425,29.15684 -68.725629,33.79466 -95.76417,10.3593 -27.0385416,-23.43536 -27.9999994,-66.06638 -2.14757,-95.22322 25.85243,-29.15684 68.725634,-33.79466 95.76417,-10.3593 z"
         id="path27" />
      <path
         style="opacity:1;fill:#000000;fill-opacity:0.49019608;stroke-width:2.93940377;image-rendering:optimizeSpeed"
         inkscape:connector-curvature="0"
         d="m 135.37023,221.03908 c -0.41047,16.22204 -6.65725,32.84924 -18.77652,46.51758 C 90.741274,296.71351 47.868069,301.35132 20.829528,277.91597 8.1563431,266.93162 1.189784,251.73586 0.05128357,235.67723 0.21142307,253.2341 7.1748149,270.1401 20.922901,282.05611 c 27.03854,23.43535 69.913782,18.79524 95.764169,-10.35931 13.15111,-14.83204 19.31592,-33.1499 18.68316,-50.65772 z"
         id="path51" />
      <path
         style="fill:#000000;fill-opacity:0.49019608;stroke-width:0.19861746;image-rendering:optimizeSpeed"
         d="m 109.48733,275.49754 c -0.65544,-0.24847 -4.60969,-1.7071 -8.78722,-3.24138 -9.107335,-3.34487 -8.727283,-3.28848 -12.689304,-1.88256 -5.784826,2.05275 -8.747707,2.56418 -14.870472,2.5668 -4.626639,0.002 -6.263241,-0.1535 -9.533639,-0.9057 -17.340143,-3.98827 -30.008517,-18.03062 -31.677176,-35.11281 -1.592529,-16.30278 7.526518,-32.0798 22.73939,-39.34184 21.861459,-10.43583 48.147721,-0.54077 56.895911,21.41758 4.56733,11.46422 3.38007,24.05258 -3.30259,35.01698 -2.19084,3.59455 -2.21484,2.69323 0.34399,12.92052 1.20301,4.80829 2.16154,8.80352 2.13006,8.87827 -0.0314,0.0748 -0.59352,-0.0674 -1.24895,-0.31586 z M 56.670717,240.46083 c 1.237721,-0.59917 2.443742,-1.80843 3.06279,-3.07101 0.701421,-1.4306 0.706374,-3.94347 0.01058,-5.35749 -0.620054,-1.26004 -1.834108,-2.4741 -3.094154,-3.09416 -0.813197,-0.40015 -1.2865,-0.48613 -2.676168,-0.48613 -1.990315,0 -3.156257,0.46447 -4.474123,1.78232 -3.336906,3.33692 -1.940118,9.08377 2.56666,10.5601 1.213302,0.39746 3.425301,0.23717 4.604432,-0.33363 z m 19.067277,0 c 1.237721,-0.59917 2.443742,-1.80843 3.06279,-3.07101 0.701421,-1.4306 0.706374,-3.94347 0.01058,-5.35749 -0.620057,-1.26004 -1.834108,-2.4741 -3.094154,-3.09416 -0.8132,-0.40015 -1.286502,-0.48613 -2.676171,-0.48613 -1.990314,0 -3.156256,0.46447 -4.47412,1.78232 -3.336909,3.33692 -1.940126,9.08377 2.56666,10.5601 1.2133,0.39746 3.425298,0.23717 4.60443,-0.33363 z m 19.067277,0 c 1.237716,-0.59917 2.443745,-1.80843 3.062785,-3.07101 0.701429,-1.4306 0.706382,-3.94347 0.01058,-5.35749 -0.620053,-1.26004 -1.834115,-2.4741 -3.094164,-3.09416 -0.813189,-0.40015 -1.286491,-0.48613 -2.67616,-0.48613 -1.990315,0 -3.156257,0.46447 -4.47412,1.78232 -3.336909,3.33692 -1.940126,9.08377 2.566657,10.5601 1.213302,0.39746 3.425301,0.23717 4.604432,-0.33363 z"
         id="path4540"
         inkscape:connector-curvature="0" />
      <path
         inkscape:connector-curvature="0"
         id="path4538"
         d="m 104.19567,270.20589 c -0.65544,-0.24847 -4.609695,-1.7071 -8.787233,-3.24138 -9.107334,-3.34487 -8.727282,-3.28848 -12.689303,-1.88256 -5.784826,2.05275 -8.747707,2.56418 -14.870472,2.5668 -4.626639,0.002 -6.263241,-0.1535 -9.533639,-0.9057 -17.340143,-3.98827 -30.008517,-18.03062 -31.677173,-35.11281 -1.592532,-16.30278 7.526515,-32.0798 22.739387,-39.34184 21.861459,-10.43583 48.147729,-0.54077 56.895913,21.41758 4.56733,11.46422 3.38007,24.05258 -3.30259,35.01698 -2.19084,3.59455 -2.21483,2.69323 0.34399,12.92052 1.20302,4.80829 2.16155,8.80352 2.13006,8.87827 -0.0314,0.0748 -0.59351,-0.0674 -1.24894,-0.31586 z M 51.379045,235.16918 c 1.237721,-0.59917 2.443742,-1.80843 3.06279,-3.07101 0.701421,-1.4306 0.706377,-3.94347 0.01058,-5.35749 -0.620054,-1.26004 -1.834108,-2.4741 -3.094154,-3.09416 -0.813197,-0.40015 -1.2865,-0.48613 -2.676168,-0.48613 -1.990315,0 -3.156257,0.46447 -4.474123,1.78232 -3.336906,3.33692 -1.940118,9.08377 2.56666,10.5601 1.213302,0.39746 3.425301,0.23717 4.604432,-0.33363 z m 19.067277,0 c 1.237721,-0.59917 2.443742,-1.80843 3.06279,-3.07101 0.701421,-1.4306 0.706377,-3.94347 0.01058,-5.35749 -0.620057,-1.26004 -1.834108,-2.4741 -3.094154,-3.09416 -0.813197,-0.40015 -1.286502,-0.48613 -2.676168,-0.48613 -1.990317,0 -3.156257,0.46447 -4.474122,1.78232 -3.33691,3.33692 -1.940127,9.08377 2.566659,10.5601 1.2133,0.39746 3.425301,0.23717 4.60443,-0.33363 z m 19.067277,0 c 1.237716,-0.59917 2.443745,-1.80843 3.062785,-3.07101 0.701429,-1.4306 0.706382,-3.94347 0.01058,-5.35749 -0.620054,-1.26004 -1.834113,-2.4741 -3.094162,-3.09416 -0.813189,-0.40015 -1.286494,-0.48613 -2.676163,-0.48613 -1.990315,0 -3.156257,0.46447 -4.47412,1.78232 -3.336909,3.33692 -1.940126,9.08377 2.56666,10.5601 1.213299,0.39746 3.425301,0.23717 4.60443,-0.33363 z"
         style="fill:#ffffff;stroke-width:0.19861746;image-rendering:optimizeSpeed" />
    </g>
  </g>
</svg>
