<?xml version="1.0" encoding="UTF-8" standalone="no"?>
<svg
   xmlns:dc="http://purl.org/dc/elements/1.1/"
   xmlns:cc="http://creativecommons.org/ns#"
   xmlns:rdf="http://www.w3.org/1999/02/22-rdf-syntax-ns#"
   xmlns:svg="http://www.w3.org/2000/svg"
   xmlns="http://www.w3.org/2000/svg"
   xmlns:sodipodi="http://sodipodi.sourceforge.net/DTD/sodipodi-0.dtd"
   xmlns:inkscape="http://www.inkscape.org/namespaces/inkscape"
   width="512"
   height="512"
   id="svg2"
   version="1.1"
   inkscape:version="0.92.3 (2405546, 2018-03-11)"
   sodipodi:docname="postgresql.svg">
  <metadata
     id="metadata19">
    <rdf:RDF>
      <cc:Work
         rdf:about="">
        <dc:format>image/svg+xml</dc:format>
        <dc:type
           rdf:resource="http://purl.org/dc/dcmitype/StillImage" />
        <dc:title></dc:title>
      </cc:Work>
    </rdf:RDF>
  </metadata>
  <sodipodi:namedview
     pagecolor="#ffffff"
     bordercolor="#666666"
     borderopacity="1"
     objecttolerance="10"
     gridtolerance="10"
     guidetolerance="10"
     inkscape:pageopacity="0"
     inkscape:pageshadow="2"
     inkscape:window-width="1366"
     inkscape:window-height="711"
     id="namedview17"
     showgrid="false"
     inkscape:zoom="0.43457604"
     inkscape:cx="150.97186"
     inkscape:cy="111.28054"
     inkscape:window-x="0"
     inkscape:window-y="28"
     inkscape:window-maximized="1"
     inkscape:current-layer="svg2" />
  <defs
     id="defs4">
    <linearGradient
       x1="0"
       y1="0"
       x2="0"
       y2="48"
       id="grad"
       gradientUnits="userSpaceOnUse">
      <stop
         style="stop-color:#06a4ff;stop-opacity:1"
         offset="0"
         id="stop7" />
      <stop
         style="stop-color:#75e3ff;stop-opacity:1"
         offset="1"
         id="stop9" />
    </linearGradient>
  </defs>
  <g
     transform="translate(-7.3296814e-8,-2e-6)"
     id="g851">
    <path
       style="fill:#3689e6;fill-opacity:1;stroke-width:11.10955811"
       inkscape:connector-curvature="0"
       d="M 432.91326,56.473988 C 535.10617,145.04858 538.74004,306.17371 441.03006,416.37278 343.32009,526.57182 181.27966,544.10062 79.086741,455.52603 -23.106205,366.95146 -26.740032,205.82633 70.969941,95.627248 168.67991,-14.571842 330.72036,-32.100602 432.91326,56.473988 Z"
       id="path961" />
    <path
       style="opacity:1;fill:#000000;fill-opacity:0.49019608;stroke-width:11.10955811"
       inkscape:connector-curvature="0"
       d="m 511.63551,224.90354 c -1.5514,61.31164 -25.16124,124.15461 -70.96639,175.81447 C 342.95916,510.91712 180.91871,528.44582 78.725758,439.87131 30.827125,398.35566 4.4968173,340.92286 0.19382556,280.22883 0.79907956,346.58551 27.117406,410.48221 79.07869,455.51913 c 102.19292,88.57449 264.24107,71.03709 361.94332,-39.15333 49.70495,-56.05812 73.00502,-125.29098 70.6135,-191.46226 z"
       id="path965" />
    <path
       style="fill:#000000;fill-opacity:0.49019608;stroke-width:0.63069874"
       d="m 302.10555,430.80257 c -6.45122,-2.1672 -11.55468,-7.81261 -15.59852,-17.25496 -3.02753,-7.0693 -4.02776,-20.16053 -4.50189,-58.92225 l -0.3973,-32.48098 -1.6722,-3.56684 c -3.07962,-6.56886 -9.87692,-11.25458 -16.32637,-11.25458 -1.7664,0 -2.49914,-0.269 -2.49914,-0.91749 0,-1.27398 4.21464,-12.71564 8.82817,-23.96618 5.54618,-13.52489 6.98227,-19.78447 7.38618,-32.19457 0.37016,-11.37322 -0.71594,-22.62461 -3.27882,-33.96688 -2.59461,-11.48275 -6.40764,-16.86416 -14.74981,-20.81674 -4.05954,-1.92344 -4.4175,-1.97816 -12.69179,-1.93994 -7.38583,0.0341 -9.26683,0.26685 -14.19072,1.75586 -3.12196,0.94408 -8.03976,2.83961 -10.92843,4.21227 l -5.25215,2.49576 0.33879,-1.72882 c 0.18634,-0.95084 0.52029,-3.4317 0.74212,-5.513 0.65699,-6.16427 2.71836,-15.29467 5.12614,-22.70515 8.28405,-25.49601 22.44417,-40.50165 43.60129,-46.20477 5.51937,-1.4878 7.22771,-1.64861 17.77419,-1.67303 9.67589,-0.0224 12.88068,0.21636 18.77139,1.39851 19.97067,4.00772 37.14477,13.74256 51.27474,29.06421 8.78423,9.52508 16.57866,21.46674 21.24685,32.55184 l 1.85921,4.4149 -8.57649,0.0476 c -9.36015,0.0519 -14.14199,0.96389 -19.6267,3.7432 -19.30503,9.78261 -17.55035,35.21871 5.30752,76.93868 2.66076,4.85638 6.44887,12.0361 8.41804,15.95495 1.96916,3.91883 5.50759,9.69167 7.86318,12.82852 2.35559,3.13685 4.28288,5.76908 4.28288,5.8494 0,0.0803 -1.42143,0.78846 -3.15871,1.57363 -4.04528,1.82823 -6.75181,4.55724 -8.66564,8.73758 -1.21514,2.65424 -1.70122,5.366 -2.4077,13.43225 -1.9116,21.82612 -7.55885,64.55424 -9.72552,73.58504 -1.6654,6.9415 -4.7166,13.01053 -8.38901,16.68631 -8.35866,8.3663 -29.29983,13.49203 -40.18378,9.83572 z m -70.60029,-85.29758 c -5.6051,-1.06417 -10.44124,-2.81258 -9.70966,-3.51031 0.28961,-0.27621 4.54692,-1.48891 9.46068,-2.69489 14.17762,-3.47959 16.02954,-4.66997 26.19835,-16.83984 1.8839,-2.25463 4.15565,-4.35618 5.04832,-4.67012 3.7649,-1.32404 9.32906,4.30789 9.32906,9.44271 0,3.37043 -6.53646,10.75038 -12.74346,14.38792 -7.25596,4.25228 -17.81451,5.73923 -27.58329,3.88453 z m -53.68156,-5.91426 c -14.96273,-9.55173 -31.65725,-49.48918 -44.37139,-106.14745 -5.7725,-25.72413 -7.28038,-38.96925 -6.05722,-53.20612 2.98012,-34.68672 18.27148,-51.64594 49.83211,-55.26741 12.42738,-1.426 36.39447,1.4321 51.40195,6.12973 1.73442,0.54291 3.51943,1.10237 3.96669,1.24325 0.51489,0.16218 -0.49653,1.80002 -2.75719,4.46487 -8.98898,10.59613 -15.41932,23.85815 -19.79321,40.82178 -3.5662,13.83115 -4.07824,19.72372 -3.89974,44.87804 0.12538,17.66619 -0.0723,24.95979 -0.88908,32.79633 -1.57693,15.13041 -0.51755,22.58491 4.75544,33.46245 2.32793,4.80223 4.16431,7.51577 7.51263,11.10112 l 4.43156,4.74529 -1.92614,1.82819 c -1.05937,1.00552 -6.36952,6.92773 -11.80033,13.16047 -17.70495,20.31939 -19.37166,21.77942 -24.86234,21.77942 -1.93035,0 -3.56819,-0.52882 -5.54374,-1.78996 z m 199.65036,-7.48789 c -1.04066,-0.14249 -2.9564,-0.53662 -4.25722,-0.87585 -2.35423,-0.61395 -2.36506,-0.63194 -2.35127,-3.90366 0.008,-1.84241 0.53511,-4.4348 1.19999,-5.89903 1.02825,-2.2645 1.67699,-2.79613 4.87406,-3.99419 2.73241,-1.02394 3.93304,-1.20748 4.63398,-0.70839 6.11749,4.35581 19.58247,5.74612 34.28439,3.54 3.76695,-0.56525 6.99087,-0.88588 7.16425,-0.71249 0.41624,0.41625 -5.77673,4.35489 -11.06403,7.03656 -7.99604,4.05552 -25.13368,6.79734 -34.48415,5.51705 z m -131.5007,-27.09471 c -5.20394,-0.91399 -12.78948,-4.35929 -16.5885,-7.5344 -2.98131,-2.49169 -7.3621,-7.93139 -9.59147,-11.90988 -4.48196,-7.99844 -5.78582,-17.97301 -4.03975,-30.90424 0.4298,-3.18307 0.79407,-13.38057 0.82934,-23.21656 l 0.0629,-17.54026 3.37543,-2.1286 c 5.16939,-3.2599 14.02274,-6.5409 20.68862,-7.66709 10.01626,-1.69223 17.11831,0.35213 20.3702,5.86367 4.16468,7.05862 7.40461,32.89451 5.77648,46.06301 -0.9499,7.68291 -3.12248,14.96094 -7.77642,26.05064 -2.11328,5.03565 -4.89413,12.27768 -6.17967,16.09341 -2.50824,7.44488 -2.64729,7.58199 -6.92715,6.8303 z m 10.67307,-86.47544 c 0.89406,-0.66377 2.04545,-1.94677 2.55866,-2.8511 0.85264,-1.50248 0.82104,-1.79627 -0.36667,-3.40756 -2.64595,-3.58963 -11.84473,-5.16499 -15.86088,-2.7163 -2.85073,1.73813 -2.71213,3.73142 0.50189,7.21822 3.83403,4.15943 9.00204,4.84895 13.167,1.75674 z m 123.99228,79.34785 c -0.21524,-0.34827 0.62135,-2.76728 1.8591,-5.37559 5.13041,-10.8113 6.20087,-21.16956 4.18805,-40.52522 -1.69224,-16.27295 -1.66276,-20.5105 0.24457,-35.16205 2.12739,-16.34197 2.07935,-21.03114 -0.28782,-28.09668 -8.65025,-25.81931 -32.47058,-53.33366 -55.69216,-64.32883 -4.46518,-2.11422 -4.25637,-2.21895 7.05883,-3.54054 26.04492,-3.04198 49.49182,2.11055 67.01383,14.7265 6.76195,4.86864 15.96527,14.47762 17.86979,18.65744 10.05073,22.0582 -7.14924,86.66969 -36.17507,135.89125 -4.64498,7.87687 -5.40438,8.84547 -6.07912,7.75372 z m -11.37999,-18.696 c -15.73541,-29.83997 -20.5311,-40.89448 -22.73261,-52.40078 -1.78818,-9.34599 -0.68602,-15.54333 3.51063,-19.74 4.03732,-4.03731 10.62824,-5.48365 23.49545,-5.15593 l 4.25721,0.10844 v 2.75319 c 0,1.51427 -0.59028,6.97769 -1.31173,12.14096 -1.59434,11.41023 -1.68445,21.54055 -0.29951,33.66965 1.47567,12.92366 1.39707,23.62995 -0.21891,29.81874 -2.06115,7.8937 -1.89233,7.9238 -6.70053,-1.19427 z m -3.50069,-64.54006 c 2.37365,-1.69018 4.03705,-4.7025 3.51135,-6.35885 -1.23758,-3.89926 -14.89208,-2.54331 -16.49667,1.63819 -0.62202,1.62098 0.84708,3.91698 3.38866,5.29599 2.97987,1.61682 6.84335,1.3852 9.59666,-0.57533 z"
       id="path845"
       inkscape:connector-curvature="0" />
    <path
       inkscape:connector-curvature="0"
       id="path4758"
       d="m 282.10555,410.80257 c -6.45122,-2.1672 -11.55468,-7.81261 -15.59852,-17.25496 -3.02753,-7.0693 -4.02776,-20.16053 -4.50189,-58.92225 l -0.3973,-32.48098 -1.6722,-3.56684 c -3.07962,-6.56886 -9.87692,-11.25458 -16.32637,-11.25458 -1.7664,0 -2.49914,-0.269 -2.49914,-0.91749 0,-1.27398 4.21464,-12.71564 8.82817,-23.96618 5.54618,-13.52489 6.98227,-19.78447 7.38618,-32.19457 0.37016,-11.37322 -0.71594,-22.62461 -3.27882,-33.96688 -2.59461,-11.48275 -6.40764,-16.86416 -14.74981,-20.81674 -4.05954,-1.92344 -4.4175,-1.97816 -12.69179,-1.93994 -7.38583,0.0341 -9.26683,0.26685 -14.19072,1.75586 -3.12196,0.94408 -8.03976,2.83961 -10.92843,4.21227 l -5.25215,2.49576 0.33879,-1.72882 c 0.18634,-0.95084 0.52029,-3.4317 0.74212,-5.513 0.65699,-6.16427 2.71836,-15.29467 5.12614,-22.70515 8.28405,-25.49601 22.44417,-40.50165 43.60129,-46.20477 5.51937,-1.4878 7.22771,-1.64861 17.77419,-1.67303 9.67589,-0.0224 12.88068,0.21636 18.77139,1.39851 19.97067,4.00772 37.14477,13.74256 51.27474,29.06421 8.78423,9.52508 16.57866,21.46674 21.24685,32.55184 l 1.85921,4.4149 -8.57649,0.0476 c -9.36015,0.0519 -14.14199,0.96389 -19.6267,3.7432 -19.30503,9.78261 -17.55035,35.21871 5.30752,76.93868 2.66076,4.85638 6.44887,12.0361 8.41804,15.95495 1.96916,3.91883 5.50759,9.69167 7.86318,12.82852 2.35559,3.13685 4.28288,5.76908 4.28288,5.8494 0,0.0803 -1.42143,0.78846 -3.15871,1.57363 -4.04528,1.82823 -6.75181,4.55724 -8.66564,8.73758 -1.21514,2.65424 -1.70122,5.366 -2.4077,13.43225 -1.9116,21.82612 -7.55885,64.55424 -9.72552,73.58504 -1.6654,6.9415 -4.7166,13.01053 -8.38901,16.68631 -8.35866,8.3663 -29.29983,13.49203 -40.18378,9.83572 z m -70.60029,-85.29758 c -5.6051,-1.06417 -10.44124,-2.81258 -9.70966,-3.51031 0.28961,-0.27621 4.54692,-1.48891 9.46068,-2.69489 14.17762,-3.47959 16.02954,-4.66997 26.19835,-16.83984 1.8839,-2.25463 4.15565,-4.35618 5.04832,-4.67012 3.7649,-1.32404 9.32906,4.30789 9.32906,9.44271 0,3.37043 -6.53646,10.75038 -12.74346,14.38792 -7.25596,4.25228 -17.81451,5.73923 -27.58329,3.88453 z m -53.68156,-5.91426 c -14.96273,-9.55173 -31.65725,-49.48918 -44.37139,-106.14745 -5.7725,-25.72413 -7.28038,-38.96925 -6.05722,-53.20612 2.98012,-34.68672 18.27148,-51.64594 49.83211,-55.26741 12.42738,-1.426 36.39447,1.4321 51.40195,6.12973 1.73442,0.54291 3.51943,1.10237 3.96669,1.24325 0.51489,0.16218 -0.49653,1.80002 -2.75719,4.46487 -8.98898,10.59613 -15.41932,23.85815 -19.79321,40.82178 -3.5662,13.83115 -4.07824,19.72372 -3.89974,44.87804 0.12538,17.66619 -0.0723,24.95979 -0.88908,32.79633 -1.57693,15.13041 -0.51755,22.58491 4.75544,33.46245 2.32793,4.80223 4.16431,7.51577 7.51263,11.10112 l 4.43156,4.74529 -1.92614,1.82819 c -1.05937,1.00552 -6.36952,6.92773 -11.80033,13.16047 -17.70495,20.31939 -19.37166,21.77942 -24.86234,21.77942 -1.93035,0 -3.56819,-0.52882 -5.54374,-1.78996 z m 199.65036,-7.48789 c -1.04066,-0.14249 -2.9564,-0.53662 -4.25722,-0.87585 -2.35423,-0.61395 -2.36506,-0.63194 -2.35127,-3.90366 0.008,-1.84241 0.53511,-4.4348 1.19999,-5.89903 1.02825,-2.2645 1.67699,-2.79613 4.87406,-3.99419 2.73241,-1.02394 3.93304,-1.20748 4.63398,-0.70839 6.11749,4.35581 19.58247,5.74612 34.28439,3.54 3.76695,-0.56525 6.99087,-0.88588 7.16425,-0.71249 0.41624,0.41625 -5.77673,4.35489 -11.06403,7.03656 -7.99604,4.05552 -25.13368,6.79734 -34.48415,5.51705 z m -131.5007,-27.09471 c -5.20394,-0.91399 -12.78948,-4.35929 -16.5885,-7.5344 -2.98131,-2.49169 -7.3621,-7.93139 -9.59147,-11.90988 -4.48196,-7.99844 -5.78582,-17.97301 -4.03975,-30.90424 0.4298,-3.18307 0.79407,-13.38057 0.82934,-23.21656 l 0.0629,-17.54026 3.37543,-2.1286 c 5.16939,-3.2599 14.02274,-6.5409 20.68862,-7.66709 10.01626,-1.69223 17.11831,0.35213 20.3702,5.86367 4.16468,7.05862 7.40461,32.89451 5.77648,46.06301 -0.9499,7.68291 -3.12248,14.96094 -7.77642,26.05064 -2.11328,5.03565 -4.89413,12.27768 -6.17967,16.09341 -2.50824,7.44488 -2.64729,7.58199 -6.92715,6.8303 z m 10.67307,-86.47544 c 0.89406,-0.66377 2.04545,-1.94677 2.55866,-2.8511 0.85264,-1.50248 0.82104,-1.79627 -0.36667,-3.40756 -2.64595,-3.58963 -11.84473,-5.16499 -15.86088,-2.7163 -2.85073,1.73813 -2.71213,3.73142 0.50189,7.21822 3.83403,4.15943 9.00204,4.84895 13.167,1.75674 z m 123.99228,79.34785 c -0.21524,-0.34827 0.62135,-2.76728 1.8591,-5.37559 5.13041,-10.8113 6.20087,-21.16956 4.18805,-40.52522 -1.69224,-16.27295 -1.66276,-20.5105 0.24457,-35.16205 2.12739,-16.34197 2.07935,-21.03114 -0.28782,-28.09668 -8.65025,-25.81931 -32.47058,-53.33366 -55.69216,-64.32883 -4.46518,-2.11422 -4.25637,-2.21895 7.05883,-3.54054 26.04492,-3.04198 49.49182,2.11055 67.01383,14.7265 6.76195,4.86864 15.96527,14.47762 17.86979,18.65744 10.05073,22.0582 -7.14924,86.66969 -36.17507,135.89125 -4.64498,7.87687 -5.40438,8.84547 -6.07912,7.75372 z m -11.37999,-18.696 c -15.73541,-29.83997 -20.5311,-40.89448 -22.73261,-52.40078 -1.78818,-9.34599 -0.68602,-15.54333 3.51063,-19.74 4.03732,-4.03731 10.62824,-5.48365 23.49545,-5.15593 l 4.25721,0.10844 v 2.75319 c 0,1.51427 -0.59028,6.97769 -1.31173,12.14096 -1.59434,11.41023 -1.68445,21.54055 -0.29951,33.66965 1.47567,12.92366 1.39707,23.62995 -0.21891,29.81874 -2.06115,7.8937 -1.89233,7.9238 -6.70053,-1.19427 z m -3.50069,-64.54006 c 2.37365,-1.69018 4.03705,-4.7025 3.51135,-6.35885 -1.23758,-3.89926 -14.89208,-2.54331 -16.49667,1.63819 -0.62202,1.62098 0.84708,3.91698 3.38866,5.29599 2.97987,1.61682 6.84335,1.3852 9.59666,-0.57533 z"
       style="fill:#ffffff;fill-opacity:1;stroke-width:0.63069874" />
  </g>
</svg>
