<?xml version="1.0" encoding="UTF-8" standalone="no"?>
<!-- Created with Inkscape (http://www.inkscape.org/) -->

<svg
   xmlns:dc="http://purl.org/dc/elements/1.1/"
   xmlns:cc="http://creativecommons.org/ns#"
   xmlns:rdf="http://www.w3.org/1999/02/22-rdf-syntax-ns#"
   xmlns:svg="http://www.w3.org/2000/svg"
   xmlns="http://www.w3.org/2000/svg"
   xmlns:sodipodi="http://sodipodi.sourceforge.net/DTD/sodipodi-0.dtd"
   xmlns:inkscape="http://www.inkscape.org/namespaces/inkscape"
   width="512"
   height="512"
   id="svg5453"
   version="1.1"
   inkscape:version="0.92.3 (2405546, 2018-03-11)"
   sodipodi:docname="preferences-desktop-text-to-speech.svg">
  <defs
     id="defs5455" />
  <sodipodi:namedview
     id="base"
     pagecolor="#ffffff"
     bordercolor="#666666"
     borderopacity="1.0"
     inkscape:pageopacity="0"
     inkscape:pageshadow="2"
     inkscape:zoom="0.49999998"
     inkscape:cx="319.88633"
     inkscape:cy="105.33051"
     inkscape:document-units="px"
     inkscape:current-layer="layer1"
     showgrid="true"
     fit-margin-top="0"
     fit-margin-left="0"
     fit-margin-right="0"
     fit-margin-bottom="0"
     inkscape:window-width="1366"
     inkscape:window-height="711"
     inkscape:window-x="0"
     inkscape:window-y="28"
     inkscape:window-maximized="1"
     inkscape:showpageshadow="false"
     borderlayer="true"
     showguides="true"
     inkscape:snap-bbox="true"
     inkscape:guide-bbox="true">
    <inkscape:grid
       type="xygrid"
       id="grid4063"
       enabled="false" />
  </sodipodi:namedview>
  <metadata
     id="metadata5458">
    <rdf:RDF>
      <cc:Work
         rdf:about="">
        <dc:format>image/svg+xml</dc:format>
        <dc:type
           rdf:resource="http://purl.org/dc/dcmitype/StillImage" />
        <dc:title></dc:title>
      </cc:Work>
    </rdf:RDF>
  </metadata>
  <g
     inkscape:label="Capa 1"
     inkscape:groupmode="layer"
     id="layer1"
     transform="translate(-384.57143,-35.798)">
    <g
       id="g864">
      <path
         id="path864"
         d="M 817.48472,92.271971 C 919.67763,180.84656 923.31145,341.97168 825.60152,452.17076 727.89155,562.36984 565.85107,579.89861 463.65816,491.32402 361.46525,402.74943 357.83138,241.62431 455.54136,131.42523 553.25133,21.22615 715.29177,3.697381 817.48472,92.271971 Z"
         inkscape:connector-curvature="0"
         style="fill:#8a715e;fill-opacity:1;stroke-width:11.10955811" />
      <path
         id="path868"
         d="m 896.20695,260.70152 c -1.55142,61.31164 -25.16126,124.15461 -70.96641,175.81447 -97.70998,110.19912 -259.75042,127.72785 -361.94333,39.1533 -47.89867,-41.51565 -74.22897,-98.94845 -78.53197,-159.64248 0.60526,66.35667 26.92358,130.25337 78.88487,175.29026 102.19291,88.57455 264.24106,71.03712 361.94336,-39.1533 49.70491,-56.05811 73.00501,-125.29096 70.61348,-191.46225 z"
         inkscape:connector-curvature="0"
         style="opacity:1;fill:#000000;fill-opacity:0.49019608;stroke-width:11.10955811" />
      <g
         style="fill:#000000;fill-opacity:0.49019608"
         id="g854"
         transform="matrix(1.0011286,0,0,1.0011286,19.453111,26.503618)">
        <path
           sodipodi:nodetypes="cccccccsccccscsssccccscccscccccccccccccccccccccscccccccccc"
           inkscape:connector-curvature="0"
           id="path850"
           d="m 497.89288,382.11261 c -9.26347,-11.8003 -13.00209,-20.58779 -13.30679,-31.27735 -0.54966,-19.28534 14.39149,-39.98058 39.35137,-54.50623 4.46552,-2.59876 6.3168,-3.44257 5.35601,-2.44136 -0.89944,0.9374 -5.49533,9.67056 -7.5676,14.3803 -13.61736,30.94867 -11.70924,63.65716 5.46225,93.63273 l 2.59936,4.53758 -3.29693,-1.74243 c -4.16243,-2.19985 -9.07895,-5.33355 -13.4407,-8.56679 -3.35132,-2.48425 -13.39549,-11.77262 -15.15697,-14.01645 z m 48.50621,32.13221 c -18.26316,-22.68189 -26.87521,-48.92388 -24.20807,-73.76497 1.46483,-13.64327 7.02411,-29.38921 14.93157,-42.29184 8.17367,-13.33702 19.96558,-25.88167 30.92833,-32.90272 13.61287,-8.71824 21.28747,-7.50611 29.35704,4.63675 16.88107,25.40221 22.14917,87.80106 11.15922,132.17787 -2.59225,10.4674 -5.45433,18.08419 -9.41321,25.0512 -2.79016,4.91025 -7.63575,9.99604 -11.05335,11.6013 -5.48255,2.57523 -12.91278,0.41231 -23.00442,-6.6964 -3.90717,-2.75226 -15.34536,-13.64848 -18.69711,-17.81119 z m 33.98326,5.72543 c 3.70782,1.38086 6.92672,0.15775 10.52365,-3.99863 8.56136,-9.89297 14.1922,-35.00651 14.36865,-64.08429 0.15729,-25.89789 -3.64895,-48.33173 -10.52898,-62.05916 -4.42582,-8.83068 -9.53723,-12.4168 -14.78469,-10.37277 -2.87466,1.11979 -6.64893,5.43025 -9.08474,10.37539 -10.41023,21.13462 -13.42365,64.40327 -6.79013,97.49715 1.68346,8.39864 5.16059,19.01332 7.78279,23.75874 2.26701,4.10252 5.92502,7.91962 8.51345,8.88357 z m -12.42485,-49.5761 c -1.34722,-9.27455 -1.74446,-22.22856 -0.99172,-32.33908 0.49217,-6.61013 1.28645,-12.45978 1.75588,-12.93136 0.60391,-0.60669 4.70275,-0.71917 7.08216,-0.19441 3.15625,0.6961 6.02198,2.3444 8.6853,4.99553 2.86332,2.85024 4.5472,5.67885 6.16264,10.35234 1.06417,3.07863 1.28695,4.69999 1.28594,9.35771 -0.002,9.15878 -2.34627,15.03685 -8.16378,20.47049 -2.72026,2.54066 -3.39169,2.97457 -5.97536,3.86092 -2.83406,0.97221 -8.12393,1.17674 -8.95813,0.34637 -0.20179,-0.20087 -0.599,-1.96418 -0.88293,-3.91857 z m 55.04217,19.67871 c -0.67857,-1.79654 -0.22071,-4.16011 1.05362,-5.44039 1.15324,-1.15855 3.48708,-1.82209 5.07214,-1.44205 1.49804,0.35914 2.05765,0.8618 12.19408,10.95187 10.13644,10.09003 10.64168,10.64735 11.00768,12.14374 0.3967,1.6217 -0.27079,3.92544 -1.49317,5.15345 -1.01684,1.02152 -3.79859,1.45584 -5.57912,0.87118 -1.37787,-0.45244 -2.60229,-1.56378 -11.56876,-10.49993 -9.12122,-9.09143 -10.08745,-10.15127 -10.68647,-11.73787 z m 14.84057,-38.0255 c -1.35562,-1.994 -0.23093,-5.88798 2.11525,-7.32354 1.3854,-0.84767 30.89481,-0.92446 32.28357,-0.0842 2.54698,1.54136 3.50295,5.21044 1.98052,7.60122 -1.56751,2.46156 -2.32053,2.57613 -17.51598,2.66529 -7.98233,0.0468 -15.14433,-0.13792 -15.91553,-0.41055 -1.38886,-0.49092 -1.91298,-0.92629 -2.94783,-2.44846 z"
           style="fill:#000000;stroke-width:0.41652542;fill-opacity:0.49019608" />
        <path
           inkscape:connector-curvature="0"
           id="path852"
           d="m 629.01944,305.88219 c 1.40975,-0.53441 9.9147,-3.67169 18.89989,-6.97167 19.58839,-7.19427 18.77096,-7.07298 27.29262,-4.04908 12.44221,4.41513 18.81488,5.51513 31.98395,5.52077 9.95114,0.004 13.4712,-0.33016 20.50529,-1.94802 37.2958,-8.57811 64.5434,-38.7809 68.13241,-75.5219 3.42527,-35.06461 -16.1883,-68.99839 -48.90869,-84.61785 -47.02043,-22.44576 -103.55788,-1.16311 -122.37379,46.06571 -9.82357,24.65765 -7.26999,51.73315 7.10333,75.31578 4.71214,7.73129 4.76374,5.7927 -0.73986,27.78992 -2.5875,10.34185 -4.64914,18.93493 -4.58141,19.09571 0.0675,0.16088 1.27654,-0.14497 2.68626,-0.67937 z m 113.5999,-75.35822 c -2.66213,-1.28871 -5.25608,-3.88964 -6.58756,-6.60523 -1.50864,-3.07699 -1.5193,-8.48177 -0.0227,-11.52309 1.33364,-2.71013 3.94488,-5.32138 6.65502,-6.65503 1.74906,-0.86066 2.76705,-1.04558 5.756,-1.04558 4.28085,0 6.7886,0.99899 9.62311,3.83347 7.17714,7.17717 4.17287,19.5377 -5.52046,22.71305 -2.60962,0.85487 -7.36727,0.5101 -9.90339,-0.71759 z m -41.01059,0 c -2.66213,-1.28871 -5.25609,-3.88964 -6.58756,-6.60523 -1.50864,-3.07699 -1.51929,-8.48177 -0.0227,-11.52309 1.33364,-2.71013 3.94486,-5.32138 6.65502,-6.65503 1.74905,-0.86066 2.76705,-1.04558 5.75599,-1.04558 4.28085,0 6.78859,0.99899 9.62311,3.83347 7.17715,7.17717 4.17289,19.5377 -5.52046,22.71305 -2.60962,0.85487 -7.36727,0.5101 -9.90338,-0.71759 z m -41.01059,0 c -2.66212,-1.28871 -5.25609,-3.88964 -6.58755,-6.60523 -1.50865,-3.07699 -1.51931,-8.48177 -0.0227,-11.52309 1.33363,-2.71013 3.94487,-5.32138 6.65503,-6.65503 1.74904,-0.86066 2.76703,-1.04558 5.75598,-1.04558 4.28085,0 6.7886,0.99899 9.62311,3.83347 7.17714,7.17717 4.17289,19.5377 -5.52047,22.71305 -2.60961,0.85487 -7.36726,0.5101 -9.90337,-0.71759 z"
           style="fill:#000000;stroke-width:0.42719358;image-rendering:optimizeSpeed;fill-opacity:0.49019608" />
      </g>
      <g
         transform="matrix(1.0011286,0,0,1.0011286,-0.54688894,6.5036177)"
         id="g848">
        <path
           style="fill:#ffffff;stroke-width:0.41652542"
           d="m 497.89288,382.11261 c -9.26347,-11.8003 -13.00209,-20.58779 -13.30679,-31.27735 -0.54966,-19.28534 14.39149,-39.98058 39.35137,-54.50623 4.46552,-2.59876 6.3168,-3.44257 5.35601,-2.44136 -0.89944,0.9374 -5.49533,9.67056 -7.5676,14.3803 -13.61736,30.94867 -11.70924,63.65716 5.46225,93.63273 l 2.59936,4.53758 -3.29693,-1.74243 c -4.16243,-2.19985 -9.07895,-5.33355 -13.4407,-8.56679 -3.35132,-2.48425 -13.39549,-11.77262 -15.15697,-14.01645 z m 48.50621,32.13221 c -18.26316,-22.68189 -26.87521,-48.92388 -24.20807,-73.76497 1.46483,-13.64327 7.02411,-29.38921 14.93157,-42.29184 8.17367,-13.33702 19.96558,-25.88167 30.92833,-32.90272 13.61287,-8.71824 21.28747,-7.50611 29.35704,4.63675 16.88107,25.40221 22.14917,87.80106 11.15922,132.17787 -2.59225,10.4674 -5.45433,18.08419 -9.41321,25.0512 -2.79016,4.91025 -7.63575,9.99604 -11.05335,11.6013 -5.48255,2.57523 -12.91278,0.41231 -23.00442,-6.6964 -3.90717,-2.75226 -15.34536,-13.64848 -18.69711,-17.81119 z m 33.98326,5.72543 c 3.70782,1.38086 6.92672,0.15775 10.52365,-3.99863 8.56136,-9.89297 14.1922,-35.00651 14.36865,-64.08429 0.15729,-25.89789 -3.64895,-48.33173 -10.52898,-62.05916 -4.42582,-8.83068 -9.53723,-12.4168 -14.78469,-10.37277 -2.87466,1.11979 -6.64893,5.43025 -9.08474,10.37539 -10.41023,21.13462 -13.42365,64.40327 -6.79013,97.49715 1.68346,8.39864 5.16059,19.01332 7.78279,23.75874 2.26701,4.10252 5.92502,7.91962 8.51345,8.88357 z m -12.42485,-49.5761 c -1.34722,-9.27455 -1.74446,-22.22856 -0.99172,-32.33908 0.49217,-6.61013 1.28645,-12.45978 1.75588,-12.93136 0.60391,-0.60669 4.70275,-0.71917 7.08216,-0.19441 3.15625,0.6961 6.02198,2.3444 8.6853,4.99553 2.86332,2.85024 4.5472,5.67885 6.16264,10.35234 1.06417,3.07863 1.28695,4.69999 1.28594,9.35771 -0.002,9.15878 -2.34627,15.03685 -8.16378,20.47049 -2.72026,2.54066 -3.39169,2.97457 -5.97536,3.86092 -2.83406,0.97221 -8.12393,1.17674 -8.95813,0.34637 -0.20179,-0.20087 -0.599,-1.96418 -0.88293,-3.91857 z m 55.04217,19.67871 c -0.67857,-1.79654 -0.22071,-4.16011 1.05362,-5.44039 1.15324,-1.15855 3.48708,-1.82209 5.07214,-1.44205 1.49804,0.35914 2.05765,0.8618 12.19408,10.95187 10.13644,10.09003 10.64168,10.64735 11.00768,12.14374 0.3967,1.6217 -0.27079,3.92544 -1.49317,5.15345 -1.01684,1.02152 -3.79859,1.45584 -5.57912,0.87118 -1.37787,-0.45244 -2.60229,-1.56378 -11.56876,-10.49993 -9.12122,-9.09143 -10.08745,-10.15127 -10.68647,-11.73787 z m 14.84057,-38.0255 c -1.35562,-1.994 -0.23093,-5.88798 2.11525,-7.32354 1.3854,-0.84767 30.89481,-0.92446 32.28357,-0.0842 2.54698,1.54136 3.50295,5.21044 1.98052,7.60122 -1.56751,2.46156 -2.32053,2.57613 -17.51598,2.66529 -7.98233,0.0468 -15.14433,-0.13792 -15.91553,-0.41055 -1.38886,-0.49092 -1.91298,-0.92629 -2.94783,-2.44846 z"
           id="path1035"
           inkscape:connector-curvature="0"
           sodipodi:nodetypes="cccccccsccccscsssccccscccscccccccccccccccccccccscccccccccc" />
        <path
           style="fill:#ffffff;stroke-width:0.42719358;image-rendering:optimizeSpeed"
           d="m 629.01944,305.88219 c 1.40975,-0.53441 9.9147,-3.67169 18.89989,-6.97167 19.58839,-7.19427 18.77096,-7.07298 27.29262,-4.04908 12.44221,4.41513 18.81488,5.51513 31.98395,5.52077 9.95114,0.004 13.4712,-0.33016 20.50529,-1.94802 37.2958,-8.57811 64.5434,-38.7809 68.13241,-75.5219 3.42527,-35.06461 -16.1883,-68.99839 -48.90869,-84.61785 -47.02043,-22.44576 -103.55788,-1.16311 -122.37379,46.06571 -9.82357,24.65765 -7.26999,51.73315 7.10333,75.31578 4.71214,7.73129 4.76374,5.7927 -0.73986,27.78992 -2.5875,10.34185 -4.64914,18.93493 -4.58141,19.09571 0.0675,0.16088 1.27654,-0.14497 2.68626,-0.67937 z m 113.5999,-75.35822 c -2.66213,-1.28871 -5.25608,-3.88964 -6.58756,-6.60523 -1.50864,-3.07699 -1.5193,-8.48177 -0.0227,-11.52309 1.33364,-2.71013 3.94488,-5.32138 6.65502,-6.65503 1.74906,-0.86066 2.76705,-1.04558 5.756,-1.04558 4.28085,0 6.7886,0.99899 9.62311,3.83347 7.17714,7.17717 4.17287,19.5377 -5.52046,22.71305 -2.60962,0.85487 -7.36727,0.5101 -9.90339,-0.71759 z m -41.01059,0 c -2.66213,-1.28871 -5.25609,-3.88964 -6.58756,-6.60523 -1.50864,-3.07699 -1.51929,-8.48177 -0.0227,-11.52309 1.33364,-2.71013 3.94486,-5.32138 6.65502,-6.65503 1.74905,-0.86066 2.76705,-1.04558 5.75599,-1.04558 4.28085,0 6.78859,0.99899 9.62311,3.83347 7.17715,7.17717 4.17289,19.5377 -5.52046,22.71305 -2.60962,0.85487 -7.36727,0.5101 -9.90338,-0.71759 z m -41.01059,0 c -2.66212,-1.28871 -5.25609,-3.88964 -6.58755,-6.60523 -1.50865,-3.07699 -1.51931,-8.48177 -0.0227,-11.52309 1.33363,-2.71013 3.94487,-5.32138 6.65503,-6.65503 1.74904,-0.86066 2.76703,-1.04558 5.75598,-1.04558 4.28085,0 6.7886,0.99899 9.62311,3.83347 7.17714,7.17717 4.17289,19.5377 -5.52047,22.71305 -2.60961,0.85487 -7.36726,0.5101 -9.90337,-0.71759 z"
           id="path4538"
           inkscape:connector-curvature="0" />
      </g>
    </g>
  </g>
</svg>
