<?xml version="1.0" encoding="UTF-8" standalone="no"?>
<!-- Generator: Adobe Illustrator 19.0.0, SVG Export Plug-In . SVG Version: 6.00 Build 0)  -->

<svg
   xmlns:dc="http://purl.org/dc/elements/1.1/"
   xmlns:cc="http://creativecommons.org/ns#"
   xmlns:rdf="http://www.w3.org/1999/02/22-rdf-syntax-ns#"
   xmlns:svg="http://www.w3.org/2000/svg"
   xmlns="http://www.w3.org/2000/svg"
   xmlns:sodipodi="http://sodipodi.sourceforge.net/DTD/sodipodi-0.dtd"
   xmlns:inkscape="http://www.inkscape.org/namespaces/inkscape"
   version="1.1"
   id="Layer_1"
   x="0px"
   y="0px"
   viewBox="0 0 512 512"
   xml:space="preserve"
   inkscape:version="0.92.3 (2405546, 2018-03-11)"
   width="512"
   height="512"
   sodipodi:docname="preferences-desktop-remote-desktop.svg"><metadata
     id="metadata57"><rdf:RDF><cc:Work
         rdf:about=""><dc:format>image/svg+xml</dc:format><dc:type
           rdf:resource="http://purl.org/dc/dcmitype/StillImage" /><dc:title></dc:title></cc:Work></rdf:RDF></metadata><defs
     id="defs55" /><sodipodi:namedview
     pagecolor="#ffffff"
     bordercolor="#666666"
     borderopacity="1"
     objecttolerance="10"
     gridtolerance="10"
     guidetolerance="10"
     inkscape:pageopacity="0"
     inkscape:pageshadow="2"
     inkscape:window-width="1366"
     inkscape:window-height="711"
     id="namedview53"
     showgrid="false"
     inkscape:zoom="0.37165185"
     inkscape:cx="-335.75227"
     inkscape:cy="224.19641"
     inkscape:window-x="0"
     inkscape:window-y="28"
     inkscape:window-maximized="1"
     inkscape:current-layer="Layer_1"
     units="px" /><g
     id="g23"
     transform="translate(0,550.767)" /><g
     id="g25"
     transform="translate(0,550.767)" /><g
     id="g27"
     transform="translate(0,550.767)" /><g
     id="g29"
     transform="translate(0,550.767)" /><g
     id="g31"
     transform="translate(0,550.767)" /><g
     id="g33"
     transform="translate(0,550.767)" /><g
     id="g35"
     transform="translate(0,550.767)" /><g
     id="g37"
     transform="translate(0,550.767)" /><g
     id="g39"
     transform="translate(0,550.767)" /><g
     id="g41"
     transform="translate(0,550.767)" /><g
     id="g43"
     transform="translate(0,550.767)" /><g
     id="g45"
     transform="translate(0,550.767)" /><g
     id="g47"
     transform="translate(0,550.767)" /><g
     id="g49"
     transform="translate(0,550.767)" /><g
     id="g51"
     transform="translate(0,550.767)" /><g
     id="g923"><path
       id="path27"
       d="M 432.91327,56.473967 C 535.10618,145.04856 538.74005,306.17367 441.03007,416.37276 343.3201,526.57184 181.27964,544.10061 79.086729,455.52602 -23.106186,366.95143 -26.740042,205.82631 70.969928,95.627227 168.6799,-14.571854 330.72036,-32.100623 432.91327,56.473967 Z"
       inkscape:connector-curvature="0"
       style="fill:#3689e6;fill-opacity:1;stroke-width:11.10955811" /><path
       id="path51"
       d="M 511.63551,224.90351 C 510.08412,286.21516 486.47428,349.05812 440.66913,400.71799 342.95915,510.91711 180.91869,528.44584 78.725776,439.87129 30.827124,398.35563 4.4968216,340.92284 0.19382768,280.2288 0.79907934,346.58548 27.117411,410.48217 79.078682,455.51906 181.27159,544.09361 343.31975,526.55619 441.02202,416.36576 490.72697,360.30766 514.02704,291.0748 511.63551,224.90351 Z"
       inkscape:connector-curvature="0"
       style="opacity:1;fill:#000000;fill-opacity:0.49019608;stroke-width:11.10955811" /><g
       style="fill:#000000;fill-opacity:0.49019608"
       transform="translate(20,20)"
       id="g108"><path
         sodipodi:nodetypes="cccccccccccccccscccsccsccsscccccccccccccccccccccccccccccccccccccccccccccccccccccccscc"
         inkscape:connector-curvature="0"
         id="path104"
         d="m 119.7793,120.42578 -4.28907,2.02344 c -5.96161,2.82298 -10.20695,6.99007 -13.11328,12.87109 L 100,140.13086 v 85.21094 85.20898 l 2.03125,4.29102 c 2.82389,5.96247 6.99109,10.20651 12.87109,13.11328 l 4.8086,2.37695 50.27929,0.23242 50.2793,0.23243 -0.004,1.74609 c -0.007,3.03709 -4.7917,15.85911 -7.96289,21.33984 -4.7719,8.24785 -10.8301,15.64601 -17.40625,21.26172 l -4.08007,3.48242 h -8.91211 c -10.23051,0 -12.19774,0.60699 -13.7168,4.24219 -1.16522,2.7904 -0.31118,5.96077 2.12695,7.86914 l 0.002,-0.0195 C 171.93678,391.98715 172.69995,392 256,392 c 83.30002,0 84.06311,-10e-4 85.68359,-1.28125 2.43805,-1.91767 3.29417,-5.07679 2.12891,-7.86719 -1.52011,-3.63753 -3.48431,-4.24414 -13.74805,-4.24414 h -8.94336 l -4.75195,-4.14453 c -7.7311,-6.74212 -15.1513,-16.56784 -19.24805,-25.48828 -2.42834,-5.28757 -5.39062,-14.43167 -5.39062,-16.64258 v -1.53515 l 50.2793,-0.23243 50.27929,-0.23242 4.8086,-2.37695 c 5.88,-2.90677 10.0472,-7.15081 12.87109,-13.11328 L 412,310.55078 V 225.3418 140.13086 l -2.37695,-4.81055 c -2.90635,-5.88102 -7.15167,-10.04811 -13.11328,-12.87109 l -4.28907,-2.02344 H 256 Z m 2.45703,13.50391 H 256 389.76172 l 2.66016,1.76953 c 1.46278,0.96814 3.45201,2.95374 4.41992,4.41992 l 1.75976,2.66016 0.16992,66.88086 0.1504,59.48046 h 0.0195 v 7.4004 13.39843 h 0.0976 l -0.0976,4.08008 v 2.64649 h -0.0625 l -0.0586,2.4121 c -0.20945,8.73427 -0.29902,9.25978 -1.98047,11.79883 -0.96803,1.46153 -2.95723,3.44051 -4.41992,4.41797 v 0.0996 l -2.66015,1.76953 H 257.00195 c -83.4813,0.0698 -133.54719,-0.11608 -134.88086,-0.51172 -2.90918,-0.84247 -7.51271,-5.59526 -8.35351,-8.62304 -0.37527,-1.35214 -0.6855,-5.97459 -0.6875,-10.27539 v -1.08789 h -0.002 v -6.72657 -13.39843 h -0.0215 l 0.16992,-66.88086 0.17188,-66.88086 1.75976,-2.66016 c 0.96803,-1.46385 2.95715,-3.44247 4.41992,-4.41992 z M 234.72461,331.0918 h 21.27344 21.27539 l 1.10156,5.11523 c 3.02185,14.04742 9.35487,26.82553 19.10352,38.54102 l 3.23046,3.8789 H 255.97852 211.24805 L 215.02734,374 c 9.71305,-11.88539 15.59128,-23.8233 18.58985,-37.76367 z"
         style="fill:#000000;stroke-width:0.63803709;fill-opacity:0.49019608" /><path
         inkscape:connector-curvature="0"
         id="path106"
         d="m 183.45349,281.72228 c -16.12198,-2.29776 -29.67892,-15.40429 -32.62851,-31.54455 -0.58152,-3.18581 -0.65875,-6.27282 -0.47435,-19.22917 0.21906,-15.34645 0.22693,-15.45566 1.40576,-19.23373 5.10061,-16.34198 18.08863,-26.97597 34.87205,-28.55162 3.41701,-0.32151 27.41111,-0.51062 73.1411,-0.57682 61.78247,-0.0945 68.32525,-0.0315 70.97887,0.61148 15.72894,3.8244 26.98339,15.36772 30.09135,30.86342 0.74544,3.72103 0.80217,5.54756 0.59572,19.44901 -0.22537,15.21628 -0.23796,15.37372 -1.4089,19.14485 -2.09401,6.73789 -5.10647,11.96347 -9.6235,16.6928 -4.27954,4.48078 -9.85057,8.06343 -15.70829,10.10179 -6.32372,2.20052 -4.7558,2.15356 -79.38351,2.37939 -38.29095,0.11035 -70.62758,0.063 -71.85921,-0.11035 z m 146.96697,-6.50227 c 13.64929,-3.89848 23.20215,-14.52649 25.42822,-28.29004 0.57995,-3.58893 0.67451,-26.06822 0.12604,-29.97331 -1.05433,-7.50003 -4.25337,-13.77458 -9.81654,-19.25564 -3.8895,-3.83038 -6.85057,-5.83013 -11.25304,-7.59489 -5.537,-2.21945 -7.01904,-2.3233 -29.95834,-2.09888 l -21.21898,0.20804 -4.11075,1.44515 c -11.40732,4.01178 -19.60771,12.87596 -22.51994,24.34302 -0.84629,3.33096 -0.93139,4.84988 -0.9834,17.32303 -0.0788,19.84582 -0.96764,26.63619 -4.43887,33.99407 -2.15277,4.5629 -5.59941,8.31244 -9.32232,10.14166 l -2.6276,1.29073 43.64293,-0.28052 c 43.62071,-0.28053 43.64482,-0.28053 47.05128,-1.2529 z m -45.00489,-41.95934 c 0.0106,-12.41909 0.005,-23.06633 -0.0106,-23.66061 l -0.0316,-1.07955 13.71706,-0.16705 13.71723,-0.16549 -0.0158,4.54384 -0.0157,4.54367 -8.8582,0.0316 -8.85818,0.0315 -0.0158,4.96998 -0.0157,4.9698 8.20999,-0.0316 8.21001,-0.0315 -0.0158,4.53784 -0.0157,4.53768 -8.20999,0.0315 -8.21001,0.0316 -0.0315,9.72356 -0.0315,9.72372 -4.75312,0.0158 -4.75312,0.0157 0.0158,-22.58029 z m 34.62194,4.94617 0.0788,-17.50252 4.96919,-0.0158 4.96932,-0.0158 -0.0788,17.5027 -0.0788,17.50252 -4.96918,0.0158 -4.96935,0.0157 z m 2.28105,-19.35397 c -2.76456,-1.41364 -3.74639,-5.46641 -1.92583,-7.94949 2.15009,-2.93257 5.88025,-3.41466 8.47713,-1.09531 2.56189,2.28594 2.01314,7.36843 -0.96134,8.91478 -1.53026,0.79587 -4.16906,0.85731 -5.59028,0.12604 z m -132.37035,23.6313 c 2.05617,-7.43463 3.83559,-13.51784 3.95443,-13.51816 0.12603,-1.6e-4 1.65681,6.07046 3.41764,13.49043 l 3.20173,13.49091 4.59048,0.11035 4.59062,0.11035 0.45861,-1.41995 c 0.61463,-1.90455 13.20472,-45.76404 13.20566,-46.00658 0.001,-0.38454 -9.89486,-0.14183 -10.13756,0.25216 -0.14183,0.2222 -1.89543,6.59369 -3.90509,14.15817 l -3.65404,13.75362 -1.55863,-6.68272 c -0.85734,-3.67675 -2.35891,-10.03546 -3.33633,-14.13186 l -1.77706,-7.44802 -4.62025,0.0154 -4.62011,0.0153 -0.28682,1.18984 c -1.17253,4.8647 -7.02315,26.3456 -7.2452,26.6039 -0.1576,0.17809 -1.7115,-5.94186 -3.46303,-13.5998 l -3.1844,-13.92367 -5.30548,-0.0945 c -4.91749,-0.0945 -5.2888,-0.0474 -5.07763,0.66664 0.23798,0.80374 2.65347,10.40407 8.12303,32.28652 1.78051,7.12368 3.33883,13.29864 3.46286,13.72195 0.20015,0.68554 0.72336,0.75488 4.82703,0.63038 l 4.60166,-0.14183 z m 47.8867,-4.07292 -0.0473,-17.61017 -4.86123,0.0157 c -2.67363,0.0106 -4.8617,0.1639 -4.86248,0.34198 -4.8e-4,0.17809 -0.0316,8.103 -0.0788,17.61065 l -0.063,17.28646 4.97423,-0.0157 4.97391,-0.0158 z m -2.06073,-19.26762 c 2.58159,-1.43885 3.46555,-5.29163 1.83175,-7.98338 -0.87466,-1.44043 -3.06462,-2.66322 -4.76005,-2.65676 -1.55548,0.007 -3.92542,1.38842 -4.78496,2.79246 -1.52553,2.48987 -0.64615,6.53994 1.6948,7.80561 1.40575,0.76117 4.68804,0.78325 6.01846,0.0474 z"
         style="fill:#000000;stroke-width:0.43213028;fill-opacity:0.49019608" /></g><g
       id="g102"><path
         style="fill:#ffffff;stroke-width:0.63803709"
         d="m 119.7793,120.42578 -4.28907,2.02344 c -5.96161,2.82298 -10.20695,6.99007 -13.11328,12.87109 L 100,140.13086 v 85.21094 85.20898 l 2.03125,4.29102 c 2.82389,5.96247 6.99109,10.20651 12.87109,13.11328 l 4.8086,2.37695 50.27929,0.23242 50.2793,0.23243 -0.004,1.74609 c -0.007,3.03709 -4.7917,15.85911 -7.96289,21.33984 -4.7719,8.24785 -10.8301,15.64601 -17.40625,21.26172 l -4.08007,3.48242 h -8.91211 c -10.23051,0 -12.19774,0.60699 -13.7168,4.24219 -1.16522,2.7904 -0.31118,5.96077 2.12695,7.86914 l 0.002,-0.0195 C 171.93678,391.98715 172.69995,392 256,392 c 83.30002,0 84.06311,-10e-4 85.68359,-1.28125 2.43805,-1.91767 3.29417,-5.07679 2.12891,-7.86719 -1.52011,-3.63753 -3.48431,-4.24414 -13.74805,-4.24414 h -8.94336 l -4.75195,-4.14453 c -7.7311,-6.74212 -15.1513,-16.56784 -19.24805,-25.48828 -2.42834,-5.28757 -5.39062,-14.43167 -5.39062,-16.64258 v -1.53515 l 50.2793,-0.23243 50.27929,-0.23242 4.8086,-2.37695 c 5.88,-2.90677 10.0472,-7.15081 12.87109,-13.11328 L 412,310.55078 V 225.3418 140.13086 l -2.37695,-4.81055 c -2.90635,-5.88102 -7.15167,-10.04811 -13.11328,-12.87109 l -4.28907,-2.02344 H 256 Z m 2.45703,13.50391 H 256 389.76172 l 2.66016,1.76953 c 1.46278,0.96814 3.45201,2.95374 4.41992,4.41992 l 1.75976,2.66016 0.16992,66.88086 0.1504,59.48046 h 0.0195 v 7.4004 13.39843 h 0.0976 l -0.0976,4.08008 v 2.64649 h -0.0625 l -0.0586,2.4121 c -0.20945,8.73427 -0.29902,9.25978 -1.98047,11.79883 -0.96803,1.46153 -2.95723,3.44051 -4.41992,4.41797 v 0.0996 l -2.66015,1.76953 H 257.00195 c -83.4813,0.0698 -133.54719,-0.11608 -134.88086,-0.51172 -2.90918,-0.84247 -7.51271,-5.59526 -8.35351,-8.62304 -0.37527,-1.35214 -0.6855,-5.97459 -0.6875,-10.27539 v -1.08789 h -0.002 v -6.72657 -13.39843 h -0.0215 l 0.16992,-66.88086 0.17188,-66.88086 1.75976,-2.66016 c 0.96803,-1.46385 2.95715,-3.44247 4.41992,-4.41992 z M 234.72461,331.0918 h 21.27344 21.27539 l 1.10156,5.11523 c 3.02185,14.04742 9.35487,26.82553 19.10352,38.54102 l 3.23046,3.8789 H 255.97852 211.24805 L 215.02734,374 c 9.71305,-11.88539 15.59128,-23.8233 18.58985,-37.76367 z"
         id="path853"
         inkscape:connector-curvature="0"
         sodipodi:nodetypes="cccccccccccccccscccsccsccsscccccccccccccccccccccccccccccccccccccccccccccccccccccccscc" /><path
         style="fill:#ffffff;stroke-width:0.43213028"
         d="m 183.45349,281.72228 c -16.12198,-2.29776 -29.67892,-15.40429 -32.62851,-31.54455 -0.58152,-3.18581 -0.65875,-6.27282 -0.47435,-19.22917 0.21906,-15.34645 0.22693,-15.45566 1.40576,-19.23373 5.10061,-16.34198 18.08863,-26.97597 34.87205,-28.55162 3.41701,-0.32151 27.41111,-0.51062 73.1411,-0.57682 61.78247,-0.0945 68.32525,-0.0315 70.97887,0.61148 15.72894,3.8244 26.98339,15.36772 30.09135,30.86342 0.74544,3.72103 0.80217,5.54756 0.59572,19.44901 -0.22537,15.21628 -0.23796,15.37372 -1.4089,19.14485 -2.09401,6.73789 -5.10647,11.96347 -9.6235,16.6928 -4.27954,4.48078 -9.85057,8.06343 -15.70829,10.10179 -6.32372,2.20052 -4.7558,2.15356 -79.38351,2.37939 -38.29095,0.11035 -70.62758,0.063 -71.85921,-0.11035 z m 146.96697,-6.50227 c 13.64929,-3.89848 23.20215,-14.52649 25.42822,-28.29004 0.57995,-3.58893 0.67451,-26.06822 0.12604,-29.97331 -1.05433,-7.50003 -4.25337,-13.77458 -9.81654,-19.25564 -3.8895,-3.83038 -6.85057,-5.83013 -11.25304,-7.59489 -5.537,-2.21945 -7.01904,-2.3233 -29.95834,-2.09888 l -21.21898,0.20804 -4.11075,1.44515 c -11.40732,4.01178 -19.60771,12.87596 -22.51994,24.34302 -0.84629,3.33096 -0.93139,4.84988 -0.9834,17.32303 -0.0788,19.84582 -0.96764,26.63619 -4.43887,33.99407 -2.15277,4.5629 -5.59941,8.31244 -9.32232,10.14166 l -2.6276,1.29073 43.64293,-0.28052 c 43.62071,-0.28053 43.64482,-0.28053 47.05128,-1.2529 z m -45.00489,-41.95934 c 0.0106,-12.41909 0.005,-23.06633 -0.0106,-23.66061 l -0.0316,-1.07955 13.71706,-0.16705 13.71723,-0.16549 -0.0158,4.54384 -0.0157,4.54367 -8.8582,0.0316 -8.85818,0.0315 -0.0158,4.96998 -0.0157,4.9698 8.20999,-0.0316 8.21001,-0.0315 -0.0158,4.53784 -0.0157,4.53768 -8.20999,0.0315 -8.21001,0.0316 -0.0315,9.72356 -0.0315,9.72372 -4.75312,0.0158 -4.75312,0.0157 0.0158,-22.58029 z m 34.62194,4.94617 0.0788,-17.50252 4.96919,-0.0158 4.96932,-0.0158 -0.0788,17.5027 -0.0788,17.50252 -4.96918,0.0158 -4.96935,0.0157 z m 2.28105,-19.35397 c -2.76456,-1.41364 -3.74639,-5.46641 -1.92583,-7.94949 2.15009,-2.93257 5.88025,-3.41466 8.47713,-1.09531 2.56189,2.28594 2.01314,7.36843 -0.96134,8.91478 -1.53026,0.79587 -4.16906,0.85731 -5.59028,0.12604 z m -132.37035,23.6313 c 2.05617,-7.43463 3.83559,-13.51784 3.95443,-13.51816 0.12603,-1.6e-4 1.65681,6.07046 3.41764,13.49043 l 3.20173,13.49091 4.59048,0.11035 4.59062,0.11035 0.45861,-1.41995 c 0.61463,-1.90455 13.20472,-45.76404 13.20566,-46.00658 0.001,-0.38454 -9.89486,-0.14183 -10.13756,0.25216 -0.14183,0.2222 -1.89543,6.59369 -3.90509,14.15817 l -3.65404,13.75362 -1.55863,-6.68272 c -0.85734,-3.67675 -2.35891,-10.03546 -3.33633,-14.13186 l -1.77706,-7.44802 -4.62025,0.0154 -4.62011,0.0153 -0.28682,1.18984 c -1.17253,4.8647 -7.02315,26.3456 -7.2452,26.6039 -0.1576,0.17809 -1.7115,-5.94186 -3.46303,-13.5998 l -3.1844,-13.92367 -5.30548,-0.0945 c -4.91749,-0.0945 -5.2888,-0.0474 -5.07763,0.66664 0.23798,0.80374 2.65347,10.40407 8.12303,32.28652 1.78051,7.12368 3.33883,13.29864 3.46286,13.72195 0.20015,0.68554 0.72336,0.75488 4.82703,0.63038 l 4.60166,-0.14183 z m 47.8867,-4.07292 -0.0473,-17.61017 -4.86123,0.0157 c -2.67363,0.0106 -4.8617,0.1639 -4.86248,0.34198 -4.8e-4,0.17809 -0.0316,8.103 -0.0788,17.61065 l -0.063,17.28646 4.97423,-0.0157 4.97391,-0.0158 z m -2.06073,-19.26762 c 2.58159,-1.43885 3.46555,-5.29163 1.83175,-7.98338 -0.87466,-1.44043 -3.06462,-2.66322 -4.76005,-2.65676 -1.55548,0.007 -3.92542,1.38842 -4.78496,2.79246 -1.52553,2.48987 -0.64615,6.53994 1.6948,7.80561 1.40575,0.76117 4.68804,0.78325 6.01846,0.0474 z"
         id="path843-6"
         inkscape:connector-curvature="0" /></g></g></svg>