<?xml version="1.0" encoding="UTF-8" standalone="no"?>
<!-- Created with Inkscape (http://www.inkscape.org/) -->

<svg
   xmlns:dc="http://purl.org/dc/elements/1.1/"
   xmlns:cc="http://creativecommons.org/ns#"
   xmlns:rdf="http://www.w3.org/1999/02/22-rdf-syntax-ns#"
   xmlns:svg="http://www.w3.org/2000/svg"
   xmlns="http://www.w3.org/2000/svg"
   xmlns:xlink="http://www.w3.org/1999/xlink"
   xmlns:sodipodi="http://sodipodi.sourceforge.net/DTD/sodipodi-0.dtd"
   xmlns:inkscape="http://www.inkscape.org/namespaces/inkscape"
   version="1.0"
   width="512"
   height="512"
   id="svg2408"
   inkscape:version="0.92.3 (2405546, 2018-03-11)"
   sodipodi:docname="preferences-web-browser-stylesheets.svg">
  <metadata
     id="metadata102">
    <rdf:RDF>
      <cc:Work
         rdf:about="">
        <dc:format>image/svg+xml</dc:format>
        <dc:type
           rdf:resource="http://purl.org/dc/dcmitype/StillImage" />
        <dc:title></dc:title>
      </cc:Work>
    </rdf:RDF>
  </metadata>
  <sodipodi:namedview
     pagecolor="#ffffff"
     bordercolor="#666666"
     borderopacity="1"
     objecttolerance="10"
     gridtolerance="10"
     guidetolerance="10"
     inkscape:pageopacity="0"
     inkscape:pageshadow="2"
     inkscape:window-width="1366"
     inkscape:window-height="711"
     id="namedview100"
     showgrid="false"
     showguides="false"
     inkscape:guide-bbox="true"
     inkscape:zoom="0.41429846"
     inkscape:cx="393.96708"
     inkscape:cy="260.82705"
     inkscape:window-x="0"
     inkscape:window-y="28"
     inkscape:window-maximized="1"
     inkscape:current-layer="svg2408">
    <sodipodi:guide
       orientation="0,1"
       position="72.32484,89.35697"
       id="guide3892"
       inkscape:locked="false" />
  </sodipodi:namedview>
  <defs
     id="defs2410">
    <linearGradient
       id="linearGradient3794">
      <stop
         id="stop3796"
         style="stop-color:#ae0000;stop-opacity:1"
         offset="0" />
      <stop
         id="stop3798"
         style="stop-color:#ff3131;stop-opacity:1"
         offset="1" />
    </linearGradient>
    <linearGradient
       id="linearGradient3761">
      <stop
         id="stop3763"
         style="stop-color:#333333;stop-opacity:1"
         offset="0" />
      <stop
         id="stop3765"
         style="stop-color:#515151;stop-opacity:1"
         offset="1" />
    </linearGradient>
    <linearGradient
       id="linearGradient3678">
      <stop
         id="stop3680"
         style="stop-color:#888888;stop-opacity:1"
         offset="0" />
      <stop
         id="stop3682"
         style="stop-color:#acacac;stop-opacity:1"
         offset="1" />
    </linearGradient>
    <linearGradient
       id="linearGradient3664">
      <stop
         id="stop3666"
         style="stop-color:#c8c8c8;stop-opacity:1"
         offset="0" />
      <stop
         id="stop3668"
         style="stop-color:#c8c8c8;stop-opacity:1"
         offset="0.79100895" />
      <stop
         id="stop3672"
         style="stop-color:#dadada;stop-opacity:1"
         offset="0.91459841" />
      <stop
         id="stop3670"
         style="stop-color:#f0f0f0;stop-opacity:1"
         offset="1" />
    </linearGradient>
    <linearGradient
       x1="45.447727"
       y1="92.539597"
       x2="45.447727"
       y2="7.0165396"
       id="ButtonShadow"
       gradientUnits="userSpaceOnUse"
       gradientTransform="scale(1.0058652,0.994169)">
      <stop
         id="stop3750"
         style="stop-color:#000000;stop-opacity:1"
         offset="0" />
      <stop
         id="stop3752"
         style="stop-color:#000000;stop-opacity:0.58823532"
         offset="1" />
    </linearGradient>
    <linearGradient
       id="linearGradient3737">
      <stop
         id="stop3739"
         style="stop-color:#ffffff;stop-opacity:1"
         offset="0" />
      <stop
         id="stop3741"
         style="stop-color:#ffffff;stop-opacity:0"
         offset="1" />
    </linearGradient>
    <filter
       id="filter3174"
       style="color-interpolation-filters:sRGB">
      <feGaussianBlur
         id="feGaussianBlur3176"
         stdDeviation="1.71" />
    </filter>
    <linearGradient
       x1="36.357143"
       y1="6"
       x2="36.357143"
       y2="63.893143"
       id="linearGradient3188"
       xlink:href="#linearGradient3737"
       gradientUnits="userSpaceOnUse" />
    <filter
       x="-0.192"
       y="-0.192"
       width="1.3839999"
       height="1.3839999"
       id="filter3794"
       style="color-interpolation-filters:sRGB">
      <feGaussianBlur
         id="feGaussianBlur3796"
         stdDeviation="5.28" />
    </filter>
    <linearGradient
       x1="48"
       y1="20.220806"
       x2="48"
       y2="138.66119"
       id="linearGradient3613"
       xlink:href="#linearGradient3737"
       gradientUnits="userSpaceOnUse" />
    <radialGradient
       cx="48"
       cy="90.171875"
       r="42"
       fx="48"
       fy="90.171875"
       id="radialGradient3619"
       xlink:href="#linearGradient3737"
       gradientUnits="userSpaceOnUse"
       gradientTransform="matrix(1.1573129,0,0,0.99590774,-7.5510206,0.19713193)" />
    <clipPath
       id="clipPath3613">
      <rect
         width="84"
         height="84"
         rx="6"
         ry="6"
         x="6"
         y="6"
         id="rect3615"
         style="fill:#ffffff;fill-opacity:1;fill-rule:nonzero;stroke:none" />
    </clipPath>
    <linearGradient
       x1="48"
       y1="90"
       x2="48"
       y2="5.9877172"
       id="linearGradient3617"
       xlink:href="#linearGradient3664"
       gradientUnits="userSpaceOnUse" />
    <linearGradient
       x1="45.447727"
       y1="92.539597"
       x2="45.447727"
       y2="7.0165396"
       id="ButtonShadow-0"
       gradientUnits="userSpaceOnUse"
       gradientTransform="matrix(1.0058652,0,0,0.994169,100,0)">
      <stop
         id="stop3750-8"
         style="stop-color:#000000;stop-opacity:1"
         offset="0" />
      <stop
         id="stop3752-5"
         style="stop-color:#000000;stop-opacity:0.58823532"
         offset="1" />
    </linearGradient>
    <linearGradient
       x1="32.251034"
       y1="6.1317081"
       x2="32.251034"
       y2="90.238609"
       id="linearGradient3780"
       xlink:href="#ButtonShadow-0"
       gradientUnits="userSpaceOnUse"
       gradientTransform="matrix(1.0238095,0,0,1.0119048,-1.1428571,-98.071429)" />
    <linearGradient
       x1="32.251034"
       y1="6.1317081"
       x2="32.251034"
       y2="90.238609"
       id="linearGradient3772"
       xlink:href="#ButtonShadow-0"
       gradientUnits="userSpaceOnUse"
       gradientTransform="matrix(1.0238095,0,0,1.0119048,-1.1428571,-98.071429)" />
    <linearGradient
       x1="32.251034"
       y1="6.1317081"
       x2="32.251034"
       y2="90.238609"
       id="linearGradient3725"
       xlink:href="#ButtonShadow-0"
       gradientUnits="userSpaceOnUse"
       gradientTransform="matrix(1.0238095,0,0,1.0119048,-1.1428571,-98.071429)" />
    <linearGradient
       x1="32.251034"
       y1="6.1317081"
       x2="32.251034"
       y2="90.238609"
       id="linearGradient3721"
       xlink:href="#ButtonShadow-0"
       gradientUnits="userSpaceOnUse"
       gradientTransform="translate(0,-97)" />
    <linearGradient
       x1="32.251034"
       y1="6.1317081"
       x2="32.251034"
       y2="90.238609"
       id="linearGradient3026"
       xlink:href="#ButtonShadow-0"
       gradientUnits="userSpaceOnUse"
       gradientTransform="matrix(1.0238095,0,0,1.0119048,-1.1428571,-98.071429)" />
    <linearGradient
       x1="48"
       y1="24"
       x2="48"
       y2="80"
       id="linearGradient3684"
       xlink:href="#linearGradient3678"
       gradientUnits="userSpaceOnUse" />
    <linearGradient
       x1="15"
       y1="10"
       x2="15"
       y2="6"
       id="linearGradient3767"
       xlink:href="#linearGradient3761"
       gradientUnits="userSpaceOnUse" />
    <linearGradient
       x1="15"
       y1="10"
       x2="15"
       y2="6"
       id="linearGradient3785"
       xlink:href="#linearGradient3761"
       gradientUnits="userSpaceOnUse"
       gradientTransform="translate(67)" />
    <linearGradient
       x1="15"
       y1="10"
       x2="15"
       y2="6"
       id="linearGradient3800"
       xlink:href="#linearGradient3794"
       gradientUnits="userSpaceOnUse"
       gradientTransform="translate(67)" />
    <radialGradient
       id="polygon413_1_"
       cx="7976.3457"
       cy="-10508.842"
       r="13293.867"
       gradientTransform="matrix(0.0222,0,0,-0.0248,721.1671,674.6745)"
       gradientUnits="userSpaceOnUse">
      <stop
         offset="0"
         style="stop-color:#80FF80"
         id="stop388" />
      <stop
         offset="1"
         style="stop-color:#0f0"
         id="stop390" />
    </radialGradient>
    <linearGradient
       inkscape:collect="always"
       xlink:href="#linearGradient4175"
       id="linearGradient4190"
       x1="400.57144"
       y1="538.79797"
       x2="400.57144"
       y2="524.79797"
       gradientUnits="userSpaceOnUse" />
    <linearGradient
       id="linearGradient4175"
       inkscape:collect="always">
      <stop
         id="stop4177"
         offset="0"
         style="stop-color:#ffd42a;stop-opacity:1;" />
      <stop
         id="stop4179"
         offset="1"
         style="stop-color:#ffdf62;stop-opacity:1" />
    </linearGradient>
  </defs>
  <g
     id="layer2"
     style="display:none"
     transform="translate(0,416)">
    <rect
       width="86"
       height="85"
       rx="6"
       ry="6"
       x="5"
       y="7"
       id="rect3745"
       style="opacity:0.9;fill:url(#ButtonShadow);fill-opacity:1;fill-rule:nonzero;stroke:none;filter:url(#filter3174)" />
  </g>
  <g
     id="layer5"
     style="display:none"
     transform="translate(0,416)">
    <rect
       width="66"
       height="66"
       rx="12"
       ry="12"
       x="15"
       y="15"
       clip-path="url(#clipPath3613)"
       id="rect3171"
       style="opacity:0.1;fill:url(#linearGradient3613);fill-opacity:1;fill-rule:nonzero;stroke:#ffffff;stroke-width:0.5;stroke-linecap:round;stroke-linejoin:miter;stroke-miterlimit:4;stroke-dasharray:none;stroke-dashoffset:0;stroke-opacity:1;filter:url(#filter3794)" />
  </g>
  <g
     id="g937">
    <path
       id="path931-6"
       d="m 432.91326,56.47399 c 102.19291,88.57459 105.82678,249.69971 8.1168,359.89879 C 343.32009,526.57182 181.27965,544.10062 79.086737,455.52602 -23.106204,366.95145 -26.740031,205.82633 70.969937,95.62725 168.67991,-14.57183 330.72036,-32.1006 432.91326,56.47399 Z"
       inkscape:connector-curvature="0"
       style="fill:#f37329;fill-opacity:1;stroke-width:11.10955811" />
    <path
       id="path935-5"
       d="m 511.6355,224.90354 c -1.55139,61.31164 -25.16123,124.1546 -70.96638,175.81447 C 342.95915,510.91712 180.9187,528.44582 78.725757,439.87132 30.827127,398.35566 4.4968194,340.92286 0.19382736,280.22883 0.79908136,346.5855 27.117407,410.4822 79.078687,455.51912 181.2716,544.09362 343.31975,526.55622 441.02201,416.36579 490.72696,360.30768 514.02703,291.07482 511.6355,224.90354 Z"
       inkscape:connector-curvature="0"
       style="opacity:1;fill:#000000;fill-opacity:0.49019608;stroke-width:11.10955811" />
    <path
       style="fill:#000000;stroke-width:3.05882359;fill-opacity:0.49019608"
       d="m 166.69533,387.7875 c -16.758,-12.30415 -10.69684,-26.68369 -11.51886,-47.33045 -1.71297,-43.02466 -4.68046,-49.41429 -24.86642,-53.54276 C 121.43639,285.09943 120,283.56062 120,275.86934 c 0,-7.76908 1.46521,-9.28282 11.21728,-11.58915 19.75236,-4.67131 22.23563,-10.18658 23.95919,-53.21243 0.22043,-19.93023 -2.95404,-34.17755 11.70954,-47.2657 8.07306,-7.20567 12.5049,-8.89286 21.41177,-8.15131 9.54393,0.79459 11.23163,2.03409 11.23163,8.2488 0,4.02253 -2.0647,8.279 -4.58824,9.45883 -17.66314,8.25799 -16.7243,5.94365 -18.35294,45.24198 -1.35925,32.79796 -2.34486,38.0061 -8.85813,46.80709 -5.87139,7.93368 -6.61948,10.8719 -3.76202,14.77593 10.00495,13.66954 12.62015,25.46695 12.62015,56.93092 0.34699,17.95993 -6.1335,29.80919 10.83897,36.90078 12.33948,5.15574 16.0361,11.51731 10.54047,18.13914 -6.15818,7.42015 -20.27492,5.44895 -31.27234,-4.36672 z m 185.42055,4.50644 c -3.19821,-8.33441 0.36915,-15.03669 9.27048,-17.41718 18.70598,-4.86866 13.92442,-27.61806 13.97857,-41.18825 0.041,-27.01713 1.00572,-32.70078 7.68215,-45.25741 l 7.63532,-14.36004 -6.87062,-9.28323 c -5.96556,-8.06036 -7.07209,-14.14461 -8.40001,-46.18747 -0.73027,-22.7816 1.15007,-35.56323 -17.58824,-44.75964 -2.94412,-1.44511 -5.35294,-5.91864 -5.35294,-9.94117 0,-6.21471 1.68768,-7.45421 11.23163,-8.2488 8.90687,-0.74155 13.33871,0.94564 21.41177,8.15131 16.96162,12.48054 10.8706,26.32299 11.70954,47.2657 1.72356,43.02585 4.20683,48.54112 23.95919,53.21243 9.75207,2.30633 11.21728,3.82007 11.21728,11.58915 0,7.69128 -1.43639,9.23009 -10.31003,11.04495 -20.18598,4.12847 -23.15347,10.5181 -24.86644,53.54276 -2.47711,25.16404 6.42334,31.31631 -11.51886,47.33045 -11.08196,9.89114 -30.12998,12.47753 -33.18879,4.50644 z"
       id="path931"
       inkscape:connector-curvature="0"
       sodipodi:nodetypes="cccscccsscsscccscsccscsccsscccscccs" />
    <path
       sodipodi:nodetypes="cccscccsscsscccscsccscsccsscccscccs"
       inkscape:connector-curvature="0"
       id="path846-5"
       d="m 146.69533,367.7875 c -16.758,-12.30415 -10.69684,-26.68369 -11.51886,-47.33045 -1.71297,-43.02466 -4.68046,-49.41429 -24.86642,-53.54276 C 101.43639,265.09943 100,263.56062 100,255.86934 c 0,-7.76908 1.46521,-9.28282 11.21728,-11.58915 19.75236,-4.67131 22.23563,-10.18658 23.95919,-53.21243 0.22043,-19.93023 -2.95404,-34.17755 11.70954,-47.2657 8.07306,-7.20567 12.5049,-8.89286 21.41177,-8.15131 9.54393,0.79459 11.23163,2.03409 11.23163,8.2488 0,4.02253 -2.0647,8.279 -4.58824,9.45883 -17.66314,8.25799 -16.7243,5.94365 -18.35294,45.24198 -1.35925,32.79796 -2.34486,38.0061 -8.85813,46.80709 -5.87139,7.93368 -6.61948,10.8719 -3.76202,14.77593 10.00495,13.66954 12.62015,25.46695 12.62015,56.93092 0.34699,17.95993 -6.1335,29.80919 10.83897,36.90078 12.33948,5.15574 16.0361,11.51731 10.54047,18.13914 -6.15818,7.42015 -20.27492,5.44895 -31.27234,-4.36672 z m 185.42055,4.50644 c -3.19821,-8.33441 0.36915,-15.03669 9.27048,-17.41718 18.70598,-4.86866 13.92442,-27.61806 13.97857,-41.18825 0.041,-27.01713 1.00572,-32.70078 7.68215,-45.25741 l 7.63532,-14.36004 -6.87062,-9.28323 c -5.96556,-8.06036 -7.07209,-14.14461 -8.40001,-46.18747 -0.73027,-22.7816 1.15007,-35.56323 -17.58824,-44.75964 -2.94412,-1.44511 -5.35294,-5.91864 -5.35294,-9.94117 0,-6.21471 1.68768,-7.45421 11.23163,-8.2488 8.90687,-0.74155 13.33871,0.94564 21.41177,8.15131 16.96162,12.48054 10.8706,26.32299 11.70954,47.2657 1.72356,43.02585 4.20683,48.54112 23.95919,53.21243 9.75207,2.30633 11.21728,3.82007 11.21728,11.58915 0,7.69128 -1.43639,9.23009 -10.31003,11.04495 -20.18598,4.12847 -23.15347,10.5181 -24.86644,53.54276 -2.47711,25.16404 6.42334,31.31631 -11.51886,47.33045 -11.08196,9.89114 -30.12998,12.47753 -33.18879,4.50644 z"
       style="fill:#ffffff;stroke-width:3.05882359" />
  </g>
</svg>
