<?xml version="1.0" encoding="UTF-8" standalone="no"?>
<!-- Created with Inkscape (http://www.inkscape.org/) -->

<svg
   xmlns:dc="http://purl.org/dc/elements/1.1/"
   xmlns:cc="http://creativecommons.org/ns#"
   xmlns:rdf="http://www.w3.org/1999/02/22-rdf-syntax-ns#"
   xmlns:svg="http://www.w3.org/2000/svg"
   xmlns="http://www.w3.org/2000/svg"
   xmlns:sodipodi="http://sodipodi.sourceforge.net/DTD/sodipodi-0.dtd"
   xmlns:inkscape="http://www.inkscape.org/namespaces/inkscape"
   width="512"
   height="512"
   id="svg5453"
   version="1.1"
   inkscape:version="0.92.3 (2405546, 2018-03-11)"
   sodipodi:docname="preferences-desktop-emoticons.svg">
  <defs
     id="defs5455" />
  <sodipodi:namedview
     id="base"
     pagecolor="#ffffff"
     bordercolor="#666666"
     borderopacity="1.0"
     inkscape:pageopacity="0"
     inkscape:pageshadow="2"
     inkscape:zoom="0.70710675"
     inkscape:cx="95.036192"
     inkscape:cy="159.79642"
     inkscape:document-units="px"
     inkscape:current-layer="layer1"
     showgrid="true"
     fit-margin-top="0"
     fit-margin-left="0"
     fit-margin-right="0"
     fit-margin-bottom="0"
     inkscape:window-width="1366"
     inkscape:window-height="711"
     inkscape:window-x="0"
     inkscape:window-y="28"
     inkscape:window-maximized="1"
     inkscape:showpageshadow="false"
     borderlayer="true"
     showguides="true">
    <inkscape:grid
       type="xygrid"
       id="grid4063"
       enabled="false" />
  </sodipodi:namedview>
  <metadata
     id="metadata5458">
    <rdf:RDF>
      <cc:Work
         rdf:about="">
        <dc:format>image/svg+xml</dc:format>
        <dc:type
           rdf:resource="http://purl.org/dc/dcmitype/StillImage" />
        <dc:title></dc:title>
      </cc:Work>
    </rdf:RDF>
  </metadata>
  <g
     inkscape:label="Capa 1"
     inkscape:groupmode="layer"
     id="layer1"
     transform="translate(-384.57143,-35.798)">
    <g
       transform="translate(384.57143,35.798005)"
       id="g880">
      <path
         id="path1165"
         d="M 432.91328,56.474957 C 535.10618,145.04845 538.74005,306.17451 441.03006,416.37298 343.32007,526.57147 181.27962,544.10043 79.086743,455.52693 -23.106206,366.95111 -26.740033,205.82737 70.969944,95.626584 168.67988,-14.571874 330.72033,-32.100857 432.91328,56.474957 Z"
         inkscape:connector-curvature="0"
         style="fill:#f9c440;fill-opacity:1;stroke-width:11.10954762" />
      <path
         id="path1167"
         d="M 511.63552,224.90399 C 510.08416,286.21586 486.47428,349.05908 440.66913,400.71744 342.95911,510.9159 180.91867,528.44487 78.725762,439.8714 30.827125,398.35527 4.4968196,340.92295 0.19382729,280.22781 0.79908089,346.5852 27.117406,410.48266 79.078693,455.51762 181.27157,544.09343 343.31972,526.55517 441.02203,416.36599 c 49.70494,-56.05922 73.00501,-125.29079 70.61349,-191.462 z"
         inkscape:connector-curvature="0"
         style="opacity:1;fill:#000000;fill-opacity:0.49019608;stroke-width:11.10954762" />
      <path
         style="fill:#000000;fill-opacity:0.49019608;stroke:none;stroke-width:34.66661835;stroke-miterlimit:4;stroke-dasharray:none;stroke-opacity:1"
         d="M 275.45042,120.00167 A 155.99978,155.99978 0 0 0 120.00043,276.36708 155.99978,155.99978 0 0 0 276.18303,431.99989 155.99978,155.99978 0 0 0 432,276.0001 v -0.7326 A 155.99978,155.99978 0 0 0 275.45042,120.00167 Z M 194.9521,234.85245 c 37.34063,-0.0949 39.38182,39.38182 39.38182,39.38182 l -78.765,0.31688 c 0,0 2.04254,-39.60396 39.38318,-39.6987 z m 158.48061,0.47666 c 37.34064,-0.0949 39.38181,39.38182 39.38181,39.38182 l -78.76363,0.31689 c 0,0 2.04119,-39.60397 39.38182,-39.69871 z m 39.79621,78.76365 c 0,0 -20.76565,90.86488 -114.96454,90.51508 C 184.06553,404.25818 155.6759,315.05016 155.6759,315.05016 Z"
         id="path874"
         inkscape:connector-curvature="0" />
      <path
         inkscape:connector-curvature="0"
         id="path4169"
         d="M 255.45042,100.00167 A 155.99978,155.99978 0 0 0 100.00043,256.36708 155.99978,155.99978 0 0 0 256.18303,411.99989 155.99978,155.99978 0 0 0 412,256.0001 v -0.7326 A 155.99978,155.99978 0 0 0 255.45042,100.00167 Z M 174.9521,214.85245 c 37.34063,-0.0949 39.38182,39.38182 39.38182,39.38182 l -78.765,0.31688 c 0,0 2.04254,-39.60396 39.38318,-39.6987 z m 158.48061,0.47666 c 37.34064,-0.0949 39.38181,39.38182 39.38181,39.38182 l -78.76363,0.31689 c 0,0 2.04119,-39.60397 39.38182,-39.69871 z m 39.79621,78.76365 c 0,0 -20.76565,90.86488 -114.96454,90.51508 C 164.06553,384.25818 135.6759,295.05016 135.6759,295.05016 Z"
         style="fill:#ffffff;fill-opacity:1;stroke:none;stroke-width:34.66661835;stroke-miterlimit:4;stroke-dasharray:none;stroke-opacity:1" />
    </g>
  </g>
</svg>
