<?xml version="1.0" encoding="UTF-8" standalone="no"?>
<!-- Created with Inkscape (http://www.inkscape.org/) -->

<svg
   xmlns:dc="http://purl.org/dc/elements/1.1/"
   xmlns:cc="http://creativecommons.org/ns#"
   xmlns:rdf="http://www.w3.org/1999/02/22-rdf-syntax-ns#"
   xmlns:svg="http://www.w3.org/2000/svg"
   xmlns="http://www.w3.org/2000/svg"
   xmlns:sodipodi="http://sodipodi.sourceforge.net/DTD/sodipodi-0.dtd"
   xmlns:inkscape="http://www.inkscape.org/namespaces/inkscape"
   width="512"
   height="512"
   viewBox="0 0 512 512.00002"
   id="svg2"
   version="1.1"
   inkscape:version="0.92.3 (2405546, 2018-03-11)"
   sodipodi:docname="preferences-desktop-filetype-association.svg">
  <defs
     id="defs4" />
  <sodipodi:namedview
     id="base"
     pagecolor="#ffffff"
     bordercolor="#666666"
     borderopacity="1.0"
     inkscape:pageopacity="0.0"
     inkscape:pageshadow="2"
     inkscape:zoom="0.51171875"
     inkscape:cx="399.09436"
     inkscape:cy="223.51686"
     inkscape:document-units="px"
     inkscape:current-layer="layer1"
     showgrid="true"
     units="px"
     inkscape:showpageshadow="false"
     borderlayer="true"
     inkscape:window-width="1366"
     inkscape:window-height="711"
     inkscape:window-x="0"
     inkscape:window-y="28"
     inkscape:window-maximized="1">
    <inkscape:grid
       type="xygrid"
       id="grid4136"
       enabled="false" />
  </sodipodi:namedview>
  <metadata
     id="metadata7">
    <rdf:RDF>
      <cc:Work
         rdf:about="">
        <dc:format>image/svg+xml</dc:format>
        <dc:type
           rdf:resource="http://purl.org/dc/dcmitype/StillImage" />
        <dc:title></dc:title>
      </cc:Work>
    </rdf:RDF>
  </metadata>
  <g
     inkscape:label="Capa 1"
     inkscape:groupmode="layer"
     id="layer1"
     transform="translate(0,-610.5196)">
    <g
       id="g880">
      <path
         id="path931"
         d="m 432.91326,666.99358 c 102.19291,88.57459 105.82678,249.69971 8.1168,359.89882 -97.70997,110.199 -259.75041,127.7278 -361.943319,39.1532 C -23.106209,977.47104 -26.740029,816.34592 70.969941,706.14684 168.67991,595.94776 330.72036,578.41899 432.91326,666.99358 Z"
         inkscape:connector-curvature="0"
         style="fill:#f37329;fill-opacity:1;stroke-width:11.10955811" />
      <path
         id="path935"
         d="m 511.6355,835.42313 c -1.55139,61.31164 -25.16123,124.1546 -70.96638,175.81447 C 342.95915,1121.4367 180.9187,1138.9654 78.725758,1050.3909 30.827121,1008.8753 4.4968216,951.44245 0.19383166,890.74842 0.79908166,957.10509 27.117401,1021.0018 79.07869,1066.0387 c 102.19291,88.5745 264.24106,71.0371 361.94332,-39.1533 49.70495,-56.05813 73.00502,-125.29099 70.61349,-191.46227 z"
         inkscape:connector-curvature="0"
         style="opacity:1;fill:#000000;fill-opacity:0.49019608;stroke-width:11.10955811" />
      <path
         style="fill:#000000;stroke-width:1.38760996;fill-opacity:0.49019608"
         d="m 158.31397,1040.4326 c -1.1993,-1.1993 -2.18053,-2.8841 -2.18053,-3.744 0,-0.8599 3.07534,-6.9723 6.83409,-13.5832 6.44094,-11.3282 6.75919,-12.3531 5.53197,-17.815 -1.76835,-7.8704 0.51898,-21.23862 6.24017,-36.47009 l 4.59712,-12.23895 h -17.21518 c -16.42771,0 -17.371,-0.1558 -20.62115,-3.40596 -5.38404,-5.38404 -4.37073,-16.7071 1.75904,-19.65609 1.35678,-0.65273 13.32256,-1.50674 26.59062,-1.89776 l 24.12375,-0.71098 9.17889,-15.98885 c 5.04838,-8.79388 12.18348,-21.16406 15.85578,-27.4893 l 6.67688,-11.50043 5.41489,4.892 c 2.97817,2.69062 8.71552,6.55007 12.74965,8.57659 4.03411,2.02653 7.51806,3.8448 7.7421,4.04061 0.22403,0.19582 -4.03331,7.98563 -9.46076,17.31068 -5.42744,9.32505 -10.20463,17.83166 -10.61596,18.90358 -0.62041,1.61676 2.58859,1.94893 18.82712,1.94893 h 19.57499 v -5.45133 c 0,-5.52382 2.72909,-9.81238 6.24426,-9.81238 3.51516,0 6.24424,4.28856 6.24424,9.81238 v 5.45133 h 19.57499 c 16.23855,0 19.44753,-0.33217 18.82713,-1.94893 -0.41133,-1.07192 -5.18853,-9.57853 -10.61597,-18.90358 -5.42743,-9.32505 -9.68478,-17.11486 -9.46075,-17.31068 0.22402,-0.19581 3.70798,-2.01408 7.74211,-4.04061 4.03411,-2.02652 9.77145,-5.88597 12.74965,-8.57659 l 5.41488,-4.892 6.67689,11.50043 c 3.67227,6.32524 10.80738,18.69542 15.85578,27.4893 l 9.17888,15.98885 24.12375,0.71098 c 13.26807,0.39102 25.23384,1.24503 26.59061,1.89776 3.29872,1.58699 5.165,5.33358 5.165,10.36884 0,10.537 -4.31622,12.69321 -25.40887,12.69321 h -15.83341 l 4.65515,12.39341 c 5.4539,14.51989 7.85642,28.97525 6.10162,36.71163 -1.12793,4.9727 -0.67922,6.3532 5.72739,17.6211 7.24974,12.7508 7.8154,16.9427 2.51338,18.6255 -1.47194,0.4671 -3.63894,0.3106 -4.81558,-0.3479 -1.17662,-0.6584 -12.92837,-19.8976 -26.11496,-42.75354 l -23.97564,-41.5564 -27.33602,-0.37623 -27.33601,-0.37623 v 5.48066 c 0,5.55315 -2.72096,9.84171 -6.24424,9.84171 -3.5233,0 -6.24426,-4.28856 -6.24426,-9.84171 v -5.48066 l -27.33601,0.37623 -27.33602,0.37623 -23.95009,41.51213 c -13.17256,22.83161 -24.75558,42.02311 -25.74006,42.64771 -2.69457,1.7095 -4.82415,1.4147 -7.2413,-1.0024 z m 106.1159,-154.74751 c -16.68411,-3.27052 -31.93557,-15.29183 -39.9346,-31.47678 -5.0586,-10.23536 -5.22417,-11.04112 -5.18154,-25.2151 0.0556,-18.50057 3.14694,-27.14331 13.83945,-38.69248 22.86717,-24.69928 58.39066,-26.17059 82.70697,-3.42556 12.98606,12.14695 18.60337,26.70918 17.60924,45.6498 -1.83636,34.9875 -34.28509,59.97285 -69.03952,53.16012 z m 27.53981,-24.77252 c 6.2661,-3.19673 14.95787,-12.52364 17.6295,-18.91772 2.78876,-6.67445 2.43121,-20.89177 -0.69878,-27.78382 -5.9942,-13.19899 -17.83125,-20.67384 -32.73869,-20.67384 -14.90744,0 -26.74449,7.47485 -32.7387,20.67384 -3.56654,7.85335 -3.51611,21.74855 0.10596,29.23098 8.76389,18.10377 31.28095,26.22477 48.4406,17.47056 z M 262.9794,751.76905 c 0,-10.97907 2.11043,-16.79024 7.01959,-19.32885 4.97434,-2.57235 7.36763,-2.56378 12.41126,0.0444 4.74663,2.45457 6.91449,8.75158 6.926,20.11811 l 0.008,7.63186 h -13.18224 -13.1823 v -8.4655 z"
         id="path69"
         inkscape:connector-curvature="0" />
      <path
         inkscape:connector-curvature="0"
         id="path878"
         d="m 138.31397,1020.4326 c -1.1993,-1.1993 -2.18053,-2.8841 -2.18053,-3.744 0,-0.8599 3.07534,-6.9723 6.83409,-13.5832 6.44094,-11.32827 6.75919,-12.35313 5.53197,-17.81504 -1.76835,-7.8704 0.51898,-21.23862 6.24017,-36.47009 l 4.59712,-12.23895 h -17.21518 c -16.42771,0 -17.371,-0.1558 -20.62115,-3.40596 -5.38404,-5.38404 -4.37073,-16.7071 1.75904,-19.65609 1.35678,-0.65273 13.32256,-1.50674 26.59062,-1.89776 l 24.12375,-0.71098 9.17889,-15.98885 c 5.04838,-8.79388 12.18348,-21.16406 15.85578,-27.4893 l 6.67688,-11.50043 5.41489,4.892 c 2.97817,2.69062 8.71552,6.55007 12.74965,8.57659 4.03411,2.02653 7.51806,3.8448 7.7421,4.04061 0.22403,0.19582 -4.03331,7.98563 -9.46076,17.31068 -5.42744,9.32505 -10.20463,17.83166 -10.61596,18.90358 -0.62041,1.61676 2.58859,1.94893 18.82712,1.94893 h 19.57499 v -5.45133 c 0,-5.52382 2.72909,-9.81238 6.24426,-9.81238 3.51516,0 6.24424,4.28856 6.24424,9.81238 v 5.45133 h 19.57499 c 16.23855,0 19.44753,-0.33217 18.82713,-1.94893 -0.41133,-1.07192 -5.18853,-9.57853 -10.61597,-18.90358 -5.42743,-9.32505 -9.68478,-17.11486 -9.46075,-17.31068 0.22402,-0.19581 3.70798,-2.01408 7.74211,-4.04061 4.03411,-2.02652 9.77145,-5.88597 12.74965,-8.57659 l 5.41488,-4.892 6.67689,11.50043 c 3.67227,6.32524 10.80738,18.69542 15.85578,27.4893 l 9.17888,15.98885 24.12375,0.71098 c 13.26807,0.39102 25.23384,1.24503 26.59061,1.89776 3.29872,1.58699 5.165,5.33358 5.165,10.36884 0,10.537 -4.31622,12.69321 -25.40887,12.69321 h -15.83341 l 4.65515,12.39341 c 5.4539,14.51989 7.85642,28.97525 6.10162,36.71168 -1.12793,4.97269 -0.67922,6.35318 5.72739,17.62109 7.24974,12.7508 7.8154,16.9427 2.51338,18.6255 -1.47194,0.4671 -3.63894,0.3106 -4.81558,-0.3479 -1.17662,-0.6584 -12.92837,-19.8976 -26.11496,-42.75358 l -23.97564,-41.5564 -27.33602,-0.37623 -27.33601,-0.37623 v 5.48066 c 0,5.55315 -2.72096,9.84171 -6.24424,9.84171 -3.5233,0 -6.24426,-4.28856 -6.24426,-9.84171 v -5.48066 l -27.33601,0.37623 -27.33602,0.37623 -23.95009,41.51213 c -13.17256,22.83165 -24.75558,42.02315 -25.74006,42.64775 -2.69457,1.7095 -4.82415,1.4147 -7.2413,-1.0024 z m 106.1159,-154.74755 c -16.68411,-3.27052 -31.93557,-15.29183 -39.9346,-31.47678 -5.0586,-10.23536 -5.22417,-11.04112 -5.18154,-25.2151 0.0556,-18.50057 3.14694,-27.14331 13.83945,-38.69248 22.86717,-24.69928 58.39066,-26.17059 82.70697,-3.42556 12.98606,12.14695 18.60337,26.70918 17.60924,45.6498 -1.83636,34.9875 -34.28509,59.97285 -69.03952,53.16012 z m 27.53981,-24.77252 c 6.2661,-3.19673 14.95787,-12.52364 17.6295,-18.91772 2.78876,-6.67445 2.43121,-20.89177 -0.69878,-27.78382 -5.9942,-13.19899 -17.83125,-20.67384 -32.73869,-20.67384 -14.90744,0 -26.74449,7.47485 -32.7387,20.67384 -3.56654,7.85335 -3.51611,21.74855 0.10596,29.23098 8.76389,18.10377 31.28095,26.22477 48.4406,17.47056 z M 242.9794,731.76901 c 0,-10.97907 2.11043,-16.79024 7.01959,-19.32885 4.97434,-2.57235 7.36763,-2.56378 12.41126,0.0444 4.74663,2.45457 6.91449,8.75158 6.926,20.11811 l 0.008,7.63186 h -13.18224 -13.1823 v -8.4655 z"
         style="fill:#ffffff;stroke-width:1.38760996" />
    </g>
  </g>
</svg>
