<?xml version="1.0" encoding="UTF-8" standalone="no"?>
<svg
   xmlns:dc="http://purl.org/dc/elements/1.1/"
   xmlns:cc="http://creativecommons.org/ns#"
   xmlns:rdf="http://www.w3.org/1999/02/22-rdf-syntax-ns#"
   xmlns:svg="http://www.w3.org/2000/svg"
   xmlns="http://www.w3.org/2000/svg"
   xmlns:sodipodi="http://sodipodi.sourceforge.net/DTD/sodipodi-0.dtd"
   xmlns:inkscape="http://www.inkscape.org/namespaces/inkscape"
   viewBox="0 0 512 512"
   id="svg2"
   version="1.1"
   inkscape:version="0.92.3 (2405546, 2018-03-11)"
   sodipodi:docname="preferences-system-privacy.svg"
   width="512"
   height="512">
  <metadata
     id="metadata76">
    <rdf:RDF>
      <cc:Work
         rdf:about="">
        <dc:format>image/svg+xml</dc:format>
        <dc:type
           rdf:resource="http://purl.org/dc/dcmitype/StillImage" />
        <dc:title></dc:title>
      </cc:Work>
    </rdf:RDF>
  </metadata>
  <sodipodi:namedview
     pagecolor="#ffffff"
     bordercolor="#666666"
     borderopacity="1"
     objecttolerance="10"
     gridtolerance="10"
     guidetolerance="10"
     inkscape:pageopacity="0"
     inkscape:pageshadow="2"
     inkscape:window-width="1366"
     inkscape:window-height="711"
     id="namedview74"
     showgrid="false"
     inkscape:zoom="0.39590615"
     inkscape:cx="-71.351507"
     inkscape:cy="470.00984"
     inkscape:window-x="0"
     inkscape:window-y="28"
     inkscape:window-maximized="1"
     inkscape:current-layer="svg2" />
  <defs
     id="defs4">
    <linearGradient
       id="linearGradient3764"
       x1="1"
       x2="47"
       gradientUnits="userSpaceOnUse"
       gradientTransform="rotate(-90,23.999998,24)">
      <stop
         stop-color="#8358b4"
         stop-opacity="1"
         id="stop7" />
      <stop
         offset="1"
         stop-color="#8d65ba"
         stop-opacity="1"
         id="stop9" />
    </linearGradient>
    <clipPath
       id="clipPath-057129763">
      <g
         transform="translate(0,-1004.3622)"
         id="g12">
        <path
           d="m -24,13 c 0,1.105 -0.672,2 -1.5,2 -0.828,0 -1.5,-0.895 -1.5,-2 0,-1.105 0.672,-2 1.5,-2 0.828,0 1.5,0.895 1.5,2 z"
           transform="matrix(15.8a715e,0,0,11.5,414.99999,878.8622)"
           id="path14"
           inkscape:connector-curvature="0"
           style="fill:#1890d0" />
      </g>
    </clipPath>
    <clipPath
       id="clipPath-064426159">
      <g
         transform="translate(0,-1004.3622)"
         id="g17">
        <path
           d="m -24,13 c 0,1.105 -0.672,2 -1.5,2 -0.828,0 -1.5,-0.895 -1.5,-2 0,-1.105 0.672,-2 1.5,-2 0.828,0 1.5,0.895 1.5,2 z"
           transform="matrix(15.8a715e,0,0,11.5,414.99999,878.8622)"
           id="path19"
           inkscape:connector-curvature="0"
           style="fill:#1890d0" />
      </g>
    </clipPath>
  </defs>
  <g
     id="g21"
     transform="matrix(9.7826087,0,0,9.7826087,21.217391,21.217391)" />
  <g
     id="g33"
     transform="matrix(9.7826087,0,0,9.7826087,21.217391,21.217391)" />
  <g
     id="g70"
     transform="matrix(9.7826087,0,0,9.7826087,21.217391,21.217391)" />
  <g
     transform="scale(8)"
     id="g855">
    <path
       style="fill:#c6262e;fill-opacity:1;stroke-width:1.38869476"
       inkscape:connector-curvature="0"
       d="m 54.114159,7.059245 c 12.774113,11.071824 13.228347,31.212464 1.0146,44.987349 C 42.915013,65.821478 22.659955,68.012578 9.8858411,56.940752 -2.8882733,45.868927 -3.3425053,25.728287 8.871241,11.953403 21.084987,-1.8214825 41.340045,-4.0125788 54.114159,7.059245 Z"
       id="path27" />
    <path
       style="opacity:1;fill:#000000;fill-opacity:0.49019608;stroke-width:1.38869476"
       inkscape:connector-curvature="0"
       d="M 63.954439,28.112939 C 63.760515,35.776895 60.809285,43.632266 55.083641,50.089748 42.869894,63.86464 22.614836,66.055728 9.840722,54.983911 3.8533905,49.794454 0.56210282,42.615354 0.02422858,35.0286 0.09988504,43.323184 3.3896765,51.310272 9.8848355,56.939883 22.658949,68.011703 42.914969,65.819528 55.127752,52.045721 61.340871,45.038457 64.25338,36.38435 63.954439,28.112939 Z"
       id="path51" />
    <g
       style="fill:#000000;fill-opacity:0.49019608"
       transform="matrix(0.125,0,0,0.125,2.5314508,58.500038)"
       id="g857">
      <path
         inkscape:connector-curvature="0"
         id="path853"
         d="m 255.10938,-296.125 c -102.9341,0.7672 -151.85938,93.25 -151.85938,93.25 0,0 -3.588376,5.86692 -3.5,9.375 0.0884,3.50808 3.25,8.375 3.25,8.375 0,0 47.86509,91.149984 150,93.125 102.13491,1.975016 154.5,-89 154.5,-89 0,0 4.77401,-6.71741 4.75,-12.39062 -0.024,-5.67322 -4.89062,-12.34376 -4.89062,-12.34376 0,0 -49.31591,-91.15783 -152.25,-90.39062 z m 1.07812,24.51562 a 78,78 0 0 1 78,78 78,78 0 0 1 -78,78 78,78 0 0 1 -78,-78 78,78 0 0 1 78,-78 z"
         style="fill:#000000;fill-opacity:0.49019608;stroke:none;stroke-width:8px;stroke-linecap:butt;stroke-linejoin:miter;stroke-opacity:1" />
      <circle
         r="46.799999"
         cy="-193.51781"
         cx="256.11618"
         id="circle855"
         style="opacity:1;fill:#000000;fill-opacity:0.49019608;stroke:none;stroke-width:197.58013916;stroke-miterlimit:4;stroke-dasharray:none;stroke-dashoffset:0;stroke-opacity:1" />
    </g>
    <g
       transform="matrix(0.125,0,0,0.125,0.03145075,56)"
       id="g851">
      <path
         style="fill:#ffffff;fill-opacity:1;stroke:none;stroke-width:8px;stroke-linecap:butt;stroke-linejoin:miter;stroke-opacity:1"
         d="m 255.10938,-296.125 c -102.9341,0.7672 -151.85938,93.25 -151.85938,93.25 0,0 -3.588376,5.86692 -3.5,9.375 0.0884,3.50808 3.25,8.375 3.25,8.375 0,0 47.86509,91.149984 150,93.125 102.13491,1.975016 154.5,-89 154.5,-89 0,0 4.77401,-6.71741 4.75,-12.39062 -0.024,-5.67322 -4.89062,-12.34376 -4.89062,-12.34376 0,0 -49.31591,-91.15783 -152.25,-90.39062 z m 1.07812,24.51562 a 78,78 0 0 1 78,78 78,78 0 0 1 -78,78 78,78 0 0 1 -78,-78 78,78 0 0 1 78,-78 z"
         id="path843"
         inkscape:connector-curvature="0" />
      <circle
         style="opacity:1;fill:#ffffff;fill-opacity:1;stroke:none;stroke-width:197.58013916;stroke-miterlimit:4;stroke-dasharray:none;stroke-dashoffset:0;stroke-opacity:1"
         id="path841"
         cx="256.11618"
         cy="-193.51781"
         r="46.799999" />
    </g>
  </g>
</svg>
