<?xml version="1.0" encoding="UTF-8" standalone="no"?>
<!-- Generator: Adobe Illustrator 19.0.0, SVG Export Plug-In . SVG Version: 6.00 Build 0)  -->

<svg
   xmlns:dc="http://purl.org/dc/elements/1.1/"
   xmlns:cc="http://creativecommons.org/ns#"
   xmlns:rdf="http://www.w3.org/1999/02/22-rdf-syntax-ns#"
   xmlns:svg="http://www.w3.org/2000/svg"
   xmlns="http://www.w3.org/2000/svg"
   xmlns:sodipodi="http://sodipodi.sourceforge.net/DTD/sodipodi-0.dtd"
   xmlns:inkscape="http://www.inkscape.org/namespaces/inkscape"
   version="1.1"
   id="Layer_1"
   x="0px"
   y="0px"
   viewBox="0 0 512 512"
   xml:space="preserve"
   inkscape:version="0.92.3 (2405546, 2018-03-11)"
   width="512"
   height="512"
   sodipodi:docname="prozgui-icon.svg"><metadata
     id="metadata57"><rdf:RDF><cc:Work
         rdf:about=""><dc:format>image/svg+xml</dc:format><dc:type
           rdf:resource="http://purl.org/dc/dcmitype/StillImage" /><dc:title></dc:title></cc:Work></rdf:RDF></metadata><defs
     id="defs55" /><sodipodi:namedview
     pagecolor="#ffffff"
     bordercolor="#666666"
     borderopacity="1"
     objecttolerance="10"
     gridtolerance="10"
     guidetolerance="10"
     inkscape:pageopacity="0"
     inkscape:pageshadow="2"
     inkscape:window-width="1366"
     inkscape:window-height="711"
     id="namedview53"
     showgrid="false"
     inkscape:zoom="0.52559509"
     inkscape:cx="-160.13473"
     inkscape:cy="244.53415"
     inkscape:window-x="0"
     inkscape:window-y="28"
     inkscape:window-maximized="1"
     inkscape:current-layer="Layer_1"
     units="px" /><g
     id="g23"
     transform="translate(0,550.767)" /><g
     id="g25"
     transform="translate(0,550.767)" /><g
     id="g27"
     transform="translate(0,550.767)" /><g
     id="g29"
     transform="translate(0,550.767)" /><g
     id="g31"
     transform="translate(0,550.767)" /><g
     id="g33"
     transform="translate(0,550.767)" /><g
     id="g35"
     transform="translate(0,550.767)" /><g
     id="g37"
     transform="translate(0,550.767)" /><g
     id="g39"
     transform="translate(0,550.767)" /><g
     id="g41"
     transform="translate(0,550.767)" /><g
     id="g43"
     transform="translate(0,550.767)" /><g
     id="g45"
     transform="translate(0,550.767)" /><g
     id="g47"
     transform="translate(0,550.767)" /><g
     id="g49"
     transform="translate(0,550.767)" /><g
     id="g51"
     transform="translate(0,550.767)" /><g
     id="g861"><path
       id="path901"
       d="M 432.91381,56.473974 C 535.10672,145.04856 538.74059,306.17368 441.03061,416.37276 343.32045,526.57184 181.27967,544.10061 79.086757,455.52602 -23.106193,366.95143 -26.740053,205.82631 70.969957,95.627234 168.67993,-14.57185 330.72064,-32.10062 432.91381,56.473974 Z"
       inkscape:connector-curvature="0"
       style="fill:#68b723;fill-opacity:1;stroke-width:11.10955811" /><path
       id="path903"
       d="m 511.63554,224.90352 c -1.5514,61.31166 -25.16123,124.1546 -70.96638,175.81449 C 342.95919,510.9171 180.91872,528.44585 78.725812,439.87127 30.827158,398.35564 4.4968559,340.92283 0.193862,280.22879 0.79911356,346.58547 27.117445,410.48219 79.078716,455.51904 181.27163,544.09362 343.31978,526.5562 441.02206,416.36578 490.727,360.30764 514.02708,291.07481 511.63554,224.90352 Z"
       inkscape:connector-curvature="0"
       style="opacity:1;fill:#000000;fill-opacity:0.49019608;stroke-width:11.10955811" /><g
       id="g851"
       transform="matrix(0.71506299,0,0,0.71506299,98.393482,89.861246)"
       style="fill:#000000;fill-opacity:0.49019608"><path
         inkscape:connector-curvature="0"
         id="path847"
         d="m 121.50117,98.431154 154.09564,53.598476 55.27346,56.94838 60.29826,29.31167 44.38625,35.17402 30.98666,15.07456 -3.3499,25.12427 -279.71712,-68.67305 -27.63668,16.74955 190.1071,139.85851 51.08603,20.09946 -68.67304,0.83746 -127.29641,-78.72275 -40.19888,-4.18741 -130.646295,-86.26006 78.722805,-15.91201 -3.34991,-41.03635 185.08222,38.5239 -19.2619,-33.49903 -28.47423,2.51238 -31.82411,-25.96173 -12.56213,-27.63676 z"
         style="fill:#000000;fill-opacity:0.49019608;fill-rule:evenodd;stroke:none;stroke-width:7.04277515px;stroke-linecap:butt;stroke-linejoin:miter;stroke-opacity:1" /><path
         inkscape:connector-curvature="0"
         id="path849"
         d="m 173.41353,262.92876 113.1074,55.07323 49.74353,39.08424 93.56524,15.98899 L 341.00193,342.2816 290.074,297.86769 Z"
         style="fill:#000000;fill-opacity:0.49019608;fill-rule:evenodd;stroke:none;stroke-width:7.04277515px;stroke-linecap:butt;stroke-linejoin:miter;stroke-opacity:1" /></g><g
       style="fill:#ffffff"
       transform="matrix(0.71506299,0,0,0.71506299,78.393482,69.861246)"
       id="g4175"><path
         style="fill:#ffffff;fill-opacity:1;fill-rule:evenodd;stroke:none;stroke-width:7.04277515px;stroke-linecap:butt;stroke-linejoin:miter;stroke-opacity:1"
         d="m 121.50117,98.431154 154.09564,53.598476 55.27346,56.94838 60.29826,29.31167 44.38625,35.17402 30.98666,15.07456 -3.3499,25.12427 -279.71712,-68.67305 -27.63668,16.74955 190.1071,139.85851 51.08603,20.09946 -68.67304,0.83746 -127.29641,-78.72275 -40.19888,-4.18741 -130.646295,-86.26006 78.722805,-15.91201 -3.34991,-41.03635 185.08222,38.5239 -19.2619,-33.49903 -28.47423,2.51238 -31.82411,-25.96173 -12.56213,-27.63676 z"
         id="path3371"
         inkscape:connector-curvature="0" /><path
         style="fill:#ffffff;fill-opacity:1;fill-rule:evenodd;stroke:none;stroke-width:7.04277515px;stroke-linecap:butt;stroke-linejoin:miter;stroke-opacity:1"
         d="m 173.41353,262.92876 113.1074,55.07323 49.74353,39.08424 93.56524,15.98899 L 341.00193,342.2816 290.074,297.86769 Z"
         id="path3373"
         inkscape:connector-curvature="0" /></g></g></svg>