<?xml version="1.0" encoding="UTF-8" standalone="no"?>
<!-- Created with Inkscape (http://www.inkscape.org/) -->

<svg
   xmlns:dc="http://purl.org/dc/elements/1.1/"
   xmlns:cc="http://creativecommons.org/ns#"
   xmlns:rdf="http://www.w3.org/1999/02/22-rdf-syntax-ns#"
   xmlns:svg="http://www.w3.org/2000/svg"
   xmlns="http://www.w3.org/2000/svg"
   xmlns:sodipodi="http://sodipodi.sourceforge.net/DTD/sodipodi-0.dtd"
   xmlns:inkscape="http://www.inkscape.org/namespaces/inkscape"
   id="svg2"
   version="1.1"
   inkscape:version="0.92.3 (2405546, 2018-03-11)"
   width="512"
   height="512"
   sodipodi:docname="psensor.svg">
  <metadata
     id="metadata8">
    <rdf:RDF>
      <cc:Work
         rdf:about="">
        <dc:format>image/svg+xml</dc:format>
        <dc:type
           rdf:resource="http://purl.org/dc/dcmitype/StillImage" />
        <dc:title />
      </cc:Work>
    </rdf:RDF>
  </metadata>
  <defs
     id="defs6" />
  <sodipodi:namedview
     pagecolor="#ffffff"
     bordercolor="#666666"
     borderopacity="1"
     objecttolerance="10"
     gridtolerance="10"
     guidetolerance="10"
     inkscape:pageopacity="0"
     inkscape:pageshadow="2"
     inkscape:window-width="1154"
     inkscape:window-height="655"
     id="namedview4"
     showgrid="false"
     inkscape:zoom="0.32593203"
     inkscape:cx="177.16031"
     inkscape:cy="159.2249"
     inkscape:window-x="196"
     inkscape:window-y="47"
     inkscape:window-maximized="0"
     inkscape:current-layer="svg2"
     showguides="true"
     inkscape:guide-bbox="true" />
  <g
     id="g882">
    <path
       id="path881"
       d="m 432.91329,56.47397 c 102.19291,88.57459 105.82677,249.69971 8.1168,359.89879 C 343.32012,526.57182 181.27964,544.10062 79.086727,455.52602 -23.106181,366.95143 -26.740046,205.82631 70.969927,95.62723 168.6799,-14.57185 330.72038,-32.10062 432.91329,56.47397 Z"
       inkscape:connector-curvature="0"
       style="fill:#3689e6;fill-opacity:1;stroke-width:11.10955811" />
    <path
       id="path883"
       d="m 511.63551,224.90352 c -1.5514,61.31166 -25.16123,124.1546 -70.96638,175.81449 C 342.95916,510.91712 180.91869,528.44582 78.72578,439.87127 30.827126,398.35564 4.496824,340.92283 0.19383011,280.22879 0.79908167,346.58547 27.117413,410.48219 79.078684,455.51904 181.2716,544.09362 343.31975,526.55622 441.02203,416.36578 490.72697,360.30764 514.02705,291.07481 511.63551,224.90352 Z"
       inkscape:connector-curvature="0"
       style="opacity:1;fill:#000000;fill-opacity:0.49019608;stroke-width:11.10955811" />
    <g
       style="fill:#000000;fill-opacity:0.49019608"
       transform="translate(20,20)"
       id="g57">
      <path
         style="fill:#000000;stroke-width:0.94450641;fill-opacity:0.49019608"
         id="path43"
         d="m 240.73924,136.30643 v 22.68427 43.32898 20.58099 43.32898 16.89008 c -6.06073,3.83575 -11.39718,8.65652 -16.00935,14.10307 -7.40499,8.74344 -12.66032,19.29467 -15.04173,30.941 -0.92707,4.53106 -1.55285,9.1722 -1.55285,13.97559 0,0.33027 0.0464,0.64896 0.0464,0.97343 0.52727,38.1316 31.56098,68.88718 69.81426,68.88718 4.87291,0 9.62416,-0.5041 14.21316,-1.45435 31.76957,-6.55902 55.65324,-34.68984 55.65324,-68.40047 0,-25.66248 -13.8771,-48.03387 -34.49863,-60.17849 V 136.30643 c 0,-17.2725 -12.06931,-31.69424 -28.22353,-35.37356 C 282.53862,100.34186 279.83853,100 277.05152,100 c -13.62794,0 -25.48288,7.51508 -31.69426,18.62255 -2.93186,5.23215 -4.61797,11.25812 -4.61797,17.68388 z m 36.66567,-9.57202 c 12.5792,0 16.50187,10.19779 16.50187,22.78278 v 18.30386 26.67648 7.82215 20.58099 1.97002 5.85214 26.67647 46.28982 c 17.28988,4.42676 26.43312,19.39317 27.67308,34.29005 0.15065,1.14145 0.24915,2.29449 0.24915,3.46492 0,24.20814 -19.62494,43.83308 -43.83309,43.83308 -24.20815,0 -43.82729,-19.62494 -43.82729,-43.83308 0,-1.17623 0.10429,-2.33506 0.26073,-3.48231 0.18542,-2.2945 0.53886,-4.51368 1.07193,-6.65174 1.72667,-6.93565 5.09889,-13.01376 9.88489,-17.73023 2.07433,-2.04535 4.45574,-3.74884 6.98201,-5.26692 2.65375,-1.59341 5.46393,-2.96663 8.53486,-3.90529 v -16.61775 -1.07772 -20.58098 -39.30782 -1.95843 -26.47367 -39.30782 -9.57202 c 0,-4.01537 0.46353,-7.72945 1.41378,-11.00316 0.42878,-1.48332 0.96764,-2.85655 1.63976,-4.11389 1.43117,-2.67112 3.42437,-4.78021 6.14764,-6.08969 2.03377,-0.97922 4.41518,-1.57024 7.30068,-1.57024 z"
         inkscape:connector-curvature="0" />
      <rect
         ry="4.8848124"
         y="142.31802"
         x="165.02095"
         height="9.7696247"
         width="44.055622"
         id="rect45"
         style="fill:#000000;fill-rule:evenodd;stroke:none;stroke-width:0.94450641;fill-opacity:0.49019608" />
      <rect
         ry="4.8848124"
         y="173.74808"
         x="165"
         height="9.7696247"
         width="44.055622"
         id="rect47"
         style="fill:#000000;fill-rule:evenodd;stroke:none;stroke-width:0.94450641;fill-opacity:0.49019608" />
      <rect
         ry="4.8848124"
         y="205.05348"
         x="165.02097"
         height="9.7696247"
         width="44.055622"
         id="rect49"
         style="fill:#000000;fill-opacity:0.49019608;fill-rule:evenodd;stroke:none;stroke-width:0.94450641" />
      <rect
         ry="4.8848124"
         y="234.79742"
         x="165.02098"
         height="9.7696247"
         width="44.055622"
         id="rect51"
         style="fill:#000000;fill-opacity:0.49019608;fill-rule:evenodd;stroke:none;stroke-width:0.94450641" />
      <rect
         ry="4.8848124"
         y="266.30231"
         x="165.02097"
         height="9.7696247"
         width="44.055622"
         id="rect53"
         style="fill:#000000;fill-opacity:0.49019608;fill-rule:evenodd;stroke:none;stroke-width:0.94450641" />
      <rect
         ry="4.8848124"
         y="110.47476"
         x="165.02098"
         height="9.7696247"
         width="44.055622"
         id="rect55"
         style="fill:#000000;fill-rule:evenodd;stroke:none;stroke-width:0.94450641;fill-opacity:0.49019608" />
    </g>
    <g
       id="g41">
      <path
         inkscape:connector-curvature="0"
         d="m 240.73924,136.30643 v 22.68427 43.32898 20.58099 43.32898 16.89008 c -6.06073,3.83575 -11.39718,8.65652 -16.00935,14.10307 -7.40499,8.74344 -12.66032,19.29467 -15.04173,30.941 -0.92707,4.53106 -1.55285,9.1722 -1.55285,13.97559 0,0.33027 0.0464,0.64896 0.0464,0.97343 0.52727,38.1316 31.56098,68.88718 69.81426,68.88718 4.87291,0 9.62416,-0.5041 14.21316,-1.45435 31.76957,-6.55902 55.65324,-34.68984 55.65324,-68.40047 0,-25.66248 -13.8771,-48.03387 -34.49863,-60.17849 V 136.30643 c 0,-17.2725 -12.06931,-31.69424 -28.22353,-35.37356 C 282.53862,100.34186 279.83853,100 277.05152,100 c -13.62794,0 -25.48288,7.51508 -31.69426,18.62255 -2.93186,5.23215 -4.61797,11.25812 -4.61797,17.68388 z m 36.66567,-9.57202 c 12.5792,0 16.50187,10.19779 16.50187,22.78278 v 18.30386 26.67648 7.82215 20.58099 1.97002 5.85214 26.67647 46.28982 c 17.28988,4.42676 26.43312,19.39317 27.67308,34.29005 0.15065,1.14145 0.24915,2.29449 0.24915,3.46492 0,24.20814 -19.62494,43.83308 -43.83309,43.83308 -24.20815,0 -43.82729,-19.62494 -43.82729,-43.83308 0,-1.17623 0.10429,-2.33506 0.26073,-3.48231 0.18542,-2.2945 0.53886,-4.51368 1.07193,-6.65174 1.72667,-6.93565 5.09889,-13.01376 9.88489,-17.73023 2.07433,-2.04535 4.45574,-3.74884 6.98201,-5.26692 2.65375,-1.59341 5.46393,-2.96663 8.53486,-3.90529 v -16.61775 -1.07772 -20.58098 -39.30782 -1.95843 -26.47367 -39.30782 -9.57202 c 0,-4.01537 0.46353,-7.72945 1.41378,-11.00316 0.42878,-1.48332 0.96764,-2.85655 1.63976,-4.11389 1.43117,-2.67112 3.42437,-4.78021 6.14764,-6.08969 2.03377,-0.97922 4.41518,-1.57024 7.30068,-1.57024 z"
         id="path3775"
         style="fill:#ffffff;stroke-width:0.94450641" />
      <rect
         style="fill:#ffffff;fill-rule:evenodd;stroke:none;stroke-width:0.94450641"
         id="rect3917-77"
         width="44.055622"
         height="9.7696247"
         x="165.02095"
         y="142.31802"
         ry="4.8848124" />
      <rect
         style="fill:#ffffff;fill-rule:evenodd;stroke:none;stroke-width:0.94450641"
         id="rect3917-77-8"
         width="44.055622"
         height="9.7696247"
         x="165"
         y="173.74808"
         ry="4.8848124" />
      <rect
         style="fill:#ffffff;fill-opacity:1;fill-rule:evenodd;stroke:none;stroke-width:0.94450641"
         id="rect3917-77-8-8"
         width="44.055622"
         height="9.7696247"
         x="165.02097"
         y="205.05348"
         ry="4.8848124" />
      <rect
         style="fill:#ffffff;fill-opacity:1;fill-rule:evenodd;stroke:none;stroke-width:0.94450641"
         id="rect3917-77-8-1"
         width="44.055622"
         height="9.7696247"
         x="165.02098"
         y="234.79742"
         ry="4.8848124" />
      <rect
         style="fill:#ffffff;fill-opacity:1;fill-rule:evenodd;stroke:none;stroke-width:0.94450641"
         id="rect3917-77-8-89"
         width="44.055622"
         height="9.7696247"
         x="165.02097"
         y="266.30231"
         ry="4.8848124" />
      <rect
         style="fill:#ffffff;fill-rule:evenodd;stroke:none;stroke-width:0.94450641"
         id="rect3917-77-9"
         width="44.055622"
         height="9.7696247"
         x="165.02098"
         y="110.47476"
         ry="4.8848124" />
    </g>
  </g>
</svg>
