<?xml version="1.0" encoding="UTF-8" standalone="no"?>
<svg
   xmlns:dc="http://purl.org/dc/elements/1.1/"
   xmlns:cc="http://creativecommons.org/ns#"
   xmlns:rdf="http://www.w3.org/1999/02/22-rdf-syntax-ns#"
   xmlns:svg="http://www.w3.org/2000/svg"
   xmlns="http://www.w3.org/2000/svg"
   xmlns:sodipodi="http://sodipodi.sourceforge.net/DTD/sodipodi-0.dtd"
   xmlns:inkscape="http://www.inkscape.org/namespaces/inkscape"
   viewBox="0 0 512 512"
   id="svg2"
   version="1.1"
   inkscape:version="0.92.3 (2405546, 2018-03-11)"
   width="512"
   height="512"
   sodipodi:docname="pstree.svg">
  <metadata
     id="metadata40">
    <rdf:RDF>
      <cc:Work
         rdf:about="">
        <dc:format>image/svg+xml</dc:format>
        <dc:type
           rdf:resource="http://purl.org/dc/dcmitype/StillImage" />
        <dc:title></dc:title>
      </cc:Work>
    </rdf:RDF>
  </metadata>
  <sodipodi:namedview
     pagecolor="#ffffff"
     bordercolor="#666666"
     borderopacity="1"
     objecttolerance="10"
     gridtolerance="10"
     guidetolerance="10"
     inkscape:pageopacity="0"
     inkscape:pageshadow="2"
     inkscape:window-width="1081"
     inkscape:window-height="659"
     id="namedview38"
     showgrid="false"
     inkscape:zoom="0.15364584"
     inkscape:cx="-1586.0859"
     inkscape:cy="-491.61008"
     inkscape:window-x="27"
     inkscape:window-y="68"
     inkscape:window-maximized="0"
     inkscape:current-layer="svg2"
     units="px" />
  <defs
     id="defs4">
    <clipPath
       id="clipPath6">
      <g
         transform="translate(0,-1004.3622)"
         id="g8">
        <path
           d="m -24,13 c 0,1.105 -0.672,2 -1.5,2 -0.828,0 -1.5,-0.895 -1.5,-2 0,-1.105 0.672,-2 1.5,-2 0.828,0 1.5,0.895 1.5,2 z"
           transform="matrix(15.333333,0,0,11.5,414.99999,878.8622)"
           id="path10"
           inkscape:connector-curvature="0"
           style="fill:#1890d0" />
      </g>
    </clipPath>
    <clipPath
       id="clipPath12">
      <g
         transform="translate(0,-1004.3622)"
         id="g14">
        <path
           d="m -24,13 c 0,1.105 -0.672,2 -1.5,2 -0.828,0 -1.5,-0.895 -1.5,-2 0,-1.105 0.672,-2 1.5,-2 0.828,0 1.5,0.895 1.5,2 z"
           transform="matrix(15.333333,0,0,11.5,414.99999,878.8622)"
           id="path16"
           inkscape:connector-curvature="0"
           style="fill:#1890d0" />
      </g>
    </clipPath>
  </defs>
  <g
     id="g983">
    <text
       id="text4161"
       y="576.87048"
       x="204.22202"
       style="font-style:normal;font-weight:normal;line-height:0%;font-family:sans-serif;letter-spacing:0px;word-spacing:0px;fill:#000000;fill-opacity:1;stroke:none;stroke-width:1px;stroke-linecap:butt;stroke-linejoin:miter;stroke-opacity:1"
       xml:space="preserve"><tspan
         style="font-size:40px;line-height:1.25"
         y="576.87048"
         x="204.22202"
         id="tspan4163"
         sodipodi:role="line"> </tspan></text>
    <path
       style="fill:#333333;fill-opacity:1;stroke-width:11.10955906"
       inkscape:connector-curvature="0"
       d="M 432.91328,56.473922 C 535.10619,145.04851 538.74005,306.17367 441.03008,416.37276 343.32006,526.57182 181.27962,544.10062 79.086743,455.52602 -23.106206,366.95143 -26.740032,205.82627 70.969943,95.627182 168.67988,-14.571898 330.72033,-32.100668 432.91328,56.473922 Z"
       id="path870" />
    <path
       style="opacity:1;fill:#000000;fill-opacity:0.49019608;stroke-width:11.10955906"
       inkscape:connector-curvature="0"
       d="M 511.63551,224.90351 C 510.08413,286.21512 486.47429,349.05808 440.66913,400.71795 342.95912,510.91712 180.91867,528.44582 78.72576,439.87125 30.827126,398.35564 4.4968185,340.9228 0.1938262,280.2288 0.79907976,346.58544 27.117406,410.48217 79.078693,455.51903 181.27157,544.09362 343.31972,526.55612 441.02203,416.36577 490.72697,360.30762 514.02704,291.07476 511.63551,224.90351 Z"
       id="path872" />
    <g
       aria-label="Process
|
Process"
       transform="matrix(2.2461192,0,0,2.2461192,-147.98131,-110.21719)"
       style="font-style:normal;font-weight:normal;font-size:40px;line-height:1.25;font-family:sans-serif;letter-spacing:0px;word-spacing:0px;fill:#000000;fill-opacity:0.49019608;stroke:none"
       id="g140">
      <path
         inkscape:connector-curvature="0"
         d="m 125.42188,124.0293 q -0.54688,0 -2.38282,-0.25391 -0.15625,2.94922 -0.15625,10.33203 0,0.78125 -0.50781,1.32813 -0.50781,0.52734 -1.26953,0.52734 -0.78125,0 -1.28906,-0.52734 -0.50782,-0.54688 -0.50782,-1.32813 v -5.74219 q 0,-2.87109 0.35157,-8.08593 0.39062,-5.64453 0.42968,-8.08594 v -2.69531 q 0,-1.9336 0.23438,-2.8125 0.44922,-1.71875 1.91406,-1.48438 0.625,-0.19531 1.77735,-0.29297 1.15234,-0.0976 2.83203,-0.0976 3.57421,0 6.69921,2.4414 3.4375,2.69532 3.4375,6.48438 0,4.84375 -3.67187,7.71484 -3.28125,2.57813 -7.89062,2.57813 z m 0.97656,-15.50782 q -0.85938,0 -1.54297,0.0391 -0.66406,0.0391 -1.13281,0.11718 l -0.0391,3.59375 -0.41015,7.77344 2.14844,0.25391 q 3.28124,0 5.52734,-1.66016 2.46094,-1.8164 2.46094,-4.90234 0,-2.1875 -2.34375,-3.76953 -2.16797,-1.44532 -4.66797,-1.44532 z"
         style="font-style:normal;font-variant:normal;font-weight:normal;font-stretch:normal;font-family:'Comic Sans MS';-inkscape-font-specification:'Comic Sans MS';fill:#000000;fill-opacity:0.49019608"
         id="path110" />
      <path
         inkscape:connector-curvature="0"
         d="m 156.125,121.06055 q -0.13672,2.4414 -1.95313,2.4414 -1.67968,0 -1.67968,-1.93359 0,-0.37109 -0.0586,-1.36719 l -0.0586,-1.64062 q -3.08594,0.37109 -4.94141,1.73828 -1.73828,1.26953 -2.89062,3.82812 l 0.0391,10.70313 q 0,1.97265 -1.93359,1.97265 -1.71875,0 -1.71875,-1.97265 v -13.71094 q 0,-0.64453 0.0391,-1.93359 0.0586,-1.28907 0.0586,-1.9336 0,-1.97265 1.71875,-1.97265 1.91407,0 1.9336,3.24218 3.75,-3.61328 8.32031,-3.61328 1.58203,0 2.36328,1.19141 0.78125,1.19141 0.78125,3.59375 0,1.01562 -0.0195,1.36719 z"
         style="font-style:normal;font-variant:normal;font-weight:normal;font-stretch:normal;font-family:'Comic Sans MS';-inkscape-font-specification:'Comic Sans MS';fill:#000000;fill-opacity:0.49019608"
         id="path112" />
      <path
         inkscape:connector-curvature="0"
         d="m 167.47266,136.64648 q -3.28125,0 -5.64454,-2.42187 -2.63671,-2.69531 -2.77343,-7.24609 -0.11719,-4.41407 2.22656,-7.77344 2.73437,-3.96485 7.61719,-3.96485 3.90625,0 5.91797,3.57422 1.60156,2.89063 1.54296,6.95313 -0.0586,4.33594 -2.26562,7.40234 -2.5,3.47656 -6.62109,3.47656 z m 1.17187,-17.4414 q -2.87109,-0.0195 -4.47266,2.73437 -1.26953,2.20703 -1.26953,5.03907 0,2.83203 1.54297,4.41406 1.28906,1.30859 3.02735,1.30859 2.03125,0 3.49609,-1.48437 1.66016,-1.64063 1.75781,-4.4336 0.27344,-7.55859 -4.08203,-7.57812 z"
         style="font-style:normal;font-variant:normal;font-weight:normal;font-stretch:normal;font-family:'Comic Sans MS';-inkscape-font-specification:'Comic Sans MS';fill:#000000;fill-opacity:0.49019608"
         id="path114" />
      <path
         inkscape:connector-curvature="0"
         d="m 189.99219,136.72461 q -4.00391,0 -6.67969,-2.42188 -2.8125,-2.53906 -2.8125,-6.69921 0,-3.96485 2.63672,-8.1836 2.92969,-4.6875 6.60156,-4.6875 1.91406,0 4.27734,0.89844 2.98829,1.15234 2.98829,2.8125 0,0.74219 -0.48829,1.32812 -0.48828,0.56641 -1.21093,0.56641 -0.56641,0 -0.9961,-0.33203 -0.41015,-0.35156 -0.80078,-0.68359 -1.15234,-0.91797 -3.76953,-0.91797 -1.99219,0 -3.94531,3.55468 -1.77735,3.26172 -1.77735,5.64454 0,2.57812 1.75782,4.0625 1.64062,1.38671 4.21875,1.38671 1.17187,0 2.5,-0.625 l 2.26562,-1.21093 q 0.58594,-0.3125 0.83985,-0.3125 0.72265,0 1.25,0.58593 0.52734,0.56641 0.52734,1.3086 0,1.42578 -3.00781,2.7539 -2.63672,1.17188 -4.375,1.17188 z"
         style="font-style:normal;font-variant:normal;font-weight:normal;font-stretch:normal;font-family:'Comic Sans MS';-inkscape-font-specification:'Comic Sans MS';fill:#000000;fill-opacity:0.49019608"
         id="path116" />
      <path
         inkscape:connector-curvature="0"
         d="m 210.83203,136.39258 q -4.41406,0 -7.14844,-2.20703 -2.98828,-2.44141 -2.98828,-6.83594 0,-5.07813 2.46094,-8.51563 2.67578,-3.75 7.14844,-3.75 3.24218,0 5.29297,1.09375 2.51953,1.34766 2.51953,4.14063 0,1.95312 -2.20703,3.55469 -0.97657,0.70312 -4.14063,2.1875 l -7.46094,3.53515 q 1.09375,1.6211 2.71485,2.44141 1.64062,0.82031 3.80859,0.82031 1.34766,0 3.16406,-0.50781 2.30469,-0.64453 2.96875,-1.67969 0.66407,-1.05469 1.42578,-1.05469 0.6836,0 1.21094,0.52735 0.54688,0.50781 0.54688,1.1914 0,2.16797 -3.4961,3.73047 -2.98828,1.32813 -5.82031,1.32813 z m -0.52734,-17.79297 q -2.38282,0 -3.96485,1.85547 -1.58203,1.83594 -2.36328,5.54687 l 5.9961,-2.85156 q 3.53515,-1.71875 5.03906,-2.98828 -1.67969,-1.5625 -4.70703,-1.5625 z"
         style="font-style:normal;font-variant:normal;font-weight:normal;font-stretch:normal;font-family:'Comic Sans MS';-inkscape-font-specification:'Comic Sans MS';fill:#000000;fill-opacity:0.49019608"
         id="path118" />
      <path
         inkscape:connector-curvature="0"
         d="m 236.84766,120.45508 q -1.07422,0 -1.50391,-0.72266 -0.29297,-0.50781 -0.50781,-2.10937 -1.46485,0.37109 -4.51172,1.36718 -3.14453,1.25 -3.16406,3.08594 0.58593,0.21485 1.15234,0.3125 4.49219,0.80078 6.67969,2.20703 3.18359,2.05078 3.18359,5.9375 0,3.1836 -2.75391,4.80469 -2.28515,1.32813 -5.78125,1.32813 -2.55859,0 -4.88281,-0.85938 -3.00781,-1.09375 -3.00781,-3.04687 0,-0.78125 0.60547,-1.36719 0.625,-0.58594 1.40625,-0.58594 0.60547,0 1.5625,0.9375 0.46875,0.44922 2.10937,0.74219 1.3086,0.23437 2.20703,0.23437 1.64063,0 2.89063,-0.39062 1.81641,-0.56641 1.81641,-1.79688 0,-2.65625 -3.71094,-3.59375 l -2.03125,-0.44922 q -2.59766,-0.5664 -3.69141,-1.32812 -1.58203,-1.09375 -1.58203,-3.30078 0,-4.08203 3.84766,-5.82031 1.17187,-0.52735 3.75,-1.25 2.57812,-0.74219 3.6914,-1.25 0.80078,-0.35157 1.73828,-0.35157 0.83985,0 1.36719,0.54688 0.54688,0.54687 0.54688,1.42578 0,0.56641 0.23437,1.66016 0.25391,1.09375 0.25391,1.66015 0,0.87891 -0.54688,1.42578 -0.52734,0.54688 -1.36718,0.54688 z"
         style="font-style:normal;font-variant:normal;font-weight:normal;font-stretch:normal;font-family:'Comic Sans MS';-inkscape-font-specification:'Comic Sans MS';fill:#000000;fill-opacity:0.49019608"
         id="path120" />
      <path
         inkscape:connector-curvature="0"
         d="m 256.30078,120.45508 q -1.07422,0 -1.50391,-0.72266 -0.29296,-0.50781 -0.50781,-2.10937 -1.46484,0.37109 -4.51172,1.36718 -3.14453,1.25 -3.16406,3.08594 0.58594,0.21485 1.15234,0.3125 4.49219,0.80078 6.67969,2.20703 3.1836,2.05078 3.1836,5.9375 0,3.1836 -2.75391,4.80469 -2.28516,1.32813 -5.78125,1.32813 -2.55859,0 -4.88281,-0.85938 -3.00782,-1.09375 -3.00782,-3.04687 0,-0.78125 0.60547,-1.36719 0.625,-0.58594 1.40625,-0.58594 0.60547,0 1.5625,0.9375 0.46875,0.44922 2.10938,0.74219 1.30859,0.23437 2.20703,0.23437 1.64062,0 2.89062,-0.39062 1.81641,-0.56641 1.81641,-1.79688 0,-2.65625 -3.71094,-3.59375 l -2.03125,-0.44922 q -2.59765,-0.5664 -3.6914,-1.32812 -1.58203,-1.09375 -1.58203,-3.30078 0,-4.08203 3.84765,-5.82031 1.17188,-0.52735 3.75,-1.25 2.57813,-0.74219 3.69141,-1.25 0.80078,-0.35157 1.73828,-0.35157 0.83984,0 1.36719,0.54688 0.54687,0.54687 0.54687,1.42578 0,0.56641 0.23438,1.66016 0.2539,1.09375 0.2539,1.66015 0,0.87891 -0.54687,1.42578 -0.52735,0.54688 -1.36719,0.54688 z"
         style="font-style:normal;font-variant:normal;font-weight:normal;font-stretch:normal;font-family:'Comic Sans MS';-inkscape-font-specification:'Comic Sans MS';fill:#000000;fill-opacity:0.49019608"
         id="path122" />
      <path
         inkscape:connector-curvature="0"
         d="m 126.04688,153.07324 q 1.67968,0 1.67968,1.73828 v 36.54297 q -0.0391,2.28516 -1.69922,2.28516 -1.15234,0 -1.5625,-1.48438 -0.21484,-0.78125 -0.21484,-6.07422 v -31.26953 q 0,-0.76172 0.50781,-1.25 0.50782,-0.48828 1.28907,-0.48828 z"
         style="font-style:normal;font-variant:normal;font-weight:normal;font-stretch:normal;font-family:'Comic Sans MS';-inkscape-font-specification:'Comic Sans MS';fill:#000000;fill-opacity:0.49019608"
         id="path124" />
      <path
         inkscape:connector-curvature="0"
         d="m 125.42188,226.17969 q -0.54688,0 -2.38282,-0.25391 -0.15625,2.94922 -0.15625,10.33203 0,0.78125 -0.50781,1.32813 -0.50781,0.52734 -1.26953,0.52734 -0.78125,0 -1.28906,-0.52734 -0.50782,-0.54688 -0.50782,-1.32813 v -5.74219 q 0,-2.87109 0.35157,-8.08593 0.39062,-5.64453 0.42968,-8.08594 v -2.69531 q 0,-1.9336 0.23438,-2.8125 0.44922,-1.71875 1.91406,-1.48438 0.625,-0.19531 1.77735,-0.29297 1.15234,-0.0977 2.83203,-0.0977 3.57421,0 6.69921,2.4414 3.4375,2.69532 3.4375,6.48438 0,4.84375 -3.67187,7.71484 -3.28125,2.57813 -7.89062,2.57813 z m 0.97656,-15.50782 q -0.85938,0 -1.54297,0.0391 -0.66406,0.0391 -1.13281,0.11718 l -0.0391,3.59375 -0.41015,7.77344 2.14844,0.25391 q 3.28124,0 5.52734,-1.66016 2.46094,-1.8164 2.46094,-4.90234 0,-2.1875 -2.34375,-3.76953 -2.16797,-1.44532 -4.66797,-1.44532 z"
         style="font-style:normal;font-variant:normal;font-weight:normal;font-stretch:normal;font-family:'Comic Sans MS';-inkscape-font-specification:'Comic Sans MS';fill:#000000;fill-opacity:0.49019608"
         id="path126" />
      <path
         inkscape:connector-curvature="0"
         d="m 156.125,223.21094 q -0.13672,2.4414 -1.95313,2.4414 -1.67968,0 -1.67968,-1.93359 0,-0.37109 -0.0586,-1.36719 l -0.0586,-1.64062 q -3.08594,0.37109 -4.94141,1.73828 -1.73828,1.26953 -2.89062,3.82812 l 0.0391,10.70313 q 0,1.97265 -1.93359,1.97265 -1.71875,0 -1.71875,-1.97265 v -13.71094 q 0,-0.64453 0.0391,-1.93359 0.0586,-1.28907 0.0586,-1.9336 0,-1.97265 1.71875,-1.97265 1.91407,0 1.9336,3.24218 3.75,-3.61328 8.32031,-3.61328 1.58203,0 2.36328,1.19141 0.78125,1.19141 0.78125,3.59375 0,1.01562 -0.0195,1.36719 z"
         style="font-style:normal;font-variant:normal;font-weight:normal;font-stretch:normal;font-family:'Comic Sans MS';-inkscape-font-specification:'Comic Sans MS';fill:#000000;fill-opacity:0.49019608"
         id="path128" />
      <path
         inkscape:connector-curvature="0"
         d="m 167.47266,238.79687 q -3.28125,0 -5.64454,-2.42187 -2.63671,-2.69531 -2.77343,-7.24609 -0.11719,-4.41407 2.22656,-7.77344 2.73437,-3.96485 7.61719,-3.96485 3.90625,0 5.91797,3.57422 1.60156,2.89063 1.54296,6.95313 -0.0586,4.33594 -2.26562,7.40234 -2.5,3.47656 -6.62109,3.47656 z m 1.17187,-17.4414 q -2.87109,-0.0195 -4.47266,2.73437 -1.26953,2.20703 -1.26953,5.03907 0,2.83203 1.54297,4.41406 1.28906,1.30859 3.02735,1.30859 2.03125,0 3.49609,-1.48437 1.66016,-1.64063 1.75781,-4.4336 Q 173,221.375 168.64453,221.35547 Z"
         style="font-style:normal;font-variant:normal;font-weight:normal;font-stretch:normal;font-family:'Comic Sans MS';-inkscape-font-specification:'Comic Sans MS';fill:#000000;fill-opacity:0.49019608"
         id="path130" />
      <path
         inkscape:connector-curvature="0"
         d="m 189.99219,238.875 q -4.00391,0 -6.67969,-2.42188 -2.8125,-2.53906 -2.8125,-6.69921 0,-3.96485 2.63672,-8.1836 2.92969,-4.6875 6.60156,-4.6875 1.91406,0 4.27734,0.89844 2.98829,1.15234 2.98829,2.8125 0,0.74219 -0.48829,1.32812 -0.48828,0.56641 -1.21093,0.56641 -0.56641,0 -0.9961,-0.33203 -0.41015,-0.35156 -0.80078,-0.68359 -1.15234,-0.91797 -3.76953,-0.91797 -1.99219,0 -3.94531,3.55468 -1.77735,3.26172 -1.77735,5.64454 0,2.57812 1.75782,4.0625 1.64062,1.38671 4.21875,1.38671 1.17187,0 2.5,-0.625 l 2.26562,-1.21093 q 0.58594,-0.3125 0.83985,-0.3125 0.72265,0 1.25,0.58593 0.52734,0.56641 0.52734,1.3086 0,1.42578 -3.00781,2.7539 -2.63672,1.17188 -4.375,1.17188 z"
         style="font-style:normal;font-variant:normal;font-weight:normal;font-stretch:normal;font-family:'Comic Sans MS';-inkscape-font-specification:'Comic Sans MS';fill:#000000;fill-opacity:0.49019608"
         id="path132" />
      <path
         inkscape:connector-curvature="0"
         d="m 210.83203,238.54297 q -4.41406,0 -7.14844,-2.20703 -2.98828,-2.44141 -2.98828,-6.83594 0,-5.07813 2.46094,-8.51563 2.67578,-3.75 7.14844,-3.75 3.24218,0 5.29297,1.09375 2.51953,1.34766 2.51953,4.14063 0,1.95312 -2.20703,3.55469 -0.97657,0.70312 -4.14063,2.1875 l -7.46094,3.53515 q 1.09375,1.6211 2.71485,2.44141 1.64062,0.82031 3.80859,0.82031 1.34766,0 3.16406,-0.50781 2.30469,-0.64453 2.96875,-1.67969 0.66407,-1.05469 1.42578,-1.05469 0.6836,0 1.21094,0.52735 0.54688,0.50781 0.54688,1.1914 0,2.16797 -3.4961,3.73047 -2.98828,1.32813 -5.82031,1.32813 z M 210.30469,220.75 q -2.38282,0 -3.96485,1.85547 -1.58203,1.83594 -2.36328,5.54687 l 5.9961,-2.85156 q 3.53515,-1.71875 5.03906,-2.98828 -1.67969,-1.5625 -4.70703,-1.5625 z"
         style="font-style:normal;font-variant:normal;font-weight:normal;font-stretch:normal;font-family:'Comic Sans MS';-inkscape-font-specification:'Comic Sans MS';fill:#000000;fill-opacity:0.49019608"
         id="path134" />
      <path
         inkscape:connector-curvature="0"
         d="m 236.84766,222.60547 q -1.07422,0 -1.50391,-0.72266 -0.29297,-0.50781 -0.50781,-2.10937 -1.46485,0.37109 -4.51172,1.36718 -3.14453,1.25 -3.16406,3.08594 0.58593,0.21485 1.15234,0.3125 4.49219,0.80078 6.67969,2.20703 3.18359,2.05078 3.18359,5.9375 0,3.1836 -2.75391,4.80469 -2.28515,1.32813 -5.78125,1.32813 -2.55859,0 -4.88281,-0.85938 -3.00781,-1.09375 -3.00781,-3.04687 0,-0.78125 0.60547,-1.36719 0.625,-0.58594 1.40625,-0.58594 0.60547,0 1.5625,0.9375 0.46875,0.44922 2.10937,0.74219 1.3086,0.23437 2.20703,0.23437 1.64063,0 2.89063,-0.39062 1.81641,-0.56641 1.81641,-1.79688 0,-2.65625 -3.71094,-3.59375 l -2.03125,-0.44922 q -2.59766,-0.5664 -3.69141,-1.32812 -1.58203,-1.09375 -1.58203,-3.30078 0,-4.08203 3.84766,-5.82031 1.17187,-0.52735 3.75,-1.25 2.57812,-0.74219 3.6914,-1.25 0.80078,-0.35157 1.73828,-0.35157 0.83985,0 1.36719,0.54688 0.54688,0.54687 0.54688,1.42578 0,0.56641 0.23437,1.66016 0.25391,1.09375 0.25391,1.66015 0,0.87891 -0.54688,1.42578 -0.52734,0.54688 -1.36718,0.54688 z"
         style="font-style:normal;font-variant:normal;font-weight:normal;font-stretch:normal;font-family:'Comic Sans MS';-inkscape-font-specification:'Comic Sans MS';fill:#000000;fill-opacity:0.49019608"
         id="path136" />
      <path
         inkscape:connector-curvature="0"
         d="m 256.30078,222.60547 q -1.07422,0 -1.50391,-0.72266 -0.29296,-0.50781 -0.50781,-2.10937 -1.46484,0.37109 -4.51172,1.36718 -3.14453,1.25 -3.16406,3.08594 0.58594,0.21485 1.15234,0.3125 4.49219,0.80078 6.67969,2.20703 3.1836,2.05078 3.1836,5.9375 0,3.1836 -2.75391,4.80469 -2.28516,1.32813 -5.78125,1.32813 -2.55859,0 -4.88281,-0.85938 -3.00782,-1.09375 -3.00782,-3.04687 0,-0.78125 0.60547,-1.36719 0.625,-0.58594 1.40625,-0.58594 0.60547,0 1.5625,0.9375 0.46875,0.44922 2.10938,0.74219 1.30859,0.23437 2.20703,0.23437 1.64062,0 2.89062,-0.39062 1.81641,-0.56641 1.81641,-1.79688 0,-2.65625 -3.71094,-3.59375 l -2.03125,-0.44922 q -2.59765,-0.5664 -3.6914,-1.32812 -1.58203,-1.09375 -1.58203,-3.30078 0,-4.08203 3.84765,-5.82031 1.17188,-0.52735 3.75,-1.25 2.57813,-0.74219 3.69141,-1.25 0.80078,-0.35157 1.73828,-0.35157 0.83984,0 1.36719,0.54688 0.54687,0.54687 0.54687,1.42578 0,0.56641 0.23438,1.66016 0.2539,1.09375 0.2539,1.66015 0,0.87891 -0.54687,1.42578 -0.52735,0.54688 -1.36719,0.54688 z"
         style="font-style:normal;font-variant:normal;font-weight:normal;font-stretch:normal;font-family:'Comic Sans MS';-inkscape-font-specification:'Comic Sans MS';fill:#000000;fill-opacity:0.49019608"
         id="path138" />
    </g>
    <g
       id="flowRoot52"
       style="font-style:normal;font-weight:normal;font-size:40px;line-height:1.25;font-family:sans-serif;letter-spacing:0px;word-spacing:0px;fill:#ffffff;fill-opacity:1;stroke:none"
       transform="matrix(2.2461192,0,0,2.2461192,-167.98132,-130.2172)"
       aria-label="Process
|
Process">
      <path
         id="path79"
         style="font-style:normal;font-variant:normal;font-weight:normal;font-stretch:normal;font-family:'Comic Sans MS';-inkscape-font-specification:'Comic Sans MS';fill:#ffffff"
         d="m 125.42188,124.0293 q -0.54688,0 -2.38282,-0.25391 -0.15625,2.94922 -0.15625,10.33203 0,0.78125 -0.50781,1.32813 -0.50781,0.52734 -1.26953,0.52734 -0.78125,0 -1.28906,-0.52734 -0.50782,-0.54688 -0.50782,-1.32813 v -5.74219 q 0,-2.87109 0.35157,-8.08593 0.39062,-5.64453 0.42968,-8.08594 v -2.69531 q 0,-1.9336 0.23438,-2.8125 0.44922,-1.71875 1.91406,-1.48438 0.625,-0.19531 1.77735,-0.29297 1.15234,-0.0976 2.83203,-0.0976 3.57421,0 6.69921,2.4414 3.4375,2.69532 3.4375,6.48438 0,4.84375 -3.67187,7.71484 -3.28125,2.57813 -7.89062,2.57813 z m 0.97656,-15.50782 q -0.85938,0 -1.54297,0.0391 -0.66406,0.0391 -1.13281,0.11718 l -0.0391,3.59375 -0.41015,7.77344 2.14844,0.25391 q 3.28124,0 5.52734,-1.66016 2.46094,-1.8164 2.46094,-4.90234 0,-2.1875 -2.34375,-3.76953 -2.16797,-1.44532 -4.66797,-1.44532 z" />
      <path
         id="path81"
         style="font-style:normal;font-variant:normal;font-weight:normal;font-stretch:normal;font-family:'Comic Sans MS';-inkscape-font-specification:'Comic Sans MS';fill:#ffffff"
         d="m 156.125,121.06055 q -0.13672,2.4414 -1.95313,2.4414 -1.67968,0 -1.67968,-1.93359 0,-0.37109 -0.0586,-1.36719 l -0.0586,-1.64062 q -3.08594,0.37109 -4.94141,1.73828 -1.73828,1.26953 -2.89062,3.82812 l 0.0391,10.70313 q 0,1.97265 -1.93359,1.97265 -1.71875,0 -1.71875,-1.97265 v -13.71094 q 0,-0.64453 0.0391,-1.93359 0.0586,-1.28907 0.0586,-1.9336 0,-1.97265 1.71875,-1.97265 1.91407,0 1.9336,3.24218 3.75,-3.61328 8.32031,-3.61328 1.58203,0 2.36328,1.19141 0.78125,1.19141 0.78125,3.59375 0,1.01562 -0.0195,1.36719 z" />
      <path
         id="path83"
         style="font-style:normal;font-variant:normal;font-weight:normal;font-stretch:normal;font-family:'Comic Sans MS';-inkscape-font-specification:'Comic Sans MS';fill:#ffffff"
         d="m 167.47266,136.64648 q -3.28125,0 -5.64454,-2.42187 -2.63671,-2.69531 -2.77343,-7.24609 -0.11719,-4.41407 2.22656,-7.77344 2.73437,-3.96485 7.61719,-3.96485 3.90625,0 5.91797,3.57422 1.60156,2.89063 1.54296,6.95313 -0.0586,4.33594 -2.26562,7.40234 -2.5,3.47656 -6.62109,3.47656 z m 1.17187,-17.4414 q -2.87109,-0.0195 -4.47266,2.73437 -1.26953,2.20703 -1.26953,5.03907 0,2.83203 1.54297,4.41406 1.28906,1.30859 3.02735,1.30859 2.03125,0 3.49609,-1.48437 1.66016,-1.64063 1.75781,-4.4336 0.27344,-7.55859 -4.08203,-7.57812 z" />
      <path
         id="path85"
         style="font-style:normal;font-variant:normal;font-weight:normal;font-stretch:normal;font-family:'Comic Sans MS';-inkscape-font-specification:'Comic Sans MS';fill:#ffffff"
         d="m 189.99219,136.72461 q -4.00391,0 -6.67969,-2.42188 -2.8125,-2.53906 -2.8125,-6.69921 0,-3.96485 2.63672,-8.1836 2.92969,-4.6875 6.60156,-4.6875 1.91406,0 4.27734,0.89844 2.98829,1.15234 2.98829,2.8125 0,0.74219 -0.48829,1.32812 -0.48828,0.56641 -1.21093,0.56641 -0.56641,0 -0.9961,-0.33203 -0.41015,-0.35156 -0.80078,-0.68359 -1.15234,-0.91797 -3.76953,-0.91797 -1.99219,0 -3.94531,3.55468 -1.77735,3.26172 -1.77735,5.64454 0,2.57812 1.75782,4.0625 1.64062,1.38671 4.21875,1.38671 1.17187,0 2.5,-0.625 l 2.26562,-1.21093 q 0.58594,-0.3125 0.83985,-0.3125 0.72265,0 1.25,0.58593 0.52734,0.56641 0.52734,1.3086 0,1.42578 -3.00781,2.7539 -2.63672,1.17188 -4.375,1.17188 z" />
      <path
         id="path87"
         style="font-style:normal;font-variant:normal;font-weight:normal;font-stretch:normal;font-family:'Comic Sans MS';-inkscape-font-specification:'Comic Sans MS';fill:#ffffff"
         d="m 210.83203,136.39258 q -4.41406,0 -7.14844,-2.20703 -2.98828,-2.44141 -2.98828,-6.83594 0,-5.07813 2.46094,-8.51563 2.67578,-3.75 7.14844,-3.75 3.24218,0 5.29297,1.09375 2.51953,1.34766 2.51953,4.14063 0,1.95312 -2.20703,3.55469 -0.97657,0.70312 -4.14063,2.1875 l -7.46094,3.53515 q 1.09375,1.6211 2.71485,2.44141 1.64062,0.82031 3.80859,0.82031 1.34766,0 3.16406,-0.50781 2.30469,-0.64453 2.96875,-1.67969 0.66407,-1.05469 1.42578,-1.05469 0.6836,0 1.21094,0.52735 0.54688,0.50781 0.54688,1.1914 0,2.16797 -3.4961,3.73047 -2.98828,1.32813 -5.82031,1.32813 z m -0.52734,-17.79297 q -2.38282,0 -3.96485,1.85547 -1.58203,1.83594 -2.36328,5.54687 l 5.9961,-2.85156 q 3.53515,-1.71875 5.03906,-2.98828 -1.67969,-1.5625 -4.70703,-1.5625 z" />
      <path
         id="path89"
         style="font-style:normal;font-variant:normal;font-weight:normal;font-stretch:normal;font-family:'Comic Sans MS';-inkscape-font-specification:'Comic Sans MS';fill:#ffffff"
         d="m 236.84766,120.45508 q -1.07422,0 -1.50391,-0.72266 -0.29297,-0.50781 -0.50781,-2.10937 -1.46485,0.37109 -4.51172,1.36718 -3.14453,1.25 -3.16406,3.08594 0.58593,0.21485 1.15234,0.3125 4.49219,0.80078 6.67969,2.20703 3.18359,2.05078 3.18359,5.9375 0,3.1836 -2.75391,4.80469 -2.28515,1.32813 -5.78125,1.32813 -2.55859,0 -4.88281,-0.85938 -3.00781,-1.09375 -3.00781,-3.04687 0,-0.78125 0.60547,-1.36719 0.625,-0.58594 1.40625,-0.58594 0.60547,0 1.5625,0.9375 0.46875,0.44922 2.10937,0.74219 1.3086,0.23437 2.20703,0.23437 1.64063,0 2.89063,-0.39062 1.81641,-0.56641 1.81641,-1.79688 0,-2.65625 -3.71094,-3.59375 l -2.03125,-0.44922 q -2.59766,-0.5664 -3.69141,-1.32812 -1.58203,-1.09375 -1.58203,-3.30078 0,-4.08203 3.84766,-5.82031 1.17187,-0.52735 3.75,-1.25 2.57812,-0.74219 3.6914,-1.25 0.80078,-0.35157 1.73828,-0.35157 0.83985,0 1.36719,0.54688 0.54688,0.54687 0.54688,1.42578 0,0.56641 0.23437,1.66016 0.25391,1.09375 0.25391,1.66015 0,0.87891 -0.54688,1.42578 -0.52734,0.54688 -1.36718,0.54688 z" />
      <path
         id="path91"
         style="font-style:normal;font-variant:normal;font-weight:normal;font-stretch:normal;font-family:'Comic Sans MS';-inkscape-font-specification:'Comic Sans MS';fill:#ffffff"
         d="m 256.30078,120.45508 q -1.07422,0 -1.50391,-0.72266 -0.29296,-0.50781 -0.50781,-2.10937 -1.46484,0.37109 -4.51172,1.36718 -3.14453,1.25 -3.16406,3.08594 0.58594,0.21485 1.15234,0.3125 4.49219,0.80078 6.67969,2.20703 3.1836,2.05078 3.1836,5.9375 0,3.1836 -2.75391,4.80469 -2.28516,1.32813 -5.78125,1.32813 -2.55859,0 -4.88281,-0.85938 -3.00782,-1.09375 -3.00782,-3.04687 0,-0.78125 0.60547,-1.36719 0.625,-0.58594 1.40625,-0.58594 0.60547,0 1.5625,0.9375 0.46875,0.44922 2.10938,0.74219 1.30859,0.23437 2.20703,0.23437 1.64062,0 2.89062,-0.39062 1.81641,-0.56641 1.81641,-1.79688 0,-2.65625 -3.71094,-3.59375 l -2.03125,-0.44922 q -2.59765,-0.5664 -3.6914,-1.32812 -1.58203,-1.09375 -1.58203,-3.30078 0,-4.08203 3.84765,-5.82031 1.17188,-0.52735 3.75,-1.25 2.57813,-0.74219 3.69141,-1.25 0.80078,-0.35157 1.73828,-0.35157 0.83984,0 1.36719,0.54688 0.54687,0.54687 0.54687,1.42578 0,0.56641 0.23438,1.66016 0.2539,1.09375 0.2539,1.66015 0,0.87891 -0.54687,1.42578 -0.52735,0.54688 -1.36719,0.54688 z" />
      <path
         id="path93"
         style="font-style:normal;font-variant:normal;font-weight:normal;font-stretch:normal;font-family:'Comic Sans MS';-inkscape-font-specification:'Comic Sans MS';fill:#ffffff"
         d="m 126.04688,153.07324 q 1.67968,0 1.67968,1.73828 v 36.54297 q -0.0391,2.28516 -1.69922,2.28516 -1.15234,0 -1.5625,-1.48438 -0.21484,-0.78125 -0.21484,-6.07422 v -31.26953 q 0,-0.76172 0.50781,-1.25 0.50782,-0.48828 1.28907,-0.48828 z" />
      <path
         id="path95"
         style="font-style:normal;font-variant:normal;font-weight:normal;font-stretch:normal;font-family:'Comic Sans MS';-inkscape-font-specification:'Comic Sans MS';fill:#ffffff"
         d="m 125.42188,226.17969 q -0.54688,0 -2.38282,-0.25391 -0.15625,2.94922 -0.15625,10.33203 0,0.78125 -0.50781,1.32813 -0.50781,0.52734 -1.26953,0.52734 -0.78125,0 -1.28906,-0.52734 -0.50782,-0.54688 -0.50782,-1.32813 v -5.74219 q 0,-2.87109 0.35157,-8.08593 0.39062,-5.64453 0.42968,-8.08594 v -2.69531 q 0,-1.9336 0.23438,-2.8125 0.44922,-1.71875 1.91406,-1.48438 0.625,-0.19531 1.77735,-0.29297 1.15234,-0.0977 2.83203,-0.0977 3.57421,0 6.69921,2.4414 3.4375,2.69532 3.4375,6.48438 0,4.84375 -3.67187,7.71484 -3.28125,2.57813 -7.89062,2.57813 z m 0.97656,-15.50782 q -0.85938,0 -1.54297,0.0391 -0.66406,0.0391 -1.13281,0.11718 l -0.0391,3.59375 -0.41015,7.77344 2.14844,0.25391 q 3.28124,0 5.52734,-1.66016 2.46094,-1.8164 2.46094,-4.90234 0,-2.1875 -2.34375,-3.76953 -2.16797,-1.44532 -4.66797,-1.44532 z" />
      <path
         id="path97"
         style="font-style:normal;font-variant:normal;font-weight:normal;font-stretch:normal;font-family:'Comic Sans MS';-inkscape-font-specification:'Comic Sans MS';fill:#ffffff"
         d="m 156.125,223.21094 q -0.13672,2.4414 -1.95313,2.4414 -1.67968,0 -1.67968,-1.93359 0,-0.37109 -0.0586,-1.36719 l -0.0586,-1.64062 q -3.08594,0.37109 -4.94141,1.73828 -1.73828,1.26953 -2.89062,3.82812 l 0.0391,10.70313 q 0,1.97265 -1.93359,1.97265 -1.71875,0 -1.71875,-1.97265 v -13.71094 q 0,-0.64453 0.0391,-1.93359 0.0586,-1.28907 0.0586,-1.9336 0,-1.97265 1.71875,-1.97265 1.91407,0 1.9336,3.24218 3.75,-3.61328 8.32031,-3.61328 1.58203,0 2.36328,1.19141 0.78125,1.19141 0.78125,3.59375 0,1.01562 -0.0195,1.36719 z" />
      <path
         id="path99"
         style="font-style:normal;font-variant:normal;font-weight:normal;font-stretch:normal;font-family:'Comic Sans MS';-inkscape-font-specification:'Comic Sans MS';fill:#ffffff"
         d="m 167.47266,238.79687 q -3.28125,0 -5.64454,-2.42187 -2.63671,-2.69531 -2.77343,-7.24609 -0.11719,-4.41407 2.22656,-7.77344 2.73437,-3.96485 7.61719,-3.96485 3.90625,0 5.91797,3.57422 1.60156,2.89063 1.54296,6.95313 -0.0586,4.33594 -2.26562,7.40234 -2.5,3.47656 -6.62109,3.47656 z m 1.17187,-17.4414 q -2.87109,-0.0195 -4.47266,2.73437 -1.26953,2.20703 -1.26953,5.03907 0,2.83203 1.54297,4.41406 1.28906,1.30859 3.02735,1.30859 2.03125,0 3.49609,-1.48437 1.66016,-1.64063 1.75781,-4.4336 Q 173,221.375 168.64453,221.35547 Z" />
      <path
         id="path101"
         style="font-style:normal;font-variant:normal;font-weight:normal;font-stretch:normal;font-family:'Comic Sans MS';-inkscape-font-specification:'Comic Sans MS';fill:#ffffff"
         d="m 189.99219,238.875 q -4.00391,0 -6.67969,-2.42188 -2.8125,-2.53906 -2.8125,-6.69921 0,-3.96485 2.63672,-8.1836 2.92969,-4.6875 6.60156,-4.6875 1.91406,0 4.27734,0.89844 2.98829,1.15234 2.98829,2.8125 0,0.74219 -0.48829,1.32812 -0.48828,0.56641 -1.21093,0.56641 -0.56641,0 -0.9961,-0.33203 -0.41015,-0.35156 -0.80078,-0.68359 -1.15234,-0.91797 -3.76953,-0.91797 -1.99219,0 -3.94531,3.55468 -1.77735,3.26172 -1.77735,5.64454 0,2.57812 1.75782,4.0625 1.64062,1.38671 4.21875,1.38671 1.17187,0 2.5,-0.625 l 2.26562,-1.21093 q 0.58594,-0.3125 0.83985,-0.3125 0.72265,0 1.25,0.58593 0.52734,0.56641 0.52734,1.3086 0,1.42578 -3.00781,2.7539 -2.63672,1.17188 -4.375,1.17188 z" />
      <path
         id="path103"
         style="font-style:normal;font-variant:normal;font-weight:normal;font-stretch:normal;font-family:'Comic Sans MS';-inkscape-font-specification:'Comic Sans MS';fill:#ffffff"
         d="m 210.83203,238.54297 q -4.41406,0 -7.14844,-2.20703 -2.98828,-2.44141 -2.98828,-6.83594 0,-5.07813 2.46094,-8.51563 2.67578,-3.75 7.14844,-3.75 3.24218,0 5.29297,1.09375 2.51953,1.34766 2.51953,4.14063 0,1.95312 -2.20703,3.55469 -0.97657,0.70312 -4.14063,2.1875 l -7.46094,3.53515 q 1.09375,1.6211 2.71485,2.44141 1.64062,0.82031 3.80859,0.82031 1.34766,0 3.16406,-0.50781 2.30469,-0.64453 2.96875,-1.67969 0.66407,-1.05469 1.42578,-1.05469 0.6836,0 1.21094,0.52735 0.54688,0.50781 0.54688,1.1914 0,2.16797 -3.4961,3.73047 -2.98828,1.32813 -5.82031,1.32813 z M 210.30469,220.75 q -2.38282,0 -3.96485,1.85547 -1.58203,1.83594 -2.36328,5.54687 l 5.9961,-2.85156 q 3.53515,-1.71875 5.03906,-2.98828 -1.67969,-1.5625 -4.70703,-1.5625 z" />
      <path
         id="path105"
         style="font-style:normal;font-variant:normal;font-weight:normal;font-stretch:normal;font-family:'Comic Sans MS';-inkscape-font-specification:'Comic Sans MS';fill:#ffffff"
         d="m 236.84766,222.60547 q -1.07422,0 -1.50391,-0.72266 -0.29297,-0.50781 -0.50781,-2.10937 -1.46485,0.37109 -4.51172,1.36718 -3.14453,1.25 -3.16406,3.08594 0.58593,0.21485 1.15234,0.3125 4.49219,0.80078 6.67969,2.20703 3.18359,2.05078 3.18359,5.9375 0,3.1836 -2.75391,4.80469 -2.28515,1.32813 -5.78125,1.32813 -2.55859,0 -4.88281,-0.85938 -3.00781,-1.09375 -3.00781,-3.04687 0,-0.78125 0.60547,-1.36719 0.625,-0.58594 1.40625,-0.58594 0.60547,0 1.5625,0.9375 0.46875,0.44922 2.10937,0.74219 1.3086,0.23437 2.20703,0.23437 1.64063,0 2.89063,-0.39062 1.81641,-0.56641 1.81641,-1.79688 0,-2.65625 -3.71094,-3.59375 l -2.03125,-0.44922 q -2.59766,-0.5664 -3.69141,-1.32812 -1.58203,-1.09375 -1.58203,-3.30078 0,-4.08203 3.84766,-5.82031 1.17187,-0.52735 3.75,-1.25 2.57812,-0.74219 3.6914,-1.25 0.80078,-0.35157 1.73828,-0.35157 0.83985,0 1.36719,0.54688 0.54688,0.54687 0.54688,1.42578 0,0.56641 0.23437,1.66016 0.25391,1.09375 0.25391,1.66015 0,0.87891 -0.54688,1.42578 -0.52734,0.54688 -1.36718,0.54688 z" />
      <path
         id="path107"
         style="font-style:normal;font-variant:normal;font-weight:normal;font-stretch:normal;font-family:'Comic Sans MS';-inkscape-font-specification:'Comic Sans MS';fill:#ffffff"
         d="m 256.30078,222.60547 q -1.07422,0 -1.50391,-0.72266 -0.29296,-0.50781 -0.50781,-2.10937 -1.46484,0.37109 -4.51172,1.36718 -3.14453,1.25 -3.16406,3.08594 0.58594,0.21485 1.15234,0.3125 4.49219,0.80078 6.67969,2.20703 3.1836,2.05078 3.1836,5.9375 0,3.1836 -2.75391,4.80469 -2.28516,1.32813 -5.78125,1.32813 -2.55859,0 -4.88281,-0.85938 -3.00782,-1.09375 -3.00782,-3.04687 0,-0.78125 0.60547,-1.36719 0.625,-0.58594 1.40625,-0.58594 0.60547,0 1.5625,0.9375 0.46875,0.44922 2.10938,0.74219 1.30859,0.23437 2.20703,0.23437 1.64062,0 2.89062,-0.39062 1.81641,-0.56641 1.81641,-1.79688 0,-2.65625 -3.71094,-3.59375 l -2.03125,-0.44922 q -2.59765,-0.5664 -3.6914,-1.32812 -1.58203,-1.09375 -1.58203,-3.30078 0,-4.08203 3.84765,-5.82031 1.17188,-0.52735 3.75,-1.25 2.57813,-0.74219 3.69141,-1.25 0.80078,-0.35157 1.73828,-0.35157 0.83984,0 1.36719,0.54688 0.54687,0.54687 0.54687,1.42578 0,0.56641 0.23438,1.66016 0.2539,1.09375 0.2539,1.66015 0,0.87891 -0.54687,1.42578 -0.52735,0.54688 -1.36719,0.54688 z" />
    </g>
  </g>
</svg>
