<?xml version="1.0" encoding="UTF-8" standalone="no"?>
<!-- Created with Inkscape (http://www.inkscape.org/) -->

<svg
   xmlns:dc="http://purl.org/dc/elements/1.1/"
   xmlns:cc="http://creativecommons.org/ns#"
   xmlns:rdf="http://www.w3.org/1999/02/22-rdf-syntax-ns#"
   xmlns:svg="http://www.w3.org/2000/svg"
   xmlns="http://www.w3.org/2000/svg"
   xmlns:sodipodi="http://sodipodi.sourceforge.net/DTD/sodipodi-0.dtd"
   xmlns:inkscape="http://www.inkscape.org/namespaces/inkscape"
   width="512"
   height="512"
   id="svg2"
   version="1.1"
   inkscape:version="0.92.3 (2405546, 2018-03-11)"
   sodipodi:docname="pyroom.svg">
  <defs
     id="defs4" />
  <sodipodi:namedview
     id="base"
     pagecolor="#ffffff"
     bordercolor="#666666"
     borderopacity="1.0"
     inkscape:pageopacity="0.0"
     inkscape:pageshadow="2"
     inkscape:zoom="0.30333332"
     inkscape:cx="-196.99583"
     inkscape:cy="166.14296"
     inkscape:document-units="px"
     inkscape:current-layer="layer1"
     showgrid="false"
     inkscape:window-width="1366"
     inkscape:window-height="711"
     inkscape:window-x="0"
     inkscape:window-y="28"
     inkscape:window-maximized="1" />
  <metadata
     id="metadata7">
    <rdf:RDF>
      <cc:Work
         rdf:about="">
        <dc:format>image/svg+xml</dc:format>
        <dc:type
           rdf:resource="http://purl.org/dc/dcmitype/StillImage" />
        <dc:title></dc:title>
      </cc:Work>
    </rdf:RDF>
  </metadata>
  <g
     inkscape:label="Layer 1"
     inkscape:groupmode="layer"
     id="layer1"
     transform="translate(0,-540.36218)">
    <g
       id="g915">
      <path
         style="fill:#8a715e;fill-opacity:1;stroke-width:11.10955906"
         inkscape:connector-curvature="0"
         d="m 432.91328,596.8361 c 102.19291,88.57459 105.82677,249.69975 8.1168,359.89884 C 343.32006,1066.934 181.27962,1084.4628 79.086743,995.8882 -23.106206,907.31361 -26.740032,746.18845 70.969943,635.98936 168.67988,525.79028 330.72033,508.26151 432.91328,596.8361 Z"
         id="path870" />
      <path
         style="opacity:1;fill:#000000;fill-opacity:0.49019608;stroke-width:11.10955906"
         inkscape:connector-curvature="0"
         d="M 511.63551,765.26569 C 510.08413,826.5773 486.47429,889.42026 440.66913,941.08013 342.95912,1051.2793 180.91867,1068.808 78.72576,980.23343 30.827126,938.71782 4.4968183,881.28498 0.19382599,820.59098 0.79907955,886.94762 27.117406,950.84435 79.078693,995.88121 181.27157,1084.4558 343.31972,1066.9183 441.02203,956.72795 490.72697,900.6698 514.02704,831.43694 511.63551,765.26569 Z"
         id="path872" />
      <path
         inkscape:connector-curvature="0"
         style="fill:#000000;fill-opacity:0.49019608;stroke:none;stroke-width:0.698a715e"
         d="m 275.4516,660.36207 a 156,156 0 0 0 -155.45117,156.36523 156,156 0 0 0 156.18359,155.63477 156,156 0 0 0 155.81641,-156 l -0.002,-0.73242 A 156,156 0 0 0 275.4516,660.36207 Z m 0.16602,25.75586 c 72.22141,-0.25432 131.1603,58.16091 131.57031,130.36523 h 0.004 v 0.74805 0.14648 h -0.002 c -0.0795,72.19833 -58.74044,130.88206 -130.95703,130.9668 -72.26557,0.0848 -131.09794,-58.54123 -131.26758,-130.80664 -0.16964,-72.26541 58.38718,-131.16547 130.65235,-131.41992 z m 0.0508,14.59961 c -64.38112,0.22669 -116.25465,52.40577 -116.10352,116.78711 0.15113,64.38133 52.26892,116.31583 116.65039,116.24023 64.38148,-0.0756 116.37696,-52.13215 116.37696,-116.51367 v -0.54687 c -0.30226,-64.3808 -52.54271,-116.1935 -116.92383,-115.9668 z m -33.32227,71.58203 c 8.68888,0 15.73726,3.45158 21.14649,10.35156 5.45184,6.9 8.17773,15.97043 8.17773,27.21485 0,11.24442 -2.72589,20.31681 -8.17773,27.21679 -5.40923,6.89998 -12.45761,10.35157 -21.14649,10.35157 -5.23887,0 -9.75419,-1.02392 -13.54492,-3.06836 -3.74814,-2.08703 -6.85579,-5.26027 -9.32617,-9.51953 v 37.95117 h -11.82031 v -98.77149 h 11.82031 v 10.85938 c 2.47038,-4.25926 5.57803,-7.41064 9.32617,-9.45508 3.79073,-2.08703 8.30605,-3.13086 13.54492,-3.13086 z m 40.37696,1.72656 h 12.45898 l 22.36133,55.96485 22.36133,-55.96485 h 12.45703 l -31.43164,78.19922 c -3.32222,8.5185 -6.5591,14.07568 -9.71094,16.67383 -3.15184,2.59815 -7.36891,3.89844 -12.65039,3.89844 h -9.39258 v -9.83985 h 6.90039 c 3.23704,0 5.75018,-0.76553 7.53906,-2.29882 1.78888,-1.53335 3.76918,-5.15395 5.94141,-10.86133 l 2.10938,-5.36719 z m -43.25196,8.11328 c -6.2185,0 -11.1156,2.46942 -14.69336,7.41016 -3.53519,4.89813 -5.30273,11.67012 -5.30273,20.31641 0,8.64627 1.76754,15.44014 5.30273,20.38086 3.57776,4.89815 8.47486,7.34765 14.69336,7.34765 6.21852,0 11.09569,-2.4495 14.63086,-7.34765 3.57778,-4.94072 5.36719,-11.73459 5.36719,-20.38086 0,-8.64629 -1.78941,-15.41828 -5.36719,-20.31641 -3.53517,-4.94074 -8.41234,-7.41016 -14.63086,-7.41016 z"
         id="path908" />
      <path
         id="path2996"
         transform="translate(0,540.36218)"
         d="M 255.45117 100 A 156 156 0 0 0 100 256.36523 A 156 156 0 0 0 256.18359 412 A 156 156 0 0 0 412 256 L 411.99805 255.26758 A 156 156 0 0 0 255.45117 100 z M 255.61719 125.75586 C 327.8386 125.50154 386.77749 183.91677 387.1875 256.12109 L 387.19141 256.12109 L 387.19141 256.86914 L 387.19141 257.01562 L 387.18945 257.01562 C 387.10997 329.21395 328.44901 387.89768 256.23242 387.98242 C 183.96685 388.06724 125.13448 329.44119 124.96484 257.17578 C 124.7952 184.91037 183.35202 126.01031 255.61719 125.75586 z M 255.66797 140.35547 C 191.28685 140.58216 139.41332 192.76124 139.56445 257.14258 C 139.71558 321.52391 191.83337 373.45841 256.21484 373.38281 C 320.59632 373.30724 372.5918 321.25066 372.5918 256.86914 L 372.5918 256.32227 C 372.28954 191.94147 320.04909 140.12877 255.66797 140.35547 z M 222.3457 211.9375 C 231.03458 211.9375 238.08296 215.38908 243.49219 222.28906 C 248.94403 229.18906 251.66992 238.25949 251.66992 249.50391 C 251.66992 260.74833 248.94403 269.82072 243.49219 276.7207 C 238.08296 283.62068 231.03458 287.07227 222.3457 287.07227 C 217.10683 287.07227 212.59151 286.04835 208.80078 284.00391 C 205.05264 281.91688 201.94499 278.74364 199.47461 274.48438 L 199.47461 312.43555 L 187.6543 312.43555 L 187.6543 213.66406 L 199.47461 213.66406 L 199.47461 224.52344 C 201.94499 220.26418 205.05264 217.1128 208.80078 215.06836 C 212.59151 212.98133 217.10683 211.9375 222.3457 211.9375 z M 262.72266 213.66406 L 275.18164 213.66406 L 297.54297 269.62891 L 319.9043 213.66406 L 332.36133 213.66406 L 300.92969 291.86328 C 297.60747 300.38178 294.37059 305.93896 291.21875 308.53711 C 288.06691 311.13526 283.84984 312.43555 278.56836 312.43555 L 269.17578 312.43555 L 269.17578 302.5957 L 276.07617 302.5957 C 279.31321 302.5957 281.82635 301.83017 283.61523 300.29688 C 285.40411 298.76353 287.38441 295.14293 289.55664 289.43555 L 291.66602 284.06836 L 262.72266 213.66406 z M 219.4707 221.77734 C 213.2522 221.77734 208.3551 224.24676 204.77734 229.1875 C 201.24215 234.08563 199.47461 240.85762 199.47461 249.50391 C 199.47461 258.15018 201.24215 264.94405 204.77734 269.88477 C 208.3551 274.78292 213.2522 277.23242 219.4707 277.23242 C 225.68922 277.23242 230.56639 274.78292 234.10156 269.88477 C 237.67934 264.94405 239.46875 258.15018 239.46875 249.50391 C 239.46875 240.85762 237.67934 234.08563 234.10156 229.1875 C 230.56639 224.24676 225.68922 221.77734 219.4707 221.77734 z "
         style="fill:#ffffff;fill-opacity:1;stroke:none;stroke-width:0.698a715e" />
      <g
         id="flowRoot4140"
         style="font-style:normal;font-weight:normal;font-size:40px;line-height:125%;font-family:sans-serif;letter-spacing:0px;word-spacing:0px;fill:#ffffff;fill-opacity:1;stroke:none;stroke-width:1px;stroke-linecap:butt;stroke-linejoin:miter;stroke-opacity:1"
         transform="matrix(3.271104,0,0,3.271104,-235.99841,50.901369)" />
    </g>
  </g>
</svg>
