<?xml version="1.0" encoding="UTF-8" standalone="no"?>
<!-- Generator: Adobe Illustrator 19.0.0, SVG Export Plug-In . SVG Version: 6.00 Build 0)  -->

<svg
   xmlns:dc="http://purl.org/dc/elements/1.1/"
   xmlns:cc="http://creativecommons.org/ns#"
   xmlns:rdf="http://www.w3.org/1999/02/22-rdf-syntax-ns#"
   xmlns:svg="http://www.w3.org/2000/svg"
   xmlns="http://www.w3.org/2000/svg"
   xmlns:sodipodi="http://sodipodi.sourceforge.net/DTD/sodipodi-0.dtd"
   xmlns:inkscape="http://www.inkscape.org/namespaces/inkscape"
   version="1.1"
   id="Layer_1"
   x="0px"
   y="0px"
   viewBox="0 0 512 512"
   xml:space="preserve"
   inkscape:version="0.92.3 (2405546, 2018-03-11)"
   width="512"
   height="512"
   sodipodi:docname="pysycache.svg"><metadata
     id="metadata57"><rdf:RDF><cc:Work
         rdf:about=""><dc:format>image/svg+xml</dc:format><dc:type
           rdf:resource="http://purl.org/dc/dcmitype/StillImage" /><dc:title></dc:title></cc:Work></rdf:RDF></metadata><defs
     id="defs55" /><sodipodi:namedview
     pagecolor="#ffffff"
     bordercolor="#666666"
     borderopacity="1"
     objecttolerance="10"
     gridtolerance="10"
     guidetolerance="10"
     inkscape:pageopacity="0"
     inkscape:pageshadow="2"
     inkscape:window-width="1366"
     inkscape:window-height="711"
     id="namedview53"
     showgrid="false"
     inkscape:zoom="0.37165186"
     inkscape:cx="-353.53811"
     inkscape:cy="261.3942"
     inkscape:window-x="0"
     inkscape:window-y="28"
     inkscape:window-maximized="1"
     inkscape:current-layer="Layer_1"
     units="px" /><g
     id="g23"
     transform="translate(0,550.767)" /><g
     id="g25"
     transform="translate(0,550.767)" /><g
     id="g27"
     transform="translate(0,550.767)" /><g
     id="g29"
     transform="translate(0,550.767)" /><g
     id="g31"
     transform="translate(0,550.767)" /><g
     id="g33"
     transform="translate(0,550.767)" /><g
     id="g35"
     transform="translate(0,550.767)" /><g
     id="g37"
     transform="translate(0,550.767)" /><g
     id="g39"
     transform="translate(0,550.767)" /><g
     id="g41"
     transform="translate(0,550.767)" /><g
     id="g43"
     transform="translate(0,550.767)" /><g
     id="g45"
     transform="translate(0,550.767)" /><g
     id="g47"
     transform="translate(0,550.767)" /><g
     id="g49"
     transform="translate(0,550.767)" /><g
     id="g51"
     transform="translate(0,550.767)" /><g
     id="g911"><path
       id="path943"
       d="m 432.91326,56.474 c 102.19291,88.57459 105.82678,249.69971 8.1168,359.89879 C 343.32009,526.57182 181.27965,544.10062 79.086742,455.52602 -23.106205,366.95146 -26.740032,205.82634 70.969941,95.62726 168.67991,-14.57182 330.72036,-32.10059 432.91326,56.474 Z"
       inkscape:connector-curvature="0"
       style="fill:#3689e6;fill-opacity:1;stroke-width:11.10955811" /><path
       id="path947"
       d="m 511.6355,224.90355 c -1.55139,61.31164 -25.16123,124.1546 -70.96638,175.81447 C 342.95915,510.91712 180.9187,528.44582 78.725762,439.87132 30.827125,398.35567 4.4968186,340.92287 0.19382662,280.22884 0.79907962,346.58551 27.117405,410.48221 79.078692,455.51912 181.2716,544.09362 343.31975,526.55622 441.02201,416.3658 490.72696,360.30769 514.02703,291.07483 511.6355,224.90355 Z"
       inkscape:connector-curvature="0"
       style="opacity:1;fill:#000000;fill-opacity:0.49019608;stroke-width:11.10955811" /><g
       id="g92"
       transform="matrix(0.64938245,0,0,0.64938245,-273.9215,117.74668)"
       style="fill:#000000;fill-opacity:0.49019608"><path
         inkscape:connector-curvature="0"
         id="path84"
         d="m 738.20073,3.4733017 c -0.52538,-0.01045 -1.05942,0.0036 -1.60156,0.04102 -17.34849,1.196279 -21.66233,24.3097273 -27.54102,45.2910153 -4.32474,15.435424 -2.28995,50.087657 -0.91015,67.402333 A 200.16841,200.16841 0 0 1 772.38823,77.848302 C 772.66714,65.595981 772.14219,51.605345 769.03667,43.295568 762.81276,26.641602 754.4874,3.7972157 738.20073,3.4733017 Z"
         style="fill:#000000;fill-opacity:0.49019608;fill-rule:evenodd;stroke:none;stroke-width:7.27885103px;stroke-linecap:butt;stroke-linejoin:miter;stroke-opacity:1" /><path
         inkscape:connector-curvature="0"
         id="path86"
         d="m 951.82378,4.4147077 c -16.28667,0.323915 -24.61203,23.1683003 -30.83594,39.8222663 -2.9222,7.819235 -3.55912,20.665946 -3.39258,32.365234 a 200.16841,200.16841 0 0 1 64.57813,36.486322 c 1.33709,-18.209476 2.81546,-48.98706 -1.20703,-63.343744 -5.87869,-20.981287 -10.19253,-44.0947353 -27.54102,-45.2910153 -0.54214,-0.03738 -1.07619,-0.04951 -1.60156,-0.03906 z"
         style="fill:#000000;fill-opacity:0.49019608;fill-rule:evenodd;stroke:none;stroke-width:7.27885103px;stroke-linecap:butt;stroke-linejoin:miter;stroke-opacity:1" /><path
         inkscape:connector-curvature="0"
         id="path88"
         d="M 846.11089,73.596349 A 200.16841,200.16841 0 0 0 646.648,274.23306 a 200.16841,200.16841 0 0 0 27.28906,99.9336 l 152.72656,-56.66407 a 25.475979,25.475979 0 0 1 -3.44336,-12.66796 25.475979,25.475979 0 0 1 25.38672,-25.53516 25.475979,25.475979 0 0 1 25.56445,25.35547 v 0.11914 a 25.475979,25.475979 0 0 1 -2.63867,11.22461 l 151.26754,52.18945 a 200.16841,200.16841 0 0 0 24.1836,-94.42578 v -0.93945 A 200.16841,200.16841 0 0 0 846.11089,73.596349 Z M 1022.8003,368.18814 a 200.16841,200.16841 0 0 1 -3.8828,7.35156 200.16841,200.16841 0 0 0 4.2403,-7.22851 z m -348.79293,6.10156 a 200.16841,200.16841 0 0 0 10.5625,16.27735 200.16841,200.16841 0 0 1 -10.5625,-16.27735 z m 11.0625,16.97657 a 200.16841,200.16841 0 0 0 11.72852,14.64062 200.16841,200.16841 0 0 1 -11.72852,-14.64062 z m 12.77735,15.83008 a 200.16841,200.16841 0 0 0 12.6289,12.88085 200.16841,200.16841 0 0 1 -12.6289,-12.88085 z m 14.31054,14.44335 a 200.16841,200.16841 0 0 0 13.26172,11.06641 200.16841,200.16841 0 0 1 -13.26172,-11.06641 z m 15.74219,12.94727 a 200.16841,200.16841 0 0 0 13.57617,9.19531 200.16841,200.16841 0 0 1 -13.57617,-9.19531 z m 17.02344,11.30273 a 200.16841,200.16841 0 0 0 13.58007,7.33594 200.16841,200.16841 0 0 1 -13.58007,-7.33594 z m 18.10351,9.51563 a 200.16841,200.16841 0 0 0 13.34375,5.56641 200.16841,200.16841 0 0 1 -13.34375,-5.56641 z m 18.97656,7.61523 a 200.16841,200.16841 0 0 0 12.8418,3.90821 200.16841,200.16841 0 0 1 -12.8418,-3.90821 z m 19.72657,5.65625 a 200.16841,200.16841 0 0 0 12.0625,2.38672 200.16841,200.16841 0 0 1 -12.0625,-2.38672 z m 20.17969,3.60352 a 200.16841,200.16841 0 0 0 11.15039,1.06641 200.16841,200.16841 0 0 1 -11.15039,-1.06641 z"
         style="fill:#000000;fill-opacity:0.49019608;stroke:none;stroke-width:109.18276978;stroke-linecap:round;stroke-miterlimit:4;stroke-dasharray:none;stroke-opacity:1" /><path
         inkscape:connector-curvature="0"
         id="path90"
         d="m 865.47026,323.90689 a 25.475979,25.475979 0 0 1 -16.74414,6.34375 25.475979,25.475979 0 0 1 -15.41797,-5.21289 l -159.3789,59.13086 a 200.16841,200.16841 0 0 0 173.1289,99.75781 200.16841,200.16841 0 0 0 176.09965,-105.61523 z m -81.25195,67.98633 c 0,0 42.656,13.34452 65.18164,13.46484 22.52565,0.1201 67.32422,-13.1582 67.32422,-13.1582 l 2.14258,11.62891 c 0,0 -44.41203,21.00277 -68.24219,21.11523 -23.83016,0.11209 -68.54883,-20.50391 -68.54883,-20.50391 z"
         style="fill:#000000;fill-opacity:0.49019608;fill-rule:evenodd;stroke:none;stroke-width:7.27885103px;stroke-linecap:butt;stroke-linejoin:miter;stroke-opacity:1" /></g><g
       style="fill:#ffffff"
       transform="matrix(0.64938245,0,0,0.64938245,-293.9215,97.746676)"
       id="g52"><path
         style="fill:#ffffff;fill-opacity:1;fill-rule:evenodd;stroke:none;stroke-width:7.27885103px;stroke-linecap:butt;stroke-linejoin:miter;stroke-opacity:1"
         d="m 738.20073,3.4733017 c -0.52538,-0.01045 -1.05942,0.0036 -1.60156,0.04102 -17.34849,1.196279 -21.66233,24.3097273 -27.54102,45.2910153 -4.32474,15.435424 -2.28995,50.087657 -0.91015,67.402333 A 200.16841,200.16841 0 0 1 772.38823,77.848302 C 772.66714,65.595981 772.14219,51.605345 769.03667,43.295568 762.81276,26.641602 754.4874,3.7972157 738.20073,3.4733017 Z"
         id="path4180"
         inkscape:connector-curvature="0" /><path
         style="fill:#ffffff;fill-opacity:1;fill-rule:evenodd;stroke:none;stroke-width:7.27885103px;stroke-linecap:butt;stroke-linejoin:miter;stroke-opacity:1"
         d="m 951.82378,4.4147077 c -16.28667,0.323915 -24.61203,23.1683003 -30.83594,39.8222663 -2.9222,7.819235 -3.55912,20.665946 -3.39258,32.365234 a 200.16841,200.16841 0 0 1 64.57813,36.486322 c 1.33709,-18.209476 2.81546,-48.98706 -1.20703,-63.343744 -5.87869,-20.981287 -10.19253,-44.0947353 -27.54102,-45.2910153 -0.54214,-0.03738 -1.07619,-0.04951 -1.60156,-0.03906 z"
         id="path4180-3"
         inkscape:connector-curvature="0" /><path
         style="fill:#ffffff;fill-opacity:1;stroke:none;stroke-width:109.18276978;stroke-linecap:round;stroke-miterlimit:4;stroke-dasharray:none;stroke-opacity:1"
         d="M 846.11089,73.596349 A 200.16841,200.16841 0 0 0 646.648,274.23306 a 200.16841,200.16841 0 0 0 27.28906,99.9336 l 152.72656,-56.66407 a 25.475979,25.475979 0 0 1 -3.44336,-12.66796 25.475979,25.475979 0 0 1 25.38672,-25.53516 25.475979,25.475979 0 0 1 25.56445,25.35547 v 0.11914 a 25.475979,25.475979 0 0 1 -2.63867,11.22461 l 151.26754,52.18945 a 200.16841,200.16841 0 0 0 24.1836,-94.42578 v -0.93945 A 200.16841,200.16841 0 0 0 846.11089,73.596349 Z M 1022.8003,368.18814 a 200.16841,200.16841 0 0 1 -3.8828,7.35156 200.16841,200.16841 0 0 0 4.2403,-7.22851 z m -348.79293,6.10156 a 200.16841,200.16841 0 0 0 10.5625,16.27735 200.16841,200.16841 0 0 1 -10.5625,-16.27735 z m 11.0625,16.97657 a 200.16841,200.16841 0 0 0 11.72852,14.64062 200.16841,200.16841 0 0 1 -11.72852,-14.64062 z m 12.77735,15.83008 a 200.16841,200.16841 0 0 0 12.6289,12.88085 200.16841,200.16841 0 0 1 -12.6289,-12.88085 z m 14.31054,14.44335 a 200.16841,200.16841 0 0 0 13.26172,11.06641 200.16841,200.16841 0 0 1 -13.26172,-11.06641 z m 15.74219,12.94727 a 200.16841,200.16841 0 0 0 13.57617,9.19531 200.16841,200.16841 0 0 1 -13.57617,-9.19531 z m 17.02344,11.30273 a 200.16841,200.16841 0 0 0 13.58007,7.33594 200.16841,200.16841 0 0 1 -13.58007,-7.33594 z m 18.10351,9.51563 a 200.16841,200.16841 0 0 0 13.34375,5.56641 200.16841,200.16841 0 0 1 -13.34375,-5.56641 z m 18.97656,7.61523 a 200.16841,200.16841 0 0 0 12.8418,3.90821 200.16841,200.16841 0 0 1 -12.8418,-3.90821 z m 19.72657,5.65625 a 200.16841,200.16841 0 0 0 12.0625,2.38672 200.16841,200.16841 0 0 1 -12.0625,-2.38672 z m 20.17969,3.60352 a 200.16841,200.16841 0 0 0 11.15039,1.06641 200.16841,200.16841 0 0 1 -11.15039,-1.06641 z"
         id="path3371"
         inkscape:connector-curvature="0" /><path
         style="fill:#ffffff;fill-opacity:1;fill-rule:evenodd;stroke:none;stroke-width:7.27885103px;stroke-linecap:butt;stroke-linejoin:miter;stroke-opacity:1"
         d="m 865.47026,323.90689 a 25.475979,25.475979 0 0 1 -16.74414,6.34375 25.475979,25.475979 0 0 1 -15.41797,-5.21289 l -159.3789,59.13086 a 200.16841,200.16841 0 0 0 173.1289,99.75781 200.16841,200.16841 0 0 0 176.09965,-105.61523 z m -81.25195,67.98633 c 0,0 42.656,13.34452 65.18164,13.46484 22.52565,0.1201 67.32422,-13.1582 67.32422,-13.1582 l 2.14258,11.62891 c 0,0 -44.41203,21.00277 -68.24219,21.11523 -23.83016,0.11209 -68.54883,-20.50391 -68.54883,-20.50391 z"
         id="path4175"
         inkscape:connector-curvature="0" /></g></g></svg>