<?xml version="1.0" encoding="UTF-8" standalone="no"?>
<!-- Created with Inkscape (http://www.inkscape.org/) -->

<svg
   xmlns:dc="http://purl.org/dc/elements/1.1/"
   xmlns:cc="http://creativecommons.org/ns#"
   xmlns:rdf="http://www.w3.org/1999/02/22-rdf-syntax-ns#"
   xmlns:svg="http://www.w3.org/2000/svg"
   xmlns="http://www.w3.org/2000/svg"
   xmlns:sodipodi="http://sodipodi.sourceforge.net/DTD/sodipodi-0.dtd"
   xmlns:inkscape="http://www.inkscape.org/namespaces/inkscape"
   id="svg2"
   version="1.1"
   inkscape:version="0.92.3 (2405546, 2018-03-11)"
   width="512"
   height="512"
   sodipodi:docname="qgis-browser.svg">
  <metadata
     id="metadata8">
    <rdf:RDF>
      <cc:Work
         rdf:about="">
        <dc:format>image/svg+xml</dc:format>
        <dc:type
           rdf:resource="http://purl.org/dc/dcmitype/StillImage" />
        <dc:title></dc:title>
      </cc:Work>
    </rdf:RDF>
  </metadata>
  <defs
     id="defs6" />
  <sodipodi:namedview
     pagecolor="#ffffff"
     bordercolor="#666666"
     borderopacity="1"
     objecttolerance="10"
     gridtolerance="10"
     guidetolerance="10"
     inkscape:pageopacity="0"
     inkscape:pageshadow="2"
     inkscape:window-width="1255"
     inkscape:window-height="648"
     id="namedview4"
     showgrid="false"
     inkscape:zoom="0.4609375"
     inkscape:cx="944.45369"
     inkscape:cy="79.546997"
     inkscape:window-x="15"
     inkscape:window-y="40"
     inkscape:window-maximized="0"
     inkscape:current-layer="svg2" />
  <g
     transform="translate(3.8414086e-8,-4.72945e-6)"
     id="g877">
    <path
       id="path1165"
       d="M 432.91328,56.474957 C 535.10618,145.04846 538.74005,306.17452 441.03006,416.37299 343.32007,526.57148 181.27962,544.10044 79.086743,455.52694 -23.106206,366.95112 -26.740033,205.82738 70.969944,95.626584 168.67988,-14.571874 330.72033,-32.100857 432.91328,56.474957 Z"
       inkscape:connector-curvature="0"
       style="fill:#f9c440;fill-opacity:1;stroke-width:11.10954762" />
    <path
       id="path1167"
       d="M 511.63552,224.904 C 510.08416,286.21587 486.47428,349.05909 440.66913,400.71745 342.95911,510.91591 180.91867,528.44488 78.725762,439.87141 30.827125,398.35528 4.4968196,340.92296 0.19382737,280.22782 0.79908097,346.58521 27.117406,410.48267 79.078693,455.51763 181.27157,544.09344 343.31972,526.55518 441.02203,416.366 490.72697,360.30678 514.02704,291.07521 511.63552,224.904 Z"
       inkscape:connector-curvature="0"
       style="opacity:1;fill:#000000;fill-opacity:0.49019608;stroke-width:11.10954762" />
    <g
       style="fill:#000000;fill-opacity:0.49019608"
       transform="translate(20,20)"
       id="g867">
      <path
         inkscape:connector-curvature="0"
         id="path863"
         d="m 412,112.75781 -85.25781,35.21485 23.40039,7.86132 -8.16992,7.29883 c 5.38386,4.53537 10.31829,9.53047 14.73437,14.92188 l 9.18164,-8.20313 6.72071,26.20117 z m -98.79297,76.07813 -108.75781,97.17383 c 3.51911,6.21904 7.79853,11.85348 12.70508,16.73242 L 325.25,206.16016 c -3.27358,-6.39304 -7.33272,-12.22298 -12.04297,-17.32422 z M 173.01367,314.09766 159.14062,326.49219 100,350.91992 136.69336,363.24805 145.86523,399 172.5332,342.60938 188.17578,328.63477 c -5.5167,-4.39879 -10.59595,-9.2635 -15.16211,-14.53711 z"
         style="fill:#000000;fill-opacity:0.49019608;stroke:none;stroke-width:0.698a715e" />
      <path
         inkscape:connector-curvature="0"
         id="path865"
         d="m 263.8541,135.03084 c -64.6026,0 -116.9288,49.29248 -116.9288,110.05601 0,42.38969 25.5851,78.94393 62.9189,97.27551 l -23.9426,14.91075 7.424,7.10044 c 0,0 12.2118,-8.18005 19.3026,-9.58554 7.4578,-1.47934 22.829,1.42098 22.829,1.42098 10.9253,2.85382 -1.7968,-1.23379 19.3025,6.7452 0,0 43.6087,17.69937 66.8165,21.30131 7.3389,1.1392 15.2448,1.7249 22.4577,0 13.6245,-3.25756 37.1203,-18.99354 37.1203,-18.99354 v -8.52061 c 0,0 -16.6384,4.63528 -25.2418,5.14791 -5.6284,0.33613 -11.3981,-0.20126 -16.8897,-1.42098 -11.8184,-2.63986 -32.2406,-11.66385 -34.3362,-12.60318 44.4373,-15.57616 76.2821,-55.56972 76.2821,-102.77825 0,-60.76353 -52.5118,-110.05601 -117.1145,-110.05601 z m 0.1852,31.59674 c 38.8469,0 70.343,34.85692 70.343,77.92671 0,43.06999 -31.4961,78.10443 -70.343,78.10443 -38.8468,0 -70.3429,-35.03444 -70.3429,-78.10443 0,-43.06979 31.4961,-77.92671 70.3429,-77.92671 z"
         style="fill:#000000;fill-opacity:0.49019608;stroke:none;stroke-width:0.698a715e" />
    </g>
    <g
       id="g861">
      <path
         inkscape:connector-curvature="0"
         style="fill:#ffffff;fill-opacity:1;stroke:none;stroke-width:0.698a715e"
         d="m 412,112.75781 -85.25781,35.21485 23.40039,7.86132 -8.16992,7.29883 c 5.38386,4.53537 10.31829,9.53047 14.73437,14.92188 l 9.18164,-8.20313 6.72071,26.20117 z m -98.79297,76.07813 -108.75781,97.17383 c 3.51911,6.21904 7.79853,11.85348 12.70508,16.73242 L 325.25,206.16016 c -3.27358,-6.39304 -7.33272,-12.22298 -12.04297,-17.32422 z M 173.01367,314.09766 159.14062,326.49219 100,350.91992 136.69336,363.24805 145.86523,399 172.5332,342.60938 188.17578,328.63477 c -5.5167,-4.39879 -10.59595,-9.2635 -15.16211,-14.53711 z"
         id="path3918-6" />
      <path
         style="fill:#ffffff;fill-opacity:1;stroke:none;stroke-width:0.698a715e"
         d="m 263.8541,135.03084 c -64.6026,0 -116.9288,49.29248 -116.9288,110.05601 0,42.38969 25.5851,78.94393 62.9189,97.27551 l -23.9426,14.91075 7.424,7.10044 c 0,0 12.2118,-8.18005 19.3026,-9.58554 7.4578,-1.47934 22.829,1.42098 22.829,1.42098 10.9253,2.85382 -1.7968,-1.23379 19.3025,6.7452 0,0 43.6087,17.69937 66.8165,21.30131 7.3389,1.1392 15.2448,1.7249 22.4577,0 13.6245,-3.25756 37.1203,-18.99354 37.1203,-18.99354 v -8.52061 c 0,0 -16.6384,4.63528 -25.2418,5.14791 -5.6284,0.33613 -11.3981,-0.20126 -16.8897,-1.42098 -11.8184,-2.63986 -32.2406,-11.66385 -34.3362,-12.60318 44.4373,-15.57616 76.2821,-55.56972 76.2821,-102.77825 0,-60.76353 -52.5118,-110.05601 -117.1145,-110.05601 z m 0.1852,31.59674 c 38.8469,0 70.343,34.85692 70.343,77.92671 0,43.06999 -31.4961,78.10443 -70.343,78.10443 -38.8468,0 -70.3429,-35.03444 -70.3429,-78.10443 0,-43.06979 31.4961,-77.92671 70.3429,-77.92671 z"
         id="path3956"
         inkscape:connector-curvature="0" />
    </g>
  </g>
</svg>
