<?xml version="1.0" encoding="UTF-8" standalone="no"?>
<svg
   xmlns:dc="http://purl.org/dc/elements/1.1/"
   xmlns:cc="http://creativecommons.org/ns#"
   xmlns:rdf="http://www.w3.org/1999/02/22-rdf-syntax-ns#"
   xmlns:svg="http://www.w3.org/2000/svg"
   xmlns="http://www.w3.org/2000/svg"
   xmlns:sodipodi="http://sodipodi.sourceforge.net/DTD/sodipodi-0.dtd"
   xmlns:inkscape="http://www.inkscape.org/namespaces/inkscape"
   viewBox="0 0 512 512"
   id="svg2"
   version="1.1"
   inkscape:version="0.92.3 (2405546, 2018-03-11)"
   sodipodi:docname="qmmp.svg"
   width="512"
   height="512">
  <metadata
     id="metadata69">
    <rdf:RDF>
      <cc:Work
         rdf:about="">
        <dc:format>image/svg+xml</dc:format>
        <dc:type
           rdf:resource="http://purl.org/dc/dcmitype/StillImage" />
        <dc:title></dc:title>
      </cc:Work>
    </rdf:RDF>
  </metadata>
  <sodipodi:namedview
     pagecolor="#ffffff"
     bordercolor="#666666"
     borderopacity="1"
     objecttolerance="10"
     gridtolerance="10"
     guidetolerance="10"
     inkscape:pageopacity="0"
     inkscape:pageshadow="2"
     inkscape:window-width="1069"
     inkscape:window-height="665"
     id="namedview67"
     showgrid="false"
     inkscape:zoom="0.43457604"
     inkscape:cx="55.578562"
     inkscape:cy="209.18503"
     inkscape:window-x="0"
     inkscape:window-y="28"
     inkscape:window-maximized="0"
     inkscape:current-layer="svg2" />
  <defs
     id="defs4">
    <inkscape:perspective
       sodipodi:type="inkscape:persp3d"
       inkscape:vp_x="0 : 64 : 1"
       inkscape:vp_y="0 : 1000 : 0"
       inkscape:vp_z="128 : 64 : 1"
       inkscape:persp3d-origin="64 : 42.666667 : 1"
       id="perspective3397" />
    <linearGradient
       id="linearGradient3764"
       x1="1"
       x2="47"
       gradientUnits="userSpaceOnUse"
       gradientTransform="rotate(-90,23.999998,24)">
      <stop
         stop-color="#3d3d3d"
         stop-opacity="1"
         id="stop7" />
      <stop
         offset="1"
         stop-color="#474747"
         stop-opacity="1"
         id="stop9" />
    </linearGradient>
    <clipPath
       id="clipPath-173742668">
      <g
         transform="translate(0,-1004.3622)"
         id="g12">
        <path
           d="m -24,13 c 0,1.105 -0.672,2 -1.5,2 -0.828,0 -1.5,-0.895 -1.5,-2 0,-1.105 0.672,-2 1.5,-2 0.828,0 1.5,0.895 1.5,2 z"
           transform="matrix(15.333333,0,0,11.5,414.99999,878.8622)"
           id="path14"
           inkscape:connector-curvature="0"
           style="fill:#1890d0" />
      </g>
    </clipPath>
    <clipPath
       id="clipPath-179729665">
      <g
         transform="translate(0,-1004.3622)"
         id="g17">
        <path
           d="m -24,13 c 0,1.105 -0.672,2 -1.5,2 -0.828,0 -1.5,-0.895 -1.5,-2 0,-1.105 0.672,-2 1.5,-2 0.828,0 1.5,0.895 1.5,2 z"
           transform="matrix(15.333333,0,0,11.5,414.99999,878.8622)"
           id="path19"
           inkscape:connector-curvature="0"
           style="fill:#1890d0" />
      </g>
    </clipPath>
  </defs>
  <g
     id="g887">
    <path
       style="fill:#333333;fill-opacity:1;stroke-width:11.10955811"
       inkscape:connector-curvature="0"
       d="M 432.91326,56.473989 C 535.10618,145.04858 538.74006,306.1737 441.03006,416.37277 343.32009,526.57181 181.27964,544.10062 79.086726,455.52603 -23.106185,366.95144 -26.740041,205.82632 70.969924,95.627247 168.6799,-14.57183 330.72036,-32.100605 432.91326,56.473989 Z"
       id="path27" />
    <path
       style="opacity:1;fill:#000000;fill-opacity:0.49019608;stroke:none;stroke-width:0.20316762;stroke-linecap:round;stroke-linejoin:miter;stroke-miterlimit:4;stroke-dasharray:none;stroke-dashoffset:0;stroke-opacity:1"
       d="m 264.09238,161.24542 c -0.27287,0.0402 -0.43483,0.2824 -0.44936,0.77483 -0.0447,1.51518 1.59301,6.76146 3.63894,11.65807 2.76197,6.61027 3.0529,10.14699 1.13389,13.73265 -3.63471,6.79151 -10.58919,6.01328 -22.33972,-2.49875 -12.10724,-8.77044 -23.54324,-9.41377 -61.6059,-3.46466 -36.98563,5.78078 -59.57863,18.76597 -64.11725,36.84931 -1.94741,7.75915 3.95181,13.97393 22.97806,24.20434 7.68904,4.13439 13.66288,8.93355 13.2749,10.66486 -2.00828,8.96256 16.20448,22.11925 30.61922,22.11925 5.36934,0 5.9487,0.81775 4.75814,6.71725 -0.74552,3.69428 -2.10493,8.65633 -3.02161,11.02603 -1.25439,3.24264 3.68821,9.78031 19.97956,26.43012 l 21.64679,22.12345 -0.85042,21.65519 c -0.46722,11.9104 -0.12834,22.82287 0.75383,24.25054 2.51599,4.07098 9.92315,3.04642 14.49489,-2.00531 3.3242,-3.67317 3.82842,-7.12071 2.50505,-17.09653 l -1.65674,-12.49798 8.25221,0.0231 c 6.32824,0.0167 9.81893,-1.83332 14.96943,-7.93722 l 6.71725,-7.96033 6.71725,7.96033 c 5.14071,6.09226 8.64508,7.95409 14.93585,7.93722 l 8.22069,-0.0231 -1.61894,12.95153 c -1.37941,11.04041 -0.90781,13.59312 3.20008,17.31072 2.65028,2.39848 6.8239,3.9717 9.27481,3.49406 3.93099,-0.7661 4.48135,-3.67492 4.66994,-24.6852 l 0.21418,-23.81798 21.44941,-21.91767 c 18.04576,-18.4413 21.1728,-22.79226 19.72128,-27.43172 -3.61188,-11.54473 -2.77965,-15.25344 3.58855,-15.99625 14.25024,-1.66211 29.31105,-12.85487 29.31105,-21.78328 0,-4.53029 2.4175,-6.80441 11.2717,-10.59976 25.73402,-11.03093 30.41737,-19.21771 20.33022,-35.53904 -10.10614,-16.35203 -53.90259,-30.26111 -95.35172,-30.28116 -14.04222,-0.005 -17.42564,0.93705 -26.23694,7.31989 -12.19141,8.83139 -18.07737,9.24347 -22.19274,1.55385 -2.56876,-4.79978 -2.43036,-7.04547 0.81052,-13.31271 2.14421,-4.14637 3.86002,-8.96721 3.81532,-10.71315 -0.10839,-4.23619 -9.68844,7.38276 -9.68844,11.75046 0,1.86627 -1.0987,3.39327 -2.44207,3.39327 -1.3434,0 -2.44206,-1.527 -2.44206,-3.39327 0,-3.57474 -7.32901,-13.22688 -9.2391,-12.94525 z"
       id="path881"
       inkscape:connector-curvature="0"
       sodipodi:nodetypes="ccccsssscscccccccccccccccccccccccscscccccsssc" />
    <path
       sodipodi:nodetypes="ccccsssscscccccccccccccccccccccccscscccccsssc"
       inkscape:connector-curvature="0"
       id="path70"
       d="m 244.09238,141.24542 c -0.27287,0.0402 -0.43483,0.2824 -0.44936,0.77483 -0.0447,1.51518 1.59301,6.76146 3.63894,11.65807 2.76197,6.61027 3.0529,10.14699 1.13389,13.73265 -3.63471,6.79151 -10.58919,6.01328 -22.33972,-2.49875 -12.10724,-8.77044 -23.54324,-9.41377 -61.6059,-3.46466 -36.98563,5.78078 -59.57863,18.76597 -64.11725,36.84931 -1.947416,7.75915 3.95181,13.97393 22.97806,24.20434 7.68904,4.13439 13.66288,8.93355 13.2749,10.66486 -2.00828,8.96256 16.20448,22.11925 30.61922,22.11925 5.36934,0 5.9487,0.81775 4.75814,6.71725 -0.74552,3.69428 -2.10493,8.65633 -3.02161,11.02603 -1.25439,3.24264 3.68821,9.78031 19.97956,26.43012 l 21.64679,22.12345 -0.85042,21.65519 c -0.46722,11.9104 -0.12834,22.82287 0.75383,24.25054 2.51599,4.07098 9.92315,3.04642 14.49489,-2.00531 3.3242,-3.67317 3.82842,-7.12071 2.50505,-17.09653 l -1.65674,-12.49798 8.25221,0.0231 c 6.32824,0.0167 9.81893,-1.83332 14.96943,-7.93722 l 6.71725,-7.96033 6.71725,7.96033 c 5.14071,6.09226 8.64508,7.95409 14.93585,7.93722 l 8.22069,-0.0231 -1.61894,12.95153 c -1.37941,11.04041 -0.90781,13.59312 3.20008,17.31072 2.65028,2.39848 6.8239,3.9717 9.27481,3.49406 3.93099,-0.7661 4.48135,-3.67492 4.66994,-24.6852 l 0.21418,-23.81798 21.44941,-21.91767 c 18.04576,-18.4413 21.1728,-22.79226 19.72128,-27.43172 -3.61188,-11.54473 -2.77965,-15.25344 3.58855,-15.99625 14.25024,-1.66211 29.31105,-12.85487 29.31105,-21.78328 0,-4.53029 2.4175,-6.80441 11.2717,-10.59976 25.73402,-11.03093 30.41737,-19.21771 20.33022,-35.53904 -10.10614,-16.35203 -53.90259,-30.26111 -95.35172,-30.28116 -14.04222,-0.005 -17.42564,0.93705 -26.23694,7.31989 -12.19141,8.83139 -18.07737,9.24347 -22.19274,1.55385 -2.56876,-4.79978 -2.43036,-7.04547 0.81052,-13.31271 2.14421,-4.14637 3.86002,-8.96721 3.81532,-10.71315 -0.10839,-4.23619 -9.68844,7.38276 -9.68844,11.75046 0,1.86627 -1.0987,3.39327 -2.44207,3.39327 -1.3434,0 -2.44206,-1.527 -2.44206,-3.39327 0,-3.57474 -7.32901,-13.22688 -9.2391,-12.94525 z"
       style="opacity:1;fill:#ffffff;fill-opacity:1;stroke:none;stroke-width:0.20316762;stroke-linecap:round;stroke-linejoin:miter;stroke-miterlimit:4;stroke-dasharray:none;stroke-dashoffset:0;stroke-opacity:1" />
    <path
       style="opacity:1;fill:#000000;fill-opacity:0.49019608;stroke-width:11.10955811"
       inkscape:connector-curvature="0"
       d="m 511.63549,224.90352 c -1.5514,61.31165 -25.16122,124.15461 -70.96637,175.81446 C 342.95914,510.91713 180.91869,528.44583 78.725773,439.87128 30.827124,398.35562 4.4968208,340.92284 0.19382883,280.22882 0.7990788,346.58547 27.117409,410.48217 79.078679,455.51905 181.27159,544.09361 343.31974,526.55622 441.02201,416.36576 c 49.70496,-56.05809 73.005,-125.29094 70.61348,-191.46224 z"
       id="path51" />
  </g>
  <g
     id="g33"
     transform="translate(0,464)" />
</svg>
