<?xml version="1.0" encoding="UTF-8" standalone="no"?>
<svg
   xmlns:dc="http://purl.org/dc/elements/1.1/"
   xmlns:cc="http://creativecommons.org/ns#"
   xmlns:rdf="http://www.w3.org/1999/02/22-rdf-syntax-ns#"
   xmlns:svg="http://www.w3.org/2000/svg"
   xmlns="http://www.w3.org/2000/svg"
   xmlns:sodipodi="http://sodipodi.sourceforge.net/DTD/sodipodi-0.dtd"
   xmlns:inkscape="http://www.inkscape.org/namespaces/inkscape"
   viewBox="0 0 512 512"
   id="svg2"
   version="1.1"
   inkscape:version="0.92.3 (2405546, 2018-03-11)"
   width="512"
   height="512"
   sodipodi:docname="qutim.svg">
  <metadata
     id="metadata76">
    <rdf:RDF>
      <cc:Work
         rdf:about="">
        <dc:format>image/svg+xml</dc:format>
        <dc:type
           rdf:resource="http://purl.org/dc/dcmitype/StillImage" />
        <dc:title></dc:title>
      </cc:Work>
    </rdf:RDF>
  </metadata>
  <sodipodi:namedview
     pagecolor="#ffffff"
     bordercolor="#666666"
     borderopacity="1"
     objecttolerance="10"
     gridtolerance="10"
     guidetolerance="10"
     inkscape:pageopacity="0"
     inkscape:pageshadow="2"
     inkscape:window-width="1068"
     inkscape:window-height="678"
     id="namedview74"
     showgrid="false"
     inkscape:zoom="0.30729167"
     inkscape:cx="356.69874"
     inkscape:cy="335.66372"
     inkscape:window-x="2"
     inkscape:window-y="57"
     inkscape:window-maximized="0"
     inkscape:current-layer="svg2"
     units="px" />
  <defs
     id="defs4">
    <linearGradient
       id="linearGradient3764"
       x1="1"
       x2="47"
       gradientUnits="userSpaceOnUse"
       gradientTransform="rotate(-90,23.999998,24)">
      <stop
         stop-color="#8358b4"
         stop-opacity="1"
         id="stop7" />
      <stop
         offset="1"
         stop-color="#8d65ba"
         stop-opacity="1"
         id="stop9" />
    </linearGradient>
    <clipPath
       id="clipPath-057129763">
      <g
         transform="translate(0,-1004.3622)"
         id="g12">
        <path
           d="m -24,13 c 0,1.105 -0.672,2 -1.5,2 -0.828,0 -1.5,-0.895 -1.5,-2 0,-1.105 0.672,-2 1.5,-2 0.828,0 1.5,0.895 1.5,2 z"
           transform="matrix(15.333333,0,0,11.5,414.99999,878.8622)"
           id="path14"
           inkscape:connector-curvature="0"
           style="fill:#1890d0" />
      </g>
    </clipPath>
    <clipPath
       id="clipPath-064426159">
      <g
         transform="translate(0,-1004.3622)"
         id="g17">
        <path
           d="m -24,13 c 0,1.105 -0.672,2 -1.5,2 -0.828,0 -1.5,-0.895 -1.5,-2 0,-1.105 0.672,-2 1.5,-2 0.828,0 1.5,0.895 1.5,2 z"
           transform="matrix(15.333333,0,0,11.5,414.99999,878.8622)"
           id="path19"
           inkscape:connector-curvature="0"
           style="fill:#1890d0" />
      </g>
    </clipPath>
  </defs>
  <g
     id="g33"
     transform="translate(0,963)" />
  <g
     id="g864">
    <path
       style="fill:#3689e6;fill-opacity:1;stroke-width:11.10954762"
       inkscape:connector-curvature="0"
       d="m 432.9133,56.47496 c 102.19288,88.57349 105.82676,249.69955 8.11678,359.89796 -97.70998,110.1986 -259.75045,127.7275 -361.943331,39.154 C -23.106211,366.95112 -26.740031,205.82737 70.969949,95.62658 168.67988,-14.57187 330.72036,-32.10086 432.9133,56.47496 Z"
       id="path1165" />
    <path
       style="opacity:1;fill:#000000;fill-opacity:0.49019608;stroke-width:11.10954762"
       inkscape:connector-curvature="0"
       d="m 511.63553,224.90399 c -1.55134,61.31187 -25.16124,124.15503 -70.96641,175.81343 -97.70998,110.1985 -259.75044,127.7275 -361.943351,39.154 -47.89864,-41.5161 -74.2289503,-98.9485 -78.53194028,-159.64361 0.60525,66.35741 26.92358028,130.25481 78.88486028,175.28981 102.192891,88.5758 264.241031,71.0376 361.943351,-39.1516 49.70495,-56.0593 73.00505,-125.29082 70.61349,-191.46203 z"
       id="path1167" />
    <path
       style="fill:#000000;fill-opacity:0.49019608;fill-rule:evenodd;stroke:none;stroke-width:1.54500711px;stroke-linecap:butt;stroke-linejoin:miter;stroke-opacity:1"
       d="m 192.44327,430.19167 c -9.29605,-5.4138 -2.23975,-15.5956 -6.22161,-19.10924 -3.98185,-3.51363 -9.00357,0.80854 -11.55442,-2.22199 -2.55083,-3.03054 2.13442,-9.02221 -0.22219,-11.99882 -2.35662,-2.97661 -7.88955,1.53134 -10.44342,-2.66641 -2.55387,-4.19775 7.18973,-11.53863 4.22181,-18.22043 -2.96793,-6.68179 -19.18792,-1.47117 -21.99784,-12.22102 -2.80992,-10.74984 21.55255,-24.03751 21.77564,-35.32984 0.22308,-11.29234 -10.8562,-10.61361 -12.88763,-22.88664 -2.03144,-12.27304 2.61323,-31.19356 8.88802,-47.55088 6.27479,-16.35731 27.40276,-34.17661 29.55265,-48.43968 2.1499,-14.26308 -7.33262,-28.88604 -7.33262,-28.88604 0,0 18.83701,14.03144 23.10884,23.55323 4.27185,9.52179 -7.48597,28.67155 1.9998,29.55264 9.48577,0.88111 0.29726,-15.57949 6.88822,-26.66404 6.59094,-11.08453 19.27117,-23.97959 36.44084,-33.99663 17.16969,-10.01704 46.97745,-19.04708 66.21571,-20.88685 19.23826,-1.83976 46.21768,5.33281 46.21768,5.33281 0,0 -31.69613,8.27615 -44.9792,15.63682 -13.28308,7.36067 -27.12617,17.99031 -34.79073,28.35884 -7.66457,10.36853 -15.78336,21.12109 -5.11061,26.88625 10.67276,5.76517 22.18619,-26.0385 32.66345,-31.55244 10.47727,-5.51395 18.83382,-2.6818 25.10864,-5.11062 6.27482,-2.42884 12.66543,-7.55481 12.66543,-7.55481 0,0 -3.70628,11.10568 -6.66601,17.33162 -2.95974,6.22595 -15.01015,13.06263 -11.33223,19.77583 3.67792,6.71321 15.00146,4.83764 23.10884,1.111 8.10739,-3.72663 14.11448,-13.38647 18.66483,-23.99764 4.55036,-10.61116 4.14181,-25.36454 5.7772,-38.44064 C 383.83776,146.91994 386.20197,120 386.20197,120 c 0,0 11.6585,43.79663 14.44304,62.66048 2.78453,18.86383 8.15797,37.34801 3.33299,49.99508 -4.82498,12.64708 -13.32707,15.80874 -22.22002,21.77563 -8.89296,5.9669 -23.2841,6.3233 -30.44145,13.10981 -7.15736,6.78654 -16.2323,16.45572 -11.55443,23.33105 4.67786,6.87533 16.94558,2.4523 23.77543,-1.9998 6.82986,-4.45212 5.32096,-15.72337 11.99882,-21.99784 6.67786,-6.27446 27.10845,-12.66542 27.10845,-12.66542 0,0 -12.46386,10.59562 -18.88703,22.88663 -6.42316,12.29102 -2.86631,39.80421 -14.44302,51.55047 -11.57671,11.74628 -34.20359,5.85204 -43.55127,12.88764 -9.34768,7.03561 -15.90902,14.38373 -13.33202,20.88683 2.57699,6.50311 10.8286,5.95683 16.66501,4.22181 5.83642,-1.73503 13.10985,-14.22083 13.10985,-14.22083 0,0 -3.21587,18.85669 -13.33203,26.88624 -10.11615,8.02956 -30.38543,4.01264 -46.21768,10.88782 -15.83227,6.8752 -31.19509,24.66588 -46.66206,31.10807 -15.46698,6.44218 -34.25523,14.3018 -43.55128,8.888 z"
       id="path53"
       inkscape:connector-curvature="0"
       sodipodi:nodetypes="zzzzzzzzzzzczzzzzczzzzzczzzzzczzzzzzzczzzzzczzzz" />
    <path
       sodipodi:nodetypes="zzzzzzzzzzzczzzzzczzzzzczzzzzczzzzzzzczzzzzczzzz"
       inkscape:connector-curvature="0"
       id="path3364"
       d="m 172.44327,410.19167 c -9.29605,-5.4138 -2.23975,-15.5956 -6.22161,-19.10924 -3.98185,-3.51363 -9.00357,0.80854 -11.55442,-2.22199 -2.55083,-3.03054 2.13442,-9.02221 -0.22219,-11.99882 -2.35662,-2.97661 -7.88955,1.53134 -10.44342,-2.66641 -2.55387,-4.19775 7.18973,-11.53863 4.22181,-18.22043 -2.96793,-6.68179 -19.18792,-1.47117 -21.99784,-12.22102 -2.80992,-10.74984 21.55255,-24.03751 21.77564,-35.32984 0.22308,-11.29234 -10.8562,-10.61361 -12.88763,-22.88664 -2.03144,-12.27304 2.61323,-31.19356 8.88802,-47.55088 6.27479,-16.35731 27.40276,-34.17661 29.55265,-48.43968 2.1499,-14.26308 -7.33262,-28.88604 -7.33262,-28.88604 0,0 18.83701,14.03144 23.10884,23.55323 4.27185,9.52179 -7.48597,28.67155 1.9998,29.55264 9.48577,0.88111 0.29726,-15.57949 6.88822,-26.66404 6.59094,-11.08453 19.27117,-23.97959 36.44084,-33.99663 17.16969,-10.01704 46.97745,-19.04708 66.21571,-20.88685 19.23826,-1.83976 46.21768,5.33281 46.21768,5.33281 0,0 -31.69613,8.27615 -44.9792,15.63682 -13.28308,7.36067 -27.12617,17.99031 -34.79073,28.35884 -7.66457,10.36853 -15.78336,21.12109 -5.11061,26.88625 10.67276,5.76517 22.18619,-26.0385 32.66345,-31.55244 10.47727,-5.51395 18.83382,-2.6818 25.10864,-5.11062 6.27482,-2.42884 12.66543,-7.55481 12.66543,-7.55481 0,0 -3.70628,11.10568 -6.66601,17.33162 -2.95974,6.22595 -15.01015,13.06263 -11.33223,19.77583 3.67792,6.71321 15.00146,4.83764 23.10884,1.111 8.10739,-3.72663 14.11448,-13.38647 18.66483,-23.99764 4.55036,-10.61116 4.14181,-25.36454 5.7772,-38.44064 1.6354,-13.07611 3.99961,-39.996055 3.99961,-39.996055 0,0 11.6585,43.796635 14.44304,62.660485 2.78453,18.86383 8.15797,37.34801 3.33299,49.99508 -4.82498,12.64708 -13.32707,15.80874 -22.22002,21.77563 -8.89296,5.9669 -23.2841,6.3233 -30.44145,13.10981 -7.15736,6.78654 -16.2323,16.45572 -11.55443,23.33105 4.67786,6.87533 16.94558,2.4523 23.77543,-1.9998 6.82986,-4.45212 5.32096,-15.72337 11.99882,-21.99784 6.67786,-6.27446 27.10845,-12.66542 27.10845,-12.66542 0,0 -12.46386,10.59562 -18.88703,22.88663 -6.42316,12.29102 -2.86631,39.80421 -14.44302,51.55047 -11.57671,11.74628 -34.20359,5.85204 -43.55127,12.88764 -9.34768,7.03561 -15.90902,14.38373 -13.33202,20.88683 2.57699,6.50311 10.8286,5.95683 16.66501,4.22181 5.83642,-1.73503 13.10985,-14.22083 13.10985,-14.22083 0,0 -3.21587,18.85669 -13.33203,26.88624 -10.11615,8.02956 -30.38543,4.01264 -46.21768,10.88782 -15.83227,6.8752 -31.19509,24.66588 -46.66206,31.10807 -15.46698,6.44218 -34.25523,14.3018 -43.55128,8.888 z"
       style="fill:#ffffff;fill-opacity:1;fill-rule:evenodd;stroke:none;stroke-width:1.54500711px;stroke-linecap:butt;stroke-linejoin:miter;stroke-opacity:1" />
  </g>
</svg>
