<?xml version="1.0" encoding="UTF-8" standalone="no"?>
<!-- Created with Inkscape (http://www.inkscape.org/) -->

<svg
   xmlns:dc="http://purl.org/dc/elements/1.1/"
   xmlns:cc="http://creativecommons.org/ns#"
   xmlns:rdf="http://www.w3.org/1999/02/22-rdf-syntax-ns#"
   xmlns:svg="http://www.w3.org/2000/svg"
   xmlns="http://www.w3.org/2000/svg"
   xmlns:sodipodi="http://sodipodi.sourceforge.net/DTD/sodipodi-0.dtd"
   xmlns:inkscape="http://www.inkscape.org/namespaces/inkscape"
   id="svg2"
   version="1.1"
   inkscape:version="0.92.3 (2405546, 2018-03-11)"
   width="512"
   height="512"
   sodipodi:docname="rapidsvn.svg">
  <metadata
     id="metadata8">
    <rdf:RDF>
      <cc:Work
         rdf:about="">
        <dc:format>image/svg+xml</dc:format>
        <dc:type
           rdf:resource="http://purl.org/dc/dcmitype/StillImage" />
        <dc:title></dc:title>
      </cc:Work>
    </rdf:RDF>
  </metadata>
  <defs
     id="defs6" />
  <sodipodi:namedview
     pagecolor="#ffffff"
     bordercolor="#666666"
     borderopacity="1"
     objecttolerance="10"
     gridtolerance="10"
     guidetolerance="10"
     inkscape:pageopacity="0"
     inkscape:pageshadow="2"
     inkscape:window-width="934"
     inkscape:window-height="627"
     id="namedview4"
     showgrid="false"
     inkscape:zoom="0.40689654"
     inkscape:cx="88.143447"
     inkscape:cy="280.96688"
     inkscape:window-x="2"
     inkscape:window-y="57"
     inkscape:window-maximized="0"
     inkscape:current-layer="svg2" />
  <g
     id="g844">
    <path
       style="fill:#333333;fill-opacity:1;stroke-width:11.10955811"
       inkscape:connector-curvature="0"
       d="m 432.91327,56.47397 c 102.19291,88.57459 105.82678,249.6997 8.1168,359.89878 C 343.3201,526.57184 181.27964,544.10061 79.086729,455.52602 -23.106186,366.95143 -26.740042,205.82631 70.969928,95.62723 168.6799,-14.57185 330.72036,-32.10062 432.91327,56.47397 Z"
       id="path27" />
    <path
       style="opacity:1;fill:#000000;fill-opacity:0.49019608;stroke-width:11.10955811"
       inkscape:connector-curvature="0"
       d="M 511.63551,224.90351 C 510.08412,286.21516 486.47428,349.05812 440.66913,400.71799 342.95915,510.91711 180.91869,528.44584 78.725776,439.87129 30.827124,398.35563 4.4968216,340.92284 0.1938277,280.2288 0.79907936,346.58548 27.117411,410.48217 79.078682,455.51906 181.27159,544.09361 343.31975,526.55619 441.02202,416.36576 490.72697,360.30766 514.02704,291.0748 511.63551,224.90351 Z"
       id="path51" />
    <path
       style="fill:#000000;fill-rule:evenodd;stroke:none;stroke-width:0.73548782px;stroke-linecap:butt;stroke-linejoin:miter;stroke-opacity:1;fill-opacity:0.49019608"
       d="m 148.13052,254.3112 c -6.59977,6.67186 -12.40131,17.80819 -18.08267,33.94794 -6.82943,19.40128 -8.5968,30.95246 -9.00035,58.8233 -0.57688,39.8426 4.01555,57.94119 18.46781,72.77785 12.37858,12.70781 24.3309,15.62285 32.2859,7.87394 10.41925,-10.1493 8.63097,-56.0398 -4.30893,-110.55217 -3.18532,-13.41887 -5.94351,-28.0577 -6.12831,-32.53162 -0.40367,-9.77154 6.77748,-17.39145 17.5823,-18.65689 l 7.89307,-0.92444 -0.0254,21.20547 c -0.0297,26.07515 7.53435,45.09621 25.10194,63.13108 45.24845,46.45194 117.009,35.01896 136.23453,-21.70551 5.27665,-15.56861 3.33414,-41.70453 -4.41275,-59.3742 -9.30656,-21.2271 -31.90923,-42.39573 -53.32661,-49.94198 -8.47582,-2.98638 -15.66374,-6.56581 -15.97239,-7.95444 -0.3086,-1.38859 0.69837,-6.31072 2.23823,-10.93769 3.81405,-11.46037 12.79282,-14.63794 48.80138,-17.26991 52.82226,-3.86095 91.83634,-12.57316 102.52914,-22.89653 9.21592,-8.89737 -1.18005,-27.32121 -19.92264,-35.30613 -24.37598,-10.3849 -76.74743,0.13335 -112.47021,22.58729 -22.77155,14.31329 -29.0307,24.50984 -30.17793,49.16503 -0.80263,17.24881 -0.87363,17.39926 -8.06069,16.9462 -3.98811,-0.25141 -14.15926,1.81138 -22.60177,4.5835 -13.85757,4.55017 -16.74139,6.59474 -29.66549,21.03384 l -14.31596,15.99452 -11.80689,-4.74454 c -12.56518,-5.04857 -22.36995,-3.852 -30.85535,4.72609 z m 66.745,-14.23169 c 1.35286,-1.33221 2.7594,-2.56796 4.21146,-3.69726 11.12357,-8.65032 28.31196,-14.86341 39.20873,-14.17253 6.90021,0.43749 7.07486,0.8013 5.491,11.42824 -6.10602,40.96774 -24.83927,74.70525 -48.51045,87.36708 -4.41957,2.36405 -9.05992,3.22981 -10.31271,1.92379 -4.62466,-4.82106 -10.24492,-33.92616 -8.64262,-44.75378 2.18527,-14.76683 9.08202,-28.7727 18.55459,-38.09554 z m 61.51526,-15.76517 c 0.60237,-0.58676 6.95041,1.26855 14.10679,4.12257 17.74518,7.07695 39.35103,29.09557 45.84951,46.72724 12.17215,33.02534 1.57157,68.43655 -25.24748,84.34146 -26.71276,15.84181 -65.03685,9.74294 -87.73517,-13.96433 l -7.45267,-7.78474 7.97539,2.47871 c 9.9867,3.10363 17.36453,1.04349 25.84336,-7.21566 7.29855,-7.10947 10.38708,-21.07641 6.41269,-28.99954 -1.54413,-3.07824 0.21542,-12.07032 4.50911,-23.04826 3.87228,-9.90059 8.75063,-26.45963 10.84152,-36.79692 2.09086,-10.33728 4.2946,-19.27379 4.89697,-19.86056 z m 2.2508,46.69649 c -4.31747,4.20563 -1.97756,10.73387 3.87479,10.8107 5.6507,0.0742 6.9697,-1.4666 6.48294,-7.57236 -0.49884,-6.2575 -5.61555,-7.85764 -10.35773,-3.23834 z m -7.40844,56.1075 c -1.40535,1.36894 -2.96699,5.96414 -3.47006,10.21249 -0.78719,6.64774 -0.008,8.01306 5.59883,9.79106 5.7601,1.82686 24.18146,-0.55479 27.26994,-3.52568 0.63513,-0.61147 1.00953,-3.93126 0.83127,-7.37735 -0.42479,-8.21253 -4.62158,-15.99993 -9.21978,-17.10899 -3.9635,-0.956 -16.84991,3.95597 -21.0102,8.00847 z"
       id="path30"
       inkscape:connector-curvature="0" />
    <path
       inkscape:connector-curvature="0"
       id="path3350"
       d="m 128.13052,234.3112 c -6.59977,6.67186 -12.40131,17.80819 -18.08267,33.94794 -6.82943,19.40128 -8.5968,30.95246 -9.00035,58.8233 -0.57688,39.8426 4.01555,57.94119 18.46781,72.77785 12.37858,12.70781 24.3309,15.62285 32.2859,7.87394 10.41925,-10.1493 8.63097,-56.0398 -4.30893,-110.55217 -3.18532,-13.41887 -5.94351,-28.0577 -6.12831,-32.53162 -0.40367,-9.77154 6.77748,-17.39145 17.5823,-18.65689 l 7.89307,-0.92444 -0.0254,21.20547 c -0.0297,26.07515 7.53435,45.09621 25.10194,63.13108 45.24845,46.45194 117.009,35.01896 136.23453,-21.70551 5.27665,-15.56861 3.33414,-41.70453 -4.41275,-59.3742 -9.30656,-21.2271 -31.90923,-42.39573 -53.32661,-49.94198 -8.47582,-2.98638 -15.66374,-6.56581 -15.97239,-7.95444 -0.3086,-1.38859 0.69837,-6.31072 2.23823,-10.93769 3.81405,-11.46037 12.79282,-14.63794 48.80138,-17.26991 52.82226,-3.86095 91.83634,-12.57316 102.52914,-22.89653 9.21592,-8.89737 -1.18005,-27.32121 -19.92264,-35.30613 -24.37598,-10.3849 -76.74743,0.13335 -112.47021,22.58729 -22.77155,14.31329 -29.0307,24.50984 -30.17793,49.16503 -0.80263,17.24881 -0.87363,17.39926 -8.06069,16.9462 -3.98811,-0.25141 -14.15926,1.81138 -22.60177,4.5835 -13.85757,4.55017 -16.74139,6.59474 -29.66549,21.03384 l -14.31596,15.99452 -11.80689,-4.74454 c -12.56518,-5.04857 -22.36995,-3.852 -30.85535,4.72609 z m 66.745,-14.23169 c 1.35286,-1.33221 2.7594,-2.56796 4.21146,-3.69726 11.12357,-8.65032 28.31196,-14.86341 39.20873,-14.17253 6.90021,0.43749 7.07486,0.8013 5.491,11.42824 -6.10602,40.96774 -24.83927,74.70525 -48.51045,87.36708 -4.41957,2.36405 -9.05992,3.22981 -10.31271,1.92379 -4.62466,-4.82106 -10.24492,-33.92616 -8.64262,-44.75378 2.18527,-14.76683 9.08202,-28.7727 18.55459,-38.09554 z m 61.51526,-15.76517 c 0.60237,-0.58676 6.95041,1.26855 14.10679,4.12257 17.74518,7.07695 39.35103,29.09557 45.84951,46.72724 12.17215,33.02534 1.57157,68.43655 -25.24748,84.34146 -26.71276,15.84181 -65.03685,9.74294 -87.73517,-13.96433 l -7.45267,-7.78474 7.97539,2.47871 c 9.9867,3.10363 17.36453,1.04349 25.84336,-7.21566 7.29855,-7.10947 10.38708,-21.07641 6.41269,-28.99954 -1.54413,-3.07824 0.21542,-12.07032 4.50911,-23.04826 3.87228,-9.90059 8.75063,-26.45963 10.84152,-36.79692 2.09086,-10.33728 4.2946,-19.27379 4.89697,-19.86056 z m 2.2508,46.69649 c -4.31747,4.20563 -1.97756,10.73387 3.87479,10.8107 5.6507,0.0742 6.9697,-1.4666 6.48294,-7.57236 -0.49884,-6.2575 -5.61555,-7.85764 -10.35773,-3.23834 z m -7.40844,56.1075 c -1.40535,1.36894 -2.96699,5.96414 -3.47006,10.21249 -0.78719,6.64774 -0.008,8.01306 5.59883,9.79106 5.7601,1.82686 24.18146,-0.55479 27.26994,-3.52568 0.63513,-0.61147 1.00953,-3.93126 0.83127,-7.37735 -0.42479,-8.21253 -4.62158,-15.99993 -9.21978,-17.10899 -3.9635,-0.956 -16.84991,3.95597 -21.0102,8.00847 z"
       style="fill:#ffffff;fill-rule:evenodd;stroke:none;stroke-width:0.73548782px;stroke-linecap:butt;stroke-linejoin:miter;stroke-opacity:1" />
  </g>
</svg>
