<?xml version="1.0" encoding="UTF-8" standalone="no"?>
<!-- Created with Inkscape (http://www.inkscape.org/) -->

<svg
   xmlns:dc="http://purl.org/dc/elements/1.1/"
   xmlns:cc="http://creativecommons.org/ns#"
   xmlns:rdf="http://www.w3.org/1999/02/22-rdf-syntax-ns#"
   xmlns:svg="http://www.w3.org/2000/svg"
   xmlns="http://www.w3.org/2000/svg"
   xmlns:sodipodi="http://sodipodi.sourceforge.net/DTD/sodipodi-0.dtd"
   xmlns:inkscape="http://www.inkscape.org/namespaces/inkscape"
   id="svg2"
   version="1.1"
   inkscape:version="0.92.3 (2405546, 2018-03-11)"
   width="512"
   height="512"
   sodipodi:docname="redshiftgui-status-off.svg">
  <metadata
     id="metadata8">
    <rdf:RDF>
      <cc:Work
         rdf:about="">
        <dc:format>image/svg+xml</dc:format>
        <dc:type
           rdf:resource="http://purl.org/dc/dcmitype/StillImage" />
        <dc:title></dc:title>
      </cc:Work>
    </rdf:RDF>
  </metadata>
  <defs
     id="defs6" />
  <sodipodi:namedview
     pagecolor="#ffffff"
     bordercolor="#666666"
     borderopacity="1"
     objecttolerance="10"
     gridtolerance="10"
     guidetolerance="10"
     inkscape:pageopacity="0"
     inkscape:pageshadow="2"
     inkscape:window-width="1027"
     inkscape:window-height="687"
     id="namedview4"
     showgrid="false"
     inkscape:zoom="0.65186406"
     inkscape:cx="190.29581"
     inkscape:cy="223.60941"
     inkscape:window-x="15"
     inkscape:window-y="28"
     inkscape:window-maximized="0"
     inkscape:current-layer="svg2" />
  <path
     style="fill:#ff0000;fill-opacity:1;fill-rule:evenodd;stroke:none"
     d=""
     id="path2986"
     inkscape:connector-curvature="0" />
  <g
     id="g876">
    <path
       style="fill:#8a715e;fill-opacity:1;stroke-width:11.10955811"
       inkscape:connector-curvature="0"
       d="M 432.91326,56.473982 C 535.10617,145.04856 538.74004,306.17368 441.03006,416.37276 343.32009,526.57182 181.27965,544.10062 79.086737,455.52601 -23.106205,366.95143 -26.740032,205.82631 70.969942,95.627242 168.67991,-14.571838 330.72036,-32.100608 432.91326,56.473982 Z"
       id="path961" />
    <path
       style="opacity:1;fill:#000000;fill-opacity:0.49019608;stroke-width:11.10955811"
       inkscape:connector-curvature="0"
       d="m 511.6355,224.90352 c -1.55139,61.31164 -25.16123,124.1546 -70.96638,175.81447 C 342.95915,510.91712 180.9187,528.44582 78.725759,439.87129 30.827126,398.35564 4.4968208,340.92284 0.19382815,280.22881 0.79908215,346.58548 27.117406,410.48218 79.078687,455.51911 181.2716,544.09362 343.31975,526.55622 441.02201,416.36577 490.72696,360.30766 514.02703,291.0748 511.6355,224.90352 Z"
       id="path965" />
    <g
       style="fill:#000000;fill-opacity:0.49019608"
       transform="translate(19.999997,20.000006)"
       id="g52">
      <path
         inkscape:connector-curvature="0"
         id="path44"
         d="m 219.98217,339.87217 c -2.06723,-1.51677 -3.01432,-5.20467 -3.97981,-15.49745 -2.17292,-23.16432 -2.60642,-24.02218 -23.0181,-45.55282 -10.08024,-10.63283 -20.87888,-23.63007 -23.99696,-28.88276 -18.82022,-31.70428 -17.05594,-74.03178 4.44738,-106.69876 27.33075,-41.5198 84.27865,-55.400041 130.02557,-31.69192 16.09668,8.34203 33.26464,25.98282 41.38163,42.52132 8.46607,17.24973 11.18638,30.92203 10.30469,51.79141 -1.23838,29.31199 -8.15763,43.52274 -34.56238,70.98432 -10.02558,10.42679 -17.45063,19.56677 -19.30973,23.76958 -1.66133,3.75569 -3.98001,13.6652 -5.15263,22.02117 -1.17263,8.35595 -2.83729,15.8992 -3.69924,16.76279 -2.52873,2.53352 -69.04015,2.96792 -72.44042,0.47312 z m 45.32231,-58.67913 c 4.00576,-5.92915 14.81323,-19.22448 24.01664,-29.54523 19.22598,-21.56016 24.19869,-30.24807 25.32184,-44.24047 2.0972,-26.12666 -9.22742,-47.88408 -31.27989,-60.09644 -7.81161,-4.32596 -8.8523,-4.50011 -26.8911,-4.50011 -16.6785,0 -19.56392,0.39338 -25.95001,3.53792 -10.50285,5.1716 -22.33884,16.67005 -27.03795,26.26687 -7.99232,16.32243 -8.44092,39.03471 -1.05692,53.50858 1.71926,3.37003 10.87483,14.92428 20.3457,25.67609 9.47086,10.75182 20.62336,24.59274 24.78333,30.75754 4.15997,6.1648 8.21647,10.80526 9.0144,10.3121 0.79794,-0.49315 4.72824,-5.74775 8.73396,-11.67685 z"
         style="fill:#000000;fill-opacity:0.49019608;fill-rule:evenodd;stroke:none;stroke-width:0.74144983" />
      <path
         inkscape:connector-curvature="0"
         id="path46"
         d="m 238.15443,365.73902 c -9.66182,-0.41285 -18.22716,-1.42614 -19.03407,-2.25181 -3.35965,-3.43764 -3.40914,-9.08582 -0.1059,-12.07529 3.01522,-2.72871 5.59956,-2.93671 36.48915,-2.93671 36.7536,0 39.99949,0.65937 39.99949,8.12561 0,2.34683 -1.11622,5.19409 -2.4805,6.32728 -3.03956,2.52468 -29.65534,3.88819 -54.86824,2.81092 z"
         style="fill:#000000;fill-opacity:0.49019608;fill-rule:evenodd;stroke:none;stroke-width:0.74144983" />
      <path
         inkscape:connector-curvature="0"
         id="path48"
         d="m 228.28319,387.42129 c -3.75712,-2.6316 -4.54484,-9.80335 -1.36648,-12.44114 4.48396,-3.72135 52.08245,-3.93942 58.02643,-0.26585 2.88231,1.78135 2.2666,10.80927 -0.89481,13.12097 -4.15496,3.03816 -51.33657,2.68792 -55.76514,-0.41398 z"
         style="fill:#000000;fill-opacity:0.49019608;fill-rule:evenodd;stroke:none;stroke-width:0.74144983" />
      <path
         inkscape:connector-curvature="0"
         id="path50"
         d="m 237.05038,409.82542 c -2.68581,-2.27234 -3.24891,-8.46499 -0.97684,-10.74266 3.2054,-3.21331 37.23149,-3.40161 41.48057,-0.22954 2.06044,1.53815 1.62029,9.33354 -0.63967,11.32964 -2.97018,2.6234 -36.69826,2.32096 -39.86406,-0.35744 z"
         style="fill:#000000;fill-opacity:0.49019608;fill-rule:evenodd;stroke:none;stroke-width:0.74144983" />
    </g>
    <g
       transform="translate(2.475622e-7,4e-6)"
       id="g42">
      <path
         style="fill:#ffffff;fill-opacity:1;fill-rule:evenodd;stroke:none;stroke-width:0.74144983"
         d="m 219.98217,339.87217 c -2.06723,-1.51677 -3.01432,-5.20467 -3.97981,-15.49745 -2.17292,-23.16432 -2.60642,-24.02218 -23.0181,-45.55282 -10.08024,-10.63283 -20.87888,-23.63007 -23.99696,-28.88276 -18.82022,-31.70428 -17.05594,-74.03178 4.44738,-106.69876 27.33075,-41.5198 84.27865,-55.400041 130.02557,-31.69192 16.09668,8.34203 33.26464,25.98282 41.38163,42.52132 8.46607,17.24973 11.18638,30.92203 10.30469,51.79141 -1.23838,29.31199 -8.15763,43.52274 -34.56238,70.98432 -10.02558,10.42679 -17.45063,19.56677 -19.30973,23.76958 -1.66133,3.75569 -3.98001,13.6652 -5.15263,22.02117 -1.17263,8.35595 -2.83729,15.8992 -3.69924,16.76279 -2.52873,2.53352 -69.04015,2.96792 -72.44042,0.47312 z m 45.32231,-58.67913 c 4.00576,-5.92915 14.81323,-19.22448 24.01664,-29.54523 19.22598,-21.56016 24.19869,-30.24807 25.32184,-44.24047 2.0972,-26.12666 -9.22742,-47.88408 -31.27989,-60.09644 -7.81161,-4.32596 -8.8523,-4.50011 -26.8911,-4.50011 -16.6785,0 -19.56392,0.39338 -25.95001,3.53792 -10.50285,5.1716 -22.33884,16.67005 -27.03795,26.26687 -7.99232,16.32243 -8.44092,39.03471 -1.05692,53.50858 1.71926,3.37003 10.87483,14.92428 20.3457,25.67609 9.47086,10.75182 20.62336,24.59274 24.78333,30.75754 4.15997,6.1648 8.21647,10.80526 9.0144,10.3121 0.79794,-0.49315 4.72824,-5.74775 8.73396,-11.67685 z"
         id="path2984"
         inkscape:connector-curvature="0" />
      <path
         style="fill:#ffffff;fill-opacity:1;fill-rule:evenodd;stroke:none;stroke-width:0.74144983"
         d="m 238.15443,365.73902 c -9.66182,-0.41285 -18.22716,-1.42614 -19.03407,-2.25181 -3.35965,-3.43764 -3.40914,-9.08582 -0.1059,-12.07529 3.01522,-2.72871 5.59956,-2.93671 36.48915,-2.93671 36.7536,0 39.99949,0.65937 39.99949,8.12561 0,2.34683 -1.11622,5.19409 -2.4805,6.32728 -3.03956,2.52468 -29.65534,3.88819 -54.86824,2.81092 z"
         id="path2989"
         inkscape:connector-curvature="0" />
      <path
         style="fill:#ffffff;fill-opacity:1;fill-rule:evenodd;stroke:none;stroke-width:0.74144983"
         d="m 228.28319,387.42129 c -3.75712,-2.6316 -4.54484,-9.80335 -1.36648,-12.44114 4.48396,-3.72135 52.08245,-3.93942 58.02643,-0.26585 2.88231,1.78135 2.2666,10.80927 -0.89481,13.12097 -4.15496,3.03816 -51.33657,2.68792 -55.76514,-0.41398 z"
         id="path2991"
         inkscape:connector-curvature="0" />
      <path
         style="fill:#ffffff;fill-opacity:1;fill-rule:evenodd;stroke:none;stroke-width:0.74144983"
         d="m 237.05038,409.82542 c -2.68581,-2.27234 -3.24891,-8.46499 -0.97684,-10.74266 3.2054,-3.21331 37.23149,-3.40161 41.48057,-0.22954 2.06044,1.53815 1.62029,9.33354 -0.63967,11.32964 -2.97018,2.6234 -36.69826,2.32096 -39.86406,-0.35744 z"
         id="path2991-3"
         inkscape:connector-curvature="0" />
    </g>
  </g>
</svg>
