<?xml version="1.0" encoding="UTF-8" standalone="no"?>
<!-- Created with Inkscape (http://www.inkscape.org/) -->

<svg
   xmlns:dc="http://purl.org/dc/elements/1.1/"
   xmlns:cc="http://creativecommons.org/ns#"
   xmlns:rdf="http://www.w3.org/1999/02/22-rdf-syntax-ns#"
   xmlns:svg="http://www.w3.org/2000/svg"
   xmlns="http://www.w3.org/2000/svg"
   xmlns:sodipodi="http://sodipodi.sourceforge.net/DTD/sodipodi-0.dtd"
   xmlns:inkscape="http://www.inkscape.org/namespaces/inkscape"
   id="svg2"
   version="1.1"
   inkscape:version="0.92.3 (2405546, 2018-03-11)"
   width="512"
   height="512"
   sodipodi:docname="rekonq.svg">
  <metadata
     id="metadata8">
    <rdf:RDF>
      <cc:Work
         rdf:about="">
        <dc:format>image/svg+xml</dc:format>
        <dc:type
           rdf:resource="http://purl.org/dc/dcmitype/StillImage" />
        <dc:title></dc:title>
      </cc:Work>
    </rdf:RDF>
  </metadata>
  <defs
     id="defs6">
    <clipPath
       id="clipPath-077264594">
      <g
         id="g17"
         transform="translate(0,-1004.3622)">
        <path
           style="fill:#1890d0"
           inkscape:connector-curvature="0"
           id="path19"
           transform="matrix(15.333333,0,0,11.5,414.99999,878.8622)"
           d="m -24,13 c 0,1.105 -0.672,2 -1.5,2 -0.828,0 -1.5,-0.895 -1.5,-2 0,-1.105 0.672,-2 1.5,-2 0.828,0 1.5,0.895 1.5,2 z" />
      </g>
    </clipPath>
    <radialGradient
       id="polygon413_1_"
       cx="7976.3457"
       cy="-10508.842"
       r="13293.867"
       gradientTransform="matrix(0.0222,0,0,-0.0248,721.1671,674.6745)"
       gradientUnits="userSpaceOnUse">
      <stop
         offset="0"
         style="stop-color:#80FF80"
         id="stop388" />
      <stop
         offset="1"
         style="stop-color:#0f0"
         id="stop390" />
    </radialGradient>
  </defs>
  <sodipodi:namedview
     pagecolor="#ffffff"
     bordercolor="#666666"
     borderopacity="1"
     objecttolerance="10"
     gridtolerance="10"
     guidetolerance="10"
     inkscape:pageopacity="0"
     inkscape:pageshadow="2"
     inkscape:window-width="1044"
     inkscape:window-height="687"
     id="namedview4"
     showgrid="false"
     inkscape:zoom="0.921875"
     inkscape:cx="263.67989"
     inkscape:cy="142.08652"
     inkscape:window-x="15"
     inkscape:window-y="28"
     inkscape:window-maximized="0"
     inkscape:current-layer="svg2" />
  <path
     style="fill:#ff0000;fill-opacity:1;fill-rule:evenodd;stroke:none"
     d=""
     id="path2986"
     inkscape:connector-curvature="0" />
  <g
     id="g1011">
    <path
       style="fill:#3689e6;fill-opacity:1;stroke-width:11.10954762"
       inkscape:connector-curvature="0"
       d="m 432.9133,56.47496 c 102.19288,88.57349 105.82676,249.69955 8.11678,359.89796 -97.70998,110.1986 -259.75045,127.7275 -361.94333,39.154 C -23.10621,366.95112 -26.74003,205.82737 70.96995,95.62658 168.67988,-14.57187 330.72036,-32.10086 432.9133,56.47496 Z"
       id="path1165" />
    <path
       style="opacity:1;fill:#000000;fill-opacity:0.49019608;stroke-width:11.10954762"
       inkscape:connector-curvature="0"
       d="m 511.63553,224.90399 c -1.55134,61.31187 -25.16124,124.15503 -70.96641,175.81343 -97.70998,110.1985 -259.75044,127.7275 -361.94335,39.154 -47.89864,-41.5161 -74.22895,-98.9485 -78.53194,-159.64361 0.60525,66.35741 26.92358,130.25481 78.88486,175.28981 102.19289,88.5758 264.24103,71.0376 361.94335,-39.1516 49.70495,-56.0593 73.00505,-125.29082 70.61349,-191.46203 z"
       id="path1167" />
    <g
       style="fill:#000000;fill-opacity:0.49019608"
       id="g997"
       transform="translate(-44.59045,44.41433)">
      <path
         inkscape:connector-curvature="0"
         id="path989"
         d="m 381.35675,111.36089 c 0.22417,5.7307 0.10331,9.80567 0.10331,9.80567 0,0 -5.45797,-5.08401 -12.01039,-5.87198 -5.33654,-0.64176 -13.47188,-1.57028 -20.79116,2.22102 3.42951,0.85522 6.81827,1.82923 10.05305,2.92512 7.41349,2.51159 19.61317,8.40825 26.29343,12.70904 4.55403,2.93191 5.67111,4.06689 4.00709,4.06689 -0.41824,0 -3.50106,1.36361 -6.85065,3.03114 -3.34949,1.66753 -6.72928,3.07555 -7.51124,3.129 -1.48061,0.10118 -1.81366,-0.31448 -3.73523,-4.68672 -1.24282,-2.82785 -3.51702,-3.97626 -6.25802,-3.15618 -2.14973,0.64319 -13.80406,8.17737 -18.14606,11.73037 -1.39037,1.13772 -2.66515,2.61405 -2.83268,3.28124 -0.16769,0.6672 0.23398,3.18018 0.89439,5.58655 0.79106,2.88297 1.07999,5.02323 0.84546,6.27159 -0.35275,1.87777 -0.42512,1.91935 -8.10932,4.771 -3.04828,1.13125 -5.68224,2.18724 -8.01418,3.2024 -0.83656,4.48886 -1.51809,8.71285 -2.70219,12.91565 l 3.40902,-1.6447 3.76512,0.64429 c 4.99069,0.85461 12.73958,3.7846 21.33488,8.07125 11.25655,5.61391 13.02323,6.75873 20.29911,16.30292 25.26941,-9.11164 61.88147,-21.2941 61.88147,-21.2941 0,0 -13.28952,-24.75881 -20.00552,-32.83961 -6.71601,-8.08079 -15.32637,-10.84068 -18.30645,-16.41708 -2.98008,-5.57641 -6.61541,-8.15208 -1.88936,-13.21197 0.43784,-0.46878 1.03942,-0.83164 1.7643,-1.10643 -0.96768,-0.67858 -1.94412,-1.34587 -2.93056,-2.00082 -4.72946,-3.14023 -9.5954,-5.93785 -14.55762,-8.43555 z m -59.08411,82.54758 c -4.71848,9.15832 -11.51213,18.94285 -19.01598,24.94233 -5.98226,4.78295 -11.45575,8.08596 -18.21403,10.04219 0.14646,0.22902 0.28171,0.46965 0.44857,0.6769 4.24766,5.27622 10.58584,8.41473 25.80954,12.77972 5.245,1.50382 10.16194,3.05503 10.92569,3.44708 4.37886,2.24782 7.99596,17.03165 10.04762,41.06854 1.09621,12.84299 2.22838,17.03256 5.48052,20.28008 2.02642,2.02353 5.46105,2.03485 9.54197,0.0272 6.3791,-3.13785 17.56233,-15.91801 30.71917,-35.10685 6.18056,-9.01408 7.04317,-9.88712 13.11953,-13.25545 2.09796,-1.16298 4.81612,-3.03236 6.04052,-4.15661 2.10445,-1.93227 2.26301,-2.30393 2.92784,-6.76637 0.20858,-1.40006 0.3999,-2.40504 0.4241,-3.20785 -12.43532,-1.25059 -36.77362,-4.06652 -44.02357,-7.59552 -9.86212,-4.80048 -9.11006,-5.12517 -10.00141,-9.24565 -0.89134,-4.12049 1.65421,-8.17973 5.59742,-11.82552 0.87836,-0.8121 5.714,-2.8182 12.51059,-5.39081 -7.02454,-1.11766 -16.78592,-3.72976 -20.9706,-5.65177 -4.05608,-1.86292 -5.96519,-3.83101 -5.40984,-5.5784 0.26843,-0.84452 -0.42904,-1.27611 -4.45019,-2.75113 -4.88792,-1.79296 -7.96706,-2.56712 -11.50746,-2.7321 z m -112.28535,42.55557 c -4.2498,7.86221 2.18392,20.5692 -1.4816,25.6274 -3.83542,5.29263 -6.98433,5.95 -11.47755,4.8036 -4.49322,-1.14639 -9.60721,-12.01038 -9.60721,-12.01038 0,0 5.20943,12.9853 -2.63153,18.30373 9.11057,32.42484 28.87652,59.65914 57.30622,78.53778 0.57985,0.38505 1.17463,0.75174 1.76158,1.12818 -1.38223,-5.17293 -2.95242,-11.23451 -3.59115,-14.69627 -0.72649,-3.93735 -1.10529,-7.76592 -1.3375,-10.48529 -2.84448,-2.51694 -5.66771,-5.23638 -8.54972,-8.24253 -9.67043,-10.08693 -18.80123,-23.31068 -18.80123,-27.23132 0,-2.6216 0.47435,-3.54582 6.19821,-12.05116 4.96323,-7.375 6.6946,-11.51047 7.22581,-17.26254 0.53618,-5.80592 -0.1951,-7.39209 -6.3722,-13.79644 -4.68341,-4.85572 -5.75644,-6.33047 -7.80755,-10.72724 -0.29449,-0.63128 -0.55106,-1.26489 -0.83458,-1.89752 z m 225.21772,44.59444 c 0,0 -2.77873,3.53836 -6.69841,8.26699 -1.55329,3.24607 -3.21192,6.36912 -4.97487,9.28372 -6.58982,10.89452 -17.87463,23.87726 -27.4923,31.62988 -10.77581,8.68629 -24.77402,16.44623 -37.52632,20.80475 -3.55497,1.21525 -6.86512,2.19556 -7.3563,2.18025 -0.49116,-0.0166 -2.11978,-0.88554 -3.61833,-1.93014 -4.17679,-2.91167 -10.30105,-5.63495 -16.04736,-7.13609 -4.075,-1.06451 -7.03607,-1.41913 -13.64964,-1.63111 -10.44958,-0.33489 -17.73501,0.54329 -33.36972,4.0234 l -2.1585,0.48117 c 2.55457,6.82818 6.21028,14.77864 10.26781,17.5507 8.35807,5.27485 28.01993,-3.42484 36.29756,6.1384 0.5132,1.13313 0.51725,2.42284 0.2202,3.77601 12.82942,-0.97256 25.68854,-3.72654 38.33099,-8.24796 7.63293,-2.72989 20.53674,-9.34193 28.35135,-14.53043 13.83965,-9.18841 25.8296,-20.67423 35.49016,-33.74487 -4.49239,-0.79337 -4.93761,-4.53699 -4.37137,-8.98197 0.75383,-5.88156 10.94745,-25.2903 10.94745,-25.2903 z"
         style="fill:#000000;stroke-width:0.54455543;fill-opacity:0.49019608" />
      <path
         sodipodi:nodetypes="csssssssccc"
         inkscape:connector-curvature="0"
         id="path991"
         d="m 259.96519,373.92527 c -12.53513,-16.60868 -17.98105,-33.05233 -17.86103,-66.25314 0.0867,-23.97465 8.45621,-53.45333 9.72093,-57.55553 0.29698,-0.9633 3.79541,-4.5068 6.07818,-4.22552 2.05633,0.2534 3.4158,3.39894 4.14249,5.21949 0.39043,0.97811 3.42946,5.27466 3.47629,19.85374 0.0997,31.00539 3.50534,56.1867 10.36711,76.65228 3.40817,10.16509 6.2312,15.33921 11.19887,20.52548 4.22727,4.41331 10.88299,6.02869 24.88379,6.03944 7.78974,0.006 8.72195,0.23623 8.72195,2.15394 -18.97949,21.57457 -49.65264,7.17682 -60.72858,-2.41018 z"
         style="fill:#000000;fill-opacity:0.49019608;stroke-width:0.70120549" />
      <path
         sodipodi:nodetypes="csssssssssscccssssssssccccsccsc"
         inkscape:connector-curvature="0"
         id="path993"
         d="m 432.26804,313.14044 c -1.45034,-1.74752 12.83371,-21.6734 11.21958,-31.69573 -0.83758,-5.2003 -2.93748,-8.48681 -5.42272,-8.48681 -0.43812,0 -3.1732,2.25978 -6.07798,5.02172 -2.90472,2.76196 -9.38721,8.82769 -14.40552,13.4794 -5.01832,4.65171 -11.45465,10.71744 -14.30298,13.4794 -2.84834,2.76196 -4.97141,3.36592 -5.78311,3.36592 -1.89926,0 -7.22943,-4.04475 -7.04698,-5.5217 0.17428,-1.41101 0.27188,-1.90972 1.66935,-4.87499 6.3459,-13.46536 11.22712,-23.94141 14.33442,-30.76441 1.85367,-4.07025 4.78524,-10.27976 6.51465,-13.79892 l 3.14439,-6.39847 -0.29709,-5.36932 -3.78304,-4.14926 -24.17788,-2.93068 c -13.29784,-1.61189 -22.40879,-2.35063 -25.51083,-4.66912 -1.69302,-1.26539 -3.42447,-0.98502 -3.42447,-4.82042 0,-2.74381 2.18874,-4.2938 3.08103,-5.03434 0.83184,-0.69034 10.32418,-4.97439 23.01142,-8.45496 22.35261,-6.13212 61.43224,-18.44161 62.91326,-19.81671 1.92703,-1.78917 -10.45208,-26.36955 -17.91091,-35.5646 -7.47351,-9.21312 -10.54229,-12.73766 -12.81935,-14.72319 -5.21773,-4.54974 -10.84332,-11.06251 -9.85063,-10.77754 33.55061,5.18685 59.43602,37.30378 66.00667,74.42141 1.05492,19.99171 -1.22555,22.59235 -1.14766,39.1795 -2.38958,18.1188 -2.80584,18.15894 -4.29805,25.04779 -1.836,7.05725 -2.17756,11.44424 -10.20207,21.5378 l -14.8418,18.6686 -4.48067,2.53155 c -1.93789,1.31586 -3.52159,1.89427 -4.87723,1.48782 z"
         style="fill:#000000;fill-opacity:0.49019608;stroke-width:0.70120549" />
      <path
         sodipodi:nodetypes="csssscccssccccssscccssscczcccssssscsssssssscc"
         inkscape:connector-curvature="0"
         id="path995"
         d="m 171.33691,261.00278 c -0.63754,-0.83293 -0.66979,-9.13898 -0.0873,-22.46567 1.01521,-23.22445 2.48357,-5.63965 -1.85564,-4.81014 -3.98798,0.76234 2.38142,-23.51025 3.08472,-36.83221 0.46485,-8.8051 1.89628,-18.42604 8.99252,-32.65691 13.66207,-27.39807 11.37878,-23.95533 13.66207,-27.39807 6.21928,-10.40563 12.99997,-20.70294 20.0644,-23.75365 15.68946,-7.30445 38.66416,-14.721459 55.64622,-9.78444 0.18567,0.58145 -2.3925,2.33508 -5.72932,3.89695 -9.4072,4.40327 -10.10819,5.11179 -8.70617,8.79943 1.49573,3.93408 2.74232,4.71119 7.58975,4.73134 3.11957,0.0125 4.04123,-0.45655 4.6378,-2.36253 12.68508,-28.360016 44.50346,-44.277332 74.5761,-42.670173 16.98211,2.499812 26.4496,17.586859 30.05074,31.154853 0.38245,1.52377 1.06269,1.3877 0.2668,1.01448 -0.92059,-0.4317 -3.35026,-1.53024 -7.14497,-2.86037 -11.9366,-4.18403 -27.52764,3.03009 -39.16797,19.29526 l -3.67932,5.14115 0.37296,16.07467 -1.37,15.37746 -8.55743,21.76969 c -10.34229,26.31025 -18.81163,25.80851 -22.71117,30.61511 -0.39639,0.4886 -2.35132,2.38651 -4.73117,3.63026 l -4.2343,2.21293 -7.85755,2.08628 c -34.1391,7.7109 -36.73162,-39.75605 -36.54702,-47.00553 0.18462,-7.24948 3.85406,-16.63946 3.85406,-16.63946 -3.85898,-1.5267 -2.50462,-0.34406 -4.50053,-2.24087 0.19162,-22.21261 -4.73711,-25.0082 -11.78074,-17.06986 -1.32952,0.52613 -10.37064,12.87901 -13.06678,17.85311 -4.89269,9.02659 -4.69247,8.25914 -2.90285,11.12551 0.91834,1.4709 2.89755,5.92826 5.39258,8.28287 3.85373,3.63685 6.34143,6.26018 5.77037,8.6422 -1.475,6.1526 -3.05442,3.42349 -11.71389,3.02696 l -7.91242,-0.36232 -0.90518,3.48183 c -0.58407,2.24663 -0.12958,11.62286 1.28094,26.4302 3.73048,39.15948 3.95238,37.23577 1.13784,40.63539 -1.61647,1.95251 -3.05482,2.74563 -4.18958,2.31018 -0.95044,-0.36472 -3.5172,-4.92968 -5.70393,-10.14437 -2.18675,-5.21468 -4.43986,-9.32659 -5.00697,-9.13756 -0.56709,0.18903 -2.75508,4.60972 -4.86222,9.82373 -2.1071,5.21403 -4.21601,10.07039 -4.68643,10.79192 -1.10795,1.6994 -5.46577,1.69319 -6.76916,-0.01 z"
         style="fill:#000000;fill-opacity:0.49019608;stroke-width:0.70120549" />
    </g>
    <g
       transform="translate(-64.59045,24.41433)"
       id="g987">
      <path
         style="fill:#ffffff;stroke-width:0.54455543"
         d="m 381.35675,111.36089 c 0.22417,5.7307 0.10331,9.80567 0.10331,9.80567 0,0 -5.45797,-5.08401 -12.01039,-5.87198 -5.33654,-0.64176 -13.47188,-1.57028 -20.79116,2.22102 3.42951,0.85522 6.81827,1.82923 10.05305,2.92512 7.41349,2.51159 19.61317,8.40825 26.29343,12.70904 4.55403,2.93191 5.67111,4.06689 4.00709,4.06689 -0.41824,0 -3.50106,1.36361 -6.85065,3.03114 -3.34949,1.66753 -6.72928,3.07555 -7.51124,3.129 -1.48061,0.10118 -1.81366,-0.31448 -3.73523,-4.68672 -1.24282,-2.82785 -3.51702,-3.97626 -6.25802,-3.15618 -2.14973,0.64319 -13.80406,8.17737 -18.14606,11.73037 -1.39037,1.13772 -2.66515,2.61405 -2.83268,3.28124 -0.16769,0.6672 0.23398,3.18018 0.89439,5.58655 0.79106,2.88297 1.07999,5.02323 0.84546,6.27159 -0.35275,1.87777 -0.42512,1.91935 -8.10932,4.771 -3.04828,1.13125 -5.68224,2.18724 -8.01418,3.2024 -0.83656,4.48886 -1.51809,8.71285 -2.70219,12.91565 l 3.40902,-1.6447 3.76512,0.64429 c 4.99069,0.85461 12.73958,3.7846 21.33488,8.07125 11.25655,5.61391 13.02323,6.75873 20.29911,16.30292 25.26941,-9.11164 61.88147,-21.2941 61.88147,-21.2941 0,0 -13.28952,-24.75881 -20.00552,-32.83961 -6.71601,-8.08079 -15.32637,-10.84068 -18.30645,-16.41708 -2.98008,-5.57641 -6.61541,-8.15208 -1.88936,-13.21197 0.43784,-0.46878 1.03942,-0.83164 1.7643,-1.10643 -0.96768,-0.67858 -1.94412,-1.34587 -2.93056,-2.00082 -4.72946,-3.14023 -9.5954,-5.93785 -14.55762,-8.43555 z m -59.08411,82.54758 c -4.71848,9.15832 -11.51213,18.94285 -19.01598,24.94233 -5.98226,4.78295 -11.45575,8.08596 -18.21403,10.04219 0.14646,0.22902 0.28171,0.46965 0.44857,0.6769 4.24766,5.27622 10.58584,8.41473 25.80954,12.77972 5.245,1.50382 10.16194,3.05503 10.92569,3.44708 4.37886,2.24782 7.99596,17.03165 10.04762,41.06854 1.09621,12.84299 2.22838,17.03256 5.48052,20.28008 2.02642,2.02353 5.46105,2.03485 9.54197,0.0272 6.3791,-3.13785 17.56233,-15.91801 30.71917,-35.10685 6.18056,-9.01408 7.04317,-9.88712 13.11953,-13.25545 2.09796,-1.16298 4.81612,-3.03236 6.04052,-4.15661 2.10445,-1.93227 2.26301,-2.30393 2.92784,-6.76637 0.20858,-1.40006 0.3999,-2.40504 0.4241,-3.20785 -12.43532,-1.25059 -36.77362,-4.06652 -44.02357,-7.59552 -9.86212,-4.80048 -9.11006,-5.12517 -10.00141,-9.24565 -0.89134,-4.12049 1.65421,-8.17973 5.59742,-11.82552 0.87836,-0.8121 5.714,-2.8182 12.51059,-5.39081 -7.02454,-1.11766 -16.78592,-3.72976 -20.9706,-5.65177 -4.05608,-1.86292 -5.96519,-3.83101 -5.40984,-5.5784 0.26843,-0.84452 -0.42904,-1.27611 -4.45019,-2.75113 -4.88792,-1.79296 -7.96706,-2.56712 -11.50746,-2.7321 z m -112.28535,42.55557 c -4.2498,7.86221 2.18392,20.5692 -1.4816,25.6274 -3.83542,5.29263 -6.98433,5.95 -11.47755,4.8036 -4.49322,-1.14639 -9.60721,-12.01038 -9.60721,-12.01038 0,0 5.20943,12.9853 -2.63153,18.30373 9.11057,32.42484 28.87652,59.65914 57.30622,78.53778 0.57985,0.38505 1.17463,0.75174 1.76158,1.12818 -1.38223,-5.17293 -2.95242,-11.23451 -3.59115,-14.69627 -0.72649,-3.93735 -1.10529,-7.76592 -1.3375,-10.48529 -2.84448,-2.51694 -5.66771,-5.23638 -8.54972,-8.24253 -9.67043,-10.08693 -18.80123,-23.31068 -18.80123,-27.23132 0,-2.6216 0.47435,-3.54582 6.19821,-12.05116 4.96323,-7.375 6.6946,-11.51047 7.22581,-17.26254 0.53618,-5.80592 -0.1951,-7.39209 -6.3722,-13.79644 -4.68341,-4.85572 -5.75644,-6.33047 -7.80755,-10.72724 -0.29449,-0.63128 -0.55106,-1.26489 -0.83458,-1.89752 z m 225.21772,44.59444 c 0,0 -2.77873,3.53836 -6.69841,8.26699 -1.55329,3.24607 -3.21192,6.36912 -4.97487,9.28372 -6.58982,10.89452 -17.87463,23.87726 -27.4923,31.62988 -10.77581,8.68629 -24.77402,16.44623 -37.52632,20.80475 -3.55497,1.21525 -6.86512,2.19556 -7.3563,2.18025 -0.49116,-0.0166 -2.11978,-0.88554 -3.61833,-1.93014 -4.17679,-2.91167 -10.30105,-5.63495 -16.04736,-7.13609 -4.075,-1.06451 -7.03607,-1.41913 -13.64964,-1.63111 -10.44958,-0.33489 -17.73501,0.54329 -33.36972,4.0234 l -2.1585,0.48117 c 2.55457,6.82818 6.21028,14.77864 10.26781,17.5507 8.35807,5.27485 28.01993,-3.42484 36.29756,6.1384 0.5132,1.13313 0.51725,2.42284 0.2202,3.77601 12.82942,-0.97256 25.68854,-3.72654 38.33099,-8.24796 7.63293,-2.72989 20.53674,-9.34193 28.35135,-14.53043 13.83965,-9.18841 25.8296,-20.67423 35.49016,-33.74487 -4.49239,-0.79337 -4.93761,-4.53699 -4.37137,-8.98197 0.75383,-5.88156 10.94745,-25.2903 10.94745,-25.2903 z"
         id="path887"
         inkscape:connector-curvature="0" />
      <path
         style="fill:#ffffff;fill-opacity:1;stroke-width:0.70120549"
         d="m 259.96519,373.92527 c -12.53513,-16.60868 -17.98105,-33.05233 -17.86103,-66.25314 0.0867,-23.97465 8.45621,-53.45333 9.72093,-57.55553 0.29698,-0.9633 3.79541,-4.5068 6.07818,-4.22552 2.05633,0.2534 3.4158,3.39894 4.14249,5.21949 0.39043,0.97811 3.42946,5.27466 3.47629,19.85374 0.0997,31.00539 3.50534,56.1867 10.36711,76.65228 3.40817,10.16509 6.2312,15.33921 11.19887,20.52548 4.22727,4.41331 10.88299,6.02869 24.88379,6.03944 7.78974,0.006 8.72195,0.23623 8.72195,2.15394 -18.97949,21.57457 -49.65264,7.17682 -60.72858,-2.41018 z"
         id="path4303"
         inkscape:connector-curvature="0"
         sodipodi:nodetypes="csssssssccc" />
      <path
         style="fill:#ffffff;fill-opacity:1;stroke-width:0.70120549"
         d="m 432.26804,313.14044 c -1.45034,-1.74752 12.83371,-21.6734 11.21958,-31.69573 -0.83758,-5.2003 -2.93748,-8.48681 -5.42272,-8.48681 -0.43812,0 -3.1732,2.25978 -6.07798,5.02172 -2.90472,2.76196 -9.38721,8.82769 -14.40552,13.4794 -5.01832,4.65171 -11.45465,10.71744 -14.30298,13.4794 -2.84834,2.76196 -4.97141,3.36592 -5.78311,3.36592 -1.89926,0 -7.22943,-4.04475 -7.04698,-5.5217 0.17428,-1.41101 0.27188,-1.90972 1.66935,-4.87499 6.3459,-13.46536 11.22712,-23.94141 14.33442,-30.76441 1.85367,-4.07025 4.78524,-10.27976 6.51465,-13.79892 l 3.14439,-6.39847 -0.29709,-5.36932 -3.78304,-4.14926 -24.17788,-2.93068 c -13.29784,-1.61189 -22.40879,-2.35063 -25.51083,-4.66912 -1.69302,-1.26539 -3.42447,-0.98502 -3.42447,-4.82042 0,-2.74381 2.18874,-4.2938 3.08103,-5.03434 0.83184,-0.69034 10.32418,-4.97439 23.01142,-8.45496 22.35261,-6.13212 61.43224,-18.44161 62.91326,-19.81671 1.92703,-1.78917 -10.45208,-26.36955 -17.91091,-35.5646 -7.47351,-9.21312 -10.54229,-12.73766 -12.81935,-14.72319 -5.21773,-4.54974 -10.84332,-11.06251 -9.85063,-10.77754 33.55061,5.18685 59.43602,37.30378 66.00667,74.42141 1.05492,19.99171 -1.22555,22.59235 -1.14766,39.1795 -2.38958,18.1188 -2.80584,18.15894 -4.29805,25.04779 -1.836,7.05725 -2.17756,11.44424 -10.20207,21.5378 l -14.8418,18.6686 -4.48067,2.53155 c -1.93789,1.31586 -3.52159,1.89427 -4.87723,1.48782 z"
         id="path4299"
         inkscape:connector-curvature="0"
         sodipodi:nodetypes="csssssssssscccssssssssccccsccsc" />
      <path
         style="fill:#ffffff;fill-opacity:1;stroke-width:0.70120549"
         d="m 171.33691,261.00278 c -0.63754,-0.83293 -0.66979,-9.13898 -0.0873,-22.46567 1.01521,-23.22445 2.48357,-5.63965 -1.85564,-4.81014 -3.98798,0.76234 2.38142,-23.51025 3.08472,-36.83221 0.46485,-8.8051 1.89628,-18.42604 8.99252,-32.65691 13.66207,-27.39807 11.37878,-23.95533 13.66207,-27.39807 6.21928,-10.40563 12.99997,-20.70294 20.0644,-23.75365 15.68946,-7.30445 38.66416,-14.721459 55.64622,-9.78444 0.18567,0.58145 -2.3925,2.33508 -5.72932,3.89695 -9.4072,4.40327 -10.10819,5.11179 -8.70617,8.79943 1.49573,3.93408 2.74232,4.71119 7.58975,4.73134 3.11957,0.0125 4.04123,-0.45655 4.6378,-2.36253 12.68508,-28.360016 44.50346,-44.277332 74.5761,-42.670173 16.98211,2.499812 26.4496,17.586859 30.05074,31.154853 0.38245,1.52377 1.06269,1.3877 0.2668,1.01448 -0.92059,-0.4317 -3.35026,-1.53024 -7.14497,-2.86037 -11.9366,-4.18403 -27.52764,3.03009 -39.16797,19.29526 l -3.67932,5.14115 0.37296,16.07467 -1.37,15.37746 -8.55743,21.76969 c -10.34229,26.31025 -18.81163,25.80851 -22.71117,30.61511 -0.39639,0.4886 -2.35132,2.38651 -4.73117,3.63026 l -4.2343,2.21293 -7.85755,2.08628 c -34.1391,7.7109 -36.73162,-39.75605 -36.54702,-47.00553 0.18462,-7.24948 3.85406,-16.63946 3.85406,-16.63946 -3.85898,-1.5267 -2.50462,-0.34406 -4.50053,-2.24087 0.19162,-22.21261 -4.73711,-25.0082 -11.78074,-17.06986 -1.32952,0.52613 -10.37064,12.87901 -13.06678,17.85311 -4.89269,9.02659 -4.69247,8.25914 -2.90285,11.12551 0.91834,1.4709 2.89755,5.92826 5.39258,8.28287 3.85373,3.63685 6.34143,6.26018 5.77037,8.6422 -1.475,6.1526 -3.05442,3.42349 -11.71389,3.02696 l -7.91242,-0.36232 -0.90518,3.48183 c -0.58407,2.24663 -0.12958,11.62286 1.28094,26.4302 3.73048,39.15948 3.95238,37.23577 1.13784,40.63539 -1.61647,1.95251 -3.05482,2.74563 -4.18958,2.31018 -0.95044,-0.36472 -3.5172,-4.92968 -5.70393,-10.14437 -2.18675,-5.21468 -4.43986,-9.32659 -5.00697,-9.13756 -0.56709,0.18903 -2.75508,4.60972 -4.86222,9.82373 -2.1071,5.21403 -4.21601,10.07039 -4.68643,10.79192 -1.10795,1.6994 -5.46577,1.69319 -6.76916,-0.01 z"
         id="path4297"
         inkscape:connector-curvature="0"
         sodipodi:nodetypes="csssscccssccccssscccssscczcccssssscsssssssscc" />
    </g>
  </g>
  <g
     id="layer1"
     style="display:inline;fill:#394050;fill-opacity:1"
     transform="matrix(0.26944681,-0.08878061,0.07224064,0.21924843,231.69967,228.64979)" />
</svg>
