<?xml version="1.0" encoding="UTF-8" standalone="no"?>
<svg
   xmlns:dc="http://purl.org/dc/elements/1.1/"
   xmlns:cc="http://creativecommons.org/ns#"
   xmlns:rdf="http://www.w3.org/1999/02/22-rdf-syntax-ns#"
   xmlns:svg="http://www.w3.org/2000/svg"
   xmlns="http://www.w3.org/2000/svg"
   xmlns:sodipodi="http://sodipodi.sourceforge.net/DTD/sodipodi-0.dtd"
   xmlns:inkscape="http://www.inkscape.org/namespaces/inkscape"
   height="512"
   width="512"
   version="1.1"
   id="svg2"
   inkscape:version="0.92.3 (2405546, 2018-03-11)"
   sodipodi:docname="repsnapper.svg">
  <metadata
     id="metadata43">
    <rdf:RDF>
      <cc:Work
         rdf:about="">
        <dc:format>image/svg+xml</dc:format>
        <dc:type
           rdf:resource="http://purl.org/dc/dcmitype/StillImage" />
        <dc:title></dc:title>
      </cc:Work>
    </rdf:RDF>
  </metadata>
  <sodipodi:namedview
     pagecolor="#ffffff"
     bordercolor="#666666"
     borderopacity="1"
     objecttolerance="10"
     gridtolerance="10"
     guidetolerance="10"
     inkscape:pageopacity="0"
     inkscape:pageshadow="2"
     inkscape:window-width="1019"
     inkscape:window-height="444"
     id="namedview41"
     showgrid="false"
     inkscape:zoom="0.30729166"
     inkscape:cx="-81.835246"
     inkscape:cy="131.67366"
     inkscape:window-x="14"
     inkscape:window-y="28"
     inkscape:window-maximized="0"
     inkscape:current-layer="svg2" />
  <defs
     id="defs4">
    <linearGradient
       id="linearGradient12443"
       y2="3"
       gradientUnits="userSpaceOnUse"
       x2="27.5"
       y1="0.5"
       x1="27.5"
       gradientTransform="matrix(2.402228,0,0,2.402228,6.3280064,6.9402887)">
      <stop
         stop-color="#fff"
         offset="0"
         id="stop7" />
      <stop
         stop-color="#fff"
         stop-opacity="0"
         offset="1"
         id="stop9" />
    </linearGradient>
    <filter
       id="filter4549"
       height="1.4594001"
       width="1.5025001"
       y="-0.22969"
       x="-0.25127"
       style="color-interpolation-filters:sRGB">
      <feGaussianBlur
         stdDeviation="2.8192388"
         id="feGaussianBlur12" />
    </filter>
    <clipPath
       id="clipPath4571"
       clipPathUnits="userSpaceOnUse">
      <path
         d="m 16.562,9.2812 c -0.74132,0.048211 -1.4937,0.22542 -2.125,0.5 -1.676,0.7268 -2.965,2.6818 -3.593,5.4688 -0.44683,1.9819 -0.41916,7.4073 0.03125,9.5 0.44637,2.0716 1.3217,3.7905 2.4062,4.875 l 0.407,0.375 2.5312,2.5312 c 0.30041,0.8334 0.62131,1.3713 1,1.75 l 0.343,0.313 13.407,13.406 h 15.031 c 1.108,0 2,-0.892 2,-2 v -16.031 l -19.094,-19.063 -0.031,-0.031 c -0.078,-0.045 -0.553,-0.117 -1.063,-0.156 l -0.90625,-0.0625 -0.34375,1.3125 c -0.17758,0.7241 -0.37237,1.5281 -0.4375,1.8125 -0.10143,0.4425 -0.18982,0.53125 -0.75,0.53125 H 24.7814 l -3.25,-3.25 c -0.843,-0.845 -1.941,-1.3838 -3.28,-1.6568 -0.31525,-0.064 -0.63979,-0.1093 -0.96875,-0.125 -0.24672,-0.01175 -0.47164,-0.01607 -0.71875,0 z"
         id="path15"
         inkscape:connector-curvature="0"
         style="opacity:0.35985;fill:#364e59" />
    </clipPath>
  </defs>
  <g
     id="g847"
     transform="translate(0,384)">
    <path
       style="fill:#68b723;fill-opacity:1;stroke-width:11.10955811"
       inkscape:connector-curvature="0"
       d="m 432.91327,-327.52602 c 102.19291,88.57459 105.82678,249.69971 8.1168,359.89879 C 343.3201,142.57182 181.27964,160.10062 79.086727,71.52603 -23.106185,-17.04856 -26.740041,-178.17368 70.969927,-288.37276 168.6799,-398.57184 330.72036,-416.10061 432.91327,-327.52602 Z"
       id="path27" />
    <path
       style="opacity:1;fill:#000000;fill-opacity:0.49019608;stroke-width:11.10955811"
       inkscape:connector-curvature="0"
       d="M 511.63551,-159.09647 C 510.08412,-97.78482 486.47428,-34.94186 440.66913,16.718 342.95915,126.91712 180.91869,144.44582 78.725777,55.8713 30.827125,14.35565 4.4968208,-43.07715 0.19382689,-103.77118 0.79907889,-37.41451 27.117413,26.48218 79.078687,71.51908 181.27159,160.09362 343.31975,142.55622 441.02202,32.36578 c 49.70495,-56.05811 73.00502,-125.29097 70.61349,-191.46225 z"
       id="path51" />
    <path
       style="fill:#000000;fill-opacity:0.49019608;stroke-width:3.44051099"
       d="M 258.38514,46.649538 C 246.10568,45.112765 228.42228,39.600138 217.03574,33.759286 146.18774,-2.5829657 124.14043,-92.6875 170.07988,-158.14326 180.07508,-172.3847 272.23423,-264 276.56501,-264 c 4.80082,0 99.05967,94.97619 108.46843,109.29391 26.08465,39.69407 29.08897,88.241954 8.07815,130.538154 -19.19179,38.634251 -58.22528,66.088905 -100.91617,70.980486 -14.16039,1.622545 -19.75872,1.595571 -33.81028,-0.162736 z"
       id="path841"
       inkscape:connector-curvature="0"
       sodipodi:nodetypes="csssssscc" />
    <path
       sodipodi:nodetypes="csssssscc"
       inkscape:connector-curvature="0"
       id="path3352"
       d="M 238.38514,26.649538 C 226.10568,25.112765 208.42228,19.600138 197.03574,13.759286 126.18774,-22.582966 104.14043,-112.6875 150.07988,-178.14326 160.07508,-192.3847 252.23423,-284 256.56501,-284 c 4.80082,0 99.05967,94.97619 108.46843,109.29391 26.08465,39.69407 29.08897,88.241954 8.07815,130.538154 -19.19179,38.6342503 -58.22528,66.088905 -100.91617,70.980486 -14.16039,1.622545 -19.75872,1.595571 -33.81028,-0.162736 z"
       style="fill:#ffffff;stroke-width:3.44051099" />
  </g>
</svg>
