<?xml version="1.0" encoding="UTF-8" standalone="no"?>
<!-- Created with Inkscape (http://www.inkscape.org/) -->

<svg
   xmlns:dc="http://purl.org/dc/elements/1.1/"
   xmlns:cc="http://creativecommons.org/ns#"
   xmlns:rdf="http://www.w3.org/1999/02/22-rdf-syntax-ns#"
   xmlns:svg="http://www.w3.org/2000/svg"
   xmlns="http://www.w3.org/2000/svg"
   xmlns:sodipodi="http://sodipodi.sourceforge.net/DTD/sodipodi-0.dtd"
   xmlns:inkscape="http://www.inkscape.org/namespaces/inkscape"
   id="svg2"
   version="1.1"
   inkscape:version="0.92.3 (2405546, 2018-03-11)"
   width="512"
   height="512"
   sodipodi:docname="resaapplet.svg">
  <metadata
     id="metadata8">
    <rdf:RDF>
      <cc:Work
         rdf:about="">
        <dc:format>image/svg+xml</dc:format>
        <dc:type
           rdf:resource="http://purl.org/dc/dcmitype/StillImage" />
        <dc:title></dc:title>
      </cc:Work>
    </rdf:RDF>
  </metadata>
  <defs
     id="defs6" />
  <sodipodi:namedview
     pagecolor="#ffffff"
     bordercolor="#666666"
     borderopacity="1"
     objecttolerance="10"
     gridtolerance="10"
     guidetolerance="10"
     inkscape:pageopacity="0"
     inkscape:pageshadow="2"
     inkscape:window-width="1366"
     inkscape:window-height="711"
     id="namedview4"
     showgrid="false"
     inkscape:zoom="0.3860803"
     inkscape:cx="-20.639736"
     inkscape:cy="285.74182"
     inkscape:window-x="0"
     inkscape:window-y="28"
     inkscape:window-maximized="1"
     inkscape:current-layer="svg2" />
  <path
     style="fill:#000000;stroke-width:1.0666666"
     d=""
     id="path29"
     inkscape:connector-curvature="0" />
  <g
     id="g866">
    <path
       id="path27"
       d="M 432.91327,56.473967 C 535.10618,145.04856 538.74005,306.17367 441.03007,416.37276 343.3201,526.57184 181.27964,544.10061 79.086729,455.52602 -23.106186,366.95143 -26.740042,205.82631 70.969928,95.627227 168.6799,-14.571854 330.72036,-32.100623 432.91327,56.473967 Z"
       inkscape:connector-curvature="0"
       style="fill:#3689e6;fill-opacity:1;stroke-width:11.10955811" />
    <path
       id="path51"
       d="M 511.63551,224.90351 C 510.08412,286.21516 486.47428,349.05812 440.66913,400.71799 342.95915,510.91711 180.91869,528.44584 78.725776,439.87129 30.827124,398.35563 4.4968216,340.92284 0.19382768,280.2288 0.79907934,346.58548 27.117411,410.48217 79.078682,455.51906 181.27159,544.09361 343.31975,526.55619 441.02202,416.36576 490.72697,360.30766 514.02704,291.0748 511.63551,224.90351 Z"
       inkscape:connector-curvature="0"
       style="opacity:1;fill:#000000;fill-opacity:0.49019608;stroke-width:11.10955811" />
    <path
       style="fill:#000000;fill-opacity:0.49019608;stroke-width:0.49861005"
       d="m 271.88836,431.52174 c -5.8411,-1.37447 -10.8799,-5.45015 -13.50225,-10.92145 l -1.55337,-3.24096 v -14.45969 -14.4597 l 1.33818,-2.85518 c 3.54324,-7.55997 10.07983,-11.83408 18.10761,-11.8401 7.54463,-0.006 14.13348,4.42461 17.609,11.8401 l 1.33818,2.85518 v 14.4597 14.45969 l -1.59587,3.22041 c -4.18547,8.44618 -13.1579,12.9618 -21.74148,10.942 z m -95.2289,-39.89283 c -3.69688,-0.40883 -8.75003,-2.94988 -11.24178,-5.6531 -4.01035,-4.35072 -5.76329,-10.19586 -4.94321,-16.48305 0.70113,-5.37519 2.26053,-7.63626 12.08182,-17.5181 9.19295,-9.24962 10.73174,-10.39945 15.94587,-11.91524 5.20716,-1.51376 12.21963,-0.11198 16.55542,3.3094 6.10458,4.81715 8.95801,13.13598 6.9156,20.16163 -1.51579,5.21413 -2.66562,6.75291 -11.91524,15.94586 -9.88184,9.82129 -12.1429,11.3807 -17.5181,12.08182 -1.64541,0.21462 -4.29158,0.24647 -5.88038,0.0708 z m 189.86749,-0.61953 c -3.69373,-1.20267 -6.4455,-3.39712 -15.01816,-11.97649 -8.94573,-8.95275 -10.43051,-11.01759 -11.65311,-16.20576 -1.61989,-6.87412 1.31038,-14.85404 7.1452,-19.45831 4.33578,-3.42138 11.34825,-4.82316 16.55541,-3.3094 5.21413,1.51579 6.75292,2.66562 15.94587,11.91524 11.39638,11.46664 11.95529,12.43713 11.95529,20.75907 0,5.69409 -0.0129,5.75695 -1.85353,9.02692 -2.21308,3.93167 -4.66752,6.26272 -8.65653,8.22132 -2.54626,1.25022 -3.60402,1.46526 -7.68921,1.56321 -2.85103,0.0684 -5.5308,-0.14494 -6.73123,-0.5358 z M 264.31189,353.03806 c -15.8174,-2.21612 -30.74613,-9.7412 -42.82049,-21.5844 -15.18085,-14.89021 -23.24534,-34.12755 -23.24534,-55.45028 0,-21.44811 7.96057,-40.42916 23.25405,-55.44657 15.16134,-14.88766 33.43122,-22.3366 54.78458,-22.3366 11.62103,0 21.95551,2.2688 32.40349,7.11378 9.08783,4.21424 15.70325,8.89866 22.78129,16.13156 7.87674,8.0491 12.65483,15.31202 17.03423,25.89281 6.09127,14.71675 7.00407,34.80059 2.299,50.58386 -3.73665,12.5347 -10.00109,23.10343 -19.32129,32.59691 -12.04042,12.26428 -27.54265,20.18446 -44.00004,22.47987 -6.45218,0.89992 -16.82151,0.90845 -23.16948,0.019 z m 23.11313,-29.66656 c 10.51294,-2.54206 19.07629,-7.97473 26.32943,-16.7036 4.66423,-5.61322 7.64161,-11.5051 9.70066,-19.19649 1.61767,-6.04262 1.64245,-16.32384 0.0545,-22.61128 -5.26572,-20.84936 -22.59355,-35.68226 -43.86545,-37.54954 l -3.61492,-0.31732 v 49.01011 49.01011 l 3.61492,-0.31732 c 1.98821,-0.17453 5.48959,-0.77063 7.78087,-1.32467 z M 135.42119,295.00813 c -9.7654,-2.0253 -17.07417,-12.77443 -15.09656,-22.20277 1.37409,-6.55104 5.30608,-11.66443 11.10768,-14.44509 l 3.24097,-1.55338 h 14.45969 14.45969 l 2.90983,1.3632 c 3.99306,1.87067 6.39087,3.88084 8.60099,7.21052 6.55238,9.87157 2.72191,23.07603 -8.19444,28.24801 l -3.31638,1.57125 -13.21317,0.0851 c -7.26724,0.0468 -13.99847,-0.0778 -14.9583,-0.27683 z m 253.16722,-0.0796 c -6.48294,-1.59939 -12.47858,-7.39166 -14.15082,-13.67083 -2.48716,-9.33915 1.89693,-18.70316 10.71182,-22.87951 l 3.31638,-1.57125 h 14.45969 14.45969 l 3.24097,1.55338 c 7.86947,3.77178 12.59449,12.53229 11.09841,20.57713 -1.23495,6.6406 -5.04718,11.66598 -11.11896,14.6573 l -3.22042,1.58657 -13.46247,0.1045 c -7.40436,0.0575 -14.30479,-0.1033 -15.33429,-0.35729 z M 187.77525,211.7713 c -4.88274,-1.62904 -6.0994,-2.56769 -15.21896,-11.74132 -9.82155,-9.87979 -11.3806,-12.14006 -12.08182,-17.51598 -0.58541,-4.48808 0.016,-8.31072 1.88771,-11.99825 3.75875,-7.40534 11.39096,-11.21323 20.17766,-10.06712 5.37475,0.70106 7.63631,2.26069 17.5194,12.08182 9.31417,9.25576 10.729,11.16185 12.13644,16.35044 1.28548,4.73897 -0.31999,12.08051 -3.5319,16.15084 -4.92327,6.23908 -13.80218,9.10381 -20.88853,6.73957 z m 165.53853,-0.03 c -3.97644,-1.2832 -5.58823,-2.23533 -8.19237,-4.83947 -7.22166,-7.22167 -7.56434,-18.46034 -0.80918,-26.53814 1.30431,-1.55971 5.60694,-5.97708 9.56139,-9.81638 7.90227,-7.67215 10.65272,-9.44755 15.64499,-10.09872 13.55769,-1.76843 23.83379,8.50767 22.06537,22.06537 -0.70122,5.37592 -2.26027,7.63619 -12.08182,17.51598 -4.94248,4.97179 -9.75208,9.42784 -10.688,9.90234 -5.53041,2.80383 -10.58831,3.39412 -15.50038,1.809 z M 270.7712,177.57987 c -3.08284,-0.74892 -7.66975,-3.72085 -9.70088,-6.28536 -0.83115,-1.04941 -2.12462,-3.21745 -2.87438,-4.81786 l -1.3632,-2.90984 v -14.45969 -14.45969 l 1.55337,-3.24097 c 3.76665,-7.85876 12.27054,-12.50544 20.35258,-11.12106 6.79147,1.16333 11.92566,4.99304 14.90913,11.12106 l 1.57789,3.24097 v 14.45969 14.45969 l -1.57124,3.31638 c -4.18889,8.84137 -13.19363,13.05059 -22.88327,10.69668 z"
       id="path55"
       inkscape:connector-curvature="0" />
    <path
       inkscape:connector-curvature="0"
       id="path53"
       d="m 251.88836,411.52174 c -5.8411,-1.37447 -10.8799,-5.45015 -13.50225,-10.92145 l -1.55337,-3.24096 v -14.45969 -14.4597 l 1.33818,-2.85518 c 3.54324,-7.55997 10.07983,-11.83408 18.10761,-11.8401 7.54463,-0.006 14.13348,4.42461 17.609,11.8401 l 1.33818,2.85518 v 14.4597 14.45969 l -1.59587,3.22041 c -4.18547,8.44618 -13.1579,12.9618 -21.74148,10.942 z m -95.2289,-39.89283 c -3.69688,-0.40883 -8.75003,-2.94988 -11.24178,-5.6531 -4.01035,-4.35072 -5.76329,-10.19586 -4.94321,-16.48305 0.70113,-5.37519 2.26053,-7.63626 12.08182,-17.5181 9.19295,-9.24962 10.73174,-10.39945 15.94587,-11.91524 5.20716,-1.51376 12.21963,-0.11198 16.55542,3.3094 6.10458,4.81715 8.95801,13.13598 6.9156,20.16163 -1.51579,5.21413 -2.66562,6.75291 -11.91524,15.94586 -9.88184,9.82129 -12.1429,11.3807 -17.5181,12.08182 -1.64541,0.21462 -4.29158,0.24647 -5.88038,0.0708 z m 189.86749,-0.61953 c -3.69373,-1.20267 -6.4455,-3.39712 -15.01816,-11.97649 -8.94573,-8.95275 -10.43051,-11.01759 -11.65311,-16.20576 -1.61989,-6.87412 1.31038,-14.85404 7.1452,-19.45831 4.33578,-3.42138 11.34825,-4.82316 16.55541,-3.3094 5.21413,1.51579 6.75292,2.66562 15.94587,11.91524 11.39638,11.46664 11.95529,12.43713 11.95529,20.75907 0,5.69409 -0.0129,5.75695 -1.85353,9.02692 -2.21308,3.93167 -4.66752,6.26272 -8.65653,8.22132 -2.54626,1.25022 -3.60402,1.46526 -7.68921,1.56321 -2.85103,0.0684 -5.5308,-0.14494 -6.73123,-0.5358 z M 244.31189,333.03806 c -15.8174,-2.21612 -30.74613,-9.7412 -42.82049,-21.5844 -15.18085,-14.89021 -23.24534,-34.12755 -23.24534,-55.45028 0,-21.44811 7.96057,-40.42916 23.25405,-55.44657 15.16134,-14.88766 33.43122,-22.3366 54.78458,-22.3366 11.62103,0 21.95551,2.2688 32.40349,7.11378 9.08783,4.21424 15.70325,8.89866 22.78129,16.13156 7.87674,8.0491 12.65483,15.31202 17.03423,25.89281 6.09127,14.71675 7.00407,34.80059 2.299,50.58386 -3.73665,12.5347 -10.00109,23.10343 -19.32129,32.59691 -12.04042,12.26428 -27.54265,20.18446 -44.00004,22.47987 -6.45218,0.89992 -16.82151,0.90845 -23.16948,0.019 z m 23.11313,-29.66656 c 10.51294,-2.54206 19.07629,-7.97473 26.32943,-16.7036 4.66423,-5.61322 7.64161,-11.5051 9.70066,-19.19649 1.61767,-6.04262 1.64245,-16.32384 0.0545,-22.61128 -5.26572,-20.84936 -22.59355,-35.68226 -43.86545,-37.54954 l -3.61492,-0.31732 v 49.01011 49.01011 l 3.61492,-0.31732 c 1.98821,-0.17453 5.48959,-0.77063 7.78087,-1.32467 z M 115.42119,275.00813 c -9.7654,-2.0253 -17.074168,-12.77443 -15.09656,-22.20277 1.37409,-6.55104 5.30608,-11.66443 11.10768,-14.44509 l 3.24097,-1.55338 h 14.45969 14.45969 l 2.90983,1.3632 c 3.99306,1.87067 6.39087,3.88084 8.60099,7.21052 6.55238,9.87157 2.72191,23.07603 -8.19444,28.24801 l -3.31638,1.57125 -13.21317,0.0851 c -7.26724,0.0468 -13.99847,-0.0778 -14.9583,-0.27683 z m 253.16722,-0.0796 c -6.48294,-1.59939 -12.47858,-7.39166 -14.15082,-13.67083 -2.48716,-9.33915 1.89693,-18.70316 10.71182,-22.87951 l 3.31638,-1.57125 h 14.45969 14.45969 l 3.24097,1.55338 c 7.86947,3.77178 12.59449,12.53229 11.09841,20.57713 -1.23495,6.6406 -5.04718,11.66598 -11.11896,14.6573 l -3.22042,1.58657 -13.46247,0.1045 c -7.40436,0.0575 -14.30479,-0.1033 -15.33429,-0.35729 z M 167.77525,191.7713 c -4.88274,-1.62904 -6.0994,-2.56769 -15.21896,-11.74132 -9.82155,-9.87979 -11.3806,-12.14006 -12.08182,-17.51598 -0.58541,-4.48808 0.016,-8.31072 1.88771,-11.99825 3.75875,-7.40534 11.39096,-11.21323 20.17766,-10.06712 5.37475,0.70106 7.63631,2.26069 17.5194,12.08182 9.31417,9.25576 10.729,11.16185 12.13644,16.35044 1.28548,4.73897 -0.31999,12.08051 -3.5319,16.15084 -4.92327,6.23908 -13.80218,9.10381 -20.88853,6.73957 z m 165.53853,-0.03 c -3.97644,-1.2832 -5.58823,-2.23533 -8.19237,-4.83947 -7.22166,-7.22167 -7.56434,-18.46034 -0.80918,-26.53814 1.30431,-1.55971 5.60694,-5.97708 9.56139,-9.81638 7.90227,-7.67215 10.65272,-9.44755 15.64499,-10.09872 13.55769,-1.76843 23.83379,8.50767 22.06537,22.06537 -0.70122,5.37592 -2.26027,7.63619 -12.08182,17.51598 -4.94248,4.97179 -9.75208,9.42784 -10.688,9.90234 -5.53041,2.80383 -10.58831,3.39412 -15.50038,1.809 z M 250.7712,157.57987 c -3.08284,-0.74892 -7.66975,-3.72085 -9.70088,-6.28536 -0.83115,-1.04941 -2.12462,-3.21745 -2.87438,-4.81786 l -1.3632,-2.90984 v -14.45969 -14.45969 l 1.55337,-3.24097 c 3.76665,-7.85876 12.27054,-12.505446 20.35258,-11.12106 6.79147,1.16333 11.92566,4.99304 14.90913,11.12106 l 1.57789,3.24097 v 14.45969 14.45969 l -1.57124,3.31638 c -4.18889,8.84137 -13.19363,13.05059 -22.88327,10.69668 z"
       style="fill:#ffffff;stroke-width:0.49861005" />
  </g>
</svg>
