<?xml version="1.0" encoding="UTF-8" standalone="no"?>
<!-- Created using Karbon, part of Calligra: http://www.calligra.org/karbon -->

<svg
   xmlns:dc="http://purl.org/dc/elements/1.1/"
   xmlns:cc="http://creativecommons.org/ns#"
   xmlns:rdf="http://www.w3.org/1999/02/22-rdf-syntax-ns#"
   xmlns:svg="http://www.w3.org/2000/svg"
   xmlns="http://www.w3.org/2000/svg"
   xmlns:sodipodi="http://sodipodi.sourceforge.net/DTD/sodipodi-0.dtd"
   xmlns:inkscape="http://www.inkscape.org/namespaces/inkscape"
   width="512"
   height="512"
   id="svg2"
   version="1.1"
   inkscape:version="0.92.3 (2405546, 2018-03-11)"
   sodipodi:docname="scratch.svg">
  <metadata
     id="metadata11">
    <rdf:RDF>
      <cc:Work
         rdf:about="">
        <dc:format>image/svg+xml</dc:format>
        <dc:type
           rdf:resource="http://purl.org/dc/dcmitype/StillImage" />
        <dc:title></dc:title>
      </cc:Work>
    </rdf:RDF>
  </metadata>
  <sodipodi:namedview
     pagecolor="#ffffff"
     bordercolor="#666666"
     borderopacity="1"
     objecttolerance="10"
     gridtolerance="10"
     guidetolerance="10"
     inkscape:pageopacity="0"
     inkscape:pageshadow="2"
     inkscape:window-width="1017"
     inkscape:window-height="678"
     id="namedview9"
     showgrid="false"
     inkscape:showpageshadow="false"
     borderlayer="true"
     inkscape:zoom="0.6145833"
     inkscape:cx="78.578463"
     inkscape:cy="252.40198"
     inkscape:window-x="2"
     inkscape:window-y="57"
     inkscape:window-maximized="0"
     inkscape:current-layer="svg2"
     showguides="false">
    <sodipodi:guide
       position="9.5367432e-07,48.000001"
       orientation="47.999999,0"
       id="guide4069"
       inkscape:locked="false" />
    <sodipodi:guide
       position="9.5367432e-07,1.9073486e-06"
       orientation="0,47.999999"
       id="guide4071"
       inkscape:locked="false" />
    <sodipodi:guide
       position="48,1.9073486e-06"
       orientation="-47.999999,0"
       id="guide4073"
       inkscape:locked="false" />
    <sodipodi:guide
       position="48,48.000001"
       orientation="0,-47.999999"
       id="guide4075"
       inkscape:locked="false" />
    <sodipodi:guide
       position="4.000001,44.000001"
       orientation="39.999999,0"
       id="guide4077"
       inkscape:locked="false" />
    <sodipodi:guide
       position="4.000001,4.0000019"
       orientation="0,39.999999"
       id="guide4079"
       inkscape:locked="false" />
    <sodipodi:guide
       position="44,4.0000019"
       orientation="-39.999999,0"
       id="guide4081"
       inkscape:locked="false" />
    <sodipodi:guide
       position="44,44.000001"
       orientation="0,-39.999999"
       id="guide4083"
       inkscape:locked="false" />
  </sodipodi:namedview>
  <defs
     id="defs4" />
  <g
     id="g862">
    <path
       id="path1165"
       d="M 432.91328,56.474962 C 535.10618,145.04846 538.74005,306.17452 441.03006,416.37299 343.32007,526.57148 181.27962,544.10044 79.086743,455.52694 -23.106206,366.95112 -26.740033,205.82738 70.969944,95.626589 168.67988,-14.571869 330.72033,-32.100852 432.91328,56.474962 Z"
       inkscape:connector-curvature="0"
       style="fill:#3689e6;fill-opacity:1;stroke-width:11.10954762" />
    <path
       id="path1167"
       d="M 511.63552,224.904 C 510.08416,286.21587 486.47428,349.05909 440.66913,400.71745 342.95911,510.91591 180.91867,528.44488 78.725762,439.87141 30.827125,398.35528 4.4968196,340.92296 0.19382733,280.22782 0.79908093,346.58521 27.117406,410.48267 79.078693,455.51763 181.27157,544.09344 343.31972,526.55518 441.02203,416.366 490.72697,360.30678 514.02704,291.07521 511.63552,224.904 Z"
       inkscape:connector-curvature="0"
       style="opacity:1;fill:#000000;fill-opacity:0.49019608;stroke-width:11.10954762" />
    <path
       style="fill:#000000;stroke-width:2.63954139;fill-opacity:0.49019608"
       d="m 408.97891,220.69186 c -3.15362,1.31011 -7.49772,1.91911 -9.30586,1.30465 -1.16663,-0.39651 -2.4312,0.4115 -8.33496,5.32572 -3.82781,3.18622 -7.63736,6.0705 -8.46572,6.40949 -1.04415,0.42737 -2.12333,1.94453 -3.51912,4.94714 -1.86671,4.0158 -2.5191,4.77865 -8.9695,10.48832 -6.27213,5.55185 -7.39172,6.29964 -11.3816,7.60228 -2.4339,0.7946 -5.73807,1.57673 -7.3427,1.73803 l -2.91751,0.2933 -0.51424,2.81996 c -0.89372,4.90062 -2.34631,6.73957 -13.73279,17.38536 -8.09954,7.57266 -11.40699,10.32465 -13.21788,10.99805 -3.6347,1.3516 -9.73452,1.19788 -13.09408,-0.32997 l -2.9893,-1.3595 -0.82573,2.21886 c -0.99828,2.68243 -4.53951,6.8083 -7.4102,8.63357 -1.15561,0.73477 -3.48963,1.55371 -5.1867,1.81985 -2.70217,0.42381 -3.40083,0.85669 -5.62256,3.48367 -2.53544,2.99791 -2.53623,3.00232 -1.28153,7.2958 1.41034,4.82603 1.18925,11.3136 -0.55232,16.19282 -0.83394,2.33708 -2.31092,4.46009 -5.20013,7.47463 -4.6783,4.8812 -9.00417,7.23115 -14.66258,7.9651 -1.95297,0.2534 -3.76924,0.89541 -4.03612,1.42681 -1.02617,2.04311 -12.96999,16.53601 -15.83545,19.21509 -1.89939,1.77583 -2.98493,3.27483 -2.93863,4.05785 0.0404,0.68295 -0.87364,3.56494 -2.03121,6.40437 -1.76292,4.32441 -2.84962,5.93593 -6.69313,9.92563 -7.82875,8.12638 -16.14985,12.11739 -25.10312,12.04005 l -4.14786,-0.0359 -1.23871,3.10502 c -1.63979,4.11027 -4.10837,7.70205 -7.47972,10.88307 -2.22418,2.09867 -2.825,3.16351 -3.10128,5.49684 -0.77924,6.5812 -5.54982,13.10205 -11.09336,15.16348 -3.81017,1.41685 -9.70649,1.17069 -13.68449,-0.5713 -3.48657,-1.52677 -4.12895,-2.12758 -14.12117,-13.20758 -9.77972,-10.84429 -10.54772,-11.85286 -11.67303,-15.32924 -1.08253,-3.34427 -1.95329,-4.54326 -8.59638,-11.8371 -5.97558,-6.56111 -7.765,-8.92126 -9.33968,-12.3193 -5.47514,-11.81488 -4.23554,-21.39441 3.86332,-29.85474 2.59622,-2.71213 4.15234,-4.90662 4.59963,-6.4866 2.61653,-9.24251 12.66231,-14.75237 21.89408,-12.0084 2.95956,0.87968 4.44153,1.85398 7.93031,5.21378 3.71357,3.57623 4.35852,3.97842 4.7955,2.99049 0.27776,-0.62779 2.33874,-3.07306 4.5801,-5.43392 3.60799,-3.80033 4.18536,-4.76997 5.03575,-8.45738 0.5283,-2.2907 1.35791,-4.53645 1.84358,-4.99053 0.48568,-0.45405 0.64429,-2.54705 0.35238,-4.65103 -1.0986,-7.92137 4.06957,-15.66235 19.44102,-29.11905 6.44866,-5.6454 9.30649,-7.74692 12.70097,-9.33975 5.43787,-2.5517 5.23381,-2.34209 4.16284,-4.27537 -1.23773,-2.23422 -1.23343,-8.76206 0.008,-12.19212 1.25115,-3.4569 13.78493,-19.05285 16.90759,-21.03836 4.57414,-2.90833 11.0077,-3.49235 16.5916,-1.5061 l 2.20198,0.78326 1.30713,-3.01172 c 1.14237,-2.63202 3.76491,-5.44767 20.80228,-22.33405 19.45379,-19.28133 19.50283,-19.32512 23.12088,-20.62754 4.34935,-1.56565 9.95207,-1.23732 13.42309,0.78668 2.33452,1.36124 2.71337,1.34081 4.78758,-0.25814 1.80222,-1.38927 2.34386,-2.35152 2.70978,-4.8141 0.25154,-1.69277 1.05753,-4.15372 1.79119,-5.46876 0.73363,-1.31505 1.371,-4.03906 1.41635,-6.05332 0.14465,-6.42432 1.33659,-8.49665 9.50816,-16.53179 l 7.2571,-7.136 0.65257,-3.87015 c 0.35885,-2.12858 1.3492,-4.86412 2.20077,-6.07897 0.85155,-1.21485 5.8709,-6.25278 11.15412,-11.19548 l 9.60548,-8.98703 3.99415,-0.80292 c 5.29017,-1.0635 9.87218,-0.0267 14.2988,3.23586 5.18081,3.81831 6.85774,7.38404 6.73539,14.32094 l -0.0953,5.4029 12.60594,13.46932 12.60592,13.46932 2.96772,-0.53039 c 4.34215,-0.77605 10.28936,1.77385 14.40559,6.17645 2.69671,2.88435 3.30375,4.01144 3.98283,7.3953 1.48031,7.37602 0.19189,10.35654 -9.46859,21.90313 -2.24448,2.68275 -4.28912,5.49046 -4.54368,6.2394 -0.82119,2.41624 -5.79839,7.42104 -8.49365,8.54071 z m -2.98875,-16.75863 c 0.80374,-1.54448 3.80083,-5.51345 6.66025,-8.81995 2.85941,-3.30645 5.28359,-6.50444 5.38709,-7.10665 0.10347,-0.60216 -0.43043,-1.75653 -1.1865,-2.56518 -1.74197,-1.8632 -3.93759,-1.33891 -6.6021,1.57644 l -1.99827,2.18641 -20.99208,-22.18244 -20.99209,-22.1825 2.67346,-2.94998 c 2.75586,-3.04093 3.02597,-4.41141 1.24948,-6.34018 -1.93766,-2.10321 -3.00407,-1.50554 -11.52213,6.45843 -8.76119,8.19132 -9.49572,9.41192 -7.16416,11.90568 1.70303,1.82155 3.25603,1.44306 6.49179,-1.58225 l 3.01172,-2.81578 8.91365,9.81587 8.91362,9.81591 -5.65281,7.434 c -3.10901,4.0887 -6.27934,8.04701 -7.04517,8.79625 l -1.39244,1.36226 -5.73623,-6.13535 c -3.15493,-3.37441 -6.59793,-7.35373 -7.65121,-8.84288 l -1.91491,-2.70762 2.29152,-2.14243 c 3.10384,-2.90194 3.62296,-4.72977 1.87447,-6.59992 -0.90589,-0.96889 -1.95835,-1.37121 -2.91817,-1.11549 -2.18541,0.58231 -17.3874,14.93471 -17.43884,16.46424 -0.052,1.54839 2.12734,3.87939 3.67572,3.93144 0.6606,0.0211 2.5542,-1.22469 4.20801,-2.77093 l 3.00694,-2.81133 16.91254,18.36171 16.91252,18.36173 -3.01005,3.29953 c -3.89562,4.27028 -3.6455,6.99846 0.65484,7.14302 1.83158,0.0615 2.69162,-0.57753 10.10854,-7.51203 6.81739,-6.37391 8.12979,-7.85611 8.25224,-9.3199 0.34705,-4.14867 -3.88134,-4.46143 -8.0189,-0.593 l -2.85976,2.6737 -6.50615,-7.24739 -6.50613,-7.24739 6.74466,-8.85846 c 3.70962,-4.87214 6.92936,-8.85986 7.15501,-8.8616 0.22568,-0.003 4.64704,4.31618 9.82522,9.59534 6.6656,6.79574 9.43681,9.97013 9.4901,10.87119 0.0414,0.70001 -0.73366,2.31417 -1.72243,3.58695 -3.65133,4.70044 -3.84985,8.59121 -0.49648,9.73086 1.84388,0.62665 2.95054,-0.28782 4.9137,-4.06044 z M 177.70557,414.81284 c 0.0618,-1.83506 -0.32818,-2.46319 -2.85593,-4.60096 -1.61004,-1.36166 -2.76896,-2.62383 -2.5754,-2.80477 0.19347,-0.18081 2.38097,-1.11893 4.86092,-2.08432 14.11754,-5.49571 18.59803,-21.25778 8.61449,-30.30544 -5.83616,-5.28912 -13.41465,-4.73315 -23.8595,1.75036 -2.6992,1.6755 -5.72464,3.20313 -6.72318,3.39471 -3.01016,0.57758 -6.28337,-1.81189 -10.22064,-7.46111 -3.64714,-5.233 -4.50282,-7.73151 -3.35051,-9.78346 2.22799,-3.96755 14.19517,-2.44216 18.77118,2.39269 2.18451,2.30915 5.07138,2.44171 6.4551,0.29755 0.52913,-0.81992 0.78073,-1.93774 0.55909,-2.48409 -0.22173,-0.54639 -4.16927,-5.35447 -8.77249,-10.68474 -8.96204,-10.37746 -9.99486,-11.13342 -12.28498,-8.99228 -1.79318,1.67653 -1.40532,3.24349 1.59795,6.45571 2.6256,2.80826 2.99242,4.22607 0.94971,3.67078 -0.48502,-0.13171 -2.57884,0.0808 -4.65286,0.47227 -3.03887,0.57379 -4.35033,1.25373 -6.75545,3.50238 -2.58124,2.41334 -3.02743,3.22513 -3.30239,6.00834 -0.45621,4.61822 1.2191,8.26089 6.91529,15.03622 3.98869,4.74432 5.47554,6.11163 7.97123,7.33006 5.19995,2.53882 8.09639,1.91494 17.55677,-3.78175 7.69857,-4.63582 13.89336,-4.59771 16.33063,0.10031 1.43599,2.768 0.97281,8.10698 -0.97531,11.24228 -4.25253,6.84404 -15.4326,7.39731 -21.38126,1.05806 -0.81284,-0.86633 -2.01848,-1.5932 -2.67911,-1.61543 -1.90326,-0.0639 -4.11494,2.43384 -3.66157,4.13527 0.45598,1.71134 18.09559,20.83099 19.52809,21.1668 0.86255,0.20218 2.50427,-0.25974 3.44244,-0.96837 0.23439,-0.17738 0.45831,-1.27823 0.49763,-2.4471 z m 49.37634,-46.46139 c 2.35025,-6.43898 0.41589,-13.1796 -5.64107,-19.65804 -2.93915,-3.14364 -5.09305,-3.8215 -6.8684,-2.16162 -1.81456,1.69651 -1.25049,3.84718 1.88999,7.20615 3.59175,3.84167 5.32987,8.71178 4.22131,11.82819 -1.14192,3.21028 -7.6558,9.0594 -10.81834,9.71433 -4.48685,0.92914 -7.0343,-0.64672 -14.96045,-9.25482 -7.42677,-8.06572 -9.52618,-11.07245 -10.11955,-14.49322 -0.60559,-3.49124 0.49776,-5.18963 4.78092,-7.3593 3.10041,-1.57056 4.88917,-1.85776 10.14624,-1.62923 5.55233,0.24125 6.48498,0.0729 7.17237,-1.29668 0.77064,-1.53544 0.62396,-1.75904 -5.95813,-9.08039 -7.14468,-7.94705 -8.32788,-8.7174 -10.4061,-6.77438 -1.79858,1.6816 -1.40466,3.24421 1.63826,6.49884 1.56501,1.67386 2.5872,3.11717 2.27159,3.20731 -6.2871,1.7956 -8.47663,2.85284 -11.99516,5.79202 -5.28236,4.4126 -6.02444,7.04259 -3.93353,13.94037 1.51705,5.00462 1.55572,5.06084 9.81648,14.27226 9.24112,10.30461 11.50624,12.05067 17.02557,13.12415 5.4836,1.06645 10.15944,-0.71664 15.88469,-6.05757 3.796,-3.54142 4.76408,-4.83418 5.85331,-7.81837 z m 43.67182,-44.3572 c 2.7442,-5.58324 -0.29104,-15.23388 -4.53101,-14.40659 -2.2859,0.446 -3.32632,3.0517 -2.23527,5.59801 1.40827,3.28666 1.07371,5.8439 -0.90813,6.94179 -2.38496,1.32119 -4.04914,0.4237 -11.08682,-5.97909 -7.62595,-6.93798 -10.78791,-9.17647 -14.7247,-10.4244 l -2.94396,-0.93323 0.15652,-3.29362 c 0.19084,-4.01994 -1.69884,-10.12446 -3.85125,-12.44034 -4.50723,-4.84955 -10.97862,-3.66522 -20.84464,3.81474 -4.6632,3.53545 -15.7573,14.85172 -17.36248,17.71019 -1.15061,2.04897 -0.13066,4.21368 2.26156,4.79633 1.98137,0.4827 2.25105,0.33206 4.84134,-2.70392 l 2.74309,-3.21506 6.04716,6.75852 6.04716,6.75846 -1.126,1.38803 c -1.51795,1.8712 -1.63952,3.43106 -0.37289,4.7857 1.43,1.52946 3.16642,1.47741 4.90388,-0.14702 l 1.44839,-1.35422 7.67603,8.21006 7.67599,8.21008 -2.25749,2.75133 c -2.64802,3.22731 -2.53956,5.52852 0.31611,6.70728 2.14774,0.88657 4.08295,-0.83916 11.11991,-9.91617 5.17308,-6.67284 5.93322,-8.83257 3.54425,-10.0702 -2.54568,-1.31876 -3.40929,-1.03232 -5.90038,1.95722 l -2.42252,2.90719 -7.47882,-7.99913 -7.47883,-7.99918 2.90659,-4.2769 c 3.77689,-5.55755 4.39494,-6.08372 6.93959,-5.9079 2.94874,0.20351 6.11091,2.3206 13.1403,8.79664 9.36987,8.63225 12.79427,10.0703 18.2779,7.67552 3.37312,-1.47307 4.27275,-2.24474 5.47958,-4.70015 z m -56.82217,-12.1722 c -2.60153,-2.67562 -5.34317,-5.49122 -6.09241,-6.25708 -1.23528,-1.26244 -1.1866,-1.58573 0.52213,-3.46633 2.7041,-2.97605 10.59195,-8.43507 13.28333,-9.19312 3.42594,-0.96491 5.21524,1.60328 5.22168,7.49492 0.003,2.50313 -3.04123,8.87335 -6.85949,14.35507 l -1.34521,1.93125 -4.72998,-4.86478 z M 367.71351,230.5974 c 2.20512,-6.15652 0.95944,-11.63903 -4.03943,-17.77839 -3.96818,-4.87352 -5.40654,-5.48254 -7.75726,-3.28478 -1.88656,1.7639 -1.39746,3.59899 1.89978,7.12774 3.17877,3.402 4.34513,7.09844 3.45603,10.95333 -0.58263,2.52615 -1.18645,3.34749 -4.56588,6.21084 -4.43749,3.75979 -7.16115,4.46951 -11.34192,2.95542 -2.08329,-0.75444 -3.84819,-2.30258 -9.43182,-8.27336 -10.9707,-11.73189 -12.97087,-16.29721 -8.82077,-20.13663 3.15592,-2.91965 7.35083,-4.0327 13.51543,-3.58598 9.65325,0.69956 9.89545,-2.14772 0.99284,-11.66978 -5.29313,-5.66134 -6.15547,-6.35831 -7.93985,-6.41839 -4.34685,-0.1457 -4.78575,3.17671 -0.96013,7.26853 1.44406,1.5445 2.53728,2.89067 2.4294,2.99155 -0.10795,0.10083 -2.0085,0.78891 -4.22355,1.52904 -10.98369,3.66986 -15.07936,10.71154 -11.50283,19.77681 1.44995,3.67527 2.41679,4.91905 10.99345,14.14253 8.78165,9.44383 9.60962,10.1829 12.51747,11.17131 5.23957,1.78105 9.50594,1.22733 15.39702,-1.99832 2.60631,-1.42709 8.38073,-8.18588 9.38202,-10.98147 z m -32.9221,27.02154 c -0.37237,-4.08403 -4.2012,-4.0465 -8.61964,0.0845 l -2.98865,2.79421 -16.62003,-17.7763 -16.62,-17.77636 2.09244,-2.57285 c 1.15087,-1.41508 3.68948,-4.06594 5.64136,-5.89087 l 3.54884,-3.31801 4.29361,4.5923 c 4.91105,5.25274 6.46125,5.75718 8.09524,2.63416 0.81662,-1.56079 0.64114,-2.18982 -1.37753,-4.93808 -4.35149,-5.92424 -9.48783,-11.14248 -10.8861,-11.05981 -0.95153,0.0562 -4.43754,3.16351 -13.08772,11.66574 -9.23842,9.08039 -20.41616,20.19685 -24.14024,24.00779 -0.1948,0.19929 -0.17421,1.03805 0.0459,1.86378 0.28908,1.08496 2.48119,3.13615 7.90337,7.39534 9.32122,7.32192 10.18886,7.7457 12.13439,5.92672 2.66034,-2.48727 2.07017,-3.60937 -4.70567,-8.94681 -3.32228,-2.617 -6.20242,-4.93407 -6.40031,-5.14898 -0.19796,-0.21459 2.32027,-2.89642 5.59583,-5.95892 l 5.9556,-5.56817 16.67068,18.10306 16.67074,18.10308 -3.19593,3.28201 c -3.54514,3.64061 -4.0361,5.05522 -2.37213,6.83499 2.17569,2.32707 3.64344,1.44438 13.43189,-8.07785 7.58232,-7.37609 9.04372,-9.05354 8.93421,-10.25485 z m -42.22496,22.17473 c 0.52466,-1.89735 1.94413,-5.74519 3.15449,-8.55076 1.21031,-2.80557 2.31987,-5.55677 2.46562,-6.11374 0.453,-1.7309 -1.91435,-3.54189 -4.12803,-3.15792 -1.93481,0.33562 -2.15054,0.59086 -3.71104,4.39078 l -1.65681,4.0344 -2.24593,-1.02493 c -34.48756,-15.73856 -43.70302,-19.77901 -45.27167,-19.84912 -1.83818,-0.0823 -2.04644,0.10611 -7.54899,6.82169 -3.1122,3.79843 -5.89349,7.38929 -6.18059,7.97973 -0.86999,1.78913 0.95536,4.2329 3.21853,4.309 1.87486,0.0631 2.18575,-0.18794 5.59437,-4.5161 1.98504,-2.52055 3.88176,-4.57367 4.21495,-4.56247 0.33317,0.0106 5.71379,8.25268 11.95699,18.31443 l 11.35127,18.29402 -4.88114,4.84158 c -4.56018,4.52317 -4.84303,4.9549 -4.30172,6.56533 0.99086,2.94784 3.15658,3.11606 6.65146,0.51662 4.83543,-3.59651 14.08966,-12.06144 14.38556,-13.15859 0.14913,-0.5533 -0.48299,-1.81276 -1.4049,-2.79881 -1.30119,-1.3917 -2.0349,-1.646 -3.27944,-1.13662 -1.38289,0.56597 -1.8484,0.33818 -3.38651,-1.65718 -0.98077,-1.27234 -1.65898,-2.42954 -1.5071,-2.57157 0.15177,-0.14201 2.6207,-3.34216 5.48621,-7.11146 2.86551,-3.76926 5.3201,-6.82767 5.45464,-6.79642 1.00709,0.23386 7.82996,3.64819 8.30434,4.15559 0.3282,0.35101 0.24178,2.12496 -0.19216,3.9421 -0.67198,2.81415 -0.53667,3.57368 0.91257,5.12377 2.06626,2.21001 4.63955,1.64753 5.23231,-1.14371 0.19744,-0.92949 0.78811,-3.24239 1.31275,-5.13969 z m -29.57598,1.35177 c -0.46034,-0.49233 -9.02919,-14.24281 -10.74338,-17.23993 -0.49864,-0.87179 -0.4918,-1.4943 0.0158,-1.46933 0.4847,0.0238 4.88521,1.93051 9.77887,4.2371 9.81498,4.62619 9.71462,4.48759 6.30167,8.70402 -1.13432,1.40138 -2.6969,3.38584 -3.4724,4.40993 -0.79199,1.04587 -1.61637,1.64117 -1.88091,1.35821 z"
       id="path51"
       inkscape:connector-curvature="0" />
    <path
       inkscape:connector-curvature="0"
       id="path3365"
       d="m 388.97891,200.69186 c -3.15362,1.31011 -7.49772,1.91911 -9.30586,1.30465 -1.16663,-0.39651 -2.4312,0.4115 -8.33496,5.32572 -3.82781,3.18622 -7.63736,6.0705 -8.46572,6.40949 -1.04415,0.42737 -2.12333,1.94453 -3.51912,4.94714 -1.86671,4.0158 -2.5191,4.77865 -8.9695,10.48832 -6.27213,5.55185 -7.39172,6.29964 -11.3816,7.60228 -2.4339,0.7946 -5.73807,1.57673 -7.3427,1.73803 l -2.91751,0.2933 -0.51424,2.81996 c -0.89372,4.90062 -2.34631,6.73957 -13.73279,17.38536 -8.09954,7.57266 -11.40699,10.32465 -13.21788,10.99805 -3.6347,1.3516 -9.73452,1.19788 -13.09408,-0.32997 l -2.9893,-1.3595 -0.82573,2.21886 c -0.99828,2.68243 -4.53951,6.8083 -7.4102,8.63357 -1.15561,0.73477 -3.48963,1.55371 -5.1867,1.81985 -2.70217,0.42381 -3.40083,0.85669 -5.62256,3.48367 -2.53544,2.99791 -2.53623,3.00232 -1.28153,7.2958 1.41034,4.82603 1.18925,11.3136 -0.55232,16.19282 -0.83394,2.33708 -2.31092,4.46009 -5.20013,7.47463 -4.6783,4.8812 -9.00417,7.23115 -14.66258,7.9651 -1.95297,0.2534 -3.76924,0.89541 -4.03612,1.42681 -1.02617,2.04311 -12.96999,16.53601 -15.83545,19.21509 -1.89939,1.77583 -2.98493,3.27483 -2.93863,4.05785 0.0404,0.68295 -0.87364,3.56494 -2.03121,6.40437 -1.76292,4.32441 -2.84962,5.93593 -6.69313,9.92563 -7.82875,8.12638 -16.14985,12.11739 -25.10312,12.04005 l -4.14786,-0.0359 -1.23871,3.10502 c -1.63979,4.11027 -4.10837,7.70205 -7.47972,10.88307 -2.22418,2.09867 -2.825,3.16351 -3.10128,5.49684 -0.77924,6.5812 -5.54982,13.10205 -11.09336,15.16348 -3.81017,1.41685 -9.70649,1.17069 -13.68449,-0.5713 -3.48657,-1.52677 -4.12895,-2.12758 -14.12117,-13.20758 -9.77972,-10.84429 -10.54772,-11.85286 -11.67303,-15.32924 -1.08253,-3.34427 -1.95329,-4.54326 -8.59638,-11.8371 -5.97558,-6.56111 -7.765,-8.92126 -9.33968,-12.3193 -5.475144,-11.81488 -4.235544,-21.39441 3.86332,-29.85474 2.59622,-2.71213 4.15234,-4.90662 4.59963,-6.4866 2.61653,-9.24251 12.66231,-14.75237 21.89408,-12.0084 2.95956,0.87968 4.44153,1.85398 7.93031,5.21378 3.71357,3.57623 4.35852,3.97842 4.7955,2.99049 0.27776,-0.62779 2.33874,-3.07306 4.5801,-5.43392 3.60799,-3.80033 4.18536,-4.76997 5.03575,-8.45738 0.5283,-2.2907 1.35791,-4.53645 1.84358,-4.99053 0.48568,-0.45405 0.64429,-2.54705 0.35238,-4.65103 -1.0986,-7.92137 4.06957,-15.66235 19.44102,-29.11905 6.44866,-5.6454 9.30649,-7.74692 12.70097,-9.33975 5.43787,-2.5517 5.23381,-2.34209 4.16284,-4.27537 -1.23773,-2.23422 -1.23343,-8.76206 0.008,-12.19212 1.25115,-3.4569 13.78493,-19.05285 16.90759,-21.03836 4.57414,-2.90833 11.0077,-3.49235 16.5916,-1.5061 l 2.20198,0.78326 1.30713,-3.01172 c 1.14237,-2.63202 3.76491,-5.44767 20.80228,-22.33405 19.45379,-19.28133 19.50283,-19.32512 23.12088,-20.62754 4.34935,-1.56565 9.95207,-1.23732 13.42309,0.78668 2.33452,1.36124 2.71337,1.34081 4.78758,-0.25814 1.80222,-1.38927 2.34386,-2.35152 2.70978,-4.8141 0.25154,-1.69277 1.05753,-4.15372 1.79119,-5.46876 0.73363,-1.31505 1.371,-4.03906 1.41635,-6.05332 0.14465,-6.42432 1.33659,-8.49665 9.50816,-16.53179 l 7.2571,-7.136 0.65257,-3.87015 c 0.35885,-2.12858 1.3492,-4.86412 2.20077,-6.07897 0.85155,-1.21485 5.8709,-6.25278 11.15412,-11.19548 l 9.60548,-8.98703 3.99415,-0.80292 c 5.29017,-1.0635 9.87218,-0.0267 14.2988,3.23586 5.18081,3.81831 6.85774,7.38404 6.73539,14.32094 l -0.0953,5.4029 12.60594,13.46932 12.60592,13.46932 2.96772,-0.53039 c 4.34215,-0.77605 10.28936,1.77385 14.40559,6.17645 2.69671,2.88435 3.30375,4.01144 3.98283,7.3953 1.48031,7.37602 0.19189,10.35654 -9.46859,21.90313 -2.24448,2.68275 -4.28912,5.49046 -4.54368,6.2394 -0.82119,2.41624 -5.79839,7.42104 -8.49365,8.54071 z m -2.98875,-16.75863 c 0.80374,-1.54448 3.80083,-5.51345 6.66025,-8.81995 2.85941,-3.30645 5.28359,-6.50444 5.38709,-7.10665 0.10347,-0.60216 -0.43043,-1.75653 -1.1865,-2.56518 -1.74197,-1.8632 -3.93759,-1.33891 -6.6021,1.57644 l -1.99827,2.18641 -20.99208,-22.18244 -20.99209,-22.1825 2.67346,-2.94998 c 2.75586,-3.04093 3.02597,-4.41141 1.24948,-6.34018 -1.93766,-2.10321 -3.00407,-1.50554 -11.52213,6.45843 -8.76119,8.19132 -9.49572,9.41192 -7.16416,11.90568 1.70303,1.82155 3.25603,1.44306 6.49179,-1.58225 l 3.01172,-2.81578 8.91365,9.81587 8.91362,9.81591 -5.65281,7.434 c -3.10901,4.0887 -6.27934,8.04701 -7.04517,8.79625 l -1.39244,1.36226 -5.73623,-6.13535 c -3.15493,-3.37441 -6.59793,-7.35373 -7.65121,-8.84288 l -1.91491,-2.70762 2.29152,-2.14243 c 3.10384,-2.90194 3.62296,-4.72977 1.87447,-6.59992 -0.90589,-0.96889 -1.95835,-1.37121 -2.91817,-1.11549 -2.18541,0.58231 -17.3874,14.93471 -17.43884,16.46424 -0.052,1.54839 2.12734,3.87939 3.67572,3.93144 0.6606,0.0211 2.5542,-1.22469 4.20801,-2.77093 l 3.00694,-2.81133 16.91254,18.36171 16.91252,18.36173 -3.01005,3.29953 c -3.89562,4.27028 -3.6455,6.99846 0.65484,7.14302 1.83158,0.0615 2.69162,-0.57753 10.10854,-7.51203 6.81739,-6.37391 8.12979,-7.85611 8.25224,-9.3199 0.34705,-4.14867 -3.88134,-4.46143 -8.0189,-0.593 l -2.85976,2.6737 -6.50615,-7.24739 -6.50613,-7.24739 6.74466,-8.85846 c 3.70962,-4.87214 6.92936,-8.85986 7.15501,-8.8616 0.22568,-0.003 4.64704,4.31618 9.82522,9.59534 6.6656,6.79574 9.43681,9.97013 9.4901,10.87119 0.0414,0.70001 -0.73366,2.31417 -1.72243,3.58695 -3.65133,4.70044 -3.84985,8.59121 -0.49648,9.73086 1.84388,0.62665 2.95054,-0.28782 4.9137,-4.06044 z M 157.70557,394.81284 c 0.0618,-1.83506 -0.32818,-2.46319 -2.85593,-4.60096 -1.61004,-1.36166 -2.76896,-2.62383 -2.5754,-2.80477 0.19347,-0.18081 2.38097,-1.11893 4.86092,-2.08432 14.11754,-5.49571 18.59803,-21.25778 8.61449,-30.30544 -5.83616,-5.28912 -13.41465,-4.73315 -23.8595,1.75036 -2.6992,1.6755 -5.72464,3.20313 -6.72318,3.39471 -3.01016,0.57758 -6.28337,-1.81189 -10.22064,-7.46111 -3.64714,-5.233 -4.50282,-7.73151 -3.35051,-9.78346 2.22799,-3.96755 14.19517,-2.44216 18.77118,2.39269 2.18451,2.30915 5.07138,2.44171 6.4551,0.29755 0.52913,-0.81992 0.78073,-1.93774 0.55909,-2.48409 -0.22173,-0.54639 -4.16927,-5.35447 -8.77249,-10.68474 -8.96204,-10.37746 -9.99486,-11.13342 -12.28498,-8.99228 -1.79318,1.67653 -1.40532,3.24349 1.59795,6.45571 2.6256,2.80826 2.99242,4.22607 0.94971,3.67078 -0.48502,-0.13171 -2.57884,0.0808 -4.65286,0.47227 -3.03887,0.57379 -4.35033,1.25373 -6.75545,3.50238 -2.58124,2.41334 -3.02743,3.22513 -3.30239,6.00834 -0.45621,4.61822 1.2191,8.26089 6.91529,15.03622 3.98869,4.74432 5.47554,6.11163 7.97123,7.33006 5.19995,2.53882 8.09639,1.91494 17.55677,-3.78175 7.69857,-4.63582 13.89336,-4.59771 16.33063,0.10031 1.43599,2.768 0.97281,8.10698 -0.97531,11.24228 -4.25253,6.84404 -15.4326,7.39731 -21.38126,1.05806 -0.81284,-0.86633 -2.01848,-1.5932 -2.67911,-1.61543 -1.90326,-0.0639 -4.11494,2.43384 -3.66157,4.13527 0.45598,1.71134 18.09559,20.83099 19.52809,21.1668 0.86255,0.20218 2.50427,-0.25974 3.44244,-0.96837 0.23439,-0.17738 0.45831,-1.27823 0.49763,-2.4471 z m 49.37634,-46.46139 c 2.35025,-6.43898 0.41589,-13.1796 -5.64107,-19.65804 -2.93915,-3.14364 -5.09305,-3.8215 -6.8684,-2.16162 -1.81456,1.69651 -1.25049,3.84718 1.88999,7.20615 3.59175,3.84167 5.32987,8.71178 4.22131,11.82819 -1.14192,3.21028 -7.6558,9.0594 -10.81834,9.71433 -4.48685,0.92914 -7.0343,-0.64672 -14.96045,-9.25482 -7.42677,-8.06572 -9.52618,-11.07245 -10.11955,-14.49322 -0.60559,-3.49124 0.49776,-5.18963 4.78092,-7.3593 3.10041,-1.57056 4.88917,-1.85776 10.14624,-1.62923 5.55233,0.24125 6.48498,0.0729 7.17237,-1.29668 0.77064,-1.53544 0.62396,-1.75904 -5.95813,-9.08039 -7.14468,-7.94705 -8.32788,-8.7174 -10.4061,-6.77438 -1.79858,1.6816 -1.40466,3.24421 1.63826,6.49884 1.56501,1.67386 2.5872,3.11717 2.27159,3.20731 -6.2871,1.7956 -8.47663,2.85284 -11.99516,5.79202 -5.28236,4.4126 -6.02444,7.04259 -3.93353,13.94037 1.51705,5.00462 1.55572,5.06084 9.81648,14.27226 9.24112,10.30461 11.50624,12.05067 17.02557,13.12415 5.4836,1.06645 10.15944,-0.71664 15.88469,-6.05757 3.796,-3.54142 4.76408,-4.83418 5.85331,-7.81837 z m 43.67182,-44.3572 c 2.7442,-5.58324 -0.29104,-15.23388 -4.53101,-14.40659 -2.2859,0.446 -3.32632,3.0517 -2.23527,5.59801 1.40827,3.28666 1.07371,5.8439 -0.90813,6.94179 -2.38496,1.32119 -4.04914,0.4237 -11.08682,-5.97909 -7.62595,-6.93798 -10.78791,-9.17647 -14.7247,-10.4244 l -2.94396,-0.93323 0.15652,-3.29362 c 0.19084,-4.01994 -1.69884,-10.12446 -3.85125,-12.44034 -4.50723,-4.84955 -10.97862,-3.66522 -20.84464,3.81474 -4.6632,3.53545 -15.7573,14.85172 -17.36248,17.71019 -1.15061,2.04897 -0.13066,4.21368 2.26156,4.79633 1.98137,0.4827 2.25105,0.33206 4.84134,-2.70392 l 2.74309,-3.21506 6.04716,6.75852 6.04716,6.75846 -1.126,1.38803 c -1.51795,1.8712 -1.63952,3.43106 -0.37289,4.7857 1.43,1.52946 3.16642,1.47741 4.90388,-0.14702 l 1.44839,-1.35422 7.67603,8.21006 7.67599,8.21008 -2.25749,2.75133 c -2.64802,3.22731 -2.53956,5.52852 0.31611,6.70728 2.14774,0.88657 4.08295,-0.83916 11.11991,-9.91617 5.17308,-6.67284 5.93322,-8.83257 3.54425,-10.0702 -2.54568,-1.31876 -3.40929,-1.03232 -5.90038,1.95722 l -2.42252,2.90719 -7.47882,-7.99913 -7.47883,-7.99918 2.90659,-4.2769 c 3.77689,-5.55755 4.39494,-6.08372 6.93959,-5.9079 2.94874,0.20351 6.11091,2.3206 13.1403,8.79664 9.36987,8.63225 12.79427,10.0703 18.2779,7.67552 3.37312,-1.47307 4.27275,-2.24474 5.47958,-4.70015 z m -56.82217,-12.1722 c -2.60153,-2.67562 -5.34317,-5.49122 -6.09241,-6.25708 -1.23528,-1.26244 -1.1866,-1.58573 0.52213,-3.46633 2.7041,-2.97605 10.59195,-8.43507 13.28333,-9.19312 3.42594,-0.96491 5.21524,1.60328 5.22168,7.49492 0.003,2.50313 -3.04123,8.87335 -6.85949,14.35507 l -1.34521,1.93125 -4.72998,-4.86478 z M 347.71351,210.5974 c 2.20512,-6.15652 0.95944,-11.63903 -4.03943,-17.77839 -3.96818,-4.87352 -5.40654,-5.48254 -7.75726,-3.28478 -1.88656,1.7639 -1.39746,3.59899 1.89978,7.12774 3.17877,3.402 4.34513,7.09844 3.45603,10.95333 -0.58263,2.52615 -1.18645,3.34749 -4.56588,6.21084 -4.43749,3.75979 -7.16115,4.46951 -11.34192,2.95542 -2.08329,-0.75444 -3.84819,-2.30258 -9.43182,-8.27336 -10.9707,-11.73189 -12.97087,-16.29721 -8.82077,-20.13663 3.15592,-2.91965 7.35083,-4.0327 13.51543,-3.58598 9.65325,0.69956 9.89545,-2.14772 0.99284,-11.66978 -5.29313,-5.66134 -6.15547,-6.35831 -7.93985,-6.41839 -4.34685,-0.1457 -4.78575,3.17671 -0.96013,7.26853 1.44406,1.5445 2.53728,2.89067 2.4294,2.99155 -0.10795,0.10083 -2.0085,0.78891 -4.22355,1.52904 -10.98369,3.66986 -15.07936,10.71154 -11.50283,19.77681 1.44995,3.67527 2.41679,4.91905 10.99345,14.14253 8.78165,9.44383 9.60962,10.1829 12.51747,11.17131 5.23957,1.78105 9.50594,1.22733 15.39702,-1.99832 2.60631,-1.42709 8.38073,-8.18588 9.38202,-10.98147 z m -32.9221,27.02154 c -0.37237,-4.08403 -4.2012,-4.0465 -8.61964,0.0845 l -2.98865,2.79421 -16.62003,-17.7763 -16.62,-17.77636 2.09244,-2.57285 c 1.15087,-1.41508 3.68948,-4.06594 5.64136,-5.89087 l 3.54884,-3.31801 4.29361,4.5923 c 4.91105,5.25274 6.46125,5.75718 8.09524,2.63416 0.81662,-1.56079 0.64114,-2.18982 -1.37753,-4.93808 -4.35149,-5.92424 -9.48783,-11.14248 -10.8861,-11.05981 -0.95153,0.0562 -4.43754,3.16351 -13.08772,11.66574 -9.23842,9.08039 -20.41616,20.19685 -24.14024,24.00779 -0.1948,0.19929 -0.17421,1.03805 0.0459,1.86378 0.28908,1.08496 2.48119,3.13615 7.90337,7.39534 9.32122,7.32192 10.18886,7.7457 12.13439,5.92672 2.66034,-2.48727 2.07017,-3.60937 -4.70567,-8.94681 -3.32228,-2.617 -6.20242,-4.93407 -6.40031,-5.14898 -0.19796,-0.21459 2.32027,-2.89642 5.59583,-5.95892 l 5.9556,-5.56817 16.67068,18.10306 16.67074,18.10308 -3.19593,3.28201 c -3.54514,3.64061 -4.0361,5.05522 -2.37213,6.83499 2.17569,2.32707 3.64344,1.44438 13.43189,-8.07785 7.58232,-7.37609 9.04372,-9.05354 8.93421,-10.25485 z m -42.22496,22.17473 c 0.52466,-1.89735 1.94413,-5.74519 3.15449,-8.55076 1.21031,-2.80557 2.31987,-5.55677 2.46562,-6.11374 0.453,-1.7309 -1.91435,-3.54189 -4.12803,-3.15792 -1.93481,0.33562 -2.15054,0.59086 -3.71104,4.39078 l -1.65681,4.0344 -2.24593,-1.02493 c -34.48756,-15.73856 -43.70302,-19.77901 -45.27167,-19.84912 -1.83818,-0.0823 -2.04644,0.10611 -7.54899,6.82169 -3.1122,3.79843 -5.89349,7.38929 -6.18059,7.97973 -0.86999,1.78913 0.95536,4.2329 3.21853,4.309 1.87486,0.0631 2.18575,-0.18794 5.59437,-4.5161 1.98504,-2.52055 3.88176,-4.57367 4.21495,-4.56247 0.33317,0.0106 5.71379,8.25268 11.95699,18.31443 l 11.35127,18.29402 -4.88114,4.84158 c -4.56018,4.52317 -4.84303,4.9549 -4.30172,6.56533 0.99086,2.94784 3.15658,3.11606 6.65146,0.51662 4.83543,-3.59651 14.08966,-12.06144 14.38556,-13.15859 0.14913,-0.5533 -0.48299,-1.81276 -1.4049,-2.79881 -1.30119,-1.3917 -2.0349,-1.646 -3.27944,-1.13662 -1.38289,0.56597 -1.8484,0.33818 -3.38651,-1.65718 -0.98077,-1.27234 -1.65898,-2.42954 -1.5071,-2.57157 0.15177,-0.14201 2.6207,-3.34216 5.48621,-7.11146 2.86551,-3.76926 5.3201,-6.82767 5.45464,-6.79642 1.00709,0.23386 7.82996,3.64819 8.30434,4.15559 0.3282,0.35101 0.24178,2.12496 -0.19216,3.9421 -0.67198,2.81415 -0.53667,3.57368 0.91257,5.12377 2.06626,2.21001 4.63955,1.64753 5.23231,-1.14371 0.19744,-0.92949 0.78811,-3.24239 1.31275,-5.13969 z m -29.57598,1.35177 c -0.46034,-0.49233 -9.02919,-14.24281 -10.74338,-17.23993 -0.49864,-0.87179 -0.4918,-1.4943 0.0158,-1.46933 0.4847,0.0238 4.88521,1.93051 9.77887,4.2371 9.81498,4.62619 9.71462,4.48759 6.30167,8.70402 -1.13432,1.40138 -2.6969,3.38584 -3.4724,4.40993 -0.79199,1.04587 -1.61637,1.64117 -1.88091,1.35821 z"
       style="fill:#ffffff;stroke-width:2.63954139" />
  </g>
</svg>
