<?xml version="1.0" encoding="UTF-8" standalone="no"?>
<!-- Created with Inkscape (http://www.inkscape.org/) -->

<svg
   xmlns:dc="http://purl.org/dc/elements/1.1/"
   xmlns:cc="http://creativecommons.org/ns#"
   xmlns:rdf="http://www.w3.org/1999/02/22-rdf-syntax-ns#"
   xmlns:svg="http://www.w3.org/2000/svg"
   xmlns="http://www.w3.org/2000/svg"
   xmlns:sodipodi="http://sodipodi.sourceforge.net/DTD/sodipodi-0.dtd"
   xmlns:inkscape="http://www.inkscape.org/namespaces/inkscape"
   id="svg2"
   version="1.1"
   inkscape:version="0.92.3 (2405546, 2018-03-11)"
   width="512"
   height="512"
   sodipodi:docname="screenlets.svg"
   viewBox="0 0 512 512">
  <metadata
     id="metadata8">
    <rdf:RDF>
      <cc:Work
         rdf:about="">
        <dc:format>image/svg+xml</dc:format>
        <dc:type
           rdf:resource="http://purl.org/dc/dcmitype/StillImage" />
        <dc:title></dc:title>
      </cc:Work>
    </rdf:RDF>
  </metadata>
  <defs
     id="defs6">
    <clipPath
       clipPathUnits="userSpaceOnUse"
       id="clipPath4201">
      <rect
         style="fill:#51c3c3;fill-opacity:1;stroke:none"
         id="rect4203"
         width="460"
         height="460"
         x="26"
         y="26"
         rx="36"
         ry="36" />
    </clipPath>
  </defs>
  <sodipodi:namedview
     pagecolor="#ffffff"
     bordercolor="#666666"
     borderopacity="1"
     objecttolerance="10"
     gridtolerance="10"
     guidetolerance="10"
     inkscape:pageopacity="0"
     inkscape:pageshadow="2"
     inkscape:window-width="1366"
     inkscape:window-height="711"
     id="namedview4"
     showgrid="true"
     inkscape:zoom="0.46093749"
     inkscape:cx="497.39907"
     inkscape:cy="268.50222"
     inkscape:window-x="0"
     inkscape:window-y="28"
     inkscape:window-maximized="1"
     inkscape:current-layer="g4142"
     showguides="false">
    <inkscape:grid
       type="xygrid"
       id="grid3787"
       empspacing="5"
       visible="true"
       enabled="false"
       snapvisiblegridlinesonly="true" />
  </sodipodi:namedview>
  <g
     id="g4142"
     transform="matrix(0.97826087,0,0,0.97826087,5.5652172,5.565217)">
    <g
       id="g852"
       transform="matrix(1.0222222,0,0,1.0222222,-5.6888929,-558.05911)">
      <g
         transform="matrix(8.0447857,6.9727288,-7.6918814,8.6750446,247.5303,420.8156)"
         id="g986"
         style="fill:#f9c440;fill-opacity:1">
        <path
           style="fill:#f9c440;fill-opacity:1"
           inkscape:connector-curvature="0"
           d="M 24,1 C 36.703,1 47,11.297 47,24 47,36.703 36.703,47 24,47 11.297,47 1,36.703 1,24 1,11.297 11.297,1 24,1 Z"
           id="path984" />
      </g>
      <path
         id="path988"
         d="m 511.63551,765.26569 c -1.5514,61.31166 -25.16123,124.1546 -70.96638,175.81449 C 342.95916,1051.2793 180.91869,1068.808 78.725782,980.23344 30.827128,938.71781 4.4968259,881.285 0.193832,820.59096 0.79908356,886.94764 27.117415,950.84436 79.078686,995.88121 181.2716,1084.4558 343.31975,1066.9184 441.02203,956.72795 490.72697,900.66981 514.02705,831.43698 511.63551,765.26569 Z"
         inkscape:connector-curvature="0"
         style="opacity:1;fill:#000000;fill-opacity:0.49019608;stroke-width:11.10955811" />
      <g
         transform="matrix(3.685039,0,0,3.685039,22.500011,-34.269408)"
         id="g998"
         style="fill:#000000;fill-opacity:0.49019608">
        <path
           sodipodi:nodetypes="cccccccccc"
           inkscape:connector-curvature="0"
           id="path992"
           d="m 59.348533,228.45022 c -6.51957,0 -12.50063,3.61906 -15.53686,9.38812 -1.35721,-0.46489 -2.78305,-0.70513 -4.21841,-0.70981 -7.25418,1.5e-4 -13.13477,5.88076 -13.13493,13.13478 1.6e-4,7.25417 5.88075,13.13461 13.13493,13.13461 h 37.0211 c 7.31003,0 13.23602,-5.92631 13.23587,-13.23649 1.5e-4,-7.30987 -5.92584,-13.23616 -13.23587,-13.23616 -0.72071,8.8e-4 -1.43832,0.0624 -2.14845,0.18095 -3.1537,-5.35549 -8.90215,-8.64664 -15.11738,-8.65538 z"
           style="fill:#000000;fill-opacity:0.49019608;stroke:none;stroke-width:4.12751293" />
        <path
           inkscape:connector-curvature="0"
           style="opacity:1;fill:#000000;fill-opacity:0.49019608;stroke:none;stroke-width:6.1912694;stroke-linecap:round;stroke-linejoin:miter;stroke-miterlimit:4;stroke-dasharray:none;stroke-opacity:1"
           d="m 63.355883,198.00182 a 25.77011,25.77011 0 0 0 -25.82931,25.70029 25.77011,25.77011 0 0 0 2.37822,10.80241 c 1.32912,0.0311 2.65139,0.25429 3.90984,0.68484 3.0364,-5.76905 9.01511,-9.38374 15.53453,-9.38374 5.10044,0.008 9.86126,2.25032 13.15646,6.00586 2.60411,-3.97926 7.035,-6.43768 11.85058,-6.4411 1.58027,0.003 3.1108,0.29328 4.56286,0.78936 a 25.77011,25.77011 0 0 0 0.1404,-2.30552 l -25.77285,-0.0936 25.77285,0.0624 a 25.77011,25.77011 0 0 0 -25.70842,-25.8212 z"
           id="path994" />
        <path
           inkscape:connector-curvature="0"
           style="fill:#000000;fill-opacity:0.49019608;stroke:none;stroke-width:4.12751293"
           d="m 86.472871,226.95835 c -4.81558,0.004 -9.24647,2.46185 -11.85058,6.44111 0.72072,0.82057 1.39308,1.6909 1.95906,2.65232 0.7098,-0.12487 1.43208,-0.18408 2.15233,-0.18563 7.31019,0 13.23727,5.92722 13.23712,13.23709 0,2.21428 -0.60216,4.2685 -1.56392,6.1026 h 10.020549 c 5.90805,0 10.69774,-4.78953 10.69758,-10.69758 1.6e-4,-5.90821 -4.78953,-10.69773 -10.69758,-10.69773 -0.581889,8.8e-4 -1.159089,0.0468 -1.733339,0.14039 -2.54888,-4.32854 -7.198,-6.99037 -12.22122,-6.9974 z"
           id="path996" />
      </g>
      <g
         id="g1006"
         transform="matrix(3.685039,0,0,3.685039,2.5000122,-54.269419)">
        <path
           style="fill:#ffffff;fill-opacity:1;stroke:none;stroke-width:4.12751293"
           d="m 59.348533,228.45022 c -6.51957,0 -12.50063,3.61906 -15.53686,9.38812 -1.35721,-0.46489 -2.78305,-0.70513 -4.21841,-0.70981 -7.25418,1.5e-4 -13.13477,5.88076 -13.13493,13.13478 1.6e-4,7.25417 5.88075,13.13461 13.13493,13.13461 h 37.0211 c 7.31003,0 13.23602,-5.92631 13.23587,-13.23649 1.5e-4,-7.30987 -5.92584,-13.23616 -13.23587,-13.23616 -0.72071,8.8e-4 -1.43832,0.0624 -2.14845,0.18095 -3.1537,-5.35549 -8.90215,-8.64664 -15.11738,-8.65538 z"
           id="path1000"
           inkscape:connector-curvature="0"
           sodipodi:nodetypes="cccccccccc" />
        <path
           id="path1002"
           d="m 63.355883,198.00182 a 25.77011,25.77011 0 0 0 -25.82931,25.70029 25.77011,25.77011 0 0 0 2.37822,10.80241 c 1.32912,0.0311 2.65139,0.25429 3.90984,0.68484 3.0364,-5.76905 9.01511,-9.38374 15.53453,-9.38374 5.10044,0.008 9.86126,2.25032 13.15646,6.00586 2.60411,-3.97926 7.035,-6.43768 11.85058,-6.4411 1.58027,0.003 3.1108,0.29328 4.56286,0.78936 a 25.77011,25.77011 0 0 0 0.1404,-2.30552 l -25.77285,-0.0936 25.77285,0.0624 a 25.77011,25.77011 0 0 0 -25.70842,-25.8212 z"
           style="opacity:1;fill:#ffffff;fill-opacity:1;stroke:none;stroke-width:6.1912694;stroke-linecap:round;stroke-linejoin:miter;stroke-miterlimit:4;stroke-dasharray:none;stroke-opacity:1"
           inkscape:connector-curvature="0" />
        <path
           id="path1004"
           d="m 86.472871,226.95835 c -4.81558,0.004 -9.24647,2.46185 -11.85058,6.44111 0.72072,0.82057 1.39308,1.6909 1.95906,2.65232 0.7098,-0.12487 1.43208,-0.18408 2.15233,-0.18563 7.31019,0 13.23727,5.92722 13.23712,13.23709 0,2.21428 -0.60216,4.2685 -1.56392,6.1026 h 10.020549 c 5.90805,0 10.69774,-4.78953 10.69758,-10.69758 1.6e-4,-5.90821 -4.78953,-10.69773 -10.69758,-10.69773 -0.581889,8.8e-4 -1.159089,0.0468 -1.733339,0.14039 -2.54888,-4.32854 -7.198,-6.99037 -12.22122,-6.9974 z"
           style="fill:#ffffff;fill-opacity:1;stroke:none;stroke-width:4.12751293"
           inkscape:connector-curvature="0" />
      </g>
    </g>
  </g>
</svg>
