<?xml version="1.0" encoding="UTF-8" standalone="no"?>
<svg
   xmlns:dc="http://purl.org/dc/elements/1.1/"
   xmlns:cc="http://creativecommons.org/ns#"
   xmlns:rdf="http://www.w3.org/1999/02/22-rdf-syntax-ns#"
   xmlns:svg="http://www.w3.org/2000/svg"
   xmlns="http://www.w3.org/2000/svg"
   xmlns:xlink="http://www.w3.org/1999/xlink"
   xmlns:sodipodi="http://sodipodi.sourceforge.net/DTD/sodipodi-0.dtd"
   xmlns:inkscape="http://www.inkscape.org/namespaces/inkscape"
   version="1.1"
   id="Layer_1"
   x="0px"
   y="0px"
   width="512"
   height="512"
   viewBox="0 0 512 512"
   enable-background="new 0 0 100 100"
   xml:space="preserve"
   inkscape:version="0.92.3 (2405546, 2018-03-11)"
   sodipodi:docname="screenruler.svg"><metadata
     id="metadata8"><rdf:RDF><cc:Work
         rdf:about=""><dc:format>image/svg+xml</dc:format><dc:type
           rdf:resource="http://purl.org/dc/dcmitype/StillImage" /><dc:title></dc:title></cc:Work></rdf:RDF></metadata><defs
     id="defs6"><linearGradient
       inkscape:collect="always"
       id="linearGradient4386"><stop
         style="stop-color:#181818;stop-opacity:1"
         offset="0"
         id="stop4382" /><stop
         style="stop-color:#948080;stop-opacity:0;"
         offset="1"
         id="stop4384" /></linearGradient><clipPath
       id="clipPath4275"
       clipPathUnits="userSpaceOnUse"><path
         inkscape:connector-curvature="0"
         id="path4277"
         d="m 63.727539,106.45411 v 26.70507 5.3418 16.02148 251.02344 h 40.578131 96.13672 100.43359 147.39648 V 258.14942 106.45411 H 189.76075 104.30567 Z"
         style="opacity:1;fill:#424242;fill-opacity:1;stroke:none;stroke-width:21.36363602;stroke-linecap:round;stroke-linejoin:round;stroke-miterlimit:4;stroke-dasharray:none;stroke-opacity:0.55" /></clipPath><linearGradient
       inkscape:collect="always"
       xlink:href="#linearGradient4386"
       id="linearGradient4388"
       x1="324.67004"
       y1="315.31784"
       x2="336.37381"
       y2="357.03873"
       gradientUnits="userSpaceOnUse" /></defs><sodipodi:namedview
     pagecolor="#ffffff"
     bordercolor="#666666"
     borderopacity="1"
     objecttolerance="10"
     gridtolerance="10"
     guidetolerance="10"
     inkscape:pageopacity="0"
     inkscape:pageshadow="2"
     inkscape:window-width="1366"
     inkscape:window-height="711"
     id="namedview4"
     showgrid="false"
     inkscape:zoom="0.4267578"
     inkscape:cx="-160.50578"
     inkscape:cy="83.636808"
     inkscape:window-x="0"
     inkscape:window-y="28"
     inkscape:window-maximized="1"
     inkscape:current-layer="Layer_1" /><g
     id="g3344"
     transform="matrix(1.0698132,0,0,1.0698132,-189.19775,344.88864)" /><g
     id="g3346"
     transform="matrix(1.0698132,0,0,1.0698132,-189.19775,344.88864)" /><g
     id="g3348"
     transform="matrix(1.0698132,0,0,1.0698132,-189.19775,344.88864)" /><g
     id="g3350"
     transform="matrix(1.0698132,0,0,1.0698132,-189.19775,344.88864)" /><g
     id="g3352"
     transform="matrix(1.0698132,0,0,1.0698132,-189.19775,344.88864)" /><g
     id="g3354"
     transform="matrix(1.0698132,0,0,1.0698132,-189.19775,344.88864)" /><g
     id="g3356"
     transform="matrix(1.0698132,0,0,1.0698132,-189.19775,344.88864)" /><g
     id="g3358"
     transform="matrix(1.0698132,0,0,1.0698132,-189.19775,344.88864)" /><g
     id="g3360"
     transform="matrix(1.0698132,0,0,1.0698132,-189.19775,344.88864)" /><g
     id="g3362"
     transform="matrix(1.0698132,0,0,1.0698132,-189.19775,344.88864)" /><g
     id="g3364"
     transform="matrix(1.0698132,0,0,1.0698132,-189.19775,344.88864)" /><g
     id="g3366"
     transform="matrix(1.0698132,0,0,1.0698132,-189.19775,344.88864)" /><g
     id="g3368"
     transform="matrix(1.0698132,0,0,1.0698132,-189.19775,344.88864)" /><g
     id="g3370"
     transform="matrix(1.0698132,0,0,1.0698132,-189.19775,344.88864)" /><g
     id="g3372"
     transform="matrix(1.0698132,0,0,1.0698132,-189.19775,344.88864)" /><g
     id="g895"><path
       style="fill:#3689e6;fill-opacity:1;stroke-width:11.10955906"
       inkscape:connector-curvature="0"
       d="m 432.91328,56.47394 c 102.1929,88.57459 105.82676,249.69974 8.1168,359.89882 C 343.32007,526.57184 181.27963,544.10061 79.086738,455.52602 -23.106204,366.95144 -26.740031,205.82628 70.969938,95.62721 168.67989,-14.57187 330.72033,-32.10064 432.91328,56.47394 Z"
       id="path27-5" /><path
       style="opacity:1;fill:#000000;fill-opacity:0.49019608;stroke-width:11.10955906"
       inkscape:connector-curvature="0"
       d="M 511.63551,224.90352 C 510.08412,286.21513 486.47428,349.05809 440.66914,400.71796 342.95912,510.91707 180.91868,528.4458 78.725756,439.87125 30.827124,398.35564 4.4968181,340.92281 0.19382614,280.22881 0.79907966,346.58545 27.117404,410.48219 79.078686,455.51902 c 102.192884,88.5746 264.241044,71.03713 361.943344,-39.15325 49.70495,-56.05814 73.00501,-125.291 70.61348,-191.46225 z"
       id="path51-6" /><path
       style="opacity:1;fill:#000000;fill-opacity:0.49019608;stroke:none;stroke-width:25.54197693;stroke-miterlimit:4;stroke-dasharray:none;stroke-dashoffset:0;stroke-opacity:1"
       d="m 195.94711,422.36573 c 12.59936,12.74358 33.00058,12.85966 45.74414,0.26028 L 422.36574,243.99592 c 12.74356,-12.59938 12.85965,-33.00058 0.26028,-45.74416 L 356.0529,130.91673 c -12.59937,-12.74358 -33.00058,-12.85965 -45.74415,-0.26028 l -33.6675,33.28656 46.29196,46.82178 c 5.39386,5.45559 5.34416,14.19061 -0.11143,19.58448 -5.45558,5.39385 -14.19061,5.34415 -19.58448,-0.11143 l -46.29197,-46.82179 -36.16782,35.75857 46.29198,46.82177 c 5.39386,5.4556 5.34415,14.19063 -0.11144,19.58448 -5.45559,5.39387 -14.19062,5.34416 -19.58448,-0.11143 l -46.29196,-46.82178 -36.97382,36.55545 46.29196,46.82177 c 5.39386,5.4556 5.34416,14.19063 -0.11144,19.58449 -5.45559,5.39386 -14.19061,5.34416 -19.58447,-0.11144 l -46.29197,-46.82177 -14.7776,14.61039 c -12.74357,12.59937 -12.85966,33.00058 -0.26028,45.74415 z"
       id="path84"
       inkscape:connector-curvature="0" /><path
       inkscape:connector-curvature="0"
       id="rect843"
       d="m 175.94711,402.36573 c 12.59936,12.74358 33.00058,12.85966 45.74414,0.26028 L 402.36574,223.99592 c 12.74356,-12.59938 12.85965,-33.00058 0.26028,-45.74416 L 336.0529,110.91673 C 323.45353,98.173158 303.05232,98.057079 290.30875,110.65645 l -33.6675,33.28656 46.29196,46.82178 c 5.39386,5.45559 5.34416,14.19061 -0.11143,19.58448 -5.45558,5.39385 -14.19061,5.34415 -19.58448,-0.11143 l -46.29197,-46.82179 -36.16782,35.75857 46.29198,46.82177 c 5.39386,5.4556 5.34415,14.19063 -0.11144,19.58448 -5.45559,5.39387 -14.19062,5.34416 -19.58448,-0.11143 l -46.29196,-46.82178 -36.97382,36.55545 46.29196,46.82177 c 5.39386,5.4556 5.34416,14.19063 -0.11144,19.58449 -5.45559,5.39386 -14.19061,5.34416 -19.58447,-0.11144 l -46.29197,-46.82177 -14.7776,14.61039 c -12.743573,12.59937 -12.859655,33.00058 -0.26028,45.74415 z"
       style="opacity:1;fill:#ffffff;fill-opacity:1;stroke:none;stroke-width:25.54197693;stroke-miterlimit:4;stroke-dasharray:none;stroke-dashoffset:0;stroke-opacity:1" /></g></svg>