<?xml version="1.0" encoding="UTF-8" standalone="no"?>
<!-- Created with Inkscape (http://www.inkscape.org/) -->

<svg
   xmlns:dc="http://purl.org/dc/elements/1.1/"
   xmlns:cc="http://creativecommons.org/ns#"
   xmlns:rdf="http://www.w3.org/1999/02/22-rdf-syntax-ns#"
   xmlns:svg="http://www.w3.org/2000/svg"
   xmlns="http://www.w3.org/2000/svg"
   xmlns:xlink="http://www.w3.org/1999/xlink"
   xmlns:sodipodi="http://sodipodi.sourceforge.net/DTD/sodipodi-0.dtd"
   xmlns:inkscape="http://www.inkscape.org/namespaces/inkscape"
   sodipodi:version="0.32"
   inkscape:version="0.92.3 (2405546, 2018-03-11)"
   width="512"
   height="512"
   viewBox="0 16 512 512"
   sodipodi:docname="scribus-ng.svg"
   id="svg2"
   version="1.1">
  <metadata
     id="metadata47">
    <rdf:RDF>
      <cc:Work
         rdf:about="">
        <dc:format>image/svg+xml</dc:format>
        <dc:type
           rdf:resource="http://purl.org/dc/dcmitype/StillImage" />
        <dc:title></dc:title>
      </cc:Work>
    </rdf:RDF>
  </metadata>
  <defs
     id="defs3">
    <linearGradient
       id="linearGradient665">
      <stop
         style="stop-color:#ffffff;stop-opacity:0.285714;"
         offset="0.00000000"
         id="stop666" />
      <stop
         style="stop-color:#daecf8;stop-opacity:1;"
         offset="1.00000000"
         id="stop667" />
    </linearGradient>
    <linearGradient
       id="linearGradient624">
      <stop
         style="stop-color:#b9e5ff;stop-opacity:0.419643;"
         offset="0.00000000"
         id="stop625" />
      <stop
         style="stop-color:#ffffff;stop-opacity:1;"
         offset="1.00000000"
         id="stop626" />
    </linearGradient>
    <linearGradient
       id="linearGradient619">
      <stop
         style="stop-color:#66b8ff;stop-opacity:1;"
         offset="0.00000000"
         id="stop620" />
      <stop
         style="stop-color:#00507a;stop-opacity:1;"
         offset="1.00000000"
         id="stop621" />
    </linearGradient>
    <linearGradient
       id="linearGradient604">
      <stop
         style="stop-color:#838383;stop-opacity:1;"
         offset="0.00000000"
         id="stop605" />
      <stop
         style="stop-color:#2c2c2c;stop-opacity:1;"
         offset="1.00000000"
         id="stop606" />
    </linearGradient>
    <linearGradient
       id="linearGradient598">
      <stop
         style="stop-color:#e1dedd;stop-opacity:0.866071;"
         offset="0.00000000"
         id="stop599" />
      <stop
         style="stop-color:#2c2c2c;stop-opacity:1;"
         offset="1.00000000"
         id="stop600" />
    </linearGradient>
    <linearGradient
       id="linearGradient593">
      <stop
         style="stop-color:#fff9db;stop-opacity:0.732143;"
         offset="0.00000000"
         id="stop594" />
      <stop
         style="stop-color:#2c2c2c;stop-opacity:1;"
         offset="1.00000000"
         id="stop595" />
    </linearGradient>
    <linearGradient
       id="linearGradient586">
      <stop
         style="stop-color:#6e6969;stop-opacity:1;"
         offset="0.00000000"
         id="stop587" />
      <stop
         style="stop-color:#2c2c2c;stop-opacity:1;"
         offset="1.00000000"
         id="stop588" />
    </linearGradient>
    <linearGradient
       id="linearGradient578">
      <stop
         style="stop-color:#fff2bc;stop-opacity:1;"
         offset="0.00000000"
         id="stop579" />
      <stop
         style="stop-color:#83560b;stop-opacity:1;"
         offset="1.00000000"
         id="stop580" />
    </linearGradient>
    <linearGradient
       xlink:href="#linearGradient578"
       id="linearGradient581"
       x1="0.43076923"
       y1="0.359375"
       x2="0.56626505"
       y2="0.46875" />
    <radialGradient
       xlink:href="#linearGradient578"
       id="radialGradient582"
       cx="0.5"
       cy="0.5"
       r="0.5"
       fx="0.5"
       fy="0.5" />
    <linearGradient
       xlink:href="#linearGradient593"
       id="linearGradient590"
       x1="0.53061223"
       y1="0.2578125"
       x2="1.0816326"
       y2="0.703125" />
    <linearGradient
       xlink:href="#linearGradient586"
       id="linearGradient592"
       x1="0.19587629"
       y1="0.4921875"
       x2="0.31958762"
       y2="0.5390625" />
    <linearGradient
       xlink:href="#linearGradient598"
       id="linearGradient597"
       x1="0.49333334"
       y1="0.2578125"
       x2="0.66666669"
       y2="0.3828125" />
    <linearGradient
       xlink:href="#linearGradient604"
       id="linearGradient603"
       x1="0.83076924"
       y1="0.375"
       x2="0.43835616"
       y2="0.109375" />
    <linearGradient
       xlink:href="#linearGradient665"
       id="linearGradient618"
       x1="0.4108527"
       y1="0.375"
       x2="0.97674412"
       y2="0.9296875" />
    <linearGradient
       xlink:href="#linearGradient624"
       id="linearGradient623"
       x1="0.47761193"
       y1="0.0546875"
       x2="0.82089549"
       y2="0.9296875" />
    <linearGradient
       xlink:href="#linearGradient619"
       id="linearGradient664"
       x1="0.085271321"
       y1="0.054687489"
       x2="0.48837212"
       y2="0.96093744" />
    <linearGradient
       inkscape:collect="always"
       xlink:href="#linearGradient619"
       id="linearGradient3024"
       x1="27.984486"
       y1="-79.004845"
       x2="332.46686"
       y2="605.53149"
       gradientUnits="userSpaceOnUse" />
  </defs>
  <sodipodi:namedview
     id="base"
     pagecolor="#ffffff"
     bordercolor="#666666"
     borderopacity="1.0"
     inkscape:pageopacity="0.0"
     inkscape:pageshadow="2"
     inkscape:zoom="0.35355339"
     inkscape:cx="-149.8795"
     inkscape:cy="369.98183"
     inkscape:window-width="1016"
     inkscape:window-height="709"
     inkscape:window-x="0"
     inkscape:window-y="28"
     showgrid="false"
     inkscape:window-maximized="0"
     inkscape:current-layer="svg2" />
  <g
     id="g906">
    <path
       style="fill:#3689e6;fill-opacity:1;stroke-width:11.10955906"
       inkscape:connector-curvature="0"
       d="m 432.91328,72.47394 c 102.1929,88.57459 105.82676,249.69974 8.1168,359.89882 C 343.32007,542.57184 181.27963,560.10061 79.086738,471.52602 -23.106204,382.95144 -26.740031,221.82628 70.969938,111.62721 168.67989,1.42813 330.72033,-16.10064 432.91328,72.47394 Z"
       id="path27-5" />
    <path
       style="opacity:1;fill:#000000;fill-opacity:0.49019608;stroke-width:11.10955906"
       inkscape:connector-curvature="0"
       d="M 511.63551,240.90352 C 510.08412,302.21513 486.47428,365.05809 440.66914,416.71796 342.95912,526.91707 180.91868,544.4458 78.725756,455.87125 30.827124,414.35564 4.496818,356.92281 0.19382607,296.22881 0.79907959,362.58545 27.117404,426.48219 79.078686,471.51902 c 102.192884,88.5746 264.241044,71.03713 361.943344,-39.15325 49.70495,-56.05814 73.00501,-125.291 70.61348,-191.46225 z"
       id="path51-6" />
    <g
       style="fill:#000000;fill-opacity:0.49019608"
       id="g896"
       transform="matrix(1.0421916,0,0,1.0421916,15.78084,5.1951448)">
      <path
         id="path892"
         transform="translate(0,16)"
         d="M 245.87305,109.21289 A 145.8735,148.39319 0 0 0 100,257.60742 145.8735,148.39319 0 0 0 245.87305,406 145.8735,148.39319 0 0 0 391.74609,257.60742 145.8735,148.39319 0 0 0 377.08203,193.03516 c -10.34208,19.57445 -20.38603,49.33562 -20.48828,92.83593 -66.59718,10.96878 -121.07907,91.74806 -119.99414,92.76172 l -3.71094,-0.18359 c 11.45788,-39.60083 40.10389,-132.11125 53.63086,-150.85547 4.32274,-8.33594 32.25918,-51.0686 49.67969,-86.30664 a 145.8735,148.39319 0 0 0 -90.32617,-32.07422 z m 90.33593,32.08399 a 145.8735,148.39319 0 0 1 40.86719,51.7246 145.8735,148.39319 0 0 0 -40.86719,-51.7246 z m -41.49609,91.14843 a 4.1112628,11.813365 30.602209 0 0 -8.36523,8.08008 4.1112628,11.813365 30.602209 0 0 -3.36328,11.38477 c -0.0856,0.15509 -0.15845,0.27264 -0.26368,0.48437 -0.37688,0.75835 -0.88669,1.88504 -1.51562,3.33985 -1.25787,2.9096 -2.99124,7.13022 -5.05664,12.28124 -4.13081,10.30209 -9.58755,24.32241 -15.20508,38.97657 -0.13745,0.35856 -0.25691,0.6876 -0.39453,1.04687 -0.35628,0.90815 -0.65127,1.58207 -1.00781,2.49414 -10.84443,27.74114 -21.65791,56.89125 -24.85157,67.19336 -0.006,0.0183 -0.0311,0.0873 -0.0371,0.10547 -4.4e-4,0.001 -0.002,0.006 -0.002,0.008 l 0.78516,0.25 c 4.2e-4,-0.001 0.002,-0.007 0.002,-0.008 3.12618,-9.5257 14.7682,-40.7395 25.875,-69.73437 5.07257,-12.92987 10.1543,-25.62433 14.33203,-35.50977 2.23514,-5.28882 4.22954,-9.84255 5.86133,-13.33398 1.38419,-2.96167 2.49894,-5.11187 3.26367,-6.32032 a 4.1112628,11.813365 30.602209 0 0 8.41992,-8.08007 4.1112628,11.813365 30.602209 0 0 2.66016,-12.41602 4.1112628,11.813365 30.602209 0 0 -1.13672,-0.24219 z m -11.24414,20.29688 a 4.1112628,11.813365 30.602209 0 0 0.21875,0.19726 4.1112628,11.813365 30.602209 0 0 0.23047,0.12305 c -0.80141,1.2745 -1.82426,3.23958 -3.1582,6.09375 -0.31868,0.68185 -0.79768,1.83856 -1.14258,2.59766 0.77355,-1.87535 1.76236,-4.34853 2.34375,-5.69336 0.62605,-1.44814 1.13426,-2.56684 1.49804,-3.29883 0.004,-0.009 0.005,-0.0108 0.01,-0.0195 z"
         style="font-size:12px;fill:#000000;fill-opacity:0.49019608;fill-rule:evenodd;stroke:none;stroke-width:0.39764312"
         inkscape:connector-curvature="0" />
      <path
         id="path894"
         transform="translate(0,16)"
         d="m 356.38086,118.61523 c -15.27813,0.0512 -12.14659,8.62063 -14.73047,11.13282 -1.63993,3.70337 -3.49758,7.58734 -5.45117,11.53906 0,0 13.7327,11.06717 23.01172,22.46289 9.27901,11.39573 17.86523,29.27148 17.86523,29.27148 l -0.002,0.0254 c 10.36186,-19.61634 21.02643,-29.00558 22.29492,-31.73438 -5.35101,-28.92748 -21.06192,-39.85291 -35.24219,-42.1543 -3.0043,-0.38288 -5.5635,-0.55028 -7.74609,-0.54297 z"
         style="font-size:12px;fill:#000000;fill-opacity:0.49019608;fill-rule:evenodd;stroke:none;stroke-width:0.693349"
         inkscape:connector-curvature="0" />
    </g>
    <g
       transform="matrix(1.0421916,0,0,1.0421916,-4.219159,-14.804855)"
       id="g890">
      <path
         inkscape:connector-curvature="0"
         style="font-size:12px;fill:#ffffff;fill-opacity:1;fill-rule:evenodd;stroke:none;stroke-width:0.39764312"
         d="M 245.87305,109.21289 A 145.8735,148.39319 0 0 0 100,257.60742 145.8735,148.39319 0 0 0 245.87305,406 145.8735,148.39319 0 0 0 391.74609,257.60742 145.8735,148.39319 0 0 0 377.08203,193.03516 c -10.34208,19.57445 -20.38603,49.33562 -20.48828,92.83593 -66.59718,10.96878 -121.07907,91.74806 -119.99414,92.76172 l -3.71094,-0.18359 c 11.45788,-39.60083 40.10389,-132.11125 53.63086,-150.85547 4.32274,-8.33594 32.25918,-51.0686 49.67969,-86.30664 a 145.8735,148.39319 0 0 0 -90.32617,-32.07422 z m 90.33593,32.08399 a 145.8735,148.39319 0 0 1 40.86719,51.7246 145.8735,148.39319 0 0 0 -40.86719,-51.7246 z m -41.49609,91.14843 a 4.1112628,11.813365 30.602209 0 0 -8.36523,8.08008 4.1112628,11.813365 30.602209 0 0 -3.36328,11.38477 c -0.0856,0.15509 -0.15845,0.27264 -0.26368,0.48437 -0.37688,0.75835 -0.88669,1.88504 -1.51562,3.33985 -1.25787,2.9096 -2.99124,7.13022 -5.05664,12.28124 -4.13081,10.30209 -9.58755,24.32241 -15.20508,38.97657 -0.13745,0.35856 -0.25691,0.6876 -0.39453,1.04687 -0.35628,0.90815 -0.65127,1.58207 -1.00781,2.49414 -10.84443,27.74114 -21.65791,56.89125 -24.85157,67.19336 -0.006,0.0183 -0.0311,0.0873 -0.0371,0.10547 -4.4e-4,0.001 -0.002,0.006 -0.002,0.008 l 0.78516,0.25 c 4.2e-4,-0.001 0.002,-0.007 0.002,-0.008 3.12618,-9.5257 14.7682,-40.7395 25.875,-69.73437 5.07257,-12.92987 10.1543,-25.62433 14.33203,-35.50977 2.23514,-5.28882 4.22954,-9.84255 5.86133,-13.33398 1.38419,-2.96167 2.49894,-5.11187 3.26367,-6.32032 a 4.1112628,11.813365 30.602209 0 0 8.41992,-8.08007 4.1112628,11.813365 30.602209 0 0 2.66016,-12.41602 4.1112628,11.813365 30.602209 0 0 -1.13672,-0.24219 z m -11.24414,20.29688 a 4.1112628,11.813365 30.602209 0 0 0.21875,0.19726 4.1112628,11.813365 30.602209 0 0 0.23047,0.12305 c -0.80141,1.2745 -1.82426,3.23958 -3.1582,6.09375 -0.31868,0.68185 -0.79768,1.83856 -1.14258,2.59766 0.77355,-1.87535 1.76236,-4.34853 2.34375,-5.69336 0.62605,-1.44814 1.13426,-2.56684 1.49804,-3.29883 0.004,-0.009 0.005,-0.0108 0.01,-0.0195 z"
         transform="translate(0,16)"
         id="path869" />
      <path
         inkscape:connector-curvature="0"
         style="font-size:12px;fill:#ffffff;fill-rule:evenodd;stroke:none;stroke-width:0.693349"
         d="m 356.38086,118.61523 c -15.27813,0.0512 -12.14659,8.62063 -14.73047,11.13282 -1.63993,3.70337 -3.49758,7.58734 -5.45117,11.53906 0,0 13.7327,11.06717 23.01172,22.46289 9.27901,11.39573 17.86523,29.27148 17.86523,29.27148 l -0.002,0.0254 c 10.36186,-19.61634 21.02643,-29.00558 22.29492,-31.73438 -5.35101,-28.92748 -21.06192,-39.85291 -35.24219,-42.1543 -3.0043,-0.38288 -5.5635,-0.55028 -7.74609,-0.54297 z"
         transform="translate(0,16)"
         id="hrot" />
    </g>
  </g>
</svg>
