<?xml version="1.0" encoding="UTF-8" standalone="no"?>
<!-- Generator: Adobe Illustrator 19.0.0, SVG Export Plug-In . SVG Version: 6.00 Build 0)  -->

<svg
   xmlns:dc="http://purl.org/dc/elements/1.1/"
   xmlns:cc="http://creativecommons.org/ns#"
   xmlns:rdf="http://www.w3.org/1999/02/22-rdf-syntax-ns#"
   xmlns:svg="http://www.w3.org/2000/svg"
   xmlns="http://www.w3.org/2000/svg"
   xmlns:sodipodi="http://sodipodi.sourceforge.net/DTD/sodipodi-0.dtd"
   xmlns:inkscape="http://www.inkscape.org/namespaces/inkscape"
   version="1.1"
   id="Layer_1"
   x="0px"
   y="0px"
   viewBox="0 0 512 512"
   xml:space="preserve"
   inkscape:version="0.92.3 (2405546, 2018-03-11)"
   width="512"
   height="512"
   sodipodi:docname="scummvm.svg"><metadata
     id="metadata57"><rdf:RDF><cc:Work
         rdf:about=""><dc:format>image/svg+xml</dc:format><dc:type
           rdf:resource="http://purl.org/dc/dcmitype/StillImage" /><dc:title></dc:title></cc:Work></rdf:RDF></metadata><defs
     id="defs55" /><sodipodi:namedview
     pagecolor="#ffffff"
     bordercolor="#666666"
     borderopacity="1"
     objecttolerance="10"
     gridtolerance="10"
     guidetolerance="10"
     inkscape:pageopacity="0"
     inkscape:pageshadow="2"
     inkscape:window-width="1366"
     inkscape:window-height="711"
     id="namedview53"
     showgrid="false"
     inkscape:zoom="0.37165185"
     inkscape:cx="-12.833014"
     inkscape:cy="70.791838"
     inkscape:window-x="0"
     inkscape:window-y="28"
     inkscape:window-maximized="1"
     inkscape:current-layer="Layer_1"
     units="px" /><g
     id="g23"
     transform="translate(0,550.767)" /><g
     id="g25"
     transform="translate(0,550.767)" /><g
     id="g27"
     transform="translate(0,550.767)" /><g
     id="g29"
     transform="translate(0,550.767)" /><g
     id="g31"
     transform="translate(0,550.767)" /><g
     id="g33"
     transform="translate(0,550.767)" /><g
     id="g35"
     transform="translate(0,550.767)" /><g
     id="g37"
     transform="translate(0,550.767)" /><g
     id="g39"
     transform="translate(0,550.767)" /><g
     id="g41"
     transform="translate(0,550.767)" /><g
     id="g43"
     transform="translate(0,550.767)" /><g
     id="g45"
     transform="translate(0,550.767)" /><g
     id="g47"
     transform="translate(0,550.767)" /><g
     id="g49"
     transform="translate(0,550.767)" /><g
     id="g51"
     transform="translate(0,550.767)" /><g
     id="g989"
     transform="matrix(0.46282129,0,0,0.46282129,38.534715,39.035481)"
     style="fill:#000000;fill-opacity:0.49019608;stroke:none;image-rendering:optimizeSpeed" /><g
     id="g996"
     transform="matrix(0.46282129,0,0,0.46282129,38.534715,39.035481)"
     style="fill:#000000;fill-opacity:0.49019608;stroke:none;image-rendering:optimizeSpeed"><g
       id="g994"
       style="fill:#000000;fill-opacity:0.49019608;stroke:none" /></g><g
     id="g965"><path
       style="fill:#68b723;fill-opacity:1;stroke-width:11.10955811;image-rendering:optimizeSpeed"
       inkscape:connector-curvature="0"
       d="m 432.91327,56.47398 c 102.19291,88.57459 105.82678,249.69971 8.1168,359.89879 C 343.3201,526.57182 181.27964,544.10062 79.086727,455.52603 -23.106185,366.95144 -26.740041,205.82632 70.969927,95.62724 168.6799,-14.57184 330.72036,-32.10061 432.91327,56.47398 Z"
       id="path27" /><path
       style="opacity:1;fill:#000000;fill-opacity:0.49019608;stroke-width:11.10955811;image-rendering:optimizeSpeed"
       inkscape:connector-curvature="0"
       d="M 511.63551,224.90353 C 510.08412,286.21518 486.47428,349.05814 440.66913,400.718 342.95915,510.91712 180.91869,528.44582 78.725777,439.8713 30.827125,398.35565 4.4968204,340.92285 0.19382652,280.22882 0.79907852,346.58549 27.117413,410.48218 79.078687,455.51908 181.27159,544.09362 343.31975,526.55622 441.02202,416.36578 490.72697,360.30767 514.02704,291.07481 511.63551,224.90353 Z"
       id="path51" /><path
       style="fill:#000000;stroke-width:0.65005577;fill-opacity:0.49019608"
       d="m 422.90872,200.45571 c -5.24022,3.98104 -6.55348,4.61045 -9.18915,4.40418 -3.0935,-0.24212 -3.62201,-0.70529 -10.28028,-9.00973 -3.24931,-4.05265 -6.37858,-7.99718 -6.95395,-8.7656 -0.71067,-0.94919 -1.05214,-1.23834 -1.06496,-0.90182 -0.0104,0.27245 1.36885,6.27229 3.06496,13.33303 3.31209,13.7878 3.42676,14.95195 1.74706,17.73703 -0.94228,1.56238 -6.99278,6.45872 -9.42248,7.62511 -1.60472,0.77033 -4.33036,0.92428 -6.00596,0.33921 -0.54789,-0.19131 -6.10419,-3.33704 -12.34733,-6.99048 -6.24314,-3.65346 -11.45094,-6.64538 -11.5729,-6.64872 -0.36035,-0.01 0.33804,1.02134 6.65694,9.82952 3.30995,4.61389 6.29188,9.02924 6.6265,9.8119 0.33462,0.78265 0.54467,2.23748 0.46676,3.23295 -0.22811,2.91466 -0.97247,3.84008 -6.85341,8.52065 -6.65428,5.29605 -8.08708,5.83865 -11.68763,4.4261 l -1.69768,-0.66603 0.70149,1.03177 c 0.95793,1.40895 1.35626,3.58786 0.89674,4.90543 -0.20964,0.60115 -2.05828,3.42128 -4.10806,6.26698 -4.01792,5.57805 -4.85408,6.33785 -7.21276,6.55418 -0.61544,0.0562 -4.4332,-0.8362 -8.48395,-1.98366 -7.05882,-1.99957 -8.09558,-2.08553 -6.66514,-0.55263 1.17731,1.2616 2.65063,4.93986 2.69207,6.72089 0.0799,3.43333 -1.05856,4.71139 -9.02382,10.13023 l -2.94885,2.00611 -0.90367,2.40458 -0.90369,2.40458 -5.20045,4.68891 c -4.51132,4.06754 -5.4419,4.7837 -7.02228,5.40423 -1.73876,0.68272 -1.88694,0.80939 -3.25006,2.77863 -1.94534,2.81029 -8.16605,8.69236 -10.41755,9.85045 -1.48789,0.7653 -1.76819,1.03007 -2.5596,2.41778 -1.11791,1.96021 -3.64509,4.37557 -6.30097,6.0222 -4.44162,2.75378 -5.28138,3.56219 -6.57438,6.32923 -0.78377,1.67725 -1.81317,3.22961 -3.04852,4.59726 -2.39144,2.64753 -7.05566,6.29268 -9.6593,7.54887 -1.93744,0.93478 -2.10951,1.08901 -3.74544,3.35726 -1.3191,1.82893 -2.74734,3.29919 -6.19021,6.3723 -3.95336,3.52879 -4.60344,4.22492 -5.57237,5.967 -1.4228,2.55812 -7.76113,8.80366 -10.85164,10.69279 -1.8444,1.12742 -2.21149,1.49418 -3.97513,3.97149 -1.70234,2.39128 -2.25507,2.9548 -4.46171,4.54896 -1.38524,1.00072 -3.39701,2.21876 -4.47057,2.70672 -2.47865,1.12661 -6.89906,2.01036 -10.20056,2.03928 l -2.56422,0.0225 -0.35424,2.36256 c -0.98256,6.55311 -2.11538,9.20627 -5.67633,13.29448 -5.34619,6.13776 -12.64765,9.87607 -19.32894,9.89626 -1.73947,0.007 -3.34345,0.18074 -3.5644,0.38989 -0.22095,0.20916 -0.5193,1.85343 -0.663,3.65395 -0.86972,10.89762 -9.67391,21.37404 -21.04525,25.04258 -7.20803,2.32537 -15.19016,1.74237 -18.10526,-1.32252 -1.91831,-2.01683 -2.43994,-4.02125 -2.6953,-10.35703 -0.0921,-2.28408 -0.36196,-3.96471 -0.69285,-4.31425 -0.29814,-0.31495 -1.58681,-0.74779 -2.86374,-0.96194 -5.94014,-0.99594 -11.32082,-4.76276 -14.71974,-10.3048 -3.92607,-6.40155 -3.48752,-14.4968 1.17573,-21.70309 2.07618,-3.2084 7.16545,-7.92138 10.49352,-9.71766 4.89093,-2.6398 10.87623,-4.35636 15.52582,-4.45283 3.55413,-0.0738 5.40251,0.70911 7.80221,3.30436 1.91948,2.07584 1.92483,2.07888 2.29845,1.30448 0.20597,-0.42693 0.66498,-1.91621 1.02004,-3.30959 0.80668,-3.16555 1.62537,-4.8031 3.91096,-7.82267 4.6045,-6.08312 11.43711,-10.57525 16.98272,-11.16535 1.02936,-0.10949 2.05624,-0.37395 2.28192,-0.5876 0.2257,-0.21365 0.47423,-1.32476 0.55228,-2.46914 0.22441,-3.28995 0.70619,-4.06407 5.56063,-8.93486 3.99912,-4.01256 4.47726,-4.40422 6.83975,-5.60251 l 2.54006,-1.28832 0.72309,-2.22999 c 0.93864,-2.8947 3.08012,-5.55628 8.036,-9.98764 3.70277,-3.31086 3.82368,-3.38992 5.98781,-3.91561 2.13276,-0.51808 2.25029,-0.59309 3.41661,-2.18057 0.66433,-0.90422 2.60412,-3.00635 4.31066,-4.6714 2.44291,-2.38353 3.5023,-3.21723 4.9814,-3.92012 1.70378,-0.80968 2.04474,-1.10749 3.6636,-3.19988 1.67178,-2.16078 1.94647,-2.39198 4.33046,-3.64501 3.28584,-1.72701 4.62121,-2.98178 5.80806,-5.45743 0.68232,-1.42328 1.6633,-2.73998 3.36466,-4.51612 3.48705,-3.6403 6.35779,-5.29777 11.32468,-6.53847 1.29414,-0.32327 1.45359,-0.44798 1.78398,-1.39528 0.19954,-0.57216 0.34884,-1.50846 0.33179,-2.08067 -0.0494,-1.65782 0.74817,-3.03635 3.65787,-6.32222 2.94504,-3.32575 4.64066,-4.74712 7.83145,-6.56467 1.7985,-1.02449 2.23359,-1.42032 3.52871,-3.2104 1.37802,-1.90468 1.66147,-2.1435 4.21991,-3.55558 4.11,-2.26844 4.24532,-2.38128 4.99041,-4.16171 0.37707,-0.90102 1.17406,-2.24112 1.7711,-2.97802 0.59704,-0.7369 1.05141,-1.37586 1.00973,-1.4199 -0.0417,-0.0441 -5.72229,-1.67591 -12.62356,-3.62638 -12.34698,-3.48955 -12.56941,-3.56916 -13.90135,-4.97546 -1.49688,-1.58029 -1.85353,-2.8974 -1.37673,-5.08303 0.3644,-1.67044 11.23188,-17.29389 12.67755,-18.22571 2.45773,-1.58413 1.3855,-1.85368 37.43209,9.41047 2.25874,0.70583 4.10905,1.2017 4.11178,1.10193 0.003,-0.0998 -5.0389,-7.21576 -11.20363,-15.81329 -12.46849,-17.38897 -12.54934,-17.53036 -11.58691,-20.26574 0.79627,-2.26315 10.26473,-15.51798 11.69019,-16.365 1.47779,-0.87813 3.35682,-1.09587 4.61332,-0.53456 1.15213,0.51467 1.52255,0.31458 1.73127,-0.93519 0.3251,-1.94658 1.37382,-3.04057 7.41405,-7.73413 6.48995,-5.04301 7.73546,-5.81466 9.74894,-6.03988 3.16834,-0.35443 3.05994,-0.4111 25.32786,13.24387 11.60412,7.1158 21.40046,13.07308 21.76964,13.2384 0.79091,0.35419 1.48179,3.24251 -6.37552,-26.65334 -3.17802,-12.09198 -5.82286,-22.71927 -5.87738,-23.6162 -0.13566,-2.23218 0.82715,-4.54941 2.57955,-6.20826 0.77394,-0.73262 3.58026,-3.04788 6.2363,-5.14503 4.11288,-3.24745 5.08692,-3.88212 6.56715,-4.27909 1.93769,-0.51963 4.49477,-0.0678 6.06659,1.07187 1.15651,0.83858 50.32144,62.78914 51.43936,64.81646 0.93818,1.70134 1.09253,4.29168 0.36261,6.08531 -0.72525,1.78218 -2.31355,3.26644 -8.63208,8.06669 z m 3.42172,-10.94475 c -0.14845,-0.73971 -4.58949,-6.69032 -6.47354,-8.67398 -0.34993,-0.36965 -0.65656,-0.21409 -1.89831,0.96137 -1.40746,1.33232 -1.46059,1.45319 -1.07818,2.45308 0.34169,0.89341 0.26525,1.18244 -0.50793,1.92055 -1.51707,1.44825 -1.45432,1.67227 1.47768,5.2772 1.46991,1.8073 2.7738,3.28877 2.89753,3.29217 0.27912,0.008 3.48642,-2.31399 4.79515,-3.47105 0.74419,-0.65797 0.92677,-1.06583 0.7876,-1.75934 z m -7.36636,4.82442 c -0.54521,-0.73132 -1.91178,-2.44751 -3.03685,-3.81371 -2.25107,-2.73365 -2.21933,-2.36166 -0.40435,-4.72688 0.54338,-0.70812 0.67887,-1.26462 0.46189,-1.89717 -0.2815,-0.82063 -0.16974,-1.0251 1.34311,-2.45718 1.09138,-1.03312 1.58794,-1.70527 1.46636,-1.98492 -0.17098,-0.39329 -26.37277,-33.65273 -27.20045,-34.52709 -0.32499,-0.34331 -0.79213,0.0163 -3.49576,2.69141 l -3.1206,3.08765 2.60455,4.93545 2.60458,4.93542 5.6583,5.98396 5.65828,5.98397 -2.72412,2.57869 -2.72415,2.57872 4.6256,5.76782 c 11.17142,13.93003 12.45947,15.4949 13.00038,15.79424 0.80464,0.44533 1.16344,0.24289 5.95223,-3.35837 0.18527,-0.13932 -0.0993,-0.80827 -0.66883,-1.57216 z m -23.25276,19.50184 c 0.12842,-0.38572 -0.14277,-2.33138 -0.60266,-4.3237 -0.75919,-3.28898 -7.99782,-33.7206 -10.19008,-42.83974 -0.49773,-2.07044 -0.83206,-3.76243 -0.74293,-3.75998 0.0891,0.002 2.46149,2.90325 5.27192,6.44622 2.81044,3.54299 5.37548,6.72237 5.7001,7.06528 0.5866,0.61969 0.60481,0.60967 2.98254,-1.64113 l 2.39236,-2.26464 -5.50039,-5.81057 -5.50037,-5.81058 -2.04322,-3.87976 c -1.12379,-2.13385 -2.36938,-4.47818 -2.76801,-5.20959 l -0.72476,-1.32983 3.38852,-3.34037 3.38851,-3.34038 -7.19915,-9.08037 c -6.32593,-7.97899 -7.28633,-9.08278 -7.91799,-9.10008 -0.46625,-0.0128 -1.80817,0.82609 -3.81878,2.38725 -1.70496,1.32384 -3.09605,2.48081 -3.09134,2.57109 0.005,0.0903 1.31513,2.95609 2.91197,6.36853 l 2.90332,6.20445 -3.6074,3.41481 -3.60741,3.41481 1.23005,4.68478 c 0.67653,2.57661 3.48006,13.19075 6.23005,23.587 2.75,10.39624 5.02128,19.1598 5.04726,19.47459 0.0259,0.31479 -0.1163,0.55694 -0.31625,0.53811 -0.19995,-0.0188 -3.68924,-2.09505 -7.75399,-4.61382 l -7.39046,-4.57961 -2.7088,2.56084 -2.7088,2.56083 6.5555,6.92522 6.5555,6.92521 -0.96534,0.91379 c -0.53094,0.5026 -0.96862,1.0339 -0.97266,1.18069 -0.006,0.22744 5.63783,3.62268 14.55434,8.75534 1.56692,0.90197 2.5333,1.2397 3.12184,1.09106 0.46885,-0.11842 2.05309,-1.10329 3.52056,-2.1886 3.53106,-2.61149 4.09964,-3.12559 4.3765,-3.9571 z m -48.25812,41.67586 c 1.73758,-2.43045 2.43626,-3.68527 2.45617,-4.4112 0.0228,-0.83301 -0.96168,-2.49825 -5.50289,-9.30752 -3.04189,-4.56115 -5.67166,-8.44254 -5.84393,-8.62531 -0.1767,-0.18767 -0.42034,0.51092 -0.55913,1.6036 -0.21512,1.6936 -0.41769,2.09854 -1.61835,3.23511 -1.13733,1.0766 -1.42747,1.60374 -1.6936,3.07693 l -0.32115,1.77775 1.71627,1.81306 1.71627,1.81307 -2.18039,4.38007 c -1.1992,2.40905 -2.34384,4.71321 -2.54364,5.12036 -0.3516,0.71651 -0.19782,0.78643 4.79048,2.17817 4.37068,1.21944 6.42285,1.47184 7.03261,0.86494 0.0676,-0.0673 1.21569,-1.65086 2.55128,-3.51903 z m 21.58776,-21.55951 c -0.0196,-0.86907 -5.53901,-9.0873 -6.37039,-9.48522 -0.32065,-0.15348 -2.06091,0.98476 -5.95651,3.89592 -3.02695,2.26201 -5.50316,4.18669 -5.50273,4.27706 0.001,0.30187 5.46819,8.06359 6.29312,8.93503 0.44732,0.47255 1.09088,0.84105 1.43013,0.81888 0.33925,-0.0222 2.39239,-1.42824 4.56253,-3.12461 5.40446,-4.22459 5.56497,-4.37852 5.54385,-5.31706 z M 230.40044,361.30323 c 0.49842,-0.9696 1.09177,-2.63264 1.31855,-3.69568 0.45937,-2.15344 0.87945,-2.31215 2.26977,-0.8575 0.55481,0.58048 0.94425,0.70988 1.42962,0.47503 0.3669,-0.17752 2.51236,-2.22375 4.76772,-4.54718 l 4.10062,-4.22441 -1.33181,-1.41863 c -2.18527,-2.32773 -22.18203,-21.90419 -24.79887,-24.27761 -1.79062,-1.62406 -2.58745,-2.16223 -3.06066,-2.06712 -0.42026,0.0844 -2.11346,1.67053 -4.93493,4.62274 l -4.29516,4.49414 1.71562,1.71834 c 0.94358,0.94509 4.49583,4.45822 7.8939,7.80694 6.57807,6.48259 7.59439,7.71651 7.79986,9.46989 0.26122,2.22888 -0.16398,3.35607 -1.87786,4.97845 -2.81721,2.66682 -5.17985,2.34426 -8.49853,-1.16026 -2.16975,-2.29112 -7.23252,-8.78236 -9.97451,-12.78852 -0.96381,-1.40818 -1.96551,-2.66235 -2.22599,-2.78702 -0.65104,-0.31162 -10.20129,8.65517 -10.13896,9.51953 0.0222,0.3073 1.469,2.42927 3.2152,4.71551 9.919,12.98656 14.17111,16.89372 19.77477,18.17065 2.60398,0.59341 4.28598,0.54067 6.84559,-0.21455 3.77053,-1.11242 8.37761,-4.76492 10.00606,-7.93274 z m 41.34486,-39.07545 c 0.0484,-0.26696 -2.74174,-3.40078 -7.55153,-8.48183 -6.83187,-7.21717 -7.69841,-8.22931 -8.30062,-9.6954 -0.75015,-1.8262 -0.6145,-2.63585 0.64065,-3.824 1.91455,-1.81233 4.88191,-0.26536 8.34819,4.35214 1.13342,1.50986 3.49682,4.98604 5.25201,7.72487 1.99344,3.1106 3.36218,4.9815 3.64667,4.98451 0.53903,0.006 10.71571,-7.45159 10.72692,-7.8605 0.0274,-1.00201 -7.08059,-10.70656 -10.43328,-14.24444 -5.79684,-6.11699 -10.75263,-8.97419 -15.42388,-8.89237 -3.80527,0.0667 -5.81204,1.01337 -9.51305,4.4879 -3.41742,3.20835 -4.21091,4.61168 -4.67546,8.269 l -0.24543,1.93221 -2.32201,0.0596 c -4.68289,0.12024 -7.99171,3.42492 -8.57676,8.56606 -0.18844,1.65596 -0.72554,1.75651 -2.03965,0.38183 -1.25783,-1.31579 -1.68061,-1.09477 -5.89212,3.08046 -2.10382,2.08571 -3.80671,3.98792 -3.80246,4.24754 0.005,0.28073 5.16101,5.78893 12.79707,13.6701 l 12.78938,13.19991 4.47902,-4.10995 c 3.31471,-3.04157 4.51389,-4.30084 4.61315,-4.84434 0.12054,-0.66012 -0.64388,-1.59389 -7.55836,-9.23291 -6.84453,-7.56176 -7.71474,-8.62247 -7.89465,-9.62286 -0.17443,-0.96989 -0.0507,-1.24773 0.90069,-2.02286 2.36907,-1.93015 4.07862,-0.75446 13.14807,9.04222 4.39667,4.74921 6.93656,7.30805 7.26297,7.31717 0.28729,0.008 2.2535,-1.58196 4.59769,-3.71798 2.25266,-2.05261 4.28796,-3.86941 4.52291,-4.03734 0.23494,-0.16795 0.46169,-0.49589 0.50387,-0.72875 z m 41.83482,-39.6014 c 0.0768,-0.3211 -1.95299,-2.61254 -6.95557,-7.85225 -7.46001,-7.81363 -9.02137,-9.83988 -9.21582,-11.95991 -0.12132,-1.31724 0.57626,-2.3444 1.93919,-2.85735 2.79346,-1.05131 6.97211,3.25401 13.36114,13.76614 1.9115,3.14506 2.38225,3.74812 2.93157,3.75556 0.7241,0.01 10.90776,-7.34588 10.92267,-7.88946 0.005,-0.18064 -1.12898,-1.94472 -2.51986,-3.92018 -9.80498,-13.92607 -17.92991,-20.1454 -24.89292,-19.05463 -2.78263,0.43592 -4.87243,1.52078 -7.77983,4.03868 -2.981,2.58166 -4.41266,4.85669 -4.80805,7.64044 -0.47746,3.36142 -0.4137,3.24716 -1.6807,3.01234 -0.62904,-0.11658 -1.9653,-0.0226 -2.96948,0.20887 -1.55747,0.35898 -2.10249,0.6844 -3.70893,2.21452 -2.05981,1.96197 -2.89006,3.69685 -2.87386,6.00526 0.0117,1.63892 -0.48387,2.04908 -1.35867,1.12494 -0.38478,-0.4065 -1.0853,-0.92515 -1.55669,-1.15255 l -0.85706,-0.41348 -3.3292,3.17896 c -1.83105,1.74843 -3.69845,3.67805 -4.14977,4.28802 l -0.82059,1.10905 12.44687,13.02565 c 7.3563,7.69837 12.72011,13.11663 13.11498,13.24811 0.60276,0.20069 1.09671,-0.18324 5.04824,-3.92381 3.43363,-3.25032 4.3842,-4.29564 4.39906,-4.83753 0.0152,-0.55186 -1.51371,-2.38072 -7.58032,-9.06793 -4.83952,-5.33458 -7.71133,-8.70331 -7.90782,-9.27612 -0.34034,-0.9921 0.44615,-2.60023 1.5131,-3.09385 0.36527,-0.16898 1.3113,-0.0776 2.1023,0.20321 1.33644,0.47437 1.99453,1.08749 9.30157,8.66588 5.9952,6.21784 7.99919,8.14651 8.43504,8.11803 0.33372,-0.0218 2.32364,-1.63576 4.7808,-3.8775 2.31501,-2.11207 4.28812,-3.87018 4.38466,-3.90691 0.0965,-0.0368 0.2243,-0.27082 0.28394,-0.5202 z M 174.47057,412.57662 c 2.53825,-4.64127 3.04967,-9.04147 1.56983,-13.50699 -0.66197,-1.99749 -0.9334,-2.38685 -3.7068,-5.31663 -2.97285,-3.14051 -3.01031,-3.16786 -5.70024,-4.1537 -4.9353,-1.80891 -9.11313,-1.65171 -17.63333,0.66331 -6.4235,1.74533 -8.71449,1.47415 -9.09202,-1.07617 -0.13476,-0.91033 -0.008,-1.09525 1.71708,-2.50927 1.47713,-1.2106 2.50499,-1.72373 4.96712,-2.47973 1.70751,-0.52433 3.99198,-1.04776 5.0766,-1.16314 1.08463,-0.11539 2.18606,-0.4124 2.44763,-0.66 0.32382,-0.30656 0.24929,-1.67197 -0.23359,-4.27895 -0.39005,-2.10577 -0.80113,-4.0514 -0.91352,-4.32359 -0.38942,-0.94312 -7.62738,-0.22069 -11.50985,1.14887 -2.61047,0.92087 -7.0001,3.63162 -9.09269,5.61505 -3.51557,3.3322 -6.05301,8.22536 -6.32374,12.1944 -0.41572,6.09487 3.94646,12.30279 10.11348,14.39272 3.86499,1.30987 8.3366,1.12901 16.54137,-0.6688 6.75341,-1.47986 9.20473,-1.20834 9.94451,1.10146 0.98063,3.06174 -5.66421,6.98039 -12.83174,7.56721 -1.49473,0.1224 -2.79714,0.40311 -2.89422,0.62393 -0.16747,0.38088 -0.0434,2.20141 0.47837,7.02007 0.1272,1.17474 0.38907,2.3026 0.58194,2.50628 0.68956,0.72846 8.30279,0.60136 11.04623,-0.18436 4.64128,-1.32933 6.63519,-2.5776 10.94312,-6.85072 2.51987,-2.4995 3.33689,-3.52632 4.50446,-5.66125 z m 29.44869,-27.74145 c 2.10713,-3.97071 2.49366,-8.4903 1.10042,-12.86756 -0.87851,-2.76006 -1.97223,-4.4405 -2.84625,-4.37301 -0.66775,0.0514 -7.40154,3.51112 -8.07507,4.1487 -0.23433,0.22182 -0.28597,1.113 -0.11475,1.98048 0.84257,4.2686 -1.56554,8.0711 -5.32998,8.41642 -2.86451,0.26271 -6.37286,-1.79003 -8.24794,-4.82587 -3.24474,-5.25351 1.15599,-11.53535 7.03798,-10.04645 1.11743,0.28284 1.97876,0.27872 2.29641,-0.009 0.27956,-0.25502 1.62848,-2.20308 2.99763,-4.32896 l 2.48933,-3.86525 -1.00575,-0.81247 c -1.6612,-1.34192 -5.76118,-2.64588 -8.70037,-2.76705 -4.76149,-0.1963 -8.61168,1.4158 -12.76008,5.34273 -5.23328,4.95389 -7.29897,10.20129 -6.34179,16.10994 0.54347,3.35477 1.65239,5.80975 4.07104,9.0126 4.7198,6.25013 10.55543,9.50082 16.95309,9.4436 3.50815,-0.0314 6.54685,-1.1739 10.95344,-4.11849 1.46464,-0.97867 4.50849,-4.52723 5.52265,-6.43827 z M 336.53595,246.78952 c 0.0778,-0.31999 -0.4627,-1.11929 -1.49227,-2.20694 l -1.61419,-1.70522 0.35587,-1.85026 c 0.29639,-1.54095 0.58728,-2.06931 1.74009,-3.16058 1.24032,-1.17411 1.42093,-1.5515 1.73743,-3.63063 0.19427,-1.27617 0.36312,-2.37579 0.37521,-2.44362 0.0306,-0.17116 -5.50234,-8.42955 -6.01289,-8.97487 -0.35578,-0.37987 -0.66565,-0.20547 -2.17752,1.2257 l -1.76278,1.66866 -3.89176,-4.11122 c -3.84296,-4.05971 -3.89087,-4.12611 -3.82203,-5.29863 0.0533,-0.90842 -0.17041,-1.44104 -0.9522,-2.26692 l -1.02189,-1.07951 2.13327,-2.15735 2.13328,-2.15734 -8.79195,-13.16407 c -4.83558,-7.24025 -9.17475,-13.58447 -9.64263,-14.09828 -0.5486,-0.6025 -1.03167,-0.85948 -1.36039,-0.72376 -0.28035,0.11576 -1.47529,1.57724 -2.65542,3.24775 l -2.14571,3.03727 1.47812,1.56148 c 1.17537,1.24165 1.46333,1.75247 1.40592,2.49404 -0.0503,0.6499 0.23057,1.25237 0.92665,1.98771 0.69608,0.73535 0.97693,1.33782 0.92663,1.98772 -0.0647,0.83594 0.23057,1.25238 2.84945,4.01897 l 2.92164,3.0864 -0.15766,1.38539 c -0.13779,1.21087 -0.387,1.6025 -1.9783,3.10885 l -1.82065,1.72344 10.32845,14.41626 c 5.68065,7.92895 10.25022,14.55928 10.1546,14.73407 -0.0956,0.17479 -2.89451,-0.5424 -6.21975,-1.59377 -3.32525,-1.05137 -6.09776,-1.86247 -6.16115,-1.80248 -0.0992,0.0939 -0.98562,7.15099 -1.12811,8.98156 -0.0421,0.54045 0.34966,0.93088 2.53976,2.53129 1.42422,1.04076 4.06156,3.33766 5.86076,5.10421 l 3.27126,3.21195 4.04991,1.19624 c 2.22745,0.65794 4.26732,1.22966 4.53304,1.27049 0.34031,0.0523 1.14588,-1.275 2.72457,-4.48902 1.23277,-2.5098 2.29628,-4.78903 2.36334,-5.06498 z m 23.71699,-26.00374 c -0.98372,-1.36669 -1.92989,-2.6734 -2.10262,-2.90383 -0.25682,-0.34259 -0.84057,0.036 -3.20332,2.07736 -2.08893,1.80479 -3.23746,2.58824 -4.14622,2.82825 -0.91618,0.24196 -1.6617,0.75351 -2.74992,1.88689 l -1.49297,1.55492 1.48888,2.17171 c 0.81889,1.19444 1.75809,2.47033 2.08711,2.83532 l 0.5982,0.66362 4.83221,-3.59634 c 2.65772,-1.97797 5.20233,-3.91959 5.6547,-4.31468 l 0.82251,-0.71833 -1.78857,-2.48488 z m 4.28722,-19.69585 -6.5555,-6.92521 2.77009,-2.6222 c 2.43686,-2.30678 2.72144,-2.67358 2.36571,-3.04937 -0.35914,-0.3794 -20.588,-12.89225 -23.20698,-14.35502 l -1.03689,-0.57914 -5.62783,5.4556 -5.62784,5.45561 1.44336,3.0504 1.44336,3.0504 -2.57627,2.43874 c -1.41696,1.34131 -2.54574,2.58606 -2.50843,2.7661 0.0512,0.24659 20.12375,29.1331 20.57584,29.61068 0.0489,0.0517 0.83017,-0.60746 1.73596,-1.4649 1.14993,-1.08854 2.08868,-1.68899 3.1109,-1.98985 1.17494,-0.34581 1.96097,-0.90132 3.98089,-2.8134 l 2.51688,-2.3825 -0.63377,-0.95188 c -0.34857,-0.52353 -3.93081,-5.56605 -7.96054,-11.20559 -4.02973,-5.63953 -7.45207,-10.45739 -7.60521,-10.70633 -0.33254,-0.54053 1.56725,0.52425 16.55405,9.27809 l 11.46354,6.69591 0.96709,-0.91547 0.96708,-0.91546 z m -53.54249,36.62757 c 0.25788,-2.15504 0.41975,-3.97015 0.35974,-4.03356 -0.06,-0.0634 -6.84801,-2.20935 -15.0844,-4.76874 l -14.97525,-4.65346 -1.3114,1.24138 c -0.99156,0.93863 -1.30627,1.46943 -1.29042,2.17649 0.0171,0.76162 -0.29885,1.23786 -1.70279,2.56685 l -1.72375,1.63172 2.38381,2.51826 2.38382,2.51826 -1.88868,1.78786 c -1.03878,0.98332 -1.82873,1.85121 -1.75545,1.92863 0.0733,0.0774 3.06699,0.97817 6.65267,2.00166 l 6.51943,1.86089 1.37276,-0.96365 c 2.01495,-1.41445 5.55794,-2.7279 8.14402,-3.01912 1.84733,-0.20804 7.3595,0.58985 7.88102,1.14076 0.0698,0.0738 0.8622,0.45181 1.76083,0.84011 1.49238,0.64483 1.64131,0.63833 1.71953,-0.075 0.0471,-0.42957 0.29663,-2.54425 0.55451,-4.6993 z m 19.90422,-16.17346 c -0.046,-0.0486 -1.87565,-2.77509 -4.06592,-6.05888 -2.19025,-3.2838 -4.0087,-5.99925 -4.04099,-6.03434 -0.0322,-0.0351 -0.90861,0.74075 -1.9474,1.72407 l -1.8887,1.78786 0.91197,0.96341 c 0.66455,0.70204 0.89307,1.28555 0.84228,2.15081 -0.068,1.15813 0.0135,1.27529 3.30556,4.75301 1.85639,1.96108 3.52232,3.56963 3.70206,3.57456 0.32903,0.009 3.33705,-2.69579 3.18114,-2.8605 z m -2.80374,-34.30259 -1.45966,-3.03495 5.78024,-5.47166 c 3.64574,-3.45111 5.69313,-5.5637 5.54432,-5.72091 -0.12978,-0.13709 -2.47932,-1.61943 -5.22121,-3.29409 -2.74191,-1.67465 -5.57009,-3.40501 -6.28485,-3.84522 -0.72963,-0.44937 -1.69222,-0.72615 -2.1949,-0.63111 -0.55737,0.10538 -3.05878,1.83835 -6.62655,4.59088 -6.10053,4.70657 -6.58608,5.25482 -5.82599,6.57839 0.50698,0.88283 12.32385,17.80464 12.74137,18.24572 0.24384,0.2576 0.84455,-0.19948 2.66091,-2.0247 l 2.34599,-2.35739 z m -51.54453,47.00219 -2.26463,-2.39235 1.88656,-1.78584 c 1.61383,-1.52767 1.86311,-1.9017 1.72434,-2.58724 -0.12883,-0.63638 0.11049,-1.05957 1.16223,-2.05515 0.72846,-0.68958 1.26754,-1.3139 1.19796,-1.3874 -0.28181,-0.29771 -5.69613,-1.82987 -6.68667,-1.89222 -0.58529,-0.0368 -1.30616,0.16207 -1.60192,0.44208 -0.71483,0.67665 -9.03468,12.62871 -9.18474,13.1945 -0.22484,0.84782 0.68612,1.26138 6.38706,2.89954 l 5.73904,1.64912 1.9526,-1.84644 1.95261,-1.84644 -2.26463,-2.39236 z m 94.33019,-97.14752 c -2.02727,-4.35409 -2.81573,-5.75826 -3.1921,-5.68503 -0.79736,0.15513 -3.75392,3.13227 -3.88092,3.90795 -0.10284,0.62821 2.58795,11.68169 3.21118,13.19105 0.23144,0.5605 0.47837,0.37804 3.40179,-2.51364 l 3.15227,-3.11804 z m -63.61165,66.36309 c 0.16663,-1.13078 0.1205,-1.20176 -2.75606,-4.24054 -2.62279,-2.77071 -2.91805,-3.18703 -2.85334,-4.02308 0.0503,-0.6499 -0.23055,-1.25238 -0.92664,-1.98773 -0.69608,-0.73533 -0.97694,-1.33781 -0.92664,-1.98771 0.0551,-0.71099 -0.23055,-1.25238 -1.20196,-2.27858 -0.70078,-0.7403 -1.3819,-1.24402 -1.51358,-1.11935 -0.47343,0.44814 -2.40999,3.3071 -2.8212,4.16492 -0.23097,0.48185 -0.31173,1.24292 -0.17947,1.69128 0.1963,0.66544 8.50109,12.58951 9.51212,13.65756 0.19921,0.21044 0.79897,-0.17246 1.89441,-1.2094 1.24029,-1.17409 1.64123,-1.77749 1.77236,-2.66737 z"
       id="path154"
       inkscape:connector-curvature="0" /><path
       inkscape:connector-curvature="0"
       id="path3404"
       d="m 402.90872,180.45571 c -5.24022,3.98104 -6.55348,4.61045 -9.18915,4.40418 -3.0935,-0.24212 -3.62201,-0.70529 -10.28028,-9.00973 -3.24931,-4.05265 -6.37858,-7.99718 -6.95395,-8.7656 -0.71067,-0.94919 -1.05214,-1.23834 -1.06496,-0.90182 -0.0104,0.27245 1.36885,6.27229 3.06496,13.33303 3.31209,13.7878 3.42676,14.95195 1.74706,17.73703 -0.94228,1.56238 -6.99278,6.45872 -9.42248,7.62511 -1.60472,0.77033 -4.33036,0.92428 -6.00596,0.33921 -0.54789,-0.19131 -6.10419,-3.33704 -12.34733,-6.99048 -6.24314,-3.65346 -11.45094,-6.64538 -11.5729,-6.64872 -0.36035,-0.01 0.33804,1.02134 6.65694,9.82952 3.30995,4.61389 6.29188,9.02924 6.6265,9.8119 0.33462,0.78265 0.54467,2.23748 0.46676,3.23295 -0.22811,2.91466 -0.97247,3.84008 -6.85341,8.52065 -6.65428,5.29605 -8.08708,5.83865 -11.68763,4.4261 l -1.69768,-0.66603 0.70149,1.03177 c 0.95793,1.40895 1.35626,3.58786 0.89674,4.90543 -0.20964,0.60115 -2.05828,3.42128 -4.10806,6.26698 -4.01792,5.57805 -4.85408,6.33785 -7.21276,6.55418 -0.61544,0.0562 -4.4332,-0.8362 -8.48395,-1.98366 -7.05882,-1.99957 -8.09558,-2.08553 -6.66514,-0.55263 1.17731,1.2616 2.65063,4.93986 2.69207,6.72089 0.0799,3.43333 -1.05856,4.71139 -9.02382,10.13023 l -2.94885,2.00611 -0.90367,2.40458 -0.90369,2.40458 -5.20045,4.68891 c -4.51132,4.06754 -5.4419,4.7837 -7.02228,5.40423 -1.73876,0.68272 -1.88694,0.80939 -3.25006,2.77863 -1.94534,2.81029 -8.16605,8.69236 -10.41755,9.85045 -1.48789,0.7653 -1.76819,1.03007 -2.5596,2.41778 -1.11791,1.96021 -3.64509,4.37557 -6.30097,6.0222 -4.44162,2.75378 -5.28138,3.56219 -6.57438,6.32923 -0.78377,1.67725 -1.81317,3.22961 -3.04852,4.59726 -2.39144,2.64753 -7.05566,6.29268 -9.6593,7.54887 -1.93744,0.93478 -2.10951,1.08901 -3.74544,3.35726 -1.3191,1.82893 -2.74734,3.29919 -6.19021,6.3723 -3.95336,3.52879 -4.60344,4.22492 -5.57237,5.967 -1.4228,2.55812 -7.76113,8.80366 -10.85164,10.69279 -1.8444,1.12742 -2.21149,1.49418 -3.97513,3.97149 -1.70234,2.39128 -2.25507,2.9548 -4.46171,4.54896 -1.38524,1.00072 -3.39701,2.21876 -4.47057,2.70672 -2.47865,1.12661 -6.89906,2.01036 -10.20056,2.03928 l -2.56422,0.0225 -0.35424,2.36256 c -0.98256,6.55311 -2.11538,9.20627 -5.67633,13.29448 -5.34619,6.13776 -12.64765,9.87607 -19.32894,9.89626 -1.73947,0.007 -3.34345,0.18074 -3.5644,0.38989 -0.22095,0.20916 -0.5193,1.85343 -0.663,3.65395 -0.86972,10.89762 -9.67391,21.37404 -21.04525,25.04258 -7.20803,2.32537 -15.19016,1.74237 -18.10526,-1.32252 -1.91831,-2.01683 -2.43994,-4.02125 -2.6953,-10.35703 -0.0921,-2.28408 -0.36196,-3.96471 -0.69285,-4.31425 -0.29814,-0.31495 -1.58681,-0.74779 -2.86374,-0.96194 -5.94014,-0.99594 -11.32082,-4.76276 -14.71974,-10.3048 -3.926072,-6.40155 -3.487522,-14.4968 1.17573,-21.70309 2.07618,-3.2084 7.16545,-7.92138 10.49352,-9.71766 4.89093,-2.6398 10.87623,-4.35636 15.52582,-4.45283 3.55413,-0.0738 5.40251,0.70911 7.80221,3.30436 1.91948,2.07584 1.92483,2.07888 2.29845,1.30448 0.20597,-0.42693 0.66498,-1.91621 1.02004,-3.30959 0.80668,-3.16555 1.62537,-4.8031 3.91096,-7.82267 4.6045,-6.08312 11.43711,-10.57525 16.98272,-11.16535 1.02936,-0.10949 2.05624,-0.37395 2.28192,-0.5876 0.2257,-0.21365 0.47423,-1.32476 0.55228,-2.46914 0.22441,-3.28995 0.70619,-4.06407 5.56063,-8.93486 3.99912,-4.01256 4.47726,-4.40422 6.83975,-5.60251 l 2.54006,-1.28832 0.72309,-2.22999 c 0.93864,-2.8947 3.08012,-5.55628 8.036,-9.98764 3.70277,-3.31086 3.82368,-3.38992 5.98781,-3.91561 2.13276,-0.51808 2.25029,-0.59309 3.41661,-2.18057 0.66433,-0.90422 2.60412,-3.00635 4.31066,-4.6714 2.44291,-2.38353 3.5023,-3.21723 4.9814,-3.92012 1.70378,-0.80968 2.04474,-1.10749 3.6636,-3.19988 1.67178,-2.16078 1.94647,-2.39198 4.33046,-3.64501 3.28584,-1.72701 4.62121,-2.98178 5.80806,-5.45743 0.68232,-1.42328 1.6633,-2.73998 3.36466,-4.51612 3.48705,-3.6403 6.35779,-5.29777 11.32468,-6.53847 1.29414,-0.32327 1.45359,-0.44798 1.78398,-1.39528 0.19954,-0.57216 0.34884,-1.50846 0.33179,-2.08067 -0.0494,-1.65782 0.74817,-3.03635 3.65787,-6.32222 2.94504,-3.32575 4.64066,-4.74712 7.83145,-6.56467 1.7985,-1.02449 2.23359,-1.42032 3.52871,-3.2104 1.37802,-1.90468 1.66147,-2.1435 4.21991,-3.55558 4.11,-2.26844 4.24532,-2.38128 4.99041,-4.16171 0.37707,-0.90102 1.17406,-2.24112 1.7711,-2.97802 0.59704,-0.7369 1.05141,-1.37586 1.00973,-1.4199 -0.0417,-0.0441 -5.72229,-1.67591 -12.62356,-3.62638 -12.34698,-3.48955 -12.56941,-3.56916 -13.90135,-4.97546 -1.49688,-1.58029 -1.85353,-2.8974 -1.37673,-5.08303 0.3644,-1.67044 11.23188,-17.29389 12.67755,-18.22571 2.45773,-1.58413 1.3855,-1.85368 37.43209,9.41047 2.25874,0.70583 4.10905,1.2017 4.11178,1.10193 0.003,-0.0998 -5.0389,-7.21576 -11.20363,-15.81329 -12.46849,-17.38897 -12.54934,-17.53036 -11.58691,-20.26574 0.79627,-2.26315 10.26473,-15.51798 11.69019,-16.365 1.47779,-0.87813 3.35682,-1.09587 4.61332,-0.53456 1.15213,0.51467 1.52255,0.31458 1.73127,-0.93519 0.3251,-1.94658 1.37382,-3.04057 7.41405,-7.73413 6.48995,-5.04301 7.73546,-5.81466 9.74894,-6.03988 3.16834,-0.35443 3.05994,-0.4111 25.32786,13.24387 11.60412,7.1158 21.40046,13.07308 21.76964,13.2384 0.79091,0.35419 1.48179,3.24251 -6.37552,-26.65334 -3.17802,-12.09198 -5.82286,-22.71927 -5.87738,-23.6162 -0.13566,-2.23218 0.82715,-4.54941 2.57955,-6.20826 0.77394,-0.73262 3.58026,-3.04788 6.2363,-5.14503 4.11288,-3.24745 5.08692,-3.88212 6.56715,-4.27909 1.93769,-0.519628 4.49477,-0.0678 6.06659,1.07187 1.15651,0.83858 50.32144,62.78914 51.43936,64.81646 0.93818,1.70134 1.09253,4.29168 0.36261,6.08531 -0.72525,1.78218 -2.31355,3.26644 -8.63208,8.06669 z m 3.42172,-10.94475 c -0.14845,-0.73971 -4.58949,-6.69032 -6.47354,-8.67398 -0.34993,-0.36965 -0.65656,-0.21409 -1.89831,0.96137 -1.40746,1.33232 -1.46059,1.45319 -1.07818,2.45308 0.34169,0.89341 0.26525,1.18244 -0.50793,1.92055 -1.51707,1.44825 -1.45432,1.67227 1.47768,5.2772 1.46991,1.8073 2.7738,3.28877 2.89753,3.29217 0.27912,0.008 3.48642,-2.31399 4.79515,-3.47105 0.74419,-0.65797 0.92677,-1.06583 0.7876,-1.75934 z m -7.36636,4.82442 c -0.54521,-0.73132 -1.91178,-2.44751 -3.03685,-3.81371 -2.25107,-2.73365 -2.21933,-2.36166 -0.40435,-4.72688 0.54338,-0.70812 0.67887,-1.26462 0.46189,-1.89717 -0.2815,-0.82063 -0.16974,-1.0251 1.34311,-2.45718 1.09138,-1.03312 1.58794,-1.70527 1.46636,-1.98492 -0.17098,-0.39329 -26.37277,-33.65273 -27.20045,-34.52709 -0.32499,-0.34331 -0.79213,0.0163 -3.49576,2.69141 l -3.1206,3.08765 2.60455,4.93545 2.60458,4.93542 5.6583,5.98396 5.65828,5.98397 -2.72412,2.57869 -2.72415,2.57872 4.6256,5.76782 c 11.17142,13.93003 12.45947,15.4949 13.00038,15.79424 0.80464,0.44533 1.16344,0.24289 5.95223,-3.35837 0.18527,-0.13932 -0.0993,-0.80827 -0.66883,-1.57216 z m -23.25276,19.50184 c 0.12842,-0.38572 -0.14277,-2.33138 -0.60266,-4.3237 -0.75919,-3.28898 -7.99782,-33.7206 -10.19008,-42.83974 -0.49773,-2.07044 -0.83206,-3.76243 -0.74293,-3.75998 0.0891,0.002 2.46149,2.90325 5.27192,6.44622 2.81044,3.54299 5.37548,6.72237 5.7001,7.06528 0.5866,0.61969 0.60481,0.60967 2.98254,-1.64113 l 2.39236,-2.26464 -5.50039,-5.81057 -5.50037,-5.81058 -2.04322,-3.87976 c -1.12379,-2.13385 -2.36938,-4.47818 -2.76801,-5.20959 l -0.72476,-1.32983 3.38852,-3.34037 3.38851,-3.34038 -7.19915,-9.08037 c -6.32593,-7.97899 -7.28633,-9.08278 -7.91799,-9.10008 -0.46625,-0.0128 -1.80817,0.82609 -3.81878,2.38725 -1.70496,1.32384 -3.09605,2.48081 -3.09134,2.57109 0.005,0.0903 1.31513,2.95609 2.91197,6.36853 l 2.90332,6.20445 -3.6074,3.41481 -3.60741,3.41481 1.23005,4.68478 c 0.67653,2.57661 3.48006,13.19075 6.23005,23.587 2.75,10.39624 5.02128,19.1598 5.04726,19.47459 0.0259,0.31479 -0.1163,0.55694 -0.31625,0.53811 -0.19995,-0.0188 -3.68924,-2.09505 -7.75399,-4.61382 l -7.39046,-4.57961 -2.7088,2.56084 -2.7088,2.56083 6.5555,6.92522 6.5555,6.92521 -0.96534,0.91379 c -0.53094,0.5026 -0.96862,1.0339 -0.97266,1.18069 -0.006,0.22744 5.63783,3.62268 14.55434,8.75534 1.56692,0.90197 2.5333,1.2397 3.12184,1.09106 0.46885,-0.11842 2.05309,-1.10329 3.52056,-2.1886 3.53106,-2.61149 4.09964,-3.12559 4.3765,-3.9571 z m -48.25812,41.67586 c 1.73758,-2.43045 2.43626,-3.68527 2.45617,-4.4112 0.0228,-0.83301 -0.96168,-2.49825 -5.50289,-9.30752 -3.04189,-4.56115 -5.67166,-8.44254 -5.84393,-8.62531 -0.1767,-0.18767 -0.42034,0.51092 -0.55913,1.6036 -0.21512,1.6936 -0.41769,2.09854 -1.61835,3.23511 -1.13733,1.0766 -1.42747,1.60374 -1.6936,3.07693 l -0.32115,1.77775 1.71627,1.81306 1.71627,1.81307 -2.18039,4.38007 c -1.1992,2.40905 -2.34384,4.71321 -2.54364,5.12036 -0.3516,0.71651 -0.19782,0.78643 4.79048,2.17817 4.37068,1.21944 6.42285,1.47184 7.03261,0.86494 0.0676,-0.0673 1.21569,-1.65086 2.55128,-3.51903 z m 21.58776,-21.55951 c -0.0196,-0.86907 -5.53901,-9.0873 -6.37039,-9.48522 -0.32065,-0.15348 -2.06091,0.98476 -5.95651,3.89592 -3.02695,2.26201 -5.50316,4.18669 -5.50273,4.27706 0.001,0.30187 5.46819,8.06359 6.29312,8.93503 0.44732,0.47255 1.09088,0.84105 1.43013,0.81888 0.33925,-0.0222 2.39239,-1.42824 4.56253,-3.12461 5.40446,-4.22459 5.56497,-4.37852 5.54385,-5.31706 z M 210.40044,341.30323 c 0.49842,-0.9696 1.09177,-2.63264 1.31855,-3.69568 0.45937,-2.15344 0.87945,-2.31215 2.26977,-0.8575 0.55481,0.58048 0.94425,0.70988 1.42962,0.47503 0.3669,-0.17752 2.51236,-2.22375 4.76772,-4.54718 l 4.10062,-4.22441 -1.33181,-1.41863 c -2.18527,-2.32773 -22.18203,-21.90419 -24.79887,-24.27761 -1.79062,-1.62406 -2.58745,-2.16223 -3.06066,-2.06712 -0.42026,0.0844 -2.11346,1.67053 -4.93493,4.62274 l -4.29516,4.49414 1.71562,1.71834 c 0.94358,0.94509 4.49583,4.45822 7.8939,7.80694 6.57807,6.48259 7.59439,7.71651 7.79986,9.46989 0.26122,2.22888 -0.16398,3.35607 -1.87786,4.97845 -2.81721,2.66682 -5.17985,2.34426 -8.49853,-1.16026 -2.16975,-2.29112 -7.23252,-8.78236 -9.97451,-12.78852 -0.96381,-1.40818 -1.96551,-2.66235 -2.22599,-2.78702 -0.65104,-0.31162 -10.20129,8.65517 -10.13896,9.51953 0.0222,0.3073 1.469,2.42927 3.2152,4.71551 9.919,12.98656 14.17111,16.89372 19.77477,18.17065 2.60398,0.59341 4.28598,0.54067 6.84559,-0.21455 3.77053,-1.11242 8.37761,-4.76492 10.00606,-7.93274 z m 41.34486,-39.07545 c 0.0484,-0.26696 -2.74174,-3.40078 -7.55153,-8.48183 -6.83187,-7.21717 -7.69841,-8.22931 -8.30062,-9.6954 -0.75015,-1.8262 -0.6145,-2.63585 0.64065,-3.824 1.91455,-1.81233 4.88191,-0.26536 8.34819,4.35214 1.13342,1.50986 3.49682,4.98604 5.25201,7.72487 1.99344,3.1106 3.36218,4.9815 3.64667,4.98451 0.53903,0.006 10.71571,-7.45159 10.72692,-7.8605 0.0274,-1.00201 -7.08059,-10.70656 -10.43328,-14.24444 -5.79684,-6.11699 -10.75263,-8.97419 -15.42388,-8.89237 -3.80527,0.0667 -5.81204,1.01337 -9.51305,4.4879 -3.41742,3.20835 -4.21091,4.61168 -4.67546,8.269 l -0.24543,1.93221 -2.32201,0.0596 c -4.68289,0.12024 -7.99171,3.42492 -8.57676,8.56606 -0.18844,1.65596 -0.72554,1.75651 -2.03965,0.38183 -1.25783,-1.31579 -1.68061,-1.09477 -5.89212,3.08046 -2.10382,2.08571 -3.80671,3.98792 -3.80246,4.24754 0.005,0.28073 5.16101,5.78893 12.79707,13.6701 l 12.78938,13.19991 4.47902,-4.10995 c 3.31471,-3.04157 4.51389,-4.30084 4.61315,-4.84434 0.12054,-0.66012 -0.64388,-1.59389 -7.55836,-9.23291 -6.84453,-7.56176 -7.71474,-8.62247 -7.89465,-9.62286 -0.17443,-0.96989 -0.0507,-1.24773 0.90069,-2.02286 2.36907,-1.93015 4.07862,-0.75446 13.14807,9.04222 4.39667,4.74921 6.93656,7.30805 7.26297,7.31717 0.28729,0.008 2.2535,-1.58196 4.59769,-3.71798 2.25266,-2.05261 4.28796,-3.86941 4.52291,-4.03734 0.23494,-0.16795 0.46169,-0.49589 0.50387,-0.72875 z m 41.83482,-39.6014 c 0.0768,-0.3211 -1.95299,-2.61254 -6.95557,-7.85225 -7.46001,-7.81363 -9.02137,-9.83988 -9.21582,-11.95991 -0.12132,-1.31724 0.57626,-2.3444 1.93919,-2.85735 2.79346,-1.05131 6.97211,3.25401 13.36114,13.76614 1.9115,3.14506 2.38225,3.74812 2.93157,3.75556 0.7241,0.01 10.90776,-7.34588 10.92267,-7.88946 0.005,-0.18064 -1.12898,-1.94472 -2.51986,-3.92018 -9.80498,-13.92607 -17.92991,-20.1454 -24.89292,-19.05463 -2.78263,0.43592 -4.87243,1.52078 -7.77983,4.03868 -2.981,2.58166 -4.41266,4.85669 -4.80805,7.64044 -0.47746,3.36142 -0.4137,3.24716 -1.6807,3.01234 -0.62904,-0.11658 -1.9653,-0.0226 -2.96948,0.20887 -1.55747,0.35898 -2.10249,0.6844 -3.70893,2.21452 -2.05981,1.96197 -2.89006,3.69685 -2.87386,6.00526 0.0117,1.63892 -0.48387,2.04908 -1.35867,1.12494 -0.38478,-0.4065 -1.0853,-0.92515 -1.55669,-1.15255 l -0.85706,-0.41348 -3.3292,3.17896 c -1.83105,1.74843 -3.69845,3.67805 -4.14977,4.28802 l -0.82059,1.10905 12.44687,13.02565 c 7.3563,7.69837 12.72011,13.11663 13.11498,13.24811 0.60276,0.20069 1.09671,-0.18324 5.04824,-3.92381 3.43363,-3.25032 4.3842,-4.29564 4.39906,-4.83753 0.0152,-0.55186 -1.51371,-2.38072 -7.58032,-9.06793 -4.83952,-5.33458 -7.71133,-8.70331 -7.90782,-9.27612 -0.34034,-0.9921 0.44615,-2.60023 1.5131,-3.09385 0.36527,-0.16898 1.3113,-0.0776 2.1023,0.20321 1.33644,0.47437 1.99453,1.08749 9.30157,8.66588 5.9952,6.21784 7.99919,8.14651 8.43504,8.11803 0.33372,-0.0218 2.32364,-1.63576 4.7808,-3.8775 2.31501,-2.11207 4.28812,-3.87018 4.38466,-3.90691 0.0965,-0.0368 0.2243,-0.27082 0.28394,-0.5202 z M 154.47057,392.57662 c 2.53825,-4.64127 3.04967,-9.04147 1.56983,-13.50699 -0.66197,-1.99749 -0.9334,-2.38685 -3.7068,-5.31663 -2.97285,-3.14051 -3.01031,-3.16786 -5.70024,-4.1537 -4.9353,-1.80891 -9.11313,-1.65171 -17.63333,0.66331 -6.4235,1.74533 -8.71449,1.47415 -9.09202,-1.07617 -0.13476,-0.91033 -0.008,-1.09525 1.71708,-2.50927 1.47713,-1.2106 2.50499,-1.72373 4.96712,-2.47973 1.70751,-0.52433 3.99198,-1.04776 5.0766,-1.16314 1.08463,-0.11539 2.18606,-0.4124 2.44763,-0.66 0.32382,-0.30656 0.24929,-1.67197 -0.23359,-4.27895 -0.39005,-2.10577 -0.80113,-4.0514 -0.91352,-4.32359 -0.38942,-0.94312 -7.62738,-0.22069 -11.50985,1.14887 -2.61047,0.92087 -7.0001,3.63162 -9.09269,5.61505 -3.51557,3.3322 -6.05301,8.22536 -6.32374,12.1944 -0.41572,6.09487 3.94646,12.30279 10.11348,14.39272 3.86499,1.30987 8.3366,1.12901 16.54137,-0.6688 6.75341,-1.47986 9.20473,-1.20834 9.94451,1.10146 0.98063,3.06174 -5.66421,6.98039 -12.83174,7.56721 -1.49473,0.1224 -2.79714,0.40311 -2.89422,0.62393 -0.16747,0.38088 -0.0434,2.20141 0.47837,7.02007 0.1272,1.17474 0.38907,2.3026 0.58194,2.50628 0.68956,0.72846 8.30279,0.60136 11.04623,-0.18436 4.64128,-1.32933 6.63519,-2.5776 10.94312,-6.85072 2.51987,-2.4995 3.33689,-3.52632 4.50446,-5.66125 z m 29.44869,-27.74145 c 2.10713,-3.97071 2.49366,-8.4903 1.10042,-12.86756 -0.87851,-2.76006 -1.97223,-4.4405 -2.84625,-4.37301 -0.66775,0.0514 -7.40154,3.51112 -8.07507,4.1487 -0.23433,0.22182 -0.28597,1.113 -0.11475,1.98048 0.84257,4.2686 -1.56554,8.0711 -5.32998,8.41642 -2.86451,0.26271 -6.37286,-1.79003 -8.24794,-4.82587 -3.24474,-5.25351 1.15599,-11.53535 7.03798,-10.04645 1.11743,0.28284 1.97876,0.27872 2.29641,-0.009 0.27956,-0.25502 1.62848,-2.20308 2.99763,-4.32896 l 2.48933,-3.86525 -1.00575,-0.81247 c -1.6612,-1.34192 -5.76118,-2.64588 -8.70037,-2.76705 -4.76149,-0.1963 -8.61168,1.4158 -12.76008,5.34273 -5.23328,4.95389 -7.29897,10.20129 -6.34179,16.10994 0.54347,3.35477 1.65239,5.80975 4.07104,9.0126 4.7198,6.25013 10.55543,9.50082 16.95309,9.4436 3.50815,-0.0314 6.54685,-1.1739 10.95344,-4.11849 1.46464,-0.97867 4.50849,-4.52723 5.52265,-6.43827 z M 316.53595,226.78952 c 0.0778,-0.31999 -0.4627,-1.11929 -1.49227,-2.20694 l -1.61419,-1.70522 0.35587,-1.85026 c 0.29639,-1.54095 0.58728,-2.06931 1.74009,-3.16058 1.24032,-1.17411 1.42093,-1.5515 1.73743,-3.63063 0.19427,-1.27617 0.36312,-2.37579 0.37521,-2.44362 0.0306,-0.17116 -5.50234,-8.42955 -6.01289,-8.97487 -0.35578,-0.37987 -0.66565,-0.20547 -2.17752,1.2257 l -1.76278,1.66866 -3.89176,-4.11122 c -3.84296,-4.05971 -3.89087,-4.12611 -3.82203,-5.29863 0.0533,-0.90842 -0.17041,-1.44104 -0.9522,-2.26692 l -1.02189,-1.07951 2.13327,-2.15735 2.13328,-2.15734 -8.79195,-13.16407 c -4.83558,-7.24025 -9.17475,-13.58447 -9.64263,-14.09828 -0.5486,-0.6025 -1.03167,-0.85948 -1.36039,-0.72376 -0.28035,0.11576 -1.47529,1.57724 -2.65542,3.24775 l -2.14571,3.03727 1.47812,1.56148 c 1.17537,1.24165 1.46333,1.75247 1.40592,2.49404 -0.0503,0.6499 0.23057,1.25237 0.92665,1.98771 0.69608,0.73535 0.97693,1.33782 0.92663,1.98772 -0.0647,0.83594 0.23057,1.25238 2.84945,4.01897 l 2.92164,3.0864 -0.15766,1.38539 c -0.13779,1.21087 -0.387,1.6025 -1.9783,3.10885 l -1.82065,1.72344 10.32845,14.41626 c 5.68065,7.92895 10.25022,14.55928 10.1546,14.73407 -0.0956,0.17479 -2.89451,-0.5424 -6.21975,-1.59377 -3.32525,-1.05137 -6.09776,-1.86247 -6.16115,-1.80248 -0.0992,0.0939 -0.98562,7.15099 -1.12811,8.98156 -0.0421,0.54045 0.34966,0.93088 2.53976,2.53129 1.42422,1.04076 4.06156,3.33766 5.86076,5.10421 l 3.27126,3.21195 4.04991,1.19624 c 2.22745,0.65794 4.26732,1.22966 4.53304,1.27049 0.34031,0.0523 1.14588,-1.275 2.72457,-4.48902 1.23277,-2.5098 2.29628,-4.78903 2.36334,-5.06498 z m 23.71699,-26.00374 c -0.98372,-1.36669 -1.92989,-2.6734 -2.10262,-2.90383 -0.25682,-0.34259 -0.84057,0.036 -3.20332,2.07736 -2.08893,1.80479 -3.23746,2.58824 -4.14622,2.82825 -0.91618,0.24196 -1.6617,0.75351 -2.74992,1.88689 l -1.49297,1.55492 1.48888,2.17171 c 0.81889,1.19444 1.75809,2.47033 2.08711,2.83532 l 0.5982,0.66362 4.83221,-3.59634 c 2.65772,-1.97797 5.20233,-3.91959 5.6547,-4.31468 l 0.82251,-0.71833 -1.78857,-2.48488 z m 4.28722,-19.69585 -6.5555,-6.92521 2.77009,-2.6222 c 2.43686,-2.30678 2.72144,-2.67358 2.36571,-3.04937 -0.35914,-0.3794 -20.588,-12.89225 -23.20698,-14.35502 l -1.03689,-0.57914 -5.62783,5.4556 -5.62784,5.45561 1.44336,3.0504 1.44336,3.0504 -2.57627,2.43874 c -1.41696,1.34131 -2.54574,2.58606 -2.50843,2.7661 0.0512,0.24659 20.12375,29.1331 20.57584,29.61068 0.0489,0.0517 0.83017,-0.60746 1.73596,-1.4649 1.14993,-1.08854 2.08868,-1.68899 3.1109,-1.98985 1.17494,-0.34581 1.96097,-0.90132 3.98089,-2.8134 l 2.51688,-2.3825 -0.63377,-0.95188 c -0.34857,-0.52353 -3.93081,-5.56605 -7.96054,-11.20559 -4.02973,-5.63953 -7.45207,-10.45739 -7.60521,-10.70633 -0.33254,-0.54053 1.56725,0.52425 16.55405,9.27809 l 11.46354,6.69591 0.96709,-0.91547 0.96708,-0.91546 z m -53.54249,36.62757 c 0.25788,-2.15504 0.41975,-3.97015 0.35974,-4.03356 -0.06,-0.0634 -6.84801,-2.20935 -15.0844,-4.76874 l -14.97525,-4.65346 -1.3114,1.24138 c -0.99156,0.93863 -1.30627,1.46943 -1.29042,2.17649 0.0171,0.76162 -0.29885,1.23786 -1.70279,2.56685 l -1.72375,1.63172 2.38381,2.51826 2.38382,2.51826 -1.88868,1.78786 c -1.03878,0.98332 -1.82873,1.85121 -1.75545,1.92863 0.0733,0.0774 3.06699,0.97817 6.65267,2.00166 l 6.51943,1.86089 1.37276,-0.96365 c 2.01495,-1.41445 5.55794,-2.7279 8.14402,-3.01912 1.84733,-0.20804 7.3595,0.58985 7.88102,1.14076 0.0698,0.0738 0.8622,0.45181 1.76083,0.84011 1.49238,0.64483 1.64131,0.63833 1.71953,-0.075 0.0471,-0.42957 0.29663,-2.54425 0.55451,-4.6993 z m 19.90422,-16.17346 c -0.046,-0.0486 -1.87565,-2.77509 -4.06592,-6.05888 -2.19025,-3.2838 -4.0087,-5.99925 -4.04099,-6.03434 -0.0322,-0.0351 -0.90861,0.74075 -1.9474,1.72407 l -1.8887,1.78786 0.91197,0.96341 c 0.66455,0.70204 0.89307,1.28555 0.84228,2.15081 -0.068,1.15813 0.0135,1.27529 3.30556,4.75301 1.85639,1.96108 3.52232,3.56963 3.70206,3.57456 0.32903,0.009 3.33705,-2.69579 3.18114,-2.8605 z m -2.80374,-34.30259 -1.45966,-3.03495 5.78024,-5.47166 c 3.64574,-3.45111 5.69313,-5.5637 5.54432,-5.72091 -0.12978,-0.13709 -2.47932,-1.61943 -5.22121,-3.29409 -2.74191,-1.67465 -5.57009,-3.40501 -6.28485,-3.84522 -0.72963,-0.44937 -1.69222,-0.72615 -2.1949,-0.63111 -0.55737,0.10538 -3.05878,1.83835 -6.62655,4.59088 -6.10053,4.70657 -6.58608,5.25482 -5.82599,6.57839 0.50698,0.88283 12.32385,17.80464 12.74137,18.24572 0.24384,0.2576 0.84455,-0.19948 2.66091,-2.0247 l 2.34599,-2.35739 z m -51.54453,47.00219 -2.26463,-2.39235 1.88656,-1.78584 c 1.61383,-1.52767 1.86311,-1.9017 1.72434,-2.58724 -0.12883,-0.63638 0.11049,-1.05957 1.16223,-2.05515 0.72846,-0.68958 1.26754,-1.3139 1.19796,-1.3874 -0.28181,-0.29771 -5.69613,-1.82987 -6.68667,-1.89222 -0.58529,-0.0368 -1.30616,0.16207 -1.60192,0.44208 -0.71483,0.67665 -9.03468,12.62871 -9.18474,13.1945 -0.22484,0.84782 0.68612,1.26138 6.38706,2.89954 l 5.73904,1.64912 1.9526,-1.84644 1.95261,-1.84644 -2.26463,-2.39236 z m 94.33019,-97.14752 c -2.02727,-4.35409 -2.81573,-5.75826 -3.1921,-5.68503 -0.79736,0.15513 -3.75392,3.13227 -3.88092,3.90795 -0.10284,0.62821 2.58795,11.68169 3.21118,13.19105 0.23144,0.5605 0.47837,0.37804 3.40179,-2.51364 l 3.15227,-3.11804 z m -63.61165,66.36309 c 0.16663,-1.13078 0.1205,-1.20176 -2.75606,-4.24054 -2.62279,-2.77071 -2.91805,-3.18703 -2.85334,-4.02308 0.0503,-0.6499 -0.23055,-1.25238 -0.92664,-1.98773 -0.69608,-0.73533 -0.97694,-1.33781 -0.92664,-1.98771 0.0551,-0.71099 -0.23055,-1.25238 -1.20196,-2.27858 -0.70078,-0.7403 -1.3819,-1.24402 -1.51358,-1.11935 -0.47343,0.44814 -2.40999,3.3071 -2.8212,4.16492 -0.23097,0.48185 -0.31173,1.24292 -0.17947,1.69128 0.1963,0.66544 8.50109,12.58951 9.51212,13.65756 0.19921,0.21044 0.79897,-0.17246 1.89441,-1.2094 1.24029,-1.17409 1.64123,-1.77749 1.77236,-2.66737 z"
       style="fill:#ffffff;stroke-width:0.65005577" /></g></svg>