<?xml version="1.0" encoding="UTF-8" standalone="no"?>
<!-- Created with Inkscape (http://www.inkscape.org/) -->

<svg
   xmlns:dc="http://purl.org/dc/elements/1.1/"
   xmlns:cc="http://creativecommons.org/ns#"
   xmlns:rdf="http://www.w3.org/1999/02/22-rdf-syntax-ns#"
   xmlns:svg="http://www.w3.org/2000/svg"
   xmlns="http://www.w3.org/2000/svg"
   xmlns:sodipodi="http://sodipodi.sourceforge.net/DTD/sodipodi-0.dtd"
   xmlns:inkscape="http://www.inkscape.org/namespaces/inkscape"
   id="svg2"
   version="1.1"
   inkscape:version="0.92.3 (2405546, 2018-03-11)"
   width="512"
   height="512"
   sodipodi:docname="shutter.svg">
  <metadata
     id="metadata8">
    <rdf:RDF>
      <cc:Work
         rdf:about="">
        <dc:format>image/svg+xml</dc:format>
        <dc:type
           rdf:resource="http://purl.org/dc/dcmitype/StillImage" />
        <dc:title />
      </cc:Work>
    </rdf:RDF>
  </metadata>
  <defs
     id="defs6" />
  <sodipodi:namedview
     pagecolor="#ffffff"
     bordercolor="#666666"
     borderopacity="1"
     objecttolerance="10"
     gridtolerance="10"
     guidetolerance="10"
     inkscape:pageopacity="0"
     inkscape:pageshadow="2"
     inkscape:window-width="995"
     inkscape:window-height="677"
     id="namedview4"
     showgrid="false"
     inkscape:zoom="0.4609375"
     inkscape:cx="48.759655"
     inkscape:cy="124.75172"
     inkscape:window-x="148"
     inkscape:window-y="38"
     inkscape:window-maximized="0"
     inkscape:current-layer="svg2" />
  <g
     id="g888">
    <path
       style="fill:#3689e6;fill-opacity:1;stroke-width:11.10954762"
       inkscape:connector-curvature="0"
       d="M 432.91328,56.474691 C 535.10618,145.04819 538.74005,306.17425 441.03006,416.37272 343.32007,526.57121 181.27962,544.10017 79.086743,455.52667 -23.106206,366.95085 -26.740033,205.82711 70.969944,95.62632 168.67988,-14.572139 330.72033,-32.101119 432.91328,56.474691 Z"
       id="path1165" />
    <path
       style="opacity:1;fill:#000000;fill-opacity:0.49019608;stroke-width:11.10954762"
       inkscape:connector-curvature="0"
       d="M 511.63552,224.90373 C 510.08416,286.2156 486.47428,349.05882 440.66913,400.71718 342.95911,510.91564 180.91867,528.44461 78.725762,439.87114 30.827125,398.35501 4.49682,340.92269 0.19382804,280.22755 0.79908104,346.58494 27.117406,410.4824 79.078693,455.51736 181.27157,544.09317 343.31972,526.55491 441.02203,416.36573 c 49.70494,-56.05922 73.00501,-125.29079 70.61349,-191.462 z"
       id="path1167" />
    <g
       style="fill:#000000;fill-opacity:0.49019608"
       transform="translate(19.999999,20)"
       id="g868">
      <path
         id="path854"
         d="m 244.32439,411.09225 c -1.22812,-0.55761 -2.22259,-1.52441 -2.22259,-2.16074 0,-0.63338 2.56142,-5.18746 5.69204,-10.12018 8.6362,-13.60744 14.21114,-23.55045 20.17453,-35.98164 11.69814,-24.38576 18.49004,-43.621 30.60687,-86.68122 1.37497,-4.8863 2.83261,-4.80376 6.33853,0.35895 2.92692,4.31008 9.84552,17.71492 12.78626,24.77348 8.86736,21.28405 13.01222,38.34274 12.50641,51.47181 -0.26317,6.83116 -0.35527,7.17227 -3.82844,14.18023 -10.53955,21.26605 -29.67491,36.64579 -53.33122,42.8641 -8.42615,2.2149 -25.0461,2.96436 -28.72239,1.29521 z"
         style="fill:#000000;fill-opacity:0.49019608;stroke-width:0.64695752"
         inkscape:connector-curvature="0" />
      <path
         id="path856"
         d="m 197.30795,392.59795 c -13.62756,-1.90945 -25.85463,-6.73851 -37.01847,-14.62039 -10.34605,-7.30448 -19.43734,-17.56672 -19.64417,-22.1743 l -0.099,-2.20589 5.81294,-0.86395 c 49.21007,-7.31392 77.60012,-15.93512 126.37972,-38.37767 5.0023,-2.30146 9.73722,-4.18447 10.52206,-4.18447 1.30504,0 1.38965,0.27228 0.9902,3.18661 -0.93296,6.80664 -9.49636,25.72598 -18.40535,40.66342 -12.34788,20.70333 -23.54177,32.27453 -34.56372,35.72874 -9.98431,3.12902 -23.73906,4.28202 -33.97419,2.8479 z"
         style="fill:#000000;fill-opacity:0.49019608;stroke-width:0.64695752"
         inkscape:connector-curvature="0" />
      <path
         id="path858"
         d="m 162.16837,337.08662 c -6.0713,-1.19416 -9.12868,-2.65863 -15.53948,-7.44335 -16.38988,-12.23266 -27.50078,-30.17403 -31.11705,-50.24639 -2.60632,-14.4666 0.15045,-36.92927 4.53222,-36.92927 0.55456,0 4.00959,2.70892 7.67783,6.01983 28.96137,26.14014 59.51663,45.68581 102.80785,65.76439 8.04269,3.73022 14.72853,7.09858 14.85742,7.48525 0.40061,1.20182 -3.97811,3.36449 -12.51769,6.18255 -25.73432,8.49232 -54.90298,12.27429 -70.7011,9.16699 z"
         style="fill:#000000;fill-opacity:0.49019608;stroke-width:0.64695752"
         inkscape:connector-curvature="0" />
      <path
         id="path860"
         d="M 208.09572,298.82903 C 188.65875,288.6719 163.88161,268.7731 153.67024,255.1193 c -5.13984,-6.87255 -7.01741,-11.06418 -7.94574,-17.73863 -3.48371,-25.04693 5.91862,-50.90134 24.98709,-68.7092 9.07537,-8.4754 20.94794,-15.21647 23.06743,-13.09735 0.55531,0.55522 0.82379,6.06795 0.89457,18.36904 0.22314,38.77418 5.18586,68.97921 19.09971,116.24827 1.69222,5.74893 2.89311,10.74977 2.66864,11.11297 -0.7224,1.16886 -2.22576,0.72298 -8.34622,-2.47537 z"
         style="fill:#000000;fill-opacity:0.49019608;stroke-width:0.64695752"
         inkscape:connector-curvature="0" />
      <path
         id="path862"
         d="m 207.37365,252.21283 c -0.27029,-0.65822 -0.45782,-10.12135 -0.41673,-21.02916 0.11968,-31.77002 4.15428,-62.44756 10.65092,-80.98547 3.84631,-10.97527 7.41505,-15.48622 17.51645,-22.14105 22.52371,-14.8387 67.18692,-25.72687 114.00401,-27.79236 26.86193,-1.185104 46.13792,1.67904 48.22381,7.16538 1.62995,4.28695 -1.8691,7.27461 -18.1333,15.48321 -61.44199,31.01001 -130.57286,82.9273 -163.97407,123.14458 -3.35814,4.04341 -6.39234,7.35165 -6.74267,7.35165 -0.35033,0 -0.85812,-0.53854 -1.12842,-1.19678 z"
         style="fill:#000000;fill-opacity:0.49019608;stroke-width:0.64695752"
         inkscape:connector-curvature="0" />
      <path
         id="path864"
         d="m 356.08577,367.80581 c -1.21605,0.58345 -2.59577,0.72505 -3.0836,0.31645 -0.48555,-0.40669 -2.33209,-5.29452 -4.10342,-10.86182 -4.88636,-15.35806 -8.92915,-26.01635 -14.63002,-38.5701 -11.18312,-24.6262 -21.56809,-42.18402 -46.79853,-79.12213 -2.86306,-4.19159 -1.86382,-5.25604 4.34516,-4.62875 5.18357,0.52369 19.90242,3.82709 27.20189,6.10499 22.0105,6.86869 37.74941,14.64462 47.48962,23.46262 5.06789,4.58806 5.27027,4.8777 8.41255,12.04013 9.53545,21.73482 9.03893,46.27971 -1.38383,68.40785 -3.71248,7.88183 -13.80967,21.10422 -17.44983,22.85076 z"
         style="fill:#000000;fill-opacity:0.49019608;stroke-width:0.64695752"
         inkscape:connector-curvature="0" />
      <path
         id="path866"
         d="m 390.56287,245.63078 c -0.20273,1.33344 -0.86277,2.5533 -1.47514,2.72629 -0.60953,0.17219 -5.68842,-1.05472 -11.28644,-2.72646 -15.44275,-4.61169 -26.52686,-7.27362 -40.11105,-9.63295 -26.64755,-4.62819 -47.00476,-5.93511 -91.73728,-5.88948 -5.07607,0.005 -5.3929,-1.41998 -1.37773,-6.1974 3.35206,-3.98839 14.3712,-14.29059 20.36447,-19.03948 18.07182,-14.31957 33.36125,-22.9458 46.13337,-26.02825 6.64544,-1.60381 6.99873,-1.60792 14.68696,-0.17071 23.33036,4.36134 43.33291,18.59499 55.7481,39.66989 4.42217,7.50667 9.66161,23.29695 9.05474,27.28855 z"
         style="fill:#000000;fill-opacity:0.49019608;stroke-width:0.64695752"
         inkscape:connector-curvature="0" />
    </g>
    <g
       id="g852">
      <path
         inkscape:connector-curvature="0"
         style="fill:#ffffff;fill-opacity:1;stroke-width:0.64695752"
         d="m 244.32439,411.09225 c -1.22812,-0.55761 -2.22259,-1.52441 -2.22259,-2.16074 0,-0.63338 2.56142,-5.18746 5.69204,-10.12018 8.6362,-13.60744 14.21114,-23.55045 20.17453,-35.98164 11.69814,-24.38576 18.49004,-43.621 30.60687,-86.68122 1.37497,-4.8863 2.83261,-4.80376 6.33853,0.35895 2.92692,4.31008 9.84552,17.71492 12.78626,24.77348 8.86736,21.28405 13.01222,38.34274 12.50641,51.47181 -0.26317,6.83116 -0.35527,7.17227 -3.82844,14.18023 -10.53955,21.26605 -29.67491,36.64579 -53.33122,42.8641 -8.42615,2.2149 -25.0461,2.96436 -28.72239,1.29521 z"
         id="path3020" />
      <path
         inkscape:connector-curvature="0"
         style="fill:#ffffff;fill-opacity:1;stroke-width:0.64695752"
         d="m 197.30795,392.59795 c -13.62756,-1.90945 -25.85463,-6.73851 -37.01847,-14.62039 -10.34605,-7.30448 -19.43734,-17.56672 -19.64417,-22.1743 l -0.099,-2.20589 5.81294,-0.86395 c 49.21007,-7.31392 77.60012,-15.93512 126.37972,-38.37767 5.0023,-2.30146 9.73722,-4.18447 10.52206,-4.18447 1.30504,0 1.38965,0.27228 0.9902,3.18661 -0.93296,6.80664 -9.49636,25.72598 -18.40535,40.66342 -12.34788,20.70333 -23.54177,32.27453 -34.56372,35.72874 -9.98431,3.12902 -23.73906,4.28202 -33.97419,2.8479 z"
         id="path3018" />
      <path
         inkscape:connector-curvature="0"
         style="fill:#ffffff;fill-opacity:1;stroke-width:0.64695752"
         d="m 162.16837,337.08662 c -6.0713,-1.19416 -9.12868,-2.65863 -15.53948,-7.44335 -16.38988,-12.23266 -27.50078,-30.17403 -31.11705,-50.24639 -2.60632,-14.4666 0.15045,-36.92927 4.53222,-36.92927 0.55456,0 4.00959,2.70892 7.67783,6.01983 28.96137,26.14014 59.51663,45.68581 102.80785,65.76439 8.04269,3.73022 14.72853,7.09858 14.85742,7.48525 0.40061,1.20182 -3.97811,3.36449 -12.51769,6.18255 -25.73432,8.49232 -54.90298,12.27429 -70.7011,9.16699 z"
         id="path3014" />
      <path
         inkscape:connector-curvature="0"
         style="fill:#ffffff;fill-opacity:1;stroke-width:0.64695752"
         d="M 208.09572,298.82903 C 188.65875,288.6719 163.88161,268.7731 153.67024,255.1193 c -5.13984,-6.87255 -7.01741,-11.06418 -7.94574,-17.73863 -3.48371,-25.04693 5.91862,-50.90134 24.98709,-68.7092 9.07537,-8.4754 20.94794,-15.21647 23.06743,-13.09735 0.55531,0.55522 0.82379,6.06795 0.89457,18.36904 0.22314,38.77418 5.18586,68.97921 19.09971,116.24827 1.69222,5.74893 2.89311,10.74977 2.66864,11.11297 -0.7224,1.16886 -2.22576,0.72298 -8.34622,-2.47537 z"
         id="path3012" />
      <path
         inkscape:connector-curvature="0"
         style="fill:#ffffff;fill-opacity:1;stroke-width:0.64695752"
         d="m 207.37365,252.21283 c -0.27029,-0.65822 -0.45782,-10.12135 -0.41673,-21.02916 0.11968,-31.77002 4.15428,-62.44756 10.65092,-80.98547 3.84631,-10.97527 7.41505,-15.48622 17.51645,-22.14105 22.52371,-14.8387 67.18692,-25.72687 114.00401,-27.79236 26.86193,-1.185104 46.13792,1.67904 48.22381,7.16538 1.62995,4.28695 -1.8691,7.27461 -18.1333,15.48321 -61.44199,31.01001 -130.57286,82.9273 -163.97407,123.14458 -3.35814,4.04341 -6.39234,7.35165 -6.74267,7.35165 -0.35033,0 -0.85812,-0.53854 -1.12842,-1.19678 z"
         id="path3001" />
      <path
         inkscape:connector-curvature="0"
         style="fill:#ffffff;fill-opacity:1;stroke-width:0.64695752"
         d="m 356.08577,367.80581 c -1.21605,0.58345 -2.59577,0.72505 -3.0836,0.31645 -0.48555,-0.40669 -2.33209,-5.29452 -4.10342,-10.86182 -4.88636,-15.35806 -8.92915,-26.01635 -14.63002,-38.5701 -11.18312,-24.6262 -21.56809,-42.18402 -46.79853,-79.12213 -2.86306,-4.19159 -1.86382,-5.25604 4.34516,-4.62875 5.18357,0.52369 19.90242,3.82709 27.20189,6.10499 22.0105,6.86869 37.74941,14.64462 47.48962,23.46262 5.06789,4.58806 5.27027,4.8777 8.41255,12.04013 9.53545,21.73482 9.03893,46.27971 -1.38383,68.40785 -3.71248,7.88183 -13.80967,21.10422 -17.44983,22.85076 z"
         id="path3020-0" />
      <path
         inkscape:connector-curvature="0"
         style="fill:#ffffff;fill-opacity:1;stroke-width:0.64695752"
         d="m 390.56287,245.63078 c -0.20273,1.33344 -0.86277,2.5533 -1.47514,2.72629 -0.60953,0.17219 -5.68842,-1.05472 -11.28644,-2.72646 -15.44275,-4.61169 -26.52686,-7.27362 -40.11105,-9.63295 -26.64755,-4.62819 -47.00476,-5.93511 -91.73728,-5.88948 -5.07607,0.005 -5.3929,-1.41998 -1.37773,-6.1974 3.35206,-3.98839 14.3712,-14.29059 20.36447,-19.03948 18.07182,-14.31957 33.36125,-22.9458 46.13337,-26.02825 6.64544,-1.60381 6.99873,-1.60792 14.68696,-0.17071 23.33036,4.36134 43.33291,18.59499 55.7481,39.66989 4.42217,7.50667 9.66161,23.29695 9.05474,27.28855 z"
         id="path3020-8" />
    </g>
  </g>
</svg>
