<?xml version="1.0" encoding="UTF-8" standalone="no"?>
<!-- Generator: Adobe Illustrator 19.0.0, SVG Export Plug-In . SVG Version: 6.00 Build 0)  -->

<svg
   xmlns:dc="http://purl.org/dc/elements/1.1/"
   xmlns:cc="http://creativecommons.org/ns#"
   xmlns:rdf="http://www.w3.org/1999/02/22-rdf-syntax-ns#"
   xmlns:svg="http://www.w3.org/2000/svg"
   xmlns="http://www.w3.org/2000/svg"
   xmlns:sodipodi="http://sodipodi.sourceforge.net/DTD/sodipodi-0.dtd"
   xmlns:inkscape="http://www.inkscape.org/namespaces/inkscape"
   version="1.1"
   id="Layer_1"
   x="0px"
   y="0px"
   viewBox="0 0 512 512"
   xml:space="preserve"
   inkscape:version="0.92.3 (2405546, 2018-03-11)"
   width="512"
   height="512"
   sodipodi:docname="simon.svg"><metadata
     id="metadata57"><rdf:RDF><cc:Work
         rdf:about=""><dc:format>image/svg+xml</dc:format><dc:type
           rdf:resource="http://purl.org/dc/dcmitype/StillImage" /><dc:title></dc:title></cc:Work></rdf:RDF></metadata><defs
     id="defs55" /><sodipodi:namedview
     pagecolor="#ffffff"
     bordercolor="#666666"
     borderopacity="1"
     objecttolerance="10"
     gridtolerance="10"
     guidetolerance="10"
     inkscape:pageopacity="0"
     inkscape:pageshadow="2"
     inkscape:window-width="1009"
     inkscape:window-height="667"
     id="namedview53"
     showgrid="false"
     inkscape:zoom="0.37165185"
     inkscape:cx="41.298064"
     inkscape:cy="193.04978"
     inkscape:window-x="0"
     inkscape:window-y="28"
     inkscape:window-maximized="0"
     inkscape:current-layer="Layer_1"
     units="px" /><g
     id="g23"
     transform="translate(0,550.767)" /><g
     id="g25"
     transform="translate(0,550.767)" /><g
     id="g27"
     transform="translate(0,550.767)" /><g
     id="g29"
     transform="translate(0,550.767)" /><g
     id="g31"
     transform="translate(0,550.767)" /><g
     id="g33"
     transform="translate(0,550.767)" /><g
     id="g35"
     transform="translate(0,550.767)" /><g
     id="g37"
     transform="translate(0,550.767)" /><g
     id="g39"
     transform="translate(0,550.767)" /><g
     id="g41"
     transform="translate(0,550.767)" /><g
     id="g43"
     transform="translate(0,550.767)" /><g
     id="g45"
     transform="translate(0,550.767)" /><g
     id="g47"
     transform="translate(0,550.767)" /><g
     id="g49"
     transform="translate(0,550.767)" /><g
     id="g51"
     transform="translate(0,550.767)" /><g
     id="g920"><path
       style="fill:#333333;fill-opacity:1;stroke-width:11.10955811"
       inkscape:connector-curvature="0"
       d="m 432.91336,56.47398 c 102.1928,88.57459 105.82665,249.6997 8.1168,359.89879 C 343.32009,526.57182 181.27948,544.10062 79.086673,455.52603 -23.106166,366.95144 -26.740027,205.82632 70.96988,95.62724 168.67976,-14.57184 330.72029,-32.10061 432.91336,56.47398 Z"
       id="path911" /><path
       style="opacity:1;fill:#000000;fill-opacity:0.49019608;stroke-width:11.10955238"
       inkscape:connector-curvature="0"
       d="m 511.63501,224.90353 c -1.5514,61.31166 -25.1612,124.1546 -70.9663,175.81449 C 342.95883,510.91712 180.91854,528.44582 78.72573,439.87128 30.827126,398.35566 4.4968518,340.92284 0.1938621,280.22881 0.79911335,346.58548 27.117419,410.48221 79.078634,455.51906 181.27144,544.09362 343.31942,526.55622 441.02161,416.3658 c 49.70487,-56.05814 73.00495,-125.29098 70.6134,-191.46227 z"
       id="path913" /><g
       style="fill:#000000;fill-opacity:0.49019608"
       transform="translate(20.000003,19.999996)"
       id="g101"><path
         sodipodi:nodetypes="cczzzc"
         inkscape:connector-curvature="0"
         id="path93"
         d="m 235.81808,236.07782 h 40.39653 c 0,0 32.75919,-82.25243 22.44251,-107.16316 -10.31668,-24.91073 -26.25547,-28.56317 -43.7629,-28.61412 -17.50743,-0.0509 -34.17867,3.43897 -44.32397,28.61412 -10.14531,25.17514 25.24783,107.16316 25.24783,107.16316 z"
         style="fill:#000000;fill-opacity:0.49019608;fill-rule:evenodd;stroke:none;stroke-width:0.58978391px;stroke-linecap:butt;stroke-linejoin:miter;stroke-opacity:1" /><path
         sodipodi:nodetypes="cczzzc"
         inkscape:connector-curvature="0"
         id="path95"
         d="m 276.22222,236.03386 v 40.39654 c 0,0 82.25241,32.7592 107.16313,22.44252 24.91072,-10.31669 28.56316,-26.25548 28.61411,-43.76291 0.051,-17.50744 -3.43897,-34.17868 -28.61411,-44.32399 -25.17513,-10.14531 -107.16313,25.24784 -107.16313,25.24784 z"
         style="fill:#000000;fill-opacity:0.49019608;fill-rule:evenodd;stroke:none;stroke-width:0.58978391px;stroke-linecap:butt;stroke-linejoin:miter;stroke-opacity:1" /><path
         sodipodi:nodetypes="cczzzc"
         inkscape:connector-curvature="0"
         id="path97"
         d="m 276.18192,276.22218 h -40.39653 c 0,0 -32.75919,82.25243 -22.44251,107.16316 10.31668,24.91073 26.25547,28.56317 43.7629,28.61412 17.50743,0.051 34.17867,-3.43897 44.32397,-28.61412 10.14531,-25.17514 -25.24783,-107.16316 -25.24783,-107.16316 z"
         style="fill:#000000;fill-opacity:0.49019608;fill-rule:evenodd;stroke:none;stroke-width:0.58978391px;stroke-linecap:butt;stroke-linejoin:miter;stroke-opacity:1" /><path
         sodipodi:nodetypes="cczzzc"
         inkscape:connector-curvature="0"
         id="path99"
         d="M 235.77778,276.26614 V 235.8696 c 0,0 -82.25241,-32.7592 -107.16313,-22.44252 -24.91072,10.31669 -28.56316,26.25548 -28.61411,43.76291 -0.05095,17.50744 3.43897,34.17867 28.61411,44.32399 25.17513,10.14531 107.16313,-25.24784 107.16313,-25.24784 z"
         style="fill:#000000;fill-opacity:0.49019608;fill-rule:evenodd;stroke:none;stroke-width:0.58978391px;stroke-linecap:butt;stroke-linejoin:miter;stroke-opacity:1" /></g><g
       id="g91"><path
         style="fill:#68b723;fill-opacity:1;fill-rule:evenodd;stroke:none;stroke-width:0.58978391px;stroke-linecap:butt;stroke-linejoin:miter;stroke-opacity:1"
         d="m 235.81808,236.07782 h 40.39653 c 0,0 32.75919,-82.25243 22.44251,-107.16316 -10.31668,-24.91073 -26.25547,-28.56317 -43.7629,-28.61412 -17.50743,-0.0509 -34.17867,3.43897 -44.32397,28.61412 -10.14531,25.17514 25.24783,107.16316 25.24783,107.16316 z"
         id="path3360"
         inkscape:connector-curvature="0"
         sodipodi:nodetypes="cczzzc" /><path
         style="fill:#f9c440;fill-opacity:1;fill-rule:evenodd;stroke:none;stroke-width:0.58978391px;stroke-linecap:butt;stroke-linejoin:miter;stroke-opacity:1"
         d="m 276.22222,236.03386 v 40.39654 c 0,0 82.25241,32.7592 107.16313,22.44252 24.91072,-10.31669 28.56316,-26.25548 28.61411,-43.76291 0.051,-17.50744 -3.43897,-34.17868 -28.61411,-44.32399 -25.17513,-10.14531 -107.16313,25.24784 -107.16313,25.24784 z"
         id="path3360-3"
         inkscape:connector-curvature="0"
         sodipodi:nodetypes="cczzzc" /><path
         style="fill:#3689e6;fill-opacity:1;fill-rule:evenodd;stroke:none;stroke-width:0.58978391px;stroke-linecap:butt;stroke-linejoin:miter;stroke-opacity:1"
         d="m 276.18192,276.22218 h -40.39653 c 0,0 -32.75919,82.25243 -22.44251,107.16316 10.31668,24.91073 26.25547,28.56317 43.7629,28.61412 17.50743,0.051 34.17867,-3.43897 44.32397,-28.61412 10.14531,-25.17514 -25.24783,-107.16316 -25.24783,-107.16316 z"
         id="path3360-6"
         inkscape:connector-curvature="0"
         sodipodi:nodetypes="cczzzc" /><path
         style="fill:#c6262e;fill-opacity:1;fill-rule:evenodd;stroke:none;stroke-width:0.58978391px;stroke-linecap:butt;stroke-linejoin:miter;stroke-opacity:1"
         d="M 235.77778,276.26614 V 235.8696 c 0,0 -82.25241,-32.7592 -107.16313,-22.44252 -24.91072,10.31669 -28.56316,26.25548 -28.61411,43.76291 -0.05095,17.50744 3.43897,34.17867 28.61411,44.32399 25.17513,10.14531 107.16313,-25.24784 107.16313,-25.24784 z"
         id="path3360-3-7"
         inkscape:connector-curvature="0"
         sodipodi:nodetypes="cczzzc" /></g></g></svg>