<?xml version="1.0" encoding="UTF-8" standalone="no"?>
<!-- Created with Inkscape (http://www.inkscape.org/) -->

<svg
   xmlns:dc="http://purl.org/dc/elements/1.1/"
   xmlns:cc="http://creativecommons.org/ns#"
   xmlns:rdf="http://www.w3.org/1999/02/22-rdf-syntax-ns#"
   xmlns:svg="http://www.w3.org/2000/svg"
   xmlns="http://www.w3.org/2000/svg"
   xmlns:sodipodi="http://sodipodi.sourceforge.net/DTD/sodipodi-0.dtd"
   xmlns:inkscape="http://www.inkscape.org/namespaces/inkscape"
   id="svg2"
   version="1.1"
   inkscape:version="0.92.3 (2405546, 2018-03-11)"
   width="512"
   height="512"
   sodipodi:docname="Skanlite.svg"
   viewBox="0 0 512 512">
  <metadata
     id="metadata8">
    <rdf:RDF>
      <cc:Work
         rdf:about="">
        <dc:format>image/svg+xml</dc:format>
        <dc:type
           rdf:resource="http://purl.org/dc/dcmitype/StillImage" />
        <dc:title></dc:title>
      </cc:Work>
    </rdf:RDF>
  </metadata>
  <defs
     id="defs6" />
  <sodipodi:namedview
     pagecolor="#ffffff"
     bordercolor="#666666"
     borderopacity="1"
     objecttolerance="10"
     gridtolerance="10"
     guidetolerance="10"
     inkscape:pageopacity="0"
     inkscape:pageshadow="2"
     inkscape:window-width="1366"
     inkscape:window-height="711"
     id="namedview4"
     showgrid="false"
     inkscape:zoom="0.295"
     inkscape:cx="-406.03333"
     inkscape:cy="594.11014"
     inkscape:window-x="0"
     inkscape:window-y="28"
     inkscape:window-maximized="1"
     inkscape:current-layer="svg2"
     showguides="true"
     inkscape:guide-bbox="true"
     inkscape:document-units="px"
     inkscape:snap-bbox="true" />
  <g
     transform="translate(-1.8926195e-6)"
     id="g827">
    <path
       id="path881"
       d="M 432.91329,56.473973 C 535.1062,145.04856 538.74006,306.17368 441.03009,416.37276 343.32012,526.57184 181.27964,544.10061 79.086729,455.52602 -23.106179,366.95143 -26.740044,205.82632 70.969929,95.627234 168.6799,-14.571848 330.72038,-32.100616 432.91329,56.473973 Z"
       inkscape:connector-curvature="0"
       style="fill:#3689e6;fill-opacity:1;stroke-width:11.10955811" />
    <path
       id="path883"
       d="m 511.63551,224.90353 c -1.5514,61.31166 -25.16123,124.1546 -70.96638,175.81449 C 342.95916,510.91711 180.91869,528.44586 78.725782,439.87128 30.827128,398.35565 4.4968259,340.92284 0.193832,280.2288 0.79908356,346.58548 27.117415,410.4822 79.078686,455.51905 181.2716,544.09363 343.31975,526.55621 441.02203,416.36579 490.72697,360.30765 514.02705,291.07482 511.63551,224.90353 Z"
       inkscape:connector-curvature="0"
       style="opacity:1;fill:#000000;fill-opacity:0.49019608;stroke-width:11.10955811" />
    <path
       style="fill:#000000;fill-opacity:0.49019608;stroke-width:0.69798654"
       d="m 148.24186,425.42953 c -4.66097,-2.35039 -6.25528,-5.97034 -6.25528,-14.20287 v -6.40372 l -2.97123,-0.44557 C 131.62446,403.26904 125.0475,398.32704 121.82859,391.46305 120.01829,387.60275 120,387.39973 120,371.16107 c 0,-16.23865 0.0183,-16.44167 1.82859,-20.30197 2.32434,-4.9564 6.0674,-8.69946 11.0238,-11.02379 l 3.89929,-1.8286 H 276 415.24832 l 3.89929,1.8286 c 4.9564,2.32433 8.69946,6.06739 11.02379,11.02379 1.81031,3.8603 1.82859,4.06332 1.82859,20.30197 0,16.23866 -0.0183,16.44168 -1.82859,20.30198 -3.21891,6.86399 -9.79587,11.80599 -17.18675,12.91432 l -2.97123,0.44557 v 6.40372 c 0,8.23253 -1.59431,11.85248 -6.25528,14.20287 L 400.6438,427 H 276 151.35619 Z M 168.73957,370.209 c 7.17155,-2.99646 8.91982,-12.39841 3.34255,-17.97568 -7.84195,-7.84194 -20.69235,-0.81796 -18.62867,10.18237 1.23278,6.57128 8.8799,10.47 15.28612,7.79331 z m 33.50336,0 c 7.17155,-2.99646 8.91982,-12.39841 3.34254,-17.97568 -4.52752,-4.52753 -10.99241,-4.52753 -15.51994,0 -8.63168,8.63168 0.89249,22.69082 12.1774,17.97568 z m 33.50336,0 c 7.17154,-2.99646 8.91981,-12.39841 3.34254,-17.97568 -4.52752,-4.52753 -10.99241,-4.52753 -15.51994,0 -8.63169,8.63168 0.89249,22.69082 12.1774,17.97568 z M 310.5482,244.76743 c -54.51158,-45.71515 -99.50457,-83.62351 -99.98444,-84.24078 -1.74391,-2.24328 -0.99394,-4.82501 2.68626,-9.24721 4.42425,-5.31628 7.03186,-6.958 11.05705,-6.96139 2.65833,-0.002 5.48709,1.29965 19.89262,9.15524 17.23319,9.39757 29.0863,16.79684 36.38268,22.71177 22.52706,18.26195 101.54296,85.21169 107.67835,91.23529 6.411,6.29418 28.85486,32.96858 33.82831,40.20476 0.77122,1.1221 1.18613,3.09976 1.18613,5.65366 0,4.20981 -1.09299,6.23588 -6.46798,11.98969 -4.89613,5.24119 4.18693,12.12245 -106.25898,-80.50103 z"
       id="path862"
       inkscape:connector-curvature="0" />
    <path
       inkscape:connector-curvature="0"
       id="path860"
       d="m 128.24186,395.42953 c -4.66097,-2.35039 -6.25528,-5.97034 -6.25528,-14.20287 v -6.40372 l -2.97123,-0.44557 C 111.62446,373.26904 105.0475,368.32704 101.82859,361.46305 100.01829,357.60275 100,357.39973 100,341.16107 c 0,-16.23865 0.0183,-16.44167 1.82859,-20.30197 2.32434,-4.9564 6.0674,-8.69946 11.0238,-11.02379 l 3.89929,-1.8286 H 256 395.24832 l 3.89929,1.8286 c 4.9564,2.32433 8.69946,6.06739 11.02379,11.02379 1.81031,3.8603 1.82859,4.06332 1.82859,20.30197 0,16.23866 -0.0183,16.44168 -1.82859,20.30198 -3.21891,6.86399 -9.79587,11.80599 -17.18675,12.91432 l -2.97123,0.44557 v 6.40372 c 0,8.23253 -1.59431,11.85248 -6.25528,14.20287 L 380.6438,397 H 256 131.35619 Z M 148.73957,340.209 c 7.17155,-2.99646 8.91982,-12.39841 3.34255,-17.97568 -7.84195,-7.84194 -20.69235,-0.81796 -18.62867,10.18237 1.23278,6.57128 8.8799,10.47 15.28612,7.79331 z m 33.50336,0 c 7.17155,-2.99646 8.91982,-12.39841 3.34254,-17.97568 -4.52752,-4.52753 -10.99241,-4.52753 -15.51994,0 -8.63168,8.63168 0.89249,22.69082 12.1774,17.97568 z m 33.50336,0 c 7.17154,-2.99646 8.91981,-12.39841 3.34254,-17.97568 -4.52752,-4.52753 -10.99241,-4.52753 -15.51994,0 -8.63169,8.63168 0.89249,22.69082 12.1774,17.97568 z M 290.5482,214.76743 c -54.51158,-45.71515 -99.50457,-83.62351 -99.98444,-84.24078 -1.74391,-2.24328 -0.99394,-4.82501 2.68626,-9.24721 4.42425,-5.31628 7.03186,-6.958 11.05705,-6.96139 2.65833,-0.002 5.48709,1.29965 19.89262,9.15524 17.23319,9.39757 29.0863,16.79684 36.38268,22.71177 22.52706,18.26195 101.54296,85.21169 107.67835,91.23529 6.411,6.29418 28.85486,32.96858 33.82831,40.20476 0.77122,1.1221 1.18613,3.09976 1.18613,5.65366 0,4.20981 -1.09299,6.23588 -6.46798,11.98969 -4.89613,5.24119 4.18693,12.12245 -106.25898,-80.50103 z"
       style="fill:#ffffff;stroke-width:0.69798654" />
  </g>
</svg>
