<?xml version="1.0" encoding="UTF-8" standalone="no"?>
<!-- Generator: flash2svg, http://dissentgraphics.com/tools/flash2svg -->

<svg
   xmlns:dc="http://purl.org/dc/elements/1.1/"
   xmlns:cc="http://creativecommons.org/ns#"
   xmlns:rdf="http://www.w3.org/1999/02/22-rdf-syntax-ns#"
   xmlns:svg="http://www.w3.org/2000/svg"
   xmlns="http://www.w3.org/2000/svg"
   xmlns:sodipodi="http://sodipodi.sourceforge.net/DTD/sodipodi-0.dtd"
   xmlns:inkscape="http://www.inkscape.org/namespaces/inkscape"
   id="Messages"
   version="1.1"
   style="image-rendering:optimizeSpeed"
   x="0px"
   y="0px"
   width="512"
   height="512"
   viewBox="0 0 512 512"
   enable-background="new 0 0 1024 1024"
   inkscape:version="0.92.3 (2405546, 2018-03-11)"
   sodipodi:docname="smuxi-frontend-gnome.svg">
  <metadata
     id="metadata25">
    <rdf:RDF>
      <cc:Work
         rdf:about="">
        <dc:format>image/svg+xml</dc:format>
        <dc:type
           rdf:resource="http://purl.org/dc/dcmitype/StillImage" />
        <dc:title></dc:title>
      </cc:Work>
    </rdf:RDF>
  </metadata>
  <sodipodi:namedview
     pagecolor="#ffffff"
     bordercolor="#666666"
     borderopacity="1"
     objecttolerance="10"
     gridtolerance="10"
     guidetolerance="10"
     inkscape:pageopacity="0"
     inkscape:pageshadow="2"
     inkscape:window-width="1366"
     inkscape:window-height="711"
     id="namedview23"
     showgrid="false"
     inkscape:zoom="0.65186406"
     inkscape:cx="132.26792"
     inkscape:cy="170.22987"
     inkscape:window-x="0"
     inkscape:window-y="28"
     inkscape:window-maximized="1"
     inkscape:current-layer="Messages" />
  <defs
     transform="matrix(1 0 0 1 0 0) "
     id="defs3" />
  <g
     transform="translate(1.8019342e-8,4.5874598e-6)"
     style="image-rendering:optimizeSpeed"
     id="g841">
    <path
       style="fill:#3689e6;fill-opacity:1;stroke-width:11.10955811;image-rendering:optimizeSpeed"
       inkscape:connector-curvature="0"
       d="M 432.91327,56.473965 C 535.10618,145.04855 538.74005,306.17367 441.03007,416.37275 343.3201,526.57182 181.27964,544.10062 79.086729,455.52601 -23.106186,366.95142 -26.740042,205.8263 70.969928,95.627225 168.6799,-14.571855 330.72036,-32.100625 432.91327,56.473965 Z"
       id="path27" />
    <path
       style="opacity:1;fill:#000000;fill-opacity:0.49019608;stroke-width:11.10955811;image-rendering:optimizeSpeed"
       inkscape:connector-curvature="0"
       d="M 511.63551,224.90351 C 510.08412,286.21516 486.47428,349.05812 440.66913,400.71798 342.95915,510.91712 180.91869,528.44582 78.725776,439.87128 30.827124,398.35563 4.4968216,340.92283 0.19382772,280.2288 0.79907938,346.58547 27.117411,410.48217 79.078682,455.51906 181.27159,544.09362 343.31975,526.55622 441.02202,416.36576 490.72697,360.30765 514.02704,291.0748 511.63551,224.90351 Z"
       id="path51" />
    <path
       style="fill:#000000;fill-opacity:0.49019608;stroke-width:0.75068015;image-rendering:optimizeSpeed"
       d="m 413.8104,430.73083 c -2.47725,-0.9391 -17.42245,-6.45203 -33.21156,-12.25088 -34.42142,-12.64203 -32.985,-12.42891 -47.95957,-7.11519 -21.86391,7.75842 -33.0622,9.69139 -56.20336,9.70129 -17.48651,0.008 -23.67209,-0.58016 -36.03265,-3.42312 C 174.86571,402.56915 126.98524,349.4957 120.6785,284.9331 c -6.01901,-61.61681 28.44668,-121.24649 85.94415,-148.69357 82.62599,-39.442505 181.97566,-2.04386 215.03965,80.94833 17.26235,43.32934 12.7751,90.90739 -12.48223,132.34764 -8.28034,13.5857 -8.37102,10.17914 1.30012,48.83347 4.54684,18.17306 8.16963,33.27314 8.05062,33.55566 -0.11868,0.28271 -2.24319,-0.25474 -4.72041,-1.1938 z M 214.18854,298.30862 c 4.678,-2.26458 9.23619,-6.83501 11.5759,-11.60697 2.65104,-5.40699 2.66976,-14.90445 0.04,-20.24878 -2.34351,-4.76236 -6.93206,-9.35093 -11.69444,-11.69446 -3.0735,-1.51238 -4.86236,-1.83735 -10.11465,-1.83735 -7.52245,0 -11.92916,1.75548 -16.91007,6.73633 -12.61193,12.61198 -7.33273,34.33236 9.70076,39.91219 4.58571,1.50221 12.94602,0.89639 17.40258,-1.26096 z m 72.0653,0 c 4.678,-2.26458 9.23619,-6.83501 11.5759,-11.60697 2.65104,-5.40699 2.66976,-14.90445 0.04,-20.24878 -2.34352,-4.76236 -6.93206,-9.35093 -11.69444,-11.69446 -3.07351,-1.51238 -4.86237,-1.83735 -10.11466,-1.83735 -7.52245,0 -11.92916,1.75548 -16.91006,6.73633 -12.61194,12.61198 -7.33276,34.33236 9.70076,39.91219 4.5857,1.50221 12.94601,0.89639 17.40257,-1.26096 z m 72.0653,0 c 4.67798,-2.26458 9.2362,-6.83501 11.57588,-11.60697 2.65107,-5.40699 2.66979,-14.90445 0.04,-20.24878 -2.34351,-4.76236 -6.93209,-9.35093 -11.69448,-11.69446 -3.07347,-1.51238 -4.86233,-1.83735 -10.11462,-1.83735 -7.52245,0 -11.92916,1.75548 -16.91006,6.73633 -12.61194,12.61198 -7.33276,34.33236 9.70075,39.91219 4.58571,1.50221 12.94602,0.89639 17.40258,-1.26096 z"
       id="path4540"
       inkscape:connector-curvature="0" />
    <path
       inkscape:connector-curvature="0"
       id="path4538"
       d="m 393.8104,410.73082 c -2.47726,-0.9391 -17.42246,-6.45203 -33.21158,-12.25088 -34.42142,-12.64203 -32.985,-12.4289 -47.95957,-7.11519 -21.86391,7.75843 -33.0622,9.69139 -56.20336,9.70129 -17.48651,0.008 -23.67209,-0.58016 -36.03265,-3.42312 C 154.86569,382.56915 106.98522,329.4957 100.67849,264.93309 94.659471,203.31628 129.12516,143.6866 186.62263,116.23952 c 82.62599,-39.442505 181.97567,-2.04386 215.03966,80.94833 17.26235,43.32934 12.7751,90.90739 -12.48223,132.34765 -8.28034,13.5857 -8.37101,10.17913 1.30012,48.83346 4.54685,18.17306 8.16964,33.27314 8.05062,33.55566 -0.11868,0.28271 -2.24319,-0.25474 -4.7204,-1.1938 z M 194.18852,278.30861 c 4.678,-2.26458 9.23619,-6.83501 11.5759,-11.60697 2.65104,-5.40699 2.66977,-14.90445 0.04,-20.24878 -2.34351,-4.76235 -6.93206,-9.35093 -11.69444,-11.69446 -3.0735,-1.51238 -4.86236,-1.83734 -10.11465,-1.83734 -7.52245,0 -11.92916,1.75547 -16.91007,6.73632 -12.61193,12.61199 -7.33273,34.33236 9.70076,39.91219 4.58571,1.50222 12.94602,0.89639 17.40258,-1.26096 z m 72.0653,0 c 4.678,-2.26458 9.23619,-6.83501 11.5759,-11.60697 2.65104,-5.40699 2.66977,-14.90445 0.04,-20.24878 -2.34352,-4.76235 -6.93206,-9.35093 -11.69444,-11.69446 -3.0735,-1.51238 -4.86237,-1.83734 -10.11465,-1.83734 -7.52246,0 -11.92916,1.75547 -16.91007,6.73632 -12.61194,12.61199 -7.33276,34.33236 9.70076,39.91219 4.5857,1.50222 12.94602,0.89639 17.40257,-1.26096 z m 72.0653,0 c 4.67798,-2.26458 9.2362,-6.83501 11.57588,-11.60697 2.65107,-5.40699 2.66979,-14.90445 0.04,-20.24878 -2.34351,-4.76235 -6.93208,-9.35093 -11.69447,-11.69446 -3.07347,-1.51238 -4.86234,-1.83734 -10.11463,-1.83734 -7.52245,0 -11.92916,1.75547 -16.91006,6.73632 -12.61194,12.61199 -7.33276,34.33236 9.70076,39.91219 4.5857,1.50222 12.94602,0.89639 17.40257,-1.26096 z"
       style="fill:#ffffff;stroke-width:0.75068015;image-rendering:optimizeSpeed" />
  </g>
</svg>
