<?xml version="1.0" encoding="UTF-8" standalone="no"?>
<!-- Created with Inkscape (http://www.inkscape.org/) -->

<svg
   xmlns:dc="http://purl.org/dc/elements/1.1/"
   xmlns:cc="http://creativecommons.org/ns#"
   xmlns:rdf="http://www.w3.org/1999/02/22-rdf-syntax-ns#"
   xmlns:svg="http://www.w3.org/2000/svg"
   xmlns="http://www.w3.org/2000/svg"
   xmlns:sodipodi="http://sodipodi.sourceforge.net/DTD/sodipodi-0.dtd"
   xmlns:inkscape="http://www.inkscape.org/namespaces/inkscape"
   id="svg2"
   version="1.1"
   inkscape:version="0.92.3 (2405546, 2018-03-11)"
   width="512"
   height="512"
   sodipodi:docname="sqliteman.svg">
  <metadata
     id="metadata8">
    <rdf:RDF>
      <cc:Work
         rdf:about="">
        <dc:format>image/svg+xml</dc:format>
        <dc:type
           rdf:resource="http://purl.org/dc/dcmitype/StillImage" />
        <dc:title></dc:title>
      </cc:Work>
    </rdf:RDF>
  </metadata>
  <defs
     id="defs6" />
  <sodipodi:namedview
     pagecolor="#ffffff"
     bordercolor="#666666"
     borderopacity="1"
     objecttolerance="10"
     gridtolerance="10"
     guidetolerance="10"
     inkscape:pageopacity="0"
     inkscape:pageshadow="2"
     inkscape:window-width="740"
     inkscape:window-height="530"
     id="namedview4"
     showgrid="false"
     inkscape:zoom="0.30790089"
     inkscape:cx="269.74402"
     inkscape:cy="158.04902"
     inkscape:window-x="4"
     inkscape:window-y="86"
     inkscape:window-maximized="0"
     inkscape:current-layer="svg2" />
  <g
     transform="translate(-7.329681e-8,3e-6)"
     id="g827">
    <path
       style="fill:#3689e6;fill-opacity:1;stroke-width:11.10955811"
       inkscape:connector-curvature="0"
       d="m 432.91326,56.474 c 102.19291,88.57459 105.82678,249.69971 8.1168,359.89879 C 343.32009,526.57181 181.27965,544.10061 79.086741,455.52604 -23.106205,366.95146 -26.740032,205.82634 70.969941,95.62726 168.67991,-14.57182 330.72036,-32.10059 432.91326,56.474 Z"
       id="path949" />
    <path
       style="opacity:1;fill:#000000;fill-opacity:0.49019608;stroke-width:11.10955811"
       inkscape:connector-curvature="0"
       d="m 511.6355,224.90355 c -1.55139,61.31164 -25.16123,124.1546 -70.96638,175.81447 C 342.95915,510.91711 180.9187,528.44581 78.725758,439.87132 30.827125,398.35567 4.4968188,340.92287 0.19382586,280.22884 0.79907986,346.58551 27.117405,410.48221 79.07869,455.51914 181.2716,544.09361 343.31975,526.55621 441.02201,416.3658 490.72696,360.30769 514.02703,291.07483 511.6355,224.90355 Z"
       id="path953" />
    <path
       inkscape:connector-curvature="0"
       id="path843"
       d="m 232.65122,430.41894 c -16.45596,-2.31481 -34.84127,-6.52306 -46.28961,-10.59532 -23.95027,-8.51905 -43.5873,-22.38131 -50.0355,-35.3212 C 133.12299,378.0746 133,376.98126 133,354.93542 c 0,-12.80188 0.5129,-22.89233 1.16364,-22.89233 0.64002,0 2.65652,2.54742 4.48116,5.66093 16.8523,28.75625 76.81012,47.86528 142.22474,45.3279 60.53216,-2.34784 108.52782,-20.5641 121.64008,-46.167 1.72038,-3.35917 3.67063,-6.10763 4.33388,-6.10763 2.18564,0 2.93031,8.8831 2.35072,28.04079 -0.51849,17.13691 -0.87838,19.48912 -3.87459,25.32345 -10.45713,20.36245 -40.56403,36.10679 -85.14783,44.52809 -18.65529,3.52356 -67.96275,4.52037 -87.52058,1.76932 z m 7.07201,-62.52669 c -39.71609,-3.98995 -76.51271,-17.54055 -93.85677,-34.56336 -11.44347,-11.23147 -12.15543,-13.49722 -12.62617,-40.18196 -0.27073,-15.34632 0.0399,-22.82329 0.94824,-22.82329 0.74296,0 2.79082,2.28106 4.55077,5.06899 11.17067,17.69556 40.29205,32.50683 78.35386,39.85131 75.88752,14.64332 164.68573,-4.85846 184.85584,-40.59786 2.13992,-3.79177 4.37871,-6.89408 4.97506,-6.89408 1.95789,0 2.86502,11.51733 2.27573,28.89316 -0.51976,15.32535 -0.93966,17.82074 -4.07809,24.23538 -16.18423,33.0794 -91.36751,54.4489 -165.39847,47.01171 z m 3.85746,-62.99841 c -50.95231,-4.50128 -94.31214,-23.49511 -106.44203,-46.62711 -3.24403,-6.18645 -3.48195,-7.81527 -3.90795,-26.75422 -0.55441,-24.6486 0.27172,-27.00097 6.22463,-17.72418 10.82691,16.87233 36.28982,29.83964 73.16189,37.25871 80.90382,16.27876 171.40646,-3.68811 190.92122,-42.1214 1.16704,-2.2984 2.59562,-4.17893 3.17466,-4.17893 1.63597,0 2.81706,34.69291 1.46406,43.00591 -6.14862,37.77859 -82.7507,64.37177 -164.59648,57.14122 z m 6.29217,-62.98959 c -53.01041,-3.37043 -101.35775,-24.01342 -112.55443,-48.05771 -15.34176,-32.94562 30.98419,-65.11343 104.82352,-72.78729 20.78312,-2.15992 61.06913,-0.87 79.31569,2.53961 21.42917,4.00434 35.66788,8.48933 51.64184,16.26639 23.40594,11.39544 35.06643,24.9956 35.06643,40.89957 0,37.92347 -73.98541,66.49974 -158.29305,61.13943 z"
       style="fill:#000000;fill-opacity:0.49019608;stroke-width:1.13454545" />
    <path
       style="fill:#ffffff;fill-opacity:1;stroke-width:1.13454545"
       d="m 212.65122,410.41895 c -16.45595,-2.31481 -34.84126,-6.52307 -46.28961,-10.59532 -23.95027,-8.51906 -43.5873,-22.38132 -50.0355,-35.3212 C 113.12299,358.0746 113,356.98126 113,334.93542 c 0,-12.80188 0.5129,-22.89232 1.16364,-22.89232 0.64002,0 2.65653,2.54741 4.48117,5.66093 16.85229,28.75625 76.81011,47.86527 142.22473,45.32789 60.53217,-2.34784 108.52783,-20.56409 121.64009,-46.167 1.72038,-3.35916 3.67062,-6.10763 4.33388,-6.10763 2.18564,0 2.93031,8.8831 2.35072,28.04079 -0.51849,17.13692 -0.87838,19.48913 -3.87461,25.32345 -10.45711,20.36245 -40.56402,36.1068 -85.14781,44.5281 -18.65529,3.52355 -67.96276,4.52037 -87.52059,1.76932 z m 7.07201,-62.52669 c -39.71609,-3.98996 -76.51271,-17.54055 -93.85677,-34.56336 -11.44347,-11.23147 -12.15543,-13.49722 -12.62616,-40.18195 -0.27073,-15.34633 0.0399,-22.8233 0.94823,-22.8233 0.74297,0 2.79082,2.28106 4.55077,5.06899 11.17068,17.69556 40.29206,32.50682 78.35386,39.8513 75.88752,14.64333 164.68574,-4.85846 184.85585,-40.59786 2.1399,-3.79176 4.37871,-6.89407 4.97506,-6.89407 1.95788,0 2.86502,11.51732 2.27572,28.89316 -0.51975,15.32535 -0.93966,17.82074 -4.07809,24.23538 -16.18423,33.07939 -91.3675,54.4489 -165.39847,47.01171 z m 3.85747,-62.99841 c -50.95231,-4.50127 -94.31215,-23.49511 -106.44204,-46.62712 -3.24403,-6.18643 -3.48194,-7.81527 -3.90795,-26.75422 -0.55441,-24.6486 0.27172,-27.00096 6.22464,-17.72417 10.82691,16.87233 36.28981,29.83965 73.16189,37.25871 80.90382,16.27875 171.40646,-3.68811 190.9212,-42.12141 1.16706,-2.2984 2.59563,-4.17892 3.17467,-4.17892 1.63598,0 2.81706,34.6929 1.46407,43.00591 -6.14862,37.77858 -82.75071,64.37176 -164.59648,57.14122 z m 6.29216,-62.98959 c -53.01041,-3.37044 -101.35775,-24.01343 -112.55443,-48.05771 -15.34175,-32.94563 30.98419,-65.11344 104.82351,-72.7873 20.78313,-2.159915 61.06914,-0.86999 79.3157,2.53961 21.42918,4.00435 35.66788,8.48934 51.64184,16.2664 23.40594,11.39543 35.06644,24.99559 35.06644,40.89956 0,37.92347 -73.98542,66.49975 -158.29306,61.13944 z"
       id="path3026"
       inkscape:connector-curvature="0" />
  </g>
</svg>
