<?xml version="1.0" encoding="UTF-8" standalone="no"?>
<svg
   xmlns:sketch="http://www.bohemiancoding.com/sketch/ns"
   xmlns:dc="http://purl.org/dc/elements/1.1/"
   xmlns:cc="http://creativecommons.org/ns#"
   xmlns:rdf="http://www.w3.org/1999/02/22-rdf-syntax-ns#"
   xmlns:svg="http://www.w3.org/2000/svg"
   xmlns="http://www.w3.org/2000/svg"
   xmlns:sodipodi="http://sodipodi.sourceforge.net/DTD/sodipodi-0.dtd"
   xmlns:inkscape="http://www.inkscape.org/namespaces/inkscape"
   height="512"
   width="512"
   version="1.1"
   id="svg2"
   inkscape:version="0.92.3 (2405546, 2018-03-11)"
   sodipodi:docname="step.svg">
  <metadata
     id="metadata43">
    <rdf:RDF>
      <cc:Work
         rdf:about="">
        <dc:format>image/svg+xml</dc:format>
        <dc:type
           rdf:resource="http://purl.org/dc/dcmitype/StillImage" />
        <dc:title></dc:title>
      </cc:Work>
    </rdf:RDF>
  </metadata>
  <sodipodi:namedview
     pagecolor="#ffffff"
     bordercolor="#666666"
     borderopacity="1"
     objecttolerance="10"
     gridtolerance="10"
     guidetolerance="10"
     inkscape:pageopacity="0"
     inkscape:pageshadow="2"
     inkscape:window-width="1366"
     inkscape:window-height="711"
     id="namedview41"
     showgrid="false"
     inkscape:zoom="0.30729165"
     inkscape:cx="11.449802"
     inkscape:cy="307.1846"
     inkscape:window-x="0"
     inkscape:window-y="28"
     inkscape:window-maximized="1"
     inkscape:current-layer="svg2" />
  <defs
     id="defs4">
    <linearGradient
       id="linearGradient12443"
       y2="3"
       gradientUnits="userSpaceOnUse"
       x2="27.5"
       y1="0.5"
       x1="27.5"
       gradientTransform="matrix(2.402228,0,0,2.402228,6.3280064,6.9402887)">
      <stop
         stop-color="#fff"
         offset="0"
         id="stop7" />
      <stop
         stop-color="#fff"
         stop-opacity="0"
         offset="1"
         id="stop9" />
    </linearGradient>
    <filter
       id="filter4549"
       height="1.4594001"
       width="1.5025001"
       y="-0.22969"
       x="-0.25127"
       style="color-interpolation-filters:sRGB">
      <feGaussianBlur
         stdDeviation="2.8192388"
         id="feGaussianBlur12" />
    </filter>
    <clipPath
       id="clipPath4571"
       clipPathUnits="userSpaceOnUse">
      <path
         d="m 16.562,9.2812 c -0.74132,0.048211 -1.4937,0.22542 -2.125,0.5 -1.676,0.7268 -2.965,2.6818 -3.593,5.4688 -0.44683,1.9819 -0.41916,7.4073 0.03125,9.5 0.44637,2.0716 1.3217,3.7905 2.4062,4.875 l 0.407,0.375 2.5312,2.5312 c 0.30041,0.8334 0.62131,1.3713 1,1.75 l 0.343,0.313 13.407,13.406 h 15.031 c 1.108,0 2,-0.892 2,-2 v -16.031 l -19.094,-19.063 -0.031,-0.031 c -0.078,-0.045 -0.553,-0.117 -1.063,-0.156 l -0.90625,-0.0625 -0.34375,1.3125 c -0.17758,0.7241 -0.37237,1.5281 -0.4375,1.8125 -0.10143,0.4425 -0.18982,0.53125 -0.75,0.53125 H 24.7814 l -3.25,-3.25 c -0.843,-0.845 -1.941,-1.3838 -3.28,-1.6568 -0.31525,-0.064 -0.63979,-0.1093 -0.96875,-0.125 -0.24672,-0.01175 -0.47164,-0.01607 -0.71875,0 z"
         id="path15"
         inkscape:connector-curvature="0"
         style="opacity:0.35985;fill:#364e59" />
    </clipPath>
  </defs>
  <g
     id="g847">
    <path
       id="path943"
       d="m 432.9133,56.47393 c 102.19291,88.57459 105.82677,249.69974 8.1168,359.89882 C 343.32009,526.57182 181.27965,544.10062 79.086741,455.52602 -23.106205,366.95143 -26.740032,205.82627 70.969941,95.62719 168.67991,-14.57189 330.72036,-32.10066 432.9133,56.47393 Z"
       inkscape:connector-curvature="0"
       style="fill:#68b723;fill-opacity:1;stroke-width:11.10955906" />
    <path
       id="path945"
       d="M 511.63553,224.90351 C 510.08415,286.21512 486.47431,349.05808 440.66916,400.71795 342.95915,510.91712 180.9187,528.44582 78.725758,439.87125 30.827125,398.35563 4.4968185,340.9228 0.19382641,280.2288 0.79907996,346.58544 27.117405,410.48217 79.07869,455.51902 c 102.19291,88.5746 264.24106,71.0371 361.94336,-39.15326 49.70495,-56.05814 73.00502,-125.291 70.61348,-191.46225 z"
       inkscape:connector-curvature="0"
       style="opacity:1;fill:#000000;fill-opacity:0.49019608;stroke-width:11.10955906" />
    <path
       d="M 331.54109,409.59881 C 317.22281,423.45522 297.5929,432 275.88453,432 c -22.17024,0 -42.03109,-9.00666 -56.58031,-23.5559 l 37.41229,-37.41227 c 4.84974,4.84975 11.77794,8.08292 19.16802,8.08292 7.62103,0 14.31829,-3.00223 19.16803,-8.08292 l 75.97928,-75.97928 c 4.84975,-4.84975 8.08291,-11.77795 8.08291,-19.16802 0,-7.62101 -3.00222,-14.31827 -8.08291,-19.16802 -4.84974,-4.84975 -11.77794,-8.08291 -19.16802,-8.08291 -7.62102,0 -14.31829,3.00223 -19.16803,8.08291 l -75.97928,75.97928 c -14.54922,14.54921 -34.64101,23.5559 -56.58032,23.5559 -22.17025,0 -42.03108,-9.00669 -56.58033,-23.5559 C 129.00666,318.14655 120,298.05478 120,276.11547 c 0,-22.17026 9.00666,-42.03108 23.55586,-56.58033 l 75.9793,-75.97928 c 14.54922,-14.54921 34.64101,-23.5559 56.58032,-23.5559 22.17024,0 42.03109,9.00669 56.58031,23.5559 l -37.41229,37.4123 c -4.84974,-4.84975 -11.77794,-8.08291 -19.16802,-8.08291 -7.62103,0 -14.31829,3.00223 -19.16803,8.08291 l -75.97928,75.97928 c -4.84975,4.84975 -8.08292,11.77795 -8.08292,19.16803 0,7.62104 3.00223,14.31827 8.08292,19.16802 4.84974,4.84975 11.77795,8.08291 19.16802,8.08291 7.62104,0 14.31829,-3.00223 19.16803,-8.08291 l 75.97928,-75.97928 c 14.54922,-14.54921 34.64101,-23.5559 56.58032,-23.5559 21.9393,0 42.03109,9.00669 56.58028,23.5559 14.54924,14.54924 23.5559,34.641 23.5559,56.58032 0,22.17025 -9.00666,42.03108 -23.5559,56.58032 z"
       id="path36"
       sketch:type="MSShapeGroup"
       inkscape:connector-curvature="0"
       style="fill:#000000;fill-rule:evenodd;stroke:none;stroke-width:3.46281958;fill-opacity:0.49019608" />
    <path
       style="fill:#ffffff;fill-rule:evenodd;stroke:none;stroke-width:3.46281958"
       inkscape:connector-curvature="0"
       sketch:type="MSShapeGroup"
       id="Shape"
       d="M 311.54109,389.59881 C 297.22281,403.45522 277.5929,412 255.88453,412 c -22.17024,0 -42.03109,-9.00666 -56.58031,-23.5559 l 37.41229,-37.41227 c 4.84974,4.84975 11.77794,8.08292 19.16802,8.08292 7.62103,0 14.31829,-3.00223 19.16803,-8.08292 l 75.97928,-75.97928 c 4.84975,-4.84975 8.08291,-11.77795 8.08291,-19.16802 0,-7.62101 -3.00222,-14.31827 -8.08291,-19.16802 -4.84974,-4.84975 -11.77794,-8.08291 -19.16802,-8.08291 -7.62102,0 -14.31829,3.00223 -19.16803,8.08291 l -75.97928,75.97928 c -14.54922,14.54921 -34.64101,23.5559 -56.58032,23.5559 -22.17025,0 -42.03108,-9.00669 -56.58033,-23.5559 C 109.00666,298.14655 100,278.05478 100,256.11547 c 0,-22.17026 9.00666,-42.03108 23.55586,-56.58033 l 75.9793,-75.97928 c 14.54922,-14.54921 34.64101,-23.5559 56.58032,-23.5559 22.17024,0 42.03109,9.00669 56.58031,23.5559 l -37.41229,37.4123 c -4.84974,-4.84975 -11.77794,-8.08291 -19.16802,-8.08291 -7.62103,0 -14.31829,3.00223 -19.16803,8.08291 l -75.97928,75.97928 c -4.84975,4.84975 -8.08292,11.77795 -8.08292,19.16803 0,7.62104 3.00223,14.31827 8.08292,19.16802 4.84974,4.84975 11.77795,8.08291 19.16802,8.08291 7.62104,0 14.31829,-3.00223 19.16803,-8.08291 l 75.97928,-75.97928 c 14.54922,-14.54921 34.64101,-23.5559 56.58032,-23.5559 21.9393,0 42.03109,9.00669 56.58028,23.5559 14.54924,14.54924 23.5559,34.641 23.5559,56.58032 0,22.17025 -9.00666,42.03108 -23.5559,56.58032 z" />
  </g>
</svg>
