<?xml version="1.0" encoding="UTF-8" standalone="no"?>
<svg
   xmlns:dc="http://purl.org/dc/elements/1.1/"
   xmlns:cc="http://creativecommons.org/ns#"
   xmlns:rdf="http://www.w3.org/1999/02/22-rdf-syntax-ns#"
   xmlns:svg="http://www.w3.org/2000/svg"
   xmlns="http://www.w3.org/2000/svg"
   xmlns:sodipodi="http://sodipodi.sourceforge.net/DTD/sodipodi-0.dtd"
   xmlns:inkscape="http://www.inkscape.org/namespaces/inkscape"
   viewBox="0 0 511.99999 511.99999"
   height="512"
   width="512"
   version="1.1"
   id="svg2"
   inkscape:version="0.92.3 (2405546, 2018-03-11)"
   sodipodi:docname="stock_addressbook.svg">
  <sodipodi:namedview
     pagecolor="#ffffff"
     bordercolor="#666666"
     borderopacity="1"
     objecttolerance="10"
     gridtolerance="10"
     guidetolerance="10"
     inkscape:pageopacity="0"
     inkscape:pageshadow="2"
     inkscape:window-width="1366"
     inkscape:window-height="718"
     id="namedview18"
     showgrid="false"
     inkscape:zoom="0.57452424"
     inkscape:cx="33.968661"
     inkscape:cy="203.20041"
     inkscape:window-x="0"
     inkscape:window-y="25"
     inkscape:window-maximized="1"
     inkscape:current-layer="svg2" />
  <metadata
     id="metadata8">
    <rdf:RDF>
      <cc:Work
         rdf:about="">
        <dc:format>image/svg+xml</dc:format>
        <dc:type
           rdf:resource="http://purl.org/dc/dcmitype/StillImage" />
        <dc:title />
      </cc:Work>
    </rdf:RDF>
  </metadata>
  <defs
     id="defs6">
    <filter
       height="1.096"
       y="-0.048"
       width="1.096"
       x="-0.048"
       id="filter4329"
       style="color-interpolation-filters:sRGB">
      <feGaussianBlur
         id="feGaussianBlur4331"
         stdDeviation="2.1324205" />
    </filter>
    <filter
       height="1.0327445"
       y="-0.016372267"
       width="1.0399742"
       x="-0.019987123"
       id="filter4376"
       style="color-interpolation-filters:sRGB">
      <feGaussianBlur
         id="feGaussianBlur4378"
         stdDeviation="1.1736058" />
    </filter>
    <filter
       height="1.0570984"
       y="-0.0285492"
       width="1.0632123"
       x="-0.031606145"
       id="filter4436"
       style="color-interpolation-filters:sRGB">
      <feGaussianBlur
         id="feGaussianBlur4438"
         stdDeviation="0.63519096" />
    </filter>
  </defs>
  <g
     id="g62"
     transform="translate(-8.3842856e-8,448)">
    <path
       style="fill:#3689e6;fill-opacity:1;stroke-width:11.10955811"
       inkscape:connector-curvature="0"
       d="m 432.91322,-391.52602 c 102.19295,88.57472 105.82687,249.69984 8.1168,359.898874 C 343.31994,78.571875 181.27962,96.100515 79.086658,7.5261332 -23.106292,-81.048584 -26.739896,-242.1737 70.969858,-352.37274 168.67994,-462.57178 330.72026,-480.10074 432.91322,-391.52602 Z"
       id="path52" />
    <path
       style="opacity:1;fill:#000000;fill-opacity:0.49019608;stroke-width:11.10955811"
       inkscape:connector-curvature="0"
       d="m 511.63545,-223.09658 c -1.552,61.31168 -25.16127,124.154876 -70.96639,175.814716 C 342.9593,62.917156 180.91866,80.445795 78.725698,-8.1285868 30.827138,-49.644424 4.4969079,-107.07706 0.19386792,-167.77114 0.79866792,-101.41434 27.117388,-37.517706 79.078658,7.5190932 181.27162,96.093795 343.31962,78.556195 441.02202,-31.634186 490.72697,-87.692424 514.02713,-156.92506 511.63545,-223.09658 Z"
       id="path54" />
    <path
       style="fill:#1c4675;fill-opacity:1;stroke-width:0.86791039"
       d="m 181.35788,-327.99999 -5.85161,2.27657 c -13.35327,5.19512 -23.18311,13.80666 -28.80887,25.2389 -4.22932,8.59454 -5.66396,16.16639 -5.6821,29.98359 L 141,-259.00112 h 18.20578 18.20578 l 1.53749,2.34608 c 2.12618,3.24522 2.12725,12.88189 0.002,16.13092 l -1.53919,2.35285 h -18.20574 -18.20578 v 27.77314 27.77313 h 18.5821 18.5838 l 2.13757,2.54101 c 2.68883,3.19551 3.56824,7.71073 2.3681,12.1677 -1.59369,5.91851 -2.35766,6.12114 -23.20474,6.12114 h -18.46683 v 27.77313 27.77314 h 19.07369 19.07369 l 1.53919,2.34777 c 1.12213,1.71259 1.53918,4.08322 1.53918,8.75538 0,9.83451 0.25357,9.7267 -22.66229,9.7267 h -18.56346 v 12.466033 c 2e-5,14.20606 0.75529,19.26673 4.01409,26.86284 3.0248,11.19099 8.83052,16.04966 16.94121,21.57063 l 6.25505,2.96989 c 11.97638,5.68753 8.93415,5.53151 108.26166,5.54817 86.72022,0.0145 90.14321,-0.0465 96.60927,-1.70022 9.55614,-2.44405 16.4765,-6.38851 23.59292,-13.44752 4.40476,-4.36923 7.05774,-7.94905 9.3419,-12.61013 5.97453,-12.19159 5.73995,-7.09603 5.7567,-124.733303 l 0.0102,-67.65802 h -0.19833 l -0.24919,-50.61172 c 0,0 -1.76679,-5.44749 -2.87835,-8.49603 -5.21285,-14.29674 -16.91148,-25.48947 -32.14489,-30.75488 l -5.74991,-1.9867 h -94.60225 z m 109.17025,61.48942 c 4.21649,0.002 8.42491,0.14251 10.6675,0.42209 17.05487,2.13073 32.17353,8.19829 45.75176,18.35833 5.09478,3.81232 14.33886,13.05509 18.14984,18.14815 9.83357,13.14192 15.70951,27.4434 18.18204,44.25156 0.82048,5.57691 0.81951,18.74766 -0.003,24.39473 -2.50034,17.15858 -8.80217,32.13504 -19.17709,45.57716 -3.3141,4.29387 -12.65926,13.45004 -17.12259,16.77678 -12.94733,9.64993 -27.05516,15.56982 -42.93952,18.01761 -4.55114,0.701623 -16.26059,1.146713 -20.71797,0.788233 -3.86829,-0.312483 -11.34536,-1.586283 -15.67833,-2.673223 -12.00609,-3.01024 -23.25641,-8.41058 -33.60949,-16.13432 -4.48192,-3.34342 -13.87393,-12.53878 -17.09716,-16.73948 -13.7843,-17.96372 -20.66814,-39.013 -19.88735,-60.81645 0.70353,-19.64608 7.06982,-37.68172 18.86179,-53.44091 3.81098,-5.09306 13.05506,-14.33771 18.14984,-18.14984 13.5395,-10.13109 28.94132,-16.3141 45.75176,-18.36681 2.27739,-0.27796 6.50187,-0.41545 10.71836,-0.41361 z m -0.0271,9.99622 c -4.50243,0 -9.00407,0.20562 -11.69476,0.61873 -33.2007,5.09555 -59.46611,28.06352 -68.67341,60.05194 -3.83149,13.31196 -4.16444,28.18332 -0.9391,41.92583 2.3855,10.1635 7.3005,20.90305 13.58822,29.69034 l 1.61886,2.26131 1.96805,-3.53945 c 1.0831,-1.94651 2.90964,-4.87125 4.06155,-6.49915 h 0.002 c 5.85831,-8.2793 13.67957,-15.45705 22.71145,-20.84341 3.67698,-2.19284 9.2351,-4.85872 11.96259,-5.73804 1.01025,-0.32589 1.95114,-0.69415 2.0884,-0.81875 0.13419,-0.11502 -1.01624,-1.16224 -2.56305,-2.30878 -1.547,-1.14636 -4.01754,-3.3563 -5.49055,-4.91251 -10.68492,-11.28781 -14.57858,-27.24546 -10.25558,-42.03772 4.30882,-14.74452 16.0264,-26.06038 30.98542,-29.92426 7.97466,-2.0598 18.25168,-1.51281 25.66946,1.36459 15.3942,5.97314 25.74588,18.95896 27.91553,35.01815 0.26071,1.92983 0.47464,4.48762 0.47464,5.6821 0,13.27055 -6.86528,26.89103 -17.5362,34.79439 -1.55851,1.15403 -2.72065,2.2002 -2.58339,2.32404 0.13418,0.11501 1.07665,0.49286 2.08672,0.81875 2.7248,0.87798 8.28312,3.54349 11.96258,5.73634 11.2999,6.73496 20.58571,16.21461 26.76283,27.32223 l 1.97992,3.56148 1.61886,-2.26131 c 15.24332,-21.30331 19.76173,-48.18736 12.26093,-72.93838 -9.46742,-31.24021 -35.59615,-53.71259 -68.28523,-58.72973 -2.69068,-0.41311 -7.19401,-0.61873 -11.69645,-0.61873 z"
       id="path56"
       inkscape:connector-curvature="0" />
    <path
       inkscape:connector-curvature="0"
       id="path36"
       d="m 161.35788,-347.99999 -5.85161,2.27657 c -13.35327,5.19512 -23.18311,13.80666 -28.80887,25.2389 -4.22932,8.59454 -5.66396,16.16639 -5.6821,29.98359 L 121,-279.00112 h 18.20578 18.20578 l 1.53749,2.34608 c 2.12618,3.24522 2.12725,12.88189 0.002,16.13092 l -1.53919,2.35285 h -18.20574 -18.20578 v 27.77314 27.77313 h 18.5821 18.5838 l 2.13757,2.54101 c 2.68883,3.19551 3.56824,7.71073 2.3681,12.1677 -1.59369,5.91851 -2.35766,6.12114 -23.20474,6.12114 h -18.46683 v 27.77313 27.77314 h 19.07369 19.07369 l 1.53919,2.34777 c 1.12213,1.71259 1.53918,4.08322 1.53918,8.75538 0,9.83451 0.25357,9.7267 -22.66229,9.7267 h -18.56346 v 12.466033 c 2e-5,14.20606 0.75529,19.26673 4.01409,26.86284 3.0248,11.19099 8.83052,16.04966 16.94121,21.57063 l 6.25505,2.96989 c 11.97638,5.68753 8.93415,5.53151 108.26166,5.54817 86.72022,0.0145 90.14321,-0.0465 96.60927,-1.70022 9.55614,-2.44405 16.4765,-6.38851 23.59292,-13.44752 4.40476,-4.36923 7.05774,-7.94905 9.3419,-12.61013 5.97453,-12.19159 5.73995,-7.09603 5.7567,-124.733303 l 0.0102,-67.65802 h -0.19833 l -0.24919,-50.61172 c 0,0 -1.76679,-5.44749 -2.87835,-8.49603 -5.21285,-14.29674 -16.91148,-25.48947 -32.14489,-30.75488 l -5.74991,-1.9867 h -94.60225 z m 109.17025,61.48942 c 4.21649,0.002 8.42491,0.14251 10.6675,0.42209 17.05487,2.13073 32.17353,8.19829 45.75176,18.35833 5.09478,3.81232 14.33886,13.05509 18.14984,18.14815 9.83357,13.14192 15.70951,27.4434 18.18204,44.25156 0.82048,5.57691 0.81951,18.74766 -0.003,24.39473 -2.50034,17.15858 -8.80217,32.13504 -19.17709,45.57716 -3.3141,4.29387 -12.65926,13.45004 -17.12259,16.77678 -12.94733,9.64993 -27.05516,15.56982 -42.93952,18.01761 -4.55114,0.701623 -16.26059,1.146713 -20.71797,0.788233 -3.86829,-0.312483 -11.34536,-1.586283 -15.67833,-2.673223 -12.00609,-3.01024 -23.25641,-8.41058 -33.60949,-16.13432 -4.48192,-3.34342 -13.87393,-12.53878 -17.09716,-16.73948 -13.7843,-17.96372 -20.66814,-39.013 -19.88735,-60.81645 0.70353,-19.64608 7.06982,-37.68172 18.86179,-53.44091 3.81098,-5.09306 13.05506,-14.33771 18.14984,-18.14984 13.5395,-10.13109 28.94132,-16.3141 45.75176,-18.36681 2.27739,-0.27796 6.50187,-0.41545 10.71836,-0.41361 z m -0.0271,9.99622 c -4.50243,0 -9.00407,0.20562 -11.69476,0.61873 -33.2007,5.09555 -59.46611,28.06352 -68.67341,60.05194 -3.83149,13.31196 -4.16444,28.18332 -0.9391,41.92583 2.3855,10.1635 7.3005,20.90305 13.58822,29.69034 l 1.61886,2.26131 1.96805,-3.53945 c 1.0831,-1.94651 2.90964,-4.87125 4.06155,-6.49915 h 0.002 c 5.85831,-8.2793 13.67957,-15.45705 22.71145,-20.84341 3.67698,-2.19284 9.2351,-4.85872 11.96259,-5.73804 1.01025,-0.32589 1.95114,-0.69415 2.0884,-0.81875 0.13419,-0.11502 -1.01624,-1.16224 -2.56305,-2.30878 -1.547,-1.14636 -4.01754,-3.3563 -5.49055,-4.91251 -10.68492,-11.28781 -14.57858,-27.24546 -10.25558,-42.03772 4.30882,-14.74452 16.0264,-26.06038 30.98542,-29.92426 7.97466,-2.0598 18.25168,-1.51281 25.66946,1.36459 15.3942,5.97314 25.74588,18.95896 27.91553,35.01815 0.26071,1.92983 0.47464,4.48762 0.47464,5.6821 0,13.27055 -6.86528,26.89103 -17.5362,34.79439 -1.55851,1.15403 -2.72065,2.2002 -2.58339,2.32404 0.13418,0.11501 1.07665,0.49286 2.08672,0.81875 2.7248,0.87798 8.28312,3.54349 11.96258,5.73634 11.2999,6.73496 20.58571,16.21461 26.76283,27.32223 l 1.97992,3.56148 1.61886,-2.26131 c 15.24332,-21.30331 19.76173,-48.18736 12.26093,-72.93838 -9.46742,-31.24021 -35.59615,-53.71259 -68.28523,-58.72973 -2.69068,-0.41311 -7.19401,-0.61873 -11.69645,-0.61873 z"
       style="fill:#ffffff;stroke-width:0.86791039" />
  </g>
</svg>
