<?xml version="1.0" encoding="UTF-8" standalone="no"?>
<!-- Created using Karbon, part of Calligra: http://www.calligra.org/karbon -->

<svg
   xmlns:dc="http://purl.org/dc/elements/1.1/"
   xmlns:cc="http://creativecommons.org/ns#"
   xmlns:rdf="http://www.w3.org/1999/02/22-rdf-syntax-ns#"
   xmlns:svg="http://www.w3.org/2000/svg"
   xmlns="http://www.w3.org/2000/svg"
   xmlns:sodipodi="http://sodipodi.sourceforge.net/DTD/sodipodi-0.dtd"
   xmlns:inkscape="http://www.inkscape.org/namespaces/inkscape"
   width="512"
   height="512"
   id="svg2"
   version="1.1"
   inkscape:version="0.92.3 (2405546, 2018-03-11)"
   sodipodi:docname="sweep.svg"
   viewBox="0 0 512 512">
  <metadata
     id="metadata12">
    <rdf:RDF>
      <cc:Work
         rdf:about="">
        <dc:format>image/svg+xml</dc:format>
        <dc:type
           rdf:resource="http://purl.org/dc/dcmitype/StillImage" />
        <dc:title></dc:title>
      </cc:Work>
    </rdf:RDF>
  </metadata>
  <sodipodi:namedview
     pagecolor="#ffffff"
     bordercolor="#666666"
     borderopacity="1"
     objecttolerance="10"
     gridtolerance="10"
     guidetolerance="10"
     inkscape:pageopacity="0"
     inkscape:pageshadow="2"
     inkscape:window-width="873"
     inkscape:window-height="550"
     id="namedview10"
     showgrid="false"
     inkscape:zoom="0.40625"
     inkscape:cx="-98.933289"
     inkscape:cy="304.52595"
     inkscape:window-x="4"
     inkscape:window-y="86"
     inkscape:window-maximized="0"
     inkscape:current-layer="svg2"
     inkscape:showpageshadow="false"
     borderlayer="true"
     units="px"
     showguides="false"
     inkscape:document-units="px">
    <sodipodi:guide
       position="1.9073486e-06,48.000002"
       orientation="47.999998,0"
       id="guide4062"
       inkscape:locked="false" />
    <sodipodi:guide
       position="1.9073486e-06,3.8146973e-06"
       orientation="0,47.999998"
       id="guide4064"
       inkscape:locked="false" />
    <sodipodi:guide
       position="48,3.8146973e-06"
       orientation="-47.999998,0"
       id="guide4066"
       inkscape:locked="false" />
    <sodipodi:guide
       position="48,48.000002"
       orientation="0,-47.999998"
       id="guide4068"
       inkscape:locked="false" />
    <sodipodi:guide
       position="4.0000019,44.000002"
       orientation="39.999998,0"
       id="guide4072"
       inkscape:locked="false" />
    <sodipodi:guide
       position="4.0000019,4.0000038"
       orientation="0,39.999998"
       id="guide4074"
       inkscape:locked="false" />
    <sodipodi:guide
       position="44,4.0000038"
       orientation="-39.999998,0"
       id="guide4076"
       inkscape:locked="false" />
    <sodipodi:guide
       position="44,44.000002"
       orientation="0,-39.999998"
       id="guide4078"
       inkscape:locked="false" />
    <sodipodi:guide
       position="15.000002,33.000002"
       orientation="17.999998,0"
       id="guide4080"
       inkscape:locked="false" />
    <sodipodi:guide
       position="15.000002,15.000004"
       orientation="0,17.999998"
       id="guide4082"
       inkscape:locked="false" />
    <sodipodi:guide
       position="33,15.000004"
       orientation="-17.999998,0"
       id="guide4084"
       inkscape:locked="false" />
    <sodipodi:guide
       position="33,33.000002"
       orientation="0,-17.999998"
       id="guide4086"
       inkscape:locked="false" />
    <inkscape:grid
       type="xygrid"
       id="grid3359" />
  </sodipodi:namedview>
  <defs
     id="defs4">
    <inkscape:path-effect
       effect="spiro"
       id="path-effect3794"
       is_visible="true" />
    <inkscape:path-effect
       effect="spiro"
       id="path-effect3794-1"
       is_visible="true" />
  </defs>
  <g
     transform="translate(-8.3842863e-8,4.7443731e-6)"
     id="g914">
    <path
       style="fill:#3689e6;fill-opacity:1;stroke-width:11.10955811"
       inkscape:connector-curvature="0"
       d="M 432.91322,56.473986 C 535.10617,145.0487 538.74009,306.17382 441.03002,416.37285 343.31994,526.57187 181.27962,544.10051 79.086658,455.52613 -23.106292,366.95142 -26.739896,205.8263 70.969858,95.627266 168.67994,-14.571774 330.72026,-32.100734 432.91322,56.473986 Z"
       id="path52" />
    <path
       style="opacity:1;fill:#000000;fill-opacity:0.49019608;stroke-width:11.10955811"
       inkscape:connector-curvature="0"
       d="M 511.63545,224.90342 C 510.08345,286.2151 486.47418,349.0583 440.66906,400.71814 342.9593,510.91716 180.91866,528.44579 78.725698,439.87141 30.827138,398.35558 4.4969079,340.92294 0.19386792,280.22886 c 0.6048,66.3568 26.92352008,130.25343 78.88479008,175.29023 102.192962,88.5747 264.240962,71.0371 361.943362,-39.15328 49.70495,-56.05823 73.00511,-125.29087 70.61343,-191.46239 z"
       id="path54" />
    <g
       style="fill:#000000;fill-opacity:0.49019608"
       transform="translate(20.000908,20.000169)"
       id="g904">
      <path
         inkscape:connector-curvature="0"
         id="path900"
         d="m 404.96887,269.13178 c -1.78532,8.53504 -6.03395,15.84656 -12.85731,22.12662 -7.43758,6.84535 -15.20364,10.26484 -25.23352,11.11053 -17.40938,1.4679 -35.42852,-9.68568 -42.34138,-26.20874 -3.47533,-8.3068 -4.21481,-19.16 -2.12228,-31.14859 0.60759,-3.4815 1.13609,-7.11377 1.17418,-8.07169 0.18275,-4.55243 -2.34703,-8.9031 -6.33714,-10.90523 -1.13902,-0.57134 -2.06373,-1.21223 -2.05495,-1.42371 0.0448,-1.07991 9.0401,-13.34279 11.69344,-15.94108 l 3.06164,-2.99807 5.07652,2.87478 c 7.36989,4.17353 10.62887,5.15603 23.64238,7.12764 9.79934,1.48461 16.49672,3.4834 22.59865,6.74439 6.19347,3.30995 10.17753,6.42694 14.33021,11.21142 8.4792,9.76942 11.97864,23.02891 9.36958,35.50175 z m -17.07319,-15.98493 c -5.10308,-15.22785 -23.58476,-21.7907 -37.31005,-13.24878 -3.99171,2.48425 -7.98435,7.09825 -9.7752,11.29645 -1.61042,3.77525 -2.37655,10.44281 -1.64391,14.30646 1.90501,10.04597 10.1088,18.32389 20.11926,20.30112 12.19319,2.40836 24.7391,-5.09952 28.80528,-17.23812 1.19443,-3.56553 1.09295,-11.57277 -0.19538,-15.41713 z M 409.8264,151.98037 c -1.64961,7.88623 -5.81905,15.42041 -11.71972,21.17775 -4.53451,4.42428 -8.76293,7.20076 -15.20915,9.98661 -6.35095,2.74465 -13.19082,4.18213 -23.07942,4.85041 -12.62415,0.85314 -16.3464,1.59836 -23.09072,4.62272 -11.09103,4.97355 -17.1935,10.0203 -23.30463,19.27286 -7.23684,10.95701 -10.67623,14.10757 -27.55992,25.24504 -27.21905,17.95544 -48.41684,28.21982 -66.29415,32.10107 -6.85496,1.48822 -18.09608,1.49532 -23.65301,0.015 -9.80167,-2.61119 -17.65394,-8.96265 -15.74309,-12.73409 0.44453,-0.87729 19.51438,-12.75881 60.1908,-37.5019 32.74708,-19.91975 61.08838,-37.03763 62.98059,-38.03967 1.89227,-1.00204 5.91754,-2.76059 8.94508,-3.90787 7.91339,-2.99874 9.39248,-3.75098 11.29364,-5.74336 3.02691,-3.17212 3.42794,-5.63739 2.53251,-15.56793 -0.72278,-8.01626 0.0303,-18.26619 1.74194,-23.70963 5.26704,-16.74986 20.28432,-28.64867 38.04731,-30.14638 8.50686,-0.71728 18.14096,1.75025 25.61977,6.5618 4.63595,2.98262 11.58887,10.53701 14.17741,15.40396 4.49796,8.45687 6.03921,18.96172 4.12476,28.11361 z m -16.42218,-14.25224 c -3.15319,-12.65175 -14.70467,-20.97253 -27.16734,-19.56922 -9.9845,1.12423 -18.13603,7.89616 -21.45302,17.82219 -1.34846,4.03525 -1.27144,10.80074 0.17233,15.13697 1.44381,4.33644 5.04075,9.26305 8.81023,12.06706 13.87643,10.32234 33.97548,3.91327 39.12589,-12.47624 1.15385,-3.67174 1.38306,-9.4852 0.50921,-12.98087 z m -86.13352,58.63588 c -2.0224,-5.46666 -9.0129,-7.06875 -13.36523,-3.06304 -3.53312,3.25183 -3.73396,8.09589 -0.48218,11.629 6.19954,6.7359 17.02982,0.0363 13.84741,-8.56596 z m -5.57791,-24.15826 c -0.26566,-0.011 -8.12629,4.61389 -17.46833,10.27756 -9.34203,5.66363 -17.09732,10.2929 -17.23397,10.28723 -0.13657,-0.006 -18.44789,-13.26576 -40.69159,-29.46688 -27.4108,-19.96452 -40.61774,-29.88607 -40.98495,-30.78949 -1.53526,-3.77692 5.90928,-9.0844 15.6349,-11.14664 4.979,-1.0558 13.79661,-0.77913 20.33382,0.63788 18.47832,4.00572 43.30654,18.64592 74.21896,43.76396 6.09314,4.95098 7.57714,6.49374 6.19116,6.43627 z"
         style="fill:#000000;fill-opacity:0.49019608;stroke-width:0.5234465" />
      <path
         sodipodi:nodetypes="cccccccsccscssccccccccssccsscccccsssccccccscccscccssscccscsc"
         inkscape:connector-curvature="0"
         id="path902"
         d="m 242.69869,182.32152 -3.28308,30.57853 c 10.66067,-6.48422 15.35981,-9.95589 24.2843,-15.36151 z m 29.86772,71.25465 c -4.62488,2.81799 -9.06367,5.38382 -13.33203,7.70899 0.22209,2.99949 0.3724,5.11957 0.60937,8.28711 1.70672,22.81385 2.5628,53.02772 4.34766,76.91992 2.37882,31.84274 3.74371,44.20273 5.11328,46.29297 2.2926,3.49895 8.10774,3.81321 11.01953,0.5957 1.33256,-1.47246 5.08615,-17.69542 10.81055,-46.72461 4.82301,-24.45814 8.98511,-44.68434 9.24804,-44.94727 0.26294,-0.26295 1.46349,10.13175 2.66797,23.09961 2.41251,25.97381 3.49344,29.25977 9.63281,29.25977 4.94664,0 7.07324,-3.48269 8.81836,-14.44922 0.76856,-4.82968 1.58169,-8.96841 1.8086,-9.19531 0.2269,-0.22691 1.33259,4.57609 2.45703,10.67187 2.28244,12.3734 5.02456,17.18416 10.14062,17.79102 5.09887,0.6048 7.78111,-2.59268 14.89258,-17.75391 4.64597,-9.90489 7.0764,-13.71931 9.00195,-14.13086 1.45072,-0.31008 12.29833,-0.72431 24.10743,-0.91992 18.21924,-0.30177 21.9987,-0.70254 24.95507,-2.64062 2.36318,-1.54918 3.3597,-3.15885 3.09375,-5.00586 -0.72998,-5.06965 -5.0757,-5.89817 -31.08203,-5.91797 -29.49649,-0.0225 -31.51129,0.66758 -38.10937,13.04687 -2.24134,4.20518 -4.23778,7.09647 -4.43555,6.42383 -0.19775,-0.67262 -2.05618,-10.49649 -4.13086,-21.83008 -4.29622,-23.4695 -5.86427,-26.96659 -11.83203,-26.38867 -3.11617,0.30177 -4.49257,1.33975 -6.13672,4.63281 l -2.11914,4.24414 -0.66016,-4.24414 c -0.36409,-2.33436 -1.28344,-10.76322 -2.04296,-18.73046 -0.80006,-8.3927 -2.16041,-15.67827 -3.23243,-17.32032 -2.25882,-3.45986 -8.0923,-3.79464 -10.94531,-0.6289 -1.25211,1.38936 -5.05114,17.6832 -10.27344,44.07226 -4.55717,23.02807 -8.28515,42.25509 -8.28515,42.72461 0,0.46952 -0.26898,0.58454 -0.59766,0.25586 -0.32869,-0.32868 -1.46507,-31.11099 -4.96875,-78.18164 -0.18346,-2.46481 -0.35803,-4.59559 -0.54101,-7.01758 z m -29.07032,13.69531 c -5.51295,2.60495 -10.72947,4.75606 -15.68945,6.47266 -9.97649,51.7325 -16.28544,86.16266 -16.48437,86.36524 -0.59586,0.60672 -1.61643,-7.92028 -6.98243,-58.31641 -1.27299,-11.95569 -2.47751,-18.82773 -3.47851,-27.58203 -2.6785,-0.16629 -5.1294,-0.47524 -6.94531,-0.95899 -6.84804,-1.82433 -12.73154,-5.47262 -15.01172,-8.79297 -2.5308,5.5637 -5.93658,9.41917 -11.09571,21.38868 -8.39145,19.46871 -11.10556,24.59299 -13.51171,25.50781 -1.65607,0.62965 -13.03494,1.15201 -25.28711,1.16211 -23.79052,0.0198 -28.25081,0.93182 -28.96875,5.91797 -0.265985,1.8472 0.72983,3.45651 3.09375,5.00586 3.07239,2.01369 6.47322,2.28515 28.73437,2.28515 33.95008,0 33.8824,0.0387 45.45117,-26.45312 3.93305,-9.00645 7.67281,-17.72988 8.31055,-19.38477 0.63773,-1.6549 1.44031,-2.72763 1.7832,-2.38476 0.48227,0.48228 14.38316,124.43245 14.41406,128.52539 0.004,0.51961 1.14174,2.07728 2.52735,3.46289 5.55054,5.55054 11.57117,1.60014 13.74805,-9.01953 0.75828,-3.69921 9.01566,-46.34446 18.3496,-94.76758 3.34506,-17.35364 4.34179,-24.69432 7.04297,-38.4336 z"
         style="fill:#000000;fill-opacity:0.49019608;stroke-width:1.25964332" />
    </g>
    <g
       transform="translate(9.0819472e-4)"
       id="g898">
      <path
         style="fill:#ffffff;stroke-width:0.5234465"
         d="m 404.96887,269.13178 c -1.78532,8.53504 -6.03395,15.84656 -12.85731,22.12662 -7.43758,6.84535 -15.20364,10.26484 -25.23352,11.11053 -17.40938,1.4679 -35.42852,-9.68568 -42.34138,-26.20874 -3.47533,-8.3068 -4.21481,-19.16 -2.12228,-31.14859 0.60759,-3.4815 1.13609,-7.11377 1.17418,-8.07169 0.18275,-4.55243 -2.34703,-8.9031 -6.33714,-10.90523 -1.13902,-0.57134 -2.06373,-1.21223 -2.05495,-1.42371 0.0448,-1.07991 9.0401,-13.34279 11.69344,-15.94108 l 3.06164,-2.99807 5.07652,2.87478 c 7.36989,4.17353 10.62887,5.15603 23.64238,7.12764 9.79934,1.48461 16.49672,3.4834 22.59865,6.74439 6.19347,3.30995 10.17753,6.42694 14.33021,11.21142 8.4792,9.76942 11.97864,23.02891 9.36958,35.50175 z m -17.07319,-15.98493 c -5.10308,-15.22785 -23.58476,-21.7907 -37.31005,-13.24878 -3.99171,2.48425 -7.98435,7.09825 -9.7752,11.29645 -1.61042,3.77525 -2.37655,10.44281 -1.64391,14.30646 1.90501,10.04597 10.1088,18.32389 20.11926,20.30112 12.19319,2.40836 24.7391,-5.09952 28.80528,-17.23812 1.19443,-3.56553 1.09295,-11.57277 -0.19538,-15.41713 z M 409.8264,151.98037 c -1.64961,7.88623 -5.81905,15.42041 -11.71972,21.17775 -4.53451,4.42428 -8.76293,7.20076 -15.20915,9.98661 -6.35095,2.74465 -13.19082,4.18213 -23.07942,4.85041 -12.62415,0.85314 -16.3464,1.59836 -23.09072,4.62272 -11.09103,4.97355 -17.1935,10.0203 -23.30463,19.27286 -7.23684,10.95701 -10.67623,14.10757 -27.55992,25.24504 -27.21905,17.95544 -48.41684,28.21982 -66.29415,32.10107 -6.85496,1.48822 -18.09608,1.49532 -23.65301,0.015 -9.80167,-2.61119 -17.65394,-8.96265 -15.74309,-12.73409 0.44453,-0.87729 19.51438,-12.75881 60.1908,-37.5019 32.74708,-19.91975 61.08838,-37.03763 62.98059,-38.03967 1.89227,-1.00204 5.91754,-2.76059 8.94508,-3.90787 7.91339,-2.99874 9.39248,-3.75098 11.29364,-5.74336 3.02691,-3.17212 3.42794,-5.63739 2.53251,-15.56793 -0.72278,-8.01626 0.0303,-18.26619 1.74194,-23.70963 5.26704,-16.74986 20.28432,-28.64867 38.04731,-30.14638 8.50686,-0.71728 18.14096,1.75025 25.61977,6.5618 4.63595,2.98262 11.58887,10.53701 14.17741,15.40396 4.49796,8.45687 6.03921,18.96172 4.12476,28.11361 z m -16.42218,-14.25224 c -3.15319,-12.65175 -14.70467,-20.97253 -27.16734,-19.56922 -9.9845,1.12423 -18.13603,7.89616 -21.45302,17.82219 -1.34846,4.03525 -1.27144,10.80074 0.17233,15.13697 1.44381,4.33644 5.04075,9.26305 8.81023,12.06706 13.87643,10.32234 33.97548,3.91327 39.12589,-12.47624 1.15385,-3.67174 1.38306,-9.4852 0.50921,-12.98087 z m -86.13352,58.63588 c -2.0224,-5.46666 -9.0129,-7.06875 -13.36523,-3.06304 -3.53312,3.25183 -3.73396,8.09589 -0.48218,11.629 6.19954,6.7359 17.02982,0.0363 13.84741,-8.56596 z m -5.57791,-24.15826 c -0.26566,-0.011 -8.12629,4.61389 -17.46833,10.27756 -9.34203,5.66363 -17.09732,10.2929 -17.23397,10.28723 -0.13657,-0.006 -18.44789,-13.26576 -40.69159,-29.46688 -27.4108,-19.96452 -40.61774,-29.88607 -40.98495,-30.78949 -1.53526,-3.77692 5.90928,-9.0844 15.6349,-11.14664 4.979,-1.0558 13.79661,-0.77913 20.33382,0.63788 18.47832,4.00572 43.30654,18.64592 74.21896,43.76396 6.09314,4.95098 7.57714,6.49374 6.19116,6.43627 z"
         id="path855"
         inkscape:connector-curvature="0" />
      <path
         style="fill:#ffffff;stroke-width:1.25964332"
         d="m 242.69869,182.32152 -3.28308,30.57853 c 10.66067,-6.48422 15.35981,-9.95589 24.2843,-15.36151 z m 29.86772,71.25465 c -4.62488,2.81799 -9.06367,5.38382 -13.33203,7.70899 0.22209,2.99949 0.3724,5.11957 0.60937,8.28711 1.70672,22.81385 2.5628,53.02772 4.34766,76.91992 2.37882,31.84274 3.74371,44.20273 5.11328,46.29297 2.2926,3.49895 8.10774,3.81321 11.01953,0.5957 1.33256,-1.47246 5.08615,-17.69542 10.81055,-46.72461 4.82301,-24.45814 8.98511,-44.68434 9.24804,-44.94727 0.26294,-0.26295 1.46349,10.13175 2.66797,23.09961 2.41251,25.97381 3.49344,29.25977 9.63281,29.25977 4.94664,0 7.07324,-3.48269 8.81836,-14.44922 0.76856,-4.82968 1.58169,-8.96841 1.8086,-9.19531 0.2269,-0.22691 1.33259,4.57609 2.45703,10.67187 2.28244,12.3734 5.02456,17.18416 10.14062,17.79102 5.09887,0.6048 7.78111,-2.59268 14.89258,-17.75391 4.64597,-9.90489 7.0764,-13.71931 9.00195,-14.13086 1.45072,-0.31008 12.29833,-0.72431 24.10743,-0.91992 18.21924,-0.30177 21.9987,-0.70254 24.95507,-2.64062 2.36318,-1.54918 3.3597,-3.15885 3.09375,-5.00586 -0.72998,-5.06965 -5.0757,-5.89817 -31.08203,-5.91797 -29.49649,-0.0225 -31.51129,0.66758 -38.10937,13.04687 -2.24134,4.20518 -4.23778,7.09647 -4.43555,6.42383 -0.19775,-0.67262 -2.05618,-10.49649 -4.13086,-21.83008 -4.29622,-23.4695 -5.86427,-26.96659 -11.83203,-26.38867 -3.11617,0.30177 -4.49257,1.33975 -6.13672,4.63281 l -2.11914,4.24414 -0.66016,-4.24414 c -0.36409,-2.33436 -1.28344,-10.76322 -2.04296,-18.73046 -0.80006,-8.3927 -2.16041,-15.67827 -3.23243,-17.32032 -2.25882,-3.45986 -8.0923,-3.79464 -10.94531,-0.6289 -1.25211,1.38936 -5.05114,17.6832 -10.27344,44.07226 -4.55717,23.02807 -8.28515,42.25509 -8.28515,42.72461 0,0.46952 -0.26898,0.58454 -0.59766,0.25586 -0.32869,-0.32868 -1.46507,-31.11099 -4.96875,-78.18164 -0.18346,-2.46481 -0.35803,-4.59559 -0.54101,-7.01758 z m -29.07032,13.69531 c -5.51295,2.60495 -10.72947,4.75606 -15.68945,6.47266 -9.97649,51.7325 -16.28544,86.16266 -16.48437,86.36524 -0.59586,0.60672 -1.61643,-7.92028 -6.98243,-58.31641 -1.27299,-11.95569 -2.47751,-18.82773 -3.47851,-27.58203 -2.6785,-0.16629 -5.1294,-0.47524 -6.94531,-0.95899 -6.84804,-1.82433 -12.73154,-5.47262 -15.01172,-8.79297 -2.5308,5.5637 -5.93658,9.41917 -11.09571,21.38868 -8.39145,19.46871 -11.10556,24.59299 -13.51171,25.50781 -1.65607,0.62965 -13.03494,1.15201 -25.28711,1.16211 -23.79052,0.0198 -28.25081,0.93182 -28.96875,5.91797 -0.265985,1.8472 0.72983,3.45651 3.09375,5.00586 3.07239,2.01369 6.47322,2.28515 28.73437,2.28515 33.95008,0 33.8824,0.0387 45.45117,-26.45312 3.93305,-9.00645 7.67281,-17.72988 8.31055,-19.38477 0.63773,-1.6549 1.44031,-2.72763 1.7832,-2.38476 0.48227,0.48228 14.38316,124.43245 14.41406,128.52539 0.004,0.51961 1.14174,2.07728 2.52735,3.46289 5.55054,5.55054 11.57117,1.60014 13.74805,-9.01953 0.75828,-3.69921 9.01566,-46.34446 18.3496,-94.76758 3.34506,-17.35364 4.34179,-24.69432 7.04297,-38.4336 z"
         id="path885"
         inkscape:connector-curvature="0"
         sodipodi:nodetypes="cccccccsccscssccccccccssccsscccccsssccccccscccscccssscccscsc" />
    </g>
  </g>
</svg>
