<?xml version="1.0" encoding="UTF-8" standalone="no"?>
<!-- Created with Inkscape (http://www.inkscape.org/) -->

<svg
   xmlns:dc="http://purl.org/dc/elements/1.1/"
   xmlns:cc="http://creativecommons.org/ns#"
   xmlns:rdf="http://www.w3.org/1999/02/22-rdf-syntax-ns#"
   xmlns:svg="http://www.w3.org/2000/svg"
   xmlns="http://www.w3.org/2000/svg"
   xmlns:sodipodi="http://sodipodi.sourceforge.net/DTD/sodipodi-0.dtd"
   xmlns:inkscape="http://www.inkscape.org/namespaces/inkscape"
   id="svg3027"
   version="1.1"
   inkscape:version="0.92.3 (2405546, 2018-03-11)"
   width="512"
   height="512"
   sodipodi:docname="swift.svg">
  <metadata
     id="metadata3033">
    <rdf:RDF>
      <cc:Work
         rdf:about="">
        <dc:format>image/svg+xml</dc:format>
        <dc:type
           rdf:resource="http://purl.org/dc/dcmitype/StillImage" />
        <dc:title></dc:title>
      </cc:Work>
    </rdf:RDF>
  </metadata>
  <defs
     id="defs3031" />
  <sodipodi:namedview
     pagecolor="#ffffff"
     bordercolor="#666666"
     borderopacity="1"
     objecttolerance="10"
     gridtolerance="10"
     guidetolerance="10"
     inkscape:pageopacity="0"
     inkscape:pageshadow="2"
     inkscape:window-width="1174"
     inkscape:window-height="637"
     id="namedview3029"
     showgrid="false"
     inkscape:zoom="0.30903185"
     inkscape:cx="726.42306"
     inkscape:cy="79.03047"
     inkscape:window-x="15"
     inkscape:window-y="39"
     inkscape:window-maximized="0"
     inkscape:current-layer="svg3027" />
  <g
     id="g872">
    <path
       id="path943"
       d="m 432.91325,56.47397 c 102.19291,88.57459 105.82678,249.69971 8.1168,359.89879 C 343.32008,526.57183 181.27964,544.10063 79.086744,455.52601 -23.106206,366.95143 -26.740034,205.82631 70.969944,95.62723 168.6799,-14.57185 330.72035,-32.10062 432.91325,56.47397 Z"
       inkscape:connector-curvature="0"
       style="fill:#f37329;fill-opacity:1;stroke-width:11.10955811" />
    <path
       id="path947"
       d="M 511.63549,224.90352 C 510.0841,286.21516 486.47426,349.05812 440.66911,400.71799 342.95914,510.91713 180.91869,528.44583 78.725754,439.87129 30.827124,398.35564 4.4968146,340.92284 0.19382462,280.22881 0.79907462,346.58548 27.117404,410.48218 79.078684,455.51911 181.27159,544.09363 343.31974,526.55623 441.022,416.36577 490.72695,360.30766 514.02702,291.0748 511.63549,224.90352 Z"
       inkscape:connector-curvature="0"
       style="opacity:1;fill:#000000;fill-opacity:0.49019608;stroke-width:11.10955811" />
    <path
       id="path843"
       d="M 188.11328 161.44336 C 187.50569 161.4855 227.88842 222.69046 275.82227 274.45898 C 254.3966 260.82446 190.12033 214.07827 149.2168 177.07031 C 155.06017 186.80923 160.90275 194.60142 166.74609 202.39258 C 199.71383 245.05672 244.26981 297.36921 296.5625 338.19531 C 316.37374 326.27729 331.80944 308.44272 340.43359 285.5918 C 338.82675 284.62537 336.85843 283.55129 334.25586 282.25 C 334.25586 282.25 264.13558 239.39979 188.17188 161.48828 C 188.14144 161.45785 188.12293 161.44269 188.11328 161.44336 z M 390.21289 367.5918 C 390.18319 367.63229 390.1528 367.67244 390.12305 367.71289 C 390.15281 367.6724 390.18318 367.63234 390.21289 367.5918 z M 387.44531 371.20312 C 387.3787 371.28628 387.31099 371.36824 387.24414 371.45117 C 387.31094 371.36822 387.37874 371.2863 387.44531 371.20312 z M 381.46289 378.05469 C 381.40198 378.11872 381.34232 378.18417 381.28125 378.24805 C 381.3423 378.18414 381.40199 378.11876 381.46289 378.05469 z M 378.36133 381.17969 C 378.21281 381.32355 378.06534 381.46833 377.91602 381.61133 C 378.06529 381.4683 378.21286 381.32359 378.36133 381.17969 z M 375.03125 384.27539 C 374.82658 384.45766 374.62011 384.63763 374.41406 384.81836 C 374.62009 384.63758 374.82661 384.45771 375.03125 384.27539 z M 387.85156 387.92188 C 384.64328 387.90463 381.47252 388.21426 378.39062 388.74609 C 385.50857 389.97194 391.00506 389.5976 394.96094 388.52344 C 392.58693 388.13255 390.21056 387.93456 387.85156 387.92188 z "
       style="fill:#000000;fill-opacity:0.49019608;stroke-width:1.82969165" />
    <path
       inkscape:connector-curvature="0"
       id="path845"
       d="m 310.88321,136.16684 c 31.1646,42.85132 44.79912,93.49381 33.11238,138.2929 C 324.51772,348.47567 238.81505,377.6925 155.0602,336.78895 143.37346,330.94558 131.68672,323.15444 120,315.36328 c 21.42568,35.06019 56.48587,66.22478 97.3894,83.75489 85.70265,37.00795 171.40532,5.84334 190.88317,-70.12037 15.58231,-70.12036 -25.32123,-149.97964 -97.38936,-192.83096"
       style="fill:#000000;fill-opacity:0.49019608;stroke-width:1.82969165" />
    <path
       id="path847"
       d="M 406.94922 333.70898 C 399.33817 359.07554 384.1288 379.12957 363.9707 392.93555 C 382.61061 385.36961 410.71531 382.18038 427.75 414.70117 C 431.62193 424.38102 441.2583 378.2577 406.94922 333.70898 z "
       style="fill:#000000;fill-opacity:0.49019608;stroke-width:1.82969165" />
    <g
       style="fill:#ffffff"
       transform="matrix(1.8296917,0,0,1.8296917,7.8962986,3.9709374)"
       id="g3347">
      <path
         inkscape:connector-curvature="0"
         id="Fill-62"
         d="m 181.27731,152.87036 c -8.51635,-7.45181 -5.32272,-7.45181 -13.83907,-11.70999 0,0 -38.3236,-23.41997 -79.840813,-66.001737 -1.06454,-1.06454 21.290883,33.000877 47.904493,61.743557 -11.70999,-7.45181 -46.839953,-33.00086 -69.195379,-53.227197 3.193637,5.32271 6.387274,9.58089 9.580895,13.83907 18.097249,23.419977 42.581774,52.162657 71.324474,74.518087 6.38726,7.45181 8.51634,8.51635 18.09725,14.90361 25.54904,18.09727 38.32358,12.77453 39.38813,9.58091 v 0 c 1.06454,-5.32273 0,-22.35542 -23.41998,-43.64631"
         style="fill:#ffffff" />
      <path
         inkscape:connector-curvature="0"
         id="Fill-63"
         d="m 154.66371,61.319565 c 17.03271,23.419968 24.48452,51.098125 18.09725,75.582625 -10.64544,40.45268 -57.48539,56.42085 -103.260782,34.06542 -6.387273,-3.19364 -12.774547,-7.45181 -19.161806,-11.70999 11.709992,19.1618 30.871797,36.1945 53.227218,45.77541 46.83994,20.22633 93.67989,3.19362 104.32532,-38.3236 8.51636,-38.32359 -13.83907,-81.969897 -53.2272,-105.389865"
         style="fill:#ffffff" />
      <path
         inkscape:connector-curvature="0"
         id="Fill-64"
         d="m 177.01913,205.03303 c 8.51636,-5.32274 29.80724,-13.83909 41.51723,8.51635 2.12908,5.32272 7.4518,-20.22634 -11.70999,-44.71087 -18.09725,-22.35542 -14.90361,13.83909 -14.90361,13.83909 z"
         style="fill:#ffffff" />
    </g>
  </g>
</svg>
