<?xml version="1.0" encoding="UTF-8" standalone="no"?>
<!-- Created with Inkscape (http://www.inkscape.org/) -->

<svg
   xmlns:dc="http://purl.org/dc/elements/1.1/"
   xmlns:cc="http://creativecommons.org/ns#"
   xmlns:rdf="http://www.w3.org/1999/02/22-rdf-syntax-ns#"
   xmlns:svg="http://www.w3.org/2000/svg"
   xmlns="http://www.w3.org/2000/svg"
   xmlns:xlink="http://www.w3.org/1999/xlink"
   xmlns:sodipodi="http://sodipodi.sourceforge.net/DTD/sodipodi-0.dtd"
   xmlns:inkscape="http://www.inkscape.org/namespaces/inkscape"
   width="512"
   height="512"
   id="svg2"
   version="1.1"
   inkscape:version="0.92.3 (2405546, 2018-03-11)"
   sodipodi:docname="synfig.svg"
   inkscape:export-filename="/home/alecive/Scrivania/firefoxTest1.png"
   inkscape:export-xdpi="100"
   inkscape:export-ydpi="100">
  <sodipodi:namedview
     id="base"
     pagecolor="#ffffff"
     bordercolor="#666666"
     borderopacity="1.0"
     inkscape:pageopacity="0.0"
     inkscape:pageshadow="2"
     inkscape:zoom="0.24389457"
     inkscape:cx="10.396765"
     inkscape:cy="185.24689"
     inkscape:document-units="px"
     inkscape:current-layer="svg2"
     showgrid="false"
     inkscape:window-width="1366"
     inkscape:window-height="711"
     inkscape:window-x="0"
     inkscape:window-y="28"
     inkscape:window-maximized="1"
     inkscape:object-paths="false"
     inkscape:snap-intersection-paths="false"
     inkscape:object-nodes="true"
     inkscape:snap-smooth-nodes="true"
     inkscape:snap-nodes="false" />
  <defs
     id="defs4">
    <linearGradient
       id="linearGradient3938">
      <stop
         style="stop-color:#eb2d2d;stop-opacity:1;"
         offset="0"
         id="stop3940" />
      <stop
         style="stop-color:#df2525;stop-opacity:1;"
         offset="1"
         id="stop3942" />
    </linearGradient>
    <linearGradient
       id="XMLID_74_-8-1"
       gradientUnits="userSpaceOnUse"
       x1="64.477501"
       y1="56.3008"
       x2="78.466103"
       y2="48.0854">
      <stop
         offset="0"
         style="stop-color:#ffffff;stop-opacity:1;"
         id="stop155-3-8" />
      <stop
         offset="1"
         style="stop-color:#e6e6e6;stop-opacity:1;"
         id="stop157-94-6" />
    </linearGradient>
    <radialGradient
       inkscape:collect="always"
       xlink:href="#XMLID_74_-8-1"
       id="radialGradient3867"
       cx="558.35437"
       cy="385.4841"
       fx="558.35437"
       fy="385.4841"
       r="191.6187"
       gradientTransform="matrix(1,0,0,1.0499906,0,-19.270593)"
       gradientUnits="userSpaceOnUse" />
    <linearGradient
       id="SVGID_2_"
       gradientUnits="userSpaceOnUse"
       x1="200.0508"
       y1="185.0742"
       x2="200.0508"
       y2="217.4595">
      <stop
         offset="0"
         style="stop-color:#61B74A"
         id="stop13" />
      <stop
         offset="1"
         style="stop-color:#449934"
         id="stop15" />
    </linearGradient>
    <linearGradient
       y2="217.4595"
       x2="200.0508"
       y1="185.0742"
       x1="200.0508"
       gradientTransform="matrix(13.577628,0,0,13.577628,-2026.1619,-2566.7096)"
       gradientUnits="userSpaceOnUse"
       id="linearGradient3021"
       xlink:href="#SVGID_2_"
       inkscape:collect="always" />
    <linearGradient
       id="linearGradient2460"
       y2="44.984001"
       gradientUnits="userSpaceOnUse"
       x2="19.360001"
       y1="21.030804"
       x1="19.244999">
      <stop
         id="stop3602"
         style="stop-color:#fafafa;stop-opacity:1;"
         offset="0" />
      <stop
         id="stop3604"
         style="stop-color:#f0f0f0;stop-opacity:1;"
         offset="1" />
    </linearGradient>
    <linearGradient
       y2="44.984001"
       x2="19.360001"
       y1="21.030804"
       x1="19.244999"
       gradientTransform="matrix(11.076923,0,0,11.076923,-9.8523013,-20.578025)"
       gradientUnits="userSpaceOnUse"
       id="linearGradient3096"
       xlink:href="#linearGradient2460"
       inkscape:collect="always" />
    <linearGradient
       y2="20.625916"
       x2="1006.8082"
       y1="484.41721"
       x1="1012.5133"
       gradientTransform="matrix(1.0317796,0,0,1.0317796,-830.86406,592.67791)"
       gradientUnits="userSpaceOnUse"
       id="linearGradient4114-2"
       xlink:href="#ButtonShadow-0-1-1-5"
       inkscape:collect="always" />
    <linearGradient
       gradientTransform="matrix(1.0058652,0,0,0.994169,100,0)"
       gradientUnits="userSpaceOnUse"
       id="ButtonShadow-0-1-1-5"
       y2="7.0165396"
       x2="45.447727"
       y1="92.539597"
       x1="45.447727">
      <stop
         offset="0"
         style="stop-color:#000000;stop-opacity:1"
         id="stop3750-8-9-3-6" />
      <stop
         offset="1"
         style="stop-color:#000000;stop-opacity:0.58823532"
         id="stop3752-5-6-4-2" />
    </linearGradient>
    <linearGradient
       y2="20.625916"
       x2="1006.8082"
       y1="484.41721"
       x1="1012.5133"
       gradientTransform="matrix(1.0402541,0,0,1.0402541,-837.95116,592.51825)"
       gradientUnits="userSpaceOnUse"
       id="linearGradient4112-2"
       xlink:href="#ButtonShadow-0-1-1-5"
       inkscape:collect="always" />
    <linearGradient
       gradientTransform="matrix(1.0058652,0,0,0.994169,100,0)"
       gradientUnits="userSpaceOnUse"
       id="linearGradient5292"
       y2="7.0165396"
       x2="45.447727"
       y1="92.539597"
       x1="45.447727">
      <stop
         offset="0"
         style="stop-color:#000000;stop-opacity:1"
         id="stop5294" />
      <stop
         offset="1"
         style="stop-color:#000000;stop-opacity:0.58823532"
         id="stop5296" />
    </linearGradient>
    <linearGradient
       y2="20.625916"
       x2="1006.8082"
       y1="484.41721"
       x1="1012.5133"
       gradientTransform="matrix(1.023305,0,0,1.023305,-823.77704,592.83757)"
       gradientUnits="userSpaceOnUse"
       id="linearGradient4110-6"
       xlink:href="#ButtonShadow-0-1-1-5"
       inkscape:collect="always" />
    <linearGradient
       gradientTransform="matrix(1.0058652,0,0,0.994169,100,0)"
       gradientUnits="userSpaceOnUse"
       id="linearGradient5299"
       y2="7.0165396"
       x2="45.447727"
       y1="92.539597"
       x1="45.447727">
      <stop
         offset="0"
         style="stop-color:#000000;stop-opacity:1"
         id="stop5301" />
      <stop
         offset="1"
         style="stop-color:#000000;stop-opacity:0.58823532"
         id="stop5303" />
    </linearGradient>
    <linearGradient
       y2="20.625916"
       x2="1006.8082"
       y1="484.41721"
       x1="1012.5133"
       gradientTransform="matrix(1.0148305,0,0,1.0148305,-816.68996,592.99723)"
       gradientUnits="userSpaceOnUse"
       id="linearGradient4116-6"
       xlink:href="#ButtonShadow-0-1-1-5"
       inkscape:collect="always" />
    <linearGradient
       gradientTransform="matrix(1.0058652,0,0,0.994169,100,0)"
       gradientUnits="userSpaceOnUse"
       id="linearGradient5306"
       y2="7.0165396"
       x2="45.447727"
       y1="92.539597"
       x1="45.447727">
      <stop
         offset="0"
         style="stop-color:#000000;stop-opacity:1"
         id="stop5308" />
      <stop
         offset="1"
         style="stop-color:#000000;stop-opacity:0.58823532"
         id="stop5310" />
    </linearGradient>
    <linearGradient
       inkscape:collect="always"
       xlink:href="#ButtonShadow-0-1-1-5"
       id="linearGradient3372"
       gradientUnits="userSpaceOnUse"
       gradientTransform="matrix(1.0074153,0,0,1.0074153,-810.48879,593.1369)"
       x1="1012.5133"
       y1="484.41721"
       x2="1006.8082"
       y2="20.625916" />
    <linearGradient
       gradientTransform="matrix(1.0058652,0,0,0.994169,100,0)"
       gradientUnits="userSpaceOnUse"
       id="linearGradient5313"
       y2="7.0165396"
       x2="45.447727"
       y1="92.539597"
       x1="45.447727">
      <stop
         offset="0"
         style="stop-color:#000000;stop-opacity:1"
         id="stop5315" />
      <stop
         offset="1"
         style="stop-color:#000000;stop-opacity:0.58823532"
         id="stop5317" />
    </linearGradient>
    <linearGradient
       y2="251.66064"
       x2="1011.9534"
       y1="476.25983"
       x1="1016.1035"
       gradientTransform="translate(-146.22032,369.08845)"
       gradientUnits="userSpaceOnUse"
       id="linearGradient4082"
       xlink:href="#linearGradient4487"
       inkscape:collect="always" />
    <linearGradient
       id="linearGradient4487">
      <stop
         offset="0"
         style="stop-color:#000000;stop-opacity:1"
         id="stop4489" />
      <stop
         offset="1"
         style="stop-color:#000000;stop-opacity:0"
         id="stop4491" />
    </linearGradient>
    <linearGradient
       id="linearGradient3737">
      <stop
         offset="0"
         style="stop-color:#ffffff;stop-opacity:1"
         id="stop3739" />
      <stop
         offset="1"
         style="stop-color:#ffffff;stop-opacity:0"
         id="stop3741" />
    </linearGradient>
    <linearGradient
       id="linearGradient4046">
      <stop
         offset="0"
         style="stop-color:#000000;stop-opacity:1;"
         id="stop4048" />
      <stop
         offset="1"
         style="stop-color:#ffffff;stop-opacity:0.2"
         id="stop4050" />
    </linearGradient>
    <linearGradient
       inkscape:collect="always"
       xlink:href="#ButtonShadow-0-1-1-5"
       id="linearGradient5342"
       gradientUnits="userSpaceOnUse"
       gradientTransform="matrix(1.0074153,0,0,1.0074153,-810.48879,593.1369)"
       x1="1012.5133"
       y1="484.41721"
       x2="1006.8082"
       y2="20.625916" />
    <linearGradient
       gradientTransform="matrix(1.0058652,0,0,0.994169,100,0)"
       gradientUnits="userSpaceOnUse"
       id="ButtonShadow-0-1-1-5-9"
       y2="7.0165396"
       x2="45.447727"
       y1="92.539597"
       x1="45.447727">
      <stop
         offset="0"
         style="stop-color:#000000;stop-opacity:1"
         id="stop3750-8-9-3-6-4" />
      <stop
         offset="1"
         style="stop-color:#000000;stop-opacity:0.58823532"
         id="stop3752-5-6-4-2-9" />
    </linearGradient>
    <linearGradient
       gradientTransform="matrix(1.0058652,0,0,0.994169,100,0)"
       gradientUnits="userSpaceOnUse"
       id="linearGradient5292-5"
       y2="7.0165396"
       x2="45.447727"
       y1="92.539597"
       x1="45.447727">
      <stop
         offset="0"
         style="stop-color:#000000;stop-opacity:1"
         id="stop5294-8" />
      <stop
         offset="1"
         style="stop-color:#000000;stop-opacity:0.58823532"
         id="stop5296-4" />
    </linearGradient>
    <linearGradient
       gradientTransform="matrix(1.0058652,0,0,0.994169,100,0)"
       gradientUnits="userSpaceOnUse"
       id="linearGradient5299-2"
       y2="7.0165396"
       x2="45.447727"
       y1="92.539597"
       x1="45.447727">
      <stop
         offset="0"
         style="stop-color:#000000;stop-opacity:1"
         id="stop5301-9" />
      <stop
         offset="1"
         style="stop-color:#000000;stop-opacity:0.58823532"
         id="stop5303-1" />
    </linearGradient>
    <linearGradient
       gradientTransform="matrix(1.0058652,0,0,0.994169,100,0)"
       gradientUnits="userSpaceOnUse"
       id="linearGradient5306-9"
       y2="7.0165396"
       x2="45.447727"
       y1="92.539597"
       x1="45.447727">
      <stop
         offset="0"
         style="stop-color:#000000;stop-opacity:1"
         id="stop5308-0" />
      <stop
         offset="1"
         style="stop-color:#000000;stop-opacity:0.58823532"
         id="stop5310-6" />
    </linearGradient>
    <linearGradient
       inkscape:collect="always"
       xlink:href="#ButtonShadow-0-1-1-5-9"
       id="linearGradient3372-9"
       gradientUnits="userSpaceOnUse"
       gradientTransform="matrix(1.0074153,0,0,1.0074153,-810.48879,593.1369)"
       x1="1012.5133"
       y1="484.41721"
       x2="1006.8082"
       y2="20.625916" />
    <linearGradient
       gradientTransform="matrix(1.0058652,0,0,0.994169,100,0)"
       gradientUnits="userSpaceOnUse"
       id="linearGradient5313-8"
       y2="7.0165396"
       x2="45.447727"
       y1="92.539597"
       x1="45.447727">
      <stop
         offset="0"
         style="stop-color:#000000;stop-opacity:1"
         id="stop5315-8" />
      <stop
         offset="1"
         style="stop-color:#000000;stop-opacity:0.58823532"
         id="stop5317-1" />
    </linearGradient>
    <linearGradient
       y2="251.66064"
       x2="1011.9534"
       y1="476.25983"
       x1="1016.1035"
       gradientTransform="translate(-146.22032,369.08845)"
       gradientUnits="userSpaceOnUse"
       id="linearGradient4082-7"
       xlink:href="#linearGradient4487-8"
       inkscape:collect="always" />
    <linearGradient
       id="linearGradient4487-8">
      <stop
         offset="0"
         style="stop-color:#000000;stop-opacity:1"
         id="stop4489-0" />
      <stop
         offset="1"
         style="stop-color:#000000;stop-opacity:0"
         id="stop4491-4" />
    </linearGradient>
    <linearGradient
       y2="363.73825"
       x2="988.78552"
       y1="51.511765"
       x1="993.43896"
       gradientTransform="translate(778.59979,-360.55963)"
       gradientUnits="userSpaceOnUse"
       id="linearGradient4084-7"
       xlink:href="#linearGradient3737-8"
       inkscape:collect="always" />
    <linearGradient
       id="linearGradient3737-8">
      <stop
         offset="0"
         style="stop-color:#ffffff;stop-opacity:1"
         id="stop3739-4" />
      <stop
         offset="1"
         style="stop-color:#ffffff;stop-opacity:0"
         id="stop3741-7" />
    </linearGradient>
    <linearGradient
       y2="-55.941216"
       x2="1763.6903"
       y1="155.59685"
       x1="1764.6487"
       gradientUnits="userSpaceOnUse"
       id="linearGradient4086-1"
       xlink:href="#linearGradient4046-2"
       inkscape:collect="always" />
    <linearGradient
       id="linearGradient4046-2">
      <stop
         offset="0"
         style="stop-color:#000000;stop-opacity:1;"
         id="stop4048-2" />
      <stop
         offset="1"
         style="stop-color:#ffffff;stop-opacity:0.2"
         id="stop4050-7" />
    </linearGradient>
    <linearGradient
       id="linearGradient4487-1">
      <stop
         offset="0"
         style="stop-color:#000000;stop-opacity:1"
         id="stop4489-6" />
      <stop
         offset="1"
         style="stop-color:#000000;stop-opacity:0"
         id="stop4491-0" />
    </linearGradient>
    <linearGradient
       id="linearGradient3737-9">
      <stop
         offset="0"
         style="stop-color:#ffffff;stop-opacity:1"
         id="stop3739-7" />
      <stop
         offset="1"
         style="stop-color:#ffffff;stop-opacity:0"
         id="stop3741-4" />
    </linearGradient>
    <linearGradient
       id="linearGradient4046-3">
      <stop
         offset="0"
         style="stop-color:#000000;stop-opacity:1;"
         id="stop4048-7" />
      <stop
         offset="1"
         style="stop-color:#ffffff;stop-opacity:0.2"
         id="stop4050-73" />
    </linearGradient>
    <linearGradient
       id="linearGradient2760">
      <stop
         id="stop2770"
         offset="0"
         style="stop-color:#ffffff;stop-opacity:1;" />
      <stop
         id="stop2764"
         offset="1"
         style="stop-color:#a9a9a9;stop-opacity:1;" />
    </linearGradient>
    <linearGradient
       id="linearGradient4846">
      <stop
         offset="0"
         style="stop-color:#1a1a1a;stop-opacity:1"
         id="stop4848" />
      <stop
         offset="1"
         style="stop-color:#1e1e1e;stop-opacity:1;"
         id="stop4856" />
    </linearGradient>
    <linearGradient
       id="linearGradient4922">
      <stop
         id="stop4924"
         style="stop-color:#1a1a1a;stop-opacity:1"
         offset="0" />
      <stop
         id="stop4926"
         style="stop-color:#636363;stop-opacity:1"
         offset="0.15622118" />
      <stop
         id="stop4928"
         style="stop-color:#b4b4b4;stop-opacity:1"
         offset="0.33151907" />
      <stop
         id="stop4930"
         style="stop-color:#636363;stop-opacity:1"
         offset="0.53579742" />
      <stop
         id="stop4932"
         style="stop-color:#000000;stop-opacity:1"
         offset="1" />
    </linearGradient>
    <linearGradient
       y2="110.85986"
       x2="166.77547"
       y1="152.12039"
       x1="201.33115"
       spreadMethod="reflect"
       gradientTransform="matrix(1.2757694,0,0,1.2757694,-135.89444,2.4500392)"
       gradientUnits="userSpaceOnUse"
       id="linearGradient4884"
       xlink:href="#linearGradient4888"
       inkscape:collect="always" />
    <linearGradient
       id="linearGradient4888">
      <stop
         offset="0"
         style="stop-color:#c0821c;stop-opacity:1;"
         id="stop4892" />
      <stop
         id="stop4894"
         style="stop-color:#e4ae48;stop-opacity:1;"
         offset="1" />
    </linearGradient>
    <linearGradient
       gradientUnits="userSpaceOnUse"
       y2="158.47191"
       x2="258.22205"
       y1="160.82593"
       x1="13.021049"
       id="linearGradient4882"
       xlink:href="#linearGradient4898"
       inkscape:collect="always" />
    <linearGradient
       id="linearGradient4898">
      <stop
         offset="0"
         style="stop-color:#a86f20;stop-opacity:1;"
         id="stop4900" />
      <stop
         offset="1"
         style="stop-color:#c68d31;stop-opacity:1"
         id="stop4902" />
    </linearGradient>
    <linearGradient
       x1="45.447727"
       y1="92.539597"
       x2="45.447727"
       y2="7.0165396"
       id="ButtonShadow"
       gradientUnits="userSpaceOnUse"
       gradientTransform="scale(1.0058652,0.994169)">
      <stop
         id="stop3750"
         style="stop-color:#000000;stop-opacity:1"
         offset="0" />
      <stop
         id="stop3752"
         style="stop-color:#000000;stop-opacity:0.58823532"
         offset="1" />
    </linearGradient>
    <filter
       color-interpolation-filters="sRGB"
       id="filter3174">
      <feGaussianBlur
         stdDeviation="1.71"
         id="feGaussianBlur3176" />
    </filter>
    <linearGradient
       id="linearGradient10386">
      <stop
         id="stop10388"
         style="stop-color:#ffffff;stop-opacity:1"
         offset="0" />
      <stop
         id="stop10390"
         style="stop-color:#ffffff;stop-opacity:0"
         offset="1" />
    </linearGradient>
    <linearGradient
       y2="168.28262"
       x2="214.26566"
       y1="11.425488"
       x1="212.86353"
       spreadMethod="reflect"
       gradientTransform="matrix(1.8464564,0,0,1.8464564,-123.73343,86.826257)"
       gradientUnits="userSpaceOnUse"
       id="linearGradient8264"
       xlink:href="#linearGradient2760"
       inkscape:collect="always" />
    <linearGradient
       y2="1"
       x2="1"
       y1="0"
       x1="0"
       id="acyl_gradient"
       xlink:href="#linearGradient4321"
       inkscape:collect="always" />
    <linearGradient
       id="linearGradient4321">
      <stop
         id="stop1"
         offset="0"
         style="stop-color:#ee0c0c;stop-opacity:1;" />
      <stop
         id="stop2"
         offset="1"
         style="stop-color:#7a0404;stop-opacity:1;" />
    </linearGradient>
    <radialGradient
       gradientUnits="userSpaceOnUse"
       gradientTransform="matrix(2.4249551,-0.00787504,0.00770263,2.3718665,-135.71828,-134.64744)"
       r="150"
       fy="98.692879"
       fx="94.710419"
       cy="98.692879"
       cx="94.710419"
       id="radialGradient3928"
       xlink:href="#linearGradient4321"
       inkscape:collect="always" />
    <radialGradient
       r="150"
       fy="98.692879"
       fx="94.710419"
       cy="98.692879"
       cx="94.710419"
       gradientTransform="matrix(2.4249551,-0.00787504,0.00770263,2.3718665,-135.71828,-134.64744)"
       gradientUnits="userSpaceOnUse"
       id="radialGradient3932"
       xlink:href="#linearGradient4321"
       inkscape:collect="always" />
    <radialGradient
       r="150"
       fy="112.57468"
       fx="110.73653"
       cy="112.57468"
       cx="110.73653"
       gradientTransform="matrix(1.6533901,0.0060994,-0.00539655,1.4623231,-50.506611,-35.439162)"
       gradientUnits="userSpaceOnUse"
       id="radialGradient3936"
       xlink:href="#linearGradient3938"
       inkscape:collect="always" />
    <radialGradient
       inkscape:collect="always"
       xlink:href="#linearGradient3938"
       id="radialGradient3140"
       gradientUnits="userSpaceOnUse"
       gradientTransform="matrix(1.6533901,0.0060994,-0.00539655,1.4623231,-50.506611,-35.439162)"
       cx="110.73653"
       cy="112.57468"
       fx="110.73653"
       fy="112.57468"
       r="150" />
    <linearGradient
       id="SVGID_1_"
       gradientUnits="userSpaceOnUse"
       x1="-5.5005002"
       y1="1630.667"
       x2="-5.5005002"
       y2="1758.2955"
       gradientTransform="matrix(2.1421967,0,0,2.1421967,-286.21472,-3492.71)">
      <stop
         offset="0"
         style="stop-color:#FFFFFF;stop-opacity:0.85"
         id="stop5" />
      <stop
         offset="0.66"
         style="stop-color:#FFFFFF;stop-opacity:0"
         id="stop7" />
    </linearGradient>
    <linearGradient
       id="SVGID_2_-5"
       gradientUnits="userSpaceOnUse"
       x1="-5.5005002"
       y1="1757.501"
       x2="-5.5005002"
       y2="1865.0122"
       gradientTransform="translate(133.5,-1619.5)">
      <stop
         offset="0"
         style="stop-color:#000000;stop-opacity:0.15"
         id="stop18" />
      <stop
         offset="0.6626"
         style="stop-color:#000000;stop-opacity:0"
         id="stop20" />
    </linearGradient>
    <filter
       inkscape:label="Drop Shadow"
       id="filter8022"
       color-interpolation-filters="sRGB">
      <feFlood
         result="flood"
         flood-color="rgb(0,0,0)"
         flood-opacity="0"
         id="feFlood8024" />
      <feComposite
         result="composite1"
         operator="in"
         in="flood"
         in2="SourceGraphic"
         id="feComposite8026" />
      <feOffset
         result="offset"
         dy="0"
         dx="0"
         id="feOffset8028" />
      <feComposite
         result="composite2"
         operator="over"
         in="SourceGraphic"
         in2="offset"
         id="feComposite8030" />
    </filter>
    <filter
       inkscape:label="Drop Shadow"
       id="filter8090"
       color-interpolation-filters="sRGB">
      <feFlood
         result="flood"
         flood-color="rgb(0,0,0)"
         flood-opacity="0"
         id="feFlood8092" />
      <feComposite
         result="composite1"
         operator="in"
         in="flood"
         in2="SourceGraphic"
         id="feComposite8094" />
      <feOffset
         result="offset"
         dy="0"
         dx="0"
         id="feOffset8096" />
      <feComposite
         result="composite2"
         operator="over"
         in="SourceGraphic"
         in2="offset"
         id="feComposite8098" />
    </filter>
  </defs>
  <metadata
     id="metadata7">
    <rdf:RDF>
      <cc:Work
         rdf:about="">
        <dc:format>image/svg+xml</dc:format>
        <dc:type
           rdf:resource="http://purl.org/dc/dcmitype/StillImage" />
        <dc:title></dc:title>
      </cc:Work>
    </rdf:RDF>
  </metadata>
  <g
     transform="translate(0,-540.36218)"
     inkscape:label="Livello 1"
     inkscape:groupmode="layer"
     id="layer1" />
  <g
     transform="matrix(1.1,0,0,0.44444,95.081063,256.39254)"
     id="g2036">
    <g
       transform="matrix(1.0526,0,0,1.2857,-1.2632,-13.429)"
       style="opacity:0.4"
       id="g3712" />
  </g>
  <g
     id="g3541"
     transform="translate(97.481063,231.28154)" />
  <g
     id="g3536"
     transform="translate(97.481063,231.28154)" />
  <g
     transform="translate(-605.51932,-353.96833)"
     id="g4076">
    <g
       id="g4038"
       transform="translate(-926.66758,684.38448)" />
  </g>
  <g
     transform="matrix(2.1421967,0,0,2.1421967,-572.19797,-23.422392)"
     id="g15">
    <linearGradient
       id="linearGradient3066"
       gradientUnits="userSpaceOnUse"
       x1="-5.5005002"
       y1="1757.501"
       x2="-5.5005002"
       y2="1865.0122"
       gradientTransform="translate(133.5,-1619.5)">
      <stop
         offset="0"
         style="stop-color:#000000;stop-opacity:0.15"
         id="stop3068" />
      <stop
         offset="0.6626"
         style="stop-color:#000000;stop-opacity:0"
         id="stop3070" />
    </linearGradient>
  </g>
  <g
     transform="matrix(2.1421967,0,0,2.1421967,-572.19797,-23.422392)"
     id="g24">
    <g
       id="g26">
      <g
         id="g28" />
    </g>
  </g>
  <g
     id="g993">
    <path
       style="fill:#3689e6;fill-opacity:1;stroke-width:11.10955811"
       inkscape:connector-curvature="0"
       d="m 432.91327,56.47397 c 102.19291,88.57459 105.82678,249.6997 8.1168,359.89878 C 343.3201,526.57184 181.27964,544.10061 79.086729,455.52602 -23.106186,366.95143 -26.740042,205.82631 70.969928,95.62723 168.6799,-14.57185 330.72036,-32.10062 432.91327,56.47397 Z"
       id="path27" />
    <path
       style="opacity:1;fill:#000000;fill-opacity:0.49019608;stroke-width:11.10955811"
       inkscape:connector-curvature="0"
       d="M 511.63551,224.90351 C 510.08412,286.21516 486.47428,349.05812 440.66913,400.71799 342.95915,510.91711 180.91869,528.44584 78.725776,439.87129 30.827124,398.35563 4.4968216,340.92284 0.1938277,280.2288 0.79907936,346.58548 27.117411,410.48217 79.078682,455.51906 181.27159,544.09361 343.31975,526.55619 441.02202,416.36576 490.72697,360.30766 514.02704,291.0748 511.63551,224.90351 Z"
       id="path51" />
    <path
       style="fill:#000000;fill-opacity:0.49019608;stroke:none;stroke-width:0.54624873px;stroke-linecap:butt;stroke-linejoin:miter;stroke-opacity:1"
       d="m 276.73862,120 c -10.14388,10.58525 -20.49557,22.49909 -29.85068,33.84947 -22.96208,28.63628 -40.35658,58.00264 -52.97525,89.43295 -11.79713,29.38408 -18.65925,54.61245 -24.95559,91.75182 -2.74221,16.17507 -5.56827,39.48864 -4.84131,39.93791 0.21423,0.13239 2.12948,0.33555 4.25615,0.45198 9.27956,0.50802 22.42305,2.7722 31.47683,5.42263 5.96945,1.74753 10.07169,3.25434 15.8927,5.83621 2.62684,1.16511 4.82929,2.11782 4.89508,2.11782 0.0658,0 2.50576,1.34158 5.42263,2.98085 14.2707,8.02014 25.11887,16.44195 41.95843,32.57672 4.37401,4.19093 8.15559,7.62952 8.40346,7.64161 0.24788,0.0121 4.37103,-3.69458 9.16277,-8.2383 13.8967,-13.17748 20.85698,-18.95886 30.65862,-25.46264 21.4722,-14.24763 41.10281,-20.72399 70.28796,-23.18732 l 2.33295,-0.1959 v -1.36366 c 0,-4.2409 -2.59874,-24.98786 -4.69534,-37.48077 C 377.88,298.60326 370.78868,272.4646 358.84111,242.71263 348.12941,216.03834 332.75455,189.00971 314.38965,164.56923 301.83954,149.71312 289.78263,134.23866 276.73858,120 Z m -53.68077,68.88589 c 0,-0.35041 12.31253,6.28152 16.9593,8.94381 8.10431,4.64324 24.17605,14.35025 32.0351,20.9312 2.21901,1.85815 4.21547,3.37905 4.43669,3.37905 0.22124,0 2.28759,-1.58053 4.59291,-3.51221 8.67665,-7.27043 22.99499,-18.33778 32.11831,-23.30256 3.18237,-1.73179 14.75825,-6.39714 14.75825,-6.13583 0,0.0893 -9.90421,5.15593 -12.42402,6.84262 -5.44591,3.64533 -17.67774,13.01653 -23.05032,17.41386 -4.81342,3.93966 -12.53797,11.36595 -12.53797,12.05397 0,0.2808 0.6425,1.23414 1.42768,2.11911 12.60951,14.2119 26.66376,32.98115 31.94162,43.23502 2.68371,5.21396 5.62885,9.2652 5.32659,9.2652 -0.10289,0 -1.3142,-1.59496 -2.69146,-3.54423 -3.01064,-4.26112 -13.71991,-20.62591 -17.30246,-24.86213 -6.97052,-8.24232 -21.24906,-23.00293 -22.25133,-23.00293 -0.53257,0 -12.70364,12.37194 -17.68787,17.9798 -5.4029,6.07893 -17.66763,23.82379 -21.37166,29.07858 -1.50807,2.13947 -2.82064,3.88996 -2.9181,3.88996 -0.0975,0 0.40557,-1.04927 1.11782,-2.33295 6.08857,-10.97317 21.059,-32.79241 36.06588,-49.70632 0.78519,-0.88497 1.42769,-1.84087 1.42769,-2.12423 0,-0.84218 -8.7122,-8.98005 -14.85684,-13.8773 -6.5395,-5.21199 -18.01828,-11.80825 -24.01832,-15.821 -2.32963,-1.55802 -11.09749,-6.82395 -11.09749,-6.91049 z m -35.00954,71.35967 c 1.09737,-0.36578 26.4833,11.86362 35.36422,16.87864 16.8675,9.52503 36.93943,23.39551 49.81259,34.42438 1.64708,1.41111 3.11575,2.56598 3.26382,2.56598 0.14809,0 1.61674,-1.15487 3.26381,-2.56598 12.90713,-11.05796 32.89998,-24.87451 49.80747,-34.42181 9.06245,-5.11738 31.10942,-15.38273 32.99926,-15.37029 0.33184,0.002 -8.2699,4.29991 -11.4368,5.98601 -17.95172,9.55769 -36.59485,22.88743 -54.81011,39.18885 -6.06953,5.43182 -13.61554,12.79373 -13.60714,13.27551 0.003,0.21299 2.02015,2.73984 4.48151,5.61468 8.27736,9.66792 17.03743,20.87547 24.63036,31.51397 8.45841,11.85111 20.65423,29.65674 20.16549,30.14389 -0.0615,0.0614 -3.38684,-3.58602 -4.99367,-5.70943 -6.95899,-9.19626 -15.23741,-19.14823 -24.34995,-29.27449 -6.653,-7.39311 -25.3079,-25.93256 -26.0939,-25.93256 -0.82664,0 -13.685,12.51026 -21.7161,21.12839 -10.35081,11.10739 -21.82232,24.00944 -29.41533,33.98775 -5.60365,7.364 -5.82844,7.102 -0.80155,-0.93729 10.99031,-17.5763 27.69158,-39.23864 41.97635,-55.86518 2.02196,-2.35342 3.67881,-4.45323 3.68253,-4.66717 0.008,-0.48437 -7.54374,-7.85265 -13.60714,-13.2755 -18.70159,-16.72586 -45.75181,-35.31178 -64.52858,-44.19919 -2.51463,-1.19022 -4.29998,-2.4182 -4.08714,-2.48916 z m 134.2109,28.28472 c 0.3705,0.17237 6.33044,9.07073 8.37018,12.68266 1.12607,1.99403 4.30277,8.5109 7.06029,13.93365 5.87046,11.54444 4.58503,10.64121 11.63527,8.17426 6.83212,-2.3906 22.0243,-6.19432 27.55486,-6.90151 3.08485,-0.39447 -3.19049,1.2464 -9.91564,3.39185 -9.90663,3.16041 -21.40549,8.4325 -21.87489,9.65574 -0.11191,0.29164 0.89162,3.8412 2.22923,7.88873 4.66922,14.12857 11.34707,38.19678 10.88622,39.41677 -0.093,0.24619 -0.2252,0.19955 -0.35723,-0.12676 -0.11541,-0.28527 -3.24377,-10.57029 -4.55578,-14.46887 -3.72275,-11.06206 -11.18395,-29.48677 -12.32285,-30.43199 -0.9068,-0.75257 -18.84423,10.40907 -26.30389,15.8082 -4.78568,3.46375 -4.97738,3.48089 -1.55317,0.13957 4.47513,-4.36679 18.0492,-15.04146 25.26674,-19.7801 l 0.83996,-0.55186 -1.32524,-3.59801 c -2.9196,-7.92789 -7.53976,-19.01831 -9.62884,-23.7251 -1.21493,-2.73729 -6.02442,-11.36578 -6.02442,-11.49571 0,-0.0131 0.007,-0.0171 0.0192,-0.0116 z m -92.28832,0.34955 c 0.20615,0.0393 -1.57194,3.72631 -4.35602,10.19223 -2.56504,5.95719 -11.10292,25.80647 -11.55333,27.60097 -0.17259,0.68766 0.14689,1.02606 2.32783,2.46867 6.64503,4.39548 23.22649,17.30883 26.71745,21.01187 1.6705,1.77195 -1.27743,-0.35311 -5.83492,-3.62875 -7.62311,-5.47905 -24.36128,-15.52935 -25.26416,-14.78001 -1.1282,0.93632 -8.57142,19.2981 -12.29726,30.33724 -2.36921,7.01965 -4.49264,14.63159 -4.51352,13.56488 -0.0382,-1.95122 6.64516,-26.76345 10.28314,-37.78166 1.43225,-4.33779 2.51336,-8.12066 2.40337,-8.40731 -0.43447,-1.1322 -12.73177,-6.40441 -21.64184,-9.278 -6.50942,-2.09936 -13.90922,-3.62754 -13.72365,-3.81312 0.28477,-0.28478 12.8412,1.91709 18.3921,3.27022 5.99264,1.46083 11.50522,3.10779 15.96826,4.7696 2.61527,0.97382 2.86647,1.00922 3.33423,0.48016 0.27827,-0.31473 2.23503,-4.03415 4.34835,-8.26645 4.4206,-8.85307 13.19784,-24.66734 14.93877,-27.17458 0.27093,-0.39017 0.42363,-0.57502 0.4712,-0.56596 z m 73.55178,67.07408 c 0.22031,0.002 -0.14363,0.42932 -0.80923,0.95008 -6.47889,5.06902 -23.80449,20.54811 -23.80449,21.4216 0,0.29497 1.06357,1.79979 2.36368,3.3445 5.55888,6.60473 15.54472,17.5973 18.10913,22.28973 1.41267,2.58496 0.87361,2.054 -2.80415,-2.76573 -5.28997,-6.93255 -18.99553,-20.34605 -20.13605,-20.34605 -1.06594,0 -14.17473,15.90716 -19.766,23.17067 -2.89683,3.76323 -3.31833,4.23578 -3.01927,3.38419 0.83833,-2.38717 11.69278,-18.07811 17.34856,-24.87749 1.6845,-2.02513 3.06279,-3.9188 3.06279,-4.20878 0,-0.67427 -11.37958,-10.6499 -17.3447,-15.60205 -2.53353,-2.1033 -8.3906,-5.78498 -8.22421,-5.78498 0.91592,0 18.19719,11.53251 24.01319,16.26146 1.90174,1.54629 3.69177,2.8106 3.97702,2.80928 0.28528,-0.002 2.54061,-1.64358 5.01288,-3.64924 4.50292,-3.65305 21.26824,-16.4044 22.02085,-16.39719 z"
       id="path182"
       inkscape:connector-curvature="0"
       sodipodi:nodetypes="ccsscccssccccsccssscccsccsccsscsccsccsscscssccsccsscsccsccccssssssscssccccccscccsscsscccsscccscccccsccccccccsccccsscsscccscscccc" />
    <path
       sodipodi:nodetypes="ccsscccssccccsccssscccsccsccsscsccsccsscscssccsccsscsccsccccssssssscssccccccscccsscsscccsscccscccccsccccccccsccccsscsscccscscccc"
       inkscape:connector-curvature="0"
       id="path6394"
       d="m 256.73862,99.999999 c -10.14388,10.585251 -20.49557,22.499091 -29.85068,33.849471 -22.96208,28.63628 -40.35658,58.00264 -52.97525,89.43295 -11.79713,29.38408 -18.65925,54.61245 -24.95559,91.75182 -2.74221,16.17507 -5.56827,39.48864 -4.84131,39.93791 0.21423,0.13239 2.12948,0.33555 4.25615,0.45198 9.27956,0.50802 22.42305,2.7722 31.47683,5.42263 5.96945,1.74753 10.07169,3.25434 15.8927,5.83621 2.62684,1.16511 4.82929,2.11782 4.89508,2.11782 0.0658,0 2.50576,1.34158 5.42263,2.98085 14.2707,8.02014 25.11887,16.44195 41.95843,32.57672 4.37401,4.19093 8.15559,7.62952 8.40346,7.64161 0.24788,0.0121 4.37103,-3.69458 9.16277,-8.2383 13.8967,-13.17748 20.85698,-18.95886 30.65862,-25.46264 21.4722,-14.24763 41.10281,-20.72399 70.28796,-23.18732 l 2.33295,-0.1959 v -1.36366 c 0,-4.2409 -2.59874,-24.98786 -4.69534,-37.48077 -6.28803,-37.46812 -13.37935,-63.60678 -25.32692,-93.35875 -10.7117,-26.67429 -26.08656,-53.70292 -44.45146,-78.1434 -12.55011,-14.85611 -24.60702,-30.33057 -37.65107,-44.569231 z m -53.68077,68.885891 c 0,-0.35041 12.31253,6.28152 16.9593,8.94381 8.10431,4.64324 24.17605,14.35025 32.0351,20.9312 2.21901,1.85815 4.21547,3.37905 4.43669,3.37905 0.22124,0 2.28759,-1.58053 4.59291,-3.51221 8.67665,-7.27043 22.99499,-18.33778 32.11831,-23.30256 3.18237,-1.73179 14.75825,-6.39714 14.75825,-6.13583 0,0.0893 -9.90421,5.15593 -12.42402,6.84262 -5.44591,3.64533 -17.67774,13.01653 -23.05032,17.41386 -4.81342,3.93966 -12.53797,11.36595 -12.53797,12.05397 0,0.2808 0.6425,1.23414 1.42768,2.11911 12.60951,14.2119 26.66376,32.98115 31.94162,43.23502 2.68371,5.21396 5.62885,9.2652 5.32659,9.2652 -0.10289,0 -1.3142,-1.59496 -2.69146,-3.54423 -3.01064,-4.26112 -13.71991,-20.62591 -17.30246,-24.86213 -6.97052,-8.24232 -21.24906,-23.00293 -22.25133,-23.00293 -0.53257,0 -12.70364,12.37194 -17.68787,17.9798 -5.4029,6.07893 -17.66763,23.82379 -21.37166,29.07858 -1.50807,2.13947 -2.82064,3.88996 -2.9181,3.88996 -0.0975,0 0.40557,-1.04927 1.11782,-2.33295 6.08857,-10.97317 21.059,-32.79241 36.06588,-49.70632 0.78519,-0.88497 1.42769,-1.84087 1.42769,-2.12423 0,-0.84218 -8.7122,-8.98005 -14.85684,-13.8773 -6.5395,-5.21199 -18.01828,-11.80825 -24.01832,-15.821 -2.32963,-1.55802 -11.09749,-6.82395 -11.09749,-6.91049 z m -35.00954,71.35967 c 1.09737,-0.36578 26.4833,11.86362 35.36422,16.87864 16.8675,9.52503 36.93943,23.39551 49.81259,34.42438 1.64708,1.41111 3.11575,2.56598 3.26382,2.56598 0.14809,0 1.61674,-1.15487 3.26381,-2.56598 12.90713,-11.05796 32.89998,-24.87451 49.80747,-34.42181 9.06245,-5.11738 31.10942,-15.38273 32.99926,-15.37029 0.33184,0.002 -8.2699,4.29991 -11.4368,5.98601 -17.95172,9.55769 -36.59485,22.88743 -54.81011,39.18885 -6.06953,5.43182 -13.61554,12.79373 -13.60714,13.27551 0.003,0.21299 2.02015,2.73984 4.48151,5.61468 8.27736,9.66792 17.03743,20.87547 24.63036,31.51397 8.45841,11.85111 20.65423,29.65674 20.16549,30.14389 -0.0615,0.0614 -3.38684,-3.58602 -4.99367,-5.70943 -6.95899,-9.19626 -15.23741,-19.14823 -24.34995,-29.27449 -6.653,-7.39311 -25.3079,-25.93256 -26.0939,-25.93256 -0.82664,0 -13.685,12.51026 -21.7161,21.12839 -10.35081,11.10739 -21.82232,24.00944 -29.41533,33.98775 -5.60365,7.364 -5.82844,7.102 -0.80155,-0.93729 10.99031,-17.5763 27.69158,-39.23864 41.97635,-55.86518 2.02196,-2.35342 3.67881,-4.45323 3.68253,-4.66717 0.008,-0.48437 -7.54374,-7.85265 -13.60714,-13.2755 -18.70159,-16.72586 -45.75181,-35.31178 -64.52858,-44.19919 -2.51463,-1.19022 -4.29998,-2.4182 -4.08714,-2.48916 z m 134.2109,28.28472 c 0.3705,0.17237 6.33044,9.07073 8.37018,12.68266 1.12607,1.99403 4.30277,8.5109 7.06029,13.93365 5.87046,11.54444 4.58503,10.64121 11.63527,8.17426 6.83212,-2.3906 22.0243,-6.19432 27.55486,-6.90151 3.08485,-0.39447 -3.19049,1.2464 -9.91564,3.39185 -9.90663,3.16041 -21.40549,8.4325 -21.87489,9.65574 -0.11191,0.29164 0.89162,3.8412 2.22923,7.88873 4.66922,14.12857 11.34707,38.19678 10.88622,39.41677 -0.093,0.24619 -0.2252,0.19955 -0.35723,-0.12676 -0.11541,-0.28527 -3.24377,-10.57029 -4.55578,-14.46887 -3.72275,-11.06206 -11.18395,-29.48677 -12.32285,-30.43199 -0.9068,-0.75257 -18.84423,10.40907 -26.30389,15.8082 -4.78568,3.46375 -4.97738,3.48089 -1.55317,0.13957 4.47513,-4.36679 18.0492,-15.04146 25.26674,-19.7801 l 0.83996,-0.55186 -1.32524,-3.59801 c -2.9196,-7.92789 -7.53976,-19.01831 -9.62884,-23.7251 -1.21493,-2.73729 -6.02442,-11.36578 -6.02442,-11.49571 0,-0.0131 0.007,-0.0171 0.0192,-0.0116 z m -92.28832,0.34955 c 0.20615,0.0393 -1.57194,3.72631 -4.35602,10.19223 -2.56504,5.95719 -11.10292,25.80647 -11.55333,27.60097 -0.17259,0.68766 0.14689,1.02606 2.32783,2.46867 6.64503,4.39548 23.22649,17.30883 26.71745,21.01187 1.6705,1.77195 -1.27743,-0.35311 -5.83492,-3.62875 -7.62311,-5.47905 -24.36128,-15.52935 -25.26416,-14.78001 -1.1282,0.93632 -8.57142,19.2981 -12.29726,30.33724 -2.36921,7.01965 -4.49264,14.63159 -4.51352,13.56488 -0.0382,-1.95122 6.64516,-26.76345 10.28314,-37.78166 1.43225,-4.33779 2.51336,-8.12066 2.40337,-8.40731 -0.43447,-1.1322 -12.73177,-6.40441 -21.64184,-9.278 -6.50942,-2.09936 -13.90922,-3.62754 -13.72365,-3.81312 0.28477,-0.28478 12.8412,1.91709 18.3921,3.27022 5.99264,1.46083 11.50522,3.10779 15.96826,4.7696 2.61527,0.97382 2.86647,1.00922 3.33423,0.48016 0.27827,-0.31473 2.23503,-4.03415 4.34835,-8.26645 4.4206,-8.85307 13.19784,-24.66734 14.93877,-27.17458 0.27093,-0.39017 0.42363,-0.57502 0.4712,-0.56596 z m 73.55178,67.07408 c 0.22031,0.002 -0.14363,0.42932 -0.80923,0.95008 -6.47889,5.06902 -23.80449,20.54811 -23.80449,21.4216 0,0.29497 1.06357,1.79979 2.36368,3.3445 5.55888,6.60473 15.54472,17.5973 18.10913,22.28973 1.41267,2.58496 0.87361,2.054 -2.80415,-2.76573 -5.28997,-6.93255 -18.99553,-20.34605 -20.13605,-20.34605 -1.06594,0 -14.17473,15.90716 -19.766,23.17067 -2.89683,3.76323 -3.31833,4.23578 -3.01927,3.38419 0.83833,-2.38717 11.69278,-18.07811 17.34856,-24.87749 1.6845,-2.02513 3.06279,-3.9188 3.06279,-4.20878 0,-0.67427 -11.37958,-10.6499 -17.3447,-15.60205 -2.53353,-2.1033 -8.3906,-5.78498 -8.22421,-5.78498 0.91592,0 18.19719,11.53251 24.01319,16.26146 1.90174,1.54629 3.69177,2.8106 3.97702,2.80928 0.28528,-0.002 2.54061,-1.64358 5.01288,-3.64924 4.50292,-3.65305 21.26824,-16.4044 22.02085,-16.39719 z"
       style="fill:#ffffff;fill-opacity:1;stroke:none;stroke-width:0.54624873px;stroke-linecap:butt;stroke-linejoin:miter;stroke-opacity:1" />
  </g>
</svg>
