<?xml version="1.0" encoding="UTF-8" standalone="no"?>
<svg
   xmlns:dc="http://purl.org/dc/elements/1.1/"
   xmlns:cc="http://creativecommons.org/ns#"
   xmlns:rdf="http://www.w3.org/1999/02/22-rdf-syntax-ns#"
   xmlns:svg="http://www.w3.org/2000/svg"
   xmlns="http://www.w3.org/2000/svg"
   xmlns:sodipodi="http://sodipodi.sourceforge.net/DTD/sodipodi-0.dtd"
   xmlns:inkscape="http://www.inkscape.org/namespaces/inkscape"
   viewBox="0 0 511.99999 511.99999"
   height="512"
   width="512"
   version="1.1"
   id="svg2"
   inkscape:version="0.92.3 (2405546, 2018-03-11)"
   sodipodi:docname="system-config-authentication.svg">
  <sodipodi:namedview
     pagecolor="#ffffff"
     bordercolor="#666666"
     borderopacity="1"
     objecttolerance="10"
     gridtolerance="10"
     guidetolerance="10"
     inkscape:pageopacity="0"
     inkscape:pageshadow="2"
     inkscape:window-width="966"
     inkscape:window-height="608"
     id="namedview18"
     showgrid="false"
     inkscape:zoom="0.40625"
     inkscape:cx="-16.78042"
     inkscape:cy="186.17705"
     inkscape:window-x="2"
     inkscape:window-y="57"
     inkscape:window-maximized="0"
     inkscape:current-layer="svg2" />
  <metadata
     id="metadata8">
    <rdf:RDF>
      <cc:Work
         rdf:about="">
        <dc:format>image/svg+xml</dc:format>
        <dc:type
           rdf:resource="http://purl.org/dc/dcmitype/StillImage" />
        <dc:title />
      </cc:Work>
    </rdf:RDF>
  </metadata>
  <defs
     id="defs6">
    <filter
       height="1.096"
       y="-0.048"
       width="1.096"
       x="-0.048"
       id="filter4329"
       style="color-interpolation-filters:sRGB">
      <feGaussianBlur
         id="feGaussianBlur4331"
         stdDeviation="2.1324205" />
    </filter>
    <filter
       height="1.0327445"
       y="-0.016372267"
       width="1.0399742"
       x="-0.019987123"
       id="filter4376"
       style="color-interpolation-filters:sRGB">
      <feGaussianBlur
         id="feGaussianBlur4378"
         stdDeviation="1.1736058" />
    </filter>
    <filter
       height="1.0570984"
       y="-0.0285492"
       width="1.0632123"
       x="-0.031606145"
       id="filter4436"
       style="color-interpolation-filters:sRGB">
      <feGaussianBlur
         id="feGaussianBlur4438"
         stdDeviation="0.63519096" />
    </filter>
  </defs>
  <g
     id="g874">
    <path
       style="fill:#f9c440;fill-opacity:1;stroke-width:11.10955811"
       inkscape:connector-curvature="0"
       d="m 432.91327,56.47398 c 102.19291,88.57459 105.82678,249.69971 8.1168,359.89879 C 343.3201,526.57182 181.27964,544.10062 79.08673,455.52603 -23.106186,366.95144 -26.740042,205.82632 70.96993,95.62724 168.6799,-14.57184 330.72036,-32.10061 432.91327,56.47398 Z"
       id="path27" />
    <path
       style="opacity:1;fill:#000000;fill-opacity:0.49019608;stroke-width:11.10955811"
       inkscape:connector-curvature="0"
       d="M 511.63551,224.90353 C 510.08412,286.21517 486.47428,349.05813 440.66913,400.718 342.95915,510.91712 180.91869,528.44582 78.72578,439.8713 30.827124,398.35565 4.4968212,340.92285 0.19382726,280.22882 0.79907926,346.58549 27.117411,410.48219 79.07868,455.51907 c 102.19291,88.57455 264.24107,71.03715 361.94334,-39.15329 49.70495,-56.05811 73.00502,-125.29097 70.61349,-191.46225 z"
       id="path51" />
    <path
       inkscape:connector-curvature="0"
       style="fill:#000000;fill-opacity:0.49019608;stroke:none;stroke-width:0.79976732"
       d="m 425.5782,120.0002 c -0.33278,-0.001 -0.53124,0.0195 -0.53124,0.0195 l -18.64454,0.004 0.0762,12.48633 c 4.44347,2.81516 7.14259,7.72022 7.15039,12.99804 -5e-4,8.50156 -6.86044,15.39218 -15.32227,15.39258 -8.46274,8.9e-4 -15.32372,-6.89011 -15.32422,-15.39258 10e-4,-4.6641 2.10736,-9.07709 5.72656,-11.99804 v -13.48438 l -60.52539,0.0137 0.0781,13.125 c 4.44348,2.81516 7.14064,7.72023 7.14844,12.99805 7.7e-4,8.50246 -6.85759,15.39608 -15.32032,15.39648 -8.46274,-3.9e-4 -15.32303,-6.89402 -15.32226,-15.39648 0.002,-4.6629 2.10691,-9.07324 5.72461,-11.99414 v -14.125 l -60.77735,0.0137 0.082,13.28711 c 4.44417,2.8156 7.14142,7.7233 7.14843,13.00195 -5e-4,8.50156 -6.86042,15.3922 -15.32226,15.39258 -8.46273,8.9e-4 -15.32372,-6.89012 -15.32422,-15.39258 7.4e-4,-4.66491 2.10674,-9.07854 5.72656,-12 v -14.28515 l -60.5293,0.0117 0.082,13.92968 c 4.44348,2.81516 7.1426,7.72023 7.1504,12.99805 -5e-4,8.50156 -6.86044,15.39414 -15.32227,15.39453 -8.46274,8.9e-4 -15.32372,-6.89207 -15.32422,-15.39453 0.001,-4.66411 2.10736,-9.07513 5.72656,-11.99609 v -14.92774 l -18.33593,0.002 c 0,0 -3.09391,-0.12852 -4.70704,1.31446 -1.6131,1.44293 -1.76562,4.88086 -1.76562,4.88086 l 0.0117,298.30664 c 0,0 -0.2194,3.98824 1.34375,5.78125 1.56313,1.79302 5.03906,1.63476 5.03906,1.63476 l 216.63477,-0.58593 80.26758,-80.76563 0.29296,-223.80859 c 0,0 0.38299,-3.22937 -2.0039,-5.17969 -1.79042,-1.46278 -4.00944,-1.65233 -5.00782,-1.65625 z m -161.81054,54.53516 c 3.40982,0 4.24836,0.0674 5.80469,0.46093 8.63452,2.18382 15.28718,8.20652 18.18554,16.46485 1.93009,5.49943 1.82088,11.93556 -0.29492,17.41406 -3.13296,8.11228 -10.08575,13.9961 -18.66016,15.79102 -1.61688,0.33847 -6.46456,0.58207 -7.76171,0.39062 -6.43932,-0.95041 -10.99049,-3.16415 -15.22266,-7.4043 -12.90432,-12.92863 -8.35213,-34.79699 8.64844,-41.54296 3.27178,-1.29826 4.90328,-1.57422 9.30078,-1.57422 z m 22.94922,56.10351 c 0.29989,-5e-5 1.53472,0.20245 2.74609,0.44922 1.75035,0.35657 6.16891,1.96669 21.51758,7.84375 10.62247,4.06738 19.79481,7.64049 20.38476,7.93945 2.19206,1.11079 2.90364,2.0403 16.01172,21 6.93934,10.03714 12.88789,18.56027 13.22071,18.93946 1.94988,2.22165 2.77284,6.16272 1.95117,9.34961 -1.46873,5.6965 -7.37352,9.24437 -12.96094,7.78906 -2.70345,-0.70417 -5.39547,-2.62604 -6.60156,-4.71484 -0.30716,-0.53193 -5.74073,-8.38496 -12.07617,-17.45118 l -11.51954,-16.48437 -10.04101,-3.9336 c -5.52278,-2.16297 -10.07642,-3.89562 -10.11914,-3.85156 -0.0818,0.0843 10.16761,49.8895 10.52734,51.15625 0.35628,1.25449 15.39181,44.33766 15.62891,44.7832 0.12322,0.23161 5.5757,7.50155 12.11719,16.1543 6.54148,8.65265 12.14405,16.22638 12.44921,16.83008 3.07727,6.08783 -0.1236,13.28839 -6.77539,15.24219 -1.53094,0.44975 -4.3995,0.42199 -5.88867,-0.0586 -1.42241,-0.459 -2.35152,-0.92929 -3.52734,-1.78125 -1.15779,-0.83895 -26.99876,-35.16407 -27.65625,-36.73632 -0.24123,-0.5769 -3.77158,-10.62995 -7.84375,-22.33985 -4.07214,-11.71003 -7.42381,-21.31955 -7.44922,-21.35547 -0.0254,-0.0366 -1.85342,0.29287 -4.0625,0.73047 l -4.01758,0.79492 -10.48242,13.70703 -10.48242,13.70704 -1.35742,21.43164 c -0.74708,11.788 -1.49643,22.18607 -1.66602,23.10547 -1.12616,6.10452 -7.07893,10.0173 -13.08398,8.60156 -1.98387,-0.46771 -3.54,-1.31553 -5.08789,-2.77149 -2.28028,-2.14473 -3.33985,-4.62865 -3.33985,-7.82812 0,-3.41019 3.52631,-48.24492 3.89258,-49.49219 0.18633,-0.63456 0.58305,-1.575 0.88086,-2.08984 0.29782,-0.51483 4.80245,-6.55697 10.00976,-13.42578 5.20732,-6.86881 9.53293,-12.59741 9.61329,-12.73047 0.10911,-0.18061 -4.9848,-24.59183 -5.37696,-25.76758 -0.0387,-0.11605 -0.52363,1.15714 -1.07812,2.83008 -1.20153,3.6248 -1.67254,4.60765 -2.82813,5.91797 -0.83504,0.94684 -28.93475,25.00337 -31.27343,26.77343 -3.12225,2.36322 -7.53112,2.72578 -11.2793,0.92774 -1.53675,-0.73729 -3.94725,-3.13062 -4.70508,-4.67188 -1.33449,-2.71423 -1.56047,-6.08748 -0.58008,-8.66992 1.06022,-2.79276 1.23048,-2.95668 16.24219,-15.54297 l 14.02734,-11.75976 6.48438,-18.98438 c 3.56565,-10.44092 6.61395,-19.57622 6.77539,-20.30078 0.54778,-2.45869 2.18122,-4.63066 4.29492,-5.70898 0.88563,-0.45181 33.21282,-7.55256 34.38477,-7.55274 z"
       id="path53" />
    <path
       id="path3773-3"
       d="m 405.57812,100 c -0.33278,-0.0013 -0.53124,0.0195 -0.53124,0.0195 l -18.64454,0.004 0.0762,12.48633 c 4.44347,2.81516 7.14259,7.72022 7.15039,12.99804 -5e-4,8.50156 -6.86044,15.39218 -15.32227,15.39258 -8.46274,8.9e-4 -15.32372,-6.89011 -15.32422,-15.39258 10e-4,-4.6641 2.10736,-9.07709 5.72656,-11.99804 v -13.48438 l -60.52539,0.0137 0.0781,13.125 c 4.44348,2.81516 7.14064,7.72023 7.14844,12.99805 7.7e-4,8.50246 -6.85759,15.39608 -15.32032,15.39648 -8.46274,-3.9e-4 -15.32303,-6.89402 -15.32226,-15.39648 0.002,-4.6629 2.10691,-9.07324 5.72461,-11.99414 v -14.125 l -60.77735,0.0137 0.082,13.28711 c 4.44417,2.8156 7.14142,7.7233 7.14843,13.00195 -5e-4,8.50156 -6.86042,15.3922 -15.32226,15.39258 -8.46273,8.9e-4 -15.32372,-6.89012 -15.32422,-15.39258 7.4e-4,-4.66491 2.10674,-9.07854 5.72656,-12 v -14.28515 l -60.5293,0.0117 0.082,13.92968 c 4.44348,2.81516 7.1426,7.72023 7.1504,12.99805 -5e-4,8.50156 -6.86044,15.39414 -15.32227,15.39453 -8.46274,8.9e-4 -15.32372,-6.89207 -15.32422,-15.39453 0.001,-4.66411 2.10736,-9.07513 5.72656,-11.99609 v -14.92774 l -18.33593,0.002 c 0,0 -3.09391,-0.128521 -4.70704,1.31446 -1.6131,1.44293 -1.76562,4.88086 -1.76562,4.88086 l 0.0117,298.30664 c 0,0 -0.2194,3.98824 1.34375,5.78125 1.56313,1.79302 5.03906,1.63476 5.03906,1.63476 l 216.63477,-0.58593 80.26758,-80.76563 0.29296,-223.80859 c 0,0 0.38299,-3.22937 -2.0039,-5.17969 -1.79042,-1.46278 -4.00944,-1.65233 -5.00782,-1.65625 z m -161.81054,54.53516 c 3.40982,0 4.24836,0.0674 5.80469,0.46093 8.63452,2.18382 15.28718,8.20652 18.18554,16.46485 1.93009,5.49943 1.82088,11.93556 -0.29492,17.41406 -3.13296,8.11228 -10.08575,13.9961 -18.66016,15.79102 -1.61688,0.33847 -6.46456,0.58207 -7.76171,0.39062 -6.43932,-0.95041 -10.99049,-3.16415 -15.22266,-7.4043 -12.90432,-12.92863 -8.35213,-34.79699 8.64844,-41.54296 3.27178,-1.29826 4.90328,-1.57422 9.30078,-1.57422 z m 22.94922,56.10351 c 0.29989,-5e-5 1.53472,0.20245 2.74609,0.44922 1.75035,0.35657 6.16891,1.96669 21.51758,7.84375 10.62247,4.06738 19.79481,7.64049 20.38476,7.93945 2.19206,1.11079 2.90364,2.0403 16.01172,21 6.93934,10.03714 12.88789,18.56027 13.22071,18.93946 1.94988,2.22165 2.77284,6.16272 1.95117,9.34961 -1.46873,5.6965 -7.37352,9.24437 -12.96094,7.78906 -2.70345,-0.70417 -5.39547,-2.62604 -6.60156,-4.71484 -0.30716,-0.53193 -5.74073,-8.38496 -12.07617,-17.45118 l -11.51954,-16.48437 -10.04101,-3.9336 c -5.52278,-2.16297 -10.07642,-3.89562 -10.11914,-3.85156 -0.0818,0.0843 10.16761,49.8895 10.52734,51.15625 0.35628,1.25449 15.39181,44.33766 15.62891,44.7832 0.12322,0.23161 5.5757,7.50155 12.11719,16.1543 6.54148,8.65265 12.14405,16.22638 12.44921,16.83008 3.07727,6.08783 -0.1236,13.28839 -6.77539,15.24219 -1.53094,0.44975 -4.3995,0.42199 -5.88867,-0.0586 -1.42241,-0.459 -2.35152,-0.92929 -3.52734,-1.78125 -1.15779,-0.83895 -26.99876,-35.16407 -27.65625,-36.73632 -0.24123,-0.5769 -3.77158,-10.62995 -7.84375,-22.33985 -4.07214,-11.71003 -7.42381,-21.31955 -7.44922,-21.35547 -0.0254,-0.0366 -1.85342,0.29287 -4.0625,0.73047 l -4.01758,0.79492 -10.48242,13.70703 -10.48242,13.70704 -1.35742,21.43164 c -0.74708,11.788 -1.49643,22.18607 -1.66602,23.10547 -1.12616,6.10452 -7.07893,10.0173 -13.08398,8.60156 -1.98387,-0.46771 -3.54,-1.31553 -5.08789,-2.77149 -2.28028,-2.14473 -3.33985,-4.62865 -3.33985,-7.82812 0,-3.41019 3.52631,-48.24492 3.89258,-49.49219 0.18633,-0.63456 0.58305,-1.575 0.88086,-2.08984 0.29782,-0.51483 4.80245,-6.55697 10.00976,-13.42578 5.20732,-6.86881 9.53293,-12.59741 9.61329,-12.73047 0.10911,-0.18061 -4.9848,-24.59183 -5.37696,-25.76758 -0.0387,-0.11605 -0.52363,1.15714 -1.07812,2.83008 -1.20153,3.6248 -1.67254,4.60765 -2.82813,5.91797 -0.83504,0.94684 -28.93475,25.00337 -31.27343,26.77343 -3.12225,2.36322 -7.53112,2.72578 -11.2793,0.92774 -1.53675,-0.73729 -3.94725,-3.13062 -4.70508,-4.67188 -1.33449,-2.71423 -1.56047,-6.08748 -0.58008,-8.66992 1.06022,-2.79276 1.23048,-2.95668 16.24219,-15.54297 l 14.02734,-11.75976 6.48438,-18.98438 c 3.56565,-10.44092 6.61395,-19.57622 6.77539,-20.30078 0.54778,-2.45869 2.18122,-4.63066 4.29492,-5.70898 0.88563,-0.45181 33.21282,-7.55256 34.38477,-7.55274 z"
       style="fill:#ffffff;stroke:none;stroke-width:0.79976732"
       inkscape:connector-curvature="0" />
  </g>
</svg>
