<?xml version="1.0" encoding="UTF-8" standalone="no"?>
<svg
   xmlns:dc="http://purl.org/dc/elements/1.1/"
   xmlns:cc="http://creativecommons.org/ns#"
   xmlns:rdf="http://www.w3.org/1999/02/22-rdf-syntax-ns#"
   xmlns:svg="http://www.w3.org/2000/svg"
   xmlns="http://www.w3.org/2000/svg"
   xmlns:xlink="http://www.w3.org/1999/xlink"
   xmlns:sodipodi="http://sodipodi.sourceforge.net/DTD/sodipodi-0.dtd"
   xmlns:inkscape="http://www.inkscape.org/namespaces/inkscape"
   viewBox="0 0 512 512"
   id="svg2"
   version="1.1"
   inkscape:version="0.92.3 (2405546, 2018-03-11)"
   width="512"
   height="512"
   sodipodi:docname="team-viewer.svg">
  <metadata
     id="metadata65">
    <rdf:RDF>
      <cc:Work
         rdf:about="">
        <dc:format>image/svg+xml</dc:format>
        <dc:type
           rdf:resource="http://purl.org/dc/dcmitype/StillImage" />
        <dc:title></dc:title>
      </cc:Work>
    </rdf:RDF>
  </metadata>
  <sodipodi:namedview
     pagecolor="#ffffff"
     bordercolor="#666666"
     borderopacity="1"
     objecttolerance="10"
     gridtolerance="10"
     guidetolerance="10"
     inkscape:pageopacity="0"
     inkscape:pageshadow="2"
     inkscape:window-width="1123"
     inkscape:window-height="648"
     id="namedview63"
     showgrid="false"
     inkscape:zoom="0.43457604"
     inkscape:cx="274.14588"
     inkscape:cy="129.41275"
     inkscape:window-x="15"
     inkscape:window-y="39"
     inkscape:window-maximized="0"
     inkscape:current-layer="svg2"
     units="px" />
  <defs
     id="defs4">
    <linearGradient
       id="linearGradient3764"
       x1="1"
       x2="47"
       gradientUnits="userSpaceOnUse"
       gradientTransform="rotate(-90,23.999998,24)">
      <stop
         stop-color="#4b89d5"
         stop-opacity="1"
         id="stop7" />
      <stop
         offset="1"
         stop-color="#5b92d9"
         stop-opacity="1"
         id="stop9" />
    </linearGradient>
    <clipPath
       id="clipPath-837340503">
      <g
         transform="translate(0,-1004.3622)"
         id="g12">
        <path
           d="m -24,13 c 0,1.105 -0.672,2 -1.5,2 -0.828,0 -1.5,-0.895 -1.5,-2 0,-1.105 0.672,-2 1.5,-2 0.828,0 1.5,0.895 1.5,2 z"
           transform="matrix(15.333333,0,0,11.5,414.99999,878.8622)"
           id="path14"
           inkscape:connector-curvature="0"
           style="fill:#1890d0" />
      </g>
    </clipPath>
    <clipPath
       id="clipPath-848847774">
      <g
         transform="translate(0,-1004.3622)"
         id="g17">
        <path
           d="m -24,13 c 0,1.105 -0.672,2 -1.5,2 -0.828,0 -1.5,-0.895 -1.5,-2 0,-1.105 0.672,-2 1.5,-2 0.828,0 1.5,0.895 1.5,2 z"
           transform="matrix(15.333333,0,0,11.5,414.99999,878.8622)"
           id="path19"
           inkscape:connector-curvature="0"
           style="fill:#1890d0" />
      </g>
    </clipPath>
    <linearGradient
       inkscape:collect="always"
       xlink:href="#linearGradient3764"
       id="linearGradient3042"
       gradientUnits="userSpaceOnUse"
       gradientTransform="rotate(-90,23.999998,24)"
       x1="1"
       x2="47" />
  </defs>
  <g
     id="g33"
     transform="translate(0,591)" />
  <g
     id="g851">
    <path
       style="fill:#3689e6;fill-opacity:1;stroke-width:11.10955811"
       inkscape:connector-curvature="0"
       d="M 432.91327,56.473975 C 535.10618,145.04855 538.74005,306.17367 441.03007,416.37275 343.3201,526.57182 181.27964,544.10063 79.086729,455.52601 -23.106186,366.95142 -26.740042,205.8263 70.969928,95.627235 168.6799,-14.571845 330.72036,-32.100615 432.91327,56.473975 Z"
       id="path27" />
    <path
       style="opacity:1;fill:#000000;fill-opacity:0.49019608;stroke-width:11.10955811"
       inkscape:connector-curvature="0"
       d="M 511.63551,224.90351 C 510.08412,286.21517 486.47428,349.05812 440.66913,400.71798 342.95915,510.91712 180.91869,528.44583 78.725776,439.87128 30.827124,398.35563 4.4968216,340.92283 0.19382778,280.2288 0.79907944,346.58547 27.117411,410.48217 79.078682,455.51906 181.27159,544.09362 343.31975,526.55623 441.02202,416.36576 490.72697,360.30765 514.02704,291.0748 511.63551,224.90351 Z"
       id="path51" />
    <path
       style="fill:#000000;fill-opacity:0.49019608;stroke-width:2.59890032"
       d="m 276,120 c -86.15981,0 -156,69.84022 -156,156 0,86.15981 69.84019,156 156,156 86.15978,0 156,-69.84019 156,-156 0,-86.15978 -69.84022,-156 -156,-156 z m -0.52789,56.37888 c 55.92911,0 101.17945,45.25382 101.17945,101.20991 0,55.92911 -45.25034,101.18451 -101.17945,101.18451 -55.95609,0 -101.21497,-45.2554 -101.21497,-101.18451 -3e-5,-55.95609 45.25888,-101.20991 101.21497,-101.20991 z m -26.98898,67.46989 -26.22758,16.86746 -27.78082,16.89795 27.78082,16.86746 26.22758,16.86748 V 291.1112 h 53.97794 v 20.23792 l 26.22758,-16.86748 27.75035,-16.86746 -27.75035,-16.89795 -26.22758,-16.86746 v 20.24299 h -53.97794 z"
       id="path40"
       inkscape:connector-curvature="0" />
    <path
       inkscape:connector-curvature="0"
       id="path31"
       d="m 256,100 c -86.15981,0 -156,69.84022 -156,156 0,86.15981 69.84019,156 156,156 86.15978,0 156,-69.84019 156,-156 0,-86.15978 -69.84022,-156 -156,-156 z m -0.52789,56.37888 c 55.92911,0 101.17945,45.25382 101.17945,101.20991 0,55.92911 -45.25034,101.18451 -101.17945,101.18451 -55.95609,0 -101.21497,-45.2554 -101.21497,-101.18451 -3e-5,-55.95609 45.25888,-101.20991 101.21497,-101.20991 z m -26.98898,67.46989 -26.22758,16.86746 -27.78082,16.89795 27.78082,16.86746 26.22758,16.86748 V 271.1112 h 53.97794 v 20.23792 l 26.22758,-16.86748 27.75035,-16.86746 -27.75035,-16.89795 -26.22758,-16.86746 v 20.24299 h -53.97794 z"
       style="fill:#ffffff;fill-opacity:1;stroke-width:2.59890032" />
  </g>
</svg>
