<?xml version="1.0" encoding="UTF-8" standalone="no"?>
<svg
   xmlns:dc="http://purl.org/dc/elements/1.1/"
   xmlns:cc="http://creativecommons.org/ns#"
   xmlns:rdf="http://www.w3.org/1999/02/22-rdf-syntax-ns#"
   xmlns:svg="http://www.w3.org/2000/svg"
   xmlns="http://www.w3.org/2000/svg"
   xmlns:sodipodi="http://sodipodi.sourceforge.net/DTD/sodipodi-0.dtd"
   xmlns:inkscape="http://www.inkscape.org/namespaces/inkscape"
   viewBox="0 0 512 512"
   id="svg2"
   version="1.1"
   inkscape:version="0.92.3 (2405546, 2018-03-11)"
   width="512"
   height="512"
   sodipodi:docname="timeshift.svg">
  <metadata
     id="metadata69">
    <rdf:RDF>
      <cc:Work
         rdf:about="">
        <dc:format>image/svg+xml</dc:format>
        <dc:type
           rdf:resource="http://purl.org/dc/dcmitype/StillImage" />
        <dc:title></dc:title>
      </cc:Work>
    </rdf:RDF>
  </metadata>
  <sodipodi:namedview
     pagecolor="#ffffff"
     bordercolor="#666666"
     borderopacity="1"
     objecttolerance="10"
     gridtolerance="10"
     guidetolerance="10"
     inkscape:pageopacity="0"
     inkscape:pageshadow="2"
     inkscape:window-width="1232"
     inkscape:window-height="613"
     id="namedview67"
     showgrid="false"
     inkscape:zoom="0.21728803"
     inkscape:cx="-213.46925"
     inkscape:cy="353.7969"
     inkscape:window-x="15"
     inkscape:window-y="39"
     inkscape:window-maximized="0"
     inkscape:current-layer="svg2"
     units="px" />
  <defs
     id="defs4">
    <linearGradient
       id="linearGradient3764"
       x1="1"
       x2="47"
       gradientUnits="userSpaceOnUse"
       gradientTransform="rotate(-90,23.999998,24)">
      <stop
         stop-color="#ed4141"
         stop-opacity="1"
         id="stop7" />
      <stop
         offset="1"
         stop-color="#ef5353"
         stop-opacity="1"
         id="stop9" />
    </linearGradient>
    <clipPath
       id="clipPath-364739069">
      <g
         transform="translate(0,-1004.3622)"
         id="g12">
        <path
           d="m -24,13 c 0,1.105 -0.672,2 -1.5,2 -0.828,0 -1.5,-0.895 -1.5,-2 0,-1.105 0.672,-2 1.5,-2 0.828,0 1.5,0.895 1.5,2 z"
           transform="matrix(15.8a715e,0,0,11.5,414.99999,878.8622)"
           id="path14"
           inkscape:connector-curvature="0"
           style="fill:#1890d0" />
      </g>
    </clipPath>
    <clipPath
       id="clipPath-369902791">
      <g
         transform="translate(0,-1004.3622)"
         id="g17">
        <path
           d="m -24,13 c 0,1.105 -0.672,2 -1.5,2 -0.828,0 -1.5,-0.895 -1.5,-2 0,-1.105 0.672,-2 1.5,-2 0.828,0 1.5,0.895 1.5,2 z"
           transform="matrix(15.8a715e,0,0,11.5,414.99999,878.8622)"
           id="path19"
           inkscape:connector-curvature="0"
           style="fill:#1890d0" />
      </g>
    </clipPath>
  </defs>
  <g
     id="g33"
     transform="translate(0,591)" />
  <g
     id="g891">
    <path
       id="path27"
       d="m 432.91327,56.47397 c 102.19291,88.57459 105.82678,249.6997 8.1168,359.89878 C 343.3201,526.57184 181.27964,544.10061 79.086729,455.52602 -23.106186,366.95143 -26.740042,205.82631 70.969928,95.62723 168.6799,-14.57185 330.72036,-32.10062 432.91327,56.47397 Z"
       inkscape:connector-curvature="0"
       style="fill:#c6262e;fill-opacity:1;stroke-width:11.10955811" />
    <path
       id="path51"
       d="M 511.63551,224.90351 C 510.08412,286.21516 486.47428,349.05812 440.66913,400.71799 342.95915,510.91711 180.91869,528.44584 78.725776,439.87129 30.827124,398.35563 4.4968216,340.92284 0.1938277,280.2288 0.79907936,346.58548 27.117411,410.48217 79.078682,455.51906 181.27159,544.09361 343.31975,526.55619 441.02202,416.36576 490.72697,360.30766 514.02704,291.0748 511.63551,224.90351 Z"
       inkscape:connector-curvature="0"
       style="opacity:1;fill:#000000;fill-opacity:0.49019608;stroke-width:11.10955811" />
    <g
       style="fill:#000000;fill-opacity:0.49019608"
       id="g74"
       clip-path="url(#clipPath-369902791)"
       transform="matrix(10.400693,0,0,10.400693,26.393763,26.414576)">
      <!-- color: #ef5353 -->
      <g
         style="fill:#000000;fill-opacity:0.49019608"
         id="g72">
        <path
           style="fill:#000000;fill-opacity:0.49019608;fill-rule:nonzero;stroke:none"
           inkscape:connector-curvature="0"
           id="path68"
           d="M 23.988,9 C 15.726,9 9,15.699 9,23.984 h 1.992 C 10.992,16.808 16.773,11 23.988,11 c 7.211,0 13.02,5.809 13.02,12.984 v 0.137 C 36.93,31.246 31.149,37 23.988,37 v 1.996 c 8.262,0 15.01,-6.723 15.01,-15.01 0,-8.289 -6.75,-14.977 -15.01,-14.977 m 0,0" />
        <path
           style="fill:#000000;fill-opacity:0.49019608;fill-rule:nonzero;stroke:none"
           inkscape:connector-curvature="0"
           id="path70"
           d="M 9.563,20 C 9.211,21.273 9,22.617 9,24 c 0,1.727 0.305,3.395 0.844,4.938 l 0.156,0.063 6,-9 m -6.438,0" />
      </g>
    </g>
    <g
       transform="matrix(10.400693,0,0,10.400693,6.393763,6.4145758)"
       clip-path="url(#clipPath-369902791)"
       id="g53"
       style="fill:#ffffff">
      <!-- color: #ef5353 -->
      <g
         id="g55"
         style="fill:#ffffff">
        <path
           d="M 23.988,9 C 15.726,9 9,15.699 9,23.984 h 1.992 C 10.992,16.808 16.773,11 23.988,11 c 7.211,0 13.02,5.809 13.02,12.984 v 0.137 C 36.93,31.246 31.149,37 23.988,37 v 1.996 c 8.262,0 15.01,-6.723 15.01,-15.01 0,-8.289 -6.75,-14.977 -15.01,-14.977 m 0,0"
           id="path59"
           inkscape:connector-curvature="0"
           style="fill:#ffffff;fill-opacity:1;fill-rule:nonzero;stroke:none" />
        <path
           d="M 9.563,20 C 9.211,21.273 9,22.617 9,24 c 0,1.727 0.305,3.395 0.844,4.938 l 0.156,0.063 6,-9 m -6.438,0"
           id="path61"
           inkscape:connector-curvature="0"
           style="fill:#ffffff;fill-opacity:1;fill-rule:nonzero;stroke:none" />
      </g>
    </g>
  </g>
</svg>
