<?xml version="1.0" encoding="UTF-8" standalone="no"?>
<!-- Created with Inkscape (http://www.inkscape.org/) -->

<svg
   xmlns:dc="http://purl.org/dc/elements/1.1/"
   xmlns:cc="http://creativecommons.org/ns#"
   xmlns:rdf="http://www.w3.org/1999/02/22-rdf-syntax-ns#"
   xmlns:svg="http://www.w3.org/2000/svg"
   xmlns="http://www.w3.org/2000/svg"
   xmlns:sodipodi="http://sodipodi.sourceforge.net/DTD/sodipodi-0.dtd"
   xmlns:inkscape="http://www.inkscape.org/namespaces/inkscape"
   width="512"
   height="512"
   id="svg2"
   version="1.1"
   inkscape:version="0.92.3 (2405546, 2018-03-11)"
   viewBox="0 0 512 512"
   sodipodi:docname="tint2.svg">
  <defs
     id="defs4">
    <linearGradient
       id="linearGradient896">
      <stop
         style="stop-color:#394050;stop-opacity:1"
         offset="0"
         id="stop898" />
      <stop
         style="stop-color:#5d6a7b;stop-opacity:1"
         offset="1"
         id="stop900" />
    </linearGradient>
  </defs>
  <sodipodi:namedview
     id="base"
     pagecolor="#ffffff"
     bordercolor="#666666"
     borderopacity="1.0"
     inkscape:pageopacity="0"
     inkscape:pageshadow="2"
     inkscape:zoom="0.39333842"
     inkscape:cx="329.86654"
     inkscape:cy="379.40435"
     inkscape:document-units="px"
     inkscape:current-layer="layer1"
     showgrid="false"
     inkscape:showpageshadow="false"
     borderlayer="true"
     units="px"
     fit-margin-top="0"
     fit-margin-left="0"
     fit-margin-right="0"
     fit-margin-bottom="0"
     showguides="false"
     inkscape:window-width="1366"
     inkscape:window-height="711"
     inkscape:window-x="0"
     inkscape:window-y="28"
     inkscape:window-maximized="1">
    <sodipodi:guide
       position="-6.6748425e-06,47.999999"
       orientation="47.999977,0"
       id="guide4120"
       inkscape:locked="false" />
    <sodipodi:guide
       position="-6.6748425e-06,2.2810037e-05"
       orientation="0,48.000004"
       id="guide4122"
       inkscape:locked="false" />
    <sodipodi:guide
       position="47.999997,2.2810037e-05"
       orientation="-47.999977,0"
       id="guide4124"
       inkscape:locked="false" />
    <sodipodi:guide
       position="47.999997,47.999999"
       orientation="0,-48.000004"
       id="guide4126"
       inkscape:locked="false" />
    <sodipodi:guide
       position="3.9999733,44.000154"
       orientation="39.999962,0"
       id="guide4138"
       inkscape:locked="false" />
    <sodipodi:guide
       position="70.014646,-11.415433"
       orientation="0,40.000003"
       id="guide4140"
       inkscape:locked="false" />
    <sodipodi:guide
       position="43.999976,4.0001921"
       orientation="-39.999962,0"
       id="guide4142"
       inkscape:locked="false" />
    <sodipodi:guide
       position="43.999976,44.000154"
       orientation="0,-40.000003"
       id="guide4144"
       inkscape:locked="false" />
    <sodipodi:guide
       position="6.9999922,47.999999"
       orientation="39.999962,0"
       id="guide4148"
       inkscape:locked="false" />
    <sodipodi:guide
       position="6.9999922,8.0000369"
       orientation="0,34.000006"
       id="guide4150"
       inkscape:locked="false" />
    <sodipodi:guide
       position="40.999998,8.0000369"
       orientation="-39.999962,0"
       id="guide4152"
       inkscape:locked="false" />
    <sodipodi:guide
       position="40.999998,47.999999"
       orientation="0,-34.000006"
       id="guide4154"
       inkscape:locked="false" />
    <sodipodi:guide
       position="14.999993,32.999986"
       orientation="17.999951,0"
       id="guide4158"
       inkscape:locked="false" />
    <sodipodi:guide
       position="14.999993,15.000036"
       orientation="0,17.999998"
       id="guide4160"
       inkscape:locked="false" />
    <sodipodi:guide
       position="32.999991,15.000036"
       orientation="-17.999951,0"
       id="guide4162"
       inkscape:locked="false" />
    <sodipodi:guide
       position="32.999991,32.999986"
       orientation="0,-17.999998"
       id="guide4164"
       inkscape:locked="false" />
    <sodipodi:guide
       position="1.9999969,44.000046"
       orientation="39.999962,0"
       id="guide3279"
       inkscape:locked="false" />
    <sodipodi:guide
       position="1.9999969,4.0000839"
       orientation="0,44.000003"
       id="guide3281"
       inkscape:locked="false" />
    <sodipodi:guide
       position="46,4.0000839"
       orientation="-39.999962,0"
       id="guide3283"
       inkscape:locked="false" />
    <sodipodi:guide
       position="46,44.000046"
       orientation="0,-44.000003"
       id="guide3285"
       inkscape:locked="false" />
  </sodipodi:namedview>
  <metadata
     id="metadata7">
    <rdf:RDF>
      <cc:Work
         rdf:about="">
        <dc:format>image/svg+xml</dc:format>
        <dc:type
           rdf:resource="http://purl.org/dc/dcmitype/StillImage" />
        <dc:title></dc:title>
      </cc:Work>
    </rdf:RDF>
  </metadata>
  <g
     inkscape:label="Capa 1"
     inkscape:groupmode="layer"
     id="layer1"
     transform="translate(38.119153,-266.89382)">
    <g
       id="g978">
      <path
         id="path1165"
         d="m 394.79413,323.36889 c 102.1929,88.5735 105.82677,249.69956 8.11678,359.89803 C 305.20092,793.46541 143.16047,810.99437 40.967589,722.42087 -61.22536,633.84505 -64.859187,472.72131 32.85079,362.52052 130.56073,252.32206 292.60118,234.79308 394.79413,323.36889 Z"
         inkscape:connector-curvature="0"
         style="fill:#3689e6;fill-opacity:1;stroke-width:11.10954762" />
      <path
         inkscape:connector-curvature="0"
         id="rect852"
         d="M -29.677748,609.1892 C -18.065436,652.22658 5.5130564,691.69197 40.966638,722.42139 143.1593,810.9947 305.19947,793.46544 402.90926,683.26718 423.18407,660.40099 439.08058,635.3377 450.6533,609.1892 Z"
         style="opacity:1;fill:#0d52bf;fill-opacity:1;stroke:none;stroke-width:0.79707313;stroke-linecap:square;stroke-linejoin:bevel;stroke-miterlimit:4;stroke-dasharray:none;stroke-dashoffset:0;stroke-opacity:1" />
      <path
         id="path1167"
         d="M 473.51637,491.79793 C 471.96501,553.1098 448.35513,615.95302 402.54998,667.61138 304.83996,777.80984 142.79952,795.33881 40.606608,706.76534 -7.2920286,665.24921 -33.622334,607.81689 -37.925327,547.12175 c 0.605254,66.35739 26.923579,130.25485 78.884866,175.28981 102.192881,88.57581 264.241031,71.03755 361.943341,-39.15163 49.70494,-56.05922 73.00501,-125.29079 70.61349,-191.462 z"
         inkscape:connector-curvature="0"
         style="opacity:1;fill:#000000;fill-opacity:0.49019608;stroke-width:11.10954762" />
      <rect
         style="opacity:1;fill:#000000;fill-opacity:0.49019608;stroke:none;stroke-width:0.72562855;stroke-linecap:square;stroke-linejoin:bevel;stroke-miterlimit:4;stroke-dasharray:none;stroke-dashoffset:0;stroke-opacity:1"
         id="rect871"
         width="65.331726"
         height="68.936012"
         x="81.880844"
         y="637.87872"
         ry="12.092942" />
      <rect
         ry="12.092942"
         y="638.11902"
         x="162.82704"
         height="68.936012"
         width="65.331726"
         id="rect873"
         style="opacity:1;fill:#000000;fill-opacity:0.49019608;stroke:none;stroke-width:0.72562855;stroke-linecap:square;stroke-linejoin:bevel;stroke-miterlimit:4;stroke-dasharray:none;stroke-dashoffset:0;stroke-opacity:1" />
      <rect
         style="opacity:1;fill:#000000;fill-opacity:0.49019608;stroke:none;stroke-width:0.72562855;stroke-linecap:square;stroke-linejoin:bevel;stroke-miterlimit:4;stroke-dasharray:none;stroke-dashoffset:0;stroke-opacity:1"
         id="rect875"
         width="65.331726"
         height="68.936012"
         x="246.04729"
         y="638.54022"
         ry="12.092942" />
      <path
         inkscape:connector-curvature="0"
         id="rect877"
         d="m 340.64257,638.43522 c -6.69949,0 -12.09375,5.39426 -12.09375,12.09375 v 44.75 c 0,6.69949 5.39426,12.09375 12.09375,12.09375 h 38.26953 c 5.12024,-4.57725 10.11237,-9.3739 14.96875,-14.37891 v -42.46484 c 0,-6.69949 -5.39426,-12.09375 -12.09375,-12.09375 z"
         style="opacity:1;fill:#000000;fill-opacity:0.49019608;stroke:none;stroke-width:0.72562855;stroke-linecap:square;stroke-linejoin:bevel;stroke-miterlimit:4;stroke-dasharray:none;stroke-dashoffset:0;stroke-opacity:1" />
      <g
         transform="matrix(1,0,0,0.57585438,-38.119154,719.97518)"
         id="g869">
        <rect
           style="opacity:1;fill:#ffffff;fill-opacity:1;stroke:none;stroke-width:0.95622045;stroke-linecap:square;stroke-linejoin:bevel;stroke-miterlimit:4;stroke-dasharray:none;stroke-dashoffset:0;stroke-opacity:1"
           id="rect857"
           width="65.331726"
           height="119.71084"
           x="100"
           y="-162.56462"
           ry="21" />
        <rect
           ry="21"
           y="-162.14732"
           x="180.9462"
           height="119.71084"
           width="65.331726"
           id="rect859"
           style="opacity:1;fill:#ffffff;fill-opacity:1;stroke:none;stroke-width:0.95622045;stroke-linecap:square;stroke-linejoin:bevel;stroke-miterlimit:4;stroke-dasharray:none;stroke-dashoffset:0;stroke-opacity:1" />
        <rect
           style="opacity:1;fill:#ffffff;fill-opacity:1;stroke:none;stroke-width:0.95622045;stroke-linecap:square;stroke-linejoin:bevel;stroke-miterlimit:4;stroke-dasharray:none;stroke-dashoffset:0;stroke-opacity:1"
           id="rect861"
           width="65.331726"
           height="119.71084"
           x="264.16644"
           y="-161.41583"
           ry="21" />
        <rect
           ry="21"
           y="-161.59734"
           x="346.66827"
           height="119.71084"
           width="65.331726"
           id="rect863"
           style="opacity:1;fill:#ffffff;fill-opacity:1;stroke:none;stroke-width:0.95622045;stroke-linecap:square;stroke-linejoin:bevel;stroke-miterlimit:4;stroke-dasharray:none;stroke-dashoffset:0;stroke-opacity:1" />
      </g>
      <g
         aria-label="tint2"
         transform="matrix(3.4970227,0,0,3.4970227,-169.72721,-101.74296)"
         style="font-style:normal;font-weight:normal;font-size:40px;line-height:1.25;font-family:sans-serif;letter-spacing:0px;word-spacing:0px;fill:#000000;fill-opacity:0.49019608;stroke:none"
         id="g147">
        <path
           d="m 73.667969,183.62109 q -0.898438,-0.19531 -1.289063,-0.74218 -0.429687,-0.58594 -0.429687,-1.21094 0,-0.625 0.429687,-1.17188 0.390625,-0.54687 1.289063,-0.78125 1.09375,-0.0391 2.109375,-0.27343 1.054687,-0.27344 2.109375,-0.42969 0.3125,-0.0391 0.585937,-0.0391 0.273438,-0.0391 0.585938,-0.11719 v -0.58594 q 0,-1.91406 0.195312,-3.75 0.234375,-1.83594 0.234375,-3.78906 0,-1.13281 0.585938,-1.67969 0.585937,-0.58594 1.328125,-0.58594 0.664062,0 1.25,0.46875 0.585937,0.46875 0.742187,1.48438 0,1.71875 -0.117187,3.4375 -0.07813,1.67969 -0.15625,3.35937 l -0.117188,1.21094 q 1.40625,-0.11719 2.773438,-0.15625 1.40625,-0.0781 2.8125,-0.11719 1.054687,0.11719 1.5625,0.70313 0.546875,0.58594 0.546875,1.25 0,0.66406 -0.546875,1.28906 -0.507813,0.58594 -1.5625,0.66406 -1.484375,0.0391 -2.929688,0.11719 -1.40625,0.0391 -2.851562,0.19531 0,0.78125 0.03906,1.60157 0.03906,0.78125 0.03906,1.60156 0,3.04687 -0.195313,6.09375 -0.15625,3.04687 -0.15625,6.13281 -0.15625,1.01563 -0.742187,1.48438 -0.585938,0.46875 -1.25,0.46875 -0.742188,0 -1.328125,-0.58594 -0.585938,-0.54688 -0.585938,-1.67969 0,-3.71094 0.195313,-7.34375 0.195312,-3.63281 0.195312,-7.34375 -0.3125,0.0781 -0.46875,0.0781 -1.25,0.19531 -2.460937,0.46875 -1.171875,0.23437 -2.421875,0.27343 z"
           style="font-style:normal;font-variant:normal;font-weight:normal;font-stretch:normal;font-family:'Comic Jens Free Pro';-inkscape-font-specification:'Comic Jens Free Pro';fill:#000000;fill-opacity:0.49019608"
           id="path137"
           inkscape:connector-curvature="0" />
        <path
           d="m 92.222656,180.57422 q 0,-0.66406 0.585938,-1.21094 0.585937,-0.58594 1.40625,-0.58594 0.78125,0 1.328125,0.58594 0.585937,0.54688 0.585937,1.36719 0,2.34375 -0.15625,4.41406 -0.117187,2.03125 -0.3125,4.02344 -0.15625,1.95312 -0.3125,4.02344 -0.117187,2.03125 -0.117187,4.375 0,0.9375 -0.664063,1.44531 -0.664062,0.50781 -1.328125,0.50781 -0.742187,0 -1.328125,-0.54687 -0.585937,-0.58594 -0.585937,-1.71875 0,-2.34375 0.117187,-4.33594 0.15625,-2.03125 0.3125,-3.98438 0.195313,-1.99218 0.3125,-3.98437 0.15625,-2.03125 0.15625,-4.375 z m 2.5,-10.27344 q 0.898438,0 1.523438,0.66406 0.625,0.625 0.625,1.64063 0,0.89844 -0.625,1.64062 -0.585938,0.70313 -1.601563,0.70313 -0.664062,0 -1.132812,-0.19531 -0.429688,-0.23438 -0.742188,-0.54688 -0.3125,-0.3125 -0.46875,-0.66406 -0.117187,-0.39063 -0.117187,-0.74219 0,-0.89844 0.703125,-1.67969 0.703125,-0.82031 1.835937,-0.82031 z"
           style="font-style:normal;font-variant:normal;font-weight:normal;font-stretch:normal;font-family:'Comic Jens Free Pro';-inkscape-font-specification:'Comic Jens Free Pro';fill:#000000;fill-opacity:0.49019608"
           id="path139"
           inkscape:connector-curvature="0" />
        <path
           d="m 102.76953,180.02734 q 0.0781,-0.82031 0.625,-1.36718 0.54688,-0.54688 1.36719,-0.54688 0.78125,0 1.32812,0.58594 0.58594,0.54687 0.58594,1.36719 0,1.05468 -0.11719,2.14843 -0.0781,1.05469 -0.19531,1.95313 2.07031,-2.26563 4.25781,-3.55469 2.1875,-1.28906 4.64844,-1.28906 1.60156,0 2.57813,0.50781 1.01562,0.50781 1.5625,1.40625 0.58593,0.85938 0.78125,2.03125 0.23437,1.17188 0.23437,2.53906 0,1.28907 -0.0781,2.61719 -0.0781,1.32813 -0.15625,2.57813 -0.0781,1.25 -0.15625,2.34375 -0.0781,1.05468 -0.0781,1.83593 0,0.19532 0,0.42969 0,0.19531 0.0391,0.39063 0.58594,-0.39063 1.40625,-0.39063 1.13282,0 1.60157,0.625 0.50781,0.625 0.50781,1.28906 0,0.54688 -0.35156,1.05469 -0.3125,0.50781 -0.9375,0.82031 -0.54688,0.27344 -1.28907,0.46875 -0.74218,0.19532 -1.40625,0.19532 -1.09375,0 -1.79687,-0.54688 -0.70313,-0.54687 -1.13281,-1.40625 -0.39063,-0.89844 -0.54688,-1.99219 -0.15625,-1.13281 -0.15625,-2.26562 0,-1.99219 0.27344,-3.98438 0.27344,-1.99218 0.27344,-4.10156 0,-1.13281 -0.35157,-1.83594 -0.3125,-0.74218 -1.09375,-0.74218 -1.32812,0 -2.69531,0.85937 -1.32812,0.85938 -2.77344,2.46094 -0.70312,0.78125 -1.28906,2.26562 -0.58594,1.44532 -1.13281,3.16407 -0.50781,1.71875 -0.97656,3.4375 -0.42969,1.71875 -0.82032,2.96875 -0.23437,0.74218 -0.82031,1.01562 -0.58594,0.3125 -1.13281,0.3125 -0.70313,0 -1.28906,-0.58594 -0.54688,-0.58593 -0.54688,-1.67968 0,-1.40625 0.0391,-2.69532 0.0781,-1.28906 0.15625,-2.53906 0.11719,-1.28906 0.23438,-2.57812 0.11719,-1.32813 0.23437,-2.77344 0.11719,-1.64063 0.27344,-3.39844 0.19531,-1.75781 0.3125,-3.39844 z"
           style="font-style:normal;font-variant:normal;font-weight:normal;font-stretch:normal;font-family:'Comic Jens Free Pro';-inkscape-font-specification:'Comic Jens Free Pro';fill:#000000;fill-opacity:0.49019608"
           id="path141"
           inkscape:connector-curvature="0" />
        <path
           d="m 125.69922,183.62109 q -0.89844,-0.19531 -1.28906,-0.74218 -0.42969,-0.58594 -0.42969,-1.21094 0,-0.625 0.42969,-1.17188 0.39062,-0.54687 1.28906,-0.78125 1.09375,-0.0391 2.10937,-0.27343 1.05469,-0.27344 2.10938,-0.42969 0.3125,-0.0391 0.58594,-0.0391 0.27343,-0.0391 0.58593,-0.11719 v -0.58594 q 0,-1.91406 0.19532,-3.75 0.23437,-1.83594 0.23437,-3.78906 0,-1.13281 0.58594,-1.67969 0.58594,-0.58594 1.32812,-0.58594 0.66407,0 1.25,0.46875 0.58594,0.46875 0.74219,1.48438 0,1.71875 -0.11719,3.4375 -0.0781,1.67969 -0.15625,3.35937 l -0.11718,1.21094 q 1.40625,-0.11719 2.77343,-0.15625 1.40625,-0.0781 2.8125,-0.11719 1.05469,0.11719 1.5625,0.70313 0.54688,0.58594 0.54688,1.25 0,0.66406 -0.54688,1.28906 -0.50781,0.58594 -1.5625,0.66406 -1.48437,0.0391 -2.92968,0.11719 -1.40625,0.0391 -2.85157,0.19531 0,0.78125 0.0391,1.60157 0.0391,0.78125 0.0391,1.60156 0,3.04687 -0.19531,6.09375 -0.15625,3.04687 -0.15625,6.13281 -0.15625,1.01563 -0.74219,1.48438 -0.58594,0.46875 -1.25,0.46875 -0.74219,0 -1.32813,-0.58594 -0.58593,-0.54688 -0.58593,-1.67969 0,-3.71094 0.19531,-7.34375 0.19531,-3.63281 0.19531,-7.34375 -0.3125,0.0781 -0.46875,0.0781 -1.25,0.19531 -2.46094,0.46875 -1.17187,0.23437 -2.42187,0.27343 z"
           style="font-style:normal;font-variant:normal;font-weight:normal;font-stretch:normal;font-family:'Comic Jens Free Pro';-inkscape-font-specification:'Comic Jens Free Pro';fill:#000000;fill-opacity:0.49019608"
           id="path143"
           inkscape:connector-curvature="0" />
        <path
           d="m 149.83984,176.70703 q -0.35156,0.85938 -0.74218,1.36719 -0.35157,0.46875 -1.13282,0.46875 -0.70312,0 -1.21093,-0.66406 -0.50782,-0.66407 -0.50782,-1.60157 0,-0.89843 0.39063,-1.67968 0.42969,-0.82032 1.13281,-1.40625 0.70313,-0.58594 1.67969,-0.89844 0.97656,-0.35156 2.10937,-0.35156 1.64063,0 2.85157,0.58593 1.21093,0.54688 1.99218,1.48438 0.82032,0.89844 1.21094,2.10937 0.39063,1.17188 0.39063,2.46094 0,1.28906 -0.42969,2.5 -0.39063,1.21094 -1.09375,2.42188 -0.85938,1.48437 -1.875,3.04687 -0.97656,1.5625 -2.03125,3.125 -1.01563,1.5625 -2.10938,3.08594 -1.05468,1.52344 -2.07031,2.89062 2.65625,-0.15625 5.23438,-0.3125 2.61718,-0.19531 5.3125,-0.19531 1.05468,0 1.64062,0.66406 0.58594,0.625 0.58594,1.28907 0,0.66406 -0.54688,1.32812 -0.50781,0.625 -1.5625,0.625 -3.08593,0 -6.17187,0.27344 -3.08594,0.3125 -6.17188,0.3125 -0.35156,0 -0.70312,-0.0391 -0.35156,0 -0.70313,-0.0391 -0.35156,0.0781 -0.58593,0.0781 -0.19532,0 -0.54688,0 -0.70312,0 -1.25,-0.50781 -0.50781,-0.50782 -0.50781,-1.48438 0,-0.58594 0.27344,-1.09375 0.27343,-0.54687 0.66406,-1.05469 0.42969,-0.50781 0.89844,-0.97656 0.46875,-0.46875 0.82031,-0.9375 2.34375,-3.00781 4.33594,-5.85937 1.99218,-2.85157 3.78906,-6.21094 0.0781,-0.15625 0.23437,-0.42969 0.19532,-0.3125 0.35157,-0.66406 0.19531,-0.35156 0.3125,-0.70313 0.11718,-0.39062 0.11718,-0.74218 0,-1.40625 -0.58593,-2.34375 -0.58594,-0.97657 -1.99219,-0.97657 -0.46875,0 -1.05469,0.3125 -0.54687,0.3125 -0.74219,0.74219 z"
           style="font-style:normal;font-variant:normal;font-weight:normal;font-stretch:normal;font-family:'Comic Jens Free Pro';-inkscape-font-specification:'Comic Jens Free Pro';fill:#000000;fill-opacity:0.49019608"
           id="path145"
           inkscape:connector-curvature="0" />
      </g>
      <g
         id="flowRoot118"
         style="font-style:normal;font-weight:normal;font-size:40px;line-height:1.25;font-family:sans-serif;letter-spacing:0px;word-spacing:0px;fill:#000000;fill-opacity:1;stroke:none"
         transform="matrix(3.4970227,0,0,3.4970227,-189.72721,-121.74296)"
         aria-label="tint2">
        <path
           inkscape:connector-curvature="0"
           id="path126"
           style="font-style:normal;font-variant:normal;font-weight:normal;font-stretch:normal;font-family:'Comic Jens Free Pro';-inkscape-font-specification:'Comic Jens Free Pro';fill:#ffffff"
           d="m 73.667969,183.62109 q -0.898438,-0.19531 -1.289063,-0.74218 -0.429687,-0.58594 -0.429687,-1.21094 0,-0.625 0.429687,-1.17188 0.390625,-0.54687 1.289063,-0.78125 1.09375,-0.0391 2.109375,-0.27343 1.054687,-0.27344 2.109375,-0.42969 0.3125,-0.0391 0.585937,-0.0391 0.273438,-0.0391 0.585938,-0.11719 v -0.58594 q 0,-1.91406 0.195312,-3.75 0.234375,-1.83594 0.234375,-3.78906 0,-1.13281 0.585938,-1.67969 0.585937,-0.58594 1.328125,-0.58594 0.664062,0 1.25,0.46875 0.585937,0.46875 0.742187,1.48438 0,1.71875 -0.117187,3.4375 -0.07813,1.67969 -0.15625,3.35937 l -0.117188,1.21094 q 1.40625,-0.11719 2.773438,-0.15625 1.40625,-0.0781 2.8125,-0.11719 1.054687,0.11719 1.5625,0.70313 0.546875,0.58594 0.546875,1.25 0,0.66406 -0.546875,1.28906 -0.507813,0.58594 -1.5625,0.66406 -1.484375,0.0391 -2.929688,0.11719 -1.40625,0.0391 -2.851562,0.19531 0,0.78125 0.03906,1.60157 0.03906,0.78125 0.03906,1.60156 0,3.04687 -0.195313,6.09375 -0.15625,3.04687 -0.15625,6.13281 -0.15625,1.01563 -0.742187,1.48438 -0.585938,0.46875 -1.25,0.46875 -0.742188,0 -1.328125,-0.58594 -0.585938,-0.54688 -0.585938,-1.67969 0,-3.71094 0.195313,-7.34375 0.195312,-3.63281 0.195312,-7.34375 -0.3125,0.0781 -0.46875,0.0781 -1.25,0.19531 -2.460937,0.46875 -1.171875,0.23437 -2.421875,0.27343 z" />
        <path
           inkscape:connector-curvature="0"
           id="path128"
           style="font-style:normal;font-variant:normal;font-weight:normal;font-stretch:normal;font-family:'Comic Jens Free Pro';-inkscape-font-specification:'Comic Jens Free Pro';fill:#ffffff"
           d="m 92.222656,180.57422 q 0,-0.66406 0.585938,-1.21094 0.585937,-0.58594 1.40625,-0.58594 0.78125,0 1.328125,0.58594 0.585937,0.54688 0.585937,1.36719 0,2.34375 -0.15625,4.41406 -0.117187,2.03125 -0.3125,4.02344 -0.15625,1.95312 -0.3125,4.02344 -0.117187,2.03125 -0.117187,4.375 0,0.9375 -0.664063,1.44531 -0.664062,0.50781 -1.328125,0.50781 -0.742187,0 -1.328125,-0.54687 -0.585937,-0.58594 -0.585937,-1.71875 0,-2.34375 0.117187,-4.33594 0.15625,-2.03125 0.3125,-3.98438 0.195313,-1.99218 0.3125,-3.98437 0.15625,-2.03125 0.15625,-4.375 z m 2.5,-10.27344 q 0.898438,0 1.523438,0.66406 0.625,0.625 0.625,1.64063 0,0.89844 -0.625,1.64062 -0.585938,0.70313 -1.601563,0.70313 -0.664062,0 -1.132812,-0.19531 -0.429688,-0.23438 -0.742188,-0.54688 -0.3125,-0.3125 -0.46875,-0.66406 -0.117187,-0.39063 -0.117187,-0.74219 0,-0.89844 0.703125,-1.67969 0.703125,-0.82031 1.835937,-0.82031 z" />
        <path
           inkscape:connector-curvature="0"
           id="path130"
           style="font-style:normal;font-variant:normal;font-weight:normal;font-stretch:normal;font-family:'Comic Jens Free Pro';-inkscape-font-specification:'Comic Jens Free Pro';fill:#ffffff"
           d="m 102.76953,180.02734 q 0.0781,-0.82031 0.625,-1.36718 0.54688,-0.54688 1.36719,-0.54688 0.78125,0 1.32812,0.58594 0.58594,0.54687 0.58594,1.36719 0,1.05468 -0.11719,2.14843 -0.0781,1.05469 -0.19531,1.95313 2.07031,-2.26563 4.25781,-3.55469 2.1875,-1.28906 4.64844,-1.28906 1.60156,0 2.57813,0.50781 1.01562,0.50781 1.5625,1.40625 0.58593,0.85938 0.78125,2.03125 0.23437,1.17188 0.23437,2.53906 0,1.28907 -0.0781,2.61719 -0.0781,1.32813 -0.15625,2.57813 -0.0781,1.25 -0.15625,2.34375 -0.0781,1.05468 -0.0781,1.83593 0,0.19532 0,0.42969 0,0.19531 0.0391,0.39063 0.58594,-0.39063 1.40625,-0.39063 1.13282,0 1.60157,0.625 0.50781,0.625 0.50781,1.28906 0,0.54688 -0.35156,1.05469 -0.3125,0.50781 -0.9375,0.82031 -0.54688,0.27344 -1.28907,0.46875 -0.74218,0.19532 -1.40625,0.19532 -1.09375,0 -1.79687,-0.54688 -0.70313,-0.54687 -1.13281,-1.40625 -0.39063,-0.89844 -0.54688,-1.99219 -0.15625,-1.13281 -0.15625,-2.26562 0,-1.99219 0.27344,-3.98438 0.27344,-1.99218 0.27344,-4.10156 0,-1.13281 -0.35157,-1.83594 -0.3125,-0.74218 -1.09375,-0.74218 -1.32812,0 -2.69531,0.85937 -1.32812,0.85938 -2.77344,2.46094 -0.70312,0.78125 -1.28906,2.26562 -0.58594,1.44532 -1.13281,3.16407 -0.50781,1.71875 -0.97656,3.4375 -0.42969,1.71875 -0.82032,2.96875 -0.23437,0.74218 -0.82031,1.01562 -0.58594,0.3125 -1.13281,0.3125 -0.70313,0 -1.28906,-0.58594 -0.54688,-0.58593 -0.54688,-1.67968 0,-1.40625 0.0391,-2.69532 0.0781,-1.28906 0.15625,-2.53906 0.11719,-1.28906 0.23438,-2.57812 0.11719,-1.32813 0.23437,-2.77344 0.11719,-1.64063 0.27344,-3.39844 0.19531,-1.75781 0.3125,-3.39844 z" />
        <path
           inkscape:connector-curvature="0"
           id="path132"
           style="font-style:normal;font-variant:normal;font-weight:normal;font-stretch:normal;font-family:'Comic Jens Free Pro';-inkscape-font-specification:'Comic Jens Free Pro';fill:#ffffff"
           d="m 125.69922,183.62109 q -0.89844,-0.19531 -1.28906,-0.74218 -0.42969,-0.58594 -0.42969,-1.21094 0,-0.625 0.42969,-1.17188 0.39062,-0.54687 1.28906,-0.78125 1.09375,-0.0391 2.10937,-0.27343 1.05469,-0.27344 2.10938,-0.42969 0.3125,-0.0391 0.58594,-0.0391 0.27343,-0.0391 0.58593,-0.11719 v -0.58594 q 0,-1.91406 0.19532,-3.75 0.23437,-1.83594 0.23437,-3.78906 0,-1.13281 0.58594,-1.67969 0.58594,-0.58594 1.32812,-0.58594 0.66407,0 1.25,0.46875 0.58594,0.46875 0.74219,1.48438 0,1.71875 -0.11719,3.4375 -0.0781,1.67969 -0.15625,3.35937 l -0.11718,1.21094 q 1.40625,-0.11719 2.77343,-0.15625 1.40625,-0.0781 2.8125,-0.11719 1.05469,0.11719 1.5625,0.70313 0.54688,0.58594 0.54688,1.25 0,0.66406 -0.54688,1.28906 -0.50781,0.58594 -1.5625,0.66406 -1.48437,0.0391 -2.92968,0.11719 -1.40625,0.0391 -2.85157,0.19531 0,0.78125 0.0391,1.60157 0.0391,0.78125 0.0391,1.60156 0,3.04687 -0.19531,6.09375 -0.15625,3.04687 -0.15625,6.13281 -0.15625,1.01563 -0.74219,1.48438 -0.58594,0.46875 -1.25,0.46875 -0.74219,0 -1.32813,-0.58594 -0.58593,-0.54688 -0.58593,-1.67969 0,-3.71094 0.19531,-7.34375 0.19531,-3.63281 0.19531,-7.34375 -0.3125,0.0781 -0.46875,0.0781 -1.25,0.19531 -2.46094,0.46875 -1.17187,0.23437 -2.42187,0.27343 z" />
        <path
           inkscape:connector-curvature="0"
           id="path134"
           style="font-style:normal;font-variant:normal;font-weight:normal;font-stretch:normal;font-family:'Comic Jens Free Pro';-inkscape-font-specification:'Comic Jens Free Pro';fill:#ffffff"
           d="m 149.83984,176.70703 q -0.35156,0.85938 -0.74218,1.36719 -0.35157,0.46875 -1.13282,0.46875 -0.70312,0 -1.21093,-0.66406 -0.50782,-0.66407 -0.50782,-1.60157 0,-0.89843 0.39063,-1.67968 0.42969,-0.82032 1.13281,-1.40625 0.70313,-0.58594 1.67969,-0.89844 0.97656,-0.35156 2.10937,-0.35156 1.64063,0 2.85157,0.58593 1.21093,0.54688 1.99218,1.48438 0.82032,0.89844 1.21094,2.10937 0.39063,1.17188 0.39063,2.46094 0,1.28906 -0.42969,2.5 -0.39063,1.21094 -1.09375,2.42188 -0.85938,1.48437 -1.875,3.04687 -0.97656,1.5625 -2.03125,3.125 -1.01563,1.5625 -2.10938,3.08594 -1.05468,1.52344 -2.07031,2.89062 2.65625,-0.15625 5.23438,-0.3125 2.61718,-0.19531 5.3125,-0.19531 1.05468,0 1.64062,0.66406 0.58594,0.625 0.58594,1.28907 0,0.66406 -0.54688,1.32812 -0.50781,0.625 -1.5625,0.625 -3.08593,0 -6.17187,0.27344 -3.08594,0.3125 -6.17188,0.3125 -0.35156,0 -0.70312,-0.0391 -0.35156,0 -0.70313,-0.0391 -0.35156,0.0781 -0.58593,0.0781 -0.19532,0 -0.54688,0 -0.70312,0 -1.25,-0.50781 -0.50781,-0.50782 -0.50781,-1.48438 0,-0.58594 0.27344,-1.09375 0.27343,-0.54687 0.66406,-1.05469 0.42969,-0.50781 0.89844,-0.97656 0.46875,-0.46875 0.82031,-0.9375 2.34375,-3.00781 4.33594,-5.85937 1.99218,-2.85157 3.78906,-6.21094 0.0781,-0.15625 0.23437,-0.42969 0.19532,-0.3125 0.35157,-0.66406 0.19531,-0.35156 0.3125,-0.70313 0.11718,-0.39062 0.11718,-0.74218 0,-1.40625 -0.58593,-2.34375 -0.58594,-0.97657 -1.99219,-0.97657 -0.46875,0 -1.05469,0.3125 -0.54687,0.3125 -0.74219,0.74219 z" />
      </g>
    </g>
  </g>
</svg>
