<?xml version="1.0" encoding="UTF-8" standalone="no"?>
<!-- Created using Karbon, part of Calligra: http://www.calligra.org/karbon -->

<svg
   xmlns:dc="http://purl.org/dc/elements/1.1/"
   xmlns:cc="http://creativecommons.org/ns#"
   xmlns:rdf="http://www.w3.org/1999/02/22-rdf-syntax-ns#"
   xmlns:svg="http://www.w3.org/2000/svg"
   xmlns="http://www.w3.org/2000/svg"
   xmlns:sodipodi="http://sodipodi.sourceforge.net/DTD/sodipodi-0.dtd"
   xmlns:inkscape="http://www.inkscape.org/namespaces/inkscape"
   width="512"
   height="512"
   id="svg2"
   version="1.1"
   inkscape:version="0.92.3 (2405546, 2018-03-11)"
   sodipodi:docname="tovid.svg"
   viewBox="0 0 512 512">
  <metadata
     id="metadata12">
    <rdf:RDF>
      <cc:Work
         rdf:about="">
        <dc:format>image/svg+xml</dc:format>
        <dc:type
           rdf:resource="http://purl.org/dc/dcmitype/StillImage" />
        <dc:title></dc:title>
      </cc:Work>
    </rdf:RDF>
  </metadata>
  <sodipodi:namedview
     pagecolor="#ffffff"
     bordercolor="#666666"
     borderopacity="1"
     objecttolerance="10"
     gridtolerance="10"
     guidetolerance="10"
     inkscape:pageopacity="0"
     inkscape:pageshadow="2"
     inkscape:window-width="1366"
     inkscape:window-height="711"
     id="namedview10"
     showgrid="false"
     inkscape:zoom="0.57452426"
     inkscape:cx="468.73949"
     inkscape:cy="119.6896"
     inkscape:window-x="0"
     inkscape:window-y="28"
     inkscape:window-maximized="1"
     inkscape:current-layer="svg2"
     inkscape:showpageshadow="false"
     borderlayer="true"
     units="px"
     showguides="false"
     inkscape:document-units="px">
    <sodipodi:guide
       position="1.9073486e-06,48.000002"
       orientation="47.999998,0"
       id="guide4062"
       inkscape:locked="false" />
    <sodipodi:guide
       position="1.9073486e-06,3.8146973e-06"
       orientation="0,47.999998"
       id="guide4064"
       inkscape:locked="false" />
    <sodipodi:guide
       position="48,3.8146973e-06"
       orientation="-47.999998,0"
       id="guide4066"
       inkscape:locked="false" />
    <sodipodi:guide
       position="48,48.000002"
       orientation="0,-47.999998"
       id="guide4068"
       inkscape:locked="false" />
    <sodipodi:guide
       position="4.0000019,44.000002"
       orientation="39.999998,0"
       id="guide4072"
       inkscape:locked="false" />
    <sodipodi:guide
       position="4.0000019,4.0000038"
       orientation="0,39.999998"
       id="guide4074"
       inkscape:locked="false" />
    <sodipodi:guide
       position="44,4.0000038"
       orientation="-39.999998,0"
       id="guide4076"
       inkscape:locked="false" />
    <sodipodi:guide
       position="44,44.000002"
       orientation="0,-39.999998"
       id="guide4078"
       inkscape:locked="false" />
    <sodipodi:guide
       position="15.000002,33.000002"
       orientation="17.999998,0"
       id="guide4080"
       inkscape:locked="false" />
    <sodipodi:guide
       position="15.000002,15.000004"
       orientation="0,17.999998"
       id="guide4082"
       inkscape:locked="false" />
    <sodipodi:guide
       position="33,15.000004"
       orientation="-17.999998,0"
       id="guide4084"
       inkscape:locked="false" />
    <sodipodi:guide
       position="33,33.000002"
       orientation="0,-17.999998"
       id="guide4086"
       inkscape:locked="false" />
    <inkscape:grid
       type="xygrid"
       id="grid3359" />
  </sodipodi:namedview>
  <defs
     id="defs4">
    <inkscape:path-effect
       effect="spiro"
       id="path-effect3794"
       is_visible="true" />
    <inkscape:path-effect
       effect="spiro"
       id="path-effect3794-1"
       is_visible="true" />
  </defs>
  <g
     id="g940">
    <g
       style="fill:#333333;fill-opacity:1"
       id="g29"
       transform="matrix(8.0447856,6.9727289,-7.6918815,8.6750446,247.5303,-119.54657)">
      <path
         id="path27"
         d="M 24,1 C 36.703,1 47,11.297 47,24 47,36.703 36.703,47 24,47 11.297,47 1,36.703 1,24 1,11.297 11.297,1 24,1 Z"
         inkscape:connector-curvature="0"
         style="fill:#333333;fill-opacity:1" />
    </g>
    <path
       style="opacity:1;fill:#000000;fill-opacity:0.49019608;stroke-width:11.10955811"
       inkscape:connector-curvature="0"
       d="m 511.63551,224.90353 c -1.5514,61.31165 -25.16124,124.15459 -70.96639,175.81448 C 342.95915,510.91711 180.91869,528.44585 78.725778,439.87128 30.827125,398.35565 4.4968222,340.92283 0.19382907,280.22879 0.79907979,346.58547 27.117412,410.48219 79.078682,455.51905 181.27159,544.09362 343.31974,526.5562 441.02202,416.36579 490.72696,360.30765 514.02705,291.07482 511.63551,224.90353 Z"
       id="path51" />
    <path
       style="color:#000000;font-style:normal;font-variant:normal;font-weight:normal;font-stretch:normal;font-size:medium;line-height:normal;font-family:sans-serif;font-variant-ligatures:normal;font-variant-position:normal;font-variant-caps:normal;font-variant-numeric:normal;font-variant-alternates:normal;font-feature-settings:normal;text-indent:0;text-align:start;text-decoration:none;text-decoration-line:none;text-decoration-style:solid;text-decoration-color:#000000;letter-spacing:normal;word-spacing:normal;text-transform:none;writing-mode:lr-tb;direction:ltr;text-orientation:mixed;dominant-baseline:auto;baseline-shift:baseline;text-anchor:start;white-space:normal;shape-padding:0;clip-rule:nonzero;display:inline;overflow:visible;visibility:visible;opacity:1;isolation:auto;mix-blend-mode:normal;color-interpolation:sRGB;color-interpolation-filters:linearRGB;solid-color:#000000;solid-opacity:1;vector-effect:none;fill:#000000;fill-opacity:0.49019608;fill-rule:nonzero;stroke:none;stroke-width:39.34049225;stroke-linecap:butt;stroke-linejoin:bevel;stroke-miterlimit:4;stroke-dasharray:none;stroke-dashoffset:0;stroke-opacity:1;color-rendering:auto;image-rendering:auto;shape-rendering:auto;text-rendering:auto;enable-background:accumulate"
       d="m 277.9362,120.01141 c -1.33225,-0.0162 -2.66833,-0.0151 -4.00802,0.003 -85.73992,1.13872 -154.80778,71.85875 -153.91971,157.60182 0.88807,85.74305 71.40631,155.01683 157.15143,154.37941 85.74511,-0.63742 155.22525,-70.95221 154.83849,-156.69902 l -0.91079,-0.90279 0.89215,-0.92145 C 430.6121,189.0756 361.86747,121.03134 277.9362,120.01175 Z m -10.83363,26.13203 5.45809,67.13637 -37.66201,14.19186 -39.29851,-50.76206 c 0,0 13.61915,-15.29137 33.29448,-22.37835 19.67534,-7.08696 38.20795,-8.18782 38.20795,-8.18782 z m 10.3769,82.91146 c 26.76927,-0.35552 48.91273,21.14434 49.34651,47.91251 l -0.27963,0.28762 0.28495,0.28229 c 0.12076,26.77141 -21.57161,48.72416 -48.34251,48.92317 -26.77088,0.19901 -48.78827,-21.42855 -49.06553,-48.1988 -0.27728,-26.77024 21.28694,-48.85126 48.05621,-49.20679 z m 133.32039,34.85248 c 0,0 5.03234,19.84898 -0.12384,40.11617 -5.15616,20.26719 -14.62991,36.23333 -14.62991,36.23333 l -58.66215,-33.10148 9.35026,-39.14546 z m -177.33131,58.53577 33.71659,21.97753 -17.69252,61.7089 c 0,0 -20.38608,-1.93904 -37.73659,-13.61396 -17.35052,-11.67491 -29.19725,-25.96825 -29.19725,-25.96825 z"
       id="path933"
       inkscape:connector-curvature="0" />
    <path
       inkscape:connector-curvature="0"
       id="path3793-2"
       d="m 257.9362,100.01141 c -1.33225,-0.0162 -2.66833,-0.0151 -4.00802,0.003 -85.73992,1.13872 -154.807781,71.85875 -153.91971,157.60182 0.88807,85.74305 71.40631,155.01683 157.15143,154.37941 85.74511,-0.63742 155.22525,-70.95221 154.83849,-156.69902 l -0.91079,-0.90279 0.89215,-0.92145 C 410.6121,169.0756 341.86747,101.03134 257.9362,100.01175 Z m -10.83363,26.13203 5.45809,67.13637 -37.66201,14.19186 -39.29851,-50.76206 c 0,0 13.61915,-15.29137 33.29448,-22.37835 19.67534,-7.08696 38.20795,-8.18782 38.20795,-8.18782 z m 10.3769,82.91146 c 26.76927,-0.35552 48.91273,21.14434 49.34651,47.91251 l -0.27963,0.28762 0.28495,0.28229 c 0.12076,26.77141 -21.57161,48.72416 -48.34251,48.92317 -26.77088,0.19901 -48.78827,-21.42855 -49.06553,-48.1988 -0.27728,-26.77024 21.28694,-48.85126 48.05621,-49.20679 z m 133.32039,34.85248 c 0,0 5.03234,19.84898 -0.12384,40.11617 -5.15616,20.26719 -14.62991,36.23333 -14.62991,36.23333 l -58.66215,-33.10148 9.35026,-39.14546 z m -177.33131,58.53577 33.71659,21.97753 -17.69252,61.7089 c 0,0 -20.38608,-1.93904 -37.73659,-13.61396 -17.35052,-11.67491 -29.19725,-25.96825 -29.19725,-25.96825 z"
       style="color:#000000;font-style:normal;font-variant:normal;font-weight:normal;font-stretch:normal;font-size:medium;line-height:normal;font-family:sans-serif;font-variant-ligatures:normal;font-variant-position:normal;font-variant-caps:normal;font-variant-numeric:normal;font-variant-alternates:normal;font-feature-settings:normal;text-indent:0;text-align:start;text-decoration:none;text-decoration-line:none;text-decoration-style:solid;text-decoration-color:#000000;letter-spacing:normal;word-spacing:normal;text-transform:none;writing-mode:lr-tb;direction:ltr;text-orientation:mixed;dominant-baseline:auto;baseline-shift:baseline;text-anchor:start;white-space:normal;shape-padding:0;clip-rule:nonzero;display:inline;overflow:visible;visibility:visible;opacity:1;isolation:auto;mix-blend-mode:normal;color-interpolation:sRGB;color-interpolation-filters:linearRGB;solid-color:#000000;solid-opacity:1;vector-effect:none;fill:#ffffff;fill-opacity:1;fill-rule:nonzero;stroke:none;stroke-width:39.34049225;stroke-linecap:butt;stroke-linejoin:bevel;stroke-miterlimit:4;stroke-dasharray:none;stroke-dashoffset:0;stroke-opacity:1;color-rendering:auto;image-rendering:auto;shape-rendering:auto;text-rendering:auto;enable-background:accumulate" />
  </g>
</svg>
