<?xml version="1.0" encoding="UTF-8" standalone="no"?>
<svg
   xmlns:dc="http://purl.org/dc/elements/1.1/"
   xmlns:cc="http://creativecommons.org/ns#"
   xmlns:rdf="http://www.w3.org/1999/02/22-rdf-syntax-ns#"
   xmlns:svg="http://www.w3.org/2000/svg"
   xmlns="http://www.w3.org/2000/svg"
   xmlns:sodipodi="http://sodipodi.sourceforge.net/DTD/sodipodi-0.dtd"
   xmlns:inkscape="http://www.inkscape.org/namespaces/inkscape"
   viewBox="0 0 512 512"
   id="svg2"
   version="1.1"
   inkscape:version="0.92.3 (2405546, 2018-03-11)"
   width="512"
   height="512"
   sodipodi:docname="transmageddon.svg">
  <metadata
     id="metadata61">
    <rdf:RDF>
      <cc:Work
         rdf:about="">
        <dc:format>image/svg+xml</dc:format>
        <dc:type
           rdf:resource="http://purl.org/dc/dcmitype/StillImage" />
        <dc:title></dc:title>
      </cc:Work>
    </rdf:RDF>
  </metadata>
  <sodipodi:namedview
     pagecolor="#ffffff"
     bordercolor="#666666"
     borderopacity="1"
     objecttolerance="10"
     gridtolerance="10"
     guidetolerance="10"
     inkscape:pageopacity="0"
     inkscape:pageshadow="2"
     inkscape:window-width="1149"
     inkscape:window-height="647"
     id="namedview59"
     showgrid="false"
     inkscape:zoom="0.30729167"
     inkscape:cx="113.56842"
     inkscape:cy="228.4876"
     inkscape:window-x="15"
     inkscape:window-y="39"
     inkscape:window-maximized="0"
     inkscape:current-layer="svg2"
     units="px" />
  <defs
     id="defs4">
    <linearGradient
       id="linearGradient3764"
       y1="47"
       x2="0"
       y2="1"
       gradientUnits="userSpaceOnUse">
      <stop
         stop-color="#ffb81f"
         stop-opacity="1"
         id="stop7" />
      <stop
         offset="1"
         stop-color="#ffbe33"
         stop-opacity="1"
         id="stop9" />
    </linearGradient>
    <clipPath
       id="clipPath-118760921">
      <g
         transform="translate(0,-1004.3622)"
         id="g12">
        <path
           d="m -24,13 c 0,1.105 -0.672,2 -1.5,2 -0.828,0 -1.5,-0.895 -1.5,-2 0,-1.105 0.672,-2 1.5,-2 0.828,0 1.5,0.895 1.5,2 z"
           transform="matrix(15.8a715e,0,0,11.5,414.99999,878.8622)"
           id="path14"
           inkscape:connector-curvature="0"
           style="fill:#1890d0" />
      </g>
    </clipPath>
    <clipPath
       id="clipPath-137197553">
      <g
         transform="translate(0,-1004.3622)"
         id="g17">
        <path
           d="m -24,13 c 0,1.105 -0.672,2 -1.5,2 -0.828,0 -1.5,-0.895 -1.5,-2 0,-1.105 0.672,-2 1.5,-2 0.828,0 1.5,0.895 1.5,2 z"
           transform="matrix(15.8a715e,0,0,11.5,414.99999,878.8622)"
           id="path19"
           inkscape:connector-curvature="0"
           style="fill:#1890d0" />
      </g>
    </clipPath>
  </defs>
  <g
     id="g33"
     transform="translate(0,591)" />
  <g
     id="g47"
     transform="matrix(4.0704585,0,0,4.0704585,-34.648366,473.45695)"
     style="fill:#394050">
    <g
       clip-path="url(#clipPath-137197553)"
       id="g49"
       style="fill:#394050">
      <!-- color: #ffbe33 -->
      <g
         id="g51"
         style="fill:#394050" />
    </g>
  </g>
  <g
     id="g856">
    <path
       style="fill:#f9c440;fill-opacity:1;stroke-width:11.10955811"
       inkscape:connector-curvature="0"
       d="m 432.91321,56.47396 c 102.19296,88.57472 105.82688,249.69983 8.1168,359.89887 C 343.31994,526.5719 181.27962,544.1005 79.086662,455.52611 -23.106295,366.95139 -26.739895,205.82627 70.969862,95.62724 168.67994,-14.5718 330.72026,-32.10076 432.91321,56.47396 Z"
       id="path52" />
    <path
       style="opacity:1;fill:#000000;fill-opacity:0.49019608;stroke-width:11.10955811"
       inkscape:connector-curvature="0"
       d="m 511.63545,224.90339 c -1.552,61.31168 -25.16128,124.15488 -70.9664,175.81472 C 342.9593,510.9172 180.91866,528.4458 78.725702,439.87139 30.827143,398.35555 4.4969034,340.92291 0.19386359,280.22883 0.79866357,346.58563 27.117384,410.48227 79.078662,455.51907 181.27162,544.0938 343.31962,526.5562 441.02201,416.36579 c 49.70496,-56.05824 73.00512,-125.29088 70.61344,-191.4624 z"
       id="path54" />
    <g
       id="g43"
       transform="matrix(6.7826347,0,0,6.7826347,113.215,113.21639)"
       style="fill:#000000;fill-opacity:0.49019608">
      <path
         style="fill:#000000;fill-opacity:0.49019608;stroke-width:2.57894158"
         d="M 62.890625,4.2148438 C 30.13033,4.2148437 3.5761719,30.769002 3.5761719,63.529297 c 0,32.760295 26.5541581,59.316403 59.3144531,59.316403 32.760295,0 59.316405,-26.556108 59.316405,-59.316403 0,-32.760295 -26.55611,-59.3144532 -59.316405,-59.3144532 z m 1.115234,7.0859372 C 73.21874,11.49613 81.53971,14.756221 89.5,19.316406 L 71.691406,49.462891 c -5.311948,-2.784194 -10.776995,-3.435467 -16.789062,0 L 36.710938,19.316406 c 9.252152,-5.438132 17.697441,-7.838642 25.439453,-8.013672 0.622271,-0.01475 1.241276,-0.01498 1.855468,-0.002 z m -0.83789,42.488281 c 5.32823,0 9.667969,4.453132 9.667969,9.923829 0,5.470696 -4.339739,9.923828 -9.667969,9.923828 -5.32823,0 -9.666016,-4.453132 -9.666016,-9.923828 0,-5.470697 4.337786,-9.923829 9.666016,-9.923829 z m -51.00586,7.50586 35.103516,1.27539 c -0.109902,6.12197 1.73318,11.336449 7.378906,15.390626 L 36.201172,107.98047 C 19.951902,97.580447 11.954516,82.013556 12.162109,61.294922 Z m 101.757811,0.382812 h 0.004 c 0.0773,17.014517 -3.75247,33.501106 -25.187502,47.320316 L 71.052734,77.833984 c 4.990382,-3.337776 8.173958,-7.806402 8.267578,-14.880859 z"
         transform="matrix(0.38775597,0,0,0.38775597,-0.38633357,-0.63418563)"
         id="path41"
         inkscape:connector-curvature="0" />
    </g>
    <g
       style="fill:#ffffff"
       transform="matrix(6.7826347,0,0,6.7826347,93.215002,93.216387)"
       id="g29">
      <path
         inkscape:connector-curvature="0"
         id="path31"
         transform="matrix(0.38775597,0,0,0.38775597,-0.38633357,-0.63418563)"
         d="M 62.890625,4.2148438 C 30.13033,4.2148437 3.5761719,30.769002 3.5761719,63.529297 c 0,32.760295 26.5541581,59.316403 59.3144531,59.316403 32.760295,0 59.316405,-26.556108 59.316405,-59.316403 0,-32.760295 -26.55611,-59.3144532 -59.316405,-59.3144532 z m 1.115234,7.0859372 C 73.21874,11.49613 81.53971,14.756221 89.5,19.316406 L 71.691406,49.462891 c -5.311948,-2.784194 -10.776995,-3.435467 -16.789062,0 L 36.710938,19.316406 c 9.252152,-5.438132 17.697441,-7.838642 25.439453,-8.013672 0.622271,-0.01475 1.241276,-0.01498 1.855468,-0.002 z m -0.83789,42.488281 c 5.32823,0 9.667969,4.453132 9.667969,9.923829 0,5.470696 -4.339739,9.923828 -9.667969,9.923828 -5.32823,0 -9.666016,-4.453132 -9.666016,-9.923828 0,-5.470697 4.337786,-9.923829 9.666016,-9.923829 z m -51.00586,7.50586 35.103516,1.27539 c -0.109902,6.12197 1.73318,11.336449 7.378906,15.390626 L 36.201172,107.98047 C 19.951902,97.580447 11.954516,82.013556 12.162109,61.294922 Z m 101.757811,0.382812 h 0.004 c 0.0773,17.014517 -3.75247,33.501106 -25.187502,47.320316 L 71.052734,77.833984 c 4.990382,-3.337776 8.173958,-7.806402 8.267578,-14.880859 z"
         style="fill:#ffffff;fill-opacity:1;stroke-width:2.57894158" />
    </g>
  </g>
</svg>
