<?xml version="1.0" encoding="UTF-8" standalone="no"?>
<!-- Created with Inkscape (http://www.inkscape.org/) -->

<svg
   xmlns:dc="http://purl.org/dc/elements/1.1/"
   xmlns:cc="http://creativecommons.org/ns#"
   xmlns:rdf="http://www.w3.org/1999/02/22-rdf-syntax-ns#"
   xmlns:svg="http://www.w3.org/2000/svg"
   xmlns="http://www.w3.org/2000/svg"
   xmlns:sodipodi="http://sodipodi.sourceforge.net/DTD/sodipodi-0.dtd"
   xmlns:inkscape="http://www.inkscape.org/namespaces/inkscape"
   id="svg2"
   version="1.1"
   inkscape:version="0.92.3 (2405546, 2018-03-11)"
   width="512"
   height="512"
   sodipodi:docname="tuxtype.svg">
  <metadata
     id="metadata8">
    <rdf:RDF>
      <cc:Work
         rdf:about="">
        <dc:format>image/svg+xml</dc:format>
        <dc:type
           rdf:resource="http://purl.org/dc/dcmitype/StillImage" />
        <dc:title></dc:title>
      </cc:Work>
    </rdf:RDF>
  </metadata>
  <defs
     id="defs6" />
  <sodipodi:namedview
     pagecolor="#ffffff"
     bordercolor="#666666"
     borderopacity="1"
     objecttolerance="10"
     gridtolerance="10"
     guidetolerance="10"
     inkscape:pageopacity="0"
     inkscape:pageshadow="2"
     inkscape:window-width="1366"
     inkscape:window-height="711"
     id="namedview4"
     showgrid="false"
     inkscape:zoom="0.23046875"
     inkscape:cx="639.05726"
     inkscape:cy="333.02206"
     inkscape:window-x="0"
     inkscape:window-y="28"
     inkscape:window-maximized="1"
     inkscape:current-layer="svg2" />
  <g
     transform="matrix(0.96135207,0,0,0.96135207,855.35304,66.944939)"
     style="font-style:normal;font-weight:normal;font-size:308.00787354px;line-height:125%;font-family:sans-serif;letter-spacing:0px;word-spacing:0px;fill:#004455;fill-opacity:1;stroke:none;stroke-width:1px;stroke-linecap:butt;stroke-linejoin:miter;stroke-opacity:1"
     id="flowRoot3349" />
  <g
     id="g843">
    <path
       style="fill:#3689e6;fill-opacity:1;stroke-width:11.10955811"
       inkscape:connector-curvature="0"
       d="M 432.91336,56.473967 C 535.10616,145.04856 538.74001,306.17367 441.03015,416.37276 343.32009,526.57184 181.27948,544.10061 79.086673,455.52602 -23.106166,366.95143 -26.740027,205.82631 70.969881,95.627227 168.67975,-14.571854 330.72029,-32.100623 432.91336,56.473967 Z"
       id="path911" />
    <path
       style="opacity:1;fill:#000000;fill-opacity:0.49019608;stroke-width:11.10955811"
       inkscape:connector-curvature="0"
       d="m 511.635,224.90352 c -1.5514,61.31166 -25.1612,124.1546 -70.9663,175.81449 C 342.95883,510.9171 180.91853,528.44585 78.725729,439.87127 30.827126,398.35564 4.4968512,340.92283 0.1938618,280.22879 0.79911272,346.58547 27.117417,410.48219 79.078633,455.51904 181.27144,544.09362 343.31942,526.5562 441.0216,416.36578 490.72648,360.30764 514.02654,291.07481 511.635,224.90352 Z"
       id="path913" />
    <path
       style="fill:#000000;fill-opacity:0.49019608;stroke-width:6.92773628"
       d="m 173.04574,121.93609 c -2.92414,0.12249 -5.91415,1.52417 -9.05545,4.13122 -6.81675,5.65732 -4.9836,12.11806 8.42732,29.70066 30.94579,40.57208 16.16035,76.07639 -24.64291,59.17513 -22.81796,-9.4515 -34.43918,-4.64363 -23.78723,9.84164 33.99225,46.22491 33.03224,42.10199 17.09851,73.33466 -8.07849,15.83521 -13.54474,32.22627 -12.14568,36.42343 1.39906,4.19711 14.58144,11.00734 29.29326,15.1351 27.02905,7.58359 30.61688,12.8979 41.24001,61.06362 5.22906,23.70872 30.22509,25.93232 49.62648,4.41464 11.49549,-12.74947 18.28019,-14.10907 52.61309,-10.54198 36.3443,3.7761 39.793,2.90284 44.2717,-11.20826 2.6713,-8.41686 10.8743,-23.44113 18.2281,-33.38769 21.4474,-29.00929 27.9263,-70.63956 16.2619,-104.49597 -11.7733,-34.17211 -7.4192,-45.64873 27.398,-72.20511 24.3121,-18.54375 31.9368,-37.56252 15.0588,-37.56252 -5.0025,0 -18.252,9.66623 -29.4432,21.48045 -30.4488,32.14435 -47.2647,36.39566 -79.308,20.04842 -32.5082,-16.58444 -43.8152,-17.1531 -65.00546,-3.26873 -22.21504,14.55586 -35.75788,7.23806 -49.31717,-26.64993 -9.86334,-24.65092 -18.03967,-35.79626 -26.81207,-35.42878 z m 22.16854,101.53107 h 138.78696 v 29.35185 h -49.9262 v 121.2375 H 245.2427 v -121.2375 h -50.02842 z"
       id="path32"
       inkscape:connector-curvature="0" />
    <path
       inkscape:connector-curvature="0"
       id="path827"
       d="m 153.04574,101.93609 c -2.92414,0.12249 -5.91415,1.52417 -9.05545,4.13122 -6.81675,5.65732 -4.9836,12.11806 8.42732,29.70066 30.94579,40.57208 16.16035,76.07639 -24.64291,59.17513 -22.81796,-9.4515 -34.439178,-4.64363 -23.78723,9.84164 33.99225,46.22491 33.03224,42.10199 17.09851,73.33466 -8.07849,15.83521 -13.54474,32.22627 -12.14568,36.42343 1.39906,4.19711 14.58144,11.00734 29.29326,15.1351 27.02905,7.58359 30.61688,12.8979 41.24001,61.06362 5.22906,23.70872 30.22509,25.93232 49.62648,4.41464 11.49549,-12.74947 18.28019,-14.10907 52.61309,-10.54198 36.3443,3.7761 39.793,2.90284 44.2717,-11.20826 2.6713,-8.41686 10.8743,-23.44113 18.2281,-33.38769 21.4474,-29.00929 27.9263,-70.63956 16.2619,-104.49597 -11.7733,-34.17211 -7.4192,-45.64873 27.398,-72.20511 24.3121,-18.54375 31.9368,-37.56252 15.0588,-37.56252 -5.0025,0 -18.252,9.66623 -29.4432,21.48045 -30.4488,32.14435 -47.2647,36.39566 -79.308,20.04842 -32.5082,-16.58444 -43.8152,-17.1531 -65.00546,-3.26873 -22.21504,14.55586 -35.75788,7.23806 -49.31717,-26.64993 -9.86334,-24.65092 -18.03967,-35.79626 -26.81207,-35.42878 z m 22.16854,101.53107 h 138.78696 v 29.35185 h -49.9262 v 121.2375 H 225.2427 v -121.2375 h -50.02842 z"
       style="fill:#ffffff;fill-opacity:1;stroke-width:6.92773628" />
  </g>
</svg>
