<?xml version="1.0" encoding="UTF-8" standalone="no"?>
<svg
   xmlns:dc="http://purl.org/dc/elements/1.1/"
   xmlns:cc="http://creativecommons.org/ns#"
   xmlns:rdf="http://www.w3.org/1999/02/22-rdf-syntax-ns#"
   xmlns:svg="http://www.w3.org/2000/svg"
   xmlns="http://www.w3.org/2000/svg"
   xmlns:xlink="http://www.w3.org/1999/xlink"
   xmlns:sodipodi="http://sodipodi.sourceforge.net/DTD/sodipodi-0.dtd"
   xmlns:inkscape="http://www.inkscape.org/namespaces/inkscape"
   width="512"
   height="512"
   version="1.1"
   id="svg2"
   inkscape:version="0.92.3 (2405546, 2018-03-11)"
   sodipodi:docname="ubuntuone-installer.svg">
  <sodipodi:namedview
     pagecolor="#ffffff"
     bordercolor="#666666"
     borderopacity="1"
     objecttolerance="10"
     gridtolerance="10"
     guidetolerance="10"
     inkscape:pageopacity="0"
     inkscape:pageshadow="2"
     inkscape:window-width="904"
     inkscape:window-height="618"
     id="namedview17"
     showgrid="false"
     inkscape:zoom="0.4609375"
     inkscape:cx="90.516037"
     inkscape:cy="133.04664"
     inkscape:window-x="2"
     inkscape:window-y="57"
     inkscape:window-maximized="0"
     inkscape:current-layer="svg2" />
  <title
     id="title4">Unison Icon</title>
  <desc
     id="desc6">This icon is a part of Clarity icon theme for gtk</desc>
  <metadata
     id="metadata8">
    <rdf:RDF>
      <cc:Work
         rdf:about="">
        <dc:title>Unison Icon</dc:title>
        <dc:description>This icon is a part of Clarity icon theme for gtk</dc:description>
        <dc:creator>
          <cc:Agent>
            <dc:title>Jakub Jankiewicz</dc:title>
          </cc:Agent>
        </dc:creator>
        <dc:rights>
          <cc:Agent>
            <dc:title>Jakub Jankiewicz</dc:title>
          </cc:Agent>
        </dc:rights>
        <dc:date>2010</dc:date>
        <dc:format>image/svg+xml</dc:format>
        <dc:type
           rdf:resource="http://purl.org/dc/dcmitype/StillImage" />
        <cc:license
           rdf:resource="http://www.gnu.org/copyleft/gpl.html" />
      </cc:Work>
    </rdf:RDF>
  </metadata>
  <defs
     id="defs10">
    <linearGradient
       x1="0"
       y1="128"
       x2="128"
       y2="0"
       id="gradient"
       gradientUnits="userSpaceOnUse">
      <stop
         id="start"
         style="stop-color:#dbdbdb;stop-opacity:1"
         offset="0" />
      <stop
         id="stop"
         style="stop-color:#757575;stop-opacity:1"
         offset="1" />
    </linearGradient>
    <linearGradient
       x1="56"
       y1="80"
       x2="56"
       y2="16"
       id="linearGradient3842"
       xlink:href="#linearGradient5105-8"
       gradientUnits="userSpaceOnUse"
       gradientTransform="translate(23.59322,18.254236)" />
    <linearGradient
       id="linearGradient5105-8">
      <stop
         id="stop5107-4"
         style="stop-color:#f5f5f5;stop-opacity:1"
         offset="0" />
      <stop
         id="stop5109-4"
         style="stop-color:#ebebeb;stop-opacity:1"
         offset="1" />
    </linearGradient>
  </defs>
  <g
     id="g845">
    <path
       style="fill:#c6262e;fill-opacity:1;stroke-width:11.10955811"
       inkscape:connector-curvature="0"
       d="M 432.91326,56.473985 C 535.10617,145.04857 538.74004,306.1737 441.03006,416.37277 343.32009,526.57182 181.27966,544.10063 79.086741,455.52602 -23.106205,366.95145 -26.740032,205.82632 70.969941,95.627248 168.67991,-14.57184 330.72036,-32.100602 432.91326,56.473985 Z"
       id="path961" />
    <path
       style="opacity:1;fill:#000000;fill-opacity:0.49019608;stroke-width:11.10955811"
       inkscape:connector-curvature="0"
       d="M 511.63551,224.90354 C 510.08411,286.21517 486.47427,349.05814 440.66912,400.718 342.95916,510.91713 180.91871,528.44583 78.725758,439.8713 30.827125,398.35565 4.4968183,340.92285 0.19382643,280.22882 0.79908043,346.5855 27.117406,410.4822 79.07869,455.51912 c 102.19292,88.5745 264.24107,71.03711 361.94332,-39.15333 49.70495,-56.05812 73.00502,-125.29098 70.6135,-191.46225 z"
       id="path965" />
    <path
       style="fill:#000000;fill-opacity:0.49019608;stroke-width:2.86283207"
       id="path839"
       inkscape:connector-curvature="0"
       d="m 147,120.21328 v 101.99349 c 0,84.80796 2.97912,105.11148 6.29597,119.0034 12.46958,52.22642 46.01592,82.16368 100.07626,89.38964 29.26391,3.91158 88.36801,-0.63901 134.85041,-10.32761 l 16.98441,-3.48905 V 120.21328 l -86.06902,-0.21329 v 236.6898 H 233.06902 V 189.93106 h -32.27588 l 43.03451,-69.93107 z" />
    <path
       d="m 127,100.21328 v 101.99349 c 0,84.80796 2.97912,105.11148 6.29597,119.0034 12.46958,52.22642 46.01592,82.16368 100.07626,89.38964 29.26391,3.91158 88.36801,-0.63901 134.85041,-10.32761 l 16.98441,-3.48905 V 100.21328 L 299.13803,99.999996 V 336.68979 H 213.06902 V 169.93106 h -32.27588 l 43.03451,-69.931064 z"
       inkscape:connector-curvature="0"
       id="path3865"
       style="fill:#ffffff;fill-opacity:1;stroke-width:2.86283207" />
  </g>
</svg>
