<?xml version="1.0" encoding="UTF-8" standalone="no"?>
<!-- Created with Inkscape (http://www.inkscape.org/) -->

<svg
   xmlns:dc="http://purl.org/dc/elements/1.1/"
   xmlns:cc="http://creativecommons.org/ns#"
   xmlns:rdf="http://www.w3.org/1999/02/22-rdf-syntax-ns#"
   xmlns:svg="http://www.w3.org/2000/svg"
   xmlns="http://www.w3.org/2000/svg"
   xmlns:sodipodi="http://sodipodi.sourceforge.net/DTD/sodipodi-0.dtd"
   xmlns:inkscape="http://www.inkscape.org/namespaces/inkscape"
   id="svg2"
   version="1.1"
   inkscape:version="0.92.3 (2405546, 2018-03-11)"
   width="512"
   height="512"
   sodipodi:docname="ubuntu-tweak-0.svg"
   viewBox="0 0 512 512">
  <metadata
     id="metadata8">
    <rdf:RDF>
      <cc:Work
         rdf:about="">
        <dc:format>image/svg+xml</dc:format>
        <dc:type
           rdf:resource="http://purl.org/dc/dcmitype/StillImage" />
        <dc:title></dc:title>
      </cc:Work>
    </rdf:RDF>
  </metadata>
  <defs
     id="defs6" />
  <sodipodi:namedview
     pagecolor="#ffffff"
     bordercolor="#666666"
     borderopacity="1"
     objecttolerance="10"
     gridtolerance="10"
     guidetolerance="10"
     inkscape:pageopacity="0"
     inkscape:pageshadow="2"
     inkscape:window-width="872"
     inkscape:window-height="570"
     id="namedview4"
     showgrid="false"
     inkscape:zoom="0.20344827"
     inkscape:cx="664.62105"
     inkscape:cy="470.98037"
     inkscape:window-x="4"
     inkscape:window-y="86"
     inkscape:window-maximized="0"
     inkscape:current-layer="svg2"
     showguides="true"
     inkscape:guide-bbox="true"
     inkscape:document-units="px" />
  <g
     id="g890">
    <path
       style="fill:#333333;fill-opacity:1;stroke-width:11.10955811"
       inkscape:connector-curvature="0"
       d="M 432.91327,56.473967 C 535.10618,145.04856 538.74005,306.17367 441.03007,416.37276 343.3201,526.57184 181.27964,544.10061 79.086729,455.52602 -23.106186,366.95143 -26.740042,205.82631 70.969928,95.627227 168.6799,-14.571854 330.72036,-32.100623 432.91327,56.473967 Z"
       id="path27" />
    <path
       style="opacity:1;fill:#000000;fill-opacity:0.49019608;stroke-width:11.10955811"
       inkscape:connector-curvature="0"
       d="M 511.63551,224.90351 C 510.08412,286.21516 486.47428,349.05812 440.66913,400.71799 342.95915,510.91711 180.91869,528.44584 78.725776,439.87129 30.827124,398.35563 4.4968216,340.92284 0.19382768,280.2288 0.79907934,346.58548 27.117411,410.48217 79.078682,455.51906 181.27159,544.09361 343.31975,526.55619 441.02202,416.36576 490.72697,360.30766 514.02704,291.0748 511.63551,224.90351 Z"
       id="path51" />
    <path
       inkscape:connector-curvature="0"
       style="fill:#000000;fill-opacity:0.49019608;stroke-width:0.67177886"
       d="m 275.48675,120.26037 c -14.85598,0.003 -18.63935,0.83664 -22.83008,5.02734 -3.12222,3.12223 -3.71016,5.09077 -4.70898,15.79492 -1.28213,13.74051 -0.17916,12.16346 -11.08789,15.85742 -5.1727,1.75158 -13.12806,5.06228 -17.67969,7.35547 -9.58148,4.82733 -8.56931,4.93468 -16.24414,-1.73437 -8.42209,-7.31834 -11.57905,-9.23166 -15.80469,-9.58203 -6.09486,-0.50543 -10.88046,2.31015 -20.76758,12.2246 -9.55469,9.5811 -12.60116,14.23155 -13.00781,19.85352 -0.38078,5.26401 1.53492,8.60205 11.76953,20.50586 1.58289,1.84105 2.86957,3.95588 2.85938,4.70117 -0.01,0.74536 -1.96399,5.26578 -4.34376,10.04492 -2.37976,4.77917 -5.58656,12.56809 -7.12695,17.3086 -2.29671,7.06805 -3.05609,8.67065 -4.2207,8.90234 -0.7811,0.15533 -5.92363,0.75758 -11.42774,1.33789 -11.17349,1.17812 -14.30946,2.34729 -17,6.3418 -2.09846,3.11542 -2.81552,5.96122 -3.56054,14.1289 -0.82384,9.03213 0.0784,20.58852 2.01172,25.75586 1.61451,4.3152 4.66051,7.28601 8.60742,8.39844 1.36477,0.38464 5.95803,1.04803 10.20703,1.47266 9.86008,0.98547 12.17547,1.47625 12.8125,2.7207 0.28371,0.55419 1.66756,4.63457 3.07617,9.06641 1.40864,4.43184 4.45637,11.83858 6.77149,16.45898 2.31509,4.62039 4.2103,8.86732 4.21093,9.4375 6.1e-4,0.57022 -1.53005,2.83625 -3.40039,5.03711 -10.10007,11.88525 -12.53519,16.27101 -11.71875,21.10352 1.26801,7.50523 15.49665,23.43207 25.98438,29.08398 4.05598,2.18577 9.44519,2.49576 12.84375,0.73828 2.18337,-1.12906 9.17535,-6.48341 14.50976,-11.11133 1.62229,-1.40742 3.43667,-2.55923 4.03125,-2.55859 0.59456,6e-4 4.93642,1.93392 9.64844,4.29492 4.71204,2.36103 12.11685,5.41353 16.45703,6.78516 4.3402,1.37159 8.34615,2.71936 8.90039,2.99414 1.27918,0.63435 1.76286,3.04829 2.69922,13.46875 1.01113,11.25282 2.69965,14.95356 8.04883,17.64258 2.29704,1.15469 5.60007,2.09326 8.73242,2.48047 6.81988,0.84299 21.58781,0.28755 26.53516,-0.99805 9.29894,-2.41626 11.26303,-5.50431 12.82617,-20.17773 0.58778,-5.51759 1.42485,-10.59173 1.86133,-11.2754 0.48827,-0.76475 3.88966,-2.25123 8.83984,-3.86328 4.42539,-1.44113 12.01153,-4.58505 16.85742,-6.98632 4.8459,-2.40128 9.26012,-4.36524 9.8086,-4.36524 1.102,0 3.58321,1.7842 11.61132,8.34961 6.64781,5.43663 8.67207,6.42969 13.10743,6.42969 5.79024,0 10.33351,-2.89875 20.5,-13.07422 6.32329,-6.32894 9.28104,-9.83009 10.6582,-12.61719 2.2475,-4.54866 2.50981,-9.18364 0.7168,-12.65234 -1.22671,-2.37312 -11.18168,-14.98079 -12.44532,-15.76172 -0.39126,-0.24185 -0.9816,-1.15121 -1.3125,-2.02149 -0.48904,-1.28629 0.26234,-3.37983 4.01368,-11.1875 2.53811,-5.28257 5.74281,-13.15904 7.12304,-17.50195 2.9479,-9.27564 1.68716,-8.50457 16.59571,-10.14258 11.28329,-1.23964 14.02605,-2.46506 16.74414,-7.48828 2.42751,-4.48615 3.232,-9.72071 3.2207,-20.88086 -0.019,-15.2225 -2.24802,-22.1763 -8.05859,-25.14062 -1.9375,-0.98846 -5.76576,-1.70954 -13.62305,-2.56836 -6.01032,-0.65692 -11.26871,-1.40629 -11.68555,-1.66406 -0.41685,-0.25765 -1.91322,-4.0187 -3.32422,-8.35938 -1.41105,-4.34063 -4.62652,-12.0697 -7.14648,-17.17383 -3.21984,-6.52181 -4.45048,-9.69528 -4.13867,-10.67773 0.24403,-0.76887 1.55971,-2.6378 2.92187,-4.1543 4.14393,-4.61348 9.5875,-11.78828 10.9043,-14.37109 1.78081,-3.493 1.56697,-7.19047 -0.68555,-11.89844 -3.67214,-7.67516 -16.82691,-21.02101 -24.47851,-24.83398 -4.02151,-2.00398 -8.87201,-2.24631 -12.08399,-0.60157 -1.18246,0.60548 -4.97364,3.40265 -8.42578,6.21485 -3.45213,2.81219 -7.31653,5.84077 -8.58789,6.73047 l -2.3125,1.61718 -9.88672,-4.75781 c -8.82582,-4.24755 -21.05696,-8.89062 -23.42187,-8.89062 -1.84736,0 -2.79474,-3.27594 -3.83203,-13.25196 -1.21308,-11.66653 -2.26897,-14.52171 -6.50977,-17.59375 -4.24243,-3.07317 -8.24187,-3.75104 -22.13867,-3.74804 z m 42.79101,56.25781 c 11.61514,0 20.9961,9.41034 20.9961,21.01367 0,11.60252 -9.38096,21.00977 -20.9961,21.00977 -11.6021,0 -21.00976,-9.40725 -21.00976,-21.00977 -4.1e-4,-11.60333 9.40766,-21.01367 21.00976,-21.01367 z m -44.26562,17.07422 c 5.17943,0 10.24925,0.48242 15.15625,1.42187 -0.0635,0.83155 -0.10156,1.66079 -0.10156,2.51758 0,16.13121 13.06995,29.20313 29.21093,29.20313 6.28382,0 12.10232,-1.99208 16.85743,-5.35938 11.10733,12.71341 18.32447,28.89961 19.76562,46.71875 l -32.63672,0.99609 c -2.80574,-24.16444 -23.33945,-42.92773 -48.25195,-42.92773 -7.12187,0 -13.88853,1.547 -19.98828,4.29492 l -16.12891,-28.4043 c 10.87319,-5.40747 23.14356,-8.46093 36.11719,-8.46093 z m -47.28711,15.18554 17.32031,27.72461 c -11.31705,8.89613 -18.60351,22.71432 -18.60351,38.23633 0,15.28134 7.06386,28.9157 18.10156,37.8086 l -16.10938,28.65039 c -14.08411,-9.88527 -24.88123,-24.12857 -30.42187,-40.76758 7.59058,-5.27798 12.53711,-14.04625 12.53711,-23.99219 0,-10.31163 -5.35053,-19.38371 -13.41797,-24.57617 5.15337,-17.56585 16.07717,-32.65793 30.59375,-43.08399 z m -46.38086,46.65625 c 11.59641,0 21.01758,9.41035 21.01758,21.00391 0,11.59926 -9.42117,21.00977 -21.01758,21.00977 -11.60211,0 -21.01367,-9.4101 -21.01367,-21.00977 0,-11.59356 9.41156,-21.00391 21.01367,-21.00391 z m 141.99414,24.3125 32.63867,0.63282 c -1.34586,19.39711 -9.48329,36.90797 -22.07617,50.17968 -4.04329,-2.12283 -8.64379,-3.31836 -13.53125,-3.31836 -15.39862,0 -28.01068,11.91331 -29.12891,27.00977 -5.24214,1.06977 -10.68331,1.63281 -16.23046,1.63281 -12.85391,0 -24.99478,-2.99054 -35.81055,-8.3125 l 16.22461,-28.38476 c 5.99143,2.64652 12.63094,4.10937 19.58789,4.10937 25.13485,0 45.81322,-19.07042 48.32617,-43.54883 z m -2.96875,55.69141 c 11.60292,0 21.00195,9.40399 21.00195,21.00977 0,11.59681 -9.39903,21.00195 -21.00195,21.00195 -11.60292,0 -21.00976,-9.40514 -21.00976,-21.00195 0,-11.60578 9.40684,-21.00977 21.00976,-21.00977 z"
       id="path69" />
    <path
       id="path844"
       d="m 255.48633,100.25977 c -14.85598,0.003 -18.63935,0.83664 -22.83008,5.02734 -3.12222,3.12223 -3.71016,5.09077 -4.70898,15.79492 -1.28213,13.74051 -0.17916,12.16346 -11.08789,15.85742 -5.1727,1.75158 -13.12806,5.06228 -17.67969,7.35547 -9.58148,4.82733 -8.56931,4.93468 -16.24414,-1.73437 -8.42209,-7.31834 -11.57905,-9.23166 -15.80469,-9.58203 -6.09486,-0.50543 -10.88046,2.31015 -20.76758,12.2246 -9.55469,9.5811 -12.60116,14.23155 -13.00781,19.85352 -0.38078,5.26401 1.53492,8.60205 11.76953,20.50586 1.58289,1.84105 2.86957,3.95588 2.85938,4.70117 -0.01,0.74536 -1.96399,5.26578 -4.34376,10.04492 -2.37976,4.77917 -5.58656,12.56809 -7.12695,17.3086 -2.29671,7.06805 -3.05609,8.67065 -4.2207,8.90234 -0.7811,0.15533 -5.92363,0.75758 -11.42774,1.33789 -11.17349,1.17812 -14.30946,2.34729 -17,6.3418 -2.09846,3.11542 -2.81552,5.96122 -3.56054,14.1289 -0.823845,9.03213 0.0784,20.58852 2.01172,25.75586 1.61451,4.3152 4.66051,7.28601 8.60742,8.39844 1.36477,0.38464 5.95803,1.04803 10.20703,1.47266 9.86008,0.98547 12.17547,1.47625 12.8125,2.7207 0.28371,0.55419 1.66756,4.63457 3.07617,9.06641 1.40864,4.43184 4.45637,11.83858 6.77149,16.45898 2.31509,4.62039 4.2103,8.86732 4.21093,9.4375 6.1e-4,0.57022 -1.53005,2.83625 -3.40039,5.03711 -10.10007,11.88525 -12.53519,16.27101 -11.71875,21.10352 1.26801,7.50523 15.49665,23.43207 25.98438,29.08398 4.05598,2.18577 9.44519,2.49576 12.84375,0.73828 2.18337,-1.12906 9.17535,-6.48341 14.50976,-11.11133 1.62229,-1.40742 3.43667,-2.55923 4.03125,-2.55859 0.59456,6e-4 4.93642,1.93392 9.64844,4.29492 4.71204,2.36103 12.11685,5.41353 16.45703,6.78516 4.3402,1.37159 8.34615,2.71936 8.90039,2.99414 1.27918,0.63435 1.76286,3.04829 2.69922,13.46875 1.01113,11.25282 2.69965,14.95356 8.04883,17.64258 2.29704,1.15469 5.60007,2.09326 8.73242,2.48047 6.81988,0.84299 21.58781,0.28755 26.53516,-0.99805 9.29894,-2.41626 11.26303,-5.50431 12.82617,-20.17773 0.58778,-5.51759 1.42485,-10.59173 1.86133,-11.2754 0.48827,-0.76475 3.88966,-2.25123 8.83984,-3.86328 4.42539,-1.44113 12.01153,-4.58505 16.85742,-6.98632 4.8459,-2.40128 9.26012,-4.36524 9.8086,-4.36524 1.102,0 3.58321,1.7842 11.61132,8.34961 6.64781,5.43663 8.67207,6.42969 13.10743,6.42969 5.79024,0 10.33351,-2.89875 20.5,-13.07422 6.32329,-6.32894 9.28104,-9.83009 10.6582,-12.61719 2.2475,-4.54866 2.50981,-9.18364 0.7168,-12.65234 -1.22671,-2.37312 -11.18168,-14.98079 -12.44532,-15.76172 -0.39126,-0.24185 -0.9816,-1.15121 -1.3125,-2.02149 -0.48904,-1.28629 0.26234,-3.37983 4.01368,-11.1875 2.53811,-5.28257 5.74281,-13.15904 7.12304,-17.50195 2.9479,-9.27564 1.68716,-8.50457 16.59571,-10.14258 11.28329,-1.23964 14.02605,-2.46506 16.74414,-7.48828 2.42751,-4.48615 3.232,-9.72071 3.2207,-20.88086 -0.019,-15.2225 -2.24802,-22.1763 -8.05859,-25.14062 -1.9375,-0.98846 -5.76576,-1.70954 -13.62305,-2.56836 -6.01032,-0.65692 -11.26871,-1.40629 -11.68555,-1.66406 -0.41685,-0.25765 -1.91322,-4.0187 -3.32422,-8.35938 -1.41105,-4.34063 -4.62652,-12.0697 -7.14648,-17.17383 -3.21984,-6.52181 -4.45048,-9.69528 -4.13867,-10.67773 0.24403,-0.76887 1.55971,-2.6378 2.92187,-4.1543 4.14393,-4.61348 9.5875,-11.78828 10.9043,-14.37109 1.78081,-3.493 1.56697,-7.19047 -0.68555,-11.89844 -3.67214,-7.67516 -16.82691,-21.02101 -24.47851,-24.83398 -4.02151,-2.00398 -8.87201,-2.24631 -12.08399,-0.60157 -1.18246,0.60548 -4.97364,3.40265 -8.42578,6.21485 -3.45213,2.81219 -7.31653,5.84077 -8.58789,6.73047 l -2.3125,1.61718 -9.88672,-4.75781 c -8.82582,-4.24755 -21.05696,-8.89062 -23.42187,-8.89062 -1.84736,0 -2.79474,-3.27594 -3.83203,-13.25196 -1.21308,-11.66653 -2.26897,-14.52171 -6.50977,-17.59375 -4.24243,-3.07317 -8.24187,-3.75104 -22.13867,-3.74804 z m 42.79101,56.25781 c 11.61514,0 20.9961,9.41034 20.9961,21.01367 0,11.60252 -9.38096,21.00977 -20.9961,21.00977 -11.6021,0 -21.00976,-9.40725 -21.00976,-21.00977 -4.1e-4,-11.60333 9.40766,-21.01367 21.00976,-21.01367 z m -44.26562,17.07422 c 5.17943,0 10.24925,0.48242 15.15625,1.42187 -0.0635,0.83155 -0.10156,1.66079 -0.10156,2.51758 0,16.13121 13.06995,29.20313 29.21093,29.20313 6.28382,0 12.10232,-1.99208 16.85743,-5.35938 11.10733,12.71341 18.32447,28.89961 19.76562,46.71875 l -32.63672,0.99609 c -2.80574,-24.16444 -23.33945,-42.92773 -48.25195,-42.92773 -7.12187,0 -13.88853,1.547 -19.98828,4.29492 l -16.12891,-28.4043 c 10.87319,-5.40747 23.14356,-8.46093 36.11719,-8.46093 z m -47.28711,15.18554 17.32031,27.72461 c -11.31705,8.89613 -18.60351,22.71432 -18.60351,38.23633 0,15.28134 7.06386,28.9157 18.10156,37.8086 l -16.10938,28.65039 c -14.08411,-9.88527 -24.88123,-24.12857 -30.42187,-40.76758 7.59058,-5.27798 12.53711,-14.04625 12.53711,-23.99219 0,-10.31163 -5.35053,-19.38371 -13.41797,-24.57617 5.15337,-17.56585 16.07717,-32.65793 30.59375,-43.08399 z m -46.38086,46.65625 c 11.59641,0 21.01758,9.41035 21.01758,21.00391 0,11.59926 -9.42117,21.00977 -21.01758,21.00977 -11.60211,0 -21.01367,-9.4101 -21.01367,-21.00977 0,-11.59356 9.41156,-21.00391 21.01367,-21.00391 z m 141.99414,24.3125 32.63867,0.63282 c -1.34586,19.39711 -9.48329,36.90797 -22.07617,50.17968 -4.04329,-2.12283 -8.64379,-3.31836 -13.53125,-3.31836 -15.39862,0 -28.01068,11.91331 -29.12891,27.00977 -5.24214,1.06977 -10.68331,1.63281 -16.23046,1.63281 -12.85391,0 -24.99478,-2.99054 -35.81055,-8.3125 l 16.22461,-28.38476 c 5.99143,2.64652 12.63094,4.10937 19.58789,4.10937 25.13485,0 45.81322,-19.07042 48.32617,-43.54883 z m -2.96875,55.69141 c 11.60292,0 21.00195,9.40399 21.00195,21.00977 0,11.59681 -9.39903,21.00195 -21.00195,21.00195 -11.60292,0 -21.00976,-9.40514 -21.00976,-21.00195 0,-11.60578 9.40684,-21.00977 21.00976,-21.00977 z"
       style="fill:#ffffff;stroke-width:0.67177886"
       inkscape:connector-curvature="0" />
  </g>
</svg>
