<?xml version="1.0" encoding="UTF-8" standalone="no"?>
<!-- Created with Inkscape (http://www.inkscape.org/) -->

<svg
   xmlns:dc="http://purl.org/dc/elements/1.1/"
   xmlns:cc="http://creativecommons.org/ns#"
   xmlns:rdf="http://www.w3.org/1999/02/22-rdf-syntax-ns#"
   xmlns:svg="http://www.w3.org/2000/svg"
   xmlns="http://www.w3.org/2000/svg"
   xmlns:sodipodi="http://sodipodi.sourceforge.net/DTD/sodipodi-0.dtd"
   xmlns:inkscape="http://www.inkscape.org/namespaces/inkscape"
   width="512"
   height="512"
   id="svg2"
   version="1.1"
   inkscape:version="0.92.3 (2405546, 2018-03-11)"
   sodipodi:docname="unity-webapps-hotmail.svg">
  <defs
     id="defs4" />
  <sodipodi:namedview
     id="base"
     pagecolor="#ffffff"
     bordercolor="#666666"
     borderopacity="1.0"
     inkscape:pageopacity="0.0"
     inkscape:pageshadow="2"
     inkscape:zoom="0.32"
     inkscape:cx="-26.733313"
     inkscape:cy="542.8027"
     inkscape:document-units="px"
     inkscape:current-layer="layer1"
     showgrid="false"
     inkscape:window-width="901"
     inkscape:window-height="602"
     inkscape:window-x="2"
     inkscape:window-y="57"
     inkscape:window-maximized="0" />
  <metadata
     id="metadata7">
    <rdf:RDF>
      <cc:Work
         rdf:about="">
        <dc:format>image/svg+xml</dc:format>
        <dc:type
           rdf:resource="http://purl.org/dc/dcmitype/StillImage" />
        <dc:title></dc:title>
      </cc:Work>
    </rdf:RDF>
  </metadata>
  <g
     inkscape:label="Layer 1"
     inkscape:groupmode="layer"
     id="layer1"
     transform="translate(0,-540.36218)">
    <g
       transform="translate(-7.3296803e-8,1.14663e-6)"
       id="g890">
      <path
         id="path943"
         d="m 432.91326,596.83616 c 102.19291,88.57459 105.82678,249.69971 8.1168,359.89879 C 343.32009,1066.934 181.27965,1084.4628 79.086741,995.8882 -23.106205,907.31362 -26.740032,746.1885 70.969941,635.98942 168.67991,525.79034 330.72036,508.26157 432.91326,596.83616 Z"
         inkscape:connector-curvature="0"
         style="fill:#3689e6;fill-opacity:1;stroke-width:11.10955811" />
      <path
         id="path947"
         d="m 511.6355,765.26571 c -1.55139,61.31164 -25.16123,124.1546 -70.96638,175.81447 C 342.95915,1051.2793 180.9187,1068.808 78.725758,980.23348 30.827125,938.71783 4.4968187,881.28503 0.19382679,820.591 0.79907979,886.94767 27.117405,950.84437 79.07869,995.8813 c 102.19291,88.5745 264.24106,71.0371 361.94332,-39.15334 49.70495,-56.05811 73.00502,-125.29097 70.61349,-191.46225 z"
         inkscape:connector-curvature="0"
         style="opacity:1;fill:#000000;fill-opacity:0.49019608;stroke-width:11.10955811" />
      <g
         aria-label="O"
         transform="matrix(10.13604,0,0,10.13604,-1622.5628,-299.99799)"
         style="font-style:normal;font-weight:normal;font-size:40px;line-height:1.25;font-family:sans-serif;letter-spacing:0px;word-spacing:0px;fill:#000000;fill-opacity:0.49019608;stroke:none"
         id="g882">
        <path
           d="m 187.0918,125.52833 q -5.50782,0 -9.33594,-3.30078 -4.0625,-3.51563 -4.0625,-9.0625 0,-6.75782 4.00391,-12.28516 4.47265,-6.132813 11.15234,-6.132813 6.42578,0 9.55078,2.890625 3.26172,3.007808 3.26172,9.492188 0,6.75781 -3.67188,12.1875 -4.21875,6.21094 -10.89843,6.21094 z m 1.75781,-26.777347 q -4.78516,0 -8.10547,4.765627 -3.06641,4.375 -3.06641,9.64844 0,3.76953 2.79297,6.13281 2.67578,2.22656 6.6211,2.22656 4.74609,0 7.83203,-4.78516 2.7539,-4.27734 2.7539,-9.60937 0,-4.66797 -2.08984,-6.5625 -1.99219,-1.816407 -6.73828,-1.816407 z"
           style="font-style:normal;font-variant:normal;font-weight:normal;font-stretch:normal;font-family:'Comic Sans MS';-inkscape-font-specification:'Comic Sans MS';fill:#000000;fill-opacity:0.49019608"
           id="path880"
           inkscape:connector-curvature="0" />
      </g>
      <g
         id="flowRoot869"
         style="font-style:normal;font-weight:normal;font-size:40px;line-height:1.25;font-family:sans-serif;letter-spacing:0px;word-spacing:0px;fill:#ffffff;fill-opacity:1;stroke:none"
         transform="matrix(10.13604,0,0,10.13604,-1642.5628,-319.99799)"
         aria-label="O">
        <path
           inkscape:connector-curvature="0"
           id="path877"
           style="font-style:normal;font-variant:normal;font-weight:normal;font-stretch:normal;font-family:'Comic Sans MS';-inkscape-font-specification:'Comic Sans MS';fill:#ffffff"
           d="m 187.0918,125.52833 q -5.50782,0 -9.33594,-3.30078 -4.0625,-3.51563 -4.0625,-9.0625 0,-6.75782 4.00391,-12.28516 4.47265,-6.132813 11.15234,-6.132813 6.42578,0 9.55078,2.890625 3.26172,3.007808 3.26172,9.492188 0,6.75781 -3.67188,12.1875 -4.21875,6.21094 -10.89843,6.21094 z m 1.75781,-26.777347 q -4.78516,0 -8.10547,4.765627 -3.06641,4.375 -3.06641,9.64844 0,3.76953 2.79297,6.13281 2.67578,2.22656 6.6211,2.22656 4.74609,0 7.83203,-4.78516 2.7539,-4.27734 2.7539,-9.60937 0,-4.66797 -2.08984,-6.5625 -1.99219,-1.816407 -6.73828,-1.816407 z" />
      </g>
    </g>
  </g>
</svg>
