<?xml version="1.0" encoding="UTF-8" standalone="no"?>
<!-- Created with Inkscape (http://www.inkscape.org/) -->

<svg
   xmlns:dc="http://purl.org/dc/elements/1.1/"
   xmlns:cc="http://creativecommons.org/ns#"
   xmlns:rdf="http://www.w3.org/1999/02/22-rdf-syntax-ns#"
   xmlns:svg="http://www.w3.org/2000/svg"
   xmlns="http://www.w3.org/2000/svg"
   xmlns:sodipodi="http://sodipodi.sourceforge.net/DTD/sodipodi-0.dtd"
   xmlns:inkscape="http://www.inkscape.org/namespaces/inkscape"
   id="svg2"
   version="1.1"
   inkscape:version="0.92.3 (2405546, 2018-03-11)"
   width="512"
   height="512"
   sodipodi:docname="unity-scope-gdrive.svg">
  <metadata
     id="metadata8">
    <rdf:RDF>
      <cc:Work
         rdf:about="">
        <dc:format>image/svg+xml</dc:format>
        <dc:type
           rdf:resource="http://purl.org/dc/dcmitype/StillImage" />
        <dc:title></dc:title>
      </cc:Work>
    </rdf:RDF>
  </metadata>
  <defs
     id="defs6">
    <clipPath
       id="clipPath-376592645">
      <g
         transform="translate(0,-1004.3622)"
         id="g17">
        <path
           style="fill:#1890d0"
           inkscape:connector-curvature="0"
           d="m -24,13 c 0,1.105 -0.672,2 -1.5,2 -0.828,0 -1.5,-0.895 -1.5,-2 0,-1.105 0.672,-2 1.5,-2 0.828,0 1.5,0.895 1.5,2 z"
           transform="matrix(15.333333,0,0,11.5,414.99999,878.8622)"
           id="path19" />
      </g>
    </clipPath>
  </defs>
  <sodipodi:namedview
     pagecolor="#ffffff"
     bordercolor="#666666"
     borderopacity="1"
     objecttolerance="10"
     gridtolerance="10"
     guidetolerance="10"
     inkscape:pageopacity="0"
     inkscape:pageshadow="2"
     inkscape:window-width="914"
     inkscape:window-height="569"
     id="namedview4"
     showgrid="false"
     inkscape:zoom="0.23046875"
     inkscape:cx="-54.454552"
     inkscape:cy="337.89236"
     inkscape:window-x="2"
     inkscape:window-y="57"
     inkscape:window-maximized="0"
     inkscape:current-layer="svg2" />
  <g
     id="g882">
    <path
       id="path27"
       d="M 432.91327,56.473967 C 535.10618,145.04856 538.74005,306.17367 441.03007,416.37276 343.3201,526.57184 181.27964,544.10061 79.086729,455.52602 -23.106186,366.95143 -26.740042,205.82631 70.969928,95.627227 168.6799,-14.571854 330.72036,-32.100623 432.91327,56.473967 Z"
       inkscape:connector-curvature="0"
       style="fill:#333333;fill-opacity:1;stroke-width:11.10955811" />
    <path
       id="path51"
       d="M 511.63551,224.90351 C 510.08412,286.21516 486.47428,349.05812 440.66913,400.71799 342.95915,510.91711 180.91869,528.44584 78.725776,439.87129 30.827124,398.35563 4.4968216,340.92284 0.19382768,280.2288 0.79907934,346.58548 27.117411,410.48217 79.078682,455.51906 181.27159,544.09361 343.31975,526.55619 441.02202,416.36576 490.72697,360.30766 514.02704,291.0748 511.63551,224.90351 Z"
       inkscape:connector-curvature="0"
       style="opacity:1;fill:#000000;fill-opacity:0.49019608;stroke-width:11.10955811" />
    <g
       style="fill:#000000;fill-opacity:0.49019608"
       id="g868"
       transform="matrix(0.94616248,0,0,0.94616248,32.953052,35.846577)">
      <path
         sodipodi:nodetypes="ccccc"
         inkscape:connector-curvature="0"
         id="path862"
         d="M 207.14647,303.01323 H 412 L 357.50864,396.5 151.62642,396.32556 Z"
         style="fill:#000000;fill-opacity:0.49019608;fill-rule:evenodd;stroke:none;stroke-width:1.43202019px;stroke-linecap:butt;stroke-linejoin:miter;stroke-opacity:1" />
      <path
         sodipodi:nodetypes="ccccc"
         inkscape:connector-curvature="0"
         id="path864"
         d="m 92,288.54269 99.998,-175.29281 57.12759,93.68343 -105.20625,176.97216 z"
         style="fill:#000000;fill-opacity:0.49019608;fill-rule:evenodd;stroke:none;stroke-width:1.43202019px;stroke-linecap:butt;stroke-linejoin:miter;stroke-opacity:1" />
      <path
         sodipodi:nodetypes="ccccc"
         inkscape:connector-curvature="0"
         id="path866"
         d="M 318.55618,112.19932 421.75309,289.1608 313.54457,289.18357 209.98011,111.24564 Z"
         style="fill:#000000;fill-opacity:0.49019608;fill-rule:evenodd;stroke:none;stroke-width:1.43202019px;stroke-linecap:butt;stroke-linejoin:miter;stroke-opacity:1" />
    </g>
    <path
       sodipodi:nodetypes="ccccc"
       inkscape:connector-curvature="0"
       id="path3371"
       d="M 208.94727,302.54633 H 402.77199 L 351.21431,391 156.41628,390.83495 Z"
       style="fill:#3689e6;fill-opacity:1;fill-rule:evenodd;stroke:none;stroke-width:1.35492373px;stroke-linecap:butt;stroke-linejoin:miter;stroke-opacity:1" />
    <path
       sodipodi:nodetypes="ccccc"
       inkscape:connector-curvature="0"
       id="path3371-3-6"
       d="m 100,288.85484 94.61436,-165.85548 54.05198,88.63975 -99.54221,167.44442 z"
       style="fill:#68b723;fill-opacity:1;fill-rule:evenodd;stroke:none;stroke-width:1.35492373px;stroke-linecap:butt;stroke-linejoin:miter;stroke-opacity:1" />
    <path
       sodipodi:nodetypes="ccccc"
       inkscape:connector-curvature="0"
       id="path3371-3"
       d="M 314.35896,122.00536 412,289.43968 309.61716,289.46122 211.62835,121.10303 Z"
       style="fill:#f9c440;fill-opacity:1;fill-rule:evenodd;stroke:none;stroke-width:1.35492373px;stroke-linecap:butt;stroke-linejoin:miter;stroke-opacity:1" />
  </g>
</svg>
