<?xml version="1.0" encoding="UTF-8" standalone="no"?>
<!-- Created using Karbon, part of Calligra: http://www.calligra.org/karbon -->

<svg
   xmlns:dc="http://purl.org/dc/elements/1.1/"
   xmlns:cc="http://creativecommons.org/ns#"
   xmlns:rdf="http://www.w3.org/1999/02/22-rdf-syntax-ns#"
   xmlns:svg="http://www.w3.org/2000/svg"
   xmlns="http://www.w3.org/2000/svg"
   xmlns:sodipodi="http://sodipodi.sourceforge.net/DTD/sodipodi-0.dtd"
   xmlns:inkscape="http://www.inkscape.org/namespaces/inkscape"
   width="512"
   height="512"
   id="svg2"
   version="1.1"
   inkscape:version="0.92.3 (2405546, 2018-03-11)"
   sodipodi:docname="usbprog-gui.svg"
   viewBox="0 0 512 512">
  <metadata
     id="metadata24">
    <rdf:RDF>
      <cc:Work
         rdf:about="">
        <dc:format>image/svg+xml</dc:format>
        <dc:type
           rdf:resource="http://purl.org/dc/dcmitype/StillImage" />
        <dc:title></dc:title>
      </cc:Work>
    </rdf:RDF>
  </metadata>
  <sodipodi:namedview
     pagecolor="#ffffff"
     bordercolor="#666666"
     borderopacity="1"
     objecttolerance="10"
     gridtolerance="10"
     guidetolerance="10"
     inkscape:pageopacity="0"
     inkscape:pageshadow="2"
     inkscape:window-width="679"
     inkscape:window-height="709"
     id="namedview22"
     showgrid="false"
     inkscape:zoom="0.2608702"
     inkscape:cx="220.32898"
     inkscape:cy="430.49323"
     inkscape:window-x="0"
     inkscape:window-y="28"
     inkscape:window-maximized="0"
     inkscape:current-layer="svg2"
     inkscape:document-units="px" />
  <defs
     id="defs4" />
  <g
     transform="translate(3.143189e-7,-3.0492695e-6)"
     id="g923">
    <path
       style="fill:#3689e6;fill-opacity:1;stroke-width:11.10955811"
       inkscape:connector-curvature="0"
       d="M 432.91327,56.473966 C 535.10619,145.04856 538.74007,306.17369 441.03007,416.37277 343.3201,526.57182 181.27964,544.10063 79.08673,455.52602 -23.10619,366.95143 -26.74004,205.82632 70.96993,95.627229 168.6799,-14.571855 330.72036,-32.10063 432.91327,56.473966 Z"
       id="path27" />
    <path
       style="opacity:1;fill:#000000;fill-opacity:0.49019608;stroke-width:11.10955811"
       inkscape:connector-curvature="0"
       d="m 511.6355,224.90352 c -1.5514,61.31164 -25.16122,124.1546 -70.96637,175.81446 C 342.95915,510.91713 180.91869,528.44583 78.72577,439.87126 30.82712,398.35561 4.4968206,340.92282 0.19383062,280.22881 0.79908062,346.58546 27.11741,410.48216 79.07868,455.51904 c 102.19291,88.57457 264.24107,71.03719 361.94334,-39.15328 49.70496,-56.05811 73.005,-125.29095 70.61348,-191.46224 z"
       id="path51" />
    <g
       style="fill:#000000;fill-opacity:0.49019608"
       transform="translate(20,20)"
       id="g104">
      <path
         sodipodi:nodetypes="ccccccccccccccc"
         inkscape:connector-curvature="0"
         id="path96"
         d="M 148.40291,99.999989 V 235.4873 H 364.23209 V 99.999989 Z m 33.20583,40.426971 h 58.10874 v 58.10874 h -58.10874 z m 91.31455,0 h 58.10299 v 58.10874 h -58.10299 z"
         style="fill:#000000;fill-opacity:0.49019608;stroke:none;stroke-width:2.94600201" />
      <rect
         style="fill:#000000;fill-opacity:0.49019608;stroke:none;stroke-width:2.59987068"
         id="rect98"
         width="24.903334"
         height="45.255501"
         x="198.21007"
         y="146.855" />
      <rect
         y="146.855"
         x="289.52261"
         height="45.255501"
         width="24.903334"
         id="rect100"
         style="fill:#000000;fill-opacity:0.49019608;stroke:none;stroke-width:2.59987068" />
      <path
         inkscape:connector-curvature="0"
         id="path102"
         d="m 150.64453,241.37891 c -15.03838,0 -27.14453,12.10615 -27.14453,27.14453 V 384.85547 C 123.5,399.89385 135.60615,412 150.64453,412 h 211.3457 c 15.03838,0 27.14454,-12.10615 27.14454,-27.14453 V 268.52344 c 0,-15.03838 -12.10616,-27.14453 -27.14454,-27.14453 z m 139.62109,22.86718 h 10.25196 10.2539 l 1.32032,0.69532 c 1.75578,0.92553 3.03204,2.24426 3.83984,3.96679 l 0.66406,1.41407 0.0684,21.19531 0.0684,21.19726 21.32422,0.0703 21.32422,0.0703 1.32031,0.69531 c 1.75578,0.92554 3.03205,2.24232 3.83985,3.96484 l 0.66406,1.41602 v 10 10 l -0.66211,1.39258 c -0.79627,1.67616 -2.18445,3.1042 -3.89649,4.01172 l -1.26562,0.67187 -21.32422,0.0703 -21.32422,0.0703 -0.0684,21.19531 -0.0684,21.19727 -0.66211,1.39257 c -0.79627,1.67617 -2.18444,3.1042 -3.89648,4.01172 l -1.26563,0.67188 -9.74609,0.043 c -5.36093,0.0255 -10.09009,-0.0426 -10.50781,-0.14844 -2.14619,-0.54413 -4.25246,-2.28024 -5.4043,-4.45313 l -0.67187,-1.26562 -0.0703,-21.32227 -0.0703,-21.32226 -21.32226,-0.0703 -21.32227,-0.0703 -1.26563,-0.67187 c -1.6118,-0.85438 -3.03229,-2.27296 -3.88671,-3.88477 l -0.67188,-1.26562 v -10.25391 -10.25391 l 0.69727,-1.32031 c 0.88418,-1.6773 2.12938,-2.92246 3.80664,-3.80664 l 1.32031,-0.69531 21.32227,-0.0703 21.32226,-0.0703 0.0703,-21.32422 0.0703,-21.32226 0.69726,-1.32031 c 0.88418,-1.67731 2.12743,-2.92247 3.80469,-3.80664 z"
         style="fill:#000000;fill-opacity:0.49019608;stroke:none;stroke-width:15.11811066;stroke-miterlimit:4;stroke-dasharray:none;stroke-opacity:1" />
    </g>
    <g
       id="g94">
      <path
         style="fill:#ffffff;fill-opacity:1;stroke:none;stroke-width:2.94600201"
         d="M 148.40291,99.999989 V 235.4873 H 364.23209 V 99.999989 Z m 33.20583,40.426971 h 58.10874 v 58.10874 h -58.10874 z m 91.31455,0 h 58.10299 v 58.10874 h -58.10299 z"
         id="rect4191"
         inkscape:connector-curvature="0"
         sodipodi:nodetypes="ccccccccccccccc" />
      <rect
         y="146.855"
         x="198.21007"
         height="45.255501"
         width="24.903334"
         id="rect4263"
         style="fill:#ffffff;fill-opacity:1;stroke:none;stroke-width:2.59987068" />
      <rect
         style="fill:#ffffff;fill-opacity:1;stroke:none;stroke-width:2.59987068"
         id="rect4327"
         width="24.903334"
         height="45.255501"
         x="289.52261"
         y="146.855" />
      <path
         inkscape:connector-curvature="0"
         style="fill:#ffffff;fill-opacity:1;stroke:none;stroke-width:15.11811066;stroke-miterlimit:4;stroke-dasharray:none;stroke-opacity:1"
         d="m 150.64453,241.37891 c -15.03838,0 -27.14453,12.10615 -27.14453,27.14453 V 384.85547 C 123.5,399.89385 135.60615,412 150.64453,412 h 211.3457 c 15.03838,0 27.14454,-12.10615 27.14454,-27.14453 V 268.52344 c 0,-15.03838 -12.10616,-27.14453 -27.14454,-27.14453 z m 139.62109,22.86718 h 10.25196 10.2539 l 1.32032,0.69532 c 1.75578,0.92553 3.03204,2.24426 3.83984,3.96679 l 0.66406,1.41407 0.0684,21.19531 0.0684,21.19726 21.32422,0.0703 21.32422,0.0703 1.32031,0.69531 c 1.75578,0.92554 3.03205,2.24232 3.83985,3.96484 l 0.66406,1.41602 v 10 10 l -0.66211,1.39258 c -0.79627,1.67616 -2.18445,3.1042 -3.89649,4.01172 l -1.26562,0.67187 -21.32422,0.0703 -21.32422,0.0703 -0.0684,21.19531 -0.0684,21.19727 -0.66211,1.39257 c -0.79627,1.67617 -2.18444,3.1042 -3.89648,4.01172 l -1.26563,0.67188 -9.74609,0.043 c -5.36093,0.0255 -10.09009,-0.0426 -10.50781,-0.14844 -2.14619,-0.54413 -4.25246,-2.28024 -5.4043,-4.45313 l -0.67187,-1.26562 -0.0703,-21.32227 -0.0703,-21.32226 -21.32226,-0.0703 -21.32227,-0.0703 -1.26563,-0.67187 c -1.6118,-0.85438 -3.03229,-2.27296 -3.88671,-3.88477 l -0.67188,-1.26562 v -10.25391 -10.25391 l 0.69727,-1.32031 c 0.88418,-1.6773 2.12938,-2.92246 3.80664,-3.80664 l 1.32031,-0.69531 21.32227,-0.0703 21.32226,-0.0703 0.0703,-21.32422 0.0703,-21.32226 0.69726,-1.32031 c 0.88418,-1.67731 2.12743,-2.92247 3.80469,-3.80664 z"
         id="rect966" />
    </g>
  </g>
</svg>
