<?xml version="1.0" encoding="UTF-8" standalone="no"?>
<!-- Created with Inkscape (http://www.inkscape.org/) -->

<svg
   xmlns:dc="http://purl.org/dc/elements/1.1/"
   xmlns:cc="http://creativecommons.org/ns#"
   xmlns:rdf="http://www.w3.org/1999/02/22-rdf-syntax-ns#"
   xmlns:svg="http://www.w3.org/2000/svg"
   xmlns="http://www.w3.org/2000/svg"
   xmlns:sodipodi="http://sodipodi.sourceforge.net/DTD/sodipodi-0.dtd"
   xmlns:inkscape="http://www.inkscape.org/namespaces/inkscape"
   width="512"
   height="512"
   viewBox="0 0 512.00001 512.00001"
   id="svg2"
   version="1.1"
   inkscape:version="0.92.2 5c3e80d, 2017-08-06"
   sodipodi:docname="valknut.svg"
   inkscape:export-filename="/home/trlinux/Masaüstü/youTube.png"
   inkscape:export-xdpi="90"
   inkscape:export-ydpi="90">
  <defs
     id="defs4">
    <clipPath
       clipPathUnits="userSpaceOnUse"
       id="clipPath14186-9">
      <path
         inkscape:original-d="m 137.57703,281.0191 c 6.32494,-1.3585 11.99755,4.87308 16.86679,9.13228 6.42572,5.62067 -8.54781,26.01622 13.24488,19.8293 5.86081,-1.66388 6.89528,11.31183 10.16415,16.45304 4.09971,6.44793 11.58575,13.6827 13.65231,21.03883 1.58383,5.63779 1.34339,10.90606 -1.62666,15.95302 -3.57124,6.06857 -11.7907,10.42929 -18.78877,11.20919 -5.73056,0.63864 -11.87822,-3.8351 -17.38362,-5.54906 -12.31617,-3.83432 -23.77946,-5.82074 -36.09666,-9.65174 -2.50091,-0.77785 -8.28361,-2.638 -10.96988,-3.42629 -4.51043,-1.3236 -6.46556,-0.99271 -8.72046,-4.76819 -2.68251,-4.49147 0.68051,-9.72669 3.16379,-14.79408 4.06995,-8.30524 1.91195,-17.82603 0.46203,-25.51057 -0.92235,-4.8884 -0.66071,-7.92707 2.7425,-10.79139 4.99476,-4.20385 14.53027,-1.53186 20.35272,-4.08305 5.82246,-2.55119 6.66365,-13.6939 12.93688,-15.04129 z"
         sodipodi:nodetypes="ssssssssssssssss"
         inkscape:connector-curvature="0"
         id="path14188-1"
         d="m 137.57703,281.0191 c 1.59929,-0.66295 3.3982,-0.78361 5.10074,-0.46963 1.70253,0.31398 3.31141,1.04948 4.74342,2.02239 2.86402,1.94583 4.98821,4.77774 7.02263,7.57952 4.67189,6.43406 9.16868,13.00227 13.24488,19.8293 3.30635,5.53766 6.34352,11.25685 10.16415,16.45304 2.49398,3.3919 5.3066,6.53947 7.813,9.92221 2.50639,3.38273 4.72794,7.05586 5.83931,11.11662 1.44411,5.27653 0.88463,11.09291 -1.62666,15.95302 -1.76663,3.41896 -4.47646,6.35228 -7.77242,8.33898 -3.29595,1.9867 -7.17064,3.01444 -11.01635,2.87021 -6.11413,-0.2293 -11.69944,-3.28515 -17.38362,-5.54906 -11.58097,-4.6125 -24.15978,-6.0594 -36.09666,-9.65174 -3.66859,-1.10404 -7.27582,-2.4107 -10.96988,-3.42629 -1.64125,-0.45122 -3.30866,-0.8482 -4.85875,-1.55144 -1.55008,-0.70325 -2.999548,-1.7491 -3.86171,-3.21675 -0.666391,-1.13439 -0.948386,-2.47002 -0.930187,-3.78554 0.0182,-1.31552 0.325889,-2.61453 0.773815,-3.85158 0.895851,-2.47409 2.343262,-4.71374 3.320162,-7.15696 1.59511,-3.98935 1.88169,-8.38839 1.66657,-12.67942 -0.21511,-4.29103 -0.91078,-8.54478 -1.20454,-12.83115 -0.13118,-1.91406 -0.18066,-3.85256 0.18479,-5.73598 0.36545,-1.88343 1.17577,-3.72459 2.55771,-5.05541 1.27406,-1.22693 2.96492,-1.95531 4.69643,-2.31651 1.73151,-0.3612 3.51533,-0.37747 5.28367,-0.33762 1.76833,0.0399 3.54067,0.13425 5.30351,-0.0106 1.76284,-0.14488 3.53347,-0.54055 5.06911,-1.41828 1.45996,-0.83447 2.65433,-2.0745 3.64374,-3.43424 0.9894,-1.35974 1.78909,-2.84573 2.60891,-4.31396 0.81983,-1.46823 1.66834,-2.93151 2.74157,-4.22611 1.07324,-1.2946 2.38923,-2.42304 3.94266,-3.06698"
         style="fill:#402c07;fill-opacity:1;stroke:none" />
    </clipPath>
    <inkscape:path-effect
       is_visible="true"
       id="path-effect4669-1"
       effect="spiro" />
    <inkscape:path-effect
       is_visible="true"
       id="path-effect4669-4-3"
       effect="spiro" />
    <inkscape:path-effect
       effect="spiro"
       id="path-effect14300-7"
       is_visible="true" />
    <clipPath
       clipPathUnits="userSpaceOnUse"
       id="clipPath14489-3">
      <path
         style="fill:url(#linearGradient14493);fill-opacity:1;stroke:none"
         d="m 516.00562,331.8756 c -0.6714,1.71905 -1.62682,3.32679 -2.81579,4.73826 -2.6238,3.11482 -6.268,5.17039 -9.89648,7.01985 -6.1886,3.15437 -12.60169,5.92177 -18.41964,9.71654 -3.89802,2.54249 -7.4959,5.52671 -10.86016,8.74238 -2.87719,2.75012 -5.60582,5.68745 -8.83247,8.01771 -3.25567,2.35122 -7.01915,4.05426 -10.99061,4.6502 -4.83026,0.72481 -9.82134,-0.21289 -14.29898,-2.16416 -3.13754,-1.36728 -6.15569,-3.3229 -7.96301,-6.22931 -1.81425,-2.91754 -2.22807,-6.48813 -2.23266,-9.92375 -0.008,-6.07666 1.11824,-12.09004 2.17848,-18.07349 0.88097,-4.97177 1.71949,-9.95483 2.26013,-14.97502 0.98337,-9.13118 0.9763,-18.35278 0.3199,-27.51327 -0.10993,-1.53416 -0.23754,-3.0832 -0.008,-4.60412 0.22922,-1.52092 0.85475,-3.0367 2.02069,-4.03986 1.07696,-0.9266 2.52093,-1.33598 3.93947,-1.4145 1.41854,-0.0785 2.83404,0.14655 4.23982,0.35197 3.31254,0.48405 6.65159,0.8649 9.88917,1.71656 2.04284,0.53738 4.03315,1.25925 6.0722,1.81081 3.40258,0.92039 6.96639,1.36144 10.46739,0.95192 3.76917,-0.44089 7.42987,-1.85678 11.22363,-1.76474 1.55658,0.0378 3.1015,0.33171 4.58649,0.79985 1.51539,0.47772 3.00914,1.16182 4.12281,2.29512 0.84639,0.8613 1.43579,1.94539 1.87872,3.06879 0.65982,1.67352 1.01492,3.457 1.16703,5.24945 0.13475,1.58788 0.11343,3.19441 0.41433,4.75933 0.49503,2.57458 1.84746,4.92305 3.52848,6.93494 1.68102,2.01189 3.68982,3.72048 5.69641,5.40783 1.99908,1.68103 4.0106,3.35469 6.16708,4.82839 1.0121,0.69165 2.05642,1.33949 3.01736,2.10062 0.96094,0.76113 1.84466,1.6468 2.44543,2.71535 0.81492,1.44944 1.06377,3.2077 0.68307,4.82635 l 2e-5,0"
         id="path14491-6"
         inkscape:connector-curvature="0"
         sodipodi:nodetypes="aaaaaaaaaaaaaaaaaaaaaaaacscaa"
         inkscape:original-d="m 516.00562,331.8756 c 0.90859,1.59687 -1.57016,3.38773 -2.81579,4.73826 -2.74207,2.97299 -6.45099,4.90178 -9.89648,7.01985 -5.91373,3.63539 -12.61918,5.90302 -18.41964,9.71654 -3.88318,2.553 -7.32809,5.72221 -10.86016,8.74238 -3.0221,2.58411 -5.48201,5.87643 -8.83247,8.01771 -3.3519,2.1422 -7.0437,4.15414 -10.99061,4.6502 -4.78298,0.60114 -9.87221,-0.25577 -14.29898,-2.16416 -3.0947,-1.33413 -6.16113,-3.38144 -7.96301,-6.22931 -1.81288,-2.86525 -2.06093,-6.5375 -2.23266,-9.92375 -0.30734,-6.06031 1.36252,-12.0605 2.17848,-18.07349 0.67882,-5.00236 1.85312,-9.94325 2.26013,-14.97502 0.73946,-9.14185 -0.7797,-18.40771 0.3199,-27.51327 0.35468,-2.93704 -0.181,-6.65876 2.01238,-8.64398 2.0384,-1.84494 5.43058,-1.1212 8.17929,-1.06253 3.34492,0.0714 6.63224,0.95108 9.88917,1.71656 2.05612,0.48325 3.99816,1.41138 6.0722,1.81081 3.44031,0.66255 6.96573,1.06623 10.46739,0.95192 3.78516,-0.12356 7.43659,-1.79636 11.22363,-1.76474 1.55185,0.013 3.12359,0.28186 4.58649,0.79985 1.48266,0.52499 2.98786,1.20618 4.12281,2.29512 0.86547,0.83038 1.42933,1.95676 1.87872,3.06879 0.67163,1.66196 0.8942,3.4778 1.16703,5.24945 0.24238,1.57389 -0.1531,3.27141 0.41433,4.75933 1.83023,4.79924 5.57666,8.72712 9.22489,12.34277 1.74278,1.93455 4.03041,3.53404 6.16708,4.82839 2.26886,1.37444 4.3675,2.44991 5.46279,4.81597 0.65901,1.48517 -0.54371,3.76097 0.68307,4.82635 z" />
    </clipPath>
    <inkscape:path-effect
       is_visible="true"
       id="path-effect29707-7-6"
       effect="spiro" />
    <inkscape:path-effect
       effect="spiro"
       id="path-effect14972-2-2"
       is_visible="true" />
    <inkscape:path-effect
       effect="spiro"
       id="path-effect15017-9"
       is_visible="true" />
    <clipPath
       clipPathUnits="userSpaceOnUse"
       id="clipPath15031-3">
      <path
         style="fill:none;stroke:#729fcf;stroke-width:0.125;stroke-linecap:butt;stroke-linejoin:miter;stroke-miterlimit:4;stroke-dasharray:none;stroke-opacity:1"
         d="m 248.06066,184.61218 c -2.60091,3.4397 -5.23338,6.85555 -7.89695,10.24696 -2.83301,3.60715 -5.70116,7.1866 -8.58729,10.75139 -3.54135,4.37407 -7.15155,8.79286 -9.44912,13.93045 -1.97407,4.41422 -2.91014,9.20748 -4.26498,13.84932 -1.53862,5.27153 -3.62627,10.37023 -5.97071,15.33612 -2.1648,4.58539 -4.54978,9.06293 -6.93891,13.53553 -1.73823,3.25407 -3.50515,6.58104 -4.10782,10.22071 -0.47627,2.87632 -0.19849,5.84423 0.53376,8.66626 0.73224,2.82202 1.90964,5.5106 3.23775,8.10601 5.66724,11.07504 14.17003,20.62168 24.24176,27.92472 4.57063,3.31418 9.46669,6.18109 14.60245,8.52595 2.78247,1.27041 5.71355,2.40436 8.77186,2.45744 1.52915,0.0265 3.0741,-0.22544 4.47434,-0.84055 1.40024,-0.6151 2.65068,-1.60373 3.48254,-2.88709 1.02278,-1.5779 1.36992,-3.53829 1.16461,-5.40743 -0.2053,-1.86914 -0.93484,-3.65294 -1.91324,-5.25873 -2.38997,-3.92251 -6.1652,-6.76055 -9.79642,-9.57343 -7.84055,-6.07358 -15.42466,-12.48038 -22.68212,-19.23996 -2.04911,-1.90854 -4.0984,-3.87759 -5.53019,-6.28412 -1.3943,-2.34352 -2.14763,-5.01375 -2.65783,-7.69253 -1.39963,-7.34872 -1.0404,-15.0827 1.45958,-22.13343 0.97802,-2.75834 2.27066,-5.39225 3.51815,-8.03965 2.1622,-4.58855 4.21133,-9.26299 7.04933,-13.46723 3.53268,-5.23334 8.24484,-9.67275 11.15147,-15.27803 2.45457,-4.7335 3.49353,-10.05742 4.36185,-15.31831 0.66531,-4.03089 1.24751,-8.07549 1.74613,-12.13037"
         id="path15033-2"
         inkscape:connector-curvature="0"
         inkscape:original-d="m 248.06066,184.61218 c 0,0 -5.10626,6.34527 -7.89695,10.24696 -2.7907,3.9017 -5.73652,6.64881 -8.58729,10.75139 -2.85076,4.10259 -7.36482,9.43164 -9.44912,13.93045 -2.08429,4.49881 -2.32047,9.0356 -4.26498,13.84932 -1.94451,4.81371 -3.70129,10.64183 -5.97071,15.33612 -2.26943,4.69429 -5.37093,9.68473 -6.93891,13.53553 -1.56799,3.8508 -3.81119,5.72384 -4.10782,10.22071 -0.29663,4.49686 -0.57747,8.31749 3.77151,16.77227 4.34898,8.45478 17.23626,22.00721 24.24176,27.92472 7.00549,5.9175 9.39133,7.22492 14.60245,8.52595 5.21112,1.30104 13.85627,2.9981 16.72874,-1.2702 2.87246,-4.26829 2.27191,-5.96483 -0.74863,-10.66616 -3.02055,-4.70132 -4.82469,-5.30209 -9.79642,-9.57343 -4.97172,-4.27133 -18.63696,-14.87266 -22.68212,-19.23996 -4.04516,-4.36729 -7.10731,-3.41164 -5.53019,-6.28412 1.57712,-2.87249 -2.20738,-4.00856 -2.65783,-7.69253 -0.76361,-6.24511 0.9436,-18.71046 1.45958,-22.13343 0.51598,-3.42296 1.22371,-2.92446 3.51815,-8.03965 2.29444,-5.11519 4.12424,-8.62435 7.04933,-13.46723 2.92509,-4.84289 8.62493,-10.12787 11.15147,-15.27803 2.52654,-5.15017 3.50393,-10.72068 4.36185,-15.31831 0.85792,-4.59763 1.74613,-12.13037 1.74613,-12.13037 z"
         sodipodi:nodetypes="czzzzzzzzzzzzzzzszzzzzc" />
    </clipPath>
    <inkscape:path-effect
       is_visible="true"
       id="path-effect29716-6-1"
       effect="spiro" />
    <clipPath
       clipPathUnits="userSpaceOnUse"
       id="clipPath14822-9">
      <path
         sodipodi:nodetypes="aaaasssaccaa"
         inkscape:connector-curvature="0"
         d="m 386.1875,285.32775 c -0.40516,-1.10369 -1.11845,-2.08156 -1.9907,-2.86987 -0.87226,-0.78832 -1.90049,-1.39229 -2.98278,-1.85155 -2.16459,-0.91852 -4.52053,-1.26149 -6.83152,-1.69556 -2.17919,-0.40931 -4.34179,-0.90631 -6.52782,-1.27734 -2.27136,-0.38551 -4.6179,-0.63213 -6.8653,-0.1253 -1.96583,0.44333 -3.7845,1.45879 -5.27172,2.81864 -1.48723,1.35984 -2.64911,3.0564 -3.48499,4.89007 -1.47218,3.22952 -1.93451,6.86503 -1.65394,10.40316 0.20882,2.63325 0.87532,5.34594 2.60877,7.33912 1.40065,1.61052 3.38733,2.61526 5.43398,3.22092 3.52502,1.04316 7.36663,0.98822 10.86038,-0.1553 5.76689,-1.93113 10.87568,-5.77387 14.33034,-10.77903 1.13861,-1.64963 2.11217,-3.44809 2.5532,-5.4034 0.33597,-1.48955 0.34831,-3.08112 -0.1779,-4.51456"
         id="path14824-1"
         inkscape:original-d="m 386.1875,285.32775 c -2.36571,-3.81321 -7.59294,-4.9003 -11.805,-6.41698 -2.08672,-0.75138 -4.32322,-1.04333 -6.52782,-1.27734 -2.27612,-0.2416 -4.71593,-0.91505 -6.8653,-0.1253 -3.64566,1.33955 -7.24986,3.80684 -8.75671,7.70871 -1.13743,2.94527 -1.80122,7.05909 -1.65394,10.40316 0.13075,2.96891 0.9633,5.07273 2.60877,7.33912 1.08803,1.49859 3.40096,2.67896 5.43398,3.22092 3.49923,0.93284 7.37483,0.82779 10.86038,-0.1553 5.98587,-2.2615 11.09272,-5.76885 14.33034,-10.77903 1.07459,-1.67639 2.15539,-3.45031 2.5532,-5.4034 0.30053,-1.4755 0.61519,-3.23621 -0.1779,-4.51456 z"
         style="fill:none;stroke:#ce5c00;stroke-width:1px;stroke-linecap:butt;stroke-linejoin:miter;stroke-opacity:1" />
    </clipPath>
    <clipPath
       clipPathUnits="userSpaceOnUse"
       id="clipPath14822-2-4">
      <path
         sodipodi:nodetypes="aaaasssaccaa"
         inkscape:connector-curvature="0"
         d="m 386.1875,285.32775 c -0.40516,-1.10369 -1.11845,-2.08156 -1.9907,-2.86987 -0.87226,-0.78832 -1.90049,-1.39229 -2.98278,-1.85155 -2.16459,-0.91852 -4.52053,-1.26149 -6.83152,-1.69556 -2.17919,-0.40931 -4.34179,-0.90631 -6.52782,-1.27734 -2.27136,-0.38551 -4.6179,-0.63213 -6.8653,-0.1253 -1.96583,0.44333 -3.7845,1.45879 -5.27172,2.81864 -1.48723,1.35984 -2.64911,3.0564 -3.48499,4.89007 -1.47218,3.22952 -1.93451,6.86503 -1.65394,10.40316 0.20882,2.63325 0.87532,5.34594 2.60877,7.33912 1.40065,1.61052 3.38733,2.61526 5.43398,3.22092 3.52502,1.04316 7.36663,0.98822 10.86038,-0.1553 5.76689,-1.93113 10.87568,-5.77387 14.33034,-10.77903 1.13861,-1.64963 2.11217,-3.44809 2.5532,-5.4034 0.33597,-1.48955 0.34831,-3.08112 -0.1779,-4.51456"
         id="path14824-6-5"
         inkscape:original-d="m 386.1875,285.32775 c -2.36571,-3.81321 -7.59294,-4.9003 -11.805,-6.41698 -2.08672,-0.75138 -4.32322,-1.04333 -6.52782,-1.27734 -2.27612,-0.2416 -4.71593,-0.91505 -6.8653,-0.1253 -3.64566,1.33955 -7.24986,3.80684 -8.75671,7.70871 -1.13743,2.94527 -1.80122,7.05909 -1.65394,10.40316 0.13075,2.96891 0.9633,5.07273 2.60877,7.33912 1.08803,1.49859 3.40096,2.67896 5.43398,3.22092 3.49923,0.93284 7.37483,0.82779 10.86038,-0.1553 5.98587,-2.2615 11.09272,-5.76885 14.33034,-10.77903 1.07459,-1.67639 2.15539,-3.45031 2.5532,-5.4034 0.30053,-1.4755 0.61519,-3.23621 -0.1779,-4.51456 z"
         style="fill:none;stroke:#ce5c00;stroke-width:1px;stroke-linecap:butt;stroke-linejoin:miter;stroke-opacity:1" />
    </clipPath>
    <inkscape:path-effect
       is_visible="true"
       id="path-effect28273-44"
       effect="spiro" />
    <inkscape:path-effect
       is_visible="true"
       id="path-effect28273-54-7"
       effect="spiro" />
    <inkscape:path-effect
       is_visible="true"
       id="path-effect28463-4"
       effect="spiro" />
    <inkscape:path-effect
       is_visible="true"
       id="path-effect29455-3"
       effect="spiro" />
    <inkscape:path-effect
       is_visible="true"
       id="path-effect28881-6"
       effect="spiro" />
    <inkscape:path-effect
       is_visible="true"
       id="path-effect28273-4-2"
       effect="spiro" />
    <linearGradient
       id="linearGradient28799-3">
      <stop
         id="stop28801-6"
         offset="0"
         style="stop-color:#fefefc;stop-opacity:1;" />
      <stop
         style="stop-color:#fefefc;stop-opacity:1"
         offset="0.75733864"
         id="stop28807-7" />
      <stop
         id="stop28803-0"
         offset="1"
         style="stop-color:#d4d4d4;stop-opacity:1" />
    </linearGradient>
    <inkscape:path-effect
       is_visible="true"
       id="path-effect28797-81"
       effect="spiro" />
    <inkscape:path-effect
       is_visible="true"
       id="path-effect28797-8-1"
       effect="spiro" />
    <inkscape:path-effect
       is_visible="true"
       id="path-effect29721-2"
       effect="spiro" />
    <inkscape:path-effect
       is_visible="true"
       id="path-effect28714-5"
       effect="spiro" />
    <inkscape:path-effect
       is_visible="true"
       id="path-effect29678-4-6"
       effect="spiro" />
    <inkscape:path-effect
       is_visible="true"
       id="path-effect29672-0"
       effect="spiro" />
    <clipPath
       clipPathUnits="userSpaceOnUse"
       id="clipPath4149">
      <rect
         style="opacity:1;fill:none;fill-opacity:1;stroke:#000000;stroke-width:1;stroke-miterlimit:4;stroke-dasharray:none;stroke-dashoffset:0;stroke-opacity:1"
         id="rect4151"
         width="416"
         height="417"
         x="51"
         y="54"
         ry="60.628601" />
    </clipPath>
  </defs>
  <sodipodi:namedview
     id="base"
     pagecolor="#ffffff"
     bordercolor="#666666"
     borderopacity="1.0"
     inkscape:pageopacity="0.0"
     inkscape:pageshadow="2"
     inkscape:zoom="0.35"
     inkscape:cx="-95.815216"
     inkscape:cy="47.598365"
     inkscape:document-units="px"
     inkscape:current-layer="layer1"
     showgrid="false"
     units="px"
     inkscape:window-width="1366"
     inkscape:window-height="694"
     inkscape:window-x="0"
     inkscape:window-y="0"
     inkscape:window-maximized="1"
     showguides="false" />
  <metadata
     id="metadata7">
    <rdf:RDF>
      <cc:Work
         rdf:about="">
        <dc:format>image/svg+xml</dc:format>
        <dc:type
           rdf:resource="http://purl.org/dc/dcmitype/StillImage" />
        <dc:title></dc:title>
      </cc:Work>
    </rdf:RDF>
  </metadata>
  <g
     inkscape:label="Layer 1"
     inkscape:groupmode="layer"
     id="layer1"
     transform="translate(0,-540.36216)">
    <g
       id="g916">
      <path
         style="fill:#c6262e;fill-opacity:1;stroke-width:11.10955811"
         inkscape:connector-curvature="0"
         d="m 432.91327,596.83613 c 102.19291,88.57457 105.82677,249.6997 8.1168,359.89879 C 343.3201,1066.934 181.27964,1084.4628 79.086725,995.88818 -23.106187,907.31361 -26.74004,746.18848 70.969931,635.98939 168.6799,525.7903 330.72036,508.26155 432.91327,596.83613 Z"
         id="path27" />
      <path
         style="opacity:1;fill:#000000;fill-opacity:0.49019608;stroke-width:11.10955811"
         inkscape:connector-curvature="0"
         d="m 511.63551,765.26569 c -1.5514,61.31165 -25.16124,124.1546 -70.96639,175.81449 C 342.95915,1051.2793 180.91869,1068.808 78.725778,980.23344 30.827125,938.71781 4.4968223,881.28499 0.19382912,820.59095 0.79907984,886.94763 27.117412,950.84436 79.078682,995.88121 181.27159,1084.4558 343.31974,1066.9184 441.02202,956.72795 490.72696,900.66981 514.02705,831.43698 511.63551,765.26569 Z"
         id="path51" />
      <g
         style="fill:#000000;fill-opacity:0.49019608"
         transform="translate(20,20)"
         id="g93">
        <path
           sodipodi:nodetypes="czccccczcc"
           inkscape:connector-curvature="0"
           id="path81"
           d="m 219.24315,794.34095 c 0,0 50.93321,8.01073 76.24975,15.72981 25.31651,7.71908 74.91666,30.65987 74.91666,30.65987 l -8.53143,9.33126 41.05754,13.06377 -16.52968,-39.7245 -8.2648,10.13108 c 0,0 -55.14152,-24.6892 -81.31529,-32.79274 -26.17377,-8.10352 -74.91667,-16.52964 -74.91667,-16.52964 z"
           style="fill:#000000;fill-rule:evenodd;stroke:none;stroke-width:0.65220326px;stroke-linecap:butt;stroke-linejoin:miter;stroke-opacity:1;fill-opacity:0.49019608" />
        <path
           sodipodi:nodetypes="czzccccczzcc"
           inkscape:connector-curvature="0"
           id="path83"
           d="m 223.70123,768.74374 c 0,0 8.48216,-6.22665 22.24536,3.01631 13.7632,9.24297 31.48702,40.22033 38.45804,66.73606 6.97104,26.51573 -1.28728,88.13976 -1.28728,88.13976 l -9.45836,-1.42063 6.97525,27.14692 16.77829,-22.4339 -9.04897,-1.8852 c 0,0 8.70738,-64.40496 1.13066,-92.37798 -7.57672,-27.97302 -28.25774,-58.72774 -41.99067,-69.85115 -13.73293,-11.1234 -23.19485,-7.99821 -23.19485,-7.99821 z"
           style="fill:#000000;fill-rule:evenodd;stroke:none;stroke-width:0.65220326px;stroke-linecap:butt;stroke-linejoin:miter;stroke-opacity:1;fill-opacity:0.49019608" />
        <path
           sodipodi:nodetypes="cccccccccc"
           inkscape:connector-curvature="0"
           id="path85"
           d="m 215.51065,814.06989 c 0,0 34.60891,-2.38339 59.84502,-16.67112 49.80396,-31.79544 82.14187,-57.05681 107.55063,-110.56692 l 9.89729,-0.28276 -13.1964,-25.26165 -14.3275,25.63868 10.74561,0.18842 c -21.12346,49.65833 -57.73177,78.45003 -102.10411,102.62704 -22.71837,12.04231 -54.41141,12.59752 -54.41141,12.59752 z"
           style="fill:#000000;fill-rule:evenodd;stroke:none;stroke-width:0.65220326px;stroke-linecap:butt;stroke-linejoin:miter;stroke-opacity:1;fill-opacity:0.49019608" />
        <path
           sodipodi:nodetypes="czzccccczzcc"
           inkscape:connector-curvature="0"
           id="path87"
           d="m 206.44602,833.53224 c 0,0 -2.39774,6.78324 14.26347,1.59963 16.66121,-5.18361 50.67805,-40.25021 68.21963,-59.22439 17.54157,-18.97416 38.45808,-52.03147 38.45808,-52.03147 l 12.89573,1.41362 -11.19751,-41.05754 -29.59344,35.19217 12.53055,1.33303 c 0,0 -15.61978,35.18605 -30.65986,53.5881 -15.04007,18.40205 -46.04795,48.7064 -60.78647,53.32148 -14.73853,4.61507 -11.73073,-1.33305 -11.73073,-1.33305 z"
           style="fill:#000000;fill-rule:evenodd;stroke:none;stroke-width:0.65220326px;stroke-linecap:butt;stroke-linejoin:miter;stroke-opacity:1;fill-opacity:0.49019608" />
        <path
           sodipodi:nodetypes="czzccccczzcc"
           inkscape:connector-curvature="0"
           id="path89"
           d="m 224.45531,772.51413 c 0,0 56.68721,27.76938 75.40796,44.4907 18.72075,16.72131 30.77565,32.84583 38.08102,50.52335 7.30538,17.67753 6.78671,51.65442 6.78671,51.65442 l 8.29488,6.40968 -34.68765,16.96687 7.91783,-38.08107 9.42601,7.91784 c 0,0 4.93168,-18.85419 -0.37705,-35.06472 -5.30871,-16.21053 -20.58347,-40.00163 -39.21215,-57.31002 -18.62868,-17.3084 -72.76868,-44.4907 -72.76868,-44.4907 z"
           style="fill:#000000;fill-rule:evenodd;stroke:none;stroke-width:0.65220326px;stroke-linecap:butt;stroke-linejoin:miter;stroke-opacity:1;fill-opacity:0.49019608" />
        <path
           inkscape:connector-curvature="0"
           id="path91"
           d="m 213.93855,640.36216 c 0,0 3.60566,3.42106 3.86664,5.33049 0.26098,1.90943 -1.73212,4.66563 -1.73209,4.66563 0,0 -2.40284,-4.66655 -4.5315,-6.13531 -2.12866,-1.46877 -7.59918,-2.1287 -7.59918,-2.1287 0,0 4.63157,3.44268 5.5988,5.46464 0.96721,2.02193 0.5307,5.59874 0.5307,5.59874 0,0 -5.2388,-6.03423 -9.46539,-7.73329 -4.22666,-1.69908 -15.06418,-1.20139 -15.06418,-1.20139 0,0 8.47867,2.886 10.53268,5.33632 2.05401,2.45031 2.13451,7.06257 2.13451,7.06257 0,0 -13.65625,-6.00705 -20.6629,-7.465 -7.00666,-1.45794 -20.93119,-1.3297 -20.93119,-1.3297 0,0 11.75416,3.26842 15.46656,5.0622 3.71242,1.79378 6.86793,1.59068 7.06262,4.66562 0.19469,3.07497 -4.13191,5.69513 -7.59916,6.53189 -3.46727,0.83677 -6.38059,-2.73503 -11.06336,-2.66524 -4.6828,0.0699 -16.12561,4.39736 -16.12561,4.39736 0,0 9.68161,0.82258 13.32623,1.60382 3.6446,0.78122 8.53227,2.66524 8.53227,2.66524 0,0 -14.21421,3.8022 -20.12638,7.59914 -5.91216,3.79695 -14.66757,14.5276 -14.66757,14.5276 0,0 8.66409,-5.76039 12.39893,-7.19673 3.73483,-1.43632 6.19201,-6.33086 9.46539,-2.00038 3.27337,4.33048 -4.62657,16.20396 -10.66681,20.26048 -6.04024,4.05652 -15.67075,0.0666 -20.65708,2.00038 -4.98633,1.93395 -9.06882,6.80017 -9.06879,6.80017 0,0 7.07411,-2.98274 11.46577,-3.06766 4.39167,-0.0848 9.31159,4.0426 14.13102,3.2018 4.81944,-0.8408 12.52721,-8.00156 12.52721,-8.00156 l -6.79432,15.06415 c 0,0 -15.90784,1.56323 -20.79703,4.79978 -4.88919,3.23656 -8.12987,11.19751 -8.12987,11.19751 0,0 6.8102,-5.08064 11.72824,-6.9343 4.91804,-1.85364 17.59523,-3.33007 17.59526,-3.33007 l 1.46965,5.19632 c 0,0 -10.30365,4.80508 -12.80132,7.33088 -2.49767,2.5258 -3.19595,5.73288 -3.19595,5.73288 0,0 8.83406,-3.57648 12.26477,-4.79975 3.43071,-1.22329 8.264,-2.66524 8.264,-2.66524 0,0 -2.86659,5.72293 -4.39737,7.86742 -1.53077,2.14448 -4.53732,5.0622 -4.53732,5.0622 0,0 6.20853,-1.87602 8.66643,-3.33011 2.4579,-1.45409 6.00115,-5.06803 6.00115,-5.06803 l 1.59799,4.79977 c 0,0 -6.14281,3.58374 -7.86743,5.59875 -1.72463,2.01501 -2.79938,5.59877 -2.79938,5.59877 0,0 6.36222,-3.02773 8.53229,-3.19596 2.17005,-0.16811 3.19909,-0.69185 3.86664,0.799 0.66755,1.49085 -2.33043,1.46588 -2.93351,5.0622 -0.60311,3.5963 7.5828,12.1524 3.06764,15.73483 -4.51517,3.58242 -9.4017,-10.926 -16.9304,-7.59914 -7.5287,3.32685 -8.96043,18.69733 -9.59955,29.2943 -0.63912,10.59696 -1.73358,31.33111 6.40943,32.2337 8.14301,0.90257 4.11745,-11.9461 6.59602,-14.8892 2.47856,-2.9431 5.65707,-3.77333 5.65707,-3.77333 0,0 -0.87368,10.37553 -2.26282,14.32929 -1.38915,3.95377 -2.54736,8.01172 -5.278,9.23795 -2.73064,1.22624 -7.16757,-1.51047 -7.16757,-1.51047 0,0 2.09614,3.07212 2.26282,4.71228 0.16662,1.64015 -1.1314,4.52564 -1.1314,4.52564 0,0 -12.52774,-0.39224 -16.58632,0 -4.05857,0.39227 -7.73327,1.51049 -7.73327,1.51049 0,0 5.23225,0.44391 7.63996,0.89231 2.4077,0.44842 6.78267,1.74381 6.78267,1.74381 0,0 -8.05549,3.75862 -11.26168,4.00659 C 114.00802,849.69434 110,848.0818 110,848.0818 c 0,0 3.14274,3.76102 6.46189,4.52569 3.31915,0.76465 12.39308,-1.98292 12.39308,-1.98292 0,0 -6.25908,7.13786 -9.16214,10.62017 -2.90305,3.48229 -8.264,10.26439 -8.264,10.26439 0,0 8.19571,-4.48762 11.19751,-6.53189 3.0018,-2.04428 6.92846,-5.46463 6.92846,-5.46463 0,0 -2.3195,7.5359 -4.66563,11.19751 -2.34614,3.66163 -9.45957,10.26439 -9.45957,10.26439 0,0 6.02996,-3.49321 8.264,-4.26906 2.23404,-0.77585 4.79976,-0.93313 4.79976,-0.93313 0,0 -0.17199,5.38359 -0.67065,8.26401 -0.49882,2.88043 -2.39699,8.93469 -2.39699,8.93469 l 9.063,2.79937 c 0,0 -0.78598,3.58697 -1.46386,5.19634 -0.67788,1.60937 -2.53694,4.40318 -2.53694,4.40318 0,0 3.18251,-0.61825 4.53732,-0.93312 1.35481,-0.31487 3.59837,-0.93312 3.59837,-0.93312 0,0 0.4772,4.77288 0,6.79432 -0.47719,2.02143 -2.53693,5.06805 -2.53693,5.06805 0,0 3.28541,-1.52665 4.53732,-2.00041 1.25191,-0.47376 2.92769,-0.93312 2.92769,-0.93312 0,0 -0.0269,2.57052 -0.26247,4.00079 -0.2347,1.43026 -1.20139,4.5315 -1.20139,4.5315 0,0 2.89233,-1.76261 3.7325,-2.66526 0.84017,-0.90267 1.46383,-2.4028 1.46383,-2.4028 0,0 1.13934,7.37756 10.00194,13.33201 8.86261,5.95457 31.47603,14.83392 45.85731,11.99658 14.3813,-2.83741 27.58377,-11.34685 32.39114,-24.39546 4.80738,-13.04859 -1.88525,-33.33565 -9.33127,-41.85654 -7.44601,-8.52089 -14.97491,-10.40301 -23.46227,-8.66639 -8.48736,1.73663 -18.7094,11.04131 -19.59565,18.53421 -0.88624,7.49289 5.03429,13.07012 9.99613,15.32658 4.96181,2.25647 14.26515,-2.00038 14.26515,-2.00038 0,0 -12.8628,-0.0594 -14.66175,-6.26361 -1.79895,-6.20445 5.1579,-18.03819 12.92962,-18.79666 7.77177,-0.75848 14.74122,9.38247 17.19288,16.79626 2.45165,7.41381 3.25718,15.90325 -3.59837,22.52917 -6.85557,6.6259 -23.92884,7.84945 -34.12327,4.26322 -10.19443,-3.58622 -17.76962,-12.39279 -21.19363,-21.85846 -3.42402,-9.46566 -3.87862,-19.72981 2.26285,-29.86003 6.14146,-10.13023 24.19328,-10.0178 34.92806,-21.73019 10.7348,-11.71239 20.57165,-31.00498 24.51788,-48.33008 3.94624,-17.3251 3.27977,-38.31381 -1.1314,-52.4067 -4.41115,-14.09289 -24.86845,-19.93599 -19.98641,-30.16329 4.88205,-10.2273 17.73823,-4.94234 31.67381,-3.01515 13.93558,1.92721 42.16965,12.04068 49.04161,19.0066 6.87194,6.96593 -1.04101,5.38669 2.12869,5.73288 3.1697,0.34621 8.55289,-7.77148 7.06843,-10.92921 -1.48449,-3.15772 -0.40768,2.62407 -7.86742,-0.93312 -7.45977,-3.55721 -24.18863,-19.78449 -29.86004,-29.06107 -5.67141,-9.27659 -2.54511,-17.44752 -6.92845,-22.52915 -4.38333,-5.08164 -10.10422,-2.93184 -15.06415,-7.19672 -4.95996,-4.26487 -8.73651,-15.10759 -12.66719,-18.66253 -3.93068,-3.55491 -8.12987,-4.39735 -8.12987,-4.39735 z m 22.33671,36.99842 a 4.7989336,5.0655411 0 0 1 4.79976,5.06806 4.7989336,5.0655411 0 0 1 -4.79976,5.06805 4.7989336,5.0655411 0 0 1 -4.79976,-5.06805 4.7989336,5.0655411 0 0 1 4.79976,-5.06806 z"
           style="fill:#000000;fill-opacity:0.49019608;fill-rule:evenodd;stroke:none;stroke-width:0.65220326px;stroke-linecap:butt;stroke-linejoin:miter;stroke-opacity:1" />
      </g>
      <g
         id="g79">
        <path
           style="fill:#ffffff;fill-rule:evenodd;stroke:none;stroke-width:0.65220326px;stroke-linecap:butt;stroke-linejoin:miter;stroke-opacity:1"
           d="m 219.24315,794.34095 c 0,0 50.93321,8.01073 76.24975,15.72981 25.31651,7.71908 74.91666,30.65987 74.91666,30.65987 l -8.53143,9.33126 41.05754,13.06377 -16.52968,-39.7245 -8.2648,10.13108 c 0,0 -55.14152,-24.6892 -81.31529,-32.79274 -26.17377,-8.10352 -74.91667,-16.52964 -74.91667,-16.52964 z"
           id="path4186"
           inkscape:connector-curvature="0"
           sodipodi:nodetypes="czccccczcc" />
        <path
           style="fill:#ffffff;fill-rule:evenodd;stroke:none;stroke-width:0.65220326px;stroke-linecap:butt;stroke-linejoin:miter;stroke-opacity:1"
           d="m 223.70123,768.74374 c 0,0 8.48216,-6.22665 22.24536,3.01631 13.7632,9.24297 31.48702,40.22033 38.45804,66.73606 6.97104,26.51573 -1.28728,88.13976 -1.28728,88.13976 l -9.45836,-1.42063 6.97525,27.14692 16.77829,-22.4339 -9.04897,-1.8852 c 0,0 8.70738,-64.40496 1.13066,-92.37798 -7.57672,-27.97302 -28.25774,-58.72774 -41.99067,-69.85115 -13.73293,-11.1234 -23.19485,-7.99821 -23.19485,-7.99821 z"
           id="path4188"
           inkscape:connector-curvature="0"
           sodipodi:nodetypes="czzccccczzcc" />
        <path
           style="fill:#ffffff;fill-rule:evenodd;stroke:none;stroke-width:0.65220326px;stroke-linecap:butt;stroke-linejoin:miter;stroke-opacity:1"
           d="m 215.51065,814.06989 c 0,0 34.60891,-2.38339 59.84502,-16.67112 49.80396,-31.79544 82.14187,-57.05681 107.55063,-110.56692 l 9.89729,-0.28276 -13.1964,-25.26165 -14.3275,25.63868 10.74561,0.18842 c -21.12346,49.65833 -57.73177,78.45003 -102.10411,102.62704 -22.71837,12.04231 -54.41141,12.59752 -54.41141,12.59752 z"
           id="path4190"
           inkscape:connector-curvature="0"
           sodipodi:nodetypes="cccccccccc" />
        <path
           style="fill:#ffffff;fill-rule:evenodd;stroke:none;stroke-width:0.65220326px;stroke-linecap:butt;stroke-linejoin:miter;stroke-opacity:1"
           d="m 206.44602,833.53224 c 0,0 -2.39774,6.78324 14.26347,1.59963 16.66121,-5.18361 50.67805,-40.25021 68.21963,-59.22439 17.54157,-18.97416 38.45808,-52.03147 38.45808,-52.03147 l 12.89573,1.41362 -11.19751,-41.05754 -29.59344,35.19217 12.53055,1.33303 c 0,0 -15.61978,35.18605 -30.65986,53.5881 -15.04007,18.40205 -46.04795,48.7064 -60.78647,53.32148 -14.73853,4.61507 -11.73073,-1.33305 -11.73073,-1.33305 z"
           id="path4192"
           inkscape:connector-curvature="0"
           sodipodi:nodetypes="czzccccczzcc" />
        <path
           style="fill:#ffffff;fill-rule:evenodd;stroke:none;stroke-width:0.65220326px;stroke-linecap:butt;stroke-linejoin:miter;stroke-opacity:1"
           d="m 224.45531,772.51413 c 0,0 56.68721,27.76938 75.40796,44.4907 18.72075,16.72131 30.77565,32.84583 38.08102,50.52335 7.30538,17.67753 6.78671,51.65442 6.78671,51.65442 l 8.29488,6.40968 -34.68765,16.96687 7.91783,-38.08107 9.42601,7.91784 c 0,0 4.93168,-18.85419 -0.37705,-35.06472 -5.30871,-16.21053 -20.58347,-40.00163 -39.21215,-57.31002 -18.62868,-17.3084 -72.76868,-44.4907 -72.76868,-44.4907 z"
           id="path4194"
           inkscape:connector-curvature="0"
           sodipodi:nodetypes="czzccccczzcc" />
        <path
           style="fill:#ffffff;fill-opacity:1;fill-rule:evenodd;stroke:none;stroke-width:0.65220326px;stroke-linecap:butt;stroke-linejoin:miter;stroke-opacity:1"
           d="m 213.93855,640.36216 c 0,0 3.60566,3.42106 3.86664,5.33049 0.26098,1.90943 -1.73212,4.66563 -1.73209,4.66563 0,0 -2.40284,-4.66655 -4.5315,-6.13531 -2.12866,-1.46877 -7.59918,-2.1287 -7.59918,-2.1287 0,0 4.63157,3.44268 5.5988,5.46464 0.96721,2.02193 0.5307,5.59874 0.5307,5.59874 0,0 -5.2388,-6.03423 -9.46539,-7.73329 -4.22666,-1.69908 -15.06418,-1.20139 -15.06418,-1.20139 0,0 8.47867,2.886 10.53268,5.33632 2.05401,2.45031 2.13451,7.06257 2.13451,7.06257 0,0 -13.65625,-6.00705 -20.6629,-7.465 -7.00666,-1.45794 -20.93119,-1.3297 -20.93119,-1.3297 0,0 11.75416,3.26842 15.46656,5.0622 3.71242,1.79378 6.86793,1.59068 7.06262,4.66562 0.19469,3.07497 -4.13191,5.69513 -7.59916,6.53189 -3.46727,0.83677 -6.38059,-2.73503 -11.06336,-2.66524 -4.6828,0.0699 -16.12561,4.39736 -16.12561,4.39736 0,0 9.68161,0.82258 13.32623,1.60382 3.6446,0.78122 8.53227,2.66524 8.53227,2.66524 0,0 -14.21421,3.8022 -20.12638,7.59914 -5.91216,3.79695 -14.66757,14.5276 -14.66757,14.5276 0,0 8.66409,-5.76039 12.39893,-7.19673 3.73483,-1.43632 6.19201,-6.33086 9.46539,-2.00038 3.27337,4.33048 -4.62657,16.20396 -10.66681,20.26048 -6.04024,4.05652 -15.67075,0.0666 -20.65708,2.00038 -4.98633,1.93395 -9.06882,6.80017 -9.06879,6.80017 0,0 7.07411,-2.98274 11.46577,-3.06766 4.39167,-0.0848 9.31159,4.0426 14.13102,3.2018 4.81944,-0.8408 12.52721,-8.00156 12.52721,-8.00156 l -6.79432,15.06415 c 0,0 -15.90784,1.56323 -20.79703,4.79978 -4.88919,3.23656 -8.12987,11.19751 -8.12987,11.19751 0,0 6.8102,-5.08064 11.72824,-6.9343 4.91804,-1.85364 17.59523,-3.33007 17.59526,-3.33007 l 1.46965,5.19632 c 0,0 -10.30365,4.80508 -12.80132,7.33088 -2.49767,2.5258 -3.19595,5.73288 -3.19595,5.73288 0,0 8.83406,-3.57648 12.26477,-4.79975 3.43071,-1.22329 8.264,-2.66524 8.264,-2.66524 0,0 -2.86659,5.72293 -4.39737,7.86742 -1.53077,2.14448 -4.53732,5.0622 -4.53732,5.0622 0,0 6.20853,-1.87602 8.66643,-3.33011 2.4579,-1.45409 6.00115,-5.06803 6.00115,-5.06803 l 1.59799,4.79977 c 0,0 -6.14281,3.58374 -7.86743,5.59875 -1.72463,2.01501 -2.79938,5.59877 -2.79938,5.59877 0,0 6.36222,-3.02773 8.53229,-3.19596 2.17005,-0.16811 3.19909,-0.69185 3.86664,0.799 0.66755,1.49085 -2.33043,1.46588 -2.93351,5.0622 -0.60311,3.5963 7.5828,12.1524 3.06764,15.73483 -4.51517,3.58242 -9.4017,-10.926 -16.9304,-7.59914 -7.5287,3.32685 -8.96043,18.69733 -9.59955,29.2943 -0.63912,10.59696 -1.73358,31.33111 6.40943,32.2337 8.14301,0.90257 4.11745,-11.9461 6.59602,-14.8892 2.47856,-2.9431 5.65707,-3.77333 5.65707,-3.77333 0,0 -0.87368,10.37553 -2.26282,14.32929 -1.38915,3.95377 -2.54736,8.01172 -5.278,9.23795 -2.73064,1.22624 -7.16757,-1.51047 -7.16757,-1.51047 0,0 2.09614,3.07212 2.26282,4.71228 0.16662,1.64015 -1.1314,4.52564 -1.1314,4.52564 0,0 -12.52774,-0.39224 -16.58632,0 -4.05857,0.39227 -7.73327,1.51049 -7.73327,1.51049 0,0 5.23225,0.44391 7.63996,0.89231 2.4077,0.44842 6.78267,1.74381 6.78267,1.74381 0,0 -8.05549,3.75862 -11.26168,4.00659 C 114.00802,849.69434 110,848.0818 110,848.0818 c 0,0 3.14274,3.76102 6.46189,4.52569 3.31915,0.76465 12.39308,-1.98292 12.39308,-1.98292 0,0 -6.25908,7.13786 -9.16214,10.62017 -2.90305,3.48229 -8.264,10.26439 -8.264,10.26439 0,0 8.19571,-4.48762 11.19751,-6.53189 3.0018,-2.04428 6.92846,-5.46463 6.92846,-5.46463 0,0 -2.3195,7.5359 -4.66563,11.19751 -2.34614,3.66163 -9.45957,10.26439 -9.45957,10.26439 0,0 6.02996,-3.49321 8.264,-4.26906 2.23404,-0.77585 4.79976,-0.93313 4.79976,-0.93313 0,0 -0.17199,5.38359 -0.67065,8.26401 -0.49882,2.88043 -2.39699,8.93469 -2.39699,8.93469 l 9.063,2.79937 c 0,0 -0.78598,3.58697 -1.46386,5.19634 -0.67788,1.60937 -2.53694,4.40318 -2.53694,4.40318 0,0 3.18251,-0.61825 4.53732,-0.93312 1.35481,-0.31487 3.59837,-0.93312 3.59837,-0.93312 0,0 0.4772,4.77288 0,6.79432 -0.47719,2.02143 -2.53693,5.06805 -2.53693,5.06805 0,0 3.28541,-1.52665 4.53732,-2.00041 1.25191,-0.47376 2.92769,-0.93312 2.92769,-0.93312 0,0 -0.0269,2.57052 -0.26247,4.00079 -0.2347,1.43026 -1.20139,4.5315 -1.20139,4.5315 0,0 2.89233,-1.76261 3.7325,-2.66526 0.84017,-0.90267 1.46383,-2.4028 1.46383,-2.4028 0,0 1.13934,7.37756 10.00194,13.33201 8.86261,5.95457 31.47603,14.83392 45.85731,11.99658 14.3813,-2.83741 27.58377,-11.34685 32.39114,-24.39546 4.80738,-13.04859 -1.88525,-33.33565 -9.33127,-41.85654 -7.44601,-8.52089 -14.97491,-10.40301 -23.46227,-8.66639 -8.48736,1.73663 -18.7094,11.04131 -19.59565,18.53421 -0.88624,7.49289 5.03429,13.07012 9.99613,15.32658 4.96181,2.25647 14.26515,-2.00038 14.26515,-2.00038 0,0 -12.8628,-0.0594 -14.66175,-6.26361 -1.79895,-6.20445 5.1579,-18.03819 12.92962,-18.79666 7.77177,-0.75848 14.74122,9.38247 17.19288,16.79626 2.45165,7.41381 3.25718,15.90325 -3.59837,22.52917 -6.85557,6.6259 -23.92884,7.84945 -34.12327,4.26322 -10.19443,-3.58622 -17.76962,-12.39279 -21.19363,-21.85846 -3.42402,-9.46566 -3.87862,-19.72981 2.26285,-29.86003 6.14146,-10.13023 24.19328,-10.0178 34.92806,-21.73019 10.7348,-11.71239 20.57165,-31.00498 24.51788,-48.33008 3.94624,-17.3251 3.27977,-38.31381 -1.1314,-52.4067 -4.41115,-14.09289 -24.86845,-19.93599 -19.98641,-30.16329 4.88205,-10.2273 17.73823,-4.94234 31.67381,-3.01515 13.93558,1.92721 42.16965,12.04068 49.04161,19.0066 6.87194,6.96593 -1.04101,5.38669 2.12869,5.73288 3.1697,0.34621 8.55289,-7.77148 7.06843,-10.92921 -1.48449,-3.15772 -0.40768,2.62407 -7.86742,-0.93312 -7.45977,-3.55721 -24.18863,-19.78449 -29.86004,-29.06107 -5.67141,-9.27659 -2.54511,-17.44752 -6.92845,-22.52915 -4.38333,-5.08164 -10.10422,-2.93184 -15.06415,-7.19672 -4.95996,-4.26487 -8.73651,-15.10759 -12.66719,-18.66253 -3.93068,-3.55491 -8.12987,-4.39735 -8.12987,-4.39735 z m 22.33671,36.99842 a 4.7989336,5.0655411 0 0 1 4.79976,5.06806 4.7989336,5.0655411 0 0 1 -4.79976,5.06805 4.7989336,5.0655411 0 0 1 -4.79976,-5.06805 4.7989336,5.0655411 0 0 1 4.79976,-5.06806 z"
           id="path3381"
           inkscape:connector-curvature="0" />
      </g>
    </g>
  </g>
</svg>
