<?xml version="1.0" encoding="UTF-8" standalone="no"?>
<svg
   xmlns:dc="http://purl.org/dc/elements/1.1/"
   xmlns:cc="http://creativecommons.org/ns#"
   xmlns:rdf="http://www.w3.org/1999/02/22-rdf-syntax-ns#"
   xmlns:svg="http://www.w3.org/2000/svg"
   xmlns="http://www.w3.org/2000/svg"
   xmlns:sodipodi="http://sodipodi.sourceforge.net/DTD/sodipodi-0.dtd"
   xmlns:inkscape="http://www.inkscape.org/namespaces/inkscape"
   viewBox="0 0 512 512"
   id="svg2"
   version="1.1"
   inkscape:version="0.92.2 2405546, 2018-03-11"
   width="512"
   height="512"
   sodipodi:docname="vineyard-preferences.svg">
  <metadata
     id="metadata69">
    <rdf:RDF>
      <cc:Work
         rdf:about="">
        <dc:format>image/svg+xml</dc:format>
        <dc:type
           rdf:resource="http://purl.org/dc/dcmitype/StillImage" />
        <dc:title></dc:title>
      </cc:Work>
    </rdf:RDF>
  </metadata>
  <sodipodi:namedview
     pagecolor="#ffffff"
     bordercolor="#666666"
     borderopacity="1"
     objecttolerance="10"
     gridtolerance="10"
     guidetolerance="10"
     inkscape:pageopacity="0"
     inkscape:pageshadow="2"
     inkscape:window-width="1124"
     inkscape:window-height="649"
     id="namedview67"
     showgrid="false"
     inkscape:zoom="0.43457604"
     inkscape:cx="365.56178"
     inkscape:cy="24.570548"
     inkscape:window-x="15"
     inkscape:window-y="39"
     inkscape:window-maximized="0"
     inkscape:current-layer="svg2"
     units="px" />
  <defs
     id="defs4">
    <linearGradient
       id="linearGradient3764"
       x1="1"
       x2="47"
       gradientUnits="userSpaceOnUse"
       gradientTransform="rotate(-90,23.999998,24)">
      <stop
         stop-color="#e4e4e4"
         stop-opacity="1"
         id="stop7" />
      <stop
         offset="1"
         stop-color="#eee"
         stop-opacity="1"
         id="stop9" />
    </linearGradient>
    <clipPath
       id="clipPath-119709949">
      <g
         transform="translate(0,-1004.3622)"
         id="g12">
        <path
           d="m -24,13 c 0,1.105 -0.672,2 -1.5,2 -0.828,0 -1.5,-0.895 -1.5,-2 0,-1.105 0.672,-2 1.5,-2 0.828,0 1.5,0.895 1.5,2 z"
           transform="matrix(15.8a715e,0,0,11.5,414.99999,878.8622)"
           id="path14"
           inkscape:connector-curvature="0"
           style="fill:#1890d0" />
      </g>
    </clipPath>
    <clipPath
       id="clipPath-130316721">
      <g
         transform="translate(0,-1004.3622)"
         id="g17">
        <path
           d="m -24,13 c 0,1.105 -0.672,2 -1.5,2 -0.828,0 -1.5,-0.895 -1.5,-2 0,-1.105 0.672,-2 1.5,-2 0.828,0 1.5,0.895 1.5,2 z"
           transform="matrix(15.8a715e,0,0,11.5,414.99999,878.8622)"
           id="path19"
           inkscape:connector-curvature="0"
           style="fill:#1890d0" />
      </g>
    </clipPath>
  </defs>
  <g
     id="g33"
     transform="translate(0,591)" />
  <g
     id="g868">
    <path
       style="fill:#3689e6;fill-opacity:1;stroke-width:11.10955143"
       inkscape:connector-curvature="0"
       d="M 432.91335,56.473972 C 535.10615,145.04856 538.74001,306.17367 441.03014,416.37276 343.32008,526.57182 181.27947,544.10062 79.086672,455.52602 -23.106166,366.95143 -26.740027,205.82631 70.96988,95.627232 c 97.70987,-110.19908 259.7504,-127.72785 361.94347,-39.15326 z"
       id="path911" />
    <path
       style="opacity:1;fill:#000000;fill-opacity:0.49019608;stroke-width:11.10955238"
       inkscape:connector-curvature="0"
       d="m 511.63499,224.90352 c -1.55139,61.31166 -25.1612,124.1546 -70.96631,175.81449 C 342.95881,510.91712 180.91852,528.44582 78.72572,439.87127 30.827117,398.35564 4.4968425,340.92283 0.1938533,280.22879 0.79910411,346.58547 27.117408,410.48219 79.078624,455.51904 181.27143,544.09362 343.31941,526.55622 441.02158,416.36578 490.72647,360.30764 514.02653,291.07481 511.63499,224.90352 Z"
       id="path913" />
    <g
       id="g48"
       transform="matrix(2.5804724,0,0,2.5804724,568.59564,-1154.812)"
       style="fill:#000000;fill-opacity:0.49019608">
      <path
         d="m -74.298444,498.89129 c -4.471012,0.0744 -8.886195,3.05201 -9.598022,8.57913 -1.125895,8.84898 7.341582,5.52712 14.096952,5.52712 6.77863,0 9.01646,14.35749 7.28575,22.09918 -1.01889,4.61524 -7.88592,12.99432 -21.824685,15.12049 v 4.94557 c 4.745508,0.90723 8.141805,3.43351 8.141805,6.54135 0,3.12646 -3.396297,5.65274 -8.141805,6.54136 v 32.70679 c 18.702885,-12.81288 31.404095,-36.45667 31.404095,-58.88152 0,-3.76384 -0.47455,-7.4672 -1.16311,-11.04959 -0.61878,-1.8005 -1.08868,-3.74523 -1.60045,-5.37824 -0.81883,-2.94501 -1.81911,-5.39686 -2.61933,-7.70448 -0.0186,-0.0744 0.0372,-0.20005 0,-0.2931 -3.2009,-6.97869 -7.66726,-13.23159 -13.2316,-18.46561 -0.0186,-0.0372 -0.107,0.0372 -0.14422,0 -0.87466,-0.21867 -1.70745,-0.30706 -2.61934,-0.2931 m -74.997636,38.38278 c -15.86488,1.05611 -23.95085,10.63087 -24.53241,10.90536 2.07034,19.87996 14.26444,40.94629 31.4041,52.7775 v -32.70679 c -4.7269,-0.88862 -8.14181,-3.4149 -8.14181,-6.52275 0,-3.12645 3.41491,-5.65273 8.14181,-6.54135 V 537.4276 c -2.43324,-0.20005 -4.74551,-0.27449 -6.87169,-0.093 m 13.85037,1.25617 v 16.59066 c 4.70829,0.87467 8.14181,3.43352 8.14181,6.54136 0,3.10785 -3.45213,5.65274 -8.14181,6.52275 v 36.94517 c 5.81558,2.92641 12.1057,4.61524 18.60984,5.08979 v -9.44915 c -4.7269,-0.88861 -8.1418,-3.4149 -8.1418,-6.54135 0,-3.10784 3.4149,-5.63412 8.1418,-6.54135 v -42.45369 c -1.92612,-0.72578 -3.94529,-1.54462 -5.9598,-2.47046 -4.55941,-2.03777 -8.72336,-3.3265 -12.65004,-4.21512 m 25.58853,9.03042 v 40.12746 c 4.70829,0.87466 8.1418,3.43351 8.1418,6.54136 0,3.10783 -3.45212,5.65274 -8.1418,6.52274 v 9.44914 c 6.52274,-0.48851 12.738429,-2.30761 18.609832,-5.23402 V 568.2641 c -4.726898,-0.87466 -8.141803,-3.41491 -8.141803,-6.52275 0,-3.10784 3.414905,-5.67134 8.141803,-6.54136 v -4.50823 c -5.378242,-0.0186 -11.556712,-0.94445 -18.609832,-3.05201 m 0,0"
         id="path42"
         inkscape:connector-curvature="0"
         style="fill:#000000;fill-opacity:0.49019608;fill-rule:nonzero;stroke:none" />
      <path
         d="m -83.654538,519.90179 c 0,1.83772 -1.507396,3.3079 -3.382337,3.3079 -1.851679,0 -3.382338,-1.47018 -3.382338,-3.3079 0,-1.83772 1.526007,-3.3079 3.382338,-3.3079 1.870288,0 3.382337,1.47018 3.382337,3.3079 m 0,0"
         id="path44"
         inkscape:connector-curvature="0"
         style="fill:#000000;fill-opacity:0.49019608;fill-rule:nonzero;stroke:none" />
      <path
         d="m -90.43317,507.88914 c 0,1.28874 -1.070066,2.34484 -2.382059,2.34484 -1.325951,0 -2.400669,-1.0561 -2.400669,-2.34484 0,-1.30734 1.070066,-2.36344 2.400669,-2.36344 1.307341,0 2.382059,1.0561 2.382059,2.36344 m 0,0"
         id="path46"
         inkscape:connector-curvature="0"
         style="fill:#000000;fill-opacity:0.49019608;fill-rule:nonzero;stroke:none" />
    </g>
    <g
       style="fill:#ffffff"
       transform="matrix(2.5804724,0,0,2.5804724,548.59564,-1174.812)"
       id="g40">
      <path
         style="fill:#ffffff;fill-opacity:1;fill-rule:nonzero;stroke:none"
         inkscape:connector-curvature="0"
         id="path57"
         d="m -74.298444,498.89129 c -4.471012,0.0744 -8.886195,3.05201 -9.598022,8.57913 -1.125895,8.84898 7.341582,5.52712 14.096952,5.52712 6.77863,0 9.01646,14.35749 7.28575,22.09918 -1.01889,4.61524 -7.88592,12.99432 -21.824685,15.12049 v 4.94557 c 4.745508,0.90723 8.141805,3.43351 8.141805,6.54135 0,3.12646 -3.396297,5.65274 -8.141805,6.54136 v 32.70679 c 18.702885,-12.81288 31.404095,-36.45667 31.404095,-58.88152 0,-3.76384 -0.47455,-7.4672 -1.16311,-11.04959 -0.61878,-1.8005 -1.08868,-3.74523 -1.60045,-5.37824 -0.81883,-2.94501 -1.81911,-5.39686 -2.61933,-7.70448 -0.0186,-0.0744 0.0372,-0.20005 0,-0.2931 -3.2009,-6.97869 -7.66726,-13.23159 -13.2316,-18.46561 -0.0186,-0.0372 -0.107,0.0372 -0.14422,0 -0.87466,-0.21867 -1.70745,-0.30706 -2.61934,-0.2931 m -74.997636,38.38278 c -15.86488,1.05611 -23.95085,10.63087 -24.53241,10.90536 2.07034,19.87996 14.26444,40.94629 31.4041,52.7775 v -32.70679 c -4.7269,-0.88862 -8.14181,-3.4149 -8.14181,-6.52275 0,-3.12645 3.41491,-5.65273 8.14181,-6.54135 V 537.4276 c -2.43324,-0.20005 -4.74551,-0.27449 -6.87169,-0.093 m 13.85037,1.25617 v 16.59066 c 4.70829,0.87467 8.14181,3.43352 8.14181,6.54136 0,3.10785 -3.45213,5.65274 -8.14181,6.52275 v 36.94517 c 5.81558,2.92641 12.1057,4.61524 18.60984,5.08979 v -9.44915 c -4.7269,-0.88861 -8.1418,-3.4149 -8.1418,-6.54135 0,-3.10784 3.4149,-5.63412 8.1418,-6.54135 v -42.45369 c -1.92612,-0.72578 -3.94529,-1.54462 -5.9598,-2.47046 -4.55941,-2.03777 -8.72336,-3.3265 -12.65004,-4.21512 m 25.58853,9.03042 v 40.12746 c 4.70829,0.87466 8.1418,3.43351 8.1418,6.54136 0,3.10783 -3.45212,5.65274 -8.1418,6.52274 v 9.44914 c 6.52274,-0.48851 12.738429,-2.30761 18.609832,-5.23402 V 568.2641 c -4.726898,-0.87466 -8.141803,-3.41491 -8.141803,-6.52275 0,-3.10784 3.414905,-5.67134 8.141803,-6.54136 v -4.50823 c -5.378242,-0.0186 -11.556712,-0.94445 -18.609832,-3.05201 m 0,0" />
      <path
         style="fill:#ffffff;fill-opacity:1;fill-rule:nonzero;stroke:none"
         inkscape:connector-curvature="0"
         id="path59"
         d="m -83.654538,519.90179 c 0,1.83772 -1.507396,3.3079 -3.382337,3.3079 -1.851679,0 -3.382338,-1.47018 -3.382338,-3.3079 0,-1.83772 1.526007,-3.3079 3.382338,-3.3079 1.870288,0 3.382337,1.47018 3.382337,3.3079 m 0,0" />
      <path
         style="fill:#ffffff;fill-opacity:1;fill-rule:nonzero;stroke:none"
         inkscape:connector-curvature="0"
         id="path61"
         d="m -90.43317,507.88914 c 0,1.28874 -1.070066,2.34484 -2.382059,2.34484 -1.325951,0 -2.400669,-1.0561 -2.400669,-2.34484 0,-1.30734 1.070066,-2.36344 2.400669,-2.36344 1.307341,0 2.382059,1.0561 2.382059,2.36344 m 0,0" />
    </g>
  </g>
</svg>
