<?xml version="1.0" encoding="UTF-8" standalone="no"?>
<!-- Created with Inkscape (http://www.inkscape.org/) -->

<svg
   xmlns:dc="http://purl.org/dc/elements/1.1/"
   xmlns:cc="http://creativecommons.org/ns#"
   xmlns:rdf="http://www.w3.org/1999/02/22-rdf-syntax-ns#"
   xmlns:svg="http://www.w3.org/2000/svg"
   xmlns="http://www.w3.org/2000/svg"
   xmlns:sodipodi="http://sodipodi.sourceforge.net/DTD/sodipodi-0.dtd"
   xmlns:inkscape="http://www.inkscape.org/namespaces/inkscape"
   id="svg2"
   version="1.1"
   inkscape:version="0.92.2 2405546, 2018-03-11"
   width="512"
   height="512"
   sodipodi:docname="virtaal.svg">
  <metadata
     id="metadata8">
    <rdf:RDF>
      <cc:Work
         rdf:about="">
        <dc:format>image/svg+xml</dc:format>
        <dc:type
           rdf:resource="http://purl.org/dc/dcmitype/StillImage" />
        <dc:title></dc:title>
      </cc:Work>
    </rdf:RDF>
  </metadata>
  <defs
     id="defs6" />
  <sodipodi:namedview
     pagecolor="#ffffff"
     bordercolor="#666666"
     borderopacity="1"
     objecttolerance="10"
     gridtolerance="10"
     guidetolerance="10"
     inkscape:pageopacity="0"
     inkscape:pageshadow="2"
     inkscape:window-width="1135"
     inkscape:window-height="616"
     id="namedview4"
     showgrid="false"
     inkscape:zoom="0.32593203"
     inkscape:cx="553.11402"
     inkscape:cy="126.89478"
     inkscape:window-x="15"
     inkscape:window-y="39"
     inkscape:window-maximized="0"
     inkscape:current-layer="svg2" />
  <g
     id="g841">
    <path
       style="fill:#3689e6;fill-opacity:1;stroke-width:11.10955811;image-rendering:optimizeSpeed"
       inkscape:connector-curvature="0"
       d="M 432.91381,56.473967 C 535.10672,145.04856 538.74058,306.17367 441.03061,416.37276 343.32045,526.57184 181.27967,544.10061 79.086756,455.52602 -23.10619,366.95143 -26.740055,205.82631 70.969956,95.627227 168.67993,-14.571854 330.72064,-32.100623 432.91381,56.473967 Z"
       id="path911" />
    <path
       style="opacity:1;fill:#000000;fill-opacity:0.49019608;stroke-width:11.10955811;image-rendering:optimizeSpeed"
       inkscape:connector-curvature="0"
       d="m 511.63554,224.90352 c -1.5514,61.31166 -25.16123,124.1546 -70.96638,175.81449 C 342.95919,510.9171 180.91872,528.44585 78.725809,439.87127 30.827155,398.35564 4.4968525,340.92283 0.19385858,280.22879 0.79911014,346.58547 27.117442,410.48219 79.078713,455.51904 181.27163,544.09362 343.31978,526.5562 441.02206,416.36578 490.727,360.30764 514.02708,291.07481 511.63554,224.90352 Z"
       id="path913" />
    <path
       style="fill:#000000;fill-opacity:0.49019608;fill-rule:nonzero;stroke:none;stroke-width:1.08792508"
       d="m 285.19707,150.04177 c -24.22108,-0.003 -47.57994,4.77316 -67.59112,14.0915 -31.12152,14.49192 -54.11472,35.73298 -66.5183,61.44833 -9.6765,20.06152 -12.21303,31.23789 -12.38493,54.56001 -0.13818,18.74671 1.49209,27.07198 8.14548,41.58688 2.60652,5.68633 4.74065,11.2195 4.74065,12.29381 0,6.49141 -13.24744,23.08513 -24.36188,30.51914 -10.78497,7.21366 -9.55965,12.2352 4.08413,16.74451 17.32001,5.72432 50.83678,6.10918 64.95259,0.74559 l 5.32676,-2.02342 7.07474,3.51458 c 17.06548,8.47745 34.93586,14.32997 51.71851,16.9392 11.55039,1.79576 37.64482,2.07976 48.78588,0.5302 25.91113,-3.60392 52.72011,-14.44554 72.98623,-29.51261 23.51157,-17.47992 39.66697,-40.16318 47.41277,-66.57008 C 431.73516,297.52314 432,294.38699 432,275.94978 c 0,-18.43721 -0.26484,-21.57543 -2.43142,-28.9617 -9.92337,-33.83067 -33.29964,-60.99524 -67.77958,-78.7624 -16.0411,-8.26583 -24.22793,-11.31279 -38.17792,-14.20955 -12.8021,-2.65839 -25.72678,-3.9728 -38.41401,-3.97436 z m 1.06038,24.35774 c 24.20379,0 48.40627,6.53018 70.38704,19.59015 11.73016,6.96953 29.09389,24.33746 36.01573,36.02401 17.3681,29.32364 17.3681,63.6069 0,92.93053 -6.92184,11.68655 -24.28557,29.0545 -36.01573,36.02402 -26.70415,15.86641 -56.445,22.22408 -87.24961,18.65196 -17.37342,-2.01464 -37.08553,-8.88345 -53.52654,-18.65196 -11.73016,-6.96952 -29.09389,-24.33747 -36.01573,-36.02402 -17.3681,-29.32363 -17.3681,-63.60689 0,-92.93053 6.92184,-11.68655 24.28557,-29.05449 36.01573,-36.02401 21.98077,-13.05997 46.18531,-19.59015 70.38911,-19.59015 z"
       id="path27"
       inkscape:connector-curvature="0" />
    <path
       inkscape:connector-curvature="0"
       id="path3005"
       d="m 265.19707,130.04177 c -24.22108,-0.003 -47.57994,4.77316 -67.59112,14.0915 -31.12152,14.49192 -54.11472,35.73298 -66.5183,61.44833 -9.6765,20.06152 -12.21303,31.23789 -12.38493,54.56001 -0.13818,18.74671 1.49209,27.07198 8.14548,41.58688 2.60652,5.68633 4.74065,11.2195 4.74065,12.29381 0,6.49141 -13.24744,23.08513 -24.36188,30.51914 -10.784973,7.21366 -9.559653,12.2352 4.08413,16.74451 17.32001,5.72432 50.83678,6.10918 64.95259,0.74559 l 5.32676,-2.02342 7.07474,3.51458 c 17.06548,8.47745 34.93586,14.32997 51.71851,16.9392 11.55039,1.79576 37.64482,2.07976 48.78588,0.5302 25.91113,-3.60392 52.72011,-14.44554 72.98623,-29.51261 23.51157,-17.47992 39.66697,-40.16318 47.41277,-66.57008 C 411.73516,277.52314 412,274.38699 412,255.94978 c 0,-18.43721 -0.26484,-21.57543 -2.43142,-28.9617 -9.92337,-33.83067 -33.29964,-60.99524 -67.77958,-78.7624 -16.0411,-8.26583 -24.22793,-11.31279 -38.17792,-14.20955 -12.8021,-2.65839 -25.72678,-3.9728 -38.41401,-3.97436 z m 1.06038,24.35774 c 24.20379,0 48.40627,6.53018 70.38704,19.59015 11.73016,6.96953 29.09389,24.33746 36.01573,36.02401 17.3681,29.32364 17.3681,63.6069 0,92.93053 -6.92184,11.68655 -24.28557,29.0545 -36.01573,36.02402 -26.70415,15.86641 -56.445,22.22408 -87.24961,18.65196 -17.37342,-2.01464 -37.08553,-8.88345 -53.52654,-18.65196 -11.73016,-6.96952 -29.09389,-24.33747 -36.01573,-36.02402 -17.3681,-29.32363 -17.3681,-63.60689 0,-92.93053 6.92184,-11.68655 24.28557,-29.05449 36.01573,-36.02401 21.98077,-13.05997 46.18531,-19.59015 70.38911,-19.59015 z"
       style="fill:#ffffff;fill-opacity:1;fill-rule:nonzero;stroke:none;stroke-width:1.08792508" />
  </g>
</svg>
