<?xml version="1.0" encoding="UTF-8" standalone="no"?>
<!-- Generator: flash2svg, http://dissentgraphics.com/tools/flash2svg -->

<svg
   xmlns:dc="http://purl.org/dc/elements/1.1/"
   xmlns:cc="http://creativecommons.org/ns#"
   xmlns:rdf="http://www.w3.org/1999/02/22-rdf-syntax-ns#"
   xmlns:svg="http://www.w3.org/2000/svg"
   xmlns="http://www.w3.org/2000/svg"
   xmlns:sodipodi="http://sodipodi.sourceforge.net/DTD/sodipodi-0.dtd"
   xmlns:inkscape="http://www.inkscape.org/namespaces/inkscape"
   id="VirtualBox"
   version="1.1"
   style="image-rendering:optimizeSpeed"
   x="0px"
   y="0px"
   width="512"
   height="512"
   viewBox="0 0 512 512"
   enable-background="new 0 0 1024 1024"
   inkscape:version="0.92.2 2405546, 2018-03-11"
   sodipodi:docname="virtual-box.svg">
  <metadata
     id="metadata20">
    <rdf:RDF>
      <cc:Work
         rdf:about="">
        <dc:format>image/svg+xml</dc:format>
        <dc:type
           rdf:resource="http://purl.org/dc/dcmitype/StillImage" />
        <dc:title />
      </cc:Work>
    </rdf:RDF>
  </metadata>
  <sodipodi:namedview
     pagecolor="#ffffff"
     bordercolor="#666666"
     borderopacity="1"
     objecttolerance="10"
     gridtolerance="10"
     guidetolerance="10"
     inkscape:pageopacity="0"
     inkscape:pageshadow="2"
     inkscape:window-width="1366"
     inkscape:window-height="706"
     id="namedview18"
     showgrid="false"
     inkscape:zoom="0.52204368"
     inkscape:cx="-169.30727"
     inkscape:cy="393.30893"
     inkscape:window-x="0"
     inkscape:window-y="0"
     inkscape:window-maximized="1"
     inkscape:current-layer="VirtualBox" />
  <defs
     transform="matrix(1 0 0 1 0 0) "
     id="defs3" />
  <g
     style="image-rendering:optimizeSpeed"
     id="g849">
    <path
       style="fill:#3689e6;fill-opacity:1;stroke-width:11.10955811"
       inkscape:connector-curvature="0"
       d="M 432.91381,56.473967 C 535.10672,145.04856 538.74058,306.17367 441.03061,416.37276 343.32045,526.57184 181.27967,544.10061 79.086756,455.52602 -23.10619,366.95143 -26.740055,205.82631 70.969956,95.627227 168.67993,-14.571854 330.72064,-32.100623 432.91381,56.473967 Z"
       id="path911" />
    <path
       style="opacity:1;fill:#000000;fill-opacity:0.49019608;stroke-width:11.10955811"
       inkscape:connector-curvature="0"
       d="m 511.63554,224.90352 c -1.5514,61.31166 -25.16123,124.1546 -70.96638,175.81449 C 342.95919,510.9171 180.91872,528.44585 78.725809,439.87127 30.827155,398.35564 4.4968525,340.92283 0.19385858,280.22879 0.79911014,346.58547 27.117442,410.48219 79.078713,455.51904 181.27163,544.09362 343.31978,526.5562 441.02206,416.36578 490.727,360.30764 514.02708,291.07481 511.63554,224.90352 Z"
       id="path913" />
    <path
       style="fill:#000000;fill-opacity:0.49019608;stroke-width:1.50240517"
       d="m 276,120 a 156,156 0 0 0 -156,156 156,156 0 0 0 0.15625,4.43164 h 63.06055 a 12.50125,12.50125 0 0 1 12.07422,9.26367 l 9.19531,34.32031 30.17578,-139.38085 a 12.50125,12.50125 0 0 1 24.33203,-0.42969 l 20.76953,81.83203 17.88086,-82.75195 a 12.50125,12.50125 0 0 1 12.77735,-9.84375 12.50125,12.50125 0 0 1 11.2832,8.48632 l 32.34765,95.79493 h 77.86133 a 156,156 0 0 0 0.0859,-1.72266 156,156 0 0 0 -156,-156 z m 36.51172,112.8457 -19.55274,90.49219 a 12.50125,12.50125 0 0 1 -24.33398,0.43555 l -20.78125,-81.87305 -29.84766,137.87695 a 12.50125,12.50125 0 0 1 -24.29101,0.58985 L 173.625,305.43164 H 122.92383 A 156,156 0 0 0 276,432 156,156 0 0 0 429.53516,302.72266 h -84.45508 a 12.50125,12.50125 0 0 1 -11.84375,-8.50196 z"
       id="path843"
       inkscape:connector-curvature="0" />
    <path
       inkscape:connector-curvature="0"
       id="path836"
       d="m 256,100 a 156,156 0 0 0 -156,156 156,156 0 0 0 0.15625,4.43164 h 63.06055 a 12.50125,12.50125 0 0 1 12.07422,9.26367 l 9.19531,34.32031 30.17578,-139.38085 a 12.50125,12.50125 0 0 1 24.33203,-0.42969 l 20.76953,81.83203 17.88086,-82.75195 a 12.50125,12.50125 0 0 1 12.77735,-9.84375 12.50125,12.50125 0 0 1 11.2832,8.48632 l 32.34765,95.79493 h 77.86133 a 156,156 0 0 0 0.0859,-1.72266 156,156 0 0 0 -156,-156 z m 36.51172,112.8457 -19.55274,90.49219 a 12.50125,12.50125 0 0 1 -24.33398,0.43555 l -20.78125,-81.87305 -29.84766,137.87695 a 12.50125,12.50125 0 0 1 -24.29101,0.58985 L 153.625,285.43164 H 102.92383 A 156,156 0 0 0 256,412 156,156 0 0 0 409.53516,282.72266 h -84.45508 a 12.50125,12.50125 0 0 1 -11.84375,-8.50196 z"
       style="fill:#ffffff;fill-opacity:1;stroke-width:1.50240517" />
  </g>
</svg>
