<?xml version="1.0" encoding="UTF-8" standalone="no"?>
<!-- Created with Inkscape (http://www.inkscape.org/) -->

<svg
   xmlns:dc="http://purl.org/dc/elements/1.1/"
   xmlns:cc="http://creativecommons.org/ns#"
   xmlns:rdf="http://www.w3.org/1999/02/22-rdf-syntax-ns#"
   xmlns:svg="http://www.w3.org/2000/svg"
   xmlns="http://www.w3.org/2000/svg"
   xmlns:sodipodi="http://sodipodi.sourceforge.net/DTD/sodipodi-0.dtd"
   xmlns:inkscape="http://www.inkscape.org/namespaces/inkscape"
   id="svg2"
   version="1.1"
   inkscape:version="0.92.2 2405546, 2018-03-11"
   width="512"
   height="512"
   sodipodi:docname="visual-studio-code.svg"
   viewBox="0 0 512 512">
  <metadata
     id="metadata8">
    <rdf:RDF>
      <cc:Work
         rdf:about="">
        <dc:format>image/svg+xml</dc:format>
        <dc:type
           rdf:resource="http://purl.org/dc/dcmitype/StillImage" />
        <dc:title />
      </cc:Work>
    </rdf:RDF>
  </metadata>
  <defs
     id="defs6">
    <clipPath
       id="clipPath3947"
       clipPathUnits="userSpaceOnUse">
      <ellipse
         ry="212.23589"
         rx="203.24309"
         cy="256.47083"
         cx="256.52075"
         id="ellipse3949"
         style="opacity:1;fill:#ffc82d;fill-opacity:1;stroke:none;stroke-width:0;stroke-linecap:butt;stroke-linejoin:miter;stroke-miterlimit:4;stroke-dasharray:none;stroke-dashoffset:0;stroke-opacity:1" />
    </clipPath>
    <clipPath
       id="clipPath4806"
       clipPathUnits="userSpaceOnUse">
      <circle
         r="211.62711"
         cy="248.91539"
         cx="249.4608"
         id="circle4808"
         style="opacity:1;fill:#f6c439;fill-opacity:1;stroke:none;stroke-width:0;stroke-linecap:butt;stroke-linejoin:miter;stroke-miterlimit:4;stroke-dasharray:none;stroke-dashoffset:0;stroke-opacity:1" />
    </clipPath>
    <clipPath
       id="clipPath4837"
       clipPathUnits="userSpaceOnUse">
      <circle
         r="207.13615"
         cy="256"
         cx="256"
         id="circle4839"
         style="opacity:1;fill:#0fa15f;fill-opacity:1;stroke:none;stroke-width:0;stroke-linecap:butt;stroke-linejoin:miter;stroke-miterlimit:4;stroke-dasharray:none;stroke-dashoffset:0;stroke-opacity:1" />
    </clipPath>
    <clipPath
       id="clipPath5050"
       clipPathUnits="userSpaceOnUse">
      <path
         inkscape:connector-curvature="0"
         id="path5052"
         d="M 255.99999,45.26758 A 210.73167,210.73167 0 0 0 45.267565,256 210.73167,210.73167 0 0 0 255.99999,466.73242 210.73167,210.73167 0 0 0 466.73244,256 210.73167,210.73167 0 0 0 255.99999,45.26758 Z m 0,111.84375 A 98.888542,98.888542 0 0 1 354.88866,256 98.888542,98.888542 0 0 1 255.99999,354.88867 98.888542,98.888542 0 0 1 157.11132,256 98.888542,98.888542 0 0 1 255.99999,157.11133 Z"
         style="opacity:1;fill:#f9f9f9;fill-opacity:1;stroke:none;stroke-width:0;stroke-linecap:butt;stroke-linejoin:miter;stroke-miterlimit:4;stroke-dasharray:none;stroke-dashoffset:0;stroke-opacity:1" />
    </clipPath>
    <clipPath
       id="clipPath5127"
       clipPathUnits="userSpaceOnUse">
      <path
         inkscape:connector-curvature="0"
         id="path5129"
         d="M 255.99999,45.26758 A 210.73167,210.73167 0 0 0 45.26756,256 210.73167,210.73167 0 0 0 255.99999,466.73242 210.73167,210.73167 0 0 0 466.73244,256 210.73167,210.73167 0 0 0 255.99999,45.26758 Z m 0,111.84375 A 98.888542,98.888542 0 0 1 354.88864,256 98.888542,98.888542 0 0 1 255.99999,354.88867 98.888542,98.888542 0 0 1 157.11132,256 98.888542,98.888542 0 0 1 255.99999,157.11133 Z"
         style="opacity:1;fill:#f9f9f9;fill-opacity:1;stroke:none;stroke-width:0;stroke-linecap:butt;stroke-linejoin:miter;stroke-miterlimit:4;stroke-dasharray:none;stroke-dashoffset:0;stroke-opacity:1" />
    </clipPath>
  </defs>
  <sodipodi:namedview
     pagecolor="#ffffff"
     bordercolor="#666666"
     borderopacity="1"
     objecttolerance="10"
     gridtolerance="10"
     guidetolerance="10"
     inkscape:pageopacity="0"
     inkscape:pageshadow="2"
     inkscape:window-width="1366"
     inkscape:window-height="706"
     id="namedview4"
     showgrid="false"
     inkscape:zoom="0.65186406"
     inkscape:cx="383.17833"
     inkscape:cy="160.94604"
     inkscape:window-x="0"
     inkscape:window-y="0"
     inkscape:window-maximized="1"
     inkscape:current-layer="svg2"
     inkscape:document-units="px" />
  <g
     id="g882">
    <path
       style="fill:#3689e6;fill-opacity:1;stroke-width:11.10955143"
       inkscape:connector-curvature="0"
       d="M 432.91335,56.473972 C 535.10615,145.04856 538.74001,306.17367 441.03014,416.37276 343.32008,526.57182 181.27947,544.10062 79.086672,455.52602 -23.106166,366.95143 -26.740027,205.82631 70.96988,95.627232 c 97.70987,-110.19908 259.7504,-127.72785 361.94347,-39.15326 z"
       id="path911" />
    <path
       style="opacity:1;fill:#000000;fill-opacity:0.49019608;stroke-width:11.10955238"
       inkscape:connector-curvature="0"
       d="m 511.63499,224.90352 c -1.55139,61.31166 -25.1612,124.1546 -70.96631,175.81449 C 342.95881,510.91712 180.91852,528.44582 78.72572,439.87127 30.827117,398.35564 4.4968425,340.92283 0.1938533,280.22879 0.79910411,346.58547 27.117408,410.48219 79.078624,455.51904 181.27143,544.09362 343.31941,526.55622 441.02158,416.36578 490.72647,360.30764 514.02653,291.07481 511.63499,224.90352 Z"
       id="path913" />
    <path
       style="fill:#000000;fill-opacity:0.49019608;stroke:none;stroke-width:0.698a715epx;stroke-linecap:butt;stroke-linejoin:miter;stroke-opacity:1"
       d="m 120,197.50265 0.12602,156.63676 31.27462,-25.41841 V 223.68313 Z"
       id="path49"
       inkscape:connector-curvature="0" />
    <path
       style="fill:#000000;fill-opacity:0.49019608;stroke:none;stroke-width:0.698a715epx;stroke-linecap:butt;stroke-linejoin:miter;stroke-opacity:1"
       d="m 120.12602,354.13941 31.02542,15.69961 213.31532,-165.5935 -5.2332,-84.60344 z"
       id="path51"
       inkscape:connector-curvature="0" />
    <path
       id="path53"
       d="M 151.02539 181.80273 L 120 197.50195 L 359.10742 432 L 359.14258 343.36328 L 151.02539 181.80273 z "
       style="fill:#000000;fill-opacity:0.49019608;stroke:none;stroke-width:0.698a715epx;stroke-linecap:butt;stroke-linejoin:miter;stroke-opacity:1" />
    <path
       style="fill:#000000;fill-opacity:0.49019608;stroke:none;stroke-width:0.698a715epx;stroke-linecap:butt;stroke-linejoin:miter;stroke-opacity:1"
       d="M 359.10753,432 359.23356,119.64208 432,151.9135 431.5016,401.11364 Z"
       id="path55"
       inkscape:connector-curvature="0" />
    <g
       id="g47">
      <path
         style="fill:#ffffff;fill-opacity:1;stroke:none;stroke-width:0.698a715epx;stroke-linecap:butt;stroke-linejoin:miter;stroke-opacity:1"
         d="m 100,177.50265 0.12602,156.63676 31.27462,-25.41841 V 203.68313 Z"
         id="path4506"
         inkscape:connector-curvature="0" />
      <path
         style="fill:#ffffff;fill-opacity:1;stroke:none;stroke-width:0.698a715epx;stroke-linecap:butt;stroke-linejoin:miter;stroke-opacity:1"
         d="m 100.12602,334.13941 31.02542,15.69961 213.31532,-165.5935 -5.2332,-84.603444 z"
         id="path4489"
         inkscape:connector-curvature="0" />
      <path
         style="fill:#ffffff;fill-opacity:1;stroke:none;stroke-width:0.698a715epx;stroke-linecap:butt;stroke-linejoin:miter;stroke-opacity:1"
         d="M 100,177.50265 131.02542,161.80305 344.34073,327.39654 339.10753,412 Z"
         id="path4489-3"
         inkscape:connector-curvature="0" />
      <path
         style="fill:#ffffff;fill-opacity:1;stroke:none;stroke-width:0.698a715epx;stroke-linecap:butt;stroke-linejoin:miter;stroke-opacity:1"
         d="M 339.10753,412 339.23356,99.642076 412,131.9135 411.5016,381.11364 Z"
         id="path4508"
         inkscape:connector-curvature="0" />
    </g>
  </g>
</svg>
