<?xml version="1.0" encoding="UTF-8" standalone="no"?>
<!-- Created with Inkscape (http://www.inkscape.org/) -->

<svg
   xmlns:dc="http://purl.org/dc/elements/1.1/"
   xmlns:cc="http://creativecommons.org/ns#"
   xmlns:rdf="http://www.w3.org/1999/02/22-rdf-syntax-ns#"
   xmlns:svg="http://www.w3.org/2000/svg"
   xmlns="http://www.w3.org/2000/svg"
   xmlns:sodipodi="http://sodipodi.sourceforge.net/DTD/sodipodi-0.dtd"
   xmlns:inkscape="http://www.inkscape.org/namespaces/inkscape"
   id="svg2"
   version="1.1"
   inkscape:version="0.92.2 2405546, 2018-03-11"
   width="512"
   height="512"
   sodipodi:docname="vuze.svg">
  <metadata
     id="metadata8">
    <rdf:RDF>
      <cc:Work
         rdf:about="">
        <dc:format>image/svg+xml</dc:format>
        <dc:type
           rdf:resource="http://purl.org/dc/dcmitype/StillImage" />
        <dc:title></dc:title>
      </cc:Work>
    </rdf:RDF>
  </metadata>
  <defs
     id="defs6" />
  <sodipodi:namedview
     pagecolor="#ffffff"
     bordercolor="#666666"
     borderopacity="1"
     objecttolerance="10"
     gridtolerance="10"
     guidetolerance="10"
     inkscape:pageopacity="0"
     inkscape:pageshadow="2"
     inkscape:window-width="1366"
     inkscape:window-height="706"
     id="namedview4"
     showgrid="false"
     inkscape:zoom="0.4609375"
     inkscape:cx="844.28224"
     inkscape:cy="443.91434"
     inkscape:window-x="0"
     inkscape:window-y="0"
     inkscape:window-maximized="1"
     inkscape:current-layer="svg2" />
  <g
     transform="translate(3.8414044e-8,-4.7294499e-6)"
     id="g848">
    <path
       id="path1165"
       d="M 432.91328,56.474957 C 535.10618,145.04846 538.74005,306.17452 441.03006,416.37299 343.32007,526.57148 181.27962,544.10044 79.086743,455.52694 -23.106206,366.95112 -26.740033,205.82738 70.969944,95.626584 168.67988,-14.571874 330.72033,-32.100857 432.91328,56.474957 Z"
       inkscape:connector-curvature="0"
       style="fill:#3689e6;fill-opacity:1;stroke-width:11.10954762" />
    <path
       id="path1167"
       d="M 511.63552,224.904 C 510.08416,286.21587 486.47428,349.05909 440.66913,400.71745 342.95911,510.91591 180.91867,528.44488 78.725762,439.87141 30.827125,398.35528 4.4968196,340.92296 0.19382737,280.22782 0.79908097,346.58521 27.117406,410.48267 79.078693,455.51763 181.27157,544.09344 343.31972,526.55518 441.02203,416.366 490.72697,360.30678 514.02704,291.07521 511.63552,224.904 Z"
       inkscape:connector-curvature="0"
       style="opacity:1;fill:#000000;fill-opacity:0.49019608;stroke-width:11.10954762" />
    <path
       style="fill:#000000;fill-opacity:0.49019608;stroke-width:0.69333333"
       d="m 300.05311,431.78621 c -1.00236,-0.18637 -6.62647,-2.58871 -12.49796,-5.33856 -15.24855,-7.14142 -21.35823,-8.53948 -37.34897,-8.54642 -24.19592,-0.0105 -28.95447,-2.04389 -39.97611,-17.08232 -3.66399,-4.9993 -4.09943,-5.33964 -8.92222,-6.97372 -8.82811,-2.99119 -16.63688,-9.44741 -20.51854,-16.96453 -1.95415,-3.78436 -2.3061,-6.50479 -1.48785,-11.50059 0.51138,-3.12222 0.4349,-3.40617 -0.91741,-3.40617 -3.23725,0 -9.60656,-3.05143 -12.85839,-6.16024 -3.72492,-3.56111 -6.91827,-9.67849 -7.44307,-14.25843 l -0.34406,-3.00276 -7.39122,0.3137 c -10.99565,0.46669 -17.91474,-1.51827 -23.95139,-6.87119 -4.23014,-3.75103 -6.38697,-8.65834 -6.39583,-14.55211 -0.006,-4.06683 0.28349,-5.12625 2.0583,-7.52942 1.13599,-1.53816 2.66877,-3.2807 3.4062,-3.87229 2.1131,-1.69521 6.72778,-9.08907 8.37406,-13.41733 0.82545,-2.17018 2.32917,-7.8643 3.34159,-12.65358 1.01243,-4.78928 2.67996,-10.4254 3.70565,-12.5247 3.30275,-6.75985 11.52581,-10.98312 21.47912,-11.03144 7.50003,-0.0365 11.93137,1.50138 15.95892,5.53816 1.76419,1.76822 3.62727,3.21496 4.14016,3.21496 0.72072,0 4.31877,-5.90991 6.65214,-10.92632 0.13523,-0.2907 -0.8764,-1.17989 -2.24805,-1.97597 -3.09041,-1.79361 -4.18221,-4.05624 -4.18221,-8.66707 0,-8.38426 4.49955,-12.36487 20.66823,-18.28454 5.158,-1.88845 6.07155,-2.52437 9.23926,-6.43144 5.93438,-7.31952 13.22596,-19.26363 22.74333,-37.25523 5.00718,-9.46554 10.79159,-20.14644 12.85425,-23.73534 2.06265,-3.58889 5.21895,-10.36536 7.014,-15.05881 4.4906,-11.74147 5.69665,-12.77605 19.11278,-16.39537 22.7405,-6.13481 29.27281,-7.16068 38.466,-6.04094 15.75967,1.91954 24.29276,8.03747 31.39296,22.50779 5.9453,12.11644 7.157,19.48318 5.0719,30.83472 -0.5795,3.15518 -1.0658,10.09299 -1.0807,15.41736 -0.03,10.57176 -1.1661,17.44685 -3.6884,22.31035 -0.8846,1.70558 -5.5837,6.98896 -10.4424,11.74086 -4.85866,4.75188 -9.78369,10.00989 -10.94433,11.68446 l -2.11037,3.04469 1.28454,4.66818 c 1.75379,6.37311 5.55145,13.94631 8.72796,17.40492 1.4503,1.57909 4.7569,4.40211 7.348,6.27336 3.3885,2.44712 5.9437,5.17253 9.1015,9.70779 6.1136,8.78038 11.2725,12.07944 19.8344,12.68402 4.7982,0.3388 4.9479,0.29606 7.397,-2.11309 2.6642,-2.62068 3.5257,-4.91811 4.9323,-13.15214 0.8283,-4.84928 0.784,-5.36806 -0.6989,-8.16649 -2.8205,-5.32276 -1.9672,-7.33917 4.081,-9.64518 6.2043,-2.36548 13.2893,-1.00369 13.2893,2.55432 0,0.82973 -1.972,4.17855 -4.3823,7.44184 -5.3303,7.21667 -8.7382,14.08961 -8.739,17.62468 0,5.02996 6.0958,9.30974 11.4538,8.04007 4.3086,-1.02102 9.4261,-4.21443 14.754,-9.20689 6.2316,-5.83917 9.3315,-7.23604 14.6762,-6.61338 5.2235,0.60854 7.9577,2.22664 7.9577,4.70932 0,4.9765 -5.441,8.07409 -17.1312,9.75292 -10.3882,1.49186 -14.4058,3.32251 -19.8045,9.02405 -8.2655,8.72943 -10.0455,10.20757 -15.1415,12.57449 -7.5173,3.49158 -16.741,4.90064 -27.3825,4.18308 -12.2055,-0.82302 -16.6196,-0.67218 -21.51389,0.7352 -6.0987,1.75371 -13.7452,1.84645 -15.43873,0.18723 -1.72973,-1.69465 -0.73612,-3.25039 3.46535,-5.4261 3.00497,-1.55615 3.82096,-1.64666 11.5128,-1.27712 9.69707,0.46589 12.85577,-0.36456 13.68047,-3.59672 1.205,-4.72278 -8.4091,-17.18105 -19.6853,-25.50876 -7.76672,-5.73588 -10.27263,-8.10217 -12.98814,-12.26446 -1.40823,-2.15858 -2.5064,-3.19522 -2.93654,-2.77209 -0.37794,0.37175 -1.32067,4.82754 -2.09498,9.90176 -2.54779,16.69586 -6.7729,28.56759 -13.89447,39.04066 -7.0019,10.29706 -14.12147,16.17233 -30.75594,25.38068 -1.94438,1.07635 -3.25657,2.19603 -2.91595,2.48817 0.3406,0.29214 2.9156,1.26655 5.7222,2.16536 5.31236,1.70127 23.82782,10.4696 29.52404,13.98163 11.71824,7.22498 22.10167,19.40421 23.70348,27.80299 0.64778,3.39665 -0.6855,7.27353 -3.15758,9.18133 l -1.95673,1.51009 2.58288,-0.33988 c 4.42506,-0.58232 13.21999,-4.66885 18.84033,-8.75415 4.5861,-3.33356 5.8574,-3.91453 8.5656,-3.91453 3.702,0 6.0961,1.84401 6.0961,4.6953 0,2.8354 -3.0743,5.05283 -8.9596,6.46244 -2.8906,0.69232 -7.7203,2.29237 -10.73262,3.55564 -6.27481,2.63147 -15.13443,4.64161 -31.51297,7.14992 -12.24995,1.87602 -15.86174,3.10663 -15.86174,5.4044 0,2.21912 2.267,3.91792 8.098,6.06835 15.53191,5.72805 20.33255,8.34866 20.33255,11.09925 0,0.70543 -0.49219,1.68448 -1.09387,2.17563 -1.19378,0.97463 -6.21573,1.51015 -9.11192,0.97169 z"
       id="path842"
       inkscape:connector-curvature="0" />
    <path
       inkscape:connector-curvature="0"
       id="path2982"
       d="m 280.05311,411.78621 c -1.00236,-0.18637 -6.62647,-2.58871 -12.49796,-5.33856 -15.24855,-7.14142 -21.35823,-8.53948 -37.34897,-8.54642 -24.19592,-0.0105 -28.95447,-2.04389 -39.97611,-17.08232 -3.66399,-4.9993 -4.09943,-5.33964 -8.92222,-6.97372 -8.82811,-2.99119 -16.63688,-9.44741 -20.51854,-16.96453 -1.95415,-3.78436 -2.3061,-6.50479 -1.48785,-11.50059 0.51138,-3.12222 0.4349,-3.40617 -0.91741,-3.40617 -3.23725,0 -9.60656,-3.05143 -12.85839,-6.16024 -3.72492,-3.56111 -6.91827,-9.67849 -7.44307,-14.25843 l -0.34406,-3.00276 -7.39122,0.3137 c -10.99565,0.46669 -17.91474,-1.51827 -23.95139,-6.87119 -4.23014,-3.75103 -6.38697,-8.65834 -6.39583,-14.55211 -0.006,-4.06683 0.28349,-5.12625 2.0583,-7.52942 1.13599,-1.53816 2.66877,-3.2807 3.4062,-3.87229 2.1131,-1.69521 6.72778,-9.08907 8.37406,-13.41733 0.82545,-2.17018 2.32917,-7.8643 3.34159,-12.65358 1.01243,-4.78928 2.67996,-10.4254 3.70565,-12.5247 3.30275,-6.75985 11.52581,-10.98312 21.47912,-11.03144 7.50003,-0.0365 11.93137,1.50138 15.95892,5.53816 1.76419,1.76822 3.62727,3.21496 4.14016,3.21496 0.72072,0 4.31877,-5.90991 6.65214,-10.92632 0.13523,-0.2907 -0.8764,-1.17989 -2.24805,-1.97597 -3.09041,-1.79361 -4.18221,-4.05624 -4.18221,-8.66707 0,-8.38426 4.49955,-12.36487 20.66823,-18.28454 5.158,-1.88845 6.07155,-2.52437 9.23926,-6.43144 5.93438,-7.31952 13.22596,-19.26363 22.74333,-37.25523 5.00718,-9.46554 10.79159,-20.14644 12.85425,-23.73534 2.06265,-3.58889 5.21895,-10.36536 7.014,-15.05881 4.4906,-11.74147 5.69665,-12.77605 19.11278,-16.39537 22.7405,-6.13481 29.27281,-7.160679 38.466,-6.04094 15.75967,1.91954 24.29276,8.03747 31.39296,22.50779 5.9453,12.11644 7.157,19.48318 5.0719,30.83472 -0.5795,3.15518 -1.0658,10.09299 -1.0807,15.41736 -0.03,10.57176 -1.1661,17.44685 -3.6884,22.31035 -0.8846,1.70558 -5.5837,6.98896 -10.4424,11.74086 -4.85866,4.75188 -9.78369,10.00989 -10.94433,11.68446 l -2.11037,3.04469 1.28454,4.66818 c 1.75379,6.37311 5.55145,13.94631 8.72796,17.40492 1.4503,1.57909 4.7569,4.40211 7.348,6.27336 3.3885,2.44712 5.9437,5.17253 9.1015,9.70779 6.1136,8.78038 11.2725,12.07944 19.8344,12.68402 4.7982,0.3388 4.9479,0.29606 7.397,-2.11309 2.6642,-2.62068 3.5257,-4.91811 4.9323,-13.15214 0.8283,-4.84928 0.784,-5.36806 -0.6989,-8.16649 -2.8205,-5.32276 -1.9672,-7.33917 4.081,-9.64518 6.2043,-2.36548 13.2893,-1.00369 13.2893,2.55432 0,0.82973 -1.972,4.17855 -4.3823,7.44184 -5.3303,7.21667 -8.7382,14.08961 -8.739,17.62468 0,5.02996 6.0958,9.30974 11.4538,8.04007 4.3086,-1.02102 9.4261,-4.21443 14.754,-9.20689 6.2316,-5.83917 9.3315,-7.23604 14.6762,-6.61338 5.2235,0.60854 7.9577,2.22664 7.9577,4.70932 0,4.9765 -5.441,8.07409 -17.1312,9.75292 -10.3882,1.49186 -14.4058,3.32251 -19.8045,9.02405 -8.2655,8.72943 -10.0455,10.20757 -15.1415,12.57449 -7.5173,3.49158 -16.741,4.90064 -27.3825,4.18308 -12.2055,-0.82302 -16.6196,-0.67218 -21.51389,0.7352 -6.0987,1.75371 -13.7452,1.84645 -15.43873,0.18723 -1.72973,-1.69465 -0.73612,-3.25039 3.46535,-5.4261 3.00497,-1.55615 3.82096,-1.64666 11.5128,-1.27712 9.69707,0.46589 12.85577,-0.36456 13.68047,-3.59672 1.205,-4.72278 -8.4091,-17.18105 -19.6853,-25.50876 -7.76672,-5.73588 -10.27263,-8.10217 -12.98814,-12.26446 -1.40823,-2.15858 -2.5064,-3.19522 -2.93654,-2.77209 -0.37794,0.37175 -1.32067,4.82754 -2.09498,9.90176 -2.54779,16.69586 -6.7729,28.56759 -13.89447,39.04066 -7.0019,10.29706 -14.12147,16.17233 -30.75594,25.38068 -1.94438,1.07635 -3.25657,2.19603 -2.91595,2.48817 0.3406,0.29214 2.9156,1.26655 5.7222,2.16536 5.31236,1.70127 23.82782,10.4696 29.52404,13.98163 11.71824,7.22498 22.10167,19.40421 23.70348,27.80299 0.64778,3.39665 -0.6855,7.27353 -3.15758,9.18133 l -1.95673,1.51009 2.58288,-0.33988 c 4.42506,-0.58232 13.21999,-4.66885 18.84033,-8.75415 4.5861,-3.33356 5.8574,-3.91453 8.5656,-3.91453 3.702,0 6.0961,1.84401 6.0961,4.6953 0,2.8354 -3.0743,5.05283 -8.9596,6.46244 -2.8906,0.69232 -7.7203,2.29237 -10.73262,3.55564 -6.27481,2.63147 -15.13443,4.64161 -31.51297,7.14992 -12.24995,1.87602 -15.86174,3.10663 -15.86174,5.4044 0,2.21912 2.267,3.91792 8.098,6.06835 15.53191,5.72805 20.33255,8.34866 20.33255,11.09925 0,0.70543 -0.49219,1.68448 -1.09387,2.17563 -1.19378,0.97463 -6.21573,1.51015 -9.11192,0.97169 z"
       style="fill:#ffffff;fill-opacity:1;stroke-width:0.69333333" />
  </g>
</svg>
