<?xml version="1.0" encoding="UTF-8" standalone="no"?>
<svg
   xmlns:dc="http://purl.org/dc/elements/1.1/"
   xmlns:cc="http://creativecommons.org/ns#"
   xmlns:rdf="http://www.w3.org/1999/02/22-rdf-syntax-ns#"
   xmlns:svg="http://www.w3.org/2000/svg"
   xmlns="http://www.w3.org/2000/svg"
   xmlns:sodipodi="http://sodipodi.sourceforge.net/DTD/sodipodi-0.dtd"
   xmlns:inkscape="http://www.inkscape.org/namespaces/inkscape"
   viewBox="0 0 512 512"
   id="svg2"
   version="1.1"
   inkscape:version="0.92.2 2405546, 2018-03-11"
   width="512"
   height="512"
   sodipodi:docname="wacom-tablet.svg">
  <metadata
     id="metadata77">
    <rdf:RDF>
      <cc:Work
         rdf:about="">
        <dc:format>image/svg+xml</dc:format>
        <dc:type
           rdf:resource="http://purl.org/dc/dcmitype/StillImage" />
        <dc:title />
      </cc:Work>
    </rdf:RDF>
  </metadata>
  <sodipodi:namedview
     pagecolor="#ffffff"
     bordercolor="#666666"
     borderopacity="1"
     objecttolerance="10"
     gridtolerance="10"
     guidetolerance="10"
     inkscape:pageopacity="0"
     inkscape:pageshadow="2"
     inkscape:window-width="1366"
     inkscape:window-height="706"
     id="namedview75"
     showgrid="false"
     inkscape:zoom="0.43457604"
     inkscape:cx="-240.59948"
     inkscape:cy="288.81366"
     inkscape:window-x="0"
     inkscape:window-y="0"
     inkscape:window-maximized="1"
     inkscape:current-layer="g59"
     units="px" />
  <defs
     id="defs4">
    <linearGradient
       id="linearGradient3764"
       y1="47"
       x2="0"
       y2="1"
       gradientUnits="userSpaceOnUse">
      <stop
         stop-color="#a2e7e8"
         stop-opacity="1"
         id="stop7" />
      <stop
         offset="1"
         stop-color="#b2ecec"
         stop-opacity="1"
         id="stop9" />
    </linearGradient>
    <clipPath
       id="clipPath-599798769">
      <g
         transform="translate(0,-1004.3622)"
         id="g12">
        <path
           d="m -24,13 c 0,1.105 -0.672,2 -1.5,2 -0.828,0 -1.5,-0.895 -1.5,-2 0,-1.105 0.672,-2 1.5,-2 0.828,0 1.5,0.895 1.5,2 z"
           transform="matrix(15.333333,0,0,11.5,414.99999,878.8622)"
           id="path14"
           inkscape:connector-curvature="0"
           style="fill:#1890d0" />
      </g>
    </clipPath>
    <clipPath
       id="clipPath-609371321">
      <g
         transform="translate(0,-1004.3622)"
         id="g17">
        <path
           d="m -24,13 c 0,1.105 -0.672,2 -1.5,2 -0.828,0 -1.5,-0.895 -1.5,-2 0,-1.105 0.672,-2 1.5,-2 0.828,0 1.5,0.895 1.5,2 z"
           transform="matrix(15.333333,0,0,11.5,414.99999,878.8622)"
           id="path19"
           inkscape:connector-curvature="0"
           style="fill:#1890d0" />
      </g>
    </clipPath>
  </defs>
  <g
     id="g33"
     transform="translate(0,963)" />
  <g
     id="g55"
     transform="matrix(1.0391134,0,0,1,-0.4302477,963)">
    <g
       id="g59">
      <g
         id="g46">
        <path
           id="path1148"
           d="m 417.03191,-906.52603 c 98.34643,88.57459 101.84333,249.69971 7.81135,359.89879 -94.03195,110.19908 -249.97301,127.72785 -348.319483,39.15326 -98.346105,-88.57459 -101.843331,-249.6997 -7.811019,-359.89879 94.031952,-110.19908 249.973012,-127.72785 348.319152,-39.15326 z"
           inkscape:connector-curvature="0"
           style="fill:#3689e6;fill-opacity:1;stroke-width:10.8984642" />
        <path
           id="path1150"
           d="m 492.79098,-738.09648 c -1.49277,61.31165 -24.21398,124.15461 -68.29505,175.81448 -94.03195,110.19912 -249.97304,127.72785 -348.319511,39.15329 -46.095747,-41.51565 -71.4347323,-98.94844 -75.57575489,-159.64248 0.58232559,66.35668 25.91003489,130.25337 75.91547489,175.29026 98.346111,88.57455 254.294801,71.03713 348.319511,-39.1533 47.83399,-56.0581 70.25698,-125.29096 67.95533,-191.46225 z"
           inkscape:connector-curvature="0"
           style="opacity:1;fill:#000000;fill-opacity:0.49019608;stroke-width:10.8984642" />
        <path
           style="fill:#000000;fill-opacity:0.49019608;stroke-width:0.5987643"
           d="m 116.65778,-784.813 c 1.3974,-6.10825 5.72087,-11.61024 11.40822,-14.51796 l 2.93694,-1.50154 H 266.39567 401.7884 l 2.77083,1.33015 c 4.13236,1.98374 8.25906,6.31697 10.22245,10.73408 l 1.69139,3.80517 v 97.96307 97.96308 l -1.69139,3.80518 c -1.95477,4.39771 -5.7225,8.35661 -10.05635,10.56658 l -2.93693,1.49764 H 266.39567 131.00294 l -2.93694,-1.49764 c -4.33384,-2.20997 -8.10158,-6.16887 -10.05635,-10.56658 l -1.69139,-3.80518 -0.0924,-96.74235 c -0.0525,-54.98184 0.13394,-97.73144 0.43186,-99.0337 z m 9.19936,104.79367 c 4.50057,6.65399 13.51692,7.39449 18.6166,1.52897 2.63583,-3.03166 3.26973,-4.68144 3.26973,-8.50967 0,-3.82823 -0.6339,-5.47801 -3.26973,-8.50965 -5.98678,-6.88587 -17.50402,-4.2382 -20.25007,4.6552 -0.95746,3.10086 -0.20016,8.12417 1.63347,10.83515 z m 149.34934,85.79431 h 116.89003 v -92.77501 -92.77499 H 275.20648 158.31644 v 92.77499 92.77501 z"
           id="path846"
           inkscape:connector-curvature="0" />
        <path
           inkscape:connector-curvature="0"
           id="path844"
           d="m 97.410618,-804.81295 c 1.397403,-6.10826 5.720872,-11.61025 11.408222,-14.51797 l 2.93694,-1.50154 h 135.39273 135.39273 l 2.77083,1.33015 c 4.13236,1.98374 8.25906,6.31697 10.22245,10.73408 l 1.69139,3.80518 v 97.96306 97.96308 l -1.69139,3.80518 c -1.95477,4.39772 -5.7225,8.35661 -10.05635,10.56658 l -2.93693,1.49764 H 247.14851 111.75578 l -2.93694,-1.49764 c -4.33384,-2.20997 -8.10158,-6.16886 -10.056348,-10.56658 l -1.691394,-3.80518 -0.09239,-96.74234 c -0.05245,-54.98185 0.133941,-97.73145 0.431858,-99.0337 z m 9.199362,104.79366 c 4.50057,6.65399 13.51692,7.3945 18.6166,1.52897 2.63583,-3.03165 3.26973,-4.68143 3.26973,-8.50967 0,-3.82823 -0.6339,-5.47801 -3.26973,-8.50965 -5.98678,-6.88587 -17.50402,-4.2382 -20.25007,4.6552 -0.95746,3.10086 -0.20016,8.12417 1.63347,10.83515 z m 149.34934,85.79431 h 116.89003 v -92.77501 -92.77499 H 255.95932 139.06928 v 92.77499 92.77501 z"
           style="fill:#ffffff;stroke-width:0.5987643" />
      </g>
    </g>
  </g>
</svg>
