<?xml version="1.0" encoding="UTF-8" standalone="no"?>
<!-- Created with Inkscape (http://www.inkscape.org/) -->

<svg
   xmlns:a="http://ns.adobe.com/AdobeSVGViewerExtensions/3.0/"
   xmlns:dc="http://purl.org/dc/elements/1.1/"
   xmlns:cc="http://creativecommons.org/ns#"
   xmlns:rdf="http://www.w3.org/1999/02/22-rdf-syntax-ns#"
   xmlns:svg="http://www.w3.org/2000/svg"
   xmlns="http://www.w3.org/2000/svg"
   xmlns:xlink="http://www.w3.org/1999/xlink"
   xmlns:sodipodi="http://sodipodi.sourceforge.net/DTD/sodipodi-0.dtd"
   xmlns:inkscape="http://www.inkscape.org/namespaces/inkscape"
   version="1.0"
   width="512"
   height="512"
   viewBox="0 0 512 512"
   id="svg1966"
   xml:space="preserve"
   inkscape:version="0.92.2 2405546, 2018-03-11"
   sodipodi:docname="wallet-open.svg"><metadata
     id="metadata53"><rdf:RDF><cc:Work
         rdf:about=""><dc:format>image/svg+xml</dc:format><dc:type
           rdf:resource="http://purl.org/dc/dcmitype/StillImage" /><dc:title></dc:title></cc:Work></rdf:RDF></metadata><sodipodi:namedview
     pagecolor="#ffffff"
     bordercolor="#666666"
     borderopacity="1"
     objecttolerance="10"
     gridtolerance="10"
     guidetolerance="10"
     inkscape:pageopacity="0"
     inkscape:pageshadow="2"
     inkscape:window-width="1182"
     inkscape:window-height="635"
     id="namedview51"
     showgrid="false"
     inkscape:zoom="0.23704148"
     inkscape:cx="-33.702972"
     inkscape:cy="-120.60874"
     inkscape:window-x="15"
     inkscape:window-y="39"
     inkscape:window-maximized="0"
     inkscape:current-layer="svg1966" /><defs
     id="defs2020"><linearGradient
       id="linearGradient16538"><stop
         style="stop-color:#646464;stop-opacity:1"
         offset="0"
         id="stop16540" /><stop
         style="stop-color:black;stop-opacity:1"
         offset="0.5"
         id="stop16546" /><stop
         style="stop-color:#646464;stop-opacity:1"
         offset="1"
         id="stop16542" /></linearGradient><linearGradient
       x1="-39.000408"
       y1="-8.6369371"
       x2="57.486698"
       y2="65.651802"
       id="XMLID_5_"
       gradientUnits="userSpaceOnUse"
       gradientTransform="matrix(1.039286,0,0,1,-3.285736,-3.541)"><stop
         style="stop-color:#4d2600;stop-opacity:1"
         offset="0"
         id="stop1984" /><stop
         style="stop-color:#4d2600;stop-opacity:1"
         offset="1"
         id="stop1986" /><a:midPointStop
         offset="0"
         style="stop-color:#B3925D" /><a:midPointStop
         offset="0.5"
         style="stop-color:#B3925D" /><a:midPointStop
         offset="1"
         style="stop-color:#4D2600" /></linearGradient><radialGradient
       cx="-13"
       cy="0.91799998"
       r="116.4002"
       fx="-13"
       fy="0.91799998"
       id="XMLID_6_"
       gradientUnits="userSpaceOnUse"><stop
         style="stop-color:white;stop-opacity:1"
         offset="0"
         id="stop1991" /><stop
         style="stop-color:#803f00;stop-opacity:1"
         offset="1"
         id="stop1993" /><a:midPointStop
         offset="0"
         style="stop-color:#FFFFFF" /><a:midPointStop
         offset="0.5"
         style="stop-color:#FFFFFF" /><a:midPointStop
         offset="1"
         style="stop-color:#803F00" /></radialGradient><linearGradient
       x1="9.0341997"
       y1="45.680698"
       x2="17.070499"
       y2="57.161098"
       id="XMLID_7_"
       gradientUnits="userSpaceOnUse"
       gradientTransform="translate(-1,-3.541)"><stop
         style="stop-color:#b3925d;stop-opacity:1"
         offset="0"
         id="stop2002" /><stop
         style="stop-color:#4d2600;stop-opacity:1"
         offset="1"
         id="stop2004" /><a:midPointStop
         offset="0"
         style="stop-color:#B3925D" /><a:midPointStop
         offset="0.5"
         style="stop-color:#B3925D" /><a:midPointStop
         offset="1"
         style="stop-color:#4D2600" /></linearGradient><linearGradient
       x1="2.7363"
       y1="40.276901"
       x2="17.0242"
       y2="54.365101"
       id="XMLID_8_"
       gradientUnits="userSpaceOnUse"
       gradientTransform="translate(-1,-3.541)"><stop
         style="stop-color:white;stop-opacity:1"
         offset="0"
         id="stop2009" /><stop
         style="stop-color:#803f00;stop-opacity:1"
         offset="1"
         id="stop2011" /><a:midPointStop
         offset="0"
         style="stop-color:#FFFFFF" /><a:midPointStop
         offset="0.5"
         style="stop-color:#FFFFFF" /><a:midPointStop
         offset="1"
         style="stop-color:#803F00" /></linearGradient><radialGradient
       cx="-7.4307694"
       cy="-20.74012"
       r="116.4002"
       fx="-7.4307694"
       fy="-20.74012"
       id="radialGradient2066"
       xlink:href="#XMLID_6_"
       gradientUnits="userSpaceOnUse"
       gradientTransform="matrix(1.039286,0,0,1,-3.285736,-3.541)" /><linearGradient
       x1="13.764423"
       y1="17.394068"
       x2="77.728523"
       y2="17.85955"
       id="linearGradient22367"
       xlink:href="#linearGradient16538"
       gradientUnits="userSpaceOnUse"
       gradientTransform="matrix(0.999999,0,0,1.124999,-13.6624,-57.65102)" /><linearGradient
       x1="13.764423"
       y1="17.394068"
       x2="77.728523"
       y2="17.85955"
       id="linearGradient22404"
       xlink:href="#linearGradient16538"
       gradientUnits="userSpaceOnUse"
       gradientTransform="matrix(1,0,0,1.125,-1.851,-7.8408)" /></defs><g
     id="g904"><path
       style="fill:#3689e6;fill-opacity:1;stroke-width:11.10955811"
       inkscape:connector-curvature="0"
       d="m 432.91327,56.47397 c 102.19291,88.57459 105.82678,249.6997 8.1168,359.89878 C 343.3201,526.57188 181.27964,544.10058 79.086729,455.52602 -23.106186,366.95142 -26.740042,205.82631 70.969928,95.62723 168.6799,-14.57186 330.72036,-32.10062 432.91327,56.47397 Z"
       id="path27" /><path
       style="opacity:1;fill:#000000;fill-opacity:0.49019608;stroke-width:11.10955811"
       inkscape:connector-curvature="0"
       d="m 511.63551,224.90353 c -1.5514,61.31165 -25.16123,124.1546 -70.96638,175.81448 C 342.95916,510.91708 180.91869,528.44588 78.725782,439.87127 30.827128,398.35564 4.4968262,340.92283 0.19383236,280.22879 0.79908396,346.58547 27.117416,410.48219 79.078687,455.51904 181.2716,544.09358 343.31975,526.55618 441.02203,416.36578 490.72697,360.30764 514.02705,291.07482 511.63551,224.90353 Z"
       id="path51" /><g
       style="fill:#000000;fill-opacity:0.49019608"
       transform="translate(20,409.15054)"
       id="g925"><path
         sodipodi:nodetypes="cccccssc"
         inkscape:connector-curvature="0"
         id="path915"
         d="m 280.8457,-231.51773 27.45899,27.45899 h 79.74219 v 26.28515 h 3.43359 v -46.8789 c 0,-3.80294 -3.0623,-6.86524 -6.86524,-6.86524 z"
         style="fill:#000000;fill-opacity:0.49019608;fill-rule:nonzero;stroke:none;stroke-width:5.26481962;stroke-linecap:round;stroke-linejoin:round;stroke-miterlimit:10;stroke-dasharray:none;stroke-opacity:1" /><path
         inkscape:connector-curvature="0"
         id="path917"
         d="m 213.36914,-286.15836 c -1.7547,0 -3.50897,0.67304 -4.85352,2.01759 l -87.37109,87.36914 c -2.68908,2.68907 -2.68907,7.01989 0,9.70898 l 11.28906,11.28906 h 111.64063 l -69.53711,-69.53711 21.8418,-21.8418 91.3789,91.37891 h 38.83203 L 218.22266,-284.14077 c -1.34454,-1.34455 -3.09882,-2.01759 -4.85352,-2.01759 z"
         style="fill:#000000;fill-opacity:0.49019608;fill-rule:nonzero;stroke:none;stroke-width:5.2648201;stroke-linecap:round;stroke-linejoin:round;stroke-miterlimit:10;stroke-dasharray:none;stroke-opacity:1" /><path
         inkscape:connector-curvature="0"
         id="path919"
         d="m 136.34961,-169.77359 c -8.86661,0 -16.00391,7.1373 -16.00391,16.00391 v 52.1914 h 55.34961 c 2.32473,0 4.19727,1.87059 4.19727,4.195313 v 41.326172 c 0,2.324724 -1.87254,4.195313 -4.19727,4.195312 H 120.3457 V 3.8455488 c 0,8.8666102 7.1373,16.0039062 16.00391,16.0039062 H 395.99609 C 404.8627,19.849455 412,12.712159 412,3.8455488 V -153.76968 c 0,-8.86661 -7.1373,-16.00391 -16.00391,-16.00391 z"
         style="fill:#000000;fill-opacity:0.49019608;fill-rule:evenodd;stroke:none;stroke-width:9.21343422;stroke-linecap:butt;stroke-linejoin:miter;stroke-miterlimit:4;stroke-dasharray:none;stroke-opacity:1" /><path
         sodipodi:open="true"
         sodipodi:end="6.2546338"
         sodipodi:start="0"
         d="m 164.62263,-77.387901 a 17.32604,16.363483 0 0 1 -17.20237,16.363066 17.32604,16.363483 0 0 1 -17.44795,-16.129473 17.32604,16.363483 0 0 1 16.95329,-16.593325 17.32604,16.363483 0 0 1 17.68996,15.892593"
         sodipodi:ry="16.363483"
         sodipodi:rx="17.32604"
         sodipodi:cy="-77.387901"
         sodipodi:cx="147.29659"
         id="path921"
         style="fill:#000000;fill-opacity:0.49019608;fill-rule:nonzero;stroke:none;stroke-width:2.58140492"
         sodipodi:type="arc" /><path
         inkscape:connector-curvature="0"
         id="path923"
         d="m 104.19531,-101.57828 c -2.32472,0 -4.19531,1.87059 -4.19531,4.195313 v 41.326172 c 0,2.324724 1.87059,4.195312 4.19531,4.195312 h 16.15039 v -49.716797 z"
         style="fill:#000000;fill-opacity:0.49019608;fill-rule:evenodd;stroke:none;stroke-width:9.21343422;stroke-linecap:butt;stroke-linejoin:miter;stroke-miterlimit:4;stroke-dasharray:none;stroke-opacity:1" /></g><g
       transform="translate(1.8019364e-8,389.15054)"
       id="g913"><path
         style="fill:#ffffff;fill-opacity:1;fill-rule:nonzero;stroke:none;stroke-width:5.26481962;stroke-linecap:round;stroke-linejoin:round;stroke-miterlimit:10;stroke-dasharray:none;stroke-opacity:1"
         d="m 280.8457,-231.51773 27.45899,27.45899 h 79.74219 v 26.28515 h 3.43359 v -46.8789 c 0,-3.80294 -3.0623,-6.86524 -6.86524,-6.86524 z"
         id="rect21368"
         inkscape:connector-curvature="0"
         sodipodi:nodetypes="cccccssc" /><path
         style="fill:#ffffff;fill-opacity:1;fill-rule:nonzero;stroke:none;stroke-width:5.2648201;stroke-linecap:round;stroke-linejoin:round;stroke-miterlimit:10;stroke-dasharray:none;stroke-opacity:1"
         d="m 213.36914,-286.15836 c -1.7547,0 -3.50897,0.67304 -4.85352,2.01759 l -87.37109,87.36914 c -2.68908,2.68907 -2.68907,7.01989 0,9.70898 l 11.28906,11.28906 h 111.64063 l -69.53711,-69.53711 21.8418,-21.8418 91.3789,91.37891 h 38.83203 L 218.22266,-284.14077 c -1.34454,-1.34455 -3.09882,-2.01759 -4.85352,-2.01759 z"
         id="rect21346"
         inkscape:connector-curvature="0" /><path
         style="fill:#ffffff;fill-opacity:1;fill-rule:evenodd;stroke:none;stroke-width:9.21343422;stroke-linecap:butt;stroke-linejoin:miter;stroke-miterlimit:4;stroke-dasharray:none;stroke-opacity:1"
         d="m 136.34961,-169.77359 c -8.86661,0 -16.00391,7.1373 -16.00391,16.00391 v 52.1914 h 55.34961 c 2.32473,0 4.19727,1.87059 4.19727,4.195313 v 41.326172 c 0,2.324724 -1.87254,4.195313 -4.19727,4.195312 H 120.3457 V 3.8455488 c 0,8.8666102 7.1373,16.0039062 16.00391,16.0039062 H 395.99609 C 404.8627,19.849455 412,12.712159 412,3.8455488 V -153.76968 c 0,-8.86661 -7.1373,-16.00391 -16.00391,-16.00391 z"
         id="rect3016"
         inkscape:connector-curvature="0" /><path
         sodipodi:type="arc"
         style="fill:#ffffff;fill-opacity:1;fill-rule:nonzero;stroke:none;stroke-width:2.58140492"
         id="path3804"
         sodipodi:cx="147.29659"
         sodipodi:cy="-77.387901"
         sodipodi:rx="17.32604"
         sodipodi:ry="16.363483"
         d="m 164.62263,-77.387901 a 17.32604,16.363483 0 0 1 -17.20237,16.363066 17.32604,16.363483 0 0 1 -17.44795,-16.129473 17.32604,16.363483 0 0 1 16.95329,-16.593325 17.32604,16.363483 0 0 1 17.68996,15.892593"
         sodipodi:start="0"
         sodipodi:end="6.2546338"
         sodipodi:open="true" /><path
         style="fill:#ffffff;fill-opacity:1;fill-rule:evenodd;stroke:none;stroke-width:9.21343422;stroke-linecap:butt;stroke-linejoin:miter;stroke-miterlimit:4;stroke-dasharray:none;stroke-opacity:1"
         d="m 104.19531,-101.57828 c -2.32472,0 -4.19531,1.87059 -4.19531,4.195313 v 41.326172 c 0,2.324724 1.87059,4.195312 4.19531,4.195312 h 16.15039 v -49.716797 z"
         id="rect891"
         inkscape:connector-curvature="0" /></g></g></svg>