<?xml version="1.0" encoding="UTF-8" standalone="no"?>
<!-- Created with Inkscape (http://www.inkscape.org/) -->

<svg
   xmlns:dc="http://purl.org/dc/elements/1.1/"
   xmlns:cc="http://creativecommons.org/ns#"
   xmlns:rdf="http://www.w3.org/1999/02/22-rdf-syntax-ns#"
   xmlns:svg="http://www.w3.org/2000/svg"
   xmlns="http://www.w3.org/2000/svg"
   xmlns:sodipodi="http://sodipodi.sourceforge.net/DTD/sodipodi-0.dtd"
   xmlns:inkscape="http://www.inkscape.org/namespaces/inkscape"
   id="svg2"
   version="1.1"
   inkscape:version="0.92.2 2405546, 2018-03-11"
   width="512"
   height="512"
   sodipodi:docname="webide.svg">
  <metadata
     id="metadata8">
    <rdf:RDF>
      <cc:Work
         rdf:about="">
        <dc:format>image/svg+xml</dc:format>
        <dc:type
           rdf:resource="http://purl.org/dc/dcmitype/StillImage" />
        <dc:title></dc:title>
      </cc:Work>
    </rdf:RDF>
  </metadata>
  <defs
     id="defs6" />
  <sodipodi:namedview
     pagecolor="#ffffff"
     bordercolor="#666666"
     borderopacity="1"
     objecttolerance="10"
     gridtolerance="10"
     guidetolerance="10"
     inkscape:pageopacity="0"
     inkscape:pageshadow="2"
     inkscape:window-width="1211"
     inkscape:window-height="671"
     id="namedview4"
     showgrid="false"
     inkscape:zoom="0.417193"
     inkscape:cx="377.42443"
     inkscape:cy="151.51031"
     inkscape:window-x="134"
     inkscape:window-y="33"
     inkscape:window-maximized="0"
     inkscape:current-layer="svg2" />
  <g
     id="g852">
    <path
       style="fill:#3689e6;fill-opacity:1;stroke-width:11.10955715"
       inkscape:connector-curvature="0"
       d="M 432.91328,56.473985 C 535.10618,145.04857 538.74004,306.17368 441.03008,416.37276 343.32011,526.57184 181.27963,544.10061 79.086725,455.52602 -23.10618,366.95144 -26.740045,205.82632 70.969926,95.627248 168.67989,-14.57184 330.72037,-32.100602 432.91328,56.473985 Z"
       id="path941" />
    <path
       style="opacity:1;fill:#000000;fill-opacity:0.49019608;stroke-width:11.10955715"
       inkscape:connector-curvature="0"
       d="M 511.63551,224.90352 C 510.08412,286.21517 486.47428,349.05814 440.66913,400.718 342.95916,510.91712 180.91868,528.44585 78.725781,439.8713 30.82711,398.35565 4.4968433,340.92285 0.19381353,280.22882 0.79906703,346.58548 27.117428,410.48219 79.078675,455.51907 181.27158,544.09362 343.31973,526.5562 441.02203,416.36577 c 49.70494,-56.0581 73.00501,-125.29096 70.61348,-191.46225 z"
       id="path943" />
    <g
       style="fill:#000000;fill-opacity:0.49019608"
       transform="translate(19.999998,20)"
       id="g842">
      <path
         sodipodi:nodetypes="sssssssssscssssscccssssss"
         inkscape:connector-curvature="0"
         id="path838"
         d="m 155.50088,391.45115 c -0.5,-1.56462 -12.8414,-61.21901 -27.42537,-132.56531 -14.58395,-71.3463 -27.05513,-132.0248 -27.71373,-134.84109 -1.194903,-5.10978 -1.134933,-5.12055 28.50039,-5.12055 16.33377,0 30.25689,0.90465 30.94025,2.01034 0.68334,1.10568 5.82026,25.84506 11.41533,54.97638 5.5951,29.13131 11.20302,53.99617 12.46208,55.25523 3.36861,3.36861 5.14125,-2.70484 17.15028,-58.76067 5.89936,-27.53718 11.49531,-50.87202 12.43541,-51.85522 0.94012,-0.98321 12.86104,-1.49527 26.49097,-1.13791 l 24.78166,0.64975 11.43653,56.91913 c 4.58447,22.81661 4.81132,38.83459 8.2935,51.08798 7.00693,24.6565 17.54709,34.07009 35.7577,52.96074 17.76518,18.42858 16.17324,22.92853 17.08014,32.88879 1.31861,14.48168 -0.6991,21.46221 -29.02942,54.36386 l -22.57482,26.2174 -12.44269,-0.67099 -12.44267,-0.67103 -10.70227,-54.06434 c -5.88624,-29.73538 -11.39571,-54.75779 -12.24325,-55.60537 -3.43726,-3.43723 -6.0613,4.84025 -16.36942,51.63685 -5.92789,26.91131 -11.63085,51.23392 -12.67324,54.05022 -1.80885,4.88717 -3.04208,5.12054 -27.05677,5.12054 -18.12721,0 -25.4157,-0.79528 -26.07059,-2.84473 z"
         style="fill:#000000;fill-opacity:0.49019608;stroke-width:1.68901086" />
      <path
         inkscape:connector-curvature="0"
         id="path840"
         d="m 299.81294,392.3509 c -0.66114,-1.06973 1.43191,-4.3981 4.65122,-7.39634 10.47362,-9.75441 33.30971,-39.36195 37.55551,-48.69154 4.62845,-10.17051 5.51502,-29.3558 1.80727,-39.1094 -1.33948,-3.52363 -9.88137,-14.08741 -18.98198,-23.47509 -29.48726,-30.41738 -36.7961,-47.11854 -34.9315,-79.82083 1.29885,-22.77975 8.79946,-41.90219 24.69272,-62.95261 l 9.04565,-11.98089 h 38.61486 c 21.23818,0 38.61486,0.86904 38.61486,1.93123 0,1.06218 -7.05961,9.94405 -15.68804,19.73749 -8.62845,9.79343 -19.08037,23.40354 -23.22656,30.2447 -6.53767,10.78712 -7.53359,14.43609 -7.50174,27.48536 0.0204,8.27578 1.40403,17.56199 3.0752,20.63603 1.67116,3.07403 11.98581,14.98122 22.92143,26.46039 21.14507,22.19606 28.48666,35.90534 31.11574,58.10379 2.6503,22.3777 -7.30757,53.78773 -26.01366,82.05453 l -5.76941,8.71816 h -39.38976 c -21.66436,0 -39.93066,-0.87523 -40.59181,-1.94498 z"
         style="fill:#000000;stroke-width:1.68901086;fill-opacity:0.49019608" />
    </g>
    <g
       id="g836">
      <path
         style="fill:#ffffff;fill-opacity:1;stroke-width:1.68901086"
         d="m 155.50088,391.45115 c -0.5,-1.56462 -12.8414,-61.21901 -27.42537,-132.56531 -14.58395,-71.3463 -27.05513,-132.0248 -27.71373,-134.84109 -1.194903,-5.10978 -1.134933,-5.12055 28.50039,-5.12055 16.33377,0 30.25689,0.90465 30.94025,2.01034 0.68334,1.10568 5.82026,25.84506 11.41533,54.97638 5.5951,29.13131 11.20302,53.99617 12.46208,55.25523 3.36861,3.36861 5.14125,-2.70484 17.15028,-58.76067 5.89936,-27.53718 11.49531,-50.87202 12.43541,-51.85522 0.94012,-0.98321 12.86104,-1.49527 26.49097,-1.13791 l 24.78166,0.64975 11.43653,56.91913 c 4.58447,22.81661 4.81132,38.83459 8.2935,51.08798 7.00693,24.6565 17.54709,34.07009 35.7577,52.96074 17.76518,18.42858 16.17324,22.92853 17.08014,32.88879 1.31861,14.48168 -0.6991,21.46221 -29.02942,54.36386 l -22.57482,26.2174 -12.44269,-0.67099 -12.44267,-0.67103 -10.70227,-54.06434 c -5.88624,-29.73538 -11.39571,-54.75779 -12.24325,-55.60537 -3.43726,-3.43723 -6.0613,4.84025 -16.36942,51.63685 -5.92789,26.91131 -11.63085,51.23392 -12.67324,54.05022 -1.80885,4.88717 -3.04208,5.12054 -27.05677,5.12054 -18.12721,0 -25.4157,-0.79528 -26.07059,-2.84473 z"
         id="path3012"
         inkscape:connector-curvature="0"
         sodipodi:nodetypes="sssssssssscssssscccssssss" />
      <path
         style="fill:#ffffff;stroke-width:1.68901086"
         d="m 299.81294,392.3509 c -0.66114,-1.06973 1.43191,-4.3981 4.65122,-7.39634 10.47362,-9.75441 33.30971,-39.36195 37.55551,-48.69154 4.62845,-10.17051 5.51502,-29.3558 1.80727,-39.1094 -1.33948,-3.52363 -9.88137,-14.08741 -18.98198,-23.47509 -29.48726,-30.41738 -36.7961,-47.11854 -34.9315,-79.82083 1.29885,-22.77975 8.79946,-41.90219 24.69272,-62.95261 l 9.04565,-11.98089 h 38.61486 c 21.23818,0 38.61486,0.86904 38.61486,1.93123 0,1.06218 -7.05961,9.94405 -15.68804,19.73749 -8.62845,9.79343 -19.08037,23.40354 -23.22656,30.2447 -6.53767,10.78712 -7.53359,14.43609 -7.50174,27.48536 0.0204,8.27578 1.40403,17.56199 3.0752,20.63603 1.67116,3.07403 11.98581,14.98122 22.92143,26.46039 21.14507,22.19606 28.48666,35.90534 31.11574,58.10379 2.6503,22.3777 -7.30757,53.78773 -26.01366,82.05453 l -5.76941,8.71816 h -39.38976 c -21.66436,0 -39.93066,-0.87523 -40.59181,-1.94498 z"
         id="path2993"
         inkscape:connector-curvature="0" />
    </g>
  </g>
</svg>
