<?xml version="1.0" encoding="UTF-8" standalone="no"?>
<svg
   xmlns:dc="http://purl.org/dc/elements/1.1/"
   xmlns:cc="http://creativecommons.org/ns#"
   xmlns:rdf="http://www.w3.org/1999/02/22-rdf-syntax-ns#"
   xmlns:svg="http://www.w3.org/2000/svg"
   xmlns="http://www.w3.org/2000/svg"
   xmlns:xlink="http://www.w3.org/1999/xlink"
   xmlns:sodipodi="http://sodipodi.sourceforge.net/DTD/sodipodi-0.dtd"
   xmlns:inkscape="http://www.inkscape.org/namespaces/inkscape"
   viewBox="0 0 511.99999 511.99999"
   height="512"
   width="512"
   version="1.1"
   id="svg2"
   inkscape:version="0.92.2 2405546, 2018-03-11"
   sodipodi:docname="webservice-zoho-sheet.svg">
  <sodipodi:namedview
     pagecolor="#ffffff"
     bordercolor="#666666"
     borderopacity="1"
     objecttolerance="10"
     gridtolerance="10"
     guidetolerance="10"
     inkscape:pageopacity="0"
     inkscape:pageshadow="2"
     inkscape:window-width="1366"
     inkscape:window-height="706"
     id="namedview18"
     showgrid="false"
     inkscape:zoom="0.28726213"
     inkscape:cx="-338.26304"
     inkscape:cy="462.65407"
     inkscape:window-x="0"
     inkscape:window-y="0"
     inkscape:window-maximized="1"
     inkscape:current-layer="svg2" />
  <metadata
     id="metadata8">
    <rdf:RDF>
      <cc:Work
         rdf:about="">
        <dc:format>image/svg+xml</dc:format>
        <dc:type
           rdf:resource="http://purl.org/dc/dcmitype/StillImage" />
        <dc:title />
      </cc:Work>
    </rdf:RDF>
  </metadata>
  <defs
     id="defs6">
    <filter
       height="1.096"
       y="-0.048"
       width="1.096"
       x="-0.048"
       id="filter4329"
       style="color-interpolation-filters:sRGB">
      <feGaussianBlur
         id="feGaussianBlur4331"
         stdDeviation="2.1324205" />
    </filter>
    <filter
       height="1.0327445"
       y="-0.016372267"
       width="1.0399742"
       x="-0.019987123"
       id="filter4376"
       style="color-interpolation-filters:sRGB">
      <feGaussianBlur
         id="feGaussianBlur4378"
         stdDeviation="1.1736058" />
    </filter>
    <filter
       height="1.0570984"
       y="-0.0285492"
       width="1.0632123"
       x="-0.031606145"
       id="filter4436"
       style="color-interpolation-filters:sRGB">
      <feGaussianBlur
         id="feGaussianBlur4438"
         stdDeviation="0.63519096" />
    </filter>
    <linearGradient
       x1="16.541649"
       y1="144.70755"
       x2="-24.629177"
       y2="-0.77768874"
       id="linearGradient3504"
       xlink:href="#linearGradient3526"
       gradientUnits="userSpaceOnUse"
       gradientTransform="matrix(0.6969214,-0.3124156,0.3124156,0.6969214,29.229254,21.999738)" />
    <linearGradient
       id="linearGradient3526">
      <stop
         id="stop3528"
         style="stop-color:#006e29;stop-opacity:1"
         offset="0" />
      <stop
         id="stop3530"
         style="stop-color:#77b753;stop-opacity:1"
         offset="1" />
    </linearGradient>
  </defs>
  <g
     transform="translate(1.0738047e-7,1.9364446e-6)"
     id="g946">
    <path
       id="path881"
       d="M 432.91329,56.473974 C 535.1062,145.04856 538.74006,306.17368 441.03009,416.37276 343.32012,526.57182 181.27964,544.10062 79.086727,455.52602 -23.106181,366.95143 -26.740046,205.82631 70.969927,95.627234 168.6799,-14.571846 330.72038,-32.100616 432.91329,56.473974 Z"
       inkscape:connector-curvature="0"
       style="fill:#68b723;fill-opacity:1;stroke-width:11.10955811" />
    <path
       id="path883"
       d="m 511.63551,224.90352 c -1.5514,61.31166 -25.16123,124.1546 -70.96638,175.81449 C 342.95916,510.91712 180.91869,528.44582 78.72578,439.87127 30.827126,398.35564 4.4968242,340.92283 0.19383033,280.22879 0.79908189,346.58547 27.117413,410.48219 79.078684,455.51904 181.2716,544.09362 343.31975,526.55622 441.02203,416.36578 490.72697,360.30764 514.02705,291.07481 511.63551,224.90352 Z"
       inkscape:connector-curvature="0"
       style="opacity:1;fill:#000000;fill-opacity:0.49019608;stroke-width:11.10955811" />
    <path
       style="fill:#000000;fill-opacity:0.49019608;stroke-width:1.42217815"
       d="m 137.61575,197.45828 c -8.64306,0 -15.74707,6.27481 -17.07401,14.53228 H 120 v 143.37637 h 0.36537 c -0.0326,0.43578 -0.0661,0.87214 -0.0661,1.31654 0,9.59349 7.72304,17.31653 17.31653,17.31653 h 277.06772 c 9.59349,0 17.31653,-7.72304 17.31653,-17.31653 0,-0.4444 -0.0336,-0.88076 -0.0661,-1.31654 h 0.0661 v -140.59212 -2.78425 h -0.24252 c -1.32694,-8.25747 -8.43095,-14.53228 -17.07401,-14.53228 z m 17.01733,34.63306 h 104.05038 v 36.32127 H 154.63308 Z m 138.68346,0 h 104.05038 v 36.32127 H 293.31654 Z m -138.68346,70.95433 h 104.05038 v 36.32126 H 154.63308 Z m 138.68346,0 h 104.05038 v 36.32126 H 293.31654 Z"
       id="path940"
       inkscape:connector-curvature="0" />
    <path
       inkscape:connector-curvature="0"
       id="rect39"
       d="m 117.61575,167.45828 c -8.64306,0 -15.74707,6.27481 -17.07401,14.53228 H 100 v 143.37637 h 0.36537 c -0.0326,0.43578 -0.0661,0.87214 -0.0661,1.31654 0,9.59349 7.72304,17.31653 17.31653,17.31653 h 277.06772 c 9.59349,0 17.31653,-7.72304 17.31653,-17.31653 0,-0.4444 -0.0336,-0.88076 -0.0661,-1.31654 h 0.0661 v -140.59212 -2.78425 h -0.24252 c -1.32694,-8.25747 -8.43095,-14.53228 -17.07401,-14.53228 z m 17.01733,34.63306 h 104.05038 v 36.32127 H 134.63308 Z m 138.68346,0 h 104.05038 v 36.32127 H 273.31654 Z m -138.68346,70.95433 h 104.05038 v 36.32126 H 134.63308 Z m 138.68346,0 h 104.05038 v 36.32126 H 273.31654 Z"
       style="fill:#ffffff;stroke-width:1.42217815" />
  </g>
</svg>
