<?xml version="1.0" encoding="UTF-8" standalone="no"?>
<!-- Created with Inkscape (http://www.inkscape.org/) -->

<svg
   xmlns:dc="http://purl.org/dc/elements/1.1/"
   xmlns:cc="http://creativecommons.org/ns#"
   xmlns:rdf="http://www.w3.org/1999/02/22-rdf-syntax-ns#"
   xmlns:svg="http://www.w3.org/2000/svg"
   xmlns="http://www.w3.org/2000/svg"
   xmlns:sodipodi="http://sodipodi.sourceforge.net/DTD/sodipodi-0.dtd"
   xmlns:inkscape="http://www.inkscape.org/namespaces/inkscape"
   version="1.1"
   width="512"
   height="512"
   viewBox="0 0 512 512"
   id="svg2"
   inkscape:version="0.92.2 2405546, 2018-03-11"
   sodipodi:docname="welcome.svg">
  <sodipodi:namedview
     pagecolor="#ffffff"
     bordercolor="#666666"
     borderopacity="1"
     objecttolerance="10"
     gridtolerance="10"
     guidetolerance="10"
     inkscape:pageopacity="0"
     inkscape:pageshadow="2"
     inkscape:window-width="799"
     inkscape:window-height="480"
     id="namedview78"
     showgrid="false"
     inkscape:zoom="0.32593203"
     inkscape:cx="330.73975"
     inkscape:cy="240.73758"
     inkscape:window-x="15"
     inkscape:window-y="39"
     inkscape:window-maximized="0"
     inkscape:current-layer="svg2"
     units="px" />
  <metadata
     id="metadata70">
    <rdf:RDF>
      <cc:Work
         rdf:about="">
        <dc:format>image/svg+xml</dc:format>
        <dc:type
           rdf:resource="http://purl.org/dc/dcmitype/StillImage" />
        <dc:title></dc:title>
      </cc:Work>
    </rdf:RDF>
  </metadata>
  <defs
     id="defs68">
    <clipPath
       id="clipPath3429">
      <path
         d="m 471.9456,253.05189 c 0,120.89699 -98.00565,218.90724 -218.90724,218.90724 -120.89698,0 -218.90723,-98.00566 -218.90723,-218.90724 0,-120.89698 98.00565,-218.907232 218.90723,-218.907232 120.89699,0 218.90724,98.005652 218.90724,218.907232"
         inkscape:connector-curvature="0"
         id="path3431"
         style="fill:#0e65aa;fill-opacity:1;fill-rule:evenodd" />
    </clipPath>
    <clipPath
       clipPathUnits="userSpaceOnUse"
       id="clipPath970">
      <path
         inkscape:connector-curvature="0"
         d="m 7372.41,6955.95 v 6.81 h -15.64 v 4.33 h 15.64 v 6.78 l 15.53,-8.97 -15.53,-8.95"
         id="path972" />
    </clipPath>
    <linearGradient
       x1="0"
       y1="0"
       x2="1"
       y2="0"
       gradientUnits="userSpaceOnUse"
       gradientTransform="matrix(189.815,-158.551,-158.551,-189.815,729.905,592.058)"
       spreadMethod="pad"
       id="linearGradient974">
      <stop
         style="stop-opacity:1;stop-color:#e4e5e5"
         offset="0"
         id="stop976" />
      <stop
         style="stop-opacity:1;stop-color:#ffffff"
         offset="1"
         id="stop978" />
    </linearGradient>
    <clipPath
       clipPathUnits="userSpaceOnUse"
       id="clipPath954">
      <path
         inkscape:connector-curvature="0"
         d="m 7383.09,7126.93 h -0.06 v 0.07 l 0.06,-0.07 m -4.93,0 h -2.96 v 8.66 l 2.96,-3.25 v -5.41"
         id="path956" />
    </clipPath>
    <linearGradient
       x1="0"
       y1="0"
       x2="1"
       y2="0"
       gradientUnits="userSpaceOnUse"
       gradientTransform="matrix(189.815,-158.551,-158.551,-189.815,729.905,592.058)"
       spreadMethod="pad"
       id="linearGradient958">
      <stop
         style="stop-opacity:1;stop-color:#e4e5e5"
         offset="0"
         id="stop960" />
      <stop
         style="stop-opacity:1;stop-color:#ffffff"
         offset="1"
         id="stop962" />
    </linearGradient>
    <clipPath
       clipPathUnits="userSpaceOnUse"
       id="clipPath938">
      <path
         inkscape:connector-curvature="0"
         d="m 7367.89,7126.74 c -1.5,0 -2.96,0.42 -3.71,0.82 l 0.61,2.44 c 0.76,-0.41 2,-0.84 3.28,-0.84 1.37,0 2.1,0.57 2.1,1.42 0,0.83 -0.65,1.3 -2.21,1.85 -2.18,0.76 -3.61,1.98 -3.61,3.89 0,2.22 1.87,3.91 4.95,3.91 0.69,0 1.29,-0.05 1.81,-0.16 l 1.28,-1.4 -0.41,-1.47 c -0.5,0.26 -1.46,0.64 -2.73,0.64 -1.28,0 -1.9,-0.61 -1.9,-1.28 0,-0.83 0.72,-1.19 2.44,-1.84 2.29,-0.86 3.37,-2.07 3.37,-3.93 0,-2.18 -1.67,-4.05 -5.27,-4.05"
         id="path940" />
    </clipPath>
    <linearGradient
       x1="0"
       y1="0"
       x2="1"
       y2="0"
       gradientUnits="userSpaceOnUse"
       gradientTransform="matrix(189.815,-158.551,-158.551,-189.815,729.905,592.058)"
       spreadMethod="pad"
       id="linearGradient942">
      <stop
         style="stop-opacity:1;stop-color:#e4e5e5"
         offset="0"
         id="stop944" />
      <stop
         style="stop-opacity:1;stop-color:#ffffff"
         offset="1"
         id="stop946" />
    </linearGradient>
    <clipPath
       clipPathUnits="userSpaceOnUse"
       id="clipPath922">
      <path
         inkscape:connector-curvature="0"
         d="m 7429.93,6928.45 h -73.19 v 79.09 h 73.19 c 7.48,0 13.58,-6.09 13.58,-13.59 v -51.91 c 0,-7.52 -6.1,-13.59 -13.58,-13.59 m -73.16,38.64 v -4.33 h 15.64 v -6.81 l 15.53,8.95 -15.53,8.97 v -6.78 h -15.64"
         id="path924" />
    </clipPath>
    <linearGradient
       x1="0"
       y1="0"
       x2="1"
       y2="0"
       gradientUnits="userSpaceOnUse"
       gradientTransform="matrix(189.815,-158.551,-158.551,-189.815,729.905,592.058)"
       spreadMethod="pad"
       id="linearGradient926">
      <stop
         style="stop-opacity:1;stop-color:#292526"
         offset="0"
         id="stop928" />
      <stop
         style="stop-opacity:1;stop-color:#2e292a"
         offset="1"
         id="stop930" />
    </linearGradient>
    <clipPath
       clipPathUnits="userSpaceOnUse"
       id="clipPath906">
      <path
         inkscape:connector-curvature="0"
         d="m 7398.07,7110.49 h -41.33 v 45.36 l 14.37,-15.78 c -0.52,0.11 -1.12,0.16 -1.81,0.16 -3.08,0 -4.95,-1.69 -4.95,-3.91 0,-1.91 1.43,-3.13 3.61,-3.89 1.56,-0.55 2.21,-1.02 2.21,-1.85 0,-0.85 -0.73,-1.42 -2.1,-1.42 -1.28,0 -2.52,0.43 -3.28,0.84 l -0.61,-2.44 c 0.75,-0.4 2.21,-0.82 3.71,-0.82 3.6,0 5.27,1.87 5.27,4.05 0,1.86 -1.08,3.07 -3.37,3.93 -1.72,0.65 -2.44,1.01 -2.44,1.84 0,0.67 0.62,1.28 1.9,1.28 1.27,0 2.23,-0.38 2.73,-0.64 l 0.41,1.47 2.81,-3.08 v -8.66 h 2.96 v 5.41 l 4.87,-5.34 v -0.07 h 0.06 l 14.98,-16.44"
         id="path908" />
    </clipPath>
    <linearGradient
       x1="0"
       y1="0"
       x2="1"
       y2="0"
       gradientUnits="userSpaceOnUse"
       gradientTransform="matrix(189.815,-158.551,-158.551,-189.815,729.905,592.058)"
       spreadMethod="pad"
       id="linearGradient910">
      <stop
         style="stop-opacity:1;stop-color:#292526"
         offset="0"
         id="stop912" />
      <stop
         style="stop-opacity:1;stop-color:#2e292a"
         offset="1"
         id="stop914" />
    </linearGradient>
    <clipPath
       clipPathUnits="userSpaceOnUse"
       id="clipPath890">
      <path
         inkscape:connector-curvature="0"
         d="m 7404.07,6877.84 h -47.33 v 11.8 h 47.33 c 28.72,0 45.38,3.88 54.03,12.6 11.47,11.56 11.26,34.42 10.99,69.02 -0.05,5.92 -0.11,12.11 -0.11,18.69 v 42.73 l 11.79,-12.94 v -29.79 c 0,-6.53 0.08,-12.71 0.11,-18.57 0.31,-37.59 0.53,-62.4 -14.4,-77.46 -11.2,-11.25 -29.84,-16.08 -62.41,-16.08"
         id="path892" />
    </clipPath>
    <linearGradient
       x1="0"
       y1="0"
       x2="1"
       y2="0"
       gradientUnits="userSpaceOnUse"
       gradientTransform="matrix(189.815,-158.551,-158.551,-189.815,729.905,592.058)"
       spreadMethod="pad"
       id="linearGradient894">
      <stop
         style="stop-opacity:1;stop-color:#b1b4b2"
         offset="0"
         id="stop896" />
      <stop
         style="stop-opacity:1;stop-color:#caccca"
         offset="1"
         id="stop898" />
    </linearGradient>
    <clipPath
       clipPathUnits="userSpaceOnUse"
       id="clipPath874">
      <path
         inkscape:connector-curvature="0"
         d="m 7629.48,6161.75 h -272.74 v 59.62 h 272.74 c 84.84,0 153.65,70.31 153.65,157.11 v 0 -59.62 c 0,-86.76 -68.81,-157.11 -153.65,-157.11"
         id="path876" />
    </clipPath>
    <linearGradient
       x1="0"
       y1="0"
       x2="1"
       y2="0"
       gradientUnits="userSpaceOnUse"
       gradientTransform="matrix(189.815,-158.551,-158.551,-189.815,729.905,592.058)"
       spreadMethod="pad"
       id="linearGradient878">
      <stop
         style="stop-opacity:1;stop-color:#b1b4b2"
         offset="0"
         id="stop880" />
      <stop
         style="stop-opacity:1;stop-color:#caccca"
         offset="1"
         id="stop882" />
    </linearGradient>
    <clipPath
       clipPathUnits="userSpaceOnUse"
       id="clipPath858">
      <path
         inkscape:connector-curvature="0"
         d="m 7629.48,6221.37 h -272.74 v 656.47 h 47.33 c 32.57,0 51.21,4.83 62.41,16.08 14.93,15.06 14.71,39.87 14.4,77.46 -0.03,5.86 -0.11,12.04 -0.11,18.57 v 29.79 l 302.36,-331.82 v -309.44 c 0,-86.8 -68.81,-157.11 -153.65,-157.11 m -225.41,668.27 h -47.33 v 38.81 h 73.19 c 7.48,0 13.58,6.07 13.58,13.59 v 51.91 c 0,7.5 -6.1,13.59 -13.58,13.59 h -73.19 v 102.95 h 41.33 l 70.91,-77.81 v -42.73 c 0,-6.58 0.06,-12.77 0.11,-18.69 0.27,-34.6 0.48,-57.46 -10.99,-69.02 -8.65,-8.72 -25.31,-12.6 -54.03,-12.6"
         id="path860" />
    </clipPath>
    <linearGradient
       x1="0"
       y1="0"
       x2="1"
       y2="0"
       gradientUnits="userSpaceOnUse"
       gradientTransform="matrix(189.815,-158.551,-158.551,-189.815,729.905,592.058)"
       spreadMethod="pad"
       id="linearGradient862">
      <stop
         style="stop-opacity:1;stop-color:#d0d2d0"
         offset="0"
         id="stop864" />
      <stop
         style="stop-opacity:1;stop-color:#ebeeec"
         offset="1"
         id="stop866" />
    </linearGradient>
    <clipPath
       clipPathUnits="userSpaceOnUse"
       id="clipPath766">
      <path
         inkscape:connector-curvature="0"
         d="m 5819.24,7154.92 c -10.42,0 -15.78,6.52 -15.78,15.1 0,10.28 7.32,15.96 16.45,15.96 3.52,0 6.19,-0.69 7.41,-1.36 l -1.44,-5.37 c -1.33,0.61 -3.26,1.13 -5.71,1.13 -5.37,0 -9.57,-3.27 -9.57,-9.96 0,-6.04 3.58,-9.84 9.62,-9.84 2.08,0 4.33,0.42 5.7,1.01 l 0.99,-5.38 c -1.21,-0.58 -4.08,-1.29 -7.67,-1.29"
         id="path768" />
    </clipPath>
    <linearGradient
       x1="0"
       y1="0"
       x2="1"
       y2="0"
       gradientUnits="userSpaceOnUse"
       gradientTransform="matrix(190.353,-159.001,-159.001,-190.353,561.505,618.64)"
       spreadMethod="pad"
       id="linearGradient770">
      <stop
         style="stop-opacity:1;stop-color:#e4e5e5"
         offset="0"
         id="stop772" />
      <stop
         style="stop-opacity:1;stop-color:#ffffff"
         offset="1"
         id="stop774" />
    </linearGradient>
    <clipPath
       clipPathUnits="userSpaceOnUse"
       id="clipPath750">
      <path
         inkscape:connector-curvature="0"
         d="m 5739.21,7298.76 c -3.53,0 -6.09,0.21 -7.72,0.47 v 29.51 c 2.49,0.39 5.75,0.67 9.14,0.67 5.77,0 9.54,-1.09 12.38,-3.21 3.12,-2.32 5.09,-6.04 5.09,-11.35 0,-5.79 -2.09,-9.74 -4.96,-12.19 -3.17,-2.64 -8.03,-3.9 -13.93,-3.9 m 2.13,25.43 c -1.46,0 -2.49,-0.13 -3.06,-0.27 v -19.7 l 2.35,-0.14 c 0.05,0 0.09,-0.01 0.13,-0.01 6.14,0 10.16,3.42 10.16,10.55 0,6.25 -3.66,9.57 -9.58,9.57"
         id="path752" />
    </clipPath>
    <linearGradient
       x1="0"
       y1="0"
       x2="1"
       y2="0"
       gradientUnits="userSpaceOnUse"
       gradientTransform="matrix(190.353,-159.001,-159.001,-190.353,561.505,618.64)"
       spreadMethod="pad"
       id="linearGradient754">
      <stop
         style="stop-opacity:1;stop-color:#e4e5e5"
         offset="0"
         id="stop756" />
      <stop
         style="stop-opacity:1;stop-color:#ffffff"
         offset="1"
         id="stop758" />
    </linearGradient>
    <clipPath
       clipPathUnits="userSpaceOnUse"
       id="clipPath734">
      <path
         inkscape:connector-curvature="0"
         d="m 5958.67,7110.49 h -34.86 c -7.47,0 -13.57,6.09 -13.57,13.59 v 39.56 l 48.43,-53.15"
         id="path736" />
    </clipPath>
    <linearGradient
       x1="0"
       y1="0"
       x2="1"
       y2="0"
       gradientUnits="userSpaceOnUse"
       gradientTransform="matrix(190.353,-159.001,-159.001,-190.353,561.505,618.64)"
       spreadMethod="pad"
       id="linearGradient738">
      <stop
         style="stop-opacity:1;stop-color:#292526"
         offset="0"
         id="stop740" />
      <stop
         style="stop-opacity:1;stop-color:#2e292a"
         offset="1"
         id="stop742" />
    </linearGradient>
    <clipPath
       clipPathUnits="userSpaceOnUse"
       id="clipPath718">
      <path
         inkscape:connector-curvature="0"
         d="m 5876.82,7110.49 h -119.48 c -7.49,0 -13.57,6.09 -13.57,13.59 v 89.53 c 0,7.48 6.08,13.6 13.57,13.6 h 94.98 l 38.06,-41.77 v -61.36 c 0,-7.5 -6.09,-13.59 -13.56,-13.59 m -56.91,75.49 c -9.13,0 -16.45,-5.68 -16.45,-15.96 0,-8.58 5.36,-15.1 15.78,-15.1 3.59,0 6.46,0.71 7.67,1.29 l -0.99,5.38 c -1.37,-0.59 -3.62,-1.01 -5.7,-1.01 -6.04,0 -9.62,3.8 -9.62,9.84 0,6.69 4.2,9.96 9.57,9.96 2.45,0 4.38,-0.52 5.71,-1.13 l 1.44,5.37 c -1.22,0.67 -3.89,1.36 -7.41,1.36"
         id="path720" />
    </clipPath>
    <linearGradient
       x1="0"
       y1="0"
       x2="1"
       y2="0"
       gradientUnits="userSpaceOnUse"
       gradientTransform="matrix(190.353,-159.001,-159.001,-190.353,561.505,618.64)"
       spreadMethod="pad"
       id="linearGradient722">
      <stop
         style="stop-opacity:1;stop-color:#292526"
         offset="0"
         id="stop724" />
      <stop
         style="stop-opacity:1;stop-color:#2e292a"
         offset="1"
         id="stop726" />
    </linearGradient>
    <clipPath
       clipPathUnits="userSpaceOnUse"
       id="clipPath702">
      <path
         inkscape:connector-curvature="0"
         d="m 5710.31,7110.49 h -27.7 v 116.72 h 27.7 c 7.52,0 13.6,-6.12 13.6,-13.6 v -89.53 c 0,-7.5 -6.08,-13.59 -13.6,-13.59"
         id="path704" />
    </clipPath>
    <linearGradient
       x1="0"
       y1="0"
       x2="1"
       y2="0"
       gradientUnits="userSpaceOnUse"
       gradientTransform="matrix(190.353,-159.001,-159.001,-190.353,561.505,618.64)"
       spreadMethod="pad"
       id="linearGradient706">
      <stop
         style="stop-opacity:1;stop-color:#292526"
         offset="0"
         id="stop708" />
      <stop
         style="stop-opacity:1;stop-color:#2e292a"
         offset="1"
         id="stop710" />
    </linearGradient>
    <clipPath
       clipPathUnits="userSpaceOnUse"
       id="clipPath686">
      <path
         inkscape:connector-curvature="0"
         d="m 6124.56,6928.45 h -441.95 v 148.04 h 307.05 l 134.9,-148.04"
         id="path688" />
    </clipPath>
    <linearGradient
       x1="0"
       y1="0"
       x2="1"
       y2="0"
       gradientUnits="userSpaceOnUse"
       gradientTransform="matrix(190.353,-159.001,-159.001,-190.353,561.505,618.64)"
       spreadMethod="pad"
       id="linearGradient690">
      <stop
         style="stop-opacity:1;stop-color:#292526"
         offset="0"
         id="stop692" />
      <stop
         style="stop-opacity:1;stop-color:#2e292a"
         offset="1"
         id="stop694" />
    </linearGradient>
    <clipPath
       clipPathUnits="userSpaceOnUse"
       id="clipPath670">
      <path
         inkscape:connector-curvature="0"
         d="m 5804.34,7252.73 h -119.47 c -0.77,0 -1.52,0.07 -2.26,0.19 v 116.3 c 0.74,0.13 1.49,0.19 2.26,0.19 h 37.86 l 95.11,-104.37 c -0.63,-6.89 -6.42,-12.31 -13.5,-12.31 m -63.71,76.68 c -3.39,0 -6.65,-0.28 -9.14,-0.67 v -29.51 c 1.63,-0.26 4.19,-0.47 7.72,-0.47 5.9,0 10.76,1.26 13.93,3.9 2.87,2.45 4.96,6.4 4.96,12.19 0,5.31 -1.97,9.03 -5.09,11.35 -2.84,2.12 -6.61,3.21 -12.38,3.21 m 0.13,-25.34 c -0.04,0 -0.08,0.01 -0.13,0.01 l -2.35,0.14 v 19.7 c 0.57,0.14 1.6,0.27 3.06,0.27 5.92,0 9.58,-3.32 9.58,-9.57 0,-7.13 -4.02,-10.55 -10.16,-10.55"
         id="path672" />
    </clipPath>
    <linearGradient
       x1="0"
       y1="0"
       x2="1"
       y2="0"
       gradientUnits="userSpaceOnUse"
       gradientTransform="matrix(190.353,-159.001,-159.001,-190.353,561.505,618.64)"
       spreadMethod="pad"
       id="linearGradient674">
      <stop
         style="stop-opacity:1;stop-color:#292526"
         offset="0"
         id="stop676" />
      <stop
         style="stop-opacity:1;stop-color:#2e292a"
         offset="1"
         id="stop678" />
    </linearGradient>
    <clipPath
       clipPathUnits="userSpaceOnUse"
       id="clipPath654">
      <path
         inkscape:connector-curvature="0"
         d="m 5697.33,7397.29 h -14.72 v 16.15 l 14.72,-16.15"
         id="path656" />
    </clipPath>
    <linearGradient
       x1="0"
       y1="0"
       x2="1"
       y2="0"
       gradientUnits="userSpaceOnUse"
       gradientTransform="matrix(190.353,-159.001,-159.001,-190.353,561.505,618.64)"
       spreadMethod="pad"
       id="linearGradient658">
      <stop
         style="stop-opacity:1;stop-color:#292526"
         offset="0"
         id="stop660" />
      <stop
         style="stop-opacity:1;stop-color:#2e292a"
         offset="1"
         id="stop662" />
    </linearGradient>
    <clipPath
       clipPathUnits="userSpaceOnUse"
       id="clipPath638">
      <path
         inkscape:connector-curvature="0"
         d="m 6170.67,6877.84 h -488.06 v 11.8 h 477.31 l 10.75,-11.8"
         id="path640" />
    </clipPath>
    <linearGradient
       x1="0"
       y1="0"
       x2="1"
       y2="0"
       gradientUnits="userSpaceOnUse"
       gradientTransform="matrix(190.353,-159.001,-159.001,-190.353,561.505,618.64)"
       spreadMethod="pad"
       id="linearGradient642">
      <stop
         style="stop-opacity:1;stop-color:#b1b4b2"
         offset="0"
         id="stop644" />
      <stop
         style="stop-opacity:1;stop-color:#caccca"
         offset="1"
         id="stop646" />
    </linearGradient>
    <clipPath
       clipPathUnits="userSpaceOnUse"
       id="clipPath622">
      <path
         inkscape:connector-curvature="0"
         d="m 6589.05,6271.16 c 0.01,0 0.01,0.01 0.01,0.01 0.09,1.16 0.18,65.03 0.25,147.26 l 10.31,-11.32 v -119.87 0 c 0,-0.05 0,-0.1 0,-0.14 0,-0.02 0,-0.03 0,-0.04 0,-0.04 0,-0.08 0,-0.11 0,-0.01 0,-0.03 0,-0.04 -0.01,-0.04 -0.01,-0.08 -0.01,-0.12 0,-0.01 0,-0.02 0,-0.02 -0.1,-3.48 -1.34,-6.74 -3.43,-9.53 0,-0.01 0,-0.01 0,-0.01 -0.02,-0.02 -0.04,-0.05 -0.05,-0.07 -1.81,-2.39 -4.22,-4.45 -7.08,-6 m -730.7,0 c -6.24,3.39 -10.4,9.12 -10.6,15.61 0,0 0,0.01 0,0.02 0,0.04 0,0.08 0,0.12 0,0.01 0,0.03 0,0.04 0,0.03 0,0.07 0,0.1 0,0.02 0,0.03 0,0.05 0,0.04 0,0.09 0,0.14 v 0 497.21 c 0,10.72 10.71,19.37 23.88,19.37 h 366.49 l 8.47,-9.3 h -376.12 c -7.62,0 -12.57,-6.35 -12.57,-12.41 0,0 0.16,-509.71 0.45,-510.95"
         id="path624" />
    </clipPath>
    <linearGradient
       x1="0"
       y1="0"
       x2="1"
       y2="0"
       gradientUnits="userSpaceOnUse"
       gradientTransform="matrix(190.353,-159.001,-159.001,-190.353,561.505,618.64)"
       spreadMethod="pad"
       id="linearGradient626">
      <stop
         style="stop-opacity:1;stop-color:#b1b4b2"
         offset="0"
         id="stop628" />
      <stop
         style="stop-opacity:1;stop-color:#caccca"
         offset="1"
         id="stop630" />
    </linearGradient>
    <clipPath
       clipPathUnits="userSpaceOnUse"
       id="clipPath606">
      <path
         inkscape:connector-curvature="0"
         d="m 6575.74,6267.89 h -704.11 c -12.98,0 -23.56,8.41 -23.88,18.88 0.2,-6.49 4.36,-12.22 10.6,-15.61 v 0 0 c -0.29,1.24 -0.45,510.95 -0.45,510.95 0,6.06 4.95,12.41 12.57,12.41 h 376.12 l 342.72,-376.09 c -0.07,-82.23 -0.16,-146.1 -0.25,-147.26 -3.81,-2.07 -8.39,-3.28 -13.32,-3.28 m 20.39,9.27 c 0.01,0.02 0.03,0.05 0.05,0.07 -0.02,-0.02 -0.04,-0.05 -0.05,-0.07 m 0.05,0.08 c 2.09,2.79 3.33,6.05 3.43,9.53 -0.1,-3.49 -1.34,-6.74 -3.43,-9.53 m 3.43,9.55 c 0,0.04 0,0.08 0.01,0.12 -0.01,-0.04 -0.01,-0.08 -0.01,-0.12 m -751.86,0 c 0,0.04 0,0.08 0,0.12 0,-0.04 0,-0.08 0,-0.12 m 0,0.16 c 0,0.03 0,0.07 0,0.1 0,-0.03 0,-0.07 0,-0.1 m 751.87,0 c 0,0.03 0,0.07 0,0.11 0,-0.04 0,-0.08 0,-0.11 m -751.87,0.15 c 0,0.04 0,0.09 0,0.14 0,-0.05 0,-0.1 0,-0.14 m 751.87,0 c 0,0.04 0,0.09 0,0.14 0,-0.05 0,-0.1 0,-0.14"
         id="path608" />
    </clipPath>
    <linearGradient
       x1="0"
       y1="0"
       x2="1"
       y2="0"
       gradientUnits="userSpaceOnUse"
       gradientTransform="matrix(190.353,-159.001,-159.001,-190.353,561.505,618.64)"
       spreadMethod="pad"
       id="linearGradient610">
      <stop
         style="stop-opacity:1;stop-color:#c3c6c2"
         offset="0"
         id="stop612" />
      <stop
         style="stop-opacity:1;stop-color:#dfe1de"
         offset="1"
         id="stop614" />
    </linearGradient>
    <clipPath
       clipPathUnits="userSpaceOnUse"
       id="clipPath590">
      <path
         inkscape:connector-curvature="0"
         d="M 6823.2,6161.75 H 5682.61 v 59.62 h 1086.26 l 54.33,-59.62"
         id="path592" />
    </clipPath>
    <linearGradient
       x1="0"
       y1="0"
       x2="1"
       y2="0"
       gradientUnits="userSpaceOnUse"
       gradientTransform="matrix(190.353,-159.001,-159.001,-190.353,561.505,618.64)"
       spreadMethod="pad"
       id="linearGradient594">
      <stop
         style="stop-opacity:1;stop-color:#b1b4b2"
         offset="0"
         id="stop596" />
      <stop
         style="stop-opacity:1;stop-color:#caccca"
         offset="1"
         id="stop598" />
    </linearGradient>
    <clipPath
       clipPathUnits="userSpaceOnUse"
       id="clipPath574">
      <path
         inkscape:connector-curvature="0"
         d="M 6768.87,6221.37 H 5682.61 v 656.47 h 488.06 l 67.45,-74.02 h -366.49 c -13.17,0 -23.88,-8.65 -23.88,-19.37 v -497.21 0 0 c 0,-0.05 0,-0.1 0,-0.14 0,-0.02 0,-0.03 0,-0.05 0,-0.03 0,-0.07 0,-0.1 0,-0.01 0,-0.03 0,-0.04 0,-0.04 0,-0.08 0,-0.12 0,-0.01 0,-0.02 0,-0.02 0.32,-10.47 10.9,-18.88 23.88,-18.88 h 704.11 c 4.93,0 9.51,1.21 13.32,3.28 0,0 0,-0.01 -0.01,-0.01 2.86,1.55 5.27,3.61 7.08,6 0.01,0.02 0.03,0.05 0.05,0.07 0,0 0,0 0,0.01 2.09,2.79 3.33,6.04 3.43,9.53 0,0 0,0.01 0,0.02 0,0.04 0,0.08 0.01,0.12 0,0.01 0,0.03 0,0.04 0,0.03 0,0.07 0,0.11 0,0.01 0,0.02 0,0.04 0,0.04 0,0.09 0,0.14 v 0 119.87 l 169.25,-185.74 m -608.95,668.27 h -477.31 v 38.81 h 441.95 l 35.36,-38.81 m -170.26,186.85 h -307.05 v 34 h 27.7 c 7.52,0 13.6,6.09 13.6,13.59 v 89.53 c 0,7.48 -6.08,13.6 -13.6,13.6 h -27.7 v 25.71 c 0.74,-0.12 1.49,-0.19 2.26,-0.19 h 119.47 c 7.08,0 12.87,5.42 13.5,12.31 l 34.48,-37.83 h -94.98 c -7.49,0 -13.57,-6.12 -13.57,-13.6 v -89.53 c 0,-7.5 6.08,-13.59 13.57,-13.59 h 119.48 c 7.47,0 13.56,6.09 13.56,13.59 v 61.36 l 19.86,-21.8 v -39.56 c 0,-7.5 6.1,-13.59 13.57,-13.59 h 34.86 l 30.99,-34 m -307.05,292.73 v 28.07 h 14.72 l 25.4,-27.88 h -37.86 c -0.77,0 -1.52,-0.06 -2.26,-0.19"
         id="path576" />
    </clipPath>
    <linearGradient
       x1="0"
       y1="0"
       x2="1"
       y2="0"
       gradientUnits="userSpaceOnUse"
       gradientTransform="matrix(190.353,-159.001,-159.001,-190.353,561.505,618.64)"
       spreadMethod="pad"
       id="linearGradient578">
      <stop
         style="stop-opacity:1;stop-color:#d0d2d0"
         offset="0"
         id="stop580" />
      <stop
         style="stop-opacity:1;stop-color:#ebeeec"
         offset="1"
         id="stop582" />
    </linearGradient>
  </defs>
  <text
     x="729.64001"
     y="742.35999"
     id="text20"
     style="font-size:129.22999573px;line-height:0%;font-family:'Gentium Book Basic';letter-spacing:0;word-spacing:0">
    <tspan
       x="729.64001"
       y="742.35999"
       id="tspan22" />
  </text>
  <text
     x="378.90805"
     y="2629.8093"
     transform="scale(4.0128205,0.24920128)"
     id="text24"
     style="font-size:46.95375824px;font-family:Arial;text-anchor:middle" />
  <text
     x="1310.91"
     y="662.35999"
     id="text26"
     style="font-size:129.22999573px;line-height:0%;font-family:'Gentium Book Basic';letter-spacing:0;word-spacing:0">
    <tspan
       x="1310.91"
       y="662.35999"
       id="tspan28" />
  </text>
  <text
     x="523.75732"
     y="2308.7712"
     transform="scale(4.0128205,0.24920128)"
     id="text30"
     style="font-size:46.95375824px;font-family:Arial;text-anchor:middle" />
  <text
     x="239.33"
     y="481.09998"
     id="text32"
     style="font-size:129.22999573px;line-height:0%;font-family:'Gentium Book Basic';letter-spacing:0;word-spacing:0">
    <tspan
       x="239.33"
       y="481.09998"
       id="tspan34" />
  </text>
  <text
     x="256.71869"
     y="1581.4249"
     transform="scale(4.0128205,0.24920128)"
     id="text36"
     style="font-size:46.95375824px;font-family:Arial;text-anchor:middle" />
  <text
     x="1337.38"
     y="264.63"
     id="text38"
     style="font-size:129.22999573px;line-height:0%;font-family:'Gentium Book Basic';letter-spacing:0;word-spacing:0">
    <tspan
       x="1337.38"
       y="264.63"
       id="tspan40" />
  </text>
  <text
     x="530.3573"
     y="712.74927"
     transform="scale(4.0128205,0.24920128)"
     id="text42"
     style="font-size:46.95375824px;font-family:Arial;text-anchor:middle" />
  <text
     x="1918.65"
     y="184.63"
     id="text44"
     style="font-size:129.22999573px;line-height:0%;font-family:'Gentium Book Basic';letter-spacing:0;word-spacing:0">
    <tspan
       x="1918.65"
       y="184.63"
       id="tspan46" />
  </text>
  <text
     x="675.20654"
     y="391.72095"
     transform="scale(4.0128205,0.24920128)"
     id="text48"
     style="font-size:46.95375824px;font-family:Arial;text-anchor:middle" />
  <text
     x="1529.53"
     y="-287.77002"
     id="text50"
     style="font-size:129.22999573px;line-height:0%;font-family:'Gentium Book Basic';letter-spacing:0;word-spacing:0">
    <tspan
       x="1529.53"
       y="-287.77002"
       id="tspan52" />
  </text>
  <text
     x="578.237"
     y="-1503.9294"
     transform="scale(4.0128205,0.24920128)"
     id="text54"
     style="font-size:46.95375824px;font-family:Arial;text-anchor:middle" />
  <text
     x="2110.79"
     y="-367.78003"
     id="text56"
     style="font-size:129.22999573px;line-height:0%;font-family:'Gentium Book Basic';letter-spacing:0;word-spacing:0">
    <tspan
       x="2110.79"
       y="-367.78003"
       id="tspan58" />
  </text>
  <text
     x="723.0863"
     y="-1824.9678"
     transform="scale(4.0128205,0.24920128)"
     id="text60"
     style="font-size:46.95375824px;font-family:Arial;text-anchor:middle" />
  <text
     x="277.98999"
     y="1046.9401"
     id="text62"
     style="font-size:208.33000183px;line-height:0%;font-family:'Gentium Book Basic';letter-spacing:0;word-spacing:0">
    <tspan
       x="277.98999"
       y="1046.9401"
       id="tspan64" />
  </text>
  <g
     id="g1038">
    <path
       id="path27"
       d="M 432.91327,56.473967 C 535.10618,145.04856 538.74005,306.17367 441.03007,416.37276 343.3201,526.57184 181.27964,544.10061 79.086729,455.52602 -23.106186,366.95143 -26.740042,205.82631 70.969928,95.627227 168.6799,-14.571854 330.72036,-32.100623 432.91327,56.473967 Z"
       inkscape:connector-curvature="0"
       style="fill:#3689e6;fill-opacity:1;stroke-width:11.10955811" />
    <path
       id="path51"
       d="M 511.63551,224.90351 C 510.08412,286.21516 486.47428,349.05812 440.66913,400.71799 342.95915,510.91711 180.91869,528.44584 78.725776,439.87129 30.827124,398.35563 4.4968216,340.92284 0.19382768,280.2288 0.79907934,346.58548 27.117411,410.48217 79.078682,455.51906 181.27159,544.09361 343.31975,526.55619 441.02202,416.36576 490.72697,360.30766 514.02704,291.0748 511.63551,224.90351 Z"
       inkscape:connector-curvature="0"
       style="opacity:1;fill:#000000;fill-opacity:0.49019608;stroke-width:11.10955811" />
    <g
       style="fill:#000000;fill-opacity:0.49019608"
       transform="translate(19.99993,20.00071)"
       id="g1016">
      <path
         style="fill:#000000;stroke-width:0.63803709;fill-opacity:0.49019608"
         d="m 170.31531,390.73791 c -2.43813,-1.90837 -3.29326,-5.07811 -2.12804,-7.86851 1.51906,-3.6352 3.48625,-4.24262 13.71676,-4.24262 h 8.91319 l 4.07901,-3.4816 c 6.57615,-5.61571 12.63379,-13.01412 17.40569,-21.26197 3.17119,-5.48073 7.95622,-18.30401 7.96311,-21.3411 l 0.005,-1.74545 -50.27909,-0.23273 -50.27911,-0.23273 -4.80936,-2.37614 c -5.88,-2.90677 -10.04639,-7.15172 -12.87028,-13.11419 l -2.03212,-4.28916 v -85.21079 -85.21078 l 2.37721,-4.81048 c 2.90633,-5.88102 7.15058,-10.04684 13.11219,-12.86982 l 4.28964,-2.02473 h 136.22092 136.22089 l 4.28972,2.02473 c 5.96161,2.82298 10.20586,6.9888 13.11221,12.86982 l 2.37721,4.81048 v 85.21078 85.21079 l -2.03217,4.28916 c -2.82389,5.96247 -6.99029,10.20742 -12.87029,13.11419 l -4.80933,2.37614 -50.27913,0.23273 -50.27909,0.23273 v 1.536 c 0,2.21091 2.96332,11.35476 5.39166,16.64233 4.09675,8.92044 11.51696,18.74618 19.24806,25.4883 l 4.75076,4.14487 h 8.94381 c 10.26374,0 12.2273,0.60509 13.74741,4.24262 1.16526,2.7904 0.30999,5.95084 -2.12806,7.86851 -1.62048,1.28 -2.38371,1.28 -85.68373,1.28 -83.30005,0 -84.06338,-0.0116 -85.68375,-1.28 z m 127.16405,-15.9907 c -9.74865,-11.71549 -16.08258,-24.49222 -19.10443,-38.53964 l -1.10056,-5.11535 h -21.27538 -21.27535 l -1.10662,5.14327 c -2.99857,13.94037 -8.87565,25.87928 -18.5887,37.76467 l -3.78028,4.62662 h 44.73005 44.73003 z m 94.9413,-59.45252 c 1.46269,-0.97746 3.45158,-2.95564 4.41961,-4.41717 1.68145,-2.53905 1.76989,-3.06501 1.97934,-11.79927 l 0.21877,-9.1392 H 256.05887 113.07877 l 0.002,7.81498 c 0.002,4.3008 0.3106,8.92277 0.68587,10.27491 0.8408,3.02778 5.44613,7.78008 8.35531,8.62255 1.33367,0.39564 51.39797,0.58182 134.87927,0.512 H 389.76 l 2.65954,-1.76873 z m -140.43663,-6.22546 c -2.43812,-1.90836 -3.29323,-5.07811 -2.12806,-7.86851 0.96931,-2.32727 3.75473,-4.24262 6.14305,-4.24262 2.38834,0 5.17376,1.93164 6.14307,4.24262 1.8304,4.38226 -1.37286,9.15549 -6.14307,9.15549 -1.42011,0 -3.03947,-0.512 -4.01502,-1.28 z m 146.78727,-99.40948 -0.16989,-66.88118 -1.76012,-2.66007 c -0.96791,-1.46618 -2.95687,-3.45135 -4.41965,-4.41949 L 389.762,133.93028 H 255.99904 122.2371 l -2.65962,1.76873 c -1.46278,0.97745 -3.45162,2.95564 -4.41965,4.41949 l -1.76005,2.66007 -0.17106,66.88118 -0.17105,66.88118 H 255.99888 398.9421 Z"
         id="path1000"
         inkscape:connector-curvature="0" />
      <path
         d="m 150.94787,210.03522 -10.95082,24.10665 h -8.48079 l -8.2134,-41.40155 c -0.40166,-2.27098 -1.33573,-4.3417 -3.6067,-5.00956 l 0.0671,-0.66787 h 21.36805 l -0.0659,0.66787 c -2.7386,0.33451 -4.07432,2.87169 -3.33933,6.34409 l 5.94362,30.05026 h 0.13309 l 7.01198,-15.35965 -2.13787,-16.02514 c -0.2662,-2.27098 -1.00121,-4.3417 -3.27217,-5.00956 l 0.0684,-0.66787 h 21.03355 l -0.0659,0.66787 c -2.73859,0.33451 -4.07432,2.80455 -3.67265,6.34409 l 3.47122,31.18575 h 0.13429 l 12.68702,-30.18336 c 1.67025,-4.07432 1.67025,-6.67862 -8.27936,-7.34648 l 0.0659,-0.66787 h 16.02633 l -0.0659,0.66787 c -3.73979,0.66786 -5.14148,2.93883 -6.27812,5.67623 l -17.16065,40.73488 h -9.14865 l -3.27217,-24.10665"
         style="fill:#000000;fill-opacity:0.49019608;fill-rule:nonzero;stroke:none;stroke-width:0.74679357"
         id="path1002"
         inkscape:connector-curvature="0" />
      <path
         d="m 188.67206,217.31341 c 10.08389,-1.86932 9.81651,-9.34891 9.81651,-11.81893 0,-3.6067 -1.46882,-5.07553 -2.60431,-5.07553 -3.33813,0 -7.14506,4.40767 -7.2122,16.89446 z m 19.63302,-9.81653 c 0,3.33932 -1.26857,9.08269 -19.63302,10.55151 0.0671,9.482 4.14028,12.41966 8.28054,12.41966 3.20622,0 5.60911,-0.86693 8.74818,-2.87051 l 0.13309,0.40047 c -1.20143,1.1343 -5.94243,6.47721 -15.29132,6.47721 -10.35127,0 -15.15941,-6.81171 -15.15941,-14.69062 0,-12.82131 11.61986,-20.0335 21.36923,-20.0335 6.61148,0 11.55271,3.33931 11.55271,7.74578"
         style="fill:#000000;fill-opacity:0.49019608;fill-rule:nonzero;stroke:none;stroke-width:0.74679357"
         id="path1004"
         inkscape:connector-curvature="0" />
      <path
         d="m 215.98257,189.40101 c 0.33334,-2.33812 -0.0671,-2.67145 -3.07195,-3.00598 l 0.0671,-0.66669 15.95919,-0.66785 h 0.66786 l -6.21099,44.07182 c -0.1331,0.73501 0.26856,1.33574 1.13548,1.33574 0.73501,0 1.66906,-0.26621 2.40525,-0.66787 l -0.0683,0.66787 c -3.13788,2.27096 -6.81054,4.00717 -11.01796,4.00717 -4.14026,0 -5.94244,-2.1367 -5.6091,-4.67504 l 5.74339,-40.39917"
         style="fill:#000000;fill-opacity:0.49019608;fill-rule:nonzero;stroke:none;stroke-width:0.74679357"
         id="path1006"
         inkscape:connector-curvature="0" />
      <path
         d="m 242.22353,219.58436 c 0,8.68103 4.6079,10.88369 8.747,10.88369 3.20502,0 6.47838,-1.80217 8.0803,-3.07077 l 0.20024,0.60073 c -1.20145,1.1343 -5.94244,6.47721 -15.29133,6.47721 -10.3501,0 -15.1594,-6.81171 -15.1594,-14.69062 0,-12.82131 11.61985,-20.0335 21.3704,-20.0335 7.81175,0 11.15106,4.80813 11.15106,8.41365 0,2.40406 -1.53596,5.61026 -6.41006,5.61026 -2.8717,0 -3.94121,-1.40285 -3.94121,-2.73859 0,-4.27335 4.34169,-3.60667 4.34169,-7.61268 0,-1.26857 -0.8681,-2.80455 -3.60669,-2.80455 -5.67624,0 -9.482,8.94842 -9.482,18.96517"
         style="fill:#000000;fill-opacity:0.49019608;fill-rule:nonzero;stroke:none;stroke-width:0.74679357"
         id="path1008"
         inkscape:connector-curvature="0" />
      <path
         d="m 274.4741,225.86132 c 0,5.7422 0.93524,7.94604 2.67145,7.94604 2.67144,0 7.27815,-4.00718 7.27815,-25.44119 0,-5.74339 -0.93406,-7.94722 -2.60312,-7.94722 -2.67144,0 -7.34648,4.00718 -7.34648,25.44237 z m -12.88728,-6.54434 c 0,-10.68462 8.6139,-19.56588 20.29971,-19.56588 9.68342,0 15.49276,6.61148 15.49276,15.15823 0,10.68462 -8.61388,19.56589 -20.36568,19.56589 -9.61627,0 -15.42679,-6.61149 -15.42679,-15.15824"
         style="fill:#000000;fill-opacity:0.49019608;fill-rule:nonzero;stroke:none;stroke-width:0.74679357"
         id="path1010"
         inkscape:connector-curvature="0" />
      <path
         d="m 343.78805,208.43212 c 0.33452,-2.33692 -0.1331,-3.67265 -2.13669,-3.67265 -3.07193,0 -5.27575,5.6091 -6.54434,13.02154 l -2.20382,16.02635 h -13.02154 l 3.53954,-25.37524 c 0.33334,-2.33692 -0.13429,-3.67265 -2.13787,-3.67265 -3.33931,0 -5.67505,6.81055 -6.87886,15.35847 l -1.86812,13.68942 h -13.02274 l 4.20742,-29.71574 c 0.33335,-2.33693 -0.0659,-2.67146 -3.07193,-3.00479 l 0.0684,-0.66788 15.95919,-0.66785 h 0.66787 l -1.73621,9.68223 h 0.33334 c 2.93765,-6.67745 8.07913,-9.68223 12.95441,-9.68223 5.00837,0 8.2134,3.80693 7.54554,8.68102 l -0.0659,0.33334 h 0.26621 c 2.93883,-6.20982 7.2122,-9.01436 12.08748,-9.01436 5.00719,0 9.01437,2.67144 7.94603,10.01674 l -2.73738,19.36447 c -0.1331,0.73501 0.2662,1.33574 1.13431,1.33574 0.73618,0 1.67024,-0.26621 2.40524,-0.66787 l -0.0671,0.66787 c -3.1379,2.27096 -6.81173,4.00717 -11.01796,4.00717 -4.14146,0 -5.94362,-2.1367 -5.60911,-4.67504 l 3.0048,-21.36806"
         style="fill:#000000;fill-opacity:0.49019608;fill-rule:nonzero;stroke:none;stroke-width:0.74679357"
         id="path1012"
         inkscape:connector-curvature="0" />
      <path
         d="m 372.63097,217.31341 c 10.0839,-1.86932 9.81534,-9.34891 9.81534,-11.81893 0,-3.6067 -1.46882,-5.07553 -2.6043,-5.07553 -3.33814,0 -7.14506,4.40767 -7.21104,16.89446 z m 19.63186,-9.81653 c 0,3.33932 -1.26976,9.08269 -19.63186,10.55151 0.0659,9.482 4.13911,12.41966 8.28057,12.41966 3.20503,0 5.60791,-0.86693 8.7458,-2.87051 l 0.13427,0.40047 c -1.20144,1.1343 -5.94243,6.47721 -15.29133,6.47721 -10.3501,0 -15.15823,-6.81171 -15.15823,-14.69062 0,-12.82131 11.61869,-20.0335 21.36923,-20.0335 6.61031,0 11.55155,3.33931 11.55155,7.74578"
         style="fill:#000000;fill-opacity:0.49019608;fill-rule:nonzero;stroke:none;stroke-width:0.74679357"
         id="path1014"
         inkscape:connector-curvature="0" />
    </g>
    <g
       id="g998">
      <path
         inkscape:connector-curvature="0"
         id="path857"
         d="m 170.31531,390.73791 c -2.43813,-1.90837 -3.29326,-5.07811 -2.12804,-7.86851 1.51906,-3.6352 3.48625,-4.24262 13.71676,-4.24262 h 8.91319 l 4.07901,-3.4816 c 6.57615,-5.61571 12.63379,-13.01412 17.40569,-21.26197 3.17119,-5.48073 7.95622,-18.30401 7.96311,-21.3411 l 0.005,-1.74545 -50.27909,-0.23273 -50.27911,-0.23273 -4.80936,-2.37614 c -5.88,-2.90677 -10.04639,-7.15172 -12.87028,-13.11419 l -2.03212,-4.28916 v -85.21079 -85.21078 l 2.37721,-4.81048 c 2.90633,-5.88102 7.15058,-10.04684 13.11219,-12.86982 l 4.28964,-2.02473 h 136.22092 136.22089 l 4.28972,2.02473 c 5.96161,2.82298 10.20586,6.9888 13.11221,12.86982 l 2.37721,4.81048 v 85.21078 85.21079 l -2.03217,4.28916 c -2.82389,5.96247 -6.99029,10.20742 -12.87029,13.11419 l -4.80933,2.37614 -50.27913,0.23273 -50.27909,0.23273 v 1.536 c 0,2.21091 2.96332,11.35476 5.39166,16.64233 4.09675,8.92044 11.51696,18.74618 19.24806,25.4883 l 4.75076,4.14487 h 8.94381 c 10.26374,0 12.2273,0.60509 13.74741,4.24262 1.16526,2.7904 0.30999,5.95084 -2.12806,7.86851 -1.62048,1.28 -2.38371,1.28 -85.68373,1.28 -83.30005,0 -84.06338,-0.0116 -85.68375,-1.28 z m 127.16405,-15.9907 c -9.74865,-11.71549 -16.08258,-24.49222 -19.10443,-38.53964 l -1.10056,-5.11535 h -21.27538 -21.27535 l -1.10662,5.14327 c -2.99857,13.94037 -8.87565,25.87928 -18.5887,37.76467 l -3.78028,4.62662 h 44.73005 44.73003 z m 94.9413,-59.45252 c 1.46269,-0.97746 3.45158,-2.95564 4.41961,-4.41717 1.68145,-2.53905 1.76989,-3.06501 1.97934,-11.79927 l 0.21877,-9.1392 H 256.05887 113.07877 l 0.002,7.81498 c 0.002,4.3008 0.3106,8.92277 0.68587,10.27491 0.8408,3.02778 5.44613,7.78008 8.35531,8.62255 1.33367,0.39564 51.39797,0.58182 134.87927,0.512 H 389.76 l 2.65954,-1.76873 z m -140.43663,-6.22546 c -2.43812,-1.90836 -3.29323,-5.07811 -2.12806,-7.86851 0.96931,-2.32727 3.75473,-4.24262 6.14305,-4.24262 2.38834,0 5.17376,1.93164 6.14307,4.24262 1.8304,4.38226 -1.37286,9.15549 -6.14307,9.15549 -1.42011,0 -3.03947,-0.512 -4.01502,-1.28 z m 146.78727,-99.40948 -0.16989,-66.88118 -1.76012,-2.66007 c -0.96791,-1.46618 -2.95687,-3.45135 -4.41965,-4.41949 L 389.762,133.93028 H 255.99904 122.2371 l -2.65962,1.76873 c -1.46278,0.97745 -3.45162,2.95564 -4.41965,4.41949 l -1.76005,2.66007 -0.17106,66.88118 -0.17105,66.88118 H 255.99888 398.9421 Z"
         style="fill:#ffffff;stroke-width:0.63803709" />
      <path
         inkscape:connector-curvature="0"
         id="path3608-3"
         style="fill:#ffffff;fill-opacity:1;fill-rule:nonzero;stroke:none;stroke-width:0.74679357"
         d="m 150.94787,210.03522 -10.95082,24.10665 h -8.48079 l -8.2134,-41.40155 c -0.40166,-2.27098 -1.33573,-4.3417 -3.6067,-5.00956 l 0.0671,-0.66787 h 21.36805 l -0.0659,0.66787 c -2.7386,0.33451 -4.07432,2.87169 -3.33933,6.34409 l 5.94362,30.05026 h 0.13309 l 7.01198,-15.35965 -2.13787,-16.02514 c -0.2662,-2.27098 -1.00121,-4.3417 -3.27217,-5.00956 l 0.0684,-0.66787 h 21.03355 l -0.0659,0.66787 c -2.73859,0.33451 -4.07432,2.80455 -3.67265,6.34409 l 3.47122,31.18575 h 0.13429 l 12.68702,-30.18336 c 1.67025,-4.07432 1.67025,-6.67862 -8.27936,-7.34648 l 0.0659,-0.66787 h 16.02633 l -0.0659,0.66787 c -3.73979,0.66786 -5.14148,2.93883 -6.27812,5.67623 l -17.16065,40.73488 h -9.14865 l -3.27217,-24.10665" />
      <path
         inkscape:connector-curvature="0"
         id="path3610-6"
         style="fill:#ffffff;fill-opacity:1;fill-rule:nonzero;stroke:none;stroke-width:0.74679357"
         d="m 188.67206,217.31341 c 10.08389,-1.86932 9.81651,-9.34891 9.81651,-11.81893 0,-3.6067 -1.46882,-5.07553 -2.60431,-5.07553 -3.33813,0 -7.14506,4.40767 -7.2122,16.89446 z m 19.63302,-9.81653 c 0,3.33932 -1.26857,9.08269 -19.63302,10.55151 0.0671,9.482 4.14028,12.41966 8.28054,12.41966 3.20622,0 5.60911,-0.86693 8.74818,-2.87051 l 0.13309,0.40047 c -1.20143,1.1343 -5.94243,6.47721 -15.29132,6.47721 -10.35127,0 -15.15941,-6.81171 -15.15941,-14.69062 0,-12.82131 11.61986,-20.0335 21.36923,-20.0335 6.61148,0 11.55271,3.33931 11.55271,7.74578" />
      <path
         inkscape:connector-curvature="0"
         id="path3612-7"
         style="fill:#ffffff;fill-opacity:1;fill-rule:nonzero;stroke:none;stroke-width:0.74679357"
         d="m 215.98257,189.40101 c 0.33334,-2.33812 -0.0671,-2.67145 -3.07195,-3.00598 l 0.0671,-0.66669 15.95919,-0.66785 h 0.66786 l -6.21099,44.07182 c -0.1331,0.73501 0.26856,1.33574 1.13548,1.33574 0.73501,0 1.66906,-0.26621 2.40525,-0.66787 l -0.0683,0.66787 c -3.13788,2.27096 -6.81054,4.00717 -11.01796,4.00717 -4.14026,0 -5.94244,-2.1367 -5.6091,-4.67504 l 5.74339,-40.39917" />
      <path
         inkscape:connector-curvature="0"
         id="path3614-5"
         style="fill:#ffffff;fill-opacity:1;fill-rule:nonzero;stroke:none;stroke-width:0.74679357"
         d="m 242.22353,219.58436 c 0,8.68103 4.6079,10.88369 8.747,10.88369 3.20502,0 6.47838,-1.80217 8.0803,-3.07077 l 0.20024,0.60073 c -1.20145,1.1343 -5.94244,6.47721 -15.29133,6.47721 -10.3501,0 -15.1594,-6.81171 -15.1594,-14.69062 0,-12.82131 11.61985,-20.0335 21.3704,-20.0335 7.81175,0 11.15106,4.80813 11.15106,8.41365 0,2.40406 -1.53596,5.61026 -6.41006,5.61026 -2.8717,0 -3.94121,-1.40285 -3.94121,-2.73859 0,-4.27335 4.34169,-3.60667 4.34169,-7.61268 0,-1.26857 -0.8681,-2.80455 -3.60669,-2.80455 -5.67624,0 -9.482,8.94842 -9.482,18.96517" />
      <path
         inkscape:connector-curvature="0"
         id="path3616-3"
         style="fill:#ffffff;fill-opacity:1;fill-rule:nonzero;stroke:none;stroke-width:0.74679357"
         d="m 274.4741,225.86132 c 0,5.7422 0.93524,7.94604 2.67145,7.94604 2.67144,0 7.27815,-4.00718 7.27815,-25.44119 0,-5.74339 -0.93406,-7.94722 -2.60312,-7.94722 -2.67144,0 -7.34648,4.00718 -7.34648,25.44237 z m -12.88728,-6.54434 c 0,-10.68462 8.6139,-19.56588 20.29971,-19.56588 9.68342,0 15.49276,6.61148 15.49276,15.15823 0,10.68462 -8.61388,19.56589 -20.36568,19.56589 -9.61627,0 -15.42679,-6.61149 -15.42679,-15.15824" />
      <path
         inkscape:connector-curvature="0"
         id="path3618-5"
         style="fill:#ffffff;fill-opacity:1;fill-rule:nonzero;stroke:none;stroke-width:0.74679357"
         d="m 343.78805,208.43212 c 0.33452,-2.33692 -0.1331,-3.67265 -2.13669,-3.67265 -3.07193,0 -5.27575,5.6091 -6.54434,13.02154 l -2.20382,16.02635 h -13.02154 l 3.53954,-25.37524 c 0.33334,-2.33692 -0.13429,-3.67265 -2.13787,-3.67265 -3.33931,0 -5.67505,6.81055 -6.87886,15.35847 l -1.86812,13.68942 h -13.02274 l 4.20742,-29.71574 c 0.33335,-2.33693 -0.0659,-2.67146 -3.07193,-3.00479 l 0.0684,-0.66788 15.95919,-0.66785 h 0.66787 l -1.73621,9.68223 h 0.33334 c 2.93765,-6.67745 8.07913,-9.68223 12.95441,-9.68223 5.00837,0 8.2134,3.80693 7.54554,8.68102 l -0.0659,0.33334 h 0.26621 c 2.93883,-6.20982 7.2122,-9.01436 12.08748,-9.01436 5.00719,0 9.01437,2.67144 7.94603,10.01674 l -2.73738,19.36447 c -0.1331,0.73501 0.2662,1.33574 1.13431,1.33574 0.73618,0 1.67024,-0.26621 2.40524,-0.66787 l -0.0671,0.66787 c -3.1379,2.27096 -6.81173,4.00717 -11.01796,4.00717 -4.14146,0 -5.94362,-2.1367 -5.60911,-4.67504 l 3.0048,-21.36806" />
      <path
         inkscape:connector-curvature="0"
         id="path3620-6"
         style="fill:#ffffff;fill-opacity:1;fill-rule:nonzero;stroke:none;stroke-width:0.74679357"
         d="m 372.63097,217.31341 c 10.0839,-1.86932 9.81534,-9.34891 9.81534,-11.81893 0,-3.6067 -1.46882,-5.07553 -2.6043,-5.07553 -3.33814,0 -7.14506,4.40767 -7.21104,16.89446 z m 19.63186,-9.81653 c 0,3.33932 -1.26976,9.08269 -19.63186,10.55151 0.0659,9.482 4.13911,12.41966 8.28057,12.41966 3.20503,0 5.60791,-0.86693 8.7458,-2.87051 l 0.13427,0.40047 c -1.20144,1.1343 -5.94243,6.47721 -15.29133,6.47721 -10.3501,0 -15.15823,-6.81171 -15.15823,-14.69062 0,-12.82131 11.61869,-20.0335 21.36923,-20.0335 6.61031,0 11.55155,3.33931 11.55155,7.74578" />
    </g>
  </g>
</svg>
