<?xml version="1.0" encoding="UTF-8" standalone="no"?>
<!-- Created with Inkscape (http://www.inkscape.org/) -->

<svg
   xmlns:dc="http://purl.org/dc/elements/1.1/"
   xmlns:cc="http://creativecommons.org/ns#"
   xmlns:rdf="http://www.w3.org/1999/02/22-rdf-syntax-ns#"
   xmlns:svg="http://www.w3.org/2000/svg"
   xmlns="http://www.w3.org/2000/svg"
   xmlns:sodipodi="http://sodipodi.sourceforge.net/DTD/sodipodi-0.dtd"
   xmlns:inkscape="http://www.inkscape.org/namespaces/inkscape"
   id="svg2"
   version="1.1"
   inkscape:version="0.92.2 2405546, 2018-03-11"
   width="512"
   height="512"
   sodipodi:docname="wifi-radar.svg">
  <metadata
     id="metadata8">
    <rdf:RDF>
      <cc:Work
         rdf:about="">
        <dc:format>image/svg+xml</dc:format>
        <dc:type
           rdf:resource="http://purl.org/dc/dcmitype/StillImage" />
        <dc:title />
      </cc:Work>
    </rdf:RDF>
  </metadata>
  <defs
     id="defs6" />
  <sodipodi:namedview
     pagecolor="#ffffff"
     bordercolor="#666666"
     borderopacity="1"
     objecttolerance="10"
     gridtolerance="10"
     guidetolerance="10"
     inkscape:pageopacity="0"
     inkscape:pageshadow="2"
     inkscape:window-width="1189"
     inkscape:window-height="637"
     id="namedview4"
     showgrid="false"
     inkscape:zoom="0.32593203"
     inkscape:cx="-88.044909"
     inkscape:cy="363.87633"
     inkscape:window-x="15"
     inkscape:window-y="39"
     inkscape:window-maximized="0"
     inkscape:current-layer="svg2" />
  <g
     transform="translate(-3.4152005e-7,-2.7615256e-6)"
     id="g870">
    <path
       style="fill:#c6262e;fill-opacity:1;stroke-width:11.10955811;image-rendering:optimizeSpeed"
       inkscape:connector-curvature="0"
       d="M 432.91327,56.473954 C 535.10618,145.04853 538.74004,306.17366 441.03007,416.37275 343.3201,526.57183 181.27964,544.10063 79.086725,455.52601 -23.106187,366.95144 -26.74004,205.82631 70.969931,95.627214 168.6799,-14.571876 330.72036,-32.100626 432.91327,56.473954 Z"
       id="path27" />
    <path
       style="opacity:1;fill:#000000;fill-opacity:0.49019608;stroke-width:11.10955811;image-rendering:optimizeSpeed"
       inkscape:connector-curvature="0"
       d="m 511.63551,224.90352 c -1.5514,61.31165 -25.16124,124.1546 -70.96639,175.81449 C 342.95915,510.91713 180.91869,528.44583 78.725778,439.87127 30.827125,398.35564 4.4968214,340.92282 0.1938281,280.22878 0.79907882,346.58546 27.117412,410.48219 79.078682,455.51904 181.27159,544.09363 343.31974,526.55623 441.02202,416.36578 490.72696,360.30764 514.02705,291.07481 511.63551,224.90352 Z"
       id="path51" />
    <g
       style="fill:#000000;fill-opacity:0.49019608"
       transform="translate(20.000001,20)"
       id="g858">
      <path
         inkscape:connector-curvature="0"
         id="path852"
         d="m 198.81655,406.55649 c -3.91539,-2.2708 -6.02655,-6.16242 -6.02655,-11.10909 0,-5.58503 2.03511,-9.48135 6.06548,-11.61266 2.90024,-1.53368 3.29899,-1.55884 24.70682,-1.55884 16.02108,0 21.97323,-0.21421 22.57135,-0.81234 0.61608,-0.61607 0.81234,-12.06258 0.81234,-47.37674 V 287.5224 l -3.89246,-2.02974 c -10.73691,-5.59881 -16.37951,-15.77737 -15.54221,-28.03625 0.68403,-10.01473 6.19804,-18.21213 15.589,-23.17536 4.45603,-2.35506 5.40336,-2.59189 11.36858,-2.84208 7.81376,-0.3277 12.22642,0.75834 17.57606,4.32584 7.63505,5.09157 12.04983,12.88796 12.64221,22.32582 0.68581,10.92648 -3.64615,19.60834 -12.86327,25.77979 l -4.56941,3.05951 v 46.86065 c 0,35.54456 0.19617,47.05681 0.81234,47.67298 0.59796,0.59796 6.52644,0.81234 22.4641,0.81234 20.16707,0 21.84089,0.0916 24.40992,1.3352 4.16642,2.01696 6.46961,6.01032 6.46961,11.2174 0,5.58503 -2.03511,9.48135 -6.06547,11.61266 L 312.39721,408 256.82454,407.9844 c -55.09646,-0.0154 -55.59354,-0.0277 -58.00799,-1.42796 z"
         style="fill:#000000;fill-opacity:0.49019608;stroke-width:0.67694992" />
      <path
         sodipodi:nodetypes="ccscccccsssssscsssssssssccccccccccssssssccccccsssssssccccssssssccsccccccccssssssscc"
         style="fill:#000000;fill-opacity:0.49019608;stroke-width:0.67694992"
         d="m 357.62728,374.48514 c -0.74464,-0.19225 -2.19162,-1.13849 -3.21551,-2.10275 -1.4725,-1.38676 -1.86161,-2.3639 -1.86161,-4.67502 0,-2.75011 0.36365,-3.30958 6.18759,-9.51988 21.65062,-23.0871 34.81513,-51.18359 38.5456,-82.26631 1.00263,-8.35375 0.43602,-31.18142 -0.96987,-39.07478 -5.3322,-29.93812 -18.88792,-56.29574 -39.63386,-77.06346 -8.53187,-8.54087 -11.88934,-11.36299 -20.03779,-16.84265 -36.11544,-24.287 -79.06597,-31.24949 -119.90348,-19.43694 -25.44211,7.35932 -49.89875,22.78877 -66.90626,42.21047 -18.90057,21.58348 -30.82206,47.90527 -34.65999,76.52678 -1.43516,10.70266 -0.88394,32.60903 1.07364,42.66925 5.53733,28.45681 17.26586,51.65268 37.09415,73.36223 3.67742,4.02633 4.24871,5.00341 4.24871,7.26654 0,4.51941 -3.35957,7.16743 -8.63111,6.80305 -1.92873,-0.13331 -7.7211,-5.90483 -14.72366,-14.67064 -6.68059,-8.36279 -7.54713,-9.59045 -12.02621,-17.03818 -7.41519,-12.3298 -11.26753,-21.08309 -15.73499,-35.75298 -9.415317,-30.91726 -8.521367,-66.57258 2.4374,-97.21722 5.23946,-14.6514 9.46503,-23.07914 17.78168,-35.46496 7.84913,-11.68954 22.46664,-27.16503 34.43712,-36.45842 6.13625,-4.76394 18.38418,-12.37678 26.58405,-16.52362 10.40534,-5.2622 27.93266,-10.77703 42.64784,-13.41881 7.10741,-1.27598 26.99073,-2.41288 33.8475,-1.93537 38.33165,2.66948 70.40175,16.12551 97.46499,40.89454 6.37199,5.83181 19.42961,20.6684 22.36392,25.41083 0.69116,1.11696 1.7864,2.6401 2.43397,3.38475 2.12793,2.44687 9.28918,15.65715 13.39626,24.71185 3.9508,8.71003 8.6615,25.28815 10.5826,37.24197 1.7555,10.92331 2.0761,31.61954 0.6726,43.41864 -2.0051,16.85687 -7.7716,36.42777 -14.97832,50.83469 -6.37781,12.74996 -17.75409,28.70148 -28.00542,39.26866 -5.12322,5.28103 -7.14006,6.32821 -10.51154,5.45774 z M 174.30254,341.65273 c -2.57509,-2.10305 -9.82623,-10.7009 -13.66766,-16.20607 -7.10093,-10.17636 -12.88978,-22.82702 -16.15268,-35.29923 -2.99168,-11.43548 -3.47933,-15.74039 -3.46899,-30.6232 0.0114,-16.35212 1.10614,-23.48487 5.66722,-36.92377 3.76727,-11.09999 6.00824,-15.67995 12.48976,-25.52581 21.22682,-32.24494 53.36148,-50.51032 92.51445,-52.58532 30.47925,-1.61532 62.71147,10.59253 84.44407,31.98294 16.4735,16.21408 25.97172,32.19944 32.25314,54.28158 3.7285,13.10719 4.5271,34.97244 1.81741,49.75582 -2.83615,15.47301 -9.71247,32.26606 -17.879,43.66327 -8.18974,11.42959 -12.49229,16.15697 -15.42362,16.94628 -3.35388,0.90313 -4.80702,0.45824 -6.99452,-2.1415 -2.89125,-3.43598 -2.41834,-6.48821 1.73699,-11.2114 27.69903,-31.48441 33.97374,-74.6126 16.18255,-111.22841 -13.94591,-28.70196 -37.99632,-47.99284 -69.05902,-55.39244 -31.39229,-7.47811 -64.99216,1.14414 -90.14229,23.1319 -9.33488,8.16111 -18.87882,20.8929 -24.07232,32.11291 -3.70508,8.00446 -7.48132,20.27714 -8.61221,27.98945 -4.55566,31.06812 4.79528,61.7164 25.87206,84.79728 2.00328,2.19376 3.91536,4.7068 4.24908,5.58455 1.57969,4.15491 -2.05936,9.06249 -6.68866,9.02023 -1.75654,-0.016 -3.24387,-0.64113 -5.06576,-2.12906 z m 27.16735,-27.81334 c -1.36939,-1.20451 -3.85912,-3.90854 -5.53274,-6.00894 -16.42136,-20.609 -20.9362,-48.74202 -11.97827,-74.63935 4.9432,-14.29073 17.94614,-29.95908 32.193,-38.79208 7.57873,-4.69879 12.72094,-6.82592 22.06244,-9.12638 5.48076,-1.3497 8.05076,-1.56406 18.54745,-1.54705 11.61295,0.0188 12.53658,0.12016 19.67049,2.15781 14.58957,4.16719 22.80104,9.05375 33.80853,20.1191 6.26036,6.29323 9.01616,9.66887 12.01586,14.7186 2.14085,3.60388 3.89246,6.83991 3.89246,7.19116 0,0.35125 0.65089,2.10996 1.4463,3.90824 0.79549,1.79827 2.21112,6.17794 3.14592,9.73259 1.4872,5.65503 1.70693,7.94396 1.75784,18.30961 0.0535,10.94534 -0.0864,12.3874 -1.84198,18.9546 -3.3224,12.42789 -8.59693,22.42248 -16.35152,30.98389 -2.26569,2.50138 -3.21707,3.04993 -5.79232,3.33968 -2.88165,0.32424 -3.22168,0.18688 -5.24637,-2.11909 -3.30591,-3.76523 -2.99,-5.81696 1.89072,-12.27973 9.01738,-11.94024 13.54496,-24.84742 13.54496,-38.61367 0,-29.73607 -20.86092,-55.25331 -50.3375,-61.5732 -7.94225,-1.70285 -21.68824,-1.07861 -29.88104,1.35698 -17.2969,5.14208 -31.58546,17.61184 -39.55694,34.52169 -5.12203,10.86532 -6.77797,26.22486 -4.09641,37.99597 2.59877,11.40769 6.91298,19.98149 14.99566,29.8014 4.64842,5.64753 5.13439,8.24401 2.19647,11.73553 -1.49888,1.78132 -2.20929,2.08134 -4.90789,2.07272 -2.58455,-0.008 -3.60572,-0.40623 -5.64512,-2.20008 z"
         id="path854"
         inkscape:connector-curvature="0" />
      <path
         inkscape:connector-curvature="0"
         id="path856"
         d="m 252.30893,273.07195 c -3.71185,-1.1291 -6.32086,-3.41522 -8.27987,-7.25518 -4.18188,-8.19718 1.33838,-18.15284 10.59521,-19.10823 10.17197,-1.04985 17.74882,8.67245 14.1304,18.13152 -1.15371,3.01594 -5.56601,7.21134 -8.51265,8.09418 -2.29409,0.68733 -5.91936,0.75026 -7.93309,0.13771 z"
         style="fill:#000000;fill-opacity:0.49019608;fill-rule:nonzero;stroke:none;stroke-width:0.67694992" />
    </g>
    <g
       id="g850">
      <path
         style="fill:#ffffff;stroke-width:0.67694992"
         d="m 198.81655,406.55649 c -3.91539,-2.2708 -6.02655,-6.16242 -6.02655,-11.10909 0,-5.58503 2.03511,-9.48135 6.06548,-11.61266 2.90024,-1.53368 3.29899,-1.55884 24.70682,-1.55884 16.02108,0 21.97323,-0.21421 22.57135,-0.81234 0.61608,-0.61607 0.81234,-12.06258 0.81234,-47.37674 V 287.5224 l -3.89246,-2.02974 c -10.73691,-5.59881 -16.37951,-15.77737 -15.54221,-28.03625 0.68403,-10.01473 6.19804,-18.21213 15.589,-23.17536 4.45603,-2.35506 5.40336,-2.59189 11.36858,-2.84208 7.81376,-0.3277 12.22642,0.75834 17.57606,4.32584 7.63505,5.09157 12.04983,12.88796 12.64221,22.32582 0.68581,10.92648 -3.64615,19.60834 -12.86327,25.77979 l -4.56941,3.05951 v 46.86065 c 0,35.54456 0.19617,47.05681 0.81234,47.67298 0.59796,0.59796 6.52644,0.81234 22.4641,0.81234 20.16707,0 21.84089,0.0916 24.40992,1.3352 4.16642,2.01696 6.46961,6.01032 6.46961,11.2174 0,5.58503 -2.03511,9.48135 -6.06547,11.61266 L 312.39721,408 256.82454,407.9844 c -55.09646,-0.0154 -55.59354,-0.0277 -58.00799,-1.42796 z"
         id="path3011"
         inkscape:connector-curvature="0" />
      <path
         inkscape:connector-curvature="0"
         id="path2986"
         d="m 357.62728,374.48514 c -0.74464,-0.19225 -2.19162,-1.13849 -3.21551,-2.10275 -1.4725,-1.38676 -1.86161,-2.3639 -1.86161,-4.67502 0,-2.75011 0.36365,-3.30958 6.18759,-9.51988 21.65062,-23.0871 34.81513,-51.18359 38.5456,-82.26631 1.00263,-8.35375 0.43602,-31.18142 -0.96987,-39.07478 -5.3322,-29.93812 -18.88792,-56.29574 -39.63386,-77.06346 -8.53187,-8.54087 -11.88934,-11.36299 -20.03779,-16.84265 -36.11544,-24.287 -79.06597,-31.24949 -119.90348,-19.43694 -25.44211,7.35932 -49.89875,22.78877 -66.90626,42.21047 -18.90057,21.58348 -30.82206,47.90527 -34.65999,76.52678 -1.43516,10.70266 -0.88394,32.60903 1.07364,42.66925 5.53733,28.45681 17.26586,51.65268 37.09415,73.36223 3.67742,4.02633 4.24871,5.00341 4.24871,7.26654 0,4.51941 -3.35957,7.16743 -8.63111,6.80305 -1.92873,-0.13331 -7.7211,-5.90483 -14.72366,-14.67064 -6.68059,-8.36279 -7.54713,-9.59045 -12.02621,-17.03818 -7.41519,-12.3298 -11.26753,-21.08309 -15.73499,-35.75298 -9.415317,-30.91726 -8.521367,-66.57258 2.4374,-97.21722 5.23946,-14.6514 9.46503,-23.07914 17.78168,-35.46496 7.84913,-11.68954 22.46664,-27.16503 34.43712,-36.45842 6.13625,-4.76394 18.38418,-12.37678 26.58405,-16.52362 10.40534,-5.2622 27.93266,-10.77703 42.64784,-13.41881 7.10741,-1.27598 26.99073,-2.41288 33.8475,-1.93537 38.33165,2.66948 70.40175,16.12551 97.46499,40.89454 6.37199,5.83181 19.42961,20.6684 22.36392,25.41083 0.69116,1.11696 1.7864,2.6401 2.43397,3.38475 2.12793,2.44687 9.28918,15.65715 13.39626,24.71185 3.9508,8.71003 8.6615,25.28815 10.5826,37.24197 1.7555,10.92331 2.0761,31.61954 0.6726,43.41864 -2.0051,16.85687 -7.7716,36.42777 -14.97832,50.83469 -6.37781,12.74996 -17.75409,28.70148 -28.00542,39.26866 -5.12322,5.28103 -7.14006,6.32821 -10.51154,5.45774 z M 174.30254,341.65273 c -2.57509,-2.10305 -9.82623,-10.7009 -13.66766,-16.20607 -7.10093,-10.17636 -12.88978,-22.82702 -16.15268,-35.29923 -2.99168,-11.43548 -3.47933,-15.74039 -3.46899,-30.6232 0.0114,-16.35212 1.10614,-23.48487 5.66722,-36.92377 3.76727,-11.09999 6.00824,-15.67995 12.48976,-25.52581 21.22682,-32.24494 53.36148,-50.51032 92.51445,-52.58532 30.47925,-1.61532 62.71147,10.59253 84.44407,31.98294 16.4735,16.21408 25.97172,32.19944 32.25314,54.28158 3.7285,13.10719 4.5271,34.97244 1.81741,49.75582 -2.83615,15.47301 -9.71247,32.26606 -17.879,43.66327 -8.18974,11.42959 -12.49229,16.15697 -15.42362,16.94628 -3.35388,0.90313 -4.80702,0.45824 -6.99452,-2.1415 -2.89125,-3.43598 -2.41834,-6.48821 1.73699,-11.2114 27.69903,-31.48441 33.97374,-74.6126 16.18255,-111.22841 -13.94591,-28.70196 -37.99632,-47.99284 -69.05902,-55.39244 -31.39229,-7.47811 -64.99216,1.14414 -90.14229,23.1319 -9.33488,8.16111 -18.87882,20.8929 -24.07232,32.11291 -3.70508,8.00446 -7.48132,20.27714 -8.61221,27.98945 -4.55566,31.06812 4.79528,61.7164 25.87206,84.79728 2.00328,2.19376 3.91536,4.7068 4.24908,5.58455 1.57969,4.15491 -2.05936,9.06249 -6.68866,9.02023 -1.75654,-0.016 -3.24387,-0.64113 -5.06576,-2.12906 z m 27.16735,-27.81334 c -1.36939,-1.20451 -3.85912,-3.90854 -5.53274,-6.00894 -16.42136,-20.609 -20.9362,-48.74202 -11.97827,-74.63935 4.9432,-14.29073 17.94614,-29.95908 32.193,-38.79208 7.57873,-4.69879 12.72094,-6.82592 22.06244,-9.12638 5.48076,-1.3497 8.05076,-1.56406 18.54745,-1.54705 11.61295,0.0188 12.53658,0.12016 19.67049,2.15781 14.58957,4.16719 22.80104,9.05375 33.80853,20.1191 6.26036,6.29323 9.01616,9.66887 12.01586,14.7186 2.14085,3.60388 3.89246,6.83991 3.89246,7.19116 0,0.35125 0.65089,2.10996 1.4463,3.90824 0.79549,1.79827 2.21112,6.17794 3.14592,9.73259 1.4872,5.65503 1.70693,7.94396 1.75784,18.30961 0.0535,10.94534 -0.0864,12.3874 -1.84198,18.9546 -3.3224,12.42789 -8.59693,22.42248 -16.35152,30.98389 -2.26569,2.50138 -3.21707,3.04993 -5.79232,3.33968 -2.88165,0.32424 -3.22168,0.18688 -5.24637,-2.11909 -3.30591,-3.76523 -2.99,-5.81696 1.89072,-12.27973 9.01738,-11.94024 13.54496,-24.84742 13.54496,-38.61367 0,-29.73607 -20.86092,-55.25331 -50.3375,-61.5732 -7.94225,-1.70285 -21.68824,-1.07861 -29.88104,1.35698 -17.2969,5.14208 -31.58546,17.61184 -39.55694,34.52169 -5.12203,10.86532 -6.77797,26.22486 -4.09641,37.99597 2.59877,11.40769 6.91298,19.98149 14.99566,29.8014 4.64842,5.64753 5.13439,8.24401 2.19647,11.73553 -1.49888,1.78132 -2.20929,2.08134 -4.90789,2.07272 -2.58455,-0.008 -3.60572,-0.40623 -5.64512,-2.20008 z"
         style="fill:#ffffff;stroke-width:0.67694992"
         sodipodi:nodetypes="ccscccccsssssscsssssssssccccccccccssssssccccccsssssssccccssssssccsccccccccssssssscc" />
      <path
         style="fill:#ffffff;fill-opacity:0;fill-rule:nonzero;stroke:none;stroke-width:0.67694992"
         d="m 252.30893,273.07195 c -3.71185,-1.1291 -6.32086,-3.41522 -8.27987,-7.25518 -4.18188,-8.19718 1.33838,-18.15284 10.59521,-19.10823 10.17197,-1.04985 17.74882,8.67245 14.1304,18.13152 -1.15371,3.01594 -5.56601,7.21134 -8.51265,8.09418 -2.29409,0.68733 -5.91936,0.75026 -7.93309,0.13771 z"
         id="path3013"
         inkscape:connector-curvature="0" />
    </g>
  </g>
</svg>
