<?xml version="1.0" encoding="UTF-8" standalone="no"?>
<!-- Created with Inkscape (http://www.inkscape.org/) -->

<svg
   xmlns:dc="http://purl.org/dc/elements/1.1/"
   xmlns:cc="http://creativecommons.org/ns#"
   xmlns:rdf="http://www.w3.org/1999/02/22-rdf-syntax-ns#"
   xmlns:svg="http://www.w3.org/2000/svg"
   xmlns="http://www.w3.org/2000/svg"
   xmlns:sodipodi="http://sodipodi.sourceforge.net/DTD/sodipodi-0.dtd"
   xmlns:inkscape="http://www.inkscape.org/namespaces/inkscape"
   id="svg2"
   version="1.1"
   inkscape:version="0.92.2 2405546, 2018-03-11"
   width="512"
   height="512"
   sodipodi:docname="winamp.svg">
  <metadata
     id="metadata8">
    <rdf:RDF>
      <cc:Work
         rdf:about="">
        <dc:format>image/svg+xml</dc:format>
        <dc:type
           rdf:resource="http://purl.org/dc/dcmitype/StillImage" />
        <dc:title></dc:title>
      </cc:Work>
    </rdf:RDF>
  </metadata>
  <defs
     id="defs6" />
  <sodipodi:namedview
     pagecolor="#ffffff"
     bordercolor="#666666"
     borderopacity="1"
     objecttolerance="10"
     gridtolerance="10"
     guidetolerance="10"
     inkscape:pageopacity="0"
     inkscape:pageshadow="2"
     inkscape:window-width="1366"
     inkscape:window-height="706"
     id="namedview4"
     showgrid="false"
     inkscape:zoom="0.46093751"
     inkscape:cx="413.83049"
     inkscape:cy="335.53954"
     inkscape:window-x="0"
     inkscape:window-y="0"
     inkscape:window-maximized="1"
     inkscape:current-layer="svg2"
     showguides="true"
     inkscape:guide-bbox="true" />
  <g
     id="g897">
    <path
       id="path955"
       d="M 432.91324,56.473981 C 535.10615,145.04857 538.74001,306.17369 441.03004,416.37277 343.32009,526.57182 181.27965,544.10062 79.086741,455.52602 -23.106205,366.95144 -26.740032,205.82632 70.969941,95.627241 168.67991,-14.571839 330.72036,-32.100609 432.91324,56.473981 Z"
       inkscape:connector-curvature="0"
       style="fill:#8a715e;fill-opacity:1;stroke-width:11.10955811" />
    <path
       id="path959"
       d="M 511.63547,224.90353 C 510.08409,286.21517 486.47425,349.05813 440.6691,400.718 342.95915,510.91712 180.9187,528.44582 78.725758,439.8713 30.827124,398.35565 4.4968187,340.92285 0.19382679,280.22882 0.79907979,346.58549 27.117405,410.48219 79.078691,455.51912 181.2716,544.09362 343.31975,526.55622 441.02199,416.36578 490.72694,360.30767 514.02701,291.07481 511.63547,224.90353 Z"
       inkscape:connector-curvature="0"
       style="opacity:1;fill:#000000;fill-opacity:0.49019608;stroke-width:11.10955811" />
    <g
       style="fill:#000000;fill-opacity:0.49019608"
       transform="translate(20,20)"
       id="g887">
      <path
         inkscape:connector-curvature="0"
         id="path883"
         d="M 255.71289,100 100,256.28711 l 68.61523,68.36328 49.98829,-51.58008 H 125.02539 L 309.57031,153.6582 Z m 80.47656,80.17969 -39.73242,40.34765 81.33203,1.10157 z M 379.36328,223.19531 193.40625,349.35156 256.28711,412 412,255.71289 Z"
         style="fill:#000000;fill-opacity:0.49019608;stroke:none;stroke-width:0.69333339" />
      <path
         sodipodi:nodetypes="ssccccscccs"
         inkscape:connector-curvature="0"
         id="path885"
         d="m 143.72888,365.19918 c 9.41982,-10.77688 79.10484,-81.7534 82.65072,-84.18252 4.82487,-3.3053 15.59843,-15.92585 14.51963,-17.00883 -28.11171,-1.13051 -48.3369,-1.04188 -76.47618,-0.95999 63.58249,-42.03163 130.54813,-84.74236 183.25067,-117.62905 10.52681,-6.64485 19.33249,-11.88104 19.56819,-11.63597 0.23571,0.24506 -20.50026,21.78539 -46.07991,47.86738 -25.57964,26.082 -46.20294,47.91612 -45.82955,48.52029 26.72917,0.15417 43.38934,0.20934 69.34918,0.58011 -90.74919,63.69113 -90.66521,63.7245 -205.39111,140.3743 -0.40765,0 1.58962,-2.66656 4.43836,-5.92572 z"
         style="fill:#000000;fill-opacity:0.49019608;stroke:none;stroke-width:0.69333339" />
    </g>
    <g
       id="g881">
      <path
         style="fill:#ffffff;fill-opacity:1;stroke:none;stroke-width:0.69333339"
         d="M 255.71289 100 L 100 256.28711 L 168.61523 324.65039 L 218.60352 273.07031 L 125.02539 273.07031 L 309.57031 153.6582 L 255.71289 100 z M 336.18945 180.17969 L 296.45703 220.52734 L 377.78906 221.62891 L 336.18945 180.17969 z M 379.36328 223.19531 L 193.40625 349.35156 L 256.28711 412 L 412 255.71289 L 379.36328 223.19531 z "
         id="rect3335" />
      <path
         style="fill:#ffffff;fill-opacity:1;stroke:none;stroke-width:0.69333339"
         d="m 143.72888,365.19918 c 9.41982,-10.77688 79.10484,-81.7534 82.65072,-84.18252 4.82487,-3.3053 15.59843,-15.92585 14.51963,-17.00883 -28.11171,-1.13051 -48.3369,-1.04188 -76.47618,-0.95999 63.58249,-42.03163 130.54813,-84.74236 183.25067,-117.62905 10.52681,-6.64485 19.33249,-11.88104 19.56819,-11.63597 0.23571,0.24506 -20.50026,21.78539 -46.07991,47.86738 -25.57964,26.082 -46.20294,47.91612 -45.82955,48.52029 26.72917,0.15417 43.38934,0.20934 69.34918,0.58011 -90.74919,63.69113 -90.66521,63.7245 -205.39111,140.3743 -0.40765,0 1.58962,-2.66656 4.43836,-5.92572 z"
         id="path3430"
         inkscape:connector-curvature="0"
         sodipodi:nodetypes="ssccccscccs" />
    </g>
  </g>
</svg>
