<?xml version="1.0" encoding="UTF-8" standalone="no"?>
<!-- Created with Inkscape (http://www.inkscape.org/) -->

<svg
   xmlns:osb="http://www.openswatchbook.org/uri/2009/osb"
   xmlns:dc="http://purl.org/dc/elements/1.1/"
   xmlns:cc="http://creativecommons.org/ns#"
   xmlns:rdf="http://www.w3.org/1999/02/22-rdf-syntax-ns#"
   xmlns:svg="http://www.w3.org/2000/svg"
   xmlns="http://www.w3.org/2000/svg"
   xmlns:sodipodi="http://sodipodi.sourceforge.net/DTD/sodipodi-0.dtd"
   xmlns:inkscape="http://www.inkscape.org/namespaces/inkscape"
   width="512"
   height="512"
   id="svg859"
   version="1.1"
   inkscape:version="0.92.2 2405546, 2018-03-11"
   sodipodi:docname="window-manager.svg"
   viewBox="0 0 512 512">
  <defs
     id="defs861">
    <linearGradient
       id="linearGradient4241"
       osb:paint="solid">
      <stop
         style="stop-color:#ba174e;stop-opacity:1;"
         offset="0"
         id="stop4243" />
    </linearGradient>
  </defs>
  <sodipodi:namedview
     id="base"
     pagecolor="#ffffff"
     bordercolor="#666666"
     borderopacity="1.0"
     inkscape:pageopacity="0.0"
     inkscape:pageshadow="2"
     inkscape:zoom="0.27655885"
     inkscape:cx="290.72658"
     inkscape:cy="154.87757"
     inkscape:document-units="px"
     inkscape:current-layer="layer1"
     showgrid="false"
     width="0px"
     height="0px"
     fit-margin-top="0"
     fit-margin-left="0"
     fit-margin-right="0"
     fit-margin-bottom="0"
     inkscape:window-width="1366"
     inkscape:window-height="706"
     inkscape:window-x="0"
     inkscape:window-y="0"
     inkscape:window-maximized="1" />
  <metadata
     id="metadata864">
    <rdf:RDF>
      <cc:Work
         rdf:about="">
        <dc:format>image/svg+xml</dc:format>
        <dc:type
           rdf:resource="http://purl.org/dc/dcmitype/StillImage" />
        <dc:title />
      </cc:Work>
    </rdf:RDF>
  </metadata>
  <g
     inkscape:label="Capa 1"
     inkscape:groupmode="layer"
     id="layer1"
     transform="translate(0,-540.3622)">
    <g
       id="g888">
      <path
         id="path943"
         d="m 432.91326,596.83618 c 102.19291,88.57459 105.82678,249.69971 8.1168,359.89879 C 343.32009,1066.934 181.27965,1084.4628 79.086743,995.88822 -23.106206,907.31364 -26.740033,746.18852 70.969943,635.98944 168.67991,525.79036 330.72036,508.26159 432.91326,596.83618 Z"
         inkscape:connector-curvature="0"
         style="fill:#3689e6;fill-opacity:1;stroke-width:11.10955811" />
      <path
         id="path947"
         d="M 511.6355,765.26573 C 510.08411,826.57737 486.47427,889.42033 440.66912,941.0802 342.95915,1051.2793 180.9187,1068.808 78.725753,980.2335 30.827124,938.71785 4.4968186,881.28505 0.19382651,820.59102 0.79907951,886.94769 27.117404,950.84439 79.078693,995.88132 181.2716,1084.4558 343.31975,1066.9184 441.02201,956.72798 490.72696,900.66987 514.02703,831.43701 511.6355,765.26573 Z"
         inkscape:connector-curvature="0"
         style="opacity:1;fill:#000000;fill-opacity:0.49019608;stroke-width:11.10955811" />
      <g
         id="g956"
         transform="translate(1.55721,976.75622)"
         style="fill:#000000;fill-opacity:0.49019608">
        <path
           inkscape:connector-curvature="0"
           style="fill:#000000;fill-opacity:0.49019608;stroke-width:0.60942417"
           d="m 275.01521,-284.24059 c -87.65552,-0.006 -127.60557,0.19224 -130.11136,0.64647 -12.49722,2.2656 -23.54885,13.31724 -25.81446,25.81445 -0.4496,2.47989 -0.65248,33.11777 -0.64647,97.50785 0.008,81.525712 0.12984,94.406032 0.92771,97.791032 2.67197,11.3353 12.03143,21.05017 23.25198,24.13477 4.54779,1.25 258.68553,1.27851 263.37894,0.0296 11.43248,-3.04278 20.81453,-12.68026 23.5215,-24.16405 0.79824,-3.38641 0.91797,-16.30478 0.91797,-98.359382 0,-104.07319 0.20456,-98.37617 -3.78907,-105.98442 -2.49694,-4.75689 -8.86029,-11.12025 -13.61719,-13.61718 -7.69426,-4.03877 1.38177,-3.78882 -138.01955,-3.79882 z m -111.57229,26.84569 a 15.000004,15.000004 0 0 1 15.00001,15.00001 15.000004,15.000004 0 0 1 -15.00001,15 15.000004,15.000004 0 0 1 -15,-15 15.000004,15.000004 0 0 1 15,-15.00001 z m 44.00002,0 a 15.000004,15.000004 0 0 1 15,15.00001 15.000004,15.000004 0 0 1 -15,15 15.000004,15.000004 0 0 1 -15.00002,-15 15.000004,15.000004 0 0 1 15.00002,-15.00001 z m 43.99999,0 a 15.000004,15.000004 0 0 1 15,15.00001 15.000004,15.000004 0 0 1 -15,15 15.000004,15.000004 0 0 1 -14.99999,-15 15.000004,15.000004 0 0 1 14.99999,-15.00001 z m -120.23635,51.15237 H 274.4488 417.69102 l -0.168,70.54102 -0.166,70.541042 -1.32813,2.875 c -1.8654,4.03779 -6.35258,8.61034 -10.1211,10.31445 l -3.17772,1.43555 -127.36917,0.11519 c -133.38726,0.11989 -129.12022,0.19696 -134.1055,-2.40234 -2.63625,-1.37471 -6.85342,-6.13679 -8.40233,-9.48828 l -1.31642,-2.84961 -0.16409,-70.541032 z"
           id="path954" />
      </g>
      <g
         transform="translate(-18.442791,956.75622)"
         id="g849">
        <path
           id="path841"
           d="m 275.01521,-284.24059 c -87.65552,-0.006 -127.60557,0.19224 -130.11136,0.64647 -12.49722,2.2656 -23.54885,13.31724 -25.81446,25.81445 -0.4496,2.47989 -0.65248,33.11777 -0.64647,97.50785 0.008,81.525712 0.12984,94.406032 0.92771,97.791032 2.67197,11.3353 12.03143,21.05017 23.25198,24.13477 4.54779,1.25 258.68553,1.27851 263.37894,0.0296 11.43248,-3.04278 20.81453,-12.68026 23.5215,-24.16405 0.79824,-3.38641 0.91797,-16.30478 0.91797,-98.359382 0,-104.07319 0.20456,-98.37617 -3.78907,-105.98442 -2.49694,-4.75689 -8.86029,-11.12025 -13.61719,-13.61718 -7.69426,-4.03877 1.38177,-3.78882 -138.01955,-3.79882 z m -111.57229,26.84569 a 15.000004,15.000004 0 0 1 15.00001,15.00001 15.000004,15.000004 0 0 1 -15.00001,15 15.000004,15.000004 0 0 1 -15,-15 15.000004,15.000004 0 0 1 15,-15.00001 z m 44.00002,0 a 15.000004,15.000004 0 0 1 15,15.00001 15.000004,15.000004 0 0 1 -15,15 15.000004,15.000004 0 0 1 -15.00002,-15 15.000004,15.000004 0 0 1 15.00002,-15.00001 z m 43.99999,0 a 15.000004,15.000004 0 0 1 15,15.00001 15.000004,15.000004 0 0 1 -15,15 15.000004,15.000004 0 0 1 -14.99999,-15 15.000004,15.000004 0 0 1 14.99999,-15.00001 z m -120.23635,51.15237 H 274.4488 417.69102 l -0.168,70.54102 -0.166,70.541042 -1.32813,2.875 c -1.8654,4.03779 -6.35258,8.61034 -10.1211,10.31445 l -3.17772,1.43555 -127.36917,0.11519 c -133.38726,0.11989 -129.12022,0.19696 -134.1055,-2.40234 -2.63625,-1.37471 -6.85342,-6.13679 -8.40233,-9.48828 l -1.31642,-2.84961 -0.16409,-70.541032 z"
           style="fill:#ffffff;stroke-width:0.60942417"
           inkscape:connector-curvature="0" />
      </g>
    </g>
  </g>
</svg>
