<?xml version="1.0" encoding="UTF-8" standalone="no"?>
<!-- Created with Inkscape (http://www.inkscape.org/) -->

<svg
   xmlns:dc="http://purl.org/dc/elements/1.1/"
   xmlns:cc="http://creativecommons.org/ns#"
   xmlns:rdf="http://www.w3.org/1999/02/22-rdf-syntax-ns#"
   xmlns:svg="http://www.w3.org/2000/svg"
   xmlns="http://www.w3.org/2000/svg"
   xmlns:sodipodi="http://sodipodi.sourceforge.net/DTD/sodipodi-0.dtd"
   xmlns:inkscape="http://www.inkscape.org/namespaces/inkscape"
   width="512"
   height="512"
   id="svg2"
   version="1.1"
   inkscape:version="0.92.2 2405546, 2018-03-11"
   sodipodi:docname="winefish.svg">
  <defs
     id="defs4">
    <linearGradient
       id="linearGradient3773">
      <stop
         style="stop-color:#7fba00;stop-opacity:1;"
         offset="0"
         id="stop3775" />
      <stop
         style="stop-color:#a1eb00;stop-opacity:1;"
         offset="1"
         id="stop3777" />
    </linearGradient>
  </defs>
  <sodipodi:namedview
     id="base"
     pagecolor="#ffffff"
     bordercolor="#666666"
     borderopacity="1.0"
     inkscape:pageopacity="0.0"
     inkscape:pageshadow="2"
     inkscape:zoom="0.4134061"
     inkscape:cx="566.78927"
     inkscape:cy="-34.96504"
     inkscape:document-units="px"
     inkscape:current-layer="layer1"
     showgrid="false"
     inkscape:snap-page="true"
     inkscape:snap-global="false"
     inkscape:snap-center="true"
     inkscape:snap-object-midpoints="false"
     showguides="true"
     inkscape:guide-bbox="true"
     inkscape:snap-bbox="true"
     inkscape:object-paths="true"
     inkscape:object-nodes="true"
     inkscape:window-width="1366"
     inkscape:window-height="706"
     inkscape:window-x="0"
     inkscape:window-y="0"
     inkscape:window-maximized="1"
     inkscape:snap-midpoints="true"
     inkscape:snap-grids="true"
     inkscape:snap-to-guides="false">
    <inkscape:grid
       type="xygrid"
       id="grid3002"
       empspacing="5"
       visible="true"
       enabled="true"
       snapvisiblegridlinesonly="true" />
  </sodipodi:namedview>
  <metadata
     id="metadata7">
    <rdf:RDF>
      <cc:Work
         rdf:about="">
        <dc:format>image/svg+xml</dc:format>
        <dc:type
           rdf:resource="http://purl.org/dc/dcmitype/StillImage" />
        <dc:title></dc:title>
      </cc:Work>
    </rdf:RDF>
  </metadata>
  <g
     inkscape:label="Layer 1"
     inkscape:groupmode="layer"
     id="layer1"
     transform="translate(0,-540.36218)">
    <g
       id="g845">
      <path
         id="path881"
         d="m 432.91329,596.83615 c 102.19291,88.57459 105.82677,249.69971 8.1168,359.89879 C 343.32012,1066.934 181.27964,1084.4628 79.086727,995.8882 -23.106181,907.31361 -26.740046,746.18849 70.969927,635.98941 168.6799,525.79033 330.72038,508.26156 432.91329,596.83615 Z"
         inkscape:connector-curvature="0"
         style="fill:#68b723;fill-opacity:1;stroke-width:11.10955811" />
      <path
         id="path883"
         d="m 511.63551,765.2657 c -1.5514,61.31166 -25.16123,124.1546 -70.96638,175.81449 C 342.95916,1051.2793 180.91869,1068.808 78.72578,980.23345 30.827126,938.71782 4.4968243,881.28501 0.19383044,820.59097 0.799082,886.94765 27.117413,950.84437 79.078684,995.88122 181.2716,1084.4558 343.31975,1066.9184 441.02203,956.72796 490.72697,900.66982 514.02705,831.43699 511.63551,765.2657 Z"
         inkscape:connector-curvature="0"
         style="opacity:1;fill:#000000;fill-opacity:0.49019608;stroke-width:11.10955811" />
      <path
         style="fill:#000000;stroke-width:3.3429985;fill-opacity:0.49019608"
         d="m 328.7775,956.94501 c -7.33156,-4.5311 -58.91202,-139.765 -59.60322,-156.2678 -0.67294,-16.0674 -22.94453,39.5457 -32.08847,80.1264 -14.49431,64.3246 -24.27047,79.9698 -45.00067,72.0148 -7.3088,-2.8041 -41.51115,-101.1464 -65.01948,-186.9501 -9.32519,-34.0364 -9.35809,-37.3045 -0.46521,-46.1976 8.56322,-8.5631 10.49782,-8.6423 18.38806,-0.7522 4.84986,4.8501 15.13225,32.1644 22.84976,60.6989 7.71741,28.5345 17.65277,62.1396 22.0785,74.6782 l 8.04673,22.7972 18.89526,-54.7004 c 22.27995,-64.4988 41.44563,-105.5248 50.60167,-108.3175 10.27751,-3.1348 25.32572,15.247 25.32572,30.9364 0,19.0989 39.89283,141.5927 46.11285,141.5927 2.71034,0 9.35291,-20.2298 14.76131,-44.9546 12.91016,-59.0197 42.52872,-159.3785 48.92438,-165.774 6.80818,-6.8083 29.41531,0.8598 29.41531,9.9772 0,4.0083 -6.62977,29.2823 -14.73279,56.1647 -8.103,26.8824 -20.97829,74.9798 -28.61172,106.8827 -7.63341,31.9036 -17.96608,67.7004 -22.96142,79.5493 -9.72709,23.0717 -25.71929,35.4161 -36.91673,28.4957 z"
         id="path34"
         inkscape:connector-curvature="0" />
      <path
         inkscape:connector-curvature="0"
         id="path3397"
         d="m 308.7775,936.94501 c -7.33156,-4.5311 -58.91202,-139.765 -59.60322,-156.2678 -0.67294,-16.0674 -22.94453,39.5457 -32.08847,80.1264 -14.49431,64.3246 -24.27047,79.9698 -45.00067,72.0148 -7.3088,-2.8041 -41.51115,-101.1464 -65.01948,-186.9501 -9.325192,-34.0364 -9.358092,-37.3045 -0.46521,-46.1976 8.56322,-8.5631 10.49782,-8.6423 18.38806,-0.7522 4.84986,4.8501 15.13225,32.1644 22.84976,60.6989 7.71741,28.5345 17.65277,62.1396 22.0785,74.6782 l 8.04673,22.7972 18.89526,-54.7004 c 22.27995,-64.4988 41.44563,-105.5248 50.60167,-108.3175 10.27751,-3.1348 25.32572,15.247 25.32572,30.9364 0,19.0989 39.89283,141.5927 46.11285,141.5927 2.71034,0 9.35291,-20.2298 14.76131,-44.9546 12.91016,-59.0197 42.52872,-159.3785 48.92438,-165.774 6.80818,-6.8083 29.41531,0.8598 29.41531,9.9772 0,4.0083 -6.62977,29.2823 -14.73279,56.1647 -8.103,26.8824 -20.97829,74.9798 -28.61172,106.8827 -7.63341,31.9036 -17.96608,67.7004 -22.96142,79.5493 -9.72709,23.0717 -25.71929,35.4161 -36.91673,28.4957 z"
         style="fill:#ffffff;stroke-width:3.3429985" />
    </g>
  </g>
</svg>
