<?xml version="1.0" encoding="UTF-8" standalone="no"?>
<!-- Created with Inkscape (http://www.inkscape.org/) -->

<svg
   xmlns:dc="http://purl.org/dc/elements/1.1/"
   xmlns:cc="http://creativecommons.org/ns#"
   xmlns:rdf="http://www.w3.org/1999/02/22-rdf-syntax-ns#"
   xmlns:svg="http://www.w3.org/2000/svg"
   xmlns="http://www.w3.org/2000/svg"
   xmlns:sodipodi="http://sodipodi.sourceforge.net/DTD/sodipodi-0.dtd"
   xmlns:inkscape="http://www.inkscape.org/namespaces/inkscape"
   id="svg2"
   version="1.1"
   inkscape:version="0.92.2 2405546, 2018-03-11"
   xml:space="preserve"
   width="512"
   height="512"
   viewBox="0 0 512 512"
   sodipodi:docname="wine.svg"><metadata
     id="metadata8"><rdf:RDF><cc:Work
         rdf:about=""><dc:format>image/svg+xml</dc:format><dc:type
           rdf:resource="http://purl.org/dc/dcmitype/StillImage" /><dc:title></dc:title></cc:Work></rdf:RDF></metadata><defs
     id="defs6"><clipPath
       clipPathUnits="userSpaceOnUse"
       id="clipPath16"><path
         d="m 0,0 656.967,0 0,490.475 L 0,490.475 0,0 Z"
         id="path18"
         inkscape:connector-curvature="0" /></clipPath><linearGradient
       x1="0"
       y1="0"
       x2="1"
       y2="0"
       gradientUnits="userSpaceOnUse"
       gradientTransform="matrix(-6.31e-5,1444.0616,-1444.0616,-6.31e-5,328.48291,-628.00391)"
       spreadMethod="pad"
       id="linearGradient24"><stop
         style="stop-opacity:1;stop-color:#ffffff"
         offset="0"
         id="stop26" /><stop
         style="stop-opacity:1;stop-color:#ffffff"
         offset="0.05086908"
         id="stop28" /><stop
         style="stop-opacity:1;stop-color:#f87d32"
         offset="0.460674"
         id="stop30" /><stop
         style="stop-opacity:1;stop-color:#ff1200"
         offset="1"
         id="stop32" /></linearGradient><clipPath
       clipPathUnits="userSpaceOnUse"
       id="clipPath40"><path
         d="m 0,490.475 656.967,0 L 656.967,0 0,0 0,490.475 Z"
         id="path42"
         inkscape:connector-curvature="0" /></clipPath></defs><sodipodi:namedview
     pagecolor="#ffffff"
     bordercolor="#666666"
     borderopacity="1"
     objecttolerance="10"
     gridtolerance="10"
     guidetolerance="10"
     inkscape:pageopacity="0"
     inkscape:pageshadow="2"
     inkscape:window-width="929"
     inkscape:window-height="627"
     id="namedview4"
     showgrid="false"
     inkscape:zoom="0.35355339"
     inkscape:cx="632.11712"
     inkscape:cy="118.95653"
     inkscape:window-x="159"
     inkscape:window-y="48"
     inkscape:window-maximized="0"
     inkscape:current-layer="g36" /><g
     id="g10"
     inkscape:groupmode="layer"
     inkscape:label="FreeVector-Wine-Glass-Icon"
     transform="matrix(1.25,0,0,-1.25,0,512)"><g
       id="g36"
       transform="matrix(0.7234644,0,0,0.7234644,-34.605998,21.311566)"><g
         transform="translate(1.6375728e-6,3.6971814e-5)"
         id="g854"><path
           id="path848"
           d="M 526.54504,474.25861 C 639.54898,376.31368 643.56727,198.14307 535.52052,76.285988 427.47379,-45.571075 248.29102,-64.954253 135.28708,32.990689 22.283106,130.93562 18.264855,309.10623 126.3116,430.96332 234.35835,552.8204 413.54113,572.20355 526.54504,474.25861 Z"
           inkscape:connector-curvature="0"
           style="fill:#c6262e;fill-opacity:1;stroke-width:12.28484249" /><path
           id="path850"
           d="M 613.59533,288.01084 C 611.87983,220.21301 585.77229,150.72186 535.1214,93.596882 427.07466,-28.260258 247.89189,-47.643326 134.88791,50.301539 81.922065,96.209146 52.806265,159.71779 48.048058,226.83266 48.717341,153.45609 77.819892,82.799735 135.27818,32.998374 248.28212,-64.946513 427.47341,-45.553824 535.51162,76.293717 590.47488,138.28224 616.23987,214.83926 613.59533,288.01084 Z"
           inkscape:connector-curvature="0"
           style="opacity:1;fill:#000000;fill-opacity:0.49019608;stroke-width:12.28484249" /><path
           style="fill:#000000;fill-opacity:0.49019608;stroke-width:0.73688745"
           d="m 266.74166,59.756368 c -2.21337,0.864297 -83.64471,81.966322 -85.15821,84.813802 -0.5817,1.09441 -1.05638,3.41561 -1.05488,5.15821 0.007,7.79413 7.72866,12.92885 15.23969,10.13372 1.14093,-0.42459 9.56637,-8.24548 18.72322,-17.37976 l 16.64879,-16.6078 39.72309,39.90179 39.72309,39.9018 -5.36672,7.13769 c -6.89278,9.16732 -13.5821,22.54869 -16.09265,32.19186 -2.57181,9.87842 -3.17482,24.24205 -1.43729,34.23645 3.1578,18.16397 12.73689,37.48297 28.1483,56.76914 6.40638,8.01711 24.29396,25.91136 33.8034,33.81604 13.36533,11.10986 30.53503,23.42105 43.74166,31.36409 l 4.68663,2.81874 63.47546,-63.48474 63.47547,-63.48477 -1.76256,-3.12194 c -5.8705,-10.39825 -20.40121,-30.64947 -31.84912,-44.38764 -8.04955,-9.65995 -25.02977,-26.55041 -33.82141,-33.64263 -31.79412,-25.64834 -62.85834,-35.02519 -91.51781,-27.62499 -11.23004,2.89973 -25.40058,10.13924 -34.81788,17.7879 -3.66749,2.9787 -6.48583,4.90501 -5.34562,3.65368 0.32015,-0.35135 -17.24926,-18.47248 -39.04313,-40.26916 L 247.23795,109.80753 263.90138,93.033991 C 276.54827,80.303524 280.78143,75.582805 281.46355,73.449072 284.241,64.760943 275.27684,56.423427 266.74166,59.756368 Z M 403.80272,190.56557 c 15.02714,3.72727 33.09453,14.79191 49.27383,30.17574 14.3633,13.65712 31.46052,35.20865 41.0384,51.73006 l 1.39686,2.40953 -49.3527,49.35681 c -27.14398,27.14626 -49.73077,49.35684 -50.19284,49.35684 -1.54934,0 -22.89988,-14.61733 -32.0817,-21.96423 -47.60474,-38.09136 -64.39717,-76.85691 -48.48988,-111.93967 3.46806,-7.64865 9.93625,-16.74377 17.54626,-24.67231 22.1708,-23.09882 44.81587,-30.91311 70.86177,-24.45277 z m -25.39394,11.37389 c -14.5313,2.25958 -29.53146,11.06265 -39.83543,23.37799 -5.28047,6.31123 -10.95536,17.85522 -12.47159,25.37004 -3.35764,16.64122 0.8198,38.34764 10.93709,56.83041 5.36378,9.7988 4.47079,9.34883 10.85836,5.47131 20.52824,-12.46148 45.36721,-20.44017 63.66216,-20.44933 17.73267,-0.009 37.03915,-5.36821 60.2026,-16.71177 6.1734,-3.02321 11.63887,-5.84077 12.14551,-6.26124 0.69412,-0.57608 -3.84213,-5.66345 -18.40628,-20.64244 -24.59099,-25.29141 -33.54862,-32.54275 -49.5834,-40.13849 -12.09026,-5.72721 -27.09451,-8.46592 -37.50902,-6.84648 z"
           id="path859"
           inkscape:connector-curvature="0" /><path
           inkscape:connector-curvature="0"
           id="path857"
           d="m 244.62585,81.872176 c -2.21336,0.864297 -83.64471,81.966324 -85.1582,84.813804 -0.58171,1.09441 -1.0564,3.41561 -1.05488,5.15821 0.007,7.79413 7.72865,12.92885 15.23968,10.13372 1.14093,-0.42459 9.56637,-8.24548 18.72322,-17.37976 l 16.64879,-16.6078 39.72309,39.90179 39.7231,39.9018 -5.36672,7.13768 c -6.89278,9.16733 -13.58211,22.5487 -16.09266,32.19186 -2.5718,9.87843 -3.17481,24.24206 -1.43729,34.23646 3.1578,18.16396 12.7369,37.48296 28.1483,56.76914 6.40638,8.0171 24.29396,25.91136 33.8034,33.81603 13.36534,11.10987 30.53503,23.42105 43.74166,31.3641 l 4.68663,2.81874 63.47547,-63.48474 63.47546,-63.48477 -1.76256,-3.12194 c -5.8705,-10.39825 -20.4012,-30.64947 -31.84912,-44.38765 -8.04955,-9.65994 -25.02977,-26.5504 -33.82141,-33.64262 -31.79411,-25.64834 -62.85834,-35.02519 -91.51781,-27.62499 -11.23004,2.89973 -25.40058,10.13924 -34.81788,17.7879 -3.66748,2.9787 -6.48582,4.90501 -5.34562,3.65368 0.32015,-0.35136 -17.24926,-18.47249 -39.04313,-40.26916 l -39.62523,-39.63033 16.66343,-16.77353 c 12.64689,-12.73047 16.88006,-17.451187 17.56217,-19.58492 2.77745,-8.688129 -6.18671,-17.025645 -14.72189,-13.692704 z M 381.68691,212.68137 c 15.02714,3.72728 33.09454,14.79192 49.27383,30.17575 14.3633,13.65712 31.46052,35.20865 41.0384,51.73006 l 1.39686,2.40953 -49.3527,49.35681 c -27.14398,27.14626 -49.73076,49.35683 -50.19284,49.35683 -1.54933,0 -22.89988,-14.61732 -32.0817,-21.96422 -47.60474,-38.09136 -64.39716,-76.85691 -48.48988,-111.93967 3.46807,-7.64866 9.93625,-16.74377 17.54626,-24.67231 22.1708,-23.09882 44.81587,-30.91311 70.86177,-24.45278 z m -25.39394,11.3739 c -14.5313,2.25958 -29.53146,11.06265 -39.83543,23.37799 -5.28047,6.31123 -10.95535,17.85522 -12.47159,25.37004 -3.35764,16.64121 0.8198,38.34764 10.93709,56.8304 5.36378,9.79881 4.47079,9.34884 10.85836,5.47132 20.52824,-12.46148 45.36722,-20.44017 63.66216,-20.44934 17.73267,-0.009 37.03915,-5.3682 60.20261,-16.71176 6.17339,-3.02321 11.63886,-5.84078 12.1455,-6.26124 0.69413,-0.57608 -3.84212,-5.66345 -18.40628,-20.64244 -24.59099,-25.29141 -33.54862,-32.54275 -49.5834,-40.13849 -12.09026,-5.72721 -27.09451,-8.46592 -37.50902,-6.84648 z"
           style="fill:#ffffff;stroke-width:0.73688745" /></g></g></g></svg>