<?xml version="1.0" encoding="UTF-8" standalone="no"?>
<svg
   xmlns:dc="http://purl.org/dc/elements/1.1/"
   xmlns:cc="http://creativecommons.org/ns#"
   xmlns:rdf="http://www.w3.org/1999/02/22-rdf-syntax-ns#"
   xmlns:svg="http://www.w3.org/2000/svg"
   xmlns="http://www.w3.org/2000/svg"
   xmlns:xlink="http://www.w3.org/1999/xlink"
   xmlns:sodipodi="http://sodipodi.sourceforge.net/DTD/sodipodi-0.dtd"
   xmlns:inkscape="http://www.inkscape.org/namespaces/inkscape"
   width="512"
   height="512"
   version="1.1"
   id="svg2"
   inkscape:version="0.92.2 2405546, 2018-03-11"
   sodipodi:docname="wolfram-mathematica.svg">
  <sodipodi:namedview
     pagecolor="#ffffff"
     bordercolor="#666666"
     borderopacity="1"
     objecttolerance="10"
     gridtolerance="10"
     guidetolerance="10"
     inkscape:pageopacity="0"
     inkscape:pageshadow="2"
     inkscape:window-width="1366"
     inkscape:window-height="706"
     id="namedview17"
     showgrid="false"
     inkscape:zoom="0.4609375"
     inkscape:cx="465.61747"
     inkscape:cy="177.33964"
     inkscape:window-x="0"
     inkscape:window-y="0"
     inkscape:window-maximized="1"
     inkscape:current-layer="svg2" />
  <title
     id="title4">Unison Icon</title>
  <desc
     id="desc6">This icon is a part of Clarity icon theme for gtk</desc>
  <metadata
     id="metadata8">
    <rdf:RDF>
      <cc:Work
         rdf:about="">
        <dc:title>Unison Icon</dc:title>
        <dc:description>This icon is a part of Clarity icon theme for gtk</dc:description>
        <dc:creator>
          <cc:Agent>
            <dc:title>Jakub Jankiewicz</dc:title>
          </cc:Agent>
        </dc:creator>
        <dc:rights>
          <cc:Agent>
            <dc:title>Jakub Jankiewicz</dc:title>
          </cc:Agent>
        </dc:rights>
        <dc:date>2010</dc:date>
        <dc:format>image/svg+xml</dc:format>
        <dc:type
           rdf:resource="http://purl.org/dc/dcmitype/StillImage" />
        <cc:license
           rdf:resource="http://www.gnu.org/copyleft/gpl.html" />
      </cc:Work>
    </rdf:RDF>
  </metadata>
  <defs
     id="defs10">
    <linearGradient
       x1="0"
       y1="128"
       x2="128"
       y2="0"
       id="gradient"
       gradientUnits="userSpaceOnUse">
      <stop
         id="start"
         style="stop-color:#dbdbdb;stop-opacity:1"
         offset="0" />
      <stop
         id="stop"
         style="stop-color:#757575;stop-opacity:1"
         offset="1" />
    </linearGradient>
    <linearGradient
       x1="56"
       y1="80"
       x2="56"
       y2="16"
       id="linearGradient3842"
       xlink:href="#linearGradient5105-8"
       gradientUnits="userSpaceOnUse"
       gradientTransform="translate(23.59322,18.254236)" />
    <linearGradient
       id="linearGradient5105-8">
      <stop
         id="stop5107-4"
         style="stop-color:#f5f5f5;stop-opacity:1"
         offset="0" />
      <stop
         id="stop5109-4"
         style="stop-color:#ebebeb;stop-opacity:1"
         offset="1" />
    </linearGradient>
  </defs>
  <g
     id="g857">
    <path
       id="path943"
       d="m 432.91326,56.474 c 102.19291,88.57459 105.82678,249.69971 8.1168,359.89879 C 343.32009,526.57182 181.27965,544.10062 79.086742,455.52602 -23.106205,366.95146 -26.740032,205.82634 70.969941,95.62726 168.67991,-14.57182 330.72036,-32.10059 432.91326,56.474 Z"
       inkscape:connector-curvature="0"
       style="fill:#c6262e;fill-opacity:1;stroke-width:11.10955811" />
    <path
       id="path947"
       d="m 511.6355,224.90355 c -1.55139,61.31164 -25.16123,124.1546 -70.96638,175.81447 C 342.95915,510.91712 180.9187,528.44582 78.725762,439.87132 30.827125,398.35567 4.4968186,340.92287 0.19382662,280.22884 0.79907962,346.58551 27.117405,410.48221 79.078692,455.51912 181.2716,544.09362 343.31975,526.55622 441.02201,416.3658 490.72696,360.30769 514.02703,291.07483 511.6355,224.90355 Z"
       inkscape:connector-curvature="0"
       style="opacity:1;fill:#000000;fill-opacity:0.49019608;stroke-width:11.10955811" />
    <path
       style="fill:#000000;fill-opacity:0.49019608;stroke-width:3.18409777"
       d="m 259.27117,404.94561 c -8.51767,-14.87996 -15.92131,-27.05446 -16.45253,-27.05446 -0.53122,0 -7.53244,2.86569 -15.55827,6.3682 -8.02583,3.5025 -21.21156,9.25641 -29.30165,12.78644 l -14.70919,6.41825 2.1931,-26.31885 c 1.20624,-14.47539 2.45225,-29.09119 2.76887,-32.47956 0.49649,-5.31304 -3.58623,-7.02954 -29.67322,-12.47548 -16.63689,-3.47317 -30.81259,-6.75711 -31.50154,-7.29767 -0.6889,-0.54055 8.39516,-11.76247 20.18685,-24.93762 l 21.43946,-23.95485 -21.43946,-23.95481 c -11.79169,-13.17518 -20.87575,-24.40045 -20.18685,-24.94508 0.68895,-0.5446 14.14822,-3.57093 29.90949,-6.72516 15.7613,-3.1542 29.55169,-6.61558 30.64532,-7.69194 1.09368,-1.07634 0.69421,-13.41977 -0.88765,-27.4298 -4.37294,-38.7291 -5.42244,-37.77181 25.96404,-23.68362 14.88567,6.6816 27.97648,12.23631 29.0907,12.34382 1.11422,0.10764 8.99486,-11.97904 17.51253,-26.85898 C 267.78885,132.17452 275.47428,120 276.34991,120 c 0.87563,0 8.56105,12.17452 17.07873,27.05444 8.51768,14.87994 15.92132,27.05444 16.45254,27.05444 0.53121,0 7.53244,-2.86569 15.55827,-6.3682 8.02583,-3.50251 21.21156,-9.25641 29.30163,-12.78645 l 14.70922,-6.41825 -2.19314,26.31888 c -1.20622,14.47537 -2.45221,29.09116 -2.76885,32.47954 -0.4965,5.31304 3.58623,7.02954 29.67324,12.47551 16.63689,3.47314 30.81258,6.75708 31.50154,7.29763 0.6889,0.54055 -8.39519,11.76251 -20.1869,24.93766 l -21.43944,23.95481 21.43944,23.95485 c 11.79171,13.17515 20.8758,24.40041 20.1869,24.94505 -0.68896,0.54463 -14.14822,3.57093 -29.90952,6.72516 -15.76127,3.1542 -29.55167,6.6156 -30.64532,7.69194 -1.09366,1.07637 -0.69419,13.41977 0.88769,27.4298 4.37292,38.72912 5.42241,37.77181 -25.96408,23.68362 -14.88565,-6.68161 -27.97646,-12.23632 -29.09068,-12.34382 -1.11422,-0.10738 -8.99486,11.97904 -17.51254,26.859 C 284.91096,419.82553 277.22554,432 276.34991,432 c -0.87563,0 -8.56106,-12.17447 -17.07874,-27.05439 z m 2.12987,-51.99648 -8.93187,-11.67511 -0.95953,13.13194 c -0.72251,9.88807 1.24384,16.79279 7.96024,27.95201 l 8.91978,14.82004 0.97163,-16.27688 c 0.8229,-13.78541 -0.39556,-18.06396 -7.96025,-27.952 z m 32.51946,29.90636 c 6.17263,-10.53281 8.03461,-17.59467 7.29844,-27.68063 l -0.9883,-13.54035 -8.75627,13.28392 c -6.30256,9.56143 -8.75627,17.31816 -8.75627,27.6806 0,7.91819 0.65603,14.39671 1.45783,14.39671 0.80181,0 5.18686,-6.36312 9.74457,-14.14025 z m -75.09424,-6.97259 19.31448,-8.37645 v -20.495 c 0,-19.80141 -0.24246,-20.41846 -7.16423,-18.23354 -28.67822,9.05261 -29.3768,9.54624 -31.65544,22.36811 -2.54227,14.30541 -3.21899,33.11333 -1.19142,33.11333 0.76017,0 10.07366,-3.76942 20.69661,-8.37645 z m 136.94259,-1.97189 c -0.10092,-5.69155 -1.17775,-15.9437 -2.39296,-22.78252 -2.06733,-11.63426 -3.3194,-12.81148 -19.46186,-18.29847 -9.48881,-3.22534 -17.60535,-5.5106 -18.03674,-5.07832 -0.43139,0.43226 -1.17991,9.33294 -1.66337,19.7793 l -0.87901,18.99335 18.92064,8.7107 c 10.40636,4.79089 19.99529,8.78126 21.30873,8.8675 1.31344,0.0863 2.3055,-4.49995 2.20457,-10.19154 z m -65.62543,-37.93774 11.51223,-16.44512 -10.81439,-14.59985 c -5.94792,-8.0299 -12.46903,-14.59985 -14.49135,-14.59985 -2.02232,0 -8.54343,6.56995 -14.49135,14.59985 l -10.8144,14.59985 11.51224,16.44512 c 6.33173,9.0448 12.53881,16.4451 13.79351,16.4451 1.2547,0 7.46178,-7.4003 13.79351,-16.4451 z m -77.15459,-12.84842 10.82346,-3.82074 -17.42256,-5.29772 c -15.66872,-4.76441 -18.81921,-4.82181 -31.29667,-0.57032 -14.30333,4.87363 -14.52105,8.72297 -0.63429,11.21422 15.35217,2.75416 27.80318,2.26121 38.53006,-1.52544 z m 175.71285,-2.18218 c 1.58289,-1.58287 -3.19302,-4.81415 -11.09489,-7.5066 -12.48755,-4.25493 -15.61536,-4.19501 -31.2967,0.59943 l -17.42257,5.32683 9.5523,3.73275 c 10.28062,4.01738 45.60483,2.50465 50.26186,-2.15241 z M 255.0796,295.04534 c 8.18149,-10.95879 10.6461,-16.44468 7.84388,-17.45946 -17.88489,-6.47665 -32.39119,-11.13816 -34.66132,-11.13816 -1.49035,0 -8.65684,7.52243 -15.9255,16.71653 l -13.21578,16.7165 17.12186,5.37765 c 9.41702,2.95769 19.32348,5.46518 22.01436,5.57218 2.69088,0.10711 10.26101,-6.99638 16.8225,-15.78524 z m 81.37747,10.21306 17.12184,-5.37765 -13.21576,-16.7165 c -7.26867,-9.1941 -14.43514,-16.71653 -15.92549,-16.71653 -2.27014,0 -16.77643,4.66151 -34.66132,11.13816 -5.4496,1.97349 17.95066,33.51171 24.66638,33.2447 2.69088,-0.10711 12.59734,-2.61449 22.01435,-5.57218 z M 195.27483,286.70481 c 9.88542,-12.96048 9.04811,-15.38781 -3.65794,-10.60432 -9.08261,3.41937 -33.07861,24.46342 -33.07861,29.00935 0,6.27898 28.98532,-8.24271 36.73655,-18.40503 z m 189.11678,6.38038 c -10.49052,-11.01821 -30.60988,-22.34411 -33.88111,-19.07288 -3.99499,3.99498 16.50275,24.25597 28.76195,28.42974 7.31337,2.48991 13.9155,3.98538 14.67143,3.32329 0.75595,-0.66211 -3.54262,-6.36819 -9.55227,-12.68015 z M 211.80164,255.63902 c 1.92985,-1.92985 -10.19083,-22.04296 -16.3782,-27.17802 -3.35445,-2.78395 -9.53482,-2.73718 -25.43431,0.19238 -11.55172,2.12849 -21.00312,5.11653 -21.00312,6.6401 0,1.5236 6.58842,9.8137 14.64096,18.42251 l 14.64092,15.65234 15.9705,-6.06831 c 8.78378,-3.33756 16.68723,-6.78503 17.56325,-7.66102 z m 191.91217,-20.38859 c 0,-1.65763 -5.37317,-3.87532 -11.94035,-4.92821 -6.56721,-1.05289 -16.47594,-2.82374 -22.01941,-3.93521 -9.14091,-1.83277 -10.99321,-0.75891 -19.90061,11.53741 -5.40187,7.45707 -9.82158,14.67601 -9.82158,16.04213 0,1.36609 7.52244,5.37323 16.71652,8.90468 l 16.71653,6.42086 15.12445,-15.51389 c 8.31845,-8.53264 15.12445,-16.87014 15.12445,-18.52777 z m -133.7321,10.3382 v -20.85912 l -11.31361,-4.72715 c -6.22249,-2.59991 -15.53597,-5.57158 -20.69663,-6.60373 -9.36564,-1.87312 -9.38295,-1.84782 -9.33955,13.64588 0.0694,24.77425 2.02563,28.35061 18.51017,33.83971 23.16285,7.71289 22.83962,7.92935 22.83962,-15.29559 z m 36.61713,14.77596 15.92049,-5.58961 0.92839,-22.46759 0.9284,-22.46759 -20.03299,7.24187 -20.03298,7.24187 -0.9415,21.0621 c -1.064,23.80239 -1.35913,23.61209 23.23019,14.97895 z m -88.96356,-46.28951 c -1.2249,-8.16804 -5.70503,-17.67433 -11.45356,-24.30288 l -9.44174,-10.88718 1.9408,17.51254 c 2.15079,19.4075 17.46701,48.13807 19.74559,37.03931 0.6714,-3.27034 0.31539,-11.98312 -0.79109,-19.36179 z m 126.78254,11.7754 c 4.49158,-7.00107 8.46326,-19.18469 9.60122,-29.45292 l 1.9408,-17.51254 -9.21036,10.61001 c -5.0657,5.83551 -10.08234,14.96989 -11.14809,20.29864 -2.32206,11.61029 -2.55082,27.99717 -0.39085,27.99717 0.85078,0 4.99406,-5.37315 9.20728,-11.94036 z m -95.0956,-29.98944 c -8.30544,-9.87047 -31.4899,-22.94293 -37.27186,-21.0156 -5.90623,1.96872 16.03041,22.70181 29.40652,27.79313 7.80802,2.97195 14.73289,4.99329 15.38862,4.49189 0.65572,-0.50139 -2.72975,-5.57265 -7.52328,-11.26942 z m 39.23117,0.72324 c 5.54686,-6.90232 10.08521,-13.95224 10.08521,-15.66648 0,-3.82657 -20.07478,-38.52435 -22.28869,-38.52435 -2.21391,0 -22.28869,34.69778 -22.28869,38.52435 0,3.77721 19.30497,28.21615 22.28869,28.21615 1.16506,0 6.65663,-5.64734 12.20348,-12.54967 z m 45.76848,-9.9891 c 4.81914,-5.77257 8.08998,-11.16769 7.2685,-11.98915 -5.21166,-5.21167 -45.43332,22.61794 -46.00647,31.83214 -0.33989,5.46413 31.02206,-10.60058 38.73797,-19.84299 z"
       id="path46"
       inkscape:connector-curvature="0" />
    <path
       inkscape:connector-curvature="0"
       id="path27"
       d="m 239.27117,384.94561 c -8.51767,-14.87996 -15.92131,-27.05446 -16.45253,-27.05446 -0.53122,0 -7.53244,2.86569 -15.55827,6.3682 -8.02583,3.5025 -21.21156,9.25641 -29.30165,12.78644 l -14.70919,6.41825 2.1931,-26.31885 c 1.20624,-14.47539 2.45225,-29.09119 2.76887,-32.47956 0.49649,-5.31304 -3.58623,-7.02954 -29.67322,-12.47548 -16.63689,-3.47317 -30.81259,-6.75711 -31.50154,-7.29767 -0.6889,-0.54055 8.39516,-11.76247 20.18685,-24.93762 l 21.43946,-23.95485 -21.43946,-23.95481 c -11.79169,-13.17518 -20.87575,-24.40045 -20.18685,-24.94508 0.68895,-0.5446 14.14822,-3.57093 29.90949,-6.72516 15.7613,-3.1542 29.55169,-6.61558 30.64532,-7.69194 1.09368,-1.07634 0.69421,-13.41977 -0.88765,-27.4298 -4.37294,-38.7291 -5.42244,-37.77181 25.96404,-23.68362 14.88567,6.6816 27.97648,12.23631 29.0907,12.34382 1.11422,0.10764 8.99486,-11.97904 17.51253,-26.85898 C 247.78885,112.17452 255.47428,100 256.34991,100 c 0.87563,0 8.56105,12.17452 17.07873,27.05444 8.51768,14.87994 15.92132,27.05444 16.45254,27.05444 0.53121,0 7.53244,-2.86569 15.55827,-6.3682 8.02583,-3.50251 21.21156,-9.25641 29.30163,-12.78645 l 14.70922,-6.41825 -2.19314,26.31888 c -1.20622,14.47537 -2.45221,29.09116 -2.76885,32.47954 -0.4965,5.31304 3.58623,7.02954 29.67324,12.47551 16.63689,3.47314 30.81258,6.75708 31.50154,7.29763 0.6889,0.54055 -8.39519,11.76251 -20.1869,24.93766 l -21.43944,23.95481 21.43944,23.95485 c 11.79171,13.17515 20.8758,24.40041 20.1869,24.94505 -0.68896,0.54463 -14.14822,3.57093 -29.90952,6.72516 -15.76127,3.1542 -29.55167,6.6156 -30.64532,7.69194 -1.09366,1.07637 -0.69419,13.41977 0.88769,27.4298 4.37292,38.72912 5.42241,37.77181 -25.96408,23.68362 -14.88565,-6.68161 -27.97646,-12.23632 -29.09068,-12.34382 -1.11422,-0.10738 -8.99486,11.97904 -17.51254,26.859 C 264.91096,399.82553 257.22554,412 256.34991,412 c -0.87563,0 -8.56106,-12.17447 -17.07874,-27.05439 z m 2.12987,-51.99648 -8.93187,-11.67511 -0.95953,13.13194 c -0.72251,9.88807 1.24384,16.79279 7.96024,27.95201 l 8.91978,14.82004 0.97163,-16.27688 c 0.8229,-13.78541 -0.39556,-18.06396 -7.96025,-27.952 z m 32.51946,29.90636 c 6.17263,-10.53281 8.03461,-17.59467 7.29844,-27.68063 l -0.9883,-13.54035 -8.75627,13.28392 c -6.30256,9.56143 -8.75627,17.31816 -8.75627,27.6806 0,7.91819 0.65603,14.39671 1.45783,14.39671 0.80181,0 5.18686,-6.36312 9.74457,-14.14025 z m -75.09424,-6.97259 19.31448,-8.37645 v -20.495 c 0,-19.80141 -0.24246,-20.41846 -7.16423,-18.23354 -28.67822,9.05261 -29.3768,9.54624 -31.65544,22.36811 -2.54227,14.30541 -3.21899,33.11333 -1.19142,33.11333 0.76017,0 10.07366,-3.76942 20.69661,-8.37645 z m 136.94259,-1.97189 c -0.10092,-5.69155 -1.17775,-15.9437 -2.39296,-22.78252 -2.06733,-11.63426 -3.3194,-12.81148 -19.46186,-18.29847 -9.48881,-3.22534 -17.60535,-5.5106 -18.03674,-5.07832 -0.43139,0.43226 -1.17991,9.33294 -1.66337,19.7793 l -0.87901,18.99335 18.92064,8.7107 c 10.40636,4.79089 19.99529,8.78126 21.30873,8.8675 1.31344,0.0863 2.3055,-4.49995 2.20457,-10.19154 z m -65.62543,-37.93774 11.51223,-16.44512 -10.81439,-14.59985 c -5.94792,-8.0299 -12.46903,-14.59985 -14.49135,-14.59985 -2.02232,0 -8.54343,6.56995 -14.49135,14.59985 l -10.8144,14.59985 11.51224,16.44512 c 6.33173,9.0448 12.53881,16.4451 13.79351,16.4451 1.2547,0 7.46178,-7.4003 13.79351,-16.4451 z m -77.15459,-12.84842 10.82346,-3.82074 -17.42256,-5.29772 c -15.66872,-4.76441 -18.81921,-4.82181 -31.29667,-0.57032 -14.30333,4.87363 -14.52105,8.72297 -0.63429,11.21422 15.35217,2.75416 27.80318,2.26121 38.53006,-1.52544 z m 175.71285,-2.18218 c 1.58289,-1.58287 -3.19302,-4.81415 -11.09489,-7.5066 -12.48755,-4.25493 -15.61536,-4.19501 -31.2967,0.59943 l -17.42257,5.32683 9.5523,3.73275 c 10.28062,4.01738 45.60483,2.50465 50.26186,-2.15241 z M 235.0796,275.04534 c 8.18149,-10.95879 10.6461,-16.44468 7.84388,-17.45946 -17.88489,-6.47665 -32.39119,-11.13816 -34.66132,-11.13816 -1.49035,0 -8.65684,7.52243 -15.9255,16.71653 l -13.21578,16.7165 17.12186,5.37765 c 9.41702,2.95769 19.32348,5.46518 22.01436,5.57218 2.69088,0.10711 10.26101,-6.99638 16.8225,-15.78524 z m 81.37747,10.21306 17.12184,-5.37765 -13.21576,-16.7165 c -7.26867,-9.1941 -14.43514,-16.71653 -15.92549,-16.71653 -2.27014,0 -16.77643,4.66151 -34.66132,11.13816 -5.4496,1.97349 17.95066,33.51171 24.66638,33.2447 2.69088,-0.10711 12.59734,-2.61449 22.01435,-5.57218 z M 175.27483,266.70481 c 9.88542,-12.96048 9.04811,-15.38781 -3.65794,-10.60432 -9.08261,3.41937 -33.07861,24.46342 -33.07861,29.00935 0,6.27898 28.98532,-8.24271 36.73655,-18.40503 z m 189.11678,6.38038 c -10.49052,-11.01821 -30.60988,-22.34411 -33.88111,-19.07288 -3.99499,3.99498 16.50275,24.25597 28.76195,28.42974 7.31337,2.48991 13.9155,3.98538 14.67143,3.32329 0.75595,-0.66211 -3.54262,-6.36819 -9.55227,-12.68015 z M 191.80164,235.63902 c 1.92985,-1.92985 -10.19083,-22.04296 -16.3782,-27.17802 -3.35445,-2.78395 -9.53482,-2.73718 -25.43431,0.19238 -11.55172,2.12849 -21.00312,5.11653 -21.00312,6.6401 0,1.5236 6.58842,9.8137 14.64096,18.42251 l 14.64092,15.65234 15.9705,-6.06831 c 8.78378,-3.33756 16.68723,-6.78503 17.56325,-7.66102 z m 191.91217,-20.38859 c 0,-1.65763 -5.37317,-3.87532 -11.94035,-4.92821 -6.56721,-1.05289 -16.47594,-2.82374 -22.01941,-3.93521 -9.14091,-1.83277 -10.99321,-0.75891 -19.90061,11.53741 -5.40187,7.45707 -9.82158,14.67601 -9.82158,16.04213 0,1.36609 7.52244,5.37323 16.71652,8.90468 l 16.71653,6.42086 15.12445,-15.51389 c 8.31845,-8.53264 15.12445,-16.87014 15.12445,-18.52777 z m -133.7321,10.3382 v -20.85912 l -11.31361,-4.72715 c -6.22249,-2.59991 -15.53597,-5.57158 -20.69663,-6.60373 -9.36564,-1.87312 -9.38295,-1.84782 -9.33955,13.64588 0.0694,24.77425 2.02563,28.35061 18.51017,33.83971 23.16285,7.71289 22.83962,7.92935 22.83962,-15.29559 z m 36.61713,14.77596 15.92049,-5.58961 0.92839,-22.46759 0.9284,-22.46759 -20.03299,7.24187 -20.03298,7.24187 -0.9415,21.0621 c -1.064,23.80239 -1.35913,23.61209 23.23019,14.97895 z m -88.96356,-46.28951 c -1.2249,-8.16804 -5.70503,-17.67433 -11.45356,-24.30288 l -9.44174,-10.88718 1.9408,17.51254 c 2.15079,19.4075 17.46701,48.13807 19.74559,37.03931 0.6714,-3.27034 0.31539,-11.98312 -0.79109,-19.36179 z m 126.78254,11.7754 c 4.49158,-7.00107 8.46326,-19.18469 9.60122,-29.45292 l 1.9408,-17.51254 -9.21036,10.61001 c -5.0657,5.83551 -10.08234,14.96989 -11.14809,20.29864 -2.32206,11.61029 -2.55082,27.99717 -0.39085,27.99717 0.85078,0 4.99406,-5.37315 9.20728,-11.94036 z m -95.0956,-29.98944 c -8.30544,-9.87047 -31.4899,-22.94293 -37.27186,-21.0156 -5.90623,1.96872 16.03041,22.70181 29.40652,27.79313 7.80802,2.97195 14.73289,4.99329 15.38862,4.49189 0.65572,-0.50139 -2.72975,-5.57265 -7.52328,-11.26942 z m 39.23117,0.72324 c 5.54686,-6.90232 10.08521,-13.95224 10.08521,-15.66648 0,-3.82657 -20.07478,-38.52435 -22.28869,-38.52435 -2.21391,0 -22.28869,34.69778 -22.28869,38.52435 0,3.77721 19.30497,28.21615 22.28869,28.21615 1.16506,0 6.65663,-5.64734 12.20348,-12.54967 z m 45.76848,-9.9891 c 4.81914,-5.77257 8.08998,-11.16769 7.2685,-11.98915 -5.21166,-5.21167 -45.43332,22.61794 -46.00647,31.83214 -0.33989,5.46413 31.02206,-10.60058 38.73797,-19.84299 z"
       style="fill:#ffffff;fill-opacity:1;stroke-width:3.18409777" />
  </g>
</svg>
