<?xml version="1.0" encoding="UTF-8" standalone="no"?>
<!-- Created with Inkscape (http://www.inkscape.org/) -->

<svg
   xmlns:dc="http://purl.org/dc/elements/1.1/"
   xmlns:cc="http://creativecommons.org/ns#"
   xmlns:rdf="http://www.w3.org/1999/02/22-rdf-syntax-ns#"
   xmlns:svg="http://www.w3.org/2000/svg"
   xmlns="http://www.w3.org/2000/svg"
   xmlns:sodipodi="http://sodipodi.sourceforge.net/DTD/sodipodi-0.dtd"
   xmlns:inkscape="http://www.inkscape.org/namespaces/inkscape"
   width="512"
   height="512"
   id="svg2"
   version="1.1"
   inkscape:version="0.92.2 2405546, 2018-03-11"
   sodipodi:docname="workspace-switcher-right-bottom.svg">
  <defs
     id="defs4" />
  <sodipodi:namedview
     id="base"
     pagecolor="#ffffff"
     bordercolor="#666666"
     borderopacity="1.0"
     inkscape:pageopacity="0.0"
     inkscape:pageshadow="2"
     inkscape:zoom="0.35"
     inkscape:cx="684.4181"
     inkscape:cy="102.17046"
     inkscape:document-units="px"
     inkscape:current-layer="layer1"
     showgrid="false"
     inkscape:window-width="1366"
     inkscape:window-height="706"
     inkscape:window-x="0"
     inkscape:window-y="0"
     inkscape:window-maximized="1" />
  <metadata
     id="metadata7">
    <rdf:RDF>
      <cc:Work
         rdf:about="">
        <dc:format>image/svg+xml</dc:format>
        <dc:type
           rdf:resource="http://purl.org/dc/dcmitype/StillImage" />
        <dc:title></dc:title>
      </cc:Work>
    </rdf:RDF>
  </metadata>
  <g
     inkscape:label="Layer 1"
     inkscape:groupmode="layer"
     id="layer1"
     transform="translate(0,-540.3622)">
    <g
       id="g887">
      <path
         id="path1148"
         d="m 432.9132,596.8362 c 102.19309,88.57459 105.82677,249.69971 8.11688,359.89879 C 343.32022,1066.934 181.27977,1084.4628 79.086634,995.88825 -23.106121,907.31366 -26.740136,746.18855 70.9701,635.98946 168.67996,525.79038 330.72041,508.26161 432.9132,596.8362 Z"
         inkscape:connector-curvature="0"
         style="fill:#3689e6;fill-opacity:1;stroke-width:11.10955811" />
      <path
         id="path1150"
         d="M 511.63546,765.26575 C 510.08431,826.5774 486.47439,889.42036 440.66916,941.08023 342.9593,1051.2793 180.91883,1068.8081 78.72569,980.23352 30.826982,938.71787 4.4969024,881.28508 0.1939104,820.59104 0.79901272,886.94772 27.117375,950.84441 79.078698,995.8813 181.27146,1084.4558 343.31983,1066.9184 441.02217,956.728 490.72711,900.6699 514.02714,831.43704 511.63546,765.26575 Z"
         inkscape:connector-curvature="0"
         style="opacity:1;fill:#000000;fill-opacity:0.49019608;stroke-width:11.10955811" />
      <path
         id="path54"
         transform="translate(0,540.3622)"
         d="M 291.59961 291.59961 L 291.59961 432 L 426.10352 432 C 428.0895 430.06641 430.05753 428.10345 432 426.10156 L 432 291.59961 L 291.59961 291.59961 z M 311.59961 311.80273 L 411.79688 311.80273 L 411.79688 412 L 311.59961 412 L 311.59961 311.80273 z "
         style="fill:#000000;fill-opacity:0.49019608;stroke:none;stroke-width:0.69333327" />
      <rect
         transform="rotate(-90)"
         y="120"
         x="-972.36218"
         height="140.39999"
         width="140.39999"
         id="rect56"
         style="fill:#000000;fill-opacity:0.49019608;stroke:none;stroke-width:0.69333327" />
      <rect
         transform="rotate(-90)"
         style="fill:#000000;fill-opacity:0.49019608;stroke:none;stroke-width:0.69333327"
         id="rect58"
         width="140.39999"
         height="140.39999"
         x="-800.76221"
         y="120" />
      <rect
         transform="rotate(-90)"
         y="291.60004"
         x="-800.76221"
         height="140.39999"
         width="140.39999"
         id="rect60"
         style="fill:#000000;fill-opacity:0.49019608;stroke:none;stroke-width:0.69333327" />
      <g
         transform="rotate(-90,256,796.3622)"
         id="g52">
        <path
           style="fill:#ffffff;fill-opacity:1;stroke:none;stroke-width:0.69333327"
           d="M 100,811.96182 V 952.36221 H 240.40039 V 811.96182 Z m 20,20 H 220.19727 V 932.15909 H 120 Z"
           id="rect2994-3"
           inkscape:connector-curvature="0" />
        <rect
           y="640.36218"
           x="100"
           height="140.39999"
           width="140.39999"
           id="rect2996-6"
           style="fill:#ffffff;fill-opacity:1;stroke:none;stroke-width:0.69333327" />
        <rect
           style="fill:#ffffff;fill-opacity:1;stroke:none;stroke-width:0.69333327"
           id="rect2998-7"
           width="140.39999"
           height="140.39999"
           x="271.60001"
           y="640.36218" />
        <rect
           y="811.96222"
           x="271.60001"
           height="140.39999"
           width="140.39999"
           id="rect3000-5"
           style="fill:#ffffff;fill-opacity:1;stroke:none;stroke-width:0.69333327" />
      </g>
    </g>
  </g>
</svg>
