<?xml version="1.0" encoding="UTF-8" standalone="no"?>
<svg
   xmlns:dc="http://purl.org/dc/elements/1.1/"
   xmlns:cc="http://creativecommons.org/ns#"
   xmlns:rdf="http://www.w3.org/1999/02/22-rdf-syntax-ns#"
   xmlns:svg="http://www.w3.org/2000/svg"
   xmlns="http://www.w3.org/2000/svg"
   xmlns:xlink="http://www.w3.org/1999/xlink"
   xmlns:sodipodi="http://sodipodi.sourceforge.net/DTD/sodipodi-0.dtd"
   xmlns:inkscape="http://www.inkscape.org/namespaces/inkscape"
   viewBox="0 0 512 512"
   version="1.0"
   id="svg2"
   height="512"
   width="512"
   inkscape:version="0.92.2 2405546, 2018-03-11"
   sodipodi:docname="writetype.svg">
  <sodipodi:namedview
     pagecolor="#ffffff"
     bordercolor="#666666"
     borderopacity="1"
     objecttolerance="10"
     gridtolerance="10"
     guidetolerance="10"
     inkscape:pageopacity="0"
     inkscape:pageshadow="2"
     inkscape:window-width="1366"
     inkscape:window-height="706"
     id="namedview30"
     showgrid="false"
     inkscape:zoom="0.58419178"
     inkscape:cx="727.00754"
     inkscape:cy="204.21188"
     inkscape:window-x="0"
     inkscape:window-y="0"
     inkscape:window-maximized="1"
     inkscape:current-layer="svg2" />
  <defs
     id="defs4">
    <linearGradient
       id="linearGradient4132">
      <stop
         id="stop4134"
         offset="0"
         style="stop-color:#f2f2f2;stop-opacity:1;" />
      <stop
         id="stop4136"
         offset="1"
         style="stop-color:#f2f2f2;stop-opacity:0;" />
    </linearGradient>
    <linearGradient
       id="linearGradient3155">
      <stop
         id="stop3157"
         offset="0"
         style="stop-color:#303030;stop-opacity:1;" />
      <stop
         id="stop3159"
         offset="1"
         style="stop-color:#303030;stop-opacity:0;" />
    </linearGradient>
    <linearGradient
       id="linearGradient6067">
      <stop
         id="stop6069"
         offset="0"
         style="stop-color:#ffffff;stop-opacity:1;" />
      <stop
         id="stop6071"
         offset="1"
         style="stop-color:#ffffff;stop-opacity:0;" />
    </linearGradient>
    <linearGradient
       id="linearGradient3142">
      <stop
         id="stop3144"
         offset="0"
         style="stop-color:#303030;stop-opacity:1;" />
      <stop
         id="stop3146"
         offset="1"
         style="stop-color:#303030;stop-opacity:0;" />
    </linearGradient>
    <linearGradient
       gradientTransform="matrix(1.6258627,0,0,1.6258627,-28.787153,-52.145846)"
       gradientUnits="userSpaceOnUse"
       y2="110.71667"
       x2="92.804863"
       y1="75.855133"
       x1="92.804863"
       id="linearGradient3148"
       xlink:href="#linearGradient3142" />
    <linearGradient
       gradientUnits="userSpaceOnUse"
       y2="119.78299"
       x2="29.731594"
       y1="96.211563"
       x1="29.731594"
       id="linearGradient6073"
       xlink:href="#linearGradient6067" />
    <linearGradient
       gradientUnits="userSpaceOnUse"
       y2="124.82345"
       x2="100.75668"
       y1="85.389313"
       x1="100.75668"
       id="linearGradient3161"
       xlink:href="#linearGradient3155" />
    <linearGradient
       gradientTransform="translate(-2.2728432)"
       gradientUnits="userSpaceOnUse"
       y2="-115.67227"
       x2="96.899597"
       y1="-101.65641"
       x1="96.899597"
       id="linearGradient4138"
       xlink:href="#linearGradient4132" />
    <filter
       style="color-interpolation-filters:sRGB"
       height="1"
       width="1"
       y="0"
       x="0"
       id="filter3004">
      <feColorMatrix
         result="result2"
         type="saturate"
         in="SourceGraphic"
         values="1"
         id="feColorMatrix3006" />
      <feFlood
         result="result1"
         flood-opacity="1"
         flood-color="rgb(254,102,0)"
         id="feFlood3008" />
      <feBlend
         result="result3"
         in="result1"
         mode="multiply"
         in2="result2"
         id="feBlend3010" />
      <feComposite
         result="result4"
         operator="in"
         in2="SourceGraphic"
         id="feComposite3012" />
    </filter>
  </defs>
  <metadata
     id="metadata7">
    <rdf:RDF>
      <cc:Work
         rdf:about="">
        <dc:format>image/svg+xml</dc:format>
        <dc:type
           rdf:resource="http://purl.org/dc/dcmitype/StillImage" />
        <dc:title></dc:title>
      </cc:Work>
    </rdf:RDF>
  </metadata>
  <g
     id="g928">
    <path
       id="path1165"
       d="M 432.91328,56.474957 C 535.10618,145.04846 538.74005,306.17452 441.03006,416.37299 343.32007,526.57148 181.27962,544.10044 79.086743,455.52694 -23.106206,366.95112 -26.740033,205.82738 70.969944,95.626584 168.67988,-14.571874 330.72033,-32.100857 432.91328,56.474957 Z"
       inkscape:connector-curvature="0"
       style="fill:#3689e6;fill-opacity:1;stroke-width:11.10954762" />
    <path
       id="path1167"
       d="M 511.63552,224.904 C 510.08416,286.21587 486.47428,349.05909 440.66913,400.71745 342.95911,510.91591 180.91867,528.44488 78.725762,439.87141 30.827125,398.35528 4.4968196,340.92296 0.19382737,280.22782 0.79908097,346.58521 27.117406,410.48267 79.078693,455.51763 181.27157,544.09344 343.31972,526.55518 441.02203,416.366 490.72697,360.30678 514.02704,291.07521 511.63552,224.904 Z"
       inkscape:connector-curvature="0"
       style="opacity:1;fill:#000000;fill-opacity:0.49019608;stroke-width:11.10954762" />
    <g
       style="fill:#000000;fill-opacity:0.49019608"
       id="g910"
       transform="matrix(1.0017479,0,0,1,12.550796,13.429335)">
      <g
         style="fill:#000000;fill-opacity:0.49019608"
         transform="matrix(0.62083159,0,0,0.62083159,45.179252,44.487507)"
         id="g902">
        <path
           id="path898"
           transform="matrix(1.6107428,0,0,1.6107428,-72.772154,-71.657931)"
           d="m 130.64648,106.57031 c -12.95499,0 -23.38476,12.76377 -23.38476,28.61914 v 136.46094 c 0,15.85537 10.42977,28.61914 23.38476,28.61914 h 88.43555 v -17.53515 h -77.9375 c -10.82269,0 -19.53515,-10.66252 -19.53515,-23.90821 v -114 c 0,-13.24569 8.71246,-23.9082 19.53515,-23.9082 h 122.74609 c 10.82269,0 19.53711,10.66251 19.53711,23.9082 v 74.25586 h 17.53321 v -83.89258 c 0,-15.85537 -10.42782,-28.61914 -23.38282,-28.61914 z"
           style="fill:#000000;fill-opacity:0.49019608;fill-rule:nonzero;stroke:none;stroke-width:0.55342704"
           inkscape:connector-curvature="0" />
        <path
           id="path900"
           transform="matrix(1.6107428,0,0,1.6107428,-72.772154,-71.657931)"
           d="m 148.73828,131.54492 c -9.4367,0 -17.0332,9.29631 -17.0332,20.8457 v 99.4004 c 0,11.54939 7.5965,20.84765 17.0332,20.84765 h 70.34375 v -10.05859 c -0.12459,0.06 -0.22789,0.12457 -0.35742,0.18359 -8.1909,3.73204 -16.53664,-0.42818 -23.07031,-11.50195 l -5.15625,-8.74024 -1.90235,7.3379 c -1.91985,7.40889 -14.09606,19.7112 -19.23437,19.43359 -1.52946,-0.0827 -5.23395,-1.13473 -8.23242,-2.33789 -11.71289,-4.69981 -21.27245,-38.30374 -23.39453,-82.24414 -1.33287,-27.599 -1.06454,-31.40625 2.20507,-31.40625 2.93501,0 4.02923,3.87835 5.17969,18.36914 4.28191,53.93327 8.29531,75.07643 16.20117,85.32617 3.25042,4.21406 9.82136,3.66421 14.17383,-1.18555 4.30735,-4.79948 11.23438,-29.85287 11.23438,-40.63476 0,-4.72254 1.18571,-7.35938 3.31054,-7.35938 2.22913,0 4.21033,5.16043 6.06055,15.78516 4.59017,26.35879 14.0582,38.71017 22.51172,29.36914 8.81871,-9.74459 20.25976,-66.48559 20.25976,-100.48242 v -12.41992 l 14.8125,0.19335 c 11.3188,0.14767 14.8125,1.01018 14.8125,3.6543 0,2.24292 -3.95876,4.22513 -11.25586,5.63477 l -11.25976,2.17578 v 12.55664 c 0,6.90639 -1.66956,24.53198 -3.71094,39.16797 -0.91623,6.56913 -1.68154,11.5918 -2.44336,15.62695 h 32.97461 v -66.69141 c 0,-11.54939 -7.59846,-20.8457 -17.03516,-20.8457 z m 74.90234,51.6836 c 4.15565,-0.0844 8.41457,5.90718 7.65626,12.42578 -0.88869,7.63937 -7.75788,9.46374 -11.22657,2.98242 -3.42982,-6.40867 -3.18047,-11.0291 0.77344,-14.31055 0.88521,-0.73465 1.83788,-1.07818 2.79687,-1.09765 z m -18.03515,12.74023 c 5.69566,0 10.35617,7.98845 8.34961,14.31055 -1.67008,5.26199 -5.94639,6.02239 -10.16211,1.80664 -1.5643,-1.56429 -2.84375,-5.83239 -2.84375,-9.48242 0,-5.01671 1.13592,-6.63477 4.65625,-6.63477 z"
           style="fill:#000000;fill-opacity:0.49019608;fill-rule:nonzero;stroke:none;stroke-width:0.40312821"
           inkscape:connector-curvature="0" />
      </g>
      <g
         style="fill:#000000;fill-opacity:0.49019608"
         id="g908"
         transform="matrix(0.62083159,0,0,0.62083159,162.93471,162.78805)">
        <path
           id="path904"
           d="M 137.66602,100 C 116.79885,100 100,120.55874 100,146.09766 V 365.90039 C 100,391.43931 116.79885,412 137.66602,412 H 374.33398 C 395.20114,412 412,391.43931 412,365.90039 V 146.09766 C 412,120.55874 395.20114,100 374.33398,100 Z m 16.91015,23.10938 h 197.71289 c 17.43256,0 31.4668,17.17436 31.4668,38.50976 v 183.625 c 0,21.33539 -14.03424,38.51172 -31.4668,38.51172 H 154.57617 c -17.43257,0 -31.46679,-17.17633 -31.46679,-38.51172 v -183.625 c 0,-21.3354 14.03422,-38.50976 31.46679,-38.50976 z"
           style="fill:#000000;fill-opacity:0.49019608;fill-rule:nonzero;stroke:none;stroke-width:0.89142859"
           inkscape:connector-curvature="0" />
        <path
           inkscape:connector-curvature="0"
           id="path906"
           transform="translate(-29.100033,-340.64156)"
           d="m 195.9082,480.86719 c -15.2001,0 -27.4375,14.97697 -27.4375,33.58008 v 160.10742 c 0,18.60311 12.2374,33.58008 27.4375,33.58008 h 172.39258 c 15.20009,0 27.4375,-14.97697 27.4375,-33.58008 V 514.44727 c 0,-18.60311 -12.23741,-33.58008 -27.4375,-33.58008 z m 67.87696,4.68164 c 10.15511,0 15.28499,19.76387 7.22265,27.82617 -5.9816,5.98167 -9.15781,5.36101 -13.42969,-2.62109 -3.87352,-7.23778 0.55077,-25.20508 6.20704,-25.20508 z m 31.3789,0 c 6.62608,0 13.09518,13.05698 10.50782,21.20898 -2.67078,8.41499 -10.45553,11.56209 -15.67969,6.33789 -7.36996,-7.36999 -3.58202,-27.54687 5.17187,-27.54687 z m 51.36524,11.51953 c 2.37565,-0.0129 5.18086,2.16664 9.91406,6.11523 10.05442,8.38772 10.2921,14.47071 0.56641,14.47071 -4.10248,0 -13.89854,5.51269 -21.76954,12.25 -8.23756,7.05101 -21.93748,14.20442 -32.28125,16.85547 l -17.9707,4.60546 2.36133,44.67969 c 1.29819,24.57362 3.36519,57.9231 4.59375,74.10938 1.92456,25.35405 1.45534,29.42773 -3.38672,29.42773 -4.15984,0 -6.11608,-4.86523 -7.52734,-18.72656 -1.04878,-10.30035 -2.79819,-33.17624 -3.88868,-50.83399 -4.69918,-76.09431 -5.32571,-79.35215 -15.65429,-81.41796 -5.16155,-1.03232 -15.62374,-6.10969 -23.25,-11.28516 -9.79118,-6.64452 -14.98086,-8.29649 -17.65821,-5.61914 -5.23418,5.23417 -16.66661,4.77072 -16.48242,-0.66797 0.0832,-2.45246 5.43724,-7.82174 11.89844,-11.93164 l 11.74805,-7.47266 13.01953,11.93164 c 11.89708,10.90282 14.94451,11.92511 35.36523,11.85352 28.816,-0.10093 50.1393,-9.49461 60.17969,-26.51172 4.82235,-8.17325 7.16824,-11.81549 10.22266,-11.83203 z"
           style="fill:#000000;fill-opacity:0.49019608;fill-rule:nonzero;stroke:none;stroke-width:0.64933586" />
      </g>
    </g>
    <g
       transform="matrix(1.0017479,0,0,1,-7.4492041,-6.5706651)"
       id="g896">
      <g
         id="g885"
         transform="matrix(0.62083159,0,0,0.62083159,45.179252,44.487507)"
         style="fill:#ffffff">
        <path
           inkscape:connector-curvature="0"
           style="fill:#ffffff;fill-opacity:1;fill-rule:nonzero;stroke:none;stroke-width:0.55342704"
           d="m 130.64648,106.57031 c -12.95499,0 -23.38476,12.76377 -23.38476,28.61914 v 136.46094 c 0,15.85537 10.42977,28.61914 23.38476,28.61914 h 88.43555 v -17.53515 h -77.9375 c -10.82269,0 -19.53515,-10.66252 -19.53515,-23.90821 v -114 c 0,-13.24569 8.71246,-23.9082 19.53515,-23.9082 h 122.74609 c 10.82269,0 19.53711,10.66251 19.53711,23.9082 v 74.25586 h 17.53321 v -83.89258 c 0,-15.85537 -10.42782,-28.61914 -23.38282,-28.61914 z"
           transform="matrix(1.6107428,0,0,1.6107428,-72.772154,-71.657931)"
           id="path875" />
        <path
           inkscape:connector-curvature="0"
           style="fill:#ffffff;fill-opacity:1;fill-rule:nonzero;stroke:none;stroke-width:0.40312821"
           d="m 148.73828,131.54492 c -9.4367,0 -17.0332,9.29631 -17.0332,20.8457 v 99.4004 c 0,11.54939 7.5965,20.84765 17.0332,20.84765 h 70.34375 v -10.05859 c -0.12459,0.06 -0.22789,0.12457 -0.35742,0.18359 -8.1909,3.73204 -16.53664,-0.42818 -23.07031,-11.50195 l -5.15625,-8.74024 -1.90235,7.3379 c -1.91985,7.40889 -14.09606,19.7112 -19.23437,19.43359 -1.52946,-0.0827 -5.23395,-1.13473 -8.23242,-2.33789 -11.71289,-4.69981 -21.27245,-38.30374 -23.39453,-82.24414 -1.33287,-27.599 -1.06454,-31.40625 2.20507,-31.40625 2.93501,0 4.02923,3.87835 5.17969,18.36914 4.28191,53.93327 8.29531,75.07643 16.20117,85.32617 3.25042,4.21406 9.82136,3.66421 14.17383,-1.18555 4.30735,-4.79948 11.23438,-29.85287 11.23438,-40.63476 0,-4.72254 1.18571,-7.35938 3.31054,-7.35938 2.22913,0 4.21033,5.16043 6.06055,15.78516 4.59017,26.35879 14.0582,38.71017 22.51172,29.36914 8.81871,-9.74459 20.25976,-66.48559 20.25976,-100.48242 v -12.41992 l 14.8125,0.19335 c 11.3188,0.14767 14.8125,1.01018 14.8125,3.6543 0,2.24292 -3.95876,4.22513 -11.25586,5.63477 l -11.25976,2.17578 v 12.55664 c 0,6.90639 -1.66956,24.53198 -3.71094,39.16797 -0.91623,6.56913 -1.68154,11.5918 -2.44336,15.62695 h 32.97461 v -66.69141 c 0,-11.54939 -7.59846,-20.8457 -17.03516,-20.8457 z m 74.90234,51.6836 c 4.15565,-0.0844 8.41457,5.90718 7.65626,12.42578 -0.88869,7.63937 -7.75788,9.46374 -11.22657,2.98242 -3.42982,-6.40867 -3.18047,-11.0291 0.77344,-14.31055 0.88521,-0.73465 1.83788,-1.07818 2.79687,-1.09765 z m -18.03515,12.74023 c 5.69566,0 10.35617,7.98845 8.34961,14.31055 -1.67008,5.26199 -5.94639,6.02239 -10.16211,1.80664 -1.5643,-1.56429 -2.84375,-5.83239 -2.84375,-9.48242 0,-5.01671 1.13592,-6.63477 4.65625,-6.63477 z"
           transform="matrix(1.6107428,0,0,1.6107428,-72.772154,-71.657931)"
           id="rect4444-3-3" />
      </g>
      <g
         transform="matrix(0.62083159,0,0,0.62083159,162.93471,162.78805)"
         id="g880"
         style="fill:#ffffff">
        <path
           inkscape:connector-curvature="0"
           style="fill:#ffffff;fill-opacity:1;fill-rule:nonzero;stroke:none;stroke-width:0.89142859"
           d="M 137.66602,100 C 116.79885,100 100,120.55874 100,146.09766 V 365.90039 C 100,391.43931 116.79885,412 137.66602,412 H 374.33398 C 395.20114,412 412,391.43931 412,365.90039 V 146.09766 C 412,120.55874 395.20114,100 374.33398,100 Z m 16.91015,23.10938 h 197.71289 c 17.43256,0 31.4668,17.17436 31.4668,38.50976 v 183.625 c 0,21.33539 -14.03424,38.51172 -31.4668,38.51172 H 154.57617 c -17.43257,0 -31.46679,-17.17633 -31.46679,-38.51172 v -183.625 c 0,-21.3354 14.03422,-38.50976 31.46679,-38.50976 z"
           id="path876" />
        <path
           style="fill:#ffffff;fill-opacity:1;fill-rule:nonzero;stroke:none;stroke-width:0.64933586"
           d="m 195.9082,480.86719 c -15.2001,0 -27.4375,14.97697 -27.4375,33.58008 v 160.10742 c 0,18.60311 12.2374,33.58008 27.4375,33.58008 h 172.39258 c 15.20009,0 27.4375,-14.97697 27.4375,-33.58008 V 514.44727 c 0,-18.60311 -12.23741,-33.58008 -27.4375,-33.58008 z m 67.87696,4.68164 c 10.15511,0 15.28499,19.76387 7.22265,27.82617 -5.9816,5.98167 -9.15781,5.36101 -13.42969,-2.62109 -3.87352,-7.23778 0.55077,-25.20508 6.20704,-25.20508 z m 31.3789,0 c 6.62608,0 13.09518,13.05698 10.50782,21.20898 -2.67078,8.41499 -10.45553,11.56209 -15.67969,6.33789 -7.36996,-7.36999 -3.58202,-27.54687 5.17187,-27.54687 z m 51.36524,11.51953 c 2.37565,-0.0129 5.18086,2.16664 9.91406,6.11523 10.05442,8.38772 10.2921,14.47071 0.56641,14.47071 -4.10248,0 -13.89854,5.51269 -21.76954,12.25 -8.23756,7.05101 -21.93748,14.20442 -32.28125,16.85547 l -17.9707,4.60546 2.36133,44.67969 c 1.29819,24.57362 3.36519,57.9231 4.59375,74.10938 1.92456,25.35405 1.45534,29.42773 -3.38672,29.42773 -4.15984,0 -6.11608,-4.86523 -7.52734,-18.72656 -1.04878,-10.30035 -2.79819,-33.17624 -3.88868,-50.83399 -4.69918,-76.09431 -5.32571,-79.35215 -15.65429,-81.41796 -5.16155,-1.03232 -15.62374,-6.10969 -23.25,-11.28516 -9.79118,-6.64452 -14.98086,-8.29649 -17.65821,-5.61914 -5.23418,5.23417 -16.66661,4.77072 -16.48242,-0.66797 0.0832,-2.45246 5.43724,-7.82174 11.89844,-11.93164 l 11.74805,-7.47266 13.01953,11.93164 c 11.89708,10.90282 14.94451,11.92511 35.36523,11.85352 28.816,-0.10093 50.1393,-9.49461 60.17969,-26.51172 4.82235,-8.17325 7.16824,-11.81549 10.22266,-11.83203 z"
           transform="translate(-29.100033,-340.64156)"
           id="path878"
           inkscape:connector-curvature="0" />
      </g>
    </g>
  </g>
</svg>
