<?xml version="1.0" encoding="UTF-8" standalone="no"?>
<!-- Created with Inkscape (http://www.inkscape.org/) -->

<svg
   xmlns:dc="http://purl.org/dc/elements/1.1/"
   xmlns:cc="http://creativecommons.org/ns#"
   xmlns:rdf="http://www.w3.org/1999/02/22-rdf-syntax-ns#"
   xmlns:svg="http://www.w3.org/2000/svg"
   xmlns="http://www.w3.org/2000/svg"
   xmlns:xlink="http://www.w3.org/1999/xlink"
   xmlns:sodipodi="http://sodipodi.sourceforge.net/DTD/sodipodi-0.dtd"
   xmlns:inkscape="http://www.inkscape.org/namespaces/inkscape"
   version="1.0"
   width="512"
   height="512"
   id="svg2408"
   inkscape:version="0.92.2 2405546, 2018-03-11"
   sodipodi:docname="x-boot-repair.svg">
  <sodipodi:namedview
     pagecolor="#ffffff"
     bordercolor="#666666"
     borderopacity="1"
     objecttolerance="10"
     gridtolerance="10"
     guidetolerance="10"
     inkscape:pageopacity="0"
     inkscape:pageshadow="2"
     inkscape:window-width="1366"
     inkscape:window-height="706"
     id="namedview128"
     showgrid="false"
     inkscape:zoom="0.5"
     inkscape:cx="415.04345"
     inkscape:cy="379.53966"
     inkscape:window-x="0"
     inkscape:window-y="0"
     inkscape:window-maximized="1"
     inkscape:current-layer="svg2408"
     showguides="true"
     inkscape:guide-bbox="true" />
  <defs
     id="defs2410">
    <linearGradient
       x1="45.447727"
       y1="92.539597"
       x2="45.447727"
       y2="7.0165396"
       id="ButtonShadow"
       gradientUnits="userSpaceOnUse"
       gradientTransform="scale(1.0058652,0.994169)">
      <stop
         id="stop3750"
         style="stop-color:#000000;stop-opacity:1"
         offset="0" />
      <stop
         id="stop3752"
         style="stop-color:#000000;stop-opacity:0.58823532"
         offset="1" />
    </linearGradient>
    <filter
       id="filter3174"
       style="color-interpolation-filters:sRGB">
      <feGaussianBlur
         id="feGaussianBlur3176"
         stdDeviation="1.71" />
    </filter>
    <inkscape:path-effect
       is_visible="true"
       id="path-effect29672-0"
       effect="spiro" />
    <inkscape:path-effect
       is_visible="true"
       id="path-effect29678-1"
       effect="spiro" />
    <inkscape:path-effect
       is_visible="true"
       id="path-effect29678-4-6"
       effect="spiro" />
    <inkscape:path-effect
       is_visible="true"
       id="path-effect28714-5"
       effect="spiro" />
    <inkscape:path-effect
       is_visible="true"
       id="path-effect29721-2"
       effect="spiro" />
    <inkscape:path-effect
       is_visible="true"
       id="path-effect28463-8-0"
       effect="spiro" />
    <inkscape:path-effect
       is_visible="true"
       id="path-effect28463-0-7"
       effect="spiro" />
    <linearGradient
       id="linearGradient28799-5-5">
      <stop
         id="stop28801-1-9"
         offset="0"
         style="stop-color:#fefefc;stop-opacity:1;" />
      <stop
         style="stop-color:#fefefc;stop-opacity:1"
         offset="0.75733864"
         id="stop28807-2-6" />
      <stop
         id="stop28803-6-3"
         offset="1"
         style="stop-color:#d4d4d4;stop-opacity:1" />
    </linearGradient>
    <inkscape:path-effect
       is_visible="true"
       id="path-effect28797-8-1"
       effect="spiro" />
    <linearGradient
       id="linearGradient28799-3">
      <stop
         id="stop28801-6"
         offset="0"
         style="stop-color:#fefefc;stop-opacity:1;" />
      <stop
         style="stop-color:#fefefc;stop-opacity:1"
         offset="0.75733864"
         id="stop28807-7" />
      <stop
         id="stop28803-0"
         offset="1"
         style="stop-color:#d4d4d4;stop-opacity:1" />
    </linearGradient>
    <inkscape:path-effect
       is_visible="true"
       id="path-effect28797-81"
       effect="spiro" />
    <inkscape:path-effect
       is_visible="true"
       id="path-effect28273-4-2"
       effect="spiro" />
    <linearGradient
       id="linearGradient28853-5">
      <stop
         id="stop28855-3"
         offset="0"
         style="stop-color:#020204;stop-opacity:1" />
      <stop
         style="stop-color:#020204;stop-opacity:1"
         offset="0.73448181"
         id="stop28865-0" />
      <stop
         id="stop28857-9"
         offset="1"
         style="stop-color:#5c5c5c;stop-opacity:1;" />
    </linearGradient>
    <inkscape:path-effect
       is_visible="true"
       id="path-effect28851-0"
       effect="spiro" />
    <inkscape:path-effect
       is_visible="true"
       id="path-effect28881-6"
       effect="spiro" />
    <linearGradient
       id="linearGradient28935-8">
      <stop
         id="stop28937-7"
         offset="0"
         style="stop-color:#949494;stop-opacity:0.39215687;" />
      <stop
         style="stop-color:#949494;stop-opacity:1;"
         offset="0.5"
         id="stop28943-3" />
      <stop
         id="stop28939-8"
         offset="1"
         style="stop-color:#949494;stop-opacity:0.39215687;" />
    </linearGradient>
    <linearGradient
       inkscape:collect="always"
       xlink:href="#linearGradient28976-3"
       id="linearGradient18814"
       gradientUnits="userSpaceOnUse"
       gradientTransform="translate(-250)"
       x1="337.25"
       y1="119.98718"
       x2="358.625"
       y2="132.48718" />
    <linearGradient
       id="linearGradient28976-3">
      <stop
         id="stop28978-7"
         offset="0"
         style="stop-color:#747474;stop-opacity:1" />
      <stop
         style="stop-color:#8c8c8c;stop-opacity:1;"
         offset="0.125"
         id="stop29259-5" />
      <stop
         style="stop-color:#a4a4a4;stop-opacity:1;"
         offset="0.25"
         id="stop29257-0" />
      <stop
         style="stop-color:#d4d4d4;stop-opacity:1"
         offset="0.5"
         id="stop28984-4" />
      <stop
         id="stop28986-0"
         offset="0.61919296"
         style="stop-color:#d4d4d4;stop-opacity:1" />
      <stop
         id="stop28980-2"
         offset="1"
         style="stop-color:#7c7c7c;stop-opacity:1" />
    </linearGradient>
    <inkscape:path-effect
       is_visible="true"
       id="path-effect28974-8"
       effect="spiro" />
    <clipPath
       id="clipPath29028-5"
       clipPathUnits="userSpaceOnUse">
      <path
         sodipodi:nodetypes="aaaaaaaa"
         inkscape:connector-curvature="0"
         inkscape:original-d="m 85.75,122.36218 c -2.54738,2.12715 -5.20812,4.59907 -6.25,7.75 -1.30914,3.95917 -1.63336,8.91703 0.5,12.5 3.91901,6.58194 12.38353,13.85135 19.75,11.75 4.87452,-1.3905 6.10748,-8.51023 7,-13.5 0.59149,-3.30679 0.59578,-7.19325 -1.25,-10 -3.61233,-5.49303 -10.4265,-9.89357 -17,-10 -1.04403,-0.0169 -1.94852,0.83074 -2.75,1.5 z"
         id="path29030-7"
         d="m 85.75,122.36218 c -2.780425,1.91023 -5.110569,4.57487 -6.25,7.75 -1.436029,4.00163 -0.885838,8.48071 0.5,12.5 1.419488,4.11688 3.793788,8.04098 7.37932,10.51234 1.792766,1.23567 3.868091,2.08301 6.030402,2.33859 2.162311,0.25558 4.409274,-0.0949 6.340278,-1.10093 2.35312,-1.22596 4.14782,-3.37278 5.26217,-5.78076 1.11436,-2.40798 1.5888,-5.0701 1.73783,-7.71924 0.18989,-3.37546 -0.14047,-6.80646 -1.25,-10 -1.20527,-3.46909 -3.39005,-6.67055 -6.472754,-8.6666 -1.541351,-0.99803 -3.291947,-1.68356 -5.110883,-1.93515 -1.818936,-0.25158 -3.704766,-0.0633 -5.416363,0.60175 -0.975471,0.37901 -1.887438,0.9074 -2.75,1.5"
         style="fill:url(#radialGradient29032);fill-opacity:1;stroke:none" />
    </clipPath>
    <linearGradient
       id="linearGradient29336-6">
      <stop
         id="stop29338-1"
         offset="0"
         style="stop-color:#646464;stop-opacity:0" />
      <stop
         style="stop-color:#646464;stop-opacity:0.5825243"
         offset="0.30628255"
         id="stop29344-7" />
      <stop
         id="stop29354-5"
         offset="0.47000006"
         style="stop-color:#646464;stop-opacity:1" />
      <stop
         style="stop-color:#646464;stop-opacity:0.25728154"
         offset="0.72834015"
         id="stop29356-3" />
      <stop
         id="stop29340-6"
         offset="1"
         style="stop-color:#646464;stop-opacity:0;" />
    </linearGradient>
    <linearGradient
       id="linearGradient3378">
      <stop
         id="stop3380"
         offset="0"
         style="stop-color:#646464;stop-opacity:0" />
      <stop
         style="stop-color:#646464;stop-opacity:0.5825243"
         offset="0.30628255"
         id="stop3382" />
      <stop
         id="stop3384"
         offset="0.47000006"
         style="stop-color:#646464;stop-opacity:1" />
      <stop
         style="stop-color:#646464;stop-opacity:0.25728154"
         offset="0.72834015"
         id="stop3386" />
      <stop
         id="stop3388"
         offset="1"
         style="stop-color:#646464;stop-opacity:0;" />
    </linearGradient>
    <inkscape:path-effect
       is_visible="true"
       id="path-effect29455-3"
       effect="spiro" />
    <linearGradient
       id="linearGradient29477-3">
      <stop
         id="stop29479-5"
         offset="0"
         style="stop-color:#757574;stop-opacity:0" />
      <stop
         style="stop-color:#757574;stop-opacity:1;"
         offset="0.26291031"
         id="stop29487-5" />
      <stop
         style="stop-color:#757574;stop-opacity:1;"
         offset="0.5"
         id="stop29485-0" />
      <stop
         id="stop29481-3"
         offset="1"
         style="stop-color:#757574;stop-opacity:0" />
    </linearGradient>
    <linearGradient
       id="linearGradient28469-0">
      <stop
         style="stop-color:#d2940a;stop-opacity:1"
         offset="0"
         id="stop28479-4" />
      <stop
         style="stop-color:#d89c08;stop-opacity:1"
         offset="0.75143719"
         id="stop28477-2" />
      <stop
         id="stop28485-7"
         offset="0.86579126"
         style="stop-color:#b67e07;stop-opacity:1;" />
      <stop
         id="stop28473-1"
         offset="1"
         style="stop-color:#946106;stop-opacity:1" />
    </linearGradient>
    <inkscape:path-effect
       is_visible="true"
       id="path-effect28463-4"
       effect="spiro" />
    <inkscape:path-effect
       is_visible="true"
       id="path-effect28489-4"
       effect="spiro" />
    <inkscape:path-effect
       is_visible="true"
       id="path-effect28273-54-7"
       effect="spiro" />
    <linearGradient
       id="linearGradient28275-8">
      <stop
         id="stop28277-1"
         offset="0"
         style="stop-color:#ad780a;stop-opacity:1" />
      <stop
         style="stop-color:#d89e08;stop-opacity:1"
         offset="0.11972899"
         id="stop28291-9" />
      <stop
         style="stop-color:#edb80b;stop-opacity:1"
         offset="0.25514477"
         id="stop28289-6" />
      <stop
         style="stop-color:#ebc80d;stop-opacity:1"
         offset="0.39194193"
         id="stop28287-6" />
      <stop
         style="stop-color:#f5d838;stop-opacity:1"
         offset="0.52741116"
         id="stop28285-7" />
      <stop
         style="stop-color:#f6d811;stop-opacity:1"
         offset="0.76906693"
         id="stop28283-7" />
      <stop
         id="stop28279-5"
         offset="1"
         style="stop-color:#f5cd31;stop-opacity:1" />
    </linearGradient>
    <inkscape:path-effect
       is_visible="true"
       id="path-effect28273-44"
       effect="spiro" />
    <inkscape:path-effect
       is_visible="true"
       id="path-effect28384-7"
       effect="spiro" />
    <linearGradient
       id="linearGradient29529-6">
      <stop
         id="stop29531-0"
         offset="0"
         style="stop-color:#3a2903;stop-opacity:1;" />
      <stop
         style="stop-color:#735208;stop-opacity:1"
         offset="0.55472803"
         id="stop29539-7" />
      <stop
         id="stop29533-8"
         offset="1"
         style="stop-color:#ac8c04;stop-opacity:1" />
    </linearGradient>
    <linearGradient
       id="linearGradient3435">
      <stop
         id="stop3437"
         offset="0"
         style="stop-color:#3a2903;stop-opacity:1;" />
      <stop
         style="stop-color:#735208;stop-opacity:1"
         offset="0.55472803"
         id="stop3439" />
      <stop
         id="stop3441"
         offset="1"
         style="stop-color:#ac8c04;stop-opacity:1" />
    </linearGradient>
    <radialGradient
       inkscape:collect="always"
       xlink:href="#linearGradient29652-2"
       id="radialGradient18832"
       gradientUnits="userSpaceOnUse"
       gradientTransform="matrix(0.20141143,-0.03316079,0.03065006,0.18616184,-3.1263574,114.03586)"
       cx="268.06998"
       cy="126.53491"
       fx="268.06998"
       fy="126.53491"
       r="35.51144" />
    <linearGradient
       inkscape:collect="always"
       id="linearGradient29652-2">
      <stop
         style="stop-color:#c8c8c8;stop-opacity:1;"
         offset="0"
         id="stop29654-6" />
      <stop
         style="stop-color:#797978;stop-opacity:1"
         offset="1"
         id="stop29656-1" />
    </linearGradient>
    <inkscape:path-effect
       is_visible="true"
       id="path-effect29553-7"
       effect="spiro" />
    <clipPath
       id="clipPath29644-8"
       clipPathUnits="userSpaceOnUse">
      <path
         sodipodi:nodetypes="zzzzzzz"
         inkscape:connector-curvature="0"
         inkscape:original-d="m 54.232441,122.36218 c -3.79199,4.78949 -8.5176,11.69104 -8.19273,17.25 0.32487,5.55896 3.86025,13.93486 8.37542,16 4.51517,2.06514 5.75436,0.0125 8.32902,-2.5 2.57466,-2.51247 3.85871,-7.34762 4.00585,-12.25 0.14713,-4.90238 -3.03534,-11.91949 -5.43855,-15.25 -2.40321,-3.33051 -3.28702,-8.03949 -7.07901,-3.25 z"
         id="path29646-8"
         d="m 54.232441,122.36218 c -1.780966,0.097 -3.484616,0.91899 -4.787851,2.1367 -1.303235,1.21771 -2.221372,2.81176 -2.786181,4.50357 -1.129618,3.38363 -0.875481,7.05177 -0.618698,10.60973 0.23251,3.22162 0.470404,6.50533 1.676785,9.50158 0.60319,1.49813 1.450247,2.91021 2.580338,4.06395 1.130092,1.15374 2.551736,2.04189 4.118297,2.43447 1.468838,0.36809 3.038161,0.29183 4.482784,-0.16209 1.444623,-0.45391 2.763917,-1.27887 3.846236,-2.33791 1.57904,-1.54507 2.643262,-3.5662 3.253449,-5.68947 0.610186,-2.12328 0.784157,-4.35155 0.752401,-6.56053 -0.03974,-2.76435 -0.400909,-5.53851 -1.265755,-8.16439 -0.864846,-2.62588 -2.245742,-5.10327 -4.172795,-7.08561 -0.933308,-0.96009 -1.997766,-1.80513 -3.198586,-2.39747 -1.200819,-0.59233 -2.54344,-0.92535 -3.880424,-0.85253"
         style="fill:url(#radialGradient29648);fill-opacity:1;stroke:none" />
    </clipPath>
    <inkscape:path-effect
       is_visible="true"
       id="path-effect29707-7-6"
       effect="spiro" />
    <clipPath
       clipPathUnits="userSpaceOnUse"
       id="clipPath14656-7">
      <path
         sodipodi:nodetypes="aaaaassssaaaaaa"
         inkscape:connector-curvature="0"
         d="m 304.84727,225.44951 c 6.01627,4.92338 9.77707,12.317 10.94319,20.00305 1.8254,12.03148 -2.34636,24.07488 -6.44591,35.53273 -0.81749,2.28481 -1.63978,4.59033 -1.96473,6.99513 -0.32495,2.4048 -0.11897,4.94825 1.02948,7.08594 1.30279,2.42497 3.73227,4.12469 6.36677,4.92292 2.58877,0.78438 5.39365,0.76103 8.01466,0.0922 2.62101,-0.66882 5.06097,-1.96774 7.18716,-3.63996 5.48002,-4.30997 8.75799,-10.98552 10.01043,-17.84394 1.25243,-6.85841 0.63908,-13.92879 -0.551,-20.7983 -1.62313,-9.36916 -4.30898,-18.53961 -7.74003,-27.40773 -2.51766,-6.50732 -5.46794,-12.91081 -9.61753,-18.52016 -4.04611,-5.46946 -9.16208,-10.08954 -13.10336,-15.63502 -2.73209,-3.84412 -4.89983,-8.13097 -8.1917,-11.50812 -1.64594,-1.68858 -3.57654,-3.13527 -5.76975,-4.00143 -2.19321,-0.86616 -4.66356,-1.12446 -6.93254,-0.48249 -1.50468,0.42573 -2.89193,1.23739 -4.03791,2.30136 -1.14598,1.06397 -2.05268,2.37637 -2.69275,3.80312 -1.28015,2.85349 -1.47719,6.11241 -0.96512,9.1977 0.66114,3.98343 2.44407,7.69333 4.46569,11.18873 2.27396,3.93169 4.918,7.71926 8.38442,10.65407 3.5985,3.04664 7.96161,5.07413 11.61053,8.0602"
         id="path14658-9"
         inkscape:original-d="m 304.84727,225.44951 c 5.05628,5.63479 9.72833,12.47181 10.94319,20.00305 1.91724,11.88535 -4.97006,23.58228 -6.44591,35.53273 -0.57645,4.66766 -2.84839,9.7988 -0.93525,14.08107 1.10334,2.46967 3.76154,4.35176 6.36677,4.92292 5.08221,1.1142 11.95719,2.41291 15.20182,-3.54776 6.07775,-11.16533 10.5961,-26.78641 9.45943,-38.64224 -0.906,-9.44981 -3.86858,-18.61978 -7.74003,-27.40773 -2.817,-6.39442 -6.14704,-12.5833 -9.61753,-18.52016 -3.44146,-5.88721 -8.20051,-10.94245 -13.10336,-15.63502 -6.34842,-6.07614 -12.40311,-17.98386 -20.89399,-15.99204 -5.48499,1.28669 -7.45029,9.57719 -7.69578,15.30218 -0.17245,4.02188 2.46425,7.71677 4.46569,11.18873 2.26238,3.92465 5.10447,7.56255 8.38442,10.65407 3.43735,3.23988 8.4511,4.53927 11.61053,8.0602 z"
         style="fill:none;stroke:#c17d11;stroke-width:1px;stroke-linecap:butt;stroke-linejoin:miter;stroke-opacity:1" />
    </clipPath>
    <inkscape:path-effect
       is_visible="true"
       id="path-effect4500-7"
       effect="spiro" />
    <inkscape:path-effect
       is_visible="true"
       id="path-effect4582-3"
       effect="spiro" />
    <linearGradient
       inkscape:collect="always"
       xlink:href="#linearGradient14392-8"
       id="linearGradient18842"
       gradientUnits="userSpaceOnUse"
       x1="442.03912"
       y1="371.54401"
       x2="490.12241"
       y2="293.58548" />
    <linearGradient
       inkscape:collect="always"
       id="linearGradient14392-8">
      <stop
         style="stop-color:#3e2a06;stop-opacity:1"
         offset="0"
         id="stop14394-3" />
      <stop
         style="stop-color:#ad780a;stop-opacity:1"
         offset="1"
         id="stop14396-0" />
    </linearGradient>
    <inkscape:path-effect
       effect="spiro"
       id="path-effect14300-7"
       is_visible="true" />
    <clipPath
       clipPathUnits="userSpaceOnUse"
       id="clipPath14489-3">
      <path
         style="fill:url(#linearGradient14493);fill-opacity:1;stroke:none"
         d="m 516.00562,331.8756 c 0.90859,1.59687 -1.57016,3.38773 -2.81579,4.73826 -2.74207,2.97299 -6.45099,4.90178 -9.89648,7.01985 -5.91373,3.63539 -12.61918,5.90302 -18.41964,9.71654 -3.88318,2.553 -7.32809,5.72221 -10.86016,8.74238 -3.0221,2.58411 -5.48201,5.87643 -8.83247,8.01771 -3.3519,2.1422 -7.0437,4.15414 -10.99061,4.6502 -4.78298,0.60114 -9.87221,-0.25577 -14.29898,-2.16416 -3.0947,-1.33413 -6.16113,-3.38144 -7.96301,-6.22931 -1.81288,-2.86525 -2.06093,-6.5375 -2.23266,-9.92375 -0.30734,-6.06031 1.36252,-12.0605 2.17848,-18.07349 0.67882,-5.00236 1.85312,-9.94325 2.26013,-14.97502 0.73946,-9.14185 -0.7797,-18.40771 0.3199,-27.51327 0.35468,-2.93704 -0.181,-6.65876 2.01238,-8.64398 2.0384,-1.84494 5.43058,-1.1212 8.17929,-1.06253 3.34492,0.0714 6.63224,0.95108 9.88917,1.71656 2.05612,0.48325 3.99816,1.41138 6.0722,1.81081 3.44031,0.66255 6.96573,1.06623 10.46739,0.95192 3.78516,-0.12356 7.43659,-1.79636 11.22363,-1.76474 1.55185,0.013 3.12359,0.28186 4.58649,0.79985 1.48266,0.52499 2.98786,1.20618 4.12281,2.29512 0.86547,0.83038 1.42933,1.95676 1.87872,3.06879 0.67163,1.66196 0.8942,3.4778 1.16703,5.24945 0.24238,1.57389 -0.1531,3.27141 0.41433,4.75933 1.83023,4.79924 5.57666,8.72712 9.22489,12.34277 1.74278,1.93455 4.03041,3.53404 6.16708,4.82839 2.26886,1.37444 4.3675,2.44991 5.46279,4.81597 0.65901,1.48517 -0.54371,3.76097 0.68307,4.82635 z"
         id="path14491-6"
         inkscape:connector-curvature="0"
         sodipodi:nodetypes="aaaaaaaaaaaaaaaaaaaaaaaacscaa"
         inkscape:original-d="m 516.00562,331.8756 c 0.90859,1.59687 -1.57016,3.38773 -2.81579,4.73826 -2.74207,2.97299 -6.45099,4.90178 -9.89648,7.01985 -5.91373,3.63539 -12.61918,5.90302 -18.41964,9.71654 -3.88318,2.553 -7.32809,5.72221 -10.86016,8.74238 -3.0221,2.58411 -5.48201,5.87643 -8.83247,8.01771 -3.3519,2.1422 -7.0437,4.15414 -10.99061,4.6502 -4.78298,0.60114 -9.87221,-0.25577 -14.29898,-2.16416 -3.0947,-1.33413 -6.16113,-3.38144 -7.96301,-6.22931 -1.81288,-2.86525 -2.06093,-6.5375 -2.23266,-9.92375 -0.30734,-6.06031 1.36252,-12.0605 2.17848,-18.07349 0.67882,-5.00236 1.85312,-9.94325 2.26013,-14.97502 0.73946,-9.14185 -0.7797,-18.40771 0.3199,-27.51327 0.35468,-2.93704 -0.181,-6.65876 2.01238,-8.64398 2.0384,-1.84494 5.43058,-1.1212 8.17929,-1.06253 3.34492,0.0714 6.63224,0.95108 9.88917,1.71656 2.05612,0.48325 3.99816,1.41138 6.0722,1.81081 3.44031,0.66255 6.96573,1.06623 10.46739,0.95192 3.78516,-0.12356 7.43659,-1.79636 11.22363,-1.76474 1.55185,0.013 3.12359,0.28186 4.58649,0.79985 1.48266,0.52499 2.98786,1.20618 4.12281,2.29512 0.86547,0.83038 1.42933,1.95676 1.87872,3.06879 0.67163,1.66196 0.8942,3.4778 1.16703,5.24945 0.24238,1.57389 -0.1531,3.27141 0.41433,4.75933 1.83023,4.79924 5.57666,8.72712 9.22489,12.34277 1.74278,1.93455 4.03041,3.53404 6.16708,4.82839 2.26886,1.37444 4.3675,2.44991 5.46279,4.81597 0.65901,1.48517 -0.54371,3.76097 0.68307,4.82635 z" />
    </clipPath>
    <inkscape:path-effect
       effect="spiro"
       id="path-effect14300-2-7"
       is_visible="true" />
    <clipPath
       clipPathUnits="userSpaceOnUse"
       id="clipPath14481-1">
      <path
         style="fill:url(#linearGradient14485);fill-opacity:1;stroke:none"
         d="m 516.00562,331.8756 c -0.6714,1.71905 -1.62682,3.32679 -2.81579,4.73826 -2.6238,3.11482 -6.268,5.17039 -9.89648,7.01985 -6.1886,3.15437 -12.60169,5.92177 -18.41964,9.71654 -3.89802,2.54249 -7.4959,5.52671 -10.86016,8.74238 -2.87719,2.75012 -5.60582,5.68745 -8.83247,8.01771 -3.25567,2.35122 -7.01915,4.05426 -10.99061,4.6502 -4.83026,0.72481 -9.82134,-0.21289 -14.29898,-2.16416 -3.13754,-1.36728 -6.15569,-3.3229 -7.96301,-6.22931 -1.81425,-2.91754 -2.22807,-6.48813 -2.23266,-9.92375 -0.008,-6.07666 1.11824,-12.09004 2.17848,-18.07349 0.88097,-4.97177 1.71949,-9.95483 2.26013,-14.97502 0.98337,-9.13118 0.9763,-18.35278 0.3199,-27.51327 -0.10993,-1.53416 -0.23754,-3.0832 -0.008,-4.60412 0.22922,-1.52092 0.85475,-3.0367 2.02069,-4.03986 1.07696,-0.9266 2.52093,-1.33598 3.93947,-1.4145 1.41854,-0.0785 2.83404,0.14655 4.23982,0.35197 3.31254,0.48405 6.65159,0.8649 9.88917,1.71656 2.04284,0.53738 4.03315,1.25925 6.0722,1.81081 3.40258,0.92039 6.96639,1.36144 10.46739,0.95192 3.76917,-0.44089 7.42987,-1.85678 11.22363,-1.76474 1.55658,0.0378 3.1015,0.33171 4.58649,0.79985 1.51539,0.47772 3.00914,1.16182 4.12281,2.29512 0.84639,0.8613 1.43579,1.94539 1.87872,3.06879 0.65982,1.67352 1.01492,3.457 1.16703,5.24945 0.13475,1.58788 0.11343,3.19441 0.41433,4.75933 0.49503,2.57458 1.84746,4.92305 3.52848,6.93494 1.68102,2.01189 3.68982,3.72048 5.69641,5.40783 1.99908,1.68103 4.0106,3.35469 6.16708,4.82839 1.0121,0.69165 2.05642,1.33949 3.01736,2.10062 0.96094,0.76113 1.84466,1.6468 2.44543,2.71535 0.81492,1.44944 1.06377,3.2077 0.68307,4.82635 h 2e-5"
         id="path14483-3"
         inkscape:connector-curvature="0"
         sodipodi:nodetypes="aaaaaaaaaaaaaaaaaaaaaaaacscaa"
         inkscape:original-d="m 516.00562,331.8756 c 0.90859,1.59687 -1.57016,3.38773 -2.81579,4.73826 -2.74207,2.97299 -6.45099,4.90178 -9.89648,7.01985 -5.91373,3.63539 -12.61918,5.90302 -18.41964,9.71654 -3.88318,2.553 -7.32809,5.72221 -10.86016,8.74238 -3.0221,2.58411 -5.48201,5.87643 -8.83247,8.01771 -3.3519,2.1422 -7.0437,4.15414 -10.99061,4.6502 -4.78298,0.60114 -9.87221,-0.25577 -14.29898,-2.16416 -3.0947,-1.33413 -6.16113,-3.38144 -7.96301,-6.22931 -1.81288,-2.86525 -2.06093,-6.5375 -2.23266,-9.92375 -0.30734,-6.06031 1.36252,-12.0605 2.17848,-18.07349 0.67882,-5.00236 1.85312,-9.94325 2.26013,-14.97502 0.73946,-9.14185 -0.7797,-18.40771 0.3199,-27.51327 0.35468,-2.93704 -0.181,-6.65876 2.01238,-8.64398 2.0384,-1.84494 5.43058,-1.1212 8.17929,-1.06253 3.34492,0.0714 6.63224,0.95108 9.88917,1.71656 2.05612,0.48325 3.99816,1.41138 6.0722,1.81081 3.44031,0.66255 6.96573,1.06623 10.46739,0.95192 3.78516,-0.12356 7.43659,-1.79636 11.22363,-1.76474 1.55185,0.013 3.12359,0.28186 4.58649,0.79985 1.48266,0.52499 2.98786,1.20618 4.12281,2.29512 0.86547,0.83038 1.42933,1.95676 1.87872,3.06879 0.67163,1.66196 0.8942,3.4778 1.16703,5.24945 0.24238,1.57389 -0.1531,3.27141 0.41433,4.75933 1.83023,4.79924 5.57666,8.72712 9.22489,12.34277 1.74278,1.93455 4.03041,3.53404 6.16708,4.82839 2.26886,1.37444 4.3675,2.44991 5.46279,4.81597 0.65901,1.48517 -0.54371,3.76097 0.68307,4.82635 z" />
    </clipPath>
    <inkscape:path-effect
       effect="spiro"
       id="path-effect14300-2-2-0"
       is_visible="true" />
    <clipPath
       clipPathUnits="userSpaceOnUse"
       id="clipPath14473-5">
      <path
         style="fill:url(#linearGradient14477);fill-opacity:1;stroke:none"
         d="m 511.82669,331.89986 c -0.60617,1.40358 -1.44178,2.70776 -2.46357,3.84504 -2.32524,2.58805 -5.50706,4.22246 -8.65855,5.69652 -5.42045,2.53534 -11.00071,4.7788 -16.11556,7.88485 -3.38301,2.05437 -6.53696,4.47221 -9.50169,7.09434 -2.52461,2.23286 -4.92977,4.6271 -7.72763,6.50627 -2.88313,1.93644 -6.17534,3.29888 -9.61582,3.77358 -4.21817,0.58201 -8.55335,-0.18335 -12.51035,-1.75619 -2.7091,-1.07682 -5.36625,-2.6185 -6.96693,-5.05501 -1.53813,-2.3413 -1.9333,-5.25173 -1.95338,-8.053 -0.0354,-4.93859 0.96501,-9.81816 1.90598,-14.66641 0.78215,-4.02995 1.52682,-8.0717 1.97741,-12.15204 0.81784,-7.40607 0.66114,-14.88536 0.27989,-22.32668 -0.064,-1.24906 -0.13361,-2.5105 0.0789,-3.74301 0.21256,-1.23251 0.73646,-2.45247 1.68171,-3.27147 0.93914,-0.8137 2.20952,-1.15942 3.45104,-1.2115 1.24152,-0.0521 2.47642,0.16381 3.70512,0.34927 2.88969,0.43617 5.81087,0.7091 8.65215,1.39297 1.78651,0.43 3.53091,1.02011 5.31265,1.46945 2.98632,0.75312 6.09645,1.10709 9.15804,0.77247 3.2941,-0.36004 6.50688,-1.50957 9.81969,-1.43207 1.35838,0.0318 2.70755,0.27142 4.01277,0.64907 1.31265,0.3798 2.61744,0.9202 3.6071,1.86246 0.72535,0.69061 1.25006,1.56936 1.64371,2.49029 0.57625,1.34814 0.88626,2.79994 1.02105,4.25986 0.11897,1.28855 0.10468,2.59405 0.36251,3.86214 0.4369,2.14878 1.63966,4.08139 3.11506,5.70353 1.4754,1.62214 3.22406,2.96752 4.9559,4.31247 1.75634,1.36398 3.50975,2.7398 5.39565,3.91818 0.88228,0.55128 1.79349,1.05932 2.63473,1.67142 0.84123,0.61209 1.61878,1.33907 2.14473,2.23668 0.68386,1.16711 0.90229,2.59857 0.59763,3.91652 h 2e-5"
         id="path14475-9"
         inkscape:connector-curvature="0"
         sodipodi:nodetypes="aaaaaaaaaaaaaaaaaaaaaaaacscaa"
         inkscape:original-d="m 511.82669,331.89986 c 0.79493,1.29584 -1.37375,2.7491 -2.46357,3.84504 -2.39907,2.41255 -5.64405,3.97773 -8.65855,5.69652 -5.17399,2.95008 -11.04067,4.79023 -16.11556,7.88485 -3.39744,2.07173 -6.41144,4.64351 -9.50169,7.09434 -2.64407,2.09697 -4.79627,4.76865 -7.72763,6.50627 -2.93262,1.73837 -6.16262,3.37103 -9.61582,3.77358 -4.18468,0.48781 -8.63731,-0.20756 -12.51035,-1.75619 -2.70759,-1.08263 -5.39044,-2.744 -6.96693,-5.05501 -1.58611,-2.32511 -1.80313,-5.3051 -1.95338,-8.053 -0.2689,-4.91787 1.19208,-9.78694 1.90598,-14.66641 0.59391,-4.05935 1.62131,-8.06882 1.97741,-12.15204 0.64696,-7.4185 -0.68217,-14.93763 0.27989,-22.32668 0.31031,-2.38337 -0.15836,-5.4035 1.76065,-7.01448 1.78342,-1.49715 4.75128,-0.90984 7.15616,-0.86223 2.92651,0.0579 5.80263,0.77179 8.65215,1.39297 1.79893,0.39215 3.49804,1.14531 5.31265,1.46945 3.00996,0.53765 6.0944,0.86523 9.15804,0.77247 3.31168,-0.10027 6.50636,-1.45773 9.81969,-1.43207 1.35773,0.0105 2.73287,0.22873 4.01277,0.64907 1.2972,0.42602 2.61412,0.9788 3.6071,1.86246 0.75721,0.67384 1.25054,1.58789 1.64371,2.49029 0.58762,1.34866 0.78235,2.82219 1.02105,4.25986 0.21206,1.27719 -0.13395,2.65471 0.36251,3.86214 1.60129,3.89452 4.87908,7.08195 8.07096,10.016 1.52478,1.56986 3.52626,2.86783 5.39565,3.91818 1.98506,1.11534 3.82118,1.98807 4.77946,3.9081 0.57658,1.2052 -0.47569,3.05198 0.59763,3.91652 z" />
    </clipPath>
    <linearGradient
       id="linearGradient14518-6">
      <stop
         id="stop14540-0"
         offset="0"
         style="stop-color:#110800;stop-opacity:1;" />
      <stop
         style="stop-color:#a65a00;stop-opacity:0.80000001;"
         offset="0.59066743"
         id="stop14542-5" />
      <stop
         style="stop-color:#ff921e;stop-opacity:0;"
         offset="1"
         id="stop14522-4" />
    </linearGradient>
    <inkscape:path-effect
       is_visible="true"
       id="path-effect29716-0-0"
       effect="spiro" />
    <linearGradient
       id="linearGradient14518-2-2">
      <stop
         id="stop14540-5-0"
         offset="0"
         style="stop-color:#110800;stop-opacity:1;" />
      <stop
         style="stop-color:#a65a00;stop-opacity:0.80000001;"
         offset="0.59066743"
         id="stop14542-2-7" />
      <stop
         style="stop-color:#ff921e;stop-opacity:0;"
         offset="1"
         id="stop14522-2-1" />
    </linearGradient>
    <inkscape:path-effect
       is_visible="true"
       id="path-effect29716-0-8-3"
       effect="spiro" />
    <inkscape:path-effect
       is_visible="true"
       id="path-effect29716-6-1"
       effect="spiro" />
    <radialGradient
       inkscape:collect="always"
       xlink:href="#linearGradient14830-4"
       id="radialGradient18850"
       gradientUnits="userSpaceOnUse"
       gradientTransform="matrix(0.36025223,0.15680447,-0.07246786,0.16649214,260.61683,181.93825)"
       cx="382.23483"
       cy="246.85757"
       fx="382.23483"
       fy="246.85757"
       r="20.537666" />
    <linearGradient
       id="linearGradient14830-4"
       inkscape:collect="always">
      <stop
         id="stop14832-6"
         offset="0"
         style="stop-color:#7c7c7c;stop-opacity:1;" />
      <stop
         id="stop14834-5"
         offset="1"
         style="stop-color:#7c7c7c;stop-opacity:0.32941177" />
    </linearGradient>
    <clipPath
       clipPathUnits="userSpaceOnUse"
       id="clipPath14822-9">
      <path
         sodipodi:nodetypes="aaaasssaccaa"
         inkscape:connector-curvature="0"
         d="m 386.1875,285.32775 c -0.40516,-1.10369 -1.11845,-2.08156 -1.9907,-2.86987 -0.87226,-0.78832 -1.90049,-1.39229 -2.98278,-1.85155 -2.16459,-0.91852 -4.52053,-1.26149 -6.83152,-1.69556 -2.17919,-0.40931 -4.34179,-0.90631 -6.52782,-1.27734 -2.27136,-0.38551 -4.6179,-0.63213 -6.8653,-0.1253 -1.96583,0.44333 -3.7845,1.45879 -5.27172,2.81864 -1.48723,1.35984 -2.64911,3.0564 -3.48499,4.89007 -1.47218,3.22952 -1.93451,6.86503 -1.65394,10.40316 0.20882,2.63325 0.87532,5.34594 2.60877,7.33912 1.40065,1.61052 3.38733,2.61526 5.43398,3.22092 3.52502,1.04316 7.36663,0.98822 10.86038,-0.1553 5.76689,-1.93113 10.87568,-5.77387 14.33034,-10.77903 1.13861,-1.64963 2.11217,-3.44809 2.5532,-5.4034 0.33597,-1.48955 0.34831,-3.08112 -0.1779,-4.51456"
         id="path14824-1"
         inkscape:original-d="m 386.1875,285.32775 c -2.36571,-3.81321 -7.59294,-4.9003 -11.805,-6.41698 -2.08672,-0.75138 -4.32322,-1.04333 -6.52782,-1.27734 -2.27612,-0.2416 -4.71593,-0.91505 -6.8653,-0.1253 -3.64566,1.33955 -7.24986,3.80684 -8.75671,7.70871 -1.13743,2.94527 -1.80122,7.05909 -1.65394,10.40316 0.13075,2.96891 0.9633,5.07273 2.60877,7.33912 1.08803,1.49859 3.40096,2.67896 5.43398,3.22092 3.49923,0.93284 7.37483,0.82779 10.86038,-0.1553 5.98587,-2.2615 11.09272,-5.76885 14.33034,-10.77903 1.07459,-1.67639 2.15539,-3.45031 2.5532,-5.4034 0.30053,-1.4755 0.61519,-3.23621 -0.1779,-4.51456 z"
         style="fill:none;stroke:#ce5c00;stroke-width:1px;stroke-linecap:butt;stroke-linejoin:miter;stroke-opacity:1" />
    </clipPath>
    <linearGradient
       inkscape:collect="always"
       xlink:href="#linearGradient14830-8-1"
       id="linearGradient18852"
       gradientUnits="userSpaceOnUse"
       x1="358.5"
       y1="279.36218"
       x2="361.5"
       y2="279.23718" />
    <linearGradient
       id="linearGradient14830-8-1"
       inkscape:collect="always">
      <stop
         id="stop14832-2-5"
         offset="0"
         style="stop-color:#7c7c7c;stop-opacity:1;" />
      <stop
         id="stop14834-8-0"
         offset="1"
         style="stop-color:#7c7c7c;stop-opacity:0.32941177" />
    </linearGradient>
    <clipPath
       clipPathUnits="userSpaceOnUse"
       id="clipPath14822-2-4">
      <path
         sodipodi:nodetypes="aaaasssaccaa"
         inkscape:connector-curvature="0"
         d="m 386.1875,285.32775 c -0.40516,-1.10369 -1.11845,-2.08156 -1.9907,-2.86987 -0.87226,-0.78832 -1.90049,-1.39229 -2.98278,-1.85155 -2.16459,-0.91852 -4.52053,-1.26149 -6.83152,-1.69556 -2.17919,-0.40931 -4.34179,-0.90631 -6.52782,-1.27734 -2.27136,-0.38551 -4.6179,-0.63213 -6.8653,-0.1253 -1.96583,0.44333 -3.7845,1.45879 -5.27172,2.81864 -1.48723,1.35984 -2.64911,3.0564 -3.48499,4.89007 -1.47218,3.22952 -1.93451,6.86503 -1.65394,10.40316 0.20882,2.63325 0.87532,5.34594 2.60877,7.33912 1.40065,1.61052 3.38733,2.61526 5.43398,3.22092 3.52502,1.04316 7.36663,0.98822 10.86038,-0.1553 5.76689,-1.93113 10.87568,-5.77387 14.33034,-10.77903 1.13861,-1.64963 2.11217,-3.44809 2.5532,-5.4034 0.33597,-1.48955 0.34831,-3.08112 -0.1779,-4.51456"
         id="path14824-6-5"
         inkscape:original-d="m 386.1875,285.32775 c -2.36571,-3.81321 -7.59294,-4.9003 -11.805,-6.41698 -2.08672,-0.75138 -4.32322,-1.04333 -6.52782,-1.27734 -2.27612,-0.2416 -4.71593,-0.91505 -6.8653,-0.1253 -3.64566,1.33955 -7.24986,3.80684 -8.75671,7.70871 -1.13743,2.94527 -1.80122,7.05909 -1.65394,10.40316 0.13075,2.96891 0.9633,5.07273 2.60877,7.33912 1.08803,1.49859 3.40096,2.67896 5.43398,3.22092 3.49923,0.93284 7.37483,0.82779 10.86038,-0.1553 5.98587,-2.2615 11.09272,-5.76885 14.33034,-10.77903 1.07459,-1.67639 2.15539,-3.45031 2.5532,-5.4034 0.30053,-1.4755 0.61519,-3.23621 -0.1779,-4.51456 z"
         style="fill:none;stroke:#ce5c00;stroke-width:1px;stroke-linecap:butt;stroke-linejoin:miter;stroke-opacity:1" />
    </clipPath>
    <inkscape:path-effect
       effect="spiro"
       id="path-effect14972-2-2"
       is_visible="true" />
    <inkscape:path-effect
       effect="spiro"
       id="path-effect15017-9"
       is_visible="true" />
    <clipPath
       clipPathUnits="userSpaceOnUse"
       id="clipPath15031-3">
      <path
         style="fill:none;stroke:#729fcf;stroke-width:0.125;stroke-linecap:butt;stroke-linejoin:miter;stroke-miterlimit:4;stroke-dasharray:none;stroke-opacity:1"
         d="m 248.06066,184.61218 c 0,0 -5.10626,6.34527 -7.89695,10.24696 -2.7907,3.9017 -5.73652,6.64881 -8.58729,10.75139 -2.85076,4.10259 -7.36482,9.43164 -9.44912,13.93045 -2.08429,4.49881 -2.32047,9.0356 -4.26498,13.84932 -1.94451,4.81371 -3.70129,10.64183 -5.97071,15.33612 -2.26943,4.69429 -5.37093,9.68473 -6.93891,13.53553 -1.56799,3.8508 -3.81119,5.72384 -4.10782,10.22071 -0.29663,4.49686 -0.57747,8.31749 3.77151,16.77227 4.34898,8.45478 17.23626,22.00721 24.24176,27.92472 7.00549,5.9175 9.39133,7.22492 14.60245,8.52595 5.21112,1.30104 13.85627,2.9981 16.72874,-1.2702 2.87246,-4.26829 2.27191,-5.96483 -0.74863,-10.66616 -3.02055,-4.70132 -4.82469,-5.30209 -9.79642,-9.57343 -4.97172,-4.27133 -18.63696,-14.87266 -22.68212,-19.23996 -4.04516,-4.36729 -7.10731,-3.41164 -5.53019,-6.28412 1.57712,-2.87249 -2.20738,-4.00856 -2.65783,-7.69253 -0.76361,-6.24511 0.9436,-18.71046 1.45958,-22.13343 0.51598,-3.42296 1.22371,-2.92446 3.51815,-8.03965 2.29444,-5.11519 4.12424,-8.62435 7.04933,-13.46723 2.92509,-4.84289 8.62493,-10.12787 11.15147,-15.27803 2.52654,-5.15017 3.50393,-10.72068 4.36185,-15.31831 0.85792,-4.59763 1.74613,-12.13037 1.74613,-12.13037 z"
         id="path15033-2"
         inkscape:connector-curvature="0"
         inkscape:original-d="m 248.06066,184.61218 c 0,0 -5.10626,6.34527 -7.89695,10.24696 -2.7907,3.9017 -5.73652,6.64881 -8.58729,10.75139 -2.85076,4.10259 -7.36482,9.43164 -9.44912,13.93045 -2.08429,4.49881 -2.32047,9.0356 -4.26498,13.84932 -1.94451,4.81371 -3.70129,10.64183 -5.97071,15.33612 -2.26943,4.69429 -5.37093,9.68473 -6.93891,13.53553 -1.56799,3.8508 -3.81119,5.72384 -4.10782,10.22071 -0.29663,4.49686 -0.57747,8.31749 3.77151,16.77227 4.34898,8.45478 17.23626,22.00721 24.24176,27.92472 7.00549,5.9175 9.39133,7.22492 14.60245,8.52595 5.21112,1.30104 13.85627,2.9981 16.72874,-1.2702 2.87246,-4.26829 2.27191,-5.96483 -0.74863,-10.66616 -3.02055,-4.70132 -4.82469,-5.30209 -9.79642,-9.57343 -4.97172,-4.27133 -18.63696,-14.87266 -22.68212,-19.23996 -4.04516,-4.36729 -7.10731,-3.41164 -5.53019,-6.28412 1.57712,-2.87249 -2.20738,-4.00856 -2.65783,-7.69253 -0.76361,-6.24511 0.9436,-18.71046 1.45958,-22.13343 0.51598,-3.42296 1.22371,-2.92446 3.51815,-8.03965 2.29444,-5.11519 4.12424,-8.62435 7.04933,-13.46723 2.92509,-4.84289 8.62493,-10.12787 11.15147,-15.27803 2.52654,-5.15017 3.50393,-10.72068 4.36185,-15.31831 0.85792,-4.59763 1.74613,-12.13037 1.74613,-12.13037 z"
         sodipodi:nodetypes="czzzzzzzzzzzzzzzszzzzzc" />
    </clipPath>
    <clipPath
       clipPathUnits="userSpaceOnUse"
       id="clipPath14186-9">
      <path
         inkscape:original-d="m 137.57703,281.0191 c 6.32494,-1.3585 11.99755,4.87308 16.86679,9.13228 6.42572,5.62067 -8.54781,26.01622 13.24488,19.8293 5.86081,-1.66388 6.89528,11.31183 10.16415,16.45304 4.09971,6.44793 11.58575,13.6827 13.65231,21.03883 1.58383,5.63779 1.34339,10.90606 -1.62666,15.95302 -3.57124,6.06857 -11.7907,10.42929 -18.78877,11.20919 -5.73056,0.63864 -11.87822,-3.8351 -17.38362,-5.54906 -12.31617,-3.83432 -23.77946,-5.82074 -36.09666,-9.65174 -2.50091,-0.77785 -8.28361,-2.638 -10.96988,-3.42629 -4.51043,-1.3236 -6.46556,-0.99271 -8.72046,-4.76819 -2.68251,-4.49147 0.68051,-9.72669 3.16379,-14.79408 4.06995,-8.30524 1.91195,-17.82603 0.46203,-25.51057 -0.92235,-4.8884 -0.66071,-7.92707 2.7425,-10.79139 4.99476,-4.20385 14.53027,-1.53186 20.35272,-4.08305 5.82246,-2.55119 6.66365,-13.6939 12.93688,-15.04129 z"
         sodipodi:nodetypes="ssssssssssssssss"
         inkscape:connector-curvature="0"
         id="path14188-1"
         d="m 137.57703,281.0191 c 1.59929,-0.66295 3.3982,-0.78361 5.10074,-0.46963 1.70253,0.31398 3.31141,1.04948 4.74342,2.02239 2.86402,1.94583 4.98821,4.77774 7.02263,7.57952 4.67189,6.43406 9.16868,13.00227 13.24488,19.8293 3.30635,5.53766 6.34352,11.25685 10.16415,16.45304 2.49398,3.3919 5.3066,6.53947 7.813,9.92221 2.50639,3.38273 4.72794,7.05586 5.83931,11.11662 1.44411,5.27653 0.88463,11.09291 -1.62666,15.95302 -1.76663,3.41896 -4.47646,6.35228 -7.77242,8.33898 -3.29595,1.9867 -7.17064,3.01444 -11.01635,2.87021 -6.11413,-0.2293 -11.69944,-3.28515 -17.38362,-5.54906 -11.58097,-4.6125 -24.15978,-6.0594 -36.09666,-9.65174 -3.66859,-1.10404 -7.27582,-2.4107 -10.96988,-3.42629 -1.64125,-0.45122 -3.30866,-0.8482 -4.85875,-1.55144 -1.55008,-0.70325 -2.999548,-1.7491 -3.86171,-3.21675 -0.666391,-1.13439 -0.948386,-2.47002 -0.930187,-3.78554 0.0182,-1.31552 0.325889,-2.61453 0.773815,-3.85158 0.895851,-2.47409 2.343262,-4.71374 3.320162,-7.15696 1.59511,-3.98935 1.88169,-8.38839 1.66657,-12.67942 -0.21511,-4.29103 -0.91078,-8.54478 -1.20454,-12.83115 -0.13118,-1.91406 -0.18066,-3.85256 0.18479,-5.73598 0.36545,-1.88343 1.17577,-3.72459 2.55771,-5.05541 1.27406,-1.22693 2.96492,-1.95531 4.69643,-2.31651 1.73151,-0.3612 3.51533,-0.37747 5.28367,-0.33762 1.76833,0.0399 3.54067,0.13425 5.30351,-0.0106 1.76284,-0.14488 3.53347,-0.54055 5.06911,-1.41828 1.45996,-0.83447 2.65433,-2.0745 3.64374,-3.43424 0.9894,-1.35974 1.78909,-2.84573 2.60891,-4.31396 0.81983,-1.46823 1.66834,-2.93151 2.74157,-4.22611 1.07324,-1.2946 2.38923,-2.42304 3.94266,-3.06698"
         style="fill:#402c07;fill-opacity:1;stroke:none" />
    </clipPath>
    <inkscape:path-effect
       is_visible="true"
       id="path-effect4669-1"
       effect="spiro" />
    <inkscape:path-effect
       is_visible="true"
       id="path-effect4669-4-3"
       effect="spiro" />
    <linearGradient
       inkscape:collect="always"
       xlink:href="#linearGradient14392-8"
       id="linearGradient3724"
       gradientUnits="userSpaceOnUse"
       x1="442.03912"
       y1="371.54401"
       x2="490.12241"
       y2="293.58548" />
  </defs>
  <metadata
     id="metadata2413">
    <rdf:RDF>
      <cc:Work
         rdf:about="">
        <dc:format>image/svg+xml</dc:format>
        <dc:type
           rdf:resource="http://purl.org/dc/dcmitype/StillImage" />
        <dc:title></dc:title>
      </cc:Work>
    </rdf:RDF>
  </metadata>
  <g
     id="layer2"
     style="display:none"
     transform="translate(0,416)">
    <path
       d="M 11,7 C 7.676,7 5,9.676 5,13 v 33.6875 c 2.2377507,0.124029 4.660506,0.235683 5.875,0.4375 0.66093,0.10983 -0.08406,0.240848 -1.125,0.34375 C 8.7090622,47.571654 7.3545491,47.665119 6.84375,47.75 6.2216014,47.853382 5.6264179,47.903999 5,48 v 1.0625 c 0.3803657,0.03607 0.7183843,0.03125 0.9375,0.03125 0.80883,10e-7 1.1599727,0.215701 1.3125,0.5625 0.1525272,0.346797 0.09375,0.839723 0.09375,1.40625 0,0.424828 -0.9420178,0.663014 -1.15625,1.375 C 6.110939,52.691968 5.5510552,52.945524 5,53.1875 v 2.21875 c 0.7355867,0.02497 1.4332639,0.05671 1.84375,0.3125 C 7.1254716,55.894306 6.0687957,56.124098 5,56.3125 v 7.5625 c 1.1379643,0.180337 3.3100715,0.925679 3.96875,1.0625 1.090152,0.226446 1.224723,0.33476 0.875,0.4375 -0.3497231,0.102744 -1.173581,0.175172 -2,0.3125 C 6.8656638,65.850029 5.90816,66.141998 5,66.34375 V 86 c 0,3.324 2.676,6 6,6 h 13 c 0.0954,-0.438237 0.150955,-0.931178 0.25,-1.4375 0.140364,-0.717512 0.25498,-1.34159 0.375,-1.59375 0.03001,-0.06304 0.05815,-0.114053 0.09375,-0.125 0.106804,-0.03285 0.238198,0.191956 0.46875,0.78125 0.304338,0.777871 0.540174,1.646782 0.6875,2.375 h 0.75 c 0.276152,-0.493694 0.578538,-1.138496 0.8125,-1.4375 0.09907,-0.126629 0.275237,0.131501 0.53125,0.375 0.256014,0.2435 0.588904,0.486378 0.9375,0.375 0.648614,-0.207227 1.602807,-0.726227 2.03125,-1 0.139883,-0.08938 0.300164,-0.157976 0.40625,-0.1875 0.106087,-0.02952 0.174331,-0.01774 0.25,0 0.151339,0.03548 0.232196,0.144559 0.34375,0.28125 0.223098,0.27338 0.466785,0.656251 1.0625,0.65625 0.478344,0 0.657185,-0.0325 0.78125,0.0625 0.124065,0.095 0.197087,0.314551 0.40625,0.875 h 8.875 c -0.04778,-0.593879 1.040547,-2.151517 1.21875,-3.0625 0.19092,-0.975995 0.214078,-1.242419 0.28125,-1.0625 0.06717,0.179919 0.192504,0.793906 0.46875,1.5 0.110448,0.282298 0.213887,0.358235 0.3125,0.28125 0.09861,-0.07699 0.168895,-0.293948 0.25,-0.5625 0.162213,-0.537107 0.285649,-1.296709 0.34375,-1.59375 0.131129,-0.670335 0.128655,-1.786501 0.125,-2.28125 -9.11e-4,-0.123687 -0.0059,-0.217815 0,-0.25 0.01779,-0.09656 0.08067,0.312079 0.28125,1.59375 0.163819,1.046767 0.54767,2.687946 0.71875,3.5625 0.169798,0.867992 0.298106,1.322124 0.40625,1.875 H 75.6875 c 0.03877,-0.494956 0.03519,-1.098589 0.0625,-1.5 0.02049,-0.301057 0.06649,-0.487005 0.15625,-0.46875 0.02992,0.0061 0.05077,0.03882 0.09375,0.09375 0.233449,0.298339 0.630596,1.164908 0.96875,1.875 H 85 c 3.324,0 6,-2.676 6,-6 v -7.21875 c -0.16942,0.0045 -0.290112,-4e-6 -0.5,0 -1.330307,0 -2.638456,-4e-6 -3.96875,0 -1.226564,0 -2.05394,-9.64e-4 -2.25,-0.0625 -0.19606,-0.06154 0.232972,-0.183183 1.46875,-0.5 C 86.405034,78.050819 89.092469,77.290673 91,76.875 V 38.46875 C 90.34725,38.202412 89.792969,37.980093 89.25,37.5625 89.107486,37.452886 88.801155,37.170028 88.28125,37 87.761349,36.829972 87.007124,36.743855 86,36.9375 c -1.533473,0.294852 -1.685602,0.283469 -1.25,0.15625 0.4356,-0.127221 1.468635,-0.381012 2.25,-0.53125 1.152717,-0.221645 2.722214,-1.204246 4,-1.84375 v -4.5625 c -0.69831,-0.257978 -1.422206,-0.558272 -1.75,-1.0625 -0.209707,-0.322576 -0.321618,-0.513018 -0.3125,-0.625 0.0091,-0.111981 0.13299,-0.149124 0.25,-0.1875 0.117011,-0.03837 0.261032,-0.05449 0.375,-0.15625 0.11397,-0.101759 0.187497,-0.291619 0.1875,-0.59375 0,-0.32292 0.08246,-0.887065 0.0625,-1.40625 -0.01,-0.259593 -0.03562,-0.49724 -0.125,-0.6875 -0.08939,-0.19026 -0.219089,-0.333004 -0.4375,-0.375 -0.574572,-0.110478 -0.848143,-0.233682 -0.90625,-0.34375 -0.05811,-0.110067 0.07208,-0.18937 0.28125,-0.28125 0.418339,-0.18376 1.132532,-0.339398 1.125,-0.34375 -0.668701,-0.385725 -5.247169,-0.921226 -5,-0.96875 0.332574,-0.06395 0.667437,-0.123553 1,-0.1875 1.047644,-0.201439 2.43278,-0.309227 3.75,-0.5625 0.573261,-0.110227 0.911769,-0.250569 1.125,-0.4375 0.213229,-0.18693 0.294201,-0.423258 0.375,-0.625 V 13 C 91,9.676 88.324,7 85,7 H 33.625 C 33.72158,8.3975706 33.82658,9.959362 33.53125,9.1875 33.320827,8.6375466 33.210422,8.0499534 33,7.5 32.946762,7.3608606 32.903941,7.1705291 32.84375,7 H 30.8125 C 30.571803,7.4923127 30.362863,7.9708281 30.03125,8.1875 29.524321,8.5187294 29.245447,8.6821159 29,8.59375 28.754552,8.5053839 28.523162,8.1669814 28.15625,7.6875 27.992502,7.4735174 27.721718,7.2560338 27.40625,7 h -6.8125 L 19.28125,12.5625 17.53125,7 H 17.3125 l -1.75,8.9375 L 14.15625,7 Z"
       inkscape:connector-curvature="0"
       id="rect3745"
       style="opacity:0.9;fill:url(#ButtonShadow);fill-opacity:1;fill-rule:nonzero;stroke:none;filter:url(#filter3174)" />
  </g>
  <g
     id="g1073">
    <path
       id="path881"
       d="M 432.91329,56.473974 C 535.1062,145.04856 538.74006,306.17368 441.03009,416.37276 343.32012,526.57182 181.27964,544.10062 79.086727,455.52602 -23.106181,366.95143 -26.740046,205.82631 70.969927,95.627234 168.6799,-14.571846 330.72038,-32.100616 432.91329,56.473974 Z"
       inkscape:connector-curvature="0"
       style="fill:#333333;fill-opacity:1;stroke-width:11.10955811" />
    <path
       id="path883"
       d="m 511.63551,224.90352 c -1.5514,61.31166 -25.16123,124.1546 -70.96638,175.81449 C 342.95916,510.91712 180.91869,528.44582 78.72578,439.87127 30.827126,398.35564 4.4968242,340.92283 0.19383033,280.22879 0.79908189,346.58547 27.117413,410.48219 79.078684,455.51904 181.2716,544.09362 343.31975,526.55622 441.02203,416.36578 490.72697,360.30764 514.02705,291.07481 511.63551,224.90352 Z"
       inkscape:connector-curvature="0"
       style="opacity:1;fill:#000000;fill-opacity:0.49019608;stroke-width:11.10955811" />
    <g
       style="fill:#000000;fill-opacity:0.49019608"
       id="g1168"
       transform="matrix(0.98031077,0,0,0.98031077,21.969707,24.151169)">
      <path
         sodipodi:nodetypes="sscccssssssscccccccccscscscccccccccsccccccccssccccccccccsscccsccc"
         inkscape:connector-curvature="0"
         id="path1164"
         d="m 339.51562,98.00391 c -11.20102,-0.03916 -14.69967,0.23446 -18.98242,1.48437 -6.51594,1.90166 -12.54313,4.55201 -18.02539,7.86914 7.92061,6.30989 13.90775,15.65421 16.90235,27.59961 1.09136,4.35365 2.2331,10.97657 3.14257,17.77149 2.46452,-5.63148 8.69811,-11.96535 24.50782,-27.90625 11.77978,-11.87754 21.25521,-21.75846 21.05468,-21.95899 -0.20052,-0.20052 -3.62858,-1.36516 -7.61718,-2.58789 -6.66027,-2.04174 -8.37179,-2.22738 -20.98243,-2.27148 z m -210.55859,15.5 c -3.11131,-0.0281 -6.06712,2.12545 -12.21484,8.30859 -7.17258,7.21391 -7.26953,7.36575 -7.26953,11.27539 0,2.74904 0.51496,4.66007 1.68359,6.24219 0.92644,1.25424 8.35215,7.67172 16.50195,14.26172 l 14.81836,11.98242 4,-0.26953 3.99805,-0.27149 51.56055,51.91797 c 3.7976,-5.05326 6.67363,-9.00127 8.57617,-12.56836 l -49.77539,-49.76953 0.43945,-3.26953 c 0.53619,-3.9908 0.0483,-4.76277 -13.96289,-21.98437 -10.3464,-12.71713 -12.07499,-14.37741 -16.13477,-15.50977 -0.77551,-0.21631 -1.5027,-0.33922 -2.2207,-0.3457 z m 283.92578,34.16992 c -0.1749,-0.19814 -10.03001,9.30416 -21.90039,21.11719 -15.65539,15.57976 -22.69946,22.03631 -25.64844,23.50781 -14.57513,7.27276 -30.87363,2.77263 -39.9375,-10.48438 1.89797,13.53446 5.86248,20.83999 17.67579,37.55469 7.11432,10.06593 12.98717,18.8844 17.83203,26.83008 1.57061,-0.28891 3.18757,-0.65127 5.03125,-1.12695 31.357,-8.0905 52.33007,-35.1486 52.33007,-67.51172 10e-6,-5.19232 -0.38077,-11.59841 -0.84765,-14.23438 -0.78244,-4.41748 -3.79499,-14.81378 -4.53516,-15.65234 z M 171.12305,287.45508 c -4.15358,3.62847 -3.92247,3.43405 -8.36133,7.31054 -28.20923,24.63538 -52.59783,46.25569 -54.19727,48.04493 -6.65419,7.44384 -9.8787,19.14811 -8.0664,29.28906 2.42224,13.55408 11.24329,29.75003 24.69531,34.54883 3.10164,1.1064 5.95576,1.38938 12.19922,1.20898 7.52979,-0.2176 8.60634,-0.46088 14.13476,-3.20508 2.45892,-1.22057 4.59516,-2.56944 6.69336,-4.23828 -2.62413,-0.64678 -5.15592,-1.24672 -7.41797,-1.73828 -21.81814,-4.74135 -25.76577,-12.64709 -24.60156,-20.7793 -3.28583,-2.88107 -5.4414,-7.16108 -5.4414,-12.17968 0,-5.09567 1.44068,-8.54494 4.95312,-11.86914 0.9613,-0.90978 1.87383,-1.63277 2.79883,-2.22266 l 0.17187,-14.60938 13.03907,-4.4082 c 10.41908,-3.52139 14.2283,-6.15674 18.95898,-13.12109 3.25614,-4.7936 6.35698,-12.65325 6.89063,-17.46485 0.40887,-3.686 1.70226,-8.77236 3.55078,-14.5664 z m 203.90625,31.64844 c 0.0711,2.58962 0.71943,4.20606 2.04297,5.68164 1.70353,1.89907 3.14107,5.83551 3.19531,8.74804 0.16184,8.71855 4.90737,16.81797 13.02344,22.23242 5.86337,3.9115 7.65625,6.61664 7.65625,11.55665 0,5.80287 -1.86515,7.51288 -18.5918,17.0625 -10.22465,5.83748 -23.85615,14.5681 -30.29297,19.40039 -0.0731,0.0549 -0.14938,0.10362 -0.22266,0.1582 5.50371,5.36242 9.56104,9.25321 9.90625,9.40039 2.19776,0.937 2.4664,0.92568 8.67774,-0.39063 11.17257,-2.36769 25.49155,-11.99355 33.30859,-22.39257 7.85697,-10.45208 12.87403,-24.21469 10.95117,-30.04102 -0.57044,-1.72847 -19.25869,-20.96898 -39.65429,-41.41601 z"
         style="fill:#000000;fill-opacity:0.49019608;stroke-width:0.80770892" />
      <path
         sodipodi:nodetypes="csscccccscccccscccccccssccccsscccscsscsccscscccccccccccscccccccccccccsccccsccccccscsccsscscssccssccs"
         inkscape:connector-curvature="0"
         id="path1166"
         d="m 306.93382,404.70817 c -8.6495,-7.81443 -9.59213,-8.11235 -29.26195,-9.24927 -25.18784,-1.45586 -43.62785,1.75726 -52.38802,9.12852 -8.23833,6.93216 -14.48291,6.916 -34.80622,-0.0901 -8.93186,-3.07905 -24.98554,-7.49887 -35.67516,-9.8218 -23.91561,-5.19716 -26.38155,-6.96195 -24.15313,-17.28484 0.92099,-4.26596 1.75536,-14.6456 1.85422,-23.0659 l 0.17934,-15.30963 13.03921,-4.40692 c 10.41908,-3.52139 14.22877,-6.15819 18.95945,-13.12254 3.25614,-4.7936 6.35699,-12.65238 6.89064,-17.46398 1.82622,-16.46347 20.6306,-60.01808 33.02594,-76.49476 17.37686,-23.09812 16.75289,-20.66831 16.12891,-62.81395 -0.53518,-36.13372 -0.33419,-38.20953 4.44285,-45.89199 2.92961,-4.7113 8.86559,-9.916 14.32129,-12.55707 31.40224,-15.20158 61.75423,-1.87798 69.9193,30.6924 1.92595,7.68298 4.03299,22.41347 4.68234,32.73439 1.52177,24.19176 3.65222,29.99214 18.97956,51.67886 30.57071,43.25393 39.08264,64.20953 35.04287,86.27215 -1.70134,9.29183 -1.50494,12.39785 0.95685,15.14245 1.70353,1.89907 3.14154,5.83583 3.19578,8.74836 0.16184,8.71855 4.90783,16.81955 13.0239,22.234 5.86337,3.9115 7.65482,6.61605 7.65482,11.55606 0,5.80287 -1.86362,7.51337 -18.59027,17.06299 -10.22465,5.83748 -23.85678,14.56727 -30.2936,19.39956 -7.04549,5.28932 -14.98419,9.22604 -19.94757,9.89175 -7.19509,0.96505 -9.38153,0.0783 -17.18178,-6.96873 z m 35.77511,-12.20547 c 3.64435,-3.51402 14.40221,-10.58901 23.90642,-15.72225 9.50422,-5.13323 17.65901,-10.51041 18.12158,-11.94929 0.46278,-1.43887 -3.1118,-5.11165 -7.94352,-8.16174 -6.98031,-4.40653 -9.06614,-7.23839 -10.15531,-13.78702 -2.35353,-14.15317 -2.80647,-14.53225 -8.82206,-7.38316 -6.4189,7.6284 -18.57255,11.84843 -25.99532,9.02627 -5.2372,-1.99117 -7.76701,-6.33753 -7.76701,-13.34407 0,-2.3074 -1.34987,-4.19529 -2.99959,-4.19529 -2.26955,0 -3.33772,5.72394 -4.38818,23.51121 -0.76373,12.93117 -1.97254,27.64049 -2.6864,32.6874 -1.11389,7.87496 -0.50741,9.96667 4.27685,14.751 4.84615,4.84618 6.37559,5.27301 11.70049,3.26546 3.36922,-1.27016 9.1077,-5.1845 12.75205,-8.69852 z m -123.79432,3.08183 c 2.49306,-3.16947 4.53296,-7.35971 4.53296,-9.31167 0,-5.87607 -38.77798,-63.17899 -43.84219,-64.78628 -5.31659,-1.68743 -4.62154,-2.19394 -10.54592,7.68666 -3.6192,6.03632 -7.02516,8.36984 -16.1088,11.03664 l -11.51896,3.38181 -0.44048,13.02137 c -0.24211,7.16173 -0.73421,15.97004 -1.09355,19.57399 -0.60145,6.03484 0.0372,6.70429 8.0953,8.47139 18.44176,4.04472 31.0499,7.58535 42.64825,11.97666 16.41214,6.2138 22.74443,5.97852 28.27339,-1.05057 z m 63.91202,-22.74517 c 5.23283,-2.61926 13.20499,-8.30235 17.71586,-12.62907 8.00235,-7.67559 8.20159,-8.2528 8.20159,-23.74915 0,-13.27143 0.67187,-16.24189 4.08658,-18.06945 2.24767,-1.2029 4.76173,-1.51209 5.5867,-0.68707 3.30272,3.30281 5.56899,-5.83995 5.5598,-22.43128 0,-13.66795 -1.37371,-21.32548 -6.24283,-34.99344 -9.46266,-26.56218 -26.77523,-64.76708 -29.89118,-65.96276 -1.52265,-0.58426 -10.70099,3.07732 -20.39636,8.13687 -16.12913,8.41695 -18.178,8.97144 -24.09429,6.52085 -3.55643,-1.47309 -8.16616,-4.5568 -10.2439,-6.8527 -5.1998,-5.7457 -6.46,-5.26942 -7.06495,2.67005 -0.28695,3.76441 -4.43258,14.34446 -9.21268,23.51121 -7.72174,14.80794 -12.82575,26.50266 -23.02394,52.75384 -3.93041,10.11715 -3.94048,27.15141 -0.0219,34.73162 1.72977,3.34524 8.67706,10.34994 15.43802,15.56604 12.22889,9.43448 20.78435,18.5609 20.78435,22.17126 0,1.04068 -2.06636,3.95856 -4.59202,6.48419 l -4.59201,4.59204 7.32588,7.67067 7.32587,7.67065 18.91789,-1.17103 c 13.21768,-0.81819 21.78495,-2.60605 28.43217,-5.93334 z m -16.5589,-176.16242 c 7.70293,-4.30769 14.48291,-8.60499 15.06664,-9.5496 3.29551,-5.33225 -24.80138,-17.25036 -32.45094,-13.765 -8.88834,4.04984 -18.70815,13.72585 -17.39721,17.14242 1.30701,3.40597 15.61451,14.00435 18.90564,14.00435 1.02881,0 8.17316,-3.52448 15.87587,-7.83217 z m -31.88471,-21.77049 c 0,-0.64377 -1.54627,-3.53035 -3.43614,-6.41462 -2.66737,-4.07107 -2.89483,-6.25534 -1.01656,-9.76494 1.33085,-2.48646 3.17216,-4.52085 4.09227,-4.52085 3.38146,0 6.9217,5.39439 6.9217,10.54711 0,4.46147 0.51812,4.86816 3.28064,2.57543 7.56383,-6.27745 1.09813,-24.05799 -8.74836,-24.05799 -10.03394,0 -15.17644,14.7571 -9.49088,27.23572 2.15559,4.73087 8.39733,8.00151 8.39733,4.40014 z m 54.67725,-16.32623 c 0,-14.90712 -12.30479,-23.30368 -22.45288,-15.32129 -6.62864,5.21416 -9.45633,15.38541 -6.04796,21.75429 3.03021,5.66207 6.62994,5.82883 6.62994,0.30715 0,-7.10924 2.46573,-11.11433 6.84209,-11.11433 5.67397,0 9.67591,8.96508 6.58249,14.7454 -3.37271,6.30186 0.0372,8.27825 4.58676,2.65902 2.1661,-2.67509 3.85956,-8.39236 3.85956,-13.03024 z"
         style="fill:#000000;fill-opacity:0.49019608;stroke-width:2.18708992" />
    </g>
    <g
       transform="matrix(0.98031077,0,0,0.98031077,1.9697074,4.1511685)"
       id="g1162">
      <path
         style="fill:#ffffff;stroke-width:0.80770892"
         d="m 339.51562,98.00391 c -11.20102,-0.03916 -14.69967,0.23446 -18.98242,1.48437 -6.51594,1.90166 -12.54313,4.55201 -18.02539,7.86914 7.92061,6.30989 13.90775,15.65421 16.90235,27.59961 1.09136,4.35365 2.2331,10.97657 3.14257,17.77149 2.46452,-5.63148 8.69811,-11.96535 24.50782,-27.90625 11.77978,-11.87754 21.25521,-21.75846 21.05468,-21.95899 -0.20052,-0.20052 -3.62858,-1.36516 -7.61718,-2.58789 -6.66027,-2.04174 -8.37179,-2.22738 -20.98243,-2.27148 z m -210.55859,15.5 c -3.11131,-0.0281 -6.06712,2.12545 -12.21484,8.30859 -7.17258,7.21391 -7.26953,7.36575 -7.26953,11.27539 0,2.74904 0.51496,4.66007 1.68359,6.24219 0.92644,1.25424 8.35215,7.67172 16.50195,14.26172 l 14.81836,11.98242 4,-0.26953 3.99805,-0.27149 51.56055,51.91797 c 3.7976,-5.05326 6.67363,-9.00127 8.57617,-12.56836 l -49.77539,-49.76953 0.43945,-3.26953 c 0.53619,-3.9908 0.0483,-4.76277 -13.96289,-21.98437 -10.3464,-12.71713 -12.07499,-14.37741 -16.13477,-15.50977 -0.77551,-0.21631 -1.5027,-0.33922 -2.2207,-0.3457 z m 283.92578,34.16992 c -0.1749,-0.19814 -10.03001,9.30416 -21.90039,21.11719 -15.65539,15.57976 -22.69946,22.03631 -25.64844,23.50781 -14.57513,7.27276 -30.87363,2.77263 -39.9375,-10.48438 1.89797,13.53446 5.86248,20.83999 17.67579,37.55469 7.11432,10.06593 12.98717,18.8844 17.83203,26.83008 1.57061,-0.28891 3.18757,-0.65127 5.03125,-1.12695 31.357,-8.0905 52.33007,-35.1486 52.33007,-67.51172 10e-6,-5.19232 -0.38077,-11.59841 -0.84765,-14.23438 -0.78244,-4.41748 -3.79499,-14.81378 -4.53516,-15.65234 z M 171.12305,287.45508 c -4.15358,3.62847 -3.92247,3.43405 -8.36133,7.31054 -28.20923,24.63538 -52.59783,46.25569 -54.19727,48.04493 -6.65419,7.44384 -9.8787,19.14811 -8.0664,29.28906 2.42224,13.55408 11.24329,29.75003 24.69531,34.54883 3.10164,1.1064 5.95576,1.38938 12.19922,1.20898 7.52979,-0.2176 8.60634,-0.46088 14.13476,-3.20508 2.45892,-1.22057 4.59516,-2.56944 6.69336,-4.23828 -2.62413,-0.64678 -5.15592,-1.24672 -7.41797,-1.73828 -21.81814,-4.74135 -25.76577,-12.64709 -24.60156,-20.7793 -3.28583,-2.88107 -5.4414,-7.16108 -5.4414,-12.17968 0,-5.09567 1.44068,-8.54494 4.95312,-11.86914 0.9613,-0.90978 1.87383,-1.63277 2.79883,-2.22266 l 0.17187,-14.60938 13.03907,-4.4082 c 10.41908,-3.52139 14.2283,-6.15674 18.95898,-13.12109 3.25614,-4.7936 6.35698,-12.65325 6.89063,-17.46485 0.40887,-3.686 1.70226,-8.77236 3.55078,-14.5664 z m 203.90625,31.64844 c 0.0711,2.58962 0.71943,4.20606 2.04297,5.68164 1.70353,1.89907 3.14107,5.83551 3.19531,8.74804 0.16184,8.71855 4.90737,16.81797 13.02344,22.23242 5.86337,3.9115 7.65625,6.61664 7.65625,11.55665 0,5.80287 -1.86515,7.51288 -18.5918,17.0625 -10.22465,5.83748 -23.85615,14.5681 -30.29297,19.40039 -0.0731,0.0549 -0.14938,0.10362 -0.22266,0.1582 5.50371,5.36242 9.56104,9.25321 9.90625,9.40039 2.19776,0.937 2.4664,0.92568 8.67774,-0.39063 11.17257,-2.36769 25.49155,-11.99355 33.30859,-22.39257 7.85697,-10.45208 12.87403,-24.21469 10.95117,-30.04102 -0.57044,-1.72847 -19.25869,-20.96898 -39.65429,-41.41601 z"
         id="path852"
         inkscape:connector-curvature="0"
         sodipodi:nodetypes="sscccssssssscccccccccscscscccccccccsccccccccssccccccccccsscccsccc" />
      <path
         style="fill:#ffffff;stroke-width:2.18708992"
         d="m 306.93382,404.70817 c -8.6495,-7.81443 -9.59213,-8.11235 -29.26195,-9.24927 -25.18784,-1.45586 -43.62785,1.75726 -52.38802,9.12852 -8.23833,6.93216 -14.48291,6.916 -34.80622,-0.0901 -8.93186,-3.07905 -24.98554,-7.49887 -35.67516,-9.8218 -23.91561,-5.19716 -26.38155,-6.96195 -24.15313,-17.28484 0.92099,-4.26596 1.75536,-14.6456 1.85422,-23.0659 l 0.17934,-15.30963 13.03921,-4.40692 c 10.41908,-3.52139 14.22877,-6.15819 18.95945,-13.12254 3.25614,-4.7936 6.35699,-12.65238 6.89064,-17.46398 1.82622,-16.46347 20.6306,-60.01808 33.02594,-76.49476 17.37686,-23.09812 16.75289,-20.66831 16.12891,-62.81395 -0.53518,-36.13372 -0.33419,-38.20953 4.44285,-45.89199 2.92961,-4.7113 8.86559,-9.916 14.32129,-12.55707 31.40224,-15.20158 61.75423,-1.87798 69.9193,30.6924 1.92595,7.68298 4.03299,22.41347 4.68234,32.73439 1.52177,24.19176 3.65222,29.99214 18.97956,51.67886 30.57071,43.25393 39.08264,64.20953 35.04287,86.27215 -1.70134,9.29183 -1.50494,12.39785 0.95685,15.14245 1.70353,1.89907 3.14154,5.83583 3.19578,8.74836 0.16184,8.71855 4.90783,16.81955 13.0239,22.234 5.86337,3.9115 7.65482,6.61605 7.65482,11.55606 0,5.80287 -1.86362,7.51337 -18.59027,17.06299 -10.22465,5.83748 -23.85678,14.56727 -30.2936,19.39956 -7.04549,5.28932 -14.98419,9.22604 -19.94757,9.89175 -7.19509,0.96505 -9.38153,0.0783 -17.18178,-6.96873 z m 35.77511,-12.20547 c 3.64435,-3.51402 14.40221,-10.58901 23.90642,-15.72225 9.50422,-5.13323 17.65901,-10.51041 18.12158,-11.94929 0.46278,-1.43887 -3.1118,-5.11165 -7.94352,-8.16174 -6.98031,-4.40653 -9.06614,-7.23839 -10.15531,-13.78702 -2.35353,-14.15317 -2.80647,-14.53225 -8.82206,-7.38316 -6.4189,7.6284 -18.57255,11.84843 -25.99532,9.02627 -5.2372,-1.99117 -7.76701,-6.33753 -7.76701,-13.34407 0,-2.3074 -1.34987,-4.19529 -2.99959,-4.19529 -2.26955,0 -3.33772,5.72394 -4.38818,23.51121 -0.76373,12.93117 -1.97254,27.64049 -2.6864,32.6874 -1.11389,7.87496 -0.50741,9.96667 4.27685,14.751 4.84615,4.84618 6.37559,5.27301 11.70049,3.26546 3.36922,-1.27016 9.1077,-5.1845 12.75205,-8.69852 z m -123.79432,3.08183 c 2.49306,-3.16947 4.53296,-7.35971 4.53296,-9.31167 0,-5.87607 -38.77798,-63.17899 -43.84219,-64.78628 -5.31659,-1.68743 -4.62154,-2.19394 -10.54592,7.68666 -3.6192,6.03632 -7.02516,8.36984 -16.1088,11.03664 l -11.51896,3.38181 -0.44048,13.02137 c -0.24211,7.16173 -0.73421,15.97004 -1.09355,19.57399 -0.60145,6.03484 0.0372,6.70429 8.0953,8.47139 18.44176,4.04472 31.0499,7.58535 42.64825,11.97666 16.41214,6.2138 22.74443,5.97852 28.27339,-1.05057 z m 63.91202,-22.74517 c 5.23283,-2.61926 13.20499,-8.30235 17.71586,-12.62907 8.00235,-7.67559 8.20159,-8.2528 8.20159,-23.74915 0,-13.27143 0.67187,-16.24189 4.08658,-18.06945 2.24767,-1.2029 4.76173,-1.51209 5.5867,-0.68707 3.30272,3.30281 5.56899,-5.83995 5.5598,-22.43128 0,-13.66795 -1.37371,-21.32548 -6.24283,-34.99344 -9.46266,-26.56218 -26.77523,-64.76708 -29.89118,-65.96276 -1.52265,-0.58426 -10.70099,3.07732 -20.39636,8.13687 -16.12913,8.41695 -18.178,8.97144 -24.09429,6.52085 -3.55643,-1.47309 -8.16616,-4.5568 -10.2439,-6.8527 -5.1998,-5.7457 -6.46,-5.26942 -7.06495,2.67005 -0.28695,3.76441 -4.43258,14.34446 -9.21268,23.51121 -7.72174,14.80794 -12.82575,26.50266 -23.02394,52.75384 -3.93041,10.11715 -3.94048,27.15141 -0.0219,34.73162 1.72977,3.34524 8.67706,10.34994 15.43802,15.56604 12.22889,9.43448 20.78435,18.5609 20.78435,22.17126 0,1.04068 -2.06636,3.95856 -4.59202,6.48419 l -4.59201,4.59204 7.32588,7.67067 7.32587,7.67065 18.91789,-1.17103 c 13.21768,-0.81819 21.78495,-2.60605 28.43217,-5.93334 z m -16.5589,-176.16242 c 7.70293,-4.30769 14.48291,-8.60499 15.06664,-9.5496 3.29551,-5.33225 -24.80138,-17.25036 -32.45094,-13.765 -8.88834,4.04984 -18.70815,13.72585 -17.39721,17.14242 1.30701,3.40597 15.61451,14.00435 18.90564,14.00435 1.02881,0 8.17316,-3.52448 15.87587,-7.83217 z m -31.88471,-21.77049 c 0,-0.64377 -1.54627,-3.53035 -3.43614,-6.41462 -2.66737,-4.07107 -2.89483,-6.25534 -1.01656,-9.76494 1.33085,-2.48646 3.17216,-4.52085 4.09227,-4.52085 3.38146,0 6.9217,5.39439 6.9217,10.54711 0,4.46147 0.51812,4.86816 3.28064,2.57543 7.56383,-6.27745 1.09813,-24.05799 -8.74836,-24.05799 -10.03394,0 -15.17644,14.7571 -9.49088,27.23572 2.15559,4.73087 8.39733,8.00151 8.39733,4.40014 z m 54.67725,-16.32623 c 0,-14.90712 -12.30479,-23.30368 -22.45288,-15.32129 -6.62864,5.21416 -9.45633,15.38541 -6.04796,21.75429 3.03021,5.66207 6.62994,5.82883 6.62994,0.30715 0,-7.10924 2.46573,-11.11433 6.84209,-11.11433 5.67397,0 9.67591,8.96508 6.58249,14.7454 -3.37271,6.30186 0.0372,8.27825 4.58676,2.65902 2.1661,-2.67509 3.85956,-8.39236 3.85956,-13.03024 z"
         id="path1149"
         inkscape:connector-curvature="0"
         sodipodi:nodetypes="csscccccscccccscccccccssccccsscccscsscsccscscccccccccccscccccccccccccsccccsccccccscsccsscscssccssccs" />
    </g>
  </g>
</svg>
