<?xml version="1.0" encoding="UTF-8" standalone="no"?>
<!-- Created with Inkscape (http://www.inkscape.org/) -->

<svg
   xmlns:dc="http://purl.org/dc/elements/1.1/"
   xmlns:cc="http://creativecommons.org/ns#"
   xmlns:rdf="http://www.w3.org/1999/02/22-rdf-syntax-ns#"
   xmlns:svg="http://www.w3.org/2000/svg"
   xmlns="http://www.w3.org/2000/svg"
   xmlns:xlink="http://www.w3.org/1999/xlink"
   xmlns:sodipodi="http://sodipodi.sourceforge.net/DTD/sodipodi-0.dtd"
   xmlns:inkscape="http://www.inkscape.org/namespaces/inkscape"
   id="svg2"
   version="1.1"
   inkscape:version="0.92.2 2405546, 2018-03-11"
   width="512"
   height="512"
   sodipodi:docname="xchat-mini.svg"
   viewBox="0 0 512 512">
  <metadata
     id="metadata8">
    <rdf:RDF>
      <cc:Work
         rdf:about="">
        <dc:format>image/svg+xml</dc:format>
        <dc:type
           rdf:resource="http://purl.org/dc/dcmitype/StillImage" />
        <dc:title></dc:title>
      </cc:Work>
    </rdf:RDF>
  </metadata>
  <defs
     id="defs6">
    <linearGradient
       x1="50.630707"
       y1="61.373192"
       x2="50.630707"
       y2="26.422728"
       id="linearGradient3699"
       xlink:href="#linearGradient3697"
       gradientUnits="userSpaceOnUse"
       gradientTransform="matrix(5.2274314,0,0,5.2274314,0.626775,4.3662953)" />
    <linearGradient
       id="linearGradient3697">
      <stop
         id="stop3699"
         style="stop-color:#e6e6e6;stop-opacity:1"
         offset="0" />
      <stop
         id="stop3701"
         style="stop-color:#f5f5f5;stop-opacity:1"
         offset="1" />
    </linearGradient>
  </defs>
  <sodipodi:namedview
     pagecolor="#ffffff"
     bordercolor="#666666"
     borderopacity="1"
     objecttolerance="10"
     gridtolerance="10"
     guidetolerance="10"
     inkscape:pageopacity="0"
     inkscape:pageshadow="2"
     inkscape:window-width="1366"
     inkscape:window-height="706"
     id="namedview4"
     showgrid="false"
     inkscape:zoom="0.28726213"
     inkscape:cx="-54.573727"
     inkscape:cy="489.8833"
     inkscape:window-x="0"
     inkscape:window-y="0"
     inkscape:window-maximized="1"
     inkscape:current-layer="svg2"
     showguides="true"
     inkscape:guide-bbox="true"
     inkscape:document-units="px" />
  <path
     style="fill:#cccccc;fill-opacity:1;fill-rule:evenodd;stroke:none;stroke-width:1.02230215"
     d=""
     id="path3783"
     inkscape:connector-curvature="0" />
  <g
     style="font-style:normal;font-variant:normal;font-weight:normal;font-stretch:normal;font-size:48px;line-height:125%;font-family:'American Participants';-inkscape-font-specification:'American Participants';text-align:start;writing-mode:tb-rl;text-anchor:start;fill:#ff00ff;fill-opacity:1;stroke:none"
     id="g3709"
     transform="matrix(4.919725,0,0,4.9253437,24.621099,17.933462)" />
  <g
     id="g868">
    <path
       id="path850"
       d="m 432.91327,56.47393 c 102.19291,88.57458 105.82678,249.69974 8.1168,359.89884 C 343.32006,526.57182 181.27961,544.10062 79.08674,455.52602 -23.106205,366.95143 -26.740032,205.82627 70.96994,95.62719 168.67988,-14.5719 330.72033,-32.10066 432.91327,56.47393 Z"
       inkscape:connector-curvature="0"
       style="fill:#68b723;fill-opacity:1;stroke-width:11.10955906" />
    <path
       id="path852"
       d="M 511.63551,224.90351 C 510.08412,286.21512 486.47428,349.05808 440.66913,400.71795 342.95912,510.91712 180.91868,528.44582 78.72576,439.87126 30.827126,398.35564 4.4968186,340.9228 0.19382641,280.22881 0.79908043,346.58544 27.117406,410.48218 79.078691,455.51902 c 102.192869,88.5746 264.241029,71.0371 361.943329,-39.15325 49.70495,-56.05815 73.00502,-125.29101 70.61349,-191.46226 z"
       inkscape:connector-curvature="0"
       style="opacity:1;fill:#000000;fill-opacity:0.49019608;stroke-width:11.10955906" />
    <path
       inkscape:connector-curvature="0"
       style="display:inline;opacity:1;fill:#000000;fill-opacity:0.49019608;stroke:none;stroke-width:0.68018889"
       d="m 276,132.74059 c -86.15644,0 -156,57.1451 -156,127.63672 0,44.90171 28.36302,84.35019 71.20508,107.10157 -1.62919,11.85954 -9.04955,40.89023 -44.17188,50.81836 45.49011,4.94387 75.70224,-17.2364 91.74024,-33.97657 11.9293,2.38964 24.39706,3.69336 37.22656,3.69336 86.1564,0 156,-57.1451 156,-127.63672 0,-70.49162 -69.8436,-127.63672 -156,-127.63672 z m -16.78711,66.10157 h 19.41797 l -8.35938,33.52539 h 22.98829 l 8.44726,-33.52539 h 19.24414 l -8.44726,33.52539 H 336.625 v 18.54687 h -28.73633 l -6.00781,23.85938 h 24.73047 v 18.7207 h -29.25781 l -8.35938,33.35156 H 269.75 l 8.35938,-33.35156 h -22.98829 l -8.35937,33.35156 h -19.41797 l 8.35937,-33.35156 H 211.4082 v -18.7207 h 28.56055 l 6.0957,-23.85938 h -24.64257 v -18.54687 h 29.43164 z m 6.26953,52.07226 -6.0957,23.85938 H 282.375 l 6.0957,-23.85938 z"
       id="path57" />
    <path
       id="path3625"
       d="M 256 112.74023 C 169.84356 112.74023 100 169.88533 100 240.37695 C 100 285.27866 128.36302 324.72714 171.20508 347.47852 C 169.57589 359.33806 162.15553 388.36875 127.0332 398.29688 C 172.52331 403.24075 202.73544 381.06048 218.77344 364.32031 C 230.70274 366.70995 243.1705 368.01367 256 368.01367 C 342.1564 368.01367 412 310.86857 412 240.37695 C 412 169.88533 342.1564 112.74023 256 112.74023 z M 239.21289 178.8418 L 258.63086 178.8418 L 250.27148 212.36719 L 273.25977 212.36719 L 281.70703 178.8418 L 300.95117 178.8418 L 292.50391 212.36719 L 316.625 212.36719 L 316.625 230.91406 L 287.88867 230.91406 L 281.88086 254.77344 L 306.61133 254.77344 L 306.61133 273.49414 L 277.35352 273.49414 L 268.99414 306.8457 L 249.75 306.8457 L 258.10938 273.49414 L 235.12109 273.49414 L 226.76172 306.8457 L 207.34375 306.8457 L 215.70312 273.49414 L 191.4082 273.49414 L 191.4082 254.77344 L 219.96875 254.77344 L 226.06445 230.91406 L 201.42188 230.91406 L 201.42188 212.36719 L 230.85352 212.36719 L 239.21289 178.8418 z M 245.48242 230.91406 L 239.38672 254.77344 L 262.375 254.77344 L 268.4707 230.91406 L 245.48242 230.91406 z "
       style="display:inline;opacity:1;fill:#ffffff;fill-opacity:1;stroke:none;stroke-width:0.68018889" />
  </g>
</svg>
