<?xml version="1.0" encoding="UTF-8" standalone="no"?>
<!-- Created with Inkscape (http://www.inkscape.org/) -->

<svg
   xmlns:dc="http://purl.org/dc/elements/1.1/"
   xmlns:cc="http://creativecommons.org/ns#"
   xmlns:rdf="http://www.w3.org/1999/02/22-rdf-syntax-ns#"
   xmlns:svg="http://www.w3.org/2000/svg"
   xmlns="http://www.w3.org/2000/svg"
   xmlns:sodipodi="http://sodipodi.sourceforge.net/DTD/sodipodi-0.dtd"
   xmlns:inkscape="http://www.inkscape.org/namespaces/inkscape"
   id="svg2"
   version="1.1"
   inkscape:version="0.92.2 2405546, 2018-03-11"
   width="512"
   height="512"
   sodipodi:docname="xfce4-fsguard-plugin.svg">
  <metadata
     id="metadata8">
    <rdf:RDF>
      <cc:Work
         rdf:about="">
        <dc:format>image/svg+xml</dc:format>
        <dc:type
           rdf:resource="http://purl.org/dc/dcmitype/StillImage" />
        <dc:title></dc:title>
      </cc:Work>
    </rdf:RDF>
  </metadata>
  <defs
     id="defs6" />
  <sodipodi:namedview
     pagecolor="#ffffff"
     bordercolor="#666666"
     borderopacity="1"
     objecttolerance="10"
     gridtolerance="10"
     guidetolerance="10"
     inkscape:pageopacity="0"
     inkscape:pageshadow="2"
     inkscape:window-width="1366"
     inkscape:window-height="706"
     id="namedview4"
     showgrid="false"
     inkscape:zoom="0.546"
     inkscape:cx="538.38388"
     inkscape:cy="162.22796"
     inkscape:window-x="0"
     inkscape:window-y="0"
     inkscape:window-maximized="1"
     inkscape:current-layer="svg2" />
  <g
     id="g894">
    <path
       id="path27"
       d="M 432.91327,56.473967 C 535.10618,145.04856 538.74005,306.17367 441.03007,416.37276 343.3201,526.57184 181.27964,544.10061 79.086729,455.52602 -23.106186,366.95143 -26.740042,205.82631 70.969928,95.627227 168.6799,-14.571854 330.72036,-32.100623 432.91327,56.473967 Z"
       inkscape:connector-curvature="0"
       style="fill:#3689e6;fill-opacity:1;stroke-width:11.10955811" />
    <path
       id="path51"
       d="M 511.63551,224.90351 C 510.08412,286.21516 486.47428,349.05812 440.66913,400.71799 342.95915,510.91711 180.91869,528.44584 78.725776,439.87129 30.827124,398.35563 4.4968216,340.92284 0.19382768,280.2288 0.79907934,346.58548 27.117411,410.48217 79.078682,455.51906 181.27159,544.09361 343.31975,526.55619 441.02202,416.36576 490.72697,360.30766 514.02704,291.0748 511.63551,224.90351 Z"
       inkscape:connector-curvature="0"
       style="opacity:1;fill:#000000;fill-opacity:0.49019608;stroke-width:11.10955811" />
    <g
       style="fill:#000000;fill-opacity:0.49019608"
       transform="translate(19.999854,20.000129)"
       id="g76">
      <path
         inkscape:connector-curvature="0"
         id="path72"
         d="m 202.02344,100.00195 c -65.6629,-0.04875 -62.72449,1.3012 -70.73047,10.39649 -2.96021,3.36298 -6.12522,8.58924 -7.03125,11.61328 -2.33638,7.79798 -2.35656,260.22183 -0.0215,268.01562 2.16986,7.24233 10.20612,16.38771 17.20704,19.58399 5.39803,2.46446 11.23721,2.57783 117.14453,2.26172 l 111.46484,-0.33203 5.83789,-3.86524 c 3.21111,-2.12523 7.57789,-6.48998 9.70313,-9.70117 l 3.86328,-5.83984 0.32812,-134.57618 0.33008,-134.57617 -3.83203,-6.95117 c -2.19402,-3.98135 -6.42397,-8.76827 -9.90234,-11.20508 l -6.07422,-4.25586 -110.89063,-0.38867 c -23.43706,-0.0824 -42.24351,-0.16844 -57.39648,-0.17969 z m 55.76562,32.85157 c 16.09864,0.0571 19.3039,0.48298 27.65235,3.67382 34.87956,13.33129 56.95163,42.64441 59.41211,78.90625 1.43332,21.1238 -7.29439,46.54105 -21.34961,62.17383 l -6.45703,7.18164 -5.77344,-4.5625 c -2.3329,-1.84344 -6.23301,-5.09976 -9.83008,-8.18945 -0.16516,1.29622 -0.78917,2.6441 -1.83789,3.86914 -0.93917,1.09701 -2.67074,2.33587 -6.24219,4.46094 -5.74211,3.41665 -8.11985,4.2002 -10.72656,3.53711 -1.99673,-0.50792 -2.7939,-1.18767 -5.16406,-4.39649 -2.8623,-3.87501 -3.77539,-4.96168 -4.27149,-5.08789 -0.24693,-0.0628 -2.45947,0.3157 -4.91601,0.8418 -2.45657,0.52607 -6.23136,1.07285 -8.38868,1.21484 -2.41312,0.15883 -4.11448,0.4382 -4.42187,0.72656 -0.27478,0.2578 -1.23242,2.44662 -2.12891,4.86329 -2.38408,6.42679 -3.62295,7.59235 -8.08593,7.61523 -2.05228,0.0105 -7.33578,-1.06419 -10.6543,-2.10547 -0.67907,5.51528 -0.53024,11.40062 0.64648,15.05469 1.34401,4.17357 -0.42875,4.03433 -12.10547,-0.94727 -25.98667,-11.08661 -45.98802,-34.33808 -52.19921,-60.68164 -2.70586,-11.4763 -2.66428,-31.38176 0.0879,-42.17578 7.35365,-28.8412 30.26484,-53.50026 58.21289,-62.65429 8.84056,-2.89562 12.95915,-3.37366 28.54101,-3.31836 z m 11.49219,149.16601 c 1.38325,0.0273 3.82029,0.81426 5.41602,1.75 5.68235,3.33209 68.33295,49.42082 74.23828,54.61328 6.97614,6.13405 9.62475,12.78649 8.625,21.65625 -0.80581,7.14906 -4.08585,12.25657 -10.8086,16.83203 -5.97893,4.06924 -17.03515,4.29328 -23.30078,0.47266 -5.93279,-3.61767 -10.77536,-9.62496 -39.15234,-48.57031 -14.78467,-20.2909 -24.40764,-34.76322 -24.40821,-36.71094 -0.001,-3.84607 5.85823,-10.11277 9.39063,-10.04297 z m -97.60937,65.77344 c 2.8284,-0.0351 5.70793,0.76111 8.48632,2.40234 4.09545,2.41924 8.29297,9.36306 8.29297,13.71875 0,4.47372 -4.57648,12.02925 -8.52344,14.07032 -8.67088,4.48386 -18.90749,1.34507 -22.87304,-7.01172 -3.28926,-6.93161 -1.77357,-13.63545 4.28515,-18.95508 3.14408,-2.76054 6.69551,-4.17947 10.33204,-4.22461 z"
         style="fill:#000000;fill-opacity:0.49019608;stroke-width:1.40076447" />
      <path
         inkscape:connector-curvature="0"
         id="path74"
         d="m 233.20052,287.0927 c -1.3658,-0.53301 -2.74564,-1.33374 -3.64753,-2.11661 -2.10019,-1.82314 -2.4366,-3.68332 -1.60313,-8.86501 0.77179,-4.79838 0.83039,-5.94003 0.32717,-6.3721 -0.21804,-0.18716 -1.86654,-1.25224 -3.66338,-2.36676 -1.79682,-1.11452 -4.78136,-3.33754 -6.63226,-4.94004 -1.85093,-1.6025 -3.58428,-2.9696 -3.85185,-3.03795 -0.26762,-0.0683 -1.21599,0.24209 -2.10748,0.6899 -2.93148,1.47257 -6.69198,3.08216 -7.8042,3.34039 -1.73124,0.40201 -4.12193,-0.35455 -5.69759,-1.80306 -4.0742,-3.74545 -8.6563,-12.54445 -8.36767,-16.06843 0.18587,-2.26904 1.7846,-3.96464 7.69262,-8.15858 1.09404,-0.77662 2.04233,-1.62214 2.10736,-1.87891 0.065,-0.25676 -0.30161,-2.38563 -0.81472,-4.73079 -0.51313,-2.34517 -1.03656,-6.02835 -1.16318,-8.18483 -0.12667,-2.15645 -0.28281,-4.15156 -0.34708,-4.43353 -0.14429,-0.6332 -1.13015,-1.11969 -5.45618,-2.69251 -1.86422,-0.67773 -3.85613,-1.5018 -4.42651,-1.83128 -1.64944,-0.95278 -2.68017,-2.63967 -2.91284,-4.7672 -0.27859,-2.54769 0.6382,-7.853 2.04342,-11.82481 1.27073,-3.59169 1.91978,-4.79128 3.22125,-5.95349 1.66869,-1.49015 3.21377,-1.65768 8.37885,-0.9085 2.54434,0.36908 4.92836,0.68699 5.29778,0.70651 0.55081,0.0291 1.0762,-0.60501 2.91956,-3.52397 1.23635,-1.95772 3.57222,-5.09682 5.19086,-6.97582 1.61863,-1.879 3.01633,-3.68995 3.10603,-4.02439 0.0891,-0.33456 -0.24749,-1.43449 -0.74926,-2.44457 -3.24429,-6.53101 -3.72442,-8.25258 -2.95017,-10.57876 0.8269,-2.48438 2.73131,-4.22909 8.12993,-7.44822 5.58643,-3.33113 8.06312,-4.05134 10.74909,-3.12584 1.8622,0.64165 3.06403,1.86472 6.01747,6.12383 2.6914,3.88123 2.24814,3.71671 7.11442,2.64076 2.31171,-0.51113 6.27249,-1.08982 8.80176,-1.28598 5.334,-0.41375 4.65676,0.17013 6.80749,-5.86887 1.67545,-4.70448 2.16527,-5.52388 3.9284,-6.57195 2.36652,-1.40667 4.16584,-1.34841 10.85415,0.35157 6.25641,1.59039 7.97918,2.35288 9.53712,4.22222 1.55738,1.86865 1.70602,3.2747 0.91611,8.66574 -0.67547,4.60989 -0.62415,6.19401 0.2075,6.40556 1.06466,0.27081 6.03936,3.76151 9.52621,6.68444 l 3.90561,3.27398 1.22589,-0.46354 c 0.67425,-0.25493 2.76091,-1.17589 4.63705,-2.04656 1.87616,-0.87069 3.90347,-1.69532 4.50513,-1.83247 1.63436,-0.37262 3.79053,0.29134 5.37147,1.65406 3.00801,2.5928 7.40195,10.10753 8.17616,13.98331 0.47491,2.37742 0.14759,4.06658 -1.05455,5.43519 -0.88859,1.01195 -4.16098,3.61826 -6.55485,5.22064 -0.78691,0.52674 -1.59268,1.21802 -1.79056,1.5362 -0.25289,0.4066 -0.0627,1.97638 0.64003,5.28115 0.54994,2.58641 1.1129,6.43362 1.25105,8.54931 0.13812,2.11569 0.38059,3.98066 0.53874,4.14439 0.15816,0.16374 2.43983,1.10281 5.07037,2.08685 3.43891,1.2864 5.07945,2.04974 5.83847,2.71661 2.27641,1.9999 2.48355,5.38601 0.74883,12.24119 -1.27297,5.02545 -2.23443,7.2891 -3.84098,9.03071 -1.79892,1.95014 -3.17428,2.18837 -8.39581,1.4543 -6.89925,-0.96988 -6.243,-1.17253 -8.63232,2.66568 -1.11869,1.79705 -3.46381,4.97535 -5.21141,7.06283 -2.58293,3.08532 -3.16065,3.94164 -3.08778,4.5767 0.0494,0.42969 0.2111,0.90698 0.35954,1.06065 0.47946,0.49628 3.51709,7.31227 3.79759,8.5211 0.40994,1.7669 -0.23915,3.82344 -1.77184,5.61381 -0.93917,1.09701 -2.6716,2.33457 -6.24305,4.45964 -5.74211,3.41665 -8.11952,4.20076 -10.72623,3.53767 -1.99673,-0.50792 -2.79423,-1.18666 -5.16439,-4.39548 -2.8623,-3.87501 -3.77501,-4.96241 -4.27111,-5.08862 -0.24693,-0.0628 -2.45886,0.31626 -4.9154,0.84236 -2.45657,0.52607 -6.23152,1.07269 -8.38884,1.21468 -2.41312,0.15883 -4.11458,0.43854 -4.42197,0.7269 -0.27478,0.2578 -1.23311,2.44597 -2.1296,4.86264 -2.38408,6.42679 -3.62166,7.59258 -8.08464,7.61546 -2.37448,0.0122 -9.08646,-1.42899 -12.06015,-2.5895 z m 18.62516,-37.14271 c 11.05766,1.41368 21.60272,-2.67612 28.77514,-11.16009 3.65086,-4.31848 4.68427,-6.43317 6.29793,-12.8878 1.25304,-5.012 1.35152,-5.67913 1.22719,-8.31219 -0.28687,-6.07665 -1.6224,-10.62554 -4.58051,-15.60203 -2.95521,-4.97164 -6.30216,-8.30915 -11.51574,-11.48331 -2.2841,-1.39061 -2.82623,-1.58701 -8.04402,-2.91431 -5.22748,-1.32976 -5.7874,-1.41467 -8.52679,-1.28992 -6.12658,0.27858 -11.17019,1.8143 -16.12629,4.91012 -3.48066,2.17427 -5.50702,3.94175 -7.99407,6.97286 -8.42758,10.27116 -9.49206,24.90061 -2.64947,36.41211 3.62087,6.09145 9.50077,11.07688 15.99531,13.56205 2.88771,1.10502 4.05447,1.39788 7.14135,1.79243 z"
         style="fill:#000000;fill-opacity:0.49019608;stroke-width:0.31205827" />
    </g>
    <g
       id="g70">
      <path
         inkscape:connector-curvature="0"
         style="fill:#ffffff;stroke-width:1.40076447"
         d="m 202.02344,100.00195 c -65.6629,-0.04875 -62.72449,1.3012 -70.73047,10.39649 -2.96021,3.36298 -6.12522,8.58924 -7.03125,11.61328 -2.33638,7.79798 -2.35656,260.22183 -0.0215,268.01562 2.16986,7.24233 10.20612,16.38771 17.20704,19.58399 5.39803,2.46446 11.23721,2.57783 117.14453,2.26172 l 111.46484,-0.33203 5.83789,-3.86524 c 3.21111,-2.12523 7.57789,-6.48998 9.70313,-9.70117 l 3.86328,-5.83984 0.32812,-134.57618 0.33008,-134.57617 -3.83203,-6.95117 c -2.19402,-3.98135 -6.42397,-8.76827 -9.90234,-11.20508 l -6.07422,-4.25586 -110.89063,-0.38867 c -23.43706,-0.0824 -42.24351,-0.16844 -57.39648,-0.17969 z m 55.76562,32.85157 c 16.09864,0.0571 19.3039,0.48298 27.65235,3.67382 34.87956,13.33129 56.95163,42.64441 59.41211,78.90625 1.43332,21.1238 -7.29439,46.54105 -21.34961,62.17383 l -6.45703,7.18164 -5.77344,-4.5625 c -2.3329,-1.84344 -6.23301,-5.09976 -9.83008,-8.18945 -0.16516,1.29622 -0.78917,2.6441 -1.83789,3.86914 -0.93917,1.09701 -2.67074,2.33587 -6.24219,4.46094 -5.74211,3.41665 -8.11985,4.2002 -10.72656,3.53711 -1.99673,-0.50792 -2.7939,-1.18767 -5.16406,-4.39649 -2.8623,-3.87501 -3.77539,-4.96168 -4.27149,-5.08789 -0.24693,-0.0628 -2.45947,0.3157 -4.91601,0.8418 -2.45657,0.52607 -6.23136,1.07285 -8.38868,1.21484 -2.41312,0.15883 -4.11448,0.4382 -4.42187,0.72656 -0.27478,0.2578 -1.23242,2.44662 -2.12891,4.86329 -2.38408,6.42679 -3.62295,7.59235 -8.08593,7.61523 -2.05228,0.0105 -7.33578,-1.06419 -10.6543,-2.10547 -0.67907,5.51528 -0.53024,11.40062 0.64648,15.05469 1.34401,4.17357 -0.42875,4.03433 -12.10547,-0.94727 -25.98667,-11.08661 -45.98802,-34.33808 -52.19921,-60.68164 -2.70586,-11.4763 -2.66428,-31.38176 0.0879,-42.17578 7.35365,-28.8412 30.26484,-53.50026 58.21289,-62.65429 8.84056,-2.89562 12.95915,-3.37366 28.54101,-3.31836 z m 11.49219,149.16601 c 1.38325,0.0273 3.82029,0.81426 5.41602,1.75 5.68235,3.33209 68.33295,49.42082 74.23828,54.61328 6.97614,6.13405 9.62475,12.78649 8.625,21.65625 -0.80581,7.14906 -4.08585,12.25657 -10.8086,16.83203 -5.97893,4.06924 -17.03515,4.29328 -23.30078,0.47266 -5.93279,-3.61767 -10.77536,-9.62496 -39.15234,-48.57031 -14.78467,-20.2909 -24.40764,-34.76322 -24.40821,-36.71094 -0.001,-3.84607 5.85823,-10.11277 9.39063,-10.04297 z m -97.60937,65.77344 c 2.8284,-0.0351 5.70793,0.76111 8.48632,2.40234 4.09545,2.41924 8.29297,9.36306 8.29297,13.71875 0,4.47372 -4.57648,12.02925 -8.52344,14.07032 -8.67088,4.48386 -18.90749,1.34507 -22.87304,-7.01172 -3.28926,-6.93161 -1.77357,-13.63545 4.28515,-18.95508 3.14408,-2.76054 6.69551,-4.17947 10.33204,-4.22461 z"
         id="path867" />
      <path
         style="fill:#ffffff;stroke-width:0.31205827"
         d="m 233.20052,287.0927 c -1.3658,-0.53301 -2.74564,-1.33374 -3.64753,-2.11661 -2.10019,-1.82314 -2.4366,-3.68332 -1.60313,-8.86501 0.77179,-4.79838 0.83039,-5.94003 0.32717,-6.3721 -0.21804,-0.18716 -1.86654,-1.25224 -3.66338,-2.36676 -1.79682,-1.11452 -4.78136,-3.33754 -6.63226,-4.94004 -1.85093,-1.6025 -3.58428,-2.9696 -3.85185,-3.03795 -0.26762,-0.0683 -1.21599,0.24209 -2.10748,0.6899 -2.93148,1.47257 -6.69198,3.08216 -7.8042,3.34039 -1.73124,0.40201 -4.12193,-0.35455 -5.69759,-1.80306 -4.0742,-3.74545 -8.6563,-12.54445 -8.36767,-16.06843 0.18587,-2.26904 1.7846,-3.96464 7.69262,-8.15858 1.09404,-0.77662 2.04233,-1.62214 2.10736,-1.87891 0.065,-0.25676 -0.30161,-2.38563 -0.81472,-4.73079 -0.51313,-2.34517 -1.03656,-6.02835 -1.16318,-8.18483 -0.12667,-2.15645 -0.28281,-4.15156 -0.34708,-4.43353 -0.14429,-0.6332 -1.13015,-1.11969 -5.45618,-2.69251 -1.86422,-0.67773 -3.85613,-1.5018 -4.42651,-1.83128 -1.64944,-0.95278 -2.68017,-2.63967 -2.91284,-4.7672 -0.27859,-2.54769 0.6382,-7.853 2.04342,-11.82481 1.27073,-3.59169 1.91978,-4.79128 3.22125,-5.95349 1.66869,-1.49015 3.21377,-1.65768 8.37885,-0.9085 2.54434,0.36908 4.92836,0.68699 5.29778,0.70651 0.55081,0.0291 1.0762,-0.60501 2.91956,-3.52397 1.23635,-1.95772 3.57222,-5.09682 5.19086,-6.97582 1.61863,-1.879 3.01633,-3.68995 3.10603,-4.02439 0.0891,-0.33456 -0.24749,-1.43449 -0.74926,-2.44457 -3.24429,-6.53101 -3.72442,-8.25258 -2.95017,-10.57876 0.8269,-2.48438 2.73131,-4.22909 8.12993,-7.44822 5.58643,-3.33113 8.06312,-4.05134 10.74909,-3.12584 1.8622,0.64165 3.06403,1.86472 6.01747,6.12383 2.6914,3.88123 2.24814,3.71671 7.11442,2.64076 2.31171,-0.51113 6.27249,-1.08982 8.80176,-1.28598 5.334,-0.41375 4.65676,0.17013 6.80749,-5.86887 1.67545,-4.70448 2.16527,-5.52388 3.9284,-6.57195 2.36652,-1.40667 4.16584,-1.34841 10.85415,0.35157 6.25641,1.59039 7.97918,2.35288 9.53712,4.22222 1.55738,1.86865 1.70602,3.2747 0.91611,8.66574 -0.67547,4.60989 -0.62415,6.19401 0.2075,6.40556 1.06466,0.27081 6.03936,3.76151 9.52621,6.68444 l 3.90561,3.27398 1.22589,-0.46354 c 0.67425,-0.25493 2.76091,-1.17589 4.63705,-2.04656 1.87616,-0.87069 3.90347,-1.69532 4.50513,-1.83247 1.63436,-0.37262 3.79053,0.29134 5.37147,1.65406 3.00801,2.5928 7.40195,10.10753 8.17616,13.98331 0.47491,2.37742 0.14759,4.06658 -1.05455,5.43519 -0.88859,1.01195 -4.16098,3.61826 -6.55485,5.22064 -0.78691,0.52674 -1.59268,1.21802 -1.79056,1.5362 -0.25289,0.4066 -0.0627,1.97638 0.64003,5.28115 0.54994,2.58641 1.1129,6.43362 1.25105,8.54931 0.13812,2.11569 0.38059,3.98066 0.53874,4.14439 0.15816,0.16374 2.43983,1.10281 5.07037,2.08685 3.43891,1.2864 5.07945,2.04974 5.83847,2.71661 2.27641,1.9999 2.48355,5.38601 0.74883,12.24119 -1.27297,5.02545 -2.23443,7.2891 -3.84098,9.03071 -1.79892,1.95014 -3.17428,2.18837 -8.39581,1.4543 -6.89925,-0.96988 -6.243,-1.17253 -8.63232,2.66568 -1.11869,1.79705 -3.46381,4.97535 -5.21141,7.06283 -2.58293,3.08532 -3.16065,3.94164 -3.08778,4.5767 0.0494,0.42969 0.2111,0.90698 0.35954,1.06065 0.47946,0.49628 3.51709,7.31227 3.79759,8.5211 0.40994,1.7669 -0.23915,3.82344 -1.77184,5.61381 -0.93917,1.09701 -2.6716,2.33457 -6.24305,4.45964 -5.74211,3.41665 -8.11952,4.20076 -10.72623,3.53767 -1.99673,-0.50792 -2.79423,-1.18666 -5.16439,-4.39548 -2.8623,-3.87501 -3.77501,-4.96241 -4.27111,-5.08862 -0.24693,-0.0628 -2.45886,0.31626 -4.9154,0.84236 -2.45657,0.52607 -6.23152,1.07269 -8.38884,1.21468 -2.41312,0.15883 -4.11458,0.43854 -4.42197,0.7269 -0.27478,0.2578 -1.23311,2.44597 -2.1296,4.86264 -2.38408,6.42679 -3.62166,7.59258 -8.08464,7.61546 -2.37448,0.0122 -9.08646,-1.42899 -12.06015,-2.5895 z m 18.62516,-37.14271 c 11.05766,1.41368 21.60272,-2.67612 28.77514,-11.16009 3.65086,-4.31848 4.68427,-6.43317 6.29793,-12.8878 1.25304,-5.012 1.35152,-5.67913 1.22719,-8.31219 -0.28687,-6.07665 -1.6224,-10.62554 -4.58051,-15.60203 -2.95521,-4.97164 -6.30216,-8.30915 -11.51574,-11.48331 -2.2841,-1.39061 -2.82623,-1.58701 -8.04402,-2.91431 -5.22748,-1.32976 -5.7874,-1.41467 -8.52679,-1.28992 -6.12658,0.27858 -11.17019,1.8143 -16.12629,4.91012 -3.48066,2.17427 -5.50702,3.94175 -7.99407,6.97286 -8.42758,10.27116 -9.49206,24.90061 -2.64947,36.41211 3.62087,6.09145 9.50077,11.07688 15.99531,13.56205 2.88771,1.10502 4.05447,1.39788 7.14135,1.79243 z"
         id="path844"
         inkscape:connector-curvature="0" />
    </g>
  </g>
</svg>
