<?xml version="1.0" encoding="UTF-8" standalone="no"?>
<!-- Created with Inkscape (http://www.inkscape.org/) -->

<svg
   xmlns:dc="http://purl.org/dc/elements/1.1/"
   xmlns:cc="http://creativecommons.org/ns#"
   xmlns:rdf="http://www.w3.org/1999/02/22-rdf-syntax-ns#"
   xmlns:svg="http://www.w3.org/2000/svg"
   xmlns="http://www.w3.org/2000/svg"
   xmlns:sodipodi="http://sodipodi.sourceforge.net/DTD/sodipodi-0.dtd"
   xmlns:inkscape="http://www.inkscape.org/namespaces/inkscape"
   id="svg2"
   version="1.1"
   inkscape:version="0.92.2 2405546, 2018-03-11"
   width="512"
   height="512"
   sodipodi:docname="xfce4-fsguard-plugin-warning.svg">
  <metadata
     id="metadata8">
    <rdf:RDF>
      <cc:Work
         rdf:about="">
        <dc:format>image/svg+xml</dc:format>
        <dc:type
           rdf:resource="http://purl.org/dc/dcmitype/StillImage" />
        <dc:title></dc:title>
      </cc:Work>
    </rdf:RDF>
  </metadata>
  <defs
     id="defs6" />
  <sodipodi:namedview
     pagecolor="#ffffff"
     bordercolor="#666666"
     borderopacity="1"
     objecttolerance="10"
     gridtolerance="10"
     guidetolerance="10"
     inkscape:pageopacity="0"
     inkscape:pageshadow="2"
     inkscape:window-width="1366"
     inkscape:window-height="706"
     id="namedview4"
     showgrid="false"
     inkscape:zoom="0.546"
     inkscape:cx="109.26584"
     inkscape:cy="210.8698"
     inkscape:window-x="0"
     inkscape:window-y="0"
     inkscape:window-maximized="1"
     inkscape:current-layer="svg2" />
  <g
     id="g894">
    <path
       id="path27"
       d="M 432.91327,56.473967 C 535.10618,145.04856 538.74005,306.17367 441.03007,416.37276 343.3201,526.57184 181.27964,544.10061 79.086729,455.52602 -23.106186,366.95143 -26.740042,205.82631 70.969928,95.627227 168.6799,-14.571854 330.72036,-32.100623 432.91327,56.473967 Z"
       inkscape:connector-curvature="0"
       style="fill:#c6262e;fill-opacity:1;stroke-width:11.10955811" />
    <path
       id="path51"
       d="M 511.63551,224.90351 C 510.08412,286.21516 486.47428,349.05812 440.66913,400.71799 342.95915,510.91711 180.91869,528.44584 78.725776,439.87129 30.827124,398.35563 4.4968216,340.92284 0.19382768,280.2288 0.79907934,346.58548 27.117411,410.48217 79.078682,455.51906 181.27159,544.09361 343.31975,526.55619 441.02202,416.36576 490.72697,360.30766 514.02704,291.0748 511.63551,224.90351 Z"
       inkscape:connector-curvature="0"
       style="opacity:1;fill:#000000;fill-opacity:0.49019608;stroke-width:11.10955811" />
    <path
       style="fill:#000000;fill-opacity:0.49019608;stroke-width:1.40076447"
       d="m 161.44745,429.61202 c -7.00092,-3.19628 -15.03661,-12.34286 -17.20647,-19.58519 -2.33507,-7.79379 -2.31468,-260.2169 0.0217,-268.01488 0.90603,-3.02404 4.06932,-8.24981 7.02953,-11.61279 9.85352,-11.19419 3.13019,-10.65799 128.12783,-10.21844 l 110.89054,0.38995 6.07334,4.2547 c 3.47837,2.43681 7.71008,7.22476 9.9041,11.20611 l 3.83095,6.95142 -0.32904,134.57615 -0.3289,134.57616 -3.86415,5.83852 c -2.12524,3.21119 -6.49128,7.57736 -9.70239,9.70259 l -5.83829,3.86406 -111.46373,0.3327 c -105.90732,0.31611 -111.74694,0.2034 -117.14497,-2.26106 z m 38.47989,-31.62828 c 3.94696,-2.04106 8.5239,-9.59563 8.5239,-14.06935 0,-4.35569 -4.1977,-11.29976 -8.29315,-13.719 -6.35061,-3.75139 -13.2295,-3.08526 -18.81897,1.82236 -6.05872,5.31963 -7.57428,12.024 -4.28502,18.95561 3.96555,8.35679 14.20236,11.49425 22.87324,7.01038 z m 166.82453,-1.11228 c 6.72275,-4.57546 10.00317,-9.68418 10.80898,-16.83324 0.99975,-8.86976 -1.64952,-15.52072 -8.62566,-21.65477 -5.90533,-5.19246 -68.55479,-51.28109 -74.23714,-54.61318 -1.59573,-0.93574 -4.03307,-1.72367 -5.41632,-1.75096 -3.5324,-0.0698 -9.39168,6.19617 -9.39058,10.04224 5.7e-4,1.94772 9.62338,16.42149 24.40805,36.71239 28.37698,38.94535 33.21964,44.95292 39.15243,48.57059 6.26563,3.82062 17.32131,3.59617 23.30024,-0.47307 z M 255.25108,322.63094 c -1.96582,-6.10446 -1.08113,-18.44481 1.78248,-24.86357 5.98146,-13.40733 17.74076,-20.94994 32.66202,-20.94994 11.15779,0 17.53479,2.73052 28.05865,12.01423 4.26115,3.75901 10.34506,8.88709 13.51981,11.39575 l 5.77227,4.56118 6.45716,-7.1819 c 14.05522,-15.63278 22.78311,-41.04954 21.34979,-62.17334 -2.46048,-36.26184 -24.53135,-65.57524 -59.41091,-78.90653 -8.34845,-3.19084 -11.55463,-3.61681 -27.65327,-3.67394 -15.58186,-0.0553 -19.70101,0.42375 -28.54157,3.31937 -27.94805,9.15403 -50.85884,33.81292 -58.21249,62.65412 -2.75217,10.79402 -2.79356,30.69964 -0.0877,42.17594 6.21119,26.34356 26.21272,49.59544 52.19939,60.68205 11.67672,4.9816 13.44839,5.12015 12.10438,0.94658 z"
       id="path138"
       inkscape:connector-curvature="0"
       sodipodi:nodetypes="cccsscccccccccscccsssscccccccsscccssccsscssccscc" />
    <g
       aria-label="!"
       transform="matrix(3.9074602,0,0,3.9074602,-637.66293,-378.20775)"
       style="font-style:normal;font-weight:normal;font-size:40px;line-height:1.25;font-family:sans-serif;letter-spacing:0px;word-spacing:0px;fill:#000000;fill-opacity:0.49019608;stroke:none"
       id="g76">
      <path
         inkscape:connector-curvature="0"
         d="m 233.66797,139.49219 q 0.3125,-0.82032 0.85937,-1.21094 0.54688,-0.42969 1.13282,-0.42969 0.66406,0 1.21093,0.50781 0.54688,0.46875 0.70313,1.44532 -0.0781,2.38281 -0.35156,4.72656 -0.27344,2.34375 -0.58594,4.6875 -0.3125,2.34375 -0.58594,4.6875 -0.27344,2.34375 -0.35156,4.72656 -0.15625,1.01563 -0.74219,1.48438 -0.58594,0.46875 -1.25,0.46875 -0.74219,0 -1.32812,-0.54688 -0.58594,-0.58594 -0.58594,-1.71875 0.0781,-2.38281 0.35156,-4.72656 0.27344,-2.34375 0.58594,-4.6875 0.3125,-2.34375 0.58594,-4.6875 0.27343,-2.34375 0.35156,-4.72656 z m 1.71875,24.72656 q 0.0391,0.19531 0.0391,0.35156 0,0.15625 0,0.23438 0,1.21093 -0.97656,2.03125 -0.97656,0.85937 -2.1875,0.85937 -1.01563,0 -1.75781,-0.66406 -0.74219,-0.66406 -0.74219,-1.48438 0,-0.58593 0.3125,-1.13281 0.3125,-0.58594 0.82031,-1.05469 0.50781,-0.46875 1.13281,-0.74218 0.625,-0.27344 1.21094,-0.27344 0.82031,0 1.40625,0.50781 0.58594,0.46875 0.74219,1.36719 z"
         style="font-style:normal;font-variant:normal;font-weight:normal;font-stretch:normal;font-family:'Comic Jens Free Pro';-inkscape-font-specification:'Comic Jens Free Pro';fill:#000000;fill-opacity:0.49019608"
         id="path74" />
    </g>
    <path
       sodipodi:nodetypes="cccsscccccccccscccsssscccccccsscccssccsscssccscc"
       inkscape:connector-curvature="0"
       id="path867"
       d="m 141.44745,409.61202 c -7.00092,-3.19628 -15.03661,-12.34286 -17.20647,-19.58519 -2.33507,-7.79379 -2.31468,-260.2169 0.0217,-268.01488 0.90603,-3.02404 4.06932,-8.24981 7.02953,-11.61279 9.85352,-11.194195 3.13019,-10.657996 128.12783,-10.21844 l 110.89054,0.38995 6.07334,4.2547 c 3.47837,2.43681 7.71008,7.22476 9.9041,11.20611 l 3.83095,6.95142 -0.32904,134.57615 -0.3289,134.57616 -3.86415,5.83852 c -2.12524,3.21119 -6.49128,7.57736 -9.70239,9.70259 l -5.83829,3.86406 -111.46373,0.3327 c -105.90732,0.31611 -111.74694,0.2034 -117.14497,-2.26106 z m 38.47989,-31.62828 c 3.94696,-2.04106 8.5239,-9.59563 8.5239,-14.06935 0,-4.35569 -4.1977,-11.29976 -8.29315,-13.719 -6.35061,-3.75139 -13.2295,-3.08526 -18.81897,1.82236 -6.05872,5.31963 -7.57428,12.024 -4.28502,18.95561 3.96555,8.35679 14.20236,11.49425 22.87324,7.01038 z m 166.82453,-1.11228 c 6.72275,-4.57546 10.00317,-9.68418 10.80898,-16.83324 0.99975,-8.86976 -1.64952,-15.52072 -8.62566,-21.65477 -5.90533,-5.19246 -68.55479,-51.28109 -74.23714,-54.61318 -1.59573,-0.93574 -4.03307,-1.72367 -5.41632,-1.75096 -3.5324,-0.0698 -9.39168,6.19617 -9.39058,10.04224 5.7e-4,1.94772 9.62338,16.42149 24.40805,36.71239 28.37698,38.94535 33.21964,44.95292 39.15243,48.57059 6.26563,3.82062 17.32131,3.59617 23.30024,-0.47307 z M 235.25108,302.63094 c -1.96582,-6.10446 -1.08113,-18.44481 1.78248,-24.86357 5.98146,-13.40733 17.74076,-20.94994 32.66202,-20.94994 11.15779,0 17.53479,2.73052 28.05865,12.01423 4.26115,3.75901 10.34506,8.88709 13.51981,11.39575 l 5.77227,4.56118 6.45716,-7.1819 c 14.05522,-15.63278 22.78311,-41.04954 21.34979,-62.17334 -2.46048,-36.26184 -24.53135,-65.57524 -59.41091,-78.90653 -8.34845,-3.19084 -11.55463,-3.61681 -27.65327,-3.67394 -15.58186,-0.0553 -19.70101,0.42375 -28.54157,3.31937 -27.94805,9.15403 -50.85884,33.81292 -58.21249,62.65412 -2.75217,10.79402 -2.79356,30.69964 -0.0877,42.17594 6.21119,26.34356 26.21272,49.59544 52.19939,60.68205 11.67672,4.9816 13.44839,5.12015 12.10438,0.94658 z"
       style="fill:#ffffff;stroke-width:1.40076447" />
    <g
       id="flowRoot63"
       style="font-style:normal;font-weight:normal;font-size:40px;line-height:1.25;font-family:sans-serif;letter-spacing:0px;word-spacing:0px;fill:#ffffff;fill-opacity:1;stroke:none"
       transform="matrix(3.9074602,0,0,3.9074602,-657.6625,-398.2078)"
       aria-label="!">
      <path
         inkscape:connector-curvature="0"
         id="path71"
         style="font-style:normal;font-variant:normal;font-weight:normal;font-stretch:normal;font-family:'Comic Jens Free Pro';-inkscape-font-specification:'Comic Jens Free Pro';fill:#ffffff"
         d="m 233.66797,139.49219 q 0.3125,-0.82032 0.85937,-1.21094 0.54688,-0.42969 1.13282,-0.42969 0.66406,0 1.21093,0.50781 0.54688,0.46875 0.70313,1.44532 -0.0781,2.38281 -0.35156,4.72656 -0.27344,2.34375 -0.58594,4.6875 -0.3125,2.34375 -0.58594,4.6875 -0.27344,2.34375 -0.35156,4.72656 -0.15625,1.01563 -0.74219,1.48438 -0.58594,0.46875 -1.25,0.46875 -0.74219,0 -1.32812,-0.54688 -0.58594,-0.58594 -0.58594,-1.71875 0.0781,-2.38281 0.35156,-4.72656 0.27344,-2.34375 0.58594,-4.6875 0.3125,-2.34375 0.58594,-4.6875 0.27343,-2.34375 0.35156,-4.72656 z m 1.71875,24.72656 q 0.0391,0.19531 0.0391,0.35156 0,0.15625 0,0.23438 0,1.21093 -0.97656,2.03125 -0.97656,0.85937 -2.1875,0.85937 -1.01563,0 -1.75781,-0.66406 -0.74219,-0.66406 -0.74219,-1.48438 0,-0.58593 0.3125,-1.13281 0.3125,-0.58594 0.82031,-1.05469 0.50781,-0.46875 1.13281,-0.74218 0.625,-0.27344 1.21094,-0.27344 0.82031,0 1.40625,0.50781 0.58594,0.46875 0.74219,1.36719 z" />
    </g>
  </g>
</svg>
