<?xml version="1.0" encoding="UTF-8" standalone="no"?>
<!-- Created with Inkscape (http://www.inkscape.org/) -->

<svg
   xmlns:osb="http://www.openswatchbook.org/uri/2009/osb"
   xmlns:dc="http://purl.org/dc/elements/1.1/"
   xmlns:cc="http://creativecommons.org/ns#"
   xmlns:rdf="http://www.w3.org/1999/02/22-rdf-syntax-ns#"
   xmlns:svg="http://www.w3.org/2000/svg"
   xmlns="http://www.w3.org/2000/svg"
   xmlns:sodipodi="http://sodipodi.sourceforge.net/DTD/sodipodi-0.dtd"
   xmlns:inkscape="http://www.inkscape.org/namespaces/inkscape"
   width="512"
   height="512"
   id="svg2985"
   version="1.1"
   inkscape:version="0.92.2 2405546, 2018-03-11"
   sodipodi:docname="xmlcopyeditor.svg"
   viewBox="0 0 512 512">
  <defs
     id="defs2987">
    <linearGradient
       id="linearGradient5207"
       osb:paint="solid">
      <stop
         style="stop-color:#000015;stop-opacity:1;"
         offset="0"
         id="stop5209" />
    </linearGradient>
  </defs>
  <sodipodi:namedview
     id="base"
     pagecolor="#ffffff"
     bordercolor="#666666"
     borderopacity="1.0"
     inkscape:pageopacity="0.0"
     inkscape:pageshadow="2"
     inkscape:zoom="0.4609375"
     inkscape:cx="588.1192"
     inkscape:cy="210.33286"
     inkscape:current-layer="layer1"
     showgrid="true"
     inkscape:document-units="px"
     inkscape:grid-bbox="true"
     inkscape:window-width="1366"
     inkscape:window-height="706"
     inkscape:window-x="0"
     inkscape:window-y="0"
     inkscape:window-maximized="1"
     inkscape:snap-text-baseline="true" />
  <metadata
     id="metadata2990">
    <rdf:RDF>
      <cc:Work
         rdf:about="">
        <dc:format>image/svg+xml</dc:format>
        <dc:type
           rdf:resource="http://purl.org/dc/dcmitype/StillImage" />
        <dc:title></dc:title>
      </cc:Work>
    </rdf:RDF>
  </metadata>
  <g
     id="layer1"
     inkscape:label="Layer 1"
     inkscape:groupmode="layer"
     transform="translate(0,448)">
    <rect
       style="fill:#ffffff;fill-opacity:1;stroke:none;stroke-width:10;stroke-linecap:round;stroke-miterlimit:4;stroke-dasharray:none;stroke-opacity:1"
       id="rect3351"
       width="489.36584"
       height="486.2977"
       x="-711.80487"
       y="-433.03616"
       ry="0" />
    <g
       id="g871">
      <path
         id="path943"
         d="m 432.91326,-391.52599 c 102.19291,88.57459 105.82678,249.69971 8.1168,359.89879 C 343.32009,78.57181 181.27965,96.10061 79.086743,7.52605 -23.106206,-81.04853 -26.740033,-242.17365 70.969943,-352.37273 168.67991,-462.57181 330.72036,-480.10058 432.91326,-391.52599 Z"
         inkscape:connector-curvature="0"
         style="fill:#3689e6;fill-opacity:1;stroke-width:11.10955811" />
      <path
         id="path57"
         transform="translate(0,-448)"
         d="M 276.14062 21.371094 C 263.65783 22.437474 251.17902 24.411147 238.81055 27.273438 L 238.81055 92.865234 C 238.81055 163.77704 236.85636 174.41124 222.41016 182.14258 C 195.60165 196.49008 178.50639 191.55831 110.80469 149.94727 C 98.719013 142.51912 88.267637 136.07988 79.105469 130.33984 C 75.581137 134.85959 72.213774 139.44851 69.005859 144.10352 C 82.063676 151.97879 97.141294 161.00078 111.63086 169.58398 C 141.94168 187.53928 168.55586 203.72534 170.77344 205.55273 C 172.99101 207.38012 155.82307 244.81583 132.62109 288.74414 C 102.77063 345.26013 84.236921 370.89299 69.238281 376.4043 C 59.102665 380.12867 45.824792 385.2008 37.087891 388.66406 C 39.151399 393.83186 41.391504 398.93027 43.828125 403.94336 L 54.685547 399.79688 C 74.660099 392.16857 94.964112 385.92578 99.806641 385.92578 C 104.64916 385.92578 144.58361 400.50443 188.54883 418.32227 L 268.48438 450.71875 L 268.48438 492.50977 L 268.48438 509.66406 C 275.56978 508.71235 282.64157 507.46045 289.68164 505.92969 L 289.68164 497.97852 C 289.68164 460.18378 292.77679 454.35829 335.04297 412.61719 L 380.4043 367.81836 L 451.9082 403.33789 C 455.78544 398.42108 459.47992 393.42244 462.98047 388.34375 L 387.18359 351.53516 L 377.92383 296.25391 L 368.66211 240.97461 L 454.23047 159.58398 L 487.77148 127.67969 C 484.887 121.80387 481.74193 116.04494 478.34375 110.41406 C 470.29639 118.52211 461.88842 126.90846 453.10156 135.53711 C 403.0871 184.65098 358.2567 224.52105 353.47852 224.13867 C 348.70035 223.75654 324.51934 214.18751 299.74219 202.87305 L 254.69336 182.30078 L 256.33203 112.42383 C 257.63629 56.839258 256.38333 32.106964 276.14062 21.371094 z M 233.91211 201.6582 C 251.23733 201.78444 270.87475 207.00192 300.20117 218.6875 L 353.26953 239.83398 L 361.01953 296.33984 L 368.76758 352.84766 L 327.42383 394.82227 C 304.68461 417.90861 282.11981 436.4727 277.28125 436.07422 C 256.38154 434.35417 116.01296 370.59734 117.39648 363.45312 C 118.23576 359.11949 134.24889 322.55432 152.98047 282.19531 C 184.70267 213.84663 189.09728 208.42806 217.08398 203.17773 C 222.61865 202.13941 228.13704 201.61612 233.91211 201.6582 z "
         style="fill:#000000;fill-opacity:0.49019608;stroke-width:1.09267282" />
      <path
         id="path3349"
         transform="translate(0,-448)"
         d="M 256.14062 0.9453125 C 243.65783 2.0116861 231.17902 3.9853734 218.81055 6.8476562 L 218.81055 72.439453 C 218.81055 143.35126 216.85636 153.98546 202.41016 161.7168 C 175.60165 176.0643 158.50639 171.13252 90.804688 129.52148 C 78.719016 122.09333 68.267637 115.6541 59.105469 109.91406 C 55.581137 114.43381 52.213774 119.02272 49.005859 123.67773 C 62.063676 131.553 77.141296 140.575 91.630859 149.1582 C 121.94168 167.1135 148.55586 183.29956 150.77344 185.12695 C 152.99101 186.95434 135.82307 224.39005 112.62109 268.31836 C 82.770631 324.83435 64.236921 350.46721 49.238281 355.97852 C 39.102665 359.70289 25.824792 364.77502 17.087891 368.23828 C 19.151399 373.40608 21.391504 378.50449 23.828125 383.51758 L 34.685547 379.37109 C 54.660099 371.74278 74.964112 365.5 79.806641 365.5 C 84.64916 365.5 124.58361 380.07864 168.54883 397.89648 L 248.48438 430.29297 L 248.48438 472.08398 L 248.48438 511.57422 C 255.55134 511.1722 262.62285 510.47315 269.68164 509.49219 L 269.68164 477.55273 C 269.68164 439.75799 272.77679 433.93251 315.04297 392.19141 L 360.4043 347.39258 L 442.2207 388.03516 L 457.7207 395.73438 C 461.46481 390.65143 465.00595 385.48165 468.36133 380.24219 L 443.49219 368.16602 L 367.18359 331.10938 L 357.92383 275.82812 L 348.66211 220.54883 L 434.23047 139.1582 L 473.12695 102.16016 C 469.58143 96.822262 465.7885 91.620159 461.75977 86.558594 C 452.73185 95.68693 443.11362 105.27954 433.10156 115.11133 C 383.0871 164.2252 338.2567 204.09527 333.47852 203.71289 C 328.70035 203.33076 304.51934 193.76173 279.74219 182.44727 L 234.69336 161.875 L 236.33203 91.998047 C 237.63629 36.413479 236.38335 11.681184 256.14062 0.9453125 z M 213.91211 181.23242 C 231.23733 181.35866 250.87475 186.57614 280.20117 198.26172 L 333.26953 219.4082 L 341.01953 275.91406 L 348.76758 332.42188 L 307.42383 374.39648 C 284.68461 397.48282 262.11981 416.04692 257.28125 415.64844 C 236.38154 413.92839 96.012964 350.17155 97.396484 343.02734 C 98.235764 338.69371 114.24889 302.12854 132.98047 261.76953 C 164.70267 193.42085 169.09728 188.00228 197.08398 182.75195 C 202.61865 181.71363 208.13704 181.19034 213.91211 181.23242 z "
         style="fill:#ffffff;fill-opacity:1;stroke-width:1.09267282" />
      <path
         id="path947"
         d="m 511.6355,-223.09644 c -1.55139,61.31164 -25.16123,124.1546 -70.96638,175.81447 C 342.95915,62.91711 180.9187,80.44581 78.725753,-8.12867 30.827124,-49.64432 4.496819,-107.07712 0.19382685,-167.77115 0.79907985,-101.41448 27.117404,-37.51778 79.078693,7.51915 181.2716,96.09361 343.31975,78.55621 441.02201,-31.63419 490.72696,-87.6923 514.02703,-156.92516 511.6355,-223.09644 Z"
         inkscape:connector-curvature="0"
         style="opacity:1;fill:#000000;fill-opacity:0.49019608;stroke-width:11.10955811" />
    </g>
  </g>
</svg>
