<?xml version="1.0" encoding="UTF-8" standalone="no"?>
<!-- Created with Inkscape (http://www.inkscape.org/) -->

<svg
   xmlns:osb="http://www.openswatchbook.org/uri/2009/osb"
   xmlns:dc="http://purl.org/dc/elements/1.1/"
   xmlns:cc="http://creativecommons.org/ns#"
   xmlns:rdf="http://www.w3.org/1999/02/22-rdf-syntax-ns#"
   xmlns:svg="http://www.w3.org/2000/svg"
   xmlns="http://www.w3.org/2000/svg"
   xmlns:sodipodi="http://sodipodi.sourceforge.net/DTD/sodipodi-0.dtd"
   xmlns:inkscape="http://www.inkscape.org/namespaces/inkscape"
   width="512"
   height="512"
   id="svg2985"
   version="1.1"
   inkscape:version="0.92.2 2405546, 2018-03-11"
   sodipodi:docname="xmoto.svg"
   viewBox="0 0 512 512">
  <defs
     id="defs2987">
    <linearGradient
       id="linearGradient5207"
       osb:paint="solid">
      <stop
         style="stop-color:#000015;stop-opacity:1;"
         offset="0"
         id="stop5209" />
    </linearGradient>
  </defs>
  <sodipodi:namedview
     id="base"
     pagecolor="#ffffff"
     bordercolor="#666666"
     borderopacity="1.0"
     inkscape:pageopacity="0.0"
     inkscape:pageshadow="2"
     inkscape:zoom="0.4609375"
     inkscape:cx="633.78056"
     inkscape:cy="223.17514"
     inkscape:current-layer="layer1"
     showgrid="true"
     inkscape:document-units="px"
     inkscape:grid-bbox="true"
     inkscape:window-width="1366"
     inkscape:window-height="706"
     inkscape:window-x="0"
     inkscape:window-y="0"
     inkscape:window-maximized="1"
     inkscape:snap-text-baseline="true" />
  <metadata
     id="metadata2990">
    <rdf:RDF>
      <cc:Work
         rdf:about="">
        <dc:format>image/svg+xml</dc:format>
        <dc:type
           rdf:resource="http://purl.org/dc/dcmitype/StillImage" />
        <dc:title></dc:title>
      </cc:Work>
    </rdf:RDF>
  </metadata>
  <g
     id="layer1"
     inkscape:label="Layer 1"
     inkscape:groupmode="layer"
     transform="translate(0,448)">
    <g
       id="g847">
      <g
         style="fill:#8a715e;fill-opacity:1"
         id="g29"
         transform="matrix(8.0447856,6.9727289,-7.6918815,8.6750446,247.5303,-567.54657)">
        <path
           id="path27"
           d="M 24,1 C 36.703,1 47,11.297 47,24 47,36.703 36.703,47 24,47 11.297,47 1,36.703 1,24 1,11.297 11.297,1 24,1 Z"
           inkscape:connector-curvature="0"
           style="fill:#8a715e;fill-opacity:1" />
      </g>
      <path
         style="opacity:1;fill:#000000;fill-opacity:0.49019608;stroke-width:11.10955811"
         inkscape:connector-curvature="0"
         d="m 511.63551,-223.09647 c -1.5514,61.31165 -25.16124,124.154597 -70.96639,175.814487 C 342.95915,62.917109 180.91869,80.445854 78.725777,-8.128721 30.827124,-49.644349 4.4968216,-107.07717 0.19382846,-167.77121 0.79907918,-101.41453 27.117411,-37.517804 79.078681,7.5190525 181.27159,96.093627 343.31974,78.556207 441.02202,-31.634209 490.72696,-87.692347 514.02705,-156.92518 511.63551,-223.09647 Z"
         id="path51" />
      <path
         style="fill:#000000;fill-opacity:0.49019608;stroke-width:0.64527631"
         d="m 309.28274,-109.80618 c -0.86726,-0.0419 -5.826,-1.93716 -11.01945,-4.21164 -5.1998,-2.27727 -11.25987,-4.1884 -13.48702,-4.25332 -2.22443,-0.0649 -4.58451,-0.35322 -5.24463,-0.64083 -1.62738,-0.70903 -2.27382,6.12285 -0.88187,9.31997 1.42172,3.26549 0.0157,6.36223 -4.43649,9.77119 -4.67744,3.58143 -6.81165,4.35022 -10.50119,3.78279 -4.53103,-0.69687 -6.43833,2.29308 -3.07729,4.82407 0.43158,0.32501 1.02577,1.87969 1.32041,3.45487 0.42789,2.28745 0.0588,3.20579 -1.83345,4.5621 -2.61976,1.87775 -11.87267,3.02037 -13.3917,1.65372 -0.55994,-0.50377 -2.04029,0.0772 -3.52263,1.38235 -2.11188,1.85952 -2.48587,2.947512 -2.14913,6.252169 0.32876,3.226228 1.01753,4.474842 3.55727,6.448686 2.14013,1.663288 3.12396,3.088996 3.06967,4.44843 -0.044,1.100348 0.53474,2.553617 1.28596,3.229486 0.75124,0.675876 1.07136,1.556228 0.71138,1.95634 -0.35997,0.400108 -0.97747,0.436901 -1.37221,0.08176 -0.39474,-0.355145 -2.18902,0.05122 -3.98728,0.903036 -2.08209,0.986252 -4.58817,1.155859 -6.90016,0.466999 -2.19009,-0.652537 -4.43736,-0.538933 -5.66392,0.28632 -1.11832,0.752427 -2.34626,1.086506 -2.72875,0.74239 -0.38248,-0.344116 -1.36741,0.507532 -2.1887,1.892555 -1.1581,1.953004 -2.26323,2.558888 -4.92366,2.699372 -1.88672,0.09962 -4.40378,0.836053 -5.59347,1.636495 -1.88474,1.268099 -1.93395,1.661486 -0.38248,3.057324 1.94372,1.748738 2.52932,5.368027 1.12169,6.932608 -0.96079,1.067915 -3.14677,1.301261 -7.1935,0.767866 -4.18637,-0.551803 -13.6972,2.911722 -9.88862,3.601101 0.62816,0.113701 1.62111,1.022715 2.20657,2.020029 0.82914,1.412447 0.55722,2.277818 -1.23005,3.914509 -1.88141,1.722907 -2.68238,1.825671 -4.44898,0.57081 -2.33176,-1.656312 -2.17744,-5.628699 0.25103,-6.461845 0.71615,-0.245693 -0.0881,-0.40756 -1.7872,-0.359701 l -3.0893,0.08701 -0.13344,4.025663 c -0.0734,2.214114 -0.68691,5.071522 -1.36338,6.349799 -0.67646,1.27827 -1.53995,3.51799 -1.91886,4.977157 -0.80383,3.095522 -3.3985,4.422105 -6.18263,3.161012 -2.12042,-0.960459 -5.61759,-9.32013 -5.62664,-13.44995 -0.007,-3.339343 -0.48383,-3.853508 -3.64319,-3.931061 -2.02102,-0.04962 -2.60174,0.395686 -3.4911,2.67702 -0.80648,2.068763 -1.55199,2.807601 -3.05506,3.027744 -2.80876,0.411388 -5.5019,-2.345664 -4.85593,-4.971172 0.65402,-2.658208 3.61919,-4.592068 5.05722,-3.298286 1.35264,1.216944 2.26414,0.160822 1.91555,-2.2194 -0.22624,-1.544693 -0.80806,-1.80325 -3.25995,-1.448705 -1.6415,0.23736 -3.31528,0.777268 -3.71951,1.199794 -0.40423,0.422527 -3.17596,0.765574 -6.15941,0.762324 -5.00353,-0.0054 -5.47125,-0.195133 -6.02767,-2.444553 -0.43618,-1.763404 0.0384,-3.081875 1.71414,-4.761678 l 2.31733,-2.323047 -3.25928,0.687546 c -3.68529,0.777405 -5.88785,-0.665947 -6.06246,-3.972763 -0.10941,-2.071999 -0.34254,-2.2437 -3.02546,-2.228294 -1.5988,0.0092 -3.92939,-0.252474 -5.17907,-0.581452 -1.2497,-0.328983 -3.31339,0.109657 -4.58599,0.974743 -3.50611,2.383374 -7.21358,3.088082 -8.78909,1.670614 -2.1032,-1.892215 -0.99661,-4.793158 2.8769,-7.54179 5.23122,-3.712072 11.93589,-12.039344 10.63544,-13.209334 -1.80008,-1.619515 -3.04295,-8.48386 -1.9255,-10.6346 0.58007,-1.11647 1.91032,-2.15526 2.95611,-2.30844 2.66883,-0.39088 2.3564,-0.97119 -2.08883,-3.87983 -2.1454,-1.40379 -4.08229,-3.20128 -4.3042,-3.99441 -0.22191,-0.79313 -1.23375,-2.19811 -2.24852,-3.12217 -2.05187,-1.86844 -2.51266,-4.44947 -1.0789,-6.04309 0.5177,-0.57543 3.52882,-1.28873 6.69138,-1.58511 3.16255,-0.29638 6.04557,-0.86729 6.40669,-1.26868 0.39757,-0.44189 -0.73538,-1.67483 -2.87171,-3.12519 -2.68509,-1.82292 -3.55765,-2.95102 -3.65107,-4.72035 -0.17149,-3.24768 1.79235,-5.05943 5.23693,-4.83131 2.31268,0.15315 3.30613,-0.37117 4.71398,-2.48795 2.15086,-3.23391 5.50405,-3.84878 9.16151,-1.67995 2.92808,1.73631 4.49227,0.60512 3.57513,-2.58546 -0.40423,-1.40628 0.0714,-3.00549 1.29995,-4.37106 1.47411,-1.63847 1.57766,-2.29141 0.43302,-2.73041 -1.65285,-0.63394 -2.50589,-5.20722 -1.23481,-6.62002 0.4401,-0.48916 1.65787,-0.85513 2.70616,-0.81326 1.0483,0.0419 2.44406,-0.52193 3.10169,-1.25288 0.65762,-0.73095 3.06203,-1.36438 5.34312,-1.40762 l 4.14744,-0.0786 -0.0571,-3.8696 c -0.0461,-3.11752 0.44755,-4.27547 2.53967,-5.9579 1.42826,-1.14856 3.87402,-2.42547 5.43505,-2.83759 2.3931,-0.63179 3.1745,-0.33111 4.98262,1.91731 1.80949,2.25014 2.26167,2.4236 2.89526,1.11065 0.41297,-0.85577 1.86771,-3.21667 3.23276,-5.24644 1.42102,-2.11301 2.51416,-5.23231 2.55736,-7.2975 0.0713,-3.41094 -0.12571,-3.70908 -3.62502,-5.4849 -3.06855,-1.5572 -3.82687,-2.35665 -4.44063,-4.68142 -0.95961,-3.63484 1.06689,-5.11248 5.25101,-3.82878 2.3831,0.73115 3.78159,0.52914 4.91702,-0.71021 1.01461,-1.10758 3.79411,-1.78556 7.70938,-1.88059 5.44092,-0.13208 6.37376,-0.47654 8.37756,-3.09352 1.45206,-1.89641 2.12768,-4.01087 1.89761,-5.93888 -0.30527,-2.55834 0.0111,-3.18335 2.17391,-4.29519 2.29603,-1.1803 2.45664,-1.69607 1.72885,-5.55201 -1.08031,-5.72361 0.88746,-7.19964 7.42208,-5.56739 5.6176,1.4032 5.77203,1.3605 6.08119,-1.68191 0.17845,-1.75612 -0.25339,-2.29186 -2.57032,-3.1887 -5.52062,-2.13694 -6.09549,-8.05602 -0.91522,-9.42363 1.51363,-0.39961 3.07186,-0.43882 3.46275,-0.0871 0.39089,0.35167 1.75657,-0.52306 3.03486,-1.94388 2.03752,-2.2647 2.75618,-2.43197 5.82744,-1.35639 2.24202,0.78518 3.9462,0.73462 4.73349,-0.14046 0.67661,-0.75204 1.90611,-1.10811 2.73224,-0.79126 1.34389,0.51543 1.54731,0.28186 1.93179,-2.21799 0.36031,-2.34276 -0.0568,-3.12805 -2.5826,-4.86164 -2.70461,-1.85636 -2.93857,-2.42497 -2.2904,-5.56637 0.43301,-2.09856 1.50047,-4.02262 2.66728,-4.80767 1.20919,-0.81357 1.84141,-2.01846 1.67068,-3.18407 -0.41759,-2.85115 1.90834,-4.73353 4.74497,-3.84013 1.91514,0.60318 2.59954,1.24657 2.80288,2.63492 0.21711,1.48232 0.65561,1.6972 2.27174,1.1132 1.62376,-0.58676 1.94923,-1.44337 1.72009,-4.5271 l -0.28263,-3.80342 -9.95409,-5.32516 c -10.60563,-5.67372 -12.15838,-7.37086 -9.88615,-10.80544 1.47633,-2.23153 4.78325,-1.36788 15.8694,4.14454 12.30068,6.11631 13.98902,6.71567 17.16756,6.09449 2.6255,-0.51311 2.9157,-0.80986 3.68919,-3.77232 0.46174,-1.76847 0.53208,-3.492 0.15632,-3.83006 -0.37576,-0.33807 -0.43462,-1.62499 -0.13081,-2.85983 0.68874,-2.79934 4.73172,-3.53136 7.20652,-1.30481 2.31716,2.08471 5.77643,-0.73175 6.19139,-5.04089 0.25057,-2.60199 0.74813,-3.42587 2.4377,-4.03641 1.88127,-0.67982 2.05611,-2.52473 1.53627,-16.21151 -0.32263,-8.4944 -0.32551,-15.80428 -0.006,-16.24416 2.34699,-3.23522 6.42671,-2.65925 7.78479,1.09902 0.7093,1.96287 1.34645,2.44352 3.60502,2.7196 1.50889,0.18443 3.57259,1.08131 4.586,1.99306 2.30842,2.07685 14.35268,4.19159 16.54456,2.90491 0.9555,-0.56089 2.0543,-3.01527 2.65125,-5.92203 1.0153,-4.9438 1.03066,-4.96473 3.74986,-5.10831 2.94553,-0.15555 6.39191,-2.85693 7.39499,-5.79643 0.69661,-2.04138 5.00949,-4.29424 6.18914,-3.23293 0.44918,0.40412 1.10437,-0.62685 1.59668,-2.51245 0.90202,-3.45477 1.29888,-3.52098 2.42502,-0.40458 0.57735,1.59776 0.94405,1.78068 1.75739,0.87664 0.83788,-0.93129 1.17267,-0.74153 1.81168,1.02683 0.99712,2.75935 3.93348,4.10774 3.80893,1.74907 -0.0468,-0.88719 0.17786,-1.90545 0.49937,-2.2628 0.3215,-0.35735 0.98653,2.18001 1.47783,5.63856 0.84178,5.92571 2.47784,8.34168 3.62443,5.35215 1.03303,-2.69342 2.80964,-0.8072 3.32177,3.52673 0.28928,2.44813 0.90254,4.78994 1.36278,5.20401 0.46023,0.41407 3.80495,-0.57505 7.4327,-2.19805 10.53255,-4.71211 11.59866,-5.00874 13.48072,-3.75082 0.98075,0.65552 2.57674,0.72602 3.54663,0.15668 2.61382,-1.53437 3.2391,0.66514 1.03814,3.65188 -1.87568,2.54532 -1.86294,2.59273 0.54661,2.03581 3.99497,-0.92336 4.03661,0.39575 0.12323,3.90273 -3.61238,3.23723 -3.87694,4.78942 -0.72948,4.2799 3.24493,-0.52531 19.19847,-10.86586 24.02427,-15.57173 0.77233,-0.7531 1.90399,-1.31518 2.51485,-1.24905 1.56892,0.16988 4.44666,-2.36017 3.57575,-3.14372 -0.3976,-0.35772 -0.14311,-1.29485 0.56554,-2.08252 0.84712,-0.94157 1.52129,-0.97574 1.96819,-0.0997 0.48775,0.95608 0.93772,0.83315 1.59252,-0.43446 1.03339,-2.00025 3.53495,-1.97297 3.64123,0.0397 0.0447,0.84581 -2.36832,2.89598 -6.66905,5.6663 -10.42932,6.71807 -16.80151,11.51323 -22.62955,17.02905 -9.99366,9.45828 -10.61667,11.08797 -2.95979,7.74249 5.96004,-2.60409 5.96526,-2.41488 0.10179,3.68954 -4.35552,4.5345 -4.85896,6.6239 -1.55401,6.44938 2.88117,-0.15214 3.18904,2.29441 0.51511,4.09349 -1.22831,0.82643 -3.35551,3.20136 -4.72705,5.27767 l -2.49379,3.77502 5.34613,4.55684 c 7.05584,6.01409 7.18393,6.17179 6.0429,7.44004 -0.53996,0.60016 -0.51472,1.5114 0.0561,2.02497 2.6029,2.3418 -5.0891,7.3205 -10.99356,7.11566 l -3.11256,-0.10798 1.22179,1.93393 c 0.8739,1.38327 0.72786,2.47655 -0.51288,3.83962 -2.05477,2.25738 -3.46364,2.70096 -6.40002,2.0152 -1.74304,-0.40706 -1.21124,0.31071 2.67507,3.61056 4.54461,3.8588 4.77043,4.23789 3.57967,6.00935 -1.74633,2.59796 -4.22811,2.7561 -8.58159,0.54683 l -3.69248,-1.87384 0.54885,2.82478 c 0.4967,2.55644 0.26543,2.98063 -2.43457,4.46522 -1.64088,0.90222 -3.80634,2.5551 -4.81213,3.67303 -1.13957,1.26664 -2.8073,1.91302 -4.42547,1.71522 -1.42819,-0.17457 -2.53419,-0.0974 -2.45777,0.17141 0.0764,0.26886 0.54434,2.24983 1.03982,4.40216 0.76537,3.32478 1.26423,4.00275 3.31681,4.50777 3.2795,0.80687 5.66351,3.85893 4.50699,5.76992 -1.4445,2.38685 -5.70441,2.44289 -7.28357,0.0958 -0.81086,-1.20517 -1.61811,-1.65384 -2.07062,-1.15088 -0.40791,0.45339 -1.84001,0.3992 -3.18244,-0.12044 -3.02035,-1.16912 -3.82704,-0.37193 -2.96712,2.93218 1.32394,5.08708 1.03816,10.18492 -0.67657,12.06853 -2.68713,2.95178 -4.5511,3.05419 -6.77554,0.37229 -1.226,-1.47814 -2.63885,-2.28555 -3.72183,-2.12693 -0.96012,0.14062 -3.28281,-0.28264 -5.16154,-0.94059 -3.05515,-1.06995 -3.56697,-0.93015 -4.84689,1.32385 -1.69648,2.9876 -5.56107,3.63765 -7.16322,1.2049 -1.2184,-1.8501 -1.40559,-1.71916 -2.13381,1.49253 -0.99358,4.382 -0.82581,6.80801 0.55684,8.05196 0.74678,0.67187 0.99437,2.37549 0.55019,3.7858 -0.58853,1.86866 -0.24092,3.07405 1.2815,4.44375 3.68015,3.31098 -0.75108,9.11866 -5.20271,6.8188 -0.93948,-0.48535 -2.06424,-0.48668 -2.49947,-0.003 -1.19994,1.33373 -0.46261,6.59113 1.28701,9.17687 1.26005,1.86221 1.18605,2.70521 -0.39136,4.45849 -1.66167,1.84695 -2.51924,1.94709 -5.88348,0.68713 -2.16605,-0.81123 -4.15698,-1.23187 -4.42428,-0.93477 -0.92319,1.02613 -0.32697,8.85961 0.74792,9.82667 1.05218,0.94663 0.1075,3.79332 -2.0784,6.26306 -1.70748,1.92917 -5.27073,1.703 -6.7028,-0.42547 -0.77601,-1.15336 -2.00723,-1.7768 -3.17217,-1.60615 -1.04716,0.15337 -3.37791,-0.36859 -5.17948,-1.1599 -3.87992,-1.7042 -5.12282,-0.0591 -2.04642,2.70873 1.19193,1.07236 2.77476,3.64117 3.51741,5.70846 1.32196,3.67997 1.49703,3.84045 8.35784,7.66099 3.85417,2.14626 7.34892,4.57135 7.76611,5.38909 0.90116,1.76641 -1.73074,5.02378 -3.97162,4.91547 z m -119.36475,42.107126 -0.41277,-8.540685 8.7295,-0.638666 8.7295,-0.638678 4.93626,-5.917077 c 6.82488,-8.18099 5.82753,-9.13912 -8.66396,-8.3232 -6.08296,0.34248 -11.34182,0.36907 -11.68637,0.0591 -0.34454,-0.30998 -1.08146,-5.43185 -1.63758,-11.38193 -1.33595,-14.29363 -2.33764,-15.04711 -9.77357,-7.35186 l -5.48928,5.68068 1.0555,8.02598 c 0.58052,4.41428 1.10395,6.32613 1.16318,4.24855 l 0.10769,-3.77742 0.39508,3.34051 c 0.2173,1.83729 -0.0463,3.83109 -0.58572,4.43068 -0.53944,0.59959 -4.81754,1.15667 -9.50688,1.23795 l -8.52607,0.14779 -4.88101,5.85371 c -6.64528,7.969566 -5.86096,8.715027 8.867,8.427766 l 11.6213,-0.226656 0.74699,10.924851 c 0.41085,6.008673 0.64402,11.276473 0.51816,11.706219 -0.28356,0.968215 1.98866,3.089458 3.23864,3.02345 0.50673,-0.02675 3.29414,-2.68603 6.19425,-5.909498 l 5.27293,-5.860853 z m 38.33561,-35.518526 c -0.13219,-0.90251 -3.24713,-4.51794 -6.9221,-8.03429 l -6.68177,-6.39338 11.5655,2.50739 11.56549,2.5074 3.91293,-3.91486 c 4.52355,-4.52579 4.54353,-4.0106 -0.7634,-19.69364 -1.7301,-5.1128 -2.9269,-9.54346 -2.65956,-9.84592 0.2671,-0.30267 3.78849,2.52794 7.82478,6.28976 l 7.33871,6.83968 -5.87474,-4.44339 -5.87473,-4.4434 5.37452,5.07254 c 3.39233,3.20172 5.98614,5.04024 7.03289,4.98496 0.91211,-0.0482 3.37391,-1.99438 5.47067,-4.32493 3.49003,-3.87916 3.70851,-4.43926 2.58455,-6.62569 -0.67525,-1.31358 -6.58663,-7.20964 -13.13637,-13.10236 -6.54974,-5.89271 -13.03558,-11.15026 -14.41298,-11.68342 -2.41532,-0.93492 -2.70078,-0.75105 -8.03026,5.17266 -3.03926,3.37813 -5.80028,6.85741 -6.13561,7.73173 -0.78082,2.03583 2.06836,9.53959 3.73687,9.8416 0.82986,0.1502 0.76272,0.37734 -0.19428,0.65728 -1.07066,0.31319 -1.01255,0.60027 0.21699,1.07184 1.13171,0.43405 1.26221,0.76608 0.40022,1.01823 -0.86199,0.25216 -0.73147,0.58419 0.40023,1.01824 0.94857,0.36381 1.22848,0.77596 0.64325,0.94715 -1.39359,0.40765 0.18269,4.55805 1.99511,5.25318 0.79327,0.30425 1.00321,0.68162 0.46654,0.83861 -0.53667,0.15699 -0.65548,0.91323 -0.26402,1.68055 0.39146,0.76731 0.43183,1.70625 0.0897,2.08652 -0.54176,0.60216 -16.70978,-2.6771 -21.35609,-4.33153 -2.91637,-1.03844 -5.66188,0.71095 -11.76886,7.49884 -4.28393,4.76158 -5.69455,6.83794 -5.07397,7.46859 3.32824,3.38218 29.54932,26.16627 30.26192,26.29525 1.522,0.27549 8.53013,-8.15441 8.26786,-9.94519 z m 69.76584,-78.19926 c 1.87213,-7.00661 0.68043,-9.35379 -9.31471,-18.34628 -7.26846,-6.53933 -9.45809,-8.08575 -12.00315,-8.47717 -6.42895,-0.98876 -8.31388,0.18408 -19.64551,12.22381 -6.26145,6.65272 -11.19255,12.57232 -12.31449,14.78325 -2.23844,4.41095 -2.39296,10.75559 -0.28167,11.56535 0.81492,0.31255 1.047,0.69542 0.51573,0.85082 -1.50717,0.44088 0.98501,3.61652 7.32041,9.32798 7.04013,6.3471 11.25279,8.56532 15.57404,8.20162 4.64684,-0.39109 7.43563,-2.63881 18.95899,-15.28069 8.51713,-9.34387 10.37993,-11.81561 11.19036,-14.84869 z m -28.72081,13.88539 c -2.86737,0.92084 -10.6959,-6.31264 -9.9802,-9.22159 0.83125,-3.37855 11.89168,-15.15009 14.35723,-15.28028 1.83971,-0.0971 1.95495,-0.26606 1.03282,-1.51376 -0.57086,-0.77242 1.13081,0.5672 3.78149,2.97696 2.65067,2.40977 4.61565,4.39549 4.36661,4.41274 -0.24905,0.0173 -0.38989,1.22334 -0.31296,2.68016 0.11694,2.21456 -0.8026,3.68905 -5.60912,8.9943 -3.16193,3.49004 -6.59808,6.61819 -7.63587,6.95147 z m 47.30912,-53.56413 -10.18494,-9.52846 5.08713,-5.65434 c 3.08399,-3.42784 5.05264,-6.30734 4.99956,-7.3127 -0.12136,-2.29812 -6.47294,-7.84284 -8.62333,-7.52788 -1.21409,0.17782 -6.23513,5.37796 -16.83355,17.43399 l -15.1034,17.18061 3.67863,3.71118 c 5.07965,5.12462 6.27663,4.97523 12.11292,-1.51179 l 4.82861,-5.36699 10.06341,9.05391 c 5.53488,4.97965 10.50347,9.03067 11.04132,9.00227 0.53786,-0.0284 2.80957,-2.27907 5.04824,-5.00148 l 4.07032,-4.94986 z m 53.26008,-39.62403 c 0.60975,-1.78108 0.95798,-4.85474 0.77383,-6.83035 -0.32241,-3.4591 -0.69551,-3.91655 -10.08311,-12.36244 l -9.74832,-8.77044 -4.26756,0.22535 c -2.34714,0.12394 -5.71676,1.23875 -7.48803,2.47736 -5.07471,3.54862 -20.61978,21.32892 -22.37041,25.58705 -1.86144,4.52767 -1.93103,8.69627 -0.15653,9.37685 0.82672,0.31707 0.85357,0.65343 0.0705,0.88251 -0.86068,0.25176 -0.64522,0.69054 0.67365,1.3719 1.06645,0.55097 1.4885,1.13354 0.93788,1.29461 -0.57473,0.16813 2.28292,3.24748 6.70927,7.2298 10.77467,9.69383 15.11768,10.70405 22.69249,5.27845 0.89604,-0.64181 6.02083,-5.97188 11.38844,-11.84462 6.9431,-7.59655 10.07918,-11.61216 10.86792,-13.91603 z m -21.79,7.31893 c -3.3525,3.26154 -6.61235,5.95597 -7.24412,5.9876 -1.49742,0.075 -9.61748,-7.23414 -9.69752,-8.72907 -0.0765,-1.42871 10.39151,-14.12475 13.20902,-16.02043 1.92696,-1.2965 2.38028,-1.10863 6.69791,2.77589 4.11942,3.70618 4.58264,4.4814 4.19272,7.01663 -0.24108,1.56756 -0.57879,2.89268 -0.75045,2.9447 -0.17162,0.0521 -3.05506,2.76313 -6.40755,6.02467 z m -40.31925,-36.50003 c -2.42921,-2.18552 -4.12876,-2.12103 -3.4698,0.13167 0.4129,1.41151 4.69663,3.62552 5.43241,2.8077 0.32095,-0.35674 -0.56222,-1.67945 -1.96261,-2.93937 z"
         id="path35"
         inkscape:connector-curvature="0"
         sodipodi:nodetypes="csssssscsssssssssssssssssssssssssscsssssssssssssssscssssssssscssssssssssssscsssscsssssssssscssssssssssssssssssssssscssssssssssssssssssssssssssssssssssssscsssccsssssssccsssscscsssscsssscsssssssssssssssssssssssssscsssssccccccssssscsscssscsscssssccsscccsscscccssssssssssscssscssssssssssscsccsssssssscsssccsssscsscsssccssscssssssssssscscssscccssss" />
      <path
         sodipodi:nodetypes="csssssscsssssssssssssssssssssssssscsssssssssssssssscssssssssscssssssssssssscsssscsssssssssscssssssssssssssssssssssscssssssssssssssssssssssssssssssssssssscsssccsssssssccsssscscsssscsssscsssssssssssssssssssssssssscsssssccccccssssscsscssscsscssssccsscccsscscccssssssssssscssscssssssssssscsccsssssssscsssccsssscsscsssccssscssssssssssscscssscccssss"
         inkscape:connector-curvature="0"
         id="path3349"
         d="m 289.28274,-129.80618 c -0.86726,-0.0419 -5.826,-1.93716 -11.01945,-4.21164 -5.1998,-2.27727 -11.25987,-4.1884 -13.48702,-4.25332 -2.22443,-0.0649 -4.58451,-0.35322 -5.24463,-0.64083 -1.62738,-0.70903 -2.27382,6.12285 -0.88187,9.31997 1.42172,3.26549 0.0157,6.36223 -4.43649,9.77119 -4.67744,3.58143 -6.81165,4.35022 -10.50119,3.78279 -4.53103,-0.69687 -6.43833,2.29308 -3.07729,4.82407 0.43158,0.32501 1.02577,1.87969 1.32041,3.45487 0.42789,2.28745 0.0588,3.20579 -1.83345,4.5621 -2.61976,1.87775 -11.87267,3.02037 -13.3917,1.65372 -0.55994,-0.50377 -2.04029,0.0772 -3.52263,1.38235 -2.11188,1.85952 -2.48587,2.947512 -2.14913,6.252169 0.32876,3.226228 1.01753,4.474842 3.55727,6.448686 2.14013,1.663288 3.12396,3.088996 3.06967,4.44843 -0.044,1.100348 0.53474,2.553617 1.28596,3.229486 0.75124,0.675876 1.07136,1.556228 0.71138,1.95634 -0.35997,0.400108 -0.97747,0.436901 -1.37221,0.08176 -0.39474,-0.355145 -2.18902,0.05122 -3.98728,0.903036 -2.08209,0.986252 -4.58817,1.155859 -6.90016,0.466999 -2.19009,-0.652537 -4.43736,-0.538933 -5.66392,0.28632 -1.11832,0.752427 -2.34626,1.086506 -2.72875,0.74239 -0.38248,-0.344116 -1.36741,0.507532 -2.1887,1.892555 -1.1581,1.953004 -2.26323,2.558888 -4.92366,2.699372 -1.88672,0.09962 -4.40378,0.836053 -5.59347,1.636495 -1.88474,1.268099 -1.93395,1.661486 -0.38248,3.057324 1.94372,1.748738 2.52932,5.368027 1.12169,6.932608 -0.96079,1.067915 -3.14677,1.301261 -7.1935,0.767866 -4.18637,-0.551803 -13.6972,2.911722 -9.88862,3.601101 0.62816,0.113701 1.62111,1.022715 2.20657,2.020029 0.82914,1.412447 0.55722,2.277818 -1.23005,3.914509 -1.88141,1.722907 -2.68238,1.825671 -4.44898,0.57081 -2.33176,-1.656312 -2.17744,-5.628699 0.25103,-6.461845 0.71615,-0.245693 -0.0881,-0.40756 -1.7872,-0.359701 l -3.0893,0.08701 -0.13344,4.025663 c -0.0734,2.214114 -0.68691,5.071522 -1.36338,6.349799 -0.67646,1.27827 -1.53995,3.51799 -1.91886,4.977157 -0.80383,3.095522 -3.3985,4.422105 -6.18263,3.161012 -2.12042,-0.960459 -5.61759,-9.32013 -5.62664,-13.44995 -0.007,-3.339343 -0.48383,-3.853508 -3.64319,-3.931061 -2.02102,-0.04962 -2.60174,0.395686 -3.4911,2.67702 -0.80648,2.068763 -1.55199,2.807601 -3.05506,3.027744 -2.80876,0.411388 -5.5019,-2.345664 -4.85593,-4.971172 0.65402,-2.658208 3.61919,-4.592068 5.05722,-3.298286 1.35264,1.216944 2.26414,0.160822 1.91555,-2.2194 -0.22624,-1.544693 -0.80806,-1.80325 -3.25995,-1.448705 -1.6415,0.23736 -3.31528,0.777268 -3.71951,1.199794 -0.40423,0.422527 -3.17596,0.765574 -6.15941,0.762324 -5.00353,-0.0054 -5.47125,-0.195133 -6.02767,-2.444553 -0.43618,-1.763404 0.0384,-3.081875 1.71414,-4.761678 l 2.31733,-2.323047 -3.25928,0.687546 c -3.68529,0.777405 -5.88785,-0.665947 -6.06246,-3.972763 -0.10941,-2.071999 -0.34254,-2.2437 -3.02546,-2.228294 -1.5988,0.0092 -3.92939,-0.252474 -5.17907,-0.581452 -1.2497,-0.328983 -3.31339,0.109657 -4.58599,0.974743 -3.50611,2.383374 -7.21358,3.088082 -8.78909,1.670614 -2.1032,-1.892215 -0.99661,-4.793158 2.8769,-7.54179 5.23122,-3.712072 11.93589,-12.039344 10.63544,-13.209334 -1.80008,-1.619515 -3.04295,-8.48386 -1.9255,-10.6346 0.58007,-1.11647 1.91032,-2.15526 2.95611,-2.30844 2.66883,-0.39088 2.3564,-0.97119 -2.08883,-3.87983 -2.1454,-1.40379 -4.08229,-3.20128 -4.3042,-3.99441 -0.22191,-0.79313 -1.23375,-2.19811 -2.24852,-3.12217 -2.05187,-1.86844 -2.51266,-4.44947 -1.0789,-6.04309 0.5177,-0.57543 3.52882,-1.28873 6.69138,-1.58511 3.16255,-0.29638 6.04557,-0.86729 6.40669,-1.26868 0.39757,-0.44189 -0.73538,-1.67483 -2.87171,-3.12519 -2.68509,-1.82292 -3.55765,-2.95102 -3.65107,-4.72035 -0.17149,-3.24768 1.79235,-5.05943 5.23693,-4.83131 2.31268,0.15315 3.30613,-0.37117 4.71398,-2.48795 2.15086,-3.23391 5.50405,-3.84878 9.16151,-1.67995 2.92808,1.73631 4.49227,0.60512 3.57513,-2.58546 -0.40423,-1.40628 0.0714,-3.00549 1.29995,-4.37106 1.47411,-1.63847 1.57766,-2.29141 0.43302,-2.73041 -1.65285,-0.63394 -2.50589,-5.20722 -1.23481,-6.62002 0.4401,-0.48916 1.65787,-0.85513 2.70616,-0.81326 1.0483,0.0419 2.44406,-0.52193 3.10169,-1.25288 0.65762,-0.73095 3.06203,-1.36438 5.34312,-1.40762 l 4.14744,-0.0786 -0.0571,-3.8696 c -0.0461,-3.11752 0.44755,-4.27547 2.53967,-5.9579 1.42826,-1.14856 3.87402,-2.42547 5.43505,-2.83759 2.3931,-0.63179 3.1745,-0.33111 4.98262,1.91731 1.80949,2.25014 2.26167,2.4236 2.89526,1.11065 0.41297,-0.85577 1.86771,-3.21667 3.23276,-5.24644 1.42102,-2.11301 2.51416,-5.23231 2.55736,-7.2975 0.0713,-3.41094 -0.12571,-3.70908 -3.62502,-5.4849 -3.06855,-1.5572 -3.82687,-2.35665 -4.44063,-4.68142 -0.95961,-3.63484 1.06689,-5.11248 5.25101,-3.82878 2.3831,0.73115 3.78159,0.52914 4.91702,-0.71021 1.01461,-1.10758 3.79411,-1.78556 7.70938,-1.88059 5.44092,-0.13208 6.37376,-0.47654 8.37756,-3.09352 1.45206,-1.89641 2.12768,-4.01087 1.89761,-5.93888 -0.30527,-2.55834 0.0111,-3.18335 2.17391,-4.29519 2.29603,-1.1803 2.45664,-1.69607 1.72885,-5.55201 -1.08031,-5.72361 0.88746,-7.19964 7.42208,-5.56739 5.6176,1.4032 5.77203,1.3605 6.08119,-1.68191 0.17845,-1.75612 -0.25339,-2.29186 -2.57032,-3.1887 -5.52062,-2.13694 -6.09549,-8.05602 -0.91522,-9.42363 1.51363,-0.39961 3.07186,-0.43882 3.46275,-0.0871 0.39089,0.35167 1.75657,-0.52306 3.03486,-1.94388 2.03752,-2.2647 2.75618,-2.43197 5.82744,-1.35639 2.24202,0.78518 3.9462,0.73462 4.73349,-0.14046 0.67661,-0.75204 1.90611,-1.10811 2.73224,-0.79126 1.34389,0.51543 1.54731,0.28186 1.93179,-2.21799 0.36031,-2.34276 -0.0568,-3.12805 -2.5826,-4.86164 -2.70461,-1.85636 -2.93857,-2.42497 -2.2904,-5.56637 0.43301,-2.09856 1.50047,-4.02262 2.66728,-4.80767 1.20919,-0.81357 1.84141,-2.01846 1.67068,-3.18407 -0.41759,-2.85115 1.90834,-4.73353 4.74497,-3.84013 1.91514,0.60318 2.59954,1.24657 2.80288,2.63492 0.21711,1.48232 0.65561,1.6972 2.27174,1.1132 1.62376,-0.58676 1.94923,-1.44337 1.72009,-4.5271 l -0.28263,-3.80342 -9.95409,-5.32516 c -10.60563,-5.67372 -12.15838,-7.37086 -9.88615,-10.80544 1.47633,-2.23153 4.78325,-1.36788 15.8694,4.14454 12.30068,6.11631 13.98902,6.71567 17.16756,6.09449 2.6255,-0.51311 2.9157,-0.80986 3.68919,-3.77232 0.46174,-1.76847 0.53208,-3.492 0.15632,-3.83006 -0.37576,-0.33807 -0.43462,-1.62499 -0.13081,-2.85983 0.68874,-2.79934 4.73172,-3.53136 7.20652,-1.30481 2.31716,2.08471 5.77643,-0.73175 6.19139,-5.04089 0.25057,-2.60199 0.74813,-3.42587 2.4377,-4.03641 1.88127,-0.67982 2.05611,-2.52473 1.53627,-16.21151 -0.32263,-8.4944 -0.32551,-15.80428 -0.006,-16.24416 2.34699,-3.23522 6.42671,-2.65925 7.78479,1.09902 0.7093,1.96287 1.34645,2.44352 3.60502,2.7196 1.50889,0.18443 3.57259,1.08131 4.586,1.99306 2.30842,2.07685 14.35268,4.19159 16.54456,2.90491 0.9555,-0.56089 2.0543,-3.01527 2.65125,-5.92203 1.0153,-4.9438 1.03066,-4.96473 3.74986,-5.10831 2.94553,-0.15555 6.39191,-2.85693 7.39499,-5.79643 0.69661,-2.04138 5.00949,-4.29424 6.18914,-3.23293 0.44918,0.40412 1.10437,-0.62685 1.59668,-2.51245 0.90202,-3.45477 1.29888,-3.52098 2.42502,-0.40458 0.57735,1.59776 0.94405,1.78068 1.75739,0.87664 0.83788,-0.93129 1.17267,-0.74153 1.81168,1.02683 0.99712,2.75935 3.93348,4.10774 3.80893,1.74907 -0.0468,-0.88719 0.17786,-1.90545 0.49937,-2.2628 0.3215,-0.35735 0.98653,2.18001 1.47783,5.63856 0.84178,5.92571 2.47784,8.34168 3.62443,5.35215 1.03303,-2.69342 2.80964,-0.8072 3.32177,3.52673 0.28928,2.44813 0.90254,4.78994 1.36278,5.20401 0.46023,0.41407 3.80495,-0.57505 7.4327,-2.19805 10.53255,-4.71211 11.59866,-5.00874 13.48072,-3.75082 0.98075,0.65552 2.57674,0.72602 3.54663,0.15668 2.61382,-1.53437 3.2391,0.66514 1.03814,3.65188 -1.87568,2.54532 -1.86294,2.59273 0.54661,2.03581 3.99497,-0.92336 4.03661,0.39575 0.12323,3.90273 -3.61238,3.23723 -3.87694,4.78942 -0.72948,4.2799 3.24493,-0.52531 19.19847,-10.86586 24.02427,-15.57173 0.77233,-0.7531 1.90399,-1.31518 2.51485,-1.24905 1.56892,0.16988 4.44666,-2.36017 3.57575,-3.14372 -0.3976,-0.35772 -0.14311,-1.29485 0.56554,-2.08252 0.84712,-0.94157 1.52129,-0.97574 1.96819,-0.0997 0.48775,0.95608 0.93772,0.83315 1.59252,-0.43446 1.03339,-2.00025 3.53495,-1.97297 3.64123,0.0397 0.0447,0.84581 -2.36832,2.89598 -6.66905,5.6663 -10.42932,6.71807 -16.80151,11.51323 -22.62955,17.02905 -9.99366,9.45828 -10.61667,11.08797 -2.95979,7.74249 5.96004,-2.60409 5.96526,-2.41488 0.10179,3.68954 -4.35552,4.5345 -4.85896,6.6239 -1.55401,6.44938 2.88117,-0.15214 3.18904,2.29441 0.51511,4.09349 -1.22831,0.82643 -3.35551,3.20136 -4.72705,5.27767 l -2.49379,3.77502 5.34613,4.55684 c 7.05584,6.01409 7.18393,6.17179 6.0429,7.44004 -0.53996,0.60016 -0.51472,1.5114 0.0561,2.02497 2.6029,2.3418 -5.0891,7.3205 -10.99356,7.11566 l -3.11256,-0.10798 1.22179,1.93393 c 0.8739,1.38327 0.72786,2.47655 -0.51288,3.83962 -2.05477,2.25738 -3.46364,2.70096 -6.40002,2.0152 -1.74304,-0.40706 -1.21124,0.31071 2.67507,3.61056 4.54461,3.8588 4.77043,4.23789 3.57967,6.00935 -1.74633,2.59796 -4.22811,2.7561 -8.58159,0.54683 l -3.69248,-1.87384 0.54885,2.82478 c 0.4967,2.55644 0.26543,2.98063 -2.43457,4.46522 -1.64088,0.90222 -3.80634,2.5551 -4.81213,3.67303 -1.13957,1.26664 -2.8073,1.91302 -4.42547,1.71522 -1.42819,-0.17457 -2.53419,-0.0974 -2.45777,0.17141 0.0764,0.26886 0.54434,2.24983 1.03982,4.40216 0.76537,3.32478 1.26423,4.00275 3.31681,4.50777 3.2795,0.80687 5.66351,3.85893 4.50699,5.76992 -1.4445,2.38685 -5.70441,2.44289 -7.28357,0.0958 -0.81086,-1.20517 -1.61811,-1.65384 -2.07062,-1.15088 -0.40791,0.45339 -1.84001,0.3992 -3.18244,-0.12044 -3.02035,-1.16912 -3.82704,-0.37193 -2.96712,2.93218 1.32394,5.08708 1.03816,10.18492 -0.67657,12.06853 -2.68713,2.95178 -4.5511,3.05419 -6.77554,0.37229 -1.226,-1.47814 -2.63885,-2.28555 -3.72183,-2.12693 -0.96012,0.14062 -3.28281,-0.28264 -5.16154,-0.94059 -3.05515,-1.06995 -3.56697,-0.93015 -4.84689,1.32385 -1.69648,2.9876 -5.56107,3.63765 -7.16322,1.2049 -1.2184,-1.8501 -1.40559,-1.71916 -2.13381,1.49253 -0.99358,4.382 -0.82581,6.80801 0.55684,8.05196 0.74678,0.67187 0.99437,2.37549 0.55019,3.7858 -0.58853,1.86866 -0.24092,3.07405 1.2815,4.44375 3.68015,3.31098 -0.75108,9.11866 -5.20271,6.8188 -0.93948,-0.48535 -2.06424,-0.48668 -2.49947,-0.003 -1.19994,1.33373 -0.46261,6.59113 1.28701,9.17687 1.26005,1.86221 1.18605,2.70521 -0.39136,4.45849 -1.66167,1.84695 -2.51924,1.94709 -5.88348,0.68713 -2.16605,-0.81123 -4.15698,-1.23187 -4.42428,-0.93477 -0.92319,1.02613 -0.32697,8.85961 0.74792,9.82667 1.05218,0.94663 0.1075,3.79332 -2.0784,6.26306 -1.70748,1.92917 -5.27073,1.703 -6.7028,-0.42547 -0.77601,-1.15336 -2.00723,-1.7768 -3.17217,-1.60615 -1.04716,0.15337 -3.37791,-0.36859 -5.17948,-1.1599 -3.87992,-1.7042 -5.12282,-0.0591 -2.04642,2.70873 1.19193,1.07236 2.77476,3.64117 3.51741,5.70846 1.32196,3.67997 1.49703,3.84045 8.35784,7.66099 3.85417,2.14626 7.34892,4.57135 7.76611,5.38909 0.90116,1.76641 -1.73074,5.02378 -3.97162,4.91547 z m -119.36475,42.107126 -0.41277,-8.540685 8.7295,-0.638666 8.7295,-0.638678 4.93626,-5.917077 c 6.82488,-8.18099 5.82753,-9.13912 -8.66396,-8.3232 -6.08296,0.34248 -11.34182,0.36907 -11.68637,0.0591 -0.34454,-0.30998 -1.08146,-5.43185 -1.63758,-11.38193 -1.33595,-14.29363 -2.33764,-15.04711 -9.77357,-7.35186 l -5.48928,5.68068 1.0555,8.02598 c 0.58052,4.41428 1.10395,6.32613 1.16318,4.24855 l 0.10769,-3.77742 0.39508,3.34051 c 0.2173,1.83729 -0.0463,3.83109 -0.58572,4.43068 -0.53944,0.59959 -4.81754,1.15667 -9.50688,1.23795 l -8.52607,0.14779 -4.88101,5.85371 c -6.64528,7.969566 -5.86096,8.715027 8.867,8.427766 l 11.6213,-0.226656 0.74699,10.924851 c 0.41085,6.008673 0.64402,11.276473 0.51816,11.706219 -0.28356,0.968215 1.98866,3.089458 3.23864,3.02345 0.50673,-0.02675 3.29414,-2.68603 6.19425,-5.909498 l 5.27293,-5.860853 z m 38.33561,-35.518526 c -0.13219,-0.90251 -3.24713,-4.51794 -6.9221,-8.03429 l -6.68177,-6.39338 11.5655,2.50739 11.56549,2.5074 3.91293,-3.91486 c 4.52355,-4.52579 4.54353,-4.0106 -0.7634,-19.69364 -1.7301,-5.1128 -2.9269,-9.54346 -2.65956,-9.84592 0.2671,-0.30267 3.78849,2.52794 7.82478,6.28976 l 7.33871,6.83968 -5.87474,-4.44339 -5.87473,-4.4434 5.37452,5.07254 c 3.39233,3.20172 5.98614,5.04024 7.03289,4.98496 0.91211,-0.0482 3.37391,-1.99438 5.47067,-4.32493 3.49003,-3.87916 3.70851,-4.43926 2.58455,-6.62569 -0.67525,-1.31358 -6.58663,-7.20964 -13.13637,-13.10236 -6.54974,-5.89271 -13.03558,-11.15026 -14.41298,-11.68342 -2.41532,-0.93492 -2.70078,-0.75105 -8.03026,5.17266 -3.03926,3.37813 -5.80028,6.85741 -6.13561,7.73173 -0.78082,2.03583 2.06836,9.53959 3.73687,9.8416 0.82986,0.1502 0.76272,0.37734 -0.19428,0.65728 -1.07066,0.31319 -1.01255,0.60027 0.21699,1.07184 1.13171,0.43405 1.26221,0.76608 0.40022,1.01823 -0.86199,0.25216 -0.73147,0.58419 0.40023,1.01824 0.94857,0.36381 1.22848,0.77596 0.64325,0.94715 -1.39359,0.40765 0.18269,4.55805 1.99511,5.25318 0.79327,0.30425 1.00321,0.68162 0.46654,0.83861 -0.53667,0.15699 -0.65548,0.91323 -0.26402,1.68055 0.39146,0.76731 0.43183,1.70625 0.0897,2.08652 -0.54176,0.60216 -16.70978,-2.6771 -21.35609,-4.33153 -2.91637,-1.03844 -5.66188,0.71095 -11.76886,7.49884 -4.28393,4.76158 -5.69455,6.83794 -5.07397,7.46859 3.32824,3.38218 29.54932,26.16627 30.26192,26.29525 1.522,0.27549 8.53013,-8.15441 8.26786,-9.94519 z m 69.76584,-78.19926 c 1.87213,-7.00661 0.68043,-9.35379 -9.31471,-18.34628 -7.26846,-6.53933 -9.45809,-8.08575 -12.00315,-8.47717 -6.42895,-0.98876 -8.31388,0.18408 -19.64551,12.22381 -6.26145,6.65272 -11.19255,12.57232 -12.31449,14.78325 -2.23844,4.41095 -2.39296,10.75559 -0.28167,11.56535 0.81492,0.31255 1.047,0.69542 0.51573,0.85082 -1.50717,0.44088 0.98501,3.61652 7.32041,9.32798 7.04013,6.3471 11.25279,8.56532 15.57404,8.20162 4.64684,-0.39109 7.43563,-2.63881 18.95899,-15.28069 8.51713,-9.34387 10.37993,-11.81561 11.19036,-14.84869 z m -28.72081,13.88539 c -2.86737,0.92084 -10.6959,-6.31264 -9.9802,-9.22159 0.83125,-3.37855 11.89168,-15.15009 14.35723,-15.28028 1.83971,-0.0971 1.95495,-0.26606 1.03282,-1.51376 -0.57086,-0.77242 1.13081,0.5672 3.78149,2.97696 2.65067,2.40977 4.61565,4.39549 4.36661,4.41274 -0.24905,0.0173 -0.38989,1.22334 -0.31296,2.68016 0.11694,2.21456 -0.8026,3.68905 -5.60912,8.9943 -3.16193,3.49004 -6.59808,6.61819 -7.63587,6.95147 z m 47.30912,-53.56413 -10.18494,-9.52846 5.08713,-5.65434 c 3.08399,-3.42784 5.05264,-6.30734 4.99956,-7.3127 -0.12136,-2.29812 -6.47294,-7.84284 -8.62333,-7.52788 -1.21409,0.17782 -6.23513,5.37796 -16.83355,17.43399 l -15.1034,17.18061 3.67863,3.71118 c 5.07965,5.12462 6.27663,4.97523 12.11292,-1.51179 l 4.82861,-5.36699 10.06341,9.05391 c 5.53488,4.97965 10.50347,9.03067 11.04132,9.00227 0.53786,-0.0284 2.80957,-2.27907 5.04824,-5.00148 l 4.07032,-4.94986 z m 53.26008,-39.62403 c 0.60975,-1.78108 0.95798,-4.85474 0.77383,-6.83035 -0.32241,-3.4591 -0.69551,-3.91655 -10.08311,-12.36244 l -9.74832,-8.77044 -4.26756,0.22535 c -2.34714,0.12394 -5.71676,1.23875 -7.48803,2.47736 -5.07471,3.54862 -20.61978,21.32892 -22.37041,25.58705 -1.86144,4.52767 -1.93103,8.69627 -0.15653,9.37685 0.82672,0.31707 0.85357,0.65343 0.0705,0.88251 -0.86068,0.25176 -0.64522,0.69054 0.67365,1.3719 1.06645,0.55097 1.4885,1.13354 0.93788,1.29461 -0.57473,0.16813 2.28292,3.24748 6.70927,7.2298 10.77467,9.69383 15.11768,10.70405 22.69249,5.27845 0.89604,-0.64181 6.02083,-5.97188 11.38844,-11.84462 6.9431,-7.59655 10.07918,-11.61216 10.86792,-13.91603 z m -21.79,7.31893 c -3.3525,3.26154 -6.61235,5.95597 -7.24412,5.9876 -1.49742,0.075 -9.61748,-7.23414 -9.69752,-8.72907 -0.0765,-1.42871 10.39151,-14.12475 13.20902,-16.02043 1.92696,-1.2965 2.38028,-1.10863 6.69791,2.77589 4.11942,3.70618 4.58264,4.4814 4.19272,7.01663 -0.24108,1.56756 -0.57879,2.89268 -0.75045,2.9447 -0.17162,0.0521 -3.05506,2.76313 -6.40755,6.02467 z m -40.31925,-36.50003 c -2.42921,-2.18552 -4.12876,-2.12103 -3.4698,0.13167 0.4129,1.41151 4.69663,3.62552 5.43241,2.8077 0.32095,-0.35674 -0.56222,-1.67945 -1.96261,-2.93937 z"
         style="fill:#ffffff;fill-opacity:1;stroke-width:0.64527631" />
    </g>
  </g>
</svg>
