<?xml version="1.0" encoding="UTF-8" standalone="no"?>
<!-- Created with Inkscape (http://www.inkscape.org/) -->

<svg
   xmlns:dc="http://purl.org/dc/elements/1.1/"
   xmlns:cc="http://creativecommons.org/ns#"
   xmlns:rdf="http://www.w3.org/1999/02/22-rdf-syntax-ns#"
   xmlns:svg="http://www.w3.org/2000/svg"
   xmlns="http://www.w3.org/2000/svg"
   xmlns:xlink="http://www.w3.org/1999/xlink"
   xmlns:sodipodi="http://sodipodi.sourceforge.net/DTD/sodipodi-0.dtd"
   xmlns:inkscape="http://www.inkscape.org/namespaces/inkscape"
   version="1.0"
   width="512"
   height="512"
   id="svg2408"
   inkscape:version="0.92.2 2405546, 2018-03-11"
   sodipodi:docname="xonotic.svg">
  <sodipodi:namedview
     pagecolor="#ffffff"
     bordercolor="#666666"
     borderopacity="1"
     objecttolerance="10"
     gridtolerance="10"
     guidetolerance="10"
     inkscape:pageopacity="0"
     inkscape:pageshadow="2"
     inkscape:window-width="1366"
     inkscape:window-height="706"
     id="namedview116"
     showgrid="false"
     inkscape:zoom="0.43457604"
     inkscape:cx="425.03573"
     inkscape:cy="402.608"
     inkscape:window-x="0"
     inkscape:window-y="0"
     inkscape:window-maximized="1"
     inkscape:current-layer="svg2408" />
  <defs
     id="defs2410">
    <linearGradient
       id="linearGradient4411">
      <stop
         id="stop4413"
         style="stop-color:#806451;stop-opacity:1"
         offset="0" />
      <stop
         id="stop4415"
         style="stop-color:#c5a590;stop-opacity:1"
         offset="1" />
    </linearGradient>
    <linearGradient
       id="linearGradient4137">
      <stop
         id="stop4139"
         style="stop-color:#fad34b;stop-opacity:1"
         offset="0" />
      <stop
         id="stop4141"
         style="stop-color:#fabc37;stop-opacity:1"
         offset="1" />
    </linearGradient>
    <linearGradient
       id="linearGradient4096">
      <stop
         id="stop4098"
         style="stop-color:#74686c;stop-opacity:1"
         offset="0" />
      <stop
         id="stop4100"
         style="stop-color:#e4e1e2;stop-opacity:1"
         offset="1" />
    </linearGradient>
    <linearGradient
       id="linearGradient4072">
      <stop
         id="stop4074"
         style="stop-color:#3d566e;stop-opacity:1"
         offset="0" />
      <stop
         id="stop4076"
         style="stop-color:#3d566e;stop-opacity:0"
         offset="1" />
    </linearGradient>
    <linearGradient
       id="linearGradient4015">
      <stop
         id="stop4017"
         style="stop-color:#ffffff;stop-opacity:1"
         offset="0" />
      <stop
         id="stop4019"
         style="stop-color:#ffffff;stop-opacity:0"
         offset="1" />
    </linearGradient>
    <linearGradient
       x1="45.447727"
       y1="92.539597"
       x2="45.447727"
       y2="7.0165396"
       id="ButtonShadow"
       gradientUnits="userSpaceOnUse"
       gradientTransform="scale(1.0058652,0.994169)">
      <stop
         id="stop3750"
         style="stop-color:#000000;stop-opacity:1"
         offset="0" />
      <stop
         id="stop3752"
         style="stop-color:#000000;stop-opacity:0.58823532"
         offset="1" />
    </linearGradient>
    <linearGradient
       id="linearGradient3737">
      <stop
         id="stop3739"
         style="stop-color:#ffffff;stop-opacity:1"
         offset="0" />
      <stop
         id="stop3741"
         style="stop-color:#ffffff;stop-opacity:0"
         offset="1" />
    </linearGradient>
    <filter
       id="filter3174"
       style="color-interpolation-filters:sRGB">
      <feGaussianBlur
         id="feGaussianBlur3176"
         stdDeviation="1.71" />
    </filter>
    <linearGradient
       x1="36.357143"
       y1="6"
       x2="36.357143"
       y2="63.893143"
       id="linearGradient3188"
       xlink:href="#linearGradient3737"
       gradientUnits="userSpaceOnUse" />
    <filter
       x="-0.192"
       y="-0.192"
       width="1.3839999"
       height="1.3839999"
       id="filter3794"
       style="color-interpolation-filters:sRGB">
      <feGaussianBlur
         id="feGaussianBlur3796"
         stdDeviation="5.28" />
    </filter>
    <linearGradient
       x1="48"
       y1="20.220806"
       x2="48"
       y2="138.66119"
       id="linearGradient3613"
       xlink:href="#linearGradient3737"
       gradientUnits="userSpaceOnUse" />
    <radialGradient
       cx="48"
       cy="90.171875"
       r="42"
       fx="48"
       fy="90.171875"
       id="radialGradient3619"
       xlink:href="#linearGradient3737"
       gradientUnits="userSpaceOnUse"
       gradientTransform="matrix(1.1573129,0,0,0.99590774,-7.5510206,0.19713193)" />
    <clipPath
       id="clipPath3613">
      <rect
         width="84"
         height="84"
         rx="6"
         ry="6"
         x="6"
         y="6"
         id="rect3615"
         style="fill:#ffffff;fill-opacity:1;fill-rule:nonzero;stroke:none" />
    </clipPath>
    <linearGradient
       x1="48"
       y1="90"
       x2="48"
       y2="5.9877172"
       id="linearGradient3617"
       xlink:href="#linearGradient4411"
       gradientUnits="userSpaceOnUse" />
    <linearGradient
       x1="45.447727"
       y1="92.539597"
       x2="45.447727"
       y2="7.0165396"
       id="ButtonShadow-0"
       gradientUnits="userSpaceOnUse"
       gradientTransform="matrix(1.0058652,0,0,0.994169,100,0)">
      <stop
         id="stop3750-8"
         style="stop-color:#000000;stop-opacity:1"
         offset="0" />
      <stop
         id="stop3752-5"
         style="stop-color:#000000;stop-opacity:0.58823532"
         offset="1" />
    </linearGradient>
    <linearGradient
       x1="32.251034"
       y1="6.1317081"
       x2="32.251034"
       y2="90.238609"
       id="linearGradient3780"
       xlink:href="#ButtonShadow-0"
       gradientUnits="userSpaceOnUse"
       gradientTransform="matrix(1.0238095,0,0,1.0119048,-1.1428571,-98.071429)" />
    <linearGradient
       x1="32.251034"
       y1="6.1317081"
       x2="32.251034"
       y2="90.238609"
       id="linearGradient3772"
       xlink:href="#ButtonShadow-0"
       gradientUnits="userSpaceOnUse"
       gradientTransform="matrix(1.0238095,0,0,1.0119048,-1.1428571,-98.071429)" />
    <linearGradient
       x1="32.251034"
       y1="6.1317081"
       x2="32.251034"
       y2="90.238609"
       id="linearGradient3725"
       xlink:href="#ButtonShadow-0"
       gradientUnits="userSpaceOnUse"
       gradientTransform="matrix(1.0238095,0,0,1.0119048,-1.1428571,-98.071429)" />
    <linearGradient
       x1="32.251034"
       y1="6.1317081"
       x2="32.251034"
       y2="90.238609"
       id="linearGradient3721"
       xlink:href="#ButtonShadow-0"
       gradientUnits="userSpaceOnUse"
       gradientTransform="translate(0,-97)" />
    <linearGradient
       x1="32.251034"
       y1="6.1317081"
       x2="32.251034"
       y2="90.238609"
       id="linearGradient3026"
       xlink:href="#ButtonShadow-0"
       gradientUnits="userSpaceOnUse"
       gradientTransform="matrix(1.0238095,0,0,1.0119048,-1.1428571,-98.071429)" />
    <radialGradient
       cx="-495.98746"
       cy="-87.834587"
       r="88.03125"
       fx="-495.98746"
       fy="-87.834587"
       id="radialGradient4289"
       xlink:href="#linearGradient4072"
       gradientUnits="userSpaceOnUse"
       gradientTransform="matrix(1,0,0,1.020044,1.2060786,30.129498)" />
    <radialGradient
       cx="-174.5798"
       cy="109.85793"
       r="8.8871508"
       fx="-174.5798"
       fy="109.85793"
       id="radialGradient4291"
       xlink:href="#linearGradient4015"
       gradientUnits="userSpaceOnUse"
       gradientTransform="matrix(1.4045539,-0.00938817,0.00459488,0.78380632,70.122153,22.111605)" />
    <radialGradient
       cx="-174.5798"
       cy="109.85793"
       r="8.8871508"
       fx="-174.5798"
       fy="109.85793"
       id="radialGradient4293"
       xlink:href="#linearGradient4015"
       gradientUnits="userSpaceOnUse"
       gradientTransform="matrix(1.5221657,0.05440008,-0.01699086,0.54206939,93.026167,59.804466)" />
    <radialGradient
       cx="-174.5798"
       cy="109.85793"
       r="8.8871508"
       fx="-174.5798"
       fy="109.85793"
       id="radialGradient4295"
       xlink:href="#linearGradient4015"
       gradientUnits="userSpaceOnUse"
       gradientTransform="matrix(1.3664816,-0.03305183,0.01875702,0.76369477,61.919675,20.189822)" />
    <radialGradient
       cx="-174.5798"
       cy="109.85793"
       r="8.8871508"
       fx="-174.5798"
       fy="109.85793"
       id="radialGradient4297"
       xlink:href="#linearGradient4015"
       gradientUnits="userSpaceOnUse"
       gradientTransform="matrix(1.3664816,-0.03305183,0.01875702,0.76369477,61.919675,20.189822)" />
    <radialGradient
       cx="-174.5798"
       cy="109.85793"
       r="8.8871508"
       fx="-174.5798"
       fy="109.85793"
       id="radialGradient4299"
       xlink:href="#linearGradient4015"
       gradientUnits="userSpaceOnUse"
       gradientTransform="matrix(1.0744883,0.00593562,0.00544351,0.60648574,12.406137,44.266902)" />
    <linearGradient
       x1="-516.70276"
       y1="20.883038"
       x2="-518.81342"
       y2="29.600176"
       id="linearGradient4301"
       xlink:href="#linearGradient4096"
       gradientUnits="userSpaceOnUse"
       gradientTransform="translate(1.2060786,10.653694)" />
    <linearGradient
       x1="-130.89725"
       y1="16.472939"
       x2="-128.05614"
       y2="38.053318"
       id="linearGradient4303"
       xlink:href="#linearGradient4096"
       gradientUnits="userSpaceOnUse"
       gradientTransform="translate(-248.79392,10.653694)" />
    <radialGradient
       cx="-500.14664"
       cy="-15.092947"
       r="26.649689"
       fx="-500.14664"
       fy="-15.092947"
       id="radialGradient4305"
       xlink:href="#linearGradient4137"
       gradientUnits="userSpaceOnUse"
       gradientTransform="matrix(1,0,0,0.33422727,1.2060786,0.60522158)" />
    <radialGradient
       cx="-400.11536"
       cy="-16.508318"
       r="15.88463"
       fx="-400.11536"
       fy="-16.508318"
       id="radialGradient4307"
       xlink:href="#linearGradient4137"
       gradientUnits="userSpaceOnUse"
       gradientTransform="matrix(1,0,0,0.5352161,1.2060786,2.9808942)" />
    <clipPath
       id="clipPath4401">
      <rect
         width="84"
         height="84"
         rx="6"
         ry="6"
         x="-87.640152"
         y="7.9819665"
         transform="rotate(-90)"
         id="rect4403"
         style="fill:#ff00ff;fill-opacity:1;fill-rule:nonzero;stroke:none" />
    </clipPath>
    <radialGradient
       inkscape:collect="always"
       xlink:href="#linearGradient4072"
       id="radialGradient3102"
       gradientUnits="userSpaceOnUse"
       gradientTransform="matrix(0.33727458,0,0,0.34403491,196.87177,37.820509)"
       cx="-495.98746"
       cy="-87.834587"
       fx="-495.98746"
       fy="-87.834587"
       r="88.03125" />
    <radialGradient
       cx="25.939386"
       cy="71.050659"
       r="30.109375"
       fx="25.939386"
       fy="71.050659"
       id="radialGradient21309"
       xlink:href="#linearGradient21303"
       gradientUnits="userSpaceOnUse"
       gradientTransform="matrix(2.7659062,0,0,1.7557454,-6.7453181,-16.204118)" />
    <linearGradient
       id="linearGradient21303">
      <stop
         id="stop21305"
         style="stop-color:#000e1e;stop-opacity:1"
         offset="0" />
      <stop
         id="stop21307"
         style="stop-color:#0057b9;stop-opacity:1"
         offset="1" />
    </linearGradient>
    <linearGradient
       x1="209.58415"
       y1="39.001011"
       x2="208"
       y2="74.169327"
       id="linearGradient21377"
       xlink:href="#linearGradient21371"
       gradientUnits="userSpaceOnUse"
       gradientTransform="matrix(1.6169465,0,0,1.6349,-264.66193,-24.706439)" />
    <linearGradient
       id="linearGradient21371">
      <stop
         id="stop21373"
         style="stop-color:#410c00;stop-opacity:1"
         offset="0" />
      <stop
         id="stop21375"
         style="stop-color:#100300;stop-opacity:1"
         offset="1" />
    </linearGradient>
    <radialGradient
       cx="25.939386"
       cy="71.050659"
       r="30.109375"
       fx="25.939386"
       fy="71.050659"
       id="radialGradient21309-3"
       xlink:href="#linearGradient21303"
       gradientUnits="userSpaceOnUse"
       gradientTransform="matrix(-2.7659062,0,0,1.7557454,134.46349,-16.755228)" />
  </defs>
  <metadata
     id="metadata2413">
    <rdf:RDF>
      <cc:Work
         rdf:about="">
        <dc:format>image/svg+xml</dc:format>
        <dc:type
           rdf:resource="http://purl.org/dc/dcmitype/StillImage" />
        <dc:title></dc:title>
      </cc:Work>
    </rdf:RDF>
  </metadata>
  <g
     id="layer2"
     style="display:none"
     transform="translate(0,416)">
    <rect
       width="86"
       height="85"
       rx="6"
       ry="6"
       x="5"
       y="7"
       id="rect3745"
       style="opacity:0.9;fill:url(#ButtonShadow);fill-opacity:1;fill-rule:nonzero;stroke:none;filter:url(#filter3174)" />
  </g>
  <g
     id="g924">
    <path
       style="fill:#3689e6;fill-opacity:1;stroke-width:11.10955811"
       inkscape:connector-curvature="0"
       d="m 432.91322,56.47398 c 102.19295,88.57472 105.82687,249.69984 8.1168,359.89887 C 343.31994,526.57187 181.27962,544.10051 79.086658,455.52613 -23.106292,366.95142 -26.739896,205.8263 70.969858,95.62726 168.67994,-14.57178 330.72026,-32.10074 432.91322,56.47398 Z"
       id="path52" />
    <path
       style="opacity:1;fill:#000000;fill-opacity:0.49019608;stroke-width:11.10955811"
       inkscape:connector-curvature="0"
       d="M 511.63545,224.90342 C 510.08345,286.2151 486.47418,349.0583 440.66906,400.71814 342.9593,510.91716 180.91866,528.44579 78.725698,439.87141 30.827138,398.35558 4.4969078,340.92294 0.19386784,280.22886 c 0.6048,66.3568 26.92352016,130.25343 78.88479016,175.29023 102.192962,88.5747 264.240962,71.0371 361.943362,-39.15328 49.70495,-56.05823 73.00511,-125.29087 70.61343,-191.46239 z"
       id="path54" />
    <g
       style="fill:#000000;fill-opacity:0.49019608"
       transform="translate(20,20)"
       id="g109">
      <path
         inkscape:connector-curvature="0"
         id="path105"
         d="m 308.98242,137.69922 c -7.72036,-0.24854 -34.03073,10.64535 -67.13476,35.27539 -36.5286,27.17798 -56.69532,53.9043 -56.69532,53.9043 l 33.95118,-9.30469 -33.8418,40.45312 27.55469,-11.59179 c 0,0 -11.07526,37.37649 -21.93555,50.99023 -6.40619,8.03041 -8.36443,15.01091 -8.88477,19.48633 7.97361,5.94266 16.54295,11.22004 25.56055,15.77734 7.43163,3.37781 15.16646,6.24358 23.13867,8.55078 3.61956,1.04752 7.1762,8.83777 10.76367,17.04688 3.47186,7.44498 6.92268,15.46337 10.75391,19.50195 0.88941,0.72511 1.78595,1.15039 2.69141,1.15039 10.19926,0 17.18333,-34.74225 26.72851,-38.0625 17.65186,-6.14006 34.22708,-14.82986 48.78711,-25.75195 v 4.26367 c 5.8335,-4.07577 11.35205,-8.52268 16.51563,-13.30664 -15.07781,0.13494 -32.05266,0.0722 -43.74805,-21.60742 -16.54127,-30.66231 21.61096,-76.05968 42.57227,-86.92383 20.50425,-10.62729 26.24854,-13.19726 10.39648,-13.19726 -15.85202,0 -39.87305,1.86132 -39.87305,1.86132 0,0 11.02681,-28.57226 32.39258,-28.57226 21.36581,0 26.88086,-2.08985 26.88086,-2.08985 0,0 -29.63795,-22.99645 -44.80078,-16.72461 -15.16284,6.27186 -15.85103,2.09023 -19.98633,-0.69726 -0.38769,-0.26133 -0.98845,-0.40593 -1.78711,-0.43164 z M 298.45508,151.5 c 0.75308,0 1.40938,0.16861 1.92578,0.55469 4.13116,3.0886 11.36088,4.32492 5.16406,8.03125 -6.19676,3.70633 -7.5743,5.86799 -12.73828,4.9414 -5.16399,-0.92658 -9.63867,-5.25195 -9.63867,-5.25195 0,0 10.01553,-8.27539 15.28711,-8.27539 z"
         style="fill:#000000;fill-opacity:0.49019608;stroke:none;stroke-width:2.69068503" />
      <path
         inkscape:connector-curvature="0"
         id="path107"
         d="m 173.29883,112.53516 c -36.14759,22.28018 -62.70177,59.02495 -70.78711,103.1289 L 100,243.23047 c 0,58.98984 33.38609,110.19122 82.36719,135.98828 C 204.59675,391.52145 230.15092,398.5 257.39062,398.5 342.75774,398.5 412,329.67386 412,244.71289 l -2.51172,-27.56641 c -8.08535,-44.10395 -34.63951,-80.84873 -70.78711,-103.1289 25.73214,20.02339 44.29059,49.47941 50.46094,83.90625 l 2.15234,24.42187 c 0,47.57877 -24.36886,87.52306 -60.89453,113.04297 V 331.125 c -14.56003,10.92209 -31.13525,19.61189 -48.78711,25.75195 -9.54518,3.32025 -16.52925,38.0625 -26.72851,38.0625 -0.90546,0 -1.802,-0.42528 -2.69141,-1.15039 -3.83123,-4.03858 -7.28205,-12.05697 -10.75391,-19.50195 -3.58747,-8.20911 -7.14411,-15.99936 -10.76367,-17.04688 -7.97221,-2.3072 -15.70704,-5.17297 -23.13867,-8.55078 -9.17334,-4.63601 -17.88635,-10.01324 -25.97656,-16.08203 v 1.29883 C 145.0544,308.38634 120.68555,268.44205 120.68555,220.86328 l 2.15234,-24.42383 c 6.17038,-34.42684 24.7288,-63.8809 50.46094,-83.90429 z"
         style="fill:#000000;fill-opacity:0.49019608;stroke:none;stroke-width:2.69068503" />
    </g>
    <g
       id="g103">
      <path
         style="fill:#ffffff;fill-opacity:1;stroke:none;stroke-width:2.69068503"
         d="m 308.98242,137.69922 c -7.72036,-0.24854 -34.03073,10.64535 -67.13476,35.27539 -36.5286,27.17798 -56.69532,53.9043 -56.69532,53.9043 l 33.95118,-9.30469 -33.8418,40.45312 27.55469,-11.59179 c 0,0 -11.07526,37.37649 -21.93555,50.99023 -6.40619,8.03041 -8.36443,15.01091 -8.88477,19.48633 7.97361,5.94266 16.54295,11.22004 25.56055,15.77734 7.43163,3.37781 15.16646,6.24358 23.13867,8.55078 3.61956,1.04752 7.1762,8.83777 10.76367,17.04688 3.47186,7.44498 6.92268,15.46337 10.75391,19.50195 0.88941,0.72511 1.78595,1.15039 2.69141,1.15039 10.19926,0 17.18333,-34.74225 26.72851,-38.0625 17.65186,-6.14006 34.22708,-14.82986 48.78711,-25.75195 v 4.26367 c 5.8335,-4.07577 11.35205,-8.52268 16.51563,-13.30664 -15.07781,0.13494 -32.05266,0.0722 -43.74805,-21.60742 -16.54127,-30.66231 21.61096,-76.05968 42.57227,-86.92383 20.50425,-10.62729 26.24854,-13.19726 10.39648,-13.19726 -15.85202,0 -39.87305,1.86132 -39.87305,1.86132 0,0 11.02681,-28.57226 32.39258,-28.57226 21.36581,0 26.88086,-2.08985 26.88086,-2.08985 0,0 -29.63795,-22.99645 -44.80078,-16.72461 -15.16284,6.27186 -15.85103,2.09023 -19.98633,-0.69726 -0.38769,-0.26133 -0.98845,-0.40593 -1.78711,-0.43164 z M 298.45508,151.5 c 0.75308,0 1.40938,0.16861 1.92578,0.55469 4.13116,3.0886 11.36088,4.32492 5.16406,8.03125 -6.19676,3.70633 -7.5743,5.86799 -12.73828,4.9414 -5.16399,-0.92658 -9.63867,-5.25195 -9.63867,-5.25195 0,0 10.01553,-8.27539 15.28711,-8.27539 z"
         id="path21369"
         inkscape:connector-curvature="0" />
      <path
         style="fill:#ffffff;fill-opacity:1;stroke:none;stroke-width:2.69068503"
         d="M 173.29883 112.53516 C 137.15124 134.81534 110.59706 171.56011 102.51172 215.66406 L 100 243.23047 C 100 302.22031 133.38609 353.42169 182.36719 379.21875 C 204.59675 391.52145 230.15092 398.5 257.39062 398.5 C 342.75774 398.5 412 329.67386 412 244.71289 L 409.48828 217.14648 C 401.40293 173.04253 374.84877 136.29775 338.70117 114.01758 C 364.43331 134.04097 382.99176 163.49699 389.16211 197.92383 L 391.31445 222.3457 C 391.31445 269.92447 366.94559 309.86876 330.41992 335.38867 L 330.41992 331.125 C 315.85989 342.04709 299.28467 350.73689 281.63281 356.87695 C 272.08763 360.1972 265.10356 394.93945 254.9043 394.93945 C 253.99884 394.93945 253.1023 394.51417 252.21289 393.78906 C 248.38166 389.75048 244.93084 381.73209 241.45898 374.28711 C 237.87151 366.078 234.31487 358.28775 230.69531 357.24023 C 222.7231 354.93303 214.98827 352.06726 207.55664 348.68945 C 198.3833 344.05344 189.67029 338.67621 181.58008 332.60742 L 181.58008 333.90625 C 145.0544 308.38634 120.68555 268.44205 120.68555 220.86328 L 122.83789 196.43945 C 129.00827 162.01261 147.56669 132.55855 173.29883 112.53516 z "
         id="path21286" />
    </g>
  </g>
</svg>
