<?xml version="1.0" encoding="UTF-8" standalone="no"?>
<!-- Created with Inkscape (http://www.inkscape.org/) -->

<svg
   xmlns:osb="http://www.openswatchbook.org/uri/2009/osb"
   xmlns:dc="http://purl.org/dc/elements/1.1/"
   xmlns:cc="http://creativecommons.org/ns#"
   xmlns:rdf="http://www.w3.org/1999/02/22-rdf-syntax-ns#"
   xmlns:svg="http://www.w3.org/2000/svg"
   xmlns="http://www.w3.org/2000/svg"
   xmlns:sodipodi="http://sodipodi.sourceforge.net/DTD/sodipodi-0.dtd"
   xmlns:inkscape="http://www.inkscape.org/namespaces/inkscape"
   width="512"
   height="512"
   id="svg2985"
   version="1.1"
   inkscape:version="0.92.2 2405546, 2018-03-11"
   sodipodi:docname="xoscope.svg"
   viewBox="0 0 512 512">
  <defs
     id="defs2987">
    <linearGradient
       id="linearGradient5207"
       osb:paint="solid">
      <stop
         style="stop-color:#000015;stop-opacity:1;"
         offset="0"
         id="stop5209" />
    </linearGradient>
  </defs>
  <sodipodi:namedview
     id="base"
     pagecolor="#ffffff"
     bordercolor="#666666"
     borderopacity="1.0"
     inkscape:pageopacity="0.0"
     inkscape:pageshadow="2"
     inkscape:zoom="0.32593203"
     inkscape:cx="1502.5933"
     inkscape:cy="-102.06086"
     inkscape:current-layer="layer1"
     showgrid="true"
     inkscape:document-units="px"
     inkscape:grid-bbox="true"
     inkscape:window-width="1366"
     inkscape:window-height="706"
     inkscape:window-x="0"
     inkscape:window-y="0"
     inkscape:window-maximized="1"
     inkscape:snap-text-baseline="true" />
  <metadata
     id="metadata2990">
    <rdf:RDF>
      <cc:Work
         rdf:about="">
        <dc:format>image/svg+xml</dc:format>
        <dc:type
           rdf:resource="http://purl.org/dc/dcmitype/StillImage" />
        <dc:title></dc:title>
      </cc:Work>
    </rdf:RDF>
  </metadata>
  <g
     id="layer1"
     inkscape:label="Layer 1"
     inkscape:groupmode="layer"
     transform="translate(0,448)">
    <g
       id="g877">
      <g
         style="fill:#8a715e;fill-opacity:1"
         id="g29"
         transform="matrix(8.0447856,6.9727289,-7.6918815,8.6750446,247.5303,-567.54657)">
        <path
           id="path27"
           d="M 24,1 C 36.703,1 47,11.297 47,24 47,36.703 36.703,47 24,47 11.297,47 1,36.703 1,24 1,11.297 11.297,1 24,1 Z"
           inkscape:connector-curvature="0"
           style="fill:#8a715e;fill-opacity:1" />
      </g>
      <path
         style="opacity:1;fill:#000000;fill-opacity:0.49019608;stroke-width:11.10955811"
         inkscape:connector-curvature="0"
         d="m 511.63551,-223.09647 c -1.5514,61.31165 -25.16124,124.154597 -70.96639,175.814487 C 342.95915,62.917109 180.91869,80.445854 78.725777,-8.128721 30.827124,-49.644349 4.4968216,-107.07717 0.19382846,-167.77121 0.79907918,-101.41453 27.117411,-37.517804 79.078681,7.5190525 181.27159,96.093627 343.31974,78.556207 441.02202,-31.634209 490.72696,-87.692347 514.02705,-156.92518 511.63551,-223.09647 Z"
         id="path51" />
      <path
         id="path37"
         transform="translate(0,-448)"
         d="M 370.07422 79.060547 L 363.91602 228.07617 L 352.04883 103.47266 L 347.0625 103.65625 L 344.875 208.65039 L 336.70898 124.94336 L 331.72461 125.05078 L 327.00781 212.31055 L 320.42383 164.02148 L 310.5957 179.74609 L 293.83203 166.03125 L 283.46289 180.8457 L 271.19922 165.51562 L 253.66406 190.35742 L 243.35156 161.14453 L 234.21484 196.17383 L 215.78516 140.88672 L 200.78711 199.37695 L 190.91016 159.86328 L 185.98828 160.34961 L 184.11523 199.65625 L 181.77734 140.42773 L 176.80273 140.18555 L 167.65234 206.52539 L 164.89648 172.53906 L 160.30273 172.62695 L 160.30273 96.039062 L 155.32031 95.75 L 145.39844 181.32617 L 141.87305 154.01367 L 136.9043 154.12305 L 132.68945 203.99414 L 132.68945 131.32227 L 127.72852 130.88477 L 118.12695 184.89844 L 115.78711 169.30273 L 110.86133 169.20117 L 107.01758 189.18945 L 105.07227 154.19336 L 100.08203 154.17773 L 97.40625 196.99219 L 97.40625 108.31055 L 92.416016 108.08789 L 82.978516 213.25977 L 70.767578 165.63867 L 35.1875 165.63867 L 35.1875 170.63867 L 66.888672 170.63867 L 81.746094 228.58789 L 86.658203 228.19141 L 92.40625 164.14062 L 92.40625 277.05859 L 97.402344 277.21289 L 102.42969 196.76562 L 103.14844 209.69727 L 108.09961 210.03125 L 113.00977 184.49219 L 115.44531 200.72656 L 120.37891 200.79297 L 127.68945 159.67383 L 127.68945 263.25195 L 132.68164 263.46094 L 139.91211 177.88281 L 143.05078 202.20898 L 148.01367 202.17578 L 155.30273 139.3125 L 155.30273 280.12695 L 160.30078 280.23242 L 163.17383 213.16406 L 164.51562 229.70312 L 169.48438 229.84375 L 177.89648 168.85352 L 181.38477 257.21289 L 186.37891 257.23438 L 190.17578 177.54102 L 198.33203 210.16602 L 203.17773 210.17969 L 216.41016 158.57422 L 234.79883 213.74023 L 244.06836 178.20117 L 252.16797 201.14648 L 271.44922 173.83203 L 283.73047 189.18359 L 294.83789 173.31641 L 311.82422 187.21289 L 317.33594 178.39453 L 325.60742 239.04492 L 330.58008 238.8418 L 334.93555 158.26562 L 344.00391 251.2207 L 348.99219 251.03125 L 351.16211 146.88867 L 362.41211 265.02148 L 367.40039 264.88867 L 372.47266 142.11914 L 377.74414 280.2207 L 382.74219 280.17773 L 385.07617 167.01172 L 390.0332 208.32227 L 395.01172 208.13086 L 396.97852 161.91797 L 405.38281 217.60352 L 410.35352 217.30469 L 411.96094 163.46875 L 417.63477 241.95508 L 422.62695 241.81055 L 423.81055 161.40625 L 434.54883 216.17578 L 439.5 215.8125 L 441.80078 166.36328 L 448.38867 191.77734 L 453.30859 191.15039 L 453.30859 177.16016 L 456.04688 188.66211 L 460.97852 188.08203 L 460.97852 164.45117 L 501.82031 163.58203 C 501.32353 161.91923 500.8046 160.26418 500.27148 158.61328 L 455.97852 159.55664 L 455.97852 166.78516 L 453.24023 155.28711 L 448.30859 155.86719 L 448.30859 171.54688 L 442.49023 149.10352 L 437.57422 149.61523 L 435.46875 194.88281 L 424.11523 136.97656 L 419.16211 137.42188 L 418.47461 184.22266 L 413.41797 114.26758 L 408.42383 114.37305 L 406.18555 189.41016 L 398.05469 135.55078 L 393.08594 135.81836 L 391.32617 177.14648 L 385.79297 131.02344 L 380.81055 131.26953 L 379.49609 195.02539 L 375.07031 79.068359 L 370.07422 79.060547 z "
         style="color:#000000;font-style:normal;font-variant:normal;font-weight:normal;font-stretch:normal;font-size:medium;line-height:normal;font-family:sans-serif;text-indent:0;text-align:start;text-decoration:none;text-decoration-line:none;text-decoration-style:solid;text-decoration-color:#000000;letter-spacing:normal;word-spacing:normal;text-transform:none;writing-mode:lr-tb;direction:ltr;baseline-shift:baseline;text-anchor:start;white-space:normal;clip-rule:nonzero;display:inline;overflow:visible;visibility:visible;opacity:1;isolation:auto;mix-blend-mode:normal;color-interpolation:sRGB;color-interpolation-filters:linearRGB;solid-color:#000000;solid-opacity:1;fill:#000000;fill-opacity:0.49019608;fill-rule:evenodd;stroke:none;stroke-width:5;stroke-linecap:butt;stroke-linejoin:miter;stroke-miterlimit:4;stroke-dasharray:none;stroke-dashoffset:0;stroke-opacity:1;color-rendering:auto;image-rendering:auto;shape-rendering:auto;text-rendering:auto;enable-background:accumulate" />
      <path
         id="path3340"
         transform="translate(0,-448)"
         d="M 350.07422 59.060547 L 343.91602 208.07617 L 332.04883 83.472656 L 327.0625 83.65625 L 324.875 188.65039 L 316.70898 104.94336 L 311.72461 105.05078 L 307.00781 192.31055 L 300.42383 144.02148 L 290.5957 159.74609 L 273.83203 146.03125 L 263.46289 160.8457 L 251.19922 145.51562 L 233.66406 170.35742 L 223.35156 141.14453 L 214.21484 176.17383 L 195.78516 120.88672 L 180.78711 179.37695 L 170.91016 139.86328 L 165.98828 140.34961 L 164.11523 179.65625 L 161.77734 120.42773 L 156.80273 120.18555 L 147.65234 186.52539 L 144.89648 152.53906 L 140.30273 152.62695 L 140.30273 76.039062 L 135.32031 75.75 L 125.39844 161.32617 L 121.87305 134.01367 L 116.9043 134.12305 L 112.68945 183.99414 L 112.68945 111.32227 L 107.72852 110.88477 L 98.126953 164.89844 L 95.787109 149.30273 L 90.861328 149.20117 L 87.017578 169.18945 L 85.072266 134.19336 L 80.082031 134.17773 L 77.40625 176.99219 L 77.40625 88.626953 C 75.52457 90.616424 73.661803 92.632855 71.824219 94.6875 L 62.978516 193.25977 L 50.767578 145.63867 L 35.287109 145.63867 C 34.351934 147.30019 33.427177 148.96517 32.529297 150.63867 L 46.888672 150.63867 L 61.746094 208.58789 L 66.658203 208.19141 L 72.40625 144.14062 L 72.40625 257.05859 L 77.402344 257.21289 L 82.429688 176.76562 L 83.148438 189.69727 L 88.099609 190.03125 L 93.009766 164.49219 L 95.445312 180.72656 L 100.37891 180.79297 L 107.68945 139.67383 L 107.68945 243.25195 L 112.68164 243.46094 L 119.91211 157.88281 L 123.05078 182.20898 L 128.01367 182.17578 L 135.30273 119.3125 L 135.30273 260.12695 L 140.30078 260.23242 L 143.17383 193.16406 L 144.51562 209.70312 L 149.48438 209.84375 L 157.89648 148.85352 L 161.38477 237.21289 L 166.37891 237.23438 L 170.17578 157.54102 L 178.33203 190.16602 L 183.17773 190.17969 L 196.41016 138.57422 L 214.79883 193.74023 L 224.06836 158.20117 L 232.16797 181.14648 L 251.44922 153.83203 L 263.73047 169.18359 L 274.83789 153.31641 L 291.82422 167.21289 L 297.33594 158.39453 L 305.60742 219.04492 L 310.58008 218.8418 L 314.93555 138.26562 L 324.00391 231.2207 L 328.99219 231.03125 L 331.16211 126.88867 L 342.41211 245.02148 L 347.40039 244.88867 L 352.47266 122.11914 L 357.74414 260.2207 L 362.74219 260.17773 L 365.07617 147.01172 L 370.0332 188.32227 L 375.01172 188.13086 L 376.97852 141.91797 L 385.38281 197.60352 L 390.35352 197.30469 L 391.96094 143.46875 L 397.63477 221.95508 L 402.62695 221.81055 L 403.81055 141.40625 L 414.54883 196.17578 L 419.5 195.8125 L 421.80078 146.36328 L 428.38867 171.77734 L 433.30859 171.15039 L 433.30859 157.16016 L 436.04688 168.66211 L 440.97852 168.08203 L 440.97852 144.45117 L 494.73047 143.30859 C 494.06338 141.64811 493.37952 139.99474 492.67383 138.34961 L 435.97852 139.55664 L 435.97852 146.78516 L 433.24023 135.28711 L 428.30859 135.86719 L 428.30859 151.54688 L 422.49023 129.10352 L 417.57422 129.61523 L 415.46875 174.88281 L 404.11523 116.97656 L 399.16211 117.42188 L 398.47461 164.22266 L 393.41797 94.267578 L 388.42383 94.373047 L 386.18555 169.41016 L 378.05469 115.55078 L 373.08594 115.81836 L 371.32617 157.14648 L 365.79297 111.02344 L 360.81055 111.26953 L 359.49609 175.02539 L 355.07031 59.068359 L 350.07422 59.060547 z "
         style="color:#000000;font-style:normal;font-variant:normal;font-weight:normal;font-stretch:normal;font-size:medium;line-height:normal;font-family:sans-serif;text-indent:0;text-align:start;text-decoration:none;text-decoration-line:none;text-decoration-style:solid;text-decoration-color:#000000;letter-spacing:normal;word-spacing:normal;text-transform:none;writing-mode:lr-tb;direction:ltr;baseline-shift:baseline;text-anchor:start;white-space:normal;clip-rule:nonzero;display:inline;overflow:visible;visibility:visible;opacity:1;isolation:auto;mix-blend-mode:normal;color-interpolation:sRGB;color-interpolation-filters:linearRGB;solid-color:#000000;solid-opacity:1;fill:#ffffff;fill-opacity:1;fill-rule:evenodd;stroke:none;stroke-width:5;stroke-linecap:butt;stroke-linejoin:miter;stroke-miterlimit:4;stroke-dasharray:none;stroke-dashoffset:0;stroke-opacity:1;color-rendering:auto;image-rendering:auto;shape-rendering:auto;text-rendering:auto;enable-background:accumulate" />
      <path
         id="path39"
         transform="translate(0,-448)"
         d="M 294.91016 289.14453 L 282.24219 459.45117 L 259.94141 371.55469 L 255.04297 371.80664 L 248.90039 413.58203 L 229.26562 354.68164 L 219.38867 405.48047 L 212.42969 362.56445 L 207.47266 362.72266 L 201.72266 421.86719 L 201.72266 292.39844 L 196.74609 292.05273 L 181.69531 400.15625 L 175.57422 374.6543 L 170.65625 374.99609 L 167.1875 410.82617 L 157.10742 380.58398 L 152.23438 381.375 L 152.23438 413.82031 L 141.83594 367.02539 L 136.89844 367.41992 L 132.86133 436.05078 L 121.94336 301.40039 L 116.95703 301.44141 L 106.36719 464.24414 L 92.785156 358.04688 L 87.804688 358.29297 L 86.255859 414.0625 L 78.992188 299.91016 L 73.998047 300.02734 L 71.541016 448.6582 C 73.155569 450.18901 74.797837 451.69947 76.466797 453.19141 L 77.966797 362.50195 L 84.158203 459.78906 C 86.039833 461.327 87.944622 462.82216 89.863281 464.29102 L 91.910156 390.61719 L 102.48242 473.2832 C 105.11447 475.02737 107.77474 476.71326 110.46289 478.33789 L 119.72461 335.92383 L 130.76562 472.08594 L 135.75391 472.03125 L 140.83789 385.59375 L 152.29492 437.14258 L 157.23438 436.59961 L 157.23438 396.77734 L 166.16992 423.58398 L 171.0293 423.03516 L 174.19531 390.32812 L 179.91797 414.17188 L 184.82422 413.93359 L 196.72266 328.48438 L 196.72266 473.41797 L 201.71094 473.66016 L 210.58203 382.41016 L 216.69727 420.125 L 221.61914 420.20312 L 230.54102 374.31445 L 247.47461 425.11914 L 252.32031 424.69141 L 258.16992 384.91016 L 281.17383 475.56641 L 286.08984 475.13672 L 295.52344 348.31055 L 296.4375 435.0918 L 301.40234 435.47656 L 309.08398 389.38477 L 313.32422 430.71875 L 318.30078 430.70312 L 323.76367 373.88867 L 331.73828 439.96875 L 336.71094 439.89062 L 341.67188 384.07422 C 343.6827 391.05205 345.18468 396.36724 348.69922 408.16602 C 351.38658 417.18794 354.07201 426.01655 356.09961 432.24414 C 357.11341 435.35793 357.95374 437.80246 358.58984 439.39258 C 358.90784 440.18763 359.02518 440.63364 359.58008 441.38672 C 359.71878 441.57499 359.85087 441.82259 360.41797 442.16016 C 360.70157 442.32895 361.15144 442.53427 361.77344 442.52539 C 362.39534 442.51649 363.08776 442.19923 363.47266 441.8418 C 364.24246 441.12695 364.22334 440.6404 364.27734 440.34375 C 364.33134 440.04709 364.33398 439.85499 364.33398 439.66797 C 364.33398 438.4464 364.61472 434.2989 365.04492 429.13672 C 365.47512 423.97453 366.04825 417.65291 366.62305 411.52148 C 367.33505 403.92755 367.60787 401.26555 368.04688 396.80664 L 379.30469 420.72852 L 390.0293 382.42773 L 409.61719 424.61719 L 421.88281 392.41992 L 432.14453 414.65234 L 435.75195 389.40234 L 447.9375 400.23438 L 460.65234 386.10742 L 462.01953 389.75195 C 463.18967 388.07561 464.33399 386.38814 465.46289 384.69531 L 462.44336 376.64258 L 447.54492 393.19531 L 432.11719 379.48242 L 429.58789 397.18359 L 421.44141 379.5332 L 409.16211 411.76562 L 388.86328 368.04688 L 378.11133 406.44922 L 364.84766 378.26562 L 363.94727 387.26172 C 363.94727 387.26172 362.79788 398.77255 361.64648 411.05469 C 361.08608 417.03145 360.53202 423.13771 360.10352 428.25 C 358.18952 422.26952 355.89813 414.82388 353.49023 406.74023 C 348.12657 388.7336 342.75977 369.94922 342.75977 369.94922 L 337.86719 370.41406 L 333.84375 415.67578 L 325.96484 350.39258 L 320.99414 350.45312 L 315.73047 405.17578 L 312.16211 370.38086 L 307.20898 370.22461 L 301.13867 406.64844 L 299.90234 289.30469 L 294.91016 289.14453 z M 35.1875 395.74805 L 35.1875 400.74805 L 55.990234 400.74805 L 62.873047 439.98242 C 64.888078 442.11144 66.943206 444.21381 69.054688 446.27734 L 60.189453 395.74805 L 35.1875 395.74805 z "
         style="color:#000000;font-style:normal;font-variant:normal;font-weight:normal;font-stretch:normal;font-size:medium;line-height:normal;font-family:sans-serif;text-indent:0;text-align:start;text-decoration:none;text-decoration-line:none;text-decoration-style:solid;text-decoration-color:#000000;letter-spacing:normal;word-spacing:normal;text-transform:none;writing-mode:lr-tb;direction:ltr;baseline-shift:baseline;text-anchor:start;white-space:normal;clip-rule:nonzero;display:inline;overflow:visible;visibility:visible;opacity:1;isolation:auto;mix-blend-mode:normal;color-interpolation:sRGB;color-interpolation-filters:linearRGB;solid-color:#000000;solid-opacity:1;fill:#000000;fill-opacity:0.49019608;fill-rule:evenodd;stroke:none;stroke-width:5;stroke-linecap:butt;stroke-linejoin:miter;stroke-miterlimit:4;stroke-dasharray:none;stroke-dashoffset:0;stroke-opacity:1;color-rendering:auto;image-rendering:auto;shape-rendering:auto;text-rendering:auto;enable-background:accumulate" />
      <path
         id="path4148"
         transform="translate(0,-448)"
         d="M 274.91016 269.14453 L 262.24219 439.45117 L 239.94141 351.55469 L 235.04297 351.80664 L 228.90039 393.58203 L 209.26562 334.68164 L 199.38867 385.48047 L 192.42969 342.56445 L 187.47266 342.72266 L 181.72266 401.86719 L 181.72266 272.39844 L 176.74609 272.05273 L 161.69531 380.15625 L 155.57422 354.6543 L 150.65625 354.99609 L 147.1875 390.82617 L 137.10742 360.58398 L 132.23438 361.375 L 132.23438 393.82031 L 121.83594 347.02539 L 116.89844 347.41992 L 112.86133 416.05078 L 101.94336 281.40039 L 96.957031 281.44141 L 86.367188 444.24414 L 72.785156 338.04688 L 67.804688 338.29297 L 66.255859 394.0625 L 58.992188 279.91016 L 53.998047 280.02734 L 51.566406 427.08984 C 53.167486 429.06294 54.797296 431.01843 56.472656 432.94531 L 57.966797 342.50195 L 64.263672 441.44531 C 66.072114 443.32217 67.90462 445.18293 69.789062 447.00781 L 71.910156 370.61719 L 83.214844 459.00586 C 85.470364 460.86962 87.755224 462.67955 90.064453 464.44336 L 99.724609 315.92383 L 110.76562 452.08594 L 115.75391 452.03125 L 120.83789 365.59375 L 132.29492 417.14258 L 137.23438 416.59961 L 137.23438 376.77734 L 146.16992 403.58398 L 151.0293 403.03516 L 154.19531 370.32812 L 159.91797 394.17188 L 164.82422 393.93359 L 176.72266 308.48438 L 176.72266 453.41797 L 181.71094 453.66016 L 190.58203 362.41016 L 196.69727 400.125 L 201.61914 400.20312 L 210.54102 354.31445 L 227.47461 405.11914 L 232.32031 404.69141 L 238.16992 364.91016 L 261.17383 455.56641 L 266.08984 455.13672 L 275.52344 328.31055 L 276.4375 415.0918 L 281.40234 415.47656 L 289.08398 369.38477 L 293.32422 410.71875 L 298.30078 410.70312 L 303.76367 353.88867 L 311.73828 419.96875 L 316.71094 419.89062 L 321.67188 364.07422 C 323.6827 371.05205 325.18468 376.36724 328.69922 388.16602 C 331.38658 397.18794 334.07201 406.01655 336.09961 412.24414 C 337.11341 415.35793 337.95374 417.80246 338.58984 419.39258 C 338.90784 420.18763 339.02518 420.63364 339.58008 421.38672 C 339.71878 421.57499 339.85087 421.82259 340.41797 422.16016 C 340.70157 422.32895 341.15144 422.53427 341.77344 422.52539 C 342.39534 422.51649 343.08776 422.19923 343.47266 421.8418 C 344.24246 421.12695 344.22334 420.6404 344.27734 420.34375 C 344.33134 420.04709 344.33398 419.85499 344.33398 419.66797 C 344.33398 418.4464 344.61472 414.2989 345.04492 409.13672 C 345.47512 403.97453 346.04825 397.65291 346.62305 391.52148 C 347.33505 383.92755 347.60787 381.26555 348.04688 376.80664 L 359.30469 400.72852 L 370.0293 362.42773 L 389.61719 404.61719 L 401.88281 372.41992 L 412.14453 394.65234 L 415.75195 369.40234 L 427.9375 380.23438 L 440.65234 366.10742 L 444.41797 376.14648 L 470.93164 376.14648 C 471.95579 374.48601 472.96352 372.82057 473.94922 371.14648 L 447.88281 371.14648 L 442.44336 356.64258 L 427.54492 373.19531 L 412.11719 359.48242 L 409.58789 377.18359 L 401.44141 359.5332 L 389.16211 391.76562 L 368.86328 348.04688 L 358.11133 386.44922 L 344.84766 358.26562 L 343.94727 367.26172 C 343.94727 367.26172 342.79788 378.77255 341.64648 391.05469 C 341.08608 397.03145 340.53202 403.13771 340.10352 408.25 C 338.18952 402.26952 335.89813 394.82388 333.49023 386.74023 C 328.12657 368.7336 322.75977 349.94922 322.75977 349.94922 L 317.86719 350.41406 L 313.84375 395.67578 L 305.96484 330.39258 L 300.99414 330.45312 L 295.73047 385.17578 L 292.16211 350.38086 L 287.20898 350.22461 L 281.13867 386.64844 L 279.90234 269.30469 L 274.91016 269.14453 z M 20.238281 375.74805 C 20.976764 377.42356 21.736797 379.0896 22.515625 380.74805 L 35.990234 380.74805 L 41.867188 414.25195 C 44.002677 417.3072 46.229108 420.31195 48.527344 423.27344 L 40.189453 375.74805 L 20.238281 375.74805 z "
         style="color:#000000;font-style:normal;font-variant:normal;font-weight:normal;font-stretch:normal;font-size:medium;line-height:normal;font-family:sans-serif;text-indent:0;text-align:start;text-decoration:none;text-decoration-line:none;text-decoration-style:solid;text-decoration-color:#000000;letter-spacing:normal;word-spacing:normal;text-transform:none;writing-mode:lr-tb;direction:ltr;baseline-shift:baseline;text-anchor:start;white-space:normal;clip-rule:nonzero;display:inline;overflow:visible;visibility:visible;opacity:1;isolation:auto;mix-blend-mode:normal;color-interpolation:sRGB;color-interpolation-filters:linearRGB;solid-color:#000000;solid-opacity:1;fill:#ffffff;fill-opacity:1;fill-rule:evenodd;stroke:none;stroke-width:5;stroke-linecap:butt;stroke-linejoin:miter;stroke-miterlimit:4;stroke-dasharray:none;stroke-dashoffset:0;stroke-opacity:1;color-rendering:auto;image-rendering:auto;shape-rendering:auto;text-rendering:auto;enable-background:accumulate" />
      <g
         transform="matrix(8.0447856,6.9727289,-7.6918815,8.6750446,247.5303,-567.54657)"
         id="g848"
         style="fill:#8a715e;fill-opacity:1" />
      <g
         transform="matrix(8.0447856,6.9727289,-7.6918815,8.6750446,247.5303,-567.54657)"
         id="g853"
         style="fill:#8a715e;fill-opacity:1" />
      <g
         transform="matrix(8.0447856,6.9727289,-7.6918815,8.6750446,247.5303,-567.54657)"
         id="g858"
         style="fill:#8a715e;fill-opacity:1" />
      <g
         transform="matrix(8.0447856,6.9727289,-7.6918815,8.6750446,247.5303,-567.54657)"
         id="g863"
         style="fill:#8a715e;fill-opacity:1" />
    </g>
  </g>
</svg>
