<?xml version="1.0" encoding="UTF-8" standalone="no"?>
<!-- Created with Inkscape (http://www.inkscape.org/) -->

<svg
   xmlns:dc="http://purl.org/dc/elements/1.1/"
   xmlns:cc="http://creativecommons.org/ns#"
   xmlns:rdf="http://www.w3.org/1999/02/22-rdf-syntax-ns#"
   xmlns:svg="http://www.w3.org/2000/svg"
   xmlns="http://www.w3.org/2000/svg"
   xmlns:sodipodi="http://sodipodi.sourceforge.net/DTD/sodipodi-0.dtd"
   xmlns:inkscape="http://www.inkscape.org/namespaces/inkscape"
   id="svg2"
   version="1.1"
   inkscape:version="0.92.2 2405546, 2018-03-11"
   width="512"
   height="512"
   viewBox="0 0 511.99999 511.99999"
   sodipodi:docname="zeal.svg">
  <metadata
     id="metadata8">
    <rdf:RDF>
      <cc:Work
         rdf:about="">
        <dc:format>image/svg+xml</dc:format>
        <dc:type
           rdf:resource="http://purl.org/dc/dcmitype/StillImage" />
        <dc:title></dc:title>
      </cc:Work>
    </rdf:RDF>
  </metadata>
  <defs
     id="defs6" />
  <sodipodi:namedview
     pagecolor="#ffffff"
     bordercolor="#666666"
     borderopacity="1"
     objecttolerance="10"
     gridtolerance="10"
     guidetolerance="10"
     inkscape:pageopacity="0"
     inkscape:pageshadow="2"
     inkscape:window-width="1366"
     inkscape:window-height="706"
     id="namedview4"
     inkscape:document-units="px"
     showgrid="false"
     inkscape:zoom="0.5814296"
     inkscape:cx="489.87602"
     inkscape:cy="214.81024"
     inkscape:window-x="0"
     inkscape:window-y="0"
     inkscape:window-maximized="1"
     inkscape:current-layer="svg2" />
  <g
     id="g857">
    <path
       style="fill:#c6262e;fill-opacity:1;stroke-width:11.10955811"
       inkscape:connector-curvature="0"
       d="M 432.91322,56.473985 C 535.10617,145.0487 538.74009,306.17382 441.03002,416.37285 343.31994,526.57187 181.27962,544.10051 79.086658,455.52613 -23.106292,366.95142 -26.739896,205.8263 70.969858,95.627265 168.67994,-14.571775 330.72026,-32.100735 432.91322,56.473985 Z"
       id="path52" />
    <path
       style="opacity:1;fill:#000000;fill-opacity:0.49019608;stroke-width:11.10955811"
       inkscape:connector-curvature="0"
       d="M 511.63545,224.90342 C 510.08345,286.2151 486.47418,349.0583 440.66906,400.71814 342.9593,510.91716 180.91866,528.44579 78.725698,439.87141 30.827138,398.35558 4.4969077,340.92294 0.19386776,280.22886 c 0.6048,66.3568 26.92352024,130.25343 78.88479024,175.29023 102.192962,88.5747 264.240962,71.0371 361.943362,-39.15328 49.70495,-56.05823 73.00511,-125.29087 70.61343,-191.46239 z"
       id="path54" />
    <path
       inkscape:connector-curvature="0"
       style="fill:#000000;stroke-width:0.86791039;fill-opacity:0.49019608"
       d="m 181.35742,120.00047 -5.85156,2.27734 c -13.35327,5.19512 -23.18283,13.80607 -28.80859,25.23828 -4.22932,8.59454 -5.66349,16.16718 -5.68165,29.98438 L 141,188.99852 h 18.20508 18.20703 l 1.53711,2.34765 c 2.12618,3.24522 2.12715,12.88183 0.002,16.13086 l -1.53906,2.35156 H 159.20703 141 v 27.77344 27.77344 h 18.58203 18.58399 l 2.13867,2.54102 c 2.68883,3.19551 3.56733,7.71099 2.36719,12.16796 -1.59371,5.91851 -2.358,6.1211 -23.20508,6.1211 H 141 v 27.77344 27.77343 h 19.07422 19.07422 l 1.53906,2.34766 c 1.12213,1.71259 1.53906,4.08175 1.53906,8.75391 0,9.83451 0.25375,9.72656 -22.66211,9.72656 H 141 v 12.4668 c 2e-5,14.20605 0.75487,19.26717 4.01367,26.86328 3.0248,11.19099 8.83072,16.04934 16.94141,21.57031 l 6.25586,2.9707 c 11.97638,5.68753 8.93421,5.53022 108.26172,5.54688 86.72022,0.0145 90.14331,-0.0455 96.60937,-1.69922 9.55614,-2.44405 16.47538,-6.38826 23.5918,-13.44727 4.40476,-4.36923 7.05765,-7.95025 9.34179,-12.61133 5.97454,-12.19159 5.74107,-7.09515 5.75782,-124.73242 l 0.01,-67.6582 h -0.19726 l -0.25,-50.61133 c 0,0 -1.76735,-5.44755 -2.87891,-8.49609 -5.21285,-14.29674 -16.91112,-25.49045 -32.14453,-30.75586 l -5.75024,-1.98633 h -94.60156 z m 64.86524,83.47656 c 4.23351,0 10.52289,0.46053 18.86718,1.38086 8.40565,0.85898 14.72547,1.28906 18.95899,1.28906 4.72432,0 11.78064,-0.30833 21.16797,-0.92187 9.44871,-0.61354 16.56589,-0.91992 21.35156,-0.91992 15.76826,0 23.65234,2.97629 23.65234,8.92773 0,4.04943 -3.5586,8.71174 -10.67578,13.98828 l -12.42578,8.4668 c -11.16663,8.65108 -23.80437,22.48772 -37.91602,41.50781 l -32.30468,47.02735 c -1.53388,2.3315 -3.03725,4.47999 -4.50977,6.44336 l 35.80078,-1.38086 c 15.64556,-0.73625 27.60964,-1.10352 35.89258,-1.10352 8.09886,0 14.08189,0.36727 17.94727,1.10352 4.96976,0.98168 7.54638,3.49741 7.73047,7.54687 0.12282,3.0064 -0.85913,5.39846 -2.94532,7.17774 -1.84066,1.53387 -4.14135,2.30078 -6.90234,2.30078 -1.77928,0 -4.44727,-0.12185 -8.00586,-0.36719 -3.55862,-0.18409 -6.22853,-0.27539 -8.00781,-0.27539 -9.32598,0 -23.3453,0.21312 -42.0586,0.64258 -18.65195,0.49084 -32.64082,0.73633 -41.96679,0.73633 -7.05586,0 -10.58399,-3.09808 -10.58399,-9.29493 0,-4.04943 1.90301,-9.14182 5.70703,-15.27734 l 9.84571,-13.71289 33.22461,-46.19922 c 13.68219,-18.09976 26.41318,-32.15144 38.19336,-42.15234 l -32.21094,1.84179 h -37.18164 c -0.6749,0 -1.68729,0.0608 -3.03711,0.1836 -1.28847,0.0613 -2.23997,0.0918 -2.85352,0.0918 -6.50363,0 -9.7539,-3.15893 -9.7539,-9.47851 0,-4.17213 1.65556,-6.93339 4.96875,-8.28321 2.02471,-0.85897 5.36827,-1.28906 10.03125,-1.28906 z"
       id="path850" />
    <path
       id="path36"
       d="M 161.35742 100 L 155.50586 102.27734 C 142.15259 107.47246 132.32303 116.08341 126.69727 127.51562 C 122.46795 136.11016 121.03378 143.6828 121.01562 157.5 L 121 168.99805 L 139.20508 168.99805 L 157.41211 168.99805 L 158.94922 171.3457 C 161.0754 174.59092 161.07637 184.22753 158.95117 187.47656 L 157.41211 189.82812 L 139.20703 189.82812 L 121 189.82812 L 121 217.60156 L 121 245.375 L 139.58203 245.375 L 158.16602 245.375 L 160.30469 247.91602 C 162.99352 251.11153 163.87202 255.62701 162.67188 260.08398 C 161.07817 266.00249 160.31388 266.20508 139.4668 266.20508 L 121 266.20508 L 121 293.97852 L 121 321.75195 L 140.07422 321.75195 L 159.14844 321.75195 L 160.6875 324.09961 C 161.80963 325.8122 162.22656 328.18136 162.22656 332.85352 C 162.22656 342.68803 162.48031 342.58008 139.56445 342.58008 L 121 342.58008 L 121 355.04688 C 121.00002 369.25293 121.75487 374.31405 125.01367 381.91016 C 128.03847 393.10115 133.84439 397.9595 141.95508 403.48047 L 148.21094 406.45117 C 160.18732 412.1387 157.14515 411.98139 256.47266 411.99805 C 343.19288 412.01255 346.61597 411.95255 353.08203 410.29883 C 362.63817 407.85478 369.55741 403.91057 376.67383 396.85156 C 381.07859 392.48233 383.73148 388.90131 386.01562 384.24023 C 391.99016 372.04864 391.75669 377.14508 391.77344 259.50781 L 391.7832 191.84961 L 391.58594 191.84961 L 391.33594 141.23828 C 391.33594 141.23828 389.56859 135.79073 388.45703 132.74219 C 383.24418 118.44545 371.54591 107.25174 356.3125 101.98633 L 350.5625 100 L 255.96094 100 L 161.35742 100 z M 226.22266 183.47656 C 230.45617 183.47656 236.74555 183.93709 245.08984 184.85742 C 253.49549 185.7164 259.81531 186.14648 264.04883 186.14648 C 268.77315 186.14648 275.82947 185.83815 285.2168 185.22461 C 294.66551 184.61107 301.78269 184.30469 306.56836 184.30469 C 322.33662 184.30469 330.2207 187.28098 330.2207 193.23242 C 330.2207 197.28185 326.6621 201.94416 319.54492 207.2207 L 307.11914 215.6875 C 295.95251 224.33858 283.31477 238.17522 269.20312 257.19531 L 236.89844 304.22266 C 235.36456 306.55416 233.86119 308.70265 232.38867 310.66602 L 268.18945 309.28516 C 283.83501 308.54891 295.79909 308.18164 304.08203 308.18164 C 312.18089 308.18164 318.16392 308.54891 322.0293 309.28516 C 326.99906 310.26684 329.57568 312.78257 329.75977 316.83203 C 329.88259 319.83843 328.90064 322.23049 326.81445 324.00977 C 324.97379 325.54364 322.6731 326.31055 319.91211 326.31055 C 318.13283 326.31055 315.46484 326.1887 311.90625 325.94336 C 308.34763 325.75927 305.67772 325.66797 303.89844 325.66797 C 294.57246 325.66797 280.55314 325.88109 261.83984 326.31055 C 243.18789 326.80139 229.19902 327.04688 219.87305 327.04688 C 212.81719 327.04688 209.28906 323.9488 209.28906 317.75195 C 209.28906 313.70252 211.19207 308.61013 214.99609 302.47461 L 224.8418 288.76172 L 258.06641 242.5625 C 271.7486 224.46274 284.47959 210.41106 296.25977 200.41016 L 264.04883 202.25195 L 226.86719 202.25195 C 226.19229 202.25195 225.1799 202.31272 223.83008 202.43555 C 222.54161 202.4968 221.59011 202.52734 220.97656 202.52734 C 214.47293 202.52734 211.22266 199.36841 211.22266 193.04883 C 211.22266 188.8767 212.87822 186.11544 216.19141 184.76562 C 218.21612 183.90665 221.55968 183.47656 226.22266 183.47656 z "
       style="fill:#ffffff;stroke-width:0.86791039" />
    <g
       transform="matrix(4.7120714,0,0,4.7120714,-708.12906,-663.88643)"
       id="flowRoot838"
       style="font-style:normal;font-weight:normal;font-size:40px;line-height:1.25;font-family:sans-serif;letter-spacing:0px;word-spacing:0px;fill:#000000;fill-opacity:1;stroke:none"
       aria-label="Z" />
  </g>
</svg>
