<?xml version="1.0" encoding="UTF-8" standalone="no"?>
<!-- Created with Inkscape (http://www.inkscape.org/) -->

<svg
   xmlns:dc="http://purl.org/dc/elements/1.1/"
   xmlns:cc="http://creativecommons.org/ns#"
   xmlns:rdf="http://www.w3.org/1999/02/22-rdf-syntax-ns#"
   xmlns:svg="http://www.w3.org/2000/svg"
   xmlns="http://www.w3.org/2000/svg"
   xmlns:sodipodi="http://sodipodi.sourceforge.net/DTD/sodipodi-0.dtd"
   xmlns:inkscape="http://www.inkscape.org/namespaces/inkscape"
   id="svg2"
   version="1.1"
   inkscape:version="0.92.2 2405546, 2018-03-11"
   width="512"
   height="512"
   sodipodi:docname="zim.svg">
  <metadata
     id="metadata8">
    <rdf:RDF>
      <cc:Work
         rdf:about="">
        <dc:format>image/svg+xml</dc:format>
        <dc:type
           rdf:resource="http://purl.org/dc/dcmitype/StillImage" />
        <dc:title></dc:title>
      </cc:Work>
    </rdf:RDF>
  </metadata>
  <defs
     id="defs6" />
  <sodipodi:namedview
     pagecolor="#ffffff"
     bordercolor="#666666"
     borderopacity="1"
     objecttolerance="10"
     gridtolerance="10"
     guidetolerance="10"
     inkscape:pageopacity="0"
     inkscape:pageshadow="2"
     inkscape:window-width="1188"
     inkscape:window-height="650"
     id="namedview4"
     showgrid="false"
     inkscape:zoom="0.25"
     inkscape:cx="-87.0516"
     inkscape:cy="501.22845"
     inkscape:window-x="15"
     inkscape:window-y="39"
     inkscape:window-maximized="0"
     inkscape:current-layer="svg2" />
  <g
     id="g872"
     transform="translate(1.7245072e-8,489.99997)">
    <path
       style="fill:#3689e6;fill-opacity:1;stroke-width:11.10955811"
       inkscape:connector-curvature="0"
       d="m 432.91327,-433.52599 c 102.19291,88.57459 105.82678,249.6997 8.1168,359.898785 C 343.3201,36.571877 181.27964,54.100646 79.086729,-34.473944 -23.106186,-123.04853 -26.740042,-284.17365 70.969928,-394.37273 168.6799,-504.57181 330.72036,-522.10058 432.91327,-433.52599 Z"
       id="path27" />
    <path
       inkscape:connector-curvature="0"
       id="path877"
       d="m 280.93555,-345.53906 -4.38282,7.55664 0.6875,-1 c -0.96587,1.19239 -1.75552,2.36413 -2.43554,3.67773 -0.34002,0.6568 -0.65856,1.33074 -0.94922,2.30274 -0.29066,0.97199 -1.01652,2.16055 -0.006,5.27929 v 0.002 l 0.002,0.002 c 1.1119,3.42464 1.78657,3.02444 2.14453,3.36133 0.35797,0.33688 0.56242,0.49092 0.75196,0.63672 0.37907,0.2916 0.66669,0.4869 1,0.71093 0.66662,0.44807 1.46256,0.95449 2.46289,1.57422 2.00065,1.23948 4.77351,2.90175 8.17383,4.90821 5.09959,3.00916 12.47063,7.23151 19.6914,11.36523 l -0.0254,0.0488 6.59375,3.74219 c 10.16833,5.77435 19.55452,11.03216 26.51953,14.86718 3.48251,1.91752 6.35458,3.47571 8.45313,4.58594 1.04927,0.55512 1.89688,0.99473 2.5957,1.33985 0.34941,0.17255 0.64939,0.31892 1.01367,0.47851 0.18214,0.0798 0.37142,0.1618 0.69141,0.27734 0.31999,0.11555 0.36631,0.36474 2.29883,0.48243 h 0.01 l 0.0117,0.002 c 2.95067,0.17114 4.22464,-0.77042 5.19336,-1.36133 0.96872,-0.5909 1.60685,-1.15165 2.20313,-1.72656 1.19188,-1.14918 2.14674,-2.37542 3.03515,-3.81641 l 0.002,-0.002 c 0.95577,-1.54894 1.91661,-2.81782 2.39648,-5.61914 0.4801,-2.8027 -1.39542,-7.21739 -3.08984,-8.73047 -1.60127,-1.43133 -1.34092,-1.01652 -1.94141,-1.40234 -0.60157,-0.38652 -1.36028,-0.85915 -2.28906,-1.43164 -1.85756,-1.14499 -4.38251,-2.67428 -7.38672,-4.47266 -6.00842,-3.59677 -13.92264,-8.26626 -22.04688,-12.97266 -8.12423,-4.70639 -16.44785,-9.44508 -23.30468,-13.19531 -3.42842,-1.87512 -6.48672,-3.5007 -9.02149,-4.77539 -2.53476,-1.27469 -4.19405,-2.1419 -6.41992,-2.82422 z"
       style="color:#000000;font-style:normal;font-variant:normal;font-weight:normal;font-stretch:normal;font-size:medium;line-height:normal;font-family:sans-serif;font-variant-ligatures:normal;font-variant-position:normal;font-variant-caps:normal;font-variant-numeric:normal;font-variant-alternates:normal;font-feature-settings:normal;text-indent:0;text-align:start;text-decoration:none;text-decoration-line:none;text-decoration-style:solid;text-decoration-color:#000000;letter-spacing:normal;word-spacing:normal;text-transform:none;writing-mode:lr-tb;direction:ltr;text-orientation:mixed;dominant-baseline:auto;baseline-shift:baseline;text-anchor:start;white-space:normal;shape-padding:0;clip-rule:nonzero;display:inline;overflow:visible;visibility:visible;opacity:1;isolation:auto;mix-blend-mode:normal;color-interpolation:sRGB;color-interpolation-filters:linearRGB;solid-color:#000000;solid-opacity:1;vector-effect:none;fill:#000000;fill-opacity:0.49019608;fill-rule:nonzero;stroke:none;stroke-width:15.65446568;stroke-linecap:round;stroke-linejoin:miter;stroke-miterlimit:4;stroke-dasharray:none;stroke-dashoffset:0;stroke-opacity:1;color-rendering:auto;image-rendering:auto;shape-rendering:auto;text-rendering:auto;enable-background:accumulate" />
    <path
       style="fill:#000000;fill-opacity:0.49019608;stroke-width:0.72811484"
       d="m 255.27179,-130.38162 c -8.02621,-4.71553 -21.01078,-12.33547 -28.85463,-16.93765 -7.8438,-4.60169 -16.35093,-9.63761 -18.90473,-11.18793 -2.55395,-1.55286 -8.71123,-5.10373 -13.68316,-7.89839 -4.97177,-2.79518 -11.07713,-3.60264 -11.84756,-4.24448 -1.39758,-1.16466 0.10352,-3.33354 42.70886,-77.10202 23.48653,-40.66451 42.57444,-72.85081 42.96322,-72.98072 0.76038,-0.25889 18.20593,10.21943 20.70716,11.72569 0.97675,0.59009 4.70519,2.3345 8.17119,4.13068 3.466,1.79611 11.8094,5.58822 18.29979,9.39175 6.4904,3.80451 18.28105,10.69821 26.20136,15.32266 7.9203,4.6224 14.49437,8.86374 14.60904,9.42122 0.1138,0.55903 -8.42342,16.02667 -18.97349,34.37639 -10.55014,18.34976 -29.29994,50.96361 -41.66629,72.47498 -12.36638,21.51137 -23.08133,39.77983 -23.81095,40.59613 l -1.32668,1.48558 z"
       id="path879"
       inkscape:connector-curvature="0"
       sodipodi:nodetypes="sssssscsssssssscs" />
    <path
       style="fill:#000000;fill-opacity:0.49019608;stroke-width:0.72811484"
       d="m 362.08966,-310.02386 c -7.11417,-4.09957 -26.36716,-15.15654 -42.78446,-24.57312 -16.4173,-9.41711 -30.35944,-17.60126 -30.98256,-18.1872 -1.06425,-0.99901 -1.00936,-1.27854 0.896,-4.57059 1.88777,-3.26105 2.49701,-3.72687 8.76118,-6.74048 8.26635,-3.97538 13.34976,-5.30978 22.13454,-5.80985 29.10636,-1.65634 54.52882,18.52267 59.5405,47.26212 1.49902,8.59514 1.337,11.01294 -1.01508,15.18085 -1.11286,1.97212 -2.38104,3.877 -2.81897,4.23413 -0.55851,0.46586 -4.65658,-1.57357 -13.73115,-6.79948 z"
       id="path881"
       inkscape:connector-curvature="0" />
    <path
       style="fill:#000000;fill-opacity:0.49019608;stroke-width:0.72811484"
       d="m 173.05418,-61.775601 c -0.0317,-2.225801 -0.35717,-9.692523 -0.72778,-16.595527 -0.36752,-6.903534 -0.4348,-12.813733 -0.15012,-13.133632 0.58077,-0.652233 30.40905,16.199509 30.81151,17.407143 0.19668,0.59006 -25.30825,14.679761 -29.11971,16.087711 -0.4141,0.155338 -0.78109,-1.542539 -0.81267,-3.768303 z"
       id="path883"
       inkscape:connector-curvature="0" />
    <path
       style="color:#000000;font-style:normal;font-variant:normal;font-weight:normal;font-stretch:normal;font-size:medium;line-height:normal;font-family:sans-serif;font-variant-ligatures:normal;font-variant-position:normal;font-variant-caps:normal;font-variant-numeric:normal;font-variant-alternates:normal;font-feature-settings:normal;text-indent:0;text-align:start;text-decoration:none;text-decoration-line:none;text-decoration-style:solid;text-decoration-color:#000000;letter-spacing:normal;word-spacing:normal;text-transform:none;writing-mode:lr-tb;direction:ltr;text-orientation:mixed;dominant-baseline:auto;baseline-shift:baseline;text-anchor:start;white-space:normal;shape-padding:0;clip-rule:nonzero;display:inline;overflow:visible;visibility:visible;opacity:1;isolation:auto;mix-blend-mode:normal;color-interpolation:sRGB;color-interpolation-filters:linearRGB;solid-color:#000000;solid-opacity:1;vector-effect:none;fill:#000000;fill-opacity:0.49019608;fill-rule:nonzero;stroke:none;stroke-width:15.65446568;stroke-linecap:round;stroke-linejoin:miter;stroke-miterlimit:4;stroke-dasharray:none;stroke-dashoffset:0;stroke-opacity:1;color-rendering:auto;image-rendering:auto;shape-rendering:auto;text-rendering:auto;enable-background:accumulate"
       d="m 182.0128,-164.63877 c -1.25408,0 -4.58762,0.57173 -6.67323,2.89368 -2.0856,2.32199 -2.21833,4.33452 -2.3622,5.69881 -0.28774,2.72863 -0.0711,5.00523 0.19929,9.39715 0.31465,5.11042 0.87118,17.61665 1.21064,27.44588 l 0.76771,22.123536 10.29774,6.510803 v -0.0076 c 2.6767,1.692472 5.56066,3.469795 8.27509,5.145184 l 0.008,0.06652 3.4252,2.07428 c 1.36204,0.825751 2.64177,1.578671 3.66142,2.16291 0.50983,0.292158 0.9487,0.541493 1.35827,0.760328 0.20477,0.109606 0.38776,0.203338 0.65698,0.33222 0.26589,0.12737 -0.40185,0.305764 2.31792,0.73818 2.15967,0.348094 2.60287,0.0012 3.06348,-0.103181 0.46506,-0.105449 0.72144,-0.189732 0.94488,-0.265701 0.4469,-0.151937 0.72583,-0.27515 1.03347,-0.405997 0.61527,-0.261543 1.25202,-0.556309 2.01525,-0.922734 1.52648,-0.73285 3.50949,-1.728567 5.85384,-2.930645 4.68871,-2.404082 10.7751,-5.605682 16.85286,-8.85823 6.07776,-3.252586 12.13549,-6.552567 16.77165,-9.138783 2.31808,-1.29313 4.27842,-2.402 5.75788,-3.27757 0.73972,-0.43778 1.35029,-0.80787 1.9119,-1.17373 0.28082,-0.18293 0.5356,-0.35717 0.88583,-0.62007 0.34908,-0.2623 0.55969,0.23471 2.14075,-2.28839 1.75544,-2.80297 1.04584,-6.92795 0.14026,-8.53346 -0.90558,-1.60554 -1.68002,-2.22954 -2.4065,-2.87157 -1.45295,-1.28398 -2.98159,-2.30895 -5.30019,-3.79427 -4.63721,-2.97067 -12.23519,-7.44041 -24.81792,-14.73426 -17.66295,-10.23753 -28.24989,-16.33444 -34.7687,-19.93848 -3.2594,-1.80204 -5.48167,-2.97925 -7.24163,-3.80905 -1.75997,-0.82983 -2.58173,-1.67569 -5.97933,-1.67569 z"
       id="path885"
       inkscape:connector-curvature="0"
       sodipodi:nodetypes="ccccccccccccccccccscccsccccccccccc" />
    <path
       style="opacity:1;fill:#000000;fill-opacity:0.49019608;stroke-width:11.10955811"
       inkscape:connector-curvature="0"
       d="m 511.63551,-265.09645 c -1.55139,61.31165 -25.16123,124.15461 -70.96638,175.81448 C 342.95915,20.917149 180.91869,38.44588 78.725776,-50.128672 30.827124,-91.644326 4.4968216,-149.07712 0.19382768,-209.77116 0.79907934,-143.41448 27.117411,-79.517787 79.078682,-34.480899 181.27159,54.093653 343.31975,36.55623 441.02202,-73.634197 490.72697,-129.6923 514.02704,-198.92516 511.63551,-265.09645 Z"
       id="path51" />
    <g
       transform="matrix(3.3181139,0,0,3.3181139,0.31053888,-980.26666)"
       id="g875">
      <path
         style="fill:#ffffff;fill-opacity:1;fill-rule:nonzero;stroke:#f7f7f7;stroke-width:4.71788073;stroke-linecap:round;stroke-linejoin:miter;stroke-miterlimit:4;stroke-dasharray:none;stroke-opacity:1"
         d="m 89.869923,196.52412 c -6.11387,-3.47191 -11.16074,-6.44994 -11.21529,-6.61795 -0.0546,-0.16848 0.22042,-0.69887 0.61089,-1.18091 l 0.38095,-0.65676 2.01554,0.61776 c 2.39183,0.73319 20.455997,11.44737 20.942677,11.88261 0.29874,0.26676 0.24976,0.5538 -0.2276,1.32755 -0.33462,0.54288 -0.78452,0.97656 -0.9998,0.96408 -0.21528,-0.0131 -5.393607,-2.8643 -11.507457,-6.33622 z"
         id="path3811"
         inkscape:connector-curvature="0"
         sodipodi:nodetypes="ccscsssccc" />
      <path
         style="fill:#ffffff;stroke-width:0.21943636"
         d="m 70.811684,250.10749 c -2.418907,-1.42115 -6.332145,-3.71761 -8.696094,-5.1046 -2.363933,-1.38684 -4.927779,-2.90455 -5.697433,-3.37177 -0.769699,-0.468 -2.625356,-1.53815 -4.123775,-2.38039 -1.498372,-0.8424 -3.338382,-1.08575 -3.570571,-1.27919 -0.421198,-0.351 0.0312,-1.00464 12.871428,-23.2367 7.078275,-12.2553 12.830915,-21.95548 12.948085,-21.99463 0.22916,-0.078 5.48683,3.07989 6.24064,3.53384 0.29437,0.17784 1.41803,0.70356 2.4626,1.24488 1.04457,0.54131 3.55907,1.68416 5.51512,2.83045 1.95605,1.14659 5.50947,3.22419 7.89646,4.61788 2.38699,1.39308 4.368256,2.67133 4.402816,2.83934 0.0343,0.16848 -2.538616,4.83005 -5.718156,10.36022 -3.17956,5.53017 -8.8303,15.35921 -12.55722,21.84222 -3.72693,6.48301 -6.95616,11.98869 -7.17605,12.2347 l -0.39983,0.44772 z"
         id="path3037"
         inkscape:connector-curvature="0"
         sodipodi:nodetypes="sssssscsssssssscs" />
      <path
         style="fill:#ffffff;stroke-width:0.21943636"
         d="m 103.00403,195.96763 c -2.14404,-1.23552 -7.94643,-4.56782 -12.89421,-7.40575 -4.94778,-2.83809 -9.14961,-5.3046 -9.3374,-5.48119 -0.32074,-0.30108 -0.3042,-0.38532 0.27003,-1.37747 0.56893,-0.9828 0.75254,-1.12319 2.64041,-2.03142 2.49128,-1.19808 4.0233,-1.60024 6.67082,-1.75094 8.77196,-0.49919 16.43368,5.58228 17.94408,14.24366 0.45177,2.59037 0.40294,3.31904 -0.30592,4.57515 -0.33539,0.59435 -0.71759,1.16843 -0.84957,1.27607 -0.16832,0.1404 -1.40338,-0.47424 -4.13824,-2.04921 z"
         id="path2992"
         inkscape:connector-curvature="0" />
      <path
         style="fill:#ffffff;stroke-width:0.21943636"
         d="m 46.033267,270.7837 c -0.0096,-0.6708 -0.10764,-2.92109 -0.219335,-5.00149 -0.110759,-2.08056 -0.131039,-3.86176 -0.04524,-3.95817 0.175031,-0.19656 9.164561,4.88215 9.28585,5.2461 0.05928,0.17783 -7.627298,4.42413 -8.775982,4.84845 -0.124799,0.0468 -0.235403,-0.46488 -0.244919,-1.13567 z"
         id="path3007"
         inkscape:connector-curvature="0" />
      <path
         style="fill:#ffffff;fill-opacity:1;fill-rule:nonzero;stroke:#ffffff;stroke-width:4.71788073;stroke-linecap:round;stroke-linejoin:miter;stroke-miterlimit:4;stroke-dasharray:none;stroke-opacity:1"
         d="m 54.520949,262.28078 c -0.792476,-0.48048 -2.363263,-1.45703 -3.490513,-2.16979 l -2.049548,-1.2948 -0.187823,-5.42065 c -0.102959,-2.9813 -0.26863,-6.73277 -0.367378,-8.3366 -0.161147,-2.61735 -0.129479,-2.91593 0.307319,-2.91593 0.516045,0 2.64002,1.17467 13.281003,7.34225 7.571328,4.38888 9.149558,5.39991 8.943318,5.72923 -0.23509,0.37595 -14.518883,8.01976 -14.875482,7.96095 -0.06552,-0.0108 -0.768296,-0.4134 -1.560834,-0.89388 z"
         id="path3041"
         inkscape:connector-curvature="0" />
    </g>
  </g>
</svg>
