<?xml version="1.0" encoding="UTF-8" standalone="no"?>
<!-- Created with Inkscape (http://www.inkscape.org/) -->

<svg
   xmlns:dc="http://purl.org/dc/elements/1.1/"
   xmlns:cc="http://creativecommons.org/ns#"
   xmlns:rdf="http://www.w3.org/1999/02/22-rdf-syntax-ns#"
   xmlns:svg="http://www.w3.org/2000/svg"
   xmlns="http://www.w3.org/2000/svg"
   xmlns:sodipodi="http://sodipodi.sourceforge.net/DTD/sodipodi-0.dtd"
   xmlns:inkscape="http://www.inkscape.org/namespaces/inkscape"
   id="svg2"
   version="1.1"
   inkscape:version="0.92.2 2405546, 2018-03-11"
   width="512"
   height="512"
   sodipodi:docname="zsnes.svg">
  <metadata
     id="metadata8">
    <rdf:RDF>
      <cc:Work
         rdf:about="">
        <dc:format>image/svg+xml</dc:format>
        <dc:type
           rdf:resource="http://purl.org/dc/dcmitype/StillImage" />
        <dc:title></dc:title>
      </cc:Work>
    </rdf:RDF>
  </metadata>
  <defs
     id="defs6" />
  <sodipodi:namedview
     pagecolor="#ffffff"
     bordercolor="#666666"
     borderopacity="1"
     objecttolerance="10"
     gridtolerance="10"
     guidetolerance="10"
     inkscape:pageopacity="0"
     inkscape:pageshadow="2"
     inkscape:window-width="1239"
     inkscape:window-height="677"
     id="namedview4"
     showgrid="false"
     inkscape:zoom="0.23046875"
     inkscape:cx="315.7867"
     inkscape:cy="521.83073"
     inkscape:window-x="38"
     inkscape:window-y="27"
     inkscape:window-maximized="0"
     inkscape:current-layer="svg2" />
  <g
     id="g871">
    <path
       style="fill:#f9c440;fill-opacity:1;stroke-width:11.10955811"
       inkscape:connector-curvature="0"
       d="m 432.91331,56.47401 c 102.19291,88.57455 105.82673,249.69965 8.11675,359.89871 C 343.32009,526.57186 181.27966,544.1006 79.086716,455.52602 -23.106204,366.95144 -26.740031,205.82634 70.969956,95.627273 168.67992,-14.57184 330.72036,-32.100602 432.91331,56.47401 Z"
       id="path27-5" />
    <path
       style="opacity:0.1;stroke-width:11.10955811"
       inkscape:connector-curvature="0"
       d="M 511.63553,224.9035 C 510.08418,286.21519 486.47427,349.05811 440.66912,400.718 342.95916,510.91712 180.91872,528.44588 78.725779,439.87126 30.827131,398.35565 4.4968329,340.92282 0.19384528,280.22879 0.7991689,346.58545 27.117412,410.48219 79.07871,455.51902 c 102.1929,88.57462 264.24106,71.0372 361.9433,-39.15323 49.70496,-56.05816 73.00506,-125.291 70.61352,-191.46229 z"
       id="path51-5" />
    <path
       id="path891"
       d="m 432.91331,56.47401 c 102.19291,88.57455 105.82673,249.69965 8.11675,359.89871 C 343.32009,526.57186 181.27966,544.1006 79.086716,455.52602 -23.106204,366.95144 -26.740031,205.82634 70.969956,95.627273 168.67992,-14.57184 330.72036,-32.100602 432.91331,56.47401 Z"
       inkscape:connector-curvature="0"
       style="fill:#c6262e;fill-opacity:1;stroke-width:11.10955811" />
    <path
       id="path893"
       d="M 511.63553,224.9035 C 510.08418,286.21519 486.47427,349.05811 440.66912,400.718 342.95916,510.91712 180.91872,528.44588 78.725779,439.87126 30.827131,398.35565 4.4968329,340.92282 0.19384528,280.22879 0.7991689,346.58545 27.117412,410.48219 79.07871,455.51902 c 102.1929,88.57462 264.24106,71.0372 361.9433,-39.15323 49.70496,-56.05816 73.00506,-125.291 70.61352,-191.46229 z"
       inkscape:connector-curvature="0"
       style="opacity:1;fill:#000000;fill-opacity:0.49019608;stroke-width:11.10955811" />
    <g
       style="fill:#000000;fill-opacity:0.49019608"
       transform="translate(20.000111,20)"
       id="g77">
      <path
         inkscape:connector-curvature="0"
         id="path73"
         d="m 374.85742,307.17383 c -12.67985,3.89752 -29.45454,6.26562 -47.90625,6.26562 H 185.93945 c -17.36942,0 -33.25758,-2.09675 -45.63867,-5.59375 v 66.4961 c 0,20.86307 16.79513,37.6582 37.6582,37.6582 h 159.23829 c 20.86307,0 37.66015,-16.79513 37.66015,-37.6582 z m -187.07226,26.50586 c 14.0699,0 20.23954,16.88014 9.58789,26.23242 -4.26957,3.74874 -9.15641,4.76723 -14.21094,2.96094 -4.30285,-1.53767 -7.2105,-3.98847 -8.91797,-7.51563 -4.90632,-10.13508 2.30351,-21.67773 13.54102,-21.67773 z m 136.06054,0 c 11.40265,0 18.66054,11.95096 13.35742,21.99219 -3.27249,6.19634 -11.75986,9.54773 -18.16796,7.17578 -3.74865,-1.38759 -7.10422,-4.55617 -8.875,-8.38086 -4.51227,-9.74605 2.75712,-20.78711 13.68554,-20.78711 z"
         style="fill:#000000;fill-opacity:0.49019608;fill-rule:evenodd;stroke:none;stroke-width:0.79995245" />
      <path
         inkscape:connector-curvature="0"
         id="path75"
         d="m 254.78711,100.17578 c -16.17438,0.10579 -32.5727,2.73916 -48.6543,8.12305 -32.95822,11.03394 -61.23523,32.83725 -80.55078,62.10937 -5.25842,7.96897 -12.64563,21.91178 -13.06641,24.49805 l 2.11719,0.13281 c 6.21515,0.38798 8.66031,0.78925 12.19141,2 4.67453,1.60282 8.50706,4.07527 12.23242,7.89258 3.74662,3.83911 6.33278,8.13032 8.01563,13.26953 0.66256,1.88229 1.17588,3.84535 1.51171,5.87891 2.35244,14.24459 -5.46752,28.67472 -18.98828,35.03711 -6.71104,3.15798 -15.63253,3.66712 -23.32031,1.33203 -2.90024,-0.88093 -5.4754,-1.60156 -5.72266,-1.60156 -2.142103,0 2.45603,33.89875 5.17774,38.17187 0.95805,1.50414 1.71573,1.5107 150.16211,1.38086 143.58851,-0.12563 149.23228,-0.18242 150.09765,-1.51172 1.38307,-2.12454 4.71195,-20.45476 5.27539,-29.05273 l 0.50391,-7.6836 -0.008,0.002 c -0.19022,1.92766 -0.55809,2.16223 -1.6582,2.46093 -2.90112,0.78767 -12.33777,1.1671 -15.98829,0.64258 -12.86589,-1.84858 -23.22655,-11.92327 -26.61523,-24.75586 -6.8e-4,-0.003 -0.001,-0.005 -0.002,-0.008 -0.86575,-3.00832 -1.32422,-6.19688 -1.32422,-9.50391 0,-7.70577 2.40734,-14.63206 7.00586,-20.38867 0.0293,-0.0384 0.0584,-0.077 0.0879,-0.11523 5.06119,-6.5615 12.6514,-11.28281 21.98633,-13.23242 2.214,-0.46241 2.87743,-0.75704 3.06836,-0.5625 0.002,0.002 0.0118,0.0213 0.0137,0.0234 0.2096,-1.40667 -0.89587,-4.09321 -3.39258,-9.0039 -27.47571,-54.04091 -82.3906,-85.912975 -140.15625,-85.53516 z m 1.92187,14.8086 c 10.50733,0.13983 21.01559,2.47169 29.71875,6.86132 14.44582,7.28604 27.40696,21.16376 33.29102,35.64453 3.93436,9.68253 5.08157,16.75419 4.66797,28.79102 -0.44536,12.96117 -1.89031,18.81824 -7.16211,29.02539 -8.95827,17.34489 -23.78384,29.54347 -42.91797,35.31641 -6.83319,2.06163 -25.558,2.69615 -32.47461,1.09961 -21.21866,-4.8978 -37.67241,-17.53169 -47.42578,-36.41602 -5.20293,-10.07383 -6.70681,-16.09108 -7.16797,-28.66797 -0.29373,-8.01053 -0.0938,-12.02647 0.81641,-16.42773 5.0833,-24.58025 23.19211,-44.68177 47.01953,-52.19141 6.14425,-1.93647 12.81379,-2.93532 19.5332,-3.0332 0.69994,-0.0102 1.40108,-0.0113 2.10156,-0.002 z"
         style="fill:#000000;fill-opacity:0.49019608;stroke-width:0.79995245" />
    </g>
    <g
       id="g71">
      <path
         inkscape:connector-curvature="0"
         style="fill:#ffffff;fill-opacity:1;fill-rule:evenodd;stroke:none;stroke-width:0.79995245"
         d="m 374.85742,307.17383 c -12.67985,3.89752 -29.45454,6.26562 -47.90625,6.26562 H 185.93945 c -17.36942,0 -33.25758,-2.09675 -45.63867,-5.59375 v 66.4961 c 0,20.86307 16.79513,37.6582 37.6582,37.6582 h 159.23829 c 20.86307,0 37.66015,-16.79513 37.66015,-37.6582 z m -187.07226,26.50586 c 14.0699,0 20.23954,16.88014 9.58789,26.23242 -4.26957,3.74874 -9.15641,4.76723 -14.21094,2.96094 -4.30285,-1.53767 -7.2105,-3.98847 -8.91797,-7.51563 -4.90632,-10.13508 2.30351,-21.67773 13.54102,-21.67773 z m 136.06054,0 c 11.40265,0 18.66054,11.95096 13.35742,21.99219 -3.27249,6.19634 -11.75986,9.54773 -18.16796,7.17578 -3.74865,-1.38759 -7.10422,-4.55617 -8.875,-8.38086 -4.51227,-9.74605 2.75712,-20.78711 13.68554,-20.78711 z"
         id="rect2992" />
      <path
         inkscape:connector-curvature="0"
         style="fill:#ffffff;fill-opacity:1;stroke-width:0.79995245"
         d="m 254.78711,100.17578 c -16.17438,0.10579 -32.5727,2.73916 -48.6543,8.12305 -32.95822,11.03394 -61.23523,32.83725 -80.55078,62.10937 -5.25842,7.96897 -12.64563,21.91178 -13.06641,24.49805 l 2.11719,0.13281 c 6.21515,0.38798 8.66031,0.78925 12.19141,2 4.67453,1.60282 8.50706,4.07527 12.23242,7.89258 3.74662,3.83911 6.33278,8.13032 8.01563,13.26953 0.66256,1.88229 1.17588,3.84535 1.51171,5.87891 2.35244,14.24459 -5.46752,28.67472 -18.98828,35.03711 -6.71104,3.15798 -15.63253,3.66712 -23.32031,1.33203 -2.90024,-0.88093 -5.4754,-1.60156 -5.72266,-1.60156 -2.142103,0 2.45603,33.89875 5.17774,38.17187 0.95805,1.50414 1.71573,1.5107 150.16211,1.38086 143.58851,-0.12563 149.23228,-0.18242 150.09765,-1.51172 1.38307,-2.12454 4.71195,-20.45476 5.27539,-29.05273 l 0.50391,-7.6836 -0.008,0.002 c -0.19022,1.92766 -0.55809,2.16223 -1.6582,2.46093 -2.90112,0.78767 -12.33777,1.1671 -15.98829,0.64258 -12.86589,-1.84858 -23.22655,-11.92327 -26.61523,-24.75586 -6.8e-4,-0.003 -0.001,-0.005 -0.002,-0.008 -0.86575,-3.00832 -1.32422,-6.19688 -1.32422,-9.50391 0,-7.70577 2.40734,-14.63206 7.00586,-20.38867 0.0293,-0.0384 0.0584,-0.077 0.0879,-0.11523 5.06119,-6.5615 12.6514,-11.28281 21.98633,-13.23242 2.214,-0.46241 2.87743,-0.75704 3.06836,-0.5625 0.002,0.002 0.0118,0.0213 0.0137,0.0234 0.2096,-1.40667 -0.89587,-4.09321 -3.39258,-9.0039 -27.47571,-54.04091 -82.3906,-85.912975 -140.15625,-85.53516 z m 1.92187,14.8086 c 10.50733,0.13983 21.01559,2.47169 29.71875,6.86132 14.44582,7.28604 27.40696,21.16376 33.29102,35.64453 3.93436,9.68253 5.08157,16.75419 4.66797,28.79102 -0.44536,12.96117 -1.89031,18.81824 -7.16211,29.02539 -8.95827,17.34489 -23.78384,29.54347 -42.91797,35.31641 -6.83319,2.06163 -25.558,2.69615 -32.47461,1.09961 -21.21866,-4.8978 -37.67241,-17.53169 -47.42578,-36.41602 -5.20293,-10.07383 -6.70681,-16.09108 -7.16797,-28.66797 -0.29373,-8.01053 -0.0938,-12.02647 0.81641,-16.42773 5.0833,-24.58025 23.19211,-44.68177 47.01953,-52.19141 6.14425,-1.93647 12.81379,-2.93532 19.5332,-3.0332 0.69994,-0.0102 1.40108,-0.0113 2.10156,-0.002 z"
         id="path3007" />
    </g>
  </g>
</svg>
