<?xml version="1.0" encoding="UTF-8" standalone="no"?>
<!-- Created with Inkscape (http://www.inkscape.org/) -->

<svg
   xmlns:osb="http://www.openswatchbook.org/uri/2009/osb"
   xmlns:dc="http://purl.org/dc/elements/1.1/"
   xmlns:cc="http://creativecommons.org/ns#"
   xmlns:rdf="http://www.w3.org/1999/02/22-rdf-syntax-ns#"
   xmlns:svg="http://www.w3.org/2000/svg"
   xmlns="http://www.w3.org/2000/svg"
   xmlns:sodipodi="http://sodipodi.sourceforge.net/DTD/sodipodi-0.dtd"
   xmlns:inkscape="http://www.inkscape.org/namespaces/inkscape"
   width="512"
   height="512"
   id="svg859"
   version="1.1"
   inkscape:version="0.92.2 2405546, 2018-03-11"
   sodipodi:docname="application-x-remote-connection.svg"
   viewBox="0 0 512 512">
  <defs
     id="defs861">
    <linearGradient
       id="linearGradient4241"
       osb:paint="solid">
      <stop
         style="stop-color:#ba174e;stop-opacity:1;"
         offset="0"
         id="stop4243" />
    </linearGradient>
  </defs>
  <sodipodi:namedview
     id="base"
     pagecolor="#ffffff"
     bordercolor="#666666"
     borderopacity="1.0"
     inkscape:pageopacity="0.0"
     inkscape:pageshadow="2"
     inkscape:zoom="0.5531177"
     inkscape:cx="8.9362554"
     inkscape:cy="300.41293"
     inkscape:document-units="px"
     inkscape:current-layer="layer1"
     showgrid="false"
     width="0px"
     height="0px"
     fit-margin-top="0"
     fit-margin-left="0"
     fit-margin-right="0"
     fit-margin-bottom="0"
     inkscape:window-width="1366"
     inkscape:window-height="717"
     inkscape:window-x="0"
     inkscape:window-y="24"
     inkscape:window-maximized="1" />
  <metadata
     id="metadata864">
    <rdf:RDF>
      <cc:Work
         rdf:about="">
        <dc:format>image/svg+xml</dc:format>
        <dc:type
           rdf:resource="http://purl.org/dc/dcmitype/StillImage" />
        <dc:title />
      </cc:Work>
    </rdf:RDF>
  </metadata>
  <g
     inkscape:label="Capa 1"
     inkscape:groupmode="layer"
     id="layer1"
     transform="translate(0,-540.3622)">
    <g
       id="g865">
      <path
         style="fill:#c6262e;fill-opacity:1;stroke-width:11.10955811"
         inkscape:connector-curvature="0"
         d="m 432.91336,596.83618 c 102.1928,88.57458 105.82666,249.6997 8.11679,359.89878 C 343.32009,1066.934 181.27948,1084.4628 79.086674,995.88822 -23.106166,907.31363 -26.740027,746.18851 70.969882,635.98944 168.67975,525.79036 330.7203,508.26159 432.91336,596.83618 Z"
         id="path911" />
      <path
         style="opacity:1;fill:#000000;fill-opacity:0.49019608;stroke-width:11.10955238"
         inkscape:connector-curvature="0"
         d="M 511.63501,765.26573 C 510.08361,826.57738 486.4738,889.42032 440.66869,941.08021 342.95883,1051.2793 180.91853,1068.808 78.725724,980.23347 30.82712,938.71784 4.4968448,881.28503 0.19385551,820.59099 0.79910631,886.94767 27.117411,950.84439 79.078628,995.88124 181.27144,1084.4558 343.31942,1066.9184 441.0216,956.72798 490.72648,900.66984 514.02654,831.43702 511.63501,765.26573 Z"
         id="path913" />
      <path
         style="fill:#000000;fill-opacity:0.49019608;stroke-width:0.62279522"
         d="m 291.35718,957.9902 c -5.08683,-2.14413 -8.30671,-4.52531 -11.07216,-8.18813 -4.0718,-5.39306 -5.21024,-8.5892 -5.21716,-14.64698 -0.006,-4.90941 0.17739,-5.6973 2.33928,-10.07161 1.5716,-3.1799 3.35675,-5.65485 5.41091,-7.50171 l 3.06553,-2.75618 -8.06371,-29.5223 c -4.43503,-16.23726 -8.4779,-30.95457 -8.98413,-32.70514 l -0.92042,-3.18284 -5.45729,-0.31985 c -5.7087,-0.33458 -11.30947,-2.12953 -15.1272,-4.84798 l -1.89295,-1.34791 -21.31014,11.9997 c -11.72058,6.59983 -21.39591,12.05953 -21.50074,12.13267 -0.10483,0.0731 0.29888,1.91559 0.89712,4.09435 1.32822,4.83722 1.46939,14.41044 0.2834,19.21984 -5.14617,20.8688 -26.0256,35.8197 -46.12919,33.03118 -9.56503,-1.32673 -18.13674,-5.61526 -24.92529,-12.4704 -17.1273,-17.29533 -16.98865,-42.43007 0.32814,-59.48548 8.32692,-8.20124 17.71195,-12.25666 28.63198,-12.37234 3.42835,-0.0363 7.76773,0.31737 9.65331,0.7868 7.67159,1.90992 16.40554,7.05333 21.66363,12.75769 1.45806,1.58181 2.79367,2.87602 2.96802,2.87602 0.17435,0 9.25544,-5.06324 20.1802,-11.25163 l 19.8632,-11.25164 -1.50713,-3.22835 c -0.82892,-1.7756 -1.84368,-4.83638 -2.255,-6.80173 -0.66311,-3.16838 -0.96333,-3.64157 -2.64894,-4.1751 -1.04559,-0.33095 -14.45188,-3.99479 -29.79178,-8.14188 l -27.89071,-7.54015 -3.93939,4.0775 c -5.55032,5.74488 -10.6722,8.12093 -17.50572,8.12093 -4.29123,0 -5.5594,-0.27187 -9.14238,-1.95997 -13.16642,-6.20328 -18.89234,-20.32996 -13.05026,-32.1969 2.39054,-4.8559 8.07844,-10.4263 12.90031,-12.63383 13.37958,-6.12537 29.0523,2.41446 33.22662,18.10469 l 0.97841,3.67758 28.95949,7.90101 28.9595,7.90102 1.67823,-3.23867 c 0.92302,-1.78126 3.12402,-4.8206 4.89112,-6.75409 l 3.2129,-3.51543 -9.80654,-16.96901 c -5.3936,-9.33295 -10.15636,-17.34876 -10.58391,-17.8129 -0.65316,-0.70904 -1.4797,-0.68416 -5.17226,0.1557 -28.29019,6.43447 -55.96461,-20.45325 -50.28071,-48.85138 2.67472,-13.36354 11.76416,-24.8959 24.33393,-30.87405 6.83624,-3.25129 11.38324,-4.16952 18.98745,-3.83436 11.37026,0.50115 19.1556,4.09283 28.04432,12.93793 4.21751,4.1968 5.86488,6.39071 7.95002,10.58751 3.75308,7.55391 4.67728,11.8288 4.36568,20.19353 -0.41807,11.22329 -3.83656,19.00804 -12.17055,27.71538 -2.48327,2.59451 -4.51513,4.82708 -4.51526,4.96127 -1.2e-4,0.13419 4.55395,8.06352 10.12019,17.62074 8.79845,15.10695 10.28311,17.3284 11.36599,17.00657 2.97175,-0.8832 11.50074,-1.05882 14.70646,-0.30282 4.26103,1.00488 10.05284,3.87178 13.53594,6.7002 l 2.7078,2.19885 22.93932,-22.93305 22.9393,-22.93305 -1.22839,-2.40787 c -5.48528,-10.75204 0.17428,-24.89904 12.5586,-31.3923 3.06926,-1.60925 3.98398,-1.77899 9.61972,-1.78506 5.48176,-0.006 6.66041,0.19593 9.83736,1.68451 4.65331,2.18032 10.25846,7.79023 12.62239,12.63308 1.62593,3.33095 1.82423,4.37933 1.82596,9.65333 0.002,5.33241 -0.18247,6.28427 -1.86578,9.64103 -2.42731,4.84039 -7.87048,10.26816 -12.52508,12.48961 -5.48282,2.61674 -12.28605,2.87801 -17.7186,0.68046 l -4.00934,-1.62184 -23.76165,23.75154 -23.76166,23.75155 0.828,2.34682 c 0.4554,1.29075 1.02063,3.63134 1.25607,5.20132 l 0.42806,2.8545 h 25.43986 25.43986 l 0.67674,-2.64688 c 3.75628,-14.69164 15.06255,-26.68782 29.57681,-31.38159 6.26295,-2.02538 15.2626,-2.28969 21.48641,-0.63104 20.67922,5.51104 35.09903,26.04998 32.35571,46.08606 -2.25193,16.44717 -14.10338,30.42393 -30.31416,35.75036 -6.98038,2.29356 -16.45456,2.27501 -23.52796,-0.0461 -14.5764,-4.78311 -25.82359,-16.7256 -29.57681,-31.40526 l -0.67674,-2.64688 h -26.69671 -26.69672 l -1.97132,3.49299 c -1.91527,3.39367 -7.62155,9.67591 -10.43784,11.49138 l -1.39136,0.89691 8.88298,32.50724 c 4.88565,17.87899 9.04681,32.67106 9.24702,32.87127 0.20021,0.20021 1.99823,0.63 3.99559,0.95508 12.88803,2.09759 23.31442,15.85657 20.94739,27.64286 -1.56402,7.78789 -7.13794,15.04095 -14.24922,18.54183 -3.33612,1.64236 -4.94673,2.03289 -9.12935,2.21359 -4.30675,0.18606 -5.63091,-0.0134 -8.71262,-1.31236 z"
         id="path876"
         inkscape:connector-curvature="0"
         sodipodi:nodetypes="ccccccsccsccsccccssccssscccssccssssccccsscsccscscccscsccsccccsccscscscccsccccssssccsccccscsssscscc" />
      <path
         sodipodi:nodetypes="ccccccsccsccsccccssccssscccssccssssccccsscsccscscccscsccsccccsccscscscccsccccssssccsccccscsssscscc"
         inkscape:connector-curvature="0"
         id="path882"
         d="m 271.35707,937.9902 c -5.08683,-2.14413 -8.30671,-4.52531 -11.07216,-8.18813 -4.0718,-5.39306 -5.21024,-8.5892 -5.21716,-14.64698 -0.006,-4.90941 0.17739,-5.6973 2.33928,-10.07161 1.5716,-3.1799 3.35675,-5.65485 5.41091,-7.50171 l 3.06553,-2.75618 -8.06371,-29.5223 c -4.43503,-16.23726 -8.4779,-30.95457 -8.98413,-32.70514 l -0.92042,-3.18284 -5.45729,-0.31985 c -5.7087,-0.33458 -11.30947,-2.12953 -15.1272,-4.84798 l -1.89295,-1.34791 -21.31014,11.9997 c -11.72058,6.59983 -21.39591,12.05953 -21.50074,12.13267 -0.10483,0.0731 0.29888,1.91559 0.89712,4.09435 1.32822,4.83722 1.46939,14.41044 0.2834,19.21984 -5.14617,20.8688 -26.0256,35.8197 -46.12919,33.03118 -9.56503,-1.32673 -18.13674,-5.61526 -24.92529,-12.4704 -17.1273,-17.29533 -16.988651,-42.43007 0.32814,-59.48548 8.32692,-8.20124 17.71195,-12.25666 28.63198,-12.37234 3.42835,-0.0363 7.76773,0.31737 9.65331,0.7868 7.67159,1.90992 16.40554,7.05333 21.66363,12.75769 1.45806,1.58181 2.79367,2.87602 2.96802,2.87602 0.17435,0 9.25544,-5.06324 20.1802,-11.25163 l 19.86321,-11.25164 -1.50714,-3.22835 c -0.82892,-1.7756 -1.84368,-4.83638 -2.255,-6.80173 -0.66311,-3.16838 -0.96333,-3.64157 -2.64894,-4.1751 -1.04559,-0.33095 -14.45188,-3.99479 -29.79178,-8.14188 l -27.89071,-7.54015 -3.93939,4.0775 c -5.55032,5.74488 -10.6722,8.12093 -17.50572,8.12093 -4.29123,0 -5.5594,-0.27187 -9.14238,-1.95997 -13.16642,-6.20328 -18.89234,-20.32996 -13.05026,-32.1969 2.39054,-4.8559 8.07844,-10.4263 12.90031,-12.63383 13.37958,-6.12537 29.0523,2.41446 33.22662,18.10469 l 0.97841,3.67758 28.95949,7.90101 28.9595,7.90102 1.67823,-3.23867 c 0.92302,-1.78126 3.12402,-4.8206 4.89112,-6.75409 l 3.2129,-3.51543 -9.80654,-16.96901 c -5.3936,-9.33295 -10.15636,-17.34876 -10.58391,-17.8129 -0.65316,-0.70904 -1.4797,-0.68416 -5.17226,0.1557 -28.29019,6.43447 -55.96461,-20.45325 -50.28071,-48.85138 2.67472,-13.36353 11.76416,-24.8959 24.33393,-30.87405 6.83624,-3.25129 11.38324,-4.16952 18.98745,-3.83436 11.37026,0.50115 19.1556,4.09283 28.04432,12.93794 4.21751,4.1968 5.86488,6.39071 7.95002,10.5875 3.75308,7.55391 4.67728,11.8288 4.36568,20.19353 -0.41807,11.22329 -3.83656,19.00804 -12.17055,27.71538 -2.48326,2.59451 -4.51513,4.82708 -4.51526,4.96127 -1.2e-4,0.13419 4.55395,8.06352 10.12019,17.62074 8.79845,15.10695 10.28311,17.3284 11.36599,17.00657 2.97175,-0.8832 11.50074,-1.05882 14.70646,-0.30282 4.26104,1.00488 10.05284,3.87178 13.53594,6.7002 l 2.7078,2.19885 22.93932,-22.93305 22.9393,-22.93305 -1.22839,-2.40787 c -5.48528,-10.75204 0.17428,-24.89904 12.5586,-31.3923 3.06926,-1.60925 3.98398,-1.77899 9.61972,-1.78506 5.48176,-0.006 6.66041,0.19593 9.83736,1.68451 4.65331,2.18032 10.25846,7.79023 12.62239,12.63308 1.62593,3.33095 1.82423,4.37933 1.82596,9.65333 0.002,5.33241 -0.18247,6.28427 -1.86578,9.64103 -2.42731,4.84039 -7.87048,10.26816 -12.52508,12.48961 -5.48282,2.61674 -12.28605,2.87801 -17.7186,0.68046 l -4.00934,-1.62184 -23.76165,23.75154 -23.76166,23.75155 0.828,2.34682 c 0.4554,1.29075 1.02063,3.63134 1.25607,5.20132 l 0.42806,2.8545 h 25.43986 25.43986 l 0.67674,-2.64688 c 3.75628,-14.69164 15.06255,-26.68782 29.57681,-31.38159 6.26295,-2.02538 15.2626,-2.28969 21.48641,-0.63104 20.67922,5.51104 35.09903,26.04998 32.35571,46.08606 -2.25193,16.44717 -14.10338,30.42393 -30.31416,35.75036 -6.98038,2.29356 -16.45456,2.27501 -23.52796,-0.0461 -14.5764,-4.78311 -25.82359,-16.7256 -29.57681,-31.40526 l -0.67674,-2.64688 H 300.87252 274.1758 l -1.97132,3.49299 c -1.91527,3.39367 -7.62155,9.67591 -10.43784,11.49138 l -1.39136,0.89691 8.88298,32.50724 c 4.88565,17.87899 9.04681,32.67106 9.24702,32.87127 0.20021,0.20021 1.99823,0.63 3.99559,0.95508 12.88803,2.09759 23.31442,15.85657 20.94739,27.64286 -1.56402,7.78789 -7.13794,15.04095 -14.24922,18.54183 -3.33612,1.64236 -4.94673,2.03289 -9.12935,2.21359 -4.30675,0.18606 -5.63091,-0.0134 -8.71262,-1.31236 z"
         style="fill:#ffffff;stroke-width:0.62279522" />
    </g>
  </g>
</svg>
