<?xml version="1.0" encoding="UTF-8" standalone="no"?>
<!-- Created with Inkscape (http://www.inkscape.org/) -->

<svg
   xmlns:dc="http://purl.org/dc/elements/1.1/"
   xmlns:cc="http://creativecommons.org/ns#"
   xmlns:rdf="http://www.w3.org/1999/02/22-rdf-syntax-ns#"
   xmlns:svg="http://www.w3.org/2000/svg"
   xmlns="http://www.w3.org/2000/svg"
   xmlns:sodipodi="http://sodipodi.sourceforge.net/DTD/sodipodi-0.dtd"
   xmlns:inkscape="http://www.inkscape.org/namespaces/inkscape"
   id="svg2"
   version="1.1"
   inkscape:version="0.92.2 5c3e80d, 2017-08-06"
   width="512"
   height="512"
   sodipodi:docname="applications-development.svg">
  <metadata
     id="metadata8">
    <rdf:RDF>
      <cc:Work
         rdf:about="">
        <dc:format>image/svg+xml</dc:format>
        <dc:type
           rdf:resource="http://purl.org/dc/dcmitype/StillImage" />
        <dc:title></dc:title>
      </cc:Work>
    </rdf:RDF>
  </metadata>
  <defs
     id="defs6" />
  <sodipodi:namedview
     pagecolor="#ffffff"
     bordercolor="#666666"
     borderopacity="1"
     objecttolerance="10"
     gridtolerance="10"
     guidetolerance="10"
     inkscape:pageopacity="0"
     inkscape:pageshadow="2"
     inkscape:window-width="1366"
     inkscape:window-height="717"
     id="namedview4"
     showgrid="false"
     inkscape:zoom="0.18153846"
     inkscape:cx="-452.4994"
     inkscape:cy="-106.45392"
     inkscape:window-x="0"
     inkscape:window-y="24"
     inkscape:window-maximized="1"
     inkscape:current-layer="svg2" />
  <g
     id="g876">
    <path
       style="fill:#3689e6;fill-opacity:1;stroke-width:11.10955811"
       inkscape:connector-curvature="0"
       d="M 432.91383,56.473967 C 535.10674,145.04856 538.7406,306.17367 441.03063,416.37276 343.32047,526.57184 181.27969,544.10061 79.086779,455.52602 -23.106167,366.95143 -26.740032,205.82631 70.969979,95.627227 168.67995,-14.571854 330.72066,-32.100623 432.91383,56.473967 Z"
       id="path911" />
    <g
       id="g915"
       transform="matrix(8.0447857,6.9727288,-7.6918814,8.6750446,247.53035,-119.54657)">
      <path
         id="path913"
         d="m 40.03,7.531 c 3.712,4.084 5.969,9.514 5.969,15.469 0,12.703 -10.297,23 -23,23 C 17.045,46 11.615,43.744 7.53,40.031 11.708,44.322 17.54,47 23.999,47 c 12.703,0 23,-10.298 23,-23 0,-6.462 -2.677,-12.291 -6.969,-16.469 z"
         inkscape:connector-curvature="0"
         style="opacity:0.1" />
    </g>
    <path
       style="fill:#317ccf;fill-opacity:1;stroke-width:0.60942054"
       d="m 260.06634,420.94467 c -1.7616,-0.6089 -4.52768,-2.22355 -6.14684,-3.5888 l -2.94393,-2.48242 -8.62161,-0.20028 -8.62163,-0.20028 -1.99059,-1.99238 c -1.70762,-1.70915 -1.9906,-2.4181 -1.9906,-4.98767 0,-2.48362 0.30586,-3.31465 1.78993,-4.86368 0.98441,-1.02758 2.14997,-1.86827 2.59003,-1.86827 0.44002,0 0.80013,-0.27376 0.80013,-0.60991 0,-0.33515 -0.36011,-0.6089 -0.80013,-0.6089 -0.44002,0 -1.60558,-0.84039 -2.59003,-1.86828 -1.47938,-1.5442 -1.78993,-2.38308 -1.78993,-4.8354 0,-2.45222 0.3106,-3.29119 1.78993,-4.83529 0.98441,-1.02759 2.14997,-1.86828 2.59003,-1.86828 0.44002,0 0.80013,-0.27476 0.80013,-0.60991 0,-0.33515 -0.36011,-0.60991 -0.80013,-0.60991 -0.44002,0 -1.60558,-0.84038 -2.59003,-1.86827 -1.48411,-1.54903 -1.78993,-2.38006 -1.78993,-4.86358 0,-2.57048 0.28262,-3.27801 1.99234,-4.98777 l 1.99234,-1.99227 h 32.27584 32.27586 l 1.99233,1.99227 c 1.7097,1.70976 1.99234,2.41729 1.99234,4.98777 0,2.48352 -0.30583,3.31455 -1.78993,4.86358 -0.98446,1.02758 -2.14997,1.86827 -2.59003,1.86827 -0.44003,0 -0.80013,0.27376 -0.80013,0.60991 0,0.33515 0.36,0.60991 0.80013,0.60991 1.40347,0 4.10885,3.39134 4.46726,5.6 0.43626,2.68833 -1.04698,5.71534 -3.47837,7.0985 -1.88346,1.07157 -2.32262,1.92756 -0.98893,1.92756 1.40347,0 4.10885,3.39134 4.46726,5.6 0.44235,2.72587 -1.01558,5.63381 -3.62106,7.22249 -1.66538,1.01541 -3.08991,1.18993 -9.72975,1.19194 l -7.77872,0.002 -3.33491,2.71631 c -5.448,4.43745 -11.552,5.61882 -17.82871,3.45042 z m -61.26857,-13.90483 c -1.4741,-0.38245 -19.94653,-10.98864 -21.36683,-12.26764 -1.80119,-1.6218 -2.83236,-4.11347 -2.83236,-6.84377 0,-2.0282 1.0932,-4.56547 5.48478,-12.73 3.01664,-5.60835 5.48479,-10.3577 5.48479,-10.55416 0,-0.19626 -4.25123,-4.63632 -9.44718,-9.86634 l -9.44719,-9.50916 -8.9382,5.28699 c -11.30765,6.68868 -12.66531,7.23739 -15.8106,6.39047 -3.40628,-0.91688 -5.42542,-3.36286 -11.37284,-13.77531 -5.68052,-9.94515 -6.2595,-11.43872 -5.66416,-14.61217 0.65218,-3.47658 2.99605,-5.492 12.87472,-11.07086 5.17657,-2.92334 9.41196,-5.56508 9.41196,-5.87043 0,-0.30496 -0.83858,-3.25447 -1.86348,-6.55341 -1.02491,-3.29895 -2.48455,-8.96376 -3.24365,-12.5884 l -1.38018,-6.59024 -12.19381,-0.30496 c -12.09015,-0.30193 -12.2121,-0.31904 -14.34379,-1.94627 C 110.35578,280.73751 110,279.23236 110,266.07894 c 0,-13.15362 0.35578,-14.65866 4.15004,-17.55523 2.14927,-1.64072 2.1559,-1.64162 14.51025,-1.82842 10.99261,-0.16607 12.3929,-0.30093 12.65752,-1.21892 0.16365,-0.56763 0.74679,-3.50003 1.29589,-6.51667 0.54912,-3.01664 1.95859,-8.45701 3.13223,-12.0897 1.17364,-3.63278 2.0438,-6.69038 1.93366,-6.79485 -0.1101,-0.10467 -4.31382,-2.56968 -9.34154,-5.47832 -10.13239,-5.86168 -12.14427,-7.47049 -13.14882,-10.5143 -1.08478,-3.28697 -0.20794,-5.84326 5.36742,-15.64851 5.60501,-9.85729 6.86009,-11.57631 9.42705,-12.91197 3.61054,-1.87854 6.05539,-1.20925 16.9088,4.62857 5.60834,3.01664 10.34509,5.48486 10.52612,5.48486 0.18096,0 4.62773,-4.25427 9.88159,-9.4538 l 9.55247,-9.4538 -4.93344,-8.19906 c -6.4327,-10.69053 -7.49093,-13.11135 -6.96263,-15.9274 0.67633,-3.60531 3.45247,-5.99724 13.68444,-11.79098 10.53592,-5.96585 11.75207,-6.44401 14.89107,-5.85514 3.4791,0.65319 5.49272,2.99722 11.09623,12.91962 4.52207,8.00743 5.5298,9.41445 6.57517,9.17985 0.67905,-0.15198 4.52544,-1.24176 8.54762,-2.42092 4.02218,-1.17906 9.43841,-2.49932 12.03606,-2.93381 l 4.723,-0.79006 v -11.52045 c 0,-12.95857 0.36545,-14.48807 4.15192,-17.37609 l 2.15212,-1.64152 h 13.19742 13.19742 l 2.15214,1.64152 c 3.79062,2.89124 4.1519,4.40997 4.1519,17.45389 0,10.52205 0.0986,11.62683 1.06649,11.90672 0.58656,0.17009 3.53464,0.75786 6.55127,1.30678 3.01663,0.54952 8.45701,1.95865 12.08975,3.13228 3.63272,1.17362 6.68202,2.0438 6.77622,1.93369 0.0942,-0.1097 2.55678,-4.31385 5.47241,-9.34158 5.88064,-10.1406 7.48758,-12.14183 10.56508,-13.15744 3.3555,-1.1074 5.52809,-0.36534 15.45582,5.28065 10.0238,5.70054 11.73993,6.95005 13.07836,9.52244 1.86782,3.58991 1.20246,6.04696 -4.61858,17.05583 l -5.47481,10.35397 3.49419,3.13621 c 4.52747,4.06365 6.93975,6.48406 11.56634,11.60549 2.0807,2.30317 4.12995,4.05047 4.55779,3.88611 0.42753,-0.16405 5.0146,-2.80145 10.1935,-5.86067 8.23253,-4.86287 9.77249,-5.56205 12.25064,-5.56205 4.71097,0 6.25579,1.53373 12.60184,12.5117 6.34727,10.97999 7.15015,12.90835 6.59864,15.84809 -0.64267,3.42576 -2.97921,5.43877 -13.16881,11.34553 -5.34632,3.09917 -9.71232,5.92297 -9.70222,6.27513 0.0102,0.35226 0.95609,3.76554 2.10221,7.58542 1.1461,3.81989 2.57755,9.49527 3.18098,12.61195 l 1.09714,5.66682 12.18852,0.1862 c 11.74325,0.17915 12.26348,0.23953 14.24016,1.64917 3.79727,2.70826 4.32007,4.92618 4.32387,18.34288 0.003,11.17524 -0.0779,12.02901 -1.36032,14.3214 -0.89852,1.6062 -2.29033,2.90543 -4.08034,3.80892 -2.54247,1.28323 -3.4844,1.37119 -14.69048,1.37119 h -11.97382 l -1.35723,6.85595 c -0.74648,3.77077 -2.2667,9.67361 -3.37828,13.11728 l -2.02104,6.26144 5.88285,3.42385 c 16.29671,9.4848 17.15713,10.25655 17.15713,15.38854 0,2.42988 -0.76192,4.15443 -5.54726,12.55539 -6.12817,10.75826 -7.67456,12.73342 -10.76887,13.75467 -3.43858,1.13487 -5.8733,0.27979 -15.69419,-5.51022 -5.14401,-3.03285 -9.48541,-5.51425 -9.64756,-5.51425 -0.16216,0 -4.57909,4.24481 -9.81542,9.43307 l -9.52058,9.43317 5.29539,8.95218 c 6.69735,11.32248 7.24582,12.67888 6.39873,15.82474 -0.91946,3.41459 -3.34421,5.40505 -14.07997,11.55769 -8.51825,4.88179 -9.75588,5.41461 -12.60079,5.42498 -3.51972,0.0101 -5.69086,-1.20916 -7.89238,-4.44198 -1.07337,-1.5762 -1.21465,-2.35298 -0.82115,-4.51464 0.26138,-1.436 0.40729,-8.23277 0.32423,-15.10402 -0.14623,-12.09543 -0.10771,-12.55136 1.21005,-14.3214 3.65892,-4.91481 6.33887,-12.86165 6.37101,-18.89201 0.0313,-5.87415 2.67531,-12.85591 11.77036,-31.08043 8.9615,-17.95701 13.69161,-30.33999 16.06251,-42.05005 1.64233,-8.1116 1.48568,-25.17035 -0.30862,-33.60814 -7.91811,-37.23569 -35.88644,-65.10383 -73.12907,-72.86699 -9.24006,-1.92615 -26.79516,-1.91488 -35.84109,0.0201 -42.28417,9.05816 -72.33569,44.04755 -74.37065,86.59076 -0.43942,9.18669 0.40499,17.01266 2.86625,26.56499 2.49123,9.66858 5.16012,16.24896 13.96519,34.43232 10.01156,20.67483 11.60615,24.87294 12.26833,32.29925 0.73702,8.26508 2.77639,14.43382 6.34972,19.20632 1.26155,1.6849 1.32413,2.12431 0.75212,5.28034 -0.41556,2.2928 -0.42452,4.68111 -0.0272,7.15115 0.38668,2.40119 0.3897,4.99763 0.008,7.36511 -0.38779,2.40763 -0.37682,4.95748 0.0322,7.46545 0.68388,4.19479 0.22937,5.76113 -2.37557,8.18658 -2.41227,2.246 -5.45777,3.0257 -8.61507,2.20564 z m 33.66018,-44.0233 c -6.83366,-2.10791 -10.05565,-7.12306 -10.60493,-16.50702 -0.18559,-3.17052 -0.93923,-6.80854 -2.17408,-10.49457 -2.03784,-6.08309 -10.64987,-25.05803 -11.97379,-26.38191 -0.44404,-0.44385 -0.80727,-1.06684 -0.80727,-1.38408 0,-0.31703 -1.25534,-3.28495 -2.78963,-6.59477 -4.33099,-9.34309 -4.33374,-9.34974 -6.35302,-15.15938 -3.76565,-10.83405 -4.59315,-15.73999 -4.52297,-26.81448 0.0543,-8.51479 0.2963,-10.52839 2.03441,-16.90759 7.07539,-25.96755 26.47277,-45.35795 52.31384,-52.29492 6.75986,-1.81463 8.62568,-2.03102 17.82175,-2.06725 9.45944,-0.0403 12.43496,0.29187 19.19674,2.12613 2.68145,0.72766 5.56096,1.47123 6.39892,1.6533 0.83797,0.18216 1.66067,0.49618 1.82826,0.69747 0.16758,0.20129 2.49863,1.42302 5.18008,2.7146 10.00997,4.8215 20.09378,13.06897 26.43142,21.61797 3.72453,5.02421 9.34624,15.40123 10.41882,19.23209 0.43796,1.56432 1.03741,2.99318 1.33208,3.17535 0.29467,0.18217 0.3922,0.56361 0.21675,0.84743 -0.17546,0.28382 -0.01,1.2934 0.36837,2.24328 0.37806,0.95009 0.79736,2.68683 0.93177,3.86005 0.13441,1.17312 0.48522,2.84926 0.77957,3.72488 0.29434,0.87561 0.46787,5.67477 0.38562,10.66486 -0.2561,15.5379 -3.17239,24.89327 -15.28723,49.04127 -7.78048,15.50841 -11.85034,25.51032 -12.75005,31.33386 -0.54231,3.5102 -0.87307,6.11993 -1.22318,9.65086 -0.56363,5.68434 -2.41255,8.40679 -7.338,10.80476 l -3.04711,1.48351 -32.60399,0.10769 c -17.9322,0.0604 -33.30562,-0.1087 -34.16315,-0.37339 z m 26.3723,-37.50764 0.17311,-23.45163 1.99233,-1.99166 c 1.71457,-1.71409 2.4139,-1.99177 5.016,-1.99177 2.6021,0 3.30145,0.27778 5.01601,1.99177 l 1.99233,1.99166 0.17311,23.45163 0.17311,23.45153 h 10.86469 10.8647 l 0.41627,-4.11356 c 0.22896,-2.26251 0.83586,-5.8962 1.34859,-8.07487 0.51279,-2.17866 1.02576,-4.37253 1.13994,-4.87535 0.37027,-1.63005 5.59527,-14.27168 7.24169,-17.52071 0.88045,-1.73744 1.6008,-3.5567 1.6008,-4.04262 0,-0.48611 0.24119,-0.97525 0.53599,-1.08676 0.6326,-0.23954 4.93551,-8.72886 8.94166,-17.64068 3.27425,-7.28369 6.64899,-17.13917 7.3845,-21.56544 0.8101,-4.87505 0.44184,-17.21938 -0.65184,-21.84977 -1.10168,-4.6643 -3.90001,-12.07752 -4.77532,-12.65059 -0.31324,-0.20532 -0.55005,-0.61695 -0.52624,-0.91386 0.19694,-2.46329 -12.75932,-18.51911 -14.94407,-18.51911 -0.48306,0 -1.03554,-0.40963 -1.22774,-0.91084 -0.95392,-2.48593 -16.92341,-10.26399 -22.28681,-10.85508 -1.16738,-0.12883 -2.46018,-0.44284 -2.87289,-0.69747 -2.14853,-1.32792 -22.08828,-0.63608 -24.12037,0.83636 -0.33515,0.24255 -1.20082,0.47102 -1.92363,0.50725 -1.35912,0.0704 -9.42088,3.09997 -9.96008,3.74611 -0.16758,0.20029 -1.53879,0.94808 -3.0471,1.66004 -7.07097,3.33871 -16.59901,12.57441 -21.42018,20.7629 -2.98087,5.06285 -6.0452,12.23956 -6.15373,14.41198 -0.0362,0.72264 -0.26439,1.58849 -0.50735,1.92364 -0.88608,1.22263 -1.7471,9.89704 -1.54247,15.54021 0.37017,10.20935 3.87913,21.01874 12.26528,37.78411 4.90051,9.797 10.63582,22.27287 12.1869,26.50983 0.61353,1.67585 1.35122,3.35994 1.63932,3.74229 0.28815,0.38245 0.65863,1.74791 0.82338,3.03455 0.16476,1.28675 0.55597,3.30489 0.86948,4.48495 0.31351,1.17997 0.75634,3.99652 0.9841,6.25903 l 0.41416,4.11356 h 10.86469 10.8647 z m -10.18707,-35.62023 c -2.69389,-1.14524 -4.26595,-3.64487 -4.26595,-6.78298 0,-2.56021 0.28432,-3.27057 1.99234,-4.97872 l 1.99233,-1.99227 h 17.64976 17.64976 l 1.99233,1.99227 c 1.71477,1.7148 1.99235,2.41368 1.99235,5.01606 0,2.60188 -0.27779,3.30156 -1.9914,5.01595 l -1.9914,1.99237 -16.90064,0.12782 c -9.29535,0.0704 -17.44912,-0.10568 -18.11948,-0.3905 z m 0,-21.95313 c -2.67883,-1.1081 -4.26595,-3.62644 -4.26595,-6.76899 0,-2.56021 0.28432,-3.27056 1.99234,-4.97871 l 1.99233,-1.99227 h 17.62147 17.62146 l 1.86069,1.78262 c 3.54481,3.39617 2.92418,8.73671 -1.31573,11.32178 -1.85731,1.13246 -3.05376,1.21006 -18.13813,1.17604 -8.8823,-0.0201 -16.69812,-0.26269 -17.36848,-0.54047 z"
       id="path869"
       inkscape:connector-curvature="0" />
    <path
       inkscape:connector-curvature="0"
       id="path867"
       d="m 250.06634,410.94467 c -1.7616,-0.6089 -4.52768,-2.22355 -6.14684,-3.5888 l -2.94393,-2.48242 -8.62161,-0.20028 -8.62163,-0.20028 -1.99059,-1.99238 c -1.70762,-1.70915 -1.9906,-2.4181 -1.9906,-4.98767 0,-2.48362 0.30586,-3.31465 1.78993,-4.86368 0.98441,-1.02758 2.14997,-1.86827 2.59003,-1.86827 0.44002,0 0.80013,-0.27376 0.80013,-0.60991 0,-0.33515 -0.36011,-0.6089 -0.80013,-0.6089 -0.44002,0 -1.60558,-0.84039 -2.59003,-1.86828 -1.47938,-1.5442 -1.78993,-2.38308 -1.78993,-4.8354 0,-2.45222 0.3106,-3.29119 1.78993,-4.83529 0.98441,-1.02759 2.14997,-1.86828 2.59003,-1.86828 0.44002,0 0.80013,-0.27476 0.80013,-0.60991 0,-0.33515 -0.36011,-0.60991 -0.80013,-0.60991 -0.44002,0 -1.60558,-0.84038 -2.59003,-1.86827 -1.48411,-1.54903 -1.78993,-2.38006 -1.78993,-4.86358 0,-2.57048 0.28262,-3.27801 1.99234,-4.98777 l 1.99234,-1.99227 h 32.27584 32.27586 l 1.99233,1.99227 c 1.7097,1.70976 1.99234,2.41729 1.99234,4.98777 0,2.48352 -0.30583,3.31455 -1.78993,4.86358 -0.98446,1.02758 -2.14997,1.86827 -2.59003,1.86827 -0.44003,0 -0.80013,0.27376 -0.80013,0.60991 0,0.33515 0.36,0.60991 0.80013,0.60991 1.40347,0 4.10885,3.39134 4.46726,5.6 0.43626,2.68833 -1.04698,5.71534 -3.47837,7.0985 -1.88346,1.07157 -2.32262,1.92756 -0.98893,1.92756 1.40347,0 4.10885,3.39134 4.46726,5.6 0.44235,2.72587 -1.01558,5.63381 -3.62106,7.22249 -1.66538,1.01541 -3.08991,1.18993 -9.72975,1.19194 l -7.77872,0.002 -3.33491,2.71631 c -5.448,4.43745 -11.552,5.61882 -17.82871,3.45042 z m -61.26857,-13.90483 c -1.4741,-0.38245 -19.94653,-10.98864 -21.36683,-12.26764 -1.80119,-1.6218 -2.83236,-4.11347 -2.83236,-6.84377 0,-2.0282 1.0932,-4.56547 5.48478,-12.73 3.01664,-5.60835 5.48479,-10.3577 5.48479,-10.55416 0,-0.19626 -4.25123,-4.63632 -9.44718,-9.86634 l -9.44719,-9.50916 -8.9382,5.28699 c -11.30765,6.68868 -12.66531,7.23739 -15.8106,6.39047 -3.40628,-0.91688 -5.42542,-3.36286 -11.37284,-13.77531 -5.68052,-9.94515 -6.2595,-11.43872 -5.66416,-14.61217 0.65218,-3.47658 2.99605,-5.492 12.87472,-11.07086 5.17657,-2.92334 9.41196,-5.56508 9.41196,-5.87043 0,-0.30496 -0.83858,-3.25447 -1.86348,-6.55341 -1.02491,-3.29895 -2.48455,-8.96376 -3.24365,-12.5884 l -1.38018,-6.59024 -12.19381,-0.30496 c -12.09015,-0.30193 -12.2121,-0.31904 -14.34379,-1.94627 C 100.35578,270.73751 100,269.23236 100,256.07894 c 0,-13.15362 0.35578,-14.65866 4.15004,-17.55523 2.14927,-1.64072 2.1559,-1.64162 14.51025,-1.82842 10.99261,-0.16607 12.3929,-0.30093 12.65752,-1.21892 0.16365,-0.56763 0.74679,-3.50003 1.29589,-6.51667 0.54912,-3.01664 1.95859,-8.45701 3.13223,-12.0897 1.17364,-3.63278 2.0438,-6.69038 1.93366,-6.79485 -0.1101,-0.10467 -4.31382,-2.56968 -9.34154,-5.47832 -10.13239,-5.86168 -12.14427,-7.47049 -13.14882,-10.5143 -1.08478,-3.28697 -0.20794,-5.84326 5.36742,-15.64851 5.60501,-9.85729 6.86009,-11.57631 9.42705,-12.91197 3.61054,-1.87854 6.05539,-1.20925 16.9088,4.62857 5.60834,3.01664 10.34509,5.48486 10.52612,5.48486 0.18096,0 4.62773,-4.25427 9.88159,-9.4538 l 9.55247,-9.4538 -4.93344,-8.19906 c -6.4327,-10.69053 -7.49093,-13.11135 -6.96263,-15.9274 0.67633,-3.60531 3.45247,-5.99724 13.68444,-11.79098 10.53592,-5.96585 11.75207,-6.44401 14.89107,-5.85514 3.4791,0.65319 5.49272,2.99722 11.09623,12.91962 4.52207,8.00743 5.5298,9.41445 6.57517,9.17985 0.67905,-0.15198 4.52544,-1.24176 8.54762,-2.42092 4.02218,-1.17906 9.43841,-2.49932 12.03606,-2.93381 l 4.723,-0.79006 v -11.52045 c 0,-12.95857 0.36545,-14.48807 4.15192,-17.37609 l 2.15212,-1.64152 h 13.19742 13.19742 l 2.15214,1.64152 c 3.79062,2.89124 4.1519,4.40997 4.1519,17.45389 0,10.52205 0.0986,11.62683 1.06649,11.90672 0.58656,0.17009 3.53464,0.75786 6.55127,1.30678 3.01663,0.54952 8.45701,1.95865 12.08975,3.13228 3.63272,1.17362 6.68202,2.0438 6.77622,1.93369 0.0942,-0.1097 2.55678,-4.31385 5.47241,-9.34158 5.88064,-10.1406 7.48758,-12.14183 10.56508,-13.15744 3.3555,-1.1074 5.52809,-0.36534 15.45582,5.28065 10.0238,5.70054 11.73993,6.95005 13.07836,9.52244 1.86782,3.58991 1.20246,6.04696 -4.61858,17.05583 l -5.47481,10.35397 3.49419,3.13621 c 4.52747,4.06365 6.93975,6.48406 11.56634,11.60549 2.0807,2.30317 4.12995,4.05047 4.55779,3.88611 0.42753,-0.16405 5.0146,-2.80145 10.1935,-5.86067 8.23253,-4.86287 9.77249,-5.56205 12.25064,-5.56205 4.71097,0 6.25579,1.53373 12.60184,12.5117 6.34727,10.97999 7.15015,12.90835 6.59864,15.84809 -0.64267,3.42576 -2.97921,5.43877 -13.16881,11.34553 -5.34632,3.09917 -9.71232,5.92297 -9.70222,6.27513 0.0102,0.35226 0.95609,3.76554 2.10221,7.58542 1.1461,3.81989 2.57755,9.49527 3.18098,12.61195 l 1.09714,5.66682 12.18852,0.1862 c 11.74325,0.17915 12.26348,0.23953 14.24016,1.64917 3.79727,2.70826 4.32007,4.92618 4.32387,18.34288 0.003,11.17524 -0.0779,12.02901 -1.36032,14.3214 -0.89852,1.6062 -2.29033,2.90543 -4.08034,3.80892 -2.54247,1.28323 -3.4844,1.37119 -14.69048,1.37119 h -11.97382 l -1.35723,6.85595 c -0.74648,3.77077 -2.2667,9.67361 -3.37828,13.11728 l -2.02104,6.26144 5.88285,3.42385 c 16.29671,9.4848 17.15713,10.25655 17.15713,15.38854 0,2.42988 -0.76192,4.15443 -5.54726,12.55539 -6.12817,10.75826 -7.67456,12.73342 -10.76887,13.75467 -3.43858,1.13487 -5.8733,0.27979 -15.69419,-5.51022 -5.14401,-3.03285 -9.48541,-5.51425 -9.64756,-5.51425 -0.16216,0 -4.57909,4.24481 -9.81542,9.43307 l -9.52058,9.43317 5.29539,8.95218 c 6.69735,11.32248 7.24582,12.67888 6.39873,15.82474 -0.91946,3.41459 -3.34421,5.40505 -14.07997,11.55769 -8.51825,4.88179 -9.75588,5.41461 -12.60079,5.42498 -3.51972,0.0101 -5.69086,-1.20916 -7.89238,-4.44198 -1.07337,-1.5762 -1.21465,-2.35298 -0.82115,-4.51464 0.26138,-1.436 0.40729,-8.23277 0.32423,-15.10402 -0.14623,-12.09543 -0.10771,-12.55136 1.21005,-14.3214 3.65892,-4.91481 6.33887,-12.86165 6.37101,-18.89201 0.0313,-5.87415 2.67531,-12.85591 11.77036,-31.08043 8.9615,-17.95701 13.69161,-30.33999 16.06251,-42.05005 1.64233,-8.1116 1.48568,-25.17035 -0.30862,-33.60814 -7.91811,-37.23569 -35.88644,-65.10383 -73.12907,-72.86699 -9.24006,-1.92615 -26.79516,-1.91488 -35.84109,0.0201 -42.28417,9.05816 -72.33569,44.04755 -74.37065,86.59076 -0.43942,9.18669 0.40499,17.01266 2.86625,26.56499 2.49123,9.66858 5.16012,16.24896 13.96519,34.43232 10.01156,20.67483 11.60615,24.87294 12.26833,32.29925 0.73702,8.26508 2.77639,14.43382 6.34972,19.20632 1.26155,1.6849 1.32413,2.12431 0.75212,5.28034 -0.41556,2.2928 -0.42452,4.68111 -0.0272,7.15115 0.38668,2.40119 0.3897,4.99763 0.008,7.36511 -0.38779,2.40763 -0.37682,4.95748 0.0322,7.46545 0.68388,4.19479 0.22937,5.76113 -2.37557,8.18658 -2.41227,2.246 -5.45777,3.0257 -8.61507,2.20564 z m 33.66018,-44.0233 c -6.83366,-2.10791 -10.05565,-7.12306 -10.60493,-16.50702 -0.18559,-3.17052 -0.93923,-6.80854 -2.17408,-10.49457 -2.03784,-6.08309 -10.64987,-25.05803 -11.97379,-26.38191 -0.44404,-0.44385 -0.80727,-1.06684 -0.80727,-1.38408 0,-0.31703 -1.25534,-3.28495 -2.78963,-6.59477 -4.33099,-9.34309 -4.33374,-9.34974 -6.35302,-15.15938 -3.76565,-10.83405 -4.59315,-15.73999 -4.52297,-26.81448 0.0543,-8.51479 0.2963,-10.52839 2.03441,-16.90759 7.07539,-25.96755 26.47277,-45.35795 52.31384,-52.29492 6.75986,-1.81463 8.62568,-2.03102 17.82175,-2.06725 9.45944,-0.0403 12.43496,0.29187 19.19674,2.12613 2.68145,0.72766 5.56096,1.47123 6.39892,1.6533 0.83797,0.18216 1.66067,0.49618 1.82826,0.69747 0.16758,0.20129 2.49863,1.42302 5.18008,2.7146 10.00997,4.8215 20.09378,13.06897 26.43142,21.61797 3.72453,5.02421 9.34624,15.40123 10.41882,19.23209 0.43796,1.56432 1.03741,2.99318 1.33208,3.17535 0.29467,0.18217 0.3922,0.56361 0.21675,0.84743 -0.17546,0.28382 -0.01,1.2934 0.36837,2.24328 0.37806,0.95009 0.79736,2.68683 0.93177,3.86005 0.13441,1.17312 0.48522,2.84926 0.77957,3.72488 0.29434,0.87561 0.46787,5.67477 0.38562,10.66486 -0.2561,15.5379 -3.17239,24.89327 -15.28723,49.04127 -7.78048,15.50841 -11.85034,25.51032 -12.75005,31.33386 -0.54231,3.5102 -0.87307,6.11993 -1.22318,9.65086 -0.56363,5.68434 -2.41255,8.40679 -7.338,10.80476 l -3.04711,1.48351 -32.60399,0.10769 c -17.9322,0.0604 -33.30562,-0.1087 -34.16315,-0.37339 z m 26.3723,-37.50764 0.17311,-23.45163 1.99233,-1.99166 c 1.71457,-1.71409 2.4139,-1.99177 5.016,-1.99177 2.6021,0 3.30145,0.27778 5.01601,1.99177 l 1.99233,1.99166 0.17311,23.45163 0.17311,23.45153 h 10.86469 10.8647 l 0.41627,-4.11356 c 0.22896,-2.26251 0.83586,-5.8962 1.34859,-8.07487 0.51279,-2.17866 1.02576,-4.37253 1.13994,-4.87535 0.37027,-1.63005 5.59527,-14.27168 7.24169,-17.52071 0.88045,-1.73744 1.6008,-3.5567 1.6008,-4.04262 0,-0.48611 0.24119,-0.97525 0.53599,-1.08676 0.6326,-0.23954 4.93551,-8.72886 8.94166,-17.64068 3.27425,-7.28369 6.64899,-17.13917 7.3845,-21.56544 0.8101,-4.87505 0.44184,-17.21938 -0.65184,-21.84977 -1.10168,-4.6643 -3.90001,-12.07752 -4.77532,-12.65059 -0.31324,-0.20532 -0.55005,-0.61695 -0.52624,-0.91386 0.19694,-2.46329 -12.75932,-18.51911 -14.94407,-18.51911 -0.48306,0 -1.03554,-0.40963 -1.22774,-0.91084 -0.95392,-2.48593 -16.92341,-10.26399 -22.28681,-10.85508 -1.16738,-0.12883 -2.46018,-0.44284 -2.87289,-0.69747 -2.14853,-1.32792 -22.08828,-0.63608 -24.12037,0.83636 -0.33515,0.24255 -1.20082,0.47102 -1.92363,0.50725 -1.35912,0.0704 -9.42088,3.09997 -9.96008,3.74611 -0.16758,0.20029 -1.53879,0.94808 -3.0471,1.66004 -7.07097,3.33871 -16.59901,12.57441 -21.42018,20.7629 -2.98087,5.06285 -6.0452,12.23956 -6.15373,14.41198 -0.0362,0.72264 -0.26439,1.58849 -0.50735,1.92364 -0.88608,1.22263 -1.7471,9.89704 -1.54247,15.54021 0.37017,10.20935 3.87913,21.01874 12.26528,37.78411 4.90051,9.797 10.63582,22.27287 12.1869,26.50983 0.61353,1.67585 1.35122,3.35994 1.63932,3.74229 0.28815,0.38245 0.65863,1.74791 0.82338,3.03455 0.16476,1.28675 0.55597,3.30489 0.86948,4.48495 0.31351,1.17997 0.75634,3.99652 0.9841,6.25903 l 0.41416,4.11356 h 10.86469 10.8647 z m -10.18707,-35.62023 c -2.69389,-1.14524 -4.26595,-3.64487 -4.26595,-6.78298 0,-2.56021 0.28432,-3.27057 1.99234,-4.97872 l 1.99233,-1.99227 h 17.64976 17.64976 l 1.99233,1.99227 c 1.71477,1.7148 1.99235,2.41368 1.99235,5.01606 0,2.60188 -0.27779,3.30156 -1.9914,5.01595 l -1.9914,1.99237 -16.90064,0.12782 c -9.29535,0.0704 -17.44912,-0.10568 -18.11948,-0.3905 z m 0,-21.95313 c -2.67883,-1.1081 -4.26595,-3.62644 -4.26595,-6.76899 0,-2.56021 0.28432,-3.27056 1.99234,-4.97871 l 1.99233,-1.99227 h 17.62147 17.62146 l 1.86069,1.78262 c 3.54481,3.39617 2.92418,8.73671 -1.31573,11.32178 -1.85731,1.13246 -3.05376,1.21006 -18.13813,1.17604 -8.8823,-0.0201 -16.69812,-0.26269 -17.36848,-0.54047 z"
       style="fill:#ffffff;stroke-width:0.60942054" />
  </g>
</svg>
