<?xml version="1.0" encoding="UTF-8" standalone="no"?>
<!-- Created with Inkscape (http://www.inkscape.org/) -->

<svg
   xmlns:dc="http://purl.org/dc/elements/1.1/"
   xmlns:cc="http://creativecommons.org/ns#"
   xmlns:rdf="http://www.w3.org/1999/02/22-rdf-syntax-ns#"
   xmlns:svg="http://www.w3.org/2000/svg"
   xmlns="http://www.w3.org/2000/svg"
   xmlns:sodipodi="http://sodipodi.sourceforge.net/DTD/sodipodi-0.dtd"
   xmlns:inkscape="http://www.inkscape.org/namespaces/inkscape"
   id="svg2"
   version="1.1"
   inkscape:version="0.92.2 5c3e80d, 2017-08-06"
   width="512"
   height="512"
   sodipodi:docname="applications-system.svg"
   viewBox="0 0 512 512">
  <metadata
     id="metadata8">
    <rdf:RDF>
      <cc:Work
         rdf:about="">
        <dc:format>image/svg+xml</dc:format>
        <dc:type
           rdf:resource="http://purl.org/dc/dcmitype/StillImage" />
        <dc:title />
      </cc:Work>
    </rdf:RDF>
  </metadata>
  <defs
     id="defs6">
    <inkscape:perspective
       sodipodi:type="inkscape:persp3d"
       inkscape:vp_x="0 : 256 : 1"
       inkscape:vp_y="0 : 1000 : 0"
       inkscape:vp_z="512 : 256 : 1"
       inkscape:persp3d-origin="256 : 170.66667 : 1"
       id="perspective4141" />
  </defs>
  <sodipodi:namedview
     pagecolor="#ffffff"
     bordercolor="#666666"
     borderopacity="1"
     objecttolerance="10"
     gridtolerance="10"
     guidetolerance="10"
     inkscape:pageopacity="0"
     inkscape:pageshadow="2"
     inkscape:window-width="1366"
     inkscape:window-height="717"
     id="namedview4"
     showgrid="false"
     inkscape:zoom="0.18847656"
     inkscape:cx="417.03221"
     inkscape:cy="521.37857"
     inkscape:window-x="0"
     inkscape:window-y="24"
     inkscape:window-maximized="1"
     inkscape:current-layer="svg2"
     showguides="false"
     inkscape:guide-bbox="true"
     inkscape:document-units="px" />
  <g
     transform="matrix(3.7795276,0,0,3.7795276,-1.4959261e-5,-610.51964)"
     id="g852">
    <path
       style="fill:#3689e6;fill-opacity:1;stroke-width:2.93940377"
       inkscape:connector-curvature="0"
       d="m 114.54164,176.47539 c 27.03854,23.43536 28,66.06638 2.14757,95.22322 -25.85243,29.15684 -68.725635,33.79466 -95.764176,10.3593 -27.0385417,-23.43536 -27.9999994,-66.06638 -2.14757,-95.22322 25.852429,-29.15684 68.725634,-33.79466 95.764176,-10.3593 z"
       id="path27" />
    <path
       style="opacity:0.1;stroke-width:2.93940377"
       inkscape:connector-curvature="0"
       d="m 135.37023,221.03904 c -0.41047,16.22204 -6.65724,32.84924 -18.77652,46.51758 C 90.741279,296.71347 47.868074,301.35128 20.829532,277.91593 8.156347,266.93158 1.189788,251.73582 0.05128753,235.67719 c 0.1601395,17.55687 7.12353137,34.46287 20.87161747,46.37888 27.038541,23.43535 69.913781,18.79524 95.764175,-10.35931 13.1511,-14.83204 19.31591,-33.1499 18.68315,-50.65772 z"
       id="path51" />
    <path
       style="fill:#317ccf;fill-opacity:1;stroke-width:0.17774148"
       d="m 67.399579,273.08119 c -0.828767,-0.10245 -1.702879,-0.35069 -2.310638,-0.6562 -1.415303,-0.71147 -1.862191,-1.69105 -2.12972,-4.66836 -0.247745,-2.75708 -0.375692,-3.3955 -0.714141,-3.56334 -0.146643,-0.0727 -1.206166,-0.42914 -2.354511,-0.79204 -1.148339,-0.36291 -3.107938,-1.17094 -4.354666,-1.79563 -1.246721,-0.62468 -2.395483,-1.13592 -2.552793,-1.13608 -0.157317,-1.7e-4 -0.637216,0.30438 -1.066449,0.67676 -1.411394,1.22447 -3.261171,2.64099 -3.838854,2.93972 -0.899203,0.465 -2.325094,0.38306 -3.39824,-0.19526 -2.774877,-1.4954 -6.539714,-5.70904 -6.875207,-7.6948 -0.216017,-1.2786 0.4284,-2.43905 3.10071,-5.58369 0.494859,-0.58231 0.899599,-1.18219 0.899438,-1.33306 -1.68e-4,-0.15086 -0.501477,-1.27451 -1.114011,-2.49699 -0.612542,-1.22248 -1.41865,-3.18208 -1.791353,-4.35467 -0.372696,-1.17259 -0.739057,-2.25195 -0.814122,-2.39858 -0.168549,-0.32926 -0.781064,-0.45937 -3.389877,-0.72011 -1.124215,-0.11235 -2.339463,-0.28755 -2.700557,-0.38932 -1.044287,-0.29433 -1.850113,-1.08075 -2.277284,-2.22248 -0.511526,-1.36719 -0.75041,-4.42445 -0.532438,-6.8142 0.19712,-2.16104 0.386958,-2.91435 0.942176,-3.73864 0.711871,-1.05688 1.541222,-1.3663 4.49754,-1.67801 1.456296,-0.15354 2.816903,-0.3128 3.023569,-0.3539 0.308138,-0.0613 0.509101,-0.48509 1.116772,-2.35518 0.407562,-1.25426 1.256186,-3.31504 1.885831,-4.57953 0.629645,-1.26448 1.146888,-2.46039 1.149434,-2.6576 0.0027,-0.19719 -0.338039,-0.75707 -0.756846,-1.24418 -2.707907,-3.14955 -3.214664,-4.03244 -3.113917,-5.42521 0.107592,-1.48748 0.913841,-2.71798 3.441852,-5.25298 2.615968,-2.6232 3.881962,-3.36853 5.49456,-3.2348 1.118035,0.0927 1.953184,0.59909 4.181528,2.5354 2.030634,1.76452 1.762862,1.73594 4.297961,0.45871 1.204285,-0.60674 3.309371,-1.48234 4.677979,-1.94578 2.886272,-0.97736 2.59441,-0.55996 2.933639,-4.19547 0.264271,-2.83214 0.419579,-3.35322 1.245666,-4.17931 1.108798,-1.10879 2.110192,-1.32928 6.040837,-1.33004 3.676861,-6.7e-4 4.734879,0.17838 5.857354,0.99149 1.122046,0.81281 1.401526,1.56808 1.722488,4.65485 0.274449,2.63949 0.525217,3.50671 1.013997,3.50671 0.625715,0 3.861895,1.22834 6.197059,2.35217 l 2.615612,1.25882 0.611594,-0.428 c 0.33638,-0.2354 1.358908,-1.03677 2.272285,-1.78083 0.913378,-0.74406 1.916653,-1.48391 2.229514,-1.64411 0.849834,-0.43517 2.133274,-0.37142 3.197298,0.1588 2.024486,1.00885 5.505122,4.53999 6.476702,6.57071 0.59598,1.24565 0.65225,2.22409 0.18108,3.14828 -0.3484,0.68337 -1.78879,2.58155 -2.885206,3.8022 -0.360403,0.40124 -0.708109,0.89598 -0.772674,1.09941 -0.0825,0.25994 0.242936,1.09975 1.09485,2.82531 0.66674,1.35047 1.5177,3.39507 1.89105,4.54353 0.37332,1.14847 0.76902,2.14389 0.87931,2.21206 0.11029,0.0682 1.50163,0.26615 3.09186,0.43996 2.07891,0.22723 3.09166,0.41823 3.60429,0.67976 1.53738,0.78431 2.12719,2.62435 2.13221,6.65197 0.003,2.95279 -0.20989,4.33732 -0.85217,5.52428 -0.71916,1.32906 -1.4449,1.65369 -4.43027,1.98168 -3.94455,0.43339 -3.61075,0.22938 -4.39071,2.68356 -0.36519,1.14906 -1.21341,3.23276 -1.88495,4.63044 -0.992542,2.06578 -1.191207,2.61958 -1.061816,2.95991 0.08755,0.23026 0.243876,0.471 0.347397,0.53499 0.334338,0.20662 2.968199,3.5425 3.292759,4.17039 0.4744,0.91776 0.40487,2.14411 -0.18978,3.34761 -0.36437,0.73742 -1.1469,1.66381 -2.819938,3.33834 -2.689883,2.69226 -3.892119,3.45892 -5.424118,3.45892 -1.173524,0 -1.709039,-0.26269 -3.467937,-1.70113 -2.124105,-1.7371 -2.780601,-2.20918 -3.072173,-2.20918 -0.145118,0 -1.312878,0.51983 -2.595021,1.15517 -1.282144,0.63535 -3.289164,1.46714 -4.460048,1.84844 -1.309734,0.42652 -2.209669,0.81982 -2.338859,1.02216 -0.115485,0.18089 -0.337219,1.52332 -0.492736,2.98318 -0.413581,3.88236 -0.93304,4.69965 -3.393383,5.33895 -1.308988,0.34015 -5.216363,0.48709 -7.020788,0.26405 z m 5.065636,-23.118 c 6.3023,-0.77232 11.548893,-4.51057 14.31677,-10.20084 1.408888,-2.89643 1.68239,-4.20885 1.666798,-7.99837 -0.01209,-2.94257 -0.05139,-3.32465 -0.489768,-4.76064 -1.011632,-3.31401 -2.387549,-5.63747 -4.719199,-7.96912 -2.32938,-2.32938 -4.645526,-3.70172 -7.969118,-4.72178 -1.456068,-0.44689 -1.782915,-0.47918 -4.849512,-0.47918 -3.072266,0 -3.393276,0.0318 -4.88789,0.48526 -3.342731,1.01405 -5.911177,2.56996 -8.212214,4.97478 -1.616032,1.68892 -2.486395,2.94911 -3.43363,4.9715 -3.20978,6.85304 -1.743166,15.07794 3.650345,20.47145 2.854046,2.85405 6.799773,4.78036 10.733717,5.24024 1.749171,0.20448 2.434339,0.20231 4.193701,-0.0133 z"
       id="path846"
       inkscape:connector-curvature="0" />
    <path
       inkscape:connector-curvature="0"
       id="path844"
       d="m 64.753745,270.43535 c -0.828767,-0.10245 -1.702879,-0.35069 -2.310638,-0.6562 -1.415303,-0.71147 -1.862191,-1.69105 -2.12972,-4.66836 -0.247745,-2.75708 -0.375692,-3.3955 -0.714141,-3.56334 -0.146643,-0.0727 -1.206166,-0.42914 -2.354511,-0.79204 -1.148339,-0.36291 -3.107938,-1.17094 -4.354666,-1.79563 -1.246721,-0.62468 -2.395483,-1.13592 -2.552793,-1.13608 -0.157317,-1.7e-4 -0.637216,0.30438 -1.066449,0.67676 -1.411394,1.22447 -3.261171,2.64099 -3.838854,2.93972 -0.899203,0.465 -2.325094,0.38306 -3.39824,-0.19526 -2.774877,-1.4954 -6.539714,-5.70904 -6.875207,-7.6948 -0.216017,-1.2786 0.4284,-2.43905 3.10071,-5.58369 0.494859,-0.58231 0.899599,-1.18219 0.899438,-1.33306 -1.68e-4,-0.15086 -0.501477,-1.27451 -1.114011,-2.49699 -0.612542,-1.22248 -1.41865,-3.18208 -1.791353,-4.35467 -0.372696,-1.17259 -0.739057,-2.25195 -0.814122,-2.39858 -0.168549,-0.32926 -0.781064,-0.45937 -3.389877,-0.72011 -1.124215,-0.11235 -2.339463,-0.28755 -2.700557,-0.38932 -1.044287,-0.29433 -1.850113,-1.08075 -2.277284,-2.22248 -0.511526,-1.36719 -0.75041,-4.42445 -0.532438,-6.8142 0.19712,-2.16104 0.386958,-2.91435 0.942176,-3.73864 0.711871,-1.05688 1.541222,-1.3663 4.49754,-1.67801 1.456296,-0.15354 2.816903,-0.3128 3.023569,-0.3539 0.308138,-0.0613 0.509101,-0.48509 1.116772,-2.35518 0.407562,-1.25426 1.256186,-3.31504 1.885831,-4.57953 0.629645,-1.26448 1.146888,-2.46039 1.149434,-2.6576 0.0027,-0.19719 -0.338039,-0.75707 -0.756846,-1.24418 -2.707907,-3.14955 -3.214664,-4.03244 -3.113917,-5.42521 0.107592,-1.48748 0.913841,-2.71798 3.441852,-5.25298 2.615968,-2.6232 3.881962,-3.36853 5.49456,-3.2348 1.118035,0.0927 1.953184,0.59909 4.181528,2.5354 2.030634,1.76452 1.762862,1.73594 4.297961,0.45871 1.204285,-0.60674 3.309371,-1.48234 4.677979,-1.94578 2.886272,-0.97736 2.59441,-0.55996 2.933639,-4.19547 0.264271,-2.83214 0.419579,-3.35322 1.245666,-4.17931 1.108798,-1.10879 2.110192,-1.32928 6.040837,-1.33004 3.676861,-6.7e-4 4.734879,0.17838 5.857354,0.99149 1.122046,0.81281 1.401526,1.56808 1.722488,4.65485 0.274449,2.63949 0.525217,3.50671 1.013997,3.50671 0.625715,0 3.861895,1.22834 6.197059,2.35217 l 2.615612,1.25882 0.611594,-0.428 c 0.33638,-0.2354 1.358908,-1.03677 2.272285,-1.78083 0.913378,-0.74406 1.916653,-1.48391 2.229514,-1.64411 0.849834,-0.43517 2.133274,-0.37142 3.197298,0.1588 2.024486,1.00885 5.50512,4.53999 6.476707,6.57071 0.595979,1.24565 0.652249,2.22409 0.181078,3.14828 -0.348404,0.68337 -1.788792,2.58155 -2.885209,3.8022 -0.360403,0.40124 -0.708109,0.89598 -0.772674,1.09941 -0.0825,0.25994 0.242936,1.09975 1.094852,2.82531 0.666741,1.35047 1.517703,3.39507 1.891044,4.54353 0.373328,1.14847 0.769028,2.14389 0.879318,2.21206 0.11029,0.0682 1.50163,0.26615 3.09186,0.43996 2.07891,0.22723 3.09166,0.41823 3.60429,0.67976 1.53738,0.78431 2.12719,2.62435 2.13221,6.65197 0.003,2.95279 -0.20989,4.33732 -0.85217,5.52428 -0.71916,1.32906 -1.4449,1.65369 -4.43027,1.98168 -3.944553,0.43339 -3.61075,0.22938 -4.390715,2.68356 -0.365186,1.14906 -1.213407,3.23276 -1.884951,4.63044 -0.99254,2.06578 -1.191205,2.61958 -1.061814,2.95991 0.08755,0.23026 0.243876,0.471 0.347397,0.53499 0.334338,0.20662 2.968195,3.5425 3.292763,4.17039 0.4744,0.91776 0.40487,2.14411 -0.189782,3.34761 -0.364373,0.73742 -1.146902,1.66381 -2.81994,3.33834 -2.689883,2.69226 -3.892119,3.45892 -5.424118,3.45892 -1.173524,0 -1.709039,-0.26269 -3.467937,-1.70113 -2.124105,-1.7371 -2.780601,-2.20918 -3.072173,-2.20918 -0.145118,0 -1.312878,0.51983 -2.595021,1.15517 -1.282144,0.63535 -3.289164,1.46714 -4.460048,1.84844 -1.309734,0.42652 -2.209669,0.81982 -2.338859,1.02216 -0.115485,0.18089 -0.337219,1.52332 -0.492736,2.98318 -0.413581,3.88236 -0.93304,4.69965 -3.393383,5.33895 -1.308988,0.34015 -5.216363,0.48709 -7.020788,0.26405 z m 5.065636,-23.118 c 6.3023,-0.77232 11.548893,-4.51057 14.31677,-10.20084 1.408888,-2.89643 1.68239,-4.20885 1.666798,-7.99837 -0.01209,-2.94257 -0.05139,-3.32465 -0.489768,-4.76064 -1.011632,-3.31401 -2.387549,-5.63747 -4.719199,-7.96912 -2.32938,-2.32938 -4.645526,-3.70172 -7.969118,-4.72178 -1.456068,-0.44689 -1.782915,-0.47918 -4.849512,-0.47918 -3.072266,0 -3.393276,0.0318 -4.88789,0.48526 -3.342731,1.01405 -5.911177,2.56996 -8.212214,4.97478 -1.616032,1.68892 -2.486395,2.94911 -3.43363,4.9715 -3.20978,6.85304 -1.743166,15.07794 3.650345,20.47145 2.854046,2.85405 6.799773,4.78036 10.733717,5.24024 1.749171,0.20448 2.434339,0.20231 4.193701,-0.0133 z"
       style="fill:#ffffff;stroke-width:0.17774148" />
  </g>
</svg>
