<?xml version="1.0" encoding="UTF-8" standalone="no"?>
<svg
   xmlns:dc="http://purl.org/dc/elements/1.1/"
   xmlns:cc="http://creativecommons.org/ns#"
   xmlns:rdf="http://www.w3.org/1999/02/22-rdf-syntax-ns#"
   xmlns:svg="http://www.w3.org/2000/svg"
   xmlns="http://www.w3.org/2000/svg"
   xmlns:sodipodi="http://sodipodi.sourceforge.net/DTD/sodipodi-0.dtd"
   xmlns:inkscape="http://www.inkscape.org/namespaces/inkscape"
   viewBox="0 0 512 512"
   id="svg2"
   version="1.1"
   inkscape:version="0.92.2 5c3e80d, 2017-08-06"
   width="512"
   height="512"
   sodipodi:docname="cs-extensions.svg">
  <metadata
     id="metadata69">
    <rdf:RDF>
      <cc:Work
         rdf:about="">
        <dc:format>image/svg+xml</dc:format>
        <dc:type
           rdf:resource="http://purl.org/dc/dcmitype/StillImage" />
        <dc:title />
      </cc:Work>
    </rdf:RDF>
  </metadata>
  <sodipodi:namedview
     pagecolor="#ffffff"
     bordercolor="#666666"
     borderopacity="1"
     objecttolerance="10"
     gridtolerance="10"
     guidetolerance="10"
     inkscape:pageopacity="0"
     inkscape:pageshadow="2"
     inkscape:window-width="1366"
     inkscape:window-height="717"
     id="namedview67"
     showgrid="false"
     inkscape:zoom="0.10864401"
     inkscape:cx="-1487.8394"
     inkscape:cy="293.22341"
     inkscape:window-x="0"
     inkscape:window-y="24"
     inkscape:window-maximized="1"
     inkscape:current-layer="svg2"
     units="px" />
  <defs
     id="defs4">
    <linearGradient
       id="linearGradient3764"
       x1="1"
       x2="47"
       gradientUnits="userSpaceOnUse"
       gradientTransform="rotate(-90,23.999998,24)">
      <stop
         stop-color="#3d3d3d"
         stop-opacity="1"
         id="stop7" />
      <stop
         offset="1"
         stop-color="#474747"
         stop-opacity="1"
         id="stop9" />
    </linearGradient>
    <clipPath
       id="clipPath-173742668">
      <g
         transform="translate(0,-1004.3622)"
         id="g12">
        <path
           d="m -24,13 c 0,1.105 -0.672,2 -1.5,2 -0.828,0 -1.5,-0.895 -1.5,-2 0,-1.105 0.672,-2 1.5,-2 0.828,0 1.5,0.895 1.5,2 z"
           transform="matrix(15.8a715e,0,0,11.5,414.99999,878.8622)"
           id="path14"
           inkscape:connector-curvature="0"
           style="fill:#1890d0" />
      </g>
    </clipPath>
    <clipPath
       id="clipPath-179729665">
      <g
         transform="translate(0,-1004.3622)"
         id="g17">
        <path
           d="m -24,13 c 0,1.105 -0.672,2 -1.5,2 -0.828,0 -1.5,-0.895 -1.5,-2 0,-1.105 0.672,-2 1.5,-2 0.828,0 1.5,0.895 1.5,2 z"
           transform="matrix(15.8a715e,0,0,11.5,414.99999,878.8622)"
           id="path19"
           inkscape:connector-curvature="0"
           style="fill:#1890d0" />
      </g>
    </clipPath>
  </defs>
  <g
     id="g33"
     transform="translate(0,255952)" />
  <g
     id="g837">
    <path
       style="fill:#3689e6;fill-opacity:1;stroke-width:11.10955238"
       inkscape:connector-curvature="0"
       d="M 432.91336,56.473967 C 535.10616,145.04856 538.74002,306.17367 441.03015,416.37276 343.32009,526.57184 181.27947,544.10061 79.086668,455.52602 -23.106173,366.95143 -26.740033,205.82631 70.969876,95.627227 168.67975,-14.571854 330.72029,-32.100623 432.91336,56.473967 Z"
       id="path911" />
    <path
       style="opacity:1;stroke-width:11.10955238;fill:#000000;fill-opacity:0.49019608"
       inkscape:connector-curvature="0"
       d="m 511.635,224.90352 c -1.5514,61.31166 -25.16121,124.1546 -70.96631,175.81449 C 342.95882,510.9171 180.91852,528.44585 78.725714,439.87127 30.82711,398.35564 4.4968351,340.92283 0.19384574,280.22879 0.79909653,346.58547 27.117401,410.48219 79.078618,455.51904 181.27143,544.09362 343.31941,526.5562 441.02159,416.36578 490.72648,360.30764 514.02654,291.07481 511.635,224.90352 Z"
       id="path913" />
    <path
       inkscape:connector-curvature="0"
       style="fill:#000000;fill-opacity:0.49019608;stroke:none;stroke-width:0.698a715e"
       d="m 236.98828,119.69141 c -15.68809,0.0997 -33.29741,11.84607 -33.52344,32.49609 -0.22613,20.65003 17.78711,31.4707 17.78711,31.4707 v 15.39258 h -88.5957 l -8.55078,3.42188 -4.10547,9.23437 0.68359,87.57031 h 22.57618 c 0,0 10.16522,-18.37583 32.83984,-17.78711 22.67462,0.58873 31.50947,18.75526 31.4707,34.20704 -0.0387,15.45178 -12.35759,32.54729 -32.83984,33.17968 -20.48227,0.63238 -30.10156,-17.78711 -30.10156,-17.78711 h -23.94532 l -0.34179,86.20118 c 0,0 0.58462,6.74808 2.39453,9.23632 1.80991,2.48825 7.52539,4.78907 7.52539,4.78907 h 90.64844 v -21.89258 c 0,0 -17.05035,-9.79148 -17.44532,-29.75977 -0.39507,-19.96828 17.51551,-33.0328 32.83789,-33.52344 15.32238,-0.49063 33.07104,12.02449 34.20704,32.8379 1.13599,20.8134 -18.12891,31.1289 -18.12891,31.1289 V 432 l 92.70117,-1.02539 c 0,0 4.88567,-2.52213 6.49805,-5.13281 1.61238,-2.61068 2.05273,-9.91993 2.05273,-9.91992 v -84.83204 l 15.73438,-0.34179 c 0,0 8.54929,18.55193 29.76172,17.78711 21.2125,-0.76483 32.04969,-16.42894 32.83789,-32.1543 0.78819,-15.72535 -12.44545,-35.13922 -32.83789,-34.89063 -20.39245,0.24859 -29.76172,18.12891 -29.76172,18.12891 l -16.07617,-0.3418 V 209.3125 l -4.10547,-7.52539 -6.8418,-3.41992 -89.62109,1.02539 0.34179,-16.07617 c 0,0 16.48575,-8.50525 17.44532,-28.73438 0.95958,-20.22912 -17.83348,-34.99031 -33.52149,-34.89062 z m 24.94531,110.01757 c 6.37191,-0.0309 12.75549,2.36982 17.64063,7.20704 l 46.37305,45.91796 c 9.77436,9.67848 9.84825,25.44262 0.17382,35.2129 l -13.55078,13.68554 c -9.66229,9.75801 -25.42699,9.83264 -35.19726,0.1582 L 231,285.9707 c -9.77435,-9.67848 -9.84769,-25.44139 -0.18945,-35.19531 l 13.55078,-13.68555 c 4.83924,-4.88717 11.20036,-7.34996 17.57226,-7.38086 z"
       id="path854" />
    <path
       id="path3057"
       d="m 216.98828,99.691406 c -15.68809,0.09967 -33.29741,11.846074 -33.52344,32.496094 -0.22613,20.65003 17.78711,31.4707 17.78711,31.4707 v 15.39258 h -88.5957 l -8.55078,3.42188 -4.10547,9.23437 0.68359,87.57031 h 22.57618 c 0,0 10.16522,-18.37583 32.83984,-17.78711 22.67462,0.58873 31.50947,18.75526 31.4707,34.20704 -0.0387,15.45178 -12.35759,32.54729 -32.83984,33.17968 -20.48227,0.63238 -30.10156,-17.78711 -30.10156,-17.78711 h -23.94532 l -0.34179,86.20118 c 0,0 0.58462,6.74808 2.39453,9.23632 1.80991,2.48825 7.52539,4.78907 7.52539,4.78907 h 90.64844 v -21.89258 c 0,0 -17.05035,-9.79148 -17.44532,-29.75977 -0.39507,-19.96828 17.51551,-33.0328 32.83789,-33.52344 15.32238,-0.49063 33.07104,12.02449 34.20704,32.8379 1.13599,20.8134 -18.12891,31.1289 -18.12891,31.1289 V 412 l 92.70117,-1.02539 c 0,0 4.88567,-2.52213 6.49805,-5.13281 1.61238,-2.61068 2.05273,-9.91993 2.05273,-9.91992 v -84.83204 l 15.73438,-0.34179 c 0,0 8.54929,18.55193 29.76172,17.78711 21.2125,-0.76483 32.04969,-16.42894 32.83789,-32.1543 0.78819,-15.72535 -12.44545,-35.13922 -32.83789,-34.89063 -20.39245,0.24859 -29.76172,18.12891 -29.76172,18.12891 l -16.07617,-0.3418 V 189.3125 l -4.10547,-7.52539 -6.8418,-3.41992 -89.62109,1.02539 0.34179,-16.07617 c 0,0 16.48575,-8.50525 17.44532,-28.73438 0.95958,-20.22912 -17.83348,-34.990307 -33.52149,-34.890624 z m 24.94531,110.017574 c 6.37191,-0.0309 12.75549,2.36982 17.64063,7.20704 l 46.37305,45.91796 c 9.77436,9.67848 9.84825,25.44262 0.17382,35.2129 l -13.55078,13.68554 c -9.66229,9.75801 -25.42699,9.83264 -35.19726,0.1582 L 211,265.9707 c -9.77435,-9.67848 -9.84769,-25.44139 -0.18945,-35.19531 l 13.55078,-13.68555 c 4.83924,-4.88717 11.20036,-7.34996 17.57226,-7.38086 z"
       style="fill:#ffffff;fill-opacity:1;stroke:none;stroke-width:0.698a715e"
       inkscape:connector-curvature="0" />
  </g>
</svg>
