<?xml version="1.0" encoding="UTF-8" standalone="no"?>
<!-- Created with Inkscape (http://www.inkscape.org/) -->

<svg
   xmlns:dc="http://purl.org/dc/elements/1.1/"
   xmlns:cc="http://creativecommons.org/ns#"
   xmlns:rdf="http://www.w3.org/1999/02/22-rdf-syntax-ns#"
   xmlns:svg="http://www.w3.org/2000/svg"
   xmlns="http://www.w3.org/2000/svg"
   xmlns:sodipodi="http://sodipodi.sourceforge.net/DTD/sodipodi-0.dtd"
   xmlns:inkscape="http://www.inkscape.org/namespaces/inkscape"
   id="svg2"
   version="1.1"
   inkscape:version="0.92.2 5c3e80d, 2017-08-06"
   width="512"
   height="512"
   sodipodi:docname="gnome-util.svg">
  <metadata
     id="metadata8">
    <rdf:RDF>
      <cc:Work
         rdf:about="">
        <dc:format>image/svg+xml</dc:format>
        <dc:type
           rdf:resource="http://purl.org/dc/dcmitype/StillImage" />
        <dc:title></dc:title>
      </cc:Work>
    </rdf:RDF>
  </metadata>
  <defs
     id="defs6" />
  <sodipodi:namedview
     pagecolor="#ffffff"
     bordercolor="#666666"
     borderopacity="1"
     objecttolerance="10"
     gridtolerance="10"
     guidetolerance="10"
     inkscape:pageopacity="0"
     inkscape:pageshadow="2"
     inkscape:window-width="1366"
     inkscape:window-height="717"
     id="namedview4"
     showgrid="false"
     inkscape:zoom="0.5134683"
     inkscape:cx="-143.13687"
     inkscape:cy="237.66733"
     inkscape:window-x="0"
     inkscape:window-y="24"
     inkscape:window-maximized="1"
     inkscape:current-layer="svg2" />
  <g
     id="g871"
     transform="scale(0.99999895,1)">
    <path
       style="fill:#3689e6;fill-opacity:1;stroke-width:11.10955811"
       inkscape:connector-curvature="0"
       d="M 432.91381,56.473967 C 535.10672,145.04856 538.74058,306.17367 441.03061,416.37276 343.32045,526.57184 181.27967,544.10061 79.086756,455.52602 -23.10619,366.95143 -26.740055,205.82631 70.969956,95.627227 168.67993,-14.571854 330.72064,-32.100623 432.91381,56.473967 Z"
       id="path911" />
    <g
       id="g915"
       transform="matrix(8.0447857,6.9727288,-7.6918814,8.6750446,247.53033,-119.54657)">
      <path
         id="path913"
         d="m 40.03,7.531 c 3.712,4.084 5.969,9.514 5.969,15.469 0,12.703 -10.297,23 -23,23 C 17.045,46 11.615,43.744 7.53,40.031 11.708,44.322 17.54,47 23.999,47 c 12.703,0 23,-10.298 23,-23 0,-6.462 -2.677,-12.291 -6.969,-16.469 z"
         inkscape:connector-curvature="0"
         style="opacity:0.1" />
    </g>
    <path
       style="fill:#317ccf;fill-opacity:1;stroke-width:0.32989752"
       d="m 197.71029,377.28403 c -6.73347,-0.45661 -11.38157,-0.90869 -15.17528,-1.47596 -23.00221,-3.43949 -42.37863,-11.45475 -55.91763,-23.13091 -9.59834,-8.2777 -15.06083,-17.642 -16.31169,-27.96301 -0.27246,-2.24813 -0.35184,-14.70571 -0.28137,-44.15029 l 0.0982,-41.01847 2.07753,2.63758 c 4.25248,5.39885 11.78636,12.07472 18.37611,16.28333 13.19284,8.42573 30.95141,14.8236 48.82484,17.59007 11.23295,1.73866 1.85003,1.59995 121.56723,1.79717 l 110.68062,0.18232 1.76952,0.75226 c 3.76593,1.60098 6.2423,4.07804 7.75059,7.75277 0.70635,1.72089 0.70677,1.74201 0.80572,39.98991 0.0717,27.70965 -0.005,38.81121 -0.27808,40.2365 -0.71426,3.72838 -2.83494,6.77862 -6.05979,8.71601 -2.98814,1.79518 -4.53401,2.00573 -14.76869,2.0115 l -9.13124,0.005 -0.10589,-11.13404 -0.10588,-11.13404 -0.92733,-1.88842 c -3.33321,-6.78779 -12.85356,-6.90223 -16.19607,-0.19468 l -0.85602,1.7178 v 11.31669 11.31669 h -9.7186 -9.7186 l -0.0959,-21.69076 -0.0958,-21.69076 -0.77964,-1.72439 c -0.88663,-1.96104 -3.03233,-4.10177 -4.88877,-4.87743 -1.52504,-0.63721 -4.46069,-0.695 -6.36232,-0.12526 -1.77613,0.53214 -4.25638,2.75103 -5.21047,4.66142 l -0.73822,1.47813 v 21.98452 21.98453 h -9.70856 -9.70856 l -0.10589,-11.13404 -0.10589,-11.13404 -0.92732,-1.88842 c -3.33322,-6.78779 -12.85357,-6.90223 -16.19608,-0.19468 l -0.85602,1.7178 v 11.31669 11.31669 h -9.7186 -9.71861 l -0.0958,-21.69076 -0.0958,-21.69076 -0.78707,-1.74167 c -2.54802,-5.63841 -9.69632,-7.21426 -14.23095,-3.13723 -0.8745,0.78624 -1.90243,2.07495 -2.28431,2.8638 -0.68493,1.41488 -0.69414,1.7313 -0.68179,23.41544 l 0.0125,21.98118 h -9.70918 -9.70918 l -0.10918,-11.13404 -0.10917,-11.13404 -0.92968,-1.89323 c -3.38436,-6.89201 -12.90198,-6.88919 -16.28736,0.005 l -0.92731,1.88842 -0.10242,11.13404 -0.10242,11.13404 -11.77389,-0.0576 c -6.47564,-0.0317 -12.44193,-0.10293 -13.25843,-0.1583 z m -0.75625,-110.29735 c -23.22465,-1.31837 -44.68128,-7.43727 -60.43974,-17.23591 -11.16515,-6.94252 -19.84639,-16.22235 -23.59126,-25.21794 -2.07493,-4.9842 -2.72739,-8.27953 -2.76421,-13.96101 -0.0249,-3.84788 0.11075,-5.70719 0.54823,-7.51263 6.14285,-25.35061 38.34303,-44.70497 80.90013,-48.62612 5.93447,-0.5468 21.42334,-0.54824 27.38149,-0.003 48.51671,4.44347 83.08259,29.07337 81.54154,58.10236 -0.82506,15.54181 -11.91546,29.57843 -31.89752,40.37125 -12.56912,6.7889 -30.49987,11.85374 -48.06254,13.57605 -6.40257,0.62788 -17.34403,0.86254 -23.61612,0.5065 z m 14.00065,-31.50109 c 6.66916,-0.37719 15.35787,-2.56471 21.06495,-5.30344 6.17879,-2.96509 11.73751,-7.8788 13.9769,-12.35508 4.88999,-9.77454 -0.33275,-20.08579 -13.51662,-26.68587 -15.8721,-7.94585 -39.08588,-7.78954 -54.99985,0.37033 -10.0476,5.1519 -15.4902,12.92151 -14.42356,20.59039 0.63623,4.57426 2.24755,7.63054 6.01893,11.41639 5.54865,5.56993 15.37694,9.93859 25.83073,11.48171 3.14251,0.46388 9.69247,0.89573 11.54641,0.76127 0.72577,-0.0526 2.75172,-0.1767 4.50211,-0.2757 z m 50.45331,31.70022 c 0.0756,-0.0706 1.44129,-0.66573 3.03487,-1.32247 8.72155,-3.59431 18.21022,-9.25325 24.97893,-14.89716 2.59411,-2.16303 7.91419,-7.51314 9.9874,-10.04378 l 1.2162,-1.48454 0.006,13.93817 0.006,13.93817 h -19.68388 c -10.82614,0 -19.62203,-0.0578 -19.54643,-0.12839 z"
       id="path864"
       inkscape:connector-curvature="0" />
    <path
       inkscape:connector-curvature="0"
       id="path862"
       d="m 187.71029,367.28403 c -6.73347,-0.45661 -11.38157,-0.90869 -15.17528,-1.47596 -23.00221,-3.43949 -42.37863,-11.45475 -55.91763,-23.13091 -9.59834,-8.2777 -15.06083,-17.642 -16.31169,-27.96301 -0.27246,-2.24813 -0.351846,-14.70571 -0.28137,-44.15029 l 0.0982,-41.01847 2.07753,2.63758 c 4.25248,5.39885 11.78636,12.07472 18.37611,16.28333 13.19284,8.42573 30.95141,14.8236 48.82484,17.59007 11.23295,1.73866 1.85003,1.59995 121.56723,1.79717 l 110.68062,0.18232 1.76952,0.75226 c 3.76593,1.60098 6.2423,4.07804 7.75059,7.75277 0.70635,1.72089 0.70677,1.74201 0.80572,39.98991 0.0717,27.70965 -0.005,38.81121 -0.27808,40.2365 -0.71426,3.72838 -2.83494,6.77862 -6.05979,8.71601 -2.98814,1.79518 -4.53401,2.00573 -14.76869,2.0115 l -9.13124,0.005 -0.10589,-11.13404 -0.10588,-11.13404 -0.92733,-1.88842 c -3.33321,-6.78779 -12.85356,-6.90223 -16.19607,-0.19468 l -0.85602,1.7178 v 11.31669 11.31669 h -9.7186 -9.7186 l -0.0959,-21.69076 -0.0958,-21.69076 -0.77964,-1.72439 c -0.88663,-1.96104 -3.03233,-4.10177 -4.88877,-4.87743 -1.52504,-0.63721 -4.46069,-0.695 -6.36232,-0.12526 -1.77613,0.53214 -4.25638,2.75103 -5.21047,4.66142 l -0.73822,1.47813 v 21.98452 21.98453 h -9.70856 -9.70856 l -0.10589,-11.13404 -0.10589,-11.13404 -0.92732,-1.88842 c -3.33322,-6.78779 -12.85357,-6.90223 -16.19608,-0.19468 l -0.85602,1.7178 v 11.31669 11.31669 h -9.7186 -9.71861 l -0.0958,-21.69076 -0.0958,-21.69076 -0.78707,-1.74167 c -2.54802,-5.63841 -9.69632,-7.21426 -14.23095,-3.13723 -0.8745,0.78624 -1.90243,2.07495 -2.28431,2.8638 -0.68493,1.41488 -0.69414,1.7313 -0.68179,23.41544 l 0.0125,21.98118 h -9.70918 -9.70918 l -0.10918,-11.13404 -0.10917,-11.13404 -0.92968,-1.89323 c -3.38436,-6.89201 -12.90198,-6.88919 -16.28736,0.005 l -0.92731,1.88842 -0.10242,11.13404 -0.10242,11.13404 -11.77389,-0.0576 c -6.47564,-0.0317 -12.44193,-0.10293 -13.25843,-0.1583 z m -0.75625,-110.29735 c -23.22465,-1.31837 -44.68128,-7.43727 -60.43974,-17.23591 -11.16515,-6.94252 -19.84639,-16.22235 -23.59126,-25.21794 -2.07493,-4.9842 -2.72739,-8.27953 -2.76421,-13.96101 -0.0249,-3.84788 0.11075,-5.70719 0.54823,-7.51263 6.14285,-25.35061 38.34303,-44.70497 80.90013,-48.62612 5.93447,-0.5468 21.42334,-0.54824 27.38149,-0.003 48.51671,4.44347 83.08259,29.07337 81.54154,58.10236 -0.82506,15.54181 -11.91546,29.57843 -31.89752,40.37125 -12.56912,6.7889 -30.49987,11.85374 -48.06254,13.57605 -6.40257,0.62788 -17.34403,0.86254 -23.61612,0.5065 z m 14.00065,-31.50109 c 6.66916,-0.37719 15.35787,-2.56471 21.06495,-5.30344 6.17879,-2.96509 11.73751,-7.8788 13.9769,-12.35508 4.88999,-9.77454 -0.33275,-20.08579 -13.51662,-26.68587 -15.8721,-7.94585 -39.08588,-7.78954 -54.99985,0.37033 -10.0476,5.1519 -15.4902,12.92151 -14.42356,20.59039 0.63623,4.57426 2.24755,7.63054 6.01893,11.41639 5.54865,5.56993 15.37694,9.93859 25.83073,11.48171 3.14251,0.46388 9.69247,0.89573 11.54641,0.76127 0.72577,-0.0526 2.75172,-0.1767 4.50211,-0.2757 z m 50.45331,31.70022 c 0.0756,-0.0706 1.44129,-0.66573 3.03487,-1.32247 8.72155,-3.59431 18.21022,-9.25325 24.97893,-14.89716 2.59411,-2.16303 7.91419,-7.51314 9.9874,-10.04378 l 1.2162,-1.48454 0.006,13.93817 0.006,13.93817 h -19.68388 c -10.82614,0 -19.62203,-0.0578 -19.54643,-0.12839 z"
       style="fill:#ffffff;stroke-width:0.32989752" />
  </g>
</svg>
