<?xml version="1.0" encoding="UTF-8" standalone="no"?>
<!-- Created with Inkscape (http://www.inkscape.org/) -->

<svg
   xmlns:osb="http://www.openswatchbook.org/uri/2009/osb"
   xmlns:dc="http://purl.org/dc/elements/1.1/"
   xmlns:cc="http://creativecommons.org/ns#"
   xmlns:rdf="http://www.w3.org/1999/02/22-rdf-syntax-ns#"
   xmlns:svg="http://www.w3.org/2000/svg"
   xmlns="http://www.w3.org/2000/svg"
   xmlns:sodipodi="http://sodipodi.sourceforge.net/DTD/sodipodi-0.dtd"
   xmlns:inkscape="http://www.inkscape.org/namespaces/inkscape"
   width="512"
   height="512"
   id="svg859"
   version="1.1"
   inkscape:version="0.92.2 5c3e80d, 2017-08-06"
   sodipodi:docname="knetattach.svg"
   viewBox="0 0 512 512">
  <defs
     id="defs861">
    <linearGradient
       id="linearGradient4241"
       osb:paint="solid">
      <stop
         style="stop-color:#ba174e;stop-opacity:1;"
         offset="0"
         id="stop4243" />
    </linearGradient>
  </defs>
  <sodipodi:namedview
     id="base"
     pagecolor="#ffffff"
     bordercolor="#666666"
     borderopacity="1.0"
     inkscape:pageopacity="0.0"
     inkscape:pageshadow="2"
     inkscape:zoom="0.5"
     inkscape:cx="73.208876"
     inkscape:cy="220.75842"
     inkscape:document-units="px"
     inkscape:current-layer="layer1"
     showgrid="false"
     width="0px"
     height="0px"
     fit-margin-top="0"
     fit-margin-left="0"
     fit-margin-right="0"
     fit-margin-bottom="0"
     inkscape:window-width="1366"
     inkscape:window-height="717"
     inkscape:window-x="0"
     inkscape:window-y="24"
     inkscape:window-maximized="1" />
  <metadata
     id="metadata864">
    <rdf:RDF>
      <cc:Work
         rdf:about="">
        <dc:format>image/svg+xml</dc:format>
        <dc:type
           rdf:resource="http://purl.org/dc/dcmitype/StillImage" />
        <dc:title />
      </cc:Work>
    </rdf:RDF>
  </metadata>
  <g
     inkscape:label="Capa 1"
     inkscape:groupmode="layer"
     id="layer1"
     transform="translate(0,-540.3622)">
    <g
       id="g830">
      <path
         style="fill:#3689e6;fill-opacity:1;stroke-width:11.10955238"
         inkscape:connector-curvature="0"
         d="m 432.91336,596.83617 c 102.1928,88.57459 105.82666,249.69971 8.11679,359.89879 C 343.32009,1066.934 181.27947,1084.4628 79.086668,995.88822 -23.106173,907.31363 -26.740033,746.18851 70.969876,635.98943 168.67975,525.79035 330.72029,508.26158 432.91336,596.83617 Z"
         id="path911" />
      <path
         style="opacity:1;stroke-width:11.10955238;fill:#000000;fill-opacity:0.49019608"
         inkscape:connector-curvature="0"
         d="m 511.635,765.26572 c -1.5514,61.31166 -25.16121,124.1546 -70.96631,175.81449 C 342.95882,1051.2793 180.91852,1068.808 78.725714,980.23347 30.82711,938.71784 4.4968351,881.28503 0.19384574,820.59099 0.79909653,886.94767 27.117401,950.84439 79.078618,995.88124 181.27143,1084.4558 343.31941,1066.9184 441.02159,956.72798 490.72648,900.66984 514.02654,831.43701 511.635,765.26572 Z"
         id="path913" />
      <path
         inkscape:connector-curvature="0"
         style="fill:#000000;fill-opacity:0.49019608;stroke-width:0.60942411"
         d="m 276.5724,692.51669 c -87.6555,-0.006 -127.60554,0.19221 -130.11133,0.64648 -12.49721,2.2656 -23.54886,13.31724 -25.81446,25.81445 -0.44958,2.47989 -0.65248,33.11776 -0.64648,97.50782 0.008,81.5257 0.12982,94.40601 0.92773,97.79101 2.67196,11.3353 12.03142,21.05017 23.25196,24.13477 4.54779,1.25 258.68549,1.27851 263.3789,0.0293 11.43247,-3.04279 20.81453,-12.68026 23.52149,-24.16406 0.79825,-3.3864 0.91797,-16.30477 0.91797,-98.35937 0,-104.07316 0.20454,-98.37615 -3.78907,-105.98438 -2.49693,-4.75689 -8.86029,-11.12025 -13.61718,-13.61719 -7.69426,-4.03876 1.38177,-3.78882 -138.01953,-3.79882 z m -111.57227,26.8457 a 15,15 0 0 1 15,15 15,15 0 0 1 -15,15 15,15 0 0 1 -15,-15 15,15 0 0 1 15,-15 z m 44,0 a 15,15 0 0 1 15,15 15,15 0 0 1 -15,15 15,15 0 0 1 -15,-15 15,15 0 0 1 15,-15 z m 44,0 a 15,15 0 0 1 15,15 15,15 0 0 1 -15,15 15,15 0 0 1 -15,-15 15,15 0 0 1 15,-15 z M 132.7638,770.51473 h 143.24219 143.24219 l -0.16797,70.54102 -0.16602,70.54102 -1.32812,2.875 c -1.86541,4.0378 -6.35258,8.61035 -10.1211,10.31445 l -3.17773,1.43555 -127.36914,0.11523 c -133.38724,0.1199 -129.1202,0.19696 -134.10547,-2.40234 -2.63626,-1.3747 -6.85342,-6.13679 -8.40234,-9.48829 l -1.31641,-2.8496 -0.16406,-70.54102 z"
         id="path948" />
      <path
         id="path936"
         d="m 256.57227,672.5165 c -87.6555,-0.006 -127.60554,0.19221 -130.11133,0.64648 -12.49721,2.2656 -23.54886,13.31724 -25.81446,25.81445 -0.44958,2.47989 -0.65248,33.11776 -0.64648,97.50782 0.008,81.5257 0.12982,94.40601 0.92773,97.79101 2.67196,11.3353 12.03142,21.05017 23.25196,24.13477 4.54779,1.25 258.68549,1.27851 263.3789,0.0293 11.43247,-3.04279 20.81453,-12.68026 23.52149,-24.16406 0.79825,-3.3864 0.91797,-16.30477 0.91797,-98.35937 0,-104.07316 0.20454,-98.37615 -3.78907,-105.98438 -2.49693,-4.75689 -8.86029,-11.12025 -13.61718,-13.61719 -7.69426,-4.03876 1.38177,-3.78882 -138.01953,-3.79882 z M 145,699.3622 a 15,15 0 0 1 15,15 15,15 0 0 1 -15,15 15,15 0 0 1 -15,-15 15,15 0 0 1 15,-15 z m 44,0 a 15,15 0 0 1 15,15 15,15 0 0 1 -15,15 15,15 0 0 1 -15,-15 15,15 0 0 1 15,-15 z m 44,0 a 15,15 0 0 1 15,15 15,15 0 0 1 -15,15 15,15 0 0 1 -15,-15 15,15 0 0 1 15,-15 z m -120.23633,51.15234 h 143.24219 143.24219 l -0.16797,70.54102 -0.16602,70.54102 -1.32812,2.875 c -1.86541,4.0378 -6.35258,8.61035 -10.1211,10.31445 l -3.17773,1.43555 -127.36914,0.11523 c -133.38724,0.1199 -129.1202,0.19696 -134.10547,-2.40234 -2.63626,-1.3747 -6.85342,-6.13679 -8.40234,-9.48829 l -1.31641,-2.8496 -0.16406,-70.54102 z"
         style="fill:#ffffff;stroke-width:0.60942411"
         inkscape:connector-curvature="0" />
    </g>
  </g>
</svg>
