<?xml version="1.0" encoding="UTF-8" standalone="no"?>
<!-- Created with Inkscape (http://www.inkscape.org/) -->

<svg
   xmlns:dc="http://purl.org/dc/elements/1.1/"
   xmlns:cc="http://creativecommons.org/ns#"
   xmlns:rdf="http://www.w3.org/1999/02/22-rdf-syntax-ns#"
   xmlns:svg="http://www.w3.org/2000/svg"
   xmlns="http://www.w3.org/2000/svg"
   xmlns:sodipodi="http://sodipodi.sourceforge.net/DTD/sodipodi-0.dtd"
   xmlns:inkscape="http://www.inkscape.org/namespaces/inkscape"
   id="svg2"
   version="1.1"
   inkscape:version="0.92.2 5c3e80d, 2017-08-06"
   width="512"
   height="512"
   sodipodi:docname="preferences-system-power.svg"
   viewBox="0 0 512 512">
  <metadata
     id="metadata8">
    <rdf:RDF>
      <cc:Work
         rdf:about="">
        <dc:format>image/svg+xml</dc:format>
        <dc:type
           rdf:resource="http://purl.org/dc/dcmitype/StillImage" />
        <dc:title />
      </cc:Work>
    </rdf:RDF>
  </metadata>
  <defs
     id="defs6" />
  <sodipodi:namedview
     pagecolor="#ffffff"
     bordercolor="#666666"
     borderopacity="1"
     objecttolerance="10"
     gridtolerance="10"
     guidetolerance="10"
     inkscape:pageopacity="0"
     inkscape:pageshadow="2"
     inkscape:window-width="1366"
     inkscape:window-height="717"
     id="namedview4"
     showgrid="false"
     inkscape:zoom="0.65186405"
     inkscape:cx="415.12557"
     inkscape:cy="180.52408"
     inkscape:window-x="0"
     inkscape:window-y="24"
     inkscape:window-maximized="1"
     inkscape:current-layer="svg2"
     showguides="true"
     inkscape:guide-bbox="true"
     inkscape:document-units="px" />
  <g
     id="g855">
    <path
       style="fill:#3689e6;fill-opacity:1;stroke-width:11.10955811"
       inkscape:connector-curvature="0"
       d="M 432.91381,56.473967 C 535.10672,145.04856 538.74058,306.17367 441.03061,416.37276 343.32045,526.57184 181.27967,544.10061 79.086756,455.52602 -23.10619,366.95143 -26.740055,205.82631 70.969956,95.627227 168.67993,-14.571854 330.72064,-32.100623 432.91381,56.473967 Z"
       id="path911" />
    <g
       id="g915"
       transform="matrix(8.0447857,6.9727288,-7.6918814,8.6750446,247.53033,-119.54657)">
      <path
         id="path913"
         d="m 40.03,7.531 c 3.712,4.084 5.969,9.514 5.969,15.469 0,12.703 -10.297,23 -23,23 C 17.045,46 11.615,43.744 7.53,40.031 11.708,44.322 17.54,47 23.999,47 c 12.703,0 23,-10.298 23,-23 0,-6.462 -2.677,-12.291 -6.969,-16.469 z"
         inkscape:connector-curvature="0"
         style="opacity:0.1" />
    </g>
    <path
       style="fill:#317ccf;fill-opacity:1;stroke-width:1.38736784"
       d="m 228.55092,421.23363 c -5.12048,-2.06289 -4.75945,-5.00854 9.34278,-76.2277 7.65135,-38.64079 13.91153,-70.49011 13.91153,-70.77625 0,-0.28616 -15.78113,-0.52028 -35.06918,-0.52028 -38.41001,0 -41.23605,-0.54042 -41.23605,-7.88555 0,-6.44754 44.22315,-152.22226 46.74561,-154.08963 1.79355,-1.32776 17.1659,-1.73421 65.58765,-1.73421 69.39803,0 69.43159,0.004 69.3949,8.05603 -0.0125,2.60883 -9.80292,17.76398 -32.4405,50.21341 l -32.42348,46.47682 25.62959,0.69368 c 24.86262,0.67293 25.70887,0.79171 28.2784,3.96896 1.45685,1.8014 2.6488,3.99873 2.6488,4.88295 0,2.55292 -109.43421,194.20548 -111.99182,196.13169 -2.35883,1.77649 -5.27864,2.05881 -8.37823,0.81008 z"
       id="path848"
       inkscape:connector-curvature="0" />
    <path
       inkscape:connector-curvature="0"
       id="path846"
       d="m 218.55092,411.23363 c -5.12048,-2.06289 -4.75945,-5.00854 9.34278,-76.2277 7.65135,-38.64079 13.91153,-70.49011 13.91153,-70.77625 0,-0.28616 -15.78113,-0.52028 -35.06918,-0.52028 -38.41001,0 -41.23605,-0.54042 -41.23605,-7.88555 0,-6.44754 44.22315,-152.22226 46.74561,-154.08963 1.79355,-1.32776 17.1659,-1.73421 65.58765,-1.73421 69.39803,0 69.43159,0.004 69.3949,8.05603 -0.0125,2.60883 -9.80292,17.76398 -32.4405,50.21341 l -32.42348,46.47682 25.62959,0.69368 c 24.86262,0.67293 25.70887,0.79171 28.2784,3.96896 1.45685,1.8014 2.6488,3.99873 2.6488,4.88295 0,2.55292 -109.43421,194.20548 -111.99182,196.13169 -2.35883,1.77649 -5.27864,2.05881 -8.37823,0.81008 z"
       style="fill:#ffffff;stroke-width:1.38736784" />
  </g>
</svg>
