<?xml version="1.0" encoding="UTF-8" standalone="no"?>
<!-- Created with Inkscape (http://www.inkscape.org/) -->

<svg
   xmlns:dc="http://purl.org/dc/elements/1.1/"
   xmlns:cc="http://creativecommons.org/ns#"
   xmlns:rdf="http://www.w3.org/1999/02/22-rdf-syntax-ns#"
   xmlns:svg="http://www.w3.org/2000/svg"
   xmlns="http://www.w3.org/2000/svg"
   xmlns:sodipodi="http://sodipodi.sourceforge.net/DTD/sodipodi-0.dtd"
   xmlns:inkscape="http://www.inkscape.org/namespaces/inkscape"
   width="512"
   height="512"
   id="svg2"
   version="1.1"
   inkscape:version="0.92.2 5c3e80d, 2017-08-06"
   sodipodi:docname="redhat-internet.svg">
  <defs
     id="defs4">
    <radialGradient
       id="polygon413_1_"
       cx="7976.3457"
       cy="-10508.842"
       r="13293.867"
       gradientTransform="matrix(0.0222,0,0,-0.0248,721.1671,674.6745)"
       gradientUnits="userSpaceOnUse">
      <stop
         offset="0"
         style="stop-color:#80FF80"
         id="stop388" />
      <stop
         offset="1"
         style="stop-color:#0f0"
         id="stop390" />
    </radialGradient>
  </defs>
  <sodipodi:namedview
     id="base"
     pagecolor="#ffffff"
     bordercolor="#666666"
     borderopacity="1.0"
     inkscape:pageopacity="0.0"
     inkscape:pageshadow="2"
     inkscape:zoom="0.49497475"
     inkscape:cx="229.05609"
     inkscape:cy="297.06557"
     inkscape:document-units="px"
     inkscape:current-layer="layer1"
     showgrid="false"
     inkscape:window-width="1366"
     inkscape:window-height="717"
     inkscape:window-x="0"
     inkscape:window-y="24"
     inkscape:window-maximized="1" />
  <metadata
     id="metadata7">
    <rdf:RDF>
      <cc:Work
         rdf:about="">
        <dc:format>image/svg+xml</dc:format>
        <dc:type
           rdf:resource="http://purl.org/dc/dcmitype/StillImage" />
        <dc:title />
      </cc:Work>
    </rdf:RDF>
  </metadata>
  <g
     inkscape:label="Layer 1"
     inkscape:groupmode="layer"
     id="layer1"
     transform="translate(0,-540.36218)">
    <g
       transform="translate(-4.172285e-7,1.9364447e-6)"
       id="g884">
      <path
         style="fill:#3689e6;fill-opacity:1;stroke-width:11.10955811"
         inkscape:connector-curvature="0"
         d="m 432.91381,596.83615 c 102.19291,88.57459 105.82677,249.6997 8.1168,359.89879 C 343.32045,1066.934 181.27967,1084.4628 79.086756,995.8882 -23.10619,907.31361 -26.740055,746.18849 70.969956,635.98941 168.67993,525.79033 330.72064,508.26156 432.91381,596.83615 Z"
         id="path911" />
      <g
         id="g915"
         transform="matrix(8.0447857,6.9727288,-7.6918814,8.6750446,247.53033,420.81561)">
        <path
           id="path913"
           d="m 40.03,7.531 c 3.712,4.084 5.969,9.514 5.969,15.469 0,12.703 -10.297,23 -23,23 C 17.045,46 11.615,43.744 7.53,40.031 11.708,44.322 17.54,47 23.999,47 c 12.703,0 23,-10.298 23,-23 0,-6.462 -2.677,-12.291 -6.969,-16.469 z"
           inkscape:connector-curvature="0"
           style="opacity:0.1" />
      </g>
      <path
         style="fill:#317ccf;fill-opacity:1;stroke-width:1.4792701"
         d="m 356.74929,942.32229 -9.37684,-20.03991 -11.23015,11.16429 c -6.17657,6.14034 -12.2472,11.16427 -13.49028,11.16427 -3.62061,0 -5.81039,-3.17772 -5.81039,-8.43184 0,-2.68488 -0.75156,-4.88159 -1.67011,-4.88159 -0.91857,0 -6.07752,1.58721 -11.46435,3.52716 -42.43228,15.28093 -90.37619,8.77831 -130.46249,-17.69463 -11.28473,-7.45243 -31.66731,-28.1118 -38.88142,-39.40943 -28.25848,-44.25411 -32.14171,-96.69364 -10.56644,-142.69001 7.96571,-16.98212 13.49652,-25.12868 25.79654,-37.99684 23.45649,-24.53992 51.15419,-39.3529 83.34543,-44.57387 17.53079,-2.84323 29.7022,-2.80202 47.03023,0.15925 58.86197,10.05921 104.16392,52.5287 118.47417,111.06674 2.37562,9.71777 3.2149,17.91399 3.30324,32.25842 0.13196,21.42532 -2.28273,34.93027 -9.71615,54.34132 l -4.38188,11.44251 13.34466,12.69917 c 7.33956,6.98455 15.0758,14.0609 17.19166,15.72523 2.94428,2.31597 3.74124,4.11407 3.39623,7.66263 l -0.45078,4.63658 -18.12106,0.41535 c -9.96658,0.22845 -18.12106,0.75838 -18.12106,1.17765 0,0.41927 4.07231,9.69979 9.04957,20.62339 5.16815,11.34253 8.66175,20.87173 8.14535,22.21744 -1.09595,2.856 -27.57308,15.47661 -32.4688,15.47661 -3.03148,0 -4.71548,-2.62322 -12.86488,-20.03989 z m 24.17305,2.10463 6.46833,-3.14255 -9.38729,-20.39001 c -5.16302,-11.21451 -9.3873,-21.64931 -9.3873,-23.18846 0,-5.19015 3.04588,-6.34868 16.69109,-6.34868 7.22748,0 12.91897,-0.54667 12.64776,-1.21481 -0.65617,-1.61658 -66.17442,-62.9939 -67.9192,-63.62653 -0.80906,-0.29335 -1.35994,18.73167 -1.35994,46.96683 0,26.10295 0.52199,47.45991 1.15998,47.45991 0.638,0 4.79844,-3.68519 9.24544,-8.18932 5.35608,-5.42489 9.08415,-8.04648 11.04399,-7.76616 2.95673,0.42288 9.42223,11.77197 18.99185,33.3369 2.25651,5.08499 4.38044,9.24544 4.71985,9.24544 0.33942,0 3.52786,-1.41415 7.08544,-3.14256 z m -88.75146,-19.67749 c 7.17786,-2.12074 15.66517,-5.18972 18.86069,-6.81995 5.5859,-2.84971 5.81006,-3.24827 5.81006,-10.33035 0,-4.05147 -0.35182,-7.36629 -0.78183,-7.36629 -0.42999,0 -4.73788,1.99701 -9.57306,4.43781 -4.83519,2.44079 -9.14197,4.43781 -9.57061,4.43781 -0.42865,0 1.47231,-3.16194 4.22435,-7.02654 2.75205,-3.86459 7.24422,-11.35339 9.98262,-16.64178 l 4.97889,-9.61526 0.73964,-35.50248 0.73963,-35.50248 28.97492,-0.40029 28.97493,-0.40028 -1.26049,9.2759 c -0.69327,5.10175 -2.68482,13.80129 -4.42564,19.33233 l -3.16515,10.0564 5.03612,4.21585 c 2.76986,2.31871 5.483,3.94386 6.02921,3.61144 1.74971,-1.06487 8.45003,-23.15503 10.24958,-33.79165 2.58949,-15.30574 0.90497,-40.0598 -3.82476,-56.2048 -23.72589,-80.98881 -112.74683,-120.16573 -187.88886,-82.68737 -36.3012,18.10584 -62.9907,53.24736 -71.09673,93.61167 -3.1863,15.86628 -2.26786,43.33494 1.95695,58.52839 14.20824,51.09643 52.07607,86.71386 103.90262,97.72792 15.36137,3.26455 44.92987,1.8395 61.12692,-2.946 z m -51.11316,-12.76844 c -7.13251,-3.76592 -14.95609,-11.6462 -21.10398,-21.2569 -4.14225,-6.47537 -9.61956,-17.58861 -9.61956,-19.51767 0,-0.30745 8.65373,-0.55898 19.23051,-0.55898 h 19.23051 v 22.18905 c 0,12.20397 -0.49925,22.15962 -1.10945,22.12366 -0.6102,-0.0359 -3.5928,-1.37658 -6.62803,-2.97916 z m 22.53019,-19.1445 v -22.18905 h 19.23051 c 10.57678,0 19.23051,0.4169 19.23051,0.92646 0,1.82449 -9.21963,19.1301 -12.50985,23.48149 -5.53456,7.31956 -13.04256,14.14165 -18.86571,17.14215 -3.01858,1.5554 -5.84769,2.828 -6.2869,2.828 -0.43921,0 -0.79856,-9.98508 -0.79856,-22.18905 z m -55.77174,13.29963 c -14.09573,-6.26616 -35.56322,-22.20772 -41.91158,-31.1232 l -3.10851,-4.36548 h 16.37269 c 10.46899,0 16.37271,0.56116 16.37271,1.55626 0,2.8739 11.93884,25.51664 16.47206,31.24031 5.03471,6.35685 4.63016,6.61631 -4.19737,2.69211 z m -58.05191,-54.94299 c -3.98791,-6.55761 -10.27229,-26.89646 -11.70041,-37.86741 l -1.2035,-9.24544 h 23.42348 23.42349 l 0.006,8.5058 c 0.006,7.58726 3.18528,31.11954 5.39722,39.9403 0.83252,3.31992 0.78735,3.32835 -17.83834,3.32835 h -18.67299 l -2.8349,-4.6616 z m 53.22069,-1.08049 c -2.14903,-7.98087 -5.94495,-33.78539 -5.95549,-40.4851 l -0.009,-5.54726 h 25.88723 25.88722 v 25.88723 25.88722 h -22.13188 -22.13202 z m 60.60296,-20.14513 v -25.88723 h 25.88722 25.88723 l -0.009,5.54726 c -0.0104,6.69971 -3.80644,32.50423 -5.95547,40.4851 l -1.54604,5.74209 h -22.1319 -22.13204 z M 137.3266,783.74032 c 1.61391,-11.62828 6.42073,-28.65641 10.41793,-36.90559 l 4.15848,-8.58197 19.05473,-0.41546 19.05473,-0.41546 -1.03864,4.85327 c -2.8594,13.3611 -5.25584,30.90174 -5.26089,38.50667 l -0.006,8.5058 h -23.57523 -23.57532 z m 59.70286,0 c 0.0104,-6.6997 3.80646,-32.50422 5.95549,-40.48509 l 1.54619,-5.7421 h 22.13202 22.13204 v 25.88722 25.88723 h -25.88722 -25.88723 l 0.009,-5.54726 z m 66.55845,-20.33997 v -25.88722 h 22.13204 22.13202 l 1.54619,5.7421 c 2.14903,7.98087 5.94495,33.78539 5.95547,40.48509 l 0.009,5.54726 H 289.4754 263.58817 Z m 65.08224,17.38143 c -0.004,-7.60493 -2.40147,-25.14557 -5.26087,-38.50667 l -1.03864,-4.85327 19.05473,0.41546 19.05473,0.41546 3.30121,6.65672 c 4.5794,9.23415 9.04031,24.15046 10.50684,35.13266 l 1.23461,9.24544 h -23.42348 -23.42349 l -0.006,-8.5058 z M 165.90459,718.35494 c 3.14501,-4.41679 14.77132,-14.71078 23.06506,-20.42193 4.84677,-3.33756 24.91357,-13.6736 26.54643,-13.6736 0.54107,0 -1.07794,2.60314 -3.59784,5.78477 -4.70687,5.94289 -16.37676,28.04276 -16.37676,31.01349 0,1.13068 -5.23925,1.66276 -16.37271,1.66276 h -16.37269 z m 44.42959,3.8065 c 0,-4.78007 12.36571,-25.02153 19.87089,-32.52672 4.55625,-4.55624 15.16929,-11.29239 17.79157,-11.29239 0.43921,0 0.79856,9.98507 0.79856,22.18905 v 22.18905 h -19.23051 c -10.57678,0 -19.23051,-0.25154 -19.23051,-0.55899 z m 53.25373,-21.63006 c 0,-12.20398 0.35935,-22.18905 0.79856,-22.18905 2.94644,0 12.88949,6.739 18.80747,12.74697 5.71586,5.80278 18.85499,27.22925 18.85499,30.74756 0,0.48595 -8.65373,0.88357 -19.23051,0.88357 h -19.23051 z m 49.57084,12.16421 c -2.4324,-5.46992 -7.1994,-14.10576 -10.59337,-19.19075 -3.39396,-5.08499 -5.98172,-9.24543 -5.75058,-9.24543 0.23112,0 3.6668,1.42749 7.6348,3.1722 14.68417,6.45656 33.80896,20.50316 41.316,30.34541 l 3.77053,4.94341 -15.97743,-0.0398 -15.97744,-0.0398 z"
         id="path877"
         inkscape:connector-curvature="0" />
      <path
         inkscape:connector-curvature="0"
         id="path875"
         d="m 346.74929,932.32229 -9.37684,-20.03991 -11.23015,11.16429 c -6.17657,6.14034 -12.2472,11.16427 -13.49028,11.16427 -3.62061,0 -5.81039,-3.17772 -5.81039,-8.43184 0,-2.68488 -0.75156,-4.88159 -1.67011,-4.88159 -0.91857,0 -6.07752,1.58721 -11.46435,3.52716 -42.43228,15.28093 -90.37619,8.77831 -130.46249,-17.69463 -11.28473,-7.45243 -31.66731,-28.1118 -38.88142,-39.40943 C 96.104777,823.4665 92.221547,771.02697 113.79682,725.0306 c 7.96571,-16.98212 13.49652,-25.12868 25.79654,-37.99684 23.45649,-24.53992 51.15419,-39.3529 83.34543,-44.57387 17.53079,-2.84323 29.7022,-2.80202 47.03023,0.15925 58.86197,10.05921 104.16392,52.5287 118.47417,111.06674 2.37562,9.71777 3.2149,17.91399 3.30324,32.25842 0.13196,21.42532 -2.28273,34.93027 -9.71615,54.34132 l -4.38188,11.44251 13.34466,12.69917 c 7.33956,6.98455 15.0758,14.0609 17.19166,15.72523 2.94428,2.31597 3.74124,4.11407 3.39623,7.66263 l -0.45078,4.63658 -18.12106,0.41535 c -9.96658,0.22845 -18.12106,0.75838 -18.12106,1.17765 0,0.41927 4.07231,9.69979 9.04957,20.62339 5.16815,11.34253 8.66175,20.87173 8.14535,22.21744 -1.09595,2.856 -27.57308,15.47661 -32.4688,15.47661 -3.03148,0 -4.71548,-2.62322 -12.86488,-20.03989 z m 24.17305,2.10463 6.46833,-3.14255 -9.38729,-20.39001 c -5.16302,-11.21451 -9.3873,-21.64931 -9.3873,-23.18846 0,-5.19015 3.04588,-6.34868 16.69109,-6.34868 7.22748,0 12.91897,-0.54667 12.64776,-1.21481 -0.65617,-1.61658 -66.17442,-62.9939 -67.9192,-63.62653 -0.80906,-0.29335 -1.35994,18.73167 -1.35994,46.96683 0,26.10295 0.52199,47.45991 1.15998,47.45991 0.638,0 4.79844,-3.68519 9.24544,-8.18932 5.35608,-5.42489 9.08415,-8.04648 11.04399,-7.76616 2.95673,0.42288 9.42223,11.77197 18.99185,33.3369 2.25651,5.08499 4.38044,9.24544 4.71985,9.24544 0.33942,0 3.52786,-1.41415 7.08544,-3.14256 z m -88.75146,-19.67749 c 7.17786,-2.12074 15.66517,-5.18972 18.86069,-6.81995 5.5859,-2.84971 5.81006,-3.24827 5.81006,-10.33035 0,-4.05147 -0.35182,-7.36629 -0.78183,-7.36629 -0.42999,0 -4.73788,1.99701 -9.57306,4.43781 -4.83519,2.44079 -9.14197,4.43781 -9.57061,4.43781 -0.42865,0 1.47231,-3.16194 4.22435,-7.02654 2.75205,-3.86459 7.24422,-11.35339 9.98262,-16.64178 l 4.97889,-9.61526 0.73964,-35.50248 0.73963,-35.50248 28.97492,-0.40029 28.97493,-0.40028 -1.26049,9.2759 c -0.69327,5.10175 -2.68482,13.80129 -4.42564,19.33233 l -3.16515,10.0564 5.03612,4.21585 c 2.76986,2.31871 5.483,3.94386 6.02921,3.61144 1.74971,-1.06487 8.45003,-23.15503 10.24958,-33.79165 2.58949,-15.30574 0.90497,-40.0598 -3.82476,-56.2048 -23.72589,-80.98881 -112.74683,-120.16573 -187.88886,-82.68737 -36.3012,18.10584 -62.9907,53.24736 -71.09673,93.61167 -3.1863,15.86628 -2.26786,43.33494 1.95695,58.52839 14.20824,51.09643 52.07607,86.71386 103.90262,97.72792 15.36137,3.26455 44.92987,1.8395 61.12692,-2.946 z m -51.11316,-12.76844 c -7.13251,-3.76592 -14.95609,-11.6462 -21.10398,-21.2569 -4.14225,-6.47537 -9.61956,-17.58861 -9.61956,-19.51767 0,-0.30745 8.65373,-0.55898 19.23051,-0.55898 h 19.23051 v 22.18905 c 0,12.20397 -0.49925,22.15962 -1.10945,22.12366 -0.6102,-0.0359 -3.5928,-1.37658 -6.62803,-2.97916 z m 22.53019,-19.1445 v -22.18905 h 19.23051 c 10.57678,0 19.23051,0.4169 19.23051,0.92646 0,1.82449 -9.21963,19.1301 -12.50985,23.48149 -5.53456,7.31956 -13.04256,14.14165 -18.86571,17.14215 -3.01858,1.5554 -5.84769,2.828 -6.2869,2.828 -0.43921,0 -0.79856,-9.98508 -0.79856,-22.18905 z m -55.77174,13.29963 c -14.09573,-6.26616 -35.56322,-22.20772 -41.91158,-31.1232 l -3.10851,-4.36548 h 16.37269 c 10.46899,0 16.37271,0.56116 16.37271,1.55626 0,2.8739 11.93884,25.51664 16.47206,31.24031 5.03471,6.35685 4.63016,6.61631 -4.19737,2.69211 z m -58.05191,-54.94299 c -3.98791,-6.55761 -10.27229,-26.89646 -11.70041,-37.86741 l -1.2035,-9.24544 h 23.42348 23.42349 l 0.006,8.5058 c 0.006,7.58726 3.18528,31.11954 5.39722,39.9403 0.83252,3.31992 0.78735,3.32835 -17.83834,3.32835 h -18.67299 l -2.8349,-4.6616 z m 53.22069,-1.08049 c -2.14903,-7.98087 -5.94495,-33.78539 -5.95549,-40.4851 l -0.009,-5.54726 h 25.88723 25.88722 v 25.88723 25.88722 h -22.13188 -22.13202 z m 60.60296,-20.14513 v -25.88723 h 25.88722 25.88723 l -0.009,5.54726 c -0.0104,6.69971 -3.80644,32.50423 -5.95547,40.4851 l -1.54604,5.74209 h -22.1319 -22.13204 z M 127.3266,773.74032 c 1.61391,-11.62828 6.42073,-28.65641 10.41793,-36.90559 l 4.15848,-8.58197 19.05473,-0.41546 19.05473,-0.41546 -1.03864,4.85327 c -2.8594,13.3611 -5.25584,30.90174 -5.26089,38.50667 l -0.006,8.5058 h -23.57523 -23.57532 z m 59.70286,0 c 0.0104,-6.6997 3.80646,-32.50422 5.95549,-40.48509 l 1.54619,-5.7421 h 22.13202 22.13204 v 25.88722 25.88723 h -25.88722 -25.88723 l 0.009,-5.54726 z m 66.55845,-20.33997 v -25.88722 h 22.13204 22.13202 l 1.54619,5.7421 c 2.14903,7.98087 5.94495,33.78539 5.95547,40.48509 l 0.009,5.54726 H 279.4754 253.58817 Z m 65.08224,17.38143 c -0.004,-7.60493 -2.40147,-25.14557 -5.26087,-38.50667 l -1.03864,-4.85327 19.05473,0.41546 19.05473,0.41546 3.30121,6.65672 c 4.5794,9.23415 9.04031,24.15046 10.50684,35.13266 l 1.23461,9.24544 h -23.42348 -23.42349 l -0.006,-8.5058 z M 155.90459,708.35494 c 3.14501,-4.41679 14.77132,-14.71078 23.06506,-20.42193 4.84677,-3.33756 24.91357,-13.6736 26.54643,-13.6736 0.54107,0 -1.07794,2.60314 -3.59784,5.78477 -4.70687,5.94289 -16.37676,28.04276 -16.37676,31.01349 0,1.13068 -5.23925,1.66276 -16.37271,1.66276 h -16.37269 z m 44.42959,3.8065 c 0,-4.78007 12.36571,-25.02153 19.87089,-32.52672 4.55625,-4.55624 15.16929,-11.29239 17.79157,-11.29239 0.43921,0 0.79856,9.98507 0.79856,22.18905 v 22.18905 h -19.23051 c -10.57678,0 -19.23051,-0.25154 -19.23051,-0.55899 z m 53.25373,-21.63006 c 0,-12.20398 0.35935,-22.18905 0.79856,-22.18905 2.94644,0 12.88949,6.739 18.80747,12.74697 5.71586,5.80278 18.85499,27.22925 18.85499,30.74756 0,0.48595 -8.65373,0.88357 -19.23051,0.88357 h -19.23051 z m 49.57084,12.16421 c -2.4324,-5.46992 -7.1994,-14.10576 -10.59337,-19.19075 -3.39396,-5.08499 -5.98172,-9.24543 -5.75058,-9.24543 0.23112,0 3.6668,1.42749 7.6348,3.1722 14.68417,6.45656 33.80896,20.50316 41.316,30.34541 l 3.77053,4.94341 -15.97743,-0.0398 -15.97744,-0.0398 z"
         style="fill:#ffffff;stroke-width:1.4792701" />
    </g>
  </g>
</svg>
