<?xml version="1.0" encoding="UTF-8" standalone="no"?>
<!-- Created using Karbon, part of Calligra: http://www.calligra.org/karbon -->

<svg
   xmlns:dc="http://purl.org/dc/elements/1.1/"
   xmlns:cc="http://creativecommons.org/ns#"
   xmlns:rdf="http://www.w3.org/1999/02/22-rdf-syntax-ns#"
   xmlns:svg="http://www.w3.org/2000/svg"
   xmlns="http://www.w3.org/2000/svg"
   xmlns:sodipodi="http://sodipodi.sourceforge.net/DTD/sodipodi-0.dtd"
   xmlns:inkscape="http://www.inkscape.org/namespaces/inkscape"
   width="512"
   height="512"
   id="svg2"
   version="1.1"
   inkscape:version="0.92.2 2405546, 2018-03-11"
   sodipodi:docname="redhat-sound_video.svg"
   viewBox="0 0 512 512">
  <metadata
     id="metadata12">
    <rdf:RDF>
      <cc:Work
         rdf:about="">
        <dc:format>image/svg+xml</dc:format>
        <dc:type
           rdf:resource="http://purl.org/dc/dcmitype/StillImage" />
        <dc:title />
      </cc:Work>
    </rdf:RDF>
  </metadata>
  <sodipodi:namedview
     pagecolor="#ffffff"
     bordercolor="#666666"
     borderopacity="1"
     objecttolerance="10"
     gridtolerance="10"
     guidetolerance="10"
     inkscape:pageopacity="0"
     inkscape:pageshadow="2"
     inkscape:window-width="1366"
     inkscape:window-height="706"
     id="namedview10"
     showgrid="false"
     inkscape:zoom="0.40625"
     inkscape:cx="239.52825"
     inkscape:cy="304.52595"
     inkscape:window-x="0"
     inkscape:window-y="0"
     inkscape:window-maximized="1"
     inkscape:current-layer="svg2"
     inkscape:showpageshadow="false"
     borderlayer="true"
     units="px"
     showguides="false"
     inkscape:document-units="px">
    <sodipodi:guide
       position="1.9073486e-06,48.000002"
       orientation="47.999998,0"
       id="guide4062"
       inkscape:locked="false" />
    <sodipodi:guide
       position="1.9073486e-06,3.8146973e-06"
       orientation="0,47.999998"
       id="guide4064"
       inkscape:locked="false" />
    <sodipodi:guide
       position="48,3.8146973e-06"
       orientation="-47.999998,0"
       id="guide4066"
       inkscape:locked="false" />
    <sodipodi:guide
       position="48,48.000002"
       orientation="0,-47.999998"
       id="guide4068"
       inkscape:locked="false" />
    <sodipodi:guide
       position="4.0000019,44.000002"
       orientation="39.999998,0"
       id="guide4072"
       inkscape:locked="false" />
    <sodipodi:guide
       position="4.0000019,4.0000038"
       orientation="0,39.999998"
       id="guide4074"
       inkscape:locked="false" />
    <sodipodi:guide
       position="44,4.0000038"
       orientation="-39.999998,0"
       id="guide4076"
       inkscape:locked="false" />
    <sodipodi:guide
       position="44,44.000002"
       orientation="0,-39.999998"
       id="guide4078"
       inkscape:locked="false" />
    <sodipodi:guide
       position="15.000002,33.000002"
       orientation="17.999998,0"
       id="guide4080"
       inkscape:locked="false" />
    <sodipodi:guide
       position="15.000002,15.000004"
       orientation="0,17.999998"
       id="guide4082"
       inkscape:locked="false" />
    <sodipodi:guide
       position="33,15.000004"
       orientation="-17.999998,0"
       id="guide4084"
       inkscape:locked="false" />
    <sodipodi:guide
       position="33,33.000002"
       orientation="0,-17.999998"
       id="guide4086"
       inkscape:locked="false" />
    <inkscape:grid
       type="xygrid"
       id="grid3359" />
  </sodipodi:namedview>
  <defs
     id="defs4">
    <inkscape:path-effect
       effect="spiro"
       id="path-effect3794"
       is_visible="true" />
    <inkscape:path-effect
       effect="spiro"
       id="path-effect3794-1"
       is_visible="true" />
  </defs>
  <g
     transform="translate(1.0738049e-7,-3.3655854e-6)"
     id="g871">
    <path
       id="path881"
       d="M 432.91329,56.473987 C 535.1062,145.04858 538.74006,306.1737 441.03009,416.37278 343.32012,526.57182 181.27964,544.10062 79.086727,455.52604 -23.106181,366.95145 -26.740046,205.82633 70.969927,95.627247 168.6799,-14.571833 330.72038,-32.100603 432.91329,56.473987 Z"
       inkscape:connector-curvature="0"
       style="fill:#3689e6;fill-opacity:1;stroke-width:11.10955811" />
    <path
       id="path883"
       d="m 511.63551,224.90354 c -1.5514,61.31166 -25.16123,124.1546 -70.96638,175.81449 C 342.95916,510.91712 180.91869,528.44582 78.72578,439.87129 30.827126,398.35566 4.4968241,340.92285 0.19383022,280.22881 0.79908178,346.58549 27.117413,410.48221 79.078684,455.51906 181.2716,544.09362 343.31975,526.55622 441.02203,416.3658 490.72697,360.30766 514.02705,291.07483 511.63551,224.90354 Z"
       inkscape:connector-curvature="0"
       style="opacity:1;fill:#000000;fill-opacity:0.49019608;stroke-width:11.10955811" />
    <path
       style="color:#000000;display:inline;overflow:visible;visibility:visible;fill:#000000;fill-opacity:0.49019608;fill-rule:nonzero;stroke:none;stroke-width:0.69333333;marker:none;enable-background:accumulate"
       d="m 276,120 c -86.15636,0 -156,69.84364 -156,156 0,86.15636 69.84364,156 156,156 86.15636,0 156,-69.84364 156,-156 0,-86.15636 -69.84364,-156 -156,-156 z m -37.28969,98.73635 C 255.23332,218.14934 338.4,265.17432 338.4,276 c 0,11.35222 -91.40437,62.38865 -101.5625,56.7125 -5.07907,-2.83808 -7.61854,-29.77527 -7.61854,-56.7125 0,-1.68358 0.01,-3.36658 0.0298,-5.04427 0.29761,-25.1654 2.82712,-49.00753 7.58875,-51.66823 0.31785,-0.17745 0.66687,-0.41827 1.1375,-0.4875 0.22809,-0.0336 0.47304,-0.0544 0.73532,-0.0636 z"
       id="path865"
       inkscape:connector-curvature="0" />
    <path
       inkscape:connector-curvature="0"
       id="path3897"
       d="m 256,100 c -86.15636,0 -156,69.84364 -156,156 0,86.15636 69.84364,156 156,156 86.15636,0 156,-69.84364 156,-156 0,-86.15636 -69.84364,-156 -156,-156 z m -37.28969,98.73635 C 235.23332,198.14934 318.4,245.17432 318.4,256 c 0,11.35222 -91.40437,62.38865 -101.5625,56.7125 -5.07907,-2.83808 -7.61854,-29.77527 -7.61854,-56.7125 0,-1.68358 0.01,-3.36658 0.0298,-5.04427 0.29761,-25.1654 2.82712,-49.00753 7.58875,-51.66823 0.31785,-0.17745 0.66687,-0.41827 1.1375,-0.4875 0.22809,-0.0336 0.47304,-0.0544 0.73532,-0.0636 z"
       style="color:#000000;display:inline;overflow:visible;visibility:visible;fill:#ffffff;fill-opacity:1;fill-rule:nonzero;stroke:none;stroke-width:0.69333333;marker:none;enable-background:accumulate" />
  </g>
</svg>
