<?xml version="1.0" encoding="UTF-8" standalone="no"?>
<!-- Created with Inkscape (http://www.inkscape.org/) -->

<svg
   xmlns:dc="http://purl.org/dc/elements/1.1/"
   xmlns:cc="http://creativecommons.org/ns#"
   xmlns:rdf="http://www.w3.org/1999/02/22-rdf-syntax-ns#"
   xmlns:svg="http://www.w3.org/2000/svg"
   xmlns="http://www.w3.org/2000/svg"
   xmlns:sodipodi="http://sodipodi.sourceforge.net/DTD/sodipodi-0.dtd"
   xmlns:inkscape="http://www.inkscape.org/namespaces/inkscape"
   id="svg2"
   version="1.1"
   inkscape:version="0.92.2 5c3e80d, 2017-08-06"
   width="512"
   height="512"
   sodipodi:docname="redhat-programming.svg">
  <metadata
     id="metadata8">
    <rdf:RDF>
      <cc:Work
         rdf:about="">
        <dc:format>image/svg+xml</dc:format>
        <dc:type
           rdf:resource="http://purl.org/dc/dcmitype/StillImage" />
        <dc:title></dc:title>
      </cc:Work>
    </rdf:RDF>
  </metadata>
  <defs
     id="defs6" />
  <sodipodi:namedview
     pagecolor="#ffffff"
     bordercolor="#666666"
     borderopacity="1"
     objecttolerance="10"
     gridtolerance="10"
     guidetolerance="10"
     inkscape:pageopacity="0"
     inkscape:pageshadow="2"
     inkscape:window-width="1366"
     inkscape:window-height="717"
     id="namedview4"
     showgrid="false"
     inkscape:zoom="0.5939697"
     inkscape:cx="171.72775"
     inkscape:cy="225.32453"
     inkscape:window-x="0"
     inkscape:window-y="24"
     inkscape:window-maximized="1"
     inkscape:current-layer="svg2" />
  <g
     id="g827">
    <path
       style="fill:#3689e6;fill-opacity:1;stroke-width:11.10955238"
       inkscape:connector-curvature="0"
       d="M 432.91336,56.473967 C 535.10616,145.04856 538.74002,306.17367 441.03015,416.37276 343.32009,526.57184 181.27947,544.10061 79.086668,455.52602 -23.106173,366.95143 -26.740033,205.82631 70.969876,95.627227 168.67975,-14.571854 330.72029,-32.100623 432.91336,56.473967 Z"
       id="path911" />
    <path
       style="opacity:1;stroke-width:11.10955238;fill:#000000;fill-opacity:0.49019608"
       inkscape:connector-curvature="0"
       d="m 511.635,224.90352 c -1.5514,61.31166 -25.16121,124.1546 -70.96631,175.81449 C 342.95882,510.9171 180.91852,528.44585 78.725714,439.87127 30.82711,398.35564 4.4968351,340.92283 0.19384574,280.22879 0.79909653,346.58547 27.117401,410.48219 79.078618,455.51904 181.27143,544.09362 343.31941,526.5562 441.02159,416.36578 490.72648,360.30764 514.02654,291.07481 511.635,224.90352 Z"
       id="path913" />
    <path
       style="fill:#000000;fill-opacity:0.49019608;stroke-width:0.74321789"
       d="m 197.59052,354.87141 c -0.81754,-0.1566 -2.32256,-0.4597 -3.34448,-0.6735 -2.66152,-0.5569 -71.05356,-68.81998 -72.89776,-72.76034 -1.70069,-3.63374 -1.78957,-6.96625 -0.28309,-10.61472 1.28982,-3.12377 68.25565,-70.76952 72.04863,-72.78015 1.21674,-0.64499 3.97651,-1.1727 6.13282,-1.1727 9.46575,0 16.44481,9.51683 13.58169,18.52034 -0.72436,2.27783 -6.86638,8.84641 -29.62092,31.67801 l -28.70709,28.8043 28.39353,28.42349 c 28.63802,28.66817 30.67585,31.06587 30.67585,36.09247 0,2.754 -1.3563,6.6681 -3.16697,9.1395 -2.5231,3.4437 -8.883,6.0961 -12.81221,5.3433 z m 39.93725,-0.251 c -6.80705,-1.5031 -11.80311,-8.0995 -11.16492,-14.7413 0.25924,-2.6979 7.77121,-19.09109 32.17168,-70.20748 18.13526,-37.99141 32.6532,-67.50744 33.73845,-68.59268 4.86065,-4.86065 11.84197,-5.67443 17.66323,-2.05893 4.47263,2.77789 6.57671,6.69332 6.54717,12.18346 -0.0207,3.83603 -1.9796,8.18309 -31.81802,70.6057 -17.88412,37.41397 -32.67041,67.44133 -33.79442,68.62823 -3.54073,3.7388 -8.42307,5.2694 -13.34317,4.183 z m 112.31701,0.04 c -5.99816,-1.383 -10.30587,-6.0612 -11.13215,-12.0895 -0.93041,-6.7881 -0.89623,-6.8312 30.07537,-37.90766 L 397.49048,275.86356 368.788,247.06387 c -30.9716,-31.0765 -31.00578,-31.11958 -30.07537,-37.90766 0.62532,-4.56224 2.91847,-7.99301 6.90359,-10.32844 3.92653,-2.3011 9.75897,-2.6461 13.26997,-0.78495 3.79297,2.01063 70.7588,69.65638 72.04862,72.78015 1.50648,3.64848 1.41761,6.98098 -0.28309,10.61473 -1.96375,4.19577 -70.25396,72.21101 -73.08356,72.78931 -4.36454,0.8919 -5.4666,0.9538 -7.72338,0.4335 z"
       id="path1003"
       inkscape:connector-curvature="0" />
    <path
       inkscape:connector-curvature="0"
       id="path865"
       d="m 177.59052,334.87141 c -0.81754,-0.1566 -2.32256,-0.4597 -3.34448,-0.6735 -2.66152,-0.5569 -71.05356,-68.81998 -72.89776,-72.76034 -1.700691,-3.63374 -1.789571,-6.96625 -0.28309,-10.61472 1.28982,-3.12377 68.25565,-70.76952 72.04863,-72.78015 1.21674,-0.64499 3.97651,-1.1727 6.13282,-1.1727 9.46575,0 16.44481,9.51683 13.58169,18.52034 -0.72436,2.27783 -6.86638,8.84641 -29.62092,31.67801 l -28.70709,28.8043 28.39353,28.42349 c 28.63802,28.66817 30.67585,31.06587 30.67585,36.09247 0,2.754 -1.3563,6.6681 -3.16697,9.1395 -2.5231,3.4437 -8.883,6.0961 -12.81221,5.3433 z m 39.93725,-0.251 c -6.80705,-1.5031 -11.80311,-8.0995 -11.16492,-14.7413 0.25924,-2.6979 7.77121,-19.09109 32.17168,-70.20748 18.13526,-37.99141 32.6532,-67.50744 33.73845,-68.59268 4.86065,-4.86065 11.84197,-5.67443 17.66323,-2.05893 4.47263,2.77789 6.57671,6.69332 6.54717,12.18346 -0.0207,3.83603 -1.9796,8.18309 -31.81802,70.6057 -17.88412,37.41397 -32.67041,67.44133 -33.79442,68.62823 -3.54073,3.7388 -8.42307,5.2694 -13.34317,4.183 z m 112.31701,0.04 c -5.99816,-1.383 -10.30587,-6.0612 -11.13215,-12.0895 -0.93041,-6.7881 -0.89623,-6.8312 30.07537,-37.90766 L 377.49048,255.86356 348.788,227.06387 c -30.9716,-31.0765 -31.00578,-31.11958 -30.07537,-37.90766 0.62532,-4.56224 2.91847,-7.99301 6.90359,-10.32844 3.92653,-2.3011 9.75897,-2.6461 13.26997,-0.78495 3.79297,2.01063 70.7588,69.65638 72.04862,72.78015 1.50648,3.64848 1.41761,6.98098 -0.28309,10.61473 -1.96375,4.19577 -70.25396,72.21101 -73.08356,72.78931 -4.36454,0.8919 -5.4666,0.9538 -7.72338,0.4335 z"
       style="fill:#ffffff;stroke-width:0.74321789" />
  </g>
</svg>
