<?xml version="1.0" encoding="UTF-8" standalone="no"?>
<!-- Created with Inkscape (http://www.inkscape.org/) -->

<svg
   xmlns:dc="http://purl.org/dc/elements/1.1/"
   xmlns:cc="http://creativecommons.org/ns#"
   xmlns:rdf="http://www.w3.org/1999/02/22-rdf-syntax-ns#"
   xmlns:svg="http://www.w3.org/2000/svg"
   xmlns="http://www.w3.org/2000/svg"
   xmlns:sodipodi="http://sodipodi.sourceforge.net/DTD/sodipodi-0.dtd"
   xmlns:inkscape="http://www.inkscape.org/namespaces/inkscape"
   width="512"
   height="512"
   id="svg2"
   version="1.1"
   inkscape:version="0.92.2 5c3e80d, 2017-08-06"
   sodipodi:docname="stock_internet.svg">
  <defs
     id="defs4" />
  <sodipodi:namedview
     id="base"
     pagecolor="#ffffff"
     bordercolor="#666666"
     borderopacity="1.0"
     inkscape:pageopacity="0.0"
     inkscape:pageshadow="2"
     inkscape:zoom="0.4289781"
     inkscape:cx="-87.395785"
     inkscape:cy="194.50998"
     inkscape:document-units="px"
     inkscape:current-layer="layer1"
     showgrid="false"
     inkscape:window-width="1366"
     inkscape:window-height="717"
     inkscape:window-x="0"
     inkscape:window-y="24"
     inkscape:window-maximized="1" />
  <metadata
     id="metadata7">
    <rdf:RDF>
      <cc:Work
         rdf:about="">
        <dc:format>image/svg+xml</dc:format>
        <dc:type
           rdf:resource="http://purl.org/dc/dcmitype/StillImage" />
        <dc:title />
      </cc:Work>
    </rdf:RDF>
  </metadata>
  <g
     inkscape:label="Layer 1"
     inkscape:groupmode="layer"
     id="layer1"
     transform="translate(0,-540.36218)">
    <g
       transform="translate(0,1.3611889e-5)"
       id="g829">
      <path
         style="fill:#3689e6;fill-opacity:1;stroke-width:11.10955811"
         inkscape:connector-curvature="0"
         d="m 432.91328,596.83611 c 102.1929,88.57459 105.82677,249.69971 8.11679,359.8988 C 343.3201,1066.934 181.27964,1084.4628 79.086728,995.88815 -23.106186,907.31357 -26.740042,746.18845 70.969929,635.98937 168.6799,525.79029 330.72037,508.26152 432.91328,596.83611 Z"
         id="path27" />
      <path
         style="opacity:1;fill:#000000;fill-opacity:0.49019608;stroke-width:11.10955811"
         inkscape:connector-curvature="0"
         d="M 511.63552,765.26565 C 510.08413,826.5773 486.47428,889.42027 440.66913,941.08014 342.95914,1051.2792 180.91869,1068.808 78.725777,980.23343 30.827124,938.71777 4.4968217,881.28498 0.1938276,820.59095 0.79907931,886.94761 27.117412,950.84433 79.078682,995.88119 181.27159,1084.4557 343.31975,1066.9183 441.02204,956.7279 c 49.70493,-56.05811 73.005,-125.29096 70.61348,-191.46225 z"
         id="path51" />
      <path
         style="fill:#000000;fill-opacity:0.49019608;stroke-width:0.67564577"
         d="m 218.20332,905.61439 c -16.75473,-5.30961 -25.54626,-19.29969 -25.52254,-40.6124 0.0138,-12.63881 3.19021,-21.96604 9.39868,-27.60358 5.1789,-4.70246 15.43464,-9.51381 23.77848,-11.15523 6.84372,-1.34463 7.93134,-1.98121 8.57,-5.00261 5.52739,-26.14654 20.13088,-42.06727 42.64978,-46.49769 19.72026,-3.87972 37.65123,1.65048 50.67252,15.62341 l 7.06275,7.57942 6.61158,-2.25576 c 8.51387,-2.90472 23.80499,-3.0108 32.01902,-0.21841 8.80213,2.98897 16.77748,8.79061 21.48399,15.63151 4.16959,6.06031 7.98283,18.14625 7.98283,25.30071 0,3.81795 0.50851,4.32088 5.89493,5.82879 7.32951,2.05291 15.79624,9.15501 19.44976,16.31665 8.35221,16.37189 2.13418,39.15569 -12.70464,46.55009 l -6.54792,3.26289 -91.30806,-0.0628 c -86.92848,-0.0628 -91.70083,-0.18627 -99.49116,-2.66759 z m -67.18733,-12.33054 c -12.55674,-3.97115 -21.52519,-11.73776 -26.87567,-23.27364 -10.97461,-23.66178 0.72072,-50.71653 25.01989,-57.87786 l 7.47085,-2.20263 0.72381,-8.63865 c 1.9968,-23.8053 17.44641,-42.85196 39.27704,-48.41741 10.43143,-2.65824 22.43874,-1.85952 31.36663,2.09039 4.82571,2.13408 6.38072,2.36184 7.12952,1.03896 5.4681,-9.65951 17.35312,-20.91616 27.60793,-26.14747 31.53791,-16.08952 73.71218,-0.97031 89.261,31.99934 2.50225,5.30526 4.92742,12.08564 5.3895,15.06742 l 0.83937,5.42163 -7.54883,0.88609 c -4.1521,0.48671 -8.70606,1.50696 -10.12033,2.26199 -2.17469,1.16376 -3.77771,0.24961 -10.38117,-5.85468 -4.2954,-3.97716 -10.96003,-8.72112 -14.81011,-10.54227 -24.03429,-11.36897 -55.67672,-5.17733 -73.75179,14.43189 -5.72709,6.21316 -13.99008,21.89022 -15.34541,29.11459 -0.64589,3.45196 -1.56001,4.37173 -4.96644,5.01258 -7.46054,1.404 -20.53863,8.46019 -27.16427,14.65776 -9.86545,9.2277 -12.69997,16.75284 -12.70588,33.72969 -0.004,12.32025 0.39625,14.74011 3.55804,21.48681 l 3.56335,7.60311 -16.12479,-0.0931 c -9.07109,-0.0628 -18.43856,-0.82051 -21.41412,-1.75977 z"
         id="path846"
         inkscape:connector-curvature="0" />
      <path
         inkscape:connector-curvature="0"
         id="path4156"
         d="m 198.20332,885.61431 c -16.75473,-5.30961 -25.54626,-19.29969 -25.52254,-40.6124 0.0138,-12.63881 3.19021,-21.96604 9.39868,-27.60358 5.1789,-4.70246 15.43464,-9.51381 23.77848,-11.15523 6.84372,-1.34463 7.93134,-1.98121 8.57,-5.00261 5.52739,-26.14654 20.13088,-42.06727 42.64978,-46.49769 19.72026,-3.87972 37.65123,1.65048 50.67252,15.62341 l 7.06275,7.57942 6.61158,-2.25576 c 8.51387,-2.90472 23.80499,-3.0108 32.01902,-0.21841 8.80213,2.98897 16.77748,8.79061 21.48399,15.63151 4.16959,6.06031 7.98283,18.14625 7.98283,25.30071 0,3.81795 0.50851,4.32088 5.89493,5.82879 7.32951,2.05291 15.79624,9.15501 19.44976,16.31665 8.35221,16.37189 2.13418,39.15569 -12.70464,46.55009 l -6.54792,3.26289 -91.30806,-0.0628 c -86.92848,-0.0628 -91.70083,-0.18627 -99.49116,-2.66759 z m -67.18733,-12.33054 c -12.55674,-3.97115 -21.52519,-11.73776 -26.87567,-23.27364 -10.974612,-23.66178 0.72072,-50.71653 25.01989,-57.87786 l 7.47085,-2.20263 0.72381,-8.63865 c 1.9968,-23.8053 17.44641,-42.85196 39.27704,-48.41741 10.43143,-2.65824 22.43874,-1.85952 31.36663,2.09039 4.82571,2.13408 6.38072,2.36184 7.12952,1.03896 5.4681,-9.65951 17.35312,-20.91616 27.60793,-26.14747 31.53791,-16.08952 73.71218,-0.97031 89.261,31.99934 2.50225,5.30526 4.92742,12.08564 5.3895,15.06742 l 0.83937,5.42163 -7.54883,0.88609 c -4.1521,0.48671 -8.70606,1.50696 -10.12033,2.26199 -2.17469,1.16376 -3.77771,0.24961 -10.38117,-5.85468 -4.2954,-3.97716 -10.96003,-8.72112 -14.81011,-10.54227 -24.03429,-11.36897 -55.67672,-5.17733 -73.75179,14.43189 -5.72709,6.21316 -13.99008,21.89022 -15.34541,29.11459 -0.64589,3.45196 -1.56001,4.37173 -4.96644,5.01258 -7.46054,1.404 -20.53863,8.46019 -27.16427,14.65776 -9.86545,9.2277 -12.69997,16.75284 -12.70588,33.72969 -0.004,12.32025 0.39625,14.74011 3.55804,21.48681 l 3.56335,7.60311 -16.12479,-0.0931 c -9.07109,-0.0628 -18.43856,-0.82051 -21.41412,-1.75977 z"
         style="fill:#ffffff;fill-opacity:1;stroke-width:0.67564577" />
    </g>
  </g>
</svg>
