<?xml version="1.0" encoding="UTF-8" standalone="no"?>
<!-- Created with Inkscape (http://www.inkscape.org/) -->

<svg
   xmlns:dc="http://purl.org/dc/elements/1.1/"
   xmlns:cc="http://creativecommons.org/ns#"
   xmlns:rdf="http://www.w3.org/1999/02/22-rdf-syntax-ns#"
   xmlns:svg="http://www.w3.org/2000/svg"
   xmlns="http://www.w3.org/2000/svg"
   xmlns:sodipodi="http://sodipodi.sourceforge.net/DTD/sodipodi-0.dtd"
   xmlns:inkscape="http://www.inkscape.org/namespaces/inkscape"
   width="512"
   height="512"
   viewBox="0 0 512 512.00002"
   id="svg2"
   version="1.1"
   inkscape:version="0.92.2 5c3e80d, 2017-08-06"
   sodipodi:docname="system-help.svg">
  <defs
     id="defs4" />
  <sodipodi:namedview
     id="base"
     pagecolor="#ffffff"
     bordercolor="#666666"
     borderopacity="1.0"
     inkscape:pageopacity="0.0"
     inkscape:pageshadow="2"
     inkscape:zoom="0.70710678"
     inkscape:cx="273.5606"
     inkscape:cy="258.04077"
     inkscape:document-units="px"
     inkscape:current-layer="layer1"
     showgrid="true"
     units="px"
     inkscape:showpageshadow="false"
     borderlayer="true"
     inkscape:window-width="1366"
     inkscape:window-height="717"
     inkscape:window-x="0"
     inkscape:window-y="24"
     inkscape:window-maximized="1">
    <inkscape:grid
       type="xygrid"
       id="grid4136"
       enabled="false" />
  </sodipodi:namedview>
  <metadata
     id="metadata7">
    <rdf:RDF>
      <cc:Work
         rdf:about="">
        <dc:format>image/svg+xml</dc:format>
        <dc:type
           rdf:resource="http://purl.org/dc/dcmitype/StillImage" />
        <dc:title />
      </cc:Work>
    </rdf:RDF>
  </metadata>
  <g
     inkscape:label="Capa 1"
     inkscape:groupmode="layer"
     id="layer1"
     transform="translate(0,-610.5196)">
    <g
       id="g832">
      <path
         style="fill:#3689e6;fill-opacity:1;stroke-width:11.10955238"
         inkscape:connector-curvature="0"
         d="m 432.91336,666.99357 c 102.1928,88.57459 105.82666,249.69971 8.11679,359.89883 -97.71006,110.199 -259.75068,127.7278 -361.943482,39.1532 C -23.106173,977.47103 -26.740033,816.34591 70.969876,706.14683 168.67975,595.94775 330.72029,578.41898 432.91336,666.99357 Z"
         id="path911" />
      <path
         style="opacity:1;stroke-width:11.10955238;fill:#000000;fill-opacity:0.49019608"
         inkscape:connector-curvature="0"
         d="m 511.635,835.42312 c -1.5514,61.31166 -25.16121,124.1546 -70.96631,175.81448 -97.70987,110.1991 -259.75017,127.7278 -361.942976,39.1533 C 30.82711,1008.8752 4.4968351,951.44243 0.19384574,890.74839 0.79909653,957.10507 27.117401,1021.0018 79.078618,1066.0386 181.27143,1154.6132 343.31941,1137.0758 441.02159,1026.8854 490.72648,970.82724 514.02654,901.59441 511.635,835.42312 Z"
         id="path913" />
      <path
         style="fill:#000000;fill-opacity:0.49019608;stroke-width:0.49859431"
         d="m 261.52525,1041.8136 c -33.11872,-3.6439 -60.75782,-15.0842 -85.01033,-35.187 -25.40596,-21.05911 -43.39987,-49.47221 -51.59851,-81.47611 -6.48675,-25.3214 -6.55462,-50.9056 -0.20288,-76.4852 11.64654,-46.9027 44.89984,-86.0816 89.44526,-105.3839 23.39469,-10.13739 51.45458,-14.62012 75.78634,-12.10734 22.55183,2.32896 41.44288,7.97754 59.58202,17.81554 22.7088,12.3164 41.64652,29.4216 55.74242,50.3487 14.97027,22.2251 23.1626,45.2484 26.05029,73.2105 1.70277,16.4882 0.18209,35.2332 -4.2673,52.6017 -4.638,18.1047 -11.45694,33.2399 -22.0143,48.8622 -18.61977,27.55291 -46.22489,48.80361 -77.70736,59.82001 -20.34056,7.1175 -45.69941,10.1931 -65.80565,7.9809 z m 16.94138,-17.5676 c -0.006,-1.3025 -0.48834,-6.6312 -1.07196,-11.8415 -0.78535,-7.0112 -1.11589,-13.63331 -1.27179,-25.47941 l -0.21066,-16.0061 -5.07446,-0.313 c -13.7867,-0.8504 -26.63885,-4.9194 -39.61563,-12.5422 -2.76142,-1.6221 -9.15467,-6.5378 -12.30796,-9.4634 l -2.47424,-2.2955 -19.70481,19.7048 -19.70482,19.7048 2.23528,2.1438 c 25.36257,24.32421 59.14795,38.17691 94.35058,38.68581 l 4.8613,0.07 -0.0108,-2.3684 z m 98.9818,-41.12391 c 22.92684,-24.2263 36.16977,-54.4981 38.25166,-87.4389 0.31809,-5.0331 0.44696,-9.2824 0.28637,-9.443 -0.16059,-0.1606 -12.73569,-0.1312 -27.94468,0.065 l -27.6527,0.3572 -0.31053,5.034 c -1.18694,19.2412 -9.15881,38.0391 -22.00232,51.8822 l -2.29483,2.4735 19.58466,19.5893 c 10.77157,10.7742 19.69791,19.5891 19.83633,19.5886 0.13841,-5e-4 1.14913,-0.9491 2.24604,-2.1082 z m -91.83686,-28.8544 c 12.01134,-1.8394 23.61355,-6.8603 32.75343,-14.1742 16.66156,-13.3327 25.91863,-32.4872 25.92501,-53.6434 0.006,-20.9927 -9.31167,-40.2306 -25.92501,-53.5248 -16.45014,-13.1635 -39.25618,-18.0289 -59.33272,-12.6577 -14.87688,3.98 -27.0899,11.9481 -36.70318,23.9461 -7.20842,8.9966 -12.2839,20.7746 -14.1441,32.8224 -0.71994,4.6628 -0.61906,15.0086 0.19445,19.9438 4.42812,26.8635 23.52551,48.2046 49.70251,55.542 7.77104,2.1782 19.74703,2.9377 27.52961,1.7458 z m -93.72584,-72.8689 c 0.83317,-13.5079 5.08816,-27.156 12.16107,-39.0071 1.48934,-2.4955 7.39957,-10.3437 9.5655,-12.7021 1.12325,-1.223 2.04228,-2.4581 2.04228,-2.7446 0,-0.2865 -8.7523,-9.2702 -19.44955,-19.9638 l -19.44955,-19.4427 -3.03956,3.2408 c -18.34573,19.5608 -30.29896,43.1157 -35.29597,69.5539 -1.39675,7.39 -2.54046,18.097 -2.54046,23.7829 v 2.3933 h 27.84551 27.84551 z m 163.19272,-74.4416 c 10.3839,-10.5723 18.96149,-19.4554 19.06131,-19.7403 0.20597,-0.588 -2.99308,-3.6894 -9.02334,-8.7479 -18.16412,-15.2373 -40.07022,-25.3855 -64.34788,-29.8097 -7.01832,-1.279 -23.04129,-2.6477 -24.48962,-2.0919 -0.72504,0.2782 -0.78919,2.9362 -0.67261,27.8689 l 0.12888,27.5614 5.23524,0.3725 c 14.21923,1.0117 25.19956,4.4185 38.77582,12.0308 2.73001,1.5307 10.18187,7.0843 13.05803,9.7317 1.22305,1.1258 2.48711,2.0468 2.80903,2.0468 0.32192,0 9.08123,-8.65 19.46514,-19.2223 z"
         id="path855"
         inkscape:connector-curvature="0" />
      <path
         inkscape:connector-curvature="0"
         id="path853"
         d="m 241.52525,1021.8136 c -33.11872,-3.6439 -60.75782,-15.0842 -85.01033,-35.18707 -25.40596,-21.0591 -43.39987,-49.4722 -51.59851,-81.4761 -6.486751,-25.3214 -6.554621,-50.9056 -0.20288,-76.4852 11.64654,-46.9027 44.89984,-86.0816 89.44526,-105.3839 23.39469,-10.13739 51.45458,-14.62012 75.78634,-12.10734 22.55183,2.32896 41.44288,7.97754 59.58202,17.81554 22.7088,12.3164 41.64652,29.4216 55.74242,50.3487 14.97027,22.2251 23.1626,45.2484 26.05029,73.2105 1.70277,16.4882 0.18209,35.2332 -4.2673,52.6017 -4.638,18.1047 -11.45694,33.2399 -22.0143,48.8622 -18.61977,27.5529 -46.22489,48.80367 -77.70736,59.82007 -20.34056,7.1175 -45.69941,10.1931 -65.80565,7.9809 z m 16.94138,-17.5676 c -0.006,-1.3025 -0.48834,-6.63127 -1.07196,-11.84157 -0.78535,-7.0112 -1.11589,-13.6333 -1.27179,-25.4794 l -0.21066,-16.0061 -5.07446,-0.313 c -13.7867,-0.8504 -26.63885,-4.9194 -39.61563,-12.5422 -2.76142,-1.6221 -9.15467,-6.5378 -12.30796,-9.4634 l -2.47424,-2.2955 -19.70481,19.7048 -19.70482,19.7048 2.23528,2.1438 c 25.36257,24.3242 59.14795,38.17697 94.35058,38.68587 l 4.8613,0.07 -0.0108,-2.3684 z m 98.9818,-41.12397 c 22.92684,-24.2263 36.16977,-54.4981 38.25166,-87.4389 0.31809,-5.0331 0.44696,-9.2824 0.28637,-9.443 -0.16059,-0.1606 -12.73569,-0.1312 -27.94468,0.065 l -27.6527,0.3572 -0.31053,5.034 c -1.18694,19.2412 -9.15881,38.0391 -22.00232,51.8822 l -2.29483,2.4735 19.58466,19.5893 c 10.77157,10.7742 19.69791,19.5891 19.83633,19.5886 0.13841,-5e-4 1.14913,-0.9491 2.24604,-2.1082 z m -91.83686,-28.8544 c 12.01134,-1.8394 23.61355,-6.8603 32.75343,-14.1742 16.66156,-13.3327 25.91863,-32.4872 25.92501,-53.6434 0.006,-20.9927 -9.31167,-40.2306 -25.92501,-53.5248 -16.45014,-13.1635 -39.25618,-18.0289 -59.33272,-12.6577 -14.87688,3.98 -27.0899,11.9481 -36.70318,23.9461 -7.20842,8.9966 -12.2839,20.7746 -14.1441,32.8224 -0.71994,4.6628 -0.61906,15.0086 0.19445,19.9438 4.42812,26.8635 23.52551,48.2046 49.70251,55.542 7.77104,2.1782 19.74703,2.9377 27.52961,1.7458 z m -93.72584,-72.8689 c 0.83317,-13.5079 5.08816,-27.156 12.16107,-39.0071 1.48934,-2.4955 7.39957,-10.3437 9.5655,-12.7021 1.12325,-1.223 2.04228,-2.4581 2.04228,-2.7446 0,-0.2865 -8.7523,-9.2702 -19.44955,-19.9638 l -19.44955,-19.4427 -3.03956,3.2408 c -18.34573,19.5608 -30.29896,43.1157 -35.29597,69.5539 -1.39675,7.39 -2.54046,18.097 -2.54046,23.7829 v 2.3933 h 27.84551 27.84551 z m 163.19272,-74.4416 c 10.3839,-10.5723 18.96149,-19.4554 19.06131,-19.7403 0.20597,-0.588 -2.99308,-3.6894 -9.02334,-8.7479 -18.16412,-15.2373 -40.07022,-25.3855 -64.34788,-29.8097 -7.01832,-1.279 -23.04129,-2.6477 -24.48962,-2.0919 -0.72504,0.2782 -0.78919,2.9362 -0.67261,27.8689 l 0.12888,27.5614 5.23524,0.3725 c 14.21923,1.0117 25.19956,4.4185 38.77582,12.0308 2.73001,1.5307 10.18187,7.0843 13.05803,9.7317 1.22305,1.1258 2.48711,2.0468 2.80903,2.0468 0.32192,0 9.08123,-8.65 19.46514,-19.2223 z"
         style="fill:#ffffff;stroke-width:0.49859431" />
    </g>
  </g>
</svg>
