<?xml version="1.0" encoding="UTF-8" standalone="no"?>
<svg
   xmlns:dc="http://purl.org/dc/elements/1.1/"
   xmlns:cc="http://creativecommons.org/ns#"
   xmlns:rdf="http://www.w3.org/1999/02/22-rdf-syntax-ns#"
   xmlns:svg="http://www.w3.org/2000/svg"
   xmlns="http://www.w3.org/2000/svg"
   xmlns:xlink="http://www.w3.org/1999/xlink"
   xmlns:sodipodi="http://sodipodi.sourceforge.net/DTD/sodipodi-0.dtd"
   xmlns:inkscape="http://www.inkscape.org/namespaces/inkscape"
   viewBox="0 0 511.99999 511.99999"
   height="512"
   width="512"
   version="1.1"
   id="svg2"
   inkscape:version="0.92.2 5c3e80d, 2017-08-06"
   sodipodi:docname="xfce-office.svg">
  <sodipodi:namedview
     pagecolor="#ffffff"
     bordercolor="#666666"
     borderopacity="1"
     objecttolerance="10"
     gridtolerance="10"
     guidetolerance="10"
     inkscape:pageopacity="0"
     inkscape:pageshadow="2"
     inkscape:window-width="1366"
     inkscape:window-height="717"
     id="namedview18"
     showgrid="false"
     inkscape:zoom="0.40625"
     inkscape:cx="205.77858"
     inkscape:cy="399.60689"
     inkscape:window-x="0"
     inkscape:window-y="24"
     inkscape:window-maximized="1"
     inkscape:current-layer="svg2" />
  <metadata
     id="metadata8">
    <rdf:RDF>
      <cc:Work
         rdf:about="">
        <dc:format>image/svg+xml</dc:format>
        <dc:type
           rdf:resource="http://purl.org/dc/dcmitype/StillImage" />
        <dc:title />
      </cc:Work>
    </rdf:RDF>
  </metadata>
  <defs
     id="defs6">
    <filter
       height="1.096"
       y="-0.048"
       width="1.096"
       x="-0.048"
       id="filter4329"
       style="color-interpolation-filters:sRGB">
      <feGaussianBlur
         id="feGaussianBlur4331"
         stdDeviation="2.1324205" />
    </filter>
    <filter
       height="1.0327445"
       y="-0.016372267"
       width="1.0399742"
       x="-0.019987123"
       id="filter4376"
       style="color-interpolation-filters:sRGB">
      <feGaussianBlur
         id="feGaussianBlur4378"
         stdDeviation="1.1736058" />
    </filter>
    <filter
       height="1.0570984"
       y="-0.0285492"
       width="1.0632123"
       x="-0.031606145"
       id="filter4436"
       style="color-interpolation-filters:sRGB">
      <feGaussianBlur
         id="feGaussianBlur4438"
         stdDeviation="0.63519096" />
    </filter>
    <linearGradient
       x1="16.541649"
       y1="144.70755"
       x2="-24.629177"
       y2="-0.77768874"
       id="linearGradient3504"
       xlink:href="#linearGradient3526"
       gradientUnits="userSpaceOnUse"
       gradientTransform="matrix(0.6969214,-0.3124156,0.3124156,0.6969214,29.229254,21.999738)" />
    <linearGradient
       id="linearGradient3526">
      <stop
         id="stop3528"
         style="stop-color:#006e29;stop-opacity:1"
         offset="0" />
      <stop
         id="stop3530"
         style="stop-color:#77b753;stop-opacity:1"
         offset="1" />
    </linearGradient>
  </defs>
  <g
     id="g931">
    <path
       style="fill:#3689e6;fill-opacity:1;stroke-width:11.10955143"
       inkscape:connector-curvature="0"
       d="M 432.91335,56.473967 C 535.10615,145.04856 538.74001,306.17367 441.03014,416.37276 343.32008,526.57184 181.27947,544.10061 79.086672,455.52602 -23.106166,366.95143 -26.740027,205.82631 70.96988,95.627227 168.67975,-14.571854 330.72028,-32.100623 432.91335,56.473967 Z"
       id="path911" />
    <g
       id="g915"
       transform="matrix(8.0447772,6.9727288,-7.6918733,8.6750446,247.53006,-119.54657)">
      <path
         id="path913"
         d="m 40.03,7.531 c 3.712,4.084 5.969,9.514 5.969,15.469 0,12.703 -10.297,23 -23,23 C 17.045,46 11.615,43.744 7.53,40.031 11.708,44.322 17.54,47 23.999,47 c 12.703,0 23,-10.298 23,-23 0,-6.462 -2.677,-12.291 -6.969,-16.469 z"
         inkscape:connector-curvature="0"
         style="opacity:0.1" />
    </g>
    <g
       transform="translate(10,10.000002)"
       style="fill:#317ccf;fill-opacity:1"
       id="g916">
      <path
         sodipodi:nodetypes="ccccsccscsscccccccccccccccccccccccc"
         inkscape:connector-curvature="0"
         id="path906"
         d="m 159.08931,411.39141 c -29.13706,-2.82492 -53.27437,-25.83749 -57.613,-54.92839 -0.25423,-1.70471 -0.46551,-47.84825 -0.46952,-102.54126 L 101,154.47993 l 1.47865,-5.36741 c 3.47068,-12.59843 8.8625,-22.07841 17.32571,-30.46238 7.28996,-7.22168 15.3417,-12.19336 25.17323,-15.54361 9.37716,-3.195436 6.16572,-3.1063 111.91311,-3.1063 h 99.44186 l 5.25106,1.47098 c 18.43143,5.1632 30.86401,14.61263 40.64617,30.89331 3.36839,5.60607 6.83778,15.65398 7.86276,22.77179 0.15597,1.08304 0.30786,29.51258 0.33754,63.17676 l -0.16326,146.20905 c -2.42423,7.84905 -4.3537,11.95916 -8.63347,18.39133 -10.91435,16.40319 -28.04281,26.59106 -47.96287,28.5279 -7.97519,0.7753 -186.54076,0.72956 -194.58069,-0.0498 z m 180.4399,-28.85401 c 22.13242,-3.59116 40.41636,-21.87504 44.00748,-44.00749 0.43205,-2.66274 0.68351,-24.27333 0.68666,-59.01083 l 0.006,-54.80953 -49.41504,-49.4118 -49.41504,-49.4118 -57.73931,0.18534 -57.73931,0.18534 -4.59466,1.55165 c -18.39539,6.21221 -30.85307,18.78486 -36.5316,36.8687 l -1.53855,4.89973 v 85.00142 85.00147 l 1.53855,4.89976 c 6.20658,19.76545 21.95851,34.20135 41.50381,38.03596 4.29666,0.84302 164.04425,0.86385 169.23206,0.0226 z"
         style="fill:#317ccf;fill-opacity:1;stroke-width:0.65638191" />
      <path
         inkscape:connector-curvature="0"
         id="path908"
         d="m 164.92383,192.88477 a 12.50125,12.50125 0 1 0 0,25 h 136.61523 a 12.50125,12.50125 0 1 0 0,-25 z"
         style="color:#000000;font-style:normal;font-variant:normal;font-weight:normal;font-stretch:normal;font-size:medium;line-height:normal;font-family:sans-serif;font-variant-ligatures:normal;font-variant-position:normal;font-variant-caps:normal;font-variant-numeric:normal;font-variant-alternates:normal;font-feature-settings:normal;text-indent:0;text-align:start;text-decoration:none;text-decoration-line:none;text-decoration-style:solid;text-decoration-color:#000000;letter-spacing:normal;word-spacing:normal;text-transform:none;writing-mode:lr-tb;direction:ltr;text-orientation:mixed;dominant-baseline:auto;baseline-shift:baseline;text-anchor:start;white-space:normal;shape-padding:0;clip-rule:nonzero;display:inline;overflow:visible;visibility:visible;opacity:1;isolation:auto;mix-blend-mode:normal;color-interpolation:sRGB;color-interpolation-filters:linearRGB;solid-color:#000000;solid-opacity:1;vector-effect:none;fill:#317ccf;fill-opacity:1;fill-rule:nonzero;stroke:none;stroke-width:25;stroke-linecap:round;stroke-linejoin:miter;stroke-miterlimit:4;stroke-dasharray:none;stroke-dashoffset:0;stroke-opacity:1;color-rendering:auto;image-rendering:auto;shape-rendering:auto;text-rendering:auto;enable-background:accumulate" />
      <path
         sodipodi:nodetypes="csccscc"
         style="color:#000000;font-style:normal;font-variant:normal;font-weight:normal;font-stretch:normal;font-size:medium;line-height:normal;font-family:sans-serif;font-variant-ligatures:normal;font-variant-position:normal;font-variant-caps:normal;font-variant-numeric:normal;font-variant-alternates:normal;font-feature-settings:normal;text-indent:0;text-align:start;text-decoration:none;text-decoration-line:none;text-decoration-style:solid;text-decoration-color:#000000;letter-spacing:normal;word-spacing:normal;text-transform:none;writing-mode:lr-tb;direction:ltr;text-orientation:mixed;dominant-baseline:auto;baseline-shift:baseline;text-anchor:start;white-space:normal;shape-padding:0;clip-rule:nonzero;display:inline;overflow:visible;visibility:visible;opacity:1;isolation:auto;mix-blend-mode:normal;color-interpolation:sRGB;color-interpolation-filters:linearRGB;solid-color:#000000;solid-opacity:1;vector-effect:none;fill:#317ccf;fill-opacity:1;fill-rule:nonzero;stroke:none;stroke-width:25;stroke-linecap:round;stroke-linejoin:miter;stroke-miterlimit:4;stroke-dasharray:none;stroke-dashoffset:0;stroke-opacity:1;color-rendering:auto;image-rendering:auto;shape-rendering:auto;text-rendering:auto;enable-background:accumulate"
         d="m 164.92383,246.88477 c -6.9727,-0.0986 -12.67803,5.52661 -12.67803,12.5 0,6.97339 5.70533,12.59861 12.67803,12.5 h 184.61523 c 6.9727,0.0986 12.67803,-5.52661 12.67803,-12.5 0,-6.97339 -5.70533,-12.59861 -12.67803,-12.5 z"
         id="path912"
         inkscape:connector-curvature="0" />
      <path
         inkscape:connector-curvature="0"
         id="path914"
         d="m 164.92383,300.88477 c -6.9727,-0.0986 -12.67803,5.52661 -12.67803,12.5 0,6.97339 5.70533,12.59861 12.67803,12.5 h 184.61523 c 6.9727,0.0986 12.67803,-5.52661 12.67803,-12.5 0,-6.97339 -5.70533,-12.59861 -12.67803,-12.5 z"
         style="color:#000000;font-style:normal;font-variant:normal;font-weight:normal;font-stretch:normal;font-size:medium;line-height:normal;font-family:sans-serif;font-variant-ligatures:normal;font-variant-position:normal;font-variant-caps:normal;font-variant-numeric:normal;font-variant-alternates:normal;font-feature-settings:normal;text-indent:0;text-align:start;text-decoration:none;text-decoration-line:none;text-decoration-style:solid;text-decoration-color:#000000;letter-spacing:normal;word-spacing:normal;text-transform:none;writing-mode:lr-tb;direction:ltr;text-orientation:mixed;dominant-baseline:auto;baseline-shift:baseline;text-anchor:start;white-space:normal;shape-padding:0;clip-rule:nonzero;display:inline;overflow:visible;visibility:visible;opacity:1;isolation:auto;mix-blend-mode:normal;color-interpolation:sRGB;color-interpolation-filters:linearRGB;solid-color:#000000;solid-opacity:1;vector-effect:none;fill:#317ccf;fill-opacity:1;fill-rule:nonzero;stroke:none;stroke-width:25;stroke-linecap:round;stroke-linejoin:miter;stroke-miterlimit:4;stroke-dasharray:none;stroke-dashoffset:0;stroke-opacity:1;color-rendering:auto;image-rendering:auto;shape-rendering:auto;text-rendering:auto;enable-background:accumulate"
         sodipodi:nodetypes="csccscc" />
    </g>
    <g
       id="g904">
      <path
         style="fill:#ffffff;stroke-width:0.65638191"
         d="m 159.08931,411.39141 c -29.13706,-2.82492 -53.27437,-25.83749 -57.613,-54.92839 -0.25423,-1.70471 -0.46551,-47.84825 -0.46952,-102.54126 L 101,154.47993 l 1.47865,-5.36741 c 3.47068,-12.59843 8.8625,-22.07841 17.32571,-30.46238 7.28996,-7.22168 15.3417,-12.19336 25.17323,-15.54361 9.37716,-3.195436 6.16572,-3.1063 111.91311,-3.1063 h 99.44186 l 5.25106,1.47098 c 18.43143,5.1632 30.86401,14.61263 40.64617,30.89331 3.36839,5.60607 6.83778,15.65398 7.86276,22.77179 0.15597,1.08304 0.30786,29.51258 0.33754,63.17676 l -0.16326,146.20905 c -2.42423,7.84905 -4.3537,11.95916 -8.63347,18.39133 -10.91435,16.40319 -28.04281,26.59106 -47.96287,28.5279 -7.97519,0.7753 -186.54076,0.72956 -194.58069,-0.0498 z m 180.4399,-28.85401 c 22.13242,-3.59116 40.41636,-21.87504 44.00748,-44.00749 0.43205,-2.66274 0.68351,-24.27333 0.68666,-59.01083 l 0.006,-54.80953 -49.41504,-49.4118 -49.41504,-49.4118 -57.73931,0.18534 -57.73931,0.18534 -4.59466,1.55165 c -18.39539,6.21221 -30.85307,18.78486 -36.5316,36.8687 l -1.53855,4.89973 v 85.00142 85.00147 l 1.53855,4.89976 c 6.20658,19.76545 21.95851,34.20135 41.50381,38.03596 4.29666,0.84302 164.04425,0.86385 169.23206,0.0226 z"
         id="path910"
         inkscape:connector-curvature="0"
         sodipodi:nodetypes="ccccsccscsscccccccccccccccccccccccc" />
      <path
         style="color:#000000;font-style:normal;font-variant:normal;font-weight:normal;font-stretch:normal;font-size:medium;line-height:normal;font-family:sans-serif;font-variant-ligatures:normal;font-variant-position:normal;font-variant-caps:normal;font-variant-numeric:normal;font-variant-alternates:normal;font-feature-settings:normal;text-indent:0;text-align:start;text-decoration:none;text-decoration-line:none;text-decoration-style:solid;text-decoration-color:#000000;letter-spacing:normal;word-spacing:normal;text-transform:none;writing-mode:lr-tb;direction:ltr;text-orientation:mixed;dominant-baseline:auto;baseline-shift:baseline;text-anchor:start;white-space:normal;shape-padding:0;clip-rule:nonzero;display:inline;overflow:visible;visibility:visible;opacity:1;isolation:auto;mix-blend-mode:normal;color-interpolation:sRGB;color-interpolation-filters:linearRGB;solid-color:#000000;solid-opacity:1;vector-effect:none;fill:#ffffff;fill-opacity:1;fill-rule:nonzero;stroke:none;stroke-width:25;stroke-linecap:round;stroke-linejoin:miter;stroke-miterlimit:4;stroke-dasharray:none;stroke-dashoffset:0;stroke-opacity:1;color-rendering:auto;image-rendering:auto;shape-rendering:auto;text-rendering:auto;enable-background:accumulate"
         d="m 164.92383,192.88477 a 12.50125,12.50125 0 1 0 0,25 h 136.61523 a 12.50125,12.50125 0 1 0 0,-25 z"
         id="path892"
         inkscape:connector-curvature="0" />
      <path
         inkscape:connector-curvature="0"
         id="path896"
         d="m 164.92383,246.88477 c -6.9727,-0.0986 -12.67803,5.52661 -12.67803,12.5 0,6.97339 5.70533,12.59861 12.67803,12.5 h 184.61523 c 6.9727,0.0986 12.67803,-5.52661 12.67803,-12.5 0,-6.97339 -5.70533,-12.59861 -12.67803,-12.5 z"
         style="color:#000000;font-style:normal;font-variant:normal;font-weight:normal;font-stretch:normal;font-size:medium;line-height:normal;font-family:sans-serif;font-variant-ligatures:normal;font-variant-position:normal;font-variant-caps:normal;font-variant-numeric:normal;font-variant-alternates:normal;font-feature-settings:normal;text-indent:0;text-align:start;text-decoration:none;text-decoration-line:none;text-decoration-style:solid;text-decoration-color:#000000;letter-spacing:normal;word-spacing:normal;text-transform:none;writing-mode:lr-tb;direction:ltr;text-orientation:mixed;dominant-baseline:auto;baseline-shift:baseline;text-anchor:start;white-space:normal;shape-padding:0;clip-rule:nonzero;display:inline;overflow:visible;visibility:visible;opacity:1;isolation:auto;mix-blend-mode:normal;color-interpolation:sRGB;color-interpolation-filters:linearRGB;solid-color:#000000;solid-opacity:1;vector-effect:none;fill:#ffffff;fill-opacity:1;fill-rule:nonzero;stroke:none;stroke-width:25;stroke-linecap:round;stroke-linejoin:miter;stroke-miterlimit:4;stroke-dasharray:none;stroke-dashoffset:0;stroke-opacity:1;color-rendering:auto;image-rendering:auto;shape-rendering:auto;text-rendering:auto;enable-background:accumulate"
         sodipodi:nodetypes="csccscc" />
      <path
         sodipodi:nodetypes="csccscc"
         style="color:#000000;font-style:normal;font-variant:normal;font-weight:normal;font-stretch:normal;font-size:medium;line-height:normal;font-family:sans-serif;font-variant-ligatures:normal;font-variant-position:normal;font-variant-caps:normal;font-variant-numeric:normal;font-variant-alternates:normal;font-feature-settings:normal;text-indent:0;text-align:start;text-decoration:none;text-decoration-line:none;text-decoration-style:solid;text-decoration-color:#000000;letter-spacing:normal;word-spacing:normal;text-transform:none;writing-mode:lr-tb;direction:ltr;text-orientation:mixed;dominant-baseline:auto;baseline-shift:baseline;text-anchor:start;white-space:normal;shape-padding:0;clip-rule:nonzero;display:inline;overflow:visible;visibility:visible;opacity:1;isolation:auto;mix-blend-mode:normal;color-interpolation:sRGB;color-interpolation-filters:linearRGB;solid-color:#000000;solid-opacity:1;vector-effect:none;fill:#ffffff;fill-opacity:1;fill-rule:nonzero;stroke:none;stroke-width:25;stroke-linecap:round;stroke-linejoin:miter;stroke-miterlimit:4;stroke-dasharray:none;stroke-dashoffset:0;stroke-opacity:1;color-rendering:auto;image-rendering:auto;shape-rendering:auto;text-rendering:auto;enable-background:accumulate"
         d="m 164.92383,300.88477 c -6.9727,-0.0986 -12.67803,5.52661 -12.67803,12.5 0,6.97339 5.70533,12.59861 12.67803,12.5 h 184.61523 c 6.9727,0.0986 12.67803,-5.52661 12.67803,-12.5 0,-6.97339 -5.70533,-12.59861 -12.67803,-12.5 z"
         id="path898"
         inkscape:connector-curvature="0" />
    </g>
  </g>
</svg>
