<?xml version="1.0" encoding="UTF-8" standalone="no"?>
<!-- Created with Inkscape (http://www.inkscape.org/) -->

<svg
   xmlns:dc="http://purl.org/dc/elements/1.1/"
   xmlns:cc="http://creativecommons.org/ns#"
   xmlns:rdf="http://www.w3.org/1999/02/22-rdf-syntax-ns#"
   xmlns:svg="http://www.w3.org/2000/svg"
   xmlns="http://www.w3.org/2000/svg"
   xmlns:sodipodi="http://sodipodi.sourceforge.net/DTD/sodipodi-0.dtd"
   xmlns:inkscape="http://www.inkscape.org/namespaces/inkscape"
   width="512"
   height="512"
   id="svg2"
   version="1.1"
   inkscape:version="0.92.2 5c3e80d, 2017-08-06"
   sodipodi:docname="application-x-font-ttf.svg">
  <defs
     id="defs4" />
  <sodipodi:namedview
     id="base"
     pagecolor="#ffffff"
     bordercolor="#666666"
     borderopacity="1.0"
     inkscape:pageopacity="0.0"
     inkscape:pageshadow="2"
     inkscape:zoom="0.60666666"
     inkscape:cx="134.40412"
     inkscape:cy="305.68423"
     inkscape:document-units="px"
     inkscape:current-layer="layer1"
     showgrid="false"
     inkscape:window-width="1366"
     inkscape:window-height="717"
     inkscape:window-x="0"
     inkscape:window-y="24"
     inkscape:window-maximized="1" />
  <metadata
     id="metadata7">
    <rdf:RDF>
      <cc:Work
         rdf:about="">
        <dc:format>image/svg+xml</dc:format>
        <dc:type
           rdf:resource="http://purl.org/dc/dcmitype/StillImage" />
        <dc:title />
      </cc:Work>
    </rdf:RDF>
  </metadata>
  <g
     inkscape:label="Layer 1"
     inkscape:groupmode="layer"
     id="layer1"
     transform="translate(0,-540.36218)">
    <g
       id="g861">
      <path
         id="path943"
         d="m 432.91326,596.83615 c 102.19291,88.57459 105.82678,249.69971 8.1168,359.89879 C 343.32009,1066.934 181.27965,1084.4628 79.086745,995.8882 -23.106205,907.31361 -26.740035,746.18849 70.969945,635.98941 168.67991,525.79033 330.72036,508.26156 432.91326,596.83615 Z"
         inkscape:connector-curvature="0"
         style="fill:#3689e6;fill-opacity:1;stroke-width:11.10955811" />
      <path
         sodipodi:nodetypes="csscc"
         inkscape:connector-curvature="0"
         id="path945"
         d="M 8.3652452,882.36219 C 19.949345,925.51392 43.551545,965.08856 79.085945,995.8876 181.27886,1084.4622 343.31934,1066.9343 441.02931,956.73524 461.38033,933.783 477.31886,908.61717 488.90235,882.36219 Z"
         style="fill:#0d52bf;fill-opacity:1;stroke:none;stroke-width:0.99999994px;stroke-linecap:butt;stroke-linejoin:miter;stroke-opacity:1" />
      <path
         id="path947"
         d="M 511.6355,765.2657 C 510.08411,826.57734 486.47427,889.4203 440.66912,941.08017 342.95915,1051.2793 180.9187,1068.808 78.725755,980.2335 30.827125,938.71782 4.4968152,881.28502 0.19382516,820.59099 0.79907516,886.94766 27.117405,950.84436 79.078685,995.8813 181.2716,1084.4558 343.31975,1066.9184 441.02201,956.72795 490.72696,900.66984 514.02703,831.43698 511.6355,765.2657 Z"
         inkscape:connector-curvature="0"
         style="opacity:1;stroke-width:11.10955811;fill:#000000;fill-opacity:0.49019608" />
      <path
         id="path4728-3"
         d="m 384.96743,760.07168 c -0.0818,0.67017 -0.0886,1.36009 -0.19815,2.02086 0.11023,-0.13526 0.25563,-0.23872 0.36992,-0.36991 -0.0203,-0.56063 -0.11903,-1.09906 -0.17177,-1.65103 z"
         style="fill:#1e2022;fill-opacity:0.31372549;stroke:none;stroke-width:0.60111922"
         inkscape:connector-curvature="0" />
      <g
         transform="matrix(6.9400631,0,0,6.9400631,393.45265,778.69558)"
         style="font-style:normal;font-variant:normal;font-weight:normal;font-stretch:normal;font-size:40px;line-height:125%;font-family:Garamond;-inkscape-font-specification:Garamond;letter-spacing:-2.18000007px;word-spacing:0px;fill:#000000;fill-opacity:0.49019608;stroke:none"
         id="g855">
        <path
           style="font-weight:500;font-family:Artifika;-inkscape-font-specification:'Artifika Medium';fill:#000000;fill-opacity:0.49019608;stroke:none"
           d="m -17.407727,-23.246676 c -1.145846,3e-5 -2.244804,0.174509 -3.3125,0.5 -1.054698,0.32555 -1.992197,0.828154 -2.8125,1.53125 -0.82032,0.690132 -1.505215,1.580755 -2,2.6875 -0.481776,1.093774 -0.718755,2.437523 -0.71875,4 v 1.28125 h -3.03125 c -0.559898,2e-5 -0.989585,0.122415 -1.25,0.34375 -0.247397,0.208352 -0.343751,0.601581 -0.34375,1.1875 v 0.875 h 4.625 l 0.0625,17.9374996 c 0,0.7291656 -0.03646,1.4817687 -0.0625,2.25 -0.01303,0.7682254 -0.08855,1.4687464 -0.21875,2.0937504 -0.130213,0.638016 -0.325526,1.158849 -0.625,1.5625 -0.299483,0.41666 -0.734379,0.624994 -1.28125,0.625 -0.312503,-6e-6 -0.677086,-0.05209 -1.09375,-0.15625 -0.403648,-0.104173 -0.825522,-0.236985 -1.28125,-0.40625 -0.455729,-0.169277 -0.942708,-0.354173 -1.4375,-0.5625 -0.494791,-0.208339 -0.986977,-0.416672 -1.46875,-0.625 l -1.28125,2.96875 c -0.02603,0.0651 -0.04948,0.10416 -0.0625,0.15625 -0.01303,0.05207 3e-6,0.12239 0,0.1875 3e-6,0.260408 0.138023,0.468741 0.4375,0.625 0.299481,0.156241 0.645836,0.26562 1.0625,0.34375 0.403647,0.07812 0.820314,0.1302 1.25,0.15625 0.429688,0.02603 0.802083,0.06249 1.0625,0.0625 1.184894,-9e-6 2.335935,-0.216155 3.46875,-0.59375 1.132807,-0.364592 2.145827,-0.919279 3.03125,-1.6875 0.898429,-0.755215 1.591137,-1.70313 2.125,-2.875 0.546866,-1.171878 0.84374,-2.5677106 0.84375,-4.1562504 V -10.840426 h 4 c 1.958333,0 3.916667,0 5.875,0 l 0.03125,17.9374996 c 0,0.7291656 -0.0052,1.4817687 -0.03125,2.25 -0.01303,0.7682254 -0.08855,1.4687464 -0.21875,2.0937504 -0.130214,0.638016 -0.356776,1.158849 -0.65625,1.5625 -0.299484,0.41666 -0.734379,0.624994 -1.28125,0.625 -0.312504,-6e-6 -0.677087,-0.05209 -1.09375,-0.15625 -0.403648,-0.104173 -0.825522,-0.236985 -1.28125,-0.40625 -0.45573,-0.169277 -0.911459,-0.354173 -1.40625,-0.5625 -0.494791,-0.208339 -0.986978,-0.416672 -1.46875,-0.625 l -1.3125,2.96875 c -0.02604,0.0651 -0.01823,0.10416 -0.03125,0.15625 -0.01303,0.05207 -0.03125,0.12239 -0.03125,0.1875 3e-6,0.260408 0.138024,0.468741 0.4375,0.625 0.299482,0.156241 0.677085,0.26562 1.09375,0.34375 0.403647,0.07812 0.820313,0.1302 1.25,0.15625 0.429688,0.02603 0.770833,0.06249 1.03125,0.0625 1.184894,-9e-6 2.335934,-0.216155 3.46875,-0.59375 1.132807,-0.364592 2.145827,-0.919279 3.03125,-1.6875 0.8984288,-0.755215 1.6223868,-1.70313 2.1562498,-2.875 0.5468651,-1.171878 0.8124899,-2.5677106 0.8125,-4.1562504 V -10.840426 h 4 c 0.5598811,1.7e-5 0.971339,-0.122379 1.21875,-0.34375 0.260401,-0.234357 0.3749842,-0.632794 0.375,-1.21875 v -0.84375 h -5.59375 v -2.625 c -10e-6,-0.768206 0.0052,-1.463517 0.03125,-2.0625 0.039052,-0.611953 0.1197813,-1.114558 0.25,-1.53125 0.1301977,-0.41664 0.3150934,-0.747368 0.5625,-0.96875 0.2604054,-0.221326 0.61978,-0.343722 1.0625,-0.34375 0.3255084,2.8e-5 0.6848831,0.08857 1.0625,0.21875 0.3906115,0.130235 0.8020694,0.291694 1.21875,0.5 0.4166519,0.195339 0.8567556,0.42711 1.3125,0.6875 0.455713,0.260442 0.91144184,0.520859 1.40625004,0.78125 l 1.4375,-2.625 c 0.0650856,-0.104138 0.13018966,-0.2031 0.15624996,-0.28125 0.039044,-0.0781 0.062481,-0.145805 0.0625,-0.25 -1.87e-5,-0.338512 -0.179706,-0.617158 -0.53124996,-0.8125 -0.33855952,-0.208304 -0.75001748,-0.34632 -1.21875,-0.4375 -0.46876654,-0.104132 -0.95574524,-0.19268 -1.43750004,-0.21875 -0.4687651,-0.02601 -0.8151189,-0.03122 -1.0625,-0.03125 -1.1458467,3e-5 -2.2448039,0.174509 -3.3125,0.5 -1.0546976,0.32555 -1.9921967,0.828154 -2.8125,1.53125 -0.82032,0.690132 -1.4739648,1.580755 -1.9687498,2.6875 -0.481777,1.093774 -0.718756,2.437523 -0.71875,4 v 1.28125 c -1.427083,0 -2.854167,0 -4.28125,0 h -5.59375 v -2.625 c -10e-6,-0.768206 0.0052,-1.463517 0.03125,-2.0625 0.03905,-0.611953 0.119781,-1.114558 0.25,-1.53125 0.130197,-0.41664 0.315093,-0.747368 0.5625,-0.96875 0.260405,-0.221326 0.61978,-0.343722 1.0625,-0.34375 0.325509,2.8e-5 0.684883,0.08857 1.0625,0.21875 0.390611,0.130235 0.77082,0.291694 1.1875,0.5 0.416652,0.195339 0.856756,0.42711 1.3125,0.6875 0.455713,0.260442 0.942692,0.520859 1.4375,0.78125 l 1.4375,-2.625 c 0.06509,-0.104138 0.13019,-0.2031 0.15625,-0.28125 0.03904,-0.0781 0.03123,-0.145805 0.03125,-0.25 -1.8e-5,-0.338512 -0.148456,-0.617158 -0.5,-0.8125 -0.33856,-0.208304 -0.750017,-0.34632 -1.21875,-0.4375 -0.468766,-0.104132 -0.955745,-0.19268 -1.4375,-0.21875 -0.468765,-0.02601 -0.815119,-0.03122 -1.0625,-0.03125 z"
           id="path853"
           inkscape:connector-curvature="0"
           sodipodi:nodetypes="ccccscccscccccccccccccccccccccsccccccccccccccccccccccsccccccccsccccccccccccccccsccccccccccccccccccc" />
      </g>
      <g
         id="text2993-6"
         style="font-style:normal;font-variant:normal;font-weight:normal;font-stretch:normal;font-size:40px;line-height:125%;font-family:Garamond;-inkscape-font-specification:Garamond;letter-spacing:-2.18000007px;word-spacing:0px;fill:#ffffff;fill-opacity:1;stroke:none"
         transform="matrix(6.9400631,0,0,6.9400631,373.45265,758.69558)">
        <path
           sodipodi:nodetypes="ccccscccscccccccccccccccccccccsccccccccccccccccccccccsccccccccsccccccccccccccccsccccccccccccccccccc"
           inkscape:connector-curvature="0"
           id="path2998-7"
           d="m -17.407727,-23.246676 c -1.145846,3e-5 -2.244804,0.174509 -3.3125,0.5 -1.054698,0.32555 -1.992197,0.828154 -2.8125,1.53125 -0.82032,0.690132 -1.505215,1.580755 -2,2.6875 -0.481776,1.093774 -0.718755,2.437523 -0.71875,4 v 1.28125 h -3.03125 c -0.559898,2e-5 -0.989585,0.122415 -1.25,0.34375 -0.247397,0.208352 -0.343751,0.601581 -0.34375,1.1875 v 0.875 h 4.625 l 0.0625,17.9374996 c 0,0.7291656 -0.03646,1.4817687 -0.0625,2.25 -0.01303,0.7682254 -0.08855,1.4687464 -0.21875,2.0937504 -0.130213,0.638016 -0.325526,1.158849 -0.625,1.5625 -0.299483,0.41666 -0.734379,0.624994 -1.28125,0.625 -0.312503,-6e-6 -0.677086,-0.05209 -1.09375,-0.15625 -0.403648,-0.104173 -0.825522,-0.236985 -1.28125,-0.40625 -0.455729,-0.169277 -0.942708,-0.354173 -1.4375,-0.5625 -0.494791,-0.208339 -0.986977,-0.416672 -1.46875,-0.625 l -1.28125,2.96875 c -0.02603,0.0651 -0.04948,0.10416 -0.0625,0.15625 -0.01303,0.05207 3e-6,0.12239 0,0.1875 3e-6,0.260408 0.138023,0.468741 0.4375,0.625 0.299481,0.156241 0.645836,0.26562 1.0625,0.34375 0.403647,0.07812 0.820314,0.1302 1.25,0.15625 0.429688,0.02603 0.802083,0.06249 1.0625,0.0625 1.184894,-9e-6 2.335935,-0.216155 3.46875,-0.59375 1.132807,-0.364592 2.145827,-0.919279 3.03125,-1.6875 0.898429,-0.755215 1.591137,-1.70313 2.125,-2.875 0.546866,-1.171878 0.84374,-2.5677106 0.84375,-4.1562504 V -10.840426 h 4 c 1.958333,0 3.916667,0 5.875,0 l 0.03125,17.9374996 c 0,0.7291656 -0.0052,1.4817687 -0.03125,2.25 -0.01303,0.7682254 -0.08855,1.4687464 -0.21875,2.0937504 -0.130214,0.638016 -0.356776,1.158849 -0.65625,1.5625 -0.299484,0.41666 -0.734379,0.624994 -1.28125,0.625 -0.312504,-6e-6 -0.677087,-0.05209 -1.09375,-0.15625 -0.403648,-0.104173 -0.825522,-0.236985 -1.28125,-0.40625 -0.45573,-0.169277 -0.911459,-0.354173 -1.40625,-0.5625 -0.494791,-0.208339 -0.986978,-0.416672 -1.46875,-0.625 l -1.3125,2.96875 c -0.02604,0.0651 -0.01823,0.10416 -0.03125,0.15625 -0.01303,0.05207 -0.03125,0.12239 -0.03125,0.1875 3e-6,0.260408 0.138024,0.468741 0.4375,0.625 0.299482,0.156241 0.677085,0.26562 1.09375,0.34375 0.403647,0.07812 0.820313,0.1302 1.25,0.15625 0.429688,0.02603 0.770833,0.06249 1.03125,0.0625 1.184894,-9e-6 2.335934,-0.216155 3.46875,-0.59375 1.132807,-0.364592 2.145827,-0.919279 3.03125,-1.6875 0.8984288,-0.755215 1.6223868,-1.70313 2.1562498,-2.875 0.5468651,-1.171878 0.8124899,-2.5677106 0.8125,-4.1562504 V -10.840426 h 4 c 0.5598811,1.7e-5 0.971339,-0.122379 1.21875,-0.34375 0.260401,-0.234357 0.3749842,-0.632794 0.375,-1.21875 v -0.84375 h -5.59375 v -2.625 c -10e-6,-0.768206 0.0052,-1.463517 0.03125,-2.0625 0.039052,-0.611953 0.1197813,-1.114558 0.25,-1.53125 0.1301977,-0.41664 0.3150934,-0.747368 0.5625,-0.96875 0.2604054,-0.221326 0.61978,-0.343722 1.0625,-0.34375 0.3255084,2.8e-5 0.6848831,0.08857 1.0625,0.21875 0.3906115,0.130235 0.8020694,0.291694 1.21875,0.5 0.4166519,0.195339 0.8567556,0.42711 1.3125,0.6875 0.455713,0.260442 0.91144184,0.520859 1.40625004,0.78125 l 1.4375,-2.625 c 0.0650856,-0.104138 0.13018966,-0.2031 0.15624996,-0.28125 0.039044,-0.0781 0.062481,-0.145805 0.0625,-0.25 -1.87e-5,-0.338512 -0.179706,-0.617158 -0.53124996,-0.8125 -0.33855952,-0.208304 -0.75001748,-0.34632 -1.21875,-0.4375 -0.46876654,-0.104132 -0.95574524,-0.19268 -1.43750004,-0.21875 -0.4687651,-0.02601 -0.8151189,-0.03122 -1.0625,-0.03125 -1.1458467,3e-5 -2.2448039,0.174509 -3.3125,0.5 -1.0546976,0.32555 -1.9921967,0.828154 -2.8125,1.53125 -0.82032,0.690132 -1.4739648,1.580755 -1.9687498,2.6875 -0.481777,1.093774 -0.718756,2.437523 -0.71875,4 v 1.28125 c -1.427083,0 -2.854167,0 -4.28125,0 h -5.59375 v -2.625 c -10e-6,-0.768206 0.0052,-1.463517 0.03125,-2.0625 0.03905,-0.611953 0.119781,-1.114558 0.25,-1.53125 0.130197,-0.41664 0.315093,-0.747368 0.5625,-0.96875 0.260405,-0.221326 0.61978,-0.343722 1.0625,-0.34375 0.325509,2.8e-5 0.684883,0.08857 1.0625,0.21875 0.390611,0.130235 0.77082,0.291694 1.1875,0.5 0.416652,0.195339 0.856756,0.42711 1.3125,0.6875 0.455713,0.260442 0.942692,0.520859 1.4375,0.78125 l 1.4375,-2.625 c 0.06509,-0.104138 0.13019,-0.2031 0.15625,-0.28125 0.03904,-0.0781 0.03123,-0.145805 0.03125,-0.25 -1.8e-5,-0.338512 -0.148456,-0.617158 -0.5,-0.8125 -0.33856,-0.208304 -0.750017,-0.34632 -1.21875,-0.4375 -0.468766,-0.104132 -0.955745,-0.19268 -1.4375,-0.21875 -0.468765,-0.02601 -0.815119,-0.03122 -1.0625,-0.03125 z"
           style="font-weight:500;font-family:Artifika;-inkscape-font-specification:'Artifika Medium';fill:#ffffff;fill-opacity:1;stroke:none" />
      </g>
      <g
         aria-label="TTF"
         transform="translate(52.14128,540.62079)"
         style="font-style:normal;font-weight:normal;font-size:40px;line-height:1.25;font-family:sans-serif;letter-spacing:0px;word-spacing:0px;fill:#000000;fill-opacity:0.49019608;stroke:none"
         id="g902">
        <path
           d="m 185.81055,390.98293 q -4.09505,0 -12.61719,-0.66406 -8.30078,-0.60873 -12.61719,-0.55339 h -3.92903 q 0.16601,7.63672 1.49414,24.79167 1.21745,15.99284 1.21745,24.847 0,1.93685 0.38736,5.86589 0.38737,3.92904 0.38737,5.92122 0,3.76302 -1.21744,6.47461 -1.54948,3.65235 -4.81446,3.65235 -2.21354,0 -3.98437,-1.54948 -1.77083,-1.54948 -1.77083,-3.98438 0,-0.83008 0.27669,-2.49023 0.27669,-1.66016 0.27669,-2.49024 0,-2.71158 -0.38737,-8.13476 -0.33203,-5.42318 -0.33203,-8.19011 0,-7.91341 -1.27279,-22.24609 -1.32812,-15.49479 -1.49414,-22.24609 l -5.03581,0.0553 q -12.11914,0 -19.03645,-1.77083 -4.48243,-1.16211 -4.48243,-5.47852 0,-2.26888 1.43881,-3.98437 1.66015,-1.93685 4.26106,-1.77083 1.93685,0.11067 8.85417,0.99609 5.53386,0.66406 8.96484,0.66406 3.32032,0 10.07162,-0.11067 6.7513,-0.16602 10.07161,-0.16602 4.26107,0 12.61719,0.60872 8.41146,0.60873 12.67253,0.60873 2.37956,0 3.98437,1.66015 1.60482,1.60482 1.60482,4.03972 0,2.37956 -1.60482,4.03971 -1.60481,1.60482 -3.98437,1.60482 z"
           style="font-style:normal;font-variant:normal;font-weight:normal;font-stretch:normal;font-size:113.33333588px;font-family:'Comic Sans MS';-inkscape-font-specification:'Comic Sans MS';fill:#000000;fill-opacity:0.49019608"
           id="path896"
           inkscape:connector-curvature="0" />
        <path
           d="m 262.8418,390.98293 q -4.09505,0 -12.61719,-0.66406 -8.30078,-0.60873 -12.61719,-0.55339 h -3.92903 q 0.16601,7.63672 1.49414,24.79167 1.21745,15.99284 1.21745,24.847 0,1.93685 0.38736,5.86589 0.38737,3.92904 0.38737,5.92122 0,3.76302 -1.21744,6.47461 -1.54948,3.65235 -4.81446,3.65235 -2.21354,0 -3.98437,-1.54948 -1.77083,-1.54948 -1.77083,-3.98438 0,-0.83008 0.27669,-2.49023 0.27669,-1.66016 0.27669,-2.49024 0,-2.71158 -0.38737,-8.13476 -0.33203,-5.42318 -0.33203,-8.19011 0,-7.91341 -1.27279,-22.24609 -1.32812,-15.49479 -1.49414,-22.24609 l -5.03581,0.0553 q -12.11914,0 -19.03645,-1.77083 -4.48243,-1.16211 -4.48243,-5.47852 0,-2.26888 1.43881,-3.98437 1.66015,-1.93685 4.26106,-1.77083 1.93685,0.11067 8.85417,0.99609 5.53386,0.66406 8.96484,0.66406 3.32032,0 10.07162,-0.11067 6.7513,-0.16602 10.07161,-0.16602 4.26107,0 12.61719,0.60872 8.41146,0.60873 12.67253,0.60873 2.37956,0 3.98437,1.66015 1.60482,1.60482 1.60482,4.03972 0,2.37956 -1.60482,4.03971 -1.60481,1.60482 -3.98437,1.60482 z"
           style="font-style:normal;font-variant:normal;font-weight:normal;font-stretch:normal;font-size:113.33333588px;font-family:'Comic Sans MS';-inkscape-font-specification:'Comic Sans MS';fill:#000000;fill-opacity:0.49019608"
           id="path898"
           inkscape:connector-curvature="0" />
        <path
           d="m 325.70638,388.16066 q -0.99609,0 -2.10286,-0.4427 -6.86198,-2.54558 -18.15105,-2.54558 -3.65234,0 -8.57747,0.55339 -4.86979,0.49804 -10.95703,1.60482 l -0.11068,23.90625 q 10.68034,-2.82227 16.04818,-2.82227 8.52214,0 17.65299,0.99609 5.20183,0.55339 5.20183,5.64454 0,2.49023 -1.60482,4.15039 -1.60482,1.60481 -3.98438,1.60481 -2.8776,0 -8.63281,-0.49804 -5.75521,-0.49805 -8.63281,-0.49805 -3.76302,0 -16.26953,3.20964 l -0.49805,38.07291 q 0,2.37956 -1.54948,3.98438 -1.54948,1.66015 -3.92903,1.66015 -2.37956,0 -3.98438,-1.66015 -1.54948,-1.60482 -1.54948,-3.98438 0,-10.90169 0.38737,-32.70508 0.44271,-21.85872 0.44271,-32.76041 0,-2.4349 -0.11068,-7.30469 -0.0553,-4.92513 -0.0553,-7.36003 0,-2.43489 1.49414,-4.09505 1.54948,-1.66016 3.98438,-1.66016 1.82617,0 3.26497,0.9961 6.86198,-1.21745 12.3405,-1.77083 5.47851,-0.60873 9.6289,-0.60873 6.36394,0 14.55404,1.82617 11.12305,2.54558 11.12305,6.64063 0,2.21354 -1.4388,3.92903 -1.60482,1.93685 -3.98438,1.93685 z"
           style="font-style:normal;font-variant:normal;font-weight:normal;font-stretch:normal;font-size:113.33333588px;font-family:'Comic Sans MS';-inkscape-font-specification:'Comic Sans MS';fill:#000000;fill-opacity:0.49019608"
           id="path900"
           inkscape:connector-curvature="0" />
      </g>
      <g
         id="flowRoot881"
         style="font-style:normal;font-weight:normal;font-size:40px;line-height:1.25;font-family:sans-serif;letter-spacing:0px;word-spacing:0px;fill:#ffffff;fill-opacity:1;stroke:none"
         transform="translate(32.14128,520.62079)"
         aria-label="TTF">
        <path
           inkscape:connector-curvature="0"
           id="path889"
           style="font-style:normal;font-variant:normal;font-weight:normal;font-stretch:normal;font-size:113.33333588px;font-family:'Comic Sans MS';-inkscape-font-specification:'Comic Sans MS';fill:#ffffff"
           d="m 185.81055,390.98293 q -4.09505,0 -12.61719,-0.66406 -8.30078,-0.60873 -12.61719,-0.55339 h -3.92903 q 0.16601,7.63672 1.49414,24.79167 1.21745,15.99284 1.21745,24.847 0,1.93685 0.38736,5.86589 0.38737,3.92904 0.38737,5.92122 0,3.76302 -1.21744,6.47461 -1.54948,3.65235 -4.81446,3.65235 -2.21354,0 -3.98437,-1.54948 -1.77083,-1.54948 -1.77083,-3.98438 0,-0.83008 0.27669,-2.49023 0.27669,-1.66016 0.27669,-2.49024 0,-2.71158 -0.38737,-8.13476 -0.33203,-5.42318 -0.33203,-8.19011 0,-7.91341 -1.27279,-22.24609 -1.32812,-15.49479 -1.49414,-22.24609 l -5.03581,0.0553 q -12.11914,0 -19.03645,-1.77083 -4.48243,-1.16211 -4.48243,-5.47852 0,-2.26888 1.43881,-3.98437 1.66015,-1.93685 4.26106,-1.77083 1.93685,0.11067 8.85417,0.99609 5.53386,0.66406 8.96484,0.66406 3.32032,0 10.07162,-0.11067 6.7513,-0.16602 10.07161,-0.16602 4.26107,0 12.61719,0.60872 8.41146,0.60873 12.67253,0.60873 2.37956,0 3.98437,1.66015 1.60482,1.60482 1.60482,4.03972 0,2.37956 -1.60482,4.03971 -1.60481,1.60482 -3.98437,1.60482 z" />
        <path
           inkscape:connector-curvature="0"
           id="path891"
           style="font-style:normal;font-variant:normal;font-weight:normal;font-stretch:normal;font-size:113.33333588px;font-family:'Comic Sans MS';-inkscape-font-specification:'Comic Sans MS';fill:#ffffff"
           d="m 262.8418,390.98293 q -4.09505,0 -12.61719,-0.66406 -8.30078,-0.60873 -12.61719,-0.55339 h -3.92903 q 0.16601,7.63672 1.49414,24.79167 1.21745,15.99284 1.21745,24.847 0,1.93685 0.38736,5.86589 0.38737,3.92904 0.38737,5.92122 0,3.76302 -1.21744,6.47461 -1.54948,3.65235 -4.81446,3.65235 -2.21354,0 -3.98437,-1.54948 -1.77083,-1.54948 -1.77083,-3.98438 0,-0.83008 0.27669,-2.49023 0.27669,-1.66016 0.27669,-2.49024 0,-2.71158 -0.38737,-8.13476 -0.33203,-5.42318 -0.33203,-8.19011 0,-7.91341 -1.27279,-22.24609 -1.32812,-15.49479 -1.49414,-22.24609 l -5.03581,0.0553 q -12.11914,0 -19.03645,-1.77083 -4.48243,-1.16211 -4.48243,-5.47852 0,-2.26888 1.43881,-3.98437 1.66015,-1.93685 4.26106,-1.77083 1.93685,0.11067 8.85417,0.99609 5.53386,0.66406 8.96484,0.66406 3.32032,0 10.07162,-0.11067 6.7513,-0.16602 10.07161,-0.16602 4.26107,0 12.61719,0.60872 8.41146,0.60873 12.67253,0.60873 2.37956,0 3.98437,1.66015 1.60482,1.60482 1.60482,4.03972 0,2.37956 -1.60482,4.03971 -1.60481,1.60482 -3.98437,1.60482 z" />
        <path
           inkscape:connector-curvature="0"
           id="path893"
           style="font-style:normal;font-variant:normal;font-weight:normal;font-stretch:normal;font-size:113.33333588px;font-family:'Comic Sans MS';-inkscape-font-specification:'Comic Sans MS';fill:#ffffff"
           d="m 325.70638,388.16066 q -0.99609,0 -2.10286,-0.4427 -6.86198,-2.54558 -18.15105,-2.54558 -3.65234,0 -8.57747,0.55339 -4.86979,0.49804 -10.95703,1.60482 l -0.11068,23.90625 q 10.68034,-2.82227 16.04818,-2.82227 8.52214,0 17.65299,0.99609 5.20183,0.55339 5.20183,5.64454 0,2.49023 -1.60482,4.15039 -1.60482,1.60481 -3.98438,1.60481 -2.8776,0 -8.63281,-0.49804 -5.75521,-0.49805 -8.63281,-0.49805 -3.76302,0 -16.26953,3.20964 l -0.49805,38.07291 q 0,2.37956 -1.54948,3.98438 -1.54948,1.66015 -3.92903,1.66015 -2.37956,0 -3.98438,-1.66015 -1.54948,-1.60482 -1.54948,-3.98438 0,-10.90169 0.38737,-32.70508 0.44271,-21.85872 0.44271,-32.76041 0,-2.4349 -0.11068,-7.30469 -0.0553,-4.92513 -0.0553,-7.36003 0,-2.43489 1.49414,-4.09505 1.54948,-1.66016 3.98438,-1.66016 1.82617,0 3.26497,0.9961 6.86198,-1.21745 12.3405,-1.77083 5.47851,-0.60873 9.6289,-0.60873 6.36394,0 14.55404,1.82617 11.12305,2.54558 11.12305,6.64063 0,2.21354 -1.4388,3.92903 -1.60482,1.93685 -3.98438,1.93685 z" />
      </g>
    </g>
  </g>
</svg>
