<?xml version="1.0" encoding="UTF-8" standalone="no"?>
<!-- Created with Inkscape (http://www.inkscape.org/) -->

<svg
   xmlns:dc="http://purl.org/dc/elements/1.1/"
   xmlns:cc="http://creativecommons.org/ns#"
   xmlns:rdf="http://www.w3.org/1999/02/22-rdf-syntax-ns#"
   xmlns:svg="http://www.w3.org/2000/svg"
   xmlns="http://www.w3.org/2000/svg"
   xmlns:sodipodi="http://sodipodi.sourceforge.net/DTD/sodipodi-0.dtd"
   xmlns:inkscape="http://www.inkscape.org/namespaces/inkscape"
   width="512"
   height="512"
   id="svg2"
   version="1.1"
   inkscape:version="0.92.2 5c3e80d, 2017-08-06"
   sodipodi:docname="application-x-arc.svg">
  <defs
     id="defs4" />
  <sodipodi:namedview
     id="base"
     pagecolor="#ffffff"
     bordercolor="#666666"
     borderopacity="1.0"
     inkscape:pageopacity="0.0"
     inkscape:pageshadow="2"
     inkscape:zoom="0.4289781"
     inkscape:cx="790.90933"
     inkscape:cy="359.18123"
     inkscape:document-units="px"
     inkscape:current-layer="layer1"
     showgrid="false"
     inkscape:window-width="1366"
     inkscape:window-height="717"
     inkscape:window-x="0"
     inkscape:window-y="24"
     inkscape:window-maximized="1" />
  <metadata
     id="metadata7">
    <rdf:RDF>
      <cc:Work
         rdf:about="">
        <dc:format>image/svg+xml</dc:format>
        <dc:type
           rdf:resource="http://purl.org/dc/dcmitype/StillImage" />
        <dc:title></dc:title>
      </cc:Work>
    </rdf:RDF>
  </metadata>
  <g
     inkscape:label="Layer 1"
     inkscape:groupmode="layer"
     id="layer1"
     transform="translate(0,-540.36218)">
    <g
       id="g886">
      <path
         id="path955"
         d="m 432.91324,596.83612 c 102.19291,88.57459 105.82677,249.69971 8.1168,359.89879 C 343.32009,1066.934 181.27965,1084.4628 79.086741,995.8882 -23.106205,907.31358 -26.740032,746.18846 70.969941,635.98938 168.67991,525.7903 330.72036,508.26153 432.91324,596.83612 Z"
         inkscape:connector-curvature="0"
         style="fill:#8a715e;fill-opacity:1;stroke-width:11.10955811" />
      <path
         sodipodi:nodetypes="csscc"
         inkscape:connector-curvature="0"
         id="path957"
         d="M 8.3652338,882.36216 C 19.949333,925.51389 43.551551,965.0885 79.085936,995.8876 c 102.192904,88.5746 264.233404,71.0467 361.943354,-39.15239 20.35101,-22.95224 36.28958,-48.11807 47.87304,-74.37305 z"
         style="fill:#715344;fill-opacity:1;stroke:none;stroke-width:0.99999994px;stroke-linecap:butt;stroke-linejoin:miter;stroke-opacity:1" />
      <path
         id="path959"
         d="M 511.63547,765.26567 C 510.08409,826.57731 486.47425,889.42027 440.6691,941.08014 342.95915,1051.2793 180.9187,1068.808 78.725758,980.23344 30.827124,938.71779 4.4968188,881.28499 0.19382686,820.59096 0.79907986,886.94763 27.117405,950.84433 79.078691,995.8813 181.2716,1084.4558 343.31975,1066.9184 441.02199,956.72792 490.72694,900.66981 514.02701,831.43695 511.63547,765.26567 Z"
         inkscape:connector-curvature="0"
         style="opacity:0.1;stroke-width:11.10955811" />
      <path
         style="fill:#7c6655;fill-opacity:1;stroke-width:1.44776499"
         d="m 249.15546,880.27951 c -7.93094,-3.44714 -8.46873,-6.59703 -5.47531,-32.06994 2.30142,-19.58427 3.10794,-23.07173 6.17996,-26.72262 3.40702,-4.04901 3.98889,-4.19885 16.30559,-4.19885 12.3167,0 12.89858,0.14984 16.3056,4.19885 3.07202,3.65089 3.87853,7.13835 6.17996,26.72262 3.01578,25.66328 2.47224,28.67809 -5.79301,32.13153 -6.51909,2.72386 -27.38194,2.68573 -33.70279,-0.0615 z m 24.45062,-31.01267 c 2.71022,-2.19461 3.41786,-4.16943 3.41786,-9.53839 0,-7.79707 -3.97847,-12.306 -10.85824,-12.306 -6.87976,0 -10.85824,4.50893 -10.85824,12.306 0,7.79707 3.97848,12.30601 10.85824,12.30601 2.21239,0 5.56055,-1.24542 7.44038,-2.76762 z m -23.86529,-43.31292 c -3.2217,-3.55995 -3.02117,-8.30939 0.4995,-11.83006 2.46655,-2.46656 4.82588,-2.89553 15.92541,-2.89553 11.09955,0 13.45886,0.42897 15.92542,2.89553 3.61335,3.61334 3.7226,8.9371 0.24794,12.08161 -4.04188,3.65784 -29.23627,3.46342 -32.59827,-0.25155 z m 13.52938,-23.41218 v -5.79106 h -7.96271 -7.9627 v -5.06718 -5.06717 h 7.9627 7.96271 v -5.06718 -5.06718 h -7.96271 -7.9627 v -5.06718 -5.06718 h 7.9627 7.96271 v -5.79106 -5.79106 h -7.96271 -7.9627 v -5.06717 -5.06717 h 7.9627 7.96271 v -5.06719 -5.06717 h -7.96271 -7.9627 v -5.79107 -5.79105 h 7.9627 7.96271 v -5.06718 -5.06718 h -7.96271 -7.9627 v -5.79106 -5.79106 h 7.9627 7.96271 v -5.06717 -5.06719 h -7.96271 -7.9627 v -5.06718 -5.06716 h 7.9627 7.96271 v -5.79107 -5.79106 h -7.96271 -7.9627 v -5.06718 -5.06717 h 7.9627 7.96271 v -5.06718 -5.06718 h -7.96271 -7.9627 v -10.85823 -10.85824 h 18.82094 18.82095 v 5.06717 5.06718 h -7.96271 -7.9627 v 5.79106 5.79106 h 7.9627 7.96271 v 5.06718 5.06718 h -7.96271 -7.9627 v 5.06717 5.06718 h 7.9627 7.96271 v 5.79106 5.79107 h -7.96271 -7.9627 v 5.06716 5.06718 h 7.9627 7.96271 v 5.79107 5.79106 h -7.96271 -7.9627 v 5.06717 5.06718 h 7.9627 7.96271 v 5.06718 5.06718 h -7.96271 -7.9627 v 5.79105 5.79107 h 7.9627 7.96271 v 5.06717 5.06719 h -7.96271 -7.9627 v 5.06717 5.06717 h 7.9627 7.96271 v 5.06719 5.06717 h -7.96271 -7.9627 v 5.79106 5.79106 h 7.9627 7.96271 v 5.06718 5.06718 h -7.96271 -7.9627 v 5.06717 5.06718 h 7.9627 7.96271 v 5.79106 5.79105 h -10.85824 -10.85824 z"
         id="path843"
         inkscape:connector-curvature="0" />
      <path
         inkscape:connector-curvature="0"
         id="path924"
         d="m 239.15546,870.27951 c -7.93094,-3.44714 -8.46873,-6.59703 -5.47531,-32.06994 2.30142,-19.58427 3.10794,-23.07173 6.17996,-26.72262 3.40702,-4.04901 3.98889,-4.19885 16.30559,-4.19885 12.3167,0 12.89858,0.14984 16.3056,4.19885 3.07202,3.65089 3.87853,7.13835 6.17996,26.72262 3.01578,25.66328 2.47224,28.67809 -5.79301,32.13153 -6.51909,2.72386 -27.38194,2.68573 -33.70279,-0.0615 z m 24.45062,-31.01267 c 2.71022,-2.19461 3.41786,-4.16943 3.41786,-9.53839 0,-7.79707 -3.97847,-12.306 -10.85824,-12.306 -6.87976,0 -10.85824,4.50893 -10.85824,12.306 0,7.79707 3.97848,12.30601 10.85824,12.30601 2.21239,0 5.56055,-1.24542 7.44038,-2.76762 z m -23.86529,-43.31292 c -3.2217,-3.55995 -3.02117,-8.30939 0.4995,-11.83006 2.46655,-2.46656 4.82588,-2.89553 15.92541,-2.89553 11.09955,0 13.45886,0.42897 15.92542,2.89553 3.61335,3.61334 3.7226,8.9371 0.24794,12.08161 -4.04188,3.65784 -29.23627,3.46342 -32.59827,-0.25155 z m 13.52938,-23.41218 v -5.79106 h -7.96271 -7.9627 v -5.06718 -5.06717 h 7.9627 7.96271 v -5.06718 -5.06718 h -7.96271 -7.9627 v -5.06718 -5.06718 h 7.9627 7.96271 v -5.79106 -5.79106 h -7.96271 -7.9627 v -5.06717 -5.06717 h 7.9627 7.96271 v -5.06719 -5.06717 h -7.96271 -7.9627 v -5.79107 -5.79105 h 7.9627 7.96271 v -5.06718 -5.06718 h -7.96271 -7.9627 v -5.79106 -5.79106 h 7.9627 7.96271 v -5.06717 -5.06719 h -7.96271 -7.9627 v -5.06718 -5.06716 h 7.9627 7.96271 v -5.79107 -5.79106 h -7.96271 -7.9627 v -5.06718 -5.06717 h 7.9627 7.96271 v -5.06718 -5.06718 h -7.96271 -7.9627 v -10.85823 -10.85824 h 18.82094 18.82095 v 5.06717 5.06718 h -7.96271 -7.9627 v 5.79106 5.79106 h 7.9627 7.96271 v 5.06718 5.06718 h -7.96271 -7.9627 v 5.06717 5.06718 h 7.9627 7.96271 v 5.79106 5.79107 h -7.96271 -7.9627 v 5.06716 5.06718 h 7.9627 7.96271 v 5.79107 5.79106 h -7.96271 -7.9627 v 5.06717 5.06718 h 7.9627 7.96271 v 5.06718 5.06718 h -7.96271 -7.9627 v 5.79105 5.79107 h 7.9627 7.96271 v 5.06717 5.06719 h -7.96271 -7.9627 v 5.06717 5.06717 h 7.9627 7.96271 v 5.06719 5.06717 h -7.96271 -7.9627 v 5.79106 5.79106 h 7.9627 7.96271 v 5.06718 5.06718 h -7.96271 -7.9627 v 5.06717 5.06718 h 7.9627 7.96271 v 5.79106 5.79105 h -10.85824 -10.85824 z"
         style="fill:#ffffff;stroke-width:1.44776499" />
      <g
         aria-label="ARC"
         transform="translate(53.17839,545.8799)"
         style="font-style:normal;font-weight:normal;font-size:40px;line-height:1.25;font-family:sans-serif;letter-spacing:0px;word-spacing:0px;fill:#664b3d;fill-opacity:1;stroke:none"
         id="g871">
        <path
           d="m 168.24544,451.20559 q -5.09114,0 -8.85416,-13.0599 -1.4388,-4.98047 -3.59701,-17.43164 -5.64453,0.77474 -14.77539,2.76693 l -14.72005,3.04362 q -2.76693,7.24935 -9.46289,21.19466 -1.77084,3.09896 -4.81446,3.09896 -2.21354,0 -3.98437,-1.60482 -1.7155,-1.60482 -1.7155,-3.98438 0,-2.65625 8.35612,-20.19856 -0.94075,-1.43881 -0.94075,-3.32032 0,-4.48242 5.42318,-5.7552 6.30859,-11.84245 15.9375,-27.22657 13.11523,-20.97331 16.32487,-20.97331 4.37174,0 5.97656,6.08724 l 3.48633,18.59375 8.24544,38.46029 3.1543,8.74349 q 1.60482,4.48242 1.60482,5.97656 0,2.37956 -1.7155,3.98438 -1.71549,1.60482 -3.92904,1.60482 z m -19.5345,-63.25196 -15.82682,25.51107 q 6.69596,-1.71549 20.30924,-4.15039 z"
           style="font-style:normal;font-variant:normal;font-weight:normal;font-stretch:normal;font-size:113.33333588px;font-family:'Comic Sans MS';-inkscape-font-specification:'Comic Sans MS';fill:#664b3d;fill-opacity:1"
           id="path865"
           inkscape:connector-curvature="0" />
        <path
           d="m 244.39128,450.15415 q -2.10287,0 -3.92904,-1.77083 -18.31706,-18.0957 -40.72917,-24.34896 l 0.44271,10.84636 0.27669,10.90169 q 0,2.4349 -1.60481,4.03971 -1.54948,1.66016 -3.92904,1.66016 -2.37956,0 -3.98438,-1.66016 -1.54947,-1.60481 -1.54947,-4.03971 0,-4.37174 -0.44271,-13.00456 -0.38737,-8.68815 -0.38737,-13.05989 0,-5.09115 1.10677,-15.16276 1.10677,-10.07162 1.10677,-15.10743 0,-2.82226 -0.55339,-8.35612 -0.49804,-5.53385 -0.49804,-8.35612 0,-3.15429 1.77083,-5.53385 2.10287,-2.93294 5.81055,-2.65625 l 13.33659,1.05143 q 7.58138,0.94076 12.7832,3.70768 22.41211,11.89779 22.41211,29.05274 0,8.41146 -7.63672,14.88607 -6.14258,5.20182 -15.32878,7.91341 17.21029,9.24154 25.73243,19.47917 1.4388,1.77083 1.4388,3.76302 0,2.32422 -1.7155,4.03971 -1.66015,1.71549 -3.92903,1.71549 z m -35.25065,-73.15755 -8.19011,-0.66406 0.55339,6.69596 q 0.38737,4.09505 0.38737,6.69597 0,4.42708 -0.7194,11.01237 l -1.16211,11.01237 q 0.77474,0 2.37955,0.0553 1.66016,0.0553 2.49024,0.0553 14.11133,0 21.13932,-3.76302 3.09896,-1.71549 5.75521,-4.48242 2.93294,-3.09896 2.93294,-5.25716 0,-7.69206 -8.74349,-14.33268 -8.02409,-6.08724 -16.82291,-7.028 z"
           style="font-style:normal;font-variant:normal;font-weight:normal;font-stretch:normal;font-size:113.33333588px;font-family:'Comic Sans MS';-inkscape-font-specification:'Comic Sans MS';fill:#664b3d;fill-opacity:1"
           id="path867"
           inkscape:connector-curvature="0" />
        <path
           d="m 314.44988,387.45559 q -3.54167,0 -5.3125,-4.15039 -1.54948,-3.54167 -2.87761,-4.31641 -1.16211,-0.60873 -5.75521,-0.60873 -8.02409,0 -17.81901,12.28516 -13.28125,16.49089 -13.28125,31.26628 0,7.13867 4.5931,12.28515 4.70378,5.3125 11.3444,5.3125 5.69987,0 11.45508,-2.93294 3.20964,-1.66015 9.85026,-6.52995 3.1543,-2.32421 4.75912,-2.32421 2.37955,0 3.98437,1.82617 1.60482,1.77083 1.60482,3.98437 0,2.49024 -2.10287,4.37175 -14.60937,12.94922 -29.55078,12.94922 -11.45508,0 -19.36849,-8.79883 -7.63672,-8.52214 -7.63672,-20.14323 0,-18.75977 15.71615,-38.46029 13.11523,-16.43555 26.45182,-16.43555 2.71159,0 4.8698,0.2767 2.1582,0.22135 3.81835,0.77474 1.93685,-2.82227 5.03581,-2.82227 3.81836,0 4.81446,5.03581 0.88541,4.48242 0.88541,11.01237 0,2.26888 -1.21745,3.98437 -1.49414,2.15821 -4.26106,2.15821 z"
           style="font-style:normal;font-variant:normal;font-weight:normal;font-stretch:normal;font-size:113.33333588px;font-family:'Comic Sans MS';-inkscape-font-specification:'Comic Sans MS';fill:#664b3d;fill-opacity:1"
           id="path869"
           inkscape:connector-curvature="0" />
      </g>
      <g
         id="flowRoot850"
         style="font-style:normal;font-weight:normal;font-size:40px;line-height:1.25;font-family:sans-serif;letter-spacing:0px;word-spacing:0px;fill:#000000;fill-opacity:1;stroke:none"
         transform="translate(43.17839,535.8799)"
         aria-label="ARC">
        <path
           inkscape:connector-curvature="0"
           id="path858"
           style="font-style:normal;font-variant:normal;font-weight:normal;font-stretch:normal;font-size:113.33333588px;font-family:'Comic Sans MS';-inkscape-font-specification:'Comic Sans MS';fill:#ffffff"
           d="m 168.24544,451.20559 q -5.09114,0 -8.85416,-13.0599 -1.4388,-4.98047 -3.59701,-17.43164 -5.64453,0.77474 -14.77539,2.76693 l -14.72005,3.04362 q -2.76693,7.24935 -9.46289,21.19466 -1.77084,3.09896 -4.81446,3.09896 -2.21354,0 -3.98437,-1.60482 -1.7155,-1.60482 -1.7155,-3.98438 0,-2.65625 8.35612,-20.19856 -0.94075,-1.43881 -0.94075,-3.32032 0,-4.48242 5.42318,-5.7552 6.30859,-11.84245 15.9375,-27.22657 13.11523,-20.97331 16.32487,-20.97331 4.37174,0 5.97656,6.08724 l 3.48633,18.59375 8.24544,38.46029 3.1543,8.74349 q 1.60482,4.48242 1.60482,5.97656 0,2.37956 -1.7155,3.98438 -1.71549,1.60482 -3.92904,1.60482 z m -19.5345,-63.25196 -15.82682,25.51107 q 6.69596,-1.71549 20.30924,-4.15039 z" />
        <path
           inkscape:connector-curvature="0"
           id="path860"
           style="font-style:normal;font-variant:normal;font-weight:normal;font-stretch:normal;font-size:113.33333588px;font-family:'Comic Sans MS';-inkscape-font-specification:'Comic Sans MS';fill:#ffffff"
           d="m 244.39128,450.15415 q -2.10287,0 -3.92904,-1.77083 -18.31706,-18.0957 -40.72917,-24.34896 l 0.44271,10.84636 0.27669,10.90169 q 0,2.4349 -1.60481,4.03971 -1.54948,1.66016 -3.92904,1.66016 -2.37956,0 -3.98438,-1.66016 -1.54947,-1.60481 -1.54947,-4.03971 0,-4.37174 -0.44271,-13.00456 -0.38737,-8.68815 -0.38737,-13.05989 0,-5.09115 1.10677,-15.16276 1.10677,-10.07162 1.10677,-15.10743 0,-2.82226 -0.55339,-8.35612 -0.49804,-5.53385 -0.49804,-8.35612 0,-3.15429 1.77083,-5.53385 2.10287,-2.93294 5.81055,-2.65625 l 13.33659,1.05143 q 7.58138,0.94076 12.7832,3.70768 22.41211,11.89779 22.41211,29.05274 0,8.41146 -7.63672,14.88607 -6.14258,5.20182 -15.32878,7.91341 17.21029,9.24154 25.73243,19.47917 1.4388,1.77083 1.4388,3.76302 0,2.32422 -1.7155,4.03971 -1.66015,1.71549 -3.92903,1.71549 z m -35.25065,-73.15755 -8.19011,-0.66406 0.55339,6.69596 q 0.38737,4.09505 0.38737,6.69597 0,4.42708 -0.7194,11.01237 l -1.16211,11.01237 q 0.77474,0 2.37955,0.0553 1.66016,0.0553 2.49024,0.0553 14.11133,0 21.13932,-3.76302 3.09896,-1.71549 5.75521,-4.48242 2.93294,-3.09896 2.93294,-5.25716 0,-7.69206 -8.74349,-14.33268 -8.02409,-6.08724 -16.82291,-7.028 z" />
        <path
           inkscape:connector-curvature="0"
           id="path862"
           style="font-style:normal;font-variant:normal;font-weight:normal;font-stretch:normal;font-size:113.33333588px;font-family:'Comic Sans MS';-inkscape-font-specification:'Comic Sans MS';fill:#ffffff"
           d="m 314.44988,387.45559 q -3.54167,0 -5.3125,-4.15039 -1.54948,-3.54167 -2.87761,-4.31641 -1.16211,-0.60873 -5.75521,-0.60873 -8.02409,0 -17.81901,12.28516 -13.28125,16.49089 -13.28125,31.26628 0,7.13867 4.5931,12.28515 4.70378,5.3125 11.3444,5.3125 5.69987,0 11.45508,-2.93294 3.20964,-1.66015 9.85026,-6.52995 3.1543,-2.32421 4.75912,-2.32421 2.37955,0 3.98437,1.82617 1.60482,1.77083 1.60482,3.98437 0,2.49024 -2.10287,4.37175 -14.60937,12.94922 -29.55078,12.94922 -11.45508,0 -19.36849,-8.79883 -7.63672,-8.52214 -7.63672,-20.14323 0,-18.75977 15.71615,-38.46029 13.11523,-16.43555 26.45182,-16.43555 2.71159,0 4.8698,0.2767 2.1582,0.22135 3.81835,0.77474 1.93685,-2.82227 5.03581,-2.82227 3.81836,0 4.81446,5.03581 0.88541,4.48242 0.88541,11.01237 0,2.26888 -1.21745,3.98437 -1.49414,2.15821 -4.26106,2.15821 z" />
      </g>
    </g>
  </g>
</svg>
