<?xml version="1.0" encoding="UTF-8" standalone="no"?>
<!-- Created with Inkscape (http://www.inkscape.org/) -->

<svg
   xmlns:dc="http://purl.org/dc/elements/1.1/"
   xmlns:cc="http://creativecommons.org/ns#"
   xmlns:rdf="http://www.w3.org/1999/02/22-rdf-syntax-ns#"
   xmlns:svg="http://www.w3.org/2000/svg"
   xmlns="http://www.w3.org/2000/svg"
   xmlns:sodipodi="http://sodipodi.sourceforge.net/DTD/sodipodi-0.dtd"
   xmlns:inkscape="http://www.inkscape.org/namespaces/inkscape"
   width="512"
   height="512"
   id="svg2"
   version="1.1"
   inkscape:version="0.92.2 5c3e80d, 2017-08-06"
   sodipodi:docname="application-x-gzip-compressed-tar.svg">
  <defs
     id="defs4" />
  <sodipodi:namedview
     id="base"
     pagecolor="#ffffff"
     bordercolor="#666666"
     borderopacity="1.0"
     inkscape:pageopacity="0.0"
     inkscape:pageshadow="2"
     inkscape:zoom="0.30333332"
     inkscape:cx="-173.32176"
     inkscape:cy="-26.685493"
     inkscape:document-units="px"
     inkscape:current-layer="layer1"
     showgrid="false"
     inkscape:window-width="1366"
     inkscape:window-height="717"
     inkscape:window-x="0"
     inkscape:window-y="24"
     inkscape:window-maximized="1" />
  <metadata
     id="metadata7">
    <rdf:RDF>
      <cc:Work
         rdf:about="">
        <dc:format>image/svg+xml</dc:format>
        <dc:type
           rdf:resource="http://purl.org/dc/dcmitype/StillImage" />
        <dc:title />
      </cc:Work>
    </rdf:RDF>
  </metadata>
  <g
     inkscape:label="Layer 1"
     inkscape:groupmode="layer"
     id="layer1"
     transform="translate(0,-540.36218)">
    <g
       id="g871">
      <path
         id="path955"
         d="m 432.91324,596.83612 c 102.19291,88.57459 105.82677,249.69971 8.1168,359.89879 C 343.32009,1066.934 181.27965,1084.4628 79.086741,995.8882 -23.106205,907.31358 -26.740032,746.18846 70.969941,635.98938 168.67991,525.7903 330.72036,508.26153 432.91324,596.83612 Z"
         inkscape:connector-curvature="0"
         style="fill:#8a715e;fill-opacity:1;stroke-width:11.10955811" />
      <path
         sodipodi:nodetypes="csscc"
         inkscape:connector-curvature="0"
         id="path957"
         d="M 8.3652338,882.36216 C 19.949333,925.51389 43.551551,965.0885 79.085936,995.8876 c 102.192904,88.5746 264.233404,71.0467 361.943354,-39.15239 20.35101,-22.95224 36.28958,-48.11807 47.87304,-74.37305 z"
         style="fill:#715344;fill-opacity:1;stroke:none;stroke-width:0.99999994px;stroke-linecap:butt;stroke-linejoin:miter;stroke-opacity:1" />
      <path
         id="path959"
         d="M 511.63547,765.26567 C 510.08409,826.57731 486.47425,889.42027 440.6691,941.08014 342.95915,1051.2793 180.9187,1068.808 78.725758,980.23344 30.827124,938.71779 4.4968188,881.28499 0.19382686,820.59096 0.79907986,886.94763 27.117405,950.84433 79.078691,995.8813 181.2716,1084.4558 343.31975,1066.9184 441.02199,956.72792 490.72694,900.66981 514.02701,831.43695 511.63547,765.26567 Z"
         inkscape:connector-curvature="0"
         style="opacity:1;stroke-width:11.10955811;fill:#000000;fill-opacity:0.49019608" />
      <path
         style="fill:#000000;fill-opacity:0.49019608;stroke-width:1.44776499"
         d="m 259.15546,890.27951 c -7.93094,-3.44714 -8.46873,-6.59703 -5.47531,-32.06994 2.30142,-19.58427 3.10794,-23.07173 6.17996,-26.72262 3.40702,-4.04901 3.98889,-4.19885 16.30559,-4.19885 12.3167,0 12.89858,0.14984 16.3056,4.19885 3.07202,3.65089 3.87853,7.13835 6.17996,26.72262 3.01578,25.66328 2.47224,28.67809 -5.79301,32.13153 -6.51909,2.72386 -27.38194,2.68573 -33.70279,-0.0615 z m 24.45062,-31.01267 c 2.71022,-2.19461 3.41786,-4.16943 3.41786,-9.53839 0,-7.79707 -3.97847,-12.306 -10.85824,-12.306 -6.87976,0 -10.85824,4.50893 -10.85824,12.306 0,7.79707 3.97848,12.30601 10.85824,12.30601 2.21239,0 5.56055,-1.24542 7.44038,-2.76762 z m -23.86529,-43.31292 c -3.2217,-3.55995 -3.02117,-8.30939 0.4995,-11.83006 2.46655,-2.46656 4.82588,-2.89553 15.92541,-2.89553 11.09955,0 13.45886,0.42897 15.92542,2.89553 3.61335,3.61334 3.7226,8.9371 0.24794,12.08161 -4.04188,3.65784 -29.23627,3.46342 -32.59827,-0.25155 z m 13.52938,-23.41218 v -5.79106 h -7.96271 -7.9627 v -5.06718 -5.06717 h 7.9627 7.96271 v -5.06718 -5.06718 h -7.96271 -7.9627 v -5.06718 -5.06718 h 7.9627 7.96271 v -5.79106 -5.79106 h -7.96271 -7.9627 v -5.06717 -5.06717 h 7.9627 7.96271 v -5.06719 -5.06717 h -7.96271 -7.9627 v -5.79107 -5.79105 h 7.9627 7.96271 v -5.06718 -5.06718 h -7.96271 -7.9627 v -5.79106 -5.79106 h 7.9627 7.96271 v -5.06717 -5.06719 h -7.96271 -7.9627 v -5.06718 -5.06716 h 7.9627 7.96271 v -5.79107 -5.79106 h -7.96271 -7.9627 v -5.06718 -5.06717 h 7.9627 7.96271 v -5.06718 -5.06718 h -7.96271 -7.9627 v -10.85823 -10.85824 h 18.82094 18.82095 v 5.06717 5.06718 h -7.96271 -7.9627 v 5.79106 5.79106 h 7.9627 7.96271 v 5.06718 5.06718 h -7.96271 -7.9627 v 5.06717 5.06718 h 7.9627 7.96271 v 5.79106 5.79107 h -7.96271 -7.9627 v 5.06716 5.06718 h 7.9627 7.96271 v 5.79107 5.79106 h -7.96271 -7.9627 v 5.06717 5.06718 h 7.9627 7.96271 v 5.06718 5.06718 h -7.96271 -7.9627 v 5.79105 5.79107 h 7.9627 7.96271 v 5.06717 5.06719 h -7.96271 -7.9627 v 5.06717 5.06717 h 7.9627 7.96271 v 5.06719 5.06717 h -7.96271 -7.9627 v 5.79106 5.79106 h 7.9627 7.96271 v 5.06718 5.06718 h -7.96271 -7.9627 v 5.06717 5.06718 h 7.9627 7.96271 v 5.79106 5.79105 h -10.85824 -10.85824 z"
         id="path843"
         inkscape:connector-curvature="0" />
      <path
         inkscape:connector-curvature="0"
         id="path924"
         d="m 239.15546,870.27951 c -7.93094,-3.44714 -8.46873,-6.59703 -5.47531,-32.06994 2.30142,-19.58427 3.10794,-23.07173 6.17996,-26.72262 3.40702,-4.04901 3.98889,-4.19885 16.30559,-4.19885 12.3167,0 12.89858,0.14984 16.3056,4.19885 3.07202,3.65089 3.87853,7.13835 6.17996,26.72262 3.01578,25.66328 2.47224,28.67809 -5.79301,32.13153 -6.51909,2.72386 -27.38194,2.68573 -33.70279,-0.0615 z m 24.45062,-31.01267 c 2.71022,-2.19461 3.41786,-4.16943 3.41786,-9.53839 0,-7.79707 -3.97847,-12.306 -10.85824,-12.306 -6.87976,0 -10.85824,4.50893 -10.85824,12.306 0,7.79707 3.97848,12.30601 10.85824,12.30601 2.21239,0 5.56055,-1.24542 7.44038,-2.76762 z m -23.86529,-43.31292 c -3.2217,-3.55995 -3.02117,-8.30939 0.4995,-11.83006 2.46655,-2.46656 4.82588,-2.89553 15.92541,-2.89553 11.09955,0 13.45886,0.42897 15.92542,2.89553 3.61335,3.61334 3.7226,8.9371 0.24794,12.08161 -4.04188,3.65784 -29.23627,3.46342 -32.59827,-0.25155 z m 13.52938,-23.41218 v -5.79106 h -7.96271 -7.9627 v -5.06718 -5.06717 h 7.9627 7.96271 v -5.06718 -5.06718 h -7.96271 -7.9627 v -5.06718 -5.06718 h 7.9627 7.96271 v -5.79106 -5.79106 h -7.96271 -7.9627 v -5.06717 -5.06717 h 7.9627 7.96271 v -5.06719 -5.06717 h -7.96271 -7.9627 v -5.79107 -5.79105 h 7.9627 7.96271 v -5.06718 -5.06718 h -7.96271 -7.9627 v -5.79106 -5.79106 h 7.9627 7.96271 v -5.06717 -5.06719 h -7.96271 -7.9627 v -5.06718 -5.06716 h 7.9627 7.96271 v -5.79107 -5.79106 h -7.96271 -7.9627 v -5.06718 -5.06717 h 7.9627 7.96271 v -5.06718 -5.06718 h -7.96271 -7.9627 v -10.85823 -10.85824 h 18.82094 18.82095 v 5.06717 5.06718 h -7.96271 -7.9627 v 5.79106 5.79106 h 7.9627 7.96271 v 5.06718 5.06718 h -7.96271 -7.9627 v 5.06717 5.06718 h 7.9627 7.96271 v 5.79106 5.79107 h -7.96271 -7.9627 v 5.06716 5.06718 h 7.9627 7.96271 v 5.79107 5.79106 h -7.96271 -7.9627 v 5.06717 5.06718 h 7.9627 7.96271 v 5.06718 5.06718 h -7.96271 -7.9627 v 5.79105 5.79107 h 7.9627 7.96271 v 5.06717 5.06719 h -7.96271 -7.9627 v 5.06717 5.06717 h 7.9627 7.96271 v 5.06719 5.06717 h -7.96271 -7.9627 v 5.79106 5.79106 h 7.9627 7.96271 v 5.06718 5.06718 h -7.96271 -7.9627 v 5.06717 5.06718 h 7.9627 7.96271 v 5.79106 5.79105 h -10.85824 -10.85824 z"
         style="fill:#ffffff;stroke-width:1.44776499" />
      <path
         id="path877"
         style="font-style:normal;font-variant:normal;font-weight:normal;font-stretch:normal;font-size:113.33333588px;line-height:1.25;font-family:'Comic Sans MS';-inkscape-font-specification:'Comic Sans MS';letter-spacing:0px;word-spacing:0px;fill:#000000;fill-opacity:0.49019608;stroke:none;stroke-width:0.85872805"
         d="m 142.41187,944.06453 q -3.51654,0 -10.83474,-0.57025 -7.12811,-0.52273 -10.83473,-0.4752 h -3.37398 q 0.14257,6.55786 1.28306,21.2893 1.04546,13.73349 1.04546,21.33681 0,1.66323 0.33265,5.03721 0.33264,3.37397 0.33264,5.08471 0,3.23142 -1.04546,5.55989 -1.33058,3.1364 -4.1343,3.1364 -1.90083,0 -3.42149,-1.3306 -1.52067,-1.3305 -1.52067,-3.42146 0,-0.71281 0.23761,-2.13843 0.2376,-1.42563 0.2376,-2.13844 0,-2.32852 -0.33265,-6.98555 -0.28512,-4.65703 -0.28512,-7.03307 0,-6.79547 -1.09298,-19.10335 -1.1405,-13.30581 -1.28306,-19.10335 l -4.32439,0.0475 q -10.407044,0 -16.347139,-1.52066 -3.849181,-0.99794 -3.849181,-4.70456 0,-1.94835 1.235539,-3.42149 1.425623,-1.66323 3.659099,-1.52067 1.663226,0.0951 7.603321,0.85538 4.752071,0.57025 7.698361,0.57025 2.85125,0 8.64878,-0.0951 5.79753,-0.14255 8.64878,-0.14255 3.6591,0 10.83473,0.52272 7.22316,0.52273 10.88226,0.52273 2.04338,0 3.42149,1.42562 1.3781,1.37811 1.3781,3.46901 0,2.0434 -1.3781,3.46903 -1.37811,1.3781 -3.42149,1.3781 z"
         inkscape:connector-curvature="0" />
      <path
         id="path879"
         style="font-style:normal;font-variant:normal;font-weight:normal;font-stretch:normal;font-size:113.33333588px;line-height:1.25;font-family:'Comic Sans MS';-inkscape-font-specification:'Comic Sans MS';letter-spacing:0px;word-spacing:0px;fill:#000000;fill-opacity:0.49019608;stroke:none;stroke-width:0.85872805"
         d="m 203.23843,1005.5089 q -4.37191,0 -7.60332,-11.21492 -1.23554,-4.27687 -3.08884,-14.96904 -4.84712,0.66528 -12.68805,2.37603 l -12.64052,2.61364 q -2.37604,6.22522 -8.12605,18.20049 -1.52066,2.6611 -4.13431,2.6611 -1.90083,0 -3.4215,-1.3781 -1.47313,-1.3781 -1.47313,-3.4215 0,-2.28097 7.17563,-17.34505 -0.80786,-1.23554 -0.80786,-2.85124 0,-3.84918 4.65704,-4.94216 5.41736,-10.16945 13.68598,-23.38021 11.26242,-18.01037 14.01862,-18.01037 3.75415,0 5.13224,5.22728 l 2.99381,15.96698 7.0806,33.02693 2.70868,7.50828 q 1.3781,3.84917 1.3781,5.13226 0,2.0434 -1.47314,3.4215 -1.47315,1.3781 -3.37398,1.3781 z m -16.77483,-54.31625 -13.59093,21.90707 q 5.75001,-1.47315 17.44011,-3.56406 z"
         inkscape:connector-curvature="0" />
      <path
         id="path881"
         style="font-style:normal;font-variant:normal;font-weight:normal;font-stretch:normal;font-size:113.33333588px;line-height:1.25;font-family:'Comic Sans MS';-inkscape-font-specification:'Comic Sans MS';letter-spacing:0px;word-spacing:0px;fill:#000000;fill-opacity:0.49019608;stroke:none;stroke-width:0.85872805"
         d="m 268.62699,1004.606 q -1.80578,0 -3.37397,-1.5207 -15.72937,-15.53928 -34.97528,-20.90912 l 0.38017,9.31407 0.2376,9.36155 q 0,2.0909 -1.3781,3.4691 -1.33058,1.4256 -3.37398,1.4256 -2.04338,0 -3.42149,-1.4256 -1.33058,-1.3782 -1.33058,-3.4691 0,-3.7541 -0.38017,-11.16734 -0.33264,-7.46076 -0.33264,-11.2149 0,-4.37191 0.95041,-13.02069 0.95042,-8.64877 0.95042,-12.97316 0,-2.42357 -0.47521,-7.17564 -0.42769,-4.75208 -0.42769,-7.17563 0,-2.70869 1.52067,-4.75208 1.80579,-2.5186 4.98968,-2.281 l 11.4525,0.9029 q 6.51034,0.80785 10.97729,3.18389 19.24591,10.21697 19.24591,24.94839 0,7.22316 -6.55786,12.78309 -5.2748,4.46695 -13.16325,6.79547 14.77896,7.93597 22.09715,16.72731 1.23554,1.52066 1.23554,3.23141 0,1.99588 -1.47314,3.46898 -1.42563,1.4732 -3.37398,1.4732 z m -30.27072,-62.82246 -7.03307,-0.57026 0.47521,5.75002 q 0.33264,3.51653 0.33264,5.75001 0,3.80166 -0.61777,9.45663 l -0.99793,9.45663 q 0.66529,0 2.04339,0.0475 1.42562,0.0475 2.13843,0.0475 12.1178,0 18.15294,-3.23141 2.66115,-1.47314 4.94215,-3.84918 2.5186,-2.66116 2.5186,-4.51448 0,-6.60537 -7.50828,-12.30787 -6.89051,-5.22728 -14.44631,-6.03513 z"
         inkscape:connector-curvature="0" />
      <path
         id="path883"
         style="font-style:normal;font-variant:normal;font-weight:normal;font-stretch:normal;font-size:113.33333588px;line-height:1.25;font-family:'Comic Sans MS';-inkscape-font-specification:'Comic Sans MS';letter-spacing:0px;word-spacing:0px;fill:#000000;fill-opacity:0.49019608;stroke:none;stroke-width:0.85872805"
         d="m 338.10235,975.33319 q -2.94629,14.58887 -12.40292,23.33269 -9.40912,8.69632 -22.23971,8.69632 -11.69011,0 -17.53517,-6.5104 -5.84505,-6.55782 -5.84505,-19.62603 0,-12.30789 5.79754,-25.32857 5.84505,-13.06821 14.96903,-21.09922 6.08266,-5.36985 12.87812,-5.36985 4.3244,0 11.40499,2.85125 8.64878,3.4215 8.64878,7.55581 0,1.94835 -1.42563,3.46901 -1.42561,1.52066 -3.42149,1.52066 -1.04546,0 -2.94629,-1.18802 -7.27067,-4.41943 -12.26036,-4.41943 -3.56405,0 -7.46075,3.70662 -1.94835,1.85331 -5.60745,6.74795 -10.9773,14.54135 -10.9773,31.55379 0,8.93389 2.75621,12.49795 2.9938,3.8967 11.02482,3.8967 8.50621,0 14.77894,-5.36984 6.60539,-5.70249 9.21903,-16.29962 -13.16324,0.66529 -22.57236,5.08472 -1.09297,0.52273 -2.13843,0.52273 -2.09091,0 -3.46901,-1.6157 -1.28307,-1.47315 -1.28307,-3.4215 0,-2.61364 2.51861,-4.18183 10.26448,-6.27274 35.40296,-6.27274 2.04339,0 3.4215,1.3781 1.37809,1.37811 1.37809,3.46902 0,3.08885 -2.61363,4.41943 z"
         inkscape:connector-curvature="0" />
      <path
         id="path885"
         transform="translate(0,540.36218)"
         d="M 354.44922 392.01172 C 352.0415 392.01172 350.31498 392.23421 349.26953 392.67773 C 347.55878 393.37471 346.70312 394.8008 346.70312 396.95508 C 346.70312 400.21816 348.3821 401.84961 351.74023 401.84961 C 352.05705 401.84961 352.54956 401.83245 353.21484 401.80078 C 353.91181 401.73745 354.43276 401.70703 354.78125 401.70703 L 373.98047 401.70703 L 390.61328 400.75586 C 384.53062 405.91978 377.95733 413.17574 370.89258 422.52148 L 353.73633 446.37695 L 348.65234 453.45703 C 346.68815 456.62508 345.70508 459.2548 345.70508 461.3457 C 345.70508 464.54544 347.52666 466.14453 351.16992 466.14453 C 355.98536 466.14453 363.20897 466.01714 372.83984 465.76367 C 377.3339 465.66054 381.18532 465.58837 384.63086 465.5332 C 388.98621 462.63551 393.28038 459.60256 397.50977 456.43945 C 396.62056 456.41688 395.67134 456.40234 394.65234 456.40234 C 390.37548 456.40234 384.19767 456.59249 376.11914 456.97266 L 357.63281 457.68555 C 358.39314 456.67177 359.16892 455.56323 359.96094 454.35938 L 376.64258 430.07617 C 383.92909 420.25522 390.45484 413.11148 396.2207 408.64453 L 402.63477 404.27344 C 406.3097 401.54891 408.14844 399.13974 408.14844 397.04883 C 408.14844 393.97582 404.07743 392.43945 395.93555 392.43945 C 393.46447 392.43945 389.78896 392.59921 384.91016 392.91602 C 380.06304 393.23282 376.41987 393.39062 373.98047 393.39062 C 371.79452 393.39062 368.53164 393.16814 364.19141 392.72461 C 359.88286 392.2494 356.63517 392.01172 354.44922 392.01172 z "
         style="font-style:normal;font-variant:normal;font-weight:normal;font-stretch:normal;font-size:113.33333588px;line-height:1.25;font-family:'Comic Sans MS';-inkscape-font-specification:'Comic Sans MS';letter-spacing:0px;word-spacing:0px;fill:#000000;fill-opacity:0.49019608;stroke:none;stroke-width:0.85872805" />
      <g
         id="flowRoot858"
         style="font-style:normal;font-weight:normal;font-size:40px;line-height:1.25;font-family:sans-serif;letter-spacing:0px;word-spacing:0px;fill:#ffffff;fill-opacity:1;stroke:none"
         transform="matrix(0.85872803,0,0,0.85872803,10.645918,603.05076)"
         aria-label="TARGZ">
        <path
           id="path866"
           style="font-style:normal;font-variant:normal;font-weight:normal;font-stretch:normal;font-size:113.33333588px;font-family:'Comic Sans MS';-inkscape-font-specification:'Comic Sans MS';fill:#ffffff"
           d="m 130.15235,373.82473 q -4.09506,0 -12.61719,-0.66407 -8.30078,-0.60872 -12.61719,-0.55338 h -3.92904 q 0.16602,7.63672 1.49414,24.79167 1.21745,15.99283 1.21745,24.847 0,1.93685 0.38737,5.86589 0.38737,3.92903 0.38737,5.92122 0,3.76302 -1.21745,6.47461 -1.54948,3.65234 -4.81445,3.65234 -2.213541,0 -3.984375,-1.54947 -1.770833,-1.54948 -1.770833,-3.98438 0,-0.83008 0.276693,-2.49023 0.276692,-1.66016 0.276692,-2.49024 0,-2.71159 -0.387369,-8.13476 -0.332032,-5.42318 -0.332032,-8.19011 0,-7.91341 -1.272786,-22.24609 -1.328125,-15.4948 -1.494141,-22.2461 l -5.035807,0.0553 q -12.119141,0 -19.036459,-1.77083 -4.482422,-1.16211 -4.482422,-5.47852 0,-2.26888 1.438802,-3.98437 1.660156,-1.93685 4.261068,-1.77084 1.936849,0.11068 8.854167,0.9961 5.533854,0.66406 8.964844,0.66406 3.320312,0 10.071615,-0.11068 6.751303,-0.16601 10.071613,-0.16601 4.26107,0 12.61719,0.60872 8.41146,0.60872 12.67253,0.60872 2.37955,0 3.98437,1.66016 1.60482,1.60482 1.60482,4.03971 0,2.37956 -1.60482,4.03972 -1.60482,1.60482 -3.98437,1.60482 z"
           inkscape:connector-curvature="0" />
        <path
           id="path868"
           style="font-style:normal;font-variant:normal;font-weight:normal;font-stretch:normal;font-size:113.33333588px;font-family:'Comic Sans MS';-inkscape-font-specification:'Comic Sans MS';fill:#ffffff"
           d="m 200.98568,445.37746 q -5.09115,0 -8.85417,-13.05989 -1.4388,-4.98047 -3.597,-17.43164 -5.64453,0.77473 -14.77539,2.76692 l -14.72006,3.04362 q -2.76692,7.24935 -9.46289,21.19466 -1.77083,3.09896 -4.81445,3.09896 -2.21354,0 -3.98438,-1.60482 -1.71549,-1.60481 -1.71549,-3.98437 0,-2.65625 8.35612,-20.19857 -0.94076,-1.4388 -0.94076,-3.32031 0,-4.48242 5.42318,-5.75521 6.30859,-11.84245 15.9375,-27.22656 13.11524,-20.97331 16.32487,-20.97331 4.37175,0 5.97656,6.08724 l 3.48633,18.59375 8.24545,38.46029 3.15429,8.74349 q 1.60482,4.48242 1.60482,5.97656 0,2.37956 -1.71549,3.98437 -1.7155,1.60482 -3.92904,1.60482 z m -19.53451,-63.25195 -15.82682,25.51107 q 6.69596,-1.7155 20.30924,-4.15039 z"
           inkscape:connector-curvature="0" />
        <path
           id="path870"
           style="font-style:normal;font-variant:normal;font-weight:normal;font-stretch:normal;font-size:113.33333588px;font-family:'Comic Sans MS';-inkscape-font-specification:'Comic Sans MS';fill:#ffffff"
           d="m 277.13151,444.32603 q -2.10286,0 -3.92903,-1.77083 -18.31706,-18.09571 -40.72917,-24.34896 l 0.44271,10.84635 0.27669,10.90169 q 0,2.4349 -1.60482,4.03972 -1.54948,1.66015 -3.92904,1.66015 -2.37955,0 -3.98437,-1.66015 -1.54948,-1.60482 -1.54948,-4.03972 0,-4.37174 -0.44271,-13.00455 -0.38737,-8.68815 -0.38737,-13.0599 0,-5.09114 1.10677,-15.16276 1.10677,-10.07161 1.10677,-15.10742 0,-2.82227 -0.55338,-8.35612 -0.49805,-5.53386 -0.49805,-8.35612 0,-3.1543 1.77083,-5.53386 2.10287,-2.93294 5.81055,-2.65625 l 13.33659,1.05144 q 7.58138,0.94075 12.7832,3.70768 22.41211,11.89779 22.41211,29.05273 0,8.41146 -7.63671,14.88607 -6.14258,5.20182 -15.32878,7.91341 17.21029,9.24154 25.73242,19.47917 1.4388,1.77083 1.4388,3.76302 0,2.32422 -1.71549,4.03972 -1.66016,1.71549 -3.92904,1.71549 z m -35.25065,-73.15755 -8.1901,-0.66407 0.55338,6.69597 q 0.38737,4.09505 0.38737,6.69596 0,4.42708 -0.7194,11.01237 L 232.75,405.92108 q 0.77474,0 2.37956,0.0553 1.66015,0.0553 2.49023,0.0553 14.11133,0 21.13933,-3.76302 3.09895,-1.7155 5.7552,-4.48242 2.93295,-3.09896 2.93295,-5.25717 0,-7.69205 -8.74349,-14.33268 -8.02409,-6.08724 -16.82292,-7.02799 z"
           inkscape:connector-curvature="0" />
        <path
           id="path872"
           style="font-style:normal;font-variant:normal;font-weight:normal;font-stretch:normal;font-size:113.33333588px;font-family:'Comic Sans MS';-inkscape-font-specification:'Comic Sans MS';fill:#ffffff"
           d="m 358.03647,410.23749 q -3.43099,16.98893 -14.44336,27.17122 -10.95704,10.12696 -25.89844,10.12696 -13.61328,0 -20.41993,-7.58139 -6.80664,-7.63671 -6.80664,-22.85481 0,-14.33269 6.75131,-29.49545 6.80664,-15.2181 17.43164,-24.57031 7.08333,-6.25326 14.99674,-6.25326 5.03581,0 13.28125,3.32032 10.07162,3.98437 10.07162,8.79883 0,2.26888 -1.66016,4.03971 -1.66015,1.77083 -3.98437,1.77083 -1.21745,0 -3.43099,-1.38346 -8.4668,-5.14649 -14.27735,-5.14649 -4.15039,0 -8.68815,4.31641 -2.26888,2.1582 -6.52995,7.85807 -12.7832,16.9336 -12.7832,36.7448 0,10.40364 3.20964,14.55403 3.48632,4.53776 12.83854,4.53776 9.9056,0 17.21028,-6.25325 7.69206,-6.64063 10.73568,-18.98112 -15.32877,0.77474 -26.28581,5.92122 -1.27278,0.60873 -2.49023,0.60873 -2.4349,0 -4.03971,-1.88151 -1.49415,-1.7155 -1.49415,-3.98438 0,-3.04362 2.93295,-4.86979 11.95312,-7.30469 41.22721,-7.30469 2.37956,0 3.98438,1.60482 1.60481,1.60482 1.60481,4.03971 0,3.59701 -3.04361,5.14649 z"
           inkscape:connector-curvature="0" />
        <path
           id="path874"
           style="font-style:normal;font-variant:normal;font-weight:normal;font-stretch:normal;font-size:113.33333588px;font-family:'Comic Sans MS';-inkscape-font-specification:'Comic Sans MS';fill:#ffffff"
           d="m 433.18622,374.48879 -7.4707,5.09114 q -10.07162,7.80274 -22.79948,24.95769 l -19.42383,28.27799 q -1.38347,2.10287 -2.71159,3.8737 l 21.52669,-0.83008 q 14.11133,-0.66406 21.58203,-0.66406 7.30469,0 10.79102,0.66406 4.48242,0.88542 4.64844,4.53776 0.11068,2.71159 -1.77084,4.31641 -1.66015,1.38346 -4.15039,1.38346 -1.60481,0 -4.81445,-0.22135 -3.20963,-0.16602 -4.81445,-0.16602 -8.41146,0 -25.28972,0.38737 -16.82291,0.44271 -25.23437,0.44271 -6.36393,0 -6.36393,-5.58919 0,-3.65235 3.43099,-9.1862 l 5.92122,-8.24544 19.97721,-27.77995 q 12.3405,-16.32487 22.9655,-25.34505 l -19.36849,1.10677 h -22.35677 q -0.60873,0 -1.82617,0.11067 -1.16211,0.0553 -1.7155,0.0553 -5.86589,0 -5.86589,-5.69987 0,-3.76302 2.98829,-4.98047 1.82617,-0.77474 6.0319,-0.77474 3.81836,0 11.3444,0.83008 7.58138,0.77474 11.39974,0.77474 4.26107,0 12.72786,-0.55338 8.52214,-0.55339 12.83855,-0.55339 14.222,0 14.222,5.36784 0,3.65234 -6.41927,8.41146 z"
           inkscape:connector-curvature="0" />
      </g>
    </g>
  </g>
</svg>
