<?xml version="1.0" encoding="UTF-8" standalone="no"?>
<!-- Created with Inkscape (http://www.inkscape.org/) -->

<svg
   xmlns:dc="http://purl.org/dc/elements/1.1/"
   xmlns:cc="http://creativecommons.org/ns#"
   xmlns:rdf="http://www.w3.org/1999/02/22-rdf-syntax-ns#"
   xmlns:svg="http://www.w3.org/2000/svg"
   xmlns="http://www.w3.org/2000/svg"
   xmlns:sodipodi="http://sodipodi.sourceforge.net/DTD/sodipodi-0.dtd"
   xmlns:inkscape="http://www.inkscape.org/namespaces/inkscape"
   width="512"
   height="512"
   id="svg2"
   version="1.1"
   inkscape:version="0.92.2 5c3e80d, 2017-08-06"
   sodipodi:docname="application-atom+xml.svg">
  <defs
     id="defs4" />
  <sodipodi:namedview
     id="base"
     pagecolor="#ffffff"
     bordercolor="#666666"
     borderopacity="1.0"
     inkscape:pageopacity="0.0"
     inkscape:pageshadow="2"
     inkscape:zoom="0.4289781"
     inkscape:cx="-14.687024"
     inkscape:cy="270.10502"
     inkscape:document-units="px"
     inkscape:current-layer="layer1"
     showgrid="false"
     inkscape:window-width="1366"
     inkscape:window-height="717"
     inkscape:window-x="0"
     inkscape:window-y="24"
     inkscape:window-maximized="1" />
  <metadata
     id="metadata7">
    <rdf:RDF>
      <cc:Work
         rdf:about="">
        <dc:format>image/svg+xml</dc:format>
        <dc:type
           rdf:resource="http://purl.org/dc/dcmitype/StillImage" />
        <dc:title />
      </cc:Work>
    </rdf:RDF>
  </metadata>
  <g
     inkscape:label="Layer 1"
     inkscape:groupmode="layer"
     id="layer1"
     transform="translate(0,-540.36218)">
    <g
       id="g855">
      <path
         id="path931"
         d="m 432.91325,596.83619 c 102.19291,88.57459 105.82678,249.69971 8.1168,359.89879 C 343.32008,1066.934 181.27964,1084.4628 79.086744,995.8882 -23.106206,907.31365 -26.740033,746.18853 70.969944,635.98945 168.6799,525.79037 330.72035,508.2616 432.91325,596.83619 Z"
         inkscape:connector-curvature="0"
         style="fill:#f37329;fill-opacity:1;stroke-width:11.10955811" />
      <path
         sodipodi:nodetypes="csscc"
         inkscape:connector-curvature="0"
         id="path933"
         d="M 8.3652389,882.36223 C 19.949341,925.51396 43.551544,965.0886 79.085944,995.8876 c 102.192906,88.5746 264.233386,71.0467 361.943356,-39.15232 20.35102,-22.95224 36.28955,-48.11807 47.87304,-74.37305 z"
         style="fill:#cc3b02;fill-opacity:1;stroke:none;stroke-width:0.99999994px;stroke-linecap:butt;stroke-linejoin:miter;stroke-opacity:1" />
      <path
         id="path935"
         d="M 511.63549,765.26574 C 510.0841,826.57738 486.47426,889.42034 440.66911,941.08021 342.95914,1051.2793 180.91869,1068.808 78.725754,980.2335 30.827124,938.71786 4.4968169,881.28506 0.19382492,820.59103 0.79907892,886.9477 27.117404,950.8444 79.078684,995.8813 181.27159,1084.4558 343.31974,1066.9184 441.022,956.72799 490.72695,900.66988 514.02702,831.43702 511.63549,765.26574 Z"
         inkscape:connector-curvature="0"
         style="opacity:1;stroke-width:11.10955811;fill:#000000;fill-opacity:0.49019608" />
      <path
         inkscape:connector-curvature="0"
         id="path864"
         style="font-style:normal;font-variant:normal;font-weight:normal;font-stretch:normal;font-size:113.33333588px;line-height:1.25;font-family:'Comic Sans MS';-inkscape-font-specification:'Comic Sans MS';letter-spacing:0px;word-spacing:0px;fill:#000000;fill-opacity:0.49019608;stroke:none;stroke-width:0.86595428"
         d="m 166.2772,1004.8224 q -4.4087,0 -7.6673,-11.30929 -1.24594,-4.31286 -3.11485,-15.095 -4.8879,0.67089 -12.79481,2.39603 l -12.74689,2.63564 q -2.39603,6.2776 -8.19443,18.35362 -1.53346,2.6835 -4.16909,2.6835 -1.91684,0 -3.45029,-1.3897 -1.48554,-1.3897 -1.48554,-3.45025 0,-2.30019 7.23602,-17.49103 -0.81466,-1.24594 -0.81466,-2.87524 0,-3.88157 4.69623,-4.98375 5.46295,-10.25501 13.80114,-23.57696 11.35719,-18.16193 14.1366,-18.16193 3.78572,0 5.17542,5.27128 l 3.01901,16.10133 7.14017,33.30486 2.73148,7.57146 q 1.3897,3.88157 1.3897,5.17543 0,2.0606 -1.48555,3.4503 -1.48553,1.3897 -3.40236,1.3897 z m -16.91599,-54.77332 -13.7053,22.09142 q 5.7984,-1.48553 17.58687,-3.59405 z" />
      <path
         inkscape:connector-curvature="0"
         id="path866"
         style="font-style:normal;font-variant:normal;font-weight:normal;font-stretch:normal;font-size:113.33333588px;line-height:1.25;font-family:'Comic Sans MS';-inkscape-font-specification:'Comic Sans MS';letter-spacing:0px;word-spacing:0px;fill:#000000;fill-opacity:0.49019608;stroke:none;stroke-width:0.86595428"
         d="m 243.52528,942.86099 q -3.54613,0 -10.9259,-0.57505 -7.1881,-0.52713 -10.92591,-0.47921 h -3.40237 q 0.14376,6.61305 1.29386,21.46845 1.05425,13.84907 1.05425,21.51638 0,1.67721 0.33545,5.07958 0.33544,3.40237 0.33544,5.12752 0,3.2586 -1.05426,5.60674 -1.34177,3.1627 -4.16909,3.1627 -1.91682,0 -3.45029,-1.3417 -1.53346,-1.3418 -1.53346,-3.45034 0,-0.7188 0.2396,-2.15642 0.23961,-1.43763 0.23961,-2.15643 0,-2.34811 -0.33544,-7.04434 -0.28752,-4.69622 -0.28752,-7.09225 0,-6.85266 -1.10218,-19.26411 -1.1501,-13.41777 -1.29386,-19.26409 l -4.36078,0.0479 q -10.49462,0 -16.4847,-1.53347 -3.88157,-1.00633 -3.88157,-4.74414 0,-1.96475 1.24593,-3.45029 1.43762,-1.67722 3.68989,-1.53346 1.67723,0.0958 7.66731,0.86257 4.79206,0.57505 7.76314,0.57505 2.87524,0 8.72156,-0.0958 5.84632,-0.14377 8.72156,-0.14377 3.68989,0 10.92591,0.52714 7.28393,0.52712 10.97382,0.52712 2.06059,0 3.45029,1.43762 1.3897,1.3897 1.3897,3.49821 0,2.06059 -1.3897,3.4982 -1.3897,1.3897 -3.45029,1.3897 z" />
      <path
         inkscape:connector-curvature="0"
         id="path868"
         style="font-style:normal;font-variant:normal;font-weight:normal;font-stretch:normal;font-size:113.33333588px;line-height:1.25;font-family:'Comic Sans MS';-inkscape-font-specification:'Comic Sans MS';letter-spacing:0px;word-spacing:0px;fill:#000000;fill-opacity:0.49019608;stroke:none;stroke-width:0.86595428"
         d="m 283.39526,1006.3079 q -13.51363,0 -22.90607,-8.09856 -9.9675,-8.62572 -9.9675,-22.23519 0,-16.58054 9.82374,-30.14208 10.97383,-15.04708 27.36269,-15.04708 15.76589,0 23.4332,7.09225 8.00274,7.37978 8.00274,23.28943 0,16.58055 -9.00908,29.90248 -10.35086,15.23875 -26.73972,15.23875 z m 4.31286,-65.69918 q -11.74056,0 -19.88708,11.69263 -7.52354,10.73423 -7.52354,23.6728 0,9.24869 6.85266,15.04709 6.56513,5.46295 16.2451,5.46295 11.64472,0 19.21618,-11.74055 6.75681,-10.49463 6.75681,-23.57697 0,-11.45303 -5.12751,-16.10134 -4.8879,-4.45661 -16.53262,-4.45661 z" />
      <path
         id="path870"
         d="m 386.95117,929.8739 c -2.1724,0 -3.88102,1.18279 -5.12695,3.54687 -0.92647,1.72515 -1.67691,3.99335 -2.25195,6.80469 l -1.4375,6.9961 c -3.45029,13.32193 -7.53942,26.132 -12.26758,38.43164 -3.57808,-12.23574 -6.21501,-23.60855 -7.90821,-34.11914 -1.43762,-8.75351 -2.77945,-14.55124 -4.02539,-17.39454 -1.0223,-2.36408 -2.56991,-3.54687 -4.64648,-3.54687 -1.88487,0 -3.46625,0.92636 -4.74414,2.7793 -1.5654,2.1724 -3.05136,6.78929 -4.45703,13.84961 l -2.7793,15.0957 -5.27148,19.3125 c -2.20434,7.76314 -3.30664,14.31129 -3.30664,19.64644 0,1.4057 0.39859,2.5885 1.19726,3.5469 0.92647,1.1181 2.17288,1.6758 3.73828,1.6758 2.20435,0 3.78573,-1.2445 4.74414,-3.7363 1.34178,-5.81441 2.14091,-10.20864 2.39649,-13.17972 l 6.18164,-25.30078 1.72461,-8.57812 c 2.45992,12.87468 5.30264,24.95119 8.52929,36.22851 l 1.39063,5.31836 c 0.57505,2.07659 1.21318,3.78525 1.91602,5.12695 1.0862,2.0447 2.57215,3.0684 4.45703,3.0684 2.26824,0 4.07423,-1.2146 5.41601,-3.6426 1.24594,-2.30022 2.44365,-5.25523 3.59375,-8.86525 l 2.82617,-9.10547 9.58399,-28.89648 c 2.84329,17.44312 4.92064,28.7205 6.23047,33.83203 l 1.72461,8.24219 c 0.13731,0.64078 0.28232,1.20995 0.42578,1.78515 3.03261,-2.21314 6.03165,-4.49443 8.99609,-6.84179 l -1.6582,-5.82032 c -2.81134,-10.22307 -5.16004,-22.55405 -7.04492,-36.99414 -0.73479,-5.71852 -1.35799,-9.48956 -1.86914,-11.31054 -1.43762,-5.30322 -3.52989,-7.95508 -6.27735,-7.95508 z"
         style="font-style:normal;font-variant:normal;font-weight:normal;font-stretch:normal;font-size:113.33333588px;line-height:1.25;font-family:'Comic Sans MS';-inkscape-font-specification:'Comic Sans MS';letter-spacing:0px;word-spacing:0px;fill:#000000;fill-opacity:0.49019608;stroke:none;stroke-width:0.86595428"
         inkscape:connector-curvature="0" />
      <g
         id="flowRoot847"
         style="font-style:normal;font-weight:normal;font-size:40px;line-height:1.25;font-family:sans-serif;letter-spacing:0px;word-spacing:0px;fill:#000000;fill-opacity:1;stroke:none"
         transform="matrix(0.86595426,0,0,0.86595426,-1.4354406,590.06181)"
         aria-label="ATOM">
        <path
           inkscape:connector-curvature="0"
           id="path855"
           style="font-style:normal;font-variant:normal;font-weight:normal;font-stretch:normal;font-size:113.33333588px;font-family:'Comic Sans MS';-inkscape-font-specification:'Comic Sans MS';fill:#ffffff"
           d="m 170.57748,455.8677 q -5.09115,0 -8.85417,-13.0599 -1.4388,-4.98047 -3.59701,-17.43164 -5.64453,0.77474 -14.77539,2.76693 l -14.72005,3.04362 q -2.76693,7.24935 -9.46289,21.19466 -1.77083,3.09896 -4.81445,3.09896 -2.21355,0 -3.98438,-1.60482 -1.71549,-1.60482 -1.71549,-3.98438 0,-2.65625 8.35612,-20.19856 -0.94076,-1.43881 -0.94076,-3.32032 0,-4.48242 5.42318,-5.75521 6.30859,-11.84244 15.9375,-27.22656 13.11523,-20.97331 16.32487,-20.97331 4.37174,0 5.97656,6.08724 l 3.48633,18.59375 8.24544,38.46029 3.1543,8.74349 q 1.60482,4.48242 1.60482,5.97656 0,2.37956 -1.7155,3.98438 -1.71549,1.60482 -3.92903,1.60482 z m -19.53451,-63.25196 -15.82682,25.51107 q 6.69596,-1.71549 20.30924,-4.15039 z" />
        <path
           inkscape:connector-curvature="0"
           id="path857"
           style="font-style:normal;font-variant:normal;font-weight:normal;font-stretch:normal;font-size:113.33333588px;font-family:'Comic Sans MS';-inkscape-font-specification:'Comic Sans MS';fill:#ffffff"
           d="m 259.7832,384.31496 q -4.09505,0 -12.61718,-0.66406 -8.30078,-0.60873 -12.61719,-0.55339 h -3.92904 q 0.16602,7.63672 1.49414,24.79167 1.21745,15.99284 1.21745,24.84701 0,1.93684 0.38737,5.86588 0.38737,3.92904 0.38737,5.92123 0,3.76302 -1.21745,6.4746 -1.54948,3.65235 -4.81445,3.65235 -2.21354,0 -3.98438,-1.54948 -1.77083,-1.54948 -1.77083,-3.98438 0,-0.83007 0.27669,-2.49023 0.2767,-1.66016 0.2767,-2.49023 0,-2.71159 -0.38737,-8.13477 -0.33203,-5.42318 -0.33203,-8.1901 0,-7.91342 -1.27279,-22.2461 -1.32813,-15.49479 -1.49414,-22.24609 l -5.03581,0.0553 q -12.11914,0 -19.03646,-1.77084 -4.48242,-1.16211 -4.48242,-5.47851 0,-2.26888 1.4388,-3.98438 1.66016,-1.93685 4.26107,-1.77083 1.93685,0.11067 8.85417,0.99609 5.53385,0.66406 8.96484,0.66406 3.32031,0 10.07162,-0.11067 6.7513,-0.16602 10.07161,-0.16602 4.26107,0 12.61719,0.60873 8.41146,0.60872 12.67252,0.60872 2.37956,0 3.98438,1.66016 1.60482,1.60481 1.60482,4.03971 0,2.37956 -1.60482,4.03971 -1.60482,1.60482 -3.98438,1.60482 z" />
        <path
           inkscape:connector-curvature="0"
           id="path859"
           style="font-style:normal;font-variant:normal;font-weight:normal;font-stretch:normal;font-size:113.33333588px;font-family:'Comic Sans MS';-inkscape-font-specification:'Comic Sans MS';fill:#ffffff"
           d="m 305.82487,457.58319 q -15.60547,0 -26.45182,-9.35221 -11.51042,-9.96094 -11.51042,-25.67709 0,-19.14713 11.3444,-34.80794 12.67253,-17.3763 31.59831,-17.3763 18.20638,0 27.06055,8.1901 9.24153,8.52214 9.24153,26.89453 0,19.14714 -10.40364,34.53125 -11.95313,17.59766 -30.87891,17.59766 z m 4.98047,-75.86914 q -13.55794,0 -22.9655,13.5026 -8.68815,12.39584 -8.68815,27.33724 0,10.68034 7.91341,17.37631 7.58139,6.30859 18.75977,6.30859 13.44727,0 22.19076,-13.55794 7.80273,-12.11914 7.80273,-27.22657 0,-13.22591 -5.92122,-18.59375 -5.64453,-5.14648 -19.0918,-5.14648 z" />
        <path
           inkscape:connector-curvature="0"
           id="path861"
           style="font-style:normal;font-variant:normal;font-weight:normal;font-stretch:normal;font-size:113.33333588px;font-family:'Comic Sans MS';-inkscape-font-specification:'Comic Sans MS';fill:#ffffff"
           d="m 441.90235,458.80064 q -2.98828,0 -4.92513,-3.09896 -1.66016,-2.65625 -2.98828,-8.85417 l -1.99219,-9.51823 q -2.26888,-8.85416 -7.19401,-39.06901 l -11.06771,33.36914 -3.26497,10.51433 q -1.99219,6.25325 -4.15039,10.23763 -2.32422,4.20573 -6.25326,4.20573 -3.26497,0 -5.14648,-3.54167 -1.21745,-2.32422 -2.21354,-5.92122 l -1.60482,-6.14258 q -5.58919,-19.53451 -9.85026,-41.83594 l -1.99219,9.9056 -7.13867,29.21875 q -0.44271,5.14648 -2.76693,15.2181 -1.66016,4.31641 -5.47851,4.31641 -2.71159,0 -4.31641,-1.93685 -1.38346,-1.66016 -1.38346,-4.09506 0,-9.24153 3.81835,-22.6888 l 6.08724,-22.30143 3.20964,-17.43164 q 2.4349,-12.22982 5.14648,-15.99284 2.21355,-3.20964 5.47852,-3.20964 3.59701,0 5.36784,4.09506 2.1582,4.92513 4.64844,20.08789 2.93294,18.20638 9.13086,39.40104 8.1901,-21.30534 14.16666,-44.38151 l 1.66016,-8.07943 q 0.99609,-4.86979 2.60091,-7.85807 2.1582,-4.09505 5.92123,-4.09505 4.75911,0 7.24934,9.18619 0.88542,3.1543 2.15821,13.0599 3.26497,25.01302 8.13476,42.72135 l 2.71159,9.51823 q 2.10287,7.63672 2.10287,9.40756 0,2.37955 -1.82618,3.98437 -1.77083,1.60482 -4.03971,1.60482 z" />
      </g>
      <path
         style="fill:#000000;fill-opacity:0.49019608;stroke-width:0.43974295"
         d="m 284.05216,891.98177 c -4.86197,-0.9759 -11.75195,-5.1204 -13.21468,-7.949 -0.36288,-0.7018 -0.81551,-1.2759 -1.00583,-1.2759 -0.35251,0 -1.88996,-3.257 -2.97533,-6.3031 -0.3431,-0.963 -0.78579,-5.2057 -1.03235,-9.8942 -0.64314,-12.2294 -2.46375,-21.5141 -6.26587,-31.9545 -8.3021,-22.7972 -23.54695,-41.3813 -44.84503,-54.6681 -1.28644,-0.8026 -4.91148,-2.7173 -8.05564,-4.25504 -14.43721,-7.06082 -27.13395,-10.13581 -45.36412,-10.98663 -9.49471,-0.44312 -14.77348,-3.22579 -19.49401,-10.27615 -4.39823,-6.56901 -4.39923,-16.81984 -0.002,-23.45802 2.84696,-4.29812 7.04709,-7.48894 12.38621,-9.40973 2.27072,-0.81691 14.75226,-0.90789 21.21477,-0.15464 25.83185,3.01089 47.23097,10.74083 68.19784,24.63491 8.19016,5.42735 14.41709,10.59398 22.45212,18.62901 8.03716,8.03715 13.20607,14.26719 18.6279,22.45209 13.38498,20.2062 20.67566,39.7072 24.24936,64.8621 0.68635,4.831 1.21022,17.7982 0.85341,21.1246 -1.29623,12.0848 -13.81501,21.2732 -25.72646,18.8823 z m 103.55951,0.053 c -5.40985,-1.2367 -8.90656,-3.2164 -12.36522,-7.0008 -4.60486,-5.0384 -5.47559,-8.1929 -6.09079,-22.0659 -1.15881,-26.1323 -5.93966,-48.5535 -15.19004,-71.2384 -17.27469,-42.36261 -48.48206,-78.38582 -88.16277,-101.76742 -6.21016,-3.65929 -21.05067,-10.98522 -27.18886,-13.42161 -23.30135,-9.24886 -44.82407,-13.79994 -70.87382,-14.98658 -13.91067,-0.63368 -16.87467,-1.45318 -22.04272,-6.09446 -4.88638,-4.38832 -7.0756,-9.25626 -7.14186,-15.88056 -0.0981,-9.80611 5.32263,-17.57916 14.66644,-21.03097 2.19015,-0.80909 4.05608,-1.10885 7.922,-1.27265 5.4042,-0.22899 20.73323,0.71514 30.12239,1.85525 20.36754,2.47321 43.37456,8.32191 61.78388,15.7063 5.67086,2.27471 6.53439,2.64139 12.60198,5.35126 7.48506,3.34294 21.54189,10.91212 28.13623,15.15053 1.00151,0.6437 2.78247,1.75937 3.95769,2.47924 3.64397,2.23213 14.19855,9.85123 19.63804,14.17622 18.42791,14.65225 35.01426,32.04064 48.7072,51.06249 4.00707,5.5665 4.94135,6.96986 10.29535,15.46449 4.24097,6.72867 12.55264,22.63195 15.97287,30.56213 12.30088,28.52064 18.79255,56.16584 20.79307,88.54874 0.86792,14.0494 0.2288,18.829 -3.29029,24.6061 -2.54849,4.1837 -6.32513,7.097 -11.53529,8.8981 -2.85116,0.9857 -8.32676,1.445 -10.71548,0.8989 z m -213.93497,-6.6513 c -14.46753,-1.5593 -26.78303,-14.1099 -28.36201,-28.9033 -1.13446,-10.6288 2.42004,-20.2388 10.22969,-27.6572 5.95123,-5.6531 12.68655,-8.4899 21.00175,-8.8455 4.20936,-0.1801 5.69963,-0.058 8.79486,0.7183 12.55161,3.1493 21.5033,12.1022 24.6682,24.6714 1.29419,5.1399 1.01554,12.2678 -0.67947,17.381 -4.08094,12.3106 -15.09548,21.322 -27.68294,22.6484 -2.20681,0.2326 -4.21027,0.3994 -4.45213,0.3708 -0.24186,-0.029 -1.82494,-0.2014 -3.51795,-0.3839 z"
         id="path860"
         inkscape:connector-curvature="0" />
      <path
         inkscape:connector-curvature="0"
         id="path842"
         d="m 264.05216,871.98177 c -4.86197,-0.9759 -11.75195,-5.1204 -13.21468,-7.949 -0.36288,-0.7018 -0.81551,-1.2759 -1.00583,-1.2759 -0.35251,0 -1.88996,-3.257 -2.97533,-6.3031 -0.3431,-0.963 -0.78579,-5.2057 -1.03235,-9.8942 -0.64314,-12.2294 -2.46375,-21.5141 -6.26587,-31.9545 -8.3021,-22.7972 -23.54695,-41.3813 -44.84503,-54.6681 -1.28644,-0.8026 -4.91148,-2.7173 -8.05564,-4.25504 -14.43721,-7.06082 -27.13395,-10.13581 -45.36412,-10.98663 -9.49471,-0.44312 -14.77348,-3.22579 -19.49401,-10.27615 -4.39823,-6.56901 -4.39923,-16.81984 -0.002,-23.45802 2.84696,-4.29812 7.04709,-7.48894 12.38621,-9.40973 2.27072,-0.81691 14.75226,-0.90789 21.21477,-0.15464 25.83185,3.01089 47.23097,10.74083 68.19784,24.63491 8.19016,5.42735 14.41709,10.59398 22.45212,18.62901 8.03716,8.03715 13.20607,14.26719 18.6279,22.45209 13.38498,20.2062 20.67566,39.7072 24.24936,64.8621 0.68635,4.831 1.21022,17.7982 0.85341,21.1246 -1.29623,12.0848 -13.81501,21.2732 -25.72646,18.8823 z m 103.55951,0.053 c -5.40985,-1.2367 -8.90656,-3.2164 -12.36522,-7.0008 -4.60486,-5.0384 -5.47559,-8.1929 -6.09079,-22.0659 -1.15881,-26.1323 -5.93966,-48.5535 -15.19004,-71.2384 -17.27469,-42.36261 -48.48206,-78.38582 -88.16277,-101.76742 -6.21016,-3.65929 -21.05067,-10.98522 -27.18886,-13.42161 -23.30135,-9.24886 -44.82407,-13.79994 -70.87382,-14.98658 -13.91067,-0.63368 -16.87467,-1.45318 -22.04272,-6.09446 -4.88638,-4.38832 -7.0756,-9.25626 -7.14186,-15.88056 -0.0981,-9.80611 5.32263,-17.57916 14.66644,-21.03097 2.19015,-0.80909 4.05608,-1.10885 7.922,-1.27265 5.4042,-0.22899 20.73323,0.71514 30.12239,1.85525 20.36754,2.47321 43.37456,8.32191 61.78388,15.7063 5.67086,2.27471 6.53439,2.64139 12.60198,5.35126 7.48506,3.34294 21.54189,10.91212 28.13623,15.15053 1.00151,0.6437 2.78247,1.75937 3.95769,2.47924 3.64397,2.23213 14.19855,9.85123 19.63804,14.17622 18.42791,14.65225 35.01426,32.04064 48.7072,51.06249 4.00707,5.5665 4.94135,6.96986 10.29535,15.46449 4.24097,6.72867 12.55264,22.63195 15.97287,30.56213 12.30088,28.52064 18.79255,56.16584 20.79307,88.54874 0.86792,14.0494 0.2288,18.829 -3.29029,24.6061 -2.54849,4.1837 -6.32513,7.097 -11.53529,8.8981 -2.85116,0.9857 -8.32676,1.445 -10.71548,0.8989 z m -213.93497,-6.6513 c -14.46753,-1.5593 -26.78303,-14.1099 -28.36201,-28.9033 -1.13446,-10.6288 2.42004,-20.2388 10.22969,-27.6572 5.95123,-5.6531 12.68655,-8.4899 21.00175,-8.8455 4.20936,-0.1801 5.69963,-0.058 8.79486,0.7183 12.55161,3.1493 21.5033,12.1022 24.6682,24.6714 1.29419,5.1399 1.01554,12.2678 -0.67947,17.381 -4.08094,12.3106 -15.09548,21.322 -27.68294,22.6484 -2.20681,0.2326 -4.21027,0.3994 -4.45213,0.3708 -0.24186,-0.029 -1.82494,-0.2014 -3.51795,-0.3839 z"
         style="fill:#ffffff;stroke-width:0.43974295" />
    </g>
  </g>
</svg>
