<?xml version="1.0" encoding="UTF-8" standalone="no"?>
<!-- Created with Inkscape (http://www.inkscape.org/) -->

<svg
   xmlns:dc="http://purl.org/dc/elements/1.1/"
   xmlns:cc="http://creativecommons.org/ns#"
   xmlns:rdf="http://www.w3.org/1999/02/22-rdf-syntax-ns#"
   xmlns:svg="http://www.w3.org/2000/svg"
   xmlns="http://www.w3.org/2000/svg"
   xmlns:sodipodi="http://sodipodi.sourceforge.net/DTD/sodipodi-0.dtd"
   xmlns:inkscape="http://www.inkscape.org/namespaces/inkscape"
   width="512"
   height="512"
   id="svg2"
   version="1.1"
   inkscape:version="0.92.2 5c3e80d, 2017-08-06"
   sodipodi:docname="application-x-python-bytecode.svg">
  <defs
     id="defs4">
    <clipPath
       clipPathUnits="userSpaceOnUse"
       id="clipPath3444">
      <path
         inkscape:connector-curvature="0"
         d="M 11.52,162 C 11.52,81.677 135.307,16.561 288,16.561 v 0 c 152.693,0 276.481,65.116 276.481,145.439 v 0 c 0,80.322 -123.788,145.439 -276.481,145.439 v 0 C 135.307,307.439 11.52,242.322 11.52,162"
         id="path3446" />
    </clipPath>
    <radialGradient
       cx="0"
       cy="0"
       fx="0"
       fy="0"
       gradientTransform="matrix(363.05789,0,0,-363.05789,177.52002,256.30713)"
       gradientUnits="userSpaceOnUse"
       id="radialGradient3452"
       r="1"
       spreadMethod="pad">
      <stop
         id="stop3454"
         offset="0"
         style="stop-opacity:1;stop-color:#aeb2d5" />
      <stop
         id="stop3456"
         offset="0.3"
         style="stop-opacity:1;stop-color:#aeb2d5" />
      <stop
         id="stop3458"
         offset="0.75"
         style="stop-opacity:1;stop-color:#484c89" />
      <stop
         id="stop3460"
         offset="1"
         style="stop-opacity:1;stop-color:#484c89" />
    </radialGradient>
    <clipPath
       clipPathUnits="userSpaceOnUse"
       id="clipPath3468">
      <path
         inkscape:connector-curvature="0"
         d="M 0,324 H 576 V 0 H 0 Z"
         id="path3470" />
    </clipPath>
    <clipPath
       clipPathUnits="userSpaceOnUse"
       id="clipPath3480">
      <path
         inkscape:connector-curvature="0"
         d="M 0,324 H 576 V 0 H 0 Z"
         id="path3482" />
    </clipPath>
  </defs>
  <sodipodi:namedview
     id="base"
     pagecolor="#ffffff"
     bordercolor="#666666"
     borderopacity="1.0"
     inkscape:pageopacity="0.0"
     inkscape:pageshadow="2"
     inkscape:zoom="0.30333333"
     inkscape:cx="655.82922"
     inkscape:cy="60.063937"
     inkscape:document-units="px"
     inkscape:current-layer="layer1"
     showgrid="false"
     inkscape:window-width="1366"
     inkscape:window-height="717"
     inkscape:window-x="0"
     inkscape:window-y="24"
     inkscape:window-maximized="1" />
  <metadata
     id="metadata7">
    <rdf:RDF>
      <cc:Work
         rdf:about="">
        <dc:format>image/svg+xml</dc:format>
        <dc:type
           rdf:resource="http://purl.org/dc/dcmitype/StillImage" />
        <dc:title></dc:title>
      </cc:Work>
    </rdf:RDF>
  </metadata>
  <g
     inkscape:label="Layer 1"
     inkscape:groupmode="layer"
     id="layer1"
     transform="translate(0,-540.36218)">
    <g
       id="g927">
      <path
         id="path943"
         d="m 432.91326,596.83618 c 102.19291,88.57459 105.82678,249.69971 8.1168,359.89879 C 343.32009,1066.934 181.27965,1084.4628 79.086742,995.8882 -23.106205,907.31364 -26.740032,746.18852 70.969941,635.98944 168.67991,525.79036 330.72036,508.26159 432.91326,596.83618 Z"
         inkscape:connector-curvature="0"
         style="fill:#3689e6;fill-opacity:1;stroke-width:11.10955811" />
      <path
         sodipodi:nodetypes="csscc"
         inkscape:connector-curvature="0"
         id="path945"
         d="m 8.3652408,882.36222 c 11.5841012,43.15173 35.1863062,82.72637 70.7207012,113.52538 102.192918,88.5746 264.233398,71.0467 361.943368,-39.15233 20.35102,-22.95224 36.28955,-48.11807 47.87304,-74.37305 z"
         style="fill:#0d52bf;fill-opacity:1;stroke:none;stroke-width:0.99999994px;stroke-linecap:butt;stroke-linejoin:miter;stroke-opacity:1" />
      <path
         id="path947"
         d="M 511.6355,765.26573 C 510.08411,826.57737 486.47427,889.42033 440.66912,941.0802 342.95915,1051.2793 180.9187,1068.808 78.725762,980.2335 30.827125,938.71785 4.4968188,881.28505 0.19382681,820.59102 0.79907981,886.94769 27.117405,950.84439 79.078692,995.8813 181.2716,1084.4558 343.31975,1066.9184 441.02201,956.72798 490.72696,900.66987 514.02703,831.43701 511.6355,765.26573 Z"
         inkscape:connector-curvature="0"
         style="opacity:0.1;stroke-width:11.10955811" />
      <g
         style="fill:#317ccf;fill-opacity:1"
         id="g864"
         transform="matrix(1.1,0,0,1.1,-28.909306,-59.769117)">
        <path
           d="m 266.59772,606.55258 c -10.28907,0.0417 -20.14077,0.93726 -28.80526,2.4369 -25.50403,4.47804 -30.14869,13.78819 -30.14869,31.00264 v 22.74429 h 60.28695 v 7.57101 h -82.90628 c -17.53726,0 -32.86676,10.41406 -37.66762,30.22158 -5.52987,22.70265 -5.82146,36.897 0,60.56814 4.26976,17.65183 14.48594,30.2216 32.01278,30.2216 h 17.73514 v -30.17995 c 0,-19.6513 17.24567,-36.89698 37.70929,-36.89698 h 63.10918 c 16.75622,0 32.62724,-13.67365 32.62724,-30.30491 v -53.81982 c 0,-16.15221 -16.23552,-28.31582 -32.62724,-31.00264 -10.33074,-1.70791 -21.06765,-2.47855 -31.3463,-2.4369 m -32.58559,18.1413 c 6.22761,0 11.30967,5.12371 11.30967,11.43461 0,6.26927 -5.08206,11.30967 -11.30967,11.30967 -6.26926,0 -11.35132,-5.0404 -11.35132,-11.30967 0,-6.30048 5.0404,-11.43461 11.35132,-11.43461 m 0,0"
           id="path860"
           inkscape:connector-curvature="0"
           style="fill:#317ccf;fill-opacity:1;fill-rule:nonzero;stroke:none" />
        <path
           d="m 339.13163,670.28661 v 26.48294 c 0,20.50525 -17.61018,35.3557 -37.66764,35.3557 h -66.15007 c -16.47505,0 -30.1487,16.43338 -30.1487,32.75221 v 56.78782 c 0,16.15225 14.19436,25.62901 30.1487,30.26331 19.07854,5.5298 39.86499,6.5921 62.6926,0 15.17327,-4.3531 30.14868,-13.10096 30.14868,-30.26331 v -22.7443 h -60.20364 v -7.571 h 90.39401 c 17.49558,0 24.04608,-12.12196 30.14868,-30.22158 6.3005,-18.67242 5.9777,-36.65749 0,-60.56815 -4.3531,-17.28734 -12.6114,-30.22159 -30.14868,-30.22159 m -56.50668,143.76601 c 6.22761,0 11.30966,5.04043 11.30966,11.30967 0,6.26927 -5.0404,11.43469 -11.30966,11.43469 -6.26925,0 -11.35133,-5.16542 -11.35133,-11.43469 0,-6.26924 5.08208,-11.30967 11.35133,-11.30967 m 0,0"
           id="path862"
           inkscape:connector-curvature="0"
           style="fill:#317ccf;fill-opacity:1;fill-rule:nonzero;stroke:none" />
      </g>
      <g
         transform="matrix(1.1,0,0,1.1,-38.909306,-69.769117)"
         id="g858">
        <path
           style="fill:#ffffff;fill-opacity:1;fill-rule:nonzero;stroke:none"
           inkscape:connector-curvature="0"
           id="path61-3"
           d="m 266.59772,606.55258 c -10.28907,0.0417 -20.14077,0.93726 -28.80526,2.4369 -25.50403,4.47804 -30.14869,13.78819 -30.14869,31.00264 v 22.74429 h 60.28695 v 7.57101 h -82.90628 c -17.53726,0 -32.86676,10.41406 -37.66762,30.22158 -5.52987,22.70265 -5.82146,36.897 0,60.56814 4.26976,17.65183 14.48594,30.2216 32.01278,30.2216 h 17.73514 v -30.17995 c 0,-19.6513 17.24567,-36.89698 37.70929,-36.89698 h 63.10918 c 16.75622,0 32.62724,-13.67365 32.62724,-30.30491 v -53.81982 c 0,-16.15221 -16.23552,-28.31582 -32.62724,-31.00264 -10.33074,-1.70791 -21.06765,-2.47855 -31.3463,-2.4369 m -32.58559,18.1413 c 6.22761,0 11.30967,5.12371 11.30967,11.43461 0,6.26927 -5.08206,11.30967 -11.30967,11.30967 -6.26926,0 -11.35132,-5.0404 -11.35132,-11.30967 0,-6.30048 5.0404,-11.43461 11.35132,-11.43461 m 0,0" />
        <path
           style="fill:#ffffff;fill-opacity:1;fill-rule:nonzero;stroke:none"
           inkscape:connector-curvature="0"
           id="path65-6"
           d="m 339.13163,670.28661 v 26.48294 c 0,20.50525 -17.61018,35.3557 -37.66764,35.3557 h -66.15007 c -16.47505,0 -30.1487,16.43338 -30.1487,32.75221 v 56.78782 c 0,16.15225 14.19436,25.62901 30.1487,30.26331 19.07854,5.5298 39.86499,6.5921 62.6926,0 15.17327,-4.3531 30.14868,-13.10096 30.14868,-30.26331 v -22.7443 h -60.20364 v -7.571 h 90.39401 c 17.49558,0 24.04608,-12.12196 30.14868,-30.22158 6.3005,-18.67242 5.9777,-36.65749 0,-60.56815 -4.3531,-17.28734 -12.6114,-30.22159 -30.14868,-30.22159 m -56.50668,143.76601 c 6.22761,0 11.30966,5.04043 11.30966,11.30967 0,6.26927 -5.0404,11.43469 -11.30966,11.43469 -6.26925,0 -11.35133,-5.16542 -11.35133,-11.43469 0,-6.26924 5.08208,-11.30967 11.35133,-11.30967 m 0,0" />
      </g>
      <g
         aria-label="PYC"
         transform="translate(29.26107,542.77704)"
         style="font-style:normal;font-weight:normal;font-size:40px;line-height:1.25;font-family:sans-serif;letter-spacing:0px;word-spacing:0px;fill:#0c4aac;fill-opacity:1;stroke:none"
         id="g908">
        <path
           d="m 158.0599,418.22772 q -1.54948,0 -6.75131,-0.7194 -0.4427,8.35612 -0.4427,29.27409 0,2.21354 -1.43881,3.76302 -1.4388,1.49414 -3.597,1.49414 -2.21354,0 -3.65235,-1.49414 -1.4388,-1.54948 -1.4388,-3.76302 v -16.26953 q 0,-8.13477 0.9961,-22.91016 1.10677,-15.99284 1.21744,-22.91016 v -7.63671 q 0,-5.47852 0.66407,-7.96875 1.27278,-4.8698 5.42317,-4.20573 1.77084,-0.55339 5.03581,-0.83008 3.26498,-0.27669 8.02409,-0.27669 10.12695,0 18.98112,6.91731 9.73958,7.63672 9.73958,18.3724 0,13.72396 -10.40364,21.85872 -9.29688,7.30469 -22.35677,7.30469 z m 2.76692,-43.9388 q -2.43489,0 -4.37174,0.11068 -1.88151,0.11067 -3.20964,0.33203 l -0.11067,10.18229 -1.16211,22.02474 6.08724,0.7194 q 9.29687,0 15.6608,-4.70378 6.97266,-5.14648 6.97266,-13.88997 0,-6.19792 -6.64062,-10.68034 -6.14258,-4.09505 -13.22592,-4.09505 z"
           style="font-style:normal;font-variant:normal;font-weight:normal;font-stretch:normal;font-size:113.33333588px;font-family:'Comic Sans MS';-inkscape-font-specification:'Comic Sans MS';fill:#0c4aac;fill-opacity:1"
           id="path902"
           inkscape:connector-curvature="0" />
        <path
           d="m 259.16341,379.93345 q -1.32812,2.10286 -3.54166,6.47461 l -9.51823,23.51888 q -5.53386,13.22591 -10.40365,23.13151 l -6.91732,12.3405 -2.93294,5.97656 q -1.82617,3.20963 -4.92513,3.20963 -2.1582,0 -3.92904,-1.60481 -1.77083,-1.60482 -1.77083,-3.98438 0,-1.88151 5.20182,-11.78711 l 6.80664,-12.45117 q -9.9056,-12.7832 -12.83854,-20.14323 -2.49023,-6.25326 -8.30078,-14.99674 -7.96875,-11.95313 -9.35221,-14.44336 -0.83008,-1.49415 -0.83008,-2.98829 0,-2.37955 1.71549,-3.98437 1.77084,-1.66016 3.98438,-1.66016 2.71159,0 4.53776,2.60091 l 4.42708,6.86198 q 5.86589,8.68815 7.7474,11.84245 4.15039,6.80664 6.47461,12.61719 1.82617,4.5931 7.80273,12.56185 l 12.67253,-30.87891 q 2.1582,-3.81836 5.97656,-11.78711 1.54948,-3.76302 5.14649,-3.76302 2.21354,0 3.92903,1.54948 1.77084,1.54948 1.77084,3.98438 0,2.54557 -2.93295,7.80273 z"
           style="font-style:normal;font-variant:normal;font-weight:normal;font-stretch:normal;font-size:113.33333588px;font-family:'Comic Sans MS';-inkscape-font-specification:'Comic Sans MS';fill:#0c4aac;fill-opacity:1"
           id="path904"
           inkscape:connector-curvature="0" />
        <path
           d="m 327.3405,388.6216 q -3.54167,0 -5.3125,-4.15039 -1.54948,-3.54167 -2.8776,-4.31641 -1.16211,-0.60872 -5.75521,-0.60872 -8.02409,0 -17.81901,12.28516 -13.28125,16.49088 -13.28125,31.26627 0,7.13868 4.5931,12.28516 4.70377,5.3125 11.3444,5.3125 5.69987,0 11.45508,-2.93294 3.20963,-1.66016 9.85026,-6.52995 3.15429,-2.32422 4.75911,-2.32422 2.37956,0 3.98438,1.82617 1.60481,1.77084 1.60481,3.98438 0,2.49023 -2.10286,4.37174 -14.60938,12.94922 -29.55078,12.94922 -11.45508,0 -19.36849,-8.79883 -7.63672,-8.52213 -7.63672,-20.14323 0,-18.75976 15.71614,-38.46028 13.11524,-16.43555 26.45183,-16.43555 2.71159,0 4.86979,0.27669 2.1582,0.22136 3.81836,0.77474 1.93685,-2.82226 5.03581,-2.82226 3.81836,0 4.81445,5.0358 0.88542,4.48243 0.88542,11.01237 0,2.26888 -1.21745,3.98438 -1.49414,2.1582 -4.26107,2.1582 z"
           style="font-style:normal;font-variant:normal;font-weight:normal;font-stretch:normal;font-size:113.33333588px;font-family:'Comic Sans MS';-inkscape-font-specification:'Comic Sans MS';fill:#0c4aac;fill-opacity:1"
           id="path906"
           inkscape:connector-curvature="0" />
      </g>
      <g
         id="flowRoot887"
         style="font-style:normal;font-weight:normal;font-size:40px;line-height:1.25;font-family:sans-serif;letter-spacing:0px;word-spacing:0px;fill:#ffffff;fill-opacity:1;stroke:none"
         transform="translate(19.26107,532.77704)"
         aria-label="PYC">
        <path
           inkscape:connector-curvature="0"
           id="path895"
           style="font-style:normal;font-variant:normal;font-weight:normal;font-stretch:normal;font-size:113.33333588px;font-family:'Comic Sans MS';-inkscape-font-specification:'Comic Sans MS';fill:#ffffff"
           d="m 158.0599,418.22772 q -1.54948,0 -6.75131,-0.7194 -0.4427,8.35612 -0.4427,29.27409 0,2.21354 -1.43881,3.76302 -1.4388,1.49414 -3.597,1.49414 -2.21354,0 -3.65235,-1.49414 -1.4388,-1.54948 -1.4388,-3.76302 v -16.26953 q 0,-8.13477 0.9961,-22.91016 1.10677,-15.99284 1.21744,-22.91016 v -7.63671 q 0,-5.47852 0.66407,-7.96875 1.27278,-4.8698 5.42317,-4.20573 1.77084,-0.55339 5.03581,-0.83008 3.26498,-0.27669 8.02409,-0.27669 10.12695,0 18.98112,6.91731 9.73958,7.63672 9.73958,18.3724 0,13.72396 -10.40364,21.85872 -9.29688,7.30469 -22.35677,7.30469 z m 2.76692,-43.9388 q -2.43489,0 -4.37174,0.11068 -1.88151,0.11067 -3.20964,0.33203 l -0.11067,10.18229 -1.16211,22.02474 6.08724,0.7194 q 9.29687,0 15.6608,-4.70378 6.97266,-5.14648 6.97266,-13.88997 0,-6.19792 -6.64062,-10.68034 -6.14258,-4.09505 -13.22592,-4.09505 z" />
        <path
           inkscape:connector-curvature="0"
           id="path897"
           style="font-style:normal;font-variant:normal;font-weight:normal;font-stretch:normal;font-size:113.33333588px;font-family:'Comic Sans MS';-inkscape-font-specification:'Comic Sans MS';fill:#ffffff"
           d="m 259.16341,379.93345 q -1.32812,2.10286 -3.54166,6.47461 l -9.51823,23.51888 q -5.53386,13.22591 -10.40365,23.13151 l -6.91732,12.3405 -2.93294,5.97656 q -1.82617,3.20963 -4.92513,3.20963 -2.1582,0 -3.92904,-1.60481 -1.77083,-1.60482 -1.77083,-3.98438 0,-1.88151 5.20182,-11.78711 l 6.80664,-12.45117 q -9.9056,-12.7832 -12.83854,-20.14323 -2.49023,-6.25326 -8.30078,-14.99674 -7.96875,-11.95313 -9.35221,-14.44336 -0.83008,-1.49415 -0.83008,-2.98829 0,-2.37955 1.71549,-3.98437 1.77084,-1.66016 3.98438,-1.66016 2.71159,0 4.53776,2.60091 l 4.42708,6.86198 q 5.86589,8.68815 7.7474,11.84245 4.15039,6.80664 6.47461,12.61719 1.82617,4.5931 7.80273,12.56185 l 12.67253,-30.87891 q 2.1582,-3.81836 5.97656,-11.78711 1.54948,-3.76302 5.14649,-3.76302 2.21354,0 3.92903,1.54948 1.77084,1.54948 1.77084,3.98438 0,2.54557 -2.93295,7.80273 z" />
        <path
           inkscape:connector-curvature="0"
           id="path899"
           style="font-style:normal;font-variant:normal;font-weight:normal;font-stretch:normal;font-size:113.33333588px;font-family:'Comic Sans MS';-inkscape-font-specification:'Comic Sans MS';fill:#ffffff"
           d="m 327.3405,388.6216 q -3.54167,0 -5.3125,-4.15039 -1.54948,-3.54167 -2.8776,-4.31641 -1.16211,-0.60872 -5.75521,-0.60872 -8.02409,0 -17.81901,12.28516 -13.28125,16.49088 -13.28125,31.26627 0,7.13868 4.5931,12.28516 4.70377,5.3125 11.3444,5.3125 5.69987,0 11.45508,-2.93294 3.20963,-1.66016 9.85026,-6.52995 3.15429,-2.32422 4.75911,-2.32422 2.37956,0 3.98438,1.82617 1.60481,1.77084 1.60481,3.98438 0,2.49023 -2.10286,4.37174 -14.60938,12.94922 -29.55078,12.94922 -11.45508,0 -19.36849,-8.79883 -7.63672,-8.52213 -7.63672,-20.14323 0,-18.75976 15.71614,-38.46028 13.11524,-16.43555 26.45183,-16.43555 2.71159,0 4.86979,0.27669 2.1582,0.22136 3.81836,0.77474 1.93685,-2.82226 5.03581,-2.82226 3.81836,0 4.81445,5.0358 0.88542,4.48243 0.88542,11.01237 0,2.26888 -1.21745,3.98438 -1.49414,2.1582 -4.26107,2.1582 z" />
      </g>
    </g>
  </g>
</svg>
