<?xml version="1.0" encoding="UTF-8" standalone="no"?>
<!-- Created with Inkscape (http://www.inkscape.org/) -->

<svg
   xmlns:dc="http://purl.org/dc/elements/1.1/"
   xmlns:cc="http://creativecommons.org/ns#"
   xmlns:rdf="http://www.w3.org/1999/02/22-rdf-syntax-ns#"
   xmlns:svg="http://www.w3.org/2000/svg"
   xmlns="http://www.w3.org/2000/svg"
   xmlns:sodipodi="http://sodipodi.sourceforge.net/DTD/sodipodi-0.dtd"
   xmlns:inkscape="http://www.inkscape.org/namespaces/inkscape"
   width="512"
   height="512"
   id="svg2"
   version="1.1"
   inkscape:version="0.92.2 5c3e80d, 2017-08-06"
   sodipodi:docname="application-x-addon.svg">
  <defs
     id="defs4" />
  <sodipodi:namedview
     id="base"
     pagecolor="#ffffff"
     bordercolor="#666666"
     borderopacity="1.0"
     inkscape:pageopacity="0.0"
     inkscape:pageshadow="2"
     inkscape:zoom="0.60666664"
     inkscape:cx="470.45723"
     inkscape:cy="331.66832"
     inkscape:document-units="px"
     inkscape:current-layer="layer1"
     showgrid="false"
     inkscape:window-width="1366"
     inkscape:window-height="717"
     inkscape:window-x="0"
     inkscape:window-y="24"
     inkscape:window-maximized="1" />
  <metadata
     id="metadata7">
    <rdf:RDF>
      <cc:Work
         rdf:about="">
        <dc:format>image/svg+xml</dc:format>
        <dc:type
           rdf:resource="http://purl.org/dc/dcmitype/StillImage" />
        <dc:title></dc:title>
      </cc:Work>
    </rdf:RDF>
  </metadata>
  <g
     inkscape:label="Layer 1"
     inkscape:groupmode="layer"
     id="layer1"
     transform="translate(0,-540.36218)">
    <g
       id="g895">
      <path
         style="fill:#68b723;fill-opacity:1;stroke-width:11.10955811"
         inkscape:connector-curvature="0"
         d="m 432.91324,596.83616 c 102.19291,88.57459 105.82677,249.69971 8.1168,359.89879 C 343.32009,1066.934 181.27965,1084.4628 79.086741,995.88821 -23.106205,907.31362 -26.740032,746.1885 70.969941,635.98942 168.67991,525.79034 330.72036,508.26157 432.91324,596.83616 Z"
         id="path937" />
      <path
         style="fill:#3a9104;fill-opacity:1;stroke:none;stroke-width:0.99999994px;stroke-linecap:butt;stroke-linejoin:miter;stroke-opacity:1"
         d="M 8.3652337,882.3622 C 19.949333,925.51393 43.551551,965.08854 79.085936,995.88757 181.27884,1084.4622 343.31934,1066.9343 441.02929,956.73525 461.3803,933.78301 477.31887,908.61718 488.90233,882.3622 Z"
         id="path939"
         inkscape:connector-curvature="0"
         sodipodi:nodetypes="csscc" />
      <path
         style="opacity:0.1;stroke-width:11.10955811"
         inkscape:connector-curvature="0"
         d="M 511.63547,765.26571 C 510.08409,826.57735 486.47425,889.42031 440.6691,941.08018 342.95915,1051.2793 180.9187,1068.808 78.725758,980.23348 30.827124,938.71783 4.4968187,881.28503 0.1938267,820.591 0.7990797,886.94767 27.117405,950.84437 79.078691,995.88125 181.2716,1084.4558 343.31975,1066.9184 441.02199,956.72796 490.72694,900.66985 514.02701,831.43699 511.63547,765.26571 Z"
         id="path941" />
      <path
         style="fill:#5ea51f;fill-opacity:0.95686275;stroke:none;stroke-width:1.03271949"
         d="m 129.10244,765.49493 h 19.87952 c 0,0 8.94972,-16.181 28.9156,-15.66261 19.96586,0.51841 27.74493,16.5146 27.71078,30.12048 -0.0341,13.60587 -10.88018,28.65992 -28.91558,29.21677 -18.03542,0.55694 -26.506,-15.66264 -26.506,-15.66264 h -21.08432 l -0.30123,75.9034 c 0,0 0.51477,5.94154 2.10848,8.13256 1.59368,2.19102 6.62645,4.2168 6.62645,4.2168 h 79.81917 v -19.27701 c 0,0 -15.01358,-8.62184 -15.36137,-26.20464 -0.34787,-17.58287 15.42365,-29.08603 28.91559,-29.51812 13.49193,-0.43198 29.12018,10.58868 30.12047,28.91574 1.00028,18.32695 -15.96382,27.40936 -15.96382,27.40936 v 19.27716 l 81.62642,-0.90363 c 0,0 4.30311,-2.21931 5.72288,-4.51804 1.41975,-2.29884 1.80724,-8.73495 1.80724,-8.73495 v -74.69863 l 13.85536,-0.30114 c 0,0 7.5264,16.33607 26.20476,15.66264 18.67842,-0.67344 28.22163,-14.46644 28.91567,-28.31325 0.69403,-13.84681 -10.95934,-30.94174 -28.91567,-30.72285 -17.95633,0.2189 -26.20476,15.96384 -26.20476,15.96384 l -14.15659,-0.30124 v -79.21675 l -3.61448,-6.62649 -6.02409,-3.01204 -78.91552,0.90361 0.30115,-14.15662 c 0,0 14.51651,-7.48865 15.36145,-25.30117 0.84494,-17.81251 -15.70414,-30.81062 -29.51803,-30.72285 -13.81397,0.0878 -29.319,10.4313 -29.51803,28.61442 -0.19911,18.18313 15.6626,27.71081 15.6626,27.71081 v 13.5542 H 139.6446 l -7.53011,3.01204 -3.61449,8.13253 z"
         id="path845"
         inkscape:connector-curvature="0"
         sodipodi:nodetypes="cczzzccczccczzzccczccczzzccccccczzzcccccc" />
      <path
         sodipodi:nodetypes="cczzzccczccczzzccczccczzzccccccczzzcccccc"
         inkscape:connector-curvature="0"
         id="path3057"
         d="m 119.10244,755.49493 h 19.87952 c 0,0 8.94972,-16.181 28.9156,-15.66261 19.96586,0.51841 27.74493,16.5146 27.71078,30.12048 -0.0341,13.60587 -10.88018,28.65992 -28.91558,29.21677 -18.03542,0.55694 -26.506,-15.66264 -26.506,-15.66264 h -21.08432 l -0.30123,75.9034 c 0,0 0.51477,5.94154 2.10848,8.13256 1.59368,2.19102 6.62645,4.2168 6.62645,4.2168 h 79.81917 v -19.27701 c 0,0 -15.01358,-8.62184 -15.36137,-26.20464 -0.34787,-17.58287 15.42365,-29.08603 28.91559,-29.51812 13.49193,-0.43198 29.12018,10.58868 30.12047,28.91574 1.00028,18.32695 -15.96382,27.40936 -15.96382,27.40936 v 19.27716 l 81.62642,-0.90363 c 0,0 4.30311,-2.21931 5.72288,-4.51804 1.41975,-2.29884 1.80724,-8.73495 1.80724,-8.73495 v -74.69863 l 13.85536,-0.30114 c 0,0 7.5264,16.33607 26.20476,15.66264 18.67842,-0.67344 28.22163,-14.46644 28.91567,-28.31325 0.69403,-13.84681 -10.95934,-30.94174 -28.91567,-30.72285 -17.95633,0.2189 -26.20476,15.96384 -26.20476,15.96384 l -14.15659,-0.30124 v -79.21675 l -3.61448,-6.62649 -6.02409,-3.01204 -78.91552,0.90361 0.30115,-14.15662 c 0,0 14.51651,-7.48865 15.36145,-25.30117 0.84494,-17.81251 -15.70414,-30.81062 -29.51803,-30.72285 -13.81397,0.0878 -29.319,10.4313 -29.51803,28.61442 -0.19911,18.18313 15.6626,27.71081 15.6626,27.71081 v 13.5542 H 129.6446 l -7.53011,3.01204 -3.61449,8.13253 z"
         style="fill:#ffffff;fill-opacity:1;stroke:none;stroke-width:1.03271949" />
      <g
         aria-label="ADDON"
         transform="matrix(0.73433068,0,0,0.73433068,24.697541,660.9566)"
         style="font-style:normal;font-weight:normal;font-size:40px;line-height:1.25;font-family:sans-serif;letter-spacing:0px;word-spacing:0px;fill:#348304;fill-opacity:1;stroke:none"
         id="g876">
        <path
           d="m 154.88802,454.29348 q -5.09114,0 -8.85416,-13.0599 -1.43881,-4.98047 -3.59701,-17.43164 -5.64453,0.77474 -14.77539,2.76693 l -14.72005,3.04362 q -2.76693,7.24935 -9.46289,21.19466 -1.77084,3.09896 -4.814457,3.09896 -2.213542,0 -3.984375,-1.60482 -1.715495,-1.60482 -1.715495,-3.98437 0,-2.65625 8.356117,-20.19857 -0.94075,-1.43881 -0.94075,-3.32032 0,-4.48242 5.42317,-5.7552 6.3086,-11.84245 15.93751,-27.22657 13.11523,-20.9733 16.32487,-20.9733 4.37174,0 5.97656,6.08723 l 3.48633,18.59376 8.24544,38.46028 3.1543,8.74349 q 1.60481,4.48242 1.60481,5.97656 0,2.37956 -1.71549,3.98438 -1.7155,1.60482 -3.92904,1.60482 z m -19.5345,-63.25196 -15.82683,25.51107 q 6.69597,-1.71549 20.30925,-4.15039 z"
           style="font-style:normal;font-variant:normal;font-weight:normal;font-stretch:normal;font-size:113.33333588px;font-family:'Comic Sans MS';-inkscape-font-specification:'Comic Sans MS';fill:#348304;fill-opacity:1"
           id="path866"
           inkscape:connector-curvature="0" />
        <path
           d="m 228.26693,452.24595 q -8.57748,5.86589 -24.62565,5.86589 -4.03972,0 -9.24154,-1.27279 -6.25326,-1.49414 -9.40755,-3.8737 h -0.55339 q -2.37955,0 -3.98437,-1.66015 -1.60482,-1.66016 -1.60482,-4.03972 0,-5.81054 0.49805,-17.3763 0.55338,-11.62109 0.55338,-17.43164 0,-6.47461 -0.27669,-19.31315 -0.22135,-12.89388 -0.22135,-19.36849 0,-2.26888 2.32421,-4.75912 2.32422,-2.49023 4.64844,-2.49023 1.32813,0 8.85417,3.70768 8.52213,4.15039 9.85026,4.5931 15.71615,5.36784 26.78385,16.49089 13.00456,13.11523 13.00456,28.83138 0,9.46289 -4.48242,18.15104 -4.42708,8.68815 -12.11914,13.94531 z m -11.6211,-58.54818 q -5.64453,-3.70768 -26.06445,-12.72786 l 0.27669,15.9375 0.16602,15.88216 -0.88542,30.21485 q 0.38737,0.16601 1.16211,0.7194 4.86979,3.26497 12.28516,3.26497 12.61719,0 18.37239,-3.8737 5.36784,-3.65234 8.52214,-9.79492 3.20964,-6.19792 3.20964,-12.89388 0,-15.60547 -17.04428,-26.72852 z"
           style="font-style:normal;font-variant:normal;font-weight:normal;font-stretch:normal;font-size:113.33333588px;font-family:'Comic Sans MS';-inkscape-font-specification:'Comic Sans MS';fill:#348304;fill-opacity:1"
           id="path868"
           inkscape:connector-curvature="0" />
        <path
           d="m 310.16798,452.24595 q -8.57748,5.86589 -24.62566,5.86589 -4.03971,0 -9.24153,-1.27279 -6.25326,-1.49414 -9.40756,-3.8737 h -0.55338 q -2.37956,0 -3.98438,-1.66015 -1.60481,-1.66016 -1.60481,-4.03972 0,-5.81054 0.49804,-17.3763 0.55339,-11.62109 0.55339,-17.43164 0,-6.47461 -0.27669,-19.31315 -0.22136,-12.89388 -0.22136,-19.36849 0,-2.26888 2.32422,-4.75912 2.32422,-2.49023 4.64844,-2.49023 1.32812,0 8.85417,3.70768 8.52213,4.15039 9.85026,4.5931 15.71614,5.36784 26.78385,16.49089 13.00456,13.11523 13.00456,28.83138 0,9.46289 -4.48242,18.15104 -4.42709,8.68815 -12.11914,13.94531 z m -11.6211,-58.54818 q -5.64453,-3.70768 -26.06445,-12.72786 l 0.27669,15.9375 0.16602,15.88216 -0.88542,30.21485 q 0.38737,0.16601 1.16211,0.7194 4.86979,3.26497 12.28516,3.26497 12.61718,0 18.37239,-3.8737 5.36784,-3.65234 8.52214,-9.79492 3.20963,-6.19792 3.20963,-12.89388 0,-15.60547 -17.04427,-26.72852 z"
           style="font-style:normal;font-variant:normal;font-weight:normal;font-stretch:normal;font-size:113.33333588px;font-family:'Comic Sans MS';-inkscape-font-specification:'Comic Sans MS';fill:#348304;fill-opacity:1"
           id="path870"
           inkscape:connector-curvature="0" />
        <path
           d="m 376.90626,456.00897 q -15.60547,0 -26.45182,-9.35221 -11.51042,-9.96094 -11.51042,-25.67709 0,-19.14713 11.3444,-34.80794 12.67253,-17.3763 31.59831,-17.3763 18.20638,0 27.06055,8.1901 9.24153,8.52214 9.24153,26.89454 0,19.14713 -10.40364,34.53125 -11.95313,17.59765 -30.87891,17.59765 z m 4.98047,-75.86914 q -13.55794,0 -22.9655,13.5026 -8.68815,12.39584 -8.68815,27.33724 0,10.68034 7.91342,17.37631 7.58138,6.30859 18.75976,6.30859 13.44727,0 22.19076,-13.55794 7.80273,-12.11914 7.80273,-27.22656 0,-13.22592 -5.92122,-18.59376 -5.64453,-5.14648 -19.0918,-5.14648 z"
           style="font-style:normal;font-variant:normal;font-weight:normal;font-stretch:normal;font-size:113.33333588px;font-family:'Comic Sans MS';-inkscape-font-specification:'Comic Sans MS';fill:#348304;fill-opacity:1"
           id="path872"
           inkscape:connector-curvature="0" />
        <path
           d="m 508.33529,440.34817 q 0,2.65625 -0.88542,8.85416 -0.88542,5.58919 -5.92122,5.58919 -3.04362,0 -7.24935,-3.98437 -22.52279,-21.30534 -51.6862,-61.48112 l -0.27669,12.56185 -0.16602,12.61719 q 0,4.59309 0.16602,13.77929 0.22135,9.1862 0.22135,13.83464 0,14.88607 -5.75521,14.88607 -3.04362,0 -4.81445,-1.93685 -1.60482,-1.7155 -1.60482,-4.09505 0,-2.32422 0.33203,-7.028 0.38737,-4.70378 0.38737,-7.02799 0,-3.43099 0.22136,-10.23764 0.22135,-6.86197 0.22135,-10.29296 0,-3.65235 -0.16601,-11.01237 -0.16602,-7.41537 -0.16602,-11.06771 0,-3.48633 -0.66406,-10.34831 -0.66407,-6.91732 -0.66407,-10.40365 0,-2.54557 2.15821,-4.64843 2.21354,-2.10287 4.98047,-2.10287 2.93294,0 7.24935,6.41927 13.77929,20.64128 24.79166,34.3099 13.11524,16.21419 28.77605,30.98958 0.16601,-2.37955 0,-7.02799 l -0.16602,-6.97266 q 0,-24.29362 -1.88151,-38.68164 -0.22136,-1.4388 -1.49414,-5.81055 -1.10677,-3.76302 -1.10677,-5.86588 0,-6.41927 5.86588,-6.41927 9.62891,0 9.62891,35.91471 0,6.14258 -0.16602,18.3724 -0.16601,12.17448 -0.16601,18.31706 z"
           style="font-style:normal;font-variant:normal;font-weight:normal;font-stretch:normal;font-size:113.33333588px;font-family:'Comic Sans MS';-inkscape-font-specification:'Comic Sans MS';fill:#348304;fill-opacity:1"
           id="path874"
           inkscape:connector-curvature="0" />
      </g>
      <g
         id="flowRoot847"
         style="font-style:normal;font-weight:normal;font-size:40px;line-height:1.25;font-family:sans-serif;letter-spacing:0px;word-spacing:0px;fill:#ffffff;fill-opacity:1;stroke:none"
         transform="matrix(0.73433068,0,0,0.73433068,14.697734,650.9566)"
         aria-label="ADDON">
        <path
           inkscape:connector-curvature="0"
           id="path855"
           style="font-style:normal;font-variant:normal;font-weight:normal;font-stretch:normal;font-size:113.33333588px;font-family:'Comic Sans MS';-inkscape-font-specification:'Comic Sans MS';fill:#ffffff"
           d="m 154.88802,454.29348 q -5.09114,0 -8.85416,-13.0599 -1.43881,-4.98047 -3.59701,-17.43164 -5.64453,0.77474 -14.77539,2.76693 l -14.72005,3.04362 q -2.76693,7.24935 -9.46289,21.19466 -1.77084,3.09896 -4.814457,3.09896 -2.213542,0 -3.984375,-1.60482 -1.715495,-1.60482 -1.715495,-3.98437 0,-2.65625 8.356117,-20.19857 -0.94075,-1.43881 -0.94075,-3.32032 0,-4.48242 5.42317,-5.7552 6.3086,-11.84245 15.93751,-27.22657 13.11523,-20.9733 16.32487,-20.9733 4.37174,0 5.97656,6.08723 l 3.48633,18.59376 8.24544,38.46028 3.1543,8.74349 q 1.60481,4.48242 1.60481,5.97656 0,2.37956 -1.71549,3.98438 -1.7155,1.60482 -3.92904,1.60482 z m -19.5345,-63.25196 -15.82683,25.51107 q 6.69597,-1.71549 20.30925,-4.15039 z" />
        <path
           inkscape:connector-curvature="0"
           id="path857"
           style="font-style:normal;font-variant:normal;font-weight:normal;font-stretch:normal;font-size:113.33333588px;font-family:'Comic Sans MS';-inkscape-font-specification:'Comic Sans MS';fill:#ffffff"
           d="m 228.26693,452.24595 q -8.57748,5.86589 -24.62565,5.86589 -4.03972,0 -9.24154,-1.27279 -6.25326,-1.49414 -9.40755,-3.8737 h -0.55339 q -2.37955,0 -3.98437,-1.66015 -1.60482,-1.66016 -1.60482,-4.03972 0,-5.81054 0.49805,-17.3763 0.55338,-11.62109 0.55338,-17.43164 0,-6.47461 -0.27669,-19.31315 -0.22135,-12.89388 -0.22135,-19.36849 0,-2.26888 2.32421,-4.75912 2.32422,-2.49023 4.64844,-2.49023 1.32813,0 8.85417,3.70768 8.52213,4.15039 9.85026,4.5931 15.71615,5.36784 26.78385,16.49089 13.00456,13.11523 13.00456,28.83138 0,9.46289 -4.48242,18.15104 -4.42708,8.68815 -12.11914,13.94531 z m -11.6211,-58.54818 q -5.64453,-3.70768 -26.06445,-12.72786 l 0.27669,15.9375 0.16602,15.88216 -0.88542,30.21485 q 0.38737,0.16601 1.16211,0.7194 4.86979,3.26497 12.28516,3.26497 12.61719,0 18.37239,-3.8737 5.36784,-3.65234 8.52214,-9.79492 3.20964,-6.19792 3.20964,-12.89388 0,-15.60547 -17.04428,-26.72852 z" />
        <path
           inkscape:connector-curvature="0"
           id="path859"
           style="font-style:normal;font-variant:normal;font-weight:normal;font-stretch:normal;font-size:113.33333588px;font-family:'Comic Sans MS';-inkscape-font-specification:'Comic Sans MS';fill:#ffffff"
           d="m 310.16798,452.24595 q -8.57748,5.86589 -24.62566,5.86589 -4.03971,0 -9.24153,-1.27279 -6.25326,-1.49414 -9.40756,-3.8737 h -0.55338 q -2.37956,0 -3.98438,-1.66015 -1.60481,-1.66016 -1.60481,-4.03972 0,-5.81054 0.49804,-17.3763 0.55339,-11.62109 0.55339,-17.43164 0,-6.47461 -0.27669,-19.31315 -0.22136,-12.89388 -0.22136,-19.36849 0,-2.26888 2.32422,-4.75912 2.32422,-2.49023 4.64844,-2.49023 1.32812,0 8.85417,3.70768 8.52213,4.15039 9.85026,4.5931 15.71614,5.36784 26.78385,16.49089 13.00456,13.11523 13.00456,28.83138 0,9.46289 -4.48242,18.15104 -4.42709,8.68815 -12.11914,13.94531 z m -11.6211,-58.54818 q -5.64453,-3.70768 -26.06445,-12.72786 l 0.27669,15.9375 0.16602,15.88216 -0.88542,30.21485 q 0.38737,0.16601 1.16211,0.7194 4.86979,3.26497 12.28516,3.26497 12.61718,0 18.37239,-3.8737 5.36784,-3.65234 8.52214,-9.79492 3.20963,-6.19792 3.20963,-12.89388 0,-15.60547 -17.04427,-26.72852 z" />
        <path
           inkscape:connector-curvature="0"
           id="path861"
           style="font-style:normal;font-variant:normal;font-weight:normal;font-stretch:normal;font-size:113.33333588px;font-family:'Comic Sans MS';-inkscape-font-specification:'Comic Sans MS';fill:#ffffff"
           d="m 376.90626,456.00897 q -15.60547,0 -26.45182,-9.35221 -11.51042,-9.96094 -11.51042,-25.67709 0,-19.14713 11.3444,-34.80794 12.67253,-17.3763 31.59831,-17.3763 18.20638,0 27.06055,8.1901 9.24153,8.52214 9.24153,26.89454 0,19.14713 -10.40364,34.53125 -11.95313,17.59765 -30.87891,17.59765 z m 4.98047,-75.86914 q -13.55794,0 -22.9655,13.5026 -8.68815,12.39584 -8.68815,27.33724 0,10.68034 7.91342,17.37631 7.58138,6.30859 18.75976,6.30859 13.44727,0 22.19076,-13.55794 7.80273,-12.11914 7.80273,-27.22656 0,-13.22592 -5.92122,-18.59376 -5.64453,-5.14648 -19.0918,-5.14648 z" />
        <path
           inkscape:connector-curvature="0"
           id="path863"
           style="font-style:normal;font-variant:normal;font-weight:normal;font-stretch:normal;font-size:113.33333588px;font-family:'Comic Sans MS';-inkscape-font-specification:'Comic Sans MS';fill:#ffffff"
           d="m 508.33529,440.34817 q 0,2.65625 -0.88542,8.85416 -0.88542,5.58919 -5.92122,5.58919 -3.04362,0 -7.24935,-3.98437 -22.52279,-21.30534 -51.6862,-61.48112 l -0.27669,12.56185 -0.16602,12.61719 q 0,4.59309 0.16602,13.77929 0.22135,9.1862 0.22135,13.83464 0,14.88607 -5.75521,14.88607 -3.04362,0 -4.81445,-1.93685 -1.60482,-1.7155 -1.60482,-4.09505 0,-2.32422 0.33203,-7.028 0.38737,-4.70378 0.38737,-7.02799 0,-3.43099 0.22136,-10.23764 0.22135,-6.86197 0.22135,-10.29296 0,-3.65235 -0.16601,-11.01237 -0.16602,-7.41537 -0.16602,-11.06771 0,-3.48633 -0.66406,-10.34831 -0.66407,-6.91732 -0.66407,-10.40365 0,-2.54557 2.15821,-4.64843 2.21354,-2.10287 4.98047,-2.10287 2.93294,0 7.24935,6.41927 13.77929,20.64128 24.79166,34.3099 13.11524,16.21419 28.77605,30.98958 0.16601,-2.37955 0,-7.02799 l -0.16602,-6.97266 q 0,-24.29362 -1.88151,-38.68164 -0.22136,-1.4388 -1.49414,-5.81055 -1.10677,-3.76302 -1.10677,-5.86588 0,-6.41927 5.86588,-6.41927 9.62891,0 9.62891,35.91471 0,6.14258 -0.16602,18.3724 -0.16601,12.17448 -0.16601,18.31706 z" />
      </g>
    </g>
  </g>
</svg>
