<?xml version="1.0" encoding="UTF-8" standalone="no"?>
<!-- Created with Inkscape (http://www.inkscape.org/) -->

<svg
   xmlns:dc="http://purl.org/dc/elements/1.1/"
   xmlns:cc="http://creativecommons.org/ns#"
   xmlns:rdf="http://www.w3.org/1999/02/22-rdf-syntax-ns#"
   xmlns:svg="http://www.w3.org/2000/svg"
   xmlns="http://www.w3.org/2000/svg"
   xmlns:sodipodi="http://sodipodi.sourceforge.net/DTD/sodipodi-0.dtd"
   xmlns:inkscape="http://www.inkscape.org/namespaces/inkscape"
   width="512"
   height="512"
   id="svg2"
   version="1.1"
   inkscape:version="0.92.2 5c3e80d, 2017-08-06"
   sodipodi:docname="application-x-compressed-tar.svg">
  <defs
     id="defs4" />
  <sodipodi:namedview
     id="base"
     pagecolor="#ffffff"
     bordercolor="#666666"
     borderopacity="1.0"
     inkscape:pageopacity="0.0"
     inkscape:pageshadow="2"
     inkscape:zoom="0.30333332"
     inkscape:cx="334.53422"
     inkscape:cy="398.86088"
     inkscape:document-units="px"
     inkscape:current-layer="layer1"
     showgrid="false"
     inkscape:window-width="1366"
     inkscape:window-height="717"
     inkscape:window-x="0"
     inkscape:window-y="24"
     inkscape:window-maximized="1" />
  <metadata
     id="metadata7">
    <rdf:RDF>
      <cc:Work
         rdf:about="">
        <dc:format>image/svg+xml</dc:format>
        <dc:type
           rdf:resource="http://purl.org/dc/dcmitype/StillImage" />
        <dc:title />
      </cc:Work>
    </rdf:RDF>
  </metadata>
  <g
     inkscape:label="Layer 1"
     inkscape:groupmode="layer"
     id="layer1"
     transform="translate(0,-540.36218)">
    <g
       id="g871">
      <path
         id="path955"
         d="m 432.91324,596.83612 c 102.19291,88.57459 105.82677,249.69971 8.1168,359.89879 C 343.32009,1066.934 181.27965,1084.4628 79.086741,995.8882 -23.106205,907.31358 -26.740032,746.18846 70.969941,635.98938 168.67991,525.7903 330.72036,508.26153 432.91324,596.83612 Z"
         inkscape:connector-curvature="0"
         style="fill:#8a715e;fill-opacity:1;stroke-width:11.10955811" />
      <path
         sodipodi:nodetypes="csscc"
         inkscape:connector-curvature="0"
         id="path957"
         d="M 8.3652338,882.36216 C 19.949333,925.51389 43.551551,965.0885 79.085936,995.8876 c 102.192904,88.5746 264.233404,71.0467 361.943354,-39.15239 20.35101,-22.95224 36.28958,-48.11807 47.87304,-74.37305 z"
         style="fill:#715344;fill-opacity:1;stroke:none;stroke-width:0.99999994px;stroke-linecap:butt;stroke-linejoin:miter;stroke-opacity:1" />
      <path
         id="path959"
         d="M 511.63547,765.26567 C 510.08409,826.57731 486.47425,889.42027 440.6691,941.08014 342.95915,1051.2793 180.9187,1068.808 78.725758,980.23344 30.827124,938.71779 4.4968188,881.28499 0.19382686,820.59096 0.79907986,886.94763 27.117405,950.84433 79.078691,995.8813 181.2716,1084.4558 343.31975,1066.9184 441.02199,956.72792 490.72694,900.66981 514.02701,831.43695 511.63547,765.26567 Z"
         inkscape:connector-curvature="0"
         style="opacity:1;stroke-width:11.10955811;fill:#000000;fill-opacity:0.49019608" />
      <path
         style="fill:#000000;fill-opacity:0.49019608;stroke-width:1.44776499"
         d="m 259.15546,890.27951 c -7.93094,-3.44714 -8.46873,-6.59703 -5.47531,-32.06994 2.30142,-19.58427 3.10794,-23.07173 6.17996,-26.72262 3.40702,-4.04901 3.98889,-4.19885 16.30559,-4.19885 12.3167,0 12.89858,0.14984 16.3056,4.19885 3.07202,3.65089 3.87853,7.13835 6.17996,26.72262 3.01578,25.66328 2.47224,28.67809 -5.79301,32.13153 -6.51909,2.72386 -27.38194,2.68573 -33.70279,-0.0615 z m 24.45062,-31.01267 c 2.71022,-2.19461 3.41786,-4.16943 3.41786,-9.53839 0,-7.79707 -3.97847,-12.306 -10.85824,-12.306 -6.87976,0 -10.85824,4.50893 -10.85824,12.306 0,7.79707 3.97848,12.30601 10.85824,12.30601 2.21239,0 5.56055,-1.24542 7.44038,-2.76762 z m -23.86529,-43.31292 c -3.2217,-3.55995 -3.02117,-8.30939 0.4995,-11.83006 2.46655,-2.46656 4.82588,-2.89553 15.92541,-2.89553 11.09955,0 13.45886,0.42897 15.92542,2.89553 3.61335,3.61334 3.7226,8.9371 0.24794,12.08161 -4.04188,3.65784 -29.23627,3.46342 -32.59827,-0.25155 z m 13.52938,-23.41218 v -5.79106 h -7.96271 -7.9627 v -5.06718 -5.06717 h 7.9627 7.96271 v -5.06718 -5.06718 h -7.96271 -7.9627 v -5.06718 -5.06718 h 7.9627 7.96271 v -5.79106 -5.79106 h -7.96271 -7.9627 v -5.06717 -5.06717 h 7.9627 7.96271 v -5.06719 -5.06717 h -7.96271 -7.9627 v -5.79107 -5.79105 h 7.9627 7.96271 v -5.06718 -5.06718 h -7.96271 -7.9627 v -5.79106 -5.79106 h 7.9627 7.96271 v -5.06717 -5.06719 h -7.96271 -7.9627 v -5.06718 -5.06716 h 7.9627 7.96271 v -5.79107 -5.79106 h -7.96271 -7.9627 v -5.06718 -5.06717 h 7.9627 7.96271 v -5.06718 -5.06718 h -7.96271 -7.9627 v -10.85823 -10.85824 h 18.82094 18.82095 v 5.06717 5.06718 h -7.96271 -7.9627 v 5.79106 5.79106 h 7.9627 7.96271 v 5.06718 5.06718 h -7.96271 -7.9627 v 5.06717 5.06718 h 7.9627 7.96271 v 5.79106 5.79107 h -7.96271 -7.9627 v 5.06716 5.06718 h 7.9627 7.96271 v 5.79107 5.79106 h -7.96271 -7.9627 v 5.06717 5.06718 h 7.9627 7.96271 v 5.06718 5.06718 h -7.96271 -7.9627 v 5.79105 5.79107 h 7.9627 7.96271 v 5.06717 5.06719 h -7.96271 -7.9627 v 5.06717 5.06717 h 7.9627 7.96271 v 5.06719 5.06717 h -7.96271 -7.9627 v 5.79106 5.79106 h 7.9627 7.96271 v 5.06718 5.06718 h -7.96271 -7.9627 v 5.06717 5.06718 h 7.9627 7.96271 v 5.79106 5.79105 h -10.85824 -10.85824 z"
         id="path843"
         inkscape:connector-curvature="0" />
      <path
         inkscape:connector-curvature="0"
         id="path924"
         d="m 239.15546,870.27951 c -7.93094,-3.44714 -8.46873,-6.59703 -5.47531,-32.06994 2.30142,-19.58427 3.10794,-23.07173 6.17996,-26.72262 3.40702,-4.04901 3.98889,-4.19885 16.30559,-4.19885 12.3167,0 12.89858,0.14984 16.3056,4.19885 3.07202,3.65089 3.87853,7.13835 6.17996,26.72262 3.01578,25.66328 2.47224,28.67809 -5.79301,32.13153 -6.51909,2.72386 -27.38194,2.68573 -33.70279,-0.0615 z m 24.45062,-31.01267 c 2.71022,-2.19461 3.41786,-4.16943 3.41786,-9.53839 0,-7.79707 -3.97847,-12.306 -10.85824,-12.306 -6.87976,0 -10.85824,4.50893 -10.85824,12.306 0,7.79707 3.97848,12.30601 10.85824,12.30601 2.21239,0 5.56055,-1.24542 7.44038,-2.76762 z m -23.86529,-43.31292 c -3.2217,-3.55995 -3.02117,-8.30939 0.4995,-11.83006 2.46655,-2.46656 4.82588,-2.89553 15.92541,-2.89553 11.09955,0 13.45886,0.42897 15.92542,2.89553 3.61335,3.61334 3.7226,8.9371 0.24794,12.08161 -4.04188,3.65784 -29.23627,3.46342 -32.59827,-0.25155 z m 13.52938,-23.41218 v -5.79106 h -7.96271 -7.9627 v -5.06718 -5.06717 h 7.9627 7.96271 v -5.06718 -5.06718 h -7.96271 -7.9627 v -5.06718 -5.06718 h 7.9627 7.96271 v -5.79106 -5.79106 h -7.96271 -7.9627 v -5.06717 -5.06717 h 7.9627 7.96271 v -5.06719 -5.06717 h -7.96271 -7.9627 v -5.79107 -5.79105 h 7.9627 7.96271 v -5.06718 -5.06718 h -7.96271 -7.9627 v -5.79106 -5.79106 h 7.9627 7.96271 v -5.06717 -5.06719 h -7.96271 -7.9627 v -5.06718 -5.06716 h 7.9627 7.96271 v -5.79107 -5.79106 h -7.96271 -7.9627 v -5.06718 -5.06717 h 7.9627 7.96271 v -5.06718 -5.06718 h -7.96271 -7.9627 v -10.85823 -10.85824 h 18.82094 18.82095 v 5.06717 5.06718 h -7.96271 -7.9627 v 5.79106 5.79106 h 7.9627 7.96271 v 5.06718 5.06718 h -7.96271 -7.9627 v 5.06717 5.06718 h 7.9627 7.96271 v 5.79106 5.79107 h -7.96271 -7.9627 v 5.06716 5.06718 h 7.9627 7.96271 v 5.79107 5.79106 h -7.96271 -7.9627 v 5.06717 5.06718 h 7.9627 7.96271 v 5.06718 5.06718 h -7.96271 -7.9627 v 5.79105 5.79107 h 7.9627 7.96271 v 5.06717 5.06719 h -7.96271 -7.9627 v 5.06717 5.06717 h 7.9627 7.96271 v 5.06719 5.06717 h -7.96271 -7.9627 v 5.79106 5.79106 h 7.9627 7.96271 v 5.06718 5.06718 h -7.96271 -7.9627 v 5.06717 5.06718 h 7.9627 7.96271 v 5.79106 5.79105 h -10.85824 -10.85824 z"
         style="fill:#ffffff;stroke-width:1.44776499" />
      <path
         inkscape:connector-curvature="0"
         id="path877"
         style="font-style:normal;font-variant:normal;font-weight:normal;font-stretch:normal;font-size:113.33333588px;line-height:1.25;font-family:'Comic Sans MS';-inkscape-font-specification:'Comic Sans MS';letter-spacing:0px;word-spacing:0px;fill:#000000;fill-opacity:0.49019608;stroke:none;stroke-width:0.85872805"
         d="m 145.40587,944.06453 q -3.51655,0 -10.83474,-0.57025 -7.12811,-0.52273 -10.83473,-0.47521 h -3.37398 q 0.14257,6.55787 1.28306,21.2893 1.04546,13.7335 1.04546,21.33682 0,1.66323 0.33264,5.0372 0.33265,3.37398 0.33265,5.08472 0,3.23141 -1.04546,5.55989 -1.33057,3.1364 -4.1343,3.1364 -1.90083,0 -3.42149,-1.3306 -1.52067,-1.3305 -1.52067,-3.42147 0,-0.71281 0.2376,-2.13843 0.23761,-1.42562 0.23761,-2.13844 0,-2.32851 -0.33265,-6.98554 -0.28512,-4.65704 -0.28512,-7.03308 0,-6.79547 -1.09298,-19.10334 -1.1405,-13.30581 -1.28306,-19.10334 l -4.32439,0.0475 q -10.407045,0 -16.347139,-1.52067 -3.849181,-0.99793 -3.849181,-4.70455 0,-1.94835 1.235539,-3.42149 1.425623,-1.66323 3.659099,-1.52067 1.663226,0.095 7.60332,0.85538 4.752072,0.57024 7.698362,0.57024 2.85125,0 8.64878,-0.095 5.79753,-0.14257 8.64878,-0.14257 3.6591,0 10.83473,0.52273 7.22316,0.52273 10.88226,0.52273 2.04338,0 3.42149,1.42562 1.3781,1.3781 1.3781,3.46902 0,2.04339 -1.3781,3.46901 -1.37811,1.3781 -3.42149,1.3781 z" />
      <path
         inkscape:connector-curvature="0"
         id="path879"
         style="font-style:normal;font-variant:normal;font-weight:normal;font-stretch:normal;font-size:113.33333588px;line-height:1.25;font-family:'Comic Sans MS';-inkscape-font-specification:'Comic Sans MS';letter-spacing:0px;word-spacing:0px;fill:#000000;fill-opacity:0.49019608;stroke:none;stroke-width:0.85872805"
         d="m 206.23243,1005.5089 q -4.37191,0 -7.60332,-11.21493 -1.23554,-4.27687 -3.08885,-14.96904 -4.84711,0.66529 -12.68804,2.37604 l -12.64053,2.61364 q -2.37603,6.22522 -8.12604,18.20049 -1.52067,2.6611 -4.13431,2.6611 -1.90083,0 -3.4215,-1.3781 -1.47314,-1.3781 -1.47314,-3.4215 0,-2.28097 7.17564,-17.34505 -0.80786,-1.23554 -0.80786,-2.85125 0,-3.84918 4.65704,-4.94216 5.41737,-10.16943 13.68598,-23.38021 11.26242,-18.01037 14.01862,-18.01037 3.75414,0 5.13224,5.22729 l 2.99381,15.96697 7.0806,33.02693 2.70868,7.50828 q 1.3781,3.84918 1.3781,5.13227 0,2.0434 -1.47314,3.4215 -1.47315,1.3781 -3.37398,1.3781 z m -16.77483,-54.31626 -13.59093,21.90707 q 5.75001,-1.47315 17.44012,-3.56405 z" />
      <path
         inkscape:connector-curvature="0"
         id="path881"
         style="font-style:normal;font-variant:normal;font-weight:normal;font-stretch:normal;font-size:113.33333588px;line-height:1.25;font-family:'Comic Sans MS';-inkscape-font-specification:'Comic Sans MS';letter-spacing:0px;word-spacing:0px;fill:#000000;fill-opacity:0.49019608;stroke:none;stroke-width:0.85872805"
         d="m 271.62099,1004.606 q -1.80578,0 -3.37397,-1.5207 -15.72937,-15.53927 -34.97528,-20.90912 l 0.38017,9.31407 0.2376,9.36155 q 0,2.0909 -1.3781,3.469 -1.33058,1.4257 -3.37397,1.4257 -2.04339,0 -3.4215,-1.4257 -1.33058,-1.3781 -1.33058,-3.469 0,-3.75411 -0.38017,-11.16734 -0.33264,-7.46076 -0.33264,-11.21491 0,-4.3719 0.95041,-13.02068 0.95042,-8.64878 0.95042,-12.97317 0,-2.42355 -0.47521,-7.17563 -0.42769,-4.75208 -0.42769,-7.17564 0,-2.70868 1.52067,-4.75207 1.80579,-2.51861 4.98968,-2.281 l 11.4525,0.9029 q 6.51034,0.80784 10.97729,3.18389 19.24591,10.21696 19.24591,24.9484 0,7.22315 -6.55786,12.78307 -5.2748,4.46696 -13.16325,6.79548 14.77896,7.93596 22.09715,16.7273 1.23554,1.52067 1.23554,3.23141 0,1.99589 -1.47314,3.46899 -1.42563,1.4732 -3.37398,1.4732 z m -30.27072,-62.82247 -7.03307,-0.57024 0.4752,5.75 q 0.33265,3.51654 0.33265,5.75001 0,3.80167 -0.61777,9.45663 l -0.99793,9.45663 q 0.66529,0 2.04339,0.0475 1.42562,0.0475 2.13843,0.0475 12.11779,0 18.15294,-3.23141 2.66115,-1.47314 4.94215,-3.84918 2.5186,-2.66116 2.5186,-4.51447 0,-6.60539 -7.50828,-12.30788 -6.89051,-5.22729 -14.44631,-6.03514 z" />
      <path
         inkscape:connector-curvature="0"
         id="path883"
         style="font-style:normal;font-variant:normal;font-weight:normal;font-stretch:normal;font-size:113.33333588px;line-height:1.25;font-family:'Comic Sans MS';-inkscape-font-specification:'Comic Sans MS';letter-spacing:0px;word-spacing:0px;fill:#000000;fill-opacity:0.49019608;stroke:none;stroke-width:0.85872805"
         d="m 341.09635,975.33319 q -2.94629,14.58887 -12.40292,23.33269 -9.40912,8.69632 -22.23972,8.69632 -11.6901,0 -17.53515,-6.5104 -5.84506,-6.55783 -5.84506,-19.62604 0,-12.30787 5.79753,-25.32856 5.84506,-13.06821 14.96904,-21.09922 6.08266,-5.36984 12.87812,-5.36984 4.32439,0 11.40499,2.85124 8.64878,3.4215 8.64878,7.5558 0,1.94835 -1.42563,3.46901 -1.42562,1.52067 -3.42149,1.52067 -1.04546,0 -2.94629,-1.18802 -7.27067,-4.41943 -12.26036,-4.41943 -3.56405,0 -7.46075,3.70662 -1.94836,1.85331 -5.60746,6.74795 -10.97729,14.54135 -10.97729,31.55378 0,8.93391 2.75621,12.49796 2.9938,3.89671 11.02481,3.89671 8.50622,0 14.77895,-5.36985 6.60539,-5.70249 9.21903,-16.29962 -13.16324,0.66529 -22.57236,5.08472 -1.09297,0.52273 -2.13843,0.52273 -2.09092,0 -3.46901,-1.61571 -1.28306,-1.47315 -1.28306,-3.4215 0,-2.61364 2.5186,-4.18182 10.26448,-6.27274 35.40296,-6.27274 2.04339,0 3.4215,1.3781 1.3781,1.3781 1.3781,3.46902 0,3.08884 -2.61364,4.41943 z" />
      <path
         id="path885"
         transform="translate(0,540.36218)"
         d="M 357.44336 392.01172 C 355.03564 392.01172 353.30913 392.23421 352.26367 392.67773 C 350.55293 393.37471 349.69727 394.8008 349.69727 396.95508 C 349.69727 400.21817 351.37625 401.84961 354.73438 401.84961 C 355.05118 401.84961 355.54174 401.83245 356.20703 401.80078 C 356.904 401.73745 357.4269 401.70703 357.77539 401.70703 L 376.97461 401.70703 L 393.60742 400.75586 C 387.52477 405.91978 380.94952 413.17573 373.88477 422.52148 L 356.73047 446.37695 L 351.64648 453.45703 C 349.68229 456.62508 348.69922 459.2548 348.69922 461.3457 C 348.69922 464.54544 350.5208 466.14453 354.16406 466.14453 C 358.9795 466.14453 366.20311 466.01714 375.83398 465.76367 C 379.15185 465.68753 381.79269 465.64374 384.53906 465.59375 C 388.94223 462.66669 393.28214 459.60057 397.55664 456.40234 C 393.28291 456.40472 387.14091 456.59488 379.11328 456.97266 L 360.62695 457.68555 C 361.38729 456.67177 362.16306 455.56323 362.95508 454.35938 L 379.63477 430.07617 C 386.92128 420.25521 393.44898 413.11148 399.21484 408.64453 L 405.62891 404.27344 C 409.30384 401.54892 411.14258 399.13974 411.14258 397.04883 C 411.14258 393.97581 407.07157 392.43945 398.92969 392.43945 C 396.45861 392.43945 392.7831 392.59921 387.9043 392.91602 C 383.05718 393.23282 379.41401 393.39063 376.97461 393.39062 C 374.78866 393.39062 371.52578 393.16814 367.18555 392.72461 C 362.877 392.2494 359.62931 392.01172 357.44336 392.01172 z "
         style="font-style:normal;font-variant:normal;font-weight:normal;font-stretch:normal;font-size:113.33333588px;line-height:1.25;font-family:'Comic Sans MS';-inkscape-font-specification:'Comic Sans MS';letter-spacing:0px;word-spacing:0px;fill:#000000;fill-opacity:0.49019608;stroke:none;stroke-width:0.85872805" />
      <g
         id="flowRoot858"
         style="font-style:normal;font-weight:normal;font-size:40px;line-height:1.25;font-family:sans-serif;letter-spacing:0px;word-spacing:0px;fill:#ffffff;fill-opacity:1;stroke:none"
         transform="matrix(0.85872803,0,0,0.85872803,7.6339944,596.04508)"
         aria-label="TARGZ">
        <path
           inkscape:connector-curvature="0"
           id="path866"
           style="font-style:normal;font-variant:normal;font-weight:normal;font-stretch:normal;font-size:113.33333588px;font-family:'Comic Sans MS';-inkscape-font-specification:'Comic Sans MS';fill:#ffffff"
           d="m 137.14649,381.98293 q -4.09506,0 -12.61719,-0.66406 -8.30078,-0.60873 -12.61719,-0.55339 h -3.92904 q 0.16602,7.63672 1.49414,24.79167 1.21745,15.99284 1.21745,24.847 0,1.93685 0.38737,5.86589 0.38737,3.92904 0.38737,5.92122 0,3.76302 -1.21745,6.47461 -1.54947,3.65235 -4.81445,3.65235 -2.21354,0 -3.98437,-1.54948 -1.770837,-1.54948 -1.770837,-3.98438 0,-0.83008 0.276692,-2.49023 0.276695,-1.66016 0.276695,-2.49024 0,-2.71158 -0.387372,-8.13476 -0.332031,-5.42318 -0.332031,-8.19011 0,-7.91341 -1.272787,-22.24609 -1.328125,-15.49479 -1.49414,-22.24609 l -5.035808,0.0553 q -12.119141,0 -19.036458,-1.77083 -4.482422,-1.16211 -4.482422,-5.47852 0,-2.26888 1.438802,-3.98437 1.660156,-1.93685 4.261068,-1.77083 1.936849,0.11067 8.854166,0.99609 5.533855,0.66406 8.964844,0.66406 3.320313,0 10.071618,-0.11067 6.7513,-0.16602 10.07161,-0.16602 4.26107,0 12.61719,0.60872 8.41146,0.60873 12.67253,0.60873 2.37955,0 3.98437,1.66015 1.60482,1.60482 1.60482,4.03972 0,2.37956 -1.60482,4.03971 -1.60482,1.60482 -3.98437,1.60482 z" />
        <path
           inkscape:connector-curvature="0"
           id="path868"
           style="font-style:normal;font-variant:normal;font-weight:normal;font-stretch:normal;font-size:113.33333588px;font-family:'Comic Sans MS';-inkscape-font-specification:'Comic Sans MS';fill:#ffffff"
           d="m 207.97982,453.53567 q -5.09115,0 -8.85417,-13.0599 -1.4388,-4.98047 -3.597,-17.43164 -5.64453,0.77474 -14.77539,2.76693 l -14.72006,3.04362 q -2.76692,7.24934 -9.46289,21.19466 -1.77083,3.09896 -4.81445,3.09896 -2.21354,0 -3.98438,-1.60482 -1.71549,-1.60482 -1.71549,-3.98438 0,-2.65625 8.35612,-20.19857 -0.94076,-1.4388 -0.94076,-3.32031 0,-4.48242 5.42318,-5.75521 6.3086,-11.84244 15.9375,-27.22656 13.11524,-20.97331 16.32487,-20.97331 4.37175,0 5.97656,6.08724 l 3.48633,18.59375 8.24545,38.46029 3.15429,8.74349 q 1.60482,4.48242 1.60482,5.97656 0,2.37956 -1.71549,3.98438 -1.7155,1.60482 -3.92904,1.60482 z m -19.53451,-63.25196 -15.82682,25.51107 q 6.69596,-1.7155 20.30925,-4.15039 z" />
        <path
           inkscape:connector-curvature="0"
           id="path870"
           style="font-style:normal;font-variant:normal;font-weight:normal;font-stretch:normal;font-size:113.33333588px;font-family:'Comic Sans MS';-inkscape-font-specification:'Comic Sans MS';fill:#ffffff"
           d="m 284.12565,452.48423 q -2.10286,0 -3.92903,-1.77083 -18.31706,-18.0957 -40.72917,-24.34896 l 0.44271,10.84636 0.27669,10.90169 q 0,2.43489 -1.60482,4.03971 -1.54948,1.66016 -3.92903,1.66016 -2.37956,0 -3.98438,-1.66016 -1.54948,-1.60482 -1.54948,-4.03971 0,-4.37175 -0.44271,-13.00456 -0.38737,-8.68815 -0.38737,-13.0599 0,-5.09114 1.10677,-15.16276 1.10677,-10.07161 1.10677,-15.10742 0,-2.82226 -0.55338,-8.35612 -0.49805,-5.53385 -0.49805,-8.35612 0,-3.1543 1.77084,-5.53385 2.10286,-2.93295 5.81054,-2.65625 l 13.33659,1.05143 q 7.58138,0.94075 12.7832,3.70768 22.41211,11.89779 22.41211,29.05274 0,8.41146 -7.63671,14.88606 -6.14258,5.20183 -15.32878,7.91342 17.21029,9.24153 25.73242,19.47916 1.4388,1.77084 1.4388,3.76302 0,2.32422 -1.71549,4.03972 -1.66016,1.71549 -3.92904,1.71549 z m -35.25065,-73.15755 -8.1901,-0.66406 0.55338,6.69596 q 0.38737,4.09505 0.38737,6.69596 0,4.42709 -0.7194,11.01237 l -1.16211,11.01237 q 0.77474,0 2.37956,0.0553 1.66015,0.0553 2.49023,0.0553 14.11133,0 21.13933,-3.76302 3.09895,-1.71549 5.7552,-4.48242 2.93295,-3.09896 2.93295,-5.25716 0,-7.69206 -8.74349,-14.33269 -8.02409,-6.08724 -16.82292,-7.02799 z" />
        <path
           inkscape:connector-curvature="0"
           id="path872"
           style="font-style:normal;font-variant:normal;font-weight:normal;font-stretch:normal;font-size:113.33333588px;font-family:'Comic Sans MS';-inkscape-font-specification:'Comic Sans MS';fill:#ffffff"
           d="m 365.03061,418.39569 q -3.43099,16.98893 -14.44336,27.17123 -10.95704,10.12695 -25.89844,10.12695 -13.61328,0 -20.41992,-7.58138 -6.80665,-7.63672 -6.80665,-22.85482 0,-14.33268 6.75131,-29.49544 6.80664,-15.2181 17.43164,-24.57032 7.08333,-6.25325 14.99674,-6.25325 5.03581,0 13.28125,3.32031 10.07162,3.98438 10.07162,8.79883 0,2.26888 -1.66016,4.03971 -1.66015,1.77084 -3.98437,1.77084 -1.21745,0 -3.43099,-1.38347 -8.4668,-5.14648 -14.27735,-5.14648 -4.15039,0 -8.68815,4.3164 -2.26888,2.15821 -6.52995,7.85808 -12.7832,16.93359 -12.7832,36.74479 0,10.40365 3.20964,14.55404 3.48632,4.53776 12.83854,4.53776 9.9056,0 17.21028,-6.25326 7.69206,-6.64062 10.73568,-18.98112 -15.32877,0.77474 -26.28581,5.92123 -1.27278,0.60872 -2.49023,0.60872 -2.4349,0 -4.03971,-1.88151 -1.49414,-1.7155 -1.49414,-3.98438 0,-3.04362 2.93294,-4.86979 11.95312,-7.30469 41.22721,-7.30469 2.37956,0 3.98438,1.60482 1.60482,1.60482 1.60482,4.03972 0,3.597 -3.04362,5.14648 z" />
        <path
           inkscape:connector-curvature="0"
           id="path874"
           style="font-style:normal;font-variant:normal;font-weight:normal;font-stretch:normal;font-size:113.33333588px;font-family:'Comic Sans MS';-inkscape-font-specification:'Comic Sans MS';fill:#ffffff"
           d="m 440.18036,382.64699 -7.4707,5.09115 q -10.07162,7.80273 -22.79948,24.95768 l -19.42383,28.278 q -1.38346,2.10286 -2.71159,3.87369 l 21.52669,-0.83007 q 14.11133,-0.66407 21.58204,-0.66407 7.30468,0 10.79101,0.66407 4.48242,0.88541 4.64844,4.53776 0.11068,2.71159 -1.77083,4.3164 -1.66016,1.38347 -4.1504,1.38347 -1.60481,0 -4.81445,-0.22136 -3.20963,-0.16601 -4.81445,-0.16601 -8.41146,0 -25.28972,0.38737 -16.82291,0.4427 -25.23437,0.4427 -6.36393,0 -6.36393,-5.58919 0,-3.65234 3.43099,-9.1862 l 5.92122,-8.24544 19.97721,-27.77995 q 12.3405,-16.32487 22.9655,-25.34505 l -19.36849,1.10677 h -22.35677 q -0.60873,0 -1.82617,0.11068 -1.16211,0.0553 -1.7155,0.0553 -5.86588,0 -5.86588,-5.69987 0,-3.76302 2.98828,-4.98047 1.82617,-0.77474 6.0319,-0.77474 3.81836,0 11.3444,0.83008 7.58138,0.77474 11.39974,0.77474 4.26107,0 12.72786,-0.55339 8.52214,-0.55339 12.83855,-0.55339 14.222,0 14.222,5.36784 0,3.65235 -6.41927,8.41146 z" />
      </g>
    </g>
  </g>
</svg>
