<?xml version="1.0" encoding="UTF-8" standalone="no"?>
<!-- Created with Inkscape (http://www.inkscape.org/) -->

<svg
   xmlns:dc="http://purl.org/dc/elements/1.1/"
   xmlns:cc="http://creativecommons.org/ns#"
   xmlns:rdf="http://www.w3.org/1999/02/22-rdf-syntax-ns#"
   xmlns:svg="http://www.w3.org/2000/svg"
   xmlns="http://www.w3.org/2000/svg"
   xmlns:sodipodi="http://sodipodi.sourceforge.net/DTD/sodipodi-0.dtd"
   xmlns:inkscape="http://www.inkscape.org/namespaces/inkscape"
   width="512"
   height="512"
   id="svg2"
   version="1.1"
   inkscape:version="0.92.2 5c3e80d, 2017-08-06"
   sodipodi:docname="application-x-k3b.svg">
  <defs
     id="defs4">
    <linearGradient
       x1="0"
       y1="0"
       x2="1"
       y2="0"
       gradientUnits="userSpaceOnUse"
       gradientTransform="matrix(0.0722656,0,0,-0.0722656,200.72217,103.27344)"
       spreadMethod="pad"
       id="linearGradient356">
      <stop
         style="stop-opacity:1;stop-color:#ffce00"
         offset="0"
         id="stop358" />
      <stop
         style="stop-opacity:1;stop-color:#ffb500"
         offset="0.266663"
         id="stop360" />
      <stop
         style="stop-opacity:1;stop-color:#ffb500"
         offset="0.266663"
         id="stop362" />
      <stop
         style="stop-opacity:1;stop-color:#ff3800"
         offset="1"
         id="stop364" />
    </linearGradient>
    <linearGradient
       x1="0"
       y1="0"
       x2="1"
       y2="0"
       gradientUnits="userSpaceOnUse"
       gradientTransform="matrix(0.3618164,0,0,-0.3618164,153.61572,194.44922)"
       spreadMethod="pad"
       id="linearGradient380">
      <stop
         style="stop-opacity:1;stop-color:#ffce00"
         offset="0"
         id="stop382" />
      <stop
         style="stop-opacity:1;stop-color:#ffb500"
         offset="0.266663"
         id="stop384" />
      <stop
         style="stop-opacity:1;stop-color:#ffb500"
         offset="0.266663"
         id="stop386" />
      <stop
         style="stop-opacity:1;stop-color:#ff3800"
         offset="1"
         id="stop388" />
    </linearGradient>
  </defs>
  <sodipodi:namedview
     id="base"
     pagecolor="#ffffff"
     bordercolor="#666666"
     borderopacity="1.0"
     inkscape:pageopacity="0.0"
     inkscape:pageshadow="2"
     inkscape:zoom="0.60666664"
     inkscape:cx="18.07821"
     inkscape:cy="323.06959"
     inkscape:document-units="px"
     inkscape:current-layer="layer1"
     showgrid="false"
     inkscape:window-width="1366"
     inkscape:window-height="717"
     inkscape:window-x="0"
     inkscape:window-y="24"
     inkscape:window-maximized="1" />
  <metadata
     id="metadata7">
    <rdf:RDF>
      <cc:Work
         rdf:about="">
        <dc:format>image/svg+xml</dc:format>
        <dc:type
           rdf:resource="http://purl.org/dc/dcmitype/StillImage" />
        <dc:title />
      </cc:Work>
    </rdf:RDF>
  </metadata>
  <g
     inkscape:label="Layer 1"
     inkscape:groupmode="layer"
     id="layer1"
     transform="translate(0,-540.36218)">
    <g
       id="g862">
      <path
         style="fill:#c6262e;fill-opacity:1;stroke-width:11.10955811"
         inkscape:connector-curvature="0"
         d="m 432.91326,596.83616 c 102.19291,88.57459 105.82678,249.69971 8.1168,359.89879 C 343.32009,1066.934 181.27965,1084.4628 79.086741,995.8882 -23.106205,907.31362 -26.740032,746.1885 70.969941,635.98942 168.67991,525.79034 330.72036,508.26157 432.91326,596.83616 Z"
         id="path961" />
      <path
         style="fill:#a10705;fill-opacity:1;stroke:none;stroke-width:0.99999994px;stroke-linecap:butt;stroke-linejoin:miter;stroke-opacity:1"
         d="m 8.3652397,882.3622 c 11.5841023,43.15173 35.1863073,82.72637 70.7207073,113.5254 102.192913,88.5746 264.233393,71.0467 361.943363,-39.15235 20.35102,-22.95224 36.28955,-48.11807 47.87304,-74.37305 z"
         id="path963"
         inkscape:connector-curvature="0"
         sodipodi:nodetypes="csscc" />
      <path
         style="opacity:1;stroke-width:11.10955811;fill:#000000;fill-opacity:0.49019608"
         inkscape:connector-curvature="0"
         d="m 511.6355,765.26571 c -1.55139,61.31164 -25.16123,124.1546 -70.96638,175.81447 C 342.95915,1051.2793 180.9187,1068.808 78.725758,980.23348 30.827125,938.71783 4.4968177,881.28503 0.19382579,820.591 0.79907979,886.94767 27.117405,950.84437 79.07869,995.8813 c 102.19291,88.5745 264.24106,71.0371 361.94332,-39.15334 49.70495,-56.05811 73.00502,-125.29097 70.61349,-191.46225 z"
         id="path965" />
      <path
         style="fill:#000000;fill-opacity:0.49019608;stroke-width:1.33138967"
         d="M 253.80281,891.03191 C 209.59077,883.1976 172.62826,855.7709 152.9973,816.23285 c -14.79189,-29.7919 -18.38273,-63.3023 -10.22796,-95.44938 17.89768,-70.55468 90.0197,-115.40292 161.19856,-100.23943 76.9417,16.39117 124.81294,93.5402 105.08702,169.35768 -13.02751,50.07175 -53.64798,88.67473 -105.08702,99.8676 -13.098,2.85006 -37.71051,3.46953 -50.16509,1.26259 z m -12.06371,-52.5436 13.28116,-33.14373 -7.9444,-5.13373 c -7.11432,-4.59733 -19.66287,-18.5787 -19.66287,-21.90802 0,-0.65971 -0.63198,-1.19947 -1.4044,-1.19947 -0.77244,0 -15.78085,6.14103 -33.35203,13.64674 -26.91381,11.49651 -31.84838,14.02683 -31.31775,16.05903 2.99909,11.48599 24.8363,38.78713 39.82535,49.7901 6.25888,4.59444 24.45496,14.91654 26.43846,14.99777 0.47043,0.0193 6.83185,-14.87965 14.13648,-33.10869 z m 52.90907,-45.74096 c 7.92574,-4.08544 15.19072,-11.40667 19.48729,-19.63816 4.47532,-12.01478 5.05002,-26.19657 -0.41222,-36.61322 -4.23573,-7.97874 -11.57772,-15.22645 -19.74076,-19.48728 -20.69851,-8.67607 -44.31374,-1.28873 -55.68829,19.48728 -7.17654,16.11223 -3.02315,36.37574 7.56656,47.70999 14.62359,12.56493 33.22415,16.42182 48.78742,8.54139 z m -25.93556,-21.90439 c -5.82694,-3.01027 -10.67766,-10.14601 -10.67766,-15.70753 0,-9.70427 11.38106,-19.13224 20.93258,-17.34037 6.29508,1.18096 13.20059,8.08648 14.38155,14.38155 2.50006,13.3264 -12.69203,24.83703 -24.63647,18.66635 z m 89.66505,-51.09415 c 16.93955,-7.38028 31.3265,-13.92882 31.97102,-14.55231 1.48619,-1.43771 -6.85347,-16.7216 -14.47204,-26.52254 -6.29851,-8.10273 -16.96354,-18.64139 -25.3101,-25.0102 -8.19348,-6.25199 -23.34881,-14.18624 -24.57996,-12.86829 -1.46375,1.56694 -28.00994,62.49266 -28.00994,64.28518 0,0.77271 2.24673,2.56697 4.99272,3.98723 5.69348,2.94475 16.09342,13.35903 19.74536,19.7726 1.35511,2.37986 3.00381,4.32702 3.6638,4.32702 0.65997,0 15.05958,-6.03841 31.99914,-13.41869 z"
         id="path856"
         inkscape:connector-curvature="0"
         sodipodi:nodetypes="sssssssscsssscscscccccccssccssscscsccss" />
      <path
         sodipodi:nodetypes="sssssssscsssscscscccccccssccssscscsccss"
         inkscape:connector-curvature="0"
         id="path854"
         d="M 233.80281,871.03191 C 189.59077,863.1976 152.62826,835.7709 132.9973,796.23285 c -14.79189,-29.7919 -18.38273,-63.3023 -10.22796,-95.44938 17.89768,-70.55468 90.0197,-115.40292 161.19856,-100.23943 76.9417,16.39117 124.81294,93.5402 105.08702,169.35768 -13.02751,50.07175 -53.64798,88.67473 -105.08702,99.8676 -13.098,2.85006 -37.71051,3.46953 -50.16509,1.26259 z m -12.06371,-52.5436 13.28116,-33.14373 -7.9444,-5.13373 c -7.11432,-4.59733 -19.66287,-18.5787 -19.66287,-21.90802 0,-0.65971 -0.63198,-1.19947 -1.4044,-1.19947 -0.77244,0 -15.78085,6.14103 -33.35203,13.64674 -26.91381,11.49651 -31.84838,14.02683 -31.31775,16.05903 2.99909,11.48599 24.8363,38.78713 39.82535,49.7901 6.25888,4.59444 24.45496,14.91654 26.43846,14.99777 0.47043,0.0193 6.83185,-14.87965 14.13648,-33.10869 z m 52.90907,-45.74096 c 7.92574,-4.08544 15.19072,-11.40667 19.48729,-19.63816 4.47532,-12.01478 5.05002,-26.19657 -0.41222,-36.61322 -4.23573,-7.97874 -11.57772,-15.22645 -19.74076,-19.48728 -20.69851,-8.67607 -44.31374,-1.28873 -55.68829,19.48728 -7.17654,16.11223 -3.02315,36.37574 7.56656,47.70999 14.62359,12.56493 33.22415,16.42182 48.78742,8.54139 z m -25.93556,-21.90439 c -5.82694,-3.01027 -10.67766,-10.14601 -10.67766,-15.70753 0,-9.70427 11.38106,-19.13224 20.93258,-17.34037 6.29508,1.18096 13.20059,8.08648 14.38155,14.38155 2.50006,13.3264 -12.69203,24.83703 -24.63647,18.66635 z m 89.66505,-51.09415 c 16.93955,-7.38028 31.3265,-13.92882 31.97102,-14.55231 1.48619,-1.43771 -6.85347,-16.7216 -14.47204,-26.52254 -6.29851,-8.10273 -16.96354,-18.64139 -25.3101,-25.0102 -8.19348,-6.25199 -23.34881,-14.18624 -24.57996,-12.86829 -1.46375,1.56694 -28.00994,62.49266 -28.00994,64.28518 0,0.77271 2.24673,2.56697 4.99272,3.98723 5.69348,2.94475 16.09342,13.35903 19.74536,19.7726 1.35511,2.37986 3.00381,4.32702 3.6638,4.32702 0.65997,0 15.05958,-6.03841 31.99914,-13.41869 z"
         style="fill:#ffffff;stroke-width:1.33138967" />
      <g
         id="flowRoot936"
         style="font-style:normal;font-weight:normal;font-size:40px;line-height:1.25;font-family:sans-serif;letter-spacing:0px;word-spacing:0px;fill:#000000;fill-opacity:0.49019608;stroke:none"
         transform="translate(53.4329,545.90138)"
         aria-label="K3B">
        <path
           id="path857"
           style="font-style:normal;font-variant:normal;font-weight:normal;font-stretch:normal;font-size:113.33333588px;font-family:'Comic Sans MS';-inkscape-font-specification:'Comic Sans MS';fill:#000000;fill-opacity:0.49019608"
           d="m 178.02995,457.64244 q -8.41146,0 -23.96159,-14.77539 l -16.54622,-16.65691 v 0.77474 l -0.0553,28.9974 q 0,5.47852 -4.81446,5.47852 -3.15429,0 -5.0358,-2.76693 -1.54948,-2.26888 -1.54948,-4.92513 0,-12.94922 0.77474,-38.73698 0.77474,-25.78776 0.77474,-38.68164 0,-2.37956 1.54948,-4.03972 1.60481,-1.66015 3.92903,-1.66015 2.37956,0 3.92904,1.66015 1.60482,1.66016 1.60482,4.03972 0,5.36784 -0.66407,16.71224 -0.66406,10.95703 -0.60872,16.76758 7.41537,-7.028 16.76758,-17.653 l 15.88216,-18.42773 q 1.88151,-2.15821 4.20573,-2.15821 2.21354,0 3.92904,1.66016 1.71549,1.66015 1.71549,4.03971 0,3.65235 -14.27734,19.47917 -9.85026,10.79101 -20.36459,21.13932 6.64063,6.97266 20.8073,20.03255 l 5.81054,4.8698 q 3.1543,2.43489 6.80664,3.65234 4.37175,1.4388 4.37175,5.47852 0,1.88151 -1.16211,3.597 -1.4388,2.10287 -3.81836,2.10287 z"
           inkscape:connector-curvature="0" />
        <path
           id="path859"
           style="font-style:normal;font-variant:normal;font-weight:normal;font-stretch:normal;font-size:113.33333588px;font-family:'Comic Sans MS';-inkscape-font-specification:'Comic Sans MS';fill:#000000;fill-opacity:0.49019608"
           d="m 216.98829,457.91913 q -8.35612,0 -14.99675,-3.48633 -7.4707,-4.03971 -10.07161,-11.3444 -0.33203,-0.99609 -0.33203,-1.93685 0,-2.21354 1.66015,-3.65234 1.7155,-1.49414 3.92904,-1.49414 2.21354,0 3.81836,2.04752 l 2.54557,3.81836 q 1.99219,2.71159 5.36784,4.09505 3.37565,1.32813 8.07943,1.32813 6.0319,0 10.56966,-3.76302 4.81445,-3.98438 4.81445,-9.73959 0,-8.35612 -6.14258,-13.33658 -5.42317,-4.31641 -14.38802,-5.25717 -6.14258,-0.60872 -6.14258,-4.98047 0,-3.26497 4.81446,-4.98046 l 13.22591,-3.26498 q 3.81836,-1.38346 5.75521,-3.70768 1.93685,-2.37956 1.99219,-5.75521 0.11067,-4.86979 -3.76303,-7.85807 -4.03971,-3.09896 -11.3444,-3.09896 -3.76302,0 -7.30468,1.82617 l -6.25326,3.92904 q -1.82617,1.16211 -2.93294,1.16211 -2.21354,0 -3.81836,-1.66016 -1.54948,-1.71549 -1.54948,-3.8737 0,-4.37174 8.4668,-8.41146 7.36002,-3.597 12.11914,-3.597 11.89778,0 18.87044,5.25716 7.4707,5.64453 7.4707,16.10352 0,13.00455 -10.51432,17.15495 -0.94076,0.38737 -2.1582,0.77473 7.36002,2.71159 11.01237,8.13477 3.65234,5.36784 3.65234,13.44727 0,10.90169 -7.69206,18.53841 -7.69205,7.58138 -18.75976,7.58138 z"
           inkscape:connector-curvature="0" />
        <path
           id="path861"
           style="font-style:normal;font-variant:normal;font-weight:normal;font-stretch:normal;font-size:113.33333588px;font-family:'Comic Sans MS';-inkscape-font-specification:'Comic Sans MS';fill:#000000;fill-opacity:0.49019608"
           d="m 301.82228,453.16001 q -12.45118,4.8698 -31.81967,4.8698 -2.37955,0 -4.53776,-2.26888 -2.10286,-2.21355 -2.10286,-4.5931 v -16.10352 q 0,-7.91341 0.99609,-22.57812 1.10677,-15.82683 1.21745,-22.91016 -0.0553,-5.09115 0.60873,-15.16276 0.38737,-2.76693 1.82617,-3.65235 7.52604,-2.32422 17.09961,-2.32422 9.73958,0 18.70442,6.64063 10.34831,7.63672 10.34831,18.87044 0,14.22201 -11.06771,22.41211 8.30078,3.54167 12.39584,7.85808 4.15039,4.3164 4.15039,9.40755 0,6.69596 -7.24935,12.94922 -5.03581,4.42708 -10.56966,6.58528 z m -16.71224,-73.43424 q -6.0319,0 -8.4668,0.38737 l -0.11068,9.68424 -1.10677,21.41602 q 7.85808,0.66406 8.41146,0.60872 8.35612,-0.66406 13.66862,-5.20182 5.69987,-4.92513 5.69987,-12.67253 0,-5.25716 -5.81055,-9.73958 -5.81054,-4.48242 -12.28515,-4.48242 z m 6.19791,44.32617 -5.86588,-0.94075 q -0.7194,0 -2.21354,0.11067 -1.43881,0.0553 -2.21355,0.0553 -2.98828,0 -6.36393,-0.49805 -0.33203,6.97266 -0.33203,12.45118 v 11.45507 q 14.4987,-0.49804 23.62956,-4.09505 3.8737,-1.49414 7.41536,-4.64844 3.37565,-2.8776 3.37565,-4.3164 0,-2.60091 -7.08333,-5.86589 -5.3125,-2.49023 -10.34831,-3.70768 z"
           inkscape:connector-curvature="0" />
      </g>
      <g
         id="flowRoot922"
         style="font-style:normal;font-weight:normal;font-size:40px;line-height:1.25;font-family:sans-serif;letter-spacing:0px;word-spacing:0px;fill:#ffffff;fill-opacity:1;stroke:none"
         transform="translate(33.432942,525.90138)"
         aria-label="K3B">
        <path
           id="path849"
           style="font-style:normal;font-variant:normal;font-weight:normal;font-stretch:normal;font-size:113.33333588px;font-family:'Comic Sans MS';-inkscape-font-specification:'Comic Sans MS';fill:#ffffff"
           d="m 178.02995,457.64244 q -8.41146,0 -23.96159,-14.77539 l -16.54622,-16.65691 v 0.77474 l -0.0553,28.9974 q 0,5.47852 -4.81446,5.47852 -3.15429,0 -5.0358,-2.76693 -1.54948,-2.26888 -1.54948,-4.92513 0,-12.94922 0.77474,-38.73698 0.77474,-25.78776 0.77474,-38.68164 0,-2.37956 1.54948,-4.03972 1.60481,-1.66015 3.92903,-1.66015 2.37956,0 3.92904,1.66015 1.60482,1.66016 1.60482,4.03972 0,5.36784 -0.66407,16.71224 -0.66406,10.95703 -0.60872,16.76758 7.41537,-7.028 16.76758,-17.653 l 15.88216,-18.42773 q 1.88151,-2.15821 4.20573,-2.15821 2.21354,0 3.92904,1.66016 1.71549,1.66015 1.71549,4.03971 0,3.65235 -14.27734,19.47917 -9.85026,10.79101 -20.36459,21.13932 6.64063,6.97266 20.8073,20.03255 l 5.81054,4.8698 q 3.1543,2.43489 6.80664,3.65234 4.37175,1.4388 4.37175,5.47852 0,1.88151 -1.16211,3.597 -1.4388,2.10287 -3.81836,2.10287 z"
           inkscape:connector-curvature="0" />
        <path
           id="path851"
           style="font-style:normal;font-variant:normal;font-weight:normal;font-stretch:normal;font-size:113.33333588px;font-family:'Comic Sans MS';-inkscape-font-specification:'Comic Sans MS';fill:#ffffff"
           d="m 216.98829,457.91913 q -8.35612,0 -14.99675,-3.48633 -7.4707,-4.03971 -10.07161,-11.3444 -0.33203,-0.99609 -0.33203,-1.93685 0,-2.21354 1.66015,-3.65234 1.7155,-1.49414 3.92904,-1.49414 2.21354,0 3.81836,2.04752 l 2.54557,3.81836 q 1.99219,2.71159 5.36784,4.09505 3.37565,1.32813 8.07943,1.32813 6.0319,0 10.56966,-3.76302 4.81445,-3.98438 4.81445,-9.73959 0,-8.35612 -6.14258,-13.33658 -5.42317,-4.31641 -14.38802,-5.25717 -6.14258,-0.60872 -6.14258,-4.98047 0,-3.26497 4.81446,-4.98046 l 13.22591,-3.26498 q 3.81836,-1.38346 5.75521,-3.70768 1.93685,-2.37956 1.99219,-5.75521 0.11067,-4.86979 -3.76303,-7.85807 -4.03971,-3.09896 -11.3444,-3.09896 -3.76302,0 -7.30468,1.82617 l -6.25326,3.92904 q -1.82617,1.16211 -2.93294,1.16211 -2.21354,0 -3.81836,-1.66016 -1.54948,-1.71549 -1.54948,-3.8737 0,-4.37174 8.4668,-8.41146 7.36002,-3.597 12.11914,-3.597 11.89778,0 18.87044,5.25716 7.4707,5.64453 7.4707,16.10352 0,13.00455 -10.51432,17.15495 -0.94076,0.38737 -2.1582,0.77473 7.36002,2.71159 11.01237,8.13477 3.65234,5.36784 3.65234,13.44727 0,10.90169 -7.69206,18.53841 -7.69205,7.58138 -18.75976,7.58138 z"
           inkscape:connector-curvature="0" />
        <path
           id="path853"
           style="font-style:normal;font-variant:normal;font-weight:normal;font-stretch:normal;font-size:113.33333588px;font-family:'Comic Sans MS';-inkscape-font-specification:'Comic Sans MS';fill:#ffffff"
           d="m 301.82228,453.16001 q -12.45118,4.8698 -31.81967,4.8698 -2.37955,0 -4.53776,-2.26888 -2.10286,-2.21355 -2.10286,-4.5931 v -16.10352 q 0,-7.91341 0.99609,-22.57812 1.10677,-15.82683 1.21745,-22.91016 -0.0553,-5.09115 0.60873,-15.16276 0.38737,-2.76693 1.82617,-3.65235 7.52604,-2.32422 17.09961,-2.32422 9.73958,0 18.70442,6.64063 10.34831,7.63672 10.34831,18.87044 0,14.22201 -11.06771,22.41211 8.30078,3.54167 12.39584,7.85808 4.15039,4.3164 4.15039,9.40755 0,6.69596 -7.24935,12.94922 -5.03581,4.42708 -10.56966,6.58528 z m -16.71224,-73.43424 q -6.0319,0 -8.4668,0.38737 l -0.11068,9.68424 -1.10677,21.41602 q 7.85808,0.66406 8.41146,0.60872 8.35612,-0.66406 13.66862,-5.20182 5.69987,-4.92513 5.69987,-12.67253 0,-5.25716 -5.81055,-9.73958 -5.81054,-4.48242 -12.28515,-4.48242 z m 6.19791,44.32617 -5.86588,-0.94075 q -0.7194,0 -2.21354,0.11067 -1.43881,0.0553 -2.21355,0.0553 -2.98828,0 -6.36393,-0.49805 -0.33203,6.97266 -0.33203,12.45118 v 11.45507 q 14.4987,-0.49804 23.62956,-4.09505 3.8737,-1.49414 7.41536,-4.64844 3.37565,-2.8776 3.37565,-4.3164 0,-2.60091 -7.08333,-5.86589 -5.3125,-2.49023 -10.34831,-3.70768 z"
           inkscape:connector-curvature="0" />
      </g>
    </g>
  </g>
</svg>
