<?xml version="1.0" encoding="UTF-8" standalone="no"?>
<!-- Created with Inkscape (http://www.inkscape.org/) -->

<svg
   xmlns:dc="http://purl.org/dc/elements/1.1/"
   xmlns:cc="http://creativecommons.org/ns#"
   xmlns:rdf="http://www.w3.org/1999/02/22-rdf-syntax-ns#"
   xmlns:svg="http://www.w3.org/2000/svg"
   xmlns="http://www.w3.org/2000/svg"
   xmlns:sodipodi="http://sodipodi.sourceforge.net/DTD/sodipodi-0.dtd"
   xmlns:inkscape="http://www.inkscape.org/namespaces/inkscape"
   width="512"
   height="512"
   id="svg2"
   version="1.1"
   inkscape:version="0.92.2 5c3e80d, 2017-08-06"
   sodipodi:docname="application-x-pem-key.svg">
  <defs
     id="defs4" />
  <sodipodi:namedview
     id="base"
     pagecolor="#ffffff"
     bordercolor="#666666"
     borderopacity="1.0"
     inkscape:pageopacity="0.0"
     inkscape:pageshadow="2"
     inkscape:zoom="0.308a715e"
     inkscape:cx="-425.22529"
     inkscape:cy="151.24222"
     inkscape:document-units="px"
     inkscape:current-layer="layer1"
     showgrid="false"
     inkscape:window-width="1366"
     inkscape:window-height="717"
     inkscape:window-x="0"
     inkscape:window-y="24"
     inkscape:window-maximized="1" />
  <metadata
     id="metadata7">
    <rdf:RDF>
      <cc:Work
         rdf:about="">
        <dc:format>image/svg+xml</dc:format>
        <dc:type
           rdf:resource="http://purl.org/dc/dcmitype/StillImage" />
        <dc:title />
      </cc:Work>
    </rdf:RDF>
  </metadata>
  <g
     inkscape:label="Layer 1"
     inkscape:groupmode="layer"
     id="layer1"
     transform="translate(0,-540.36218)">
    <g
       id="g852">
      <path
         id="path955"
         d="m 432.91324,596.83614 c 102.19291,88.57459 105.82677,249.69971 8.1168,359.89879 C 343.32009,1066.934 181.27965,1084.4628 79.086738,995.88819 -23.106204,907.3136 -26.740031,746.18848 70.969938,635.9894 168.67991,525.79032 330.72036,508.26155 432.91324,596.83614 Z"
         inkscape:connector-curvature="0"
         style="fill:#8a715e;fill-opacity:1;stroke-width:11.10955811" />
      <path
         sodipodi:nodetypes="csscc"
         inkscape:connector-curvature="0"
         id="path957"
         d="M 8.3652348,882.36218 C 19.949334,925.51391 43.551548,965.08852 79.085938,995.88755 181.27884,1084.4622 343.31934,1066.9343 441.02929,956.73523 461.3803,933.78299 477.31887,908.61716 488.90233,882.36218 Z"
         style="fill:#715344;fill-opacity:1;stroke:none;stroke-width:0.99999994px;stroke-linecap:butt;stroke-linejoin:miter;stroke-opacity:1" />
      <path
         id="path959"
         d="M 511.63547,765.26569 C 510.08409,826.57733 486.47425,889.42029 440.6691,941.08016 342.95915,1051.2793 180.9187,1068.808 78.725758,980.23346 30.827125,938.71781 4.4968198,881.28501 0.19382786,820.59098 0.79908086,886.94765 27.117406,950.84435 79.078688,995.88123 181.2716,1084.4558 343.31975,1066.9184 441.02199,956.72794 490.72694,900.66983 514.02701,831.43697 511.63547,765.26569 Z"
         inkscape:connector-curvature="0"
         style="opacity:1;stroke-width:11.10955811;fill:#000000;fill-opacity:0.49019608" />
      <path
         inkscape:connector-curvature="0"
         id="path874"
         d="m 194.29604,889.21981 c -55.80745,-15.00164 -74.60451,-84.06457 -33.9442,-124.72486 35.7562,-35.7562 93.03258,-27.41349 118.22181,17.21896 l 6.09764,10.80948 H 349.08479 413.5 v 24.47034 24.4703 h -12.73232 -12.73231 v 25.44907 25.44908 H 363.56502 339.09467 V 866.9131 841.46403 h -27.37363 -27.37365 l -4.83306,9.54491 c -9.94335,19.6338 -31.06344,35.10313 -53.73738,39.3715 -13.52919,2.54646 -18.38825,2.37324 -31.49651,-1.21249 z m 33.23222,-51.46114 c 12.33396,-8.57484 14.48196,-25.65868 4.69453,-37.29272 -9.7528,-11.58901 -26.04672,-11.90083 -37.21652,-0.69292 -5.57798,5.57795 -6.63467,8.03783 -6.63467,15.46935 0,13.82366 6.9292,23.77393 18.67754,26.81235 5.75122,1.55919 14.967,-0.34645 20.47393,-4.24408 z"
         style="fill:#000000;fill-opacity:0.49019608;stroke-width:1.95761049" />
      <path
         style="fill:#ffffff;stroke-width:1.95761049"
         d="m 174.29604,869.21981 c -55.80745,-15.00164 -74.604516,-84.06457 -33.9442,-124.72486 35.7562,-35.7562 93.03258,-27.41349 118.22181,17.21896 l 6.09764,10.80948 H 329.08479 393.5 v 24.47034 24.4703 h -12.73232 -12.73231 v 25.44907 25.44908 H 343.56502 319.09467 V 846.9131 821.46403 h -27.37363 -27.37365 l -4.83306,9.54491 c -9.94335,19.6338 -31.06344,35.10313 -53.73738,39.3715 -13.52919,2.54646 -18.38825,2.37324 -31.49651,-1.21249 z m 33.23222,-51.46114 c 12.33396,-8.57484 14.48196,-25.65868 4.69453,-37.29272 -9.7528,-11.58901 -26.04672,-11.90083 -37.21652,-0.69292 -5.57798,5.57795 -6.63467,8.03783 -6.63467,15.46935 0,13.82366 6.9292,23.77393 18.67754,26.81235 5.75122,1.55919 14.967,-0.34645 20.47393,-4.24408 z"
         id="path1344"
         inkscape:connector-curvature="0" />
      <g
         aria-label="PEM"
         transform="translate(22.00521,539.35972)"
         style="font-style:normal;font-weight:normal;font-size:40px;line-height:1.25;font-family:sans-serif;letter-spacing:0px;word-spacing:0px;fill:#000000;fill-opacity:0.49019608;stroke:none"
         id="g892">
        <path
           d="m 161.31576,430.04022 q -1.54948,0 -6.75131,-0.7194 -0.4427,8.35612 -0.4427,29.27409 0,2.21354 -1.43881,3.76302 -1.4388,1.49414 -3.597,1.49414 -2.21354,0 -3.65235,-1.49414 -1.4388,-1.54948 -1.4388,-3.76302 v -16.26953 q 0,-8.13477 0.9961,-22.91016 1.10677,-15.99284 1.21744,-22.91016 v -7.63671 q 0,-5.47852 0.66407,-7.96875 1.27278,-4.8698 5.42317,-4.20573 1.77084,-0.55339 5.03581,-0.83008 3.26497,-0.27669 8.02409,-0.27669 10.12695,0 18.98112,6.91731 9.73958,7.63672 9.73958,18.3724 0,13.72396 -10.40364,21.85872 -9.29688,7.30469 -22.35677,7.30469 z m 2.76692,-43.9388 q -2.43489,0 -4.37174,0.11068 -1.88151,0.11067 -3.20964,0.33203 l -0.11067,10.18229 -1.16211,22.02474 6.08724,0.7194 q 9.29687,0 15.6608,-4.70378 6.97266,-5.14648 6.97266,-13.88997 0,-6.19792 -6.64063,-10.68034 -6.14257,-4.09505 -13.22591,-4.09505 z"
           style="font-style:normal;font-variant:normal;font-weight:normal;font-stretch:normal;font-size:113.33333588px;font-family:'Comic Sans MS';-inkscape-font-specification:'Comic Sans MS';fill:#000000;fill-opacity:0.49019608"
           id="path886"
           inkscape:connector-curvature="0" />
        <path
           d="m 259.26498,388.03827 q -0.77474,0 -1.7155,-0.27669 -9.35221,-2.65625 -18.04036,-2.65625 -4.53776,0 -9.9056,0.83007 -5.36784,0.83008 -11.56576,2.54558 0.49805,3.597 0.49805,5.7552 0,7.69206 -0.94076,21.13933 l 24.23828,-2.32422 q 10.68034,-1.10677 13.11524,-1.10677 2.43489,0 4.09505,1.54948 1.66016,1.54948 1.66016,4.15039 0,5.03581 -5.09115,5.64453 l -13.17057,1.16211 -25.56641,2.32422 q -0.22135,3.92903 -0.38737,7.4707 -0.11068,3.48633 -0.11068,6.52995 0,12.22982 1.77084,14.38802 1.32812,1.54948 8.68815,1.54948 3.43099,0 10.29297,-0.16602 6.91732,-0.22135 10.40364,-0.22135 1.10678,0 3.26498,-0.33203 2.1582,-0.38737 3.20963,-0.38737 5.86589,0 5.86589,5.75521 0,4.64843 -4.70378,5.58919 -5.20182,1.05143 -22.52278,1.05143 -17.15495,0 -22.02474,-4.53776 -5.3125,-4.92513 -5.3125,-22.6888 0,-3.54167 0.16601,-7.7474 0.16602,-4.20573 0.44271,-9.07552 -0.60872,-1.27278 -0.60872,-2.71159 0,-1.88151 1.05143,-3.37565 1.10677,-15.99284 1.10677,-23.62956 0,-2.04752 -0.55339,-5.97656 -0.55338,-3.98437 -0.55338,-6.0319 0,-6.58529 5.53385,-6.58529 2.32422,0 3.98438,1.60482 6.64062,-1.77083 12.50651,-2.65625 5.92122,-0.88541 11.12305,-0.88541 13.44726,0 21.47135,3.20963 3.70768,1.49414 3.70768,5.3125 0,2.21354 -1.4388,3.92904 -1.60482,1.88151 -3.98437,1.88151 z"
           style="font-style:normal;font-variant:normal;font-weight:normal;font-stretch:normal;font-size:113.33333588px;font-family:'Comic Sans MS';-inkscape-font-specification:'Comic Sans MS';fill:#000000;fill-opacity:0.49019608"
           id="path888"
           inkscape:connector-curvature="0" />
        <path
           d="m 358.32098,467.11705 q -2.98829,0 -4.92513,-3.09896 -1.66016,-2.65625 -2.98829,-8.85417 l -1.99218,-9.51823 q -2.26888,-8.85417 -7.19401,-39.06901 l -11.06771,33.36914 -3.26498,10.51432 q -1.99218,6.25326 -4.15039,10.23763 -2.32422,4.20573 -6.25325,4.20573 -3.26498,0 -5.14649,-3.54166 -1.21745,-2.32422 -2.21354,-5.92123 l -1.60482,-6.14258 q -5.58919,-19.5345 -9.85026,-41.83593 l -1.99218,9.9056 -7.13868,29.21875 q -0.44271,5.14648 -2.76692,15.2181 -1.66016,4.3164 -5.47852,4.3164 -2.71159,0 -4.31641,-1.93685 -1.38346,-1.66015 -1.38346,-4.09505 0,-9.24154 3.81836,-22.6888 l 6.08724,-22.30143 3.20963,-17.43165 q 2.4349,-12.22981 5.14649,-15.99283 2.21354,-3.20964 5.47852,-3.20964 3.597,0 5.36783,4.09505 2.15821,4.92513 4.64844,20.08789 2.93294,18.20638 9.13086,39.40105 8.19011,-21.30534 14.16667,-44.38152 l 1.66015,-8.07942 q 0.9961,-4.86979 2.60092,-7.85808 2.1582,-4.09505 5.92122,-4.09505 4.75911,0 7.24935,9.1862 0.88542,3.1543 2.1582,13.0599 3.26498,25.01302 8.13477,42.72135 l 2.71159,9.51823 q 2.10286,7.63672 2.10286,9.40755 0,2.37956 -1.82617,3.98438 -1.77083,1.60482 -4.03971,1.60482 z"
           style="font-style:normal;font-variant:normal;font-weight:normal;font-stretch:normal;font-size:113.33333588px;font-family:'Comic Sans MS';-inkscape-font-specification:'Comic Sans MS';fill:#000000;fill-opacity:0.49019608"
           id="path890"
           inkscape:connector-curvature="0" />
      </g>
      <g
         id="flowRoot871"
         style="font-style:normal;font-weight:normal;font-size:40px;line-height:1.25;font-family:sans-serif;letter-spacing:0px;word-spacing:0px;fill:#ffffff;fill-opacity:1;stroke:none"
         transform="translate(2.00521,519.35972)"
         aria-label="PEM">
        <path
           inkscape:connector-curvature="0"
           id="path879"
           style="font-style:normal;font-variant:normal;font-weight:normal;font-stretch:normal;font-size:113.33333588px;font-family:'Comic Sans MS';-inkscape-font-specification:'Comic Sans MS';fill:#ffffff"
           d="m 161.31576,430.04022 q -1.54948,0 -6.75131,-0.7194 -0.4427,8.35612 -0.4427,29.27409 0,2.21354 -1.43881,3.76302 -1.4388,1.49414 -3.597,1.49414 -2.21354,0 -3.65235,-1.49414 -1.4388,-1.54948 -1.4388,-3.76302 v -16.26953 q 0,-8.13477 0.9961,-22.91016 1.10677,-15.99284 1.21744,-22.91016 v -7.63671 q 0,-5.47852 0.66407,-7.96875 1.27278,-4.8698 5.42317,-4.20573 1.77084,-0.55339 5.03581,-0.83008 3.26497,-0.27669 8.02409,-0.27669 10.12695,0 18.98112,6.91731 9.73958,7.63672 9.73958,18.3724 0,13.72396 -10.40364,21.85872 -9.29688,7.30469 -22.35677,7.30469 z m 2.76692,-43.9388 q -2.43489,0 -4.37174,0.11068 -1.88151,0.11067 -3.20964,0.33203 l -0.11067,10.18229 -1.16211,22.02474 6.08724,0.7194 q 9.29687,0 15.6608,-4.70378 6.97266,-5.14648 6.97266,-13.88997 0,-6.19792 -6.64063,-10.68034 -6.14257,-4.09505 -13.22591,-4.09505 z" />
        <path
           inkscape:connector-curvature="0"
           id="path881"
           style="font-style:normal;font-variant:normal;font-weight:normal;font-stretch:normal;font-size:113.33333588px;font-family:'Comic Sans MS';-inkscape-font-specification:'Comic Sans MS';fill:#ffffff"
           d="m 259.26498,388.03827 q -0.77474,0 -1.7155,-0.27669 -9.35221,-2.65625 -18.04036,-2.65625 -4.53776,0 -9.9056,0.83007 -5.36784,0.83008 -11.56576,2.54558 0.49805,3.597 0.49805,5.7552 0,7.69206 -0.94076,21.13933 l 24.23828,-2.32422 q 10.68034,-1.10677 13.11524,-1.10677 2.43489,0 4.09505,1.54948 1.66016,1.54948 1.66016,4.15039 0,5.03581 -5.09115,5.64453 l -13.17057,1.16211 -25.56641,2.32422 q -0.22135,3.92903 -0.38737,7.4707 -0.11068,3.48633 -0.11068,6.52995 0,12.22982 1.77084,14.38802 1.32812,1.54948 8.68815,1.54948 3.43099,0 10.29297,-0.16602 6.91732,-0.22135 10.40364,-0.22135 1.10678,0 3.26498,-0.33203 2.1582,-0.38737 3.20963,-0.38737 5.86589,0 5.86589,5.75521 0,4.64843 -4.70378,5.58919 -5.20182,1.05143 -22.52278,1.05143 -17.15495,0 -22.02474,-4.53776 -5.3125,-4.92513 -5.3125,-22.6888 0,-3.54167 0.16601,-7.7474 0.16602,-4.20573 0.44271,-9.07552 -0.60872,-1.27278 -0.60872,-2.71159 0,-1.88151 1.05143,-3.37565 1.10677,-15.99284 1.10677,-23.62956 0,-2.04752 -0.55339,-5.97656 -0.55338,-3.98437 -0.55338,-6.0319 0,-6.58529 5.53385,-6.58529 2.32422,0 3.98438,1.60482 6.64062,-1.77083 12.50651,-2.65625 5.92122,-0.88541 11.12305,-0.88541 13.44726,0 21.47135,3.20963 3.70768,1.49414 3.70768,5.3125 0,2.21354 -1.4388,3.92904 -1.60482,1.88151 -3.98437,1.88151 z" />
        <path
           inkscape:connector-curvature="0"
           id="path883"
           style="font-style:normal;font-variant:normal;font-weight:normal;font-stretch:normal;font-size:113.33333588px;font-family:'Comic Sans MS';-inkscape-font-specification:'Comic Sans MS';fill:#ffffff"
           d="m 358.32098,467.11705 q -2.98829,0 -4.92513,-3.09896 -1.66016,-2.65625 -2.98829,-8.85417 l -1.99218,-9.51823 q -2.26888,-8.85417 -7.19401,-39.06901 l -11.06771,33.36914 -3.26498,10.51432 q -1.99218,6.25326 -4.15039,10.23763 -2.32422,4.20573 -6.25325,4.20573 -3.26498,0 -5.14649,-3.54166 -1.21745,-2.32422 -2.21354,-5.92123 l -1.60482,-6.14258 q -5.58919,-19.5345 -9.85026,-41.83593 l -1.99218,9.9056 -7.13868,29.21875 q -0.44271,5.14648 -2.76692,15.2181 -1.66016,4.3164 -5.47852,4.3164 -2.71159,0 -4.31641,-1.93685 -1.38346,-1.66015 -1.38346,-4.09505 0,-9.24154 3.81836,-22.6888 l 6.08724,-22.30143 3.20963,-17.43165 q 2.4349,-12.22981 5.14649,-15.99283 2.21354,-3.20964 5.47852,-3.20964 3.597,0 5.36783,4.09505 2.15821,4.92513 4.64844,20.08789 2.93294,18.20638 9.13086,39.40105 8.19011,-21.30534 14.16667,-44.38152 l 1.66015,-8.07942 q 0.9961,-4.86979 2.60092,-7.85808 2.1582,-4.09505 5.92122,-4.09505 4.75911,0 7.24935,9.1862 0.88542,3.1543 2.1582,13.0599 3.26498,25.01302 8.13477,42.72135 l 2.71159,9.51823 q 2.10286,7.63672 2.10286,9.40755 0,2.37956 -1.82617,3.98438 -1.77083,1.60482 -4.03971,1.60482 z" />
      </g>
    </g>
  </g>
</svg>
