<?xml version="1.0" encoding="UTF-8" standalone="no"?>
<!-- Created with Inkscape (http://www.inkscape.org/) -->

<svg
   xmlns:dc="http://purl.org/dc/elements/1.1/"
   xmlns:cc="http://creativecommons.org/ns#"
   xmlns:rdf="http://www.w3.org/1999/02/22-rdf-syntax-ns#"
   xmlns:svg="http://www.w3.org/2000/svg"
   xmlns="http://www.w3.org/2000/svg"
   xmlns:sodipodi="http://sodipodi.sourceforge.net/DTD/sodipodi-0.dtd"
   xmlns:inkscape="http://www.inkscape.org/namespaces/inkscape"
   width="512"
   height="512"
   id="svg2"
   version="1.1"
   inkscape:version="0.92.2 5c3e80d, 2017-08-06"
   sodipodi:docname="application-x-lzma-compressed-tar.svg">
  <defs
     id="defs4" />
  <sodipodi:namedview
     id="base"
     pagecolor="#ffffff"
     bordercolor="#666666"
     borderopacity="1.0"
     inkscape:pageopacity="0.0"
     inkscape:pageshadow="2"
     inkscape:zoom="0.42897809"
     inkscape:cx="-85.356437"
     inkscape:cy="316.34843"
     inkscape:document-units="px"
     inkscape:current-layer="layer1"
     showgrid="false"
     inkscape:window-width="1366"
     inkscape:window-height="717"
     inkscape:window-x="0"
     inkscape:window-y="24"
     inkscape:window-maximized="1" />
  <metadata
     id="metadata7">
    <rdf:RDF>
      <cc:Work
         rdf:about="">
        <dc:format>image/svg+xml</dc:format>
        <dc:type
           rdf:resource="http://purl.org/dc/dcmitype/StillImage" />
        <dc:title />
      </cc:Work>
    </rdf:RDF>
  </metadata>
  <g
     inkscape:label="Layer 1"
     inkscape:groupmode="layer"
     id="layer1"
     transform="translate(0,-540.36218)">
    <g
       id="g864">
      <path
         id="path955"
         d="m 432.91324,596.83612 c 102.19291,88.57459 105.82677,249.69971 8.1168,359.89879 C 343.32009,1066.934 181.27965,1084.4628 79.086741,995.8882 -23.106205,907.31358 -26.740032,746.18846 70.969941,635.98938 168.67991,525.7903 330.72036,508.26153 432.91324,596.83612 Z"
         inkscape:connector-curvature="0"
         style="fill:#8a715e;fill-opacity:1;stroke-width:11.10955811" />
      <path
         sodipodi:nodetypes="csscc"
         inkscape:connector-curvature="0"
         id="path957"
         d="M 8.3652338,882.36216 C 19.949333,925.51389 43.551551,965.0885 79.085936,995.8876 c 102.192904,88.5746 264.233404,71.0467 361.943354,-39.15239 20.35101,-22.95224 36.28958,-48.11807 47.87304,-74.37305 z"
         style="fill:#715344;fill-opacity:1;stroke:none;stroke-width:0.99999994px;stroke-linecap:butt;stroke-linejoin:miter;stroke-opacity:1" />
      <path
         id="path959"
         d="M 511.63547,765.26567 C 510.08409,826.57731 486.47425,889.42027 440.6691,941.08014 342.95915,1051.2793 180.9187,1068.808 78.725758,980.23344 30.827124,938.71779 4.4968188,881.28499 0.19382686,820.59096 0.79907986,886.94763 27.117405,950.84433 79.078691,995.8813 181.2716,1084.4558 343.31975,1066.9184 441.02199,956.72792 490.72694,900.66981 514.02701,831.43695 511.63547,765.26567 Z"
         inkscape:connector-curvature="0"
         style="opacity:1;stroke-width:11.10955811;fill:#000000;fill-opacity:0.49019608" />
      <path
         style="fill:#000000;fill-opacity:0.49019608;stroke-width:1.44776499"
         d="m 259.15546,890.27951 c -7.93094,-3.44714 -8.46873,-6.59703 -5.47531,-32.06994 2.30142,-19.58427 3.10794,-23.07173 6.17996,-26.72262 3.40702,-4.04901 3.98889,-4.19885 16.30559,-4.19885 12.3167,0 12.89858,0.14984 16.3056,4.19885 3.07202,3.65089 3.87853,7.13835 6.17996,26.72262 3.01578,25.66328 2.47224,28.67809 -5.79301,32.13153 -6.51909,2.72386 -27.38194,2.68573 -33.70279,-0.0615 z m 24.45062,-31.01267 c 2.71022,-2.19461 3.41786,-4.16943 3.41786,-9.53839 0,-7.79707 -3.97847,-12.306 -10.85824,-12.306 -6.87976,0 -10.85824,4.50893 -10.85824,12.306 0,7.79707 3.97848,12.30601 10.85824,12.30601 2.21239,0 5.56055,-1.24542 7.44038,-2.76762 z m -23.86529,-43.31292 c -3.2217,-3.55995 -3.02117,-8.30939 0.4995,-11.83006 2.46655,-2.46656 4.82588,-2.89553 15.92541,-2.89553 11.09955,0 13.45886,0.42897 15.92542,2.89553 3.61335,3.61334 3.7226,8.9371 0.24794,12.08161 -4.04188,3.65784 -29.23627,3.46342 -32.59827,-0.25155 z m 13.52938,-23.41218 v -5.79106 h -7.96271 -7.9627 v -5.06718 -5.06717 h 7.9627 7.96271 v -5.06718 -5.06718 h -7.96271 -7.9627 v -5.06718 -5.06718 h 7.9627 7.96271 v -5.79106 -5.79106 h -7.96271 -7.9627 v -5.06717 -5.06717 h 7.9627 7.96271 v -5.06719 -5.06717 h -7.96271 -7.9627 v -5.79107 -5.79105 h 7.9627 7.96271 v -5.06718 -5.06718 h -7.96271 -7.9627 v -5.79106 -5.79106 h 7.9627 7.96271 v -5.06717 -5.06719 h -7.96271 -7.9627 v -5.06718 -5.06716 h 7.9627 7.96271 v -5.79107 -5.79106 h -7.96271 -7.9627 v -5.06718 -5.06717 h 7.9627 7.96271 v -5.06718 -5.06718 h -7.96271 -7.9627 v -10.85823 -10.85824 h 18.82094 18.82095 v 5.06717 5.06718 h -7.96271 -7.9627 v 5.79106 5.79106 h 7.9627 7.96271 v 5.06718 5.06718 h -7.96271 -7.9627 v 5.06717 5.06718 h 7.9627 7.96271 v 5.79106 5.79107 h -7.96271 -7.9627 v 5.06716 5.06718 h 7.9627 7.96271 v 5.79107 5.79106 h -7.96271 -7.9627 v 5.06717 5.06718 h 7.9627 7.96271 v 5.06718 5.06718 h -7.96271 -7.9627 v 5.79105 5.79107 h 7.9627 7.96271 v 5.06717 5.06719 h -7.96271 -7.9627 v 5.06717 5.06717 h 7.9627 7.96271 v 5.06719 5.06717 h -7.96271 -7.9627 v 5.79106 5.79106 h 7.9627 7.96271 v 5.06718 5.06718 h -7.96271 -7.9627 v 5.06717 5.06718 h 7.9627 7.96271 v 5.79106 5.79105 h -10.85824 -10.85824 z"
         id="path843"
         inkscape:connector-curvature="0" />
      <path
         inkscape:connector-curvature="0"
         id="path924"
         d="m 239.15546,870.27951 c -7.93094,-3.44714 -8.46873,-6.59703 -5.47531,-32.06994 2.30142,-19.58427 3.10794,-23.07173 6.17996,-26.72262 3.40702,-4.04901 3.98889,-4.19885 16.30559,-4.19885 12.3167,0 12.89858,0.14984 16.3056,4.19885 3.07202,3.65089 3.87853,7.13835 6.17996,26.72262 3.01578,25.66328 2.47224,28.67809 -5.79301,32.13153 -6.51909,2.72386 -27.38194,2.68573 -33.70279,-0.0615 z m 24.45062,-31.01267 c 2.71022,-2.19461 3.41786,-4.16943 3.41786,-9.53839 0,-7.79707 -3.97847,-12.306 -10.85824,-12.306 -6.87976,0 -10.85824,4.50893 -10.85824,12.306 0,7.79707 3.97848,12.30601 10.85824,12.30601 2.21239,0 5.56055,-1.24542 7.44038,-2.76762 z m -23.86529,-43.31292 c -3.2217,-3.55995 -3.02117,-8.30939 0.4995,-11.83006 2.46655,-2.46656 4.82588,-2.89553 15.92541,-2.89553 11.09955,0 13.45886,0.42897 15.92542,2.89553 3.61335,3.61334 3.7226,8.9371 0.24794,12.08161 -4.04188,3.65784 -29.23627,3.46342 -32.59827,-0.25155 z m 13.52938,-23.41218 v -5.79106 h -7.96271 -7.9627 v -5.06718 -5.06717 h 7.9627 7.96271 v -5.06718 -5.06718 h -7.96271 -7.9627 v -5.06718 -5.06718 h 7.9627 7.96271 v -5.79106 -5.79106 h -7.96271 -7.9627 v -5.06717 -5.06717 h 7.9627 7.96271 v -5.06719 -5.06717 h -7.96271 -7.9627 v -5.79107 -5.79105 h 7.9627 7.96271 v -5.06718 -5.06718 h -7.96271 -7.9627 v -5.79106 -5.79106 h 7.9627 7.96271 v -5.06717 -5.06719 h -7.96271 -7.9627 v -5.06718 -5.06716 h 7.9627 7.96271 v -5.79107 -5.79106 h -7.96271 -7.9627 v -5.06718 -5.06717 h 7.9627 7.96271 v -5.06718 -5.06718 h -7.96271 -7.9627 v -10.85823 -10.85824 h 18.82094 18.82095 v 5.06717 5.06718 h -7.96271 -7.9627 v 5.79106 5.79106 h 7.9627 7.96271 v 5.06718 5.06718 h -7.96271 -7.9627 v 5.06717 5.06718 h 7.9627 7.96271 v 5.79106 5.79107 h -7.96271 -7.9627 v 5.06716 5.06718 h 7.9627 7.96271 v 5.79107 5.79106 h -7.96271 -7.9627 v 5.06717 5.06718 h 7.9627 7.96271 v 5.06718 5.06718 h -7.96271 -7.9627 v 5.79105 5.79107 h 7.9627 7.96271 v 5.06717 5.06719 h -7.96271 -7.9627 v 5.06717 5.06717 h 7.9627 7.96271 v 5.06719 5.06717 h -7.96271 -7.9627 v 5.79106 5.79106 h 7.9627 7.96271 v 5.06718 5.06718 h -7.96271 -7.9627 v 5.06717 5.06718 h 7.9627 7.96271 v 5.79106 5.79105 h -10.85824 -10.85824 z"
         style="fill:#ffffff;stroke-width:1.44776499" />
      <path
         inkscape:connector-curvature="0"
         id="path874"
         style="font-style:normal;font-variant:normal;font-weight:normal;font-stretch:normal;font-size:113.33333588px;line-height:1.25;font-family:'Comic Sans MS';-inkscape-font-specification:'Comic Sans MS';letter-spacing:0px;word-spacing:0px;fill:#000000;fill-opacity:0.49019608;stroke:none;stroke-width:0.94847125"
         d="m 167.58101,1000.3289 q -5.93104,2.7818 -18.6329,4.9863 -11.7046,2.047 -19.10527,2.047 -5.30119,0 -7.61061,-1.6271 -3.14923,-2.2045 -3.14923,-8.08302 l 1.04974,-17.3732 q 1.36467,-24.03905 1.36467,-53.32681 0,-2.25695 1.46964,-3.83156 1.52211,-1.57461 3.72657,-1.57461 2.25694,0 3.72658,1.57461 1.52213,1.57461 1.52213,3.83156 0,29.65516 -1.41715,53.95665 l -0.68234,7.97803 q -0.41989,4.35642 -0.31492,7.71558 13.69911,0.15747 34.64143,-6.4559 0.89228,-0.26243 1.67959,-0.26243 2.25694,0 3.77906,1.78456 1.31217,1.6271 1.31217,3.72658 0,3.35916 -3.35916,4.93376 z" />
      <path
         inkscape:connector-curvature="0"
         id="path876"
         style="font-style:normal;font-variant:normal;font-weight:normal;font-stretch:normal;font-size:113.33333588px;line-height:1.25;font-family:'Comic Sans MS';-inkscape-font-specification:'Comic Sans MS';letter-spacing:0px;word-spacing:0px;fill:#000000;fill-opacity:0.49019608;stroke:none;stroke-width:0.94847125"
         d="m 239.43573,936.81962 -7.08574,4.82881 q -9.55264,7.40066 -21.62465,23.67164 l -18.42295,26.82087 q -1.31217,1.9945 -2.57186,3.6741 l 20.41744,-0.78731 q 13.3842,-0.62984 20.46995,-0.62984 6.92828,0 10.23496,0.62984 4.25145,0.83979 4.40891,4.30393 0.10498,2.57184 -1.67958,4.09404 -1.57461,1.3121 -3.93652,1.3121 -1.52213,0 -4.56638,-0.2099 -3.04424,-0.1575 -4.56637,-0.1575 -7.97803,0 -23.98657,0.3674 -15.95605,0.4199 -23.93408,0.4199 -6.036,0 -6.036,-5.30117 0,-3.46414 3.2542,-8.71284 l 5.6161,-7.82057 18.94781,-26.34849 q 11.70461,-15.48367 21.78212,-24.03905 l -18.37046,1.04974 h -21.20475 q -0.57736,0 -1.73207,0.10498 -1.10223,0.0525 -1.6271,0.0525 -5.56362,0 -5.56362,-5.40616 0,-3.56912 2.8343,-4.72384 1.73207,-0.73481 5.72108,-0.73481 3.6216,0 10.75984,0.7873 7.19072,0.73482 10.81232,0.73482 4.04151,0 12.07201,-0.52487 8.08301,-0.52487 12.177,-0.52487 13.48916,0 13.48916,5.09124 0,3.46414 -6.0885,7.97802 z" />
      <path
         inkscape:connector-curvature="0"
         id="path878"
         style="font-style:normal;font-variant:normal;font-weight:normal;font-stretch:normal;font-size:113.33333588px;line-height:1.25;font-family:'Comic Sans MS';-inkscape-font-specification:'Comic Sans MS';letter-spacing:0px;word-spacing:0px;fill:#000000;fill-opacity:0.49019608;stroke:none;stroke-width:0.94847125"
         d="m 332.81014,1006.8373 q -2.8343,0 -4.67134,-2.9393 -1.57461,-2.5193 -2.8343,-8.39789 l -1.88954,-9.02776 q -2.15196,-8.39793 -6.82331,-37.05585 l -10.4974,31.64968 -3.09673,9.97253 q -1.88954,5.93103 -3.93653,9.71009 -2.20445,3.989 -5.93104,3.989 -3.09673,0 -4.88128,-3.3591 -1.15472,-2.2045 -2.09948,-5.61615 l -1.52213,-5.82606 q -5.30119,-18.52792 -9.34269,-39.68019 l -1.88953,9.39518 -6.77083,27.71314 q -0.41989,4.8813 -2.62435,14.43398 -1.5746,4.0939 -5.19621,4.0939 -2.57186,0 -4.09399,-1.837 -1.31217,-1.5746 -1.31217,-3.884 0,-8.76538 3.6216,-21.51973 l 5.77357,-21.15226 3.04425,-16.53341 q 2.30943,-11.59963 4.88129,-15.16875 2.09948,-3.04425 5.19621,-3.04425 3.41166,0 5.09125,3.88405 2.04699,4.67134 4.40891,19.05278 2.78181,17.26823 8.66036,37.37076 7.76807,-20.20751 13.43667,-42.09459 l 1.57461,-7.66311 q 0.94476,-4.61885 2.46689,-7.45315 2.047,-3.88404 5.61611,-3.88404 4.51388,0 6.87581,8.71284 0.83978,2.99176 2.04699,12.38694 3.09673,23.72413 7.71558,40.51998 l 2.57187,9.02777 q 1.99451,7.2432 1.99451,8.92277 0,2.257 -1.73207,3.7791 -1.67959,1.5221 -3.83156,1.5221 z" />
      <path
         id="path880"
         transform="translate(0,540.36218)"
         d="M 392.06836 384.54297 C 390.03886 384.54297 384.87693 391.17383 376.58398 404.43555 C 370.49548 414.16314 365.45776 422.77161 361.46875 430.25977 C 358.0396 431.06456 356.32422 432.8825 356.32422 435.7168 C 356.32422 436.9065 356.62194 437.95741 357.2168 438.86719 C 351.9331 449.95944 349.29102 456.3458 349.29102 458.02539 C 349.29102 459.52999 349.83324 460.78989 350.91797 461.80469 C 352.0377 462.81942 353.29761 463.32617 354.69727 463.32617 C 356.62179 463.32617 358.14395 462.34625 359.26367 460.38672 C 363.49763 451.56891 366.48871 444.86707 368.23828 440.2832 L 382.20117 437.39648 C 387.97474 436.1368 392.64572 435.26332 396.21484 434.77344 C 397.57951 442.64648 398.71718 448.15741 399.62695 451.30664 C 399.91918 452.32086 400.21659 453.26855 400.52148 454.1582 C 403.62393 451.77371 406.68519 449.30988 409.71094 446.78125 L 408.86328 444.42969 L 401.04297 407.95117 L 397.73633 390.31641 C 396.72158 386.46737 394.83267 384.54297 392.06836 384.54297 z M 389.49609 403.70117 L 393.74805 423.96094 C 385.14018 425.50056 378.71833 426.81175 374.48438 427.89648 L 389.49609 403.70117 z "
         style="font-style:normal;font-variant:normal;font-weight:normal;font-stretch:normal;font-size:113.33333588px;line-height:1.25;font-family:'Comic Sans MS';-inkscape-font-specification:'Comic Sans MS';letter-spacing:0px;word-spacing:0px;fill:#000000;fill-opacity:0.49019608;stroke:none;stroke-width:0.94847125" />
      <g
         id="flowRoot857"
         style="font-style:normal;font-weight:normal;font-size:40px;line-height:1.25;font-family:sans-serif;letter-spacing:0px;word-spacing:0px;fill:#ffffff;fill-opacity:1;stroke:none"
         transform="matrix(0.94847127,0,0,0.94847127,-6.276018,546.9172)"
         aria-label="LZMA">
        <path
           inkscape:connector-curvature="0"
           id="path865"
           style="font-style:normal;font-variant:normal;font-weight:normal;font-stretch:normal;font-size:113.33333588px;font-family:'Comic Sans MS';-inkscape-font-specification:'Comic Sans MS';fill:#ffffff"
           d="m 162.21615,456.95819 q -6.25326,2.93294 -19.64519,5.25716 -12.34049,2.15821 -20.14323,2.15821 -5.58919,0 -8.02408,-1.7155 -3.32032,-2.32422 -3.32032,-8.52213 l 1.10677,-18.31706 q 1.43881,-25.34505 1.43881,-56.22396 0,-2.37956 1.54948,-4.03972 1.60481,-1.66015 3.92903,-1.66015 2.37956,0 3.92904,1.66015 1.60482,1.66016 1.60482,4.03972 0,31.26628 -1.49414,56.88802 l -0.71941,8.41146 q -0.4427,4.5931 -0.33203,8.13476 14.44336,0.16602 36.52344,-6.80664 0.94076,-0.27669 1.77084,-0.27669 2.37955,0 3.98437,1.88151 1.38346,1.7155 1.38346,3.92904 0,3.54166 -3.54166,5.20182 z" />
        <path
           inkscape:connector-curvature="0"
           id="path867"
           style="font-style:normal;font-variant:normal;font-weight:normal;font-stretch:normal;font-size:113.33333588px;font-family:'Comic Sans MS';-inkscape-font-specification:'Comic Sans MS';fill:#ffffff"
           d="m 237.97461,389.99855 -7.4707,5.09115 q -10.07162,7.80273 -22.79948,24.95768 l -19.42383,28.278 q -1.38346,2.10286 -2.71159,3.8737 L 207.0957,451.369 q 14.11133,-0.66406 21.58204,-0.66406 7.30468,0 10.79101,0.66406 4.48242,0.88542 4.64844,4.53776 0.11068,2.71159 -1.77083,4.31641 -1.66016,1.38346 -4.15039,1.38346 -1.60482,0 -4.81446,-0.22136 -3.20963,-0.16601 -4.81445,-0.16601 -8.41146,0 -25.28972,0.38737 -16.82291,0.44271 -25.23437,0.44271 -6.36393,0 -6.36393,-5.5892 0,-3.65234 3.43099,-9.18619 l 5.92122,-8.24545 19.97721,-27.77995 q 12.3405,-16.32487 22.9655,-25.34505 l -19.36849,1.10677 H 182.2487 q -0.60873,0 -1.82617,0.11068 -1.16211,0.0553 -1.7155,0.0553 -5.86588,0 -5.86588,-5.69987 0,-3.76302 2.98828,-4.98047 1.82617,-0.77474 6.0319,-0.77474 3.81836,0 11.3444,0.83008 7.58138,0.77474 11.39974,0.77474 4.26107,0 12.72786,-0.55339 8.52214,-0.55338 12.83855,-0.55338 14.222,0 14.222,5.36784 0,3.65234 -6.41927,8.41145 z" />
        <path
           inkscape:connector-curvature="0"
           id="path869"
           style="font-style:normal;font-variant:normal;font-weight:normal;font-stretch:normal;font-size:113.33333588px;font-family:'Comic Sans MS';-inkscape-font-specification:'Comic Sans MS';fill:#ffffff"
           d="m 336.42188,463.82017 q -2.98828,0 -4.92513,-3.09896 -1.66015,-2.65625 -2.98828,-8.85416 l -1.99219,-9.51823 q -2.26888,-8.85417 -7.19401,-39.06902 l -11.06771,33.36915 -3.26497,10.51432 q -1.99219,6.25325 -4.15039,10.23763 -2.32422,4.20573 -6.25326,4.20573 -3.26497,0 -5.14648,-3.54167 -1.21745,-2.32422 -2.21354,-5.92122 l -1.60482,-6.14258 q -5.58919,-19.53451 -9.85026,-41.83594 l -1.99219,9.9056 -7.13867,29.21875 q -0.44271,5.14649 -2.76693,15.2181 -1.66015,4.31641 -5.47851,4.31641 -2.71159,0 -4.31641,-1.93685 -1.38346,-1.66016 -1.38346,-4.09505 0,-9.24154 3.81836,-22.68881 l 6.08724,-22.30143 3.20963,-17.43164 q 2.4349,-12.22982 5.14649,-15.99284 2.21354,-3.20964 5.47851,-3.20964 3.59701,0 5.36784,4.09506 2.1582,4.92513 4.64844,20.08789 2.93294,18.20638 9.13086,39.40104 8.1901,-21.30534 14.16666,-44.38151 l 1.66016,-8.07943 q 0.99609,-4.86979 2.60091,-7.85807 2.15821,-4.09505 5.92123,-4.09505 4.75911,0 7.24935,9.18619 0.88541,3.1543 2.1582,13.0599 3.26497,25.01302 8.13476,42.72136 l 2.71159,9.51823 q 2.10287,7.63671 2.10287,9.40755 0,2.37956 -1.82617,3.98437 -1.77084,1.60482 -4.03972,1.60482 z" />
        <path
           inkscape:connector-curvature="0"
           id="path871"
           style="font-style:normal;font-variant:normal;font-weight:normal;font-stretch:normal;font-size:113.33333588px;font-family:'Comic Sans MS';-inkscape-font-specification:'Comic Sans MS';fill:#ffffff"
           d="m 415.72201,460.88723 q -5.09115,0 -8.85417,-13.0599 -1.4388,-4.98047 -3.59701,-17.43164 -5.64453,0.77474 -14.77539,2.76693 l -14.72005,3.04362 q -2.76693,7.24935 -9.46289,21.19466 -1.77083,3.09896 -4.81445,3.09896 -2.21354,0 -3.98438,-1.60482 -1.71549,-1.60482 -1.71549,-3.98437 0,-2.65625 8.35612,-20.19857 -0.94076,-1.43881 -0.94076,-3.32032 0,-4.48242 5.42318,-5.7552 6.30859,-11.84245 15.9375,-27.22657 13.11523,-20.9733 16.32487,-20.9733 4.37174,0 5.97656,6.08723 l 3.48633,18.59376 8.24544,38.46028 3.1543,8.74349 q 1.60482,4.48242 1.60482,5.97656 0,2.37956 -1.7155,3.98438 -1.71549,1.60482 -3.92903,1.60482 z m -19.53451,-63.25196 -15.82682,25.51107 q 6.69596,-1.71549 20.30924,-4.15039 z" />
      </g>
    </g>
  </g>
</svg>
