<?xml version="1.0" encoding="UTF-8" standalone="no"?>
<!-- Created with Inkscape (http://www.inkscape.org/) -->

<svg
   xmlns:dc="http://purl.org/dc/elements/1.1/"
   xmlns:cc="http://creativecommons.org/ns#"
   xmlns:rdf="http://www.w3.org/1999/02/22-rdf-syntax-ns#"
   xmlns:svg="http://www.w3.org/2000/svg"
   xmlns="http://www.w3.org/2000/svg"
   xmlns:sodipodi="http://sodipodi.sourceforge.net/DTD/sodipodi-0.dtd"
   xmlns:inkscape="http://www.inkscape.org/namespaces/inkscape"
   width="512"
   height="512"
   id="svg2"
   version="1.1"
   inkscape:version="0.92.2 5c3e80d, 2017-08-06"
   sodipodi:docname="application-x-it87.svg">
  <defs
     id="defs4" />
  <sodipodi:namedview
     id="base"
     pagecolor="#ffffff"
     bordercolor="#666666"
     borderopacity="1.0"
     inkscape:pageopacity="0.0"
     inkscape:pageshadow="2"
     inkscape:zoom="0.60666665"
     inkscape:cx="491.41909"
     inkscape:cy="166.11404"
     inkscape:document-units="px"
     inkscape:current-layer="layer1"
     showgrid="false"
     inkscape:window-width="1366"
     inkscape:window-height="717"
     inkscape:window-x="0"
     inkscape:window-y="24"
     inkscape:window-maximized="1" />
  <metadata
     id="metadata7">
    <rdf:RDF>
      <cc:Work
         rdf:about="">
        <dc:format>image/svg+xml</dc:format>
        <dc:type
           rdf:resource="http://purl.org/dc/dcmitype/StillImage" />
        <dc:title></dc:title>
      </cc:Work>
    </rdf:RDF>
  </metadata>
  <g
     inkscape:label="Layer 1"
     inkscape:groupmode="layer"
     id="layer1"
     transform="translate(0,-540.36218)">
    <g
       id="g911">
      <path
         id="path943"
         d="m 432.91326,596.83616 c 102.19291,88.57459 105.82678,249.69971 8.1168,359.89879 C 343.32009,1066.934 181.27965,1084.4628 79.086741,995.8882 -23.106205,907.31362 -26.740032,746.1885 70.969941,635.98942 168.67991,525.79034 330.72036,508.26157 432.91326,596.83616 Z"
         inkscape:connector-curvature="0"
         style="fill:#3689e6;fill-opacity:1;stroke-width:11.10955811" />
      <path
         sodipodi:nodetypes="csscc"
         inkscape:connector-curvature="0"
         id="path945"
         d="m 8.3652408,882.3622 c 11.5841012,43.15173 35.1863062,82.72637 70.7207062,113.5254 102.192913,88.5746 264.233393,71.0467 361.943363,-39.15235 20.35102,-22.95224 36.28955,-48.11807 47.87304,-74.37305 z"
         style="fill:#0d52bf;fill-opacity:1;stroke:none;stroke-width:0.99999994px;stroke-linecap:butt;stroke-linejoin:miter;stroke-opacity:1" />
      <path
         id="path947"
         d="m 511.6355,765.26571 c -1.55139,61.31164 -25.16123,124.1546 -70.96638,175.81447 C 342.95915,1051.2793 180.9187,1068.808 78.725758,980.23348 30.827125,938.71783 4.4968188,881.28503 0.19382687,820.591 0.79907987,886.94767 27.117405,950.84437 79.07869,995.8813 c 102.19291,88.5745 264.24106,71.0371 361.94332,-39.15334 49.70495,-56.05811 73.00502,-125.29097 70.61349,-191.46225 z"
         inkscape:connector-curvature="0"
         style="opacity:0.1;stroke-width:11.10955811" />
      <path
         sodipodi:nodetypes="ccccsccccssccccc"
         id="path843"
         d="m 266.0081,607.36394 c -1.72195,4.57831 -3.66043,9.21313 -5.64014,13.64115 -0.16537,0.38426 -0.42548,0.70872 -0.59433,1.0889 -1.8264,4.03541 -3.63625,7.81875 -5.64011,11.73513 -0.41589,0.80949 -0.76476,1.6502 -1.18753,2.45118 -1.81074,3.46005 -3.71949,6.99919 -5.64016,10.36669 -0.66743,1.17388 -1.39954,2.39212 -2.07841,3.54768 -17.17997,28.7656 -39.75662,58.81097 -57.58886,84.02752 C 173.509,753.194 165.38371,773.67094 163,793.42492 c 0,49.05867 46.07136,88.93726 103.007,88.93726 56.93553,0 103.00687,-39.87859 103.00687,-88.93726 0,-30.90978 -24.66096,-62.6712 -53.13619,-103.39834 -9.01313,-12.65054 -17.71119,-25.95623 -25.52907,-38.46886 -4.2433,-6.85185 -8.39205,-13.90631 -12.46767,-21.2778 -1.27321,-2.30115 -2.61062,-4.73751 -3.85909,-7.09268 -2.69845,-5.10353 -5.4625,-10.45792 -8.01485,-15.82506 z"
         style="fill:#317ccf;fill-opacity:1;fill-rule:nonzero;stroke:none;stroke-width:1.0999999"
         inkscape:connector-curvature="0" />
      <path
         inkscape:connector-curvature="0"
         style="fill:#ffffff;fill-opacity:1;fill-rule:nonzero;stroke:none;stroke-width:1.0999999"
         d="m 256.0081,597.36394 c -1.72195,4.57831 -3.66043,9.21313 -5.64014,13.64115 -0.16537,0.38426 -0.42548,0.70872 -0.59433,1.0889 -1.8264,4.03541 -3.63625,7.81875 -5.64011,11.73513 -0.41589,0.80949 -0.76476,1.6502 -1.18753,2.45118 -1.81074,3.46005 -3.71949,6.99919 -5.64016,10.36669 -0.66743,1.17388 -1.39954,2.39212 -2.07841,3.54768 -17.17997,28.7656 -39.75662,58.81097 -57.58886,84.02752 C 163.509,743.194 155.38371,763.67094 153,783.42492 c 0,49.05867 46.07136,88.93726 103.007,88.93726 56.93553,0 103.00687,-39.87859 103.00687,-88.93726 0,-30.90978 -24.66096,-62.6712 -53.13619,-103.39834 -9.01313,-12.65054 -17.71119,-25.95623 -25.52907,-38.46886 -4.2433,-6.85185 -8.39205,-13.90631 -12.46767,-21.2778 -1.27321,-2.30115 -2.61062,-4.73751 -3.85909,-7.09268 -2.69845,-5.10353 -5.4625,-10.45792 -8.01485,-15.82506 z"
         id="path895-36"
         sodipodi:nodetypes="ccccsccccssccccc" />
      <g
         aria-label="IT87"
         transform="translate(-3.87109,541.07651)"
         style="font-style:normal;font-weight:normal;font-size:40px;line-height:1.25;font-family:sans-serif;letter-spacing:0px;word-spacing:0px;fill:#0c4aac;fill-opacity:1;stroke:none"
         id="g894">
        <path
           d="m 183.17969,383.6815 q -3.54167,0 -8.90951,-0.7194 l -8.9095,-1.16211 q -1.27279,16.10351 -1.27279,30.76823 0,3.87369 0.22136,9.57356 0.22135,5.69987 0.22135,9.57357 0,5.20183 -0.38737,9.46289 l 17.43164,-0.22135 q 2.32422,0 3.8737,1.66016 1.60482,1.60481 1.60482,3.98437 0,2.4349 -1.60482,4.09505 -1.54948,1.60482 -3.8737,1.60482 -3.09896,0 -9.29687,0.16602 -6.19792,0.11067 -9.29688,0.11067 -3.65234,0 -10.95703,0.9961 -7.24935,1.05143 -10.95703,1.05143 -2.32422,0 -3.92904,-1.66016 -1.54948,-1.60481 -1.54948,-3.98437 0,-2.37956 1.54948,-4.03972 1.60482,-1.66015 3.92904,-1.66015 3.597,0 11.89778,-1.16211 0.55339,-4.48242 0.55339,-10.23763 0,-3.81836 -0.38737,-9.29688 -0.33203,-5.53385 -0.33203,-9.29687 0,-12.78321 1.54948,-31.93034 l -7.19401,0.22135 -7.19401,0.16602 q -2.37956,0 -3.98438,-1.60482 -1.60482,-1.60482 -1.60482,-4.09505 0,-5.14649 5.20183,-5.64453 4.48242,-0.44271 16.76758,-0.44271 11.01237,0 27.61393,2.37956 4.92513,0.7194 4.92513,5.92122 0,2.60091 -1.88151,4.15039 -1.66016,1.27279 -3.81836,1.27279 z"
           style="font-style:normal;font-variant:normal;font-weight:normal;font-stretch:normal;font-size:113.33333588px;font-family:'Comic Sans MS';-inkscape-font-specification:'Comic Sans MS';fill:#0c4aac;fill-opacity:1"
           id="path886"
           inkscape:connector-curvature="0" />
        <path
           d="m 267.57097,382.74074 q -4.09506,0 -12.61719,-0.66406 -8.30078,-0.60872 -12.61719,-0.55339 h -3.92904 q 0.16602,7.63672 1.49415,24.79167 1.21744,15.99284 1.21744,24.84701 0,1.93685 0.38737,5.86588 0.38737,3.92904 0.38737,5.92123 0,3.76302 -1.21745,6.47461 -1.54947,3.65234 -4.81445,3.65234 -2.21354,0 -3.98437,-1.54948 -1.77084,-1.54948 -1.77084,-3.98437 0,-0.83008 0.2767,-2.49024 0.27669,-1.66016 0.27669,-2.49023 0,-2.71159 -0.38737,-8.13477 -0.33203,-5.42318 -0.33203,-8.1901 0,-7.91342 -1.27279,-22.2461 -1.32812,-15.49479 -1.49414,-22.24609 l -5.03581,0.0553 q -12.11914,0 -19.03646,-1.77084 -4.48242,-1.16211 -4.48242,-5.47851 0,-2.26888 1.4388,-3.98438 1.66016,-1.93685 4.26107,-1.77083 1.93685,0.11068 8.85417,0.99609 5.53385,0.66407 8.96484,0.66407 3.32032,0 10.07162,-0.11068 6.7513,-0.16602 10.07161,-0.16602 4.26107,0 12.61719,0.60873 8.41146,0.60872 12.67253,0.60872 2.37955,0 3.98437,1.66016 1.60482,1.60481 1.60482,4.03971 0,2.37956 -1.60482,4.03971 -1.60482,1.60482 -3.98437,1.60482 z"
           style="font-style:normal;font-variant:normal;font-weight:normal;font-stretch:normal;font-size:113.33333588px;font-family:'Comic Sans MS';-inkscape-font-specification:'Comic Sans MS';fill:#0c4aac;fill-opacity:1"
           id="path888"
           inkscape:connector-curvature="0" />
        <path
           d="m 303.20899,455.6216 q -11.67643,0 -18.87044,-5.09114 -8.19011,-5.75521 -8.35612,-16.87826 -0.22136,-17.87435 12.56185,-24.34896 -9.85026,-5.97656 -9.85026,-16.98893 0,-10.45898 7.58138,-17.3763 7.24935,-6.64063 17.59765,-6.7513 23.24219,-0.22136 23.24219,22.96549 0,6.64063 -2.65625,10.23763 -2.1582,2.98828 -8.35612,6.14258 8.24544,4.15039 11.56576,8.96484 3.87369,5.64453 3.87369,15.55013 0,11.28907 -8.35612,17.70834 -7.74739,5.86588 -19.97721,5.86588 z m 0.49805,-77.5293 q -7.13867,0 -10.9017,4.03972 -3.37565,3.76302 -3.32031,10.18229 0.0553,7.7474 12.72787,11.01237 6.64062,-1.93685 9.51823,-3.8737 4.59309,-3.09896 4.59309,-8.30078 0,-7.52604 -3.37565,-10.56966 -2.8776,-2.49024 -9.24153,-2.49024 z m -0.9961,35.0293 q -8.79882,4.09505 -11.73177,7.08334 -4.5931,4.59309 -4.3164,12.94921 0.22135,6.91732 6.36393,10.34831 4.48242,2.4349 10.18229,2.4349 9.73958,0 13.61328,-4.5931 3.09896,-3.65235 3.09896,-11.06771 0,-7.24935 -5.64453,-11.67643 -3.76302,-3.04362 -11.56576,-5.47852 z"
           style="font-style:normal;font-variant:normal;font-weight:normal;font-stretch:normal;font-size:113.33333588px;font-family:'Comic Sans MS';-inkscape-font-specification:'Comic Sans MS';fill:#0c4aac;fill-opacity:1"
           id="path890"
           inkscape:connector-curvature="0" />
        <path
           d="m 402.37566,380.36118 -5.0358,5.86589 q -7.19402,8.41146 -13.22592,20.36458 l -10.07161,22.08008 q -1.05143,2.4349 -4.64844,12.78321 -2.8776,8.1901 -5.36784,12.22981 -1.54948,2.60092 -4.42708,2.60092 -2.21354,0 -3.92904,-1.54948 -1.66015,-1.54948 -1.66015,-3.70769 0,-2.10286 3.54166,-10.79101 l 12.45118,-30.49154 q 8.24544,-18.0957 16.93359,-27.89062 l 1.05143,-1.16211 -27.77995,-0.55339 -12.45117,-0.33203 q -5.36784,-0.49805 -5.36784,-5.3125 0,-2.32422 1.54948,-3.81836 1.54948,-1.49414 3.8737,-1.49414 6.97266,0 20.91797,0.44271 14.00065,0.44271 20.97331,0.44271 h 10.12695 q 5.86589,0 5.86589,3.48632 0,2.60092 -3.32032,6.80664 z"
           style="font-style:normal;font-variant:normal;font-weight:normal;font-stretch:normal;font-size:113.33333588px;font-family:'Comic Sans MS';-inkscape-font-specification:'Comic Sans MS';fill:#0c4aac;fill-opacity:1"
           id="path892"
           inkscape:connector-curvature="0" />
      </g>
      <g
         id="flowRoot869"
         style="font-style:normal;font-weight:normal;font-size:40px;line-height:1.25;font-family:sans-serif;letter-spacing:0px;word-spacing:0px;fill:#ffffff;fill-opacity:1;stroke:none"
         transform="translate(-13.87109,531.07651)"
         aria-label="IT87">
        <path
           inkscape:connector-curvature="0"
           id="path877"
           style="font-style:normal;font-variant:normal;font-weight:normal;font-stretch:normal;font-size:113.33333588px;font-family:'Comic Sans MS';-inkscape-font-specification:'Comic Sans MS';fill:#ffffff"
           d="m 183.17969,383.6815 q -3.54167,0 -8.90951,-0.7194 l -8.9095,-1.16211 q -1.27279,16.10351 -1.27279,30.76823 0,3.87369 0.22136,9.57356 0.22135,5.69987 0.22135,9.57357 0,5.20183 -0.38737,9.46289 l 17.43164,-0.22135 q 2.32422,0 3.8737,1.66016 1.60482,1.60481 1.60482,3.98437 0,2.4349 -1.60482,4.09505 -1.54948,1.60482 -3.8737,1.60482 -3.09896,0 -9.29687,0.16602 -6.19792,0.11067 -9.29688,0.11067 -3.65234,0 -10.95703,0.9961 -7.24935,1.05143 -10.95703,1.05143 -2.32422,0 -3.92904,-1.66016 -1.54948,-1.60481 -1.54948,-3.98437 0,-2.37956 1.54948,-4.03972 1.60482,-1.66015 3.92904,-1.66015 3.597,0 11.89778,-1.16211 0.55339,-4.48242 0.55339,-10.23763 0,-3.81836 -0.38737,-9.29688 -0.33203,-5.53385 -0.33203,-9.29687 0,-12.78321 1.54948,-31.93034 l -7.19401,0.22135 -7.19401,0.16602 q -2.37956,0 -3.98438,-1.60482 -1.60482,-1.60482 -1.60482,-4.09505 0,-5.14649 5.20183,-5.64453 4.48242,-0.44271 16.76758,-0.44271 11.01237,0 27.61393,2.37956 4.92513,0.7194 4.92513,5.92122 0,2.60091 -1.88151,4.15039 -1.66016,1.27279 -3.81836,1.27279 z" />
        <path
           inkscape:connector-curvature="0"
           id="path879"
           style="font-style:normal;font-variant:normal;font-weight:normal;font-stretch:normal;font-size:113.33333588px;font-family:'Comic Sans MS';-inkscape-font-specification:'Comic Sans MS';fill:#ffffff"
           d="m 267.57097,382.74074 q -4.09506,0 -12.61719,-0.66406 -8.30078,-0.60872 -12.61719,-0.55339 h -3.92904 q 0.16602,7.63672 1.49415,24.79167 1.21744,15.99284 1.21744,24.84701 0,1.93685 0.38737,5.86588 0.38737,3.92904 0.38737,5.92123 0,3.76302 -1.21745,6.47461 -1.54947,3.65234 -4.81445,3.65234 -2.21354,0 -3.98437,-1.54948 -1.77084,-1.54948 -1.77084,-3.98437 0,-0.83008 0.2767,-2.49024 0.27669,-1.66016 0.27669,-2.49023 0,-2.71159 -0.38737,-8.13477 -0.33203,-5.42318 -0.33203,-8.1901 0,-7.91342 -1.27279,-22.2461 -1.32812,-15.49479 -1.49414,-22.24609 l -5.03581,0.0553 q -12.11914,0 -19.03646,-1.77084 -4.48242,-1.16211 -4.48242,-5.47851 0,-2.26888 1.4388,-3.98438 1.66016,-1.93685 4.26107,-1.77083 1.93685,0.11068 8.85417,0.99609 5.53385,0.66407 8.96484,0.66407 3.32032,0 10.07162,-0.11068 6.7513,-0.16602 10.07161,-0.16602 4.26107,0 12.61719,0.60873 8.41146,0.60872 12.67253,0.60872 2.37955,0 3.98437,1.66016 1.60482,1.60481 1.60482,4.03971 0,2.37956 -1.60482,4.03971 -1.60482,1.60482 -3.98437,1.60482 z" />
        <path
           inkscape:connector-curvature="0"
           id="path881"
           style="font-style:normal;font-variant:normal;font-weight:normal;font-stretch:normal;font-size:113.33333588px;font-family:'Comic Sans MS';-inkscape-font-specification:'Comic Sans MS';fill:#ffffff"
           d="m 303.20899,455.6216 q -11.67643,0 -18.87044,-5.09114 -8.19011,-5.75521 -8.35612,-16.87826 -0.22136,-17.87435 12.56185,-24.34896 -9.85026,-5.97656 -9.85026,-16.98893 0,-10.45898 7.58138,-17.3763 7.24935,-6.64063 17.59765,-6.7513 23.24219,-0.22136 23.24219,22.96549 0,6.64063 -2.65625,10.23763 -2.1582,2.98828 -8.35612,6.14258 8.24544,4.15039 11.56576,8.96484 3.87369,5.64453 3.87369,15.55013 0,11.28907 -8.35612,17.70834 -7.74739,5.86588 -19.97721,5.86588 z m 0.49805,-77.5293 q -7.13867,0 -10.9017,4.03972 -3.37565,3.76302 -3.32031,10.18229 0.0553,7.7474 12.72787,11.01237 6.64062,-1.93685 9.51823,-3.8737 4.59309,-3.09896 4.59309,-8.30078 0,-7.52604 -3.37565,-10.56966 -2.8776,-2.49024 -9.24153,-2.49024 z m -0.9961,35.0293 q -8.79882,4.09505 -11.73177,7.08334 -4.5931,4.59309 -4.3164,12.94921 0.22135,6.91732 6.36393,10.34831 4.48242,2.4349 10.18229,2.4349 9.73958,0 13.61328,-4.5931 3.09896,-3.65235 3.09896,-11.06771 0,-7.24935 -5.64453,-11.67643 -3.76302,-3.04362 -11.56576,-5.47852 z" />
        <path
           inkscape:connector-curvature="0"
           id="path883"
           style="font-style:normal;font-variant:normal;font-weight:normal;font-stretch:normal;font-size:113.33333588px;font-family:'Comic Sans MS';-inkscape-font-specification:'Comic Sans MS';fill:#ffffff"
           d="m 402.37566,380.36118 -5.0358,5.86589 q -7.19402,8.41146 -13.22592,20.36458 l -10.07161,22.08008 q -1.05143,2.4349 -4.64844,12.78321 -2.8776,8.1901 -5.36784,12.22981 -1.54948,2.60092 -4.42708,2.60092 -2.21354,0 -3.92904,-1.54948 -1.66015,-1.54948 -1.66015,-3.70769 0,-2.10286 3.54166,-10.79101 l 12.45118,-30.49154 q 8.24544,-18.0957 16.93359,-27.89062 l 1.05143,-1.16211 -27.77995,-0.55339 -12.45117,-0.33203 q -5.36784,-0.49805 -5.36784,-5.3125 0,-2.32422 1.54948,-3.81836 1.54948,-1.49414 3.8737,-1.49414 6.97266,0 20.91797,0.44271 14.00065,0.44271 20.97331,0.44271 h 10.12695 q 5.86589,0 5.86589,3.48632 0,2.60092 -3.32032,6.80664 z" />
      </g>
    </g>
  </g>
</svg>
