<?xml version="1.0" encoding="UTF-8" standalone="no"?>
<!-- Created with Inkscape (http://www.inkscape.org/) -->

<svg
   xmlns:dc="http://purl.org/dc/elements/1.1/"
   xmlns:cc="http://creativecommons.org/ns#"
   xmlns:rdf="http://www.w3.org/1999/02/22-rdf-syntax-ns#"
   xmlns:svg="http://www.w3.org/2000/svg"
   xmlns="http://www.w3.org/2000/svg"
   xmlns:sodipodi="http://sodipodi.sourceforge.net/DTD/sodipodi-0.dtd"
   xmlns:inkscape="http://www.inkscape.org/namespaces/inkscape"
   width="512"
   height="512"
   id="svg2"
   version="1.1"
   inkscape:version="0.92.2 5c3e80d, 2017-08-06"
   sodipodi:docname="application-vnd.sun.xml.math.svg">
  <defs
     id="defs4" />
  <sodipodi:namedview
     id="base"
     pagecolor="#ffffff"
     bordercolor="#666666"
     borderopacity="1.0"
     inkscape:pageopacity="0.0"
     inkscape:pageshadow="2"
     inkscape:zoom="0.30333333"
     inkscape:cx="92.948574"
     inkscape:cy="32.926561"
     inkscape:document-units="px"
     inkscape:current-layer="layer1"
     showgrid="false"
     inkscape:window-width="1366"
     inkscape:window-height="717"
     inkscape:window-x="0"
     inkscape:window-y="24"
     inkscape:window-maximized="1" />
  <metadata
     id="metadata7">
    <rdf:RDF>
      <cc:Work
         rdf:about="">
        <dc:format>image/svg+xml</dc:format>
        <dc:type
           rdf:resource="http://purl.org/dc/dcmitype/StillImage" />
        <dc:title></dc:title>
      </cc:Work>
    </rdf:RDF>
  </metadata>
  <g
     inkscape:label="Layer 1"
     inkscape:groupmode="layer"
     id="layer1"
     transform="translate(0,-540.36218)">
    <g
       id="g934">
      <path
         style="fill:#333333;fill-opacity:1;stroke-width:11.10955811"
         inkscape:connector-curvature="0"
         d="m 432.91326,596.83616 c 102.19291,88.57459 105.82678,249.69971 8.1168,359.89879 C 343.32009,1066.934 181.27965,1084.4628 79.08674,995.88821 -23.106205,907.31362 -26.740032,746.1885 70.96994,635.98942 168.67991,525.79034 330.72036,508.26157 432.91326,596.83616 Z"
         id="path961" />
      <path
         style="fill:#1a1a1a;fill-opacity:1;stroke:none;stroke-width:0.99999994px;stroke-linecap:butt;stroke-linejoin:miter;stroke-opacity:1"
         d="M 8.3652412,882.3622 C 19.949342,925.51393 43.55155,965.08857 79.08595,995.8876 c 102.19291,88.5746 264.23339,71.0467 361.94336,-39.15235 20.35102,-22.95224 36.28955,-48.11807 47.87304,-74.37305 z"
         id="path963"
         inkscape:connector-curvature="0"
         sodipodi:nodetypes="csscc" />
      <path
         style="opacity:0.1;stroke-width:11.10955811"
         inkscape:connector-curvature="0"
         d="m 511.6355,765.26571 c -1.55139,61.31164 -25.16123,124.1546 -70.96638,175.81447 C 342.95915,1051.2793 180.9187,1068.808 78.72576,980.23348 30.82713,938.71783 4.4968192,881.28503 0.19382718,820.591 0.79908018,886.94767 27.117405,950.84437 79.07869,995.88125 181.2716,1084.4558 343.31975,1066.9184 441.02201,956.72796 490.72696,900.66985 514.02703,831.43699 511.6355,765.26571 Z"
         id="path965" />
      <g
         style="fill:#2e2e2e;fill-opacity:1"
         transform="translate(10,9.9999989)"
         id="g875">
        <path
           sodipodi:nodetypes="ccccsccscsscccccccccccccccccccccccc"
           inkscape:connector-curvature="0"
           id="path869"
           d="m 169.80093,871.82472 c -25.73207,-2.4948 -47.04867,-22.8181 -50.88028,-48.5094 -0.22452,-1.5055 -0.41111,-42.25665 -0.41465,-90.55818 l -0.006,-87.82095 1.30585,-4.74017 c 3.0651,-11.12616 7.82682,-19.4983 15.30101,-26.90251 6.43805,-6.37775 13.54885,-10.76843 22.23146,-13.72717 8.28134,-2.82201 5.44519,-2.74329 98.83482,-2.74329 h 87.82098 l 4.63741,1.29908 c 16.27752,4.55982 27.25721,12.90498 35.89622,27.28308 2.97475,4.95094 6.03871,13.82464 6.94391,20.11066 0.13774,0.95647 0.27188,26.0637 0.29809,55.79385 l -0.14418,129.1229 c -2.14093,6.9318 -3.84492,10.5616 -7.62455,16.2421 -9.63889,14.4863 -24.7657,23.4836 -42.35788,25.1941 -7.0432,0.6847 -164.7414,0.6443 -171.84178,-0.044 z m 159.3535,-25.4821 c 19.546,-3.1715 35.69326,-19.3187 38.86471,-38.86473 0.38156,-2.35157 0.60364,-21.43672 0.60642,-52.11476 l 0.005,-48.40443 -43.64035,-43.63748 -43.64034,-43.63748 -50.99183,0.16368 -50.99183,0.16368 -4.05773,1.37032 c -16.24568,5.48624 -27.24754,16.58964 -32.26247,32.56018 l -1.35876,4.32715 v 75.06806 75.0681 l 1.35876,4.32717 c 5.48127,17.45564 19.39241,30.20454 36.65363,33.59104 3.79454,0.7445 144.87386,0.7629 149.45541,0.02 z"
           style="fill:#2e2e2e;fill-opacity:1;stroke-width:0.57967639" />
        <g
           id="g873"
           style="font-style:normal;font-weight:normal;font-size:40px;line-height:1.25;font-family:sans-serif;letter-spacing:0px;word-spacing:0px;fill:#2e2e2e;fill-opacity:1;stroke:none"
           transform="translate(37.912089,528.12042)"
           aria-label="M">
          <path
             inkscape:connector-curvature="0"
             id="path871"
             style="font-style:normal;font-variant:normal;font-weight:normal;font-stretch:normal;font-size:173.33332825px;font-family:'Comic Sans MS';-inkscape-font-specification:'Comic Sans MS';fill:#2e2e2e;fill-opacity:1"
             d="m 279.22005,273.63121 q -4.57031,0 -7.53255,-4.73958 -2.53907,-4.0625 -4.57032,-13.54167 l -3.04687,-14.55729 q -3.47005,-13.54167 -11.0026,-59.7526 l -16.92709,51.03515 -4.99349,16.08073 q -3.04687,9.5638 -6.34765,15.65755 -3.55469,6.43229 -9.56381,6.43229 -4.99348,0 -7.87109,-5.41666 -1.86198,-3.55469 -3.38542,-9.05599 l -2.45442,-9.39453 q -8.54818,-29.87631 -15.06511,-63.98438 l -3.04687,15.14974 -10.91797,44.6875 q -0.67708,7.87109 -4.23177,23.27474 -2.53906,6.60156 -8.37891,6.60156 -4.14713,0 -6.60156,-2.96224 -2.11588,-2.53906 -2.11588,-6.26302 0,-14.13411 5.83984,-34.70052 l 9.3099,-34.10807 4.90885,-26.66016 q 3.72396,-18.70442 7.87109,-24.45963 3.38542,-4.90885 8.37891,-4.90885 5.5013,0 8.20963,6.26302 3.30079,7.53255 7.10938,30.72265 4.48568,27.84505 13.96484,60.26042 12.52604,-32.58464 21.66667,-67.87761 l 2.53906,-12.35677 q 1.52344,-7.44791 3.97787,-12.01823 3.30078,-6.26302 9.05598,-6.26302 7.27865,0 11.08724,14.04948 1.35417,4.82422 3.30079,19.97396 4.99348,38.25521 12.4414,65.33854 l 4.14714,14.55729 q 3.21614,11.67969 3.21614,14.38802 0,3.63932 -2.79297,6.09375 -2.70833,2.45443 -6.17838,2.45443 z" />
        </g>
      </g>
      <g
         id="g867">
        <path
           style="fill:#ffffff;stroke-width:0.57967639"
           d="m 169.80093,871.82472 c -25.73207,-2.4948 -47.04867,-22.8181 -50.88028,-48.5094 -0.22452,-1.5055 -0.41111,-42.25665 -0.41465,-90.55818 l -0.006,-87.82095 1.30585,-4.74017 c 3.0651,-11.12616 7.82682,-19.4983 15.30101,-26.90251 6.43805,-6.37775 13.54885,-10.76843 22.23146,-13.72717 8.28134,-2.82201 5.44519,-2.74329 98.83482,-2.74329 h 87.82098 l 4.63741,1.29908 c 16.27752,4.55982 27.25721,12.90498 35.89622,27.28308 2.97475,4.95094 6.03871,13.82464 6.94391,20.11066 0.13774,0.95647 0.27188,26.0637 0.29809,55.79385 l -0.14418,129.1229 c -2.14093,6.9318 -3.84492,10.5616 -7.62455,16.2421 -9.63889,14.4863 -24.7657,23.4836 -42.35788,25.1941 -7.0432,0.6847 -164.7414,0.6443 -171.84178,-0.044 z m 159.3535,-25.4821 c 19.546,-3.1715 35.69326,-19.3187 38.86471,-38.86473 0.38156,-2.35157 0.60364,-21.43672 0.60642,-52.11476 l 0.005,-48.40443 -43.64035,-43.63748 -43.64034,-43.63748 -50.99183,0.16368 -50.99183,0.16368 -4.05773,1.37032 c -16.24568,5.48624 -27.24754,16.58964 -32.26247,32.56018 l -1.35876,4.32715 v 75.06806 75.0681 l 1.35876,4.32717 c 5.48127,17.45564 19.39241,30.20454 36.65363,33.59104 3.79454,0.7445 144.87386,0.7629 149.45541,0.02 z"
           id="path910"
           inkscape:connector-curvature="0"
           sodipodi:nodetypes="ccccsccscsscccccccccccccccccccccccc" />
        <g
           aria-label="M"
           transform="translate(37.912089,528.12042)"
           style="font-style:normal;font-weight:normal;font-size:40px;line-height:1.25;font-family:sans-serif;letter-spacing:0px;word-spacing:0px;fill:#ffffff;fill-opacity:1;stroke:none"
           id="flowRoot853">
          <path
             d="m 279.22005,273.63121 q -4.57031,0 -7.53255,-4.73958 -2.53907,-4.0625 -4.57032,-13.54167 l -3.04687,-14.55729 q -3.47005,-13.54167 -11.0026,-59.7526 l -16.92709,51.03515 -4.99349,16.08073 q -3.04687,9.5638 -6.34765,15.65755 -3.55469,6.43229 -9.56381,6.43229 -4.99348,0 -7.87109,-5.41666 -1.86198,-3.55469 -3.38542,-9.05599 l -2.45442,-9.39453 q -8.54818,-29.87631 -15.06511,-63.98438 l -3.04687,15.14974 -10.91797,44.6875 q -0.67708,7.87109 -4.23177,23.27474 -2.53906,6.60156 -8.37891,6.60156 -4.14713,0 -6.60156,-2.96224 -2.11588,-2.53906 -2.11588,-6.26302 0,-14.13411 5.83984,-34.70052 l 9.3099,-34.10807 4.90885,-26.66016 q 3.72396,-18.70442 7.87109,-24.45963 3.38542,-4.90885 8.37891,-4.90885 5.5013,0 8.20963,6.26302 3.30079,7.53255 7.10938,30.72265 4.48568,27.84505 13.96484,60.26042 12.52604,-32.58464 21.66667,-67.87761 l 2.53906,-12.35677 q 1.52344,-7.44791 3.97787,-12.01823 3.30078,-6.26302 9.05598,-6.26302 7.27865,0 11.08724,14.04948 1.35417,4.82422 3.30079,19.97396 4.99348,38.25521 12.4414,65.33854 l 4.14714,14.55729 q 3.21614,11.67969 3.21614,14.38802 0,3.63932 -2.79297,6.09375 -2.70833,2.45443 -6.17838,2.45443 z"
             style="font-style:normal;font-variant:normal;font-weight:normal;font-stretch:normal;font-size:173.33332825px;font-family:'Comic Sans MS';-inkscape-font-specification:'Comic Sans MS';fill:#ffffff"
             id="path861"
             inkscape:connector-curvature="0" />
        </g>
      </g>
      <g
         aria-label="SXM"
         transform="translate(-35.714308,564.02378)"
         style="font-style:normal;font-weight:normal;font-size:40px;line-height:1.25;font-family:sans-serif;letter-spacing:0px;word-spacing:0px;fill:#171717;fill-opacity:1;stroke:none"
         id="g913">
        <path
           d="m 177.21615,414.91066 q -0.0553,-2.32421 1.54948,-3.76302 1.66015,-1.49414 4.03971,-1.49414 2.71159,0 4.75911,3.09896 2.82227,4.20573 5.03581,5.69987 4.70378,3.09896 13.66862,3.09896 8.57748,0 15.9375,-3.70768 9.40755,-4.75912 9.40755,-13.22591 0,-6.97266 -7.91341,-11.01237 -6.69596,-3.48633 -16.54622,-3.76302 -8.74349,-0.33204 -14.88607,-3.81836 -7.85807,-4.48243 -7.85807,-12.83855 0,-9.85026 11.17838,-17.98502 10.68034,-7.69206 22.08008,-7.69206 5.36784,0 12.11914,1.82617 8.96485,2.37956 8.96485,6.08724 0,4.86979 -4.98047,4.86979 -2.21354,0 -7.7474,-1.16211 -5.53385,-1.21744 -8.57747,-1.16211 -8.63282,0.11068 -14.66472,4.26107 -6.19791,4.26107 -6.19791,10.34831 0,4.5931 8.1901,6.47461 3.04362,0.7194 11.78711,1.32812 12.67253,0.94076 19.8112,7.96875 6.52995,6.41928 6.52995,15.66081 0,13.17058 -12.17448,21.02865 -10.56966,6.80664 -24.51498,6.80664 -10.12695,0 -18.53841,-3.8737 -10.29297,-4.75911 -10.45898,-13.0599 z"
           style="font-style:normal;font-variant:normal;font-weight:normal;font-stretch:normal;font-size:113.33333588px;font-family:'Comic Sans MS';-inkscape-font-specification:'Comic Sans MS';fill:#171717;fill-opacity:1"
           id="path906"
           inkscape:connector-curvature="0" />
        <path
           d="m 324.69337,354.03827 q -7.41537,8.96484 -11.39974,14.77539 l -6.91732,10.18229 q -4.03972,5.75521 -7.58138,9.68425 l 12.17448,17.81901 q 7.24935,10.56966 12.89388,17.26562 1.49414,1.82617 1.49414,3.81836 0,2.32422 -1.7155,4.03971 -1.66015,1.7155 -3.98437,1.7155 -2.10287,0 -3.92904,-1.7155 -4.09505,-3.87369 -8.52213,-10.51432 l -7.41537,-11.39974 -8.68815,-12.45117 -19.03646,22.02474 -10.18229,11.39974 q -1.82617,1.82617 -4.03971,1.82617 -2.26888,0 -3.98438,-1.71549 -1.71549,-1.7155 -1.71549,-4.03972 0,-1.99218 1.4388,-3.76302 l 9.96094,-11.12304 20.75195,-24.07227 q -6.08724,-8.13477 -12.94922,-16.32487 l -6.41927,-8.68815 q -3.8737,-5.20183 -7.19401,-7.96875 -2.32422,-1.93685 -2.32422,-4.48242 0,-2.26888 1.60482,-4.03972 1.60482,-1.77083 3.98437,-1.77083 4.70378,0 12.00847,10.01627 2.26888,3.37566 6.91731,9.57357 6.3086,7.52604 12.00847,15.10742 l 12.61719,-17.59765 q 12.28515,-17.09961 15.9375,-17.09961 2.26888,0 3.98437,1.71549 1.7155,1.7155 1.7155,4.03972 0,1.93685 -1.49414,3.76302 z"
           style="font-style:normal;font-variant:normal;font-weight:normal;font-stretch:normal;font-size:113.33333588px;font-family:'Comic Sans MS';-inkscape-font-specification:'Comic Sans MS';fill:#171717;fill-opacity:1"
           id="path908"
           inkscape:connector-curvature="0" />
        <path
           d="m 420.42904,433.28306 q -2.98828,0 -4.92513,-3.09896 -1.66016,-2.65625 -2.98828,-8.85416 l -1.99219,-9.51823 q -2.26888,-8.85417 -7.19401,-39.06901 l -11.06771,33.36914 -3.26497,10.51432 q -1.99219,6.25326 -4.15039,10.23763 -2.32422,4.20573 -6.25326,4.20573 -3.26497,0 -5.14648,-3.54167 -1.21745,-2.32422 -2.21355,-5.92122 l -1.60481,-6.14258 q -5.5892,-19.53451 -9.85026,-41.83594 l -1.99219,9.9056 -7.13867,29.21875 q -0.44271,5.14649 -2.76693,15.2181 -1.66016,4.31641 -5.47852,4.31641 -2.71159,0 -4.3164,-1.93685 -1.38347,-1.66016 -1.38347,-4.09505 0,-9.24154 3.81836,-22.68881 l 6.08724,-22.30143 3.20964,-17.43164 q 2.43489,-12.22982 5.14648,-15.99284 2.21354,-3.20963 5.47852,-3.20963 3.597,0 5.36784,4.09505 2.1582,4.92513 4.64843,20.08789 2.93295,18.20638 9.13086,39.40104 8.19011,-21.30534 14.16667,-44.38151 l 1.66016,-8.07943 q 0.99609,-4.86979 2.60091,-7.85807 2.1582,-4.09505 5.92122,-4.09505 4.75912,0 7.24935,9.1862 0.88542,3.15429 2.1582,13.05989 3.26498,25.01302 8.13477,42.72136 l 2.71159,9.51823 q 2.10286,7.63672 2.10286,9.40755 0,2.37956 -1.82617,3.98437 -1.77083,1.60482 -4.03971,1.60482 z"
           style="font-style:normal;font-variant:normal;font-weight:normal;font-stretch:normal;font-size:113.33333588px;font-family:'Comic Sans MS';-inkscape-font-specification:'Comic Sans MS';fill:#171717;fill-opacity:1"
           id="path911"
           inkscape:connector-curvature="0" />
      </g>
      <g
         id="flowRoot891"
         style="font-style:normal;font-weight:normal;font-size:40px;line-height:1.25;font-family:sans-serif;letter-spacing:0px;word-spacing:0px;fill:#ffffff;fill-opacity:1;stroke:none"
         transform="translate(-45.714308,554.02378)"
         aria-label="SXM">
        <path
           inkscape:connector-curvature="0"
           id="path899"
           style="font-style:normal;font-variant:normal;font-weight:normal;font-stretch:normal;font-size:113.33333588px;font-family:'Comic Sans MS';-inkscape-font-specification:'Comic Sans MS';fill:#ffffff"
           d="m 177.21615,414.91066 q -0.0553,-2.32421 1.54948,-3.76302 1.66015,-1.49414 4.03971,-1.49414 2.71159,0 4.75911,3.09896 2.82227,4.20573 5.03581,5.69987 4.70378,3.09896 13.66862,3.09896 8.57748,0 15.9375,-3.70768 9.40755,-4.75912 9.40755,-13.22591 0,-6.97266 -7.91341,-11.01237 -6.69596,-3.48633 -16.54622,-3.76302 -8.74349,-0.33204 -14.88607,-3.81836 -7.85807,-4.48243 -7.85807,-12.83855 0,-9.85026 11.17838,-17.98502 10.68034,-7.69206 22.08008,-7.69206 5.36784,0 12.11914,1.82617 8.96485,2.37956 8.96485,6.08724 0,4.86979 -4.98047,4.86979 -2.21354,0 -7.7474,-1.16211 -5.53385,-1.21744 -8.57747,-1.16211 -8.63282,0.11068 -14.66472,4.26107 -6.19791,4.26107 -6.19791,10.34831 0,4.5931 8.1901,6.47461 3.04362,0.7194 11.78711,1.32812 12.67253,0.94076 19.8112,7.96875 6.52995,6.41928 6.52995,15.66081 0,13.17058 -12.17448,21.02865 -10.56966,6.80664 -24.51498,6.80664 -10.12695,0 -18.53841,-3.8737 -10.29297,-4.75911 -10.45898,-13.0599 z" />
        <path
           inkscape:connector-curvature="0"
           id="path901"
           style="font-style:normal;font-variant:normal;font-weight:normal;font-stretch:normal;font-size:113.33333588px;font-family:'Comic Sans MS';-inkscape-font-specification:'Comic Sans MS';fill:#ffffff"
           d="m 324.69337,354.03827 q -7.41537,8.96484 -11.39974,14.77539 l -6.91732,10.18229 q -4.03972,5.75521 -7.58138,9.68425 l 12.17448,17.81901 q 7.24935,10.56966 12.89388,17.26562 1.49414,1.82617 1.49414,3.81836 0,2.32422 -1.7155,4.03971 -1.66015,1.7155 -3.98437,1.7155 -2.10287,0 -3.92904,-1.7155 -4.09505,-3.87369 -8.52213,-10.51432 l -7.41537,-11.39974 -8.68815,-12.45117 -19.03646,22.02474 -10.18229,11.39974 q -1.82617,1.82617 -4.03971,1.82617 -2.26888,0 -3.98438,-1.71549 -1.71549,-1.7155 -1.71549,-4.03972 0,-1.99218 1.4388,-3.76302 l 9.96094,-11.12304 20.75195,-24.07227 q -6.08724,-8.13477 -12.94922,-16.32487 l -6.41927,-8.68815 q -3.8737,-5.20183 -7.19401,-7.96875 -2.32422,-1.93685 -2.32422,-4.48242 0,-2.26888 1.60482,-4.03972 1.60482,-1.77083 3.98437,-1.77083 4.70378,0 12.00847,10.01627 2.26888,3.37566 6.91731,9.57357 6.3086,7.52604 12.00847,15.10742 l 12.61719,-17.59765 q 12.28515,-17.09961 15.9375,-17.09961 2.26888,0 3.98437,1.71549 1.7155,1.7155 1.7155,4.03972 0,1.93685 -1.49414,3.76302 z" />
        <path
           inkscape:connector-curvature="0"
           id="path903"
           style="font-style:normal;font-variant:normal;font-weight:normal;font-stretch:normal;font-size:113.33333588px;font-family:'Comic Sans MS';-inkscape-font-specification:'Comic Sans MS';fill:#ffffff"
           d="m 420.42904,433.28306 q -2.98828,0 -4.92513,-3.09896 -1.66016,-2.65625 -2.98828,-8.85416 l -1.99219,-9.51823 q -2.26888,-8.85417 -7.19401,-39.06901 l -11.06771,33.36914 -3.26497,10.51432 q -1.99219,6.25326 -4.15039,10.23763 -2.32422,4.20573 -6.25326,4.20573 -3.26497,0 -5.14648,-3.54167 -1.21745,-2.32422 -2.21355,-5.92122 l -1.60481,-6.14258 q -5.5892,-19.53451 -9.85026,-41.83594 l -1.99219,9.9056 -7.13867,29.21875 q -0.44271,5.14649 -2.76693,15.2181 -1.66016,4.31641 -5.47852,4.31641 -2.71159,0 -4.3164,-1.93685 -1.38347,-1.66016 -1.38347,-4.09505 0,-9.24154 3.81836,-22.68881 l 6.08724,-22.30143 3.20964,-17.43164 q 2.43489,-12.22982 5.14648,-15.99284 2.21354,-3.20963 5.47852,-3.20963 3.597,0 5.36784,4.09505 2.1582,4.92513 4.64843,20.08789 2.93295,18.20638 9.13086,39.40104 8.19011,-21.30534 14.16667,-44.38151 l 1.66016,-8.07943 q 0.99609,-4.86979 2.60091,-7.85807 2.1582,-4.09505 5.92122,-4.09505 4.75912,0 7.24935,9.1862 0.88542,3.15429 2.1582,13.05989 3.26498,25.01302 8.13477,42.72136 l 2.71159,9.51823 q 2.10286,7.63672 2.10286,9.40755 0,2.37956 -1.82617,3.98437 -1.77083,1.60482 -4.03971,1.60482 z" />
      </g>
    </g>
  </g>
</svg>
