<?xml version="1.0" encoding="UTF-8" standalone="no"?>
<!-- Created with Inkscape (http://www.inkscape.org/) -->

<svg
   xmlns:dc="http://purl.org/dc/elements/1.1/"
   xmlns:cc="http://creativecommons.org/ns#"
   xmlns:rdf="http://www.w3.org/1999/02/22-rdf-syntax-ns#"
   xmlns:svg="http://www.w3.org/2000/svg"
   xmlns="http://www.w3.org/2000/svg"
   xmlns:sodipodi="http://sodipodi.sourceforge.net/DTD/sodipodi-0.dtd"
   xmlns:inkscape="http://www.inkscape.org/namespaces/inkscape"
   width="512"
   height="512"
   id="svg2"
   version="1.1"
   inkscape:version="0.92.2 5c3e80d, 2017-08-06"
   sodipodi:docname="application-pkcs7-signature.svg">
  <defs
     id="defs4" />
  <sodipodi:namedview
     id="base"
     pagecolor="#ffffff"
     bordercolor="#666666"
     borderopacity="1.0"
     inkscape:pageopacity="0.0"
     inkscape:pageshadow="2"
     inkscape:zoom="0.60666666"
     inkscape:cx="200.15371"
     inkscape:cy="227.47304"
     inkscape:document-units="px"
     inkscape:current-layer="layer1"
     showgrid="false"
     inkscape:window-width="1366"
     inkscape:window-height="717"
     inkscape:window-x="0"
     inkscape:window-y="24"
     inkscape:window-maximized="1" />
  <metadata
     id="metadata7">
    <rdf:RDF>
      <cc:Work
         rdf:about="">
        <dc:format>image/svg+xml</dc:format>
        <dc:type
           rdf:resource="http://purl.org/dc/dcmitype/StillImage" />
        <dc:title></dc:title>
      </cc:Work>
    </rdf:RDF>
  </metadata>
  <g
     inkscape:label="Layer 1"
     inkscape:groupmode="layer"
     id="layer1"
     transform="translate(0,-540.36218)">
    <g
       id="g907">
      <path
         id="path955"
         d="m 432.91324,596.83614 c 102.19291,88.57459 105.82677,249.69971 8.1168,359.89879 C 343.32009,1066.934 181.27965,1084.4628 79.086738,995.88819 -23.106204,907.3136 -26.740031,746.18848 70.969938,635.9894 168.67991,525.79032 330.72036,508.26155 432.91324,596.83614 Z"
         inkscape:connector-curvature="0"
         style="fill:#8a715e;fill-opacity:1;stroke-width:11.10955811" />
      <path
         sodipodi:nodetypes="csscc"
         inkscape:connector-curvature="0"
         id="path957"
         d="M 8.3652348,882.36218 C 19.949334,925.51391 43.551548,965.08852 79.085938,995.88755 181.27884,1084.4622 343.31934,1066.9343 441.02929,956.73523 461.3803,933.78299 477.31887,908.61716 488.90233,882.36218 Z"
         style="fill:#715344;fill-opacity:1;stroke:none;stroke-width:0.99999994px;stroke-linecap:butt;stroke-linejoin:miter;stroke-opacity:1" />
      <path
         id="path959"
         d="M 511.63547,765.26569 C 510.08409,826.57733 486.47425,889.42029 440.6691,941.08016 342.95915,1051.2793 180.9187,1068.808 78.725758,980.23346 30.827125,938.71781 4.4968198,881.28501 0.19382786,820.59098 0.79908086,886.94765 27.117406,950.84435 79.078688,995.88123 181.2716,1084.4558 343.31975,1066.9184 441.02199,956.72794 490.72694,900.66983 514.02701,831.43697 511.63547,765.26569 Z"
         inkscape:connector-curvature="0"
         style="opacity:0.1;stroke-width:11.10955811" />
      <path
         inkscape:connector-curvature="0"
         id="path874"
         d="m 184.29604,879.21981 c -55.80745,-15.00164 -74.60451,-84.06457 -33.9442,-124.72486 35.7562,-35.7562 93.03258,-27.41349 118.22181,17.21896 l 6.09764,10.80948 H 339.08479 403.5 v 24.47034 24.4703 h -12.73232 -12.73231 v 25.44907 25.44908 H 353.56502 329.09467 V 856.9131 831.46403 h -27.37363 -27.37365 l -4.83306,9.54491 c -9.94335,19.6338 -31.06344,35.10313 -53.73738,39.3715 -13.52919,2.54646 -18.38825,2.37324 -31.49651,-1.21249 z m 33.23222,-51.46114 c 12.33396,-8.57484 14.48196,-25.65868 4.69453,-37.29272 -9.7528,-11.58901 -26.04672,-11.90083 -37.21652,-0.69292 -5.57798,5.57795 -6.63467,8.03783 -6.63467,15.46935 0,13.82366 6.9292,23.77393 18.67754,26.81235 5.75122,1.55919 14.967,-0.34645 20.47393,-4.24408 z"
         style="fill:#7c6655;fill-opacity:1;stroke-width:1.95761049" />
      <path
         style="fill:#ffffff;stroke-width:1.95761049"
         d="m 174.29604,869.21981 c -55.80745,-15.00164 -74.604516,-84.06457 -33.9442,-124.72486 35.7562,-35.7562 93.03258,-27.41349 118.22181,17.21896 l 6.09764,10.80948 H 329.08479 393.5 v 24.47034 24.4703 h -12.73232 -12.73231 v 25.44907 25.44908 H 343.56502 319.09467 V 846.9131 821.46403 h -27.37363 -27.37365 l -4.83306,9.54491 c -9.94335,19.6338 -31.06344,35.10313 -53.73738,39.3715 -13.52919,2.54646 -18.38825,2.37324 -31.49651,-1.21249 z m 33.23222,-51.46114 c 12.33396,-8.57484 14.48196,-25.65868 4.69453,-37.29272 -9.7528,-11.58901 -26.04672,-11.90083 -37.21652,-0.69292 -5.57798,5.57795 -6.63467,8.03783 -6.63467,15.46935 0,13.82366 6.9292,23.77393 18.67754,26.81235 5.75122,1.55919 14.967,-0.34645 20.47393,-4.24408 z"
         id="path1344"
         inkscape:connector-curvature="0" />
      <g
         aria-label="P7S"
         transform="translate(38.83919,544.37339)"
         style="font-style:normal;font-weight:normal;font-size:40px;line-height:1.25;font-family:sans-serif;letter-spacing:0px;word-spacing:0px;fill:#664b3d;fill-opacity:1;stroke:none"
         id="g892">
        <path
           d="m 146.48177,416.85272 q -1.54948,0 -6.7513,-0.7194 -0.44271,8.35612 -0.44271,29.27409 0,2.21354 -1.4388,3.76302 -1.4388,1.49414 -3.59701,1.49414 -2.21354,0 -3.65234,-1.49414 -1.4388,-1.54948 -1.4388,-3.76302 v -16.26953 q 0,-8.13477 0.99609,-22.91016 1.10677,-15.99284 1.21745,-22.91016 v -7.63671 q 0,-5.47852 0.66406,-7.96875 1.27279,-4.8698 5.42318,-4.20573 1.77083,-0.55339 5.03581,-0.83008 3.26497,-0.27669 8.02408,-0.27669 10.12696,0 18.98113,6.91731 9.73958,7.63672 9.73958,18.3724 0,13.72396 -10.40365,21.85872 -9.29687,7.30469 -22.35677,7.30469 z m 2.76693,-43.9388 q -2.4349,0 -4.37175,0.11068 -1.88151,0.11067 -3.20963,0.33203 l -0.11068,10.18229 -1.16211,22.02474 6.08724,0.7194 q 9.29688,0 15.66081,-4.70378 6.97266,-5.14648 6.97266,-13.88997 0,-6.19792 -6.64063,-10.68034 -6.14258,-4.09505 -13.22591,-4.09505 z"
           style="font-style:normal;font-variant:normal;font-weight:normal;font-stretch:normal;font-size:113.33333588px;font-family:'Comic Sans MS';-inkscape-font-specification:'Comic Sans MS';fill:#664b3d;fill-opacity:1"
           id="path886"
           inkscape:connector-curvature="0" />
        <path
           d="m 246.58919,377.06431 -5.0358,5.86589 q -7.19401,8.41145 -13.22592,20.36458 l -10.07161,22.08008 q -1.05143,2.43489 -4.64844,12.7832 -2.8776,8.19011 -5.36784,12.22982 -1.54948,2.60091 -4.42708,2.60091 -2.21354,0 -3.92904,-1.54948 -1.66015,-1.54948 -1.66015,-3.70768 0,-2.10287 3.54166,-10.79102 l 12.45118,-30.49153 q 8.24544,-18.09571 16.93359,-27.89063 l 1.05143,-1.16211 -27.77995,-0.55338 -12.45117,-0.33204 q -5.36784,-0.49804 -5.36784,-5.3125 0,-2.32421 1.54948,-3.81836 1.54948,-1.49414 3.8737,-1.49414 6.97266,0 20.91797,0.44271 14.00065,0.44271 20.97331,0.44271 h 10.12695 q 5.86589,0 5.86589,3.48633 0,2.60091 -3.32032,6.80664 z"
           style="font-style:normal;font-variant:normal;font-weight:normal;font-stretch:normal;font-size:113.33333588px;font-family:'Comic Sans MS';-inkscape-font-specification:'Comic Sans MS';fill:#664b3d;fill-opacity:1"
           id="path888"
           inkscape:connector-curvature="0" />
        <path
           d="m 259.42774,435.55715 q -0.0553,-2.32422 1.54948,-3.76302 1.66016,-1.49414 4.03971,-1.49414 2.71159,0 4.75912,3.09896 2.82226,4.20573 5.0358,5.69987 4.70378,3.09895 13.66862,3.09895 8.57748,0 15.93751,-3.70768 9.40755,-4.75911 9.40755,-13.22591 0,-6.97266 -7.91341,-11.01237 -6.69597,-3.48633 -16.54623,-3.76302 -8.74349,-0.33203 -14.88607,-3.81836 -7.85807,-4.48242 -7.85807,-12.83854 0,-9.85026 11.17839,-17.98503 10.68033,-7.69206 22.08007,-7.69206 5.36784,0 12.11915,1.82618 8.96484,2.37955 8.96484,6.08724 0,4.86979 -4.98047,4.86979 -2.21354,0 -7.7474,-1.16211 -5.53385,-1.21745 -8.57747,-1.16211 -8.63281,0.11068 -14.66471,4.26107 -6.19792,4.26106 -6.19792,10.3483 0,4.5931 8.1901,6.47461 3.04362,0.7194 11.78711,1.32813 12.67253,0.94075 19.8112,7.96875 6.52995,6.41927 6.52995,15.66081 0,13.17057 -12.17448,21.02864 -10.56966,6.80664 -24.51497,6.80664 -10.12696,0 -18.53842,-3.87369 -10.29296,-4.75912 -10.45898,-13.0599 z"
           style="font-style:normal;font-variant:normal;font-weight:normal;font-stretch:normal;font-size:113.33333588px;font-family:'Comic Sans MS';-inkscape-font-specification:'Comic Sans MS';fill:#664b3d;fill-opacity:1"
           id="path890"
           inkscape:connector-curvature="0" />
      </g>
      <g
         id="flowRoot871"
         style="font-style:normal;font-weight:normal;font-size:40px;line-height:1.25;font-family:sans-serif;letter-spacing:0px;word-spacing:0px;fill:#000000;fill-opacity:1;stroke:none"
         transform="translate(28.83919,534.37339)"
         aria-label="P7S">
        <path
           inkscape:connector-curvature="0"
           id="path879"
           style="font-style:normal;font-variant:normal;font-weight:normal;font-stretch:normal;font-size:113.33333588px;font-family:'Comic Sans MS';-inkscape-font-specification:'Comic Sans MS';fill:#ffffff"
           d="m 146.48177,416.85272 q -1.54948,0 -6.7513,-0.7194 -0.44271,8.35612 -0.44271,29.27409 0,2.21354 -1.4388,3.76302 -1.4388,1.49414 -3.59701,1.49414 -2.21354,0 -3.65234,-1.49414 -1.4388,-1.54948 -1.4388,-3.76302 v -16.26953 q 0,-8.13477 0.99609,-22.91016 1.10677,-15.99284 1.21745,-22.91016 v -7.63671 q 0,-5.47852 0.66406,-7.96875 1.27279,-4.8698 5.42318,-4.20573 1.77083,-0.55339 5.03581,-0.83008 3.26497,-0.27669 8.02408,-0.27669 10.12696,0 18.98113,6.91731 9.73958,7.63672 9.73958,18.3724 0,13.72396 -10.40365,21.85872 -9.29687,7.30469 -22.35677,7.30469 z m 2.76693,-43.9388 q -2.4349,0 -4.37175,0.11068 -1.88151,0.11067 -3.20963,0.33203 l -0.11068,10.18229 -1.16211,22.02474 6.08724,0.7194 q 9.29688,0 15.66081,-4.70378 6.97266,-5.14648 6.97266,-13.88997 0,-6.19792 -6.64063,-10.68034 -6.14258,-4.09505 -13.22591,-4.09505 z" />
        <path
           inkscape:connector-curvature="0"
           id="path881"
           style="font-style:normal;font-variant:normal;font-weight:normal;font-stretch:normal;font-size:113.33333588px;font-family:'Comic Sans MS';-inkscape-font-specification:'Comic Sans MS';fill:#ffffff"
           d="m 246.58919,377.06431 -5.0358,5.86589 q -7.19401,8.41145 -13.22592,20.36458 l -10.07161,22.08008 q -1.05143,2.43489 -4.64844,12.7832 -2.8776,8.19011 -5.36784,12.22982 -1.54948,2.60091 -4.42708,2.60091 -2.21354,0 -3.92904,-1.54948 -1.66015,-1.54948 -1.66015,-3.70768 0,-2.10287 3.54166,-10.79102 l 12.45118,-30.49153 q 8.24544,-18.09571 16.93359,-27.89063 l 1.05143,-1.16211 -27.77995,-0.55338 -12.45117,-0.33204 q -5.36784,-0.49804 -5.36784,-5.3125 0,-2.32421 1.54948,-3.81836 1.54948,-1.49414 3.8737,-1.49414 6.97266,0 20.91797,0.44271 14.00065,0.44271 20.97331,0.44271 h 10.12695 q 5.86589,0 5.86589,3.48633 0,2.60091 -3.32032,6.80664 z" />
        <path
           inkscape:connector-curvature="0"
           id="path883"
           style="font-style:normal;font-variant:normal;font-weight:normal;font-stretch:normal;font-size:113.33333588px;font-family:'Comic Sans MS';-inkscape-font-specification:'Comic Sans MS';fill:#ffffff"
           d="m 259.42774,435.55715 q -0.0553,-2.32422 1.54948,-3.76302 1.66016,-1.49414 4.03971,-1.49414 2.71159,0 4.75912,3.09896 2.82226,4.20573 5.0358,5.69987 4.70378,3.09895 13.66862,3.09895 8.57748,0 15.93751,-3.70768 9.40755,-4.75911 9.40755,-13.22591 0,-6.97266 -7.91341,-11.01237 -6.69597,-3.48633 -16.54623,-3.76302 -8.74349,-0.33203 -14.88607,-3.81836 -7.85807,-4.48242 -7.85807,-12.83854 0,-9.85026 11.17839,-17.98503 10.68033,-7.69206 22.08007,-7.69206 5.36784,0 12.11915,1.82618 8.96484,2.37955 8.96484,6.08724 0,4.86979 -4.98047,4.86979 -2.21354,0 -7.7474,-1.16211 -5.53385,-1.21745 -8.57747,-1.16211 -8.63281,0.11068 -14.66471,4.26107 -6.19792,4.26106 -6.19792,10.3483 0,4.5931 8.1901,6.47461 3.04362,0.7194 11.78711,1.32813 12.67253,0.94075 19.8112,7.96875 6.52995,6.41927 6.52995,15.66081 0,13.17057 -12.17448,21.02864 -10.56966,6.80664 -24.51497,6.80664 -10.12696,0 -18.53842,-3.87369 -10.29296,-4.75912 -10.45898,-13.0599 z" />
      </g>
    </g>
  </g>
</svg>
