<?xml version="1.0" encoding="UTF-8" standalone="no"?>
<!-- Created with Inkscape (http://www.inkscape.org/) -->

<svg
   xmlns:dc="http://purl.org/dc/elements/1.1/"
   xmlns:cc="http://creativecommons.org/ns#"
   xmlns:rdf="http://www.w3.org/1999/02/22-rdf-syntax-ns#"
   xmlns:svg="http://www.w3.org/2000/svg"
   xmlns="http://www.w3.org/2000/svg"
   xmlns:sodipodi="http://sodipodi.sourceforge.net/DTD/sodipodi-0.dtd"
   xmlns:inkscape="http://www.inkscape.org/namespaces/inkscape"
   width="512"
   height="512"
   id="svg2"
   version="1.1"
   inkscape:version="0.92.2 5c3e80d, 2017-08-06"
   sodipodi:docname="application-x-7zip.svg">
  <defs
     id="defs4" />
  <sodipodi:namedview
     id="base"
     pagecolor="#ffffff"
     bordercolor="#666666"
     borderopacity="1.0"
     inkscape:pageopacity="0.0"
     inkscape:pageshadow="2"
     inkscape:zoom="0.60666665"
     inkscape:cx="-13.907695"
     inkscape:cy="217.68186"
     inkscape:document-units="px"
     inkscape:current-layer="layer1"
     showgrid="false"
     inkscape:window-width="1366"
     inkscape:window-height="717"
     inkscape:window-x="0"
     inkscape:window-y="24"
     inkscape:window-maximized="1"
     showguides="false" />
  <metadata
     id="metadata7">
    <rdf:RDF>
      <cc:Work
         rdf:about="">
        <dc:format>image/svg+xml</dc:format>
        <dc:type
           rdf:resource="http://purl.org/dc/dcmitype/StillImage" />
        <dc:title />
      </cc:Work>
    </rdf:RDF>
  </metadata>
  <g
     inkscape:label="Layer 1"
     inkscape:groupmode="layer"
     id="layer1"
     transform="translate(0,-540.36218)">
    <g
       id="g861">
      <path
         style="fill:#333333;fill-opacity:1;stroke-width:11.10955811"
         inkscape:connector-curvature="0"
         d="m 432.91326,596.83619 c 102.19291,88.57459 105.82678,249.69971 8.1168,359.89879 C 343.32009,1066.934 181.27965,1084.4628 79.086737,995.8882 -23.106204,907.31365 -26.740031,746.18853 70.969937,635.98945 168.67991,525.79037 330.72036,508.2616 432.91326,596.83619 Z"
         id="path961" />
      <path
         style="fill:#1a1a1a;fill-opacity:1;stroke:none;stroke-width:0.99999994px;stroke-linecap:butt;stroke-linejoin:miter;stroke-opacity:1"
         d="M 8.3652424,882.36223 C 19.949343,925.51396 43.551547,965.0886 79.085947,995.8876 c 102.192913,88.5746 264.233393,71.0467 361.943363,-39.15232 20.35102,-22.95224 36.28955,-48.11807 47.87304,-74.37305 z"
         id="path963"
         inkscape:connector-curvature="0"
         sodipodi:nodetypes="csscc" />
      <path
         style="opacity:1;stroke-width:11.10955811;fill:#000000;fill-opacity:0.49019608"
         inkscape:connector-curvature="0"
         d="m 511.6355,765.26574 c -1.55139,61.31164 -25.16123,124.1546 -70.96638,175.81447 C 342.95915,1051.2793 180.9187,1068.808 78.725757,980.2335 30.827127,938.71786 4.4968204,881.28506 0.19382836,820.59103 0.79908136,886.9477 27.117407,950.8444 79.078687,995.8813 181.2716,1084.4558 343.31975,1066.9184 441.02201,956.72799 490.72696,900.66988 514.02703,831.43702 511.6355,765.26574 Z"
         id="path965" />
      <path
         style="fill:#000000;fill-opacity:0.48235294;stroke-width:1.44776499"
         d="m 259.15546,890.27951 c -7.93094,-3.44714 -8.46873,-6.59703 -5.47531,-32.06994 2.30142,-19.58427 3.10794,-23.07173 6.17996,-26.72262 3.40702,-4.04901 3.98889,-4.19885 16.30559,-4.19885 12.3167,0 12.89858,0.14984 16.3056,4.19885 3.07202,3.65089 3.87853,7.13835 6.17996,26.72262 3.01578,25.66328 2.47224,28.67809 -5.79301,32.13153 -6.51909,2.72386 -27.38194,2.68573 -33.70279,-0.0615 z m 24.45062,-31.01267 c 2.71022,-2.19461 3.41786,-4.16943 3.41786,-9.53839 0,-7.79707 -3.97847,-12.306 -10.85824,-12.306 -6.87976,0 -10.85824,4.50893 -10.85824,12.306 0,7.79707 3.97848,12.30601 10.85824,12.30601 2.21239,0 5.56055,-1.24542 7.44038,-2.76762 z m -23.86529,-43.31292 c -3.2217,-3.55995 -3.02117,-8.30939 0.4995,-11.83006 2.46655,-2.46656 4.82588,-2.89553 15.92541,-2.89553 11.09955,0 13.45886,0.42897 15.92542,2.89553 3.61335,3.61334 3.7226,8.9371 0.24794,12.08161 -4.04188,3.65784 -29.23627,3.46342 -32.59827,-0.25155 z m 13.52938,-23.41218 v -5.79106 h -7.96271 -7.9627 v -5.06718 -5.06717 h 7.9627 7.96271 v -5.06718 -5.06718 h -7.96271 -7.9627 v -5.06718 -5.06718 h 7.9627 7.96271 v -5.79106 -5.79106 h -7.96271 -7.9627 v -5.06717 -5.06717 h 7.9627 7.96271 v -5.06719 -5.06717 h -7.96271 -7.9627 v -5.79107 -5.79105 h 7.9627 7.96271 v -5.06718 -5.06718 h -7.96271 -7.9627 v -5.79106 -5.79106 h 7.9627 7.96271 v -5.06717 -5.06719 h -7.96271 -7.9627 v -5.06718 -5.06716 h 7.9627 7.96271 v -5.79107 -5.79106 h -7.96271 -7.9627 v -5.06718 -5.06717 h 7.9627 7.96271 v -5.06718 -5.06718 h -7.96271 -7.9627 v -10.85823 -10.85824 h 18.82094 18.82095 v 5.06717 5.06718 h -7.96271 -7.9627 v 5.79106 5.79106 h 7.9627 7.96271 v 5.06718 5.06718 h -7.96271 -7.9627 v 5.06717 5.06718 h 7.9627 7.96271 v 5.79106 5.79107 h -7.96271 -7.9627 v 5.06716 5.06718 h 7.9627 7.96271 v 5.79107 5.79106 h -7.96271 -7.9627 v 5.06717 5.06718 h 7.9627 7.96271 v 5.06718 5.06718 h -7.96271 -7.9627 v 5.79105 5.79107 h 7.9627 7.96271 v 5.06717 5.06719 h -7.96271 -7.9627 v 5.06717 5.06717 h 7.9627 7.96271 v 5.06719 5.06717 h -7.96271 -7.9627 v 5.79106 5.79106 h 7.9627 7.96271 v 5.06718 5.06718 h -7.96271 -7.9627 v 5.06717 5.06718 h 7.9627 7.96271 v 5.79106 5.79105 h -10.85824 -10.85824 z"
         id="path933"
         inkscape:connector-curvature="0" />
      <path
         inkscape:connector-curvature="0"
         id="path924"
         d="m 239.15546,870.27951 c -7.93094,-3.44714 -8.46873,-6.59703 -5.47531,-32.06994 2.30142,-19.58427 3.10794,-23.07173 6.17996,-26.72262 3.40702,-4.04901 3.98889,-4.19885 16.30559,-4.19885 12.3167,0 12.89858,0.14984 16.3056,4.19885 3.07202,3.65089 3.87853,7.13835 6.17996,26.72262 3.01578,25.66328 2.47224,28.67809 -5.79301,32.13153 -6.51909,2.72386 -27.38194,2.68573 -33.70279,-0.0615 z m 24.45062,-31.01267 c 2.71022,-2.19461 3.41786,-4.16943 3.41786,-9.53839 0,-7.79707 -3.97847,-12.306 -10.85824,-12.306 -6.87976,0 -10.85824,4.50893 -10.85824,12.306 0,7.79707 3.97848,12.30601 10.85824,12.30601 2.21239,0 5.56055,-1.24542 7.44038,-2.76762 z m -23.86529,-43.31292 c -3.2217,-3.55995 -3.02117,-8.30939 0.4995,-11.83006 2.46655,-2.46656 4.82588,-2.89553 15.92541,-2.89553 11.09955,0 13.45886,0.42897 15.92542,2.89553 3.61335,3.61334 3.7226,8.9371 0.24794,12.08161 -4.04188,3.65784 -29.23627,3.46342 -32.59827,-0.25155 z m 13.52938,-23.41218 v -5.79106 h -7.96271 -7.9627 v -5.06718 -5.06717 h 7.9627 7.96271 v -5.06718 -5.06718 h -7.96271 -7.9627 v -5.06718 -5.06718 h 7.9627 7.96271 v -5.79106 -5.79106 h -7.96271 -7.9627 v -5.06717 -5.06717 h 7.9627 7.96271 v -5.06719 -5.06717 h -7.96271 -7.9627 v -5.79107 -5.79105 h 7.9627 7.96271 v -5.06718 -5.06718 h -7.96271 -7.9627 v -5.79106 -5.79106 h 7.9627 7.96271 v -5.06717 -5.06719 h -7.96271 -7.9627 v -5.06718 -5.06716 h 7.9627 7.96271 v -5.79107 -5.79106 h -7.96271 -7.9627 v -5.06718 -5.06717 h 7.9627 7.96271 v -5.06718 -5.06718 h -7.96271 -7.9627 v -10.85823 -10.85824 h 18.82094 18.82095 v 5.06717 5.06718 h -7.96271 -7.9627 v 5.79106 5.79106 h 7.9627 7.96271 v 5.06718 5.06718 h -7.96271 -7.9627 v 5.06717 5.06718 h 7.9627 7.96271 v 5.79106 5.79107 h -7.96271 -7.9627 v 5.06716 5.06718 h 7.9627 7.96271 v 5.79107 5.79106 h -7.96271 -7.9627 v 5.06717 5.06718 h 7.9627 7.96271 v 5.06718 5.06718 h -7.96271 -7.9627 v 5.79105 5.79107 h 7.9627 7.96271 v 5.06717 5.06719 h -7.96271 -7.9627 v 5.06717 5.06717 h 7.9627 7.96271 v 5.06719 5.06717 h -7.96271 -7.9627 v 5.79106 5.79106 h 7.9627 7.96271 v 5.06718 5.06718 h -7.96271 -7.9627 v 5.06717 5.06718 h 7.9627 7.96271 v 5.79106 5.79105 h -10.85824 -10.85824 z"
         style="fill:#ffffff;stroke-width:1.44776499" />
      <g
         aria-label="7ZIP"
         transform="translate(36.13216,542.01011)"
         style="font-style:normal;font-weight:normal;font-size:40px;line-height:1.25;font-family:sans-serif;letter-spacing:0px;word-spacing:0px;fill:#000000;fill-opacity:0.49019608;stroke:none"
         id="g891">
        <path
           d="m 169.35482,389.42759 -5.03581,5.86589 q -7.19401,8.41145 -13.22591,20.36458 l -10.07161,22.08008 q -1.05144,2.43489 -4.64844,12.7832 -2.87761,8.19011 -5.36784,12.22982 -1.54948,2.60091 -4.42708,2.60091 -2.21355,0 -3.92904,-1.54948 -1.66016,-1.54948 -1.66016,-3.70768 0,-2.10286 3.54167,-10.79102 l 12.45117,-30.49153 q 8.24544,-18.09571 16.9336,-27.89063 l 1.05143,-1.16211 -27.77995,-0.55338 -12.45117,-0.33203 q -5.36784,-0.49805 -5.36784,-5.3125 0,-2.32422 1.54948,-3.81836 1.54948,-1.49414 3.8737,-1.49414 6.97265,0 20.91797,0.4427 14.00065,0.44271 20.9733,0.44271 h 10.12696 q 5.86588,0 5.86588,3.48633 0,2.60091 -3.32031,6.80664 z"
           style="font-style:normal;font-variant:normal;font-weight:normal;font-stretch:normal;font-size:113.33333588px;font-family:'Comic Sans MS';-inkscape-font-specification:'Comic Sans MS';fill:#000000;fill-opacity:0.49019608"
           id="path883"
           inkscape:connector-curvature="0" />
        <path
           d="m 244.8366,392.47121 -7.47071,5.09115 q -10.07161,7.80273 -22.79948,24.95768 l -19.42383,28.27799 q -1.38346,2.10287 -2.71158,3.8737 l 21.52669,-0.83008 q 14.11133,-0.66406 21.58203,-0.66406 7.30469,0 10.79102,0.66406 4.48242,0.88542 4.64843,4.53777 0.11068,2.71158 -1.77083,4.3164 -1.66016,1.38347 -4.15039,1.38347 -1.60482,0 -4.81445,-0.22136 -3.20964,-0.16601 -4.81446,-0.16601 -8.41146,0 -25.28971,0.38737 -16.82292,0.4427 -25.23438,0.4427 -6.36393,0 -6.36393,-5.58919 0,-3.65234 3.43099,-9.1862 l 5.92122,-8.24544 19.97722,-27.77995 q 12.34049,-16.32487 22.96549,-25.34505 l -19.36849,1.10677 h -22.35677 q -0.60872,0 -1.82617,0.11068 -1.16211,0.0553 -1.71549,0.0553 -5.86589,0 -5.86589,-5.69987 0,-3.76302 2.98828,-4.98046 1.82617,-0.77474 6.0319,-0.77474 3.81836,0 11.3444,0.83007 7.58138,0.77474 11.39974,0.77474 4.26107,0 12.72787,-0.55338 8.52213,-0.55339 12.83854,-0.55339 14.22201,0 14.22201,5.36784 0,3.65235 -6.41927,8.41146 z"
           style="font-style:normal;font-variant:normal;font-weight:normal;font-stretch:normal;font-size:113.33333588px;font-family:'Comic Sans MS';-inkscape-font-specification:'Comic Sans MS';fill:#000000;fill-opacity:0.49019608"
           id="path885"
           inkscape:connector-curvature="0" />
        <path
           d="m 306.31772,392.7479 q -3.54167,0 -8.90951,-0.7194 l -8.9095,-1.16211 q -1.27279,16.10352 -1.27279,30.76823 0,3.8737 0.22136,9.57357 0.22135,5.69987 0.22135,9.57357 0,5.20182 -0.38737,9.46289 l 17.43164,-0.22135 q 2.32422,0 3.8737,1.66015 1.60482,1.60482 1.60482,3.98438 0,2.43489 -1.60482,4.09505 -1.54948,1.60482 -3.8737,1.60482 -3.09896,0 -9.29687,0.16601 -6.19792,0.11068 -9.29688,0.11068 -3.65234,0 -10.95703,0.99609 -7.24935,1.05144 -10.95703,1.05144 -2.32422,0 -3.92904,-1.66016 -1.54948,-1.60482 -1.54948,-3.98438 0,-2.37955 1.54948,-4.03971 1.60482,-1.66016 3.92904,-1.66016 3.597,0 11.89779,-1.16211 0.55338,-4.48242 0.55338,-10.23763 0,-3.81836 -0.38737,-9.29687 -0.33203,-5.53386 -0.33203,-9.29688 0,-12.7832 1.54948,-31.93034 l -7.19401,0.22136 -7.19401,0.16601 q -2.37956,0 -3.98438,-1.60481 -1.60482,-1.60482 -1.60482,-4.09506 0,-5.14648 5.20183,-5.64453 4.48242,-0.44271 16.76758,-0.44271 11.01237,0 27.61393,2.37956 4.92513,0.7194 4.92513,5.92123 0,2.60091 -1.88151,4.15039 -1.66016,1.27278 -3.81836,1.27278 z"
           style="font-style:normal;font-variant:normal;font-weight:normal;font-stretch:normal;font-size:113.33333588px;font-family:'Comic Sans MS';-inkscape-font-specification:'Comic Sans MS';fill:#000000;fill-opacity:0.49019608"
           id="path887"
           inkscape:connector-curvature="0" />
        <path
           d="m 338.19272,429.216 q -1.54948,0 -6.7513,-0.7194 -0.44271,8.35612 -0.44271,29.27409 0,2.21354 -1.4388,3.76302 -1.4388,1.49414 -3.597,1.49414 -2.21355,0 -3.65235,-1.49414 -1.4388,-1.54948 -1.4388,-3.76302 v -16.26953 q 0,-8.13477 0.99609,-22.91016 1.10677,-15.99284 1.21745,-22.91015 v -7.63672 q 0,-5.47852 0.66406,-7.96875 1.27279,-4.86979 5.42318,-4.20573 1.77083,-0.55339 5.03581,-0.83008 3.26497,-0.27669 8.02409,-0.27669 10.12695,0 18.98112,6.91731 9.73958,7.63672 9.73958,18.3724 0,13.72396 -10.40364,21.85873 -9.29688,7.30468 -22.35678,7.30468 z m 2.76693,-43.9388 q -2.43489,0 -4.37174,0.11068 -1.88151,0.11067 -3.20964,0.33203 l -0.11068,10.18229 -1.16211,22.02474 6.08724,0.7194 q 9.29688,0 15.66081,-4.70377 6.97266,-5.14649 6.97266,-13.88998 0,-6.19792 -6.64063,-10.68034 -6.14258,-4.09505 -13.22591,-4.09505 z"
           style="font-style:normal;font-variant:normal;font-weight:normal;font-stretch:normal;font-size:113.33333588px;font-family:'Comic Sans MS';-inkscape-font-specification:'Comic Sans MS';fill:#000000;fill-opacity:0.49019608"
           id="path889"
           inkscape:connector-curvature="0" />
      </g>
      <g
         id="flowRoot866"
         style="font-style:normal;font-weight:normal;font-size:40px;line-height:1.25;font-family:sans-serif;letter-spacing:0px;word-spacing:0px;fill:#ffffff;fill-opacity:1;stroke:none"
         transform="translate(16.13216,522.01011)"
         aria-label="7ZIP">
        <path
           inkscape:connector-curvature="0"
           id="path874"
           style="font-style:normal;font-variant:normal;font-weight:normal;font-stretch:normal;font-size:113.33333588px;font-family:'Comic Sans MS';-inkscape-font-specification:'Comic Sans MS';fill:#ffffff"
           d="m 169.35482,389.42759 -5.03581,5.86589 q -7.19401,8.41145 -13.22591,20.36458 l -10.07161,22.08008 q -1.05144,2.43489 -4.64844,12.7832 -2.87761,8.19011 -5.36784,12.22982 -1.54948,2.60091 -4.42708,2.60091 -2.21355,0 -3.92904,-1.54948 -1.66016,-1.54948 -1.66016,-3.70768 0,-2.10286 3.54167,-10.79102 l 12.45117,-30.49153 q 8.24544,-18.09571 16.9336,-27.89063 l 1.05143,-1.16211 -27.77995,-0.55338 -12.45117,-0.33203 q -5.36784,-0.49805 -5.36784,-5.3125 0,-2.32422 1.54948,-3.81836 1.54948,-1.49414 3.8737,-1.49414 6.97265,0 20.91797,0.4427 14.00065,0.44271 20.9733,0.44271 h 10.12696 q 5.86588,0 5.86588,3.48633 0,2.60091 -3.32031,6.80664 z" />
        <path
           inkscape:connector-curvature="0"
           id="path876"
           style="font-style:normal;font-variant:normal;font-weight:normal;font-stretch:normal;font-size:113.33333588px;font-family:'Comic Sans MS';-inkscape-font-specification:'Comic Sans MS';fill:#ffffff"
           d="m 244.8366,392.47121 -7.47071,5.09115 q -10.07161,7.80273 -22.79948,24.95768 l -19.42383,28.27799 q -1.38346,2.10287 -2.71158,3.8737 l 21.52669,-0.83008 q 14.11133,-0.66406 21.58203,-0.66406 7.30469,0 10.79102,0.66406 4.48242,0.88542 4.64843,4.53777 0.11068,2.71158 -1.77083,4.3164 -1.66016,1.38347 -4.15039,1.38347 -1.60482,0 -4.81445,-0.22136 -3.20964,-0.16601 -4.81446,-0.16601 -8.41146,0 -25.28971,0.38737 -16.82292,0.4427 -25.23438,0.4427 -6.36393,0 -6.36393,-5.58919 0,-3.65234 3.43099,-9.1862 l 5.92122,-8.24544 19.97722,-27.77995 q 12.34049,-16.32487 22.96549,-25.34505 l -19.36849,1.10677 h -22.35677 q -0.60872,0 -1.82617,0.11068 -1.16211,0.0553 -1.71549,0.0553 -5.86589,0 -5.86589,-5.69987 0,-3.76302 2.98828,-4.98046 1.82617,-0.77474 6.0319,-0.77474 3.81836,0 11.3444,0.83007 7.58138,0.77474 11.39974,0.77474 4.26107,0 12.72787,-0.55338 8.52213,-0.55339 12.83854,-0.55339 14.22201,0 14.22201,5.36784 0,3.65235 -6.41927,8.41146 z" />
        <path
           inkscape:connector-curvature="0"
           id="path878"
           style="font-style:normal;font-variant:normal;font-weight:normal;font-stretch:normal;font-size:113.33333588px;font-family:'Comic Sans MS';-inkscape-font-specification:'Comic Sans MS';fill:#ffffff"
           d="m 306.31772,392.7479 q -3.54167,0 -8.90951,-0.7194 l -8.9095,-1.16211 q -1.27279,16.10352 -1.27279,30.76823 0,3.8737 0.22136,9.57357 0.22135,5.69987 0.22135,9.57357 0,5.20182 -0.38737,9.46289 l 17.43164,-0.22135 q 2.32422,0 3.8737,1.66015 1.60482,1.60482 1.60482,3.98438 0,2.43489 -1.60482,4.09505 -1.54948,1.60482 -3.8737,1.60482 -3.09896,0 -9.29687,0.16601 -6.19792,0.11068 -9.29688,0.11068 -3.65234,0 -10.95703,0.99609 -7.24935,1.05144 -10.95703,1.05144 -2.32422,0 -3.92904,-1.66016 -1.54948,-1.60482 -1.54948,-3.98438 0,-2.37955 1.54948,-4.03971 1.60482,-1.66016 3.92904,-1.66016 3.597,0 11.89779,-1.16211 0.55338,-4.48242 0.55338,-10.23763 0,-3.81836 -0.38737,-9.29687 -0.33203,-5.53386 -0.33203,-9.29688 0,-12.7832 1.54948,-31.93034 l -7.19401,0.22136 -7.19401,0.16601 q -2.37956,0 -3.98438,-1.60481 -1.60482,-1.60482 -1.60482,-4.09506 0,-5.14648 5.20183,-5.64453 4.48242,-0.44271 16.76758,-0.44271 11.01237,0 27.61393,2.37956 4.92513,0.7194 4.92513,5.92123 0,2.60091 -1.88151,4.15039 -1.66016,1.27278 -3.81836,1.27278 z" />
        <path
           inkscape:connector-curvature="0"
           id="path880"
           style="font-style:normal;font-variant:normal;font-weight:normal;font-stretch:normal;font-size:113.33333588px;font-family:'Comic Sans MS';-inkscape-font-specification:'Comic Sans MS';fill:#ffffff"
           d="m 338.19272,429.216 q -1.54948,0 -6.7513,-0.7194 -0.44271,8.35612 -0.44271,29.27409 0,2.21354 -1.4388,3.76302 -1.4388,1.49414 -3.597,1.49414 -2.21355,0 -3.65235,-1.49414 -1.4388,-1.54948 -1.4388,-3.76302 v -16.26953 q 0,-8.13477 0.99609,-22.91016 1.10677,-15.99284 1.21745,-22.91015 v -7.63672 q 0,-5.47852 0.66406,-7.96875 1.27279,-4.86979 5.42318,-4.20573 1.77083,-0.55339 5.03581,-0.83008 3.26497,-0.27669 8.02409,-0.27669 10.12695,0 18.98112,6.91731 9.73958,7.63672 9.73958,18.3724 0,13.72396 -10.40364,21.85873 -9.29688,7.30468 -22.35678,7.30468 z m 2.76693,-43.9388 q -2.43489,0 -4.37174,0.11068 -1.88151,0.11067 -3.20964,0.33203 l -0.11068,10.18229 -1.16211,22.02474 6.08724,0.7194 q 9.29688,0 15.66081,-4.70377 6.97266,-5.14649 6.97266,-13.88998 0,-6.19792 -6.64063,-10.68034 -6.14258,-4.09505 -13.22591,-4.09505 z" />
      </g>
    </g>
  </g>
</svg>
