<?xml version="1.0" encoding="UTF-8" standalone="no"?>
<!-- Created with Inkscape (http://www.inkscape.org/) -->

<svg
   xmlns:dc="http://purl.org/dc/elements/1.1/"
   xmlns:cc="http://creativecommons.org/ns#"
   xmlns:rdf="http://www.w3.org/1999/02/22-rdf-syntax-ns#"
   xmlns:svg="http://www.w3.org/2000/svg"
   xmlns="http://www.w3.org/2000/svg"
   xmlns:sodipodi="http://sodipodi.sourceforge.net/DTD/sodipodi-0.dtd"
   xmlns:inkscape="http://www.inkscape.org/namespaces/inkscape"
   width="512"
   height="512"
   id="svg2"
   version="1.1"
   inkscape:version="0.92.2 5c3e80d, 2017-08-06"
   sodipodi:docname="application-x-mswrite.svg">
  <defs
     id="defs4" />
  <sodipodi:namedview
     id="base"
     pagecolor="#ffffff"
     bordercolor="#666666"
     borderopacity="1.0"
     inkscape:pageopacity="0.0"
     inkscape:pageshadow="2"
     inkscape:zoom="0.60666665"
     inkscape:cx="602.04698"
     inkscape:cy="256.40354"
     inkscape:document-units="px"
     inkscape:current-layer="layer1"
     showgrid="false"
     inkscape:window-width="1366"
     inkscape:window-height="717"
     inkscape:window-x="0"
     inkscape:window-y="24"
     inkscape:window-maximized="1" />
  <metadata
     id="metadata7">
    <rdf:RDF>
      <cc:Work
         rdf:about="">
        <dc:format>image/svg+xml</dc:format>
        <dc:type
           rdf:resource="http://purl.org/dc/dcmitype/StillImage" />
        <dc:title></dc:title>
      </cc:Work>
    </rdf:RDF>
  </metadata>
  <g
     inkscape:label="Layer 1"
     inkscape:groupmode="layer"
     id="layer1"
     transform="translate(0,-540.36218)">
    <g
       id="g932">
      <path
         id="path943"
         d="m 432.91326,596.83618 c 102.19291,88.57459 105.82678,249.69971 8.1168,359.89879 C 343.32009,1066.934 181.27965,1084.4628 79.086741,995.88822 -23.106205,907.31364 -26.740032,746.18852 70.969941,635.98944 168.67991,525.79036 330.72036,508.26159 432.91326,596.83618 Z"
         inkscape:connector-curvature="0"
         style="fill:#3689e6;fill-opacity:1;stroke-width:11.10955811" />
      <path
         sodipodi:nodetypes="csscc"
         inkscape:connector-curvature="0"
         id="path945"
         d="m 8.3652404,882.36222 c 11.5841016,43.15173 35.1863066,82.72637 70.7207066,113.5254 102.192913,88.57458 264.233393,71.04668 361.943363,-39.15235 20.35102,-22.95224 36.28955,-48.11807 47.87304,-74.37305 z"
         style="fill:#0d52bf;fill-opacity:1;stroke:none;stroke-width:0.99999994px;stroke-linecap:butt;stroke-linejoin:miter;stroke-opacity:1" />
      <path
         id="path947"
         d="M 511.6355,765.26573 C 510.08411,826.57737 486.47427,889.42033 440.66912,941.0802 342.95915,1051.2793 180.9187,1068.808 78.725758,980.2335 30.827125,938.71785 4.4968186,881.28505 0.19382672,820.59102 0.79907972,886.94769 27.117405,950.84439 79.07869,995.88132 181.2716,1084.4558 343.31975,1066.9184 441.02201,956.72798 490.72696,900.66987 514.02703,831.43701 511.6355,765.26573 Z"
         inkscape:connector-curvature="0"
         style="opacity:0.1;stroke-width:11.10955811" />
      <g
         style="fill:#317ccf;fill-opacity:1"
         transform="translate(9.9999997,9.9999863)"
         id="g965">
        <path
           sodipodi:nodetypes="ccccsccscsscccccccccccccccccccccccc"
           inkscape:connector-curvature="0"
           id="path959"
           d="m 169.80093,871.82472 c -25.73207,-2.4948 -47.04867,-22.8181 -50.88028,-48.5094 -0.22452,-1.5055 -0.41111,-42.25665 -0.41465,-90.55818 l -0.006,-87.82095 1.30585,-4.74017 c 3.0651,-11.12616 7.82682,-19.4983 15.30101,-26.90251 6.43805,-6.37775 13.54885,-10.76843 22.23146,-13.72717 8.28134,-2.82201 5.44519,-2.74329 98.83482,-2.74329 h 87.82098 l 4.63741,1.29908 c 16.27752,4.55982 27.25721,12.90498 35.89622,27.28308 2.97475,4.95094 6.03871,13.82464 6.94391,20.11066 0.13774,0.95647 0.27188,26.0637 0.29809,55.79385 l -0.14418,129.1229 c -2.14093,6.9318 -3.84492,10.5616 -7.62455,16.2421 -9.63889,14.4863 -24.7657,23.4836 -42.35788,25.1941 -7.0432,0.6847 -164.7414,0.6443 -171.84178,-0.044 z m 159.3535,-25.4821 c 19.546,-3.1715 35.69326,-19.3187 38.86471,-38.86473 0.38156,-2.35157 0.60364,-21.43672 0.60642,-52.11476 l 0.005,-48.40443 -43.64035,-43.63748 -43.64034,-43.63748 -50.99183,0.16368 -50.99183,0.16368 -4.05773,1.37032 c -16.24568,5.48624 -27.24754,16.58964 -32.26247,32.56018 l -1.35876,4.32715 v 75.06806 75.0681 l 1.35876,4.32717 c 5.48127,17.45564 19.39241,30.20454 36.65363,33.59104 3.79454,0.7445 144.87386,0.7629 149.45541,0.02 z"
           style="fill:#317ccf;fill-opacity:1;stroke-width:0.57967639" />
        <g
           id="g963"
           style="font-style:normal;font-weight:normal;font-size:40px;line-height:1.25;font-family:sans-serif;letter-spacing:0px;word-spacing:0px;fill:#317ccf;fill-opacity:1;stroke:none"
           transform="translate(19.076924,535.4391)"
           aria-label="W">
          <path
             inkscape:connector-curvature="0"
             id="path961"
             style="font-style:normal;font-variant:normal;font-weight:normal;font-stretch:normal;font-size:173.33332825px;font-family:'Comic Sans MS';-inkscape-font-specification:'Comic Sans MS';fill:#317ccf;fill-opacity:1"
             d="m 262.12369,274.73147 q -3.89322,0 -6.85546,-2.20052 -3.38542,-2.53906 -3.38542,-6.26302 -3.89323,-10.24089 -4.90885,-16.67318 -1.01563,-6.43229 -6.6862,-36.47786 -4.31641,-22.76693 -5.75521,-36.5625 -7.53255,27.92969 -16.16536,47.3112 -9.98698,22.42838 -12.94922,35.12369 1.01562,1.94662 1.01562,3.8086 0,3.80859 -3.38541,6.26302 -3.04688,2.28515 -6.94011,2.28515 -11.42578,0 -11.42578,-10.24088 l -2.6237,-10.7487 -9.22526,-41.47135 q -5.5013,-20.98959 -18.78906,-60.17578 -0.59245,-1.86198 -0.59245,-3.38542 0,-7.87109 8.88672,-7.87109 5.5013,0 8.46354,6.00911 1.52344,3.04688 6.17839,17.51953 4.99349,15.31901 9.98698,36.90104 l 8.20963,37.40886 q 9.05599,-20.98959 18.02734,-51.11979 5.50131,-18.36589 8.37891,-25.47526 7.61719,-18.70443 14.8112,-18.70443 5.92448,0 8.3789,6.00911 3.04688,7.27865 6.17839,34.70052 1.69271,13.88021 5.75521,33.34636 l 7.27864,33.26171 q 11.34115,-27.2526 28.35287,-73.71744 0.93099,-2.53906 4.23177,-15.99609 2.45442,-9.90235 6.00911,-15.40365 3.04688,-4.65495 7.95573,-4.65495 8.54818,0 8.54818,8.46354 0,1.43881 -2.70834,8.46355 l -3.38541,9.14062 -4.65495,15.0651 -25.13672,61.10677 q -3.47005,10.07162 -11.93359,29.28386 -3.04688,5.67057 -9.14063,5.67057 z" />
        </g>
      </g>
      <g
         transform="translate(-2.1989046e-7,-1.24662e-5)"
         id="g957">
        <path
           style="fill:#ffffff;stroke-width:0.57967639"
           d="m 169.80093,871.82472 c -25.73207,-2.4948 -47.04867,-22.8181 -50.88028,-48.5094 -0.22452,-1.5055 -0.41111,-42.25665 -0.41465,-90.55818 l -0.006,-87.82095 1.30585,-4.74017 c 3.0651,-11.12616 7.82682,-19.4983 15.30101,-26.90251 6.43805,-6.37775 13.54885,-10.76843 22.23146,-13.72717 8.28134,-2.82201 5.44519,-2.74329 98.83482,-2.74329 h 87.82098 l 4.63741,1.29908 c 16.27752,4.55982 27.25721,12.90498 35.89622,27.28308 2.97475,4.95094 6.03871,13.82464 6.94391,20.11066 0.13774,0.95647 0.27188,26.0637 0.29809,55.79385 l -0.14418,129.1229 c -2.14093,6.9318 -3.84492,10.5616 -7.62455,16.2421 -9.63889,14.4863 -24.7657,23.4836 -42.35788,25.1941 -7.0432,0.6847 -164.7414,0.6443 -171.84178,-0.044 z m 159.3535,-25.4821 c 19.546,-3.1715 35.69326,-19.3187 38.86471,-38.86473 0.38156,-2.35157 0.60364,-21.43672 0.60642,-52.11476 l 0.005,-48.40443 -43.64035,-43.63748 -43.64034,-43.63748 -50.99183,0.16368 -50.99183,0.16368 -4.05773,1.37032 c -16.24568,5.48624 -27.24754,16.58964 -32.26247,32.56018 l -1.35876,4.32715 v 75.06806 75.0681 l 1.35876,4.32717 c 5.48127,17.45564 19.39241,30.20454 36.65363,33.59104 3.79454,0.7445 144.87386,0.7629 149.45541,0.02 z"
           id="path910"
           inkscape:connector-curvature="0"
           sodipodi:nodetypes="ccccsccscsscccccccccccccccccccccccc" />
        <g
           aria-label="W"
           transform="translate(19.076924,535.4391)"
           style="font-style:normal;font-weight:normal;font-size:40px;line-height:1.25;font-family:sans-serif;letter-spacing:0px;word-spacing:0px;fill:#ffffff;fill-opacity:1;stroke:none"
           id="flowRoot912">
          <path
             inkscape:connector-curvature="0"
             d="m 262.12369,274.73147 q -3.89322,0 -6.85546,-2.20052 -3.38542,-2.53906 -3.38542,-6.26302 -3.89323,-10.24089 -4.90885,-16.67318 -1.01563,-6.43229 -6.6862,-36.47786 -4.31641,-22.76693 -5.75521,-36.5625 -7.53255,27.92969 -16.16536,47.3112 -9.98698,22.42838 -12.94922,35.12369 1.01562,1.94662 1.01562,3.8086 0,3.80859 -3.38541,6.26302 -3.04688,2.28515 -6.94011,2.28515 -11.42578,0 -11.42578,-10.24088 l -2.6237,-10.7487 -9.22526,-41.47135 q -5.5013,-20.98959 -18.78906,-60.17578 -0.59245,-1.86198 -0.59245,-3.38542 0,-7.87109 8.88672,-7.87109 5.5013,0 8.46354,6.00911 1.52344,3.04688 6.17839,17.51953 4.99349,15.31901 9.98698,36.90104 l 8.20963,37.40886 q 9.05599,-20.98959 18.02734,-51.11979 5.50131,-18.36589 8.37891,-25.47526 7.61719,-18.70443 14.8112,-18.70443 5.92448,0 8.3789,6.00911 3.04688,7.27865 6.17839,34.70052 1.69271,13.88021 5.75521,33.34636 l 7.27864,33.26171 q 11.34115,-27.2526 28.35287,-73.71744 0.93099,-2.53906 4.23177,-15.99609 2.45442,-9.90235 6.00911,-15.40365 3.04688,-4.65495 7.95573,-4.65495 8.54818,0 8.54818,8.46354 0,1.43881 -2.70834,8.46355 l -3.38541,9.14062 -4.65495,15.0651 -25.13672,61.10677 q -3.47005,10.07162 -11.93359,29.28386 -3.04688,5.67057 -9.14063,5.67057 z"
             style="font-style:normal;font-variant:normal;font-weight:normal;font-stretch:normal;font-size:173.33332825px;font-family:'Comic Sans MS';-inkscape-font-specification:'Comic Sans MS';fill:#ffffff"
             id="path920" />
        </g>
      </g>
      <g
         aria-label="WRI"
         transform="translate(8.08724,544.36167)"
         style="font-style:normal;font-weight:normal;font-size:40px;line-height:1.25;font-family:sans-serif;letter-spacing:0px;word-spacing:0px;fill:#0c4aac;fill-opacity:1;stroke:none"
         id="g911">
        <path
           d="m 208.96745,453.00051 q -2.54557,0 -4.48242,-1.4388 -2.21354,-1.66016 -2.21354,-4.09506 -2.54558,-6.69596 -3.20964,-10.90169 -0.66406,-4.20573 -4.37174,-23.85091 -2.82227,-14.88607 -3.76303,-23.90625 -4.92513,18.26172 -10.56966,30.93424 -6.52995,14.66472 -8.46679,22.9655 0.66406,1.27279 0.66406,2.49023 0,2.49024 -2.21354,4.09506 -1.99219,1.49414 -4.53776,1.49414 -7.47071,0 -7.47071,-6.69597 l -1.71549,-7.02799 -6.0319,-27.11589 q -3.59701,-13.72396 -12.28516,-39.3457 -0.38737,-1.21745 -0.38737,-2.21354 0,-5.14649 5.81055,-5.14649 3.597,0 5.53385,3.92904 0.9961,1.99219 4.03972,11.45508 3.26497,10.01627 6.52994,24.1276 l 5.36784,24.45964 q 5.92123,-13.72396 11.78711,-33.42448 3.59701,-12.00847 5.47852,-16.6569 4.98047,-12.22982 9.68424,-12.22982 3.8737,0 5.47852,3.92904 1.99219,4.75911 4.03971,22.6888 1.10677,9.07552 3.76302,21.80338 l 4.75912,21.74805 q 7.41536,-17.81901 18.53841,-48.19987 0.60872,-1.66016 2.76693,-10.45898 1.60481,-6.47461 3.92903,-10.07162 1.99219,-3.04362 5.20183,-3.04362 5.58919,0 5.58919,5.53386 0,0.94075 -1.77083,5.53385 l -2.21355,5.97656 -3.04362,9.85026 -16.43554,39.95443 q -2.26888,6.58529 -7.80274,19.14714 -1.99219,3.70768 -5.97656,3.70768 z"
           style="font-style:normal;font-variant:normal;font-weight:normal;font-stretch:normal;font-size:113.33333588px;font-family:'Comic Sans MS';-inkscape-font-specification:'Comic Sans MS';fill:#0c4aac;fill-opacity:1"
           id="path905"
           inkscape:connector-curvature="0" />
        <path
           d="m 310.29232,448.29673 q -2.10286,0 -3.92903,-1.77083 -18.31706,-18.0957 -40.72917,-24.34896 l 0.44271,10.84636 0.27669,10.90169 q 0,2.43489 -1.60482,4.03971 -1.54948,1.66016 -3.92903,1.66016 -2.37956,0 -3.98438,-1.66016 -1.54948,-1.60482 -1.54948,-4.03971 0,-4.37175 -0.44271,-13.00456 -0.38737,-8.68815 -0.38737,-13.0599 0,-5.09114 1.10678,-15.16276 1.10677,-10.07161 1.10677,-15.10742 0,-2.82226 -0.55339,-8.35612 -0.49805,-5.53385 -0.49805,-8.35612 0,-3.1543 1.77084,-5.53385 2.10286,-2.93295 5.81054,-2.65625 l 13.33659,1.05143 q 7.58138,0.94075 12.78321,3.70768 22.41211,11.89779 22.41211,29.05274 0,8.41146 -7.63672,14.88606 -6.14258,5.20183 -15.32878,7.91342 17.21029,9.24153 25.73242,19.47916 1.43881,1.77084 1.43881,3.76302 0,2.32422 -1.7155,4.03972 -1.66016,1.71549 -3.92904,1.71549 z m -35.25065,-73.15755 -8.1901,-0.66406 0.55338,6.69596 q 0.38737,4.09505 0.38737,6.69596 0,4.42709 -0.7194,11.01237 l -1.16211,11.01237 q 0.77474,0 2.37956,0.0553 1.66016,0.0553 2.49023,0.0553 14.11133,0 21.13933,-3.76302 3.09896,-1.71549 5.75521,-4.48242 2.93294,-3.09896 2.93294,-5.25716 0,-7.69206 -8.74349,-14.33269 -8.02409,-6.08724 -16.82292,-7.02799 z"
           style="font-style:normal;font-variant:normal;font-weight:normal;font-stretch:normal;font-size:113.33333588px;font-family:'Comic Sans MS';-inkscape-font-specification:'Comic Sans MS';fill:#0c4aac;fill-opacity:1"
           id="path907"
           inkscape:connector-curvature="0" />
        <path
           d="m 372.21616,378.73618 q -3.54167,0 -8.90951,-0.7194 l -8.9095,-1.16211 q -1.27279,16.10352 -1.27279,30.76823 0,3.8737 0.22135,9.57357 0.22136,5.69987 0.22136,9.57357 0,5.20182 -0.38737,9.46289 l 17.43164,-0.22135 q 2.32422,0 3.8737,1.66015 1.60482,1.60482 1.60482,3.98438 0,2.43489 -1.60482,4.09505 -1.54948,1.60482 -3.8737,1.60482 -3.09896,0 -9.29688,0.16601 -6.19791,0.11068 -9.29687,0.11068 -3.65234,0 -10.95703,0.99609 -7.24935,1.05144 -10.95703,1.05144 -2.32422,0 -3.92904,-1.66016 -1.54948,-1.60482 -1.54948,-3.98437 0,-2.37956 1.54948,-4.03972 1.60482,-1.66015 3.92904,-1.66015 3.597,0 11.89778,-1.16211 0.55339,-4.48243 0.55339,-10.23763 0,-3.81836 -0.38737,-9.29688 -0.33203,-5.53385 -0.33203,-9.29687 0,-12.78321 1.54948,-31.93034 l -7.19401,0.22135 -7.19401,0.16602 q -2.37956,0 -3.98438,-1.60482 -1.60482,-1.60482 -1.60482,-4.09505 0,-5.14649 5.20183,-5.64454 4.48242,-0.4427 16.76757,-0.4427 11.01237,0 27.61394,2.37955 4.92513,0.7194 4.92513,5.92123 0,2.60091 -1.88151,4.15039 -1.66016,1.27278 -3.81836,1.27278 z"
           style="font-style:normal;font-variant:normal;font-weight:normal;font-stretch:normal;font-size:113.33333588px;font-family:'Comic Sans MS';-inkscape-font-specification:'Comic Sans MS';fill:#0c4aac;fill-opacity:1"
           id="path909"
           inkscape:connector-curvature="0" />
      </g>
      <g
         id="flowRoot890"
         style="font-style:normal;font-weight:normal;font-size:40px;line-height:1.25;font-family:sans-serif;letter-spacing:0px;word-spacing:0px;fill:#ffffff;fill-opacity:1;stroke:none"
         transform="translate(-1.91276,534.36167)"
         aria-label="WRI">
        <path
           inkscape:connector-curvature="0"
           id="path898"
           style="font-style:normal;font-variant:normal;font-weight:normal;font-stretch:normal;font-size:113.33333588px;font-family:'Comic Sans MS';-inkscape-font-specification:'Comic Sans MS';fill:#ffffff"
           d="m 208.96745,453.00051 q -2.54557,0 -4.48242,-1.4388 -2.21354,-1.66016 -2.21354,-4.09506 -2.54558,-6.69596 -3.20964,-10.90169 -0.66406,-4.20573 -4.37174,-23.85091 -2.82227,-14.88607 -3.76303,-23.90625 -4.92513,18.26172 -10.56966,30.93424 -6.52995,14.66472 -8.46679,22.9655 0.66406,1.27279 0.66406,2.49023 0,2.49024 -2.21354,4.09506 -1.99219,1.49414 -4.53776,1.49414 -7.47071,0 -7.47071,-6.69597 l -1.71549,-7.02799 -6.0319,-27.11589 q -3.59701,-13.72396 -12.28516,-39.3457 -0.38737,-1.21745 -0.38737,-2.21354 0,-5.14649 5.81055,-5.14649 3.597,0 5.53385,3.92904 0.9961,1.99219 4.03972,11.45508 3.26497,10.01627 6.52994,24.1276 l 5.36784,24.45964 q 5.92123,-13.72396 11.78711,-33.42448 3.59701,-12.00847 5.47852,-16.6569 4.98047,-12.22982 9.68424,-12.22982 3.8737,0 5.47852,3.92904 1.99219,4.75911 4.03971,22.6888 1.10677,9.07552 3.76302,21.80338 l 4.75912,21.74805 q 7.41536,-17.81901 18.53841,-48.19987 0.60872,-1.66016 2.76693,-10.45898 1.60481,-6.47461 3.92903,-10.07162 1.99219,-3.04362 5.20183,-3.04362 5.58919,0 5.58919,5.53386 0,0.94075 -1.77083,5.53385 l -2.21355,5.97656 -3.04362,9.85026 -16.43554,39.95443 q -2.26888,6.58529 -7.80274,19.14714 -1.99219,3.70768 -5.97656,3.70768 z" />
        <path
           inkscape:connector-curvature="0"
           id="path900"
           style="font-style:normal;font-variant:normal;font-weight:normal;font-stretch:normal;font-size:113.33333588px;font-family:'Comic Sans MS';-inkscape-font-specification:'Comic Sans MS';fill:#ffffff"
           d="m 310.29232,448.29673 q -2.10286,0 -3.92903,-1.77083 -18.31706,-18.0957 -40.72917,-24.34896 l 0.44271,10.84636 0.27669,10.90169 q 0,2.43489 -1.60482,4.03971 -1.54948,1.66016 -3.92903,1.66016 -2.37956,0 -3.98438,-1.66016 -1.54948,-1.60482 -1.54948,-4.03971 0,-4.37175 -0.44271,-13.00456 -0.38737,-8.68815 -0.38737,-13.0599 0,-5.09114 1.10678,-15.16276 1.10677,-10.07161 1.10677,-15.10742 0,-2.82226 -0.55339,-8.35612 -0.49805,-5.53385 -0.49805,-8.35612 0,-3.1543 1.77084,-5.53385 2.10286,-2.93295 5.81054,-2.65625 l 13.33659,1.05143 q 7.58138,0.94075 12.78321,3.70768 22.41211,11.89779 22.41211,29.05274 0,8.41146 -7.63672,14.88606 -6.14258,5.20183 -15.32878,7.91342 17.21029,9.24153 25.73242,19.47916 1.43881,1.77084 1.43881,3.76302 0,2.32422 -1.7155,4.03972 -1.66016,1.71549 -3.92904,1.71549 z m -35.25065,-73.15755 -8.1901,-0.66406 0.55338,6.69596 q 0.38737,4.09505 0.38737,6.69596 0,4.42709 -0.7194,11.01237 l -1.16211,11.01237 q 0.77474,0 2.37956,0.0553 1.66016,0.0553 2.49023,0.0553 14.11133,0 21.13933,-3.76302 3.09896,-1.71549 5.75521,-4.48242 2.93294,-3.09896 2.93294,-5.25716 0,-7.69206 -8.74349,-14.33269 -8.02409,-6.08724 -16.82292,-7.02799 z" />
        <path
           inkscape:connector-curvature="0"
           id="path902"
           style="font-style:normal;font-variant:normal;font-weight:normal;font-stretch:normal;font-size:113.33333588px;font-family:'Comic Sans MS';-inkscape-font-specification:'Comic Sans MS';fill:#ffffff"
           d="m 372.21616,378.73618 q -3.54167,0 -8.90951,-0.7194 l -8.9095,-1.16211 q -1.27279,16.10352 -1.27279,30.76823 0,3.8737 0.22135,9.57357 0.22136,5.69987 0.22136,9.57357 0,5.20182 -0.38737,9.46289 l 17.43164,-0.22135 q 2.32422,0 3.8737,1.66015 1.60482,1.60482 1.60482,3.98438 0,2.43489 -1.60482,4.09505 -1.54948,1.60482 -3.8737,1.60482 -3.09896,0 -9.29688,0.16601 -6.19791,0.11068 -9.29687,0.11068 -3.65234,0 -10.95703,0.99609 -7.24935,1.05144 -10.95703,1.05144 -2.32422,0 -3.92904,-1.66016 -1.54948,-1.60482 -1.54948,-3.98437 0,-2.37956 1.54948,-4.03972 1.60482,-1.66015 3.92904,-1.66015 3.597,0 11.89778,-1.16211 0.55339,-4.48243 0.55339,-10.23763 0,-3.81836 -0.38737,-9.29688 -0.33203,-5.53385 -0.33203,-9.29687 0,-12.78321 1.54948,-31.93034 l -7.19401,0.22135 -7.19401,0.16602 q -2.37956,0 -3.98438,-1.60482 -1.60482,-1.60482 -1.60482,-4.09505 0,-5.14649 5.20183,-5.64454 4.48242,-0.4427 16.76757,-0.4427 11.01237,0 27.61394,2.37955 4.92513,0.7194 4.92513,5.92123 0,2.60091 -1.88151,4.15039 -1.66016,1.27278 -3.81836,1.27278 z" />
      </g>
    </g>
  </g>
</svg>
