<?xml version="1.0" encoding="UTF-8" standalone="no"?>
<!-- Created with Inkscape (http://www.inkscape.org/) -->

<svg
   xmlns:dc="http://purl.org/dc/elements/1.1/"
   xmlns:cc="http://creativecommons.org/ns#"
   xmlns:rdf="http://www.w3.org/1999/02/22-rdf-syntax-ns#"
   xmlns:svg="http://www.w3.org/2000/svg"
   xmlns="http://www.w3.org/2000/svg"
   xmlns:sodipodi="http://sodipodi.sourceforge.net/DTD/sodipodi-0.dtd"
   xmlns:inkscape="http://www.inkscape.org/namespaces/inkscape"
   width="512"
   height="512"
   id="svg2"
   version="1.1"
   inkscape:version="0.92.2 5c3e80d, 2017-08-06"
   sodipodi:docname="application-x-lha.svg">
  <defs
     id="defs4" />
  <sodipodi:namedview
     id="base"
     pagecolor="#ffffff"
     bordercolor="#666666"
     borderopacity="1.0"
     inkscape:pageopacity="0.0"
     inkscape:pageshadow="2"
     inkscape:zoom="0.42897809"
     inkscape:cx="1.8741045"
     inkscape:cy="249.95356"
     inkscape:document-units="px"
     inkscape:current-layer="layer1"
     showgrid="false"
     inkscape:window-width="1366"
     inkscape:window-height="717"
     inkscape:window-x="0"
     inkscape:window-y="24"
     inkscape:window-maximized="1" />
  <metadata
     id="metadata7">
    <rdf:RDF>
      <cc:Work
         rdf:about="">
        <dc:format>image/svg+xml</dc:format>
        <dc:type
           rdf:resource="http://purl.org/dc/dcmitype/StillImage" />
        <dc:title />
      </cc:Work>
    </rdf:RDF>
  </metadata>
  <g
     inkscape:label="Layer 1"
     inkscape:groupmode="layer"
     id="layer1"
     transform="translate(0,-540.36218)">
    <g
       id="g852">
      <path
         id="path955"
         d="m 432.91324,596.83612 c 102.19291,88.57459 105.82677,249.69971 8.1168,359.89879 C 343.32009,1066.934 181.27965,1084.4628 79.086741,995.8882 -23.106205,907.31358 -26.740032,746.18846 70.969941,635.98938 168.67991,525.7903 330.72036,508.26153 432.91324,596.83612 Z"
         inkscape:connector-curvature="0"
         style="fill:#8a715e;fill-opacity:1;stroke-width:11.10955811" />
      <path
         sodipodi:nodetypes="csscc"
         inkscape:connector-curvature="0"
         id="path957"
         d="M 8.3652338,882.36216 C 19.949333,925.51389 43.551551,965.0885 79.085936,995.8876 c 102.192904,88.5746 264.233404,71.0467 361.943354,-39.15239 20.35101,-22.95224 36.28958,-48.11807 47.87304,-74.37305 z"
         style="fill:#715344;fill-opacity:1;stroke:none;stroke-width:0.99999994px;stroke-linecap:butt;stroke-linejoin:miter;stroke-opacity:1" />
      <path
         id="path959"
         d="M 511.63547,765.26567 C 510.08409,826.57731 486.47425,889.42027 440.6691,941.08014 342.95915,1051.2793 180.9187,1068.808 78.725758,980.23344 30.827124,938.71779 4.4968188,881.28499 0.19382686,820.59096 0.79907986,886.94763 27.117405,950.84433 79.078691,995.8813 181.2716,1084.4558 343.31975,1066.9184 441.02199,956.72792 490.72694,900.66981 514.02701,831.43695 511.63547,765.26567 Z"
         inkscape:connector-curvature="0"
         style="opacity:1;stroke-width:11.10955811;fill:#000000;fill-opacity:0.49019608" />
      <path
         style="fill:#000000;fill-opacity:0.49019608;stroke-width:1.44776499"
         d="m 259.15546,890.27951 c -7.93094,-3.44714 -8.46873,-6.59703 -5.47531,-32.06994 2.30142,-19.58427 3.10794,-23.07173 6.17996,-26.72262 3.40702,-4.04901 3.98889,-4.19885 16.30559,-4.19885 12.3167,0 12.89858,0.14984 16.3056,4.19885 3.07202,3.65089 3.87853,7.13835 6.17996,26.72262 3.01578,25.66328 2.47224,28.67809 -5.79301,32.13153 -6.51909,2.72386 -27.38194,2.68573 -33.70279,-0.0615 z m 24.45062,-31.01267 c 2.71022,-2.19461 3.41786,-4.16943 3.41786,-9.53839 0,-7.79707 -3.97847,-12.306 -10.85824,-12.306 -6.87976,0 -10.85824,4.50893 -10.85824,12.306 0,7.79707 3.97848,12.30601 10.85824,12.30601 2.21239,0 5.56055,-1.24542 7.44038,-2.76762 z m -23.86529,-43.31292 c -3.2217,-3.55995 -3.02117,-8.30939 0.4995,-11.83006 2.46655,-2.46656 4.82588,-2.89553 15.92541,-2.89553 11.09955,0 13.45886,0.42897 15.92542,2.89553 3.61335,3.61334 3.7226,8.9371 0.24794,12.08161 -4.04188,3.65784 -29.23627,3.46342 -32.59827,-0.25155 z m 13.52938,-23.41218 v -5.79106 h -7.96271 -7.9627 v -5.06718 -5.06717 h 7.9627 7.96271 v -5.06718 -5.06718 h -7.96271 -7.9627 v -5.06718 -5.06718 h 7.9627 7.96271 v -5.79106 -5.79106 h -7.96271 -7.9627 v -5.06717 -5.06717 h 7.9627 7.96271 v -5.06719 -5.06717 h -7.96271 -7.9627 v -5.79107 -5.79105 h 7.9627 7.96271 v -5.06718 -5.06718 h -7.96271 -7.9627 v -5.79106 -5.79106 h 7.9627 7.96271 v -5.06717 -5.06719 h -7.96271 -7.9627 v -5.06718 -5.06716 h 7.9627 7.96271 v -5.79107 -5.79106 h -7.96271 -7.9627 v -5.06718 -5.06717 h 7.9627 7.96271 v -5.06718 -5.06718 h -7.96271 -7.9627 v -10.85823 -10.85824 h 18.82094 18.82095 v 5.06717 5.06718 h -7.96271 -7.9627 v 5.79106 5.79106 h 7.9627 7.96271 v 5.06718 5.06718 h -7.96271 -7.9627 v 5.06717 5.06718 h 7.9627 7.96271 v 5.79106 5.79107 h -7.96271 -7.9627 v 5.06716 5.06718 h 7.9627 7.96271 v 5.79107 5.79106 h -7.96271 -7.9627 v 5.06717 5.06718 h 7.9627 7.96271 v 5.06718 5.06718 h -7.96271 -7.9627 v 5.79105 5.79107 h 7.9627 7.96271 v 5.06717 5.06719 h -7.96271 -7.9627 v 5.06717 5.06717 h 7.9627 7.96271 v 5.06719 5.06717 h -7.96271 -7.9627 v 5.79106 5.79106 h 7.9627 7.96271 v 5.06718 5.06718 h -7.96271 -7.9627 v 5.06717 5.06718 h 7.9627 7.96271 v 5.79106 5.79105 h -10.85824 -10.85824 z"
         id="path843"
         inkscape:connector-curvature="0" />
      <path
         inkscape:connector-curvature="0"
         id="path924"
         d="m 239.15546,870.27951 c -7.93094,-3.44714 -8.46873,-6.59703 -5.47531,-32.06994 2.30142,-19.58427 3.10794,-23.07173 6.17996,-26.72262 3.40702,-4.04901 3.98889,-4.19885 16.30559,-4.19885 12.3167,0 12.89858,0.14984 16.3056,4.19885 3.07202,3.65089 3.87853,7.13835 6.17996,26.72262 3.01578,25.66328 2.47224,28.67809 -5.79301,32.13153 -6.51909,2.72386 -27.38194,2.68573 -33.70279,-0.0615 z m 24.45062,-31.01267 c 2.71022,-2.19461 3.41786,-4.16943 3.41786,-9.53839 0,-7.79707 -3.97847,-12.306 -10.85824,-12.306 -6.87976,0 -10.85824,4.50893 -10.85824,12.306 0,7.79707 3.97848,12.30601 10.85824,12.30601 2.21239,0 5.56055,-1.24542 7.44038,-2.76762 z m -23.86529,-43.31292 c -3.2217,-3.55995 -3.02117,-8.30939 0.4995,-11.83006 2.46655,-2.46656 4.82588,-2.89553 15.92541,-2.89553 11.09955,0 13.45886,0.42897 15.92542,2.89553 3.61335,3.61334 3.7226,8.9371 0.24794,12.08161 -4.04188,3.65784 -29.23627,3.46342 -32.59827,-0.25155 z m 13.52938,-23.41218 v -5.79106 h -7.96271 -7.9627 v -5.06718 -5.06717 h 7.9627 7.96271 v -5.06718 -5.06718 h -7.96271 -7.9627 v -5.06718 -5.06718 h 7.9627 7.96271 v -5.79106 -5.79106 h -7.96271 -7.9627 v -5.06717 -5.06717 h 7.9627 7.96271 v -5.06719 -5.06717 h -7.96271 -7.9627 v -5.79107 -5.79105 h 7.9627 7.96271 v -5.06718 -5.06718 h -7.96271 -7.9627 v -5.79106 -5.79106 h 7.9627 7.96271 v -5.06717 -5.06719 h -7.96271 -7.9627 v -5.06718 -5.06716 h 7.9627 7.96271 v -5.79107 -5.79106 h -7.96271 -7.9627 v -5.06718 -5.06717 h 7.9627 7.96271 v -5.06718 -5.06718 h -7.96271 -7.9627 v -10.85823 -10.85824 h 18.82094 18.82095 v 5.06717 5.06718 h -7.96271 -7.9627 v 5.79106 5.79106 h 7.9627 7.96271 v 5.06718 5.06718 h -7.96271 -7.9627 v 5.06717 5.06718 h 7.9627 7.96271 v 5.79106 5.79107 h -7.96271 -7.9627 v 5.06716 5.06718 h 7.9627 7.96271 v 5.79107 5.79106 h -7.96271 -7.9627 v 5.06717 5.06718 h 7.9627 7.96271 v 5.06718 5.06718 h -7.96271 -7.9627 v 5.79105 5.79107 h 7.9627 7.96271 v 5.06717 5.06719 h -7.96271 -7.9627 v 5.06717 5.06717 h 7.9627 7.96271 v 5.06719 5.06717 h -7.96271 -7.9627 v 5.79106 5.79106 h 7.9627 7.96271 v 5.06718 5.06718 h -7.96271 -7.9627 v 5.06717 5.06718 h 7.9627 7.96271 v 5.79106 5.79105 h -10.85824 -10.85824 z"
         style="fill:#ffffff;stroke-width:1.44776499" />
      <g
         aria-label="IHA"
         transform="translate(48.125,563.71388)"
         style="font-style:normal;font-weight:normal;font-size:40px;line-height:1.25;font-family:sans-serif;letter-spacing:0px;word-spacing:0px;fill:#000000;fill-opacity:0.49019608;stroke:none"
         id="g876">
        <path
           d="m 167.18359,370.10337 q -3.54166,0 -8.9095,-0.7194 l -8.90951,-1.16211 q -1.27278,16.10352 -1.27278,30.76823 0,3.8737 0.22135,9.57357 0.22136,5.69987 0.22136,9.57357 0,5.20182 -0.38737,9.46289 l 17.43164,-0.22136 q 2.32422,0 3.8737,1.66016 1.60481,1.60482 1.60481,3.98438 0,2.43489 -1.60481,4.09505 -1.54948,1.60482 -3.8737,1.60482 -3.09896,0 -9.29688,0.16601 -6.19791,0.11068 -9.29687,0.11068 -3.65235,0 -10.95703,0.99609 -7.24935,1.05143 -10.95704,1.05143 -2.32422,0 -3.92903,-1.66015 -1.54948,-1.60482 -1.54948,-3.98438 0,-2.37955 1.54948,-4.03971 1.60481,-1.66016 3.92903,-1.66016 3.59701,0 11.89779,-1.16211 0.55339,-4.48242 0.55339,-10.23763 0,-3.81836 -0.38737,-9.29687 -0.33204,-5.53386 -0.33204,-9.29688 0,-12.7832 1.54948,-31.93034 l -7.19401,0.22136 -7.19401,0.16601 q -2.37955,0 -3.98437,-1.60481 -1.60482,-1.60482 -1.60482,-4.09506 0,-5.14648 5.20182,-5.64453 4.48243,-0.44271 16.76758,-0.44271 11.01237,0 27.61393,2.37956 4.92513,0.7194 4.92513,5.92122 0,2.60092 -1.88151,4.1504 -1.66015,1.27278 -3.81836,1.27278 z"
           style="font-style:normal;font-variant:normal;font-weight:normal;font-stretch:normal;font-size:113.33333588px;font-family:'Comic Sans MS';-inkscape-font-specification:'Comic Sans MS';fill:#000000;fill-opacity:0.49019608"
           id="path870"
           inkscape:connector-curvature="0" />
        <path
           d="m 256.7767,361.08319 q -0.83008,2.32422 -0.83008,6.80664 0,1.66016 0.11067,4.92513 0.11068,3.26497 0.11068,4.92513 0,5.53386 -0.99609,16.49089 -0.94076,10.95703 -0.94076,16.49088 0,4.20573 0.60873,12.61719 0.60872,8.41146 0.60872,12.67253 0,2.26888 -1.54948,3.81836 -1.49414,1.54948 -3.76302,1.54948 -2.21354,0 -3.76302,-1.54948 -1.54948,-1.54948 -1.54948,-3.81836 0,-4.26107 -0.60872,-12.67253 -0.60873,-8.41146 -0.60873,-12.61719 0,-4.03971 0.2767,-8.1901 -9.4629,0.16601 -23.40821,2.82226 l -23.24219,4.53776 q 0,4.98047 -0.99609,14.16667 -0.99609,9.13086 -0.99609,14.16667 0,2.26888 -1.54948,3.81836 -1.49414,1.60482 -3.76302,1.60482 -2.26888,0 -3.81836,-1.60482 -1.49414,-1.54948 -1.49414,-3.81836 0,-5.86589 0.94075,-17.48698 0.99609,-11.67643 0.99609,-17.54232 0,-3.04362 -0.22135,-9.1862 -0.22135,-6.14258 -0.22135,-9.24153 0,-4.37175 0.55338,-13.11524 0.55339,-8.79883 0.55339,-13.17057 0,-2.32422 1.49414,-3.8737 1.54948,-1.54948 3.81836,-1.54948 2.26888,0 3.76302,1.54948 1.54948,1.54948 1.54948,3.8737 0,4.42708 -0.60873,13.28125 -0.55338,8.79883 -0.55338,13.22591 l 0.33203,14.00065 23.74023,-4.48242 q 14.22201,-2.65625 23.96159,-2.76693 0.60873,-7.91341 0.60873,-23.85091 0,-4.20573 1.38346,-8.52214 1.82617,-5.92122 5.14649,-5.92122 2.10286,0 3.76302,1.54948 1.66015,1.49414 1.66015,3.81836 0,0.83008 -0.49804,2.26888 z"
           style="font-style:normal;font-variant:normal;font-weight:normal;font-stretch:normal;font-size:113.33333588px;font-family:'Comic Sans MS';-inkscape-font-specification:'Comic Sans MS';fill:#000000;fill-opacity:0.49019608"
           id="path872"
           inkscape:connector-curvature="0" />
        <path
           d="m 332.36915,440.71535 q -5.09115,0 -8.85417,-13.05989 -1.4388,-4.98047 -3.597,-17.43164 -5.64454,0.77474 -14.7754,2.76692 l -14.72005,3.04362 q -2.76693,7.24935 -9.46289,21.19466 -1.77083,3.09896 -4.81445,3.09896 -2.21354,0 -3.98438,-1.60481 -1.71549,-1.60482 -1.71549,-3.98438 0,-2.65625 8.35612,-20.19857 -0.94076,-1.4388 -0.94076,-3.32031 0,-4.48242 5.42318,-5.75521 6.30859,-11.84245 15.9375,-27.22656 13.11523,-20.97331 16.32487,-20.97331 4.37175,0 5.97656,6.08724 l 3.48633,18.59375 8.24544,38.46029 3.1543,8.74349 q 1.60482,4.48242 1.60482,5.97656 0,2.37956 -1.7155,3.98438 -1.71549,1.60481 -3.92903,1.60481 z m -19.53451,-63.25195 -15.82682,25.51107 q 6.69596,-1.7155 20.30924,-4.15039 z"
           style="font-style:normal;font-variant:normal;font-weight:normal;font-stretch:normal;font-size:113.33333588px;font-family:'Comic Sans MS';-inkscape-font-specification:'Comic Sans MS';fill:#000000;fill-opacity:0.49019608"
           id="path874"
           inkscape:connector-curvature="0" />
      </g>
      <g
         id="flowRoot855"
         style="font-style:normal;font-weight:normal;font-size:40px;line-height:1.25;font-family:sans-serif;letter-spacing:0px;word-spacing:0px;fill:#ffffff;fill-opacity:1;stroke:none"
         transform="translate(28.125,543.71388)"
         aria-label="IHA">
        <path
           inkscape:connector-curvature="0"
           id="path863"
           style="font-style:normal;font-variant:normal;font-weight:normal;font-stretch:normal;font-size:113.33333588px;font-family:'Comic Sans MS';-inkscape-font-specification:'Comic Sans MS';fill:#ffffff"
           d="m 167.18359,370.10337 q -3.54166,0 -8.9095,-0.7194 l -8.90951,-1.16211 q -1.27278,16.10352 -1.27278,30.76823 0,3.8737 0.22135,9.57357 0.22136,5.69987 0.22136,9.57357 0,5.20182 -0.38737,9.46289 l 17.43164,-0.22136 q 2.32422,0 3.8737,1.66016 1.60481,1.60482 1.60481,3.98438 0,2.43489 -1.60481,4.09505 -1.54948,1.60482 -3.8737,1.60482 -3.09896,0 -9.29688,0.16601 -6.19791,0.11068 -9.29687,0.11068 -3.65235,0 -10.95703,0.99609 -7.24935,1.05143 -10.95704,1.05143 -2.32422,0 -3.92903,-1.66015 -1.54948,-1.60482 -1.54948,-3.98438 0,-2.37955 1.54948,-4.03971 1.60481,-1.66016 3.92903,-1.66016 3.59701,0 11.89779,-1.16211 0.55339,-4.48242 0.55339,-10.23763 0,-3.81836 -0.38737,-9.29687 -0.33204,-5.53386 -0.33204,-9.29688 0,-12.7832 1.54948,-31.93034 l -7.19401,0.22136 -7.19401,0.16601 q -2.37955,0 -3.98437,-1.60481 -1.60482,-1.60482 -1.60482,-4.09506 0,-5.14648 5.20182,-5.64453 4.48243,-0.44271 16.76758,-0.44271 11.01237,0 27.61393,2.37956 4.92513,0.7194 4.92513,5.92122 0,2.60092 -1.88151,4.1504 -1.66015,1.27278 -3.81836,1.27278 z" />
        <path
           inkscape:connector-curvature="0"
           id="path865"
           style="font-style:normal;font-variant:normal;font-weight:normal;font-stretch:normal;font-size:113.33333588px;font-family:'Comic Sans MS';-inkscape-font-specification:'Comic Sans MS';fill:#ffffff"
           d="m 256.7767,361.08319 q -0.83008,2.32422 -0.83008,6.80664 0,1.66016 0.11067,4.92513 0.11068,3.26497 0.11068,4.92513 0,5.53386 -0.99609,16.49089 -0.94076,10.95703 -0.94076,16.49088 0,4.20573 0.60873,12.61719 0.60872,8.41146 0.60872,12.67253 0,2.26888 -1.54948,3.81836 -1.49414,1.54948 -3.76302,1.54948 -2.21354,0 -3.76302,-1.54948 -1.54948,-1.54948 -1.54948,-3.81836 0,-4.26107 -0.60872,-12.67253 -0.60873,-8.41146 -0.60873,-12.61719 0,-4.03971 0.2767,-8.1901 -9.4629,0.16601 -23.40821,2.82226 l -23.24219,4.53776 q 0,4.98047 -0.99609,14.16667 -0.99609,9.13086 -0.99609,14.16667 0,2.26888 -1.54948,3.81836 -1.49414,1.60482 -3.76302,1.60482 -2.26888,0 -3.81836,-1.60482 -1.49414,-1.54948 -1.49414,-3.81836 0,-5.86589 0.94075,-17.48698 0.99609,-11.67643 0.99609,-17.54232 0,-3.04362 -0.22135,-9.1862 -0.22135,-6.14258 -0.22135,-9.24153 0,-4.37175 0.55338,-13.11524 0.55339,-8.79883 0.55339,-13.17057 0,-2.32422 1.49414,-3.8737 1.54948,-1.54948 3.81836,-1.54948 2.26888,0 3.76302,1.54948 1.54948,1.54948 1.54948,3.8737 0,4.42708 -0.60873,13.28125 -0.55338,8.79883 -0.55338,13.22591 l 0.33203,14.00065 23.74023,-4.48242 q 14.22201,-2.65625 23.96159,-2.76693 0.60873,-7.91341 0.60873,-23.85091 0,-4.20573 1.38346,-8.52214 1.82617,-5.92122 5.14649,-5.92122 2.10286,0 3.76302,1.54948 1.66015,1.49414 1.66015,3.81836 0,0.83008 -0.49804,2.26888 z" />
        <path
           inkscape:connector-curvature="0"
           id="path867"
           style="font-style:normal;font-variant:normal;font-weight:normal;font-stretch:normal;font-size:113.33333588px;font-family:'Comic Sans MS';-inkscape-font-specification:'Comic Sans MS';fill:#ffffff"
           d="m 332.36915,440.71535 q -5.09115,0 -8.85417,-13.05989 -1.4388,-4.98047 -3.597,-17.43164 -5.64454,0.77474 -14.7754,2.76692 l -14.72005,3.04362 q -2.76693,7.24935 -9.46289,21.19466 -1.77083,3.09896 -4.81445,3.09896 -2.21354,0 -3.98438,-1.60481 -1.71549,-1.60482 -1.71549,-3.98438 0,-2.65625 8.35612,-20.19857 -0.94076,-1.4388 -0.94076,-3.32031 0,-4.48242 5.42318,-5.75521 6.30859,-11.84245 15.9375,-27.22656 13.11523,-20.97331 16.32487,-20.97331 4.37175,0 5.97656,6.08724 l 3.48633,18.59375 8.24544,38.46029 3.1543,8.74349 q 1.60482,4.48242 1.60482,5.97656 0,2.37956 -1.7155,3.98438 -1.71549,1.60481 -3.92903,1.60481 z m -19.53451,-63.25195 -15.82682,25.51107 q 6.69596,-1.7155 20.30924,-4.15039 z" />
      </g>
    </g>
  </g>
</svg>
