<?xml version="1.0" encoding="UTF-8" standalone="no"?>
<!-- Created with Inkscape (http://www.inkscape.org/) -->

<svg
   xmlns:dc="http://purl.org/dc/elements/1.1/"
   xmlns:cc="http://creativecommons.org/ns#"
   xmlns:rdf="http://www.w3.org/1999/02/22-rdf-syntax-ns#"
   xmlns:svg="http://www.w3.org/2000/svg"
   xmlns="http://www.w3.org/2000/svg"
   xmlns:sodipodi="http://sodipodi.sourceforge.net/DTD/sodipodi-0.dtd"
   xmlns:inkscape="http://www.inkscape.org/namespaces/inkscape"
   width="512"
   height="512"
   id="svg2"
   version="1.1"
   inkscape:version="0.92.2 5c3e80d, 2017-08-06"
   sodipodi:docname="application-x-egon.svg">
  <defs
     id="defs4" />
  <sodipodi:namedview
     id="base"
     pagecolor="#ffffff"
     bordercolor="#666666"
     borderopacity="1.0"
     inkscape:pageopacity="0.0"
     inkscape:pageshadow="2"
     inkscape:zoom="0.42897809"
     inkscape:cx="158.08933"
     inkscape:cy="100.83157"
     inkscape:document-units="px"
     inkscape:current-layer="layer1"
     showgrid="false"
     inkscape:window-width="1366"
     inkscape:window-height="717"
     inkscape:window-x="0"
     inkscape:window-y="24"
     inkscape:window-maximized="1" />
  <metadata
     id="metadata7">
    <rdf:RDF>
      <cc:Work
         rdf:about="">
        <dc:format>image/svg+xml</dc:format>
        <dc:type
           rdf:resource="http://purl.org/dc/dcmitype/StillImage" />
        <dc:title></dc:title>
      </cc:Work>
    </rdf:RDF>
  </metadata>
  <g
     inkscape:label="Layer 1"
     inkscape:groupmode="layer"
     id="layer1"
     transform="translate(0,-540.36218)">
    <g
       id="g887">
      <path
         id="path943"
         d="m 432.91326,596.83614 c 102.19291,88.57459 105.82678,249.69971 8.1168,359.89879 C 343.32009,1066.934 181.27965,1084.4628 79.086738,995.8882 -23.106202,907.3136 -26.740032,746.18848 70.969938,635.9894 168.67991,525.79032 330.72036,508.26155 432.91326,596.83614 Z"
         inkscape:connector-curvature="0"
         style="fill:#3689e6;fill-opacity:1;stroke-width:11.10955811" />
      <path
         sodipodi:nodetypes="csscc"
         inkscape:connector-curvature="0"
         id="path945"
         d="m 8.3652376,882.36218 c 11.5841004,43.15173 35.1863104,82.72637 70.7207104,113.52542 102.192912,88.5746 264.233392,71.0467 361.943362,-39.15237 20.35102,-22.95224 36.28955,-48.11807 47.87304,-74.37305 z"
         style="fill:#0d52bf;fill-opacity:1;stroke:none;stroke-width:0.99999994px;stroke-linecap:butt;stroke-linejoin:miter;stroke-opacity:1" />
      <path
         id="path947"
         d="m 511.6355,765.26569 c -1.55139,61.31164 -25.16123,124.1546 -70.96638,175.81447 C 342.95915,1051.2793 180.9187,1068.808 78.725758,980.23346 30.827128,938.71781 4.4968176,881.28501 0.19382759,820.59098 0.79907759,886.94765 27.117408,950.84435 79.078688,995.8812 181.2716,1084.4558 343.31975,1066.9184 441.02201,956.72794 490.72696,900.66983 514.02703,831.43697 511.6355,765.26569 Z"
         inkscape:connector-curvature="0"
         style="opacity:0.1;stroke-width:11.10955811" />
      <path
         style="fill:#317ccf;fill-opacity:1;stroke-width:0.62217218"
         d="M 339.41641,658.54667 H 239.35846 139.30056 l -3.37455,1.71096 c -2.20987,1.12063 -4.0197,2.6418 -5.24473,4.4087 l -1.87013,2.69767 -0.16291,75.54045 -0.14824,68.77554 v 32.3566 14.02924 c 0,13.92364 0.0133,14.0517 1.61499,16.99555 1.84692,3.39341 4.33138,5.44596 7.97886,6.5923 2.03514,0.63981 27.57731,0.77547 128.83948,0.68179 l 126.30096,-0.11793 2.54703,-1.36337 c 3.29323,-1.76231 6.23498,-5.14075 7.05892,-8.10776 0.44299,-1.595 0.65374,-34.65987 0.65623,-102.91477 l 0.004,-100.56586 -1.73771,-3.32718 c -1.265,-2.42114 -2.56482,-3.83965 -4.77098,-5.20462 l -3.03329,-1.87623 -14.48497,-0.18722 -14.48492,-0.18722 z m -185.40733,25.50905 h 111.99101 111.991 v 86.48192 86.48197 h -111.991 -111.99101 v -86.48197 z m 55.10356,15.64666 c -0.6488,-0.01 -1.30477,0.007 -1.96613,0.0473 -8.17033,0.52432 -14.83942,5.1757 -18.53272,12.92587 -1.68934,3.54495 -1.9256,4.69686 -1.92,9.33259 0.007,4.38664 0.28449,5.8854 1.63321,8.78574 2.93426,6.30971 8.31247,10.96539 14.78994,12.80192 4.0769,1.15592 10.5666,0.58963 14.64413,-1.27713 10.2888,-4.71038 15.62088,-16.45201 12.26847,-27.01467 -2.98655,-9.41001 -11.18459,-15.44382 -20.9169,-15.60172 z m 94.80107,33.71881 c -0.71376,0.01 -1.41334,0.18322 -2.06094,0.52375 -0.85647,0.45013 -11.66826,14.11675 -24.02654,30.37101 -12.35832,16.25421 -23.01616,30.10753 -23.68386,30.78415 -1.80443,1.82846 -5.76531,1.66769 -7.66416,-0.31114 -0.81343,-0.84769 -5.6071,-7.00163 -10.65224,-13.67442 -5.04518,-6.6728 -9.72948,-12.62233 -10.41046,-13.22116 -1.89489,-1.66629 -5.11218,-1.39102 -7.27163,0.62219 -1.00943,0.94103 -12.39343,16.96975 -25.29762,35.61936 -12.90421,18.64957 -24.00006,34.6783 -24.65843,35.61939 l -1.19817,1.7109 h 98.96789 98.96788 v -15.58826 -15.58835 l -27.46546,-36.51859 c -15.10629,-20.08517 -28.16464,-37.27479 -29.01853,-38.1992 -1.31667,-1.42553 -2.95744,-2.17468 -4.52773,-2.14966 z"
         id="path843"
         inkscape:connector-curvature="0"
         sodipodi:nodetypes="cccccccccsccccccsccccccccccccccccccscsscscccsscsccsccccccccc" />
      <path
         sodipodi:nodetypes="cccccccccsccccccsccccccccccccccccccscsscscccsscsccsccccccccc"
         inkscape:connector-curvature="0"
         id="path838-3"
         d="M 329.41641,648.54667 H 229.35846 129.30056 l -3.37455,1.71096 c -2.20987,1.12063 -4.0197,2.6418 -5.24473,4.4087 l -1.87013,2.69767 -0.16291,75.54045 -0.14824,68.77554 v 32.3566 14.02924 c 0,13.92364 0.0133,14.0517 1.61499,16.99555 1.84692,3.39341 4.33138,5.44596 7.97886,6.5923 2.03514,0.63981 27.57731,0.77547 128.83948,0.68179 l 126.30096,-0.11793 2.54703,-1.36337 c 3.29323,-1.76231 6.23498,-5.14075 7.05892,-8.10776 0.44299,-1.595 0.65374,-34.65987 0.65623,-102.91477 l 0.004,-100.56586 -1.73771,-3.32718 c -1.265,-2.42114 -2.56482,-3.83965 -4.77098,-5.20462 l -3.03329,-1.87623 -14.48497,-0.18722 -14.48492,-0.18722 z m -185.40733,25.50905 h 111.99101 111.991 v 86.48192 86.48197 h -111.991 -111.99101 v -86.48197 z m 55.10356,15.64666 c -0.6488,-0.01 -1.30477,0.007 -1.96613,0.0473 -8.17033,0.52432 -14.83942,5.1757 -18.53272,12.92587 -1.68934,3.54495 -1.9256,4.69686 -1.92,9.33259 0.007,4.38664 0.28449,5.8854 1.63321,8.78574 2.93426,6.30971 8.31247,10.96539 14.78994,12.80192 4.0769,1.15592 10.5666,0.58963 14.64413,-1.27713 10.2888,-4.71038 15.62088,-16.45201 12.26847,-27.01467 -2.98655,-9.41001 -11.18459,-15.44382 -20.9169,-15.60172 z m 94.80107,33.71881 c -0.71376,0.01 -1.41334,0.18322 -2.06094,0.52375 -0.85647,0.45013 -11.66826,14.11675 -24.02654,30.37101 -12.35832,16.25421 -23.01616,30.10753 -23.68386,30.78415 -1.80443,1.82846 -5.76531,1.66769 -7.66416,-0.31114 -0.81343,-0.84769 -5.6071,-7.00163 -10.65224,-13.67442 -5.04518,-6.6728 -9.72948,-12.62233 -10.41046,-13.22116 -1.89489,-1.66629 -5.11218,-1.39102 -7.27163,0.62219 -1.00943,0.94103 -12.39343,16.96975 -25.29762,35.61936 -12.90421,18.64957 -24.00006,34.6783 -24.65843,35.61939 l -1.19817,1.7109 h 98.96789 98.96788 v -15.58826 -15.58835 l -27.46546,-36.51859 c -15.10629,-20.08517 -28.16464,-37.27479 -29.01853,-38.1992 -1.31667,-1.42553 -2.95744,-2.17468 -4.52773,-2.14966 z"
         style="fill:#ffffff;stroke-width:0.62217218" />
      <g
         aria-label="EGON"
         transform="matrix(0.93819728,0,0,0.93819728,6.0823024,547.45763)"
         style="font-style:normal;font-weight:normal;font-size:40px;line-height:1.25;font-family:sans-serif;letter-spacing:0px;word-spacing:0px;fill:#0c4aac;fill-opacity:1;stroke:none"
         id="g870">
        <path
           d="m 152.36263,399.57733 q -0.77474,0 -1.71549,-0.27669 -9.35222,-2.65625 -18.04037,-2.65625 -4.53776,0 -9.9056,0.83008 -5.36784,0.83007 -11.56575,2.54557 0.49804,3.597 0.49804,5.75521 0,7.69205 -0.94075,21.13932 l 24.23828,-2.32422 q 10.68034,-1.10677 13.11524,-1.10677 2.43489,0 4.09505,1.54948 1.66015,1.54948 1.66015,4.15039 0,5.03581 -5.09114,5.64453 l -13.17058,1.16211 -25.5664,2.32422 q -0.22136,3.92904 -0.38737,7.4707 -0.11068,3.48633 -0.11068,6.52995 0,12.22982 1.77083,14.38802 1.32813,1.54948 8.68816,1.54948 3.43099,0 10.29296,-0.16601 6.91732,-0.22136 10.40365,-0.22136 1.10677,0 3.26497,-0.33203 2.15821,-0.38737 3.20964,-0.38737 5.86589,0 5.86589,5.75521 0,4.64844 -4.70378,5.58919 -5.20182,1.05143 -22.52279,1.05143 -17.15495,0 -22.02474,-4.53776 -5.312498,-4.92513 -5.312498,-22.6888 0,-3.54167 0.166016,-7.74739 0.166016,-4.20573 0.442708,-9.07553 -0.608724,-1.27278 -0.608724,-2.71158 0,-1.88151 1.051433,-3.37566 1.106775,-15.99283 1.106775,-23.62955 0,-2.04753 -0.55339,-5.97657 -0.553385,-3.98437 -0.553385,-6.0319 0,-6.58528 5.533855,-6.58528 2.32422,0 3.98437,1.60481 6.64063,-1.77083 12.50651,-2.65625 5.92123,-0.88541 11.12305,-0.88541 13.44727,0 21.47136,3.20963 3.70768,1.49414 3.70768,5.3125 0,2.21354 -1.4388,3.92904 -1.60482,1.88151 -3.98438,1.88151 z"
           style="font-style:normal;font-variant:normal;font-weight:normal;font-stretch:normal;font-size:113.33333588px;font-family:'Comic Sans MS';-inkscape-font-specification:'Comic Sans MS';fill:#0c4aac;fill-opacity:1"
           id="path862"
           inkscape:connector-curvature="0" />
        <path
           d="m 233.4336,440.58319 q -3.43099,16.98893 -14.44336,27.17123 -10.95703,10.12695 -25.89844,10.12695 -13.61328,0 -20.41992,-7.58138 -6.80664,-7.63672 -6.80664,-22.85482 0,-14.33268 6.7513,-29.49544 6.80664,-15.2181 17.43164,-24.57032 7.08333,-6.25325 14.99675,-6.25325 5.0358,0 13.28125,3.32031 10.07161,3.98438 10.07161,8.79883 0,2.26888 -1.66016,4.03971 -1.66015,1.77084 -3.98437,1.77084 -1.21745,0 -3.43099,-1.38347 -8.4668,-5.14648 -14.27734,-5.14648 -4.1504,0 -8.68816,4.3164 -2.26888,2.15821 -6.52994,7.85808 -12.78321,16.93359 -12.78321,36.74479 0,10.40365 3.20964,14.55404 3.48633,4.53776 12.83854,4.53776 9.9056,0 17.21029,-6.25326 7.69205,-6.64062 10.73567,-18.98112 -15.32877,0.77474 -26.2858,5.92123 -1.27279,0.60872 -2.49024,0.60872 -2.43489,0 -4.03971,-1.88151 -1.49414,-1.7155 -1.49414,-3.98438 0,-3.04362 2.93294,-4.86979 11.95313,-7.30469 41.22721,-7.30469 2.37956,0 3.98438,1.60482 1.60482,1.60482 1.60482,4.03972 0,3.597 -3.04362,5.14648 z"
           style="font-style:normal;font-variant:normal;font-weight:normal;font-stretch:normal;font-size:113.33333588px;font-family:'Comic Sans MS';-inkscape-font-specification:'Comic Sans MS';fill:#0c4aac;fill-opacity:1"
           id="path864"
           inkscape:connector-curvature="0" />
        <path
           d="m 282.90626,477.43866 q -15.60547,0 -26.45182,-9.35221 -11.51042,-9.96094 -11.51042,-25.67709 0,-19.14713 11.3444,-34.80794 12.67253,-17.3763 31.59831,-17.3763 18.20638,0 27.06055,8.1901 9.24153,8.52214 9.24153,26.89453 0,19.14714 -10.40364,34.53125 -11.95313,17.59766 -30.87891,17.59766 z m 4.98047,-75.86914 q -13.55794,0 -22.9655,13.5026 -8.68815,12.39584 -8.68815,27.33724 0,10.68034 7.91342,17.3763 7.58138,6.3086 18.75976,6.3086 13.44727,0 22.19076,-13.55794 7.80273,-12.11915 7.80273,-27.22657 0,-13.22591 -5.92122,-18.59375 -5.64453,-5.14648 -19.0918,-5.14648 z"
           style="font-style:normal;font-variant:normal;font-weight:normal;font-stretch:normal;font-size:113.33333588px;font-family:'Comic Sans MS';-inkscape-font-specification:'Comic Sans MS';fill:#0c4aac;fill-opacity:1"
           id="path866"
           inkscape:connector-curvature="0" />
        <path
           d="m 414.33529,461.77785 q 0,2.65625 -0.88542,8.85417 -0.88542,5.58919 -5.92122,5.58919 -3.04362,0 -7.24935,-3.98437 -22.52279,-21.30534 -51.6862,-61.48112 l -0.27669,12.56185 -0.16602,12.61718 q 0,4.5931 0.16602,13.7793 0.22135,9.1862 0.22135,13.83464 0,14.88606 -5.75521,14.88606 -3.04362,0 -4.81445,-1.93685 -1.60482,-1.71549 -1.60482,-4.09505 0,-2.32422 0.33203,-7.02799 0.38737,-4.70378 0.38737,-7.028 0,-3.43099 0.22136,-10.23763 0.22135,-6.86198 0.22135,-10.29297 0,-3.65234 -0.16601,-11.01237 -0.16602,-7.41536 -0.16602,-11.06771 0,-3.48632 -0.66406,-10.3483 -0.66407,-6.91732 -0.66407,-10.40365 0,-2.54557 2.15821,-4.64844 2.21354,-2.10286 4.98047,-2.10286 2.93294,0 7.24935,6.41927 13.77929,20.64128 24.79166,34.3099 13.11524,16.21419 28.77605,30.98958 0.16601,-2.37956 0,-7.02799 l -0.16602,-6.97266 q 0,-24.29362 -1.88151,-38.68164 -0.22136,-1.4388 -1.49414,-5.81055 -1.10677,-3.76302 -1.10677,-5.86588 0,-6.41928 5.86588,-6.41928 9.62891,0 9.62891,35.91472 0,6.14258 -0.16602,18.37239 -0.16601,12.17448 -0.16601,18.31706 z"
           style="font-style:normal;font-variant:normal;font-weight:normal;font-stretch:normal;font-size:113.33333588px;font-family:'Comic Sans MS';-inkscape-font-specification:'Comic Sans MS';fill:#0c4aac;fill-opacity:1"
           id="path868"
           inkscape:connector-curvature="0" />
      </g>
      <g
         id="flowRoot845"
         style="font-style:normal;font-weight:normal;font-size:40px;line-height:1.25;font-family:sans-serif;letter-spacing:0px;word-spacing:0px;fill:#ffffff;fill-opacity:1;stroke:none"
         transform="matrix(0.93819728,0,0,0.93819728,-3.9181453,537.45763)"
         aria-label="EGON">
        <path
           inkscape:connector-curvature="0"
           id="path853"
           style="font-style:normal;font-variant:normal;font-weight:normal;font-stretch:normal;font-size:113.33333588px;font-family:'Comic Sans MS';-inkscape-font-specification:'Comic Sans MS';fill:#ffffff"
           d="m 152.36263,399.57733 q -0.77474,0 -1.71549,-0.27669 -9.35222,-2.65625 -18.04037,-2.65625 -4.53776,0 -9.9056,0.83008 -5.36784,0.83007 -11.56575,2.54557 0.49804,3.597 0.49804,5.75521 0,7.69205 -0.94075,21.13932 l 24.23828,-2.32422 q 10.68034,-1.10677 13.11524,-1.10677 2.43489,0 4.09505,1.54948 1.66015,1.54948 1.66015,4.15039 0,5.03581 -5.09114,5.64453 l -13.17058,1.16211 -25.5664,2.32422 q -0.22136,3.92904 -0.38737,7.4707 -0.11068,3.48633 -0.11068,6.52995 0,12.22982 1.77083,14.38802 1.32813,1.54948 8.68816,1.54948 3.43099,0 10.29296,-0.16601 6.91732,-0.22136 10.40365,-0.22136 1.10677,0 3.26497,-0.33203 2.15821,-0.38737 3.20964,-0.38737 5.86589,0 5.86589,5.75521 0,4.64844 -4.70378,5.58919 -5.20182,1.05143 -22.52279,1.05143 -17.15495,0 -22.02474,-4.53776 -5.312498,-4.92513 -5.312498,-22.6888 0,-3.54167 0.166016,-7.74739 0.166016,-4.20573 0.442708,-9.07553 -0.608724,-1.27278 -0.608724,-2.71158 0,-1.88151 1.051433,-3.37566 1.106775,-15.99283 1.106775,-23.62955 0,-2.04753 -0.55339,-5.97657 -0.553385,-3.98437 -0.553385,-6.0319 0,-6.58528 5.533855,-6.58528 2.32422,0 3.98437,1.60481 6.64063,-1.77083 12.50651,-2.65625 5.92123,-0.88541 11.12305,-0.88541 13.44727,0 21.47136,3.20963 3.70768,1.49414 3.70768,5.3125 0,2.21354 -1.4388,3.92904 -1.60482,1.88151 -3.98438,1.88151 z" />
        <path
           inkscape:connector-curvature="0"
           id="path855"
           style="font-style:normal;font-variant:normal;font-weight:normal;font-stretch:normal;font-size:113.33333588px;font-family:'Comic Sans MS';-inkscape-font-specification:'Comic Sans MS';fill:#ffffff"
           d="m 233.4336,440.58319 q -3.43099,16.98893 -14.44336,27.17123 -10.95703,10.12695 -25.89844,10.12695 -13.61328,0 -20.41992,-7.58138 -6.80664,-7.63672 -6.80664,-22.85482 0,-14.33268 6.7513,-29.49544 6.80664,-15.2181 17.43164,-24.57032 7.08333,-6.25325 14.99675,-6.25325 5.0358,0 13.28125,3.32031 10.07161,3.98438 10.07161,8.79883 0,2.26888 -1.66016,4.03971 -1.66015,1.77084 -3.98437,1.77084 -1.21745,0 -3.43099,-1.38347 -8.4668,-5.14648 -14.27734,-5.14648 -4.1504,0 -8.68816,4.3164 -2.26888,2.15821 -6.52994,7.85808 -12.78321,16.93359 -12.78321,36.74479 0,10.40365 3.20964,14.55404 3.48633,4.53776 12.83854,4.53776 9.9056,0 17.21029,-6.25326 7.69205,-6.64062 10.73567,-18.98112 -15.32877,0.77474 -26.2858,5.92123 -1.27279,0.60872 -2.49024,0.60872 -2.43489,0 -4.03971,-1.88151 -1.49414,-1.7155 -1.49414,-3.98438 0,-3.04362 2.93294,-4.86979 11.95313,-7.30469 41.22721,-7.30469 2.37956,0 3.98438,1.60482 1.60482,1.60482 1.60482,4.03972 0,3.597 -3.04362,5.14648 z" />
        <path
           inkscape:connector-curvature="0"
           id="path857"
           style="font-style:normal;font-variant:normal;font-weight:normal;font-stretch:normal;font-size:113.33333588px;font-family:'Comic Sans MS';-inkscape-font-specification:'Comic Sans MS';fill:#ffffff"
           d="m 282.90626,477.43866 q -15.60547,0 -26.45182,-9.35221 -11.51042,-9.96094 -11.51042,-25.67709 0,-19.14713 11.3444,-34.80794 12.67253,-17.3763 31.59831,-17.3763 18.20638,0 27.06055,8.1901 9.24153,8.52214 9.24153,26.89453 0,19.14714 -10.40364,34.53125 -11.95313,17.59766 -30.87891,17.59766 z m 4.98047,-75.86914 q -13.55794,0 -22.9655,13.5026 -8.68815,12.39584 -8.68815,27.33724 0,10.68034 7.91342,17.3763 7.58138,6.3086 18.75976,6.3086 13.44727,0 22.19076,-13.55794 7.80273,-12.11915 7.80273,-27.22657 0,-13.22591 -5.92122,-18.59375 -5.64453,-5.14648 -19.0918,-5.14648 z" />
        <path
           inkscape:connector-curvature="0"
           id="path859"
           style="font-style:normal;font-variant:normal;font-weight:normal;font-stretch:normal;font-size:113.33333588px;font-family:'Comic Sans MS';-inkscape-font-specification:'Comic Sans MS';fill:#ffffff"
           d="m 414.33529,461.77785 q 0,2.65625 -0.88542,8.85417 -0.88542,5.58919 -5.92122,5.58919 -3.04362,0 -7.24935,-3.98437 -22.52279,-21.30534 -51.6862,-61.48112 l -0.27669,12.56185 -0.16602,12.61718 q 0,4.5931 0.16602,13.7793 0.22135,9.1862 0.22135,13.83464 0,14.88606 -5.75521,14.88606 -3.04362,0 -4.81445,-1.93685 -1.60482,-1.71549 -1.60482,-4.09505 0,-2.32422 0.33203,-7.02799 0.38737,-4.70378 0.38737,-7.028 0,-3.43099 0.22136,-10.23763 0.22135,-6.86198 0.22135,-10.29297 0,-3.65234 -0.16601,-11.01237 -0.16602,-7.41536 -0.16602,-11.06771 0,-3.48632 -0.66406,-10.3483 -0.66407,-6.91732 -0.66407,-10.40365 0,-2.54557 2.15821,-4.64844 2.21354,-2.10286 4.98047,-2.10286 2.93294,0 7.24935,6.41927 13.77929,20.64128 24.79166,34.3099 13.11524,16.21419 28.77605,30.98958 0.16601,-2.37956 0,-7.02799 l -0.16602,-6.97266 q 0,-24.29362 -1.88151,-38.68164 -0.22136,-1.4388 -1.49414,-5.81055 -1.10677,-3.76302 -1.10677,-5.86588 0,-6.41928 5.86588,-6.41928 9.62891,0 9.62891,35.91472 0,6.14258 -0.16602,18.37239 -0.16601,12.17448 -0.16601,18.31706 z" />
      </g>
    </g>
  </g>
</svg>
