<?xml version="1.0" encoding="UTF-8" standalone="no"?>
<!-- Created with Inkscape (http://www.inkscape.org/) -->

<svg
   xmlns:dc="http://purl.org/dc/elements/1.1/"
   xmlns:cc="http://creativecommons.org/ns#"
   xmlns:rdf="http://www.w3.org/1999/02/22-rdf-syntax-ns#"
   xmlns:svg="http://www.w3.org/2000/svg"
   xmlns="http://www.w3.org/2000/svg"
   xmlns:sodipodi="http://sodipodi.sourceforge.net/DTD/sodipodi-0.dtd"
   xmlns:inkscape="http://www.inkscape.org/namespaces/inkscape"
   width="512"
   height="512"
   id="svg2"
   version="1.1"
   inkscape:version="0.92.2 5c3e80d, 2017-08-06"
   sodipodi:docname="application-rtf.svg">
  <defs
     id="defs4" />
  <sodipodi:namedview
     id="base"
     pagecolor="#ffffff"
     bordercolor="#666666"
     borderopacity="1.0"
     inkscape:pageopacity="0.0"
     inkscape:pageshadow="2"
     inkscape:zoom="0.60666664"
     inkscape:cx="373.94433"
     inkscape:cy="197.1944"
     inkscape:document-units="px"
     inkscape:current-layer="layer1"
     showgrid="false"
     inkscape:window-width="1366"
     inkscape:window-height="717"
     inkscape:window-x="0"
     inkscape:window-y="24"
     inkscape:window-maximized="1" />
  <metadata
     id="metadata7">
    <rdf:RDF>
      <cc:Work
         rdf:about="">
        <dc:format>image/svg+xml</dc:format>
        <dc:type
           rdf:resource="http://purl.org/dc/dcmitype/StillImage" />
        <dc:title></dc:title>
      </cc:Work>
    </rdf:RDF>
  </metadata>
  <g
     inkscape:label="Layer 1"
     inkscape:groupmode="layer"
     id="layer1"
     transform="translate(0,-540.36218)">
    <g
       id="g880">
      <path
         style="fill:#333333;fill-opacity:1;stroke-width:11.10955811"
         inkscape:connector-curvature="0"
         d="m 432.91326,596.83615 c 102.19291,88.57459 105.82678,249.69971 8.1168,359.89879 C 343.32009,1066.934 181.27965,1084.4628 79.086737,995.88819 -23.106205,907.31361 -26.740032,746.18849 70.969942,635.98941 168.67991,525.79033 330.72036,508.26156 432.91326,596.83615 Z"
         id="path961" />
      <path
         style="fill:#1a1a1a;fill-opacity:1;stroke:none;stroke-width:0.99999994px;stroke-linecap:butt;stroke-linejoin:miter;stroke-opacity:1"
         d="M 8.3652416,882.36219 C 19.949343,925.51392 43.551548,965.08856 79.085947,995.88759 181.27886,1084.4622 343.31934,1066.9343 441.02931,956.73524 461.38033,933.783 477.31886,908.61717 488.90235,882.36219 Z"
         id="path963"
         inkscape:connector-curvature="0"
         sodipodi:nodetypes="csscc" />
      <path
         style="opacity:0.1;stroke-width:11.10955811"
         inkscape:connector-curvature="0"
         d="M 511.6355,765.2657 C 510.08411,826.57734 486.47427,889.4203 440.66912,941.08017 342.95915,1051.2793 180.9187,1068.808 78.725759,980.23347 30.827126,938.71782 4.4968196,881.28502 0.19382665,820.59099 0.79908065,886.94766 27.117406,950.84436 79.078687,995.88129 181.2716,1084.4558 343.31975,1066.9184 441.02201,956.72795 490.72696,900.66984 514.02703,831.43698 511.6355,765.2657 Z"
         id="path965" />
      <path
         inkscape:connector-curvature="0"
         style="fill:#2e2e2e;fill-opacity:1;stroke-width:5.96706104"
         d="m 279.39851,607.37053 c -40.54988,-0.44739 -82.43884,17.13563 -112.77944,51.3543 -52.48108,59.18908 -50.53003,145.73036 4.35885,193.30473 54.88889,47.5743 141.92198,38.15912 194.40303,-21.02997 52.48105,-59.18909 50.53002,-145.73037 -4.35885,-193.3047 -23.15625,-20.07041 -52.03314,-29.99792 -81.62359,-30.32436 z m -57.24876,52.234 h 147.91887 a 4.9974815,4.9974815 0 1 1 0,9.99336 H 222.14975 a 4.9974815,4.9974815 0 1 1 0,-9.99336 z m -47.59454,26.44236 h 195.51341 a 4.9974819,4.9974819 0 1 1 0,9.99337 H 174.55521 a 4.9974819,4.9974819 0 1 1 0,-9.99337 z m 0,26.44237 h 195.51341 a 4.9974819,4.9974819 0 1 1 0,9.99336 H 174.55521 a 4.9974819,4.9974819 0 1 1 0,-9.99336 z m 0,26.44236 h 195.51341 a 4.9974819,4.9974819 0 1 1 0,9.99337 H 174.55521 a 4.9974819,4.9974819 0 1 1 0,-9.99337 z m 0,26.44237 h 195.51341 a 4.9974819,4.9974819 0 1 1 0,9.99336 H 174.55521 a 4.9974819,4.9974819 0 1 1 0,-9.99336 z m 0,26.44236 h 195.51341 a 4.9974822,4.9974822 0 1 1 0,9.99337 H 174.55521 a 4.9974822,4.9974822 0 1 1 0,-9.99337 z m 0,26.44237 h 121.47651 a 4.9974822,4.9974822 0 1 1 0,9.99336 H 174.55521 a 4.9974822,4.9974822 0 1 1 0,-9.99336 z"
         id="path842" />
      <path
         id="path833"
         d="m 269.39851,597.37053 c -40.54988,-0.44739 -82.43884,17.13563 -112.77944,51.3543 -52.48108,59.18908 -50.53003,145.73036 4.35885,193.30473 54.88889,47.5743 141.92198,38.15912 194.40303,-21.02997 52.48105,-59.18909 50.53002,-145.73037 -4.35885,-193.3047 -23.15625,-20.07041 -52.03314,-29.99792 -81.62359,-30.32436 z m -57.24876,52.234 h 147.91887 a 4.9974815,4.9974815 0 1 1 0,9.99336 H 212.14975 a 4.9974815,4.9974815 0 1 1 0,-9.99336 z m -47.59454,26.44236 h 195.51341 a 4.9974819,4.9974819 0 1 1 0,9.99337 H 164.55521 a 4.9974819,4.9974819 0 1 1 0,-9.99337 z m 0,26.44237 h 195.51341 a 4.9974819,4.9974819 0 1 1 0,9.99336 H 164.55521 a 4.9974819,4.9974819 0 1 1 0,-9.99336 z m 0,26.44236 h 195.51341 a 4.9974819,4.9974819 0 1 1 0,9.99337 H 164.55521 a 4.9974819,4.9974819 0 1 1 0,-9.99337 z m 0,26.44237 h 195.51341 a 4.9974819,4.9974819 0 1 1 0,9.99336 H 164.55521 a 4.9974819,4.9974819 0 1 1 0,-9.99336 z m 0,26.44236 h 195.51341 a 4.9974822,4.9974822 0 1 1 0,9.99337 H 164.55521 a 4.9974822,4.9974822 0 1 1 0,-9.99337 z m 0,26.44237 h 121.47651 a 4.9974822,4.9974822 0 1 1 0,9.99336 H 164.55521 a 4.9974822,4.9974822 0 1 1 0,-9.99336 z"
         style="fill:#ffffff;fill-opacity:1;stroke-width:5.96706104"
         inkscape:connector-curvature="0" />
      <g
         aria-label="RTV"
         transform="translate(31.69531,528.76271)"
         style="font-style:normal;font-weight:normal;font-size:40px;line-height:1.25;font-family:sans-serif;letter-spacing:0px;word-spacing:0px;fill:#171717;fill-opacity:1;stroke:none"
         id="g865">
        <path
           d="m 182.64128,464.78111 q -2.10287,0 -3.92904,-1.77084 -18.31706,-18.0957 -40.72917,-24.34895 l 0.44271,10.84635 0.27669,10.90169 q 0,2.4349 -1.60481,4.03972 -1.54948,1.66015 -3.92904,1.66015 -2.37956,0 -3.98438,-1.66015 -1.54947,-1.60482 -1.54947,-4.03972 0,-4.37174 -0.44271,-13.00455 -0.38737,-8.68816 -0.38737,-13.0599 0,-5.09115 1.10677,-15.16276 1.10677,-10.07162 1.10677,-15.10742 0,-2.82227 -0.55339,-8.35612 -0.49804,-5.53386 -0.49804,-8.35612 0,-3.1543 1.77083,-5.53386 2.10287,-2.93294 5.81055,-2.65625 l 13.33659,1.05143 q 7.58138,0.94076 12.7832,3.70769 22.41211,11.89778 22.41211,29.05273 0,8.41146 -7.63672,14.88607 -6.14258,5.20182 -15.32878,7.91341 17.21029,9.24154 25.73243,19.47917 1.4388,1.77083 1.4388,3.76302 0,2.32422 -1.7155,4.03971 -1.66015,1.7155 -3.92903,1.7155 z m -35.25065,-73.15756 -8.19011,-0.66406 0.55339,6.69597 q 0.38737,4.09505 0.38737,6.69596 0,4.42708 -0.7194,11.01237 l -1.16211,11.01237 q 0.77474,0 2.37955,0.0553 1.66016,0.0553 2.49024,0.0553 14.11133,0 21.13932,-3.76302 3.09896,-1.7155 5.75521,-4.48243 2.93294,-3.09895 2.93294,-5.25716 0,-7.69206 -8.74349,-14.33268 -8.02409,-6.08724 -16.82291,-7.028 z"
           style="font-style:normal;font-variant:normal;font-weight:normal;font-stretch:normal;font-size:113.33333588px;font-family:'Comic Sans MS';-inkscape-font-specification:'Comic Sans MS';fill:#171717;fill-opacity:1"
           id="path859"
           inkscape:connector-curvature="0" />
        <path
           d="m 266.97722,394.2798 q -4.09505,0 -12.61719,-0.66406 -8.30078,-0.60872 -12.61719,-0.55338 h -3.92903 q 0.16601,7.63672 1.49414,24.79166 1.21745,15.99284 1.21745,24.84701 0,1.93685 0.38737,5.86588 0.38737,3.92904 0.38737,5.92123 0,3.76302 -1.21745,6.47461 -1.54948,3.65234 -4.81445,3.65234 -2.21355,0 -3.98438,-1.54948 -1.77083,-1.54948 -1.77083,-3.98437 0,-0.83008 0.27669,-2.49024 0.27669,-1.66015 0.27669,-2.49023 0,-2.71159 -0.38737,-8.13477 -0.33203,-5.42317 -0.33203,-8.1901 0,-7.91341 -1.27279,-22.2461 -1.32812,-15.49479 -1.49414,-22.24609 l -5.0358,0.0553 q -12.11914,0 -19.03646,-1.77083 -4.48242,-1.16211 -4.48242,-5.47852 0,-2.26888 1.4388,-3.98438 1.66015,-1.93684 4.26107,-1.77083 1.93684,0.11068 8.85416,0.9961 5.53386,0.66406 8.96485,0.66406 3.32031,0 10.07161,-0.11068 6.7513,-0.16601 10.07162,-0.16601 4.26106,0 12.61718,0.60872 8.41146,0.60872 12.67253,0.60872 2.37956,0 3.98438,1.66016 1.60481,1.60482 1.60481,4.03971 0,2.37956 -1.60481,4.03972 -1.60482,1.60481 -3.98438,1.60481 z"
           style="font-style:normal;font-variant:normal;font-weight:normal;font-stretch:normal;font-size:113.33333588px;font-family:'Comic Sans MS';-inkscape-font-specification:'Comic Sans MS';fill:#171717;fill-opacity:1"
           id="path861"
           inkscape:connector-curvature="0" />
        <path
           d="m 340.90951,388.30324 q -3.43099,5.14649 -5.58919,10.79102 l -4.20573,12.11914 -14.88607,40.23112 q -2.60091,7.08333 -6.08724,13.83463 -1.77083,3.32032 -4.98047,3.32032 -4.26106,0 -5.97656,-4.31641 -6.69596,-16.82292 -14.88607,-48.42122 l -4.37174,-15.2181 q -3.26498,-11.51042 -3.26498,-15.05209 0,-2.49023 1.77084,-4.09505 1.60481,-1.49414 3.87369,-1.49414 4.20573,0 5.42318,4.53776 l 2.04753,9.62891 5.3125,18.8151 q 5.3125,20.58594 10.34831,35.47201 l 0.33203,-0.88542 14.83073,-40.17578 4.70377,-13.55794 q 3.1543,-8.19011 6.69597,-12.39584 1.82617,-2.21354 4.3164,-2.21354 2.21354,0 3.92904,1.7155 1.77083,1.66015 1.77083,4.03971 0,1.66016 -1.10677,3.32031 z"
           style="font-style:normal;font-variant:normal;font-weight:normal;font-stretch:normal;font-size:113.33333588px;font-family:'Comic Sans MS';-inkscape-font-specification:'Comic Sans MS';fill:#171717;fill-opacity:1"
           id="path863"
           inkscape:connector-curvature="0" />
      </g>
      <g
         id="flowRoot844"
         style="font-style:normal;font-weight:normal;font-size:40px;line-height:1.25;font-family:sans-serif;letter-spacing:0px;word-spacing:0px;fill:#000000;fill-opacity:1;stroke:none"
         transform="translate(21.69531,518.76271)"
         aria-label="RTV">
        <path
           inkscape:connector-curvature="0"
           id="path852"
           style="font-style:normal;font-variant:normal;font-weight:normal;font-stretch:normal;font-size:113.33333588px;font-family:'Comic Sans MS';-inkscape-font-specification:'Comic Sans MS';fill:#ffffff"
           d="m 182.64128,464.78111 q -2.10287,0 -3.92904,-1.77084 -18.31706,-18.0957 -40.72917,-24.34895 l 0.44271,10.84635 0.27669,10.90169 q 0,2.4349 -1.60481,4.03972 -1.54948,1.66015 -3.92904,1.66015 -2.37956,0 -3.98438,-1.66015 -1.54947,-1.60482 -1.54947,-4.03972 0,-4.37174 -0.44271,-13.00455 -0.38737,-8.68816 -0.38737,-13.0599 0,-5.09115 1.10677,-15.16276 1.10677,-10.07162 1.10677,-15.10742 0,-2.82227 -0.55339,-8.35612 -0.49804,-5.53386 -0.49804,-8.35612 0,-3.1543 1.77083,-5.53386 2.10287,-2.93294 5.81055,-2.65625 l 13.33659,1.05143 q 7.58138,0.94076 12.7832,3.70769 22.41211,11.89778 22.41211,29.05273 0,8.41146 -7.63672,14.88607 -6.14258,5.20182 -15.32878,7.91341 17.21029,9.24154 25.73243,19.47917 1.4388,1.77083 1.4388,3.76302 0,2.32422 -1.7155,4.03971 -1.66015,1.7155 -3.92903,1.7155 z m -35.25065,-73.15756 -8.19011,-0.66406 0.55339,6.69597 q 0.38737,4.09505 0.38737,6.69596 0,4.42708 -0.7194,11.01237 l -1.16211,11.01237 q 0.77474,0 2.37955,0.0553 1.66016,0.0553 2.49024,0.0553 14.11133,0 21.13932,-3.76302 3.09896,-1.7155 5.75521,-4.48243 2.93294,-3.09895 2.93294,-5.25716 0,-7.69206 -8.74349,-14.33268 -8.02409,-6.08724 -16.82291,-7.028 z" />
        <path
           inkscape:connector-curvature="0"
           id="path854"
           style="font-style:normal;font-variant:normal;font-weight:normal;font-stretch:normal;font-size:113.33333588px;font-family:'Comic Sans MS';-inkscape-font-specification:'Comic Sans MS';fill:#ffffff"
           d="m 266.97722,394.2798 q -4.09505,0 -12.61719,-0.66406 -8.30078,-0.60872 -12.61719,-0.55338 h -3.92903 q 0.16601,7.63672 1.49414,24.79166 1.21745,15.99284 1.21745,24.84701 0,1.93685 0.38737,5.86588 0.38737,3.92904 0.38737,5.92123 0,3.76302 -1.21745,6.47461 -1.54948,3.65234 -4.81445,3.65234 -2.21355,0 -3.98438,-1.54948 -1.77083,-1.54948 -1.77083,-3.98437 0,-0.83008 0.27669,-2.49024 0.27669,-1.66015 0.27669,-2.49023 0,-2.71159 -0.38737,-8.13477 -0.33203,-5.42317 -0.33203,-8.1901 0,-7.91341 -1.27279,-22.2461 -1.32812,-15.49479 -1.49414,-22.24609 l -5.0358,0.0553 q -12.11914,0 -19.03646,-1.77083 -4.48242,-1.16211 -4.48242,-5.47852 0,-2.26888 1.4388,-3.98438 1.66015,-1.93684 4.26107,-1.77083 1.93684,0.11068 8.85416,0.9961 5.53386,0.66406 8.96485,0.66406 3.32031,0 10.07161,-0.11068 6.7513,-0.16601 10.07162,-0.16601 4.26106,0 12.61718,0.60872 8.41146,0.60872 12.67253,0.60872 2.37956,0 3.98438,1.66016 1.60481,1.60482 1.60481,4.03971 0,2.37956 -1.60481,4.03972 -1.60482,1.60481 -3.98438,1.60481 z" />
        <path
           inkscape:connector-curvature="0"
           id="path856"
           style="font-style:normal;font-variant:normal;font-weight:normal;font-stretch:normal;font-size:113.33333588px;font-family:'Comic Sans MS';-inkscape-font-specification:'Comic Sans MS';fill:#ffffff"
           d="m 340.90951,388.30324 q -3.43099,5.14649 -5.58919,10.79102 l -4.20573,12.11914 -14.88607,40.23112 q -2.60091,7.08333 -6.08724,13.83463 -1.77083,3.32032 -4.98047,3.32032 -4.26106,0 -5.97656,-4.31641 -6.69596,-16.82292 -14.88607,-48.42122 l -4.37174,-15.2181 q -3.26498,-11.51042 -3.26498,-15.05209 0,-2.49023 1.77084,-4.09505 1.60481,-1.49414 3.87369,-1.49414 4.20573,0 5.42318,4.53776 l 2.04753,9.62891 5.3125,18.8151 q 5.3125,20.58594 10.34831,35.47201 l 0.33203,-0.88542 14.83073,-40.17578 4.70377,-13.55794 q 3.1543,-8.19011 6.69597,-12.39584 1.82617,-2.21354 4.3164,-2.21354 2.21354,0 3.92904,1.7155 1.77083,1.66015 1.77083,4.03971 0,1.66016 -1.10677,3.32031 z" />
      </g>
    </g>
  </g>
</svg>
