<?xml version="1.0" encoding="UTF-8" standalone="no"?>
<!-- Created with Inkscape (http://www.inkscape.org/) -->

<svg
   xmlns:dc="http://purl.org/dc/elements/1.1/"
   xmlns:cc="http://creativecommons.org/ns#"
   xmlns:rdf="http://www.w3.org/1999/02/22-rdf-syntax-ns#"
   xmlns:svg="http://www.w3.org/2000/svg"
   xmlns="http://www.w3.org/2000/svg"
   xmlns:sodipodi="http://sodipodi.sourceforge.net/DTD/sodipodi-0.dtd"
   xmlns:inkscape="http://www.inkscape.org/namespaces/inkscape"
   width="512"
   height="512"
   id="svg2"
   version="1.1"
   inkscape:version="0.92.2 5c3e80d, 2017-08-06"
   sodipodi:docname="application-vnd.sun.xml.impress.svg">
  <defs
     id="defs4" />
  <sodipodi:namedview
     id="base"
     pagecolor="#ffffff"
     bordercolor="#666666"
     borderopacity="1.0"
     inkscape:pageopacity="0.0"
     inkscape:pageshadow="2"
     inkscape:zoom="0.30333332"
     inkscape:cx="406.00056"
     inkscape:cy="109.67779"
     inkscape:document-units="px"
     inkscape:current-layer="layer1"
     showgrid="false"
     inkscape:window-width="1366"
     inkscape:window-height="717"
     inkscape:window-x="0"
     inkscape:window-y="24"
     inkscape:window-maximized="1" />
  <metadata
     id="metadata7">
    <rdf:RDF>
      <cc:Work
         rdf:about="">
        <dc:format>image/svg+xml</dc:format>
        <dc:type
           rdf:resource="http://purl.org/dc/dcmitype/StillImage" />
        <dc:title></dc:title>
      </cc:Work>
    </rdf:RDF>
  </metadata>
  <g
     inkscape:label="Layer 1"
     inkscape:groupmode="layer"
     id="layer1"
     transform="translate(0,-540.36218)">
    <g
       id="g948">
      <path
         id="path931"
         d="M 432.91326,596.83617 C 535.10617,685.41076 538.74004,846.53588 441.03006,956.735 343.32009,1066.934 181.27965,1084.4628 79.086741,995.8882 -23.106205,907.31363 -26.740032,746.18851 70.969941,635.98943 168.67991,525.79035 330.72036,508.26158 432.91326,596.83617 Z"
         inkscape:connector-curvature="0"
         style="fill:#f37329;fill-opacity:1;stroke-width:11.10955811" />
      <path
         sodipodi:nodetypes="csscc"
         inkscape:connector-curvature="0"
         id="path933"
         d="M 8.3652408,882.36221 C 19.949342,925.51394 43.551547,965.0886 79.085947,995.8876 c 102.192913,88.5746 264.233393,71.0467 361.943363,-39.1523 20.35102,-22.95228 36.28955,-48.11811 47.87304,-74.37309 z"
         style="fill:#cc3b02;fill-opacity:1;stroke:none;stroke-width:0.99999994px;stroke-linecap:butt;stroke-linejoin:miter;stroke-opacity:1" />
      <path
         id="path935"
         d="M 511.6355,765.26572 C 510.08411,826.57736 486.47427,889.42032 440.66912,941.0802 342.95915,1051.2793 180.9187,1068.808 78.725758,980.2335 30.827125,938.71784 4.4968188,881.28504 0.19382586,820.59101 0.79907986,886.94768 27.117405,950.8444 79.07869,995.8813 c 102.19291,88.5745 264.24106,71.0371 361.94332,-39.1533 49.70495,-56.05814 73.00502,-125.291 70.61349,-191.46228 z"
         inkscape:connector-curvature="0"
         style="opacity:0.1;stroke-width:11.10955811" />
      <g
         transform="translate(9.9999999,9.9999961)"
         style="fill:#db6825;fill-opacity:1"
         id="g890">
        <path
           sodipodi:nodetypes="ccccsccscsscccccccccccccccccccccccc"
           inkscape:connector-curvature="0"
           id="path884"
           d="m 169.80093,871.82472 c -25.73207,-2.4948 -47.04867,-22.8181 -50.88028,-48.5094 -0.22452,-1.5055 -0.41111,-42.25665 -0.41465,-90.55818 l -0.006,-87.82095 1.30585,-4.74017 c 3.0651,-11.12616 7.82682,-19.4983 15.30101,-26.90251 6.43805,-6.37775 13.54885,-10.76843 22.23146,-13.72717 8.28134,-2.82201 5.44519,-2.74329 98.83482,-2.74329 h 87.82098 l 4.63741,1.29908 c 16.27752,4.55982 27.25721,12.90498 35.89622,27.28308 2.97475,4.95094 6.03871,13.82464 6.94391,20.11066 0.13774,0.95647 0.27188,26.0637 0.29809,55.79385 l -0.14418,129.1229 c -2.14093,6.9318 -3.84492,10.5616 -7.62455,16.2421 -9.63889,14.4863 -24.7657,23.4836 -42.35788,25.1941 -7.0432,0.6847 -164.7414,0.6443 -171.84178,-0.044 z m 159.3535,-25.4821 c 19.546,-3.1715 35.69326,-19.3187 38.86471,-38.86473 0.38156,-2.35157 0.60364,-21.43672 0.60642,-52.11476 l 0.005,-48.40443 -43.64035,-43.63748 -43.64034,-43.63748 -50.99183,0.16368 -50.99183,0.16368 -4.05773,1.37032 c -16.24568,5.48624 -27.24754,16.58964 -32.26247,32.56018 l -1.35876,4.32715 v 75.06806 75.0681 l 1.35876,4.32717 c 5.48127,17.45564 19.39241,30.20454 36.65363,33.59104 3.79454,0.7445 144.87386,0.7629 149.45541,0.02 z"
           style="fill:#db6825;fill-opacity:1;stroke-width:0.57967639" />
        <g
           id="g888"
           style="font-style:normal;font-weight:normal;font-size:40px;line-height:1.25;font-family:sans-serif;letter-spacing:0px;word-spacing:0px;fill:#db6825;fill-opacity:1;stroke:none"
           transform="translate(41.174808,321.64998)"
           aria-label="P">
          <path
             inkscape:connector-curvature="0"
             id="path886"
             style="font-style:normal;font-variant:normal;font-weight:normal;font-stretch:normal;font-size:173.33332825px;font-family:'Comic Sans MS';-inkscape-font-specification:'Comic Sans MS';fill:#db6825;fill-opacity:1"
             d="m 204.75521,430.48212 q -2.36979,0 -10.32552,-1.10026 -0.67709,12.77995 -0.67709,44.77214 0,3.38541 -2.20052,5.7552 -2.20052,2.28516 -5.5013,2.28516 -3.38542,0 -5.58594,-2.28516 -2.20052,-2.36979 -2.20052,-5.7552 v -24.88282 q 0,-12.4414 1.52344,-35.03906 1.69271,-24.45963 1.86198,-35.03906 v -11.67969 q 0,-8.3789 1.01562,-12.1875 1.94662,-7.44791 8.29427,-6.43229 2.70834,-0.84635 7.70183,-1.26953 4.99349,-0.42318 12.27213,-0.42318 15.48828,0 29.02995,10.57943 14.89583,11.67969 14.89583,28.09896 0,20.98958 -15.91146,33.43099 -14.21874,11.17187 -34.1927,11.17187 z m 4.23177,-67.20052 q -3.72396,0 -6.6862,0.16927 -2.8776,0.16927 -4.90885,0.50782 l -0.16927,15.57291 -1.77735,33.6849 9.3099,1.10026 q 14.21875,0 23.95182,-7.19401 10.66406,-7.8711 10.66406,-21.24349 0,-9.47917 -10.15625,-16.33464 -9.39453,-6.26302 -20.22786,-6.26302 z" />
        </g>
      </g>
      <g
         transform="translate(-7.3296832e-8,-2.802444e-6)"
         id="g882">
        <path
           style="fill:#ffffff;stroke-width:0.57967639"
           d="m 169.80093,871.82472 c -25.73207,-2.4948 -47.04867,-22.8181 -50.88028,-48.5094 -0.22452,-1.5055 -0.41111,-42.25665 -0.41465,-90.55818 l -0.006,-87.82095 1.30585,-4.74017 c 3.0651,-11.12616 7.82682,-19.4983 15.30101,-26.90251 6.43805,-6.37775 13.54885,-10.76843 22.23146,-13.72717 8.28134,-2.82201 5.44519,-2.74329 98.83482,-2.74329 h 87.82098 l 4.63741,1.29908 c 16.27752,4.55982 27.25721,12.90498 35.89622,27.28308 2.97475,4.95094 6.03871,13.82464 6.94391,20.11066 0.13774,0.95647 0.27188,26.0637 0.29809,55.79385 l -0.14418,129.1229 c -2.14093,6.9318 -3.84492,10.5616 -7.62455,16.2421 -9.63889,14.4863 -24.7657,23.4836 -42.35788,25.1941 -7.0432,0.6847 -164.7414,0.6443 -171.84178,-0.044 z m 159.3535,-25.4821 c 19.546,-3.1715 35.69326,-19.3187 38.86471,-38.86473 0.38156,-2.35157 0.60364,-21.43672 0.60642,-52.11476 l 0.005,-48.40443 -43.64035,-43.63748 -43.64034,-43.63748 -50.99183,0.16368 -50.99183,0.16368 -4.05773,1.37032 c -16.24568,5.48624 -27.24754,16.58964 -32.26247,32.56018 l -1.35876,4.32715 v 75.06806 75.0681 l 1.35876,4.32717 c 5.48127,17.45564 19.39241,30.20454 36.65363,33.59104 3.79454,0.7445 144.87386,0.7629 149.45541,0.02 z"
           id="path910"
           inkscape:connector-curvature="0"
           sodipodi:nodetypes="ccccsccscsscccccccccccccccccccccccc" />
        <g
           aria-label="P"
           transform="translate(41.174808,321.64998)"
           style="font-style:normal;font-weight:normal;font-size:40px;line-height:1.25;font-family:sans-serif;letter-spacing:0px;word-spacing:0px;fill:#ffffff;fill-opacity:1;stroke:none"
           id="flowRoot868">
          <path
             d="m 204.75521,430.48212 q -2.36979,0 -10.32552,-1.10026 -0.67709,12.77995 -0.67709,44.77214 0,3.38541 -2.20052,5.7552 -2.20052,2.28516 -5.5013,2.28516 -3.38542,0 -5.58594,-2.28516 -2.20052,-2.36979 -2.20052,-5.7552 v -24.88282 q 0,-12.4414 1.52344,-35.03906 1.69271,-24.45963 1.86198,-35.03906 v -11.67969 q 0,-8.3789 1.01562,-12.1875 1.94662,-7.44791 8.29427,-6.43229 2.70834,-0.84635 7.70183,-1.26953 4.99349,-0.42318 12.27213,-0.42318 15.48828,0 29.02995,10.57943 14.89583,11.67969 14.89583,28.09896 0,20.98958 -15.91146,33.43099 -14.21874,11.17187 -34.1927,11.17187 z m 4.23177,-67.20052 q -3.72396,0 -6.6862,0.16927 -2.8776,0.16927 -4.90885,0.50782 l -0.16927,15.57291 -1.77735,33.6849 9.3099,1.10026 q 14.21875,0 23.95182,-7.19401 10.66406,-7.8711 10.66406,-21.24349 0,-9.47917 -10.15625,-16.33464 -9.39453,-6.26302 -20.22786,-6.26302 z"
             style="font-style:normal;font-variant:normal;font-weight:normal;font-stretch:normal;font-size:173.33332825px;font-family:'Comic Sans MS';-inkscape-font-specification:'Comic Sans MS';fill:#ffffff"
             id="path876"
             inkscape:connector-curvature="0" />
        </g>
      </g>
      <g
         aria-label="SXI"
         transform="translate(18.547412,530.348)"
         style="font-style:normal;font-weight:normal;font-size:40px;line-height:1.25;font-family:sans-serif;letter-spacing:0px;word-spacing:0px;fill:#b83502;fill-opacity:1;stroke:none"
         id="g927">
        <path
           d="m 141.45443,448.58645 q -0.0553,-2.32422 1.54948,-3.76302 1.66015,-1.49415 4.03971,-1.49415 2.71159,0 4.75911,3.09896 2.82227,4.20573 5.03581,5.69987 4.70378,3.09896 13.66862,3.09896 8.57748,0 15.9375,-3.70768 9.40755,-4.75912 9.40755,-13.22591 0,-6.97266 -7.91341,-11.01237 -6.69596,-3.48633 -16.54622,-3.76302 -8.74349,-0.33203 -14.88607,-3.81836 -7.85807,-4.48243 -7.85807,-12.83855 0,-9.85026 11.17838,-17.98502 10.68034,-7.69206 22.08008,-7.69206 5.36784,0 12.11914,1.82617 8.96485,2.37956 8.96485,6.08724 0,4.86979 -4.98047,4.86979 -2.21354,0 -7.7474,-1.16211 -5.53385,-1.21744 -8.57747,-1.1621 -8.63281,0.11067 -14.66472,4.26106 -6.19791,4.26107 -6.19791,10.34831 0,4.5931 8.1901,6.47461 3.04362,0.7194 11.78711,1.32813 12.67253,0.94075 19.8112,7.96875 6.52995,6.41927 6.52995,15.6608 0,13.17058 -12.17448,21.02865 -10.56966,6.80664 -24.51498,6.80664 -10.12695,0 -18.53841,-3.8737 -10.29297,-4.75911 -10.45898,-13.05989 z"
           style="font-style:normal;font-variant:normal;font-weight:normal;font-stretch:normal;font-size:113.33333588px;font-family:'Comic Sans MS';-inkscape-font-specification:'Comic Sans MS';fill:#b83502;fill-opacity:1"
           id="path921"
           inkscape:connector-curvature="0" />
        <path
           d="m 288.93165,387.71405 q -7.41537,8.96484 -11.39974,14.77539 l -6.91732,10.18229 q -4.03971,5.75521 -7.58138,9.68425 l 12.17448,17.81901 q 7.24935,10.56966 12.89388,17.26562 1.49414,1.82618 1.49414,3.81836 0,2.32422 -1.71549,4.03972 -1.66016,1.71549 -3.98438,1.71549 -2.10286,0 -3.92904,-1.71549 -4.09505,-3.8737 -8.52213,-10.51433 l -7.41537,-11.39974 -8.68815,-12.45117 -19.03646,22.02474 -10.18229,11.39974 q -1.82617,1.82617 -4.03971,1.82617 -2.26888,0 -3.98438,-1.71549 -1.71549,-1.7155 -1.71549,-4.03972 0,-1.99218 1.4388,-3.76302 l 9.96094,-11.12304 20.75195,-24.07227 q -6.08724,-8.13477 -12.94922,-16.32487 l -6.41927,-8.68815 q -3.8737,-5.20182 -7.19401,-7.96875 -2.32422,-1.93685 -2.32422,-4.48242 0,-2.26888 1.60482,-4.03972 1.60482,-1.77083 3.98437,-1.77083 4.70378,0 12.00847,10.01628 2.26888,3.37565 6.91732,9.57356 6.30859,7.52605 12.00846,15.10743 l 12.61719,-17.59766 q 12.28515,-17.09961 15.9375,-17.09961 2.26888,0 3.98437,1.71549 1.7155,1.7155 1.7155,4.03972 0,1.93685 -1.49414,3.76302 z"
           style="font-style:normal;font-variant:normal;font-weight:normal;font-stretch:normal;font-size:113.33333588px;font-family:'Comic Sans MS';-inkscape-font-specification:'Comic Sans MS';fill:#b83502;fill-opacity:1"
           id="path923"
           inkscape:connector-curvature="0" />
        <path
           d="m 347.70117,393.41392 q -3.54166,0 -8.9095,-0.7194 l -8.90951,-1.16211 q -1.27278,16.10351 -1.27278,30.76823 0,3.8737 0.22135,9.57357 0.22135,5.69987 0.22135,9.57356 0,5.20183 -0.38737,9.4629 l 17.43165,-0.22136 q 2.32421,0 3.87369,1.66016 1.60482,1.60481 1.60482,3.98437 0,2.4349 -1.60482,4.09505 -1.54948,1.60482 -3.87369,1.60482 -3.09896,0 -9.29688,0.16602 -6.19792,0.11067 -9.29688,0.11067 -3.65234,0 -10.95703,0.9961 -7.24935,1.05143 -10.95703,1.05143 -2.32422,0 -3.92903,-1.66016 -1.54948,-1.60481 -1.54948,-3.98437 0,-2.37956 1.54948,-4.03971 1.60481,-1.66016 3.92903,-1.66016 3.59701,0 11.89779,-1.16211 0.55338,-4.48242 0.55338,-10.23763 0,-3.81836 -0.38737,-9.29688 -0.33203,-5.53385 -0.33203,-9.29687 0,-12.7832 1.54948,-31.93034 l -7.19401,0.22135 -7.19401,0.16602 q -2.37956,0 -3.98437,-1.60482 -1.60482,-1.60482 -1.60482,-4.09505 0,-5.14648 5.20182,-5.64453 4.48242,-0.44271 16.76758,-0.44271 11.01237,0 27.61393,2.37956 4.92513,0.7194 4.92513,5.92122 0,2.60091 -1.88151,4.15039 -1.66015,1.27279 -3.81836,1.27279 z"
           style="font-style:normal;font-variant:normal;font-weight:normal;font-stretch:normal;font-size:113.33333588px;font-family:'Comic Sans MS';-inkscape-font-specification:'Comic Sans MS';fill:#b83502;fill-opacity:1"
           id="path925"
           inkscape:connector-curvature="0" />
      </g>
      <g
         id="flowRoot906"
         style="font-style:normal;font-weight:normal;font-size:40px;line-height:1.25;font-family:sans-serif;letter-spacing:0px;word-spacing:0px;fill:#ffffff;fill-opacity:1;stroke:none"
         transform="translate(8.5474121,520.348)"
         aria-label="SXI">
        <path
           inkscape:connector-curvature="0"
           id="path914"
           style="font-style:normal;font-variant:normal;font-weight:normal;font-stretch:normal;font-size:113.33333588px;font-family:'Comic Sans MS';-inkscape-font-specification:'Comic Sans MS';fill:#ffffff"
           d="m 141.45443,448.58645 q -0.0553,-2.32422 1.54948,-3.76302 1.66015,-1.49415 4.03971,-1.49415 2.71159,0 4.75911,3.09896 2.82227,4.20573 5.03581,5.69987 4.70378,3.09896 13.66862,3.09896 8.57748,0 15.9375,-3.70768 9.40755,-4.75912 9.40755,-13.22591 0,-6.97266 -7.91341,-11.01237 -6.69596,-3.48633 -16.54622,-3.76302 -8.74349,-0.33203 -14.88607,-3.81836 -7.85807,-4.48243 -7.85807,-12.83855 0,-9.85026 11.17838,-17.98502 10.68034,-7.69206 22.08008,-7.69206 5.36784,0 12.11914,1.82617 8.96485,2.37956 8.96485,6.08724 0,4.86979 -4.98047,4.86979 -2.21354,0 -7.7474,-1.16211 -5.53385,-1.21744 -8.57747,-1.1621 -8.63281,0.11067 -14.66472,4.26106 -6.19791,4.26107 -6.19791,10.34831 0,4.5931 8.1901,6.47461 3.04362,0.7194 11.78711,1.32813 12.67253,0.94075 19.8112,7.96875 6.52995,6.41927 6.52995,15.6608 0,13.17058 -12.17448,21.02865 -10.56966,6.80664 -24.51498,6.80664 -10.12695,0 -18.53841,-3.8737 -10.29297,-4.75911 -10.45898,-13.05989 z" />
        <path
           inkscape:connector-curvature="0"
           id="path916"
           style="font-style:normal;font-variant:normal;font-weight:normal;font-stretch:normal;font-size:113.33333588px;font-family:'Comic Sans MS';-inkscape-font-specification:'Comic Sans MS';fill:#ffffff"
           d="m 288.93165,387.71405 q -7.41537,8.96484 -11.39974,14.77539 l -6.91732,10.18229 q -4.03971,5.75521 -7.58138,9.68425 l 12.17448,17.81901 q 7.24935,10.56966 12.89388,17.26562 1.49414,1.82618 1.49414,3.81836 0,2.32422 -1.71549,4.03972 -1.66016,1.71549 -3.98438,1.71549 -2.10286,0 -3.92904,-1.71549 -4.09505,-3.8737 -8.52213,-10.51433 l -7.41537,-11.39974 -8.68815,-12.45117 -19.03646,22.02474 -10.18229,11.39974 q -1.82617,1.82617 -4.03971,1.82617 -2.26888,0 -3.98438,-1.71549 -1.71549,-1.7155 -1.71549,-4.03972 0,-1.99218 1.4388,-3.76302 l 9.96094,-11.12304 20.75195,-24.07227 q -6.08724,-8.13477 -12.94922,-16.32487 l -6.41927,-8.68815 q -3.8737,-5.20182 -7.19401,-7.96875 -2.32422,-1.93685 -2.32422,-4.48242 0,-2.26888 1.60482,-4.03972 1.60482,-1.77083 3.98437,-1.77083 4.70378,0 12.00847,10.01628 2.26888,3.37565 6.91732,9.57356 6.30859,7.52605 12.00846,15.10743 l 12.61719,-17.59766 q 12.28515,-17.09961 15.9375,-17.09961 2.26888,0 3.98437,1.71549 1.7155,1.7155 1.7155,4.03972 0,1.93685 -1.49414,3.76302 z" />
        <path
           inkscape:connector-curvature="0"
           id="path918"
           style="font-style:normal;font-variant:normal;font-weight:normal;font-stretch:normal;font-size:113.33333588px;font-family:'Comic Sans MS';-inkscape-font-specification:'Comic Sans MS';fill:#ffffff"
           d="m 347.70117,393.41392 q -3.54166,0 -8.9095,-0.7194 l -8.90951,-1.16211 q -1.27278,16.10351 -1.27278,30.76823 0,3.8737 0.22135,9.57357 0.22135,5.69987 0.22135,9.57356 0,5.20183 -0.38737,9.4629 l 17.43165,-0.22136 q 2.32421,0 3.87369,1.66016 1.60482,1.60481 1.60482,3.98437 0,2.4349 -1.60482,4.09505 -1.54948,1.60482 -3.87369,1.60482 -3.09896,0 -9.29688,0.16602 -6.19792,0.11067 -9.29688,0.11067 -3.65234,0 -10.95703,0.9961 -7.24935,1.05143 -10.95703,1.05143 -2.32422,0 -3.92903,-1.66016 -1.54948,-1.60481 -1.54948,-3.98437 0,-2.37956 1.54948,-4.03971 1.60481,-1.66016 3.92903,-1.66016 3.59701,0 11.89779,-1.16211 0.55338,-4.48242 0.55338,-10.23763 0,-3.81836 -0.38737,-9.29688 -0.33203,-5.53385 -0.33203,-9.29687 0,-12.7832 1.54948,-31.93034 l -7.19401,0.22135 -7.19401,0.16602 q -2.37956,0 -3.98437,-1.60482 -1.60482,-1.60482 -1.60482,-4.09505 0,-5.14648 5.20182,-5.64453 4.48242,-0.44271 16.76758,-0.44271 11.01237,0 27.61393,2.37956 4.92513,0.7194 4.92513,5.92122 0,2.60091 -1.88151,4.15039 -1.66015,1.27279 -3.81836,1.27279 z" />
      </g>
    </g>
  </g>
</svg>
