<?xml version="1.0" encoding="UTF-8" standalone="no"?>
<!-- Created with Inkscape (http://www.inkscape.org/) -->

<svg
   xmlns:dc="http://purl.org/dc/elements/1.1/"
   xmlns:cc="http://creativecommons.org/ns#"
   xmlns:rdf="http://www.w3.org/1999/02/22-rdf-syntax-ns#"
   xmlns:svg="http://www.w3.org/2000/svg"
   xmlns="http://www.w3.org/2000/svg"
   xmlns:sodipodi="http://sodipodi.sourceforge.net/DTD/sodipodi-0.dtd"
   xmlns:inkscape="http://www.inkscape.org/namespaces/inkscape"
   width="512"
   height="512"
   id="svg2"
   version="1.1"
   inkscape:version="0.92.2 5c3e80d, 2017-08-06"
   sodipodi:docname="application-vnd-google-earth-kml.svg">
  <defs
     id="defs4" />
  <sodipodi:namedview
     id="base"
     pagecolor="#ffffff"
     bordercolor="#666666"
     borderopacity="1.0"
     inkscape:pageopacity="0.0"
     inkscape:pageshadow="2"
     inkscape:zoom="0.4289781"
     inkscape:cx="511.13569"
     inkscape:cy="111.56574"
     inkscape:document-units="px"
     inkscape:current-layer="layer1"
     showgrid="false"
     inkscape:window-width="1366"
     inkscape:window-height="717"
     inkscape:window-x="0"
     inkscape:window-y="24"
     inkscape:window-maximized="1" />
  <metadata
     id="metadata7">
    <rdf:RDF>
      <cc:Work
         rdf:about="">
        <dc:format>image/svg+xml</dc:format>
        <dc:type
           rdf:resource="http://purl.org/dc/dcmitype/StillImage" />
        <dc:title></dc:title>
      </cc:Work>
    </rdf:RDF>
  </metadata>
  <g
     inkscape:label="Layer 1"
     inkscape:groupmode="layer"
     id="layer1"
     transform="translate(0,-540.36218)">
    <g
       id="g881">
      <path
         id="path943"
         d="m 432.91326,596.8362 c 102.19291,88.57459 105.82678,249.69971 8.1168,359.89879 C 343.32009,1066.934 181.27965,1084.4628 79.086739,995.88824 -23.106203,907.31366 -26.740033,746.18854 70.969939,635.98946 168.67991,525.79038 330.72036,508.26161 432.91326,596.8362 Z"
         inkscape:connector-curvature="0"
         style="fill:#3689e6;fill-opacity:1;stroke-width:11.10955811" />
      <path
         sodipodi:nodetypes="csscc"
         inkscape:connector-curvature="0"
         id="path945"
         d="m 8.3652371,882.36224 c 11.5840999,43.15173 35.1863079,82.72637 70.7207079,113.5254 102.192915,88.57456 264.233395,71.04666 361.943365,-39.15235 20.35102,-22.95224 36.28955,-48.11807 47.87304,-74.37305 z"
         style="fill:#0d52bf;fill-opacity:1;stroke:none;stroke-width:0.99999994px;stroke-linecap:butt;stroke-linejoin:miter;stroke-opacity:1" />
      <path
         id="path947"
         d="m 511.6355,765.26575 c -1.55139,61.31164 -25.16123,124.1546 -70.96638,175.81447 C 342.95915,1051.2793 180.9187,1068.808 78.725756,980.23352 30.827123,938.71787 4.4968171,881.28507 0.19382709,820.59104 0.79907709,886.94771 27.117403,950.84441 79.078688,995.88134 181.2716,1084.4558 343.31975,1066.9184 441.02201,956.728 490.72696,900.66989 514.02703,831.43703 511.6355,765.26575 Z"
         inkscape:connector-curvature="0"
         style="opacity:0.1;stroke-width:11.10955811" />
      <path
         inkscape:connector-curvature="0"
         id="path843"
         d="m 248.21159,881.19796 c -29.19175,-3.82705 -56.26787,-17.41503 -78.07199,-39.17976 -19.11324,-19.07868 -31.41626,-41.53421 -37.78156,-68.95904 -1.41658,-6.10334 -3.89538,-15.90211 -3.85761,-31.70607 0.0447,-18.67539 2.06679,-23.25485 4.88454,-32.21445 12.54634,-39.89356 35.59606,-67.71672 71.35145,-85.96336 31.98233,-16.32115 71.334,-19.14093 105.77518,-7.57939 33.02091,11.08474 63.04026,37.2881 78.73554,68.72682 26.17581,52.43192 15.64783,115.71797 -26.24233,157.74854 -30.1199,30.22092 -72.51154,44.66992 -114.79322,39.12671 z m -38.53623,-19.62481 c -0.19386,-0.84587 -0.62719,-3.85774 -0.96298,-6.69282 -0.555,-4.68611 -0.30736,-5.45802 2.72321,-8.4886 4.33825,-4.33823 8.19952,-4.3435 26.51652,-0.0362 7.71255,1.81363 19.06727,4.09175 25.23272,5.06245 13.94622,2.19579 47.95092,2.47627 60.3033,0.4974 10.03554,-1.6077 26.81974,-6.10236 31.15028,-8.34177 4.73005,-2.446 20.70466,-21.57343 19.24037,-23.03773 -0.3491,-0.34912 -5.69315,0.62977 -11.87564,2.17528 -21.28962,5.32204 -31.31929,0.28308 -52.15207,-0.34511 -36.05313,-1.08716 -65.67822,-8.66726 -114.21335,-29.22347 -29.05329,-12.30501 -36.23975,-7.13289 -43.56183,0.18919 -5.51156,5.51157 -5.66034,8.1176 -0.95351,16.7019 10.72663,19.56324 28.78351,38.06693 48.30599,49.50131 7.27599,4.26147 10.92272,4.98688 10.24699,2.03816 z m 183.11431,-77.69996 c 0.5882,-1.35006 1.78231,-5.8912 2.6536,-10.09142 1.44321,-6.95756 1.4245,-7.75802 -0.21044,-9.00044 -0.987,-0.75003 -2.46489,-1.36371 -3.28421,-1.36371 -3.03892,0 -20.35092,-7.86551 -29.64759,-13.47003 -17.85801,-10.76577 -40.35829,-29.01979 -72.08731,-58.48294 -31.21036,-28.98154 -40.55603,-36.44813 -52.56677,-41.99743 -14.2226,-6.57123 -33.20761,-7.71731 -52.16581,-3.14911 -7.00565,1.6881 -8.89433,2.6798 -13.13422,6.89653 -9.67404,9.62119 -18.7701,22.34578 -24.57693,34.38096 -9.36782,19.41569 -8.96436,33.27621 2.85094,23.24656 8.9807,-7.62345 17.93299,-8.50983 26.9557,-10.05241 5.88914,-1.00682 14.64678,0.33569 21.63881,1.89322 14.43052,3.21454 24.72043,13.70521 62.08774,40.22738 42.30111,30.02405 49.81584,29.99904 78.64198,41.47801 12.44825,4.95706 44.5387,1.78812 49.29696,1.88767 1.55694,0.0326 2.8756,-0.86059 3.54755,-2.40284 z m -3.76668,-68.67194 c 3.51298,-3.08445 3.90963,-3.94637 3.43716,-7.469 -0.84227,-6.27958 -7.81865,-22.304 -14.11723,-32.42657 -7.43151,-11.94334 -25.71939,-30.68351 -37.39936,-38.32426 -17.24158,-11.27902 -33.67054,-17.87585 -53.276,-21.39228 -17.46457,-3.13242 -53.56597,-0.76031 -55.02457,3.61548 -0.30249,0.90748 1.57275,1.29668 6.24749,1.29668 29.16878,0 54.07564,8.11891 72.95494,23.78121 11.20499,9.29567 19.05397,18.12305 31.89144,35.86692 21.59137,29.84339 30.05783,38.21654 38.89812,38.4695 1.3292,0.0382 4.2038,-1.49992 6.38801,-3.41768 z"
         style="fill:#317ccf;fill-opacity:1;stroke-width:1.10010529"
         sodipodi:nodetypes="ssssssssssssssssscssssssssssssssssssssssssssssssssscs" />
      <path
         sodipodi:nodetypes="ssssssssssssssssscssssssssssssssssssssssssssssssssscs"
         style="fill:#ffffff;fill-opacity:1;stroke-width:1.10010529"
         d="m 238.21159,871.19796 c -29.19175,-3.82705 -56.26787,-17.41503 -78.07199,-39.17976 -19.11324,-19.07868 -31.41626,-41.53421 -37.78156,-68.95904 -1.41658,-6.10334 -3.89538,-15.90211 -3.85761,-31.70607 0.0447,-18.67539 2.06679,-23.25485 4.88454,-32.21445 12.54634,-39.89356 35.59606,-67.71672 71.35145,-85.96336 31.98233,-16.32115 71.334,-19.14093 105.77518,-7.57939 33.02091,11.08474 63.04026,37.2881 78.73554,68.72682 26.17581,52.43192 15.64783,115.71797 -26.24233,157.74854 -30.1199,30.22092 -72.51154,44.66992 -114.79322,39.12671 z m -38.53623,-19.62481 c -0.19386,-0.84587 -0.62719,-3.85774 -0.96298,-6.69282 -0.555,-4.68611 -0.30736,-5.45802 2.72321,-8.4886 4.33825,-4.33823 8.19952,-4.3435 26.51652,-0.0362 7.71255,1.81363 19.06727,4.09175 25.23272,5.06245 13.94622,2.19579 47.95092,2.47627 60.3033,0.4974 10.03554,-1.6077 26.81974,-6.10236 31.15028,-8.34177 4.73005,-2.446 20.70466,-21.57343 19.24037,-23.03773 -0.3491,-0.34912 -5.69315,0.62977 -11.87564,2.17528 -21.28962,5.32204 -31.31929,0.28308 -52.15207,-0.34511 -36.05313,-1.08716 -65.67822,-8.66726 -114.21335,-29.22347 -29.05329,-12.30501 -36.23975,-7.13289 -43.56183,0.18919 -5.51156,5.51157 -5.66034,8.1176 -0.95351,16.7019 10.72663,19.56324 28.78351,38.06693 48.30599,49.50131 7.27599,4.26147 10.92272,4.98688 10.24699,2.03816 z m 183.11431,-77.69996 c 0.5882,-1.35006 1.78231,-5.8912 2.6536,-10.09142 1.44321,-6.95756 1.4245,-7.75802 -0.21044,-9.00044 -0.987,-0.75003 -2.46489,-1.36371 -3.28421,-1.36371 -3.03892,0 -20.35092,-7.86551 -29.64759,-13.47003 -17.85801,-10.76577 -40.35829,-29.01979 -72.08731,-58.48294 -31.21036,-28.98154 -40.55603,-36.44813 -52.56677,-41.99743 -14.2226,-6.57123 -33.20761,-7.71731 -52.16581,-3.14911 -7.00565,1.6881 -8.89433,2.6798 -13.13422,6.89653 -9.67404,9.62119 -18.7701,22.34578 -24.57693,34.38096 -9.36782,19.41569 -8.96436,33.27621 2.85094,23.24656 8.9807,-7.62345 17.93299,-8.50983 26.9557,-10.05241 5.88914,-1.00682 14.64678,0.33569 21.63881,1.89322 14.43052,3.21454 24.72043,13.70521 62.08774,40.22738 42.30111,30.02405 49.81584,29.99904 78.64198,41.47801 12.44825,4.95706 44.5387,1.78812 49.29696,1.88767 1.55694,0.0326 2.8756,-0.86059 3.54755,-2.40284 z m -3.76668,-68.67194 c 3.51298,-3.08445 3.90963,-3.94637 3.43716,-7.469 -0.84227,-6.27958 -7.81865,-22.304 -14.11723,-32.42657 -7.43151,-11.94334 -25.71939,-30.68351 -37.39936,-38.32426 -17.24158,-11.27902 -33.67054,-17.87585 -53.276,-21.39228 -17.46457,-3.13242 -53.56597,-0.76031 -55.02457,3.61548 -0.30249,0.90748 1.57275,1.29668 6.24749,1.29668 29.16878,0 54.07564,8.11891 72.95494,23.78121 11.20499,9.29567 19.05397,18.12305 31.89144,35.86692 21.59137,29.84339 30.05783,38.21654 38.89812,38.4695 1.3292,0.0382 4.2038,-1.49992 6.38801,-3.41768 z"
         id="path2997"
         inkscape:connector-curvature="0" />
      <g
         aria-label="KML"
         transform="translate(33.76298,538.23342)"
         style="font-style:normal;font-weight:normal;font-size:40px;line-height:1.25;font-family:sans-serif;letter-spacing:0px;word-spacing:0px;fill:#0c4aac;fill-opacity:1;stroke:none"
         id="g866">
        <path
           d="m 175.69987,455.3104 q -8.41146,0 -23.96159,-14.77539 l -16.54622,-16.6569 v 0.77474 l -0.0553,28.9974 q 0,5.47851 -4.81445,5.47851 -3.1543,0 -5.03581,-2.76692 -1.54948,-2.26888 -1.54948,-4.92513 0,-12.94922 0.77474,-38.73698 0.77474,-25.78776 0.77474,-38.68164 0,-2.37956 1.54948,-4.03972 1.60482,-1.66015 3.92903,-1.66015 2.37956,0 3.92904,1.66015 1.60482,1.66016 1.60482,4.03972 0,5.36783 -0.66406,16.71224 -0.66407,10.95703 -0.60873,16.76757 7.41537,-7.02799 16.76758,-17.65299 l 15.88216,-18.42774 q 1.88151,-2.1582 4.20573,-2.1582 2.21354,0 3.92904,1.66016 1.71549,1.66015 1.71549,4.03971 0,3.65234 -14.27734,19.47917 -9.85026,10.79101 -20.36458,21.13932 6.64062,6.97266 20.80729,20.03255 l 5.81054,4.8698 q 3.1543,2.43489 6.80665,3.65234 4.37174,1.4388 4.37174,5.47851 0,1.88152 -1.16211,3.59701 -1.4388,2.10286 -3.81836,2.10286 z"
           style="font-style:normal;font-variant:normal;font-weight:normal;font-stretch:normal;font-size:113.33333588px;font-family:'Comic Sans MS';-inkscape-font-specification:'Comic Sans MS';fill:#0c4aac;fill-opacity:1"
           id="path860"
           inkscape:connector-curvature="0" />
        <path
           d="m 271.10352,457.63462 q -2.98828,0 -4.92513,-3.09895 -1.66015,-2.65625 -2.98828,-8.85417 l -1.99219,-9.51823 q -2.26888,-8.85417 -7.19401,-39.06901 l -11.06771,33.36914 -3.26497,10.51432 q -1.99219,6.25326 -4.15039,10.23763 -2.32422,4.20573 -6.25326,4.20573 -3.26497,0 -5.14648,-3.54166 -1.21745,-2.32422 -2.21354,-5.92123 l -1.60482,-6.14258 q -5.58919,-19.5345 -9.85026,-41.83594 l -1.99219,9.9056 -7.13867,29.21875 q -0.44271,5.14649 -2.76693,15.2181 -1.66015,4.31641 -5.47851,4.31641 -2.71159,0 -4.31641,-1.93685 -1.38346,-1.66016 -1.38346,-4.09505 0,-9.24154 3.81836,-22.6888 l 6.08724,-22.30144 3.20963,-17.43164 q 2.4349,-12.22982 5.14649,-15.99284 2.21354,-3.20963 5.47851,-3.20963 3.59701,0 5.36784,4.09505 2.1582,4.92513 4.64844,20.08789 2.93294,18.20638 9.13086,39.40104 8.1901,-21.30534 14.16667,-44.38151 l 1.66015,-8.07942 q 0.9961,-4.8698 2.60091,-7.85808 2.15821,-4.09505 5.92123,-4.09505 4.75911,0 7.24935,9.1862 0.88541,3.15429 2.1582,13.05989 3.26497,25.01303 8.13477,42.72136 l 2.71158,9.51823 q 2.10287,7.63672 2.10287,9.40755 0,2.37956 -1.82617,3.98438 -1.77084,1.60481 -4.03972,1.60481 z"
           style="font-style:normal;font-variant:normal;font-weight:normal;font-stretch:normal;font-size:113.33333588px;font-family:'Comic Sans MS';-inkscape-font-specification:'Comic Sans MS';fill:#0c4aac;fill-opacity:1"
           id="path862"
           inkscape:connector-curvature="0" />
        <path
           d="m 337.95248,450.77264 q -6.25326,2.93295 -19.64519,5.25717 -12.34049,2.1582 -20.14323,2.1582 -5.58919,0 -8.02409,-1.7155 -3.32031,-2.32421 -3.32031,-8.52213 l 1.10677,-18.31706 q 1.4388,-25.34505 1.4388,-56.22396 0,-2.37956 1.54948,-4.03971 1.60482,-1.66016 3.92904,-1.66016 2.37956,0 3.92904,1.66016 1.60481,1.66015 1.60481,4.03971 0,31.26628 -1.49414,56.88802 l -0.7194,8.41146 q -0.44271,4.5931 -0.33203,8.13477 14.44336,0.16601 36.52344,-6.80664 0.94076,-0.2767 1.77083,-0.2767 2.37956,0 3.98438,1.88151 1.38346,1.7155 1.38346,3.92904 0,3.54167 -3.54166,5.20182 z"
           style="font-style:normal;font-variant:normal;font-weight:normal;font-stretch:normal;font-size:113.33333588px;font-family:'Comic Sans MS';-inkscape-font-specification:'Comic Sans MS';fill:#0c4aac;fill-opacity:1"
           id="path864"
           inkscape:connector-curvature="0" />
      </g>
      <g
         id="flowRoot845"
         style="font-style:normal;font-weight:normal;font-size:40px;line-height:1.25;font-family:sans-serif;letter-spacing:0px;word-spacing:0px;fill:#ffffff;fill-opacity:1;stroke:none"
         transform="translate(23.76298,528.23342)"
         aria-label="KML">
        <path
           inkscape:connector-curvature="0"
           id="path853"
           style="font-style:normal;font-variant:normal;font-weight:normal;font-stretch:normal;font-size:113.33333588px;font-family:'Comic Sans MS';-inkscape-font-specification:'Comic Sans MS';fill:#ffffff"
           d="m 175.69987,455.3104 q -8.41146,0 -23.96159,-14.77539 l -16.54622,-16.6569 v 0.77474 l -0.0553,28.9974 q 0,5.47851 -4.81445,5.47851 -3.1543,0 -5.03581,-2.76692 -1.54948,-2.26888 -1.54948,-4.92513 0,-12.94922 0.77474,-38.73698 0.77474,-25.78776 0.77474,-38.68164 0,-2.37956 1.54948,-4.03972 1.60482,-1.66015 3.92903,-1.66015 2.37956,0 3.92904,1.66015 1.60482,1.66016 1.60482,4.03972 0,5.36783 -0.66406,16.71224 -0.66407,10.95703 -0.60873,16.76757 7.41537,-7.02799 16.76758,-17.65299 l 15.88216,-18.42774 q 1.88151,-2.1582 4.20573,-2.1582 2.21354,0 3.92904,1.66016 1.71549,1.66015 1.71549,4.03971 0,3.65234 -14.27734,19.47917 -9.85026,10.79101 -20.36458,21.13932 6.64062,6.97266 20.80729,20.03255 l 5.81054,4.8698 q 3.1543,2.43489 6.80665,3.65234 4.37174,1.4388 4.37174,5.47851 0,1.88152 -1.16211,3.59701 -1.4388,2.10286 -3.81836,2.10286 z" />
        <path
           inkscape:connector-curvature="0"
           id="path855"
           style="font-style:normal;font-variant:normal;font-weight:normal;font-stretch:normal;font-size:113.33333588px;font-family:'Comic Sans MS';-inkscape-font-specification:'Comic Sans MS';fill:#ffffff"
           d="m 271.10352,457.63462 q -2.98828,0 -4.92513,-3.09895 -1.66015,-2.65625 -2.98828,-8.85417 l -1.99219,-9.51823 q -2.26888,-8.85417 -7.19401,-39.06901 l -11.06771,33.36914 -3.26497,10.51432 q -1.99219,6.25326 -4.15039,10.23763 -2.32422,4.20573 -6.25326,4.20573 -3.26497,0 -5.14648,-3.54166 -1.21745,-2.32422 -2.21354,-5.92123 l -1.60482,-6.14258 q -5.58919,-19.5345 -9.85026,-41.83594 l -1.99219,9.9056 -7.13867,29.21875 q -0.44271,5.14649 -2.76693,15.2181 -1.66015,4.31641 -5.47851,4.31641 -2.71159,0 -4.31641,-1.93685 -1.38346,-1.66016 -1.38346,-4.09505 0,-9.24154 3.81836,-22.6888 l 6.08724,-22.30144 3.20963,-17.43164 q 2.4349,-12.22982 5.14649,-15.99284 2.21354,-3.20963 5.47851,-3.20963 3.59701,0 5.36784,4.09505 2.1582,4.92513 4.64844,20.08789 2.93294,18.20638 9.13086,39.40104 8.1901,-21.30534 14.16667,-44.38151 l 1.66015,-8.07942 q 0.9961,-4.8698 2.60091,-7.85808 2.15821,-4.09505 5.92123,-4.09505 4.75911,0 7.24935,9.1862 0.88541,3.15429 2.1582,13.05989 3.26497,25.01303 8.13477,42.72136 l 2.71158,9.51823 q 2.10287,7.63672 2.10287,9.40755 0,2.37956 -1.82617,3.98438 -1.77084,1.60481 -4.03972,1.60481 z" />
        <path
           inkscape:connector-curvature="0"
           id="path857"
           style="font-style:normal;font-variant:normal;font-weight:normal;font-stretch:normal;font-size:113.33333588px;font-family:'Comic Sans MS';-inkscape-font-specification:'Comic Sans MS';fill:#ffffff"
           d="m 337.95248,450.77264 q -6.25326,2.93295 -19.64519,5.25717 -12.34049,2.1582 -20.14323,2.1582 -5.58919,0 -8.02409,-1.7155 -3.32031,-2.32421 -3.32031,-8.52213 l 1.10677,-18.31706 q 1.4388,-25.34505 1.4388,-56.22396 0,-2.37956 1.54948,-4.03971 1.60482,-1.66016 3.92904,-1.66016 2.37956,0 3.92904,1.66016 1.60481,1.66015 1.60481,4.03971 0,31.26628 -1.49414,56.88802 l -0.7194,8.41146 q -0.44271,4.5931 -0.33203,8.13477 14.44336,0.16601 36.52344,-6.80664 0.94076,-0.2767 1.77083,-0.2767 2.37956,0 3.98438,1.88151 1.38346,1.7155 1.38346,3.92904 0,3.54167 -3.54166,5.20182 z" />
      </g>
    </g>
  </g>
</svg>
