<?xml version="1.0" encoding="UTF-8" standalone="no"?>
<!-- Created with Inkscape (http://www.inkscape.org/) -->

<svg
   xmlns:dc="http://purl.org/dc/elements/1.1/"
   xmlns:cc="http://creativecommons.org/ns#"
   xmlns:rdf="http://www.w3.org/1999/02/22-rdf-syntax-ns#"
   xmlns:svg="http://www.w3.org/2000/svg"
   xmlns="http://www.w3.org/2000/svg"
   xmlns:sodipodi="http://sodipodi.sourceforge.net/DTD/sodipodi-0.dtd"
   xmlns:inkscape="http://www.inkscape.org/namespaces/inkscape"
   width="512"
   height="512"
   id="svg2"
   version="1.1"
   inkscape:version="0.92.2 5c3e80d, 2017-08-06"
   sodipodi:docname="application-x-raw-disk-image.svg">
  <defs
     id="defs4" />
  <sodipodi:namedview
     id="base"
     pagecolor="#ffffff"
     bordercolor="#666666"
     borderopacity="1.0"
     inkscape:pageopacity="0.0"
     inkscape:pageshadow="2"
     inkscape:zoom="0.42897809"
     inkscape:cx="518.39421"
     inkscape:cy="156.59953"
     inkscape:document-units="px"
     inkscape:current-layer="layer1"
     showgrid="false"
     inkscape:window-width="1366"
     inkscape:window-height="717"
     inkscape:window-x="0"
     inkscape:window-y="24"
     inkscape:window-maximized="1" />
  <metadata
     id="metadata7">
    <rdf:RDF>
      <cc:Work
         rdf:about="">
        <dc:format>image/svg+xml</dc:format>
        <dc:type
           rdf:resource="http://purl.org/dc/dcmitype/StillImage" />
        <dc:title></dc:title>
      </cc:Work>
    </rdf:RDF>
  </metadata>
  <g
     inkscape:label="Layer 1"
     inkscape:groupmode="layer"
     id="layer1"
     transform="translate(0,-540.36218)">
    <g
       id="g914">
      <path
         style="fill:#333333;fill-opacity:1;stroke-width:11.10955811"
         inkscape:connector-curvature="0"
         d="m 432.91326,596.83616 c 102.19291,88.57459 105.82678,249.69971 8.1168,359.89879 C 343.32009,1066.934 181.27965,1084.4628 79.086741,995.8882 -23.106205,907.31362 -26.740032,746.1885 70.969941,635.98942 168.67991,525.79034 330.72036,508.26157 432.91326,596.83616 Z"
         id="path961" />
      <path
         style="fill:#1a1a1a;fill-opacity:1;stroke:none;stroke-width:0.99999994px;stroke-linecap:butt;stroke-linejoin:miter;stroke-opacity:1"
         d="m 8.3652398,882.3622 c 11.5841022,43.15173 35.1863072,82.72637 70.7207072,113.5254 102.192913,88.5746 264.233393,71.0467 361.943363,-39.15235 20.35102,-22.95224 36.28955,-48.11807 47.87304,-74.37305 z"
         id="path963"
         inkscape:connector-curvature="0"
         sodipodi:nodetypes="csscc" />
      <path
         style="opacity:0.1;stroke-width:11.10955811"
         inkscape:connector-curvature="0"
         d="m 511.6355,765.26571 c -1.55139,61.31164 -25.16123,124.1546 -70.96638,175.81447 C 342.95915,1051.2793 180.9187,1068.808 78.725758,980.23348 30.827125,938.71783 4.4968178,881.28503 0.19382586,820.591 0.79907986,886.94767 27.117405,950.84437 79.07869,995.8813 c 102.19291,88.5745 264.24106,71.0371 361.94332,-39.15334 49.70495,-56.05811 73.00502,-125.29097 70.61349,-191.46225 z"
         id="path965" />
      <path
         style="fill:#2e2e2e;fill-opacity:1;stroke-width:1.33138967"
         d="M 243.80281,881.03191 C 199.59077,873.1976 162.62826,845.7709 142.9973,806.23285 c -14.79189,-29.7919 -18.38273,-63.3023 -10.22796,-95.44938 17.89768,-70.55468 90.0197,-115.40292 161.19856,-100.23943 76.9417,16.39117 124.81294,93.5402 105.08702,169.35768 -13.02751,50.07175 -53.64798,88.67473 -105.08702,99.8676 -13.098,2.85006 -37.71051,3.46953 -50.16509,1.26259 z m -12.06371,-52.5436 13.28116,-33.14373 -7.9444,-5.13373 c -7.11432,-4.59733 -19.66287,-18.5787 -19.66287,-21.90802 0,-0.65971 -0.63198,-1.19947 -1.4044,-1.19947 -0.77244,0 -15.78085,6.14103 -33.35203,13.64674 -26.91381,11.49651 -31.84838,14.02683 -31.31775,16.05903 2.99909,11.48599 24.8363,38.78713 39.82535,49.7901 6.25888,4.59444 24.45496,14.91654 26.43846,14.99777 0.47043,0.0193 6.83185,-14.87965 14.13648,-33.10869 z m 52.90907,-45.74096 c 7.92574,-4.08544 15.19072,-11.40667 19.48729,-19.63816 4.47532,-12.01478 5.05002,-26.19657 -0.41222,-36.61322 -4.23573,-7.97874 -11.57772,-15.22645 -19.74076,-19.48728 -20.69851,-8.67607 -44.31374,-1.28873 -55.68829,19.48728 -7.17654,16.11223 -3.02315,36.37574 7.56656,47.70999 14.62359,12.56493 33.22415,16.42182 48.78742,8.54139 z m -25.93556,-21.90439 c -5.82694,-3.01027 -10.67766,-10.14601 -10.67766,-15.70753 0,-9.70427 11.38106,-19.13224 20.93258,-17.34037 6.29508,1.18096 13.20059,8.08648 14.38155,14.38155 2.50006,13.3264 -12.69203,24.83703 -24.63647,18.66635 z m 89.66505,-51.09415 c 16.93955,-7.38028 31.3265,-13.92882 31.97102,-14.55231 1.48619,-1.43771 -6.85347,-16.7216 -14.47204,-26.52254 -6.29851,-8.10273 -16.96354,-18.64139 -25.3101,-25.0102 -8.19348,-6.25199 -23.34881,-14.18624 -24.57996,-12.86829 -1.46375,1.56694 -28.00994,62.49266 -28.00994,64.28518 0,0.77271 2.24673,2.56697 4.99272,3.98723 5.69348,2.94475 16.09342,13.35903 19.74536,19.7726 1.35511,2.37986 3.00381,4.32702 3.6638,4.32702 0.65997,0 15.05958,-6.03841 31.99914,-13.41869 z"
         id="path856"
         inkscape:connector-curvature="0"
         sodipodi:nodetypes="sssssssscsssscscscccccccssccssscscsccss" />
      <path
         sodipodi:nodetypes="sssssssscsssscscscccccccssccssscscsccss"
         inkscape:connector-curvature="0"
         id="path854"
         d="M 233.80281,871.03191 C 189.59077,863.1976 152.62826,835.7709 132.9973,796.23285 c -14.79189,-29.7919 -18.38273,-63.3023 -10.22796,-95.44938 17.89768,-70.55468 90.0197,-115.40292 161.19856,-100.23943 76.9417,16.39117 124.81294,93.5402 105.08702,169.35768 -13.02751,50.07175 -53.64798,88.67473 -105.08702,99.8676 -13.098,2.85006 -37.71051,3.46953 -50.16509,1.26259 z m -12.06371,-52.5436 13.28116,-33.14373 -7.9444,-5.13373 c -7.11432,-4.59733 -19.66287,-18.5787 -19.66287,-21.90802 0,-0.65971 -0.63198,-1.19947 -1.4044,-1.19947 -0.77244,0 -15.78085,6.14103 -33.35203,13.64674 -26.91381,11.49651 -31.84838,14.02683 -31.31775,16.05903 2.99909,11.48599 24.8363,38.78713 39.82535,49.7901 6.25888,4.59444 24.45496,14.91654 26.43846,14.99777 0.47043,0.0193 6.83185,-14.87965 14.13648,-33.10869 z m 52.90907,-45.74096 c 7.92574,-4.08544 15.19072,-11.40667 19.48729,-19.63816 4.47532,-12.01478 5.05002,-26.19657 -0.41222,-36.61322 -4.23573,-7.97874 -11.57772,-15.22645 -19.74076,-19.48728 -20.69851,-8.67607 -44.31374,-1.28873 -55.68829,19.48728 -7.17654,16.11223 -3.02315,36.37574 7.56656,47.70999 14.62359,12.56493 33.22415,16.42182 48.78742,8.54139 z m -25.93556,-21.90439 c -5.82694,-3.01027 -10.67766,-10.14601 -10.67766,-15.70753 0,-9.70427 11.38106,-19.13224 20.93258,-17.34037 6.29508,1.18096 13.20059,8.08648 14.38155,14.38155 2.50006,13.3264 -12.69203,24.83703 -24.63647,18.66635 z m 89.66505,-51.09415 c 16.93955,-7.38028 31.3265,-13.92882 31.97102,-14.55231 1.48619,-1.43771 -6.85347,-16.7216 -14.47204,-26.52254 -6.29851,-8.10273 -16.96354,-18.64139 -25.3101,-25.0102 -8.19348,-6.25199 -23.34881,-14.18624 -24.57996,-12.86829 -1.46375,1.56694 -28.00994,62.49266 -28.00994,64.28518 0,0.77271 2.24673,2.56697 4.99272,3.98723 5.69348,2.94475 16.09342,13.35903 19.74536,19.7726 1.35511,2.37986 3.00381,4.32702 3.6638,4.32702 0.65997,0 15.05958,-6.03841 31.99914,-13.41869 z"
         style="fill:#ffffff;stroke-width:1.33138967" />
      <g
         aria-label="IMG"
         transform="translate(24.63086,544.38967)"
         style="font-style:normal;font-weight:normal;font-size:40px;line-height:1.25;font-family:sans-serif;letter-spacing:0px;word-spacing:0px;fill:#171717;fill-opacity:1;stroke:none"
         id="g899">
        <path
           d="m 174.17774,379.42759 q -3.54167,0 -8.90951,-0.7194 l -8.90951,-1.16211 q -1.27278,16.10352 -1.27278,30.76823 0,3.8737 0.22135,9.57357 0.22136,5.69987 0.22136,9.57357 0,5.20182 -0.38737,9.46289 l 17.43164,-0.22136 q 2.32422,0 3.8737,1.66016 1.60481,1.60482 1.60481,3.98437 0,2.4349 -1.60481,4.09506 -1.54948,1.60481 -3.8737,1.60481 -3.09896,0 -9.29688,0.16602 -6.19791,0.11068 -9.29687,0.11068 -3.65235,0 -10.95703,0.99609 -7.24935,1.05143 -10.95704,1.05143 -2.32421,0 -3.92903,-1.66015 -1.54948,-1.60482 -1.54948,-3.98438 0,-2.37956 1.54948,-4.03971 1.60482,-1.66016 3.92903,-1.66016 3.59701,0 11.89779,-1.16211 0.55339,-4.48242 0.55339,-10.23763 0,-3.81836 -0.38737,-9.29687 -0.33203,-5.53386 -0.33203,-9.29688 0,-12.7832 1.54947,-31.93034 l -7.19401,0.22136 -7.19401,0.16601 q -2.37955,0 -3.98437,-1.60482 -1.60482,-1.60481 -1.60482,-4.09505 0,-5.14648 5.20182,-5.64453 4.48243,-0.44271 16.76758,-0.44271 11.01237,0 27.61394,2.37956 4.92513,0.7194 4.92513,5.92122 0,2.60092 -1.88151,4.15039 -1.66016,1.27279 -3.81836,1.27279 z"
           style="font-style:normal;font-variant:normal;font-weight:normal;font-stretch:normal;font-size:113.33333588px;font-family:'Comic Sans MS';-inkscape-font-specification:'Comic Sans MS';fill:#171717;fill-opacity:1"
           id="path892"
           inkscape:connector-curvature="0" />
        <path
           d="m 273.12305,452.97251 q -2.98828,0 -4.92513,-3.09895 -1.66016,-2.65625 -2.98828,-8.85417 l -1.99219,-9.51823 q -2.26888,-8.85417 -7.19401,-39.06901 l -11.06771,33.36914 -3.26497,10.51432 q -1.99219,6.25326 -4.15039,10.23763 -2.32422,4.20573 -6.25326,4.20573 -3.26497,0 -5.14648,-3.54166 -1.21745,-2.32422 -2.21354,-5.92123 l -1.60482,-6.14258 q -5.5892,-19.5345 -9.85026,-41.83593 l -1.99219,9.90559 -7.13867,29.21875 q -0.44271,5.14649 -2.76693,15.2181 -1.66016,4.31641 -5.47852,4.31641 -2.71158,0 -4.3164,-1.93685 -1.38347,-1.66015 -1.38347,-4.09505 0,-9.24154 3.81836,-22.6888 l 6.08724,-22.30144 3.20964,-17.43164 q 2.4349,-12.22981 5.14648,-15.99284 2.21355,-3.20963 5.47852,-3.20963 3.597,0 5.36784,4.09505 2.1582,4.92513 4.64844,20.08789 2.93294,18.20638 9.13086,39.40104 8.1901,-21.30533 14.16666,-44.38151 l 1.66016,-8.07942 q 0.99609,-4.8698 2.60091,-7.85808 2.1582,-4.09505 5.92122,-4.09505 4.75912,0 7.24935,9.1862 0.88542,3.1543 2.15821,13.05989 3.26497,25.01303 8.13476,42.72136 l 2.71159,9.51823 q 2.10287,7.63672 2.10287,9.40755 0,2.37956 -1.82618,3.98438 -1.77083,1.60481 -4.03971,1.60481 z"
           style="font-style:normal;font-variant:normal;font-weight:normal;font-stretch:normal;font-size:113.33333588px;font-family:'Comic Sans MS';-inkscape-font-specification:'Comic Sans MS';fill:#171717;fill-opacity:1"
           id="path895"
           inkscape:connector-curvature="0" />
        <path
           d="m 355.19011,414.8996 q -3.43099,16.98893 -14.44336,27.17122 -10.95704,10.12695 -25.89844,10.12695 -13.61328,0 -20.41992,-7.58138 -6.80665,-7.63671 -6.80665,-22.85481 0,-14.33269 6.75131,-29.49545 6.80664,-15.2181 17.43164,-24.57031 7.08333,-6.25326 14.99674,-6.25326 5.03581,0 13.28125,3.32032 10.07162,3.98437 10.07162,8.79883 0,2.26888 -1.66016,4.03971 -1.66015,1.77083 -3.98437,1.77083 -1.21745,0 -3.43099,-1.38346 -8.4668,-5.14649 -14.27735,-5.14649 -4.15039,0 -8.68815,4.31641 -2.26888,2.1582 -6.52995,7.85807 -12.7832,16.9336 -12.7832,36.7448 0,10.40364 3.20964,14.55403 3.48632,4.53776 12.83854,4.53776 9.9056,0 17.21028,-6.25325 7.69206,-6.64063 10.73568,-18.98112 -15.32877,0.77474 -26.28581,5.92122 -1.27278,0.60873 -2.49023,0.60873 -2.4349,0 -4.03971,-1.88151 -1.49414,-1.7155 -1.49414,-3.98438 0,-3.04362 2.93294,-4.86979 11.95312,-7.30469 41.22721,-7.30469 2.37956,0 3.98438,1.60482 1.60482,1.60482 1.60482,4.03971 0,3.59701 -3.04362,5.14649 z"
           style="font-style:normal;font-variant:normal;font-weight:normal;font-stretch:normal;font-size:113.33333588px;font-family:'Comic Sans MS';-inkscape-font-specification:'Comic Sans MS';fill:#171717;fill-opacity:1"
           id="path897"
           inkscape:connector-curvature="0" />
      </g>
      <g
         id="flowRoot877"
         style="font-style:normal;font-weight:normal;font-size:40px;line-height:1.25;font-family:sans-serif;letter-spacing:0px;word-spacing:0px;fill:#ffffff;fill-opacity:1;stroke:none"
         transform="translate(14.63086,534.38967)"
         aria-label="IMG">
        <path
           inkscape:connector-curvature="0"
           id="path885"
           style="font-style:normal;font-variant:normal;font-weight:normal;font-stretch:normal;font-size:113.33333588px;font-family:'Comic Sans MS';-inkscape-font-specification:'Comic Sans MS';fill:#ffffff"
           d="m 174.17774,379.42759 q -3.54167,0 -8.90951,-0.7194 l -8.90951,-1.16211 q -1.27278,16.10352 -1.27278,30.76823 0,3.8737 0.22135,9.57357 0.22136,5.69987 0.22136,9.57357 0,5.20182 -0.38737,9.46289 l 17.43164,-0.22136 q 2.32422,0 3.8737,1.66016 1.60481,1.60482 1.60481,3.98437 0,2.4349 -1.60481,4.09506 -1.54948,1.60481 -3.8737,1.60481 -3.09896,0 -9.29688,0.16602 -6.19791,0.11068 -9.29687,0.11068 -3.65235,0 -10.95703,0.99609 -7.24935,1.05143 -10.95704,1.05143 -2.32421,0 -3.92903,-1.66015 -1.54948,-1.60482 -1.54948,-3.98438 0,-2.37956 1.54948,-4.03971 1.60482,-1.66016 3.92903,-1.66016 3.59701,0 11.89779,-1.16211 0.55339,-4.48242 0.55339,-10.23763 0,-3.81836 -0.38737,-9.29687 -0.33203,-5.53386 -0.33203,-9.29688 0,-12.7832 1.54947,-31.93034 l -7.19401,0.22136 -7.19401,0.16601 q -2.37955,0 -3.98437,-1.60482 -1.60482,-1.60481 -1.60482,-4.09505 0,-5.14648 5.20182,-5.64453 4.48243,-0.44271 16.76758,-0.44271 11.01237,0 27.61394,2.37956 4.92513,0.7194 4.92513,5.92122 0,2.60092 -1.88151,4.15039 -1.66016,1.27279 -3.81836,1.27279 z" />
        <path
           inkscape:connector-curvature="0"
           id="path887"
           style="font-style:normal;font-variant:normal;font-weight:normal;font-stretch:normal;font-size:113.33333588px;font-family:'Comic Sans MS';-inkscape-font-specification:'Comic Sans MS';fill:#ffffff"
           d="m 273.12305,452.97251 q -2.98828,0 -4.92513,-3.09895 -1.66016,-2.65625 -2.98828,-8.85417 l -1.99219,-9.51823 q -2.26888,-8.85417 -7.19401,-39.06901 l -11.06771,33.36914 -3.26497,10.51432 q -1.99219,6.25326 -4.15039,10.23763 -2.32422,4.20573 -6.25326,4.20573 -3.26497,0 -5.14648,-3.54166 -1.21745,-2.32422 -2.21354,-5.92123 l -1.60482,-6.14258 q -5.5892,-19.5345 -9.85026,-41.83593 l -1.99219,9.90559 -7.13867,29.21875 q -0.44271,5.14649 -2.76693,15.2181 -1.66016,4.31641 -5.47852,4.31641 -2.71158,0 -4.3164,-1.93685 -1.38347,-1.66015 -1.38347,-4.09505 0,-9.24154 3.81836,-22.6888 l 6.08724,-22.30144 3.20964,-17.43164 q 2.4349,-12.22981 5.14648,-15.99284 2.21355,-3.20963 5.47852,-3.20963 3.597,0 5.36784,4.09505 2.1582,4.92513 4.64844,20.08789 2.93294,18.20638 9.13086,39.40104 8.1901,-21.30533 14.16666,-44.38151 l 1.66016,-8.07942 q 0.99609,-4.8698 2.60091,-7.85808 2.1582,-4.09505 5.92122,-4.09505 4.75912,0 7.24935,9.1862 0.88542,3.1543 2.15821,13.05989 3.26497,25.01303 8.13476,42.72136 l 2.71159,9.51823 q 2.10287,7.63672 2.10287,9.40755 0,2.37956 -1.82618,3.98438 -1.77083,1.60481 -4.03971,1.60481 z" />
        <path
           inkscape:connector-curvature="0"
           id="path889"
           style="font-style:normal;font-variant:normal;font-weight:normal;font-stretch:normal;font-size:113.33333588px;font-family:'Comic Sans MS';-inkscape-font-specification:'Comic Sans MS';fill:#ffffff"
           d="m 355.19011,414.8996 q -3.43099,16.98893 -14.44336,27.17122 -10.95704,10.12695 -25.89844,10.12695 -13.61328,0 -20.41992,-7.58138 -6.80665,-7.63671 -6.80665,-22.85481 0,-14.33269 6.75131,-29.49545 6.80664,-15.2181 17.43164,-24.57031 7.08333,-6.25326 14.99674,-6.25326 5.03581,0 13.28125,3.32032 10.07162,3.98437 10.07162,8.79883 0,2.26888 -1.66016,4.03971 -1.66015,1.77083 -3.98437,1.77083 -1.21745,0 -3.43099,-1.38346 -8.4668,-5.14649 -14.27735,-5.14649 -4.15039,0 -8.68815,4.31641 -2.26888,2.1582 -6.52995,7.85807 -12.7832,16.9336 -12.7832,36.7448 0,10.40364 3.20964,14.55403 3.48632,4.53776 12.83854,4.53776 9.9056,0 17.21028,-6.25325 7.69206,-6.64063 10.73568,-18.98112 -15.32877,0.77474 -26.28581,5.92122 -1.27278,0.60873 -2.49023,0.60873 -2.4349,0 -4.03971,-1.88151 -1.49414,-1.7155 -1.49414,-3.98438 0,-3.04362 2.93294,-4.86979 11.95312,-7.30469 41.22721,-7.30469 2.37956,0 3.98438,1.60482 1.60482,1.60482 1.60482,4.03971 0,3.59701 -3.04362,5.14649 z" />
      </g>
    </g>
  </g>
</svg>
