<?xml version="1.0" encoding="UTF-8" standalone="no"?>
<!-- Created with Inkscape (http://www.inkscape.org/) -->

<svg
   xmlns:dc="http://purl.org/dc/elements/1.1/"
   xmlns:cc="http://creativecommons.org/ns#"
   xmlns:rdf="http://www.w3.org/1999/02/22-rdf-syntax-ns#"
   xmlns:svg="http://www.w3.org/2000/svg"
   xmlns="http://www.w3.org/2000/svg"
   xmlns:sodipodi="http://sodipodi.sourceforge.net/DTD/sodipodi-0.dtd"
   xmlns:inkscape="http://www.inkscape.org/namespaces/inkscape"
   width="512"
   height="512"
   id="svg2"
   version="1.1"
   inkscape:version="0.92.2 5c3e80d, 2017-08-06"
   sodipodi:docname="application-x-tzo.svg">
  <defs
     id="defs4" />
  <sodipodi:namedview
     id="base"
     pagecolor="#ffffff"
     bordercolor="#666666"
     borderopacity="1.0"
     inkscape:pageopacity="0.0"
     inkscape:pageshadow="2"
     inkscape:zoom="0.60666664"
     inkscape:cx="305.43158"
     inkscape:cy="277.46992"
     inkscape:document-units="px"
     inkscape:current-layer="layer1"
     showgrid="false"
     inkscape:window-width="1366"
     inkscape:window-height="717"
     inkscape:window-x="0"
     inkscape:window-y="24"
     inkscape:window-maximized="1" />
  <metadata
     id="metadata7">
    <rdf:RDF>
      <cc:Work
         rdf:about="">
        <dc:format>image/svg+xml</dc:format>
        <dc:type
           rdf:resource="http://purl.org/dc/dcmitype/StillImage" />
        <dc:title></dc:title>
      </cc:Work>
    </rdf:RDF>
  </metadata>
  <g
     inkscape:label="Layer 1"
     inkscape:groupmode="layer"
     id="layer1"
     transform="translate(0,-540.36218)">
    <g
       id="g891">
      <path
         id="path955"
         d="m 432.91324,596.83612 c 102.19291,88.57459 105.82677,249.69971 8.1168,359.89879 C 343.32009,1066.934 181.27965,1084.4628 79.086741,995.8882 -23.106205,907.31358 -26.740032,746.18846 70.969941,635.98938 168.67991,525.7903 330.72036,508.26153 432.91324,596.83612 Z"
         inkscape:connector-curvature="0"
         style="fill:#8a715e;fill-opacity:1;stroke-width:11.10955811" />
      <path
         sodipodi:nodetypes="csscc"
         inkscape:connector-curvature="0"
         id="path957"
         d="M 8.3652338,882.36216 C 19.949333,925.51389 43.551551,965.0885 79.085936,995.8876 c 102.192904,88.5746 264.233404,71.0467 361.943354,-39.15239 20.35101,-22.95224 36.28958,-48.11807 47.87304,-74.37305 z"
         style="fill:#715344;fill-opacity:1;stroke:none;stroke-width:0.99999994px;stroke-linecap:butt;stroke-linejoin:miter;stroke-opacity:1" />
      <path
         id="path959"
         d="M 511.63547,765.26567 C 510.08409,826.57731 486.47425,889.42027 440.6691,941.08014 342.95915,1051.2793 180.9187,1068.808 78.725758,980.23344 30.827124,938.71779 4.4968188,881.28499 0.19382686,820.59096 0.79907986,886.94763 27.117405,950.84433 79.078691,995.8813 181.2716,1084.4558 343.31975,1066.9184 441.02199,956.72792 490.72694,900.66981 514.02701,831.43695 511.63547,765.26567 Z"
         inkscape:connector-curvature="0"
         style="opacity:0.1;stroke-width:11.10955811" />
      <path
         style="fill:#7c6655;fill-opacity:1;stroke-width:1.44776499"
         d="m 249.15546,880.27951 c -7.93094,-3.44714 -8.46873,-6.59703 -5.47531,-32.06994 2.30142,-19.58427 3.10794,-23.07173 6.17996,-26.72262 3.40702,-4.04901 3.98889,-4.19885 16.30559,-4.19885 12.3167,0 12.89858,0.14984 16.3056,4.19885 3.07202,3.65089 3.87853,7.13835 6.17996,26.72262 3.01578,25.66328 2.47224,28.67809 -5.79301,32.13153 -6.51909,2.72386 -27.38194,2.68573 -33.70279,-0.0615 z m 24.45062,-31.01267 c 2.71022,-2.19461 3.41786,-4.16943 3.41786,-9.53839 0,-7.79707 -3.97847,-12.306 -10.85824,-12.306 -6.87976,0 -10.85824,4.50893 -10.85824,12.306 0,7.79707 3.97848,12.30601 10.85824,12.30601 2.21239,0 5.56055,-1.24542 7.44038,-2.76762 z m -23.86529,-43.31292 c -3.2217,-3.55995 -3.02117,-8.30939 0.4995,-11.83006 2.46655,-2.46656 4.82588,-2.89553 15.92541,-2.89553 11.09955,0 13.45886,0.42897 15.92542,2.89553 3.61335,3.61334 3.7226,8.9371 0.24794,12.08161 -4.04188,3.65784 -29.23627,3.46342 -32.59827,-0.25155 z m 13.52938,-23.41218 v -5.79106 h -7.96271 -7.9627 v -5.06718 -5.06717 h 7.9627 7.96271 v -5.06718 -5.06718 h -7.96271 -7.9627 v -5.06718 -5.06718 h 7.9627 7.96271 v -5.79106 -5.79106 h -7.96271 -7.9627 v -5.06717 -5.06717 h 7.9627 7.96271 v -5.06719 -5.06717 h -7.96271 -7.9627 v -5.79107 -5.79105 h 7.9627 7.96271 v -5.06718 -5.06718 h -7.96271 -7.9627 v -5.79106 -5.79106 h 7.9627 7.96271 v -5.06717 -5.06719 h -7.96271 -7.9627 v -5.06718 -5.06716 h 7.9627 7.96271 v -5.79107 -5.79106 h -7.96271 -7.9627 v -5.06718 -5.06717 h 7.9627 7.96271 v -5.06718 -5.06718 h -7.96271 -7.9627 v -10.85823 -10.85824 h 18.82094 18.82095 v 5.06717 5.06718 h -7.96271 -7.9627 v 5.79106 5.79106 h 7.9627 7.96271 v 5.06718 5.06718 h -7.96271 -7.9627 v 5.06717 5.06718 h 7.9627 7.96271 v 5.79106 5.79107 h -7.96271 -7.9627 v 5.06716 5.06718 h 7.9627 7.96271 v 5.79107 5.79106 h -7.96271 -7.9627 v 5.06717 5.06718 h 7.9627 7.96271 v 5.06718 5.06718 h -7.96271 -7.9627 v 5.79105 5.79107 h 7.9627 7.96271 v 5.06717 5.06719 h -7.96271 -7.9627 v 5.06717 5.06717 h 7.9627 7.96271 v 5.06719 5.06717 h -7.96271 -7.9627 v 5.79106 5.79106 h 7.9627 7.96271 v 5.06718 5.06718 h -7.96271 -7.9627 v 5.06717 5.06718 h 7.9627 7.96271 v 5.79106 5.79105 h -10.85824 -10.85824 z"
         id="path843"
         inkscape:connector-curvature="0" />
      <path
         inkscape:connector-curvature="0"
         id="path924"
         d="m 239.15546,870.27951 c -7.93094,-3.44714 -8.46873,-6.59703 -5.47531,-32.06994 2.30142,-19.58427 3.10794,-23.07173 6.17996,-26.72262 3.40702,-4.04901 3.98889,-4.19885 16.30559,-4.19885 12.3167,0 12.89858,0.14984 16.3056,4.19885 3.07202,3.65089 3.87853,7.13835 6.17996,26.72262 3.01578,25.66328 2.47224,28.67809 -5.79301,32.13153 -6.51909,2.72386 -27.38194,2.68573 -33.70279,-0.0615 z m 24.45062,-31.01267 c 2.71022,-2.19461 3.41786,-4.16943 3.41786,-9.53839 0,-7.79707 -3.97847,-12.306 -10.85824,-12.306 -6.87976,0 -10.85824,4.50893 -10.85824,12.306 0,7.79707 3.97848,12.30601 10.85824,12.30601 2.21239,0 5.56055,-1.24542 7.44038,-2.76762 z m -23.86529,-43.31292 c -3.2217,-3.55995 -3.02117,-8.30939 0.4995,-11.83006 2.46655,-2.46656 4.82588,-2.89553 15.92541,-2.89553 11.09955,0 13.45886,0.42897 15.92542,2.89553 3.61335,3.61334 3.7226,8.9371 0.24794,12.08161 -4.04188,3.65784 -29.23627,3.46342 -32.59827,-0.25155 z m 13.52938,-23.41218 v -5.79106 h -7.96271 -7.9627 v -5.06718 -5.06717 h 7.9627 7.96271 v -5.06718 -5.06718 h -7.96271 -7.9627 v -5.06718 -5.06718 h 7.9627 7.96271 v -5.79106 -5.79106 h -7.96271 -7.9627 v -5.06717 -5.06717 h 7.9627 7.96271 v -5.06719 -5.06717 h -7.96271 -7.9627 v -5.79107 -5.79105 h 7.9627 7.96271 v -5.06718 -5.06718 h -7.96271 -7.9627 v -5.79106 -5.79106 h 7.9627 7.96271 v -5.06717 -5.06719 h -7.96271 -7.9627 v -5.06718 -5.06716 h 7.9627 7.96271 v -5.79107 -5.79106 h -7.96271 -7.9627 v -5.06718 -5.06717 h 7.9627 7.96271 v -5.06718 -5.06718 h -7.96271 -7.9627 v -10.85823 -10.85824 h 18.82094 18.82095 v 5.06717 5.06718 h -7.96271 -7.9627 v 5.79106 5.79106 h 7.9627 7.96271 v 5.06718 5.06718 h -7.96271 -7.9627 v 5.06717 5.06718 h 7.9627 7.96271 v 5.79106 5.79107 h -7.96271 -7.9627 v 5.06716 5.06718 h 7.9627 7.96271 v 5.79107 5.79106 h -7.96271 -7.9627 v 5.06717 5.06718 h 7.9627 7.96271 v 5.06718 5.06718 h -7.96271 -7.9627 v 5.79105 5.79107 h 7.9627 7.96271 v 5.06717 5.06719 h -7.96271 -7.9627 v 5.06717 5.06717 h 7.9627 7.96271 v 5.06719 5.06717 h -7.96271 -7.9627 v 5.79106 5.79106 h 7.9627 7.96271 v 5.06718 5.06718 h -7.96271 -7.9627 v 5.06717 5.06718 h 7.9627 7.96271 v 5.79106 5.79105 h -10.85824 -10.85824 z"
         style="fill:#ffffff;stroke-width:1.44776499" />
      <g
         aria-label="TZO"
         transform="translate(30.49284,547.94696)"
         style="font-style:normal;font-weight:normal;font-size:40px;line-height:1.25;font-family:sans-serif;letter-spacing:0px;word-spacing:0px;fill:#664b3d;fill-opacity:1;stroke:none"
         id="g876">
        <path
           d="m 187.45899,376.14699 q -4.09506,0 -12.61719,-0.66406 -8.30078,-0.60872 -12.61719,-0.55339 h -3.92904 q 0.16602,7.63672 1.49414,24.79167 1.21745,15.99284 1.21745,24.84701 0,1.93685 0.38737,5.86588 0.38737,3.92904 0.38737,5.92123 0,3.76302 -1.21745,6.47461 -1.54947,3.65234 -4.81445,3.65234 -2.21354,0 -3.98437,-1.54948 -1.77084,-1.54948 -1.77084,-3.98437 0,-0.83008 0.2767,-2.49024 0.27669,-1.66016 0.27669,-2.49023 0,-2.71159 -0.38737,-8.13477 -0.33203,-5.42318 -0.33203,-8.1901 0,-7.91342 -1.27279,-22.2461 -1.32812,-15.49479 -1.49414,-22.24609 l -5.03581,0.0553 q -12.11914,0 -19.03646,-1.77084 -4.48242,-1.16211 -4.48242,-5.47851 0,-2.26888 1.4388,-3.98438 1.66016,-1.93685 4.26107,-1.77083 1.93685,0.11068 8.85417,0.99609 5.53385,0.66407 8.96484,0.66407 3.32031,0 10.07162,-0.11068 6.7513,-0.16602 10.07161,-0.16602 4.26107,0 12.61719,0.60873 8.41146,0.60872 12.67253,0.60872 2.37955,0 3.98437,1.66016 1.60482,1.60481 1.60482,4.03971 0,2.37956 -1.60482,4.03971 -1.60482,1.60482 -3.98437,1.60482 z"
           style="font-style:normal;font-variant:normal;font-weight:normal;font-stretch:normal;font-size:113.33333588px;font-family:'Comic Sans MS';-inkscape-font-specification:'Comic Sans MS';fill:#664b3d;fill-opacity:1"
           id="path870"
           inkscape:connector-curvature="0" />
        <path
           d="m 259.17774,376.81105 -7.47071,5.09115 q -10.07161,7.80273 -22.79948,24.95768 l -19.42383,28.278 q -1.38346,2.10286 -2.71158,3.8737 l 21.52669,-0.83008 q 14.11133,-0.66406 21.58203,-0.66406 7.30469,0 10.79102,0.66406 4.48242,0.88542 4.64843,4.53776 0.11068,2.71159 -1.77083,4.31641 -1.66016,1.38346 -4.15039,1.38346 -1.60482,0 -4.81445,-0.22136 -3.20964,-0.16601 -4.81446,-0.16601 -8.41145,0 -25.28971,0.38737 -16.82292,0.44271 -25.23438,0.44271 -6.36393,0 -6.36393,-5.5892 0,-3.65234 3.43099,-9.18619 l 5.92123,-8.24545 19.97721,-27.77995 q 12.34049,-16.32487 22.96549,-25.34505 l -19.36849,1.10677 h -22.35677 q -0.60872,0 -1.82617,0.11068 -1.16211,0.0553 -1.71549,0.0553 -5.86589,0 -5.86589,-5.69987 0,-3.76302 2.98828,-4.98047 1.82617,-0.77474 6.0319,-0.77474 3.81836,0 11.3444,0.83008 7.58139,0.77474 11.39974,0.77474 4.26107,0 12.72787,-0.55339 8.52214,-0.55338 12.83854,-0.55338 14.22201,0 14.22201,5.36784 0,3.65234 -6.41927,8.41145 z"
           style="font-style:normal;font-variant:normal;font-weight:normal;font-stretch:normal;font-size:113.33333588px;font-family:'Comic Sans MS';-inkscape-font-specification:'Comic Sans MS';fill:#664b3d;fill-opacity:1"
           id="path872"
           inkscape:connector-curvature="0" />
        <path
           d="m 312.08139,449.41522 q -15.60547,0 -26.45183,-9.35221 -11.51041,-9.96094 -11.51041,-25.67709 0,-19.14713 11.3444,-34.80794 12.67252,-17.3763 31.59831,-17.3763 18.20638,0 27.06054,8.1901 9.24154,8.52214 9.24154,26.89454 0,19.14713 -10.40365,34.53125 -11.95312,17.59765 -30.8789,17.59765 z m 4.98047,-75.86914 q -13.55795,0 -22.9655,13.5026 -8.68815,12.39584 -8.68815,27.33724 0,10.68034 7.91341,17.37631 7.58138,6.30859 18.75977,6.30859 13.44726,0 22.19075,-13.55794 7.80274,-12.11914 7.80274,-27.22656 0,-13.22592 -5.92123,-18.59376 -5.64453,-5.14648 -19.09179,-5.14648 z"
           style="font-style:normal;font-variant:normal;font-weight:normal;font-stretch:normal;font-size:113.33333588px;font-family:'Comic Sans MS';-inkscape-font-specification:'Comic Sans MS';fill:#664b3d;fill-opacity:1"
           id="path874"
           inkscape:connector-curvature="0" />
      </g>
      <g
         id="flowRoot855"
         style="font-style:normal;font-weight:normal;font-size:40px;line-height:1.25;font-family:sans-serif;letter-spacing:0px;word-spacing:0px;fill:#000000;fill-opacity:1;stroke:none"
         transform="translate(20.49284,537.94696)"
         aria-label="TZO">
        <path
           inkscape:connector-curvature="0"
           id="path863"
           style="font-style:normal;font-variant:normal;font-weight:normal;font-stretch:normal;font-size:113.33333588px;font-family:'Comic Sans MS';-inkscape-font-specification:'Comic Sans MS';fill:#ffffff"
           d="m 187.45899,376.14699 q -4.09506,0 -12.61719,-0.66406 -8.30078,-0.60872 -12.61719,-0.55339 h -3.92904 q 0.16602,7.63672 1.49414,24.79167 1.21745,15.99284 1.21745,24.84701 0,1.93685 0.38737,5.86588 0.38737,3.92904 0.38737,5.92123 0,3.76302 -1.21745,6.47461 -1.54947,3.65234 -4.81445,3.65234 -2.21354,0 -3.98437,-1.54948 -1.77084,-1.54948 -1.77084,-3.98437 0,-0.83008 0.2767,-2.49024 0.27669,-1.66016 0.27669,-2.49023 0,-2.71159 -0.38737,-8.13477 -0.33203,-5.42318 -0.33203,-8.1901 0,-7.91342 -1.27279,-22.2461 -1.32812,-15.49479 -1.49414,-22.24609 l -5.03581,0.0553 q -12.11914,0 -19.03646,-1.77084 -4.48242,-1.16211 -4.48242,-5.47851 0,-2.26888 1.4388,-3.98438 1.66016,-1.93685 4.26107,-1.77083 1.93685,0.11068 8.85417,0.99609 5.53385,0.66407 8.96484,0.66407 3.32031,0 10.07162,-0.11068 6.7513,-0.16602 10.07161,-0.16602 4.26107,0 12.61719,0.60873 8.41146,0.60872 12.67253,0.60872 2.37955,0 3.98437,1.66016 1.60482,1.60481 1.60482,4.03971 0,2.37956 -1.60482,4.03971 -1.60482,1.60482 -3.98437,1.60482 z" />
        <path
           inkscape:connector-curvature="0"
           id="path865"
           style="font-style:normal;font-variant:normal;font-weight:normal;font-stretch:normal;font-size:113.33333588px;font-family:'Comic Sans MS';-inkscape-font-specification:'Comic Sans MS';fill:#ffffff"
           d="m 259.17774,376.81105 -7.47071,5.09115 q -10.07161,7.80273 -22.79948,24.95768 l -19.42383,28.278 q -1.38346,2.10286 -2.71158,3.8737 l 21.52669,-0.83008 q 14.11133,-0.66406 21.58203,-0.66406 7.30469,0 10.79102,0.66406 4.48242,0.88542 4.64843,4.53776 0.11068,2.71159 -1.77083,4.31641 -1.66016,1.38346 -4.15039,1.38346 -1.60482,0 -4.81445,-0.22136 -3.20964,-0.16601 -4.81446,-0.16601 -8.41145,0 -25.28971,0.38737 -16.82292,0.44271 -25.23438,0.44271 -6.36393,0 -6.36393,-5.5892 0,-3.65234 3.43099,-9.18619 l 5.92123,-8.24545 19.97721,-27.77995 q 12.34049,-16.32487 22.96549,-25.34505 l -19.36849,1.10677 h -22.35677 q -0.60872,0 -1.82617,0.11068 -1.16211,0.0553 -1.71549,0.0553 -5.86589,0 -5.86589,-5.69987 0,-3.76302 2.98828,-4.98047 1.82617,-0.77474 6.0319,-0.77474 3.81836,0 11.3444,0.83008 7.58139,0.77474 11.39974,0.77474 4.26107,0 12.72787,-0.55339 8.52214,-0.55338 12.83854,-0.55338 14.22201,0 14.22201,5.36784 0,3.65234 -6.41927,8.41145 z" />
        <path
           inkscape:connector-curvature="0"
           id="path867"
           style="font-style:normal;font-variant:normal;font-weight:normal;font-stretch:normal;font-size:113.33333588px;font-family:'Comic Sans MS';-inkscape-font-specification:'Comic Sans MS';fill:#ffffff"
           d="m 312.08139,449.41522 q -15.60547,0 -26.45183,-9.35221 -11.51041,-9.96094 -11.51041,-25.67709 0,-19.14713 11.3444,-34.80794 12.67252,-17.3763 31.59831,-17.3763 18.20638,0 27.06054,8.1901 9.24154,8.52214 9.24154,26.89454 0,19.14713 -10.40365,34.53125 -11.95312,17.59765 -30.8789,17.59765 z m 4.98047,-75.86914 q -13.55795,0 -22.9655,13.5026 -8.68815,12.39584 -8.68815,27.33724 0,10.68034 7.91341,17.37631 7.58138,6.30859 18.75977,6.30859 13.44726,0 22.19075,-13.55794 7.80274,-12.11914 7.80274,-27.22656 0,-13.22592 -5.92123,-18.59376 -5.64453,-5.14648 -19.09179,-5.14648 z" />
      </g>
    </g>
  </g>
</svg>
