<?xml version="1.0" encoding="UTF-8" standalone="no"?>
<!-- Created with Inkscape (http://www.inkscape.org/) -->

<svg
   xmlns:dc="http://purl.org/dc/elements/1.1/"
   xmlns:cc="http://creativecommons.org/ns#"
   xmlns:rdf="http://www.w3.org/1999/02/22-rdf-syntax-ns#"
   xmlns:svg="http://www.w3.org/2000/svg"
   xmlns="http://www.w3.org/2000/svg"
   xmlns:sodipodi="http://sodipodi.sourceforge.net/DTD/sodipodi-0.dtd"
   xmlns:inkscape="http://www.inkscape.org/namespaces/inkscape"
   width="512"
   height="512"
   id="svg2"
   version="1.1"
   inkscape:version="0.92.2 5c3e80d, 2017-08-06"
   sodipodi:docname="application-x-bittorrent.svg">
  <defs
     id="defs4" />
  <sodipodi:namedview
     id="base"
     pagecolor="#ffffff"
     bordercolor="#666666"
     borderopacity="1.0"
     inkscape:pageopacity="0.0"
     inkscape:pageshadow="2"
     inkscape:zoom="0.30333332"
     inkscape:cx="989.99065"
     inkscape:cy="-65.377788"
     inkscape:document-units="px"
     inkscape:current-layer="layer1"
     showgrid="false"
     inkscape:window-width="1366"
     inkscape:window-height="717"
     inkscape:window-x="0"
     inkscape:window-y="24"
     inkscape:window-maximized="1" />
  <metadata
     id="metadata7">
    <rdf:RDF>
      <cc:Work
         rdf:about="">
        <dc:format>image/svg+xml</dc:format>
        <dc:type
           rdf:resource="http://purl.org/dc/dcmitype/StillImage" />
        <dc:title />
      </cc:Work>
    </rdf:RDF>
  </metadata>
  <g
     inkscape:label="Layer 1"
     inkscape:groupmode="layer"
     id="layer1"
     transform="translate(0,-540.36218)">
    <g
       id="g888">
      <path
         style="fill:#7a36b1;fill-opacity:1;stroke-width:11.10955811"
         inkscape:connector-curvature="0"
         d="m 432.91326,596.83616 c 102.19291,88.57459 105.82678,249.69971 8.1168,359.89879 C 343.32009,1066.934 181.27965,1084.4628 79.086742,995.8882 -23.106205,907.31362 -26.740032,746.1885 70.969941,635.98942 168.67991,525.79034 330.72036,508.26157 432.91326,596.83616 Z"
         id="path949" />
      <path
         style="fill:#4c158a;fill-opacity:1;stroke:none;stroke-width:0.99999994px;stroke-linecap:butt;stroke-linejoin:miter;stroke-opacity:1"
         d="m 8.365241,882.3622 c 11.584101,43.15173 35.186306,82.72637 70.720701,113.5254 102.192918,88.5746 264.233398,71.0467 361.943368,-39.15235 20.35102,-22.95224 36.28955,-48.11807 47.87304,-74.37305 z"
         id="path951"
         inkscape:connector-curvature="0"
         sodipodi:nodetypes="csscc" />
      <path
         style="opacity:0.1;stroke-width:11.10955811"
         inkscape:connector-curvature="0"
         d="m 511.6355,765.26571 c -1.55139,61.31164 -25.16123,124.1546 -70.96638,175.81447 C 342.95915,1051.2793 180.9187,1068.808 78.725762,980.23348 30.827125,938.71783 4.496819,881.28503 0.19382603,820.591 0.79908003,886.94767 27.117405,950.84437 79.078692,995.8813 181.2716,1084.4558 343.31975,1066.9184 441.02201,956.72796 490.72696,900.66985 514.02703,831.43699 511.6355,765.26571 Z"
         id="path953" />
      <path
         style="fill:#000000;fill-opacity:0.49019608;stroke:none;stroke-width:0.28711596;stroke-linecap:round;stroke-miterlimit:4;stroke-dasharray:none;stroke-opacity:1"
         d="M 275.99891,617.36231 A 137.4999,137.49989 0 0 0 138.5,754.86122 137.4999,137.49989 0 0 0 275.99891,892.36218 137.4999,137.49989 0 0 0 345.09618,873.54362 l -52.73074,-0.21013 -0.21623,-0.0104 c -44.64739,-2.09825 -73.78117,-20.87498 -90.45964,-44.23233 -16.67845,-23.35734 -21.40168,-50.33674 -21.44398,-70.17028 v -0.13056 l 0.002,-0.13055 c 1.03695,-43.90049 22.84109,-72.02154 43.99973,-87.92399 21.15863,-15.90245 42.34124,-20.71573 42.34126,-20.71573 a 10.143163,10.143163 0 0 1 2.71516,-0.28354 10.143163,10.143163 0 0 1 1.8074,20.0568 c 0,0 -17.08585,3.93673 -34.67715,17.15805 -17.56945,13.20487 -34.97124,34.54849 -35.89908,72.05111 0.0556,16.51978 4.33463,39.63564 17.66191,58.2998 13.34254,18.6856 35.25546,33.858 74.75814,35.75017 l 78.96451,0.31416 a 137.4999,137.49989 0 0 0 6.43197,-6.92157 l -64.7032,-0.25703 C 273.43018,847.64853 246.33599,835.70069 230.12443,818.08318 213.85697,800.4049 208.87485,778.2816 208.8314,760.69524 v -0.15709 l 0.004,-0.15911 c 1.05283,-36.66425 19.72526,-58.9184 37.74932,-70.33552 18.02405,-11.41712 35.92561,-13.30252 35.92561,-13.30252 a 10.143163,10.143163 0 0 1 1.71967,-0.0632 10.143163,10.143163 0 0 1 0.47123,20.23021 c 0,0 -13.45136,1.52301 -27.26192,10.27115 -13.78283,8.73057 -27.39517,23.36328 -28.31658,53.60587 0.0601,13.72183 4.08256,30.69049 15.92795,43.56319 11.88445,12.91516 31.97319,22.95956 68.22621,21.5623 l 0.21419,-0.008 79.83557,0.31619 a 137.4999,137.49989 0 0 0 4.39407,-8.06801 l -65.63343,-0.26112 c -38.51972,2.11822 -62.19719,-4.15808 -76.74098,-16.88876 -14.59295,-12.77376 -17.5017,-30.52011 -18.21269,-44.86468 l -0.0244,-0.49979 0.0244,-0.49774 c 1.16392,-23.80553 17.5418,-37.88564 31.88241,-44.14253 14.3406,-6.25689 28.04528,-6.65432 28.04528,-6.65432 a 10.143163,10.143163 0 0 1 0.70786,-0.0104 10.143163,10.143163 0 0 1 0.0428,20.28121 c 0,0 -10.41874,0.49706 -20.68308,4.97544 -10.16372,4.43449 -18.79055,10.86321 -19.69778,26.09915 0.65651,12.33276 2.71875,22.56111 11.27482,30.05055 8.68678,7.60386 26.55868,13.91382 62.62245,11.88272 l 0.30396,-0.0163 74.70102,0.29783 A 137.4999,137.49989 0 0 0 413.5,754.86061 137.4999,137.49989 0 0 0 275.99904,617.36169 Z m 129.53086,183.14693 a 137.4999,137.49989 0 0 1 -0.70379,1.93591 137.4999,137.49989 0 0 0 0.70379,-1.93591 z m -4.13703,10.09368 a 137.4999,137.49989 0 0 1 -2.31126,5.04888 137.4999,137.49989 0 0 0 2.31126,-5.04888 z m -8.13532,15.73007 a 137.4999,137.49989 0 0 1 -6.99296,10.29768 137.4999,137.49989 0 0 0 6.99296,-10.29768 z m -6.99296,10.29768 a 137.4999,137.49989 0 0 1 -7.79058,9.68162 137.4999,137.49989 0 0 0 7.79058,-9.68162 z m -20.98703,22.59452 a 137.4999,137.49989 0 0 1 -7.63963,6.08313 137.4999,137.49989 0 0 0 7.63963,-6.08313 z m -9.77137,7.60698 a 137.4999,137.49989 0 0 1 -10.3854,6.69716 137.4999,137.49989 0 0 0 10.3854,-6.69716 z"
         id="path864"
         inkscape:connector-curvature="0" />
      <path
         inkscape:connector-curvature="0"
         id="path3333"
         d="M 255.99891,597.36231 A 137.4999,137.49989 0 0 0 118.5,734.86122 137.4999,137.49989 0 0 0 255.99891,872.36218 137.4999,137.49989 0 0 0 325.09618,853.54362 l -52.73074,-0.21013 -0.21623,-0.0104 c -44.64739,-2.09825 -73.78117,-20.87498 -90.45964,-44.23233 -16.67845,-23.35734 -21.40168,-50.33674 -21.44398,-70.17028 v -0.13056 l 0.002,-0.13055 c 1.03695,-43.90049 22.84109,-72.02154 43.99973,-87.92399 21.15863,-15.90245 42.34124,-20.71573 42.34126,-20.71573 a 10.143163,10.143163 0 0 1 2.71516,-0.28354 10.143163,10.143163 0 0 1 1.8074,20.0568 c 0,0 -17.08585,3.93673 -34.67715,17.15805 -17.56945,13.20487 -34.97124,34.54849 -35.89908,72.05111 0.0556,16.51978 4.33463,39.63564 17.66191,58.2998 13.34254,18.6856 35.25546,33.858 74.75814,35.75017 l 78.96451,0.31416 a 137.4999,137.49989 0 0 0 6.43197,-6.92157 l -64.7032,-0.25703 C 253.43018,827.64853 226.33599,815.70069 210.12443,798.08318 193.85697,780.4049 188.87485,758.2816 188.8314,740.69524 v -0.15709 l 0.004,-0.15911 c 1.05283,-36.66425 19.72526,-58.9184 37.74932,-70.33552 18.02405,-11.41712 35.92561,-13.30252 35.92561,-13.30252 a 10.143163,10.143163 0 0 1 1.71967,-0.0632 10.143163,10.143163 0 0 1 0.47123,20.23021 c 0,0 -13.45136,1.52301 -27.26192,10.27115 -13.78283,8.73057 -27.39517,23.36328 -28.31658,53.60587 0.0601,13.72183 4.08256,30.69049 15.92795,43.56319 11.88445,12.91516 31.97319,22.95956 68.22621,21.5623 l 0.21419,-0.008 79.83557,0.31619 a 137.4999,137.49989 0 0 0 4.39407,-8.06801 l -65.63343,-0.26112 c -38.51972,2.11822 -62.19719,-4.15808 -76.74098,-16.88876 -14.59295,-12.77376 -17.5017,-30.52011 -18.21269,-44.86468 l -0.0244,-0.49979 0.0244,-0.49774 c 1.16392,-23.80553 17.5418,-37.88564 31.88241,-44.14253 14.3406,-6.25689 28.04528,-6.65432 28.04528,-6.65432 a 10.143163,10.143163 0 0 1 0.70786,-0.0104 10.143163,10.143163 0 0 1 0.0428,20.28121 c 0,0 -10.41874,0.49706 -20.68308,4.97544 -10.16372,4.43449 -18.79055,10.86321 -19.69778,26.09915 0.65651,12.33276 2.71875,22.56111 11.27482,30.05055 8.68678,7.60386 26.55868,13.91382 62.62245,11.88272 l 0.30396,-0.0163 74.70102,0.29783 A 137.4999,137.49989 0 0 0 393.5,734.86061 137.4999,137.49989 0 0 0 255.99904,597.36169 Z m 129.53086,183.14693 a 137.4999,137.49989 0 0 1 -0.70379,1.93591 137.4999,137.49989 0 0 0 0.70379,-1.93591 z m -4.13703,10.09368 a 137.4999,137.49989 0 0 1 -2.31126,5.04888 137.4999,137.49989 0 0 0 2.31126,-5.04888 z m -8.13532,15.73007 a 137.4999,137.49989 0 0 1 -6.99296,10.29768 137.4999,137.49989 0 0 0 6.99296,-10.29768 z m -6.99296,10.29768 a 137.4999,137.49989 0 0 1 -7.79058,9.68162 137.4999,137.49989 0 0 0 7.79058,-9.68162 z m -20.98703,22.59452 a 137.4999,137.49989 0 0 1 -7.63963,6.08313 137.4999,137.49989 0 0 0 7.63963,-6.08313 z m -9.77137,7.60698 a 137.4999,137.49989 0 0 1 -10.3854,6.69716 137.4999,137.49989 0 0 0 10.3854,-6.69716 z"
         style="fill:#ffffff;fill-opacity:1;stroke:none;stroke-width:0.28711596;stroke-linecap:round;stroke-miterlimit:4;stroke-dasharray:none;stroke-opacity:1" />
      <path
         inkscape:connector-curvature="0"
         id="path889"
         style="font-style:normal;font-variant:normal;font-weight:normal;font-stretch:normal;font-size:medium;line-height:1.25;font-family:'Comic Sans MS';-inkscape-font-specification:'Comic Sans MS';letter-spacing:0px;word-spacing:0px;fill:#000000;fill-opacity:0.49019608;stroke:none;stroke-width:1.77071881"
         d="m 133.88509,960.2582 q -2.55924,0 -7.88523,-0.41503 -5.18766,-0.38042 -7.88524,-0.34584 h -2.45549 q 0.10375,4.77264 0.93378,15.49379 0.76086,9.99488 0.76086,15.52838 0,1.21044 0.24209,3.66593 0.24209,2.45549 0.24209,3.70054 0,2.35173 -0.76086,4.04633 -0.96836,2.2826 -3.00884,2.2826 -1.38337,0 -2.49007,-0.9684 -1.1067,-0.9683 -1.1067,-2.49 0,-0.5188 0.17293,-1.55634 0.17293,-1.03752 0.17293,-1.55628 0,-1.69463 -0.24209,-5.08391 -0.20751,-3.38927 -0.20751,-5.11848 0,-4.94556 -0.79544,-13.9029 -0.83002,-9.68362 -0.93377,-13.90293 l -3.14718,0.0345 q -7.573974,0 -11.897017,-1.1067 Q 90.793,957.83719 90.793,955.1396 q 0,-1.41795 0.899193,-2.49007 1.037531,-1.21045 2.662994,-1.1067 1.210453,0.0692 5.533497,0.62251 3.458436,0.41502 5.602666,0.41502 2.07506,0 6.29435,-0.0692 4.21929,-0.10377 6.29435,-0.10377 2.663,0 7.88524,0.38044 5.25682,0.38042 7.91981,0.38042 1.48713,0 2.49009,1.03754 1.00293,1.00293 1.00293,2.52466 0,1.48712 -1.00293,2.52465 -1.00296,1.00295 -2.49009,1.00295 z" />
      <path
         inkscape:connector-curvature="0"
         id="path891"
         style="font-style:normal;font-variant:normal;font-weight:normal;font-stretch:normal;font-size:medium;line-height:1.25;font-family:'Comic Sans MS';-inkscape-font-specification:'Comic Sans MS';letter-spacing:0px;word-spacing:0px;fill:#000000;fill-opacity:0.49019608;stroke:none;stroke-width:1.77071881"
         d="m 162.65928,1006.0479 q -9.75281,0 -16.53133,-5.8448 -7.19354,-6.22516 -7.19354,-16.04712 0,-11.96619 7.08979,-21.75357 7.91981,-10.85948 19.74766,-10.85948 11.37825,0 16.91175,5.11849 5.77559,5.32599 5.77559,16.80798 0,11.9662 -6.50187,21.58064 -7.47022,10.99786 -19.29805,10.99786 z m 3.11258,-47.41517 q -8.47317,0 -14.35251,8.43857 -5.42975,7.7469 -5.42975,17.08468 0,6.67477 4.94557,10.85948 4.73805,3.94263 11.72411,3.94263 8.40399,0 13.86832,-8.47318 4.87638,-7.57396 4.87638,-17.01551 0,-8.26564 -3.70052,-11.62034 -3.52761,-3.21633 -11.9316,-3.21633 z" />
      <path
         inkscape:connector-curvature="0"
         id="path893"
         style="font-style:normal;font-variant:normal;font-weight:normal;font-stretch:normal;font-size:medium;line-height:1.25;font-family:'Comic Sans MS';-inkscape-font-specification:'Comic Sans MS';letter-spacing:0px;word-spacing:0px;fill:#000000;fill-opacity:0.49019608;stroke:none;stroke-width:1.77071881"
         d="m 230.4446,1004.3187 q -1.31421,0 -2.45549,-1.1067 -11.44743,-11.30913 -25.45408,-15.21716 l 0.27668,6.77852 0.17299,6.81314 q 0,1.5217 -1.00293,2.5246 -0.96837,1.0376 -2.45549,1.0376 -1.48714,0 -2.49008,-1.0376 -0.96837,-1.0029 -0.96837,-2.5246 0,-2.73218 -0.27667,-8.12733 -0.24209,-5.42975 -0.24209,-8.16191 0,-3.18175 0.69169,-9.47611 0.69168,-6.29436 0.69168,-9.44153 0,-1.76381 -0.34584,-5.22224 -0.31126,-3.45844 -0.31126,-5.22224 0,-1.9713 1.1067,-3.45842 1.31421,-1.83298 3.63136,-1.66005 l 8.33482,0.6571 q 4.73806,0.58793 7.98899,2.31714 14.00667,7.43564 14.00667,18.15679 0,5.25682 -4.77263,9.3032 -3.83887,3.25091 -9.57988,4.94555 10.75574,5.77558 16.08172,12.17369 0.89919,1.1067 0.89919,2.35176 0,1.4525 -1.07211,2.5246 -1.03752,1.0722 -2.45548,1.0722 z m -22.03023,-45.72055 -5.1185,-0.41502 0.34586,4.1847 q 0.24209,2.55925 0.24209,4.1847 0,2.76675 -0.4496,6.88229 l -0.72628,6.88229 q 0.48419,0 1.48714,0.0345 1.03752,0.0345 1.55628,0.0345 8.81902,0 13.21123,-2.35173 1.93672,-1.07212 3.59677,-2.80133 1.83298,-1.93672 1.83298,-3.28551 0,-4.80722 -5.46433,-8.95735 -5.01473,-3.80428 -10.51364,-4.39221 z" />
      <path
         inkscape:connector-curvature="0"
         id="path895"
         style="font-style:normal;font-variant:normal;font-weight:normal;font-stretch:normal;font-size:medium;line-height:1.25;font-family:'Comic Sans MS';-inkscape-font-specification:'Comic Sans MS';letter-spacing:0px;word-spacing:0px;fill:#000000;fill-opacity:0.49019608;stroke:none;stroke-width:1.77071881"
         d="m 274.98925,1004.3187 q -1.31421,0 -2.45549,-1.1067 -11.44743,-11.30913 -25.45408,-15.21716 l 0.27667,6.77852 0.173,6.81314 q 0,1.5217 -1.00294,2.5246 -0.96837,1.0376 -2.45549,1.0376 -1.48714,0 -2.49007,-1.0376 -0.96837,-1.0029 -0.96837,-2.5246 0,-2.73218 -0.27668,-8.12733 -0.24209,-5.42975 -0.24209,-8.16191 0,-3.18175 0.6917,-9.47611 0.69168,-6.29436 0.69168,-9.44153 0,-1.76381 -0.34584,-5.22224 -0.31126,-3.45844 -0.31126,-5.22224 0,-1.9713 1.1067,-3.45842 1.31421,-1.83298 3.63135,-1.66005 l 8.33483,0.6571 q 4.73805,0.58793 7.98899,2.31714 14.00667,7.43564 14.00667,18.15679 0,5.25682 -4.77264,9.3032 -3.83887,3.25091 -9.57987,4.94555 10.75573,5.77558 16.08172,12.17369 0.89919,1.1067 0.89919,2.35176 0,1.4525 -1.07212,2.5246 -1.03752,1.0722 -2.45547,1.0722 z m -22.03024,-45.72055 -5.11849,-0.41502 0.34585,4.1847 q 0.2421,2.55925 0.2421,4.1847 0,2.76675 -0.44961,6.88229 l -0.72627,6.88229 q 0.48418,0 1.48713,0.0345 1.03752,0.0345 1.55629,0.0345 8.81901,0 13.21123,-2.35173 1.93672,-1.07212 3.59677,-2.80133 1.83298,-1.93672 1.83298,-3.28551 0,-4.80722 -5.46434,-8.95735 -5.01473,-3.80428 -10.51364,-4.39221 z" />
      <path
         inkscape:connector-curvature="0"
         id="path897"
         style="font-style:normal;font-variant:normal;font-weight:normal;font-stretch:normal;font-size:medium;line-height:1.25;font-family:'Comic Sans MS';-inkscape-font-specification:'Comic Sans MS';letter-spacing:0px;word-spacing:0px;fill:#000000;fill-opacity:0.49019608;stroke:none;stroke-width:1.77071881"
         d="m 319.15345,957.38768 q -0.48418,0 -1.07211,-0.17282 -5.84476,-1.66005 -11.27449,-1.66005 -2.83593,0 -6.19061,0.51877 -3.35468,0.51875 -7.22812,1.59087 0.31125,2.24798 0.31125,3.59677 0,4.80723 -0.58793,13.21123 l 15.14795,-1.45254 q 6.67478,-0.6917 8.19648,-0.6917 1.52172,0 2.55926,0.96837 1.03751,0.96835 1.03751,2.59382 0,3.14719 -3.18175,3.52761 l -8.23108,0.72628 -15.97797,1.45254 q -0.1383,2.45549 -0.24208,4.66889 -0.0692,2.17881 -0.0692,4.08094 0,7.64314 1.1067,8.99194 0.83002,0.9683 5.42975,0.9683 2.14423,0 6.43268,-0.1037 4.32305,-0.1383 6.50187,-0.1383 0.69168,0 2.04047,-0.20752 1.34879,-0.24209 2.00589,-0.24209 3.66595,0 3.66595,3.59681 0,2.905 -2.93968,3.493 -3.25093,0.6571 -14.07583,0.6571 -10.72115,0 -13.76458,-2.8359 -3.32009,-3.078 -3.32009,-14.17963 0,-2.21339 0.10376,-4.8418 0.10376,-2.62842 0.27668,-5.67184 -0.38044,-0.79542 -0.38044,-1.69463 0,-1.17586 0.65711,-2.10963 0.69168,-9.99488 0.69168,-14.76753 0,-1.27961 -0.34584,-3.7351 -0.34584,-2.49008 -0.34584,-3.76971 0,-4.11554 3.45843,-4.11554 1.45254,0 2.49007,1.00296 4.15012,-1.1067 7.81606,-1.66005 3.70054,-0.55335 6.95147,-0.55335 8.40399,0 13.41872,2.00589 2.31714,0.93379 2.31714,3.32009 0,1.38338 -0.89918,2.4555 -1.00294,1.17586 -2.49008,1.17586 z" />
      <path
         inkscape:connector-curvature="0"
         id="path899"
         style="font-style:normal;font-variant:normal;font-weight:normal;font-stretch:normal;font-size:medium;line-height:1.25;font-family:'Comic Sans MS';-inkscape-font-specification:'Comic Sans MS';letter-spacing:0px;word-spacing:0px;fill:#000000;fill-opacity:0.49019608;stroke:none;stroke-width:1.77071881"
         d="m 378.15435,996.2605 q 0,1.66005 -0.55335,5.5335 -0.55335,3.493 -3.70051,3.493 -1.90215,0 -4.53055,-2.4901 -14.07583,-13.31494 -32.30179,-38.42316 l -0.173,7.85064 -0.10376,7.88522 q 0,2.87051 0.10376,8.61152 0.1383,5.74099 0.1383,8.64608 0,9.3032 -3.59678,9.3032 -1.90214,0 -3.00884,-1.2105 -1.00295,-1.0721 -1.00295,-2.5592 0,-1.4525 0.20751,-4.39222 0.24209,-2.93967 0.24209,-4.39221 0,-2.14424 0.1383,-6.3981 0.13829,-4.28847 0.13829,-6.43269 0,-2.28258 -0.10376,-6.88229 -0.10377,-4.6343 -0.10377,-6.91687 0,-2.17881 -0.415,-6.46728 -0.41502,-4.32304 -0.41502,-6.50185 0,-1.59089 1.34879,-2.9051 1.38337,-1.31419 3.11259,-1.31419 1.83297,0 4.53056,4.01178 8.6115,12.89997 15.49379,21.4423 8.19648,10.13321 17.98386,19.36724 0.10376,-1.48714 0,-4.39221 l -0.10376,-4.35764 q 0,-15.18253 -1.17587,-24.17445 -0.13829,-0.89921 -0.93377,-3.63136 -0.69169,-2.35174 -0.69169,-3.66595 0,-4.01178 3.66593,-4.01178 6.01768,0 6.01768,22.44525 0,3.83886 -0.10376,11.48199 -0.10376,7.60857 -0.10376,11.44743 z" />
      <path
         id="path901"
         transform="translate(0,540.36218)"
         d="M 388.875 411.17969 C 387.79135 411.11052 386.90456 411.48014 386.21289 412.28711 C 385.61342 413.00186 385.3125 413.83204 385.3125 414.77734 C 385.3125 416.57574 386.24768 417.71699 388.11523 418.20117 C 390.99727 418.93897 394.96241 419.30859 400.01172 419.30859 L 403.1582 419.27344 C 403.22737 422.08631 403.53845 426.72003 404.0918 433.17578 C 404.6221 439.14734 404.88867 443.78304 404.88867 447.08008 C 404.88867 447.9286 404.93872 449.17885 405.01367 450.62695 C 407.27671 448.81511 409.52586 446.97621 411.74609 445.08594 C 411.62537 442.12964 411.42243 438.69006 411.11328 434.62891 C 410.55993 427.48147 410.24886 422.31653 410.17969 419.13477 L 412.63477 419.13477 C 414.43315 419.11171 417.06109 419.22686 420.51953 419.48047 C 424.07019 419.75716 426.7001 419.89648 428.40625 419.89648 C 429.39766 419.89648 430.22785 419.56121 430.89648 418.89258 C 431.56512 418.20089 431.89844 417.36055 431.89844 416.36914 C 431.89844 415.35465 431.56512 414.51237 430.89648 413.84375 C 430.22785 413.15206 429.39766 412.80664 428.40625 412.80664 C 426.63091 412.80664 423.99087 412.67939 420.48633 412.42578 C 417.00485 412.17215 414.37494 412.04492 412.59961 412.04492 C 411.21623 412.04492 409.1195 412.07926 406.30664 412.14844 C 403.49379 412.19457 401.3951 412.21875 400.01172 412.21875 C 398.58224 412.21875 396.71383 412.07941 394.4082 411.80273 C 391.52618 411.43386 389.68197 411.22582 388.875 411.17969 z "
         style="font-style:normal;font-variant:normal;font-weight:normal;font-stretch:normal;font-size:medium;line-height:1.25;font-family:'Comic Sans MS';-inkscape-font-specification:'Comic Sans MS';letter-spacing:0px;word-spacing:0px;fill:#000000;fill-opacity:0.49019608;stroke:none;stroke-width:1.77071881" />
      <g
         id="flowRoot866"
         style="font-style:normal;font-weight:normal;font-size:40px;line-height:1.25;font-family:sans-serif;letter-spacing:0px;word-spacing:0px;fill:#ffffff;fill-opacity:1;stroke:none"
         transform="matrix(1.7707188,0,0,1.7707188,-61.644354,293.8507)"
         aria-label="TORRENT">
        <path
           inkscape:connector-curvature="0"
           id="path874"
           style="font-style:normal;font-variant:normal;font-weight:normal;font-stretch:normal;font-family:'Comic Sans MS';-inkscape-font-specification:'Comic Sans MS';fill:#ffffff"
           d="m 99.128906,365.05372 q -1.445312,0 -4.453125,-0.23438 -2.929687,-0.21484 -4.453125,-0.19531 h -1.386719 q 0.05859,2.69531 0.527344,8.75 0.429688,5.64453 0.429688,8.76953 0,0.68359 0.136718,2.07031 0.136719,1.38672 0.136719,2.08985 0,1.32812 -0.429687,2.28515 -0.546875,1.28907 -1.699219,1.28907 -0.78125,0 -1.40625,-0.54688 -0.625,-0.54687 -0.625,-1.40625 0,-0.29297 0.09766,-0.87891 0.09766,-0.58593 0.09766,-0.8789 0,-0.95703 -0.136718,-2.8711 -0.117188,-1.91406 -0.117188,-2.89062 0,-2.79297 -0.449219,-7.85156 -0.46875,-5.46875 -0.527343,-7.85157 l -1.777344,0.0195 q -4.277344,0 -6.71875,-0.625 -1.582031,-0.41016 -1.582031,-1.9336 0,-0.80078 0.507812,-1.40625 0.585938,-0.68359 1.503906,-0.625 0.683594,0.0391 3.125,0.35156 1.953125,0.23438 3.164063,0.23438 1.171875,0 3.554687,-0.0391 2.382813,-0.0586 3.554688,-0.0586 1.503906,0 4.453125,0.21485 2.96875,0.21484 4.472656,0.21484 0.839844,0 1.406256,0.58594 0.5664,0.5664 0.5664,1.42578 0,0.83984 -0.5664,1.42578 -0.566412,0.56641 -1.406256,0.56641 z" />
        <path
           inkscape:connector-curvature="0"
           id="path876"
           style="font-style:normal;font-variant:normal;font-weight:normal;font-stretch:normal;font-family:'Comic Sans MS';-inkscape-font-specification:'Comic Sans MS';fill:#ffffff"
           d="m 115.37891,390.91309 q -5.50782,0 -9.33594,-3.30078 -4.0625,-3.51562 -4.0625,-9.0625 0,-6.75781 4.00391,-12.28516 4.47265,-6.13281 11.15234,-6.13281 6.42578,0 9.55078,2.89063 3.26172,3.00781 3.26172,9.49218 0,6.75782 -3.67188,12.1875 -4.21875,6.21094 -10.89843,6.21094 z m 1.75781,-26.77734 q -4.78516,0 -8.10547,4.76562 -3.06641,4.375 -3.06641,9.64844 0,3.76953 2.79297,6.13281 2.67578,2.22657 6.6211,2.22657 4.74609,0 7.83203,-4.78516 2.7539,-4.27734 2.7539,-9.60938 0,-4.66796 -2.08984,-6.5625 -1.99219,-1.8164 -6.73828,-1.8164 z" />
        <path
           inkscape:connector-curvature="0"
           id="path878"
           style="font-style:normal;font-variant:normal;font-weight:normal;font-stretch:normal;font-family:'Comic Sans MS';-inkscape-font-specification:'Comic Sans MS';fill:#ffffff"
           d="m 153.66016,389.93653 q -0.74219,0 -1.38672,-0.625 -6.46485,-6.38672 -14.375,-8.59375 l 0.15625,3.82812 0.0977,3.84766 q 0,0.85938 -0.5664,1.42578 -0.54688,0.58594 -1.38672,0.58594 -0.83985,0 -1.40625,-0.58594 -0.54688,-0.5664 -0.54688,-1.42578 0,-1.54297 -0.15625,-4.58984 -0.13672,-3.06641 -0.13672,-4.60938 0,-1.79687 0.39063,-5.35156 0.39062,-3.55469 0.39062,-5.33203 0,-0.9961 -0.19531,-2.94922 -0.17578,-1.95313 -0.17578,-2.94922 0,-1.11328 0.625,-1.95312 0.74219,-1.03516 2.05078,-0.9375 l 4.70703,0.37109 q 2.67578,0.33203 4.51172,1.30859 7.91016,4.19922 7.91016,10.25391 0,2.96875 -2.69531,5.25391 -2.16797,1.83593 -5.41016,2.79296 6.07422,3.26172 9.08203,6.875 0.50781,0.625 0.50781,1.32813 0,0.82031 -0.60547,1.42578 -0.58593,0.60547 -1.38671,0.60547 z m -12.44141,-25.82031 -2.89063,-0.23438 0.19532,2.36328 q 0.13672,1.44532 0.13672,2.36328 0,1.5625 -0.25391,3.88672 l -0.41016,3.88672 q 0.27344,0 0.83985,0.0195 0.58593,0.0195 0.8789,0.0195 4.98047,0 7.46094,-1.32812 1.09375,-0.60547 2.03125,-1.58203 1.03516,-1.09375 1.03516,-1.85547 0,-2.71484 -3.08594,-5.05859 -2.83203,-2.14844 -5.9375,-2.48047 z" />
        <path
           inkscape:connector-curvature="0"
           id="path880"
           style="font-style:normal;font-variant:normal;font-weight:normal;font-stretch:normal;font-family:'Comic Sans MS';-inkscape-font-specification:'Comic Sans MS';fill:#ffffff"
           d="m 178.81641,389.93653 q -0.74219,0 -1.38672,-0.625 -6.46485,-6.38672 -14.375,-8.59375 l 0.15625,3.82812 0.0977,3.84766 q 0,0.85938 -0.5664,1.42578 -0.54688,0.58594 -1.38672,0.58594 -0.83985,0 -1.40625,-0.58594 -0.54688,-0.5664 -0.54688,-1.42578 0,-1.54297 -0.15625,-4.58984 -0.13672,-3.06641 -0.13672,-4.60938 0,-1.79687 0.39063,-5.35156 0.39062,-3.55469 0.39062,-5.33203 0,-0.9961 -0.19531,-2.94922 -0.17578,-1.95313 -0.17578,-2.94922 0,-1.11328 0.625,-1.95312 0.74219,-1.03516 2.05078,-0.9375 l 4.70703,0.37109 q 2.67578,0.33203 4.51172,1.30859 7.91016,4.19922 7.91016,10.25391 0,2.96875 -2.69531,5.25391 -2.16797,1.83593 -5.41016,2.79296 6.07422,3.26172 9.08203,6.875 0.50781,0.625 0.50781,1.32813 0,0.82031 -0.60547,1.42578 -0.58593,0.60547 -1.38671,0.60547 z m -12.44141,-25.82031 -2.89063,-0.23438 0.19532,2.36328 q 0.13672,1.44532 0.13672,2.36328 0,1.5625 -0.25391,3.88672 l -0.41016,3.88672 q 0.27344,0 0.83985,0.0195 0.58593,0.0195 0.8789,0.0195 4.98047,0 7.46094,-1.32812 1.09375,-0.60547 2.03125,-1.58203 1.03516,-1.09375 1.03516,-1.85547 0,-2.71484 -3.08594,-5.05859 -2.83203,-2.14844 -5.9375,-2.48047 z" />
        <path
           inkscape:connector-curvature="0"
           id="path882"
           style="font-style:normal;font-variant:normal;font-weight:normal;font-stretch:normal;font-family:'Comic Sans MS';-inkscape-font-specification:'Comic Sans MS';fill:#ffffff"
           d="m 203.75781,363.43262 q -0.27344,0 -0.60547,-0.0976 -3.30078,-0.9375 -6.36718,-0.9375 -1.60157,0 -3.4961,0.29297 -1.89453,0.29296 -4.08203,0.89843 0.17578,1.26953 0.17578,2.03125 0,2.71485 -0.33203,7.46094 l 8.55469,-0.82031 q 3.76953,-0.39063 4.6289,-0.39063 0.85938,0 1.44532,0.54688 0.58593,0.54687 0.58593,1.46484 0,1.77735 -1.79687,1.99219 l -4.64844,0.41016 -9.02344,0.82031 q -0.0781,1.38672 -0.13671,2.63672 -0.0391,1.23047 -0.0391,2.30468 0,4.31641 0.625,5.07813 0.46875,0.54687 3.06641,0.54687 1.21094,0 3.63281,-0.0586 2.44141,-0.0781 3.67188,-0.0781 0.39062,0 1.15234,-0.11719 0.76172,-0.13672 1.13281,-0.13672 2.07032,0 2.07032,2.03125 0,1.64062 -1.66016,1.97266 -1.83594,0.37109 -7.94922,0.37109 -6.05469,0 -7.77344,-1.60156 -1.875,-1.73828 -1.875,-8.00782 0,-1.25 0.0586,-2.73437 0.0586,-1.48438 0.15625,-3.20313 -0.21485,-0.44921 -0.21485,-0.95703 0,-0.66406 0.3711,-1.1914 0.39062,-5.64453 0.39062,-8.33985 0,-0.72265 -0.19531,-2.10937 -0.19531,-1.40625 -0.19531,-2.12891 0,-2.32422 1.95312,-2.32422 0.82031,0 1.40625,0.56641 2.34375,-0.625 4.41406,-0.9375 2.08985,-0.3125 3.92579,-0.3125 4.74609,0 7.57812,1.13281 1.30859,0.52735 1.30859,1.875 0,0.78125 -0.50781,1.38672 -0.5664,0.66406 -1.40625,0.66406 z" />
        <path
           inkscape:connector-curvature="0"
           id="path884"
           style="font-style:normal;font-variant:normal;font-weight:normal;font-stretch:normal;font-family:'Comic Sans MS';-inkscape-font-specification:'Comic Sans MS';fill:#ffffff"
           d="m 237.07812,385.38575 q 0,0.9375 -0.3125,3.125 -0.3125,1.97265 -2.08984,1.97265 -1.07422,0 -2.55859,-1.40625 -7.94922,-7.51953 -18.24219,-21.69921 l -0.0977,4.43359 -0.0586,4.45312 q 0,1.6211 0.0586,4.86329 0.0781,3.24218 0.0781,4.88281 0,5.2539 -2.03125,5.2539 -1.07422,0 -1.69922,-0.68359 -0.56641,-0.60547 -0.56641,-1.44531 0,-0.82031 0.11719,-2.48047 0.13672,-1.66016 0.13672,-2.48047 0,-1.21094 0.0781,-3.61328 0.0781,-2.42188 0.0781,-3.63281 0,-1.28907 -0.0586,-3.88672 -0.0586,-2.61719 -0.0586,-3.90625 0,-1.23047 -0.23437,-3.65235 -0.23438,-2.4414 -0.23438,-3.67187 0,-0.89844 0.76172,-1.64063 0.78125,-0.74218 1.75781,-0.74218 1.03516,0 2.5586,2.26562 4.86328,7.28516 8.75,12.10938 4.6289,5.72265 10.15625,10.9375 0.0586,-0.83985 0,-2.48047 l -0.0586,-2.46094 q 0,-8.57422 -0.66406,-13.65234 -0.0781,-0.50782 -0.52734,-2.05078 -0.39063,-1.32813 -0.39063,-2.07032 0,-2.26562 2.07031,-2.26562 3.39844,0 3.39844,12.67578 0,2.16797 -0.0586,6.48437 -0.0586,4.29688 -0.0586,6.46485 z" />
        <path
           inkscape:connector-curvature="0"
           id="path886"
           style="font-style:normal;font-variant:normal;font-weight:normal;font-stretch:normal;font-family:'Comic Sans MS';-inkscape-font-specification:'Comic Sans MS';fill:#ffffff"
           d="m 265.45703,365.05372 q -1.44531,0 -4.45312,-0.23438 -2.92969,-0.21484 -4.45313,-0.19531 h -1.38672 q 0.0586,2.69531 0.52735,8.75 0.42968,5.64453 0.42968,8.76953 0,0.68359 0.13672,2.07031 0.13672,1.38672 0.13672,2.08985 0,1.32812 -0.42969,2.28515 -0.54687,1.28907 -1.69922,1.28907 -0.78125,0 -1.40625,-0.54688 -0.625,-0.54687 -0.625,-1.40625 0,-0.29297 0.0977,-0.87891 0.0977,-0.58593 0.0977,-0.8789 0,-0.95703 -0.13672,-2.8711 -0.11719,-1.91406 -0.11719,-2.89062 0,-2.79297 -0.44922,-7.85156 -0.46875,-5.46875 -0.52734,-7.85157 l -1.77735,0.0195 q -4.27734,0 -6.71875,-0.625 -1.58203,-0.41016 -1.58203,-1.9336 0,-0.80078 0.50782,-1.40625 0.58593,-0.68359 1.5039,-0.625 0.6836,0.0391 3.125,0.35156 1.95313,0.23438 3.16406,0.23438 1.17188,0 3.55469,-0.0391 2.38281,-0.0586 3.55469,-0.0586 1.50391,0 4.45312,0.21485 2.96875,0.21484 4.47266,0.21484 0.83984,0 1.40625,0.58594 0.56641,0.5664 0.56641,1.42578 0,0.83984 -0.56641,1.42578 -0.56641,0.56641 -1.40625,0.56641 z" />
      </g>
    </g>
  </g>
</svg>
