<?xml version="1.0" encoding="UTF-8" standalone="no"?>
<!-- Created with Inkscape (http://www.inkscape.org/) -->

<svg
   xmlns:dc="http://purl.org/dc/elements/1.1/"
   xmlns:cc="http://creativecommons.org/ns#"
   xmlns:rdf="http://www.w3.org/1999/02/22-rdf-syntax-ns#"
   xmlns:svg="http://www.w3.org/2000/svg"
   xmlns="http://www.w3.org/2000/svg"
   xmlns:xlink="http://www.w3.org/1999/xlink"
   xmlns:sodipodi="http://sodipodi.sourceforge.net/DTD/sodipodi-0.dtd"
   xmlns:inkscape="http://www.inkscape.org/namespaces/inkscape"
   width="512"
   height="512"
   id="svg2"
   version="1.1"
   inkscape:version="0.92.2 5c3e80d, 2017-08-06"
   sodipodi:docname="application-vnd.stardivision.mail.svg">
  <defs
     id="defs4">
    <radialGradient
       inkscape:collect="always"
       xlink:href="#SVGID_24_"
       id="radialGradient4031"
       gradientUnits="userSpaceOnUse"
       gradientTransform="matrix(0.205,0,0,-0.205,-254.2424,82.5027)"
       cx="1311.9355"
       cy="-1874.3018"
       r="8.5094995" />
    <radialGradient
       id="SVGID_24_"
       cx="1311.9355"
       cy="-1874.3018"
       r="8.5094995"
       gradientTransform="matrix(0.205,0,0,-0.205,-254.2424,82.5027)"
       gradientUnits="userSpaceOnUse">
      <stop
         offset="0"
         stop-color="#600000"
         id="stop222" />
      <stop
         offset="0.5"
         stop-color="#C00000"
         id="stop224" />
      <stop
         offset="1"
         stop-color="#F6AA00"
         id="stop226" />
    </radialGradient>
    <radialGradient
       inkscape:collect="always"
       xlink:href="#SVGID_25_"
       id="radialGradient4033"
       gradientUnits="userSpaceOnUse"
       gradientTransform="matrix(0.205,0,0,-0.205,-254.2424,82.5027)"
       cx="1312.9648"
       cy="-1872.2422"
       r="3.7997" />
    <radialGradient
       id="SVGID_25_"
       cx="1312.9648"
       cy="-1872.2422"
       r="3.7997"
       gradientTransform="matrix(0.205,0,0,-0.205,-254.2424,82.5027)"
       gradientUnits="userSpaceOnUse">
      <stop
         offset="0.01"
         stop-color="#FFF"
         id="stop231" />
      <stop
         offset="1"
         stop-color="#000"
         id="stop233" />
    </radialGradient>
    <radialGradient
       inkscape:collect="always"
       xlink:href="#SVGID_26_"
       id="radialGradient4035"
       gradientUnits="userSpaceOnUse"
       gradientTransform="matrix(0.205,0,0,-0.205,-254.2424,82.5027)"
       cx="1304.8555"
       cy="-1894.6313"
       r="12.9691" />
    <radialGradient
       id="SVGID_26_"
       cx="1304.8555"
       cy="-1894.6313"
       r="12.9691"
       gradientTransform="matrix(0.205,0,0,-0.205,-254.2424,82.5027)"
       gradientUnits="userSpaceOnUse">
      <stop
         offset="0"
         stop-color="#769EB8"
         id="stop238" />
      <stop
         offset="1"
         stop-color="#FFF"
         id="stop240" />
    </radialGradient>
    <radialGradient
       inkscape:collect="always"
       xlink:href="#SVGID_27_"
       id="radialGradient4037"
       gradientUnits="userSpaceOnUse"
       gradientTransform="matrix(0.205,0,0,-0.205,-254.2424,82.5027)"
       cx="1300.6055"
       cy="-1889.6313"
       r="3.7781999" />
    <radialGradient
       id="SVGID_27_"
       cx="1300.6055"
       cy="-1889.6313"
       r="3.7781999"
       gradientTransform="matrix(0.205,0,0,-0.205,-254.2424,82.5027)"
       gradientUnits="userSpaceOnUse">
      <stop
         offset="0.01"
         stop-color="#FFF"
         id="stop247" />
      <stop
         offset="1"
         stop-color="#000"
         id="stop249" />
    </radialGradient>
    <radialGradient
       r="3.7781999"
       cy="-1889.6313"
       cx="1300.6055"
       gradientTransform="matrix(0.205,0,0,-0.205,-254.2424,82.5027)"
       gradientUnits="userSpaceOnUse"
       id="radialGradient3158"
       xlink:href="#SVGID_27_"
       inkscape:collect="always" />
    <radialGradient
       id="SVGID_26_-6"
       cx="1304.8555"
       cy="-1894.6313"
       r="12.9691"
       gradientTransform="matrix(0.205,0,0,-0.205,-254.2424,82.5027)"
       gradientUnits="userSpaceOnUse">
      <stop
         offset="0"
         stop-color="#769EB8"
         id="stop238-7" />
      <stop
         offset="1"
         stop-color="#FFF"
         id="stop240-5" />
    </radialGradient>
    <radialGradient
       id="SVGID_27_-5"
       cx="1300.6055"
       cy="-1889.6313"
       r="3.7781999"
       gradientTransform="matrix(0.205,0,0,-0.205,-254.2424,82.5027)"
       gradientUnits="userSpaceOnUse">
      <stop
         offset="0.01"
         stop-color="#FFF"
         id="stop247-6" />
      <stop
         offset="1"
         stop-color="#000"
         id="stop249-2" />
    </radialGradient>
  </defs>
  <sodipodi:namedview
     id="base"
     pagecolor="#ffffff"
     bordercolor="#666666"
     borderopacity="1.0"
     inkscape:pageopacity="0.0"
     inkscape:pageshadow="2"
     inkscape:zoom="0.60666663"
     inkscape:cx="241.19945"
     inkscape:cy="276.95216"
     inkscape:document-units="px"
     inkscape:current-layer="layer1"
     showgrid="false"
     inkscape:window-width="1366"
     inkscape:window-height="717"
     inkscape:window-x="0"
     inkscape:window-y="24"
     inkscape:window-maximized="1" />
  <metadata
     id="metadata7">
    <rdf:RDF>
      <cc:Work
         rdf:about="">
        <dc:format>image/svg+xml</dc:format>
        <dc:type
           rdf:resource="http://purl.org/dc/dcmitype/StillImage" />
        <dc:title />
      </cc:Work>
    </rdf:RDF>
  </metadata>
  <g
     inkscape:label="Layer 1"
     inkscape:groupmode="layer"
     id="layer1"
     transform="translate(0,-540.36218)">
    <g
       id="g876">
      <path
         id="path943"
         d="m 432.91326,596.83616 c 102.19291,88.57459 105.82678,249.69971 8.1168,359.89879 C 343.32009,1066.934 181.27965,1084.4628 79.086737,995.8882 -23.106204,907.31362 -26.740031,746.1885 70.969937,635.98942 168.67991,525.79034 330.72036,508.26157 432.91326,596.83616 Z"
         inkscape:connector-curvature="0"
         style="fill:#3689e6;fill-opacity:1;stroke-width:11.10955811" />
      <path
         sodipodi:nodetypes="csscc"
         inkscape:connector-curvature="0"
         id="path945"
         d="m 8.3652412,882.3622 c 11.5841018,43.15173 35.1863068,82.72637 70.7207058,113.5254 102.192913,88.5746 264.233393,71.0467 361.943363,-39.15235 20.35102,-22.95224 36.28955,-48.11807 47.87304,-74.37305 z"
         style="fill:#0d52bf;fill-opacity:1;stroke:none;stroke-width:0.99999994px;stroke-linecap:butt;stroke-linejoin:miter;stroke-opacity:1" />
      <path
         id="path947"
         d="m 511.6355,765.26571 c -1.55139,61.31164 -25.16123,124.1546 -70.96638,175.81447 C 342.95915,1051.2793 180.9187,1068.808 78.725757,980.23348 30.827126,938.71783 4.4968192,881.28503 0.19382718,820.591 0.79908118,886.94767 27.117406,950.84437 79.078687,995.8813 181.2716,1084.4558 343.31975,1066.9184 441.02201,956.72796 490.72696,900.66985 514.02703,831.43699 511.6355,765.26571 Z"
         inkscape:connector-curvature="0"
         style="opacity:1;stroke-width:11.10955811;fill:#000000;fill-opacity:0.49019608" />
      <path
         style="fill:#000000;fill-opacity:0.49019608;stroke-width:0.61158442"
         d="m 156.74536,891.77289 c -1.34617,-0.42428 -3.21356,-1.17365 -4.14973,-1.66523 l -1.70217,-0.89382 42.53232,-43.02726 42.53236,-43.0273 9.62504,9.43136 c 5.29371,5.18728 11.11568,10.37591 12.93748,11.53054 10.12778,6.41845 22.36248,6.9911 33.12636,1.55036 2.95137,-1.49176 6.14776,-4.23917 14.06567,-12.08984 l 10.24636,-10.15941 42.879,42.72135 42.87795,42.72237 -3.22578,1.53408 -3.22588,1.5342 -118.03544,0.30448 c -93.87638,0.24286 -118.53695,0.14724 -120.48354,-0.46615 z M 140.64417,877.5657 c -1.89789,-4.84779 -1.96882,-7.68654 -2.09394,-83.77391 -0.12382,-75.93166 -0.10736,-77.21175 1.11443,-81.1897 0.6827,-2.22295 1.47334,-4.04212 1.75693,-4.04255 0.35758,-6.7e-4 67.29201,67.00206 85.01558,85.10146 0.0706,0.0723 -19.05104,19.3707 -42.49265,42.88562 -42.60351,42.73667 -42.62155,42.75369 -43.30048,41.01924 z m 227.36596,-41.19091 -42.51911,-42.38625 42.36877,-42.92949 c 23.30284,-23.61126 42.54445,-42.92975 42.75921,-42.92995 0.21454,-3e-4 0.91215,1.58101 1.54996,3.5141 1.11196,3.37046 1.16473,6.72923 1.28489,81.7975 0.11993,75.06832 0.0779,78.42718 -1.02315,81.8012 -0.63161,1.9351 -1.3178,3.51867 -1.52497,3.51904 -0.20721,4e-4 -19.51028,-19.07324 -42.89562,-42.38581 z m -97.12847,-21.22684 c -1.40535,-0.45726 -3.47096,-1.40332 -4.59024,-2.10233 -1.11933,-0.69894 -27.62596,-26.7927 -58.90372,-57.98599 l -56.86865,-56.71503 3.26185,-1.47961 3.26182,-1.47953 117.4238,-0.35123 c 116.06079,-0.34705 117.46997,-0.33683 121.40106,0.86974 2.1875,0.6715 4.28837,1.42957 4.66856,1.68471 0.43521,0.29183 -20.37753,21.74086 -56.17321,57.89022 -48.25894,48.73574 -57.32548,57.62616 -59.91045,58.74697 -3.75848,1.62965 -10.07641,2.05883 -13.5708,0.92188 z"
         id="path889"
         inkscape:connector-curvature="0" />
      <path
         inkscape:connector-curvature="0"
         id="path844"
         d="m 136.74536,871.77289 c -1.34617,-0.42428 -3.21356,-1.17365 -4.14973,-1.66523 l -1.70217,-0.89382 42.53232,-43.02726 42.53236,-43.0273 9.62504,9.43136 c 5.29371,5.18728 11.11568,10.37591 12.93748,11.53054 10.12778,6.41845 22.36248,6.9911 33.12636,1.55036 2.95137,-1.49176 6.14776,-4.23917 14.06567,-12.08984 l 10.24636,-10.15941 42.879,42.72135 42.87795,42.72237 -3.22578,1.53408 -3.22588,1.5342 -118.03544,0.30448 c -93.87638,0.24286 -118.53695,0.14724 -120.48354,-0.46615 z M 120.64417,857.5657 c -1.89789,-4.84779 -1.96882,-7.68654 -2.09394,-83.77391 -0.12382,-75.93166 -0.10736,-77.21175 1.11443,-81.1897 0.6827,-2.22295 1.47334,-4.04212 1.75693,-4.04255 0.35758,-6.7e-4 67.29201,67.00206 85.01558,85.10146 0.0706,0.0723 -19.05104,19.3707 -42.49265,42.88562 -42.60351,42.73667 -42.62155,42.75369 -43.30048,41.01924 z m 227.36596,-41.19091 -42.51911,-42.38625 42.36877,-42.92949 c 23.30284,-23.61126 42.54445,-42.92975 42.75921,-42.92995 0.21454,-3e-4 0.91215,1.58101 1.54996,3.5141 1.11196,3.37046 1.16473,6.72923 1.28489,81.7975 0.11993,75.06832 0.0779,78.42718 -1.02315,81.8012 -0.63161,1.9351 -1.3178,3.51867 -1.52497,3.51904 -0.20721,4e-4 -19.51028,-19.07324 -42.89562,-42.38581 z m -97.12847,-21.22684 c -1.40535,-0.45726 -3.47096,-1.40332 -4.59024,-2.10233 -1.11933,-0.69894 -27.62596,-26.7927 -58.90372,-57.98599 l -56.86865,-56.71503 3.26185,-1.47961 3.26182,-1.47953 117.4238,-0.35123 c 116.06079,-0.34705 117.46997,-0.33683 121.40106,0.86974 2.1875,0.6715 4.28837,1.42957 4.66856,1.68471 0.43521,0.29183 -20.37753,21.74086 -56.17321,57.89022 -48.25894,48.73574 -57.32548,57.62616 -59.91045,58.74697 -3.75848,1.62965 -10.07641,2.05883 -13.5708,0.92188 z"
         style="fill:#ffffff;stroke-width:0.61158442" />
      <g
         aria-label="SMD"
         transform="translate(4.1939021,565.80503)"
         style="font-style:normal;font-weight:normal;font-size:40px;line-height:1.25;font-family:sans-serif;letter-spacing:0px;word-spacing:0px;fill:#000000;fill-opacity:0.49019608;stroke:none"
         id="g912">
        <path
           d="m 148.30794,422.29934 q -0.0553,-2.32422 1.54948,-3.76302 1.66016,-1.49414 4.03972,-1.49414 2.71158,0 4.75911,3.09895 2.82227,4.20573 5.03581,5.69987 4.70377,3.09896 13.66862,3.09896 8.57747,0 15.9375,-3.70768 9.40755,-4.75912 9.40755,-13.22591 0,-6.97266 -7.91341,-11.01237 -6.69596,-3.48633 -16.54623,-3.76302 -8.74349,-0.33203 -14.88606,-3.81836 -7.85808,-4.48242 -7.85808,-12.83854 0,-9.85027 11.17839,-17.98503 10.68034,-7.69206 22.08008,-7.69206 5.36784,0 12.11914,1.82617 8.96484,2.37956 8.96484,6.08724 0,4.86979 -4.98047,4.86979 -2.21354,0 -7.74739,-1.1621 -5.53386,-1.21745 -8.57748,-1.16211 -8.63281,0.11067 -14.66471,4.26106 -6.19792,4.26107 -6.19792,10.34831 0,4.5931 8.19011,6.47461 3.04362,0.7194 11.78711,1.32813 12.67252,0.94075 19.8112,7.96875 6.52994,6.41927 6.52994,15.6608 0,13.17058 -12.17448,21.02865 -10.56966,6.80664 -24.51497,6.80664 -10.12695,0 -18.53841,-3.8737 -10.29297,-4.75911 -10.45899,-13.05989 z"
           style="font-style:normal;font-variant:normal;font-weight:normal;font-stretch:normal;font-size:113.33333588px;font-family:'Comic Sans MS';-inkscape-font-specification:'Comic Sans MS';fill:#000000;fill-opacity:0.49019608"
           id="path906"
           inkscape:connector-curvature="0" />
        <path
           d="m 309.39844,440.67173 q -2.98828,0 -4.92513,-3.09896 -1.66015,-2.65625 -2.98828,-8.85416 l -1.99218,-9.51823 q -2.26888,-8.85417 -7.19402,-39.06901 l -11.0677,33.36914 -3.26498,10.51432 q -1.99219,6.25326 -4.15039,10.23763 -2.32422,4.20573 -6.25325,4.20573 -3.26498,0 -5.14649,-3.54167 -1.21745,-2.32421 -2.21354,-5.92122 l -1.60482,-6.14258 q -5.58919,-19.5345 -9.85026,-41.83594 l -1.99219,9.9056 -7.13867,29.21875 q -0.44271,5.14649 -2.76693,15.2181 -1.66015,4.31641 -5.47851,4.31641 -2.71159,0 -4.31641,-1.93685 -1.38346,-1.66016 -1.38346,-4.09505 0,-9.24154 3.81836,-22.6888 l 6.08724,-22.30144 3.20963,-17.43164 q 2.4349,-12.22982 5.14649,-15.99284 2.21354,-3.20963 5.47851,-3.20963 3.59701,0 5.36784,4.09505 2.15821,4.92513 4.64844,20.08789 2.93294,18.20638 9.13086,39.40104 8.1901,-21.30534 14.16667,-44.38151 l 1.66015,-8.07943 q 0.9961,-4.86979 2.60091,-7.85807 2.15821,-4.09505 5.92123,-4.09505 4.75911,0 7.24935,9.1862 0.88541,3.15429 2.1582,13.05989 3.26498,25.01302 8.13477,42.72136 l 2.71159,9.51823 q 2.10286,7.63672 2.10286,9.40755 0,2.37956 -1.82617,3.98438 -1.77084,1.60481 -4.03972,1.60481 z"
           style="font-style:normal;font-variant:normal;font-weight:normal;font-stretch:normal;font-size:113.33333588px;font-family:'Comic Sans MS';-inkscape-font-specification:'Comic Sans MS';fill:#000000;fill-opacity:0.49019608"
           id="path908"
           inkscape:connector-curvature="0" />
        <path
           d="m 379.06966,435.69126 q -8.57747,5.86589 -24.62565,5.86589 -4.03971,0 -9.24154,-1.27279 -6.25325,-1.49414 -9.40755,-3.87369 h -0.55338 q -2.37956,0 -3.98438,-1.66016 -1.60482,-1.66016 -1.60482,-4.03971 0,-5.81055 0.49805,-17.37631 0.55339,-11.62109 0.55339,-17.43164 0,-6.47461 -0.2767,-19.31315 -0.22135,-12.89388 -0.22135,-19.36849 0,-2.26888 2.32422,-4.75911 2.32422,-2.49024 4.64844,-2.49024 1.32812,0 8.85416,3.70768 8.52214,4.15039 9.85026,4.5931 15.71615,5.36784 26.78386,16.49089 13.00456,13.11523 13.00456,28.83138 0,9.46289 -4.48243,18.15104 -4.42708,8.68815 -12.11914,13.94531 z m -11.62109,-58.54817 q -5.64453,-3.70769 -26.06445,-12.72787 l 0.27669,15.9375 0.16601,15.88216 -0.88541,30.21485 q 0.38737,0.16601 1.16211,0.7194 4.86979,3.26497 12.28515,3.26497 12.61719,0 18.3724,-3.8737 5.36784,-3.65234 8.52213,-9.79492 3.20964,-6.19791 3.20964,-12.89388 0,-15.60547 -17.04427,-26.72851 z"
           style="font-style:normal;font-variant:normal;font-weight:normal;font-stretch:normal;font-size:113.33333588px;font-family:'Comic Sans MS';-inkscape-font-specification:'Comic Sans MS';fill:#000000;fill-opacity:0.49019608"
           id="path910"
           inkscape:connector-curvature="0" />
      </g>
      <g
         id="flowRoot891"
         style="font-style:normal;font-weight:normal;font-size:40px;line-height:1.25;font-family:sans-serif;letter-spacing:0px;word-spacing:0px;fill:#ffffff;fill-opacity:1;stroke:none"
         transform="translate(-15.806098,545.80503)"
         aria-label="SMD">
        <path
           inkscape:connector-curvature="0"
           id="path899"
           style="font-style:normal;font-variant:normal;font-weight:normal;font-stretch:normal;font-size:113.33333588px;font-family:'Comic Sans MS';-inkscape-font-specification:'Comic Sans MS';fill:#ffffff"
           d="m 148.30794,422.29934 q -0.0553,-2.32422 1.54948,-3.76302 1.66016,-1.49414 4.03972,-1.49414 2.71158,0 4.75911,3.09895 2.82227,4.20573 5.03581,5.69987 4.70377,3.09896 13.66862,3.09896 8.57747,0 15.9375,-3.70768 9.40755,-4.75912 9.40755,-13.22591 0,-6.97266 -7.91341,-11.01237 -6.69596,-3.48633 -16.54623,-3.76302 -8.74349,-0.33203 -14.88606,-3.81836 -7.85808,-4.48242 -7.85808,-12.83854 0,-9.85027 11.17839,-17.98503 10.68034,-7.69206 22.08008,-7.69206 5.36784,0 12.11914,1.82617 8.96484,2.37956 8.96484,6.08724 0,4.86979 -4.98047,4.86979 -2.21354,0 -7.74739,-1.1621 -5.53386,-1.21745 -8.57748,-1.16211 -8.63281,0.11067 -14.66471,4.26106 -6.19792,4.26107 -6.19792,10.34831 0,4.5931 8.19011,6.47461 3.04362,0.7194 11.78711,1.32813 12.67252,0.94075 19.8112,7.96875 6.52994,6.41927 6.52994,15.6608 0,13.17058 -12.17448,21.02865 -10.56966,6.80664 -24.51497,6.80664 -10.12695,0 -18.53841,-3.8737 -10.29297,-4.75911 -10.45899,-13.05989 z" />
        <path
           inkscape:connector-curvature="0"
           id="path901"
           style="font-style:normal;font-variant:normal;font-weight:normal;font-stretch:normal;font-size:113.33333588px;font-family:'Comic Sans MS';-inkscape-font-specification:'Comic Sans MS';fill:#ffffff"
           d="m 309.39844,440.67173 q -2.98828,0 -4.92513,-3.09896 -1.66015,-2.65625 -2.98828,-8.85416 l -1.99218,-9.51823 q -2.26888,-8.85417 -7.19402,-39.06901 l -11.0677,33.36914 -3.26498,10.51432 q -1.99219,6.25326 -4.15039,10.23763 -2.32422,4.20573 -6.25325,4.20573 -3.26498,0 -5.14649,-3.54167 -1.21745,-2.32421 -2.21354,-5.92122 l -1.60482,-6.14258 q -5.58919,-19.5345 -9.85026,-41.83594 l -1.99219,9.9056 -7.13867,29.21875 q -0.44271,5.14649 -2.76693,15.2181 -1.66015,4.31641 -5.47851,4.31641 -2.71159,0 -4.31641,-1.93685 -1.38346,-1.66016 -1.38346,-4.09505 0,-9.24154 3.81836,-22.6888 l 6.08724,-22.30144 3.20963,-17.43164 q 2.4349,-12.22982 5.14649,-15.99284 2.21354,-3.20963 5.47851,-3.20963 3.59701,0 5.36784,4.09505 2.15821,4.92513 4.64844,20.08789 2.93294,18.20638 9.13086,39.40104 8.1901,-21.30534 14.16667,-44.38151 l 1.66015,-8.07943 q 0.9961,-4.86979 2.60091,-7.85807 2.15821,-4.09505 5.92123,-4.09505 4.75911,0 7.24935,9.1862 0.88541,3.15429 2.1582,13.05989 3.26498,25.01302 8.13477,42.72136 l 2.71159,9.51823 q 2.10286,7.63672 2.10286,9.40755 0,2.37956 -1.82617,3.98438 -1.77084,1.60481 -4.03972,1.60481 z" />
        <path
           inkscape:connector-curvature="0"
           id="path903"
           style="font-style:normal;font-variant:normal;font-weight:normal;font-stretch:normal;font-size:113.33333588px;font-family:'Comic Sans MS';-inkscape-font-specification:'Comic Sans MS';fill:#ffffff"
           d="m 379.06966,435.69126 q -8.57747,5.86589 -24.62565,5.86589 -4.03971,0 -9.24154,-1.27279 -6.25325,-1.49414 -9.40755,-3.87369 h -0.55338 q -2.37956,0 -3.98438,-1.66016 -1.60482,-1.66016 -1.60482,-4.03971 0,-5.81055 0.49805,-17.37631 0.55339,-11.62109 0.55339,-17.43164 0,-6.47461 -0.2767,-19.31315 -0.22135,-12.89388 -0.22135,-19.36849 0,-2.26888 2.32422,-4.75911 2.32422,-2.49024 4.64844,-2.49024 1.32812,0 8.85416,3.70768 8.52214,4.15039 9.85026,4.5931 15.71615,5.36784 26.78386,16.49089 13.00456,13.11523 13.00456,28.83138 0,9.46289 -4.48243,18.15104 -4.42708,8.68815 -12.11914,13.94531 z m -11.62109,-58.54817 q -5.64453,-3.70769 -26.06445,-12.72787 l 0.27669,15.9375 0.16601,15.88216 -0.88541,30.21485 q 0.38737,0.16601 1.16211,0.7194 4.86979,3.26497 12.28515,3.26497 12.61719,0 18.3724,-3.8737 5.36784,-3.65234 8.52213,-9.79492 3.20964,-6.19791 3.20964,-12.89388 0,-15.60547 -17.04427,-26.72851 z" />
      </g>
    </g>
  </g>
</svg>
