<?xml version="1.0" encoding="UTF-8" standalone="no"?>
<!-- Created with Inkscape (http://www.inkscape.org/) -->

<svg
   xmlns:dc="http://purl.org/dc/elements/1.1/"
   xmlns:cc="http://creativecommons.org/ns#"
   xmlns:rdf="http://www.w3.org/1999/02/22-rdf-syntax-ns#"
   xmlns:svg="http://www.w3.org/2000/svg"
   xmlns="http://www.w3.org/2000/svg"
   xmlns:sodipodi="http://sodipodi.sourceforge.net/DTD/sodipodi-0.dtd"
   xmlns:inkscape="http://www.inkscape.org/namespaces/inkscape"
   width="512"
   height="512"
   id="svg2"
   version="1.1"
   inkscape:version="0.92.2 5c3e80d, 2017-08-06"
   sodipodi:docname="application-x-rpm.svg">
  <defs
     id="defs4" />
  <sodipodi:namedview
     id="base"
     pagecolor="#ffffff"
     bordercolor="#666666"
     borderopacity="1.0"
     inkscape:pageopacity="0.0"
     inkscape:pageshadow="2"
     inkscape:zoom="0.21448906"
     inkscape:cx="-274.66694"
     inkscape:cy="119.90446"
     inkscape:document-units="px"
     inkscape:current-layer="layer1"
     showgrid="false"
     inkscape:window-width="1366"
     inkscape:window-height="717"
     inkscape:window-x="0"
     inkscape:window-y="24"
     inkscape:window-maximized="1" />
  <metadata
     id="metadata7">
    <rdf:RDF>
      <cc:Work
         rdf:about="">
        <dc:format>image/svg+xml</dc:format>
        <dc:type
           rdf:resource="http://purl.org/dc/dcmitype/StillImage" />
        <dc:title></dc:title>
      </cc:Work>
    </rdf:RDF>
  </metadata>
  <g
     inkscape:label="Layer 1"
     inkscape:groupmode="layer"
     id="layer1"
     transform="translate(0,-540.36218)">
    <g
       id="g889">
      <path
         style="fill:#c6262e;fill-opacity:1;stroke-width:11.10955811"
         inkscape:connector-curvature="0"
         d="m 432.91326,596.83615 c 102.19291,88.57459 105.82678,249.69971 8.1168,359.89879 C 343.32009,1066.934 181.27965,1084.4628 79.086739,995.88819 -23.106204,907.31361 -26.740031,746.18849 70.969939,635.98941 168.67991,525.79033 330.72036,508.26156 432.91326,596.83615 Z"
         id="path925" />
      <path
         style="fill:#a10705;fill-opacity:1;stroke:none;stroke-width:0.99999994px;stroke-linecap:butt;stroke-linejoin:miter;stroke-opacity:1"
         d="M 8.3652387,882.36219 C 19.949339,925.51392 43.551549,965.08856 79.085949,995.88759 181.27886,1084.4622 343.31934,1066.9343 441.02931,956.73524 461.38033,933.783 477.31886,908.61717 488.90235,882.36219 Z"
         id="path927"
         inkscape:connector-curvature="0"
         sodipodi:nodetypes="csscc" />
      <path
         style="opacity:0.1;stroke-width:11.10955811"
         inkscape:connector-curvature="0"
         d="M 511.6355,765.2657 C 510.08411,826.57734 486.47427,889.4203 440.66912,941.08017 342.95915,1051.2793 180.9187,1068.808 78.725759,980.23347 30.827129,938.71782 4.4968187,881.28502 0.19382868,820.59099 0.79907868,886.94766 27.117409,950.84436 79.078689,995.88129 181.2716,1084.4558 343.31975,1066.9184 441.02201,956.72795 490.72696,900.66984 514.02703,831.43698 511.6355,765.2657 Z"
         id="path929" />
      <path
         style="fill:#b32229;fill-opacity:1;stroke-width:0.53774768"
         d="m 253.45387,881.78262 c -26.23324,-2.50123 -50.90965,-12.35099 -72.32706,-28.86987 -5.88087,-4.53581 -18.68679,-17.34173 -23.2226,-23.22261 -23.57889,-30.57104 -33.45256,-67.84668 -27.891,-105.2956 2.14134,-14.41873 6.09519,-26.8629 12.93241,-40.70289 7.17571,-14.52514 15.71097,-26.21428 27.49204,-37.65066 20.79904,-20.1905 46.52251,-32.9574 75.48775,-37.46555 10.79345,-1.6799 29.55686,-1.67834 40.33107,0.003 39.21295,6.12052 72.93505,27.7309 94.97345,60.86256 4.33559,6.51799 11.4038,20.51908 14.13986,28.00904 2.74784,7.52218 5.53358,18.51226 6.87172,27.11009 1.67798,10.78119 1.67798,29.54989 0,40.33108 -1.34158,8.61967 -4.13109,19.61515 -6.87774,27.11009 -2.36201,6.44546 -8.97426,19.98395 -12.36642,25.3203 -11.23861,17.67981 -27.86716,34.1585 -45.17909,44.77191 -24.98821,15.31957 -55.50165,22.44069 -84.36439,19.68877 z m 22.58541,-20.90849 c 22.0321,-2.01967 42.6661,-9.9756 60.49661,-23.3259 6.5517,-4.90548 17.4718,-15.82557 22.3773,-22.37727 17.16506,-22.92553 25.58721,-51.20039 23.42407,-78.63946 -2.27204,-28.81985 -13.76397,-53.88816 -33.96382,-74.08799 -13.25329,-13.25331 -28.0584,-22.47278 -45.32674,-28.22599 -28.26648,-9.41741 -58.98772,-7.72548 -85.89079,4.73031 -20.71303,9.58988 -38.74789,25.74343 -50.85859,45.55328 -12.19336,19.94506 -18.27887,45.25499 -16.4522,68.42555 2.27691,28.88187 13.71717,53.83572 33.96332,74.08186 7.38766,7.38766 13.95635,12.54841 22.59251,17.75 20.72785,12.48446 45.84399,18.29682 69.63833,16.11561 z m -41.64229,-24.10038 c -4.90322,-2.62962 -4.95296,-10.18583 -0.0837,-12.70385 4.96151,-2.56569 10.80142,0.90907 10.80142,6.42686 0,5.61354 -5.71447,8.96028 -10.71777,6.27699 z m 27.8748,-0.23442 c -4.235,-2.82077 -4.67801,-7.62026 -1.03923,-11.25903 1.84531,-1.84532 2.31567,-2.04313 4.85838,-2.04313 2.54271,0 3.01307,0.19781 4.85839,2.04313 1.28319,1.28318 2.18035,2.77459 2.41206,4.00972 0.75148,4.00575 -3.07903,8.46634 -7.27045,8.46634 -1.17242,0 -2.74369,-0.50071 -3.81915,-1.21703 z m 28.17834,0.1633 c -4.61298,-2.81269 -4.42252,-10.1768 0.32672,-12.63273 6.47397,-3.34782 13.25866,3.4826 9.82283,9.88907 -1.88694,3.51839 -6.73124,4.82793 -10.14955,2.74366 z M 214.7116,807.9358 c -1.70943,-1.70942 -1.71808,-4.07245 -0.0221,-6.04411 l 1.29781,-1.50879 h 50.10365 50.10366 l 1.2978,1.50879 c 1.69596,1.97166 1.68731,4.33469 -0.0221,6.04411 l -1.31996,1.31993 h -50.05942 -50.05942 z m -28.88694,-17.63567 c -1.51077,-1.14724 -2.08369,-3.45457 -1.32155,-5.32236 0.55001,-1.34795 2.31881,-2.59578 9.53698,-6.72803 9.48778,-5.43157 10.24648,-5.62631 12.76417,-3.27626 0.82764,0.77253 1.20994,1.74978 1.20994,3.09289 0,2.5798 -0.74638,3.21318 -10.06104,8.53789 -7.81665,4.46836 -10.16775,5.1848 -12.1285,3.69587 z m 148.21068,-3.79259 c -9.29034,-5.38199 -9.87277,-5.87807 -9.85055,-8.39008 0.0209,-2.35518 0.92253,-3.63645 3.09116,-4.39244 1.92203,-0.67002 1.816,-0.71655 12.57889,5.51982 5.9322,3.43731 7.45961,4.5686 7.90906,5.8579 0.63912,1.83333 0.35562,2.94847 -1.18465,4.65964 -1.96515,2.18318 -4.12368,1.6231 -12.54391,-3.25484 z m -72.15158,-1.45789 c -6.62851,-1.39056 -12.34871,-5.95963 -15.31281,-12.2313 -1.556,-3.2923 -1.71195,-4.09345 -1.70001,-8.73342 0.017,-6.59698 1.31771,-10.06365 5.45115,-14.52827 4.2592,-4.60045 8.49982,-6.58568 14.70082,-6.88216 l 4.71473,-0.22541 28.61595,-32.20189 c 15.73878,-17.71105 28.73541,-32.2019 28.88139,-32.2019 0.14599,0 -0.1971,0.78646 -0.7624,1.74768 -0.56532,0.96123 -10.17329,17.66744 -21.35106,37.12492 l -20.3232,35.37724 1.47914,4.54707 c 1.2685,3.89952 1.43573,5.12117 1.17427,8.57828 -0.82112,10.85696 -8.98488,19.02943 -19.83592,19.85706 -1.87384,0.14293 -4.45327,0.0404 -5.73205,-0.2279 z m -87.20992,-38.85082 c -2.7938,-1.44986 -3.32322,-5.14032 -1.06182,-7.40172 0.98585,-0.98585 1.8246,-1.06182 11.72304,-1.06182 10.44875,0 10.68451,0.0248 11.83044,1.24459 1.66574,1.7731 1.56712,4.64673 -0.21704,6.32458 -1.34875,1.26838 -1.65079,1.30757 -11.15826,1.44785 -7.19851,0.10622 -10.12603,-0.0395 -11.11636,-0.55348 z m 161.91083,0.092 c -1.84912,-0.73934 -2.70076,-2.08367 -2.72042,-4.29424 -0.0118,-1.32984 0.36671,-2.28339 1.22748,-3.09205 1.19084,-1.11873 1.70181,-1.16923 11.83044,-1.16923 9.82341,0 10.66235,0.0765 11.64767,1.06182 2.26251,2.26247 1.72902,5.97243 -1.06179,7.38404 -1.62287,0.82086 -18.91794,0.91151 -20.92338,0.10966 z M 202.14796,710.25678 c -0.71246,-0.28211 -4.86744,-2.57598 -9.2333,-5.0975 -6.53252,-3.77288 -8.03859,-4.87336 -8.50655,-6.21573 -1.24379,-3.56795 2.21739,-7.12416 5.65991,-5.81532 2.11037,0.80236 15.37139,8.58333 16.73624,9.82007 3.3392,3.02577 -0.45041,8.97389 -4.6563,7.30848 z m 125.24622,0.20598 c -1.90652,-0.68423 -3.22649,-2.50662 -3.22649,-4.45458 0,-1.35289 0.37627,-2.30447 1.20993,-3.05988 1.381,-1.25138 14.63711,-9.02198 16.78209,-9.8375 3.26505,-1.24137 6.91517,2.35976 5.68131,5.60507 -0.63664,1.67446 -2.68202,3.13506 -10.76738,7.68894 -7.07608,3.98542 -8.37004,4.52789 -9.67946,4.05795 z M 227.25729,683.28834 c -1.06744,-0.83517 -10.63913,-17.50731 -10.63913,-18.53143 0,-1.22076 1.50734,-3.76383 2.44395,-4.12324 1.88873,-0.72477 4.36507,-0.3277 5.46245,0.87589 0.60673,0.66546 3.06878,4.64846 5.47121,8.8511 4.81825,8.42871 5.30812,10.37826 3.12347,12.43064 -1.40131,1.31646 -4.48089,1.57759 -5.86195,0.49704 z m 71.72999,-0.5724 c -2.06551,-2.19864 -1.57099,-4.11279 3.20448,-12.40336 2.40554,-4.17619 4.86759,-8.13756 5.47122,-8.80302 1.09201,-1.20387 3.56686,-1.60112 5.45679,-0.87589 0.93662,0.35941 2.44396,2.90248 2.44396,4.12324 0,1.03324 -9.63022,17.69857 -10.69655,18.51064 -1.4813,1.1281 -4.5745,0.83792 -5.8799,-0.55161 z m -36.16353,-9.82102 c -1.25508,-1.33448 -1.31021,-1.7203 -1.47935,-10.35164 -0.20916,-10.67419 0.19973,-12.64282 2.89265,-13.92698 1.72008,-0.82025 1.9877,-0.82025 3.70778,0 2.69292,1.28416 3.1018,3.25279 2.89265,13.92698 -0.16914,8.63134 -0.22428,9.01716 -1.47935,10.35164 -0.93918,0.99859 -1.85266,1.38615 -3.26719,1.38615 -1.41454,0 -2.32801,-0.38756 -3.26719,-1.38615 z"
         id="path851"
         inkscape:connector-curvature="0" />
      <path
         inkscape:connector-curvature="0"
         id="path849"
         d="m 243.45387,871.78262 c -26.23324,-2.50123 -50.90965,-12.35099 -72.32706,-28.86987 -5.88087,-4.53581 -18.68679,-17.34173 -23.2226,-23.22261 -23.57889,-30.57104 -33.45256,-67.84668 -27.891,-105.2956 2.14134,-14.41873 6.09519,-26.8629 12.93241,-40.70289 7.17571,-14.52514 15.71097,-26.21428 27.49204,-37.65066 20.79904,-20.1905 46.52251,-32.9574 75.48775,-37.46555 10.79345,-1.6799 29.55686,-1.67834 40.33107,0.003 39.21295,6.12052 72.93505,27.7309 94.97345,60.86256 4.33559,6.51799 11.4038,20.51908 14.13986,28.00904 2.74784,7.52218 5.53358,18.51226 6.87172,27.11009 1.67798,10.78119 1.67798,29.54989 0,40.33108 -1.34158,8.61967 -4.13109,19.61515 -6.87774,27.11009 -2.36201,6.44546 -8.97426,19.98395 -12.36642,25.3203 -11.23861,17.67981 -27.86716,34.1585 -45.17909,44.77191 -24.98821,15.31957 -55.50165,22.44069 -84.36439,19.68877 z m 22.58541,-20.90849 c 22.0321,-2.01967 42.6661,-9.9756 60.49661,-23.3259 6.5517,-4.90548 17.4718,-15.82557 22.3773,-22.37727 17.16506,-22.92553 25.58721,-51.20039 23.42407,-78.63946 -2.27204,-28.81985 -13.76397,-53.88816 -33.96382,-74.08799 -13.25329,-13.25331 -28.0584,-22.47278 -45.32674,-28.22599 -28.26648,-9.41741 -58.98772,-7.72548 -85.89079,4.73031 -20.71303,9.58988 -38.74789,25.74343 -50.85859,45.55328 -12.19336,19.94506 -18.27887,45.25499 -16.4522,68.42555 2.27691,28.88187 13.71717,53.83572 33.96332,74.08186 7.38766,7.38766 13.95635,12.54841 22.59251,17.75 20.72785,12.48446 45.84399,18.29682 69.63833,16.11561 z m -41.64229,-24.10038 c -4.90322,-2.62962 -4.95296,-10.18583 -0.0837,-12.70385 4.96151,-2.56569 10.80142,0.90907 10.80142,6.42686 0,5.61354 -5.71447,8.96028 -10.71777,6.27699 z m 27.8748,-0.23442 c -4.235,-2.82077 -4.67801,-7.62026 -1.03923,-11.25903 1.84531,-1.84532 2.31567,-2.04313 4.85838,-2.04313 2.54271,0 3.01307,0.19781 4.85839,2.04313 1.28319,1.28318 2.18035,2.77459 2.41206,4.00972 0.75148,4.00575 -3.07903,8.46634 -7.27045,8.46634 -1.17242,0 -2.74369,-0.50071 -3.81915,-1.21703 z m 28.17834,0.1633 c -4.61298,-2.81269 -4.42252,-10.1768 0.32672,-12.63273 6.47397,-3.34782 13.25866,3.4826 9.82283,9.88907 -1.88694,3.51839 -6.73124,4.82793 -10.14955,2.74366 z M 204.7116,797.9358 c -1.70943,-1.70942 -1.71808,-4.07245 -0.0221,-6.04411 l 1.29781,-1.50879 h 50.10365 50.10366 l 1.2978,1.50879 c 1.69596,1.97166 1.68731,4.33469 -0.0221,6.04411 l -1.31996,1.31993 h -50.05942 -50.05942 z m -28.88694,-17.63567 c -1.51077,-1.14724 -2.08369,-3.45457 -1.32155,-5.32236 0.55001,-1.34795 2.31881,-2.59578 9.53698,-6.72803 9.48778,-5.43157 10.24648,-5.62631 12.76417,-3.27626 0.82764,0.77253 1.20994,1.74978 1.20994,3.09289 0,2.5798 -0.74638,3.21318 -10.06104,8.53789 -7.81665,4.46836 -10.16775,5.1848 -12.1285,3.69587 z m 148.21068,-3.79259 c -9.29034,-5.38199 -9.87277,-5.87807 -9.85055,-8.39008 0.0209,-2.35518 0.92253,-3.63645 3.09116,-4.39244 1.92203,-0.67002 1.816,-0.71655 12.57889,5.51982 5.9322,3.43731 7.45961,4.5686 7.90906,5.8579 0.63912,1.83333 0.35562,2.94847 -1.18465,4.65964 -1.96515,2.18318 -4.12368,1.6231 -12.54391,-3.25484 z m -72.15158,-1.45789 c -6.62851,-1.39056 -12.34871,-5.95963 -15.31281,-12.2313 -1.556,-3.2923 -1.71195,-4.09345 -1.70001,-8.73342 0.017,-6.59698 1.31771,-10.06365 5.45115,-14.52827 4.2592,-4.60045 8.49982,-6.58568 14.70082,-6.88216 l 4.71473,-0.22541 28.61595,-32.20189 c 15.73878,-17.71105 28.73541,-32.2019 28.88139,-32.2019 0.14599,0 -0.1971,0.78646 -0.7624,1.74768 -0.56532,0.96123 -10.17329,17.66744 -21.35106,37.12492 l -20.3232,35.37724 1.47914,4.54707 c 1.2685,3.89952 1.43573,5.12117 1.17427,8.57828 -0.82112,10.85696 -8.98488,19.02943 -19.83592,19.85706 -1.87384,0.14293 -4.45327,0.0404 -5.73205,-0.2279 z m -87.20992,-38.85082 c -2.7938,-1.44986 -3.32322,-5.14032 -1.06182,-7.40172 0.98585,-0.98585 1.8246,-1.06182 11.72304,-1.06182 10.44875,0 10.68451,0.0248 11.83044,1.24459 1.66574,1.7731 1.56712,4.64673 -0.21704,6.32458 -1.34875,1.26838 -1.65079,1.30757 -11.15826,1.44785 -7.19851,0.10622 -10.12603,-0.0395 -11.11636,-0.55348 z m 161.91083,0.092 c -1.84912,-0.73934 -2.70076,-2.08367 -2.72042,-4.29424 -0.0118,-1.32984 0.36671,-2.28339 1.22748,-3.09205 1.19084,-1.11873 1.70181,-1.16923 11.83044,-1.16923 9.82341,0 10.66235,0.0765 11.64767,1.06182 2.26251,2.26247 1.72902,5.97243 -1.06179,7.38404 -1.62287,0.82086 -18.91794,0.91151 -20.92338,0.10966 z M 192.14796,700.25678 c -0.71246,-0.28211 -4.86744,-2.57598 -9.2333,-5.0975 -6.53252,-3.77288 -8.03859,-4.87336 -8.50655,-6.21573 -1.24379,-3.56795 2.21739,-7.12416 5.65991,-5.81532 2.11037,0.80236 15.37139,8.58333 16.73624,9.82007 3.3392,3.02577 -0.45041,8.97389 -4.6563,7.30848 z m 125.24622,0.20598 c -1.90652,-0.68423 -3.22649,-2.50662 -3.22649,-4.45458 0,-1.35289 0.37627,-2.30447 1.20993,-3.05988 1.381,-1.25138 14.63711,-9.02198 16.78209,-9.8375 3.26505,-1.24137 6.91517,2.35976 5.68131,5.60507 -0.63664,1.67446 -2.68202,3.13506 -10.76738,7.68894 -7.07608,3.98542 -8.37004,4.52789 -9.67946,4.05795 z M 217.25729,673.28834 c -1.06744,-0.83517 -10.63913,-17.50731 -10.63913,-18.53143 0,-1.22076 1.50734,-3.76383 2.44395,-4.12324 1.88873,-0.72477 4.36507,-0.3277 5.46245,0.87589 0.60673,0.66546 3.06878,4.64846 5.47121,8.8511 4.81825,8.42871 5.30812,10.37826 3.12347,12.43064 -1.40131,1.31646 -4.48089,1.57759 -5.86195,0.49704 z m 71.72999,-0.5724 c -2.06551,-2.19864 -1.57099,-4.11279 3.20448,-12.40336 2.40554,-4.17619 4.86759,-8.13756 5.47122,-8.80302 1.09201,-1.20387 3.56686,-1.60112 5.45679,-0.87589 0.93662,0.35941 2.44396,2.90248 2.44396,4.12324 0,1.03324 -9.63022,17.69857 -10.69655,18.51064 -1.4813,1.1281 -4.5745,0.83792 -5.8799,-0.55161 z m -36.16353,-9.82102 c -1.25508,-1.33448 -1.31021,-1.7203 -1.47935,-10.35164 -0.20916,-10.67419 0.19973,-12.64282 2.89265,-13.92698 1.72008,-0.82025 1.9877,-0.82025 3.70778,0 2.69292,1.28416 3.1018,3.25279 2.89265,13.92698 -0.16914,8.63134 -0.22428,9.01716 -1.47935,10.35164 -0.93918,0.99859 -1.85266,1.38615 -3.26719,1.38615 -1.41454,0 -2.32801,-0.38756 -3.26719,-1.38615 z"
         style="fill:#ffffff;stroke-width:0.53774768" />
      <g
         aria-label="RPM"
         transform="translate(24.14453,528.07131)"
         style="font-style:normal;font-weight:normal;font-size:40px;line-height:1.25;font-family:sans-serif;letter-spacing:0px;word-spacing:0px;fill:#910605;fill-opacity:1;stroke:none"
         id="g874">
        <path
           d="m 188.19206,465.3065 q -2.10287,0 -3.92904,-1.77083 -18.31706,-18.09571 -40.72917,-24.34896 l 0.44271,10.84635 0.2767,10.90169 q 0,2.4349 -1.60482,4.03972 -1.54948,1.66015 -3.92904,1.66015 -2.37956,0 -3.98437,-1.66015 -1.54948,-1.60482 -1.54948,-4.03972 0,-4.37174 -0.44271,-13.00455 -0.38737,-8.68816 -0.38737,-13.0599 0,-5.09115 1.10677,-15.16276 1.10677,-10.07162 1.10677,-15.10742 0,-2.82227 -0.55338,-8.35612 -0.49805,-5.53386 -0.49805,-8.35612 0,-3.1543 1.77083,-5.53386 2.10287,-2.93294 5.81055,-2.65625 l 13.33659,1.05144 q 7.58138,0.94075 12.7832,3.70768 22.41211,11.89778 22.41211,29.05273 0,8.41146 -7.63672,14.88607 -6.14258,5.20182 -15.32877,7.91341 17.21028,9.24154 25.73242,19.47917 1.4388,1.77083 1.4388,3.76302 0,2.32422 -1.71549,4.03971 -1.66016,1.7155 -3.92904,1.7155 z m -35.25065,-73.15756 -8.19011,-0.66406 0.55339,6.69597 q 0.38737,4.09505 0.38737,6.69596 0,4.42708 -0.7194,11.01237 l -1.16211,11.01237 q 0.77474,0 2.37955,0.0553 1.66016,0.0553 2.49024,0.0553 14.11133,0 21.13932,-3.76302 3.09896,-1.7155 5.75521,-4.48243 2.93294,-3.09895 2.93294,-5.25716 0,-7.69205 -8.74349,-14.33268 -8.02408,-6.08724 -16.82291,-7.028 z"
           style="font-style:normal;font-variant:normal;font-weight:normal;font-stretch:normal;font-size:113.33333588px;font-family:'Comic Sans MS';-inkscape-font-specification:'Comic Sans MS';fill:#910605;fill-opacity:1"
           id="path868"
           inkscape:connector-curvature="0" />
        <path
           d="m 220.01172,432.21405 q -1.54947,0 -6.7513,-0.7194 -0.44271,8.35612 -0.44271,29.27409 0,2.21354 -1.4388,3.76302 -1.4388,1.49414 -3.597,1.49414 -2.21355,0 -3.65235,-1.49414 -1.4388,-1.54948 -1.4388,-3.76302 v -16.26953 q 0,-8.13477 0.99609,-22.91016 1.10678,-15.99284 1.21745,-22.91016 v -7.63672 q 0,-5.47851 0.66406,-7.96875 1.27279,-4.86979 5.42318,-4.20573 1.77084,-0.55338 5.03581,-0.83007 3.26497,-0.2767 8.02409,-0.2767 10.12695,0 18.98112,6.91732 9.73958,7.63672 9.73958,18.3724 0,13.72396 -10.40364,21.85872 -9.29688,7.30469 -22.35678,7.30469 z m 2.76693,-43.9388 q -2.43489,0 -4.37174,0.11067 -1.88151,0.11068 -3.20964,0.33204 l -0.11068,10.18229 -1.16211,22.02474 6.08724,0.7194 q 9.29688,0 15.66081,-4.70378 6.97266,-5.14648 6.97266,-13.88997 0,-6.19792 -6.64063,-10.68034 -6.14258,-4.09505 -13.22591,-4.09505 z"
           style="font-style:normal;font-variant:normal;font-weight:normal;font-stretch:normal;font-size:113.33333588px;font-family:'Comic Sans MS';-inkscape-font-specification:'Comic Sans MS';fill:#910605;fill-opacity:1"
           id="path870"
           inkscape:connector-curvature="0" />
        <path
           d="m 346.1836,469.29087 q -2.98828,0 -4.92513,-3.09895 -1.66016,-2.65625 -2.98828,-8.85417 l -1.99219,-9.51823 q -2.26888,-8.85417 -7.19401,-39.06901 l -11.06771,33.36914 -3.26497,10.51432 q -1.99219,6.25326 -4.15039,10.23763 -2.32422,4.20573 -6.25326,4.20573 -3.26497,0 -5.14648,-3.54166 -1.21745,-2.32422 -2.21354,-5.92123 l -1.60482,-6.14258 q -5.58919,-19.5345 -9.85026,-41.83594 l -1.99219,9.9056 -7.13867,29.21875 q -0.44271,5.14649 -2.76693,15.2181 -1.66016,4.31641 -5.47851,4.31641 -2.71159,0 -4.31641,-1.93685 -1.38346,-1.66016 -1.38346,-4.09505 0,-9.24154 3.81835,-22.6888 l 6.08724,-22.30144 3.20964,-17.43164 q 2.4349,-12.22982 5.14648,-15.99284 2.21355,-3.20963 5.47852,-3.20963 3.59701,0 5.36784,4.09505 2.1582,4.92513 4.64844,20.08789 2.93294,18.20638 9.13086,39.40104 8.1901,-21.30534 14.16666,-44.38151 l 1.66016,-8.07942 q 0.99609,-4.8698 2.60091,-7.85808 2.1582,-4.09505 5.92123,-4.09505 4.75911,0 7.24934,9.1862 0.88542,3.15429 2.15821,13.05989 3.26497,25.01303 8.13476,42.72136 l 2.71159,9.51823 q 2.10287,7.63672 2.10287,9.40755 0,2.37956 -1.82618,3.98438 -1.77083,1.60481 -4.03971,1.60481 z"
           style="font-style:normal;font-variant:normal;font-weight:normal;font-stretch:normal;font-size:113.33333588px;font-family:'Comic Sans MS';-inkscape-font-specification:'Comic Sans MS';fill:#910605;fill-opacity:1"
           id="path872"
           inkscape:connector-curvature="0" />
      </g>
      <g
         id="flowRoot853"
         style="font-style:normal;font-weight:normal;font-size:40px;line-height:1.25;font-family:sans-serif;letter-spacing:0px;word-spacing:0px;fill:#ffffff;fill-opacity:1;stroke:none"
         transform="translate(14.14453,518.07131)"
         aria-label="RPM">
        <path
           inkscape:connector-curvature="0"
           id="path861"
           style="font-style:normal;font-variant:normal;font-weight:normal;font-stretch:normal;font-size:113.33333588px;font-family:'Comic Sans MS';-inkscape-font-specification:'Comic Sans MS';fill:#ffffff"
           d="m 188.19206,465.3065 q -2.10287,0 -3.92904,-1.77083 -18.31706,-18.09571 -40.72917,-24.34896 l 0.44271,10.84635 0.2767,10.90169 q 0,2.4349 -1.60482,4.03972 -1.54948,1.66015 -3.92904,1.66015 -2.37956,0 -3.98437,-1.66015 -1.54948,-1.60482 -1.54948,-4.03972 0,-4.37174 -0.44271,-13.00455 -0.38737,-8.68816 -0.38737,-13.0599 0,-5.09115 1.10677,-15.16276 1.10677,-10.07162 1.10677,-15.10742 0,-2.82227 -0.55338,-8.35612 -0.49805,-5.53386 -0.49805,-8.35612 0,-3.1543 1.77083,-5.53386 2.10287,-2.93294 5.81055,-2.65625 l 13.33659,1.05144 q 7.58138,0.94075 12.7832,3.70768 22.41211,11.89778 22.41211,29.05273 0,8.41146 -7.63672,14.88607 -6.14258,5.20182 -15.32877,7.91341 17.21028,9.24154 25.73242,19.47917 1.4388,1.77083 1.4388,3.76302 0,2.32422 -1.71549,4.03971 -1.66016,1.7155 -3.92904,1.7155 z m -35.25065,-73.15756 -8.19011,-0.66406 0.55339,6.69597 q 0.38737,4.09505 0.38737,6.69596 0,4.42708 -0.7194,11.01237 l -1.16211,11.01237 q 0.77474,0 2.37955,0.0553 1.66016,0.0553 2.49024,0.0553 14.11133,0 21.13932,-3.76302 3.09896,-1.7155 5.75521,-4.48243 2.93294,-3.09895 2.93294,-5.25716 0,-7.69205 -8.74349,-14.33268 -8.02408,-6.08724 -16.82291,-7.028 z" />
        <path
           inkscape:connector-curvature="0"
           id="path863"
           style="font-style:normal;font-variant:normal;font-weight:normal;font-stretch:normal;font-size:113.33333588px;font-family:'Comic Sans MS';-inkscape-font-specification:'Comic Sans MS';fill:#ffffff"
           d="m 220.01172,432.21405 q -1.54947,0 -6.7513,-0.7194 -0.44271,8.35612 -0.44271,29.27409 0,2.21354 -1.4388,3.76302 -1.4388,1.49414 -3.597,1.49414 -2.21355,0 -3.65235,-1.49414 -1.4388,-1.54948 -1.4388,-3.76302 v -16.26953 q 0,-8.13477 0.99609,-22.91016 1.10678,-15.99284 1.21745,-22.91016 v -7.63672 q 0,-5.47851 0.66406,-7.96875 1.27279,-4.86979 5.42318,-4.20573 1.77084,-0.55338 5.03581,-0.83007 3.26497,-0.2767 8.02409,-0.2767 10.12695,0 18.98112,6.91732 9.73958,7.63672 9.73958,18.3724 0,13.72396 -10.40364,21.85872 -9.29688,7.30469 -22.35678,7.30469 z m 2.76693,-43.9388 q -2.43489,0 -4.37174,0.11067 -1.88151,0.11068 -3.20964,0.33204 l -0.11068,10.18229 -1.16211,22.02474 6.08724,0.7194 q 9.29688,0 15.66081,-4.70378 6.97266,-5.14648 6.97266,-13.88997 0,-6.19792 -6.64063,-10.68034 -6.14258,-4.09505 -13.22591,-4.09505 z" />
        <path
           inkscape:connector-curvature="0"
           id="path865"
           style="font-style:normal;font-variant:normal;font-weight:normal;font-stretch:normal;font-size:113.33333588px;font-family:'Comic Sans MS';-inkscape-font-specification:'Comic Sans MS';fill:#ffffff"
           d="m 346.1836,469.29087 q -2.98828,0 -4.92513,-3.09895 -1.66016,-2.65625 -2.98828,-8.85417 l -1.99219,-9.51823 q -2.26888,-8.85417 -7.19401,-39.06901 l -11.06771,33.36914 -3.26497,10.51432 q -1.99219,6.25326 -4.15039,10.23763 -2.32422,4.20573 -6.25326,4.20573 -3.26497,0 -5.14648,-3.54166 -1.21745,-2.32422 -2.21354,-5.92123 l -1.60482,-6.14258 q -5.58919,-19.5345 -9.85026,-41.83594 l -1.99219,9.9056 -7.13867,29.21875 q -0.44271,5.14649 -2.76693,15.2181 -1.66016,4.31641 -5.47851,4.31641 -2.71159,0 -4.31641,-1.93685 -1.38346,-1.66016 -1.38346,-4.09505 0,-9.24154 3.81835,-22.6888 l 6.08724,-22.30144 3.20964,-17.43164 q 2.4349,-12.22982 5.14648,-15.99284 2.21355,-3.20963 5.47852,-3.20963 3.59701,0 5.36784,4.09505 2.1582,4.92513 4.64844,20.08789 2.93294,18.20638 9.13086,39.40104 8.1901,-21.30534 14.16666,-44.38151 l 1.66016,-8.07942 q 0.99609,-4.8698 2.60091,-7.85808 2.1582,-4.09505 5.92123,-4.09505 4.75911,0 7.24934,9.1862 0.88542,3.15429 2.15821,13.05989 3.26497,25.01303 8.13476,42.72136 l 2.71159,9.51823 q 2.10287,7.63672 2.10287,9.40755 0,2.37956 -1.82618,3.98438 -1.77083,1.60481 -4.03971,1.60481 z" />
      </g>
    </g>
  </g>
</svg>
