<?xml version="1.0" encoding="UTF-8" standalone="no"?>
<!-- Created with Inkscape (http://www.inkscape.org/) -->

<svg
   xmlns:dc="http://purl.org/dc/elements/1.1/"
   xmlns:cc="http://creativecommons.org/ns#"
   xmlns:rdf="http://www.w3.org/1999/02/22-rdf-syntax-ns#"
   xmlns:svg="http://www.w3.org/2000/svg"
   xmlns="http://www.w3.org/2000/svg"
   xmlns:sodipodi="http://sodipodi.sourceforge.net/DTD/sodipodi-0.dtd"
   xmlns:inkscape="http://www.inkscape.org/namespaces/inkscape"
   width="512"
   height="512"
   id="svg2"
   version="1.1"
   inkscape:version="0.92.2 5c3e80d, 2017-08-06"
   sodipodi:docname="application-ogg.svg">
  <defs
     id="defs4" />
  <sodipodi:namedview
     id="base"
     pagecolor="#ffffff"
     bordercolor="#666666"
     borderopacity="1.0"
     inkscape:pageopacity="0.0"
     inkscape:pageshadow="2"
     inkscape:zoom="0.60666666"
     inkscape:cx="164.35945"
     inkscape:cy="291.25692"
     inkscape:document-units="px"
     inkscape:current-layer="layer1"
     showgrid="false"
     inkscape:window-width="1366"
     inkscape:window-height="717"
     inkscape:window-x="0"
     inkscape:window-y="24"
     inkscape:window-maximized="1" />
  <metadata
     id="metadata7">
    <rdf:RDF>
      <cc:Work
         rdf:about="">
        <dc:format>image/svg+xml</dc:format>
        <dc:type
           rdf:resource="http://purl.org/dc/dcmitype/StillImage" />
        <dc:title />
      </cc:Work>
    </rdf:RDF>
  </metadata>
  <g
     inkscape:label="Layer 1"
     inkscape:groupmode="layer"
     id="layer1"
     transform="translate(0,-540.36218)">
    <g
       id="g852">
      <path
         style="fill:#333333;fill-opacity:1;stroke-width:11.10955811"
         inkscape:connector-curvature="0"
         d="m 432.91326,596.83616 c 102.19291,88.57459 105.82678,249.69971 8.1168,359.89879 C 343.32009,1066.934 181.27965,1084.4628 79.086741,995.8882 -23.106205,907.31362 -26.740032,746.1885 70.969941,635.98942 168.67991,525.79034 330.72036,508.26157 432.91326,596.83616 Z"
         id="path961" />
      <path
         style="fill:#1a1a1a;fill-opacity:1;stroke:none;stroke-width:0.99999994px;stroke-linecap:butt;stroke-linejoin:miter;stroke-opacity:1"
         d="m 8.3652408,882.3622 c 11.5841002,43.15173 35.1863102,82.72637 70.7207102,113.5254 102.192909,88.5746 264.233389,71.0467 361.943359,-39.15235 20.35102,-22.95224 36.28955,-48.11807 47.87304,-74.37305 z"
         id="path963"
         inkscape:connector-curvature="0"
         sodipodi:nodetypes="csscc" />
      <path
         style="opacity:1;stroke-width:11.10955811;fill:#000000;fill-opacity:0.49019608"
         inkscape:connector-curvature="0"
         d="m 511.6355,765.26571 c -1.55139,61.31164 -25.16123,124.1546 -70.96638,175.81447 C 342.95915,1051.2793 180.9187,1068.808 78.725761,980.23348 30.827121,938.71783 4.4968208,881.28503 0.19383086,820.591 0.79908086,886.94767 27.117401,950.84437 79.078691,995.8813 181.2716,1084.4558 343.31975,1066.9184 441.02201,956.72796 490.72696,900.66985 514.02703,831.43699 511.6355,765.26571 Z"
         id="path965" />
      <path
         style="fill:#000000;fill-opacity:0.49019608;stroke-width:0.17679216"
         d="m 188.83646,892.31851 c -16.20903,-1.05558 -29.03515,-8.3021 -34.69676,-19.6031 -4.63027,-9.24238 -4.11859,-20.6577 1.39858,-31.20219 4.54532,-8.687 12.26877,-16.49762 21.90123,-22.14834 9.87905,-5.79545 20.91936,-8.92375 32.70039,-9.26582 7.24365,-0.21022 14.2424,0.95113 18.42618,3.05761 0.65392,0.32921 1.2307,0.59848 1.28175,0.59848 0.051,0 0.0928,-28.68973 0.0928,-63.75505 0,-56.6039 0.0307,-63.96579 0.2735,-65.63413 0.8276,-5.68589 3.2428,-11.29492 7.04031,-16.35033 1.4228,-1.89398 4.94225,-5.50459 6.82891,-7.00554 2.66541,-2.12059 6.19451,-4.19375 9.07024,-5.32839 0.50554,-0.19946 8.71571,-2.74885 18.2448,-5.66509 70.55547,-21.59332 103.54322,-31.66642 104.66484,-31.96015 2.31895,-0.60743 4.0169,-0.76799 7.0387,-0.66565 3.11924,0.10564 4.56278,0.39104 6.90039,1.36421 5.7502,2.39382 9.65443,7.46713 10.79944,14.03319 0.24464,1.40286 0.27357,11.16465 0.27263,92.0195 -0.002,95.54179 0.0296,91.51224 -0.72285,94.87006 -3.62358,16.17018 -18.07333,30.52183 -37.1822,36.92951 -15.54011,5.21107 -32.96535,4.46972 -45.53981,-1.93752 -3.91308,-1.99384 -7.10557,-4.35223 -10.07985,-7.44633 -3.74896,-3.89989 -6.16117,-8.12916 -7.50969,-13.16677 -1.34204,-5.01346 -1.34012,-11.25949 0.005,-16.6026 2.69102,-10.68842 10.35094,-20.88184 21.10563,-28.08631 9.02577,-6.04612 18.86123,-9.60138 30.15769,-10.90084 3.22114,-0.37063 10.56775,-0.42625 13.4362,-0.10198 5.35737,0.60597 10.52033,1.89917 14.09918,3.53155 l 1.19334,0.54427 -0.002,-43.43555 c 0,-28.65024 -0.0627,-43.82671 -0.18164,-44.58473 -0.38388,-2.44609 -1.80228,-4.34262 -3.85722,-5.15739 -0.8656,-0.34331 -1.3157,-0.3947 -3.38505,-0.38721 -2.07519,0.01 -2.59436,0.0723 -3.97783,0.49024 -1.41742,0.42881 -23.60314,7.37503 -53.12604,16.63336 -5.68829,1.7838 -18.89467,5.91955 -29.3475,9.19073 -10.45283,3.271 -20.11895,6.30526 -21.48024,6.74261 -3.76922,1.21115 -6.86645,3.01575 -9.35022,5.44782 -1.90805,1.86842 -3.04295,3.64605 -3.84508,6.0225 l -0.4177,1.23759 -0.0894,56.75031 -0.0894,56.7503 -0.41414,2.20987 c -1.94441,10.3757 -7.39365,19.55867 -16.02541,27.0058 -9.32493,8.04525 -21.28174,13.10586 -34.56287,14.62876 -2.34563,0.26892 -8.96693,0.4683 -11.0495,0.33274 z"
         id="path855"
         inkscape:connector-curvature="0" />
      <path
         inkscape:connector-curvature="0"
         id="path851"
         d="m 168.83646,872.31851 c -16.20903,-1.05558 -29.03515,-8.3021 -34.69676,-19.6031 -4.63027,-9.24238 -4.11859,-20.6577 1.39858,-31.20219 4.54532,-8.687 12.26877,-16.49762 21.90123,-22.14834 9.87905,-5.79545 20.91936,-8.92375 32.70039,-9.26582 7.24365,-0.21022 14.2424,0.95113 18.42618,3.05761 0.65392,0.32921 1.2307,0.59848 1.28175,0.59848 0.051,0 0.0928,-28.68973 0.0928,-63.75505 0,-56.6039 0.0307,-63.96579 0.2735,-65.63413 0.8276,-5.68589 3.2428,-11.29492 7.04031,-16.35033 1.4228,-1.89398 4.94225,-5.50459 6.82891,-7.00554 2.66541,-2.12059 6.19451,-4.19375 9.07024,-5.32839 0.50554,-0.19946 8.71571,-2.74885 18.2448,-5.66509 70.55547,-21.59332 103.54322,-31.66642 104.66484,-31.96015 2.31895,-0.60743 4.0169,-0.76799 7.0387,-0.66565 3.11924,0.10564 4.56278,0.39104 6.90039,1.36421 5.7502,2.39382 9.65443,7.46713 10.79944,14.03319 0.24464,1.40286 0.27357,11.16465 0.27263,92.0195 -0.002,95.54179 0.0296,91.51224 -0.72285,94.87006 -3.62358,16.17018 -18.07333,30.52183 -37.1822,36.92951 -15.54011,5.21107 -32.96535,4.46972 -45.53981,-1.93752 -3.91308,-1.99384 -7.10557,-4.35223 -10.07985,-7.44633 -3.74896,-3.89989 -6.16117,-8.12916 -7.50969,-13.16677 -1.34204,-5.01346 -1.34012,-11.25949 0.005,-16.6026 2.69102,-10.68842 10.35094,-20.88184 21.10563,-28.08631 9.02577,-6.04612 18.86123,-9.60138 30.15769,-10.90084 3.22114,-0.37063 10.56775,-0.42625 13.4362,-0.10198 5.35737,0.60597 10.52033,1.89917 14.09918,3.53155 l 1.19334,0.54427 -0.002,-43.43555 c 0,-28.65024 -0.0627,-43.82671 -0.18164,-44.58473 -0.38388,-2.44609 -1.80228,-4.34262 -3.85722,-5.15739 -0.8656,-0.34331 -1.3157,-0.3947 -3.38505,-0.38721 -2.07519,0.01 -2.59436,0.0723 -3.97783,0.49024 -1.41742,0.42881 -23.60314,7.37503 -53.12604,16.63336 -5.68829,1.7838 -18.89467,5.91955 -29.3475,9.19073 -10.45283,3.271 -20.11895,6.30526 -21.48024,6.74261 -3.76922,1.21115 -6.86645,3.01575 -9.35022,5.44782 -1.90805,1.86842 -3.04295,3.64605 -3.84508,6.0225 l -0.4177,1.23759 -0.0894,56.75031 -0.0894,56.7503 -0.41414,2.20987 c -1.94441,10.3757 -7.39365,19.55867 -16.02541,27.0058 -9.32493,8.04525 -21.28174,13.10586 -34.56287,14.62876 -2.34563,0.26892 -8.96693,0.4683 -11.0495,0.33274 z"
         style="fill:#ffffff;stroke-width:0.17679216" />
      <path
         inkscape:connector-curvature="0"
         id="path872"
         style="font-style:normal;font-variant:normal;font-weight:normal;font-stretch:normal;font-size:113.33333588px;line-height:1.25;font-family:'Comic Sans MS';-inkscape-font-specification:'Comic Sans MS';letter-spacing:0px;word-spacing:0px;fill:#000000;fill-opacity:0.49019608;stroke:none"
         d="m 194.96224,1006.0894 q -15.60546,0 -26.45182,-9.35222 Q 157,986.77625 157,971.0601 q 0,-19.14714 11.34441,-34.80794 12.67252,-17.37631 31.5983,-17.37631 18.20638,0 27.06055,8.19011 9.24154,8.52213 9.24154,26.89453 0,19.14714 -10.40365,34.53125 -11.95312,17.59766 -30.87891,17.59766 z m 4.98047,-75.86914 q -13.55794,0 -22.96549,13.5026 -8.68815,12.39583 -8.68815,27.33724 0,10.68034 7.91341,17.3763 7.58138,6.3086 18.75976,6.3086 13.44727,0 22.19076,-13.55795 7.80273,-12.11914 7.80273,-27.22656 0,-13.22591 -5.92122,-18.59375 -5.64453,-5.14648 -19.0918,-5.14648 z" />
      <path
         inkscape:connector-curvature="0"
         id="path874"
         style="font-style:normal;font-variant:normal;font-weight:normal;font-stretch:normal;font-size:113.33333588px;line-height:1.25;font-family:'Comic Sans MS';-inkscape-font-specification:'Comic Sans MS';letter-spacing:0px;word-spacing:0px;fill:#000000;fill-opacity:0.49019608;stroke:none"
         d="m 313.0547,969.23393 q -3.43099,16.98893 -14.44336,27.17122 -10.95703,10.12695 -25.89844,10.12695 -13.61328,0 -20.41992,-7.58137 -6.80664,-7.63672 -6.80664,-22.85482 0,-14.33269 6.7513,-29.49545 6.80664,-15.2181 17.43164,-24.57031 7.08333,-6.25325 14.99675,-6.25325 5.0358,0 13.28125,3.32031 10.07161,3.98437 10.07161,8.79883 0,2.26888 -1.66016,4.03971 -1.66015,1.77083 -3.98437,1.77083 -1.21745,0 -3.43099,-1.38346 -8.4668,-5.14648 -14.27734,-5.14648 -4.1504,0 -8.68816,4.3164 -2.26888,2.1582 -6.52994,7.85807 -12.78321,16.9336 -12.78321,36.7448 0,10.40364 3.20964,14.55403 3.48633,4.53776 12.83854,4.53776 9.9056,0 17.21029,-6.25325 7.69205,-6.64063 10.73567,-18.98112 -15.32877,0.77474 -26.2858,5.92122 -1.27279,0.60873 -2.49024,0.60873 -2.43489,0 -4.03971,-1.88151 -1.49414,-1.7155 -1.49414,-3.98438 0,-3.04362 2.93294,-4.86979 11.95313,-7.30469 41.22722,-7.30469 2.37955,0 3.98437,1.60482 1.60482,1.60482 1.60482,4.03971 0,3.59701 -3.04362,5.14649 z" />
      <path
         id="path876"
         d="m 330.76367,918.54382 c -1.58637,0 -2.9145,0.59092 -3.98437,1.77148 -1.06988,1.18056 -1.60547,2.52648 -1.60547,4.03907 0,1.69704 0.77474,3.19119 2.32422,4.48242 2.21354,1.84462 4.61089,4.50087 7.19336,7.96875 l 6.41992,8.6875 c 4.57465,5.46007 8.89106,10.903 12.94922,16.32617 l -20.75196,24.07227 -9.96093,11.12304 c -0.95921,1.18056 -1.43946,2.4336 -1.43946,3.76168 0,1.5495 0.57313,2.8974 1.7168,4.0411 1.14366,1.1436 2.47179,1.7148 3.98438,1.7148 1.47569,0 2.8216,-0.6087 4.03906,-1.8262 l 10.18164,-11.40036 19.03711,-22.02344 8.6875,12.45117 7.41601,11.39844 c 2.88213,4.32319 5.65709,7.76199 8.32813,10.32619 3.08297,-2.0637 6.13009,-4.2072 9.15039,-6.40431 -0.22362,-0.42713 -0.48329,-0.85132 -0.82227,-1.26563 -3.76302,-4.46398 -8.05968,-10.21918 -12.89257,-17.26562 l -12.17579,-17.81836 c 2.36112,-2.61936 4.88889,-5.8468 7.58203,-9.6836 l 6.91797,-10.18359 c 2.65626,-3.87369 6.45487,-8.79882 11.39844,-14.77539 0.99609,-1.21745 1.49414,-2.47049 1.49414,-3.76172 0,-1.54948 -0.57118,-2.89736 -1.71484,-4.04102 -1.14367,-1.14366 -2.47179,-1.71484 -3.98438,-1.71484 -2.43489,0 -7.74739,5.69987 -15.9375,17.09961 l -12.61718,17.59766 c -3.79992,-5.05426 -7.80208,-10.09007 -12.00782,-15.10743 -3.09896,-4.13194 -5.40538,-7.32378 -6.91797,-9.57421 -4.86978,-6.67752 -8.87195,-10.01563 -12.00781,-10.01563 z"
         style="font-style:normal;font-variant:normal;font-weight:normal;font-stretch:normal;font-size:113.33333588px;line-height:1.25;font-family:'Comic Sans MS';-inkscape-font-specification:'Comic Sans MS';letter-spacing:0px;word-spacing:0px;fill:#000000;fill-opacity:0.49019608;stroke:none"
         inkscape:connector-curvature="0" />
      <g
         id="flowRoot857"
         style="font-style:normal;font-weight:normal;font-size:40px;line-height:1.25;font-family:sans-serif;letter-spacing:0px;word-spacing:0px;fill:#000000;fill-opacity:1;stroke:none"
         transform="translate(44.328776,532.0023)"
         aria-label="OGX">
        <path
           inkscape:connector-curvature="0"
           id="path865"
           style="font-style:normal;font-variant:normal;font-weight:normal;font-stretch:normal;font-size:113.33333588px;font-family:'Comic Sans MS';-inkscape-font-specification:'Comic Sans MS';fill:#ffffff"
           d="m 130.63346,454.0871 q -15.60546,0 -26.45182,-9.35222 -11.510416,-9.96093 -11.510416,-25.67708 0,-19.14714 11.344406,-34.80794 12.67252,-17.37631 31.5983,-17.37631 18.20638,0 27.06055,8.19011 9.24154,8.52213 9.24154,26.89453 0,19.14714 -10.40365,34.53125 -11.95312,17.59766 -30.87891,17.59766 z m 4.98047,-75.86914 q -13.55794,0 -22.96549,13.5026 -8.68815,12.39583 -8.68815,27.33724 0,10.68034 7.91341,17.3763 7.58138,6.3086 18.75976,6.3086 13.44727,0 22.19076,-13.55795 7.80273,-12.11914 7.80273,-27.22656 0,-13.22591 -5.92122,-18.59375 -5.64453,-5.14648 -19.0918,-5.14648 z" />
        <path
           inkscape:connector-curvature="0"
           id="path867"
           style="font-style:normal;font-variant:normal;font-weight:normal;font-stretch:normal;font-size:113.33333588px;font-family:'Comic Sans MS';-inkscape-font-specification:'Comic Sans MS';fill:#ffffff"
           d="m 248.72592,417.23163 q -3.43099,16.98893 -14.44336,27.17122 -10.95703,10.12696 -25.89844,10.12696 -13.61328,0 -20.41992,-7.58138 -6.80664,-7.63672 -6.80664,-22.85482 0,-14.33269 6.7513,-29.49545 6.80664,-15.2181 17.43164,-24.57031 7.08333,-6.25325 14.99675,-6.25325 5.0358,0 13.28125,3.32031 10.07161,3.98437 10.07161,8.79883 0,2.26888 -1.66016,4.03971 -1.66015,1.77083 -3.98437,1.77083 -1.21745,0 -3.43099,-1.38346 -8.4668,-5.14648 -14.27734,-5.14648 -4.1504,0 -8.68816,4.3164 -2.26888,2.1582 -6.52994,7.85807 -12.78321,16.9336 -12.78321,36.7448 0,10.40364 3.20964,14.55403 3.48633,4.53776 12.83854,4.53776 9.9056,0 17.21029,-6.25325 7.69205,-6.64063 10.73567,-18.98112 -15.32877,0.77474 -26.2858,5.92122 -1.27279,0.60873 -2.49024,0.60873 -2.43489,0 -4.03971,-1.88151 -1.49414,-1.7155 -1.49414,-3.98438 0,-3.04362 2.93294,-4.86979 11.95313,-7.30469 41.22722,-7.30469 2.37955,0 3.98437,1.60482 1.60482,1.60482 1.60482,4.03971 0,3.59701 -3.04362,5.14649 z" />
        <path
           inkscape:connector-curvature="0"
           id="path869"
           style="font-style:normal;font-variant:normal;font-weight:normal;font-stretch:normal;font-size:113.33333588px;font-family:'Comic Sans MS';-inkscape-font-specification:'Comic Sans MS';fill:#ffffff"
           d="m 330.12891,376.05975 q -7.41536,8.96485 -11.39974,14.77539 l -6.91731,10.1823 q -4.03972,5.7552 -7.58139,9.68424 l 12.17448,17.81901 q 7.24935,10.56966 12.89388,17.26563 1.49415,1.82617 1.49415,3.81836 0,2.32421 -1.7155,4.03971 -1.66016,1.71549 -3.98437,1.71549 -2.10287,0 -3.92904,-1.71549 -4.09505,-3.8737 -8.52214,-10.51432 l -7.41536,-11.39974 -8.68815,-12.45118 -19.03646,22.02474 -10.18229,11.39974 q -1.82618,1.82618 -4.03972,1.82618 -2.26888,0 -3.98437,-1.7155 -1.7155,-1.71549 -1.7155,-4.03971 0,-1.99219 1.43881,-3.76302 l 9.96093,-11.12305 20.75196,-24.07227 q -6.08724,-8.13476 -12.94922,-16.32487 l -6.41927,-8.68815 q -3.8737,-5.20182 -7.19401,-7.96875 -2.32422,-1.93685 -2.32422,-4.48242 0,-2.26888 1.60482,-4.03971 1.60481,-1.77084 3.98437,-1.77084 4.70378,0 12.00846,10.01628 2.26888,3.37565 6.91732,9.57357 6.3086,7.52604 12.00847,15.10742 l 12.61718,-17.59766 q 12.28516,-17.09961 15.9375,-17.09961 2.26888,0 3.98438,1.7155 1.71549,1.71549 1.71549,4.03971 0,1.93685 -1.49414,3.76302 z" />
      </g>
    </g>
  </g>
</svg>
