<?xml version="1.0" encoding="UTF-8" standalone="no"?>
<!-- Created with Inkscape (http://www.inkscape.org/) -->

<svg
   xmlns:dc="http://purl.org/dc/elements/1.1/"
   xmlns:cc="http://creativecommons.org/ns#"
   xmlns:rdf="http://www.w3.org/1999/02/22-rdf-syntax-ns#"
   xmlns:svg="http://www.w3.org/2000/svg"
   xmlns="http://www.w3.org/2000/svg"
   xmlns:sodipodi="http://sodipodi.sourceforge.net/DTD/sodipodi-0.dtd"
   xmlns:inkscape="http://www.inkscape.org/namespaces/inkscape"
   width="512"
   height="512"
   id="svg2"
   version="1.1"
   inkscape:version="0.92.2 5c3e80d, 2017-08-06"
   sodipodi:docname="application-x-kexi-connectiondata.svg">
  <defs
     id="defs4" />
  <sodipodi:namedview
     id="base"
     pagecolor="#ffffff"
     bordercolor="#666666"
     borderopacity="1.0"
     inkscape:pageopacity="0.0"
     inkscape:pageshadow="2"
     inkscape:zoom="0.42897811"
     inkscape:cx="590.30086"
     inkscape:cy="234.42323"
     inkscape:document-units="px"
     inkscape:current-layer="layer1"
     showgrid="false"
     inkscape:window-width="1366"
     inkscape:window-height="717"
     inkscape:window-x="0"
     inkscape:window-y="24"
     inkscape:window-maximized="1" />
  <metadata
     id="metadata7">
    <rdf:RDF>
      <cc:Work
         rdf:about="">
        <dc:format>image/svg+xml</dc:format>
        <dc:type
           rdf:resource="http://purl.org/dc/dcmitype/StillImage" />
        <dc:title></dc:title>
      </cc:Work>
    </rdf:RDF>
  </metadata>
  <g
     inkscape:label="Layer 1"
     inkscape:groupmode="layer"
     id="layer1"
     transform="translate(0,-540.36218)">
    <g
       id="g893">
      <path
         style="fill:#7a36b1;fill-opacity:1;stroke-width:11.10955811"
         inkscape:connector-curvature="0"
         d="m 432.91326,596.83619 c 102.19291,88.57459 105.82678,249.69971 8.1168,359.89879 C 343.32009,1066.934 181.27965,1084.4628 79.086741,995.88823 -23.106205,907.31365 -26.740032,746.18853 70.969941,635.98945 168.67991,525.79037 330.72036,508.2616 432.91326,596.83619 Z"
         id="path949" />
      <path
         style="fill:#4c158a;fill-opacity:1;stroke:none;stroke-width:0.99999994px;stroke-linecap:butt;stroke-linejoin:miter;stroke-opacity:1"
         d="m 8.3652407,882.36223 c 11.5841013,43.15173 35.1863063,82.72637 70.7207063,113.5254 102.192913,88.57457 264.233393,71.04667 361.943363,-39.15235 20.35102,-22.95224 36.28955,-48.11807 47.87304,-74.37305 z"
         id="path951"
         inkscape:connector-curvature="0"
         sodipodi:nodetypes="csscc" />
      <path
         style="opacity:0.1;stroke-width:11.10955811"
         inkscape:connector-curvature="0"
         d="m 511.6355,765.26574 c -1.55139,61.31164 -25.16123,124.1546 -70.96638,175.81447 C 342.95915,1051.2793 180.9187,1068.808 78.725758,980.23351 30.827125,938.71786 4.4968189,881.28506 0.19382593,820.59103 0.79907993,886.9477 27.117405,950.8444 79.07869,995.88133 181.2716,1084.4558 343.31975,1066.9184 441.02201,956.72799 490.72696,900.66988 514.02703,831.43702 511.6355,765.26574 Z"
         id="path953" />
      <path
         inkscape:connector-curvature="0"
         id="path843"
         d="m 232.33361,880.96862 c -14.50445,-2.0403 -30.70945,-5.7495 -40.80014,-9.33882 -21.11001,-7.50879 -38.41829,-19.72712 -44.1018,-31.13247 -2.82326,-5.66555 -2.93167,-6.62923 -2.93167,-26.06066 0,-11.28371 0.45208,-20.17753 1.02565,-20.17753 0.56411,0 2.34148,2.24532 3.94974,4.9896 14.85379,25.34605 67.70122,42.18894 125.35834,39.95247 53.35367,-2.06941 95.65754,-18.1254 107.21482,-40.69207 1.51636,-2.9608 3.23532,-5.38332 3.81992,-5.38332 1.92645,0 2.58281,7.82965 2.07195,24.71544 -0.457,15.10465 -0.77421,17.17791 -3.41511,22.32034 -9.21701,17.94768 -35.75355,31.8249 -75.05016,39.24752 -16.44297,3.1057 -59.90307,3.9843 -77.14154,1.5595 z m 6.23334,-55.11166 c -35.00617,-3.51679 -67.43909,-15.46043 -82.72632,-30.4645 -10.08639,-9.89954 -10.71392,-11.89659 -11.12883,-35.41679 -0.23862,-13.52641 0.0351,-20.11669 0.83578,-20.11669 0.65486,0 2.45986,2.01055 4.0111,4.46786 9.84595,15.59705 35.51383,28.65185 69.06189,35.12535 66.88804,12.90678 145.1557,-4.2823 162.93384,-35.78337 1.88614,-3.3421 3.85944,-6.07651 4.38507,-6.07651 1.7257,0 2.52526,10.15149 2.00585,25.46673 -0.45812,13.50792 -0.82823,15.70738 -3.59447,21.36131 -14.26495,29.15652 -80.53226,47.99182 -145.78391,41.43661 z m 3.40001,-55.52745 c -44.90989,-3.96747 -83.12769,-20.70883 -93.8191,-41.09762 -2.85932,-5.45279 -3.06902,-6.88846 -3.44451,-23.58144 -0.48866,-21.72553 0.2395,-23.79893 5.48646,-15.62227 9.54295,14.87144 31.98622,26.30097 64.48564,32.84021 71.30945,14.34826 151.07941,-3.25074 168.27991,-37.12624 1.02865,-2.02583 2.28781,-3.68335 2.79818,-3.68335 1.44197,0 2.48299,30.57868 1.29044,37.90585 -5.41945,33.29843 -72.93732,56.73794 -145.07702,50.36486 z m 5.54598,-55.51967 c -46.72392,-2.97074 -89.33776,-21.16568 -99.20663,-42.35856 -13.52238,-29.03861 27.30978,-57.39165 92.39252,-64.15547 18.31846,-1.90377 53.82696,-0.76682 69.90967,2.23844 18.88789,3.52947 31.43803,7.48259 45.51764,14.33737 20.63024,10.04405 30.90792,22.03137 30.90792,36.04929 0,33.42614 -65.2115,58.61356 -139.52112,53.88893 z"
         style="fill:#6e31a0;fill-opacity:1;stroke-width:1" />
      <path
         style="fill:#ffffff;fill-opacity:1;stroke-width:1"
         d="m 222.33361,870.96862 c -14.50445,-2.0403 -30.70945,-5.7495 -40.80014,-9.33882 -21.11001,-7.50879 -38.41829,-19.72712 -44.1018,-31.13247 -2.82326,-5.66555 -2.93167,-6.62923 -2.93167,-26.06066 0,-11.28371 0.45208,-20.17753 1.02565,-20.17753 0.56411,0 2.34148,2.24532 3.94974,4.9896 14.85379,25.34605 67.70122,42.18894 125.35834,39.95247 53.35367,-2.06941 95.65754,-18.1254 107.21482,-40.69207 1.51636,-2.9608 3.23532,-5.38332 3.81992,-5.38332 1.92645,0 2.58281,7.82965 2.07195,24.71544 -0.457,15.10465 -0.77421,17.17791 -3.41511,22.32034 -9.21701,17.94768 -35.75355,31.8249 -75.05016,39.24752 -16.44297,3.1057 -59.90307,3.9843 -77.14154,1.5595 z m 6.23334,-55.11166 c -35.00617,-3.51679 -67.43909,-15.46043 -82.72632,-30.4645 -10.08639,-9.89954 -10.71392,-11.89659 -11.12883,-35.41679 -0.23862,-13.52641 0.0351,-20.11669 0.83578,-20.11669 0.65486,0 2.45986,2.01055 4.0111,4.46786 9.84595,15.59705 35.51383,28.65185 69.06189,35.12535 66.88804,12.90678 145.1557,-4.2823 162.93384,-35.78337 1.88614,-3.3421 3.85944,-6.07651 4.38507,-6.07651 1.7257,0 2.52526,10.15149 2.00585,25.46673 -0.45812,13.50792 -0.82823,15.70738 -3.59447,21.36131 -14.26495,29.15652 -80.53226,47.99182 -145.78391,41.43661 z m 3.40001,-55.52745 c -44.90989,-3.96747 -83.12769,-20.70883 -93.8191,-41.09762 -2.85932,-5.45279 -3.06902,-6.88846 -3.44451,-23.58144 -0.48866,-21.72553 0.2395,-23.79893 5.48646,-15.62227 9.54295,14.87144 31.98622,26.30097 64.48564,32.84021 71.30945,14.34826 151.07941,-3.25074 168.27991,-37.12624 1.02865,-2.02583 2.28781,-3.68335 2.79818,-3.68335 1.44197,0 2.48299,30.57868 1.29044,37.90585 -5.41945,33.29843 -72.93732,56.73794 -145.07702,50.36486 z m 5.54598,-55.51967 c -46.72392,-2.97074 -89.33776,-21.16568 -99.20663,-42.35856 -13.52238,-29.03861 27.30978,-57.39165 92.39252,-64.15547 18.31846,-1.90377 53.82696,-0.76682 69.90967,2.23844 18.88789,3.52947 31.43803,7.48259 45.51764,14.33737 20.63024,10.04405 30.90792,22.03137 30.90792,36.04929 0,33.42614 -65.2115,58.61356 -139.52112,53.88893 z"
         id="path3026"
         inkscape:connector-curvature="0" />
      <g
         aria-label="KEXIC"
         transform="matrix(0.92017179,0,0,0.92017179,2.3892476,570.5949)"
         style="font-style:normal;font-weight:normal;font-size:40px;line-height:1.25;font-family:sans-serif;letter-spacing:0px;word-spacing:0px;fill:#45137c;fill-opacity:1;stroke:none"
         id="g874">
        <path
           d="m 157.04948,459.97251 q -8.41146,0 -23.96159,-14.77539 l -16.54622,-16.6569 v 0.77474 l -0.0553,28.9974 q 0,5.47851 -4.81445,5.47851 -3.1543,0 -5.03581,-2.76692 -1.54948,-2.26888 -1.54948,-4.92513 0,-12.94922 0.77474,-38.73698 0.77474,-25.78776 0.77474,-38.68165 0,-2.37955 1.54948,-4.03971 1.60481,-1.66016 3.92903,-1.66016 2.37956,0 3.92904,1.66016 1.60482,1.66016 1.60482,4.03971 0,5.36784 -0.66406,16.71224 -0.66407,10.95704 -0.60873,16.76758 7.41537,-7.02799 16.76758,-17.65299 l 15.88216,-18.42774 q 1.88151,-2.1582 4.20573,-2.1582 2.21354,0 3.92904,1.66016 1.71549,1.66015 1.71549,4.03971 0,3.65234 -14.27734,19.47917 -9.85026,10.79101 -20.36459,21.13932 6.64063,6.97266 20.8073,20.03255 l 5.81054,4.86979 q 3.1543,2.4349 6.80664,3.65235 4.37175,1.4388 4.37175,5.47851 0,1.88151 -1.16211,3.59701 -1.4388,2.10286 -3.81836,2.10286 z"
           style="font-style:normal;font-variant:normal;font-weight:normal;font-stretch:normal;font-size:113.33333588px;font-family:'Comic Sans MS';-inkscape-font-specification:'Comic Sans MS';fill:#45137c;fill-opacity:1"
           id="path864"
           inkscape:connector-curvature="0" />
        <path
           d="m 224.23048,383.21796 q -0.77474,0 -1.7155,-0.2767 -9.35221,-2.65625 -18.04036,-2.65625 -4.53777,0 -9.9056,0.83008 -5.36784,0.83008 -11.56576,2.54557 0.49805,3.59701 0.49805,5.75521 0,7.69206 -0.94076,21.13933 l 24.23828,-2.32422 q 10.68034,-1.10677 13.11524,-1.10677 2.43489,0 4.09505,1.54948 1.66016,1.54947 1.66016,4.15039 0,5.0358 -5.09115,5.64453 l -13.17057,1.16211 -25.56641,2.32422 q -0.22135,3.92903 -0.38737,7.4707 -0.11068,3.48633 -0.11068,6.52995 0,12.22981 1.77084,14.38802 1.32812,1.54948 8.68815,1.54948 3.43099,0 10.29297,-0.16602 6.91732,-0.22135 10.40364,-0.22135 1.10677,0 3.26498,-0.33203 2.1582,-0.38737 3.20963,-0.38737 5.86589,0 5.86589,5.7552 0,4.64844 -4.70378,5.5892 -5.20182,1.05143 -22.52278,1.05143 -17.15495,0 -22.02474,-4.53776 -5.3125,-4.92513 -5.3125,-22.6888 0,-3.54167 0.16601,-7.7474 0.16602,-4.20573 0.44271,-9.07552 -0.60872,-1.27279 -0.60872,-2.71159 0,-1.88151 1.05143,-3.37565 1.10677,-15.99284 1.10677,-23.62956 0,-2.04752 -0.55339,-5.97656 -0.55338,-3.98438 -0.55338,-6.0319 0,-6.58529 5.53385,-6.58529 2.32422,0 3.98438,1.60482 6.64062,-1.77083 12.50651,-2.65625 5.92122,-0.88542 11.12305,-0.88542 13.44726,0 21.47135,3.20964 3.70768,1.49414 3.70768,5.3125 0,2.21354 -1.4388,3.92903 -1.60482,1.88152 -3.98437,1.88152 z"
           style="font-style:normal;font-variant:normal;font-weight:normal;font-stretch:normal;font-size:113.33333588px;font-family:'Comic Sans MS';-inkscape-font-specification:'Comic Sans MS';fill:#45137c;fill-opacity:1"
           id="path866"
           inkscape:connector-curvature="0" />
        <path
           d="m 309.67318,383.05194 q -7.41537,8.96484 -11.39974,14.77539 l -6.91732,10.18229 q -4.03971,5.75521 -7.58138,9.68425 l 12.17448,17.81901 q 7.24935,10.56966 12.89388,17.26562 1.49414,1.82618 1.49414,3.81836 0,2.32422 -1.71549,4.03972 -1.66016,1.71549 -3.98438,1.71549 -2.10286,0 -3.92904,-1.71549 -4.09505,-3.8737 -8.52213,-10.51433 l -7.41537,-11.39974 -8.68815,-12.45117 -19.03646,22.02474 -10.18229,11.39974 q -1.82617,1.82617 -4.03971,1.82617 -2.26888,0 -3.98438,-1.71549 -1.71549,-1.7155 -1.71549,-4.03971 0,-1.99219 1.4388,-3.76303 l 9.96094,-11.12304 20.75195,-24.07227 q -6.08724,-8.13476 -12.94922,-16.32487 l -6.41927,-8.68815 q -3.8737,-5.20182 -7.19401,-7.96875 -2.32422,-1.93685 -2.32422,-4.48242 0,-2.26888 1.60482,-4.03972 1.60482,-1.77083 3.98438,-1.77083 4.70377,0 12.00846,10.01628 2.26888,3.37565 6.91732,9.57356 6.30859,7.52605 12.00846,15.10743 l 12.61719,-17.59766 q 12.28516,-17.09961 15.9375,-17.09961 2.26888,0 3.98437,1.7155 1.7155,1.71549 1.7155,4.03971 0,1.93685 -1.49414,3.76302 z"
           style="font-style:normal;font-variant:normal;font-weight:normal;font-stretch:normal;font-size:113.33333588px;font-family:'Comic Sans MS';-inkscape-font-specification:'Comic Sans MS';fill:#45137c;fill-opacity:1"
           id="path868"
           inkscape:connector-curvature="0" />
        <path
           d="m 368.44272,388.75181 q -3.54167,0 -8.90951,-0.7194 l -8.9095,-1.16211 q -1.27279,16.10352 -1.27279,30.76823 0,3.8737 0.22136,9.57357 0.22135,5.69987 0.22135,9.57356 0,5.20183 -0.38737,9.4629 l 17.43164,-0.22136 q 2.32422,0 3.8737,1.66016 1.60482,1.60482 1.60482,3.98437 0,2.4349 -1.60482,4.09506 -1.54948,1.60481 -3.8737,1.60481 -3.09896,0 -9.29687,0.16602 -6.19792,0.11068 -9.29688,0.11068 -3.65234,0 -10.95703,0.99609 -7.24935,1.05143 -10.95703,1.05143 -2.32422,0 -3.92904,-1.66015 -1.54948,-1.60482 -1.54948,-3.98438 0,-2.37956 1.54948,-4.03971 1.60482,-1.66016 3.92904,-1.66016 3.597,0 11.89779,-1.16211 0.55338,-4.48242 0.55338,-10.23763 0,-3.81836 -0.38737,-9.29687 -0.33203,-5.53386 -0.33203,-9.29688 0,-12.7832 1.54948,-31.93034 l -7.19401,0.22135 -7.19401,0.16602 q -2.37956,0 -3.98438,-1.60482 -1.60482,-1.60481 -1.60482,-4.09505 0,-5.14648 5.20183,-5.64453 4.48242,-0.44271 16.76758,-0.44271 11.01237,0 27.61393,2.37956 4.92513,0.7194 4.92513,5.92122 0,2.60091 -1.88151,4.15039 -1.66016,1.27279 -3.81836,1.27279 z"
           style="font-style:normal;font-variant:normal;font-weight:normal;font-stretch:normal;font-size:113.33333588px;font-family:'Comic Sans MS';-inkscape-font-specification:'Comic Sans MS';fill:#45137c;fill-opacity:1"
           id="path870"
           inkscape:connector-curvature="0" />
        <path
           d="m 438.55664,395.61379 q -3.54166,0 -5.3125,-4.15039 -1.54948,-3.54167 -2.8776,-4.31641 -1.16211,-0.60872 -5.75521,-0.60872 -8.02409,0 -17.81901,12.28515 -13.28125,16.49089 -13.28125,31.26628 0,7.13867 4.5931,12.28516 4.70377,5.3125 11.3444,5.3125 5.69987,0 11.45508,-2.93295 3.20963,-1.66015 9.85026,-6.52994 3.15429,-2.32422 4.75911,-2.32422 2.37956,0 3.98438,1.82617 1.60481,1.77083 1.60481,3.98438 0,2.49023 -2.10286,4.37174 -14.60937,12.94922 -29.55078,12.94922 -11.45508,0 -19.36849,-8.79883 -7.63672,-8.52213 -7.63672,-20.14323 0,-18.75976 15.71615,-38.46029 13.11523,-16.43554 26.45182,-16.43554 2.71159,0 4.86979,0.27669 2.1582,0.22135 3.81836,0.77474 1.93685,-2.82227 5.03581,-2.82227 3.81836,0 4.81445,5.03581 0.88542,4.48242 0.88542,11.01237 0,2.26888 -1.21745,3.98438 -1.49414,2.1582 -4.26107,2.1582 z"
           style="font-style:normal;font-variant:normal;font-weight:normal;font-stretch:normal;font-size:113.33333588px;font-family:'Comic Sans MS';-inkscape-font-specification:'Comic Sans MS';fill:#45137c;fill-opacity:1"
           id="path872"
           inkscape:connector-curvature="0" />
      </g>
      <g
         id="flowRoot845"
         style="font-style:normal;font-weight:normal;font-size:40px;line-height:1.25;font-family:sans-serif;letter-spacing:0px;word-spacing:0px;fill:#ffffff;fill-opacity:1;stroke:none"
         transform="matrix(0.92017179,0,0,0.92017179,-7.6111224,560.5949)"
         aria-label="KEXIC">
        <path
           inkscape:connector-curvature="0"
           id="path853"
           style="font-style:normal;font-variant:normal;font-weight:normal;font-stretch:normal;font-size:113.33333588px;font-family:'Comic Sans MS';-inkscape-font-specification:'Comic Sans MS';fill:#ffffff"
           d="m 157.04948,459.97251 q -8.41146,0 -23.96159,-14.77539 l -16.54622,-16.6569 v 0.77474 l -0.0553,28.9974 q 0,5.47851 -4.81445,5.47851 -3.1543,0 -5.03581,-2.76692 -1.54948,-2.26888 -1.54948,-4.92513 0,-12.94922 0.77474,-38.73698 0.77474,-25.78776 0.77474,-38.68165 0,-2.37955 1.54948,-4.03971 1.60481,-1.66016 3.92903,-1.66016 2.37956,0 3.92904,1.66016 1.60482,1.66016 1.60482,4.03971 0,5.36784 -0.66406,16.71224 -0.66407,10.95704 -0.60873,16.76758 7.41537,-7.02799 16.76758,-17.65299 l 15.88216,-18.42774 q 1.88151,-2.1582 4.20573,-2.1582 2.21354,0 3.92904,1.66016 1.71549,1.66015 1.71549,4.03971 0,3.65234 -14.27734,19.47917 -9.85026,10.79101 -20.36459,21.13932 6.64063,6.97266 20.8073,20.03255 l 5.81054,4.86979 q 3.1543,2.4349 6.80664,3.65235 4.37175,1.4388 4.37175,5.47851 0,1.88151 -1.16211,3.59701 -1.4388,2.10286 -3.81836,2.10286 z" />
        <path
           inkscape:connector-curvature="0"
           id="path855"
           style="font-style:normal;font-variant:normal;font-weight:normal;font-stretch:normal;font-size:113.33333588px;font-family:'Comic Sans MS';-inkscape-font-specification:'Comic Sans MS';fill:#ffffff"
           d="m 224.23048,383.21796 q -0.77474,0 -1.7155,-0.2767 -9.35221,-2.65625 -18.04036,-2.65625 -4.53777,0 -9.9056,0.83008 -5.36784,0.83008 -11.56576,2.54557 0.49805,3.59701 0.49805,5.75521 0,7.69206 -0.94076,21.13933 l 24.23828,-2.32422 q 10.68034,-1.10677 13.11524,-1.10677 2.43489,0 4.09505,1.54948 1.66016,1.54947 1.66016,4.15039 0,5.0358 -5.09115,5.64453 l -13.17057,1.16211 -25.56641,2.32422 q -0.22135,3.92903 -0.38737,7.4707 -0.11068,3.48633 -0.11068,6.52995 0,12.22981 1.77084,14.38802 1.32812,1.54948 8.68815,1.54948 3.43099,0 10.29297,-0.16602 6.91732,-0.22135 10.40364,-0.22135 1.10677,0 3.26498,-0.33203 2.1582,-0.38737 3.20963,-0.38737 5.86589,0 5.86589,5.7552 0,4.64844 -4.70378,5.5892 -5.20182,1.05143 -22.52278,1.05143 -17.15495,0 -22.02474,-4.53776 -5.3125,-4.92513 -5.3125,-22.6888 0,-3.54167 0.16601,-7.7474 0.16602,-4.20573 0.44271,-9.07552 -0.60872,-1.27279 -0.60872,-2.71159 0,-1.88151 1.05143,-3.37565 1.10677,-15.99284 1.10677,-23.62956 0,-2.04752 -0.55339,-5.97656 -0.55338,-3.98438 -0.55338,-6.0319 0,-6.58529 5.53385,-6.58529 2.32422,0 3.98438,1.60482 6.64062,-1.77083 12.50651,-2.65625 5.92122,-0.88542 11.12305,-0.88542 13.44726,0 21.47135,3.20964 3.70768,1.49414 3.70768,5.3125 0,2.21354 -1.4388,3.92903 -1.60482,1.88152 -3.98437,1.88152 z" />
        <path
           inkscape:connector-curvature="0"
           id="path857"
           style="font-style:normal;font-variant:normal;font-weight:normal;font-stretch:normal;font-size:113.33333588px;font-family:'Comic Sans MS';-inkscape-font-specification:'Comic Sans MS';fill:#ffffff"
           d="m 309.67318,383.05194 q -7.41537,8.96484 -11.39974,14.77539 l -6.91732,10.18229 q -4.03971,5.75521 -7.58138,9.68425 l 12.17448,17.81901 q 7.24935,10.56966 12.89388,17.26562 1.49414,1.82618 1.49414,3.81836 0,2.32422 -1.71549,4.03972 -1.66016,1.71549 -3.98438,1.71549 -2.10286,0 -3.92904,-1.71549 -4.09505,-3.8737 -8.52213,-10.51433 l -7.41537,-11.39974 -8.68815,-12.45117 -19.03646,22.02474 -10.18229,11.39974 q -1.82617,1.82617 -4.03971,1.82617 -2.26888,0 -3.98438,-1.71549 -1.71549,-1.7155 -1.71549,-4.03971 0,-1.99219 1.4388,-3.76303 l 9.96094,-11.12304 20.75195,-24.07227 q -6.08724,-8.13476 -12.94922,-16.32487 l -6.41927,-8.68815 q -3.8737,-5.20182 -7.19401,-7.96875 -2.32422,-1.93685 -2.32422,-4.48242 0,-2.26888 1.60482,-4.03972 1.60482,-1.77083 3.98438,-1.77083 4.70377,0 12.00846,10.01628 2.26888,3.37565 6.91732,9.57356 6.30859,7.52605 12.00846,15.10743 l 12.61719,-17.59766 q 12.28516,-17.09961 15.9375,-17.09961 2.26888,0 3.98437,1.7155 1.7155,1.71549 1.7155,4.03971 0,1.93685 -1.49414,3.76302 z" />
        <path
           inkscape:connector-curvature="0"
           id="path859"
           style="font-style:normal;font-variant:normal;font-weight:normal;font-stretch:normal;font-size:113.33333588px;font-family:'Comic Sans MS';-inkscape-font-specification:'Comic Sans MS';fill:#ffffff"
           d="m 368.44272,388.75181 q -3.54167,0 -8.90951,-0.7194 l -8.9095,-1.16211 q -1.27279,16.10352 -1.27279,30.76823 0,3.8737 0.22136,9.57357 0.22135,5.69987 0.22135,9.57356 0,5.20183 -0.38737,9.4629 l 17.43164,-0.22136 q 2.32422,0 3.8737,1.66016 1.60482,1.60482 1.60482,3.98437 0,2.4349 -1.60482,4.09506 -1.54948,1.60481 -3.8737,1.60481 -3.09896,0 -9.29687,0.16602 -6.19792,0.11068 -9.29688,0.11068 -3.65234,0 -10.95703,0.99609 -7.24935,1.05143 -10.95703,1.05143 -2.32422,0 -3.92904,-1.66015 -1.54948,-1.60482 -1.54948,-3.98438 0,-2.37956 1.54948,-4.03971 1.60482,-1.66016 3.92904,-1.66016 3.597,0 11.89779,-1.16211 0.55338,-4.48242 0.55338,-10.23763 0,-3.81836 -0.38737,-9.29687 -0.33203,-5.53386 -0.33203,-9.29688 0,-12.7832 1.54948,-31.93034 l -7.19401,0.22135 -7.19401,0.16602 q -2.37956,0 -3.98438,-1.60482 -1.60482,-1.60481 -1.60482,-4.09505 0,-5.14648 5.20183,-5.64453 4.48242,-0.44271 16.76758,-0.44271 11.01237,0 27.61393,2.37956 4.92513,0.7194 4.92513,5.92122 0,2.60091 -1.88151,4.15039 -1.66016,1.27279 -3.81836,1.27279 z" />
        <path
           inkscape:connector-curvature="0"
           id="path861"
           style="font-style:normal;font-variant:normal;font-weight:normal;font-stretch:normal;font-size:113.33333588px;font-family:'Comic Sans MS';-inkscape-font-specification:'Comic Sans MS';fill:#ffffff"
           d="m 438.55664,395.61379 q -3.54166,0 -5.3125,-4.15039 -1.54948,-3.54167 -2.8776,-4.31641 -1.16211,-0.60872 -5.75521,-0.60872 -8.02409,0 -17.81901,12.28515 -13.28125,16.49089 -13.28125,31.26628 0,7.13867 4.5931,12.28516 4.70377,5.3125 11.3444,5.3125 5.69987,0 11.45508,-2.93295 3.20963,-1.66015 9.85026,-6.52994 3.15429,-2.32422 4.75911,-2.32422 2.37956,0 3.98438,1.82617 1.60481,1.77083 1.60481,3.98438 0,2.49023 -2.10286,4.37174 -14.60937,12.94922 -29.55078,12.94922 -11.45508,0 -19.36849,-8.79883 -7.63672,-8.52213 -7.63672,-20.14323 0,-18.75976 15.71615,-38.46029 13.11523,-16.43554 26.45182,-16.43554 2.71159,0 4.86979,0.27669 2.1582,0.22135 3.81836,0.77474 1.93685,-2.82227 5.03581,-2.82227 3.81836,0 4.81445,5.03581 0.88542,4.48242 0.88542,11.01237 0,2.26888 -1.21745,3.98438 -1.49414,2.1582 -4.26107,2.1582 z" />
      </g>
    </g>
  </g>
</svg>
