<?xml version="1.0" encoding="UTF-8" standalone="no"?>
<!-- Created with Inkscape (http://www.inkscape.org/) -->

<svg
   xmlns:dc="http://purl.org/dc/elements/1.1/"
   xmlns:cc="http://creativecommons.org/ns#"
   xmlns:rdf="http://www.w3.org/1999/02/22-rdf-syntax-ns#"
   xmlns:svg="http://www.w3.org/2000/svg"
   xmlns="http://www.w3.org/2000/svg"
   xmlns:sodipodi="http://sodipodi.sourceforge.net/DTD/sodipodi-0.dtd"
   xmlns:inkscape="http://www.inkscape.org/namespaces/inkscape"
   width="512"
   height="512"
   id="svg2"
   version="1.1"
   inkscape:version="0.92.2 5c3e80d, 2017-08-06"
   sodipodi:docname="application-x-addon.svg">
  <defs
     id="defs4" />
  <sodipodi:namedview
     id="base"
     pagecolor="#ffffff"
     bordercolor="#666666"
     borderopacity="1.0"
     inkscape:pageopacity="0.0"
     inkscape:pageshadow="2"
     inkscape:zoom="0.4289781"
     inkscape:cx="-157.43111"
     inkscape:cy="316.59811"
     inkscape:document-units="px"
     inkscape:current-layer="layer1"
     showgrid="false"
     inkscape:window-width="1366"
     inkscape:window-height="717"
     inkscape:window-x="0"
     inkscape:window-y="24"
     inkscape:window-maximized="1" />
  <metadata
     id="metadata7">
    <rdf:RDF>
      <cc:Work
         rdf:about="">
        <dc:format>image/svg+xml</dc:format>
        <dc:type
           rdf:resource="http://purl.org/dc/dcmitype/StillImage" />
        <dc:title />
      </cc:Work>
    </rdf:RDF>
  </metadata>
  <g
     inkscape:label="Layer 1"
     inkscape:groupmode="layer"
     id="layer1"
     transform="translate(0,-540.36218)">
    <g
       id="g871">
      <path
         style="fill:#68b723;fill-opacity:1;stroke-width:11.10955811"
         inkscape:connector-curvature="0"
         d="m 432.91324,596.83616 c 102.19291,88.57459 105.82677,249.69971 8.1168,359.89879 C 343.32009,1066.934 181.27965,1084.4628 79.086741,995.88821 -23.106205,907.31362 -26.740032,746.1885 70.969941,635.98942 168.67991,525.79034 330.72036,508.26157 432.91324,596.83616 Z"
         id="path937" />
      <path
         style="fill:#3a9104;fill-opacity:1;stroke:none;stroke-width:0.99999994px;stroke-linecap:butt;stroke-linejoin:miter;stroke-opacity:1"
         d="M 8.3652337,882.3622 C 19.949333,925.51393 43.551551,965.08854 79.085936,995.88757 181.27884,1084.4622 343.31934,1066.9343 441.02929,956.73525 461.3803,933.78301 477.31887,908.61718 488.90233,882.3622 Z"
         id="path939"
         inkscape:connector-curvature="0"
         sodipodi:nodetypes="csscc" />
      <path
         style="opacity:1;stroke-width:11.10955811;fill:#000000;fill-opacity:0.49019608"
         inkscape:connector-curvature="0"
         d="M 511.63547,765.26571 C 510.08409,826.57735 486.47425,889.42031 440.6691,941.08018 342.95915,1051.2793 180.9187,1068.808 78.725758,980.23348 30.827124,938.71783 4.4968187,881.28503 0.1938267,820.591 0.7990797,886.94767 27.117405,950.84437 79.078691,995.88125 181.2716,1084.4558 343.31975,1066.9184 441.02199,956.72796 490.72694,900.66985 514.02701,831.43699 511.63547,765.26571 Z"
         id="path941" />
      <path
         style="fill:#000000;fill-opacity:0.49019608;stroke:none;stroke-width:1.03271949"
         d="m 139.10244,775.49493 h 19.87952 c 0,0 8.94972,-16.181 28.9156,-15.66261 19.96586,0.51841 27.74493,16.5146 27.71078,30.12048 -0.0341,13.60587 -10.88018,28.65992 -28.91558,29.21677 -18.03542,0.55694 -26.506,-15.66264 -26.506,-15.66264 h -21.08432 l -0.30123,75.9034 c 0,0 0.51477,5.94154 2.10848,8.13256 1.59368,2.19102 6.62645,4.2168 6.62645,4.2168 h 79.81917 v -19.27701 c 0,0 -15.01358,-8.62184 -15.36137,-26.20464 -0.34787,-17.58287 15.42365,-29.08603 28.91559,-29.51812 13.49193,-0.43198 29.12018,10.58868 30.12047,28.91574 1.00028,18.32695 -15.96382,27.40936 -15.96382,27.40936 v 19.27716 l 81.62642,-0.90363 c 0,0 4.30311,-2.21931 5.72288,-4.51804 1.41975,-2.29884 1.80724,-8.73495 1.80724,-8.73495 v -74.69863 l 13.85536,-0.30114 c 0,0 7.5264,16.33607 26.20476,15.66264 18.67842,-0.67344 28.22163,-14.46644 28.91567,-28.31325 0.69403,-13.84681 -10.95934,-30.94174 -28.91567,-30.72285 -17.95633,0.2189 -26.20476,15.96384 -26.20476,15.96384 l -14.15659,-0.30124 v -79.21675 l -3.61448,-6.62649 -6.02409,-3.01204 -78.91552,0.90361 0.30115,-14.15662 c 0,0 14.51651,-7.48865 15.36145,-25.30117 0.84494,-17.81251 -15.70414,-30.81062 -29.51803,-30.72285 -13.81397,0.0878 -29.319,10.4313 -29.51803,28.61442 -0.19911,18.18313 15.6626,27.71081 15.6626,27.71081 v 13.5542 H 149.6446 l -7.53011,3.01204 -3.61449,8.13253 z"
         id="path845"
         inkscape:connector-curvature="0"
         sodipodi:nodetypes="cczzzccczccczzzccczccczzzccccccczzzcccccc" />
      <path
         sodipodi:nodetypes="cczzzccczccczzzccczccczzzccccccczzzcccccc"
         inkscape:connector-curvature="0"
         id="path3057"
         d="m 119.10244,755.49493 h 19.87952 c 0,0 8.94972,-16.181 28.9156,-15.66261 19.96586,0.51841 27.74493,16.5146 27.71078,30.12048 -0.0341,13.60587 -10.88018,28.65992 -28.91558,29.21677 -18.03542,0.55694 -26.506,-15.66264 -26.506,-15.66264 h -21.08432 l -0.30123,75.9034 c 0,0 0.51477,5.94154 2.10848,8.13256 1.59368,2.19102 6.62645,4.2168 6.62645,4.2168 h 79.81917 v -19.27701 c 0,0 -15.01358,-8.62184 -15.36137,-26.20464 -0.34787,-17.58287 15.42365,-29.08603 28.91559,-29.51812 13.49193,-0.43198 29.12018,10.58868 30.12047,28.91574 1.00028,18.32695 -15.96382,27.40936 -15.96382,27.40936 v 19.27716 l 81.62642,-0.90363 c 0,0 4.30311,-2.21931 5.72288,-4.51804 1.41975,-2.29884 1.80724,-8.73495 1.80724,-8.73495 v -74.69863 l 13.85536,-0.30114 c 0,0 7.5264,16.33607 26.20476,15.66264 18.67842,-0.67344 28.22163,-14.46644 28.91567,-28.31325 0.69403,-13.84681 -10.95934,-30.94174 -28.91567,-30.72285 -17.95633,0.2189 -26.20476,15.96384 -26.20476,15.96384 l -14.15659,-0.30124 v -79.21675 l -3.61448,-6.62649 -6.02409,-3.01204 -78.91552,0.90361 0.30115,-14.15662 c 0,0 14.51651,-7.48865 15.36145,-25.30117 0.84494,-17.81251 -15.70414,-30.81062 -29.51803,-30.72285 -13.81397,0.0878 -29.319,10.4313 -29.51803,28.61442 -0.19911,18.18313 15.6626,27.71081 15.6626,27.71081 v 13.5542 H 129.6446 l -7.53011,3.01204 -3.61449,8.13253 z"
         style="fill:#ffffff;fill-opacity:1;stroke:none;stroke-width:1.03271949" />
      <path
         inkscape:connector-curvature="0"
         id="path866"
         style="font-style:normal;font-variant:normal;font-weight:normal;font-stretch:normal;font-size:113.33333588px;line-height:1.25;font-family:'Comic Sans MS';-inkscape-font-specification:'Comic Sans MS';letter-spacing:0px;word-spacing:0px;fill:#000000;fill-opacity:0.49019608;stroke:none;stroke-width:0.73433065"
         d="m 148.43657,1004.5582 q -3.73858,0 -6.50189,-9.59025 -1.05656,-3.65731 -2.64139,-12.80058 -4.14495,0.56891 -10.85002,2.03184 l -10.80939,2.23502 q -2.03184,5.32342 -6.94889,15.56387 -1.30038,2.2757 -3.5354,2.2757 -1.62547,0 -2.92585,-1.1785 -1.25974,-1.1785 -1.25974,-2.9258 0,-1.9506 6.13615,-14.83246 -0.69082,-1.05656 -0.69082,-2.43821 0,-3.29158 3.9824,-4.22622 4.6326,-8.69628 11.7034,-19.99331 9.63092,-15.40134 11.98786,-15.40134 3.2103,0 4.38877,4.47004 l 2.56012,13.65397 6.05488,28.24256 2.3163,6.42062 q 1.17846,3.29158 1.17846,4.38875 0,1.7474 -1.25974,2.9259 -1.25974,1.1784 -2.88521,1.1784 z m -14.34479,-46.44781 -11.62212,18.73356 q 4.91705,-1.25974 14.9137,-3.04776 z" />
      <path
         inkscape:connector-curvature="0"
         id="path868"
         style="font-style:normal;font-variant:normal;font-weight:normal;font-stretch:normal;font-size:113.33333588px;line-height:1.25;font-family:'Comic Sans MS';-inkscape-font-specification:'Comic Sans MS';letter-spacing:0px;word-spacing:0px;fill:#000000;fill-opacity:0.49019608;stroke:none;stroke-width:0.73433065"
         d="m 202.32095,1003.0547 q -6.29871,4.3075 -18.08337,4.3075 -2.96649,0 -6.78635,-0.9347 -4.59196,-1.0972 -6.90825,-2.8445 h -0.40637 q -1.74738,0 -2.92584,-1.2191 -1.17847,-1.2192 -1.17847,-2.96654 0,-4.26685 0.36573,-12.75995 0.40636,-8.53372 0.40636,-12.80058 0,-4.75451 -0.20318,-14.18224 -0.16254,-9.46837 -0.16254,-14.22288 0,-1.66611 1.70674,-3.49477 1.70674,-1.82865 3.41349,-1.82865 0.97529,0 6.50189,2.72266 6.25806,3.04776 7.23335,3.37286 11.54085,3.94177 19.6682,12.10976 9.54965,9.63092 9.54965,21.17177 0,6.94889 -3.29158,13.32887 -3.25094,6.37997 -8.89946,10.24049 z m -8.53373,-42.99375 q -4.14495,-2.72266 -19.13992,-9.34646 l 0.20318,11.7034 0.12191,11.66276 -0.65019,22.18769 q 0.28446,0.1219 0.85337,0.52827 3.57604,2.39757 9.02137,2.39757 9.26519,0 13.49141,-2.84457 3.94177,-2.68203 6.25807,-7.19271 2.35694,-4.55133 2.35694,-9.46838 0,-11.45957 -12.51614,-19.62757 z" />
      <path
         inkscape:connector-curvature="0"
         id="path870"
         style="font-style:normal;font-variant:normal;font-weight:normal;font-stretch:normal;font-size:113.33333588px;line-height:1.25;font-family:'Comic Sans MS';-inkscape-font-specification:'Comic Sans MS';letter-spacing:0px;word-spacing:0px;fill:#000000;fill-opacity:0.49019608;stroke:none;stroke-width:0.73433065"
         d="m 262.4634,1003.0547 q -6.2987,4.3075 -18.08337,4.3075 -2.96649,0 -6.78634,-0.9347 -4.59196,-1.0972 -6.90826,-2.8445 h -0.40637 q -1.74738,0 -2.92585,-1.2191 -1.17846,-1.2192 -1.17846,-2.96654 0,-4.26685 0.36573,-12.75995 0.40637,-8.53372 0.40637,-12.80058 0,-4.75451 -0.20318,-14.18224 -0.16256,-9.46837 -0.16256,-14.22288 0,-1.66611 1.70675,-3.49477 1.70675,-1.82865 3.41349,-1.82865 0.97528,0 6.50189,2.72266 6.25806,3.04776 7.23335,3.37286 11.54084,3.94177 19.6682,12.10976 9.54965,9.63092 9.54965,21.17177 0,6.94889 -3.29158,13.32887 -3.25095,6.37997 -8.89946,10.24049 z m -8.53373,-42.99375 q -4.14495,-2.72266 -19.13992,-9.34646 l 0.20318,11.7034 0.12191,11.66276 -0.65019,22.18769 q 0.28446,0.1219 0.85338,0.52827 3.57603,2.39757 9.02137,2.39757 9.26518,0 13.49141,-2.84457 3.94177,-2.68203 6.25807,-7.19271 2.35692,-4.55133 2.35692,-9.46838 0,-11.45957 -12.51613,-19.62757 z" />
      <path
         inkscape:connector-curvature="0"
         id="path872"
         style="font-style:normal;font-variant:normal;font-weight:normal;font-stretch:normal;font-size:113.33333588px;line-height:1.25;font-family:'Comic Sans MS';-inkscape-font-specification:'Comic Sans MS';letter-spacing:0px;word-spacing:0px;fill:#000000;fill-opacity:0.49019608;stroke:none;stroke-width:0.73433065"
         d="m 311.47137,1005.818 q -11.45957,0 -19.42438,-6.86764 -8.45246,-7.31462 -8.45246,-18.85547 0,-14.06033 8.33054,-25.56054 9.30583,-12.75995 23.20361,-12.75995 13.36951,0 19.8714,6.01424 6.78633,6.25807 6.78633,19.74949 0,14.06032 -7.63971,25.35735 -8.77755,12.92252 -22.67533,12.92252 z m 3.65731,-55.71306 q -9.95601,0 -16.86427,9.91537 -6.37997,9.10265 -6.37997,20.07458 0,7.8429 5.81106,12.75995 5.56724,4.6326 13.77587,4.6326 9.87474,0 16.29536,-9.95602 5.72978,-8.89945 5.72978,-19.99329 0,-9.7122 -4.34813,-13.65397 -4.14495,-3.77922 -14.0197,-3.77922 z" />
      <path
         id="path874"
         transform="translate(0,540.36218)"
         d="M 355.60352 399.94922 C 354.24896 399.94922 353.02896 400.46467 351.94531 401.49414 C 350.88875 402.52361 350.36133 403.66006 350.36133 404.90625 C 350.36133 406.613 350.52256 409.16048 350.84766 412.54688 C 351.17275 415.90618 351.33594 418.43974 351.33594 420.14648 C 351.33594 421.9345 351.37575 424.64322 351.45703 428.27344 C 351.5383 431.87656 351.58008 434.57135 351.58008 436.35938 C 351.58008 438.03903 351.52633 440.55866 351.41797 443.91797 C 351.3096 447.25019 351.25391 449.75589 351.25391 451.43555 C 351.25391 452.57337 351.16034 454.2949 350.9707 456.59766 C 350.80816 458.90042 350.72656 460.62001 350.72656 461.75781 C 350.72656 462.92275 351.11865 463.92576 351.9043 464.76562 C 352.77121 465.71376 353.94943 466.1875 355.43945 466.1875 C 358.25694 466.1875 359.66602 462.54336 359.66602 455.25586 C 359.66602 452.98019 359.61227 449.59479 359.50391 445.09766 C 359.42263 440.60052 359.38281 437.22708 359.38281 434.97852 L 359.50391 425.71289 L 359.70703 416.48828 C 372.6643 434.33833 384.279 448.37037 394.55859 458.61133 C 399.12791 455.28413 403.62478 451.80902 408.03711 448.17773 C 408.05702 445.73863 408.0591 443.90409 408.10547 440.50391 C 408.18674 434.51675 408.22852 430.02079 408.22852 427.01367 C 408.22852 409.43149 405.87012 400.64062 401.15625 400.64062 C 398.28458 400.64063 396.84961 402.21094 396.84961 405.35352 C 396.84961 406.38298 397.12028 407.81991 397.66211 409.66211 C 398.2852 411.80232 398.6514 413.22336 398.75977 413.92773 C 399.68087 420.97144 400.14062 430.44095 400.14062 442.33398 L 400.26367 447.45312 C 400.34495 449.72879 400.34495 451.45031 400.26367 452.61523 C 392.59687 445.38189 385.55147 437.79514 379.13086 429.85742 C 373.73971 423.1659 367.67148 414.76908 360.92578 404.66406 C 358.81267 401.52148 357.03935 399.94922 355.60352 399.94922 z "
         style="font-style:normal;font-variant:normal;font-weight:normal;font-stretch:normal;font-size:113.33333588px;line-height:1.25;font-family:'Comic Sans MS';-inkscape-font-specification:'Comic Sans MS';letter-spacing:0px;word-spacing:0px;fill:#000000;fill-opacity:0.49019608;stroke:none;stroke-width:0.73433065" />
      <g
         id="flowRoot847"
         style="font-style:normal;font-weight:normal;font-size:40px;line-height:1.25;font-family:sans-serif;letter-spacing:0px;word-spacing:0px;fill:#ffffff;fill-opacity:1;stroke:none"
         transform="matrix(0.73433068,0,0,0.73433068,14.697734,650.9566)"
         aria-label="ADDON">
        <path
           inkscape:connector-curvature="0"
           id="path855"
           style="font-style:normal;font-variant:normal;font-weight:normal;font-stretch:normal;font-size:113.33333588px;font-family:'Comic Sans MS';-inkscape-font-specification:'Comic Sans MS';fill:#ffffff"
           d="m 154.88802,454.29348 q -5.09114,0 -8.85416,-13.0599 -1.43881,-4.98047 -3.59701,-17.43164 -5.64453,0.77474 -14.77539,2.76693 l -14.72005,3.04362 q -2.76693,7.24935 -9.46289,21.19466 -1.77084,3.09896 -4.814457,3.09896 -2.213542,0 -3.984375,-1.60482 -1.715495,-1.60482 -1.715495,-3.98437 0,-2.65625 8.356117,-20.19857 -0.94075,-1.43881 -0.94075,-3.32032 0,-4.48242 5.42317,-5.7552 6.3086,-11.84245 15.93751,-27.22657 13.11523,-20.9733 16.32487,-20.9733 4.37174,0 5.97656,6.08723 l 3.48633,18.59376 8.24544,38.46028 3.1543,8.74349 q 1.60481,4.48242 1.60481,5.97656 0,2.37956 -1.71549,3.98438 -1.7155,1.60482 -3.92904,1.60482 z m -19.5345,-63.25196 -15.82683,25.51107 q 6.69597,-1.71549 20.30925,-4.15039 z" />
        <path
           inkscape:connector-curvature="0"
           id="path857"
           style="font-style:normal;font-variant:normal;font-weight:normal;font-stretch:normal;font-size:113.33333588px;font-family:'Comic Sans MS';-inkscape-font-specification:'Comic Sans MS';fill:#ffffff"
           d="m 228.26693,452.24595 q -8.57748,5.86589 -24.62565,5.86589 -4.03972,0 -9.24154,-1.27279 -6.25326,-1.49414 -9.40755,-3.8737 h -0.55339 q -2.37955,0 -3.98437,-1.66015 -1.60482,-1.66016 -1.60482,-4.03972 0,-5.81054 0.49805,-17.3763 0.55338,-11.62109 0.55338,-17.43164 0,-6.47461 -0.27669,-19.31315 -0.22135,-12.89388 -0.22135,-19.36849 0,-2.26888 2.32421,-4.75912 2.32422,-2.49023 4.64844,-2.49023 1.32813,0 8.85417,3.70768 8.52213,4.15039 9.85026,4.5931 15.71615,5.36784 26.78385,16.49089 13.00456,13.11523 13.00456,28.83138 0,9.46289 -4.48242,18.15104 -4.42708,8.68815 -12.11914,13.94531 z m -11.6211,-58.54818 q -5.64453,-3.70768 -26.06445,-12.72786 l 0.27669,15.9375 0.16602,15.88216 -0.88542,30.21485 q 0.38737,0.16601 1.16211,0.7194 4.86979,3.26497 12.28516,3.26497 12.61719,0 18.37239,-3.8737 5.36784,-3.65234 8.52214,-9.79492 3.20964,-6.19792 3.20964,-12.89388 0,-15.60547 -17.04428,-26.72852 z" />
        <path
           inkscape:connector-curvature="0"
           id="path859"
           style="font-style:normal;font-variant:normal;font-weight:normal;font-stretch:normal;font-size:113.33333588px;font-family:'Comic Sans MS';-inkscape-font-specification:'Comic Sans MS';fill:#ffffff"
           d="m 310.16798,452.24595 q -8.57748,5.86589 -24.62566,5.86589 -4.03971,0 -9.24153,-1.27279 -6.25326,-1.49414 -9.40756,-3.8737 h -0.55338 q -2.37956,0 -3.98438,-1.66015 -1.60481,-1.66016 -1.60481,-4.03972 0,-5.81054 0.49804,-17.3763 0.55339,-11.62109 0.55339,-17.43164 0,-6.47461 -0.27669,-19.31315 -0.22136,-12.89388 -0.22136,-19.36849 0,-2.26888 2.32422,-4.75912 2.32422,-2.49023 4.64844,-2.49023 1.32812,0 8.85417,3.70768 8.52213,4.15039 9.85026,4.5931 15.71614,5.36784 26.78385,16.49089 13.00456,13.11523 13.00456,28.83138 0,9.46289 -4.48242,18.15104 -4.42709,8.68815 -12.11914,13.94531 z m -11.6211,-58.54818 q -5.64453,-3.70768 -26.06445,-12.72786 l 0.27669,15.9375 0.16602,15.88216 -0.88542,30.21485 q 0.38737,0.16601 1.16211,0.7194 4.86979,3.26497 12.28516,3.26497 12.61718,0 18.37239,-3.8737 5.36784,-3.65234 8.52214,-9.79492 3.20963,-6.19792 3.20963,-12.89388 0,-15.60547 -17.04427,-26.72852 z" />
        <path
           inkscape:connector-curvature="0"
           id="path861"
           style="font-style:normal;font-variant:normal;font-weight:normal;font-stretch:normal;font-size:113.33333588px;font-family:'Comic Sans MS';-inkscape-font-specification:'Comic Sans MS';fill:#ffffff"
           d="m 376.90626,456.00897 q -15.60547,0 -26.45182,-9.35221 -11.51042,-9.96094 -11.51042,-25.67709 0,-19.14713 11.3444,-34.80794 12.67253,-17.3763 31.59831,-17.3763 18.20638,0 27.06055,8.1901 9.24153,8.52214 9.24153,26.89454 0,19.14713 -10.40364,34.53125 -11.95313,17.59765 -30.87891,17.59765 z m 4.98047,-75.86914 q -13.55794,0 -22.9655,13.5026 -8.68815,12.39584 -8.68815,27.33724 0,10.68034 7.91342,17.37631 7.58138,6.30859 18.75976,6.30859 13.44727,0 22.19076,-13.55794 7.80273,-12.11914 7.80273,-27.22656 0,-13.22592 -5.92122,-18.59376 -5.64453,-5.14648 -19.0918,-5.14648 z" />
        <path
           inkscape:connector-curvature="0"
           id="path863"
           style="font-style:normal;font-variant:normal;font-weight:normal;font-stretch:normal;font-size:113.33333588px;font-family:'Comic Sans MS';-inkscape-font-specification:'Comic Sans MS';fill:#ffffff"
           d="m 508.33529,440.34817 q 0,2.65625 -0.88542,8.85416 -0.88542,5.58919 -5.92122,5.58919 -3.04362,0 -7.24935,-3.98437 -22.52279,-21.30534 -51.6862,-61.48112 l -0.27669,12.56185 -0.16602,12.61719 q 0,4.59309 0.16602,13.77929 0.22135,9.1862 0.22135,13.83464 0,14.88607 -5.75521,14.88607 -3.04362,0 -4.81445,-1.93685 -1.60482,-1.7155 -1.60482,-4.09505 0,-2.32422 0.33203,-7.028 0.38737,-4.70378 0.38737,-7.02799 0,-3.43099 0.22136,-10.23764 0.22135,-6.86197 0.22135,-10.29296 0,-3.65235 -0.16601,-11.01237 -0.16602,-7.41537 -0.16602,-11.06771 0,-3.48633 -0.66406,-10.34831 -0.66407,-6.91732 -0.66407,-10.40365 0,-2.54557 2.15821,-4.64843 2.21354,-2.10287 4.98047,-2.10287 2.93294,0 7.24935,6.41927 13.77929,20.64128 24.79166,34.3099 13.11524,16.21419 28.77605,30.98958 0.16601,-2.37955 0,-7.02799 l -0.16602,-6.97266 q 0,-24.29362 -1.88151,-38.68164 -0.22136,-1.4388 -1.49414,-5.81055 -1.10677,-3.76302 -1.10677,-5.86588 0,-6.41927 5.86588,-6.41927 9.62891,0 9.62891,35.91471 0,6.14258 -0.16602,18.3724 -0.16601,12.17448 -0.16601,18.31706 z" />
      </g>
    </g>
  </g>
</svg>
