<?xml version="1.0" encoding="UTF-8" standalone="no"?>
<!-- Created with Inkscape (http://www.inkscape.org/) -->

<svg
   xmlns:dc="http://purl.org/dc/elements/1.1/"
   xmlns:cc="http://creativecommons.org/ns#"
   xmlns:rdf="http://www.w3.org/1999/02/22-rdf-syntax-ns#"
   xmlns:svg="http://www.w3.org/2000/svg"
   xmlns="http://www.w3.org/2000/svg"
   xmlns:sodipodi="http://sodipodi.sourceforge.net/DTD/sodipodi-0.dtd"
   xmlns:inkscape="http://www.inkscape.org/namespaces/inkscape"
   width="512"
   height="512"
   id="svg2"
   version="1.1"
   inkscape:version="0.92.2 5c3e80d, 2017-08-06"
   sodipodi:docname="application-x-awk.svg">
  <defs
     id="defs4" />
  <sodipodi:namedview
     id="base"
     pagecolor="#ffffff"
     bordercolor="#666666"
     borderopacity="1.0"
     inkscape:pageopacity="0.0"
     inkscape:pageshadow="2"
     inkscape:zoom="0.60666663"
     inkscape:cx="466.73058"
     inkscape:cy="264.69382"
     inkscape:document-units="px"
     inkscape:current-layer="layer1"
     showgrid="false"
     inkscape:window-width="1366"
     inkscape:window-height="717"
     inkscape:window-x="0"
     inkscape:window-y="24"
     inkscape:window-maximized="1" />
  <metadata
     id="metadata7">
    <rdf:RDF>
      <cc:Work
         rdf:about="">
        <dc:format>image/svg+xml</dc:format>
        <dc:type
           rdf:resource="http://purl.org/dc/dcmitype/StillImage" />
        <dc:title />
      </cc:Work>
    </rdf:RDF>
  </metadata>
  <g
     inkscape:label="Layer 1"
     inkscape:groupmode="layer"
     id="layer1"
     transform="translate(0,-540.36218)">
    <g
       id="g857">
      <path
         style="fill:#8a715e;fill-opacity:1;stroke-width:11.10955811"
         inkscape:connector-curvature="0"
         d="m 432.91326,596.8362 c 102.19291,88.57459 105.82678,249.69971 8.1168,359.8988 C 343.32009,1066.934 181.27965,1084.4628 79.086741,995.8882 -23.106205,907.31366 -26.740032,746.18854 70.969941,635.98946 168.67991,525.79038 330.72036,508.26161 432.91326,596.8362 Z"
         id="path961" />
      <path
         style="fill:#715344;fill-opacity:1;stroke:none;stroke-width:0.99999994px;stroke-linecap:butt;stroke-linejoin:miter;stroke-opacity:1"
         d="M 8.3652409,882.36224 C 19.949342,925.51397 43.551547,965.0886 79.085947,995.8876 c 102.192913,88.5746 264.233393,71.0467 361.943363,-39.1523 20.35102,-22.95225 36.28955,-48.11808 47.87304,-74.37306 z"
         id="path963"
         inkscape:connector-curvature="0"
         sodipodi:nodetypes="csscc" />
      <path
         style="opacity:1;stroke-width:11.10955811;fill:#000000;fill-opacity:0.49019608"
         inkscape:connector-curvature="0"
         d="M 511.6355,765.26575 C 510.08411,826.57739 486.47427,889.42035 440.66912,941.0802 342.95915,1051.2793 180.9187,1068.808 78.725758,980.2335 30.827125,938.71787 4.4968189,881.28507 0.19382693,820.59104 0.79907993,886.94771 27.117405,950.8444 79.07869,995.8813 c 102.19291,88.5745 264.24106,71.0371 361.94332,-39.1533 49.70495,-56.05811 73.00502,-125.29097 70.61349,-191.46225 z"
         id="path965" />
      <path
         style="fill:#000000;fill-opacity:0.49019608;stroke-width:1.88502502"
         d="m 146.40597,888.08059 c -7.1111,-5.98367 -9.3007,-14.82184 -5.76029,-23.25154 1.37592,-3.27613 12.8929,-17.37389 25.59327,-31.32851 12.70034,-13.9545 23.09152,-25.92449 23.09152,-26.59997 0,-0.6754 -10.39118,-12.68247 -23.09152,-26.68237 -25.40101,-28.00006 -27.63953,-31.13662 -27.73733,-38.86537 -0.17949,-14.20974 14.57816,-24.57132 26.16482,-18.37028 1.84995,0.99 14.80805,14.35007 28.79596,29.68909 42.08081,46.14562 41.10868,44.85906 41.10868,54.40645 0,8.04356 -0.89905,9.38408 -22.36424,33.34462 -41.4858,46.30855 -45.81,50.51059 -53.14104,51.63931 -5.40959,0.83289 -7.85071,0.0642 -12.65983,-3.98143 z m 114.95279,-15.59067 0.54502,-16.52825 H 306.20191 350.5 v 16.0227 16.02278 l -44.84327,0.50582 -44.84327,0.50585 z"
         id="path844"
         inkscape:connector-curvature="0" />
      <path
         inkscape:connector-curvature="0"
         id="path908"
         d="m 126.40597,868.08059 c -7.1111,-5.98367 -9.3007,-14.82184 -5.76029,-23.25154 1.37592,-3.27613 12.8929,-17.37389 25.59327,-31.32851 12.70034,-13.9545 23.09152,-25.92449 23.09152,-26.59997 0,-0.6754 -10.39118,-12.68247 -23.09152,-26.68237 -25.40101,-28.00006 -27.63953,-31.13662 -27.73733,-38.86537 -0.17949,-14.20974 14.57816,-24.57132 26.16482,-18.37028 1.84995,0.99 14.80805,14.35007 28.79596,29.68909 42.08081,46.14562 41.10868,44.85906 41.10868,54.40645 0,8.04356 -0.89905,9.38408 -22.36424,33.34462 -41.4858,46.30855 -45.81,50.51059 -53.14104,51.63931 -5.40959,0.83289 -7.85071,0.0642 -12.65983,-3.98143 z m 114.95279,-15.59067 0.54502,-16.52825 H 286.20191 330.5 v 16.0227 16.02278 l -44.84327,0.50582 -44.84327,0.50585 z"
         style="fill:#ffffff;stroke-width:1.88502502" />
      <path
         inkscape:connector-curvature="0"
         d="m 206.92383,1002.9351 q -5.09115,0 -8.85417,-13.0599 -1.4388,-4.98047 -3.597,-17.43164 -5.64453,0.77474 -14.77539,2.76693 l -14.72006,3.04362 q -2.76692,7.24935 -9.46289,21.19466 -1.77083,3.09893 -4.81445,3.09893 -2.21354,0 -3.98438,-1.6048 Q 145,999.33809 145,996.95854 q 0,-2.65625 8.35612,-20.19857 -0.94076,-1.43881 -0.94076,-3.32032 0,-4.48242 5.42318,-5.7552 6.30859,-11.84245 15.9375,-27.22657 13.11524,-20.9733 16.32487,-20.9733 4.37175,0 5.97656,6.08723 l 3.48633,18.59376 8.24545,38.46028 3.15429,8.74349 q 1.60482,4.48242 1.60482,5.97656 0,2.37956 -1.71549,3.9844 -1.7155,1.6048 -3.92904,1.6048 z m -19.53451,-63.25196 -15.82682,25.51107 q 6.69596,-1.71549 20.30924,-4.15039 z"
         style="font-style:normal;font-variant:normal;font-weight:normal;font-stretch:normal;font-size:113.33333588px;line-height:1.25;font-family:'Comic Sans MS';-inkscape-font-specification:'Comic Sans MS';letter-spacing:0px;word-spacing:0px;fill:#000000;fill-opacity:0.49019608;stroke:none"
         id="path897" />
      <path
         inkscape:connector-curvature="0"
         d="m 299.50521,1006.5874 q -2.54557,0 -4.48242,-1.4388 -2.21354,-1.6601 -2.21354,-4.095 -2.54558,-6.69598 -3.20964,-10.90171 -0.66406,-4.20572 -4.37175,-23.85091 -2.82226,-14.88607 -3.76302,-23.90625 -4.92513,18.26172 -10.56966,30.93425 -6.52995,14.66471 -8.46679,22.96549 0.66406,1.27279 0.66406,2.49024 0,2.49019 -2.21354,4.09509 -1.99219,1.4941 -4.53776,1.4941 -7.47071,0 -7.47071,-6.69596 l -1.71549,-7.028 -6.0319,-27.11588 q -3.59701,-13.72396 -12.28516,-39.34571 -0.38737,-1.21745 -0.38737,-2.21354 0,-5.14648 5.81055,-5.14648 3.597,0 5.53385,3.92903 0.9961,1.99219 4.03971,11.45508 3.26498,10.01628 6.52995,24.1276 l 5.36784,24.45964 q 5.92123,-13.72396 11.78711,-33.42448 3.59701,-12.00846 5.47852,-16.6569 4.98047,-12.22982 9.68424,-12.22982 3.8737,0 5.47852,3.92904 1.99219,4.75911 4.03971,22.6888 1.10677,9.07552 3.76302,21.80339 l 4.75912,21.74804 q 7.41536,-17.81901 18.53841,-48.19987 0.60872,-1.66015 2.76693,-10.45898 1.60481,-6.47461 3.92903,-10.07162 1.99219,-3.04362 5.20183,-3.04362 5.58919,0 5.58919,5.53386 0,0.94075 -1.77083,5.53385 l -2.21355,5.97656 -3.04362,9.85027 -16.43554,39.95442 q -2.26888,6.58529 -7.80274,19.14718 -1.99219,3.7076 -5.97656,3.7076 z"
         style="font-style:normal;font-variant:normal;font-weight:normal;font-stretch:normal;font-size:113.33333588px;line-height:1.25;font-family:'Comic Sans MS';-inkscape-font-specification:'Comic Sans MS';letter-spacing:0px;word-spacing:0px;fill:#000000;fill-opacity:0.49019608;stroke:none"
         id="path899" />
      <path
         id="path901"
         transform="translate(0,540.36218)"
         d="M 357.38867 376.18945 C 355.83919 376.18945 354.53082 376.74284 353.46094 377.84961 C 352.42795 378.95638 351.91016 380.3023 351.91016 381.88867 C 351.91016 390.48459 351.65321 403.37847 351.13672 420.57031 C 350.62023 437.76215 350.36133 450.67578 350.36133 459.30859 C 350.36133 461.07945 350.87717 462.71989 351.91016 464.23242 C 353.1645 466.07709 354.8444 467 356.94727 467 C 360.1569 467 361.76172 465.17382 361.76172 461.52148 L 361.81641 432.52344 L 361.81641 431.75 L 378.36328 448.40625 C 383.84216 453.61216 388.64925 457.42825 392.79883 459.88281 C 396.29839 457.37492 399.75547 454.78075 403.16602 452.0957 C 403.08553 452.06704 403.01643 452.03117 402.93359 452.00391 C 400.49869 451.19227 398.22981 449.97483 396.12695 448.35156 L 390.31641 443.48047 C 380.87196 434.77387 373.93489 428.09765 369.50781 423.44922 C 376.51736 416.55035 383.30621 409.50261 389.87305 402.30859 C 399.39128 391.75738 404.15039 385.26497 404.15039 382.83008 C 404.15039 381.2437 403.57921 379.89779 402.43555 378.79102 C 401.29189 377.68425 399.98156 377.13086 398.50586 377.13086 C 396.95639 377.13086 395.55512 377.85026 394.30078 379.28906 L 378.41797 397.7168 C 372.18316 404.80013 366.59396 410.68381 361.65039 415.36914 C 361.6135 411.49544 361.81706 405.90625 362.25977 398.60156 C 362.70247 391.03863 362.92383 385.46723 362.92383 381.88867 C 362.92383 380.3023 362.38824 378.95638 361.31836 377.84961 C 360.28537 376.74284 358.97504 376.18945 357.38867 376.18945 z "
         style="font-style:normal;font-variant:normal;font-weight:normal;font-stretch:normal;font-size:113.33333588px;line-height:1.25;font-family:'Comic Sans MS';-inkscape-font-specification:'Comic Sans MS';letter-spacing:0px;word-spacing:0px;fill:#000000;fill-opacity:0.49019608;stroke:none" />
      <g
         id="flowRoot846"
         style="font-style:normal;font-weight:normal;font-size:40px;line-height:1.25;font-family:sans-serif;letter-spacing:0px;word-spacing:0px;fill:#ffffff;fill-opacity:1;stroke:none"
         transform="translate(-18.655599,546.32912)"
         aria-label="AWK">
        <path
           id="path890"
           style="font-style:normal;font-variant:normal;font-weight:normal;font-stretch:normal;font-size:113.33333588px;font-family:'Comic Sans MS';-inkscape-font-specification:'Comic Sans MS';fill:#ffffff"
           d="m 205.57943,436.60598 q -5.09115,0 -8.85417,-13.0599 -1.4388,-4.98047 -3.597,-17.43164 -5.64453,0.77474 -14.77539,2.76693 l -14.72006,3.04362 q -2.76692,7.24935 -9.46289,21.19466 -1.77083,3.09896 -4.81445,3.09896 -2.21354,0 -3.98438,-1.60482 -1.71549,-1.60482 -1.71549,-3.98437 0,-2.65625 8.35612,-20.19857 -0.94076,-1.43881 -0.94076,-3.32032 0,-4.48242 5.42318,-5.7552 6.30859,-11.84245 15.9375,-27.22657 13.11524,-20.9733 16.32487,-20.9733 4.37175,0 5.97656,6.08723 l 3.48633,18.59376 8.24545,38.46028 3.15429,8.74349 q 1.60482,4.48242 1.60482,5.97656 0,2.37956 -1.71549,3.98438 -1.7155,1.60482 -3.92904,1.60482 z m -19.53451,-63.25196 -15.82682,25.51107 q 6.69596,-1.71549 20.30924,-4.15039 z"
           inkscape:connector-curvature="0" />
        <path
           id="path892"
           style="font-style:normal;font-variant:normal;font-weight:normal;font-stretch:normal;font-size:113.33333588px;font-family:'Comic Sans MS';-inkscape-font-specification:'Comic Sans MS';fill:#ffffff"
           d="m 298.16081,440.25832 q -2.54557,0 -4.48242,-1.4388 -2.21354,-1.66016 -2.21354,-4.09505 -2.54558,-6.69597 -3.20964,-10.9017 -0.66406,-4.20572 -4.37175,-23.85091 -2.82226,-14.88607 -3.76302,-23.90625 -4.92513,18.26172 -10.56966,30.93425 -6.52995,14.66471 -8.46679,22.96549 0.66406,1.27279 0.66406,2.49024 0,2.49023 -2.21354,4.09505 -1.99219,1.49414 -4.53776,1.49414 -7.47071,0 -7.47071,-6.69596 l -1.71549,-7.028 -6.0319,-27.11588 q -3.59701,-13.72396 -12.28516,-39.34571 -0.38737,-1.21745 -0.38737,-2.21354 0,-5.14648 5.81055,-5.14648 3.597,0 5.53385,3.92903 0.9961,1.99219 4.03971,11.45508 3.26498,10.01628 6.52995,24.1276 l 5.36784,24.45964 q 5.92123,-13.72396 11.78711,-33.42448 3.59701,-12.00846 5.47852,-16.6569 4.98047,-12.22982 9.68424,-12.22982 3.8737,0 5.47852,3.92904 1.99219,4.75911 4.03971,22.6888 1.10677,9.07552 3.76302,21.80339 l 4.75912,21.74804 q 7.41536,-17.81901 18.53841,-48.19987 0.60872,-1.66015 2.76693,-10.45898 1.60481,-6.47461 3.92903,-10.07162 1.99219,-3.04362 5.20183,-3.04362 5.58919,0 5.58919,5.53386 0,0.94075 -1.77083,5.53385 l -2.21355,5.97656 -3.04362,9.85027 -16.43554,39.95442 q -2.26888,6.58529 -7.80274,19.14714 -1.99219,3.70768 -5.97656,3.70768 z"
           inkscape:connector-curvature="0" />
        <path
           id="path894"
           style="font-style:normal;font-variant:normal;font-weight:normal;font-stretch:normal;font-size:113.33333588px;font-family:'Comic Sans MS';-inkscape-font-specification:'Comic Sans MS';fill:#ffffff"
           d="m 400.97982,437.2147 q -8.41145,0 -23.96158,-14.77539 l -16.54623,-16.6569 v 0.77474 l -0.0553,28.9974 q 0,5.47851 -4.81445,5.47851 -3.1543,0 -5.03581,-2.76693 -1.54948,-2.26888 -1.54948,-4.92513 0,-12.94922 0.77474,-38.73698 0.77474,-25.78776 0.77474,-38.68164 0,-2.37956 1.54948,-4.03971 1.60482,-1.66016 3.92904,-1.66016 2.37955,0 3.92903,1.66016 1.60482,1.66015 1.60482,4.03971 0,5.36784 -0.66406,16.71224 -0.66406,10.95703 -0.60872,16.76758 7.41536,-7.02799 16.76757,-17.65299 l 15.88217,-18.42774 q 1.88151,-2.1582 4.20572,-2.1582 2.21355,0 3.92904,1.66015 1.7155,1.66016 1.7155,4.03972 0,3.65234 -14.27735,19.47916 -9.85026,10.79102 -20.36458,21.13933 6.64062,6.97265 20.80729,20.03255 l 5.81055,4.86979 q 3.15429,2.4349 6.80664,3.65235 4.37174,1.4388 4.37174,5.47851 0,1.88151 -1.16211,3.59701 -1.4388,2.10286 -3.81836,2.10286 z"
           inkscape:connector-curvature="0" />
      </g>
    </g>
  </g>
</svg>
