<?xml version="1.0" encoding="UTF-8" standalone="no"?>
<!-- Created with Inkscape (http://www.inkscape.org/) -->

<svg
   xmlns:dc="http://purl.org/dc/elements/1.1/"
   xmlns:cc="http://creativecommons.org/ns#"
   xmlns:rdf="http://www.w3.org/1999/02/22-rdf-syntax-ns#"
   xmlns:svg="http://www.w3.org/2000/svg"
   xmlns="http://www.w3.org/2000/svg"
   xmlns:sodipodi="http://sodipodi.sourceforge.net/DTD/sodipodi-0.dtd"
   xmlns:inkscape="http://www.inkscape.org/namespaces/inkscape"
   width="512"
   height="512"
   id="svg2"
   version="1.1"
   inkscape:version="0.92.2 5c3e80d, 2017-08-06"
   sodipodi:docname="application-x-quattropro.svg">
  <defs
     id="defs4" />
  <sodipodi:namedview
     id="base"
     pagecolor="#ffffff"
     bordercolor="#666666"
     borderopacity="1.0"
     inkscape:pageopacity="0.0"
     inkscape:pageshadow="2"
     inkscape:zoom="0.30333333"
     inkscape:cx="-469.01387"
     inkscape:cy="492.06584"
     inkscape:document-units="px"
     inkscape:current-layer="layer1"
     showgrid="false"
     inkscape:window-width="1366"
     inkscape:window-height="717"
     inkscape:window-x="0"
     inkscape:window-y="24"
     inkscape:window-maximized="1" />
  <metadata
     id="metadata7">
    <rdf:RDF>
      <cc:Work
         rdf:about="">
        <dc:format>image/svg+xml</dc:format>
        <dc:type
           rdf:resource="http://purl.org/dc/dcmitype/StillImage" />
        <dc:title />
      </cc:Work>
    </rdf:RDF>
  </metadata>
  <g
     inkscape:label="Layer 1"
     inkscape:groupmode="layer"
     id="layer1"
     transform="translate(0,-540.36218)">
    <g
       id="g864">
      <path
         style="fill:#68b723;fill-opacity:1;stroke-width:11.10955811"
         inkscape:connector-curvature="0"
         d="m 432.91324,596.83615 c 102.19291,88.57459 105.82677,249.69971 8.1168,359.89879 C 343.32009,1066.934 181.27965,1084.4628 79.086741,995.88819 -23.106205,907.31361 -26.740032,746.18849 70.969941,635.98941 168.67991,525.79033 330.72036,508.26156 432.91324,596.83615 Z"
         id="path937" />
      <g
         transform="translate(20,19.999999)"
         style="fill:#000000;fill-opacity:0.49019608"
         id="g903">
        <path
           sodipodi:nodetypes="ccccsccscsscccccccccccccccccccccccc"
           inkscape:connector-curvature="0"
           id="path894"
           d="m 169.80093,871.82472 c -25.73207,-2.4948 -47.04867,-22.8181 -50.88028,-48.5094 -0.22452,-1.5055 -0.41111,-42.25665 -0.41465,-90.55818 l -0.006,-87.82095 1.30585,-4.74017 c 3.0651,-11.12616 7.82682,-19.4983 15.30101,-26.90251 6.43805,-6.37775 13.54885,-10.76843 22.23146,-13.72717 8.28134,-2.82201 5.44519,-2.74329 98.83482,-2.74329 h 87.82098 l 4.63741,1.29908 c 16.27752,4.55982 27.25721,12.90498 35.89622,27.28308 2.97475,4.95094 6.03871,13.82464 6.94391,20.11066 0.13774,0.95647 0.27188,26.0637 0.29809,55.79385 l -0.14418,129.1229 c -2.14093,6.9318 -3.84492,10.5616 -7.62455,16.2421 -9.63889,14.4863 -24.7657,23.4836 -42.35788,25.1941 -7.0432,0.6847 -164.7414,0.6443 -171.84178,-0.044 z m 159.3535,-25.4821 c 19.546,-3.1715 35.69326,-19.3187 38.86471,-38.86473 0.38156,-2.35157 0.60364,-21.43672 0.60642,-52.11476 l 0.005,-48.40443 -43.64035,-43.63748 -43.64034,-43.63748 -50.99183,0.16368 -50.99183,0.16368 -4.05773,1.37032 c -16.24568,5.48624 -27.24754,16.58964 -32.26247,32.56018 l -1.35876,4.32715 v 75.06806 75.0681 l 1.35876,4.32717 c 5.48127,17.45564 19.39241,30.20454 36.65363,33.59104 3.79454,0.7445 144.87386,0.7629 149.45541,0.02 z"
           style="fill:#000000;fill-opacity:0.49019608;stroke-width:0.57967639" />
        <g
           id="g898"
           style="font-style:normal;font-weight:normal;font-size:40px;line-height:1.25;font-family:sans-serif;letter-spacing:0px;word-spacing:0px;fill:#000000;fill-opacity:0.49019608;stroke:none"
           transform="translate(4.737958,533.41561)"
           aria-label="X">
          <path
             inkscape:connector-curvature="0"
             id="path896"
             style="font-style:normal;font-variant:normal;font-weight:normal;font-stretch:normal;font-size:173.33332825px;font-family:'Comic Sans MS';-inkscape-font-specification:'Comic Sans MS';fill:#000000;fill-opacity:0.49019608"
             d="m 302.97591,150.92353 q -11.34115,13.71094 -17.4349,22.59766 l -10.57942,15.57291 q -6.17839,8.80208 -11.59506,14.8112 l 18.6198,27.2526 q 11.08723,16.16537 19.72005,26.40625 2.28515,2.79297 2.28515,5.83985 0,3.55468 -2.62369,6.17838 -2.53907,2.6237 -6.09375,2.6237 -3.21615,0 -6.00912,-2.6237 -6.26302,-5.92448 -13.03385,-16.08073 l -11.34115,-17.43489 -13.28776,-19.04297 -29.11458,33.68489 -15.57292,17.4349 q -2.79297,2.79297 -6.17838,2.79297 -3.47005,0 -6.09375,-2.6237 -2.6237,-2.6237 -2.6237,-6.17839 0,-3.04687 2.20052,-5.7552 l 15.23438,-17.01172 31.73828,-36.81641 q -9.3099,-12.4414 -19.80469,-24.96744 l -9.81771,-13.28776 q -5.92448,-7.95573 -11.0026,-12.1875 -3.55469,-2.96224 -3.55469,-6.85547 0,-3.47005 2.45443,-6.17839 2.45442,-2.70833 6.09375,-2.70833 7.19401,0 18.36588,15.31901 3.47005,5.16276 10.57943,14.64193 9.64844,11.51041 18.36588,23.10546 l 19.29688,-26.91406 q 18.78906,-26.15234 24.375,-26.15234 3.47005,0 6.09375,2.6237 2.62369,2.62369 2.62369,6.17838 0,2.96224 -2.28515,5.75521 z" />
        </g>
      </g>
      <path
         style="fill:#3a9104;fill-opacity:1;stroke:none;stroke-width:0.99999994px;stroke-linecap:butt;stroke-linejoin:miter;stroke-opacity:1"
         d="M 8.3652338,882.36219 C 19.949333,925.51392 43.551551,965.08853 79.085936,995.88759 181.27884,1084.4622 343.31934,1066.9343 441.02929,956.73524 461.3803,933.783 477.31887,908.61717 488.90233,882.36219 Z"
         id="path939"
         inkscape:connector-curvature="0"
         sodipodi:nodetypes="csscc" />
      <path
         style="opacity:1;stroke-width:11.10955811;fill:#000000;fill-opacity:0.49019608"
         inkscape:connector-curvature="0"
         d="M 511.63547,765.2657 C 510.08409,826.57734 486.47425,889.4203 440.6691,941.08017 342.95915,1051.2793 180.9187,1068.808 78.725758,980.23347 30.827124,938.71782 4.4968185,881.28502 0.19382646,820.59099 0.79907996,886.94766 27.117405,950.84436 79.078691,995.88129 181.2716,1084.4558 343.31975,1066.9184 441.02199,956.72795 490.72694,900.66984 514.02701,831.43698 511.63547,765.2657 Z"
         id="path941" />
      <g
         transform="translate(-7.3296775e-8,3.7976451e-6)"
         id="g908">
        <path
           style="fill:#ffffff;stroke-width:0.57967639"
           d="m 169.80093,871.82472 c -25.73207,-2.4948 -47.04867,-22.8181 -50.88028,-48.5094 -0.22452,-1.5055 -0.41111,-42.25665 -0.41465,-90.55818 l -0.006,-87.82095 1.30585,-4.74017 c 3.0651,-11.12616 7.82682,-19.4983 15.30101,-26.90251 6.43805,-6.37775 13.54885,-10.76843 22.23146,-13.72717 8.28134,-2.82201 5.44519,-2.74329 98.83482,-2.74329 h 87.82098 l 4.63741,1.29908 c 16.27752,4.55982 27.25721,12.90498 35.89622,27.28308 2.97475,4.95094 6.03871,13.82464 6.94391,20.11066 0.13774,0.95647 0.27188,26.0637 0.29809,55.79385 l -0.14418,129.1229 c -2.14093,6.9318 -3.84492,10.5616 -7.62455,16.2421 -9.63889,14.4863 -24.7657,23.4836 -42.35788,25.1941 -7.0432,0.6847 -164.7414,0.6443 -171.84178,-0.044 z m 159.3535,-25.4821 c 19.546,-3.1715 35.69326,-19.3187 38.86471,-38.86473 0.38156,-2.35157 0.60364,-21.43672 0.60642,-52.11476 l 0.005,-48.40443 -43.64035,-43.63748 -43.64034,-43.63748 -50.99183,0.16368 -50.99183,0.16368 -4.05773,1.37032 c -16.24568,5.48624 -27.24754,16.58964 -32.26247,32.56018 l -1.35876,4.32715 v 75.06806 75.0681 l 1.35876,4.32717 c 5.48127,17.45564 19.39241,30.20454 36.65363,33.59104 3.79454,0.7445 144.87386,0.7629 149.45541,0.02 z"
           id="path910"
           inkscape:connector-curvature="0"
           sodipodi:nodetypes="ccccsccscsscccccccccccccccccccccccc" />
        <g
           aria-label="X"
           transform="translate(4.737958,533.41561)"
           style="font-style:normal;font-weight:normal;font-size:40px;line-height:1.25;font-family:sans-serif;letter-spacing:0px;word-spacing:0px;fill:#ffffff;fill-opacity:1;stroke:none"
           id="flowRoot883">
          <path
             d="m 302.97591,150.92353 q -11.34115,13.71094 -17.4349,22.59766 l -10.57942,15.57291 q -6.17839,8.80208 -11.59506,14.8112 l 18.6198,27.2526 q 11.08723,16.16537 19.72005,26.40625 2.28515,2.79297 2.28515,5.83985 0,3.55468 -2.62369,6.17838 -2.53907,2.6237 -6.09375,2.6237 -3.21615,0 -6.00912,-2.6237 -6.26302,-5.92448 -13.03385,-16.08073 l -11.34115,-17.43489 -13.28776,-19.04297 -29.11458,33.68489 -15.57292,17.4349 q -2.79297,2.79297 -6.17838,2.79297 -3.47005,0 -6.09375,-2.6237 -2.6237,-2.6237 -2.6237,-6.17839 0,-3.04687 2.20052,-5.7552 l 15.23438,-17.01172 31.73828,-36.81641 q -9.3099,-12.4414 -19.80469,-24.96744 l -9.81771,-13.28776 q -5.92448,-7.95573 -11.0026,-12.1875 -3.55469,-2.96224 -3.55469,-6.85547 0,-3.47005 2.45443,-6.17839 2.45442,-2.70833 6.09375,-2.70833 7.19401,0 18.36588,15.31901 3.47005,5.16276 10.57943,14.64193 9.64844,11.51041 18.36588,23.10546 l 19.29688,-26.91406 q 18.78906,-26.15234 24.375,-26.15234 3.47005,0 6.09375,2.6237 2.62369,2.62369 2.62369,6.17838 0,2.96224 -2.28515,5.75521 z"
             style="font-style:normal;font-variant:normal;font-weight:normal;font-stretch:normal;font-size:173.33332825px;font-family:'Comic Sans MS';-inkscape-font-specification:'Comic Sans MS';fill:#ffffff"
             id="path891"
             inkscape:connector-curvature="0" />
        </g>
      </g>
      <g
         aria-label="WB"
         transform="translate(51.23568,537.8773)"
         style="font-style:normal;font-weight:normal;font-size:40px;line-height:1.25;font-family:sans-serif;letter-spacing:0px;word-spacing:0px;fill:#000000;fill-opacity:0.49019608;stroke:none"
         id="g934">
        <path
           d="m 207.31901,469.48488 q -2.54557,0 -4.48242,-1.4388 -2.21354,-1.66015 -2.21354,-4.09505 -2.54557,-6.69596 -3.20964,-10.90169 -0.66406,-4.20573 -4.37174,-23.85092 -2.82227,-14.88606 -3.76302,-23.90625 -4.92513,18.26172 -10.56966,30.93425 -6.52995,14.66471 -8.4668,22.9655 0.66406,1.27278 0.66406,2.49023 0,2.49023 -2.21354,4.09505 -1.99219,1.49414 -4.53776,1.49414 -7.4707,0 -7.4707,-6.69596 l -1.7155,-7.028 -6.0319,-27.11588 q -3.59701,-13.72396 -12.28516,-39.34571 -0.38737,-1.21744 -0.38737,-2.21354 0,-5.14648 5.81055,-5.14648 3.59701,0 5.53385,3.92903 0.9961,1.99219 4.03972,11.45508 3.26497,10.01628 6.52995,24.12761 l 5.36783,24.45963 q 5.92123,-13.72396 11.78711,-33.42448 3.59701,-12.00846 5.47852,-16.6569 4.98047,-12.22982 9.68425,-12.22982 3.87369,0 5.47851,3.92904 1.99219,4.75912 4.03971,22.6888 1.10678,9.07552 3.76303,21.80339 l 4.75911,21.74805 q 7.41536,-17.81901 18.53841,-48.19987 0.60873,-1.66016 2.76693,-10.45899 1.60482,-6.47461 3.92904,-10.07161 1.99218,-3.04362 5.20182,-3.04362 5.58919,0 5.58919,5.53385 0,0.94076 -1.77083,5.53385 l -2.21354,5.97657 -3.04362,9.85026 -16.43555,39.95443 q -2.26888,6.58528 -7.80274,19.14713 -1.99218,3.70768 -5.97656,3.70768 z"
           style="font-style:normal;font-variant:normal;font-weight:normal;font-stretch:normal;font-size:113.33333588px;font-family:'Comic Sans MS';-inkscape-font-specification:'Comic Sans MS';fill:#000000;fill-opacity:0.49019608"
           id="path930"
           inkscape:connector-curvature="0" />
        <path
           d="m 295.36264,461.95884 q -12.45118,4.86979 -31.81967,4.86979 -2.37955,0 -4.53776,-2.26888 -2.10286,-2.21354 -2.10286,-4.5931 v -16.10351 q 0,-7.91341 0.99609,-22.57813 1.10677,-15.82682 1.21745,-22.91015 -0.0553,-5.09115 0.60872,-15.16276 0.38737,-2.76693 1.82618,-3.65235 7.52604,-2.32422 17.09961,-2.32422 9.73958,0 18.70442,6.64063 10.34831,7.63672 10.34831,18.87044 0,14.22201 -11.06771,22.41211 8.30078,3.54167 12.39584,7.85807 4.15039,4.31641 4.15039,9.40756 0,6.69596 -7.24935,12.94922 -5.03581,4.42708 -10.56966,6.58528 z M 278.6504,388.5246 q -6.0319,0 -8.4668,0.38737 l -0.11068,9.68424 -1.10677,21.41602 q 7.85807,0.66406 8.41146,0.60872 8.35612,-0.66406 13.66862,-5.20182 5.69987,-4.92513 5.69987,-12.67253 0,-5.25716 -5.81055,-9.73958 -5.81054,-4.48242 -12.28515,-4.48242 z m 6.19791,44.32617 -5.86588,-0.94076 q -0.7194,0 -2.21354,0.11068 -1.43881,0.0553 -2.21355,0.0553 -2.98828,0 -6.36393,-0.49805 -0.33203,6.97266 -0.33203,12.45117 v 11.45508 q 14.4987,-0.49804 23.62956,-4.09505 3.8737,-1.49414 7.41536,-4.64844 3.37565,-2.8776 3.37565,-4.3164 0,-2.60091 -7.08333,-5.86589 -5.3125,-2.49023 -10.34831,-3.70768 z"
           style="font-style:normal;font-variant:normal;font-weight:normal;font-stretch:normal;font-size:113.33333588px;font-family:'Comic Sans MS';-inkscape-font-specification:'Comic Sans MS';fill:#000000;fill-opacity:0.49019608"
           id="path932"
           inkscape:connector-curvature="0" />
      </g>
      <g
         id="flowRoot917"
         style="font-style:normal;font-weight:normal;font-size:40px;line-height:1.25;font-family:sans-serif;letter-spacing:0px;word-spacing:0px;fill:#ffffff;fill-opacity:1;stroke:none"
         transform="translate(31.23568,517.8773)"
         aria-label="WB">
        <path
           inkscape:connector-curvature="0"
           id="path925"
           style="font-style:normal;font-variant:normal;font-weight:normal;font-stretch:normal;font-size:113.33333588px;font-family:'Comic Sans MS';-inkscape-font-specification:'Comic Sans MS';fill:#ffffff"
           d="m 207.31901,469.48488 q -2.54557,0 -4.48242,-1.4388 -2.21354,-1.66015 -2.21354,-4.09505 -2.54557,-6.69596 -3.20964,-10.90169 -0.66406,-4.20573 -4.37174,-23.85092 -2.82227,-14.88606 -3.76302,-23.90625 -4.92513,18.26172 -10.56966,30.93425 -6.52995,14.66471 -8.4668,22.9655 0.66406,1.27278 0.66406,2.49023 0,2.49023 -2.21354,4.09505 -1.99219,1.49414 -4.53776,1.49414 -7.4707,0 -7.4707,-6.69596 l -1.7155,-7.028 -6.0319,-27.11588 q -3.59701,-13.72396 -12.28516,-39.34571 -0.38737,-1.21744 -0.38737,-2.21354 0,-5.14648 5.81055,-5.14648 3.59701,0 5.53385,3.92903 0.9961,1.99219 4.03972,11.45508 3.26497,10.01628 6.52995,24.12761 l 5.36783,24.45963 q 5.92123,-13.72396 11.78711,-33.42448 3.59701,-12.00846 5.47852,-16.6569 4.98047,-12.22982 9.68425,-12.22982 3.87369,0 5.47851,3.92904 1.99219,4.75912 4.03971,22.6888 1.10678,9.07552 3.76303,21.80339 l 4.75911,21.74805 q 7.41536,-17.81901 18.53841,-48.19987 0.60873,-1.66016 2.76693,-10.45899 1.60482,-6.47461 3.92904,-10.07161 1.99218,-3.04362 5.20182,-3.04362 5.58919,0 5.58919,5.53385 0,0.94076 -1.77083,5.53385 l -2.21354,5.97657 -3.04362,9.85026 -16.43555,39.95443 q -2.26888,6.58528 -7.80274,19.14713 -1.99218,3.70768 -5.97656,3.70768 z" />
        <path
           inkscape:connector-curvature="0"
           id="path927"
           style="font-style:normal;font-variant:normal;font-weight:normal;font-stretch:normal;font-size:113.33333588px;font-family:'Comic Sans MS';-inkscape-font-specification:'Comic Sans MS';fill:#ffffff"
           d="m 295.36264,461.95884 q -12.45118,4.86979 -31.81967,4.86979 -2.37955,0 -4.53776,-2.26888 -2.10286,-2.21354 -2.10286,-4.5931 v -16.10351 q 0,-7.91341 0.99609,-22.57813 1.10677,-15.82682 1.21745,-22.91015 -0.0553,-5.09115 0.60872,-15.16276 0.38737,-2.76693 1.82618,-3.65235 7.52604,-2.32422 17.09961,-2.32422 9.73958,0 18.70442,6.64063 10.34831,7.63672 10.34831,18.87044 0,14.22201 -11.06771,22.41211 8.30078,3.54167 12.39584,7.85807 4.15039,4.31641 4.15039,9.40756 0,6.69596 -7.24935,12.94922 -5.03581,4.42708 -10.56966,6.58528 z M 278.6504,388.5246 q -6.0319,0 -8.4668,0.38737 l -0.11068,9.68424 -1.10677,21.41602 q 7.85807,0.66406 8.41146,0.60872 8.35612,-0.66406 13.66862,-5.20182 5.69987,-4.92513 5.69987,-12.67253 0,-5.25716 -5.81055,-9.73958 -5.81054,-4.48242 -12.28515,-4.48242 z m 6.19791,44.32617 -5.86588,-0.94076 q -0.7194,0 -2.21354,0.11068 -1.43881,0.0553 -2.21355,0.0553 -2.98828,0 -6.36393,-0.49805 -0.33203,6.97266 -0.33203,12.45117 v 11.45508 q 14.4987,-0.49804 23.62956,-4.09505 3.8737,-1.49414 7.41536,-4.64844 3.37565,-2.8776 3.37565,-4.3164 0,-2.60091 -7.08333,-5.86589 -5.3125,-2.49023 -10.34831,-3.70768 z" />
      </g>
    </g>
  </g>
</svg>
