<?xml version="1.0" encoding="UTF-8" standalone="no"?>
<!-- Created with Inkscape (http://www.inkscape.org/) -->

<svg
   xmlns:dc="http://purl.org/dc/elements/1.1/"
   xmlns:cc="http://creativecommons.org/ns#"
   xmlns:rdf="http://www.w3.org/1999/02/22-rdf-syntax-ns#"
   xmlns:svg="http://www.w3.org/2000/svg"
   xmlns="http://www.w3.org/2000/svg"
   xmlns:sodipodi="http://sodipodi.sourceforge.net/DTD/sodipodi-0.dtd"
   xmlns:inkscape="http://www.inkscape.org/namespaces/inkscape"
   width="512"
   height="512"
   id="svg2"
   version="1.1"
   inkscape:version="0.92.2 5c3e80d, 2017-08-06"
   sodipodi:docname="application-x-ms-dos-executable.svg">
  <defs
     id="defs4" />
  <sodipodi:namedview
     id="base"
     pagecolor="#ffffff"
     bordercolor="#666666"
     borderopacity="1.0"
     inkscape:pageopacity="0.0"
     inkscape:pageshadow="2"
     inkscape:zoom="0.30333332"
     inkscape:cx="652.61408"
     inkscape:cy="371.95154"
     inkscape:document-units="px"
     inkscape:current-layer="layer1"
     showgrid="false"
     inkscape:window-width="1366"
     inkscape:window-height="717"
     inkscape:window-x="0"
     inkscape:window-y="24"
     inkscape:window-maximized="1" />
  <metadata
     id="metadata7">
    <rdf:RDF>
      <cc:Work
         rdf:about="">
        <dc:format>image/svg+xml</dc:format>
        <dc:type
           rdf:resource="http://purl.org/dc/dcmitype/StillImage" />
        <dc:title></dc:title>
      </cc:Work>
    </rdf:RDF>
  </metadata>
  <g
     inkscape:label="Layer 1"
     inkscape:groupmode="layer"
     id="layer1"
     transform="translate(0,-540.36218)">
    <g
       id="g882">
      <path
         style="fill:#333333;fill-opacity:1;stroke-width:11.10955811"
         inkscape:connector-curvature="0"
         d="m 432.91326,596.83616 c 102.19291,88.57459 105.82678,249.69971 8.1168,359.89879 C 343.32009,1066.934 181.27965,1084.4628 79.086741,995.8882 -23.106205,907.31362 -26.740032,746.1885 70.969941,635.98942 168.67991,525.79034 330.72036,508.26157 432.91326,596.83616 Z"
         id="path961" />
      <path
         style="fill:#1a1a1a;fill-opacity:1;stroke:none;stroke-width:0.99999994px;stroke-linecap:butt;stroke-linejoin:miter;stroke-opacity:1"
         d="m 8.3652408,882.3622 c 11.5841002,43.15173 35.1863102,82.72637 70.7207102,113.5254 102.192909,88.5746 264.233389,71.0467 361.943359,-39.15235 20.35102,-22.95224 36.28955,-48.11807 47.87304,-74.37305 z"
         id="path963"
         inkscape:connector-curvature="0"
         sodipodi:nodetypes="csscc" />
      <path
         style="opacity:0.1;stroke-width:11.10955811"
         inkscape:connector-curvature="0"
         d="m 511.6355,765.26571 c -1.55139,61.31164 -25.16123,124.1546 -70.96638,175.81447 C 342.95915,1051.2793 180.9187,1068.808 78.725761,980.23348 30.827121,938.71783 4.4968208,881.28503 0.19383086,820.591 0.79908086,886.94767 27.117401,950.84437 79.078691,995.8813 181.2716,1084.4558 343.31975,1066.9184 441.02201,956.72796 490.72696,900.66985 514.02703,831.43699 511.6355,765.26571 Z"
         id="path965" />
      <path
         style="fill:#2e2e2e;fill-opacity:1;stroke-width:0.59211284"
         d="m 256.07408,882.00806 c -2.76089,-0.3413 -5.67283,-1.16826 -7.69746,-2.18601 -4.71483,-2.37013 -6.20355,-5.63342 -7.09478,-15.55178 -0.82531,-9.1847 -1.25155,-11.31147 -2.37903,-11.87061 -0.48851,-0.24218 -4.01811,-1.42959 -7.84361,-2.63852 -3.82548,-1.20897 -10.35352,-3.90077 -14.50676,-5.98182 -4.15322,-2.081 -7.98011,-3.78411 -8.50416,-3.78463 -0.52407,-5.8e-4 -2.12277,1.01398 -3.55268,2.25449 -4.7018,4.0791 -10.86398,8.79797 -12.78843,9.79313 -2.99552,1.54907 -7.74562,1.2761 -11.32061,-0.65047 -9.24399,-4.98164 -21.78585,-19.0186 -22.90348,-25.6338 -0.71962,-4.25942 1.42714,-8.12524 10.32944,-18.60103 1.64853,-1.93985 2.99685,-3.93825 2.99631,-4.44084 -5.6e-4,-0.50256 -1.67057,-4.24579 -3.71112,-8.31826 -2.04057,-4.07246 -4.72597,-10.60051 -5.96756,-14.50677 -1.24157,-3.90627 -2.46203,-7.50196 -2.71209,-7.99043 -0.5615,-1.09687 -2.60198,-1.53031 -11.29275,-2.39892 -3.74512,-0.37427 -7.79349,-0.95791 -8.99641,-1.29694 -3.47885,-0.98051 -6.16331,-3.60032 -7.58635,-7.40379 -1.70405,-4.55453 -2.49985,-14.73923 -1.77372,-22.70024 0.65667,-7.1991 1.28908,-9.70862 3.13869,-12.45459 2.37146,-3.52079 5.13429,-4.55158 14.98272,-5.58997 4.85138,-0.51149 9.38399,-1.04204 10.07246,-1.17896 1.0265,-0.20421 1.69598,-1.61599 3.72032,-7.84585 1.35772,-4.17833 4.18475,-11.04344 6.2823,-15.25585 2.09754,-4.21238 3.82064,-8.19634 3.82912,-8.85331 0.009,-0.65689 -1.12611,-2.52203 -2.52129,-4.14475 -9.02089,-10.49214 -10.70906,-13.43333 -10.37344,-18.07308 0.35843,-4.95526 3.04429,-9.05445 11.46589,-17.49933 8.71462,-8.73871 12.93205,-11.22164 18.30411,-10.77614 3.72454,0.30881 6.50668,1.99576 13.92999,8.44621 6.76468,5.87818 5.87265,5.78297 14.31787,1.52811 4.01184,-2.02124 11.02455,-4.93813 15.58382,-6.482 9.61508,-3.2559 8.64279,-1.8654 9.77287,-13.97643 0.88037,-9.43475 1.39775,-11.17063 4.1497,-13.9226 3.69376,-3.69373 7.02972,-4.42825 20.12393,-4.43078 12.24879,-0.003 15.77338,0.59424 19.51269,3.30296 3.7379,2.70773 4.66893,5.22377 5.73816,15.50678 0.91427,8.79297 1.74966,11.68195 3.37794,11.68195 2.08445,0 12.86518,4.09199 20.64435,7.83581 l 8.71343,4.19353 2.03742,-1.4258 c 1.12058,-0.78419 4.52695,-3.45381 7.56969,-5.9325 3.04275,-2.4787 6.38497,-4.94337 7.42721,-5.47705 2.83107,-1.44969 7.10661,-1.23732 10.65121,0.52901 6.7442,3.3608 18.33929,15.12413 21.57595,21.8891 1.9854,4.14965 2.17285,7.40914 0.60323,10.48792 -1.16065,2.27652 -5.95903,8.59996 -9.61154,12.66633 -1.20061,1.33665 -2.35894,2.98479 -2.57402,3.66248 -0.27483,0.86594 0.80929,3.6636 3.64729,9.41199 2.22113,4.49884 5.05595,11.31004 6.29966,15.13593 1.24368,3.82591 2.56189,7.14197 2.92929,7.36907 0.36741,0.2272 5.0024,0.88662 10.29996,1.46564 6.92551,0.75697 10.29929,1.39325 12.00702,2.26449 5.1215,2.61279 7.08635,8.74255 7.10307,22.15981 0.01,9.83668 -0.69921,14.44898 -2.83885,18.40312 -2.39574,4.42752 -4.81341,5.50896 -14.75862,6.6016 -13.14055,1.44376 -12.02855,0.76414 -14.62686,8.93978 -1.21655,3.82788 -4.04223,10.76935 -6.27936,15.42546 -3.30646,6.88176 -3.96828,8.72664 -3.53724,9.86039 0.29166,0.76707 0.81243,1.56905 1.15729,1.78222 1.11379,0.68831 9.888,11.80118 10.96923,13.89288 1.58038,3.05735 1.34875,7.1427 -0.63222,11.15195 -1.21384,2.45658 -3.82069,5.54267 -9.39411,11.12105 -8.96084,8.96878 -12.96587,11.52276 -18.06944,11.52276 -3.90938,0 -5.69335,-0.87511 -11.55279,-5.667 -7.07607,-5.78683 -9.26306,-7.35948 -10.23438,-7.35948 -0.48344,0 -4.37361,1.73172 -8.64483,3.84824 -4.27123,2.11655 -10.95725,4.88751 -14.85783,6.15773 -4.36313,1.42087 -7.3611,2.73108 -7.79147,3.40514 -0.38472,0.6026 -1.12339,5.07466 -1.64146,9.93791 -1.37777,12.93337 -3.10825,15.65602 -11.30443,17.78573 -4.36065,1.13315 -17.37735,1.62265 -23.38845,0.87963 z m 16.87523,-77.01333 c 20.99494,-2.57285 38.473,-15.02614 47.69366,-33.98222 4.69346,-9.64892 5.60457,-14.021 5.55263,-26.64509 -0.0403,-9.80262 -0.1712,-11.07546 -1.63157,-15.85919 -3.37006,-11.04001 -7.95368,-18.78018 -15.72114,-26.54765 -7.7599,-7.75989 -15.4757,-12.33159 -26.54764,-15.72973 -4.85062,-1.48873 -5.93945,-1.5963 -16.15525,-1.5963 -10.23468,0 -11.30407,0.10594 -16.2831,1.61655 -11.13569,3.37812 -19.69199,8.56135 -27.35747,16.57256 -5.38351,5.62633 -8.28297,9.82441 -11.4385,16.56163 -10.69279,22.82964 -5.80703,50.22937 12.16045,68.19685 9.50772,9.50774 22.65218,15.92489 35.75739,17.45689 5.82704,0.68118 8.10955,0.67396 13.97054,-0.0443 z"
         id="path833"
         inkscape:connector-curvature="0" />
      <path
         inkscape:connector-curvature="0"
         id="path844"
         d="m 246.07408,872.00806 c -2.76089,-0.3413 -5.67283,-1.16826 -7.69746,-2.18601 -4.71483,-2.37013 -6.20355,-5.63342 -7.09478,-15.55178 -0.82531,-9.1847 -1.25155,-11.31147 -2.37903,-11.87061 -0.48851,-0.24218 -4.01811,-1.42959 -7.84361,-2.63852 -3.82548,-1.20897 -10.35352,-3.90077 -14.50676,-5.98182 -4.15322,-2.081 -7.98011,-3.78411 -8.50416,-3.78463 -0.52407,-5.8e-4 -2.12277,1.01398 -3.55268,2.25449 -4.7018,4.0791 -10.86398,8.79797 -12.78843,9.79313 -2.99552,1.54907 -7.74562,1.2761 -11.32061,-0.65047 -9.24399,-4.98164 -21.78585,-19.0186 -22.90348,-25.6338 -0.71962,-4.25942 1.42714,-8.12524 10.32944,-18.60103 1.64853,-1.93985 2.99685,-3.93825 2.99631,-4.44084 -5.6e-4,-0.50256 -1.67057,-4.24579 -3.71112,-8.31826 -2.04057,-4.07246 -4.72597,-10.60051 -5.96756,-14.50677 -1.24157,-3.90627 -2.46203,-7.50196 -2.71209,-7.99043 -0.5615,-1.09687 -2.60198,-1.53031 -11.29275,-2.39892 -3.74512,-0.37427 -7.79349,-0.95791 -8.99641,-1.29694 -3.47885,-0.98051 -6.16331,-3.60032 -7.58635,-7.40379 -1.70405,-4.55453 -2.49985,-14.73923 -1.77372,-22.70024 0.65667,-7.1991 1.28908,-9.70862 3.13869,-12.45459 2.37146,-3.52079 5.13429,-4.55158 14.98272,-5.58997 4.85138,-0.51149 9.38399,-1.04204 10.07246,-1.17896 1.0265,-0.20421 1.69598,-1.61599 3.72032,-7.84585 1.35772,-4.17833 4.18475,-11.04344 6.2823,-15.25585 2.09754,-4.21238 3.82064,-8.19634 3.82912,-8.85331 0.009,-0.65689 -1.12611,-2.52203 -2.52129,-4.14475 -9.02089,-10.49214 -10.70906,-13.43333 -10.37344,-18.07308 0.35843,-4.95526 3.04429,-9.05445 11.46589,-17.49933 8.71462,-8.73871 12.93205,-11.22164 18.30411,-10.77614 3.72454,0.30881 6.50668,1.99576 13.92999,8.44621 6.76468,5.87818 5.87265,5.78297 14.31787,1.52811 4.01184,-2.02124 11.02455,-4.93813 15.58382,-6.482 9.61508,-3.2559 8.64279,-1.8654 9.77287,-13.97643 0.88037,-9.43475 1.39775,-11.17063 4.1497,-13.9226 3.69376,-3.69373 7.02972,-4.42825 20.12393,-4.43078 12.24879,-0.003 15.77338,0.59424 19.51269,3.30296 3.7379,2.70773 4.66893,5.22377 5.73816,15.50678 0.91427,8.79297 1.74966,11.68195 3.37794,11.68195 2.08445,0 12.86518,4.09199 20.64435,7.83581 l 8.71343,4.19353 2.03742,-1.4258 c 1.12058,-0.78419 4.52695,-3.45381 7.56969,-5.9325 3.04275,-2.4787 6.38497,-4.94337 7.42721,-5.47705 2.83107,-1.44969 7.10661,-1.23732 10.65121,0.52901 6.7442,3.3608 18.33929,15.12413 21.57595,21.8891 1.9854,4.14965 2.17285,7.40914 0.60323,10.48792 -1.16065,2.27652 -5.95903,8.59996 -9.61154,12.66633 -1.20061,1.33665 -2.35894,2.98479 -2.57402,3.66248 -0.27483,0.86594 0.80929,3.6636 3.64729,9.41199 2.22113,4.49884 5.05595,11.31004 6.29966,15.13593 1.24368,3.82591 2.56189,7.14197 2.92929,7.36907 0.36741,0.2272 5.0024,0.88662 10.29996,1.46564 6.92551,0.75697 10.29929,1.39325 12.00702,2.26449 5.1215,2.61279 7.08635,8.74255 7.10307,22.15981 0.01,9.83668 -0.69921,14.44898 -2.83885,18.40312 -2.39574,4.42752 -4.81341,5.50896 -14.75862,6.6016 -13.14055,1.44376 -12.02855,0.76414 -14.62686,8.93978 -1.21655,3.82788 -4.04223,10.76935 -6.27936,15.42546 -3.30646,6.88176 -3.96828,8.72664 -3.53724,9.86039 0.29166,0.76707 0.81243,1.56905 1.15729,1.78222 1.11379,0.68831 9.888,11.80118 10.96923,13.89288 1.58038,3.05735 1.34875,7.1427 -0.63222,11.15195 -1.21384,2.45658 -3.82069,5.54267 -9.39411,11.12105 -8.96084,8.96878 -12.96587,11.52276 -18.06944,11.52276 -3.90938,0 -5.69335,-0.87511 -11.55279,-5.667 -7.07607,-5.78683 -9.26306,-7.35948 -10.23438,-7.35948 -0.48344,0 -4.37361,1.73172 -8.64483,3.84824 -4.27123,2.11655 -10.95725,4.88751 -14.85783,6.15773 -4.36313,1.42087 -7.3611,2.73108 -7.79147,3.40514 -0.38472,0.6026 -1.12339,5.07466 -1.64146,9.93791 -1.37777,12.93337 -3.10825,15.65602 -11.30443,17.78573 -4.36065,1.13315 -17.37735,1.62265 -23.38845,0.87963 z m 16.87523,-77.01333 c 20.99494,-2.57285 38.473,-15.02614 47.69366,-33.98222 4.69346,-9.64892 5.60457,-14.021 5.55263,-26.64509 -0.0403,-9.80262 -0.1712,-11.07546 -1.63157,-15.85919 -3.37006,-11.04001 -7.95368,-18.78018 -15.72114,-26.54765 -7.7599,-7.75989 -15.4757,-12.33159 -26.54764,-15.72973 -4.85062,-1.48873 -5.93945,-1.5963 -16.15525,-1.5963 -10.23468,0 -11.30407,0.10594 -16.2831,1.61655 -11.13569,3.37812 -19.69199,8.56135 -27.35747,16.57256 -5.38351,5.62633 -8.28297,9.82441 -11.4385,16.56163 -10.69279,22.82964 -5.80703,50.22937 12.16045,68.19685 9.50772,9.50774 22.65218,15.92489 35.75739,17.45689 5.82704,0.68118 8.10955,0.67396 13.97054,-0.0443 z"
         style="fill:#ffffff;stroke-width:0.59211284" />
      <g
         aria-label="EXE"
         transform="translate(33.36589,534.18003)"
         style="font-style:normal;font-weight:normal;font-size:40px;line-height:1.25;font-family:sans-serif;letter-spacing:0px;word-spacing:0px;fill:#171717;fill-opacity:1;stroke:none"
         id="g867">
        <path
           d="m 180.58919,383.21796 q -0.77474,0 -1.71549,-0.2767 -9.35221,-2.65625 -18.04037,-2.65625 -4.53776,0 -9.90559,0.83008 -5.36784,0.83008 -11.56576,2.54557 0.49805,3.59701 0.49805,5.75521 0,7.69206 -0.94076,21.13933 l 24.23828,-2.32422 q 10.68034,-1.10677 13.11524,-1.10677 2.43489,0 4.09505,1.54948 1.66016,1.54947 1.66016,4.15039 0,5.0358 -5.09115,5.64453 l -13.17057,1.16211 -25.56641,2.32422 q -0.22135,3.92903 -0.38737,7.4707 -0.11068,3.48633 -0.11068,6.52995 0,12.22981 1.77084,14.38802 1.32812,1.54948 8.68815,1.54948 3.43099,0 10.29297,-0.16602 6.91731,-0.22135 10.40364,-0.22135 1.10677,0 3.26498,-0.33203 2.1582,-0.38737 3.20963,-0.38737 5.86589,0 5.86589,5.7552 0,4.64844 -4.70378,5.5892 -5.20182,1.05143 -22.52279,1.05143 -17.15494,0 -22.02474,-4.53776 -5.3125,-4.92513 -5.3125,-22.6888 0,-3.54167 0.16602,-7.7474 0.16602,-4.20573 0.44271,-9.07552 -0.60873,-1.27279 -0.60873,-2.71159 0,-1.88151 1.05144,-3.37565 1.10677,-15.99284 1.10677,-23.62956 0,-2.04752 -0.55339,-5.97656 -0.55338,-3.98438 -0.55338,-6.0319 0,-6.58529 5.53385,-6.58529 2.32422,0 3.98438,1.60482 6.64062,-1.77083 12.50651,-2.65625 5.92122,-0.88542 11.12304,-0.88542 13.44727,0 21.47136,3.20964 3.70768,1.49414 3.70768,5.3125 0,2.21354 -1.4388,3.92903 -1.60482,1.88152 -3.98438,1.88152 z"
           style="font-style:normal;font-variant:normal;font-weight:normal;font-stretch:normal;font-size:113.33333588px;font-family:'Comic Sans MS';-inkscape-font-specification:'Comic Sans MS';fill:#171717;fill-opacity:1"
           id="path861"
           inkscape:connector-curvature="0" />
        <path
           d="m 266.03191,383.05194 q -7.41537,8.96484 -11.39974,14.77539 l -6.91732,10.18229 q -4.03972,5.75521 -7.58138,9.68425 l 12.17448,17.81901 q 7.24935,10.56966 12.89388,17.26562 1.49414,1.82618 1.49414,3.81836 0,2.32422 -1.7155,4.03972 -1.66015,1.71549 -3.98437,1.71549 -2.10287,0 -3.92904,-1.71549 -4.09505,-3.8737 -8.52213,-10.51433 l -7.41537,-11.39974 -8.68815,-12.45117 -19.03646,22.02474 -10.18229,11.39974 q -1.82617,1.82617 -4.03971,1.82617 -2.26888,0 -3.98438,-1.71549 -1.71549,-1.7155 -1.71549,-4.03971 0,-1.99219 1.4388,-3.76303 l 9.96094,-11.12304 20.75195,-24.07227 q -6.08724,-8.13476 -12.94922,-16.32487 l -6.41927,-8.68815 q -3.8737,-5.20182 -7.19401,-7.96875 -2.32422,-1.93685 -2.32422,-4.48242 0,-2.26888 1.60482,-4.03972 1.60482,-1.77083 3.98437,-1.77083 4.70378,0 12.00847,10.01628 2.26888,3.37565 6.91731,9.57356 6.3086,7.52605 12.00847,15.10743 l 12.61719,-17.59766 q 12.28515,-17.09961 15.9375,-17.09961 2.26888,0 3.98437,1.7155 1.7155,1.71549 1.7155,4.03971 0,1.93685 -1.49414,3.76302 z"
           style="font-style:normal;font-variant:normal;font-weight:normal;font-stretch:normal;font-size:113.33333588px;font-family:'Comic Sans MS';-inkscape-font-specification:'Comic Sans MS';fill:#171717;fill-opacity:1"
           id="path863"
           inkscape:connector-curvature="0" />
        <path
           d="m 333.54493,383.21796 q -0.77474,0 -1.7155,-0.2767 -9.35221,-2.65625 -18.04036,-2.65625 -4.53776,0 -9.9056,0.83008 -5.36784,0.83008 -11.56576,2.54557 0.49805,3.59701 0.49805,5.75521 0,7.69206 -0.94075,21.13933 l 24.23828,-2.32422 q 10.68034,-1.10677 13.11523,-1.10677 2.4349,0 4.09505,1.54948 1.66016,1.54947 1.66016,4.15039 0,5.0358 -5.09115,5.64453 l -13.17057,1.16211 -25.56641,2.32422 q -0.22135,3.92903 -0.38737,7.4707 -0.11067,3.48633 -0.11067,6.52995 0,12.22981 1.77083,14.38802 1.32813,1.54948 8.68815,1.54948 3.43099,0 10.29297,-0.16602 6.91732,-0.22135 10.40365,-0.22135 1.10677,0 3.26497,-0.33203 2.1582,-0.38737 3.20964,-0.38737 5.86588,0 5.86588,5.7552 0,4.64844 -4.70377,5.5892 -5.20183,1.05143 -22.52279,1.05143 -17.15495,0 -22.02474,-4.53776 -5.3125,-4.92513 -5.3125,-22.6888 0,-3.54167 0.16601,-7.7474 0.16602,-4.20573 0.44271,-9.07552 -0.60872,-1.27279 -0.60872,-2.71159 0,-1.88151 1.05143,-3.37565 1.10677,-15.99284 1.10677,-23.62956 0,-2.04752 -0.55338,-5.97656 -0.55339,-3.98438 -0.55339,-6.0319 0,-6.58529 5.53386,-6.58529 2.32421,0 3.98437,1.60482 6.64063,-1.77083 12.50651,-2.65625 5.92123,-0.88542 11.12305,-0.88542 13.44726,0 21.47135,3.20964 3.70769,1.49414 3.70769,5.3125 0,2.21354 -1.43881,3.92903 -1.60481,1.88152 -3.98437,1.88152 z"
           style="font-style:normal;font-variant:normal;font-weight:normal;font-stretch:normal;font-size:113.33333588px;font-family:'Comic Sans MS';-inkscape-font-specification:'Comic Sans MS';fill:#171717;fill-opacity:1"
           id="path865"
           inkscape:connector-curvature="0" />
      </g>
      <g
         id="flowRoot846"
         style="font-style:normal;font-weight:normal;font-size:40px;line-height:1.25;font-family:sans-serif;letter-spacing:0px;word-spacing:0px;fill:#000000;fill-opacity:1;stroke:none"
         transform="translate(23.36589,524.18003)"
         aria-label="EXE">
        <path
           inkscape:connector-curvature="0"
           id="path854"
           style="font-style:normal;font-variant:normal;font-weight:normal;font-stretch:normal;font-size:113.33333588px;font-family:'Comic Sans MS';-inkscape-font-specification:'Comic Sans MS';fill:#ffffff"
           d="m 180.58919,383.21796 q -0.77474,0 -1.71549,-0.2767 -9.35221,-2.65625 -18.04037,-2.65625 -4.53776,0 -9.90559,0.83008 -5.36784,0.83008 -11.56576,2.54557 0.49805,3.59701 0.49805,5.75521 0,7.69206 -0.94076,21.13933 l 24.23828,-2.32422 q 10.68034,-1.10677 13.11524,-1.10677 2.43489,0 4.09505,1.54948 1.66016,1.54947 1.66016,4.15039 0,5.0358 -5.09115,5.64453 l -13.17057,1.16211 -25.56641,2.32422 q -0.22135,3.92903 -0.38737,7.4707 -0.11068,3.48633 -0.11068,6.52995 0,12.22981 1.77084,14.38802 1.32812,1.54948 8.68815,1.54948 3.43099,0 10.29297,-0.16602 6.91731,-0.22135 10.40364,-0.22135 1.10677,0 3.26498,-0.33203 2.1582,-0.38737 3.20963,-0.38737 5.86589,0 5.86589,5.7552 0,4.64844 -4.70378,5.5892 -5.20182,1.05143 -22.52279,1.05143 -17.15494,0 -22.02474,-4.53776 -5.3125,-4.92513 -5.3125,-22.6888 0,-3.54167 0.16602,-7.7474 0.16602,-4.20573 0.44271,-9.07552 -0.60873,-1.27279 -0.60873,-2.71159 0,-1.88151 1.05144,-3.37565 1.10677,-15.99284 1.10677,-23.62956 0,-2.04752 -0.55339,-5.97656 -0.55338,-3.98438 -0.55338,-6.0319 0,-6.58529 5.53385,-6.58529 2.32422,0 3.98438,1.60482 6.64062,-1.77083 12.50651,-2.65625 5.92122,-0.88542 11.12304,-0.88542 13.44727,0 21.47136,3.20964 3.70768,1.49414 3.70768,5.3125 0,2.21354 -1.4388,3.92903 -1.60482,1.88152 -3.98438,1.88152 z" />
        <path
           inkscape:connector-curvature="0"
           id="path856"
           style="font-style:normal;font-variant:normal;font-weight:normal;font-stretch:normal;font-size:113.33333588px;font-family:'Comic Sans MS';-inkscape-font-specification:'Comic Sans MS';fill:#ffffff"
           d="m 266.03191,383.05194 q -7.41537,8.96484 -11.39974,14.77539 l -6.91732,10.18229 q -4.03972,5.75521 -7.58138,9.68425 l 12.17448,17.81901 q 7.24935,10.56966 12.89388,17.26562 1.49414,1.82618 1.49414,3.81836 0,2.32422 -1.7155,4.03972 -1.66015,1.71549 -3.98437,1.71549 -2.10287,0 -3.92904,-1.71549 -4.09505,-3.8737 -8.52213,-10.51433 l -7.41537,-11.39974 -8.68815,-12.45117 -19.03646,22.02474 -10.18229,11.39974 q -1.82617,1.82617 -4.03971,1.82617 -2.26888,0 -3.98438,-1.71549 -1.71549,-1.7155 -1.71549,-4.03971 0,-1.99219 1.4388,-3.76303 l 9.96094,-11.12304 20.75195,-24.07227 q -6.08724,-8.13476 -12.94922,-16.32487 l -6.41927,-8.68815 q -3.8737,-5.20182 -7.19401,-7.96875 -2.32422,-1.93685 -2.32422,-4.48242 0,-2.26888 1.60482,-4.03972 1.60482,-1.77083 3.98437,-1.77083 4.70378,0 12.00847,10.01628 2.26888,3.37565 6.91731,9.57356 6.3086,7.52605 12.00847,15.10743 l 12.61719,-17.59766 q 12.28515,-17.09961 15.9375,-17.09961 2.26888,0 3.98437,1.7155 1.7155,1.71549 1.7155,4.03971 0,1.93685 -1.49414,3.76302 z" />
        <path
           inkscape:connector-curvature="0"
           id="path858"
           style="font-style:normal;font-variant:normal;font-weight:normal;font-stretch:normal;font-size:113.33333588px;font-family:'Comic Sans MS';-inkscape-font-specification:'Comic Sans MS';fill:#ffffff"
           d="m 333.54493,383.21796 q -0.77474,0 -1.7155,-0.2767 -9.35221,-2.65625 -18.04036,-2.65625 -4.53776,0 -9.9056,0.83008 -5.36784,0.83008 -11.56576,2.54557 0.49805,3.59701 0.49805,5.75521 0,7.69206 -0.94075,21.13933 l 24.23828,-2.32422 q 10.68034,-1.10677 13.11523,-1.10677 2.4349,0 4.09505,1.54948 1.66016,1.54947 1.66016,4.15039 0,5.0358 -5.09115,5.64453 l -13.17057,1.16211 -25.56641,2.32422 q -0.22135,3.92903 -0.38737,7.4707 -0.11067,3.48633 -0.11067,6.52995 0,12.22981 1.77083,14.38802 1.32813,1.54948 8.68815,1.54948 3.43099,0 10.29297,-0.16602 6.91732,-0.22135 10.40365,-0.22135 1.10677,0 3.26497,-0.33203 2.1582,-0.38737 3.20964,-0.38737 5.86588,0 5.86588,5.7552 0,4.64844 -4.70377,5.5892 -5.20183,1.05143 -22.52279,1.05143 -17.15495,0 -22.02474,-4.53776 -5.3125,-4.92513 -5.3125,-22.6888 0,-3.54167 0.16601,-7.7474 0.16602,-4.20573 0.44271,-9.07552 -0.60872,-1.27279 -0.60872,-2.71159 0,-1.88151 1.05143,-3.37565 1.10677,-15.99284 1.10677,-23.62956 0,-2.04752 -0.55338,-5.97656 -0.55339,-3.98438 -0.55339,-6.0319 0,-6.58529 5.53386,-6.58529 2.32421,0 3.98437,1.60482 6.64063,-1.77083 12.50651,-2.65625 5.92123,-0.88542 11.12305,-0.88542 13.44726,0 21.47135,3.20964 3.70769,1.49414 3.70769,5.3125 0,2.21354 -1.43881,3.92903 -1.60481,1.88152 -3.98437,1.88152 z" />
      </g>
    </g>
  </g>
</svg>
