<?xml version="1.0" encoding="UTF-8" standalone="no"?>
<!-- Created with Inkscape (http://www.inkscape.org/) -->

<svg
   xmlns:dc="http://purl.org/dc/elements/1.1/"
   xmlns:cc="http://creativecommons.org/ns#"
   xmlns:rdf="http://www.w3.org/1999/02/22-rdf-syntax-ns#"
   xmlns:svg="http://www.w3.org/2000/svg"
   xmlns="http://www.w3.org/2000/svg"
   xmlns:sodipodi="http://sodipodi.sourceforge.net/DTD/sodipodi-0.dtd"
   xmlns:inkscape="http://www.inkscape.org/namespaces/inkscape"
   width="512"
   height="512"
   id="svg2"
   version="1.1"
   inkscape:version="0.92.2 5c3e80d, 2017-08-06"
   sodipodi:docname="application-pgp.svg">
  <defs
     id="defs4" />
  <sodipodi:namedview
     id="base"
     pagecolor="#ffffff"
     bordercolor="#666666"
     borderopacity="1.0"
     inkscape:pageopacity="0.0"
     inkscape:pageshadow="2"
     inkscape:zoom="0.308a715e"
     inkscape:cx="215.49292"
     inkscape:cy="155.54397"
     inkscape:document-units="px"
     inkscape:current-layer="layer1"
     showgrid="false"
     inkscape:window-width="1366"
     inkscape:window-height="717"
     inkscape:window-x="0"
     inkscape:window-y="24"
     inkscape:window-maximized="1" />
  <metadata
     id="metadata7">
    <rdf:RDF>
      <cc:Work
         rdf:about="">
        <dc:format>image/svg+xml</dc:format>
        <dc:type
           rdf:resource="http://purl.org/dc/dcmitype/StillImage" />
        <dc:title />
      </cc:Work>
    </rdf:RDF>
  </metadata>
  <g
     inkscape:label="Layer 1"
     inkscape:groupmode="layer"
     id="layer1"
     transform="translate(0,-540.36218)">
    <g
       id="g852">
      <path
         id="path955"
         d="m 432.91324,596.83614 c 102.19291,88.57459 105.82677,249.69971 8.1168,359.89879 C 343.32009,1066.934 181.27965,1084.4628 79.086738,995.88819 -23.106204,907.3136 -26.740031,746.18848 70.969938,635.9894 168.67991,525.79032 330.72036,508.26155 432.91324,596.83614 Z"
         inkscape:connector-curvature="0"
         style="fill:#8a715e;fill-opacity:1;stroke-width:11.10955811" />
      <path
         sodipodi:nodetypes="csscc"
         inkscape:connector-curvature="0"
         id="path957"
         d="M 8.3652349,882.36218 C 19.949334,925.51391 43.551548,965.08852 79.085938,995.88755 181.27884,1084.4622 343.31934,1066.9343 441.02929,956.73523 461.3803,933.78299 477.31887,908.61716 488.90233,882.36218 Z"
         style="fill:#715344;fill-opacity:1;stroke:none;stroke-width:0.99999994px;stroke-linecap:butt;stroke-linejoin:miter;stroke-opacity:1" />
      <path
         id="path959"
         d="M 511.63547,765.26569 C 510.08409,826.57733 486.47425,889.42029 440.6691,941.08016 342.95915,1051.2793 180.9187,1068.808 78.725758,980.23346 30.827125,938.71781 4.4968199,881.28501 0.19382793,820.59098 0.79908093,886.94765 27.117406,950.84435 79.078688,995.88123 181.2716,1084.4558 343.31975,1066.9184 441.02199,956.72794 490.72694,900.66983 514.02701,831.43697 511.63547,765.26569 Z"
         inkscape:connector-curvature="0"
         style="opacity:1;stroke-width:11.10955811;fill:#000000;fill-opacity:0.49019608" />
      <path
         inkscape:connector-curvature="0"
         id="path874"
         d="m 194.29604,889.21981 c -55.80745,-15.00164 -74.60451,-84.06457 -33.9442,-124.72486 35.7562,-35.7562 93.03258,-27.41349 118.22181,17.21896 l 6.09764,10.80948 H 349.08479 413.5 v 24.47034 24.4703 h -12.73232 -12.73231 v 25.44907 25.44908 H 363.56502 339.09467 V 866.9131 841.46403 h -27.37363 -27.37365 l -4.83306,9.54491 c -9.94335,19.6338 -31.06344,35.10313 -53.73738,39.3715 -13.52919,2.54646 -18.38825,2.37324 -31.49651,-1.21249 z m 33.23222,-51.46114 c 12.33396,-8.57484 14.48196,-25.65868 4.69453,-37.29272 -9.7528,-11.58901 -26.04672,-11.90083 -37.21652,-0.69292 -5.57798,5.57795 -6.63467,8.03783 -6.63467,15.46935 0,13.82366 6.9292,23.77393 18.67754,26.81235 5.75122,1.55919 14.967,-0.34645 20.47393,-4.24408 z"
         style="fill:#000000;fill-opacity:0.49019608;stroke-width:1.95761049" />
      <path
         style="fill:#ffffff;stroke-width:1.95761049"
         d="m 174.29604,869.21981 c -55.80745,-15.00164 -74.604516,-84.06457 -33.9442,-124.72486 35.7562,-35.7562 93.03258,-27.41349 118.22181,17.21896 l 6.09764,10.80948 H 329.08479 393.5 v 24.47034 24.4703 h -12.73232 -12.73231 v 25.44907 25.44908 H 343.56502 319.09467 V 846.9131 821.46403 h -27.37363 -27.37365 l -4.83306,9.54491 c -9.94335,19.6338 -31.06344,35.10313 -53.73738,39.3715 -13.52919,2.54646 -18.38825,2.37324 -31.49651,-1.21249 z m 33.23222,-51.46114 c 12.33396,-8.57484 14.48196,-25.65868 4.69453,-37.29272 -9.7528,-11.58901 -26.04672,-11.90083 -37.21652,-0.69292 -5.57798,5.57795 -6.63467,8.03783 -6.63467,15.46935 0,13.82366 6.9292,23.77393 18.67754,26.81235 5.75122,1.55919 14.967,-0.34645 20.47393,-4.24408 z"
         id="path1344"
         inkscape:connector-curvature="0" />
      <g
         aria-label="GPG"
         transform="translate(52.07161,542.34214)"
         style="font-style:normal;font-weight:normal;font-size:40px;line-height:1.25;font-family:sans-serif;letter-spacing:0px;word-spacing:0px;fill:#000000;fill-opacity:0.49019608;stroke:none"
         id="g872">
        <path
           d="m 188.49675,427.72186 q -3.43099,16.98894 -14.44336,27.17123 -10.95703,10.12695 -25.89844,10.12695 -13.61328,0 -20.41992,-7.58138 -6.80664,-7.63672 -6.80664,-22.85482 0,-14.33268 6.7513,-29.49544 6.80664,-15.2181 17.43164,-24.57031 7.08333,-6.25326 14.99674,-6.25326 5.03581,0 13.28125,3.32031 10.07162,3.98438 10.07162,8.79883 0,2.26888 -1.66016,4.03971 -1.66015,1.77084 -3.98437,1.77084 -1.21745,0 -3.43099,-1.38347 -8.4668,-5.14648 -14.27735,-5.14648 -4.15039,0 -8.68815,4.31641 -2.26888,2.1582 -6.52995,7.85807 -12.7832,16.93359 -12.7832,36.74479 0,10.40365 3.20964,14.55404 3.48632,4.53776 12.83854,4.53776 9.9056,0 17.21029,-6.25326 7.69205,-6.64062 10.73567,-18.98112 -15.32877,0.77474 -26.28581,5.92123 -1.27278,0.60872 -2.49023,0.60872 -2.4349,0 -4.03971,-1.88151 -1.49414,-1.71549 -1.49414,-3.98437 0,-3.04362 2.93294,-4.8698 11.95312,-7.30468 41.22721,-7.30468 2.37956,0 3.98438,1.60481 1.60482,1.60482 1.60482,4.03972 0,3.597 -3.04362,5.14648 z"
           style="font-style:normal;font-variant:normal;font-weight:normal;font-stretch:normal;font-size:113.33333588px;font-family:'Comic Sans MS';-inkscape-font-specification:'Comic Sans MS';fill:#000000;fill-opacity:0.49019608"
           id="path866"
           inkscape:connector-curvature="0" />
        <path
           d="m 216.44271,428.71796 q -1.54948,0 -6.7513,-0.7194 -0.44271,8.35612 -0.44271,29.27408 0,2.21355 -1.4388,3.76303 -1.43881,1.49414 -3.59701,1.49414 -2.21354,0 -3.65234,-1.49414 -1.43881,-1.54948 -1.43881,-3.76303 v -16.26953 q 0,-8.13476 0.9961,-22.91015 1.10677,-15.99284 1.21745,-22.91016 v -7.63672 q 0,-5.47852 0.66406,-7.96875 1.27279,-4.86979 5.42318,-4.20573 1.77083,-0.55338 5.0358,-0.83008 3.26498,-0.27669 8.02409,-0.27669 10.12696,0 18.98112,6.91732 9.73959,7.63672 9.73959,18.37239 0,13.72396 -10.40365,21.85873 -9.29688,7.30469 -22.35677,7.30469 z m 2.76693,-43.93881 q -2.4349,0 -4.37175,0.11068 -1.88151,0.11068 -3.20963,0.33203 l -0.11068,10.18229 -1.16211,22.02474 6.08724,0.7194 q 9.29687,0 15.66081,-4.70377 6.97265,-5.14649 6.97265,-13.88998 0,-6.19791 -6.64062,-10.68033 -6.14258,-4.09506 -13.22591,-4.09506 z"
           style="font-style:normal;font-variant:normal;font-weight:normal;font-stretch:normal;font-size:113.33333588px;font-family:'Comic Sans MS';-inkscape-font-specification:'Comic Sans MS';fill:#000000;fill-opacity:0.49019608"
           id="path868"
           inkscape:connector-curvature="0" />
        <path
           d="m 324.62956,427.72186 q -3.43099,16.98894 -14.44336,27.17123 -10.95703,10.12695 -25.89844,10.12695 -13.61328,0 -20.41992,-7.58138 -6.80664,-7.63672 -6.80664,-22.85482 0,-14.33268 6.7513,-29.49544 6.80664,-15.2181 17.43164,-24.57031 7.08333,-6.25326 14.99675,-6.25326 5.0358,0 13.28125,3.32031 10.07161,3.98438 10.07161,8.79883 0,2.26888 -1.66015,4.03971 -1.66016,1.77084 -3.98438,1.77084 -1.21745,0 -3.43099,-1.38347 -8.4668,-5.14648 -14.27734,-5.14648 -4.15039,0 -8.68815,4.31641 -2.26889,2.1582 -6.52995,7.85807 -12.78321,16.93359 -12.78321,36.74479 0,10.40365 3.20964,14.55404 3.48633,4.53776 12.83854,4.53776 9.9056,0 17.21029,-6.25326 7.69206,-6.64062 10.73568,-18.98112 -15.32878,0.77474 -26.28581,5.92123 -1.27279,0.60872 -2.49024,0.60872 -2.43489,0 -4.03971,-1.88151 -1.49414,-1.71549 -1.49414,-3.98437 0,-3.04362 2.93294,-4.8698 11.95313,-7.30468 41.22722,-7.30468 2.37955,0 3.98437,1.60481 1.60482,1.60482 1.60482,4.03972 0,3.597 -3.04362,5.14648 z"
           style="font-style:normal;font-variant:normal;font-weight:normal;font-stretch:normal;font-size:113.33333588px;font-family:'Comic Sans MS';-inkscape-font-specification:'Comic Sans MS';fill:#000000;fill-opacity:0.49019608"
           id="path870"
           inkscape:connector-curvature="0" />
      </g>
      <g
         id="flowRoot851"
         style="font-style:normal;font-weight:normal;font-size:40px;line-height:1.25;font-family:sans-serif;letter-spacing:0px;word-spacing:0px;fill:#ffffff;fill-opacity:1;stroke:none"
         transform="translate(32.07161,522.34214)"
         aria-label="GPG">
        <path
           inkscape:connector-curvature="0"
           id="path859"
           style="font-style:normal;font-variant:normal;font-weight:normal;font-stretch:normal;font-size:113.33333588px;font-family:'Comic Sans MS';-inkscape-font-specification:'Comic Sans MS';fill:#ffffff"
           d="m 188.49675,427.72186 q -3.43099,16.98894 -14.44336,27.17123 -10.95703,10.12695 -25.89844,10.12695 -13.61328,0 -20.41992,-7.58138 -6.80664,-7.63672 -6.80664,-22.85482 0,-14.33268 6.7513,-29.49544 6.80664,-15.2181 17.43164,-24.57031 7.08333,-6.25326 14.99674,-6.25326 5.03581,0 13.28125,3.32031 10.07162,3.98438 10.07162,8.79883 0,2.26888 -1.66016,4.03971 -1.66015,1.77084 -3.98437,1.77084 -1.21745,0 -3.43099,-1.38347 -8.4668,-5.14648 -14.27735,-5.14648 -4.15039,0 -8.68815,4.31641 -2.26888,2.1582 -6.52995,7.85807 -12.7832,16.93359 -12.7832,36.74479 0,10.40365 3.20964,14.55404 3.48632,4.53776 12.83854,4.53776 9.9056,0 17.21029,-6.25326 7.69205,-6.64062 10.73567,-18.98112 -15.32877,0.77474 -26.28581,5.92123 -1.27278,0.60872 -2.49023,0.60872 -2.4349,0 -4.03971,-1.88151 -1.49414,-1.71549 -1.49414,-3.98437 0,-3.04362 2.93294,-4.8698 11.95312,-7.30468 41.22721,-7.30468 2.37956,0 3.98438,1.60481 1.60482,1.60482 1.60482,4.03972 0,3.597 -3.04362,5.14648 z" />
        <path
           inkscape:connector-curvature="0"
           id="path861"
           style="font-style:normal;font-variant:normal;font-weight:normal;font-stretch:normal;font-size:113.33333588px;font-family:'Comic Sans MS';-inkscape-font-specification:'Comic Sans MS';fill:#ffffff"
           d="m 216.44271,428.71796 q -1.54948,0 -6.7513,-0.7194 -0.44271,8.35612 -0.44271,29.27408 0,2.21355 -1.4388,3.76303 -1.43881,1.49414 -3.59701,1.49414 -2.21354,0 -3.65234,-1.49414 -1.43881,-1.54948 -1.43881,-3.76303 v -16.26953 q 0,-8.13476 0.9961,-22.91015 1.10677,-15.99284 1.21745,-22.91016 v -7.63672 q 0,-5.47852 0.66406,-7.96875 1.27279,-4.86979 5.42318,-4.20573 1.77083,-0.55338 5.0358,-0.83008 3.26498,-0.27669 8.02409,-0.27669 10.12696,0 18.98112,6.91732 9.73959,7.63672 9.73959,18.37239 0,13.72396 -10.40365,21.85873 -9.29688,7.30469 -22.35677,7.30469 z m 2.76693,-43.93881 q -2.4349,0 -4.37175,0.11068 -1.88151,0.11068 -3.20963,0.33203 l -0.11068,10.18229 -1.16211,22.02474 6.08724,0.7194 q 9.29687,0 15.66081,-4.70377 6.97265,-5.14649 6.97265,-13.88998 0,-6.19791 -6.64062,-10.68033 -6.14258,-4.09506 -13.22591,-4.09506 z" />
        <path
           inkscape:connector-curvature="0"
           id="path863"
           style="font-style:normal;font-variant:normal;font-weight:normal;font-stretch:normal;font-size:113.33333588px;font-family:'Comic Sans MS';-inkscape-font-specification:'Comic Sans MS';fill:#ffffff"
           d="m 324.62956,427.72186 q -3.43099,16.98894 -14.44336,27.17123 -10.95703,10.12695 -25.89844,10.12695 -13.61328,0 -20.41992,-7.58138 -6.80664,-7.63672 -6.80664,-22.85482 0,-14.33268 6.7513,-29.49544 6.80664,-15.2181 17.43164,-24.57031 7.08333,-6.25326 14.99675,-6.25326 5.0358,0 13.28125,3.32031 10.07161,3.98438 10.07161,8.79883 0,2.26888 -1.66015,4.03971 -1.66016,1.77084 -3.98438,1.77084 -1.21745,0 -3.43099,-1.38347 -8.4668,-5.14648 -14.27734,-5.14648 -4.15039,0 -8.68815,4.31641 -2.26889,2.1582 -6.52995,7.85807 -12.78321,16.93359 -12.78321,36.74479 0,10.40365 3.20964,14.55404 3.48633,4.53776 12.83854,4.53776 9.9056,0 17.21029,-6.25326 7.69206,-6.64062 10.73568,-18.98112 -15.32878,0.77474 -26.28581,5.92123 -1.27279,0.60872 -2.49024,0.60872 -2.43489,0 -4.03971,-1.88151 -1.49414,-1.71549 -1.49414,-3.98437 0,-3.04362 2.93294,-4.8698 11.95313,-7.30468 41.22722,-7.30468 2.37955,0 3.98437,1.60481 1.60482,1.60482 1.60482,4.03972 0,3.597 -3.04362,5.14648 z" />
      </g>
    </g>
  </g>
</svg>
