<?xml version="1.0" encoding="UTF-8" standalone="no"?>
<!-- Created with Inkscape (http://www.inkscape.org/) -->

<svg
   xmlns:dc="http://purl.org/dc/elements/1.1/"
   xmlns:cc="http://creativecommons.org/ns#"
   xmlns:rdf="http://www.w3.org/1999/02/22-rdf-syntax-ns#"
   xmlns:svg="http://www.w3.org/2000/svg"
   xmlns="http://www.w3.org/2000/svg"
   xmlns:sodipodi="http://sodipodi.sourceforge.net/DTD/sodipodi-0.dtd"
   xmlns:inkscape="http://www.inkscape.org/namespaces/inkscape"
   width="512"
   height="512"
   id="svg2"
   version="1.1"
   inkscape:version="0.92.2 5c3e80d, 2017-08-06"
   sodipodi:docname="application-vnd.openxmlformats-officedocument.presentationml.presentation.svg">
  <defs
     id="defs4" />
  <sodipodi:namedview
     id="base"
     pagecolor="#ffffff"
     bordercolor="#666666"
     borderopacity="1.0"
     inkscape:pageopacity="0.0"
     inkscape:pageshadow="2"
     inkscape:zoom="0.60666665"
     inkscape:cx="298.62673"
     inkscape:cy="220.12098"
     inkscape:document-units="px"
     inkscape:current-layer="layer1"
     showgrid="false"
     inkscape:window-width="1366"
     inkscape:window-height="717"
     inkscape:window-x="0"
     inkscape:window-y="24"
     inkscape:window-maximized="1" />
  <metadata
     id="metadata7">
    <rdf:RDF>
      <cc:Work
         rdf:about="">
        <dc:format>image/svg+xml</dc:format>
        <dc:type
           rdf:resource="http://purl.org/dc/dcmitype/StillImage" />
        <dc:title />
      </cc:Work>
    </rdf:RDF>
  </metadata>
  <g
     inkscape:label="Layer 1"
     inkscape:groupmode="layer"
     id="layer1"
     transform="translate(0,-540.36218)">
    <g
       id="g870">
      <path
         id="path931"
         d="m 432.91326,596.83615 c 102.19291,88.57459 105.82678,249.69971 8.1168,359.89879 C 343.32009,1066.934 181.27965,1084.4628 79.086741,995.88819 -23.106209,907.31361 -26.740029,746.18849 70.969941,635.98941 168.67991,525.79033 330.72036,508.26156 432.91326,596.83615 Z"
         inkscape:connector-curvature="0"
         style="fill:#f37329;fill-opacity:1;stroke-width:11.10955811" />
      <path
         sodipodi:nodetypes="csscc"
         inkscape:connector-curvature="0"
         id="path933"
         d="M 8.3652416,882.36219 C 19.949341,925.51392 43.551541,965.08856 79.085941,995.88759 181.27886,1084.4622 343.31934,1066.9343 441.02931,956.73524 461.38033,933.783 477.31886,908.61717 488.90235,882.36219 Z"
         style="fill:#cc3b02;fill-opacity:1;stroke:none;stroke-width:0.99999994px;stroke-linecap:butt;stroke-linejoin:miter;stroke-opacity:1" />
      <path
         id="path935"
         d="M 511.6355,765.2657 C 510.08411,826.57734 486.47427,889.4203 440.66912,941.08017 342.95915,1051.2793 180.9187,1068.808 78.725761,980.23347 30.827121,938.71782 4.4968216,881.28502 0.19382166,820.59099 0.79908166,886.94766 27.117401,950.84436 79.078691,995.88129 181.2716,1084.4558 343.31975,1066.9184 441.02201,956.72795 490.72696,900.66984 514.02703,831.43698 511.6355,765.2657 Z"
         inkscape:connector-curvature="0"
         style="opacity:1;stroke-width:11.10955811;fill:#000000;fill-opacity:0.49019608" />
      <g
         aria-label="P"
         transform="matrix(8.827585,0,0,8.827585,-1362.6032,201.78463)"
         style="font-style:normal;font-weight:normal;font-size:40px;line-height:1.25;font-family:sans-serif;letter-spacing:0px;word-spacing:0px;fill:#000000;fill-opacity:0.49019608;stroke:none"
         id="g855">
        <path
           d="m 182.90039,66.295905 q -0.54687,0 -2.38281,-0.253906 -0.15625,2.949218 -0.15625,10.332031 0,0.78125 -0.50781,1.328125 -0.50782,0.527344 -1.26954,0.527344 -0.78125,0 -1.28906,-0.527344 -0.50781,-0.546875 -0.50781,-1.328125 v -5.742188 q 0,-2.871093 0.35156,-8.085937 0.39063,-5.644531 0.42969,-8.085938 v -2.695312 q 0,-1.933594 0.23437,-2.8125 0.44922,-1.71875 1.91407,-1.484375 0.625,-0.195313 1.77734,-0.292969 1.15234,-0.09766 2.83203,-0.09766 3.57422,0 6.69922,2.441406 3.4375,2.695313 3.4375,6.484375 0,4.84375 -3.67187,7.714844 -3.28125,2.578125 -7.89063,2.578125 z m 0.97656,-15.507813 q -0.85937,0 -1.54297,0.03906 -0.66406,0.03906 -1.13281,0.117187 l -0.0391,3.59375 -0.41016,7.773438 2.14844,0.253906 q 3.28125,0 5.52734,-1.660156 2.46094,-1.816406 2.46094,-4.902344 0,-2.1875 -2.34375,-3.769531 -2.16797,-1.445313 -4.66797,-1.445313 z"
           style="font-style:normal;font-variant:normal;font-weight:normal;font-stretch:normal;font-family:'Comic Sans MS';-inkscape-font-specification:'Comic Sans MS';fill:#000000;fill-opacity:0.49019608"
           id="path853"
           inkscape:connector-curvature="0" />
      </g>
      <g
         id="flowRoot842"
         style="font-style:normal;font-weight:normal;font-size:40px;line-height:1.25;font-family:sans-serif;letter-spacing:0px;word-spacing:0px;fill:#ffffff;fill-opacity:1;stroke:none"
         transform="matrix(8.827585,0,0,8.827585,-1382.6032,181.78464)"
         aria-label="P">
        <path
           inkscape:connector-curvature="0"
           id="path850"
           style="font-style:normal;font-variant:normal;font-weight:normal;font-stretch:normal;font-family:'Comic Sans MS';-inkscape-font-specification:'Comic Sans MS';fill:#ffffff"
           d="m 182.90039,66.295905 q -0.54687,0 -2.38281,-0.253906 -0.15625,2.949218 -0.15625,10.332031 0,0.78125 -0.50781,1.328125 -0.50782,0.527344 -1.26954,0.527344 -0.78125,0 -1.28906,-0.527344 -0.50781,-0.546875 -0.50781,-1.328125 v -5.742188 q 0,-2.871093 0.35156,-8.085937 0.39063,-5.644531 0.42969,-8.085938 v -2.695312 q 0,-1.933594 0.23437,-2.8125 0.44922,-1.71875 1.91407,-1.484375 0.625,-0.195313 1.77734,-0.292969 1.15234,-0.09766 2.83203,-0.09766 3.57422,0 6.69922,2.441406 3.4375,2.695313 3.4375,6.484375 0,4.84375 -3.67187,7.714844 -3.28125,2.578125 -7.89063,2.578125 z m 0.97656,-15.507813 q -0.85937,0 -1.54297,0.03906 -0.66406,0.03906 -1.13281,0.117187 l -0.0391,3.59375 -0.41016,7.773438 2.14844,0.253906 q 3.28125,0 5.52734,-1.660156 2.46094,-1.816406 2.46094,-4.902344 0,-2.1875 -2.34375,-3.769531 -2.16797,-1.445313 -4.66797,-1.445313 z" />
      </g>
      <path
         inkscape:connector-curvature="0"
         id="path917"
         style="font-style:normal;font-variant:normal;font-weight:normal;font-stretch:normal;font-size:113.33333588px;line-height:1.25;font-family:'Comic Sans MS';-inkscape-font-specification:'Comic Sans MS';letter-spacing:0px;word-spacing:0px;fill:#000000;fill-opacity:0.49019608;stroke:none"
         d="m 159.82096,970.23002 q -1.54948,0 -6.7513,-0.7194 -0.44271,8.35612 -0.44271,29.27409 0,2.21359 -1.4388,3.76299 -1.43881,1.4942 -3.59701,1.4942 -2.21354,0 -3.65234,-1.4942 -1.4388,-1.5494 -1.4388,-3.76299 v -16.26953 q 0,-8.13477 0.99609,-22.91016 1.10677,-15.99284 1.21745,-22.91016 v -7.63672 q 0,-5.47851 0.66406,-7.96875 1.27279,-4.86979 5.42318,-4.20573 1.77083,-0.55338 5.0358,-0.83007 3.26498,-0.2767 8.02409,-0.2767 10.12696,0 18.98112,6.91732 9.73959,7.63672 9.73959,18.3724 0,13.72396 -10.40365,21.85872 -9.29687,7.30469 -22.35677,7.30469 z m 2.76693,-43.9388 q -2.4349,0 -4.37175,0.11067 -1.88151,0.11068 -3.20963,0.33203 l -0.11068,10.1823 -1.16211,22.02474 6.08724,0.7194 q 9.29687,0 15.66081,-4.70378 6.97265,-5.14648 6.97265,-13.88997 0,-6.19792 -6.64062,-10.68034 -6.14258,-4.09505 -13.22591,-4.09505 z" />
      <path
         inkscape:connector-curvature="0"
         id="path919"
         style="font-style:normal;font-variant:normal;font-weight:normal;font-stretch:normal;font-size:113.33333588px;line-height:1.25;font-family:'Comic Sans MS';-inkscape-font-specification:'Comic Sans MS';letter-spacing:0px;word-spacing:0px;fill:#000000;fill-opacity:0.49019608;stroke:none"
         d="m 218.92252,970.23002 q -1.54948,0 -6.7513,-0.7194 -0.44271,8.35612 -0.44271,29.27409 0,2.21359 -1.4388,3.76299 -1.4388,1.4942 -3.59701,1.4942 -2.21354,0 -3.65234,-1.4942 -1.4388,-1.5494 -1.4388,-3.76299 v -16.26953 q 0,-8.13477 0.99609,-22.91016 1.10677,-15.99284 1.21745,-22.91016 v -7.63672 q 0,-5.47851 0.66406,-7.96875 1.27279,-4.86979 5.42318,-4.20573 1.77083,-0.55338 5.03581,-0.83007 3.26497,-0.2767 8.02409,-0.2767 10.12695,0 18.98112,6.91732 9.73958,7.63672 9.73958,18.3724 0,13.72396 -10.40365,21.85872 -9.29687,7.30469 -22.35677,7.30469 z m 2.76693,-43.9388 q -2.4349,0 -4.37175,0.11067 -1.88151,0.11068 -3.20963,0.33203 l -0.11068,10.1823 -1.16211,22.02474 6.08724,0.7194 q 9.29688,0 15.66081,-4.70378 6.97266,-5.14648 6.97266,-13.88997 0,-6.19792 -6.64063,-10.68034 -6.14258,-4.09505 -13.22591,-4.09505 z" />
      <path
         inkscape:connector-curvature="0"
         id="path921"
         style="font-style:normal;font-variant:normal;font-weight:normal;font-stretch:normal;font-size:113.33333588px;line-height:1.25;font-family:'Comic Sans MS';-inkscape-font-specification:'Comic Sans MS';letter-spacing:0px;word-spacing:0px;fill:#000000;fill-opacity:0.49019608;stroke:none"
         d="m 330.54036,932.82116 q -4.09505,0 -12.61719,-0.66406 -8.30078,-0.60872 -12.61718,-0.55338 h -3.92904 q 0.16602,7.63672 1.49414,24.79166 1.21745,15.99284 1.21745,24.84701 0,1.93685 0.38737,5.86588 0.38737,3.92904 0.38737,5.92123 0,3.76302 -1.21745,6.47461 -1.54948,3.65229 -4.81445,3.65229 -2.21355,0 -3.98438,-1.5494 -1.77083,-1.5495 -1.77083,-3.9844 0,-0.83008 0.27669,-2.49024 0.27669,-1.66015 0.27669,-2.49023 0,-2.71159 -0.38737,-8.13477 -0.33203,-5.42317 -0.33203,-8.1901 0,-7.91341 -1.27278,-22.2461 -1.32813,-15.49479 -1.49414,-22.24609 l -5.03581,0.0553 q -12.11914,0 -19.03646,-1.77083 -4.48242,-1.16211 -4.48242,-5.47852 0,-2.26888 1.4388,-3.98438 1.66016,-1.93684 4.26107,-1.77083 1.93685,0.11068 8.85416,0.9961 5.53386,0.66406 8.96485,0.66406 3.32031,0 10.07161,-0.11068 6.75131,-0.16601 10.07162,-0.16601 4.26107,0 12.61719,0.60872 8.41145,0.60872 12.67252,0.60872 2.37956,0 3.98438,1.66016 1.60481,1.60482 1.60481,4.03971 0,2.37956 -1.60481,4.03972 -1.60482,1.60481 -3.98438,1.60481 z" />
      <path
         id="path923"
         transform="translate(0,540.36218)"
         d="M 344.81836 378.18164 C 343.23199 378.18164 341.90386 378.77257 340.83398 379.95312 C 339.7641 381.13368 339.22852 382.4796 339.22852 383.99219 C 339.22852 385.68923 340.00325 387.18338 341.55273 388.47461 C 343.76627 390.31923 346.16363 392.97548 348.74609 396.44336 L 355.16602 405.13086 C 359.74067 410.59093 364.05707 416.03386 368.11523 421.45703 L 347.36328 445.5293 L 337.40234 456.65234 C 336.44314 457.8329 335.96289 459.08594 335.96289 460.41406 C 335.96289 461.96353 336.53603 463.31141 337.67969 464.45508 C 338.82335 465.59874 340.15148 466.16992 341.66406 466.16992 C 343.13976 466.16992 344.48568 465.56122 345.70312 464.34375 L 355.88477 452.94336 L 374.92188 430.91992 L 383.60938 443.37109 L 391.02539 454.76953 C 392.04469 456.29849 393.04616 457.67739 394.03906 458.98633 C 397.17065 456.71673 400.26862 454.37904 403.32812 451.9668 C 400.68945 448.53234 397.8596 444.63704 394.78906 440.16016 L 382.61328 422.3418 C 384.97439 419.72244 387.50217 416.49501 390.19531 412.6582 L 397.11328 402.47461 C 399.76953 398.60091 403.56814 393.67578 408.51172 387.69922 C 409.50781 386.48177 410.00586 385.22873 410.00586 383.9375 C 410.00586 382.38802 409.43468 381.04014 408.29102 379.89648 C 407.14736 378.75282 405.81923 378.18164 404.30664 378.18164 C 401.87174 378.18164 396.55924 383.88151 388.36914 395.28125 L 375.75195 412.87891 C 371.95204 407.82465 367.94987 402.78885 363.74414 397.77148 C 360.64518 393.63954 358.33876 390.4477 356.82617 388.19727 C 351.95638 381.51975 347.95421 378.18164 344.81836 378.18164 z "
         style="font-style:normal;font-variant:normal;font-weight:normal;font-stretch:normal;font-size:113.33333588px;line-height:1.25;font-family:'Comic Sans MS';-inkscape-font-specification:'Comic Sans MS';letter-spacing:0px;word-spacing:0px;fill:#000000;fill-opacity:0.49019608;stroke:none" />
      <g
         id="flowRoot900"
         style="font-style:normal;font-weight:normal;font-size:40px;line-height:1.25;font-family:sans-serif;letter-spacing:0px;word-spacing:0px;fill:#ffffff;fill-opacity:1;stroke:none"
         transform="translate(16.72786,525.01011)"
         aria-label="PPTX">
        <path
           inkscape:connector-curvature="0"
           id="path908"
           style="font-style:normal;font-variant:normal;font-weight:normal;font-stretch:normal;font-size:113.33333588px;font-family:'Comic Sans MS';-inkscape-font-specification:'Comic Sans MS';fill:#ffffff"
           d="m 123.0931,425.21991 q -1.54948,0 -6.7513,-0.7194 -0.44271,8.35612 -0.44271,29.27409 0,2.21354 -1.4388,3.76302 -1.43881,1.49414 -3.59701,1.49414 -2.21354,0 -3.65234,-1.49414 -1.4388,-1.54948 -1.4388,-3.76302 v -16.26953 q 0,-8.13477 0.99609,-22.91016 1.10677,-15.99284 1.21745,-22.91016 v -7.63672 q 0,-5.47851 0.66406,-7.96875 1.27279,-4.86979 5.42318,-4.20573 1.77083,-0.55338 5.0358,-0.83007 3.26498,-0.2767 8.02409,-0.2767 10.12696,0 18.98112,6.91732 9.73959,7.63672 9.73959,18.3724 0,13.72396 -10.40365,21.85872 -9.29687,7.30469 -22.35677,7.30469 z m 2.76693,-43.9388 q -2.4349,0 -4.37175,0.11067 -1.88151,0.11068 -3.20963,0.33203 l -0.11068,10.1823 -1.16211,22.02474 6.08724,0.7194 q 9.29687,0 15.66081,-4.70378 6.97265,-5.14648 6.97265,-13.88997 0,-6.19792 -6.64062,-10.68034 -6.14258,-4.09505 -13.22591,-4.09505 z" />
        <path
           inkscape:connector-curvature="0"
           id="path910"
           style="font-style:normal;font-variant:normal;font-weight:normal;font-stretch:normal;font-size:113.33333588px;font-family:'Comic Sans MS';-inkscape-font-specification:'Comic Sans MS';fill:#ffffff"
           d="m 182.19466,425.21991 q -1.54948,0 -6.7513,-0.7194 -0.44271,8.35612 -0.44271,29.27409 0,2.21354 -1.4388,3.76302 -1.4388,1.49414 -3.59701,1.49414 -2.21354,0 -3.65234,-1.49414 -1.4388,-1.54948 -1.4388,-3.76302 v -16.26953 q 0,-8.13477 0.99609,-22.91016 1.10677,-15.99284 1.21745,-22.91016 v -7.63672 q 0,-5.47851 0.66406,-7.96875 1.27279,-4.86979 5.42318,-4.20573 1.77083,-0.55338 5.03581,-0.83007 3.26497,-0.2767 8.02409,-0.2767 10.12695,0 18.98112,6.91732 9.73958,7.63672 9.73958,18.3724 0,13.72396 -10.40365,21.85872 -9.29687,7.30469 -22.35677,7.30469 z m 2.76693,-43.9388 q -2.4349,0 -4.37175,0.11067 -1.88151,0.11068 -3.20963,0.33203 l -0.11068,10.1823 -1.16211,22.02474 6.08724,0.7194 q 9.29688,0 15.66081,-4.70378 6.97266,-5.14648 6.97266,-13.88997 0,-6.19792 -6.64063,-10.68034 -6.14258,-4.09505 -13.22591,-4.09505 z" />
        <path
           inkscape:connector-curvature="0"
           id="path912"
           style="font-style:normal;font-variant:normal;font-weight:normal;font-stretch:normal;font-size:113.33333588px;font-family:'Comic Sans MS';-inkscape-font-specification:'Comic Sans MS';fill:#ffffff"
           d="m 293.8125,387.81105 q -4.09505,0 -12.61719,-0.66406 -8.30078,-0.60872 -12.61718,-0.55338 h -3.92904 q 0.16602,7.63672 1.49414,24.79166 1.21745,15.99284 1.21745,24.84701 0,1.93685 0.38737,5.86588 0.38737,3.92904 0.38737,5.92123 0,3.76302 -1.21745,6.47461 -1.54948,3.65234 -4.81445,3.65234 -2.21355,0 -3.98438,-1.54948 -1.77083,-1.54948 -1.77083,-3.98437 0,-0.83008 0.27669,-2.49024 0.27669,-1.66015 0.27669,-2.49023 0,-2.71159 -0.38737,-8.13477 -0.33203,-5.42317 -0.33203,-8.1901 0,-7.91341 -1.27278,-22.2461 -1.32813,-15.49479 -1.49414,-22.24609 l -5.03581,0.0553 q -12.11914,0 -19.03646,-1.77083 -4.48242,-1.16211 -4.48242,-5.47852 0,-2.26888 1.4388,-3.98438 1.66016,-1.93684 4.26107,-1.77083 1.93685,0.11068 8.85416,0.9961 5.53386,0.66406 8.96485,0.66406 3.32031,0 10.07161,-0.11068 6.75131,-0.16601 10.07162,-0.16601 4.26107,0 12.61719,0.60872 8.41145,0.60872 12.67252,0.60872 2.37956,0 3.98438,1.66016 1.60481,1.60482 1.60481,4.03971 0,2.37956 -1.60481,4.03972 -1.60482,1.60481 -3.98438,1.60481 z" />
        <path
           inkscape:connector-curvature="0"
           id="path914"
           style="font-style:normal;font-variant:normal;font-weight:normal;font-stretch:normal;font-size:113.33333588px;font-family:'Comic Sans MS';-inkscape-font-specification:'Comic Sans MS';fill:#ffffff"
           d="m 371.78451,383.05194 q -7.41537,8.96484 -11.39974,14.77539 l -6.91732,10.18229 q -4.03971,5.75521 -7.58138,9.68425 l 12.17448,17.81901 q 7.24935,10.56966 12.89388,17.26562 1.49414,1.82618 1.49414,3.81836 0,2.32422 -1.7155,4.03972 -1.66015,1.71549 -3.98437,1.71549 -2.10287,0 -3.92904,-1.71549 -4.09505,-3.8737 -8.52213,-10.51433 l -7.41537,-11.39974 -8.68815,-12.45117 -19.03646,22.02474 -10.18229,11.39974 q -1.82617,1.82617 -4.03971,1.82617 -2.26888,0 -3.98438,-1.71549 -1.71549,-1.7155 -1.71549,-4.03971 0,-1.99219 1.4388,-3.76303 l 9.96094,-11.12304 20.75195,-24.07227 q -6.08724,-8.13476 -12.94922,-16.32487 l -6.41927,-8.68815 q -3.8737,-5.20182 -7.19401,-7.96875 -2.32422,-1.93685 -2.32422,-4.48242 0,-2.26888 1.60482,-4.03972 1.60482,-1.77083 3.98437,-1.77083 4.70378,0 12.00847,10.01628 2.26888,3.37565 6.91732,9.57356 6.30859,7.52605 12.00846,15.10743 l 12.61719,-17.59766 q 12.28515,-17.09961 15.9375,-17.09961 2.26888,0 3.98437,1.7155 1.7155,1.71549 1.7155,4.03971 0,1.93685 -1.49414,3.76302 z" />
      </g>
    </g>
  </g>
</svg>
