<?xml version="1.0" encoding="UTF-8" standalone="no"?>
<!-- Created with Inkscape (http://www.inkscape.org/) -->

<svg
   xmlns:dc="http://purl.org/dc/elements/1.1/"
   xmlns:cc="http://creativecommons.org/ns#"
   xmlns:rdf="http://www.w3.org/1999/02/22-rdf-syntax-ns#"
   xmlns:svg="http://www.w3.org/2000/svg"
   xmlns="http://www.w3.org/2000/svg"
   xmlns:sodipodi="http://sodipodi.sourceforge.net/DTD/sodipodi-0.dtd"
   xmlns:inkscape="http://www.inkscape.org/namespaces/inkscape"
   width="512"
   height="512"
   id="svg2"
   version="1.1"
   inkscape:version="0.92.2 5c3e80d, 2017-08-06"
   sodipodi:docname="application-x-kontour.svg">
  <defs
     id="defs4" />
  <sodipodi:namedview
     id="base"
     pagecolor="#ffffff"
     bordercolor="#666666"
     borderopacity="1.0"
     inkscape:pageopacity="0.0"
     inkscape:pageshadow="2"
     inkscape:zoom="0.42897809"
     inkscape:cx="-151.89094"
     inkscape:cy="433.14706"
     inkscape:document-units="px"
     inkscape:current-layer="layer1"
     showgrid="false"
     inkscape:window-width="1366"
     inkscape:window-height="717"
     inkscape:window-x="0"
     inkscape:window-y="24"
     inkscape:window-maximized="1" />
  <metadata
     id="metadata7">
    <rdf:RDF>
      <cc:Work
         rdf:about="">
        <dc:format>image/svg+xml</dc:format>
        <dc:type
           rdf:resource="http://purl.org/dc/dcmitype/StillImage" />
        <dc:title />
      </cc:Work>
    </rdf:RDF>
  </metadata>
  <g
     inkscape:label="Layer 1"
     inkscape:groupmode="layer"
     id="layer1"
     transform="translate(0,-540.36218)">
    <g
       id="g870">
      <path
         style="fill:#f9c440;fill-opacity:1;stroke-width:11.10955811"
         inkscape:connector-curvature="0"
         d="m 432.91326,596.83616 c 102.19291,88.57459 105.82678,249.69971 8.1168,359.89879 C 343.32009,1066.934 181.27965,1084.4628 79.086741,995.8882 -23.106205,907.31362 -26.740032,746.1885 70.969941,635.98942 168.67991,525.79034 330.72036,508.26157 432.91326,596.83616 Z"
         id="path925" />
      <path
         style="fill:#d48e15;fill-opacity:1;stroke:none;stroke-width:0.99999994px;stroke-linecap:butt;stroke-linejoin:miter;stroke-opacity:1"
         d="m 8.3652406,882.3622 c 11.5841014,43.15173 35.1863064,82.72637 70.7207064,113.5254 102.192913,88.5746 264.233393,71.0467 361.943363,-39.15235 20.35102,-22.95224 36.28955,-48.11807 47.87304,-74.37305 z"
         id="path927"
         inkscape:connector-curvature="0"
         sodipodi:nodetypes="csscc" />
      <path
         style="opacity:1;stroke-width:11.10955811;fill:#000000;fill-opacity:0.49019608"
         inkscape:connector-curvature="0"
         d="m 511.6355,765.26571 c -1.55139,61.31164 -25.16123,124.1546 -70.96638,175.81447 C 342.95915,1051.2793 180.9187,1068.808 78.725758,980.23348 30.827125,938.71783 4.4968176,881.28503 0.19382572,820.591 0.79907972,886.94767 27.117405,950.84437 79.07869,995.8813 c 102.19291,88.5745 264.24106,71.0371 361.94332,-39.15334 49.70495,-56.05811 73.00502,-125.29097 70.61349,-191.46225 z"
         id="path929" />
      <g
         style="fill:#000000;fill-opacity:0.49019608"
         transform="translate(20,19.999999)"
         id="g891">
        <path
           sodipodi:nodetypes="ccccsccscsscccccccccccccccccccccccc"
           inkscape:connector-curvature="0"
           id="path885"
           d="m 169.80093,871.82472 c -25.73207,-2.4948 -47.04867,-22.8181 -50.88028,-48.5094 -0.22452,-1.5055 -0.41111,-42.25665 -0.41465,-90.55818 l -0.006,-87.82095 1.30585,-4.74017 c 3.0651,-11.12616 7.82682,-19.4983 15.30101,-26.90251 6.43805,-6.37775 13.54885,-10.76843 22.23146,-13.72717 8.28134,-2.82201 5.44519,-2.74329 98.83482,-2.74329 h 87.82098 l 4.63741,1.29908 c 16.27752,4.55982 27.25721,12.90498 35.89622,27.28308 2.97475,4.95094 6.03871,13.82464 6.94391,20.11066 0.13774,0.95647 0.27188,26.0637 0.29809,55.79385 l -0.14418,129.1229 c -2.14093,6.9318 -3.84492,10.5616 -7.62455,16.2421 -9.63889,14.4863 -24.7657,23.4836 -42.35788,25.1941 -7.0432,0.6847 -164.7414,0.6443 -171.84178,-0.044 z m 159.3535,-25.4821 c 19.546,-3.1715 35.69326,-19.3187 38.86471,-38.86473 0.38156,-2.35157 0.60364,-21.43672 0.60642,-52.11476 l 0.005,-48.40443 -43.64035,-43.63748 -43.64034,-43.63748 -50.99183,0.16368 -50.99183,0.16368 -4.05773,1.37032 c -16.24568,5.48624 -27.24754,16.58964 -32.26247,32.56018 l -1.35876,4.32715 v 75.06806 75.0681 l 1.35876,4.32717 c 5.48127,17.45564 19.39241,30.20454 36.65363,33.59104 3.79454,0.7445 144.87386,0.7629 149.45541,0.02 z"
           style="fill:#000000;fill-opacity:0.49019608;stroke-width:0.57967639" />
        <g
           id="g889"
           style="font-style:normal;font-weight:normal;font-size:40px;line-height:1.25;font-family:sans-serif;letter-spacing:0px;word-spacing:0px;fill:#000000;fill-opacity:0.49019608;stroke:none"
           transform="translate(3.2967034,530.12042)"
           aria-label="D">
          <path
             inkscape:connector-curvature="0"
             id="path887"
             style="font-style:normal;font-variant:normal;font-weight:normal;font-stretch:normal;font-size:173.33332825px;font-family:'Comic Sans MS';-inkscape-font-specification:'Comic Sans MS';fill:#000000;fill-opacity:0.49019608"
             d="m 282.27669,266.15269 q -13.11849,8.97136 -37.66276,8.97136 -6.17838,0 -14.13411,-1.94662 -9.56381,-2.28515 -14.38802,-5.92448 h -0.84636 q -3.63932,0 -6.09375,-2.53906 -2.45442,-2.53906 -2.45442,-6.17838 0,-8.88672 0.76171,-26.57552 0.84636,-17.77344 0.84636,-26.66016 0,-9.90234 -0.42318,-29.53776 -0.33854,-19.72005 -0.33854,-29.62239 0,-3.47006 3.55469,-7.27865 3.55468,-3.80859 7.10937,-3.80859 2.03125,0 13.54167,5.67057 13.03385,6.34766 15.0651,7.02474 24.03646,8.20963 40.96354,25.22135 19.88932,20.0586 19.88932,44.09505 0,14.47266 -6.85546,27.76042 -6.77084,13.28776 -18.53516,21.32812 z m -17.77344,-89.54426 q -8.63281,-5.67058 -39.86328,-19.46615 l 0.42318,24.375 0.25391,24.29036 -1.35417,46.21094 q 0.59245,0.25391 1.77734,1.10026 7.44792,4.99349 18.78907,4.99349 19.29687,0 28.09895,-5.92448 8.20964,-5.58594 13.03386,-14.98047 4.90885,-9.47916 4.90885,-19.72005 0,-23.86719 -26.06771,-40.8789 z" />
        </g>
      </g>
      <g
         transform="translate(-7.3296832e-8,1.1466302e-6)"
         id="g883">
        <path
           style="fill:#ffffff;stroke-width:0.57967639"
           d="m 169.80093,871.82472 c -25.73207,-2.4948 -47.04867,-22.8181 -50.88028,-48.5094 -0.22452,-1.5055 -0.41111,-42.25665 -0.41465,-90.55818 l -0.006,-87.82095 1.30585,-4.74017 c 3.0651,-11.12616 7.82682,-19.4983 15.30101,-26.90251 6.43805,-6.37775 13.54885,-10.76843 22.23146,-13.72717 8.28134,-2.82201 5.44519,-2.74329 98.83482,-2.74329 h 87.82098 l 4.63741,1.29908 c 16.27752,4.55982 27.25721,12.90498 35.89622,27.28308 2.97475,4.95094 6.03871,13.82464 6.94391,20.11066 0.13774,0.95647 0.27188,26.0637 0.29809,55.79385 l -0.14418,129.1229 c -2.14093,6.9318 -3.84492,10.5616 -7.62455,16.2421 -9.63889,14.4863 -24.7657,23.4836 -42.35788,25.1941 -7.0432,0.6847 -164.7414,0.6443 -171.84178,-0.044 z m 159.3535,-25.4821 c 19.546,-3.1715 35.69326,-19.3187 38.86471,-38.86473 0.38156,-2.35157 0.60364,-21.43672 0.60642,-52.11476 l 0.005,-48.40443 -43.64035,-43.63748 -43.64034,-43.63748 -50.99183,0.16368 -50.99183,0.16368 -4.05773,1.37032 c -16.24568,5.48624 -27.24754,16.58964 -32.26247,32.56018 l -1.35876,4.32715 v 75.06806 75.0681 l 1.35876,4.32717 c 5.48127,17.45564 19.39241,30.20454 36.65363,33.59104 3.79454,0.7445 144.87386,0.7629 149.45541,0.02 z"
           id="path910"
           inkscape:connector-curvature="0"
           sodipodi:nodetypes="ccccsccscsscccccccccccccccccccccccc" />
        <g
           aria-label="D"
           transform="translate(3.2967034,530.12042)"
           style="font-style:normal;font-weight:normal;font-size:40px;line-height:1.25;font-family:sans-serif;letter-spacing:0px;word-spacing:0px;fill:#ffffff;fill-opacity:1;stroke:none"
           id="flowRoot869">
          <path
             d="m 282.27669,266.15269 q -13.11849,8.97136 -37.66276,8.97136 -6.17838,0 -14.13411,-1.94662 -9.56381,-2.28515 -14.38802,-5.92448 h -0.84636 q -3.63932,0 -6.09375,-2.53906 -2.45442,-2.53906 -2.45442,-6.17838 0,-8.88672 0.76171,-26.57552 0.84636,-17.77344 0.84636,-26.66016 0,-9.90234 -0.42318,-29.53776 -0.33854,-19.72005 -0.33854,-29.62239 0,-3.47006 3.55469,-7.27865 3.55468,-3.80859 7.10937,-3.80859 2.03125,0 13.54167,5.67057 13.03385,6.34766 15.0651,7.02474 24.03646,8.20963 40.96354,25.22135 19.88932,20.0586 19.88932,44.09505 0,14.47266 -6.85546,27.76042 -6.77084,13.28776 -18.53516,21.32812 z m -17.77344,-89.54426 q -8.63281,-5.67058 -39.86328,-19.46615 l 0.42318,24.375 0.25391,24.29036 -1.35417,46.21094 q 0.59245,0.25391 1.77734,1.10026 7.44792,4.99349 18.78907,4.99349 19.29687,0 28.09895,-5.92448 8.20964,-5.58594 13.03386,-14.98047 4.90885,-9.47916 4.90885,-19.72005 0,-23.86719 -26.06771,-40.8789 z"
             style="font-style:normal;font-variant:normal;font-weight:normal;font-stretch:normal;font-size:173.33332825px;font-family:'Comic Sans MS';-inkscape-font-specification:'Comic Sans MS';fill:#ffffff"
             id="path877"
             inkscape:connector-curvature="0" />
        </g>
      </g>
      <g
         aria-label="KON"
         transform="translate(20.73369,548.64162)"
         style="font-style:normal;font-weight:normal;font-size:40px;line-height:1.25;font-family:sans-serif;letter-spacing:0px;word-spacing:0px;fill:#000000;fill-opacity:0.49019608;stroke:none"
         id="g911">
        <path
           d="m 190.72917,454.9022 q -8.41146,0 -23.96159,-14.77539 l -16.54623,-16.6569 v 0.77474 l -0.0553,28.9974 q 0,5.47851 -4.81446,5.47851 -3.15429,0 -5.0358,-2.76693 -1.54948,-2.26888 -1.54948,-4.92513 0,-12.94922 0.77474,-38.73698 0.77474,-25.78776 0.77474,-38.68164 0,-2.37956 1.54947,-4.03971 1.60482,-1.66016 3.92904,-1.66016 2.37956,0 3.92904,1.66016 1.60482,1.66015 1.60482,4.03971 0,5.36784 -0.66407,16.71224 -0.66406,10.95703 -0.60872,16.76758 7.41536,-7.02799 16.76758,-17.65299 l 15.88216,-18.42774 q 1.88151,-2.1582 4.20573,-2.1582 2.21354,0 3.92904,1.66015 1.71549,1.66016 1.71549,4.03972 0,3.65234 -14.27734,19.47916 -9.85026,10.79102 -20.36459,21.13933 6.64063,6.97265 20.80729,20.03255 l 5.81055,4.86979 q 3.1543,2.4349 6.80664,3.65235 4.37175,1.4388 4.37175,5.47851 0,1.88151 -1.16211,3.59701 -1.4388,2.10286 -3.81836,2.10286 z"
           style="font-style:normal;font-variant:normal;font-weight:normal;font-stretch:normal;font-size:113.33333588px;font-family:'Comic Sans MS';-inkscape-font-specification:'Comic Sans MS';fill:#000000;fill-opacity:0.49019608"
           id="path905"
           inkscape:connector-curvature="0" />
        <path
           d="m 240.5892,456.00897 q -15.60547,0 -26.45182,-9.35221 -11.51042,-9.96094 -11.51042,-25.67709 0,-19.14713 11.3444,-34.80794 12.67253,-17.3763 31.59831,-17.3763 18.20638,0 27.06055,8.1901 9.24153,8.52214 9.24153,26.89454 0,19.14713 -10.40364,34.53125 -11.95313,17.59765 -30.87891,17.59765 z m 4.98047,-75.86914 q -13.55795,0 -22.9655,13.5026 -8.68815,12.39584 -8.68815,27.33724 0,10.68034 7.91341,17.37631 7.58138,6.30859 18.75977,6.30859 13.44726,0 22.19075,-13.55794 7.80274,-12.11914 7.80274,-27.22656 0,-13.22592 -5.92123,-18.59376 -5.64453,-5.14648 -19.09179,-5.14648 z"
           style="font-style:normal;font-variant:normal;font-weight:normal;font-stretch:normal;font-size:113.33333588px;font-family:'Comic Sans MS';-inkscape-font-specification:'Comic Sans MS';fill:#000000;fill-opacity:0.49019608"
           id="path907"
           inkscape:connector-curvature="0" />
        <path
           d="m 372.01824,440.34817 q 0,2.65625 -0.88542,8.85416 -0.88541,5.58919 -5.92122,5.58919 -3.04362,0 -7.24935,-3.98437 -22.52279,-21.30534 -51.6862,-61.48112 l -0.27669,12.56185 -0.16602,12.61719 q 0,4.59309 0.16602,13.77929 0.22135,9.1862 0.22135,13.83464 0,14.88607 -5.7552,14.88607 -3.04362,0 -4.81446,-1.93685 -1.60482,-1.7155 -1.60482,-4.09505 0,-2.32422 0.33204,-7.028 0.38737,-4.70378 0.38737,-7.02799 0,-3.43099 0.22135,-10.23764 0.22135,-6.86197 0.22135,-10.29296 0,-3.65235 -0.16601,-11.01237 -0.16602,-7.41537 -0.16602,-11.06771 0,-3.48633 -0.66406,-10.34831 -0.66406,-6.91732 -0.66406,-10.40365 0,-2.54557 2.1582,-4.64843 2.21354,-2.10287 4.98047,-2.10287 2.93294,0 7.24935,6.41927 13.7793,20.64128 24.79167,34.3099 13.11523,16.21419 28.77604,30.98958 0.16601,-2.37955 0,-7.02799 l -0.16602,-6.97266 q 0,-24.29362 -1.88151,-38.68164 -0.22135,-1.4388 -1.49414,-5.81055 -1.10677,-3.76302 -1.10677,-5.86588 0,-6.41927 5.86589,-6.41927 9.6289,0 9.6289,35.91471 0,6.14258 -0.16601,18.3724 -0.16602,12.17448 -0.16602,18.31706 z"
           style="font-style:normal;font-variant:normal;font-weight:normal;font-stretch:normal;font-size:113.33333588px;font-family:'Comic Sans MS';-inkscape-font-specification:'Comic Sans MS';fill:#000000;fill-opacity:0.49019608"
           id="path909"
           inkscape:connector-curvature="0" />
      </g>
      <g
         id="flowRoot890"
         style="font-style:normal;font-weight:normal;font-size:40px;line-height:1.25;font-family:sans-serif;letter-spacing:0px;word-spacing:0px;fill:#ffffff;fill-opacity:1;stroke:none"
         transform="translate(0.73369,528.64162)"
         aria-label="KON">
        <path
           inkscape:connector-curvature="0"
           id="path898"
           style="font-style:normal;font-variant:normal;font-weight:normal;font-stretch:normal;font-size:113.33333588px;font-family:'Comic Sans MS';-inkscape-font-specification:'Comic Sans MS';fill:#ffffff"
           d="m 190.72917,454.9022 q -8.41146,0 -23.96159,-14.77539 l -16.54623,-16.6569 v 0.77474 l -0.0553,28.9974 q 0,5.47851 -4.81446,5.47851 -3.15429,0 -5.0358,-2.76693 -1.54948,-2.26888 -1.54948,-4.92513 0,-12.94922 0.77474,-38.73698 0.77474,-25.78776 0.77474,-38.68164 0,-2.37956 1.54947,-4.03971 1.60482,-1.66016 3.92904,-1.66016 2.37956,0 3.92904,1.66016 1.60482,1.66015 1.60482,4.03971 0,5.36784 -0.66407,16.71224 -0.66406,10.95703 -0.60872,16.76758 7.41536,-7.02799 16.76758,-17.65299 l 15.88216,-18.42774 q 1.88151,-2.1582 4.20573,-2.1582 2.21354,0 3.92904,1.66015 1.71549,1.66016 1.71549,4.03972 0,3.65234 -14.27734,19.47916 -9.85026,10.79102 -20.36459,21.13933 6.64063,6.97265 20.80729,20.03255 l 5.81055,4.86979 q 3.1543,2.4349 6.80664,3.65235 4.37175,1.4388 4.37175,5.47851 0,1.88151 -1.16211,3.59701 -1.4388,2.10286 -3.81836,2.10286 z" />
        <path
           inkscape:connector-curvature="0"
           id="path900"
           style="font-style:normal;font-variant:normal;font-weight:normal;font-stretch:normal;font-size:113.33333588px;font-family:'Comic Sans MS';-inkscape-font-specification:'Comic Sans MS';fill:#ffffff"
           d="m 240.5892,456.00897 q -15.60547,0 -26.45182,-9.35221 -11.51042,-9.96094 -11.51042,-25.67709 0,-19.14713 11.3444,-34.80794 12.67253,-17.3763 31.59831,-17.3763 18.20638,0 27.06055,8.1901 9.24153,8.52214 9.24153,26.89454 0,19.14713 -10.40364,34.53125 -11.95313,17.59765 -30.87891,17.59765 z m 4.98047,-75.86914 q -13.55795,0 -22.9655,13.5026 -8.68815,12.39584 -8.68815,27.33724 0,10.68034 7.91341,17.37631 7.58138,6.30859 18.75977,6.30859 13.44726,0 22.19075,-13.55794 7.80274,-12.11914 7.80274,-27.22656 0,-13.22592 -5.92123,-18.59376 -5.64453,-5.14648 -19.09179,-5.14648 z" />
        <path
           inkscape:connector-curvature="0"
           id="path902"
           style="font-style:normal;font-variant:normal;font-weight:normal;font-stretch:normal;font-size:113.33333588px;font-family:'Comic Sans MS';-inkscape-font-specification:'Comic Sans MS';fill:#ffffff"
           d="m 372.01824,440.34817 q 0,2.65625 -0.88542,8.85416 -0.88541,5.58919 -5.92122,5.58919 -3.04362,0 -7.24935,-3.98437 -22.52279,-21.30534 -51.6862,-61.48112 l -0.27669,12.56185 -0.16602,12.61719 q 0,4.59309 0.16602,13.77929 0.22135,9.1862 0.22135,13.83464 0,14.88607 -5.7552,14.88607 -3.04362,0 -4.81446,-1.93685 -1.60482,-1.7155 -1.60482,-4.09505 0,-2.32422 0.33204,-7.028 0.38737,-4.70378 0.38737,-7.02799 0,-3.43099 0.22135,-10.23764 0.22135,-6.86197 0.22135,-10.29296 0,-3.65235 -0.16601,-11.01237 -0.16602,-7.41537 -0.16602,-11.06771 0,-3.48633 -0.66406,-10.34831 -0.66406,-6.91732 -0.66406,-10.40365 0,-2.54557 2.1582,-4.64843 2.21354,-2.10287 4.98047,-2.10287 2.93294,0 7.24935,6.41927 13.7793,20.64128 24.79167,34.3099 13.11523,16.21419 28.77604,30.98958 0.16601,-2.37955 0,-7.02799 l -0.16602,-6.97266 q 0,-24.29362 -1.88151,-38.68164 -0.22135,-1.4388 -1.49414,-5.81055 -1.10677,-3.76302 -1.10677,-5.86588 0,-6.41927 5.86589,-6.41927 9.6289,0 9.6289,35.91471 0,6.14258 -0.16601,18.3724 -0.16602,12.17448 -0.16602,18.31706 z" />
      </g>
    </g>
  </g>
</svg>
