<?xml version="1.0" encoding="UTF-8" standalone="no"?>
<!-- Created with Inkscape (http://www.inkscape.org/) -->

<svg
   xmlns:dc="http://purl.org/dc/elements/1.1/"
   xmlns:cc="http://creativecommons.org/ns#"
   xmlns:rdf="http://www.w3.org/1999/02/22-rdf-syntax-ns#"
   xmlns:svg="http://www.w3.org/2000/svg"
   xmlns="http://www.w3.org/2000/svg"
   xmlns:sodipodi="http://sodipodi.sourceforge.net/DTD/sodipodi-0.dtd"
   xmlns:inkscape="http://www.inkscape.org/namespaces/inkscape"
   width="512"
   height="512"
   id="svg2"
   version="1.1"
   inkscape:version="0.92.2 5c3e80d, 2017-08-06"
   sodipodi:docname="application-x-gnumeric.svg">
  <defs
     id="defs4" />
  <sodipodi:namedview
     id="base"
     pagecolor="#ffffff"
     bordercolor="#666666"
     borderopacity="1.0"
     inkscape:pageopacity="0.0"
     inkscape:pageshadow="2"
     inkscape:zoom="0.30333333"
     inkscape:cx="-62.748224"
     inkscape:cy="92.811517"
     inkscape:document-units="px"
     inkscape:current-layer="layer1"
     showgrid="false"
     inkscape:window-width="1366"
     inkscape:window-height="717"
     inkscape:window-x="0"
     inkscape:window-y="24"
     inkscape:window-maximized="1" />
  <metadata
     id="metadata7">
    <rdf:RDF>
      <cc:Work
         rdf:about="">
        <dc:format>image/svg+xml</dc:format>
        <dc:type
           rdf:resource="http://purl.org/dc/dcmitype/StillImage" />
        <dc:title></dc:title>
      </cc:Work>
    </rdf:RDF>
  </metadata>
  <g
     inkscape:label="Layer 1"
     inkscape:groupmode="layer"
     id="layer1"
     transform="translate(0,-540.36218)">
    <g
       id="g973">
      <path
         style="fill:#68b723;fill-opacity:1;stroke-width:11.10955811"
         inkscape:connector-curvature="0"
         d="m 432.91324,596.83615 c 102.19291,88.57459 105.82677,249.69971 8.1168,359.89879 C 343.32009,1066.934 181.27965,1084.4628 79.086741,995.88819 -23.106205,907.31361 -26.740032,746.18849 70.969941,635.98941 168.67991,525.79033 330.72036,508.26156 432.91324,596.83615 Z"
         id="path937" />
      <g
         transform="translate(9.9999999,10.000003)"
         style="fill:#5ea520;fill-opacity:1"
         id="g903">
        <path
           sodipodi:nodetypes="ccccsccscsscccccccccccccccccccccccc"
           inkscape:connector-curvature="0"
           id="path894"
           d="m 169.80093,871.82472 c -25.73207,-2.4948 -47.04867,-22.8181 -50.88028,-48.5094 -0.22452,-1.5055 -0.41111,-42.25665 -0.41465,-90.55818 l -0.006,-87.82095 1.30585,-4.74017 c 3.0651,-11.12616 7.82682,-19.4983 15.30101,-26.90251 6.43805,-6.37775 13.54885,-10.76843 22.23146,-13.72717 8.28134,-2.82201 5.44519,-2.74329 98.83482,-2.74329 h 87.82098 l 4.63741,1.29908 c 16.27752,4.55982 27.25721,12.90498 35.89622,27.28308 2.97475,4.95094 6.03871,13.82464 6.94391,20.11066 0.13774,0.95647 0.27188,26.0637 0.29809,55.79385 l -0.14418,129.1229 c -2.14093,6.9318 -3.84492,10.5616 -7.62455,16.2421 -9.63889,14.4863 -24.7657,23.4836 -42.35788,25.1941 -7.0432,0.6847 -164.7414,0.6443 -171.84178,-0.044 z m 159.3535,-25.4821 c 19.546,-3.1715 35.69326,-19.3187 38.86471,-38.86473 0.38156,-2.35157 0.60364,-21.43672 0.60642,-52.11476 l 0.005,-48.40443 -43.64035,-43.63748 -43.64034,-43.63748 -50.99183,0.16368 -50.99183,0.16368 -4.05773,1.37032 c -16.24568,5.48624 -27.24754,16.58964 -32.26247,32.56018 l -1.35876,4.32715 v 75.06806 75.0681 l 1.35876,4.32717 c 5.48127,17.45564 19.39241,30.20454 36.65363,33.59104 3.79454,0.7445 144.87386,0.7629 149.45541,0.02 z"
           style="fill:#5ea520;fill-opacity:1;stroke-width:0.57967639" />
        <g
           id="g898"
           style="font-style:normal;font-weight:normal;font-size:40px;line-height:1.25;font-family:sans-serif;letter-spacing:0px;word-spacing:0px;fill:#5ea520;fill-opacity:1;stroke:none"
           transform="translate(4.737958,533.41561)"
           aria-label="X">
          <path
             inkscape:connector-curvature="0"
             id="path896"
             style="font-style:normal;font-variant:normal;font-weight:normal;font-stretch:normal;font-size:173.33332825px;font-family:'Comic Sans MS';-inkscape-font-specification:'Comic Sans MS';fill:#5ea520;fill-opacity:1"
             d="m 302.97591,150.92353 q -11.34115,13.71094 -17.4349,22.59766 l -10.57942,15.57291 q -6.17839,8.80208 -11.59506,14.8112 l 18.6198,27.2526 q 11.08723,16.16537 19.72005,26.40625 2.28515,2.79297 2.28515,5.83985 0,3.55468 -2.62369,6.17838 -2.53907,2.6237 -6.09375,2.6237 -3.21615,0 -6.00912,-2.6237 -6.26302,-5.92448 -13.03385,-16.08073 l -11.34115,-17.43489 -13.28776,-19.04297 -29.11458,33.68489 -15.57292,17.4349 q -2.79297,2.79297 -6.17838,2.79297 -3.47005,0 -6.09375,-2.6237 -2.6237,-2.6237 -2.6237,-6.17839 0,-3.04687 2.20052,-5.7552 l 15.23438,-17.01172 31.73828,-36.81641 q -9.3099,-12.4414 -19.80469,-24.96744 l -9.81771,-13.28776 q -5.92448,-7.95573 -11.0026,-12.1875 -3.55469,-2.96224 -3.55469,-6.85547 0,-3.47005 2.45443,-6.17839 2.45442,-2.70833 6.09375,-2.70833 7.19401,0 18.36588,15.31901 3.47005,5.16276 10.57943,14.64193 9.64844,11.51041 18.36588,23.10546 l 19.29688,-26.91406 q 18.78906,-26.15234 24.375,-26.15234 3.47005,0 6.09375,2.6237 2.62369,2.62369 2.62369,6.17838 0,2.96224 -2.28515,5.75521 z" />
        </g>
      </g>
      <path
         style="fill:#3a9104;fill-opacity:1;stroke:none;stroke-width:0.99999994px;stroke-linecap:butt;stroke-linejoin:miter;stroke-opacity:1"
         d="M 8.3652338,882.36219 C 19.949333,925.51392 43.551551,965.08853 79.085936,995.88759 181.27884,1084.4622 343.31934,1066.9343 441.02929,956.73524 461.3803,933.783 477.31887,908.61717 488.90233,882.36219 Z"
         id="path939"
         inkscape:connector-curvature="0"
         sodipodi:nodetypes="csscc" />
      <path
         style="opacity:0.1;stroke-width:11.10955811"
         inkscape:connector-curvature="0"
         d="M 511.63547,765.2657 C 510.08409,826.57734 486.47425,889.4203 440.6691,941.08017 342.95915,1051.2793 180.9187,1068.808 78.725758,980.23347 30.827124,938.71782 4.4968185,881.28502 0.19382646,820.59099 0.79907996,886.94766 27.117405,950.84436 79.078691,995.88129 181.2716,1084.4558 343.31975,1066.9184 441.02199,956.72795 490.72694,900.66984 514.02701,831.43698 511.63547,765.2657 Z"
         id="path941" />
      <g
         transform="translate(-7.3296789e-8,3.7976451e-6)"
         id="g908">
        <path
           style="fill:#ffffff;stroke-width:0.57967639"
           d="m 169.80093,871.82472 c -25.73207,-2.4948 -47.04867,-22.8181 -50.88028,-48.5094 -0.22452,-1.5055 -0.41111,-42.25665 -0.41465,-90.55818 l -0.006,-87.82095 1.30585,-4.74017 c 3.0651,-11.12616 7.82682,-19.4983 15.30101,-26.90251 6.43805,-6.37775 13.54885,-10.76843 22.23146,-13.72717 8.28134,-2.82201 5.44519,-2.74329 98.83482,-2.74329 h 87.82098 l 4.63741,1.29908 c 16.27752,4.55982 27.25721,12.90498 35.89622,27.28308 2.97475,4.95094 6.03871,13.82464 6.94391,20.11066 0.13774,0.95647 0.27188,26.0637 0.29809,55.79385 l -0.14418,129.1229 c -2.14093,6.9318 -3.84492,10.5616 -7.62455,16.2421 -9.63889,14.4863 -24.7657,23.4836 -42.35788,25.1941 -7.0432,0.6847 -164.7414,0.6443 -171.84178,-0.044 z m 159.3535,-25.4821 c 19.546,-3.1715 35.69326,-19.3187 38.86471,-38.86473 0.38156,-2.35157 0.60364,-21.43672 0.60642,-52.11476 l 0.005,-48.40443 -43.64035,-43.63748 -43.64034,-43.63748 -50.99183,0.16368 -50.99183,0.16368 -4.05773,1.37032 c -16.24568,5.48624 -27.24754,16.58964 -32.26247,32.56018 l -1.35876,4.32715 v 75.06806 75.0681 l 1.35876,4.32717 c 5.48127,17.45564 19.39241,30.20454 36.65363,33.59104 3.79454,0.7445 144.87386,0.7629 149.45541,0.02 z"
           id="path910"
           inkscape:connector-curvature="0"
           sodipodi:nodetypes="ccccsccscsscccccccccccccccccccccccc" />
        <g
           aria-label="X"
           transform="translate(4.737958,533.41561)"
           style="font-style:normal;font-weight:normal;font-size:40px;line-height:1.25;font-family:sans-serif;letter-spacing:0px;word-spacing:0px;fill:#ffffff;fill-opacity:1;stroke:none"
           id="flowRoot883">
          <path
             d="m 302.97591,150.92353 q -11.34115,13.71094 -17.4349,22.59766 l -10.57942,15.57291 q -6.17839,8.80208 -11.59506,14.8112 l 18.6198,27.2526 q 11.08723,16.16537 19.72005,26.40625 2.28515,2.79297 2.28515,5.83985 0,3.55468 -2.62369,6.17838 -2.53907,2.6237 -6.09375,2.6237 -3.21615,0 -6.00912,-2.6237 -6.26302,-5.92448 -13.03385,-16.08073 l -11.34115,-17.43489 -13.28776,-19.04297 -29.11458,33.68489 -15.57292,17.4349 q -2.79297,2.79297 -6.17838,2.79297 -3.47005,0 -6.09375,-2.6237 -2.6237,-2.6237 -2.6237,-6.17839 0,-3.04687 2.20052,-5.7552 l 15.23438,-17.01172 31.73828,-36.81641 q -9.3099,-12.4414 -19.80469,-24.96744 l -9.81771,-13.28776 q -5.92448,-7.95573 -11.0026,-12.1875 -3.55469,-2.96224 -3.55469,-6.85547 0,-3.47005 2.45443,-6.17839 2.45442,-2.70833 6.09375,-2.70833 7.19401,0 18.36588,15.31901 3.47005,5.16276 10.57943,14.64193 9.64844,11.51041 18.36588,23.10546 l 19.29688,-26.91406 q 18.78906,-26.15234 24.375,-26.15234 3.47005,0 6.09375,2.6237 2.62369,2.62369 2.62369,6.17838 0,2.96224 -2.28515,5.75521 z"
             style="font-style:normal;font-variant:normal;font-weight:normal;font-stretch:normal;font-size:173.33332825px;font-family:'Comic Sans MS';-inkscape-font-specification:'Comic Sans MS';fill:#ffffff"
             id="path891"
             inkscape:connector-curvature="0" />
        </g>
      </g>
      <g
         aria-label="GNUM"
         transform="matrix(0.85790635,0,0,0.85790635,14.674175,596.6195)"
         style="font-style:normal;font-weight:normal;font-size:40px;line-height:1.25;font-family:sans-serif;letter-spacing:0px;word-spacing:0px;fill:#348304;fill-opacity:1;stroke:none"
         id="g950">
        <path
           d="m 170.8405,429.04413 q -3.43099,16.98893 -14.44336,27.17122 -10.95703,10.12696 -25.89844,10.12696 -13.61328,0 -20.41992,-7.58138 -6.80664,-7.63672 -6.80664,-22.85482 0,-14.33269 6.7513,-29.49545 6.80664,-15.2181 17.43164,-24.57031 7.08333,-6.25325 14.99674,-6.25325 5.03581,0 13.28125,3.32031 10.07162,3.98437 10.07162,8.79883 0,2.26888 -1.66016,4.03971 -1.66015,1.77083 -3.98437,1.77083 -1.21745,0 -3.43099,-1.38346 -8.4668,-5.14648 -14.27735,-5.14648 -4.15039,0 -8.68815,4.3164 -2.26888,2.1582 -6.52995,7.85807 -12.7832,16.9336 -12.7832,36.7448 0,10.40364 3.20964,14.55403 3.48632,4.53776 12.83854,4.53776 9.9056,0 17.21029,-6.25325 7.69205,-6.64063 10.73567,-18.98112 -15.32877,0.77474 -26.28581,5.92122 -1.27278,0.60873 -2.49023,0.60873 -2.4349,0 -4.03971,-1.88151 -1.49414,-1.7155 -1.49414,-3.98438 0,-3.04362 2.93294,-4.86979 11.95312,-7.30469 41.22721,-7.30469 2.37956,0 3.98438,1.60482 1.60482,1.60482 1.60482,4.03971 0,3.59701 -3.04362,5.14649 z"
           style="font-style:normal;font-variant:normal;font-weight:normal;font-stretch:normal;font-size:113.33333588px;font-family:'Comic Sans MS';-inkscape-font-specification:'Comic Sans MS';fill:#348304;fill-opacity:1"
           id="path942"
           inkscape:connector-curvature="0" />
        <path
           d="m 261.20834,450.23879 q 0,2.65625 -0.88542,8.85417 -0.88542,5.58919 -5.92123,5.58919 -3.04362,0 -7.24934,-3.98438 -22.52279,-21.30533 -51.6862,-61.48112 l -0.2767,12.56185 -0.16601,12.61719 q 0,4.5931 0.16601,13.7793 0.22136,9.1862 0.22136,13.83463 0,14.88607 -5.75521,14.88607 -3.04362,0 -4.81445,-1.93685 -1.60482,-1.71549 -1.60482,-4.09505 0,-2.32422 0.33203,-7.02799 0.38737,-4.70378 0.38737,-7.028 0,-3.43099 0.22135,-10.23763 0.22136,-6.86198 0.22136,-10.29297 0,-3.65234 -0.16602,-11.01237 -0.16601,-7.41536 -0.16601,-11.06771 0,-3.48633 -0.66407,-10.34831 -0.66406,-6.91731 -0.66406,-10.40364 0,-2.54557 2.1582,-4.64844 2.21355,-2.10286 4.98047,-2.10286 2.93295,0 7.24935,6.41927 13.7793,20.64127 24.79167,34.30989 13.11523,16.2142 28.77604,30.98959 0.16602,-2.37956 0,-7.028 l -0.16601,-6.97265 q 0,-24.29362 -1.88151,-38.68164 -0.22136,-1.43881 -1.49414,-5.81055 -1.10678,-3.76302 -1.10678,-5.86589 0,-6.41927 5.86589,-6.41927 9.62891,0 9.62891,35.91472 0,6.14257 -0.16602,18.37239 -0.16601,12.17448 -0.16601,18.31706 z"
           style="font-style:normal;font-variant:normal;font-weight:normal;font-stretch:normal;font-size:113.33333588px;font-family:'Comic Sans MS';-inkscape-font-specification:'Comic Sans MS';fill:#348304;fill-opacity:1"
           id="path944"
           inkscape:connector-curvature="0" />
        <path
           d="m 309.96159,464.73749 q -17.21029,0 -25.67708,-9.9056 -6.86198,-7.96875 -8.63282,-23.57422 -0.83008,-7.028 -0.83008,-28.05664 0,-7.7474 0.33204,-12.50651 0.33203,-5.03581 0.99609,-7.028 1.38346,-4.03971 4.98047,-4.03971 5.09114,0 5.09114,9.35221 v 32.48373 q 0,33.53515 23.46355,33.53515 22.08008,0 22.08008,-56.44531 0,-2.10286 0,-5.42318 -0.0553,-3.32031 -0.0553,-4.42708 0,-3.43099 1.21744,-6.0319 1.54948,-3.32031 4.5931,-3.32031 5.53386,0 5.53386,7.58138 0,2.26888 0.0553,6.86198 0,4.5931 0,6.86198 0,64.08203 -33.14779,64.08203 z"
           style="font-style:normal;font-variant:normal;font-weight:normal;font-stretch:normal;font-size:113.33333588px;font-family:'Comic Sans MS';-inkscape-font-specification:'Comic Sans MS';fill:#348304;fill-opacity:1"
           id="path946"
           inkscape:connector-curvature="0" />
        <path
           d="m 439.6198,467.11705 q -2.98828,0 -4.92513,-3.09896 -1.66015,-2.65625 -2.98828,-8.85417 l -1.99219,-9.51823 q -2.26888,-8.85417 -7.19401,-39.06901 l -11.0677,33.36914 -3.26498,10.51432 q -1.99219,6.25326 -4.15039,10.23763 -2.32422,4.20573 -6.25325,4.20573 -3.26498,0 -5.14649,-3.54166 -1.21745,-2.32422 -2.21354,-5.92123 l -1.60482,-6.14258 q -5.58919,-19.5345 -9.85026,-41.83593 l -1.99219,9.9056 -7.13867,29.21875 q -0.44271,5.14648 -2.76693,15.2181 -1.66015,4.3164 -5.47851,4.3164 -2.71159,0 -4.31641,-1.93685 -1.38346,-1.66015 -1.38346,-4.09505 0,-9.24154 3.81836,-22.6888 l 6.08724,-22.30143 3.20963,-17.43165 q 2.4349,-12.22981 5.14649,-15.99283 2.21354,-3.20964 5.47851,-3.20964 3.59701,0 5.36784,4.09505 2.15821,4.92513 4.64844,20.08789 2.93294,18.20638 9.13086,39.40105 8.1901,-21.30534 14.16667,-44.38152 l 1.66015,-8.07942 q 0.9961,-4.86979 2.60091,-7.85808 2.15821,-4.09505 5.92123,-4.09505 4.75911,0 7.24935,9.1862 0.88541,3.1543 2.1582,13.0599 3.26497,25.01302 8.13477,42.72135 l 2.71158,9.51823 q 2.10287,7.63672 2.10287,9.40755 0,2.37956 -1.82617,3.98438 -1.77084,1.60482 -4.03972,1.60482 z"
           style="font-style:normal;font-variant:normal;font-weight:normal;font-stretch:normal;font-size:113.33333588px;font-family:'Comic Sans MS';-inkscape-font-specification:'Comic Sans MS';fill:#348304;fill-opacity:1"
           id="path948"
           inkscape:connector-curvature="0" />
      </g>
      <g
         id="flowRoot923"
         style="font-style:normal;font-weight:normal;font-size:40px;line-height:1.25;font-family:sans-serif;letter-spacing:0px;word-spacing:0px;fill:#ffffff;fill-opacity:1;stroke:none"
         transform="matrix(0.85790635,0,0,0.85790635,4.6743161,586.6195)"
         aria-label="GNUM">
        <path
           inkscape:connector-curvature="0"
           id="path931"
           style="font-style:normal;font-variant:normal;font-weight:normal;font-stretch:normal;font-size:113.33333588px;font-family:'Comic Sans MS';-inkscape-font-specification:'Comic Sans MS';fill:#ffffff"
           d="m 170.8405,429.04413 q -3.43099,16.98893 -14.44336,27.17122 -10.95703,10.12696 -25.89844,10.12696 -13.61328,0 -20.41992,-7.58138 -6.80664,-7.63672 -6.80664,-22.85482 0,-14.33269 6.7513,-29.49545 6.80664,-15.2181 17.43164,-24.57031 7.08333,-6.25325 14.99674,-6.25325 5.03581,0 13.28125,3.32031 10.07162,3.98437 10.07162,8.79883 0,2.26888 -1.66016,4.03971 -1.66015,1.77083 -3.98437,1.77083 -1.21745,0 -3.43099,-1.38346 -8.4668,-5.14648 -14.27735,-5.14648 -4.15039,0 -8.68815,4.3164 -2.26888,2.1582 -6.52995,7.85807 -12.7832,16.9336 -12.7832,36.7448 0,10.40364 3.20964,14.55403 3.48632,4.53776 12.83854,4.53776 9.9056,0 17.21029,-6.25325 7.69205,-6.64063 10.73567,-18.98112 -15.32877,0.77474 -26.28581,5.92122 -1.27278,0.60873 -2.49023,0.60873 -2.4349,0 -4.03971,-1.88151 -1.49414,-1.7155 -1.49414,-3.98438 0,-3.04362 2.93294,-4.86979 11.95312,-7.30469 41.22721,-7.30469 2.37956,0 3.98438,1.60482 1.60482,1.60482 1.60482,4.03971 0,3.59701 -3.04362,5.14649 z" />
        <path
           inkscape:connector-curvature="0"
           id="path933"
           style="font-style:normal;font-variant:normal;font-weight:normal;font-stretch:normal;font-size:113.33333588px;font-family:'Comic Sans MS';-inkscape-font-specification:'Comic Sans MS';fill:#ffffff"
           d="m 261.20834,450.23879 q 0,2.65625 -0.88542,8.85417 -0.88542,5.58919 -5.92123,5.58919 -3.04362,0 -7.24934,-3.98438 -22.52279,-21.30533 -51.6862,-61.48112 l -0.2767,12.56185 -0.16601,12.61719 q 0,4.5931 0.16601,13.7793 0.22136,9.1862 0.22136,13.83463 0,14.88607 -5.75521,14.88607 -3.04362,0 -4.81445,-1.93685 -1.60482,-1.71549 -1.60482,-4.09505 0,-2.32422 0.33203,-7.02799 0.38737,-4.70378 0.38737,-7.028 0,-3.43099 0.22135,-10.23763 0.22136,-6.86198 0.22136,-10.29297 0,-3.65234 -0.16602,-11.01237 -0.16601,-7.41536 -0.16601,-11.06771 0,-3.48633 -0.66407,-10.34831 -0.66406,-6.91731 -0.66406,-10.40364 0,-2.54557 2.1582,-4.64844 2.21355,-2.10286 4.98047,-2.10286 2.93295,0 7.24935,6.41927 13.7793,20.64127 24.79167,34.30989 13.11523,16.2142 28.77604,30.98959 0.16602,-2.37956 0,-7.028 l -0.16601,-6.97265 q 0,-24.29362 -1.88151,-38.68164 -0.22136,-1.43881 -1.49414,-5.81055 -1.10678,-3.76302 -1.10678,-5.86589 0,-6.41927 5.86589,-6.41927 9.62891,0 9.62891,35.91472 0,6.14257 -0.16602,18.37239 -0.16601,12.17448 -0.16601,18.31706 z" />
        <path
           inkscape:connector-curvature="0"
           id="path935"
           style="font-style:normal;font-variant:normal;font-weight:normal;font-stretch:normal;font-size:113.33333588px;font-family:'Comic Sans MS';-inkscape-font-specification:'Comic Sans MS';fill:#ffffff"
           d="m 309.96159,464.73749 q -17.21029,0 -25.67708,-9.9056 -6.86198,-7.96875 -8.63282,-23.57422 -0.83008,-7.028 -0.83008,-28.05664 0,-7.7474 0.33204,-12.50651 0.33203,-5.03581 0.99609,-7.028 1.38346,-4.03971 4.98047,-4.03971 5.09114,0 5.09114,9.35221 v 32.48373 q 0,33.53515 23.46355,33.53515 22.08008,0 22.08008,-56.44531 0,-2.10286 0,-5.42318 -0.0553,-3.32031 -0.0553,-4.42708 0,-3.43099 1.21744,-6.0319 1.54948,-3.32031 4.5931,-3.32031 5.53386,0 5.53386,7.58138 0,2.26888 0.0553,6.86198 0,4.5931 0,6.86198 0,64.08203 -33.14779,64.08203 z" />
        <path
           inkscape:connector-curvature="0"
           id="path938"
           style="font-style:normal;font-variant:normal;font-weight:normal;font-stretch:normal;font-size:113.33333588px;font-family:'Comic Sans MS';-inkscape-font-specification:'Comic Sans MS';fill:#ffffff"
           d="m 439.6198,467.11705 q -2.98828,0 -4.92513,-3.09896 -1.66015,-2.65625 -2.98828,-8.85417 l -1.99219,-9.51823 q -2.26888,-8.85417 -7.19401,-39.06901 l -11.0677,33.36914 -3.26498,10.51432 q -1.99219,6.25326 -4.15039,10.23763 -2.32422,4.20573 -6.25325,4.20573 -3.26498,0 -5.14649,-3.54166 -1.21745,-2.32422 -2.21354,-5.92123 l -1.60482,-6.14258 q -5.58919,-19.5345 -9.85026,-41.83593 l -1.99219,9.9056 -7.13867,29.21875 q -0.44271,5.14648 -2.76693,15.2181 -1.66015,4.3164 -5.47851,4.3164 -2.71159,0 -4.31641,-1.93685 -1.38346,-1.66015 -1.38346,-4.09505 0,-9.24154 3.81836,-22.6888 l 6.08724,-22.30143 3.20963,-17.43165 q 2.4349,-12.22981 5.14649,-15.99283 2.21354,-3.20964 5.47851,-3.20964 3.59701,0 5.36784,4.09505 2.15821,4.92513 4.64844,20.08789 2.93294,18.20638 9.13086,39.40105 8.1901,-21.30534 14.16667,-44.38152 l 1.66015,-8.07942 q 0.9961,-4.86979 2.60091,-7.85808 2.15821,-4.09505 5.92123,-4.09505 4.75911,0 7.24935,9.1862 0.88541,3.1543 2.1582,13.0599 3.26497,25.01302 8.13477,42.72135 l 2.71158,9.51823 q 2.10287,7.63672 2.10287,9.40755 0,2.37956 -1.82617,3.98438 -1.77084,1.60482 -4.03972,1.60482 z" />
      </g>
    </g>
  </g>
</svg>
