<?xml version="1.0" encoding="UTF-8" standalone="no"?>
<!-- Created with Inkscape (http://www.inkscape.org/) -->

<svg
   xmlns:dc="http://purl.org/dc/elements/1.1/"
   xmlns:cc="http://creativecommons.org/ns#"
   xmlns:rdf="http://www.w3.org/1999/02/22-rdf-syntax-ns#"
   xmlns:svg="http://www.w3.org/2000/svg"
   xmlns="http://www.w3.org/2000/svg"
   xmlns:sodipodi="http://sodipodi.sourceforge.net/DTD/sodipodi-0.dtd"
   xmlns:inkscape="http://www.inkscape.org/namespaces/inkscape"
   width="512"
   height="512"
   id="svg2"
   version="1.1"
   inkscape:version="0.92.2 5c3e80d, 2017-08-06"
   sodipodi:docname="audio-x-speex+ogg.svg">
  <defs
     id="defs4" />
  <sodipodi:namedview
     id="base"
     pagecolor="#ffffff"
     bordercolor="#666666"
     borderopacity="1.0"
     inkscape:pageopacity="0.0"
     inkscape:pageshadow="2"
     inkscape:zoom="0.60666666"
     inkscape:cx="353.59239"
     inkscape:cy="139.67112"
     inkscape:document-units="px"
     inkscape:current-layer="layer1"
     showgrid="false"
     inkscape:window-width="1366"
     inkscape:window-height="717"
     inkscape:window-x="0"
     inkscape:window-y="24"
     inkscape:window-maximized="1" />
  <metadata
     id="metadata7">
    <rdf:RDF>
      <cc:Work
         rdf:about="">
        <dc:format>image/svg+xml</dc:format>
        <dc:type
           rdf:resource="http://purl.org/dc/dcmitype/StillImage" />
        <dc:title></dc:title>
      </cc:Work>
    </rdf:RDF>
  </metadata>
  <g
     inkscape:label="Layer 1"
     inkscape:groupmode="layer"
     id="layer1"
     transform="translate(0,-540.36218)">
    <g
       id="g909">
      <path
         style="fill:#333333;fill-opacity:1;stroke-width:11.10955811"
         inkscape:connector-curvature="0"
         d="m 432.91326,596.83616 c 102.19291,88.57459 105.82678,249.69971 8.1168,359.89879 C 343.32009,1066.934 181.27965,1084.4628 79.086741,995.8882 -23.106205,907.31362 -26.740032,746.1885 70.969941,635.98942 168.67991,525.79034 330.72036,508.26157 432.91326,596.83616 Z"
         id="path961" />
      <path
         style="fill:#1a1a1a;fill-opacity:1;stroke:none;stroke-width:0.99999994px;stroke-linecap:butt;stroke-linejoin:miter;stroke-opacity:1"
         d="m 8.3652407,882.3622 c 11.5841003,43.15173 35.1863103,82.72637 70.7207103,113.5254 102.192909,88.5746 264.233389,71.0467 361.943359,-39.15235 20.35102,-22.95224 36.28955,-48.11807 47.87304,-74.37305 z"
         id="path963"
         inkscape:connector-curvature="0"
         sodipodi:nodetypes="csscc" />
      <path
         style="opacity:0.1;stroke-width:11.10955811"
         inkscape:connector-curvature="0"
         d="m 511.6355,765.26571 c -1.55139,61.31164 -25.16123,124.1546 -70.96638,175.81447 C 342.95915,1051.2793 180.9187,1068.808 78.725761,980.23348 30.827121,938.71783 4.4968207,881.28503 0.19383079,820.591 0.79908079,886.94767 27.117401,950.84437 79.078691,995.8813 181.2716,1084.4558 343.31975,1066.9184 441.02201,956.72796 490.72696,900.66985 514.02703,831.43699 511.6355,765.26571 Z"
         id="path965" />
      <path
         style="fill:#2e2e2e;fill-opacity:1;stroke-width:0.17679216"
         d="m 178.83646,882.31851 c -16.20903,-1.05558 -29.03515,-8.3021 -34.69676,-19.6031 -4.63027,-9.24238 -4.11859,-20.6577 1.39858,-31.20219 4.54532,-8.687 12.26877,-16.49762 21.90123,-22.14834 9.87905,-5.79545 20.91936,-8.92375 32.70039,-9.26582 7.24365,-0.21022 14.2424,0.95113 18.42618,3.05761 0.65392,0.32921 1.2307,0.59848 1.28175,0.59848 0.051,0 0.0928,-28.68973 0.0928,-63.75505 0,-56.6039 0.0307,-63.96579 0.2735,-65.63413 0.8276,-5.68589 3.2428,-11.29492 7.04031,-16.35033 1.4228,-1.89398 4.94225,-5.50459 6.82891,-7.00554 2.66541,-2.12059 6.19451,-4.19375 9.07024,-5.32839 0.50554,-0.19946 8.71571,-2.74885 18.2448,-5.66509 70.55547,-21.59332 103.54322,-31.66642 104.66484,-31.96015 2.31895,-0.60743 4.0169,-0.76799 7.0387,-0.66565 3.11924,0.10564 4.56278,0.39104 6.90039,1.36421 5.7502,2.39382 9.65443,7.46713 10.79944,14.03319 0.24464,1.40286 0.27357,11.16465 0.27263,92.0195 -0.002,95.54179 0.0296,91.51224 -0.72285,94.87006 -3.62358,16.17018 -18.07333,30.52183 -37.1822,36.92951 -15.54011,5.21107 -32.96535,4.46972 -45.53981,-1.93752 -3.91308,-1.99384 -7.10557,-4.35223 -10.07985,-7.44633 -3.74896,-3.89989 -6.16117,-8.12916 -7.50969,-13.16677 -1.34204,-5.01346 -1.34012,-11.25949 0.005,-16.6026 2.69102,-10.68842 10.35094,-20.88184 21.10563,-28.08631 9.02577,-6.04612 18.86123,-9.60138 30.15769,-10.90084 3.22114,-0.37063 10.56775,-0.42625 13.4362,-0.10198 5.35737,0.60597 10.52033,1.89917 14.09918,3.53155 l 1.19334,0.54427 -0.002,-43.43555 c 0,-28.65024 -0.0627,-43.82671 -0.18164,-44.58473 -0.38388,-2.44609 -1.80228,-4.34262 -3.85722,-5.15739 -0.8656,-0.34331 -1.3157,-0.3947 -3.38505,-0.38721 -2.07519,0.01 -2.59436,0.0723 -3.97783,0.49024 -1.41742,0.42881 -23.60314,7.37503 -53.12604,16.63336 -5.68829,1.7838 -18.89467,5.91955 -29.3475,9.19073 -10.45283,3.271 -20.11895,6.30526 -21.48024,6.74261 -3.76922,1.21115 -6.86645,3.01575 -9.35022,5.44782 -1.90805,1.86842 -3.04295,3.64605 -3.84508,6.0225 l -0.4177,1.23759 -0.0894,56.75031 -0.0894,56.7503 -0.41414,2.20987 c -1.94441,10.3757 -7.39365,19.55867 -16.02541,27.0058 -9.32493,8.04525 -21.28174,13.10586 -34.56287,14.62876 -2.34563,0.26892 -8.96693,0.4683 -11.0495,0.33274 z"
         id="path855"
         inkscape:connector-curvature="0" />
      <path
         inkscape:connector-curvature="0"
         id="path851"
         d="m 168.83646,872.31851 c -16.20903,-1.05558 -29.03515,-8.3021 -34.69676,-19.6031 -4.63027,-9.24238 -4.11859,-20.6577 1.39858,-31.20219 4.54532,-8.687 12.26877,-16.49762 21.90123,-22.14834 9.87905,-5.79545 20.91936,-8.92375 32.70039,-9.26582 7.24365,-0.21022 14.2424,0.95113 18.42618,3.05761 0.65392,0.32921 1.2307,0.59848 1.28175,0.59848 0.051,0 0.0928,-28.68973 0.0928,-63.75505 0,-56.6039 0.0307,-63.96579 0.2735,-65.63413 0.8276,-5.68589 3.2428,-11.29492 7.04031,-16.35033 1.4228,-1.89398 4.94225,-5.50459 6.82891,-7.00554 2.66541,-2.12059 6.19451,-4.19375 9.07024,-5.32839 0.50554,-0.19946 8.71571,-2.74885 18.2448,-5.66509 70.55547,-21.59332 103.54322,-31.66642 104.66484,-31.96015 2.31895,-0.60743 4.0169,-0.76799 7.0387,-0.66565 3.11924,0.10564 4.56278,0.39104 6.90039,1.36421 5.7502,2.39382 9.65443,7.46713 10.79944,14.03319 0.24464,1.40286 0.27357,11.16465 0.27263,92.0195 -0.002,95.54179 0.0296,91.51224 -0.72285,94.87006 -3.62358,16.17018 -18.07333,30.52183 -37.1822,36.92951 -15.54011,5.21107 -32.96535,4.46972 -45.53981,-1.93752 -3.91308,-1.99384 -7.10557,-4.35223 -10.07985,-7.44633 -3.74896,-3.89989 -6.16117,-8.12916 -7.50969,-13.16677 -1.34204,-5.01346 -1.34012,-11.25949 0.005,-16.6026 2.69102,-10.68842 10.35094,-20.88184 21.10563,-28.08631 9.02577,-6.04612 18.86123,-9.60138 30.15769,-10.90084 3.22114,-0.37063 10.56775,-0.42625 13.4362,-0.10198 5.35737,0.60597 10.52033,1.89917 14.09918,3.53155 l 1.19334,0.54427 -0.002,-43.43555 c 0,-28.65024 -0.0627,-43.82671 -0.18164,-44.58473 -0.38388,-2.44609 -1.80228,-4.34262 -3.85722,-5.15739 -0.8656,-0.34331 -1.3157,-0.3947 -3.38505,-0.38721 -2.07519,0.01 -2.59436,0.0723 -3.97783,0.49024 -1.41742,0.42881 -23.60314,7.37503 -53.12604,16.63336 -5.68829,1.7838 -18.89467,5.91955 -29.3475,9.19073 -10.45283,3.271 -20.11895,6.30526 -21.48024,6.74261 -3.76922,1.21115 -6.86645,3.01575 -9.35022,5.44782 -1.90805,1.86842 -3.04295,3.64605 -3.84508,6.0225 l -0.4177,1.23759 -0.0894,56.75031 -0.0894,56.7503 -0.41414,2.20987 c -1.94441,10.3757 -7.39365,19.55867 -16.02541,27.0058 -9.32493,8.04525 -21.28174,13.10586 -34.56287,14.62876 -2.34563,0.26892 -8.96693,0.4683 -11.0495,0.33274 z"
         style="fill:#ffffff;stroke-width:0.17679216" />
      <g
         aria-label="OGA"
         transform="translate(34.93815,542.55894)"
         style="font-style:normal;font-weight:normal;font-size:40px;line-height:1.25;font-family:sans-serif;letter-spacing:0px;word-spacing:0px;fill:#171717;fill-opacity:1;stroke:none"
         id="g894">
        <path
           d="m 151.52409,454.36054 q -15.60547,0 -26.45182,-9.35222 -11.51042,-9.96094 -11.51042,-25.67708 0,-19.14714 11.3444,-34.80795 12.67253,-17.3763 31.59831,-17.3763 18.20638,0 27.06055,8.19011 9.24153,8.52213 9.24153,26.89453 0,19.14713 -10.40364,34.53125 -11.95313,17.59766 -30.87891,17.59766 z m 4.98047,-75.86915 q -13.55794,0 -22.9655,13.50261 -8.68815,12.39583 -8.68815,27.33724 0,10.68034 7.91341,17.3763 7.58138,6.30859 18.75977,6.30859 13.44727,0 22.19076,-13.55794 7.80273,-12.11914 7.80273,-27.22656 0,-13.22591 -5.92122,-18.59375 -5.64454,-5.14649 -19.0918,-5.14649 z"
           style="font-style:normal;font-variant:normal;font-weight:normal;font-stretch:normal;font-size:113.33333588px;font-family:'Comic Sans MS';-inkscape-font-specification:'Comic Sans MS';fill:#171717;fill-opacity:1"
           id="path888"
           inkscape:connector-curvature="0" />
        <path
           d="m 269.61654,417.50507 q -3.43099,16.98893 -14.44336,27.17122 -10.95703,10.12695 -25.89843,10.12695 -13.61329,0 -20.41993,-7.58138 -6.80664,-7.63672 -6.80664,-22.85482 0,-14.33268 6.7513,-29.49544 6.80665,-15.2181 17.43165,-24.57031 7.08333,-6.25326 14.99674,-6.25326 5.03581,0 13.28125,3.32032 10.07162,3.98437 10.07162,8.79882 0,2.26888 -1.66016,4.03972 -1.66016,1.77083 -3.98438,1.77083 -1.21744,0 -3.43099,-1.38346 -8.46679,-5.14649 -14.27734,-5.14649 -4.15039,0 -8.68815,4.31641 -2.26888,2.1582 -6.52995,7.85807 -12.7832,16.9336 -12.7832,36.74479 0,10.40365 3.20963,14.55404 3.48633,4.53776 12.83855,4.53776 9.90559,0 17.21028,-6.25325 7.69206,-6.64063 10.73568,-18.98112 -15.32878,0.77474 -26.28581,5.92122 -1.27278,0.60872 -2.49023,0.60872 -2.4349,0 -4.03972,-1.88151 -1.49414,-1.71549 -1.49414,-3.98437 0,-3.04362 2.93295,-4.86979 11.95312,-7.30469 41.22721,-7.30469 2.37956,0 3.98438,1.60482 1.60481,1.60482 1.60481,4.03971 0,3.59701 -3.04362,5.14649 z"
           style="font-style:normal;font-variant:normal;font-weight:normal;font-stretch:normal;font-size:113.33333588px;font-family:'Comic Sans MS';-inkscape-font-specification:'Comic Sans MS';fill:#171717;fill-opacity:1"
           id="path890"
           inkscape:connector-curvature="0" />
        <path
           d="m 343.88087,452.64504 q -5.09115,0 -8.85417,-13.0599 -1.4388,-4.98046 -3.59701,-17.43164 -5.64453,0.77474 -14.77539,2.76693 l -14.72005,3.04362 q -2.76693,7.24935 -9.46289,21.19466 -1.77083,3.09896 -4.81445,3.09896 -2.21355,0 -3.98438,-1.60482 -1.71549,-1.60481 -1.71549,-3.98437 0,-2.65625 8.35612,-20.19857 -0.94076,-1.4388 -0.94076,-3.32031 0,-4.48243 5.42318,-5.75521 6.30859,-11.84245 15.9375,-27.22656 13.11523,-20.97331 16.32487,-20.97331 4.37174,0 5.97656,6.08724 l 3.48633,18.59375 8.24544,38.46029 3.1543,8.74348 q 1.60482,4.48243 1.60482,5.97657 0,2.37955 -1.7155,3.98437 -1.71549,1.60482 -3.92903,1.60482 z m -19.53451,-63.25195 -15.82682,25.51106 q 6.69596,-1.71549 20.30924,-4.15039 z"
           style="font-style:normal;font-variant:normal;font-weight:normal;font-stretch:normal;font-size:113.33333588px;font-family:'Comic Sans MS';-inkscape-font-specification:'Comic Sans MS';fill:#171717;fill-opacity:1"
           id="path892"
           inkscape:connector-curvature="0" />
      </g>
      <g
         id="flowRoot873"
         style="font-style:normal;font-weight:normal;font-size:40px;line-height:1.25;font-family:sans-serif;letter-spacing:0px;word-spacing:0px;fill:#000000;fill-opacity:1;stroke:none"
         transform="translate(24.93815,532.55894)"
         aria-label="OGA">
        <path
           inkscape:connector-curvature="0"
           id="path881"
           style="font-style:normal;font-variant:normal;font-weight:normal;font-stretch:normal;font-size:113.33333588px;font-family:'Comic Sans MS';-inkscape-font-specification:'Comic Sans MS';fill:#ffffff"
           d="m 151.52409,454.36054 q -15.60547,0 -26.45182,-9.35222 -11.51042,-9.96094 -11.51042,-25.67708 0,-19.14714 11.3444,-34.80795 12.67253,-17.3763 31.59831,-17.3763 18.20638,0 27.06055,8.19011 9.24153,8.52213 9.24153,26.89453 0,19.14713 -10.40364,34.53125 -11.95313,17.59766 -30.87891,17.59766 z m 4.98047,-75.86915 q -13.55794,0 -22.9655,13.50261 -8.68815,12.39583 -8.68815,27.33724 0,10.68034 7.91341,17.3763 7.58138,6.30859 18.75977,6.30859 13.44727,0 22.19076,-13.55794 7.80273,-12.11914 7.80273,-27.22656 0,-13.22591 -5.92122,-18.59375 -5.64454,-5.14649 -19.0918,-5.14649 z" />
        <path
           inkscape:connector-curvature="0"
           id="path883"
           style="font-style:normal;font-variant:normal;font-weight:normal;font-stretch:normal;font-size:113.33333588px;font-family:'Comic Sans MS';-inkscape-font-specification:'Comic Sans MS';fill:#ffffff"
           d="m 269.61654,417.50507 q -3.43099,16.98893 -14.44336,27.17122 -10.95703,10.12695 -25.89843,10.12695 -13.61329,0 -20.41993,-7.58138 -6.80664,-7.63672 -6.80664,-22.85482 0,-14.33268 6.7513,-29.49544 6.80665,-15.2181 17.43165,-24.57031 7.08333,-6.25326 14.99674,-6.25326 5.03581,0 13.28125,3.32032 10.07162,3.98437 10.07162,8.79882 0,2.26888 -1.66016,4.03972 -1.66016,1.77083 -3.98438,1.77083 -1.21744,0 -3.43099,-1.38346 -8.46679,-5.14649 -14.27734,-5.14649 -4.15039,0 -8.68815,4.31641 -2.26888,2.1582 -6.52995,7.85807 -12.7832,16.9336 -12.7832,36.74479 0,10.40365 3.20963,14.55404 3.48633,4.53776 12.83855,4.53776 9.90559,0 17.21028,-6.25325 7.69206,-6.64063 10.73568,-18.98112 -15.32878,0.77474 -26.28581,5.92122 -1.27278,0.60872 -2.49023,0.60872 -2.4349,0 -4.03972,-1.88151 -1.49414,-1.71549 -1.49414,-3.98437 0,-3.04362 2.93295,-4.86979 11.95312,-7.30469 41.22721,-7.30469 2.37956,0 3.98438,1.60482 1.60481,1.60482 1.60481,4.03971 0,3.59701 -3.04362,5.14649 z" />
        <path
           inkscape:connector-curvature="0"
           id="path885"
           style="font-style:normal;font-variant:normal;font-weight:normal;font-stretch:normal;font-size:113.33333588px;font-family:'Comic Sans MS';-inkscape-font-specification:'Comic Sans MS';fill:#ffffff"
           d="m 343.88087,452.64504 q -5.09115,0 -8.85417,-13.0599 -1.4388,-4.98046 -3.59701,-17.43164 -5.64453,0.77474 -14.77539,2.76693 l -14.72005,3.04362 q -2.76693,7.24935 -9.46289,21.19466 -1.77083,3.09896 -4.81445,3.09896 -2.21355,0 -3.98438,-1.60482 -1.71549,-1.60481 -1.71549,-3.98437 0,-2.65625 8.35612,-20.19857 -0.94076,-1.4388 -0.94076,-3.32031 0,-4.48243 5.42318,-5.75521 6.30859,-11.84245 15.9375,-27.22656 13.11523,-20.97331 16.32487,-20.97331 4.37174,0 5.97656,6.08724 l 3.48633,18.59375 8.24544,38.46029 3.1543,8.74348 q 1.60482,4.48243 1.60482,5.97657 0,2.37955 -1.7155,3.98437 -1.71549,1.60482 -3.92903,1.60482 z m -19.53451,-63.25195 -15.82682,25.51106 q 6.69596,-1.71549 20.30924,-4.15039 z" />
      </g>
    </g>
  </g>
</svg>
