<?xml version="1.0" encoding="UTF-8" standalone="no"?>
<!-- Created with Inkscape (http://www.inkscape.org/) -->

<svg
   xmlns:dc="http://purl.org/dc/elements/1.1/"
   xmlns:cc="http://creativecommons.org/ns#"
   xmlns:rdf="http://www.w3.org/1999/02/22-rdf-syntax-ns#"
   xmlns:svg="http://www.w3.org/2000/svg"
   xmlns="http://www.w3.org/2000/svg"
   xmlns:sodipodi="http://sodipodi.sourceforge.net/DTD/sodipodi-0.dtd"
   xmlns:inkscape="http://www.inkscape.org/namespaces/inkscape"
   width="512"
   height="512"
   id="svg2"
   version="1.1"
   inkscape:version="0.92.2 5c3e80d, 2017-08-06"
   sodipodi:docname="audio-x-wav.svg">
  <defs
     id="defs4" />
  <sodipodi:namedview
     id="base"
     pagecolor="#ffffff"
     bordercolor="#666666"
     borderopacity="1.0"
     inkscape:pageopacity="0.0"
     inkscape:pageshadow="2"
     inkscape:zoom="0.60666665"
     inkscape:cx="393.38629"
     inkscape:cy="278.96261"
     inkscape:document-units="px"
     inkscape:current-layer="layer1"
     showgrid="false"
     inkscape:window-width="1366"
     inkscape:window-height="717"
     inkscape:window-x="0"
     inkscape:window-y="24"
     inkscape:window-maximized="1" />
  <metadata
     id="metadata7">
    <rdf:RDF>
      <cc:Work
         rdf:about="">
        <dc:format>image/svg+xml</dc:format>
        <dc:type
           rdf:resource="http://purl.org/dc/dcmitype/StillImage" />
        <dc:title />
      </cc:Work>
    </rdf:RDF>
  </metadata>
  <g
     inkscape:label="Layer 1"
     inkscape:groupmode="layer"
     id="layer1"
     transform="translate(0,-540.36218)">
    <g
       id="g852">
      <path
         style="fill:#8a715e;fill-opacity:1;stroke-width:11.10955811"
         inkscape:connector-curvature="0"
         d="m 432.91326,596.83616 c 102.19291,88.57459 105.82678,249.69971 8.1168,359.89879 C 343.32009,1066.934 181.27965,1084.4628 79.086741,995.8882 -23.106205,907.31362 -26.740032,746.1885 70.969941,635.98942 168.67991,525.79034 330.72036,508.26157 432.91326,596.83616 Z"
         id="path961" />
      <path
         style="fill:#715344;fill-opacity:1;stroke:none;stroke-width:0.99999994px;stroke-linecap:butt;stroke-linejoin:miter;stroke-opacity:1"
         d="m 8.3652407,882.3622 c 11.5841003,43.15173 35.1863103,82.72637 70.7207103,113.5254 102.192909,88.5746 264.233389,71.0467 361.943359,-39.15235 20.35102,-22.95224 36.28955,-48.11807 47.87304,-74.37305 z"
         id="path963"
         inkscape:connector-curvature="0"
         sodipodi:nodetypes="csscc" />
      <path
         style="opacity:1;stroke-width:11.10955811;fill:#000000;fill-opacity:0.49019608"
         inkscape:connector-curvature="0"
         d="m 511.6355,765.26571 c -1.55139,61.31164 -25.16123,124.1546 -70.96638,175.81447 C 342.95915,1051.2793 180.9187,1068.808 78.725761,980.23348 30.827121,938.71783 4.4968207,881.28503 0.19383079,820.591 0.79908079,886.94767 27.117401,950.84437 79.078691,995.8813 181.2716,1084.4558 343.31975,1066.9184 441.02201,956.72796 490.72696,900.66985 514.02703,831.43699 511.6355,765.26571 Z"
         id="path965" />
      <path
         style="fill:#000000;fill-opacity:0.49019608;stroke-width:0.17679216"
         d="m 188.83646,892.31851 c -16.20903,-1.05558 -29.03515,-8.3021 -34.69676,-19.6031 -4.63027,-9.24238 -4.11859,-20.6577 1.39858,-31.20219 4.54532,-8.687 12.26877,-16.49762 21.90123,-22.14834 9.87905,-5.79545 20.91936,-8.92375 32.70039,-9.26582 7.24365,-0.21022 14.2424,0.95113 18.42618,3.05761 0.65392,0.32921 1.2307,0.59848 1.28175,0.59848 0.051,0 0.0928,-28.68973 0.0928,-63.75505 0,-56.6039 0.0307,-63.96579 0.2735,-65.63413 0.8276,-5.68589 3.2428,-11.29492 7.04031,-16.35033 1.4228,-1.89398 4.94225,-5.50459 6.82891,-7.00554 2.66541,-2.12059 6.19451,-4.19375 9.07024,-5.32839 0.50554,-0.19946 8.71571,-2.74885 18.2448,-5.66509 70.55547,-21.59332 103.54322,-31.66642 104.66484,-31.96015 2.31895,-0.60743 4.0169,-0.76799 7.0387,-0.66565 3.11924,0.10564 4.56278,0.39104 6.90039,1.36421 5.7502,2.39382 9.65443,7.46713 10.79944,14.03319 0.24464,1.40286 0.27357,11.16465 0.27263,92.0195 -0.002,95.54179 0.0296,91.51224 -0.72285,94.87006 -3.62358,16.17018 -18.07333,30.52183 -37.1822,36.92951 -15.54011,5.21107 -32.96535,4.46972 -45.53981,-1.93752 -3.91308,-1.99384 -7.10557,-4.35223 -10.07985,-7.44633 -3.74896,-3.89989 -6.16117,-8.12916 -7.50969,-13.16677 -1.34204,-5.01346 -1.34012,-11.25949 0.005,-16.6026 2.69102,-10.68842 10.35094,-20.88184 21.10563,-28.08631 9.02577,-6.04612 18.86123,-9.60138 30.15769,-10.90084 3.22114,-0.37063 10.56775,-0.42625 13.4362,-0.10198 5.35737,0.60597 10.52033,1.89917 14.09918,3.53155 l 1.19334,0.54427 -0.002,-43.43555 c 0,-28.65024 -0.0627,-43.82671 -0.18164,-44.58473 -0.38388,-2.44609 -1.80228,-4.34262 -3.85722,-5.15739 -0.8656,-0.34331 -1.3157,-0.3947 -3.38505,-0.38721 -2.07519,0.01 -2.59436,0.0723 -3.97783,0.49024 -1.41742,0.42881 -23.60314,7.37503 -53.12604,16.63336 -5.68829,1.7838 -18.89467,5.91955 -29.3475,9.19073 -10.45283,3.271 -20.11895,6.30526 -21.48024,6.74261 -3.76922,1.21115 -6.86645,3.01575 -9.35022,5.44782 -1.90805,1.86842 -3.04295,3.64605 -3.84508,6.0225 l -0.4177,1.23759 -0.0894,56.75031 -0.0894,56.7503 -0.41414,2.20987 c -1.94441,10.3757 -7.39365,19.55867 -16.02541,27.0058 -9.32493,8.04525 -21.28174,13.10586 -34.56287,14.62876 -2.34563,0.26892 -8.96693,0.4683 -11.0495,0.33274 z"
         id="path855"
         inkscape:connector-curvature="0" />
      <path
         inkscape:connector-curvature="0"
         id="path851"
         d="m 168.83646,872.31851 c -16.20903,-1.05558 -29.03515,-8.3021 -34.69676,-19.6031 -4.63027,-9.24238 -4.11859,-20.6577 1.39858,-31.20219 4.54532,-8.687 12.26877,-16.49762 21.90123,-22.14834 9.87905,-5.79545 20.91936,-8.92375 32.70039,-9.26582 7.24365,-0.21022 14.2424,0.95113 18.42618,3.05761 0.65392,0.32921 1.2307,0.59848 1.28175,0.59848 0.051,0 0.0928,-28.68973 0.0928,-63.75505 0,-56.6039 0.0307,-63.96579 0.2735,-65.63413 0.8276,-5.68589 3.2428,-11.29492 7.04031,-16.35033 1.4228,-1.89398 4.94225,-5.50459 6.82891,-7.00554 2.66541,-2.12059 6.19451,-4.19375 9.07024,-5.32839 0.50554,-0.19946 8.71571,-2.74885 18.2448,-5.66509 70.55547,-21.59332 103.54322,-31.66642 104.66484,-31.96015 2.31895,-0.60743 4.0169,-0.76799 7.0387,-0.66565 3.11924,0.10564 4.56278,0.39104 6.90039,1.36421 5.7502,2.39382 9.65443,7.46713 10.79944,14.03319 0.24464,1.40286 0.27357,11.16465 0.27263,92.0195 -0.002,95.54179 0.0296,91.51224 -0.72285,94.87006 -3.62358,16.17018 -18.07333,30.52183 -37.1822,36.92951 -15.54011,5.21107 -32.96535,4.46972 -45.53981,-1.93752 -3.91308,-1.99384 -7.10557,-4.35223 -10.07985,-7.44633 -3.74896,-3.89989 -6.16117,-8.12916 -7.50969,-13.16677 -1.34204,-5.01346 -1.34012,-11.25949 0.005,-16.6026 2.69102,-10.68842 10.35094,-20.88184 21.10563,-28.08631 9.02577,-6.04612 18.86123,-9.60138 30.15769,-10.90084 3.22114,-0.37063 10.56775,-0.42625 13.4362,-0.10198 5.35737,0.60597 10.52033,1.89917 14.09918,3.53155 l 1.19334,0.54427 -0.002,-43.43555 c 0,-28.65024 -0.0627,-43.82671 -0.18164,-44.58473 -0.38388,-2.44609 -1.80228,-4.34262 -3.85722,-5.15739 -0.8656,-0.34331 -1.3157,-0.3947 -3.38505,-0.38721 -2.07519,0.01 -2.59436,0.0723 -3.97783,0.49024 -1.41742,0.42881 -23.60314,7.37503 -53.12604,16.63336 -5.68829,1.7838 -18.89467,5.91955 -29.3475,9.19073 -10.45283,3.271 -20.11895,6.30526 -21.48024,6.74261 -3.76922,1.21115 -6.86645,3.01575 -9.35022,5.44782 -1.90805,1.86842 -3.04295,3.64605 -3.84508,6.0225 l -0.4177,1.23759 -0.0894,56.75031 -0.0894,56.7503 -0.41414,2.20987 c -1.94441,10.3757 -7.39365,19.55867 -16.02541,27.0058 -9.32493,8.04525 -21.28174,13.10586 -34.56287,14.62876 -2.34563,0.26892 -8.96693,0.4683 -11.0495,0.33274 z"
         style="fill:#ffffff;stroke-width:0.17679216" />
      <g
         aria-label="WAV"
         transform="translate(9.42708,553.67026)"
         style="font-style:normal;font-weight:normal;font-size:40px;line-height:1.25;font-family:sans-serif;letter-spacing:0px;word-spacing:0px;fill:#000000;fill-opacity:0.49019608;stroke:none"
         id="g894">
        <path
           d="m 204.62761,453.69192 q -2.54558,0 -4.48243,-1.43881 -2.21354,-1.66015 -2.21354,-4.09505 -2.54557,-6.69596 -3.20963,-10.90169 -0.66407,-4.20573 -4.37175,-23.85091 -2.82226,-14.88607 -3.76302,-23.90625 -4.92513,18.26171 -10.56966,30.93424 -6.52995,14.66471 -8.4668,22.9655 0.66406,1.27278 0.66406,2.49023 0,2.49024 -2.21354,4.09505 -1.99218,1.49414 -4.53776,1.49414 -7.4707,0 -7.4707,-6.69596 l -1.7155,-7.02799 -6.0319,-27.11589 q -3.597,-13.72396 -12.28515,-39.3457 -0.38737,-1.21745 -0.38737,-2.21355 0,-5.14648 5.81054,-5.14648 3.59701,0 5.53386,3.92904 0.99609,1.99218 4.03971,11.45507 3.26498,10.01628 6.52995,24.12761 l 5.36784,24.45963 q 5.92122,-13.72395 11.78711,-33.42448 3.597,-12.00846 5.47851,-16.6569 4.98047,-12.22981 9.68425,-12.22981 3.8737,0 5.47851,3.92903 1.99219,4.75912 4.03972,22.6888 1.10677,9.07553 3.76302,21.80339 l 4.75911,21.74805 q 7.41537,-17.81901 18.53842,-48.19987 0.60872,-1.66016 2.76692,-10.45899 1.60482,-6.47461 3.92904,-10.07161 1.99219,-3.04362 5.20182,-3.04362 5.5892,0 5.5892,5.53385 0,0.94076 -1.77084,5.53386 l -2.21354,5.97656 -3.04362,9.85026 -16.43555,39.95443 q -2.26888,6.58528 -7.80273,19.14713 -1.99219,3.70769 -5.97656,3.70769 z"
           style="font-style:normal;font-variant:normal;font-weight:normal;font-stretch:normal;font-size:113.33333588px;font-family:'Comic Sans MS';-inkscape-font-specification:'Comic Sans MS';fill:#000000;fill-opacity:0.49019608"
           id="path888"
           inkscape:connector-curvature="0" />
        <path
           d="m 312.81446,450.03957 q -5.09115,0 -8.85417,-13.05989 -1.4388,-4.98047 -3.597,-17.43165 -5.64453,0.77474 -14.77539,2.76693 l -14.72006,3.04362 q -2.76692,7.24935 -9.46289,21.19466 -1.77083,3.09896 -4.81445,3.09896 -2.21354,0 -3.98437,-1.60482 -1.7155,-1.60481 -1.7155,-3.98437 0,-2.65625 8.35612,-20.19857 -0.94076,-1.4388 -0.94076,-3.32031 0,-4.48242 5.42318,-5.75521 6.3086,-11.84245 15.9375,-27.22656 13.11524,-20.97331 16.32487,-20.97331 4.37175,0 5.97657,6.08724 l 3.48632,18.59375 8.24545,38.46029 3.15429,8.74349 q 1.60482,4.48242 1.60482,5.97656 0,2.37956 -1.71549,3.98437 -1.7155,1.60482 -3.92904,1.60482 z m -19.53451,-63.25195 -15.82682,25.51107 q 6.69596,-1.7155 20.30925,-4.1504 z"
           style="font-style:normal;font-variant:normal;font-weight:normal;font-stretch:normal;font-size:113.33333588px;font-family:'Comic Sans MS';-inkscape-font-specification:'Comic Sans MS';fill:#000000;fill-opacity:0.49019608"
           id="path890"
           inkscape:connector-curvature="0" />
        <path
           d="m 398.92123,372.51027 q -3.43099,5.14649 -5.58919,10.79102 l -4.20573,12.11914 -14.88607,40.23112 q -2.60091,7.08333 -6.08724,13.83464 -1.77083,3.32031 -4.98047,3.32031 -4.26107,0 -5.97656,-4.31641 -6.69596,-16.82291 -14.88607,-48.42122 l -4.37174,-15.2181 q -3.26498,-11.51042 -3.26498,-15.05209 0,-2.49023 1.77084,-4.09505 1.60481,-1.49414 3.87369,-1.49414 4.20573,0 5.42318,4.53776 l 2.04753,9.62891 5.3125,18.8151 q 5.3125,20.58594 10.3483,35.47201 l 0.33204,-0.88542 14.83073,-40.17578 4.70377,-13.55794 q 3.1543,-8.19011 6.69597,-12.39584 1.82617,-2.21354 4.3164,-2.21354 2.21354,0 3.92904,1.7155 1.77083,1.66015 1.77083,4.03971 0,1.66016 -1.10677,3.32031 z"
           style="font-style:normal;font-variant:normal;font-weight:normal;font-stretch:normal;font-size:113.33333588px;font-family:'Comic Sans MS';-inkscape-font-specification:'Comic Sans MS';fill:#000000;fill-opacity:0.49019608"
           id="path892"
           inkscape:connector-curvature="0" />
      </g>
      <g
         id="flowRoot873"
         style="font-style:normal;font-weight:normal;font-size:40px;line-height:1.25;font-family:sans-serif;letter-spacing:0px;word-spacing:0px;fill:#000000;fill-opacity:1;stroke:none"
         transform="translate(-10.57292,533.67026)"
         aria-label="WAV">
        <path
           inkscape:connector-curvature="0"
           id="path881"
           style="font-style:normal;font-variant:normal;font-weight:normal;font-stretch:normal;font-size:113.33333588px;font-family:'Comic Sans MS';-inkscape-font-specification:'Comic Sans MS';fill:#ffffff"
           d="m 204.62761,453.69192 q -2.54558,0 -4.48243,-1.43881 -2.21354,-1.66015 -2.21354,-4.09505 -2.54557,-6.69596 -3.20963,-10.90169 -0.66407,-4.20573 -4.37175,-23.85091 -2.82226,-14.88607 -3.76302,-23.90625 -4.92513,18.26171 -10.56966,30.93424 -6.52995,14.66471 -8.4668,22.9655 0.66406,1.27278 0.66406,2.49023 0,2.49024 -2.21354,4.09505 -1.99218,1.49414 -4.53776,1.49414 -7.4707,0 -7.4707,-6.69596 l -1.7155,-7.02799 -6.0319,-27.11589 q -3.597,-13.72396 -12.28515,-39.3457 -0.38737,-1.21745 -0.38737,-2.21355 0,-5.14648 5.81054,-5.14648 3.59701,0 5.53386,3.92904 0.99609,1.99218 4.03971,11.45507 3.26498,10.01628 6.52995,24.12761 l 5.36784,24.45963 q 5.92122,-13.72395 11.78711,-33.42448 3.597,-12.00846 5.47851,-16.6569 4.98047,-12.22981 9.68425,-12.22981 3.8737,0 5.47851,3.92903 1.99219,4.75912 4.03972,22.6888 1.10677,9.07553 3.76302,21.80339 l 4.75911,21.74805 q 7.41537,-17.81901 18.53842,-48.19987 0.60872,-1.66016 2.76692,-10.45899 1.60482,-6.47461 3.92904,-10.07161 1.99219,-3.04362 5.20182,-3.04362 5.5892,0 5.5892,5.53385 0,0.94076 -1.77084,5.53386 l -2.21354,5.97656 -3.04362,9.85026 -16.43555,39.95443 q -2.26888,6.58528 -7.80273,19.14713 -1.99219,3.70769 -5.97656,3.70769 z" />
        <path
           inkscape:connector-curvature="0"
           id="path883"
           style="font-style:normal;font-variant:normal;font-weight:normal;font-stretch:normal;font-size:113.33333588px;font-family:'Comic Sans MS';-inkscape-font-specification:'Comic Sans MS';fill:#ffffff"
           d="m 312.81446,450.03957 q -5.09115,0 -8.85417,-13.05989 -1.4388,-4.98047 -3.597,-17.43165 -5.64453,0.77474 -14.77539,2.76693 l -14.72006,3.04362 q -2.76692,7.24935 -9.46289,21.19466 -1.77083,3.09896 -4.81445,3.09896 -2.21354,0 -3.98437,-1.60482 -1.7155,-1.60481 -1.7155,-3.98437 0,-2.65625 8.35612,-20.19857 -0.94076,-1.4388 -0.94076,-3.32031 0,-4.48242 5.42318,-5.75521 6.3086,-11.84245 15.9375,-27.22656 13.11524,-20.97331 16.32487,-20.97331 4.37175,0 5.97657,6.08724 l 3.48632,18.59375 8.24545,38.46029 3.15429,8.74349 q 1.60482,4.48242 1.60482,5.97656 0,2.37956 -1.71549,3.98437 -1.7155,1.60482 -3.92904,1.60482 z m -19.53451,-63.25195 -15.82682,25.51107 q 6.69596,-1.7155 20.30925,-4.1504 z" />
        <path
           inkscape:connector-curvature="0"
           id="path885"
           style="font-style:normal;font-variant:normal;font-weight:normal;font-stretch:normal;font-size:113.33333588px;font-family:'Comic Sans MS';-inkscape-font-specification:'Comic Sans MS';fill:#ffffff"
           d="m 398.92123,372.51027 q -3.43099,5.14649 -5.58919,10.79102 l -4.20573,12.11914 -14.88607,40.23112 q -2.60091,7.08333 -6.08724,13.83464 -1.77083,3.32031 -4.98047,3.32031 -4.26107,0 -5.97656,-4.31641 -6.69596,-16.82291 -14.88607,-48.42122 l -4.37174,-15.2181 q -3.26498,-11.51042 -3.26498,-15.05209 0,-2.49023 1.77084,-4.09505 1.60481,-1.49414 3.87369,-1.49414 4.20573,0 5.42318,4.53776 l 2.04753,9.62891 5.3125,18.8151 q 5.3125,20.58594 10.3483,35.47201 l 0.33204,-0.88542 14.83073,-40.17578 4.70377,-13.55794 q 3.1543,-8.19011 6.69597,-12.39584 1.82617,-2.21354 4.3164,-2.21354 2.21354,0 3.92904,1.7155 1.77083,1.66015 1.77083,4.03971 0,1.66016 -1.10677,3.32031 z" />
      </g>
    </g>
  </g>
</svg>
