<?xml version="1.0" encoding="UTF-8" standalone="no"?>
<!-- Created with Inkscape (http://www.inkscape.org/) -->

<svg
   xmlns:dc="http://purl.org/dc/elements/1.1/"
   xmlns:cc="http://creativecommons.org/ns#"
   xmlns:rdf="http://www.w3.org/1999/02/22-rdf-syntax-ns#"
   xmlns:svg="http://www.w3.org/2000/svg"
   xmlns="http://www.w3.org/2000/svg"
   xmlns:sodipodi="http://sodipodi.sourceforge.net/DTD/sodipodi-0.dtd"
   xmlns:inkscape="http://www.inkscape.org/namespaces/inkscape"
   width="512"
   height="512"
   id="svg2"
   version="1.1"
   inkscape:version="0.92.2 5c3e80d, 2017-08-06"
   sodipodi:docname="audio-mpeg.svg">
  <defs
     id="defs4" />
  <sodipodi:namedview
     id="base"
     pagecolor="#ffffff"
     bordercolor="#666666"
     borderopacity="1.0"
     inkscape:pageopacity="0.0"
     inkscape:pageshadow="2"
     inkscape:zoom="0.60666666"
     inkscape:cx="12.26788"
     inkscape:cy="217.46809"
     inkscape:document-units="px"
     inkscape:current-layer="layer1"
     showgrid="false"
     inkscape:window-width="1366"
     inkscape:window-height="717"
     inkscape:window-x="0"
     inkscape:window-y="24"
     inkscape:window-maximized="1" />
  <metadata
     id="metadata7">
    <rdf:RDF>
      <cc:Work
         rdf:about="">
        <dc:format>image/svg+xml</dc:format>
        <dc:type
           rdf:resource="http://purl.org/dc/dcmitype/StillImage" />
        <dc:title></dc:title>
      </cc:Work>
    </rdf:RDF>
  </metadata>
  <g
     inkscape:label="Layer 1"
     inkscape:groupmode="layer"
     id="layer1"
     transform="translate(0,-540.36218)">
    <g
       transform="translate(-7.3296832e-8,1.14663e-6)"
       id="g909">
      <path
         style="fill:#333333;fill-opacity:1;stroke-width:11.10955811"
         inkscape:connector-curvature="0"
         d="m 432.91326,596.83616 c 102.19291,88.57459 105.82678,249.69971 8.1168,359.89879 C 343.32009,1066.934 181.27965,1084.4628 79.086741,995.8882 -23.106205,907.31362 -26.740032,746.1885 70.969941,635.98942 168.67991,525.79034 330.72036,508.26157 432.91326,596.83616 Z"
         id="path961" />
      <path
         style="fill:#1a1a1a;fill-opacity:1;stroke:none;stroke-width:0.99999994px;stroke-linecap:butt;stroke-linejoin:miter;stroke-opacity:1"
         d="m 8.3652407,882.3622 c 11.5841003,43.15173 35.1863103,82.72637 70.7207103,113.5254 102.192909,88.5746 264.233389,71.0467 361.943359,-39.15235 20.35102,-22.95224 36.28955,-48.11807 47.87304,-74.37305 z"
         id="path963"
         inkscape:connector-curvature="0"
         sodipodi:nodetypes="csscc" />
      <path
         style="opacity:0.1;stroke-width:11.10955811"
         inkscape:connector-curvature="0"
         d="m 511.6355,765.26571 c -1.55139,61.31164 -25.16123,124.1546 -70.96638,175.81447 C 342.95915,1051.2793 180.9187,1068.808 78.725761,980.23348 30.827121,938.71783 4.4968207,881.28503 0.19383079,820.591 0.79908079,886.94767 27.117401,950.84437 79.078691,995.8813 181.2716,1084.4558 343.31975,1066.9184 441.02201,956.72796 490.72696,900.66985 514.02703,831.43699 511.6355,765.26571 Z"
         id="path965" />
      <path
         style="fill:#2e2e2e;fill-opacity:1;stroke-width:0.17679216"
         d="m 178.83646,882.31851 c -16.20903,-1.05558 -29.03515,-8.3021 -34.69676,-19.6031 -4.63027,-9.24238 -4.11859,-20.6577 1.39858,-31.20219 4.54532,-8.687 12.26877,-16.49762 21.90123,-22.14834 9.87905,-5.79545 20.91936,-8.92375 32.70039,-9.26582 7.24365,-0.21022 14.2424,0.95113 18.42618,3.05761 0.65392,0.32921 1.2307,0.59848 1.28175,0.59848 0.051,0 0.0928,-28.68973 0.0928,-63.75505 0,-56.6039 0.0307,-63.96579 0.2735,-65.63413 0.8276,-5.68589 3.2428,-11.29492 7.04031,-16.35033 1.4228,-1.89398 4.94225,-5.50459 6.82891,-7.00554 2.66541,-2.12059 6.19451,-4.19375 9.07024,-5.32839 0.50554,-0.19946 8.71571,-2.74885 18.2448,-5.66509 70.55547,-21.59332 103.54322,-31.66642 104.66484,-31.96015 2.31895,-0.60743 4.0169,-0.76799 7.0387,-0.66565 3.11924,0.10564 4.56278,0.39104 6.90039,1.36421 5.7502,2.39382 9.65443,7.46713 10.79944,14.03319 0.24464,1.40286 0.27357,11.16465 0.27263,92.0195 -0.002,95.54179 0.0296,91.51224 -0.72285,94.87006 -3.62358,16.17018 -18.07333,30.52183 -37.1822,36.92951 -15.54011,5.21107 -32.96535,4.46972 -45.53981,-1.93752 -3.91308,-1.99384 -7.10557,-4.35223 -10.07985,-7.44633 -3.74896,-3.89989 -6.16117,-8.12916 -7.50969,-13.16677 -1.34204,-5.01346 -1.34012,-11.25949 0.005,-16.6026 2.69102,-10.68842 10.35094,-20.88184 21.10563,-28.08631 9.02577,-6.04612 18.86123,-9.60138 30.15769,-10.90084 3.22114,-0.37063 10.56775,-0.42625 13.4362,-0.10198 5.35737,0.60597 10.52033,1.89917 14.09918,3.53155 l 1.19334,0.54427 -0.002,-43.43555 c 0,-28.65024 -0.0627,-43.82671 -0.18164,-44.58473 -0.38388,-2.44609 -1.80228,-4.34262 -3.85722,-5.15739 -0.8656,-0.34331 -1.3157,-0.3947 -3.38505,-0.38721 -2.07519,0.01 -2.59436,0.0723 -3.97783,0.49024 -1.41742,0.42881 -23.60314,7.37503 -53.12604,16.63336 -5.68829,1.7838 -18.89467,5.91955 -29.3475,9.19073 -10.45283,3.271 -20.11895,6.30526 -21.48024,6.74261 -3.76922,1.21115 -6.86645,3.01575 -9.35022,5.44782 -1.90805,1.86842 -3.04295,3.64605 -3.84508,6.0225 l -0.4177,1.23759 -0.0894,56.75031 -0.0894,56.7503 -0.41414,2.20987 c -1.94441,10.3757 -7.39365,19.55867 -16.02541,27.0058 -9.32493,8.04525 -21.28174,13.10586 -34.56287,14.62876 -2.34563,0.26892 -8.96693,0.4683 -11.0495,0.33274 z"
         id="path855"
         inkscape:connector-curvature="0" />
      <path
         inkscape:connector-curvature="0"
         id="path851"
         d="m 168.83646,872.31851 c -16.20903,-1.05558 -29.03515,-8.3021 -34.69676,-19.6031 -4.63027,-9.24238 -4.11859,-20.6577 1.39858,-31.20219 4.54532,-8.687 12.26877,-16.49762 21.90123,-22.14834 9.87905,-5.79545 20.91936,-8.92375 32.70039,-9.26582 7.24365,-0.21022 14.2424,0.95113 18.42618,3.05761 0.65392,0.32921 1.2307,0.59848 1.28175,0.59848 0.051,0 0.0928,-28.68973 0.0928,-63.75505 0,-56.6039 0.0307,-63.96579 0.2735,-65.63413 0.8276,-5.68589 3.2428,-11.29492 7.04031,-16.35033 1.4228,-1.89398 4.94225,-5.50459 6.82891,-7.00554 2.66541,-2.12059 6.19451,-4.19375 9.07024,-5.32839 0.50554,-0.19946 8.71571,-2.74885 18.2448,-5.66509 70.55547,-21.59332 103.54322,-31.66642 104.66484,-31.96015 2.31895,-0.60743 4.0169,-0.76799 7.0387,-0.66565 3.11924,0.10564 4.56278,0.39104 6.90039,1.36421 5.7502,2.39382 9.65443,7.46713 10.79944,14.03319 0.24464,1.40286 0.27357,11.16465 0.27263,92.0195 -0.002,95.54179 0.0296,91.51224 -0.72285,94.87006 -3.62358,16.17018 -18.07333,30.52183 -37.1822,36.92951 -15.54011,5.21107 -32.96535,4.46972 -45.53981,-1.93752 -3.91308,-1.99384 -7.10557,-4.35223 -10.07985,-7.44633 -3.74896,-3.89989 -6.16117,-8.12916 -7.50969,-13.16677 -1.34204,-5.01346 -1.34012,-11.25949 0.005,-16.6026 2.69102,-10.68842 10.35094,-20.88184 21.10563,-28.08631 9.02577,-6.04612 18.86123,-9.60138 30.15769,-10.90084 3.22114,-0.37063 10.56775,-0.42625 13.4362,-0.10198 5.35737,0.60597 10.52033,1.89917 14.09918,3.53155 l 1.19334,0.54427 -0.002,-43.43555 c 0,-28.65024 -0.0627,-43.82671 -0.18164,-44.58473 -0.38388,-2.44609 -1.80228,-4.34262 -3.85722,-5.15739 -0.8656,-0.34331 -1.3157,-0.3947 -3.38505,-0.38721 -2.07519,0.01 -2.59436,0.0723 -3.97783,0.49024 -1.41742,0.42881 -23.60314,7.37503 -53.12604,16.63336 -5.68829,1.7838 -18.89467,5.91955 -29.3475,9.19073 -10.45283,3.271 -20.11895,6.30526 -21.48024,6.74261 -3.76922,1.21115 -6.86645,3.01575 -9.35022,5.44782 -1.90805,1.86842 -3.04295,3.64605 -3.84508,6.0225 l -0.4177,1.23759 -0.0894,56.75031 -0.0894,56.7503 -0.41414,2.20987 c -1.94441,10.3757 -7.39365,19.55867 -16.02541,27.0058 -9.32493,8.04525 -21.28174,13.10586 -34.56287,14.62876 -2.34563,0.26892 -8.96693,0.4683 -11.0495,0.33274 z"
         style="fill:#ffffff;stroke-width:0.17679216" />
      <g
         aria-label="MP3"
         transform="translate(30.17513,533.54201)"
         style="font-style:normal;font-weight:normal;font-size:40px;line-height:1.25;font-family:sans-serif;letter-spacing:0px;word-spacing:0px;fill:#171717;fill-opacity:1;stroke:none"
         id="g894">
        <path
           d="m 213.55209,463.82017 q -2.98829,0 -4.92513,-3.09896 -1.66016,-2.65625 -2.98829,-8.85416 l -1.99218,-9.51823 q -2.26888,-8.85417 -7.19401,-39.06902 l -11.06771,33.36915 -3.26498,10.51432 q -1.99218,6.25325 -4.15039,10.23763 -2.32422,4.20573 -6.25325,4.20573 -3.26498,0 -5.14649,-3.54167 -1.21745,-2.32422 -2.21354,-5.92122 l -1.60482,-6.14258 q -5.58919,-19.53451 -9.85026,-41.83594 l -1.99219,9.9056 -7.13867,29.21875 q -0.44271,5.14649 -2.76692,15.2181 -1.66016,4.31641 -5.47852,4.31641 -2.71159,0 -4.31641,-1.93685 -1.38346,-1.66016 -1.38346,-4.09505 0,-9.24154 3.81836,-22.68881 l 6.08724,-22.30143 3.20963,-17.43164 q 2.4349,-12.22982 5.14649,-15.99284 2.21354,-3.20964 5.47851,-3.20964 3.59701,0 5.36784,4.09506 2.15821,4.92513 4.64844,20.08789 2.93294,18.20638 9.13086,39.40104 8.19011,-21.30534 14.16667,-44.38151 l 1.66015,-8.07943 q 0.9961,-4.86979 2.60092,-7.85807 2.1582,-4.09505 5.92122,-4.09505 4.75911,0 7.24935,9.18619 0.88542,3.1543 2.1582,13.0599 3.26498,25.01302 8.13477,42.72136 l 2.71159,9.51823 q 2.10286,7.63671 2.10286,9.40755 0,2.37956 -1.82617,3.98437 -1.77083,1.60482 -4.03971,1.60482 z"
           style="font-style:normal;font-variant:normal;font-weight:normal;font-stretch:normal;font-size:113.33333588px;font-family:'Comic Sans MS';-inkscape-font-specification:'Comic Sans MS';fill:#171717;fill-opacity:1"
           id="path888"
           inkscape:connector-curvature="0" />
        <path
           d="m 246.53386,426.74335 q -1.54948,0 -6.75131,-0.7194 -0.4427,8.35612 -0.4427,29.27408 0,2.21355 -1.43881,3.76303 -1.4388,1.49414 -3.597,1.49414 -2.21354,0 -3.65234,-1.49414 -1.43881,-1.54948 -1.43881,-3.76303 V 439.0285 q 0,-8.13476 0.9961,-22.91015 1.10677,-15.99284 1.21745,-22.91016 v -7.63672 q 0,-5.47851 0.66406,-7.96875 1.27278,-4.86979 5.42317,-4.20573 1.77084,-0.55338 5.03581,-0.83008 3.26498,-0.27669 8.02409,-0.27669 10.12695,0 18.98112,6.91732 9.73958,7.63672 9.73958,18.37239 0,13.72396 -10.40364,21.85873 -9.29688,7.30469 -22.35677,7.30469 z m 2.76692,-43.93881 q -2.43489,0 -4.37174,0.11068 -1.88151,0.11068 -3.20964,0.33203 l -0.11067,10.18229 -1.16211,22.02474 6.08724,0.71941 q 9.29687,0 15.6608,-4.70378 6.97266,-5.14649 6.97266,-13.88998 0,-6.19791 -6.64062,-10.68033 -6.14258,-4.09506 -13.22592,-4.09506 z"
           style="font-style:normal;font-variant:normal;font-weight:normal;font-stretch:normal;font-size:113.33333588px;font-family:'Comic Sans MS';-inkscape-font-specification:'Comic Sans MS';fill:#171717;fill-opacity:1"
           id="path890"
           inkscape:connector-curvature="0" />
        <path
           d="m 316.26043,461.77264 q -8.35612,0 -14.99675,-3.48632 -7.4707,-4.03972 -10.07161,-11.3444 -0.33203,-0.9961 -0.33203,-1.93685 0,-2.21355 1.66015,-3.65235 1.7155,-1.49414 3.92904,-1.49414 2.21354,0 3.81836,2.04753 l 2.54557,3.81836 q 1.99219,2.71159 5.36784,4.09505 3.37565,1.32812 8.07943,1.32812 6.0319,0 10.56966,-3.76302 4.81445,-3.98437 4.81445,-9.73958 0,-8.35612 -6.14258,-13.33659 -5.42317,-4.31641 -14.38802,-5.25716 -6.14258,-0.60872 -6.14258,-4.98047 0,-3.26497 4.81446,-4.98047 l 13.22591,-3.26497 q 3.81836,-1.38347 5.75521,-3.70768 1.93685,-2.37956 1.99219,-5.75521 0.11067,-4.86979 -3.76303,-7.85808 -4.03971,-3.09895 -11.3444,-3.09895 -3.76302,0 -7.30468,1.82617 l -6.25326,3.92903 q -1.82617,1.16211 -2.93294,1.16211 -2.21354,0 -3.81836,-1.66015 -1.54948,-1.7155 -1.54948,-3.8737 0,-4.37175 8.4668,-8.41146 7.36002,-3.597 12.11914,-3.597 11.89778,0 18.87044,5.25716 7.4707,5.64453 7.4707,16.10351 0,13.00456 -10.51432,17.15495 -0.94075,0.38737 -2.1582,0.77474 7.36002,2.71159 11.01237,8.13477 3.65234,5.36783 3.65234,13.44726 0,10.9017 -7.69206,18.53841 -7.69205,7.58138 -18.75976,7.58138 z"
           style="font-style:normal;font-variant:normal;font-weight:normal;font-stretch:normal;font-size:113.33333588px;font-family:'Comic Sans MS';-inkscape-font-specification:'Comic Sans MS';fill:#171717;fill-opacity:1"
           id="path892"
           inkscape:connector-curvature="0" />
      </g>
      <g
         id="flowRoot873"
         style="font-style:normal;font-weight:normal;font-size:40px;line-height:1.25;font-family:sans-serif;letter-spacing:0px;word-spacing:0px;fill:#ffffff;fill-opacity:1;stroke:none"
         transform="translate(20.17513,523.54201)"
         aria-label="MP3">
        <path
           inkscape:connector-curvature="0"
           id="path881"
           style="font-style:normal;font-variant:normal;font-weight:normal;font-stretch:normal;font-size:113.33333588px;font-family:'Comic Sans MS';-inkscape-font-specification:'Comic Sans MS';fill:#ffffff"
           d="m 213.55209,463.82017 q -2.98829,0 -4.92513,-3.09896 -1.66016,-2.65625 -2.98829,-8.85416 l -1.99218,-9.51823 q -2.26888,-8.85417 -7.19401,-39.06902 l -11.06771,33.36915 -3.26498,10.51432 q -1.99218,6.25325 -4.15039,10.23763 -2.32422,4.20573 -6.25325,4.20573 -3.26498,0 -5.14649,-3.54167 -1.21745,-2.32422 -2.21354,-5.92122 l -1.60482,-6.14258 q -5.58919,-19.53451 -9.85026,-41.83594 l -1.99219,9.9056 -7.13867,29.21875 q -0.44271,5.14649 -2.76692,15.2181 -1.66016,4.31641 -5.47852,4.31641 -2.71159,0 -4.31641,-1.93685 -1.38346,-1.66016 -1.38346,-4.09505 0,-9.24154 3.81836,-22.68881 l 6.08724,-22.30143 3.20963,-17.43164 q 2.4349,-12.22982 5.14649,-15.99284 2.21354,-3.20964 5.47851,-3.20964 3.59701,0 5.36784,4.09506 2.15821,4.92513 4.64844,20.08789 2.93294,18.20638 9.13086,39.40104 8.19011,-21.30534 14.16667,-44.38151 l 1.66015,-8.07943 q 0.9961,-4.86979 2.60092,-7.85807 2.1582,-4.09505 5.92122,-4.09505 4.75911,0 7.24935,9.18619 0.88542,3.1543 2.1582,13.0599 3.26498,25.01302 8.13477,42.72136 l 2.71159,9.51823 q 2.10286,7.63671 2.10286,9.40755 0,2.37956 -1.82617,3.98437 -1.77083,1.60482 -4.03971,1.60482 z" />
        <path
           inkscape:connector-curvature="0"
           id="path883"
           style="font-style:normal;font-variant:normal;font-weight:normal;font-stretch:normal;font-size:113.33333588px;font-family:'Comic Sans MS';-inkscape-font-specification:'Comic Sans MS';fill:#ffffff"
           d="m 246.53386,426.74335 q -1.54948,0 -6.75131,-0.7194 -0.4427,8.35612 -0.4427,29.27408 0,2.21355 -1.43881,3.76303 -1.4388,1.49414 -3.597,1.49414 -2.21354,0 -3.65234,-1.49414 -1.43881,-1.54948 -1.43881,-3.76303 V 439.0285 q 0,-8.13476 0.9961,-22.91015 1.10677,-15.99284 1.21745,-22.91016 v -7.63672 q 0,-5.47851 0.66406,-7.96875 1.27278,-4.86979 5.42317,-4.20573 1.77084,-0.55338 5.03581,-0.83008 3.26498,-0.27669 8.02409,-0.27669 10.12695,0 18.98112,6.91732 9.73958,7.63672 9.73958,18.37239 0,13.72396 -10.40364,21.85873 -9.29688,7.30469 -22.35677,7.30469 z m 2.76692,-43.93881 q -2.43489,0 -4.37174,0.11068 -1.88151,0.11068 -3.20964,0.33203 l -0.11067,10.18229 -1.16211,22.02474 6.08724,0.71941 q 9.29687,0 15.6608,-4.70378 6.97266,-5.14649 6.97266,-13.88998 0,-6.19791 -6.64062,-10.68033 -6.14258,-4.09506 -13.22592,-4.09506 z" />
        <path
           inkscape:connector-curvature="0"
           id="path885"
           style="font-style:normal;font-variant:normal;font-weight:normal;font-stretch:normal;font-size:113.33333588px;font-family:'Comic Sans MS';-inkscape-font-specification:'Comic Sans MS';fill:#ffffff"
           d="m 316.26043,461.77264 q -8.35612,0 -14.99675,-3.48632 -7.4707,-4.03972 -10.07161,-11.3444 -0.33203,-0.9961 -0.33203,-1.93685 0,-2.21355 1.66015,-3.65235 1.7155,-1.49414 3.92904,-1.49414 2.21354,0 3.81836,2.04753 l 2.54557,3.81836 q 1.99219,2.71159 5.36784,4.09505 3.37565,1.32812 8.07943,1.32812 6.0319,0 10.56966,-3.76302 4.81445,-3.98437 4.81445,-9.73958 0,-8.35612 -6.14258,-13.33659 -5.42317,-4.31641 -14.38802,-5.25716 -6.14258,-0.60872 -6.14258,-4.98047 0,-3.26497 4.81446,-4.98047 l 13.22591,-3.26497 q 3.81836,-1.38347 5.75521,-3.70768 1.93685,-2.37956 1.99219,-5.75521 0.11067,-4.86979 -3.76303,-7.85808 -4.03971,-3.09895 -11.3444,-3.09895 -3.76302,0 -7.30468,1.82617 l -6.25326,3.92903 q -1.82617,1.16211 -2.93294,1.16211 -2.21354,0 -3.81836,-1.66015 -1.54948,-1.7155 -1.54948,-3.8737 0,-4.37175 8.4668,-8.41146 7.36002,-3.597 12.11914,-3.597 11.89778,0 18.87044,5.25716 7.4707,5.64453 7.4707,16.10351 0,13.00456 -10.51432,17.15495 -0.94075,0.38737 -2.1582,0.77474 7.36002,2.71159 11.01237,8.13477 3.65234,5.36783 3.65234,13.44726 0,10.9017 -7.69206,18.53841 -7.69205,7.58138 -18.75976,7.58138 z" />
      </g>
    </g>
  </g>
</svg>
