<?xml version="1.0" encoding="UTF-8" standalone="no"?>
<!-- Created with Inkscape (http://www.inkscape.org/) -->

<svg
   xmlns:dc="http://purl.org/dc/elements/1.1/"
   xmlns:cc="http://creativecommons.org/ns#"
   xmlns:rdf="http://www.w3.org/1999/02/22-rdf-syntax-ns#"
   xmlns:svg="http://www.w3.org/2000/svg"
   xmlns="http://www.w3.org/2000/svg"
   xmlns:sodipodi="http://sodipodi.sourceforge.net/DTD/sodipodi-0.dtd"
   xmlns:inkscape="http://www.inkscape.org/namespaces/inkscape"
   width="512"
   height="512"
   id="svg2"
   version="1.1"
   inkscape:version="0.92.2 5c3e80d, 2017-08-06"
   sodipodi:docname="image-x-psd.svg">
  <defs
     id="defs4" />
  <sodipodi:namedview
     id="base"
     pagecolor="#ffffff"
     bordercolor="#666666"
     borderopacity="1.0"
     inkscape:pageopacity="0.0"
     inkscape:pageshadow="2"
     inkscape:zoom="0.60666665"
     inkscape:cx="34.163454"
     inkscape:cy="202.9503"
     inkscape:document-units="px"
     inkscape:current-layer="layer1"
     showgrid="false"
     inkscape:window-width="1366"
     inkscape:window-height="717"
     inkscape:window-x="0"
     inkscape:window-y="24"
     inkscape:window-maximized="1" />
  <metadata
     id="metadata7">
    <rdf:RDF>
      <cc:Work
         rdf:about="">
        <dc:format>image/svg+xml</dc:format>
        <dc:type
           rdf:resource="http://purl.org/dc/dcmitype/StillImage" />
        <dc:title />
      </cc:Work>
    </rdf:RDF>
  </metadata>
  <g
     inkscape:label="Layer 1"
     inkscape:groupmode="layer"
     id="layer1"
     transform="translate(0,-540.36218)">
    <g
       transform="translate(-3.2135403e-7,-2.802444e-6)"
       id="g852">
      <path
         id="path943"
         d="m 432.91326,596.8362 c 102.19291,88.57459 105.82678,249.69971 8.1168,359.8988 C 343.32009,1066.934 181.27965,1084.4628 79.086739,995.8882 -23.106204,907.3137 -26.740031,746.18854 70.969939,635.98946 168.67991,525.79038 330.72036,508.26161 432.91326,596.8362 Z"
         inkscape:connector-curvature="0"
         style="fill:#3689e6;fill-opacity:1;stroke-width:11.10955811" />
      <path
         sodipodi:nodetypes="csscc"
         inkscape:connector-curvature="0"
         id="path945"
         d="M 8.3652387,882.36224 C 19.949339,925.514 43.551549,965.0886 79.085949,995.8876 c 102.192911,88.5746 264.233391,71.0467 361.943361,-39.1523 20.35102,-22.9523 36.28955,-48.1181 47.87304,-74.37306 z"
         style="fill:#0d52bf;fill-opacity:1;stroke:none;stroke-width:0.99999994px;stroke-linecap:butt;stroke-linejoin:miter;stroke-opacity:1" />
      <path
         id="path947"
         d="M 511.6355,765.26575 C 510.08411,826.57739 486.47427,889.42035 440.66912,941.0802 342.95915,1051.2793 180.9187,1068.808 78.725759,980.2335 30.827129,938.7179 4.4968187,881.28507 0.19382868,820.59104 0.79907868,886.94771 27.117409,950.8444 79.078689,995.8813 181.2716,1084.4558 343.31975,1066.9184 441.02201,956.728 490.72696,900.66989 514.02703,831.43703 511.6355,765.26575 Z"
         inkscape:connector-curvature="0"
         style="opacity:1;fill:#000000;fill-opacity:0.49019608;stroke-width:11.10955811" />
      <path
         style="fill:#000000;fill-opacity:0.49019608;stroke-width:1.62666166"
         d="m 162.13366,891.39546 c -10.81299,-2.66882 -18.98689,-10.486 -21.88835,-20.93317 -2.39883,-8.63741 -2.29146,-221.82004 0.11615,-230.4921 2.302,-8.2919 11.89036,-17.88024 20.18225,-20.18226 9.03056,-2.50708 221.88204,-2.50708 230.91259,0 8.2919,2.30202 17.88024,11.89036 20.18226,20.18226 2.40756,8.67206 2.51495,221.85469 0.11615,230.4921 -2.02899,7.30569 -8.25773,15.0319 -15.1688,18.81555 -4.65665,2.5494 -14.70693,2.81109 -117.33254,3.05514 -61.7318,0.14689 -114.43564,-0.27507 -117.11963,-0.93752 z m 179.20872,-71.95501 c 14.71906,-3.7063 23.68345,-17.05937 21.01208,-31.29895 -1.96699,-10.48499 -7.28493,-15.9542 -23.27655,-23.93869 -8.251,-4.11965 -16.11998,-8.41826 -17.48662,-9.55247 -6.73921,-5.59305 1.52376,-17.07871 9.62968,-13.38541 2.30662,1.05097 4.28636,3.74962 4.94259,6.73739 l 1.09471,4.98417 h 13.09689 13.09687 l -0.93471,-5.76002 c -3.39227,-20.90413 -30.07392,-31.70362 -52.51342,-21.25499 -10.51917,4.89809 -15.67271,12.64795 -15.67271,23.56854 0,14.46275 5.61161,20.96847 26.99032,31.29077 16.20666,7.82508 19.86452,12.17775 14.87093,17.69563 -6.04515,6.6798 -20.33926,1.89611 -20.33926,-6.80677 0,-2.58693 -1.51514,-2.9466 -12.4128,-2.9466 h -12.41279 l 0.96089,5.92133 c 3.208,19.76854 25.24349,30.81715 49.3539,24.74607 z M 219.88014,796.90636 V 774.1331 l 10.97997,-0.0399 c 21.14719,-0.0766 33.90677,-5.5035 42.11998,-17.91449 3.39974,-5.13735 4.49224,-9.10105 5.09431,-18.48281 1.28576,-20.03483 -6.37641,-35.72744 -21.34505,-43.71603 -6.10561,-3.25841 -9.53538,-3.658 -35.62921,-4.15109 l -28.87324,-0.5456 v 65.19821 65.19819 h 13.82662 13.82662 z m 0,-65.03611 v -21.54408 l 11.40381,0.64437 c 9.76046,0.55152 12.03816,1.27872 15.8058,5.04638 3.74489,3.74486 4.49579,6.06175 5.03026,15.52043 0.56011,9.91271 0.20128,11.61482 -3.30896,15.69571 -3.52627,4.09953 -5.24152,4.66099 -16.43406,5.37927 l -12.49685,0.80199 z"
         id="path848"
         inkscape:connector-curvature="0" />
      <path
         inkscape:connector-curvature="0"
         id="path846"
         d="m 142.13366,871.39546 c -10.81299,-2.66882 -18.98689,-10.486 -21.88835,-20.93317 -2.39883,-8.63741 -2.29146,-221.82004 0.11615,-230.4921 2.302,-8.2919 11.89036,-17.88024 20.18225,-20.18226 9.03056,-2.50708 221.88204,-2.50708 230.91259,0 8.2919,2.30202 17.88024,11.89036 20.18226,20.18226 2.40756,8.67206 2.51495,221.85469 0.11615,230.4921 -2.02899,7.30569 -8.25773,15.0319 -15.1688,18.81555 -4.65665,2.5494 -14.70693,2.81109 -117.33254,3.05514 -61.7318,0.14689 -114.43564,-0.27507 -117.11963,-0.93752 z m 179.20872,-71.95501 c 14.71906,-3.7063 23.68345,-17.05937 21.01208,-31.29895 -1.96699,-10.48499 -7.28493,-15.9542 -23.27655,-23.93869 -8.251,-4.11965 -16.11998,-8.41826 -17.48662,-9.55247 -6.73921,-5.59305 1.52376,-17.07871 9.62968,-13.38541 2.30662,1.05097 4.28636,3.74962 4.94259,6.73739 l 1.09471,4.98417 h 13.09689 13.09687 l -0.93471,-5.76002 c -3.39227,-20.90413 -30.07392,-31.70362 -52.51342,-21.25499 -10.51917,4.89809 -15.67271,12.64795 -15.67271,23.56854 0,14.46275 5.61161,20.96847 26.99032,31.29077 16.20666,7.82508 19.86452,12.17775 14.87093,17.69563 -6.04515,6.6798 -20.33926,1.89611 -20.33926,-6.80677 0,-2.58693 -1.51514,-2.9466 -12.4128,-2.9466 h -12.41279 l 0.96089,5.92133 c 3.208,19.76854 25.24349,30.81715 49.3539,24.74607 z M 199.88014,776.90636 V 754.1331 l 10.97997,-0.0399 c 21.14719,-0.0766 33.90677,-5.5035 42.11998,-17.91449 3.39974,-5.13735 4.49224,-9.10105 5.09431,-18.48281 1.28576,-20.03483 -6.37641,-35.72744 -21.34505,-43.71603 -6.10561,-3.25841 -9.53538,-3.658 -35.62921,-4.15109 l -28.87324,-0.5456 v 65.19821 65.19819 h 13.82662 13.82662 z m 0,-65.03611 v -21.54408 l 11.40381,0.64437 c 9.76046,0.55152 12.03816,1.27872 15.8058,5.04638 3.74489,3.74486 4.49579,6.06175 5.03026,15.52043 0.56011,9.91271 0.20128,11.61482 -3.30896,15.69571 -3.52627,4.09953 -5.24152,4.66099 -16.43406,5.37927 l -12.49685,0.80199 z"
         style="fill:#ffffff;stroke-width:1.62666166" />
      <g
         aria-label="PSD"
         transform="translate(79.102864,529.46909)"
         style="font-style:normal;font-weight:normal;font-size:40px;line-height:1.25;font-family:sans-serif;letter-spacing:0px;word-spacing:0px;fill:#000000;fill-opacity:0.49019608;stroke:none"
         id="g959">
        <path
           d="m 110.2181,439.93085 q -1.54948,0 -6.7513,-0.7194 -0.44271,8.35612 -0.44271,29.27408 0,2.21355 -1.4388,3.76303 -1.43881,1.49414 -3.597009,1.49414 -2.213541,0 -3.652343,-1.49414 -1.438802,-1.54948 -1.438802,-3.76303 V 452.216 q 0,-8.13476 0.996093,-22.91015 Q 95,413.31301 95.110677,406.39569 v -7.63672 q 0,-5.47851 0.664063,-7.96875 1.272786,-4.86979 5.42318,-4.20573 1.77083,-0.55338 5.0358,-0.83008 3.26498,-0.27669 8.02409,-0.27669 10.12696,0 18.98112,6.91732 9.73959,7.63672 9.73959,18.37239 0,13.72396 -10.40365,21.85873 -9.29687,7.30469 -22.35677,7.30469 z m 2.76693,-43.93881 q -2.4349,0 -4.37175,0.11068 -1.88151,0.11068 -3.20963,0.33203 l -0.11068,10.18229 -1.16211,22.02474 6.08724,0.71941 q 9.29687,0 15.66081,-4.70378 6.97265,-5.14649 6.97265,-13.88998 0,-6.19791 -6.64062,-10.68033 -6.14258,-4.09506 -13.22591,-4.09506 z"
           style="font-style:normal;font-variant:normal;font-weight:normal;font-stretch:normal;font-size:113.33333588px;font-family:'Comic Sans MS';-inkscape-font-specification:'Comic Sans MS';fill:#000000;fill-opacity:0.49019608"
           id="path953"
           inkscape:connector-curvature="0" />
        <path
           d="m 153.88021,458.63527 q -0.0553,-2.32421 1.54948,-3.76302 1.66015,-1.49414 4.03971,-1.49414 2.71159,0 4.75912,3.09896 2.82226,4.20573 5.0358,5.69987 4.70378,3.09896 13.66862,3.09896 8.57748,0 15.9375,-3.70768 9.40756,-4.75912 9.40756,-13.22591 0,-6.97266 -7.91342,-11.01237 -6.69596,-3.48633 -16.54622,-3.76303 -8.74349,-0.33203 -14.88607,-3.81836 -7.85807,-4.48242 -7.85807,-12.83854 0,-9.85026 11.17838,-17.98502 10.68034,-7.69206 22.08008,-7.69206 5.36784,0 12.11914,1.82617 8.96485,2.37956 8.96485,6.08724 0,4.86979 -4.98047,4.86979 -2.21354,0 -7.7474,-1.16211 -5.53385,-1.21744 -8.57747,-1.16211 -8.63281,0.11068 -14.66471,4.26107 -6.19792,4.26107 -6.19792,10.34831 0,4.5931 8.1901,6.47461 3.04362,0.7194 11.78711,1.32812 12.67253,0.94076 19.8112,7.96875 6.52995,6.41927 6.52995,15.66081 0,13.17057 -12.17448,21.02865 -10.56966,6.80664 -24.51498,6.80664 -10.12695,0 -18.53841,-3.8737 -10.29297,-4.75911 -10.45898,-13.0599 z"
           style="font-style:normal;font-variant:normal;font-weight:normal;font-stretch:normal;font-size:113.33333588px;font-family:'Comic Sans MS';-inkscape-font-specification:'Comic Sans MS';fill:#000000;fill-opacity:0.49019608"
           id="path955"
           inkscape:connector-curvature="0" />
        <path
           d="m 284.58985,472.0272 q -8.57747,5.86589 -24.62565,5.86589 -4.03972,0 -9.24154,-1.27279 -6.25325,-1.49414 -9.40755,-3.8737 h -0.55339 q -2.37955,0 -3.98437,-1.66015 -1.60482,-1.66016 -1.60482,-4.03972 0,-5.81054 0.49805,-17.3763 0.55338,-11.62109 0.55338,-17.43164 0,-6.47461 -0.27669,-19.31315 -0.22135,-12.89388 -0.22135,-19.36849 0,-2.26888 2.32422,-4.75912 2.32421,-2.49023 4.64843,-2.49023 1.32813,0 8.85417,3.70768 8.52214,4.15039 9.85026,4.5931 15.71615,5.36784 26.78386,16.49089 13.00455,13.11523 13.00455,28.83138 0,9.46289 -4.48242,18.15104 -4.42708,8.68815 -12.11914,13.94531 z m -11.62109,-58.54818 q -5.64454,-3.70768 -26.06446,-12.72786 l 0.2767,15.9375 0.16601,15.88216 -0.88542,30.21485 q 0.38737,0.16601 1.16211,0.7194 4.8698,3.26497 12.28516,3.26497 12.61719,0 18.3724,-3.8737 5.36783,-3.65234 8.52213,-9.79492 3.20964,-6.19792 3.20964,-12.89388 0,-15.60547 -17.04427,-26.72852 z"
           style="font-style:normal;font-variant:normal;font-weight:normal;font-stretch:normal;font-size:113.33333588px;font-family:'Comic Sans MS';-inkscape-font-specification:'Comic Sans MS';fill:#000000;fill-opacity:0.49019608"
           id="path957"
           inkscape:connector-curvature="0" />
      </g>
      <g
         id="flowRoot938"
         style="font-style:normal;font-weight:normal;font-size:40px;line-height:1.25;font-family:sans-serif;letter-spacing:0px;word-spacing:0px;fill:#ffffff;fill-opacity:1;stroke:none"
         transform="translate(59.102864,509.46909)"
         aria-label="PSD">
        <path
           inkscape:connector-curvature="0"
           id="path946"
           style="font-style:normal;font-variant:normal;font-weight:normal;font-stretch:normal;font-size:113.33333588px;font-family:'Comic Sans MS';-inkscape-font-specification:'Comic Sans MS';fill:#ffffff"
           d="m 110.2181,439.93085 q -1.54948,0 -6.7513,-0.7194 -0.44271,8.35612 -0.44271,29.27408 0,2.21355 -1.4388,3.76303 -1.43881,1.49414 -3.597009,1.49414 -2.213541,0 -3.652343,-1.49414 -1.438802,-1.54948 -1.438802,-3.76303 V 452.216 q 0,-8.13476 0.996093,-22.91015 Q 95,413.31301 95.110677,406.39569 v -7.63672 q 0,-5.47851 0.664063,-7.96875 1.272786,-4.86979 5.42318,-4.20573 1.77083,-0.55338 5.0358,-0.83008 3.26498,-0.27669 8.02409,-0.27669 10.12696,0 18.98112,6.91732 9.73959,7.63672 9.73959,18.37239 0,13.72396 -10.40365,21.85873 -9.29687,7.30469 -22.35677,7.30469 z m 2.76693,-43.93881 q -2.4349,0 -4.37175,0.11068 -1.88151,0.11068 -3.20963,0.33203 l -0.11068,10.18229 -1.16211,22.02474 6.08724,0.71941 q 9.29687,0 15.66081,-4.70378 6.97265,-5.14649 6.97265,-13.88998 0,-6.19791 -6.64062,-10.68033 -6.14258,-4.09506 -13.22591,-4.09506 z" />
        <path
           inkscape:connector-curvature="0"
           id="path948"
           style="font-style:normal;font-variant:normal;font-weight:normal;font-stretch:normal;font-size:113.33333588px;font-family:'Comic Sans MS';-inkscape-font-specification:'Comic Sans MS';fill:#ffffff"
           d="m 153.88021,458.63527 q -0.0553,-2.32421 1.54948,-3.76302 1.66015,-1.49414 4.03971,-1.49414 2.71159,0 4.75912,3.09896 2.82226,4.20573 5.0358,5.69987 4.70378,3.09896 13.66862,3.09896 8.57748,0 15.9375,-3.70768 9.40756,-4.75912 9.40756,-13.22591 0,-6.97266 -7.91342,-11.01237 -6.69596,-3.48633 -16.54622,-3.76303 -8.74349,-0.33203 -14.88607,-3.81836 -7.85807,-4.48242 -7.85807,-12.83854 0,-9.85026 11.17838,-17.98502 10.68034,-7.69206 22.08008,-7.69206 5.36784,0 12.11914,1.82617 8.96485,2.37956 8.96485,6.08724 0,4.86979 -4.98047,4.86979 -2.21354,0 -7.7474,-1.16211 -5.53385,-1.21744 -8.57747,-1.16211 -8.63281,0.11068 -14.66471,4.26107 -6.19792,4.26107 -6.19792,10.34831 0,4.5931 8.1901,6.47461 3.04362,0.7194 11.78711,1.32812 12.67253,0.94076 19.8112,7.96875 6.52995,6.41927 6.52995,15.66081 0,13.17057 -12.17448,21.02865 -10.56966,6.80664 -24.51498,6.80664 -10.12695,0 -18.53841,-3.8737 -10.29297,-4.75911 -10.45898,-13.0599 z" />
        <path
           inkscape:connector-curvature="0"
           id="path950"
           style="font-style:normal;font-variant:normal;font-weight:normal;font-stretch:normal;font-size:113.33333588px;font-family:'Comic Sans MS';-inkscape-font-specification:'Comic Sans MS';fill:#ffffff"
           d="m 284.58985,472.0272 q -8.57747,5.86589 -24.62565,5.86589 -4.03972,0 -9.24154,-1.27279 -6.25325,-1.49414 -9.40755,-3.8737 h -0.55339 q -2.37955,0 -3.98437,-1.66015 -1.60482,-1.66016 -1.60482,-4.03972 0,-5.81054 0.49805,-17.3763 0.55338,-11.62109 0.55338,-17.43164 0,-6.47461 -0.27669,-19.31315 -0.22135,-12.89388 -0.22135,-19.36849 0,-2.26888 2.32422,-4.75912 2.32421,-2.49023 4.64843,-2.49023 1.32813,0 8.85417,3.70768 8.52214,4.15039 9.85026,4.5931 15.71615,5.36784 26.78386,16.49089 13.00455,13.11523 13.00455,28.83138 0,9.46289 -4.48242,18.15104 -4.42708,8.68815 -12.11914,13.94531 z m -11.62109,-58.54818 q -5.64454,-3.70768 -26.06446,-12.72786 l 0.2767,15.9375 0.16601,15.88216 -0.88542,30.21485 q 0.38737,0.16601 1.16211,0.7194 4.8698,3.26497 12.28516,3.26497 12.61719,0 18.3724,-3.8737 5.36783,-3.65234 8.52213,-9.79492 3.20964,-6.19792 3.20964,-12.89388 0,-15.60547 -17.04427,-26.72852 z" />
      </g>
    </g>
  </g>
</svg>
