<?xml version="1.0" encoding="UTF-8" standalone="no"?>
<!-- Created with Inkscape (http://www.inkscape.org/) -->

<svg
   xmlns:dc="http://purl.org/dc/elements/1.1/"
   xmlns:cc="http://creativecommons.org/ns#"
   xmlns:rdf="http://www.w3.org/1999/02/22-rdf-syntax-ns#"
   xmlns:svg="http://www.w3.org/2000/svg"
   xmlns="http://www.w3.org/2000/svg"
   xmlns:sodipodi="http://sodipodi.sourceforge.net/DTD/sodipodi-0.dtd"
   xmlns:inkscape="http://www.inkscape.org/namespaces/inkscape"
   width="512"
   height="512"
   id="svg2"
   version="1.1"
   inkscape:version="0.92.2 5c3e80d, 2017-08-06"
   sodipodi:docname="image-x-win-bitmap.svg">
  <defs
     id="defs4" />
  <sodipodi:namedview
     id="base"
     pagecolor="#ffffff"
     bordercolor="#666666"
     borderopacity="1.0"
     inkscape:pageopacity="0.0"
     inkscape:pageshadow="2"
     inkscape:zoom="0.4289781"
     inkscape:cx="333.7021"
     inkscape:cy="176.74744"
     inkscape:document-units="px"
     inkscape:current-layer="layer1"
     showgrid="false"
     inkscape:window-width="1366"
     inkscape:window-height="717"
     inkscape:window-x="0"
     inkscape:window-y="24"
     inkscape:window-maximized="1" />
  <metadata
     id="metadata7">
    <rdf:RDF>
      <cc:Work
         rdf:about="">
        <dc:format>image/svg+xml</dc:format>
        <dc:type
           rdf:resource="http://purl.org/dc/dcmitype/StillImage" />
        <dc:title></dc:title>
      </cc:Work>
    </rdf:RDF>
  </metadata>
  <g
     inkscape:label="Layer 1"
     inkscape:groupmode="layer"
     id="layer1"
     transform="translate(0,-540.36218)">
    <g
       id="g881">
      <path
         id="path943"
         d="m 432.91326,596.83614 c 102.19291,88.57459 105.82678,249.69971 8.1168,359.89879 C 343.32009,1066.934 181.27965,1084.4628 79.086738,995.8882 -23.106202,907.3136 -26.740032,746.18848 70.969938,635.9894 168.67991,525.79032 330.72036,508.26155 432.91326,596.83614 Z"
         inkscape:connector-curvature="0"
         style="fill:#3689e6;fill-opacity:1;stroke-width:11.10955811" />
      <path
         sodipodi:nodetypes="csscc"
         inkscape:connector-curvature="0"
         id="path945"
         d="m 8.3652364,882.36218 c 11.5841016,43.15173 35.1863116,82.72637 70.7207116,113.52542 102.192912,88.5746 264.233392,71.0467 361.943362,-39.15237 20.35102,-22.95224 36.28955,-48.11807 47.87304,-74.37305 z"
         style="fill:#0d52bf;fill-opacity:1;stroke:none;stroke-width:0.99999994px;stroke-linecap:butt;stroke-linejoin:miter;stroke-opacity:1" />
      <path
         id="path947"
         d="m 511.6355,765.26569 c -1.55139,61.31164 -25.16123,124.1546 -70.96638,175.81447 C 342.95915,1051.2793 180.9187,1068.808 78.725758,980.23346 30.827128,938.71781 4.4968164,881.28501 0.19382636,820.59098 0.79907636,886.94765 27.117408,950.84435 79.078688,995.8812 181.2716,1084.4558 343.31975,1066.9184 441.02201,956.72794 490.72696,900.66983 514.02703,831.43697 511.6355,765.26569 Z"
         inkscape:connector-curvature="0"
         style="opacity:0.1;stroke-width:11.10955811" />
      <path
         style="fill:#317ccf;fill-opacity:1;stroke-width:0.62217218"
         d="M 339.41641,658.54667 H 239.35846 139.30056 l -3.37455,1.71096 c -2.20987,1.12063 -4.0197,2.6418 -5.24473,4.4087 l -1.87013,2.69767 -0.16291,75.54045 -0.14824,68.77554 v 32.3566 14.02924 c 0,13.92364 0.0133,14.0517 1.61499,16.99555 1.84692,3.39341 4.33138,5.44596 7.97886,6.5923 2.03514,0.63981 27.57731,0.77547 128.83948,0.68179 l 126.30096,-0.11793 2.54703,-1.36337 c 3.29323,-1.76231 6.23498,-5.14075 7.05892,-8.10776 0.44299,-1.595 0.65374,-34.65987 0.65623,-102.91477 l 0.004,-100.56586 -1.73771,-3.32718 c -1.265,-2.42114 -2.56482,-3.83965 -4.77098,-5.20462 l -3.03329,-1.87623 -14.48497,-0.18722 -14.48492,-0.18722 z m -185.40733,25.50905 h 111.99101 111.991 v 86.48192 86.48197 h -111.991 -111.99101 v -86.48197 z m 55.10356,15.64666 c -0.6488,-0.01 -1.30477,0.007 -1.96613,0.0473 -8.17033,0.52432 -14.83942,5.1757 -18.53272,12.92587 -1.68934,3.54495 -1.9256,4.69686 -1.92,9.33259 0.007,4.38664 0.28449,5.8854 1.63321,8.78574 2.93426,6.30971 8.31247,10.96539 14.78994,12.80192 4.0769,1.15592 10.5666,0.58963 14.64413,-1.27713 10.2888,-4.71038 15.62088,-16.45201 12.26847,-27.01467 -2.98655,-9.41001 -11.18459,-15.44382 -20.9169,-15.60172 z m 94.80107,33.71881 c -0.71376,0.01 -1.41334,0.18322 -2.06094,0.52375 -0.85647,0.45013 -11.66826,14.11675 -24.02654,30.37101 -12.35832,16.25421 -23.01616,30.10753 -23.68386,30.78415 -1.80443,1.82846 -5.76531,1.66769 -7.66416,-0.31114 -0.81343,-0.84769 -5.6071,-7.00163 -10.65224,-13.67442 -5.04518,-6.6728 -9.72948,-12.62233 -10.41046,-13.22116 -1.89489,-1.66629 -5.11218,-1.39102 -7.27163,0.62219 -1.00943,0.94103 -12.39343,16.96975 -25.29762,35.61936 -12.90421,18.64957 -24.00006,34.6783 -24.65843,35.61939 l -1.19817,1.7109 h 98.96789 98.96788 v -15.58826 -15.58835 l -27.46546,-36.51859 c -15.10629,-20.08517 -28.16464,-37.27479 -29.01853,-38.1992 -1.31667,-1.42553 -2.95744,-2.17468 -4.52773,-2.14966 z"
         id="path843"
         inkscape:connector-curvature="0"
         sodipodi:nodetypes="cccccccccsccccccsccccccccccccccccccscsscscccsscsccsccccccccc" />
      <path
         sodipodi:nodetypes="cccccccccsccccccsccccccccccccccccccscsscscccsscsccsccccccccc"
         inkscape:connector-curvature="0"
         id="path838-3"
         d="M 329.41641,648.54667 H 229.35846 129.30056 l -3.37455,1.71096 c -2.20987,1.12063 -4.0197,2.6418 -5.24473,4.4087 l -1.87013,2.69767 -0.16291,75.54045 -0.14824,68.77554 v 32.3566 14.02924 c 0,13.92364 0.0133,14.0517 1.61499,16.99555 1.84692,3.39341 4.33138,5.44596 7.97886,6.5923 2.03514,0.63981 27.57731,0.77547 128.83948,0.68179 l 126.30096,-0.11793 2.54703,-1.36337 c 3.29323,-1.76231 6.23498,-5.14075 7.05892,-8.10776 0.44299,-1.595 0.65374,-34.65987 0.65623,-102.91477 l 0.004,-100.56586 -1.73771,-3.32718 c -1.265,-2.42114 -2.56482,-3.83965 -4.77098,-5.20462 l -3.03329,-1.87623 -14.48497,-0.18722 -14.48492,-0.18722 z m -185.40733,25.50905 h 111.99101 111.991 v 86.48192 86.48197 h -111.991 -111.99101 v -86.48197 z m 55.10356,15.64666 c -0.6488,-0.01 -1.30477,0.007 -1.96613,0.0473 -8.17033,0.52432 -14.83942,5.1757 -18.53272,12.92587 -1.68934,3.54495 -1.9256,4.69686 -1.92,9.33259 0.007,4.38664 0.28449,5.8854 1.63321,8.78574 2.93426,6.30971 8.31247,10.96539 14.78994,12.80192 4.0769,1.15592 10.5666,0.58963 14.64413,-1.27713 10.2888,-4.71038 15.62088,-16.45201 12.26847,-27.01467 -2.98655,-9.41001 -11.18459,-15.44382 -20.9169,-15.60172 z m 94.80107,33.71881 c -0.71376,0.01 -1.41334,0.18322 -2.06094,0.52375 -0.85647,0.45013 -11.66826,14.11675 -24.02654,30.37101 -12.35832,16.25421 -23.01616,30.10753 -23.68386,30.78415 -1.80443,1.82846 -5.76531,1.66769 -7.66416,-0.31114 -0.81343,-0.84769 -5.6071,-7.00163 -10.65224,-13.67442 -5.04518,-6.6728 -9.72948,-12.62233 -10.41046,-13.22116 -1.89489,-1.66629 -5.11218,-1.39102 -7.27163,0.62219 -1.00943,0.94103 -12.39343,16.96975 -25.29762,35.61936 -12.90421,18.64957 -24.00006,34.6783 -24.65843,35.61939 l -1.19817,1.7109 h 98.96789 98.96788 v -15.58826 -15.58835 l -27.46546,-36.51859 c -15.10629,-20.08517 -28.16464,-37.27479 -29.01853,-38.1992 -1.31667,-1.42553 -2.95744,-2.17468 -4.52773,-2.14966 z"
         style="fill:#ffffff;stroke-width:0.62217218" />
      <g
         aria-label="CUR"
         transform="translate(39.79492,558.76922)"
         style="font-style:normal;font-weight:normal;font-size:40px;line-height:1.25;font-family:sans-serif;letter-spacing:0px;word-spacing:0px;fill:#0c4aac;fill-opacity:1;stroke:none"
         id="g866">
        <path
           d="m 175.31836,374.28957 q -3.54167,0 -5.3125,-4.15039 -1.54948,-3.54167 -2.8776,-4.31641 -1.16211,-0.60872 -5.75521,-0.60872 -8.02409,0 -17.81901,12.28516 -13.28125,16.49088 -13.28125,31.26627 0,7.13867 4.5931,12.28516 4.70377,5.3125 11.3444,5.3125 5.69987,0 11.45508,-2.93294 3.20963,-1.66016 9.85026,-6.52995 3.15429,-2.32422 4.75911,-2.32422 2.37956,0 3.98438,1.82617 1.60481,1.77083 1.60481,3.98438 0,2.49023 -2.10286,4.37174 -14.60938,12.94922 -29.55078,12.94922 -11.45508,0 -19.36849,-8.79883 -7.63672,-8.52213 -7.63672,-20.14323 0,-18.75976 15.71614,-38.46028 13.11524,-16.43555 26.45183,-16.43555 2.71159,0 4.86979,0.27669 2.1582,0.22135 3.81836,0.77474 1.93685,-2.82227 5.03581,-2.82227 3.81836,0 4.81445,5.03581 0.88542,4.48242 0.88542,11.01237 0,2.26888 -1.21745,3.98438 -1.49414,2.1582 -4.26107,2.1582 z"
           style="font-style:normal;font-variant:normal;font-weight:normal;font-stretch:normal;font-size:113.33333588px;font-family:'Comic Sans MS';-inkscape-font-specification:'Comic Sans MS';fill:#0c4aac;fill-opacity:1"
           id="path860"
           inkscape:connector-curvature="0" />
        <path
           d="m 226.3405,438.59296 q -17.21029,0 -25.67709,-9.9056 -6.86198,-7.96875 -8.63281,-23.57422 -0.83008,-7.028 -0.83008,-28.05664 0,-7.7474 0.33203,-12.50651 0.33203,-5.03581 0.9961,-7.028 1.38346,-4.03971 4.98046,-4.03971 5.09115,0 5.09115,9.35221 v 32.48373 q 0,33.53515 23.46354,33.53515 22.08008,0 22.08008,-56.44531 0,-2.10286 0,-5.42318 -0.0553,-3.32031 -0.0553,-4.42708 0,-3.43099 1.21745,-6.0319 1.54948,-3.32031 4.5931,-3.32031 5.53385,0 5.53385,7.58138 0,2.26888 0.0553,6.86197 0,4.5931 0,6.86198 0,64.08204 -33.14778,64.08204 z"
           style="font-style:normal;font-variant:normal;font-weight:normal;font-stretch:normal;font-size:113.33333588px;font-family:'Comic Sans MS';-inkscape-font-specification:'Comic Sans MS';fill:#0c4aac;fill-opacity:1"
           id="path862"
           inkscape:connector-curvature="0" />
        <path
           d="m 328.38478,436.98814 q -2.10287,0 -3.92904,-1.77083 -18.31706,-18.09571 -40.72917,-24.34896 l 0.44271,10.84635 0.27669,10.90169 q 0,2.4349 -1.60481,4.03972 -1.54948,1.66015 -3.92904,1.66015 -2.37956,0 -3.98438,-1.66015 -1.54947,-1.60482 -1.54947,-4.03972 0,-4.37174 -0.44271,-13.00455 -0.38737,-8.68815 -0.38737,-13.0599 0,-5.09115 1.10677,-15.16276 1.10677,-10.07161 1.10677,-15.10742 0,-2.82227 -0.55339,-8.35612 -0.49804,-5.53386 -0.49804,-8.35612 0,-3.1543 1.77083,-5.53386 2.10286,-2.93294 5.81055,-2.65625 l 13.33659,1.05144 q 7.58138,0.94075 12.7832,3.70768 22.41211,11.89778 22.41211,29.05273 0,8.41146 -7.63672,14.88607 -6.14258,5.20182 -15.32878,7.91341 17.21029,9.24154 25.73243,19.47917 1.4388,1.77083 1.4388,3.76302 0,2.32422 -1.7155,4.03971 -1.66015,1.7155 -3.92903,1.7155 z m -35.25065,-73.15755 -8.19011,-0.66407 0.55339,6.69597 q 0.38737,4.09505 0.38737,6.69596 0,4.42708 -0.7194,11.01237 l -1.16211,11.01237 q 0.77474,0 2.37955,0.0553 1.66016,0.0553 2.49024,0.0553 14.11133,0 21.13932,-3.76302 3.09896,-1.7155 5.75521,-4.48243 2.93294,-3.09895 2.93294,-5.25716 0,-7.69205 -8.74349,-14.33268 -8.02409,-6.08724 -16.82291,-7.02799 z"
           style="font-style:normal;font-variant:normal;font-weight:normal;font-stretch:normal;font-size:113.33333588px;font-family:'Comic Sans MS';-inkscape-font-specification:'Comic Sans MS';fill:#0c4aac;fill-opacity:1"
           id="path864"
           inkscape:connector-curvature="0" />
      </g>
      <g
         id="flowRoot845"
         style="font-style:normal;font-weight:normal;font-size:40px;line-height:1.25;font-family:sans-serif;letter-spacing:0px;word-spacing:0px;fill:#ffffff;fill-opacity:1;stroke:none"
         transform="translate(29.79492,548.76922)"
         aria-label="CUR">
        <path
           inkscape:connector-curvature="0"
           id="path853"
           style="font-style:normal;font-variant:normal;font-weight:normal;font-stretch:normal;font-size:113.33333588px;font-family:'Comic Sans MS';-inkscape-font-specification:'Comic Sans MS';fill:#ffffff"
           d="m 175.31836,374.28957 q -3.54167,0 -5.3125,-4.15039 -1.54948,-3.54167 -2.8776,-4.31641 -1.16211,-0.60872 -5.75521,-0.60872 -8.02409,0 -17.81901,12.28516 -13.28125,16.49088 -13.28125,31.26627 0,7.13867 4.5931,12.28516 4.70377,5.3125 11.3444,5.3125 5.69987,0 11.45508,-2.93294 3.20963,-1.66016 9.85026,-6.52995 3.15429,-2.32422 4.75911,-2.32422 2.37956,0 3.98438,1.82617 1.60481,1.77083 1.60481,3.98438 0,2.49023 -2.10286,4.37174 -14.60938,12.94922 -29.55078,12.94922 -11.45508,0 -19.36849,-8.79883 -7.63672,-8.52213 -7.63672,-20.14323 0,-18.75976 15.71614,-38.46028 13.11524,-16.43555 26.45183,-16.43555 2.71159,0 4.86979,0.27669 2.1582,0.22135 3.81836,0.77474 1.93685,-2.82227 5.03581,-2.82227 3.81836,0 4.81445,5.03581 0.88542,4.48242 0.88542,11.01237 0,2.26888 -1.21745,3.98438 -1.49414,2.1582 -4.26107,2.1582 z" />
        <path
           inkscape:connector-curvature="0"
           id="path855"
           style="font-style:normal;font-variant:normal;font-weight:normal;font-stretch:normal;font-size:113.33333588px;font-family:'Comic Sans MS';-inkscape-font-specification:'Comic Sans MS';fill:#ffffff"
           d="m 226.3405,438.59296 q -17.21029,0 -25.67709,-9.9056 -6.86198,-7.96875 -8.63281,-23.57422 -0.83008,-7.028 -0.83008,-28.05664 0,-7.7474 0.33203,-12.50651 0.33203,-5.03581 0.9961,-7.028 1.38346,-4.03971 4.98046,-4.03971 5.09115,0 5.09115,9.35221 v 32.48373 q 0,33.53515 23.46354,33.53515 22.08008,0 22.08008,-56.44531 0,-2.10286 0,-5.42318 -0.0553,-3.32031 -0.0553,-4.42708 0,-3.43099 1.21745,-6.0319 1.54948,-3.32031 4.5931,-3.32031 5.53385,0 5.53385,7.58138 0,2.26888 0.0553,6.86197 0,4.5931 0,6.86198 0,64.08204 -33.14778,64.08204 z" />
        <path
           inkscape:connector-curvature="0"
           id="path857"
           style="font-style:normal;font-variant:normal;font-weight:normal;font-stretch:normal;font-size:113.33333588px;font-family:'Comic Sans MS';-inkscape-font-specification:'Comic Sans MS';fill:#ffffff"
           d="m 328.38478,436.98814 q -2.10287,0 -3.92904,-1.77083 -18.31706,-18.09571 -40.72917,-24.34896 l 0.44271,10.84635 0.27669,10.90169 q 0,2.4349 -1.60481,4.03972 -1.54948,1.66015 -3.92904,1.66015 -2.37956,0 -3.98438,-1.66015 -1.54947,-1.60482 -1.54947,-4.03972 0,-4.37174 -0.44271,-13.00455 -0.38737,-8.68815 -0.38737,-13.0599 0,-5.09115 1.10677,-15.16276 1.10677,-10.07161 1.10677,-15.10742 0,-2.82227 -0.55339,-8.35612 -0.49804,-5.53386 -0.49804,-8.35612 0,-3.1543 1.77083,-5.53386 2.10286,-2.93294 5.81055,-2.65625 l 13.33659,1.05144 q 7.58138,0.94075 12.7832,3.70768 22.41211,11.89778 22.41211,29.05273 0,8.41146 -7.63672,14.88607 -6.14258,5.20182 -15.32878,7.91341 17.21029,9.24154 25.73243,19.47917 1.4388,1.77083 1.4388,3.76302 0,2.32422 -1.7155,4.03971 -1.66015,1.7155 -3.92903,1.7155 z m -35.25065,-73.15755 -8.19011,-0.66407 0.55339,6.69597 q 0.38737,4.09505 0.38737,6.69596 0,4.42708 -0.7194,11.01237 l -1.16211,11.01237 q 0.77474,0 2.37955,0.0553 1.66016,0.0553 2.49024,0.0553 14.11133,0 21.13932,-3.76302 3.09896,-1.7155 5.75521,-4.48243 2.93294,-3.09895 2.93294,-5.25716 0,-7.69205 -8.74349,-14.33268 -8.02409,-6.08724 -16.82291,-7.02799 z" />
      </g>
    </g>
  </g>
</svg>
