<?xml version="1.0" encoding="UTF-8" standalone="no"?>
<!-- Created with Inkscape (http://www.inkscape.org/) -->

<svg
   xmlns:dc="http://purl.org/dc/elements/1.1/"
   xmlns:cc="http://creativecommons.org/ns#"
   xmlns:rdf="http://www.w3.org/1999/02/22-rdf-syntax-ns#"
   xmlns:svg="http://www.w3.org/2000/svg"
   xmlns="http://www.w3.org/2000/svg"
   xmlns:sodipodi="http://sodipodi.sourceforge.net/DTD/sodipodi-0.dtd"
   xmlns:inkscape="http://www.inkscape.org/namespaces/inkscape"
   width="512"
   height="512"
   id="svg2"
   version="1.1"
   inkscape:version="0.92.2 5c3e80d, 2017-08-06"
   sodipodi:docname="image-x-tag.svg">
  <defs
     id="defs4" />
  <sodipodi:namedview
     id="base"
     pagecolor="#ffffff"
     bordercolor="#666666"
     borderopacity="1.0"
     inkscape:pageopacity="0.0"
     inkscape:pageshadow="2"
     inkscape:zoom="0.4289781"
     inkscape:cx="493.10269"
     inkscape:cy="190.88514"
     inkscape:document-units="px"
     inkscape:current-layer="layer1"
     showgrid="false"
     inkscape:window-width="1366"
     inkscape:window-height="717"
     inkscape:window-x="0"
     inkscape:window-y="24"
     inkscape:window-maximized="1" />
  <metadata
     id="metadata7">
    <rdf:RDF>
      <cc:Work
         rdf:about="">
        <dc:format>image/svg+xml</dc:format>
        <dc:type
           rdf:resource="http://purl.org/dc/dcmitype/StillImage" />
        <dc:title></dc:title>
      </cc:Work>
    </rdf:RDF>
  </metadata>
  <g
     inkscape:label="Layer 1"
     inkscape:groupmode="layer"
     id="layer1"
     transform="translate(0,-540.36218)">
    <g
       transform="translate(-4.1235322e-7,2.7262593e-6)"
       id="g871">
      <path
         id="path943"
         d="m 432.91326,596.83614 c 102.19291,88.57459 105.82678,249.69971 8.1168,359.89879 C 343.32009,1066.934 181.27965,1084.4628 79.086738,995.8882 -23.106202,907.3136 -26.740032,746.18848 70.969938,635.9894 168.67991,525.79032 330.72036,508.26155 432.91326,596.83614 Z"
         inkscape:connector-curvature="0"
         style="fill:#3689e6;fill-opacity:1;stroke-width:11.10955811" />
      <path
         sodipodi:nodetypes="csscc"
         inkscape:connector-curvature="0"
         id="path945"
         d="m 8.3652368,882.36218 c 11.5841012,43.15173 35.1863112,82.72637 70.7207112,113.52542 102.192912,88.5746 264.233392,71.0467 361.943362,-39.15237 20.35102,-22.95224 36.28955,-48.11807 47.87304,-74.37305 z"
         style="fill:#0d52bf;fill-opacity:1;stroke:none;stroke-width:0.99999994px;stroke-linecap:butt;stroke-linejoin:miter;stroke-opacity:1" />
      <path
         id="path947"
         d="m 511.6355,765.26569 c -1.55139,61.31164 -25.16123,124.1546 -70.96638,175.81447 C 342.95915,1051.2793 180.9187,1068.808 78.725758,980.23346 30.827128,938.71781 4.4968168,881.28501 0.19382677,820.59098 0.79907677,886.94765 27.117408,950.84435 79.078688,995.8812 181.2716,1084.4558 343.31975,1066.9184 441.02201,956.72794 490.72696,900.66983 514.02703,831.43697 511.6355,765.26569 Z"
         inkscape:connector-curvature="0"
         style="opacity:0.1;stroke-width:11.10955811" />
      <path
         style="fill:#317ccf;fill-opacity:1;stroke-width:0.62217218"
         d="M 339.41641,658.54667 H 239.35846 139.30056 l -3.37455,1.71096 c -2.20987,1.12063 -4.0197,2.6418 -5.24473,4.4087 l -1.87013,2.69767 -0.16291,75.54045 -0.14824,68.77554 v 32.3566 14.02924 c 0,13.92364 0.0133,14.0517 1.61499,16.99555 1.84692,3.39341 4.33138,5.44596 7.97886,6.5923 2.03514,0.63981 27.57731,0.77547 128.83948,0.68179 l 126.30096,-0.11793 2.54703,-1.36337 c 3.29323,-1.76231 6.23498,-5.14075 7.05892,-8.10776 0.44299,-1.595 0.65374,-34.65987 0.65623,-102.91477 l 0.004,-100.56586 -1.73771,-3.32718 c -1.265,-2.42114 -2.56482,-3.83965 -4.77098,-5.20462 l -3.03329,-1.87623 -14.48497,-0.18722 -14.48492,-0.18722 z m -185.40733,25.50905 h 111.99101 111.991 v 86.48192 86.48197 h -111.991 -111.99101 v -86.48197 z m 55.10356,15.64666 c -0.6488,-0.01 -1.30477,0.007 -1.96613,0.0473 -8.17033,0.52432 -14.83942,5.1757 -18.53272,12.92587 -1.68934,3.54495 -1.9256,4.69686 -1.92,9.33259 0.007,4.38664 0.28449,5.8854 1.63321,8.78574 2.93426,6.30971 8.31247,10.96539 14.78994,12.80192 4.0769,1.15592 10.5666,0.58963 14.64413,-1.27713 10.2888,-4.71038 15.62088,-16.45201 12.26847,-27.01467 -2.98655,-9.41001 -11.18459,-15.44382 -20.9169,-15.60172 z m 94.80107,33.71881 c -0.71376,0.01 -1.41334,0.18322 -2.06094,0.52375 -0.85647,0.45013 -11.66826,14.11675 -24.02654,30.37101 -12.35832,16.25421 -23.01616,30.10753 -23.68386,30.78415 -1.80443,1.82846 -5.76531,1.66769 -7.66416,-0.31114 -0.81343,-0.84769 -5.6071,-7.00163 -10.65224,-13.67442 -5.04518,-6.6728 -9.72948,-12.62233 -10.41046,-13.22116 -1.89489,-1.66629 -5.11218,-1.39102 -7.27163,0.62219 -1.00943,0.94103 -12.39343,16.96975 -25.29762,35.61936 -12.90421,18.64957 -24.00006,34.6783 -24.65843,35.61939 l -1.19817,1.7109 h 98.96789 98.96788 v -15.58826 -15.58835 l -27.46546,-36.51859 c -15.10629,-20.08517 -28.16464,-37.27479 -29.01853,-38.1992 -1.31667,-1.42553 -2.95744,-2.17468 -4.52773,-2.14966 z"
         id="path843"
         inkscape:connector-curvature="0"
         sodipodi:nodetypes="cccccccccsccccccsccccccccccccccccccscsscscccsscsccsccccccccc" />
      <path
         sodipodi:nodetypes="cccccccccsccccccsccccccccccccccccccscsscscccsscsccsccccccccc"
         inkscape:connector-curvature="0"
         id="path838-3"
         d="M 329.41641,648.54667 H 229.35846 129.30056 l -3.37455,1.71096 c -2.20987,1.12063 -4.0197,2.6418 -5.24473,4.4087 l -1.87013,2.69767 -0.16291,75.54045 -0.14824,68.77554 v 32.3566 14.02924 c 0,13.92364 0.0133,14.0517 1.61499,16.99555 1.84692,3.39341 4.33138,5.44596 7.97886,6.5923 2.03514,0.63981 27.57731,0.77547 128.83948,0.68179 l 126.30096,-0.11793 2.54703,-1.36337 c 3.29323,-1.76231 6.23498,-5.14075 7.05892,-8.10776 0.44299,-1.595 0.65374,-34.65987 0.65623,-102.91477 l 0.004,-100.56586 -1.73771,-3.32718 c -1.265,-2.42114 -2.56482,-3.83965 -4.77098,-5.20462 l -3.03329,-1.87623 -14.48497,-0.18722 -14.48492,-0.18722 z m -185.40733,25.50905 h 111.99101 111.991 v 86.48192 86.48197 h -111.991 -111.99101 v -86.48197 z m 55.10356,15.64666 c -0.6488,-0.01 -1.30477,0.007 -1.96613,0.0473 -8.17033,0.52432 -14.83942,5.1757 -18.53272,12.92587 -1.68934,3.54495 -1.9256,4.69686 -1.92,9.33259 0.007,4.38664 0.28449,5.8854 1.63321,8.78574 2.93426,6.30971 8.31247,10.96539 14.78994,12.80192 4.0769,1.15592 10.5666,0.58963 14.64413,-1.27713 10.2888,-4.71038 15.62088,-16.45201 12.26847,-27.01467 -2.98655,-9.41001 -11.18459,-15.44382 -20.9169,-15.60172 z m 94.80107,33.71881 c -0.71376,0.01 -1.41334,0.18322 -2.06094,0.52375 -0.85647,0.45013 -11.66826,14.11675 -24.02654,30.37101 -12.35832,16.25421 -23.01616,30.10753 -23.68386,30.78415 -1.80443,1.82846 -5.76531,1.66769 -7.66416,-0.31114 -0.81343,-0.84769 -5.6071,-7.00163 -10.65224,-13.67442 -5.04518,-6.6728 -9.72948,-12.62233 -10.41046,-13.22116 -1.89489,-1.66629 -5.11218,-1.39102 -7.27163,0.62219 -1.00943,0.94103 -12.39343,16.96975 -25.29762,35.61936 -12.90421,18.64957 -24.00006,34.6783 -24.65843,35.61939 l -1.19817,1.7109 h 98.96789 98.96788 v -15.58826 -15.58835 l -27.46546,-36.51859 c -15.10629,-20.08517 -28.16464,-37.27479 -29.01853,-38.1992 -1.31667,-1.42553 -2.95744,-2.17468 -4.52773,-2.14966 z"
         style="fill:#ffffff;stroke-width:0.62217218" />
    </g>
  </g>
</svg>
