<?xml version="1.0" encoding="UTF-8" standalone="no"?>
<!-- Created with Inkscape (http://www.inkscape.org/) -->

<svg
   xmlns:dc="http://purl.org/dc/elements/1.1/"
   xmlns:cc="http://creativecommons.org/ns#"
   xmlns:rdf="http://www.w3.org/1999/02/22-rdf-syntax-ns#"
   xmlns:svg="http://www.w3.org/2000/svg"
   xmlns="http://www.w3.org/2000/svg"
   xmlns:sodipodi="http://sodipodi.sourceforge.net/DTD/sodipodi-0.dtd"
   xmlns:inkscape="http://www.inkscape.org/namespaces/inkscape"
   width="512"
   height="512"
   id="svg2"
   version="1.1"
   inkscape:version="0.92.2 5c3e80d, 2017-08-06"
   sodipodi:docname="image-x-svg+xml.svg">
  <defs
     id="defs4" />
  <sodipodi:namedview
     id="base"
     pagecolor="#ffffff"
     bordercolor="#666666"
     borderopacity="1.0"
     inkscape:pageopacity="0.0"
     inkscape:pageshadow="2"
     inkscape:zoom="0.60666665"
     inkscape:cx="363.46373"
     inkscape:cy="280.15144"
     inkscape:document-units="px"
     inkscape:current-layer="layer1"
     showgrid="false"
     inkscape:window-width="1366"
     inkscape:window-height="717"
     inkscape:window-x="0"
     inkscape:window-y="24"
     inkscape:window-maximized="1" />
  <metadata
     id="metadata7">
    <rdf:RDF>
      <cc:Work
         rdf:about="">
        <dc:format>image/svg+xml</dc:format>
        <dc:type
           rdf:resource="http://purl.org/dc/dcmitype/StillImage" />
        <dc:title></dc:title>
      </cc:Work>
    </rdf:RDF>
  </metadata>
  <g
     inkscape:label="Layer 1"
     inkscape:groupmode="layer"
     id="layer1"
     transform="translate(0,-540.36218)">
    <g
       transform="translate(2.2431086e-7,1.1466302e-6)"
       id="g933">
      <path
         id="path931"
         d="m 432.91326,596.83616 c 102.19291,88.57459 105.82678,249.69971 8.1168,359.89879 C 343.32009,1066.934 181.27965,1084.4628 79.086741,995.8882 -23.106209,907.31362 -26.740029,746.1885 70.969941,635.98942 168.67991,525.79034 330.72036,508.26157 432.91326,596.83616 Z"
         inkscape:connector-curvature="0"
         style="fill:#f37329;fill-opacity:1;stroke-width:11.10955811" />
      <path
         sodipodi:nodetypes="csscc"
         inkscape:connector-curvature="0"
         id="path933"
         d="m 8.3652414,882.3622 c 11.5840996,43.15173 35.1863096,82.72637 70.7207056,113.5254 102.192913,88.5746 264.233393,71.0467 361.943363,-39.15235 20.35102,-22.95224 36.28955,-48.11807 47.87304,-74.37305 z"
         style="fill:#cc3b02;fill-opacity:1;stroke:none;stroke-width:0.99999994px;stroke-linecap:butt;stroke-linejoin:miter;stroke-opacity:1" />
      <path
         id="path935"
         d="m 511.6355,765.26571 c -1.55139,61.31164 -25.16123,124.1546 -70.96638,175.81447 C 342.95915,1051.2793 180.9187,1068.808 78.725758,980.23348 30.827121,938.71783 4.4968214,881.28503 0.19383144,820.591 0.79908144,886.94767 27.117401,950.84437 79.07869,995.8813 c 102.19291,88.5745 264.24106,71.0371 361.94332,-39.15334 49.70495,-56.05811 73.00502,-125.29097 70.61349,-191.46225 z"
         inkscape:connector-curvature="0"
         style="opacity:0.1;stroke-width:11.10955811" />
      <path
         style="fill:#db6825;fill-opacity:1;stroke-width:1.22305369"
         d="m 162.40495,880.52269 c -1.05707,-1.05707 -1.92194,-2.54206 -1.92194,-3.29998 0,-0.75791 2.71064,-6.14547 6.02364,-11.97237 5.67711,-9.98489 5.95762,-10.88821 4.87593,-15.70239 -1.55864,-6.93706 0.45744,-18.71994 5.50015,-32.14512 l 4.05195,-10.78753 h -15.17364 c -14.47955,0 -15.31097,-0.13733 -18.17569,-3.00205 -4.74555,-4.74555 -3.85241,-14.72581 1.55044,-17.32508 1.19588,-0.57532 11.74264,-1.32806 23.43724,-1.67271 l 21.26292,-0.62666 8.09037,-14.09274 c 4.4497,-7.75101 10.73865,-18.65422 13.97545,-24.22935 l 5.88507,-10.1366 4.77274,4.31186 c 2.62499,2.37154 7.68195,5.7733 11.23767,7.5595 3.55571,1.7862 6.6265,3.38884 6.82397,3.56143 0.19746,0.1726 -3.555,7.03862 -8.33881,15.25781 -4.7838,8.2192 -8.99447,15.71701 -9.35702,16.66181 -0.54683,1.42503 2.28161,1.71781 16.59442,1.71781 h 17.2536 v -4.80486 c 0,-4.86875 2.40544,-8.64873 5.50375,-8.64873 3.0983,0 5.50374,3.77998 5.50374,8.64873 v 4.80486 h 17.2536 c 14.31282,0 17.14125,-0.29278 16.59442,-1.71781 -0.36255,-0.9448 -4.57322,-8.44261 -9.35702,-16.66181 -4.7838,-8.21919 -8.53627,-15.08521 -8.33881,-15.25781 0.19746,-0.17259 3.26826,-1.77523 6.82398,-3.56143 3.55571,-1.7862 8.61266,-5.18796 11.23767,-7.5595 l 4.77273,-4.31186 5.88508,10.1366 c 3.23678,5.57513 9.52574,16.47834 13.97545,24.22935 l 8.09036,14.09274 21.26292,0.62666 c 11.69461,0.34465 22.24137,1.09739 23.43724,1.67271 2.90752,1.39879 4.55248,4.70107 4.55248,9.1392 0,9.28742 -3.80436,11.18793 -22.39564,11.18793 h -13.95573 l 4.1031,10.92368 c 4.80712,12.79798 6.92473,25.53908 5.37803,32.35805 -0.99417,4.38298 -0.59867,5.59976 5.04818,15.53144 6.39,11.23868 6.88857,14.93342 2.21532,16.41665 -1.29738,0.41178 -3.2074,0.27382 -4.2445,-0.30658 -1.03709,-0.58039 -11.3952,-17.53796 -23.018,-37.68348 l -21.13237,-36.62824 -24.09425,-0.33161 -24.09424,-0.33162 v 4.83071 c 0,4.89461 -2.39828,8.67459 -5.50374,8.67459 -3.10547,0 -5.50375,-3.77998 -5.50375,-8.67459 v -4.83071 l -24.09424,0.33162 -24.09425,0.33161 -21.10986,36.58922 c -11.61043,20.12408 -21.81982,37.03965 -22.68755,37.59018 -2.37502,1.5068 -4.25206,1.24696 -6.38256,-0.88353 z M 255.9366,744.1266 c -14.70555,-2.88267 -28.14834,-13.47838 -35.19877,-27.74396 -4.4587,-9.02155 -4.60464,-9.73176 -4.56706,-22.22485 0.049,-16.30659 2.77374,-23.92439 12.19823,-34.10395 20.15536,-21.7702 51.46613,-23.06703 72.89877,-3.01932 11.44605,10.70644 16.39721,23.54174 15.52097,40.2362 -1.61859,30.83834 -30.21923,52.86069 -60.85214,46.85588 z m 24.27387,-21.83476 c 5.523,-2.81763 13.18402,-11.03846 15.53882,-16.67427 2.45804,-5.88293 2.14289,-18.41422 -0.61591,-24.48895 -5.28335,-11.63372 -15.71665,-18.22213 -28.85622,-18.22213 -13.13957,0 -23.57287,6.58841 -28.85623,18.22213 -3.14358,6.92203 -3.09913,19.1694 0.0934,25.76449 7.72458,15.95685 27.57135,23.11478 42.69604,15.39873 z m -25.55233,-96.20022 c 0,-9.67706 1.86015,-14.79909 6.18714,-17.03665 4.38443,-2.26729 6.4939,-2.25974 10.93941,0.0391 4.18373,2.16349 6.0945,7.71374 6.10465,17.73231 l 0.007,6.7268 h -11.61896 -11.61901 v -7.46158 z"
         id="path870"
         inkscape:connector-curvature="0" />
      <path
         inkscape:connector-curvature="0"
         id="path878"
         d="m 152.40495,870.52269 c -1.05707,-1.05707 -1.92194,-2.54206 -1.92194,-3.29998 0,-0.75791 2.71064,-6.14547 6.02364,-11.97237 5.67711,-9.98489 5.95762,-10.88821 4.87593,-15.70239 -1.55864,-6.93706 0.45744,-18.71994 5.50015,-32.14512 l 4.05195,-10.78753 h -15.17364 c -14.47955,0 -15.31097,-0.13733 -18.17569,-3.00205 -4.74555,-4.74555 -3.85241,-14.72581 1.55044,-17.32508 1.19588,-0.57532 11.74264,-1.32806 23.43724,-1.67271 l 21.26292,-0.62666 8.09037,-14.09274 c 4.4497,-7.75101 10.73865,-18.65422 13.97545,-24.22935 l 5.88507,-10.1366 4.77274,4.31186 c 2.62499,2.37154 7.68195,5.7733 11.23767,7.5595 3.55571,1.7862 6.6265,3.38884 6.82397,3.56143 0.19746,0.1726 -3.555,7.03862 -8.33881,15.25781 -4.7838,8.2192 -8.99447,15.71701 -9.35702,16.66181 -0.54683,1.42503 2.28161,1.71781 16.59442,1.71781 h 17.2536 v -4.80486 c 0,-4.86875 2.40544,-8.64873 5.50375,-8.64873 3.0983,0 5.50374,3.77998 5.50374,8.64873 v 4.80486 h 17.2536 c 14.31282,0 17.14125,-0.29278 16.59442,-1.71781 -0.36255,-0.9448 -4.57322,-8.44261 -9.35702,-16.66181 -4.7838,-8.21919 -8.53627,-15.08521 -8.33881,-15.25781 0.19746,-0.17259 3.26826,-1.77523 6.82398,-3.56143 3.55571,-1.7862 8.61266,-5.18796 11.23767,-7.5595 l 4.77273,-4.31186 5.88508,10.1366 c 3.23678,5.57513 9.52574,16.47834 13.97545,24.22935 l 8.09036,14.09274 21.26292,0.62666 c 11.69461,0.34465 22.24137,1.09739 23.43724,1.67271 2.90752,1.39879 4.55248,4.70107 4.55248,9.1392 0,9.28742 -3.80436,11.18793 -22.39564,11.18793 h -13.95573 l 4.1031,10.92368 c 4.80712,12.79798 6.92473,25.53908 5.37803,32.35805 -0.99417,4.38298 -0.59867,5.59976 5.04818,15.53144 6.39,11.23868 6.88857,14.93342 2.21532,16.41665 -1.29738,0.41178 -3.2074,0.27382 -4.2445,-0.30658 -1.03709,-0.58039 -11.3952,-17.53796 -23.018,-37.68348 l -21.13237,-36.62824 -24.09425,-0.33161 -24.09424,-0.33162 v 4.83071 c 0,4.89461 -2.39828,8.67459 -5.50374,8.67459 -3.10547,0 -5.50375,-3.77998 -5.50375,-8.67459 v -4.83071 l -24.09424,0.33162 -24.09425,0.33161 -21.10986,36.58922 c -11.61043,20.12408 -21.81982,37.03965 -22.68755,37.59018 -2.37502,1.5068 -4.25206,1.24696 -6.38256,-0.88353 z M 245.9366,734.1266 c -14.70555,-2.88267 -28.14834,-13.47838 -35.19877,-27.74396 -4.4587,-9.02155 -4.60464,-9.73176 -4.56706,-22.22485 0.049,-16.30659 2.77374,-23.92439 12.19823,-34.10395 20.15536,-21.7702 51.46613,-23.06703 72.89877,-3.01932 11.44605,10.70644 16.39721,23.54174 15.52097,40.2362 -1.61859,30.83834 -30.21923,52.86069 -60.85214,46.85588 z m 24.27387,-21.83476 c 5.523,-2.81763 13.18402,-11.03846 15.53882,-16.67427 2.45804,-5.88293 2.14289,-18.41422 -0.61591,-24.48895 -5.28335,-11.63372 -15.71665,-18.22213 -28.85622,-18.22213 -13.13957,0 -23.57287,6.58841 -28.85623,18.22213 -3.14358,6.92203 -3.09913,19.1694 0.0934,25.76449 7.72458,15.95685 27.57135,23.11478 42.69604,15.39873 z m -25.55233,-96.20022 c 0,-9.67706 1.86015,-14.79909 6.18714,-17.03665 4.38443,-2.26729 6.4939,-2.25974 10.93941,0.0391 4.18373,2.16349 6.0945,7.71374 6.10465,17.73231 l 0.007,6.7268 h -11.61896 -11.61901 v -7.46158 z"
         style="fill:#ffffff;stroke-width:1.22305369" />
      <g
         aria-label="SVG"
         transform="translate(10.625542,532.05959)"
         style="font-style:normal;font-weight:normal;font-size:40px;line-height:1.25;font-family:sans-serif;letter-spacing:0px;word-spacing:0px;fill:#b83502;fill-opacity:1;stroke:none"
         id="g918">
        <path
           d="m 145.8763,447.09621 q -0.0553,-2.32422 1.54948,-3.76302 1.66016,-1.49414 4.03972,-1.49414 2.71158,0 4.75911,3.09896 2.82227,4.20573 5.03581,5.69987 4.70377,3.09896 13.66862,3.09896 8.57747,0 15.9375,-3.70769 9.40755,-4.75911 9.40755,-13.22591 0,-6.97265 -7.91341,-11.01237 -6.69597,-3.48633 -16.54623,-3.76302 -8.74349,-0.33203 -14.88606,-3.81836 -7.85808,-4.48242 -7.85808,-12.83854 0,-9.85026 11.17839,-17.98503 10.68034,-7.69205 22.08008,-7.69205 5.36784,0 12.11914,1.82617 8.96484,2.37956 8.96484,6.08724 0,4.86979 -4.98047,4.86979 -2.21354,0 -7.74739,-1.16211 -5.53386,-1.21745 -8.57748,-1.16211 -8.63281,0.11068 -14.66471,4.26107 -6.19792,4.26107 -6.19792,10.34831 0,4.5931 8.19011,6.47461 3.04362,0.7194 11.78711,1.32812 12.67252,0.94076 19.81119,7.96875 6.52995,6.41927 6.52995,15.66081 0,13.17057 -12.17448,21.02865 -10.56966,6.80664 -24.51497,6.80664 -10.12695,0 -18.53841,-3.8737 -10.29297,-4.75912 -10.45899,-13.0599 z"
           style="font-style:normal;font-variant:normal;font-weight:normal;font-stretch:normal;font-size:113.33333588px;font-family:'Comic Sans MS';-inkscape-font-specification:'Comic Sans MS';fill:#b83502;fill-opacity:1"
           id="path912"
           inkscape:connector-curvature="0" />
        <path
           d="m 289.31381,385.00637 q -3.43099,5.14648 -5.58919,10.79101 l -4.20573,12.11914 -14.88607,40.23112 q -2.60091,7.08334 -6.08724,13.83464 -1.77083,3.32031 -4.98047,3.32031 -4.26107,0 -5.97656,-4.3164 -6.69597,-16.82292 -14.88607,-48.42123 l -4.37175,-15.2181 q -3.26497,-11.51042 -3.26497,-15.05208 0,-2.49024 1.77083,-4.09505 1.60482,-1.49414 3.8737,-1.49414 4.20573,0 5.42318,4.53776 l 2.04753,9.6289 5.3125,18.81511 q 5.3125,20.58593 10.3483,35.472 l 0.33203,-0.88541 14.83073,-40.17579 4.70378,-13.55794 q 3.1543,-8.1901 6.69596,-12.39583 1.82618,-2.21354 4.31641,-2.21354 2.21354,0 3.92904,1.71549 1.77083,1.66016 1.77083,4.03971 0,1.66016 -1.10677,3.32032 z"
           style="font-style:normal;font-variant:normal;font-weight:normal;font-stretch:normal;font-size:113.33333588px;font-family:'Comic Sans MS';-inkscape-font-specification:'Comic Sans MS';fill:#b83502;fill-opacity:1"
           id="path914"
           inkscape:connector-curvature="0" />
        <path
           d="m 362.69272,427.39569 q -3.43099,16.98893 -14.44336,27.17123 -10.95704,10.12695 -25.89844,10.12695 -13.61328,0 -20.41993,-7.58138 -6.80664,-7.63672 -6.80664,-22.85482 0,-14.33268 6.75131,-29.49544 6.80664,-15.2181 17.43164,-24.57032 7.08333,-6.25325 14.99674,-6.25325 5.03581,0 13.28125,3.32031 10.07162,3.98438 10.07162,8.79883 0,2.26888 -1.66016,4.03971 -1.66015,1.77084 -3.98437,1.77084 -1.21745,0 -3.43099,-1.38347 -8.4668,-5.14648 -14.27735,-5.14648 -4.15039,0 -8.68815,4.3164 -2.26888,2.15821 -6.52995,7.85808 -12.7832,16.93359 -12.7832,36.74479 0,10.40365 3.20964,14.55404 3.48632,4.53776 12.83854,4.53776 9.9056,0 17.21028,-6.25326 7.69206,-6.64062 10.73568,-18.98112 -15.32877,0.77474 -26.28581,5.92123 -1.27278,0.60872 -2.49023,0.60872 -2.4349,0 -4.03971,-1.88151 -1.49415,-1.7155 -1.49415,-3.98438 0,-3.04362 2.93295,-4.86979 11.95312,-7.30469 41.22721,-7.30469 2.37956,0 3.98438,1.60482 1.60481,1.60482 1.60481,4.03972 0,3.597 -3.04361,5.14648 z"
           style="font-style:normal;font-variant:normal;font-weight:normal;font-stretch:normal;font-size:113.33333588px;font-family:'Comic Sans MS';-inkscape-font-specification:'Comic Sans MS';fill:#b83502;fill-opacity:1"
           id="path916"
           inkscape:connector-curvature="0" />
      </g>
      <g
         id="flowRoot897"
         style="font-style:normal;font-weight:normal;font-size:40px;line-height:1.25;font-family:sans-serif;letter-spacing:0px;word-spacing:0px;fill:#ffffff;fill-opacity:1;stroke:none"
         transform="translate(0.62554213,522.05959)"
         aria-label="SVG">
        <path
           inkscape:connector-curvature="0"
           id="path905"
           style="font-style:normal;font-variant:normal;font-weight:normal;font-stretch:normal;font-size:113.33333588px;font-family:'Comic Sans MS';-inkscape-font-specification:'Comic Sans MS';fill:#ffffff"
           d="m 145.8763,447.09621 q -0.0553,-2.32422 1.54948,-3.76302 1.66016,-1.49414 4.03972,-1.49414 2.71158,0 4.75911,3.09896 2.82227,4.20573 5.03581,5.69987 4.70377,3.09896 13.66862,3.09896 8.57747,0 15.9375,-3.70769 9.40755,-4.75911 9.40755,-13.22591 0,-6.97265 -7.91341,-11.01237 -6.69597,-3.48633 -16.54623,-3.76302 -8.74349,-0.33203 -14.88606,-3.81836 -7.85808,-4.48242 -7.85808,-12.83854 0,-9.85026 11.17839,-17.98503 10.68034,-7.69205 22.08008,-7.69205 5.36784,0 12.11914,1.82617 8.96484,2.37956 8.96484,6.08724 0,4.86979 -4.98047,4.86979 -2.21354,0 -7.74739,-1.16211 -5.53386,-1.21745 -8.57748,-1.16211 -8.63281,0.11068 -14.66471,4.26107 -6.19792,4.26107 -6.19792,10.34831 0,4.5931 8.19011,6.47461 3.04362,0.7194 11.78711,1.32812 12.67252,0.94076 19.81119,7.96875 6.52995,6.41927 6.52995,15.66081 0,13.17057 -12.17448,21.02865 -10.56966,6.80664 -24.51497,6.80664 -10.12695,0 -18.53841,-3.8737 -10.29297,-4.75912 -10.45899,-13.0599 z" />
        <path
           inkscape:connector-curvature="0"
           id="path907"
           style="font-style:normal;font-variant:normal;font-weight:normal;font-stretch:normal;font-size:113.33333588px;font-family:'Comic Sans MS';-inkscape-font-specification:'Comic Sans MS';fill:#ffffff"
           d="m 289.31381,385.00637 q -3.43099,5.14648 -5.58919,10.79101 l -4.20573,12.11914 -14.88607,40.23112 q -2.60091,7.08334 -6.08724,13.83464 -1.77083,3.32031 -4.98047,3.32031 -4.26107,0 -5.97656,-4.3164 -6.69597,-16.82292 -14.88607,-48.42123 l -4.37175,-15.2181 q -3.26497,-11.51042 -3.26497,-15.05208 0,-2.49024 1.77083,-4.09505 1.60482,-1.49414 3.8737,-1.49414 4.20573,0 5.42318,4.53776 l 2.04753,9.6289 5.3125,18.81511 q 5.3125,20.58593 10.3483,35.472 l 0.33203,-0.88541 14.83073,-40.17579 4.70378,-13.55794 q 3.1543,-8.1901 6.69596,-12.39583 1.82618,-2.21354 4.31641,-2.21354 2.21354,0 3.92904,1.71549 1.77083,1.66016 1.77083,4.03971 0,1.66016 -1.10677,3.32032 z" />
        <path
           inkscape:connector-curvature="0"
           id="path909"
           style="font-style:normal;font-variant:normal;font-weight:normal;font-stretch:normal;font-size:113.33333588px;font-family:'Comic Sans MS';-inkscape-font-specification:'Comic Sans MS';fill:#ffffff"
           d="m 362.69272,427.39569 q -3.43099,16.98893 -14.44336,27.17123 -10.95704,10.12695 -25.89844,10.12695 -13.61328,0 -20.41993,-7.58138 -6.80664,-7.63672 -6.80664,-22.85482 0,-14.33268 6.75131,-29.49544 6.80664,-15.2181 17.43164,-24.57032 7.08333,-6.25325 14.99674,-6.25325 5.03581,0 13.28125,3.32031 10.07162,3.98438 10.07162,8.79883 0,2.26888 -1.66016,4.03971 -1.66015,1.77084 -3.98437,1.77084 -1.21745,0 -3.43099,-1.38347 -8.4668,-5.14648 -14.27735,-5.14648 -4.15039,0 -8.68815,4.3164 -2.26888,2.15821 -6.52995,7.85808 -12.7832,16.93359 -12.7832,36.74479 0,10.40365 3.20964,14.55404 3.48632,4.53776 12.83854,4.53776 9.9056,0 17.21028,-6.25326 7.69206,-6.64062 10.73568,-18.98112 -15.32877,0.77474 -26.28581,5.92123 -1.27278,0.60872 -2.49023,0.60872 -2.4349,0 -4.03971,-1.88151 -1.49415,-1.7155 -1.49415,-3.98438 0,-3.04362 2.93295,-4.86979 11.95312,-7.30469 41.22721,-7.30469 2.37956,0 3.98438,1.60482 1.60481,1.60482 1.60481,4.03972 0,3.597 -3.04361,5.14648 z" />
      </g>
    </g>
  </g>
</svg>
