<?xml version="1.0" encoding="UTF-8" standalone="no"?>
<!-- Created with Inkscape (http://www.inkscape.org/) -->

<svg
   xmlns:dc="http://purl.org/dc/elements/1.1/"
   xmlns:cc="http://creativecommons.org/ns#"
   xmlns:rdf="http://www.w3.org/1999/02/22-rdf-syntax-ns#"
   xmlns:svg="http://www.w3.org/2000/svg"
   xmlns="http://www.w3.org/2000/svg"
   xmlns:sodipodi="http://sodipodi.sourceforge.net/DTD/sodipodi-0.dtd"
   xmlns:inkscape="http://www.inkscape.org/namespaces/inkscape"
   width="512"
   height="512"
   id="svg2"
   version="1.1"
   inkscape:version="0.92.2 5c3e80d, 2017-08-06"
   sodipodi:docname="image-svg+xml-compressed.svg">
  <defs
     id="defs4" />
  <sodipodi:namedview
     id="base"
     pagecolor="#ffffff"
     bordercolor="#666666"
     borderopacity="1.0"
     inkscape:pageopacity="0.0"
     inkscape:pageshadow="2"
     inkscape:zoom="0.30333333"
     inkscape:cx="-99.591734"
     inkscape:cy="238.94755"
     inkscape:document-units="px"
     inkscape:current-layer="layer1"
     showgrid="false"
     inkscape:window-width="1366"
     inkscape:window-height="717"
     inkscape:window-x="0"
     inkscape:window-y="24"
     inkscape:window-maximized="1" />
  <metadata
     id="metadata7">
    <rdf:RDF>
      <cc:Work
         rdf:about="">
        <dc:format>image/svg+xml</dc:format>
        <dc:type
           rdf:resource="http://purl.org/dc/dcmitype/StillImage" />
        <dc:title />
      </cc:Work>
    </rdf:RDF>
  </metadata>
  <g
     inkscape:label="Layer 1"
     inkscape:groupmode="layer"
     id="layer1"
     transform="translate(0,-540.36218)">
    <g
       id="g864">
      <path
         id="path931"
         d="m 432.91326,596.83616 c 102.19291,88.57459 105.82678,249.69971 8.1168,359.89879 C 343.32009,1066.934 181.27965,1084.4628 79.086741,995.8882 -23.106209,907.31362 -26.740029,746.1885 70.969941,635.98942 168.67991,525.79034 330.72036,508.26157 432.91326,596.83616 Z"
         inkscape:connector-curvature="0"
         style="fill:#f37329;fill-opacity:1;stroke-width:11.10955811" />
      <path
         sodipodi:nodetypes="csscc"
         inkscape:connector-curvature="0"
         id="path933"
         d="m 8.3652414,882.3622 c 11.5840996,43.15173 35.1863096,82.72637 70.7207056,113.5254 102.192913,88.5746 264.233393,71.0467 361.943363,-39.15235 20.35102,-22.95224 36.28955,-48.11807 47.87304,-74.37305 z"
         style="fill:#cc3b02;fill-opacity:1;stroke:none;stroke-width:0.99999994px;stroke-linecap:butt;stroke-linejoin:miter;stroke-opacity:1" />
      <path
         id="path935"
         d="m 511.6355,765.26571 c -1.55139,61.31164 -25.16123,124.1546 -70.96638,175.81447 C 342.95915,1051.2793 180.9187,1068.808 78.725758,980.23348 30.827121,938.71783 4.4968214,881.28503 0.19383144,820.591 0.79908144,886.94767 27.117401,950.84437 79.07869,995.8813 c 102.19291,88.5745 264.24106,71.0371 361.94332,-39.15334 49.70495,-56.05811 73.00502,-125.29097 70.61349,-191.46225 z"
         inkscape:connector-curvature="0"
         style="opacity:1;stroke-width:11.10955811;fill:#000000;fill-opacity:0.49019608" />
      <path
         style="fill:#000000;fill-opacity:0.49019608;stroke-width:1.22305369"
         d="m 172.40495,890.52269 c -1.05707,-1.05707 -1.92194,-2.54206 -1.92194,-3.29998 0,-0.75791 2.71064,-6.14547 6.02364,-11.97237 5.67711,-9.98489 5.95762,-10.88821 4.87593,-15.70239 -1.55864,-6.93706 0.45744,-18.71994 5.50015,-32.14512 l 4.05195,-10.78753 h -15.17364 c -14.47955,0 -15.31097,-0.13733 -18.17569,-3.00205 -4.74555,-4.74555 -3.85241,-14.72581 1.55044,-17.32508 1.19588,-0.57532 11.74264,-1.32806 23.43724,-1.67271 l 21.26292,-0.62666 8.09037,-14.09274 c 4.4497,-7.75101 10.73865,-18.65422 13.97545,-24.22935 l 5.88507,-10.1366 4.77274,4.31186 c 2.62499,2.37154 7.68195,5.7733 11.23767,7.5595 3.55571,1.7862 6.6265,3.38884 6.82397,3.56143 0.19746,0.1726 -3.555,7.03862 -8.33881,15.25781 -4.7838,8.2192 -8.99447,15.71701 -9.35702,16.66181 -0.54683,1.42503 2.28161,1.71781 16.59442,1.71781 h 17.2536 v -4.80486 c 0,-4.86875 2.40544,-8.64873 5.50375,-8.64873 3.0983,0 5.50374,3.77998 5.50374,8.64873 v 4.80486 h 17.2536 c 14.31282,0 17.14125,-0.29278 16.59442,-1.71781 -0.36255,-0.9448 -4.57322,-8.44261 -9.35702,-16.66181 -4.7838,-8.21919 -8.53627,-15.08521 -8.33881,-15.25781 0.19746,-0.17259 3.26826,-1.77523 6.82398,-3.56143 3.55571,-1.7862 8.61266,-5.18796 11.23767,-7.5595 l 4.77273,-4.31186 5.88508,10.1366 c 3.23678,5.57513 9.52574,16.47834 13.97545,24.22935 l 8.09036,14.09274 21.26292,0.62666 c 11.69461,0.34465 22.24137,1.09739 23.43724,1.67271 2.90752,1.39879 4.55248,4.70107 4.55248,9.1392 0,9.28742 -3.80436,11.18793 -22.39564,11.18793 h -13.95573 l 4.1031,10.92368 c 4.80712,12.79798 6.92473,25.53908 5.37803,32.35805 -0.99417,4.38298 -0.59867,5.59976 5.04818,15.53144 6.39,11.23868 6.88857,14.93342 2.21532,16.41665 -1.29738,0.41178 -3.2074,0.27382 -4.2445,-0.30658 -1.03709,-0.58039 -11.3952,-17.53796 -23.018,-37.68348 l -21.13237,-36.62824 -24.09425,-0.33161 -24.09424,-0.33162 v 4.83071 c 0,4.89461 -2.39828,8.67459 -5.50374,8.67459 -3.10547,0 -5.50375,-3.77998 -5.50375,-8.67459 v -4.83071 l -24.09424,0.33162 -24.09425,0.33161 -21.10986,36.58922 c -11.61043,20.12408 -21.81982,37.03965 -22.68755,37.59018 -2.37502,1.5068 -4.25206,1.24696 -6.38256,-0.88353 z M 265.9366,754.1266 c -14.70555,-2.88267 -28.14834,-13.47838 -35.19877,-27.74396 -4.4587,-9.02155 -4.60464,-9.73176 -4.56706,-22.22485 0.049,-16.30659 2.77374,-23.92439 12.19823,-34.10395 20.15536,-21.7702 51.46613,-23.06703 72.89877,-3.01932 11.44605,10.70644 16.39721,23.54174 15.52097,40.2362 -1.61859,30.83834 -30.21923,52.86069 -60.85214,46.85588 z m 24.27387,-21.83476 c 5.523,-2.81763 13.18402,-11.03846 15.53882,-16.67427 2.45804,-5.88293 2.14289,-18.41422 -0.61591,-24.48895 -5.28335,-11.63372 -15.71665,-18.22213 -28.85622,-18.22213 -13.13957,0 -23.57287,6.58841 -28.85623,18.22213 -3.14358,6.92203 -3.09913,19.1694 0.0934,25.76449 7.72458,15.95685 27.57135,23.11478 42.69604,15.39873 z m -25.55233,-96.20022 c 0,-9.67706 1.86015,-14.79909 6.18714,-17.03665 4.38443,-2.26729 6.4939,-2.25974 10.93941,0.0391 4.18373,2.16349 6.0945,7.71374 6.10465,17.73231 l 0.007,6.7268 h -11.61896 -11.61901 v -7.46158 z"
         id="path870"
         inkscape:connector-curvature="0" />
      <path
         inkscape:connector-curvature="0"
         id="path878"
         d="m 152.40495,870.52269 c -1.05707,-1.05707 -1.92194,-2.54206 -1.92194,-3.29998 0,-0.75791 2.71064,-6.14547 6.02364,-11.97237 5.67711,-9.98489 5.95762,-10.88821 4.87593,-15.70239 -1.55864,-6.93706 0.45744,-18.71994 5.50015,-32.14512 l 4.05195,-10.78753 h -15.17364 c -14.47955,0 -15.31097,-0.13733 -18.17569,-3.00205 -4.74555,-4.74555 -3.85241,-14.72581 1.55044,-17.32508 1.19588,-0.57532 11.74264,-1.32806 23.43724,-1.67271 l 21.26292,-0.62666 8.09037,-14.09274 c 4.4497,-7.75101 10.73865,-18.65422 13.97545,-24.22935 l 5.88507,-10.1366 4.77274,4.31186 c 2.62499,2.37154 7.68195,5.7733 11.23767,7.5595 3.55571,1.7862 6.6265,3.38884 6.82397,3.56143 0.19746,0.1726 -3.555,7.03862 -8.33881,15.25781 -4.7838,8.2192 -8.99447,15.71701 -9.35702,16.66181 -0.54683,1.42503 2.28161,1.71781 16.59442,1.71781 h 17.2536 v -4.80486 c 0,-4.86875 2.40544,-8.64873 5.50375,-8.64873 3.0983,0 5.50374,3.77998 5.50374,8.64873 v 4.80486 h 17.2536 c 14.31282,0 17.14125,-0.29278 16.59442,-1.71781 -0.36255,-0.9448 -4.57322,-8.44261 -9.35702,-16.66181 -4.7838,-8.21919 -8.53627,-15.08521 -8.33881,-15.25781 0.19746,-0.17259 3.26826,-1.77523 6.82398,-3.56143 3.55571,-1.7862 8.61266,-5.18796 11.23767,-7.5595 l 4.77273,-4.31186 5.88508,10.1366 c 3.23678,5.57513 9.52574,16.47834 13.97545,24.22935 l 8.09036,14.09274 21.26292,0.62666 c 11.69461,0.34465 22.24137,1.09739 23.43724,1.67271 2.90752,1.39879 4.55248,4.70107 4.55248,9.1392 0,9.28742 -3.80436,11.18793 -22.39564,11.18793 h -13.95573 l 4.1031,10.92368 c 4.80712,12.79798 6.92473,25.53908 5.37803,32.35805 -0.99417,4.38298 -0.59867,5.59976 5.04818,15.53144 6.39,11.23868 6.88857,14.93342 2.21532,16.41665 -1.29738,0.41178 -3.2074,0.27382 -4.2445,-0.30658 -1.03709,-0.58039 -11.3952,-17.53796 -23.018,-37.68348 l -21.13237,-36.62824 -24.09425,-0.33161 -24.09424,-0.33162 v 4.83071 c 0,4.89461 -2.39828,8.67459 -5.50374,8.67459 -3.10547,0 -5.50375,-3.77998 -5.50375,-8.67459 v -4.83071 l -24.09424,0.33162 -24.09425,0.33161 -21.10986,36.58922 c -11.61043,20.12408 -21.81982,37.03965 -22.68755,37.59018 -2.37502,1.5068 -4.25206,1.24696 -6.38256,-0.88353 z M 245.9366,734.1266 c -14.70555,-2.88267 -28.14834,-13.47838 -35.19877,-27.74396 -4.4587,-9.02155 -4.60464,-9.73176 -4.56706,-22.22485 0.049,-16.30659 2.77374,-23.92439 12.19823,-34.10395 20.15536,-21.7702 51.46613,-23.06703 72.89877,-3.01932 11.44605,10.70644 16.39721,23.54174 15.52097,40.2362 -1.61859,30.83834 -30.21923,52.86069 -60.85214,46.85588 z m 24.27387,-21.83476 c 5.523,-2.81763 13.18402,-11.03846 15.53882,-16.67427 2.45804,-5.88293 2.14289,-18.41422 -0.61591,-24.48895 -5.28335,-11.63372 -15.71665,-18.22213 -28.85622,-18.22213 -13.13957,0 -23.57287,6.58841 -28.85623,18.22213 -3.14358,6.92203 -3.09913,19.1694 0.0934,25.76449 7.72458,15.95685 27.57135,23.11478 42.69604,15.39873 z m -25.55233,-96.20022 c 0,-9.67706 1.86015,-14.79909 6.18714,-17.03665 4.38443,-2.26729 6.4939,-2.25974 10.93941,0.0391 4.18373,2.16349 6.0945,7.71374 6.10465,17.73231 l 0.007,6.7268 h -11.61896 -11.61901 v -7.46158 z"
         style="fill:#ffffff;stroke-width:1.22305369" />
      <path
         inkscape:connector-curvature="0"
         id="path912"
         style="font-style:normal;font-variant:normal;font-weight:normal;font-stretch:normal;font-size:113.33333588px;line-height:1.25;font-family:'Comic Sans MS';-inkscape-font-specification:'Comic Sans MS';letter-spacing:0px;word-spacing:0px;fill:#000000;fill-opacity:0.49019608;stroke:none"
         d="m 113.00184,989.1558 q -0.0553,-2.32422 1.54947,-3.76302 1.66016,-1.49415 4.03972,-1.49415 2.71159,0 4.75911,3.09896 2.82227,4.20573 5.03581,5.69987 4.70378,3.09896 13.66862,3.09896 8.57747,0 15.9375,-3.70768 9.40755,-4.75912 9.40755,-13.22591 0,-6.97266 -7.91341,-11.01237 -6.69596,-3.48633 -16.54622,-3.76302 -8.74349,-0.33203 -14.88607,-3.81836 -7.85807,-4.48243 -7.85807,-12.83855 0,-9.85026 11.17838,-17.98502 10.68034,-7.69206 22.08008,-7.69206 5.36784,0 12.11914,1.82617 8.96485,2.37956 8.96485,6.08724 0,4.86979 -4.98047,4.86979 -2.21355,0 -7.7474,-1.16211 -5.53385,-1.21744 -8.57747,-1.1621 -8.63282,0.11067 -14.66472,4.26106 -6.19791,4.26107 -6.19791,10.34831 0,4.5931 8.1901,6.47461 3.04362,0.7194 11.78711,1.32813 12.67253,0.94075 19.8112,7.96875 6.52995,6.41927 6.52995,15.6608 0,13.17058 -12.17448,21.02865 -10.56967,6.80665 -24.51498,6.80665 -10.12695,0 -18.53841,-3.8737 -10.29297,-4.75912 -10.45898,-13.0599 z" />
      <path
         inkscape:connector-curvature="0"
         id="path914"
         style="font-style:normal;font-variant:normal;font-weight:normal;font-stretch:normal;font-size:113.33333588px;line-height:1.25;font-family:'Comic Sans MS';-inkscape-font-specification:'Comic Sans MS';letter-spacing:0px;word-spacing:0px;fill:#000000;fill-opacity:0.49019608;stroke:none"
         d="m 256.43934,927.06595 q -3.43099,5.14649 -5.58919,10.79102 l -4.20573,12.11914 -14.88607,40.23112 q -2.60091,7.08333 -6.08724,13.83467 -1.77083,3.3203 -4.98047,3.3203 -4.26106,0 -5.97656,-4.3164 -6.69596,-16.82295 -14.88607,-48.42125 l -4.37174,-15.2181 q -3.26498,-11.51042 -3.26498,-15.05209 0,-2.49023 1.77084,-4.09505 1.60481,-1.49414 3.87369,-1.49414 4.20573,0 5.42318,4.53776 l 2.04753,9.62891 5.3125,18.8151 q 5.3125,20.58594 10.34831,35.47201 l 0.33203,-0.88542 14.83073,-40.17578 4.70377,-13.55794 q 3.1543,-8.19011 6.69597,-12.39584 1.82617,-2.21354 4.3164,-2.21354 2.21354,0 3.92904,1.71549 1.77083,1.66016 1.77083,4.03972 0,1.66015 -1.10677,3.32031 z" />
      <path
         inkscape:connector-curvature="0"
         id="path916"
         style="font-style:normal;font-variant:normal;font-weight:normal;font-stretch:normal;font-size:113.33333588px;line-height:1.25;font-family:'Comic Sans MS';-inkscape-font-specification:'Comic Sans MS';letter-spacing:0px;word-spacing:0px;fill:#000000;fill-opacity:0.49019608;stroke:none"
         d="m 329.81825,969.45527 q -3.43099,16.98894 -14.44336,27.17123 -10.95703,10.1269 -25.89844,10.1269 -13.61328,0 -20.41992,-7.58133 -6.80664,-7.63672 -6.80664,-22.85482 0,-14.33268 6.7513,-29.49544 6.80664,-15.2181 17.43164,-24.57031 7.08333,-6.25326 14.99675,-6.25326 5.0358,0 13.28125,3.32032 10.07161,3.98437 10.07161,8.79882 0,2.26888 -1.66016,4.03972 -1.66015,1.77083 -3.98437,1.77083 -1.21745,0 -3.43099,-1.38346 -8.4668,-5.14649 -14.27734,-5.14649 -4.1504,0 -8.68816,4.31641 -2.26888,2.1582 -6.52994,7.85807 -12.78321,16.9336 -12.78321,36.74479 0,10.40365 3.20964,14.55404 3.48633,4.53776 12.83854,4.53776 9.9056,0 17.21029,-6.25325 7.69205,-6.64063 10.73567,-18.98112 -15.32877,0.77474 -26.2858,5.92122 -1.27279,0.60872 -2.49024,0.60872 -2.43489,0 -4.03971,-1.88151 -1.49414,-1.71549 -1.49414,-3.98437 0,-3.04362 2.93294,-4.86979 11.95313,-7.30469 41.22722,-7.30469 2.37955,0 3.98437,1.60482 1.60482,1.60481 1.60482,4.03971 0,3.59701 -3.04362,5.14648 z" />
      <path
         id="path918"
         transform="translate(0,540.36218)"
         d="M 348.85547 379.06641 C 346.05165 379.06641 344.03972 379.3253 342.82227 379.8418 C 340.83008 380.65343 339.83398 382.31359 339.83398 384.82227 C 339.83398 388.62218 341.79058 390.52148 345.70117 390.52148 C 346.07009 390.52148 346.64128 390.50366 347.41602 390.4668 C 348.22765 390.39301 348.83637 390.35547 349.24219 390.35547 L 371.59961 390.35547 L 390.9668 389.25 C 383.88346 395.26346 376.22895 403.7105 368.00195 414.59375 L 348.02539 442.375 L 342.10352 450.61914 C 339.81619 454.30837 338.67188 457.37172 338.67188 459.80664 C 338.67187 463.53277 340.79448 465.39453 345.03711 465.39453 C 350.64474 465.39453 359.0562 465.24826 370.27148 464.95312 C 376.39024 464.81268 381.50542 464.71837 385.95508 464.6543 C 390.89456 461.32812 395.7517 457.82151 400.52539 454.15234 C 399.0641 454.09086 397.4867 454.05078 395.67188 454.05078 C 390.69141 454.05078 383.4974 454.27214 374.08984 454.71484 L 352.5625 455.54492 C 353.44791 454.36437 354.35112 453.07379 355.27344 451.67188 L 374.69727 423.39258 C 383.18251 411.95594 390.78364 403.63737 397.49805 398.43555 L 404.96875 393.34375 C 409.24826 390.171 411.38672 387.36849 411.38672 384.93359 C 411.38672 381.35503 406.64736 379.56445 397.16602 379.56445 C 394.28842 379.56445 390.0076 379.75022 384.32617 380.11914 C 378.68164 380.48807 374.44032 380.67188 371.59961 380.67188 C 369.05404 380.67188 365.25347 380.41298 360.19922 379.89648 C 355.18185 379.3431 351.40104 379.06641 348.85547 379.06641 z "
         style="font-style:normal;font-variant:normal;font-weight:normal;font-stretch:normal;font-size:113.33333588px;line-height:1.25;font-family:'Comic Sans MS';-inkscape-font-specification:'Comic Sans MS';letter-spacing:0px;word-spacing:0px;fill:#000000;fill-opacity:0.49019608;stroke:none" />
      <g
         id="flowRoot895"
         style="font-style:normal;font-weight:normal;font-size:40px;line-height:1.25;font-family:sans-serif;letter-spacing:0px;word-spacing:0px;fill:#ffffff;fill-opacity:1;stroke:none"
         transform="translate(-19.313918,520.56935)"
         aria-label="SVGZ">
        <path
           inkscape:connector-curvature="0"
           id="path903"
           style="font-style:normal;font-variant:normal;font-weight:normal;font-stretch:normal;font-size:113.33333588px;font-family:'Comic Sans MS';-inkscape-font-specification:'Comic Sans MS';fill:#ffffff"
           d="m 112.31576,448.58645 q -0.0553,-2.32422 1.54947,-3.76302 1.66016,-1.49415 4.03972,-1.49415 2.71159,0 4.75911,3.09896 2.82227,4.20573 5.03581,5.69987 4.70378,3.09896 13.66862,3.09896 8.57747,0 15.9375,-3.70768 9.40755,-4.75912 9.40755,-13.22591 0,-6.97266 -7.91341,-11.01237 -6.69596,-3.48633 -16.54622,-3.76302 -8.74349,-0.33203 -14.88607,-3.81836 -7.85807,-4.48243 -7.85807,-12.83855 0,-9.85026 11.17838,-17.98502 10.68034,-7.69206 22.08008,-7.69206 5.36784,0 12.11914,1.82617 8.96485,2.37956 8.96485,6.08724 0,4.86979 -4.98047,4.86979 -2.21355,0 -7.7474,-1.16211 -5.53385,-1.21744 -8.57747,-1.1621 -8.63282,0.11067 -14.66472,4.26106 -6.19791,4.26107 -6.19791,10.34831 0,4.5931 8.1901,6.47461 3.04362,0.7194 11.78711,1.32813 12.67253,0.94075 19.8112,7.96875 6.52995,6.41927 6.52995,15.6608 0,13.17058 -12.17448,21.02865 -10.56967,6.80664 -24.51498,6.80664 -10.12695,0 -18.53841,-3.8737 -10.29297,-4.75911 -10.45898,-13.05989 z" />
        <path
           inkscape:connector-curvature="0"
           id="path905"
           style="font-style:normal;font-variant:normal;font-weight:normal;font-stretch:normal;font-size:113.33333588px;font-family:'Comic Sans MS';-inkscape-font-specification:'Comic Sans MS';fill:#ffffff"
           d="m 255.75326,386.4966 q -3.43099,5.14649 -5.58919,10.79102 l -4.20573,12.11914 -14.88607,40.23112 q -2.60091,7.08333 -6.08724,13.83463 -1.77083,3.32032 -4.98047,3.32032 -4.26106,0 -5.97656,-4.31641 -6.69596,-16.82292 -14.88607,-48.42122 l -4.37174,-15.2181 q -3.26498,-11.51042 -3.26498,-15.05209 0,-2.49023 1.77084,-4.09505 1.60481,-1.49414 3.87369,-1.49414 4.20573,0 5.42318,4.53776 l 2.04753,9.62891 5.3125,18.8151 q 5.3125,20.58594 10.34831,35.47201 l 0.33203,-0.88542 14.83073,-40.17578 4.70377,-13.55794 q 3.1543,-8.19011 6.69597,-12.39584 1.82617,-2.21354 4.3164,-2.21354 2.21354,0 3.92904,1.71549 1.77083,1.66016 1.77083,4.03972 0,1.66015 -1.10677,3.32031 z" />
        <path
           inkscape:connector-curvature="0"
           id="path907"
           style="font-style:normal;font-variant:normal;font-weight:normal;font-stretch:normal;font-size:113.33333588px;font-family:'Comic Sans MS';-inkscape-font-specification:'Comic Sans MS';fill:#ffffff"
           d="m 329.13217,428.88592 q -3.43099,16.98894 -14.44336,27.17123 -10.95703,10.12695 -25.89844,10.12695 -13.61328,0 -20.41992,-7.58138 -6.80664,-7.63672 -6.80664,-22.85482 0,-14.33268 6.7513,-29.49544 6.80664,-15.2181 17.43164,-24.57031 7.08333,-6.25326 14.99675,-6.25326 5.0358,0 13.28125,3.32032 10.07161,3.98437 10.07161,8.79882 0,2.26888 -1.66016,4.03972 -1.66015,1.77083 -3.98437,1.77083 -1.21745,0 -3.43099,-1.38346 -8.4668,-5.14649 -14.27734,-5.14649 -4.1504,0 -8.68816,4.31641 -2.26888,2.1582 -6.52994,7.85807 -12.78321,16.9336 -12.78321,36.74479 0,10.40365 3.20964,14.55404 3.48633,4.53776 12.83854,4.53776 9.9056,0 17.21029,-6.25325 7.69205,-6.64063 10.73567,-18.98112 -15.32877,0.77474 -26.2858,5.92122 -1.27279,0.60872 -2.49024,0.60872 -2.43489,0 -4.03971,-1.88151 -1.49414,-1.71549 -1.49414,-3.98437 0,-3.04362 2.93294,-4.86979 11.95313,-7.30469 41.22722,-7.30469 2.37955,0 3.98437,1.60482 1.60482,1.60481 1.60482,4.03971 0,3.59701 -3.04362,5.14648 z" />
        <path
           inkscape:connector-curvature="0"
           id="path909"
           style="font-style:normal;font-variant:normal;font-weight:normal;font-stretch:normal;font-size:113.33333588px;font-family:'Comic Sans MS';-inkscape-font-specification:'Comic Sans MS';fill:#ffffff"
           d="m 404.28191,393.13723 -7.47071,5.09114 q -10.07161,7.80274 -22.79948,24.95769 l -19.42382,28.27799 q -1.38347,2.10287 -2.71159,3.8737 l 21.52669,-0.83008 q 14.11133,-0.66406 21.58203,-0.66406 7.30469,0 10.79102,0.66406 4.48242,0.88542 4.64844,4.53776 0.11067,2.71159 -1.77084,4.31641 -1.66015,1.38346 -4.15039,1.38346 -1.60482,0 -4.81445,-0.22135 -3.20964,-0.16602 -4.81445,-0.16602 -8.41146,0 -25.28972,0.38737 -16.82292,0.44271 -25.23437,0.44271 -6.36394,0 -6.36394,-5.58919 0,-3.65235 3.43099,-9.1862 l 5.92123,-8.24544 19.97721,-27.77995 q 12.3405,-16.32487 22.9655,-25.34506 l -19.36849,1.10677 h -22.35678 q -0.60872,0 -1.82617,0.11068 -1.16211,0.0553 -1.71549,0.0553 -5.86589,0 -5.86589,-5.69987 0,-3.76302 2.98828,-4.98047 1.82618,-0.77474 6.03191,-0.77474 3.81835,0 11.3444,0.83008 7.58138,0.77474 11.39974,0.77474 4.26106,0 12.72786,-0.55339 8.52214,-0.55338 12.83854,-0.55338 14.22201,0 14.22201,5.36784 0,3.65234 -6.41927,8.41146 z" />
      </g>
    </g>
  </g>
</svg>
