<?xml version="1.0" encoding="UTF-8" standalone="no"?>
<!-- Created with Inkscape (http://www.inkscape.org/) -->

<svg
   xmlns:dc="http://purl.org/dc/elements/1.1/"
   xmlns:cc="http://creativecommons.org/ns#"
   xmlns:rdf="http://www.w3.org/1999/02/22-rdf-syntax-ns#"
   xmlns:svg="http://www.w3.org/2000/svg"
   xmlns="http://www.w3.org/2000/svg"
   xmlns:sodipodi="http://sodipodi.sourceforge.net/DTD/sodipodi-0.dtd"
   xmlns:inkscape="http://www.inkscape.org/namespaces/inkscape"
   width="512"
   height="512"
   id="svg2"
   version="1.1"
   inkscape:version="0.92.2 5c3e80d, 2017-08-06"
   sodipodi:docname="libreoffice-oasis-drawing-template.svg">
  <defs
     id="defs4" />
  <sodipodi:namedview
     id="base"
     pagecolor="#ffffff"
     bordercolor="#666666"
     borderopacity="1.0"
     inkscape:pageopacity="0.0"
     inkscape:pageshadow="2"
     inkscape:zoom="0.60666663"
     inkscape:cx="50.595445"
     inkscape:cy="260.76953"
     inkscape:document-units="px"
     inkscape:current-layer="layer1"
     showgrid="false"
     inkscape:window-width="1366"
     inkscape:window-height="717"
     inkscape:window-x="0"
     inkscape:window-y="24"
     inkscape:window-maximized="1" />
  <metadata
     id="metadata7">
    <rdf:RDF>
      <cc:Work
         rdf:about="">
        <dc:format>image/svg+xml</dc:format>
        <dc:type
           rdf:resource="http://purl.org/dc/dcmitype/StillImage" />
        <dc:title />
      </cc:Work>
    </rdf:RDF>
  </metadata>
  <g
     inkscape:label="Layer 1"
     inkscape:groupmode="layer"
     id="layer1"
     transform="translate(0,-540.36218)">
    <g
       id="g846"
       transform="translate(-7.3296803e-8,1.1466302e-6)">
      <path
         style="fill:#f9c440;fill-opacity:1;stroke-width:11.10955811"
         inkscape:connector-curvature="0"
         d="m 432.91326,596.83616 c 102.19291,88.57459 105.82678,249.69971 8.1168,359.89879 C 343.32009,1066.934 181.27965,1084.4628 79.086741,995.8882 -23.106205,907.31362 -26.740032,746.1885 70.969941,635.98942 168.67991,525.79034 330.72036,508.26157 432.91326,596.83616 Z"
         id="path925" />
      <path
         style="fill:#d48e15;fill-opacity:1;stroke:none;stroke-width:0.99999994px;stroke-linecap:butt;stroke-linejoin:miter;stroke-opacity:1"
         d="m 8.3652406,882.3622 c 11.5841014,43.15173 35.1863064,82.72637 70.7207064,113.5254 102.192913,88.5746 264.233393,71.0467 361.943363,-39.15235 20.35102,-22.95224 36.28955,-48.11807 47.87304,-74.37305 z"
         id="path927"
         inkscape:connector-curvature="0"
         sodipodi:nodetypes="csscc" />
      <path
         style="opacity:1;fill:#000000;fill-opacity:0.49019608;stroke-width:11.10955811"
         inkscape:connector-curvature="0"
         d="m 511.6355,765.26571 c -1.55139,61.31164 -25.16123,124.1546 -70.96638,175.81447 C 342.95915,1051.2793 180.9187,1068.808 78.725758,980.23348 30.827125,938.71783 4.4968176,881.28503 0.19382572,820.591 0.79907972,886.94767 27.117405,950.84437 79.07869,995.8813 c 102.19291,88.5745 264.24106,71.0371 361.94332,-39.15334 49.70495,-56.05811 73.00502,-125.29097 70.61349,-191.46225 z"
         id="path929" />
      <g
         style="fill:#000000;fill-opacity:0.49019608"
         transform="translate(20,19.999999)"
         id="g891">
        <path
           sodipodi:nodetypes="ccccsccscsscccccccccccccccccccccccc"
           inkscape:connector-curvature="0"
           id="path885"
           d="m 169.80093,871.82472 c -25.73207,-2.4948 -47.04867,-22.8181 -50.88028,-48.5094 -0.22452,-1.5055 -0.41111,-42.25665 -0.41465,-90.55818 l -0.006,-87.82095 1.30585,-4.74017 c 3.0651,-11.12616 7.82682,-19.4983 15.30101,-26.90251 6.43805,-6.37775 13.54885,-10.76843 22.23146,-13.72717 8.28134,-2.82201 5.44519,-2.74329 98.83482,-2.74329 h 87.82098 l 4.63741,1.29908 c 16.27752,4.55982 27.25721,12.90498 35.89622,27.28308 2.97475,4.95094 6.03871,13.82464 6.94391,20.11066 0.13774,0.95647 0.27188,26.0637 0.29809,55.79385 l -0.14418,129.1229 c -2.14093,6.9318 -3.84492,10.5616 -7.62455,16.2421 -9.63889,14.4863 -24.7657,23.4836 -42.35788,25.1941 -7.0432,0.6847 -164.7414,0.6443 -171.84178,-0.044 z m 159.3535,-25.4821 c 19.546,-3.1715 35.69326,-19.3187 38.86471,-38.86473 0.38156,-2.35157 0.60364,-21.43672 0.60642,-52.11476 l 0.005,-48.40443 -43.64035,-43.63748 -43.64034,-43.63748 -50.99183,0.16368 -50.99183,0.16368 -4.05773,1.37032 c -16.24568,5.48624 -27.24754,16.58964 -32.26247,32.56018 l -1.35876,4.32715 v 75.06806 75.0681 l 1.35876,4.32717 c 5.48127,17.45564 19.39241,30.20454 36.65363,33.59104 3.79454,0.7445 144.87386,0.7629 149.45541,0.02 z"
           style="fill:#000000;fill-opacity:0.49019608;stroke-width:0.57967639" />
        <g
           id="g889"
           style="font-style:normal;font-weight:normal;font-size:40px;line-height:1.25;font-family:sans-serif;letter-spacing:0px;word-spacing:0px;fill:#000000;fill-opacity:0.49019608;stroke:none"
           transform="translate(3.2967034,530.12042)"
           aria-label="D">
          <path
             inkscape:connector-curvature="0"
             id="path887"
             style="font-style:normal;font-variant:normal;font-weight:normal;font-stretch:normal;font-size:173.33332825px;font-family:'Comic Sans MS';-inkscape-font-specification:'Comic Sans MS';fill:#000000;fill-opacity:0.49019608"
             d="m 282.27669,266.15269 q -13.11849,8.97136 -37.66276,8.97136 -6.17838,0 -14.13411,-1.94662 -9.56381,-2.28515 -14.38802,-5.92448 h -0.84636 q -3.63932,0 -6.09375,-2.53906 -2.45442,-2.53906 -2.45442,-6.17838 0,-8.88672 0.76171,-26.57552 0.84636,-17.77344 0.84636,-26.66016 0,-9.90234 -0.42318,-29.53776 -0.33854,-19.72005 -0.33854,-29.62239 0,-3.47006 3.55469,-7.27865 3.55468,-3.80859 7.10937,-3.80859 2.03125,0 13.54167,5.67057 13.03385,6.34766 15.0651,7.02474 24.03646,8.20963 40.96354,25.22135 19.88932,20.0586 19.88932,44.09505 0,14.47266 -6.85546,27.76042 -6.77084,13.28776 -18.53516,21.32812 z m -17.77344,-89.54426 q -8.63281,-5.67058 -39.86328,-19.46615 l 0.42318,24.375 0.25391,24.29036 -1.35417,46.21094 q 0.59245,0.25391 1.77734,1.10026 7.44792,4.99349 18.78907,4.99349 19.29687,0 28.09895,-5.92448 8.20964,-5.58594 13.03386,-14.98047 4.90885,-9.47916 4.90885,-19.72005 0,-23.86719 -26.06771,-40.8789 z" />
        </g>
      </g>
      <g
         transform="translate(-7.3296803e-8,1.14663e-6)"
         id="g883">
        <path
           style="fill:#ffffff;stroke-width:0.57967639"
           d="m 169.80093,871.82472 c -25.73207,-2.4948 -47.04867,-22.8181 -50.88028,-48.5094 -0.22452,-1.5055 -0.41111,-42.25665 -0.41465,-90.55818 l -0.006,-87.82095 1.30585,-4.74017 c 3.0651,-11.12616 7.82682,-19.4983 15.30101,-26.90251 6.43805,-6.37775 13.54885,-10.76843 22.23146,-13.72717 8.28134,-2.82201 5.44519,-2.74329 98.83482,-2.74329 h 87.82098 l 4.63741,1.29908 c 16.27752,4.55982 27.25721,12.90498 35.89622,27.28308 2.97475,4.95094 6.03871,13.82464 6.94391,20.11066 0.13774,0.95647 0.27188,26.0637 0.29809,55.79385 l -0.14418,129.1229 c -2.14093,6.9318 -3.84492,10.5616 -7.62455,16.2421 -9.63889,14.4863 -24.7657,23.4836 -42.35788,25.1941 -7.0432,0.6847 -164.7414,0.6443 -171.84178,-0.044 z m 159.3535,-25.4821 c 19.546,-3.1715 35.69326,-19.3187 38.86471,-38.86473 0.38156,-2.35157 0.60364,-21.43672 0.60642,-52.11476 l 0.005,-48.40443 -43.64035,-43.63748 -43.64034,-43.63748 -50.99183,0.16368 -50.99183,0.16368 -4.05773,1.37032 c -16.24568,5.48624 -27.24754,16.58964 -32.26247,32.56018 l -1.35876,4.32715 v 75.06806 75.0681 l 1.35876,4.32717 c 5.48127,17.45564 19.39241,30.20454 36.65363,33.59104 3.79454,0.7445 144.87386,0.7629 149.45541,0.02 z"
           id="path910"
           inkscape:connector-curvature="0"
           sodipodi:nodetypes="ccccsccscsscccccccccccccccccccccccc" />
        <g
           aria-label="D"
           transform="translate(3.2967034,530.12042)"
           style="font-style:normal;font-weight:normal;font-size:40px;line-height:1.25;font-family:sans-serif;letter-spacing:0px;word-spacing:0px;fill:#ffffff;fill-opacity:1;stroke:none"
           id="flowRoot869">
          <path
             d="m 282.27669,266.15269 q -13.11849,8.97136 -37.66276,8.97136 -6.17838,0 -14.13411,-1.94662 -9.56381,-2.28515 -14.38802,-5.92448 h -0.84636 q -3.63932,0 -6.09375,-2.53906 -2.45442,-2.53906 -2.45442,-6.17838 0,-8.88672 0.76171,-26.57552 0.84636,-17.77344 0.84636,-26.66016 0,-9.90234 -0.42318,-29.53776 -0.33854,-19.72005 -0.33854,-29.62239 0,-3.47006 3.55469,-7.27865 3.55468,-3.80859 7.10937,-3.80859 2.03125,0 13.54167,5.67057 13.03385,6.34766 15.0651,7.02474 24.03646,8.20963 40.96354,25.22135 19.88932,20.0586 19.88932,44.09505 0,14.47266 -6.85546,27.76042 -6.77084,13.28776 -18.53516,21.32812 z m -17.77344,-89.54426 q -8.63281,-5.67058 -39.86328,-19.46615 l 0.42318,24.375 0.25391,24.29036 -1.35417,46.21094 q 0.59245,0.25391 1.77734,1.10026 7.44792,4.99349 18.78907,4.99349 19.29687,0 28.09895,-5.92448 8.20964,-5.58594 13.03386,-14.98047 4.90885,-9.47916 4.90885,-19.72005 0,-23.86719 -26.06771,-40.8789 z"
             style="font-style:normal;font-variant:normal;font-weight:normal;font-stretch:normal;font-size:173.33332825px;font-family:'Comic Sans MS';-inkscape-font-specification:'Comic Sans MS';fill:#ffffff"
             id="path877"
             inkscape:connector-curvature="0" />
        </g>
      </g>
    </g>
  </g>
</svg>
