<?xml version="1.0" encoding="UTF-8" standalone="no"?>
<!-- Created with Inkscape (http://www.inkscape.org/) -->

<svg
   xmlns:dc="http://purl.org/dc/elements/1.1/"
   xmlns:cc="http://creativecommons.org/ns#"
   xmlns:rdf="http://www.w3.org/1999/02/22-rdf-syntax-ns#"
   xmlns:svg="http://www.w3.org/2000/svg"
   xmlns="http://www.w3.org/2000/svg"
   xmlns:sodipodi="http://sodipodi.sourceforge.net/DTD/sodipodi-0.dtd"
   xmlns:inkscape="http://www.inkscape.org/namespaces/inkscape"
   width="512"
   height="512"
   id="svg2"
   version="1.1"
   inkscape:version="0.92.2 5c3e80d, 2017-08-06"
   sodipodi:docname="libreoffice-oasis-presentation-template.svg">
  <defs
     id="defs4" />
  <sodipodi:namedview
     id="base"
     pagecolor="#ffffff"
     bordercolor="#666666"
     borderopacity="1.0"
     inkscape:pageopacity="0.0"
     inkscape:pageshadow="2"
     inkscape:zoom="0.4289781"
     inkscape:cx="446.73586"
     inkscape:cy="101.9984"
     inkscape:document-units="px"
     inkscape:current-layer="layer1"
     showgrid="false"
     inkscape:window-width="1366"
     inkscape:window-height="717"
     inkscape:window-x="0"
     inkscape:window-y="24"
     inkscape:window-maximized="1" />
  <metadata
     id="metadata7">
    <rdf:RDF>
      <cc:Work
         rdf:about="">
        <dc:format>image/svg+xml</dc:format>
        <dc:type
           rdf:resource="http://purl.org/dc/dcmitype/StillImage" />
        <dc:title />
      </cc:Work>
    </rdf:RDF>
  </metadata>
  <g
     inkscape:label="Layer 1"
     inkscape:groupmode="layer"
     id="layer1"
     transform="translate(0,-540.36218)">
    <g
       transform="translate(-7.3296775e-8,-2.802444e-6)"
       id="g846">
      <path
         id="path931"
         d="M 432.91326,596.83617 C 535.10617,685.41076 538.74004,846.53588 441.03006,956.735 343.32009,1066.934 181.27965,1084.4628 79.086741,995.8882 -23.106205,907.31363 -26.740032,746.18851 70.969941,635.98943 168.67991,525.79035 330.72036,508.26158 432.91326,596.83617 Z"
         inkscape:connector-curvature="0"
         style="fill:#f37329;fill-opacity:1;stroke-width:11.10955811" />
      <path
         sodipodi:nodetypes="csscc"
         inkscape:connector-curvature="0"
         id="path933"
         d="M 8.3652408,882.36221 C 19.949342,925.51394 43.551547,965.0886 79.085947,995.8876 c 102.192913,88.5746 264.233393,71.0467 361.943363,-39.1523 20.35102,-22.95228 36.28955,-48.11811 47.87304,-74.37309 z"
         style="fill:#cc3b02;fill-opacity:1;stroke:none;stroke-width:0.99999994px;stroke-linecap:butt;stroke-linejoin:miter;stroke-opacity:1" />
      <path
         id="path935"
         d="M 511.6355,765.26572 C 510.08411,826.57736 486.47427,889.42032 440.66912,941.0802 342.95915,1051.2793 180.9187,1068.808 78.725758,980.2335 30.827125,938.71784 4.4968188,881.28504 0.19382586,820.59101 0.79907986,886.94768 27.117405,950.8444 79.07869,995.8813 c 102.19291,88.5745 264.24106,71.0371 361.94332,-39.1533 49.70495,-56.05814 73.00502,-125.291 70.61349,-191.46228 z"
         inkscape:connector-curvature="0"
         style="opacity:1;fill:#000000;fill-opacity:0.49019608;stroke-width:11.10955811" />
      <g
         transform="translate(20,19.999999)"
         style="fill:#000000;fill-opacity:0.49019608"
         id="g890">
        <path
           sodipodi:nodetypes="ccccsccscsscccccccccccccccccccccccc"
           inkscape:connector-curvature="0"
           id="path884"
           d="m 169.80093,871.82472 c -25.73207,-2.4948 -47.04867,-22.8181 -50.88028,-48.5094 -0.22452,-1.5055 -0.41111,-42.25665 -0.41465,-90.55818 l -0.006,-87.82095 1.30585,-4.74017 c 3.0651,-11.12616 7.82682,-19.4983 15.30101,-26.90251 6.43805,-6.37775 13.54885,-10.76843 22.23146,-13.72717 8.28134,-2.82201 5.44519,-2.74329 98.83482,-2.74329 h 87.82098 l 4.63741,1.29908 c 16.27752,4.55982 27.25721,12.90498 35.89622,27.28308 2.97475,4.95094 6.03871,13.82464 6.94391,20.11066 0.13774,0.95647 0.27188,26.0637 0.29809,55.79385 l -0.14418,129.1229 c -2.14093,6.9318 -3.84492,10.5616 -7.62455,16.2421 -9.63889,14.4863 -24.7657,23.4836 -42.35788,25.1941 -7.0432,0.6847 -164.7414,0.6443 -171.84178,-0.044 z m 159.3535,-25.4821 c 19.546,-3.1715 35.69326,-19.3187 38.86471,-38.86473 0.38156,-2.35157 0.60364,-21.43672 0.60642,-52.11476 l 0.005,-48.40443 -43.64035,-43.63748 -43.64034,-43.63748 -50.99183,0.16368 -50.99183,0.16368 -4.05773,1.37032 c -16.24568,5.48624 -27.24754,16.58964 -32.26247,32.56018 l -1.35876,4.32715 v 75.06806 75.0681 l 1.35876,4.32717 c 5.48127,17.45564 19.39241,30.20454 36.65363,33.59104 3.79454,0.7445 144.87386,0.7629 149.45541,0.02 z"
           style="fill:#000000;fill-opacity:0.49019608;stroke-width:0.57967639" />
        <g
           id="g888"
           style="font-style:normal;font-weight:normal;font-size:40px;line-height:1.25;font-family:sans-serif;letter-spacing:0px;word-spacing:0px;fill:#000000;fill-opacity:0.49019608;stroke:none"
           transform="translate(41.174808,321.64998)"
           aria-label="P">
          <path
             inkscape:connector-curvature="0"
             id="path886"
             style="font-style:normal;font-variant:normal;font-weight:normal;font-stretch:normal;font-size:173.33332825px;font-family:'Comic Sans MS';-inkscape-font-specification:'Comic Sans MS';fill:#000000;fill-opacity:0.49019608"
             d="m 204.75521,430.48212 q -2.36979,0 -10.32552,-1.10026 -0.67709,12.77995 -0.67709,44.77214 0,3.38541 -2.20052,5.7552 -2.20052,2.28516 -5.5013,2.28516 -3.38542,0 -5.58594,-2.28516 -2.20052,-2.36979 -2.20052,-5.7552 v -24.88282 q 0,-12.4414 1.52344,-35.03906 1.69271,-24.45963 1.86198,-35.03906 v -11.67969 q 0,-8.3789 1.01562,-12.1875 1.94662,-7.44791 8.29427,-6.43229 2.70834,-0.84635 7.70183,-1.26953 4.99349,-0.42318 12.27213,-0.42318 15.48828,0 29.02995,10.57943 14.89583,11.67969 14.89583,28.09896 0,20.98958 -15.91146,33.43099 -14.21874,11.17187 -34.1927,11.17187 z m 4.23177,-67.20052 q -3.72396,0 -6.6862,0.16927 -2.8776,0.16927 -4.90885,0.50782 l -0.16927,15.57291 -1.77735,33.6849 9.3099,1.10026 q 14.21875,0 23.95182,-7.19401 10.66406,-7.8711 10.66406,-21.24349 0,-9.47917 -10.15625,-16.33464 -9.39453,-6.26302 -20.22786,-6.26302 z" />
        </g>
      </g>
      <g
         transform="translate(-7.3296803e-8,-2.802444e-6)"
         id="g882">
        <path
           style="fill:#ffffff;stroke-width:0.57967639"
           d="m 169.80093,871.82472 c -25.73207,-2.4948 -47.04867,-22.8181 -50.88028,-48.5094 -0.22452,-1.5055 -0.41111,-42.25665 -0.41465,-90.55818 l -0.006,-87.82095 1.30585,-4.74017 c 3.0651,-11.12616 7.82682,-19.4983 15.30101,-26.90251 6.43805,-6.37775 13.54885,-10.76843 22.23146,-13.72717 8.28134,-2.82201 5.44519,-2.74329 98.83482,-2.74329 h 87.82098 l 4.63741,1.29908 c 16.27752,4.55982 27.25721,12.90498 35.89622,27.28308 2.97475,4.95094 6.03871,13.82464 6.94391,20.11066 0.13774,0.95647 0.27188,26.0637 0.29809,55.79385 l -0.14418,129.1229 c -2.14093,6.9318 -3.84492,10.5616 -7.62455,16.2421 -9.63889,14.4863 -24.7657,23.4836 -42.35788,25.1941 -7.0432,0.6847 -164.7414,0.6443 -171.84178,-0.044 z m 159.3535,-25.4821 c 19.546,-3.1715 35.69326,-19.3187 38.86471,-38.86473 0.38156,-2.35157 0.60364,-21.43672 0.60642,-52.11476 l 0.005,-48.40443 -43.64035,-43.63748 -43.64034,-43.63748 -50.99183,0.16368 -50.99183,0.16368 -4.05773,1.37032 c -16.24568,5.48624 -27.24754,16.58964 -32.26247,32.56018 l -1.35876,4.32715 v 75.06806 75.0681 l 1.35876,4.32717 c 5.48127,17.45564 19.39241,30.20454 36.65363,33.59104 3.79454,0.7445 144.87386,0.7629 149.45541,0.02 z"
           id="path910"
           inkscape:connector-curvature="0"
           sodipodi:nodetypes="ccccsccscsscccccccccccccccccccccccc" />
        <g
           aria-label="P"
           transform="translate(41.174808,321.64998)"
           style="font-style:normal;font-weight:normal;font-size:40px;line-height:1.25;font-family:sans-serif;letter-spacing:0px;word-spacing:0px;fill:#ffffff;fill-opacity:1;stroke:none"
           id="flowRoot868">
          <path
             d="m 204.75521,430.48212 q -2.36979,0 -10.32552,-1.10026 -0.67709,12.77995 -0.67709,44.77214 0,3.38541 -2.20052,5.7552 -2.20052,2.28516 -5.5013,2.28516 -3.38542,0 -5.58594,-2.28516 -2.20052,-2.36979 -2.20052,-5.7552 v -24.88282 q 0,-12.4414 1.52344,-35.03906 1.69271,-24.45963 1.86198,-35.03906 v -11.67969 q 0,-8.3789 1.01562,-12.1875 1.94662,-7.44791 8.29427,-6.43229 2.70834,-0.84635 7.70183,-1.26953 4.99349,-0.42318 12.27213,-0.42318 15.48828,0 29.02995,10.57943 14.89583,11.67969 14.89583,28.09896 0,20.98958 -15.91146,33.43099 -14.21874,11.17187 -34.1927,11.17187 z m 4.23177,-67.20052 q -3.72396,0 -6.6862,0.16927 -2.8776,0.16927 -4.90885,0.50782 l -0.16927,15.57291 -1.77735,33.6849 9.3099,1.10026 q 14.21875,0 23.95182,-7.19401 10.66406,-7.8711 10.66406,-21.24349 0,-9.47917 -10.15625,-16.33464 -9.39453,-6.26302 -20.22786,-6.26302 z"
             style="font-style:normal;font-variant:normal;font-weight:normal;font-stretch:normal;font-size:173.33332825px;font-family:'Comic Sans MS';-inkscape-font-specification:'Comic Sans MS';fill:#ffffff"
             id="path876"
             inkscape:connector-curvature="0" />
        </g>
      </g>
    </g>
  </g>
</svg>
