<?xml version="1.0" encoding="UTF-8" standalone="no"?>
<!-- Created with Inkscape (http://www.inkscape.org/) -->

<svg
   xmlns:dc="http://purl.org/dc/elements/1.1/"
   xmlns:cc="http://creativecommons.org/ns#"
   xmlns:rdf="http://www.w3.org/1999/02/22-rdf-syntax-ns#"
   xmlns:svg="http://www.w3.org/2000/svg"
   xmlns="http://www.w3.org/2000/svg"
   xmlns:sodipodi="http://sodipodi.sourceforge.net/DTD/sodipodi-0.dtd"
   xmlns:inkscape="http://www.inkscape.org/namespaces/inkscape"
   width="512"
   height="512"
   id="svg2"
   version="1.1"
   inkscape:version="0.92.2 5c3e80d, 2017-08-06"
   sodipodi:docname="libreoffice-oasis-web-template.svg">
  <defs
     id="defs4">
    <radialGradient
       id="polygon413_1_"
       cx="7976.3457"
       cy="-10508.842"
       r="13293.867"
       gradientTransform="matrix(0.0222,0,0,-0.0248,721.1671,674.6745)"
       gradientUnits="userSpaceOnUse">
      <stop
         offset="0"
         style="stop-color:#80FF80"
         id="stop388" />
      <stop
         offset="1"
         style="stop-color:#0f0"
         id="stop390" />
    </radialGradient>
    <radialGradient
       id="polygon413_1_-3"
       cx="7976.3457"
       cy="-10508.842"
       r="13293.867"
       gradientTransform="matrix(0.00792857,0,0,-0.00885714,197.51568,815.04932)"
       gradientUnits="userSpaceOnUse">
      <stop
         offset="0"
         style="stop-color:#80FF80"
         id="stop388-6" />
      <stop
         offset="1"
         style="stop-color:#0f0"
         id="stop390-7" />
    </radialGradient>
    <radialGradient
       gradientUnits="userSpaceOnUse"
       gradientTransform="matrix(0.0195,0,0,-0.0195,770.9,757.886)"
       r="17925.004"
       cy="-7278.2686"
       cx="6611.7559"
       id="path125302_1_-9">
      <stop
         id="stop6-1"
         style="stop-color:#0101FF"
         offset="0" />
      <stop
         id="stop8-2"
         style="stop-color:#000080"
         offset="1" />
    </radialGradient>
    <radialGradient
       gradientUnits="userSpaceOnUse"
       gradientTransform="matrix(0.0194,0,0,-0.0205,772.9011,743.9232)"
       r="16567.537"
       cy="-7131.8633"
       cx="7553.0029"
       id="polygon8_1_-6">
      <stop
         id="stop381-0"
         style="stop-color:#0101FF"
         offset="0" />
      <stop
         id="stop383-6"
         style="stop-color:#000080"
         offset="1" />
    </radialGradient>
    <radialGradient
       gradientUnits="userSpaceOnUse"
       gradientTransform="matrix(0.0222,0,0,-0.0248,721.1671,674.6745)"
       r="13293.867"
       cy="-10508.842"
       cx="7976.3457"
       id="radialGradient3406-1">
      <stop
         id="stop3408-8"
         style="stop-color:#80FF80"
         offset="0" />
      <stop
         id="stop3410-7"
         style="stop-color:#0f0"
         offset="1" />
    </radialGradient>
  </defs>
  <sodipodi:namedview
     id="base"
     pagecolor="#ffffff"
     bordercolor="#666666"
     borderopacity="1.0"
     inkscape:pageopacity="0.0"
     inkscape:pageshadow="2"
     inkscape:zoom="0.21448906"
     inkscape:cx="45.100626"
     inkscape:cy="313.20218"
     inkscape:document-units="px"
     inkscape:current-layer="layer1"
     showgrid="false"
     inkscape:window-width="1366"
     inkscape:window-height="717"
     inkscape:window-x="0"
     inkscape:window-y="24"
     inkscape:window-maximized="1" />
  <metadata
     id="metadata7">
    <rdf:RDF>
      <cc:Work
         rdf:about="">
        <dc:format>image/svg+xml</dc:format>
        <dc:type
           rdf:resource="http://purl.org/dc/dcmitype/StillImage" />
        <dc:title></dc:title>
      </cc:Work>
    </rdf:RDF>
  </metadata>
  <g
     inkscape:label="Layer 1"
     inkscape:groupmode="layer"
     id="layer1"
     transform="translate(0,-540.36218)">
    <g
       id="g890">
      <path
         id="path943"
         d="m 432.91326,596.83616 c 102.19291,88.57459 105.82678,249.69971 8.1168,359.89879 C 343.32009,1066.934 181.27965,1084.4628 79.086739,995.8882 -23.106204,907.31362 -26.740031,746.1885 70.969939,635.98942 168.67991,525.79034 330.72036,508.26157 432.91326,596.83616 Z"
         inkscape:connector-curvature="0"
         style="fill:#3689e6;fill-opacity:1;stroke-width:11.10955811" />
      <path
         sodipodi:nodetypes="csscc"
         inkscape:connector-curvature="0"
         id="path945"
         d="m 8.3652414,882.3622 c 11.5840976,43.15173 35.1863076,82.72637 70.7207076,113.5254 102.192911,88.5746 264.233391,71.0467 361.943361,-39.15235 20.35102,-22.95224 36.28955,-48.11807 47.87304,-74.37305 z"
         style="fill:#0d52bf;fill-opacity:1;stroke:none;stroke-width:0.99999994px;stroke-linecap:butt;stroke-linejoin:miter;stroke-opacity:1" />
      <path
         id="path947"
         d="m 511.6355,765.26571 c -1.55139,61.31164 -25.16123,124.1546 -70.96638,175.81447 C 342.95915,1051.2793 180.9187,1068.808 78.725759,980.23348 30.827129,938.71783 4.4968194,881.28503 0.19382736,820.591 0.79908136,886.94767 27.117409,950.84437 79.078689,995.8813 181.2716,1084.4558 343.31975,1066.9184 441.02201,956.72796 490.72696,900.66985 514.02703,831.43699 511.6355,765.26571 Z"
         inkscape:connector-curvature="0"
         style="opacity:0.1;stroke-width:11.10955811" />
      <path
         style="fill:#317ccf;fill-opacity:1;stroke-width:0.53757727"
         d="m 254.55306,881.90437 c -22.71404,-1.8901 -45.56085,-9.8363 -64.50927,-22.4364 -32.99057,-21.9378 -54.16564,-55.29253 -60.30157,-94.98637 -1.65629,-10.71472 -1.65629,-28.52843 0,-39.24314 4.55608,-29.47365 17.00017,-54.81937 37.18435,-75.73585 46.21415,-47.89086 119.55658,-55.92395 174.86093,-19.15228 29.49554,19.61148 50.57828,50.06013 58.10988,83.92494 2.48665,11.18088 3.2194,18.14212 3.2194,30.58476 0,12.44263 -0.73275,19.40388 -3.2194,30.58475 -7.54611,33.93006 -28.60713,64.30969 -58.24325,84.01329 -7.70913,5.1255 -20.43769,11.6591 -27.96757,14.3558 -19.49837,6.9832 -39.5207,9.7225 -59.1335,8.0905 z m 50.33811,-23.1101 c 12.58011,-4.3057 26.38789,-11.972 37.01819,-20.5529 9.48784,-7.65868 20.62038,-20.48492 27.12122,-31.2474 10.25564,-16.97873 17.22891,-40.71538 17.22891,-58.64632 0,-2.59301 -0.0976,-2.82387 -1.08462,-2.56576 -0.65786,0.17204 -1.93858,-0.28148 -3.25498,-1.15264 -2.46848,-1.63356 -16.08276,-13.30476 -18.47362,-15.83699 -1.27848,-1.35408 -2.00755,-1.67228 -3.83161,-1.67228 -3.01102,0 -3.70642,0.89047 -2.65693,3.40225 1.96398,4.70046 0.42173,7.84617 -4.3434,8.85923 -8.41604,1.78921 -16.52905,-3.84844 -28.4758,-19.78756 -9.55917,-12.75367 -10.26569,-13.36385 -22.61513,-19.53138 -8.47923,-4.23468 -16.12296,-7.13131 -21.04624,-7.97555 l -3.71239,-0.63661 -6.82628,3.29987 -6.82628,3.29987 -0.51654,-1.35859 c -0.75416,-1.9836 -0.6313,-5.42065 0.25503,-7.13464 2.07955,-4.0214 8.13381,-7.5766 21.12219,-12.40345 7.58041,-2.8171 7.65106,-2.85872 7.99905,-4.71372 0.23136,-1.23322 -0.0529,-3.34562 -0.83339,-6.19365 -0.65148,-2.37717 -1.04915,-4.8614 -0.88373,-5.52051 0.16543,-0.65911 1.42301,-2.11796 2.79461,-3.24189 4.28337,-3.5099 15.77974,-10.95135 17.90044,-11.58673 2.70399,-0.81014 4.94869,0.32273 6.17474,3.11628 1.89563,4.3192 2.22356,4.73146 3.68418,4.63151 0.77138,-0.0528 4.10603,-1.44376 7.41033,-3.09107 3.3043,-1.64731 6.34539,-2.9951 6.75796,-2.9951 1.64157,0 0.53889,-1.12023 -3.95366,-4.01659 -6.59008,-4.24865 -18.62469,-10.07382 -25.9381,-12.55496 -11.86984,-4.02693 -25.81875,-6.54427 -36.26268,-6.54427 h -4.28343 l 2.39861,1.20955 c 2.31627,1.16802 2.40348,1.30182 2.54054,3.89743 0.17556,3.32496 0.95567,5.7998 2.16302,6.86199 0.53298,0.46892 2.36863,0.90921 4.36029,1.04585 3.0454,0.20893 3.6155,0.43267 4.97259,1.95151 1.07011,1.19767 1.53282,2.2867 1.53282,3.60767 0,2.25666 1.41826,1.55912 -19.65162,9.6652 -29.12338,11.20445 -37.76145,13.54165 -39.79304,10.7668 -2.04157,-2.78848 -1.39487,-3.50701 12.94422,-14.38193 10.48563,-7.95241 13.17065,-10.24007 13.17065,-11.22153 0,-1.10585 -3.09288,-0.11346 -12.09369,3.88043 -15.2815,6.78079 -25.27211,12.1907 -28.95602,15.67969 -1.50003,1.42066 -1.91584,2.34156 -2.44988,5.42585 -0.79613,4.59789 -1.75568,6.51346 -3.78962,7.56525 -2.18908,1.13202 -6.78568,1.01834 -10.50035,-0.25969 -4.30004,-1.47944 -7.13086,-1.35162 -12.74312,0.57536 -2.64388,0.90779 -5.579,1.58402 -6.52247,1.50273 -0.94347,-0.0813 -2.03704,0.051 -2.43015,0.29395 -1.23782,0.76501 -7.83595,11.19077 -11.01262,17.40111 -1.67709,3.27869 -4.16875,8.81928 -5.53703,12.31244 -2.29219,5.85185 -2.50822,6.81609 -2.74773,12.26453 -0.22411,5.09829 -0.0677,6.70827 1.13499,11.68049 1.59305,6.58629 4.26433,14.01521 7.66243,21.30955 2.02342,4.34346 3.08275,5.80088 7.70293,10.59772 6.0937,6.3267 6.81628,7.89294 6.28734,13.62842 -0.52404,5.68242 -2.23196,9.76867 -7.12816,17.05432 -5.64658,8.40223 -6.11467,9.31347 -6.11467,11.90328 0,3.8731 9.00651,16.93717 18.54641,26.90183 10.87423,11.35845 20.88876,18.74745 34.54807,25.49085 l 7.66922,3.7861 11.14599,-2.4843 c 15.42362,-3.4378 22.60938,-4.3054 32.91787,-3.9745 6.52429,0.2094 9.44654,0.5588 13.46649,1.6105 5.66873,1.483 11.71105,4.1737 15.83147,7.05 1.47833,1.032 3.08434,1.8896 3.56889,1.9059 0.48455,0.016 3.75033,-0.9524 7.25729,-2.1528 z m -20.47918,-43.36605 c -3.20821,-3.2082 -4.32556,-7.34866 -5.40697,-20.03593 -2.02396,-23.7454 -5.59171,-38.3489 -9.91143,-40.56946 -0.75344,-0.3873 -5.60331,-1.91969 -10.77749,-3.40531 -15.01815,-4.31202 -21.2722,-7.41301 -25.4625,-12.62523 -2.22041,-2.76192 -2.61889,-7.59492 -0.93927,-11.392 2.79947,-6.32865 10.85258,-15.0198 17.60299,-18.99764 5.20366,-3.06637 9.79245,-4.48393 15.54529,-4.80218 5.61208,-0.31046 8.8617,0.25035 15.42921,2.66276 3.96685,1.45712 4.65523,1.8832 4.39044,2.71749 -0.54787,1.72619 1.33464,3.67037 5.33594,5.5107 4.31627,1.98521 14.67924,4.73361 21.64656,5.74098 4.56737,0.66038 4.63651,0.69355 7.11443,3.41323 1.37623,1.51051 4.03838,5.67687 5.91588,9.25857 4.59291,8.76189 5.84721,10.10756 13.10925,14.06427 9.2954,5.06457 8.74158,4.37062 7.9161,9.91917 -0.65585,4.40833 -0.814,4.77402 -2.89002,6.68286 -1.2079,1.11064 -3.88956,2.95935 -5.95923,4.10825 -5.99426,3.32747 -6.84489,4.18801 -12.94201,13.09284 -12.9792,18.95611 -24.01113,31.5816 -30.30412,34.68154 -4.02582,1.98313 -7.41398,1.97417 -9.41305,-0.0249 z"
         id="path889"
         inkscape:connector-curvature="0" />
      <path
         inkscape:connector-curvature="0"
         id="path887"
         d="m 244.55306,871.90437 c -22.71404,-1.8901 -45.56085,-9.8363 -64.50927,-22.4364 -32.99057,-21.9378 -54.16564,-55.29253 -60.30157,-94.98637 -1.65629,-10.71472 -1.65629,-28.52843 0,-39.24314 4.55608,-29.47365 17.00017,-54.81937 37.18435,-75.73585 46.21415,-47.89086 119.55658,-55.92395 174.86093,-19.15228 29.49554,19.61148 50.57828,50.06013 58.10988,83.92494 2.48665,11.18088 3.2194,18.14212 3.2194,30.58476 0,12.44263 -0.73275,19.40388 -3.2194,30.58475 -7.54611,33.93006 -28.60713,64.30969 -58.24325,84.01329 -7.70913,5.1255 -20.43769,11.6591 -27.96757,14.3558 -19.49837,6.9832 -39.5207,9.7225 -59.1335,8.0905 z m 50.33811,-23.1101 c 12.58011,-4.3057 26.38789,-11.972 37.01819,-20.5529 9.48784,-7.65868 20.62038,-20.48492 27.12122,-31.2474 10.25564,-16.97873 17.22891,-40.71538 17.22891,-58.64632 0,-2.59301 -0.0976,-2.82387 -1.08462,-2.56576 -0.65786,0.17204 -1.93858,-0.28148 -3.25498,-1.15264 -2.46848,-1.63356 -16.08276,-13.30476 -18.47362,-15.83699 -1.27848,-1.35408 -2.00755,-1.67228 -3.83161,-1.67228 -3.01102,0 -3.70642,0.89047 -2.65693,3.40225 1.96398,4.70046 0.42173,7.84617 -4.3434,8.85923 -8.41604,1.78921 -16.52905,-3.84844 -28.4758,-19.78756 -9.55917,-12.75367 -10.26569,-13.36385 -22.61513,-19.53138 -8.47923,-4.23468 -16.12296,-7.13131 -21.04624,-7.97555 l -3.71239,-0.63661 -6.82628,3.29987 -6.82628,3.29987 -0.51654,-1.35859 c -0.75416,-1.9836 -0.6313,-5.42065 0.25503,-7.13464 2.07955,-4.0214 8.13381,-7.5766 21.12219,-12.40345 7.58041,-2.8171 7.65106,-2.85872 7.99905,-4.71372 0.23136,-1.23322 -0.0529,-3.34562 -0.83339,-6.19365 -0.65148,-2.37717 -1.04915,-4.8614 -0.88373,-5.52051 0.16543,-0.65911 1.42301,-2.11796 2.79461,-3.24189 4.28337,-3.5099 15.77974,-10.95135 17.90044,-11.58673 2.70399,-0.81014 4.94869,0.32273 6.17474,3.11628 1.89563,4.3192 2.22356,4.73146 3.68418,4.63151 0.77138,-0.0528 4.10603,-1.44376 7.41033,-3.09107 3.3043,-1.64731 6.34539,-2.9951 6.75796,-2.9951 1.64157,0 0.53889,-1.12023 -3.95366,-4.01659 -6.59008,-4.24865 -18.62469,-10.07382 -25.9381,-12.55496 -11.86984,-4.02693 -25.81875,-6.54427 -36.26268,-6.54427 h -4.28343 l 2.39861,1.20955 c 2.31627,1.16802 2.40348,1.30182 2.54054,3.89743 0.17556,3.32496 0.95567,5.7998 2.16302,6.86199 0.53298,0.46892 2.36863,0.90921 4.36029,1.04585 3.0454,0.20893 3.6155,0.43267 4.97259,1.95151 1.07011,1.19767 1.53282,2.2867 1.53282,3.60767 0,2.25666 1.41826,1.55912 -19.65162,9.6652 -29.12338,11.20445 -37.76145,13.54165 -39.79304,10.7668 -2.04157,-2.78848 -1.39487,-3.50701 12.94422,-14.38193 10.48563,-7.95241 13.17065,-10.24007 13.17065,-11.22153 0,-1.10585 -3.09288,-0.11346 -12.09369,3.88043 -15.2815,6.78079 -25.27211,12.1907 -28.95602,15.67969 -1.50003,1.42066 -1.91584,2.34156 -2.44988,5.42585 -0.79613,4.59789 -1.75568,6.51346 -3.78962,7.56525 -2.18908,1.13202 -6.78568,1.01834 -10.50035,-0.25969 -4.30004,-1.47944 -7.13086,-1.35162 -12.74312,0.57536 -2.64388,0.90779 -5.579,1.58402 -6.52247,1.50273 -0.94347,-0.0813 -2.03704,0.051 -2.43015,0.29395 -1.23782,0.76501 -7.83595,11.19077 -11.01262,17.40111 -1.67709,3.27869 -4.16875,8.81928 -5.53703,12.31244 -2.29219,5.85185 -2.50822,6.81609 -2.74773,12.26453 -0.22411,5.09829 -0.0677,6.70827 1.13499,11.68049 1.59305,6.58629 4.26433,14.01521 7.66243,21.30955 2.02342,4.34346 3.08275,5.80088 7.70293,10.59772 6.0937,6.3267 6.81628,7.89294 6.28734,13.62842 -0.52404,5.68242 -2.23196,9.76867 -7.12816,17.05432 -5.64658,8.40223 -6.11467,9.31347 -6.11467,11.90328 0,3.8731 9.00651,16.93717 18.54641,26.90183 10.87423,11.35845 20.88876,18.74745 34.54807,25.49085 l 7.66922,3.7861 11.14599,-2.4843 c 15.42362,-3.4378 22.60938,-4.3054 32.91787,-3.9745 6.52429,0.2094 9.44654,0.5588 13.46649,1.6105 5.66873,1.483 11.71105,4.1737 15.83147,7.05 1.47833,1.032 3.08434,1.8896 3.56889,1.9059 0.48455,0.016 3.75033,-0.9524 7.25729,-2.1528 z m -20.47918,-43.36605 c -3.20821,-3.2082 -4.32556,-7.34866 -5.40697,-20.03593 -2.02396,-23.7454 -5.59171,-38.3489 -9.91143,-40.56946 -0.75344,-0.3873 -5.60331,-1.91969 -10.77749,-3.40531 -15.01815,-4.31202 -21.2722,-7.41301 -25.4625,-12.62523 -2.22041,-2.76192 -2.61889,-7.59492 -0.93927,-11.392 2.79947,-6.32865 10.85258,-15.0198 17.60299,-18.99764 5.20366,-3.06637 9.79245,-4.48393 15.54529,-4.80218 5.61208,-0.31046 8.8617,0.25035 15.42921,2.66276 3.96685,1.45712 4.65523,1.8832 4.39044,2.71749 -0.54787,1.72619 1.33464,3.67037 5.33594,5.5107 4.31627,1.98521 14.67924,4.73361 21.64656,5.74098 4.56737,0.66038 4.63651,0.69355 7.11443,3.41323 1.37623,1.51051 4.03838,5.67687 5.91588,9.25857 4.59291,8.76189 5.84721,10.10756 13.10925,14.06427 9.2954,5.06457 8.74158,4.37062 7.9161,9.91917 -0.65585,4.40833 -0.814,4.77402 -2.89002,6.68286 -1.2079,1.11064 -3.88956,2.95935 -5.95923,4.10825 -5.99426,3.32747 -6.84489,4.18801 -12.94201,13.09284 -12.9792,18.95611 -24.01113,31.5816 -30.30412,34.68154 -4.02582,1.98313 -7.41398,1.97417 -9.41305,-0.0249 z"
         style="fill:#ffffff;stroke-width:0.53757727" />
    </g>
  </g>
</svg>
