<?xml version="1.0" encoding="UTF-8" standalone="no"?>
<!-- Created with Inkscape (http://www.inkscape.org/) -->

<svg
   xmlns:dc="http://purl.org/dc/elements/1.1/"
   xmlns:cc="http://creativecommons.org/ns#"
   xmlns:rdf="http://www.w3.org/1999/02/22-rdf-syntax-ns#"
   xmlns:svg="http://www.w3.org/2000/svg"
   xmlns="http://www.w3.org/2000/svg"
   xmlns:sodipodi="http://sodipodi.sourceforge.net/DTD/sodipodi-0.dtd"
   xmlns:inkscape="http://www.inkscape.org/namespaces/inkscape"
   width="512"
   height="512"
   id="svg2"
   version="1.1"
   inkscape:version="0.92.2 5c3e80d, 2017-08-06"
   sodipodi:docname="text-vnd.abc.svg">
  <defs
     id="defs4" />
  <sodipodi:namedview
     id="base"
     pagecolor="#ffffff"
     bordercolor="#666666"
     borderopacity="1.0"
     inkscape:pageopacity="0.0"
     inkscape:pageshadow="2"
     inkscape:zoom="0.60666665"
     inkscape:cx="150.40399"
     inkscape:cy="299.19324"
     inkscape:document-units="px"
     inkscape:current-layer="layer1"
     showgrid="false"
     inkscape:window-width="1366"
     inkscape:window-height="717"
     inkscape:window-x="0"
     inkscape:window-y="24"
     inkscape:window-maximized="1" />
  <metadata
     id="metadata7">
    <rdf:RDF>
      <cc:Work
         rdf:about="">
        <dc:format>image/svg+xml</dc:format>
        <dc:type
           rdf:resource="http://purl.org/dc/dcmitype/StillImage" />
        <dc:title />
      </cc:Work>
    </rdf:RDF>
  </metadata>
  <g
     inkscape:label="Layer 1"
     inkscape:groupmode="layer"
     id="layer1"
     transform="translate(0,-540.36218)">
    <g
       id="g852">
      <path
         style="fill:#8a715e;fill-opacity:1;stroke-width:11.10955811"
         inkscape:connector-curvature="0"
         d="m 432.91326,596.83615 c 102.19291,88.57459 105.82678,249.69971 8.1168,359.89879 C 343.32009,1066.934 181.27965,1084.4628 79.086737,995.88819 -23.106205,907.31361 -26.740032,746.18849 70.969942,635.98941 168.67991,525.79033 330.72036,508.26156 432.91326,596.83615 Z"
         id="path961" />
      <path
         style="fill:#715344;fill-opacity:1;stroke:none;stroke-width:0.99999994px;stroke-linecap:butt;stroke-linejoin:miter;stroke-opacity:1"
         d="m 8.365242,882.36219 c 11.584101,43.15173 35.186306,82.72637 70.720705,113.5254 102.192913,88.57461 264.233393,71.04671 361.943363,-39.15235 20.35102,-22.95224 36.28955,-48.11807 47.87304,-74.37305 z"
         id="path963"
         inkscape:connector-curvature="0"
         sodipodi:nodetypes="csscc" />
      <path
         style="opacity:1;stroke-width:11.10955811;fill:#000000;fill-opacity:0.49019608"
         inkscape:connector-curvature="0"
         d="M 511.6355,765.2657 C 510.08411,826.57734 486.47427,889.4203 440.66912,941.08017 342.95915,1051.2793 180.9187,1068.808 78.725759,980.23347 30.827126,938.71782 4.49682,881.28502 0.19382715,820.59099 0.79908115,886.94766 27.117406,950.84436 79.078687,995.88129 181.2716,1084.4558 343.31975,1066.9184 441.02201,956.72795 490.72696,900.66984 514.02703,831.43698 511.6355,765.2657 Z"
         id="path965" />
      <path
         inkscape:connector-curvature="0"
         style="fill:#000000;fill-opacity:0.49019608;stroke-width:5.96706104"
         d="m 289.39851,617.37053 c -40.54988,-0.44739 -82.43884,17.13563 -112.77944,51.3543 -52.48108,59.18908 -50.53003,145.73036 4.35885,193.30473 54.88889,47.5743 141.92198,38.15912 194.40303,-21.02997 52.48105,-59.18909 50.53002,-145.73037 -4.35885,-193.3047 -23.15625,-20.07041 -52.03314,-29.99792 -81.62359,-30.32436 z m -57.24876,52.234 h 147.91887 a 4.9974815,4.9974815 0 1 1 0,9.99336 H 232.14975 a 4.9974815,4.9974815 0 1 1 0,-9.99336 z m -47.59454,26.44236 h 195.51341 a 4.9974819,4.9974819 0 1 1 0,9.99337 H 184.55521 a 4.9974819,4.9974819 0 1 1 0,-9.99337 z m 0,26.44237 h 195.51341 a 4.9974819,4.9974819 0 1 1 0,9.99336 H 184.55521 a 4.9974819,4.9974819 0 1 1 0,-9.99336 z m 0,26.44236 h 195.51341 a 4.9974819,4.9974819 0 1 1 0,9.99337 H 184.55521 a 4.9974819,4.9974819 0 1 1 0,-9.99337 z m 0,26.44237 h 195.51341 a 4.9974819,4.9974819 0 1 1 0,9.99336 H 184.55521 a 4.9974819,4.9974819 0 1 1 0,-9.99336 z m 0,26.44236 h 195.51341 a 4.9974822,4.9974822 0 1 1 0,9.99337 H 184.55521 a 4.9974822,4.9974822 0 1 1 0,-9.99337 z m 0,26.44237 h 121.47651 a 4.9974822,4.9974822 0 1 1 0,9.99336 H 184.55521 a 4.9974822,4.9974822 0 1 1 0,-9.99336 z"
         id="path842" />
      <path
         id="path833"
         d="m 269.39851,597.37053 c -40.54988,-0.44739 -82.43884,17.13563 -112.77944,51.3543 -52.48108,59.18908 -50.53003,145.73036 4.35885,193.30473 54.88889,47.5743 141.92198,38.15912 194.40303,-21.02997 52.48105,-59.18909 50.53002,-145.73037 -4.35885,-193.3047 -23.15625,-20.07041 -52.03314,-29.99792 -81.62359,-30.32436 z m -57.24876,52.234 h 147.91887 a 4.9974815,4.9974815 0 1 1 0,9.99336 H 212.14975 a 4.9974815,4.9974815 0 1 1 0,-9.99336 z m -47.59454,26.44236 h 195.51341 a 4.9974819,4.9974819 0 1 1 0,9.99337 H 164.55521 a 4.9974819,4.9974819 0 1 1 0,-9.99337 z m 0,26.44237 h 195.51341 a 4.9974819,4.9974819 0 1 1 0,9.99336 H 164.55521 a 4.9974819,4.9974819 0 1 1 0,-9.99336 z m 0,26.44236 h 195.51341 a 4.9974819,4.9974819 0 1 1 0,9.99337 H 164.55521 a 4.9974819,4.9974819 0 1 1 0,-9.99337 z m 0,26.44237 h 195.51341 a 4.9974819,4.9974819 0 1 1 0,9.99336 H 164.55521 a 4.9974819,4.9974819 0 1 1 0,-9.99336 z m 0,26.44236 h 195.51341 a 4.9974822,4.9974822 0 1 1 0,9.99337 H 164.55521 a 4.9974822,4.9974822 0 1 1 0,-9.99337 z m 0,26.44237 h 121.47651 a 4.9974822,4.9974822 0 1 1 0,9.99336 H 164.55521 a 4.9974822,4.9974822 0 1 1 0,-9.99336 z"
         style="fill:#ffffff;fill-opacity:1;stroke-width:5.96706104"
         inkscape:connector-curvature="0" />
      <g
         aria-label="ABC"
         transform="translate(35.32682,557.01792)"
         style="font-style:normal;font-weight:normal;font-size:40px;line-height:1.25;font-family:sans-serif;letter-spacing:0px;word-spacing:0px;fill:#000000;fill-opacity:0.49019608;stroke:none"
         id="g873">
        <path
           d="m 196.09701,449.34817 q -5.09115,0 -8.85417,-13.0599 -1.4388,-4.98047 -3.59701,-17.43164 -5.64453,0.77474 -14.77539,2.76693 l -14.72005,3.04362 q -2.76693,7.24934 -9.46289,21.19466 -1.77083,3.09896 -4.81445,3.09896 -2.21354,0 -3.98438,-1.60482 -1.71549,-1.60482 -1.71549,-3.98438 0,-2.65625 8.35612,-20.19857 -0.94076,-1.4388 -0.94076,-3.32031 0,-4.48242 5.42318,-5.75521 6.30859,-11.84244 15.9375,-27.22656 13.11523,-20.97331 16.32487,-20.97331 4.37174,0 5.97656,6.08724 l 3.48633,18.59375 8.24544,38.46029 3.1543,8.74349 q 1.60482,4.48242 1.60482,5.97656 0,2.37956 -1.7155,3.98438 -1.71549,1.60482 -3.92903,1.60482 z m -19.53451,-63.25196 -15.82682,25.51107 q 6.69596,-1.7155 20.30924,-4.15039 z"
           style="font-style:normal;font-variant:normal;font-weight:normal;font-stretch:normal;font-size:113.33333588px;font-family:'Comic Sans MS';-inkscape-font-specification:'Comic Sans MS';fill:#000000;fill-opacity:0.49019608"
           id="path867"
           inkscape:connector-curvature="0" />
        <path
           d="m 258.96159,445.47447 q -12.45117,4.86979 -31.81966,4.86979 -2.37956,0 -4.53776,-2.26888 -2.10287,-2.21354 -2.10287,-4.5931 v -16.10352 q 0,-7.91341 0.9961,-22.57812 1.10677,-15.82682 1.21744,-22.91016 -0.0553,-5.09114 0.60873,-15.16276 0.38737,-2.76693 1.82617,-3.65234 7.52604,-2.32422 17.09961,-2.32422 9.73958,0 18.70443,6.64062 10.3483,7.63672 10.3483,18.87045 0,14.222 -11.0677,22.41211 8.30078,3.54166 12.39583,7.85807 4.15039,4.31641 4.15039,9.40755 0,6.69597 -7.24935,12.94922 -5.03581,4.42708 -10.56966,6.58529 z m -16.71224,-73.43425 q -6.0319,0 -8.4668,0.38737 l -0.11067,9.68425 -1.10678,21.41601 q 7.85808,0.66406 8.41146,0.60873 8.35612,-0.66407 13.66862,-5.20183 5.69987,-4.92513 5.69987,-12.67252 0,-5.25717 -5.81054,-9.73959 -5.81055,-4.48242 -12.28516,-4.48242 z m 6.19792,44.32617 -5.86589,-0.94075 q -0.7194,0 -2.21354,0.11068 -1.4388,0.0553 -2.21354,0.0553 -2.98828,0 -6.36393,-0.49804 -0.33204,6.97265 -0.33204,12.45117 v 11.45508 q 14.4987,-0.49805 23.62956,-4.09505 3.8737,-1.49415 7.41537,-4.64844 3.37565,-2.87761 3.37565,-4.31641 0,-2.60091 -7.08334,-5.86588 -5.3125,-2.49024 -10.3483,-3.70769 z"
           style="font-style:normal;font-variant:normal;font-weight:normal;font-stretch:normal;font-size:113.33333588px;font-family:'Comic Sans MS';-inkscape-font-specification:'Comic Sans MS';fill:#000000;fill-opacity:0.49019608"
           id="path869"
           inkscape:connector-curvature="0" />
        <path
           d="m 342.5228,385.59816 q -3.54167,0 -5.3125,-4.15039 -1.54948,-3.54166 -2.87761,-4.3164 -1.16211,-0.60873 -5.7552,-0.60873 -8.02409,0 -17.81902,12.28516 -13.28125,16.49089 -13.28125,31.26628 0,7.13867 4.5931,12.28515 4.70378,5.3125 11.3444,5.3125 5.69987,0 11.45508,-2.93294 3.20964,-1.66016 9.85026,-6.52995 3.1543,-2.32422 4.75912,-2.32422 2.37956,0 3.98437,1.82618 1.60482,1.77083 1.60482,3.98437 0,2.49023 -2.10286,4.37175 -14.60938,12.94921 -29.55079,12.94921 -11.45507,0 -19.36849,-8.79882 -7.63671,-8.52214 -7.63671,-20.14323 0,-18.75977 15.71614,-38.46029 13.11524,-16.43555 26.45183,-16.43555 2.71158,0 4.86979,0.27669 2.1582,0.22136 3.81836,0.77474 1.93685,-2.82226 5.0358,-2.82226 3.81836,0 4.81446,5.03581 0.88541,4.48242 0.88541,11.01237 0,2.26888 -1.21744,3.98437 -1.49414,2.1582 -4.26107,2.1582 z"
           style="font-style:normal;font-variant:normal;font-weight:normal;font-stretch:normal;font-size:113.33333588px;font-family:'Comic Sans MS';-inkscape-font-specification:'Comic Sans MS';fill:#000000;fill-opacity:0.49019608"
           id="path871"
           inkscape:connector-curvature="0" />
      </g>
      <g
         id="flowRoot852"
         style="font-style:normal;font-weight:normal;font-size:40px;line-height:1.25;font-family:sans-serif;letter-spacing:0px;word-spacing:0px;fill:#000000;fill-opacity:1;stroke:none"
         transform="translate(15.32682,537.01792)"
         aria-label="ABC">
        <path
           inkscape:connector-curvature="0"
           id="path860"
           style="font-style:normal;font-variant:normal;font-weight:normal;font-stretch:normal;font-size:113.33333588px;font-family:'Comic Sans MS';-inkscape-font-specification:'Comic Sans MS';fill:#ffffff"
           d="m 196.09701,449.34817 q -5.09115,0 -8.85417,-13.0599 -1.4388,-4.98047 -3.59701,-17.43164 -5.64453,0.77474 -14.77539,2.76693 l -14.72005,3.04362 q -2.76693,7.24934 -9.46289,21.19466 -1.77083,3.09896 -4.81445,3.09896 -2.21354,0 -3.98438,-1.60482 -1.71549,-1.60482 -1.71549,-3.98438 0,-2.65625 8.35612,-20.19857 -0.94076,-1.4388 -0.94076,-3.32031 0,-4.48242 5.42318,-5.75521 6.30859,-11.84244 15.9375,-27.22656 13.11523,-20.97331 16.32487,-20.97331 4.37174,0 5.97656,6.08724 l 3.48633,18.59375 8.24544,38.46029 3.1543,8.74349 q 1.60482,4.48242 1.60482,5.97656 0,2.37956 -1.7155,3.98438 -1.71549,1.60482 -3.92903,1.60482 z m -19.53451,-63.25196 -15.82682,25.51107 q 6.69596,-1.7155 20.30924,-4.15039 z" />
        <path
           inkscape:connector-curvature="0"
           id="path862"
           style="font-style:normal;font-variant:normal;font-weight:normal;font-stretch:normal;font-size:113.33333588px;font-family:'Comic Sans MS';-inkscape-font-specification:'Comic Sans MS';fill:#ffffff"
           d="m 258.96159,445.47447 q -12.45117,4.86979 -31.81966,4.86979 -2.37956,0 -4.53776,-2.26888 -2.10287,-2.21354 -2.10287,-4.5931 v -16.10352 q 0,-7.91341 0.9961,-22.57812 1.10677,-15.82682 1.21744,-22.91016 -0.0553,-5.09114 0.60873,-15.16276 0.38737,-2.76693 1.82617,-3.65234 7.52604,-2.32422 17.09961,-2.32422 9.73958,0 18.70443,6.64062 10.3483,7.63672 10.3483,18.87045 0,14.222 -11.0677,22.41211 8.30078,3.54166 12.39583,7.85807 4.15039,4.31641 4.15039,9.40755 0,6.69597 -7.24935,12.94922 -5.03581,4.42708 -10.56966,6.58529 z m -16.71224,-73.43425 q -6.0319,0 -8.4668,0.38737 l -0.11067,9.68425 -1.10678,21.41601 q 7.85808,0.66406 8.41146,0.60873 8.35612,-0.66407 13.66862,-5.20183 5.69987,-4.92513 5.69987,-12.67252 0,-5.25717 -5.81054,-9.73959 -5.81055,-4.48242 -12.28516,-4.48242 z m 6.19792,44.32617 -5.86589,-0.94075 q -0.7194,0 -2.21354,0.11068 -1.4388,0.0553 -2.21354,0.0553 -2.98828,0 -6.36393,-0.49804 -0.33204,6.97265 -0.33204,12.45117 v 11.45508 q 14.4987,-0.49805 23.62956,-4.09505 3.8737,-1.49415 7.41537,-4.64844 3.37565,-2.87761 3.37565,-4.31641 0,-2.60091 -7.08334,-5.86588 -5.3125,-2.49024 -10.3483,-3.70769 z" />
        <path
           inkscape:connector-curvature="0"
           id="path864"
           style="font-style:normal;font-variant:normal;font-weight:normal;font-stretch:normal;font-size:113.33333588px;font-family:'Comic Sans MS';-inkscape-font-specification:'Comic Sans MS';fill:#ffffff"
           d="m 342.5228,385.59816 q -3.54167,0 -5.3125,-4.15039 -1.54948,-3.54166 -2.87761,-4.3164 -1.16211,-0.60873 -5.7552,-0.60873 -8.02409,0 -17.81902,12.28516 -13.28125,16.49089 -13.28125,31.26628 0,7.13867 4.5931,12.28515 4.70378,5.3125 11.3444,5.3125 5.69987,0 11.45508,-2.93294 3.20964,-1.66016 9.85026,-6.52995 3.1543,-2.32422 4.75912,-2.32422 2.37956,0 3.98437,1.82618 1.60482,1.77083 1.60482,3.98437 0,2.49023 -2.10286,4.37175 -14.60938,12.94921 -29.55079,12.94921 -11.45507,0 -19.36849,-8.79882 -7.63671,-8.52214 -7.63671,-20.14323 0,-18.75977 15.71614,-38.46029 13.11524,-16.43555 26.45183,-16.43555 2.71158,0 4.86979,0.27669 2.1582,0.22136 3.81836,0.77474 1.93685,-2.82226 5.0358,-2.82226 3.81836,0 4.81446,5.03581 0.88541,4.48242 0.88541,11.01237 0,2.26888 -1.21744,3.98437 -1.49414,2.1582 -4.26107,2.1582 z" />
      </g>
    </g>
  </g>
</svg>
