<?xml version="1.0" encoding="UTF-8" standalone="no"?>
<!-- Created with Inkscape (http://www.inkscape.org/) -->

<svg
   xmlns:dc="http://purl.org/dc/elements/1.1/"
   xmlns:cc="http://creativecommons.org/ns#"
   xmlns:rdf="http://www.w3.org/1999/02/22-rdf-syntax-ns#"
   xmlns:svg="http://www.w3.org/2000/svg"
   xmlns="http://www.w3.org/2000/svg"
   xmlns:sodipodi="http://sodipodi.sourceforge.net/DTD/sodipodi-0.dtd"
   xmlns:inkscape="http://www.inkscape.org/namespaces/inkscape"
   width="512"
   height="512"
   id="svg2"
   version="1.1"
   inkscape:version="0.92.2 5c3e80d, 2017-08-06"
   sodipodi:docname="text-x-c++hdr.svg">
  <defs
     id="defs4" />
  <sodipodi:namedview
     id="base"
     pagecolor="#ffffff"
     bordercolor="#666666"
     borderopacity="1.0"
     inkscape:pageopacity="0.0"
     inkscape:pageshadow="2"
     inkscape:zoom="0.4289781"
     inkscape:cx="407.14254"
     inkscape:cy="354.08334"
     inkscape:document-units="px"
     inkscape:current-layer="layer1"
     showgrid="false"
     inkscape:window-width="1366"
     inkscape:window-height="717"
     inkscape:window-x="0"
     inkscape:window-y="24"
     inkscape:window-maximized="1" />
  <metadata
     id="metadata7">
    <rdf:RDF>
      <cc:Work
         rdf:about="">
        <dc:format>image/svg+xml</dc:format>
        <dc:type
           rdf:resource="http://purl.org/dc/dcmitype/StillImage" />
        <dc:title></dc:title>
      </cc:Work>
    </rdf:RDF>
  </metadata>
  <g
     inkscape:label="Layer 1"
     inkscape:groupmode="layer"
     id="layer1"
     transform="translate(0,-540.36218)">
    <g
       id="g882">
      <path
         style="fill:#68b723;fill-opacity:1;stroke-width:11.10955811"
         inkscape:connector-curvature="0"
         d="m 432.91324,596.83615 c 102.19291,88.57459 105.82677,249.69971 8.1168,359.89879 C 343.32009,1066.934 181.27965,1084.4628 79.086738,995.88819 -23.106202,907.31361 -26.740032,746.18849 70.969938,635.98941 168.67991,525.79033 330.72036,508.26156 432.91324,596.83615 Z"
         id="path937" />
      <path
         style="fill:#3a9104;fill-opacity:1;stroke:none;stroke-width:0.99999994px;stroke-linecap:butt;stroke-linejoin:miter;stroke-opacity:1"
         d="M 8.3652364,882.36219 C 19.949338,925.51392 43.551548,965.08853 79.085938,995.88759 181.27884,1084.4622 343.31934,1066.9343 441.02929,956.73524 461.3803,933.783 477.31887,908.61717 488.90233,882.36219 Z"
         id="path939"
         inkscape:connector-curvature="0"
         sodipodi:nodetypes="csscc" />
      <path
         style="opacity:0.1;stroke-width:11.10955811"
         inkscape:connector-curvature="0"
         d="M 511.63547,765.2657 C 510.08409,826.57734 486.47425,889.4203 440.6691,941.08017 342.95915,1051.2793 180.9187,1068.808 78.725758,980.23347 30.827128,938.71782 4.4968164,881.28502 0.19382636,820.59099 0.79907636,886.94766 27.117408,950.84436 79.078688,995.88129 181.2716,1084.4558 343.31975,1066.9184 441.02199,956.72795 490.72694,900.66984 514.02701,831.43698 511.63547,765.2657 Z"
         id="path941" />
      <g
         aria-label="h++"
         transform="matrix(4.795637,0,0,4.795637,-645.265,67.661143)"
         style="font-style:normal;font-weight:normal;font-size:40px;line-height:1.25;font-family:sans-serif;letter-spacing:0px;word-spacing:0px;fill:#5ea520;fill-opacity:1;stroke:none"
         id="g869">
        <path
           d="m 177.57812,169.8838 q -1.38671,0 -1.8164,-1.48438 -0.44922,-1.60156 -0.82031,-4.55078 -0.35157,-2.83203 -0.35157,-4.64844 0,-0.50781 0.0391,-1.54297 0.0586,-1.03515 0.0586,-1.54297 0,-3.67187 -1.83594,-3.67187 -2.48047,0 -4.43359,2.24609 -0.9961,1.15235 -2.73438,4.39453 0,7.44141 -0.625,8.8086 -0.54687,1.21094 -1.69922,1.21094 -0.80078,0 -1.40625,-0.54688 -0.60546,-0.54687 -0.60546,-1.32812 0,-0.27344 0.17578,-0.85938 0.15625,-0.48828 0.21484,-2.85156 l 0.0586,-2.89063 0.0586,-14.35547 q 0.13672,-2.42187 0.13672,-3.26171 0,-0.9961 -0.19532,-1.875 -0.17578,-0.89844 -0.17578,-1.85547 0,-0.82032 0.56641,-1.34766 0.56641,-0.54687 1.38672,-0.54687 1.60156,0 1.875,1.71875 0.3125,1.89453 0.3125,3.41796 0,2.05079 -0.13672,4.27735 -0.11719,2.1289 -0.0977,4.27734 l 0.0195,1.71875 q 1.60157,-2.14844 3.41797,-3.20312 1.83594,-1.07422 3.88672,-1.07422 3.24219,0 4.45313,2.10937 0.85937,1.48438 0.97656,5 l 0.15625,3.73047 0.39062,4.0625 q 0.27344,2.28516 0.66407,4.02344 0.0781,0.33203 0.0781,0.56641 0,0.80078 -0.58594,1.32812 -0.58593,0.54688 -1.40625,0.54688 z"
           style="font-style:normal;font-variant:normal;font-weight:normal;font-stretch:normal;font-family:'Comic Sans MS';-inkscape-font-specification:'Comic Sans MS';fill:#5ea520;fill-opacity:1"
           id="path863"
           inkscape:connector-curvature="0" />
        <path
           d="m 199.47266,156.11426 q 0,0.72266 -0.48829,1.26954 -0.46875,0.52734 -1.1914,0.52734 -0.23438,0 -0.70313,-0.0781 -0.46875,-0.0781 -0.72265,-0.0781 l -1.95313,0.0391 q -1.1914,0.0391 -1.95312,0 v 4.58985 q 0,1.75781 -1.73828,1.75781 -0.85938,0 -1.3086,-0.42969 -0.42969,-0.44922 -0.42969,-1.32812 l -0.0195,-2.2461 -0.0195,-2.26562 q -2.36328,0.13672 -3.33984,0.13672 -3.02735,0 -3.02735,-1.79688 0,-1.26953 1.07422,-1.58203 0.3711,-0.0977 1.95313,-0.0977 0.97656,0 3.33984,-0.13672 l -0.0195,-2.28515 q 0,-1.77735 0.17578,-2.46094 0.19531,-0.70312 0.60547,-1.05469 0.41016,-0.35156 1.05469,-0.35156 0.74219,0 1.25,0.48828 0.52734,0.46875 0.52734,1.21094 0,0.33203 -0.0781,1.05469 -0.0586,0.72265 -0.0586,1.09375 l 0.0195,2.22656 1.46485,0.0586 q 0.39062,0 1.1914,-0.0391 0.80079,-0.0586 1.19141,-0.0586 3.20313,0 3.20313,1.83593 z"
           style="font-style:normal;font-variant:normal;font-weight:normal;font-stretch:normal;font-family:'Comic Sans MS';-inkscape-font-specification:'Comic Sans MS';fill:#5ea520;fill-opacity:1"
           id="path865"
           inkscape:connector-curvature="0" />
        <path
           d="m 218.69141,156.11426 q 0,0.72266 -0.48829,1.26954 -0.46875,0.52734 -1.1914,0.52734 -0.23438,0 -0.70313,-0.0781 -0.46875,-0.0781 -0.72265,-0.0781 l -1.95313,0.0391 q -1.1914,0.0391 -1.95312,0 v 4.58985 q 0,1.75781 -1.73828,1.75781 -0.85938,0 -1.3086,-0.42969 -0.42969,-0.44922 -0.42969,-1.32812 l -0.0195,-2.2461 -0.0195,-2.26562 q -2.36328,0.13672 -3.33984,0.13672 -3.02735,0 -3.02735,-1.79688 0,-1.26953 1.07422,-1.58203 0.3711,-0.0977 1.95313,-0.0977 0.97656,0 3.33984,-0.13672 l -0.0195,-2.28515 q 0,-1.77735 0.17578,-2.46094 0.19531,-0.70312 0.60547,-1.05469 0.41016,-0.35156 1.05469,-0.35156 0.74219,0 1.25,0.48828 0.52734,0.46875 0.52734,1.21094 0,0.33203 -0.0781,1.05469 -0.0586,0.72265 -0.0586,1.09375 l 0.0195,2.22656 1.46485,0.0586 q 0.39062,0 1.1914,-0.0391 0.80079,-0.0586 1.19141,-0.0586 3.20313,0 3.20313,1.83593 z"
           style="font-style:normal;font-variant:normal;font-weight:normal;font-stretch:normal;font-family:'Comic Sans MS';-inkscape-font-specification:'Comic Sans MS';fill:#5ea520;fill-opacity:1"
           id="path867"
           inkscape:connector-curvature="0" />
      </g>
      <g
         id="flowRoot848"
         style="font-style:normal;font-weight:normal;font-size:40px;line-height:1.25;font-family:sans-serif;letter-spacing:0px;word-spacing:0px;fill:#ffffff;fill-opacity:1;stroke:none"
         transform="matrix(4.795637,0,0,4.795637,-655.265,57.661143)"
         aria-label="h++">
        <path
           inkscape:connector-curvature="0"
           id="path856"
           style="font-style:normal;font-variant:normal;font-weight:normal;font-stretch:normal;font-family:'Comic Sans MS';-inkscape-font-specification:'Comic Sans MS';fill:#ffffff"
           d="m 177.57812,169.8838 q -1.38671,0 -1.8164,-1.48438 -0.44922,-1.60156 -0.82031,-4.55078 -0.35157,-2.83203 -0.35157,-4.64844 0,-0.50781 0.0391,-1.54297 0.0586,-1.03515 0.0586,-1.54297 0,-3.67187 -1.83594,-3.67187 -2.48047,0 -4.43359,2.24609 -0.9961,1.15235 -2.73438,4.39453 0,7.44141 -0.625,8.8086 -0.54687,1.21094 -1.69922,1.21094 -0.80078,0 -1.40625,-0.54688 -0.60546,-0.54687 -0.60546,-1.32812 0,-0.27344 0.17578,-0.85938 0.15625,-0.48828 0.21484,-2.85156 l 0.0586,-2.89063 0.0586,-14.35547 q 0.13672,-2.42187 0.13672,-3.26171 0,-0.9961 -0.19532,-1.875 -0.17578,-0.89844 -0.17578,-1.85547 0,-0.82032 0.56641,-1.34766 0.56641,-0.54687 1.38672,-0.54687 1.60156,0 1.875,1.71875 0.3125,1.89453 0.3125,3.41796 0,2.05079 -0.13672,4.27735 -0.11719,2.1289 -0.0977,4.27734 l 0.0195,1.71875 q 1.60157,-2.14844 3.41797,-3.20312 1.83594,-1.07422 3.88672,-1.07422 3.24219,0 4.45313,2.10937 0.85937,1.48438 0.97656,5 l 0.15625,3.73047 0.39062,4.0625 q 0.27344,2.28516 0.66407,4.02344 0.0781,0.33203 0.0781,0.56641 0,0.80078 -0.58594,1.32812 -0.58593,0.54688 -1.40625,0.54688 z" />
        <path
           inkscape:connector-curvature="0"
           id="path858"
           style="font-style:normal;font-variant:normal;font-weight:normal;font-stretch:normal;font-family:'Comic Sans MS';-inkscape-font-specification:'Comic Sans MS';fill:#ffffff"
           d="m 199.47266,156.11426 q 0,0.72266 -0.48829,1.26954 -0.46875,0.52734 -1.1914,0.52734 -0.23438,0 -0.70313,-0.0781 -0.46875,-0.0781 -0.72265,-0.0781 l -1.95313,0.0391 q -1.1914,0.0391 -1.95312,0 v 4.58985 q 0,1.75781 -1.73828,1.75781 -0.85938,0 -1.3086,-0.42969 -0.42969,-0.44922 -0.42969,-1.32812 l -0.0195,-2.2461 -0.0195,-2.26562 q -2.36328,0.13672 -3.33984,0.13672 -3.02735,0 -3.02735,-1.79688 0,-1.26953 1.07422,-1.58203 0.3711,-0.0977 1.95313,-0.0977 0.97656,0 3.33984,-0.13672 l -0.0195,-2.28515 q 0,-1.77735 0.17578,-2.46094 0.19531,-0.70312 0.60547,-1.05469 0.41016,-0.35156 1.05469,-0.35156 0.74219,0 1.25,0.48828 0.52734,0.46875 0.52734,1.21094 0,0.33203 -0.0781,1.05469 -0.0586,0.72265 -0.0586,1.09375 l 0.0195,2.22656 1.46485,0.0586 q 0.39062,0 1.1914,-0.0391 0.80079,-0.0586 1.19141,-0.0586 3.20313,0 3.20313,1.83593 z" />
        <path
           inkscape:connector-curvature="0"
           id="path860"
           style="font-style:normal;font-variant:normal;font-weight:normal;font-stretch:normal;font-family:'Comic Sans MS';-inkscape-font-specification:'Comic Sans MS';fill:#ffffff"
           d="m 218.69141,156.11426 q 0,0.72266 -0.48829,1.26954 -0.46875,0.52734 -1.1914,0.52734 -0.23438,0 -0.70313,-0.0781 -0.46875,-0.0781 -0.72265,-0.0781 l -1.95313,0.0391 q -1.1914,0.0391 -1.95312,0 v 4.58985 q 0,1.75781 -1.73828,1.75781 -0.85938,0 -1.3086,-0.42969 -0.42969,-0.44922 -0.42969,-1.32812 l -0.0195,-2.2461 -0.0195,-2.26562 q -2.36328,0.13672 -3.33984,0.13672 -3.02735,0 -3.02735,-1.79688 0,-1.26953 1.07422,-1.58203 0.3711,-0.0977 1.95313,-0.0977 0.97656,0 3.33984,-0.13672 l -0.0195,-2.28515 q 0,-1.77735 0.17578,-2.46094 0.19531,-0.70312 0.60547,-1.05469 0.41016,-0.35156 1.05469,-0.35156 0.74219,0 1.25,0.48828 0.52734,0.46875 0.52734,1.21094 0,0.33203 -0.0781,1.05469 -0.0586,0.72265 -0.0586,1.09375 l 0.0195,2.22656 1.46485,0.0586 q 0.39062,0 1.1914,-0.0391 0.80079,-0.0586 1.19141,-0.0586 3.20313,0 3.20313,1.83593 z" />
      </g>
    </g>
  </g>
</svg>
