<?xml version="1.0" encoding="UTF-8" standalone="no"?>
<!-- Created with Inkscape (http://www.inkscape.org/) -->

<svg
   xmlns:dc="http://purl.org/dc/elements/1.1/"
   xmlns:cc="http://creativecommons.org/ns#"
   xmlns:rdf="http://www.w3.org/1999/02/22-rdf-syntax-ns#"
   xmlns:svg="http://www.w3.org/2000/svg"
   xmlns="http://www.w3.org/2000/svg"
   xmlns:sodipodi="http://sodipodi.sourceforge.net/DTD/sodipodi-0.dtd"
   xmlns:inkscape="http://www.inkscape.org/namespaces/inkscape"
   width="512"
   height="512"
   id="svg2"
   version="1.1"
   inkscape:version="0.92.2 5c3e80d, 2017-08-06"
   sodipodi:docname="text-css.svg">
  <defs
     id="defs4" />
  <sodipodi:namedview
     id="base"
     pagecolor="#ffffff"
     bordercolor="#666666"
     borderopacity="1.0"
     inkscape:pageopacity="0.0"
     inkscape:pageshadow="2"
     inkscape:zoom="0.30333332"
     inkscape:cx="304.59819"
     inkscape:cy="360.21751"
     inkscape:document-units="px"
     inkscape:current-layer="layer1"
     showgrid="false"
     inkscape:window-width="1366"
     inkscape:window-height="717"
     inkscape:window-x="0"
     inkscape:window-y="24"
     inkscape:window-maximized="1" />
  <metadata
     id="metadata7">
    <rdf:RDF>
      <cc:Work
         rdf:about="">
        <dc:format>image/svg+xml</dc:format>
        <dc:type
           rdf:resource="http://purl.org/dc/dcmitype/StillImage" />
        <dc:title></dc:title>
      </cc:Work>
    </rdf:RDF>
  </metadata>
  <g
     inkscape:label="Layer 1"
     inkscape:groupmode="layer"
     id="layer1"
     transform="translate(0,-540.36218)">
    <g
       id="g911">
      <path
         id="path931-6"
         d="m 432.91326,596.83617 c 102.19291,88.57459 105.82678,249.69971 8.1168,359.89879 C 343.32009,1066.934 181.27965,1084.4628 79.086737,995.8882 -23.106204,907.31363 -26.740031,746.18851 70.969937,635.98943 168.67991,525.79035 330.72036,508.26158 432.91326,596.83617 Z"
         inkscape:connector-curvature="0"
         style="fill:#f37329;fill-opacity:1;stroke-width:11.10955811" />
      <path
         sodipodi:nodetypes="csscc"
         inkscape:connector-curvature="0"
         id="path933-7"
         d="m 8.3652412,882.36221 c 11.5841058,43.15173 35.1863058,82.72637 70.7207058,113.52539 102.192913,88.5746 264.233393,71.0467 361.943363,-39.15234 20.35102,-22.95224 36.28955,-48.11807 47.87304,-74.37305 z"
         style="fill:#cc3b02;fill-opacity:1;stroke:none;stroke-width:0.99999994px;stroke-linecap:butt;stroke-linejoin:miter;stroke-opacity:1" />
      <path
         id="path935-5"
         d="m 511.6355,765.26572 c -1.55139,61.31164 -25.16123,124.1546 -70.96638,175.81447 C 342.95915,1051.2793 180.9187,1068.808 78.725757,980.2335 30.827127,938.71784 4.4968192,881.28504 0.19382718,820.59101 0.79908118,886.94768 27.117407,950.84438 79.078687,995.8813 181.2716,1084.4558 343.31975,1066.9184 441.02201,956.72797 490.72696,900.66986 514.02703,831.437 511.6355,765.26572 Z"
         inkscape:connector-curvature="0"
         style="opacity:0.1;stroke-width:11.10955811" />
      <path
         style="fill:#db6825;fill-opacity:1;stroke-width:2.69607854"
         d="m 169.65774,874.24219 c -14.77067,-10.84501 -9.4283,-23.51928 -10.15284,-41.71755 -1.50983,-37.92237 -4.1254,-43.55426 -21.91752,-47.19313 -7.82133,-1.59964 -9.08738,-2.95596 -9.08738,-9.73514 0,-6.84774 1.29145,-8.18197 9.88703,-10.21479 17.40993,-4.11734 19.59871,-8.97856 21.11787,-46.90198 0.19429,-17.56671 -2.60372,-30.12445 10.32091,-41.66048 7.11568,-6.35115 11.02195,-7.83825 18.87255,-7.18464 8.41212,0.70036 9.89968,1.79286 9.89968,7.27057 0,3.5455 -1.81985,7.2972 -4.04412,8.33711 -15.56848,7.27868 -14.74097,5.2388 -16.17647,39.87675 -1.19806,28.90846 -2.06679,33.49896 -7.80765,41.25625 -5.1751,6.99282 -5.83448,9.5826 -3.31588,13.02365 8.81846,12.04848 11.12353,22.44683 11.12353,50.1795 0.30584,15.83007 -5.40613,26.27413 9.55358,32.52473 10.87614,4.54432 14.13438,10.15147 9.29047,15.98802 -5.42788,6.5402 -17.87052,4.80276 -27.56376,-3.84887 z m 163.43158,3.97202 c -2.81894,-7.34603 0.32537,-13.25349 8.17109,-15.35168 16.48765,-4.29129 12.27313,-24.34284 12.32086,-36.30375 0.0361,-23.81317 0.88645,-28.8228 6.77112,-39.89034 l 6.72985,-12.65709 -6.05583,-8.18233 c -5.25811,-7.10449 -6.23341,-12.46721 -7.40386,-40.71011 -0.64366,-20.07994 1.01369,-31.3458 -15.50245,-39.45161 -2.59498,-1.27373 -4.71814,-5.21675 -4.71814,-8.76225 0,-5.47771 1.48754,-6.57021 9.89968,-7.27057 7.8506,-0.65361 11.75687,0.83349 18.87255,7.18464 14.95015,11.00048 9.58146,23.20136 10.32091,41.66048 1.51916,37.92342 3.70794,42.78464 21.11787,46.90198 8.59558,2.03282 9.88703,3.36705 9.88703,10.21479 0,6.77918 -1.26605,8.1355 -9.08737,9.73514 -17.79213,3.63887 -20.4077,9.27076 -21.91753,47.19313 -2.18335,22.17985 5.6616,27.60252 -10.15284,41.71755 -9.76776,8.71815 -26.55688,10.99782 -29.25294,3.97202 z"
         id="path848-3"
         inkscape:connector-curvature="0"
         sodipodi:nodetypes="cccscccsscsscccscsccscsccsscccscccs" />
      <path
         sodipodi:nodetypes="cccscccsscsscccscsccscsccsscccscccs"
         inkscape:connector-curvature="0"
         id="path846-5"
         d="m 159.65774,864.24219 c -14.77067,-10.84501 -9.4283,-23.51928 -10.15284,-41.71755 -1.50983,-37.92237 -4.1254,-43.55426 -21.91752,-47.19313 -7.82133,-1.59964 -9.08738,-2.95596 -9.08738,-9.73514 0,-6.84774 1.29145,-8.18197 9.88703,-10.21479 17.40993,-4.11734 19.59871,-8.97856 21.11787,-46.90198 0.19429,-17.56671 -2.60372,-30.12445 10.32091,-41.66048 7.11568,-6.35115 11.02195,-7.83825 18.87255,-7.18464 8.41212,0.70036 9.89968,1.79286 9.89968,7.27057 0,3.5455 -1.81985,7.2972 -4.04412,8.33711 -15.56848,7.27868 -14.74097,5.2388 -16.17647,39.87675 -1.19806,28.90846 -2.06679,33.49896 -7.80765,41.25625 -5.1751,6.99282 -5.83448,9.5826 -3.31588,13.02365 8.81846,12.04848 11.12353,22.44683 11.12353,50.1795 0.30584,15.83007 -5.40613,26.27413 9.55358,32.52473 10.87614,4.54432 14.13438,10.15147 9.29047,15.98802 -5.42788,6.5402 -17.87052,4.80276 -27.56376,-3.84887 z m 163.43158,3.97202 c -2.81894,-7.34603 0.32537,-13.25349 8.17109,-15.35168 16.48765,-4.29129 12.27313,-24.34284 12.32086,-36.30375 0.0361,-23.81317 0.88645,-28.8228 6.77112,-39.89034 l 6.72985,-12.65709 -6.05583,-8.18233 c -5.25811,-7.10449 -6.23341,-12.46721 -7.40386,-40.71011 -0.64366,-20.07994 1.01369,-31.3458 -15.50245,-39.45161 -2.59498,-1.27373 -4.71814,-5.21675 -4.71814,-8.76225 0,-5.47771 1.48754,-6.57021 9.89968,-7.27057 7.8506,-0.65361 11.75687,0.83349 18.87255,7.18464 14.95015,11.00048 9.58146,23.20136 10.32091,41.66048 1.51916,37.92342 3.70794,42.78464 21.11787,46.90198 8.59558,2.03282 9.88703,3.36705 9.88703,10.21479 0,6.77918 -1.26605,8.1355 -9.08737,9.73514 -17.79213,3.63887 -20.4077,9.27076 -21.91753,47.19313 -2.18335,22.17985 5.6616,27.60252 -10.15284,41.71755 -9.76776,8.71815 -26.55688,10.99782 -29.25294,3.97202 z"
         style="fill:#ffffff;stroke-width:2.69607854" />
      <g
         aria-label="CSS"
         transform="translate(-16.13867,563.09995)"
         style="font-style:normal;font-weight:normal;font-size:40px;line-height:1.25;font-family:sans-serif;letter-spacing:0px;word-spacing:0px;fill:#b83502;fill-opacity:1;stroke:none"
         id="g896">
        <path
           d="m 230.75195,369.01809 q -3.54166,0 -5.3125,-4.15039 -1.54947,-3.54167 -2.8776,-4.31641 -1.16211,-0.60873 -5.75521,-0.60873 -8.02409,0 -17.81901,12.28516 -13.28125,16.49089 -13.28125,31.26628 0,7.13867 4.5931,12.28515 4.70378,5.3125 11.3444,5.3125 5.69987,0 11.45508,-2.93294 3.20963,-1.66015 9.85026,-6.52995 3.1543,-2.32421 4.75911,-2.32421 2.37956,0 3.98438,1.82617 1.60482,1.77083 1.60482,3.98437 0,2.49024 -2.10287,4.37175 -14.60937,12.94922 -29.55078,12.94922 -11.45508,0 -19.36849,-8.79883 -7.63672,-8.52214 -7.63672,-20.14323 0,-18.75977 15.71615,-38.46029 13.11523,-16.43555 26.45182,-16.43555 2.71159,0 4.86979,0.2767 2.15821,0.22135 3.81836,0.77474 1.93685,-2.82227 5.03581,-2.82227 3.81836,0 4.81445,5.03581 0.88542,4.48242 0.88542,11.01237 0,2.26888 -1.21745,3.98437 -1.49414,2.15821 -4.26107,2.15821 z"
           style="font-style:normal;font-variant:normal;font-weight:normal;font-stretch:normal;font-size:113.33333588px;font-family:'Comic Sans MS';-inkscape-font-specification:'Comic Sans MS';fill:#b83502;fill-opacity:1"
           id="path890"
           inkscape:connector-curvature="0" />
        <path
           d="m 245.47201,417.32863 q -0.0553,-2.32422 1.54947,-3.76302 1.66016,-1.49414 4.03972,-1.49414 2.71159,0 4.75911,3.09896 2.82227,4.20573 5.03581,5.69987 4.70378,3.09896 13.66862,3.09896 8.57747,0 15.9375,-3.70768 9.40755,-4.75912 9.40755,-13.22592 0,-6.97265 -7.91341,-11.01237 -6.69596,-3.48632 -16.54622,-3.76302 -8.74349,-0.33203 -14.88607,-3.81836 -7.85807,-4.48242 -7.85807,-12.83854 0,-9.85026 11.17838,-17.98502 10.68034,-7.69206 22.08008,-7.69206 5.36784,0 12.11914,1.82617 8.96485,2.37956 8.96485,6.08724 0,4.86979 -4.98047,4.86979 -2.21355,0 -7.7474,-1.16211 -5.53385,-1.21745 -8.57747,-1.16211 -8.63282,0.11068 -14.66472,4.26107 -6.19791,4.26107 -6.19791,10.34831 0,4.5931 8.1901,6.47461 3.04362,0.7194 11.78711,1.32812 12.67253,0.94076 19.8112,7.96875 6.52995,6.41927 6.52995,15.66081 0,13.17057 -12.17448,21.02865 -10.56967,6.80664 -24.51498,6.80664 -10.12695,0 -18.53841,-3.8737 -10.29297,-4.75911 -10.45898,-13.0599 z"
           style="font-style:normal;font-variant:normal;font-weight:normal;font-stretch:normal;font-size:113.33333588px;font-family:'Comic Sans MS';-inkscape-font-specification:'Comic Sans MS';fill:#b83502;fill-opacity:1"
           id="path892"
           inkscape:connector-curvature="0" />
        <path
           d="m 324.05274,417.32863 q -0.0553,-2.32422 1.54948,-3.76302 1.66016,-1.49414 4.03971,-1.49414 2.71159,0 4.75912,3.09896 2.82226,4.20573 5.0358,5.69987 4.70378,3.09896 13.66862,3.09896 8.57748,0 15.93751,-3.70768 9.40755,-4.75912 9.40755,-13.22592 0,-6.97265 -7.91341,-11.01237 -6.69597,-3.48632 -16.54623,-3.76302 -8.74349,-0.33203 -14.88607,-3.81836 -7.85807,-4.48242 -7.85807,-12.83854 0,-9.85026 11.17839,-17.98502 10.68033,-7.69206 22.08007,-7.69206 5.36784,0 12.11915,1.82617 8.96484,2.37956 8.96484,6.08724 0,4.86979 -4.98047,4.86979 -2.21354,0 -7.7474,-1.16211 -5.53385,-1.21745 -8.57747,-1.16211 -8.63281,0.11068 -14.66471,4.26107 -6.19792,4.26107 -6.19792,10.34831 0,4.5931 8.1901,6.47461 3.04362,0.7194 11.78711,1.32812 12.67253,0.94076 19.8112,7.96875 6.52995,6.41927 6.52995,15.66081 0,13.17057 -12.17448,21.02865 -10.56966,6.80664 -24.51497,6.80664 -10.12696,0 -18.53842,-3.8737 -10.29296,-4.75911 -10.45898,-13.0599 z"
           style="font-style:normal;font-variant:normal;font-weight:normal;font-stretch:normal;font-size:113.33333588px;font-family:'Comic Sans MS';-inkscape-font-specification:'Comic Sans MS';fill:#b83502;fill-opacity:1"
           id="path894"
           inkscape:connector-curvature="0" />
      </g>
      <g
         id="flowRoot875"
         style="font-style:normal;font-weight:normal;font-size:40px;line-height:1.25;font-family:sans-serif;letter-spacing:0px;word-spacing:0px;fill:#ffffff;fill-opacity:1;stroke:none"
         transform="translate(-26.13867,553.09995)"
         aria-label="CSS">
        <path
           inkscape:connector-curvature="0"
           id="path883"
           style="font-style:normal;font-variant:normal;font-weight:normal;font-stretch:normal;font-size:113.33333588px;font-family:'Comic Sans MS';-inkscape-font-specification:'Comic Sans MS';fill:#ffffff"
           d="m 230.75195,369.01809 q -3.54166,0 -5.3125,-4.15039 -1.54947,-3.54167 -2.8776,-4.31641 -1.16211,-0.60873 -5.75521,-0.60873 -8.02409,0 -17.81901,12.28516 -13.28125,16.49089 -13.28125,31.26628 0,7.13867 4.5931,12.28515 4.70378,5.3125 11.3444,5.3125 5.69987,0 11.45508,-2.93294 3.20963,-1.66015 9.85026,-6.52995 3.1543,-2.32421 4.75911,-2.32421 2.37956,0 3.98438,1.82617 1.60482,1.77083 1.60482,3.98437 0,2.49024 -2.10287,4.37175 -14.60937,12.94922 -29.55078,12.94922 -11.45508,0 -19.36849,-8.79883 -7.63672,-8.52214 -7.63672,-20.14323 0,-18.75977 15.71615,-38.46029 13.11523,-16.43555 26.45182,-16.43555 2.71159,0 4.86979,0.2767 2.15821,0.22135 3.81836,0.77474 1.93685,-2.82227 5.03581,-2.82227 3.81836,0 4.81445,5.03581 0.88542,4.48242 0.88542,11.01237 0,2.26888 -1.21745,3.98437 -1.49414,2.15821 -4.26107,2.15821 z" />
        <path
           inkscape:connector-curvature="0"
           id="path885"
           style="font-style:normal;font-variant:normal;font-weight:normal;font-stretch:normal;font-size:113.33333588px;font-family:'Comic Sans MS';-inkscape-font-specification:'Comic Sans MS';fill:#ffffff"
           d="m 245.47201,417.32863 q -0.0553,-2.32422 1.54947,-3.76302 1.66016,-1.49414 4.03972,-1.49414 2.71159,0 4.75911,3.09896 2.82227,4.20573 5.03581,5.69987 4.70378,3.09896 13.66862,3.09896 8.57747,0 15.9375,-3.70768 9.40755,-4.75912 9.40755,-13.22592 0,-6.97265 -7.91341,-11.01237 -6.69596,-3.48632 -16.54622,-3.76302 -8.74349,-0.33203 -14.88607,-3.81836 -7.85807,-4.48242 -7.85807,-12.83854 0,-9.85026 11.17838,-17.98502 10.68034,-7.69206 22.08008,-7.69206 5.36784,0 12.11914,1.82617 8.96485,2.37956 8.96485,6.08724 0,4.86979 -4.98047,4.86979 -2.21355,0 -7.7474,-1.16211 -5.53385,-1.21745 -8.57747,-1.16211 -8.63282,0.11068 -14.66472,4.26107 -6.19791,4.26107 -6.19791,10.34831 0,4.5931 8.1901,6.47461 3.04362,0.7194 11.78711,1.32812 12.67253,0.94076 19.8112,7.96875 6.52995,6.41927 6.52995,15.66081 0,13.17057 -12.17448,21.02865 -10.56967,6.80664 -24.51498,6.80664 -10.12695,0 -18.53841,-3.8737 -10.29297,-4.75911 -10.45898,-13.0599 z" />
        <path
           inkscape:connector-curvature="0"
           id="path887"
           style="font-style:normal;font-variant:normal;font-weight:normal;font-stretch:normal;font-size:113.33333588px;font-family:'Comic Sans MS';-inkscape-font-specification:'Comic Sans MS';fill:#ffffff"
           d="m 324.05274,417.32863 q -0.0553,-2.32422 1.54948,-3.76302 1.66016,-1.49414 4.03971,-1.49414 2.71159,0 4.75912,3.09896 2.82226,4.20573 5.0358,5.69987 4.70378,3.09896 13.66862,3.09896 8.57748,0 15.93751,-3.70768 9.40755,-4.75912 9.40755,-13.22592 0,-6.97265 -7.91341,-11.01237 -6.69597,-3.48632 -16.54623,-3.76302 -8.74349,-0.33203 -14.88607,-3.81836 -7.85807,-4.48242 -7.85807,-12.83854 0,-9.85026 11.17839,-17.98502 10.68033,-7.69206 22.08007,-7.69206 5.36784,0 12.11915,1.82617 8.96484,2.37956 8.96484,6.08724 0,4.86979 -4.98047,4.86979 -2.21354,0 -7.7474,-1.16211 -5.53385,-1.21745 -8.57747,-1.16211 -8.63281,0.11068 -14.66471,4.26107 -6.19792,4.26107 -6.19792,10.34831 0,4.5931 8.1901,6.47461 3.04362,0.7194 11.78711,1.32812 12.67253,0.94076 19.8112,7.96875 6.52995,6.41927 6.52995,15.66081 0,13.17057 -12.17448,21.02865 -10.56966,6.80664 -24.51497,6.80664 -10.12696,0 -18.53842,-3.8737 -10.29296,-4.75911 -10.45898,-13.0599 z" />
      </g>
    </g>
  </g>
</svg>
