<?xml version="1.0" encoding="UTF-8" standalone="no"?>
<!-- Created with Inkscape (http://www.inkscape.org/) -->

<svg
   xmlns:dc="http://purl.org/dc/elements/1.1/"
   xmlns:cc="http://creativecommons.org/ns#"
   xmlns:rdf="http://www.w3.org/1999/02/22-rdf-syntax-ns#"
   xmlns:svg="http://www.w3.org/2000/svg"
   xmlns="http://www.w3.org/2000/svg"
   xmlns:sodipodi="http://sodipodi.sourceforge.net/DTD/sodipodi-0.dtd"
   xmlns:inkscape="http://www.inkscape.org/namespaces/inkscape"
   width="512"
   height="512"
   id="svg2"
   version="1.1"
   inkscape:version="0.92.2 5c3e80d, 2017-08-06"
   sodipodi:docname="text-rtf.svg">
  <defs
     id="defs4" />
  <sodipodi:namedview
     id="base"
     pagecolor="#ffffff"
     bordercolor="#666666"
     borderopacity="1.0"
     inkscape:pageopacity="0.0"
     inkscape:pageshadow="2"
     inkscape:zoom="0.30333332"
     inkscape:cx="786.68501"
     inkscape:cy="105.52468"
     inkscape:document-units="px"
     inkscape:current-layer="layer1"
     showgrid="false"
     inkscape:window-width="1366"
     inkscape:window-height="717"
     inkscape:window-x="0"
     inkscape:window-y="24"
     inkscape:window-maximized="1" />
  <metadata
     id="metadata7">
    <rdf:RDF>
      <cc:Work
         rdf:about="">
        <dc:format>image/svg+xml</dc:format>
        <dc:type
           rdf:resource="http://purl.org/dc/dcmitype/StillImage" />
        <dc:title></dc:title>
      </cc:Work>
    </rdf:RDF>
  </metadata>
  <g
     inkscape:label="Layer 1"
     inkscape:groupmode="layer"
     id="layer1"
     transform="translate(0,-540.36218)">
    <g
       id="g878">
      <g
         id="g875"
         transform="translate(2.475622e-7,3.7976449e-6)">
        <path
           id="path961"
           d="m 432.91326,596.83615 c 102.19291,88.57459 105.82678,249.69971 8.1168,359.89879 C 343.32009,1066.934 181.27965,1084.4628 79.086737,995.88819 -23.106205,907.31361 -26.740032,746.18849 70.969942,635.98941 168.67991,525.79033 330.72036,508.26156 432.91326,596.83615 Z"
           inkscape:connector-curvature="0"
           style="fill:#333333;fill-opacity:1;stroke-width:11.10955811" />
        <path
           sodipodi:nodetypes="csscc"
           inkscape:connector-curvature="0"
           id="path963"
           d="M 8.3652418,882.36219 C 19.949343,925.51392 43.551548,965.08856 79.085947,995.88759 181.27886,1084.4622 343.31934,1066.9343 441.02931,956.73524 461.38033,933.783 477.31886,908.61717 488.90235,882.36219 Z"
           style="fill:#1a1a1a;fill-opacity:1;stroke:none;stroke-width:0.99999994px;stroke-linecap:butt;stroke-linejoin:miter;stroke-opacity:1" />
        <path
           id="path965"
           d="M 511.6355,765.2657 C 510.08411,826.57734 486.47427,889.4203 440.66912,941.08017 342.95915,1051.2793 180.9187,1068.808 78.725759,980.23347 30.827126,938.71782 4.4968198,881.28502 0.1938269,820.59099 0.7990809,886.94766 27.117406,950.84436 79.078687,995.88129 181.2716,1084.4558 343.31975,1066.9184 441.02201,956.72795 490.72696,900.66984 514.02703,831.43698 511.6355,765.2657 Z"
           inkscape:connector-curvature="0"
           style="opacity:0.1;stroke-width:11.10955811" />
        <path
           id="path842"
           d="m 279.39851,607.37053 c -40.54988,-0.44739 -82.43884,17.13563 -112.77944,51.3543 -52.48108,59.18908 -50.53003,145.73036 4.35885,193.30473 54.88889,47.5743 141.92198,38.15912 194.40303,-21.02997 52.48105,-59.18909 50.53002,-145.73037 -4.35885,-193.3047 -23.15625,-20.07041 -52.03314,-29.99792 -81.62359,-30.32436 z m -57.24876,52.234 h 147.91887 a 4.9974815,4.9974815 0 1 1 0,9.99336 H 222.14975 a 4.9974815,4.9974815 0 1 1 0,-9.99336 z m -47.59454,26.44236 h 195.51341 a 4.9974819,4.9974819 0 1 1 0,9.99337 H 174.55521 a 4.9974819,4.9974819 0 1 1 0,-9.99337 z m 0,26.44237 h 195.51341 a 4.9974819,4.9974819 0 1 1 0,9.99336 H 174.55521 a 4.9974819,4.9974819 0 1 1 0,-9.99336 z m 0,26.44236 h 195.51341 a 4.9974819,4.9974819 0 1 1 0,9.99337 H 174.55521 a 4.9974819,4.9974819 0 1 1 0,-9.99337 z m 0,26.44237 h 195.51341 a 4.9974819,4.9974819 0 1 1 0,9.99336 H 174.55521 a 4.9974819,4.9974819 0 1 1 0,-9.99336 z m 0,26.44236 h 195.51341 a 4.9974822,4.9974822 0 1 1 0,9.99337 H 174.55521 a 4.9974822,4.9974822 0 1 1 0,-9.99337 z m 0,26.44237 h 121.47651 a 4.9974822,4.9974822 0 1 1 0,9.99336 H 174.55521 a 4.9974822,4.9974822 0 1 1 0,-9.99336 z"
           style="fill:#2e2e2e;fill-opacity:1;stroke-width:5.96706104"
           inkscape:connector-curvature="0" />
        <path
           inkscape:connector-curvature="0"
           style="fill:#ffffff;fill-opacity:1;stroke-width:5.96706104"
           d="m 269.39851,597.37053 c -40.54988,-0.44739 -82.43884,17.13563 -112.77944,51.3543 -52.48108,59.18908 -50.53003,145.73036 4.35885,193.30473 54.88889,47.5743 141.92198,38.15912 194.40303,-21.02997 52.48105,-59.18909 50.53002,-145.73037 -4.35885,-193.3047 -23.15625,-20.07041 -52.03314,-29.99792 -81.62359,-30.32436 z m -57.24876,52.234 h 147.91887 a 4.9974815,4.9974815 0 1 1 0,9.99336 H 212.14975 a 4.9974815,4.9974815 0 1 1 0,-9.99336 z m -47.59454,26.44236 h 195.51341 a 4.9974819,4.9974819 0 1 1 0,9.99337 H 164.55521 a 4.9974819,4.9974819 0 1 1 0,-9.99337 z m 0,26.44237 h 195.51341 a 4.9974819,4.9974819 0 1 1 0,9.99336 H 164.55521 a 4.9974819,4.9974819 0 1 1 0,-9.99336 z m 0,26.44236 h 195.51341 a 4.9974819,4.9974819 0 1 1 0,9.99337 H 164.55521 a 4.9974819,4.9974819 0 1 1 0,-9.99337 z m 0,26.44237 h 195.51341 a 4.9974819,4.9974819 0 1 1 0,9.99336 H 164.55521 a 4.9974819,4.9974819 0 1 1 0,-9.99336 z m 0,26.44236 h 195.51341 a 4.9974822,4.9974822 0 1 1 0,9.99337 H 164.55521 a 4.9974822,4.9974822 0 1 1 0,-9.99337 z m 0,26.44237 h 121.47651 a 4.9974822,4.9974822 0 1 1 0,9.99336 H 164.55521 a 4.9974822,4.9974822 0 1 1 0,-9.99336 z"
           id="path833" />
      </g>
      <g
         aria-label="RTF"
         transform="translate(45.96289,545.44696)"
         style="font-style:normal;font-weight:normal;font-size:40px;line-height:1.25;font-family:sans-serif;letter-spacing:0px;word-spacing:0px;fill:#171717;fill-opacity:1;stroke:none"
         id="g862">
        <path
           d="m 171.8737,446.65806 q -2.10287,0 -3.92904,-1.77083 -18.31705,-18.09571 -40.72916,-24.34896 l 0.4427,10.84635 0.2767,10.9017 q 0,2.43489 -1.60482,4.03971 -1.54948,1.66016 -3.92904,1.66016 -2.37956,0 -3.98437,-1.66016 -1.54948,-1.60482 -1.54948,-4.03971 0,-4.37175 -0.44271,-13.00456 -0.38737,-8.68815 -0.38737,-13.0599 0,-5.09114 1.10677,-15.16276 1.10677,-10.07161 1.10677,-15.10742 0,-2.82227 -0.55338,-8.35612 -0.49805,-5.53385 -0.49805,-8.35612 0,-3.1543 1.77083,-5.53385 2.10287,-2.93295 5.81055,-2.65625 l 13.33659,1.05143 q 7.58138,0.94075 12.7832,3.70768 22.41211,11.89779 22.41211,29.05273 0,8.41146 -7.63672,14.88607 -6.14258,5.20183 -15.32877,7.91341 17.21028,9.24154 25.73242,19.47917 1.4388,1.77084 1.4388,3.76302 0,2.32422 -1.71549,4.03972 -1.66016,1.71549 -3.92904,1.71549 z m -35.25065,-73.15755 -8.19011,-0.66407 0.55339,6.69597 q 0.38737,4.09505 0.38737,6.69596 0,4.42709 -0.7194,11.01237 l -1.16211,11.01237 q 0.77474,0 2.37956,0.0553 1.66015,0.0553 2.49023,0.0553 14.11133,0 21.13932,-3.76302 3.09896,-1.7155 5.75521,-4.48242 2.93294,-3.09896 2.93294,-5.25717 0,-7.69205 -8.74349,-14.33268 -8.02408,-6.08724 -16.82291,-7.02799 z"
           style="font-style:normal;font-variant:normal;font-weight:normal;font-stretch:normal;font-size:113.33333588px;font-family:'Comic Sans MS';-inkscape-font-specification:'Comic Sans MS';fill:#171717;fill-opacity:1"
           id="path856"
           inkscape:connector-curvature="0" />
        <path
           d="m 256.20964,376.15676 q -4.09505,0 -12.61719,-0.66407 -8.30078,-0.60872 -12.61718,-0.55338 h -3.92904 q 0.16602,7.63672 1.49414,24.79167 1.21745,15.99284 1.21745,24.847 0,1.93685 0.38737,5.86589 0.38737,3.92903 0.38737,5.92122 0,3.76302 -1.21745,6.47461 -1.54948,3.65235 -4.81445,3.65235 -2.21354,0 -3.98438,-1.54948 -1.77083,-1.54948 -1.77083,-3.98438 0,-0.83008 0.27669,-2.49023 0.27669,-1.66016 0.27669,-2.49024 0,-2.71159 -0.38737,-8.13476 -0.33203,-5.42318 -0.33203,-8.19011 0,-7.91341 -1.27278,-22.24609 -1.32813,-15.49479 -1.49414,-22.2461 l -5.03581,0.0553 q -12.11914,0 -19.03646,-1.77083 -4.48242,-1.16211 -4.48242,-5.47852 0,-2.26888 1.4388,-3.98437 1.66016,-1.93685 4.26107,-1.77084 1.93685,0.11068 8.85416,0.9961 5.53386,0.66406 8.96485,0.66406 3.32031,0 10.07161,-0.11068 6.75131,-0.16601 10.07162,-0.16601 4.26107,0 12.61719,0.60872 8.41145,0.60873 12.67252,0.60873 2.37956,0 3.98438,1.66015 1.60482,1.60482 1.60482,4.03972 0,2.37955 -1.60482,4.03971 -1.60482,1.60482 -3.98438,1.60482 z"
           style="font-style:normal;font-variant:normal;font-weight:normal;font-stretch:normal;font-size:113.33333588px;font-family:'Comic Sans MS';-inkscape-font-specification:'Comic Sans MS';fill:#171717;fill-opacity:1"
           id="path858"
           inkscape:connector-curvature="0" />
        <path
           d="m 319.07423,373.33449 q -0.9961,0 -2.10287,-0.44271 -6.86198,-2.54557 -18.15104,-2.54557 -3.65235,0 -8.57748,0.55339 -4.86979,0.49804 -10.95703,1.60481 l -0.11067,23.90625 q 10.68033,-2.82226 16.04817,-2.82226 8.52214,0 17.653,0.99609 5.20182,0.55339 5.20182,5.64453 0,2.49024 -1.60482,4.15039 -1.60481,1.60482 -3.98437,1.60482 -2.87761,0 -8.63281,-0.49804 -5.75521,-0.49805 -8.63282,-0.49805 -3.76302,0 -16.26953,3.20963 l -0.49805,38.07292 q 0,2.37956 -1.54947,3.98438 -1.54948,1.66015 -3.92904,1.66015 -2.37956,0 -3.98438,-1.66015 -1.54948,-1.60482 -1.54948,-3.98438 0,-10.90169 0.38737,-32.70508 0.44271,-21.85872 0.44271,-32.76041 0,-2.4349 -0.11067,-7.30469 -0.0553,-4.92513 -0.0553,-7.36003 0,-2.43489 1.49414,-4.09505 1.54948,-1.66016 3.98437,-1.66016 1.82617,0 3.26498,0.9961 6.86198,-1.21745 12.34049,-1.77084 5.47852,-0.60872 9.62891,-0.60872 6.36393,0 14.55404,1.82617 11.12304,2.54557 11.12304,6.64063 0,2.21354 -1.4388,3.92903 -1.60482,1.93685 -3.98437,1.93685 z"
           style="font-style:normal;font-variant:normal;font-weight:normal;font-stretch:normal;font-size:113.33333588px;font-family:'Comic Sans MS';-inkscape-font-specification:'Comic Sans MS';fill:#171717;fill-opacity:1"
           id="path860"
           inkscape:connector-curvature="0" />
      </g>
      <g
         id="flowRoot841"
         style="font-style:normal;font-weight:normal;font-size:40px;line-height:1.25;font-family:sans-serif;letter-spacing:0px;word-spacing:0px;fill:#000000;fill-opacity:1;stroke:none"
         transform="translate(35.96289,535.44696)"
         aria-label="RTF">
        <path
           inkscape:connector-curvature="0"
           id="path849"
           style="font-style:normal;font-variant:normal;font-weight:normal;font-stretch:normal;font-size:113.33333588px;font-family:'Comic Sans MS';-inkscape-font-specification:'Comic Sans MS';fill:#ffffff"
           d="m 171.8737,446.65806 q -2.10287,0 -3.92904,-1.77083 -18.31705,-18.09571 -40.72916,-24.34896 l 0.4427,10.84635 0.2767,10.9017 q 0,2.43489 -1.60482,4.03971 -1.54948,1.66016 -3.92904,1.66016 -2.37956,0 -3.98437,-1.66016 -1.54948,-1.60482 -1.54948,-4.03971 0,-4.37175 -0.44271,-13.00456 -0.38737,-8.68815 -0.38737,-13.0599 0,-5.09114 1.10677,-15.16276 1.10677,-10.07161 1.10677,-15.10742 0,-2.82227 -0.55338,-8.35612 -0.49805,-5.53385 -0.49805,-8.35612 0,-3.1543 1.77083,-5.53385 2.10287,-2.93295 5.81055,-2.65625 l 13.33659,1.05143 q 7.58138,0.94075 12.7832,3.70768 22.41211,11.89779 22.41211,29.05273 0,8.41146 -7.63672,14.88607 -6.14258,5.20183 -15.32877,7.91341 17.21028,9.24154 25.73242,19.47917 1.4388,1.77084 1.4388,3.76302 0,2.32422 -1.71549,4.03972 -1.66016,1.71549 -3.92904,1.71549 z m -35.25065,-73.15755 -8.19011,-0.66407 0.55339,6.69597 q 0.38737,4.09505 0.38737,6.69596 0,4.42709 -0.7194,11.01237 l -1.16211,11.01237 q 0.77474,0 2.37956,0.0553 1.66015,0.0553 2.49023,0.0553 14.11133,0 21.13932,-3.76302 3.09896,-1.7155 5.75521,-4.48242 2.93294,-3.09896 2.93294,-5.25717 0,-7.69205 -8.74349,-14.33268 -8.02408,-6.08724 -16.82291,-7.02799 z" />
        <path
           inkscape:connector-curvature="0"
           id="path851"
           style="font-style:normal;font-variant:normal;font-weight:normal;font-stretch:normal;font-size:113.33333588px;font-family:'Comic Sans MS';-inkscape-font-specification:'Comic Sans MS';fill:#ffffff"
           d="m 256.20964,376.15676 q -4.09505,0 -12.61719,-0.66407 -8.30078,-0.60872 -12.61718,-0.55338 h -3.92904 q 0.16602,7.63672 1.49414,24.79167 1.21745,15.99284 1.21745,24.847 0,1.93685 0.38737,5.86589 0.38737,3.92903 0.38737,5.92122 0,3.76302 -1.21745,6.47461 -1.54948,3.65235 -4.81445,3.65235 -2.21354,0 -3.98438,-1.54948 -1.77083,-1.54948 -1.77083,-3.98438 0,-0.83008 0.27669,-2.49023 0.27669,-1.66016 0.27669,-2.49024 0,-2.71159 -0.38737,-8.13476 -0.33203,-5.42318 -0.33203,-8.19011 0,-7.91341 -1.27278,-22.24609 -1.32813,-15.49479 -1.49414,-22.2461 l -5.03581,0.0553 q -12.11914,0 -19.03646,-1.77083 -4.48242,-1.16211 -4.48242,-5.47852 0,-2.26888 1.4388,-3.98437 1.66016,-1.93685 4.26107,-1.77084 1.93685,0.11068 8.85416,0.9961 5.53386,0.66406 8.96485,0.66406 3.32031,0 10.07161,-0.11068 6.75131,-0.16601 10.07162,-0.16601 4.26107,0 12.61719,0.60872 8.41145,0.60873 12.67252,0.60873 2.37956,0 3.98438,1.66015 1.60482,1.60482 1.60482,4.03972 0,2.37955 -1.60482,4.03971 -1.60482,1.60482 -3.98438,1.60482 z" />
        <path
           inkscape:connector-curvature="0"
           id="path853"
           style="font-style:normal;font-variant:normal;font-weight:normal;font-stretch:normal;font-size:113.33333588px;font-family:'Comic Sans MS';-inkscape-font-specification:'Comic Sans MS';fill:#ffffff"
           d="m 319.07423,373.33449 q -0.9961,0 -2.10287,-0.44271 -6.86198,-2.54557 -18.15104,-2.54557 -3.65235,0 -8.57748,0.55339 -4.86979,0.49804 -10.95703,1.60481 l -0.11067,23.90625 q 10.68033,-2.82226 16.04817,-2.82226 8.52214,0 17.653,0.99609 5.20182,0.55339 5.20182,5.64453 0,2.49024 -1.60482,4.15039 -1.60481,1.60482 -3.98437,1.60482 -2.87761,0 -8.63281,-0.49804 -5.75521,-0.49805 -8.63282,-0.49805 -3.76302,0 -16.26953,3.20963 l -0.49805,38.07292 q 0,2.37956 -1.54947,3.98438 -1.54948,1.66015 -3.92904,1.66015 -2.37956,0 -3.98438,-1.66015 -1.54948,-1.60482 -1.54948,-3.98438 0,-10.90169 0.38737,-32.70508 0.44271,-21.85872 0.44271,-32.76041 0,-2.4349 -0.11067,-7.30469 -0.0553,-4.92513 -0.0553,-7.36003 0,-2.43489 1.49414,-4.09505 1.54948,-1.66016 3.98437,-1.66016 1.82617,0 3.26498,0.9961 6.86198,-1.21745 12.34049,-1.77084 5.47852,-0.60872 9.62891,-0.60872 6.36393,0 14.55404,1.82617 11.12304,2.54557 11.12304,6.64063 0,2.21354 -1.4388,3.92903 -1.60482,1.93685 -3.98437,1.93685 z" />
      </g>
    </g>
  </g>
</svg>
