<?xml version="1.0" encoding="UTF-8" standalone="no"?>
<!-- Created with Inkscape (http://www.inkscape.org/) -->

<svg
   xmlns:dc="http://purl.org/dc/elements/1.1/"
   xmlns:cc="http://creativecommons.org/ns#"
   xmlns:rdf="http://www.w3.org/1999/02/22-rdf-syntax-ns#"
   xmlns:svg="http://www.w3.org/2000/svg"
   xmlns="http://www.w3.org/2000/svg"
   xmlns:sodipodi="http://sodipodi.sourceforge.net/DTD/sodipodi-0.dtd"
   xmlns:inkscape="http://www.inkscape.org/namespaces/inkscape"
   width="512"
   height="512"
   id="svg2"
   version="1.1"
   inkscape:version="0.92.2 5c3e80d, 2017-08-06"
   sodipodi:docname="text-x-copying.svg">
  <defs
     id="defs4" />
  <sodipodi:namedview
     id="base"
     pagecolor="#ffffff"
     bordercolor="#666666"
     borderopacity="1.0"
     inkscape:pageopacity="0.0"
     inkscape:pageshadow="2"
     inkscape:zoom="0.21448905"
     inkscape:cx="-453.01384"
     inkscape:cy="292.33729"
     inkscape:document-units="px"
     inkscape:current-layer="layer1"
     showgrid="false"
     inkscape:window-width="1366"
     inkscape:window-height="717"
     inkscape:window-x="0"
     inkscape:window-y="24"
     inkscape:window-maximized="1" />
  <metadata
     id="metadata7">
    <rdf:RDF>
      <cc:Work
         rdf:about="">
        <dc:format>image/svg+xml</dc:format>
        <dc:type
           rdf:resource="http://purl.org/dc/dcmitype/StillImage" />
        <dc:title />
      </cc:Work>
    </rdf:RDF>
  </metadata>
  <g
     inkscape:label="Layer 1"
     inkscape:groupmode="layer"
     id="layer1"
     transform="translate(0,-540.36218)">
    <g
       id="g903">
      <path
         style="fill:#7a36b1;fill-opacity:1;stroke-width:11.10955811"
         inkscape:connector-curvature="0"
         d="m 432.91326,596.8362 c 102.19291,88.57459 105.82678,249.69971 8.1168,359.8988 C 343.32009,1066.934 181.27965,1084.4628 79.086745,995.8882 -23.106205,907.31366 -26.740035,746.18854 70.969945,635.98946 168.67991,525.79038 330.72036,508.26161 432.91326,596.8362 Z"
         id="path949" />
      <path
         style="fill:#4c158a;fill-opacity:1;stroke:none;stroke-width:0.99999994px;stroke-linecap:butt;stroke-linejoin:miter;stroke-opacity:1"
         d="M 8.3652452,882.36224 C 19.949345,925.51397 43.551545,965.0886 79.085945,995.8876 c 102.192915,88.5746 264.233395,71.0467 361.943365,-39.1523 20.35102,-22.95225 36.28955,-48.11808 47.87304,-74.37306 z"
         id="path951"
         inkscape:connector-curvature="0"
         sodipodi:nodetypes="csscc" />
      <path
         style="opacity:1;stroke-width:11.10955811;fill:#000000;fill-opacity:0.49019608"
         inkscape:connector-curvature="0"
         d="m 511.6355,765.26575 c -1.55139,61.31164 -25.16123,124.1546 -70.96638,175.81447 C 342.95915,1051.2793 180.9187,1068.808 78.725755,980.2335 30.827125,938.71787 4.4968152,881.28507 0.19382516,820.59104 0.79907516,886.94771 27.117405,950.84441 79.078685,995.8813 181.2716,1084.4558 343.31975,1066.9184 441.02201,956.728 490.72696,900.66989 514.02703,831.43703 511.6355,765.26575 Z"
         id="path953" />
      <g
         style="fill:#000000;fill-opacity:0.49019608"
         id="g867"
         transform="translate(8.845978,24.374995)">
        <g
           id="g863"
           style="font-style:normal;font-variant:normal;font-weight:normal;font-stretch:normal;font-size:40px;line-height:1.25;font-family:'Comic Sans MS';-inkscape-font-specification:'Comic Sans MS';letter-spacing:0px;word-spacing:0px;fill:#000000;fill-opacity:0.49019608;stroke:none"
           transform="matrix(5.2171334,0,0,5.2171334,-762.93193,34.371312)"
           aria-label="C">
          <path
             style="fill:#000000;fill-opacity:0.49019608"
             inkscape:connector-curvature="0"
             id="path861"
             d="m 206.17773,125.50098 q -1.25,0 -1.875,-1.46484 -0.54687,-1.25 -1.01562,-1.52344 -0.41016,-0.21484 -2.03125,-0.21484 -2.83203,0 -6.28906,4.33594 -4.6875,5.82031 -4.6875,11.03515 0,2.51953 1.62109,4.33594 1.66016,1.875 4.00391,1.875 2.01172,0 4.04297,-1.03516 1.13281,-0.58593 3.47656,-2.30468 1.11328,-0.82032 1.67969,-0.82032 0.83984,0 1.40625,0.64453 0.5664,0.625 0.5664,1.40625 0,0.87891 -0.74219,1.54297 -5.15625,4.57032 -10.42968,4.57032 -4.04297,0 -6.83594,-3.10547 -2.69531,-3.00782 -2.69531,-7.10938 0,-6.62109 5.54687,-13.57422 4.62891,-5.80078 9.33594,-5.80078 0.95703,0 1.71875,0.0977 0.76172,0.0781 1.34766,0.27344 0.68359,-0.9961 1.77734,-0.9961 1.34766,0 1.69922,1.77735 0.3125,1.58203 0.3125,3.88671 0,0.80079 -0.42969,1.40625 -0.52734,0.76172 -1.50391,0.76172 z" />
        </g>
        <path
           inkscape:connector-curvature="0"
           id="path865"
           d="m 338.77769,608.51846 c -60.25043,-35.34076 -140.50387,-8.08192 -179.6067,58.58204 -39.10278,66.66406 -23.72893,150.0146 36.52145,185.35541 60.25043,35.34076 140.50392,8.08192 179.6067,-58.58209 39.10278,-66.66401 23.72893,-150.01455 -36.52145,-185.35536 z m -10.45018,17.81583 c 49.26972,28.89989 63.29609,98.86546 29.14698,157.08418 -34.14911,58.21878 -102.06215,80.12145 -151.33188,51.22156 -49.26966,-28.8999 -63.29608,-98.86541 -29.14697,-157.08418 34.14911,-58.21873 102.06221,-80.12145 151.33187,-51.22156 z"
           style="color:#000000;font-style:normal;font-variant:normal;font-weight:normal;font-stretch:normal;font-size:medium;line-height:normal;font-family:sans-serif;font-variant-ligatures:normal;font-variant-position:normal;font-variant-caps:normal;font-variant-numeric:normal;font-variant-alternates:normal;font-feature-settings:normal;text-indent:0;text-align:start;text-decoration:none;text-decoration-line:none;text-decoration-style:solid;text-decoration-color:#000000;letter-spacing:normal;word-spacing:normal;text-transform:none;writing-mode:lr-tb;direction:ltr;text-orientation:mixed;dominant-baseline:auto;baseline-shift:baseline;text-anchor:start;white-space:normal;shape-padding:0;clip-rule:nonzero;display:inline;overflow:visible;visibility:visible;opacity:1;isolation:auto;mix-blend-mode:normal;color-interpolation:sRGB;color-interpolation-filters:linearRGB;solid-color:#000000;solid-opacity:1;vector-effect:none;fill:#000000;fill-opacity:0.49019608;fill-rule:nonzero;stroke:none;stroke-width:20.65777779;stroke-linecap:butt;stroke-linejoin:miter;stroke-miterlimit:4;stroke-dasharray:none;stroke-dashoffset:0;stroke-opacity:1;color-rendering:auto;image-rendering:auto;shape-rendering:auto;text-rendering:auto;enable-background:accumulate" />
      </g>
      <g
         transform="translate(-11.154022,4.3749925)"
         id="g859">
        <g
           aria-label="C"
           transform="matrix(5.2171334,0,0,5.2171334,-762.93193,34.371312)"
           style="font-style:normal;font-variant:normal;font-weight:normal;font-stretch:normal;font-size:40px;line-height:1.25;font-family:'Comic Sans MS';-inkscape-font-specification:'Comic Sans MS';letter-spacing:0px;word-spacing:0px;fill:#ffffff;fill-opacity:1;stroke:none"
           id="flowRoot841">
          <path
             d="m 206.17773,125.50098 q -1.25,0 -1.875,-1.46484 -0.54687,-1.25 -1.01562,-1.52344 -0.41016,-0.21484 -2.03125,-0.21484 -2.83203,0 -6.28906,4.33594 -4.6875,5.82031 -4.6875,11.03515 0,2.51953 1.62109,4.33594 1.66016,1.875 4.00391,1.875 2.01172,0 4.04297,-1.03516 1.13281,-0.58593 3.47656,-2.30468 1.11328,-0.82032 1.67969,-0.82032 0.83984,0 1.40625,0.64453 0.5664,0.625 0.5664,1.40625 0,0.87891 -0.74219,1.54297 -5.15625,4.57032 -10.42968,4.57032 -4.04297,0 -6.83594,-3.10547 -2.69531,-3.00782 -2.69531,-7.10938 0,-6.62109 5.54687,-13.57422 4.62891,-5.80078 9.33594,-5.80078 0.95703,0 1.71875,0.0977 0.76172,0.0781 1.34766,0.27344 0.68359,-0.9961 1.77734,-0.9961 1.34766,0 1.69922,1.77735 0.3125,1.58203 0.3125,3.88671 0,0.80079 -0.42969,1.40625 -0.52734,0.76172 -1.50391,0.76172 z"
             id="path849"
             inkscape:connector-curvature="0"
             style="fill:#ffffff" />
        </g>
        <path
           style="color:#000000;font-style:normal;font-variant:normal;font-weight:normal;font-stretch:normal;font-size:medium;line-height:normal;font-family:sans-serif;font-variant-ligatures:normal;font-variant-position:normal;font-variant-caps:normal;font-variant-numeric:normal;font-variant-alternates:normal;font-feature-settings:normal;text-indent:0;text-align:start;text-decoration:none;text-decoration-line:none;text-decoration-style:solid;text-decoration-color:#000000;letter-spacing:normal;word-spacing:normal;text-transform:none;writing-mode:lr-tb;direction:ltr;text-orientation:mixed;dominant-baseline:auto;baseline-shift:baseline;text-anchor:start;white-space:normal;shape-padding:0;clip-rule:nonzero;display:inline;overflow:visible;visibility:visible;opacity:1;isolation:auto;mix-blend-mode:normal;color-interpolation:sRGB;color-interpolation-filters:linearRGB;solid-color:#000000;solid-opacity:1;vector-effect:none;fill:#ffffff;fill-opacity:1;fill-rule:nonzero;stroke:none;stroke-width:20.65777779;stroke-linecap:butt;stroke-linejoin:miter;stroke-miterlimit:4;stroke-dasharray:none;stroke-dashoffset:0;stroke-opacity:1;color-rendering:auto;image-rendering:auto;shape-rendering:auto;text-rendering:auto;enable-background:accumulate"
           d="m 338.77769,608.51846 c -60.25043,-35.34076 -140.50387,-8.08192 -179.6067,58.58204 -39.10278,66.66406 -23.72893,150.0146 36.52145,185.35541 60.25043,35.34076 140.50392,8.08192 179.6067,-58.58209 39.10278,-66.66401 23.72893,-150.01455 -36.52145,-185.35536 z m -10.45018,17.81583 c 49.26972,28.89989 63.29609,98.86546 29.14698,157.08418 -34.14911,58.21878 -102.06215,80.12145 -151.33188,51.22156 -49.26966,-28.8999 -63.29608,-98.86541 -29.14697,-157.08418 34.14911,-58.21873 102.06221,-80.12145 151.33187,-51.22156 z"
           id="path852"
           inkscape:connector-curvature="0" />
      </g>
      <path
         inkscape:connector-curvature="0"
         id="path941"
         style="font-style:normal;font-variant:normal;font-weight:normal;font-stretch:normal;font-size:medium;line-height:1.25;font-family:'Comic Sans MS';-inkscape-font-specification:'Comic Sans MS';letter-spacing:0px;word-spacing:0px;fill:#000000;fill-opacity:0.49019608;stroke:none;stroke-width:1.75846076"
         d="m 135.59577,966.11391 q -2.19808,0 -3.29711,-2.57588 -0.96167,-2.19808 -1.78595,-2.67889 -0.72123,-0.37781 -3.57187,-0.37781 -4.98002,0 -11.05907,7.62458 -8.24278,10.23479 -8.24278,19.4049 0,4.43049 2.85063,7.62456 2.91932,3.29711 7.04071,3.29711 3.53753,0 7.1094,-1.82027 1.992,-1.03035 6.1134,-4.0527 1.95766,-1.44249 2.95367,-1.44249 1.47682,0 2.47283,1.13338 0.99601,1.09904 0.99601,2.47284 0,1.54553 -1.30511,2.71325 -9.06706,8.03671 -18.3402,8.03671 -7.1094,0 -12.02073,-5.4608 -4.7396,-5.28916 -4.7396,-12.50159 0,-11.64295 9.75396,-23.86974 8.13975,-10.20044 16.41688,-10.20044 1.68291,0 3.02235,0.17162 1.33946,0.13734 2.36981,0.48084 1.20206,-1.75159 3.12538,-1.75159 2.36981,0 2.98801,3.12539 0.54952,2.78193 0.54952,6.83464 0,1.40814 -0.75557,2.47284 -0.92733,1.33945 -2.64457,1.33945 z" />
      <path
         inkscape:connector-curvature="0"
         id="path943"
         style="font-style:normal;font-variant:normal;font-weight:normal;font-stretch:normal;font-size:medium;line-height:1.25;font-family:'Comic Sans MS';-inkscape-font-specification:'Comic Sans MS';letter-spacing:0px;word-spacing:0px;fill:#000000;fill-opacity:0.49019608;stroke:none;stroke-width:1.75846076"
         d="m 167.67395,1006.744 q -9.68529,0 -16.41689,-5.8043 -7.14375,-6.18212 -7.14375,-15.93607 0,-11.88336 7.04072,-21.60297 7.86498,-10.78431 19.61096,-10.78431 11.29948,0 16.79467,5.08304 5.7356,5.28912 5.7356,16.69165 0,11.88334 -6.45685,21.43124 -7.41851,10.92172 -19.16446,10.92172 z m 3.09104,-47.08695 q -8.41452,0 -14.25316,8.38018 -5.39216,7.69326 -5.39216,16.9664 0,6.62857 4.91133,10.7843 4.70525,3.91532 11.64295,3.91532 8.34581,0 13.77231,-8.41451 4.84263,-7.52154 4.84263,-16.8977 0,-8.20845 -3.6749,-11.5399 -3.50319,-3.19409 -11.849,-3.19409 z" />
      <path
         inkscape:connector-curvature="0"
         id="path945"
         style="font-style:normal;font-variant:normal;font-weight:normal;font-stretch:normal;font-size:medium;line-height:1.25;font-family:'Comic Sans MS';-inkscape-font-specification:'Comic Sans MS';letter-spacing:0px;word-spacing:0px;fill:#000000;fill-opacity:0.49019608;stroke:none;stroke-width:1.75846076"
         d="m 210.50207,984.48845 q -0.96165,0 -4.19008,-0.44649 -0.27476,5.18609 -0.27476,18.16844 0,1.3738 -0.89296,2.3355 -0.89297,0.9273 -2.23242,0.9273 -1.3738,0 -2.26676,-0.9273 -0.89299,-0.9617 -0.89299,-2.3355 v -10.09738 q 0,-5.0487 0.61823,-14.2188 0.68689,-9.92568 0.75557,-14.2188 v -4.7396 q 0,-3.40016 0.41215,-4.94567 0.78994,-3.02236 3.3658,-2.61023 1.09904,-0.34344 3.12538,-0.51517 2.02636,-0.17163 4.98003,-0.17163 6.28511,0 11.7803,4.29311 6.04471,4.73961 6.04471,11.40253 0,8.51754 -6.45684,13.56624 -5.76995,4.53354 -13.87536,4.53354 z m 1.71726,-27.26989 q -1.51119,0 -2.71326,0.0688 -1.16772,0.0688 -1.992,0.20606 l -0.0687,6.31947 -0.72124,13.66929 3.77793,0.44649 q 5.76995,0 9.71963,-2.91933 4.32747,-3.19406 4.32747,-8.62057 0,-3.84663 -4.12139,-6.62857 -3.81229,-2.54154 -8.20845,-2.54154 z" />
      <path
         inkscape:connector-curvature="0"
         id="path947"
         style="font-style:normal;font-variant:normal;font-weight:normal;font-stretch:normal;font-size:medium;line-height:1.25;font-family:'Comic Sans MS';-inkscape-font-specification:'Comic Sans MS';letter-spacing:0px;word-spacing:0px;fill:#000000;fill-opacity:0.49019608;stroke:none;stroke-width:1.75846076"
         d="m 273.25028,960.72175 q -0.82428,1.30511 -2.19808,4.01836 l -5.90734,14.5966 q -3.43448,8.20844 -6.45683,14.35618 l -4.29313,7.65891 -1.82027,3.7093 q -1.1334,1.992 -3.05671,1.992 -1.33944,0 -2.43848,-0.996 -1.09904,-0.996 -1.09904,-2.4729 0,-1.1677 3.22841,-7.31543 l 4.22444,-7.72763 q -6.14775,-7.93366 -7.96802,-12.50155 -1.54553,-3.88097 -5.15175,-9.30748 -4.94567,-7.4185 -5.80429,-8.96403 -0.51518,-0.92731 -0.51518,-1.85462 0,-1.47684 1.0647,-2.47283 1.09904,-1.03035 2.47283,-1.03035 1.6829,0 2.81628,1.61421 l 2.7476,4.25876 q 3.64056,5.39217 4.8083,7.34983 2.57586,4.22442 4.01835,7.83065 1.13338,2.85062 4.84264,7.79629 l 7.86498,-19.16448 q 1.33945,-2.36979 3.70926,-7.31546 0.96165,-2.33546 3.19409,-2.33546 1.37379,0 2.43847,0.96167 1.09904,0.96165 1.09904,2.47283 0,1.57986 -1.82027,4.84263 z" />
      <path
         inkscape:connector-curvature="0"
         id="path950"
         style="font-style:normal;font-variant:normal;font-weight:normal;font-stretch:normal;font-size:medium;line-height:1.25;font-family:'Comic Sans MS';-inkscape-font-specification:'Comic Sans MS';letter-spacing:0px;word-spacing:0px;fill:#000000;fill-opacity:0.49019608;stroke:none;stroke-width:1.75846076"
         d="m 310.51453,961.85513 q -2.19808,0 -5.52954,-0.44648 l -5.52953,-0.72125 q -0.78994,9.99437 -0.78994,19.0958 0,2.40413 0.13734,5.94166 0.13734,3.53753 0.13734,5.94168 0,3.22843 -0.24042,5.87298 l 10.81866,-0.13734 q 1.44249,0 2.40415,1.03034 0.996,0.99601 0.996,2.47288 0,1.5111 -0.996,2.5415 -0.96166,0.996 -2.40415,0.996 -1.92331,0 -5.76994,0.103 -3.84664,0.069 -5.76995,0.069 -2.26677,0 -6.80031,0.6182 -4.49918,0.6526 -6.8003,0.6526 -1.44248,0 -2.43849,-1.0304 -0.96165,-0.996 -0.96165,-2.4728 0,-1.4769 0.96165,-2.50721 0.99601,-1.03035 2.43849,-1.03035 2.23242,0 7.38417,-0.72125 0.34344,-2.78194 0.34344,-6.35381 0,-2.36979 -0.2404,-5.76995 -0.20607,-3.43449 -0.20607,-5.76995 0,-7.93369 0.96165,-19.81703 l -4.46484,0.13734 -4.46484,0.10304 q -1.47684,0 -2.47283,-0.99601 -0.99601,-0.99599 -0.99601,-2.54152 0,-3.19408 3.22843,-3.50319 2.78193,-0.27476 10.40651,-0.27476 6.83465,0 17.13812,1.47685 3.0567,0.44647 3.0567,3.6749 0,1.61421 -1.16773,2.57586 -1.03035,0.78994 -2.3698,0.78994 z" />
      <path
         inkscape:connector-curvature="0"
         id="path952"
         style="font-style:normal;font-variant:normal;font-weight:normal;font-stretch:normal;font-size:medium;line-height:1.25;font-family:'Comic Sans MS';-inkscape-font-specification:'Comic Sans MS';letter-spacing:0px;word-spacing:0px;fill:#000000;fill-opacity:0.49019608;stroke:none;stroke-width:1.75846076"
         d="m 369.0383,997.02434 q 0,1.64856 -0.54952,5.49516 -0.54952,3.4689 -3.6749,3.4689 -1.88898,0 -4.49918,-2.4729 -13.97839,-13.22276 -32.07818,-38.15718 l -0.1718,7.79629 -0.10305,7.83065 q 0,2.85063 0.10305,8.55189 0.13734,5.70127 0.13734,8.58623 0,9.23882 -3.57188,9.23882 -1.88897,0 -2.98801,-1.2021 -0.99601,-1.0647 -0.99601,-2.5415 0,-1.4425 0.20607,-4.36184 0.24042,-2.91931 0.24042,-4.36179 0,-2.12939 0.13734,-6.35383 0.13733,-4.25876 0.13733,-6.38815 0,-2.26676 -0.10304,-6.83465 -0.10305,-4.60221 -0.10305,-6.86898 0,-2.16374 -0.41213,-6.4225 -0.41215,-4.29312 -0.41215,-6.45686 0,-1.57985 1.33946,-2.88496 1.3738,-1.30512 3.09104,-1.30512 1.82029,0 4.4992,3.98403 8.55188,12.81065 15.38653,21.29385 8.13974,10.06307 17.85937,19.23316 0.10304,-1.47682 0,-4.36181 l -0.10305,-4.32745 q 0,-15.07743 -1.16772,-24.00712 -0.13734,-0.89296 -0.92731,-3.60621 -0.68691,-2.33545 -0.68691,-3.64056 0,-3.98402 3.64056,-3.98402 5.97602,0 5.97602,22.28986 0,3.81229 -0.10304,11.40253 -0.10305,7.55587 -0.10305,11.36816 z" />
      <path
         id="path954"
         transform="translate(0,540.36218)"
         d="M 399.19336 410.33008 C 395.91914 410.33008 392.81553 411.62362 389.88477 414.21094 C 385.48861 418.08046 381.88269 423.16437 379.06641 429.46094 C 376.27302 435.73462 374.87695 441.83736 374.87695 447.76758 C 374.87695 454.06414 376.28528 458.79141 379.10156 461.95117 C 380.55719 463.57246 382.39748 464.76552 384.60547 465.54883 C 387.51576 463.613 390.39693 461.61107 393.25195 459.55664 C 392.7676 459.59521 392.27578 459.61523 391.77539 459.61523 C 387.90586 459.61523 385.24913 458.67635 383.80664 456.79883 C 382.47863 455.08157 381.81445 452.07214 381.81445 447.76758 C 381.81445 439.57058 384.45892 431.9673 389.74805 424.96094 C 391.51108 422.60258 392.86201 420.97695 393.80078 420.08398 C 395.6783 418.29804 397.47611 417.40625 399.19336 417.40625 C 401.5975 417.40625 404.5515 418.47022 408.05469 420.59961 C 408.97055 421.17202 409.67987 421.45898 410.18359 421.45898 C 411.14525 421.45898 411.96935 421.09206 412.65625 420.35938 C 413.34316 419.62668 413.6875 418.79032 413.6875 417.85156 C 413.6875 415.85956 411.60274 414.03918 407.43555 412.39062 C 404.02396 411.01683 401.27696 410.33008 399.19336 410.33008 z M 415.23242 436.81055 C 403.1201 436.81055 394.5902 438.32139 389.64453 441.34375 C 388.43102 442.09934 387.82422 443.10787 387.82422 444.36719 C 387.82422 445.30595 388.13375 446.13005 388.75195 446.83984 C 389.41596 447.61833 390.25232 448.00781 391.25977 448.00781 C 391.76349 448.00781 392.27807 447.88078 392.80469 447.62891 C 397.33823 445.49953 402.77679 444.27563 409.11914 443.95508 C 408.70747 445.62422 408.18166 447.1532 407.56445 448.57031 C 411.27317 445.53128 414.91972 442.37917 418.50781 439.12695 C 418.34548 438.63236 418.0864 438.18797 417.70508 437.80664 C 417.04107 437.14263 416.21698 436.81055 415.23242 436.81055 z "
         style="font-style:normal;font-variant:normal;font-weight:normal;font-stretch:normal;font-size:medium;line-height:1.25;font-family:'Comic Sans MS';-inkscape-font-specification:'Comic Sans MS';letter-spacing:0px;word-spacing:0px;fill:#000000;fill-opacity:0.49019608;stroke:none;stroke-width:1.75846076" />
      <g
         id="flowRoot918"
         style="font-style:normal;font-weight:normal;font-size:40px;line-height:1.25;font-family:sans-serif;letter-spacing:0px;word-spacing:0px;fill:#ffffff;fill-opacity:1;stroke:none"
         transform="matrix(1.7584608,0,0,1.7584608,-78.845136,258.75662)"
         aria-label="COPYING">
        <path
           inkscape:connector-curvature="0"
           id="path926"
           style="font-style:normal;font-variant:normal;font-weight:normal;font-stretch:normal;font-family:'Comic Sans MS';-inkscape-font-specification:'Comic Sans MS';fill:#ffffff"
           d="m 110.57422,390.88575 q -1.25,0 -1.875,-1.46485 -0.54688,-1.25 -1.01563,-1.52343 -0.41015,-0.21485 -2.03125,-0.21485 -2.83203,0 -6.289059,4.33594 -4.6875,5.82031 -4.6875,11.03516 0,2.51953 1.621094,4.33593 1.660156,1.875 4.003905,1.875 2.01172,0 4.04297,-1.03515 1.13281,-0.58594 3.47656,-2.30469 1.11328,-0.82031 1.67969,-0.82031 0.83984,0 1.40625,0.64453 0.56641,0.625 0.56641,1.40625 0,0.87891 -0.74219,1.54297 -5.15625,4.57031 -10.42969,4.57031 -4.042968,0 -6.835936,-3.10547 -2.695313,-3.00781 -2.695313,-7.10937 0,-6.6211 5.546875,-13.57422 4.628904,-5.80078 9.335934,-5.80078 0.95704,0 1.71875,0.0976 0.76172,0.0781 1.34766,0.27344 0.68359,-0.99609 1.77734,-0.99609 1.34766,0 1.69922,1.77734 0.3125,1.58203 0.3125,3.88672 0,0.80078 -0.42968,1.40625 -0.52735,0.76172 -1.50391,0.76172 z" />
        <path
           inkscape:connector-curvature="0"
           id="path928"
           style="font-style:normal;font-variant:normal;font-weight:normal;font-stretch:normal;font-family:'Comic Sans MS';-inkscape-font-specification:'Comic Sans MS';fill:#ffffff"
           d="m 128.81641,413.99122 q -5.50782,0 -9.33594,-3.30078 -4.0625,-3.51563 -4.0625,-9.0625 0,-6.75782 4.00391,-12.28516 4.47265,-6.13281 11.15234,-6.13281 6.42578,0 9.55078,2.89062 3.26172,3.00781 3.26172,9.49219 0,6.75781 -3.67188,12.1875 -4.21875,6.21094 -10.89843,6.21094 z m 1.75781,-26.77735 q -4.78516,0 -8.10547,4.76563 -3.06641,4.375 -3.06641,9.64844 0,3.76953 2.79297,6.13281 2.67578,2.22656 6.6211,2.22656 4.74609,0 7.83203,-4.78516 2.7539,-4.27734 2.7539,-9.60937 0,-4.66797 -2.08984,-6.5625 -1.99219,-1.81641 -6.73828,-1.81641 z" />
        <path
           inkscape:connector-curvature="0"
           id="path930"
           style="font-style:normal;font-variant:normal;font-weight:normal;font-stretch:normal;font-family:'Comic Sans MS';-inkscape-font-specification:'Comic Sans MS';fill:#ffffff"
           d="m 153.17187,401.33497 q -0.54687,0 -2.38281,-0.25391 -0.15625,2.94922 -0.15625,10.33203 0,0.78125 -0.50781,1.32813 -0.50781,0.52734 -1.26953,0.52734 -0.78125,0 -1.28906,-0.52734 -0.50782,-0.54688 -0.50782,-1.32813 v -5.74219 q 0,-2.87109 0.35157,-8.08593 0.39062,-5.64453 0.42968,-8.08594 v -2.69531 q 0,-1.9336 0.23438,-2.8125 0.44922,-1.71875 1.91406,-1.48438 0.625,-0.19531 1.77734,-0.29297 1.15235,-0.0976 2.83204,-0.0976 3.57421,0 6.69921,2.4414 3.4375,2.69532 3.4375,6.48438 0,4.84375 -3.67187,7.71484 -3.28125,2.57813 -7.89063,2.57813 z m 0.97657,-15.50782 q -0.85938,0 -1.54297,0.0391 -0.66406,0.0391 -1.13281,0.11718 l -0.0391,3.59375 -0.41015,7.77344 2.14843,0.25391 q 3.28125,0 5.52735,-1.66016 2.46094,-1.8164 2.46094,-4.90234 0,-2.1875 -2.34375,-3.76953 -2.16797,-1.44532 -4.66797,-1.44532 z" />
        <path
           inkscape:connector-curvature="0"
           id="path932"
           style="font-style:normal;font-variant:normal;font-weight:normal;font-stretch:normal;font-family:'Comic Sans MS';-inkscape-font-specification:'Comic Sans MS';fill:#ffffff"
           d="m 188.85547,387.81934 q -0.46875,0.74219 -1.25,2.28516 l -3.35938,8.30078 q -1.95312,4.66797 -3.67187,8.16406 l -2.44141,4.35547 -1.03515,2.10938 q -0.64454,1.13281 -1.73829,1.13281 -0.76171,0 -1.38671,-0.56641 -0.625,-0.5664 -0.625,-1.40625 0,-0.66406 1.83593,-4.16015 l 2.40235,-4.39454 q -3.4961,-4.51171 -4.53125,-7.10937 -0.87891,-2.20703 -2.92969,-5.29297 -2.8125,-4.21875 -3.30078,-5.09766 -0.29297,-0.52734 -0.29297,-1.05468 0,-0.83985 0.60547,-1.40625 0.625,-0.58594 1.40625,-0.58594 0.95703,0 1.60156,0.91797 l 1.5625,2.42187 q 2.07031,3.06641 2.73438,4.17969 1.46484,2.40234 2.28515,4.45313 0.64453,1.62109 2.75391,4.43359 l 4.47265,-10.89844 q 0.76172,-1.34765 2.10938,-4.16015 0.54687,-1.32813 1.81641,-1.32813 0.78125,0 1.38671,0.54688 0.625,0.54687 0.625,1.40625 0,0.89843 -1.03515,2.7539 z" />
        <path
           inkscape:connector-curvature="0"
           id="path934"
           style="font-style:normal;font-variant:normal;font-weight:normal;font-stretch:normal;font-family:'Comic Sans MS';-inkscape-font-specification:'Comic Sans MS';fill:#ffffff"
           d="m 210.04687,388.46387 q -1.25,0 -3.14453,-0.2539 l -3.14453,-0.41016 q -0.44922,5.68359 -0.44922,10.85938 0,1.36718 0.0781,3.3789 0.0781,2.01172 0.0781,3.37891 0,1.83594 -0.13672,3.33984 l 6.15235,-0.0781 q 0.82031,0 1.36719,0.58593 0.5664,0.56641 0.5664,1.40625 0,0.85938 -0.5664,1.44532 -0.54688,0.5664 -1.36719,0.5664 -1.09375,0 -3.28125,0.0586 -2.1875,0.0391 -3.28125,0.0391 -1.28906,0 -3.86719,0.35156 -2.55859,0.3711 -3.86719,0.3711 -0.82031,0 -1.38672,-0.58594 -0.54687,-0.56641 -0.54687,-1.40625 0,-0.83985 0.54687,-1.42578 0.56641,-0.58594 1.38672,-0.58594 1.26953,0 4.19922,-0.41016 0.19531,-1.58203 0.19531,-3.61328 0,-1.34765 -0.13671,-3.28125 -0.11719,-1.95312 -0.11719,-3.28125 0,-4.51172 0.54687,-11.26953 l -2.53906,0.0781 -2.53906,0.0586 q -0.83985,0 -1.40625,-0.56641 -0.56641,-0.5664 -0.56641,-1.44531 0,-1.81641 1.83594,-1.99219 1.58203,-0.15625 5.91797,-0.15625 3.88672,0 9.74609,0.83985 1.73828,0.2539 1.73828,2.08984 0,0.91797 -0.66406,1.46484 -0.58594,0.44922 -1.34766,0.44922 z" />
        <path
           inkscape:connector-curvature="0"
           id="path936"
           style="font-style:normal;font-variant:normal;font-weight:normal;font-stretch:normal;font-family:'Comic Sans MS';-inkscape-font-specification:'Comic Sans MS';fill:#ffffff"
           d="m 243.32812,408.46387 q 0,0.9375 -0.3125,3.125 -0.3125,1.97266 -2.08984,1.97266 -1.07422,0 -2.55859,-1.40625 -7.94922,-7.51953 -18.24219,-21.69922 l -0.0977,4.43359 -0.0586,4.45313 q 0,1.62109 0.0586,4.86328 0.0781,3.24219 0.0781,4.88281 0,5.25391 -2.03125,5.25391 -1.07422,0 -1.69922,-0.68359 -0.56641,-0.60547 -0.56641,-1.44532 0,-0.82031 0.11719,-2.48047 0.13672,-1.66015 0.13672,-2.48046 0,-1.21094 0.0781,-3.61329 0.0781,-2.42187 0.0781,-3.63281 0,-1.28906 -0.0586,-3.88672 -0.0586,-2.61718 -0.0586,-3.90625 0,-1.23047 -0.23437,-3.65234 -0.23438,-2.44141 -0.23438,-3.67188 0,-0.89843 0.76172,-1.64062 0.78125,-0.74219 1.75781,-0.74219 1.03516,0 2.5586,2.26563 4.86328,7.28515 8.75,12.10937 4.6289,5.72266 10.15625,10.9375 0.0586,-0.83984 0,-2.48047 l -0.0586,-2.46093 q 0,-8.57422 -0.66406,-13.65235 -0.0781,-0.50781 -0.52734,-2.05078 -0.39063,-1.32812 -0.39063,-2.07031 0,-2.26563 2.07031,-2.26563 3.39844,0 3.39844,12.67578 0,2.16797 -0.0586,6.48438 -0.0586,4.29687 -0.0586,6.46484 z" />
        <path
           inkscape:connector-curvature="0"
           id="path938"
           style="font-style:normal;font-variant:normal;font-weight:normal;font-stretch:normal;font-family:'Comic Sans MS';-inkscape-font-specification:'Comic Sans MS';fill:#ffffff"
           d="m 270.49609,400.9834 q -1.21093,5.9961 -5.09765,9.58985 -3.86719,3.57422 -9.14063,3.57422 -4.80469,0 -7.20703,-2.67578 -2.40234,-2.69532 -2.40234,-8.06641 0,-5.05859 2.38281,-10.41016 2.40234,-5.37109 6.15234,-8.67187 2.5,-2.20703 5.29297,-2.20703 1.77735,0 4.6875,1.17187 3.55469,1.40625 3.55469,3.10547 0,0.80078 -0.58594,1.42578 -0.58594,0.625 -1.40625,0.625 -0.42969,0 -1.21094,-0.48828 -2.98828,-1.81641 -5.03906,-1.81641 -1.46484,0 -3.0664,1.52344 -0.80079,0.76172 -2.30469,2.77344 -4.51172,5.97656 -4.51172,12.96875 0,3.67187 1.13281,5.13672 1.23047,1.60156 4.53125,1.60156 3.4961,0 6.07422,-2.20703 2.71484,-2.34375 3.78906,-6.69922 -5.41015,0.27344 -9.27734,2.08984 -0.44922,0.21485 -0.87891,0.21485 -0.85937,0 -1.42578,-0.66406 -0.52734,-0.60547 -0.52734,-1.40625 0,-1.07422 1.03515,-1.71875 4.21875,-2.57813 14.55079,-2.57813 0.83984,0 1.40625,0.56641 0.5664,0.5664 0.5664,1.42578 0,1.26953 -1.07422,1.8164 z" />
      </g>
    </g>
  </g>
</svg>
