<?xml version="1.0" encoding="UTF-8" standalone="no"?>
<!-- Created with Inkscape (http://www.inkscape.org/) -->

<svg
   xmlns:dc="http://purl.org/dc/elements/1.1/"
   xmlns:cc="http://creativecommons.org/ns#"
   xmlns:rdf="http://www.w3.org/1999/02/22-rdf-syntax-ns#"
   xmlns:svg="http://www.w3.org/2000/svg"
   xmlns="http://www.w3.org/2000/svg"
   xmlns:sodipodi="http://sodipodi.sourceforge.net/DTD/sodipodi-0.dtd"
   xmlns:inkscape="http://www.inkscape.org/namespaces/inkscape"
   width="512"
   height="512"
   id="svg2"
   version="1.1"
   inkscape:version="0.92.2 5c3e80d, 2017-08-06"
   sodipodi:docname="text-enriched.svg">
  <defs
     id="defs4" />
  <sodipodi:namedview
     id="base"
     pagecolor="#ffffff"
     bordercolor="#666666"
     borderopacity="1.0"
     inkscape:pageopacity="0.0"
     inkscape:pageshadow="2"
     inkscape:zoom="0.30333332"
     inkscape:cx="252.94349"
     inkscape:cy="548.74351"
     inkscape:document-units="px"
     inkscape:current-layer="layer1"
     showgrid="false"
     inkscape:window-width="1366"
     inkscape:window-height="717"
     inkscape:window-x="0"
     inkscape:window-y="24"
     inkscape:window-maximized="1" />
  <metadata
     id="metadata7">
    <rdf:RDF>
      <cc:Work
         rdf:about="">
        <dc:format>image/svg+xml</dc:format>
        <dc:type
           rdf:resource="http://purl.org/dc/dcmitype/StillImage" />
        <dc:title></dc:title>
      </cc:Work>
    </rdf:RDF>
  </metadata>
  <g
     inkscape:label="Layer 1"
     inkscape:groupmode="layer"
     id="layer1"
     transform="translate(0,-540.36218)">
    <g
       id="g875">
      <path
         style="fill:#333333;fill-opacity:1;stroke-width:11.10955811"
         inkscape:connector-curvature="0"
         d="m 432.91326,596.83615 c 102.19291,88.57459 105.82678,249.69971 8.1168,359.89879 C 343.32009,1066.934 181.27965,1084.4628 79.086737,995.88819 -23.106205,907.31361 -26.740032,746.18849 70.969942,635.98941 168.67991,525.79033 330.72036,508.26156 432.91326,596.83615 Z"
         id="path961" />
      <path
         style="fill:#1a1a1a;fill-opacity:1;stroke:none;stroke-width:0.99999994px;stroke-linecap:butt;stroke-linejoin:miter;stroke-opacity:1"
         d="M 8.3652418,882.36219 C 19.949343,925.51392 43.551548,965.08856 79.085947,995.88759 181.27886,1084.4622 343.31934,1066.9343 441.02931,956.73524 461.38033,933.783 477.31886,908.61717 488.90235,882.36219 Z"
         id="path963"
         inkscape:connector-curvature="0"
         sodipodi:nodetypes="csscc" />
      <path
         style="opacity:0.1;stroke-width:11.10955811"
         inkscape:connector-curvature="0"
         d="M 511.6355,765.2657 C 510.08411,826.57734 486.47427,889.4203 440.66912,941.08017 342.95915,1051.2793 180.9187,1068.808 78.725759,980.23347 30.827126,938.71782 4.4968198,881.28502 0.1938269,820.59099 0.7990809,886.94766 27.117406,950.84436 79.078687,995.88129 181.2716,1084.4558 343.31975,1066.9184 441.02201,956.72795 490.72696,900.66984 514.02703,831.43698 511.6355,765.2657 Z"
         id="path965" />
      <path
         inkscape:connector-curvature="0"
         style="fill:#2e2e2e;fill-opacity:1;stroke-width:5.96706104"
         d="m 279.39851,607.37053 c -40.54988,-0.44739 -82.43884,17.13563 -112.77944,51.3543 -52.48108,59.18908 -50.53003,145.73036 4.35885,193.30473 54.88889,47.5743 141.92198,38.15912 194.40303,-21.02997 52.48105,-59.18909 50.53002,-145.73037 -4.35885,-193.3047 -23.15625,-20.07041 -52.03314,-29.99792 -81.62359,-30.32436 z m -57.24876,52.234 h 147.91887 a 4.9974815,4.9974815 0 1 1 0,9.99336 H 222.14975 a 4.9974815,4.9974815 0 1 1 0,-9.99336 z m -47.59454,26.44236 h 195.51341 a 4.9974819,4.9974819 0 1 1 0,9.99337 H 174.55521 a 4.9974819,4.9974819 0 1 1 0,-9.99337 z m 0,26.44237 h 195.51341 a 4.9974819,4.9974819 0 1 1 0,9.99336 H 174.55521 a 4.9974819,4.9974819 0 1 1 0,-9.99336 z m 0,26.44236 h 195.51341 a 4.9974819,4.9974819 0 1 1 0,9.99337 H 174.55521 a 4.9974819,4.9974819 0 1 1 0,-9.99337 z m 0,26.44237 h 195.51341 a 4.9974819,4.9974819 0 1 1 0,9.99336 H 174.55521 a 4.9974819,4.9974819 0 1 1 0,-9.99336 z m 0,26.44236 h 195.51341 a 4.9974822,4.9974822 0 1 1 0,9.99337 H 174.55521 a 4.9974822,4.9974822 0 1 1 0,-9.99337 z m 0,26.44237 h 121.47651 a 4.9974822,4.9974822 0 1 1 0,9.99336 H 174.55521 a 4.9974822,4.9974822 0 1 1 0,-9.99336 z"
         id="path842" />
      <path
         id="path833"
         d="m 269.39851,597.37053 c -40.54988,-0.44739 -82.43884,17.13563 -112.77944,51.3543 -52.48108,59.18908 -50.53003,145.73036 4.35885,193.30473 54.88889,47.5743 141.92198,38.15912 194.40303,-21.02997 52.48105,-59.18909 50.53002,-145.73037 -4.35885,-193.3047 -23.15625,-20.07041 -52.03314,-29.99792 -81.62359,-30.32436 z m -57.24876,52.234 h 147.91887 a 4.9974815,4.9974815 0 1 1 0,9.99336 H 212.14975 a 4.9974815,4.9974815 0 1 1 0,-9.99336 z m -47.59454,26.44236 h 195.51341 a 4.9974819,4.9974819 0 1 1 0,9.99337 H 164.55521 a 4.9974819,4.9974819 0 1 1 0,-9.99337 z m 0,26.44237 h 195.51341 a 4.9974819,4.9974819 0 1 1 0,9.99336 H 164.55521 a 4.9974819,4.9974819 0 1 1 0,-9.99336 z m 0,26.44236 h 195.51341 a 4.9974819,4.9974819 0 1 1 0,9.99337 H 164.55521 a 4.9974819,4.9974819 0 1 1 0,-9.99337 z m 0,26.44237 h 195.51341 a 4.9974819,4.9974819 0 1 1 0,9.99336 H 164.55521 a 4.9974819,4.9974819 0 1 1 0,-9.99336 z m 0,26.44236 h 195.51341 a 4.9974822,4.9974822 0 1 1 0,9.99337 H 164.55521 a 4.9974822,4.9974822 0 1 1 0,-9.99337 z m 0,26.44237 h 121.47651 a 4.9974822,4.9974822 0 1 1 0,9.99336 H 164.55521 a 4.9974822,4.9974822 0 1 1 0,-9.99336 z"
         style="fill:#ffffff;fill-opacity:1;stroke-width:5.96706104"
         inkscape:connector-curvature="0" />
    </g>
  </g>
</svg>
