<?xml version="1.0" encoding="UTF-8" standalone="no"?>
<!-- Created with Inkscape (http://www.inkscape.org/) -->

<svg
   xmlns:dc="http://purl.org/dc/elements/1.1/"
   xmlns:cc="http://creativecommons.org/ns#"
   xmlns:rdf="http://www.w3.org/1999/02/22-rdf-syntax-ns#"
   xmlns:svg="http://www.w3.org/2000/svg"
   xmlns="http://www.w3.org/2000/svg"
   xmlns:sodipodi="http://sodipodi.sourceforge.net/DTD/sodipodi-0.dtd"
   xmlns:inkscape="http://www.inkscape.org/namespaces/inkscape"
   width="512"
   height="512"
   id="svg2"
   version="1.1"
   inkscape:version="0.92.2 5c3e80d, 2017-08-06"
   sodipodi:docname="text-x-vcard.svg">
  <defs
     id="defs4" />
  <sodipodi:namedview
     id="base"
     pagecolor="#ffffff"
     bordercolor="#666666"
     borderopacity="1.0"
     inkscape:pageopacity="0.0"
     inkscape:pageshadow="2"
     inkscape:zoom="0.30333332"
     inkscape:cx="565.65723"
     inkscape:cy="162.65883"
     inkscape:document-units="px"
     inkscape:current-layer="layer1"
     showgrid="false"
     inkscape:window-width="1366"
     inkscape:window-height="717"
     inkscape:window-x="0"
     inkscape:window-y="24"
     inkscape:window-maximized="1" />
  <metadata
     id="metadata7">
    <rdf:RDF>
      <cc:Work
         rdf:about="">
        <dc:format>image/svg+xml</dc:format>
        <dc:type
           rdf:resource="http://purl.org/dc/dcmitype/StillImage" />
        <dc:title></dc:title>
      </cc:Work>
    </rdf:RDF>
  </metadata>
  <g
     inkscape:label="Layer 1"
     inkscape:groupmode="layer"
     id="layer1"
     transform="translate(0,-540.36218)">
    <g
       id="g881">
      <g
         id="g841">
        <path
           style="fill:#f9c440;fill-opacity:1;stroke-width:11.10955811"
           inkscape:connector-curvature="0"
           d="m 432.91325,596.83616 c 102.19291,88.57459 105.82677,249.69971 8.1168,359.89879 C 343.32009,1066.934 181.27965,1084.4628 79.08674,995.88821 -23.106205,907.31362 -26.740032,746.1885 70.96994,635.98942 168.67991,525.79034 330.72036,508.26157 432.91325,596.83616 Z"
           id="path848" />
        <path
           style="fill:#d48e15;fill-opacity:1;stroke:none;stroke-width:0.99999994px;stroke-linecap:butt;stroke-linejoin:miter;stroke-opacity:1"
           d="M 8.3652342,882.36218 C 19.949333,925.51391 43.551552,965.08854 79.085938,995.88757 181.27884,1084.4622 343.31934,1066.9343 441.0293,956.73523 c 20.351,-22.95224 36.28956,-48.11807 47.87304,-74.37305 z"
           id="path912"
           inkscape:connector-curvature="0"
           sodipodi:nodetypes="csscc" />
        <path
           style="opacity:0.1;stroke-width:11.10955811"
           inkscape:connector-curvature="0"
           d="M 511.63548,765.26571 C 510.0841,826.57735 486.47426,889.42031 440.66911,941.08018 342.95915,1051.2793 180.9187,1068.808 78.725757,980.23348 30.827125,938.71783 4.4968192,881.28503 0.19382718,820.591 0.79908018,886.94767 27.117405,950.84437 79.07869,995.88125 181.2716,1084.4558 343.31975,1066.9184 441.022,956.72796 490.72695,900.66985 514.02702,831.43699 511.63548,765.26571 Z"
           id="path850" />
        <path
           inkscape:connector-curvature="0"
           id="path834"
           d="m 259.17565,882.30316 c -0.43856,-0.0354 -2.0333,-0.14984 -3.54386,-0.25389 -11.04123,-0.76047 -23.12484,-3.22473 -33.9725,-6.92834 -10.39374,-3.54859 -21.01429,-8.69301 -30.08286,-14.57183 -21.1754,-13.72702 -38.10975,-32.76884 -49.10894,-55.22068 -12.32734,-25.16289 -16.63974,-53.60323 -12.35919,-81.50893 6.46112,-42.12129 32.36251,-79.02468 69.94229,-99.65132 15.19212,-8.33859 32.19042,-13.80176 49.37943,-15.8703 10.95546,-1.31838 23.63081,-1.254 34.55268,0.17552 14.76752,1.93286 29.20336,6.28216 42.52638,12.81258 24.29319,11.90758 44.60385,30.77755 58.3901,54.24836 1.9058,3.24461 5.34019,9.92926 6.82778,13.28949 6.47182,14.61898 10.18452,29.29327 11.54398,45.62726 0.3064,3.68139 0.30502,17.46039 -0.002,20.90876 -0.97923,10.99497 -2.72534,20.24591 -5.6127,29.73647 -5.00637,16.45553 -13.4068,32.33014 -24.25553,45.83653 -5.88019,7.32063 -13.9664,15.40691 -21.28711,21.28709 -13.51272,10.85377 -29.37319,19.24682 -45.83651,24.25548 -9.16429,2.78811 -18.08624,4.51034 -28.49605,5.50081 -2.72881,0.25961 -16.46316,0.50095 -18.60529,0.32694 z m 17.27634,-21.75451 c 4.05868,-0.40637 6.79525,-0.77765 10.10002,-1.37057 47.64021,-8.54671 85.24662,-46.15284 93.80755,-93.80674 1.3089,-7.286 1.70087,-12.08339 1.69384,-20.7316 -0.006,-7.57878 -0.17221,-10.11759 -1.07213,-16.39042 -6.46439,-45.06028 -39.2096,-82.49101 -83.15837,-95.05756 -6.55854,-1.87533 -13.16752,-3.12449 -20.83933,-3.93885 -2.4466,-0.25971 -4.50968,-0.31899 -10.98598,-0.3157 -7.10236,0.004 -8.38032,0.0485 -11.69475,0.41117 -14.60119,1.59744 -27.20982,5.26593 -39.95708,11.62554 -15.07516,7.52101 -28.33585,18.22933 -38.8903,31.40485 -5.31144,6.63048 -9.52245,13.21036 -13.30289,20.78629 -6.35157,12.7284 -10.02674,25.36226 -11.62348,39.95707 -0.36262,3.31443 -0.40755,4.59244 -0.41117,11.6948 -0.005,8.55053 0.11944,10.50074 1.07986,17.01055 5.27843,35.7774 27.01888,67.08509 58.82461,84.71136 15.18927,8.41759 31.6865,13.17954 49.59624,14.31585 2.53648,0.16093 14.30613,-0.0527 16.83336,-0.30604 z m 40.31146,-24.01341 c -1.20155,-0.38774 -1.98719,-0.7842 -2.98044,-1.50387 -0.97802,-0.70868 -22.80663,-29.70377 -23.36205,-31.0319 -0.20377,-0.48733 -3.18493,-8.97933 -6.62482,-18.87108 -3.43987,-9.89183 -6.27189,-18.01001 -6.29337,-18.04036 -0.0214,-0.0309 -1.56583,0.24725 -3.43192,0.6169 l -3.39288,0.67225 -8.85486,11.57817 -8.85487,11.57817 -1.1474,18.10488 c -0.63108,9.95771 -1.26463,18.74032 -1.40789,19.51697 -0.95131,5.15668 -5.97926,8.46266 -11.05193,7.26674 -1.67584,-0.3951 -2.98964,-1.1106 -4.29718,-2.3405 -1.92624,-1.81173 -2.82156,-3.91006 -2.82156,-6.61276 0,-2.88071 2.97856,-40.75526 3.28797,-41.80888 0.1574,-0.53603 0.49201,-1.33049 0.74359,-1.76539 0.25158,-0.4349 4.05642,-5.53806 8.4552,-11.34037 4.39878,-5.8023 8.05332,-10.64159 8.12119,-10.75399 0.0922,-0.15257 -4.21083,-20.77323 -4.54209,-21.76642 -0.0327,-0.098 -0.44272,0.97784 -0.91111,2.39102 -1.01498,3.06199 -1.4115,3.89225 -2.38766,4.99912 -0.70538,0.79982 -24.44338,21.12098 -26.41894,22.61622 -2.63747,1.99629 -6.36126,2.30251 -9.52746,0.78365 -1.29815,-0.62281 -3.33402,-2.64436 -3.97417,-3.94632 -1.12729,-2.29279 -1.31789,-5.14379 -0.48973,-7.32526 0.89561,-2.35913 1.03863,-2.49597 13.71951,-13.12802 l 11.85004,-9.93541 5.47639,-16.03599 c 3.01201,-8.81979 5.58795,-16.53677 5.72432,-17.14883 0.46273,-2.07694 1.8427,-3.91088 3.62821,-4.82177 0.74812,-0.38166 28.05476,-6.38023 29.04474,-6.38039 0.25332,-3e-5 1.29782,0.17048 2.32111,0.37893 1.47858,0.3012 5.20983,1.66147 18.17536,6.626 8.97315,3.43585 16.72259,6.45363 17.22094,6.70617 1.8517,0.93832 2.45131,1.72489 13.52413,17.74078 5.86189,8.47869 10.888,15.67792 11.16915,15.99823 1.64712,1.8767 2.34144,5.20521 1.64735,7.89727 -1.24069,4.81203 -6.22795,7.80968 -10.94784,6.58032 -2.2837,-0.59482 -4.55721,-2.21891 -5.57603,-3.98339 -0.25947,-0.44935 -4.85045,-7.08301 -10.20221,-14.74155 l -9.73044,-13.92457 -8.48231,-3.32208 c -4.66527,-1.82713 -8.51184,-3.29161 -8.54792,-3.25438 -0.0691,0.0712 8.58831,42.14421 8.89219,43.21428 0.30096,1.0597 13.00302,37.45301 13.2033,37.82939 0.10408,0.19564 4.71035,6.33597 10.23616,13.64524 5.5258,7.30918 10.25784,13.70676 10.51563,14.21671 2.59946,5.14261 -0.10486,11.22642 -5.72385,12.87686 -1.29323,0.37992 -3.71558,0.35512 -4.97355,-0.0509 z M 252.35371,687.38681 c -5.4395,-0.80284 -9.28439,-2.67296 -12.85945,-6.25476 -10.90071,-10.92122 -7.05471,-29.39393 7.30623,-35.09246 2.76378,-1.09669 4.14203,-1.33 7.85673,-1.33 2.88039,0 3.58862,0.0562 4.9033,0.38864 7.29386,1.84474 12.91289,6.93234 15.36123,13.90842 1.63041,4.64555 1.53845,10.08224 -0.24884,14.71011 -2.64652,6.85271 -8.51996,11.82304 -15.76305,13.33927 -1.36583,0.28593 -5.4604,0.4925 -6.55615,0.33078 z"
           style="fill:#e1b13a;fill-opacity:1;stroke-width:0.17719322" />
        <path
           style="fill:#ffffff;stroke-width:0.17719322"
           d="m 249.17565,872.30316 c -0.43856,-0.0354 -2.0333,-0.14984 -3.54386,-0.25389 -11.04123,-0.76047 -23.12484,-3.22473 -33.9725,-6.92834 -10.39374,-3.54859 -21.01429,-8.69301 -30.08286,-14.57183 -21.1754,-13.72702 -38.10975,-32.76884 -49.10894,-55.22068 -12.32734,-25.16289 -16.63974,-53.60323 -12.35919,-81.50893 6.46112,-42.12129 32.36251,-79.02468 69.94229,-99.65132 15.19212,-8.33859 32.19042,-13.80176 49.37943,-15.8703 10.95546,-1.31838 23.63081,-1.254 34.55268,0.17552 14.76752,1.93286 29.20336,6.28216 42.52638,12.81258 24.29319,11.90758 44.60385,30.77755 58.3901,54.24836 1.9058,3.24461 5.34019,9.92926 6.82778,13.28949 6.47182,14.61898 10.18452,29.29327 11.54398,45.62726 0.3064,3.68139 0.30502,17.46039 -0.002,20.90876 -0.97923,10.99497 -2.72534,20.24591 -5.6127,29.73647 -5.00637,16.45553 -13.4068,32.33014 -24.25553,45.83653 -5.88019,7.32063 -13.9664,15.40691 -21.28711,21.28709 -13.51272,10.85377 -29.37319,19.24682 -45.83651,24.25548 -9.16429,2.78811 -18.08624,4.51034 -28.49605,5.50081 -2.72881,0.25961 -16.46316,0.50095 -18.60529,0.32694 z m 17.27634,-21.75451 c 4.05868,-0.40637 6.79525,-0.77765 10.10002,-1.37057 47.64021,-8.54671 85.24662,-46.15284 93.80755,-93.80674 1.3089,-7.286 1.70087,-12.08339 1.69384,-20.7316 -0.006,-7.57878 -0.17221,-10.11759 -1.07213,-16.39042 -6.46439,-45.06028 -39.2096,-82.49101 -83.15837,-95.05756 -6.55854,-1.87533 -13.16752,-3.12449 -20.83933,-3.93885 -2.4466,-0.25971 -4.50968,-0.31899 -10.98598,-0.3157 -7.10236,0.004 -8.38032,0.0485 -11.69475,0.41117 -14.60119,1.59744 -27.20982,5.26593 -39.95708,11.62554 -15.07516,7.52101 -28.33585,18.22933 -38.8903,31.40485 -5.31144,6.63048 -9.52245,13.21036 -13.30289,20.78629 -6.35157,12.7284 -10.02674,25.36226 -11.62348,39.95707 -0.36262,3.31443 -0.40755,4.59244 -0.41117,11.6948 -0.005,8.55053 0.11944,10.50074 1.07986,17.01055 5.27843,35.7774 27.01888,67.08509 58.82461,84.71136 15.18927,8.41759 31.6865,13.17954 49.59624,14.31585 2.53648,0.16093 14.30613,-0.0527 16.83336,-0.30604 z m 40.31146,-24.01341 c -1.20155,-0.38774 -1.98719,-0.7842 -2.98044,-1.50387 -0.97802,-0.70868 -22.80663,-29.70377 -23.36205,-31.0319 -0.20377,-0.48733 -3.18493,-8.97933 -6.62482,-18.87108 -3.43987,-9.89183 -6.27189,-18.01001 -6.29337,-18.04036 -0.0214,-0.0309 -1.56583,0.24725 -3.43192,0.6169 l -3.39288,0.67225 -8.85486,11.57817 -8.85487,11.57817 -1.1474,18.10488 c -0.63108,9.95771 -1.26463,18.74032 -1.40789,19.51697 -0.95131,5.15668 -5.97926,8.46266 -11.05193,7.26674 -1.67584,-0.3951 -2.98964,-1.1106 -4.29718,-2.3405 -1.92624,-1.81173 -2.82156,-3.91006 -2.82156,-6.61276 0,-2.88071 2.97856,-40.75526 3.28797,-41.80888 0.1574,-0.53603 0.49201,-1.33049 0.74359,-1.76539 0.25158,-0.4349 4.05642,-5.53806 8.4552,-11.34037 4.39878,-5.8023 8.05332,-10.64159 8.12119,-10.75399 0.0922,-0.15257 -4.21083,-20.77323 -4.54209,-21.76642 -0.0327,-0.098 -0.44272,0.97784 -0.91111,2.39102 -1.01498,3.06199 -1.4115,3.89225 -2.38766,4.99912 -0.70538,0.79982 -24.44338,21.12098 -26.41894,22.61622 -2.63747,1.99629 -6.36126,2.30251 -9.52746,0.78365 -1.29815,-0.62281 -3.33402,-2.64436 -3.97417,-3.94632 -1.12729,-2.29279 -1.31789,-5.14379 -0.48973,-7.32526 0.89561,-2.35913 1.03863,-2.49597 13.71951,-13.12802 l 11.85004,-9.93541 5.47639,-16.03599 c 3.01201,-8.81979 5.58795,-16.53677 5.72432,-17.14883 0.46273,-2.07694 1.8427,-3.91088 3.62821,-4.82177 0.74812,-0.38166 28.05476,-6.38023 29.04474,-6.38039 0.25332,-3e-5 1.29782,0.17048 2.32111,0.37893 1.47858,0.3012 5.20983,1.66147 18.17536,6.626 8.97315,3.43585 16.72259,6.45363 17.22094,6.70617 1.8517,0.93832 2.45131,1.72489 13.52413,17.74078 5.86189,8.47869 10.888,15.67792 11.16915,15.99823 1.64712,1.8767 2.34144,5.20521 1.64735,7.89727 -1.24069,4.81203 -6.22795,7.80968 -10.94784,6.58032 -2.2837,-0.59482 -4.55721,-2.21891 -5.57603,-3.98339 -0.25947,-0.44935 -4.85045,-7.08301 -10.20221,-14.74155 l -9.73044,-13.92457 -8.48231,-3.32208 c -4.66527,-1.82713 -8.51184,-3.29161 -8.54792,-3.25438 -0.0691,0.0712 8.58831,42.14421 8.89219,43.21428 0.30096,1.0597 13.00302,37.45301 13.2033,37.82939 0.10408,0.19564 4.71035,6.33597 10.23616,13.64524 5.5258,7.30918 10.25784,13.70676 10.51563,14.21671 2.59946,5.14261 -0.10486,11.22642 -5.72385,12.87686 -1.29323,0.37992 -3.71558,0.35512 -4.97355,-0.0509 z M 242.35371,677.38681 c -5.4395,-0.80284 -9.28439,-2.67296 -12.85945,-6.25476 -10.90071,-10.92122 -7.05471,-29.39393 7.30623,-35.09246 2.76378,-1.09669 4.14203,-1.33 7.85673,-1.33 2.88039,0 3.58862,0.0562 4.9033,0.38864 7.29386,1.84474 12.91289,6.93234 15.36123,13.90842 1.63041,4.64555 1.53845,10.08224 -0.24884,14.71011 -2.64652,6.85271 -8.51996,11.82304 -15.76305,13.33927 -1.36583,0.28593 -5.4604,0.4925 -6.55615,0.33078 z"
           id="path851"
           inkscape:connector-curvature="0" />
      </g>
      <g
         aria-label="VCF"
         transform="translate(65.66732,556.99383)"
         style="font-style:normal;font-weight:normal;font-size:40px;line-height:1.25;font-family:sans-serif;letter-spacing:0px;word-spacing:0px;fill:#bf8013;fill-opacity:1;stroke:none"
         id="g865">
        <path
           d="m 164.58073,358.63332 q -3.43099,5.14648 -5.58919,10.79102 l -4.20573,12.11914 -14.88607,40.23112 q -2.60091,7.08333 -6.08724,13.83463 -1.77083,3.32032 -4.98047,3.32032 -4.26107,0 -5.97656,-4.31641 -6.69596,-16.82292 -14.88607,-48.42123 l -4.37174,-15.2181 q -3.26498,-11.51041 -3.26498,-15.05208 0,-2.49023 1.77084,-4.09505 1.60481,-1.49414 3.87369,-1.49414 4.20573,0 5.42318,4.53776 l 2.04753,9.62891 5.3125,18.8151 q 5.3125,20.58594 10.3483,35.47201 l 0.33204,-0.88542 14.83073,-40.17578 4.70377,-13.55795 q 3.1543,-8.1901 6.69597,-12.39583 1.82617,-2.21354 4.3164,-2.21354 2.21354,0 3.92904,1.71549 1.77083,1.66016 1.77083,4.03972 0,1.66015 -1.10677,3.32031 z"
           style="font-style:normal;font-variant:normal;font-weight:normal;font-stretch:normal;font-size:113.33333588px;font-family:'Comic Sans MS';-inkscape-font-specification:'Comic Sans MS';fill:#bf8013;fill-opacity:1"
           id="path859"
           inkscape:connector-curvature="0" />
        <path
           d="m 227.11328,372.41262 q -3.54166,0 -5.3125,-4.15039 -1.54948,-3.54167 -2.8776,-4.31641 -1.16211,-0.60872 -5.75521,-0.60872 -8.02409,0 -17.81901,12.28515 -13.28125,16.49089 -13.28125,31.26628 0,7.13867 4.5931,12.28516 4.70377,5.3125 11.3444,5.3125 5.69987,0 11.45508,-2.93295 3.20963,-1.66015 9.85026,-6.52994 3.1543,-2.32422 4.75911,-2.32422 2.37956,0 3.98438,1.82617 1.60482,1.77083 1.60482,3.98437 0,2.49024 -2.10287,4.37175 -14.60937,12.94922 -29.55078,12.94922 -11.45508,0 -19.36849,-8.79883 Q 171,418.50962 171,406.88853 q 0,-18.75977 15.71615,-38.46029 13.11523,-16.43555 26.45182,-16.43555 2.71159,0 4.86979,0.2767 2.1582,0.22135 3.81836,0.77474 1.93685,-2.82227 5.03581,-2.82227 3.81836,0 4.81445,5.03581 0.88542,4.48242 0.88542,11.01237 0,2.26888 -1.21745,3.98437 -1.49414,2.15821 -4.26107,2.15821 z"
           style="font-style:normal;font-variant:normal;font-weight:normal;font-stretch:normal;font-size:113.33333588px;font-family:'Comic Sans MS';-inkscape-font-specification:'Comic Sans MS';fill:#bf8013;fill-opacity:1"
           id="path861"
           inkscape:connector-curvature="0" />
        <path
           d="m 295.6224,361.78762 q -0.9961,0 -2.10287,-0.44271 -6.86198,-2.54557 -18.15104,-2.54557 -3.65234,0 -8.57747,0.55338 -4.8698,0.49805 -10.95704,1.60482 l -0.11067,23.90625 q 10.68034,-2.82227 16.04818,-2.82227 8.52213,0 17.65299,0.9961 5.20182,0.55338 5.20182,5.64453 0,2.49023 -1.60481,4.15039 -1.60482,1.60482 -3.98438,1.60482 -2.8776,0 -8.63281,-0.49805 -5.75521,-0.49805 -8.63281,-0.49805 -3.76303,0 -16.26954,3.20964 l -0.49804,38.07292 q 0,2.37955 -1.54948,3.98437 -1.54948,1.66016 -3.92904,1.66016 -2.37956,0 -3.98437,-1.66016 -1.54948,-1.60482 -1.54948,-3.98437 0,-10.9017 0.38737,-32.70508 0.4427,-21.85873 0.4427,-32.76042 0,-2.4349 -0.11067,-7.30469 -0.0553,-4.92513 -0.0553,-7.36002 0,-2.4349 1.49414,-4.09506 1.54948,-1.66015 3.98437,-1.66015 1.82618,0 3.26498,0.99609 6.86198,-1.21745 12.34049,-1.77083 5.47852,-0.60873 9.62891,-0.60873 6.36393,0 14.55404,1.82618 11.12304,2.54557 11.12304,6.64062 0,2.21354 -1.4388,3.92904 -1.60482,1.93685 -3.98437,1.93685 z"
           style="font-style:normal;font-variant:normal;font-weight:normal;font-stretch:normal;font-size:113.33333588px;font-family:'Comic Sans MS';-inkscape-font-specification:'Comic Sans MS';fill:#bf8013;fill-opacity:1"
           id="path863"
           inkscape:connector-curvature="0" />
      </g>
      <g
         id="flowRoot842"
         style="font-style:normal;font-weight:normal;font-size:40px;line-height:1.25;font-family:sans-serif;letter-spacing:0px;word-spacing:0px;fill:#ffffff;fill-opacity:1;stroke:none"
         transform="translate(55.66732,546.99383)"
         aria-label="VCF">
        <path
           inkscape:connector-curvature="0"
           id="path852"
           style="font-style:normal;font-variant:normal;font-weight:normal;font-stretch:normal;font-size:113.33333588px;font-family:'Comic Sans MS';-inkscape-font-specification:'Comic Sans MS';fill:#ffffff"
           d="m 164.58073,358.63332 q -3.43099,5.14648 -5.58919,10.79102 l -4.20573,12.11914 -14.88607,40.23112 q -2.60091,7.08333 -6.08724,13.83463 -1.77083,3.32032 -4.98047,3.32032 -4.26107,0 -5.97656,-4.31641 -6.69596,-16.82292 -14.88607,-48.42123 l -4.37174,-15.2181 q -3.26498,-11.51041 -3.26498,-15.05208 0,-2.49023 1.77084,-4.09505 1.60481,-1.49414 3.87369,-1.49414 4.20573,0 5.42318,4.53776 l 2.04753,9.62891 5.3125,18.8151 q 5.3125,20.58594 10.3483,35.47201 l 0.33204,-0.88542 14.83073,-40.17578 4.70377,-13.55795 q 3.1543,-8.1901 6.69597,-12.39583 1.82617,-2.21354 4.3164,-2.21354 2.21354,0 3.92904,1.71549 1.77083,1.66016 1.77083,4.03972 0,1.66015 -1.10677,3.32031 z" />
        <path
           inkscape:connector-curvature="0"
           id="path854"
           style="font-style:normal;font-variant:normal;font-weight:normal;font-stretch:normal;font-size:113.33333588px;font-family:'Comic Sans MS';-inkscape-font-specification:'Comic Sans MS';fill:#ffffff"
           d="m 227.11328,372.41262 q -3.54166,0 -5.3125,-4.15039 -1.54948,-3.54167 -2.8776,-4.31641 -1.16211,-0.60872 -5.75521,-0.60872 -8.02409,0 -17.81901,12.28515 -13.28125,16.49089 -13.28125,31.26628 0,7.13867 4.5931,12.28516 4.70377,5.3125 11.3444,5.3125 5.69987,0 11.45508,-2.93295 3.20963,-1.66015 9.85026,-6.52994 3.1543,-2.32422 4.75911,-2.32422 2.37956,0 3.98438,1.82617 1.60482,1.77083 1.60482,3.98437 0,2.49024 -2.10287,4.37175 -14.60937,12.94922 -29.55078,12.94922 -11.45508,0 -19.36849,-8.79883 Q 171,418.50962 171,406.88853 q 0,-18.75977 15.71615,-38.46029 13.11523,-16.43555 26.45182,-16.43555 2.71159,0 4.86979,0.2767 2.1582,0.22135 3.81836,0.77474 1.93685,-2.82227 5.03581,-2.82227 3.81836,0 4.81445,5.03581 0.88542,4.48242 0.88542,11.01237 0,2.26888 -1.21745,3.98437 -1.49414,2.15821 -4.26107,2.15821 z" />
        <path
           inkscape:connector-curvature="0"
           id="path856"
           style="font-style:normal;font-variant:normal;font-weight:normal;font-stretch:normal;font-size:113.33333588px;font-family:'Comic Sans MS';-inkscape-font-specification:'Comic Sans MS';fill:#ffffff"
           d="m 295.6224,361.78762 q -0.9961,0 -2.10287,-0.44271 -6.86198,-2.54557 -18.15104,-2.54557 -3.65234,0 -8.57747,0.55338 -4.8698,0.49805 -10.95704,1.60482 l -0.11067,23.90625 q 10.68034,-2.82227 16.04818,-2.82227 8.52213,0 17.65299,0.9961 5.20182,0.55338 5.20182,5.64453 0,2.49023 -1.60481,4.15039 -1.60482,1.60482 -3.98438,1.60482 -2.8776,0 -8.63281,-0.49805 -5.75521,-0.49805 -8.63281,-0.49805 -3.76303,0 -16.26954,3.20964 l -0.49804,38.07292 q 0,2.37955 -1.54948,3.98437 -1.54948,1.66016 -3.92904,1.66016 -2.37956,0 -3.98437,-1.66016 -1.54948,-1.60482 -1.54948,-3.98437 0,-10.9017 0.38737,-32.70508 0.4427,-21.85873 0.4427,-32.76042 0,-2.4349 -0.11067,-7.30469 -0.0553,-4.92513 -0.0553,-7.36002 0,-2.4349 1.49414,-4.09506 1.54948,-1.66015 3.98437,-1.66015 1.82618,0 3.26498,0.99609 6.86198,-1.21745 12.34049,-1.77083 5.47852,-0.60873 9.62891,-0.60873 6.36393,0 14.55404,1.82618 11.12304,2.54557 11.12304,6.64062 0,2.21354 -1.4388,3.92904 -1.60482,1.93685 -3.98437,1.93685 z" />
      </g>
    </g>
  </g>
</svg>
