<?xml version="1.0" encoding="UTF-8" standalone="no"?>
<!-- Created with Inkscape (http://www.inkscape.org/) -->

<svg
   xmlns:dc="http://purl.org/dc/elements/1.1/"
   xmlns:cc="http://creativecommons.org/ns#"
   xmlns:rdf="http://www.w3.org/1999/02/22-rdf-syntax-ns#"
   xmlns:svg="http://www.w3.org/2000/svg"
   xmlns="http://www.w3.org/2000/svg"
   xmlns:sodipodi="http://sodipodi.sourceforge.net/DTD/sodipodi-0.dtd"
   xmlns:inkscape="http://www.inkscape.org/namespaces/inkscape"
   width="512"
   height="512"
   id="svg2"
   version="1.1"
   inkscape:version="0.92.2 5c3e80d, 2017-08-06"
   sodipodi:docname="text-x-patch.svg">
  <defs
     id="defs4" />
  <sodipodi:namedview
     id="base"
     pagecolor="#ffffff"
     bordercolor="#666666"
     borderopacity="1.0"
     inkscape:pageopacity="0.0"
     inkscape:pageshadow="2"
     inkscape:zoom="0.21448905"
     inkscape:cx="840.96104"
     inkscape:cy="-325.5462"
     inkscape:document-units="px"
     inkscape:current-layer="layer1"
     showgrid="false"
     inkscape:window-width="1366"
     inkscape:window-height="717"
     inkscape:window-x="0"
     inkscape:window-y="24"
     inkscape:window-maximized="1"
     inkscape:snap-global="false"
     showguides="false" />
  <metadata
     id="metadata7">
    <rdf:RDF>
      <cc:Work
         rdf:about="">
        <dc:format>image/svg+xml</dc:format>
        <dc:type
           rdf:resource="http://purl.org/dc/dcmitype/StillImage" />
        <dc:title />
      </cc:Work>
    </rdf:RDF>
  </metadata>
  <g
     inkscape:label="Layer 1"
     inkscape:groupmode="layer"
     id="layer1"
     transform="translate(0,-540.36218)">
    <g
       id="g891">
      <path
         id="path931"
         d="m 432.91326,596.83618 c 102.19291,88.57459 105.82678,249.69971 8.1168,359.89879 C 343.32009,1066.934 181.27965,1084.4628 79.08674,995.88822 -23.106203,907.31364 -26.740033,746.18852 70.96994,635.98944 168.67991,525.79036 330.72036,508.26159 432.91326,596.83618 Z"
         inkscape:connector-curvature="0"
         style="fill:#f37329;fill-opacity:1;stroke-width:11.10955811" />
      <path
         sodipodi:nodetypes="csscc"
         inkscape:connector-curvature="0"
         id="path933"
         d="m 8.3652398,882.36222 c 11.5841012,43.15173 35.1863062,82.72637 70.7207062,113.5254 102.192914,88.57458 264.233394,71.04668 361.943364,-39.15235 20.35102,-22.95224 36.28955,-48.11807 47.87304,-74.37305 z"
         style="fill:#cc3b02;fill-opacity:1;stroke:none;stroke-width:0.99999994px;stroke-linecap:butt;stroke-linejoin:miter;stroke-opacity:1" />
      <path
         id="path935"
         d="M 511.6355,765.26573 C 510.08411,826.57737 486.47427,889.42033 440.66912,941.0802 342.95915,1051.2793 180.9187,1068.808 78.725757,980.2335 30.827124,938.71785 4.4968178,881.28505 0.19382581,820.59102 0.79907881,886.94769 27.117404,950.84439 79.078689,995.88132 181.2716,1084.4558 343.31975,1066.9184 441.02201,956.72798 490.72696,900.66987 514.02703,831.43701 511.6355,765.26573 Z"
         inkscape:connector-curvature="0"
         style="opacity:1;stroke-width:11.10955811;fill:#000000;fill-opacity:0.49019608" />
      <g
         id="g931"
         style="fill:#000000;fill-opacity:0.49019608"
         transform="matrix(1.0475538,0,0,1.0475538,-563.57281,-184.81969)">
        <path
           id="path921"
           transform="translate(0,552.36218)"
           d="m 802.0332,278.07227 c -5.78614,0.14091 -11.54297,2.36117 -16.08008,6.68945 l -44.64843,42.59375 c -9.67912,9.23367 -10.03836,24.45955 -0.80469,34.13867 l 42.5957,44.65039 c 9.23367,9.67912 24.45955,10.03641 34.13868,0.80274 l 44.64843,-42.59375 c 9.67912,-9.23368 10.03836,-24.45955 0.80469,-34.13868 l -42.5957,-44.64843 c -4.90539,-5.14204 -11.50097,-7.65385 -18.0586,-7.49414 z m 0.84375,20.23632 a 15,15 0 0 1 15,15 15,15 0 0 1 -15,15 15,15 0 0 1 -15,-15 15,15 0 0 1 15,-15 z m -33,33 a 15,15 0 0 1 15,15 15,15 0 0 1 -15,15 15,15 0 0 1 -15,-15 15,15 0 0 1 15,-15 z m 66,0 a 15,15 0 0 1 15,15 15,15 0 0 1 -15,15 15,15 0 0 1 -15,-15 15,15 0 0 1 15,-15 z m -33,33 a 15,15 0 0 1 15,15 15,15 0 0 1 -15,15 15,15 0 0 1 -15,-15 15,15 0 0 1 15,-15 z"
           style="fill:#000000;fill-opacity:0.49019608;stroke:none;stroke-width:4.0682044;stroke-miterlimit:4;stroke-dasharray:none;stroke-opacity:1"
           inkscape:connector-curvature="0" />
        <path
           inkscape:connector-curvature="0"
           id="path923"
           d="m 731.28906,909.50866 c -2.28955,1.00022 -4.45267,2.40439 -6.38086,4.22071 l -47.6914,44.92383 c -8.97364,8.453 -9.39247,22.48339 -0.93946,31.45703 l 26.79883,28.44927 c 8.45301,8.9736 22.4834,9.3924 31.45703,0.9394 l 47.68946,-44.92383 c 2.04872,-1.92987 3.64761,-4.15245 4.80078,-6.53711 -2.8991,-1.25081 -5.60381,-3.09521 -7.92774,-5.53125 L 736.5,917.85632 c -2.36792,-2.48215 -4.10014,-5.33056 -5.21094,-8.34766 z"
           style="fill:#000000;fill-opacity:0.49019608;stroke:none;stroke-width:3.77952766;stroke-miterlimit:4;stroke-dasharray:none;stroke-opacity:1" />
        <path
           style="fill:#000000;fill-opacity:0.49019608;stroke:none;stroke-width:3.77952766;stroke-miterlimit:4;stroke-dasharray:none;stroke-opacity:1"
           d="m 790.72497,829.1848 c -1.00022,-2.28955 -2.40439,-4.45267 -4.22071,-6.38086 l -44.92383,-47.6914 c -8.453,-8.97364 -22.48339,-9.39247 -31.45703,-0.93946 l -28.44927,26.79883 c -8.9736,8.45301 -9.3924,22.4834 -0.9394,31.45703 l 44.92383,47.68942 c 1.92987,2.0488 4.15245,3.6477 6.53711,4.8008 1.25081,-2.8991 3.09521,-5.6038 5.53125,-7.9277 l 44.65039,-42.59572 c 2.48215,-2.36792 5.33056,-4.10014 8.34766,-5.21094 z"
           id="path925"
           inkscape:connector-curvature="0" />
        <path
           inkscape:connector-curvature="0"
           id="path927"
           d="m 871.6316,888.6207 c 2.28955,-1.00022 4.45267,-2.40439 6.38086,-4.22071 l 47.6914,-44.92383 c 8.97364,-8.453 9.39247,-22.48339 0.93946,-31.45703 l -26.79883,-28.44927 c -8.45301,-8.9736 -22.4834,-9.3924 -31.45703,-0.9394 l -47.68942,44.92383 c -2.0488,1.92987 -3.6477,4.15245 -4.8008,6.53711 2.8991,1.25081 5.6038,3.09521 7.9277,5.53125 l 42.59572,44.65039 c 2.36792,2.48215 4.10014,5.33056 5.21094,8.34766 z"
           style="fill:#000000;fill-opacity:0.49019608;stroke:none;stroke-width:3.77952766;stroke-miterlimit:4;stroke-dasharray:none;stroke-opacity:1" />
        <path
           style="fill:#000000;fill-opacity:0.49019608;stroke:none;stroke-width:3.77952766;stroke-miterlimit:4;stroke-dasharray:none;stroke-opacity:1"
           d="m 812.1957,967.19621 c 1.00022,2.28955 2.40439,4.45267 4.22071,6.38086 l 44.92383,47.69143 c 8.453,8.9736 22.48339,9.3924 31.45703,0.9394 l 28.44927,-26.7988 c 8.9736,-8.45301 9.3924,-22.4834 0.9394,-31.45703 l -44.92383,-47.68942 c -1.92987,-2.0488 -4.15245,-3.6477 -6.53711,-4.8008 -1.25081,2.8991 -3.09521,5.6038 -5.53125,7.9277 l -44.65039,42.59572 c -2.48215,2.36792 -5.33056,4.10014 -8.34766,5.21094 z"
           id="path929"
           inkscape:connector-curvature="0" />
      </g>
      <g
         transform="matrix(1.0475538,0,0,1.0475538,-583.57281,-204.81969)"
         style="fill:#ffffff"
         id="g909">
        <path
           inkscape:connector-curvature="0"
           style="fill:#ffffff;fill-opacity:1;stroke:none;stroke-width:4.0682044;stroke-miterlimit:4;stroke-dasharray:none;stroke-opacity:1"
           d="m 802.0332,278.07227 c -5.78614,0.14091 -11.54297,2.36117 -16.08008,6.68945 l -44.64843,42.59375 c -9.67912,9.23367 -10.03836,24.45955 -0.80469,34.13867 l 42.5957,44.65039 c 9.23367,9.67912 24.45955,10.03641 34.13868,0.80274 l 44.64843,-42.59375 c 9.67912,-9.23368 10.03836,-24.45955 0.80469,-34.13868 l -42.5957,-44.64843 c -4.90539,-5.14204 -11.50097,-7.65385 -18.0586,-7.49414 z m 0.84375,20.23632 a 15,15 0 0 1 15,15 15,15 0 0 1 -15,15 15,15 0 0 1 -15,-15 15,15 0 0 1 15,-15 z m -33,33 a 15,15 0 0 1 15,15 15,15 0 0 1 -15,15 15,15 0 0 1 -15,-15 15,15 0 0 1 15,-15 z m 66,0 a 15,15 0 0 1 15,15 15,15 0 0 1 -15,15 15,15 0 0 1 -15,-15 15,15 0 0 1 15,-15 z m -33,33 a 15,15 0 0 1 15,15 15,15 0 0 1 -15,15 15,15 0 0 1 -15,-15 15,15 0 0 1 15,-15 z"
           transform="translate(0,552.36218)"
           id="rect869" />
        <path
           style="fill:#ffffff;fill-opacity:1;stroke:none;stroke-width:3.77952766;stroke-miterlimit:4;stroke-dasharray:none;stroke-opacity:1"
           d="m 731.28906,909.50866 c -2.28955,1.00022 -4.45267,2.40439 -6.38086,4.22071 l -47.6914,44.92383 c -8.97364,8.453 -9.39247,22.48339 -0.93946,31.45703 l 26.79883,28.44927 c 8.45301,8.9736 22.4834,9.3924 31.45703,0.9394 l 47.68946,-44.92383 c 2.04872,-1.92987 3.64761,-4.15245 4.80078,-6.53711 -2.8991,-1.25081 -5.60381,-3.09521 -7.92774,-5.53125 L 736.5,917.85632 c -2.36792,-2.48215 -4.10014,-5.33056 -5.21094,-8.34766 z"
           id="rect893"
           inkscape:connector-curvature="0" />
        <path
           inkscape:connector-curvature="0"
           id="path898"
           d="m 790.72497,829.1848 c -1.00022,-2.28955 -2.40439,-4.45267 -4.22071,-6.38086 l -44.92383,-47.6914 c -8.453,-8.97364 -22.48339,-9.39247 -31.45703,-0.93946 l -28.44927,26.79883 c -8.9736,8.45301 -9.3924,22.4834 -0.9394,31.45703 l 44.92383,47.68942 c 1.92987,2.0488 4.15245,3.6477 6.53711,4.8008 1.25081,-2.8991 3.09521,-5.6038 5.53125,-7.9277 l 44.65039,-42.59572 c 2.48215,-2.36792 5.33056,-4.10014 8.34766,-5.21094 z"
           style="fill:#ffffff;fill-opacity:1;stroke:none;stroke-width:3.77952766;stroke-miterlimit:4;stroke-dasharray:none;stroke-opacity:1" />
        <path
           style="fill:#ffffff;fill-opacity:1;stroke:none;stroke-width:3.77952766;stroke-miterlimit:4;stroke-dasharray:none;stroke-opacity:1"
           d="m 871.6316,888.6207 c 2.28955,-1.00022 4.45267,-2.40439 6.38086,-4.22071 l 47.6914,-44.92383 c 8.97364,-8.453 9.39247,-22.48339 0.93946,-31.45703 l -26.79883,-28.44927 c -8.45301,-8.9736 -22.4834,-9.3924 -31.45703,-0.9394 l -47.68942,44.92383 c -2.0488,1.92987 -3.6477,4.15245 -4.8008,6.53711 2.8991,1.25081 5.6038,3.09521 7.9277,5.53125 l 42.59572,44.65039 c 2.36792,2.48215 4.10014,5.33056 5.21094,8.34766 z"
           id="path900"
           inkscape:connector-curvature="0" />
        <path
           inkscape:connector-curvature="0"
           id="path902"
           d="m 812.1957,967.19621 c 1.00022,2.28955 2.40439,4.45267 4.22071,6.38086 l 44.92383,47.69143 c 8.453,8.9736 22.48339,9.3924 31.45703,0.9394 l 28.44927,-26.7988 c 8.9736,-8.45301 9.3924,-22.4834 0.9394,-31.45703 l -44.92383,-47.68942 c -1.92987,-2.0488 -4.15245,-3.6477 -6.53711,-4.8008 -1.25081,2.8991 -3.09521,5.6038 -5.53125,7.9277 l -44.65039,42.59572 c -2.48215,2.36792 -5.33056,4.10014 -8.34766,5.21094 z"
           style="fill:#ffffff;fill-opacity:1;stroke:none;stroke-width:3.77952766;stroke-miterlimit:4;stroke-dasharray:none;stroke-opacity:1" />
      </g>
      <g
         aria-label="DIFF"
         transform="translate(52.115234,550.78485)"
         style="font-style:normal;font-weight:normal;font-size:40px;line-height:1.25;font-family:sans-serif;letter-spacing:0px;word-spacing:0px;fill:#000000;fill-opacity:0.49019608;stroke:none"
         id="g958">
        <path
           d="m 138.80208,450.32408 q -8.57747,5.86588 -24.62565,5.86588 -4.03971,0 -9.24153,-1.27278 -6.253259,-1.49414 -9.407556,-3.8737 h -0.553385 q -2.379558,0 -3.984375,-1.66016 -1.604818,-1.66015 -1.604818,-4.03971 0,-5.81055 0.498047,-17.3763 0.553385,-11.6211 0.553385,-17.43165 0,-6.47461 -0.276693,-19.31315 -0.221354,-12.89388 -0.221354,-19.36849 0,-2.26888 2.324219,-4.75911 2.324219,-2.49024 4.648438,-2.49024 1.328125,0 8.854162,3.70769 8.52214,4.15039 9.85027,4.5931 15.71614,5.36783 26.78385,16.49088 13.00456,13.11524 13.00456,28.83138 0,9.46289 -4.48242,18.15104 -4.42709,8.68816 -12.11915,13.94532 z M 127.18099,391.7759 q -5.64453,-3.70768 -26.06445,-12.72787 l 0.27669,15.9375 0.16602,15.88217 -0.88542,30.21484 q 0.38737,0.16602 1.16211,0.7194 4.86979,3.26498 12.28515,3.26498 12.61719,0 18.3724,-3.8737 5.36784,-3.65235 8.52214,-9.79492 3.20963,-6.19792 3.20963,-12.89389 0,-15.60546 -17.04427,-26.72851 z"
           style="font-style:normal;font-variant:normal;font-weight:normal;font-stretch:normal;font-size:113.33333588px;font-family:'Comic Sans MS';-inkscape-font-specification:'Comic Sans MS';fill:#000000;fill-opacity:0.49019608"
           id="path950"
           inkscape:connector-curvature="0" />
        <path
           d="m 214.11784,381.75962 q -3.54166,0 -8.9095,-0.7194 l -8.90951,-1.16211 q -1.27278,16.10352 -1.27278,30.76823 0,3.8737 0.22135,9.57357 0.22136,5.69987 0.22136,9.57357 0,5.20182 -0.38737,9.46289 l 17.43164,-0.22136 q 2.32422,0 3.8737,1.66016 1.60481,1.60482 1.60481,3.98438 0,2.43489 -1.60481,4.09505 -1.54948,1.60482 -3.8737,1.60482 -3.09896,0 -9.29688,0.16601 -6.19791,0.11068 -9.29687,0.11068 -3.65235,0 -10.95703,0.99609 -7.24935,1.05143 -10.95704,1.05143 -2.32422,0 -3.92903,-1.66015 -1.54948,-1.60482 -1.54948,-3.98438 0,-2.37955 1.54948,-4.03971 1.60481,-1.66016 3.92903,-1.66016 3.59701,0 11.89779,-1.16211 0.55339,-4.48242 0.55339,-10.23763 0,-3.81836 -0.38737,-9.29687 -0.33204,-5.53386 -0.33204,-9.29688 0,-12.7832 1.54948,-31.93034 l -7.19401,0.22136 -7.19401,0.16601 q -2.37955,0 -3.98437,-1.60481 -1.60482,-1.60482 -1.60482,-4.09506 0,-5.14648 5.20182,-5.64453 4.48242,-0.44271 16.76758,-0.44271 11.01237,0 27.61393,2.37956 4.92513,0.7194 4.92513,5.92122 0,2.60092 -1.88151,4.1504 -1.66015,1.27278 -3.81836,1.27278 z"
           style="font-style:normal;font-variant:normal;font-weight:normal;font-stretch:normal;font-size:113.33333588px;font-family:'Comic Sans MS';-inkscape-font-specification:'Comic Sans MS';fill:#000000;fill-opacity:0.49019608"
           id="path952"
           inkscape:connector-curvature="0" />
        <path
           d="m 284.34246,377.9966 q -0.99609,0 -2.10287,-0.44271 -6.86197,-2.54557 -18.15104,-2.54557 -3.65234,0 -8.57747,0.55339 -4.86979,0.49804 -10.95703,1.60481 l -0.11068,23.90625 q 10.68034,-2.82226 16.04818,-2.82226 8.52213,0 17.65299,0.99609 5.20183,0.55339 5.20183,5.64453 0,2.49024 -1.60482,4.15039 -1.60482,1.60482 -3.98438,1.60482 -2.8776,0 -8.63281,-0.49805 -5.75521,-0.49804 -8.63281,-0.49804 -3.76302,0 -16.26953,3.20963 l -0.49805,38.07292 q 0,2.37956 -1.54948,3.98438 -1.54948,1.66015 -3.92904,1.66015 -2.37955,0 -3.98437,-1.66015 -1.54948,-1.60482 -1.54948,-3.98438 0,-10.90169 0.38737,-32.70508 0.44271,-21.85872 0.44271,-32.76042 0,-2.43489 -0.11068,-7.30468 -0.0553,-4.92513 -0.0553,-7.36003 0,-2.4349 1.49414,-4.09505 1.54948,-1.66016 3.98438,-1.66016 1.82617,0 3.26497,0.9961 6.86198,-1.21745 12.3405,-1.77084 5.47851,-0.60872 9.6289,-0.60872 6.36394,0 14.55404,1.82617 11.12305,2.54557 11.12305,6.64063 0,2.21354 -1.43881,3.92903 -1.60481,1.93685 -3.98437,1.93685 z"
           style="font-style:normal;font-variant:normal;font-weight:normal;font-stretch:normal;font-size:113.33333588px;font-family:'Comic Sans MS';-inkscape-font-specification:'Comic Sans MS';fill:#000000;fill-opacity:0.49019608"
           id="path954"
           inkscape:connector-curvature="0" />
        <path
           d="m 353.1836,377.9966 q -0.99609,0 -2.10286,-0.44271 -6.86198,-2.54557 -18.15105,-2.54557 -3.65234,0 -8.57747,0.55339 -4.86979,0.49804 -10.95703,1.60481 l -0.11068,23.90625 q 10.68034,-2.82226 16.04818,-2.82226 8.52213,0 17.65299,0.99609 5.20183,0.55339 5.20183,5.64453 0,2.49024 -1.60482,4.15039 -1.60482,1.60482 -3.98438,1.60482 -2.8776,0 -8.63281,-0.49805 -5.75521,-0.49804 -8.63281,-0.49804 -3.76302,0 -16.26953,3.20963 l -0.49805,38.07292 q 0,2.37956 -1.54948,3.98438 -1.54948,1.66015 -3.92904,1.66015 -2.37955,0 -3.98437,-1.66015 -1.54948,-1.60482 -1.54948,-3.98438 0,-10.90169 0.38737,-32.70508 0.44271,-21.85872 0.44271,-32.76042 0,-2.43489 -0.11068,-7.30468 -0.0553,-4.92513 -0.0553,-7.36003 0,-2.4349 1.49414,-4.09505 1.54948,-1.66016 3.98438,-1.66016 1.82617,0 3.26497,0.9961 6.86198,-1.21745 12.3405,-1.77084 5.47851,-0.60872 9.6289,-0.60872 6.36394,0 14.55404,1.82617 11.12305,2.54557 11.12305,6.64063 0,2.21354 -1.4388,3.92903 -1.60482,1.93685 -3.98438,1.93685 z"
           style="font-style:normal;font-variant:normal;font-weight:normal;font-stretch:normal;font-size:113.33333588px;font-family:'Comic Sans MS';-inkscape-font-specification:'Comic Sans MS';fill:#000000;fill-opacity:0.49019608"
           id="path956"
           inkscape:connector-curvature="0" />
      </g>
      <g
         id="flowRoot933"
         style="font-style:normal;font-weight:normal;font-size:40px;line-height:1.25;font-family:sans-serif;letter-spacing:0px;word-spacing:0px;fill:#ffffff;fill-opacity:1;stroke:none"
         transform="translate(32.115234,530.78485)"
         aria-label="DIFF">
        <path
           inkscape:connector-curvature="0"
           id="path941"
           style="font-style:normal;font-variant:normal;font-weight:normal;font-stretch:normal;font-size:113.33333588px;font-family:'Comic Sans MS';-inkscape-font-specification:'Comic Sans MS';fill:#ffffff"
           d="m 138.80208,450.32408 q -8.57747,5.86588 -24.62565,5.86588 -4.03971,0 -9.24153,-1.27278 -6.253259,-1.49414 -9.407556,-3.8737 h -0.553385 q -2.379558,0 -3.984375,-1.66016 -1.604818,-1.66015 -1.604818,-4.03971 0,-5.81055 0.498047,-17.3763 0.553385,-11.6211 0.553385,-17.43165 0,-6.47461 -0.276693,-19.31315 -0.221354,-12.89388 -0.221354,-19.36849 0,-2.26888 2.324219,-4.75911 2.324219,-2.49024 4.648438,-2.49024 1.328125,0 8.854162,3.70769 8.52214,4.15039 9.85027,4.5931 15.71614,5.36783 26.78385,16.49088 13.00456,13.11524 13.00456,28.83138 0,9.46289 -4.48242,18.15104 -4.42709,8.68816 -12.11915,13.94532 z M 127.18099,391.7759 q -5.64453,-3.70768 -26.06445,-12.72787 l 0.27669,15.9375 0.16602,15.88217 -0.88542,30.21484 q 0.38737,0.16602 1.16211,0.7194 4.86979,3.26498 12.28515,3.26498 12.61719,0 18.3724,-3.8737 5.36784,-3.65235 8.52214,-9.79492 3.20963,-6.19792 3.20963,-12.89389 0,-15.60546 -17.04427,-26.72851 z" />
        <path
           inkscape:connector-curvature="0"
           id="path943"
           style="font-style:normal;font-variant:normal;font-weight:normal;font-stretch:normal;font-size:113.33333588px;font-family:'Comic Sans MS';-inkscape-font-specification:'Comic Sans MS';fill:#ffffff"
           d="m 214.11784,381.75962 q -3.54166,0 -8.9095,-0.7194 l -8.90951,-1.16211 q -1.27278,16.10352 -1.27278,30.76823 0,3.8737 0.22135,9.57357 0.22136,5.69987 0.22136,9.57357 0,5.20182 -0.38737,9.46289 l 17.43164,-0.22136 q 2.32422,0 3.8737,1.66016 1.60481,1.60482 1.60481,3.98438 0,2.43489 -1.60481,4.09505 -1.54948,1.60482 -3.8737,1.60482 -3.09896,0 -9.29688,0.16601 -6.19791,0.11068 -9.29687,0.11068 -3.65235,0 -10.95703,0.99609 -7.24935,1.05143 -10.95704,1.05143 -2.32422,0 -3.92903,-1.66015 -1.54948,-1.60482 -1.54948,-3.98438 0,-2.37955 1.54948,-4.03971 1.60481,-1.66016 3.92903,-1.66016 3.59701,0 11.89779,-1.16211 0.55339,-4.48242 0.55339,-10.23763 0,-3.81836 -0.38737,-9.29687 -0.33204,-5.53386 -0.33204,-9.29688 0,-12.7832 1.54948,-31.93034 l -7.19401,0.22136 -7.19401,0.16601 q -2.37955,0 -3.98437,-1.60481 -1.60482,-1.60482 -1.60482,-4.09506 0,-5.14648 5.20182,-5.64453 4.48242,-0.44271 16.76758,-0.44271 11.01237,0 27.61393,2.37956 4.92513,0.7194 4.92513,5.92122 0,2.60092 -1.88151,4.1504 -1.66015,1.27278 -3.81836,1.27278 z" />
        <path
           inkscape:connector-curvature="0"
           id="path945"
           style="font-style:normal;font-variant:normal;font-weight:normal;font-stretch:normal;font-size:113.33333588px;font-family:'Comic Sans MS';-inkscape-font-specification:'Comic Sans MS';fill:#ffffff"
           d="m 284.34246,377.9966 q -0.99609,0 -2.10287,-0.44271 -6.86197,-2.54557 -18.15104,-2.54557 -3.65234,0 -8.57747,0.55339 -4.86979,0.49804 -10.95703,1.60481 l -0.11068,23.90625 q 10.68034,-2.82226 16.04818,-2.82226 8.52213,0 17.65299,0.99609 5.20183,0.55339 5.20183,5.64453 0,2.49024 -1.60482,4.15039 -1.60482,1.60482 -3.98438,1.60482 -2.8776,0 -8.63281,-0.49805 -5.75521,-0.49804 -8.63281,-0.49804 -3.76302,0 -16.26953,3.20963 l -0.49805,38.07292 q 0,2.37956 -1.54948,3.98438 -1.54948,1.66015 -3.92904,1.66015 -2.37955,0 -3.98437,-1.66015 -1.54948,-1.60482 -1.54948,-3.98438 0,-10.90169 0.38737,-32.70508 0.44271,-21.85872 0.44271,-32.76042 0,-2.43489 -0.11068,-7.30468 -0.0553,-4.92513 -0.0553,-7.36003 0,-2.4349 1.49414,-4.09505 1.54948,-1.66016 3.98438,-1.66016 1.82617,0 3.26497,0.9961 6.86198,-1.21745 12.3405,-1.77084 5.47851,-0.60872 9.6289,-0.60872 6.36394,0 14.55404,1.82617 11.12305,2.54557 11.12305,6.64063 0,2.21354 -1.43881,3.92903 -1.60481,1.93685 -3.98437,1.93685 z" />
        <path
           inkscape:connector-curvature="0"
           id="path947"
           style="font-style:normal;font-variant:normal;font-weight:normal;font-stretch:normal;font-size:113.33333588px;font-family:'Comic Sans MS';-inkscape-font-specification:'Comic Sans MS';fill:#ffffff"
           d="m 353.1836,377.9966 q -0.99609,0 -2.10286,-0.44271 -6.86198,-2.54557 -18.15105,-2.54557 -3.65234,0 -8.57747,0.55339 -4.86979,0.49804 -10.95703,1.60481 l -0.11068,23.90625 q 10.68034,-2.82226 16.04818,-2.82226 8.52213,0 17.65299,0.99609 5.20183,0.55339 5.20183,5.64453 0,2.49024 -1.60482,4.15039 -1.60482,1.60482 -3.98438,1.60482 -2.8776,0 -8.63281,-0.49805 -5.75521,-0.49804 -8.63281,-0.49804 -3.76302,0 -16.26953,3.20963 l -0.49805,38.07292 q 0,2.37956 -1.54948,3.98438 -1.54948,1.66015 -3.92904,1.66015 -2.37955,0 -3.98437,-1.66015 -1.54948,-1.60482 -1.54948,-3.98438 0,-10.90169 0.38737,-32.70508 0.44271,-21.85872 0.44271,-32.76042 0,-2.43489 -0.11068,-7.30468 -0.0553,-4.92513 -0.0553,-7.36003 0,-2.4349 1.49414,-4.09505 1.54948,-1.66016 3.98438,-1.66016 1.82617,0 3.26497,0.9961 6.86198,-1.21745 12.3405,-1.77084 5.47851,-0.60872 9.6289,-0.60872 6.36394,0 14.55404,1.82617 11.12305,2.54557 11.12305,6.64063 0,2.21354 -1.4388,3.92903 -1.60482,1.93685 -3.98438,1.93685 z" />
      </g>
    </g>
  </g>
</svg>
