<?xml version="1.0" encoding="UTF-8" standalone="no"?>
<!-- Created with Inkscape (http://www.inkscape.org/) -->

<svg
   xmlns:dc="http://purl.org/dc/elements/1.1/"
   xmlns:cc="http://creativecommons.org/ns#"
   xmlns:rdf="http://www.w3.org/1999/02/22-rdf-syntax-ns#"
   xmlns:svg="http://www.w3.org/2000/svg"
   xmlns="http://www.w3.org/2000/svg"
   xmlns:sodipodi="http://sodipodi.sourceforge.net/DTD/sodipodi-0.dtd"
   xmlns:inkscape="http://www.inkscape.org/namespaces/inkscape"
   width="512"
   height="512"
   id="svg2"
   version="1.1"
   inkscape:version="0.92.2 5c3e80d, 2017-08-06"
   sodipodi:docname="text-x-dtd.svg">
  <defs
     id="defs4" />
  <sodipodi:namedview
     id="base"
     pagecolor="#ffffff"
     bordercolor="#666666"
     borderopacity="1.0"
     inkscape:pageopacity="0.0"
     inkscape:pageshadow="2"
     inkscape:zoom="0.60666664"
     inkscape:cx="233.36268"
     inkscape:cy="250.37735"
     inkscape:document-units="px"
     inkscape:current-layer="layer1"
     showgrid="false"
     inkscape:window-width="1366"
     inkscape:window-height="717"
     inkscape:window-x="0"
     inkscape:window-y="24"
     inkscape:window-maximized="1" />
  <metadata
     id="metadata7">
    <rdf:RDF>
      <cc:Work
         rdf:about="">
        <dc:format>image/svg+xml</dc:format>
        <dc:type
           rdf:resource="http://purl.org/dc/dcmitype/StillImage" />
        <dc:title />
      </cc:Work>
    </rdf:RDF>
  </metadata>
  <g
     inkscape:label="Layer 1"
     inkscape:groupmode="layer"
     id="layer1"
     transform="translate(0,-540.36218)">
    <g
       id="g852">
      <path
         id="path931"
         d="m 432.91326,596.83616 c 102.19291,88.57459 105.82678,249.69971 8.1168,359.89879 C 343.32009,1066.934 181.27965,1084.4628 79.086741,995.8882 -23.106205,907.31362 -26.740032,746.1885 70.969941,635.98942 168.67991,525.79034 330.72036,508.26157 432.91326,596.83616 Z"
         inkscape:connector-curvature="0"
         style="fill:#f37329;fill-opacity:1;stroke-width:11.10955811" />
      <path
         sodipodi:nodetypes="csscc"
         inkscape:connector-curvature="0"
         id="path933"
         d="m 8.3652406,882.3622 c 11.5841014,43.15173 35.1863064,82.72637 70.7207064,113.5254 102.192913,88.5746 264.233393,71.0467 361.943363,-39.15235 20.35102,-22.95224 36.28955,-48.11807 47.87304,-74.37305 z"
         style="fill:#cc3b02;fill-opacity:1;stroke:none;stroke-width:0.99999994px;stroke-linecap:butt;stroke-linejoin:miter;stroke-opacity:1" />
      <path
         id="path935"
         d="m 511.6355,765.26571 c -1.55139,61.31164 -25.16123,124.1546 -70.96638,175.81447 C 342.95915,1051.2793 180.9187,1068.808 78.725758,980.23348 30.827125,938.71783 4.4968186,881.28503 0.19382672,820.591 0.79908072,886.94767 27.117405,950.84437 79.07869,995.8813 c 102.19291,88.5745 264.24106,71.0371 361.94332,-39.15334 49.70495,-56.05811 73.00502,-125.29097 70.61349,-191.46225 z"
         inkscape:connector-curvature="0"
         style="opacity:1;stroke-width:11.10955811;fill:#000000;fill-opacity:0.49019608" />
      <path
         style="fill:#000000;fill-opacity:0.49019608;stroke-width:0.65507984"
         d="m 206.88908,892.24884 c -0.72059,-0.13802 -2.04712,-0.40519 -2.94786,-0.59363 -2.3459,-0.49086 -62.62734,-60.65863 -64.25284,-64.1317 -1.499,-3.20281 -1.57734,-6.14012 -0.24951,-9.35593 1.13686,-2.75332 60.16123,-62.37697 63.5044,-64.14917 1.07245,-0.56849 3.50494,-1.03363 5.40553,-1.03363 8.34321,0 14.49462,8.38824 11.97104,16.32402 -0.63846,2.0077 -6.0521,7.79732 -26.10818,27.92133 l -25.30273,25.3884 25.02635,25.05275 c 25.24185,25.26841 27.03801,27.38177 27.03801,31.81227 0,2.4274 -1.19546,5.87733 -2.7914,8.05565 -2.22389,3.03531 -7.82957,5.37316 -11.29281,4.70964 z m 35.2011,-0.22124 c -5.99981,-1.32484 -10.40338,-7.13898 -9.84088,-12.99313 0.22851,-2.37795 6.84963,-16.82708 28.35645,-61.88158 15.98461,-33.48601 28.78086,-59.50175 29.73741,-60.4583 4.28423,-4.28422 10.43764,-5.00149 15.56856,-1.81475 3.94222,2.44846 5.79678,5.89956 5.77074,10.73862 -0.0183,3.38112 -1.74483,7.21266 -28.04473,62.23259 -15.76324,32.97705 -28.79603,59.44347 -29.78674,60.48962 -3.12084,3.29541 -7.42418,4.6445 -11.76081,3.68693 z m 98.99736,0.0353 c -5.28684,-1.21899 -9.08369,-5.34241 -9.81199,-10.65581 -0.82008,-5.98309 -0.78995,-6.02109 26.50874,-33.4122 l 25.29866,-25.38433 -25.29866,-25.38434 c -27.29869,-27.39115 -27.32882,-27.42913 -26.50874,-33.4122 0.55117,-4.02121 2.57238,-7.04513 6.0849,-9.10359 3.46088,-2.02822 8.60165,-2.33231 11.69629,-0.69187 3.34316,1.77218 62.36753,61.39585 63.50439,64.14917 1.32782,3.21581 1.2495,6.15311 -0.24953,9.35593 -1.73086,3.69819 -61.92255,63.64752 -64.41659,64.15724 -3.84695,0.78613 -4.81832,0.84069 -6.80747,0.38209 z"
         id="path843"
         inkscape:connector-curvature="0" />
      <path
         inkscape:connector-curvature="0"
         id="path865"
         d="m 186.88908,872.24884 c -0.72059,-0.13802 -2.04712,-0.40519 -2.94786,-0.59363 -2.3459,-0.49086 -62.62734,-60.65863 -64.25284,-64.1317 -1.499,-3.20281 -1.57734,-6.14012 -0.24951,-9.35593 1.13686,-2.75332 60.16123,-62.37697 63.5044,-64.14917 1.07245,-0.56849 3.50494,-1.03363 5.40553,-1.03363 8.34321,0 14.49462,8.38824 11.97104,16.32402 -0.63846,2.0077 -6.0521,7.79732 -26.10818,27.92133 l -25.30273,25.3884 25.02635,25.05275 c 25.24185,25.26841 27.03801,27.38177 27.03801,31.81227 0,2.4274 -1.19546,5.87733 -2.7914,8.05565 -2.22389,3.03531 -7.82957,5.37316 -11.29281,4.70964 z m 35.2011,-0.22124 c -5.99981,-1.32484 -10.40338,-7.13898 -9.84088,-12.99313 0.22851,-2.37795 6.84963,-16.82708 28.35645,-61.88158 15.98461,-33.48601 28.78086,-59.50175 29.73741,-60.4583 4.28423,-4.28422 10.43764,-5.00149 15.56856,-1.81475 3.94222,2.44846 5.79678,5.89956 5.77074,10.73862 -0.0183,3.38112 -1.74483,7.21266 -28.04473,62.23259 -15.76324,32.97705 -28.79603,59.44347 -29.78674,60.48962 -3.12084,3.29541 -7.42418,4.6445 -11.76081,3.68693 z m 98.99736,0.0353 c -5.28684,-1.21899 -9.08369,-5.34241 -9.81199,-10.65581 -0.82008,-5.98309 -0.78995,-6.02109 26.50874,-33.4122 l 25.29866,-25.38433 -25.29866,-25.38434 c -27.29869,-27.39115 -27.32882,-27.42913 -26.50874,-33.4122 0.55117,-4.02121 2.57238,-7.04513 6.0849,-9.10359 3.46088,-2.02822 8.60165,-2.33231 11.69629,-0.69187 3.34316,1.77218 62.36753,61.39585 63.50439,64.14917 1.32782,3.21581 1.2495,6.15311 -0.24953,9.35593 -1.73086,3.69819 -61.92255,63.64752 -64.41659,64.15724 -3.84695,0.78613 -4.81832,0.84069 -6.80747,0.38209 z"
         style="fill:#ffffff;stroke-width:0.65507984" />
      <g
         aria-label="DTD"
         transform="translate(22.00586,559.14097)"
         style="font-style:normal;font-weight:normal;font-size:40px;line-height:1.25;font-family:sans-serif;letter-spacing:0px;word-spacing:0px;fill:#000000;fill-opacity:0.49019608;stroke:none"
         id="g881">
        <path
           d="m 191.41146,442.35533 q -8.57747,5.86588 -24.62565,5.86588 -4.03972,0 -9.24154,-1.27278 -6.25325,-1.49414 -9.40755,-3.8737 h -0.55339 q -2.37955,0 -3.98437,-1.66016 -1.60482,-1.66015 -1.60482,-4.03971 0,-5.81055 0.49805,-17.3763 0.55338,-11.6211 0.55338,-17.43165 0,-6.47461 -0.27669,-19.31315 -0.22135,-12.89388 -0.22135,-19.36849 0,-2.26888 2.32422,-4.75911 2.32421,-2.49024 4.64843,-2.49024 1.32813,0 8.85417,3.70769 8.52214,4.15039 9.85026,4.5931 15.71615,5.36783 26.78385,16.49088 13.00456,13.11524 13.00456,28.83138 0,9.46289 -4.48242,18.15104 -4.42708,8.68816 -12.11914,13.94532 z m -11.62109,-58.54818 q -5.64454,-3.70768 -26.06446,-12.72787 l 0.27669,15.9375 0.16602,15.88217 -0.88542,30.21484 q 0.38737,0.16602 1.16211,0.7194 4.86979,3.26498 12.28516,3.26498 12.61719,0 18.3724,-3.8737 5.36783,-3.65235 8.52213,-9.79492 3.20964,-6.19792 3.20964,-12.89389 0,-15.60546 -17.04427,-26.72851 z"
           style="font-style:normal;font-variant:normal;font-weight:normal;font-stretch:normal;font-size:113.33333588px;font-family:'Comic Sans MS';-inkscape-font-specification:'Comic Sans MS';fill:#000000;fill-opacity:0.49019608"
           id="path875"
           inkscape:connector-curvature="0" />
        <path
           d="m 289.13933,372.85012 q -4.09505,0 -12.61719,-0.66407 -8.30078,-0.60872 -12.61719,-0.55338 h -3.92903 q 0.16601,7.63672 1.49414,24.79167 1.21745,15.99284 1.21745,24.847 0,1.93685 0.38737,5.86589 0.38737,3.92903 0.38737,5.92122 0,3.76302 -1.21745,6.47461 -1.54948,3.65234 -4.81446,3.65234 -2.21354,0 -3.98437,-1.54947 -1.77083,-1.54948 -1.77083,-3.98438 0,-0.83008 0.27669,-2.49023 0.27669,-1.66016 0.27669,-2.49024 0,-2.71159 -0.38737,-8.13476 -0.33203,-5.42318 -0.33203,-8.19011 0,-7.91341 -1.27279,-22.24609 -1.32812,-15.49479 -1.49414,-22.2461 l -5.0358,0.0553 q -12.11914,0 -19.03646,-1.77083 -4.48242,-1.16211 -4.48242,-5.47852 0,-2.26888 1.4388,-3.98437 1.66015,-1.93685 4.26107,-1.77084 1.93684,0.11068 8.85416,0.9961 5.53386,0.66406 8.96485,0.66406 3.32031,0 10.07161,-0.11068 6.7513,-0.16601 10.07162,-0.16601 4.26106,0 12.61718,0.60872 8.41146,0.60873 12.67253,0.60873 2.37956,0 3.98437,1.66015 1.60482,1.60482 1.60482,4.03972 0,2.37955 -1.60482,4.03971 -1.60481,1.60482 -3.98437,1.60482 z"
           style="font-style:normal;font-variant:normal;font-weight:normal;font-stretch:normal;font-size:113.33333588px;font-family:'Comic Sans MS';-inkscape-font-specification:'Comic Sans MS';fill:#000000;fill-opacity:0.49019608"
           id="path877"
           inkscape:connector-curvature="0" />
        <path
           d="m 350.34376,442.35533 q -8.57748,5.86588 -24.62566,5.86588 -4.03971,0 -9.24153,-1.27278 -6.25326,-1.49414 -9.40755,-3.8737 h -0.55339 q -2.37956,0 -3.98437,-1.66016 -1.60482,-1.66015 -1.60482,-4.03971 0,-5.81055 0.49804,-17.3763 0.55339,-11.6211 0.55339,-17.43165 0,-6.47461 -0.27669,-19.31315 -0.22136,-12.89388 -0.22136,-19.36849 0,-2.26888 2.32422,-4.75911 2.32422,-2.49024 4.64844,-2.49024 1.32812,0 8.85417,3.70769 8.52213,4.15039 9.85026,4.5931 15.71614,5.36783 26.78385,16.49088 13.00456,13.11524 13.00456,28.83138 0,9.46289 -4.48242,18.15104 -4.42709,8.68816 -12.11914,13.94532 z m -11.6211,-58.54818 q -5.64453,-3.70768 -26.06445,-12.72787 l 0.27669,15.9375 0.16602,15.88217 -0.88542,30.21484 q 0.38737,0.16602 1.16211,0.7194 4.86979,3.26498 12.28516,3.26498 12.61718,0 18.37239,-3.8737 5.36784,-3.65235 8.52214,-9.79492 3.20963,-6.19792 3.20963,-12.89389 0,-15.60546 -17.04427,-26.72851 z"
           style="font-style:normal;font-variant:normal;font-weight:normal;font-stretch:normal;font-size:113.33333588px;font-family:'Comic Sans MS';-inkscape-font-specification:'Comic Sans MS';fill:#000000;fill-opacity:0.49019608"
           id="path879"
           inkscape:connector-curvature="0" />
      </g>
      <g
         id="flowRoot860"
         style="font-style:normal;font-weight:normal;font-size:40px;line-height:1.25;font-family:sans-serif;letter-spacing:0px;word-spacing:0px;fill:#ffffff;fill-opacity:1;stroke:none"
         transform="translate(2.00586,539.14097)"
         aria-label="DTD">
        <path
           inkscape:connector-curvature="0"
           id="path868"
           style="font-style:normal;font-variant:normal;font-weight:normal;font-stretch:normal;font-size:113.33333588px;font-family:'Comic Sans MS';-inkscape-font-specification:'Comic Sans MS';fill:#ffffff"
           d="m 191.41146,442.35533 q -8.57747,5.86588 -24.62565,5.86588 -4.03972,0 -9.24154,-1.27278 -6.25325,-1.49414 -9.40755,-3.8737 h -0.55339 q -2.37955,0 -3.98437,-1.66016 -1.60482,-1.66015 -1.60482,-4.03971 0,-5.81055 0.49805,-17.3763 0.55338,-11.6211 0.55338,-17.43165 0,-6.47461 -0.27669,-19.31315 -0.22135,-12.89388 -0.22135,-19.36849 0,-2.26888 2.32422,-4.75911 2.32421,-2.49024 4.64843,-2.49024 1.32813,0 8.85417,3.70769 8.52214,4.15039 9.85026,4.5931 15.71615,5.36783 26.78385,16.49088 13.00456,13.11524 13.00456,28.83138 0,9.46289 -4.48242,18.15104 -4.42708,8.68816 -12.11914,13.94532 z m -11.62109,-58.54818 q -5.64454,-3.70768 -26.06446,-12.72787 l 0.27669,15.9375 0.16602,15.88217 -0.88542,30.21484 q 0.38737,0.16602 1.16211,0.7194 4.86979,3.26498 12.28516,3.26498 12.61719,0 18.3724,-3.8737 5.36783,-3.65235 8.52213,-9.79492 3.20964,-6.19792 3.20964,-12.89389 0,-15.60546 -17.04427,-26.72851 z" />
        <path
           inkscape:connector-curvature="0"
           id="path870"
           style="font-style:normal;font-variant:normal;font-weight:normal;font-stretch:normal;font-size:113.33333588px;font-family:'Comic Sans MS';-inkscape-font-specification:'Comic Sans MS';fill:#ffffff"
           d="m 289.13933,372.85012 q -4.09505,0 -12.61719,-0.66407 -8.30078,-0.60872 -12.61719,-0.55338 h -3.92903 q 0.16601,7.63672 1.49414,24.79167 1.21745,15.99284 1.21745,24.847 0,1.93685 0.38737,5.86589 0.38737,3.92903 0.38737,5.92122 0,3.76302 -1.21745,6.47461 -1.54948,3.65234 -4.81446,3.65234 -2.21354,0 -3.98437,-1.54947 -1.77083,-1.54948 -1.77083,-3.98438 0,-0.83008 0.27669,-2.49023 0.27669,-1.66016 0.27669,-2.49024 0,-2.71159 -0.38737,-8.13476 -0.33203,-5.42318 -0.33203,-8.19011 0,-7.91341 -1.27279,-22.24609 -1.32812,-15.49479 -1.49414,-22.2461 l -5.0358,0.0553 q -12.11914,0 -19.03646,-1.77083 -4.48242,-1.16211 -4.48242,-5.47852 0,-2.26888 1.4388,-3.98437 1.66015,-1.93685 4.26107,-1.77084 1.93684,0.11068 8.85416,0.9961 5.53386,0.66406 8.96485,0.66406 3.32031,0 10.07161,-0.11068 6.7513,-0.16601 10.07162,-0.16601 4.26106,0 12.61718,0.60872 8.41146,0.60873 12.67253,0.60873 2.37956,0 3.98437,1.66015 1.60482,1.60482 1.60482,4.03972 0,2.37955 -1.60482,4.03971 -1.60481,1.60482 -3.98437,1.60482 z" />
        <path
           inkscape:connector-curvature="0"
           id="path872"
           style="font-style:normal;font-variant:normal;font-weight:normal;font-stretch:normal;font-size:113.33333588px;font-family:'Comic Sans MS';-inkscape-font-specification:'Comic Sans MS';fill:#ffffff"
           d="m 350.34376,442.35533 q -8.57748,5.86588 -24.62566,5.86588 -4.03971,0 -9.24153,-1.27278 -6.25326,-1.49414 -9.40755,-3.8737 h -0.55339 q -2.37956,0 -3.98437,-1.66016 -1.60482,-1.66015 -1.60482,-4.03971 0,-5.81055 0.49804,-17.3763 0.55339,-11.6211 0.55339,-17.43165 0,-6.47461 -0.27669,-19.31315 -0.22136,-12.89388 -0.22136,-19.36849 0,-2.26888 2.32422,-4.75911 2.32422,-2.49024 4.64844,-2.49024 1.32812,0 8.85417,3.70769 8.52213,4.15039 9.85026,4.5931 15.71614,5.36783 26.78385,16.49088 13.00456,13.11524 13.00456,28.83138 0,9.46289 -4.48242,18.15104 -4.42709,8.68816 -12.11914,13.94532 z m -11.6211,-58.54818 q -5.64453,-3.70768 -26.06445,-12.72787 l 0.27669,15.9375 0.16602,15.88217 -0.88542,30.21484 q 0.38737,0.16602 1.16211,0.7194 4.86979,3.26498 12.28516,3.26498 12.61718,0 18.37239,-3.8737 5.36784,-3.65235 8.52214,-9.79492 3.20963,-6.19792 3.20963,-12.89389 0,-15.60546 -17.04427,-26.72851 z" />
      </g>
    </g>
  </g>
</svg>
