<?xml version="1.0" encoding="UTF-8" standalone="no"?>
<!-- Created with Inkscape (http://www.inkscape.org/) -->

<svg
   xmlns:dc="http://purl.org/dc/elements/1.1/"
   xmlns:cc="http://creativecommons.org/ns#"
   xmlns:rdf="http://www.w3.org/1999/02/22-rdf-syntax-ns#"
   xmlns:svg="http://www.w3.org/2000/svg"
   xmlns="http://www.w3.org/2000/svg"
   xmlns:sodipodi="http://sodipodi.sourceforge.net/DTD/sodipodi-0.dtd"
   xmlns:inkscape="http://www.inkscape.org/namespaces/inkscape"
   width="512"
   height="512"
   id="svg2"
   version="1.1"
   inkscape:version="0.92.2 5c3e80d, 2017-08-06"
   sodipodi:docname="text-x-install.svg">
  <defs
     id="defs4" />
  <sodipodi:namedview
     id="base"
     pagecolor="#ffffff"
     bordercolor="#666666"
     borderopacity="1.0"
     inkscape:pageopacity="0.0"
     inkscape:pageshadow="2"
     inkscape:zoom="0.30333332"
     inkscape:cx="-224.88464"
     inkscape:cy="474.54066"
     inkscape:document-units="px"
     inkscape:current-layer="layer1"
     showgrid="false"
     inkscape:window-width="1366"
     inkscape:window-height="717"
     inkscape:window-x="0"
     inkscape:window-y="24"
     inkscape:window-maximized="1" />
  <metadata
     id="metadata7">
    <rdf:RDF>
      <cc:Work
         rdf:about="">
        <dc:format>image/svg+xml</dc:format>
        <dc:type
           rdf:resource="http://purl.org/dc/dcmitype/StillImage" />
        <dc:title />
      </cc:Work>
    </rdf:RDF>
  </metadata>
  <g
     inkscape:label="Layer 1"
     inkscape:groupmode="layer"
     id="layer1"
     transform="translate(0,-540.36218)">
    <g
       id="g888">
      <path
         id="path943"
         d="m 432.91326,596.83618 c 102.19291,88.57459 105.82678,249.69971 8.1168,359.89879 C 343.32009,1066.934 181.27965,1084.4628 79.086738,995.88822 -23.106202,907.31364 -26.740032,746.18852 70.969938,635.98944 168.67991,525.79036 330.72036,508.26159 432.91326,596.83618 Z"
         inkscape:connector-curvature="0"
         style="fill:#3689e6;fill-opacity:1;stroke-width:11.10955811" />
      <path
         sodipodi:nodetypes="csscc"
         inkscape:connector-curvature="0"
         id="path945"
         d="m 8.3652372,882.36222 c 11.5841008,43.15173 35.1863108,82.72637 70.7207108,113.5254 102.192912,88.57458 264.233392,71.04668 361.943362,-39.15235 20.35102,-22.95224 36.28955,-48.11807 47.87304,-74.37305 z"
         style="fill:#0d52bf;fill-opacity:1;stroke:none;stroke-width:0.99999994px;stroke-linecap:butt;stroke-linejoin:miter;stroke-opacity:1" />
      <path
         id="path947"
         d="M 511.6355,765.26573 C 510.08411,826.57737 486.47427,889.42033 440.66912,941.0802 342.95915,1051.2793 180.9187,1068.808 78.725758,980.2335 30.827128,938.71785 4.4968172,881.28505 0.19382718,820.59102 0.79907718,886.94769 27.117408,950.84439 79.078688,995.88132 181.2716,1084.4558 343.31975,1066.9184 441.02201,956.72798 490.72696,900.66987 514.02703,831.43701 511.6355,765.26573 Z"
         inkscape:connector-curvature="0"
         style="opacity:1;stroke-width:11.10955811;fill:#000000;fill-opacity:0.49019608" />
      <path
         style="fill:#000000;fill-opacity:0.49019608;stroke-width:0.17449206"
         d="M 167.36126,892.19804 C 153.63703,890.97219 142.12999,880.77349 139.22513,867.26097 138.53695,864.05975 138.5,862.68132 138.5,840.19622 V 818.4032 h 10.55225 10.55229 l 0.0483,22.11686 0.0479,22.11685 0.40715,1.13422 c 0.64911,1.80823 1.39039,2.96016 2.80723,4.36231 1.38795,1.37357 2.65441,2.11845 4.64753,2.73354 1.0012,0.30881 4.76108,0.32013 108.34978,0.32013 101.93236,0 107.36886,-0.0167 108.42554,-0.30748 3.6272,-1.00215 6.55616,-3.89786 7.64766,-7.56086 0.28483,-0.95602 0.31081,-2.62357 0.35908,-22.97324 l 0.052,-21.94236 h 10.55162 10.55162 l -0.002,21.41888 c -0.002,13.02551 -0.071,22.2019 -0.17822,23.41703 -0.37575,4.24509 -1.37194,7.73573 -3.31413,11.61224 -1.65682,3.307 -3.11423,5.30244 -5.92716,8.11537 -2.81292,2.81292 -4.80838,4.27034 -8.11533,5.92716 -3.91719,1.96254 -7.45601,2.96403 -11.72264,3.31756 -2.5295,0.20953 -214.52982,0.19654 -216.87959,-0.0133 z M 273.2837,835.54312 c -2.59922,-0.87974 -5.6036,-2.99031 -10.10912,-7.10175 -3.66878,-3.34783 -82.2544,-82.02394 -83.83907,-83.93557 -4.04105,-4.87481 -4.82456,-7.54858 -2.65252,-9.0516 0.84465,-0.58448 1.8549,-0.92834 3.77537,-1.28503 1.40758,-0.2615 3.78939,-0.29915 22.12385,-0.35054 l 20.54644,-0.0576 v -43.34557 c 0,-47.07798 -0.038,-45.11844 0.95172,-49.02027 3.2983,-13.00229 14.28329,-22.47067 27.63984,-23.82378 2.46383,-0.24951 46.08665,-0.25018 48.55905,-6.7e-4 15.09878,1.52391 26.8696,13.36711 28.40889,28.58369 0.12192,1.2061 0.18289,16.07583 0.18289,44.71359 v 42.90654 h 19.55008 c 12.31312,0 20.17737,0.067 21.24455,0.18123 3.4055,0.36422 5.51145,1.12892 6.35045,2.30597 0.66419,0.9318 0.57095,2.3412 -0.26718,4.03674 -1.1952,2.41833 -3.04288,4.61227 -8.83336,10.48879 -13.90961,14.11639 -74.03862,74.41479 -76.6068,76.8226 -5.28159,4.95189 -8.53774,7.25433 -11.50554,8.13566 -1.53333,0.45535 -3.82444,0.37133 -5.51957,-0.20222 z"
         id="path840"
         inkscape:connector-curvature="0" />
      <path
         inkscape:connector-curvature="0"
         id="path899"
         d="M 147.36126,872.19803 C 133.63703,870.97218 122.12999,860.77348 119.22513,847.26096 118.53695,844.05974 118.5,842.68131 118.5,820.19621 v -21.79302 h 10.55225 10.55229 l 0.0483,22.11686 0.0479,22.11685 0.40715,1.13422 c 0.64911,1.80823 1.39039,2.96016 2.80723,4.36231 1.38795,1.37357 2.65441,2.11845 4.64753,2.73354 1.0012,0.30881 4.76108,0.32013 108.34978,0.32013 101.93236,0 107.36886,-0.0167 108.42554,-0.30748 3.6272,-1.00215 6.55616,-3.89786 7.64766,-7.56086 0.28483,-0.95602 0.31081,-2.62357 0.35908,-22.97324 l 0.052,-21.94236 h 10.55162 10.55162 l -0.002,21.41888 c -0.002,13.02551 -0.071,22.2019 -0.17822,23.41703 -0.37575,4.24509 -1.37194,7.73573 -3.31413,11.61224 -1.65682,3.307 -3.11423,5.30244 -5.92716,8.11537 -2.81292,2.81292 -4.80838,4.27034 -8.11533,5.92716 -3.91719,1.96254 -7.45601,2.96403 -11.72264,3.31756 -2.5295,0.20953 -214.52982,0.19654 -216.87959,-0.0133 z M 253.2837,815.54311 c -2.59922,-0.87974 -5.6036,-2.99031 -10.10912,-7.10175 -3.66878,-3.34783 -82.2544,-82.02394 -83.83907,-83.93557 -4.04105,-4.87481 -4.82456,-7.54858 -2.65252,-9.0516 0.84465,-0.58448 1.8549,-0.92834 3.77537,-1.28503 1.40758,-0.2615 3.78939,-0.29915 22.12385,-0.35054 l 20.54644,-0.0576 v -43.34557 c 0,-47.07798 -0.038,-45.11844 0.95172,-49.02027 3.2983,-13.00229 14.28329,-22.47067 27.63984,-23.82378 2.46383,-0.24951 46.08665,-0.25018 48.55905,-6.7e-4 15.09878,1.52391 26.8696,13.36711 28.40889,28.58369 0.12192,1.2061 0.18289,16.07583 0.18289,44.71359 v 42.90654 h 19.55008 c 12.31312,0 20.17737,0.067 21.24455,0.18123 3.4055,0.36422 5.51145,1.12892 6.35045,2.30597 0.66419,0.9318 0.57095,2.3412 -0.26718,4.03674 -1.1952,2.41833 -3.04288,4.61227 -8.83336,10.48879 -13.90961,14.11639 -74.03862,74.41479 -76.6068,76.8226 -5.28159,4.95189 -8.53774,7.25433 -11.50554,8.13566 -1.53333,0.45535 -3.82444,0.37133 -5.51957,-0.20222 z"
         style="fill:#ffffff;stroke-width:0.17449206" />
      <path
         inkscape:connector-curvature="0"
         id="path900"
         style="font-style:normal;font-variant:normal;font-weight:normal;font-stretch:normal;font-size:medium;line-height:1.25;font-family:'Comic Sans MS';-inkscape-font-specification:'Comic Sans MS';letter-spacing:0px;word-spacing:0px;fill:#000000;fill-opacity:0.49019608;stroke:none;stroke-width:1.74256396"
         d="m 127.30737,961.79006 q -2.1782,0 -5.47954,-0.44246 l -5.47955,-0.71473 q -0.78279,9.90404 -0.78279,18.92317 0,2.38241 0.13614,5.88795 0.13615,3.50555 0.13615,5.88796 0,3.19925 -0.23824,5.81989 l 10.72085,-0.1361 q 1.42945,0 2.38241,1.02104 0.987,0.98699 0.987,2.45052 0,1.4975 -0.987,2.5185 -0.95296,0.987 -2.38241,0.987 -1.90593,0 -5.71779,0.1021 -3.81186,0.068 -5.71779,0.068 -2.24627,0 -6.73882,0.6126 -4.45851,0.6466 -6.73882,0.6466 -1.429447,0 -2.416446,-1.021 -0.952965,-0.987 -0.952965,-2.4505 0,-1.4634 0.952965,-2.48449 0.986999,-1.02104 2.416446,-1.02104 2.21224,0 7.31741,-0.71471 0.34034,-2.7568 0.34034,-6.29639 0,-2.34836 -0.23824,-5.71779 -0.20421,-3.40343 -0.20421,-5.71778 0,-7.86195 0.95297,-19.63788 l -4.42448,0.13609 -4.42448,0.10212 q -1.46348,0 -2.450479,-0.98699 -0.987001,-0.98701 -0.987001,-2.51856 0,-3.1652 3.19924,-3.4715 2.75679,-0.27228 10.31244,-0.27228 6.77285,0 16.98319,1.46348 3.02907,0.44245 3.02907,3.64168 0,1.59962 -1.15717,2.55259 -1.02104,0.78279 -2.34838,0.78279 z" />
      <path
         inkscape:connector-curvature="0"
         id="path902"
         style="font-style:normal;font-variant:normal;font-weight:normal;font-stretch:normal;font-size:medium;line-height:1.25;font-family:'Comic Sans MS';-inkscape-font-specification:'Comic Sans MS';letter-spacing:0px;word-spacing:0px;fill:#000000;fill-opacity:0.49019608;stroke:none;stroke-width:1.74256396"
         d="m 185.30209,996.64134 q 0,1.63365 -0.54455,5.44556 -0.54455,3.4374 -3.6417,3.4374 -1.8719,0 -4.45851,-2.4505 -13.85202,-13.10322 -31.78818,-37.81224 l -0.17025,7.72583 -0.10211,7.75985 q 0,2.82487 0.10211,8.47457 0.1361,5.64973 0.1361,8.50863 0,9.15526 -3.53959,9.15526 -1.8719,0 -2.961,-1.1912 -0.987,-1.0551 -0.987,-2.5185 0,-1.4295 0.20421,-4.32243 0.23824,-2.89293 0.23824,-4.32237 0,-2.11014 0.1361,-6.29637 0.13609,-4.22029 0.13609,-6.33043 0,-2.24627 -0.10211,-6.77284 -0.10212,-4.56062 -0.10212,-6.80689 0,-2.14417 -0.4084,-6.36445 -0.40843,-4.2543 -0.40843,-6.39847 0,-1.56559 1.32735,-2.8589 1.36138,-1.29332 3.0631,-1.29332 1.80383,0 4.45852,3.94801 8.47458,12.69486 15.24744,21.10135 8.06615,9.9721 17.69791,19.0593 0.10212,-1.46348 0,-4.32236 l -0.10211,-4.28835 q 0,-14.94113 -1.15717,-23.79009 -0.13609,-0.8849 -0.91892,-3.57362 -0.6807,-2.31433 -0.6807,-3.60765 0,-3.94798 3.60766,-3.94798 5.92199,0 5.92199,22.08835 0,3.77783 -0.10212,11.29943 -0.10211,7.48759 -0.10211,11.26542 z" />
      <path
         inkscape:connector-curvature="0"
         id="path904"
         style="font-style:normal;font-variant:normal;font-weight:normal;font-stretch:normal;font-size:medium;line-height:1.25;font-family:'Comic Sans MS';-inkscape-font-specification:'Comic Sans MS';letter-spacing:0px;word-spacing:0px;fill:#000000;fill-opacity:0.49019608;stroke:none;stroke-width:1.74256396"
         d="m 192.95984,995.7224 q -0.034,-1.42945 0.95295,-2.31434 1.02104,-0.91894 2.48452,-0.91894 1.66768,0 2.92696,1.90593 1.73575,2.58663 3.09713,3.50555 2.89294,1.90593 8.40652,1.90593 5.27535,0 9.80192,-2.2803 5.78585,-2.92697 5.78585,-8.13424 0,-4.28834 -4.86691,-6.77286 -4.11819,-2.14417 -10.17631,-2.31433 -5.37745,-0.20421 -9.15526,-2.34838 -4.8329,-2.75679 -4.8329,-7.896 0,-6.05813 6.87496,-11.0612 6.56865,-4.73078 13.57975,-4.73078 3.30134,0 7.45354,1.12313 5.51359,1.46348 5.51359,3.7438 0,2.99503 -3.06311,2.99503 -1.36138,0 -4.76482,-0.71473 -3.40345,-0.74876 -5.27535,-0.71471 -5.30937,0.0681 -9.01913,2.62064 -3.81186,2.62066 -3.81186,6.36445 0,2.82485 5.03711,3.98202 1.8719,0.44246 7.24933,0.81683 7.7939,0.57858 12.18434,4.90096 4.01607,3.948 4.01607,9.63176 0,8.10019 -7.48759,12.93308 -6.50057,4.1862 -15.07726,4.1862 -6.2283,0 -11.40154,-2.3824 -6.33041,-2.9269 -6.4325,-8.0321 z" />
      <path
         inkscape:connector-curvature="0"
         id="path906"
         style="font-style:normal;font-variant:normal;font-weight:normal;font-stretch:normal;font-size:medium;line-height:1.25;font-family:'Comic Sans MS';-inkscape-font-specification:'Comic Sans MS';letter-spacing:0px;word-spacing:0px;fill:#000000;fill-opacity:0.49019608;stroke:none;stroke-width:1.74256396"
         d="m 283.08307,961.21146 q -2.51856,0 -7.75986,-0.40841 -5.10518,-0.37437 -7.75985,-0.34034 h -2.41645 q 0.10212,4.69675 0.91892,15.24744 0.74877,9.83595 0.74877,15.28146 0,1.1912 0.23824,3.60765 0.23824,2.41645 0.23824,3.64168 0,2.31436 -0.74876,3.98206 -0.95297,2.2462 -2.961,2.2462 -1.36138,0 -2.45048,-0.9529 -1.0891,-0.953 -1.0891,-2.4505 0,-0.5105 0.17025,-1.53154 0.17025,-1.02104 0.17025,-1.53154 0,-1.66771 -0.23825,-5.00308 -0.20419,-3.33537 -0.20419,-5.03709 0,-4.86693 -0.7828,-13.68186 -0.81682,-9.52965 -0.91894,-13.68185 l -3.09713,0.034 q -7.45353,0 -11.70785,-1.0891 -2.75679,-0.71471 -2.75679,-3.36941 0,-1.39541 0.8849,-2.45048 1.02103,-1.1912 2.62065,-1.0891 1.1912,0.0681 5.44552,0.61262 3.40343,0.40842 5.51357,0.40842 2.04206,0 6.19428,-0.0681 4.1522,-0.10211 6.19426,-0.10211 2.62066,0 7.75986,0.37437 5.17324,0.37439 7.7939,0.37439 1.46347,0 2.45048,1.02104 0.98699,0.98699 0.98699,2.48451 0,1.46348 -0.98699,2.48452 -0.98701,0.98698 -2.45048,0.98698 z" />
      <path
         inkscape:connector-curvature="0"
         id="path908"
         style="font-style:normal;font-variant:normal;font-weight:normal;font-stretch:normal;font-size:medium;line-height:1.25;font-family:'Comic Sans MS';-inkscape-font-specification:'Comic Sans MS';letter-spacing:0px;word-spacing:0px;fill:#000000;fill-opacity:0.49019608;stroke:none;stroke-width:1.74256396"
         d="m 326.64717,1005.218 q -3.13118,0 -5.44551,-8.03211 -0.88491,-3.06311 -2.21226,-10.72086 -3.4715,0.47648 -9.08719,1.70171 l -9.05316,1.8719 q -1.70172,4.45852 -5.8199,13.03516 -1.0891,1.906 -2.96098,1.906 -1.36138,0 -2.45048,-0.987 -1.05508,-0.987 -1.05508,-2.4505 0,-1.63365 5.13921,-12.42258 -0.5786,-0.88489 -0.5786,-2.04208 0,-2.75679 3.33539,-3.53958 3.87992,-7.28336 9.80192,-16.74494 8.06615,-12.89906 10.04017,-12.89906 2.6887,0 3.67571,3.74378 l 2.14417,11.43558 5.07114,23.65394 1.93996,5.37745 q 0.98699,2.75679 0.98699,3.67569 0,1.4635 -1.05507,2.4505 -1.05505,0.987 -2.41643,0.987 z m -12.01418,-38.90137 -9.73384,15.68989 q 4.11817,-1.05507 12.49065,-2.5526 z" />
      <path
         inkscape:connector-curvature="0"
         id="path910"
         style="font-style:normal;font-variant:normal;font-weight:normal;font-stretch:normal;font-size:medium;line-height:1.25;font-family:'Comic Sans MS';-inkscape-font-specification:'Comic Sans MS';letter-spacing:0px;word-spacing:0px;fill:#000000;fill-opacity:0.49019608;stroke:none;stroke-width:1.74256396"
         d="m 370.04109,1002.8016 q -3.84589,1.8038 -12.08222,3.2332 -7.58969,1.3274 -12.38855,1.3274 -3.43749,0 -4.935,-1.0551 -2.04207,-1.4294 -2.04207,-5.2413 l 0.6807,-11.2654 q 0.88489,-15.58778 0.88489,-34.57901 0,-1.46347 0.95297,-2.48451 0.98699,-1.02102 2.41645,-1.02102 1.46347,0 2.41643,1.02102 0.98701,1.02104 0.98701,2.48451 0,19.22948 -0.91893,34.98743 l -0.44245,5.17324 q -0.27228,2.82485 -0.20421,5.00304 8.88299,0.1021 22.46274,-4.18622 0.57859,-0.17025 1.08911,-0.17025 1.46347,0 2.45048,1.15719 0.85086,1.05505 0.85086,2.41643 0,2.17825 -2.17821,3.19925 z" />
      <path
         id="path912"
         transform="translate(0,540.36218)"
         d="M 381.91992 411.35352 C 380.96695 411.35352 380.15995 411.69432 379.50195 412.375 C 378.86664 413.05569 378.54883 413.88373 378.54883 414.85938 C 378.54883 427.5202 378.25399 439.04565 377.66406 449.4375 L 376.98438 460.70312 C 376.98438 463.24439 377.664 464.99238 379.02539 465.94531 C 379.79306 466.48619 380.95197 466.81448 382.48438 466.93945 C 386.38863 464.3923 390.2446 461.73731 394.05078 458.97852 C 390.21381 459.70585 386.77955 460.05817 383.75781 460.02344 C 383.71243 458.57131 383.77942 456.90276 383.96094 455.01953 L 384.4043 449.8457 C 385.01692 439.3404 385.32227 427.67903 385.32227 414.85938 C 385.32227 413.88373 384.99394 413.05569 384.33594 412.375 C 383.70064 411.69432 382.89558 411.35352 381.91992 411.35352 z "
         style="font-style:normal;font-variant:normal;font-weight:normal;font-stretch:normal;font-size:medium;line-height:1.25;font-family:'Comic Sans MS';-inkscape-font-specification:'Comic Sans MS';letter-spacing:0px;word-spacing:0px;fill:#000000;fill-opacity:0.49019608;stroke:none;stroke-width:1.74256396" />
      <g
         id="flowRoot876"
         style="font-style:normal;font-weight:normal;font-size:40px;line-height:1.25;font-family:sans-serif;letter-spacing:0px;word-spacing:0px;fill:#000000;fill-opacity:1;stroke:none"
         transform="matrix(1.742564,0,0,1.742564,-57.392086,290.71944)"
         aria-label="INSTALL">
        <path
           inkscape:connector-curvature="0"
           id="path884"
           style="font-style:normal;font-variant:normal;font-weight:normal;font-stretch:normal;font-family:'Comic Sans MS';-inkscape-font-specification:'Comic Sans MS';fill:#ffffff"
           d="m 94.515625,373.62794 q -1.25,0 -3.144531,-0.25391 l -3.144532,-0.41016 q -0.449218,5.6836 -0.449218,10.85938 0,1.36719 0.07813,3.3789 0.07813,2.01172 0.07813,3.37891 0,1.83594 -0.136719,3.33984 l 6.152344,-0.0781 q 0.820312,0 1.367187,0.58594 0.566406,0.5664 0.566406,1.40625 0,0.85937 -0.566406,1.44531 -0.546875,0.56641 -1.367187,0.56641 -1.09375,0 -3.28125,0.0586 -2.1875,0.0391 -3.28125,0.0391 -1.289063,0 -3.867188,0.35156 -2.558594,0.3711 -3.867187,0.3711 -0.820313,0 -1.386719,-0.58594 -0.546875,-0.56641 -0.546875,-1.40625 0,-0.83984 0.546875,-1.42578 0.566406,-0.58594 1.386719,-0.58594 1.269531,0 4.199218,-0.41015 0.195313,-1.58204 0.195313,-3.61329 0,-1.34765 -0.136719,-3.28125 -0.117187,-1.95312 -0.117187,-3.28125 0,-4.51171 0.546875,-11.26953 l -2.539063,0.0781 -2.539062,0.0586 q -0.839844,0 -1.40625,-0.5664 -0.566407,-0.56641 -0.566407,-1.44532 0,-1.8164 1.835938,-1.99218 1.582031,-0.15625 5.917969,-0.15625 3.886718,0 9.746093,0.83984 1.738282,0.25391 1.738282,2.08984 0,0.91797 -0.664063,1.46485 -0.585937,0.44922 -1.347656,0.44922 z" />
        <path
           inkscape:connector-curvature="0"
           id="path886"
           style="font-style:normal;font-variant:normal;font-weight:normal;font-stretch:normal;font-family:'Comic Sans MS';-inkscape-font-specification:'Comic Sans MS';fill:#ffffff"
           d="m 127.79688,393.62794 q 0,0.9375 -0.3125,3.125 -0.3125,1.97265 -2.08985,1.97265 -1.07422,0 -2.55859,-1.40625 -7.94922,-7.51953 -18.24219,-21.69922 l -0.0977,4.4336 -0.0586,4.45312 q 0,1.6211 0.0586,4.86328 0.0781,3.24219 0.0781,4.88282 0,5.2539 -2.03125,5.2539 -1.07422,0 -1.69922,-0.68359 -0.56641,-0.60547 -0.56641,-1.44531 0,-0.82032 0.11719,-2.48047 0.13672,-1.66016 0.13672,-2.48047 0,-1.21094 0.0781,-3.61328 0.0781,-2.42188 0.0781,-3.63282 0,-1.28906 -0.0586,-3.88671 -0.0586,-2.61719 -0.0586,-3.90625 0,-1.23047 -0.23437,-3.65235 -0.23438,-2.4414 -0.23438,-3.67187 0,-0.89844 0.76172,-1.64063 0.78125,-0.74219 1.75781,-0.74219 1.03516,0 2.5586,2.26563 4.86328,7.28516 8.75,12.10937 4.6289,5.72266 10.15625,10.9375 0.0586,-0.83984 0,-2.48046 l -0.0586,-2.46094 q 0,-8.57422 -0.66406,-13.65235 -0.0781,-0.50781 -0.52734,-2.05078 -0.39063,-1.32812 -0.39063,-2.07031 0,-2.26562 2.07032,-2.26562 3.39843,0 3.39843,12.67578 0,2.16797 -0.0586,6.48437 -0.0586,4.29688 -0.0586,6.46485 z" />
        <path
           inkscape:connector-curvature="0"
           id="path888"
           style="font-style:normal;font-variant:normal;font-weight:normal;font-stretch:normal;font-family:'Comic Sans MS';-inkscape-font-specification:'Comic Sans MS';fill:#ffffff"
           d="m 132.19141,393.10059 q -0.0195,-0.82031 0.54687,-1.32812 0.58594,-0.52735 1.42578,-0.52735 0.95703,0 1.67969,1.09375 0.99609,1.48438 1.77734,2.01172 1.66016,1.09375 4.82422,1.09375 3.02735,0 5.625,-1.30859 3.32031,-1.67969 3.32031,-4.66797 0,-2.46094 -2.79296,-3.88672 -2.36329,-1.23047 -5.83985,-1.32812 -3.08594,-0.11719 -5.2539,-1.34766 -2.77344,-1.58203 -2.77344,-4.53125 0,-3.47656 3.94531,-6.34766 3.76953,-2.71484 7.79297,-2.71484 1.89453,0 4.27734,0.64453 3.16407,0.83984 3.16407,2.14844 0,1.71875 -1.75782,1.71875 -0.78125,0 -2.73437,-0.41016 -1.95313,-0.42969 -3.02735,-0.41015 -3.04687,0.0391 -5.17578,1.5039 -2.1875,1.50391 -2.1875,3.65235 0,1.62109 2.89063,2.28515 1.07422,0.25391 4.16015,0.46875 4.47266,0.33203 6.99219,2.8125 2.30469,2.26563 2.30469,5.52735 0,4.64843 -4.29688,7.42187 -3.73046,2.40234 -8.65234,2.40234 -3.57422,0 -6.54297,-1.36718 -3.63281,-1.67969 -3.6914,-4.60938 z" />
        <path
           inkscape:connector-curvature="0"
           id="path890"
           style="font-style:normal;font-variant:normal;font-weight:normal;font-stretch:normal;font-family:'Comic Sans MS';-inkscape-font-specification:'Comic Sans MS';fill:#ffffff"
           d="m 183.91016,373.2959 q -1.44532,0 -4.45313,-0.23437 -2.92969,-0.21484 -4.45312,-0.19531 h -1.38672 q 0.0586,2.69531 0.52734,8.75 0.42969,5.64453 0.42969,8.76953 0,0.68359 0.13672,2.07031 0.13672,1.38672 0.13672,2.08984 0,1.32813 -0.42969,2.28516 -0.54688,1.28906 -1.69922,1.28906 -0.78125,0 -1.40625,-0.54687 -0.625,-0.54688 -0.625,-1.40625 0,-0.29297 0.0977,-0.87891 0.0977,-0.58594 0.0977,-0.8789 0,-0.95704 -0.13672,-2.8711 -0.11718,-1.91406 -0.11718,-2.89062 0,-2.79297 -0.44922,-7.85157 -0.46875,-5.46875 -0.52735,-7.85156 l -1.77734,0.0195 q -4.27734,0 -6.71875,-0.625 -1.58203,-0.41015 -1.58203,-1.93359 0,-0.80078 0.50781,-1.40625 0.58594,-0.68359 1.50391,-0.625 0.68359,0.0391 3.125,0.35156 1.95312,0.23438 3.16406,0.23438 1.17187,0 3.55469,-0.0391 2.38281,-0.0586 3.55468,-0.0586 1.50391,0 4.45313,0.21484 2.96875,0.21485 4.47266,0.21485 0.83984,0 1.40625,0.58594 0.5664,0.5664 0.5664,1.42578 0,0.83984 -0.5664,1.42578 -0.56641,0.5664 -1.40625,0.5664 z" />
        <path
           inkscape:connector-curvature="0"
           id="path892"
           style="font-style:normal;font-variant:normal;font-weight:normal;font-stretch:normal;font-family:'Comic Sans MS';-inkscape-font-specification:'Comic Sans MS';fill:#ffffff"
           d="m 208.91016,398.54981 q -1.79688,0 -3.125,-4.60937 -0.50782,-1.75782 -1.26954,-6.15235 -1.99218,0.27344 -5.21484,0.97656 l -5.19531,1.07422 q -0.97656,2.5586 -3.33985,7.48047 -0.625,1.09375 -1.69921,1.09375 -0.78125,0 -1.40625,-0.5664 -0.60547,-0.56641 -0.60547,-1.40625 0,-0.9375 2.94922,-7.12891 -0.33204,-0.50781 -0.33204,-1.17188 0,-1.58203 1.91407,-2.03125 2.22656,-4.17968 5.625,-9.60937 4.6289,-7.40234 5.76172,-7.40234 1.54296,0 2.10937,2.14843 l 1.23047,6.5625 2.91016,13.57422 1.11328,3.08594 q 0.5664,1.58203 0.5664,2.10937 0,0.83985 -0.60547,1.40625 -0.60546,0.56641 -1.38671,0.56641 z m -6.89454,-22.32422 -5.58593,9.00391 q 2.36328,-0.60547 7.16797,-1.46485 z" />
        <path
           inkscape:connector-curvature="0"
           id="path894"
           style="font-style:normal;font-variant:normal;font-weight:normal;font-stretch:normal;font-family:'Comic Sans MS';-inkscape-font-specification:'Comic Sans MS';fill:#ffffff"
           d="m 233.8125,397.16309 q -2.20703,1.03516 -6.93359,1.85547 -4.35547,0.76172 -7.10938,0.76172 -1.97266,0 -2.83203,-0.60547 -1.17188,-0.82031 -1.17188,-3.00781 l 0.39063,-6.46485 q 0.50781,-8.94531 0.50781,-19.84375 0,-0.83984 0.54688,-1.42578 0.5664,-0.58593 1.38672,-0.58593 0.83984,0 1.38671,0.58593 0.56641,0.58594 0.56641,1.42578 0,11.03516 -0.52734,20.07813 l -0.25391,2.96875 q -0.15625,1.62109 -0.11719,2.87109 5.09766,0.0586 12.89063,-2.40234 0.33203,-0.0977 0.625,-0.0977 0.83984,0 1.40625,0.66407 0.48828,0.60546 0.48828,1.38671 0,1.25 -1.25,1.83594 z" />
        <path
           inkscape:connector-curvature="0"
           id="path896"
           style="font-style:normal;font-variant:normal;font-weight:normal;font-stretch:normal;font-family:'Comic Sans MS';-inkscape-font-specification:'Comic Sans MS';fill:#ffffff"
           d="m 255.84375,397.16309 q -2.20703,1.03516 -6.93359,1.85547 -4.35547,0.76172 -7.10938,0.76172 -1.97266,0 -2.83203,-0.60547 -1.17188,-0.82031 -1.17188,-3.00781 l 0.39063,-6.46485 q 0.50781,-8.94531 0.50781,-19.84375 0,-0.83984 0.54688,-1.42578 0.5664,-0.58593 1.38672,-0.58593 0.83984,0 1.38671,0.58593 0.56641,0.58594 0.56641,1.42578 0,11.03516 -0.52734,20.07813 l -0.25391,2.96875 q -0.15625,1.62109 -0.11719,2.87109 5.09766,0.0586 12.89063,-2.40234 0.33203,-0.0977 0.625,-0.0977 0.83984,0 1.40625,0.66407 0.48828,0.60546 0.48828,1.38671 0,1.25 -1.25,1.83594 z" />
      </g>
    </g>
  </g>
</svg>
