<?xml version="1.0" encoding="UTF-8" standalone="no"?>
<!-- Created with Inkscape (http://www.inkscape.org/) -->

<svg
   xmlns:dc="http://purl.org/dc/elements/1.1/"
   xmlns:cc="http://creativecommons.org/ns#"
   xmlns:rdf="http://www.w3.org/1999/02/22-rdf-syntax-ns#"
   xmlns:svg="http://www.w3.org/2000/svg"
   xmlns="http://www.w3.org/2000/svg"
   xmlns:sodipodi="http://sodipodi.sourceforge.net/DTD/sodipodi-0.dtd"
   xmlns:inkscape="http://www.inkscape.org/namespaces/inkscape"
   width="512"
   height="512"
   id="svg2"
   version="1.1"
   inkscape:version="0.92.2 5c3e80d, 2017-08-06"
   sodipodi:docname="text-x-lilypond.svg">
  <defs
     id="defs4" />
  <sodipodi:namedview
     id="base"
     pagecolor="#ffffff"
     bordercolor="#666666"
     borderopacity="1.0"
     inkscape:pageopacity="0.0"
     inkscape:pageshadow="2"
     inkscape:zoom="0.60666664"
     inkscape:cx="450.58795"
     inkscape:cy="166.6261"
     inkscape:document-units="px"
     inkscape:current-layer="layer1"
     showgrid="false"
     inkscape:window-width="1366"
     inkscape:window-height="717"
     inkscape:window-x="0"
     inkscape:window-y="24"
     inkscape:window-maximized="1" />
  <metadata
     id="metadata7">
    <rdf:RDF>
      <cc:Work
         rdf:about="">
        <dc:format>image/svg+xml</dc:format>
        <dc:type
           rdf:resource="http://purl.org/dc/dcmitype/StillImage" />
        <dc:title />
      </cc:Work>
    </rdf:RDF>
  </metadata>
  <g
     inkscape:label="Layer 1"
     inkscape:groupmode="layer"
     id="layer1"
     transform="translate(0,-540.36218)">
    <g
       id="g846">
      <path
         style="fill:#333333;fill-opacity:1;stroke-width:11.10955811"
         inkscape:connector-curvature="0"
         d="m 432.91326,596.83615 c 102.19291,88.57459 105.82678,249.69971 8.1168,359.89879 C 343.32009,1066.934 181.27965,1084.4628 79.086737,995.88819 -23.106205,907.31361 -26.740032,746.18849 70.969942,635.98941 168.67991,525.79033 330.72036,508.26156 432.91326,596.83615 Z"
         id="path961" />
      <path
         style="fill:#1a1a1a;fill-opacity:1;stroke:none;stroke-width:0.99999994px;stroke-linecap:butt;stroke-linejoin:miter;stroke-opacity:1"
         d="m 8.365242,882.36219 c 11.584101,43.15173 35.186306,82.72637 70.720705,113.5254 102.192913,88.57461 264.233393,71.04671 361.943363,-39.15235 20.35102,-22.95224 36.28955,-48.11807 47.87304,-74.37305 z"
         id="path963"
         inkscape:connector-curvature="0"
         sodipodi:nodetypes="csscc" />
      <path
         style="opacity:1;stroke-width:11.10955811;fill:#000000;fill-opacity:0.49019608"
         inkscape:connector-curvature="0"
         d="M 511.6355,765.2657 C 510.08411,826.57734 486.47427,889.4203 440.66912,941.08017 342.95915,1051.2793 180.9187,1068.808 78.725759,980.23347 30.827126,938.71782 4.49682,881.28502 0.19382715,820.59099 0.79908115,886.94766 27.117406,950.84436 79.078687,995.88129 181.2716,1084.4558 343.31975,1066.9184 441.02201,956.72795 490.72696,900.66984 514.02703,831.43698 511.6355,765.2657 Z"
         id="path965" />
      <path
         inkscape:connector-curvature="0"
         style="fill:#000000;fill-opacity:0.49019608;stroke-width:5.96706104"
         d="m 289.39851,617.37053 c -40.54988,-0.44739 -82.43884,17.13563 -112.77944,51.3543 -52.48108,59.18908 -50.53003,145.73036 4.35885,193.30473 54.88889,47.5743 141.92198,38.15912 194.40303,-21.02997 52.48105,-59.18909 50.53002,-145.73037 -4.35885,-193.3047 -23.15625,-20.07041 -52.03314,-29.99792 -81.62359,-30.32436 z m -57.24876,52.234 h 147.91887 a 4.9974815,4.9974815 0 1 1 0,9.99336 H 232.14975 a 4.9974815,4.9974815 0 1 1 0,-9.99336 z m -47.59454,26.44236 h 195.51341 a 4.9974819,4.9974819 0 1 1 0,9.99337 H 184.55521 a 4.9974819,4.9974819 0 1 1 0,-9.99337 z m 0,26.44237 h 195.51341 a 4.9974819,4.9974819 0 1 1 0,9.99336 H 184.55521 a 4.9974819,4.9974819 0 1 1 0,-9.99336 z m 0,26.44236 h 195.51341 a 4.9974819,4.9974819 0 1 1 0,9.99337 H 184.55521 a 4.9974819,4.9974819 0 1 1 0,-9.99337 z m 0,26.44237 h 195.51341 a 4.9974819,4.9974819 0 1 1 0,9.99336 H 184.55521 a 4.9974819,4.9974819 0 1 1 0,-9.99336 z m 0,26.44236 h 195.51341 a 4.9974822,4.9974822 0 1 1 0,9.99337 H 184.55521 a 4.9974822,4.9974822 0 1 1 0,-9.99337 z m 0,26.44237 h 121.47651 a 4.9974822,4.9974822 0 1 1 0,9.99336 H 184.55521 a 4.9974822,4.9974822 0 1 1 0,-9.99336 z"
         id="path842" />
      <path
         id="path833"
         d="m 269.39851,597.37053 c -40.54988,-0.44739 -82.43884,17.13563 -112.77944,51.3543 -52.48108,59.18908 -50.53003,145.73036 4.35885,193.30473 54.88889,47.5743 141.92198,38.15912 194.40303,-21.02997 52.48105,-59.18909 50.53002,-145.73037 -4.35885,-193.3047 -23.15625,-20.07041 -52.03314,-29.99792 -81.62359,-30.32436 z m -57.24876,52.234 h 147.91887 a 4.9974815,4.9974815 0 1 1 0,9.99336 H 212.14975 a 4.9974815,4.9974815 0 1 1 0,-9.99336 z m -47.59454,26.44236 h 195.51341 a 4.9974819,4.9974819 0 1 1 0,9.99337 H 164.55521 a 4.9974819,4.9974819 0 1 1 0,-9.99337 z m 0,26.44237 h 195.51341 a 4.9974819,4.9974819 0 1 1 0,9.99336 H 164.55521 a 4.9974819,4.9974819 0 1 1 0,-9.99336 z m 0,26.44236 h 195.51341 a 4.9974819,4.9974819 0 1 1 0,9.99337 H 164.55521 a 4.9974819,4.9974819 0 1 1 0,-9.99337 z m 0,26.44237 h 195.51341 a 4.9974819,4.9974819 0 1 1 0,9.99336 H 164.55521 a 4.9974819,4.9974819 0 1 1 0,-9.99336 z m 0,26.44236 h 195.51341 a 4.9974822,4.9974822 0 1 1 0,9.99337 H 164.55521 a 4.9974822,4.9974822 0 1 1 0,-9.99337 z m 0,26.44237 h 121.47651 a 4.9974822,4.9974822 0 1 1 0,9.99336 H 164.55521 a 4.9974822,4.9974822 0 1 1 0,-9.99336 z"
         style="fill:#ffffff;fill-opacity:1;stroke-width:5.96706104"
         inkscape:connector-curvature="0" />
      <g
         aria-label="LY"
         transform="translate(82.52995,551.50425)"
         style="font-style:normal;font-weight:normal;font-size:40px;line-height:1.25;font-family:sans-serif;letter-spacing:0px;word-spacing:0px;fill:#000000;fill-opacity:0.49019608;stroke:none"
         id="g864">
        <path
           d="m 182.60287,448.44257 q -6.25326,2.93294 -19.64519,5.25716 -12.34049,2.1582 -20.14323,2.1582 -5.58919,0 -8.02409,-1.71549 -3.32031,-2.32422 -3.32031,-8.52214 l 1.10677,-18.31706 q 1.43881,-25.34505 1.43881,-56.22396 0,-2.37955 1.54947,-4.03971 1.60482,-1.66016 3.92904,-1.66016 2.37956,0 3.92904,1.66016 1.60482,1.66016 1.60482,4.03971 0,31.26628 -1.49415,56.88803 l -0.7194,8.41145 q -0.4427,4.5931 -0.33203,8.13477 14.44336,0.16602 36.52344,-6.80664 0.94076,-0.27669 1.77083,-0.27669 2.37956,0 3.98438,1.88151 1.38346,1.71549 1.38346,3.92903 0,3.54167 -3.54166,5.20183 z"
           style="font-style:normal;font-variant:normal;font-weight:normal;font-stretch:normal;font-size:113.33333588px;font-family:'Comic Sans MS';-inkscape-font-specification:'Comic Sans MS';fill:#000000;fill-opacity:0.49019608"
           id="path860"
           inkscape:connector-curvature="0" />
        <path
           d="m 253.15951,379.93345 q -1.32813,2.10286 -3.54167,6.47461 l -9.51823,23.51888 q -5.53385,13.22591 -10.40365,23.13151 l -6.91731,12.3405 -2.93295,5.97656 q -1.82617,3.20963 -4.92513,3.20963 -2.1582,0 -3.92903,-1.60481 -1.77084,-1.60482 -1.77084,-3.98438 0,-1.88151 5.20183,-11.78711 l 6.80664,-12.45117 q -9.9056,-12.7832 -12.83854,-20.14323 -2.49024,-6.25326 -8.30079,-14.99674 -7.96875,-11.95313 -9.35221,-14.44336 -0.83008,-1.49415 -0.83008,-2.98829 0,-2.37955 1.7155,-3.98437 1.77083,-1.66016 3.98437,-1.66016 2.71159,0 4.53776,2.60091 l 4.42709,6.86198 q 5.86588,8.68815 7.74739,11.84245 4.15039,6.80664 6.47461,12.61719 1.82617,4.5931 7.80274,12.56185 l 12.67252,-30.87891 q 2.15821,-3.81836 5.97657,-11.78711 1.54947,-3.76302 5.14648,-3.76302 2.21354,0 3.92904,1.54948 1.77083,1.54948 1.77083,3.98438 0,2.54557 -2.93294,7.80273 z"
           style="font-style:normal;font-variant:normal;font-weight:normal;font-stretch:normal;font-size:113.33333588px;font-family:'Comic Sans MS';-inkscape-font-specification:'Comic Sans MS';fill:#000000;fill-opacity:0.49019608"
           id="path862"
           inkscape:connector-curvature="0" />
      </g>
      <g
         id="flowRoot847"
         style="font-style:normal;font-weight:normal;font-size:40px;line-height:1.25;font-family:sans-serif;letter-spacing:0px;word-spacing:0px;fill:#ffffff;fill-opacity:1;stroke:none"
         transform="translate(62.52995,531.50425)"
         aria-label="LY">
        <path
           inkscape:connector-curvature="0"
           id="path855"
           style="font-style:normal;font-variant:normal;font-weight:normal;font-stretch:normal;font-size:113.33333588px;font-family:'Comic Sans MS';-inkscape-font-specification:'Comic Sans MS';fill:#ffffff"
           d="m 182.60287,448.44257 q -6.25326,2.93294 -19.64519,5.25716 -12.34049,2.1582 -20.14323,2.1582 -5.58919,0 -8.02409,-1.71549 -3.32031,-2.32422 -3.32031,-8.52214 l 1.10677,-18.31706 q 1.43881,-25.34505 1.43881,-56.22396 0,-2.37955 1.54947,-4.03971 1.60482,-1.66016 3.92904,-1.66016 2.37956,0 3.92904,1.66016 1.60482,1.66016 1.60482,4.03971 0,31.26628 -1.49415,56.88803 l -0.7194,8.41145 q -0.4427,4.5931 -0.33203,8.13477 14.44336,0.16602 36.52344,-6.80664 0.94076,-0.27669 1.77083,-0.27669 2.37956,0 3.98438,1.88151 1.38346,1.71549 1.38346,3.92903 0,3.54167 -3.54166,5.20183 z" />
        <path
           inkscape:connector-curvature="0"
           id="path857"
           style="font-style:normal;font-variant:normal;font-weight:normal;font-stretch:normal;font-size:113.33333588px;font-family:'Comic Sans MS';-inkscape-font-specification:'Comic Sans MS';fill:#ffffff"
           d="m 253.15951,379.93345 q -1.32813,2.10286 -3.54167,6.47461 l -9.51823,23.51888 q -5.53385,13.22591 -10.40365,23.13151 l -6.91731,12.3405 -2.93295,5.97656 q -1.82617,3.20963 -4.92513,3.20963 -2.1582,0 -3.92903,-1.60481 -1.77084,-1.60482 -1.77084,-3.98438 0,-1.88151 5.20183,-11.78711 l 6.80664,-12.45117 q -9.9056,-12.7832 -12.83854,-20.14323 -2.49024,-6.25326 -8.30079,-14.99674 -7.96875,-11.95313 -9.35221,-14.44336 -0.83008,-1.49415 -0.83008,-2.98829 0,-2.37955 1.7155,-3.98437 1.77083,-1.66016 3.98437,-1.66016 2.71159,0 4.53776,2.60091 l 4.42709,6.86198 q 5.86588,8.68815 7.74739,11.84245 4.15039,6.80664 6.47461,12.61719 1.82617,4.5931 7.80274,12.56185 l 12.67252,-30.87891 q 2.15821,-3.81836 5.97657,-11.78711 1.54947,-3.76302 5.14648,-3.76302 2.21354,0 3.92904,1.54948 1.77083,1.54948 1.77083,3.98438 0,2.54557 -2.93294,7.80273 z" />
      </g>
    </g>
  </g>
</svg>
