<?xml version="1.0" encoding="UTF-8" standalone="no"?>
<!-- Created with Inkscape (http://www.inkscape.org/) -->

<svg
   xmlns:dc="http://purl.org/dc/elements/1.1/"
   xmlns:cc="http://creativecommons.org/ns#"
   xmlns:rdf="http://www.w3.org/1999/02/22-rdf-syntax-ns#"
   xmlns:svg="http://www.w3.org/2000/svg"
   xmlns="http://www.w3.org/2000/svg"
   xmlns:sodipodi="http://sodipodi.sourceforge.net/DTD/sodipodi-0.dtd"
   xmlns:inkscape="http://www.inkscape.org/namespaces/inkscape"
   width="512"
   height="512"
   id="svg2"
   version="1.1"
   inkscape:version="0.92.2 5c3e80d, 2017-08-06"
   sodipodi:docname="text-x-tex.svg">
  <defs
     id="defs4" />
  <sodipodi:namedview
     id="base"
     pagecolor="#ffffff"
     bordercolor="#666666"
     borderopacity="1.0"
     inkscape:pageopacity="0.0"
     inkscape:pageshadow="2"
     inkscape:zoom="0.60666666"
     inkscape:cx="-23.738541"
     inkscape:cy="130.14764"
     inkscape:document-units="px"
     inkscape:current-layer="layer1"
     showgrid="false"
     inkscape:window-width="1366"
     inkscape:window-height="717"
     inkscape:window-x="0"
     inkscape:window-y="24"
     inkscape:window-maximized="1" />
  <metadata
     id="metadata7">
    <rdf:RDF>
      <cc:Work
         rdf:about="">
        <dc:format>image/svg+xml</dc:format>
        <dc:type
           rdf:resource="http://purl.org/dc/dcmitype/StillImage" />
        <dc:title />
      </cc:Work>
    </rdf:RDF>
  </metadata>
  <g
     inkscape:label="Layer 1"
     inkscape:groupmode="layer"
     id="layer1"
     transform="translate(0,-540.36218)">
    <g
       id="g852">
      <path
         style="fill:#7a36b1;fill-opacity:1;stroke-width:11.10955811"
         inkscape:connector-curvature="0"
         d="m 432.91326,596.8362 c 102.19291,88.57459 105.82678,249.69971 8.1168,359.8988 C 343.32009,1066.934 181.27965,1084.4628 79.086745,995.8882 -23.106205,907.31366 -26.740035,746.18854 70.969945,635.98946 168.67991,525.79038 330.72036,508.26161 432.91326,596.8362 Z"
         id="path949" />
      <path
         style="fill:#4c158a;fill-opacity:1;stroke:none;stroke-width:0.99999994px;stroke-linecap:butt;stroke-linejoin:miter;stroke-opacity:1"
         d="M 8.3652454,882.36224 C 19.949345,925.51397 43.551545,965.0886 79.085945,995.8876 c 102.192915,88.5746 264.233395,71.0467 361.943365,-39.1523 20.35102,-22.95225 36.28955,-48.11808 47.87304,-74.37306 z"
         id="path951"
         inkscape:connector-curvature="0"
         sodipodi:nodetypes="csscc" />
      <path
         style="opacity:1;stroke-width:11.10955811;fill:#000000;fill-opacity:0.49019608"
         inkscape:connector-curvature="0"
         d="m 511.6355,765.26575 c -1.55139,61.31164 -25.16123,124.1546 -70.96638,175.81447 C 342.95915,1051.2793 180.9187,1068.808 78.725755,980.2335 30.827125,938.71787 4.4968154,881.28507 0.19382532,820.59104 0.79907532,886.94771 27.117405,950.84441 79.078685,995.8813 181.2716,1084.4558 343.31975,1066.9184 441.02201,956.728 490.72696,900.66989 514.02703,831.43703 511.6355,765.26575 Z"
         id="path953" />
      <path
         inkscape:connector-curvature="0"
         style="fill:#000000;fill-opacity:0.49019608;stroke:none;stroke-width:1.3444438"
         d="m 177.11804,616.43467 c 0,0 -4.16916,4.19223 0.4737,13.36805 4.64286,9.17582 92.29251,95.37896 91.09587,124.13189 -1.19664,28.75293 -94.88599,111.82485 -98.68719,122.22234 -3.8012,10.39749 0,15.27772 0,15.27772 0,0 196.63639,4.79439 212.55715,-7.41758 15.92076,-12.21197 0,-68.97142 0,-68.97142 H 367.3749 c 0,15.27778 3.93693,24.75045 -9.01477,33.89752 -14.19921,10.02785 -32.89881,11.93589 -49.34364,11.93589 H 230.731 c 0,0 74.50388,-79.26014 75.91322,-106.94447 C 308.05356,726.25028 230.731,631.71245 230.731,631.71245 h 44.5991 c 31.64203,0 76.67767,-2.9396 89.19807,35.32984 2.14022,6.54178 2.30787,18.91233 2.84673,25.78122 h 15.18267 c 0,0 10.53852,-58.02198 -7.82967,-69.79543 -18.36819,-11.77345 -197.60986,-6.59341 -197.60986,-6.59341 z"
         id="path922"
         sodipodi:nodetypes="czzzczcccsczcsscczc" />
      <path
         sodipodi:nodetypes="czzzczcccsczcsscczc"
         id="rect4274-3-3"
         d="m 157.11762,597.36218 c 0,0 -4.16916,4.19223 0.4737,13.36805 4.64286,9.17582 92.29251,95.37896 91.09587,124.13189 C 247.49055,763.61505 153.8012,846.68697 150,857.08446 c -3.8012,10.39749 0,15.27772 0,15.27772 0,0 196.63639,4.79439 212.55715,-7.41758 15.92076,-12.21197 0,-68.97142 0,-68.97142 h -15.18267 c 0,15.27778 3.93693,24.75045 -9.01477,33.89752 -14.19921,10.02785 -32.89881,11.93589 -49.34364,11.93589 h -78.28549 c 0,0 74.50388,-79.26014 75.91322,-106.94447 1.40934,-27.68433 -75.91322,-122.22216 -75.91322,-122.22216 h 44.5991 c 31.64203,0 76.67767,-2.9396 89.19807,35.32984 2.14022,6.54178 2.30787,18.91233 2.84673,25.78122 h 15.18267 c 0,0 10.53852,-58.02198 -7.82967,-69.79543 -18.36819,-11.77345 -197.60986,-6.59341 -197.60986,-6.59341 z"
         style="fill:#ffffff;fill-opacity:1;stroke:none;stroke-width:1.3444438"
         inkscape:connector-curvature="0" />
      <g
         aria-label="CLS"
         transform="translate(12.01953,563.91636)"
         style="font-style:normal;font-weight:normal;font-size:40px;line-height:1.25;font-family:sans-serif;letter-spacing:0px;word-spacing:0px;fill:#000000;fill-opacity:0.49019608;stroke:none"
         id="g949">
        <path
           d="m 221.09375,376.20949 q -3.54167,0 -5.3125,-4.15039 -1.54948,-3.54167 -2.8776,-4.31641 -1.16211,-0.60872 -5.75521,-0.60872 -8.02409,0 -17.81901,12.28516 -13.28125,16.49088 -13.28125,31.26627 0,7.13868 4.5931,12.28516 4.70377,5.3125 11.3444,5.3125 5.69987,0 11.45508,-2.93294 3.20963,-1.66016 9.85026,-6.52995 3.15429,-2.32422 4.75911,-2.32422 2.37956,0 3.98438,1.82617 1.60481,1.77084 1.60481,3.98438 0,2.49023 -2.10286,4.37174 -14.60938,12.94922 -29.55078,12.94922 -11.45508,0 -19.36849,-8.79883 -7.63672,-8.52213 -7.63672,-20.14323 0,-18.75976 15.71615,-38.46028 13.11523,-16.43555 26.45182,-16.43555 2.71159,0 4.86979,0.27669 2.1582,0.22136 3.81836,0.77474 1.93685,-2.82226 5.03581,-2.82226 3.81836,0 4.81445,5.0358 0.88542,4.48243 0.88542,11.01237 0,2.26888 -1.21745,3.98438 -1.49414,2.1582 -4.26107,2.1582 z"
           style="font-style:normal;font-variant:normal;font-weight:normal;font-stretch:normal;font-size:113.33333588px;font-family:'Comic Sans MS';-inkscape-font-specification:'Comic Sans MS';fill:#000000;fill-opacity:0.49019608"
           id="path943"
           inkscape:connector-curvature="0" />
        <path
           d="m 285.12044,436.03046 q -6.25325,2.93294 -19.64518,5.25716 -12.34049,2.1582 -20.14323,2.1582 -5.58919,0 -8.02409,-1.71549 -3.32031,-2.32422 -3.32031,-8.52214 l 1.10677,-18.31706 q 1.4388,-25.34505 1.4388,-56.22396 0,-2.37955 1.54948,-4.03971 1.60482,-1.66016 3.92904,-1.66016 2.37956,0 3.92904,1.66016 1.60481,1.66016 1.60481,4.03971 0,31.26628 -1.49414,56.88803 l -0.7194,8.41145 q -0.44271,4.5931 -0.33203,8.13477 14.44336,0.16602 36.52344,-6.80664 0.94075,-0.27669 1.77083,-0.27669 2.37956,0 3.98438,1.88151 1.38346,1.71549 1.38346,3.92903 0,3.54167 -3.54167,5.20183 z"
           style="font-style:normal;font-variant:normal;font-weight:normal;font-stretch:normal;font-size:113.33333588px;font-family:'Comic Sans MS';-inkscape-font-specification:'Comic Sans MS';fill:#000000;fill-opacity:0.49019608"
           id="path945"
           inkscape:connector-curvature="0" />
        <path
           d="m 298.23568,424.52004 q -0.0553,-2.32422 1.54948,-3.76302 1.66015,-1.49414 4.03971,-1.49414 2.71159,0 4.75911,3.09896 2.82227,4.20573 5.03581,5.69987 4.70378,3.09896 13.66862,3.09896 8.57748,0 15.9375,-3.70769 9.40755,-4.75911 9.40755,-13.22591 0,-6.97266 -7.91341,-11.01237 -6.69596,-3.48633 -16.54622,-3.76302 -8.74349,-0.33203 -14.88607,-3.81836 -7.85807,-4.48242 -7.85807,-12.83854 0,-9.85026 11.17838,-17.98503 10.68034,-7.69206 22.08008,-7.69206 5.36784,0 12.11914,1.82618 8.96485,2.37955 8.96485,6.08724 0,4.86979 -4.98047,4.86979 -2.21354,0 -7.7474,-1.16211 -5.53385,-1.21745 -8.57747,-1.16211 -8.63281,0.11068 -14.66472,4.26107 -6.19791,4.26106 -6.19791,10.3483 0,4.5931 8.1901,6.47461 3.04362,0.71941 11.78711,1.32813 12.67253,0.94075 19.8112,7.96875 6.52995,6.41927 6.52995,15.66081 0,13.17057 -12.17448,21.02864 -10.56966,6.80664 -24.51498,6.80664 -10.12695,0 -18.53841,-3.87369 -10.29297,-4.75912 -10.45898,-13.0599 z"
           style="font-style:normal;font-variant:normal;font-weight:normal;font-stretch:normal;font-size:113.33333588px;font-family:'Comic Sans MS';-inkscape-font-specification:'Comic Sans MS';fill:#000000;fill-opacity:0.49019608"
           id="path947"
           inkscape:connector-curvature="0" />
      </g>
      <g
         id="flowRoot928"
         style="font-style:normal;font-weight:normal;font-size:40px;line-height:1.25;font-family:sans-serif;letter-spacing:0px;word-spacing:0px;fill:#ffffff;fill-opacity:1;stroke:none"
         transform="translate(-7.98047,543.91636)"
         aria-label="CLS">
        <path
           inkscape:connector-curvature="0"
           id="path936"
           style="font-style:normal;font-variant:normal;font-weight:normal;font-stretch:normal;font-size:113.33333588px;font-family:'Comic Sans MS';-inkscape-font-specification:'Comic Sans MS';fill:#ffffff"
           d="m 221.09375,376.20949 q -3.54167,0 -5.3125,-4.15039 -1.54948,-3.54167 -2.8776,-4.31641 -1.16211,-0.60872 -5.75521,-0.60872 -8.02409,0 -17.81901,12.28516 -13.28125,16.49088 -13.28125,31.26627 0,7.13868 4.5931,12.28516 4.70377,5.3125 11.3444,5.3125 5.69987,0 11.45508,-2.93294 3.20963,-1.66016 9.85026,-6.52995 3.15429,-2.32422 4.75911,-2.32422 2.37956,0 3.98438,1.82617 1.60481,1.77084 1.60481,3.98438 0,2.49023 -2.10286,4.37174 -14.60938,12.94922 -29.55078,12.94922 -11.45508,0 -19.36849,-8.79883 -7.63672,-8.52213 -7.63672,-20.14323 0,-18.75976 15.71615,-38.46028 13.11523,-16.43555 26.45182,-16.43555 2.71159,0 4.86979,0.27669 2.1582,0.22136 3.81836,0.77474 1.93685,-2.82226 5.03581,-2.82226 3.81836,0 4.81445,5.0358 0.88542,4.48243 0.88542,11.01237 0,2.26888 -1.21745,3.98438 -1.49414,2.1582 -4.26107,2.1582 z" />
        <path
           inkscape:connector-curvature="0"
           id="path938"
           style="font-style:normal;font-variant:normal;font-weight:normal;font-stretch:normal;font-size:113.33333588px;font-family:'Comic Sans MS';-inkscape-font-specification:'Comic Sans MS';fill:#ffffff"
           d="m 285.12044,436.03046 q -6.25325,2.93294 -19.64518,5.25716 -12.34049,2.1582 -20.14323,2.1582 -5.58919,0 -8.02409,-1.71549 -3.32031,-2.32422 -3.32031,-8.52214 l 1.10677,-18.31706 q 1.4388,-25.34505 1.4388,-56.22396 0,-2.37955 1.54948,-4.03971 1.60482,-1.66016 3.92904,-1.66016 2.37956,0 3.92904,1.66016 1.60481,1.66016 1.60481,4.03971 0,31.26628 -1.49414,56.88803 l -0.7194,8.41145 q -0.44271,4.5931 -0.33203,8.13477 14.44336,0.16602 36.52344,-6.80664 0.94075,-0.27669 1.77083,-0.27669 2.37956,0 3.98438,1.88151 1.38346,1.71549 1.38346,3.92903 0,3.54167 -3.54167,5.20183 z" />
        <path
           inkscape:connector-curvature="0"
           id="path940"
           style="font-style:normal;font-variant:normal;font-weight:normal;font-stretch:normal;font-size:113.33333588px;font-family:'Comic Sans MS';-inkscape-font-specification:'Comic Sans MS';fill:#ffffff"
           d="m 298.23568,424.52004 q -0.0553,-2.32422 1.54948,-3.76302 1.66015,-1.49414 4.03971,-1.49414 2.71159,0 4.75911,3.09896 2.82227,4.20573 5.03581,5.69987 4.70378,3.09896 13.66862,3.09896 8.57748,0 15.9375,-3.70769 9.40755,-4.75911 9.40755,-13.22591 0,-6.97266 -7.91341,-11.01237 -6.69596,-3.48633 -16.54622,-3.76302 -8.74349,-0.33203 -14.88607,-3.81836 -7.85807,-4.48242 -7.85807,-12.83854 0,-9.85026 11.17838,-17.98503 10.68034,-7.69206 22.08008,-7.69206 5.36784,0 12.11914,1.82618 8.96485,2.37955 8.96485,6.08724 0,4.86979 -4.98047,4.86979 -2.21354,0 -7.7474,-1.16211 -5.53385,-1.21745 -8.57747,-1.16211 -8.63281,0.11068 -14.66472,4.26107 -6.19791,4.26106 -6.19791,10.3483 0,4.5931 8.1901,6.47461 3.04362,0.71941 11.78711,1.32813 12.67253,0.94075 19.8112,7.96875 6.52995,6.41927 6.52995,15.66081 0,13.17057 -12.17448,21.02864 -10.56966,6.80664 -24.51498,6.80664 -10.12695,0 -18.53841,-3.87369 -10.29297,-4.75912 -10.45898,-13.0599 z" />
      </g>
    </g>
  </g>
</svg>
