<?xml version="1.0" encoding="UTF-8" standalone="no"?>
<!-- Created with Inkscape (http://www.inkscape.org/) -->

<svg
   xmlns:dc="http://purl.org/dc/elements/1.1/"
   xmlns:cc="http://creativecommons.org/ns#"
   xmlns:rdf="http://www.w3.org/1999/02/22-rdf-syntax-ns#"
   xmlns:svg="http://www.w3.org/2000/svg"
   xmlns="http://www.w3.org/2000/svg"
   xmlns:sodipodi="http://sodipodi.sourceforge.net/DTD/sodipodi-0.dtd"
   xmlns:inkscape="http://www.inkscape.org/namespaces/inkscape"
   width="512"
   height="512"
   id="svg2"
   version="1.1"
   inkscape:version="0.92.2 5c3e80d, 2017-08-06"
   sodipodi:docname="text-x-javascript.svg">
  <defs
     id="defs4" />
  <sodipodi:namedview
     id="base"
     pagecolor="#ffffff"
     bordercolor="#666666"
     borderopacity="1.0"
     inkscape:pageopacity="0.0"
     inkscape:pageshadow="2"
     inkscape:zoom="0.60666665"
     inkscape:cx="164.63658"
     inkscape:cy="176.92575"
     inkscape:document-units="px"
     inkscape:current-layer="layer1"
     showgrid="false"
     inkscape:window-width="1366"
     inkscape:window-height="717"
     inkscape:window-x="0"
     inkscape:window-y="24"
     inkscape:window-maximized="1" />
  <metadata
     id="metadata7">
    <rdf:RDF>
      <cc:Work
         rdf:about="">
        <dc:format>image/svg+xml</dc:format>
        <dc:type
           rdf:resource="http://purl.org/dc/dcmitype/StillImage" />
        <dc:title />
      </cc:Work>
    </rdf:RDF>
  </metadata>
  <g
     inkscape:label="Layer 1"
     inkscape:groupmode="layer"
     id="layer1"
     transform="translate(0,-540.36218)">
    <g
       id="g828">
      <path
         id="path931"
         d="m 432.91326,596.83617 c 102.19291,88.57459 105.82678,249.69971 8.1168,359.89879 C 343.32009,1066.934 181.27965,1084.4628 79.086737,995.8882 -23.106204,907.31363 -26.740031,746.18851 70.969937,635.98943 168.67991,525.79035 330.72036,508.26158 432.91326,596.83617 Z"
         inkscape:connector-curvature="0"
         style="fill:#f37329;fill-opacity:1;stroke-width:11.10955811" />
      <path
         sodipodi:nodetypes="csscc"
         inkscape:connector-curvature="0"
         id="path933"
         d="m 8.3652412,882.36221 c 11.5841058,43.15173 35.1863058,82.72637 70.7207058,113.52539 102.192913,88.5746 264.233393,71.0467 361.943363,-39.15234 20.35102,-22.95224 36.28955,-48.11807 47.87304,-74.37305 z"
         style="fill:#cc3b02;fill-opacity:1;stroke:none;stroke-width:0.99999994px;stroke-linecap:butt;stroke-linejoin:miter;stroke-opacity:1" />
      <path
         id="path935"
         d="m 511.6355,765.26572 c -1.55139,61.31164 -25.16123,124.1546 -70.96638,175.81447 C 342.95915,1051.2793 180.9187,1068.808 78.725757,980.2335 30.827127,938.71784 4.4968192,881.28504 0.19382718,820.59101 0.79908118,886.94768 27.117407,950.84438 79.078687,995.8813 181.2716,1084.4558 343.31975,1066.9184 441.02201,956.72797 490.72696,900.66986 514.02703,831.437 511.6355,765.26572 Z"
         inkscape:connector-curvature="0"
         style="opacity:1;stroke-width:11.10955811;fill:#000000;fill-opacity:0.49019608" />
      <path
         style="fill:#000000;fill-opacity:0.49019608;stroke-width:2.69607854"
         d="m 179.65774,884.24219 c -14.77067,-10.84501 -9.4283,-23.51928 -10.15284,-41.71755 -1.50983,-37.92237 -4.1254,-43.55426 -21.91752,-47.19313 -7.82133,-1.59964 -9.08738,-2.95596 -9.08738,-9.73514 0,-6.84774 1.29145,-8.18197 9.88703,-10.21479 17.40993,-4.11734 19.59871,-8.97856 21.11787,-46.90198 0.19429,-17.56671 -2.60372,-30.12445 10.32091,-41.66048 7.11568,-6.35115 11.02195,-7.83825 18.87255,-7.18464 8.41212,0.70036 9.89968,1.79286 9.89968,7.27057 0,3.5455 -1.81985,7.2972 -4.04412,8.33711 -15.56848,7.27868 -14.74097,5.2388 -16.17647,39.87675 -1.19806,28.90846 -2.06679,33.49896 -7.80765,41.25625 -5.1751,6.99282 -5.83448,9.5826 -3.31588,13.02365 8.81846,12.04848 11.12353,22.44683 11.12353,50.1795 0.30584,15.83007 -5.40613,26.27413 9.55358,32.52473 10.87614,4.54432 14.13438,10.15147 9.29047,15.98802 -5.42788,6.5402 -17.87052,4.80276 -27.56376,-3.84887 z m 163.43158,3.97202 c -2.81894,-7.34603 0.32537,-13.25349 8.17109,-15.35168 16.48765,-4.29129 12.27313,-24.34284 12.32086,-36.30375 0.0361,-23.81317 0.88645,-28.8228 6.77112,-39.89034 l 6.72985,-12.65709 -6.05583,-8.18233 c -5.25811,-7.10449 -6.23341,-12.46721 -7.40386,-40.71011 -0.64366,-20.07994 1.01369,-31.3458 -15.50245,-39.45161 -2.59498,-1.27373 -4.71814,-5.21675 -4.71814,-8.76225 0,-5.47771 1.48754,-6.57021 9.89968,-7.27057 7.8506,-0.65361 11.75687,0.83349 18.87255,7.18464 14.95015,11.00048 9.58146,23.20136 10.32091,41.66048 1.51916,37.92342 3.70794,42.78464 21.11787,46.90198 8.59558,2.03282 9.88703,3.36705 9.88703,10.21479 0,6.77918 -1.26605,8.1355 -9.08737,9.73514 -17.79213,3.63887 -20.4077,9.27076 -21.91753,47.19313 -2.18335,22.17985 5.6616,27.60252 -10.15284,41.71755 -9.76776,8.71815 -26.55688,10.99782 -29.25294,3.97202 z"
         id="path848"
         inkscape:connector-curvature="0"
         sodipodi:nodetypes="cccscccsscsscccscsccscsccsscccscccs" />
      <path
         sodipodi:nodetypes="cccscccsscsscccscsccscsccsscccscccs"
         inkscape:connector-curvature="0"
         id="path846"
         d="m 159.65774,864.24219 c -14.77067,-10.84501 -9.4283,-23.51928 -10.15284,-41.71755 -1.50983,-37.92237 -4.1254,-43.55426 -21.91752,-47.19313 -7.82133,-1.59964 -9.08738,-2.95596 -9.08738,-9.73514 0,-6.84774 1.29145,-8.18197 9.88703,-10.21479 17.40993,-4.11734 19.59871,-8.97856 21.11787,-46.90198 0.19429,-17.56671 -2.60372,-30.12445 10.32091,-41.66048 7.11568,-6.35115 11.02195,-7.83825 18.87255,-7.18464 8.41212,0.70036 9.89968,1.79286 9.89968,7.27057 0,3.5455 -1.81985,7.2972 -4.04412,8.33711 -15.56848,7.27868 -14.74097,5.2388 -16.17647,39.87675 -1.19806,28.90846 -2.06679,33.49896 -7.80765,41.25625 -5.1751,6.99282 -5.83448,9.5826 -3.31588,13.02365 8.81846,12.04848 11.12353,22.44683 11.12353,50.1795 0.30584,15.83007 -5.40613,26.27413 9.55358,32.52473 10.87614,4.54432 14.13438,10.15147 9.29047,15.98802 -5.42788,6.5402 -17.87052,4.80276 -27.56376,-3.84887 z m 163.43158,3.97202 c -2.81894,-7.34603 0.32537,-13.25349 8.17109,-15.35168 16.48765,-4.29129 12.27313,-24.34284 12.32086,-36.30375 0.0361,-23.81317 0.88645,-28.8228 6.77112,-39.89034 l 6.72985,-12.65709 -6.05583,-8.18233 c -5.25811,-7.10449 -6.23341,-12.46721 -7.40386,-40.71011 -0.64366,-20.07994 1.01369,-31.3458 -15.50245,-39.45161 -2.59498,-1.27373 -4.71814,-5.21675 -4.71814,-8.76225 0,-5.47771 1.48754,-6.57021 9.89968,-7.27057 7.8506,-0.65361 11.75687,0.83349 18.87255,7.18464 14.95015,11.00048 9.58146,23.20136 10.32091,41.66048 1.51916,37.92342 3.70794,42.78464 21.11787,46.90198 8.59558,2.03282 9.88703,3.36705 9.88703,10.21479 0,6.77918 -1.26605,8.1355 -9.08737,9.73514 -17.79213,3.63887 -20.4077,9.27076 -21.91753,47.19313 -2.18335,22.17985 5.6616,27.60252 -10.15284,41.71755 -9.76776,8.71815 -26.55688,10.99782 -29.25294,3.97202 z"
         style="fill:#ffffff;stroke-width:2.69607854" />
    </g>
  </g>
</svg>
