<?xml version="1.0" encoding="UTF-8" standalone="no"?>
<!-- Created with Inkscape (http://www.inkscape.org/) -->

<svg
   xmlns:dc="http://purl.org/dc/elements/1.1/"
   xmlns:cc="http://creativecommons.org/ns#"
   xmlns:rdf="http://www.w3.org/1999/02/22-rdf-syntax-ns#"
   xmlns:svg="http://www.w3.org/2000/svg"
   xmlns="http://www.w3.org/2000/svg"
   xmlns:sodipodi="http://sodipodi.sourceforge.net/DTD/sodipodi-0.dtd"
   xmlns:inkscape="http://www.inkscape.org/namespaces/inkscape"
   width="512"
   height="512"
   id="svg2"
   version="1.1"
   inkscape:version="0.92.2 5c3e80d, 2017-08-06"
   sodipodi:docname="text-x-opml.svg">
  <defs
     id="defs4" />
  <sodipodi:namedview
     id="base"
     pagecolor="#ffffff"
     bordercolor="#666666"
     borderopacity="1.0"
     inkscape:pageopacity="0.0"
     inkscape:pageshadow="2"
     inkscape:zoom="0.2529297"
     inkscape:cx="-625.70558"
     inkscape:cy="75.595922"
     inkscape:document-units="px"
     inkscape:current-layer="layer1"
     showgrid="false"
     inkscape:window-width="1366"
     inkscape:window-height="717"
     inkscape:window-x="0"
     inkscape:window-y="24"
     inkscape:window-maximized="1" />
  <metadata
     id="metadata7">
    <rdf:RDF>
      <cc:Work
         rdf:about="">
        <dc:format>image/svg+xml</dc:format>
        <dc:type
           rdf:resource="http://purl.org/dc/dcmitype/StillImage" />
        <dc:title />
      </cc:Work>
    </rdf:RDF>
  </metadata>
  <g
     inkscape:label="Layer 1"
     inkscape:groupmode="layer"
     id="layer1"
     transform="translate(0,-540.36218)">
    <g
       id="g868">
      <path
         id="path931"
         d="m 432.91325,596.83619 c 102.19291,88.57459 105.82678,249.69971 8.1168,359.89879 C 343.32008,1066.934 181.27964,1084.4628 79.086744,995.8882 -23.106206,907.31365 -26.740033,746.18853 70.969944,635.98945 168.6799,525.79037 330.72035,508.2616 432.91325,596.83619 Z"
         inkscape:connector-curvature="0"
         style="fill:#f37329;fill-opacity:1;stroke-width:11.10955811" />
      <path
         sodipodi:nodetypes="csscc"
         inkscape:connector-curvature="0"
         id="path933"
         d="M 8.3652388,882.36223 C 19.949341,925.51396 43.551544,965.0886 79.085944,995.8876 c 102.192906,88.5746 264.233386,71.0467 361.943356,-39.15232 20.35102,-22.95224 36.28955,-48.11807 47.87304,-74.37305 z"
         style="fill:#cc3b02;fill-opacity:1;stroke:none;stroke-width:0.99999994px;stroke-linecap:butt;stroke-linejoin:miter;stroke-opacity:1" />
      <path
         id="path935"
         d="M 511.63549,765.26574 C 510.0841,826.57738 486.47426,889.42034 440.66911,941.08021 342.95914,1051.2793 180.91869,1068.808 78.725754,980.2335 30.827124,938.71786 4.4968168,881.28506 0.19382484,820.59103 0.79907884,886.9477 27.117404,950.8444 79.078684,995.8813 181.27159,1084.4558 343.31974,1066.9184 441.022,956.72799 490.72695,900.66988 514.02702,831.43702 511.63549,765.26574 Z"
         inkscape:connector-curvature="0"
         style="opacity:1;stroke-width:11.10955811;fill:#000000;fill-opacity:0.49019608" />
      <path
         inkscape:connector-curvature="0"
         id="path891"
         style="font-style:normal;font-variant:normal;font-weight:normal;font-stretch:normal;font-size:113.33333588px;line-height:1.25;font-family:'Comic Sans MS';-inkscape-font-specification:'Comic Sans MS';letter-spacing:0px;word-spacing:0px;fill:#000000;fill-opacity:0.49019608;stroke:none"
         d="m 140.44824,1005.5913 q -15.60547,0 -26.45183,-9.35217 -11.51041,-9.96094 -11.51041,-25.67709 0,-19.14713 11.3444,-34.80794 12.67252,-17.3763 31.59831,-17.3763 18.20638,0 27.06054,8.1901 9.24154,8.52214 9.24154,26.89454 0,19.14713 -10.40365,34.53125 -11.95312,17.59761 -30.8789,17.59761 z m 4.98047,-75.8691 q -13.55795,0 -22.9655,13.5026 -8.68815,12.39584 -8.68815,27.33724 0,10.68034 7.91341,17.37631 7.58138,6.30859 18.75977,6.30859 13.44726,0 22.19075,-13.55794 7.80274,-12.11914 7.80274,-27.22656 0,-13.22592 -5.92123,-18.59376 -5.64453,-5.14648 -19.09179,-5.14648 z" />
      <path
         inkscape:connector-curvature="0"
         id="path893"
         style="font-style:normal;font-variant:normal;font-weight:normal;font-stretch:normal;font-size:113.33333588px;line-height:1.25;font-family:'Comic Sans MS';-inkscape-font-specification:'Comic Sans MS';letter-spacing:0px;word-spacing:0px;fill:#000000;fill-opacity:0.49019608;stroke:none"
         d="m 209.4554,969.73197 q -1.54948,0 -6.7513,-0.7194 -0.44271,8.35612 -0.44271,29.27408 0,2.21355 -1.4388,3.76305 -1.4388,1.4941 -3.597,1.4941 -2.21355,0 -3.65235,-1.4941 -1.4388,-1.5495 -1.4388,-3.76305 v -16.26953 q 0,-8.13476 0.99609,-22.91015 1.10677,-15.99284 1.21745,-22.91016 v -7.63672 q 0,-5.47851 0.66406,-7.96875 1.27279,-4.86979 5.42318,-4.20573 1.77083,-0.55338 5.03581,-0.83008 3.26497,-0.27669 8.02409,-0.27669 10.12695,0 18.98112,6.91732 9.73958,7.63672 9.73958,18.37239 0,13.72396 -10.40364,21.85873 -9.29688,7.30469 -22.35678,7.30469 z m 2.76693,-43.93881 q -2.4349,0 -4.37174,0.11068 -1.88151,0.11068 -3.20964,0.33203 l -0.11068,10.18229 -1.16211,22.02474 6.08724,0.71941 q 9.29688,0 15.66081,-4.70378 6.97266,-5.14649 6.97266,-13.88998 0,-6.19791 -6.64063,-10.68033 -6.14258,-4.09506 -13.22591,-4.09506 z" />
      <path
         inkscape:connector-curvature="0"
         id="path895"
         style="font-style:normal;font-variant:normal;font-weight:normal;font-stretch:normal;font-size:113.33333588px;line-height:1.25;font-family:'Comic Sans MS';-inkscape-font-specification:'Comic Sans MS';letter-spacing:0px;word-spacing:0px;fill:#000000;fill-opacity:0.49019608;stroke:none"
         d="m 335.62728,1006.8088 q -2.98828,0 -4.92513,-3.099 -1.66016,-2.6562 -2.98828,-8.85413 l -1.99219,-9.51823 q -2.26888,-8.85417 -7.19401,-39.06902 l -11.06771,33.36915 -3.26497,10.51432 q -1.99219,6.25325 -4.15039,10.23761 -2.32422,4.2058 -6.25326,4.2058 -3.26497,0 -5.14648,-3.5417 -1.21745,-2.32424 -2.21354,-5.92124 l -1.60482,-6.14258 q -5.58919,-19.53451 -9.85026,-41.83594 l -1.99219,9.9056 -7.13867,29.21875 q -0.44271,5.14649 -2.76693,15.21811 -1.66016,4.3164 -5.47852,4.3164 -2.71158,0 -4.3164,-1.9368 -1.38347,-1.6602 -1.38347,-4.0951 0,-9.24154 3.81836,-22.68881 l 6.08724,-22.30143 3.20964,-17.43164 q 2.4349,-12.22982 5.14648,-15.99284 2.21355,-3.20964 5.47852,-3.20964 3.59701,0 5.36784,4.09506 2.1582,4.92513 4.64844,20.08789 2.93294,18.20638 9.13086,39.40104 8.1901,-21.30534 14.16666,-44.38151 l 1.66016,-8.07943 q 0.99609,-4.86979 2.60091,-7.85807 2.1582,-4.09505 5.92122,-4.09505 4.75912,0 7.24935,9.18619 0.88542,3.1543 2.15821,13.0599 3.26497,25.01302 8.13476,42.72136 l 2.71159,9.51823 q 2.10287,7.63671 2.10287,9.40755 0,2.3796 -1.82618,3.9844 -1.77083,1.6048 -4.03971,1.6048 z" />
      <path
         id="path897"
         transform="translate(0,540.36218)"
         d="M 359.36719 376.52148 C 357.81771 376.52148 356.50738 377.07487 355.4375 378.18164 C 354.40451 379.28841 353.88867 380.63433 353.88867 382.2207 C 353.88867 402.80664 353.40842 421.54861 352.44922 438.44531 L 351.34375 456.76172 C 351.34375 460.89369 352.45052 463.73569 354.66406 465.28516 C 356.28733 466.42882 358.96137 467 362.6875 467 C 367.88932 467 374.60308 466.2806 382.83008 464.8418 C 384.19287 464.60527 385.48247 464.36317 386.73438 464.11719 C 392.90087 459.93503 398.94184 455.47965 404.84375 450.76172 C 404.77076 450.66013 404.71468 450.55222 404.63477 450.45312 C 403.56489 449.19879 402.23676 448.57227 400.65039 448.57227 C 400.097 448.57227 399.50607 448.66515 398.87891 448.84961 C 384.15885 453.49805 371.98438 455.76693 362.35547 455.65625 C 362.28168 453.29514 362.39236 450.58355 362.6875 447.52148 L 363.40625 439.10938 C 364.40234 422.02822 364.90039 403.06489 364.90039 382.2207 C 364.90039 380.63433 364.36676 379.28841 363.29688 378.18164 C 362.2639 377.07487 360.95356 376.52148 359.36719 376.52148 z "
         style="font-style:normal;font-variant:normal;font-weight:normal;font-stretch:normal;font-size:113.33333588px;line-height:1.25;font-family:'Comic Sans MS';-inkscape-font-specification:'Comic Sans MS';letter-spacing:0px;word-spacing:0px;fill:#000000;fill-opacity:0.49019608;stroke:none" />
      <g
         id="flowRoot874"
         style="font-style:normal;font-weight:normal;font-size:40px;line-height:1.25;font-family:sans-serif;letter-spacing:0px;word-spacing:0px;fill:#ffffff;fill-opacity:1;stroke:none"
         transform="translate(-8,536.17612)"
         aria-label="OPML">
        <path
           inkscape:connector-curvature="0"
           id="path882"
           style="font-style:normal;font-variant:normal;font-weight:normal;font-stretch:normal;font-size:113.33333588px;font-family:'Comic Sans MS';-inkscape-font-specification:'Comic Sans MS';fill:#ffffff"
           d="m 128.44792,449.41522 q -15.60547,0 -26.45183,-9.35221 -11.510413,-9.96094 -11.510413,-25.67709 0,-19.14713 11.344403,-34.80794 12.67252,-17.3763 31.59831,-17.3763 18.20638,0 27.06054,8.1901 9.24154,8.52214 9.24154,26.89454 0,19.14713 -10.40365,34.53125 -11.95312,17.59765 -30.8789,17.59765 z m 4.98047,-75.86914 q -13.55795,0 -22.9655,13.5026 -8.68815,12.39584 -8.68815,27.33724 0,10.68034 7.91341,17.37631 7.58138,6.30859 18.75977,6.30859 13.44726,0 22.19075,-13.55794 7.80274,-12.11914 7.80274,-27.22656 0,-13.22592 -5.92123,-18.59376 -5.64453,-5.14648 -19.09179,-5.14648 z" />
        <path
           inkscape:connector-curvature="0"
           id="path884"
           style="font-style:normal;font-variant:normal;font-weight:normal;font-stretch:normal;font-size:113.33333588px;font-family:'Comic Sans MS';-inkscape-font-specification:'Comic Sans MS';fill:#ffffff"
           d="m 197.45508,413.55585 q -1.54948,0 -6.7513,-0.7194 -0.44271,8.35612 -0.44271,29.27408 0,2.21355 -1.4388,3.76303 -1.4388,1.49414 -3.597,1.49414 -2.21355,0 -3.65235,-1.49414 -1.4388,-1.54948 -1.4388,-3.76303 V 425.841 q 0,-8.13476 0.99609,-22.91015 1.10677,-15.99284 1.21745,-22.91016 v -7.63672 q 0,-5.47851 0.66406,-7.96875 1.27279,-4.86979 5.42318,-4.20573 1.77083,-0.55338 5.03581,-0.83008 3.26497,-0.27669 8.02409,-0.27669 10.12695,0 18.98112,6.91732 9.73958,7.63672 9.73958,18.37239 0,13.72396 -10.40364,21.85873 -9.29688,7.30469 -22.35678,7.30469 z m 2.76693,-43.93881 q -2.4349,0 -4.37174,0.11068 -1.88151,0.11068 -3.20964,0.33203 l -0.11068,10.18229 -1.16211,22.02474 6.08724,0.71941 q 9.29688,0 15.66081,-4.70378 6.97266,-5.14649 6.97266,-13.88998 0,-6.19791 -6.64063,-10.68033 -6.14258,-4.09506 -13.22591,-4.09506 z" />
        <path
           inkscape:connector-curvature="0"
           id="path886"
           style="font-style:normal;font-variant:normal;font-weight:normal;font-stretch:normal;font-size:113.33333588px;font-family:'Comic Sans MS';-inkscape-font-specification:'Comic Sans MS';fill:#ffffff"
           d="m 323.62696,450.63267 q -2.98828,0 -4.92513,-3.09896 -1.66016,-2.65625 -2.98828,-8.85416 l -1.99219,-9.51823 q -2.26888,-8.85417 -7.19401,-39.06902 l -11.06771,33.36915 -3.26497,10.51432 q -1.99219,6.25325 -4.15039,10.23763 -2.32422,4.20573 -6.25326,4.20573 -3.26497,0 -5.14648,-3.54167 -1.21745,-2.32422 -2.21354,-5.92122 l -1.60482,-6.14258 q -5.58919,-19.53451 -9.85026,-41.83594 l -1.99219,9.9056 -7.13867,29.21875 q -0.44271,5.14649 -2.76693,15.2181 -1.66016,4.31641 -5.47852,4.31641 -2.71158,0 -4.3164,-1.93685 -1.38347,-1.66016 -1.38347,-4.09505 0,-9.24154 3.81836,-22.68881 l 6.08724,-22.30143 3.20964,-17.43164 q 2.4349,-12.22982 5.14648,-15.99284 2.21355,-3.20964 5.47852,-3.20964 3.59701,0 5.36784,4.09506 2.1582,4.92513 4.64844,20.08789 2.93294,18.20638 9.13086,39.40104 8.1901,-21.30534 14.16666,-44.38151 l 1.66016,-8.07943 q 0.99609,-4.86979 2.60091,-7.85807 2.1582,-4.09505 5.92122,-4.09505 4.75912,0 7.24935,9.18619 0.88542,3.1543 2.15821,13.0599 3.26497,25.01302 8.13476,42.72136 l 2.71159,9.51823 q 2.10287,7.63671 2.10287,9.40755 0,2.37956 -1.82618,3.98437 -1.77083,1.60482 -4.03971,1.60482 z" />
        <path
           inkscape:connector-curvature="0"
           id="path888"
           style="font-style:normal;font-variant:normal;font-weight:normal;font-stretch:normal;font-size:113.33333588px;font-family:'Comic Sans MS';-inkscape-font-specification:'Comic Sans MS';fill:#ffffff"
           d="m 390.47591,443.77069 q -6.25325,2.93294 -19.64518,5.25716 -12.3405,2.15821 -20.14323,2.15821 -5.58919,0 -8.02409,-1.7155 -3.32031,-2.32422 -3.32031,-8.52213 l 1.10677,-18.31706 q 1.4388,-25.34505 1.4388,-56.22396 0,-2.37956 1.54948,-4.03972 1.60482,-1.66015 3.92904,-1.66015 2.37956,0 3.92903,1.66015 1.60482,1.66016 1.60482,4.03972 0,31.26628 -1.49414,56.88802 l -0.7194,8.41146 q -0.44271,4.5931 -0.33203,8.13476 14.44336,0.16602 36.52344,-6.80664 0.94075,-0.27669 1.77083,-0.27669 2.37956,0 3.98438,1.88151 1.38346,1.7155 1.38346,3.92904 0,3.54166 -3.54167,5.20182 z" />
      </g>
      <path
         style="fill:#000000;fill-opacity:0.49019608;stroke-width:0.43974295"
         d="m 284.05216,891.98177 c -4.86197,-0.9759 -11.75195,-5.1204 -13.21468,-7.949 -0.36288,-0.7018 -0.81551,-1.2759 -1.00583,-1.2759 -0.35251,0 -1.88996,-3.257 -2.97533,-6.3031 -0.3431,-0.963 -0.78579,-5.2057 -1.03235,-9.8942 -0.64314,-12.2294 -2.46375,-21.5141 -6.26587,-31.9545 -8.3021,-22.7972 -23.54695,-41.3813 -44.84503,-54.6681 -1.28644,-0.8026 -4.91148,-2.7173 -8.05564,-4.25504 -14.43721,-7.06082 -27.13395,-10.13581 -45.36412,-10.98663 -9.49471,-0.44312 -14.77348,-3.22579 -19.49401,-10.27615 -4.39823,-6.56901 -4.39923,-16.81984 -0.002,-23.45802 2.84696,-4.29812 7.04709,-7.48894 12.38621,-9.40973 2.27072,-0.81691 14.75226,-0.90789 21.21477,-0.15464 25.83185,3.01089 47.23097,10.74083 68.19784,24.63491 8.19016,5.42735 14.41709,10.59398 22.45212,18.62901 8.03716,8.03715 13.20607,14.26719 18.6279,22.45209 13.38498,20.2062 20.67566,39.7072 24.24936,64.8621 0.68635,4.831 1.21022,17.7982 0.85341,21.1246 -1.29623,12.0848 -13.81501,21.2732 -25.72646,18.8823 z m 103.55951,0.053 c -5.40985,-1.2367 -8.90656,-3.2164 -12.36522,-7.0008 -4.60486,-5.0384 -5.47559,-8.1929 -6.09079,-22.0659 -1.15881,-26.1323 -5.93966,-48.5535 -15.19004,-71.2384 -17.27469,-42.36261 -48.48206,-78.38582 -88.16277,-101.76742 -6.21016,-3.65929 -21.05067,-10.98522 -27.18886,-13.42161 -23.30135,-9.24886 -44.82407,-13.79994 -70.87382,-14.98658 -13.91067,-0.63368 -16.87467,-1.45318 -22.04272,-6.09446 -4.88638,-4.38832 -7.0756,-9.25626 -7.14186,-15.88056 -0.0981,-9.80611 5.32263,-17.57916 14.66644,-21.03097 2.19015,-0.80909 4.05608,-1.10885 7.922,-1.27265 5.4042,-0.22899 20.73323,0.71514 30.12239,1.85525 20.36754,2.47321 43.37456,8.32191 61.78388,15.7063 5.67086,2.27471 6.53439,2.64139 12.60198,5.35126 7.48506,3.34294 21.54189,10.91212 28.13623,15.15053 1.00151,0.6437 2.78247,1.75937 3.95769,2.47924 3.64397,2.23213 14.19855,9.85123 19.63804,14.17622 18.42791,14.65225 35.01426,32.04064 48.7072,51.06249 4.00707,5.5665 4.94135,6.96986 10.29535,15.46449 4.24097,6.72867 12.55264,22.63195 15.97287,30.56213 12.30088,28.52064 18.79255,56.16584 20.79307,88.54874 0.86792,14.0494 0.2288,18.829 -3.29029,24.6061 -2.54849,4.1837 -6.32513,7.097 -11.53529,8.8981 -2.85116,0.9857 -8.32676,1.445 -10.71548,0.8989 z m -213.93497,-6.6513 c -14.46753,-1.5593 -26.78303,-14.1099 -28.36201,-28.9033 -1.13446,-10.6288 2.42004,-20.2388 10.22969,-27.6572 5.95123,-5.6531 12.68655,-8.4899 21.00175,-8.8455 4.20936,-0.1801 5.69963,-0.058 8.79486,0.7183 12.55161,3.1493 21.5033,12.1022 24.6682,24.6714 1.29419,5.1399 1.01554,12.2678 -0.67947,17.381 -4.08094,12.3106 -15.09548,21.322 -27.68294,22.6484 -2.20681,0.2326 -4.21027,0.3994 -4.45213,0.3708 -0.24186,-0.029 -1.82494,-0.2014 -3.51795,-0.3839 z"
         id="path860"
         inkscape:connector-curvature="0" />
      <path
         inkscape:connector-curvature="0"
         id="path842"
         d="m 264.05216,871.98177 c -4.86197,-0.9759 -11.75195,-5.1204 -13.21468,-7.949 -0.36288,-0.7018 -0.81551,-1.2759 -1.00583,-1.2759 -0.35251,0 -1.88996,-3.257 -2.97533,-6.3031 -0.3431,-0.963 -0.78579,-5.2057 -1.03235,-9.8942 -0.64314,-12.2294 -2.46375,-21.5141 -6.26587,-31.9545 -8.3021,-22.7972 -23.54695,-41.3813 -44.84503,-54.6681 -1.28644,-0.8026 -4.91148,-2.7173 -8.05564,-4.25504 -14.43721,-7.06082 -27.13395,-10.13581 -45.36412,-10.98663 -9.49471,-0.44312 -14.77348,-3.22579 -19.49401,-10.27615 -4.39823,-6.56901 -4.39923,-16.81984 -0.002,-23.45802 2.84696,-4.29812 7.04709,-7.48894 12.38621,-9.40973 2.27072,-0.81691 14.75226,-0.90789 21.21477,-0.15464 25.83185,3.01089 47.23097,10.74083 68.19784,24.63491 8.19016,5.42735 14.41709,10.59398 22.45212,18.62901 8.03716,8.03715 13.20607,14.26719 18.6279,22.45209 13.38498,20.2062 20.67566,39.7072 24.24936,64.8621 0.68635,4.831 1.21022,17.7982 0.85341,21.1246 -1.29623,12.0848 -13.81501,21.2732 -25.72646,18.8823 z m 103.55951,0.053 c -5.40985,-1.2367 -8.90656,-3.2164 -12.36522,-7.0008 -4.60486,-5.0384 -5.47559,-8.1929 -6.09079,-22.0659 -1.15881,-26.1323 -5.93966,-48.5535 -15.19004,-71.2384 -17.27469,-42.36261 -48.48206,-78.38582 -88.16277,-101.76742 -6.21016,-3.65929 -21.05067,-10.98522 -27.18886,-13.42161 -23.30135,-9.24886 -44.82407,-13.79994 -70.87382,-14.98658 -13.91067,-0.63368 -16.87467,-1.45318 -22.04272,-6.09446 -4.88638,-4.38832 -7.0756,-9.25626 -7.14186,-15.88056 -0.0981,-9.80611 5.32263,-17.57916 14.66644,-21.03097 2.19015,-0.80909 4.05608,-1.10885 7.922,-1.27265 5.4042,-0.22899 20.73323,0.71514 30.12239,1.85525 20.36754,2.47321 43.37456,8.32191 61.78388,15.7063 5.67086,2.27471 6.53439,2.64139 12.60198,5.35126 7.48506,3.34294 21.54189,10.91212 28.13623,15.15053 1.00151,0.6437 2.78247,1.75937 3.95769,2.47924 3.64397,2.23213 14.19855,9.85123 19.63804,14.17622 18.42791,14.65225 35.01426,32.04064 48.7072,51.06249 4.00707,5.5665 4.94135,6.96986 10.29535,15.46449 4.24097,6.72867 12.55264,22.63195 15.97287,30.56213 12.30088,28.52064 18.79255,56.16584 20.79307,88.54874 0.86792,14.0494 0.2288,18.829 -3.29029,24.6061 -2.54849,4.1837 -6.32513,7.097 -11.53529,8.8981 -2.85116,0.9857 -8.32676,1.445 -10.71548,0.8989 z m -213.93497,-6.6513 c -14.46753,-1.5593 -26.78303,-14.1099 -28.36201,-28.9033 -1.13446,-10.6288 2.42004,-20.2388 10.22969,-27.6572 5.95123,-5.6531 12.68655,-8.4899 21.00175,-8.8455 4.20936,-0.1801 5.69963,-0.058 8.79486,0.7183 12.55161,3.1493 21.5033,12.1022 24.6682,24.6714 1.29419,5.1399 1.01554,12.2678 -0.67947,17.381 -4.08094,12.3106 -15.09548,21.322 -27.68294,22.6484 -2.20681,0.2326 -4.21027,0.3994 -4.45213,0.3708 -0.24186,-0.029 -1.82494,-0.2014 -3.51795,-0.3839 z"
         style="fill:#ffffff;stroke-width:0.43974295" />
    </g>
  </g>
</svg>
