<?xml version="1.0" encoding="UTF-8" standalone="no"?>
<!-- Created with Inkscape (http://www.inkscape.org/) -->

<svg
   xmlns:dc="http://purl.org/dc/elements/1.1/"
   xmlns:cc="http://creativecommons.org/ns#"
   xmlns:rdf="http://www.w3.org/1999/02/22-rdf-syntax-ns#"
   xmlns:svg="http://www.w3.org/2000/svg"
   xmlns="http://www.w3.org/2000/svg"
   xmlns:sodipodi="http://sodipodi.sourceforge.net/DTD/sodipodi-0.dtd"
   xmlns:inkscape="http://www.inkscape.org/namespaces/inkscape"
   width="512"
   height="512"
   id="svg2"
   version="1.1"
   inkscape:version="0.92.2 5c3e80d, 2017-08-06"
   sodipodi:docname="text-x-bibtex.svg">
  <defs
     id="defs4" />
  <sodipodi:namedview
     id="base"
     pagecolor="#ffffff"
     bordercolor="#666666"
     borderopacity="1.0"
     inkscape:pageopacity="0.0"
     inkscape:pageshadow="2"
     inkscape:zoom="0.60666666"
     inkscape:cx="390.22561"
     inkscape:cy="119.57169"
     inkscape:document-units="px"
     inkscape:current-layer="layer1"
     showgrid="false"
     inkscape:window-width="1366"
     inkscape:window-height="717"
     inkscape:window-x="0"
     inkscape:window-y="24"
     inkscape:window-maximized="1" />
  <metadata
     id="metadata7">
    <rdf:RDF>
      <cc:Work
         rdf:about="">
        <dc:format>image/svg+xml</dc:format>
        <dc:type
           rdf:resource="http://purl.org/dc/dcmitype/StillImage" />
        <dc:title />
      </cc:Work>
    </rdf:RDF>
  </metadata>
  <g
     inkscape:label="Layer 1"
     inkscape:groupmode="layer"
     id="layer1"
     transform="translate(0,-540.36218)">
    <g
       id="g852">
      <path
         style="fill:#7a36b1;fill-opacity:1;stroke-width:11.10955811"
         inkscape:connector-curvature="0"
         d="m 432.91326,596.8362 c 102.19291,88.57459 105.82678,249.69971 8.1168,359.8988 C 343.32009,1066.934 181.27965,1084.4628 79.086745,995.8882 -23.106205,907.31366 -26.740035,746.18854 70.969945,635.98946 168.67991,525.79038 330.72036,508.26161 432.91326,596.8362 Z"
         id="path949" />
      <path
         style="fill:#4c158a;fill-opacity:1;stroke:none;stroke-width:0.99999994px;stroke-linecap:butt;stroke-linejoin:miter;stroke-opacity:1"
         d="M 8.3652453,882.36224 C 19.949345,925.51397 43.551545,965.0886 79.085945,995.8876 c 102.192915,88.5746 264.233395,71.0467 361.943365,-39.1523 20.35102,-22.95225 36.28955,-48.11808 47.87304,-74.37306 z"
         id="path951"
         inkscape:connector-curvature="0"
         sodipodi:nodetypes="csscc" />
      <path
         style="opacity:1;stroke-width:11.10955811;fill:#000000;fill-opacity:0.49019608"
         inkscape:connector-curvature="0"
         d="m 511.6355,765.26575 c -1.55139,61.31164 -25.16123,124.1546 -70.96638,175.81447 C 342.95915,1051.2793 180.9187,1068.808 78.725755,980.2335 30.827125,938.71787 4.4968153,881.28507 0.19382524,820.59104 0.79907524,886.94771 27.117405,950.84441 79.078685,995.8813 181.2716,1084.4558 343.31975,1066.9184 441.02201,956.728 490.72696,900.66989 514.02703,831.43703 511.6355,765.26575 Z"
         id="path953" />
      <path
         inkscape:connector-curvature="0"
         style="fill:#000000;fill-opacity:0.49019608;stroke:none;stroke-width:1.3444438"
         d="m 177.11804,616.43467 c 0,0 -4.16916,4.19223 0.4737,13.36805 4.64286,9.17582 92.29251,95.37896 91.09587,124.13189 -1.19664,28.75293 -94.88599,111.82485 -98.68719,122.22234 -3.8012,10.39749 0,15.27772 0,15.27772 0,0 196.63639,4.79439 212.55715,-7.41758 15.92076,-12.21197 0,-68.97142 0,-68.97142 H 367.3749 c 0,15.27778 3.93693,24.75045 -9.01477,33.89752 -14.19921,10.02785 -32.89881,11.93589 -49.34364,11.93589 H 230.731 c 0,0 74.50388,-79.26014 75.91322,-106.94447 C 308.05356,726.25028 230.731,631.71245 230.731,631.71245 h 44.5991 c 31.64203,0 76.67767,-2.9396 89.19807,35.32984 2.14022,6.54178 2.30787,18.91233 2.84673,25.78122 h 15.18267 c 0,0 10.53852,-58.02198 -7.82967,-69.79543 -18.36819,-11.77345 -197.60986,-6.59341 -197.60986,-6.59341 z"
         id="path922"
         sodipodi:nodetypes="czzzczcccsczcsscczc" />
      <path
         sodipodi:nodetypes="czzzczcccsczcsscczc"
         id="rect4274-3"
         d="m 157.11762,597.36218 c 0,0 -4.16916,4.19223 0.4737,13.36805 4.64286,9.17582 92.29251,95.37896 91.09587,124.13189 C 247.49055,763.61505 153.8012,846.68697 150,857.08446 c -3.8012,10.39749 0,15.27772 0,15.27772 0,0 196.63639,4.79439 212.55715,-7.41758 15.92076,-12.21197 0,-68.97142 0,-68.97142 h -15.18267 c 0,15.27778 3.93693,24.75045 -9.01477,33.89752 -14.19921,10.02785 -32.89881,11.93589 -49.34364,11.93589 h -78.28549 c 0,0 74.50388,-79.26014 75.91322,-106.94447 1.40934,-27.68433 -75.91322,-122.22216 -75.91322,-122.22216 h 44.5991 c 31.64203,0 76.67767,-2.9396 89.19807,35.32984 2.14022,6.54178 2.30787,18.91233 2.84673,25.78122 h 15.18267 c 0,0 10.53852,-58.02198 -7.82967,-69.79543 -18.36819,-11.77345 -197.60986,-6.59341 -197.60986,-6.59341 z"
         style="fill:#ffffff;fill-opacity:1;stroke:none;stroke-width:1.3444438"
         inkscape:connector-curvature="0" />
      <g
         aria-label="BIB"
         transform="translate(41.85807,540.53355)"
         style="font-style:normal;font-weight:normal;font-size:40px;line-height:1.25;font-family:sans-serif;letter-spacing:0px;word-spacing:0px;fill:#000000;fill-opacity:0.49019608;stroke:none"
         id="g945">
        <path
           d="m 177.60221,461.95884 q -12.45117,4.86979 -31.81966,4.86979 -2.37955,0 -4.53776,-2.26888 -2.10286,-2.21354 -2.10286,-4.5931 v -16.10351 q 0,-7.91341 0.99609,-22.57813 1.10677,-15.82682 1.21745,-22.91015 -0.0553,-5.09115 0.60872,-15.16276 0.38737,-2.76693 1.82617,-3.65235 7.52605,-2.32422 17.09961,-2.32422 9.73959,0 18.70443,6.64063 10.34831,7.63672 10.34831,18.87044 0,14.22201 -11.06771,22.41211 8.30078,3.54167 12.39583,7.85807 4.1504,4.31641 4.1504,9.40756 0,6.69596 -7.24935,12.94922 -5.03581,4.42708 -10.56967,6.58528 z M 160.88997,388.5246 q -6.0319,0 -8.46679,0.38737 l -0.11068,9.68424 -1.10677,21.41602 q 7.85807,0.66406 8.41146,0.60872 8.35612,-0.66406 13.66862,-5.20182 5.69987,-4.92513 5.69987,-12.67253 0,-5.25716 -5.81055,-9.73958 -5.81055,-4.48242 -12.28516,-4.48242 z m 6.19792,44.32617 -5.86588,-0.94076 q -0.71941,0 -2.21355,0.11068 -1.4388,0.0553 -2.21354,0.0553 -2.98828,0 -6.36393,-0.49805 -0.33203,6.97266 -0.33203,12.45117 v 11.45508 q 14.4987,-0.49804 23.62956,-4.09505 3.87369,-1.49414 7.41536,-4.64844 3.37565,-2.8776 3.37565,-4.3164 0,-2.60091 -7.08333,-5.86589 -5.3125,-2.49023 -10.34831,-3.70768 z"
           style="font-style:normal;font-variant:normal;font-weight:normal;font-stretch:normal;font-size:113.33333588px;font-family:'Comic Sans MS';-inkscape-font-specification:'Comic Sans MS';fill:#000000;fill-opacity:0.49019608"
           id="path939"
           inkscape:connector-curvature="0" />
        <path
           d="m 253.02865,395.22056 q -3.54167,0 -8.90951,-0.7194 l -8.9095,-1.16211 q -1.27279,16.10352 -1.27279,30.76823 0,3.8737 0.22136,9.57357 0.22135,5.69987 0.22135,9.57356 0,5.20183 -0.38737,9.4629 l 17.43164,-0.22136 q 2.32422,0 3.8737,1.66016 1.60482,1.60482 1.60482,3.98437 0,2.4349 -1.60482,4.09506 -1.54948,1.60481 -3.8737,1.60481 -3.09896,0 -9.29687,0.16602 -6.19792,0.11068 -9.29688,0.11068 -3.65234,0 -10.95703,0.99609 -7.24935,1.05143 -10.95703,1.05143 -2.32422,0 -3.92904,-1.66015 -1.54948,-1.60482 -1.54948,-3.98438 0,-2.37956 1.54948,-4.03971 1.60482,-1.66016 3.92904,-1.66016 3.597,0 11.89779,-1.16211 0.55338,-4.48242 0.55338,-10.23763 0,-3.81836 -0.38737,-9.29687 -0.33203,-5.53386 -0.33203,-9.29688 0,-12.7832 1.54948,-31.93034 l -7.19401,0.22135 -7.19401,0.16602 q -2.37956,0 -3.98438,-1.60482 -1.60482,-1.60481 -1.60482,-4.09505 0,-5.14648 5.20183,-5.64453 4.48242,-0.44271 16.76758,-0.44271 11.01237,0 27.61393,2.37956 4.92513,0.7194 4.92513,5.92122 0,2.60091 -1.88151,4.15039 -1.66016,1.27279 -3.81836,1.27279 z"
           style="font-style:normal;font-variant:normal;font-weight:normal;font-stretch:normal;font-size:113.33333588px;font-family:'Comic Sans MS';-inkscape-font-specification:'Comic Sans MS';fill:#000000;fill-opacity:0.49019608"
           id="path941"
           inkscape:connector-curvature="0" />
        <path
           d="m 311.07878,461.95884 q -12.45118,4.86979 -31.81967,4.86979 -2.37955,0 -4.53776,-2.26888 -2.10286,-2.21354 -2.10286,-4.5931 v -16.10351 q 0,-7.91341 0.99609,-22.57813 1.10677,-15.82682 1.21745,-22.91015 -0.0553,-5.09115 0.60873,-15.16276 0.38737,-2.76693 1.82617,-3.65235 7.52604,-2.32422 17.09961,-2.32422 9.73958,0 18.70442,6.64063 10.34831,7.63672 10.34831,18.87044 0,14.22201 -11.06771,22.41211 8.30079,3.54167 12.39584,7.85807 4.15039,4.31641 4.15039,9.40756 0,6.69596 -7.24935,12.94922 -5.03581,4.42708 -10.56966,6.58528 z M 294.36654,388.5246 q -6.0319,0 -8.4668,0.38737 l -0.11068,9.68424 -1.10677,21.41602 q 7.85808,0.66406 8.41146,0.60872 8.35612,-0.66406 13.66862,-5.20182 5.69987,-4.92513 5.69987,-12.67253 0,-5.25716 -5.81055,-9.73958 -5.81054,-4.48242 -12.28515,-4.48242 z m 6.19791,44.32617 -5.86588,-0.94076 q -0.7194,0 -2.21354,0.11068 -1.43881,0.0553 -2.21354,0.0553 -2.98829,0 -6.36394,-0.49805 -0.33203,6.97266 -0.33203,12.45117 v 11.45508 q 14.4987,-0.49804 23.62956,-4.09505 3.8737,-1.49414 7.41536,-4.64844 3.37566,-2.8776 3.37566,-4.3164 0,-2.60091 -7.08334,-5.86589 -5.3125,-2.49023 -10.34831,-3.70768 z"
           style="font-style:normal;font-variant:normal;font-weight:normal;font-stretch:normal;font-size:113.33333588px;font-family:'Comic Sans MS';-inkscape-font-specification:'Comic Sans MS';fill:#000000;fill-opacity:0.49019608"
           id="path943"
           inkscape:connector-curvature="0" />
      </g>
      <g
         id="flowRoot924"
         style="font-style:normal;font-weight:normal;font-size:40px;line-height:1.25;font-family:sans-serif;letter-spacing:0px;word-spacing:0px;fill:#ffffff;fill-opacity:1;stroke:none"
         transform="translate(21.85807,520.53355)"
         aria-label="BIB">
        <path
           inkscape:connector-curvature="0"
           id="path932"
           style="font-style:normal;font-variant:normal;font-weight:normal;font-stretch:normal;font-size:113.33333588px;font-family:'Comic Sans MS';-inkscape-font-specification:'Comic Sans MS';fill:#ffffff"
           d="m 177.60221,461.95884 q -12.45117,4.86979 -31.81966,4.86979 -2.37955,0 -4.53776,-2.26888 -2.10286,-2.21354 -2.10286,-4.5931 v -16.10351 q 0,-7.91341 0.99609,-22.57813 1.10677,-15.82682 1.21745,-22.91015 -0.0553,-5.09115 0.60872,-15.16276 0.38737,-2.76693 1.82617,-3.65235 7.52605,-2.32422 17.09961,-2.32422 9.73959,0 18.70443,6.64063 10.34831,7.63672 10.34831,18.87044 0,14.22201 -11.06771,22.41211 8.30078,3.54167 12.39583,7.85807 4.1504,4.31641 4.1504,9.40756 0,6.69596 -7.24935,12.94922 -5.03581,4.42708 -10.56967,6.58528 z M 160.88997,388.5246 q -6.0319,0 -8.46679,0.38737 l -0.11068,9.68424 -1.10677,21.41602 q 7.85807,0.66406 8.41146,0.60872 8.35612,-0.66406 13.66862,-5.20182 5.69987,-4.92513 5.69987,-12.67253 0,-5.25716 -5.81055,-9.73958 -5.81055,-4.48242 -12.28516,-4.48242 z m 6.19792,44.32617 -5.86588,-0.94076 q -0.71941,0 -2.21355,0.11068 -1.4388,0.0553 -2.21354,0.0553 -2.98828,0 -6.36393,-0.49805 -0.33203,6.97266 -0.33203,12.45117 v 11.45508 q 14.4987,-0.49804 23.62956,-4.09505 3.87369,-1.49414 7.41536,-4.64844 3.37565,-2.8776 3.37565,-4.3164 0,-2.60091 -7.08333,-5.86589 -5.3125,-2.49023 -10.34831,-3.70768 z" />
        <path
           inkscape:connector-curvature="0"
           id="path934"
           style="font-style:normal;font-variant:normal;font-weight:normal;font-stretch:normal;font-size:113.33333588px;font-family:'Comic Sans MS';-inkscape-font-specification:'Comic Sans MS';fill:#ffffff"
           d="m 253.02865,395.22056 q -3.54167,0 -8.90951,-0.7194 l -8.9095,-1.16211 q -1.27279,16.10352 -1.27279,30.76823 0,3.8737 0.22136,9.57357 0.22135,5.69987 0.22135,9.57356 0,5.20183 -0.38737,9.4629 l 17.43164,-0.22136 q 2.32422,0 3.8737,1.66016 1.60482,1.60482 1.60482,3.98437 0,2.4349 -1.60482,4.09506 -1.54948,1.60481 -3.8737,1.60481 -3.09896,0 -9.29687,0.16602 -6.19792,0.11068 -9.29688,0.11068 -3.65234,0 -10.95703,0.99609 -7.24935,1.05143 -10.95703,1.05143 -2.32422,0 -3.92904,-1.66015 -1.54948,-1.60482 -1.54948,-3.98438 0,-2.37956 1.54948,-4.03971 1.60482,-1.66016 3.92904,-1.66016 3.597,0 11.89779,-1.16211 0.55338,-4.48242 0.55338,-10.23763 0,-3.81836 -0.38737,-9.29687 -0.33203,-5.53386 -0.33203,-9.29688 0,-12.7832 1.54948,-31.93034 l -7.19401,0.22135 -7.19401,0.16602 q -2.37956,0 -3.98438,-1.60482 -1.60482,-1.60481 -1.60482,-4.09505 0,-5.14648 5.20183,-5.64453 4.48242,-0.44271 16.76758,-0.44271 11.01237,0 27.61393,2.37956 4.92513,0.7194 4.92513,5.92122 0,2.60091 -1.88151,4.15039 -1.66016,1.27279 -3.81836,1.27279 z" />
        <path
           inkscape:connector-curvature="0"
           id="path936"
           style="font-style:normal;font-variant:normal;font-weight:normal;font-stretch:normal;font-size:113.33333588px;font-family:'Comic Sans MS';-inkscape-font-specification:'Comic Sans MS';fill:#ffffff"
           d="m 311.07878,461.95884 q -12.45118,4.86979 -31.81967,4.86979 -2.37955,0 -4.53776,-2.26888 -2.10286,-2.21354 -2.10286,-4.5931 v -16.10351 q 0,-7.91341 0.99609,-22.57813 1.10677,-15.82682 1.21745,-22.91015 -0.0553,-5.09115 0.60873,-15.16276 0.38737,-2.76693 1.82617,-3.65235 7.52604,-2.32422 17.09961,-2.32422 9.73958,0 18.70442,6.64063 10.34831,7.63672 10.34831,18.87044 0,14.22201 -11.06771,22.41211 8.30079,3.54167 12.39584,7.85807 4.15039,4.31641 4.15039,9.40756 0,6.69596 -7.24935,12.94922 -5.03581,4.42708 -10.56966,6.58528 z M 294.36654,388.5246 q -6.0319,0 -8.4668,0.38737 l -0.11068,9.68424 -1.10677,21.41602 q 7.85808,0.66406 8.41146,0.60872 8.35612,-0.66406 13.66862,-5.20182 5.69987,-4.92513 5.69987,-12.67253 0,-5.25716 -5.81055,-9.73958 -5.81054,-4.48242 -12.28515,-4.48242 z m 6.19791,44.32617 -5.86588,-0.94076 q -0.7194,0 -2.21354,0.11068 -1.43881,0.0553 -2.21354,0.0553 -2.98829,0 -6.36394,-0.49805 -0.33203,6.97266 -0.33203,12.45117 v 11.45508 q 14.4987,-0.49804 23.62956,-4.09505 3.8737,-1.49414 7.41536,-4.64844 3.37566,-2.8776 3.37566,-4.3164 0,-2.60091 -7.08334,-5.86589 -5.3125,-2.49023 -10.34831,-3.70768 z" />
      </g>
    </g>
  </g>
</svg>
