<?xml version="1.0" encoding="UTF-8" standalone="no"?>
<!-- Created with Inkscape (http://www.inkscape.org/) -->

<svg
   xmlns:dc="http://purl.org/dc/elements/1.1/"
   xmlns:cc="http://creativecommons.org/ns#"
   xmlns:rdf="http://www.w3.org/1999/02/22-rdf-syntax-ns#"
   xmlns:svg="http://www.w3.org/2000/svg"
   xmlns="http://www.w3.org/2000/svg"
   xmlns:sodipodi="http://sodipodi.sourceforge.net/DTD/sodipodi-0.dtd"
   xmlns:inkscape="http://www.inkscape.org/namespaces/inkscape"
   width="512"
   height="512"
   id="svg2"
   version="1.1"
   inkscape:version="0.92.2 5c3e80d, 2017-08-06"
   sodipodi:docname="url-rtspu.svg">
  <defs
     id="defs4" />
  <sodipodi:namedview
     id="base"
     pagecolor="#ffffff"
     bordercolor="#666666"
     borderopacity="1.0"
     inkscape:pageopacity="0.0"
     inkscape:pageshadow="2"
     inkscape:zoom="0.60666666"
     inkscape:cx="168.25082"
     inkscape:cy="201.47347"
     inkscape:document-units="px"
     inkscape:current-layer="layer1"
     showgrid="false"
     inkscape:window-width="1366"
     inkscape:window-height="717"
     inkscape:window-x="0"
     inkscape:window-y="24"
     inkscape:window-maximized="1" />
  <metadata
     id="metadata7">
    <rdf:RDF>
      <cc:Work
         rdf:about="">
        <dc:format>image/svg+xml</dc:format>
        <dc:type
           rdf:resource="http://purl.org/dc/dcmitype/StillImage" />
        <dc:title />
      </cc:Work>
    </rdf:RDF>
  </metadata>
  <g
     inkscape:label="Layer 1"
     inkscape:groupmode="layer"
     id="layer1"
     transform="translate(0,-540.36218)">
    <g
       id="g871">
      <path
         id="path943"
         d="m 432.91327,596.83617 c 102.19291,88.57459 105.82678,249.69971 8.1168,359.89879 C 343.3201,1066.934 181.27965,1084.4628 79.086742,995.88822 -23.106204,907.31363 -26.740034,746.18851 70.969942,635.98943 168.67991,525.79035 330.72037,508.26158 432.91327,596.83617 Z"
         inkscape:connector-curvature="0"
         style="fill:#3689e6;fill-opacity:1;stroke-width:11.10955811" />
      <path
         sodipodi:nodetypes="csscc"
         inkscape:connector-curvature="0"
         id="path945"
         d="m 8.3652422,882.36221 c 11.5841008,43.15173 35.1863058,82.72637 70.7207058,113.5254 102.192912,88.57459 264.233402,71.04669 361.943372,-39.15235 20.35102,-22.95224 36.28955,-48.11807 47.87304,-74.37305 z"
         style="fill:#0d52bf;fill-opacity:1;stroke:none;stroke-width:0.99999994px;stroke-linecap:butt;stroke-linejoin:miter;stroke-opacity:1" />
      <path
         id="path947"
         d="m 511.63551,765.26572 c -1.55139,61.31164 -25.16123,124.1546 -70.96638,175.81447 C 342.95916,1051.2793 180.9187,1068.808 78.725759,980.23349 30.827126,938.71784 4.4968202,881.28504 0.19382816,820.59101 0.79908216,886.94768 27.117406,950.84438 79.078691,995.88126 181.2716,1084.4558 343.31976,1066.9184 441.02202,956.72797 490.72697,900.66986 514.02704,831.437 511.63551,765.26572 Z"
         inkscape:connector-curvature="0"
         style="opacity:1;stroke-width:11.10955811;fill:#000000;fill-opacity:0.49019608" />
      <path
         style="fill:#000000;fill-opacity:0.49019608;stroke-width:0.81360942"
         d="m 152.33136,891.06149 c -4.25253,-1.81874 -10.47546,-8.26887 -11.44254,-11.86031 -0.45338,-1.68368 -1.17633,-3.0613 -1.60656,-3.0613 -0.49683,0 -0.78226,-40.96919 -0.78226,-112.27811 0,-71.30892 0.28543,-112.27814 0.78226,-112.27814 0.43023,0 1.15514,-1.38483 1.6109,-3.07742 1.04285,-3.87281 6.64035,-9.65214 11.30225,-11.66937 3.39424,-1.4687 7.99701,-1.52541 123.80459,-1.52541 115.80758,0 120.41036,0.0566 123.80459,1.52541 4.66191,2.01723 10.25941,7.79656 11.30225,11.66937 0.45576,1.69259 1.18068,3.07742 1.6109,3.07742 0.49683,0 0.78226,40.96922 0.78226,112.27814 0,71.30892 -0.28543,112.27811 -0.78226,112.27811 -0.43022,0 -1.15514,1.38485 -1.6109,3.07742 -1.04284,3.87286 -6.64034,9.65217 -11.30225,11.66935 -3.3967,1.46978 -7.92271,1.523 -124.07545,1.45905 -105.13233,-0.0578 -120.91434,-0.22212 -123.39778,-1.28421 z m 41.50175,-25.91006 c 1.06667,-0.65923 1.08329,-30.23818 0.0173,-30.89695 -1.08253,-0.66905 -25.74569,-0.71291 -26.82199,-0.0478 -1.10375,0.68216 -1.19141,29.89146 -0.093,30.99009 0.83248,0.83264 25.54441,0.79092 26.89763,-0.0454 z m 191.19823,0 c 1.11682,-0.69024 1.07892,-30.24088 -0.0397,-30.93222 -0.4651,-0.28743 -6.49174,-0.52261 -13.39256,-0.52261 -6.9008,0 -12.92745,0.23518 -13.39254,0.52261 -1.08512,0.67066 -1.15386,29.89641 -0.0728,30.97765 0.83248,0.83264 25.54442,0.7909 26.89764,-0.0454 z M 262.57545,849.69759 V 834.239 h -19.93344 -19.93343 l -0.22289,14.61761 c -0.12259,8.03971 -0.04,15.09413 0.18344,15.67651 0.32142,0.83761 4.53347,1.01333 20.15633,0.84095 l 19.74999,-0.21791 z m 66.71598,0 V 834.239 h -19.93344 -19.93343 l -0.22289,14.61761 c -0.12259,8.03971 -0.0401,15.09413 0.18342,15.67651 0.32143,0.83761 4.53348,1.01333 20.15633,0.84095 l 19.75001,-0.21791 z m -66.87898,-52.99816 c 1.43211,-0.73367 2.78689,-1.56094 3.01063,-1.83841 0.22375,-0.27746 1.77978,-1.22494 3.45784,-2.10552 1.67808,-0.88057 3.05103,-1.88392 3.05103,-2.22963 0,-0.34573 0.33494,-0.62861 0.74432,-0.62861 0.40936,0 3.67647,-1.97383 7.26025,-4.38629 3.58378,-2.41248 6.81855,-4.5177 7.18839,-4.67826 0.36983,-0.16057 4.18623,-2.6192 8.48087,-5.46361 14.13226,-9.36004 14.13226,-13.65463 0,-23.01468 -4.29464,-2.84441 -8.17727,-5.35472 -8.62805,-5.57846 -0.45079,-0.22375 -5.59097,-3.56112 -11.42263,-7.41641 -16.07622,-10.62792 -17.71524,-11.2368 -21.26671,-7.90036 l -1.88306,1.76904 v 30.51951 c 0,30.21532 0.0176,30.53829 1.76904,32.40257 2.08455,2.2189 4.6455,2.3896 8.23808,0.54912 z M 193.7982,693.50137 c 1.11696,-0.69034 1.14735,-30.24175 0.0318,-30.93121 -1.05563,-0.65242 -25.80261,-0.65242 -26.85823,0 -1.0512,0.64969 -1.08553,29.90557 -0.0364,30.95504 0.84623,0.84645 25.48998,0.82459 26.86276,-0.0238 z m 68.09264,0.0462 c 0.91659,-0.35173 1.08604,-3.28928 0.90603,-15.70644 l -0.22142,-15.27381 h -19.93344 -19.93343 l -0.22212,14.94586 c -0.1259,8.47012 0.10845,15.34426 0.54087,15.86538 0.77683,0.93619 36.45987,1.09137 38.86351,0.16901 z m 67.40059,-15.52166 v -15.45859 h -19.93344 -19.93343 v 15.42191 c 0,15.39433 0.004,15.42268 1.86033,15.86539 1.02318,0.24391 9.99322,0.26042 19.93342,0.0367 l 18.07312,-0.40681 z m 55.70499,15.47542 c 1.11695,-0.69031 1.14735,-30.24175 0.0318,-30.93119 -1.05562,-0.65241 -25.80259,-0.65241 -26.85822,0 -1.0512,0.64967 -1.08553,29.90555 -0.0363,30.95503 0.84623,0.84645 25.48997,0.82459 26.86275,-0.0239 z"
         id="path843"
         inkscape:connector-curvature="0" />
      <path
         inkscape:connector-curvature="0"
         id="path857"
         d="m 132.33136,871.06149 c -4.25253,-1.81874 -10.47546,-8.26887 -11.44254,-11.86031 -0.45338,-1.68368 -1.17633,-3.0613 -1.60656,-3.0613 -0.49683,0 -0.78226,-40.96919 -0.78226,-112.27811 0,-71.30892 0.28543,-112.27814 0.78226,-112.27814 0.43023,0 1.15514,-1.38483 1.6109,-3.07742 1.04285,-3.87281 6.64035,-9.65214 11.30225,-11.66937 3.39424,-1.4687 7.99701,-1.52541 123.80459,-1.52541 115.80758,0 120.41036,0.0566 123.80459,1.52541 4.66191,2.01723 10.25941,7.79656 11.30225,11.66937 0.45576,1.69259 1.18068,3.07742 1.6109,3.07742 0.49683,0 0.78226,40.96922 0.78226,112.27814 0,71.30892 -0.28543,112.27811 -0.78226,112.27811 -0.43022,0 -1.15514,1.38485 -1.6109,3.07742 -1.04284,3.87286 -6.64034,9.65217 -11.30225,11.66935 -3.3967,1.46978 -7.92271,1.523 -124.07545,1.45905 -105.13233,-0.0578 -120.91434,-0.22212 -123.39778,-1.28421 z m 41.50175,-25.91006 c 1.06667,-0.65923 1.08329,-30.23818 0.0173,-30.89695 -1.08253,-0.66905 -25.74569,-0.71291 -26.82199,-0.0478 -1.10375,0.68216 -1.19141,29.89146 -0.093,30.99009 0.83248,0.83264 25.54441,0.79092 26.89763,-0.0454 z m 191.19823,0 c 1.11682,-0.69024 1.07892,-30.24088 -0.0397,-30.93222 -0.4651,-0.28743 -6.49174,-0.52261 -13.39256,-0.52261 -6.9008,0 -12.92745,0.23518 -13.39254,0.52261 -1.08512,0.67066 -1.15386,29.89641 -0.0728,30.97765 0.83248,0.83264 25.54442,0.7909 26.89764,-0.0454 z M 242.57545,829.69759 V 814.239 h -19.93344 -19.93343 l -0.22289,14.61761 c -0.12259,8.03971 -0.04,15.09413 0.18344,15.67651 0.32142,0.83761 4.53347,1.01333 20.15633,0.84095 l 19.74999,-0.21791 z m 66.71598,0 V 814.239 h -19.93344 -19.93343 l -0.22289,14.61761 c -0.12259,8.03971 -0.0401,15.09413 0.18342,15.67651 0.32143,0.83761 4.53348,1.01333 20.15633,0.84095 l 19.75001,-0.21791 z m -66.87898,-52.99816 c 1.43211,-0.73367 2.78689,-1.56094 3.01063,-1.83841 0.22375,-0.27746 1.77978,-1.22494 3.45784,-2.10552 1.67808,-0.88057 3.05103,-1.88392 3.05103,-2.22963 0,-0.34573 0.33494,-0.62861 0.74432,-0.62861 0.40936,0 3.67647,-1.97383 7.26025,-4.38629 3.58378,-2.41248 6.81855,-4.5177 7.18839,-4.67826 0.36983,-0.16057 4.18623,-2.6192 8.48087,-5.46361 14.13226,-9.36004 14.13226,-13.65463 0,-23.01468 -4.29464,-2.84441 -8.17727,-5.35472 -8.62805,-5.57846 -0.45079,-0.22375 -5.59097,-3.56112 -11.42263,-7.41641 -16.07622,-10.62792 -17.71524,-11.2368 -21.26671,-7.90036 l -1.88306,1.76904 v 30.51951 c 0,30.21532 0.0176,30.53829 1.76904,32.40257 2.08455,2.2189 4.6455,2.3896 8.23808,0.54912 z M 173.7982,673.50137 c 1.11696,-0.69034 1.14735,-30.24175 0.0318,-30.93121 -1.05563,-0.65242 -25.80261,-0.65242 -26.85823,0 -1.0512,0.64969 -1.08553,29.90557 -0.0364,30.95504 0.84623,0.84645 25.48998,0.82459 26.86276,-0.0238 z m 68.09264,0.0462 c 0.91659,-0.35173 1.08604,-3.28928 0.90603,-15.70644 l -0.22142,-15.27381 h -19.93344 -19.93343 l -0.22212,14.94586 c -0.1259,8.47012 0.10845,15.34426 0.54087,15.86538 0.77683,0.93619 36.45987,1.09137 38.86351,0.16901 z m 67.40059,-15.52166 v -15.45859 h -19.93344 -19.93343 v 15.42191 c 0,15.39433 0.004,15.42268 1.86033,15.86539 1.02318,0.24391 9.99322,0.26042 19.93342,0.0367 l 18.07312,-0.40681 z m 55.70499,15.47542 c 1.11695,-0.69031 1.14735,-30.24175 0.0318,-30.93119 -1.05562,-0.65241 -25.80259,-0.65241 -26.85822,0 -1.0512,0.64967 -1.08553,29.90555 -0.0363,30.95503 0.84623,0.84645 25.48997,0.82459 26.86275,-0.0239 z"
         style="fill:#ffffff;stroke-width:0.81360942" />
      <path
         inkscape:connector-curvature="0"
         id="path888"
         style="font-style:normal;font-variant:normal;font-weight:normal;font-stretch:normal;font-size:113.33333588px;line-height:1.25;font-family:'Comic Sans MS';-inkscape-font-specification:'Comic Sans MS';letter-spacing:0px;word-spacing:0px;fill:#000000;fill-opacity:0.49019608;stroke:none;stroke-width:0.87743056"
         d="m 161.79973,1005.1286 q -1.84511,0 -3.44746,-1.5538 -16.07194,-15.87769 -35.73701,-21.36449 l 0.38844,9.51692 0.24278,9.56547 q 0,2.1365 -1.40811,3.5446 -1.35956,1.4566 -3.44746,1.4566 -2.08789,0 -3.49601,-1.4566 -1.35956,-1.4081 -1.35956,-3.5446 0,-3.8359 -0.38845,-11.41059 -0.33989,-7.62325 -0.33989,-11.45915 0,-4.46713 0.97111,-13.30427 0.97112,-8.83714 0.97112,-13.25572 0,-2.47633 -0.48555,-7.33191 -0.43701,-4.85557 -0.43701,-7.33192 0,-2.76767 1.55378,-4.85556 1.84512,-2.57346 5.09836,-2.33068 l 11.70193,0.92256 q 6.65213,0.82545 11.21637,3.25323 19.66507,10.43948 19.66507,25.49176 0,7.38047 -6.70069,13.06149 -5.38968,4.56424 -13.44993,6.94347 15.10082,8.1088 22.57841,17.09161 1.26244,1.55379 1.26244,3.30178 0,2.0394 -1.50522,3.5446 -1.45667,1.5052 -3.44746,1.5052 z m -30.93,-64.19066 -7.18625,-0.58267 0.48556,5.87524 q 0.33989,3.59312 0.33989,5.87525 0,3.88445 -0.63122,9.66259 l -1.01967,9.66259 q 0.67978,0 2.0879,0.0485 1.45666,0.0485 2.185,0.0485 12.38171,0 18.54829,-3.30179 2.71912,-1.50522 5.04979,-3.93301 2.57346,-2.71912 2.57346,-4.61279 0,-6.74925 -7.6718,-12.57593 -7.04058,-5.34113 -14.76095,-6.16658 z" />
      <path
         inkscape:connector-curvature="0"
         id="path890"
         style="font-style:normal;font-variant:normal;font-weight:normal;font-stretch:normal;font-size:113.33333588px;line-height:1.25;font-family:'Comic Sans MS';-inkscape-font-specification:'Comic Sans MS';letter-spacing:0px;word-spacing:0px;fill:#000000;fill-opacity:0.49019608;stroke:none;stroke-width:0.87743056"
         d="m 235.79866,943.26861 q -3.59312,0 -11.0707,-0.58266 -7.28336,-0.53412 -11.0707,-0.48557 h -3.44746 q 0.14567,6.7007 1.311,21.75297 1.06823,14.03261 1.06823,21.80153 0,1.69944 0.33989,5.1469 0.33989,3.44746 0.33989,5.19547 0,3.30179 -1.06823,5.68105 -1.35956,3.2046 -4.22435,3.2046 -1.94222,0 -3.49601,-1.3595 -1.55378,-1.3596 -1.55378,-3.496 0,-0.72836 0.24277,-2.18504 0.24279,-1.45667 0.24279,-2.185 0,-2.37923 -0.33989,-7.1377 -0.29134,-4.75846 -0.29134,-7.18624 0,-6.94348 -1.11678,-19.51941 -1.16534,-13.5956 -1.311,-19.5194 l -4.41858,0.0485 q -10.6337,0 -16.70317,-1.55378 -3.93301,-1.01968 -3.93301,-4.80702 0,-1.99078 1.26245,-3.49601 1.45667,-1.69946 3.73879,-1.55378 1.69945,0.0971 7.76892,0.874 4.85557,0.58266 7.86602,0.58266 2.91334,0 8.83714,-0.0971 5.92381,-0.14567 8.83715,-0.14567 3.73879,0 11.07071,0.53411 7.38047,0.53411 11.11925,0.53411 2.0879,0 3.49602,1.45668 1.40812,1.40811 1.40812,3.54456 0,2.0879 -1.40812,3.54457 -1.40812,1.40812 -3.49602,1.40812 z" />
      <path
         inkscape:connector-curvature="0"
         id="path892"
         style="font-style:normal;font-variant:normal;font-weight:normal;font-stretch:normal;font-size:113.33333588px;line-height:1.25;font-family:'Comic Sans MS';-inkscape-font-specification:'Comic Sans MS';letter-spacing:0px;word-spacing:0px;fill:#000000;fill-opacity:0.49019608;stroke:none;stroke-width:0.87743056"
         d="m 243.7618,992.50412 q -0.0485,-2.03934 1.35956,-3.30179 1.45668,-1.311 3.54458,-1.311 2.37922,0 4.17579,2.71912 2.47634,3.69023 4.41857,5.00124 4.12723,2.71912 11.99326,2.71912 7.52614,0 13.98405,-3.25323 8.25448,-4.1758 8.25448,-11.60483 0,-6.11801 -6.94347,-9.66259 -5.87524,-3.059 -14.51817,-3.30179 -7.67181,-0.29133 -13.06148,-3.35034 -6.89492,-3.93301 -6.89492,-11.26493 0,-8.64292 9.80826,-15.78061 9.37125,-6.74924 19.37373,-6.74924 4.70991,0 10.63371,1.60233 7.86602,2.0879 7.86602,5.34113 0,4.27291 -4.37001,4.27291 -1.94223,0 -6.7978,-1.01967 -4.85558,-1.06823 -7.52614,-1.01968 -7.5747,0.0971 -12.86727,3.7388 -5.43824,3.73879 -5.43824,9.07992 0,4.03013 7.18625,5.68102 2.67056,0.63123 10.34237,1.16534 11.11926,0.82545 17.38295,6.99202 5.72957,5.63246 5.72957,13.74127 0,11.55626 -10.68226,18.45116 -9.27414,5.9724 -21.51018,5.9724 -8.8857,0 -16.26617,-3.3989 -9.03137,-4.17582 -9.17704,-11.45918 z" />
      <path
         inkscape:connector-curvature="0"
         id="path894"
         style="font-style:normal;font-variant:normal;font-weight:normal;font-stretch:normal;font-size:113.33333588px;line-height:1.25;font-family:'Comic Sans MS';-inkscape-font-specification:'Comic Sans MS';letter-spacing:0px;word-spacing:0px;fill:#000000;fill-opacity:0.49019608;stroke:none;stroke-width:0.87743056"
         d="m 326.25799,976.09229 q -1.35956,0 -5.9238,-0.63123 -0.38844,7.33191 -0.38844,25.68594 0,1.9423 -1.26245,3.3018 -1.26245,1.311 -3.15613,1.311 -1.94223,0 -3.20467,-1.311 -1.26245,-1.3595 -1.26245,-3.3018 v -14.27534 q 0,-7.13769 0.874,-20.10207 0.97111,-14.03261 1.06823,-20.10207 v -6.7007 q 0,-4.80702 0.58266,-6.99202 1.11679,-4.2729 4.75847,-3.69024 1.55378,-0.48556 4.41857,-0.72834 2.86479,-0.24277 7.04058,-0.24277 8.8857,0 16.65461,6.06947 8.54581,6.70069 8.54581,16.12049 0,12.04183 -9.12848,19.17952 -8.15735,6.40936 -19.61651,6.40936 z m 2.42779,-38.55326 q -2.13646,0 -3.83591,0.0971 -1.65089,0.0971 -2.81623,0.29133 l -0.0971,8.93425 -1.01967,19.32518 5.34113,0.63123 q 8.15737,0 13.74127,-4.12723 6.11802,-4.51569 6.11802,-12.1875 0,-5.43823 -5.82668,-9.37125 -5.38969,-3.59313 -11.60482,-3.59313 z" />
      <path
         id="path896"
         transform="translate(0,540.36218)"
         d="M 420.60156 391.25391 C 418.82118 391.25391 417.47864 392.22379 416.57227 394.16602 C 415.86011 395.68743 415.50391 397.45202 415.50391 399.45898 C 415.50391 400.1064 415.5204 401.40152 415.55273 403.34375 L 415.55273 408.10156 C 415.55273 425.35327 413.78581 438.08841 410.25977 446.32617 C 414.84603 442.47417 419.33694 438.45397 423.73047 434.27148 C 424.91155 427.30334 425.50586 419.1987 425.50586 409.94727 L 425.50586 403.92578 C 425.47353 401.23903 425.45703 399.23149 425.45703 397.9043 C 425.45703 393.46954 423.83861 391.25391 420.60156 391.25391 z M 371.12305 391.49609 C 369.01897 391.49609 367.56317 392.67796 366.75391 395.04102 C 366.36547 396.20635 366.07313 398.26132 365.87891 401.20703 C 365.68469 403.9909 365.58789 407.64782 365.58789 412.17969 C 365.58789 424.48047 365.83085 432.68778 366.31641 436.79883 C 367.35226 445.92731 369.87669 452.82108 373.89062 457.48242 C 376.89124 460.99293 380.83688 463.43471 385.71484 464.81836 C 389.15854 462.50451 392.56298 460.10361 395.92773 457.62305 C 382.37157 457.5027 375.58984 447.69855 375.58984 428.20312 L 375.58984 399.70117 C 375.58984 394.23055 374.10113 391.49609 371.12305 391.49609 z "
         style="font-style:normal;font-variant:normal;font-weight:normal;font-stretch:normal;font-size:113.33333588px;line-height:1.25;font-family:'Comic Sans MS';-inkscape-font-specification:'Comic Sans MS';letter-spacing:0px;word-spacing:0px;fill:#000000;fill-opacity:0.49019608;stroke:none;stroke-width:0.87743056" />
      <g
         id="flowRoot869"
         style="font-style:normal;font-weight:normal;font-size:40px;line-height:1.25;font-family:sans-serif;letter-spacing:0px;word-spacing:0px;fill:#ffffff;fill-opacity:1;stroke:none"
         transform="matrix(0.87743057,0,0,0.87743057,-28.98655,609.11889)"
         aria-label="RTSPU">
        <path
           inkscape:connector-curvature="0"
           id="path877"
           style="font-style:normal;font-variant:normal;font-weight:normal;font-stretch:normal;font-size:113.33333588px;font-family:'Comic Sans MS';-inkscape-font-specification:'Comic Sans MS';fill:#ffffff"
           d="m 194.64323,428.53501 q -2.10286,0 -3.92904,-1.77083 -18.31705,-18.0957 -40.72916,-24.34896 l 0.4427,10.84636 0.2767,10.90169 q 0,2.4349 -1.60482,4.03971 -1.54948,1.66016 -3.92904,1.66016 -2.37955,0 -3.98437,-1.66016 -1.54948,-1.60481 -1.54948,-4.03971 0,-4.37175 -0.44271,-13.00456 -0.38737,-8.68815 -0.38737,-13.05989 0,-5.09115 1.10677,-15.16277 1.10677,-10.07161 1.10677,-15.10742 0,-2.82226 -0.55338,-8.35612 -0.49805,-5.53385 -0.49805,-8.35612 0,-3.15429 1.77083,-5.53385 2.10287,-2.93294 5.81055,-2.65625 l 13.33659,1.05143 q 7.58138,0.94076 12.7832,3.70768 22.41211,11.89779 22.41211,29.05274 0,8.41146 -7.63672,14.88607 -6.14257,5.20182 -15.32877,7.91341 17.21028,9.24153 25.73242,19.47916 1.4388,1.77084 1.4388,3.76303 0,2.32421 -1.71549,4.03971 -1.66016,1.71549 -3.92904,1.71549 z m -35.25065,-73.15755 -8.19011,-0.66406 0.55339,6.69596 q 0.38737,4.09505 0.38737,6.69597 0,4.42708 -0.7194,11.01237 l -1.16211,11.01237 q 0.77474,0 2.37956,0.0553 1.66015,0.0553 2.49023,0.0553 14.11133,0 21.13932,-3.76302 3.09896,-1.71549 5.75521,-4.48242 2.93295,-3.09896 2.93295,-5.25716 0,-7.69206 -8.74349,-14.33268 -8.02409,-6.08724 -16.82292,-7.028 z" />
        <path
           inkscape:connector-curvature="0"
           id="path879"
           style="font-style:normal;font-variant:normal;font-weight:normal;font-stretch:normal;font-size:113.33333588px;font-family:'Comic Sans MS';-inkscape-font-specification:'Comic Sans MS';fill:#ffffff"
           d="m 278.97917,358.03371 q -4.09505,0 -12.61718,-0.66406 -8.30079,-0.60873 -12.61719,-0.55339 h -3.92904 q 0.16602,7.63672 1.49414,24.79167 1.21745,15.99284 1.21745,24.84701 0,1.93684 0.38737,5.86588 0.38737,3.92904 0.38737,5.92123 0,3.76302 -1.21745,6.4746 -1.54948,3.65235 -4.81445,3.65235 -2.21354,0 -3.98438,-1.54948 -1.77083,-1.54948 -1.77083,-3.98438 0,-0.83007 0.27669,-2.49023 0.2767,-1.66016 0.2767,-2.49023 0,-2.71159 -0.38737,-8.13477 -0.33204,-5.42318 -0.33204,-8.1901 0,-7.91342 -1.27278,-22.2461 -1.32813,-15.49479 -1.49414,-22.24609 l -5.03581,0.0553 q -12.11914,0 -19.03646,-1.77084 -4.48242,-1.16211 -4.48242,-5.47851 0,-2.26888 1.4388,-3.98438 1.66016,-1.93685 4.26107,-1.77083 1.93685,0.11067 8.85417,0.99609 5.53385,0.66406 8.96484,0.66406 3.32031,0 10.07161,-0.11067 6.75131,-0.16602 10.07162,-0.16602 4.26107,0 12.61719,0.60873 8.41146,0.60872 12.67252,0.60872 2.37956,0 3.98438,1.66016 1.60482,1.60481 1.60482,4.03971 0,2.37956 -1.60482,4.03971 -1.60482,1.60482 -3.98438,1.60482 z" />
        <path
           inkscape:connector-curvature="0"
           id="path881"
           style="font-style:normal;font-variant:normal;font-weight:normal;font-stretch:normal;font-size:113.33333588px;font-family:'Comic Sans MS';-inkscape-font-specification:'Comic Sans MS';fill:#ffffff"
           d="m 288.05469,414.14699 q -0.0553,-2.32422 1.54948,-3.76302 1.66016,-1.49414 4.03972,-1.49414 2.71158,0 4.75911,3.09896 2.82227,4.20573 5.03581,5.69987 4.70377,3.09896 13.66862,3.09896 8.57747,0 15.9375,-3.70768 9.40755,-4.75912 9.40755,-13.22592 0,-6.97265 -7.91341,-11.01237 -6.69596,-3.48632 -16.54623,-3.76302 -8.74349,-0.33203 -14.88606,-3.81836 -7.85808,-4.48242 -7.85808,-12.83854 0,-9.85026 11.17839,-17.98502 10.68034,-7.69206 22.08008,-7.69206 5.36784,0 12.11914,1.82617 8.96484,2.37956 8.96484,6.08724 0,4.86979 -4.98047,4.86979 -2.21354,0 -7.74739,-1.16211 -5.53386,-1.21745 -8.57748,-1.16211 -8.63281,0.11068 -14.66471,4.26107 -6.19792,4.26107 -6.19792,10.34831 0,4.5931 8.19011,6.47461 3.04362,0.7194 11.78711,1.32812 12.67252,0.94076 19.8112,7.96875 6.52994,6.41927 6.52994,15.66081 0,13.17057 -12.17448,21.02865 -10.56966,6.80664 -24.51497,6.80664 -10.12695,0 -18.53841,-3.8737 -10.29297,-4.75912 -10.45899,-13.0599 z" />
        <path
           inkscape:connector-curvature="0"
           id="path883"
           style="font-style:normal;font-variant:normal;font-weight:normal;font-stretch:normal;font-size:113.33333588px;font-family:'Comic Sans MS';-inkscape-font-specification:'Comic Sans MS';fill:#ffffff"
           d="m 382.07488,395.44257 q -1.54948,0 -6.7513,-0.71941 -0.44271,8.35612 -0.44271,29.27409 0,2.21355 -1.4388,3.76302 -1.4388,1.49415 -3.59701,1.49415 -2.21354,0 -3.65234,-1.49415 -1.4388,-1.54947 -1.4388,-3.76302 v -16.26953 q 0,-8.13476 0.99609,-22.91015 1.10677,-15.99284 1.21745,-22.91016 v -7.63672 q 0,-5.47852 0.66406,-7.96875 1.27279,-4.86979 5.42318,-4.20573 1.77083,-0.55339 5.03581,-0.83008 3.26497,-0.27669 8.02408,-0.27669 10.12696,0 18.98112,6.91732 9.73959,7.63672 9.73959,18.37239 0,13.72396 -10.40365,21.85873 -9.29687,7.30469 -22.35677,7.30469 z m 2.76693,-43.93881 q -2.4349,0 -4.37175,0.11068 -1.88151,0.11068 -3.20963,0.33203 l -0.11068,10.18229 -1.16211,22.02474 6.08724,0.7194 q 9.29688,0 15.66081,-4.70377 6.97265,-5.14649 6.97265,-13.88998 0,-6.19791 -6.64062,-10.68034 -6.14258,-4.09505 -13.22591,-4.09505 z" />
        <path
           inkscape:connector-curvature="0"
           id="path885"
           style="font-style:normal;font-variant:normal;font-weight:normal;font-stretch:normal;font-size:113.33333588px;font-family:'Comic Sans MS';-inkscape-font-specification:'Comic Sans MS';fill:#ffffff"
           d="m 462.03907,430.13983 q -17.21028,0 -25.67708,-9.9056 -6.86198,-7.96875 -8.63281,-23.57422 -0.83008,-7.02799 -0.83008,-28.05664 0,-7.74739 0.33203,-12.50651 0.33203,-5.03581 0.99609,-7.02799 1.38347,-4.03972 4.98047,-4.03972 5.09115,0 5.09115,9.35222 v 32.48372 q 0,33.53516 23.46354,33.53516 22.08008,0 22.08008,-56.44532 0,-2.10286 0,-5.42317 -0.0553,-3.32032 -0.0553,-4.42709 0,-3.43099 1.21745,-6.0319 1.54948,-3.32031 4.5931,-3.32031 5.53385,0 5.53385,7.58138 0,2.26888 0.0553,6.86198 0,4.5931 0,6.86198 0,64.08203 -33.14779,64.08203 z" />
      </g>
    </g>
  </g>
</svg>
