<?xml version="1.0" encoding="UTF-8" standalone="no"?>
<!-- Created with Inkscape (http://www.inkscape.org/) -->

<svg
   xmlns:dc="http://purl.org/dc/elements/1.1/"
   xmlns:cc="http://creativecommons.org/ns#"
   xmlns:rdf="http://www.w3.org/1999/02/22-rdf-syntax-ns#"
   xmlns:svg="http://www.w3.org/2000/svg"
   xmlns="http://www.w3.org/2000/svg"
   xmlns:sodipodi="http://sodipodi.sourceforge.net/DTD/sodipodi-0.dtd"
   xmlns:inkscape="http://www.inkscape.org/namespaces/inkscape"
   width="512"
   height="512"
   id="svg2"
   version="1.1"
   inkscape:version="0.92.2 5c3e80d, 2017-08-06"
   sodipodi:docname="url-mmst.svg">
  <defs
     id="defs4" />
  <sodipodi:namedview
     id="base"
     pagecolor="#ffffff"
     bordercolor="#666666"
     borderopacity="1.0"
     inkscape:pageopacity="0.0"
     inkscape:pageshadow="2"
     inkscape:zoom="0.60666666"
     inkscape:cx="203.13784"
     inkscape:cy="193.64487"
     inkscape:document-units="px"
     inkscape:current-layer="layer1"
     showgrid="false"
     inkscape:window-width="1366"
     inkscape:window-height="717"
     inkscape:window-x="0"
     inkscape:window-y="24"
     inkscape:window-maximized="1" />
  <metadata
     id="metadata7">
    <rdf:RDF>
      <cc:Work
         rdf:about="">
        <dc:format>image/svg+xml</dc:format>
        <dc:type
           rdf:resource="http://purl.org/dc/dcmitype/StillImage" />
        <dc:title />
      </cc:Work>
    </rdf:RDF>
  </metadata>
  <g
     inkscape:label="Layer 1"
     inkscape:groupmode="layer"
     id="layer1"
     transform="translate(0,-540.36218)">
    <g
       id="g864">
      <path
         id="path943"
         d="m 432.91327,596.83617 c 102.19291,88.57459 105.82678,249.69971 8.1168,359.89879 C 343.3201,1066.934 181.27965,1084.4628 79.086742,995.88822 -23.106204,907.31363 -26.740034,746.18851 70.969942,635.98943 168.67991,525.79035 330.72037,508.26158 432.91327,596.83617 Z"
         inkscape:connector-curvature="0"
         style="fill:#3689e6;fill-opacity:1;stroke-width:11.10955811" />
      <path
         sodipodi:nodetypes="csscc"
         inkscape:connector-curvature="0"
         id="path945"
         d="m 8.3652422,882.36221 c 11.5841008,43.15173 35.1863058,82.72637 70.7207058,113.5254 102.192912,88.57459 264.233402,71.04669 361.943372,-39.15235 20.35102,-22.95224 36.28955,-48.11807 47.87304,-74.37305 z"
         style="fill:#0d52bf;fill-opacity:1;stroke:none;stroke-width:0.99999994px;stroke-linecap:butt;stroke-linejoin:miter;stroke-opacity:1" />
      <path
         id="path947"
         d="m 511.63551,765.26572 c -1.55139,61.31164 -25.16123,124.1546 -70.96638,175.81447 C 342.95916,1051.2793 180.9187,1068.808 78.725759,980.23349 30.827126,938.71784 4.4968202,881.28504 0.19382816,820.59101 0.79908216,886.94768 27.117406,950.84438 79.078691,995.88126 181.2716,1084.4558 343.31976,1066.9184 441.02202,956.72797 490.72697,900.66986 514.02704,831.437 511.63551,765.26572 Z"
         inkscape:connector-curvature="0"
         style="opacity:1;stroke-width:11.10955811;fill:#000000;fill-opacity:0.49019608" />
      <path
         style="fill:#000000;fill-opacity:0.49019608;stroke-width:0.81360942"
         d="m 152.33136,891.06149 c -4.25253,-1.81874 -10.47546,-8.26887 -11.44254,-11.86031 -0.45338,-1.68368 -1.17633,-3.0613 -1.60656,-3.0613 -0.49683,0 -0.78226,-40.96919 -0.78226,-112.27811 0,-71.30892 0.28543,-112.27814 0.78226,-112.27814 0.43023,0 1.15514,-1.38483 1.6109,-3.07742 1.04285,-3.87281 6.64035,-9.65214 11.30225,-11.66937 3.39424,-1.4687 7.99701,-1.52541 123.80459,-1.52541 115.80758,0 120.41036,0.0566 123.80459,1.52541 4.66191,2.01723 10.25941,7.79656 11.30225,11.66937 0.45576,1.69259 1.18068,3.07742 1.6109,3.07742 0.49683,0 0.78226,40.96922 0.78226,112.27814 0,71.30892 -0.28543,112.27811 -0.78226,112.27811 -0.43022,0 -1.15514,1.38485 -1.6109,3.07742 -1.04284,3.87286 -6.64034,9.65217 -11.30225,11.66935 -3.3967,1.46978 -7.92271,1.523 -124.07545,1.45905 -105.13233,-0.0578 -120.91434,-0.22212 -123.39778,-1.28421 z m 41.50175,-25.91006 c 1.06667,-0.65923 1.08329,-30.23818 0.0173,-30.89695 -1.08253,-0.66905 -25.74569,-0.71291 -26.82199,-0.0478 -1.10375,0.68216 -1.19141,29.89146 -0.093,30.99009 0.83248,0.83264 25.54441,0.79092 26.89763,-0.0454 z m 191.19823,0 c 1.11682,-0.69024 1.07892,-30.24088 -0.0397,-30.93222 -0.4651,-0.28743 -6.49174,-0.52261 -13.39256,-0.52261 -6.9008,0 -12.92745,0.23518 -13.39254,0.52261 -1.08512,0.67066 -1.15386,29.89641 -0.0728,30.97765 0.83248,0.83264 25.54442,0.7909 26.89764,-0.0454 z M 262.57545,849.69759 V 834.239 h -19.93344 -19.93343 l -0.22289,14.61761 c -0.12259,8.03971 -0.04,15.09413 0.18344,15.67651 0.32142,0.83761 4.53347,1.01333 20.15633,0.84095 l 19.74999,-0.21791 z m 66.71598,0 V 834.239 h -19.93344 -19.93343 l -0.22289,14.61761 c -0.12259,8.03971 -0.0401,15.09413 0.18342,15.67651 0.32143,0.83761 4.53348,1.01333 20.15633,0.84095 l 19.75001,-0.21791 z m -66.87898,-52.99816 c 1.43211,-0.73367 2.78689,-1.56094 3.01063,-1.83841 0.22375,-0.27746 1.77978,-1.22494 3.45784,-2.10552 1.67808,-0.88057 3.05103,-1.88392 3.05103,-2.22963 0,-0.34573 0.33494,-0.62861 0.74432,-0.62861 0.40936,0 3.67647,-1.97383 7.26025,-4.38629 3.58378,-2.41248 6.81855,-4.5177 7.18839,-4.67826 0.36983,-0.16057 4.18623,-2.6192 8.48087,-5.46361 14.13226,-9.36004 14.13226,-13.65463 0,-23.01468 -4.29464,-2.84441 -8.17727,-5.35472 -8.62805,-5.57846 -0.45079,-0.22375 -5.59097,-3.56112 -11.42263,-7.41641 -16.07622,-10.62792 -17.71524,-11.2368 -21.26671,-7.90036 l -1.88306,1.76904 v 30.51951 c 0,30.21532 0.0176,30.53829 1.76904,32.40257 2.08455,2.2189 4.6455,2.3896 8.23808,0.54912 z M 193.7982,693.50137 c 1.11696,-0.69034 1.14735,-30.24175 0.0318,-30.93121 -1.05563,-0.65242 -25.80261,-0.65242 -26.85823,0 -1.0512,0.64969 -1.08553,29.90557 -0.0364,30.95504 0.84623,0.84645 25.48998,0.82459 26.86276,-0.0238 z m 68.09264,0.0462 c 0.91659,-0.35173 1.08604,-3.28928 0.90603,-15.70644 l -0.22142,-15.27381 h -19.93344 -19.93343 l -0.22212,14.94586 c -0.1259,8.47012 0.10845,15.34426 0.54087,15.86538 0.77683,0.93619 36.45987,1.09137 38.86351,0.16901 z m 67.40059,-15.52166 v -15.45859 h -19.93344 -19.93343 v 15.42191 c 0,15.39433 0.004,15.42268 1.86033,15.86539 1.02318,0.24391 9.99322,0.26042 19.93342,0.0367 l 18.07312,-0.40681 z m 55.70499,15.47542 c 1.11695,-0.69031 1.14735,-30.24175 0.0318,-30.93119 -1.05562,-0.65241 -25.80259,-0.65241 -26.85822,0 -1.0512,0.64967 -1.08553,29.90555 -0.0363,30.95503 0.84623,0.84645 25.48997,0.82459 26.86275,-0.0239 z"
         id="path843"
         inkscape:connector-curvature="0" />
      <path
         inkscape:connector-curvature="0"
         id="path857"
         d="m 132.33136,871.06149 c -4.25253,-1.81874 -10.47546,-8.26887 -11.44254,-11.86031 -0.45338,-1.68368 -1.17633,-3.0613 -1.60656,-3.0613 -0.49683,0 -0.78226,-40.96919 -0.78226,-112.27811 0,-71.30892 0.28543,-112.27814 0.78226,-112.27814 0.43023,0 1.15514,-1.38483 1.6109,-3.07742 1.04285,-3.87281 6.64035,-9.65214 11.30225,-11.66937 3.39424,-1.4687 7.99701,-1.52541 123.80459,-1.52541 115.80758,0 120.41036,0.0566 123.80459,1.52541 4.66191,2.01723 10.25941,7.79656 11.30225,11.66937 0.45576,1.69259 1.18068,3.07742 1.6109,3.07742 0.49683,0 0.78226,40.96922 0.78226,112.27814 0,71.30892 -0.28543,112.27811 -0.78226,112.27811 -0.43022,0 -1.15514,1.38485 -1.6109,3.07742 -1.04284,3.87286 -6.64034,9.65217 -11.30225,11.66935 -3.3967,1.46978 -7.92271,1.523 -124.07545,1.45905 -105.13233,-0.0578 -120.91434,-0.22212 -123.39778,-1.28421 z m 41.50175,-25.91006 c 1.06667,-0.65923 1.08329,-30.23818 0.0173,-30.89695 -1.08253,-0.66905 -25.74569,-0.71291 -26.82199,-0.0478 -1.10375,0.68216 -1.19141,29.89146 -0.093,30.99009 0.83248,0.83264 25.54441,0.79092 26.89763,-0.0454 z m 191.19823,0 c 1.11682,-0.69024 1.07892,-30.24088 -0.0397,-30.93222 -0.4651,-0.28743 -6.49174,-0.52261 -13.39256,-0.52261 -6.9008,0 -12.92745,0.23518 -13.39254,0.52261 -1.08512,0.67066 -1.15386,29.89641 -0.0728,30.97765 0.83248,0.83264 25.54442,0.7909 26.89764,-0.0454 z M 242.57545,829.69759 V 814.239 h -19.93344 -19.93343 l -0.22289,14.61761 c -0.12259,8.03971 -0.04,15.09413 0.18344,15.67651 0.32142,0.83761 4.53347,1.01333 20.15633,0.84095 l 19.74999,-0.21791 z m 66.71598,0 V 814.239 h -19.93344 -19.93343 l -0.22289,14.61761 c -0.12259,8.03971 -0.0401,15.09413 0.18342,15.67651 0.32143,0.83761 4.53348,1.01333 20.15633,0.84095 l 19.75001,-0.21791 z m -66.87898,-52.99816 c 1.43211,-0.73367 2.78689,-1.56094 3.01063,-1.83841 0.22375,-0.27746 1.77978,-1.22494 3.45784,-2.10552 1.67808,-0.88057 3.05103,-1.88392 3.05103,-2.22963 0,-0.34573 0.33494,-0.62861 0.74432,-0.62861 0.40936,0 3.67647,-1.97383 7.26025,-4.38629 3.58378,-2.41248 6.81855,-4.5177 7.18839,-4.67826 0.36983,-0.16057 4.18623,-2.6192 8.48087,-5.46361 14.13226,-9.36004 14.13226,-13.65463 0,-23.01468 -4.29464,-2.84441 -8.17727,-5.35472 -8.62805,-5.57846 -0.45079,-0.22375 -5.59097,-3.56112 -11.42263,-7.41641 -16.07622,-10.62792 -17.71524,-11.2368 -21.26671,-7.90036 l -1.88306,1.76904 v 30.51951 c 0,30.21532 0.0176,30.53829 1.76904,32.40257 2.08455,2.2189 4.6455,2.3896 8.23808,0.54912 z M 173.7982,673.50137 c 1.11696,-0.69034 1.14735,-30.24175 0.0318,-30.93121 -1.05563,-0.65242 -25.80261,-0.65242 -26.85823,0 -1.0512,0.64969 -1.08553,29.90557 -0.0364,30.95504 0.84623,0.84645 25.48998,0.82459 26.86276,-0.0238 z m 68.09264,0.0462 c 0.91659,-0.35173 1.08604,-3.28928 0.90603,-15.70644 l -0.22142,-15.27381 h -19.93344 -19.93343 l -0.22212,14.94586 c -0.1259,8.47012 0.10845,15.34426 0.54087,15.86538 0.77683,0.93619 36.45987,1.09137 38.86351,0.16901 z m 67.40059,-15.52166 v -15.45859 h -19.93344 -19.93343 v 15.42191 c 0,15.39433 0.004,15.42268 1.86033,15.86539 1.02318,0.24391 9.99322,0.26042 19.93342,0.0367 l 18.07312,-0.40681 z m 55.70499,15.47542 c 1.11695,-0.69031 1.14735,-30.24175 0.0318,-30.93119 -1.05562,-0.65241 -25.80259,-0.65241 -26.85822,0 -1.0512,0.64967 -1.08553,29.90555 -0.0363,30.95503 0.84623,0.84645 25.48997,0.82459 26.86275,-0.0239 z"
         style="fill:#ffffff;stroke-width:0.81360942" />
      <path
         inkscape:connector-curvature="0"
         id="path885"
         style="font-style:normal;font-variant:normal;font-weight:normal;font-stretch:normal;font-size:113.33333588px;line-height:1.25;font-family:'Comic Sans MS';-inkscape-font-specification:'Comic Sans MS';letter-spacing:0px;word-spacing:0px;fill:#000000;fill-opacity:0.49019608;stroke:none;stroke-width:0.88947427"
         d="m 188.7592,1007.3622 q -2.658,0 -4.38078,-2.7565 -1.47666,-2.3626 -2.658,-7.87552 l -1.772,-8.46622 q -2.01811,-7.87555 -6.39888,-34.75088 l -9.84445,29.681 -2.9041,9.35221 q -1.77201,5.56211 -3.69167,9.10611 -2.06733,3.7409 -5.56211,3.7409 -2.90411,0 -4.57766,-3.1502 -1.0829,-2.0674 -1.96889,-5.26681 l -1.42745,-5.46366 q -4.97144,-17.37545 -8.76155,-37.212 l -1.772,8.81078 -6.34967,25.98933 q -0.39377,4.57767 -2.46111,13.53606 -1.47666,3.8394 -4.87299,3.8394 -2.41189,0 -3.83934,-1.7228 -1.23055,-1.4767 -1.23055,-3.6424 0,-8.22015 3.39633,-20.18115 l 5.41445,-19.83655 2.85488,-15.505 q 2.16578,-10.87811 4.57767,-14.22521 1.96889,-2.8549 4.87299,-2.8549 3.19945,0 4.77456,3.64245 1.91966,4.38078 4.13467,17.86766 2.60877,16.19411 8.12166,35.04622 7.28489,-18.95056 12.60089,-39.47622 l 1.47666,-7.18644 q 0.88601,-4.33155 2.31344,-6.98955 1.91968,-3.64244 5.26679,-3.64244 4.2331,0 6.44811,8.17088 0.78755,2.80567 1.91966,11.61644 2.90411,22.24844 7.23567,37.99955 l 2.41188,8.46622 q 1.87045,6.79264 1.87045,8.36774 0,2.1166 -1.62433,3.544 -1.57512,1.4275 -3.59323,1.4275 z" />
      <path
         inkscape:connector-curvature="0"
         id="path887"
         style="font-style:normal;font-variant:normal;font-weight:normal;font-stretch:normal;font-size:113.33333588px;line-height:1.25;font-family:'Comic Sans MS';-inkscape-font-specification:'Comic Sans MS';letter-spacing:0px;word-spacing:0px;fill:#000000;fill-opacity:0.49019608;stroke:none;stroke-width:0.88947427"
         d="m 277.75296,1007.3622 q -2.658,0 -4.38078,-2.7565 -1.47667,-2.3626 -2.658,-7.87552 l -1.772,-8.46622 q -2.01811,-7.87555 -6.39888,-34.75088 l -9.84445,29.681 -2.9041,9.35221 q -1.77201,5.56211 -3.69167,9.10611 -2.06733,3.7409 -5.56211,3.7409 -2.90411,0 -4.57767,-3.1502 -1.08289,-2.0674 -1.96889,-5.26681 l -1.42744,-5.46366 q -4.97145,-17.37545 -8.76155,-37.212 l -1.772,8.81078 -6.34967,25.98933 q -0.39378,4.57767 -2.46111,13.53606 -1.47667,3.8394 -4.873,3.8394 -2.41189,0 -3.83933,-1.7228 -1.23056,-1.4767 -1.23056,-3.6424 0,-8.22015 3.39633,-20.18115 l 5.41445,-19.83655 2.85489,-15.505 q 2.16577,-10.87811 4.57766,-14.22521 1.96889,-2.8549 4.873,-2.8549 3.19944,0 4.77456,3.64245 1.91966,4.38078 4.13466,17.86766 2.60878,16.19411 8.12166,35.04622 7.2849,-18.95056 12.60089,-39.47622 l 1.47667,-7.18644 q 0.886,-4.33155 2.31344,-6.98955 1.91967,-3.64244 5.26678,-3.64244 4.23311,0 6.44811,8.17088 0.78755,2.80567 1.91967,11.61644 2.90411,22.24844 7.23566,37.99955 l 2.41189,8.46622 q 1.87044,6.79264 1.87044,8.36774 0,2.1166 -1.62433,3.544 -1.57511,1.4275 -3.59322,1.4275 z" />
      <path
         inkscape:connector-curvature="0"
         id="path889"
         style="font-style:normal;font-variant:normal;font-weight:normal;font-stretch:normal;font-size:113.33333588px;line-height:1.25;font-family:'Comic Sans MS';-inkscape-font-specification:'Comic Sans MS';letter-spacing:0px;word-spacing:0px;fill:#000000;fill-opacity:0.49019608;stroke:none;stroke-width:0.88947427"
         d="m 293.3564,991.0204 q -0.0492,-2.06732 1.37822,-3.34711 1.47666,-1.329 3.59322,-1.329 2.41189,0 4.23311,2.75645 2.51033,3.74089 4.47922,5.06988 4.18389,2.75645 12.15789,2.75645 7.62944,0 14.17599,-3.29789 8.36778,-4.23311 8.36778,-11.7641 0,-6.202 -7.03878,-9.79522 -5.95588,-3.101 -14.71743,-3.34712 -7.77711,-0.29533 -13.24078,-3.39633 -6.98955,-3.987 -6.98955,-11.41956 0,-8.76155 9.94288,-15.99721 9.49989,-6.84189 19.63966,-6.84189 4.77456,0 10.77967,1.62433 7.974,2.11656 7.974,5.41445 0,4.33155 -4.43,4.33155 -1.96889,0 -6.89111,-1.03367 -4.92222,-1.08288 -7.62944,-1.03366 -7.67867,0.0984 -13.04389,3.79011 -5.51289,3.79011 -5.51289,9.20455 0,4.08545 7.28489,5.759 2.70722,0.63989 10.48433,1.18133 11.27189,0.83678 17.62155,7.088 5.80822,5.70978 5.80822,13.92989 0,11.71488 -10.82888,18.70447 -9.40144,6.0543 -21.80545,6.0543 -9.00766,0 -16.48944,-3.4456 -9.15533,-4.23306 -9.30299,-11.6164 z" />
      <path
         id="path891"
         transform="translate(0,540.36218)"
         d="M 366.87109 388.33594 C 365.5826 388.38618 364.50788 388.91301 363.64648 389.91797 C 362.7933 390.93523 362.36523 392.11748 362.36523 393.46289 C 362.36523 396.02244 363.69552 397.64682 366.35352 398.33594 C 370.45537 399.38601 376.09872 399.91016 383.28516 399.91016 L 387.76367 399.86133 C 387.86212 403.86473 388.3062 410.46029 389.09375 419.64844 C 389.84849 428.14747 390.22656 434.74303 390.22656 439.43555 C 390.22656 441.07629 390.3246 443.50485 390.52148 446.7207 C 390.75119 449.93656 390.86523 452.34911 390.86523 453.95703 C 390.86523 454.44925 390.78321 455.18743 390.61914 456.17188 C 390.45507 457.15632 390.37305 457.8945 390.37305 458.38672 C 390.37305 459.4108 390.64364 460.29865 391.17188 461.05859 C 394.43382 458.75538 397.65544 456.37016 400.8418 453.91406 C 400.8234 452.74446 400.72322 451.15856 400.51367 449.0332 C 400.28397 446.70336 400.16797 444.96493 400.16797 443.81641 C 400.16797 438.56603 399.80786 431.19832 399.08594 421.71484 C 398.29838 411.54226 397.85431 404.19251 397.75586 399.66406 L 401.25195 399.66406 C 403.81151 399.63126 407.55239 399.79529 412.47461 400.15625 C 417.52809 400.55002 421.26897 400.74609 423.69727 400.74609 C 425.10831 400.74609 426.2886 400.27195 427.24023 399.32031 C 428.19185 398.33587 428.66797 397.1376 428.66797 395.72656 C 428.66797 394.28271 428.19185 393.08444 427.24023 392.13281 C 426.2886 391.14837 425.10831 390.65625 423.69727 390.65625 C 421.17053 390.65625 417.41363 390.47619 412.42578 390.11523 C 407.47075 389.75427 403.72987 389.57422 401.20312 389.57422 C 399.23424 389.57422 396.24755 389.62226 392.24414 389.7207 C 388.24073 389.78637 385.25404 389.82031 383.28516 389.82031 C 381.25064 389.82031 378.59203 389.6223 375.31055 389.22852 C 371.2087 388.70345 368.58407 388.40935 367.43555 388.34375 C 367.24276 388.33144 367.05516 388.32876 366.87109 388.33594 z "
         style="font-style:normal;font-variant:normal;font-weight:normal;font-stretch:normal;font-size:113.33333588px;line-height:1.25;font-family:'Comic Sans MS';-inkscape-font-specification:'Comic Sans MS';letter-spacing:0px;word-spacing:0px;fill:#000000;fill-opacity:0.49019608;stroke:none;stroke-width:0.88947427" />
      <g
         id="flowRoot868"
         style="font-style:normal;font-weight:normal;font-size:40px;line-height:1.25;font-family:sans-serif;letter-spacing:0px;word-spacing:0px;fill:#ffffff;fill-opacity:1;stroke:none"
         transform="matrix(0.88947427,0,0,0.88947427,-10.926374,574.80607)"
         aria-label="MMST">
        <path
           inkscape:connector-curvature="0"
           id="path876"
           style="font-style:normal;font-variant:normal;font-weight:normal;font-stretch:normal;font-size:113.33333588px;font-family:'Comic Sans MS';-inkscape-font-specification:'Comic Sans MS';fill:#ffffff"
           d="m 202.01302,463.82017 q -2.98828,0 -4.92513,-3.09896 -1.66015,-2.65625 -2.98828,-8.85416 l -1.99219,-9.51823 q -2.26888,-8.85417 -7.19401,-39.06902 l -11.06771,33.36915 -3.26497,10.51432 q -1.99219,6.25325 -4.15039,10.23763 -2.32422,4.20573 -6.25326,4.20573 -3.26497,0 -5.14648,-3.54167 -1.21745,-2.32422 -2.21354,-5.92122 l -1.60482,-6.14258 q -5.58919,-19.53451 -9.85026,-41.83594 l -1.99219,9.9056 -7.13867,29.21875 q -0.44271,5.14649 -2.76693,15.2181 -1.66015,4.31641 -5.47851,4.31641 -2.71159,0 -4.31641,-1.93685 -1.38346,-1.66016 -1.38346,-4.09505 0,-9.24154 3.81836,-22.68881 l 6.08724,-22.30143 3.20963,-17.43164 q 2.4349,-12.22982 5.14649,-15.99284 2.21354,-3.20964 5.47851,-3.20964 3.59701,0 5.36784,4.09506 2.1582,4.92513 4.64844,20.08789 2.93294,18.20638 9.13086,39.40104 8.1901,-21.30534 14.16667,-44.38151 L 177,386.29087 q 0.9961,-4.86979 2.60091,-7.85807 2.15821,-4.09505 5.92123,-4.09505 4.75911,0 7.24935,9.18619 0.88541,3.1543 2.1582,13.0599 3.26497,25.01302 8.13477,42.72136 l 2.71158,9.51823 q 2.10287,7.63671 2.10287,9.40755 0,2.37956 -1.82617,3.98437 -1.77084,1.60482 -4.03972,1.60482 z" />
        <path
           inkscape:connector-curvature="0"
           id="path878"
           style="font-style:normal;font-variant:normal;font-weight:normal;font-stretch:normal;font-size:113.33333588px;font-family:'Comic Sans MS';-inkscape-font-specification:'Comic Sans MS';fill:#ffffff"
           d="m 302.06511,463.82017 q -2.98828,0 -4.92513,-3.09896 -1.66016,-2.65625 -2.98828,-8.85416 l -1.99219,-9.51823 q -2.26888,-8.85417 -7.19401,-39.06902 l -11.06771,33.36915 -3.26497,10.51432 q -1.99219,6.25325 -4.15039,10.23763 -2.32422,4.20573 -6.25326,4.20573 -3.26497,0 -5.14648,-3.54167 -1.21745,-2.32422 -2.21355,-5.92122 l -1.60481,-6.14258 q -5.5892,-19.53451 -9.85026,-41.83594 l -1.99219,9.9056 -7.13867,29.21875 q -0.44271,5.14649 -2.76693,15.2181 -1.66016,4.31641 -5.47852,4.31641 -2.71159,0 -4.3164,-1.93685 -1.38347,-1.66016 -1.38347,-4.09505 0,-9.24154 3.81836,-22.68881 l 6.08724,-22.30143 3.20964,-17.43164 q 2.43489,-12.22982 5.14648,-15.99284 2.21354,-3.20964 5.47852,-3.20964 3.597,0 5.36784,4.09506 2.1582,4.92513 4.64843,20.08789 2.93295,18.20638 9.13086,39.40104 8.19011,-21.30534 14.16667,-44.38151 l 1.66016,-8.07943 q 0.99609,-4.86979 2.60091,-7.85807 2.1582,-4.09505 5.92122,-4.09505 4.75912,0 7.24935,9.18619 0.88542,3.1543 2.15821,13.0599 3.26497,25.01302 8.13476,42.72136 l 2.71159,9.51823 q 2.10286,7.63671 2.10286,9.40755 0,2.37956 -1.82617,3.98437 -1.77083,1.60482 -4.03971,1.60482 z" />
        <path
           inkscape:connector-curvature="0"
           id="path880"
           style="font-style:normal;font-variant:normal;font-weight:normal;font-stretch:normal;font-size:113.33333588px;font-family:'Comic Sans MS';-inkscape-font-specification:'Comic Sans MS';fill:#ffffff"
           d="m 319.60743,445.44777 q -0.0553,-2.32421 1.54948,-3.76302 1.66015,-1.49414 4.03971,-1.49414 2.71159,0 4.75911,3.09896 2.82227,4.20573 5.03581,5.69987 4.70378,3.09896 13.66862,3.09896 8.57748,0 15.9375,-3.70768 9.40755,-4.75912 9.40755,-13.22591 0,-6.97266 -7.91341,-11.01237 -6.69596,-3.48633 -16.54622,-3.76303 -8.74349,-0.33203 -14.88607,-3.81836 -7.85807,-4.48242 -7.85807,-12.83854 0,-9.85026 11.17838,-17.98502 10.68034,-7.69206 22.08008,-7.69206 5.36784,0 12.11914,1.82617 8.96485,2.37956 8.96485,6.08724 0,4.86979 -4.98047,4.86979 -2.21354,0 -7.7474,-1.16211 -5.53385,-1.21744 -8.57747,-1.16211 -8.63281,0.11068 -14.66472,4.26107 -6.19791,4.26107 -6.19791,10.34831 0,4.5931 8.1901,6.47461 3.04362,0.7194 11.78711,1.32812 12.67253,0.94076 19.8112,7.96875 6.52995,6.41927 6.52995,15.66081 0,13.17057 -12.17448,21.02865 -10.56966,6.80664 -24.51498,6.80664 -10.12695,0 -18.53841,-3.8737 -10.29297,-4.75911 -10.45898,-13.0599 z" />
        <path
           inkscape:connector-curvature="0"
           id="path882"
           style="font-style:normal;font-variant:normal;font-weight:normal;font-stretch:normal;font-size:113.33333588px;font-family:'Comic Sans MS';-inkscape-font-specification:'Comic Sans MS';fill:#ffffff"
           d="m 466.14389,389.33449 q -4.09505,0 -12.61719,-0.66406 -8.30078,-0.60872 -12.61718,-0.55339 h -3.92904 q 0.16602,7.63672 1.49414,24.79167 1.21745,15.99284 1.21745,24.84701 0,1.93685 0.38737,5.86588 0.38737,3.92904 0.38737,5.92123 0,3.76302 -1.21745,6.47461 -1.54948,3.65234 -4.81445,3.65234 -2.21354,0 -3.98438,-1.54948 -1.77083,-1.54948 -1.77083,-3.98437 0,-0.83008 0.27669,-2.49024 0.27669,-1.66016 0.27669,-2.49023 0,-2.71159 -0.38737,-8.13477 -0.33203,-5.42318 -0.33203,-8.1901 0,-7.91342 -1.27278,-22.2461 -1.32813,-15.49479 -1.49414,-22.24609 l -5.03581,0.0553 q -12.11914,0 -19.03646,-1.77084 -4.48242,-1.16211 -4.48242,-5.47851 0,-2.26888 1.4388,-3.98438 1.66016,-1.93685 4.26107,-1.77083 1.93685,0.11068 8.85416,0.99609 5.53386,0.66407 8.96485,0.66407 3.32031,0 10.07161,-0.11068 6.75131,-0.16602 10.07162,-0.16602 4.26107,0 12.61719,0.60873 8.41145,0.60872 12.67252,0.60872 2.37956,0 3.98438,1.66016 1.60481,1.60481 1.60481,4.03971 0,2.37956 -1.60481,4.03971 -1.60482,1.60482 -3.98438,1.60482 z" />
      </g>
    </g>
  </g>
</svg>
