<?xml version="1.0" encoding="UTF-8" standalone="no"?>
<!-- Created with Inkscape (http://www.inkscape.org/) -->

<svg
   xmlns:dc="http://purl.org/dc/elements/1.1/"
   xmlns:cc="http://creativecommons.org/ns#"
   xmlns:rdf="http://www.w3.org/1999/02/22-rdf-syntax-ns#"
   xmlns:svg="http://www.w3.org/2000/svg"
   xmlns="http://www.w3.org/2000/svg"
   xmlns:sodipodi="http://sodipodi.sourceforge.net/DTD/sodipodi-0.dtd"
   xmlns:inkscape="http://www.inkscape.org/namespaces/inkscape"
   width="512"
   height="512"
   id="svg2"
   version="1.1"
   inkscape:version="0.92.2 5c3e80d, 2017-08-06"
   sodipodi:docname="video-webm.svg">
  <defs
     id="defs4" />
  <sodipodi:namedview
     id="base"
     pagecolor="#ffffff"
     bordercolor="#666666"
     borderopacity="1.0"
     inkscape:pageopacity="0.0"
     inkscape:pageshadow="2"
     inkscape:zoom="0.42897811"
     inkscape:cx="258.04513"
     inkscape:cy="202.60761"
     inkscape:document-units="px"
     inkscape:current-layer="layer1"
     showgrid="false"
     inkscape:window-width="1366"
     inkscape:window-height="717"
     inkscape:window-x="0"
     inkscape:window-y="24"
     inkscape:window-maximized="1" />
  <metadata
     id="metadata7">
    <rdf:RDF>
      <cc:Work
         rdf:about="">
        <dc:format>image/svg+xml</dc:format>
        <dc:type
           rdf:resource="http://purl.org/dc/dcmitype/StillImage" />
        <dc:title />
      </cc:Work>
    </rdf:RDF>
  </metadata>
  <g
     inkscape:label="Layer 1"
     inkscape:groupmode="layer"
     id="layer1"
     transform="translate(0,-540.36218)">
    <g
       id="g864">
      <path
         id="path943"
         d="m 432.91327,596.83617 c 102.19291,88.57459 105.82678,249.69971 8.1168,359.89879 C 343.3201,1066.934 181.27965,1084.4628 79.086742,995.88822 -23.106204,907.31363 -26.740034,746.18851 70.969942,635.98943 168.67991,525.79035 330.72037,508.26158 432.91327,596.83617 Z"
         inkscape:connector-curvature="0"
         style="fill:#3689e6;fill-opacity:1;stroke-width:11.10955811" />
      <path
         sodipodi:nodetypes="csscc"
         inkscape:connector-curvature="0"
         id="path945"
         d="m 8.3652423,882.36221 c 11.5841007,43.15173 35.1863057,82.72637 70.7207057,113.5254 102.192912,88.57459 264.233402,71.04669 361.943372,-39.15235 20.35102,-22.95224 36.28955,-48.11807 47.87304,-74.37305 z"
         style="fill:#0d52bf;fill-opacity:1;stroke:none;stroke-width:0.99999994px;stroke-linecap:butt;stroke-linejoin:miter;stroke-opacity:1" />
      <path
         id="path947"
         d="m 511.63551,765.26572 c -1.55139,61.31164 -25.16123,124.1546 -70.96638,175.81447 C 342.95916,1051.2793 180.9187,1068.808 78.725759,980.23349 30.827126,938.71784 4.4968203,881.28504 0.19382824,820.59101 0.79908224,886.94768 27.117406,950.84438 79.078691,995.88126 181.2716,1084.4558 343.31976,1066.9184 441.02202,956.72797 490.72697,900.66986 514.02704,831.437 511.63551,765.26572 Z"
         inkscape:connector-curvature="0"
         style="opacity:1;stroke-width:11.10955811;fill:#000000;fill-opacity:0.49019608" />
      <path
         style="fill:#000000;fill-opacity:0.49019608;stroke-width:0.81360942"
         d="m 152.33136,891.06149 c -4.25253,-1.81874 -10.47546,-8.26887 -11.44254,-11.86031 -0.45338,-1.68368 -1.17633,-3.0613 -1.60656,-3.0613 -0.49683,0 -0.78226,-40.96919 -0.78226,-112.27811 0,-71.30892 0.28543,-112.27814 0.78226,-112.27814 0.43023,0 1.15514,-1.38483 1.6109,-3.07742 1.04285,-3.87281 6.64035,-9.65214 11.30225,-11.66937 3.39424,-1.4687 7.99701,-1.52541 123.80459,-1.52541 115.80758,0 120.41036,0.0566 123.80459,1.52541 4.66191,2.01723 10.25941,7.79656 11.30225,11.66937 0.45576,1.69259 1.18068,3.07742 1.6109,3.07742 0.49683,0 0.78226,40.96922 0.78226,112.27814 0,71.30892 -0.28543,112.27811 -0.78226,112.27811 -0.43022,0 -1.15514,1.38485 -1.6109,3.07742 -1.04284,3.87286 -6.64034,9.65217 -11.30225,11.66935 -3.3967,1.46978 -7.92271,1.523 -124.07545,1.45905 -105.13233,-0.0578 -120.91434,-0.22212 -123.39778,-1.28421 z m 41.50175,-25.91006 c 1.06667,-0.65923 1.08329,-30.23818 0.0173,-30.89695 -1.08253,-0.66905 -25.74569,-0.71291 -26.82199,-0.0478 -1.10375,0.68216 -1.19141,29.89146 -0.093,30.99009 0.83248,0.83264 25.54441,0.79092 26.89763,-0.0454 z m 191.19823,0 c 1.11682,-0.69024 1.07892,-30.24088 -0.0397,-30.93222 -0.4651,-0.28743 -6.49174,-0.52261 -13.39256,-0.52261 -6.9008,0 -12.92745,0.23518 -13.39254,0.52261 -1.08512,0.67066 -1.15386,29.89641 -0.0728,30.97765 0.83248,0.83264 25.54442,0.7909 26.89764,-0.0454 z M 262.57545,849.69759 V 834.239 h -19.93344 -19.93343 l -0.22289,14.61761 c -0.12259,8.03971 -0.04,15.09413 0.18344,15.67651 0.32142,0.83761 4.53347,1.01333 20.15633,0.84095 l 19.74999,-0.21791 z m 66.71598,0 V 834.239 h -19.93344 -19.93343 l -0.22289,14.61761 c -0.12259,8.03971 -0.0401,15.09413 0.18342,15.67651 0.32143,0.83761 4.53348,1.01333 20.15633,0.84095 l 19.75001,-0.21791 z m -66.87898,-52.99816 c 1.43211,-0.73367 2.78689,-1.56094 3.01063,-1.83841 0.22375,-0.27746 1.77978,-1.22494 3.45784,-2.10552 1.67808,-0.88057 3.05103,-1.88392 3.05103,-2.22963 0,-0.34573 0.33494,-0.62861 0.74432,-0.62861 0.40936,0 3.67647,-1.97383 7.26025,-4.38629 3.58378,-2.41248 6.81855,-4.5177 7.18839,-4.67826 0.36983,-0.16057 4.18623,-2.6192 8.48087,-5.46361 14.13226,-9.36004 14.13226,-13.65463 0,-23.01468 -4.29464,-2.84441 -8.17727,-5.35472 -8.62805,-5.57846 -0.45079,-0.22375 -5.59097,-3.56112 -11.42263,-7.41641 -16.07622,-10.62792 -17.71524,-11.2368 -21.26671,-7.90036 l -1.88306,1.76904 v 30.51951 c 0,30.21532 0.0176,30.53829 1.76904,32.40257 2.08455,2.2189 4.6455,2.3896 8.23808,0.54912 z M 193.7982,693.50137 c 1.11696,-0.69034 1.14735,-30.24175 0.0318,-30.93121 -1.05563,-0.65242 -25.80261,-0.65242 -26.85823,0 -1.0512,0.64969 -1.08553,29.90557 -0.0364,30.95504 0.84623,0.84645 25.48998,0.82459 26.86276,-0.0238 z m 68.09264,0.0462 c 0.91659,-0.35173 1.08604,-3.28928 0.90603,-15.70644 l -0.22142,-15.27381 h -19.93344 -19.93343 l -0.22212,14.94586 c -0.1259,8.47012 0.10845,15.34426 0.54087,15.86538 0.77683,0.93619 36.45987,1.09137 38.86351,0.16901 z m 67.40059,-15.52166 v -15.45859 h -19.93344 -19.93343 v 15.42191 c 0,15.39433 0.004,15.42268 1.86033,15.86539 1.02318,0.24391 9.99322,0.26042 19.93342,0.0367 l 18.07312,-0.40681 z m 55.70499,15.47542 c 1.11695,-0.69031 1.14735,-30.24175 0.0318,-30.93119 -1.05562,-0.65241 -25.80259,-0.65241 -26.85822,0 -1.0512,0.64967 -1.08553,29.90555 -0.0363,30.95503 0.84623,0.84645 25.48997,0.82459 26.86275,-0.0239 z"
         id="path843"
         inkscape:connector-curvature="0" />
      <path
         inkscape:connector-curvature="0"
         id="path857"
         d="m 132.33136,871.06149 c -4.25253,-1.81874 -10.47546,-8.26887 -11.44254,-11.86031 -0.45338,-1.68368 -1.17633,-3.0613 -1.60656,-3.0613 -0.49683,0 -0.78226,-40.96919 -0.78226,-112.27811 0,-71.30892 0.28543,-112.27814 0.78226,-112.27814 0.43023,0 1.15514,-1.38483 1.6109,-3.07742 1.04285,-3.87281 6.64035,-9.65214 11.30225,-11.66937 3.39424,-1.4687 7.99701,-1.52541 123.80459,-1.52541 115.80758,0 120.41036,0.0566 123.80459,1.52541 4.66191,2.01723 10.25941,7.79656 11.30225,11.66937 0.45576,1.69259 1.18068,3.07742 1.6109,3.07742 0.49683,0 0.78226,40.96922 0.78226,112.27814 0,71.30892 -0.28543,112.27811 -0.78226,112.27811 -0.43022,0 -1.15514,1.38485 -1.6109,3.07742 -1.04284,3.87286 -6.64034,9.65217 -11.30225,11.66935 -3.3967,1.46978 -7.92271,1.523 -124.07545,1.45905 -105.13233,-0.0578 -120.91434,-0.22212 -123.39778,-1.28421 z m 41.50175,-25.91006 c 1.06667,-0.65923 1.08329,-30.23818 0.0173,-30.89695 -1.08253,-0.66905 -25.74569,-0.71291 -26.82199,-0.0478 -1.10375,0.68216 -1.19141,29.89146 -0.093,30.99009 0.83248,0.83264 25.54441,0.79092 26.89763,-0.0454 z m 191.19823,0 c 1.11682,-0.69024 1.07892,-30.24088 -0.0397,-30.93222 -0.4651,-0.28743 -6.49174,-0.52261 -13.39256,-0.52261 -6.9008,0 -12.92745,0.23518 -13.39254,0.52261 -1.08512,0.67066 -1.15386,29.89641 -0.0728,30.97765 0.83248,0.83264 25.54442,0.7909 26.89764,-0.0454 z M 242.57545,829.69759 V 814.239 h -19.93344 -19.93343 l -0.22289,14.61761 c -0.12259,8.03971 -0.04,15.09413 0.18344,15.67651 0.32142,0.83761 4.53347,1.01333 20.15633,0.84095 l 19.74999,-0.21791 z m 66.71598,0 V 814.239 h -19.93344 -19.93343 l -0.22289,14.61761 c -0.12259,8.03971 -0.0401,15.09413 0.18342,15.67651 0.32143,0.83761 4.53348,1.01333 20.15633,0.84095 l 19.75001,-0.21791 z m -66.87898,-52.99816 c 1.43211,-0.73367 2.78689,-1.56094 3.01063,-1.83841 0.22375,-0.27746 1.77978,-1.22494 3.45784,-2.10552 1.67808,-0.88057 3.05103,-1.88392 3.05103,-2.22963 0,-0.34573 0.33494,-0.62861 0.74432,-0.62861 0.40936,0 3.67647,-1.97383 7.26025,-4.38629 3.58378,-2.41248 6.81855,-4.5177 7.18839,-4.67826 0.36983,-0.16057 4.18623,-2.6192 8.48087,-5.46361 14.13226,-9.36004 14.13226,-13.65463 0,-23.01468 -4.29464,-2.84441 -8.17727,-5.35472 -8.62805,-5.57846 -0.45079,-0.22375 -5.59097,-3.56112 -11.42263,-7.41641 -16.07622,-10.62792 -17.71524,-11.2368 -21.26671,-7.90036 l -1.88306,1.76904 v 30.51951 c 0,30.21532 0.0176,30.53829 1.76904,32.40257 2.08455,2.2189 4.6455,2.3896 8.23808,0.54912 z M 173.7982,673.50137 c 1.11696,-0.69034 1.14735,-30.24175 0.0318,-30.93121 -1.05563,-0.65242 -25.80261,-0.65242 -26.85823,0 -1.0512,0.64969 -1.08553,29.90557 -0.0364,30.95504 0.84623,0.84645 25.48998,0.82459 26.86276,-0.0238 z m 68.09264,0.0462 c 0.91659,-0.35173 1.08604,-3.28928 0.90603,-15.70644 l -0.22142,-15.27381 h -19.93344 -19.93343 l -0.22212,14.94586 c -0.1259,8.47012 0.10845,15.34426 0.54087,15.86538 0.77683,0.93619 36.45987,1.09137 38.86351,0.16901 z m 67.40059,-15.52166 v -15.45859 h -19.93344 -19.93343 v 15.42191 c 0,15.39433 0.004,15.42268 1.86033,15.86539 1.02318,0.24391 9.99322,0.26042 19.93342,0.0367 l 18.07312,-0.40681 z m 55.70499,15.47542 c 1.11695,-0.69031 1.14735,-30.24175 0.0318,-30.93119 -1.05562,-0.65241 -25.80259,-0.65241 -26.85822,0 -1.0512,0.64967 -1.08553,29.90555 -0.0363,30.95503 0.84623,0.84645 25.48997,0.82459 26.86275,-0.0239 z"
         style="fill:#ffffff;stroke-width:0.81360942" />
      <path
         inkscape:connector-curvature="0"
         id="path867"
         style="font-style:normal;font-variant:normal;font-weight:normal;font-stretch:normal;font-size:113.33333588px;line-height:1.25;font-family:'Comic Sans MS';-inkscape-font-specification:'Comic Sans MS';letter-spacing:0px;word-spacing:0px;fill:#000000;fill-opacity:0.49019608;stroke:none;stroke-width:0.87763685"
         d="m 159.30421,1007.2165 q -2.23408,0 -3.93393,-1.2628 -1.94269,-1.457 -1.94269,-3.5939 -2.23409,-5.87666 -2.8169,-9.56777 -0.5828,-3.6911 -3.8368,-20.93243 -2.47692,-13.06457 -3.30257,-20.98101 -4.32247,16.02716 -9.27632,27.14903 -5.73093,12.8703 -7.43077,20.15537 0.5828,1.11705 0.5828,2.18551 0,2.1855 -1.94268,3.594 -1.74842,1.3113 -3.98251,1.3113 -6.55657,0 -6.55657,-5.87664 l -1.50557,-6.16802 -5.29382,-23.7979 Q 104.90901,957.38658 97.28397,934.9 96.944,933.83152 96.944,932.95732 q 0,-4.51675 5.09955,-4.51675 3.15686,0 4.85671,3.44827 0.87422,1.74842 3.54541,10.0534 2.86546,8.79065 5.73092,21.17527 l 4.71101,21.46668 q 5.19669,-12.04465 10.3448,-29.33456 3.15687,-10.53907 4.80815,-14.6187 4.37105,-10.73335 8.49925,-10.73335 3.3997,0 4.80815,3.44828 1.74842,4.17677 3.5454,19.91252 0.97134,7.96501 3.30256,19.13545 l 4.17678,19.08689 q 6.508,-15.63862 16.27,-42.30198 0.53423,-1.45702 2.42835,-9.17919 1.40845,-5.68235 3.44827,-8.83922 1.74842,-2.67119 4.56531,-2.67119 4.90528,0 4.90528,4.85672 0,0.82563 -1.55414,4.85671 l -1.9427,5.24525 -2.67119,8.64495 -14.42443,35.06548 q -1.99126,5.77949 -6.84798,16.80425 -1.74842,3.254 -5.24525,3.254 z" />
      <path
         inkscape:connector-curvature="0"
         id="path869"
         style="font-style:normal;font-variant:normal;font-weight:normal;font-stretch:normal;font-size:113.33333588px;line-height:1.25;font-family:'Comic Sans MS';-inkscape-font-specification:'Comic Sans MS';letter-spacing:0px;word-spacing:0px;fill:#000000;fill-opacity:0.49019608;stroke:none;stroke-width:0.87763685"
         d="m 247.69642,937.18266 q -0.67994,0 -1.50558,-0.24284 -8.20785,-2.33122 -15.83289,-2.33122 -3.98251,0 -8.69352,0.72851 -4.71102,0.7285 -10.15053,2.23408 0.4371,3.15686 0.4371,5.05099 0,6.75082 -0.82564,18.55264 l 21.27241,-2.03982 q 9.37346,-0.97134 11.51041,-0.97134 2.13696,0 3.59397,1.35988 1.45701,1.35988 1.45701,3.64254 0,4.41961 -4.46817,4.95384 l -11.55899,1.01992 -22.43801,2.03982 q -0.19427,3.44827 -0.33997,6.55656 -0.0971,3.05973 -0.0971,5.73092 0,10.73334 1.55415,12.62746 1.16561,1.35988 7.62504,1.35988 3.01116,0 9.03349,-0.1457 6.07089,-0.19427 9.13063,-0.19427 0.97134,0 2.86545,-0.2914 1.89413,-0.33997 2.8169,-0.33997 5.14811,0 5.14811,5.05096 0,4.0797 -4.1282,4.9053 -4.56531,0.9228 -19.76683,0.9228 -15.05581,0 -19.32972,-3.9825 -4.66245,-4.32251 -4.66245,-19.91256 0,-3.1083 0.14571,-6.79939 0.14569,-3.69111 0.38853,-7.96502 -0.53424,-1.11704 -0.53424,-2.37978 0,-1.65129 0.92278,-2.96261 0.97134,-14.03589 0.97134,-20.73816 0,-1.79699 -0.48567,-5.24526 -0.48567,-3.49683 -0.48567,-5.29382 0,-5.77948 4.85672,-5.77948 2.03982,0 3.49683,1.40844 5.82806,-1.55415 10.97617,-2.33122 5.19669,-0.77707 9.762,-0.77707 11.80182,0 18.84405,2.81689 3.254,1.31131 3.254,4.66244 0,1.94269 -1.26274,3.44827 -1.40845,1.65129 -3.49684,1.65129 z" />
      <path
         inkscape:connector-curvature="0"
         id="path871"
         style="font-style:normal;font-variant:normal;font-weight:normal;font-stretch:normal;font-size:113.33333588px;line-height:1.25;font-family:'Comic Sans MS';-inkscape-font-specification:'Comic Sans MS';letter-spacing:0px;word-spacing:0px;fill:#000000;fill-opacity:0.49019608;stroke:none;stroke-width:0.87763685"
         d="m 298.74048,1000.6113 q -10.92761,4.274 -27.92611,4.274 -2.08839,0 -3.9825,-1.9913 -1.84556,-1.9427 -1.84556,-4.03107 v -14.13304 q 0,-6.9451 0.87422,-19.81539 0.97134,-13.8902 1.06848,-20.1068 -0.0485,-4.46818 0.53423,-13.3074 0.33997,-2.42836 1.60271,-3.20543 6.60513,-2.03982 15.00725,-2.03982 8.54783,0 16.4157,5.82805 9.08206,6.70227 9.08206,16.5614 0,12.48176 -9.71343,19.6697 7.28507,3.10829 10.87903,6.89653 3.64254,3.78824 3.64254,8.25641 0,5.87663 -6.3623,11.36472 -4.4196,3.88536 -9.27632,5.77944 z M 284.0732,936.16274 q -5.29382,0 -7.43076,0.33997 l -0.0971,8.49926 -0.97134,18.79548 q 6.89653,0.5828 7.3822,0.53424 7.33364,-0.58281 11.99609,-4.56531 5.00241,-4.32248 5.00241,-11.12188 0,-4.61388 -5.09955,-8.54782 -5.09955,-3.93394 -10.78191,-3.93394 z m 5.43953,38.90228 -5.14813,-0.82563 q -0.63137,0 -1.94268,0.0971 -1.26274,0.0485 -1.94268,0.0485 -2.62263,0 -5.58522,-0.4371 -0.29141,6.11945 -0.29141,10.92761 v 10.0534 q 12.72459,-0.43711 20.73817,-3.59397 3.3997,-1.31132 6.508,-4.07964 2.9626,-2.5255 2.9626,-3.78824 0,-2.28266 -6.2166,-5.14812 -4.66244,-2.18552 -9.08205,-3.254 z" />
      <path
         id="path873"
         transform="translate(0,540.36218)"
         d="M 382.9082 387.68945 C 380.70649 387.68945 378.97368 388.88722 377.71094 391.2832 C 376.77197 393.03162 376.01054 395.33041 375.42773 398.17969 L 373.9707 405.27148 C 370.47387 418.77315 366.32906 431.75709 361.53711 444.22266 C 357.91076 431.82185 355.23948 420.29497 353.52344 409.64258 C 352.06642 400.77097 350.70805 394.89337 349.44531 392.01172 C 348.40921 389.61575 346.83895 388.41797 344.73438 388.41797 C 342.82407 388.41797 341.22091 389.35644 339.92578 391.23438 C 338.33925 393.43608 336.83284 398.11592 335.4082 405.27148 L 332.5918 420.57031 L 327.25 440.14258 C 325.01591 448.01046 323.89844 454.64753 323.89844 460.05469 C 323.89844 461.47929 324.30383 462.67704 325.11328 463.64844 C 326.05225 464.78164 327.31386 465.34961 328.90039 465.34961 C 331.13448 465.34961 332.73764 464.08601 333.70898 461.56055 C 335.06886 455.66771 335.87769 451.21624 336.13672 448.20508 L 342.40234 422.56055 L 344.15039 413.86719 C 346.6435 426.91556 349.52474 439.15451 352.79492 450.58398 L 354.20508 455.97461 C 354.78788 458.07918 355.43416 459.81201 356.14648 461.17188 C 357.24734 463.24407 358.75376 464.2793 360.66406 464.2793 C 362.96291 464.2793 364.79246 463.05058 366.15234 460.58984 C 367.41508 458.25863 368.62931 455.26224 369.79492 451.60352 L 372.66016 442.37695 L 382.37305 413.08984 C 385.2547 430.76828 387.36 442.19841 388.6875 447.37891 L 390.43555 455.73242 C 390.8503 457.66794 391.29358 459.28567 391.76367 460.63086 C 394.84216 458.44541 397.88763 456.19306 400.89844 453.87109 C 400.82166 453.58764 400.76587 453.35934 400.68359 453.06055 L 398.30273 444.70703 C 395.45347 434.34604 393.07437 421.84778 391.16406 407.21289 C 390.41936 401.41721 389.78758 397.59751 389.26953 395.75195 C 387.81252 390.37719 385.69272 387.68945 382.9082 387.68945 z "
         style="font-style:normal;font-variant:normal;font-weight:normal;font-stretch:normal;font-size:113.33333588px;line-height:1.25;font-family:'Comic Sans MS';-inkscape-font-specification:'Comic Sans MS';letter-spacing:0px;word-spacing:0px;fill:#000000;fill-opacity:0.49019608;stroke:none;stroke-width:0.87763685" />
      <g
         id="flowRoot850"
         style="font-style:normal;font-weight:normal;font-size:40px;line-height:1.25;font-family:sans-serif;letter-spacing:0px;word-spacing:0px;fill:#ffffff;fill-opacity:1;stroke:none"
         transform="matrix(0.87763685,0,0,0.87763685,-15.158721,583.85962)"
         aria-label="WEBM">
        <path
           inkscape:connector-curvature="0"
           id="path858"
           style="font-style:normal;font-variant:normal;font-weight:normal;font-stretch:normal;font-size:113.33333588px;font-family:'Comic Sans MS';-inkscape-font-specification:'Comic Sans MS';fill:#ffffff"
           d="m 175.9987,459.59426 q -2.54557,0 -4.48242,-1.4388 -2.21354,-1.66016 -2.21354,-4.09506 -2.54558,-6.69596 -3.20964,-10.90169 -0.66406,-4.20573 -4.37174,-23.85091 -2.82227,-14.88607 -3.76303,-23.90625 -4.92513,18.26172 -10.56966,30.93424 -6.52995,14.66472 -8.46679,22.9655 0.66406,1.27279 0.66406,2.49023 0,2.49024 -2.21354,4.09506 -1.99219,1.49414 -4.53776,1.49414 -7.47071,0 -7.47071,-6.69597 l -1.71549,-7.02799 -6.0319,-27.11589 q -3.59701,-13.72396 -12.28516,-39.3457 -0.38737,-1.21745 -0.38737,-2.21354 0,-5.14649 5.81055,-5.14649 3.597,0 5.53385,3.92904 0.9961,1.99219 4.03972,11.45508 3.26497,10.01627 6.52994,24.1276 l 5.36784,24.45964 q 5.92123,-13.72396 11.78711,-33.42448 3.59701,-12.00847 5.47852,-16.6569 4.98047,-12.22982 9.68424,-12.22982 3.8737,0 5.47852,3.92904 1.99219,4.75911 4.03971,22.6888 1.10677,9.07552 3.76302,21.80338 l 4.75912,21.74805 q 7.41536,-17.81901 18.53841,-48.19987 0.60872,-1.66016 2.76693,-10.45898 1.60481,-6.47461 3.92903,-10.07162 1.99219,-3.04362 5.20183,-3.04362 5.58919,0 5.58919,5.53386 0,0.94075 -1.77083,5.53385 l -2.21355,5.97656 -3.04362,9.85026 -16.43554,39.95443 q -2.26888,6.58529 -7.80274,19.14714 -1.99219,3.70768 -5.97656,3.70768 z" />
        <path
           inkscape:connector-curvature="0"
           id="path860"
           style="font-style:normal;font-variant:normal;font-weight:normal;font-stretch:normal;font-size:113.33333588px;font-family:'Comic Sans MS';-inkscape-font-specification:'Comic Sans MS';fill:#ffffff"
           d="m 276.71485,379.79608 q -0.77474,0 -1.71549,-0.27669 -9.35222,-2.65625 -18.04037,-2.65625 -4.53776,0 -9.9056,0.83008 -5.36784,0.83007 -11.56575,2.54557 0.49804,3.597 0.49804,5.75521 0,7.69205 -0.94075,21.13932 l 24.23828,-2.32422 q 10.68034,-1.10677 13.11523,-1.10677 2.4349,0 4.09506,1.54948 1.66015,1.54948 1.66015,4.15039 0,5.03581 -5.09114,5.64453 l -13.17058,1.16211 -25.5664,2.32422 q -0.22136,3.92904 -0.38737,7.4707 -0.11068,3.48633 -0.11068,6.52995 0,12.22982 1.77083,14.38802 1.32813,1.54948 8.68815,1.54948 3.43099,0 10.29297,-0.16601 6.91732,-0.22136 10.40365,-0.22136 1.10677,0 3.26497,-0.33203 2.15821,-0.38737 3.20964,-0.38737 5.86588,0 5.86588,5.75521 0,4.64844 -4.70377,5.58919 -5.20182,1.05143 -22.52279,1.05143 -17.15495,0 -22.02474,-4.53776 -5.3125,-4.92513 -5.3125,-22.6888 0,-3.54167 0.16602,-7.74739 0.16601,-4.20573 0.4427,-9.07553 -0.60872,-1.27278 -0.60872,-2.71158 0,-1.88151 1.05143,-3.37566 1.10677,-15.99283 1.10677,-23.62955 0,-2.04753 -0.55338,-5.97657 -0.55339,-3.98437 -0.55339,-6.0319 0,-6.58528 5.53386,-6.58528 2.32422,0 3.98437,1.60481 6.64063,-1.77083 12.50651,-2.65625 5.92123,-0.88541 11.12305,-0.88541 13.44727,0 21.47136,3.20963 3.70768,1.49414 3.70768,5.3125 0,2.21354 -1.4388,3.92904 -1.60482,1.88151 -3.98438,1.88151 z" />
        <path
           inkscape:connector-curvature="0"
           id="path862"
           style="font-style:normal;font-variant:normal;font-weight:normal;font-stretch:normal;font-size:113.33333588px;font-family:'Comic Sans MS';-inkscape-font-specification:'Comic Sans MS';fill:#ffffff"
           d="m 334.87565,452.06822 q -12.45117,4.86979 -31.81966,4.86979 -2.37956,0 -4.53776,-2.26888 -2.10287,-2.21354 -2.10287,-4.5931 v -16.10352 q 0,-7.91341 0.9961,-22.57812 1.10677,-15.82682 1.21745,-22.91016 -0.0553,-5.09114 0.60872,-15.16276 0.38737,-2.76693 1.82617,-3.65234 7.52604,-2.32422 17.09961,-2.32422 9.73959,0 18.70443,6.64062 10.34831,7.63672 10.34831,18.87045 0,14.222 -11.06771,22.41211 8.30078,3.54166 12.39583,7.85807 4.15039,4.31641 4.15039,9.40755 0,6.69597 -7.24935,12.94922 -5.0358,4.42708 -10.56966,6.58529 z m -16.71224,-73.43425 q -6.0319,0 -8.46679,0.38737 l -0.11068,9.68425 -1.10677,21.41601 q 7.85807,0.66406 8.41146,0.60873 8.35612,-0.66407 13.66862,-5.20183 5.69987,-4.92513 5.69987,-12.67252 0,-5.25717 -5.81055,-9.73959 -5.81055,-4.48242 -12.28516,-4.48242 z m 6.19792,44.32617 -5.86589,-0.94075 q -0.7194,0 -2.21354,0.11068 -1.4388,0.0553 -2.21354,0.0553 -2.98828,0 -6.36393,-0.49804 -0.33203,6.97265 -0.33203,12.45117 v 11.45508 q 14.49869,-0.49805 23.62955,-4.09505 3.8737,-1.49415 7.41537,-4.64844 3.37565,-2.87761 3.37565,-4.31641 0,-2.60091 -7.08333,-5.86588 -5.3125,-2.49024 -10.34831,-3.70769 z" />
        <path
           inkscape:connector-curvature="0"
           id="path864"
           style="font-style:normal;font-variant:normal;font-weight:normal;font-stretch:normal;font-size:113.33333588px;font-family:'Comic Sans MS';-inkscape-font-specification:'Comic Sans MS';fill:#ffffff"
           d="m 447.26824,458.87486 q -2.98828,0 -4.92513,-3.09896 -1.66016,-2.65625 -2.98828,-8.85417 l -1.99219,-9.51823 q -2.26888,-8.85416 -7.19401,-39.06901 l -11.06771,33.36914 -3.26497,10.51433 q -1.99219,6.25325 -4.15039,10.23763 -2.32422,4.20573 -6.25326,4.20573 -3.26497,0 -5.14648,-3.54167 -1.21745,-2.32422 -2.21354,-5.92122 l -1.60482,-6.14258 q -5.58919,-19.53451 -9.85026,-41.83594 l -1.99219,9.9056 -7.13867,29.21875 q -0.44271,5.14648 -2.76693,15.2181 -1.66015,4.3164 -5.47851,4.3164 -2.71159,0 -4.31641,-1.93684 -1.38346,-1.66016 -1.38346,-4.09506 0,-9.24153 3.81836,-22.6888 l 6.08724,-22.30143 3.20963,-17.43164 q 2.4349,-12.22982 5.14649,-15.99284 2.21354,-3.20964 5.47851,-3.20964 3.59701,0 5.36784,4.09505 2.1582,4.92513 4.64844,20.0879 2.93294,18.20638 9.13086,39.40104 8.1901,-21.30534 14.16666,-44.38151 l 1.66016,-8.07943 q 0.99609,-4.86979 2.60091,-7.85807 2.1582,-4.09506 5.92123,-4.09506 4.75911,0 7.24934,9.1862 0.88542,3.1543 2.15821,13.0599 3.26497,25.01302 8.13476,42.72135 l 2.71159,9.51823 q 2.10287,7.63672 2.10287,9.40756 0,2.37955 -1.82618,3.98437 -1.77083,1.60482 -4.03971,1.60482 z" />
      </g>
    </g>
  </g>
</svg>
