<?xml version="1.0" encoding="UTF-8" standalone="no"?>
<!-- Created with Inkscape (http://www.inkscape.org/) -->

<svg
   xmlns:dc="http://purl.org/dc/elements/1.1/"
   xmlns:cc="http://creativecommons.org/ns#"
   xmlns:rdf="http://www.w3.org/1999/02/22-rdf-syntax-ns#"
   xmlns:svg="http://www.w3.org/2000/svg"
   xmlns="http://www.w3.org/2000/svg"
   xmlns:sodipodi="http://sodipodi.sourceforge.net/DTD/sodipodi-0.dtd"
   xmlns:inkscape="http://www.inkscape.org/namespaces/inkscape"
   width="512"
   height="512"
   id="svg2"
   version="1.1"
   inkscape:version="0.92.2 5c3e80d, 2017-08-06"
   sodipodi:docname="video-x-javafx.svg">
  <defs
     id="defs4" />
  <sodipodi:namedview
     id="base"
     pagecolor="#ffffff"
     bordercolor="#666666"
     borderopacity="1.0"
     inkscape:pageopacity="0.0"
     inkscape:pageshadow="2"
     inkscape:zoom="0.42897811"
     inkscape:cx="-243.90616"
     inkscape:cy="156.05952"
     inkscape:document-units="px"
     inkscape:current-layer="layer1"
     showgrid="false"
     inkscape:window-width="1366"
     inkscape:window-height="717"
     inkscape:window-x="0"
     inkscape:window-y="24"
     inkscape:window-maximized="1" />
  <metadata
     id="metadata7">
    <rdf:RDF>
      <cc:Work
         rdf:about="">
        <dc:format>image/svg+xml</dc:format>
        <dc:type
           rdf:resource="http://purl.org/dc/dcmitype/StillImage" />
        <dc:title />
      </cc:Work>
    </rdf:RDF>
  </metadata>
  <g
     inkscape:label="Layer 1"
     inkscape:groupmode="layer"
     id="layer1"
     transform="translate(0,-540.36218)">
    <g
       id="g857">
      <path
         id="path943"
         d="m 432.91327,596.83617 c 102.19291,88.57459 105.82678,249.69971 8.1168,359.89879 C 343.3201,1066.934 181.27965,1084.4628 79.086742,995.88822 -23.106204,907.31363 -26.740034,746.18851 70.969942,635.98943 168.67991,525.79035 330.72037,508.26158 432.91327,596.83617 Z"
         inkscape:connector-curvature="0"
         style="fill:#3689e6;fill-opacity:1;stroke-width:11.10955811" />
      <path
         sodipodi:nodetypes="csscc"
         inkscape:connector-curvature="0"
         id="path945"
         d="m 8.3652423,882.36221 c 11.5841007,43.15173 35.1863057,82.72637 70.7207057,113.5254 102.192912,88.57459 264.233402,71.04669 361.943372,-39.15235 20.35102,-22.95224 36.28955,-48.11807 47.87304,-74.37305 z"
         style="fill:#0d52bf;fill-opacity:1;stroke:none;stroke-width:0.99999994px;stroke-linecap:butt;stroke-linejoin:miter;stroke-opacity:1" />
      <path
         id="path947"
         d="m 511.63551,765.26572 c -1.55139,61.31164 -25.16123,124.1546 -70.96638,175.81447 C 342.95916,1051.2793 180.9187,1068.808 78.725759,980.23349 30.827126,938.71784 4.4968203,881.28504 0.19382824,820.59101 0.79908224,886.94768 27.117406,950.84438 79.078691,995.88126 181.2716,1084.4558 343.31976,1066.9184 441.02202,956.72797 490.72697,900.66986 514.02704,831.437 511.63551,765.26572 Z"
         inkscape:connector-curvature="0"
         style="opacity:1;stroke-width:11.10955811;fill:#000000;fill-opacity:0.49019608" />
      <path
         style="fill:#000000;fill-opacity:0.49019608;stroke-width:0.81360942"
         d="m 152.33136,891.06149 c -4.25253,-1.81874 -10.47546,-8.26887 -11.44254,-11.86031 -0.45338,-1.68368 -1.17633,-3.0613 -1.60656,-3.0613 -0.49683,0 -0.78226,-40.96919 -0.78226,-112.27811 0,-71.30892 0.28543,-112.27814 0.78226,-112.27814 0.43023,0 1.15514,-1.38483 1.6109,-3.07742 1.04285,-3.87281 6.64035,-9.65214 11.30225,-11.66937 3.39424,-1.4687 7.99701,-1.52541 123.80459,-1.52541 115.80758,0 120.41036,0.0566 123.80459,1.52541 4.66191,2.01723 10.25941,7.79656 11.30225,11.66937 0.45576,1.69259 1.18068,3.07742 1.6109,3.07742 0.49683,0 0.78226,40.96922 0.78226,112.27814 0,71.30892 -0.28543,112.27811 -0.78226,112.27811 -0.43022,0 -1.15514,1.38485 -1.6109,3.07742 -1.04284,3.87286 -6.64034,9.65217 -11.30225,11.66935 -3.3967,1.46978 -7.92271,1.523 -124.07545,1.45905 -105.13233,-0.0578 -120.91434,-0.22212 -123.39778,-1.28421 z m 41.50175,-25.91006 c 1.06667,-0.65923 1.08329,-30.23818 0.0173,-30.89695 -1.08253,-0.66905 -25.74569,-0.71291 -26.82199,-0.0478 -1.10375,0.68216 -1.19141,29.89146 -0.093,30.99009 0.83248,0.83264 25.54441,0.79092 26.89763,-0.0454 z m 191.19823,0 c 1.11682,-0.69024 1.07892,-30.24088 -0.0397,-30.93222 -0.4651,-0.28743 -6.49174,-0.52261 -13.39256,-0.52261 -6.9008,0 -12.92745,0.23518 -13.39254,0.52261 -1.08512,0.67066 -1.15386,29.89641 -0.0728,30.97765 0.83248,0.83264 25.54442,0.7909 26.89764,-0.0454 z M 262.57545,849.69759 V 834.239 h -19.93344 -19.93343 l -0.22289,14.61761 c -0.12259,8.03971 -0.04,15.09413 0.18344,15.67651 0.32142,0.83761 4.53347,1.01333 20.15633,0.84095 l 19.74999,-0.21791 z m 66.71598,0 V 834.239 h -19.93344 -19.93343 l -0.22289,14.61761 c -0.12259,8.03971 -0.0401,15.09413 0.18342,15.67651 0.32143,0.83761 4.53348,1.01333 20.15633,0.84095 l 19.75001,-0.21791 z m -66.87898,-52.99816 c 1.43211,-0.73367 2.78689,-1.56094 3.01063,-1.83841 0.22375,-0.27746 1.77978,-1.22494 3.45784,-2.10552 1.67808,-0.88057 3.05103,-1.88392 3.05103,-2.22963 0,-0.34573 0.33494,-0.62861 0.74432,-0.62861 0.40936,0 3.67647,-1.97383 7.26025,-4.38629 3.58378,-2.41248 6.81855,-4.5177 7.18839,-4.67826 0.36983,-0.16057 4.18623,-2.6192 8.48087,-5.46361 14.13226,-9.36004 14.13226,-13.65463 0,-23.01468 -4.29464,-2.84441 -8.17727,-5.35472 -8.62805,-5.57846 -0.45079,-0.22375 -5.59097,-3.56112 -11.42263,-7.41641 -16.07622,-10.62792 -17.71524,-11.2368 -21.26671,-7.90036 l -1.88306,1.76904 v 30.51951 c 0,30.21532 0.0176,30.53829 1.76904,32.40257 2.08455,2.2189 4.6455,2.3896 8.23808,0.54912 z M 193.7982,693.50137 c 1.11696,-0.69034 1.14735,-30.24175 0.0318,-30.93121 -1.05563,-0.65242 -25.80261,-0.65242 -26.85823,0 -1.0512,0.64969 -1.08553,29.90557 -0.0364,30.95504 0.84623,0.84645 25.48998,0.82459 26.86276,-0.0238 z m 68.09264,0.0462 c 0.91659,-0.35173 1.08604,-3.28928 0.90603,-15.70644 l -0.22142,-15.27381 h -19.93344 -19.93343 l -0.22212,14.94586 c -0.1259,8.47012 0.10845,15.34426 0.54087,15.86538 0.77683,0.93619 36.45987,1.09137 38.86351,0.16901 z m 67.40059,-15.52166 v -15.45859 h -19.93344 -19.93343 v 15.42191 c 0,15.39433 0.004,15.42268 1.86033,15.86539 1.02318,0.24391 9.99322,0.26042 19.93342,0.0367 l 18.07312,-0.40681 z m 55.70499,15.47542 c 1.11695,-0.69031 1.14735,-30.24175 0.0318,-30.93119 -1.05562,-0.65241 -25.80259,-0.65241 -26.85822,0 -1.0512,0.64967 -1.08553,29.90555 -0.0363,30.95503 0.84623,0.84645 25.48997,0.82459 26.86275,-0.0239 z"
         id="path843"
         inkscape:connector-curvature="0" />
      <path
         inkscape:connector-curvature="0"
         id="path857"
         d="m 132.33136,871.06149 c -4.25253,-1.81874 -10.47546,-8.26887 -11.44254,-11.86031 -0.45338,-1.68368 -1.17633,-3.0613 -1.60656,-3.0613 -0.49683,0 -0.78226,-40.96919 -0.78226,-112.27811 0,-71.30892 0.28543,-112.27814 0.78226,-112.27814 0.43023,0 1.15514,-1.38483 1.6109,-3.07742 1.04285,-3.87281 6.64035,-9.65214 11.30225,-11.66937 3.39424,-1.4687 7.99701,-1.52541 123.80459,-1.52541 115.80758,0 120.41036,0.0566 123.80459,1.52541 4.66191,2.01723 10.25941,7.79656 11.30225,11.66937 0.45576,1.69259 1.18068,3.07742 1.6109,3.07742 0.49683,0 0.78226,40.96922 0.78226,112.27814 0,71.30892 -0.28543,112.27811 -0.78226,112.27811 -0.43022,0 -1.15514,1.38485 -1.6109,3.07742 -1.04284,3.87286 -6.64034,9.65217 -11.30225,11.66935 -3.3967,1.46978 -7.92271,1.523 -124.07545,1.45905 -105.13233,-0.0578 -120.91434,-0.22212 -123.39778,-1.28421 z m 41.50175,-25.91006 c 1.06667,-0.65923 1.08329,-30.23818 0.0173,-30.89695 -1.08253,-0.66905 -25.74569,-0.71291 -26.82199,-0.0478 -1.10375,0.68216 -1.19141,29.89146 -0.093,30.99009 0.83248,0.83264 25.54441,0.79092 26.89763,-0.0454 z m 191.19823,0 c 1.11682,-0.69024 1.07892,-30.24088 -0.0397,-30.93222 -0.4651,-0.28743 -6.49174,-0.52261 -13.39256,-0.52261 -6.9008,0 -12.92745,0.23518 -13.39254,0.52261 -1.08512,0.67066 -1.15386,29.89641 -0.0728,30.97765 0.83248,0.83264 25.54442,0.7909 26.89764,-0.0454 z M 242.57545,829.69759 V 814.239 h -19.93344 -19.93343 l -0.22289,14.61761 c -0.12259,8.03971 -0.04,15.09413 0.18344,15.67651 0.32142,0.83761 4.53347,1.01333 20.15633,0.84095 l 19.74999,-0.21791 z m 66.71598,0 V 814.239 h -19.93344 -19.93343 l -0.22289,14.61761 c -0.12259,8.03971 -0.0401,15.09413 0.18342,15.67651 0.32143,0.83761 4.53348,1.01333 20.15633,0.84095 l 19.75001,-0.21791 z m -66.87898,-52.99816 c 1.43211,-0.73367 2.78689,-1.56094 3.01063,-1.83841 0.22375,-0.27746 1.77978,-1.22494 3.45784,-2.10552 1.67808,-0.88057 3.05103,-1.88392 3.05103,-2.22963 0,-0.34573 0.33494,-0.62861 0.74432,-0.62861 0.40936,0 3.67647,-1.97383 7.26025,-4.38629 3.58378,-2.41248 6.81855,-4.5177 7.18839,-4.67826 0.36983,-0.16057 4.18623,-2.6192 8.48087,-5.46361 14.13226,-9.36004 14.13226,-13.65463 0,-23.01468 -4.29464,-2.84441 -8.17727,-5.35472 -8.62805,-5.57846 -0.45079,-0.22375 -5.59097,-3.56112 -11.42263,-7.41641 -16.07622,-10.62792 -17.71524,-11.2368 -21.26671,-7.90036 l -1.88306,1.76904 v 30.51951 c 0,30.21532 0.0176,30.53829 1.76904,32.40257 2.08455,2.2189 4.6455,2.3896 8.23808,0.54912 z M 173.7982,673.50137 c 1.11696,-0.69034 1.14735,-30.24175 0.0318,-30.93121 -1.05563,-0.65242 -25.80261,-0.65242 -26.85823,0 -1.0512,0.64969 -1.08553,29.90557 -0.0364,30.95504 0.84623,0.84645 25.48998,0.82459 26.86276,-0.0238 z m 68.09264,0.0462 c 0.91659,-0.35173 1.08604,-3.28928 0.90603,-15.70644 l -0.22142,-15.27381 h -19.93344 -19.93343 l -0.22212,14.94586 c -0.1259,8.47012 0.10845,15.34426 0.54087,15.86538 0.77683,0.93619 36.45987,1.09137 38.86351,0.16901 z m 67.40059,-15.52166 v -15.45859 h -19.93344 -19.93343 v 15.42191 c 0,15.39433 0.004,15.42268 1.86033,15.86539 1.02318,0.24391 9.99322,0.26042 19.93342,0.0367 l 18.07312,-0.40681 z m 55.70499,15.47542 c 1.11695,-0.69031 1.14735,-30.24175 0.0318,-30.93119 -1.05562,-0.65241 -25.80259,-0.65241 -26.85822,0 -1.0512,0.64967 -1.08553,29.90555 -0.0363,30.95503 0.84623,0.84645 25.48997,0.82459 26.86275,-0.0239 z"
         style="fill:#ffffff;stroke-width:0.81360942" />
      <path
         inkscape:connector-curvature="0"
         id="path865"
         style="font-style:normal;font-variant:normal;font-weight:normal;font-stretch:normal;font-size:113.33333588px;line-height:1.25;font-family:'Comic Sans MS';-inkscape-font-specification:'Comic Sans MS';letter-spacing:0px;word-spacing:0px;fill:#000000;fill-opacity:0.49019608;stroke:none"
         d="m 209.13086,928.78144 q -0.99609,0 -2.10286,-0.4427 -6.86198,-2.54558 -18.15105,-2.54558 -3.65234,0 -8.57747,0.55339 -4.86979,0.49805 -10.95703,1.60482 l -0.11068,23.90625 q 10.68034,-2.82227 16.04818,-2.82227 8.52213,0 17.65299,0.9961 5.20183,0.55338 5.20183,5.64453 0,2.49023 -1.60482,4.15039 -1.60482,1.60482 -3.98438,1.60482 -2.8776,0 -8.63281,-0.49805 -5.75521,-0.49805 -8.63281,-0.49805 -3.76302,0 -16.26953,3.20964 l -0.49805,38.07287 q 0,2.3796 -1.54948,3.9844 -1.54948,1.6602 -3.92904,1.6602 -2.37955,0 -3.98437,-1.6602 -1.54948,-1.6048 -1.54948,-3.9844 0,-10.90165 0.38737,-32.70503 0.44271,-21.85873 0.44271,-32.76042 0,-2.4349 -0.11068,-7.30469 -0.0553,-4.92513 -0.0553,-7.36003 0,-2.43489 1.49414,-4.09505 1.54948,-1.66015 3.98438,-1.66015 1.82617,0 3.26497,0.99609 6.86198,-1.21745 12.3405,-1.77083 5.47851,-0.60873 9.6289,-0.60873 6.36394,0 14.55404,1.82617 11.12305,2.54558 11.12305,6.64063 0,2.21354 -1.43881,3.92904 -1.60481,1.93684 -3.98437,1.93684 z" />
      <path
         inkscape:connector-curvature="0"
         id="path867"
         style="font-style:normal;font-variant:normal;font-weight:normal;font-stretch:normal;font-size:113.33333588px;line-height:1.25;font-family:'Comic Sans MS';-inkscape-font-specification:'Comic Sans MS';letter-spacing:0px;word-spacing:0px;fill:#000000;fill-opacity:0.49019608;stroke:none"
         d="m 293.07943,926.8446 q -7.41536,8.96484 -11.39974,14.77539 l -6.91732,10.18229 q -4.03971,5.75521 -7.58138,9.68424 l 12.17448,17.81901 q 7.24935,10.56967 12.89388,17.26563 1.49414,1.82617 1.49414,3.81834 0,2.3242 -1.71549,4.0397 -1.66016,1.7155 -3.98438,1.7155 -2.10286,0 -3.92903,-1.7155 -4.09506,-3.8737 -8.52214,-10.51429 l -7.41536,-11.39974 -8.68816,-12.45117 -19.03645,22.02474 -10.1823,11.39976 q -1.82617,1.8262 -4.03971,1.8262 -2.26888,0 -3.98437,-1.7156 -1.7155,-1.7154 -1.7155,-4.03966 0,-1.99219 1.4388,-3.76302 l 9.96094,-11.12305 20.75195,-24.07226 q -6.08724,-8.13477 -12.94922,-16.32487 l -6.41927,-8.68815 q -3.87369,-5.20183 -7.19401,-7.96875 -2.32422,-1.93685 -2.32422,-4.48243 0,-2.26888 1.60482,-4.03971 1.60482,-1.77083 3.98438,-1.77083 4.70377,0 12.00846,10.01627 2.26888,3.37565 6.91732,9.57357 6.30859,7.52604 12.00846,15.10742 l 12.61719,-17.59765 q 12.28516,-17.09961 15.9375,-17.09961 2.26888,0 3.98438,1.71549 1.71549,1.7155 1.71549,4.03971 0,1.93685 -1.49414,3.76303 z" />
      <path
         id="path869"
         transform="translate(0,540.36218)"
         d="M 372.32422 376.24414 C 369.81554 376.24414 367.84114 377.60981 366.40234 380.33984 C 365.33246 382.33203 364.46679 384.95074 363.80273 388.19727 L 362.14258 396.27734 C 358.1582 411.66146 353.43468 426.45464 347.97461 440.6582 C 343.84266 426.52843 340.79904 413.3954 338.84375 401.25781 C 337.18359 391.14931 335.63411 384.45334 334.19531 381.16992 C 333.01476 378.43988 331.22613 377.07422 328.82812 377.07422 C 326.65148 377.07422 324.82531 378.1454 323.34961 380.28516 C 321.54189 382.79384 319.82639 388.12413 318.20312 396.27734 L 314.99414 413.70898 L 308.90625 436.00977 C 306.36068 444.97461 305.08789 452.5382 305.08789 458.69922 C 305.08789 460.32249 305.54839 461.68812 306.4707 462.79492 C 307.54058 464.08612 308.97939 464.73047 310.78711 464.73047 C 313.33268 464.73047 315.15885 463.29166 316.26562 460.41406 C 317.81511 453.69964 318.73806 448.62825 319.0332 445.19727 L 326.17188 415.97852 L 328.16406 406.07227 C 331.00478 420.93989 334.28755 434.8852 338.01367 447.9082 L 339.61914 454.05078 C 340.2832 456.44878 341.0204 458.42316 341.83203 459.97266 C 343.08637 462.33379 344.80187 463.51367 346.97852 463.51367 C 349.59788 463.51367 351.68294 462.11245 353.23242 459.30859 C 354.67122 456.65234 356.05469 453.23915 357.38281 449.07031 L 360.64844 438.55664 L 371.71484 405.1875 C 374.99826 425.33073 377.39757 438.35309 378.91016 444.25586 L 380.90234 453.77344 C 381.78776 457.9054 382.78385 460.85811 383.89062 462.62891 C 384.46162 463.54251 385.10443 464.24235 385.8125 464.75195 C 388.73915 462.78376 391.63204 460.74103 394.50195 458.65234 C 394.21963 457.01423 393.58819 454.39858 392.57812 450.73047 L 389.86719 441.21289 C 386.62066 429.40734 383.90907 415.16558 381.73242 398.49023 C 380.8839 391.8865 380.1645 387.53451 379.57422 385.43164 C 377.91407 379.30751 375.49697 376.24414 372.32422 376.24414 z "
         style="font-style:normal;font-variant:normal;font-weight:normal;font-stretch:normal;font-size:113.33333588px;line-height:1.25;font-family:'Comic Sans MS';-inkscape-font-specification:'Comic Sans MS';letter-spacing:0px;word-spacing:0px;fill:#000000;fill-opacity:0.49019608;stroke:none" />
      <g
         id="flowRoot850"
         style="font-style:normal;font-weight:normal;font-size:40px;line-height:1.25;font-family:sans-serif;letter-spacing:0px;word-spacing:0px;fill:#ffffff;fill-opacity:1;stroke:none"
         transform="translate(-14.4056,543.57)"
         aria-label="FXM">
        <path
           inkscape:connector-curvature="0"
           id="path858"
           style="font-style:normal;font-variant:normal;font-weight:normal;font-stretch:normal;font-size:113.33333588px;font-family:'Comic Sans MS';-inkscape-font-specification:'Comic Sans MS';fill:#ffffff"
           d="m 203.53646,365.21144 q -0.99609,0 -2.10286,-0.4427 -6.86198,-2.54558 -18.15105,-2.54558 -3.65234,0 -8.57747,0.55339 -4.86979,0.49805 -10.95703,1.60482 l -0.11068,23.90625 q 10.68034,-2.82227 16.04818,-2.82227 8.52213,0 17.65299,0.9961 5.20183,0.55338 5.20183,5.64453 0,2.49023 -1.60482,4.15039 -1.60482,1.60482 -3.98438,1.60482 -2.8776,0 -8.63281,-0.49805 -5.75521,-0.49805 -8.63281,-0.49805 -3.76302,0 -16.26953,3.20964 l -0.49805,38.07291 q 0,2.37956 -1.54948,3.98438 -1.54948,1.66016 -3.92904,1.66016 -2.37955,0 -3.98437,-1.66016 -1.54948,-1.60482 -1.54948,-3.98438 0,-10.90169 0.38737,-32.70507 0.44271,-21.85873 0.44271,-32.76042 0,-2.4349 -0.11068,-7.30469 -0.0553,-4.92513 -0.0553,-7.36003 0,-2.43489 1.49414,-4.09505 1.54948,-1.66015 3.98438,-1.66015 1.82617,0 3.26497,0.99609 6.86198,-1.21745 12.3405,-1.77083 5.47851,-0.60873 9.6289,-0.60873 6.36394,0 14.55404,1.82617 11.12305,2.54558 11.12305,6.64063 0,2.21354 -1.43881,3.92904 -1.60481,1.93684 -3.98437,1.93684 z" />
        <path
           inkscape:connector-curvature="0"
           id="path860"
           style="font-style:normal;font-variant:normal;font-weight:normal;font-stretch:normal;font-size:113.33333588px;font-family:'Comic Sans MS';-inkscape-font-specification:'Comic Sans MS';fill:#ffffff"
           d="m 287.48503,363.2746 q -7.41536,8.96484 -11.39974,14.77539 l -6.91732,10.18229 q -4.03971,5.75521 -7.58138,9.68424 l 12.17448,17.81901 q 7.24935,10.56967 12.89388,17.26563 1.49414,1.82617 1.49414,3.81836 0,2.32422 -1.71549,4.03971 -1.66016,1.7155 -3.98438,1.7155 -2.10286,0 -3.92903,-1.7155 -4.09506,-3.87369 -8.52214,-10.51432 l -7.41536,-11.39974 -8.68816,-12.45117 -19.03645,22.02474 -10.1823,11.39974 q -1.82617,1.82617 -4.03971,1.82617 -2.26888,0 -3.98437,-1.7155 -1.7155,-1.71549 -1.7155,-4.03971 0,-1.99219 1.4388,-3.76302 l 9.96094,-11.12305 20.75195,-24.07226 q -6.08724,-8.13477 -12.94922,-16.32487 l -6.41927,-8.68815 q -3.87369,-5.20183 -7.19401,-7.96875 -2.32422,-1.93685 -2.32422,-4.48243 0,-2.26888 1.60482,-4.03971 1.60482,-1.77083 3.98438,-1.77083 4.70377,0 12.00846,10.01627 2.26888,3.37565 6.91732,9.57357 6.30859,7.52604 12.00846,15.10742 l 12.61719,-17.59765 q 12.28516,-17.09961 15.9375,-17.09961 2.26888,0 3.98438,1.71549 1.71549,1.7155 1.71549,4.03971 0,1.93685 -1.49414,3.76303 z" />
        <path
           inkscape:connector-curvature="0"
           id="path862"
           style="font-style:normal;font-variant:normal;font-weight:normal;font-stretch:normal;font-size:113.33333588px;font-family:'Comic Sans MS';-inkscape-font-specification:'Comic Sans MS';fill:#ffffff"
           d="m 383.22071,442.51939 q -2.98828,0 -4.92513,-3.09896 -1.66016,-2.65625 -2.98828,-8.85417 l -1.99219,-9.51823 q -2.26888,-8.85416 -7.19401,-39.06901 l -11.06771,33.36914 -3.26497,10.51433 q -1.99219,6.25325 -4.15039,10.23763 -2.32422,4.20573 -6.25326,4.20573 -3.26497,0 -5.14648,-3.54167 -1.21745,-2.32422 -2.21354,-5.92122 l -1.60482,-6.14258 q -5.58919,-19.53451 -9.85026,-41.83594 l -1.99219,9.9056 -7.13867,29.21875 q -0.44271,5.14648 -2.76693,15.2181 -1.66016,4.31641 -5.47852,4.31641 -2.71158,0 -4.3164,-1.93685 -1.38347,-1.66016 -1.38347,-4.09506 0,-9.24153 3.81836,-22.6888 l 6.08724,-22.30143 3.20964,-17.43164 q 2.4349,-12.22982 5.14648,-15.99284 2.21355,-3.20964 5.47852,-3.20964 3.59701,0 5.36784,4.09506 2.1582,4.92513 4.64844,20.08789 2.93294,18.20638 9.13086,39.40104 8.1901,-21.30534 14.16666,-44.38151 l 1.66016,-8.07943 q 0.99609,-4.86979 2.60091,-7.85807 2.1582,-4.09505 5.92122,-4.09505 4.75912,0 7.24935,9.18619 0.88542,3.1543 2.15821,13.0599 3.26497,25.01302 8.13476,42.72135 l 2.71159,9.51823 q 2.10287,7.63672 2.10287,9.40756 0,2.37955 -1.82618,3.98437 -1.77083,1.60482 -4.03971,1.60482 z" />
      </g>
    </g>
  </g>
</svg>
