<?xml version="1.0" encoding="UTF-8" standalone="no"?>
<!-- Created with Inkscape (http://www.inkscape.org/) -->

<svg
   xmlns:dc="http://purl.org/dc/elements/1.1/"
   xmlns:cc="http://creativecommons.org/ns#"
   xmlns:rdf="http://www.w3.org/1999/02/22-rdf-syntax-ns#"
   xmlns:svg="http://www.w3.org/2000/svg"
   xmlns="http://www.w3.org/2000/svg"
   xmlns:sodipodi="http://sodipodi.sourceforge.net/DTD/sodipodi-0.dtd"
   xmlns:inkscape="http://www.inkscape.org/namespaces/inkscape"
   width="512"
   height="512"
   id="svg2"
   version="1.1"
   inkscape:version="0.92.2 5c3e80d, 2017-08-06"
   sodipodi:docname="video-x-ogm+ogg.svg">
  <defs
     id="defs4" />
  <sodipodi:namedview
     id="base"
     pagecolor="#ffffff"
     bordercolor="#666666"
     borderopacity="1.0"
     inkscape:pageopacity="0.0"
     inkscape:pageshadow="2"
     inkscape:zoom="0.60666666"
     inkscape:cx="615.63797"
     inkscape:cy="300.13666"
     inkscape:document-units="px"
     inkscape:current-layer="layer1"
     showgrid="false"
     inkscape:window-width="1366"
     inkscape:window-height="717"
     inkscape:window-x="0"
     inkscape:window-y="24"
     inkscape:window-maximized="1" />
  <metadata
     id="metadata7">
    <rdf:RDF>
      <cc:Work
         rdf:about="">
        <dc:format>image/svg+xml</dc:format>
        <dc:type
           rdf:resource="http://purl.org/dc/dcmitype/StillImage" />
        <dc:title />
      </cc:Work>
    </rdf:RDF>
  </metadata>
  <g
     inkscape:label="Layer 1"
     inkscape:groupmode="layer"
     id="layer1"
     transform="translate(0,-540.36218)">
    <g
       id="g857">
      <path
         id="path943"
         d="m 432.91327,596.83617 c 102.19291,88.57459 105.82678,249.69971 8.1168,359.89879 C 343.3201,1066.934 181.27965,1084.4628 79.086742,995.88822 -23.106204,907.31363 -26.740034,746.18851 70.969942,635.98943 168.67991,525.79035 330.72037,508.26158 432.91327,596.83617 Z"
         inkscape:connector-curvature="0"
         style="fill:#3689e6;fill-opacity:1;stroke-width:11.10955811" />
      <path
         sodipodi:nodetypes="csscc"
         inkscape:connector-curvature="0"
         id="path945"
         d="m 8.3652423,882.36221 c 11.5841007,43.15173 35.1863057,82.72637 70.7207057,113.5254 102.192912,88.57459 264.233402,71.04669 361.943372,-39.15235 20.35102,-22.95224 36.28955,-48.11807 47.87304,-74.37305 z"
         style="fill:#0d52bf;fill-opacity:1;stroke:none;stroke-width:0.99999994px;stroke-linecap:butt;stroke-linejoin:miter;stroke-opacity:1" />
      <path
         id="path947"
         d="m 511.63551,765.26572 c -1.55139,61.31164 -25.16123,124.1546 -70.96638,175.81447 C 342.95916,1051.2793 180.9187,1068.808 78.725759,980.23349 30.827126,938.71784 4.4968203,881.28504 0.19382824,820.59101 0.79908224,886.94768 27.117406,950.84438 79.078691,995.88126 181.2716,1084.4558 343.31976,1066.9184 441.02202,956.72797 490.72697,900.66986 514.02704,831.437 511.63551,765.26572 Z"
         inkscape:connector-curvature="0"
         style="opacity:1;stroke-width:11.10955811;fill:#000000;fill-opacity:0.49019608" />
      <path
         style="fill:#000000;fill-opacity:0.49019608;stroke-width:0.81360942"
         d="m 152.33136,891.06149 c -4.25253,-1.81874 -10.47546,-8.26887 -11.44254,-11.86031 -0.45338,-1.68368 -1.17633,-3.0613 -1.60656,-3.0613 -0.49683,0 -0.78226,-40.96919 -0.78226,-112.27811 0,-71.30892 0.28543,-112.27814 0.78226,-112.27814 0.43023,0 1.15514,-1.38483 1.6109,-3.07742 1.04285,-3.87281 6.64035,-9.65214 11.30225,-11.66937 3.39424,-1.4687 7.99701,-1.52541 123.80459,-1.52541 115.80758,0 120.41036,0.0566 123.80459,1.52541 4.66191,2.01723 10.25941,7.79656 11.30225,11.66937 0.45576,1.69259 1.18068,3.07742 1.6109,3.07742 0.49683,0 0.78226,40.96922 0.78226,112.27814 0,71.30892 -0.28543,112.27811 -0.78226,112.27811 -0.43022,0 -1.15514,1.38485 -1.6109,3.07742 -1.04284,3.87286 -6.64034,9.65217 -11.30225,11.66935 -3.3967,1.46978 -7.92271,1.523 -124.07545,1.45905 -105.13233,-0.0578 -120.91434,-0.22212 -123.39778,-1.28421 z m 41.50175,-25.91006 c 1.06667,-0.65923 1.08329,-30.23818 0.0173,-30.89695 -1.08253,-0.66905 -25.74569,-0.71291 -26.82199,-0.0478 -1.10375,0.68216 -1.19141,29.89146 -0.093,30.99009 0.83248,0.83264 25.54441,0.79092 26.89763,-0.0454 z m 191.19823,0 c 1.11682,-0.69024 1.07892,-30.24088 -0.0397,-30.93222 -0.4651,-0.28743 -6.49174,-0.52261 -13.39256,-0.52261 -6.9008,0 -12.92745,0.23518 -13.39254,0.52261 -1.08512,0.67066 -1.15386,29.89641 -0.0728,30.97765 0.83248,0.83264 25.54442,0.7909 26.89764,-0.0454 z M 262.57545,849.69759 V 834.239 h -19.93344 -19.93343 l -0.22289,14.61761 c -0.12259,8.03971 -0.04,15.09413 0.18344,15.67651 0.32142,0.83761 4.53347,1.01333 20.15633,0.84095 l 19.74999,-0.21791 z m 66.71598,0 V 834.239 h -19.93344 -19.93343 l -0.22289,14.61761 c -0.12259,8.03971 -0.0401,15.09413 0.18342,15.67651 0.32143,0.83761 4.53348,1.01333 20.15633,0.84095 l 19.75001,-0.21791 z m -66.87898,-52.99816 c 1.43211,-0.73367 2.78689,-1.56094 3.01063,-1.83841 0.22375,-0.27746 1.77978,-1.22494 3.45784,-2.10552 1.67808,-0.88057 3.05103,-1.88392 3.05103,-2.22963 0,-0.34573 0.33494,-0.62861 0.74432,-0.62861 0.40936,0 3.67647,-1.97383 7.26025,-4.38629 3.58378,-2.41248 6.81855,-4.5177 7.18839,-4.67826 0.36983,-0.16057 4.18623,-2.6192 8.48087,-5.46361 14.13226,-9.36004 14.13226,-13.65463 0,-23.01468 -4.29464,-2.84441 -8.17727,-5.35472 -8.62805,-5.57846 -0.45079,-0.22375 -5.59097,-3.56112 -11.42263,-7.41641 -16.07622,-10.62792 -17.71524,-11.2368 -21.26671,-7.90036 l -1.88306,1.76904 v 30.51951 c 0,30.21532 0.0176,30.53829 1.76904,32.40257 2.08455,2.2189 4.6455,2.3896 8.23808,0.54912 z M 193.7982,693.50137 c 1.11696,-0.69034 1.14735,-30.24175 0.0318,-30.93121 -1.05563,-0.65242 -25.80261,-0.65242 -26.85823,0 -1.0512,0.64969 -1.08553,29.90557 -0.0364,30.95504 0.84623,0.84645 25.48998,0.82459 26.86276,-0.0238 z m 68.09264,0.0462 c 0.91659,-0.35173 1.08604,-3.28928 0.90603,-15.70644 l -0.22142,-15.27381 h -19.93344 -19.93343 l -0.22212,14.94586 c -0.1259,8.47012 0.10845,15.34426 0.54087,15.86538 0.77683,0.93619 36.45987,1.09137 38.86351,0.16901 z m 67.40059,-15.52166 v -15.45859 h -19.93344 -19.93343 v 15.42191 c 0,15.39433 0.004,15.42268 1.86033,15.86539 1.02318,0.24391 9.99322,0.26042 19.93342,0.0367 l 18.07312,-0.40681 z m 55.70499,15.47542 c 1.11695,-0.69031 1.14735,-30.24175 0.0318,-30.93119 -1.05562,-0.65241 -25.80259,-0.65241 -26.85822,0 -1.0512,0.64967 -1.08553,29.90555 -0.0363,30.95503 0.84623,0.84645 25.48997,0.82459 26.86275,-0.0239 z"
         id="path843"
         inkscape:connector-curvature="0" />
      <path
         inkscape:connector-curvature="0"
         id="path857"
         d="m 132.33136,871.06149 c -4.25253,-1.81874 -10.47546,-8.26887 -11.44254,-11.86031 -0.45338,-1.68368 -1.17633,-3.0613 -1.60656,-3.0613 -0.49683,0 -0.78226,-40.96919 -0.78226,-112.27811 0,-71.30892 0.28543,-112.27814 0.78226,-112.27814 0.43023,0 1.15514,-1.38483 1.6109,-3.07742 1.04285,-3.87281 6.64035,-9.65214 11.30225,-11.66937 3.39424,-1.4687 7.99701,-1.52541 123.80459,-1.52541 115.80758,0 120.41036,0.0566 123.80459,1.52541 4.66191,2.01723 10.25941,7.79656 11.30225,11.66937 0.45576,1.69259 1.18068,3.07742 1.6109,3.07742 0.49683,0 0.78226,40.96922 0.78226,112.27814 0,71.30892 -0.28543,112.27811 -0.78226,112.27811 -0.43022,0 -1.15514,1.38485 -1.6109,3.07742 -1.04284,3.87286 -6.64034,9.65217 -11.30225,11.66935 -3.3967,1.46978 -7.92271,1.523 -124.07545,1.45905 -105.13233,-0.0578 -120.91434,-0.22212 -123.39778,-1.28421 z m 41.50175,-25.91006 c 1.06667,-0.65923 1.08329,-30.23818 0.0173,-30.89695 -1.08253,-0.66905 -25.74569,-0.71291 -26.82199,-0.0478 -1.10375,0.68216 -1.19141,29.89146 -0.093,30.99009 0.83248,0.83264 25.54441,0.79092 26.89763,-0.0454 z m 191.19823,0 c 1.11682,-0.69024 1.07892,-30.24088 -0.0397,-30.93222 -0.4651,-0.28743 -6.49174,-0.52261 -13.39256,-0.52261 -6.9008,0 -12.92745,0.23518 -13.39254,0.52261 -1.08512,0.67066 -1.15386,29.89641 -0.0728,30.97765 0.83248,0.83264 25.54442,0.7909 26.89764,-0.0454 z M 242.57545,829.69759 V 814.239 h -19.93344 -19.93343 l -0.22289,14.61761 c -0.12259,8.03971 -0.04,15.09413 0.18344,15.67651 0.32142,0.83761 4.53347,1.01333 20.15633,0.84095 l 19.74999,-0.21791 z m 66.71598,0 V 814.239 h -19.93344 -19.93343 l -0.22289,14.61761 c -0.12259,8.03971 -0.0401,15.09413 0.18342,15.67651 0.32143,0.83761 4.53348,1.01333 20.15633,0.84095 l 19.75001,-0.21791 z m -66.87898,-52.99816 c 1.43211,-0.73367 2.78689,-1.56094 3.01063,-1.83841 0.22375,-0.27746 1.77978,-1.22494 3.45784,-2.10552 1.67808,-0.88057 3.05103,-1.88392 3.05103,-2.22963 0,-0.34573 0.33494,-0.62861 0.74432,-0.62861 0.40936,0 3.67647,-1.97383 7.26025,-4.38629 3.58378,-2.41248 6.81855,-4.5177 7.18839,-4.67826 0.36983,-0.16057 4.18623,-2.6192 8.48087,-5.46361 14.13226,-9.36004 14.13226,-13.65463 0,-23.01468 -4.29464,-2.84441 -8.17727,-5.35472 -8.62805,-5.57846 -0.45079,-0.22375 -5.59097,-3.56112 -11.42263,-7.41641 -16.07622,-10.62792 -17.71524,-11.2368 -21.26671,-7.90036 l -1.88306,1.76904 v 30.51951 c 0,30.21532 0.0176,30.53829 1.76904,32.40257 2.08455,2.2189 4.6455,2.3896 8.23808,0.54912 z M 173.7982,673.50137 c 1.11696,-0.69034 1.14735,-30.24175 0.0318,-30.93121 -1.05563,-0.65242 -25.80261,-0.65242 -26.85823,0 -1.0512,0.64969 -1.08553,29.90557 -0.0364,30.95504 0.84623,0.84645 25.48998,0.82459 26.86276,-0.0238 z m 68.09264,0.0462 c 0.91659,-0.35173 1.08604,-3.28928 0.90603,-15.70644 l -0.22142,-15.27381 h -19.93344 -19.93343 l -0.22212,14.94586 c -0.1259,8.47012 0.10845,15.34426 0.54087,15.86538 0.77683,0.93619 36.45987,1.09137 38.86351,0.16901 z m 67.40059,-15.52166 v -15.45859 h -19.93344 -19.93343 v 15.42191 c 0,15.39433 0.004,15.42268 1.86033,15.86539 1.02318,0.24391 9.99322,0.26042 19.93342,0.0367 l 18.07312,-0.40681 z m 55.70499,15.47542 c 1.11695,-0.69031 1.14735,-30.24175 0.0318,-30.93119 -1.05562,-0.65241 -25.80259,-0.65241 -26.85822,0 -1.0512,0.64967 -1.08553,29.90555 -0.0363,30.95503 0.84623,0.84645 25.48997,0.82459 26.86275,-0.0239 z"
         style="fill:#ffffff;stroke-width:0.81360942" />
      <path
         inkscape:connector-curvature="0"
         id="path867"
         style="font-style:normal;font-variant:normal;font-weight:normal;font-stretch:normal;font-size:113.33333588px;line-height:1.25;font-family:'Comic Sans MS';-inkscape-font-specification:'Comic Sans MS';letter-spacing:0px;word-spacing:0px;fill:#000000;fill-opacity:0.49019608;stroke:none"
         d="m 185.96224,1006.1447 q -15.60547,0 -26.45182,-9.35218 Q 148,986.83158 148,971.11544 q 0,-19.14714 11.3444,-34.80795 12.67253,-17.3763 31.59831,-17.3763 18.20638,0 27.06055,8.19011 9.24154,8.52213 9.24154,26.89453 0,19.14713 -10.40365,34.53125 -11.95313,17.59762 -30.87891,17.59762 z m 4.98047,-75.86911 q -13.55794,0 -22.96549,13.50261 -8.68816,12.39583 -8.68816,27.33724 0,10.68034 7.91342,17.3763 7.58138,6.30859 18.75976,6.30859 13.44727,0 22.19076,-13.55794 7.80273,-12.11914 7.80273,-27.22656 0,-13.22591 -5.92122,-18.59375 -5.64453,-5.14649 -19.0918,-5.14649 z" />
      <path
         inkscape:connector-curvature="0"
         id="path869"
         style="font-style:normal;font-variant:normal;font-weight:normal;font-stretch:normal;font-size:113.33333588px;line-height:1.25;font-family:'Comic Sans MS';-inkscape-font-specification:'Comic Sans MS';letter-spacing:0px;word-spacing:0px;fill:#000000;fill-opacity:0.49019608;stroke:none"
         d="m 304.0547,969.28927 q -3.43099,16.98893 -14.44336,27.17122 -10.95704,10.12691 -25.89844,10.12691 -13.61328,0 -20.41992,-7.58134 -6.80665,-7.63672 -6.80665,-22.85482 0,-14.33268 6.75131,-29.49544 6.80664,-15.2181 17.43164,-24.57031 7.08333,-6.25326 14.99674,-6.25326 5.03581,0 13.28125,3.32032 10.07162,3.98437 10.07162,8.79882 0,2.26888 -1.66016,4.03972 -1.66015,1.77083 -3.98437,1.77083 -1.21745,0 -3.43099,-1.38346 -8.4668,-5.14649 -14.27735,-5.14649 -4.15039,0 -8.68815,4.31641 -2.26888,2.1582 -6.52995,7.85807 -12.7832,16.9336 -12.7832,36.74479 0,10.40365 3.20964,14.55404 3.48632,4.53776 12.83854,4.53776 9.9056,0 17.21028,-6.25325 7.69206,-6.64063 10.73568,-18.98112 -15.32877,0.77474 -26.28581,5.92122 -1.27278,0.60872 -2.49023,0.60872 -2.4349,0 -4.03971,-1.88151 -1.49414,-1.71549 -1.49414,-3.98437 0,-3.04362 2.93294,-4.86979 11.95312,-7.30469 41.22721,-7.30469 2.37956,0 3.98438,1.60482 1.60482,1.60482 1.60482,4.03971 0,3.59701 -3.04362,5.14649 z" />
      <path
         id="path871"
         transform="translate(0,540.36218)"
         d="M 382.58008 377.51758 C 380.0714 377.51758 378.09701 378.88325 376.6582 381.61328 C 375.58832 383.60547 374.72265 386.22418 374.05859 389.4707 L 372.39844 397.55078 C 368.41406 412.93489 363.69054 427.72808 358.23047 441.93164 C 354.09852 427.80187 351.0549 414.66884 349.09961 402.53125 C 347.43945 392.42274 345.88997 385.72678 344.45117 382.44336 C 343.27062 379.71333 341.48199 378.34766 339.08398 378.34766 C 336.90734 378.34766 335.08116 379.41689 333.60547 381.55664 C 331.79774 384.06532 330.08225 389.39757 328.45898 397.55078 L 325.25 414.98242 L 319.16211 437.2832 C 316.61654 446.24804 315.34375 453.81162 315.34375 459.97266 C 315.34375 461.59592 315.80426 462.95967 316.72656 464.06641 C 317.79644 465.35767 319.23524 466.00391 321.04297 466.00391 C 323.58854 466.00391 325.41472 464.5651 326.52148 461.6875 C 328.07096 454.97308 328.99392 449.89974 329.28906 446.46875 L 336.42773 417.25 L 338.41992 407.3457 C 341.26064 422.21333 344.5434 436.15864 348.26953 449.18164 L 349.875 455.32422 C 350.53906 457.72223 351.27626 459.69465 352.08789 461.24414 C 353.34223 463.60521 355.05773 464.78711 357.23438 464.78711 C 359.85373 464.78711 361.9388 463.38388 363.48828 460.58008 C 364.92708 457.92384 366.31055 454.51259 367.63867 450.34375 L 370.9043 439.82812 L 381.9707 406.45898 C 385.25412 426.60221 387.65343 439.62652 389.16602 445.5293 L 391.1582 455.04688 C 391.57766 457.00436 392.02305 458.67595 392.49219 460.10352 C 396.0096 457.58984 399.48431 454.98928 402.91211 452.29688 C 402.88299 452.19059 402.86374 452.11196 402.83398 452.00391 L 400.12305 442.48438 C 396.87652 430.67882 394.16493 416.43902 391.98828 399.76367 C 391.13975 393.15994 390.42035 388.80599 389.83008 386.70312 C 388.16992 380.57899 385.75282 377.51758 382.58008 377.51758 z "
         style="font-style:normal;font-variant:normal;font-weight:normal;font-stretch:normal;font-size:113.33333588px;line-height:1.25;font-family:'Comic Sans MS';-inkscape-font-specification:'Comic Sans MS';letter-spacing:0px;word-spacing:0px;fill:#000000;fill-opacity:0.49019608;stroke:none" />
      <g
         id="flowRoot852"
         style="font-style:normal;font-weight:normal;font-size:40px;line-height:1.25;font-family:sans-serif;letter-spacing:0px;word-spacing:0px;fill:#ffffff;fill-opacity:1;stroke:none"
         transform="translate(9.49284,525.19045)"
         aria-label="OGM">
        <path
           inkscape:connector-curvature="0"
           id="path860"
           style="font-style:normal;font-variant:normal;font-weight:normal;font-stretch:normal;font-size:113.33333588px;font-family:'Comic Sans MS';-inkscape-font-specification:'Comic Sans MS';fill:#ffffff"
           d="m 156.4694,460.95429 q -15.60547,0 -26.45182,-9.35222 -11.51042,-9.96094 -11.51042,-25.67708 0,-19.14714 11.3444,-34.80795 12.67253,-17.3763 31.59831,-17.3763 18.20638,0 27.06055,8.19011 9.24154,8.52213 9.24154,26.89453 0,19.14713 -10.40365,34.53125 -11.95313,17.59766 -30.87891,17.59766 z m 4.98047,-75.86915 q -13.55794,0 -22.96549,13.50261 -8.68816,12.39583 -8.68816,27.33724 0,10.68034 7.91342,17.3763 7.58138,6.30859 18.75976,6.30859 13.44727,0 22.19076,-13.55794 7.80273,-12.11914 7.80273,-27.22656 0,-13.22591 -5.92122,-18.59375 -5.64453,-5.14649 -19.0918,-5.14649 z" />
        <path
           inkscape:connector-curvature="0"
           id="path862"
           style="font-style:normal;font-variant:normal;font-weight:normal;font-stretch:normal;font-size:113.33333588px;font-family:'Comic Sans MS';-inkscape-font-specification:'Comic Sans MS';fill:#ffffff"
           d="m 274.56186,424.09882 q -3.43099,16.98893 -14.44336,27.17122 -10.95704,10.12695 -25.89844,10.12695 -13.61328,0 -20.41992,-7.58138 -6.80665,-7.63672 -6.80665,-22.85482 0,-14.33268 6.75131,-29.49544 6.80664,-15.2181 17.43164,-24.57031 7.08333,-6.25326 14.99674,-6.25326 5.03581,0 13.28125,3.32032 10.07162,3.98437 10.07162,8.79882 0,2.26888 -1.66016,4.03972 -1.66015,1.77083 -3.98437,1.77083 -1.21745,0 -3.43099,-1.38346 -8.4668,-5.14649 -14.27735,-5.14649 -4.15039,0 -8.68815,4.31641 -2.26888,2.1582 -6.52995,7.85807 -12.7832,16.9336 -12.7832,36.74479 0,10.40365 3.20964,14.55404 3.48632,4.53776 12.83854,4.53776 9.9056,0 17.21028,-6.25325 7.69206,-6.64063 10.73568,-18.98112 -15.32877,0.77474 -26.28581,5.92122 -1.27278,0.60872 -2.49023,0.60872 -2.4349,0 -4.03971,-1.88151 -1.49414,-1.71549 -1.49414,-3.98437 0,-3.04362 2.93294,-4.86979 11.95312,-7.30469 41.22721,-7.30469 2.37956,0 3.98438,1.60482 1.60482,1.60482 1.60482,4.03971 0,3.59701 -3.04362,5.14649 z" />
        <path
           inkscape:connector-curvature="0"
           id="path864"
           style="font-style:normal;font-variant:normal;font-weight:normal;font-stretch:normal;font-size:113.33333588px;font-family:'Comic Sans MS';-inkscape-font-specification:'Comic Sans MS';fill:#ffffff"
           d="m 369.57813,462.17173 q -2.98828,0 -4.92513,-3.09896 -1.66015,-2.65625 -2.98828,-8.85416 l -1.99219,-9.51823 q -2.26888,-8.85417 -7.19401,-39.06901 l -11.06771,33.36914 -3.26497,10.51432 q -1.99219,6.25326 -4.15039,10.23763 -2.32422,4.20573 -6.25326,4.20573 -3.26497,0 -5.14648,-3.54167 -1.21745,-2.32421 -2.21354,-5.92122 l -1.60482,-6.14258 q -5.58919,-19.5345 -9.85026,-41.83594 l -1.99219,9.9056 -7.13867,29.21875 q -0.44271,5.14649 -2.76693,15.2181 -1.66015,4.31641 -5.47851,4.31641 -2.71159,0 -4.31641,-1.93685 -1.38346,-1.66016 -1.38346,-4.09505 0,-9.24154 3.81836,-22.6888 l 6.08724,-22.30144 3.20963,-17.43164 q 2.4349,-12.22982 5.14649,-15.99284 2.21354,-3.20963 5.47851,-3.20963 3.59701,0 5.36784,4.09505 2.1582,4.92513 4.64844,20.08789 2.93294,18.20638 9.13086,39.40104 8.1901,-21.30534 14.16666,-44.38151 l 1.66016,-8.07943 q 0.99609,-4.86979 2.60091,-7.85807 2.15821,-4.09505 5.92123,-4.09505 4.75911,0 7.24935,9.1862 0.88541,3.15429 2.1582,13.05989 3.26497,25.01302 8.13476,42.72136 l 2.71159,9.51823 q 2.10287,7.63672 2.10287,9.40755 0,2.37956 -1.82617,3.98438 -1.77084,1.60481 -4.03972,1.60481 z" />
      </g>
    </g>
  </g>
</svg>
