<?xml version="1.0" encoding="UTF-8" standalone="no"?>
<!-- Created with Inkscape (http://www.inkscape.org/) -->

<svg
   xmlns:dc="http://purl.org/dc/elements/1.1/"
   xmlns:cc="http://creativecommons.org/ns#"
   xmlns:rdf="http://www.w3.org/1999/02/22-rdf-syntax-ns#"
   xmlns:svg="http://www.w3.org/2000/svg"
   xmlns="http://www.w3.org/2000/svg"
   xmlns:sodipodi="http://sodipodi.sourceforge.net/DTD/sodipodi-0.dtd"
   xmlns:inkscape="http://www.inkscape.org/namespaces/inkscape"
   width="512"
   height="512"
   id="svg2"
   version="1.1"
   inkscape:version="0.92.2 5c3e80d, 2017-08-06"
   sodipodi:docname="video-x-anim.svg">
  <defs
     id="defs4" />
  <sodipodi:namedview
     id="base"
     pagecolor="#ffffff"
     bordercolor="#666666"
     borderopacity="1.0"
     inkscape:pageopacity="0.0"
     inkscape:pageshadow="2"
     inkscape:zoom="0.60666666"
     inkscape:cx="209.8689"
     inkscape:cy="196.80792"
     inkscape:document-units="px"
     inkscape:current-layer="layer1"
     showgrid="false"
     inkscape:window-width="1366"
     inkscape:window-height="717"
     inkscape:window-x="0"
     inkscape:window-y="24"
     inkscape:window-maximized="1" />
  <metadata
     id="metadata7">
    <rdf:RDF>
      <cc:Work
         rdf:about="">
        <dc:format>image/svg+xml</dc:format>
        <dc:type
           rdf:resource="http://purl.org/dc/dcmitype/StillImage" />
        <dc:title />
      </cc:Work>
    </rdf:RDF>
  </metadata>
  <g
     inkscape:label="Layer 1"
     inkscape:groupmode="layer"
     id="layer1"
     transform="translate(0,-540.36218)">
    <g
       id="g864">
      <path
         id="path943"
         d="m 432.91327,596.83617 c 102.19291,88.57459 105.82678,249.69971 8.1168,359.89879 C 343.3201,1066.934 181.27965,1084.4628 79.086742,995.88822 -23.106204,907.31363 -26.740034,746.18851 70.969942,635.98943 168.67991,525.79035 330.72037,508.26158 432.91327,596.83617 Z"
         inkscape:connector-curvature="0"
         style="fill:#3689e6;fill-opacity:1;stroke-width:11.10955811" />
      <path
         sodipodi:nodetypes="csscc"
         inkscape:connector-curvature="0"
         id="path945"
         d="m 8.3652423,882.36221 c 11.5841007,43.15173 35.1863057,82.72637 70.7207057,113.5254 102.192912,88.57459 264.233402,71.04669 361.943372,-39.15235 20.35102,-22.95224 36.28955,-48.11807 47.87304,-74.37305 z"
         style="fill:#0d52bf;fill-opacity:1;stroke:none;stroke-width:0.99999994px;stroke-linecap:butt;stroke-linejoin:miter;stroke-opacity:1" />
      <path
         id="path947"
         d="m 511.63551,765.26572 c -1.55139,61.31164 -25.16123,124.1546 -70.96638,175.81447 C 342.95916,1051.2793 180.9187,1068.808 78.725759,980.23349 30.827126,938.71784 4.4968203,881.28504 0.19382824,820.59101 0.79908224,886.94768 27.117406,950.84438 79.078691,995.88126 181.2716,1084.4558 343.31976,1066.9184 441.02202,956.72797 490.72697,900.66986 514.02704,831.437 511.63551,765.26572 Z"
         inkscape:connector-curvature="0"
         style="opacity:1;stroke-width:11.10955811;fill:#000000;fill-opacity:0.49019608" />
      <path
         style="fill:#000000;fill-opacity:0.49019608;stroke-width:0.81360942"
         d="m 152.33136,891.06149 c -4.25253,-1.81874 -10.47546,-8.26887 -11.44254,-11.86031 -0.45338,-1.68368 -1.17633,-3.0613 -1.60656,-3.0613 -0.49683,0 -0.78226,-40.96919 -0.78226,-112.27811 0,-71.30892 0.28543,-112.27814 0.78226,-112.27814 0.43023,0 1.15514,-1.38483 1.6109,-3.07742 1.04285,-3.87281 6.64035,-9.65214 11.30225,-11.66937 3.39424,-1.4687 7.99701,-1.52541 123.80459,-1.52541 115.80758,0 120.41036,0.0566 123.80459,1.52541 4.66191,2.01723 10.25941,7.79656 11.30225,11.66937 0.45576,1.69259 1.18068,3.07742 1.6109,3.07742 0.49683,0 0.78226,40.96922 0.78226,112.27814 0,71.30892 -0.28543,112.27811 -0.78226,112.27811 -0.43022,0 -1.15514,1.38485 -1.6109,3.07742 -1.04284,3.87286 -6.64034,9.65217 -11.30225,11.66935 -3.3967,1.46978 -7.92271,1.523 -124.07545,1.45905 -105.13233,-0.0578 -120.91434,-0.22212 -123.39778,-1.28421 z m 41.50175,-25.91006 c 1.06667,-0.65923 1.08329,-30.23818 0.0173,-30.89695 -1.08253,-0.66905 -25.74569,-0.71291 -26.82199,-0.0478 -1.10375,0.68216 -1.19141,29.89146 -0.093,30.99009 0.83248,0.83264 25.54441,0.79092 26.89763,-0.0454 z m 191.19823,0 c 1.11682,-0.69024 1.07892,-30.24088 -0.0397,-30.93222 -0.4651,-0.28743 -6.49174,-0.52261 -13.39256,-0.52261 -6.9008,0 -12.92745,0.23518 -13.39254,0.52261 -1.08512,0.67066 -1.15386,29.89641 -0.0728,30.97765 0.83248,0.83264 25.54442,0.7909 26.89764,-0.0454 z M 262.57545,849.69759 V 834.239 h -19.93344 -19.93343 l -0.22289,14.61761 c -0.12259,8.03971 -0.04,15.09413 0.18344,15.67651 0.32142,0.83761 4.53347,1.01333 20.15633,0.84095 l 19.74999,-0.21791 z m 66.71598,0 V 834.239 h -19.93344 -19.93343 l -0.22289,14.61761 c -0.12259,8.03971 -0.0401,15.09413 0.18342,15.67651 0.32143,0.83761 4.53348,1.01333 20.15633,0.84095 l 19.75001,-0.21791 z m -66.87898,-52.99816 c 1.43211,-0.73367 2.78689,-1.56094 3.01063,-1.83841 0.22375,-0.27746 1.77978,-1.22494 3.45784,-2.10552 1.67808,-0.88057 3.05103,-1.88392 3.05103,-2.22963 0,-0.34573 0.33494,-0.62861 0.74432,-0.62861 0.40936,0 3.67647,-1.97383 7.26025,-4.38629 3.58378,-2.41248 6.81855,-4.5177 7.18839,-4.67826 0.36983,-0.16057 4.18623,-2.6192 8.48087,-5.46361 14.13226,-9.36004 14.13226,-13.65463 0,-23.01468 -4.29464,-2.84441 -8.17727,-5.35472 -8.62805,-5.57846 -0.45079,-0.22375 -5.59097,-3.56112 -11.42263,-7.41641 -16.07622,-10.62792 -17.71524,-11.2368 -21.26671,-7.90036 l -1.88306,1.76904 v 30.51951 c 0,30.21532 0.0176,30.53829 1.76904,32.40257 2.08455,2.2189 4.6455,2.3896 8.23808,0.54912 z M 193.7982,693.50137 c 1.11696,-0.69034 1.14735,-30.24175 0.0318,-30.93121 -1.05563,-0.65242 -25.80261,-0.65242 -26.85823,0 -1.0512,0.64969 -1.08553,29.90557 -0.0364,30.95504 0.84623,0.84645 25.48998,0.82459 26.86276,-0.0238 z m 68.09264,0.0462 c 0.91659,-0.35173 1.08604,-3.28928 0.90603,-15.70644 l -0.22142,-15.27381 h -19.93344 -19.93343 l -0.22212,14.94586 c -0.1259,8.47012 0.10845,15.34426 0.54087,15.86538 0.77683,0.93619 36.45987,1.09137 38.86351,0.16901 z m 67.40059,-15.52166 v -15.45859 h -19.93344 -19.93343 v 15.42191 c 0,15.39433 0.004,15.42268 1.86033,15.86539 1.02318,0.24391 9.99322,0.26042 19.93342,0.0367 l 18.07312,-0.40681 z m 55.70499,15.47542 c 1.11695,-0.69031 1.14735,-30.24175 0.0318,-30.93119 -1.05562,-0.65241 -25.80259,-0.65241 -26.85822,0 -1.0512,0.64967 -1.08553,29.90555 -0.0363,30.95503 0.84623,0.84645 25.48997,0.82459 26.86275,-0.0239 z"
         id="path843"
         inkscape:connector-curvature="0" />
      <path
         inkscape:connector-curvature="0"
         id="path857"
         d="m 132.33136,871.06149 c -4.25253,-1.81874 -10.47546,-8.26887 -11.44254,-11.86031 -0.45338,-1.68368 -1.17633,-3.0613 -1.60656,-3.0613 -0.49683,0 -0.78226,-40.96919 -0.78226,-112.27811 0,-71.30892 0.28543,-112.27814 0.78226,-112.27814 0.43023,0 1.15514,-1.38483 1.6109,-3.07742 1.04285,-3.87281 6.64035,-9.65214 11.30225,-11.66937 3.39424,-1.4687 7.99701,-1.52541 123.80459,-1.52541 115.80758,0 120.41036,0.0566 123.80459,1.52541 4.66191,2.01723 10.25941,7.79656 11.30225,11.66937 0.45576,1.69259 1.18068,3.07742 1.6109,3.07742 0.49683,0 0.78226,40.96922 0.78226,112.27814 0,71.30892 -0.28543,112.27811 -0.78226,112.27811 -0.43022,0 -1.15514,1.38485 -1.6109,3.07742 -1.04284,3.87286 -6.64034,9.65217 -11.30225,11.66935 -3.3967,1.46978 -7.92271,1.523 -124.07545,1.45905 -105.13233,-0.0578 -120.91434,-0.22212 -123.39778,-1.28421 z m 41.50175,-25.91006 c 1.06667,-0.65923 1.08329,-30.23818 0.0173,-30.89695 -1.08253,-0.66905 -25.74569,-0.71291 -26.82199,-0.0478 -1.10375,0.68216 -1.19141,29.89146 -0.093,30.99009 0.83248,0.83264 25.54441,0.79092 26.89763,-0.0454 z m 191.19823,0 c 1.11682,-0.69024 1.07892,-30.24088 -0.0397,-30.93222 -0.4651,-0.28743 -6.49174,-0.52261 -13.39256,-0.52261 -6.9008,0 -12.92745,0.23518 -13.39254,0.52261 -1.08512,0.67066 -1.15386,29.89641 -0.0728,30.97765 0.83248,0.83264 25.54442,0.7909 26.89764,-0.0454 z M 242.57545,829.69759 V 814.239 h -19.93344 -19.93343 l -0.22289,14.61761 c -0.12259,8.03971 -0.04,15.09413 0.18344,15.67651 0.32142,0.83761 4.53347,1.01333 20.15633,0.84095 l 19.74999,-0.21791 z m 66.71598,0 V 814.239 h -19.93344 -19.93343 l -0.22289,14.61761 c -0.12259,8.03971 -0.0401,15.09413 0.18342,15.67651 0.32143,0.83761 4.53348,1.01333 20.15633,0.84095 l 19.75001,-0.21791 z m -66.87898,-52.99816 c 1.43211,-0.73367 2.78689,-1.56094 3.01063,-1.83841 0.22375,-0.27746 1.77978,-1.22494 3.45784,-2.10552 1.67808,-0.88057 3.05103,-1.88392 3.05103,-2.22963 0,-0.34573 0.33494,-0.62861 0.74432,-0.62861 0.40936,0 3.67647,-1.97383 7.26025,-4.38629 3.58378,-2.41248 6.81855,-4.5177 7.18839,-4.67826 0.36983,-0.16057 4.18623,-2.6192 8.48087,-5.46361 14.13226,-9.36004 14.13226,-13.65463 0,-23.01468 -4.29464,-2.84441 -8.17727,-5.35472 -8.62805,-5.57846 -0.45079,-0.22375 -5.59097,-3.56112 -11.42263,-7.41641 -16.07622,-10.62792 -17.71524,-11.2368 -21.26671,-7.90036 l -1.88306,1.76904 v 30.51951 c 0,30.21532 0.0176,30.53829 1.76904,32.40257 2.08455,2.2189 4.6455,2.3896 8.23808,0.54912 z M 173.7982,673.50137 c 1.11696,-0.69034 1.14735,-30.24175 0.0318,-30.93121 -1.05563,-0.65242 -25.80261,-0.65242 -26.85823,0 -1.0512,0.64969 -1.08553,29.90557 -0.0364,30.95504 0.84623,0.84645 25.48998,0.82459 26.86276,-0.0238 z m 68.09264,0.0462 c 0.91659,-0.35173 1.08604,-3.28928 0.90603,-15.70644 l -0.22142,-15.27381 h -19.93344 -19.93343 l -0.22212,14.94586 c -0.1259,8.47012 0.10845,15.34426 0.54087,15.86538 0.77683,0.93619 36.45987,1.09137 38.86351,0.16901 z m 67.40059,-15.52166 v -15.45859 h -19.93344 -19.93343 v 15.42191 c 0,15.39433 0.004,15.42268 1.86033,15.86539 1.02318,0.24391 9.99322,0.26042 19.93342,0.0367 l 18.07312,-0.40681 z m 55.70499,15.47542 c 1.11695,-0.69031 1.14735,-30.24175 0.0318,-30.93119 -1.05562,-0.65241 -25.80259,-0.65241 -26.85822,0 -1.0512,0.64967 -1.08553,29.90555 -0.0363,30.95503 0.84623,0.84645 25.48997,0.82459 26.86275,-0.0239 z"
         style="fill:#ffffff;stroke-width:0.81360942" />
      <path
         inkscape:connector-curvature="0"
         id="path867"
         style="font-style:normal;font-variant:normal;font-weight:normal;font-stretch:normal;font-size:113.33333588px;line-height:1.25;font-family:'Comic Sans MS';-inkscape-font-specification:'Comic Sans MS';letter-spacing:0px;word-spacing:0px;fill:#000000;fill-opacity:0.49019608;stroke:none;stroke-width:0.90837997"
         d="m 164.86337,1004.698 q -4.6247,0 -8.04295,-11.86339 -1.30698,-4.52416 -3.26745,-15.83456 -5.12737,0.70376 -13.42166,2.51343 l -13.37141,2.76476 q -2.51342,6.58516 -8.5959,19.25276 -1.60859,2.8151 -4.37335,2.8151 -2.01074,0 -3.61933,-1.4578 -1.55832,-1.4578 -1.55832,-3.61933 0,-2.41288 7.59053,-18.34798 -0.85456,-1.30698 -0.85456,-3.01611 0,-4.07174 4.9263,-5.22791 5.73061,-10.75744 14.47731,-24.73207 11.91362,-19.05173 14.82918,-19.05173 3.97121,0 5.429,5.52952 l 3.1669,16.8902 7.49001,34.93655 2.86529,7.94241 q 1.45779,4.07174 1.45779,5.42899 0,2.16156 -1.55832,3.61936 -1.55833,1.4578 -3.56906,1.4578 z m -17.74476,-57.45686 -14.37677,23.17375 q 6.08248,-1.55832 18.44852,-3.77013 z" />
      <path
         inkscape:connector-curvature="0"
         id="path869"
         style="font-style:normal;font-variant:normal;font-weight:normal;font-stretch:normal;font-size:113.33333588px;line-height:1.25;font-family:'Comic Sans MS';-inkscape-font-specification:'Comic Sans MS';letter-spacing:0px;word-spacing:0px;fill:#000000;fill-opacity:0.49019608;stroke:none;stroke-width:0.90837997"
         d="m 254.89412,992.03032 q 0,2.41288 -0.8043,8.04298 -0.8043,5.0771 -5.37872,5.0771 -2.76476,0 -6.58516,-3.6194 -20.45925,-19.3533 -46.95071,-55.84817 l -0.25134,11.41093 -0.15081,11.4612 q 0,4.17227 0.15081,12.51683 0.20107,8.34456 0.20107,12.56711 0,13.5222 -5.22792,13.5222 -2.76476,0 -4.37335,-1.7594 -1.45779,-1.5583 -1.45779,-3.7198 0,-2.11132 0.30161,-6.38414 0.35188,-4.27282 0.35188,-6.38409 0,-3.11664 0.20108,-9.29966 0.20107,-6.23328 0.20107,-9.34992 0,-3.31772 -0.1508,-10.00342 -0.15081,-6.73597 -0.15081,-10.05368 0,-3.16692 -0.60322,-9.4002 -0.60323,-6.28356 -0.60323,-9.45047 0,-2.31234 1.96048,-4.22254 2.01073,-1.91021 4.52416,-1.91021 2.66422,0 6.58516,5.83114 12.51683,18.75013 22.52025,31.16643 11.91362,14.72864 26.13959,28.15031 0.1508,-2.16153 0,-6.38408 l -0.15081,-6.33383 q 0,-22.06784 -1.70913,-35.13763 -0.20108,-1.30697 -1.35724,-5.27818 -1.00537,-3.41826 -1.00537,-5.32845 0,-5.83114 5.32845,-5.83114 8.74671,0 8.74671,32.62421 0,5.57979 -0.15081,16.68912 -0.1508,11.05905 -0.1508,16.63885 z" />
      <path
         inkscape:connector-curvature="0"
         id="path871"
         style="font-style:normal;font-variant:normal;font-weight:normal;font-stretch:normal;font-size:113.33333588px;line-height:1.25;font-family:'Comic Sans MS';-inkscape-font-specification:'Comic Sans MS';letter-spacing:0px;word-spacing:0px;fill:#000000;fill-opacity:0.49019608;stroke:none;stroke-width:0.90837997"
         d="m 307.57542,940.55545 q -3.21718,0 -8.09322,-0.65349 l -8.09321,-1.05564 q -1.15618,14.62811 -1.15618,27.94925 0,3.51878 0.20108,8.69643 0.20107,5.17764 0.20107,8.69644 0,4.72523 -0.35188,8.5959 l 15.83456,-0.20107 q 2.11127,0 3.51879,1.50805 1.45779,1.45778 1.45779,3.61932 0,2.21182 -1.45779,3.71986 -1.40752,1.4578 -3.51879,1.4578 -2.81504,0 -8.44509,0.1508 -5.63007,0.1005 -8.4451,0.1005 -3.31772,0 -9.95315,0.9049 -6.58516,0.9551 -9.95315,0.9551 -2.11127,0 -3.56906,-1.5081 -1.40751,-1.4578 -1.40751,-3.61931 0,-2.16155 1.40751,-3.6696 1.45779,-1.50805 3.56906,-1.50805 3.26745,0 10.80771,-1.05564 0.50269,-4.07174 0.50269,-9.29965 0,-3.46853 -0.35188,-8.4451 -0.30161,-5.02684 -0.30161,-8.4451 0,-11.61201 1.40752,-29.00488 l -6.5349,0.20107 -6.53489,0.15081 q -2.16155,0 -3.61934,-1.45778 -1.45778,-1.45779 -1.45778,-3.71987 0,-4.67496 4.72524,-5.12737 4.07174,-0.40215 15.23133,-0.40215 10.00342,0 25.08394,2.16154 4.47389,0.65349 4.47389,5.37872 0,2.36261 -1.70912,3.77013 -1.50806,1.15618 -3.46853,1.15618 z" />
      <path
         id="path873"
         transform="translate(0,540.36218)"
         d="M 382.47461 385.7168 C 380.19578 385.7168 378.40268 386.95564 377.0957 389.43555 C 376.12384 391.24521 375.33759 393.62514 374.73438 396.57422 L 373.22656 403.91406 C 369.60724 417.88868 365.31724 431.32629 360.35742 444.22852 C 356.60405 431.39332 353.83865 419.46304 352.0625 408.4375 C 350.55445 399.25513 349.14682 393.17205 347.83984 390.18945 C 346.76744 387.70954 345.14314 386.4707 342.96484 386.4707 C 340.98762 386.4707 339.32877 387.44105 337.98828 389.38477 C 336.34618 391.66361 334.78704 396.50785 333.3125 403.91406 L 330.39648 419.74805 L 324.86719 440.00586 C 322.55484 448.14935 321.39844 455.01868 321.39844 460.61523 C 321.39844 462.08977 321.81844 463.33054 322.65625 464.33594 C 323.6281 465.50887 324.93407 466.0957 326.57617 466.0957 C 328.88852 466.0957 330.54736 464.78783 331.55273 462.17383 C 332.96025 456.0746 333.79831 451.46625 334.06641 448.34961 L 340.55078 421.80859 L 342.36133 412.81055 C 344.94177 426.31599 347.92385 438.98461 351.30859 450.81445 L 352.76758 456.39258 C 353.3708 458.57088 354.04008 460.36395 354.77734 461.77148 C 355.91677 463.91622 357.47591 464.98828 359.45312 464.98828 C 361.8325 464.98828 363.7253 463.7149 365.13281 461.16797 C 366.43979 458.75511 367.6959 455.65602 368.90234 451.86914 L 371.86914 442.31836 L 381.92188 412.00586 C 384.90447 430.30357 387.08303 442.13413 388.45703 447.49609 L 390.26758 456.14258 C 390.65606 457.9555 391.06852 459.50583 391.50391 460.81836 C 394.70106 458.55404 397.86204 456.21608 400.98633 453.80469 C 400.94441 453.65122 400.91644 453.53455 400.87305 453.37695 L 398.41016 444.73047 C 395.46108 434.00654 392.99871 421.07138 391.02148 405.92383 C 390.2507 399.92513 389.59675 395.97075 389.06055 394.06055 C 387.5525 388.49751 385.35667 385.7168 382.47461 385.7168 z "
         style="font-style:normal;font-variant:normal;font-weight:normal;font-stretch:normal;font-size:113.33333588px;line-height:1.25;font-family:'Comic Sans MS';-inkscape-font-specification:'Comic Sans MS';letter-spacing:0px;word-spacing:0px;fill:#000000;fill-opacity:0.49019608;stroke:none;stroke-width:0.90837997" />
      <g
         id="flowRoot850"
         style="font-style:normal;font-weight:normal;font-size:40px;line-height:1.25;font-family:sans-serif;letter-spacing:0px;word-spacing:0px;fill:#ffffff;fill-opacity:1;stroke:none"
         transform="matrix(0.90837999,0,0,0.90837999,2.6684103,566.03722)"
         aria-label="ANIM">
        <path
           inkscape:connector-curvature="0"
           id="path858"
           style="font-style:normal;font-variant:normal;font-weight:normal;font-stretch:normal;font-size:113.33333588px;font-family:'Comic Sans MS';-inkscape-font-specification:'Comic Sans MS';fill:#ffffff"
           d="m 156.53646,460.88723 q -5.09115,0 -8.85417,-13.0599 -1.4388,-4.98047 -3.597,-17.43164 -5.64453,0.77474 -14.77539,2.76693 l -14.72006,3.04362 q -2.76692,7.24935 -9.46289,21.19466 -1.77083,3.09896 -4.81445,3.09896 -2.213541,0 -3.984375,-1.60482 -1.715495,-1.60482 -1.715495,-3.98437 0,-2.65625 8.35612,-20.19857 -0.94075,-1.43881 -0.94075,-3.32032 0,-4.48242 5.42317,-5.7552 6.3086,-11.84245 15.9375,-27.22657 13.11524,-20.9733 16.32487,-20.9733 4.37175,0 5.97657,6.08723 l 3.48632,18.59376 8.24545,38.46028 3.15429,8.74349 q 1.60482,4.48242 1.60482,5.97656 0,2.37956 -1.71549,3.98438 -1.7155,1.60482 -3.92904,1.60482 z m -19.53451,-63.25196 -15.82682,25.51107 q 6.69596,-1.71549 20.30925,-4.15039 z" />
        <path
           inkscape:connector-curvature="0"
           id="path860"
           style="font-style:normal;font-variant:normal;font-weight:normal;font-stretch:normal;font-size:113.33333588px;font-family:'Comic Sans MS';-inkscape-font-specification:'Comic Sans MS';fill:#ffffff"
           d="m 255.64779,446.94192 q 0,2.65625 -0.88542,8.85416 -0.88542,5.58919 -5.92122,5.58919 -3.04362,0 -7.24935,-3.98437 -22.52279,-21.30534 -51.6862,-61.48112 l -0.27669,12.56185 -0.16602,12.61719 q 0,4.59309 0.16602,13.77929 0.22135,9.1862 0.22135,13.83464 0,14.88607 -5.75521,14.88607 -3.04362,0 -4.81445,-1.93685 -1.60482,-1.7155 -1.60482,-4.09505 0,-2.32422 0.33203,-7.028 0.38737,-4.70378 0.38737,-7.02799 0,-3.43099 0.22136,-10.23764 0.22135,-6.86197 0.22135,-10.29296 0,-3.65235 -0.16601,-11.01237 -0.16602,-7.41537 -0.16602,-11.06771 0,-3.48633 -0.66406,-10.34831 -0.66407,-6.91732 -0.66407,-10.40365 0,-2.54557 2.15821,-4.64843 2.21354,-2.10287 4.98047,-2.10287 2.93294,0 7.24935,6.41927 13.77929,20.64128 24.79166,34.3099 13.11524,16.21419 28.77605,30.98958 0.16601,-2.37955 0,-7.02799 l -0.16602,-6.97266 q 0,-24.29362 -1.88151,-38.68164 -0.22136,-1.4388 -1.49414,-5.81055 -1.10677,-3.76302 -1.10677,-5.86588 0,-6.41927 5.86588,-6.41927 9.62891,0 9.62891,35.91471 0,6.14258 -0.16602,18.3724 -0.16601,12.17448 -0.16601,18.31706 z" />
        <path
           inkscape:connector-curvature="0"
           id="path862"
           style="font-style:normal;font-variant:normal;font-weight:normal;font-stretch:normal;font-size:113.33333588px;font-family:'Comic Sans MS';-inkscape-font-specification:'Comic Sans MS';fill:#ffffff"
           d="m 313.64258,390.27525 q -3.54167,0 -8.90951,-0.7194 l -8.9095,-1.16211 q -1.27279,16.10351 -1.27279,30.76823 0,3.87369 0.22136,9.57356 0.22135,5.69987 0.22135,9.57357 0,5.20183 -0.38737,9.46289 l 17.43164,-0.22135 q 2.32422,0 3.8737,1.66016 1.60482,1.60481 1.60482,3.98437 0,2.4349 -1.60482,4.09505 -1.54948,1.60482 -3.8737,1.60482 -3.09896,0 -9.29687,0.16602 -6.19792,0.11067 -9.29688,0.11067 -3.65234,0 -10.95703,0.9961 -7.24935,1.05143 -10.95703,1.05143 -2.32422,0 -3.92904,-1.66016 -1.54948,-1.60481 -1.54948,-3.98437 0,-2.37956 1.54948,-4.03972 1.60482,-1.66015 3.92904,-1.66015 3.597,0 11.89778,-1.16211 0.55339,-4.48242 0.55339,-10.23763 0,-3.81836 -0.38737,-9.29688 -0.33203,-5.53385 -0.33203,-9.29687 0,-12.78321 1.54948,-31.93034 l -7.19401,0.22135 -7.19401,0.16602 q -2.37956,0 -3.98438,-1.60482 -1.60482,-1.60482 -1.60482,-4.09505 0,-5.14649 5.20183,-5.64453 4.48242,-0.44271 16.76758,-0.44271 11.01237,0 27.61393,2.37956 4.92513,0.7194 4.92513,5.92122 0,2.60091 -1.88151,4.15039 -1.66016,1.27279 -3.81836,1.27279 z" />
        <path
           inkscape:connector-curvature="0"
           id="path864"
           style="font-style:normal;font-variant:normal;font-weight:normal;font-stretch:normal;font-size:113.33333588px;font-family:'Comic Sans MS';-inkscape-font-specification:'Comic Sans MS';fill:#ffffff"
           d="m 412.5879,463.82017 q -2.98828,0 -4.92513,-3.09896 -1.66016,-2.65625 -2.98828,-8.85416 l -1.99219,-9.51823 q -2.26888,-8.85417 -7.19401,-39.06902 l -11.06771,33.36915 -3.26497,10.51432 q -1.99219,6.25325 -4.1504,10.23763 -2.32421,4.20573 -6.25325,4.20573 -3.26497,0 -5.14649,-3.54167 -1.21744,-2.32422 -2.21354,-5.92122 l -1.60481,-6.14258 q -5.5892,-19.53451 -9.85027,-41.83594 l -1.99218,9.9056 -7.13867,29.21875 q -0.44271,5.14649 -2.76693,15.2181 -1.66016,4.31641 -5.47852,4.31641 -2.71159,0 -4.3164,-1.93685 -1.38347,-1.66016 -1.38347,-4.09505 0,-9.24154 3.81836,-22.68881 l 6.08724,-22.30143 3.20964,-17.43164 q 2.43489,-12.22982 5.14648,-15.99284 2.21354,-3.20964 5.47852,-3.20964 3.597,0 5.36784,4.09506 2.1582,4.92513 4.64843,20.08789 2.93295,18.20638 9.13086,39.40104 8.19011,-21.30534 14.16667,-44.38151 l 1.66016,-8.07943 q 0.99609,-4.86979 2.60091,-7.85807 2.1582,-4.09505 5.92122,-4.09505 4.75912,0 7.24935,9.18619 0.88542,3.1543 2.1582,13.0599 3.26498,25.01302 8.13477,42.72136 l 2.71159,9.51823 q 2.10286,7.63671 2.10286,9.40755 0,2.37956 -1.82617,3.98437 -1.77083,1.60482 -4.03971,1.60482 z" />
      </g>
    </g>
  </g>
</svg>
