<?xml version="1.0" encoding="UTF-8" standalone="no"?>
<!-- Created with Inkscape (http://www.inkscape.org/) -->

<svg
   xmlns:dc="http://purl.org/dc/elements/1.1/"
   xmlns:cc="http://creativecommons.org/ns#"
   xmlns:rdf="http://www.w3.org/1999/02/22-rdf-syntax-ns#"
   xmlns:svg="http://www.w3.org/2000/svg"
   xmlns="http://www.w3.org/2000/svg"
   xmlns:sodipodi="http://sodipodi.sourceforge.net/DTD/sodipodi-0.dtd"
   xmlns:inkscape="http://www.inkscape.org/namespaces/inkscape"
   width="512"
   height="512"
   id="svg2"
   version="1.1"
   inkscape:version="0.92.2 5c3e80d, 2017-08-06"
   sodipodi:docname="video-x-ms-wmv.svg">
  <defs
     id="defs4" />
  <sodipodi:namedview
     id="base"
     pagecolor="#ffffff"
     bordercolor="#666666"
     borderopacity="1.0"
     inkscape:pageopacity="0.0"
     inkscape:pageshadow="2"
     inkscape:zoom="0.60666666"
     inkscape:cx="544.30103"
     inkscape:cy="312.64112"
     inkscape:document-units="px"
     inkscape:current-layer="layer1"
     showgrid="false"
     inkscape:window-width="1366"
     inkscape:window-height="717"
     inkscape:window-x="0"
     inkscape:window-y="24"
     inkscape:window-maximized="1" />
  <metadata
     id="metadata7">
    <rdf:RDF>
      <cc:Work
         rdf:about="">
        <dc:format>image/svg+xml</dc:format>
        <dc:type
           rdf:resource="http://purl.org/dc/dcmitype/StillImage" />
        <dc:title></dc:title>
      </cc:Work>
    </rdf:RDF>
  </metadata>
  <g
     inkscape:label="Layer 1"
     inkscape:groupmode="layer"
     id="layer1"
     transform="translate(0,-540.36218)">
    <g
       id="g888">
      <path
         id="path943"
         d="m 432.91327,596.83617 c 102.19291,88.57459 105.82678,249.69971 8.1168,359.89879 C 343.3201,1066.934 181.27965,1084.4628 79.086742,995.88822 -23.106204,907.31363 -26.740034,746.18851 70.969942,635.98943 168.67991,525.79035 330.72037,508.26158 432.91327,596.83617 Z"
         inkscape:connector-curvature="0"
         style="fill:#3689e6;fill-opacity:1;stroke-width:11.10955811" />
      <path
         sodipodi:nodetypes="csscc"
         inkscape:connector-curvature="0"
         id="path945"
         d="m 8.3652423,882.36221 c 11.5841007,43.15173 35.1863057,82.72637 70.7207057,113.5254 102.192912,88.57459 264.233402,71.04669 361.943372,-39.15235 20.35102,-22.95224 36.28955,-48.11807 47.87304,-74.37305 z"
         style="fill:#0d52bf;fill-opacity:1;stroke:none;stroke-width:0.99999994px;stroke-linecap:butt;stroke-linejoin:miter;stroke-opacity:1" />
      <path
         id="path947"
         d="m 511.63551,765.26572 c -1.55139,61.31164 -25.16123,124.1546 -70.96638,175.81447 C 342.95916,1051.2793 180.9187,1068.808 78.725759,980.23349 30.827126,938.71784 4.4968203,881.28504 0.19382824,820.59101 0.79908224,886.94768 27.117406,950.84438 79.078691,995.88126 181.2716,1084.4558 343.31976,1066.9184 441.02202,956.72797 490.72697,900.66986 514.02704,831.437 511.63551,765.26572 Z"
         inkscape:connector-curvature="0"
         style="opacity:0.1;stroke-width:11.10955811" />
      <path
         style="fill:#317ccf;fill-opacity:1;stroke-width:0.81360942"
         d="m 142.33136,881.06149 c -4.25253,-1.81874 -10.47546,-8.26887 -11.44254,-11.86031 -0.45338,-1.68368 -1.17633,-3.0613 -1.60656,-3.0613 -0.49683,0 -0.78226,-40.96919 -0.78226,-112.27811 0,-71.30892 0.28543,-112.27814 0.78226,-112.27814 0.43023,0 1.15514,-1.38483 1.6109,-3.07742 1.04285,-3.87281 6.64035,-9.65214 11.30225,-11.66937 3.39424,-1.4687 7.99701,-1.52541 123.80459,-1.52541 115.80758,0 120.41036,0.0566 123.80459,1.52541 4.66191,2.01723 10.25941,7.79656 11.30225,11.66937 0.45576,1.69259 1.18068,3.07742 1.6109,3.07742 0.49683,0 0.78226,40.96922 0.78226,112.27814 0,71.30892 -0.28543,112.27811 -0.78226,112.27811 -0.43022,0 -1.15514,1.38485 -1.6109,3.07742 -1.04284,3.87286 -6.64034,9.65217 -11.30225,11.66935 -3.3967,1.46978 -7.92271,1.523 -124.07545,1.45905 -105.13233,-0.0578 -120.91434,-0.22212 -123.39778,-1.28421 z m 41.50175,-25.91006 c 1.06667,-0.65923 1.08329,-30.23818 0.0173,-30.89695 -1.08253,-0.66905 -25.74569,-0.71291 -26.82199,-0.0478 -1.10375,0.68216 -1.19141,29.89146 -0.093,30.99009 0.83248,0.83264 25.54441,0.79092 26.89763,-0.0454 z m 191.19823,0 c 1.11682,-0.69024 1.07892,-30.24088 -0.0397,-30.93222 -0.4651,-0.28743 -6.49174,-0.52261 -13.39256,-0.52261 -6.9008,0 -12.92745,0.23518 -13.39254,0.52261 -1.08512,0.67066 -1.15386,29.89641 -0.0728,30.97765 0.83248,0.83264 25.54442,0.7909 26.89764,-0.0454 z M 252.57545,839.69759 V 824.239 h -19.93344 -19.93343 l -0.22289,14.61761 c -0.12259,8.03971 -0.04,15.09413 0.18344,15.67651 0.32142,0.83761 4.53347,1.01333 20.15633,0.84095 l 19.74999,-0.21791 z m 66.71598,0 V 824.239 h -19.93344 -19.93343 l -0.22289,14.61761 c -0.12259,8.03971 -0.0401,15.09413 0.18342,15.67651 0.32143,0.83761 4.53348,1.01333 20.15633,0.84095 l 19.75001,-0.21791 z m -66.87898,-52.99816 c 1.43211,-0.73367 2.78689,-1.56094 3.01063,-1.83841 0.22375,-0.27746 1.77978,-1.22494 3.45784,-2.10552 1.67808,-0.88057 3.05103,-1.88392 3.05103,-2.22963 0,-0.34573 0.33494,-0.62861 0.74432,-0.62861 0.40936,0 3.67647,-1.97383 7.26025,-4.38629 3.58378,-2.41248 6.81855,-4.5177 7.18839,-4.67826 0.36983,-0.16057 4.18623,-2.6192 8.48087,-5.46361 14.13226,-9.36004 14.13226,-13.65463 0,-23.01468 -4.29464,-2.84441 -8.17727,-5.35472 -8.62805,-5.57846 -0.45079,-0.22375 -5.59097,-3.56112 -11.42263,-7.41641 -16.07622,-10.62792 -17.71524,-11.2368 -21.26671,-7.90036 l -1.88306,1.76904 v 30.51951 c 0,30.21532 0.0176,30.53829 1.76904,32.40257 2.08455,2.2189 4.6455,2.3896 8.23808,0.54912 z M 183.7982,683.50137 c 1.11696,-0.69034 1.14735,-30.24175 0.0318,-30.93121 -1.05563,-0.65242 -25.80261,-0.65242 -26.85823,0 -1.0512,0.64969 -1.08553,29.90557 -0.0364,30.95504 0.84623,0.84645 25.48998,0.82459 26.86276,-0.0238 z m 68.09264,0.0462 c 0.91659,-0.35173 1.08604,-3.28928 0.90603,-15.70644 l -0.22142,-15.27381 h -19.93344 -19.93343 l -0.22212,14.94586 c -0.1259,8.47012 0.10845,15.34426 0.54087,15.86538 0.77683,0.93619 36.45987,1.09137 38.86351,0.16901 z m 67.40059,-15.52166 v -15.45859 h -19.93344 -19.93343 v 15.42191 c 0,15.39433 0.004,15.42268 1.86033,15.86539 1.02318,0.24391 9.99322,0.26042 19.93342,0.0367 l 18.07312,-0.40681 z m 55.70499,15.47542 c 1.11695,-0.69031 1.14735,-30.24175 0.0318,-30.93119 -1.05562,-0.65241 -25.80259,-0.65241 -26.85822,0 -1.0512,0.64967 -1.08553,29.90555 -0.0363,30.95503 0.84623,0.84645 25.48997,0.82459 26.86275,-0.0239 z"
         id="path843"
         inkscape:connector-curvature="0" />
      <path
         inkscape:connector-curvature="0"
         id="path857"
         d="m 132.33136,871.06149 c -4.25253,-1.81874 -10.47546,-8.26887 -11.44254,-11.86031 -0.45338,-1.68368 -1.17633,-3.0613 -1.60656,-3.0613 -0.49683,0 -0.78226,-40.96919 -0.78226,-112.27811 0,-71.30892 0.28543,-112.27814 0.78226,-112.27814 0.43023,0 1.15514,-1.38483 1.6109,-3.07742 1.04285,-3.87281 6.64035,-9.65214 11.30225,-11.66937 3.39424,-1.4687 7.99701,-1.52541 123.80459,-1.52541 115.80758,0 120.41036,0.0566 123.80459,1.52541 4.66191,2.01723 10.25941,7.79656 11.30225,11.66937 0.45576,1.69259 1.18068,3.07742 1.6109,3.07742 0.49683,0 0.78226,40.96922 0.78226,112.27814 0,71.30892 -0.28543,112.27811 -0.78226,112.27811 -0.43022,0 -1.15514,1.38485 -1.6109,3.07742 -1.04284,3.87286 -6.64034,9.65217 -11.30225,11.66935 -3.3967,1.46978 -7.92271,1.523 -124.07545,1.45905 -105.13233,-0.0578 -120.91434,-0.22212 -123.39778,-1.28421 z m 41.50175,-25.91006 c 1.06667,-0.65923 1.08329,-30.23818 0.0173,-30.89695 -1.08253,-0.66905 -25.74569,-0.71291 -26.82199,-0.0478 -1.10375,0.68216 -1.19141,29.89146 -0.093,30.99009 0.83248,0.83264 25.54441,0.79092 26.89763,-0.0454 z m 191.19823,0 c 1.11682,-0.69024 1.07892,-30.24088 -0.0397,-30.93222 -0.4651,-0.28743 -6.49174,-0.52261 -13.39256,-0.52261 -6.9008,0 -12.92745,0.23518 -13.39254,0.52261 -1.08512,0.67066 -1.15386,29.89641 -0.0728,30.97765 0.83248,0.83264 25.54442,0.7909 26.89764,-0.0454 z M 242.57545,829.69759 V 814.239 h -19.93344 -19.93343 l -0.22289,14.61761 c -0.12259,8.03971 -0.04,15.09413 0.18344,15.67651 0.32142,0.83761 4.53347,1.01333 20.15633,0.84095 l 19.74999,-0.21791 z m 66.71598,0 V 814.239 h -19.93344 -19.93343 l -0.22289,14.61761 c -0.12259,8.03971 -0.0401,15.09413 0.18342,15.67651 0.32143,0.83761 4.53348,1.01333 20.15633,0.84095 l 19.75001,-0.21791 z m -66.87898,-52.99816 c 1.43211,-0.73367 2.78689,-1.56094 3.01063,-1.83841 0.22375,-0.27746 1.77978,-1.22494 3.45784,-2.10552 1.67808,-0.88057 3.05103,-1.88392 3.05103,-2.22963 0,-0.34573 0.33494,-0.62861 0.74432,-0.62861 0.40936,0 3.67647,-1.97383 7.26025,-4.38629 3.58378,-2.41248 6.81855,-4.5177 7.18839,-4.67826 0.36983,-0.16057 4.18623,-2.6192 8.48087,-5.46361 14.13226,-9.36004 14.13226,-13.65463 0,-23.01468 -4.29464,-2.84441 -8.17727,-5.35472 -8.62805,-5.57846 -0.45079,-0.22375 -5.59097,-3.56112 -11.42263,-7.41641 -16.07622,-10.62792 -17.71524,-11.2368 -21.26671,-7.90036 l -1.88306,1.76904 v 30.51951 c 0,30.21532 0.0176,30.53829 1.76904,32.40257 2.08455,2.2189 4.6455,2.3896 8.23808,0.54912 z M 173.7982,673.50137 c 1.11696,-0.69034 1.14735,-30.24175 0.0318,-30.93121 -1.05563,-0.65242 -25.80261,-0.65242 -26.85823,0 -1.0512,0.64969 -1.08553,29.90557 -0.0364,30.95504 0.84623,0.84645 25.48998,0.82459 26.86276,-0.0238 z m 68.09264,0.0462 c 0.91659,-0.35173 1.08604,-3.28928 0.90603,-15.70644 l -0.22142,-15.27381 h -19.93344 -19.93343 l -0.22212,14.94586 c -0.1259,8.47012 0.10845,15.34426 0.54087,15.86538 0.77683,0.93619 36.45987,1.09137 38.86351,0.16901 z m 67.40059,-15.52166 v -15.45859 h -19.93344 -19.93343 v 15.42191 c 0,15.39433 0.004,15.42268 1.86033,15.86539 1.02318,0.24391 9.99322,0.26042 19.93342,0.0367 l 18.07312,-0.40681 z m 55.70499,15.47542 c 1.11695,-0.69031 1.14735,-30.24175 0.0318,-30.93119 -1.05562,-0.65241 -25.80259,-0.65241 -26.85822,0 -1.0512,0.64967 -1.08553,29.90555 -0.0363,30.95503 0.84623,0.84645 25.48997,0.82459 26.86275,-0.0239 z"
         style="fill:#ffffff;stroke-width:0.81360942" />
      <g
         aria-label="WMV"
         transform="translate(1.42318,532.82261)"
         style="font-style:normal;font-weight:normal;font-size:40px;line-height:1.25;font-family:sans-serif;letter-spacing:0px;word-spacing:0px;fill:#0c4aac;fill-opacity:1;stroke:none"
         id="g873">
        <path
           d="m 194.13151,464.53957 q -2.54557,0 -4.48242,-1.4388 -2.21354,-1.66016 -2.21354,-4.09505 -2.54557,-6.69597 -3.20964,-10.9017 -0.66406,-4.20572 -4.37174,-23.85091 -2.82227,-14.88607 -3.76302,-23.90625 -4.92513,18.26172 -10.56966,30.93425 -6.52995,14.66471 -8.4668,22.96549 0.66406,1.27279 0.66406,2.49024 0,2.49023 -2.21354,4.09505 -1.99219,1.49414 -4.53776,1.49414 -7.4707,0 -7.4707,-6.69596 l -1.7155,-7.028 -6.0319,-27.11588 q -3.59701,-13.72396 -12.28516,-39.34571 -0.38737,-1.21745 -0.38737,-2.21354 0,-5.14648 5.81055,-5.14648 3.59701,0 5.53385,3.92903 0.9961,1.99219 4.03972,11.45508 3.26497,10.01628 6.52995,24.1276 l 5.36783,24.45964 q 5.92123,-13.72396 11.78711,-33.42448 3.59701,-12.00846 5.47852,-16.6569 4.98047,-12.22982 9.68425,-12.22982 3.87369,0 5.47851,3.92904 1.99219,4.75911 4.03971,22.6888 1.10678,9.07552 3.76303,21.80339 l 4.75911,21.74804 q 7.41536,-17.81901 18.53841,-48.19987 0.60873,-1.66015 2.76693,-10.45898 1.60482,-6.47461 3.92904,-10.07162 1.99218,-3.04362 5.20182,-3.04362 5.58919,0 5.58919,5.53386 0,0.94075 -1.77083,5.53385 l -2.21354,5.97656 -3.04362,9.85027 -16.43555,39.95442 q -2.26888,6.58529 -7.80274,19.14714 -1.99218,3.70768 -5.97656,3.70768 z"
           style="font-style:normal;font-variant:normal;font-weight:normal;font-stretch:normal;font-size:113.33333588px;font-family:'Comic Sans MS';-inkscape-font-specification:'Comic Sans MS';fill:#0c4aac;fill-opacity:1"
           id="path867"
           inkscape:connector-curvature="0" />
        <path
           d="m 323.07032,463.82017 q -2.98828,0 -4.92513,-3.09896 -1.66016,-2.65625 -2.98828,-8.85416 l -1.99219,-9.51823 q -2.26888,-8.85417 -7.19401,-39.06902 l -11.06771,33.36915 -3.26497,10.51432 q -1.99219,6.25325 -4.15039,10.23763 -2.32422,4.20573 -6.25326,4.20573 -3.26497,0 -5.14648,-3.54167 -1.21745,-2.32422 -2.21355,-5.92122 l -1.60481,-6.14258 q -5.5892,-19.53451 -9.85026,-41.83594 l -1.99219,9.9056 -7.13867,29.21875 q -0.44271,5.14649 -2.76693,15.2181 -1.66016,4.31641 -5.47852,4.31641 -2.71158,0 -4.3164,-1.93685 -1.38347,-1.66016 -1.38347,-4.09505 0,-9.24154 3.81836,-22.68881 l 6.08724,-22.30143 3.20964,-17.43164 q 2.43489,-12.22982 5.14648,-15.99284 2.21355,-3.20964 5.47852,-3.20964 3.597,0 5.36784,4.09506 2.1582,4.92513 4.64844,20.08789 2.93294,18.20638 9.13085,39.40104 8.19011,-21.30534 14.16667,-44.38151 l 1.66016,-8.07943 q 0.99609,-4.86979 2.60091,-7.85807 2.1582,-4.09505 5.92122,-4.09505 4.75912,0 7.24935,9.18619 0.88542,3.1543 2.15821,13.0599 3.26497,25.01302 8.13476,42.72136 l 2.71159,9.51823 q 2.10287,7.63671 2.10287,9.40755 0,2.37956 -1.82618,3.98437 -1.77083,1.60482 -4.03971,1.60482 z"
           style="font-style:normal;font-variant:normal;font-weight:normal;font-stretch:normal;font-size:113.33333588px;font-family:'Comic Sans MS';-inkscape-font-specification:'Comic Sans MS';fill:#0c4aac;fill-opacity:1"
           id="path869"
           inkscape:connector-curvature="0" />
        <path
           d="m 405.4694,383.35793 q -3.43099,5.14648 -5.58919,10.79102 l -4.20573,12.11914 -14.88607,40.23112 q -2.60091,7.08333 -6.08724,13.83463 -1.77083,3.32031 -4.98047,3.32031 -4.26106,0 -5.97656,-4.3164 -6.69596,-16.82292 -14.88607,-48.42123 l -4.37174,-15.2181 q -3.26498,-11.51041 -3.26498,-15.05208 0,-2.49023 1.77084,-4.09505 1.60482,-1.49414 3.8737,-1.49414 4.20572,0 5.42317,4.53776 l 2.04753,9.6289 5.3125,18.81511 q 5.3125,20.58594 10.34831,35.47201 l 0.33203,-0.88542 14.83073,-40.17578 4.70377,-13.55795 q 3.1543,-8.1901 6.69597,-12.39583 1.82617,-2.21354 4.3164,-2.21354 2.21355,0 3.92904,1.71549 1.77083,1.66016 1.77083,4.03972 0,1.66015 -1.10677,3.32031 z"
           style="font-style:normal;font-variant:normal;font-weight:normal;font-stretch:normal;font-size:113.33333588px;font-family:'Comic Sans MS';-inkscape-font-specification:'Comic Sans MS';fill:#0c4aac;fill-opacity:1"
           id="path871"
           inkscape:connector-curvature="0" />
      </g>
      <g
         id="flowRoot852"
         style="font-style:normal;font-weight:normal;font-size:40px;line-height:1.25;font-family:sans-serif;letter-spacing:0px;word-spacing:0px;fill:#ffffff;fill-opacity:1;stroke:none"
         transform="translate(-8.57682,522.82261)"
         aria-label="WMV">
        <path
           inkscape:connector-curvature="0"
           id="path860"
           style="font-style:normal;font-variant:normal;font-weight:normal;font-stretch:normal;font-size:113.33333588px;font-family:'Comic Sans MS';-inkscape-font-specification:'Comic Sans MS';fill:#ffffff"
           d="m 194.13151,464.53957 q -2.54557,0 -4.48242,-1.4388 -2.21354,-1.66016 -2.21354,-4.09505 -2.54557,-6.69597 -3.20964,-10.9017 -0.66406,-4.20572 -4.37174,-23.85091 -2.82227,-14.88607 -3.76302,-23.90625 -4.92513,18.26172 -10.56966,30.93425 -6.52995,14.66471 -8.4668,22.96549 0.66406,1.27279 0.66406,2.49024 0,2.49023 -2.21354,4.09505 -1.99219,1.49414 -4.53776,1.49414 -7.4707,0 -7.4707,-6.69596 l -1.7155,-7.028 -6.0319,-27.11588 q -3.59701,-13.72396 -12.28516,-39.34571 -0.38737,-1.21745 -0.38737,-2.21354 0,-5.14648 5.81055,-5.14648 3.59701,0 5.53385,3.92903 0.9961,1.99219 4.03972,11.45508 3.26497,10.01628 6.52995,24.1276 l 5.36783,24.45964 q 5.92123,-13.72396 11.78711,-33.42448 3.59701,-12.00846 5.47852,-16.6569 4.98047,-12.22982 9.68425,-12.22982 3.87369,0 5.47851,3.92904 1.99219,4.75911 4.03971,22.6888 1.10678,9.07552 3.76303,21.80339 l 4.75911,21.74804 q 7.41536,-17.81901 18.53841,-48.19987 0.60873,-1.66015 2.76693,-10.45898 1.60482,-6.47461 3.92904,-10.07162 1.99218,-3.04362 5.20182,-3.04362 5.58919,0 5.58919,5.53386 0,0.94075 -1.77083,5.53385 l -2.21354,5.97656 -3.04362,9.85027 -16.43555,39.95442 q -2.26888,6.58529 -7.80274,19.14714 -1.99218,3.70768 -5.97656,3.70768 z" />
        <path
           inkscape:connector-curvature="0"
           id="path862"
           style="font-style:normal;font-variant:normal;font-weight:normal;font-stretch:normal;font-size:113.33333588px;font-family:'Comic Sans MS';-inkscape-font-specification:'Comic Sans MS';fill:#ffffff"
           d="m 323.07032,463.82017 q -2.98828,0 -4.92513,-3.09896 -1.66016,-2.65625 -2.98828,-8.85416 l -1.99219,-9.51823 q -2.26888,-8.85417 -7.19401,-39.06902 l -11.06771,33.36915 -3.26497,10.51432 q -1.99219,6.25325 -4.15039,10.23763 -2.32422,4.20573 -6.25326,4.20573 -3.26497,0 -5.14648,-3.54167 -1.21745,-2.32422 -2.21355,-5.92122 l -1.60481,-6.14258 q -5.5892,-19.53451 -9.85026,-41.83594 l -1.99219,9.9056 -7.13867,29.21875 q -0.44271,5.14649 -2.76693,15.2181 -1.66016,4.31641 -5.47852,4.31641 -2.71158,0 -4.3164,-1.93685 -1.38347,-1.66016 -1.38347,-4.09505 0,-9.24154 3.81836,-22.68881 l 6.08724,-22.30143 3.20964,-17.43164 q 2.43489,-12.22982 5.14648,-15.99284 2.21355,-3.20964 5.47852,-3.20964 3.597,0 5.36784,4.09506 2.1582,4.92513 4.64844,20.08789 2.93294,18.20638 9.13085,39.40104 8.19011,-21.30534 14.16667,-44.38151 l 1.66016,-8.07943 q 0.99609,-4.86979 2.60091,-7.85807 2.1582,-4.09505 5.92122,-4.09505 4.75912,0 7.24935,9.18619 0.88542,3.1543 2.15821,13.0599 3.26497,25.01302 8.13476,42.72136 l 2.71159,9.51823 q 2.10287,7.63671 2.10287,9.40755 0,2.37956 -1.82618,3.98437 -1.77083,1.60482 -4.03971,1.60482 z" />
        <path
           inkscape:connector-curvature="0"
           id="path864"
           style="font-style:normal;font-variant:normal;font-weight:normal;font-stretch:normal;font-size:113.33333588px;font-family:'Comic Sans MS';-inkscape-font-specification:'Comic Sans MS';fill:#ffffff"
           d="m 405.4694,383.35793 q -3.43099,5.14648 -5.58919,10.79102 l -4.20573,12.11914 -14.88607,40.23112 q -2.60091,7.08333 -6.08724,13.83463 -1.77083,3.32031 -4.98047,3.32031 -4.26106,0 -5.97656,-4.3164 -6.69596,-16.82292 -14.88607,-48.42123 l -4.37174,-15.2181 q -3.26498,-11.51041 -3.26498,-15.05208 0,-2.49023 1.77084,-4.09505 1.60482,-1.49414 3.8737,-1.49414 4.20572,0 5.42317,4.53776 l 2.04753,9.6289 5.3125,18.81511 q 5.3125,20.58594 10.34831,35.47201 l 0.33203,-0.88542 14.83073,-40.17578 4.70377,-13.55795 q 3.1543,-8.1901 6.69597,-12.39583 1.82617,-2.21354 4.3164,-2.21354 2.21355,0 3.92904,1.71549 1.77083,1.66016 1.77083,4.03972 0,1.66015 -1.10677,3.32031 z" />
      </g>
    </g>
  </g>
</svg>
