<?xml version="1.0" encoding="UTF-8" standalone="no"?>
<svg
   xmlns:dc="http://purl.org/dc/elements/1.1/"
   xmlns:cc="http://creativecommons.org/ns#"
   xmlns:rdf="http://www.w3.org/1999/02/22-rdf-syntax-ns#"
   xmlns:svg="http://www.w3.org/2000/svg"
   xmlns="http://www.w3.org/2000/svg"
   xmlns:sodipodi="http://sodipodi.sourceforge.net/DTD/sodipodi-0.dtd"
   xmlns:inkscape="http://www.inkscape.org/namespaces/inkscape"
   viewBox="0 0 512 512"
   id="svg2"
   version="1.1"
   inkscape:version="0.92.2 5c3e80d, 2017-08-06"
   width="512"
   height="512"
   sodipodi:docname="dialog-question.svg">
  <metadata
     id="metadata76">
    <rdf:RDF>
      <cc:Work
         rdf:about="">
        <dc:format>image/svg+xml</dc:format>
        <dc:type
           rdf:resource="http://purl.org/dc/dcmitype/StillImage" />
        <dc:title />
      </cc:Work>
    </rdf:RDF>
  </metadata>
  <sodipodi:namedview
     pagecolor="#ffffff"
     bordercolor="#666666"
     borderopacity="1"
     objecttolerance="10"
     gridtolerance="10"
     guidetolerance="10"
     inkscape:pageopacity="0"
     inkscape:pageshadow="2"
     inkscape:window-width="1366"
     inkscape:window-height="717"
     id="namedview74"
     showgrid="false"
     inkscape:zoom="0.5"
     inkscape:cx="146.68898"
     inkscape:cy="207.25871"
     inkscape:window-x="0"
     inkscape:window-y="24"
     inkscape:window-maximized="1"
     inkscape:current-layer="svg2"
     units="px" />
  <defs
     id="defs4">
    <linearGradient
       id="linearGradient3764"
       x1="1"
       x2="47"
       gradientUnits="userSpaceOnUse"
       gradientTransform="rotate(-90,23.999998,24)">
      <stop
         stop-color="#8358b4"
         stop-opacity="1"
         id="stop7" />
      <stop
         offset="1"
         stop-color="#8d65ba"
         stop-opacity="1"
         id="stop9" />
    </linearGradient>
    <clipPath
       id="clipPath-057129763">
      <g
         transform="translate(0,-1004.3622)"
         id="g12">
        <path
           d="m -24,13 c 0,1.105 -0.672,2 -1.5,2 -0.828,0 -1.5,-0.895 -1.5,-2 0,-1.105 0.672,-2 1.5,-2 0.828,0 1.5,0.895 1.5,2 z"
           transform="matrix(15.333333,0,0,11.5,414.99999,878.8622)"
           id="path14"
           inkscape:connector-curvature="0"
           style="fill:#1890d0" />
      </g>
    </clipPath>
    <clipPath
       id="clipPath-064426159">
      <g
         transform="translate(0,-1004.3622)"
         id="g17">
        <path
           d="m -24,13 c 0,1.105 -0.672,2 -1.5,2 -0.828,0 -1.5,-0.895 -1.5,-2 0,-1.105 0.672,-2 1.5,-2 0.828,0 1.5,0.895 1.5,2 z"
           transform="matrix(15.333333,0,0,11.5,414.99999,878.8622)"
           id="path19"
           inkscape:connector-curvature="0"
           style="fill:#1890d0" />
      </g>
    </clipPath>
  </defs>
  <g
     id="g33"
     transform="translate(0,255952)" />
  <g
     id="g911"
     transform="matrix(3.7795276,0,0,3.7795276,2.5347735e-7,-610.51964)">
    <path
       id="path1165"
       d="m 114.54163,176.47538 c 27.03854,23.43536 28,66.06639 2.14757,95.22323 -25.852437,29.15684 -68.725637,33.79466 -95.764167,10.3593 -27.0385497,-23.43536 -27.9999997,-66.06639 -2.14757,-95.22323 25.85242,-29.15684 68.72562,-33.79466 95.764167,-10.3593 z"
       inkscape:connector-curvature="0"
       style="fill:#3689e6;fill-opacity:1;stroke-width:2.93940401" />
    <path
       id="path1167"
       d="m 135.37022,221.03904 c -0.41047,16.22203 -6.65724,32.84923 -18.77652,46.51757 C 90.741263,296.71346 47.868063,301.35127 20.829523,277.91592 8.1563433,266.93158 1.1897833,251.73581 0.05128329,235.67719 c 0.16014,17.55686 7.12353001,34.46287 20.87161971,46.37887 27.03853,23.43536 69.91377,18.79524 95.764167,-10.3593 13.1511,-14.83205 19.31591,-33.14991 18.68315,-50.65772 z"
       inkscape:connector-curvature="0"
       style="opacity:1;fill:#000000;fill-opacity:0.49019608;stroke-width:2.93940401" />
    <path
       style="fill:#000000;fill-opacity:0.49019608;stroke-width:0.13193676"
       d="m 69.388669,275.58602 c -2.360265,-0.60693 -3.948518,-1.6191 -5.290194,-3.37134 -2.705178,-3.53301 -2.452383,-8.45502 0.601607,-11.71355 1.520834,-1.62269 3.522255,-2.64696 5.556363,-2.8436 4.323385,-0.41795 7.864714,1.69711 9.572869,5.71738 l 0.504523,1.18743 0.003,2.04503 c 0.0025,1.92887 -0.01875,2.10355 -0.376373,3.07563 -1.605446,4.36374 -6.320019,6.9963 -10.571587,5.90302 z m -0.475286,-25.5898 c -1.842509,-0.49729 -3.372024,-1.78295 -4.253309,-3.57518 -0.671389,-1.36537 -0.921037,-2.64063 -0.839417,-4.28794 0.233298,-4.70858 2.78652,-8.42064 9.256361,-13.45755 2.904482,-2.26121 5.130898,-4.10189 6.085625,-5.03126 3.280914,-3.19379 4.422209,-5.87553 4.023237,-9.45352 -0.479191,-4.29744 -3.263466,-7.14651 -7.794084,-7.97547 -1.504937,-0.27535 -4.339497,-0.26225 -5.853474,0.0271 -3.258445,0.62267 -5.482926,2.32783 -7.230006,5.54209 -0.314589,0.57878 -0.840739,1.61778 -1.16922,2.3089 -1.450259,3.05127 -2.433833,4.46633 -3.742388,5.38415 -2.003606,1.40532 -5.486526,1.58693 -7.949037,0.41447 -1.537031,-0.73182 -2.819541,-2.19686 -3.30689,-3.77755 -0.289456,-0.93882 -0.317925,-3.5982 -0.05338,-4.98647 0.953655,-5.00452 4.662772,-9.91675 10.035779,-13.29103 4.552369,-2.85892 9.599522,-4.35458 15.310509,-4.53707 4.890914,-0.15629 10.484143,0.80278 14.842889,2.5451 5.850011,2.33843 10.108061,6.19158 12.266009,11.09964 1.823523,4.14744 2.173813,9.96392 0.843895,14.01264 -0.698167,2.12547 -2.214337,4.81656 -3.716684,6.59684 -1.910582,2.26405 -5.012581,4.96327 -8.865474,7.71435 -6.098252,4.35433 -6.864596,5.16943 -8.3148,8.84372 -1.355838,3.43521 -2.117818,4.54608 -3.649503,5.32051 -1.592571,0.8052 -4.135445,1.047 -5.926637,0.56356 z"
       id="path1365"
       inkscape:connector-curvature="0" />
    <path
       inkscape:connector-curvature="0"
       id="path1363"
       d="m 64.097002,270.29435 c -2.360265,-0.60693 -3.948518,-1.6191 -5.290194,-3.37134 -2.705178,-3.53301 -2.452383,-8.45502 0.601607,-11.71355 1.520834,-1.62269 3.522255,-2.64696 5.556363,-2.8436 4.323385,-0.41795 7.864714,1.69711 9.572869,5.71738 l 0.504523,1.18743 0.003,2.04503 c 0.0025,1.92887 -0.01875,2.10355 -0.376373,3.07563 -1.605446,4.36374 -6.320019,6.9963 -10.571587,5.90302 z m -0.475286,-25.5898 c -1.842509,-0.49729 -3.372024,-1.78295 -4.253309,-3.57518 -0.671389,-1.36537 -0.921037,-2.64063 -0.839417,-4.28794 0.233298,-4.70858 2.78652,-8.42064 9.256361,-13.45755 2.904482,-2.26121 5.130898,-4.10189 6.085625,-5.03126 3.280914,-3.19379 4.422209,-5.87553 4.023237,-9.45352 -0.479191,-4.29744 -3.263466,-7.14651 -7.794084,-7.97547 -1.504937,-0.27535 -4.339497,-0.26225 -5.853474,0.0271 -3.258445,0.62267 -5.482926,2.32783 -7.230006,5.54209 -0.314589,0.57878 -0.840739,1.61778 -1.16922,2.3089 -1.450259,3.05127 -2.433833,4.46633 -3.742388,5.38415 -2.003606,1.40532 -5.486526,1.58693 -7.949037,0.41447 -1.537031,-0.73182 -2.819541,-2.19686 -3.30689,-3.77755 -0.289456,-0.93882 -0.317925,-3.5982 -0.05338,-4.98647 0.953655,-5.00452 4.662772,-9.91675 10.035779,-13.29103 4.552369,-2.85892 9.599522,-4.35458 15.310509,-4.53707 4.890914,-0.15629 10.484143,0.80278 14.842889,2.5451 5.850011,2.33843 10.108061,6.19158 12.266009,11.09964 1.82352,4.14744 2.173813,9.96392 0.843895,14.01264 -0.698167,2.12547 -2.214337,4.81656 -3.716684,6.59684 -1.910582,2.26405 -5.012581,4.96327 -8.865474,7.71435 -6.098252,4.35433 -6.864596,5.16943 -8.3148,8.84372 -1.355838,3.43521 -2.117818,4.54608 -3.649503,5.32051 -1.592571,0.8052 -4.135445,1.047 -5.926637,0.56356 z"
       style="fill:#ffffff;stroke-width:0.13193676" />
  </g>
</svg>
