<?xml version="1.0" encoding="UTF-8" standalone="no"?>
<!-- Created with Inkscape (http://www.inkscape.org/) -->

<svg
   xmlns:dc="http://purl.org/dc/elements/1.1/"
   xmlns:cc="http://creativecommons.org/ns#"
   xmlns:rdf="http://www.w3.org/1999/02/22-rdf-syntax-ns#"
   xmlns:svg="http://www.w3.org/2000/svg"
   xmlns="http://www.w3.org/2000/svg"
   xmlns:sodipodi="http://sodipodi.sourceforge.net/DTD/sodipodi-0.dtd"
   xmlns:inkscape="http://www.inkscape.org/namespaces/inkscape"
   width="512"
   height="512"
   id="svg2"
   version="1.1"
   inkscape:version="0.92.2 5c3e80d, 2017-08-06"
   sodipodi:docname="security-low.svg">
  <defs
     id="defs4" />
  <sodipodi:namedview
     id="base"
     pagecolor="#ffffff"
     bordercolor="#666666"
     borderopacity="1.0"
     inkscape:pageopacity="0.0"
     inkscape:pageshadow="2"
     inkscape:zoom="0.49497475"
     inkscape:cx="155.93228"
     inkscape:cy="202.91152"
     inkscape:document-units="px"
     inkscape:current-layer="layer1"
     showgrid="false"
     inkscape:window-width="1366"
     inkscape:window-height="717"
     inkscape:window-x="0"
     inkscape:window-y="24"
     inkscape:window-maximized="1" />
  <metadata
     id="metadata7">
    <rdf:RDF>
      <cc:Work
         rdf:about="">
        <dc:format>image/svg+xml</dc:format>
        <dc:type
           rdf:resource="http://purl.org/dc/dcmitype/StillImage" />
        <dc:title />
      </cc:Work>
    </rdf:RDF>
  </metadata>
  <g
     inkscape:label="Layer 1"
     inkscape:groupmode="layer"
     id="layer1"
     transform="translate(0,-540.36218)">
    <g
       transform="translate(1.7476037e-7,2.7262595e-6)"
       id="g828">
      <path
         id="path881"
         d="m 432.91328,596.83614 c 102.19291,88.57459 105.82677,249.69971 8.1168,359.89879 C 343.3201,1066.934 181.27965,1084.4628 79.086743,995.8882 -23.106206,907.3136 -26.740033,746.18848 70.969943,635.9894 168.67988,525.79031 330.72036,508.26154 432.91328,596.83614 Z"
         inkscape:connector-curvature="0"
         style="fill:#c6262e;fill-opacity:1;stroke-width:11.10955811" />
      <path
         id="path883"
         d="m 511.63553,765.2657 c -1.5514,61.31165 -25.16124,124.15459 -70.96639,175.81448 C 342.95917,1051.2793 180.9187,1068.808 78.725787,980.23345 30.827132,938.71782 4.4968295,881.285 0.1938355,820.59096 0.79908704,886.94764 27.117419,950.84437 79.078692,995.88122 181.27161,1084.4558 343.31976,1066.9184 441.02204,956.72796 490.72698,900.66982 514.02707,831.43699 511.63553,765.2657 Z"
         inkscape:connector-curvature="0"
         style="opacity:1;fill:#000000;fill-opacity:0.48627451;stroke-width:11.10955811" />
      <path
         style="fill:#000000;fill-opacity:0.48627451;stroke-width:0.25821197"
         d="m 276.65429,650.36169 c -1.58643,-0.008 -3.17097,0.1115 -4.3125,0.35339 -3.19869,0.67801 -5.54456,1.89758 -11.97071,6.22068 -12.64026,8.50352 -21.37801,13.70869 -31.63868,18.84571 -21.79184,10.91017 -42.51679,16.88228 -64.0293,18.45313 -4.98911,0.36435 -7.20796,0.70246 -9.68359,1.47655 -6.16951,1.92914 -10.76299,6.0802 -13.0332,11.77735 -1.6704,4.19191 -1.59519,2.74541 -1.85938,36.19729 -0.26298,33.33309 -0.0982,75.17828 0.31835,80.84568 0.49943,6.79469 2.13129,16.62868 3.87306,23.34376 5.63546,21.72715 18.18816,41.92453 37.89843,60.98045 21.30396,20.59673 47.45094,36.86113 80.4043,50.0137 6.39096,2.5508 8.0294,3.05431 11.01368,3.38086 3.09414,0.33827 7.61527,-0.11489 10.22265,-1.02345 0.71603,-0.24945 2.81203,-1.11799 4.6582,-1.92968 1.84623,-0.81169 6.41418,-2.80433 10.1504,-4.42968 16.70683,-7.268 24.22363,-11.04208 34.9082,-17.52344 18.04403,-10.94578 34.48319,-24.62306 46.70312,-38.85937 4.33954,-5.05561 11.11195,-14.04589 14.02929,-18.62113 9.80962,-15.38426 15.50015,-30.87333 17.34962,-47.22459 0.95785,-8.46728 1.06057,-14.94554 1.06057,-67.65041 v -51.25584 l -0.61719,-2.44339 c -1.61488,-6.41193 -5.68078,-11.40929 -11.45704,-14.07809 -3.11977,-1.44144 -5.95385,-2.11937 -11.85157,-2.83987 -3.03149,-0.37039 -7.31244,-0.90882 -9.51368,-1.19531 -28.74761,-3.74079 -55.74765,-15.01965 -85.85546,-35.86522 -5.42404,-3.75542 -9.54287,-5.9274 -12.44532,-6.56251 -1.14744,-0.25096 -2.73585,-0.38045 -4.32226,-0.38672 z m -0.38087,35.45511 4.44336,2.93748 c 8.54325,5.64632 18.50909,11.42571 27.93946,16.20118 23.04435,11.66951 46.81974,19.00588 69.52344,21.45312 l 1.61328,0.17386 -0.002,44.83008 c -0.003,44.82981 -0.14083,53.61003 -0.91993,59.23242 -2.53183,18.27076 -12.60113,35.96795 -30.82031,54.16603 -9.54652,9.53545 -19.76757,17.4152 -32.57226,25.11133 -9.03565,5.43077 -14.90288,8.33987 -30.84375,15.29492 -4.11432,1.79509 -7.62511,3.32436 -7.80274,3.39844 -0.17764,0.0741 -0.32228,-4.9e-4 -0.32228,-0.16592 0,-0.16479 -0.1087,-0.23547 -0.24023,-0.15421 -0.23407,0.14476 -7.05137,-2.73615 -17.06055,-7.20899 -29.12288,-13.01447 -51.87808,-30.4351 -68.14453,-52.16795 -11.15648,-14.90567 -16.4417,-28.05362 -17.60742,-43.80469 -0.44999,-6.08047 -0.71192,-38.93896 -0.5547,-69.74805 l 0.14843,-28.86134 0.53711,-0.10356 c 0.29646,-0.0567 2.5154,-0.35603 4.92969,-0.66599 30.36257,-3.89949 61.88593,-16.43463 93.67773,-37.24808 z m 0.0976,14.37887 -1.28711,0.86332 c -25.45432,16.48974 -54.01493,27.73841 -87.34375,35.43942 -2.51671,0.39413 -2.9314,0.52819 -3.04101,0.98245 -0.27655,1.14724 0.0545,81.09941 0.35157,84.96091 0.59902,7.78383 1.97079,14.15282 4.31641,20.02931 13.72501,33.79094 53.33559,58.48898 86.42187,72.63477 0.17084,-0.10545 0.21037,-0.0563 0.0996,0.12321 45.10692,-16.05664 68.79882,-41.44505 86.96289,-71.41017 1.29574,-3.03526 2.56044,-6.99027 2.38282,-7.45311 -0.0835,-0.2177 -0.0537,-0.33298 0.0684,-0.25776 0.27209,0.16818 0.87884,-2.32139 1.56641,-6.43552 1.03181,-6.17359 1.13931,-11.01456 1.1582,-52.7969 l 0.0178,-39.88672 -2.06445,-0.33222 c -24.67098,-4.28205 -65.05351,-19.98569 -88.57242,-35.83793 z m 31.27149,60.55665 c 11.42998,0.12775 17.32923,13.71345 9.61914,22.15234 l -20.85156,23.4844 20.85156,23.48825 c 5.04979,5.43946 4.63762,13.968 -0.91315,18.89515 -5.55078,4.92714 -14.068,4.32476 -18.87005,-1.33459 l -18.75782,-21.12696 -18.75781,21.12696 c -4.80205,5.65935 -13.31927,6.26173 -18.87005,1.33459 -5.55077,-4.92715 -5.96294,-13.45569 -0.91315,-18.89515 l 20.85156,-23.48825 -20.85156,-23.4844 c -7.57565,-8.30026 -2.00721,-21.66875 9.2207,-22.13669 4.03343,-0.16857 7.92308,1.51378 10.5625,4.56835 l 18.75781,21.12892 18.75782,-21.12892 c 2.54722,-2.95083 6.26616,-4.62807 10.16406,-4.584 z"
         id="path1032"
         inkscape:connector-curvature="0"
         sodipodi:nodetypes="ccccccscccccccccccccscccccccccccccccccscsccsccccccccccccccccccccccccccccscccscccccccc" />
      <path
         sodipodi:nodetypes="ccccccscccccccccccccscccccccccccccccccscsccsccccccccccccccccccccccccccccscccscccccccc"
         inkscape:connector-curvature="0"
         id="path1008"
         d="m 256.65431,640.36217 c -1.58642,-0.006 -3.17097,0.11157 -4.3125,0.35352 -3.19869,0.67801 -5.54456,1.8976 -11.97071,6.2207 -12.64025,8.50352 -21.37801,13.70868 -31.63867,18.8457 -21.79185,10.91018 -42.51679,16.88228 -64.0293,18.45313 -4.98911,0.36427 -7.20796,0.70247 -9.68359,1.47656 -6.16951,1.92915 -10.76299,6.0802 -13.0332,11.77734 -1.6704,4.19191 -1.59519,2.74539 -1.85938,36.19727 -0.26298,33.33309 -0.0982,75.1783 0.31836,80.8457 0.49943,6.79469 2.13129,16.62867 3.87305,23.34375 5.63546,21.72715 18.18816,41.92455 37.89844,60.98047 21.30395,20.59673 47.45093,36.86111 80.40429,50.01367 6.39096,2.55081 8.0294,3.05431 11.01368,3.38086 3.09414,0.33846 7.61527,-0.11503 10.22265,-1.02344 0.71603,-0.24944 2.81203,-1.11799 4.6582,-1.92968 1.84623,-0.81169 6.41418,-2.80434 10.1504,-4.42969 16.70683,-7.26799 24.22363,-11.04208 34.9082,-17.52344 18.04403,-10.94577 34.48319,-24.62306 46.70312,-38.85937 4.33954,-5.05561 11.11196,-14.04587 14.0293,-18.6211 9.80961,-15.38426 15.50014,-30.87335 17.34961,-47.22461 0.95785,-8.46727 1.06055,-14.94552 1.06055,-67.65039 v -51.25586 l -0.61719,-2.44336 c -1.61488,-6.41196 -5.68078,-11.40932 -11.45703,-14.07812 -3.11977,-1.44144 -5.95384,-2.11935 -11.85156,-2.83984 -3.03149,-0.37036 -7.31244,-0.90883 -9.51368,-1.19532 -28.74761,-3.74078 -55.74765,-15.01966 -85.85546,-35.86523 -5.42404,-3.75542 -9.54287,-5.92739 -12.44532,-6.5625 -1.14744,-0.25087 -2.73585,-0.38045 -4.32226,-0.38672 z m -0.38086,35.45508 4.44336,2.9375 c 8.54324,5.64631 18.50908,11.4257 27.93945,16.20117 23.04435,11.66952 46.81974,19.00588 69.52344,21.45313 l 1.61328,0.17382 -0.002,44.83008 c -0.003,44.82981 -0.14081,53.61004 -0.91993,59.23242 -2.53183,18.27077 -12.60113,35.96793 -30.82031,54.16602 -9.54652,9.53544 -19.76757,17.41519 -32.57226,25.11133 -9.03565,5.43076 -14.90288,8.33987 -30.84375,15.29492 -4.11432,1.79509 -7.6251,3.32436 -7.80274,3.39844 -0.17764,0.0741 -0.32226,-4.8e-4 -0.32226,-0.16602 0,-0.16479 -0.10871,-0.23556 -0.24024,-0.1543 -0.23406,0.14465 -7.05137,-2.73614 -17.06055,-7.20898 -29.12288,-13.01446 -51.87808,-30.43512 -68.14453,-52.16797 -11.15648,-14.90566 -16.4417,-28.05362 -17.60742,-43.80469 -0.44999,-6.08046 -0.71191,-38.93896 -0.55469,-69.74804 l 0.14844,-28.86133 0.53711,-0.10352 c 0.29647,-0.0568 2.5154,-0.35609 4.92969,-0.66601 30.36257,-3.89946 61.88593,-16.43461 93.67773,-37.24805 z m 0.0976,14.3789 -1.28711,0.86329 c -25.45432,16.48977 -54.01493,27.73843 -87.34375,35.43945 -2.51671,0.39413 -2.9314,0.52816 -3.04101,0.98242 -0.27655,1.14724 0.0545,81.09943 0.35156,84.96094 0.59902,7.78382 1.97079,14.15281 4.31641,20.0293 13.72501,33.79093 53.33559,58.48897 86.42187,72.63476 0.17084,-0.10545 0.21035,-0.0565 0.0996,0.12305 45.10692,-16.05661 68.79882,-41.44504 86.96289,-71.41016 1.29574,-3.03526 2.56044,-6.99025 2.38282,-7.45312 -0.0835,-0.2177 -0.0537,-0.33303 0.0684,-0.25782 0.27209,0.16815 0.87884,-2.32141 1.56641,-6.43554 1.03181,-6.17356 1.13931,-11.01454 1.1582,-52.79688 l 0.0176,-39.88672 -2.06445,-0.33203 c -24.67083,-4.28201 -65.05336,-19.98564 -88.57227,-35.83789 z m 31.27149,60.55664 c 11.42998,0.12779 17.32923,13.71343 9.61914,22.15235 l -20.85156,23.48437 20.85156,23.48828 c 5.04979,5.43944 4.63762,13.96799 -0.91315,18.89513 -5.55078,4.92714 -14.068,4.32477 -18.87005,-1.33458 l -18.75782,-21.12695 -18.75781,21.12695 c -4.80205,5.65935 -13.31927,6.26172 -18.87005,1.33458 -5.55077,-4.92714 -5.96294,-13.45569 -0.91315,-18.89513 l 20.85156,-23.48828 -20.85156,-23.48437 c -7.57565,-8.30027 -2.00721,-21.66878 9.2207,-22.13672 4.03343,-0.16851 7.92308,1.51379 10.5625,4.56836 l 18.75781,21.12891 18.75782,-21.12891 c 2.54722,-2.95081 6.26616,-4.62805 10.16406,-4.58399 z"
         style="fill:#ffffff;stroke-width:0.25821197" />
    </g>
  </g>
</svg>
