<?xml version="1.0" encoding="UTF-8" standalone="no"?>
<!-- Created with Inkscape (http://www.inkscape.org/) -->

<svg
   xmlns:dc="http://purl.org/dc/elements/1.1/"
   xmlns:cc="http://creativecommons.org/ns#"
   xmlns:rdf="http://www.w3.org/1999/02/22-rdf-syntax-ns#"
   xmlns:svg="http://www.w3.org/2000/svg"
   xmlns="http://www.w3.org/2000/svg"
   xmlns:sodipodi="http://sodipodi.sourceforge.net/DTD/sodipodi-0.dtd"
   xmlns:inkscape="http://www.inkscape.org/namespaces/inkscape"
   id="svg2"
   version="1.1"
   inkscape:version="0.92.3 (2405546, 2018-03-11)"
   width="22"
   height="22"
   sodipodi:docname="anatine-notification.svg">
  <metadata
     id="metadata8">
    <rdf:RDF>
      <cc:Work
         rdf:about="">
        <dc:format>image/svg+xml</dc:format>
        <dc:type
           rdf:resource="http://purl.org/dc/dcmitype/StillImage" />
        <dc:title />
      </cc:Work>
    </rdf:RDF>
  </metadata>
  <defs
     id="defs6">
    <clipPath
       clipPathUnits="userSpaceOnUse"
       id="clipPath3341">
      <circle
         style="fill:none;stroke:#000000;stroke-width:11.24822521;stroke-miterlimit:4;stroke-dasharray:none;stroke-dashoffset:0;stroke-opacity:1"
         id="circle3343"
         cx="515.44489"
         cy="510.69141"
         r="435.84955" />
    </clipPath>
  </defs>
  <sodipodi:namedview
     pagecolor="#ffffff"
     bordercolor="#666666"
     borderopacity="1"
     objecttolerance="10"
     gridtolerance="10"
     guidetolerance="10"
     inkscape:pageopacity="0"
     inkscape:pageshadow="2"
     inkscape:window-width="1366"
     inkscape:window-height="718"
     id="namedview4"
     showgrid="false"
     inkscape:zoom="7.375"
     inkscape:cx="-11.618622"
     inkscape:cy="4.3682904"
     inkscape:window-x="0"
     inkscape:window-y="25"
     inkscape:window-maximized="1"
     inkscape:current-layer="svg2" />
  <g
     id="g826">
    <path
       style="fill:#68b723;fill-opacity:1;stroke-width:0.47736382"
       inkscape:connector-curvature="0"
       d="M 18.601741,2.4266168 C 22.992843,6.2325562 23.148986,13.155901 18.95051,17.891017 14.752035,22.626133 7.7893592,23.379324 3.3982574,19.573384 -0.99284428,15.767445 -1.1489865,8.8441002 3.0494887,4.1089835 7.2479641,-0.62613325 14.210639,-1.3793226 18.601741,2.4266168 Z"
       id="path27" />
    <path
       style="opacity:1;fill:#000000;fill-opacity:0.49019608;stroke-width:0.47736382"
       inkscape:connector-curvature="0"
       d="M 21.984337,9.6638241 C 21.917676,12.298309 20.903191,14.998592 18.935001,17.218352 14.736525,21.95347 7.7738496,22.706656 3.3827478,18.90072 1.3246026,17.116844 0.1932224,14.649029 0.00832814,12.041083 c 0.02600692,2.851262 1.15687276,5.596823 3.38958376,7.532002 4.3911014,3.805938 11.3541091,3.052378 15.5522521,-1.682368 2.135759,-2.408747 3.136934,-5.383596 3.034173,-8.2268929 z"
       id="path51" />
    <path
       inkscape:connector-curvature="0"
       style="color:#7b7c7e;fill:#000000;fill-opacity:0.49019608;stroke-width:0.95758796"
       class="ColorScheme-Text"
       d="M 10.89407,18.556569 C 9.44607,18.402398 8.149876,17.972561 7.404574,17.191652 7.1034881,16.876606 6.8988907,16.585861 6.728902,16.23311 6.3690645,15.486554 6.256342,14.646991 6.4324297,14.026117 6.6076103,13.408596 7.0059276,12.727394 7.5667368,12.08725 7.8781232,11.731148 8.3232158,11.500729 8.4672497,11.21082 8.8082681,10.625342 8.5956278,10.224568 8.3992701,9.9002067 8.2915797,9.722314 8.1763804,9.6895619 7.6880831,9.7136932 7.2114037,9.7373217 6.9776378,9.7072414 6.7499683,9.5930378 6.5733874,9.5044732 6.5107634,9.4044294 6.5653948,9.297934 6.8492597,9.0681019 6.9487976,8.816736 7.2607611,8.6997673 6.8042697,8.2957382 6.3534634,7.8731087 6.3378903,7.2694949 6.3699445,6.9462384 6.6581759,7.0239942 6.6581759,7.0239942 7.1102183,7.1189268 7.5773389,7.2145297 8.0030123,7.2294441 8.1254582,7.2121836 8.2544955,7.1783328 8.2898441,7.1541182 8.3251163,7.1299869 8.4214364,6.9867089 8.5037529,6.8358053 8.8246152,6.2476928 9.1644292,5.6759103 9.5451134,5.4801803 9.9837251,5.2546214 10.924682,5.1338818 11.513754,5.1596889 c 0.707974,0.030918 1.309488,0.2850491 1.800587,0.760717 0.337836,0.327027 0.561139,0.4088047 0.882495,0.3228375 0.225775,-0.060412 0.231542,-0.060161 0.231542,0.013406 0,0.096608 -0.07498,0.2217888 -0.188695,0.3173917 l -0.10547,0.088061 0.106296,0.065271 c 0.145845,0.089905 0.128541,0.1622148 -0.04533,0.1881894 -0.144199,0.021618 -0.252965,0.071388 -0.252965,0.1162146 0,0.015837 0.0206,0.1529146 0.04615,0.3046557 0.06263,0.3723565 0.04037,1.0937768 -0.0445,1.4498786 -0.131014,0.552167 -0.329596,0.9408623 -0.669081,1.3099506 -0.263677,0.249103 -1.330459,0.759796 -1.399674,0.805544 0.03296,0 0.318061,-0.01743 0.509227,1.72e-4 0.700393,0.06435 1.188197,0.377819 1.891061,0.718 0.663313,0.32091 1.069413,0.338028 1.436912,0.143638 0.516075,-0.367058 0.820396,-0.861829 1.238588,-0.861906 0.922948,8.6e-5 0.912119,1.939468 0.857775,2.826125 0.06517,2.285335 -1.941324,4.112345 -4.249327,4.651106 -0.622938,0.144954 -0.87343,0.170929 -1.736974,0.180983 -0.447427,0.0042 -0.865521,0.0034 -0.928391,-0.0034 z"
       id="path840" />
    <path
       id="path5"
       d="M 10.034695,17.697194 C 8.586695,17.543023 7.290501,17.113186 6.545199,16.332277 6.2441131,16.017231 6.0395157,15.726486 5.869527,15.373735 5.5096895,14.627179 5.396967,13.787616 5.5730547,13.166742 5.7482353,12.549221 6.1465526,11.868019 6.7073618,11.227875 7.0187482,10.871773 7.4638408,10.641354 7.6078747,10.351445 7.9488931,9.7659672 7.7362528,9.3651925 7.5398951,9.0408317 7.4322047,8.862939 7.3170054,8.8301869 6.8287081,8.8543182 6.3520287,8.8779467 6.1182628,8.8478664 5.8905933,8.7336628 5.7140124,8.6450982 5.6513884,8.5450544 5.7060198,8.438559 5.9898847,8.2087269 6.0894226,7.957361 6.4013861,7.8403923 5.9448947,7.4363632 5.4940884,7.0137337 5.4785153,6.4101199 5.5105695,6.0868634 5.7988009,6.1646192 5.7988009,6.1646192 6.2508433,6.2595518 6.7179639,6.3551547 7.1436373,6.3700691 7.2660832,6.3528086 7.3951205,6.3189578 7.4304691,6.2947432 7.4657413,6.2706119 7.5620614,6.1273339 7.6443779,5.9764303 7.9652402,5.3883178 8.3050542,4.8165353 8.6857384,4.6208053 9.1243501,4.3952464 10.065307,4.2745068 10.654379,4.3003139 c 0.707974,0.030918 1.309488,0.2850491 1.800587,0.760717 0.337836,0.327027 0.561139,0.4088047 0.882495,0.3228375 0.225775,-0.060412 0.231542,-0.060161 0.231542,0.013406 0,0.096608 -0.07498,0.2217888 -0.188695,0.3173917 l -0.10547,0.088061 0.106296,0.065271 c 0.145845,0.089905 0.128541,0.1622148 -0.04533,0.1881894 -0.144199,0.021618 -0.252965,0.071388 -0.252965,0.1162146 0,0.015837 0.0206,0.1529146 0.04615,0.3046557 0.06263,0.3723565 0.04037,1.0937768 -0.0445,1.4498786 -0.131014,0.552167 -0.329596,0.9408623 -0.669081,1.3099514 -0.263677,0.2491031 -1.330459,0.7597953 -1.399674,0.8055432 0.03296,0 0.318061,-0.01743 0.509227,1.72e-4 0.700393,0.06435 1.188197,0.377819 1.891061,0.718 0.663313,0.32091 1.069413,0.338028 1.436912,0.143638 0.516075,-0.367058 0.820396,-0.861829 1.238588,-0.861906 0.922948,8.6e-5 0.912119,1.939468 0.857775,2.826125 0.06517,2.285335 -1.941324,4.112345 -4.249327,4.651106 -0.622938,0.144954 -0.87343,0.170929 -1.736974,0.180983 -0.447427,0.0042 -0.865521,0.0034 -0.928391,-0.0034 z"
       class="ColorScheme-Text"
       style="color:#7b7c7e;fill:#ffffff;fill-opacity:1;stroke-width:0.95758796"
       inkscape:connector-curvature="0" />
  </g>
</svg>
