<?xml version="1.0" encoding="UTF-8" standalone="no"?>
<!-- Created with Inkscape (http://www.inkscape.org/) -->

<svg
   xmlns:dc="http://purl.org/dc/elements/1.1/"
   xmlns:cc="http://creativecommons.org/ns#"
   xmlns:rdf="http://www.w3.org/1999/02/22-rdf-syntax-ns#"
   xmlns:svg="http://www.w3.org/2000/svg"
   xmlns="http://www.w3.org/2000/svg"
   xmlns:sodipodi="http://sodipodi.sourceforge.net/DTD/sodipodi-0.dtd"
   xmlns:inkscape="http://www.inkscape.org/namespaces/inkscape"
   width="22"
   height="22"
   viewBox="0 0 22 22"
   id="svg2"
   version="1.1"
   inkscape:version="0.92.2 5c3e80d, 2017-08-06"
   sodipodi:docname="aptdaemon-wait.svg">
  <defs
     id="defs4" />
  <sodipodi:namedview
     id="base"
     pagecolor="#ffffff"
     bordercolor="#666666"
     borderopacity="1.0"
     inkscape:pageopacity="0.0"
     inkscape:pageshadow="2"
     inkscape:zoom="5.6"
     inkscape:cx="-1.2548151"
     inkscape:cy="25.405592"
     inkscape:document-units="px"
     inkscape:current-layer="layer1"
     showgrid="false"
     units="px"
     inkscape:window-width="1366"
     inkscape:window-height="719"
     inkscape:window-x="0"
     inkscape:window-y="22"
     inkscape:window-maximized="1" />
  <metadata
     id="metadata7">
    <rdf:RDF>
      <cc:Work
         rdf:about="">
        <dc:format>image/svg+xml</dc:format>
        <dc:type
           rdf:resource="http://purl.org/dc/dcmitype/StillImage" />
        <dc:title />
      </cc:Work>
    </rdf:RDF>
  </metadata>
  <g
     inkscape:label="Layer 1"
     inkscape:groupmode="layer"
     id="layer1"
     transform="translate(0,-1030.3622)">
    <g
       transform="matrix(0.16240158,0,0,0.16240158,-6.4278092e-7,1004.1289)"
       id="g1003">
      <path
         style="fill:#c6262e;fill-opacity:1;stroke-width:2.93940377"
         inkscape:connector-curvature="0"
         d="m 114.54164,176.47539 c 27.03854,23.43536 28,66.06638 2.14757,95.22322 -25.85243,29.15684 -68.725635,33.79466 -95.764176,10.3593 -27.0385417,-23.43536 -27.9999994,-66.06638 -2.14757,-95.22322 25.852429,-29.15684 68.725634,-33.79466 95.764176,-10.3593 z"
         id="path27" />
      <path
         style="opacity:0.1;stroke-width:2.93940377"
         inkscape:connector-curvature="0"
         d="m 135.37023,221.03904 c -0.41047,16.22204 -6.65724,32.84924 -18.77652,46.51758 C 90.741279,296.71347 47.868074,301.35128 20.829532,277.91593 8.156347,266.93158 1.189788,251.73582 0.05128753,235.67719 c 0.1601395,17.55687 7.12353137,34.46287 20.87161747,46.37888 27.038541,23.43535 69.913781,18.79524 95.764175,-10.35931 13.1511,-14.83204 19.31591,-33.1499 18.68315,-50.65772 z"
         id="path51" />
      <path
         style="fill:#b32229;fill-opacity:1;stroke:none;stroke-width:0.27646142px;stroke-linecap:butt;stroke-linejoin:miter;stroke-opacity:1"
         d="m 109.0064,202.40372 c -0.12529,-0.001 -0.19948,0.007 -0.19948,0.007 0,0 -23.761011,0.9307 -38.843102,1.04024 -15.082091,0.10953 -38.043672,-1.04024 -38.043672,-1.04024 0,0 -1.383218,0.017 -2.160075,0.92035 -0.77686,0.90341 -0.639754,1.91978 -0.639754,1.91978 0,0 2.995723,22.96256 2.52336,34.15967 -0.472366,11.1971 -2.432928,23.98716 -2.432928,23.98716 0,0 -0.428906,1.20724 0.434083,2.24224 0.862999,1.035 2.155423,0.89658 2.155423,0.89658 0,0 24.146433,-0.68806 38.963512,-0.68006 14.817087,0.009 37.706743,0.70952 37.706743,0.70952 0,0 1.2126,0.11234 2.14974,-0.56586 0.93721,-0.67816 0.94775,-1.78232 0.94775,-1.78232 0,0 -1.90475,-13.04951 -2.56109,-25.96379 -0.65634,-12.91428 2.64067,-32.96284 2.64067,-32.96284 0,0 0.1324,-1.22453 -0.76016,-2.12029 -0.66942,-0.67182 -1.50517,-0.76356 -1.88102,-0.76739 z m -54.237521,6.15001 a 3.9687499,3.9687499 0 0 1 3.96875,3.96875 3.9687499,3.9687499 0 0 1 -3.96875,3.96875 3.9687499,3.9687499 0 0 1 -3.96875,-3.96875 3.9687499,3.9687499 0 0 1 3.96875,-3.96875 z m 31.220833,0 a 3.9687499,3.9687499 0 0 1 3.96875,3.96875 3.9687499,3.9687499 0 0 1 -3.96875,3.96875 3.9687499,3.9687499 0 0 1 -3.96875,-3.96875 3.9687499,3.9687499 0 0 1 3.96875,-3.96875 z M 66.132527,223.6479 h 8.470283 l 10.593152,31.9412 h -6.669876 l -2.123387,-6.48487 H 64.101644 l -2.076876,6.48487 h -6.462139 z m 4.13153,6.55464 -4.316016,13.20074 h 8.608777 z"
         id="path917"
         inkscape:connector-curvature="0" />
      <path
         inkscape:connector-curvature="0"
         id="path919"
         d="m 70.339844,187.0957 c -4.051357,-0.0123 -7.384921,1.77873 -9.822266,4.28907 -2.437345,2.51034 -4.094132,5.70554 -5.287109,8.83203 -2.385955,6.25298 -2.908203,12.41015 -2.908203,12.41015 l 3.953125,0.34766 c 0,0 0.518346,-5.72549 2.662109,-11.34375 1.071882,-2.80913 2.550523,-5.54704 4.427734,-7.48047 1.877211,-1.93343 4.038482,-3.09482 6.962891,-3.08594 2.911861,0.009 5.101696,1.2103 7.019531,3.21094 1.917835,2.00064 3.443731,4.82364 4.560547,7.71094 2.233633,5.7746 2.835938,11.64062 2.835938,11.64062 l 3.949218,-0.39648 c 0,0 -0.612559,-6.28642 -3.083984,-12.67578 -1.235713,-3.19468 -2.934011,-6.4566 -5.396484,-9.02539 -2.462474,-2.5688 -5.809143,-4.42125 -9.873047,-4.4336 z"
         style="color:#000000;font-style:normal;font-variant:normal;font-weight:normal;font-stretch:normal;font-size:medium;line-height:normal;font-family:sans-serif;font-variant-ligatures:normal;font-variant-position:normal;font-variant-caps:normal;font-variant-numeric:normal;font-variant-alternates:normal;font-feature-settings:normal;text-indent:0;text-align:start;text-decoration:none;text-decoration-line:none;text-decoration-style:solid;text-decoration-color:#000000;letter-spacing:normal;word-spacing:normal;text-transform:none;writing-mode:lr-tb;direction:ltr;text-orientation:mixed;dominant-baseline:auto;baseline-shift:baseline;text-anchor:start;white-space:normal;shape-padding:0;clip-rule:nonzero;display:inline;overflow:visible;visibility:visible;opacity:1;isolation:auto;mix-blend-mode:normal;color-interpolation:sRGB;color-interpolation-filters:linearRGB;solid-color:#000000;solid-opacity:1;vector-effect:none;fill:#b32229;fill-opacity:1;fill-rule:nonzero;stroke:none;stroke-width:3.96875;stroke-linecap:butt;stroke-linejoin:miter;stroke-miterlimit:4;stroke-dasharray:none;stroke-dashoffset:0;stroke-opacity:1;color-rendering:auto;image-rendering:auto;shape-rendering:auto;text-rendering:auto;enable-background:accumulate" />
      <g
         id="g905">
        <path
           inkscape:connector-curvature="0"
           style="fill:#ffffff;stroke:none;stroke-width:1.04489362px;stroke-linecap:butt;stroke-linejoin:miter;stroke-opacity:1"
           d="m 401.99219,144.4707 c -0.47352,-0.005 -0.75391,0.0274 -0.75391,0.0274 0,0 -89.80541,3.51763 -146.80859,3.93164 -57.00318,0.41397 -143.78711,-3.93164 -143.78711,-3.93164 0,0 -5.22791,0.0641 -8.16406,3.47851 -2.936165,3.41443 -2.41797,7.25586 -2.41797,7.25586 0,0 11.32242,86.7876 9.53711,129.10742 C 107.81234,326.65963 100.40234,375 100.40234,375 c 0,0 -1.62106,4.5628 1.64063,8.47461 3.26173,3.91181 8.14648,3.38867 8.14648,3.38867 0,0 91.26211,-2.60055 147.26367,-2.57031 56.00159,0.0328 142.51368,2.68164 142.51368,2.68164 0,0 4.58305,0.42457 8.125,-2.13867 3.54221,-2.56316 3.58203,-6.73633 3.58203,-6.73633 0,0 -7.19903,-49.32098 -9.67969,-98.13086 -2.48065,-48.80988 9.98047,-124.58398 9.98047,-124.58398 0,0 0.50041,-4.62813 -2.87305,-8.01368 -2.53009,-2.53919 -5.68881,-2.88592 -7.10937,-2.90039 z M 197,167.71484 a 15,15 0 0 1 15,15 15,15 0 0 1 -15,15 15,15 0 0 1 -15,-15 15,15 0 0 1 15,-15 z m 118,0 a 15,15 0 0 1 15,15 15,15 0 0 1 -15,15 15,15 0 0 1 -15,-15 15,15 0 0 1 15,-15 z m -75.05078,57.04883 h 32.01367 L 312,345.48633 h -25.20898 l -8.0254,-24.50977 h -46.49218 l -7.84961,24.50977 H 200 Z m 15.61523,24.77344 -16.3125,49.89258 h 32.53711 z"
           transform="matrix(0.26458333,0,0,0.26458333,0,161.53332)"
           id="path882" />
        <path
           style="fill:none;stroke:#ffffff;stroke-width:3.96875;stroke-linecap:butt;stroke-linejoin:miter;stroke-miterlimit:4;stroke-dasharray:none;stroke-opacity:1"
           d="m 51.65227,210.15487 c 0,0 2.083671,-23.76368 16.035202,-23.7213 13.951531,0.0424 16.385881,24.34912 16.385881,24.34912"
           id="path892"
           inkscape:connector-curvature="0"
           sodipodi:nodetypes="czc" />
      </g>
    </g>
  </g>
</svg>
