<?xml version="1.0" encoding="UTF-8" standalone="no"?>
<!-- Created with Inkscape (http://www.inkscape.org/) -->

<svg
   xmlns:dc="http://purl.org/dc/elements/1.1/"
   xmlns:cc="http://creativecommons.org/ns#"
   xmlns:rdf="http://www.w3.org/1999/02/22-rdf-syntax-ns#"
   xmlns:svg="http://www.w3.org/2000/svg"
   xmlns="http://www.w3.org/2000/svg"
   xmlns:sodipodi="http://sodipodi.sourceforge.net/DTD/sodipodi-0.dtd"
   xmlns:inkscape="http://www.inkscape.org/namespaces/inkscape"
   width="22"
   height="22"
   viewBox="0 0 22 22"
   id="svg2"
   version="1.1"
   inkscape:version="0.92.2 5c3e80d, 2017-08-06"
   sodipodi:docname="audio-volume-low.svg">
  <defs
     id="defs4" />
  <sodipodi:namedview
     id="base"
     pagecolor="#ffffff"
     bordercolor="#666666"
     borderopacity="1.0"
     inkscape:pageopacity="0.0"
     inkscape:pageshadow="2"
     inkscape:zoom="11.2"
     inkscape:cx="16.354174"
     inkscape:cy="2.987357"
     inkscape:document-units="px"
     inkscape:current-layer="layer1"
     showgrid="false"
     units="px"
     inkscape:window-width="1366"
     inkscape:window-height="717"
     inkscape:window-x="0"
     inkscape:window-y="24"
     inkscape:window-maximized="1" />
  <metadata
     id="metadata7">
    <rdf:RDF>
      <cc:Work
         rdf:about="">
        <dc:format>image/svg+xml</dc:format>
        <dc:type
           rdf:resource="http://purl.org/dc/dcmitype/StillImage" />
        <dc:title />
      </cc:Work>
    </rdf:RDF>
  </metadata>
  <g
     inkscape:label="Layer 1"
     inkscape:groupmode="layer"
     id="layer1"
     transform="translate(0,-1030.3622)">
    <g
       transform="matrix(0.16240158,0,0,0.16240158,-24.057323,1004.1289)"
       id="g1051">
      <path
         id="path848"
         d="m 262.67645,176.47539 c 27.03854,23.43536 27.99999,66.06638 2.14756,95.22322 -25.85242,29.15684 -68.72563,33.79466 -95.76417,10.3593 -27.03854,-23.43536 -28,-66.06638 -2.14757,-95.22322 25.85243,-29.15684 68.72563,-33.79466 95.76418,-10.3593 z"
         inkscape:connector-curvature="0"
         style="fill:#7c6655;fill-opacity:1;stroke-width:2.93940377" />
      <path
         inkscape:connector-curvature="0"
         id="rect928-3"
         transform="matrix(0.26458333,0,0,0.26458333,0,161.53332)"
         d="m 568.07031,341.33984 c 11.51991,43.40798 35.18118,83.22969 70.89649,114.18555 102.1929,88.57459 264.23342,71.04674 361.9434,-39.15234 20.5214,-23.14441 36.5534,-48.54001 48.1601,-75.03321 z"
         style="fill:#f9c440;fill-opacity:1;stroke:none;stroke-width:1.29078257;stroke-miterlimit:4;stroke-dasharray:none;stroke-opacity:1" />
      <g
         transform="matrix(2.1285162,1.8448678,-2.0351436,2.2952722,213.6272,129.90329)"
         id="g854">
        <path
           style="opacity:0.1"
           inkscape:connector-curvature="0"
           d="m 40.03,7.531 c 3.712,4.084 5.969,9.514 5.969,15.469 0,12.703 -10.297,23 -23,23 C 17.045,46 11.615,43.744 7.53,40.031 11.708,44.322 17.54,47 23.999,47 c 12.703,0 23,-10.298 23,-23 0,-6.462 -2.677,-12.291 -6.969,-16.469 z"
           id="path852" />
      </g>
      <path
         inkscape:connector-curvature="0"
         id="path858"
         d="m 183.01532,246.05774 c -4.01676,-5.11675 -5.63787,-8.92711 -5.76999,-13.56223 -0.23834,-8.36235 6.24033,-17.33605 17.06323,-23.63455 1.93629,-1.12685 2.73903,-1.49274 2.32242,-1.0586 -0.39001,0.40647 -2.38283,4.19327 -3.2814,6.23547 -5.90465,13.41971 -5.07726,27.6025 2.36849,40.60026 l 1.12712,1.96755 -1.42959,-0.75554 c -1.80488,-0.95388 -3.93674,-2.31269 -5.82804,-3.71466 -1.45318,-1.0772 -5.80845,-5.10475 -6.57224,-6.0777 z m 21.03286,13.93291 c -7.91911,-9.83514 -11.65341,-21.21398 -10.49691,-31.98537 0.63517,-5.91588 3.04575,-12.74351 6.47451,-18.33824 3.5442,-5.78309 8.65731,-11.2226 13.4109,-14.26701 5.9027,-3.78033 9.23049,-3.25474 12.72955,2.01055 7.31984,11.0147 9.60414,38.07158 4.83877,57.31389 -1.12402,4.53879 -2.36506,7.84152 -4.08168,10.8625 -1.20985,2.12914 -3.31095,4.3344 -4.79286,5.03046 -2.3773,1.11665 -5.59914,0.17878 -9.97499,-2.90364 -1.6942,-1.19341 -6.65393,-5.91814 -8.10729,-7.72314 z m 14.73554,2.48261 c 1.60776,0.59876 3.00352,0.0684 4.56319,-1.73385 3.7123,-4.28971 6.1539,-15.17924 6.23041,-27.78771 0.0682,-11.22963 -1.58223,-20.95721 -4.56549,-26.90959 -1.91908,-3.82908 -4.13546,-5.38407 -6.41082,-4.49775 -1.24648,0.48555 -2.88305,2.35462 -3.93924,4.49889 -4.51401,9.16422 -5.82066,27.92602 -2.94429,42.27592 0.72998,3.64175 2.23769,8.2444 3.37471,10.30207 0.983,1.7789 2.56916,3.43404 3.69153,3.85202 z m -5.38755,-21.49678 c -0.58418,-4.02156 -0.75643,-9.63857 -0.43002,-14.02261 0.2134,-2.86623 0.55782,-5.40271 0.76136,-5.60719 0.26186,-0.26307 2.03918,-0.31184 3.07091,-0.0843 1.36859,0.30184 2.6112,1.01656 3.76605,2.16612 1.24157,1.2359 1.97172,2.46242 2.67219,4.4889 0.46144,1.33493 0.55804,2.03797 0.5576,4.05761 -8.8e-4,3.97136 -1.01737,6.52016 -3.53991,8.87625 -1.17953,1.10166 -1.47068,1.28981 -2.59098,1.67414 -1.22889,0.42156 -3.52264,0.51025 -3.88435,0.15019 -0.0875,-0.0871 -0.25974,-0.85169 -0.38285,-1.69914 z m 23.86693,8.53292 c -0.29424,-0.779 -0.0958,-1.80387 0.45686,-2.35902 0.50006,-0.50236 1.51204,-0.79008 2.19934,-0.62529 0.64957,0.15573 0.89223,0.37369 5.2875,4.74886 4.39528,4.37516 4.61436,4.61682 4.77306,5.26567 0.17201,0.70319 -0.11741,1.70212 -0.64746,2.2346 -0.44091,0.44294 -1.64711,0.63127 -2.41917,0.37775 -0.59746,-0.19618 -1.12838,-0.67807 -5.01634,-4.55289 -3.95507,-3.94215 -4.37405,-4.40171 -4.63379,-5.08968 z m 6.43505,-16.48831 c -0.58782,-0.86462 -0.10013,-2.5531 0.91719,-3.17557 0.60074,-0.36756 13.39636,-0.40086 13.99854,-0.0365 1.1044,0.66835 1.51892,2.25931 0.85878,3.29598 -0.67969,1.06736 -1.00621,1.11704 -7.59514,1.1557 -3.46123,0.0203 -6.56676,-0.0598 -6.90116,-0.17802 -0.60222,-0.21287 -0.82949,-0.40165 -1.27821,-1.06168 z m -6.56958,-17.16166 c -0.11961,-0.31406 -0.1837,-0.86635 -0.14242,-1.22735 l 0.0751,-0.65632 4.70911,-4.63529 c 5.21441,-5.13263 5.11133,-5.05801 6.51825,-4.72072 1.32057,0.31656 2.02371,1.63548 1.55989,2.92597 -0.26735,0.74388 -0.49389,0.98699 -4.83104,5.18448 -4.03905,3.90901 -4.61443,4.41747 -5.11915,4.5238 -1.17658,0.24791 -2.37372,-0.35489 -2.7697,-1.39459 z"
         style="fill:#705c4d;fill-opacity:1;stroke-width:0.18061036" />
      <path
         inkscape:connector-curvature="0"
         id="path1024"
         transform="matrix(0.26458333,0,0,0.26458333,0,161.53332)"
         d="m 715.17383,341.33984 c 0.46848,0.37391 1.00261,0.81627 1.37695,1.09375 7.14822,5.29879 15.20575,10.43385 22.02734,14.03907 l 5.4043,2.85546 -4.25976,-7.43554 c -2.00211,-3.49501 -3.86455,-7.01504 -5.61328,-10.55274 z m 35.55078,0 c 5.67625,10.57105 12.51132,20.88592 20.48047,30.78321 5.49301,6.82204 24.2393,24.67892 30.64258,29.18945 16.53864,11.65009 28.7161,15.19502 37.70117,10.97461 5.60092,-2.63078 13.54062,-10.96653 18.11328,-19.01367 6.48801,-11.41788 11.17947,-23.90021 15.42773,-41.05469 0.87994,-3.55312 1.67802,-7.19531 2.43164,-10.87891 h -16.18554 c -3.93907,14.88252 -9.11233,26.59093 -15.18946,33.61328 -5.89481,6.81166 -11.17147,8.81577 -17.24804,6.55274 -4.24203,-1.57977 -10.2359,-7.83519 -13.95117,-14.55859 -2.9766,-5.38677 -6.60779,-15.3944 -9.48633,-25.60743 z m 153.18555,0 c 2.44783,2.50984 5.69453,5.76833 10.3457,10.4043 14.69465,14.64499 16.70087,16.46752 18.95898,17.20898 2.91803,0.95819 7.4781,0.24637 9.14454,-1.42773 2.00333,-2.01252 3.09738,-5.78954 2.44726,-8.44727 -0.56653,-2.31626 -1.79784,-3.70745 -15.87891,-17.73828 z"
         style="fill:#e1b13a;fill-opacity:1;stroke-width:0.68262184" />
      <path
         style="fill:#ffffff;stroke-width:0.18061036"
         d="m 180.36948,243.41191 c -4.01676,-5.11675 -5.63786,-8.92711 -5.76998,-13.56223 -0.23834,-8.36235 6.24032,-17.33605 17.06322,-23.63455 1.9363,-1.12685 2.73904,-1.49274 2.32243,-1.0586 -0.39001,0.40647 -2.38284,4.19327 -3.2814,6.23547 -5.90465,13.41971 -5.07727,27.6025 2.36849,40.60026 l 1.12712,1.96755 -1.42959,-0.75554 c -1.80488,-0.95388 -3.93674,-2.31269 -5.82805,-3.71466 -1.45317,-1.0772 -5.80844,-5.10475 -6.57224,-6.0777 z m 21.03287,13.93291 c -7.91912,-9.83514 -11.65341,-21.21398 -10.49691,-31.98537 0.63517,-5.91588 3.04574,-12.74351 6.47451,-18.33824 3.5442,-5.78309 8.65731,-11.2226 13.41089,-14.26701 5.9027,-3.78033 9.2305,-3.25474 12.72956,2.01055 7.31983,11.0147 9.60414,38.07158 4.83877,57.31389 -1.12403,4.53879 -2.36506,7.84152 -4.08168,10.8625 -1.20985,2.12914 -3.31095,4.3344 -4.79286,5.03046 -2.3773,1.11665 -5.59914,0.17878 -9.97499,-2.90364 -1.6942,-1.19341 -6.65393,-5.91814 -8.10729,-7.72314 z m 14.73554,2.48261 c 1.60775,0.59876 3.00351,0.0684 4.56318,-1.73385 3.71231,-4.28971 6.15391,-15.17924 6.23042,-27.78771 0.0682,-11.22963 -1.58223,-20.95721 -4.56549,-26.90959 -1.91909,-3.82908 -4.13547,-5.38407 -6.41082,-4.49775 -1.24648,0.48555 -2.88305,2.35462 -3.93925,4.49889 -4.514,9.16422 -5.82065,27.92602 -2.94428,42.27592 0.72997,3.64175 2.23769,8.2444 3.37471,10.30207 0.983,1.7789 2.56916,3.43404 3.69153,3.85202 z m -5.38756,-21.49678 c -0.58418,-4.02156 -0.75642,-9.63857 -0.43002,-14.02261 0.21341,-2.86623 0.55782,-5.40271 0.76137,-5.60719 0.26186,-0.26307 2.03917,-0.31184 3.07091,-0.0843 1.36859,0.30184 2.6112,1.01656 3.76605,2.16612 1.24157,1.2359 1.97172,2.46242 2.67219,4.4889 0.46144,1.33493 0.55804,2.03797 0.5576,4.05761 -8.8e-4,3.97136 -1.01737,6.52016 -3.53992,8.87625 -1.17953,1.10166 -1.47067,1.28981 -2.59098,1.67414 -1.22888,0.42156 -3.52263,0.51025 -3.88435,0.15019 -0.0875,-0.0871 -0.25973,-0.85169 -0.38285,-1.69914 z m 23.86694,8.53292 c -0.29424,-0.779 -0.0957,-1.80387 0.45686,-2.35902 0.50006,-0.50236 1.51203,-0.79008 2.19934,-0.62529 0.64957,0.15573 0.89222,0.37369 5.2875,4.74886 4.39528,4.37516 4.61436,4.61682 4.77306,5.26567 0.17201,0.70319 -0.11742,1.70212 -0.64747,2.2346 -0.4409,0.44294 -1.6471,0.63127 -2.41917,0.37775 -0.59746,-0.19618 -1.12837,-0.67807 -5.01634,-4.55289 -3.95507,-3.94215 -4.37404,-4.40171 -4.63378,-5.08968 z m 6.43505,-16.48831 c -0.58782,-0.86462 -0.10014,-2.5531 0.91719,-3.17557 0.60073,-0.36756 13.39636,-0.40086 13.99854,-0.0365 1.1044,0.66835 1.51892,2.25931 0.85878,3.29598 -0.67969,1.06736 -1.00621,1.11704 -7.59514,1.1557 -3.46123,0.0203 -6.56676,-0.0598 -6.90116,-0.17802 -0.60223,-0.21287 -0.82949,-0.40165 -1.27821,-1.06168 z m -6.56958,-17.16166 c -0.11961,-0.31406 -0.18371,-0.86635 -0.14242,-1.22735 l 0.0751,-0.65632 4.70911,-4.63529 c 5.2144,-5.13263 5.11132,-5.05801 6.51824,-4.72072 1.32058,0.31656 2.02372,1.63548 1.5599,2.92597 -0.26736,0.74388 -0.49389,0.98699 -4.83104,5.18448 -4.03906,3.90901 -4.61443,4.41747 -5.11915,4.5238 -1.17658,0.24791 -2.37372,-0.35489 -2.7697,-1.39459 z"
         id="path860"
         inkscape:connector-curvature="0" />
    </g>
  </g>
</svg>
