<?xml version="1.0" encoding="UTF-8" standalone="no"?>
<!-- Created with Inkscape (http://www.inkscape.org/) -->

<svg
   xmlns:dc="http://purl.org/dc/elements/1.1/"
   xmlns:cc="http://creativecommons.org/ns#"
   xmlns:rdf="http://www.w3.org/1999/02/22-rdf-syntax-ns#"
   xmlns:svg="http://www.w3.org/2000/svg"
   xmlns="http://www.w3.org/2000/svg"
   xmlns:sodipodi="http://sodipodi.sourceforge.net/DTD/sodipodi-0.dtd"
   xmlns:inkscape="http://www.inkscape.org/namespaces/inkscape"
   width="22"
   height="22"
   viewBox="0 0 22 22"
   id="svg2"
   version="1.1"
   inkscape:version="0.92.3 (2405546, 2018-03-11)"
   sodipodi:docname="audio-input-microphone-medium.svg">
  <defs
     id="defs4" />
  <sodipodi:namedview
     id="base"
     pagecolor="#ffffff"
     bordercolor="#666666"
     borderopacity="1.0"
     inkscape:pageopacity="0.0"
     inkscape:pageshadow="2"
     inkscape:zoom="11.2"
     inkscape:cx="8.0059601"
     inkscape:cy="4.995523"
     inkscape:document-units="px"
     inkscape:current-layer="layer1"
     showgrid="false"
     units="px"
     inkscape:window-width="1366"
     inkscape:window-height="718"
     inkscape:window-x="0"
     inkscape:window-y="25"
     inkscape:window-maximized="1" />
  <metadata
     id="metadata7">
    <rdf:RDF>
      <cc:Work
         rdf:about="">
        <dc:format>image/svg+xml</dc:format>
        <dc:type
           rdf:resource="http://purl.org/dc/dcmitype/StillImage" />
        <dc:title />
      </cc:Work>
    </rdf:RDF>
  </metadata>
  <g
     inkscape:label="Layer 1"
     inkscape:groupmode="layer"
     id="layer1"
     transform="translate(0,-1030.3622)">
    <g
       id="g851">
      <path
         id="path864"
         d="m 18.601695,1032.7888 c 4.391102,3.8059 4.547243,10.7293 0.348769,15.4644 -4.198476,4.7351 -11.1611526,5.4883 -15.5522542,1.6824 -4.39110159,-3.806 -4.5472442,-10.7293 -0.3487687,-15.4644 4.1984754,-4.7351 11.1611509,-5.4883 15.5522539,-1.6824 z"
         inkscape:connector-curvature="0"
         style="fill:#7c6655;fill-opacity:1;stroke-width:0.47736382" />
      <path
         id="rect928"
         d="m 0.97980507,1037.6956 c -1.87565867,4.2818 -1.05034196,9.2335 2.41841773,12.24 4.3911016,3.806 11.3537752,3.0527 15.5522522,-1.6824 2.731046,-3.0801 3.618798,-7.0859 2.697633,-10.5576 z"
         style="fill:#68b723;fill-opacity:1;stroke:none;stroke-width:0.07843812;stroke-miterlimit:4;stroke-dasharray:none;stroke-opacity:1"
         inkscape:connector-curvature="0" />
      <path
         id="path868"
         d="m 21.984291,1040.026 c -0.06666,2.6345 -1.081148,5.3348 -3.049338,7.5545 -4.198475,4.7352 -11.1611509,5.4884 -15.5522525,1.6824 -2.0581461,-1.7839 -3.18952646,-4.2517 -3.37442066,-6.8596 0.02600699,2.8512 1.15687256,5.5968 3.38958406,7.532 4.3911016,3.8059 11.3541081,3.0524 15.5522541,-1.6824 2.135758,-2.4087 3.136934,-5.3836 3.034173,-8.2269 z"
         inkscape:connector-curvature="0"
         style="opacity:1;fill:#000000;fill-opacity:0.49019608;stroke-width:0.47736382" />
      <path
         style="fill:#000000;fill-opacity:0.49019608;stroke-width:0.03155647"
         d="m 9.623711,1048.4761 v -0.3782 l 0.923028,-0.01 0.923027,-0.01 0.0089,-0.7573 c 0.0049,-0.4166 0.0011,-0.7893 -0.0085,-0.8284 -0.01189,-0.049 -0.04082,-0.071 -0.09163,-0.071 -0.144319,0 -0.676794,-0.1535 -0.91627,-0.2642 -0.683732,-0.3159 -1.247573,-0.8545 -1.562815,-1.493 -0.291233,-0.5899 -0.348367,-0.9316 -0.348538,-2.0848 l -1.29e-4,-0.8599 h 0.378678 0.378677 l 6.02e-4,0.8915 c 6.02e-4,0.9697 0.02316,1.165 0.177758,1.5383 0.393582,0.9506 1.303549,1.5463 2.361991,1.5463 1.058449,0 1.968405,-0.5957 2.361991,-1.5463 0.154596,-0.3733 0.17716,-0.5686 0.177757,-1.5383 l 6.01e-4,-0.8915 h 0.378678 0.378678 l -1.29e-4,0.8599 c -1.29e-4,0.9144 -0.03237,1.2442 -0.15964,1.633 -0.364165,1.1128 -1.30297,1.9374 -2.475199,2.1741 l -0.284009,0.057 -0.0084,0.825 -0.0084,0.825 h 0.931441 0.931439 v 0.3787 0.3786 h -2.22474 -2.224731 v -0.3782 z m 1.753482,-3.2697 c -0.361262,-0.087 -0.639163,-0.2499 -0.933234,-0.5458 -0.304613,-0.3065 -0.457141,-0.5635 -0.574007,-0.9672 l -0.07268,-0.251 v -3.0767 c 0,-3.3185 -0.0054,-3.2026 0.168444,-3.6133 0.371819,-0.8783 1.250924,-1.4122 2.117528,-1.2859 0.773296,0.1127 1.366383,0.5839 1.657861,1.3172 0.176236,0.4433 0.177309,0.4672 0.166707,3.7126 l -0.0097,2.9777 -0.07239,0.2361 c -0.121927,0.3978 -0.274224,0.6502 -0.57209,0.9484 -0.299459,0.2997 -0.581732,0.4633 -0.94759,0.5493 -0.25323,0.06 -0.67964,0.059 -0.92882,0 z"
         id="path872"
         inkscape:connector-curvature="0" />
      <path
         inkscape:connector-curvature="0"
         id="path870"
         d="m 8.764326,1047.6168 v -0.3782 l 0.923028,-0.01 0.923026,-0.01 0.0089,-0.7573 c 0.0049,-0.4166 0.0011,-0.7893 -0.0085,-0.8284 -0.01189,-0.049 -0.04082,-0.071 -0.09163,-0.071 -0.144319,0 -0.676794,-0.1535 -0.91627,-0.2641 -0.683733,-0.3159 -1.247573,-0.8546 -1.562816,-1.4931 -0.291232,-0.5898 -0.348367,-0.9316 -0.348537,-2.0848 l -1.29e-4,-0.8599 h 0.378678 0.378677 l 6.02e-4,0.8915 c 6.01e-4,0.9697 0.02316,1.165 0.177758,1.5384 0.393582,0.9505 1.303549,1.5462 2.36199,1.5462 1.05845,0 1.968405,-0.5957 2.361992,-1.5462 0.154596,-0.3734 0.17716,-0.5687 0.177756,-1.5384 l 6.02e-4,-0.8915 h 0.378677 0.378678 l -1.29e-4,0.8599 c -1.29e-4,0.9144 -0.03237,1.2442 -0.15964,1.6331 -0.364165,1.1127 -1.302971,1.9373 -2.475199,2.174 l -0.284009,0.057 -0.0084,0.825 -0.0084,0.825 h 0.93144 0.93144 v 0.3787 0.3787 H 10.989171 8.76444 v -0.3782 z m 1.753482,-3.2698 c -0.361262,-0.087 -0.639163,-0.2499 -0.933234,-0.5458 -0.304613,-0.3065 -0.457141,-0.5635 -0.574007,-0.9671 l -0.07268,-0.2511 v -3.0767 c 0,-3.3185 -0.0054,-3.2025 0.168444,-3.6132 0.371819,-0.8784 1.250924,-1.4123 2.117528,-1.286 0.773295,0.1127 1.366383,0.584 1.65786,1.3172 0.176236,0.4433 0.17731,0.4672 0.166708,3.7126 l -0.0097,2.9777 -0.07239,0.2361 c -0.121927,0.3978 -0.274225,0.6503 -0.572091,0.9484 -0.299458,0.2997 -0.581731,0.4633 -0.94759,0.5493 -0.253229,0.06 -0.67964,0.059 -0.928819,0 z"
         style="fill:#ffffff;stroke-width:0.03155647" />
    </g>
  </g>
</svg>
