<?xml version="1.0" encoding="UTF-8" standalone="no"?>
<!-- Created with Inkscape (http://www.inkscape.org/) -->

<svg
   xmlns:dc="http://purl.org/dc/elements/1.1/"
   xmlns:cc="http://creativecommons.org/ns#"
   xmlns:rdf="http://www.w3.org/1999/02/22-rdf-syntax-ns#"
   xmlns:svg="http://www.w3.org/2000/svg"
   xmlns="http://www.w3.org/2000/svg"
   xmlns:sodipodi="http://sodipodi.sourceforge.net/DTD/sodipodi-0.dtd"
   xmlns:inkscape="http://www.inkscape.org/namespaces/inkscape"
   width="22"
   height="22"
   viewBox="0 0 22 22"
   id="svg2"
   version="1.1"
   inkscape:version="0.92.2 5c3e80d, 2017-08-06"
   sodipodi:docname="audio-volume-zero-panel.svg">
  <defs
     id="defs4" />
  <sodipodi:namedview
     id="base"
     pagecolor="#ffffff"
     bordercolor="#666666"
     borderopacity="1.0"
     inkscape:pageopacity="0.0"
     inkscape:pageshadow="2"
     inkscape:zoom="11.2"
     inkscape:cx="27.872032"
     inkscape:cy="2.987357"
     inkscape:document-units="px"
     inkscape:current-layer="layer1"
     showgrid="false"
     units="px"
     inkscape:window-width="1366"
     inkscape:window-height="717"
     inkscape:window-x="0"
     inkscape:window-y="24"
     inkscape:window-maximized="1"
     showguides="false" />
  <metadata
     id="metadata7">
    <rdf:RDF>
      <cc:Work
         rdf:about="">
        <dc:format>image/svg+xml</dc:format>
        <dc:type
           rdf:resource="http://purl.org/dc/dcmitype/StillImage" />
        <dc:title />
      </cc:Work>
    </rdf:RDF>
  </metadata>
  <g
     inkscape:label="Layer 1"
     inkscape:groupmode="layer"
     id="layer1"
     transform="translate(0,-1030.3622)">
    <g
       transform="matrix(0.16240158,0,0,0.16240158,-6.3468254e-7,1004.1289)"
       id="g911">
      <g
         style="fill:#7c6655;fill-opacity:1"
         id="g29"
         transform="matrix(2.1285162,1.8448678,-2.0351436,2.2952722,65.492394,129.90329)">
        <path
           id="path27"
           d="M 24,1 C 36.703,1 47,11.297 47,24 47,36.703 36.703,47 24,47 11.297,47 1,36.703 1,24 1,11.297 11.297,1 24,1 Z"
           inkscape:connector-curvature="0"
           style="fill:#7c6655;fill-opacity:1" />
      </g>
      <path
         style="opacity:1;fill:#000000;fill-opacity:0.49019608;stroke-width:2.93940377"
         inkscape:connector-curvature="0"
         d="m 135.37023,221.03904 c -0.41047,16.22204 -6.65724,32.84924 -18.77652,46.51758 C 90.741279,296.71347 47.868074,301.35128 20.829532,277.91593 8.156347,266.93158 1.189788,251.73582 0.05128753,235.67719 c 0.1601395,17.55687 7.12353137,34.46287 20.87161747,46.37888 27.038541,23.43535 69.913781,18.79524 95.764175,-10.35931 13.1511,-14.83204 19.31591,-33.1499 18.68315,-50.65772 z"
         id="path51" />
      <path
         sodipodi:nodetypes="ccscsccsccssscsccccsccsccsscccccccccccccc"
         style="fill:#000000;fill-opacity:0.49019608;stroke-width:0.18061036"
         d="m 37.52634,248.70357 c -4.016759,-5.11675 -5.637865,-8.92711 -5.769984,-13.56223 -0.238343,-8.36235 6.240323,-17.33605 17.063224,-23.63455 1.936298,-1.12685 2.739033,-1.49274 2.322425,-1.0586 -0.390012,0.40647 -2.382836,4.19327 -3.281401,6.23547 -5.904647,13.41971 -5.077264,27.6025 2.368489,40.60026 l 1.127125,1.96755 -1.429592,-0.75554 c -1.804882,-0.95388 -3.936743,-2.31269 -5.828047,-3.71466 -1.453175,-1.0772 -5.808447,-5.10475 -6.572239,-6.0777 z m 21.032866,13.93291 C 50.64009,252.80134 46.905797,241.4225 48.062292,230.65111 c 0.635171,-5.91588 3.045747,-12.74351 6.474511,-18.33824 3.544203,-5.78309 8.657312,-11.2226 13.410896,-14.26701 5.902701,-3.78033 9.230498,-3.25474 12.729556,2.01055 7.319834,11.0147 9.604137,38.07158 4.838772,57.31389 -1.124026,4.53879 -2.365059,7.84152 -4.08168,10.8625 -1.209851,2.12914 -3.310949,4.3344 -4.792863,5.03046 -2.377302,1.11665 -5.59914,0.17878 -9.974987,-2.90364 -1.694202,-1.19341 -6.65393,-5.91814 -8.107291,-7.72314 z m 14.73554,2.48261 c 1.607755,0.59876 3.003514,0.0684 4.563184,-1.73385 3.712307,-4.28971 6.153908,-15.17924 6.230417,-27.78771 0.06815,-11.22963 -1.582229,-20.95721 -4.565495,-26.90959 -1.919083,-3.82908 -4.135461,-5.38407 -6.410817,-4.49775 -1.246482,0.48555 -2.883049,2.35462 -3.939246,4.49889 -4.514004,9.16422 -5.820656,27.92602 -2.944284,42.27592 0.729975,3.64175 2.237691,8.2444 3.374711,10.30207 0.982997,1.7789 2.569157,3.43404 3.69153,3.85202 z m -5.387557,-21.49678 c -0.584178,-4.02156 -0.756424,-9.63857 -0.430019,-14.02261 0.213405,-2.86623 0.55782,-5.40271 0.761364,-5.60719 0.261864,-0.26307 2.039175,-0.31184 3.070909,-0.0843 1.368594,0.30184 2.611199,1.01656 3.766051,2.16612 1.241573,1.2359 1.971721,2.46242 2.672189,4.4889 0.461441,1.33493 0.558041,2.03797 0.557603,4.05761 -8.8e-4,3.97136 -1.017372,6.52016 -3.539915,8.87625 -1.179531,1.10166 -1.470679,1.28981 -2.590982,1.67414 -1.228883,0.42156 -3.522634,0.51025 -3.884351,0.15019 -0.08747,-0.0871 -0.259733,-0.85169 -0.382849,-1.69914 z"
         id="path839"
         inkscape:connector-curvature="0" />
      <path
         sodipodi:nodetypes="ccscsccsccssscsccccsccsccsscccccccccccccc"
         inkscape:connector-curvature="0"
         id="path981"
         d="m 32.234674,243.41191 c -4.016759,-5.11675 -5.637865,-8.92711 -5.769984,-13.56223 -0.238343,-8.36235 6.240323,-17.33605 17.063224,-23.63455 1.936298,-1.12685 2.739033,-1.49274 2.322425,-1.0586 -0.390012,0.40647 -2.382836,4.19327 -3.281401,6.23547 -5.904647,13.41971 -5.077264,27.6025 2.368489,40.60026 l 1.127125,1.96755 -1.429592,-0.75554 c -1.804882,-0.95388 -3.936743,-2.31269 -5.828047,-3.71466 -1.453175,-1.0772 -5.808447,-5.10475 -6.572239,-6.0777 z m 21.032866,13.93291 c -7.919116,-9.83514 -11.653409,-21.21398 -10.496914,-31.98537 0.635171,-5.91588 3.045747,-12.74351 6.474511,-18.33824 3.544203,-5.78309 8.657312,-11.2226 13.410896,-14.26701 5.902701,-3.78033 9.230498,-3.25474 12.729556,2.01055 7.319834,11.0147 9.604137,38.07158 4.838772,57.31389 -1.124026,4.53879 -2.365059,7.84152 -4.08168,10.8625 -1.209851,2.12914 -3.310949,4.3344 -4.792863,5.03046 -2.377302,1.11665 -5.59914,0.17878 -9.974987,-2.90364 -1.694202,-1.19341 -6.65393,-5.91814 -8.107291,-7.72314 z m 14.73554,2.48261 c 1.607755,0.59876 3.003514,0.0684 4.563184,-1.73385 3.712307,-4.28971 6.153908,-15.17924 6.230417,-27.78771 0.06815,-11.22963 -1.582229,-20.95721 -4.565495,-26.90959 -1.919083,-3.82908 -4.135461,-5.38407 -6.410817,-4.49775 -1.246482,0.48555 -2.883049,2.35462 -3.939246,4.49889 -4.514004,9.16422 -5.820656,27.92602 -2.944284,42.27592 0.729975,3.64175 2.237691,8.2444 3.374711,10.30207 0.982997,1.7789 2.569157,3.43404 3.69153,3.85202 z m -5.387557,-21.49678 c -0.584178,-4.02156 -0.756424,-9.63857 -0.430019,-14.02261 0.213405,-2.86623 0.55782,-5.40271 0.761364,-5.60719 0.261864,-0.26307 2.039175,-0.31184 3.070909,-0.0843 1.368594,0.30184 2.611199,1.01656 3.766051,2.16612 1.241573,1.2359 1.971721,2.46242 2.672189,4.4889 0.461441,1.33493 0.558041,2.03797 0.557603,4.05761 -8.8e-4,3.97136 -1.017372,6.52016 -3.539915,8.87625 -1.179531,1.10166 -1.470679,1.28981 -2.590982,1.67414 -1.228883,0.42156 -3.522634,0.51025 -3.884351,0.15019 -0.08747,-0.0871 -0.259733,-0.85169 -0.382849,-1.69914 z"
         style="fill:#ffffff;stroke-width:0.18061036" />
    </g>
  </g>
</svg>
