<?xml version="1.0" encoding="UTF-8" standalone="no"?>
<!-- Created with Inkscape (http://www.inkscape.org/) -->

<svg
   xmlns:dc="http://purl.org/dc/elements/1.1/"
   xmlns:cc="http://creativecommons.org/ns#"
   xmlns:rdf="http://www.w3.org/1999/02/22-rdf-syntax-ns#"
   xmlns:svg="http://www.w3.org/2000/svg"
   xmlns="http://www.w3.org/2000/svg"
   xmlns:sodipodi="http://sodipodi.sourceforge.net/DTD/sodipodi-0.dtd"
   xmlns:inkscape="http://www.inkscape.org/namespaces/inkscape"
   width="22"
   height="22"
   viewBox="0 0 22 22"
   id="svg2"
   version="1.1"
   inkscape:version="0.92.2 5c3e80d, 2017-08-06"
   sodipodi:docname="battery_low.svg">
  <defs
     id="defs4" />
  <sodipodi:namedview
     id="base"
     pagecolor="#ffffff"
     bordercolor="#666666"
     borderopacity="1.0"
     inkscape:pageopacity="0.0"
     inkscape:pageshadow="2"
     inkscape:zoom="7.919596"
     inkscape:cx="-3.8747874"
     inkscape:cy="2.3348734"
     inkscape:document-units="px"
     inkscape:current-layer="layer1"
     showgrid="false"
     units="px"
     inkscape:window-width="1366"
     inkscape:window-height="719"
     inkscape:window-x="0"
     inkscape:window-y="22"
     inkscape:window-maximized="1" />
  <metadata
     id="metadata7">
    <rdf:RDF>
      <cc:Work
         rdf:about="">
        <dc:format>image/svg+xml</dc:format>
        <dc:type
           rdf:resource="http://purl.org/dc/dcmitype/StillImage" />
        <dc:title />
      </cc:Work>
    </rdf:RDF>
  </metadata>
  <g
     inkscape:label="Layer 1"
     inkscape:groupmode="layer"
     id="layer1"
     transform="translate(0,-1030.3622)">
    <g
       id="g1177"
       transform="matrix(0.16240157,0,0,0.16240157,-115.73763,961.29532)">
      <path
         style="fill:#8a715e;fill-opacity:1;stroke-width:2.93940425"
         inkscape:connector-curvature="0"
         d="m 827.20505,440.22674 c 27.03854,23.43536 28,66.06639 2.14757,95.22324 -25.85244,29.15684 -68.72564,33.79466 -95.76417,10.3593 -27.03856,-23.43536 -28.00001,-66.0664 -2.14757,-95.22324 25.85242,-29.15684 68.72562,-33.79466 95.76417,-10.3593 z"
         id="path27-5-92" />
      <path
         id="rect867-3"
         transform="matrix(0.26458333,0,0,0.26458333,0,161.53332)"
         d="m 2701.7227,1338.1953 c 11.5199,43.408 35.1792,83.2297 70.8945,114.1856 102.1929,88.5745 264.2333,71.0467 361.9433,-39.1524 20.5216,-23.1445 36.5555,-48.5398 48.1622,-75.0332 z"
         style="fill:#f9c440;fill-opacity:1;stroke:none;stroke-width:1.93919551;stroke-miterlimit:4;stroke-dasharray:none;stroke-opacity:1"
         inkscape:connector-curvature="0" />
      <path
         style="opacity:0.1;stroke-width:2.93940425"
         inkscape:connector-curvature="0"
         d="m 848.03364,484.7904 c -0.41047,16.22203 -6.65724,32.84923 -18.77652,46.51757 -25.85244,29.15685 -68.72564,33.79466 -95.76419,10.35931 -12.67318,-10.98433 -19.63974,-26.18011 -20.77824,-42.23872 0.16014,17.55685 7.12353,34.46286 20.87162,46.37886 27.03854,23.43536 69.91378,18.79524 95.76418,-10.3593 13.1511,-14.83205 19.31591,-33.14991 18.68315,-50.65772 z"
         id="path51-6-2" />
      <rect
         style="fill:#7c6655;fill-opacity:1;stroke:none;stroke-width:0.54052812;stroke-miterlimit:4;stroke-dasharray:none;stroke-opacity:1"
         id="rect864-2-8"
         width="35.25285"
         height="8.8132124"
         x="765.44775"
         y="467.60864" />
      <rect
         y="-787.48083"
         x="454.38882"
         height="8.8132124"
         width="35.25285"
         id="rect866-9-9"
         style="fill:#7c6655;fill-opacity:1;stroke:none;stroke-width:0.54052812;stroke-miterlimit:4;stroke-dasharray:none;stroke-opacity:1"
         transform="rotate(90)" />
      <rect
         y="528.12567"
         x="765.44775"
         height="8.8132124"
         width="35.25285"
         id="rect868-1-7"
         style="fill:#e1b13a;fill-opacity:1;stroke:none;stroke-width:0.54052812;stroke-miterlimit:4;stroke-dasharray:none;stroke-opacity:1" />
      <rect
         y="464.96283"
         x="762.80194"
         height="8.8132124"
         width="35.25285"
         id="rect858-2-3"
         style="fill:#ffffff;fill-opacity:1;stroke:none;stroke-width:0.54052812;stroke-miterlimit:4;stroke-dasharray:none;stroke-opacity:1" />
      <rect
         transform="rotate(90)"
         style="fill:#ffffff;fill-opacity:1;stroke:none;stroke-width:0.54052812;stroke-miterlimit:4;stroke-dasharray:none;stroke-opacity:1"
         id="rect860-7-61"
         width="35.25285"
         height="8.8132124"
         x="451.74301"
         y="-784.83496" />
      <rect
         style="fill:#ffffff;fill-opacity:1;stroke:none;stroke-width:0.54052812;stroke-miterlimit:4;stroke-dasharray:none;stroke-opacity:1"
         id="rect862-0-2"
         width="35.25285"
         height="8.8132124"
         x="762.80194"
         y="525.47986" />
    </g>
  </g>
</svg>
