<?xml version="1.0" encoding="UTF-8" standalone="no"?>
<!-- Created using Karbon, part of Calligra: http://www.calligra.org/karbon -->

<svg
   xmlns:dc="http://purl.org/dc/elements/1.1/"
   xmlns:cc="http://creativecommons.org/ns#"
   xmlns:rdf="http://www.w3.org/1999/02/22-rdf-syntax-ns#"
   xmlns:svg="http://www.w3.org/2000/svg"
   xmlns="http://www.w3.org/2000/svg"
   xmlns:sodipodi="http://sodipodi.sourceforge.net/DTD/sodipodi-0.dtd"
   xmlns:inkscape="http://www.inkscape.org/namespaces/inkscape"
   width="22"
   height="22"
   id="svg2"
   version="1.1"
   inkscape:version="0.92.2 5c3e80d, 2017-08-06"
   sodipodi:docname="bluetooth-disabled.svg"
   viewBox="0 0 22 22">
  <metadata
     id="metadata11">
    <rdf:RDF>
      <cc:Work
         rdf:about="">
        <dc:format>image/svg+xml</dc:format>
        <dc:type
           rdf:resource="http://purl.org/dc/dcmitype/StillImage" />
        <dc:title />
      </cc:Work>
    </rdf:RDF>
  </metadata>
  <sodipodi:namedview
     pagecolor="#ffffff"
     bordercolor="#666666"
     borderopacity="1"
     objecttolerance="10"
     gridtolerance="10"
     guidetolerance="10"
     inkscape:pageopacity="0"
     inkscape:pageshadow="2"
     inkscape:window-width="1366"
     inkscape:window-height="719"
     id="namedview9"
     showgrid="false"
     inkscape:showpageshadow="false"
     borderlayer="true"
     inkscape:zoom="13.906433"
     inkscape:cx="-1.4247171"
     inkscape:cy="5.6818146"
     inkscape:window-x="0"
     inkscape:window-y="22"
     inkscape:window-maximized="1"
     inkscape:current-layer="svg2"
     inkscape:snap-global="false"
     inkscape:document-units="px" />
  <defs
     id="defs4" />
  <g
     transform="matrix(0.16240157,0,0,0.16240157,-53.715573,-26.822499)"
     id="g893">
    <path
       id="path845-3"
       d="m 445.2996,180.1036 c 27.03854,23.43536 28,66.06639 2.14757,95.22323 -25.85243,29.15684 -68.72564,33.79466 -95.76418,10.3593 -27.03854,-23.43536 -28,-66.06639 -2.14757,-95.22323 25.85243,-29.15684 68.72564,-33.79466 95.76418,-10.3593 z"
       inkscape:connector-curvature="0"
       style="fill:#8a715e;fill-opacity:1;stroke-width:2.93940401" />
    <path
       id="path847-6"
       d="m 466.12819,224.66726 c -0.41047,16.22203 -6.65724,32.84923 -18.77652,46.51757 -25.85243,29.15685 -68.72564,33.79466 -95.76418,10.35931 -12.67318,-10.98434 -19.63974,-26.18011 -20.77824,-42.23873 0.16014,17.55686 7.12353,34.46287 20.87161,46.37887 27.03854,23.43536 69.91378,18.79524 95.76418,-10.3593 13.1511,-14.83205 19.31591,-33.14991 18.68315,-50.65772 z"
       inkscape:connector-curvature="0"
       style="opacity:0.1;stroke-width:2.93940401" />
    <path
       inkscape:connector-curvature="0"
       id="path849-7"
       d="m 397.60744,261.06139 0.0516,-15.75409 -6.57214,6.55261 c -3.61468,3.60394 -6.59101,6.5527 -6.61407,6.5528 -0.0231,4e-5 -1.10516,-1.06573 -2.4045,-2.36832 l -2.36243,-2.36836 0.26534,-0.27786 c 0.14594,-0.15285 3.86711,-3.87555 8.26918,-8.27275 l 8.00387,-7.99481 -8.20486,-8.22794 c -4.51268,-4.52536 -8.20481,-8.24689 -8.20473,-8.27004 10e-5,-0.0231 1.07026,-1.10955 2.3782,-2.41423 l 2.37806,-2.3721 0.23273,0.21967 c 0.12801,0.12079 3.08035,3.06941 6.56081,6.55243 l 6.32809,6.33279 0.0516,-15.75525 0.0516,-15.75524 11.09068,11.11426 c 6.09989,6.11282 11.45081,11.4892 11.89096,11.94752 l 0.80012,0.83343 -7.91171,7.89266 -7.91171,7.89267 7.86003,7.87882 7.86002,7.87881 -0.67232,0.70164 c -0.3698,0.38588 -5.75593,5.77169 -11.96925,11.96842 l -11.29692,11.26677 z m 14.36167,-8.21269 c 3e-5,-0.0122 -1.71385,-1.73523 -3.80868,-3.82892 l -3.80878,-3.80674 -0.025,7.64233 -0.025,7.64233 3.83407,-3.81309 c 2.10839,-2.09754 3.83378,-3.82339 3.8338,-3.83559 z m 0.10302,-31.46634 c 1.5e-4,-0.0121 -1.71386,-1.73522 -3.80868,-3.82892 l -3.80879,-3.80675 -0.025,7.64234 -0.025,7.64235 3.83408,-3.8131 c 2.10839,-2.09755 3.83378,-3.82339 3.8338,-3.83559 z"
       style="fill:#7c6655;fill-opacity:1;stroke-width:0.04431934" />
    <path
       style="fill:#ffffff;stroke-width:0.04431934"
       d="m 394.9616,258.41556 0.0516,-15.7541 -6.57214,6.55261 c -3.61467,3.60393 -6.591,6.55269 -6.61406,6.55281 -0.0231,4e-5 -1.10516,-1.06575 -2.40451,-2.36832 l -2.36243,-2.36837 0.26535,-0.27785 c 0.14594,-0.15286 3.8671,-3.87555 8.26917,-8.27275 l 8.00388,-7.99482 -8.20487,-8.22793 c -4.51267,-4.52537 -8.2048,-8.2469 -8.20472,-8.27005 9e-5,-0.0231 1.07026,-1.10956 2.3782,-2.41423 l 2.37806,-2.37209 0.23272,0.21967 c 0.12801,0.12078 3.08036,3.0694 6.56082,6.55243 l 6.32809,6.33277 0.0516,-15.75524 0.0516,-15.75524 11.09068,11.11427 c 6.09988,6.11282 11.4508,11.48919 11.89095,11.94752 l 0.80012,0.83341 -7.9117,7.89268 -7.91171,7.89266 7.86002,7.87883 7.86002,7.87881 -0.67231,0.70163 c -0.3698,0.38587 -5.75593,5.7717 -11.96925,11.96841 l -11.29692,11.26679 z m 14.36168,-8.21269 c 3e-5,-0.0122 -1.71385,-1.73523 -3.80868,-3.82894 l -3.80879,-3.80674 -0.025,7.64235 -0.025,7.64233 3.83407,-3.81309 c 2.1084,-2.09754 3.83379,-3.82339 3.83381,-3.83561 z m 0.10301,-31.46635 c 1.6e-4,-0.0121 -1.71385,-1.73521 -3.80867,-3.82892 l -3.80879,-3.80675 -0.025,7.64235 -0.025,7.64233 3.83408,-3.81309 c 2.10839,-2.09754 3.83378,-3.82338 3.8338,-3.83558 z"
       id="path851-5"
       inkscape:connector-curvature="0" />
  </g>
</svg>
