<?xml version="1.0" encoding="UTF-8" standalone="no"?>
<!-- Created with Inkscape (http://www.inkscape.org/) -->

<svg
   xmlns:dc="http://purl.org/dc/elements/1.1/"
   xmlns:cc="http://creativecommons.org/ns#"
   xmlns:rdf="http://www.w3.org/1999/02/22-rdf-syntax-ns#"
   xmlns:svg="http://www.w3.org/2000/svg"
   xmlns="http://www.w3.org/2000/svg"
   xmlns:sodipodi="http://sodipodi.sourceforge.net/DTD/sodipodi-0.dtd"
   xmlns:inkscape="http://www.inkscape.org/namespaces/inkscape"
   width="22"
   height="22"
   viewBox="0 0 22 22"
   id="svg2"
   version="1.1"
   inkscape:version="0.92.3 (2405546, 2018-03-11)"
   sodipodi:docname="btsync-gui-4.svg">
  <defs
     id="defs4" />
  <sodipodi:namedview
     id="base"
     pagecolor="#ffffff"
     bordercolor="#666666"
     borderopacity="1.0"
     inkscape:pageopacity="0.0"
     inkscape:pageshadow="2"
     inkscape:zoom="15.839192"
     inkscape:cx="12.688638"
     inkscape:cy="8.5966841"
     inkscape:document-units="px"
     inkscape:current-layer="layer1"
     showgrid="false"
     units="px"
     inkscape:window-width="1366"
     inkscape:window-height="718"
     inkscape:window-x="0"
     inkscape:window-y="25"
     inkscape:window-maximized="1" />
  <metadata
     id="metadata7">
    <rdf:RDF>
      <cc:Work
         rdf:about="">
        <dc:format>image/svg+xml</dc:format>
        <dc:type
           rdf:resource="http://purl.org/dc/dcmitype/StillImage" />
        <dc:title />
      </cc:Work>
    </rdf:RDF>
  </metadata>
  <g
     inkscape:label="Layer 1"
     inkscape:groupmode="layer"
     id="layer1"
     transform="translate(0,-1030.3622)">
    <g
       id="g827"
       transform="matrix(0.04296875,0,0,0.04296875,2.412269e-7,1007.1435)">
      <path
         style="fill:#3689e6;fill-opacity:1;stroke-width:11.10955715"
         inkscape:connector-curvature="0"
         d="m 432.91326,596.83623 c 102.19292,88.57368 105.8268,249.70008 8.1168,359.89877 C 343.32011,1066.9337 181.27964,1084.4626 79.086727,995.88898 -23.106186,907.31303 -26.74004,746.18897 70.969926,635.99026 168.67989,525.79157 330.72035,508.26257 432.91326,596.83623 Z"
         id="path27" />
      <path
         style="opacity:1;fill:#000000;fill-opacity:0.49019608;stroke-width:11.10955715"
         inkscape:connector-curvature="0"
         d="m 511.6355,765.2656 c -1.55136,61.312 -25.16123,124.15534 -70.96637,175.81383 C 342.95915,1051.2804 180.91869,1068.8071 78.725775,980.2334 30.827122,938.71725 4.4968202,881.2848 0.19382638,820.59186 0.79907784,886.94706 27.117409,950.84466 79.078677,995.88202 181.27159,1084.4558 343.31972,1066.9198 441.02201,956.728 490.72696,900.671 514.02702,831.43694 511.6355,765.2656 Z"
         id="path51" />
      <path
         style="fill:#000000;fill-opacity:0.49019608;stroke-width:0.31845832"
         d="m 180.52774,692.9635 c 27.10868,-20.87176 59.45446,-32.08101 93.94334,-32.58935 5.37791,-0.0779 17.49948,0.72488 23.09553,1.52848 35.00939,5.03714 65.94225,20.74908 90.46084,45.95199 9.1291,9.39629 12.02047,14.25161 13.05366,21.98687 1.03023,7.77082 -0.85428,15.19058 -5.48181,21.55035 -1.92954,2.63458 -6.94106,6.9388 -9.76352,8.3608 -8.20939,4.13071 -17.49199,4.37823 -25.70042,0.6817 -4.49235,-2.027 -6.45319,-3.61193 -12.49826,-10.1459 -8.26718,-8.95434 -15.06612,-15.03811 -23.56864,-21.11251 -43.18781,-30.86327 -98.75714,-34.74176 -141.49808,-9.86398 -6.81195,3.97351 -11.05586,7.00033 -17.43593,12.44592 -6.3193,5.41255 -9.43087,8.52269 -14.17321,14.22075 -13.39402,16.06635 -22.24321,35.26619 -26.18861,56.83321 -1.13864,6.25108 -2.17868,20.99427 -1.93043,27.5048 0.68729,17.94447 4.34957,33.84837 11.94295,51.85906 0.65948,1.59894 0.96986,2.50019 0.66741,1.95382 -0.31479,-0.52656 -1.45942,-2.95408 -2.50889,-5.4005 -8.12309,-18.66624 -12.37497,-38.01264 -12.93322,-58.83231 -0.13316,-7.13382 1.02785,-23.34505 2.27072,-30.27121 5.97237,-33.18076 21.23789,-62.00962 45.15661,-85.27927 3.33867,-3.25409 9.62398,-8.72124 13.1712,-11.3015 z M 136.2921,885.50562 c 0.23654,0.19561 0.45647,0.71992 0.6277,1.13893 0.24054,0.61633 0.24696,0.6793 -0.23588,0.31767 -0.27906,-0.20901 -0.50018,-0.78173 -0.62757,-1.13883 -0.21245,-0.44992 -0.003,-0.52607 0.22192,-0.29904 z m 1.30833,2.4629 c 0.29142,0.21828 0.20512,0.44441 0.003,0.35133 -0.20876,-0.1564 -0.4212,-0.31545 -0.31728,-0.5284 -0.0423,-0.0317 0.0664,-0.24111 0.35401,0.26514 z m 0.58699,1.16658 c 0.2914,0.21827 0.20512,0.44444 0.003,0.35136 -0.20879,-0.15639 -0.40147,-0.30068 -0.31741,-0.52852 -0.0423,-0.0317 0.0664,-0.24109 0.35402,0.26516 z m 0.58695,1.16661 c 0.29143,0.21824 0.20514,0.44441 0.003,0.35133 -0.20879,-0.15639 -0.42123,-0.31548 -0.33213,-0.53953 -0.0423,-0.0317 0.0664,-0.24108 0.35403,0.26513 z m 0.79302,1.40812 c 0.29143,0.21828 0.20513,0.44443 0.003,0.35136 -0.20878,-0.1564 -0.40147,-0.30069 -0.3174,-0.52852 -0.0423,-0.0317 0.0663,-0.24108 0.354,0.26513 z M 164.788,873.79447 c 5.16436,-3.01785 10.53069,-4.30842 16.60058,-3.98156 3.80275,0.20197 6.95337,0.97109 10.41332,2.53019 4.48972,2.02505 6.4513,3.61048 12.4968,10.1448 8.26624,8.95361 15.06901,15.03734 23.56866,21.11254 43.19415,30.86797 98.76666,34.74597 141.50094,9.86321 19.44237,-11.32118 34.97819,-27.53392 45.49448,-47.47416 18.32025,-34.75563 19.03795,-78.10064 1.90387,-116.11845 -1.11833,-2.49506 -1.89806,-4.39051 -1.74871,-4.2176 0.47466,0.6463 3.85338,7.84979 5.74364,12.57469 7.23603,18.07743 10.9465,36.78279 11.23014,56.62331 0.0998,5.35534 -0.71961,17.47522 -1.52082,23.10668 -6.36626,44.77887 -31.12219,83.90038 -68.83394,108.78501 -25.96617,17.13011 -56.33354,25.99147 -87.76693,25.60708 -4.90367,-0.0613 -16.43616,-0.9782 -20.99724,-1.67255 -34.33602,-5.21323 -64.97098,-21.05682 -89.40609,-46.23793 -8.76122,-9.03356 -11.61938,-13.96868 -12.65942,-21.86024 -1.49692,-11.4586 4.10138,-23.00883 13.97791,-28.79874 z M 413.38746,742.31824 c 0.29134,0.21822 0.20508,0.44442 0.001,0.35052 -0.2079,-0.15575 -0.40182,-0.30095 -0.31726,-0.5284 -0.0429,-0.0321 0.067,-0.24068 0.35449,0.26553 z m 0.58707,1.16671 c 0.29137,0.2182 0.20512,0.4444 10e-4,0.3505 -0.20772,-0.15557 -0.42159,-0.31576 -0.31725,-0.52839 -0.0429,-0.0321 0.067,-0.2407 0.35449,0.2655 z m 0.58692,1.16652 c 0.29136,0.21823 0.20513,0.44441 0.001,0.35051 -0.2079,-0.15576 -0.40184,-0.30094 -0.31726,-0.52838 -0.0429,-0.0321 0.067,-0.2407 0.3545,0.2655 z"
         id="path821"
         inkscape:connector-curvature="0" />
      <path
         inkscape:connector-curvature="0"
         id="path844"
         d="m 160.52774,672.9635 c 27.10868,-20.87176 59.45446,-32.08101 93.94334,-32.58935 5.37791,-0.0779 17.49948,0.72488 23.09553,1.52848 35.00939,5.03714 65.94225,20.74908 90.46084,45.95199 9.1291,9.39629 12.02047,14.25161 13.05366,21.98687 1.03023,7.77082 -0.85428,15.19058 -5.48181,21.55035 -1.92954,2.63458 -6.94106,6.9388 -9.76352,8.3608 -8.20939,4.13071 -17.49199,4.37823 -25.70042,0.6817 -4.49235,-2.027 -6.45319,-3.61193 -12.49826,-10.1459 -8.26718,-8.95434 -15.06612,-15.03811 -23.56864,-21.11251 -43.18781,-30.86327 -98.75714,-34.74176 -141.49808,-9.86398 -6.81195,3.97351 -11.05586,7.00033 -17.43593,12.44592 -6.3193,5.41255 -9.43087,8.52269 -14.17321,14.22075 -13.39402,16.06635 -22.24321,35.26619 -26.18861,56.83321 -1.13864,6.25108 -2.17868,20.99427 -1.93043,27.5048 0.68729,17.94447 4.34957,33.84837 11.94295,51.85906 0.65948,1.59894 0.96986,2.50019 0.66741,1.95382 -0.31479,-0.52656 -1.45942,-2.95408 -2.50889,-5.4005 -8.12309,-18.66624 -12.37497,-38.01264 -12.93322,-58.83231 -0.133153,-7.13382 1.02785,-23.34505 2.27072,-30.27121 5.97237,-33.18076 21.23789,-62.00962 45.15661,-85.27927 3.33867,-3.25409 9.62398,-8.72124 13.1712,-11.3015 z M 116.2921,865.50562 c 0.23654,0.19561 0.45647,0.71992 0.6277,1.13893 0.24054,0.61633 0.24696,0.6793 -0.23588,0.31767 -0.27906,-0.20901 -0.50018,-0.78173 -0.62757,-1.13883 -0.21245,-0.44992 -0.003,-0.52607 0.22192,-0.29904 z m 1.30833,2.4629 c 0.29142,0.21828 0.20512,0.44441 0.003,0.35133 -0.20876,-0.1564 -0.4212,-0.31545 -0.31728,-0.5284 -0.0423,-0.0317 0.0664,-0.24111 0.35401,0.26514 z m 0.58699,1.16658 c 0.2914,0.21827 0.20512,0.44444 0.003,0.35136 -0.20879,-0.15639 -0.40147,-0.30068 -0.31741,-0.52852 -0.0423,-0.0317 0.0664,-0.24109 0.35402,0.26516 z m 0.58695,1.16661 c 0.29143,0.21824 0.20514,0.44441 0.003,0.35133 -0.20879,-0.15639 -0.42123,-0.31548 -0.33213,-0.53953 -0.0423,-0.0317 0.0664,-0.24108 0.35403,0.26513 z m 0.79302,1.40812 c 0.29143,0.21828 0.20513,0.44443 0.003,0.35136 -0.20878,-0.1564 -0.40147,-0.30069 -0.3174,-0.52852 -0.0423,-0.0317 0.0663,-0.24108 0.354,0.26513 z M 144.788,853.79447 c 5.16436,-3.01785 10.53069,-4.30842 16.60058,-3.98156 3.80275,0.20197 6.95337,0.97109 10.41332,2.53019 4.48972,2.02505 6.4513,3.61048 12.4968,10.1448 8.26624,8.95361 15.06901,15.03734 23.56866,21.11254 43.19415,30.86797 98.76666,34.74597 141.50094,9.86321 19.44237,-11.32118 34.97819,-27.53392 45.49448,-47.47416 18.32025,-34.75563 19.03795,-78.10064 1.90387,-116.11845 -1.11833,-2.49506 -1.89806,-4.39051 -1.74871,-4.2176 0.47466,0.6463 3.85338,7.84979 5.74364,12.57469 7.23603,18.07743 10.9465,36.78279 11.23014,56.62331 0.0998,5.35534 -0.71961,17.47522 -1.52082,23.10668 -6.36626,44.77887 -31.12219,83.90038 -68.83394,108.78501 -25.96617,17.13011 -56.33354,25.99147 -87.76693,25.60708 -4.90367,-0.0613 -16.43616,-0.9782 -20.99724,-1.67255 -34.33602,-5.21323 -64.97098,-21.05682 -89.40609,-46.23793 -8.76122,-9.03356 -11.61938,-13.96868 -12.65942,-21.86024 -1.49692,-11.4586 4.10138,-23.00883 13.97791,-28.79874 z M 393.38746,722.31824 c 0.29134,0.21822 0.20508,0.44442 0.001,0.35052 -0.2079,-0.15575 -0.40182,-0.30095 -0.31726,-0.5284 -0.0429,-0.0321 0.067,-0.24068 0.35449,0.26553 z m 0.58707,1.16671 c 0.29137,0.2182 0.20512,0.4444 10e-4,0.3505 -0.20772,-0.15557 -0.42159,-0.31576 -0.31725,-0.52839 -0.0429,-0.0321 0.067,-0.2407 0.35449,0.2655 z m 0.58692,1.16652 c 0.29136,0.21823 0.20513,0.44441 0.001,0.35051 -0.2079,-0.15576 -0.40184,-0.30094 -0.31726,-0.52838 -0.0429,-0.0321 0.067,-0.2407 0.3545,0.2655 z"
         style="fill:#ffffff;stroke-width:0.31845832" />
    </g>
  </g>
</svg>
