<?xml version="1.0" encoding="UTF-8" standalone="no"?>
<!-- Created with Inkscape (http://www.inkscape.org/) -->

<svg
   xmlns:dc="http://purl.org/dc/elements/1.1/"
   xmlns:cc="http://creativecommons.org/ns#"
   xmlns:rdf="http://www.w3.org/1999/02/22-rdf-syntax-ns#"
   xmlns:svg="http://www.w3.org/2000/svg"
   xmlns="http://www.w3.org/2000/svg"
   xmlns:sodipodi="http://sodipodi.sourceforge.net/DTD/sodipodi-0.dtd"
   xmlns:inkscape="http://www.inkscape.org/namespaces/inkscape"
   width="22"
   height="22"
   viewBox="0 0 22 22"
   id="svg2"
   version="1.1"
   inkscape:version="0.92.3 (2405546, 2018-03-11)"
   sodipodi:docname="btsync-gui-2.svg">
  <defs
     id="defs4" />
  <sodipodi:namedview
     id="base"
     pagecolor="#ffffff"
     bordercolor="#666666"
     borderopacity="1.0"
     inkscape:pageopacity="0.0"
     inkscape:pageshadow="2"
     inkscape:zoom="15.839192"
     inkscape:cx="11.987348"
     inkscape:cy="7.5549755"
     inkscape:document-units="px"
     inkscape:current-layer="layer1"
     showgrid="false"
     units="px"
     inkscape:window-width="1366"
     inkscape:window-height="718"
     inkscape:window-x="0"
     inkscape:window-y="25"
     inkscape:window-maximized="1" />
  <metadata
     id="metadata7">
    <rdf:RDF>
      <cc:Work
         rdf:about="">
        <dc:format>image/svg+xml</dc:format>
        <dc:type
           rdf:resource="http://purl.org/dc/dcmitype/StillImage" />
        <dc:title />
      </cc:Work>
    </rdf:RDF>
  </metadata>
  <g
     inkscape:label="Layer 1"
     inkscape:groupmode="layer"
     id="layer1"
     transform="translate(0,-1030.3622)">
    <g
       id="g827"
       transform="matrix(0.04296875,0,0,0.04296875,1.1199091e-7,1007.1435)">
      <path
         style="fill:#3689e6;fill-opacity:1;stroke-width:11.10955715"
         inkscape:connector-curvature="0"
         d="m 432.91326,596.83622 c 102.19292,88.57367 105.82679,249.70007 8.11681,359.89876 C 343.3201,1066.9337 181.27964,1084.4627 79.086728,995.88902 -23.106186,907.31302 -26.740041,746.18894 70.969927,635.99025 168.67989,525.79156 330.72034,508.26254 432.91326,596.83622 Z"
         id="path27" />
      <path
         style="opacity:1;fill:#000000;fill-opacity:0.49019608;stroke-width:11.10955715"
         inkscape:connector-curvature="0"
         d="m 511.63549,765.2656 c -1.55136,61.312 -25.16121,124.15534 -70.96636,175.81382 C 342.95914,1051.2804 180.91869,1068.8071 78.725775,980.23345 30.827124,938.71723 4.4968213,881.2848 0.19382739,820.59185 0.79907888,886.94705 27.117409,950.84465 79.078681,995.88203 181.27159,1084.4557 343.31973,1066.9197 441.02201,956.728 490.72695,900.67098 514.02702,831.43694 511.63549,765.2656 Z"
         id="path51" />
      <path
         style="fill:#000000;fill-opacity:0.49019608;stroke-width:0.31843799"
         d="m 150.81267,909.46146 c -20.35522,-27.49578 -30.95276,-60.04369 -30.81127,-94.53401 0.023,-5.37816 1.0533,-17.48251 1.96354,-23.06169 5.69464,-34.90794 21.98614,-65.53674 47.64475,-89.57526 9.55918,-8.95542 14.47322,-11.75059 22.22695,-12.63662 7.78752,-0.89022 15.17126,1.13657 21.44131,5.88622 2.59873,1.97013 6.80675,7.06933 8.17519,9.91745 3.97497,8.28627 4.0486,17.57234 0.19738,25.70907 -2.10946,4.45395 -3.73551,6.37957 -10.38489,12.29841 -9.10199,8.10107 -15.31691,14.78161 -21.55126,23.16536 -31.67297,42.59347 -36.59241,98.08027 -12.52591,141.28116 3.84291,6.88216 6.79024,11.18363 12.11484,17.66565 5.2909,6.41892 8.34213,9.58708 13.94852,14.43461 15.81077,13.69455 34.84,22.90474 56.32657,27.25327 6.22902,1.25756 20.94898,2.5751 27.46256,2.44824 17.95347,-0.34817 33.9214,-3.71143 52.07177,-10.96437 1.61212,-0.63691 2.50715,-0.92483 1.96853,-0.61812 -0.53526,0.30834 -2.99,1.39093 -5.44677,2.40515 -18.81351,7.77083 -38.23555,11.65812 -59.062,11.82466 -7.13313,0.0571 -23.31897,-1.46404 -30.22026,-2.8404 -33.06026,-6.59453 -61.59461,-22.40027 -84.40717,-46.74968 -3.19173,-3.4001 -8.53828,-9.78662 -11.05201,-13.38122 z m 191.66182,47.84773 c 0.20055,-0.16106 0.72914,-0.44676 1.15166,-0.60293 0.6158,-0.24305 0.68563,-0.23483 0.30281,0.14804 -0.2686,0.23143 -0.78656,0.49641 -1.15165,0.60293 -0.4169,0.13301 -0.51791,0.0836 -0.30282,-0.14804 z m 2.49328,-1.26846 c 0.29369,-0.21914 0.40197,-0.21803 0.3469,-0.0895 -0.12459,0.22409 -0.34831,0.39974 -0.48066,0.36094 -0.0857,-0.0419 -0.14848,-0.0726 0.2125,-0.38841 z m 1.18554,-0.56044 c 0.29372,-0.21914 0.40199,-0.21803 0.34692,-0.0895 -0.1246,0.2241 -0.33809,0.37883 -0.48088,0.36083 -0.0857,-0.0419 -0.14848,-0.0726 0.21259,-0.38835 z m 1.18556,-0.56044 c 0.2937,-0.21915 0.40198,-0.21804 0.34691,-0.0895 -0.1246,0.22409 -0.34831,0.39974 -0.48087,0.36083 -0.0857,-0.0419 -0.14847,-0.0726 0.21258,-0.38836 z m 1.42054,-0.75648 c 0.2937,-0.21916 0.40199,-0.21803 0.34692,-0.0895 -0.1246,0.22411 -0.3381,0.37884 -0.48089,0.36086 -0.0857,-0.0419 -0.14847,-0.0726 0.2126,-0.38838 z m -17.43513,-25.55252 c -2.91999,-5.21831 -4.10999,-10.6091 -3.66921,-16.67173 0.27641,-3.79549 1.10252,-6.93358 2.72556,-10.36348 2.10701,-4.45255 3.73466,-6.37999 10.38488,-12.29842 9.10012,-8.09939 15.31698,-14.78158 21.5513,-23.16534 31.67688,-42.59932 36.59699,-98.08839 12.52591,-141.28117 -10.95303,-19.65242 -26.86904,-35.4894 -46.60659,-46.37768 -34.40159,-18.96966 -77.72301,-20.50429 -116.05453,-4.08928 -2.51624,1.07583 -4.42483,1.82691 -4.24094,1.66547 0.59145,-0.51405 7.92012,-3.70406 12.67894,-5.50501 18.21023,-6.89461 36.97998,-10.25094 56.82219,-10.16022 5.35449,0.0242 17.45608,1.05137 23.07187,1.95731 44.64808,7.20729 83.29331,32.69274 107.4626,70.86541 16.63618,26.28125 24.92331,56.80826 23.94633,88.22651 -0.15371,4.89967 -1.28705,16.41471 -2.06644,20.96186 -5.85895,34.22908 -22.27628,64.55796 -47.91246,88.51158 -9.19529,8.5918 -14.1828,11.35623 -22.09191,12.24662 -11.48516,1.29261 -22.92608,-4.5341 -28.52964,-14.51829 z M 204.56226,677.5956 c 0.2937,-0.21915 0.40183,-0.21811 0.34605,-0.0899 -0.12379,0.2245 -0.33893,0.37842 -0.48059,0.36099 -0.0863,-0.0422 -0.14805,-0.0724 0.21296,-0.38819 z m 1.1856,-0.56042 c 0.29369,-0.21916 0.40182,-0.21812 0.34604,-0.0899 -0.1236,0.22459 -0.34914,0.39933 -0.48059,0.36097 -0.0865,-0.0423 -0.14806,-0.0724 0.21294,-0.38819 z m 1.18557,-0.56044 c 0.2937,-0.21914 0.40184,-0.2181 0.34605,-0.0899 -0.12379,0.22449 -0.33893,0.37841 -0.48058,0.36098 -0.0866,-0.0423 -0.14806,-0.0724 0.21295,-0.38819 z"
         id="path821"
         inkscape:connector-curvature="0" />
      <path
         inkscape:connector-curvature="0"
         id="path844"
         d="m 130.81267,889.46146 c -20.35522,-27.49578 -30.952761,-60.04369 -30.81127,-94.53401 0.023,-5.37816 1.0533,-17.48251 1.96354,-23.06169 5.69464,-34.90794 21.98614,-65.53674 47.64475,-89.57526 9.55918,-8.95542 14.47322,-11.75059 22.22695,-12.63662 7.78752,-0.89022 15.17126,1.13657 21.44131,5.88622 2.59873,1.97013 6.80675,7.06933 8.17519,9.91745 3.97497,8.28627 4.0486,17.57234 0.19738,25.70907 -2.10946,4.45395 -3.73551,6.37957 -10.38489,12.29841 -9.10199,8.10107 -15.31691,14.78161 -21.55126,23.16536 -31.67297,42.59347 -36.59241,98.08027 -12.52591,141.28116 3.84291,6.88216 6.79024,11.18363 12.11484,17.66565 5.2909,6.41892 8.34213,9.58708 13.94852,14.43461 15.81077,13.69455 34.84,22.90474 56.32657,27.25327 6.22902,1.25756 20.94898,2.5751 27.46256,2.44824 17.95347,-0.34817 33.9214,-3.71143 52.07177,-10.96437 1.61212,-0.63691 2.50715,-0.92483 1.96853,-0.61812 -0.53526,0.30834 -2.99,1.39093 -5.44677,2.40515 -18.81351,7.77083 -38.23555,11.65812 -59.062,11.82466 -7.13313,0.0571 -23.31897,-1.46404 -30.22026,-2.8404 -33.06026,-6.59453 -61.59461,-22.40027 -84.40717,-46.74968 -3.19173,-3.4001 -8.53828,-9.78662 -11.05201,-13.38122 z m 191.66182,47.84773 c 0.20055,-0.16106 0.72914,-0.44676 1.15166,-0.60293 0.6158,-0.24305 0.68563,-0.23483 0.30281,0.14804 -0.2686,0.23143 -0.78656,0.49641 -1.15165,0.60293 -0.4169,0.13301 -0.51791,0.0836 -0.30282,-0.14804 z m 2.49328,-1.26846 c 0.29369,-0.21914 0.40197,-0.21803 0.3469,-0.0895 -0.12459,0.22409 -0.34831,0.39974 -0.48066,0.36094 -0.0857,-0.0419 -0.14848,-0.0726 0.2125,-0.38841 z m 1.18554,-0.56044 c 0.29372,-0.21914 0.40199,-0.21803 0.34692,-0.0895 -0.1246,0.2241 -0.33809,0.37883 -0.48088,0.36083 -0.0857,-0.0419 -0.14848,-0.0726 0.21259,-0.38835 z m 1.18556,-0.56044 c 0.2937,-0.21915 0.40198,-0.21804 0.34691,-0.0895 -0.1246,0.22409 -0.34831,0.39974 -0.48087,0.36083 -0.0857,-0.0419 -0.14847,-0.0726 0.21258,-0.38836 z m 1.42054,-0.75648 c 0.2937,-0.21916 0.40199,-0.21803 0.34692,-0.0895 -0.1246,0.22411 -0.3381,0.37884 -0.48089,0.36086 -0.0857,-0.0419 -0.14847,-0.0726 0.2126,-0.38838 z m -17.43513,-25.55252 c -2.91999,-5.21831 -4.10999,-10.6091 -3.66921,-16.67173 0.27641,-3.79549 1.10252,-6.93358 2.72556,-10.36348 2.10701,-4.45255 3.73466,-6.37999 10.38488,-12.29842 9.10012,-8.09939 15.31698,-14.78158 21.5513,-23.16534 31.67688,-42.59932 36.59699,-98.08839 12.52591,-141.28117 -10.95303,-19.65242 -26.86904,-35.4894 -46.60659,-46.37768 -34.40159,-18.96966 -77.72301,-20.50429 -116.05453,-4.08928 -2.51624,1.07583 -4.42483,1.82691 -4.24094,1.66547 0.59145,-0.51405 7.92012,-3.70406 12.67894,-5.50501 18.21023,-6.89461 36.97998,-10.25094 56.82219,-10.16022 5.35449,0.0242 17.45608,1.05137 23.07187,1.95731 44.64808,7.20729 83.29331,32.69274 107.4626,70.86541 16.63618,26.28125 24.92331,56.80826 23.94633,88.22651 -0.15371,4.89967 -1.28705,16.41471 -2.06644,20.96186 -5.85895,34.22908 -22.27628,64.55796 -47.91246,88.51158 -9.19529,8.5918 -14.1828,11.35623 -22.09191,12.24662 -11.48516,1.29261 -22.92608,-4.5341 -28.52964,-14.51829 z M 184.56226,657.5956 c 0.2937,-0.21915 0.40183,-0.21811 0.34605,-0.0899 -0.12379,0.2245 -0.33893,0.37842 -0.48059,0.36099 -0.0863,-0.0422 -0.14805,-0.0724 0.21296,-0.38819 z m 1.1856,-0.56042 c 0.29369,-0.21916 0.40182,-0.21812 0.34604,-0.0899 -0.1236,0.22459 -0.34914,0.39933 -0.48059,0.36097 -0.0865,-0.0423 -0.14806,-0.0724 0.21294,-0.38819 z m 1.18557,-0.56044 c 0.2937,-0.21914 0.40184,-0.2181 0.34605,-0.0899 -0.12379,0.22449 -0.33893,0.37841 -0.48058,0.36098 -0.0866,-0.0423 -0.14806,-0.0724 0.21295,-0.38819 z"
         style="fill:#ffffff;stroke-width:0.31843799" />
    </g>
  </g>
</svg>
