<?xml version="1.0" encoding="UTF-8" standalone="no"?>
<!-- Created with Inkscape (http://www.inkscape.org/) -->

<svg
   xmlns:dc="http://purl.org/dc/elements/1.1/"
   xmlns:cc="http://creativecommons.org/ns#"
   xmlns:rdf="http://www.w3.org/1999/02/22-rdf-syntax-ns#"
   xmlns:svg="http://www.w3.org/2000/svg"
   xmlns="http://www.w3.org/2000/svg"
   xmlns:sodipodi="http://sodipodi.sourceforge.net/DTD/sodipodi-0.dtd"
   xmlns:inkscape="http://www.inkscape.org/namespaces/inkscape"
   width="22"
   height="22"
   viewBox="0 0 22 22"
   id="svg2"
   version="1.1"
   inkscape:version="0.92.3 (2405546, 2018-03-11)"
   sodipodi:docname="btsync-gui-5.svg">
  <defs
     id="defs4" />
  <sodipodi:namedview
     id="base"
     pagecolor="#ffffff"
     bordercolor="#666666"
     borderopacity="1.0"
     inkscape:pageopacity="0.0"
     inkscape:pageshadow="2"
     inkscape:zoom="7.919596"
     inkscape:cx="19.240873"
     inkscape:cy="0.38969607"
     inkscape:document-units="px"
     inkscape:current-layer="layer1"
     showgrid="false"
     units="px"
     inkscape:window-width="1366"
     inkscape:window-height="718"
     inkscape:window-x="0"
     inkscape:window-y="25"
     inkscape:window-maximized="1" />
  <metadata
     id="metadata7">
    <rdf:RDF>
      <cc:Work
         rdf:about="">
        <dc:format>image/svg+xml</dc:format>
        <dc:type
           rdf:resource="http://purl.org/dc/dcmitype/StillImage" />
        <dc:title />
      </cc:Work>
    </rdf:RDF>
  </metadata>
  <g
     inkscape:label="Layer 1"
     inkscape:groupmode="layer"
     id="layer1"
     transform="translate(0,-1030.3622)">
    <g
       id="g825">
      <path
         style="fill:#3689e6;fill-opacity:1;stroke-width:0.47736382"
         inkscape:connector-curvature="0"
         d="m 18.601742,1032.7888 c 4.391102,3.8059 4.547245,10.7293 0.348769,15.4644 -4.198475,4.7351 -11.1611515,5.4883 -15.5522531,1.6824 -4.39110185,-3.806 -4.5472441,-10.7293 -0.3487688,-15.4644 4.1984753,-4.7351 11.1611509,-5.4883 15.5522529,-1.6824 z"
         id="path27" />
      <path
         style="opacity:1;fill:#000000;fill-opacity:0.49019608;stroke-width:0.47736382"
         inkscape:connector-curvature="0"
         d="m 21.984338,1040.026 c -0.06666,2.6345 -1.081146,5.3348 -3.049336,7.5545 -4.198476,4.7352 -11.1611521,5.4883 -15.5522538,1.6824 -2.0581452,-1.7839 -3.18952541,-4.2517 -3.37441968,-6.8596 0.0260069,2.8512 1.15687268,5.5968 3.38958358,7.532 4.3911015,3.8059 11.3541079,3.0524 15.5522529,-1.6824 2.135759,-2.4087 3.136934,-5.3836 3.034173,-8.2269 z"
         id="path51" />
      <path
         style="fill:#000000;fill-opacity:0.49019608;stroke-width:0.01367174"
         d="m 12.195211,1035.5378 c 1.4668,0.078 2.8339,0.6171 3.9717,1.5649 0.1774,0.1477 0.5499,0.5128 0.7097,0.6955 0.9998,1.143 1.5681,2.5197 1.6622,4.0263 0.035,0.5613 -0.01,0.8003 -0.1895,1.0812 -0.1834,0.2821 -0.4524,0.4711 -0.7811,0.5488 -0.1363,0.032 -0.4201,0.032 -0.5518,-6e-4 -0.383,-0.095 -0.6923,-0.3463 -0.8564,-0.6964 -0.09,-0.1915 -0.109,-0.298 -0.1231,-0.68 -0.019,-0.5227 -0.071,-0.9112 -0.1775,-1.3468 -0.5439,-2.2129 -2.246,-3.8929 -4.3341,-4.2776 -0.3329,-0.061 -0.5558,-0.081 -0.916,-0.082 -0.3571,-4e-4 -0.5454,0.014 -0.8592001,0.067 -0.8856,0.149 -1.7108,0.527 -2.4424,1.119 -0.212,0.1716 -0.658,0.6231 -0.8319,0.8421 -0.4794,0.6038 -0.8047,1.2243 -1.0609,2.0234 -0.023,0.072 -0.038,0.1084 -0.033,0.082 0,-0.026 0.036,-0.1371 0.069,-0.2461 0.2572,-0.8352 0.6596,-1.5845 1.2235,-2.2784 0.1932,-0.2377 0.6861,-0.7318 0.9204,-0.9226 1.1223,-0.914 2.4257001,-1.4264 3.8554001,-1.5157 0.1997,-0.013 0.5575,-0.015 0.7451,0 z m -6.8245001,5.0358 c -10e-5,0.011 -0.01,0.036 -0.011,0.055 -0.01,0.027 -0.011,0.029 -0.011,0.01 -1e-4,-0.015 0,-0.04 0.011,-0.055 0.01,-0.017 0.012,-0.019 0.011,-0.01 z m -0.026,0.1173 c -6e-4,0.016 0,0.019 -0.01,0.01 0,-0.01 0,-0.022 0,-0.026 0,0 0.01,0 0.01,0.018 z m -0.014,0.055 c -7e-4,0.016 0,0.019 -0.01,0.01 0,-0.01 0,-0.022 0,-0.026 0,0 0.01,0 0.01,0.018 z m -0.014,0.055 c -7e-4,0.016 0,0.019 -0.01,0.01 0,-0.01 0,-0.022 0,-0.026 0,0 0.01,0 0.01,0.018 z m -0.014,0.068 c -6e-4,0.016 0,0.019 -0.01,0.01 0,-0.01 0,-0.022 0,-0.026 0,0 0.01,0 0.01,0.018 z m 1.3226,0.1217 c 0.2525,0.046 0.4635,0.154 0.6522,0.3344 0.118,0.1129 0.1993,0.226 0.2685,0.3735 0.09,0.1916 0.109,0.2981 0.1231,0.68 0.019,0.5228 0.071,0.9112 0.1775,1.3468 0.544,2.2133 2.2461001,3.8933 4.3341001,4.2776 0.95,0.1748 1.9094,0.081 2.8095,-0.2745 1.5687,-0.6198 2.8039,-2.0122 3.3087,-3.7298 0.033,-0.1128 0.061,-0.1964 0.061,-0.1859 0.001,0.034 -0.094,0.3634 -0.1644,0.5702 -0.2697,0.7913 -0.6719,1.5044 -1.2175,2.1587 -0.1472,0.1765 -0.5121,0.549 -0.6956,0.7101 -1.4594,1.2809 -3.3597,1.8632 -5.2841,1.6194 -1.3248001,-0.1678 -2.5619001,-0.7283 -3.5752001,-1.6197 -0.1579,-0.139 -0.5081,-0.4914 -0.6373,-0.6415 -0.9729,-1.1299 -1.5279,-2.5026 -1.6198,-4.006 -0.033,-0.5394 0.012,-0.7801 0.1987,-1.0662 0.2713,-0.4155 0.777,-0.6349 1.2608,-0.5471 z m 11.7749001,2.6674 c -6e-4,0.016 0,0.019 -0.01,0.01 0,-0.01 0,-0.022 0,-0.026 0,0 0.01,0 0.01,0.018 z m -0.014,0.055 c -7e-4,0.016 0,0.019 -0.01,0.01 0,-0.01 0,-0.022 0,-0.026 0,0 0.01,0 0.01,0.018 z m -0.014,0.055 c -6e-4,0.016 0,0.019 -0.01,0.01 0,-0.01 0,-0.022 0,-0.026 0,0 0.01,0 0.01,0.018 z"
         id="path846"
         inkscape:connector-curvature="0" />
      <path
         inkscape:connector-curvature="0"
         id="path844"
         d="m 11.335886,1034.6782 c 1.4667,0.078 2.8339,0.6172 3.9716,1.5649 0.1774,0.1478 0.5499,0.5129 0.7097,0.6956 0.9998,1.143 1.5682,2.5197 1.6623,4.0263 0.035,0.5613 -0.01,0.8003 -0.1895,1.0812 -0.1835,0.2821 -0.4525,0.4711 -0.7811,0.5488 -0.1364,0.032 -0.4201,0.032 -0.5518,-6e-4 -0.383,-0.095 -0.6924,-0.3464 -0.8564,-0.6964 -0.09,-0.1916 -0.1091,-0.2981 -0.1232,-0.68 -0.019,-0.5228 -0.07,-0.9112 -0.1775,-1.3468 -0.5438,-2.213 -2.246,-3.893 -4.334,-4.2776 -0.3329,-0.061 -0.5559,-0.081 -0.9160001,-0.082 -0.3572,-4e-4 -0.5455,0.014 -0.8592,0.067 -0.8857,0.1489 -1.7108,0.527 -2.4424,1.119 -0.2121,0.1716 -0.6581,0.623 -0.832,0.8421 -0.4794,0.6038 -0.8047,1.2243 -1.0609,2.0234 -0.023,0.071 -0.038,0.1083 -0.033,0.082 0,-0.026 0.036,-0.137 0.069,-0.2461 0.2572,-0.8352 0.6596,-1.5844 1.2236,-2.2783 0.1931,-0.2377 0.6861,-0.7318 0.9204,-0.9226 1.1222,-0.914 2.4256,-1.4264 3.8554001,-1.5157 0.1997,-0.013 0.5574,-0.015 0.7451,0 z m -6.8245001,5.0358 c -2e-4,0.011 -0.01,0.036 -0.011,0.055 -0.01,0.027 -0.011,0.029 -0.011,0.01 -2e-4,-0.015 0,-0.04 0.011,-0.055 0.01,-0.017 0.012,-0.019 0.011,-0.01 z m -0.026,0.1174 c -7e-4,0.016 0,0.019 -0.01,0.01 0,-0.01 0,-0.022 0,-0.026 0,0 0.01,0 0.01,0.018 z m -0.014,0.055 c -6e-4,0.016 0,0.019 -0.01,0.01 0,-0.01 0,-0.022 0,-0.026 0,0 0.01,0 0.01,0.018 z m -0.014,0.055 c -6e-4,0.016 0,0.019 -0.01,0.01 0,-0.01 0,-0.022 0,-0.026 0,0 0.01,0 0.01,0.018 z m -0.014,0.068 c -7e-4,0.016 0,0.019 -0.01,0.01 0,-0.01 0,-0.022 0,-0.026 0,0 0.01,0 0.01,0.018 z m 1.3225,0.1216 c 0.2526,0.046 0.4636,0.154 0.6522,0.3344 0.1181,0.1129 0.1994,0.2261 0.2685,0.3736 0.09,0.1915 0.1091,0.298 0.1232,0.68 0.019,0.5227 0.07,0.9112 0.1775,1.3468 0.5439,2.2133 2.2461,3.8933 4.3340001,4.2776 0.95,0.1748 1.9095,0.081 2.8096,-0.2746 1.5687,-0.6197 2.8039,-2.0121 3.3086,-3.7297 0.033,-0.1128 0.061,-0.1964 0.061,-0.1859 0.001,0.034 -0.094,0.3634 -0.1645,0.5702 -0.2697,0.7913 -0.6718,1.5043 -1.2174,2.1586 -0.1472,0.1766 -0.5121,0.5491 -0.6957,0.7102 -1.4594,1.2808 -3.3596,1.8632 -5.2841,1.6194 -1.3248001,-0.1679 -2.5619001,-0.7283 -3.5751001,-1.6197 -0.158,-0.139 -0.5082,-0.4914 -0.6374,-0.6415 -0.9728,-1.1299 -1.5278,-2.5026 -1.6197,-4.0061 -0.033,-0.5393 0.012,-0.78 0.1987,-1.0661 0.2712,-0.4155 0.7769,-0.6349 1.2607,-0.5472 z m 11.7750001,2.6675 c -7e-4,0.016 0,0.019 -0.01,0.01 0,-0.01 0,-0.022 0,-0.026 0,0 0.01,0 0.01,0.018 z m -0.014,0.055 c -6e-4,0.016 0,0.019 -0.01,0.01 0,-0.01 0,-0.022 0,-0.026 0,0 0.01,0 0.01,0.018 z m -0.014,0.055 c -7e-4,0.016 0,0.019 -0.01,0.01 0,-0.01 0,-0.022 0,-0.026 0,0 0.01,0 0.01,0.018 z"
         style="fill:#ffffff;stroke-width:0.01367174" />
    </g>
  </g>
</svg>
