<?xml version="1.0" encoding="UTF-8" standalone="no"?>
<!-- Created with Inkscape (http://www.inkscape.org/) -->

<svg
   xmlns:dc="http://purl.org/dc/elements/1.1/"
   xmlns:cc="http://creativecommons.org/ns#"
   xmlns:rdf="http://www.w3.org/1999/02/22-rdf-syntax-ns#"
   xmlns:svg="http://www.w3.org/2000/svg"
   xmlns="http://www.w3.org/2000/svg"
   xmlns:sodipodi="http://sodipodi.sourceforge.net/DTD/sodipodi-0.dtd"
   xmlns:inkscape="http://www.inkscape.org/namespaces/inkscape"
   width="22"
   height="22"
   viewBox="0 0 22 22"
   id="svg2"
   version="1.1"
   inkscape:version="0.92.3 (2405546, 2018-03-11)"
   sodipodi:docname="btsync-gui-3.svg">
  <defs
     id="defs4" />
  <sodipodi:namedview
     id="base"
     pagecolor="#ffffff"
     bordercolor="#666666"
     borderopacity="1.0"
     inkscape:pageopacity="0.0"
     inkscape:pageshadow="2"
     inkscape:zoom="11.2"
     inkscape:cx="4.2635242"
     inkscape:cy="4.2156828"
     inkscape:document-units="px"
     inkscape:current-layer="layer1"
     showgrid="false"
     units="px"
     inkscape:window-width="1366"
     inkscape:window-height="718"
     inkscape:window-x="0"
     inkscape:window-y="25"
     inkscape:window-maximized="1" />
  <metadata
     id="metadata7">
    <rdf:RDF>
      <cc:Work
         rdf:about="">
        <dc:format>image/svg+xml</dc:format>
        <dc:type
           rdf:resource="http://purl.org/dc/dcmitype/StillImage" />
        <dc:title />
      </cc:Work>
    </rdf:RDF>
  </metadata>
  <g
     inkscape:label="Layer 1"
     inkscape:groupmode="layer"
     id="layer1"
     transform="translate(0,-1030.3622)">
    <g
       id="g827"
       transform="matrix(0.04296875,0,0,0.04296875,1.1199091e-7,1007.1435)">
      <path
         style="fill:#3689e6;fill-opacity:1;stroke-width:11.10955715"
         inkscape:connector-curvature="0"
         d="m 432.91326,596.83622 c 102.19292,88.57367 105.82679,249.70007 8.11681,359.89876 C 343.3201,1066.9337 181.27964,1084.4627 79.086728,995.88902 -23.106186,907.31302 -26.740041,746.18895 70.969927,635.99026 168.67989,525.79157 330.72034,508.26255 432.91326,596.83622 Z"
         id="path27" />
      <path
         style="opacity:1;fill:#000000;fill-opacity:0.49019608;stroke-width:11.10955715"
         inkscape:connector-curvature="0"
         d="m 511.63549,765.2656 c -1.55136,61.312 -25.16121,124.15534 -70.96636,175.81382 C 342.95914,1051.2804 180.91869,1068.8071 78.725775,980.23345 30.827123,938.71723 4.4968208,881.2848 0.19382691,820.59185 0.79907839,886.94705 27.117409,950.84465 79.07868,995.88203 181.27159,1084.4557 343.31973,1066.9197 441.02201,956.728 490.72695,900.67098 514.02702,831.43694 511.63549,765.2656 Z"
         id="path51" />
      <path
         style="fill:#000000;fill-opacity:0.49019608;stroke-width:0.31843537"
         d="m 125.62966,774.79471 c 9.18503,-32.95315 28.35346,-61.31369 55.65155,-82.39408 4.25738,-3.28648 14.44003,-9.91083 19.40047,-12.62031 31.03875,-16.95509 65.21371,-22.92135 99.9442,-17.44762 12.93877,2.03937 18.16324,4.19901 23.6269,9.77163 5.48258,5.60071 8.42193,12.6703 8.53057,20.53286 0.036,3.26576 -1.39584,9.71451 -2.80244,12.54444 -4.09422,8.22678 -11.37507,13.99041 -20.16042,15.95105 -4.81042,1.07265 -7.32981,0.97375 -16.08458,-0.63598 -11.984,-2.20348 -21.07225,-3.00285 -31.5183,-2.76941 -53.06518,1.18222 -99.86436,31.39408 -119.15914,76.92468 -3.07004,7.26175 -4.65225,12.22968 -6.49424,20.41304 -1.81313,8.11817 -2.43915,12.47311 -2.81906,19.87496 -1.08914,20.88807 3.33744,41.55985 13.10765,61.18465 2.83577,5.68665 10.84087,18.10958 14.94213,23.17136 11.30649,13.95019 23.77078,24.48207 40.64416,34.34637 1.48627,0.88579 2.2749,1.40607 1.70533,1.16709 -0.56758,-0.23642 -2.93879,-1.50103 -5.24517,-2.81873 -17.69029,-10.0686 -32.68999,-23.00393 -45.61667,-39.33377 -4.38278,-5.6278 -13.17103,-19.29877 -16.32805,-25.58733 -15.10955,-30.13597 -20.17278,-62.35948 -14.97818,-95.31952 0.72147,-4.60733 2.4747,-12.7494 3.767,-16.94195 z m 80.01158,180.61482 c 0.30658,0.0149 0.79686,0.30357 1.18506,0.53692 0.56197,0.34284 0.60487,0.39793 0.002,0.38188 -0.34863,-0.0689 -0.86891,-0.32032 -1.18493,-0.53674 -0.43971,-0.18584 -0.31816,-0.40854 -0.002,-0.38188 z m 2.52343,1.19495 c 0.36407,0.0887 0.43056,0.1741 0.21319,0.27376 -0.26081,0.0438 -0.52619,-0.0318 -0.57069,-0.16467 -0.0529,-0.0679 -0.0915,-0.11751 0.44227,-0.076 z m 1.16908,0.59213 c 0.36406,0.0887 0.43056,0.17411 0.2132,0.27377 -0.26083,0.0438 -0.50156,-0.038 -0.57085,-0.16485 -0.0529,-0.0679 -0.0915,-0.11752 0.44227,-0.076 z m 1.16907,0.59213 c 0.36406,0.0887 0.43056,0.17412 0.21321,0.27379 -0.26083,0.0438 -0.52621,-0.0318 -0.58921,-0.15056 -0.0529,-0.0679 -0.0915,-0.11751 0.44227,-0.076 z m 1.47874,0.64891 c 0.36408,0.0887 0.43057,0.1741 0.21321,0.27376 -0.26082,0.0438 -0.50154,-0.038 -0.57084,-0.16485 -0.0529,-0.0679 -0.0915,-0.11751 0.44226,-0.076 z m 9.44606,-29.4553 c 2.32428,-5.51116 5.84555,-9.76182 10.89944,-13.13911 3.16457,-2.11413 6.14714,-3.39008 9.85086,-4.21724 4.80715,-1.07307 7.32744,-0.97301 16.08274,0.63741 11.98284,2.202 21.07412,3.00149 31.51833,2.76944 53.07308,-1.18344 99.8745,-31.39619 119.16097,-76.92612 8.77429,-20.71617 11.48982,-43.00425 7.9537,-65.2673 -6.17109,-38.79733 -31.57889,-73.91885 -68.08087,-94.07563 -2.39064,-1.32745 -4.15089,-2.37567 -3.92773,-2.31639 0.76734,0.15205 7.78941,3.97222 12.1345,6.61999 16.62739,10.13172 30.80953,22.87699 42.92949,38.58761 3.28994,4.22452 9.89921,14.41575 12.63362,19.40409 21.74651,39.65447 25.3839,85.80376 10.11825,128.32676 -10.51348,29.27393 -29.5059,54.56901 -54.89368,73.10267 -3.96122,2.89031 -13.74084,9.07012 -17.80748,11.24936 -30.6054,16.40933 -64.62083,22.09185 -99.27144,16.58434 -12.42692,-1.97679 -17.67267,-4.21299 -23.23546,-9.90534 -8.06665,-8.27494 -10.50965,-20.87348 -6.07571,-31.42904 z m 120.1533,-254.24374 c 0.36407,0.0887 0.4305,0.17404 0.21262,0.27302 -0.25969,0.0453 -0.50203,-0.0386 -0.5707,-0.16467 -0.053,-0.0681 -0.0909,-0.11678 0.44298,-0.0751 z m 1.16914,0.59222 c 0.36406,0.0887 0.43049,0.17403 0.21262,0.27301 -0.25955,0.0455 -0.52666,-0.0324 -0.5707,-0.16467 -0.0532,-0.0683 -0.091,-0.11678 0.44297,-0.0751 z m 1.1691,0.59218 c 0.36407,0.0887 0.43052,0.17405 0.21262,0.27301 -0.25969,0.0453 -0.50202,-0.0386 -0.5707,-0.16467 -0.0532,-0.0683 -0.0909,-0.11678 0.44298,-0.0751 z"
         id="path821"
         inkscape:connector-curvature="0" />
      <path
         inkscape:connector-curvature="0"
         id="path844"
         d="m 105.62937,754.79471 c 9.18503,-32.95315 28.35346,-61.31369 55.65155,-82.39408 4.25738,-3.28648 14.44003,-9.91083 19.40047,-12.62031 31.03875,-16.95509 65.21371,-22.92135 99.9442,-17.44762 12.93877,2.03937 18.16324,4.19901 23.6269,9.77163 5.48258,5.60071 8.42193,12.6703 8.53057,20.53286 0.036,3.26576 -1.39584,9.71451 -2.80244,12.54444 -4.09422,8.22678 -11.37507,13.99041 -20.16042,15.95105 -4.81042,1.07265 -7.32981,0.97375 -16.08458,-0.63598 -11.984,-2.20348 -21.07225,-3.00285 -31.5183,-2.76941 -53.06518,1.18222 -99.86436,31.39408 -119.15914,76.92468 -3.07004,7.26175 -4.65225,12.22968 -6.49424,20.41304 -1.81313,8.11817 -2.43915,12.47311 -2.81906,19.87496 -1.08914,20.88807 3.33744,41.55985 13.10765,61.18465 2.83577,5.68665 10.84087,18.10958 14.94213,23.17136 11.30649,13.95019 23.77078,24.48207 40.64416,34.34637 1.48627,0.88579 2.2749,1.40607 1.70533,1.16709 -0.56758,-0.23642 -2.93879,-1.50103 -5.24517,-2.81873 -17.69029,-10.0686 -32.68999,-23.00393 -45.61667,-39.33377 -4.38278,-5.6278 -13.17103,-19.29877 -16.32805,-25.58733 -15.10955,-30.13597 -20.172777,-62.35948 -14.97818,-95.31952 0.72147,-4.60733 2.4747,-12.7494 3.767,-16.94195 z m 80.01158,180.61482 c 0.30658,0.0149 0.79686,0.30357 1.18506,0.53692 0.56197,0.34284 0.60487,0.39793 0.002,0.38188 -0.34863,-0.0689 -0.86891,-0.32032 -1.18493,-0.53674 -0.43971,-0.18584 -0.31816,-0.40854 -0.002,-0.38188 z m 2.52343,1.19495 c 0.36407,0.0887 0.43056,0.1741 0.21319,0.27376 -0.26081,0.0438 -0.52619,-0.0318 -0.57069,-0.16467 -0.0529,-0.0679 -0.0915,-0.11751 0.44227,-0.076 z m 1.16908,0.59213 c 0.36406,0.0887 0.43056,0.17411 0.2132,0.27377 -0.26083,0.0438 -0.50156,-0.038 -0.57085,-0.16485 -0.0529,-0.0679 -0.0915,-0.11752 0.44227,-0.076 z m 1.16907,0.59213 c 0.36406,0.0887 0.43056,0.17412 0.21321,0.27379 -0.26083,0.0438 -0.52621,-0.0318 -0.58921,-0.15056 -0.0529,-0.0679 -0.0915,-0.11751 0.44227,-0.076 z m 1.47874,0.64891 c 0.36408,0.0887 0.43057,0.1741 0.21321,0.27376 -0.26082,0.0438 -0.50154,-0.038 -0.57084,-0.16485 -0.0529,-0.0679 -0.0915,-0.11751 0.44226,-0.076 z m 9.44606,-29.4553 c 2.32428,-5.51116 5.84555,-9.76182 10.89944,-13.13911 3.16457,-2.11413 6.14714,-3.39008 9.85086,-4.21724 4.80715,-1.07307 7.32744,-0.97301 16.08274,0.63741 11.98284,2.202 21.07412,3.00149 31.51833,2.76944 53.07308,-1.18344 99.8745,-31.39619 119.16097,-76.92612 8.77429,-20.71617 11.48982,-43.00425 7.9537,-65.2673 -6.17109,-38.79733 -31.57889,-73.91885 -68.08087,-94.07563 -2.39064,-1.32745 -4.15089,-2.37567 -3.92773,-2.31639 0.76734,0.15205 7.78941,3.97222 12.1345,6.61999 16.62739,10.13172 30.80953,22.87699 42.92949,38.58761 3.28994,4.22452 9.89921,14.41575 12.63362,19.40409 21.74651,39.65447 25.3839,85.80376 10.11825,128.32676 -10.51348,29.27393 -29.5059,54.56901 -54.89368,73.10267 -3.96122,2.89031 -13.74084,9.07012 -17.80748,11.24936 -30.6054,16.40933 -64.62083,22.09185 -99.27144,16.58434 -12.42692,-1.97679 -17.67267,-4.21299 -23.23546,-9.90534 -8.06665,-8.27494 -10.50965,-20.87348 -6.07571,-31.42904 z m 120.1533,-254.24374 c 0.36407,0.0887 0.4305,0.17404 0.21262,0.27302 -0.25969,0.0453 -0.50203,-0.0386 -0.5707,-0.16467 -0.053,-0.0681 -0.0909,-0.11678 0.44298,-0.0751 z m 1.16914,0.59222 c 0.36406,0.0887 0.43049,0.17403 0.21262,0.27301 -0.25955,0.0455 -0.52666,-0.0324 -0.5707,-0.16467 -0.0532,-0.0683 -0.091,-0.11678 0.44297,-0.0751 z m 1.1691,0.59218 c 0.36407,0.0887 0.43052,0.17405 0.21262,0.27301 -0.25969,0.0453 -0.50202,-0.0386 -0.5707,-0.16467 -0.0532,-0.0683 -0.0909,-0.11678 0.44298,-0.0751 z"
         style="fill:#ffffff;stroke-width:0.31843537" />
    </g>
  </g>
</svg>
