<?xml version="1.0" encoding="UTF-8" standalone="no"?>
<!-- Generator: flash2svg, http://dissentgraphics.com/tools/flash2svg -->

<svg
   xmlns:dc="http://purl.org/dc/elements/1.1/"
   xmlns:cc="http://creativecommons.org/ns#"
   xmlns:rdf="http://www.w3.org/1999/02/22-rdf-syntax-ns#"
   xmlns:svg="http://www.w3.org/2000/svg"
   xmlns="http://www.w3.org/2000/svg"
   xmlns:sodipodi="http://sodipodi.sourceforge.net/DTD/sodipodi-0.dtd"
   xmlns:inkscape="http://www.inkscape.org/namespaces/inkscape"
   id="Caffeine"
   version="1.1"
   x="0px"
   y="0px"
   width="22"
   height="22"
   viewBox="0 0 22 22"
   enable-background="new 0 0 1024 1024"
   inkscape:version="0.92.2 5c3e80d, 2017-08-06"
   sodipodi:docname="caffeine-cup-full.svg"
   style="image-rendering:optimizeSpeed">
  <metadata
     id="metadata29">
    <rdf:RDF>
      <cc:Work
         rdf:about="">
        <dc:format>image/svg+xml</dc:format>
        <dc:type
           rdf:resource="http://purl.org/dc/dcmitype/StillImage" />
        <dc:title />
      </cc:Work>
    </rdf:RDF>
  </metadata>
  <sodipodi:namedview
     pagecolor="#ffffff"
     bordercolor="#666666"
     borderopacity="1"
     objecttolerance="10"
     gridtolerance="10"
     guidetolerance="10"
     inkscape:pageopacity="0"
     inkscape:pageshadow="2"
     inkscape:window-width="1366"
     inkscape:window-height="717"
     id="namedview27"
     showgrid="false"
     inkscape:zoom="14.75"
     inkscape:cx="7.9129002"
     inkscape:cy="11.965384"
     inkscape:window-x="0"
     inkscape:window-y="24"
     inkscape:window-maximized="1"
     inkscape:current-layer="Caffeine" />
  <defs
     transform="matrix(1 0 0 1 0 0) "
     id="defs3" />
  <mask
     id="circle1">
    <g
       id="g">
      <g
         id="shape14">
        <path
           id="path9"
           d="m 969.75,392.05 c -1.1,-4.35 -2.35,-9 -3.65,-13.6 -2.5,-8.75 -5.35,-17.6 -8.45,-26.35 -6.45,-18.25 -14.15,-36.05 -23.15,-53.65 -3.8,-7.4 -7.95,-14.95 -12.3,-22.4 l -0.025,0 Q 891.574,224.04 845.85,178.3 C 753.7,86.15 642.4,40.05 512.05,40.05 381.7,40.05 270.45,86.15 178.3,178.3 86.15,270.45 40.05,381.7 40.05,512.05 c 0,130.35 46.1,241.65 138.25,333.8 92.15,92.15 203.4,138.2 333.75,138.2 12.7,0 25.2,-0.45 37.05,-1.25 20.2,-1.45 39.9,-4.05 58.7,-7.7 7.95,-1.55 15.8,-3.3 23.4,-5.15 80.8,-20.3 152.15,-61.6 214.65,-124.1 48.6,-48.6 84.4,-102.5 107.35,-161.8 18.45,-47.65 28.65,-98.8 30.55,-153.5 0.2,-6.05 0.3,-12.25 0.3,-18.5 0,-41.75 -4.7,-81.6 -14.3,-120 z"
           inkscape:connector-curvature="0"
           style="fill:#ffffff;fill-opacity:1" />
      </g>
    </g>
  </mask>
  <g
     style="image-rendering:optimizeSpeed"
     id="g828"
     transform="matrix(0.04296875,0,0,0.04296875,0,21.054686)">
    <path
       style="fill:#3689e6;fill-opacity:1;stroke-width:11.10955811"
       inkscape:connector-curvature="0"
       d="m 432.91327,-433.52599 c 102.19291,88.57459 105.82678,249.6997 8.1168,359.898785 C 343.3201,36.571877 181.27964,54.100646 79.086729,-34.473944 -23.106186,-123.04853 -26.740042,-284.17365 70.969928,-394.37273 168.6799,-504.57181 330.72036,-522.10058 432.91327,-433.52599 Z"
       id="path27" />
    <path
       style="opacity:1;fill:#000000;fill-opacity:0.49019608;stroke-width:11.10955811"
       inkscape:connector-curvature="0"
       d="m 511.63551,-265.09645 c -1.55139,61.31165 -25.16123,124.15461 -70.96638,175.81448 C 342.95915,20.917149 180.91869,38.44588 78.725776,-50.128672 30.827124,-91.644326 4.4968216,-149.07712 0.19382768,-209.77116 0.79907934,-143.41448 27.117411,-79.517787 79.078682,-34.480899 181.27159,54.093653 343.31975,36.55623 441.02202,-73.634197 490.72697,-129.6923 514.02704,-198.92516 511.63551,-265.09645 Z"
       id="path51" />
    <path
       style="fill:#000000;fill-opacity:0.49019608;stroke-width:1.59690368"
       d="m 160.34814,-75.585285 c -3.88943,-4.171956 -9.41183,-10.99869 -12.27207,-15.170648 l -5.20035,-7.58528 h 132.69646 132.69641 l -4.68806,6.81388 c -2.57843,3.747591 -8.06906,10.574325 -12.20148,15.170571 L 383.86567,-68 H 275.64271 167.4198 Z M 132.83983,-117.51143 C 123.19419,-138.61268 120,-154.50125 120,-181.38019 c 0,-28.50089 3.51136,-44.45095 14.94104,-67.86838 23.72964,-48.61802 67.06283,-79.75498 121.87758,-87.57486 5.38838,-0.76876 6.24105,-0.38688 8.38374,3.75689 4.40276,8.51395 2.64598,15.94371 -3.77394,15.96075 -7.90225,0.0189 -30.75292,6.36439 -42.53441,11.80781 -29.48894,13.62475 -53.57108,37.65578 -67.11743,66.97512 -17.09392,36.99765 -16.17066,81.88759 2.43594,118.43331 l 7.7188,15.16075 h -11.62421 -11.62422 z m 85.4504,6.27934 c -23.61106,-15.7669 -41.72609,-47.88105 -41.72609,-73.97159 v -7.35481 h 91.82197 91.82195 l 0.0227,3.59301 c 0.0151,2.65108 2.1244,4.75211 8.03853,8.01419 24.67285,13.60898 23.32171,47.37524 -2.4254,60.61187 -7.33107,3.7689 -23.07871,5.43307 -31.18659,3.29571 -5.10146,-1.3448 -6.4689,-0.87179 -15.67075,5.42075 l -10.08159,6.89416 h -40.43787 -40.43813 l -9.73878,-6.50329 z m 145.92341,-22.94135 c 7.22917,-5.51395 10.99831,-13.79592 9.62063,-21.13954 -0.93135,-4.96449 -10.35144,-16.48577 -13.47919,-16.48577 -0.73887,0 -2.97877,5.08596 -4.97755,11.30222 -1.99877,6.21619 -6.40053,15.58231 -9.78167,20.8136 -3.38115,5.23132 -6.14754,9.93282 -6.14754,10.44797 0,0.51481 4.24138,0.62967 9.4253,0.25474 7.21395,-0.5215 10.81298,-1.74024 15.34002,-5.19318 z m 24.73869,28.70166 c 0,-0.40861 2.13301,-4.10638 4.74002,-8.21726 19.55402,-30.83354 23.28068,-80.33084 8.82519,-117.21672 -16.09529,-41.07024 -54.97385,-74.73687 -96.04673,-83.171 -9.52427,-1.95576 -9.85101,-2.19005 -10.76422,-7.71855 -0.51797,-3.13588 -2.03925,-7.78462 -3.3806,-10.33059 -1.34135,-2.54604 -2.2463,-4.7743 -2.01103,-4.95174 0.23528,-0.17764 5.8058,0.6079 12.37892,1.74516 84.0341,14.53957 141.67486,96.07593 127.03093,179.6928 -2.54706,14.54385 -7.88243,31.36781 -13.73979,43.32559 l -3.71558,7.58529 h -11.65856 c -6.41219,0 -11.65855,-0.33449 -11.65855,-0.74298 z M 232.3692,-224.22836 c -3.90472,-2.48742 -9.79426,-7.51975 -13.08788,-11.18294 -5.05812,-5.62575 -5.98839,-7.78397 -5.98839,-13.89316 0,-15.23135 8.45803,-25.98996 34.65513,-44.08113 9.34279,-6.45191 19.02097,-14.53878 21.50706,-17.97071 8.09808,-11.17908 4.92189,-26.65054 -7.05655,-34.37276 -7.11149,-4.5846 -6.9644,-5.49747 0.50366,-3.12597 12.15172,3.85875 16.33664,6.93608 21.17104,15.56806 11.13148,19.87559 2.94536,34.96691 -31.91299,58.83247 -9.98486,6.83611 -15.3084,11.63373 -17.10127,15.41193 -3.86211,8.1388 -3.30966,20.98492 1.33115,30.95297 2.14676,4.61103 3.71764,8.38375 3.49085,8.38375 -0.22677,0 -3.60712,-2.03512 -7.51183,-4.52251 z m 65.23986,-9.92371 c -4.15916,-4.15919 -4.73031,-5.69348 -3.93767,-10.57792 1.13145,-6.97228 3.77691,-10.02705 16.66391,-19.24203 5.50611,-3.93725 10.76384,-8.56513 11.68385,-10.28417 2.29461,-4.28746 0.33249,-11.97528 -3.85625,-15.10949 -2.71346,-2.03029 -2.83107,-2.3777 -0.54139,-1.59885 1.60885,0.54742 3.59557,0.99488 4.41496,0.99488 2.33611,0 7.81785,9.96336 7.82447,14.22142 0.008,5.23457 -6.53255,13.40096 -15.61172,19.49208 -4.14558,2.7812 -8.43568,6.17197 -9.53355,7.53502 -2.54353,3.15798 -2.59751,14.99988 -0.0799,17.51754 1.49044,1.49042 1.46315,1.9163 -0.12283,1.9163 -1.12152,0 -4.22828,-2.18914 -6.90392,-4.86478 z"
       id="path859"
       inkscape:connector-curvature="0" />
    <path
       inkscape:connector-curvature="0"
       id="path857"
       d="m 140.34812,-95.58524 c -3.88942,-4.171955 -9.41182,-10.99869 -12.27207,-15.17065 l -5.20034,-7.58528 h 132.69645 132.69643 l -4.68805,6.81388 c -2.57843,3.74759 -8.06906,10.57433 -12.20149,15.170573 l -7.51339,8.356763 H 255.6427 147.41979 Z m -27.50831,-41.92615 c -9.64564,-21.10125 -12.839825,-36.98982 -12.839825,-63.86876 0,-28.50089 3.511355,-44.45095 14.941045,-67.86837 23.72963,-48.61803 67.06283,-79.75499 121.87757,-87.57487 5.38839,-0.76876 6.24106,-0.38687 8.38375,3.75689 4.40276,8.51395 2.64597,15.94371 -3.77395,15.96075 -7.90224,0.0189 -30.75291,6.36439 -42.53441,11.80782 -29.48893,13.62474 -53.57107,37.65577 -67.11742,66.97511 -17.09392,36.99765 -16.17067,81.88759 2.43594,118.43332 l 7.7188,15.16074 h -11.62422 -11.62421 z m 85.45041,6.27935 c -23.61106,-15.76691 -41.72609,-47.88106 -41.72609,-73.97159 v -7.35481 h 91.82196 91.82195 l 0.0227,3.593 c 0.0151,2.65108 2.1244,4.75212 8.03853,8.01419 24.67287,13.60898 23.32172,47.37524 -2.4254,60.61187 -7.33107,3.76891 -23.07872,5.43307 -31.18659,3.29571 -5.10146,-1.3448 -6.4689,-0.87179 -15.67075,5.42075 l -10.08159,6.89416 h -40.43788 -40.43813 l -9.73877,-6.50328 z m 145.9234,-22.94136 c 7.22918,-5.51395 10.99832,-13.79592 9.62064,-21.13954 -0.93135,-4.96448 -10.35145,-16.48577 -13.47919,-16.48577 -0.73887,0 -2.97877,5.08596 -4.97755,11.30223 -1.99878,6.21618 -6.40054,15.58231 -9.78168,20.81359 -3.38114,5.23132 -6.14753,9.93282 -6.14753,10.44797 0,0.51481 4.24138,0.62967 9.42529,0.25474 7.21395,-0.52149 10.81299,-1.74024 15.34002,-5.19318 z m 24.73871,28.70166 c 0,-0.40861 2.13302,-4.10638 4.74002,-8.21726 19.55403,-30.83354 23.28068,-80.33084 8.8252,-117.21672 -16.09531,-41.07024 -54.97387,-74.73687 -96.04675,-83.171 -9.52427,-1.95575 -9.85101,-2.19005 -10.76422,-7.71855 -0.51797,-3.13587 -2.03925,-7.78462 -3.3806,-10.33058 -1.34135,-2.54604 -2.2463,-4.7743 -2.01103,-4.95175 0.23528,-0.17764 5.8058,0.6079 12.37891,1.74516 84.03411,14.53958 141.67489,96.07593 127.03095,179.6928 -2.54706,14.54385 -7.88243,31.36781 -13.73979,43.32559 l -3.71558,7.58529 h -11.65855 c -6.41219,0 -11.65856,-0.33449 -11.65856,-0.74298 z M 212.36918,-244.22832 c -3.90472,-2.48742 -9.79426,-7.51974 -13.08787,-11.18294 -5.05812,-5.62575 -5.98839,-7.78397 -5.98839,-13.89316 0,-15.23135 8.45803,-25.98996 34.65513,-44.08112 9.34279,-6.45192 19.02097,-14.53879 21.50706,-17.97071 8.09807,-11.17909 4.92188,-26.65055 -7.05655,-34.37277 -7.1115,-4.5846 -6.9644,-5.49747 0.50366,-3.12597 12.15172,3.85875 16.33664,6.93608 21.17103,15.56807 11.13149,19.87559 2.94536,34.9669 -31.91299,58.83246 -9.98485,6.83611 -15.30839,11.63373 -17.10126,15.41193 -3.86211,8.1388 -3.30966,20.98492 1.33114,30.95297 2.14676,4.61103 3.71765,8.38375 3.49086,8.38375 -0.22678,0 -3.60712,-2.03512 -7.51183,-4.52251 z m 65.23987,-9.92371 c -4.15917,-4.15918 -4.73032,-5.69348 -3.93767,-10.57792 1.13145,-6.97228 3.77691,-10.02705 16.66391,-19.24203 5.5061,-3.93724 10.76384,-8.56512 11.68385,-10.28417 2.29461,-4.28745 0.33249,-11.97528 -3.85625,-15.10949 -2.71346,-2.03029 -2.83107,-2.3777 -0.54139,-1.59885 1.60885,0.54742 3.59557,0.99488 4.41496,0.99488 2.33611,0 7.81785,9.96337 7.82446,14.22142 0.008,5.23457 -6.53255,13.40096 -15.61171,19.49208 -4.14558,2.78121 -8.43568,6.17197 -9.53355,7.53502 -2.54353,3.15798 -2.59751,14.99989 -0.0799,17.51754 1.49043,1.49042 1.46314,1.9163 -0.12283,1.9163 -1.12152,0 -4.22829,-2.18914 -6.90393,-4.86478 z"
       style="fill:#ffffff;stroke-width:1.59690368" />
  </g>
</svg>
