<?xml version="1.0" encoding="UTF-8" standalone="no"?>
<!-- Created with Inkscape (http://www.inkscape.org/) -->

<svg
   xmlns:dc="http://purl.org/dc/elements/1.1/"
   xmlns:cc="http://creativecommons.org/ns#"
   xmlns:rdf="http://www.w3.org/1999/02/22-rdf-syntax-ns#"
   xmlns:svg="http://www.w3.org/2000/svg"
   xmlns="http://www.w3.org/2000/svg"
   xmlns:sodipodi="http://sodipodi.sourceforge.net/DTD/sodipodi-0.dtd"
   xmlns:inkscape="http://www.inkscape.org/namespaces/inkscape"
   width="22"
   height="22"
   id="svg952"
   version="1.1"
   inkscape:version="0.92.2 5c3e80d, 2017-08-06"
   sodipodi:docname="camera-off.svg">
  <defs
     id="defs954" />
  <sodipodi:namedview
     id="base"
     pagecolor="#ffffff"
     bordercolor="#ffffff"
     borderopacity="1.0"
     inkscape:pageopacity="0.0"
     inkscape:pageshadow="2"
     inkscape:zoom="16"
     inkscape:cx="18.079201"
     inkscape:cy="12.570212"
     inkscape:document-units="px"
     inkscape:current-layer="layer1"
     showgrid="false"
     inkscape:window-width="1366"
     inkscape:window-height="717"
     inkscape:window-x="0"
     inkscape:window-y="24"
     inkscape:window-maximized="1"
     showguides="false"
     inkscape:guide-bbox="true"
     inkscape:showpageshadow="false"
     borderlayer="true"
     inkscape:snap-bbox="true"
     inkscape:bbox-nodes="true">
    <inkscape:grid
       type="xygrid"
       id="grid4063" />
    <sodipodi:guide
       position="2,14.000017"
       orientation="12,0"
       id="guide3284"
       inkscape:locked="false" />
    <sodipodi:guide
       position="2,2.0000174"
       orientation="0,12"
       id="guide3286"
       inkscape:locked="false" />
    <sodipodi:guide
       position="14,2.0000174"
       orientation="-12,0"
       id="guide3288"
       inkscape:locked="false" />
    <sodipodi:guide
       position="14,14.000017"
       orientation="0,-12"
       id="guide3290"
       inkscape:locked="false" />
    <sodipodi:guide
       position="9,2.0000174"
       orientation="0,5"
       id="guide3306"
       inkscape:locked="false" />
    <sodipodi:guide
       position="14,2.0000174"
       orientation="-5,0"
       id="guide3308"
       inkscape:locked="false" />
  </sodipodi:namedview>
  <metadata
     id="metadata957">
    <rdf:RDF>
      <cc:Work
         rdf:about="">
        <dc:format>image/svg+xml</dc:format>
        <dc:type
           rdf:resource="http://purl.org/dc/dcmitype/StillImage" />
        <dc:title />
      </cc:Work>
    </rdf:RDF>
  </metadata>
  <g
     inkscape:label="Capa 1"
     inkscape:groupmode="layer"
     id="layer1"
     transform="translate(0,-1030.3622)">
    <g
       id="g835"
       transform="matrix(0.04296875,0,0,0.04296875,1.9821015e-5,1007.1435)">
      <path
         style="fill:#c6262e;fill-opacity:1;stroke-width:11.10955811"
         inkscape:connector-curvature="0"
         d="m 432.9133,596.83621 c 102.19289,88.576 105.82677,249.70008 8.1168,359.89877 C 343.32012,1066.9337 181.27967,1084.4627 79.086763,995.88901 -23.106185,907.31301 -26.740012,746.18894 70.969964,635.99025 168.67994,525.79156 330.72038,508.26254 432.9133,596.83621 Z"
         id="path872" />
      <path
         style="opacity:1;fill:#000000;fill-opacity:0.49019608;stroke-width:11.10955811"
         inkscape:connector-curvature="0"
         d="m 511.63553,765.2656 c -1.55136,61.312 -25.16121,124.15534 -70.96639,175.81381 C 342.95918,1051.2804 180.91873,1068.8095 78.725782,980.23345 30.827146,938.71723 4.4968393,881.2848 0.19384703,820.59185 0.79910062,886.94705 27.117427,950.84465 79.078713,995.88203 181.27162,1084.4557 343.31979,1066.9197 441.02205,956.728 490.72699,900.67098 514.02706,831.43694 511.63553,765.2656 Z"
         id="path874" />
      <path
         style="fill:#000000;fill-opacity:0.49019608;stroke-width:0.6252504"
         d="m 137.50704,926.70861 c -8.1179,-2.60887 -14.11034,-8.74821 -16.50955,-16.91694 -0.87859,-2.99287 -0.99744,-9.71636 -0.99744,-56.42938 V 800.3284 h 60.64014 60.64022 l -1.31992,3.28378 c -3.81626,9.49062 -5.46795,21.45745 -4.3423,31.46007 1.82684,16.23506 8.18642,29.64713 19.42331,40.96233 27.29921,27.48742 71.21242,26.88 97.86435,-1.34982 17.29343,-18.32029 22.83025,-43.91098 14.73117,-68.08436 -1.05239,-3.14182 -1.91348,-5.8368 -1.91348,-5.9904 0,-0.23273 14.91223,-0.27928 33.13825,-0.27928 h 33.13829 l -0.0745,21.41557 c -0.0419,11.77832 -0.25182,36.3264 -0.46895,54.5536 l -0.39471,33.13803 -1.67563,3.57469 c -1.95468,4.17048 -6.42653,9.18575 -10.1141,11.34313 -6.44496,3.77018 3.38586,3.53047 -143.85475,3.49324 -126.80316,0 -134.66779,0 -137.91055,-1.14037 z m 156.31264,-56.02909 c -2.23535,-0.512 -6.73636,-2.23418 -10.00243,-3.84698 -4.92239,-2.43433 -6.85245,-3.85396 -11.28197,-8.30371 -8.61333,-8.65047 -12.46066,-17.93163 -12.46066,-30.06371 0,-10.20043 2.81209,-18.4576 9.06619,-26.624 9.98808,-13.03971 26.54471,-19.41178 42.1979,-16.23971 18.67416,3.78415 32.57619,18.81135 34.95548,37.7856 2.55455,20.37295 -10.35253,40.1315 -30.27812,46.34997 -5.70268,1.792 -16.43036,2.23418 -22.19639,0.95418 z M 120.00004,772.93174 c 0,-21.85309 0.28346,-24.40145 3.28207,-29.50051 1.82453,-3.10225 5.97781,-7.30996 8.91027,-9.02749 6.33256,-3.70967 -3.26532,-3.47694 143.82324,-3.47694 133.60173,0 134.55561,0.0116 138.22239,1.28 6.8436,2.35287 11.58032,6.53963 14.82202,13.09556 l 2.00216,4.04713 0.18618,22.05556 0.18618,22.05556 h -34.97037 -34.97039 l -2.57177,-3.94705 c -5.3508,-8.21295 -15.89968,-17.35447 -25.71136,-22.28364 -18.71381,-9.39752 -41.78223,-9.27651 -60.7159,0.32582 -8.51928,4.31709 -19.1461,13.70531 -24.91166,22.00669 l -2.71397,3.90749 H 182.43447 120 Z m 39.98646,-47.24131 c 0.31067,-0.81454 0.87722,-2.64611 1.2591,-4.06574 l 0.69441,-2.57862 h 11.77383 11.77384 l 0.35414,2.02473 c 0.19456,1.11709 0.54809,2.94865 0.78524,4.06574 l 0.43111,2.02473 H 173.23998 159.4218 Z m 70.25718,-9.74894 7.61606,-11.23375 h 37.59987 l 37.59987,-0.0209 6.12533,9.84669 c 3.36891,5.41556 6.52847,10.47971 7.02115,11.25469 l 0.89577,1.39636 h -52.23704 -52.23708 l 7.61605,-11.23374 z m 58.57399,0.30254 v -6.56523 h -13.44291 -13.44288 v 6.56523 6.56524 h 13.44288 13.44291 z m 70.19811,10.16087 c 1.73172,-4.4544 4.55215,-10.94749 5.02917,-11.57818 0.46103,-0.60509 4.07654,-0.74472 15.67595,-0.62836 l 15.0767,0.23273 2.29958,5.62734 c 1.26464,3.09527 2.31982,5.98109 2.34466,6.40931 0.0349,0.60509 -4.4251,0.79127 -20.34239,0.79127 -16.05525,0 -20.32296,-0.23272 -20.08367,-0.79127 z"
         id="path876"
         inkscape:connector-curvature="0" />
      <path
         inkscape:connector-curvature="0"
         id="path878"
         d="m 117.50702,906.70792 c -8.11789,-2.60887 -14.1103,-8.74821 -16.5095,-16.91694 -0.87862,-2.99055 -0.9975,-9.71637 -0.9975,-56.42938 v -53.03157 h 60.64018 60.64018 l -1.31989,3.28146 c -3.8163,9.49061 -5.46795,21.45745 -4.34234,31.46007 1.82689,16.23738 8.18646,29.64713 19.4233,40.96233 27.29926,27.48742 71.21247,26.88 97.86438,-1.34982 17.29345,-18.32029 22.83026,-43.91098 14.73115,-68.08437 -1.0524,-3.14181 -1.91349,-5.8368 -1.91349,-5.98807 0,-0.23273 14.91223,-0.27927 33.13825,-0.27927 h 33.13829 l -0.0745,21.41324 c -0.0419,11.77832 -0.25181,36.32872 -0.46895,54.5536 l -0.3947,33.13803 -1.67564,3.57469 c -1.95468,4.17048 -6.42653,9.18575 -10.11409,11.34313 -6.44497,3.77018 3.38585,3.53047 -143.85476,3.49324 -126.80316,0 -134.66779,0 -137.91058,-1.14037 z m 156.31266,-56.02909 c -2.23535,-0.48872 -6.73636,-2.23418 -10.00241,-3.84698 -4.92239,-2.432 -6.85247,-3.85396 -11.28197,-8.30138 -8.61333,-8.65047 -12.46068,-17.93396 -12.46068,-30.06604 0,-10.20043 2.81211,-18.4576 9.06622,-26.624 9.98807,-13.03971 26.54468,-19.41178 42.19789,-16.23971 18.67411,3.78415 32.57619,18.81135 34.95546,37.78793 2.55453,20.37295 -10.35251,40.12916 -30.27815,46.34764 -5.70263,1.76872 -16.43036,2.23418 -22.19636,0.93091 z M 100.00002,752.93105 c 0,-21.85309 0.28347,-24.40145 3.28211,-29.50051 1.82453,-3.10225 5.97781,-7.30996 8.91027,-9.02749 6.33252,-3.70967 -3.26536,-3.47695 143.82325,-3.47695 133.60172,0 134.5556,0.0116 138.22238,1.28 6.8436,2.3552 11.58032,6.53964 14.82203,13.09557 l 2.00215,4.04945 0.18618,22.05324 0.18618,22.05556 H 376.4642 341.49381 l -2.57177,-3.94705 c -5.3508,-8.21295 -15.89972,-17.35447 -25.71136,-22.28131 -18.71386,-9.39986 -41.78223,-9.27884 -60.7159,0.32582 -8.5193,4.31709 -19.1461,13.70531 -24.91169,22.00669 l -2.71393,3.90749 h -62.4347 -62.43444 z m 39.98646,-47.24131 c 0.31067,-0.81454 0.87722,-2.64611 1.25915,-4.06342 l 0.69436,-2.58094 h 11.77388 11.77383 l 0.35414,2.02472 c 0.19456,1.1171 0.5481,2.94633 0.78524,4.06342 l 0.43109,2.02473 h -13.81821 -13.81818 z m 70.25723,-9.74894 7.61605,-11.23375 37.59988,-0.0233 37.59983,-0.0209 6.12536,9.84669 c 3.36889,5.41557 6.52842,10.48204 7.02113,11.25469 l 0.89577,1.39637 h -52.23699 -52.23708 l 7.61605,-11.23142 z m 58.57394,0.30254 v -6.56291 H 255.37478 241.9319 v 6.56291 6.56524 h 13.44288 13.44287 z m 70.19811,10.16087 c 1.73195,-4.4544 4.55214,-10.94749 5.02921,-11.57818 0.46103,-0.60509 4.07654,-0.74473 15.67595,-0.62836 l 15.0767,0.23273 2.29958,5.62734 c 1.26464,3.09295 2.31982,5.97876 2.34466,6.40698 0.0349,0.60509 -4.4251,0.79128 -20.34239,0.79128 -16.05525,0 -20.32298,-0.23273 -20.08371,-0.79128 z"
         style="fill:#ffffff;stroke-width:0.6252504" />
    </g>
  </g>
</svg>
