<?xml version="1.0" encoding="UTF-8" standalone="no"?>
<!-- Created with Inkscape (http://www.inkscape.org/) -->

<svg
   xmlns:dc="http://purl.org/dc/elements/1.1/"
   xmlns:cc="http://creativecommons.org/ns#"
   xmlns:rdf="http://www.w3.org/1999/02/22-rdf-syntax-ns#"
   xmlns:svg="http://www.w3.org/2000/svg"
   xmlns="http://www.w3.org/2000/svg"
   xmlns:xlink="http://www.w3.org/1999/xlink"
   xmlns:sodipodi="http://sodipodi.sourceforge.net/DTD/sodipodi-0.dtd"
   xmlns:inkscape="http://www.inkscape.org/namespaces/inkscape"
   version="1.0"
   width="22"
   height="22"
   id="svg2"
   sodipodi:docname="clipit-trayicon.svg"
   inkscape:version="0.92.2 5c3e80d, 2017-08-06">
  <metadata
     id="metadata44">
    <rdf:RDF>
      <cc:Work
         rdf:about="">
        <dc:format>image/svg+xml</dc:format>
        <dc:type
           rdf:resource="http://purl.org/dc/dcmitype/StillImage" />
        <dc:title />
      </cc:Work>
    </rdf:RDF>
  </metadata>
  <sodipodi:namedview
     pagecolor="#ffffff"
     bordercolor="#666666"
     borderopacity="1"
     objecttolerance="10"
     gridtolerance="10"
     guidetolerance="10"
     inkscape:pageopacity="0"
     inkscape:pageshadow="2"
     inkscape:window-width="1366"
     inkscape:window-height="719"
     id="namedview42"
     showgrid="false"
     inkscape:zoom="13.906433"
     inkscape:cx="8.0418858"
     inkscape:cy="10.481513"
     inkscape:window-x="0"
     inkscape:window-y="22"
     inkscape:window-maximized="1"
     inkscape:current-layer="svg2" />
  <defs
     id="defs4">
    <linearGradient
       id="linearGradient3620">
      <stop
         id="stop3622"
         style="stop-color:#9d7d53;stop-opacity:1"
         offset="0" />
      <stop
         id="stop3624"
         style="stop-color:#ad8757;stop-opacity:1"
         offset="1" />
    </linearGradient>
    <linearGradient
       id="linearGradient3846">
      <stop
         id="stop3848"
         style="stop-color:#c1a581;stop-opacity:1"
         offset="0" />
      <stop
         id="stop3850"
         style="stop-color:#9b784b;stop-opacity:1"
         offset="1" />
    </linearGradient>
    <linearGradient
       x1="24.467497"
       y1="0.47814167"
       x2="25.464664"
       y2="70.020134"
       id="linearGradient4545"
       xlink:href="#linearGradient3846"
       gradientUnits="userSpaceOnUse"
       gradientTransform="matrix(0.24672856,0,0,0.22219444,-0.37668372,2.7150863)" />
    <linearGradient
       id="linearGradient3600">
      <stop
         id="stop3602"
         style="stop-color:#f4f4f4;stop-opacity:1"
         offset="0" />
      <stop
         id="stop3604"
         style="stop-color:#dbdbdb;stop-opacity:1"
         offset="1" />
    </linearGradient>
    <linearGradient
       id="linearGradient3931">
      <stop
         id="stop3933"
         style="stop-color:#747671;stop-opacity:1"
         offset="0" />
      <stop
         id="stop3935"
         style="stop-color:#cbcbcb;stop-opacity:1"
         offset="1" />
    </linearGradient>
    <linearGradient
       x1="25.132275"
       y1="6.7287393"
       x2="25.132275"
       y2="47.013336"
       id="linearGradient3192"
       xlink:href="#linearGradient3600"
       gradientUnits="userSpaceOnUse"
       gradientTransform="matrix(0.24672385,0,0,0.22219451,8.2583078,8.1687445)" />
    <linearGradient
       x1="-64.247643"
       y1="14.969027"
       x2="-22.573992"
       y2="-19.797691"
       id="linearGradient3194"
       xlink:href="#linearGradient3931"
       gradientUnits="userSpaceOnUse"
       gradientTransform="matrix(0.19922873,0,0,0.207941,22.916229,7.9211128)" />
    <linearGradient
       id="linearGradient3269">
      <stop
         id="stop3271"
         style="stop-color:#787878;stop-opacity:1"
         offset="0" />
      <stop
         id="stop3273"
         style="stop-color:#bebebe;stop-opacity:1"
         offset="0.34446934" />
      <stop
         id="stop3275"
         style="stop-color:#c8c8c8;stop-opacity:1"
         offset="0.3731544" />
      <stop
         id="stop3277"
         style="stop-color:#e6e6e6;stop-opacity:1"
         offset="0.48990577" />
      <stop
         id="stop3279"
         style="stop-color:#8c8c8c;stop-opacity:1"
         offset="1" />
    </linearGradient>
    <linearGradient
       id="linearGradient3257">
      <stop
         id="stop3261"
         style="stop-color:#787878;stop-opacity:1"
         offset="0" />
      <stop
         id="stop3263"
         style="stop-color:#828282;stop-opacity:1"
         offset="0.36563665" />
      <stop
         id="stop3265"
         style="stop-color:#aaaaaa;stop-opacity:1"
         offset="0.46209824" />
      <stop
         id="stop3922"
         style="stop-color:#6a6a6a;stop-opacity:1"
         offset="0.59657371" />
      <stop
         id="stop3920"
         style="stop-color:#787878;stop-opacity:1"
         offset="0.73104912" />
      <stop
         id="stop3267"
         style="stop-color:#464646;stop-opacity:1"
         offset="1" />
    </linearGradient>
    <linearGradient
       x1="321.40091"
       y1="83.497276"
       x2="321.57819"
       y2="96.245491"
       id="linearGradient2964"
       xlink:href="#linearGradient3269"
       gradientUnits="userSpaceOnUse"
       gradientTransform="matrix(0.18649049,0,0,0.23309604,-52.580074,-17.549284)" />
    <linearGradient
       x1="22.451862"
       y1="26.645382"
       x2="22.451862"
       y2="40.185558"
       id="linearGradient2966"
       xlink:href="#linearGradient3257"
       gradientUnits="userSpaceOnUse"
       gradientTransform="matrix(0.18716262,0,0,0.23306253,2.610807,-4.4947894)" />
    <linearGradient
       x1="9.3157892"
       y1="16"
       x2="9.7894735"
       y2="-17.999569"
       id="linearGradient3626"
       xlink:href="#linearGradient3620"
       gradientUnits="userSpaceOnUse"
       gradientTransform="matrix(0.45447174,0,0,0.45447174,-0.36341512,11.001621)" />
  </defs>
  <g
     transform="matrix(0.16240158,0,0,0.16240158,-6.4278092e-7,-26.233229)"
     id="g852">
    <path
       style="fill:#3689e6;fill-opacity:1;stroke-width:2.93940377"
       inkscape:connector-curvature="0"
       d="m 114.54164,176.47539 c 27.03854,23.43536 28,66.06638 2.14757,95.22322 -25.85243,29.15684 -68.725635,33.79466 -95.764176,10.3593 -27.0385417,-23.43536 -27.9999994,-66.06638 -2.14757,-95.22322 25.852429,-29.15684 68.725634,-33.79466 95.764176,-10.3593 z"
       id="path27" />
    <path
       style="opacity:0.1;stroke-width:2.93940377"
       inkscape:connector-curvature="0"
       d="m 135.37023,221.03904 c -0.41047,16.22204 -6.65724,32.84924 -18.77652,46.51758 C 90.741279,296.71347 47.868074,301.35128 20.829532,277.91593 8.156347,266.93158 1.189788,251.73582 0.05128753,235.67719 c 0.1601395,17.55687 7.12353137,34.46287 20.87161747,46.37888 27.038541,23.43535 69.913781,18.79524 95.764175,-10.35931 13.1511,-14.83204 19.31591,-33.1499 18.68315,-50.65772 z"
       id="path51" />
    <path
       style="fill:#317ccf;fill-opacity:1;stroke-width:0.16129838"
       d="m 36.198472,270.02784 c -3.43989,-0.92349 -6.040999,-3.58715 -6.848584,-7.01325 -0.197034,-0.83591 -0.244152,-2.33319 -0.245707,-7.80875 -0.0012,-3.94504 0.07206,-7.38084 0.175227,-8.22621 0.235684,-1.93127 0.802117,-3.66842 1.608251,-4.93225 0.960725,-1.50618 44.77408,-45.37236 45.772892,-45.82808 1.596993,-0.72865 3.41108,0.49069 3.41108,2.29276 0,0.3651 -0.08029,0.82235 -0.178422,1.01613 -0.09813,0.19377 -10.107925,10.29636 -22.243981,22.45019 -17.784297,17.81034 -22.1462,22.26007 -22.481205,22.93381 -0.654598,1.31652 -0.771489,3.04065 -0.714281,10.5356 0.04603,6.02889 0.0799,6.75777 0.341065,7.33688 0.370016,0.82049 0.835226,1.31573 1.645609,1.75186 0.629299,0.33867 0.826039,0.34841 7.984273,0.39544 7.882435,0.0518 8.894522,-0.0193 10.171078,-0.71404 0.498996,-0.27158 8.762693,-8.43229 25.672444,-25.35248 19.998359,-20.01072 25.017639,-25.11526 25.345899,-25.77644 0.57875,-1.16571 0.81735,-2.68563 0.60332,-3.84337 -0.37301,-2.01779 -0.72351,-2.50428 -4.50254,-6.24954 -4.239307,-4.20143 -4.311927,-4.24469 -7.126407,-4.24469 -3.153323,0 -1.27607,-1.61709 -20.745009,17.87008 -13.637707,13.65047 -17.029837,17.12815 -17.33958,17.77686 -0.361645,0.75742 -0.38809,1.01167 -0.43466,4.17832 -0.03463,2.35626 0.0087,3.51236 0.14369,3.83844 0.353629,0.85374 0.752377,0.93566 4.535215,0.93176 3.099885,-0.003 3.506523,-0.0355 4.161443,-0.33045 0.563624,-0.25386 4.510892,-4.10709 17.662171,-17.24142 18.607907,-18.58393 17.476947,-17.5649 18.990727,-17.11135 0.84038,0.25177 1.68753,1.11698 1.82828,1.86721 0.27769,1.48021 1.37623,0.27796 -17.724898,19.39814 -19.771487,19.79119 -18.238354,18.42712 -21.079434,18.75505 -0.855953,0.0988 -3.242167,0.1533 -5.403495,0.1234 -3.818446,-0.0528 -3.883171,-0.0594 -4.803103,-0.49049 -1.176644,-0.55135 -2.726505,-2.01848 -3.257082,-3.0832 l -0.407426,-0.8176 v -4.697 c 0,-2.62538 0.07556,-5.10577 0.171331,-5.62379 0.386707,-2.09193 -0.515073,-1.11022 18.587505,-20.235 10.19664,-10.2085 18.178436,-18.07339 18.720912,-18.44671 3.527657,-2.42768 7.672183,-2.89066 10.977523,-1.22629 1.715297,0.86373 2.355927,1.39677 5.953657,4.95377 4.62021,4.56791 5.67178,6.13215 6.34028,9.43137 0.33037,1.63045 0.22612,3.17111 -0.32585,4.81541 -0.96376,2.87096 0.54575,1.26057 -27.19267,29.01009 -16.95381,16.9606 -25.721308,25.62088 -26.346034,26.02386 -1.219898,0.78691 -3.123552,1.47334 -4.690293,1.69125 -0.755485,0.10508 -4.141491,0.16992 -8.538995,0.16351 -5.89242,-0.009 -7.456869,-0.0562 -8.174216,-0.24879 z"
       id="path846"
       inkscape:connector-curvature="0" />
    <path
       inkscape:connector-curvature="0"
       id="path844"
       d="m 33.552639,267.38201 c -3.43989,-0.92349 -6.040999,-3.58715 -6.848584,-7.01325 -0.197034,-0.83591 -0.244152,-2.33319 -0.245707,-7.80875 -0.0012,-3.94504 0.07206,-7.38084 0.175227,-8.22621 0.235684,-1.93127 0.802117,-3.66842 1.608251,-4.93225 0.960725,-1.50618 44.77408,-45.37236 45.772892,-45.82808 1.596993,-0.72865 3.41108,0.49069 3.41108,2.29276 0,0.3651 -0.08029,0.82235 -0.178422,1.01613 -0.09813,0.19377 -10.107925,10.29636 -22.243981,22.45019 -17.784297,17.81034 -22.1462,22.26007 -22.481205,22.93381 -0.654598,1.31652 -0.771489,3.04065 -0.714281,10.5356 0.04603,6.02889 0.0799,6.75777 0.341065,7.33688 0.370016,0.82049 0.835226,1.31573 1.645609,1.75186 0.629299,0.33867 0.826039,0.34841 7.984273,0.39544 7.882435,0.0518 8.894522,-0.0193 10.171078,-0.71404 0.498996,-0.27158 8.762693,-8.43229 25.672444,-25.35248 19.998361,-20.01072 25.017642,-25.11526 25.345902,-25.77644 0.57875,-1.16571 0.81735,-2.68563 0.60332,-3.84337 -0.37301,-2.01779 -0.72351,-2.50428 -4.502541,-6.24954 -4.239309,-4.20143 -4.311929,-4.24469 -7.126409,-4.24469 -3.153323,0 -1.27607,-1.61709 -20.745009,17.87008 -13.637707,13.65047 -17.029837,17.12815 -17.33958,17.77686 -0.361645,0.75742 -0.38809,1.01167 -0.43466,4.17832 -0.03463,2.35626 0.0087,3.51236 0.14369,3.83844 0.353629,0.85374 0.752377,0.93566 4.535215,0.93176 3.099885,-0.003 3.506523,-0.0355 4.161443,-0.33045 0.563624,-0.25386 4.510892,-4.10709 17.662171,-17.24142 18.607909,-18.58393 17.476949,-17.5649 18.990729,-17.11135 0.84038,0.25177 1.687531,1.11698 1.828281,1.86721 0.27769,1.48021 1.37623,0.27796 -17.724901,19.39814 -19.771487,19.79119 -18.238354,18.42712 -21.079434,18.75505 -0.855953,0.0988 -3.242167,0.1533 -5.403495,0.1234 -3.818446,-0.0528 -3.883171,-0.0594 -4.803103,-0.49049 -1.176644,-0.55135 -2.726505,-2.01848 -3.257082,-3.0832 l -0.407426,-0.8176 v -4.697 c 0,-2.62538 0.07556,-5.10577 0.171331,-5.62379 0.386707,-2.09193 -0.515073,-1.11022 18.587505,-20.235 10.19664,-10.2085 18.178436,-18.07339 18.720912,-18.44671 3.527657,-2.42768 7.672183,-2.89066 10.977523,-1.22629 1.715299,0.86373 2.355929,1.39677 5.95366,4.95377 4.62021,4.56791 5.67178,6.13215 6.34028,9.43137 0.33037,1.63045 0.22612,3.17111 -0.32585,4.81541 -0.96376,2.87096 0.54575,1.26057 -27.192673,29.01009 -16.95381,16.9606 -25.721308,25.62088 -26.346034,26.02386 -1.219898,0.78691 -3.123552,1.47334 -4.690293,1.69125 -0.755485,0.10508 -4.141491,0.16992 -8.538995,0.16351 -5.89242,-0.009 -7.456869,-0.0562 -8.174216,-0.24879 z"
       style="fill:#ffffff;stroke-width:0.16129838" />
  </g>
</svg>
