<?xml version="1.0" encoding="UTF-8" standalone="no"?>
<!-- Created with Inkscape (http://www.inkscape.org/) -->

<svg
   xmlns:dc="http://purl.org/dc/elements/1.1/"
   xmlns:cc="http://creativecommons.org/ns#"
   xmlns:rdf="http://www.w3.org/1999/02/22-rdf-syntax-ns#"
   xmlns:svg="http://www.w3.org/2000/svg"
   xmlns="http://www.w3.org/2000/svg"
   xmlns:sodipodi="http://sodipodi.sourceforge.net/DTD/sodipodi-0.dtd"
   xmlns:inkscape="http://www.inkscape.org/namespaces/inkscape"
   width="22"
   height="22"
   id="svg5453"
   version="1.1"
   inkscape:version="0.92.2 5c3e80d, 2017-08-06"
   sodipodi:docname="covergloobus.svg">
  <defs
     id="defs5455" />
  <sodipodi:namedview
     id="base"
     pagecolor="#ffffff"
     bordercolor="#666666"
     borderopacity="1.0"
     inkscape:pageopacity="0"
     inkscape:pageshadow="2"
     inkscape:zoom="11.852367"
     inkscape:cx="20.293365"
     inkscape:cy="9.7978599"
     inkscape:document-units="px"
     inkscape:current-layer="layer1"
     showgrid="false"
     fit-margin-top="0"
     fit-margin-left="0"
     fit-margin-right="0"
     fit-margin-bottom="0"
     inkscape:window-width="1366"
     inkscape:window-height="717"
     inkscape:window-x="0"
     inkscape:window-y="24"
     inkscape:window-maximized="1"
     inkscape:showpageshadow="false"
     borderlayer="true"
     showguides="false">
    <inkscape:grid
       type="xygrid"
       id="grid4063"
       empspacing="5"
       visible="true"
       enabled="true"
       snapvisiblegridlinesonly="true" />
    <sodipodi:guide
       position="1.1650391e-05,47.999996"
       orientation="4,0"
       id="guide4146"
       inkscape:locked="false" />
    <sodipodi:guide
       position="1.1650391e-05,43.999996"
       orientation="0,48"
       id="guide4148"
       inkscape:locked="false" />
    <sodipodi:guide
       position="48.000012,43.999996"
       orientation="-4,0"
       id="guide4150"
       inkscape:locked="false" />
    <sodipodi:guide
       position="48.000012,47.999996"
       orientation="0,-48"
       id="guide4152"
       inkscape:locked="false" />
    <sodipodi:guide
       position="1.1650391e-05,4.0000264"
       orientation="4,0"
       id="guide4154"
       inkscape:locked="false" />
    <sodipodi:guide
       position="1.1650391e-05,2.6367188e-05"
       orientation="0,48"
       id="guide4156"
       inkscape:locked="false" />
    <sodipodi:guide
       position="48.000012,2.6367188e-05"
       orientation="-4,0"
       id="guide4158"
       inkscape:locked="false" />
    <sodipodi:guide
       position="48.000012,4.0000264"
       orientation="0,-48"
       id="guide4160"
       inkscape:locked="false" />
    <sodipodi:guide
       position="48.000012,48.000026"
       orientation="0,-4"
       id="guide4162"
       inkscape:locked="false" />
    <sodipodi:guide
       position="44.000012,48.000026"
       orientation="48,0"
       id="guide4164"
       inkscape:locked="false" />
    <sodipodi:guide
       position="44.000012,2.6367188e-05"
       orientation="0,4"
       id="guide4166"
       inkscape:locked="false" />
    <sodipodi:guide
       position="48.000012,2.6367188e-05"
       orientation="-48,0"
       id="guide4168"
       inkscape:locked="false" />
    <sodipodi:guide
       position="4.0000422,48.000026"
       orientation="0,-4"
       id="guide4170"
       inkscape:locked="false" />
    <sodipodi:guide
       position="4.2167969e-05,48.000026"
       orientation="48,0"
       id="guide4172"
       inkscape:locked="false" />
    <sodipodi:guide
       position="4.2167969e-05,2.6367188e-05"
       orientation="0,4"
       id="guide4174"
       inkscape:locked="false" />
    <sodipodi:guide
       position="4.0000422,2.6367188e-05"
       orientation="-48,0"
       id="guide4176"
       inkscape:locked="false" />
    <sodipodi:guide
       position="20.000012,43.999996"
       orientation="39.999969,0"
       id="guide4153"
       inkscape:locked="false" />
    <sodipodi:guide
       position="20.000012,4.0000264"
       orientation="0,8"
       id="guide4155"
       inkscape:locked="false" />
    <sodipodi:guide
       position="28.000012,4.0000264"
       orientation="-39.999969,0"
       id="guide4157"
       inkscape:locked="false" />
    <sodipodi:guide
       position="28.000012,43.999996"
       orientation="0,-8"
       id="guide4159"
       inkscape:locked="false" />
  </sodipodi:namedview>
  <metadata
     id="metadata5458">
    <rdf:RDF>
      <cc:Work
         rdf:about="">
        <dc:format>image/svg+xml</dc:format>
        <dc:type
           rdf:resource="http://purl.org/dc/dcmitype/StillImage" />
        <dc:title />
      </cc:Work>
    </rdf:RDF>
  </metadata>
  <g
     inkscape:label="Capa 1"
     inkscape:groupmode="layer"
     id="layer1"
     transform="translate(-384.57143,-525.798)">
    <g
       id="g846"
       transform="matrix(0.04296875,0,0,0.04296875,368.04688,524.25981)">
      <path
         style="fill:#3689e6;fill-opacity:1;stroke-width:11.10955811"
         inkscape:connector-curvature="0"
         d="M 817.48471,92.271967 C 919.67762,180.84656 923.31148,341.97167 825.60151,452.17076 727.89154,562.36984 565.85108,579.89861 463.65816,491.32402 361.46525,402.74943 357.83139,241.62431 455.54136,131.42523 553.25133,21.226146 715.29179,3.6973773 817.48471,92.271967 Z"
         id="path27" />
      <path
         style="opacity:1;fill:#000000;fill-opacity:0.49019608;stroke-width:11.10955811"
         inkscape:connector-curvature="0"
         d="m 896.20694,260.70151 c -1.55138,61.31165 -25.16122,124.15461 -70.96638,175.81448 -97.70997,110.19912 -259.75043,127.72785 -361.94335,39.1533 -47.89865,-41.51566 -74.22895,-98.94845 -78.53195,-159.64249 0.60525,66.35668 26.92359,130.25337 78.88486,175.29026 102.19291,88.57455 264.24106,71.03713 361.94334,-39.1533 49.70494,-56.0581 73.00501,-125.29096 70.61348,-191.46225 z"
         id="path51" />
      <path
         style="fill:#000000;fill-opacity:0.49019608;fill-rule:evenodd;stroke:none;stroke-width:15.5999918"
         id="path839"
         inkscape:connector-curvature="0"
         d="m 660.04519,320.18974 c -2.3136,-10.27389 9.80492,-16.22653 18.05639,-15.12809 16.12913,2.14617 23.77655,20.56838 20.06264,35.32861 -5.64783,22.44805 -30.66754,32.54683 -51.18029,25.82294 -27.87343,-9.13297 -40.0913,-42.07956 -30.54258,-69.13425 12.16299,-34.46657 51.81505,-49.3276 84.30421,-36.5184 39.67967,15.64516 56.6016,63.69513 41.02258,102.94106 -18.47233,46.53347 -73.01454,66.21453 -117.42819,47.21269 -51.51723,-22.04534 -73.17506,-85.34249 -51.50261,-136.74731 24.71599,-58.61862 94.2335,-83.14681 150.55243,-57.90698 63.36869,28.39484 89.77545,107.00349 61.98221,170.55239 -30.93139,70.71912 -115.46196,100.0986 -183.6762,68.603 -75.2283,-34.73072 -106.39134,-128.6697 -72.46246,-204.35799 26.60396,-59.34327 87.4213,-96.68478 151.06473,-95.00501" />
      <path
         d="m 640.04518,300.18975 c -2.3136,-10.27389 9.80492,-16.22653 18.05639,-15.12809 16.12913,2.14617 23.77655,20.56838 20.06264,35.32861 -5.64783,22.44805 -30.66754,32.54683 -51.18029,25.82294 -27.87343,-9.13296 -40.09131,-42.07956 -30.54258,-69.13425 12.16298,-34.46657 51.81505,-49.3276 84.30421,-36.5184 39.67967,15.64517 56.6016,63.69513 41.02257,102.94107 -18.47232,46.53346 -73.01454,66.21452 -117.42818,47.21268 -51.51724,-22.04534 -73.17506,-85.34249 -51.50262,-136.74731 24.71599,-58.61862 94.23351,-83.14681 150.55244,-57.90697 63.3687,28.39483 89.77547,107.00349 61.98222,170.55239 -30.9314,70.71912 -115.46197,100.09859 -183.67621,68.603 -75.2283,-34.73073 -106.39134,-128.66971 -72.46246,-204.358 26.60396,-59.34327 87.42129,-96.68478 151.06473,-95.00501"
         inkscape:connector-curvature="0"
         id="path3239-0"
         style="fill:#ffffff;fill-opacity:1;fill-rule:evenodd;stroke:none;stroke-width:15.5999918" />
    </g>
  </g>
</svg>
