<?xml version="1.0" encoding="UTF-8" standalone="no"?>
<svg
   xmlns:dc="http://purl.org/dc/elements/1.1/"
   xmlns:cc="http://creativecommons.org/ns#"
   xmlns:rdf="http://www.w3.org/1999/02/22-rdf-syntax-ns#"
   xmlns:svg="http://www.w3.org/2000/svg"
   xmlns="http://www.w3.org/2000/svg"
   xmlns:sodipodi="http://sodipodi.sourceforge.net/DTD/sodipodi-0.dtd"
   xmlns:inkscape="http://www.inkscape.org/namespaces/inkscape"
   viewBox="0 0 22 22"
   id="svg"
   version="1.1"
   inkscape:version="0.92.3 (2405546, 2018-03-11)"
   width="22"
   height="22"
   sodipodi:docname="empathy-away.svg">
  <defs
     id="defs81">
    <style
       id="current-color-scheme"
       type="text/css">
      .ColorScheme-Text {
        color:#7B7C7E;
      }
      .ColorScheme-Background{
        color:#EFF0F1;
      }
      .ColorScheme-Highlight{
        color:#3DAEE6;
      }
      .ColorScheme-ViewText {
        color:#7B7C7E;
      }
      .ColorScheme-ViewBackground{
        color:#FCFCFC;
      }
      .ColorScheme-ViewHover {
        color:#3DAEE6;
      }
      .ColorScheme-ViewFocus{
        color:#1E92FF;
      }
      .ColorScheme-ButtonText {
        color:#7B7C7E;
      }
      .ColorScheme-ButtonBackground{
        color:#EFF0F1;
      }
      .ColorScheme-ButtonHover {
        color:#3DAEE6;
      }
      .ColorScheme-ButtonFocus{
        color:#1E92FF;
      }
</style>
  </defs>
  <metadata
     id="metadata34">
    <rdf:RDF>
      <cc:Work
         rdf:about="">
        <dc:format>image/svg+xml</dc:format>
        <dc:type
           rdf:resource="http://purl.org/dc/dcmitype/StillImage" />
        <dc:title></dc:title>
      </cc:Work>
    </rdf:RDF>
  </metadata>
  <sodipodi:namedview
     pagecolor="#ffffff"
     bordercolor="#666666"
     borderopacity="1"
     objecttolerance="10"
     gridtolerance="10"
     guidetolerance="10"
     inkscape:pageopacity="0.03921569"
     inkscape:pageshadow="2"
     inkscape:window-width="1366"
     inkscape:window-height="718"
     id="namedview32"
     showgrid="true"
     inkscape:zoom="5.6568542"
     inkscape:cx="-4.3815319"
     inkscape:cy="26.105702"
     inkscape:window-x="0"
     inkscape:window-y="25"
     inkscape:window-maximized="1"
     inkscape:current-layer="svg"
     borderlayer="true"
     showguides="true"
     inkscape:guide-bbox="true"
     inkscape:snap-bbox="true"
     units="px">
    <inkscape:grid
       type="xygrid"
       id="grid3046"
       empspacing="5"
       visible="true"
       enabled="false"
       snapvisiblegridlinesonly="true" />
  </sodipodi:namedview>
  <g
     id="g829"
     transform="matrix(0.04296875,0,0,0.04296875,-3.8108509e-6,21.054685)">
    <path
       id="path900"
       d="m 432.91336,-433.52599 c 102.19292,88.57459 105.82678,249.69971 8.1168,359.898796 C 343.32019,36.57189 181.27974,54.100659 79.086832,-34.473933 -23.106117,-123.04853 -26.739944,-284.17365 70.970031,-394.37273 168.67997,-504.57182 330.72045,-522.10058 432.91336,-433.52599 Z"
       inkscape:connector-curvature="0"
       style="fill:#68b723;fill-opacity:1;stroke-width:11.10955811" />
    <path
       id="path902"
       d="m 511.63562,-265.09642 c -1.5514,61.31165 -25.16124,124.15459 -70.96639,175.814484 C 342.95926,20.917159 180.91879,38.445906 78.725877,-50.12867 30.827222,-91.644299 4.4969195,-149.07712 0.1939255,-209.77116 0.79917704,-143.41448 27.117509,-79.517753 79.078782,-34.480896 181.2717,54.09368 343.31985,36.556258 441.02213,-73.634162 490.72707,-129.6923 514.02716,-198.92513 511.63562,-265.09642 Z"
       inkscape:connector-curvature="0"
       style="opacity:1;fill:#000000;fill-opacity:0.49019608;stroke-width:11.10955811" />
    <path
       style="fill:#000000;fill-opacity:0.49019608;stroke-width:16.42105293"
       id="path906"
       d="m 120,-226.7827 c 0,74.8882 69.8967,135.537562 155.99793,135.537562 20.46444,0 39.88577,-3.40376 57.81917,-9.625512 24.99878,13.681819 47.2503,23.012301 77.05346,28.859721 8.90642,1.824643 12.45158,1.645871 13.21213,0.545197 0.8812,-1.29566 -2.0448,-3.840113 -4.63404,-5.926526 -28.8472,-22.53007 -33.66826,-34.320682 -40.64628,-47.533002 32.62511,-24.70413 53.1976,-61.21097 53.1976,-101.85725 0,-74.89237 -69.7886,-135.6208 -156.00204,-135.6208 C 189.90085,-362.40731 120,-301.67488 120,-226.78251 Z"
       inkscape:connector-curvature="0" />
    <path
       inkscape:connector-curvature="0"
       d="m 100.00005,-246.78274 c 0,74.8882 69.89674,135.53757 155.99793,135.53757 20.46448,0 39.88581,-3.40377 57.81922,-9.62552 24.99874,13.68182 47.25025,23.012301 77.05345,28.859722 8.90642,1.824642 12.45158,1.645871 13.21214,0.545197 0.88119,-1.29566 -2.0448,-3.840114 -4.63404,-5.926527 -28.84725,-22.530062 -33.6683,-34.320682 -40.64633,-47.533002 32.62515,-24.70413 53.19765,-61.21096 53.19765,-101.85725 0,-74.89236 -69.78864,-135.62079 -156.00209,-135.62079 -86.09703,-0.004 -155.99793,60.72843 -155.99793,135.62079 z"
       id="path908"
       style="fill:#ffffff;fill-opacity:1;stroke-width:16.42105293" />
  </g>
</svg>
