<?xml version="1.0" encoding="UTF-8" standalone="no"?>
<svg
   xmlns:dc="http://purl.org/dc/elements/1.1/"
   xmlns:cc="http://creativecommons.org/ns#"
   xmlns:rdf="http://www.w3.org/1999/02/22-rdf-syntax-ns#"
   xmlns:svg="http://www.w3.org/2000/svg"
   xmlns="http://www.w3.org/2000/svg"
   xmlns:sodipodi="http://sodipodi.sourceforge.net/DTD/sodipodi-0.dtd"
   xmlns:inkscape="http://www.inkscape.org/namespaces/inkscape"
   viewBox="0 0 22 22"
   height="22"
   width="22"
   version="1.1"
   id="svg2"
   inkscape:version="0.92.2 5c3e80d, 2017-08-06"
   sodipodi:docname="exaile-play.svg">
  <sodipodi:namedview
     pagecolor="#ffffff"
     bordercolor="#666666"
     borderopacity="1"
     objecttolerance="10"
     gridtolerance="10"
     guidetolerance="10"
     inkscape:pageopacity="0"
     inkscape:pageshadow="2"
     inkscape:window-width="1366"
     inkscape:window-height="719"
     id="namedview18"
     showgrid="false"
     inkscape:zoom="9.1923879"
     inkscape:cx="7.7239234"
     inkscape:cy="9.7703279"
     inkscape:window-x="0"
     inkscape:window-y="22"
     inkscape:window-maximized="1"
     inkscape:current-layer="svg2" />
  <metadata
     id="metadata8">
    <rdf:RDF>
      <cc:Work
         rdf:about="">
        <dc:format>image/svg+xml</dc:format>
        <dc:type
           rdf:resource="http://purl.org/dc/dcmitype/StillImage" />
        <dc:title />
      </cc:Work>
    </rdf:RDF>
  </metadata>
  <defs
     id="defs6">
    <filter
       height="1.096"
       y="-0.048"
       width="1.096"
       x="-0.048"
       id="filter4329"
       style="color-interpolation-filters:sRGB">
      <feGaussianBlur
         id="feGaussianBlur4331"
         stdDeviation="2.1324205" />
    </filter>
    <filter
       height="1.0327445"
       y="-0.016372267"
       width="1.0399742"
       x="-0.019987123"
       id="filter4376"
       style="color-interpolation-filters:sRGB">
      <feGaussianBlur
         id="feGaussianBlur4378"
         stdDeviation="1.1736058" />
    </filter>
    <filter
       height="1.0570984"
       y="-0.0285492"
       width="1.0632123"
       x="-0.031606145"
       id="filter4436"
       style="color-interpolation-filters:sRGB">
      <feGaussianBlur
         id="feGaussianBlur4438"
         stdDeviation="0.63519096" />
    </filter>
  </defs>
  <g
     transform="matrix(0.16240157,0,0,0.16240157,-27.745859,1.8098573)"
     id="g1026">
    <path
       style="fill:#68b723;fill-opacity:1;stroke-width:2.93940377"
       inkscape:connector-curvature="0"
       d="m 285.38885,3.79772 c 27.03854,23.43536 28,66.06638 2.14757,95.22322 -25.85243,29.15684 -68.72564,33.79466 -95.76418,10.3593 -27.03854,-23.43536 -28,-66.06638 -2.14757,-95.22322 25.85243,-29.15684 68.72564,-33.79466 95.76418,-10.3593 z"
       id="path1008" />
    <path
       style="opacity:0.1;stroke-width:2.93940377"
       inkscape:connector-curvature="0"
       d="m 306.21744,48.36137 c -0.41047,16.22204 -6.65724,32.84924 -18.77652,46.51758 -25.85243,29.15685 -68.72564,33.79466 -95.76418,10.35931 C 179.00355,94.25391 172.037,79.05815 170.8985,62.99952 c 0.16013,17.55687 7.12353,34.46287 20.87161,46.37888 27.03854,23.43535 69.91378,18.79524 95.76418,-10.35931 13.1511,-14.83204 19.31591,-33.1499 18.68315,-50.65772 z"
       id="path1010" />
    <path
       style="fill:#5ea520;fill-opacity:1;stroke-width:0.97341436"
       d="m 212.71124,98.39365 c -1.30684,-1.86608 -1.51507,-7.25508 -1.51507,-39.20671 0,-32.69476 0.18763,-37.30972 1.58972,-39.31303 1.27589,-1.82179 2.20926,-2.1692 4.72908,-1.76028 3.49395,0.56702 48.79846,32.24802 52.0787,36.41833 2.21629,2.81752 2.43442,5.61345 0.68323,8.76459 -0.66112,1.18951 -12.3127,10.05972 -25.89239,19.71163 -26.1043,18.55394 -28.60348,19.76788 -31.67327,15.38547 z"
       id="path1012"
       inkscape:connector-curvature="0"
       sodipodi:nodetypes="cscscccc" />
    <path
       sodipodi:nodetypes="cscscccc"
       inkscape:connector-curvature="0"
       id="path1014"
       d="m 210.0654,95.74782 c -1.30684,-1.86608 -1.51507,-7.25508 -1.51507,-39.20671 0,-32.69476 0.18763,-37.30972 1.58972,-39.31303 1.27589,-1.82179 2.20926,-2.1692 4.72908,-1.76028 3.49395,0.56702 48.79846,32.24802 52.07871,36.41833 2.21629,2.81752 2.43442,5.61345 0.68323,8.76459 -0.66112,1.18951 -12.31271,10.05972 -25.8924,19.71163 -26.1043,18.55394 -28.60348,19.76788 -31.67327,15.38547 z"
       style="fill:#ffffff;stroke-width:0.97341436" />
  </g>
</svg>
