<?xml version="1.0" encoding="UTF-8" standalone="no"?>
<!-- Created with Inkscape (http://www.inkscape.org/) -->

<svg
   xmlns:dc="http://purl.org/dc/elements/1.1/"
   xmlns:cc="http://creativecommons.org/ns#"
   xmlns:rdf="http://www.w3.org/1999/02/22-rdf-syntax-ns#"
   xmlns:svg="http://www.w3.org/2000/svg"
   xmlns="http://www.w3.org/2000/svg"
   xmlns:sodipodi="http://sodipodi.sourceforge.net/DTD/sodipodi-0.dtd"
   xmlns:inkscape="http://www.inkscape.org/namespaces/inkscape"
   id="svg2"
   version="1.1"
   inkscape:version="0.92.2 5c3e80d, 2017-08-06"
   width="22"
   height="22"
   sodipodi:docname="fusion-icon-panel.svg">
  <metadata
     id="metadata8">
    <rdf:RDF>
      <cc:Work
         rdf:about="">
        <dc:format>image/svg+xml</dc:format>
        <dc:type
           rdf:resource="http://purl.org/dc/dcmitype/StillImage" />
        <dc:title />
      </cc:Work>
    </rdf:RDF>
  </metadata>
  <defs
     id="defs6" />
  <sodipodi:namedview
     pagecolor="#ffffff"
     bordercolor="#666666"
     borderopacity="1"
     objecttolerance="10"
     gridtolerance="10"
     guidetolerance="10"
     inkscape:pageopacity="0"
     inkscape:pageshadow="2"
     inkscape:window-width="1366"
     inkscape:window-height="719"
     id="namedview4"
     showgrid="false"
     inkscape:zoom="7.2407734"
     inkscape:cx="-10.738146"
     inkscape:cy="2.7804398"
     inkscape:window-x="0"
     inkscape:window-y="22"
     inkscape:window-maximized="1"
     inkscape:current-layer="svg2" />
  <g
     transform="matrix(0.16240158,0,0,0.16240158,-6.4278092e-7,-26.233229)"
     id="g845">
    <path
       style="fill:#3689e6;fill-opacity:1;stroke-width:2.93940377"
       inkscape:connector-curvature="0"
       d="m 114.54164,176.47539 c 27.03854,23.43536 28,66.06638 2.14757,95.22322 -25.85243,29.15684 -68.725635,33.79466 -95.764176,10.3593 -27.0385417,-23.43536 -27.9999994,-66.06638 -2.14757,-95.22322 25.852429,-29.15684 68.725634,-33.79466 95.764176,-10.3593 z"
       id="path27" />
    <path
       style="opacity:0.1;stroke-width:2.93940377"
       inkscape:connector-curvature="0"
       d="m 135.37023,221.03904 c -0.41047,16.22204 -6.65724,32.84924 -18.77652,46.51758 C 90.741279,296.71347 47.868074,301.35128 20.829532,277.91593 8.156347,266.93158 1.189788,251.73582 0.05128753,235.67719 c 0.1601395,17.55687 7.12353137,34.46287 20.87161747,46.37888 27.038541,23.43535 69.913781,18.79524 95.764175,-10.35931 13.1511,-14.83204 19.31591,-33.1499 18.68315,-50.65772 z"
       id="path51" />
    <path
       style="fill:#317ccf;fill-opacity:1;stroke-width:0.10937749"
       d="m 75.057823,273.10272 c 2.483179,-0.21938 3.886533,-0.67263 7.150218,-2.30689 5.149956,-2.57902 9.224066,-5.66804 11.488108,-8.71065 3.134332,-4.21201 5.053669,-8.91933 5.719862,-14.02878 0.235871,-1.8094 0.170424,-7.16216 -0.10697,-8.75073 -0.980119,-5.6189 -3.398649,-10.76335 -6.856401,-14.58429 -3.413213,-3.77162 -7.27712,-6.16626 -12.293324,-7.61867 -0.661757,-0.19036 -1.246635,-0.3898 -1.299754,-0.44056 -0.110596,-0.10879 0.725022,-0.3626 1.846558,-0.56566 1.189159,-0.21575 4.904274,-0.18131 6.179513,0.0544 2.308484,0.42968 5.417814,1.77676 7.429281,3.21865 1.239201,0.88838 3.137739,2.67947 4.237064,3.99717 3.106702,3.7243 5.215472,8.6559 5.901652,13.80197 0.0888,0.66357 0.20505,2.68363 0.25908,4.48849 0.10878,3.6139 0.19381,4.1442 0.77924,4.81104 0.83018,0.94639 2.17279,0.46594 3.286,-1.17303 1.23539,-1.81918 2.33303,-5.1294 2.71077,-8.17436 0.17224,-1.39059 0.14323,-5.02986 -0.0526,-6.52542 -1.12534,-8.58519 -6.46961,-16.94575 -13.776674,-21.55191 -3.203192,-2.01916 -6.459698,-3.21376 -10.445029,-3.83127 -1.581493,-0.24476 -6.541354,-0.27739 -8.31224,-0.0544 -4.978747,0.62912 -9.661379,2.30507 -13.34337,4.77622 -2.642061,1.77313 -4.413648,3.59232 -6.036231,6.19781 -1.27455,2.04672 -1.206386,2.01499 -1.1422,0.53122 0.155921,-3.60846 1.728529,-7.05048 4.57158,-10.00805 2.041681,-2.12396 3.883309,-3.45798 6.564383,-4.75483 3.700643,-1.78945 6.966186,-2.53134 11.19041,-2.53986 3.578086,-0.01 5.584538,0.37348 9.250971,1.755 2.473465,0.9319 3.209858,1.13133 4.201744,1.13677 0.940954,0.005 1.503718,-0.21575 1.801776,-0.70345 0.608448,-0.99717 -0.06526,-2.54712 -1.957843,-4.50318 -3.166892,-3.27269 -6.952402,-5.18125 -12.09362,-6.09737 -1.638243,-0.2919 -5.847075,-0.40793 -7.929455,-0.21756 -7.502857,0.68351 -13.566571,3.39053 -18.382913,8.20572 -3.653001,3.65197 -6.248447,8.08245 -7.709995,13.16071 -1.70732,5.93257 -1.481781,12.32183 0.621866,17.61331 0.851575,2.1419 1.827524,3.87297 3.529605,6.26018 0.514716,0.72158 0.937331,1.37427 0.938963,1.4486 0.0043,0.19037 -1.168129,-0.2647 -2.619106,-1.01892 -8.902434,-4.62592 -11.819819,-17.54641 -6.501779,-28.79529 0.801354,-1.69517 1.830733,-3.35245 3.299351,-5.3125 1.545962,-2.06322 2.032359,-2.99638 2.0818,-3.99282 0.02901,-0.57654 -0.0086,-0.79229 -0.184384,-1.07331 -0.715055,-1.14038 -2.717336,-1.06968 -5.105536,0.18131 -2.340264,1.22378 -4.23884,2.84499 -6.348506,5.42238 -1.432648,1.74956 -3.153675,4.8937 -4.128118,7.53998 -0.547351,1.48668 -1.259868,4.10867 -1.532546,5.64067 -0.304406,1.71149 -0.395057,3.03481 -0.39415,5.76558 9.75e-4,2.95396 0.08702,3.99554 0.490603,5.99312 0.729741,3.60483 1.912119,6.53829 3.74733,9.29753 6.039785,9.08087 18.397817,14.7868 28.624081,13.216 1.456034,-0.223 2.928516,-0.67262 4.609586,-1.4069 0.763279,-0.33359 1.43283,-0.59104 1.488125,-0.5711 0.197072,0.0725 -1.268207,1.94972 -2.270629,2.91969 -2.755173,2.6655 -6.119844,3.97468 -10.608829,4.1277 -2.926341,0.10878 -5.153488,-0.18674 -7.892907,-1.01348 -4.466972,-1.34889 -8.205799,-3.59504 -11.524259,-6.9232 -1.629905,-1.63534 -2.569013,-2.80347 -3.870598,-4.81737 -0.867348,-1.34164 -1.799241,-2.36472 -2.410663,-2.64574 -0.250197,-0.10878 -0.691304,-0.20125 -1.03052,-0.20306 -0.557867,-0.002 -0.619872,0.0182 -1.047019,0.47138 -0.602467,0.62912 -0.761469,1.22017 -0.743701,2.76523 0.02357,1.99921 0.601378,4.01728 1.941436,6.77271 3.966705,8.15587 13.128111,14.40516 23.02736,15.70746 0.583068,0.0725 2.166937,0.12691 3.609267,0.12691 2.881942,-0.002 4.189856,-0.16317 6.723424,-0.86481 9.367416,-2.5676 17.471921,-9.97016 20.476493,-18.70311 0.941868,-2.73784 1.145832,-4.01095 1.22633,-7.65693 l 0.06527,-2.95341 0.465038,0.6128 c 4.214688,5.54494 3.911006,13.30938 -0.800085,20.45503 -1.097058,1.66436 -1.915094,2.64429 -3.646457,4.36956 -2.312523,2.30453 -4.770431,4.06352 -7.502509,5.36944 -1.471988,0.70345 -2.89583,1.20928 -5.249327,1.86233 -2.418457,0.67082 -2.898292,0.87388 -3.402513,1.43229 -0.372212,0.41156 -0.393059,0.4732 -0.347374,1.02799 0.116031,1.39602 1.639152,2.28313 4.37491,2.54747 1.329486,0.12691 3.573711,0.12691 4.990587,0.005 z"
       id="path839"
       inkscape:connector-curvature="0" />
    <path
       inkscape:connector-curvature="0"
       id="path3211"
       d="m 72.41198,270.45689 c 2.483179,-0.21938 3.886533,-0.67263 7.150218,-2.30689 5.149956,-2.57902 9.224066,-5.66804 11.488108,-8.71065 3.134332,-4.21201 5.053669,-8.91933 5.719862,-14.02878 0.235871,-1.8094 0.170424,-7.16216 -0.10697,-8.75073 -0.980119,-5.6189 -3.398649,-10.76335 -6.856401,-14.58429 -3.413213,-3.77162 -7.27712,-6.16626 -12.293324,-7.61867 -0.661757,-0.19036 -1.246635,-0.3898 -1.299754,-0.44056 -0.110596,-0.10879 0.725022,-0.3626 1.846558,-0.56566 1.189159,-0.21575 4.904274,-0.18131 6.179513,0.0544 2.308484,0.42968 5.417814,1.77676 7.429281,3.21865 1.239201,0.88838 3.137739,2.67947 4.237064,3.99717 3.106704,3.7243 5.215475,8.6559 5.901655,13.80197 0.0888,0.66357 0.20505,2.68363 0.25908,4.48849 0.10878,3.6139 0.19381,4.1442 0.77924,4.81104 0.83018,0.94639 2.17279,0.46594 3.286,-1.17303 1.23539,-1.81918 2.33303,-5.1294 2.71077,-8.17436 0.17224,-1.39059 0.14323,-5.02986 -0.0526,-6.52542 -1.12534,-8.58519 -6.46961,-16.94575 -13.776677,-21.55191 -3.203192,-2.01916 -6.459698,-3.21376 -10.445029,-3.83127 -1.581493,-0.24476 -6.541354,-0.27739 -8.31224,-0.0544 -4.978747,0.62912 -9.661379,2.30507 -13.34337,4.77622 -2.642061,1.77313 -4.413648,3.59232 -6.036231,6.19781 -1.27455,2.04672 -1.206386,2.01499 -1.1422,0.53122 0.155921,-3.60846 1.728529,-7.05048 4.57158,-10.00805 2.041681,-2.12396 3.883309,-3.45798 6.564383,-4.75483 3.700643,-1.78945 6.966186,-2.53134 11.19041,-2.53986 3.578086,-0.01 5.584538,0.37348 9.250971,1.755 2.473465,0.9319 3.209858,1.13133 4.201744,1.13677 0.940954,0.005 1.503718,-0.21575 1.801776,-0.70345 0.608448,-0.99717 -0.06526,-2.54712 -1.957843,-4.50318 -3.166892,-3.27269 -6.952402,-5.18125 -12.09362,-6.09737 -1.638243,-0.2919 -5.847075,-0.40793 -7.929455,-0.21756 -7.502857,0.68351 -13.566571,3.39053 -18.382913,8.20572 -3.653001,3.65197 -6.248447,8.08245 -7.709995,13.16071 -1.70732,5.93257 -1.481781,12.32183 0.621866,17.61331 0.851575,2.1419 1.827524,3.87297 3.529605,6.26018 0.514716,0.72158 0.937331,1.37427 0.938963,1.4486 0.0043,0.19037 -1.168129,-0.2647 -2.619106,-1.01892 -8.902434,-4.62592 -11.819819,-17.54641 -6.501779,-28.79529 0.801354,-1.69517 1.830733,-3.35245 3.299351,-5.3125 1.545962,-2.06322 2.032359,-2.99638 2.0818,-3.99282 0.02901,-0.57654 -0.0086,-0.79229 -0.184384,-1.07331 -0.715055,-1.14038 -2.717336,-1.06968 -5.105536,0.18131 -2.340264,1.22378 -4.23884,2.84499 -6.348506,5.42238 -1.432648,1.74956 -3.153675,4.8937 -4.128118,7.53998 -0.547351,1.48668 -1.259868,4.10867 -1.532546,5.64067 -0.304406,1.71149 -0.395057,3.03481 -0.39415,5.76558 9.75e-4,2.95396 0.08702,3.99554 0.490603,5.99312 0.729741,3.60483 1.912119,6.53829 3.74733,9.29753 6.039785,9.08087 18.397817,14.7868 28.624081,13.216 1.456034,-0.223 2.928516,-0.67262 4.609586,-1.4069 0.763279,-0.33359 1.43283,-0.59104 1.488125,-0.5711 0.197072,0.0725 -1.268207,1.94972 -2.270629,2.91969 -2.755173,2.6655 -6.119844,3.97468 -10.608829,4.1277 -2.926341,0.10878 -5.153488,-0.18674 -7.892907,-1.01348 -4.466972,-1.34889 -8.205799,-3.59504 -11.524259,-6.9232 -1.629905,-1.63534 -2.569013,-2.80347 -3.870598,-4.81737 -0.867348,-1.34164 -1.799241,-2.36472 -2.410663,-2.64574 -0.250197,-0.10878 -0.691304,-0.20125 -1.03052,-0.20306 -0.557867,-0.002 -0.619872,0.0182 -1.047019,0.47138 -0.602467,0.62912 -0.761469,1.22017 -0.743701,2.76523 0.02357,1.99921 0.601378,4.01728 1.941436,6.77271 3.966705,8.15587 13.128111,14.40516 23.02736,15.70746 0.583068,0.0725 2.166937,0.12691 3.609267,0.12691 2.881942,-0.002 4.189856,-0.16317 6.723424,-0.86481 9.367416,-2.5676 17.471921,-9.97016 20.476493,-18.70311 0.941868,-2.73784 1.145832,-4.01095 1.22633,-7.65693 l 0.06527,-2.95341 0.465038,0.6128 c 4.214688,5.54494 3.911006,13.30938 -0.800085,20.45503 -1.097058,1.66436 -1.915094,2.64429 -3.646457,4.36956 -2.312523,2.30453 -4.770431,4.06352 -7.502509,5.36944 -1.471988,0.70345 -2.89583,1.20928 -5.249327,1.86233 -2.418457,0.67082 -2.898292,0.87388 -3.402513,1.43229 -0.372212,0.41156 -0.393059,0.4732 -0.347374,1.02799 0.116031,1.39602 1.639152,2.28313 4.37491,2.54747 1.329486,0.12691 3.573711,0.12691 4.990587,0.005 z"
       style="fill:#ffffff;fill-opacity:1;stroke-width:0.10937749" />
  </g>
</svg>
