<?xml version="1.0" encoding="UTF-8" standalone="no"?>
<!-- Created with Inkscape (http://www.inkscape.org/) -->

<svg
   xmlns:dc="http://purl.org/dc/elements/1.1/"
   xmlns:cc="http://creativecommons.org/ns#"
   xmlns:rdf="http://www.w3.org/1999/02/22-rdf-syntax-ns#"
   xmlns:svg="http://www.w3.org/2000/svg"
   xmlns="http://www.w3.org/2000/svg"
   xmlns:sodipodi="http://sodipodi.sourceforge.net/DTD/sodipodi-0.dtd"
   xmlns:inkscape="http://www.inkscape.org/namespaces/inkscape"
   id="svg2"
   version="1.1"
   inkscape:version="0.92.2 5c3e80d, 2017-08-06"
   width="22"
   height="22"
   sodipodi:docname="fusion-icon-panel.svg">
  <metadata
     id="metadata8">
    <rdf:RDF>
      <cc:Work
         rdf:about="">
        <dc:format>image/svg+xml</dc:format>
        <dc:type
           rdf:resource="http://purl.org/dc/dcmitype/StillImage" />
        <dc:title />
      </cc:Work>
    </rdf:RDF>
  </metadata>
  <defs
     id="defs6" />
  <sodipodi:namedview
     pagecolor="#ffffff"
     bordercolor="#666666"
     borderopacity="1"
     objecttolerance="10"
     gridtolerance="10"
     guidetolerance="10"
     inkscape:pageopacity="0"
     inkscape:pageshadow="2"
     inkscape:window-width="1366"
     inkscape:window-height="717"
     id="namedview4"
     showgrid="false"
     inkscape:zoom="5.12"
     inkscape:cx="12.506653"
     inkscape:cy="11.326917"
     inkscape:window-x="0"
     inkscape:window-y="24"
     inkscape:window-maximized="1"
     inkscape:current-layer="svg2" />
  <g
     id="g827"
     transform="matrix(0.04296875,0,0,0.04296875,-1.7245069e-8,21.054722)">
    <path
       style="fill:#3689e6;fill-opacity:1;stroke-width:11.10955811"
       inkscape:connector-curvature="0"
       d="m 432.91327,-433.52599 c 102.19291,88.57459 105.82678,249.6997 8.1168,359.898785 C 343.3201,36.571877 181.27964,54.100646 79.086729,-34.473944 -23.106186,-123.04853 -26.740042,-284.17365 70.969928,-394.37273 168.6799,-504.57181 330.72036,-522.10058 432.91327,-433.52599 Z"
       id="path27" />
    <path
       style="opacity:1;fill:#000000;fill-opacity:0.49019608;stroke-width:11.10955811"
       inkscape:connector-curvature="0"
       d="m 511.63551,-265.09645 c -1.55139,61.31165 -25.16123,124.15461 -70.96638,175.81448 C 342.95915,20.917149 180.91869,38.44588 78.725776,-50.128672 30.827124,-91.644326 4.4968216,-149.07712 0.19382768,-209.77116 0.79907934,-143.41448 27.117411,-79.517787 79.078682,-34.480899 181.27159,54.093653 343.31975,36.55623 441.02202,-73.634197 490.72697,-129.6923 514.02704,-198.92516 511.63551,-265.09645 Z"
       id="path51" />
    <path
       style="fill:#000000;fill-opacity:0.49019608;stroke-width:0.41339523"
       d="m 293.68311,-58.320379 c 9.38524,-0.829153 14.68926,-2.542224 27.02444,-8.718955 19.46441,-9.747477 34.86262,-21.422513 43.41963,-32.922143 11.84629,-15.919413 19.10048,-33.710853 21.61837,-53.022163 0.89148,-6.83868 0.64412,-27.06958 -0.40429,-33.07363 -3.70439,-21.23678 -12.84529,-40.68037 -25.91396,-55.12172 -12.90033,-14.25494 -27.50408,-23.30555 -46.46296,-28.79498 -2.50113,-0.71947 -4.71169,-1.47326 -4.91245,-1.6651 -0.418,-0.41118 2.74024,-1.37046 6.97911,-2.13793 4.49446,-0.81543 18.53584,-0.68527 23.35564,0.2056 8.72498,1.62399 20.47678,6.71532 28.07918,12.16498 4.68359,3.35766 11.85917,10.12713 16.0141,15.10742 11.74186,14.07609 19.71202,32.71521 22.30545,52.16492 0.33562,2.50798 0.77499,10.14286 0.9792,16.96437 0.41114,13.65884 0.73251,15.66312 2.94516,18.18346 3.13769,3.57691 8.21212,1.76104 12.41953,-4.4335 4.66919,-6.87564 8.81775,-19.38671 10.24543,-30.89522 0.65099,-5.25577 0.54134,-19.01049 -0.1988,-24.663 -4.25326,-32.44796 -24.45207,-64.04693 -52.06932,-81.45604 -12.10656,-7.63147 -24.41461,-12.14649 -39.47728,-14.48039 -5.9773,-0.92508 -24.72323,-1.0484 -31.41634,-0.20561 -18.81731,2.37778 -36.51545,8.71208 -50.43163,18.05186 -9.98575,6.70159 -16.68151,13.57727 -22.81411,23.42479 -4.81719,7.73564 -4.55957,7.61571 -4.31697,2.00776 0.58931,-13.63827 6.53302,-26.64748 17.27841,-37.8257 7.71659,-8.02756 14.67707,-13.06953 24.81027,-17.97101 13.98668,-6.76328 26.32889,-9.56727 42.29446,-9.59947 13.52348,-0.0378 21.10692,1.41158 34.9643,6.63307 9.34853,3.52214 12.13175,4.27589 15.88061,4.29645 3.55636,0.0189 5.68334,-0.81543 6.80986,-2.6587 2.29965,-3.76884 -0.24665,-9.62691 -7.39972,-17.0199 -11.96936,-12.36922 -26.2768,-19.58268 -45.70817,-23.04518 -6.19179,-1.10324 -22.09918,-1.54178 -29.9696,-0.82227 -28.35725,2.58335 -51.27523,12.8146 -69.47872,31.01375 -13.80662,13.80272 -23.61618,30.54784 -29.14014,49.74126 -6.45287,22.42231 -5.60043,46.5707 2.35036,66.56999 3.21855,8.09537 6.90718,14.638 13.34024,23.66053 1.94538,2.72723 3.54267,5.19409 3.54883,5.47502 0.0163,0.71951 -4.41497,-1.00044 -9.89898,-3.85104 -33.64699,-17.48379 -44.67333,-66.31714 -24.57365,-108.83259 3.02874,-6.40694 6.9193,-12.67068 12.46999,-20.07874 5.843,-7.798 7.68135,-11.3249 7.86822,-15.09097 0.10964,-2.17905 -0.0325,-2.99449 -0.69689,-4.05661 -2.70257,-4.3101 -10.27024,-4.04288 -19.29651,0.68527 -8.8451,4.62531 -16.02082,10.75272 -23.99436,20.49403 -5.41473,6.61251 -11.9194,18.49588 -15.60233,28.49757 -2.06873,5.61894 -4.76171,15.52883 -5.7923,21.31906 -1.15051,6.46863 -1.49313,11.47015 -1.4897,21.79117 0.004,11.16458 0.32889,15.10126 1.85424,22.65116 2.75808,13.62456 7.22691,24.71165 14.16314,35.14028 22.82754,34.32139 69.53506,55.88711 108.18551,49.95023 5.50312,-0.84283 11.0684,-2.54218 17.42205,-5.31741 2.88484,-1.26082 5.41542,-2.23386 5.62441,-2.15849 0.74484,0.27401 -4.79322,7.36902 -8.5819,11.03505 -10.41325,10.07433 -23.13012,15.02241 -40.09636,15.60075 -11.06019,0.41114 -19.47775,-0.70579 -29.83146,-3.83047 -16.88305,-5.09817 -31.01405,-13.58756 -43.55626,-26.16643 -6.16027,-6.18081 -9.70965,-10.59579 -14.62903,-18.20738 -3.27817,-5.07077 -6.80028,-8.93753 -9.11117,-9.99965 -0.94562,-0.41114 -2.6128,-0.76063 -3.89488,-0.76747 -2.10847,-0.008 -2.34282,0.0688 -3.95723,1.78159 -2.27704,2.37778 -2.878,4.61167 -2.81084,10.45127 0.0891,7.55607 2.27292,15.18342 7.33771,25.59764 14.99227,30.82534 49.61806,54.444703 87.03254,59.366783 2.20372,0.274015 8.19,0.479659 13.64133,0.479659 10.89237,-0.0076 15.83567,-0.616705 25.41136,-3.268573 35.40441,-9.704316 66.03561,-37.682499 77.39147,-70.688919 3.55982,-10.34775 4.33071,-15.1595 4.63495,-28.93958 l 0.24669,-11.1625 1.75762,2.3161 c 15.92953,20.95725 14.78176,50.30317 -3.02394,77.31035 -4.14636,6.29049 -7.23815,9.99416 -13.78188,16.51487 -8.74025,8.710043 -18.02998,15.358189 -28.35594,20.29395 -5.56342,2.658709 -10.94487,4.570507 -19.83998,7.038728 -9.14063,2.535382 -10.95417,3.302853 -12.85989,5.413379 -1.40679,1.555503 -1.48558,1.788473 -1.31291,3.885317 0.43854,5.276296 6.19522,8.629153 16.53509,9.628233 5.02483,0.47966 13.50694,0.47966 18.86206,0.0189 z"
       id="path839"
       inkscape:connector-curvature="0" />
    <path
       inkscape:connector-curvature="0"
       id="path3211"
       d="m 273.68306,-78.32032 c 9.38525,-0.829152 14.68926,-2.542223 27.02445,-8.718954 19.4644,-9.747477 34.86261,-21.422516 43.41962,-32.922146 11.84629,-15.9194 19.10048,-33.71085 21.61838,-53.02216 0.89148,-6.83867 0.64412,-27.06958 -0.4043,-33.07362 -3.70439,-21.23679 -12.84529,-40.68038 -25.91396,-55.12173 -12.90033,-14.25494 -27.50407,-23.30555 -46.46295,-28.79497 -2.50113,-0.71947 -4.7117,-1.47326 -4.91246,-1.66511 -0.418,-0.41118 2.74024,-1.37046 6.97912,-2.13793 4.49446,-0.81543 18.53584,-0.68527 23.35564,0.20561 8.72498,1.62398 20.47677,6.71531 28.07917,12.16497 4.68359,3.35766 11.85917,10.12713 16.0141,15.10742 11.74187,14.07609 19.71203,32.71521 22.30547,52.16492 0.33562,2.50799 0.77499,10.14286 0.9792,16.96438 0.41113,13.65883 0.73251,15.66311 2.94516,18.18345 3.13768,3.57691 8.21212,1.76104 12.41952,-4.43349 4.66919,-6.87565 8.81776,-19.38671 10.24543,-30.89522 0.65099,-5.25578 0.54135,-19.0105 -0.1988,-24.66301 -4.25325,-32.44796 -24.45207,-64.04693 -52.06933,-81.45604 -12.10655,-7.63147 -24.41461,-12.14649 -39.47728,-14.48039 -5.97729,-0.92508 -24.72322,-1.0484 -31.41634,-0.2056 -18.81731,2.37777 -36.51544,8.71207 -50.43163,18.05185 -9.98574,6.70159 -16.68151,13.57727 -22.8141,23.42479 -4.8172,7.73564 -4.55957,7.61572 -4.31698,2.00777 0.58931,-13.63828 6.53302,-26.64749 17.27841,-37.82571 7.71659,-8.02756 14.67708,-13.06953 24.81027,-17.97101 13.98668,-6.76327 26.32889,-9.56727 42.29446,-9.59947 13.52348,-0.0378 21.10692,1.41158 34.9643,6.63307 9.34853,3.52214 12.13175,4.2759 15.88061,4.29646 3.55636,0.0189 5.68335,-0.81544 6.80986,-2.65871 2.29965,-3.76883 -0.24665,-9.62691 -7.39972,-17.0199 -11.96935,-12.36922 -26.27679,-19.58267 -45.70817,-23.04517 -6.19178,-1.10325 -22.09918,-1.54179 -29.96959,-0.82228 -28.35726,2.58335 -51.27523,12.8146 -69.47873,31.01375 -13.80662,13.80272 -23.61618,30.54784 -29.14014,49.74126 -6.45286,22.42232 -5.60043,46.5707 2.35036,66.57 3.21855,8.09537 6.90718,14.63799 13.34024,23.66052 1.94538,2.72723 3.54267,5.19409 3.54884,5.47502 0.0163,0.71951 -4.41498,-1.00044 -9.89899,-3.85103 -33.64699,-17.4838 -44.67333,-66.31714 -24.57365,-108.8326 3.02874,-6.40694 6.91931,-12.67067 12.46999,-20.07874 5.843,-7.79799 7.68136,-11.3249 7.86822,-15.09097 0.10964,-2.17905 -0.0325,-2.99448 -0.69689,-4.05661 -2.70257,-4.31009 -10.27024,-4.04288 -19.29651,0.68527 -8.84509,4.62531 -16.02081,10.75272 -23.99435,20.49404 -5.41474,6.61251 -11.9194,18.49587 -15.60234,28.49756 -2.06873,5.61895 -4.7617,15.52883 -5.7923,21.31907 -1.15051,6.46862 -1.49313,11.47014 -1.4897,21.79116 0.004,11.16458 0.32889,15.10126 1.85425,22.65117 2.75807,13.62455 7.2269,24.71164 14.16314,35.14027 22.82753,34.3214 69.53505,55.88712 108.1855,49.95024 5.50312,-0.84284 11.06841,-2.54219 17.42206,-5.31742 2.88483,-1.26081 5.41542,-2.23385 5.62441,-2.15849 0.74484,0.27402 -4.79323,7.36902 -8.58191,11.03505 -10.41325,10.07433 -23.13012,15.02241 -40.09636,15.60075 -11.06019,0.41114 -19.47775,-0.70578 -29.83146,-3.83047 -16.88304,-5.09817 -31.01404,-13.58755 -43.55626,-26.16643 -6.16027,-6.18081 -9.70965,-10.59579 -14.62903,-18.20738 -3.27816,-5.07076 -6.80028,-8.93752 -9.11116,-9.99965 -0.94563,-0.41113 -2.61281,-0.76063 -3.89488,-0.76747 -2.10848,-0.008 -2.34283,0.0688 -3.95724,1.7816 -2.27704,2.37777 -2.877994,4.61166 -2.81084,10.45126 0.0891,7.55607 2.27293,15.18342 7.33771,25.59764 14.99227,30.82534 49.61806,54.4447 87.03254,59.36678 2.20373,0.27402 8.19,0.47966 13.64133,0.47966 10.89238,-0.008 15.83567,-0.6167 25.41137,-3.26857 35.4044,-9.70432 66.0356,-37.6825 77.39147,-70.68892 3.55981,-10.34774 4.3307,-15.1595 4.63494,-28.93958 l 0.24669,-11.16249 1.75763,2.31609 c 15.92953,20.95725 14.78175,50.30317 -3.02395,77.31035 -4.14636,6.29049 -7.23815,9.99417 -13.78188,16.51487 -8.74025,8.71004 -18.02998,15.35819 -28.35594,20.29395 -5.56342,2.65871 -10.94487,4.570507 -19.83998,7.038727 -9.14062,2.535383 -10.95417,3.302854 -12.85989,5.41338 -1.40678,1.555502 -1.48558,1.788472 -1.31291,3.885316 0.43854,5.276297 6.19522,8.629153 16.53509,9.628234 5.02483,0.479659 13.50694,0.479659 18.86207,0.0189 z"
       style="fill:#ffffff;fill-opacity:1;stroke-width:0.41339523" />
  </g>
</svg>
