<?xml version="1.0" encoding="UTF-8" standalone="no"?>
<!-- Created with Inkscape (http://www.inkscape.org/) -->

<svg
   xmlns:dc="http://purl.org/dc/elements/1.1/"
   xmlns:cc="http://creativecommons.org/ns#"
   xmlns:rdf="http://www.w3.org/1999/02/22-rdf-syntax-ns#"
   xmlns:svg="http://www.w3.org/2000/svg"
   xmlns="http://www.w3.org/2000/svg"
   xmlns:sodipodi="http://sodipodi.sourceforge.net/DTD/sodipodi-0.dtd"
   xmlns:inkscape="http://www.inkscape.org/namespaces/inkscape"
   width="22"
   height="22"
   id="svg2"
   version="1.1"
   inkscape:version="0.92.2 5c3e80d, 2017-08-06"
   sodipodi:docname="gnome-fs-directory-accept.svg">
  <defs
     id="defs4" />
  <sodipodi:namedview
     id="base"
     pagecolor="#ffffff"
     bordercolor="#666666"
     borderopacity="1.0"
     inkscape:pageopacity="0.0"
     inkscape:pageshadow="2"
     inkscape:zoom="15.839192"
     inkscape:cx="3.2724688"
     inkscape:cy="13.59371"
     inkscape:document-units="px"
     inkscape:current-layer="layer1"
     showgrid="false"
     inkscape:window-width="1366"
     inkscape:window-height="719"
     inkscape:window-x="0"
     inkscape:window-y="22"
     inkscape:window-maximized="1" />
  <metadata
     id="metadata7">
    <rdf:RDF>
      <cc:Work
         rdf:about="">
        <dc:format>image/svg+xml</dc:format>
        <dc:type
           rdf:resource="http://purl.org/dc/dcmitype/StillImage" />
        <dc:title />
      </cc:Work>
    </rdf:RDF>
  </metadata>
  <g
     inkscape:label="Layer 1"
     inkscape:groupmode="layer"
     id="layer1"
     transform="translate(0,-1030.3622)">
    <g
       transform="matrix(0.16240158,0,0,0.16240158,1.0891615e-8,1004.1289)"
       id="g863">
      <path
         id="path848"
         d="m 114.54163,176.47539 c 27.03854,23.43536 28,66.06638 2.14757,95.22322 -25.852427,29.15684 -68.725627,33.79466 -95.764167,10.3593 -27.0385497,-23.43536 -27.9999997,-66.06638 -2.14757,-95.22322 25.85243,-29.15684 68.72563,-33.79466 95.764167,-10.3593 z"
         inkscape:connector-curvature="0"
         style="fill:#d48e15;fill-opacity:1;stroke-width:2.93940377" />
      <path
         style="fill:#ffffff;fill-opacity:1;stroke-width:2.73338604"
         inkscape:connector-curvature="0"
         d="m 110.95464,180.32858 c 25.14345,21.79282 26.03753,61.4359 1.99705,88.54919 -24.040477,27.11329 -63.908767,31.42605 -89.052227,9.63323 -25.1434597,-21.79281 -26.0375297,-61.4359 -1.99705,-88.54919 24.04048,-27.11328 63.90877,-31.42605 89.052227,-9.63323 z"
         id="path849" />
      <path
         inkscape:connector-curvature="0"
         id="path843"
         d="m 74.041395,161.53803 c -19.884078,-0.13327 -40.390627,8.5224 -55.263809,25.29664 -25.8524316,29.15684 -24.8908775,71.78777 2.147671,95.22313 27.03854,23.43536 69.91175,18.79778 95.764183,-10.35906 8.50024,-9.58672 14.10065,-20.63031 16.82945,-31.9691 -5.19112,-9.49549 -17.9253,-31.92117 -31.22186,-48.70194 -9.232538,-11.65184 -20.102389,-22.17763 -28.255635,-29.48967 z"
         style="fill:#f9c440;fill-opacity:1;stroke:none;stroke-width:0.26458332px;stroke-linecap:butt;stroke-linejoin:miter;stroke-opacity:1" />
      <path
         id="path850"
         d="m 135.37022,221.03904 c -0.41047,16.22204 -6.65724,32.84924 -18.77652,46.51758 C 90.741273,296.71347 47.868073,301.35128 20.829523,277.91593 8.1563433,266.93158 1.1897833,251.73582 0.05128329,235.67719 c 0.16014,17.55687 7.12353001,34.46287 20.87161971,46.37888 27.03854,23.43535 69.91378,18.79524 95.764167,-10.35931 13.1511,-14.83204 19.31591,-33.1499 18.68315,-50.65772 z"
         inkscape:connector-curvature="0"
         style="opacity:0.1;stroke-width:2.93940377" />
    </g>
  </g>
</svg>
