<?xml version="1.0" encoding="UTF-8" standalone="no"?>
<!-- Created with Inkscape (http://www.inkscape.org/) -->

<svg
   xmlns:dc="http://purl.org/dc/elements/1.1/"
   xmlns:cc="http://creativecommons.org/ns#"
   xmlns:rdf="http://www.w3.org/1999/02/22-rdf-syntax-ns#"
   xmlns:svg="http://www.w3.org/2000/svg"
   xmlns="http://www.w3.org/2000/svg"
   xmlns:sodipodi="http://sodipodi.sourceforge.net/DTD/sodipodi-0.dtd"
   xmlns:inkscape="http://www.inkscape.org/namespaces/inkscape"
   id="svg2"
   version="1.1"
   inkscape:version="0.92.2 5c3e80d, 2017-08-06"
   width="22"
   height="22"
   sodipodi:docname="gnome-do-icon.svg"
   viewBox="0 0 22 22">
  <metadata
     id="metadata8">
    <rdf:RDF>
      <cc:Work
         rdf:about="">
        <dc:format>image/svg+xml</dc:format>
        <dc:type
           rdf:resource="http://purl.org/dc/dcmitype/StillImage" />
        <dc:title />
      </cc:Work>
    </rdf:RDF>
  </metadata>
  <defs
     id="defs6" />
  <sodipodi:namedview
     pagecolor="#ffffff"
     bordercolor="#666666"
     borderopacity="1"
     objecttolerance="10"
     gridtolerance="10"
     guidetolerance="10"
     inkscape:pageopacity="0"
     inkscape:pageshadow="2"
     inkscape:window-width="1366"
     inkscape:window-height="717"
     id="namedview4"
     showgrid="false"
     inkscape:zoom="18.368403"
     inkscape:cx="13.256427"
     inkscape:cy="12.529436"
     inkscape:window-x="0"
     inkscape:window-y="24"
     inkscape:window-maximized="1"
     inkscape:current-layer="svg2"
     inkscape:document-units="px" />
  <g
     id="g827"
     transform="matrix(0.04296875,0,0,0.04296875,0,21.054723)">
    <path
       style="fill:#3689e6;fill-opacity:1;stroke-width:11.10955811"
       inkscape:connector-curvature="0"
       d="m 432.91328,-433.52599 c 102.1929,88.57459 105.82677,249.69971 8.11679,359.898798 C 343.3201,36.571869 181.27964,54.100654 79.086728,-34.473948 -23.106186,-123.04853 -26.740042,-284.17365 70.969929,-394.37273 168.6799,-504.57181 330.72037,-522.10058 432.91328,-433.52599 Z"
       id="path27" />
    <path
       style="opacity:1;fill:#000000;fill-opacity:0.49019608;stroke-width:11.10955811"
       inkscape:connector-curvature="0"
       d="m 511.63552,-265.09645 c -1.55139,61.31165 -25.16124,124.15462 -70.96639,175.814486 C 342.95914,20.917143 180.91869,38.445882 78.725777,-50.128673 30.827124,-91.644332 4.4968217,-149.07712 0.1938276,-209.77115 0.79907931,-143.41449 27.117412,-79.517775 79.078682,-34.480906 181.27159,54.093649 343.31975,36.55623 441.02204,-73.634197 c 49.70493,-56.058113 73.005,-125.290963 70.61348,-191.462253 z"
       id="path51" />
    <path
       style="fill:#000000;fill-opacity:0.49019608;stroke-width:0.67177886"
       d="m 264.73855,-58.401628 c -3.13234,-0.387258 -6.43607,-1.325382 -8.73311,-2.480128 -5.34917,-2.689024 -7.03821,-6.391365 -8.04934,-17.644194 -0.93626,-10.420457 -1.41987,-12.833401 -2.6991,-13.467741 -0.55424,-0.27478 -4.55875,-1.62195 -8.89895,-2.99355 -4.34018,-1.37162 -11.74653,-4.42559 -16.45858,-6.786629 -4.71201,-2.36099 -9.05379,-4.29323 -9.64835,-4.29384 -0.59457,-6.5e-4 -2.40837,1.15037 -4.03067,2.55784 -5.3344,4.627919 -12.32569,9.981689 -14.50906,11.110749 -3.39856,1.75755 -8.78775,1.44779 -12.84374,-0.73798 -10.48772,-5.65192 -24.71703,-21.577499 -25.98503,-29.082719 -0.81644,-4.83251 1.61915,-9.21847 11.71922,-21.10371 1.87033,-2.2009 3.40006,-4.46813 3.39945,-5.03833 -6.4e-4,-0.57019 -1.89536,-4.81706 -4.21044,-9.43747 -2.31512,-4.62038 -5.36182,-12.02674 -6.77047,-16.45859 -1.4086,-4.43182 -2.79328,-8.5113 -3.07699,-9.06549 -0.63705,-1.24439 -2.95206,-1.73615 -12.81214,-2.72168 -4.249,-0.42472 -8.84206,-1.08683 -10.20683,-1.47153 -3.94691,-1.11244 -6.99255,-4.08474 -8.60705,-8.39992 -1.93334,-5.16734 -2.8362,-16.72234 -2.01237,-25.75446 0.74503,-8.16773 1.46252,-11.01486 3.56098,-14.13029 2.69053,-3.99451 5.82509,-5.16399 16.99857,-6.3421 5.50412,-0.58019 10.64657,-1.18225 11.42767,-1.33748 1.16461,-0.23273 1.92416,-1.83343 4.22087,-8.90146 1.54039,-4.74051 4.74779,-12.52929 7.12755,-17.30846 2.37976,-4.77914 4.3347,-9.29912 4.34432,-10.04448 0.0102,-0.74528 -1.27763,-2.86136 -2.86052,-4.70241 -10.23461,-11.90381 -12.14991,-15.24072 -11.76914,-20.50473 0.40665,-5.62197 3.45389,-10.27268 13.00858,-19.85378 9.88712,-9.91446 14.67198,-12.73146 20.76684,-12.22602 4.22564,0.35036 7.38211,2.26428 15.8042,9.58262 7.67484,6.66905 6.66279,6.56103 16.24426,1.7337 4.55163,-2.29319 12.50786,-5.60254 17.68055,-7.35413 10.90875,-3.69396 9.80564,-2.11638 11.08778,-15.85689 0.99887,-10.70415 1.58581,-12.67359 4.70803,-15.79582 4.19072,-4.1907 7.97552,-5.02405 22.8315,-5.02692 13.8968,-0.003 17.89561,0.67418 22.13804,3.74736 4.2408,3.07204 5.29711,5.9266 6.51017,17.59314 1.03727,9.97602 1.98517,13.2537 3.83244,13.2537 2.3649,0 14.59614,4.64255 23.42195,8.89009 l 9.88579,4.75775 2.31145,-1.61764 c 1.27139,-0.88969 5.13601,-3.9185 8.58815,-6.7307 3.45213,-2.81219 7.24405,-5.60848 8.42651,-6.21396 3.21197,-1.64473 8.06277,-1.40378 12.08427,0.60019 7.65161,3.81297 20.80678,17.15901 24.47889,24.83418 2.25256,4.70796 2.46518,8.406 0.68445,11.89901 -1.31677,2.58281 -6.7608,9.75704 -10.90472,14.37052 -1.36215,1.51649 -2.67634,3.38638 -2.92035,4.15525 -0.31186,0.98246 0.91811,4.15653 4.13801,10.67833 2.51997,5.10414 5.73619,12.83176 7.14728,17.1724 1.41103,4.34068 2.90653,8.1029 3.32337,8.36056 0.41682,0.25786 5.67545,1.00584 11.68577,1.66283 7.85729,0.85877 11.68503,1.58069 13.62253,2.56917 5.81057,2.96432 8.03977,9.91881 8.05874,25.14132 0.0113,11.16013 -0.79337,16.393 -3.22081,20.87915 -2.71809,5.02323 -5.46103,6.25017 -16.74433,7.48981 -14.90853,1.63794 -13.64691,0.86691 -16.5948,10.14261 -1.38031,4.3429 -4.58612,12.21829 -7.12422,17.50088 -3.75134,7.80765 -4.50221,9.90075 -4.01315,11.18706 0.33093,0.87017 0.92183,1.78013 1.31304,2.02193 1.26371,0.7808 11.21841,13.38897 12.44509,15.76211 1.79293,3.46868 1.53019,8.10373 -0.71726,12.65238 -1.37705,2.78709 -4.33473,6.28841 -10.65803,12.61735 -10.1665,10.175469 -14.71038,13.073089 -20.50062,13.073089 -4.43536,0 -6.45934,-0.99282 -13.10715,-6.42949 -8.02811,-6.565399 -10.50936,-8.349649 -11.61137,-8.349649 -0.54853,0 -4.96204,1.96468 -9.80794,4.36601 -4.84592,2.401299 -12.4315,5.545079 -16.85688,6.986219 -4.95018,1.6121 -8.35151,3.09853 -8.83979,3.86329 -0.4366,0.68376 -1.27442,5.75742 -1.86229,11.275011 -1.56323,14.673478 -3.52644,17.762444 -12.82536,20.178711 -4.94737,1.285586 -19.7154,1.840873 -26.53529,0.997935 z m 19.14573,-87.375122 c 23.81971,-2.91901 43.64935,-17.04783 54.11063,-38.55437 5.32491,-10.94712 6.35864,-15.90744 6.29969,-30.23004 -0.0465,-11.12152 -0.19316,-12.56562 -1.85111,-17.99298 -3.82348,-12.52538 -9.02379,-21.30697 -17.83634,-30.11951 -8.80395,-8.80395 -17.5579,-13.99075 -30.11949,-17.8461 -5.50325,-1.68904 -6.73859,-1.81108 -18.32888,-1.81108 -11.61171,0 -12.82497,0.12009 -18.47391,1.83405 -12.63393,3.83264 -22.34143,9.71325 -31.03826,18.80233 -6.10784,6.38332 -9.3974,11.14624 -12.9775,18.78993 -12.13145,25.90124 -6.58835,56.98748 13.79658,77.37241 10.78694,10.78696 25.69992,18.0675 40.56837,19.80563 6.61104,0.77288 9.20067,0.76451 15.85022,-0.0512 z"
       id="path846"
       inkscape:connector-curvature="0" />
    <path
       inkscape:connector-curvature="0"
       id="path844"
       d="m 244.73855,-78.401732 c -3.13234,-0.387211 -6.43607,-1.325428 -8.73311,-2.480127 -5.34918,-2.689024 -7.03821,-6.391366 -8.04934,-17.644195 -0.93636,-10.420456 -1.41994,-12.833376 -2.69912,-13.467736 -0.55424,-0.27476 -4.55874,-1.62195 -8.89894,-2.99353 -4.34018,-1.37165 -11.74654,-4.42561 -16.45858,-6.78665 -4.71202,-2.361 -9.05379,-4.29324 -9.64835,-4.29384 -0.59457,-6.3e-4 -2.40838,1.15037 -4.03067,2.55783 -5.33441,4.62792 -12.32569,9.9817 -14.50906,11.11075 -3.39856,1.75756 -8.78776,1.4478 -12.84374,-0.73798 -10.48773,-5.65192 -24.71703,-21.57747 -25.98504,-29.08271 -0.81643,-4.83252 1.61916,-9.21845 11.71922,-21.10371 1.87034,-2.2009 3.40006,-4.46813 3.39945,-5.03834 -6.3e-4,-0.57018 -1.89535,-4.81703 -4.21043,-9.43744 -2.31512,-4.6204 -5.36183,-12.02676 -6.77047,-16.45859 -1.40861,-4.43185 -2.79328,-8.51132 -3.077,-9.06552 -0.63703,-1.24443 -2.95205,-1.73619 -12.81213,-2.72167 -4.249,-0.42461 -8.84206,-1.08679 -10.20683,-1.47144 -3.94691,-1.11242 -6.99255,-4.08471 -8.60706,-8.39992 -1.93332,-5.16734 -2.836192,-16.72234 -2.01236,-25.75446 0.74502,-8.1677 1.46252,-11.01487 3.56098,-14.13029 2.69053,-3.99451 5.82509,-5.16397 16.99858,-6.34209 5.50411,-0.58031 10.64656,-1.18223 11.42766,-1.33757 1.16461,-0.23169 1.92416,-1.83341 4.22087,-8.90147 1.54039,-4.74051 4.74779,-12.52928 7.12755,-17.30846 2.37976,-4.77914 4.33469,-9.29911 4.34432,-10.04447 0.0102,-0.74529 -1.27763,-2.86137 -2.86052,-4.70242 -10.23461,-11.90381 -12.14992,-15.24071 -11.76914,-20.50473 0.40665,-5.62197 3.45389,-10.27268 13.00858,-19.85378 9.88712,-9.91446 14.67198,-12.73145 20.76684,-12.22601 4.22564,0.35036 7.38211,2.26427 15.8042,9.58261 7.67483,6.66905 6.66278,6.56103 16.24426,1.73371 4.55163,-2.2932 12.50786,-5.60255 17.68055,-7.35413 10.90874,-3.69396 9.80564,-2.11639 11.08777,-15.8569 0.99882,-10.70415 1.5858,-12.67358 4.70803,-15.79582 4.19074,-4.1907 7.97554,-5.02404 22.83152,-5.02692 13.8968,-0.003 17.89559,0.67419 22.13802,3.74737 4.2408,3.07203 5.2971,5.9266 6.5102,17.59313 1.03726,9.97602 1.98516,13.25371 3.83243,13.25371 2.36491,0 14.59612,4.64254 23.42195,8.89009 l 9.88577,4.75774 2.31145,-1.61764 c 1.27138,-0.88969 5.13603,-3.9185 8.58817,-6.73069 3.45213,-2.8122 7.24403,-5.60848 8.42649,-6.21396 3.21199,-1.64473 8.06277,-1.40379 12.0843,0.60018 7.65158,3.81298 20.80675,17.15902 24.47888,24.83418 2.25257,4.70797 2.46519,8.40601 0.68445,11.89901 -1.31677,2.58282 -6.76077,9.75704 -10.90472,14.37052 -1.36215,1.5165 -2.67631,3.38638 -2.92035,4.15525 -0.31185,0.98246 0.91811,4.15654 4.13803,10.67834 2.51997,5.10414 5.73619,12.83176 7.14726,17.1724 1.41103,4.34067 2.90656,8.10289 3.3234,8.36054 0.41681,0.25777 5.67545,1.00592 11.68577,1.66283 7.85729,0.85884 11.68502,1.58071 13.62253,2.56918 5.81057,2.96431 8.03977,9.91879 8.05874,25.14129 0.0113,11.16016 -0.79337,16.39303 -3.22081,20.87917 -2.71809,5.02321 -5.46104,6.25017 -16.74433,7.48982 -14.90853,1.63793 -13.64692,0.86691 -16.59483,10.14258 -1.3803,4.3429 -4.5861,12.2183 -7.12422,17.50088 -3.75133,7.80767 -4.50218,9.90078 -4.01315,11.18706 0.33094,0.8704 0.92183,1.78013 1.31305,2.02193 1.2637,0.78104 11.21836,13.38899 12.44509,15.76211 1.79293,3.46871 1.53018,8.10373 -0.71727,12.65238 -1.37705,2.7871 -4.33475,6.28843 -10.65805,12.61736 -10.16648,10.17546 -14.71036,13.07308 -20.50059,13.07308 -4.43537,0 -6.45937,-0.99282 -13.10718,-6.42946 -8.02811,-6.56543 -10.50936,-8.34965 -11.61134,-8.34965 -0.54854,0 -4.96208,1.96468 -9.80797,4.36598 -4.84589,2.40133 -12.43148,5.5451 -16.85688,6.98624 -4.95018,1.6121 -8.35151,3.09853 -8.83977,3.86328 -0.4366,0.68375 -1.27442,5.75744 -1.86228,11.275003 -1.56323,14.673478 -3.52645,17.762467 -12.82539,20.178711 -4.94737,1.285586 -19.7154,1.840873 -26.53527,0.997935 z m 19.14571,-87.375128 c 23.81973,-2.919 43.64937,-17.0478 54.11063,-38.55434 5.32493,-10.94714 6.35864,-15.90747 6.29971,-30.23006 -0.0465,-11.12153 -0.19316,-12.5656 -1.85111,-17.99299 -3.8235,-12.52538 -9.02381,-21.30696 -17.83636,-30.11949 -8.80395,-8.80396 -17.55787,-13.99076 -30.11949,-17.8461 -5.50326,-1.68904 -6.73857,-1.81108 -18.32886,-1.81108 -11.61171,0 -12.82499,0.12008 -18.47391,1.83405 -12.63393,3.83264 -22.34144,9.71324 -31.03828,18.80233 -6.10783,6.38332 -9.3974,11.14624 -12.97749,18.78992 -12.13146,25.90126 -6.58835,56.9875 13.79657,77.37241 10.78695,10.78695 25.69994,18.0675 40.56837,19.80562 6.61106,0.77289 9.20067,0.76474 15.85022,-0.0512 z"
       style="fill:#ffffff;stroke-width:0.67177886" />
  </g>
</svg>
