<?xml version="1.0" encoding="UTF-8" standalone="no"?>
<!-- Created with Inkscape (http://www.inkscape.org/) -->

<svg
   xmlns:dc="http://purl.org/dc/elements/1.1/"
   xmlns:cc="http://creativecommons.org/ns#"
   xmlns:rdf="http://www.w3.org/1999/02/22-rdf-syntax-ns#"
   xmlns:svg="http://www.w3.org/2000/svg"
   xmlns="http://www.w3.org/2000/svg"
   xmlns:sodipodi="http://sodipodi.sourceforge.net/DTD/sodipodi-0.dtd"
   xmlns:inkscape="http://www.inkscape.org/namespaces/inkscape"
   width="22"
   height="22"
   viewBox="0 0 22 22"
   id="svg2"
   version="1.1"
   inkscape:version="0.92.2 5c3e80d, 2017-08-06"
   sodipodi:docname="gpm-phone-060.svg">
  <defs
     id="defs4" />
  <sodipodi:namedview
     id="base"
     pagecolor="#ffffff"
     bordercolor="#666666"
     borderopacity="1.0"
     inkscape:pageopacity="0.0"
     inkscape:pageshadow="2"
     inkscape:zoom="15.839192"
     inkscape:cx="12.98769"
     inkscape:cy="8.9732564"
     inkscape:document-units="px"
     inkscape:current-layer="layer1"
     showgrid="false"
     units="px"
     inkscape:window-width="1366"
     inkscape:window-height="719"
     inkscape:window-x="0"
     inkscape:window-y="22"
     inkscape:window-maximized="1" />
  <metadata
     id="metadata7">
    <rdf:RDF>
      <cc:Work
         rdf:about="">
        <dc:format>image/svg+xml</dc:format>
        <dc:type
           rdf:resource="http://purl.org/dc/dcmitype/StillImage" />
        <dc:title />
      </cc:Work>
    </rdf:RDF>
  </metadata>
  <g
     inkscape:label="Layer 1"
     inkscape:groupmode="layer"
     id="layer1"
     transform="translate(0,-1030.3622)">
    <g
       transform="matrix(0.16240157,0,0,0.16240157,-52.1922,917.96192)"
       id="g4695">
      <path
         id="path4512"
         d="m 435.91911,707.05543 c 27.03853,23.43536 28,66.06639 2.14757,95.22324 -25.85244,29.15684 -68.72564,33.79466 -95.76418,10.3593 -27.03855,-23.43536 -28,-66.0664 -2.14757,-95.22324 25.85243,-29.15684 68.72563,-33.79466 95.76418,-10.3593 z"
         inkscape:connector-curvature="0"
         style="fill:#8a715e;fill-opacity:1;stroke-width:2.93940425" />
      <path
         inkscape:connector-curvature="0"
         id="path4680"
         d="m 351.2106,781.51018 c -0.6522,-1.3325 -0.8681,-2.74671 -0.642,-4.20465 0.3628,-2.33922 -1.0663,-0.79713 25.5605,-27.58023 l 24.2634,-24.4063 1.1599,-0.40084 c 1.4823,-0.51222 3.5883,-0.52197 4.9643,-0.0228 1.0759,0.39019 1.086,0.39972 13.4219,12.62229 l 12.3453,12.23183 0.3781,1.10809 c 0.5112,1.49839 0.491,3.44692 -0.052,4.98089 l -0.4489,1.26926 -24.3858,24.61185 -24.3857,24.61185 -1.2983,0.4762 c -1.5321,0.56213 -3.4325,0.59353 -4.9603,0.082 l -1.0982,-0.36775 -12.1451,-11.96194 c -11.3387,-11.16756 -12.1805,-12.0342 -12.6776,-13.0499 z m 16.4214,10.90232 c 1.3885,0.61928 3.6397,0.1863 4.7246,-0.90869 1.0849,-1.09499 1.4971,-3.3501 0.865,-4.73282 -0.593,-1.29719 -2.315,-2.46701 -3.7264,-2.53143 -1.0161,-0.0463 -2.2758,0.51033 -3.1489,1.39156 -2.0144,2.03304 -1.3358,5.61214 1.2857,6.78138 z m 38.3987,-15.69419 18.6205,-18.79308 -12.5813,-12.46556 -12.581,-12.46552 -18.6204,18.79308 -18.6205,18.79307 12.5812,12.46551 12.5811,12.46557 z"
         style="fill:#7c6655;fill-opacity:1;stroke-width:0.22138588" />
      <path
         style="fill:#68b723;fill-opacity:1;stroke:none;stroke-width:0.72560298;stroke-miterlimit:4;stroke-dasharray:none;stroke-opacity:1"
         d="m 327.40986,737.27243 c -11.54795,26.36472 -6.46578,56.85324 14.89263,75.36543 27.03854,23.43536 69.91175,18.79777 95.7642,-10.35908 16.81596,-18.96533 22.28243,-43.63021 16.61139,-65.00635 z"
         id="path4516"
         inkscape:connector-curvature="0" />
      <path
         id="path4518"
         d="m 456.7477,751.61909 c -0.41048,16.22203 -6.65724,32.84923 -18.77652,46.51757 -25.85244,29.15685 -68.72564,33.79466 -95.76419,10.35931 -12.67318,-10.98433 -19.63974,-26.18011 -20.77824,-42.23872 0.16014,17.55685 7.12353,34.46286 20.87162,46.37886 27.03854,23.43536 69.91378,18.79524 95.76418,-10.3593 13.1511,-14.83205 19.31591,-33.14991 18.68315,-50.65772 z"
         inkscape:connector-curvature="0"
         style="opacity:0.1;stroke-width:2.93940425" />
      <path
         inkscape:connector-curvature="0"
         id="path4684"
         transform="matrix(0.26458333,0,0,0.26458333,0,161.53332)"
         d="m 1468.3809,2176.0215 -46.7911,47.0664 c -100.6367,101.2275 -95.2342,95.3991 -96.6054,104.2402 -0.8546,5.5103 -0.039,10.8544 2.4258,15.8907 v 0 c 1.8788,3.8388 5.0611,7.1141 47.916,49.3222 l 45.9024,45.211 4.1504,1.3906 c 5.7743,1.9333 12.9574,1.814 18.748,-0.3106 l 4.9062,-1.8008 92.1661,-93.0195 92.1679,-93.0215 1.6953,-4.7968 c 2.0523,-5.7977 2.1294,-13.163 0.1973,-18.8262 l -1.4297,-4.1875 -46.6582,-46.2305 c -0.4044,-0.4007 -0.54,-0.5339 -0.9375,-0.9277 h -60.0332 l 31.2305,30.9433 47.5508,47.1153 -70.377,71.0293 -70.375,71.0273 -47.5508,-47.1133 -47.5507,-47.1132 70.3769,-71.0293 54.3535,-54.8594 z m -72.5938,177.5078 c 0.2466,-0.01 0.4905,-0.01 0.7305,0.01 5.3344,0.2434 11.8427,4.6656 14.084,9.5683 2.389,5.226 0.8308,13.7482 -3.2696,17.8867 -4.1004,4.1386 -12.6095,5.7762 -17.8574,3.4356 -9.908,-4.4192 -12.4728,-17.9469 -4.8594,-25.6309 3.0937,-3.1224 7.4724,-5.1665 11.1719,-5.2656 z"
         style="fill:#5ea520;fill-opacity:1;stroke-width:0.83673406" />
      <path
         style="fill:#ffffff;stroke-width:0.22138588"
         d="m 348.5647,778.86436 c -0.6522,-1.3325 -0.8681,-2.74671 -0.642,-4.20465 0.3628,-2.33922 -1.0663,-0.79713 25.5605,-27.58023 l 24.2634,-24.4063 1.1599,-0.40084 c 1.4823,-0.51222 3.5883,-0.52197 4.9643,-0.0228 1.0759,0.39019 1.086,0.39972 13.4219,12.62229 l 12.3453,12.23183 0.3781,1.10809 c 0.5112,1.49839 0.491,3.44692 -0.052,4.98089 l -0.4489,1.26926 -24.3858,24.61185 -24.3857,24.61185 -1.2983,0.4762 c -1.5321,0.56213 -3.4325,0.59353 -4.9603,0.082 l -1.0982,-0.36775 -12.1451,-11.96194 c -11.3387,-11.16756 -12.1805,-12.0342 -12.6776,-13.0499 z m 16.4214,10.90232 c 1.3885,0.61928 3.6397,0.1863 4.7246,-0.90869 1.0849,-1.09499 1.4971,-3.3501 0.865,-4.73282 -0.593,-1.29719 -2.315,-2.46701 -3.7264,-2.53143 -1.0161,-0.0463 -2.2758,0.51033 -3.1489,1.39156 -2.0144,2.03304 -1.3358,5.61214 1.2857,6.78138 z m 38.3987,-15.69419 18.6205,-18.79308 -12.5813,-12.46556 -12.581,-12.46552 -18.6204,18.79308 -18.6205,18.79307 12.5812,12.46551 12.5811,12.46557 z"
         id="path4682"
         inkscape:connector-curvature="0" />
    </g>
  </g>
</svg>
