<?xml version="1.0" encoding="UTF-8" standalone="no"?>
<!-- Created with Inkscape (http://www.inkscape.org/) -->

<svg
   xmlns:dc="http://purl.org/dc/elements/1.1/"
   xmlns:cc="http://creativecommons.org/ns#"
   xmlns:rdf="http://www.w3.org/1999/02/22-rdf-syntax-ns#"
   xmlns:svg="http://www.w3.org/2000/svg"
   xmlns="http://www.w3.org/2000/svg"
   xmlns:sodipodi="http://sodipodi.sourceforge.net/DTD/sodipodi-0.dtd"
   xmlns:inkscape="http://www.inkscape.org/namespaces/inkscape"
   width="22"
   height="22"
   viewBox="0 0 22 22"
   id="svg2"
   version="1.1"
   inkscape:version="0.92.2 5c3e80d, 2017-08-06"
   sodipodi:docname="gpm-mouse-060.svg">
  <defs
     id="defs4" />
  <sodipodi:namedview
     id="base"
     pagecolor="#ffffff"
     bordercolor="#666666"
     borderopacity="1.0"
     inkscape:pageopacity="0.0"
     inkscape:pageshadow="2"
     inkscape:zoom="15.839192"
     inkscape:cx="4.1804228"
     inkscape:cy="8.9732564"
     inkscape:document-units="px"
     inkscape:current-layer="layer1"
     showgrid="false"
     units="px"
     inkscape:window-width="1366"
     inkscape:window-height="719"
     inkscape:window-x="0"
     inkscape:window-y="22"
     inkscape:window-maximized="1" />
  <metadata
     id="metadata7">
    <rdf:RDF>
      <cc:Work
         rdf:about="">
        <dc:format>image/svg+xml</dc:format>
        <dc:type
           rdf:resource="http://purl.org/dc/dcmitype/StillImage" />
        <dc:title />
      </cc:Work>
    </rdf:RDF>
  </metadata>
  <g
     inkscape:label="Layer 1"
     inkscape:groupmode="layer"
     id="layer1"
     transform="translate(0,-1030.3622)">
    <g
       transform="matrix(0.16240157,0,0,0.16240157,-53.317704,945.25496)"
       id="g4399">
      <path
         style="fill:#8a715e;fill-opacity:1;stroke-width:2.93940425"
         inkscape:connector-curvature="0"
         d="m 442.84939,538.99605 c 27.03853,23.43536 28,66.06639 2.14757,95.22324 -25.85244,29.15684 -68.72564,33.79466 -95.76418,10.3593 -27.03855,-23.43536 -28,-66.0664 -2.14757,-95.22324 25.85243,-29.15684 68.72563,-33.79466 95.76418,-10.3593 z"
         id="path4128" />
      <path
         inkscape:connector-curvature="0"
         id="path4378"
         d="m 375.00709,634.75726 c -2.9471,-0.62092 -5.7953,-1.98707 -7.7781,-3.73076 -1.0606,-0.93273 -5.9189,-6.99805 -7.245,-9.04505 -4.5143,-6.96804 -2.2914,-18.45779 4.8545,-25.09462 1.1917,-1.10658 22.1267,-17.41213 22.3366,-17.397 0.067,0.005 1.8269,2.20572 3.9111,4.89089 2.0843,2.68517 8.1647,10.51525 13.5123,17.40018 l 9.7228,12.51805 -0.4243,0.3499 c -0.8109,0.66873 -19.777,15.32892 -20.842,16.1102 -3.114,2.28463 -6.9849,3.77472 -11.0469,4.25256 -1.7804,0.20946 -5.4286,0.0769 -7.001,-0.25435 z m 34.5222,-29.82284 c -3.4382,-4.44218 -6.2468,-8.14043 -6.2411,-8.21832 0.01,-0.11138 2.655,-2.2301 4.8034,-3.84489 0.2851,-0.21435 0.3479,-0.20144 0.6666,0.13704 0.9068,0.96294 1.3924,1.15945 3.1865,1.28937 1.5735,0.11387 1.786,0.0894 2.7062,-0.31314 0.5635,-0.24648 2.1163,-1.31344 3.5635,-2.44864 3.1823,-2.49603 3.6003,-3.08555 3.6242,-5.11218 0.012,-1.01951 -0.082,-1.53617 -0.4252,-2.35322 l -0.4406,-1.04689 1.9613,-1.5218 c 1.1313,-0.87765 2.0554,-1.47773 2.1834,-1.41769 0.2924,0.13703 2.1335,2.63492 2.8502,3.86691 1.9026,3.27017 2.6555,7.05904 2.1997,11.06814 -0.4961,4.36346 -2.3562,8.15469 -5.4046,11.01538 -1.0858,1.01881 -8.6868,6.99789 -8.8788,6.98405 -0.057,-0.004 -2.9165,-3.64196 -6.3547,-8.08414 z m -14.2286,-18.38111 c -3.3409,-4.31529 -6.1706,-7.97658 -6.2882,-8.13616 -0.1903,-0.25829 0.2194,-0.62647 3.7276,-3.34952 4.4827,-3.47957 5.4032,-4.10337 7.2884,-4.93992 2.9832,-1.32378 5.8256,-1.73035 9.3655,-1.3396 5.0298,0.5552 8.6723,2.54044 12.1326,6.61246 0.922,1.08484 1.6723,2.02394 1.6677,2.0869 0,0.0629 -0.891,0.79537 -1.9695,1.62759 l -1.9609,1.51312 -0.7272,-0.64278 c -0.8473,-0.74911 -1.6091,-1.05609 -2.8448,-1.14642 -1.0767,-0.0787 -2.8072,0.34115 -3.6527,0.88624 -1.2936,0.83378 -5.0374,3.83938 -5.452,4.37684 -1.1225,1.45528 -1.2787,3.24928 -0.4516,5.19293 l 0.518,1.21793 -2.4963,1.90281 c -1.3728,1.04654 -2.5605,1.921 -2.639,1.94322 -0.079,0.0221 -2.8762,-3.49031 -6.2172,-7.80561 z m 14.9769,3.95756 c -0.9044,-0.52961 -1.3458,-1.38821 -1.3267,-2.57998 0.014,-0.8548 0.092,-1.13674 0.4479,-1.61473 0.4525,-0.60775 4.5315,-3.86755 5.4387,-4.34651 0.6382,-0.33705 2.1118,-0.27382 2.7484,0.11789 1.5232,0.93746 1.9339,3.03225 0.8553,4.36254 -0.5877,0.72464 -4.9611,4.06241 -5.6258,4.29368 -0.7448,0.25904 -1.875,0.15531 -2.5378,-0.23289 z m 13.9551,-11.69974 c -0.4893,-0.5712 -0.8831,-1.12793 -0.8751,-1.23722 0.01,-0.10929 0.3034,-0.25127 0.657,-0.31549 0.3535,-0.0641 1.1428,-0.20604 1.7542,-0.31512 3.2961,-0.58817 6.1365,-2.85335 6.3105,-5.0326 0.151,-1.89174 -0.6048,-3.30839 -3.4692,-6.50276 -1.1953,-1.33305 -2.4129,-2.84799 -2.7058,-3.36657 -0.9962,-1.76412 -1.26,-3.8026 -0.6963,-5.38193 0.5802,-1.62538 2.6697,-3.31731 4.7829,-3.87305 1.6131,-0.42417 4.4413,-0.22863 6.3687,0.44029 1.688,0.58589 3.2365,1.35094 3.4166,1.68805 0.1951,0.36494 -0.3741,1.07488 -1.043,1.3011 -0.4759,0.16098 -0.7054,0.10247 -2.3542,-0.60028 -2.8623,-1.21991 -4.8616,-1.54729 -7.0036,-1.14678 -0.7826,0.14631 -1.7608,0.8573 -2.0939,1.52184 -0.4249,0.84763 -0.328,2.49075 0.2268,3.84661 0.4069,0.99424 0.9057,1.6716 2.9418,3.99555 3.2522,3.71171 3.8591,4.8268 3.8334,7.04185 -0.019,1.59091 -0.4624,2.61928 -1.7843,4.13505 -1.4412,1.65219 -3.4261,3.05787 -5.8826,4.16583 l -1.4945,0.67412 z"
         style="fill:#7c6655;fill-opacity:1;stroke-width:0.16870481" />
      <path
         inkscape:connector-curvature="0"
         id="path4136"
         d="m 334.34014,569.21305 c -11.54795,26.36472 -6.46578,56.85324 14.89263,75.36543 27.03854,23.43536 69.91175,18.79777 95.7642,-10.35908 16.81596,-18.96533 22.28243,-43.63021 16.61139,-65.00635 z"
         style="fill:#68b723;fill-opacity:1;stroke:none;stroke-width:0.72560298;stroke-miterlimit:4;stroke-dasharray:none;stroke-opacity:1" />
      <path
         style="opacity:0.1;stroke-width:2.93940425"
         inkscape:connector-curvature="0"
         d="m 463.67798,583.55971 c -0.41048,16.22203 -6.65724,32.84923 -18.77652,46.51757 -25.85244,29.15685 -68.72564,33.79466 -95.76419,10.35931 -12.67318,-10.98433 -19.63974,-26.18011 -20.77824,-42.23872 0.16014,17.55685 7.12353,34.46286 20.87162,46.37886 27.03854,23.43536 69.91378,18.79524 95.76418,-10.3593 13.1511,-14.83205 19.31591,-33.14991 18.68315,-50.65772 z"
         id="path4138" />
      <path
         inkscape:connector-curvature="0"
         id="path4388"
         transform="matrix(0.26458333,0,0,0.26458333,0,161.53332)"
         d="m 1521.5898,1540.8359 c -3.2297,0.8762 -6.4294,2.0183 -9.6718,3.4571 -7.1252,3.1617 -10.6044,5.5207 -27.5469,18.6718 -13.2593,10.2919 -14.8071,11.682 -14.0879,12.6582 0.4445,0.6032 11.1406,14.4422 23.7676,30.752 12.6274,16.3098 23.1994,29.5855 23.498,29.502 0.2967,-0.084 4.7861,-3.3903 9.9746,-7.3458 l 9.4356,-7.1914 -1.959,-4.6035 c -3.126,-7.3461 -2.5355,-14.1267 1.707,-19.6269 1.567,-2.0314 15.7163,-13.3897 20.6055,-16.541 3.1956,-2.0602 9.7372,-3.6471 13.8066,-3.3496 4.6704,0.3414 7.5496,1.5007 10.752,4.332 l 2.748,2.4297 7.4121,-5.7188 c 4.0763,-3.1454 7.4434,-5.9146 7.4434,-6.1523 0.017,-0.238 -2.818,-3.7866 -6.3027,-7.8867 -10.8097,-12.7206 -22.0995,-20.0408 -36.4219,-23.3868 z m 109.3067,0 c 1.8894,3.6314 2.4372,6.7023 2.1582,10.1973 -0.6577,8.2365 -11.3919,16.7965 -23.8496,19.0195 -2.3108,0.4123 -5.2948,0.9492 -6.6309,1.1914 -1.3364,0.2428 -2.4446,0.7803 -2.4824,1.1934 -0.03,0.4131 1.4573,2.5169 3.3066,4.6758 l 3.3614,3.9238 5.6484,-2.5469 c 9.2844,-4.1875 16.7873,-9.4996 22.2344,-15.7441 4.9961,-5.7289 6.6723,-9.616 6.7441,-15.6289 0.027,-2.313 -0.142,-4.3083 -0.6406,-6.2813 z m -167.5567,38.8418 c -0.7933,-0.057 -79.9178,61.5696 -84.4218,65.752 -27.0082,25.0841 -35.4096,68.5117 -18.3477,94.8476 5.012,7.7367 23.3723,30.6603 27.3809,34.1856 7.494,6.5903 18.2598,11.7528 29.3984,14.0996 5.9429,1.252 19.7319,1.7526 26.4609,0.9609 15.3525,-1.806 29.9826,-7.4374 41.752,-16.0722 4.0252,-2.9529 75.7086,-58.3612 78.7734,-60.8887 l 1.6036,-1.3223 -36.7481,-47.3125 c -20.2114,-26.0217 -43.1926,-55.615 -51.0703,-65.7636 -7.8773,-10.1487 -14.528,-18.4675 -14.7813,-18.4864 z m 143.2774,2.2325 c -0.798,0.074 -4.1184,2.2632 -8.127,5.373 l -7.4121,5.75 1.666,3.957 c 1.2972,3.0881 1.6509,5.0413 1.6055,8.8946 -0.09,7.6597 -1.6697,9.8884 -13.6973,19.3222 -5.4697,4.2906 -11.3389,8.3224 -13.4687,9.2539 -3.4779,1.5214 -4.2795,1.614 -10.2266,1.1836 -6.7808,-0.491 -8.6176,-1.2336 -12.0449,-4.873 -1.2045,-1.2793 -1.442,-1.3277 -2.5195,-0.5176 -8.12,6.1031 -18.1165,14.1103 -18.1543,14.5313 -0.022,0.2943 10.5951,14.2712 23.5898,31.0605 12.9948,16.7893 23.8022,30.5396 24.0176,30.5547 0.7257,0.052 29.4528,-22.5459 33.5566,-26.3965 11.5216,-10.8121 18.5528,-25.141 20.4278,-41.6328 1.7227,-15.1525 -1.1235,-29.4723 -8.3145,-41.832 -2.7088,-4.6564 -9.6663,-14.0974 -10.7715,-14.6153 -0.03,-0.014 -0.074,-0.019 -0.1269,-0.014 z m -33.5313,6.33 c -1.9946,-0.085 -3.9892,0.1736 -5.1953,0.8106 -3.4288,1.8102 -18.8464,14.1307 -20.5566,16.4277 -1.3451,1.8066 -1.6405,2.8728 -1.6934,6.1035 -0.072,4.5044 1.5974,7.7484 5.0156,9.75 2.5051,1.4672 6.7769,1.8599 9.5918,0.8809 2.5123,-0.8741 19.0405,-13.4897 21.2618,-16.2285 4.0766,-5.0279 2.5245,-12.9452 -3.2325,-16.4883 -1.203,-0.7402 -3.1967,-1.1703 -5.1914,-1.2559 z"
         style="fill:#5ea520;fill-opacity:1;stroke-width:0.63762444" />
      <path
         style="fill:#ffffff;fill-opacity:1;stroke-width:0.16870481"
         d="m 372.36139,632.1113 c -2.9471,-0.62092 -5.7953,-1.98707 -7.7781,-3.73076 -1.0606,-0.93273 -5.9189,-6.99805 -7.245,-9.04505 -4.5143,-6.96804 -2.2914,-18.45779 4.8545,-25.09462 1.1917,-1.10658 22.1267,-17.41213 22.3366,-17.397 0.067,0.005 1.8269,2.20572 3.9111,4.89089 2.0843,2.68517 8.1647,10.51525 13.5123,17.40018 l 9.7228,12.51805 -0.4243,0.3499 c -0.8109,0.66873 -19.777,15.32892 -20.842,16.1102 -3.114,2.28463 -6.9849,3.77472 -11.0469,4.25256 -1.7804,0.20946 -5.4286,0.0769 -7.001,-0.25435 z m 34.5222,-29.82284 c -3.4382,-4.44218 -6.2468,-8.14043 -6.2411,-8.21832 0.01,-0.11138 2.655,-2.2301 4.8034,-3.84489 0.2851,-0.21435 0.3479,-0.20144 0.6666,0.13704 0.9068,0.96294 1.3924,1.15945 3.1865,1.28937 1.5735,0.11387 1.786,0.0894 2.7062,-0.31314 0.5635,-0.24648 2.1163,-1.31344 3.5635,-2.44864 3.1823,-2.49603 3.6003,-3.08555 3.6242,-5.11218 0.012,-1.01951 -0.082,-1.53617 -0.4252,-2.35322 l -0.4406,-1.04689 1.9613,-1.5218 c 1.1313,-0.87765 2.0554,-1.47773 2.1834,-1.41769 0.2924,0.13703 2.1335,2.63492 2.8502,3.86691 1.9026,3.27017 2.6555,7.05904 2.1997,11.06814 -0.4961,4.36346 -2.3562,8.15469 -5.4046,11.01538 -1.0858,1.01881 -8.6868,6.99789 -8.8788,6.98405 -0.057,-0.004 -2.9165,-3.64196 -6.3547,-8.08414 z m -14.2286,-18.38111 c -3.3409,-4.31529 -6.1706,-7.97658 -6.2882,-8.13616 -0.1903,-0.25829 0.2194,-0.62647 3.7276,-3.34952 4.4827,-3.47957 5.4032,-4.10337 7.2884,-4.93992 2.9832,-1.32378 5.8256,-1.73035 9.3655,-1.3396 5.0298,0.5552 8.6723,2.54044 12.1326,6.61246 0.922,1.08484 1.6723,2.02394 1.6677,2.0869 0,0.0629 -0.891,0.79537 -1.9695,1.62759 l -1.9609,1.51312 -0.7272,-0.64278 c -0.8473,-0.74911 -1.6091,-1.05609 -2.8448,-1.14642 -1.0767,-0.0787 -2.8072,0.34115 -3.6527,0.88624 -1.2936,0.83378 -5.0374,3.83938 -5.452,4.37684 -1.1225,1.45528 -1.2787,3.24928 -0.4516,5.19293 l 0.518,1.21793 -2.4963,1.90281 c -1.3728,1.04654 -2.5605,1.921 -2.639,1.94322 -0.079,0.0221 -2.8762,-3.49031 -6.2172,-7.80561 z m 14.9769,3.95756 c -0.9044,-0.52961 -1.3458,-1.38821 -1.3267,-2.57998 0.014,-0.8548 0.092,-1.13674 0.4479,-1.61473 0.4525,-0.60775 4.5315,-3.86755 5.4387,-4.34651 0.6382,-0.33705 2.1118,-0.27382 2.7484,0.11789 1.5232,0.93746 1.9339,3.03225 0.8553,4.36254 -0.5877,0.72464 -4.9611,4.06241 -5.6258,4.29368 -0.7448,0.25904 -1.875,0.15531 -2.5378,-0.23289 z m 13.9551,-11.69974 c -0.4893,-0.5712 -0.8831,-1.12793 -0.8751,-1.23722 0.01,-0.10929 0.3034,-0.25127 0.657,-0.31549 0.3535,-0.0641 1.1428,-0.20604 1.7542,-0.31512 3.2961,-0.58817 6.1365,-2.85335 6.3105,-5.0326 0.151,-1.89174 -0.6048,-3.30839 -3.4692,-6.50276 -1.1953,-1.33305 -2.4129,-2.84799 -2.7058,-3.36657 -0.9962,-1.76412 -1.26,-3.8026 -0.6963,-5.38193 0.5802,-1.62538 2.6697,-3.31731 4.7829,-3.87305 1.6131,-0.42417 4.4413,-0.22863 6.3687,0.44029 1.688,0.58589 3.2365,1.35094 3.4166,1.68805 0.1951,0.36494 -0.3741,1.07488 -1.043,1.3011 -0.4759,0.16098 -0.7054,0.10247 -2.3542,-0.60028 -2.8623,-1.21991 -4.8616,-1.54729 -7.0036,-1.14678 -0.7826,0.14631 -1.7608,0.8573 -2.0939,1.52184 -0.4249,0.84763 -0.328,2.49075 0.2268,3.84661 0.4069,0.99424 0.9057,1.6716 2.9418,3.99555 3.2522,3.71171 3.8591,4.8268 3.8334,7.04185 -0.019,1.59091 -0.4624,2.61928 -1.7843,4.13505 -1.4412,1.65219 -3.4261,3.05787 -5.8826,4.16583 l -1.4945,0.67412 z"
         id="path4380"
         inkscape:connector-curvature="0" />
    </g>
  </g>
</svg>
