<?xml version="1.0" encoding="UTF-8" standalone="no"?>
<!-- Created with Inkscape (http://www.inkscape.org/) -->

<svg
   xmlns:dc="http://purl.org/dc/elements/1.1/"
   xmlns:cc="http://creativecommons.org/ns#"
   xmlns:rdf="http://www.w3.org/1999/02/22-rdf-syntax-ns#"
   xmlns:svg="http://www.w3.org/2000/svg"
   xmlns="http://www.w3.org/2000/svg"
   xmlns:sodipodi="http://sodipodi.sourceforge.net/DTD/sodipodi-0.dtd"
   xmlns:inkscape="http://www.inkscape.org/namespaces/inkscape"
   width="22"
   height="22"
   viewBox="0 0 22 22"
   id="svg2"
   version="1.1"
   inkscape:version="0.92.2 5c3e80d, 2017-08-06"
   sodipodi:docname="gpm-mouse-080.svg">
  <defs
     id="defs4" />
  <sodipodi:namedview
     id="base"
     pagecolor="#ffffff"
     bordercolor="#666666"
     borderopacity="1.0"
     inkscape:pageopacity="0.0"
     inkscape:pageshadow="2"
     inkscape:zoom="15.839192"
     inkscape:cx="2.3485145"
     inkscape:cy="8.9732564"
     inkscape:document-units="px"
     inkscape:current-layer="layer1"
     showgrid="false"
     units="px"
     inkscape:window-width="1366"
     inkscape:window-height="717"
     inkscape:window-x="0"
     inkscape:window-y="24"
     inkscape:window-maximized="1" />
  <metadata
     id="metadata7">
    <rdf:RDF>
      <cc:Work
         rdf:about="">
        <dc:format>image/svg+xml</dc:format>
        <dc:type
           rdf:resource="http://purl.org/dc/dcmitype/StillImage" />
        <dc:title />
      </cc:Work>
    </rdf:RDF>
  </metadata>
  <g
     inkscape:label="Layer 1"
     inkscape:groupmode="layer"
     id="layer1"
     transform="translate(0,-1030.3622)">
    <g
       transform="matrix(0.16240153,0,0,0.16240153,-26.018299,946.2737)"
       id="g1631">
      <path
         id="path4150"
         d="m 274.75138,532.72368 c 27.03854,23.43536 28,66.06639 2.14756,95.22323 -25.85244,29.15684 -68.72564,33.79466 -95.76418,10.3593 -27.03855,-23.43536 -28,-66.06639 -2.14757,-95.22323 25.85243,-29.15684 68.72563,-33.79466 95.76419,-10.3593 z"
         inkscape:connector-curvature="0"
         style="fill:#8a715e;fill-opacity:1;stroke-width:2.93940401" />
      <path
         inkscape:connector-curvature="0"
         id="path4152"
         d="m 181.51745,540.36365 c -0.85994,0.88162 -1.70385,1.78737 -2.53008,2.7192 -25.85243,29.15685 -24.89141,71.78779 2.14715,95.22312 27.03853,23.43536 69.91175,18.7978 95.76419,-10.35904 23.24698,-26.21839 24.80797,-63.32895 5.22759,-87.58328 z"
         style="fill:#68b723;fill-opacity:1;stroke:none;stroke-width:0.81124896;stroke-miterlimit:4;stroke-dasharray:none;stroke-opacity:1" />
      <path
         id="path4154"
         d="m 295.57996,577.28734 c -0.41046,16.22203 -6.65724,32.84923 -18.77652,46.51757 -25.85244,29.15685 -68.72564,33.79466 -95.76419,10.35931 -12.67318,-10.98434 -19.63973,-26.18011 -20.77824,-42.23873 0.16014,17.55686 7.12353,34.46287 20.87162,46.37887 27.03854,23.43536 69.91378,18.79524 95.76418,-10.3593 13.1511,-14.83205 19.31591,-33.14991 18.68315,-50.65772 z"
         inkscape:connector-curvature="0"
         style="opacity:1;fill:#000000;fill-opacity:0.49019608;stroke-width:2.93940401" />
      <path
         inkscape:connector-curvature="0"
         id="path4405"
         d="m 209.55492,631.13005 c -2.9471,-0.62092 -5.7953,-1.98707 -7.7781,-3.73076 -1.0606,-0.93273 -5.9189,-6.99805 -7.245,-9.04505 -4.5143,-6.96804 -2.2914,-18.45779 4.8545,-25.09462 1.1917,-1.10658 22.1267,-17.41213 22.3366,-17.397 0.067,0.005 1.8269,2.20572 3.9111,4.89089 2.0843,2.68517 8.1647,10.51525 13.5123,17.40018 l 9.7228,12.51805 -0.4243,0.3499 c -0.8109,0.66873 -19.777,15.32892 -20.842,16.1102 -3.114,2.28463 -6.9849,3.77472 -11.0469,4.25256 -1.7804,0.20946 -5.4286,0.0769 -7.001,-0.25435 z m 34.5222,-29.82284 c -3.4382,-4.44218 -6.2468,-8.14043 -6.2411,-8.21832 0.01,-0.11138 2.655,-2.2301 4.8034,-3.84489 0.2851,-0.21435 0.3479,-0.20144 0.6666,0.13704 0.9068,0.96294 1.3924,1.15945 3.1865,1.28937 1.5735,0.11387 1.786,0.0894 2.7062,-0.31314 0.5635,-0.24648 2.1163,-1.31344 3.5635,-2.44864 3.1823,-2.49603 3.6003,-3.08555 3.6242,-5.11218 0.012,-1.01951 -0.082,-1.53617 -0.4252,-2.35322 l -0.4406,-1.04689 1.9613,-1.5218 c 1.1313,-0.87765 2.0554,-1.47773 2.1834,-1.41769 0.2924,0.13703 2.1335,2.63492 2.8502,3.86691 1.9026,3.27017 2.6555,7.05904 2.1997,11.06814 -0.4961,4.36346 -2.3562,8.15469 -5.4046,11.01538 -1.0858,1.01881 -8.6868,6.99789 -8.8788,6.98405 -0.057,-0.004 -2.9165,-3.64196 -6.3547,-8.08414 z m -14.2286,-18.38111 c -3.3409,-4.31529 -6.1706,-7.97658 -6.2882,-8.13616 -0.1903,-0.25829 0.2194,-0.62647 3.7276,-3.34952 4.4827,-3.47957 5.4032,-4.10337 7.2884,-4.93992 2.9832,-1.32378 5.8256,-1.73035 9.3655,-1.3396 5.0298,0.5552 8.6723,2.54044 12.1326,6.61246 0.922,1.08484 1.6723,2.02394 1.6677,2.0869 0,0.0629 -0.891,0.79537 -1.9695,1.62759 l -1.9609,1.51312 -0.7272,-0.64278 c -0.8473,-0.74911 -1.6091,-1.05609 -2.8448,-1.14642 -1.0767,-0.0787 -2.8072,0.34115 -3.6527,0.88624 -1.2936,0.83378 -5.0374,3.83938 -5.452,4.37684 -1.1225,1.45528 -1.2787,3.24928 -0.4516,5.19293 l 0.518,1.21793 -2.4963,1.90281 c -1.3728,1.04654 -2.5605,1.921 -2.639,1.94322 -0.079,0.0221 -2.8762,-3.49031 -6.2172,-7.80561 z m 14.9769,3.95756 c -0.9044,-0.52961 -1.3458,-1.38821 -1.3267,-2.57998 0.014,-0.8548 0.092,-1.13674 0.4479,-1.61473 0.4525,-0.60775 4.5315,-3.86755 5.4387,-4.34651 0.6382,-0.33705 2.1118,-0.27382 2.7484,0.11789 1.5232,0.93746 1.9339,3.03225 0.8553,4.36254 -0.5877,0.72464 -4.9611,4.06241 -5.6258,4.29368 -0.7448,0.25904 -1.875,0.15531 -2.5378,-0.23289 z m 13.9551,-11.69974 c -0.4893,-0.5712 -0.8831,-1.12793 -0.8751,-1.23722 0.01,-0.10929 0.3034,-0.25127 0.657,-0.31549 0.3535,-0.0641 1.1428,-0.20604 1.7542,-0.31512 3.2961,-0.58817 6.1365,-2.85335 6.3105,-5.0326 0.151,-1.89174 -0.6048,-3.30839 -3.4692,-6.50276 -1.1953,-1.33305 -2.4129,-2.84799 -2.7058,-3.36657 -0.9962,-1.76412 -1.26,-3.8026 -0.6963,-5.38193 0.5802,-1.62538 2.6697,-3.31731 4.7829,-3.87305 1.6131,-0.42417 4.4413,-0.22863 6.3687,0.44029 1.688,0.58589 3.2365,1.35094 3.4166,1.68805 0.1951,0.36494 -0.3741,1.07488 -1.043,1.3011 -0.4759,0.16098 -0.7054,0.10247 -2.3542,-0.60028 -2.8623,-1.21991 -4.8616,-1.54729 -7.0036,-1.14678 -0.7826,0.14631 -1.7608,0.8573 -2.0939,1.52184 -0.4249,0.84763 -0.328,2.49075 0.2268,3.84661 0.4069,0.99424 0.9057,1.6716 2.9418,3.99555 3.2522,3.71171 3.8591,4.8268 3.8334,7.04185 -0.019,1.59091 -0.4624,2.61928 -1.7843,4.13505 -1.4412,1.65219 -3.4261,3.05787 -5.8826,4.16583 l -1.4945,0.67412 z"
         style="fill:#000000;fill-opacity:0.49019608;stroke-width:0.16870481" />
      <path
         style="fill:#ffffff;fill-opacity:1;stroke-width:0.16870481"
         d="m 204.26339,625.8383 c -2.9471,-0.62092 -5.7953,-1.98707 -7.7781,-3.73076 -1.0606,-0.93273 -5.9189,-6.99805 -7.245,-9.04505 -4.5143,-6.96804 -2.2914,-18.45779 4.8545,-25.09462 1.1917,-1.10658 22.1267,-17.41213 22.3366,-17.397 0.067,0.005 1.8269,2.20572 3.9111,4.89089 2.0843,2.68517 8.1647,10.51525 13.5123,17.40018 l 9.7228,12.51805 -0.4243,0.3499 c -0.8109,0.66873 -19.777,15.32892 -20.842,16.1102 -3.114,2.28463 -6.9849,3.77472 -11.0469,4.25256 -1.7804,0.20946 -5.4286,0.0769 -7.001,-0.25435 z m 34.5222,-29.82284 c -3.4382,-4.44218 -6.2468,-8.14043 -6.2411,-8.21832 0.01,-0.11138 2.655,-2.2301 4.8034,-3.84489 0.2851,-0.21435 0.3479,-0.20144 0.6666,0.13704 0.9068,0.96294 1.3924,1.15945 3.1865,1.28937 1.5735,0.11387 1.786,0.0894 2.7062,-0.31314 0.5635,-0.24648 2.1163,-1.31344 3.5635,-2.44864 3.1823,-2.49603 3.6003,-3.08555 3.6242,-5.11218 0.012,-1.01951 -0.082,-1.53617 -0.4252,-2.35322 l -0.4406,-1.04689 1.9613,-1.5218 c 1.1313,-0.87765 2.0554,-1.47773 2.1834,-1.41769 0.2924,0.13703 2.1335,2.63492 2.8502,3.86691 1.9026,3.27017 2.6555,7.05904 2.1997,11.06814 -0.4961,4.36346 -2.3562,8.15469 -5.4046,11.01538 -1.0858,1.01881 -8.6868,6.99789 -8.8788,6.98405 -0.057,-0.004 -2.9165,-3.64196 -6.3547,-8.08414 z m -14.2286,-18.38111 c -3.3409,-4.31529 -6.1706,-7.97658 -6.2882,-8.13616 -0.1903,-0.25829 0.2194,-0.62647 3.7276,-3.34952 4.4827,-3.47957 5.4032,-4.10337 7.2884,-4.93992 2.9832,-1.32378 5.8256,-1.73035 9.3655,-1.3396 5.0298,0.5552 8.6723,2.54044 12.1326,6.61246 0.922,1.08484 1.6723,2.02394 1.6677,2.0869 0,0.0629 -0.891,0.79537 -1.9695,1.62759 l -1.9609,1.51312 -0.7272,-0.64278 c -0.8473,-0.74911 -1.6091,-1.05609 -2.8448,-1.14642 -1.0767,-0.0787 -2.8072,0.34115 -3.6527,0.88624 -1.2936,0.83378 -5.0374,3.83938 -5.452,4.37684 -1.1225,1.45528 -1.2787,3.24928 -0.4516,5.19293 l 0.518,1.21793 -2.4963,1.90281 c -1.3728,1.04654 -2.5605,1.921 -2.639,1.94322 -0.079,0.0221 -2.8762,-3.49031 -6.2172,-7.80561 z m 14.9769,3.95756 c -0.9044,-0.52961 -1.3458,-1.38821 -1.3267,-2.57998 0.014,-0.8548 0.092,-1.13674 0.4479,-1.61473 0.4525,-0.60775 4.5315,-3.86755 5.4387,-4.34651 0.6382,-0.33705 2.1118,-0.27382 2.7484,0.11789 1.5232,0.93746 1.9339,3.03225 0.8553,4.36254 -0.5877,0.72464 -4.9611,4.06241 -5.6258,4.29368 -0.7448,0.25904 -1.875,0.15531 -2.5378,-0.23289 z m 13.9551,-11.69974 c -0.4893,-0.5712 -0.8831,-1.12793 -0.8751,-1.23722 0.01,-0.10929 0.3034,-0.25127 0.657,-0.31549 0.3535,-0.0641 1.1428,-0.20604 1.7542,-0.31512 3.2961,-0.58817 6.1365,-2.85335 6.3105,-5.0326 0.151,-1.89174 -0.6048,-3.30839 -3.4692,-6.50276 -1.1953,-1.33305 -2.4129,-2.84799 -2.7058,-3.36657 -0.9962,-1.76412 -1.26,-3.8026 -0.6963,-5.38193 0.5802,-1.62538 2.6697,-3.31731 4.7829,-3.87305 1.6131,-0.42417 4.4413,-0.22863 6.3687,0.44029 1.688,0.58589 3.2365,1.35094 3.4166,1.68805 0.1951,0.36494 -0.3741,1.07488 -1.043,1.3011 -0.4759,0.16098 -0.7054,0.10247 -2.3542,-0.60028 -2.8623,-1.21991 -4.8616,-1.54729 -7.0036,-1.14678 -0.7826,0.14631 -1.7608,0.8573 -2.0939,1.52184 -0.4249,0.84763 -0.328,2.49075 0.2268,3.84661 0.4069,0.99424 0.9057,1.6716 2.9418,3.99555 3.2522,3.71171 3.8591,4.8268 3.8334,7.04185 -0.019,1.59091 -0.4624,2.61928 -1.7843,4.13505 -1.4412,1.65219 -3.4261,3.05787 -5.8826,4.16583 l -1.4945,0.67412 z"
         id="path4407"
         inkscape:connector-curvature="0" />
    </g>
  </g>
</svg>
