<?xml version="1.0" encoding="UTF-8" standalone="no"?>
<!-- Created with Inkscape (http://www.inkscape.org/) -->

<svg
   xmlns:dc="http://purl.org/dc/elements/1.1/"
   xmlns:cc="http://creativecommons.org/ns#"
   xmlns:rdf="http://www.w3.org/1999/02/22-rdf-syntax-ns#"
   xmlns:svg="http://www.w3.org/2000/svg"
   xmlns="http://www.w3.org/2000/svg"
   xmlns:sodipodi="http://sodipodi.sourceforge.net/DTD/sodipodi-0.dtd"
   xmlns:inkscape="http://www.inkscape.org/namespaces/inkscape"
   width="22"
   height="22"
   viewBox="0 0 22 22"
   id="svg2"
   version="1.1"
   inkscape:version="0.92.2 5c3e80d, 2017-08-06"
   sodipodi:docname="gsd-xrandr.svg">
  <defs
     id="defs4" />
  <sodipodi:namedview
     id="base"
     pagecolor="#ffffff"
     bordercolor="#666666"
     borderopacity="1.0"
     inkscape:pageopacity="0.0"
     inkscape:pageshadow="2"
     inkscape:zoom="15.839192"
     inkscape:cx="13.787264"
     inkscape:cy="9.8048436"
     inkscape:document-units="px"
     inkscape:current-layer="layer1"
     showgrid="false"
     units="px"
     inkscape:window-width="1366"
     inkscape:window-height="717"
     inkscape:window-x="0"
     inkscape:window-y="24"
     inkscape:window-maximized="1" />
  <metadata
     id="metadata7">
    <rdf:RDF>
      <cc:Work
         rdf:about="">
        <dc:format>image/svg+xml</dc:format>
        <dc:type
           rdf:resource="http://purl.org/dc/dcmitype/StillImage" />
        <dc:title />
      </cc:Work>
    </rdf:RDF>
  </metadata>
  <g
     inkscape:label="Layer 1"
     inkscape:groupmode="layer"
     id="layer1"
     transform="translate(0,-1030.3622)">
    <g
       id="g853"
       transform="matrix(0.04296875,0,0,0.04296875,0,1007.1435)">
      <path
         style="fill:#3689e6;fill-opacity:1;stroke-width:11.10955811"
         inkscape:connector-curvature="0"
         d="m 432.91328,596.83622 c 102.1929,88.57368 105.82677,249.70007 8.11679,359.89876 C 343.3201,1066.9337 181.27964,1084.4627 79.086728,995.88902 -23.106186,907.31302 -26.740042,746.18895 70.969929,635.98793 168.6799,525.78924 330.72037,508.26023 432.91328,596.83622 Z"
         id="path27" />
      <path
         style="opacity:1;fill:#000000;fill-opacity:0.49019608;stroke-width:11.10955811"
         inkscape:connector-curvature="0"
         d="m 511.63552,765.2656 c -1.55136,61.312 -25.16124,124.15535 -70.96639,175.81382 C 342.95914,1051.2781 180.91869,1068.8071 78.725777,980.23345 30.827124,938.71724 4.4968217,881.2848 0.1938276,820.58953 0.79907931,886.94705 27.117412,950.84465 79.078682,995.88203 181.27159,1084.4557 343.31975,1066.9174 441.02204,956.728 c 49.70493,-56.05935 73.005,-125.29105 70.61348,-191.4624 z"
         id="path51" />
      <path
         style="fill:#000000;fill-opacity:0.49019608;stroke-width:0.63803697"
         d="m 190.31531,951.09362 c -2.43813,-1.90836 -3.29326,-5.07811 -2.12804,-7.86851 1.51906,-3.6352 3.48625,-4.24261 13.71675,-4.24261 h 8.91319 l 4.07901,-3.4816 c 6.57615,-5.61571 12.63378,-13.01411 17.40569,-21.26197 3.17119,-5.48072 7.95621,-18.304 7.96311,-21.34109 l 0.005,-1.74545 -50.27907,-0.23273 -50.2791,-0.23273 -4.80936,-2.37614 c -5.88,-2.90677 -10.04638,-7.15171 -12.87027,-13.11418 L 120,870.90744 v -85.21076 -85.21076 l 2.37721,-4.81048 c 2.90634,-5.88101 7.15059,-10.04683 13.1122,-12.86981 l 4.28963,-2.02473 h 136.22088 136.22086 l 4.28972,2.02473 c 5.96161,2.82298 10.20586,6.9888 13.1122,12.86981 l 2.37722,4.81048 v 85.21076 85.21076 l -2.03218,4.28917 c -2.82388,5.96247 -6.99028,10.20741 -12.87028,13.11418 l -4.80933,2.37614 -50.27912,0.23273 -50.27908,0.23273 v 1.536 c 0,2.21091 2.96332,11.35476 5.39167,16.64232 4.09674,8.92044 11.51695,18.74619 19.24805,25.4883 l 4.75076,4.14487 h 8.9438 c 10.26374,0 12.22731,0.60509 13.74741,4.24262 1.16527,2.7904 0.30999,5.95083 -2.12806,7.86851 -1.62048,1.28 -2.38371,1.28 -85.68371,1.28 -83.30002,0 -84.06336,-0.0116 -85.68372,-1.28 z M 317.47932,935.10293 C 307.73068,923.38744 301.39675,910.61071 298.3749,896.5633 l -1.10056,-5.11535 h -21.27537 -21.27535 l -1.10662,5.14327 c -2.99856,13.94037 -8.87565,25.87928 -18.5887,37.76466 l -3.78028,4.62662 h 44.73005 44.73002 z m 94.94128,-59.45251 c 1.46269,-0.97745 3.45158,-2.95563 4.4196,-4.41716 1.68146,-2.53905 1.7699,-3.06502 1.97935,-11.79927 l 0.21876,-9.1392 H 276.05885 133.07878 l 0.002,7.81498 c 0.002,4.3008 0.3106,8.92276 0.68587,10.27491 0.8408,3.02778 5.44613,7.78007 8.35531,8.62254 1.33367,0.39564 51.39796,0.58182 134.87923,0.512 h 132.75834 l 2.65954,-1.76872 z M 271.984,869.42497 c -2.43812,-1.90836 -3.29323,-5.07811 -2.12806,-7.86851 0.96931,-2.32727 3.75473,-4.24262 6.14305,-4.24262 2.38834,0 5.17376,1.93164 6.14307,4.24262 1.8304,4.38226 -1.37286,9.15549 -6.14307,9.15549 -1.4201,0 -3.03946,-0.512 -4.01501,-1.28 z m 146.78724,-99.40945 -0.1699,-66.88117 -1.76011,-2.66007 c -0.96791,-1.46618 -2.95687,-3.45134 -4.41966,-4.41949 l -2.65963,-1.76873 H 275.99901 142.23711 l -2.65962,1.76873 c -1.46278,0.97745 -3.45162,2.95564 -4.41965,4.41949 l -1.76005,2.66007 -0.17105,66.88117 -0.17106,66.88116 h 142.94317 142.94318 z"
         id="path871"
         inkscape:connector-curvature="0" />
      <path
         style="fill:#000000;fill-opacity:0.49019608;stroke:none;stroke-width:23.27272606px;stroke-linecap:butt;stroke-linejoin:miter;stroke-opacity:1"
         d="M 138.83056,833.96664 412.67385,699.39908 H 138.83056 Z"
         id="path873"
         inkscape:connector-curvature="0"
         sodipodi:nodetypes="cccc" />
      <g
         id="g861"
         transform="matrix(23.272727,0,0,23.272727,-2.3717773e-5,-23442.957)">
        <path
           style="fill:#ffffff;stroke-width:0.02741565"
           d="m 7.3182352,1047.3225 c -0.1047632,-0.082 -0.1415073,-0.2182 -0.091439,-0.3381 0.065272,-0.1562 0.1497997,-0.1823 0.5893917,-0.1823 h 0.3829884 l 0.1752701,-0.1496 c 0.2825688,-0.2413 0.5428578,-0.5592 0.7479005,-0.9136 0.1362621,-0.2355 0.3418687,-0.7865 0.342165,-0.917 l 2.112e-4,-0.075 -2.1604291,-0.01 -2.16043,-0.01 -0.2066521,-0.1021 c -0.2526562,-0.1249 -0.4316806,-0.3073 -0.5530196,-0.5635 l -0.087318,-0.1843 v -3.6614 -3.6614 l 0.1021458,-0.2067 c 0.1248817,-0.2527 0.3072517,-0.4317 0.5634146,-0.553 l 0.1843204,-0.087 h 5.8532409 5.85324 l 0.184324,0.087 c 0.256163,0.1213 0.438533,0.3003 0.563415,0.553 l 0.102146,0.2067 v 3.6614 3.6614 l -0.08732,0.1843 c -0.121339,0.2562 -0.300364,0.4386 -0.55302,0.5635 l -0.206651,0.1021 -2.160431,0.01 -2.160429,0.01 v 0.066 c 0,0.095 0.12733,0.4879 0.231673,0.7151 0.176032,0.3833 0.494869,0.8055 0.827065,1.0952 l 0.204134,0.1781 h 0.384304 c 0.44102,0 0.525392,0.026 0.590709,0.1823 0.05007,0.1199 0.01332,0.2557 -0.09144,0.3381 -0.06963,0.055 -0.102425,0.055 -3.681722,0.055 -3.579298,0 -3.6120975,-5e-4 -3.6817226,-0.055 z m 5.4640788,-0.6871 c -0.418887,-0.5034 -0.691048,-1.0524 -0.820893,-1.656 l -0.04729,-0.2198 H 10.999955 10.08578 l -0.04755,0.221 c -0.1288447,0.599 -0.3813757,1.112 -0.7987332,1.6227 l -0.1624339,0.1988 h 1.9219941 1.921993 z m 4.079508,-2.5546 c 0.06285,-0.042 0.14831,-0.127 0.189905,-0.1898 0.07225,-0.1091 0.07605,-0.1317 0.08505,-0.507 l 0.0094,-0.3927 H 11.002528 4.8588531 l 1.036e-4,0.3358 c 8.51e-5,0.1848 0.013346,0.3834 0.029471,0.4415 0.036128,0.1301 0.2340133,0.3343 0.3590173,0.3705 0.057306,0.017 2.2085059,0.025 5.795592,0.022 h 5.70446 l 0.114277,-0.076 z m -6.034385,-0.2675 c -0.104763,-0.082 -0.141506,-0.2182 -0.09144,-0.3381 0.04165,-0.1 0.161336,-0.1823 0.263959,-0.1823 0.102624,0 0.22231,0.083 0.26396,0.1823 0.07865,0.1883 -0.05899,0.3934 -0.26396,0.3934 -0.06102,0 -0.130602,-0.022 -0.17252,-0.055 z m 6.307264,-4.2715 -0.0073,-2.8738 -0.07563,-0.1143 c -0.04159,-0.063 -0.127053,-0.1483 -0.189907,-0.1899 l -0.114281,-0.076 H 10.999957 5.2523753 l -0.1142805,0.076 c -0.062854,0.042 -0.1483118,0.127 -0.1899072,0.1899 l -0.075627,0.1143 -0.00735,2.8738 -0.00735,2.8738 h 6.1420894 6.14209 z"
           id="path857"
           inkscape:connector-curvature="0" />
        <path
           style="fill:#ffffff;stroke:none;stroke-width:1px;stroke-linecap:butt;stroke-linejoin:miter;stroke-opacity:1"
           d="m 5.106,1042.2897 11.766704,-5.7822 H 5.106 Z"
           id="path851"
           inkscape:connector-curvature="0"
           sodipodi:nodetypes="cccc" />
        <path
           inkscape:connector-curvature="0"
           id="path853"
           d="m 7.3182352,1047.3225 c -0.1047632,-0.082 -0.1415073,-0.2182 -0.091439,-0.3381 0.065272,-0.1562 0.1497997,-0.1823 0.5893917,-0.1823 h 0.3829884 l 0.1752701,-0.1496 c 0.2825688,-0.2413 0.5428578,-0.5592 0.7479005,-0.9136 0.1362621,-0.2355 0.3418687,-0.7865 0.342165,-0.917 l 2.112e-4,-0.075 -2.1604291,-0.01 -2.16043,-0.01 -0.2066521,-0.1021 c -0.2526562,-0.1249 -0.4316806,-0.3073 -0.5530196,-0.5635 l -0.087318,-0.1843 v -3.6614 -3.6614 l 0.1021458,-0.2067 c 0.1248817,-0.2527 0.3072517,-0.4317 0.5634146,-0.553 l 0.1843204,-0.087 h 5.8532409 5.85324 l 0.184324,0.087 c 0.256163,0.1213 0.438533,0.3003 0.563415,0.553 l 0.102146,0.2067 v 3.6614 3.6614 l -0.08732,0.1843 c -0.121339,0.2562 -0.300364,0.4386 -0.55302,0.5635 l -0.206651,0.1021 -2.160431,0.01 -2.160429,0.01 v 0.066 c 0,0.095 0.12733,0.4879 0.231673,0.7151 0.176032,0.3833 0.494869,0.8055 0.827065,1.0952 l 0.204134,0.1781 h 0.384304 c 0.44102,0 0.525392,0.026 0.590709,0.1823 0.05007,0.1199 0.01332,0.2557 -0.09144,0.3381 -0.06963,0.055 -0.102425,0.055 -3.681722,0.055 -3.579298,0 -3.6120975,-5e-4 -3.6817226,-0.055 z m 5.4640788,-0.6871 c -0.418887,-0.5034 -0.691048,-1.0524 -0.820893,-1.656 l -0.04729,-0.2198 H 10.999955 10.08578 l -0.04755,0.221 c -0.1288447,0.599 -0.3813757,1.112 -0.7987332,1.6227 l -0.1624339,0.1988 h 1.9219941 1.921993 z m 4.079508,-2.5546 c 0.06285,-0.042 0.14831,-0.127 0.189905,-0.1898 0.07225,-0.1091 0.07605,-0.1317 0.08505,-0.507 l 0.0094,-0.3927 H 11.002528 4.8588531 l 1.036e-4,0.3358 c 8.51e-5,0.1848 0.013346,0.3834 0.029471,0.4415 0.036128,0.1301 0.2340133,0.3343 0.3590173,0.3705 0.057306,0.017 2.2085059,0.025 5.795592,0.022 h 5.70446 l 0.114277,-0.076 z m -6.034385,-0.2675 c -0.104763,-0.082 -0.141506,-0.2182 -0.09144,-0.3381 0.04165,-0.1 0.161336,-0.1823 0.263959,-0.1823 0.102624,0 0.22231,0.083 0.26396,0.1823 0.07865,0.1883 -0.05899,0.3934 -0.26396,0.3934 -0.06102,0 -0.130602,-0.022 -0.17252,-0.055 z m 6.307264,-4.2715 -0.0073,-2.8738 -0.07563,-0.1143 c -0.04159,-0.063 -0.127053,-0.1483 -0.189907,-0.1899 l -0.114281,-0.076 H 10.999957 5.2523753 l -0.1142805,0.076 c -0.062854,0.042 -0.1483118,0.127 -0.1899072,0.1899 l -0.075627,0.1143 -0.00735,2.8738 -0.00735,2.8738 h 6.1420894 6.14209 z"
           style="fill:#ffffff;stroke-width:0.02741565" />
        <path
           sodipodi:nodetypes="cccc"
           inkscape:connector-curvature="0"
           id="path855"
           d="m 5.106,1042.2897 11.766704,-5.7822 H 5.106 Z"
           style="fill:#ffffff;stroke:none;stroke-width:1px;stroke-linecap:butt;stroke-linejoin:miter;stroke-opacity:1" />
      </g>
    </g>
  </g>
</svg>
