<?xml version="1.0" encoding="UTF-8" standalone="no"?>
<svg
   xmlns:dc="http://purl.org/dc/elements/1.1/"
   xmlns:cc="http://creativecommons.org/ns#"
   xmlns:rdf="http://www.w3.org/1999/02/22-rdf-syntax-ns#"
   xmlns:svg="http://www.w3.org/2000/svg"
   xmlns="http://www.w3.org/2000/svg"
   xmlns:sodipodi="http://sodipodi.sourceforge.net/DTD/sodipodi-0.dtd"
   xmlns:inkscape="http://www.inkscape.org/namespaces/inkscape"
   viewBox="0 0 22 22"
   id="svg"
   version="1.1"
   inkscape:version="0.92.2 5c3e80d, 2017-08-06"
   width="100%"
   height="100%"
   sodipodi:docname="im-message-new.svg">
  <defs
     id="defs81">
    <style
       id="current-color-scheme"
       type="text/css">
      .ColorScheme-Text {
        color:#7B7C7E;
      }
      .ColorScheme-Background{
        color:#EFF0F1;
      }
      .ColorScheme-Highlight{
        color:#3DAEE6;
      }
      .ColorScheme-ViewText {
        color:#7B7C7E;
      }
      .ColorScheme-ViewBackground{
        color:#FCFCFC;
      }
      .ColorScheme-ViewHover {
        color:#3DAEE6;
      }
      .ColorScheme-ViewFocus{
        color:#1E92FF;
      }
      .ColorScheme-ButtonText {
        color:#7B7C7E;
      }
      .ColorScheme-ButtonBackground{
        color:#EFF0F1;
      }
      .ColorScheme-ButtonHover {
        color:#3DAEE6;
      }
      .ColorScheme-ButtonFocus{
        color:#1E92FF;
      }
</style>
  </defs>
  <metadata
     id="metadata34">
    <rdf:RDF>
      <cc:Work
         rdf:about="">
        <dc:format>image/svg+xml</dc:format>
        <dc:type
           rdf:resource="http://purl.org/dc/dcmitype/StillImage" />
        <dc:title />
      </cc:Work>
    </rdf:RDF>
  </metadata>
  <sodipodi:namedview
     pagecolor="#ffffff"
     bordercolor="#666666"
     borderopacity="1"
     objecttolerance="10"
     gridtolerance="10"
     guidetolerance="10"
     inkscape:pageopacity="0.03921569"
     inkscape:pageshadow="2"
     inkscape:window-width="1366"
     inkscape:window-height="717"
     id="namedview32"
     showgrid="true"
     inkscape:zoom="7.9999996"
     inkscape:cx="0.66495813"
     inkscape:cy="12.105266"
     inkscape:window-x="0"
     inkscape:window-y="24"
     inkscape:window-maximized="1"
     inkscape:current-layer="svg"
     borderlayer="true"
     showguides="true"
     inkscape:guide-bbox="true"
     inkscape:snap-bbox="true">
    <inkscape:grid
       type="xygrid"
       id="grid3046"
       empspacing="5"
       visible="true"
       enabled="false"
       snapvisiblegridlinesonly="true" />
  </sodipodi:namedview>
  <g
     id="g826"
     transform="matrix(0.04296875,0,0,0.04296875,3.9435569e-7,21.054687)">
    <path
       id="path829"
       d="m 432.91328,-433.52602 c 102.19289,88.57459 105.82677,249.69969 8.1168,359.898775 C 343.3201,36.571843 181.27963,54.100605 79.086724,-34.473976 -23.10618,-123.04858 -26.740044,-284.17368 70.969925,-394.37276 168.67989,-504.57184 330.72038,-522.10061 432.91328,-433.52602 Z"
       inkscape:connector-curvature="0"
       style="fill:#68b723;fill-opacity:1;stroke-width:11.10955715" />
    <path
       id="path831"
       d="m 511.63551,-265.09648 c -1.55138,61.31164 -25.16124,124.15459 -70.96639,175.814463 C 342.95916,20.917117 180.91868,38.445832 78.725781,-50.128702 30.827149,-91.644362 4.4968434,-149.07715 0.19385126,-209.77119 0.79910485,-143.41452 27.117428,-79.517828 79.078674,-34.480935 181.27162,54.0936 343.31977,36.55618 441.02203,-73.634227 490.72697,-129.69234 514.02704,-198.92519 511.63551,-265.09648 Z"
       inkscape:connector-curvature="0"
       style="opacity:1;fill:#000000;fill-opacity:0.49019608;stroke-width:11.10955715" />
    <path
       inkscape:connector-curvature="0"
       id="path833"
       d="m 413.81038,-59.269218 c -2.47724,-0.939055 -17.42245,-6.452015 -33.21158,-12.25088 -34.42141,-12.642025 -32.98499,-12.428893 -47.95955,-7.115171 -21.86389,7.758406 -33.06221,9.691369 -56.20336,9.701283 -17.48649,0.0076 -23.67208,-0.580189 -36.03264,-3.423116 -65.53754,-15.073792 -113.41803,-68.147218 -119.72474,-132.709838 -6.01905,-61.6168 28.44665,-121.24648 85.94411,-148.69356 82.62598,-39.44251 181.97567,-2.04386 215.03966,80.94833 17.26236,43.32935 12.77509,90.90739 -12.48224,132.34764 -8.28034,13.58569 -8.37101,10.17915 1.30025,48.833466 4.54684,18.173046 8.16963,33.273136 8.05062,33.555667 -0.11869,0.282764 -2.24326,-0.254836 -4.72041,-1.193891 z M 214.18852,-191.69141 c 4.67799,-2.26466 9.23618,-6.83501 11.5759,-11.60697 2.65103,-5.407 2.66978,-14.90446 0.04,-20.24878 -2.3435,-4.76235 -6.93203,-9.35094 -11.69443,-11.69445 -3.07351,-1.5125 -4.86236,-1.83739 -10.11466,-1.83739 -7.52243,0 -11.92917,1.75547 -16.91005,6.73634 -12.61195,12.61198 -7.33274,34.33235 9.70076,39.91219 4.5857,1.50226 12.94601,0.89647 17.40257,-1.26091 z m 72.0653,0 c 4.67801,-2.26466 9.23618,-6.83501 11.5759,-11.60697 2.65104,-5.407 2.66978,-14.90446 0.0396,-20.24878 -2.34354,-4.76235 -6.93209,-9.35094 -11.69443,-11.69445 -3.07352,-1.5125 -4.8624,-1.83739 -10.11466,-1.83739 -7.52249,0 -11.92918,1.75547 -16.91008,6.73634 -12.61193,12.61198 -7.33277,34.33235 9.70073,39.91219 4.58575,1.50226 12.94606,0.89647 17.40262,-1.26091 z m 72.0653,0 c 4.67799,-2.26466 9.23621,-6.83501 11.57588,-11.60697 2.65107,-5.407 2.66978,-14.90446 0.0396,-20.24878 -2.3435,-4.76235 -6.93207,-9.35094 -11.69446,-11.69445 -3.07349,-1.5125 -4.86232,-1.83739 -10.11463,-1.83739 -7.52246,0 -11.92915,1.75547 -16.91005,6.73634 -12.61194,12.61198 -7.33277,34.33235 9.70077,39.91219 4.58568,1.50226 12.94601,0.89647 17.40255,-1.26091 z"
       style="fill:#000000;fill-opacity:0.49019608;stroke-width:0.75068021" />
    <path
       style="fill:#ffffff;stroke-width:0.75068021"
       d="m 393.81039,-79.269182 c -2.47724,-0.939055 -17.42245,-6.452015 -33.21157,-12.250881 -34.42141,-12.642027 -32.985,-12.428897 -47.95956,-7.115171 -21.86393,7.758406 -33.06221,9.691369 -56.20338,9.701283 -17.48647,0.0076 -23.67208,-0.580189 -36.03262,-3.423115 -65.53757,-15.073774 -113.41803,-68.147224 -119.72477,-132.709844 -6.019016,-61.6168 28.44668,-121.24648 85.94414,-148.69356 82.62598,-39.4425 181.97567,-2.04385 215.03966,80.94834 17.26236,43.32934 12.7751,90.90738 -12.48224,132.34764 -8.28034,13.58568 -8.37101,10.17914 1.30002,48.83346 4.54684,18.173047 8.16963,33.273138 8.05062,33.555669 -0.1187,0.282763 -2.24326,-0.254837 -4.72041,-1.193891 z M 194.18853,-211.69137 c 4.678,-2.26458 9.23618,-6.83502 11.5759,-11.60697 2.65104,-5.407 2.66974,-14.90446 0.0401,-20.24879 -2.34349,-4.76234 -6.93207,-9.35094 -11.69442,-11.69445 -3.07351,-1.51238 -4.86236,-1.83736 -10.11466,-1.83736 -7.52247,0 -11.92917,1.75546 -16.91006,6.73634 -12.61194,12.61198 -7.33274,34.33234 9.70076,39.91219 4.5857,1.50225 12.94602,0.89646 17.40257,-1.26092 z m 72.0653,0 c 4.67801,-2.26467 9.2362,-6.83502 11.5759,-11.60697 2.65105,-5.407 2.66976,-14.90446 0.0396,-20.24879 -2.34354,-4.76234 -6.93209,-9.35094 -11.69448,-11.69445 -3.07346,-1.5125 -4.86235,-1.83738 -10.11465,-1.83738 -7.52242,0 -11.92914,1.75546 -16.91006,6.73633 -12.61194,12.61198 -7.33274,34.33235 9.70077,39.9122 4.58568,1.50225 12.94602,0.89646 17.40256,-1.26092 z m 72.06528,0 c 4.67801,-2.26467 9.23623,-6.83502 11.5759,-11.60697 2.65107,-5.407 2.66978,-14.90446 0.0396,-20.24879 -2.3435,-4.76234 -6.93211,-9.35094 -11.69445,-11.69445 -3.07349,-1.5125 -4.86238,-1.83738 -10.11463,-1.83738 -7.52247,0 -11.92916,1.75546 -16.91006,6.73633 -12.61193,12.61198 -7.33277,34.33235 9.70072,39.9122 4.58575,1.50225 12.94602,0.89646 17.40258,-1.26092 z"
       id="path835"
       inkscape:connector-curvature="0" />
  </g>
</svg>
