<?xml version="1.0" encoding="UTF-8" standalone="no"?>
<!-- Created with Inkscape (http://www.inkscape.org/) -->

<svg
   xmlns:dc="http://purl.org/dc/elements/1.1/"
   xmlns:cc="http://creativecommons.org/ns#"
   xmlns:rdf="http://www.w3.org/1999/02/22-rdf-syntax-ns#"
   xmlns:svg="http://www.w3.org/2000/svg"
   xmlns="http://www.w3.org/2000/svg"
   xmlns:xlink="http://www.w3.org/1999/xlink"
   xmlns:sodipodi="http://sodipodi.sourceforge.net/DTD/sodipodi-0.dtd"
   xmlns:inkscape="http://www.inkscape.org/namespaces/inkscape"
   width="22"
   height="22"
   id="svg2"
   version="1.1"
   inkscape:version="0.92.2 5c3e80d, 2017-08-06"
   sodipodi:docname="lastfm-panel.svg"
   inkscape:export-filename="/home/alecive/Scrivania/firefoxTest1.png"
   inkscape:export-xdpi="100"
   inkscape:export-ydpi="100">
  <sodipodi:namedview
     id="base"
     pagecolor="#ffffff"
     bordercolor="#666666"
     borderopacity="1.0"
     inkscape:pageopacity="0.0"
     inkscape:pageshadow="2"
     inkscape:zoom="16"
     inkscape:cx="14.770509"
     inkscape:cy="11.888562"
     inkscape:document-units="px"
     inkscape:current-layer="svg2"
     showgrid="false"
     inkscape:window-width="1366"
     inkscape:window-height="717"
     inkscape:window-x="0"
     inkscape:window-y="24"
     inkscape:window-maximized="1"
     inkscape:object-paths="false"
     inkscape:snap-intersection-paths="false"
     inkscape:object-nodes="true"
     inkscape:snap-smooth-nodes="true"
     inkscape:snap-nodes="true" />
  <defs
     id="defs4">
    <linearGradient
       x1="19.244999"
       y1="21.030804"
       x2="19.360001"
       gradientUnits="userSpaceOnUse"
       y2="44.984001"
       id="linearGradient2460">
      <stop
         offset="0"
         style="stop-color:#00bdf0;stop-opacity:1;"
         id="stop3602" />
      <stop
         offset="1"
         style="stop-color:#0093dc;stop-opacity:1;"
         id="stop3604" />
    </linearGradient>
    <linearGradient
       inkscape:collect="always"
       xlink:href="#ButtonShadow-0-1-1-5-9"
       id="linearGradient4114-2-6"
       gradientUnits="userSpaceOnUse"
       gradientTransform="matrix(1.0317796,0,0,1.0317796,-830.86406,592.67791)"
       x1="1012.5133"
       y1="484.41721"
       x2="1006.8082"
       y2="20.625916" />
    <linearGradient
       x1="45.447727"
       y1="92.539597"
       x2="45.447727"
       y2="7.0165396"
       id="ButtonShadow-0-1-1-5-9"
       gradientUnits="userSpaceOnUse"
       gradientTransform="matrix(1.0058652,0,0,0.994169,100,0)">
      <stop
         id="stop3750-8-9-3-6-4"
         style="stop-color:#000000;stop-opacity:1"
         offset="0" />
      <stop
         id="stop3752-5-6-4-2-9"
         style="stop-color:#000000;stop-opacity:0.58823532"
         offset="1" />
    </linearGradient>
    <linearGradient
       inkscape:collect="always"
       xlink:href="#ButtonShadow-0-1-1-5-9"
       id="linearGradient4112-2-6"
       gradientUnits="userSpaceOnUse"
       gradientTransform="matrix(1.0402541,0,0,1.0402541,-837.95116,592.51825)"
       x1="1012.5133"
       y1="484.41721"
       x2="1006.8082"
       y2="20.625916" />
    <linearGradient
       inkscape:collect="always"
       xlink:href="#ButtonShadow-0-1-1-5-9"
       id="linearGradient4110-6-7"
       gradientUnits="userSpaceOnUse"
       gradientTransform="matrix(1.023305,0,0,1.023305,-823.77704,592.83757)"
       x1="1012.5133"
       y1="484.41721"
       x2="1006.8082"
       y2="20.625916" />
    <linearGradient
       inkscape:collect="always"
       xlink:href="#ButtonShadow-0-1-1-5-9"
       id="linearGradient4116-6-3"
       gradientUnits="userSpaceOnUse"
       gradientTransform="matrix(1.0148305,0,0,1.0148305,-816.68996,592.99723)"
       x1="1012.5133"
       y1="484.41721"
       x2="1006.8082"
       y2="20.625916" />
    <linearGradient
       y2="20.625916"
       x2="1006.8082"
       y1="484.41721"
       x1="1012.5133"
       gradientTransform="matrix(1.0074153,0,0,1.0074153,-810.48879,593.1369)"
       gradientUnits="userSpaceOnUse"
       id="linearGradient5342-3"
       xlink:href="#ButtonShadow-0-1-1-5-9"
       inkscape:collect="always" />
    <linearGradient
       inkscape:collect="always"
       xlink:href="#linearGradient3737-9"
       id="linearGradient4084-8"
       gradientUnits="userSpaceOnUse"
       gradientTransform="translate(778.59979,-360.55963)"
       x1="993.43896"
       y1="51.511765"
       x2="988.78552"
       y2="363.73825" />
    <linearGradient
       id="linearGradient3737-9">
      <stop
         id="stop3739-7"
         style="stop-color:#ffffff;stop-opacity:1"
         offset="0" />
      <stop
         id="stop3741-4"
         style="stop-color:#ffffff;stop-opacity:0"
         offset="1" />
    </linearGradient>
    <linearGradient
       inkscape:collect="always"
       xlink:href="#linearGradient4046-3"
       id="linearGradient4086-12"
       gradientUnits="userSpaceOnUse"
       x1="1764.6487"
       y1="155.59685"
       x2="1763.6903"
       y2="-55.941216" />
    <linearGradient
       id="linearGradient4046-3">
      <stop
         id="stop4048-7"
         style="stop-color:#000000;stop-opacity:1;"
         offset="0" />
      <stop
         id="stop4050-73"
         style="stop-color:#ffffff;stop-opacity:0.2"
         offset="1" />
    </linearGradient>
    <linearGradient
       y2="32"
       x2="272"
       y1="288"
       x1="272"
       gradientTransform="translate(0,-4)"
       gradientUnits="userSpaceOnUse"
       id="linearGradient3876"
       xlink:href="#outerBackgroundGradient"
       inkscape:collect="always" />
    <linearGradient
       id="outerBackgroundGradient">
      <stop
         id="stop3864-8-6"
         offset="0"
         style="stop-color:#007dbb;stop-opacity:1;" />
      <stop
         id="stop3866-9-1"
         offset="1"
         style="stop-color:#00abd7;stop-opacity:1;" />
    </linearGradient>
    <linearGradient
       inkscape:collect="always"
       xlink:href="#outerBackgroundGradient"
       id="linearGradient5589"
       gradientUnits="userSpaceOnUse"
       gradientTransform="translate(571.12383,-178.05409)"
       x1="272"
       y1="288"
       x2="272"
       y2="32" />
    <linearGradient
       y2="32"
       x2="272"
       y1="288"
       x1="272"
       gradientTransform="translate(571.12383,-178.05409)"
       gradientUnits="userSpaceOnUse"
       id="linearGradient5614"
       xlink:href="#outerBackgroundGradient"
       inkscape:collect="always" />
    <radialGradient
       gradientUnits="userSpaceOnUse"
       r="236"
       fy="151.78598"
       fx="256"
       cy="151.78598"
       cx="256"
       id="radialGradient6124"
       xlink:href="#linearGradient2460"
       inkscape:collect="always" />
    <linearGradient
       inkscape:collect="always"
       xlink:href="#linearGradient3737-9"
       id="linearGradient7749"
       gradientUnits="userSpaceOnUse"
       gradientTransform="translate(778.59979,-360.55963)"
       x1="993.43896"
       y1="51.511765"
       x2="988.78552"
       y2="363.73825" />
    <linearGradient
       inkscape:collect="always"
       xlink:href="#linearGradient4046-3"
       id="linearGradient7751"
       gradientUnits="userSpaceOnUse"
       x1="1764.6487"
       y1="155.59685"
       x2="1763.6903"
       y2="-55.941216" />
    <linearGradient
       inkscape:collect="always"
       xlink:href="#linearGradient2460-9"
       id="linearGradient3157"
       gradientUnits="userSpaceOnUse"
       gradientTransform="matrix(12.102564,0,0,12.102564,-34.468255,-46.187105)"
       x1="18.930269"
       y1="6.2951212"
       x2="19.360001"
       y2="36.643665" />
    <linearGradient
       id="linearGradient2460-9"
       y2="44.984001"
       gradientUnits="userSpaceOnUse"
       x2="19.360001"
       y1="21.030804"
       x1="19.244999">
      <stop
         id="stop3602-6"
         style="stop-color:#fafafa;stop-opacity:1;"
         offset="0" />
      <stop
         id="stop3604-4"
         style="stop-color:#f0f0f0;stop-opacity:1;"
         offset="1" />
    </linearGradient>
    <radialGradient
       gradientUnits="userSpaceOnUse"
       r="236"
       fy="151.78598"
       fx="256"
       cy="151.78598"
       cx="256"
       id="radialGradient6124-5"
       xlink:href="#linearGradient2460-7"
       inkscape:collect="always" />
    <linearGradient
       x1="19.244999"
       y1="21.030804"
       x2="19.360001"
       gradientUnits="userSpaceOnUse"
       y2="44.984001"
       id="linearGradient2460-7">
      <stop
         offset="0"
         style="stop-color:#00bdf0;stop-opacity:1;"
         id="stop3602-2" />
      <stop
         offset="1"
         style="stop-color:#0093dc;stop-opacity:1;"
         id="stop3604-5" />
    </linearGradient>
    <radialGradient
       gradientTransform="translate(-20,-20)"
       r="236"
       fy="151.78598"
       fx="256"
       cy="151.78598"
       cx="256"
       gradientUnits="userSpaceOnUse"
       id="radialGradient8295"
       xlink:href="#linearGradient2460-7"
       inkscape:collect="always" />
    <linearGradient
       y2="363.73825"
       x2="988.78552"
       y1="51.511765"
       x1="993.43896"
       gradientTransform="translate(778.59979,-360.55963)"
       gradientUnits="userSpaceOnUse"
       id="linearGradient4084-8-0"
       xlink:href="#linearGradient3737-9-9"
       inkscape:collect="always" />
    <linearGradient
       id="linearGradient3737-9-9">
      <stop
         offset="0"
         style="stop-color:#ffffff;stop-opacity:1"
         id="stop3739-7-4" />
      <stop
         offset="1"
         style="stop-color:#ffffff;stop-opacity:0"
         id="stop3741-4-1" />
    </linearGradient>
    <linearGradient
       y2="-55.941216"
       x2="1763.6903"
       y1="155.59685"
       x1="1764.6487"
       gradientUnits="userSpaceOnUse"
       id="linearGradient4086-12-7"
       xlink:href="#linearGradient4046-3-0"
       inkscape:collect="always" />
    <linearGradient
       id="linearGradient4046-3-0">
      <stop
         offset="0"
         style="stop-color:#000000;stop-opacity:1;"
         id="stop4048-7-4" />
      <stop
         offset="1"
         style="stop-color:#ffffff;stop-opacity:0.2"
         id="stop4050-73-8" />
    </linearGradient>
    <clipPath
       id="clipPath-640338618">
      <g
         id="g3051"
         transform="translate(0,-1004.3622)">
        <path
           id="path3053"
           transform="matrix(15.333333,0,0,11.5,414.99999,878.8622)"
           d="m -24,13 c 0,1.105 -0.672,2 -1.5,2 -0.828,0 -1.5,-0.895 -1.5,-2 0,-1.105 0.672,-2 1.5,-2 0.828,0 1.5,0.895 1.5,2 z"
           inkscape:connector-curvature="0"
           style="fill:#1890d0" />
      </g>
    </clipPath>
    <clipPath
       id="clipPath-632768364">
      <g
         id="g3046"
         transform="translate(0,-1004.3622)">
        <path
           id="path3048"
           transform="matrix(15.333333,0,0,11.5,414.99999,878.8622)"
           d="m -24,13 c 0,1.105 -0.672,2 -1.5,2 -0.828,0 -1.5,-0.895 -1.5,-2 0,-1.105 0.672,-2 1.5,-2 0.828,0 1.5,0.895 1.5,2 z"
           inkscape:connector-curvature="0"
           style="fill:#1890d0" />
      </g>
    </clipPath>
    <linearGradient
       gradientTransform="matrix(0,-1,1,0,-1.5e-6,47.999998)"
       gradientUnits="userSpaceOnUse"
       x2="47"
       x1="1"
       id="linearGradient3764">
      <stop
         id="stop3041"
         stop-opacity="1"
         stop-color="#45aa2a" />
      <stop
         id="stop3043"
         stop-opacity="1"
         stop-color="#4aba2e"
         offset="1" />
    </linearGradient>
  </defs>
  <metadata
     id="metadata7">
    <rdf:RDF>
      <cc:Work
         rdf:about="">
        <dc:format>image/svg+xml</dc:format>
        <dc:type
           rdf:resource="http://purl.org/dc/dcmitype/StillImage" />
        <dc:title />
      </cc:Work>
    </rdf:RDF>
  </metadata>
  <g
     id="layer1"
     inkscape:groupmode="layer"
     inkscape:label="Livello 1"
     transform="translate(0,-1030.3622)" />
  <g
     id="g2036"
     transform="matrix(1.1,0,0,0.44444,95.081063,-233.60746)">
    <g
       id="g3712"
       style="opacity:0.4"
       transform="matrix(1.0526,0,0,1.2857,-1.2632,-13.429)" />
  </g>
  <g
     transform="translate(97.481063,-258.71846)"
     id="g3541" />
  <g
     transform="translate(97.481063,-258.71846)"
     id="g3536" />
  <g
     id="g4103"
     transform="translate(-11.985071,-1082.1172)" />
  <g
     id="g4076"
     transform="translate(-605.51932,-843.96833)">
    <g
       transform="translate(-926.66758,684.38448)"
       id="g4038" />
  </g>
  <g
     id="g3067"
     transform="matrix(9.2010772,0,0,9.2010772,698.1307,-479.40904)" />
  <g
     id="g890"
     transform="matrix(0.04296875,0,0,0.04296875,-1.7245069e-8,21.054722)">
    <path
       style="fill:#3689e6;fill-opacity:1;stroke-width:11.10955811"
       inkscape:connector-curvature="0"
       d="m 432.91327,-433.52599 c 102.19291,88.57459 105.82678,249.6997 8.1168,359.898785 C 343.3201,36.571877 181.27964,54.100646 79.086729,-34.473944 -23.106186,-123.04853 -26.740042,-284.17365 70.969928,-394.37273 168.6799,-504.57181 330.72036,-522.10058 432.91327,-433.52599 Z"
       id="path27" />
    <path
       style="opacity:1;fill:#000000;fill-opacity:0.49019608;stroke-width:11.10955811"
       inkscape:connector-curvature="0"
       d="m 511.63551,-265.09645 c -1.55139,61.31165 -25.16123,124.15461 -70.96638,175.81448 C 342.95915,20.917149 180.91869,38.44588 78.725776,-50.128672 30.827124,-91.644326 4.4968216,-149.07712 0.19382768,-209.77116 0.79907934,-143.41448 27.117411,-79.517787 79.078682,-34.480899 181.27159,54.093653 343.31975,36.55623 441.02202,-73.634197 490.72697,-129.6923 514.02704,-198.92516 511.63551,-265.09645 Z"
       id="path51" />
    <path
       inkscape:connector-curvature="0"
       style="fill:#000000;fill-opacity:0.49019608;fill-rule:evenodd;stroke-width:0.65429252"
       d="M 276.00004,-370.00019 C 189.84725,-370.00019 120,-300.16015 120,-214.00038 120,-127.84771 189.8401,-58 276.00004,-58 c 86.15274,0 155.99998,-69.84004 155.99998,-156.00038 0,-86.15267 -69.84011,-155.99981 -155.99998,-155.99981 z m -40.06641,94.78806 c 14.98708,-0.35377 30.16586,4.83477 42.1078,16.14875 8.4948,8.03868 12.27877,14.94119 25.0453,45.33717 13.3544,31.7963 15.83308,36.84155 20.17029,41.07198 4.62016,4.51048 8.92547,6.03284 17.18437,6.03284 13.51336,0 23.12579,-8.35177 23.12579,-20.01774 0,-9.83342 -3.46276,-13.00377 -21.14528,-19.34793 -26.92479,-9.65832 -35.62976,-18.4859 -35.64843,-36.04437 -0.008,-9.41719 2.36905,-15.72246 8.40937,-22.15094 8.69439,-9.25387 23.71374,-12.37758 36.98899,-7.7085 5.62367,1.97518 17.45862,12.46957 17.45862,15.47834 0,1.45632 -6.85417,5.92081 -10.66405,6.94673 -1.99698,0.53065 -3.71747,-0.17688 -6.03277,-2.37611 -4.70683,-4.52818 -7.91316,-5.91081 -13.52817,-5.91081 -9.70848,0 -15.75232,5.83711 -15.75232,15.26491 0,9.40365 3.87961,12.62408 23.00387,19.0732 26.40319,8.90479 34.14735,16.91403 34.33833,35.55738 0.16517,16.07561 -7.07546,27.67022 -21.51095,34.52084 -6.57355,3.11902 -8.74409,3.51995 -19.46952,3.50226 -15.25153,-0.0264 -22.12308,-2.82421 -30.68206,-12.49198 -5.751,-6.4998 -11.60209,-18.68523 -30.31642,-63.16218 -7.76079,-18.43816 -17.73841,-27.44674 -34.33825,-30.98672 -8.38012,-1.78651 -20.12221,-0.11792 -27.78751,3.90319 -7.39304,3.89141 -15.75609,12.65764 -19.68283,20.65803 -3.21453,6.54815 -3.53408,8.38477 -3.53408,19.71288 0,10.82752 0.39503,13.39408 3.10783,19.34794 4.10955,9.02275 12.19309,17.41579 21.11486,21.93747 6.42883,3.26052 8.45624,3.65556 18.70779,3.65556 9.87877,0 12.42126,-0.41273 18.25077,-3.26052 6.7175,-3.25463 15.76036,-11.32222 19.43909,-17.33677 l 1.91978,-3.10723 3.77816,8.59174 c 2.07897,4.72864 3.77821,9.22911 3.77821,10.02448 0,2.34663 -8.52348,10.21198 -16.33127,15.05147 -11.86994,7.35889 -25.51298,10.11825 -40.12735,8.10475 -4.10189,-0.58961 -11.42121,-2.95983 -16.3008,-5.30056 -31.81928,-15.27202 -44.83124,-53.64239 -29.15856,-85.98229 10.64416,-21.96227 32.17719,-34.23961 54.08197,-34.73488 z"
       id="path76" />
    <path
       id="path4"
       d="m 256.00002,-390.00016 c -86.15279,0 -156.000035,69.84004 -156.000035,155.99981 0,86.15267 69.840105,156.000383 156.000035,156.000383 86.15274,0 155.99999,-69.840043 155.99999,-156.000383 0,-86.15267 -69.84011,-155.99981 -155.99999,-155.99981 z m -40.0664,94.78806 c 14.98708,-0.35377 30.16585,4.83477 42.1078,16.14875 8.49479,8.03868 12.27877,14.94119 25.0453,45.33717 13.35439,31.7963 15.83308,36.84155 20.17028,41.07198 4.62017,4.51048 8.92547,6.03284 17.18438,6.03284 13.51336,0 23.12579,-8.35177 23.12579,-20.01774 0,-9.83342 -3.46276,-13.00377 -21.14528,-19.34793 -26.92479,-9.65832 -35.62976,-18.4859 -35.64843,-36.04437 -0.008,-9.41719 2.36905,-15.72246 8.40937,-22.15094 8.69439,-9.25387 23.71374,-12.37758 36.98899,-7.7085 5.62367,1.97518 17.45862,12.46957 17.45862,15.47834 0,1.45632 -6.85417,5.92081 -10.66405,6.94673 -1.99699,0.53065 -3.71747,-0.17688 -6.03277,-2.37611 -4.70683,-4.52818 -7.91316,-5.91081 -13.52817,-5.91081 -9.70848,0 -15.75232,5.83711 -15.75232,15.26491 0,9.40365 3.87961,12.62408 23.00387,19.0732 26.40318,8.90479 34.14735,16.91403 34.33833,35.55738 0.16517,16.07561 -7.07546,27.67022 -21.51095,34.52084 -6.57355,3.11902 -8.74409,3.51995 -19.46952,3.50226 -15.25153,-0.0264 -22.12309,-2.82421 -30.68206,-12.49198 -5.751,-6.4998 -11.60209,-18.68523 -30.31642,-63.16218 -7.7608,-18.43816 -17.73842,-27.44674 -34.33825,-30.98672 -8.38012,-1.78651 -20.12221,-0.11792 -27.78751,3.90319 -7.39305,3.89141 -15.75609,12.65764 -19.68283,20.65803 -3.21453,6.54815 -3.53409,8.38477 -3.53409,19.71288 0,10.82752 0.39504,13.39408 3.10783,19.34794 4.10956,9.02275 12.1931,17.41579 21.11486,21.93747 6.42883,3.26052 8.45624,3.65556 18.7078,3.65556 9.87877,0 12.42126,-0.41273 18.25077,-3.26052 6.7175,-3.25463 15.76036,-11.32222 19.43909,-17.33677 l 1.91977,-3.10723 3.77817,8.59174 c 2.07897,4.72864 3.77821,9.22911 3.77821,10.02448 0,2.34663 -8.52348,10.21198 -16.33127,15.05147 -11.86994,7.35889 -25.51298,10.11825 -40.12735,8.10475 -4.10189,-0.58961 -11.42121,-2.95983 -16.3008,-5.30056 -31.81928,-15.27202 -44.83124,-53.64239 -29.15856,-85.98229 10.64416,-21.96227 32.17719,-34.23961 54.08197,-34.73488 z"
       style="fill:#ffffff;fill-opacity:1;fill-rule:evenodd;stroke-width:0.65429252"
       inkscape:connector-curvature="0" />
  </g>
</svg>
