<?xml version="1.0" encoding="UTF-8" standalone="no"?>
<!-- Created with Inkscape (http://www.inkscape.org/) -->

<svg
   xmlns:dc="http://purl.org/dc/elements/1.1/"
   xmlns:cc="http://creativecommons.org/ns#"
   xmlns:rdf="http://www.w3.org/1999/02/22-rdf-syntax-ns#"
   xmlns:svg="http://www.w3.org/2000/svg"
   xmlns="http://www.w3.org/2000/svg"
   xmlns:xlink="http://www.w3.org/1999/xlink"
   xmlns:sodipodi="http://sodipodi.sourceforge.net/DTD/sodipodi-0.dtd"
   xmlns:inkscape="http://www.inkscape.org/namespaces/inkscape"
   width="22"
   height="22"
   id="svg5157"
   version="1.1"
   inkscape:version="0.92.2 5c3e80d, 2017-08-06"
   sodipodi:docname="me-tv-panel.svg">
  <defs
     id="defs5159">
    <linearGradient
       id="linearGradient4246">
      <stop
         id="stop4248"
         style="stop-color:#ffffff;stop-opacity:1"
         offset="0" />
      <stop
         id="stop4250"
         style="stop-color:#ffffff;stop-opacity:0.23529412"
         offset="0.23521248" />
      <stop
         id="stop4252"
         style="stop-color:#ffffff;stop-opacity:0.15686275"
         offset="0.76404774" />
      <stop
         id="stop4254"
         style="stop-color:#ffffff;stop-opacity:0.39215687"
         offset="1" />
    </linearGradient>
    <linearGradient
       id="linearGradient3242-7-3-8-9-0-2">
      <stop
         offset="0"
         style="stop-color:#eef87e;stop-opacity:1"
         id="stop3244-5-8-5-3-4-4" />
      <stop
         offset="0.26238"
         style="stop-color:#cde34f;stop-opacity:1"
         id="stop3246-9-5-1-2-5-3" />
      <stop
         offset="0.66093999"
         style="stop-color:#93b723;stop-opacity:1"
         id="stop3248-7-2-0-84-2-0" />
      <stop
         offset="1"
         style="stop-color:#5a7e0d;stop-opacity:1"
         id="stop3250-8-2-8-3-3-4" />
    </linearGradient>
    <radialGradient
       id="XMLID_2_-8"
       cx="299.44821"
       cy="-290.5918"
       r="17.1528"
       fx="297.44989"
       fy="-289.9133"
       gradientTransform="matrix(0.8232,0.2312,0.2703,-0.9626,-96.2274,-315.3433)"
       gradientUnits="userSpaceOnUse">
      <stop
         offset="0"
         style="stop-color:#000000;stop-opacity:1;"
         id="stop228-2" />
      <stop
         offset="1"
         style="stop-color:#000000;stop-opacity:0;"
         id="stop230-7" />
    </radialGradient>
    <linearGradient
       id="linearGradient2867-449-88-871-390-598-476-591-434-148-57-177-3-8-6">
      <stop
         offset="0"
         style="stop-color:#5bc2ee;stop-opacity:1;"
         id="stop3750-8-9-0" />
      <stop
         offset="0.26238"
         style="stop-color:#42baea;stop-opacity:1"
         id="stop3752-3-2-8" />
      <stop
         offset="0.704952"
         style="stop-color:#3689e6;stop-opacity:1"
         id="stop3754-7-2-7" />
      <stop
         offset="1"
         style="stop-color:#2b63a0;stop-opacity:1"
         id="stop3756-9-3-6" />
    </linearGradient>
    <linearGradient
       id="linearGradient3820-7-2-8-6">
      <stop
         id="stop3822-2-6-5-0"
         offset="0"
         style="stop-color:#3d3d3d;stop-opacity:1;" />
      <stop
         style="stop-color:#686868;stop-opacity:0.49803922;"
         offset="0.5"
         id="stop3864-8-7-4-1" />
      <stop
         id="stop3824-1-2-6-7"
         offset="1"
         style="stop-color:#686868;stop-opacity:0;" />
    </linearGradient>
    <linearGradient
       inkscape:collect="always"
       xlink:href="#linearGradient4246"
       id="linearGradient5267"
       gradientUnits="userSpaceOnUse"
       gradientTransform="matrix(2.7567564,0,0,2.7567564,-133.25186,-67.905563)"
       x1="71.204407"
       y1="6.8949885"
       x2="71.204407"
       y2="44.00914" />
    <radialGradient
       inkscape:collect="always"
       xlink:href="#linearGradient3242-7-3-8-9-0-2"
       id="radialGradient5270"
       gradientUnits="userSpaceOnUse"
       gradientTransform="matrix(0,3.5027864,-3.3090405,-4.0448548e-8,92.459105,-62.015358)"
       cx="18.164446"
       cy="8.449769"
       fx="8.894803"
       fy="8.5985041"
       r="19.99999" />
    <radialGradient
       inkscape:collect="always"
       xlink:href="#linearGradient3820-7-2-8-6"
       id="radialGradient5282"
       gradientUnits="userSpaceOnUse"
       gradientTransform="matrix(1,0,0,0.1666667,0,155.14216)"
       cx="99.157013"
       cy="186.17059"
       fx="99.157013"
       fy="186.17059"
       r="62.769119" />
  </defs>
  <sodipodi:namedview
     id="base"
     pagecolor="#ffffff"
     bordercolor="#666666"
     borderopacity="1.0"
     inkscape:pageopacity="0.0"
     inkscape:pageshadow="2"
     inkscape:zoom="3.0935923"
     inkscape:cx="4.3726096"
     inkscape:cy="25.229073"
     inkscape:current-layer="layer1"
     showgrid="true"
     inkscape:document-units="px"
     inkscape:grid-bbox="true"
     inkscape:window-width="1366"
     inkscape:window-height="717"
     inkscape:window-x="0"
     inkscape:window-y="24"
     inkscape:window-maximized="1" />
  <metadata
     id="metadata5162">
    <rdf:RDF>
      <cc:Work
         rdf:about="">
        <dc:format>image/svg+xml</dc:format>
        <dc:type
           rdf:resource="http://purl.org/dc/dcmitype/StillImage" />
        <dc:title />
      </cc:Work>
    </rdf:RDF>
  </metadata>
  <g
     id="layer1"
     inkscape:label="Layer 1"
     inkscape:groupmode="layer"
     transform="translate(0,-42)">
    <g
       transform="matrix(0.16240158,0,0,0.16240158,-6.3468254e-7,15.766767)"
       id="g872">
      <g
         style="fill:#7c6655;fill-opacity:1"
         id="g29"
         transform="matrix(2.1285162,1.8448678,-2.0351436,2.2952722,65.492394,129.90329)">
        <path
           id="path27"
           d="M 24,1 C 36.703,1 47,11.297 47,24 47,36.703 36.703,47 24,47 11.297,47 1,36.703 1,24 1,11.297 11.297,1 24,1 Z"
           inkscape:connector-curvature="0"
           style="fill:#7c6655;fill-opacity:1" />
      </g>
      <g
         id="g53"
         transform="matrix(2.1285162,1.8448678,-2.0351436,2.2952722,65.492394,129.90329)">
        <path
           id="path51"
           d="m 40.03,7.531 c 3.712,4.084 5.969,9.514 5.969,15.469 0,12.703 -10.297,23 -23,23 C 17.045,46 11.615,43.744 7.53,40.031 11.708,44.322 17.54,47 23.999,47 c 12.703,0 23,-10.298 23,-23 0,-6.462 -2.677,-12.291 -6.969,-16.469 z"
           inkscape:connector-curvature="0"
           style="opacity:0.1" />
      </g>
      <path
         style="fill:#705c4d;fill-opacity:1;stroke-width:0.16111532"
         d="m 36.149835,272.92883 c -3.277102,-0.89901 -5.901685,-3.5486 -6.776809,-6.84136 -0.364341,-1.37089 -0.355607,-41.53697 0.0093,-42.93809 0.896615,-3.44234 3.779569,-6.19919 7.243197,-6.92638 0.941391,-0.19765 3.430157,-0.23725 15.056844,-0.23959 l 13.929039,-0.004 -5.400836,-5.43763 c -4.53689,-4.5678 -5.431313,-5.54373 -5.591326,-6.1008 -0.252082,-0.87762 -0.24028,-1.33024 0.05664,-2.17179 0.299897,-0.85002 0.754385,-1.35992 1.597243,-1.79202 0.843839,-0.43261 2.392809,-0.33526 3.17849,0.19978 0.294594,0.20061 2.87335,2.69171 5.730574,5.53577 l 5.194954,5.17101 10.111002,-10.10058 c 7.004829,-6.99762 10.295025,-10.17713 10.709999,-10.34972 0.753501,-0.31337 2.010866,-0.32027 2.741383,-0.0157 1.623303,0.67826 2.318944,2.80267 1.472017,4.49546 -0.139454,0.2787 -4.758565,5.01997 -10.264745,10.53613 l -10.011221,10.02944 13.93472,0.004 c 11.63169,0.002 14.12111,0.042 15.06252,0.23957 3.46363,0.72719 6.3466,3.48406 7.2432,6.92638 0.36494,1.40112 0.37367,41.56721 0.009,42.93811 -0.8851,3.33028 -3.51944,5.96464 -6.84974,6.84974 -1.27958,0.34006 -67.14503,0.33198 -68.385809,-0.009 z m 40.110097,-6.50454 c 5.07048,-0.57776 7.518455,-1.48936 9.456891,-3.52161 1.906338,-1.9986 2.829603,-4.85465 3.37149,-10.42945 0.245791,-2.52877 0.240954,-13.43372 -0.007,-15.95041 -0.420751,-4.26913 -1.173972,-7.23516 -2.261194,-8.90422 -1.763287,-2.70693 -4.253073,-3.96019 -9.22736,-4.64469 -4.191055,-0.57674 -25.747964,-0.57102 -30.011264,0.009 -4.373316,0.59391 -6.742149,1.55823 -8.504886,3.4622 -2.030002,2.19264 -2.944797,5.44735 -3.353587,11.93157 -0.245156,3.88863 -0.09966,12.82704 0.256618,15.76525 1.112544,9.17508 4.251736,11.77772 14.985274,12.42399 3.255739,0.19602 23.319662,0.0845 25.295113,-0.14051 z m 26.261788,-12.65676 c 3.25579,-1.4649 3.80086,-5.9485 0.99309,-8.16902 -3.27109,-2.58693 -8.041331,-0.11063 -7.811669,4.05521 0.18798,3.40952 3.689131,5.52185 6.818579,4.11381 z m -0.78142,-12.39432 c 1.6162,-0.43034 3.03493,-1.82078 3.45982,-3.39083 0.25258,-0.93328 0.0959,-2.61601 -0.31917,-3.42895 -0.49012,-0.9598 -1.37655,-1.79019 -2.42586,-2.27244 -2.33741,-1.07426 -5.156847,-0.0182 -6.335036,2.3729 -0.518953,1.0532 -0.517924,3.00892 0.002,4.06449 0.670978,1.36185 1.91801,2.36075 3.376107,2.70426 0.881499,0.20769 1.311969,0.19819 2.241999,-0.0495 z"
         id="path864"
         inkscape:connector-curvature="0" />
      <path
         inkscape:connector-curvature="0"
         id="path891"
         d="m 33.504003,270.28298 c -3.277102,-0.89901 -5.901685,-3.5486 -6.776809,-6.84136 -0.364341,-1.37089 -0.355607,-41.53697 0.0093,-42.93809 0.896615,-3.44234 3.779569,-6.19919 7.243197,-6.92638 0.941391,-0.19765 3.430157,-0.23725 15.056844,-0.23959 l 13.929039,-0.004 -5.400836,-5.43763 c -4.53689,-4.5678 -5.431313,-5.54373 -5.591326,-6.1008 -0.252082,-0.87762 -0.24028,-1.33024 0.05664,-2.17179 0.299897,-0.85002 0.754385,-1.35992 1.597243,-1.79202 0.843839,-0.43261 2.392809,-0.33526 3.17849,0.19978 0.294594,0.20061 2.87335,2.69171 5.730574,5.53577 l 5.194954,5.17101 10.111002,-10.10058 c 7.004829,-6.99762 10.295025,-10.17713 10.709999,-10.34972 0.753501,-0.31337 2.010866,-0.32027 2.741383,-0.0157 1.623303,0.67826 2.318944,2.80267 1.472017,4.49546 -0.139454,0.2787 -4.758565,5.01997 -10.264745,10.53613 l -10.011221,10.02944 13.93472,0.004 c 11.631685,0.002 14.121112,0.042 15.062522,0.23957 3.46363,0.72719 6.3466,3.48406 7.2432,6.92638 0.36494,1.40112 0.37367,41.56721 0.009,42.93811 -0.8851,3.33028 -3.51944,5.96464 -6.84974,6.84974 -1.27958,0.34006 -67.145032,0.33198 -68.385811,-0.009 z M 73.6141,263.77844 c 5.07048,-0.57776 7.518455,-1.48936 9.456891,-3.52161 1.906338,-1.9986 2.829603,-4.85465 3.37149,-10.42945 0.245791,-2.52877 0.240954,-13.43372 -0.007,-15.95041 -0.420751,-4.26913 -1.173972,-7.23516 -2.261194,-8.90422 -1.763287,-2.70693 -4.253073,-3.96019 -9.22736,-4.64469 -4.191055,-0.57674 -25.747964,-0.57102 -30.011264,0.009 -4.373316,0.59391 -6.742149,1.55823 -8.504886,3.4622 -2.030002,2.19264 -2.944797,5.44735 -3.353587,11.93157 -0.245156,3.88863 -0.09966,12.82704 0.256618,15.76525 1.112544,9.17508 4.251736,11.77772 14.985274,12.42399 3.255739,0.19602 23.319662,0.0845 25.295113,-0.14051 z m 26.261792,-12.65676 c 3.255788,-1.4649 3.800858,-5.9485 0.993088,-8.16902 -3.271096,-2.58693 -8.041333,-0.11063 -7.811671,4.05521 0.18798,3.40952 3.689131,5.52185 6.818583,4.11381 z m -0.781428,-12.39432 c 1.616206,-0.43034 3.034936,-1.82078 3.459826,-3.39083 0.25258,-0.93328 0.0959,-2.61601 -0.31917,-3.42895 -0.49012,-0.9598 -1.37655,-1.79019 -2.425862,-2.27244 -2.337408,-1.07426 -5.156847,-0.0182 -6.335036,2.3729 -0.518953,1.0532 -0.517924,3.00892 0.002,4.06449 0.670978,1.36185 1.91801,2.36075 3.376107,2.70426 0.881503,0.20769 1.311967,0.19819 2.241997,-0.0495 z"
         style="fill:#ffffff;stroke-width:0.16111532" />
    </g>
  </g>
</svg>
