<?xml version="1.0" encoding="UTF-8" standalone="no"?>
<!-- Created with Inkscape (http://www.inkscape.org/) -->

<svg
   xmlns:dc="http://purl.org/dc/elements/1.1/"
   xmlns:cc="http://creativecommons.org/ns#"
   xmlns:rdf="http://www.w3.org/1999/02/22-rdf-syntax-ns#"
   xmlns:svg="http://www.w3.org/2000/svg"
   xmlns="http://www.w3.org/2000/svg"
   xmlns:sodipodi="http://sodipodi.sourceforge.net/DTD/sodipodi-0.dtd"
   xmlns:inkscape="http://www.inkscape.org/namespaces/inkscape"
   width="22"
   height="22"
   viewBox="0 0 22 22"
   id="svg2"
   version="1.1"
   inkscape:version="0.92.2 5c3e80d, 2017-08-06"
   sodipodi:docname="media-player-banshee-buffering.svg">
  <defs
     id="defs4" />
  <sodipodi:namedview
     id="base"
     pagecolor="#ffffff"
     bordercolor="#666666"
     borderopacity="1.0"
     inkscape:pageopacity="0.0"
     inkscape:pageshadow="2"
     inkscape:zoom="7.919596"
     inkscape:cx="18.032896"
     inkscape:cy="2.3348734"
     inkscape:document-units="px"
     inkscape:current-layer="layer1"
     showgrid="false"
     units="px"
     inkscape:window-width="1366"
     inkscape:window-height="717"
     inkscape:window-x="0"
     inkscape:window-y="24"
     inkscape:window-maximized="1" />
  <metadata
     id="metadata7">
    <rdf:RDF>
      <cc:Work
         rdf:about="">
        <dc:format>image/svg+xml</dc:format>
        <dc:type
           rdf:resource="http://purl.org/dc/dcmitype/StillImage" />
        <dc:title />
      </cc:Work>
    </rdf:RDF>
  </metadata>
  <g
     inkscape:label="Layer 1"
     inkscape:groupmode="layer"
     id="layer1"
     transform="translate(0,-1030.3622)">
    <g
       transform="matrix(0.16240158,0,0,0.16240158,-6.4278092e-7,1004.1289)"
       id="g837">
      <path
         style="fill:#3689e6;fill-opacity:1;stroke-width:2.93940377"
         inkscape:connector-curvature="0"
         d="m 114.54164,176.47539 c 27.03854,23.43536 28,66.06638 2.14757,95.22322 -25.85243,29.15684 -68.725635,33.79466 -95.764176,10.3593 -27.0385417,-23.43536 -27.9999994,-66.06638 -2.14757,-95.22322 25.852429,-29.15684 68.725634,-33.79466 95.764176,-10.3593 z"
         id="path27" />
      <path
         style="opacity:0.1;stroke-width:2.93940377"
         inkscape:connector-curvature="0"
         d="m 135.37023,221.03904 c -0.41047,16.22204 -6.65724,32.84924 -18.77652,46.51758 C 90.741279,296.71347 47.868074,301.35128 20.829532,277.91593 8.156347,266.93158 1.189788,251.73582 0.05128753,235.67719 c 0.1601395,17.55687 7.12353137,34.46287 20.87161747,46.37888 27.038541,23.43535 69.913781,18.79524 95.764175,-10.35931 13.1511,-14.83204 19.31591,-33.1499 18.68315,-50.65772 z"
         id="path51" />
      <path
         style="fill:#317ccf;fill-opacity:1;stroke-width:0.21616727"
         d="m 67.409883,272.99021 c -3.865447,-0.3768 -8.806692,-2.07584 -11.99728,-4.12525 -8.126793,-5.22009 -12.88546,-13.27955 -13.442204,-22.76621 -0.300733,-5.12436 1.444621,-12.51642 3.350347,-14.18967 0.702342,-0.61666 0.850891,-0.65801 2.052002,-0.57113 1.124623,0.0814 1.375878,0.18435 1.911216,0.78349 0.820809,0.91865 0.844666,2.4245 0.06863,4.33427 -1.120971,2.75872 -1.486387,4.82867 -1.473355,8.34603 0.01038,2.79422 0.09115,3.54138 0.584415,5.40418 2.266403,8.55914 8.84952,14.8077 17.541119,16.64967 2.303961,0.48826 6.558901,0.48826 8.862862,0 10.353668,-2.19421 17.652233,-10.69649 18.189303,-21.18918 0.447076,-8.73456 -4.175682,-16.81152 -12.052977,-21.05919 -2.894822,-1.56097 -6.778913,-2.60945 -9.677363,-2.61233 -1.699635,-0.002 -2.716763,-0.33522 -3.362487,-1.10261 -1.068862,-1.27028 -0.992039,-2.72455 0.211344,-4.0005 l 0.74834,-0.79348 2.863834,0.12804 c 4.200396,0.18779 7.291121,0.95833 11.078192,2.76186 2.663487,1.26845 4.98766,2.90386 7.274897,5.119 8.993974,8.71049 11.335772,21.80402 5.904994,33.01608 -4.319259,8.91727 -13.034577,14.94237 -22.978163,15.88532 -2.554097,0.24221 -2.999114,0.24075 -5.65769,-0.0184 z m 0.61194,-12.29064 c -3.738655,-0.68474 -6.331028,-2.03353 -8.934374,-4.64847 -2.163394,-2.17302 -3.375992,-4.18014 -4.249646,-7.03409 l -0.496293,-1.62126 -0.112959,-22.98772 -0.112952,-22.98772 -3.419425,3.58246 c -2.681819,2.8097 -3.598243,3.63604 -4.248445,3.83084 -1.875961,0.56206 -3.846075,-0.61319 -4.049216,-2.4155 -0.06896,-0.61177 0.01021,-1.24975 0.213713,-1.72191 0.381609,-0.88546 12.204057,-13.24406 13.125122,-13.72036 1.56781,-0.81075 3.61737,-0.10637 4.343626,1.49279 0.382198,0.84155 0.402296,1.83447 0.406814,20.09138 l 0.0049,19.20607 0.702539,-0.47053 c 1.350796,-0.90469 4.174114,-2.12318 5.71707,-2.46737 1.982197,-0.44217 5.051206,-0.44417 7.048167,-0.005 2.015573,0.44369 5.103553,1.94105 6.738627,3.26758 5.455472,4.42599 7.402922,12.09368 4.741103,18.66717 -1.812571,4.47624 -5.988253,8.18331 -10.68638,9.48711 -1.816949,0.50423 -5.20889,0.73304 -6.731837,0.45411 z m 6.52158,-7.16583 c 6.08403,-2.89566 7.642003,-10.69994 3.104451,-15.55095 -1.939027,-2.07297 -4.364027,-3.12319 -7.211627,-3.12319 -8.876154,0 -13.148161,10.68758 -6.755457,16.90058 1.947916,1.89316 4.081612,2.67685 7.079704,2.60035 1.972532,-0.0503 2.303536,-0.12269 3.782929,-0.82679 z"
         id="path871"
         inkscape:connector-curvature="0" />
      <path
         inkscape:connector-curvature="0"
         id="path869"
         d="m 64.764049,270.34438 c -3.865447,-0.3768 -8.806692,-2.07584 -11.99728,-4.12525 -8.126793,-5.22009 -12.88546,-13.27955 -13.442204,-22.76621 -0.300733,-5.12436 1.444621,-12.51642 3.350347,-14.18967 0.702342,-0.61666 0.850891,-0.65801 2.052002,-0.57113 1.124623,0.0814 1.375878,0.18435 1.911216,0.78349 0.820809,0.91865 0.844666,2.4245 0.06863,4.33427 -1.120971,2.75872 -1.486387,4.82867 -1.473355,8.34603 0.01038,2.79422 0.09115,3.54138 0.584415,5.40418 2.266403,8.55914 8.84952,14.8077 17.541119,16.64967 2.303961,0.48826 6.558901,0.48826 8.862862,0 10.353668,-2.19421 17.652233,-10.69649 18.189303,-21.18918 0.447076,-8.73456 -4.175682,-16.81152 -12.052977,-21.05919 -2.894822,-1.56097 -6.778913,-2.60945 -9.677363,-2.61233 -1.699635,-0.002 -2.716763,-0.33522 -3.362487,-1.10261 -1.068862,-1.27028 -0.992039,-2.72455 0.211344,-4.0005 l 0.74834,-0.79348 2.863834,0.12804 c 4.200396,0.18779 7.291121,0.95833 11.078192,2.76186 2.663487,1.26845 4.98766,2.90386 7.274897,5.119 8.993974,8.71049 11.335777,21.80402 5.904994,33.01608 -4.319259,8.91727 -13.034577,14.94237 -22.978163,15.88532 -2.554097,0.24221 -2.999114,0.24075 -5.65769,-0.0184 z m 0.61194,-12.29064 c -3.738655,-0.68474 -6.331028,-2.03353 -8.934374,-4.64847 -2.163394,-2.17302 -3.375992,-4.18014 -4.249646,-7.03409 l -0.496293,-1.62126 -0.112959,-22.98772 -0.112952,-22.98772 -3.419425,3.58246 c -2.681819,2.8097 -3.598243,3.63604 -4.248445,3.83084 -1.875961,0.56206 -3.846075,-0.61319 -4.049216,-2.4155 -0.06896,-0.61177 0.01021,-1.24975 0.213713,-1.72191 0.381609,-0.88546 12.204057,-13.24406 13.125122,-13.72036 1.56781,-0.81075 3.61737,-0.10637 4.343626,1.49279 0.382198,0.84155 0.402296,1.83447 0.406814,20.09138 l 0.0049,19.20607 0.702539,-0.47053 c 1.350796,-0.90469 4.174114,-2.12318 5.71707,-2.46737 1.982197,-0.44217 5.051206,-0.44417 7.048167,-0.005 2.015573,0.44369 5.103553,1.94105 6.738627,3.26758 5.455472,4.42599 7.402922,12.09368 4.741103,18.66717 -1.812571,4.47624 -5.988253,8.18331 -10.68638,9.48711 -1.816949,0.50423 -5.20889,0.73304 -6.731837,0.45411 z m 6.52158,-7.16583 c 6.08403,-2.89566 7.642003,-10.69994 3.104451,-15.55095 -1.939027,-2.07297 -4.364027,-3.12319 -7.211627,-3.12319 -8.876154,0 -13.148161,10.68758 -6.755457,16.90058 1.947916,1.89316 4.081612,2.67685 7.079704,2.60035 1.972532,-0.0503 2.303536,-0.12269 3.782929,-0.82679 z"
         style="fill:#ffffff;stroke-width:0.21616727" />
    </g>
  </g>
</svg>
