<?xml version="1.0" encoding="UTF-8" standalone="no"?>
<svg
   xmlns:dc="http://purl.org/dc/elements/1.1/"
   xmlns:cc="http://creativecommons.org/ns#"
   xmlns:rdf="http://www.w3.org/1999/02/22-rdf-syntax-ns#"
   xmlns:svg="http://www.w3.org/2000/svg"
   xmlns="http://www.w3.org/2000/svg"
   xmlns:sodipodi="http://sodipodi.sourceforge.net/DTD/sodipodi-0.dtd"
   xmlns:inkscape="http://www.inkscape.org/namespaces/inkscape"
   viewBox="0 0 22 22"
   id="svg"
   version="1.1"
   inkscape:version="0.92.2 5c3e80d, 2017-08-06"
   width="100%"
   height="100%"
   sodipodi:docname="network-error.svg">
  <defs
     id="defs81">
    <style
       id="current-color-scheme"
       type="text/css">
      .ColorScheme-Text {
        color:#7B7C7E;
      }
      .ColorScheme-Background{
        color:#EFF0F1;
      }
      .ColorScheme-Highlight{
        color:#3DAEE6;
      }
      .ColorScheme-ViewText {
        color:#7B7C7E;
      }
      .ColorScheme-ViewBackground{
        color:#FCFCFC;
      }
      .ColorScheme-ViewHover {
        color:#3DAEE6;
      }
      .ColorScheme-ViewFocus{
        color:#1E92FF;
      }
      .ColorScheme-ButtonText {
        color:#7B7C7E;
      }
      .ColorScheme-ButtonBackground{
        color:#EFF0F1;
      }
      .ColorScheme-ButtonHover {
        color:#3DAEE6;
      }
      .ColorScheme-ButtonFocus{
        color:#1E92FF;
      }
</style>
  </defs>
  <metadata
     id="metadata34">
    <rdf:RDF>
      <cc:Work
         rdf:about="">
        <dc:format>image/svg+xml</dc:format>
        <dc:type
           rdf:resource="http://purl.org/dc/dcmitype/StillImage" />
        <dc:title />
      </cc:Work>
    </rdf:RDF>
  </metadata>
  <sodipodi:namedview
     pagecolor="#ffffff"
     bordercolor="#666666"
     borderopacity="1"
     objecttolerance="10"
     gridtolerance="10"
     guidetolerance="10"
     inkscape:pageopacity="0.06666667"
     inkscape:pageshadow="2"
     inkscape:window-width="1366"
     inkscape:window-height="717"
     id="namedview32"
     showgrid="true"
     inkscape:zoom="5.6568539"
     inkscape:cx="-13.990453"
     inkscape:cy="2.3110175"
     inkscape:window-x="0"
     inkscape:window-y="24"
     inkscape:window-maximized="1"
     inkscape:current-layer="svg"
     borderlayer="true"
     showguides="true"
     inkscape:guide-bbox="true"
     inkscape:snap-bbox="true">
    <inkscape:grid
       type="xygrid"
       id="grid3046"
       empspacing="4"
       visible="true"
       enabled="false"
       snapvisiblegridlinesonly="true" />
  </sodipodi:namedview>
  <g
     transform="matrix(0.16240158,0,0,0.16240158,-6.4278092e-7,-26.233229)"
     id="g857">
    <path
       style="fill:#c6262e;fill-opacity:1;stroke-width:2.93940377"
       inkscape:connector-curvature="0"
       d="m 114.54164,176.47539 c 27.03854,23.43536 28,66.06638 2.14757,95.22322 -25.85243,29.15684 -68.725635,33.79466 -95.764176,10.3593 -27.0385417,-23.43536 -27.9999994,-66.06638 -2.14757,-95.22322 25.852429,-29.15684 68.725634,-33.79466 95.764176,-10.3593 z"
       id="path27" />
    <path
       style="opacity:1;fill:#000000;fill-opacity:0.49019608;stroke-width:2.93940377"
       inkscape:connector-curvature="0"
       d="m 135.37023,221.03904 c -0.41047,16.22204 -6.65724,32.84924 -18.77652,46.51758 C 90.741279,296.71347 47.868074,301.35128 20.829532,277.91593 8.156347,266.93158 1.189788,251.73582 0.05128753,235.67719 c 0.1601395,17.55687 7.12353137,34.46287 20.87161747,46.37888 27.038541,23.43535 69.913781,18.79524 95.764175,-10.35931 13.1511,-14.83204 19.31591,-33.1499 18.68315,-50.65772 z"
       id="path51" />
    <path
       style="fill:#000000;fill-opacity:0.49019608;stroke-width:0.36688629"
       d="m 34.868557,269.39801 c -1.004215,-0.41538 -2.25565,-1.823 -2.727208,-3.06757 -0.265936,-0.70188 -0.391325,-10.96263 -0.391325,-32.02262 0,-33.56787 -0.07065,-32.3574 2.000078,-34.2682 l 0.993988,-0.91722 37.881535,-0.0968 37.881535,-0.0968 1.25408,0.83783 c 2.68423,1.79326 2.53706,-0.21249 2.53706,34.57673 0,34.77981 0.14601,32.78431 -2.5296,34.57173 l -1.24664,0.83281 -37.459863,-0.0233 c -20.602926,-0.0126 -37.790065,-0.15967 -38.19364,-0.32659 z m 74.661363,-35.05452 v -30.635 H 73.024731 36.519545 v 30.635 30.63501 h 36.505186 36.505189 z m -42.191925,20.36219 v -2.20131 h -6.053624 -6.053624 v -4.58608 -4.58608 h -4.402636 -4.402636 v -15.59268 -15.59266 h 26.599256 26.599257 v 15.59266 15.59268 h -4.402635 -4.402636 v 4.58608 4.58608 h -6.053624 -6.053624 v 2.20131 2.20132 h -5.686738 -5.686736 z m -8.0715,-31.18533 v -4.03575 h -1.83443 -1.834432 v 3.79116 c 0,2.08513 0.110059,3.90122 0.244591,4.03574 0.134519,0.13451 0.960018,0.24459 1.834432,0.24459 h 1.589839 z m 7.704612,0 v -4.03575 h -1.83443 -1.834432 v 3.79116 c 0,2.08513 0.110059,3.90122 0.244591,4.03574 0.13452,0.13451 0.960019,0.24459 1.834432,0.24459 h 1.589839 z m 7.704613,0 v -4.03575 h -1.650989 -1.650988 v 4.03575 4.03574 h 1.650988 1.650989 z m 7.992189,-0.0917 0.104138,-3.94403 h -1.846848 -1.846844 v 4.05585 4.05586 l 1.74271,-0.11177 1.74271,-0.11176 z m 7.704612,0 0.104138,-3.94403 h -1.846848 -1.846844 v 4.05585 4.05586 l 1.74271,-0.11177 1.742711,-0.11176 z"
       id="path852"
       inkscape:connector-curvature="0" />
    <path
       inkscape:connector-curvature="0"
       id="path850"
       d="m 29.577155,264.10635 c -1.004215,-0.41538 -2.25565,-1.823 -2.727208,-3.06757 -0.265936,-0.70188 -0.391325,-10.96263 -0.391325,-32.02262 0,-33.56787 -0.07065,-32.3574 2.000078,-34.2682 l 0.993988,-0.91722 37.881535,-0.0968 37.881537,-0.0968 1.25408,0.83783 c 2.68423,1.79326 2.53706,-0.21249 2.53706,34.57673 0,34.77981 0.14601,32.78431 -2.5296,34.57173 l -1.24664,0.83281 -37.459865,-0.0233 c -20.602926,-0.0126 -37.790065,-0.15967 -38.19364,-0.32659 z m 74.661365,-35.05452 v -30.635 H 67.733329 31.228143 v 30.635 30.63501 h 36.505186 36.505191 z m -42.191927,20.36219 v -2.20131 h -6.053624 -6.053624 v -4.58608 -4.58608 h -4.402636 -4.402636 v -15.59268 -15.59266 h 26.599256 26.599257 v 15.59266 15.59268 h -4.402635 -4.402636 v 4.58608 4.58608 h -6.053624 -6.053624 v 2.20131 2.20132 h -5.686738 -5.686736 z m -8.0715,-31.18533 v -4.03575 h -1.83443 -1.834432 v 3.79116 c 0,2.08513 0.110059,3.90122 0.244591,4.03574 0.134519,0.13451 0.960018,0.24459 1.834432,0.24459 h 1.589839 z m 7.704612,0 v -4.03575 h -1.83443 -1.834432 v 3.79116 c 0,2.08513 0.110059,3.90122 0.244591,4.03574 0.13452,0.13451 0.960019,0.24459 1.834432,0.24459 h 1.589839 z m 7.704613,0 v -4.03575 h -1.650989 -1.650988 v 4.03575 4.03574 h 1.650988 1.650989 z m 7.992189,-0.0917 0.104138,-3.94403 h -1.846848 -1.846844 v 4.05585 4.05586 l 1.74271,-0.11177 1.74271,-0.11176 z m 7.704612,0 0.104138,-3.94403 h -1.846848 -1.846844 v 4.05585 4.05586 l 1.74271,-0.11177 1.742711,-0.11176 z"
       style="fill:#ffffff;stroke-width:0.36688629" />
  </g>
</svg>
