<?xml version="1.0" encoding="UTF-8" standalone="no"?>
<svg
   xmlns:dc="http://purl.org/dc/elements/1.1/"
   xmlns:cc="http://creativecommons.org/ns#"
   xmlns:rdf="http://www.w3.org/1999/02/22-rdf-syntax-ns#"
   xmlns:svg="http://www.w3.org/2000/svg"
   xmlns="http://www.w3.org/2000/svg"
   xmlns:sodipodi="http://sodipodi.sourceforge.net/DTD/sodipodi-0.dtd"
   xmlns:inkscape="http://www.inkscape.org/namespaces/inkscape"
   viewBox="0 0 22 22"
   id="svg"
   version="1.1"
   inkscape:version="0.92.3 (2405546, 2018-03-11)"
   width="22"
   height="22"
   sodipodi:docname="network-idle.svg">
  <defs
     id="defs81">
    <style
       id="current-color-scheme"
       type="text/css">
      .ColorScheme-Text {
        color:#7B7C7E;
      }
      .ColorScheme-Background{
        color:#EFF0F1;
      }
      .ColorScheme-Highlight{
        color:#3DAEE6;
      }
      .ColorScheme-ViewText {
        color:#7B7C7E;
      }
      .ColorScheme-ViewBackground{
        color:#FCFCFC;
      }
      .ColorScheme-ViewHover {
        color:#3DAEE6;
      }
      .ColorScheme-ViewFocus{
        color:#1E92FF;
      }
      .ColorScheme-ButtonText {
        color:#7B7C7E;
      }
      .ColorScheme-ButtonBackground{
        color:#EFF0F1;
      }
      .ColorScheme-ButtonHover {
        color:#3DAEE6;
      }
      .ColorScheme-ButtonFocus{
        color:#1E92FF;
      }
</style>
  </defs>
  <metadata
     id="metadata34">
    <rdf:RDF>
      <cc:Work
         rdf:about="">
        <dc:format>image/svg+xml</dc:format>
        <dc:type
           rdf:resource="http://purl.org/dc/dcmitype/StillImage" />
        <dc:title></dc:title>
      </cc:Work>
    </rdf:RDF>
  </metadata>
  <sodipodi:namedview
     pagecolor="#ffffff"
     bordercolor="#666666"
     borderopacity="1"
     objecttolerance="10"
     gridtolerance="10"
     guidetolerance="10"
     inkscape:pageopacity="0.06666667"
     inkscape:pageshadow="2"
     inkscape:window-width="1366"
     inkscape:window-height="718"
     id="namedview32"
     showgrid="true"
     inkscape:zoom="5.6568539"
     inkscape:cx="-2.2348015"
     inkscape:cy="2.3110175"
     inkscape:window-x="0"
     inkscape:window-y="25"
     inkscape:window-maximized="1"
     inkscape:current-layer="svg"
     borderlayer="true"
     showguides="true"
     inkscape:guide-bbox="true"
     inkscape:snap-bbox="true"
     units="px">
    <inkscape:grid
       type="xygrid"
       id="grid3046"
       empspacing="4"
       visible="true"
       enabled="false"
       snapvisiblegridlinesonly="true" />
  </sodipodi:namedview>
  <g
     transform="matrix(0.16240157,0,0,0.16240157,-47.750439,-27.228064)"
     id="g873">
    <g
       id="g918">
      <path
         style="fill:#7c6655;fill-opacity:1;stroke-width:2.93940377"
         inkscape:connector-curvature="0"
         d="m 408.56868,182.60095 c 27.03854,23.43536 28,66.06638 2.14757,95.22322 -25.85243,29.15684 -68.72564,33.79466 -95.76418,10.3593 -27.03854,-23.43536 -28,-66.06638 -2.14757,-95.22322 25.85243,-29.15684 68.72564,-33.79466 95.76418,-10.3593 z"
         id="path851" />
      <path
         style="opacity:1;fill:#000000;fill-opacity:0.49019608;stroke-width:2.93940377"
         inkscape:connector-curvature="0"
         d="m 429.39727,227.1646 c -0.41047,16.22204 -6.65724,32.84924 -18.77652,46.51758 -25.85243,29.15685 -68.72564,33.79466 -95.76418,10.35931 -12.67318,-10.98435 -19.63974,-26.18011 -20.77824,-42.23874 0.16014,17.55687 7.12353,34.46287 20.87162,46.37888 27.03854,23.43535 69.91378,18.79524 95.76417,-10.35931 13.1511,-14.83204 19.31591,-33.1499 18.68315,-50.65772 z"
         id="path853" />
      <path
         style="fill:#000000;fill-opacity:0.49019608;stroke-width:0.36688629"
         d="m 328.89579,275.52365 c -1.00422,-0.41538 -2.25565,-1.823 -2.72721,-3.06757 -0.26594,-0.70188 -0.39133,-10.96263 -0.39133,-32.02262 0,-33.56787 -0.0707,-32.3574 2.00008,-34.2682 l 0.99399,-0.91722 37.88154,-0.0968 37.88153,-0.0968 1.25408,0.83783 c 2.68423,1.79326 2.53706,-0.21249 2.53706,34.57673 0,34.77981 0.14601,32.78431 -2.5296,34.57173 l -1.24664,0.83281 -37.45986,-0.0233 c -20.60293,-0.0126 -37.79007,-0.15967 -38.19364,-0.32659 z m 74.66136,-35.05452 v -30.635 h -36.50519 -36.50518 v 30.635 30.63501 h 36.50518 36.50519 z m -42.19192,20.36219 v -2.20131 h -6.05363 -6.05362 v -4.58608 -4.58608 h -4.40264 -4.40263 v -15.59268 -15.59266 h 26.59925 26.59926 v 15.59266 15.59268 h -4.40264 -4.40263 v 4.58608 4.58608 h -6.05363 -6.05362 v 2.20131 2.20132 h -5.68674 -5.68673 z m -8.0715,-31.18533 v -4.03575 h -1.83443 -1.83444 v 3.79116 c 0,2.08513 0.11006,3.90122 0.2446,4.03574 0.13451,0.13451 0.96001,0.24459 1.83443,0.24459 h 1.58984 z m 7.70461,0 v -4.03575 h -1.83443 -1.83443 v 3.79116 c 0,2.08513 0.11005,3.90122 0.24459,4.03574 0.13452,0.13451 0.96002,0.24459 1.83443,0.24459 h 1.58984 z m 7.70461,0 v -4.03575 h -1.65099 -1.65099 v 4.03575 4.03574 h 1.65099 1.65099 z m 7.99219,-0.0917 0.10414,-3.94403 h -1.84685 -1.84684 v 4.05585 4.05586 l 1.74271,-0.11177 1.74271,-0.11176 z m 7.70461,0 0.10414,-3.94403 h -1.84685 -1.84684 v 4.05585 4.05586 l 1.74271,-0.11177 1.74271,-0.11176 z"
         id="path855"
         inkscape:connector-curvature="0" />
      <path
         inkscape:connector-curvature="0"
         id="path857"
         d="m 323.60419,270.23191 c -1.00421,-0.41538 -2.25565,-1.823 -2.7272,-3.06757 -0.26594,-0.70188 -0.39133,-10.96263 -0.39133,-32.02262 0,-33.56787 -0.0707,-32.3574 2.00008,-34.2682 l 0.99399,-0.91722 37.88153,-0.0968 37.88154,-0.0968 1.25408,0.83783 c 2.68423,1.79326 2.53706,-0.21249 2.53706,34.57673 0,34.77981 0.14601,32.78431 -2.5296,34.57173 l -1.24664,0.83281 -37.45986,-0.0233 c -20.60293,-0.0126 -37.79007,-0.15967 -38.19365,-0.32659 z m 74.66137,-35.05452 v -30.635 h -36.50519 -36.50519 v 30.635 30.63501 h 36.50519 36.50519 z m -42.19193,20.36219 v -2.20131 h -6.05362 -6.05363 v -4.58608 -4.58608 h -4.40263 -4.40264 v -15.59268 -15.59266 h 26.59926 26.59926 v 15.59266 15.59268 h -4.40264 -4.40264 v 4.58608 4.58608 h -6.05362 -6.05362 v 2.20131 2.20132 h -5.68674 -5.68674 z m -8.0715,-31.18533 v -4.03575 h -1.83443 -1.83443 v 3.79116 c 0,2.08513 0.11006,3.90122 0.24459,4.03574 0.13452,0.13451 0.96002,0.24459 1.83443,0.24459 h 1.58984 z m 7.70461,0 v -4.03575 h -1.83442 -1.83444 v 3.79116 c 0,2.08513 0.11006,3.90122 0.24459,4.03574 0.13452,0.13451 0.96002,0.24459 1.83444,0.24459 h 1.58983 z m 7.70462,0 v -4.03575 h -1.65099 -1.65099 v 4.03575 4.03574 h 1.65099 1.65099 z m 7.99219,-0.0917 0.10414,-3.94403 h -1.84685 -1.84685 v 4.05585 4.05586 l 1.74271,-0.11177 1.74271,-0.11176 z m 7.70461,0 0.10414,-3.94403 h -1.84685 -1.84685 v 4.05585 4.05586 l 1.74272,-0.11177 1.74271,-0.11176 z"
         style="fill:#ffffff;stroke-width:0.36688629" />
    </g>
  </g>
</svg>
