<?xml version="1.0" encoding="UTF-8" standalone="no"?>
<svg
   xmlns:dc="http://purl.org/dc/elements/1.1/"
   xmlns:cc="http://creativecommons.org/ns#"
   xmlns:rdf="http://www.w3.org/1999/02/22-rdf-syntax-ns#"
   xmlns:svg="http://www.w3.org/2000/svg"
   xmlns="http://www.w3.org/2000/svg"
   xmlns:sodipodi="http://sodipodi.sourceforge.net/DTD/sodipodi-0.dtd"
   xmlns:inkscape="http://www.inkscape.org/namespaces/inkscape"
   viewBox="0 0 22 22"
   id="svg"
   version="1.1"
   inkscape:version="0.92.2 5c3e80d, 2017-08-06"
   width="100%"
   height="100%"
   sodipodi:docname="notification-network-wireless-medium.svg">
  <defs
     id="defs81">
    <style
       id="current-color-scheme"
       type="text/css">
      .ColorScheme-Text {
        color:#7B7C7E;
      }
      .ColorScheme-Background{
        color:#EFF0F1;
      }
      .ColorScheme-Highlight{
        color:#3DAEE6;
      }
      .ColorScheme-ViewText {
        color:#7B7C7E;
      }
      .ColorScheme-ViewBackground{
        color:#FCFCFC;
      }
      .ColorScheme-ViewHover {
        color:#3DAEE6;
      }
      .ColorScheme-ViewFocus{
        color:#1E92FF;
      }
      .ColorScheme-ButtonText {
        color:#7B7C7E;
      }
      .ColorScheme-ButtonBackground{
        color:#EFF0F1;
      }
      .ColorScheme-ButtonHover {
        color:#3DAEE6;
      }
      .ColorScheme-ButtonFocus{
        color:#1E92FF;
      }
</style>
  </defs>
  <metadata
     id="metadata34">
    <rdf:RDF>
      <cc:Work
         rdf:about="">
        <dc:format>image/svg+xml</dc:format>
        <dc:type
           rdf:resource="http://purl.org/dc/dcmitype/StillImage" />
        <dc:title></dc:title>
      </cc:Work>
    </rdf:RDF>
  </metadata>
  <sodipodi:namedview
     pagecolor="#ffffff"
     bordercolor="#666666"
     borderopacity="1"
     objecttolerance="10"
     gridtolerance="10"
     guidetolerance="10"
     inkscape:pageopacity="0.06666667"
     inkscape:pageshadow="2"
     inkscape:window-width="1366"
     inkscape:window-height="719"
     id="namedview32"
     showgrid="true"
     inkscape:zoom="5.6568539"
     inkscape:cx="13.76349"
     inkscape:cy="16.453154"
     inkscape:window-x="0"
     inkscape:window-y="22"
     inkscape:window-maximized="1"
     inkscape:current-layer="svg"
     borderlayer="true"
     showguides="true"
     inkscape:guide-bbox="true"
     inkscape:snap-bbox="true">
    <inkscape:grid
       type="xygrid"
       id="grid3046"
       empspacing="4"
       visible="true"
       enabled="false"
       snapvisiblegridlinesonly="true" />
  </sodipodi:namedview>
  <g
     transform="matrix(0.16240158,0,0,0.16240158,-76.087448,-25.4595)"
     id="g1005">
    <path
       id="path972"
       d="m 583.05571,171.71087 c 27.03854,23.43535 27.99999,66.06638 2.14757,95.22322 -25.85243,29.15684 -68.72563,33.79466 -95.76418,10.3593 -27.03854,-23.43535 -27.99999,-66.06638 -2.14756,-95.22322 25.85243,-29.15684 68.72563,-33.79466 95.76417,-10.3593 z"
       inkscape:connector-curvature="0"
       style="fill:#8a715e;fill-opacity:1;stroke-width:2.93940401" />
    <path
       inkscape:connector-curvature="0"
       id="path978"
       d="m 510.58668,248.0791 c -6.29913,-0.89773 -11.59607,-6.01869 -12.74854,-12.32499 -0.22746,-1.24477 -0.25718,-2.45087 -0.18502,-7.51315 0.0855,-5.99617 0.0886,-6.0388 0.54933,-7.51496 1.9929,-6.38513 7.0675,-10.54 13.62509,-11.15564 1.33509,-0.12534 10.71005,-0.19917 28.57749,-0.22504 24.13952,-0.0349 26.69587,-0.013 27.7327,0.23919 6.14554,1.49427 10.54287,6.00446 11.75718,12.05888 0.29157,1.45388 0.31346,2.16755 0.23297,7.5991 -0.088,5.94525 -0.0927,6.00677 -0.55054,7.48022 -0.81814,2.63261 -1.99517,4.67434 -3.76002,6.52217 -1.67211,1.75069 -3.8488,3.15051 -6.13754,3.94695 -2.47079,0.85976 -1.85814,0.84141 -31.01648,0.92963 -14.96097,0.0454 -27.59545,0.0261 -28.07662,-0.0424 z m 57.42255,-2.54055 c 5.33297,-1.52316 9.06547,-5.67574 9.9352,-11.05338 0.22679,-1.40227 0.26381,-10.18531 0.0496,-11.71109 -0.41186,-2.93043 -1.66157,-5.38198 -3.83521,-7.52352 -1.51969,-1.49663 -2.67659,-2.27795 -4.39671,-2.96746 -2.16344,-0.86719 -2.74248,-0.90774 -11.70526,-0.82009 l -8.29061,0.0811 -1.60617,0.56485 c -4.45701,1.56747 -7.66103,5.03086 -8.79894,9.51124 -0.33056,1.30146 -0.36424,1.89495 -0.38408,6.76838 -0.0316,7.75411 -0.37804,10.40725 -1.73433,13.28208 -0.84111,1.78279 -2.18774,3.2478 -3.64236,3.96252 l -1.02667,0.50444 17.05208,-0.10931 c 17.04334,-0.10929 17.05276,-0.10962 18.38368,-0.4897 z m -17.58421,-16.39424 c 0.004,-4.85237 0.002,-9.01241 -0.004,-9.24457 l -0.0104,-0.42208 5.35952,-0.065 5.35951,-0.0649 -0.007,1.77533 -0.007,1.77532 -3.46104,0.0131 -3.46102,0.0131 -0.008,1.94183 -0.008,1.94182 3.2078,-0.0122 3.20777,-0.0121 -0.007,1.77297 -0.007,1.77296 -3.20777,0.0121 -3.2078,0.0122 -0.0154,3.79919 -0.0155,3.79921 -1.85713,0.007 -1.85715,0.007 0.007,-8.8225 z m 13.52741,1.93259 0.0279,-6.83857 1.94156,-0.007 1.94156,-0.007 -0.0279,6.83858 -0.0279,6.83857 -1.94153,0.007 -1.94156,0.007 z m 0.89123,-7.56195 c -1.08016,-0.55223 -1.46379,-2.1358 -0.75246,-3.106 0.84008,-1.14582 2.29753,-1.33415 3.31215,-0.42803 1.001,0.89316 0.78657,2.87901 -0.37547,3.48314 -0.59778,0.31078 -1.62888,0.3348 -2.18422,0.0509 z m -51.71937,9.23316 c 0.80336,-2.90487 1.49862,-5.28165 1.54506,-5.28176 0.0465,-1.1e-4 0.64734,2.3718 1.33535,5.27093 l 1.25094,5.27113 1.79359,0.041 1.79361,0.041 0.1793,-0.55498 c 0.24042,-0.74414 5.15933,-17.88083 5.15973,-17.97559 5.3e-4,-0.15046 -3.86615,-0.0545 -3.96097,0.0983 -0.0539,0.0869 -0.74055,2.57628 -1.52576,5.53184 l -1.42769,5.37378 -0.60921,-2.61106 c -0.33508,-1.43606 -0.9217,-3.92055 -1.30359,-5.52107 l -0.69435,-2.91004 -1.80516,0.006 -1.80516,0.006 -0.11208,0.46478 c -0.45834,1.90069 -2.74406,10.29366 -2.83082,10.39456 -0.0599,0.0694 -0.66873,-2.32155 -1.35305,-5.31365 l -1.24426,-5.44019 -2.07291,-0.0397 c -1.92133,-0.0367 -2.06639,-0.0177 -1.9839,0.26082 0.0929,0.31369 1.03672,4.06502 3.17377,12.61484 0.69572,2.78339 1.30457,5.19606 1.35304,5.36147 0.0786,0.26815 0.28278,0.29489 1.886,0.2461 l 1.79791,-0.0546 z m 18.71016,-1.59135 -0.0161,-6.88062 -1.89935,0.007 c -1.04464,0.004 -1.89958,0.0642 -1.89986,0.13385 -2e-4,0.0695 -0.0129,3.16601 -0.028,6.88078 l -0.0275,6.75414 1.94346,-0.007 1.94343,-0.007 z m -0.80519,-7.52818 c 1.00869,-0.56238 1.35404,-2.06755 0.71574,-3.11926 -0.34168,-0.56295 -1.19744,-1.0406 -1.85984,-1.03808 -0.60781,0.003 -1.53374,0.5427 -1.86958,1.09111 -0.59573,0.97284 -0.25214,2.55522 0.66218,3.04979 0.54959,0.29728 1.8317,0.30624 2.3515,0.0165 z"
       style="fill:#7c6655;fill-opacity:1;stroke-width:0.16884083" />
    <path
       inkscape:connector-curvature="0"
       id="rect989"
       transform="matrix(0.26458333,0,0,0.26458333,0,161.53332)"
       d="m 1771.6641,238.60938 c -6.1816,74.62714 20.0381,148.51128 78.1836,198.9082 102.1929,88.57459 264.2333,71.04673 361.9433,-39.15235 41.8087,-47.15263 65.0473,-103.62866 69.9649,-159.75585 z"
       style="fill:#68b723;fill-opacity:1;stroke:none;stroke-width:1.88976383;stroke-miterlimit:4;stroke-dasharray:none;stroke-opacity:1" />
    <path
       inkscape:connector-curvature="0"
       id="path994"
       transform="matrix(0.26458333,0,0,0.26458333,0,161.53332)"
       d="m 1881.1172,238.60938 c -0.077,3.3347 -0.139,7.64929 -0.2227,13.51367 -0.2727,19.13302 -0.1604,23.69184 0.6993,28.39648 4.3557,23.83484 24.3758,43.18904 48.1835,46.58203 1.8186,0.2589 49.5699,0.33175 106.1153,0.16016 110.2047,-0.33343 107.8901,-0.26419 117.2285,-3.51367 8.6503,-3.01017 16.8775,-8.29924 23.1973,-14.91602 6.6703,-6.98392 11.1187,-14.70232 14.2109,-24.65234 1.7304,-5.56895 1.7475,-5.80125 2.0801,-28.27149 0.1213,-8.18926 0.1767,-13.4752 0.1347,-17.29882 h -7.8144 c 0.3226,11.78216 0.1002,32.9552 -0.5723,37.11328 -3.2871,20.32493 -17.3947,36.02051 -37.5508,41.77734 -5.0302,1.43652 -5.0647,1.4385 -69.4804,1.85156 l -64.4492,0.41211 3.8808,-1.90625 c 5.4978,-2.7013 10.5866,-8.23846 13.7656,-14.97656 5.1262,-10.8655 6.4353,-20.89235 6.5547,-50.19922 0.026,-6.41233 0.063,-10.78549 0.1465,-14.07226 h -27.1992 l 0.057,24.53515 0.062,26.00586 -7.3457,0.0273 -7.3457,0.0274 0.1035,-25.5293 c 0.055,-13.53288 0.098,-24.02795 0.1016,-25.0664 h -12.4141 c -5.5724,19.48326 -13.4352,46.80995 -14.0273,48.64257 l -0.6777,2.09766 -6.7774,-0.1543 -6.7793,-0.15625 -4.7285,-19.92187 c -2.6003,-10.95734 -4.8711,-19.92229 -5.0469,-19.92188 -0.1755,4.2e-4 -2.8035,8.98386 -5.8398,19.96289 l -5.5195,19.95508 -6.7969,0.20703 c -6.0594,0.18441 -6.8299,0.0838 -7.127,-0.92969 -0.1832,-0.62517 -2.4838,-9.74377 -5.1133,-20.26367 -3.3566,-13.42919 -5.5027,-21.98367 -7.3945,-29.51757 z m 41.375,0 0.3574,1.56445 c 2.5864,11.30872 4.8869,20.34433 5.1133,20.08203 0.1925,-0.22388 3.2085,-11.12579 6.0508,-21.64648 z m 34.8574,0 c 1.0641,4.49933 2.1796,9.19236 2.9336,12.42382 l 2.3027,9.86914 5.3965,-20.31054 c 0.2026,-0.76259 0.3367,-1.23859 0.5352,-1.98242 z m 122.9902,0 c 0,6.26622 0.013,8.04239 0.01,16.92773 v 0 l -0.025,33.34375 7.0175,-0.0254 7.0196,-0.0274 0.059,-14.35937 0.059,-14.35742 12.123,-0.0469 12.125,-0.0469 0.025,-6.69922 0.027,-6.70117 -12.123,0.0449 -12.125,0.0469 0.031,-7.33984 v -0.75976 z m 51.2344,0 -0.1,24.23242 -0.1055,25.84765 7.3379,-0.0273 7.3379,-0.0273 0.1055,-25.84571 0.1,-24.17968 z"
       style="fill:#5ea520;fill-opacity:1;stroke-width:0.63813853" />
    <path
       id="path976"
       d="m 603.88431,216.27452 c -0.41048,16.22204 -6.65725,32.84924 -18.77653,46.51758 -25.85243,29.15685 -68.72563,33.79466 -95.76418,10.35931 -12.67318,-10.98434 -19.63974,-26.18011 -20.77824,-42.23874 0.16014,17.55687 7.12353,34.46288 20.87162,46.37888 27.03854,23.43535 69.91378,18.79524 95.76417,-10.3593 13.1511,-14.83205 19.31592,-33.14991 18.68316,-50.65773 z"
       inkscape:connector-curvature="0"
       style="opacity:0.1;stroke-width:2.93940401" />
    <path
       style="fill:#ffffff;stroke-width:0.16884083"
       d="m 507.94083,245.43326 c -6.29911,-0.89773 -11.59605,-6.01869 -12.74852,-12.32499 -0.22746,-1.24477 -0.25718,-2.45087 -0.18502,-7.51315 0.0855,-5.99617 0.0886,-6.0388 0.54933,-7.51496 1.99289,-6.38513 7.0675,-10.54 13.62509,-11.15564 1.33509,-0.12534 10.71004,-0.19917 28.57748,-0.22504 24.13954,-0.0349 26.69586,-0.013 27.73269,0.23919 6.14556,1.49427 10.54288,6.00446 11.7572,12.05888 0.29158,1.45388 0.31346,2.16755 0.23297,7.5991 -0.088,5.94525 -0.0927,6.00677 -0.55054,7.48022 -0.81814,2.63261 -1.99516,4.67434 -3.76001,6.52217 -1.67211,1.75069 -3.84882,3.15051 -6.13755,3.94695 -2.47078,0.85976 -1.85813,0.84141 -31.01648,0.92963 -14.96097,0.0454 -27.59544,0.0261 -28.07664,-0.0424 z m 57.42258,-2.54055 c 5.33296,-1.52316 9.06547,-5.67574 9.93519,-11.05338 0.22679,-1.40227 0.2638,-10.18531 0.0496,-11.71109 -0.41187,-2.93043 -1.66156,-5.38198 -3.8352,-7.52352 -1.5197,-1.49663 -2.67659,-2.27795 -4.39673,-2.96746 -2.16342,-0.86719 -2.74249,-0.90774 -11.70527,-0.82009 l -8.2906,0.0811 -1.60615,0.56485 c -4.45702,1.56747 -7.66105,5.03086 -8.79897,9.51124 -0.33055,1.30146 -0.36421,1.89495 -0.38407,6.76838 -0.0316,7.75411 -0.37803,10.40725 -1.73433,13.28208 -0.84111,1.78279 -2.18775,3.2478 -3.64236,3.96252 l -1.02667,0.50444 17.05208,-0.10931 c 17.04334,-0.10929 17.05276,-0.10962 18.38369,-0.4897 z m -17.58423,-16.39424 c 0.004,-4.85237 0.002,-9.01241 -0.004,-9.24457 l -0.0104,-0.42208 5.35952,-0.065 5.35951,-0.0649 -0.007,1.77533 -0.007,1.77532 -3.46104,0.0131 -3.46103,0.0131 -0.008,1.94183 -0.008,1.94182 3.2078,-0.0122 3.20778,-0.0121 -0.007,1.77297 -0.007,1.77296 -3.20778,0.0121 -3.2078,0.0122 -0.0154,3.79919 -0.0155,3.79921 -1.85712,0.007 -1.85715,0.007 0.007,-8.82249 z m 13.52742,1.93259 0.0279,-6.83857 1.94155,-0.007 1.94156,-0.007 -0.0279,6.83858 -0.0279,6.83857 -1.94153,0.007 -1.94156,0.007 z m 0.89123,-7.56195 c -1.08017,-0.55223 -1.4638,-2.1358 -0.75246,-3.106 0.84008,-1.14582 2.29751,-1.33415 3.31215,-0.42803 1.00099,0.89316 0.78656,2.87901 -0.37546,3.48314 -0.5978,0.31078 -1.62888,0.3348 -2.18423,0.0509 z m -51.71938,9.23316 c 0.80336,-2.90487 1.49863,-5.28165 1.54506,-5.28176 0.0465,-1.1e-4 0.64736,2.3718 1.33535,5.27093 l 1.25095,5.27113 1.7936,0.041 1.7936,0.041 0.1793,-0.55498 c 0.24042,-0.74414 5.15934,-17.88083 5.15973,-17.97559 5.2e-4,-0.15046 -3.86615,-0.0545 -3.96097,0.0983 -0.0539,0.0869 -0.74055,2.57628 -1.52577,5.53184 l -1.42768,5.37378 -0.60921,-2.61106 c -0.33509,-1.43606 -0.92169,-3.92055 -1.30359,-5.52107 l -0.69435,-2.91004 -1.80516,0.006 -1.80516,0.006 -0.11209,0.46477 c -0.45833,1.9007 -2.74405,10.29367 -2.83082,10.39457 -0.0599,0.0694 -0.66872,-2.32155 -1.35305,-5.31365 l -1.24425,-5.44019 -2.07291,-0.0397 c -1.92134,-0.0367 -2.06641,-0.0177 -1.9839,0.26081 0.0929,0.31369 1.03671,4.06503 3.17375,12.61485 0.69573,2.78339 1.30458,5.19606 1.35305,5.36146 0.0786,0.26815 0.28277,0.2949 1.886,0.24611 l 1.79791,-0.0546 z m 18.71017,-1.59135 -0.0161,-6.88062 -1.89933,0.007 c -1.04466,0.004 -1.89958,0.0642 -1.89986,0.13385 -2.1e-4,0.0695 -0.0129,3.16602 -0.028,6.88078 l -0.0275,6.75414 1.94347,-0.007 1.94342,-0.007 z m -0.80519,-7.52818 c 1.00868,-0.56238 1.35404,-2.06755 0.71573,-3.11926 -0.34169,-0.56295 -1.19743,-1.0406 -1.85983,-1.03808 -0.60781,0.003 -1.53375,0.5427 -1.86959,1.09111 -0.59572,0.97284 -0.25214,2.55522 0.66219,3.04979 0.5496,0.29728 1.83169,0.30624 2.3515,0.0165 z"
       id="path980"
       inkscape:connector-curvature="0" />
  </g>
</svg>
