<?xml version="1.0" encoding="UTF-8" standalone="no"?>
<svg
   xmlns:dc="http://purl.org/dc/elements/1.1/"
   xmlns:cc="http://creativecommons.org/ns#"
   xmlns:rdf="http://www.w3.org/1999/02/22-rdf-syntax-ns#"
   xmlns:svg="http://www.w3.org/2000/svg"
   xmlns="http://www.w3.org/2000/svg"
   xmlns:sodipodi="http://sodipodi.sourceforge.net/DTD/sodipodi-0.dtd"
   xmlns:inkscape="http://www.inkscape.org/namespaces/inkscape"
   viewBox="0 0 22 22"
   id="svg"
   version="1.1"
   inkscape:version="0.92.3 (2405546, 2018-03-11)"
   width="22"
   height="22"
   sodipodi:docname="notification-network-wireless-disconnected.svg">
  <defs
     id="defs81">
    <style
       id="current-color-scheme"
       type="text/css">
      .ColorScheme-Text {
        color:#7B7C7E;
      }
      .ColorScheme-Background{
        color:#EFF0F1;
      }
      .ColorScheme-Highlight{
        color:#3DAEE6;
      }
      .ColorScheme-ViewText {
        color:#7B7C7E;
      }
      .ColorScheme-ViewBackground{
        color:#FCFCFC;
      }
      .ColorScheme-ViewHover {
        color:#3DAEE6;
      }
      .ColorScheme-ViewFocus{
        color:#1E92FF;
      }
      .ColorScheme-ButtonText {
        color:#7B7C7E;
      }
      .ColorScheme-ButtonBackground{
        color:#EFF0F1;
      }
      .ColorScheme-ButtonHover {
        color:#3DAEE6;
      }
      .ColorScheme-ButtonFocus{
        color:#1E92FF;
      }
</style>
  </defs>
  <metadata
     id="metadata34">
    <rdf:RDF>
      <cc:Work
         rdf:about="">
        <dc:format>image/svg+xml</dc:format>
        <dc:type
           rdf:resource="http://purl.org/dc/dcmitype/StillImage" />
        <dc:title></dc:title>
      </cc:Work>
    </rdf:RDF>
  </metadata>
  <sodipodi:namedview
     pagecolor="#ffffff"
     bordercolor="#666666"
     borderopacity="1"
     objecttolerance="10"
     gridtolerance="10"
     guidetolerance="10"
     inkscape:pageopacity="0.06666667"
     inkscape:pageshadow="2"
     inkscape:window-width="1366"
     inkscape:window-height="718"
     id="namedview32"
     showgrid="true"
     inkscape:zoom="5.6568539"
     inkscape:cx="16.849493"
     inkscape:cy="7.0063015"
     inkscape:window-x="0"
     inkscape:window-y="25"
     inkscape:window-maximized="1"
     inkscape:current-layer="svg"
     borderlayer="true"
     showguides="true"
     inkscape:guide-bbox="true"
     inkscape:snap-bbox="true"
     units="px">
    <inkscape:grid
       type="xygrid"
       id="grid3046"
       empspacing="4"
       visible="true"
       enabled="false"
       snapvisiblegridlinesonly="true" />
  </sodipodi:namedview>
  <g
     transform="matrix(0.16240158,0,0,0.16240158,-6.3468254e-7,-26.303611)"
     id="g900">
    <g
       style="fill:#c6262e;fill-opacity:1"
       id="g29"
       transform="matrix(2.1285162,1.8448678,-2.0351436,2.2952722,65.492394,130.33644)">
      <path
         id="path27"
         d="M 24,1 C 36.703,1 47,11.297 47,24 47,36.703 36.703,47 24,47 11.297,47 1,36.703 1,24 1,11.297 11.297,1 24,1 Z"
         inkscape:connector-curvature="0"
         style="fill:#c6262e;fill-opacity:1" />
    </g>
    <path
       style="opacity:1;fill:#000000;fill-opacity:0.49019608;stroke-width:2.93940377"
       inkscape:connector-curvature="0"
       d="m 135.37023,221.47219 c -0.41047,16.22204 -6.65724,32.84924 -18.77652,46.51758 C 90.741279,297.14662 47.868074,301.78443 20.829532,278.34908 8.156347,267.36473 1.189788,252.16897 0.05128753,236.11034 c 0.1601395,17.55687 7.12353137,34.46287 20.87161747,46.37888 27.038541,23.43535 69.913781,18.79524 95.764175,-10.35931 13.1511,-14.83204 19.31591,-33.1499 18.68315,-50.65772 z"
       id="path51" />
    <path
       style="fill:#000000;fill-opacity:0.49019608;stroke-width:0.16884081"
       d="m 44.71843,255.9226 c -6.299115,-0.89773 -11.596052,-6.01869 -12.748527,-12.32499 -0.227464,-1.24477 -0.257182,-2.45087 -0.18502,-7.51315 0.08549,-5.99617 0.0886,-6.0388 0.54933,-7.51496 1.992897,-6.38513 7.067503,-10.54 13.62509,-11.15564 1.335092,-0.12534 10.710038,-0.19917 28.57749,-0.22504 24.139521,-0.0349 26.695857,-0.013 27.732687,0.23919 6.14555,1.49427 10.54287,6.00446 11.75719,12.05888 0.29157,1.45388 0.31346,2.16755 0.23297,7.5991 -0.088,5.94525 -0.0927,6.00677 -0.55054,7.48022 -0.81814,2.63261 -1.99517,4.67434 -3.76002,6.52217 -1.67211,1.75069 -3.84881,3.15051 -6.13755,3.94695 -2.47077,0.85976 -1.85813,0.84141 -31.016476,0.92963 -14.960963,0.0454 -27.595436,0.0261 -28.076624,-0.0424 z m 57.42257,-2.54055 c 5.33296,-1.52316 9.06546,-5.67574 9.93519,-11.05338 0.22678,-1.40227 0.2638,-10.18531 0.0496,-11.71109 -0.41187,-2.93043 -1.66157,-5.38198 -3.83521,-7.52352 -1.51969,-1.49663 -2.67659,-2.27795 -4.39671,-2.96746 -2.16344,-0.86719 -2.74249,-0.90774 -11.705271,-0.82009 l -8.290606,0.0811 -1.606157,0.56485 c -4.457011,1.56747 -7.661043,5.03086 -8.798954,9.51124 -0.330552,1.30146 -0.364229,1.89495 -0.384077,6.76838 -0.03159,7.75411 -0.378031,10.40725 -1.734331,13.28208 -0.841106,1.78279 -2.187744,3.2478 -3.642361,3.96252 l -1.026667,0.50444 17.052085,-0.10931 c 17.043339,-0.10929 17.052759,-0.10962 18.383689,-0.4897 z M 84.556777,236.98781 c 0.0038,-4.85237 0.0022,-9.01241 -0.0035,-9.24457 l -0.01041,-0.42208 5.359518,-0.065 5.35951,-0.0649 -0.0073,1.77533 -0.0073,1.77532 -3.46104,0.0131 -3.461024,0.0131 -0.0079,1.94183 -0.0079,1.94182 3.2078,-0.0122 3.207777,-0.0121 -0.0073,1.77297 -0.0072,1.77296 -3.207778,0.0121 -3.207794,0.0122 -0.01546,3.79919 -0.01548,3.79921 -1.857131,0.007 -1.857147,0.007 0.0069,-8.82249 z m 13.527419,1.93259 0.02786,-6.83857 1.941554,-0.007 1.94156,-0.007 -0.0279,6.83858 -0.0279,6.83857 -1.941545,0.007 -1.941557,0.007 z m 0.891226,-7.56195 c -1.080165,-0.55223 -1.46379,-2.1358 -0.752461,-3.106 0.840082,-1.14582 2.297519,-1.33415 3.312149,-0.42803 1.001,0.89316 0.78657,2.87901 -0.37546,3.48314 -0.59779,0.31078 -1.628884,0.3348 -2.184228,0.0509 z m -51.71937,9.23316 c 0.80336,-2.90487 1.498627,-5.28165 1.545052,-5.28176 0.04646,-1.1e-4 0.647349,2.3718 1.335357,5.27093 l 1.25094,5.27113 1.793595,0.041 1.793611,0.041 0.1793,-0.55498 c 0.240412,-0.74414 5.15933,-17.88083 5.159716,-17.97559 6.09e-4,-0.15046 -3.86614,-0.0545 -3.960959,0.0983 -0.05392,0.0869 -0.74055,2.57628 -1.525765,5.53184 l -1.427682,5.37378 -0.609212,-2.61106 c -0.335088,-1.43606 -0.9217,-3.92055 -1.303589,-5.52107 l -0.694351,-2.91004 -1.805163,0.006 -1.805157,0.006 -0.11209,0.46477 c -0.45833,1.9007 -2.744051,10.29367 -2.830813,10.39457 -0.0599,0.0694 -0.668724,-2.32155 -1.353052,-5.31365 l -1.244252,-5.44019 -2.072911,-0.0397 c -1.921339,-0.0367 -2.066405,-0.0177 -1.9839,0.26081 0.09292,0.31369 1.036713,4.06503 3.173753,12.61485 0.695726,2.78339 1.304583,5.19606 1.353042,5.36146 0.07855,0.26815 0.28278,0.2949 1.886007,0.24611 l 1.797904,-0.0546 z m 18.710158,-1.59135 -0.01606,-6.88062 -1.899346,0.007 c -1.044645,0.004 -1.899576,0.0642 -1.899861,0.13385 -2.01e-4,0.0695 -0.0129,3.16601 -0.02803,6.88078 l -0.02751,6.75414 1.943461,-0.007 1.943435,-0.007 z m -0.805188,-7.52818 c 1.008684,-0.56238 1.354045,-2.06755 0.715733,-3.11926 -0.341684,-0.56295 -1.197429,-1.0406 -1.859828,-1.03808 -0.607813,0.003 -1.533749,0.5427 -1.869588,1.09111 -0.595726,0.97284 -0.252144,2.55522 0.662189,3.04979 0.549589,0.29728 1.831695,0.30624 2.351494,0.0165 z"
       id="path839"
       inkscape:connector-curvature="0" />
    <path
       inkscape:connector-curvature="0"
       id="path843"
       d="m 39.426763,250.63093 c -6.299115,-0.89773 -11.596052,-6.01869 -12.748527,-12.32499 -0.227464,-1.24477 -0.257182,-2.45087 -0.18502,-7.51315 0.08549,-5.99617 0.0886,-6.0388 0.54933,-7.51496 1.992897,-6.38513 7.067503,-10.54 13.62509,-11.15564 1.335092,-0.12534 10.710038,-0.19917 28.57749,-0.22504 24.139521,-0.0349 26.695855,-0.013 27.732688,0.23919 6.145556,1.49427 10.542876,6.00446 11.757196,12.05888 0.29157,1.45388 0.31346,2.16755 0.23297,7.5991 -0.088,5.94525 -0.0927,6.00677 -0.55054,7.48022 -0.81814,2.63261 -1.99517,4.67434 -3.76002,6.52217 -1.67211,1.75069 -3.84881,3.15051 -6.137552,3.94695 -2.470777,0.85976 -1.858131,0.84141 -31.016481,0.92963 -14.960963,0.0454 -27.595436,0.0261 -28.076624,-0.0424 z m 57.422569,-2.54055 c 5.332968,-1.52316 9.065468,-5.67574 9.935198,-11.05338 0.22678,-1.40227 0.2638,-10.18531 0.0496,-11.71109 -0.41187,-2.93043 -1.66157,-5.38198 -3.83521,-7.52352 -1.51969,-1.49663 -2.67659,-2.27795 -4.396717,-2.96746 -2.163436,-0.86719 -2.742491,-0.90774 -11.705271,-0.82009 l -8.290606,0.0811 -1.606157,0.56485 c -4.457011,1.56747 -7.661043,5.03086 -8.798954,9.51124 -0.330552,1.30146 -0.364229,1.89495 -0.384077,6.76838 -0.03159,7.75411 -0.378031,10.40725 -1.734331,13.28208 -0.841106,1.78279 -2.187744,3.2478 -3.642361,3.96252 l -1.026667,0.50444 17.052085,-0.10931 c 17.043336,-0.10929 17.052759,-0.10962 18.383686,-0.4897 z M 79.26511,231.69614 c 0.0038,-4.85237 0.0022,-9.01241 -0.0035,-9.24457 l -0.01041,-0.42208 5.359518,-0.065 5.35951,-0.0649 -0.0073,1.77533 -0.0073,1.77532 -3.46104,0.0131 -3.461024,0.0131 -0.0079,1.94183 -0.0079,1.94182 3.2078,-0.0122 3.207777,-0.0121 -0.0073,1.77297 -0.0072,1.77296 -3.207778,0.0121 -3.207794,0.0122 -0.01546,3.79919 -0.01548,3.79921 -1.857131,0.007 -1.857147,0.007 0.0069,-8.82249 z m 13.527419,1.93259 0.02786,-6.83857 1.941551,-0.007 1.941562,-0.007 -0.02786,6.83858 -0.02786,6.83857 -1.941544,0.007 -1.941557,0.007 z m 0.891226,-7.56195 c -1.080165,-0.55223 -1.46379,-2.1358 -0.752461,-3.106 0.840082,-1.14582 2.29752,-1.33415 3.312153,-0.42803 1.000997,0.89316 0.786566,2.87901 -0.375466,3.48314 -0.59779,0.31078 -1.628882,0.3348 -2.184226,0.0509 z m -51.71937,9.23316 c 0.80336,-2.90487 1.498627,-5.28165 1.545052,-5.28176 0.04646,-1.1e-4 0.647349,2.3718 1.335357,5.27093 l 1.25094,5.27113 1.793595,0.041 1.793611,0.041 0.1793,-0.55498 c 0.240412,-0.74414 5.15933,-17.88083 5.159716,-17.97559 6.09e-4,-0.15046 -3.86614,-0.0545 -3.960959,0.0983 -0.05392,0.0869 -0.74055,2.57628 -1.525765,5.53184 l -1.427682,5.37378 -0.609212,-2.61106 c -0.335088,-1.43606 -0.9217,-3.92055 -1.303589,-5.52107 l -0.694351,-2.91004 -1.805163,0.006 -1.805157,0.006 -0.11209,0.46477 c -0.45833,1.9007 -2.744051,10.29367 -2.830813,10.39457 -0.0599,0.0694 -0.668724,-2.32155 -1.353052,-5.31365 l -1.244252,-5.44019 -2.072911,-0.0397 c -1.921339,-0.0367 -2.066405,-0.0177 -1.9839,0.26081 0.09292,0.31369 1.036713,4.06503 3.173753,12.61485 0.695726,2.78339 1.304583,5.19606 1.353042,5.36146 0.07855,0.26815 0.28278,0.2949 1.886007,0.24611 l 1.797904,-0.0546 z m 18.710158,-1.59135 -0.01606,-6.88062 -1.899346,0.007 c -1.044645,0.004 -1.899576,0.0642 -1.899861,0.13385 -2.01e-4,0.0695 -0.0129,3.16601 -0.02803,6.88078 l -0.02751,6.75414 1.943461,-0.007 1.943435,-0.007 z m -0.805188,-7.52818 c 1.008684,-0.56238 1.354045,-2.06755 0.715733,-3.11926 -0.341684,-0.56295 -1.197429,-1.0406 -1.859828,-1.03808 -0.607813,0.003 -1.533749,0.5427 -1.869588,1.09111 -0.595726,0.97284 -0.252144,2.55522 0.662189,3.04979 0.549589,0.29728 1.831695,0.30624 2.351494,0.0165 z"
       style="fill:#ffffff;stroke-width:0.16884081" />
  </g>
</svg>
