<?xml version="1.0" encoding="UTF-8" standalone="no"?>
<svg
   xmlns:dc="http://purl.org/dc/elements/1.1/"
   xmlns:cc="http://creativecommons.org/ns#"
   xmlns:rdf="http://www.w3.org/1999/02/22-rdf-syntax-ns#"
   xmlns:svg="http://www.w3.org/2000/svg"
   xmlns="http://www.w3.org/2000/svg"
   xmlns:sodipodi="http://sodipodi.sourceforge.net/DTD/sodipodi-0.dtd"
   xmlns:inkscape="http://www.inkscape.org/namespaces/inkscape"
   viewBox="0 0 22 22"
   id="svg"
   version="1.1"
   inkscape:version="0.92.2 5c3e80d, 2017-08-06"
   width="100%"
   height="100%"
   sodipodi:docname="notification-message-email.svg">
  <defs
     id="defs81">
    <style
       id="current-color-scheme"
       type="text/css">
      .ColorScheme-Text {
        color:#31363b;
      }
      .ColorScheme-Background{
        color:#EFF0F1;
      }
      .ColorScheme-Highlight{
        color:#3DAEE9;
      }
      .ColorScheme-ViewText {
        color:#31363b;
      }
      .ColorScheme-ViewBackground{
        color:#FCFCFC;
      }
      .ColorScheme-ViewHover {
        color:#3DAEE9;
      }
      .ColorScheme-ViewFocus{
        color:#1E92FF;
      }
      .ColorScheme-ButtonText {
        color:#7B7C7E;
      }
      .ColorScheme-ButtonBackground{
        color:#EFF0F1;
      }
      .ColorScheme-ButtonHover {
        color:#3DAEE6;
      }
      .ColorScheme-ButtonFocus{
        color:#1E92FF;
      }
</style>
  </defs>
  <metadata
     id="metadata34">
    <rdf:RDF>
      <cc:Work
         rdf:about="">
        <dc:format>image/svg+xml</dc:format>
        <dc:type
           rdf:resource="http://purl.org/dc/dcmitype/StillImage" />
        <dc:title></dc:title>
      </cc:Work>
    </rdf:RDF>
  </metadata>
  <sodipodi:namedview
     pagecolor="#ffffff"
     bordercolor="#666666"
     borderopacity="1"
     objecttolerance="10"
     gridtolerance="10"
     guidetolerance="10"
     inkscape:pageopacity="0.12156863"
     inkscape:pageshadow="2"
     inkscape:window-width="1366"
     inkscape:window-height="717"
     id="namedview32"
     showgrid="true"
     inkscape:zoom="8"
     inkscape:cx="-5.930279"
     inkscape:cy="13.315023"
     inkscape:window-x="0"
     inkscape:window-y="24"
     inkscape:window-maximized="1"
     inkscape:current-layer="svg"
     borderlayer="true"
     showguides="true"
     inkscape:guide-bbox="true"
     inkscape:snap-bbox="true"
     fit-margin-top="0"
     fit-margin-left="0"
     fit-margin-right="0"
     fit-margin-bottom="0">
    <inkscape:grid
       type="xygrid"
       id="grid3046"
       empspacing="4"
       visible="true"
       enabled="false"
       snapvisiblegridlinesonly="true"
       originx="32"
       originy="0"
       spacingx="1.0666667"
       spacingy="1.0666667" />
  </sodipodi:namedview>
  <g
     id="mail-unread-new"
     transform="translate(30,0)" />
  <g
     transform="matrix(0.16240158,0,0,0.16240158,-6.4278092e-7,-26.233229)"
     id="g852">
    <path
       style="fill:#3689e6;fill-opacity:1;stroke-width:2.93940377"
       inkscape:connector-curvature="0"
       d="m 114.54164,176.47539 c 27.03854,23.43536 28,66.06638 2.14757,95.22322 -25.85243,29.15684 -68.725635,33.79466 -95.764176,10.3593 -27.0385417,-23.43536 -27.9999994,-66.06638 -2.14757,-95.22322 25.852429,-29.15684 68.725634,-33.79466 95.764176,-10.3593 z"
       id="path27" />
    <path
       style="opacity:0.1;stroke-width:2.93940377"
       inkscape:connector-curvature="0"
       d="m 135.37023,221.03904 c -0.41047,16.22204 -6.65724,32.84924 -18.77652,46.51758 C 90.741279,296.71347 47.868074,301.35128 20.829532,277.91593 8.156347,266.93158 1.189788,251.73582 0.05128753,235.67719 c 0.1601395,17.55687 7.12353137,34.46287 20.87161747,46.37888 27.038541,23.43535 69.913781,18.79524 95.764175,-10.35931 13.1511,-14.83204 19.31591,-33.1499 18.68315,-50.65772 z"
       id="path51" />
    <path
       style="fill:#317ccf;fill-opacity:1;stroke-width:0.18358651"
       d="m 34.581092,261.36893 c -0.404097,-0.12736 -0.964654,-0.35231 -1.245676,-0.49987 l -0.510959,-0.26831 12.767427,-12.916 12.767442,-12.91601 2.88926,2.83112 c 1.589077,1.55713 3.336723,3.11466 3.883597,3.46126 3.040173,1.9267 6.712808,2.0986 9.943927,0.46539 0.88595,-0.4478 1.845447,-1.27252 4.222257,-3.62915 l 3.075774,-3.04967 12.871492,12.82417 12.871177,12.82448 -0.96832,0.4605 -0.96835,0.46054 -35.432084,0.0914 c -28.179981,0.0729 -35.582634,0.0442 -36.166966,-0.13993 z m -4.833284,-4.26474 c -0.569714,-1.45522 -0.591006,-2.30736 -0.628562,-25.1474 -0.03717,-22.7933 -0.03223,-23.17756 0.33453,-24.37167 0.204934,-0.66729 0.44227,-1.21337 0.527399,-1.2135 0.107337,-2e-4 20.199834,20.1128 25.520129,25.54591 0.0212,0.0217 -5.718776,5.81473 -12.75552,12.87348 -12.788799,12.82877 -12.794212,12.83388 -12.998016,12.31323 z M 97.998928,244.73943 85.235464,232.01585 97.953798,219.1292 c 6.995082,-7.08767 12.771062,-12.88673 12.835532,-12.88679 0.0644,-9e-5 0.27381,0.47459 0.46527,1.05487 0.33379,1.01175 0.34963,2.01999 0.3857,24.55412 0.036,22.53414 0.0234,23.54241 -0.30713,24.55523 -0.1896,0.58088 -0.39558,1.05624 -0.45777,1.05635 -0.0622,1.2e-4 -5.85663,-5.72544 -12.876482,-12.72345 z m -29.1562,-6.37191 c -0.42186,-0.13726 -1.04192,-0.42125 -1.377906,-0.63108 -0.336001,-0.20981 -8.292809,-8.04268 -17.681821,-17.40634 l -17.070935,-17.02482 0.979149,-0.44415 0.979137,-0.44413 35.248487,-0.10543 c 34.839331,-0.10418 35.262341,-0.10111 36.442381,0.26108 0.65665,0.20157 1.28729,0.42913 1.40142,0.50572 0.13064,0.0876 -6.11696,6.52621 -16.862174,17.37759 -14.486452,14.62958 -17.208064,17.29832 -17.984025,17.63477 -1.128226,0.48919 -3.024753,0.61802 -4.073705,0.27673 z"
       id="path846"
       inkscape:connector-curvature="0" />
    <path
       inkscape:connector-curvature="0"
       id="path844"
       d="m 31.935259,258.72309 c -0.404097,-0.12736 -0.964654,-0.35231 -1.245676,-0.49987 l -0.510959,-0.26831 12.767427,-12.916 12.767442,-12.91601 2.88926,2.83112 c 1.589077,1.55713 3.336723,3.11466 3.883597,3.46126 3.040173,1.9267 6.712808,2.0986 9.943927,0.46539 0.88595,-0.4478 1.845447,-1.27252 4.222257,-3.62915 l 3.075774,-3.04967 12.871492,12.82417 12.87118,12.82448 -0.96832,0.4605 -0.96835,0.46054 -35.432087,0.0914 c -28.179981,0.0729 -35.582634,0.0442 -36.166966,-0.13993 z m -4.833284,-4.26474 c -0.569714,-1.45522 -0.591006,-2.30736 -0.628562,-25.1474 -0.03717,-22.7933 -0.03223,-23.17756 0.33453,-24.37167 0.204934,-0.66729 0.44227,-1.21337 0.527399,-1.2135 0.107337,-2e-4 20.199834,20.1128 25.520129,25.54591 0.0212,0.0217 -5.718776,5.81473 -12.75552,12.87348 -12.788799,12.82877 -12.794212,12.83388 -12.998016,12.31323 z m 68.25112,-12.36476 -12.763464,-12.72358 12.718334,-12.88665 c 6.995085,-7.08767 12.771065,-12.88673 12.835535,-12.88679 0.0644,-9e-5 0.27381,0.47459 0.46527,1.05487 0.33379,1.01175 0.34963,2.01999 0.3857,24.55412 0.036,22.53414 0.0234,23.54241 -0.30713,24.55523 -0.1896,0.58088 -0.39558,1.05624 -0.45777,1.05635 -0.0622,1.2e-4 -5.85663,-5.72544 -12.876485,-12.72345 z m -29.1562,-6.37191 c -0.42186,-0.13726 -1.04192,-0.42125 -1.377906,-0.63108 -0.336001,-0.20981 -8.292809,-8.04268 -17.681821,-17.40634 l -17.070935,-17.02482 0.979149,-0.44415 0.979137,-0.44413 35.248487,-0.10543 c 34.839334,-0.10418 35.262344,-0.10111 36.442384,0.26108 0.65665,0.20157 1.28729,0.42913 1.40142,0.50572 0.13064,0.0876 -6.116965,6.52621 -16.862177,17.37759 -14.486452,14.62958 -17.208064,17.29832 -17.984025,17.63477 -1.128226,0.48919 -3.024753,0.61802 -4.073705,0.27673 z"
       style="fill:#ffffff;stroke-width:0.18358651" />
  </g>
</svg>
