<?xml version="1.0" encoding="UTF-8" standalone="no"?>
<svg
   xmlns:dc="http://purl.org/dc/elements/1.1/"
   xmlns:cc="http://creativecommons.org/ns#"
   xmlns:rdf="http://www.w3.org/1999/02/22-rdf-syntax-ns#"
   xmlns:svg="http://www.w3.org/2000/svg"
   xmlns="http://www.w3.org/2000/svg"
   xmlns:sodipodi="http://sodipodi.sourceforge.net/DTD/sodipodi-0.dtd"
   xmlns:inkscape="http://www.inkscape.org/namespaces/inkscape"
   viewBox="0 0 22 22"
   height="22"
   width="22"
   version="1.1"
   id="svg2"
   inkscape:version="0.92.2 5c3e80d, 2017-08-06"
   sodipodi:docname="exaile.svg">
  <sodipodi:namedview
     pagecolor="#ffffff"
     bordercolor="#666666"
     borderopacity="1"
     objecttolerance="10"
     gridtolerance="10"
     guidetolerance="10"
     inkscape:pageopacity="0"
     inkscape:pageshadow="2"
     inkscape:window-width="1366"
     inkscape:window-height="717"
     id="namedview18"
     showgrid="false"
     inkscape:zoom="13"
     inkscape:cx="18.121651"
     inkscape:cy="11.749549"
     inkscape:window-x="0"
     inkscape:window-y="24"
     inkscape:window-maximized="1"
     inkscape:current-layer="svg2" />
  <metadata
     id="metadata8">
    <rdf:RDF>
      <cc:Work
         rdf:about="">
        <dc:format>image/svg+xml</dc:format>
        <dc:type
           rdf:resource="http://purl.org/dc/dcmitype/StillImage" />
        <dc:title />
      </cc:Work>
    </rdf:RDF>
  </metadata>
  <defs
     id="defs6">
    <filter
       height="1.096"
       y="-0.048"
       width="1.096"
       x="-0.048"
       id="filter4329"
       style="color-interpolation-filters:sRGB">
      <feGaussianBlur
         id="feGaussianBlur4331"
         stdDeviation="2.1324205" />
    </filter>
    <filter
       height="1.0327445"
       y="-0.016372267"
       width="1.0399742"
       x="-0.019987123"
       id="filter4376"
       style="color-interpolation-filters:sRGB">
      <feGaussianBlur
         id="feGaussianBlur4378"
         stdDeviation="1.1736058" />
    </filter>
    <filter
       height="1.0570984"
       y="-0.0285492"
       width="1.0632123"
       x="-0.031606145"
       id="filter4436"
       style="color-interpolation-filters:sRGB">
      <feGaussianBlur
         id="feGaussianBlur4438"
         stdDeviation="0.63519096" />
    </filter>
  </defs>
  <g
     id="g830"
     transform="matrix(0.04296875,0,0,0.04296875,-3.9561079e-5,21.054675)">
    <path
       id="path884"
       d="m 432.91323,-433.52603 c 102.19292,88.57459 105.82677,249.69969 8.1168,359.898783 C 343.32007,36.571819 181.27959,54.100604 79.086683,-34.474001 -23.106222,-123.04858 -26.740086,-284.17369 70.969884,-394.37277 168.67985,-504.57185 330.72033,-522.10062 432.91323,-433.52603 Z"
       inkscape:connector-curvature="0"
       style="fill:#3689e6;fill-opacity:1;stroke-width:11.10955715" />
    <path
       id="path886"
       d="m 511.63546,-265.09649 c -1.55138,61.31165 -25.16121,124.1546 -70.96636,175.814471 C 342.95913,20.917092 180.91864,38.445832 78.725739,-50.128727 30.827068,-91.644364 4.4968008,-149.07717 0.19380894,-209.77119 0.7990246,-143.41452 27.117386,-79.51783 79.078633,-34.480936 181.27154,54.093599 343.31969,36.556179 441.02198,-73.634252 490.72694,-129.69234 514.02699,-198.92519 511.63546,-265.09649 Z"
       inkscape:connector-curvature="0"
       style="opacity:1;fill:#000000;fill-opacity:0.49019608;stroke-width:11.10955715" />
    <path
       sodipodi:nodetypes="cscscccc"
       inkscape:connector-curvature="0"
       id="path888"
       d="M 168.22625,-65.998087 C 163.28701,-73.050981 162.5,-93.418848 162.5,-214.18092 c 0,-123.57075 0.70915,-141.01312 6.00839,-148.58469 4.82226,-6.8855 8.34996,-8.19855 17.87369,-6.65302 13.20548,2.14306 184.43512,121.88228 196.83287,137.64408 8.37653,10.64888 9.20097,21.21619 2.58229,33.12601 -2.49872,4.49578 -46.53619,38.02098 -97.861,74.50063 -98.66191,70.12513 -108.10763,74.713256 -119.70999,58.149823 z"
       style="fill:#000000;fill-opacity:0.49019608;stroke-width:3.67904639" />
    <path
       style="fill:#ffffff;stroke-width:3.67904639"
       d="m 148.22618,-85.998098 c -4.93923,-7.052893 -5.72624,-27.420762 -5.72624,-148.182832 0,-123.57075 0.70914,-141.01312 6.00839,-148.58468 4.82226,-6.88551 8.34996,-8.19856 17.87368,-6.65303 13.20549,2.14307 184.43513,121.88228 196.83293,137.64409 8.37651,10.64887 9.20095,21.21618 2.58228,33.126 -2.49873,4.49578 -46.53622,38.02098 -97.86103,74.50066 -98.66193,70.125123 -108.10765,74.713225 -119.71001,58.149792 z"
       id="path890"
       inkscape:connector-curvature="0"
       sodipodi:nodetypes="cscscccc" />
  </g>
</svg>
