<?xml version="1.0" encoding="UTF-8" standalone="no"?>
<!-- Created with Inkscape (http://www.inkscape.org/) -->

<svg
   xmlns:dc="http://purl.org/dc/elements/1.1/"
   xmlns:cc="http://creativecommons.org/ns#"
   xmlns:rdf="http://www.w3.org/1999/02/22-rdf-syntax-ns#"
   xmlns:svg="http://www.w3.org/2000/svg"
   xmlns="http://www.w3.org/2000/svg"
   xmlns:sodipodi="http://sodipodi.sourceforge.net/DTD/sodipodi-0.dtd"
   xmlns:inkscape="http://www.inkscape.org/namespaces/inkscape"
   width="22"
   height="22"
   id="svg2"
   version="1.1"
   inkscape:version="0.92.2 5c3e80d, 2017-08-06"
   viewBox="0 0 22 22"
   sodipodi:docname="quota.svg">
  <defs
     id="defs4" />
  <sodipodi:namedview
     id="base"
     pagecolor="#ffffff"
     bordercolor="#ffffff"
     borderopacity="1.0"
     inkscape:pageopacity="0.0"
     inkscape:pageshadow="2"
     inkscape:zoom="15.839192"
     inkscape:cx="11.377494"
     inkscape:cy="11.435505"
     inkscape:document-units="px"
     inkscape:current-layer="layer1"
     showgrid="true"
     inkscape:showpageshadow="false"
     borderlayer="true"
     inkscape:window-width="1366"
     inkscape:window-height="717"
     inkscape:window-x="0"
     inkscape:window-y="24"
     inkscape:window-maximized="1"
     units="px"
     inkscape:snap-bbox="true"
     inkscape:bbox-paths="true"
     inkscape:bbox-nodes="true"
     inkscape:object-nodes="true">
    <inkscape:grid
       type="xygrid"
       id="grid4101"
       enabled="false" />
  </sodipodi:namedview>
  <metadata
     id="metadata7">
    <rdf:RDF>
      <cc:Work
         rdf:about="">
        <dc:format>image/svg+xml</dc:format>
        <dc:type
           rdf:resource="http://purl.org/dc/dcmitype/StillImage" />
        <dc:title />
      </cc:Work>
    </rdf:RDF>
  </metadata>
  <g
     inkscape:label="Capa 1"
     inkscape:groupmode="layer"
     id="layer1"
     transform="translate(0,-1030.3622)">
    <g
       id="g826">
      <path
         style="fill:#1c4675;fill-opacity:1;stroke-width:0.47736382"
         inkscape:connector-curvature="0"
         d="m 18.601776,1032.7888 c 4.391102,3.8059 4.547244,10.7293 0.348769,15.4644 -4.198476,4.7351 -11.161151,5.4883 -15.5522526,1.6823 -4.39110326,-3.8059 -4.5472443,-10.7292 -0.3487688,-15.4644 4.1984755,-4.7351 11.1611514,-5.4883 15.5522524,-1.6823 z"
         id="path891" />
      <path
         id="path893"
         d="m 18.019243,1033.4145 c 4.083336,3.5392 4.228536,9.9773 0.324324,14.3806 -3.904212,4.4032 -10.3788849,5.1036 -14.4622225,1.5644 -4.08333761,-3.5392 -4.22853599,-9.9773 -0.3243241,-14.3805 3.904212,-4.4032 10.3788856,-5.1036 14.4622226,-1.5645 z"
         inkscape:connector-curvature="0"
         style="fill:#ffffff;fill-opacity:1;stroke-width:0.44390622" />
      <path
         style="fill:#3689e6;fill-opacity:1;stroke:none;stroke-width:0.04296875px;stroke-linecap:butt;stroke-linejoin:miter;stroke-opacity:1"
         d="m 12.024473,1030.3629 c -3.2292042,-0.022 -6.5595003,1.3841 -8.9749283,4.1082 -4.1984771,4.7352 -4.0423182,11.6585 0.348785,15.4644 4.3911017,3.806 11.3537783,3.0528 15.5522543,-1.6823 1.380452,-1.5569 2.289968,-3.3504 2.733129,-5.1918 -0.843046,-1.5421 -2.911097,-5.1841 -5.070479,-7.9093 -1.499379,-1.8923 -3.26466,-3.6017 -4.588761,-4.7892 z"
         id="path895"
         inkscape:connector-curvature="0" />
      <path
         style="opacity:1;stroke-width:0.47736382;fill:#000000;fill-opacity:0.49019608"
         inkscape:connector-curvature="0"
         d="m 21.984372,1040.026 c -0.06666,2.6345 -1.081146,5.3348 -3.049336,7.5545 -4.198476,4.7351 -11.1611513,5.4883 -15.5522546,1.6824 -2.0581444,-1.7839 -3.1895248,-4.2517 -3.374419,-6.8597 0.02600699,2.8513 1.1568725,5.5969 3.3895841,7.5321 4.3911016,3.8059 11.3541085,3.0523 15.5522525,-1.6824 2.135759,-2.4088 3.136934,-5.3836 3.034173,-8.2269 z"
         id="path897" />
    </g>
  </g>
</svg>
