<?xml version="1.0" encoding="UTF-8" standalone="no"?>
<!-- Created with Inkscape (http://www.inkscape.org/) -->

<svg
   xmlns:dc="http://purl.org/dc/elements/1.1/"
   xmlns:cc="http://creativecommons.org/ns#"
   xmlns:rdf="http://www.w3.org/1999/02/22-rdf-syntax-ns#"
   xmlns:svg="http://www.w3.org/2000/svg"
   xmlns="http://www.w3.org/2000/svg"
   xmlns:sodipodi="http://sodipodi.sourceforge.net/DTD/sodipodi-0.dtd"
   xmlns:inkscape="http://www.inkscape.org/namespaces/inkscape"
   width="22"
   height="22"
   id="svg2"
   version="1.1"
   inkscape:version="0.92.2 5c3e80d, 2017-08-06"
   viewBox="0 0 22 22"
   sodipodi:docname="quota-90.svg">
  <defs
     id="defs4" />
  <sodipodi:namedview
     id="base"
     pagecolor="#ffffff"
     bordercolor="#ffffff"
     borderopacity="1.0"
     inkscape:pageopacity="0.0"
     inkscape:pageshadow="2"
     inkscape:zoom="7.919596"
     inkscape:cx="12.538593"
     inkscape:cy="7.9717636"
     inkscape:document-units="px"
     inkscape:current-layer="layer1"
     showgrid="true"
     inkscape:showpageshadow="false"
     borderlayer="true"
     inkscape:window-width="1366"
     inkscape:window-height="717"
     inkscape:window-x="0"
     inkscape:window-y="24"
     inkscape:window-maximized="1"
     units="px"
     inkscape:snap-bbox="true"
     inkscape:bbox-paths="true"
     inkscape:bbox-nodes="true"
     inkscape:object-nodes="true">
    <inkscape:grid
       type="xygrid"
       id="grid4101"
       enabled="false" />
  </sodipodi:namedview>
  <metadata
     id="metadata7">
    <rdf:RDF>
      <cc:Work
         rdf:about="">
        <dc:format>image/svg+xml</dc:format>
        <dc:type
           rdf:resource="http://purl.org/dc/dcmitype/StillImage" />
        <dc:title />
      </cc:Work>
    </rdf:RDF>
  </metadata>
  <g
     inkscape:label="Capa 1"
     inkscape:groupmode="layer"
     id="layer1"
     transform="translate(0,-1030.3622)">
    <g
       id="g826">
      <path
         style="fill:#355d12;fill-opacity:1;stroke-width:0.47736382"
         inkscape:connector-curvature="0"
         d="m 18.601712,1032.7888 c 4.391101,3.806 4.547244,10.7293 0.348768,15.4644 -4.198475,4.7352 -11.1611505,5.4883 -15.5522522,1.6824 -4.39110321,-3.8059 -4.5472442,-10.7293 -0.3487687,-15.4644 4.1984755,-4.7351 11.1611509,-5.4883 15.5522529,-1.6824 z"
         id="path865" />
      <path
         id="path867"
         d="m 18.019179,1033.4146 c 4.083336,3.5392 4.228536,9.9773 0.324324,14.3805 -3.904212,4.4033 -10.3788854,5.1037 -14.462223,1.5645 -4.08333766,-3.5392 -4.22853604,-9.9773 -0.3243241,-14.3805 3.9042119,-4.4033 10.3788851,-5.1037 14.4622231,-1.5645 z"
         inkscape:connector-curvature="0"
         style="fill:#ffffff;fill-opacity:1;stroke-width:0.44390622" />
      <path
         style="fill:#68b723;fill-opacity:1;stroke:none;stroke-width:0.04296875px;stroke-linecap:butt;stroke-linejoin:miter;stroke-opacity:1"
         d="m 12.024409,1030.363 c -3.2292048,-0.022 -6.5595009,1.384 -8.9749288,4.1082 -4.1984771,4.7351 -4.04231825,11.6585 0.348785,15.4644 4.3911016,3.8059 11.3537788,3.0528 15.5522538,-1.6823 1.380453,-1.5569 2.289968,-3.3504 2.73313,-5.1919 -0.843046,-1.5421 -2.911097,-5.184 -5.07048,-7.9092 -1.499379,-1.8923 -3.26466,-3.6017 -4.58876,-4.7892 z"
         id="path869"
         inkscape:connector-curvature="0" />
      <path
         style="opacity:1;stroke-width:0.47736382;fill:#000000;fill-opacity:0.49019608"
         inkscape:connector-curvature="0"
         d="m 21.984308,1040.026 c -0.06666,2.6345 -1.081147,5.3348 -3.049337,7.5546 -4.198475,4.7351 -11.1611509,5.4883 -15.5522541,1.6823 -2.0581445,-1.7838 -3.18952485,-4.2516 -3.37441905,-6.8596 0.02600699,2.8513 1.15687255,5.5968 3.38958405,7.532 4.3911016,3.8059 11.3541081,3.0524 15.5522521,-1.6824 2.13576,-2.4087 3.136935,-5.3836 3.034174,-8.2269 z"
         id="path871" />
    </g>
  </g>
</svg>
