<?xml version="1.0" encoding="UTF-8" standalone="no"?>
<!-- Created with Inkscape (http://www.inkscape.org/) -->

<svg
   xmlns:dc="http://purl.org/dc/elements/1.1/"
   xmlns:cc="http://creativecommons.org/ns#"
   xmlns:rdf="http://www.w3.org/1999/02/22-rdf-syntax-ns#"
   xmlns:svg="http://www.w3.org/2000/svg"
   xmlns="http://www.w3.org/2000/svg"
   xmlns:sodipodi="http://sodipodi.sourceforge.net/DTD/sodipodi-0.dtd"
   xmlns:inkscape="http://www.inkscape.org/namespaces/inkscape"
   width="22"
   height="22"
   id="svg2"
   version="1.1"
   inkscape:version="0.92.2 5c3e80d, 2017-08-06"
   viewBox="0 0 22 22"
   sodipodi:docname="quota-50.svg">
  <defs
     id="defs4" />
  <sodipodi:namedview
     id="base"
     pagecolor="#ffffff"
     bordercolor="#ffffff"
     borderopacity="1.0"
     inkscape:pageopacity="0.0"
     inkscape:pageshadow="2"
     inkscape:zoom="15.839192"
     inkscape:cx="12.624381"
     inkscape:cy="11.464626"
     inkscape:document-units="px"
     inkscape:current-layer="layer1"
     showgrid="true"
     inkscape:showpageshadow="false"
     borderlayer="true"
     inkscape:window-width="1366"
     inkscape:window-height="717"
     inkscape:window-x="0"
     inkscape:window-y="24"
     inkscape:window-maximized="1"
     units="px"
     inkscape:snap-bbox="true"
     inkscape:bbox-paths="true"
     inkscape:bbox-nodes="true"
     inkscape:object-nodes="true">
    <inkscape:grid
       type="xygrid"
       id="grid4101"
       enabled="false" />
  </sodipodi:namedview>
  <metadata
     id="metadata7">
    <rdf:RDF>
      <cc:Work
         rdf:about="">
        <dc:format>image/svg+xml</dc:format>
        <dc:type
           rdf:resource="http://purl.org/dc/dcmitype/StillImage" />
        <dc:title />
      </cc:Work>
    </rdf:RDF>
  </metadata>
  <g
     inkscape:label="Capa 1"
     inkscape:groupmode="layer"
     id="layer1"
     transform="translate(0,-1030.3622)">
    <g
       id="g826">
      <path
         id="path905"
         d="m 18.601705,1032.7888 c 4.391102,3.806 4.547244,10.7293 0.348769,15.4644 -4.198476,4.7351 -11.1611512,5.4883 -15.5522528,1.6824 -4.39110326,-3.8059 -4.5472443,-10.7293 -0.3487688,-15.4644 4.1984755,-4.7351 11.1611506,-5.4883 15.5522526,-1.6824 z"
         inkscape:connector-curvature="0"
         style="fill:#463a30;fill-opacity:1;stroke-width:0.47736382" />
      <path
         style="fill:#ffffff;fill-opacity:1;stroke-width:0.44390622"
         inkscape:connector-curvature="0"
         d="m 18.019172,1033.4146 c 4.083336,3.5392 4.228536,9.9773 0.324324,14.3805 -3.904212,4.4033 -10.3788851,5.1037 -14.4622227,1.5645 -4.08333762,-3.5392 -4.228536,-9.9773 -0.3243241,-14.3806 3.904212,-4.4032 10.3788848,-5.1036 14.4622228,-1.5644 z"
         id="path907" />
      <path
         inkscape:connector-curvature="0"
         id="path909"
         d="m 12.024402,1030.363 c -3.2292044,-0.022 -6.5595005,1.384 -8.9749285,4.1082 -4.1984771,4.7351 -4.04231821,11.6584 0.348785,15.4644 4.3911017,3.8059 11.3537785,3.0528 15.5522545,-1.6824 1.380452,-1.5569 2.289968,-3.3504 2.733129,-5.1918 -0.843046,-1.5421 -2.911097,-5.184 -5.070479,-7.9093 -1.49938,-1.8922 -3.26466,-3.6016 -4.588761,-4.7891 z"
         style="fill:#8a715e;fill-opacity:1;stroke:none;stroke-width:0.04296875px;stroke-linecap:butt;stroke-linejoin:miter;stroke-opacity:1" />
      <path
         id="path911"
         d="m 21.984301,1040.026 c -0.06666,2.6345 -1.081146,5.3348 -3.049337,7.5546 -4.198475,4.7351 -11.1611506,5.4883 -15.5522538,1.6823 -2.0581444,-1.7839 -3.1895248,-4.2517 -3.374419,-6.8596 0.02600699,2.8513 1.1568725,5.5968 3.3895841,7.532 4.3911016,3.8059 11.3541087,3.0524 15.5522527,-1.6824 2.135759,-2.4087 3.136934,-5.3836 3.034173,-8.2269 z"
         inkscape:connector-curvature="0"
         style="opacity:1;stroke-width:0.47736382;fill:#000000;fill-opacity:0.49019608" />
    </g>
  </g>
</svg>
