<?xml version="1.0" encoding="UTF-8" standalone="no"?>
<svg
   xmlns:dc="http://purl.org/dc/elements/1.1/"
   xmlns:cc="http://creativecommons.org/ns#"
   xmlns:rdf="http://www.w3.org/1999/02/22-rdf-syntax-ns#"
   xmlns:svg="http://www.w3.org/2000/svg"
   xmlns="http://www.w3.org/2000/svg"
   xmlns:xlink="http://www.w3.org/1999/xlink"
   xmlns:sodipodi="http://sodipodi.sourceforge.net/DTD/sodipodi-0.dtd"
   xmlns:inkscape="http://www.inkscape.org/namespaces/inkscape"
   viewBox="0 0 22 22"
   id="svg2"
   version="1.1"
   inkscape:version="0.92.2 5c3e80d, 2017-08-06"
   width="22"
   height="22"
   sodipodi:docname="skype_skypeme.svg">
  <metadata
     id="metadata61">
    <rdf:RDF>
      <cc:Work
         rdf:about="">
        <dc:format>image/svg+xml</dc:format>
        <dc:type
           rdf:resource="http://purl.org/dc/dcmitype/StillImage" />
        <dc:title />
      </cc:Work>
    </rdf:RDF>
  </metadata>
  <sodipodi:namedview
     pagecolor="#ffffff"
     bordercolor="#666666"
     borderopacity="1"
     objecttolerance="10"
     gridtolerance="10"
     guidetolerance="10"
     inkscape:pageopacity="0"
     inkscape:pageshadow="2"
     inkscape:window-width="1366"
     inkscape:window-height="717"
     id="namedview59"
     showgrid="false"
     inkscape:zoom="16.794042"
     inkscape:cx="26.091364"
     inkscape:cy="10.789895"
     inkscape:window-x="0"
     inkscape:window-y="24"
     inkscape:window-maximized="1"
     inkscape:current-layer="svg2" />
  <defs
     id="defs4">
    <linearGradient
       id="linearGradient3764"
       x1="1"
       x2="47"
       gradientUnits="userSpaceOnUse"
       gradientTransform="matrix(0,-1,1,0,-2e-6,47.999998)">
      <stop
         stop-color="#0bb8f9"
         stop-opacity="1"
         id="stop7" />
      <stop
         offset="1"
         stop-color="#20bef9"
         stop-opacity="1"
         id="stop9" />
    </linearGradient>
    <clipPath
       id="clipPath-275571731">
      <g
         transform="translate(0,-1004.3622)"
         id="g12">
        <path
           d="m -24,13 c 0,1.105 -0.672,2 -1.5,2 -0.828,0 -1.5,-0.895 -1.5,-2 0,-1.105 0.672,-2 1.5,-2 0.828,0 1.5,0.895 1.5,2 z"
           transform="matrix(15.8a715e,0,0,11.5,414.99999,878.8622)"
           id="path14"
           inkscape:connector-curvature="0"
           style="fill:#1890d0" />
      </g>
    </clipPath>
    <clipPath
       id="clipPath-284952804">
      <g
         transform="translate(0,-1004.3622)"
         id="g17">
        <path
           d="m -24,13 c 0,1.105 -0.672,2 -1.5,2 -0.828,0 -1.5,-0.895 -1.5,-2 0,-1.105 0.672,-2 1.5,-2 0.828,0 1.5,0.895 1.5,2 z"
           transform="matrix(15.8a715e,0,0,11.5,414.99999,878.8622)"
           id="path19"
           inkscape:connector-curvature="0"
           style="fill:#1890d0" />
      </g>
    </clipPath>
    <linearGradient
       inkscape:collect="always"
       xlink:href="#linearGradient3764"
       id="linearGradient3806"
       gradientUnits="userSpaceOnUse"
       gradientTransform="matrix(0,-1,1,0,-2e-6,47.999998)"
       x1="1"
       x2="47" />
  </defs>
  <g
     id="g33"
     transform="matrix(4.051497,0,0,4.051497,-5.3989211,-175.00402)" />
  <g
     id="g59"
     transform="translate(-23.595603,-0.28191427)">
    <path
       style="fill:#f9c440;fill-opacity:1;stroke-width:0.47736385"
       inkscape:connector-curvature="0"
       d="m 42.197346,2.7085301 c 4.391102,3.8059377 4.547243,10.7292829 0.348767,15.4643989 -4.198475,4.73512 -11.16115,5.488308 -15.552253,1.682369 C 22.602758,16.049358 22.446617,9.1260135 26.645093,4.3908968 30.843568,-0.34422168 37.806243,-1.097411 42.197346,2.7085301 Z"
       id="path27-5" />
    <path
       style="opacity:0.1;stroke-width:0.47736385"
       inkscape:connector-curvature="0"
       d="m 45.579942,9.9457352 c -0.06666,2.6344868 -1.081148,5.3347688 -3.049338,7.5545298 -4.198475,4.735119 -11.16115,5.488308 -15.552253,1.682367 -2.058145,-1.783874 -3.189525,-4.251691 -3.374419,-6.859638 0.02601,2.851263 1.156872,5.596826 3.389584,7.532003 4.391101,3.805941 11.354108,3.05238 15.552251,-1.682366 2.13576,-2.408749 3.136936,-5.383598 3.034175,-8.2268958 z"
       id="path51-5" />
    <path
       sodipodi:nodetypes="cccsccssccccccccssccscccccccccc"
       inkscape:connector-curvature="0"
       id="path882"
       d="m 34.092616,17.957039 c -1.352612,-0.111917 -2.504269,-0.478729 -3.306933,-1.053281 -0.410075,-0.293536 -0.92529,-0.827301 -1.169817,-1.21194 -0.412307,-0.648549 -0.619463,-1.495669 -0.473734,-1.937231 0.23064,-0.698844 1.033186,-1.092443 1.783017,-0.874463 0.433477,0.126015 0.703184,0.419688 1.085017,1.181442 0.62111,1.239098 1.210089,1.642564 2.510231,1.719579 1.645181,0.09745 2.914255,-0.648196 2.914255,-1.71228 0,-0.584412 -0.298796,-0.973145 -1.004548,-1.306909 C 36.117814,12.614263 35.810935,12.531899 33.69157,12.026944 32.634489,11.775087 31.669258,11.440077 31.141368,11.141828 30.544954,10.804861 29.94061,10.213107 29.706063,9.7364159 28.987737,8.2765136 29.429792,6.5685801 30.772275,5.6169636 31.380805,5.1856089 32.051349,4.916277 32.99453,4.7243721 c 0.668935,-0.136107 2.139785,-0.1897255 2.870707,-0.1046466 2.272979,0.2645668 3.951299,1.5255759 4.068715,3.0570388 0.03115,0.4063061 -0.07082,0.7004805 -0.355031,1.0241744 -0.346328,0.3944458 -1.018337,0.553034 -1.564464,0.3691974 C 37.762374,8.9852809 37.409946,8.6061805 37.112759,8.1001943 36.983237,7.8796722 36.707083,7.527264 36.499086,7.3170661 36.061872,6.8752283 35.840929,6.7825443 35.060541,6.7136095 c -0.905761,-0.080009 -1.683884,0.069477 -2.185377,0.4198356 -0.866295,0.6052187 -0.730065,1.4337284 0.317993,1.9339203 0.199479,0.095202 0.741774,0.2635501 1.217744,0.3780318 0.471959,0.113517 1.21905,0.2936042 1.6602,0.4001933 1.592914,0.3848785 2.664337,0.8188185 3.315535,1.3428385 0.404132,0.325201 0.839832,0.92851 0.984381,1.363058 0.254337,0.764597 0.253332,1.702465 -0.0026,2.47269 -0.300933,0.905478 -1.061213,1.733126 -2.051412,2.233196 -1.072052,0.541401 -2.759408,0.820875 -4.224333,0.699666 z"
       style="fill:#ffffff;stroke-width:0.05347257" />
    <path
       id="path891"
       d="m 42.197346,2.7085301 c 4.391102,3.8059377 4.547243,10.7292829 0.348767,15.4643989 -4.198475,4.73512 -11.16115,5.488308 -15.552253,1.682369 C 22.602758,16.049358 22.446617,9.1260135 26.645093,4.3908968 30.843568,-0.34422168 37.806243,-1.097411 42.197346,2.7085301 Z"
       inkscape:connector-curvature="0"
       style="fill:#f9c440;fill-opacity:1;stroke-width:0.47736385" />
    <path
       id="path893"
       d="m 45.579942,9.9457352 c -0.06666,2.6344868 -1.081148,5.3347688 -3.049338,7.5545298 -4.198475,4.735119 -11.16115,5.488308 -15.552253,1.682367 -2.058145,-1.783874 -3.189525,-4.251691 -3.374419,-6.859638 0.02601,2.851263 1.156872,5.596826 3.389584,7.532003 4.391101,3.805941 11.354108,3.05238 15.552251,-1.682366 2.13576,-2.408749 3.136936,-5.383598 3.034175,-8.2268958 z"
       inkscape:connector-curvature="0"
       style="opacity:1;fill:#000000;fill-opacity:0.49019608;stroke-width:0.47736385" />
    <path
       sodipodi:nodetypes="cccsccssccccccccssccscccccccccc"
       inkscape:connector-curvature="0"
       id="path897"
       d="m 34.951991,18.816413 c -1.352612,-0.111918 -2.50427,-0.478729 -3.306933,-1.053282 -0.410075,-0.293536 -0.92529,-0.827301 -1.169817,-1.211939 -0.412307,-0.648549 -0.619464,-1.49567 -0.473734,-1.937232 0.23064,-0.698843 1.033186,-1.092443 1.783017,-0.874462 0.433477,0.126015 0.703184,0.419688 1.085017,1.181442 0.62111,1.239098 1.210089,1.642563 2.510231,1.719579 1.645181,0.09745 2.914255,-0.648196 2.914255,-1.712281 0,-0.584412 -0.298796,-0.973144 -1.004548,-1.306909 C 36.977189,13.473636 36.67031,13.391273 34.550945,12.886318 33.493864,12.63446 32.528633,12.29945 32.000743,12.001201 31.404329,11.664234 30.799985,11.07248 30.565438,10.59579 29.847112,9.1358868 30.289167,7.4279534 31.63165,6.4763369 32.24018,6.0449822 32.910723,5.7756507 33.853904,5.5837454 34.52284,5.4476384 35.99369,5.3940198 36.724612,5.4790988 c 2.272979,0.2645668 3.9513,1.5255763 4.068715,3.0570392 0.03115,0.4063061 -0.07082,0.70048 -0.35503,1.0241744 C 40.091968,9.9547582 39.419959,10.113346 38.873832,9.9295093 38.621749,9.8446546 38.269321,9.4655543 37.972134,8.9595676 37.842612,8.7390459 37.566458,8.3866377 37.358461,8.1764398 36.921247,7.734602 36.700304,7.6419175 35.919916,7.5729828 c -0.905761,-0.080009 -1.683884,0.069477 -2.185377,0.419836 -0.866295,0.6052187 -0.730065,1.433728 0.317992,1.9339199 0.19948,0.095201 0.741775,0.2635503 1.217744,0.3780323 0.47196,0.113517 1.219051,0.293604 1.660201,0.400193 1.592914,0.384879 2.664337,0.818819 3.315535,1.342839 0.404133,0.3252 0.839831,0.92851 0.98438,1.363057 0.254338,0.764598 0.253332,1.702466 -0.0026,2.472691 -0.300933,0.905478 -1.061212,1.733125 -2.051411,2.233195 -1.072052,0.541402 -2.759408,0.820875 -4.224333,0.699667 z"
       style="fill:#000000;fill-opacity:0.49019608;stroke-width:0.05347257" />
    <path
       style="fill:#ffffff;stroke-width:0.05347257"
       d="m 34.092616,17.957039 c -1.352612,-0.111917 -2.504269,-0.478729 -3.306933,-1.053281 -0.410075,-0.293536 -0.92529,-0.827301 -1.169817,-1.21194 -0.412307,-0.648549 -0.619463,-1.495669 -0.473734,-1.937231 0.23064,-0.698844 1.033186,-1.092443 1.783017,-0.874463 0.433477,0.126015 0.703184,0.419688 1.085017,1.181442 0.62111,1.239098 1.210089,1.642564 2.510231,1.719579 1.645181,0.09745 2.914255,-0.648196 2.914255,-1.71228 0,-0.584412 -0.298796,-0.973145 -1.004548,-1.306909 C 36.117814,12.614263 35.810935,12.531899 33.69157,12.026944 32.634489,11.775087 31.669258,11.440077 31.141368,11.141828 30.544954,10.804861 29.94061,10.213107 29.706063,9.7364159 28.987737,8.2765136 29.429792,6.5685801 30.772275,5.6169636 31.380805,5.1856089 32.051349,4.916277 32.99453,4.7243721 c 0.668935,-0.136107 2.139785,-0.1897255 2.870707,-0.1046466 2.272979,0.2645668 3.951299,1.5255759 4.068715,3.0570388 0.03115,0.4063061 -0.07082,0.7004805 -0.355031,1.0241744 -0.346328,0.3944458 -1.018337,0.553034 -1.564464,0.3691974 C 37.762374,8.9852809 37.409946,8.6061805 37.112759,8.1001943 36.983237,7.8796722 36.707083,7.527264 36.499086,7.3170661 36.061872,6.8752283 35.840929,6.7825443 35.060541,6.7136095 c -0.905761,-0.080009 -1.683884,0.069477 -2.185377,0.4198356 -0.866295,0.6052187 -0.730065,1.4337284 0.317993,1.9339203 0.199479,0.095202 0.741774,0.2635501 1.217744,0.3780318 0.471959,0.113517 1.21905,0.2936042 1.6602,0.4001933 1.592914,0.3848785 2.664337,0.8188185 3.315535,1.3428385 0.404132,0.325201 0.839832,0.92851 0.984381,1.363058 0.254337,0.764597 0.253332,1.702465 -0.0026,2.47269 -0.300933,0.905478 -1.061213,1.733126 -2.051412,2.233196 -1.072052,0.541401 -2.759408,0.820875 -4.224333,0.699666 z"
       id="path895"
       inkscape:connector-curvature="0"
       sodipodi:nodetypes="cccsccssccccccccssccscccccccccc" />
  </g>
</svg>
