<?xml version="1.0" encoding="UTF-8" standalone="no"?>
<svg
   xmlns:dc="http://purl.org/dc/elements/1.1/"
   xmlns:cc="http://creativecommons.org/ns#"
   xmlns:rdf="http://www.w3.org/1999/02/22-rdf-syntax-ns#"
   xmlns:svg="http://www.w3.org/2000/svg"
   xmlns="http://www.w3.org/2000/svg"
   xmlns:xlink="http://www.w3.org/1999/xlink"
   xmlns:sodipodi="http://sodipodi.sourceforge.net/DTD/sodipodi-0.dtd"
   xmlns:inkscape="http://www.inkscape.org/namespaces/inkscape"
   viewBox="0 0 22 22"
   id="svg2"
   version="1.1"
   inkscape:version="0.92.2 5c3e80d, 2017-08-06"
   width="22"
   height="22"
   sodipodi:docname="skype_invisible.svg">
  <metadata
     id="metadata61">
    <rdf:RDF>
      <cc:Work
         rdf:about="">
        <dc:format>image/svg+xml</dc:format>
        <dc:type
           rdf:resource="http://purl.org/dc/dcmitype/StillImage" />
        <dc:title />
      </cc:Work>
    </rdf:RDF>
  </metadata>
  <sodipodi:namedview
     pagecolor="#ffffff"
     bordercolor="#666666"
     borderopacity="1"
     objecttolerance="10"
     gridtolerance="10"
     guidetolerance="10"
     inkscape:pageopacity="0"
     inkscape:pageshadow="2"
     inkscape:window-width="1366"
     inkscape:window-height="717"
     id="namedview59"
     showgrid="false"
     inkscape:zoom="11.875181"
     inkscape:cx="30.008519"
     inkscape:cy="14.941075"
     inkscape:window-x="0"
     inkscape:window-y="24"
     inkscape:window-maximized="1"
     inkscape:current-layer="svg2" />
  <defs
     id="defs4">
    <linearGradient
       id="linearGradient3764"
       x1="1"
       x2="47"
       gradientUnits="userSpaceOnUse"
       gradientTransform="matrix(0,-1,1,0,-2e-6,47.999998)">
      <stop
         stop-color="#0bb8f9"
         stop-opacity="1"
         id="stop7" />
      <stop
         offset="1"
         stop-color="#20bef9"
         stop-opacity="1"
         id="stop9" />
    </linearGradient>
    <clipPath
       id="clipPath-275571731">
      <g
         transform="translate(0,-1004.3622)"
         id="g12">
        <path
           d="m -24,13 c 0,1.105 -0.672,2 -1.5,2 -0.828,0 -1.5,-0.895 -1.5,-2 0,-1.105 0.672,-2 1.5,-2 0.828,0 1.5,0.895 1.5,2 z"
           transform="matrix(15.333333,0,0,11.5,414.99999,878.8622)"
           id="path14"
           inkscape:connector-curvature="0"
           style="fill:#1890d0" />
      </g>
    </clipPath>
    <clipPath
       id="clipPath-284952804">
      <g
         transform="translate(0,-1004.3622)"
         id="g17">
        <path
           d="m -24,13 c 0,1.105 -0.672,2 -1.5,2 -0.828,0 -1.5,-0.895 -1.5,-2 0,-1.105 0.672,-2 1.5,-2 0.828,0 1.5,0.895 1.5,2 z"
           transform="matrix(15.333333,0,0,11.5,414.99999,878.8622)"
           id="path19"
           inkscape:connector-curvature="0"
           style="fill:#1890d0" />
      </g>
    </clipPath>
    <linearGradient
       inkscape:collect="always"
       xlink:href="#linearGradient3764"
       id="linearGradient3806"
       gradientUnits="userSpaceOnUse"
       gradientTransform="matrix(0,-1,1,0,-2e-6,47.999998)"
       x1="1"
       x2="47" />
  </defs>
  <g
     id="g33"
     transform="matrix(4.051497,0,0,4.051497,-5.3989211,-175.00402)" />
  <g
     id="g57"
     transform="translate(-25.546811,0.95771173)">
    <path
       style="fill:#f9c440;fill-opacity:1;stroke-width:0.47736385"
       inkscape:connector-curvature="0"
       d="m 44.148554,1.4689041 c 4.391102,3.8059377 4.547243,10.7292829 0.348767,15.4643989 -4.198475,4.73512 -11.16115,5.488308 -15.552253,1.682369 C 24.553966,14.809732 24.397825,7.8863875 28.596301,3.1512708 32.794776,-1.5838477 39.757451,-2.337037 44.148554,1.4689041 Z"
       id="path27-5" />
    <path
       style="opacity:0.1;stroke-width:0.47736385"
       inkscape:connector-curvature="0"
       d="m 47.53115,8.7061092 c -0.06666,2.6344868 -1.081148,5.3347688 -3.049338,7.5545298 -4.198475,4.735119 -11.16115,5.488308 -15.552253,1.682367 -2.058145,-1.783874 -3.189525,-4.251691 -3.374419,-6.859638 0.02601,2.851263 1.156872,5.596826 3.389584,7.532003 4.391101,3.805941 11.354108,3.05238 15.552251,-1.682366 2.13576,-2.408749 3.136936,-5.383598 3.034175,-8.2268958 z"
       id="path51-5" />
    <path
       sodipodi:nodetypes="cccsccssccccccccssccscccccccccc"
       inkscape:connector-curvature="0"
       id="path882"
       d="m 36.043824,16.717413 c -1.352612,-0.111917 -2.504269,-0.478729 -3.306933,-1.053281 -0.410075,-0.293536 -0.92529,-0.827301 -1.169817,-1.21194 -0.412307,-0.648549 -0.619463,-1.495669 -0.473734,-1.937231 0.23064,-0.698844 1.033186,-1.092443 1.783017,-0.874463 0.433477,0.126015 0.703184,0.419688 1.085017,1.181442 0.62111,1.239098 1.210089,1.642564 2.510231,1.719579 1.645181,0.09745 2.914255,-0.648196 2.914255,-1.71228 0,-0.584412 -0.298796,-0.973145 -1.004548,-1.306909 -0.31229,-0.147693 -0.619169,-0.230057 -2.738534,-0.735012 C 34.585697,10.535461 33.620466,10.200451 33.092576,9.9022019 32.496162,9.565235 31.891818,8.973481 31.657271,8.4967899 30.938945,7.0368876 31.381,5.3289541 32.723483,4.3773376 c 0.60853,-0.4313547 1.279074,-0.7006866 2.222255,-0.8925915 0.668935,-0.136107 2.139785,-0.1897255 2.870707,-0.1046466 2.272979,0.2645668 3.951299,1.5255759 4.068715,3.0570388 0.03115,0.4063061 -0.07082,0.7004805 -0.355031,1.0241744 -0.346328,0.3944458 -1.018337,0.553034 -1.564464,0.3691974 C 39.713582,7.7456549 39.361154,7.3665545 39.063967,6.8605683 38.934445,6.6400462 38.658291,6.287638 38.450294,6.0774401 38.01308,5.6356023 37.792137,5.5429183 37.011749,5.4739835 c -0.905761,-0.080009 -1.683884,0.069477 -2.185377,0.4198356 -0.866295,0.6052187 -0.730065,1.4337284 0.317993,1.9339203 0.199479,0.095202 0.741774,0.2635501 1.217744,0.3780318 0.471959,0.113517 1.21905,0.2936042 1.6602,0.4001933 1.592914,0.3848788 2.664337,0.818819 3.315535,1.3428383 0.404132,0.3252012 0.839832,0.9285102 0.984381,1.3630582 0.254337,0.764597 0.253332,1.702465 -0.0026,2.47269 -0.300933,0.905478 -1.061213,1.733126 -2.051412,2.233196 -1.072052,0.541401 -2.759408,0.820875 -4.224333,0.699666 z"
       style="fill:#ffffff;stroke-width:0.05347257" />
    <path
       id="path891"
       d="m 44.148554,1.4689041 c 4.391102,3.8059377 4.547243,10.7292829 0.348767,15.4643989 -4.198475,4.73512 -11.16115,5.488308 -15.552253,1.682369 C 24.553966,14.809732 24.397825,7.8863875 28.596301,3.1512708 32.794776,-1.5838477 39.757451,-2.337037 44.148554,1.4689041 Z"
       inkscape:connector-curvature="0"
       style="fill:#68b723;fill-opacity:1;stroke-width:0.47736385" />
    <path
       id="path893"
       d="m 47.53115,8.7061092 c -0.06666,2.6344868 -1.081148,5.3347688 -3.049338,7.5545298 -4.198475,4.735119 -11.16115,5.488308 -15.552253,1.682367 -2.058145,-1.783874 -3.189525,-4.251691 -3.374419,-6.859638 0.02601,2.851263 1.156872,5.596826 3.389584,7.532003 4.391101,3.805941 11.354108,3.05238 15.552251,-1.682366 2.13576,-2.408749 3.136936,-5.383598 3.034175,-8.2268958 z"
       inkscape:connector-curvature="0"
       style="opacity:1;fill:#000000;fill-opacity:0.49019608;stroke-width:0.47736385" />
    <path
       sodipodi:nodetypes="cccsccssccccccccssccscccccccccc"
       inkscape:connector-curvature="0"
       id="path897"
       d="m 36.903199,17.576787 c -1.352612,-0.111918 -2.50427,-0.478729 -3.306933,-1.053282 -0.410075,-0.293536 -0.92529,-0.827301 -1.169817,-1.211939 -0.412307,-0.648549 -0.619464,-1.49567 -0.473734,-1.937232 0.23064,-0.698843 1.033186,-1.092443 1.783017,-0.874462 0.433477,0.126015 0.703184,0.419688 1.085017,1.181442 0.62111,1.239098 1.210089,1.642563 2.510231,1.719579 1.645181,0.09745 2.914255,-0.648196 2.914255,-1.712281 0,-0.584412 -0.298796,-0.973144 -1.004548,-1.306909 C 38.928397,12.23401 38.621518,12.151647 36.502153,11.646691 35.445072,11.394834 34.479841,11.059824 33.951951,10.761575 33.355537,10.424608 32.751193,9.8328542 32.516646,9.3561636 31.79832,7.8962608 32.240375,6.1883274 33.582858,5.2367109 c 0.60853,-0.4313547 1.279073,-0.7006862 2.222254,-0.8925915 0.668936,-0.136107 2.139786,-0.1897256 2.870708,-0.1046466 2.272979,0.2645668 3.9513,1.5255763 4.068715,3.0570392 0.03115,0.4063061 -0.07082,0.70048 -0.35503,1.0241744 C 42.043176,8.7151322 41.371167,8.8737204 40.82504,8.6898833 40.572957,8.6050286 40.220529,8.2259283 39.923342,7.7199416 39.79382,7.4994199 39.517666,7.1470117 39.309669,6.9368138 38.872455,6.494976 38.651512,6.4022915 37.871124,6.3333568 c -0.905761,-0.080009 -1.683884,0.069477 -2.185377,0.419836 -0.866295,0.6052187 -0.730065,1.433728 0.317992,1.9339199 0.19948,0.095202 0.741775,0.2635501 1.217744,0.3780322 0.47196,0.113517 1.219051,0.2936042 1.660201,0.4001929 1.592914,0.3848788 2.664337,0.8188192 3.315535,1.3428392 0.404133,0.3252 0.839831,0.92851 0.98438,1.363057 0.254338,0.764598 0.253332,1.702466 -0.0026,2.472691 -0.300933,0.905478 -1.061212,1.733125 -2.051411,2.233195 -1.072052,0.541402 -2.759408,0.820875 -4.224333,0.699667 z"
       style="fill:#000000;fill-opacity:0.49019608;stroke-width:0.05347257" />
    <path
       style="fill:#ffffff;stroke-width:0.05347257"
       d="m 36.043824,16.717413 c -1.352612,-0.111917 -2.504269,-0.478729 -3.306933,-1.053281 -0.410075,-0.293536 -0.92529,-0.827301 -1.169817,-1.21194 -0.412307,-0.648549 -0.619463,-1.495669 -0.473734,-1.937231 0.23064,-0.698844 1.033186,-1.092443 1.783017,-0.874463 0.433477,0.126015 0.703184,0.419688 1.085017,1.181442 0.62111,1.239098 1.210089,1.642564 2.510231,1.719579 1.645181,0.09745 2.914255,-0.648196 2.914255,-1.71228 0,-0.584412 -0.298796,-0.973145 -1.004548,-1.306909 -0.31229,-0.147693 -0.619169,-0.230057 -2.738534,-0.735012 C 34.585697,10.535461 33.620466,10.200451 33.092576,9.9022019 32.496162,9.565235 31.891818,8.973481 31.657271,8.4967899 30.938945,7.0368876 31.381,5.3289541 32.723483,4.3773376 c 0.60853,-0.4313547 1.279074,-0.7006866 2.222255,-0.8925915 0.668935,-0.136107 2.139785,-0.1897255 2.870707,-0.1046466 2.272979,0.2645668 3.951299,1.5255759 4.068715,3.0570388 0.03115,0.4063061 -0.07082,0.7004805 -0.355031,1.0241744 -0.346328,0.3944458 -1.018337,0.553034 -1.564464,0.3691974 C 39.713582,7.7456549 39.361154,7.3665545 39.063967,6.8605683 38.934445,6.6400462 38.658291,6.287638 38.450294,6.0774401 38.01308,5.6356023 37.792137,5.5429183 37.011749,5.4739835 c -0.905761,-0.080009 -1.683884,0.069477 -2.185377,0.4198356 -0.866295,0.6052187 -0.730065,1.4337284 0.317993,1.9339203 0.199479,0.095202 0.741774,0.2635501 1.217744,0.3780318 0.471959,0.113517 1.21905,0.2936042 1.6602,0.4001933 1.592914,0.3848788 2.664337,0.818819 3.315535,1.3428383 0.404132,0.3252012 0.839832,0.9285102 0.984381,1.3630582 0.254337,0.764597 0.253332,1.702465 -0.0026,2.47269 -0.300933,0.905478 -1.061213,1.733126 -2.051412,2.233196 -1.072052,0.541401 -2.759408,0.820875 -4.224333,0.699666 z"
       id="path895"
       inkscape:connector-curvature="0"
       sodipodi:nodetypes="cccsccssccccccccssccscccccccccc" />
  </g>
</svg>
