<?xml version="1.0" encoding="UTF-8" standalone="no"?>
<svg
   xmlns:dc="http://purl.org/dc/elements/1.1/"
   xmlns:cc="http://creativecommons.org/ns#"
   xmlns:rdf="http://www.w3.org/1999/02/22-rdf-syntax-ns#"
   xmlns:svg="http://www.w3.org/2000/svg"
   xmlns="http://www.w3.org/2000/svg"
   xmlns:xlink="http://www.w3.org/1999/xlink"
   xmlns:sodipodi="http://sodipodi.sourceforge.net/DTD/sodipodi-0.dtd"
   xmlns:inkscape="http://www.inkscape.org/namespaces/inkscape"
   viewBox="0 0 22 22"
   id="svg2"
   version="1.1"
   inkscape:version="0.92.2 5c3e80d, 2017-08-06"
   width="22"
   height="22"
   sodipodi:docname="skype_offline.svg">
  <metadata
     id="metadata61">
    <rdf:RDF>
      <cc:Work
         rdf:about="">
        <dc:format>image/svg+xml</dc:format>
        <dc:type
           rdf:resource="http://purl.org/dc/dcmitype/StillImage" />
        <dc:title />
      </cc:Work>
    </rdf:RDF>
  </metadata>
  <sodipodi:namedview
     pagecolor="#ffffff"
     bordercolor="#666666"
     borderopacity="1"
     objecttolerance="10"
     gridtolerance="10"
     guidetolerance="10"
     inkscape:pageopacity="0"
     inkscape:pageshadow="2"
     inkscape:window-width="1366"
     inkscape:window-height="717"
     id="namedview59"
     showgrid="false"
     inkscape:zoom="11.875181"
     inkscape:cx="9.7983004"
     inkscape:cy="11.572705"
     inkscape:window-x="0"
     inkscape:window-y="24"
     inkscape:window-maximized="1"
     inkscape:current-layer="svg2" />
  <defs
     id="defs4">
    <linearGradient
       id="linearGradient3764"
       x1="1"
       x2="47"
       gradientUnits="userSpaceOnUse"
       gradientTransform="matrix(0,-1,1,0,-2e-6,47.999998)">
      <stop
         stop-color="#0bb8f9"
         stop-opacity="1"
         id="stop7" />
      <stop
         offset="1"
         stop-color="#20bef9"
         stop-opacity="1"
         id="stop9" />
    </linearGradient>
    <clipPath
       id="clipPath-275571731">
      <g
         transform="translate(0,-1004.3622)"
         id="g12">
        <path
           d="m -24,13 c 0,1.105 -0.672,2 -1.5,2 -0.828,0 -1.5,-0.895 -1.5,-2 0,-1.105 0.672,-2 1.5,-2 0.828,0 1.5,0.895 1.5,2 z"
           transform="matrix(15.333333,0,0,11.5,414.99999,878.8622)"
           id="path14"
           inkscape:connector-curvature="0"
           style="fill:#1890d0" />
      </g>
    </clipPath>
    <clipPath
       id="clipPath-284952804">
      <g
         transform="translate(0,-1004.3622)"
         id="g17">
        <path
           d="m -24,13 c 0,1.105 -0.672,2 -1.5,2 -0.828,0 -1.5,-0.895 -1.5,-2 0,-1.105 0.672,-2 1.5,-2 0.828,0 1.5,0.895 1.5,2 z"
           transform="matrix(15.333333,0,0,11.5,414.99999,878.8622)"
           id="path19"
           inkscape:connector-curvature="0"
           style="fill:#1890d0" />
      </g>
    </clipPath>
    <linearGradient
       inkscape:collect="always"
       xlink:href="#linearGradient3764"
       id="linearGradient3806"
       gradientUnits="userSpaceOnUse"
       gradientTransform="matrix(0,-1,1,0,-2e-6,47.999998)"
       x1="1"
       x2="47" />
  </defs>
  <g
     id="g33"
     transform="matrix(4.051497,0,0,4.051497,-5.3989211,-175.00402)" />
  <g
     id="g59"
     transform="translate(-26.89416,-0.30542727)">
    <path
       style="fill:#f9c440;fill-opacity:1;stroke-width:0.47736385"
       inkscape:connector-curvature="0"
       d="M 45.495903,2.7320431 C 49.887005,6.5379808 50.043146,13.461326 45.84467,18.196442 41.646195,22.931562 34.68352,23.68475 30.292417,19.878811 25.901315,16.072871 25.745174,9.1495265 29.94365,4.4144098 34.142125,-0.32070868 41.1048,-1.073898 45.495903,2.7320431 Z"
       id="path27-5" />
    <path
       style="opacity:0.1;stroke-width:0.47736385"
       inkscape:connector-curvature="0"
       d="m 48.878499,9.9692482 c -0.06666,2.6344868 -1.081148,5.3347688 -3.049338,7.5545298 -4.198475,4.735119 -11.16115,5.488308 -15.552253,1.682367 -2.058145,-1.783874 -3.189525,-4.251691 -3.374419,-6.859638 0.02601,2.851263 1.156872,5.596826 3.389584,7.532003 4.391101,3.805941 11.354108,3.05238 15.552251,-1.682366 2.13576,-2.408749 3.136936,-5.383598 3.034175,-8.2268958 z"
       id="path51-5" />
    <path
       sodipodi:nodetypes="cccsccssccccccccssccscccccccccc"
       inkscape:connector-curvature="0"
       id="path882"
       d="M 37.391173,17.980552 C 36.038561,17.868635 34.886904,17.501823 34.08424,16.927271 33.674165,16.633735 33.15895,16.09997 32.914423,15.715331 32.502116,15.066782 32.29496,14.219662 32.440689,13.7781 c 0.23064,-0.698844 1.033186,-1.092443 1.783017,-0.874463 0.433477,0.126015 0.703184,0.419688 1.085017,1.181442 0.62111,1.239098 1.210089,1.642564 2.510231,1.719579 1.645181,0.09745 2.914255,-0.648196 2.914255,-1.71228 0,-0.584412 -0.298796,-0.973145 -1.004548,-1.306909 -0.31229,-0.147693 -0.619169,-0.230057 -2.738534,-0.735012 C 35.933046,11.7986 34.967815,11.46359 34.439925,11.165341 33.843511,10.828374 33.239167,10.23662 33.00462,9.7599289 32.286294,8.3000266 32.728349,6.5920931 34.070832,5.6404766 34.679362,5.2091219 35.349906,4.93979 36.293087,4.7478851 c 0.668935,-0.136107 2.139785,-0.1897255 2.870707,-0.1046466 2.272979,0.2645668 3.951299,1.5255759 4.068715,3.0570388 0.03115,0.4063061 -0.07082,0.7004805 -0.355031,1.0241744 C 42.53115,9.1188975 41.859141,9.2774857 41.313014,9.0936491 41.060931,9.0087939 40.708503,8.6296935 40.411316,8.1237073 40.281794,7.9031852 40.00564,7.550777 39.797643,7.3405791 39.360429,6.8987413 39.139486,6.8060573 38.359098,6.7371225 c -0.905761,-0.080009 -1.683884,0.069477 -2.185377,0.4198356 -0.866295,0.6052187 -0.730065,1.4337284 0.317993,1.9339203 0.199479,0.095202 0.741774,0.2635501 1.217744,0.3780318 0.471959,0.113517 1.21905,0.2936042 1.6602,0.4001933 1.592914,0.3848785 2.664337,0.8188185 3.315535,1.3428385 0.404132,0.325201 0.839832,0.92851 0.984381,1.363058 0.254337,0.764597 0.253332,1.702465 -0.0026,2.47269 -0.300933,0.905478 -1.061213,1.733126 -2.051412,2.233196 -1.072052,0.541401 -2.759408,0.820875 -4.224333,0.699666 z"
       style="fill:#ffffff;stroke-width:0.05347257" />
    <path
       id="path891"
       d="M 45.495903,2.7320431 C 49.887005,6.5379808 50.043146,13.461326 45.84467,18.196442 41.646195,22.931562 34.68352,23.68475 30.292417,19.878811 25.901315,16.072871 25.745174,9.1495265 29.94365,4.4144098 34.142125,-0.32070868 41.1048,-1.073898 45.495903,2.7320431 Z"
       inkscape:connector-curvature="0"
       style="fill:#8a715e;fill-opacity:1;stroke-width:0.47736385" />
    <path
       id="path893"
       d="m 48.878499,9.9692482 c -0.06666,2.6344868 -1.081148,5.3347688 -3.049338,7.5545298 -4.198475,4.735119 -11.16115,5.488308 -15.552253,1.682367 -2.058145,-1.783874 -3.189525,-4.251691 -3.374419,-6.859638 0.02601,2.851263 1.156872,5.596826 3.389584,7.532003 4.391101,3.805941 11.354108,3.05238 15.552251,-1.682366 2.13576,-2.408749 3.136936,-5.383598 3.034175,-8.2268958 z"
       inkscape:connector-curvature="0"
       style="opacity:1;fill:#000000;fill-opacity:0.49019608;stroke-width:0.47736385" />
    <path
       sodipodi:nodetypes="cccsccssccccccccssccscccccccccc"
       inkscape:connector-curvature="0"
       id="path897"
       d="m 38.250548,18.839926 c -1.352612,-0.111918 -2.50427,-0.478729 -3.306933,-1.053282 -0.410075,-0.293536 -0.92529,-0.827301 -1.169817,-1.211939 -0.412307,-0.648549 -0.619464,-1.49567 -0.473734,-1.937232 0.23064,-0.698843 1.033186,-1.092443 1.783017,-0.874462 0.433477,0.126015 0.703184,0.419688 1.085017,1.181442 0.62111,1.239098 1.210089,1.642563 2.510231,1.719579 1.645181,0.09745 2.914255,-0.648196 2.914255,-1.712281 0,-0.584412 -0.298796,-0.973144 -1.004548,-1.306909 C 40.275746,13.497149 39.968867,13.414786 37.849502,12.90983 36.792421,12.657973 35.82719,12.322963 35.2993,12.024714 34.702886,11.687747 34.098542,11.095993 33.863995,10.619303 33.145669,9.1593998 33.587724,7.4514664 34.930207,6.4998499 c 0.60853,-0.4313547 1.279073,-0.7006862 2.222254,-0.8925915 0.668936,-0.136107 2.139786,-0.1897256 2.870708,-0.1046466 2.272979,0.2645668 3.9513,1.5255763 4.068715,3.0570392 0.03115,0.4063061 -0.07082,0.70048 -0.35503,1.0241744 C 43.390525,9.9782712 42.718516,10.136859 42.172389,9.9530223 41.920306,9.8681676 41.567878,9.4890673 41.270691,8.9830806 41.141169,8.7625589 40.865015,8.4101507 40.657018,8.1999528 40.219804,7.758115 39.998861,7.6654305 39.218473,7.5964958 c -0.905761,-0.080009 -1.683884,0.069477 -2.185377,0.419836 -0.866295,0.6052187 -0.730065,1.433728 0.317992,1.9339199 0.19948,0.095201 0.741775,0.2635503 1.217744,0.3780323 0.47196,0.113517 1.219051,0.293604 1.660201,0.400193 1.592914,0.384879 2.664337,0.818819 3.315535,1.342839 0.404133,0.3252 0.839831,0.92851 0.98438,1.363057 0.254338,0.764598 0.253332,1.702466 -0.0026,2.472691 -0.300933,0.905478 -1.061212,1.733125 -2.051411,2.233195 -1.072052,0.541402 -2.759408,0.820875 -4.224333,0.699667 z"
       style="fill:#000000;fill-opacity:0.49019608;stroke-width:0.05347257" />
    <path
       style="fill:#ffffff;stroke-width:0.05347257"
       d="M 37.391173,17.980552 C 36.038561,17.868635 34.886904,17.501823 34.08424,16.927271 33.674165,16.633735 33.15895,16.09997 32.914423,15.715331 32.502116,15.066782 32.29496,14.219662 32.440689,13.7781 c 0.23064,-0.698844 1.033186,-1.092443 1.783017,-0.874463 0.433477,0.126015 0.703184,0.419688 1.085017,1.181442 0.62111,1.239098 1.210089,1.642564 2.510231,1.719579 1.645181,0.09745 2.914255,-0.648196 2.914255,-1.71228 0,-0.584412 -0.298796,-0.973145 -1.004548,-1.306909 -0.31229,-0.147693 -0.619169,-0.230057 -2.738534,-0.735012 C 35.933046,11.7986 34.967815,11.46359 34.439925,11.165341 33.843511,10.828374 33.239167,10.23662 33.00462,9.7599289 32.286294,8.3000266 32.728349,6.5920931 34.070832,5.6404766 34.679362,5.2091219 35.349906,4.93979 36.293087,4.7478851 c 0.668935,-0.136107 2.139785,-0.1897255 2.870707,-0.1046466 2.272979,0.2645668 3.951299,1.5255759 4.068715,3.0570388 0.03115,0.4063061 -0.07082,0.7004805 -0.355031,1.0241744 C 42.53115,9.1188975 41.859141,9.2774857 41.313014,9.0936491 41.060931,9.0087939 40.708503,8.6296935 40.411316,8.1237073 40.281794,7.9031852 40.00564,7.550777 39.797643,7.3405791 39.360429,6.8987413 39.139486,6.8060573 38.359098,6.7371225 c -0.905761,-0.080009 -1.683884,0.069477 -2.185377,0.4198356 -0.866295,0.6052187 -0.730065,1.4337284 0.317993,1.9339203 0.199479,0.095202 0.741774,0.2635501 1.217744,0.3780318 0.471959,0.113517 1.21905,0.2936042 1.6602,0.4001933 1.592914,0.3848785 2.664337,0.8188185 3.315535,1.3428385 0.404132,0.325201 0.839832,0.92851 0.984381,1.363058 0.254337,0.764597 0.253332,1.702465 -0.0026,2.47269 -0.300933,0.905478 -1.061213,1.733126 -2.051412,2.233196 -1.072052,0.541401 -2.759408,0.820875 -4.224333,0.699666 z"
       id="path895"
       inkscape:connector-curvature="0"
       sodipodi:nodetypes="cccsccssccccccccssccscccccccccc" />
  </g>
</svg>
