<?xml version="1.0" encoding="UTF-8" standalone="no"?>
<svg
   xmlns:dc="http://purl.org/dc/elements/1.1/"
   xmlns:cc="http://creativecommons.org/ns#"
   xmlns:rdf="http://www.w3.org/1999/02/22-rdf-syntax-ns#"
   xmlns:svg="http://www.w3.org/2000/svg"
   xmlns="http://www.w3.org/2000/svg"
   xmlns:xlink="http://www.w3.org/1999/xlink"
   xmlns:sodipodi="http://sodipodi.sourceforge.net/DTD/sodipodi-0.dtd"
   xmlns:inkscape="http://www.inkscape.org/namespaces/inkscape"
   viewBox="0 0 22 22"
   id="svg2"
   version="1.1"
   inkscape:version="0.92.2 5c3e80d, 2017-08-06"
   width="22"
   height="22"
   sodipodi:docname="software-update-urgent.svg">
  <metadata
     id="metadata61">
    <rdf:RDF>
      <cc:Work
         rdf:about="">
        <dc:format>image/svg+xml</dc:format>
        <dc:type
           rdf:resource="http://purl.org/dc/dcmitype/StillImage" />
        <dc:title />
      </cc:Work>
    </rdf:RDF>
  </metadata>
  <sodipodi:namedview
     pagecolor="#ffffff"
     bordercolor="#666666"
     borderopacity="1"
     objecttolerance="10"
     gridtolerance="10"
     guidetolerance="10"
     inkscape:pageopacity="0"
     inkscape:pageshadow="2"
     inkscape:window-width="1366"
     inkscape:window-height="717"
     id="namedview59"
     showgrid="false"
     inkscape:zoom="11.875181"
     inkscape:cx="12.66722"
     inkscape:cy="12.329695"
     inkscape:window-x="0"
     inkscape:window-y="24"
     inkscape:window-maximized="1"
     inkscape:current-layer="svg2" />
  <defs
     id="defs4">
    <linearGradient
       id="linearGradient3764"
       x1="1"
       x2="47"
       gradientUnits="userSpaceOnUse"
       gradientTransform="matrix(0,-1,1,0,-2e-6,47.999998)">
      <stop
         stop-color="#0bb8f9"
         stop-opacity="1"
         id="stop7" />
      <stop
         offset="1"
         stop-color="#20bef9"
         stop-opacity="1"
         id="stop9" />
    </linearGradient>
    <clipPath
       id="clipPath-275571731">
      <g
         transform="translate(0,-1004.3622)"
         id="g12">
        <path
           d="m -24,13 c 0,1.105 -0.672,2 -1.5,2 -0.828,0 -1.5,-0.895 -1.5,-2 0,-1.105 0.672,-2 1.5,-2 0.828,0 1.5,0.895 1.5,2 z"
           transform="matrix(15.8a715e,0,0,11.5,414.99999,878.8622)"
           id="path14"
           inkscape:connector-curvature="0"
           style="fill:#1890d0" />
      </g>
    </clipPath>
    <clipPath
       id="clipPath-284952804">
      <g
         transform="translate(0,-1004.3622)"
         id="g17">
        <path
           d="m -24,13 c 0,1.105 -0.672,2 -1.5,2 -0.828,0 -1.5,-0.895 -1.5,-2 0,-1.105 0.672,-2 1.5,-2 0.828,0 1.5,0.895 1.5,2 z"
           transform="matrix(15.8a715e,0,0,11.5,414.99999,878.8622)"
           id="path19"
           inkscape:connector-curvature="0"
           style="fill:#1890d0" />
      </g>
    </clipPath>
    <linearGradient
       inkscape:collect="always"
       xlink:href="#linearGradient3764"
       id="linearGradient3806"
       gradientUnits="userSpaceOnUse"
       gradientTransform="matrix(0,-1,1,0,-2e-6,47.999998)"
       x1="1"
       x2="47" />
  </defs>
  <g
     id="g33"
     transform="matrix(4.051497,0,0,4.051497,-5.3989211,-175.00402)" />
  <g
     id="g838"
     transform="matrix(0.04296875,0,0,0.04296875,-7.6775908e-5,21.054647)">
    <path
       id="path839"
       d="m 432.9132,-433.52606 c 102.1929,88.57459 105.82677,249.6997 8.1168,359.89878 C 343.32003,36.571798 181.27955,54.100566 79.086645,-34.474021 -23.106261,-123.04861 -26.740125,-284.17372 70.969845,-394.3728 168.67981,-504.57188 330.72029,-522.10065 432.9132,-433.52606 Z"
       inkscape:connector-curvature="0"
       style="fill:#c6262e;fill-opacity:1;stroke-width:11.10955715" />
    <path
       id="path841"
       d="m 511.63543,-265.09652 c -1.55139,61.31165 -25.16123,124.15461 -70.96638,175.814474 C 342.95908,20.917071 180.91861,38.445801 78.7257,-50.128748 30.827067,-91.644401 4.4967623,-149.07719 0.19377023,-209.77123 0.79902376,-143.41455 27.117348,-79.517863 79.078594,-34.480975 181.27154,54.093574 343.31969,36.556151 441.02195,-73.634273 490.72689,-129.69238 514.02696,-198.92523 511.63543,-265.09652 Z"
       inkscape:connector-curvature="0"
       style="opacity:1;fill:#000000;fill-opacity:0.49019608;stroke-width:11.10955715" />
    <path
       inkscape:connector-curvature="0"
       id="path843"
       d="m 267.89619,-58.145568 c -34.13416,-1.825776 -65.9517,-14.362507 -92.43088,-36.419455 -4.1283,-3.43872 -12.79759,-11.935027 -16.51649,-16.186807 -23.26787,-26.60171 -36.49523,-58.64099 -38.68543,-93.70363 -0.81597,-13.06295 0.15874,-18.6243 4.4101,-25.16152 4.27,-6.56599 10.52988,-10.9646 18.17851,-12.77367 3.17302,-0.75043 9.77752,-0.74207 12.8426,0.0151 8.91289,2.20543 16.11255,8.06018 19.9304,16.20721 2.08872,4.45728 2.53757,6.93627 2.86541,15.8253 0.44867,12.16551 1.64035,21.20576 4.13155,31.34302 12.65651,51.50169 52.27038,90.599995 100.86497,99.552184 7.74743,1.427263 12.93608,1.88897 21.31797,1.896982 8.31179,0.0076 12.69389,-0.334866 19.9962,-1.562494 20.61089,-3.466054 39.81479,-12.264645 56.84114,-26.042532 4.93478,-3.99329 15.31495,-14.49963 19.36184,-19.59707 11.15652,-14.05308 18.72699,-28.49212 24.6898,-47.09054 0.53299,-1.6625 0.88267,-2.52147 0.77707,-1.90896 -0.10545,0.6124 -0.83138,3.18962 -1.61283,5.72716 -5.98598,19.4375 -15.3504,36.87507 -28.47538,53.0242 -4.49492,5.53066 -15.96745,17.030617 -21.41945,21.470887 -26.11824,21.270877 -56.45152,33.195966 -89.72636,35.274442 -4.64697,0.290646 -12.97282,0.342803 -17.34074,0.10885 z M 426.72138,-175.3421 c 0.004,-0.26268 0.12397,-0.83524 0.26419,-1.27268 0.20485,-0.63949 0.25663,-0.67064 0.26419,-0.15912 0.004,0.35037 -0.11376,0.9227 -0.26419,1.27272 -0.16743,0.3899 -0.26985,0.45158 -0.26419,0.15912 z m 0.60738,-2.73105 c 0.0151,-0.37115 0.0907,-0.44602 0.19237,-0.19238 0.0919,0.2298 0.0805,0.50416 -0.0265,0.60987 -0.10583,0.10583 -0.18104,-0.0824 -0.16706,-0.41768 z m 0.31823,-1.27272 c 0.0151,-0.37114 0.0907,-0.44602 0.19238,-0.19237 0.0918,0.22979 0.0805,0.50403 -0.0265,0.60975 -0.10582,0.10582 -0.18104,-0.0824 -0.16705,-0.41756 z m 0.31824,-1.27268 c 0.0151,-0.37115 0.0907,-0.44602 0.19238,-0.19237 0.0918,0.22979 0.0805,0.50415 -0.0265,0.60986 -0.10583,0.10583 -0.18104,-0.0824 -0.16706,-0.41756 z m 0.31823,-1.59095 c 0.0151,-0.37115 0.0907,-0.44602 0.19238,-0.19238 0.0918,0.2298 0.0805,0.50415 -0.0265,0.60987 -0.10582,0.10582 -0.18103,-0.0824 -0.16705,-0.41768 z m -30.77979,-2.83056 c -5.87777,-1.06659 -10.78775,-3.58405 -15.17805,-7.78239 -2.74776,-2.62745 -4.63994,-5.25997 -6.24919,-8.69397 -2.08868,-4.4572 -2.53753,-6.93619 -2.86541,-15.82519 -0.44866,-12.16554 -1.64035,-21.20579 -4.13155,-31.34305 -12.65858,-51.51031 -52.27294,-90.60873 -100.86497,-99.55139 -22.10929,-4.06897 -44.43764,-1.88705 -65.38567,6.38914 -36.50846,14.42403 -65.25438,46.82811 -77.00183,86.80112 -0.77144,2.62491 -1.40859,4.57194 -1.41592,4.32653 -0.0227,-0.79317 2.18702,-8.4579 3.82756,-13.27079 6.27678,-18.41461 15.63614,-35.00965 28.33282,-50.23698 3.42572,-4.10854 11.91779,-12.77745 16.18949,-16.52656 33.96434,-29.80947 78.18863,-43.36289 122.97603,-37.68846 30.83199,3.90633 59.62231,16.94974 83.20369,37.69542 3.67616,3.23418 11.82581,11.43662 14.83246,14.92864 22.64058,26.29584 35.55723,58.2421 37.69587,93.23199 0.76721,12.55215 -0.27666,18.15348 -4.62425,24.81225 -6.31295,9.66921 -18.0819,14.77682 -29.34108,12.73369 z m -274.03543,-62.07787 c 0.0151,-0.37115 0.0907,-0.44603 0.192,-0.19238 0.0918,0.22979 0.0805,0.50415 -0.0265,0.60986 -0.10583,0.10583 -0.18104,-0.082 -0.16705,-0.41767 z m 0.31823,-1.27268 c 0.0151,-0.37115 0.0907,-0.44603 0.19238,-0.19238 0.0918,0.22979 0.0805,0.50404 -0.0265,0.60986 -0.10582,0.10583 -0.18103,-0.0824 -0.16705,-0.41767 z m 0.31824,-1.27268 c 0.0151,-0.37115 0.0907,-0.44603 0.19238,-0.19238 0.0918,0.22979 0.0805,0.50404 -0.0265,0.60975 -0.10583,0.10583 -0.18104,-0.0824 -0.16705,-0.41756 z"
       style="fill:#000000;fill-opacity:0.49019608;stroke-width:0.31817862" />
    <path
       style="fill:#ffffff;stroke-width:0.31817862"
       d="m 247.8961,-78.14563 c -34.13419,-1.825776 -65.95173,-14.362507 -92.43087,-36.41945 -4.12834,-3.43873 -12.7976,-11.93503 -16.51654,-16.18681 -23.26783,-26.60171 -36.49523,-58.64099 -38.68539,-93.70363 -0.815963,-13.06296 0.15874,-18.62431 4.4101,-25.16153 4.27,-6.56598 10.52988,-10.9646 18.17851,-12.77367 3.17303,-0.75042 9.77752,-0.74207 12.84257,0.0151 8.91292,2.20543 16.11254,8.06018 19.93039,16.20722 2.08872,4.45727 2.53762,6.93626 2.86545,15.8253 0.44867,12.1655 1.64035,21.20575 4.13155,31.34301 12.65651,51.5017 52.27038,90.6 100.86497,99.552192 7.74743,1.427263 12.93604,1.88897 21.31797,1.896982 8.31179,0.0076 12.69389,-0.334866 19.99616,-1.562494 20.61094,-3.46605 39.81483,-12.26464 56.84119,-26.04253 4.93477,-3.9933 15.31494,-14.49963 19.36183,-19.59708 11.15653,-14.05308 18.727,-28.49212 24.68981,-47.09053 0.53298,-1.6625 0.88267,-2.52147 0.77707,-1.90896 -0.10545,0.61239 -0.83139,3.18961 -1.61284,5.72715 -5.98598,19.43751 -15.3504,36.87507 -28.47538,53.0242 -4.49491,5.53066 -15.96744,17.03063 -21.41945,21.47089 -26.11823,21.270882 -56.45151,33.195971 -89.7264,35.274447 -4.64696,0.290646 -12.97281,0.342803 -17.3407,0.10885 z m 158.8252,-117.19653 c 0.004,-0.26268 0.12397,-0.83524 0.26419,-1.27268 0.20485,-0.6395 0.25663,-0.67064 0.26419,-0.15912 0.004,0.35036 -0.11377,0.92269 -0.26419,1.27272 -0.16744,0.38989 -0.26986,0.45157 -0.26419,0.15911 z m 0.60737,-2.73105 c 0.0151,-0.37115 0.0907,-0.44602 0.19238,-0.19238 0.0918,0.2298 0.0805,0.50415 -0.0265,0.60986 -0.10583,0.10583 -0.18104,-0.0824 -0.16706,-0.41767 z m 0.31823,-1.27272 c 0.0151,-0.37115 0.0907,-0.44602 0.19238,-0.19238 0.0918,0.2298 0.0805,0.50404 -0.0264,0.60975 -0.10583,0.10583 -0.18104,-0.0824 -0.16706,-0.41756 z m 0.31824,-1.27268 c 0.0151,-0.37115 0.0907,-0.44602 0.19238,-0.19238 0.0918,0.2298 0.0805,0.50415 -0.0265,0.60987 -0.10583,0.10582 -0.18104,-0.0824 -0.16705,-0.41757 z m 0.31824,-1.59096 c 0.0151,-0.37114 0.0907,-0.44602 0.19237,-0.19237 0.0919,0.22979 0.0805,0.50415 -0.0265,0.60986 -0.10583,0.10583 -0.18104,-0.0824 -0.16706,-0.41767 z m -30.7798,-2.83056 c -5.87777,-1.06658 -10.78775,-3.58405 -15.17805,-7.78239 -2.74775,-2.62745 -4.63994,-5.25996 -6.24918,-8.69397 -2.08868,-4.45719 -2.53754,-6.93619 -2.86541,-15.82518 -0.44867,-12.16554 -1.64036,-21.2058 -4.13156,-31.34306 -12.65862,-51.51031 -52.27294,-90.60873 -100.86496,-99.55139 -22.10933,-4.06896 -44.43769,-1.88704 -65.38568,6.38914 -36.5085,14.42404 -65.25437,46.82812 -77.00186,86.80112 -0.77144,2.62492 -1.40859,4.57194 -1.41589,4.32654 -0.0227,-0.79317 2.18702,-8.4579 3.82757,-13.27079 6.27677,-18.41462 15.63609,-35.00965 28.33281,-50.23699 3.42572,-4.10854 11.91779,-12.77745 16.18945,-16.52655 33.96435,-29.80947 78.18864,-43.3629 122.97604,-37.68847 30.83202,3.90633 59.62231,16.94975 83.20373,37.69542 3.67615,3.23418 11.8258,11.43663 14.83245,14.92865 22.64058,26.29583 35.55723,58.2421 37.69587,93.23198 0.76721,12.55215 -0.27666,18.15349 -4.62425,24.81226 -6.31294,9.6692 -18.0819,14.77682 -29.34108,12.73368 z M 103.46815,-267.118 c 0.0151,-0.37115 0.0907,-0.44602 0.19238,-0.19238 0.0918,0.2298 0.0805,0.50415 -0.0265,0.60987 -0.10583,0.10582 -0.18104,-0.082 -0.16705,-0.41768 z m 0.31824,-1.27268 c 0.0151,-0.37115 0.0907,-0.44602 0.19237,-0.19238 0.0919,0.2298 0.0805,0.50404 -0.0264,0.60987 -0.10583,0.10582 -0.18104,-0.0824 -0.16706,-0.41768 z m 0.31823,-1.27268 c 0.0151,-0.37115 0.0907,-0.44602 0.192,-0.19238 0.0918,0.2298 0.0805,0.50404 -0.0265,0.60975 -0.10583,0.10583 -0.18104,-0.0824 -0.16706,-0.41756 z"
       id="path845"
       inkscape:connector-curvature="0" />
  </g>
</svg>
