<?xml version="1.0" encoding="UTF-8" standalone="no"?>
<svg
   xmlns:dc="http://purl.org/dc/elements/1.1/"
   xmlns:cc="http://creativecommons.org/ns#"
   xmlns:rdf="http://www.w3.org/1999/02/22-rdf-syntax-ns#"
   xmlns:svg="http://www.w3.org/2000/svg"
   xmlns="http://www.w3.org/2000/svg"
   xmlns:sodipodi="http://sodipodi.sourceforge.net/DTD/sodipodi-0.dtd"
   xmlns:inkscape="http://www.inkscape.org/namespaces/inkscape"
   height="22"
   width="22"
   version="1.1"
   id="svg2"
   inkscape:version="0.92.2 5c3e80d, 2017-08-06"
   sodipodi:docname="stock_appointment-reminder-excl.svg">
  <metadata
     id="metadata27">
    <rdf:RDF>
      <cc:Work
         rdf:about="">
        <dc:format>image/svg+xml</dc:format>
        <dc:type
           rdf:resource="http://purl.org/dc/dcmitype/StillImage" />
        <dc:title />
      </cc:Work>
    </rdf:RDF>
  </metadata>
  <sodipodi:namedview
     pagecolor="#ffffff"
     bordercolor="#666666"
     borderopacity="1"
     objecttolerance="10"
     gridtolerance="10"
     guidetolerance="10"
     inkscape:pageopacity="0"
     inkscape:pageshadow="2"
     inkscape:window-width="1366"
     inkscape:window-height="717"
     id="namedview25"
     showgrid="false"
     inkscape:zoom="9.8333332"
     inkscape:cx="2.6593417"
     inkscape:cy="9.13623"
     inkscape:window-x="0"
     inkscape:window-y="24"
     inkscape:window-maximized="1"
     inkscape:current-layer="svg2" />
  <defs
     id="defs4">
    <linearGradient
       id="a"
       y2="48"
       gradientUnits="userSpaceOnUse"
       x2="88"
       gradientTransform="matrix(0,-1,1,0,52.881356,90.305085)"
       y1="48"
       x1="8">
      <stop
         stop-color="#aaa"
         offset="0"
         id="stop7" />
      <stop
         stop-color="#f0f0f0"
         offset="1"
         id="stop9" />
    </linearGradient>
  </defs>
  <g
     transform="matrix(0.16240158,0,0,0.16240158,-6.4278092e-7,-26.233229)"
     id="g852">
    <path
       style="fill:#c6262e;fill-opacity:1;stroke-width:2.93940377"
       inkscape:connector-curvature="0"
       d="m 114.54164,176.47539 c 27.03854,23.43536 28,66.06638 2.14757,95.22322 -25.85243,29.15684 -68.725635,33.79466 -95.764176,10.3593 -27.0385417,-23.43536 -27.9999994,-66.06638 -2.14757,-95.22322 25.852429,-29.15684 68.725634,-33.79466 95.764176,-10.3593 z"
       id="path27" />
    <path
       style="opacity:0.1;stroke-width:2.93940377"
       inkscape:connector-curvature="0"
       d="m 135.37023,221.03904 c -0.41047,16.22204 -6.65724,32.84924 -18.77652,46.51758 C 90.741279,296.71347 47.868074,301.35128 20.829532,277.91593 8.156347,266.93158 1.189788,251.73582 0.05128753,235.67719 c 0.1601395,17.55687 7.12353137,34.46287 20.87161747,46.37888 27.038541,23.43535 69.913781,18.79524 95.764175,-10.35931 13.1511,-14.83204 19.31591,-33.1499 18.68315,-50.65772 z"
       id="path51" />
    <path
       style="fill:#b32229;fill-opacity:1;stroke-width:0.10322332"
       d="m 30.864493,272.48172 c -0.62298,-0.21995 -1.370065,-0.98399 -1.588232,-1.62428 -0.159343,-0.46764 -0.172094,-3.16113 -0.172094,-36.35291 0,-35.55653 0.0017,-35.85231 0.205782,-36.39784 0.240912,-0.6439 0.78842,-1.21735 1.445791,-1.5143 0.439096,-0.19834 0.668339,-0.20995 4.190797,-0.21209 l 3.726292,-0.002 -0.0062,2.45156 c -0.0066,2.58712 0.09279,3.39889 0.561749,4.58864 0.699897,1.77566 2.237814,3.13959 4.120649,3.65448 1.068657,0.29224 2.820382,0.24879 3.870874,-0.096 2.277124,-0.74741 3.578893,-2.19412 4.199899,-4.66749 0.210776,-0.83949 0.231307,-1.15583 0.222487,-3.428 l -0.0097,-2.50317 h 18.376024 18.376081 l -0.07012,1.72899 c -0.07996,1.97169 0.04287,3.54247 0.36123,4.61925 0.656594,2.22078 2.197788,3.76941 4.323601,4.34445 0.823806,0.22284 2.602355,0.25233 3.40637,0.0565 1.794587,-0.43714 3.4001,-1.67519 4.079597,-3.14589 0.71746,-1.55285 0.93123,-3.03319 0.83334,-5.77106 l -0.0655,-1.83222 3.74387,0.002 c 3.54141,0.002 3.769,0.0136 4.20838,0.21229 0.56861,0.25709 1.08012,0.73346 1.37675,1.28218 l 0.22321,0.4129 0.0264,36.02235 c 0.0297,40.58924 0.11364,36.61989 -0.79326,37.52679 -0.91217,0.91217 3.41118,0.82429 -40.102141,0.81511 -34.809171,-0.007 -38.658153,-0.0241 -39.071914,-0.1702 z m 72.921737,-5.53536 c 0.62164,-0.29009 1.1993,-0.90367 1.43279,-1.52188 0.15875,-0.42029 0.16958,-2.45434 0.14363,-26.98295 -0.0271,-25.6278 -0.0346,-26.5415 -0.22012,-26.91475 -0.28599,-0.57531 -0.93967,-1.17533 -1.48161,-1.35999 -0.43305,-0.14756 -3.676536,-0.16328 -33.685729,-0.16328 -36.220366,0 -33.609004,-0.0435 -34.418086,0.5736 -0.196946,0.15022 -0.49651,0.55208 -0.669306,0.89788 l -0.312796,0.62596 0.0023,26.4861 c 0.0023,26.41286 0.0028,26.48739 0.212286,26.95061 0.340411,0.75289 0.979248,1.32188 1.746022,1.55512 0.142299,0.0433 15.215785,0.0822 33.496635,0.0866 l 33.237904,0.008 0.51612,-0.24085 z m -65.694297,-2.62174 c -0.194669,-0.0993 -0.450146,-0.31162 -0.567728,-0.47191 -0.20855,-0.2843 -0.213784,-0.40227 -0.213784,-4.81812 0,-4.41585 0.0052,-4.53382 0.213784,-4.81812 0.477765,-0.6513 0.486533,-0.6524 5.20544,-0.6524 4.718908,0 4.727675,0.001 5.205441,0.6524 0.208549,0.2843 0.213783,0.40227 0.213783,4.81812 0,4.41585 -0.0052,4.53382 -0.213783,4.81812 -0.477766,0.65129 -0.486533,0.65239 -5.205441,0.65239 -3.874557,0 -4.317579,-0.0172 -4.637712,-0.18048 z m 13.625478,0 c -0.194669,-0.0993 -0.450147,-0.31162 -0.567729,-0.47191 -0.208549,-0.2843 -0.213783,-0.40227 -0.213783,-4.81812 0,-4.41585 0.0052,-4.53382 0.213783,-4.81812 0.477766,-0.6513 0.486533,-0.6524 5.205441,-0.6524 4.718908,0 4.727675,0.001 5.205441,0.6524 0.208549,0.2843 0.213783,0.40227 0.213783,4.81812 0,4.41585 -0.0052,4.53382 -0.213783,4.81812 -0.477766,0.65129 -0.486533,0.65239 -5.205441,0.65239 -3.874557,0 -4.317579,-0.0172 -4.637712,-0.18048 z m 13.625478,0 c -0.194669,-0.0993 -0.450147,-0.31162 -0.567729,-0.47191 -0.208549,-0.2843 -0.213783,-0.40227 -0.213783,-4.81812 0,-4.41585 0.0052,-4.53382 0.213783,-4.81812 0.477766,-0.6513 0.486533,-0.6524 5.205441,-0.6524 4.718908,0 4.727675,0.001 5.205441,0.6524 0.208549,0.2843 0.213783,0.40227 0.213783,4.81812 0,4.41585 -0.0052,4.53382 -0.213783,4.81812 -0.477766,0.65129 -0.486533,0.65239 -5.205441,0.65239 -3.874557,0 -4.317579,-0.0172 -4.637712,-0.18048 z M 38.091933,250.69915 c -0.194669,-0.0993 -0.450146,-0.31163 -0.567728,-0.47192 -0.20855,-0.2843 -0.213784,-0.40227 -0.213784,-4.81812 0,-4.41585 0.0052,-4.53382 0.213784,-4.81812 0.477765,-0.6513 0.486533,-0.65239 5.20544,-0.65239 4.718908,0 4.727675,0.001 5.205441,0.65239 0.208549,0.2843 0.213783,0.40227 0.213783,4.81812 0,4.41585 -0.0052,4.53382 -0.213783,4.81812 -0.477766,0.6513 -0.486533,0.65239 -5.205441,0.65239 -3.874557,0 -4.317579,-0.0172 -4.637712,-0.18047 z m 13.625478,0 c -0.194669,-0.0993 -0.450147,-0.31163 -0.567729,-0.47192 -0.208549,-0.2843 -0.213783,-0.40227 -0.213783,-4.81812 0,-4.41585 0.0052,-4.53382 0.213783,-4.81812 0.477766,-0.6513 0.486533,-0.65239 5.205441,-0.65239 4.718908,0 4.727675,0.001 5.205441,0.65239 0.208549,0.2843 0.213783,0.40227 0.213783,4.81812 0,4.41585 -0.0052,4.53382 -0.213783,4.81812 -0.477766,0.6513 -0.486533,0.65239 -5.205441,0.65239 -3.874557,0 -4.317579,-0.0172 -4.637712,-0.18047 z m 13.625478,0 c -0.194669,-0.0993 -0.450147,-0.31163 -0.567729,-0.47192 -0.208549,-0.2843 -0.213783,-0.40227 -0.213783,-4.81812 0,-4.41585 0.0052,-4.53382 0.213783,-4.81812 0.477766,-0.6513 0.486533,-0.65239 5.205441,-0.65239 4.718908,0 4.727675,0.001 5.205441,0.65239 0.208549,0.2843 0.213783,0.40227 0.213783,4.81812 0,4.41585 -0.0052,4.53382 -0.213783,4.81812 -0.477766,0.6513 -0.486533,0.65239 -5.205441,0.65239 -3.874557,0 -4.317579,-0.0172 -4.637712,-0.18047 z m 13.625478,0 c -0.194669,-0.0993 -0.450147,-0.31163 -0.567729,-0.47192 -0.208549,-0.2843 -0.213783,-0.40227 -0.213783,-4.81812 0,-4.41585 0.0052,-4.53382 0.213783,-4.81812 0.477766,-0.6513 0.486533,-0.65239 5.205441,-0.65239 4.718906,0 4.727677,0.001 5.20544,0.65239 0.208551,0.2843 0.213783,0.40227 0.213783,4.81812 0,4.41585 -0.0052,4.53382 -0.213783,4.81812 -0.477763,0.6513 -0.486534,0.65239 -5.20544,0.65239 -3.874557,0 -4.317579,-0.0172 -4.637712,-0.18047 z m 13.62548,0 c -0.19467,-0.0993 -0.45015,-0.31163 -0.567729,-0.47192 -0.208551,-0.2843 -0.213787,-0.40227 -0.213787,-4.81812 0,-4.41585 0.0052,-4.53382 0.213787,-4.81812 0.477763,-0.6513 0.48653,-0.65239 5.205439,-0.65239 4.718903,0 4.727673,0.001 5.205433,0.65239 0.20855,0.2843 0.21378,0.40227 0.21378,4.81812 0,4.41585 -0.005,4.53382 -0.21378,4.81812 -0.47776,0.6513 -0.48653,0.65239 -5.205433,0.65239 -3.874559,0 -4.317577,-0.0172 -4.63771,-0.18047 z M 38.091933,237.07367 c -0.194669,-0.0993 -0.450146,-0.31163 -0.567728,-0.47192 -0.20855,-0.2843 -0.213784,-0.40227 -0.213784,-4.81812 0,-4.41585 0.0052,-4.53382 0.213784,-4.81812 0.477765,-0.6513 0.486533,-0.65239 5.20544,-0.65239 4.718908,0 4.727675,0.001 5.205441,0.65239 0.208549,0.2843 0.213783,0.40227 0.213783,4.81812 0,4.41585 -0.0052,4.53382 -0.213783,4.81812 -0.477766,0.6513 -0.486533,0.65239 -5.205441,0.65239 -3.874557,0 -4.317579,-0.0172 -4.637712,-0.18047 z m 13.625478,0 c -0.194669,-0.0993 -0.450147,-0.31163 -0.567729,-0.47192 -0.208549,-0.2843 -0.213783,-0.40227 -0.213783,-4.81812 0,-4.41585 0.0052,-4.53382 0.213783,-4.81812 0.477766,-0.6513 0.486533,-0.65239 5.205441,-0.65239 4.718908,0 4.727675,0.001 5.205441,0.65239 0.208549,0.2843 0.213783,0.40227 0.213783,4.81812 0,4.41585 -0.0052,4.53382 -0.213783,4.81812 -0.477766,0.6513 -0.486533,0.65239 -5.205441,0.65239 -3.874557,0 -4.317579,-0.0172 -4.637712,-0.18047 z m 13.625478,0 c -0.194669,-0.0993 -0.450147,-0.31163 -0.567729,-0.47192 -0.208549,-0.2843 -0.213783,-0.40227 -0.213783,-4.81812 0,-4.41585 0.0052,-4.53382 0.213783,-4.81812 0.477766,-0.6513 0.486533,-0.65239 5.205441,-0.65239 4.718908,0 4.727675,0.001 5.205441,0.65239 0.208549,0.2843 0.213783,0.40227 0.213783,4.81812 0,4.41585 -0.0052,4.53382 -0.213783,4.81812 -0.477766,0.6513 -0.486533,0.65239 -5.205441,0.65239 -3.874557,0 -4.317579,-0.0172 -4.637712,-0.18047 z m 13.625478,0 c -0.194669,-0.0993 -0.450147,-0.31165 -0.567729,-0.47196 -0.208633,-0.28446 -0.213783,-0.40175 -0.213783,-4.86901 v -4.57754 l 0.258058,-0.27965 c 0.513109,-0.55604 0.57472,-0.56273 5.183658,-0.56256 4.693964,2.1e-4 4.70545,0.002 5.182948,0.65256 0.208551,0.2843 0.213783,0.40227 0.213783,4.81812 0,4.41585 -0.0052,4.53382 -0.213783,4.81812 -0.477763,0.6513 -0.486534,0.65239 -5.20544,0.65239 -3.874557,0 -4.317579,-0.0172 -4.637712,-0.18047 z m 13.62548,0 c -0.19467,-0.0993 -0.45015,-0.31163 -0.567729,-0.47192 -0.208551,-0.2843 -0.213787,-0.40227 -0.213787,-4.81812 0,-4.41585 0.0052,-4.53382 0.213787,-4.81812 0.477763,-0.6513 0.48653,-0.65239 5.205439,-0.65239 4.718903,0 4.727673,0.001 5.205433,0.65239 0.20855,0.2843 0.21378,0.40227 0.21378,4.81812 0,4.41585 -0.005,4.53382 -0.21378,4.81812 -0.47776,0.6513 -0.48653,0.65239 -5.205433,0.65239 -3.874559,0 -4.317577,-0.0172 -4.63771,-0.18047 z M 38.091933,223.44819 c -0.194669,-0.0993 -0.450146,-0.31163 -0.567728,-0.47192 -0.20855,-0.28429 -0.213784,-0.40227 -0.213784,-4.81812 0,-4.41585 0.0052,-4.53382 0.213784,-4.81812 0.477765,-0.65129 0.486533,-0.65239 5.20544,-0.65239 4.718908,0 4.727675,0.001 5.205441,0.65239 0.208549,0.2843 0.213783,0.40227 0.213783,4.81812 0,4.41585 -0.0052,4.53383 -0.213783,4.81812 -0.477766,0.6513 -0.486533,0.6524 -5.205441,0.6524 -3.874557,0 -4.317579,-0.0173 -4.637712,-0.18048 z m 13.625478,0 c -0.194669,-0.0993 -0.450147,-0.31157 -0.567729,-0.4718 -0.207364,-0.28257 -0.214601,-0.42515 -0.240994,-4.74827 -0.02628,-4.30487 -0.02015,-4.46844 0.179698,-4.79338 0.113799,-0.18503 0.358296,-0.42872 0.543327,-0.54153 0.321578,-0.19607 0.527682,-0.20513 4.671798,-0.20535 4.776114,-2e-4 4.778699,8e-5 5.257053,0.65217 0.208549,0.2843 0.213783,0.40227 0.213783,4.81812 0,4.41585 -0.0052,4.53383 -0.213783,4.81812 -0.477766,0.6513 -0.486533,0.6524 -5.205441,0.6524 -3.874557,0 -4.317579,-0.0173 -4.637712,-0.18048 z m 13.625478,0 c -0.194669,-0.0993 -0.450147,-0.31163 -0.567729,-0.47192 -0.208549,-0.28429 -0.213783,-0.40227 -0.213783,-4.81812 0,-4.41585 0.0052,-4.53382 0.213783,-4.81812 0.477766,-0.65129 0.486533,-0.65239 5.205441,-0.65239 4.718908,0 4.727675,0.001 5.205441,0.65239 0.208549,0.2843 0.213783,0.40227 0.213783,4.81812 0,4.41585 -0.0052,4.53383 -0.213783,4.81812 -0.477766,0.6513 -0.486533,0.6524 -5.205441,0.6524 -3.874557,0 -4.317579,-0.0173 -4.637712,-0.18048 z m 13.625478,0 c -0.194669,-0.0993 -0.450147,-0.31163 -0.567729,-0.47192 -0.208549,-0.28429 -0.213783,-0.40227 -0.213783,-4.81812 0,-4.41585 0.0052,-4.53382 0.213783,-4.81812 0.477766,-0.65129 0.486533,-0.65239 5.205441,-0.65239 4.718906,0 4.727677,0.001 5.20544,0.65239 0.208551,0.2843 0.213783,0.40227 0.213783,4.81812 0,4.41585 -0.0052,4.53383 -0.213783,4.81812 -0.477763,0.6513 -0.486534,0.6524 -5.20544,0.6524 -3.874557,0 -4.317579,-0.0173 -4.637712,-0.18048 z m 13.62548,0 c -0.19467,-0.0993 -0.45015,-0.31163 -0.567729,-0.47192 -0.208551,-0.28429 -0.213787,-0.40227 -0.213787,-4.81812 0,-4.41585 0.0052,-4.53382 0.213787,-4.81812 0.477763,-0.65129 0.48653,-0.65239 5.205439,-0.65239 4.718903,0 4.727673,0.001 5.205433,0.65239 0.20855,0.2843 0.21378,0.40227 0.21378,4.81812 0,4.41585 -0.005,4.53383 -0.21378,4.81812 -0.47776,0.6513 -0.48653,0.6524 -5.205433,0.6524 -3.874559,0 -4.317577,-0.0173 -4.63771,-0.18048 z M 44.147363,204.83326 c -1.055201,-0.24861 -2.237738,-1.24435 -2.721498,-2.2916 l -0.296182,-0.64118 v -4.38916 -4.38916 l 0.335561,-0.66879 c 0.184559,-0.36782 0.44593,-0.79245 0.580825,-0.94362 1.17223,-1.31361 2.987702,-1.74801 4.657674,-1.11446 0.850749,0.32276 1.879581,1.34529 2.228741,2.21509 l 0.248618,0.61934 v 4.28377 c 0,4.24181 -0.0023,4.28958 -0.23954,4.87696 -0.278811,0.69044 -1.083926,1.61909 -1.733999,2.00005 -0.850958,0.4987 -2.072563,0.67544 -3.0602,0.44276 z m 49.551476,-0.0337 c -0.697886,-0.20161 -1.306279,-0.58623 -1.854673,-1.17251 -1.085661,-1.16066 -1.13907,-1.47324 -1.097466,-6.4232 0.03297,-3.92045 0.03675,-3.98246 0.282017,-4.59344 0.180321,-0.44919 0.435536,-0.80625 0.92901,-1.29973 0.917079,-0.91707 1.545037,-1.17082 2.899693,-1.17171 0.892774,-3.9e-4 1.041408,0.0289 1.659179,0.32879 0.82791,0.40193 1.646005,1.2314 2.03664,2.06497 l 0.278279,0.5938 v 4.38916 4.38917 l -0.329777,0.66987 c -0.415182,0.84336 -1.135095,1.56887 -1.959459,1.9747 -0.521779,0.25687 -0.798166,0.32201 -1.497831,0.353 -0.530448,0.0235 -1.044135,-0.0158 -1.345612,-0.10287 z"
       id="path846"
       inkscape:connector-curvature="0" />
    <path
       inkscape:connector-curvature="0"
       id="path844"
       d="m 28.218659,269.83589 c -0.62298,-0.21995 -1.370065,-0.98399 -1.588232,-1.62428 -0.159343,-0.46764 -0.172094,-3.16113 -0.172094,-36.35291 0,-35.55653 0.0017,-35.85231 0.205782,-36.39784 0.240912,-0.6439 0.78842,-1.21735 1.445791,-1.5143 0.439096,-0.19834 0.668339,-0.20995 4.190797,-0.21209 l 3.726292,-0.002 -0.0062,2.45156 c -0.0066,2.58712 0.09279,3.39889 0.561749,4.58864 0.699897,1.77566 2.237814,3.13959 4.120649,3.65448 1.068657,0.29224 2.820382,0.24879 3.870874,-0.096 2.277124,-0.74741 3.578893,-2.19412 4.199899,-4.66749 0.210776,-0.83949 0.231307,-1.15583 0.222487,-3.428 l -0.0097,-2.50317 h 18.376024 18.376081 l -0.07012,1.72899 c -0.07996,1.97169 0.04287,3.54247 0.36123,4.61925 0.656594,2.22078 2.197788,3.76941 4.323601,4.34445 0.823806,0.22284 2.602355,0.25233 3.40637,0.0565 1.794587,-0.43714 3.4001,-1.67519 4.079602,-3.14589 0.71746,-1.55285 0.93123,-3.03319 0.83334,-5.77106 l -0.0655,-1.83222 3.743869,0.002 c 3.54141,0.002 3.769,0.0136 4.20838,0.21229 0.56861,0.25709 1.08012,0.73346 1.37675,1.28218 l 0.22321,0.4129 0.0264,36.02235 c 0.0297,40.58924 0.11364,36.61989 -0.79326,37.52679 -0.91217,0.91217 3.41118,0.82429 -40.102145,0.81511 -34.809171,-0.007 -38.658153,-0.0241 -39.071914,-0.1702 z m 72.921741,-5.53536 c 0.62164,-0.29009 1.1993,-0.90367 1.43279,-1.52188 0.15875,-0.42029 0.16958,-2.45434 0.14363,-26.98295 -0.0271,-25.6278 -0.0346,-26.5415 -0.22012,-26.91475 -0.28599,-0.57531 -0.93967,-1.17533 -1.48161,-1.35999 -0.43305,-0.14756 -3.67654,-0.16328 -33.685733,-0.16328 -36.220366,0 -33.609004,-0.0435 -34.418086,0.5736 -0.196946,0.15022 -0.49651,0.55208 -0.669306,0.89788 l -0.312796,0.62596 0.0023,26.4861 c 0.0023,26.41286 0.0028,26.48739 0.212286,26.95061 0.340411,0.75289 0.979248,1.32188 1.746022,1.55512 0.142299,0.0433 15.215785,0.0822 33.496635,0.0866 l 33.237908,0.008 0.51612,-0.24085 z m -65.694301,-2.62174 c -0.194669,-0.0993 -0.450146,-0.31162 -0.567728,-0.47191 -0.20855,-0.2843 -0.213784,-0.40227 -0.213784,-4.81812 0,-4.41585 0.0052,-4.53382 0.213784,-4.81812 0.477765,-0.6513 0.486533,-0.6524 5.20544,-0.6524 4.718908,0 4.727675,0.001 5.205441,0.6524 0.208549,0.2843 0.213783,0.40227 0.213783,4.81812 0,4.41585 -0.0052,4.53382 -0.213783,4.81812 -0.477766,0.65129 -0.486533,0.65239 -5.205441,0.65239 -3.874557,0 -4.317579,-0.0172 -4.637712,-0.18048 z m 13.625478,0 c -0.194669,-0.0993 -0.450147,-0.31162 -0.567729,-0.47191 -0.208549,-0.2843 -0.213783,-0.40227 -0.213783,-4.81812 0,-4.41585 0.0052,-4.53382 0.213783,-4.81812 0.477766,-0.6513 0.486533,-0.6524 5.205441,-0.6524 4.718908,0 4.727675,0.001 5.205441,0.6524 0.208549,0.2843 0.213783,0.40227 0.213783,4.81812 0,4.41585 -0.0052,4.53382 -0.213783,4.81812 -0.477766,0.65129 -0.486533,0.65239 -5.205441,0.65239 -3.874557,0 -4.317579,-0.0172 -4.637712,-0.18048 z m 13.625478,0 c -0.194669,-0.0993 -0.450147,-0.31162 -0.567729,-0.47191 -0.208549,-0.2843 -0.213783,-0.40227 -0.213783,-4.81812 0,-4.41585 0.0052,-4.53382 0.213783,-4.81812 0.477766,-0.6513 0.486533,-0.6524 5.205441,-0.6524 4.718908,0 4.727675,0.001 5.205441,0.6524 0.208549,0.2843 0.213783,0.40227 0.213783,4.81812 0,4.41585 -0.0052,4.53382 -0.213783,4.81812 -0.477766,0.65129 -0.486533,0.65239 -5.205441,0.65239 -3.874557,0 -4.317579,-0.0172 -4.637712,-0.18048 z M 35.446099,248.05332 c -0.194669,-0.0993 -0.450146,-0.31163 -0.567728,-0.47192 -0.20855,-0.2843 -0.213784,-0.40227 -0.213784,-4.81812 0,-4.41585 0.0052,-4.53382 0.213784,-4.81812 0.477765,-0.6513 0.486533,-0.65239 5.20544,-0.65239 4.718908,0 4.727675,0.001 5.205441,0.65239 0.208549,0.2843 0.213783,0.40227 0.213783,4.81812 0,4.41585 -0.0052,4.53382 -0.213783,4.81812 -0.477766,0.6513 -0.486533,0.65239 -5.205441,0.65239 -3.874557,0 -4.317579,-0.0172 -4.637712,-0.18047 z m 13.625478,0 c -0.194669,-0.0993 -0.450147,-0.31163 -0.567729,-0.47192 -0.208549,-0.2843 -0.213783,-0.40227 -0.213783,-4.81812 0,-4.41585 0.0052,-4.53382 0.213783,-4.81812 0.477766,-0.6513 0.486533,-0.65239 5.205441,-0.65239 4.718908,0 4.727675,0.001 5.205441,0.65239 0.208549,0.2843 0.213783,0.40227 0.213783,4.81812 0,4.41585 -0.0052,4.53382 -0.213783,4.81812 -0.477766,0.6513 -0.486533,0.65239 -5.205441,0.65239 -3.874557,0 -4.317579,-0.0172 -4.637712,-0.18047 z m 13.625478,0 c -0.194669,-0.0993 -0.450147,-0.31163 -0.567729,-0.47192 -0.208549,-0.2843 -0.213783,-0.40227 -0.213783,-4.81812 0,-4.41585 0.0052,-4.53382 0.213783,-4.81812 0.477766,-0.6513 0.486533,-0.65239 5.205441,-0.65239 4.718908,0 4.727675,0.001 5.205441,0.65239 0.208549,0.2843 0.213783,0.40227 0.213783,4.81812 0,4.41585 -0.0052,4.53382 -0.213783,4.81812 -0.477766,0.6513 -0.486533,0.65239 -5.205441,0.65239 -3.874557,0 -4.317579,-0.0172 -4.637712,-0.18047 z m 13.625478,0 c -0.194669,-0.0993 -0.450147,-0.31163 -0.567729,-0.47192 -0.208549,-0.2843 -0.213783,-0.40227 -0.213783,-4.81812 0,-4.41585 0.0052,-4.53382 0.213783,-4.81812 0.477766,-0.6513 0.486533,-0.65239 5.205441,-0.65239 4.718906,0 4.727677,0.001 5.20544,0.65239 0.208551,0.2843 0.213783,0.40227 0.213783,4.81812 0,4.41585 -0.0052,4.53382 -0.213783,4.81812 -0.477763,0.6513 -0.486534,0.65239 -5.20544,0.65239 -3.874557,0 -4.317579,-0.0172 -4.637712,-0.18047 z m 13.62548,0 c -0.19467,-0.0993 -0.45015,-0.31163 -0.567729,-0.47192 -0.208551,-0.2843 -0.213787,-0.40227 -0.213787,-4.81812 0,-4.41585 0.0052,-4.53382 0.213787,-4.81812 0.477763,-0.6513 0.48653,-0.65239 5.205439,-0.65239 4.718908,0 4.727678,0.001 5.205438,0.65239 0.20855,0.2843 0.213779,0.40227 0.213779,4.81812 0,4.41585 -0.005,4.53382 -0.213779,4.81812 -0.47776,0.6513 -0.48653,0.65239 -5.205438,0.65239 -3.874559,0 -4.317577,-0.0172 -4.63771,-0.18047 z M 35.446099,234.42784 c -0.194669,-0.0993 -0.450146,-0.31163 -0.567728,-0.47192 -0.20855,-0.2843 -0.213784,-0.40227 -0.213784,-4.81812 0,-4.41585 0.0052,-4.53382 0.213784,-4.81812 0.477765,-0.6513 0.486533,-0.65239 5.20544,-0.65239 4.718908,0 4.727675,0.001 5.205441,0.65239 0.208549,0.2843 0.213783,0.40227 0.213783,4.81812 0,4.41585 -0.0052,4.53382 -0.213783,4.81812 -0.477766,0.6513 -0.486533,0.65239 -5.205441,0.65239 -3.874557,0 -4.317579,-0.0172 -4.637712,-0.18047 z m 13.625478,0 c -0.194669,-0.0993 -0.450147,-0.31163 -0.567729,-0.47192 -0.208549,-0.2843 -0.213783,-0.40227 -0.213783,-4.81812 0,-4.41585 0.0052,-4.53382 0.213783,-4.81812 0.477766,-0.6513 0.486533,-0.65239 5.205441,-0.65239 4.718908,0 4.727675,0.001 5.205441,0.65239 0.208549,0.2843 0.213783,0.40227 0.213783,4.81812 0,4.41585 -0.0052,4.53382 -0.213783,4.81812 -0.477766,0.6513 -0.486533,0.65239 -5.205441,0.65239 -3.874557,0 -4.317579,-0.0172 -4.637712,-0.18047 z m 13.625478,0 c -0.194669,-0.0993 -0.450147,-0.31163 -0.567729,-0.47192 -0.208549,-0.2843 -0.213783,-0.40227 -0.213783,-4.81812 0,-4.41585 0.0052,-4.53382 0.213783,-4.81812 0.477766,-0.6513 0.486533,-0.65239 5.205441,-0.65239 4.718908,0 4.727675,0.001 5.205441,0.65239 0.208549,0.2843 0.213783,0.40227 0.213783,4.81812 0,4.41585 -0.0052,4.53382 -0.213783,4.81812 -0.477766,0.6513 -0.486533,0.65239 -5.205441,0.65239 -3.874557,0 -4.317579,-0.0172 -4.637712,-0.18047 z m 13.625478,0 c -0.194669,-0.0993 -0.450147,-0.31165 -0.567729,-0.47196 -0.208633,-0.28446 -0.213783,-0.40175 -0.213783,-4.86901 v -4.57754 l 0.258058,-0.27965 c 0.513109,-0.55604 0.57472,-0.56273 5.183658,-0.56256 4.693964,2.1e-4 4.70545,0.002 5.182948,0.65256 0.208551,0.2843 0.213783,0.40227 0.213783,4.81812 0,4.41585 -0.0052,4.53382 -0.213783,4.81812 -0.477763,0.6513 -0.486534,0.65239 -5.20544,0.65239 -3.874557,0 -4.317579,-0.0172 -4.637712,-0.18047 z m 13.62548,0 c -0.19467,-0.0993 -0.45015,-0.31163 -0.567729,-0.47192 -0.208551,-0.2843 -0.213787,-0.40227 -0.213787,-4.81812 0,-4.41585 0.0052,-4.53382 0.213787,-4.81812 0.477763,-0.6513 0.48653,-0.65239 5.205439,-0.65239 4.718908,0 4.727678,0.001 5.205438,0.65239 0.20855,0.2843 0.213779,0.40227 0.213779,4.81812 0,4.41585 -0.005,4.53382 -0.213779,4.81812 -0.47776,0.6513 -0.48653,0.65239 -5.205438,0.65239 -3.874559,0 -4.317577,-0.0172 -4.63771,-0.18047 z M 35.446099,220.80236 c -0.194669,-0.0993 -0.450146,-0.31163 -0.567728,-0.47192 -0.20855,-0.28429 -0.213784,-0.40227 -0.213784,-4.81812 0,-4.41585 0.0052,-4.53382 0.213784,-4.81812 0.477765,-0.65129 0.486533,-0.65239 5.20544,-0.65239 4.718908,0 4.727675,0.001 5.205441,0.65239 0.208549,0.2843 0.213783,0.40227 0.213783,4.81812 0,4.41585 -0.0052,4.53383 -0.213783,4.81812 -0.477766,0.6513 -0.486533,0.6524 -5.205441,0.6524 -3.874557,0 -4.317579,-0.0173 -4.637712,-0.18048 z m 13.625478,0 c -0.194669,-0.0993 -0.450147,-0.31157 -0.567729,-0.4718 -0.207364,-0.28257 -0.214601,-0.42515 -0.240994,-4.74827 -0.02628,-4.30487 -0.02015,-4.46844 0.179698,-4.79338 0.113799,-0.18503 0.358296,-0.42872 0.543327,-0.54153 0.321578,-0.19607 0.527682,-0.20513 4.671798,-0.20535 4.776114,-2e-4 4.778699,8e-5 5.257053,0.65217 0.208549,0.2843 0.213783,0.40227 0.213783,4.81812 0,4.41585 -0.0052,4.53383 -0.213783,4.81812 -0.477766,0.6513 -0.486533,0.6524 -5.205441,0.6524 -3.874557,0 -4.317579,-0.0173 -4.637712,-0.18048 z m 13.625478,0 c -0.194669,-0.0993 -0.450147,-0.31163 -0.567729,-0.47192 -0.208549,-0.28429 -0.213783,-0.40227 -0.213783,-4.81812 0,-4.41585 0.0052,-4.53382 0.213783,-4.81812 0.477766,-0.65129 0.486533,-0.65239 5.205441,-0.65239 4.718908,0 4.727675,0.001 5.205441,0.65239 0.208549,0.2843 0.213783,0.40227 0.213783,4.81812 0,4.41585 -0.0052,4.53383 -0.213783,4.81812 -0.477766,0.6513 -0.486533,0.6524 -5.205441,0.6524 -3.874557,0 -4.317579,-0.0173 -4.637712,-0.18048 z m 13.625478,0 c -0.194669,-0.0993 -0.450147,-0.31163 -0.567729,-0.47192 -0.208549,-0.28429 -0.213783,-0.40227 -0.213783,-4.81812 0,-4.41585 0.0052,-4.53382 0.213783,-4.81812 0.477766,-0.65129 0.486533,-0.65239 5.205441,-0.65239 4.718906,0 4.727677,0.001 5.20544,0.65239 0.208551,0.2843 0.213783,0.40227 0.213783,4.81812 0,4.41585 -0.0052,4.53383 -0.213783,4.81812 -0.477763,0.6513 -0.486534,0.6524 -5.20544,0.6524 -3.874557,0 -4.317579,-0.0173 -4.637712,-0.18048 z m 13.62548,0 c -0.19467,-0.0993 -0.45015,-0.31163 -0.567729,-0.47192 -0.208551,-0.28429 -0.213787,-0.40227 -0.213787,-4.81812 0,-4.41585 0.0052,-4.53382 0.213787,-4.81812 0.477763,-0.65129 0.48653,-0.65239 5.205439,-0.65239 4.718908,0 4.727678,0.001 5.205438,0.65239 0.20855,0.2843 0.213779,0.40227 0.213779,4.81812 0,4.41585 -0.005,4.53383 -0.213779,4.81812 -0.47776,0.6513 -0.48653,0.6524 -5.205438,0.6524 -3.874559,0 -4.317577,-0.0173 -4.63771,-0.18048 z M 41.501529,202.18743 c -1.055201,-0.24861 -2.237738,-1.24435 -2.721498,-2.2916 l -0.296182,-0.64118 v -4.38916 -4.38916 l 0.335561,-0.66879 c 0.184559,-0.36782 0.44593,-0.79245 0.580825,-0.94362 1.17223,-1.31361 2.987702,-1.74801 4.657674,-1.11446 0.850749,0.32276 1.879581,1.34529 2.228741,2.21509 l 0.248618,0.61934 v 4.28377 c 0,4.24181 -0.0023,4.28958 -0.23954,4.87696 -0.278811,0.69044 -1.083926,1.61909 -1.733999,2.00005 -0.850958,0.4987 -2.072563,0.67544 -3.0602,0.44276 z m 49.551476,-0.0337 c -0.697886,-0.20161 -1.306279,-0.58623 -1.854673,-1.17251 -1.085661,-1.16066 -1.13907,-1.47324 -1.097466,-6.4232 0.03297,-3.92045 0.03675,-3.98246 0.282017,-4.59344 0.180321,-0.44919 0.435536,-0.80625 0.92901,-1.29973 0.917079,-0.91707 1.545037,-1.17082 2.899693,-1.17171 0.892774,-3.9e-4 1.041408,0.0289 1.659179,0.32879 0.82791,0.40193 1.646005,1.2314 2.03664,2.06497 l 0.278279,0.5938 v 4.38916 4.38917 l -0.329777,0.66987 c -0.415182,0.84336 -1.135095,1.56887 -1.959459,1.9747 -0.521779,0.25687 -0.798166,0.32201 -1.497831,0.353 -0.530448,0.0235 -1.044135,-0.0158 -1.345612,-0.10287 z"
       style="fill:#ffffff;stroke-width:0.10322332" />
  </g>
</svg>
