<?xml version="1.0" encoding="UTF-8" standalone="no"?>
<!-- Created with Inkscape (http://www.inkscape.org/) -->

<svg
   xmlns:dc="http://purl.org/dc/elements/1.1/"
   xmlns:cc="http://creativecommons.org/ns#"
   xmlns:rdf="http://www.w3.org/1999/02/22-rdf-syntax-ns#"
   xmlns:svg="http://www.w3.org/2000/svg"
   xmlns="http://www.w3.org/2000/svg"
   xmlns:sodipodi="http://sodipodi.sourceforge.net/DTD/sodipodi-0.dtd"
   xmlns:inkscape="http://www.inkscape.org/namespaces/inkscape"
   width="22"
   height="22"
   id="svg2"
   version="1.1"
   inkscape:version="0.92.2 5c3e80d, 2017-08-06"
   sodipodi:docname="stock_dialog-info.svg">
  <defs
     id="defs4" />
  <sodipodi:namedview
     id="base"
     pagecolor="#ffffff"
     bordercolor="#666666"
     borderopacity="1.0"
     inkscape:pageopacity="0.0"
     inkscape:pageshadow="2"
     inkscape:zoom="11.2"
     inkscape:cx="19.363496"
     inkscape:cy="11.176928"
     inkscape:document-units="px"
     inkscape:current-layer="layer1"
     showgrid="false"
     inkscape:window-width="1366"
     inkscape:window-height="717"
     inkscape:window-x="0"
     inkscape:window-y="24"
     inkscape:window-maximized="1" />
  <metadata
     id="metadata7">
    <rdf:RDF>
      <cc:Work
         rdf:about="">
        <dc:format>image/svg+xml</dc:format>
        <dc:type
           rdf:resource="http://purl.org/dc/dcmitype/StillImage" />
        <dc:title />
      </cc:Work>
    </rdf:RDF>
  </metadata>
  <g
     inkscape:label="Layer 1"
     inkscape:groupmode="layer"
     id="layer1"
     transform="translate(0,-1030.3622)">
    <g
       transform="matrix(0.16240158,0,0,0.16240158,-49.242671,1003.4326)"
       id="g917">
      <path
         style="fill:#f9c440;fill-opacity:1;stroke-width:2.93940401"
         inkscape:connector-curvature="0"
         d="m 417.75701,180.76327 c 27.03854,23.43536 28,66.06639 2.14757,95.22323 -25.85244,29.15684 -68.72564,33.79466 -95.76417,10.3593 -27.03855,-23.43536 -28,-66.06639 -2.14757,-95.22323 25.85242,-29.15684 68.72562,-33.79466 95.76417,-10.3593 z"
         id="path1286" />
      <path
         style="opacity:1;fill:#000000;fill-opacity:0.49019608;stroke-width:2.93940401"
         inkscape:connector-curvature="0"
         d="m 438.5856,225.32693 c -0.41047,16.22203 -6.65724,32.84923 -18.77652,46.51757 -25.85244,29.15685 -68.72564,33.79466 -95.76418,10.35931 -12.67318,-10.98434 -19.63974,-26.18011 -20.77824,-42.23873 0.16014,17.55686 7.12353,34.46287 20.87162,46.37887 27.03853,23.43536 69.91377,18.79524 95.76417,-10.3593 13.1511,-14.83205 19.31591,-33.14991 18.68315,-50.65772 z"
         id="path1288" />
      <path
         inkscape:connector-curvature="0"
         id="path1290"
         d="m 367.07327,279.88406 c -2.66222,-0.8445 -3.79594,-3.46266 -3.42085,-7.89996 0.12562,-1.48606 1.65247,-8.64888 3.39301,-15.91739 1.74053,-7.26853 3.195,-13.87866 3.23215,-14.68919 0.0673,-1.46962 0.064,-1.47342 -1.22193,-1.36877 -0.70922,0.0577 -3.17502,1.011 -5.47956,2.11843 -2.30454,1.10743 -4.23683,2.01351 -4.29398,2.01351 -0.0571,0 -0.54853,-0.7587 -1.09197,-1.686 -0.84169,-1.43625 -0.90999,-1.75006 -0.46101,-2.11843 10.97462,-9.00449 25.91931,-15.74895 29.58098,-13.34972 1.61838,1.06039 2.1315,2.86828 1.88858,6.65407 -0.16141,2.51548 -1.06624,6.59823 -3.74875,16.91501 -2.35721,9.06569 -3.49919,14.10132 -3.42561,15.1054 0.10909,1.48864 0.12631,1.50527 1.47728,1.42681 1.46422,-0.0851 4.97699,-1.71047 7.6307,-3.53089 l 1.62912,-1.11755 1.22068,1.44284 c 0.67138,0.79357 1.22316,1.5523 1.22618,1.68606 0.01,0.42084 -5.21509,4.92358 -8.1446,7.01933 -7.21222,5.15957 -16.28612,8.47152 -19.99042,7.29644 z m 13.05248,-64.5708 c -2.76112,-0.92796 -4.80689,-4.1553 -4.80689,-7.58318 0,-2.03318 1.20485,-4.88396 2.82639,-6.68751 2.21245,-2.46077 4.39155,-3.42195 7.86595,-3.46956 3.88357,-0.0532 5.99639,1.03427 7.47369,3.84683 0.9174,1.74657 1.03718,2.32381 0.91401,4.40474 -0.33562,5.6709 -4.46418,9.55595 -10.42207,9.80737 -1.41843,0.0599 -3.15142,-0.0836 -3.85108,-0.31869 z"
         style="fill:#000000;fill-opacity:0.49019608;stroke-width:0.36842424" />
      <path
         style="fill:#ffffff;fill-opacity:1;stroke-width:0.36842424"
         d="m 361.78156,274.59245 c -2.66221,-0.8445 -3.79593,-3.46266 -3.42084,-7.89996 0.12561,-1.48606 1.65247,-8.64888 3.393,-15.91739 1.74054,-7.26853 3.19501,-13.87866 3.23216,-14.68919 0.0673,-1.46962 0.064,-1.47342 -1.22194,-1.36877 -0.70921,0.0577 -3.17501,1.011 -5.47955,2.11843 -2.30454,1.10743 -4.23683,2.01351 -4.29398,2.01351 -0.0571,0 -0.54853,-0.7587 -1.09197,-1.686 -0.8417,-1.43625 -0.90999,-1.75006 -0.46101,-2.11843 10.97462,-9.00449 25.91931,-15.74895 29.58098,-13.34972 1.61837,1.06039 2.1315,2.86828 1.88858,6.65407 -0.16141,2.51548 -1.06624,6.59823 -3.74875,16.91501 -2.35721,9.06569 -3.49919,14.10132 -3.42561,15.1054 0.10908,1.48864 0.12631,1.50527 1.47728,1.42681 1.46422,-0.0851 4.97698,-1.71047 7.6307,-3.53089 l 1.62911,-1.11755 1.22069,1.44284 c 0.67138,0.79357 1.22316,1.5523 1.22617,1.68606 0.01,0.42084 -5.21509,4.92358 -8.14459,7.01933 -7.21223,5.15957 -16.28613,8.47152 -19.99043,7.29644 z m 13.05249,-64.5708 c -2.76112,-0.92796 -4.80689,-4.1553 -4.80689,-7.58318 0,-2.03318 1.20484,-4.88396 2.82639,-6.68751 2.21245,-2.46077 4.39154,-3.42195 7.86595,-3.46956 3.88357,-0.0532 5.99639,1.03427 7.47369,3.84683 0.91739,1.74657 1.03717,2.32381 0.91401,4.40474 -0.33563,5.6709 -4.46419,9.55595 -10.42208,9.80737 -1.41843,0.0599 -3.15141,-0.0836 -3.85107,-0.31869 z"
         id="path1292"
         inkscape:connector-curvature="0" />
    </g>
  </g>
</svg>
