<?xml version="1.0" encoding="UTF-8" standalone="no"?>
<!-- Created with Inkscape (http://www.inkscape.org/) -->

<svg
   xmlns:dc="http://purl.org/dc/elements/1.1/"
   xmlns:cc="http://creativecommons.org/ns#"
   xmlns:rdf="http://www.w3.org/1999/02/22-rdf-syntax-ns#"
   xmlns:svg="http://www.w3.org/2000/svg"
   xmlns="http://www.w3.org/2000/svg"
   xmlns:sodipodi="http://sodipodi.sourceforge.net/DTD/sodipodi-0.dtd"
   xmlns:inkscape="http://www.inkscape.org/namespaces/inkscape"
   width="22"
   height="22"
   viewBox="0 0 22 22"
   id="svg2"
   version="1.1"
   inkscape:version="0.92.2 5c3e80d, 2017-08-06"
   sodipodi:docname="stock_weather-night-clear.svg">
  <defs
     id="defs4" />
  <sodipodi:namedview
     id="base"
     pagecolor="#ffffff"
     bordercolor="#666666"
     borderopacity="1.0"
     inkscape:pageopacity="0.0"
     inkscape:pageshadow="2"
     inkscape:zoom="11.2"
     inkscape:cx="4.5088524"
     inkscape:cy="12.540471"
     inkscape:document-units="px"
     inkscape:current-layer="layer1"
     showgrid="false"
     units="px"
     inkscape:window-width="1366"
     inkscape:window-height="717"
     inkscape:window-x="0"
     inkscape:window-y="24"
     inkscape:window-maximized="1" />
  <metadata
     id="metadata7">
    <rdf:RDF>
      <cc:Work
         rdf:about="">
        <dc:format>image/svg+xml</dc:format>
        <dc:type
           rdf:resource="http://purl.org/dc/dcmitype/StillImage" />
        <dc:title />
      </cc:Work>
    </rdf:RDF>
  </metadata>
  <g
     inkscape:label="Layer 1"
     inkscape:groupmode="layer"
     id="layer1"
     transform="translate(0,-1030.3622)">
    <g
       id="g834"
       transform="matrix(0.04296875,0,0,0.04296875,3.9426152e-6,1007.1435)">
      <g
         transform="matrix(8.0447857,6.9727288,-7.6918814,8.6750446,247.5303,420.8156)"
         id="g1014"
         style="fill:#8a715e;fill-opacity:1">
        <path
           style="fill:#8a715e;fill-opacity:1"
           inkscape:connector-curvature="0"
           d="M 24,1 C 36.703,1 47,11.297 47,24 47,36.703 36.703,47 24,47 11.297,47 1,36.703 1,24 1,11.297 11.297,1 24,1 Z"
           id="path1012" />
      </g>
      <path
         id="path1016"
         d="m 511.63551,765.26569 c -1.5514,61.31166 -25.16123,124.1546 -70.96638,175.81449 C 342.95916,1051.2793 180.91869,1068.808 78.725782,980.23344 30.827128,938.71781 4.4968259,881.285 0.193832,820.59096 0.79908356,886.94764 27.117415,950.84436 79.078686,995.88121 181.2716,1084.4558 343.31975,1066.9184 441.02203,956.72795 490.72697,900.66981 514.02705,831.43698 511.63551,765.26569 Z"
         inkscape:connector-curvature="0"
         style="opacity:1;fill:#000000;fill-opacity:0.49019608;stroke-width:11.10955811" />
      <path
         style="fill:#000000;fill-opacity:0.49019608;fill-rule:evenodd;stroke:none;stroke-width:15.59999466px;stroke-linecap:butt;stroke-linejoin:miter;stroke-opacity:1"
         d="m 432.00002,855.8325 c 0,0 -41.99263,31.45428 -89.00119,32.61464 -40.21161,0.99643 -72.81797,-13.59398 -101.74882,-52.60468 -23.50529,-31.69425 -25.76579,-65.12375 -12.10507,-94.54038 22.80851,-49.1136 89.57122,-76.21546 89.57122,-76.21546 0,0 -106.776,-16.77782 -161.65411,42.55071 -40.50164,43.78711 -56.28333,143.22947 -3.27408,203.17414 62.74015,70.94555 132.92583,66.92561 189.71138,37.91286 56.20192,-28.715 88.50037,-92.89183 88.50037,-92.89183 z"
         id="path908"
         inkscape:connector-curvature="0"
         sodipodi:nodetypes="cssscsssc" />
      <path
         sodipodi:nodetypes="cssscsssc"
         inkscape:connector-curvature="0"
         id="path3351"
         d="m 412.00003,835.83249 c 0,0 -41.99265,31.45429 -89.0012,32.61464 -40.2116,0.99643 -72.81797,-13.59398 -101.74881,-52.60468 -23.5053,-31.69425 -25.7658,-65.12375 -12.10508,-94.54038 22.80851,-49.1136 89.57122,-76.21546 89.57122,-76.21546 0,0 -106.776,-16.77782 -161.65411,42.55071 -40.501639,43.78712 -56.283333,143.22947 -3.27408,203.17414 62.74016,70.94555 132.92583,66.92561 189.71138,37.91286 56.20193,-28.715 88.50038,-92.89183 88.50038,-92.89183 z"
         style="fill:#ffffff;fill-opacity:1;fill-rule:evenodd;stroke:none;stroke-width:15.59999466px;stroke-linecap:butt;stroke-linejoin:miter;stroke-opacity:1" />
    </g>
  </g>
</svg>
