<?xml version="1.0" encoding="UTF-8" standalone="no"?>
<!-- Created with Inkscape (http://www.inkscape.org/) -->

<svg
   xmlns:dc="http://purl.org/dc/elements/1.1/"
   xmlns:cc="http://creativecommons.org/ns#"
   xmlns:rdf="http://www.w3.org/1999/02/22-rdf-syntax-ns#"
   xmlns:svg="http://www.w3.org/2000/svg"
   xmlns="http://www.w3.org/2000/svg"
   xmlns:sodipodi="http://sodipodi.sourceforge.net/DTD/sodipodi-0.dtd"
   xmlns:inkscape="http://www.inkscape.org/namespaces/inkscape"
   width="22"
   height="22"
   viewBox="0 0 22 22"
   id="svg2"
   version="1.1"
   inkscape:version="0.92.2 5c3e80d, 2017-08-06"
   sodipodi:docname="sunny.svg">
  <defs
     id="defs4" />
  <sodipodi:namedview
     id="base"
     pagecolor="#ffffff"
     bordercolor="#666666"
     borderopacity="1.0"
     inkscape:pageopacity="0.0"
     inkscape:pageshadow="2"
     inkscape:zoom="15.839192"
     inkscape:cx="-0.39908118"
     inkscape:cy="8.9861326"
     inkscape:document-units="px"
     inkscape:current-layer="layer1"
     showgrid="false"
     units="px"
     inkscape:window-width="1366"
     inkscape:window-height="717"
     inkscape:window-x="0"
     inkscape:window-y="24"
     inkscape:window-maximized="1" />
  <metadata
     id="metadata7">
    <rdf:RDF>
      <cc:Work
         rdf:about="">
        <dc:format>image/svg+xml</dc:format>
        <dc:type
           rdf:resource="http://purl.org/dc/dcmitype/StillImage" />
        <dc:title />
      </cc:Work>
    </rdf:RDF>
  </metadata>
  <g
     inkscape:label="Layer 1"
     inkscape:groupmode="layer"
     id="layer1"
     transform="translate(0,-1030.3622)">
    <g
       id="g836"
       transform="matrix(0.04296875,0,0,0.04296875,-1.7701538e-7,1007.1435)">
      <g
         style="fill:#f9c440;fill-opacity:1"
         id="g971"
         transform="matrix(8.0447857,6.9727288,-7.6918814,8.6750446,247.5303,420.8156)">
        <path
           id="path969"
           d="M 24,1 C 36.703,1 47,11.297 47,24 47,36.703 36.703,47 24,47 11.297,47 1,36.703 1,24 1,11.297 11.297,1 24,1 Z"
           inkscape:connector-curvature="0"
           style="fill:#f9c440;fill-opacity:1" />
      </g>
      <path
         style="opacity:1;fill:#000000;fill-opacity:0.49019608;stroke-width:11.10955811"
         inkscape:connector-curvature="0"
         d="m 511.63551,765.26569 c -1.5514,61.31166 -25.16123,124.1546 -70.96638,175.81449 C 342.95916,1051.2793 180.91869,1068.808 78.725782,980.23344 30.827128,938.71781 4.4968259,881.285 0.193832,820.59096 0.79908356,886.94764 27.117415,950.84436 79.078686,995.88121 181.2716,1084.4558 343.31975,1066.9184 441.02203,956.72795 490.72697,900.66981 514.02705,831.43698 511.63551,765.26569 Z"
         id="path973" />
      <path
         sodipodi:nodetypes="cssscc"
         inkscape:connector-curvature="0"
         id="path980"
         d="m 431.99917,816.87007 c -0.28045,86.14001 -70.32612,155.74929 -156.4662,155.49141 -86.14008,-0.25788 -155.76771,-70.28533 -155.53239,-156.42547 0.23533,-86.14015 70.24454,-155.78612 156.38474,-155.57335 86.1402,0.21277 155.80451,70.20373 155.6143,156.34399 z"
         style="opacity:1;fill:#000000;fill-opacity:0.49019608;stroke:none;stroke-width:23.40000153;stroke-linecap:round;stroke-linejoin:miter;stroke-miterlimit:4;stroke-dasharray:none;stroke-opacity:1" />
      <path
         sodipodi:nodetypes="cssscc"
         inkscape:connector-curvature="0"
         id="path978"
         d="M 411.9992,796.87007 C 411.71875,883.01008 341.67308,952.61936 255.533,952.36148 169.39292,952.1036 99.765287,882.07615 100.00061,795.93601 c 0.23533,-86.14015 70.24454,-155.78612 156.38474,-155.57335 86.1402,0.21277 155.80451,70.20373 155.6143,156.34399 z"
         style="opacity:1;fill:#ffffff;fill-opacity:1;stroke:none;stroke-width:23.40000153;stroke-linecap:round;stroke-linejoin:miter;stroke-miterlimit:4;stroke-dasharray:none;stroke-opacity:1" />
    </g>
  </g>
</svg>
