<?xml version="1.0" encoding="UTF-8" standalone="no"?>
<!-- Created with Inkscape (http://www.inkscape.org/) -->

<svg
   xmlns:dc="http://purl.org/dc/elements/1.1/"
   xmlns:cc="http://creativecommons.org/ns#"
   xmlns:rdf="http://www.w3.org/1999/02/22-rdf-syntax-ns#"
   xmlns:svg="http://www.w3.org/2000/svg"
   xmlns="http://www.w3.org/2000/svg"
   xmlns:sodipodi="http://sodipodi.sourceforge.net/DTD/sodipodi-0.dtd"
   xmlns:inkscape="http://www.inkscape.org/namespaces/inkscape"
   width="22"
   height="22"
   viewBox="0 0 22 22"
   id="svg2"
   version="1.1"
   inkscape:version="0.92.2 5c3e80d, 2017-08-06"
   sodipodi:docname="sunny.svg">
  <defs
     id="defs4" />
  <sodipodi:namedview
     id="base"
     pagecolor="#ffffff"
     bordercolor="#666666"
     borderopacity="1.0"
     inkscape:pageopacity="0.0"
     inkscape:pageshadow="2"
     inkscape:zoom="15.839192"
     inkscape:cx="10.270655"
     inkscape:cy="8.9861326"
     inkscape:document-units="px"
     inkscape:current-layer="layer1"
     showgrid="false"
     units="px"
     inkscape:window-width="1366"
     inkscape:window-height="717"
     inkscape:window-x="0"
     inkscape:window-y="24"
     inkscape:window-maximized="1" />
  <metadata
     id="metadata7">
    <rdf:RDF>
      <cc:Work
         rdf:about="">
        <dc:format>image/svg+xml</dc:format>
        <dc:type
           rdf:resource="http://purl.org/dc/dcmitype/StillImage" />
        <dc:title />
      </cc:Work>
    </rdf:RDF>
  </metadata>
  <g
     inkscape:label="Layer 1"
     inkscape:groupmode="layer"
     id="layer1"
     transform="translate(0,-1030.3622)">
    <g
       id="g988"
       transform="matrix(0.16240158,0,0,0.16240158,1.4924224e-8,1004.1289)">
      <g
         style="fill:#f9c440;fill-opacity:1"
         id="g971"
         transform="matrix(2.1285162,1.8448678,-2.0351436,2.2952722,65.49239,129.90329)">
        <path
           id="path969"
           d="M 24,1 C 36.703,1 47,11.297 47,24 47,36.703 36.703,47 24,47 11.297,47 1,36.703 1,24 1,11.297 11.297,1 24,1 Z"
           inkscape:connector-curvature="0"
           style="fill:#f9c440;fill-opacity:1" />
      </g>
      <g
         id="g975"
         transform="matrix(2.1285162,1.8448678,-2.0351436,2.2952722,65.49239,129.90329)">
        <path
           id="path973"
           d="m 40.03,7.531 c 3.712,4.084 5.969,9.514 5.969,15.469 0,12.703 -10.297,23 -23,23 C 17.045,46 11.615,43.744 7.53,40.031 11.708,44.322 17.54,47 23.999,47 c 12.703,0 23,-10.298 23,-23 0,-6.462 -2.677,-12.291 -6.969,-16.469 z"
           inkscape:connector-curvature="0"
           style="opacity:0.1" />
      </g>
      <path
         style="opacity:1;fill:#e1b13a;fill-opacity:1;stroke:none;stroke-width:6.19125032;stroke-linecap:round;stroke-linejoin:miter;stroke-miterlimit:4;stroke-dasharray:none;stroke-opacity:1"
         id="path980"
         sodipodi:type="arc"
         sodipodi:cx="70.379166"
         sodipodi:cy="231.91249"
         sodipodi:rx="41.275002"
         sodipodi:ry="41.275002"
         sodipodi:start="0.0032557023"
         sodipodi:end="0.0022081033"
         d="m 111.65395,232.04687 a 41.275002,41.275002 0 0 1 -41.398353,41.14044 41.275002,41.275002 0 0 1 -41.151279,-41.38758 41.275002,41.275002 0 0 1 41.376797,-41.16211 41.275002,41.275002 0 0 1 41.172955,41.36601 l -41.274904,-0.0911 z" />
      <path
         d="M 109.00812,229.40103 A 41.275002,41.275002 0 0 1 67.609768,270.54146 41.275002,41.275002 0 0 1 26.45849,229.15389 41.275002,41.275002 0 0 1 67.835287,187.99177 41.275002,41.275002 0 0 1 109.00824,229.35779 l -41.274903,-0.0911 z"
         sodipodi:end="0.0022081033"
         sodipodi:start="0.0032557023"
         sodipodi:ry="41.275002"
         sodipodi:rx="41.275002"
         sodipodi:cy="229.26665"
         sodipodi:cx="67.733337"
         sodipodi:type="arc"
         id="path978"
         style="opacity:1;fill:#ffffff;fill-opacity:1;stroke:none;stroke-width:6.19125032;stroke-linecap:round;stroke-linejoin:miter;stroke-miterlimit:4;stroke-dasharray:none;stroke-opacity:1" />
    </g>
  </g>
</svg>
