<?xml version="1.0" encoding="UTF-8" standalone="no"?>
<!-- Created with Inkscape (http://www.inkscape.org/) -->

<svg
   xmlns:dc="http://purl.org/dc/elements/1.1/"
   xmlns:cc="http://creativecommons.org/ns#"
   xmlns:rdf="http://www.w3.org/1999/02/22-rdf-syntax-ns#"
   xmlns:svg="http://www.w3.org/2000/svg"
   xmlns="http://www.w3.org/2000/svg"
   xmlns:sodipodi="http://sodipodi.sourceforge.net/DTD/sodipodi-0.dtd"
   xmlns:inkscape="http://www.inkscape.org/namespaces/inkscape"
   width="22"
   height="22"
   viewBox="0 0 22 22"
   id="svg2"
   version="1.1"
   inkscape:version="0.92.2 5c3e80d, 2017-08-06"
   sodipodi:docname="system-shutdown-panel-restart.svg">
  <defs
     id="defs4" />
  <sodipodi:namedview
     id="base"
     pagecolor="#ffffff"
     bordercolor="#666666"
     borderopacity="1.0"
     inkscape:pageopacity="0.0"
     inkscape:pageshadow="2"
     inkscape:zoom="15.839192"
     inkscape:cx="13.568337"
     inkscape:cy="11.09446"
     inkscape:document-units="px"
     inkscape:current-layer="layer1"
     showgrid="false"
     units="px"
     inkscape:window-width="1366"
     inkscape:window-height="717"
     inkscape:window-x="0"
     inkscape:window-y="24"
     inkscape:window-maximized="1" />
  <metadata
     id="metadata7">
    <rdf:RDF>
      <cc:Work
         rdf:about="">
        <dc:format>image/svg+xml</dc:format>
        <dc:type
           rdf:resource="http://purl.org/dc/dcmitype/StillImage" />
        <dc:title />
      </cc:Work>
    </rdf:RDF>
  </metadata>
  <g
     inkscape:label="Layer 1"
     inkscape:groupmode="layer"
     id="layer1"
     transform="translate(0,-1030.3622)">
    <g
       id="g956"
       transform="matrix(0.16240158,0,0,0.16240158,1.0891666e-8,1004.1289)">
      <path
         style="fill:#f9c440;fill-opacity:1;stroke-width:2.93940377"
         inkscape:connector-curvature="0"
         d="m 114.54163,176.47539 c 27.03854,23.43536 28,66.06638 2.14757,95.22322 -25.852427,29.15684 -68.725627,33.79466 -95.764167,10.3593 -27.0385497,-23.43536 -27.9999997,-66.06638 -2.14757,-95.22322 25.85242,-29.15684 68.72563,-33.79466 95.764167,-10.3593 z"
         id="path890" />
      <g
         id="g894"
         transform="matrix(2.1285162,1.8448678,-2.0351436,2.2952722,65.492393,129.90329)">
        <path
           id="path892"
           d="m 40.03,7.531 c 3.712,4.084 5.969,9.514 5.969,15.469 0,12.703 -10.297,23 -23,23 C 17.045,46 11.615,43.744 7.53,40.031 11.708,44.322 17.54,47 23.999,47 c 12.703,0 23,-10.298 23,-23 0,-6.462 -2.677,-12.291 -6.969,-16.469 z"
           inkscape:connector-curvature="0"
           style="opacity:0.1" />
      </g>
      <path
         style="fill:#e1b13a;fill-opacity:1;stroke-width:0.19483124"
         d="m 66.649463,272.94026 c -11.013099,-1.78417 -19.939142,-8.24783 -24.745253,-17.91889 -4.719955,-9.49769 -4.898496,-20.4304 -0.483957,-29.63523 1.59933,-3.33479 3.454798,-5.89593 6.412996,-8.85194 3.785008,-3.78221 7.391675,-6.16854 12.074068,-7.98872 4.412396,-1.71523 8.0484,-2.32933 13.79166,-2.32933 h 3.826444 l -3.737373,-3.78161 c -4.174335,-4.22376 -4.502307,-4.71469 -4.509125,-6.74973 -0.01281,-3.81553 3.931362,-6.22536 7.29284,-4.45586 1.144959,0.60272 17.297355,16.68786 17.872563,17.79815 0.560908,1.0827 0.674596,2.74725 0.27069,3.96329 -0.296743,0.89342 -1.109114,1.76356 -8.892626,9.525 -9.367556,9.34098 -9.456111,9.41298 -11.579552,9.41407 -2.830128,0.001 -5.031492,-2.2129 -5.031492,-5.0612 0,-1.90332 0.469038,-2.6008 4.449273,-6.61626 1.98116,-1.99868 3.602234,-3.67295 3.602396,-3.72059 1.7e-4,-0.0476 -2.082093,-0.0379 -4.627239,0.0215 -3.946251,0.0922 -4.865565,0.17207 -6.244293,0.54233 -8.962971,2.407 -15.664683,9.16338 -17.424092,17.56624 -0.49691,2.37321 -0.528618,6.35975 -0.07091,8.91517 1.085792,6.06196 4.26627,11.51344 8.58553,14.71598 3.871657,2.87066 8.262131,4.34533 13.546109,4.54985 4.334289,0.16777 8.205033,-0.63571 11.635671,-2.41531 4.058003,-2.10504 7.642918,-5.89956 9.996909,-10.58142 1.271578,-2.52905 2.688686,-3.54369 4.94762,-3.54247 1.433764,7.4e-4 2.332931,0.3528 3.43351,1.34424 1.08764,0.9798 1.59535,2.14387 1.6099,3.69123 0.0102,1.07931 -0.10187,1.44791 -1.004,3.3034 -4.622202,9.50689 -12.630354,15.7433 -23.139261,18.01988 -2.550749,0.55258 -9.202203,0.70862 -11.859011,0.27819 z"
         id="path949"
         inkscape:connector-curvature="0" />
      <path
         inkscape:connector-curvature="0"
         id="path942"
         d="m 64.003629,270.29442 c -11.013099,-1.78417 -19.939142,-8.24783 -24.745253,-17.91889 -4.719955,-9.49769 -4.898496,-20.4304 -0.483957,-29.63523 1.59933,-3.33479 3.454798,-5.89593 6.412996,-8.85194 3.785008,-3.78221 7.391675,-6.16854 12.074068,-7.98872 4.412396,-1.71523 8.0484,-2.32933 13.79166,-2.32933 h 3.826444 l -3.737373,-3.78161 c -4.174335,-4.22376 -4.502307,-4.71469 -4.509125,-6.74973 -0.01281,-3.81553 3.931362,-6.22536 7.29284,-4.45586 1.144959,0.60272 17.297355,16.68786 17.872563,17.79815 0.560908,1.0827 0.674596,2.74725 0.27069,3.96329 -0.296743,0.89342 -1.109114,1.76356 -8.892626,9.525 -9.367556,9.34098 -9.456111,9.41298 -11.579552,9.41407 -2.830128,10e-4 -5.031492,-2.2129 -5.031492,-5.0612 0,-1.90332 0.469038,-2.6008 4.449273,-6.61626 1.98116,-1.99868 3.602234,-3.67295 3.602396,-3.72059 1.7e-4,-0.0476 -2.082093,-0.0379 -4.627239,0.0215 -3.946251,0.0922 -4.865565,0.17207 -6.244293,0.54233 -8.962971,2.407 -15.664683,9.16338 -17.424092,17.56624 -0.49691,2.37321 -0.528618,6.35975 -0.07091,8.91517 1.085792,6.06196 4.26627,11.51344 8.58553,14.71598 3.871657,2.87066 8.262131,4.34533 13.546109,4.54985 4.334289,0.16777 8.205033,-0.63571 11.635671,-2.41531 4.058003,-2.10504 7.642918,-5.89956 9.996909,-10.58142 1.271578,-2.52905 2.688686,-3.54369 4.94762,-3.54247 1.433764,7.4e-4 2.332931,0.3528 3.43351,1.34424 1.087641,0.9798 1.595346,2.14387 1.609904,3.69123 0.0102,1.07931 -0.101877,1.44791 -1.004004,3.3034 -4.622202,9.50689 -12.630354,15.7433 -23.139261,18.01988 -2.550749,0.55258 -9.202203,0.70862 -11.859011,0.27819 z"
         style="fill:#ffffff;stroke-width:0.19483124" />
    </g>
  </g>
</svg>
