<?xml version="1.0" encoding="UTF-8" standalone="no"?>
<!-- Created with Inkscape (http://www.inkscape.org/) -->

<svg
   xmlns:dc="http://purl.org/dc/elements/1.1/"
   xmlns:cc="http://creativecommons.org/ns#"
   xmlns:rdf="http://www.w3.org/1999/02/22-rdf-syntax-ns#"
   xmlns:svg="http://www.w3.org/2000/svg"
   xmlns="http://www.w3.org/2000/svg"
   xmlns:xlink="http://www.w3.org/1999/xlink"
   xmlns:sodipodi="http://sodipodi.sourceforge.net/DTD/sodipodi-0.dtd"
   xmlns:inkscape="http://www.inkscape.org/namespaces/inkscape"
   width="22"
   height="22"
   id="svg5186"
   sodipodi:version="0.32"
   inkscape:version="0.92.2 5c3e80d, 2017-08-06"
   sodipodi:docname="transmission-tray-icon.svg"
   inkscape:output_extension="org.inkscape.output.svg.inkscape"
   inkscape:export-filename="/home/andreas/project/application icons/48x48/transmission.png"
   inkscape:export-xdpi="90"
   inkscape:export-ydpi="90"
   version="1.1">
  <defs
     id="defs5188">
    <linearGradient
       inkscape:collect="always"
       id="linearGradient9795">
      <stop
         style="stop-color:#ffffff;stop-opacity:1;"
         offset="0"
         id="stop9797" />
      <stop
         style="stop-color:#ffffff;stop-opacity:0;"
         offset="1"
         id="stop9799" />
    </linearGradient>
    <linearGradient
       inkscape:collect="always"
       id="linearGradient9783">
      <stop
         style="stop-color:#000000;stop-opacity:1;"
         offset="0"
         id="stop9785" />
      <stop
         style="stop-color:#000000;stop-opacity:0;"
         offset="1"
         id="stop9787" />
    </linearGradient>
    <linearGradient
       inkscape:collect="always"
       id="linearGradient5908">
      <stop
         style="stop-color:#ffffff;stop-opacity:1;"
         offset="0"
         id="stop5910" />
      <stop
         style="stop-color:#ffffff;stop-opacity:0;"
         offset="1"
         id="stop5912" />
    </linearGradient>
    <linearGradient
       inkscape:collect="always"
       xlink:href="#linearGradient5908"
       id="linearGradient5914"
       x1="24.040522"
       y1="5.0690055"
       x2="24.040522"
       y2="10.0086"
       gradientUnits="userSpaceOnUse" />
    <linearGradient
       inkscape:collect="always"
       xlink:href="#linearGradient9783"
       id="linearGradient9789"
       x1="18.3125"
       y1="20.743757"
       x2="18.3125"
       y2="21.814325"
       gradientUnits="userSpaceOnUse" />
    <linearGradient
       inkscape:collect="always"
       xlink:href="#linearGradient9795"
       id="linearGradient9801"
       x1="30.4375"
       y1="31.82852"
       x2="29.742416"
       y2="27.45352"
       gradientUnits="userSpaceOnUse" />
  </defs>
  <sodipodi:namedview
     id="base"
     pagecolor="#ffffff"
     bordercolor="#666666"
     borderopacity="1.0"
     inkscape:pageopacity="0.0"
     inkscape:pageshadow="2"
     inkscape:zoom="15.999999"
     inkscape:cx="13.533695"
     inkscape:cy="6.1712051"
     inkscape:current-layer="layer1"
     showgrid="true"
     inkscape:grid-bbox="true"
     inkscape:document-units="px"
     inkscape:window-width="1366"
     inkscape:window-height="717"
     inkscape:window-x="0"
     inkscape:window-y="24"
     inkscape:window-maximized="1">
    <inkscape:grid
       type="xygrid"
       id="grid5195"
       empspacing="5"
       visible="true"
       enabled="false"
       snapvisiblegridlinesonly="true" />
  </sodipodi:namedview>
  <metadata
     id="metadata5191">
    <rdf:RDF>
      <cc:Work
         rdf:about="">
        <dc:format>image/svg+xml</dc:format>
        <dc:type
           rdf:resource="http://purl.org/dc/dcmitype/StillImage" />
        <dc:title />
      </cc:Work>
    </rdf:RDF>
  </metadata>
  <g
     id="layer1"
     inkscape:label="Layer 1"
     inkscape:groupmode="layer"
     transform="translate(0,-26)">
    <g
       id="g876"
       transform="matrix(0.04296875,0,0,0.04296875,-1.7245069e-8,45.937535)">
      <path
         id="path27"
         d="m 432.91327,-407.52599 c 102.19291,88.57459 105.82678,249.6997 8.1168,359.898785 C 343.3201,62.571877 181.27964,80.100646 79.086729,-8.4739444 -23.106186,-97.048534 -26.740042,-258.17365 70.969928,-368.37273 168.6799,-478.57181 330.72036,-496.10058 432.91327,-407.52599 Z"
         inkscape:connector-curvature="0"
         style="fill:#c6262e;fill-opacity:1;stroke-width:11.10955811" />
      <path
         id="path51"
         d="m 511.63551,-239.09645 c -1.55139,61.31165 -25.16123,124.15461 -70.96638,175.81448 C 342.95915,46.917149 180.91869,64.44588 78.725776,-24.128672 30.827124,-65.644326 4.4968216,-123.07712 0.19382768,-183.77116 0.79907934,-117.41448 27.117411,-53.517787 79.078682,-8.4808987 181.27159,80.093653 343.31975,62.55623 441.02202,-47.634197 490.72697,-103.6923 514.02704,-172.92516 511.63551,-239.09645 Z"
         inkscape:connector-curvature="0"
         style="opacity:1;fill:#000000;fill-opacity:0.49019608;stroke-width:11.10955811" />
      <path
         id="path856"
         transform="translate(0,26)"
         d="m 174.67578,-275.13281 c -8.54302,-0.29741 -17.07846,7.07779 -17.86719,16.05859 -6.42663,52.74576 -15.95417,105.60657 -20.80859,158.32617 v 22.164066 c 0.23793,11.431552 7.7511,19.123667 16.05859,20.583984 h 250.60743 c 7.08566,-0.178448 14.947,-5.092459 14.70312,-14.476562 v -28.498048 l -22.61719,-153.57812 c -1.83803,-9.42276 -9.89208,-19.42964 -21.03515,-20.58008 h -71.79883 v 20.94922 h 50.84961 c 7.8625,-0.23794 15.7245,5.21731 17.7832,11.69921 l 17.48438,116.76563 c 0.41639,10.63269 -3.96186,16.78958 -11.33008,16.54687 l -197.67188,0.73047 c -8.17601,-0.8863 -13.95732,-6.25101 -13.7539,-16.09375 l 13.7539,-115.75586 c 2.11166,-7.73226 7.12906,-13.91458 15.04688,-13.89257 h 56.47461 v -20.94922 z"
         style="fill:#000000;fill-opacity:0.49019608;fill-rule:evenodd;stroke:none;stroke-width:0.69948149"
         inkscape:connector-curvature="0" />
      <path
         inkscape:connector-curvature="0"
         sodipodi:nodetypes="cccccccc"
         id="path858"
         d="m 250.44722,-221.314 -14.92796,87.07963 h -21.48725 l 58.12846,37.319928 64.9143,-37.319928 H 315.58756 L 302.0164,-221.314 Z"
         style="fill:#000000;fill-opacity:0.49019608;fill-rule:evenodd;stroke:none;stroke-width:7.2377882px;stroke-linecap:butt;stroke-linejoin:miter;stroke-opacity:1" />
      <rect
         ry="14.370315"
         rx="36.304127"
         y="-344.00003"
         x="163.70985"
         height="43.867622"
         width="225.19084"
         id="rect860"
         style="fill:#000000;fill-opacity:0.49019608;stroke:none;stroke-width:7.23778915;stroke-linecap:round;stroke-linejoin:round;stroke-miterlimit:4;stroke-dasharray:none;stroke-dashoffset:0;stroke-opacity:1" />
      <path
         id="rect862"
         transform="translate(0,26)"
         d="m 250.55469,-326.13281 v 78.81836 h 51.36328 v -78.81836 z"
         style="fill:#000000;fill-opacity:0.49019608;stroke:none;stroke-width:7.2377882;stroke-linecap:round;stroke-linejoin:round;stroke-miterlimit:4;stroke-dasharray:none;stroke-dashoffset:0;stroke-opacity:1"
         inkscape:connector-curvature="0" />
      <g
         id="g854"
         transform="matrix(3.8130471,0,0,3.8130471,-12.788408,-1080.1141)">
        <path
           id="path5232"
           transform="matrix(0.26458333,0,0,0.26458333,0,161.53332)"
           d="m 165.99219,193.33203 c -8.46792,-0.2948 -16.92914,7.01612 -17.71094,15.91797 -6.37013,52.28209 -15.81325,104.67743 -20.625,156.93359 v 21.97071 c 0.23584,11.33106 7.68351,18.95486 15.91797,20.40234 h 248.4043 c 7.02338,-0.17688 14.81595,-5.048 14.57421,-14.34961 V 365.95898 L 384.13281,213.73242 c -1.82188,-9.33993 -9.8045,-19.26007 -20.84961,-20.40039 z m 19.23437,20.76563 h 157.29102 c 7.79338,-0.23585 15.58635,5.17077 17.62695,11.5957 l 17.33203,115.74023 c 0.41273,10.53922 -3.92702,16.64096 -11.23047,16.40039 l -195.93554,0.72461 c -8.10414,-0.87851 -13.83445,-6.19691 -13.63282,-15.95312 l 13.63282,-114.73828 c 2.0931,-7.66428 7.06779,-13.79134 14.91601,-13.76953 z"
           style="fill:#ffffff;fill-opacity:1;fill-rule:evenodd;stroke:none;stroke-width:0.69333255"
           inkscape:connector-curvature="0" />
        <path
           inkscape:connector-curvature="0"
           sodipodi:nodetypes="cccccccc"
           id="path5197"
           d="m 63.790352,219.9816 -3.91497,22.83728 h -5.63519 l 15.24462,9.78743 17.02426,-9.78743 h -5.63518 l -3.55914,-22.83728 z"
           style="fill:#ffffff;fill-opacity:1;fill-rule:evenodd;stroke:none;stroke-width:1.89816391px;stroke-linecap:butt;stroke-linejoin:miter;stroke-opacity:1" />
        <rect
           ry="3.7687221"
           rx="9.5210276"
           y="187.80627"
           x="41.042831"
           height="11.504611"
           width="59.057976"
           id="rect5224"
           style="fill:#ffffff;fill-opacity:1;stroke:none;stroke-width:1.89816415;stroke-linecap:round;stroke-linejoin:round;stroke-miterlimit:4;stroke-dasharray:none;stroke-dashoffset:0;stroke-opacity:1" />
        <rect
           ry="2.0430305"
           rx="2.0430307"
           y="188.02965"
           x="63.81868"
           height="49.295418"
           width="13.470224"
           id="rect5226"
           style="fill:#ffffff;fill-opacity:1;stroke:none;stroke-width:1.89816391;stroke-linecap:round;stroke-linejoin:round;stroke-miterlimit:4;stroke-dasharray:none;stroke-dashoffset:0;stroke-opacity:1" />
      </g>
    </g>
  </g>
</svg>
