<?xml version="1.0" encoding="UTF-8" standalone="no"?>
<svg
   xmlns:dc="http://purl.org/dc/elements/1.1/"
   xmlns:cc="http://creativecommons.org/ns#"
   xmlns:rdf="http://www.w3.org/1999/02/22-rdf-syntax-ns#"
   xmlns:svg="http://www.w3.org/2000/svg"
   xmlns="http://www.w3.org/2000/svg"
   xmlns:sodipodi="http://sodipodi.sourceforge.net/DTD/sodipodi-0.dtd"
   xmlns:inkscape="http://www.inkscape.org/namespaces/inkscape"
   viewBox="0 0 22 22"
   id="svg"
   version="1.1"
   inkscape:version="0.92.2 5c3e80d, 2017-08-06"
   width="100%"
   height="100%"
   sodipodi:docname="tray-extended-away.svg">
  <defs
     id="defs81">
    <style
       id="current-color-scheme"
       type="text/css">
      .ColorScheme-Text {
        color:#7B7C7E;
      }
      .ColorScheme-Background{
        color:#EFF0F1;
      }
      .ColorScheme-Highlight{
        color:#3DAEE6;
      }
      .ColorScheme-ViewText {
        color:#7B7C7E;
      }
      .ColorScheme-ViewBackground{
        color:#FCFCFC;
      }
      .ColorScheme-ViewHover {
        color:#3DAEE6;
      }
      .ColorScheme-ViewFocus{
        color:#1E92FF;
      }
      .ColorScheme-ButtonText {
        color:#7B7C7E;
      }
      .ColorScheme-ButtonBackground{
        color:#EFF0F1;
      }
      .ColorScheme-ButtonHover {
        color:#3DAEE6;
      }
      .ColorScheme-ButtonFocus{
        color:#1E92FF;
      }
</style>
  </defs>
  <metadata
     id="metadata34">
    <rdf:RDF>
      <cc:Work
         rdf:about="">
        <dc:format>image/svg+xml</dc:format>
        <dc:type
           rdf:resource="http://purl.org/dc/dcmitype/StillImage" />
        <dc:title />
      </cc:Work>
    </rdf:RDF>
  </metadata>
  <sodipodi:namedview
     pagecolor="#ffffff"
     bordercolor="#666666"
     borderopacity="1"
     objecttolerance="10"
     gridtolerance="10"
     guidetolerance="10"
     inkscape:pageopacity="0.03921569"
     inkscape:pageshadow="2"
     inkscape:window-width="1366"
     inkscape:window-height="717"
     id="namedview32"
     showgrid="true"
     inkscape:zoom="4"
     inkscape:cx="15.396553"
     inkscape:cy="8.1142579"
     inkscape:window-x="0"
     inkscape:window-y="24"
     inkscape:window-maximized="1"
     inkscape:current-layer="svg"
     borderlayer="true"
     showguides="true"
     inkscape:guide-bbox="true"
     inkscape:snap-bbox="true">
    <inkscape:grid
       type="xygrid"
       id="grid3046"
       empspacing="5"
       visible="true"
       enabled="false"
       snapvisiblegridlinesonly="true" />
  </sodipodi:namedview>
  <g
     transform="matrix(0.16240157,0,0,0.16240157,-106.64263,-25.835319)"
     id="g907">
    <path
       style="fill:#8a715e;fill-opacity:1;stroke-width:2.93940377"
       inkscape:connector-curvature="0"
       d="m 771.20197,174.02516 c 27.03854,23.43536 28,66.06638 2.14757,95.22322 -25.85243,29.15684 -68.72563,33.79466 -95.76418,10.3593 -27.03854,-23.43536 -28,-66.06638 -2.14757,-95.22322 25.85243,-29.15684 68.72564,-33.79466 95.76418,-10.3593 z"
       id="path859" />
    <path
       style="opacity:0.1;stroke-width:2.93940377"
       inkscape:connector-curvature="0"
       d="m 792.03056,218.58881 c -0.41047,16.22204 -6.65724,32.84924 -18.77652,46.51758 -25.85243,29.15685 -68.72564,33.79466 -95.76418,10.35931 -12.67318,-10.98435 -19.63974,-26.18011 -20.77824,-42.23874 0.16014,17.55687 7.12353,34.46287 20.87162,46.37888 27.03854,23.43535 69.91378,18.79524 95.76417,-10.35931 13.1511,-14.83204 19.31591,-33.1499 18.68315,-50.65772 z"
       id="path861" />
    <path
       style="fill:#7c6655;fill-opacity:1;stroke-width:0.19861746"
       d="m 763.50183,270.40145 c -0.65544,-0.24847 -4.60969,-1.7071 -8.78723,-3.24138 -9.10733,-3.34487 -8.72728,-3.28848 -12.6893,-1.88256 -5.78482,2.05275 -8.74771,2.56418 -14.87047,2.5668 -4.62664,0.002 -6.26324,-0.1535 -9.53364,-0.9057 -17.34014,-3.98827 -30.00852,-18.03062 -31.67717,-35.11281 -1.59253,-16.30278 7.52651,-32.0798 22.73938,-39.34184 21.86146,-10.43583 48.14773,-0.54077 56.89591,21.41758 4.56733,11.46422 3.38008,24.05258 -3.30259,35.01698 -2.19084,3.59455 -2.21483,2.69323 0.34399,12.92052 1.20302,4.80829 2.16155,8.80352 2.13006,8.87827 -0.0314,0.0748 -0.59351,-0.0674 -1.24894,-0.31586 z m -52.81662,-35.03671 c 1.23772,-0.59917 2.44374,-1.80843 3.06279,-3.07101 0.70142,-1.4306 0.70638,-3.94347 0.0106,-5.35749 -0.62005,-1.26004 -1.8341,-2.4741 -3.09415,-3.09416 -0.8132,-0.40015 -1.2865,-0.48613 -2.67617,-0.48613 -1.99031,0 -3.15626,0.46447 -4.47412,1.78232 -3.33691,3.33692 -1.94012,9.08377 2.56666,10.5601 1.2133,0.39746 3.4253,0.23717 4.60443,-0.33363 z m 19.06728,0 c 1.23772,-0.59917 2.44374,-1.80843 3.06279,-3.07101 0.70142,-1.4306 0.70637,-3.94347 0.0106,-5.35749 -0.62005,-1.26004 -1.83411,-2.4741 -3.09415,-3.09416 -0.8132,-0.40015 -1.2865,-0.48613 -2.67617,-0.48613 -1.99032,0 -3.15626,0.46447 -4.47412,1.78232 -3.33691,3.33692 -1.94013,9.08377 2.56666,10.5601 1.2133,0.39746 3.4253,0.23717 4.60443,-0.33363 z m 19.06728,0 c 1.23771,-0.59917 2.44374,-1.80843 3.06278,-3.07101 0.70143,-1.4306 0.70638,-3.94347 0.0106,-5.35749 -0.62005,-1.26004 -1.83411,-2.4741 -3.09416,-3.09416 -0.81319,-0.40015 -1.28649,-0.48613 -2.67616,-0.48613 -1.99032,0 -3.15626,0.46447 -4.47412,1.78232 -3.33691,3.33692 -1.94013,9.08377 2.56666,10.5601 1.2133,0.39746 3.4253,0.23717 4.60443,-0.33363 z"
       id="path863"
       inkscape:connector-curvature="0" />
    <path
       inkscape:connector-curvature="0"
       id="path865"
       d="m 760.856,267.75562 c -0.65544,-0.24847 -4.60969,-1.7071 -8.78723,-3.24138 -9.10733,-3.34487 -8.72728,-3.28848 -12.6893,-1.88256 -5.78483,2.05275 -8.74771,2.56418 -14.87047,2.5668 -4.62664,0.002 -6.26324,-0.1535 -9.53364,-0.9057 -17.34015,-3.98827 -30.00852,-18.03062 -31.67718,-35.11281 -1.59253,-16.30278 7.52652,-32.0798 22.73939,-39.34184 21.86146,-10.43583 48.14773,-0.54077 56.89591,21.41758 4.56733,11.46422 3.38008,24.05258 -3.30259,35.01698 -2.19084,3.59455 -2.21483,2.69323 0.34399,12.92052 1.20302,4.80829 2.16155,8.80352 2.13006,8.87827 -0.0314,0.0748 -0.59351,-0.0674 -1.24894,-0.31586 z m -52.81662,-35.03671 c 1.23772,-0.59917 2.44374,-1.80843 3.06279,-3.07101 0.70142,-1.4306 0.70638,-3.94347 0.0106,-5.35749 -0.62005,-1.26004 -1.83411,-2.4741 -3.09415,-3.09416 -0.8132,-0.40015 -1.2865,-0.48613 -2.67617,-0.48613 -1.99032,0 -3.15626,0.46447 -4.47412,1.78232 -3.33691,3.33692 -1.94012,9.08377 2.56666,10.5601 1.2133,0.39746 3.4253,0.23717 4.60443,-0.33363 z m 19.06728,0 c 1.23772,-0.59917 2.44374,-1.80843 3.06279,-3.07101 0.70142,-1.4306 0.70637,-3.94347 0.0106,-5.35749 -0.62006,-1.26004 -1.83411,-2.4741 -3.09416,-3.09416 -0.81319,-0.40015 -1.2865,-0.48613 -2.67617,-0.48613 -1.99031,0 -3.15625,0.46447 -4.47412,1.78232 -3.3369,3.33692 -1.94012,9.08377 2.56666,10.5601 1.2133,0.39746 3.4253,0.23717 4.60443,-0.33363 z m 19.06727,0 c 1.23772,-0.59917 2.44375,-1.80843 3.06279,-3.07101 0.70143,-1.4306 0.70638,-3.94347 0.0106,-5.35749 -0.62005,-1.26004 -1.83411,-2.4741 -3.09416,-3.09416 -0.81319,-0.40015 -1.2865,-0.48613 -2.67616,-0.48613 -1.99032,0 -3.15626,0.46447 -4.47412,1.78232 -3.33691,3.33692 -1.94013,9.08377 2.56665,10.5601 1.21331,0.39746 3.4253,0.23717 4.60444,-0.33363 z"
       style="fill:#ffffff;stroke-width:0.19861746" />
  </g>
</svg>
