<?xml version="1.0" encoding="UTF-8" standalone="no"?>
<svg
   xmlns:dc="http://purl.org/dc/elements/1.1/"
   xmlns:cc="http://creativecommons.org/ns#"
   xmlns:rdf="http://www.w3.org/1999/02/22-rdf-syntax-ns#"
   xmlns:svg="http://www.w3.org/2000/svg"
   xmlns="http://www.w3.org/2000/svg"
   xmlns:sodipodi="http://sodipodi.sourceforge.net/DTD/sodipodi-0.dtd"
   xmlns:inkscape="http://www.inkscape.org/namespaces/inkscape"
   viewBox="0 0 22 22"
   id="svg"
   version="1.1"
   inkscape:version="0.92.2 5c3e80d, 2017-08-06"
   width="100%"
   height="100%"
   sodipodi:docname="tray-busy.svg">
  <defs
     id="defs81">
    <style
       id="current-color-scheme"
       type="text/css">
      .ColorScheme-Text {
        color:#7B7C7E;
      }
      .ColorScheme-Background{
        color:#EFF0F1;
      }
      .ColorScheme-Highlight{
        color:#3DAEE6;
      }
      .ColorScheme-ViewText {
        color:#7B7C7E;
      }
      .ColorScheme-ViewBackground{
        color:#FCFCFC;
      }
      .ColorScheme-ViewHover {
        color:#3DAEE6;
      }
      .ColorScheme-ViewFocus{
        color:#1E92FF;
      }
      .ColorScheme-ButtonText {
        color:#7B7C7E;
      }
      .ColorScheme-ButtonBackground{
        color:#EFF0F1;
      }
      .ColorScheme-ButtonHover {
        color:#3DAEE6;
      }
      .ColorScheme-ButtonFocus{
        color:#1E92FF;
      }
</style>
  </defs>
  <metadata
     id="metadata34">
    <rdf:RDF>
      <cc:Work
         rdf:about="">
        <dc:format>image/svg+xml</dc:format>
        <dc:type
           rdf:resource="http://purl.org/dc/dcmitype/StillImage" />
        <dc:title />
      </cc:Work>
    </rdf:RDF>
  </metadata>
  <sodipodi:namedview
     pagecolor="#ffffff"
     bordercolor="#666666"
     borderopacity="1"
     objecttolerance="10"
     gridtolerance="10"
     guidetolerance="10"
     inkscape:pageopacity="0.03921569"
     inkscape:pageshadow="2"
     inkscape:window-width="1366"
     inkscape:window-height="717"
     id="namedview32"
     showgrid="true"
     inkscape:zoom="11.313708"
     inkscape:cx="14.772788"
     inkscape:cy="10.31241"
     inkscape:window-x="0"
     inkscape:window-y="24"
     inkscape:window-maximized="1"
     inkscape:current-layer="svg"
     borderlayer="true"
     showguides="true"
     inkscape:guide-bbox="true"
     inkscape:snap-bbox="true">
    <inkscape:grid
       type="xygrid"
       id="grid3046"
       empspacing="5"
       visible="true"
       enabled="false"
       snapvisiblegridlinesonly="true" />
  </sodipodi:namedview>
  <g
     id="g35"
     transform="translate(-26.875,0.87499989)">
    <path
       style="fill:#f9c440;fill-opacity:1;stroke-width:0.47736382"
       inkscape:connector-curvature="0"
       d="M 45.476742,1.5516161 C 49.867844,5.3575555 50.023987,12.2809 45.825511,17.016017 41.627036,21.751134 34.66436,22.504323 30.273258,18.698384 25.882156,14.892444 25.726014,7.9690995 29.924489,3.2339828 34.122964,-1.501134 41.08564,-2.2543233 45.476742,1.5516161 Z"
       id="path27" />
    <path
       style="opacity:1;fill:#000000;fill-opacity:0.49019608;stroke-width:0.47736382"
       inkscape:connector-curvature="0"
       d="m 48.859338,8.7888229 c -0.06666,2.6344851 -1.081146,5.3347681 -3.049336,7.5545281 -4.198476,4.735119 -11.161152,5.488306 -15.552254,1.682369 -2.058145,-1.783876 -3.189525,-4.251691 -3.374419,-6.859639 0.02601,2.851264 1.156872,5.596825 3.389583,7.532004 4.391102,3.805938 11.354109,3.052377 15.552253,-1.682368 2.135759,-2.408747 3.136934,-5.383596 3.034173,-8.2268941 z"
       id="path51" />
    <path
       style="fill:#000000;fill-opacity:0.49019608;stroke-width:0.03225579"
       d="m 44.655916,17.632963 c -0.106445,-0.04035 -0.748621,-0.277236 -1.42706,-0.526405 -1.479045,-0.543212 -1.417324,-0.534054 -2.060762,-0.305731 -0.939465,0.33337 -1.420642,0.416427 -2.414988,0.416853 -0.751374,3.26e-4 -1.017161,-0.02493 -1.548278,-0.147088 -2.816067,-0.647701 -4.873431,-2.928201 -5.144424,-5.702375 -0.258629,-2.6475975 1.222319,-5.2098103 3.692913,-6.3891771 3.550335,-1.6947953 7.819267,-0.087822 9.239985,3.478249 0.741742,1.8618071 0.54893,3.9061771 -0.536346,5.6868131 -0.355796,0.58376 -0.359692,0.437385 0.05587,2.098312 0.195372,0.780874 0.351038,1.429706 0.345925,1.441845 -0.0051,0.01215 -0.09639,-0.01095 -0.20283,-0.0513 z m -8.577502,-5.690017 c 0.201008,-0.09731 0.396867,-0.293692 0.497402,-0.498736 0.113912,-0.232332 0.114716,-0.640426 0.0017,-0.870066 C 36.476818,10.369512 36.279654,10.172347 36.07502,10.071648 35.942956,10.006658 35.866091,9.9927 35.640406,9.9927 c -0.32323,0 -0.512581,0.075431 -0.726604,0.289452 -0.541919,0.541921 -0.315079,1.475218 0.416829,1.714976 0.197042,0.06455 0.556274,0.03852 0.747767,-0.05418 z m 3.096556,0 c 0.201007,-0.09731 0.396867,-0.293692 0.497402,-0.498736 0.113912,-0.232332 0.114716,-0.640426 0.0017,-0.870066 C 39.573374,10.369512 39.37621,10.172347 39.171577,10.071648 39.039512,10.006658 38.962647,9.9927 38.736963,9.9927 c -0.323231,0 -0.512581,0.075431 -0.726605,0.289452 -0.541919,0.541921 -0.315079,1.475218 0.41683,1.714976 0.197042,0.06455 0.556274,0.03852 0.747767,-0.05418 z m 3.096556,0 c 0.201006,-0.09731 0.396868,-0.293692 0.497401,-0.498736 0.113913,-0.232332 0.114717,-0.640426 0.0017,-0.870066 C 42.66993,10.369512 42.472764,10.172347 42.26813,10.071648 42.136067,10.006658 42.059202,9.9927 41.833518,9.9927 c -0.323231,0 -0.512581,0.075431 -0.726605,0.289452 -0.541919,0.541921 -0.315079,1.475218 0.41683,1.714976 0.197042,0.06455 0.556274,0.03852 0.747767,-0.05418 z"
       id="path4540"
       inkscape:connector-curvature="0" />
    <path
       inkscape:connector-curvature="0"
       id="path4538"
       d="m 43.796541,16.77359 c -0.106445,-0.04035 -0.748622,-0.277235 -1.42706,-0.526405 -1.479046,-0.543212 -1.417325,-0.534054 -2.060763,-0.30573 -0.939465,0.333369 -1.420642,0.416426 -2.414988,0.416852 -0.751374,3.26e-4 -1.01716,-0.02493 -1.548278,-0.147087 -2.816067,-0.647702 -4.873431,-2.928201 -5.144423,-5.702376 -0.25863,-2.6475969 1.222318,-5.2098102 3.692912,-6.3891769 3.550336,-1.6947949 7.819267,-0.087822 9.239986,3.478249 0.741741,1.8618071 0.54893,3.9061769 -0.536346,5.6868129 -0.355796,0.58376 -0.359692,0.437385 0.05586,2.098312 0.195373,0.780874 0.351039,1.429706 0.345925,1.441846 -0.0051,0.01215 -0.09639,-0.01095 -0.202829,-0.0513 z m -8.577503,-5.690016 c 0.201008,-0.09731 0.396868,-0.293693 0.497402,-0.498737 0.113912,-0.232332 0.114717,-0.6404263 0.0017,-0.870065 C 35.617461,9.5101393 35.420297,9.3129742 35.215663,9.2122752 35.083599,9.1472906 35.006734,9.133327 34.781049,9.133327 c -0.32323,0 -0.512581,0.075431 -0.726604,0.2894517 -0.541919,0.541921 -0.315078,1.4752183 0.416829,1.7149773 0.197043,0.06455 0.556275,0.03852 0.747767,-0.05418 z m 3.096556,0 c 0.201008,-0.09731 0.396867,-0.293693 0.497402,-0.498737 0.113912,-0.232332 0.114716,-0.6404263 0.0017,-0.870065 C 38.713997,9.5101393 38.516834,9.3129742 38.3122,9.2122752 c -0.132064,-0.064985 -0.20893,-0.078948 -0.434614,-0.078948 -0.323231,0 -0.512581,0.075431 -0.726604,0.2894517 -0.54192,0.541921 -0.31508,1.4752181 0.416829,1.7149771 0.197042,0.06455 0.556274,0.03852 0.747767,-0.05418 z m 3.096556,0 c 0.201007,-0.09731 0.396868,-0.293693 0.497401,-0.498737 0.113913,-0.232332 0.114717,-0.6404263 0.0017,-0.870065 C 41.810572,9.5101393 41.613407,9.3129742 41.408773,9.2122752 41.27671,9.1472906 41.199844,9.133327 40.97416,9.133327 c -0.323231,0 -0.512581,0.075431 -0.726604,0.2894517 -0.54192,0.541921 -0.31508,1.4752183 0.416829,1.7149773 0.197042,0.06455 0.556274,0.03852 0.747767,-0.05418 z"
       style="fill:#ffffff;stroke-width:0.03225579" />
  </g>
</svg>
