<?xml version="1.0" encoding="UTF-8" standalone="no"?>
<!-- Created with Inkscape (http://www.inkscape.org/) -->

<svg
   xmlns:dc="http://purl.org/dc/elements/1.1/"
   xmlns:cc="http://creativecommons.org/ns#"
   xmlns:rdf="http://www.w3.org/1999/02/22-rdf-syntax-ns#"
   xmlns:svg="http://www.w3.org/2000/svg"
   xmlns="http://www.w3.org/2000/svg"
   xmlns:sodipodi="http://sodipodi.sourceforge.net/DTD/sodipodi-0.dtd"
   xmlns:inkscape="http://www.inkscape.org/namespaces/inkscape"
   width="22"
   height="22"
   viewBox="0 0 22 22"
   id="svg2"
   version="1.1"
   inkscape:version="0.92.2 5c3e80d, 2017-08-06"
   sodipodi:docname="weather-few-clouds-night.svg">
  <defs
     id="defs4" />
  <sodipodi:namedview
     id="base"
     pagecolor="#ffffff"
     bordercolor="#666666"
     borderopacity="1.0"
     inkscape:pageopacity="0.0"
     inkscape:pageshadow="2"
     inkscape:zoom="15.839192"
     inkscape:cx="9.171317"
     inkscape:cy="7.7177733"
     inkscape:document-units="px"
     inkscape:current-layer="layer1"
     showgrid="false"
     units="px"
     inkscape:window-width="1366"
     inkscape:window-height="717"
     inkscape:window-x="0"
     inkscape:window-y="24"
     inkscape:window-maximized="1" />
  <metadata
     id="metadata7">
    <rdf:RDF>
      <cc:Work
         rdf:about="">
        <dc:format>image/svg+xml</dc:format>
        <dc:type
           rdf:resource="http://purl.org/dc/dcmitype/StillImage" />
        <dc:title />
      </cc:Work>
    </rdf:RDF>
  </metadata>
  <g
     inkscape:label="Layer 1"
     inkscape:groupmode="layer"
     id="layer1"
     transform="translate(0,-1030.3622)">
    <g
       id="g1304"
       transform="matrix(0.16240158,0,0,0.16240158,1.4924224e-8,1004.1289)">
      <g
         transform="matrix(2.1285162,1.8448678,-2.0351436,2.2952722,65.49239,129.90329)"
         id="g1249"
         style="fill:#8a715e;fill-opacity:1">
        <path
           style="fill:#8a715e;fill-opacity:1"
           inkscape:connector-curvature="0"
           d="M 24,1 C 36.703,1 47,11.297 47,24 47,36.703 36.703,47 24,47 11.297,47 1,36.703 1,24 1,11.297 11.297,1 24,1 Z"
           id="path1247" />
      </g>
      <g
         id="g1293">
        <path
           inkscape:connector-curvature="0"
           id="path1287"
           d="m 78.221485,190.6394 c -7.01388,0.0581 -17.615183,1.48665 -24.278166,8.68992 -7.707817,8.33315 -10.804685,27.04048 -1.245277,38.74682 3.889614,-6.76311 11.106242,-10.97016 18.949556,-10.97016 v 9.6e-4 c 0.352186,4.9e-4 0.702477,0.0123 1.052003,0.0296 -0.815715,-0.87882 -1.615718,-1.84216 -2.401429,-2.90165 -4.56618,-6.15753 -5.005588,-12.65148 -2.351859,-18.36572 4.430792,-9.54089 17.400347,-14.80614 17.400347,-14.80614 0,0 -2.916846,-0.4585 -7.125175,-0.4236 z m 29.132095,37.47802 c 0,0 -8.157701,6.11082 -17.289685,6.33655 -0.716004,0.018 -1.419242,0.0103 -2.111013,-0.024 0.94074,1.05566 1.786203,2.21036 2.519096,3.45494 0.884064,-0.14763 1.779794,-0.22339 2.675322,-0.22533 2.262924,0 4.419117,0.45663 6.382112,1.28184 5.055458,-5.32698 7.824668,-10.82396 7.824668,-10.82396 z"
           style="fill:#7c6655;fill-opacity:1;fill-rule:evenodd;stroke:none;stroke-width:5.13969374px;stroke-linecap:butt;stroke-linejoin:miter;stroke-opacity:1" />
        <path
           style="fill:#7c6655;fill-opacity:1;stroke:none;stroke-width:5.13969374"
           d="m 71.647465,229.66985 c -8.118353,0 -15.56613,4.50634 -19.347128,11.69013 -1.69003,-0.57888 -3.465336,-0.87803 -5.252686,-0.88192 -9.033113,-0.002 -16.355984,7.32093 -16.355984,16.35404 0,9.03291 7.322871,16.35539 16.355984,16.35539 h 46.099507 c 9.102852,0 16.482042,-7.3794 16.481852,-16.48244 1.9e-4,-9.10226 -7.379,-16.48185 -16.481852,-16.48185 -0.895526,0.002 -1.791042,0.0777 -2.675105,0.22534 -3.927076,-6.66882 -11.085226,-10.76724 -18.824588,-10.77792 z"
           id="path1289"
           inkscape:connector-curvature="0"
           sodipodi:nodetypes="cccccccccc" />
      </g>
      <path
         inkscape:connector-curvature="0"
         id="path1282"
         d="m 75.575651,187.99356 c -7.01388,0.0581 -17.615183,1.48665 -24.278166,8.68992 -7.707817,8.33315 -10.804685,27.04048 -1.245277,38.74682 3.889614,-6.76311 11.106242,-10.97016 18.949556,-10.97016 v 9.6e-4 c 0.352186,4.9e-4 0.702477,0.0123 1.052003,0.0296 -0.815715,-0.87882 -1.615718,-1.84216 -2.401429,-2.90165 -4.56618,-6.15753 -5.005588,-12.65148 -2.351859,-18.36572 4.430792,-9.54089 17.400347,-14.80614 17.400347,-14.80614 0,0 -2.916846,-0.4585 -7.125175,-0.4236 z m 29.132099,37.47802 c 0,0 -8.157705,6.11082 -17.289689,6.33655 -0.716004,0.018 -1.419242,0.0103 -2.111013,-0.024 0.94074,1.05566 1.786203,2.21036 2.519096,3.45494 0.884064,-0.14763 1.779794,-0.22339 2.675322,-0.22533 2.262924,0 4.419117,0.45663 6.382112,1.28184 5.055462,-5.32698 7.824672,-10.82396 7.824672,-10.82396 z"
         style="fill:#ffffff;fill-opacity:1;fill-rule:evenodd;stroke:none;stroke-width:5.13969374px;stroke-linecap:butt;stroke-linejoin:miter;stroke-opacity:1" />
      <g
         transform="matrix(2.1285162,1.8448678,-2.0351436,2.2952722,65.49239,129.90329)"
         id="g1253">
        <path
           style="opacity:0.1"
           inkscape:connector-curvature="0"
           d="m 40.03,7.531 c 3.712,4.084 5.969,9.514 5.969,15.469 0,12.703 -10.297,23 -23,23 C 17.045,46 11.615,43.744 7.53,40.031 11.708,44.322 17.54,47 23.999,47 c 12.703,0 23,-10.298 23,-23 0,-6.462 -2.677,-12.291 -6.969,-16.469 z"
           id="path1251" />
      </g>
      <path
         style="fill:#ffffff;fill-opacity:1;stroke:none;stroke-width:5.13969374"
         d="m 69.001631,227.02401 c -8.118353,0 -15.56613,4.50634 -19.347128,11.69013 -1.69003,-0.57888 -3.465336,-0.87803 -5.252686,-0.88192 -9.033113,-0.002 -16.355984,7.32093 -16.355984,16.35404 0,9.03291 7.322871,16.35539 16.355984,16.35539 h 46.099507 c 9.102848,0 16.482046,-7.3794 16.481856,-16.48244 1.9e-4,-9.10226 -7.379008,-16.48185 -16.481856,-16.48185 -0.895526,0.002 -1.791042,0.0777 -2.675105,0.22534 -3.927076,-6.66882 -11.085226,-10.76724 -18.824588,-10.77792 z"
         id="path3755-3"
         inkscape:connector-curvature="0"
         sodipodi:nodetypes="cccccccccc" />
    </g>
  </g>
</svg>
