<?xml version="1.0" encoding="UTF-8" standalone="no"?>
<!-- Created with Inkscape (http://www.inkscape.org/) -->

<svg
   xmlns:dc="http://purl.org/dc/elements/1.1/"
   xmlns:cc="http://creativecommons.org/ns#"
   xmlns:rdf="http://www.w3.org/1999/02/22-rdf-syntax-ns#"
   xmlns:svg="http://www.w3.org/2000/svg"
   xmlns="http://www.w3.org/2000/svg"
   xmlns:sodipodi="http://sodipodi.sourceforge.net/DTD/sodipodi-0.dtd"
   xmlns:inkscape="http://www.inkscape.org/namespaces/inkscape"
   width="22"
   height="22"
   viewBox="0 0 22 22"
   id="svg2"
   version="1.1"
   inkscape:version="0.92.2 5c3e80d, 2017-08-06"
   sodipodi:docname="weather-clouds-night.svg">
  <defs
     id="defs4" />
  <sodipodi:namedview
     id="base"
     pagecolor="#ffffff"
     bordercolor="#666666"
     borderopacity="1.0"
     inkscape:pageopacity="0.0"
     inkscape:pageshadow="2"
     inkscape:zoom="15.839192"
     inkscape:cx="17.085706"
     inkscape:cy="11.894902"
     inkscape:document-units="px"
     inkscape:current-layer="layer1"
     showgrid="false"
     units="px"
     inkscape:window-width="1366"
     inkscape:window-height="717"
     inkscape:window-x="0"
     inkscape:window-y="24"
     inkscape:window-maximized="1" />
  <metadata
     id="metadata7">
    <rdf:RDF>
      <cc:Work
         rdf:about="">
        <dc:format>image/svg+xml</dc:format>
        <dc:type
           rdf:resource="http://purl.org/dc/dcmitype/StillImage" />
        <dc:title />
      </cc:Work>
    </rdf:RDF>
  </metadata>
  <g
     inkscape:label="Layer 1"
     inkscape:groupmode="layer"
     id="layer1"
     transform="translate(0,-1030.3622)">
    <g
       id="g846"
       transform="matrix(0.04296875,0,0,0.04296875,3.9426152e-6,1007.1435)">
      <g
         style="fill:#8a715e;fill-opacity:1"
         id="g1033"
         transform="matrix(8.0447857,6.9727288,-7.6918814,8.6750446,247.5303,420.81563)">
        <path
           id="path1031"
           d="M 24,1 C 36.703,1 47,11.297 47,24 47,36.703 36.703,47 24,47 11.297,47 1,36.703 1,24 1,11.297 11.297,1 24,1 Z"
           inkscape:connector-curvature="0"
           style="fill:#8a715e;fill-opacity:1" />
      </g>
      <path
         style="opacity:1;fill:#000000;fill-opacity:0.49019608;stroke-width:11.10955811"
         inkscape:connector-curvature="0"
         d="m 511.63551,765.26572 c -1.5514,61.31166 -25.16123,124.1546 -70.96638,175.81449 C 342.95916,1051.2793 180.91869,1068.808 78.725782,980.23347 30.827128,938.71784 4.4968259,881.28503 0.193832,820.59099 0.79908356,886.94767 27.117415,950.84439 79.078686,995.88124 181.2716,1084.4558 343.31975,1066.9184 441.02203,956.72798 490.72697,900.66984 514.02705,831.43701 511.63551,765.26572 Z"
         id="path1035" />
      <g
         style="fill:#000000;fill-opacity:0.49019608"
         transform="matrix(3.7795276,0,0,3.7795276,734.16501,1375.0236)"
         id="g1141">
        <path
           style="fill:#000000;fill-opacity:0.49019608;stroke:none;stroke-width:3.68001127"
           d="m -100.37144,-151.24499 c -4.6979,0.004 -9.00775,2.6076 -11.1957,6.76492 -0.97848,-0.3352 -2.00534,-0.50767 -3.03972,-0.51045 -5.22719,-4.2e-4 -9.46477,4.23715 -9.4648,9.46418 3e-5,5.22744 4.23761,9.46501 9.4648,9.46473 h 26.676917 c 5.26758,0 9.53772,-4.27039 9.53764,-9.5379 8e-5,-5.26764 -4.27006,-9.53789 -9.53764,-9.53789 -0.51866,0.002 -1.036477,0.0418 -1.548077,0.12518 -2.272561,-3.85925 -6.414778,-6.23054 -10.89342,-6.2368 z"
           id="path1132"
           inkscape:connector-curvature="0"
           sodipodi:nodetypes="cccccccccc" />
        <path
           sodipodi:nodetypes="ccccccccccc"
           inkscape:connector-curvature="0"
           id="path1134"
           d="m -121.45177,-184.21853 c -5.63261,0.0467 -14.14568,1.19371 -19.49648,6.97839 -6.18995,6.69215 -8.67767,21.71606 -1.00097,31.11696 3.12343,-5.43182 8.91914,-8.81031 15.21819,-8.81031 v 5.1e-4 c 0.28274,3.9e-4 0.56429,0.01 0.84491,0.0238 -0.65498,-0.70566 -1.29767,-1.47938 -1.92857,-2.33009 -3.66695,-4.94489 -4.01939,-10.16008 -1.88826,-14.74897 3.55825,-7.66194 13.97331,-11.89023 13.97331,-11.89023 0,0 -2.34256,-0.36805 -5.72213,-0.34003 z"
           style="fill:#000000;fill-opacity:0.49019608;fill-rule:evenodd;stroke:none;stroke-width:4.12749958px;stroke-linecap:butt;stroke-linejoin:miter;stroke-opacity:1" />
        <path
           inkscape:connector-curvature="0"
           id="path1136"
           d="m -125.14353,-152.81681 c -6.51951,0 -12.50069,3.61902 -15.53704,9.38805 -1.35782,-0.46488 -2.78293,-0.70536 -4.21835,-0.70848 -7.25407,-0.001 -13.13451,5.87942 -13.13459,13.13357 8e-5,7.254 5.88052,13.13408 13.13459,13.13408 h 37.021 c 5.10856,0 9.538032,-2.89576 11.744502,-7.13393 h -19.968292 c -5.86282,3e-4 -10.61586,-4.75228 -10.61589,-10.61538 3e-5,-5.86264 4.75307,-10.61532 10.61589,-10.61485 1.16016,0.003 2.31163,0.19661 3.40909,0.57257 0.21772,-0.41369 0.45517,-0.81293 0.70901,-1.19837 -3.29505,-3.74028 -8.0705,-5.94972 -13.15992,-5.95675 z"
           style="fill:#000000;fill-opacity:0.49019608;stroke:none;stroke-width:4.12749958" />
      </g>
      <path
         style="fill:#ffffff;fill-opacity:1;stroke:none;stroke-width:13.9087038"
         d="m 334.80881,783.38854 c -17.75584,0.0151 -34.04504,9.8555 -42.31446,25.56821 -3.69819,-1.2669 -7.57923,-1.91876 -11.4887,-1.92926 -19.75631,-0.002 -35.77236,16.01442 -35.77248,35.77013 1.2e-4,19.75725 16.01617,35.77326 35.77248,35.7722 H 381.8318 c 19.90897,0 36.04808,-16.14005 36.04778,-36.04875 3e-4,-19.90919 -16.13881,-36.04872 -36.04778,-36.04872 -1.96029,0.008 -3.91739,0.15798 -5.851,0.47312 -8.5892,-14.58614 -24.24482,-23.5485 -41.17199,-23.57216 z"
         id="path3755-1"
         inkscape:connector-curvature="0"
         sodipodi:nodetypes="cccccccccc" />
      <path
         sodipodi:nodetypes="ccccccccccc"
         inkscape:connector-curvature="0"
         id="path1061"
         d="m 255.13512,658.76414 c -21.2886,0.1765 -53.46399,4.51166 -73.68748,26.37502 -23.39509,25.29316 -32.7975,82.07645 -3.7832,117.60741 11.80509,-20.52972 33.71014,-33.29881 57.51757,-33.29881 v 0.002 c 1.06863,10e-4 2.13275,0.0378 3.19336,0.09 -2.47551,-2.66706 -4.90458,-5.59136 -7.28908,-8.80664 -13.85934,-18.68935 -15.1914,-38.4003 -7.13673,-55.74414 13.4485,-28.95851 52.81251,-44.93945 52.81251,-44.93945 0,0 -8.85377,-1.39106 -21.62695,-1.28516 z"
         style="fill:#ffffff;fill-opacity:1;fill-rule:evenodd;stroke:none;stroke-width:15.59999847px;stroke-linecap:butt;stroke-linejoin:miter;stroke-opacity:1" />
      <path
         inkscape:connector-curvature="0"
         id="path1075"
         d="m 241.18201,777.44781 c -24.64067,0 -47.2467,13.67818 -58.72267,35.48239 -5.13192,-1.75702 -10.51816,-2.66593 -15.94337,-2.67772 -27.41696,-0.004 -49.64224,22.22143 -49.64254,49.63869 3e-4,27.4167 22.22558,49.64062 49.64254,49.64062 h 139.92189 c 19.30795,0 36.04925,-10.9446 44.38868,-26.96288 h -75.47072 c -22.15869,0.001 -40.12293,-17.96138 -40.12305,-40.12113 1.2e-4,-22.15801 17.96436,-40.12089 40.12305,-40.11912 4.38486,0.0113 8.73687,0.7431 12.88475,2.16405 0.82288,-1.56355 1.72033,-3.07249 2.67972,-4.52927 -12.45373,-14.1365 -30.50267,-22.48713 -49.73828,-22.5137 z"
         style="fill:#ffffff;fill-opacity:1;stroke:none;stroke-width:15.59999847" />
    </g>
  </g>
</svg>
