<?xml version="1.0" encoding="UTF-8" standalone="no"?>
<!-- Created with Inkscape (http://www.inkscape.org/) -->

<svg
   xmlns:dc="http://purl.org/dc/elements/1.1/"
   xmlns:cc="http://creativecommons.org/ns#"
   xmlns:rdf="http://www.w3.org/1999/02/22-rdf-syntax-ns#"
   xmlns:svg="http://www.w3.org/2000/svg"
   xmlns="http://www.w3.org/2000/svg"
   xmlns:sodipodi="http://sodipodi.sourceforge.net/DTD/sodipodi-0.dtd"
   xmlns:inkscape="http://www.inkscape.org/namespaces/inkscape"
   width="22"
   height="22"
   viewBox="0 0 22 22"
   id="svg2"
   version="1.1"
   inkscape:version="0.92.2 5c3e80d, 2017-08-06"
   sodipodi:docname="xfce4-mixer-no-record.svg">
  <defs
     id="defs4" />
  <sodipodi:namedview
     id="base"
     pagecolor="#ffffff"
     bordercolor="#666666"
     borderopacity="1.0"
     inkscape:pageopacity="0.0"
     inkscape:pageshadow="2"
     inkscape:zoom="11.886364"
     inkscape:cx="19.895371"
     inkscape:cy="12.274736"
     inkscape:document-units="px"
     inkscape:current-layer="layer1"
     showgrid="false"
     units="px"
     inkscape:window-width="1366"
     inkscape:window-height="717"
     inkscape:window-x="0"
     inkscape:window-y="24"
     inkscape:window-maximized="1" />
  <metadata
     id="metadata7">
    <rdf:RDF>
      <cc:Work
         rdf:about="">
        <dc:format>image/svg+xml</dc:format>
        <dc:type
           rdf:resource="http://purl.org/dc/dcmitype/StillImage" />
        <dc:title />
      </cc:Work>
    </rdf:RDF>
  </metadata>
  <g
     inkscape:label="Layer 1"
     inkscape:groupmode="layer"
     id="layer1"
     transform="translate(0,-1030.3622)">
    <g
       id="g828"
       transform="matrix(0.04296875,0,0,0.04296875,6.8338508e-6,1007.1435)">
      <path
         id="path874"
         d="m 432.91328,596.83619 c 102.19291,88.57459 105.82677,249.6997 8.1168,359.89878 C 343.32011,1066.9341 181.27964,1084.4628 79.086732,995.88823 -23.106173,907.31365 -26.740038,746.18853 70.969932,635.98945 168.6799,525.79038 330.72038,508.26161 432.91328,596.83619 Z"
         inkscape:connector-curvature="0"
         style="fill:#8a715e;fill-opacity:1;stroke-width:11.10955715" />
      <path
         id="path876"
         d="M 511.6355,765.26575 C 510.0841,826.5774 486.47426,889.42033 440.66911,941.08022 342.95914,1051.2793 180.91869,1068.8081 78.725777,980.23349 30.827124,938.71786 4.4968224,881.28504 0.1938285,820.59101 0.79908009,886.94768 27.117411,950.84441 79.078681,995.88126 181.27159,1084.4558 343.31974,1066.9184 441.02201,956.728 490.72695,900.66986 514.02704,831.43703 511.6355,765.26575 Z"
         inkscape:connector-curvature="0"
         style="opacity:1;fill:#000000;fill-opacity:0.49019608;stroke-width:11.10955811" />
      <path
         inkscape:connector-curvature="0"
         id="path881"
         d="m 223.9701,961.92333 v -8.80177 l 21.48136,-0.19464 21.48136,-0.19465 0.20674,-17.62571 c 0.11377,-9.69415 0.0265,-18.3693 -0.19767,-19.27812 -0.27666,-1.13076 -0.94998,-1.65245 -2.13241,-1.65245 -3.35867,0 -15.75084,-3.57252 -21.32409,-6.14755 -15.9123,-7.3519 -29.03441,-19.88829 -36.37096,-34.74751 -6.77779,-13.72743 -8.10747,-21.68091 -8.11143,-48.51873 L 199,804.74964 h 8.81287 8.81284 l 0.0151,20.74696 c 0.0151,22.56812 0.53903,27.11278 4.13692,35.80225 9.15976,22.12214 30.33713,35.98583 54.96998,35.98583 24.63299,0 45.81014,-13.86354 54.96997,-35.98583 3.59785,-8.68947 4.12301,-13.23413 4.13688,-35.80225 l 0.0151,-20.74696 h 8.81284 8.81288 l -0.003,20.01256 c -0.003,21.28055 -0.75341,28.95518 -3.71528,38.00545 -8.4751,25.89649 -30.32368,45.08689 -57.60465,50.59638 l -6.60963,1.33478 -0.19578,19.20034 -0.19578,19.20034 h 21.67717 21.67714 v 8.81284 8.81287 h -51.77726 -51.77556 v -8.80176 z m 40.80828,-76.09678 c -8.40752,-2.03362 -14.87505,-5.81605 -21.71887,-12.70209 -7.08918,-7.13287 -10.63891,-13.11371 -13.35874,-22.50773 l -1.69145,-5.84213 v -71.6045 c 0,-77.22958 -0.12586,-74.53138 3.92016,-84.08939 8.65323,-20.4421 29.11238,-32.86643 49.28066,-29.9269 17.99667,2.62307 31.79947,13.58929 38.58293,30.65397 4.10146,10.31781 4.12645,10.87419 3.87972,86.40185 l -0.22639,69.29937 -1.68469,5.49608 c -2.83759,9.25686 -6.38196,15.13225 -13.31414,22.07029 -6.96919,6.97508 -13.53846,10.78329 -22.05298,12.7841 -5.89338,1.38482 -15.81709,1.36974 -21.61617,-0.034 z"
         style="fill:#000000;fill-opacity:0.49019608;stroke-width:0.73440516" />
      <path
         style="fill:#ffffff;stroke-width:0.73440516"
         d="m 203.9698,941.92323 v -8.80176 l 21.48136,-0.19465 21.48133,-0.19464 0.20674,-17.62572 c 0.11376,-9.69414 0.0265,-18.36929 -0.19767,-19.27812 -0.27666,-1.13076 -0.94999,-1.65245 -2.13237,-1.65245 -3.35868,0 -15.75084,-3.57252 -21.3241,-6.14755 -15.9123,-7.3519 -29.03444,-19.88829 -36.37096,-34.7475 -6.77779,-13.72743 -8.10746,-21.68092 -8.11143,-48.51874 l -0.003,-20.01256 h 8.81284 8.81287 l 0.0151,20.74696 c 0.0151,22.56813 0.539,27.11278 4.13692,35.80225 9.15972,22.12215 30.33713,35.98583 54.96998,35.98583 24.63299,0 45.81014,-13.86353 54.96998,-35.98583 3.59784,-8.68947 4.12297,-13.23412 4.13688,-35.80225 l 0.0151,-20.74696 h 8.81283 8.81288 l -0.003,20.01256 c -0.003,21.28055 -0.75337,28.95519 -3.71524,38.00545 -8.4751,25.8965 -30.32367,45.0869 -57.60464,50.59639 l -6.60964,1.33478 -0.19578,19.20034 -0.19578,19.20034 h 21.67718 21.67714 v 8.81283 8.81288 h -51.77579 -51.77556 v -8.80176 z m 40.80828,-76.09678 c -8.40756,-2.03361 -14.87505,-5.81605 -21.7189,-12.70208 -7.08915,-7.13288 -10.63892,-13.11372 -13.3587,-22.50773 l -1.69146,-5.84213 V 753.17 c 0,-77.22958 -0.12586,-74.53137 3.92017,-84.08938 8.65323,-20.44211 29.11237,-32.86644 49.28061,-29.92691 17.99671,2.62307 31.79947,13.58929 38.58293,30.65397 4.10151,10.31781 4.12649,10.8742 3.87976,86.40185 l -0.22639,69.29938 -1.68473,5.49607 c -2.83755,9.25686 -6.38195,15.13225 -13.3141,22.07029 -6.96922,6.97508 -13.53846,10.7833 -22.05301,12.7841 -5.89334,1.38482 -15.81706,1.36974 -21.61614,-0.034 z"
         id="path883"
         inkscape:connector-curvature="0" />
    </g>
  </g>
</svg>
