<?xml version="1.0" encoding="UTF-8" standalone="no"?>
<!-- Created with Inkscape (http://www.inkscape.org/) -->

<svg
   xmlns:dc="http://purl.org/dc/elements/1.1/"
   xmlns:cc="http://creativecommons.org/ns#"
   xmlns:rdf="http://www.w3.org/1999/02/22-rdf-syntax-ns#"
   xmlns:svg="http://www.w3.org/2000/svg"
   xmlns="http://www.w3.org/2000/svg"
   xmlns:sodipodi="http://sodipodi.sourceforge.net/DTD/sodipodi-0.dtd"
   xmlns:inkscape="http://www.inkscape.org/namespaces/inkscape"
   width="22"
   height="22"
   viewBox="0 0 22 22"
   id="svg2"
   version="1.1"
   inkscape:version="0.92.2 5c3e80d, 2017-08-06"
   sodipodi:docname="xfce4-mixer-volume-low-medium.svg">
  <defs
     id="defs4" />
  <sodipodi:namedview
     id="base"
     pagecolor="#ffffff"
     bordercolor="#666666"
     borderopacity="1.0"
     inkscape:pageopacity="0.0"
     inkscape:pageshadow="2"
     inkscape:zoom="11.2"
     inkscape:cx="12.782746"
     inkscape:cy="10.130214"
     inkscape:document-units="px"
     inkscape:current-layer="layer1"
     showgrid="false"
     units="px"
     inkscape:window-width="1366"
     inkscape:window-height="717"
     inkscape:window-x="0"
     inkscape:window-y="24"
     inkscape:window-maximized="1" />
  <metadata
     id="metadata7">
    <rdf:RDF>
      <cc:Work
         rdf:about="">
        <dc:format>image/svg+xml</dc:format>
        <dc:type
           rdf:resource="http://purl.org/dc/dcmitype/StillImage" />
        <dc:title />
      </cc:Work>
    </rdf:RDF>
  </metadata>
  <g
     inkscape:label="Layer 1"
     inkscape:groupmode="layer"
     id="layer1"
     transform="translate(0,-1030.3622)">
    <g
       transform="matrix(0.16240158,0,0,0.16240158,-49.943524,1004.4103)"
       id="g1062">
      <g
         transform="matrix(2.1285162,1.8448678,-2.0351436,2.2952722,373.02372,128.17072)"
         id="g866"
         style="fill:#7c6655;fill-opacity:1">
        <path
           style="fill:#7c6655;fill-opacity:1"
           inkscape:connector-curvature="0"
           d="M 24,1 C 36.703,1 47,11.297 47,24 47,36.703 36.703,47 24,47 11.297,47 1,36.703 1,24 1,11.297 11.297,1 24,1 Z"
           id="path864" />
      </g>
      <path
         inkscape:connector-curvature="0"
         id="rect928"
         transform="matrix(0.26458333,0,0,0.26458333,0,161.53332)"
         d="m 1185.127,164.12109 c -43.6517,99.64856 -24.4443,214.88777 56.2832,284.85743 102.1929,88.57458 264.2333,71.04478 361.9433,-39.1543 63.5589,-71.68286 84.2193,-164.90924 62.7813,-245.70313 z"
         style="fill:#68b723;fill-opacity:1;stroke:none;stroke-width:1.8254689;stroke-miterlimit:4;stroke-dasharray:none;stroke-opacity:1" />
      <g
         transform="matrix(2.1285162,1.8448678,-2.0351436,2.2952722,373.02372,128.17072)"
         id="g870">
        <path
           style="opacity:0.1"
           inkscape:connector-curvature="0"
           d="m 40.03,7.531 c 3.712,4.084 5.969,9.514 5.969,15.469 0,12.703 -10.297,23 -23,23 C 17.045,46 11.615,43.744 7.53,40.031 11.708,44.322 17.54,47 23.999,47 c 12.703,0 23,-10.298 23,-23 0,-6.462 -2.677,-12.291 -6.969,-16.469 z"
           id="path868" />
      </g>
      <path
         inkscape:connector-curvature="0"
         id="path874"
         d="m 342.41184,244.32517 c -4.01676,-5.11675 -5.63787,-8.92711 -5.76999,-13.56223 -0.23834,-8.36235 6.24033,-17.33605 17.06323,-23.63455 1.9363,-1.12685 2.73903,-1.49274 2.32242,-1.0586 -0.39001,0.40647 -2.38283,4.19327 -3.2814,6.23547 -5.90465,13.41971 -5.07726,27.6025 2.36849,40.60026 l 1.12712,1.96755 -1.42959,-0.75554 c -1.80488,-0.95388 -3.93674,-2.31269 -5.82804,-3.71466 -1.45318,-1.0772 -5.80845,-5.10475 -6.57224,-6.0777 z m 21.03286,13.93291 c -7.91911,-9.83514 -11.65341,-21.21398 -10.49691,-31.98537 0.63517,-5.91588 3.04575,-12.74351 6.47451,-18.33824 3.5442,-5.78309 8.65731,-11.2226 13.4109,-14.26701 5.9027,-3.78033 9.23049,-3.25474 12.72955,2.01055 7.31984,11.0147 9.60414,38.07158 4.83877,57.31389 -1.12402,4.53879 -2.36505,7.84152 -4.08168,10.8625 -1.20985,2.12914 -3.31094,4.3344 -4.79286,5.03046 -2.3773,1.11665 -5.59914,0.17878 -9.97499,-2.90364 -1.6942,-1.19341 -6.65393,-5.91814 -8.10729,-7.72314 z m 14.73554,2.48261 c 1.60776,0.59876 3.00352,0.0684 4.56319,-1.73385 3.7123,-4.28971 6.1539,-15.17924 6.23041,-27.78771 0.0682,-11.22963 -1.58223,-20.95721 -4.56549,-26.90959 -1.91908,-3.82908 -4.13546,-5.38407 -6.41082,-4.49775 -1.24648,0.48555 -2.88305,2.35462 -3.93924,4.49889 -4.51401,9.16422 -5.82066,27.92602 -2.94429,42.27592 0.72998,3.64175 2.23769,8.2444 3.37471,10.30207 0.983,1.7789 2.56916,3.43404 3.69153,3.85202 z m -5.38755,-21.49678 c -0.58418,-4.02156 -0.75643,-9.63857 -0.43002,-14.02261 0.2134,-2.86623 0.55782,-5.40271 0.76136,-5.60719 0.26186,-0.26307 2.03918,-0.31184 3.07091,-0.0843 1.36859,0.30184 2.6112,1.01656 3.76605,2.16612 1.24157,1.2359 1.97172,2.46242 2.67219,4.4889 0.46144,1.33493 0.55804,2.03797 0.5576,4.05761 -8.8e-4,3.97136 -1.01737,6.52016 -3.53991,8.87625 -1.17953,1.10166 -1.47068,1.28981 -2.59098,1.67414 -1.22889,0.42156 -3.52264,0.51025 -3.88435,0.15019 -0.0875,-0.0871 -0.25974,-0.85169 -0.38285,-1.69914 z m 23.86693,8.53292 c -0.29424,-0.779 -0.0958,-1.80387 0.45686,-2.35902 0.50007,-0.50236 1.51204,-0.79008 2.19934,-0.62529 0.64957,0.15573 0.89223,0.37369 5.28751,4.74886 4.39527,4.37516 4.61435,4.61682 4.77305,5.26567 0.17201,0.70319 -0.11741,1.70212 -0.64746,2.2346 -0.44091,0.44294 -1.64711,0.63127 -2.41917,0.37775 -0.59746,-0.19618 -1.12838,-0.67807 -5.01634,-4.55289 -3.95507,-3.94215 -4.37405,-4.40171 -4.63379,-5.08968 z m 6.43506,-16.48831 c -0.58783,-0.86462 -0.10014,-2.5531 0.91718,-3.17557 0.60074,-0.36756 13.39636,-0.40086 13.99854,-0.0365 1.1044,0.66835 1.51892,2.25931 0.85878,3.29598 -0.67969,1.06736 -1.00621,1.11704 -7.59514,1.1557 -3.46123,0.0203 -6.56676,-0.0598 -6.90116,-0.17802 -0.60222,-0.21287 -0.82949,-0.40165 -1.27821,-1.06168 z m -6.56958,-17.16166 c -0.11962,-0.31406 -0.18371,-0.86635 -0.14243,-1.22735 l 0.0751,-0.65632 4.7091,-4.63529 c 5.21441,-5.13263 5.11133,-5.05801 6.51825,-4.72072 1.32057,0.31656 2.02371,1.63548 1.55989,2.92597 -0.26735,0.74388 -0.49389,0.98699 -4.83104,5.18448 -4.03905,3.90901 -4.61443,4.41747 -5.11915,4.5238 -1.17658,0.24791 -2.37372,-0.35489 -2.7697,-1.39459 z"
         style="fill:#705c4d;fill-opacity:1;stroke-width:0.18061036" />
      <path
         style="fill:#ffffff;stroke-width:0.18061036"
         d="m 339.766,241.67934 c -4.01675,-5.11675 -5.63786,-8.92711 -5.76998,-13.56223 -0.23834,-8.36235 6.24032,-17.33605 17.06322,-23.63455 1.9363,-1.12685 2.73904,-1.49274 2.32243,-1.0586 -0.39001,0.40647 -2.38284,4.19327 -3.2814,6.23547 -5.90465,13.41971 -5.07727,27.6025 2.36849,40.60026 l 1.12712,1.96755 -1.42959,-0.75554 c -1.80488,-0.95388 -3.93674,-2.31269 -5.82805,-3.71466 -1.45317,-1.0772 -5.80844,-5.10475 -6.57224,-6.0777 z m 21.03287,13.93291 c -7.91912,-9.83514 -11.65341,-21.21398 -10.49691,-31.98537 0.63517,-5.91588 3.04574,-12.74351 6.47451,-18.33824 3.5442,-5.78309 8.65731,-11.2226 13.41089,-14.26701 5.9027,-3.78033 9.2305,-3.25474 12.72956,2.01055 7.31983,11.0147 9.60414,38.07158 4.83877,57.31389 -1.12403,4.53879 -2.36506,7.84152 -4.08168,10.8625 -1.20985,2.12914 -3.31095,4.3344 -4.79286,5.03046 -2.3773,1.11665 -5.59914,0.17878 -9.97499,-2.90364 -1.6942,-1.19341 -6.65393,-5.91814 -8.10729,-7.72314 z m 14.73554,2.48261 c 1.60776,0.59876 3.00351,0.0684 4.56318,-1.73385 3.71231,-4.28971 6.15391,-15.17924 6.23042,-27.78771 0.0682,-11.22963 -1.58223,-20.95721 -4.56549,-26.90959 -1.91909,-3.82908 -4.13546,-5.38407 -6.41082,-4.49775 -1.24648,0.48555 -2.88305,2.35462 -3.93925,4.49889 -4.514,9.16422 -5.82065,27.92602 -2.94428,42.27592 0.72997,3.64175 2.23769,8.2444 3.37471,10.30207 0.983,1.7789 2.56916,3.43404 3.69153,3.85202 z m -5.38756,-21.49678 c -0.58417,-4.02156 -0.75642,-9.63857 -0.43002,-14.02261 0.21341,-2.86623 0.55782,-5.40271 0.76137,-5.60719 0.26186,-0.26307 2.03917,-0.31184 3.07091,-0.0843 1.36859,0.30184 2.6112,1.01656 3.76605,2.16612 1.24157,1.2359 1.97172,2.46242 2.67219,4.4889 0.46144,1.33493 0.55804,2.03797 0.5576,4.05761 -8.8e-4,3.97136 -1.01737,6.52016 -3.53991,8.87625 -1.17954,1.10166 -1.47068,1.28981 -2.59099,1.67414 -1.22888,0.42156 -3.52263,0.51025 -3.88435,0.15019 -0.0875,-0.0871 -0.25973,-0.85169 -0.38285,-1.69914 z m 23.86694,8.53292 c -0.29424,-0.779 -0.0957,-1.80387 0.45686,-2.35902 0.50006,-0.50236 1.51204,-0.79008 2.19934,-0.62529 0.64957,0.15573 0.89222,0.37369 5.2875,4.74886 4.39528,4.37516 4.61436,4.61682 4.77306,5.26567 0.17201,0.70319 -0.11742,1.70212 -0.64746,2.2346 -0.44091,0.44294 -1.64711,0.63127 -2.41917,0.37775 -0.59746,-0.19618 -1.12838,-0.67807 -5.01635,-4.55289 -3.95507,-3.94215 -4.37404,-4.40171 -4.63378,-5.08968 z m 6.43505,-16.48831 c -0.58782,-0.86462 -0.10014,-2.5531 0.91719,-3.17557 0.60073,-0.36756 13.39636,-0.40086 13.99854,-0.0365 1.1044,0.66835 1.51892,2.25931 0.85878,3.29598 -0.67969,1.06736 -1.00621,1.11704 -7.59514,1.1557 -3.46123,0.0203 -6.56676,-0.0598 -6.90116,-0.17802 -0.60223,-0.21287 -0.82949,-0.40165 -1.27821,-1.06168 z m -6.56958,-17.16166 c -0.11961,-0.31406 -0.1837,-0.86635 -0.14242,-1.22735 l 0.0751,-0.65632 4.70911,-4.63529 c 5.2144,-5.13263 5.11132,-5.05801 6.51824,-4.72072 1.32058,0.31656 2.02372,1.63548 1.5599,2.92597 -0.26735,0.74388 -0.49389,0.98699 -4.83104,5.18448 -4.03906,3.90901 -4.61443,4.41747 -5.11915,4.5238 -1.17658,0.24791 -2.37372,-0.35489 -2.7697,-1.39459 z"
         id="path876"
         inkscape:connector-curvature="0" />
      <path
         inkscape:connector-curvature="0"
         id="path1037"
         transform="matrix(0.26458333,0,0,0.26458333,0,161.53332)"
         d="m 1365.9531,164.12109 c -2.6533,3.68598 -5.1735,7.44828 -7.5058,11.25391 -12.9591,21.14544 -22.0701,46.94936 -24.4707,69.30859 -4.3711,40.71077 9.7413,83.71845 39.6718,120.89063 5.4931,6.82205 24.2393,24.67893 30.6426,29.18945 16.5387,11.65009 28.7161,15.19502 37.7012,10.97461 5.6009,-2.63078 13.5426,-10.96653 18.1152,-19.01367 6.4881,-11.41788 11.1775,-23.90021 15.4258,-41.05469 14.0719,-56.82172 11.8776,-131.67214 -2.9492,-181.54883 h -18.5254 c 10.5303,22.66487 16.3268,58.31783 16.0781,99.25782 -0.2892,47.65406 -9.5161,88.81231 -23.5469,105.02539 -5.8948,6.81165 -11.1714,8.81576 -17.248,6.55273 -4.242,-1.57977 -10.2359,-7.83519 -13.9512,-14.55859 -4.2974,-7.77702 -9.9969,-25.17341 -12.7558,-38.9375 -10.6237,-53.00023 -6.1423,-121.90421 9.9882,-157.33985 z m 160.5137,0 c -2.6666,2.5629 -5.9051,5.74667 -10.2461,10.01953 l -17.7969,17.51954 -0.2851,2.48046 c -0.156,1.36441 0.087,3.45168 0.539,4.63868 1.4967,3.92957 6.0219,6.20651 10.4688,5.26953 1.9076,-0.40188 4.0819,-2.32345 19.3476,-17.09766 16.3924,-15.86453 17.2474,-16.78223 18.2579,-19.59375 0.3911,-1.08843 0.5523,-2.18049 0.5273,-3.23633 z m -180.5293,3.53907 c -0.5321,-0.10366 -3.6109,1.47374 -9.0996,4.66796 -40.9055,23.80536 -65.3911,57.72044 -64.4902,89.32618 0.4993,17.51856 6.6251,31.92086 21.8066,51.25976 2.8868,3.67729 19.3475,18.8994 24.8398,22.97071 7.1483,5.29878 15.2058,10.43384 22.0274,14.03906 l 5.4043,2.85547 -4.2598,-7.43555 c -28.1414,-49.12539 -31.2699,-102.72905 -8.9531,-153.44922 3.3962,-7.71855 10.9283,-22.03209 12.4023,-23.56836 0.3937,-0.41021 0.4997,-0.63146 0.3223,-0.66601 z m 70.7773,51 c -3.007,-0.0686 -5.8638,0.23599 -6.4824,0.85742 -0.7693,0.77284 -2.0704,10.36036 -2.8769,21.19336 -1.2337,16.5696 -0.583,37.79845 1.625,52.99804 0.4653,3.20297 1.1165,6.09268 1.4472,6.42188 1.3671,1.36086 10.0351,1.02689 14.6797,-0.56641 4.2342,-1.45258 5.3349,-2.16437 9.793,-6.32812 9.534,-8.90491 13.3756,-18.53897 13.3789,-33.54883 0,-7.63329 -0.3634,-10.29053 -2.1074,-15.33594 -2.6475,-7.65913 -5.4071,-12.29372 -10.0996,-16.96484 -4.3648,-4.34479 -9.0598,-7.04669 -14.2325,-8.1875 -1.4623,-0.3225 -3.3208,-0.49792 -5.125,-0.53906 z m 136.711,31.87304 c -12.6587,0.033 -25.3159,0.41087 -26.4512,1.10547 -3.8444,2.35231 -5.687,8.73563 -3.4668,12.00391 1.6953,2.49337 2.5544,3.20733 4.8301,4.01172 1.2639,0.44681 13.0022,0.7486 26.084,0.67187 24.903,-0.14611 26.1361,-0.33307 28.7051,-4.36719 2.495,-3.91812 0.928,-9.93098 -3.2461,-12.45703 -1.138,-0.68855 -13.7965,-1.00172 -26.4551,-0.96875 z m -46.3301,63.98633 c -2.2602,0.13209 -4.7661,1.09943 -6.1836,2.52344 -2.0888,2.0982 -2.8386,5.97176 -1.7266,8.91601 0.9817,2.60021 2.5654,4.33882 17.5137,19.23829 14.6947,14.64498 16.7009,16.46556 18.959,17.20703 2.918,0.95818 7.4781,0.24637 9.1445,-1.42774 2.0034,-2.01252 3.0974,-5.78758 2.4473,-8.44531 -0.5998,-2.45235 -1.429,-3.36631 -18.041,-19.90234 -16.6121,-16.53608 -17.5293,-17.36064 -19.9844,-17.94922 -0.6494,-0.15571 -1.3755,-0.20419 -2.1289,-0.16016 z"
         style="fill:#5ea520;fill-opacity:1;stroke-width:0.68262184" />
      <path
         inkscape:connector-curvature="0"
         id="path1035"
         d="m 339.766,241.67934 c -4.01675,-5.11675 -5.63786,-8.92711 -5.76998,-13.56223 -0.23834,-8.36235 6.24032,-17.33605 17.06322,-23.63455 1.9363,-1.12685 2.73904,-1.49274 2.32243,-1.0586 -0.39001,0.40647 -2.38284,4.19327 -3.2814,6.23547 -5.90465,13.41971 -5.07727,27.6025 2.36849,40.60026 l 1.12712,1.96755 -1.42959,-0.75554 c -1.80488,-0.95388 -3.93674,-2.31269 -5.82805,-3.71466 -1.45317,-1.0772 -5.80844,-5.10475 -6.57224,-6.0777 z m 21.03287,13.93291 c -7.91912,-9.83514 -11.65341,-21.21398 -10.49691,-31.98537 0.63517,-5.91588 3.04574,-12.74351 6.47451,-18.33824 3.5442,-5.78309 8.65731,-11.2226 13.41089,-14.26701 5.9027,-3.78033 9.2305,-3.25474 12.72956,2.01055 7.31983,11.0147 9.60414,38.07158 4.83877,57.31389 -1.12403,4.53879 -2.36506,7.84152 -4.08168,10.8625 -1.20985,2.12914 -3.31095,4.3344 -4.79286,5.03046 -2.3773,1.11665 -5.59914,0.17878 -9.97499,-2.90364 -1.6942,-1.19341 -6.65393,-5.91814 -8.10729,-7.72314 z m 14.73554,2.48261 c 1.60776,0.59876 3.00351,0.0684 4.56318,-1.73385 3.71231,-4.28971 6.15391,-15.17924 6.23042,-27.78771 0.0682,-11.22963 -1.58223,-20.95721 -4.56549,-26.90959 -1.91909,-3.82908 -4.13546,-5.38407 -6.41082,-4.49775 -1.24648,0.48555 -2.88305,2.35462 -3.93925,4.49889 -4.514,9.16422 -5.82065,27.92602 -2.94428,42.27592 0.72997,3.64175 2.23769,8.2444 3.37471,10.30207 0.983,1.7789 2.56916,3.43404 3.69153,3.85202 z m -5.38756,-21.49678 c -0.58417,-4.02156 -0.75642,-9.63857 -0.43002,-14.02261 0.21341,-2.86623 0.55782,-5.40271 0.76137,-5.60719 0.26186,-0.26307 2.03917,-0.31184 3.07091,-0.0843 1.36859,0.30184 2.6112,1.01656 3.76605,2.16612 1.24157,1.2359 1.97172,2.46242 2.67219,4.4889 0.46144,1.33493 0.55804,2.03797 0.5576,4.05761 -8.8e-4,3.97136 -1.01737,6.52016 -3.53991,8.87625 -1.17954,1.10166 -1.47068,1.28981 -2.59099,1.67414 -1.22888,0.42156 -3.52263,0.51025 -3.88435,0.15019 -0.0875,-0.0871 -0.25973,-0.85169 -0.38285,-1.69914 z m 23.86694,8.53292 c -0.29424,-0.779 -0.0957,-1.80387 0.45686,-2.35902 0.50006,-0.50236 1.51204,-0.79008 2.19934,-0.62529 0.64957,0.15573 0.89222,0.37369 5.2875,4.74886 4.39528,4.37516 4.61436,4.61682 4.77306,5.26567 0.17201,0.70319 -0.11742,1.70212 -0.64746,2.2346 -0.44091,0.44294 -1.64711,0.63127 -2.41917,0.37775 -0.59746,-0.19618 -1.12838,-0.67807 -5.01635,-4.55289 -3.95507,-3.94215 -4.37404,-4.40171 -4.63378,-5.08968 z m 6.43505,-16.48831 c -0.58782,-0.86462 -0.10014,-2.5531 0.91719,-3.17557 0.60073,-0.36756 13.39636,-0.40086 13.99854,-0.0365 1.1044,0.66835 1.51892,2.25931 0.85878,3.29598 -0.67969,1.06736 -1.00621,1.11704 -7.59514,1.1557 -3.46123,0.0203 -6.56676,-0.0598 -6.90116,-0.17802 -0.60223,-0.21287 -0.82949,-0.40165 -1.27821,-1.06168 z m -6.56958,-17.16166 c -0.11961,-0.31406 -0.1837,-0.86635 -0.14242,-1.22735 l 0.0751,-0.65632 4.70911,-4.63529 c 5.2144,-5.13263 5.11132,-5.05801 6.51824,-4.72072 1.32058,0.31656 2.02372,1.63548 1.5599,2.92597 -0.26735,0.74388 -0.49389,0.98699 -4.83104,5.18448 -4.03906,3.90901 -4.61443,4.41747 -5.11915,4.5238 -1.17658,0.24791 -2.37372,-0.35489 -2.7697,-1.39459 z"
         style="fill:#ffffff;stroke-width:0.18061036" />
    </g>
  </g>
</svg>
