<?xml version="1.0" encoding="UTF-8" standalone="no"?>
<svg
   xmlns:dc="http://purl.org/dc/elements/1.1/"
   xmlns:cc="http://creativecommons.org/ns#"
   xmlns:rdf="http://www.w3.org/1999/02/22-rdf-syntax-ns#"
   xmlns:svg="http://www.w3.org/2000/svg"
   xmlns="http://www.w3.org/2000/svg"
   xmlns:sodipodi="http://sodipodi.sourceforge.net/DTD/sodipodi-0.dtd"
   xmlns:inkscape="http://www.inkscape.org/namespaces/inkscape"
   viewBox="0 0 22 22"
   id="svg"
   version="1.1"
   inkscape:version="0.92.2 5c3e80d, 2017-08-06"
   width="100%"
   height="100%"
   sodipodi:docname="xfce-system-lock.svg">
  <defs
     id="defs81">
    <style
       id="current-color-scheme"
       type="text/css">
      .ColorScheme-Text {
        color:#7B7C7E;
      }
      .ColorScheme-Background{
        color:#EFF0F1;
      }
      .ColorScheme-Highlight{
        color:#3DAEE6;
      }
      .ColorScheme-ViewText {
        color:#7B7C7E;
      }
      .ColorScheme-ViewBackground{
        color:#FCFCFC;
      }
      .ColorScheme-ViewHover {
        color:#3DAEE6;
      }
      .ColorScheme-ViewFocus{
        color:#1E92FF;
      }
      .ColorScheme-ButtonText {
        color:#7B7C7E;
      }
      .ColorScheme-ButtonBackground{
        color:#EFF0F1;
      }
      .ColorScheme-ButtonHover {
        color:#3DAEE6;
      }
      .ColorScheme-ButtonFocus{
        color:#1E92FF;
      }
</style>
  </defs>
  <metadata
     id="metadata34">
    <rdf:RDF>
      <cc:Work
         rdf:about="">
        <dc:format>image/svg+xml</dc:format>
        <dc:type
           rdf:resource="http://purl.org/dc/dcmitype/StillImage" />
        <dc:title />
      </cc:Work>
    </rdf:RDF>
  </metadata>
  <sodipodi:namedview
     pagecolor="#ffffff"
     bordercolor="#666666"
     borderopacity="1"
     objecttolerance="10"
     gridtolerance="10"
     guidetolerance="10"
     inkscape:pageopacity="0.06666667"
     inkscape:pageshadow="2"
     inkscape:window-width="1366"
     inkscape:window-height="717"
     id="namedview32"
     showgrid="true"
     inkscape:zoom="5.6568539"
     inkscape:cx="8.8137421"
     inkscape:cy="2.3110179"
     inkscape:window-x="0"
     inkscape:window-y="24"
     inkscape:window-maximized="1"
     inkscape:current-layer="svg"
     borderlayer="true"
     showguides="true"
     inkscape:guide-bbox="true"
     inkscape:snap-bbox="true">
    <inkscape:grid
       type="xygrid"
       id="grid3046"
       empspacing="4"
       visible="true"
       enabled="false"
       snapvisiblegridlinesonly="true" />
  </sodipodi:namedview>
  <g
     transform="matrix(0.16240158,0,0,0.16240158,-75.71144,-1.6231939)"
     id="g923">
    <path
       id="path850"
       d="m 580.74053,24.93699 c 27.03854,23.43536 28,66.06639 2.14757,95.22323 -25.85244,29.15684 -68.72564,33.79466 -95.76417,10.3593 -27.03855,-23.43536 -28,-66.06639 -2.14757,-95.22323 25.85242,-29.15684 68.72562,-33.79466 95.76417,-10.3593 z"
       inkscape:connector-curvature="0"
       style="fill:#3689e6;fill-opacity:1;stroke-width:2.93940401" />
    <path
       id="path852"
       d="m 601.56912,69.50065 c -0.41047,16.22203 -6.65724,32.84923 -18.77652,46.51757 -25.85244,29.15685 -68.72564,33.79466 -95.76418,10.35931 -12.67318,-10.98434 -19.63974,-26.18011 -20.77824,-42.23873 0.16014,17.55686 7.12353,34.46287 20.87162,46.37887 27.03853,23.43536 69.91377,18.79524 95.76417,-10.3593 13.1511,-14.83205 19.31591,-33.14991 18.68315,-50.65772 z"
       inkscape:connector-curvature="0"
       style="opacity:1;fill:#000000;fill-opacity:0.49019608;stroke-width:2.93940401" />
    <path
       style="fill:#000000;fill-opacity:0.49019608;stroke-width:0.58763909"
       d="m 514.69797,105.35986 c -16.75238,-4.50322 -22.39492,-25.234663 -10.18943,-37.440143 10.73336,-10.73336 27.92669,-8.22903 35.48804,5.16882 l 1.8304,3.24481 h 19.33576 19.33627 v 7.34555 7.34554 h -3.82201 -3.82201 v 7.63935 7.639353 h -7.34555 -7.34555 v -7.639353 -7.63935 h -8.21707 -8.21707 l -1.4508,2.86521 c -2.98481,5.89371 -9.32468,10.537323 -16.13098,11.818613 -4.06122,0.7644 -5.51982,0.7124 -9.45468,-0.364 z m 9.97571,-15.447703 c 3.70243,-2.57401 4.34722,-7.70227 1.40921,-11.1946 -2.92761,-3.47881 -7.81875,-3.57241 -11.17172,-0.208 -1.67441,1.6744 -1.99161,2.41281 -1.99161,4.64362 0,4.14961 2.08002,7.1365 5.60666,8.04858 1.72641,0.46801 4.49282,-0.104 6.1459,-1.274 z"
       id="path854"
       inkscape:connector-curvature="0" />
    <path
       inkscape:connector-curvature="0"
       id="path856"
       d="M 509.40619,100.06832 C 492.65381,95.5651 487.01127,74.83366 499.21676,62.62818 509.95012,51.89482 527.14345,54.39915 534.7048,67.797 l 1.8304,3.24481 h 19.33576 19.33627 v 7.34555 7.34554 h -3.82201 -3.82201 v 7.63935 7.63935 h -7.34555 -7.34555 V 93.37225 85.7329 h -8.21707 -8.21707 l -1.4508,2.86521 c -2.98481,5.89371 -9.32468,10.53732 -16.13098,11.81861 -4.06122,0.7644 -5.51982,0.7124 -9.45468,-0.364 z m 9.97571,-15.4477 c 3.70243,-2.57401 4.34722,-7.70227 1.40921,-11.1946 -2.92761,-3.47881 -7.81875,-3.57241 -11.17172,-0.208 -1.67441,1.6744 -1.99161,2.41281 -1.99161,4.64362 0,4.14961 2.08002,7.1365 5.60666,8.04858 1.72641,0.46801 4.49282,-0.104 6.1459,-1.274 z"
       style="fill:#ffffff;stroke-width:0.58763909" />
  </g>
</svg>
