<?xml version="1.0" encoding="UTF-8" standalone="no"?>
<!-- Created with Inkscape (http://www.inkscape.org/) -->

<svg
   xmlns:dc="http://purl.org/dc/elements/1.1/"
   xmlns:cc="http://creativecommons.org/ns#"
   xmlns:rdf="http://www.w3.org/1999/02/22-rdf-syntax-ns#"
   xmlns:svg="http://www.w3.org/2000/svg"
   xmlns="http://www.w3.org/2000/svg"
   xmlns:sodipodi="http://sodipodi.sourceforge.net/DTD/sodipodi-0.dtd"
   xmlns:inkscape="http://www.inkscape.org/namespaces/inkscape"
   width="22"
   height="22"
   viewBox="0 0 22 22"
   id="svg2"
   version="1.1"
   inkscape:version="0.92.2 5c3e80d, 2017-08-06"
   sodipodi:docname="xfpm-ups-060.svg">
  <defs
     id="defs4" />
  <sodipodi:namedview
     id="base"
     pagecolor="#ffffff"
     bordercolor="#666666"
     borderopacity="1.0"
     inkscape:pageopacity="0.0"
     inkscape:pageshadow="2"
     inkscape:zoom="7.919596"
     inkscape:cx="-18.743921"
     inkscape:cy="2.3348734"
     inkscape:document-units="px"
     inkscape:current-layer="layer1"
     showgrid="false"
     units="px"
     inkscape:window-width="1366"
     inkscape:window-height="719"
     inkscape:window-x="0"
     inkscape:window-y="22"
     inkscape:window-maximized="1" />
  <metadata
     id="metadata7">
    <rdf:RDF>
      <cc:Work
         rdf:about="">
        <dc:format>image/svg+xml</dc:format>
        <dc:type
           rdf:resource="http://purl.org/dc/dcmitype/StillImage" />
        <dc:title />
      </cc:Work>
    </rdf:RDF>
  </metadata>
  <g
     inkscape:label="Layer 1"
     inkscape:groupmode="layer"
     id="layer1"
     transform="translate(0,-1030.3622)">
    <g
       id="g1201"
       transform="matrix(0.16240157,0,0,0.16240157,-64.407789,962.17794)">
      <path
         style="fill:#8a715e;fill-opacity:1;stroke-width:2.93940425"
         inkscape:connector-curvature="0"
         d="m 511.13731,434.79152 c 27.03854,23.43536 28,66.06639 2.14757,95.22324 -25.85244,29.15684 -68.72564,33.79466 -95.76418,10.3593 -27.03855,-23.43536 -28,-66.0664 -2.14757,-95.22324 25.85243,-29.15684 68.72563,-33.79466 95.76418,-10.3593 z"
         id="path27-5-9" />
      <rect
         y="-471.41309"
         x="448.95361"
         height="8.8132124"
         width="35.25285"
         id="rect866-9-0"
         style="fill:#7c6655;fill-opacity:1;stroke:none;stroke-width:0.54052812;stroke-miterlimit:4;stroke-dasharray:none;stroke-opacity:1"
         transform="rotate(90)" />
      <path
         inkscape:connector-curvature="0"
         id="rect867-7"
         d="m 402.62807,465.00852 c -11.54795,26.36472 -6.46578,56.85324 14.89263,75.36543 27.03854,23.43536 69.91175,18.79777 95.76419,-10.35908 16.81596,-18.96533 22.28244,-43.63021 16.61139,-65.00635 z"
         style="fill:#68b723;fill-opacity:1;stroke:none;stroke-width:0.72560298;stroke-miterlimit:4;stroke-dasharray:none;stroke-opacity:1" />
      <path
         style="opacity:0.1;stroke-width:2.93940425"
         inkscape:connector-curvature="0"
         d="m 531.9659,479.35518 c -0.41047,16.22203 -6.65724,32.84923 -18.77652,46.51757 -25.85244,29.15685 -68.72564,33.79466 -95.76419,10.35931 -12.67318,-10.98433 -19.63974,-26.18011 -20.77824,-42.23872 0.16014,17.55685 7.12353,34.46286 20.87162,46.37886 27.03854,23.43536 69.91378,18.79524 95.76418,-10.3593 13.1511,-14.83205 19.31591,-33.14991 18.68315,-50.65772 z"
         id="path51-6-3" />
      <rect
         style="fill:#5ea520;fill-opacity:1;stroke:none;stroke-width:0.54052812;stroke-miterlimit:4;stroke-dasharray:none;stroke-opacity:1"
         id="rect864-2-6"
         width="35.25285"
         height="8.8132124"
         x="449.38004"
         y="462.17343" />
      <rect
         y="522.69043"
         x="449.38004"
         height="8.8132124"
         width="35.25285"
         id="rect868-1-6"
         style="fill:#5ea520;fill-opacity:1;stroke:none;stroke-width:0.54052812;stroke-miterlimit:4;stroke-dasharray:none;stroke-opacity:1" />
      <path
         id="rect1137"
         transform="matrix(0.26458333,0,0,0.26458333,0,161.53332)"
         d="m 1748.4082,1146.9922 v 72.5605 h 33.3106 v -72.5605 z"
         style="fill:#5ea520;fill-opacity:1;stroke:none;stroke-width:2.04294086;stroke-miterlimit:4;stroke-dasharray:none;stroke-opacity:1"
         inkscape:connector-curvature="0" />
      <path
         id="rect1142"
         transform="matrix(0.26458333,0,0,0.26458333,0,161.53332)"
         d="m 1698.4434,1136.2773 v 10.7149 h 133.2402 v -10.7149 z"
         style="fill:#7c6655;fill-opacity:1;stroke:none;stroke-width:2.04294086;stroke-miterlimit:4;stroke-dasharray:none;stroke-opacity:1"
         inkscape:connector-curvature="0" />
      <rect
         y="459.52762"
         x="446.73422"
         height="8.8132124"
         width="35.25285"
         id="rect858-2-2"
         style="fill:#ffffff;fill-opacity:1;stroke:none;stroke-width:0.54052812;stroke-miterlimit:4;stroke-dasharray:none;stroke-opacity:1" />
      <rect
         transform="rotate(90)"
         style="fill:#ffffff;fill-opacity:1;stroke:none;stroke-width:0.54052812;stroke-miterlimit:4;stroke-dasharray:none;stroke-opacity:1"
         id="rect860-7-6"
         width="35.25285"
         height="8.8132124"
         x="446.3078"
         y="-468.76727" />
      <rect
         style="fill:#ffffff;fill-opacity:1;stroke:none;stroke-width:0.54052812;stroke-miterlimit:4;stroke-dasharray:none;stroke-opacity:1"
         id="rect862-0-1"
         width="35.25285"
         height="8.8132124"
         x="446.73422"
         y="520.04462" />
    </g>
  </g>
</svg>
