<?xml version="1.0" encoding="UTF-8" standalone="no"?>
<!-- Created with Inkscape (http://www.inkscape.org/) -->

<svg
   xmlns:dc="http://purl.org/dc/elements/1.1/"
   xmlns:cc="http://creativecommons.org/ns#"
   xmlns:rdf="http://www.w3.org/1999/02/22-rdf-syntax-ns#"
   xmlns:svg="http://www.w3.org/2000/svg"
   xmlns="http://www.w3.org/2000/svg"
   xmlns:sodipodi="http://sodipodi.sourceforge.net/DTD/sodipodi-0.dtd"
   xmlns:inkscape="http://www.inkscape.org/namespaces/inkscape"
   width="22"
   height="22"
   viewBox="0 0 22 22"
   id="svg2"
   version="1.1"
   inkscape:version="0.92.2 5c3e80d, 2017-08-06"
   sodipodi:docname="xfpm-phone-080.svg">
  <defs
     id="defs4" />
  <sodipodi:namedview
     id="base"
     pagecolor="#ffffff"
     bordercolor="#666666"
     borderopacity="1.0"
     inkscape:pageopacity="0.0"
     inkscape:pageshadow="2"
     inkscape:zoom="15.839192"
     inkscape:cx="9.9256648"
     inkscape:cy="8.9732564"
     inkscape:document-units="px"
     inkscape:current-layer="layer1"
     showgrid="false"
     units="px"
     inkscape:window-width="1366"
     inkscape:window-height="717"
     inkscape:window-x="0"
     inkscape:window-y="24"
     inkscape:window-maximized="1" />
  <metadata
     id="metadata7">
    <rdf:RDF>
      <cc:Work
         rdf:about="">
        <dc:format>image/svg+xml</dc:format>
        <dc:type
           rdf:resource="http://purl.org/dc/dcmitype/StillImage" />
        <dc:title />
      </cc:Work>
    </rdf:RDF>
  </metadata>
  <g
     inkscape:label="Layer 1"
     inkscape:groupmode="layer"
     id="layer1"
     transform="translate(0,-1030.3622)">
    <g
       transform="matrix(0.16240153,0,0,0.16240153,-24.892815,918.98056)"
       id="g1748">
      <path
         style="fill:#8a715e;fill-opacity:1;stroke-width:2.93940401"
         inkscape:connector-curvature="0"
         d="m 267.8211,700.78306 c 27.03854,23.43536 28,66.06639 2.14756,95.22323 -25.85244,29.15684 -68.72564,33.79466 -95.76418,10.3593 -27.03855,-23.43536 -28,-66.06639 -2.14757,-95.22323 25.85243,-29.15684 68.72563,-33.79466 95.76419,-10.3593 z"
         id="path4526" />
      <path
         style="fill:#68b723;fill-opacity:1;stroke:none;stroke-width:0.81124896;stroke-miterlimit:4;stroke-dasharray:none;stroke-opacity:1"
         d="m 174.58717,708.42303 c -0.85994,0.88162 -1.70385,1.78737 -2.53008,2.7192 -25.85243,29.15685 -24.89141,71.78779 2.14715,95.22312 27.03853,23.43536 69.91175,18.7978 95.76419,-10.35904 23.24698,-26.21839 24.80797,-63.32895 5.22759,-87.58328 z"
         id="path4528"
         inkscape:connector-curvature="0" />
      <path
         style="opacity:1;fill:#000000;fill-opacity:0.49019608;stroke-width:2.93940401"
         inkscape:connector-curvature="0"
         d="m 288.64968,745.34672 c -0.41046,16.22203 -6.65724,32.84923 -18.77652,46.51757 -25.85244,29.15685 -68.72564,33.79466 -95.76419,10.35931 -12.67318,-10.98434 -19.63973,-26.18011 -20.77824,-42.23873 0.16014,17.55686 7.12353,34.46287 20.87162,46.37887 27.03854,23.43536 69.91378,18.79524 95.76418,-10.3593 13.1511,-14.83205 19.31591,-33.14991 18.68315,-50.65772 z"
         id="path4530" />
      <path
         inkscape:connector-curvature="0"
         id="path4701"
         d="m 185.75831,777.88356 c -0.6522,-1.3325 -0.8681,-2.74671 -0.642,-4.20465 0.3628,-2.33922 -1.0663,-0.79713 25.5605,-27.58023 l 24.2634,-24.4063 1.1599,-0.40084 c 1.4823,-0.51222 3.5883,-0.52197 4.9643,-0.0228 1.0759,0.39019 1.086,0.39972 13.4219,12.62229 l 12.3453,12.23183 0.3781,1.10809 c 0.5112,1.49839 0.491,3.44692 -0.052,4.98089 l -0.4489,1.26926 -24.3858,24.61185 -24.3857,24.61185 -1.2983,0.4762 c -1.5321,0.56213 -3.4325,0.59353 -4.9603,0.082 l -1.0982,-0.36775 -12.1451,-11.96194 c -11.3387,-11.16756 -12.1805,-12.0342 -12.6776,-13.0499 z m 16.4214,10.90232 c 1.3885,0.61928 3.6397,0.1863 4.7246,-0.90869 1.0849,-1.09499 1.4971,-3.3501 0.865,-4.73282 -0.593,-1.29719 -2.315,-2.46701 -3.7264,-2.53143 -1.0161,-0.0463 -2.2758,0.51033 -3.1489,1.39156 -2.0144,2.03304 -1.3358,5.61214 1.2857,6.78138 z m 38.3987,-15.69419 18.6205,-18.79308 -12.5813,-12.46556 -12.581,-12.46552 -18.6204,18.79308 -18.6205,18.79307 12.5812,12.46551 12.5811,12.46557 z"
         style="fill:#000000;fill-opacity:0.49019608;stroke-width:0.22138588" />
      <path
         style="fill:#ffffff;stroke-width:0.22138588"
         d="m 180.46659,772.59199 c -0.6522,-1.3325 -0.8681,-2.74671 -0.642,-4.20465 0.3628,-2.33922 -1.0663,-0.79713 25.5605,-27.58023 l 24.2634,-24.4063 1.1599,-0.40084 c 1.4823,-0.51222 3.5883,-0.52197 4.9643,-0.0228 1.0759,0.39019 1.086,0.39972 13.4219,12.62229 l 12.3453,12.23183 0.3781,1.10809 c 0.5112,1.49839 0.491,3.44692 -0.052,4.98089 l -0.4489,1.26926 -24.3858,24.61185 -24.3857,24.61185 -1.2983,0.4762 c -1.5321,0.56213 -3.4325,0.59353 -4.9603,0.082 l -1.0982,-0.36775 -12.1451,-11.96194 c -11.3387,-11.16756 -12.1805,-12.0342 -12.6776,-13.0499 z m 16.4214,10.90232 c 1.3885,0.61928 3.6397,0.1863 4.7246,-0.90869 1.0849,-1.09499 1.4971,-3.3501 0.865,-4.73282 -0.593,-1.29719 -2.315,-2.46701 -3.7264,-2.53143 -1.0161,-0.0463 -2.2758,0.51033 -3.1489,1.39156 -2.0144,2.03304 -1.3358,5.61214 1.2857,6.78138 z m 38.3987,-15.69419 18.6205,-18.79308 -12.5813,-12.46556 -12.581,-12.46552 -18.6204,18.79308 -18.6205,18.79307 12.5812,12.46551 12.5811,12.46557 z"
         id="path4703"
         inkscape:connector-curvature="0" />
    </g>
  </g>
</svg>
