<?xml version="1.0" encoding="UTF-8" standalone="no"?>
<!-- Created with Inkscape (http://www.inkscape.org/) -->

<svg
   xmlns:dc="http://purl.org/dc/elements/1.1/"
   xmlns:cc="http://creativecommons.org/ns#"
   xmlns:rdf="http://www.w3.org/1999/02/22-rdf-syntax-ns#"
   xmlns:svg="http://www.w3.org/2000/svg"
   xmlns="http://www.w3.org/2000/svg"
   xmlns:sodipodi="http://sodipodi.sourceforge.net/DTD/sodipodi-0.dtd"
   xmlns:inkscape="http://www.inkscape.org/namespaces/inkscape"
   id="svg2"
   version="1.1"
   inkscape:version="0.92.2 5c3e80d, 2017-08-06"
   width="22"
   height="22"
   sodipodi:docname="zim-panel.svg">
  <metadata
     id="metadata8">
    <rdf:RDF>
      <cc:Work
         rdf:about="">
        <dc:format>image/svg+xml</dc:format>
        <dc:type
           rdf:resource="http://purl.org/dc/dcmitype/StillImage" />
        <dc:title />
      </cc:Work>
    </rdf:RDF>
  </metadata>
  <defs
     id="defs6" />
  <sodipodi:namedview
     pagecolor="#ffffff"
     bordercolor="#666666"
     borderopacity="1"
     objecttolerance="10"
     gridtolerance="10"
     guidetolerance="10"
     inkscape:pageopacity="0"
     inkscape:pageshadow="2"
     inkscape:window-width="1366"
     inkscape:window-height="717"
     id="namedview4"
     showgrid="false"
     inkscape:zoom="2.828427"
     inkscape:cx="-41.266963"
     inkscape:cy="-34.259784"
     inkscape:window-x="0"
     inkscape:window-y="24"
     inkscape:window-maximized="1"
     inkscape:current-layer="svg2" />
  <g
     transform="matrix(0.16240158,0,0,0.16240158,-6.4278092e-7,-26.233229)"
     id="g915">
    <path
       style="fill:#3689e6;fill-opacity:1;stroke-width:2.93940377"
       inkscape:connector-curvature="0"
       d="m 114.54164,176.47539 c 27.03854,23.43536 28,66.06638 2.14757,95.22322 -25.85243,29.15684 -68.725635,33.79466 -95.764176,10.3593 -27.0385417,-23.43536 -27.9999994,-66.06638 -2.14757,-95.22322 25.852429,-29.15684 68.725634,-33.79466 95.764176,-10.3593 z"
       id="path27" />
    <g
       id="g899">
      <path
         sodipodi:nodetypes="ccscsssccc"
         inkscape:connector-curvature="0"
         id="path877"
         d="m 81.62639,206.99474 c -5.367475,-3.04805 -9.798211,-5.66251 -9.846101,-5.81001 -0.04793,-0.14791 0.193511,-0.61355 0.536311,-1.03674 l 0.334443,-0.57658 1.769478,0.54234 c 2.099829,0.64368 17.95868,10.04985 18.385945,10.43195 0.262269,0.2342 0.219269,0.48619 -0.199814,1.16548 -0.293769,0.47661 -0.688744,0.85734 -0.877742,0.84638 -0.188998,-0.0115 -4.735143,-2.51462 -10.102599,-5.56267 z"
         style="fill:#317ccf;fill-opacity:1;fill-rule:nonzero;stroke:#317ccf;stroke-width:4.14191055;stroke-linecap:round;stroke-linejoin:miter;stroke-miterlimit:4;stroke-dasharray:none;stroke-opacity:1" />
      <path
         sodipodi:nodetypes="sssssscsssssssscs"
         inkscape:connector-curvature="0"
         id="path879"
         d="m 64.894826,254.03653 c -2.123601,-1.24765 -5.559102,-3.26376 -7.634454,-4.48142 -2.075339,-1.21753 -4.326184,-2.54995 -5.001877,-2.96014 -0.675732,-0.41086 -2.304846,-1.35036 -3.620335,-2.08978 -1.315447,-0.73956 -2.930824,-0.9532 -3.134667,-1.12302 -0.369777,-0.30815 0.02739,-0.882 11.300053,-20.39991 6.214143,-10.75915 11.264487,-19.27511 11.367352,-19.30948 0.201184,-0.0685 4.816985,2.70389 5.478768,3.10242 0.258433,0.15613 1.244914,0.61767 2.16196,1.09291 0.917046,0.47522 3.12457,1.47855 4.841821,2.4849 1.717251,1.00661 4.836861,2.83057 6.932441,4.05412 2.095581,1.22301 3.834969,2.3452 3.86531,2.4927 0.03011,0.14791 -2.228696,4.24039 -5.02007,9.09542 -2.791391,4.85504 -7.752276,13.48412 -11.024204,19.17567 -3.271938,5.69155 -6.106936,10.52508 -6.299981,10.74106 l -0.351018,0.39306 z"
         style="fill:#317ccf;fill-opacity:1;stroke-width:0.19264705" />
      <path
         inkscape:connector-curvature="0"
         id="path881"
         d="m 93.157054,206.50619 c -1.882291,-1.08468 -6.976311,-4.01017 -11.320055,-6.50164 -4.343743,-2.49161 -8.032603,-4.657 -8.197468,-4.81203 -0.281583,-0.26432 -0.267062,-0.33828 0.237065,-1.2093 0.499473,-0.86282 0.660668,-0.98607 2.318062,-1.78342 2.187139,-1.05182 3.532126,-1.40488 5.85643,-1.53719 7.701059,-0.43824 14.427418,4.90079 15.753424,12.50477 0.396617,2.27413 0.353749,2.91384 -0.268572,4.0166 -0.294445,0.52179 -0.629985,1.02579 -0.745853,1.12028 -0.147771,0.12326 -1.232052,-0.41634 -3.633033,-1.79903 z"
         style="fill:#317ccf;fill-opacity:1;stroke-width:0.19264705" />
      <path
         inkscape:connector-curvature="0"
         id="path883"
         d="m 43.141417,272.18854 c -0.0084,-0.58891 -0.0945,-2.56448 -0.192558,-4.3909 -0.09724,-1.82656 -0.115042,-3.3903 -0.03972,-3.47494 0.153663,-0.17257 8.045729,4.28612 8.152211,4.60564 0.05204,0.15612 -6.696139,3.88402 -7.704589,4.25654 -0.109563,0.0411 -0.206664,-0.40813 -0.215019,-0.99703 z"
         style="fill:#317ccf;fill-opacity:1;stroke-width:0.19264705" />
      <path
         inkscape:connector-curvature="0"
         id="path885"
         d="m 50.592902,264.72368 c -0.695728,-0.42183 -2.07475,-1.27916 -3.064382,-1.9049 l -1.799335,-1.13673 -0.164893,-4.75888 c -0.09039,-2.61734 -0.235835,-5.91082 -0.322527,-7.31885 -0.141474,-2.29782 -0.113672,-2.55995 0.2698,-2.55995 0.453045,0 2.31772,1.03127 11.659627,6.44589 6.647002,3.85308 8.032558,4.74068 7.851496,5.02979 -0.206389,0.33006 -12.746383,7.04069 -13.059447,6.98906 -0.05752,-0.009 -0.674501,-0.36293 -1.370284,-0.78475 z"
         style="fill:#317ccf;fill-opacity:1;fill-rule:nonzero;stroke:#317ccf;stroke-width:4.14191055;stroke-linecap:round;stroke-linejoin:miter;stroke-miterlimit:4;stroke-dasharray:none;stroke-opacity:1" />
    </g>
    <path
       style="opacity:0.1;stroke-width:2.93940377"
       inkscape:connector-curvature="0"
       d="m 135.37023,221.03904 c -0.41047,16.22204 -6.65724,32.84924 -18.77652,46.51758 C 90.741279,296.71347 47.868074,301.35128 20.829532,277.91593 8.156347,266.93158 1.189788,251.73582 0.05128753,235.67719 c 0.1601395,17.55687 7.12353137,34.46287 20.87161747,46.37888 27.038541,23.43535 69.913781,18.79524 95.764175,-10.35931 13.1511,-14.83204 19.31591,-33.1499 18.68315,-50.65772 z"
       id="path51" />
    <g
       transform="matrix(0.87791762,0,0,0.87791762,0.08216737,31.816923)"
       id="g875">
      <path
         style="fill:#ffffff;fill-opacity:1;fill-rule:nonzero;stroke:#f7f7f7;stroke-width:4.71788073;stroke-linecap:round;stroke-linejoin:miter;stroke-miterlimit:4;stroke-dasharray:none;stroke-opacity:1"
         d="m 89.869923,196.52412 c -6.11387,-3.47191 -11.16074,-6.44994 -11.21529,-6.61795 -0.0546,-0.16848 0.22042,-0.69887 0.61089,-1.18091 l 0.38095,-0.65676 2.01554,0.61776 c 2.39183,0.73319 20.455997,11.44737 20.942677,11.88261 0.29874,0.26676 0.24976,0.5538 -0.2276,1.32755 -0.33462,0.54288 -0.78452,0.97656 -0.9998,0.96408 -0.21528,-0.0131 -5.393607,-2.8643 -11.507457,-6.33622 z"
         id="path3811"
         inkscape:connector-curvature="0"
         sodipodi:nodetypes="ccscsssccc" />
      <path
         style="fill:#ffffff;stroke-width:0.21943636"
         d="m 70.811684,250.10749 c -2.418907,-1.42115 -6.332145,-3.71761 -8.696094,-5.1046 -2.363933,-1.38684 -4.927779,-2.90455 -5.697433,-3.37177 -0.769699,-0.468 -2.625356,-1.53815 -4.123775,-2.38039 -1.498372,-0.8424 -3.338382,-1.08575 -3.570571,-1.27919 -0.421198,-0.351 0.0312,-1.00464 12.871428,-23.2367 7.078275,-12.2553 12.830915,-21.95548 12.948085,-21.99463 0.22916,-0.078 5.48683,3.07989 6.24064,3.53384 0.29437,0.17784 1.41803,0.70356 2.4626,1.24488 1.04457,0.54131 3.55907,1.68416 5.51512,2.83045 1.95605,1.14659 5.50947,3.22419 7.89646,4.61788 2.38699,1.39308 4.368256,2.67133 4.402816,2.83934 0.0343,0.16848 -2.538616,4.83005 -5.718156,10.36022 -3.17956,5.53017 -8.8303,15.35921 -12.55722,21.84222 -3.72693,6.48301 -6.95616,11.98869 -7.17605,12.2347 l -0.39983,0.44772 z"
         id="path3037"
         inkscape:connector-curvature="0"
         sodipodi:nodetypes="sssssscsssssssscs" />
      <path
         style="fill:#ffffff;stroke-width:0.21943636"
         d="m 103.00403,195.96763 c -2.14404,-1.23552 -7.94643,-4.56782 -12.89421,-7.40575 -4.94778,-2.83809 -9.14961,-5.3046 -9.3374,-5.48119 -0.32074,-0.30108 -0.3042,-0.38532 0.27003,-1.37747 0.56893,-0.9828 0.75254,-1.12319 2.64041,-2.03142 2.49128,-1.19808 4.0233,-1.60024 6.67082,-1.75094 8.77196,-0.49919 16.43368,5.58228 17.94408,14.24366 0.45177,2.59037 0.40294,3.31904 -0.30592,4.57515 -0.33539,0.59435 -0.71759,1.16843 -0.84957,1.27607 -0.16832,0.1404 -1.40338,-0.47424 -4.13824,-2.04921 z"
         id="path2992"
         inkscape:connector-curvature="0" />
      <path
         style="fill:#ffffff;stroke-width:0.21943636"
         d="m 46.033267,270.7837 c -0.0096,-0.6708 -0.10764,-2.92109 -0.219335,-5.00149 -0.110759,-2.08056 -0.131039,-3.86176 -0.04524,-3.95817 0.175031,-0.19656 9.164561,4.88215 9.28585,5.2461 0.05928,0.17783 -7.627298,4.42413 -8.775982,4.84845 -0.124799,0.0468 -0.235403,-0.46488 -0.244919,-1.13567 z"
         id="path3007"
         inkscape:connector-curvature="0" />
      <path
         style="fill:#ffffff;fill-opacity:1;fill-rule:nonzero;stroke:#ffffff;stroke-width:4.71788073;stroke-linecap:round;stroke-linejoin:miter;stroke-miterlimit:4;stroke-dasharray:none;stroke-opacity:1"
         d="m 54.520949,262.28078 c -0.792476,-0.48048 -2.363263,-1.45703 -3.490513,-2.16979 l -2.049548,-1.2948 -0.187823,-5.42065 c -0.102959,-2.9813 -0.26863,-6.73277 -0.367378,-8.3366 -0.161147,-2.61735 -0.129479,-2.91593 0.307319,-2.91593 0.516045,0 2.64002,1.17467 13.281003,7.34225 7.571328,4.38888 9.149558,5.39991 8.943318,5.72923 -0.23509,0.37595 -14.518883,8.01976 -14.875482,7.96095 -0.06552,-0.0108 -0.768296,-0.4134 -1.560834,-0.89388 z"
         id="path3041"
         inkscape:connector-curvature="0" />
    </g>
  </g>
</svg>
