<?xml version="1.0" encoding="UTF-8" standalone="no"?>
<svg
   xmlns:dc="http://purl.org/dc/elements/1.1/"
   xmlns:cc="http://creativecommons.org/ns#"
   xmlns:rdf="http://www.w3.org/1999/02/22-rdf-syntax-ns#"
   xmlns:svg="http://www.w3.org/2000/svg"
   xmlns="http://www.w3.org/2000/svg"
   xmlns:sodipodi="http://sodipodi.sourceforge.net/DTD/sodipodi-0.dtd"
   xmlns:inkscape="http://www.inkscape.org/namespaces/inkscape"
   viewBox="0 0 64 64"
   version="1.1"
   id="svg8"
   sodipodi:docname="acrobat.svg"
   width="64"
   height="64"
   inkscape:version="0.92.2 5c3e80d, 2017-08-06">
  <metadata
     id="metadata14">
    <rdf:RDF>
      <cc:Work
         rdf:about="">
        <dc:format>image/svg+xml</dc:format>
        <dc:type
           rdf:resource="http://purl.org/dc/dcmitype/StillImage" />
        <dc:title></dc:title>
      </cc:Work>
    </rdf:RDF>
  </metadata>
  <defs
     id="defs12" />
  <sodipodi:namedview
     pagecolor="#ffffff"
     bordercolor="#666666"
     borderopacity="1"
     objecttolerance="10"
     gridtolerance="10"
     guidetolerance="10"
     inkscape:pageopacity="0"
     inkscape:pageshadow="2"
     inkscape:window-width="1366"
     inkscape:window-height="717"
     id="namedview10"
     showgrid="false"
     inkscape:zoom="5.2149125"
     inkscape:cx="50.497195"
     inkscape:cy="34.426669"
     inkscape:window-x="0"
     inkscape:window-y="24"
     inkscape:window-maximized="1"
     inkscape:current-layer="svg8" />
  <g
     id="g67"
     transform="matrix(0.125,0,0,0.125,-3.7223198e-7,55.999997)">
    <path
       style="fill:#c6262e;fill-opacity:1;stroke-width:11.10955811"
       inkscape:connector-curvature="0"
       d="m 432.91326,-391.52603 c 102.19291,88.57459 105.82678,249.69971 8.1168,359.89879 C 343.32009,78.57182 181.27965,96.10062 79.086742,7.52601 -23.106206,-81.04857 -26.740033,-242.17369 70.969942,-352.37277 168.67991,-462.57185 330.72036,-480.10062 432.91326,-391.52603 Z"
       id="path925" />
    <path
       style="opacity:1;fill:#000000;fill-opacity:0.49019608;stroke-width:11.10955811"
       inkscape:connector-curvature="0"
       d="m 511.6355,-223.09648 c -1.55139,61.31164 -25.16123,124.1546 -70.96638,175.81447 C 342.95915,62.91712 180.9187,80.44582 78.725752,-8.12871 30.827122,-49.64436 4.4968188,-107.07716 0.19382586,-167.77119 0.79907986,-101.41452 27.117402,-37.51782 79.078692,7.51911 181.2716,96.09362 343.31975,78.55622 441.02201,-31.63423 490.72696,-87.69234 514.02703,-156.9252 511.6355,-223.09648 Z"
       id="path929" />
    <path
       d="m 218.54605,-327.91982 c -15.21248,-0.26607 -28.341,14.86437 -25.12479,29.98076 2.16482,23.09824 17.0585,41.84217 28.68089,60.9156 1.30688,7.10286 -2.43908,14.01695 -2.68993,21.06818 -7.57752,41.39799 -19.13777,82.57336 -36.92301,120.56062 -22.00704,10.13152 -46.93023,20.136394 -59.79972,41.972284 -8.16945,15.15047 3.33342,35.59746 20.21846,37.19502 15.66488,2.1427 27.29195,-11.28124 35.85522,-22.52857 8.94066,-12.09832 14.82453,-26.5045 22.26375,-39.50643 45.01975,-18.130874 92.38368,-30.802244 140.73217,-35.613764 19.54916,13.99119 40.26116,30.49769 65.32963,31.49521 14.57134,-0.21692 26.36253,-14.36159 24.76618,-28.72783 -0.93885,-13.08051 -12.55893,-22.25328 -24.59732,-24.70764 -19.41567,-5.8486 -40.21422,-2.64539 -59.9639,-2.50347 -38.00602,-30.36878 -73.0912,-65.30977 -100.72778,-105.28848 2.05114,-24.30538 6.16985,-51.19074 -6.48632,-73.3021 -4.80553,-6.9739 -12.95153,-11.75602 -21.5347,-11.00353 m 0.72434,22.07387 c 4.2793,0.82513 4.56411,7.19895 5.76199,10.60737 1.12753,6.94694 1.00446,14.03571 0.92241,21.05183 -5.09621,-9.52556 -11.71615,-19.47655 -10.53703,-30.76724 1.34321,-0.0528 2.53288,-0.73372 3.85263,-0.88961 m 23.58235,94.78652 c 22.65171,28.16508 47.81284,54.10334 75.27125,77.6154 -36.20685,5.52176 -72.17694,14.77179 -106.62451,27.25093 13.21175,-34.52957 23.27057,-70.20321 29.89869,-106.61284 0.48291,0.58252 0.96579,1.16399 1.4487,1.74651 m 141.29477,94.68105 c 8.78247,0.84722 18.91743,0.33865 25.94995,6.39129 0.65992,5.4631 -6.02332,6.26016 -9.58178,4.28278 -7.42507,-2.47905 -14.77061,-5.59557 -21.07404,-10.34485 1.57062,-0.0969 3.13526,-0.29883 4.71171,-0.32922 m -219.47278,57.455504 c -4.17612,7.7673 -10.25572,15.09061 -16.59553,20.59129 -2.10975,3.41543 -7.89984,-2.89975 -5.23569,-5.56747 5.50058,-8.61021 15.10463,-13.17429 23.60575,-18.31745 -0.59307,1.09827 -1.18379,2.19642 -1.77804,3.2947"
       inkscape:connector-curvature="0"
       id="path61"
       style="fill:#651317;fill-opacity:1;stroke-width:1.12642467" />
    <path
       style="fill:#ffffff;fill-opacity:1;stroke-width:1.12642467"
       id="path70"
       inkscape:connector-curvature="0"
       d="m 198.54605,-347.91982 c -15.21248,-0.26607 -28.341,14.86437 -25.12479,29.98076 2.16482,23.09824 17.0585,41.84217 28.68089,60.9156 1.30688,7.10286 -2.43908,14.01695 -2.68993,21.06818 -7.57752,41.39799 -19.13777,82.57336 -36.92301,120.56062 -22.00704,10.13152 -46.93023,20.136394 -59.79972,41.972284 -8.169447,15.15047 3.33342,35.59746 20.21846,37.19502 15.66488,2.1427 27.29195,-11.28124 35.85522,-22.52857 8.94066,-12.09832 14.82453,-26.5045 22.26375,-39.50643 45.01975,-18.130874 92.38368,-30.802244 140.73217,-35.613764 19.54916,13.99119 40.26116,30.49769 65.32963,31.49521 14.57134,-0.21692 26.36253,-14.36159 24.76618,-28.72783 -0.93885,-13.08051 -12.55893,-22.25328 -24.59732,-24.70764 -19.41567,-5.8486 -40.21422,-2.64539 -59.9639,-2.50347 -38.00602,-30.36878 -73.0912,-65.30977 -100.72778,-105.28848 2.05114,-24.30538 6.16985,-51.19074 -6.48632,-73.3021 -4.80553,-6.9739 -12.95153,-11.75602 -21.5347,-11.00353 m 0.72434,22.07387 c 4.2793,0.82513 4.56411,7.19895 5.76199,10.60737 1.12753,6.94694 1.00446,14.03571 0.92241,21.05183 -5.09621,-9.52556 -11.71615,-19.47655 -10.53703,-30.76724 1.34321,-0.0528 2.53288,-0.73372 3.85263,-0.88961 m 23.58235,94.78652 c 22.65171,28.16508 47.81284,54.10334 75.27125,77.6154 -36.20685,5.52176 -72.17694,14.77179 -106.62451,27.25093 13.21175,-34.52957 23.27057,-70.20321 29.89869,-106.61284 0.48291,0.58252 0.96579,1.16399 1.4487,1.74651 m 141.29477,94.68105 c 8.78247,0.84722 18.91743,0.33865 25.94995,6.39129 0.65992,5.4631 -6.02332,6.26016 -9.58178,4.28278 -7.42507,-2.47905 -14.77061,-5.59557 -21.07404,-10.34485 1.57062,-0.0969 3.13526,-0.29883 4.71171,-0.32922 m -219.47278,57.455504 c -4.17612,7.7673 -10.25572,15.09061 -16.59553,20.59129 -2.10975,3.41543 -7.89984,-2.89975 -5.23569,-5.56747 5.50058,-8.61021 15.10463,-13.17429 23.60575,-18.31745 -0.59307,1.09827 -1.18379,2.19642 -1.77804,3.2947" />
  </g>
</svg>
