<?xml version="1.0" encoding="UTF-8" standalone="no"?>
<svg
   xmlns:dc="http://purl.org/dc/elements/1.1/"
   xmlns:cc="http://creativecommons.org/ns#"
   xmlns:rdf="http://www.w3.org/1999/02/22-rdf-syntax-ns#"
   xmlns:svg="http://www.w3.org/2000/svg"
   xmlns="http://www.w3.org/2000/svg"
   xmlns:sodipodi="http://sodipodi.sourceforge.net/DTD/sodipodi-0.dtd"
   xmlns:inkscape="http://www.inkscape.org/namespaces/inkscape"
   viewBox="0 0 64 64"
   version="1.1"
   id="svg6"
   sodipodi:docname="action-unavailable-symbolic.svg.svg"
   width="64"
   height="64"
   inkscape:version="0.92.2 5c3e80d, 2017-08-06">
  <metadata
     id="metadata10">
    <rdf:RDF>
      <cc:Work
         rdf:about="">
        <dc:format>image/svg+xml</dc:format>
        <dc:type
           rdf:resource="http://purl.org/dc/dcmitype/StillImage" />
        <dc:title></dc:title>
      </cc:Work>
    </rdf:RDF>
  </metadata>
  <sodipodi:namedview
     pagecolor="#ffffff"
     bordercolor="#666666"
     borderopacity="1"
     objecttolerance="10"
     gridtolerance="10"
     guidetolerance="10"
     inkscape:pageopacity="0"
     inkscape:pageshadow="2"
     inkscape:window-width="1366"
     inkscape:window-height="717"
     id="namedview8"
     showgrid="false"
     inkscape:zoom="3.6875"
     inkscape:cx="91.322093"
     inkscape:cy="43.811891"
     inkscape:window-x="0"
     inkscape:window-y="24"
     inkscape:window-maximized="1"
     inkscape:current-layer="svg6" />
  <defs
     id="defs3051">
    <style
       type="text/css"
       id="current-color-scheme">
      .ColorScheme-Text {
        color:#4d4d4d;
      }
      </style>
  </defs>
  <g
     id="g58"
     transform="matrix(0.125,0,0,0.125,2.5707576e-6,56.00004)">
    <path
       style="fill:#c6262e;fill-opacity:1;stroke-width:11.10955811"
       inkscape:connector-curvature="0"
       d="m 432.91316,-391.52598 c 102.19314,88.57459 105.82678,249.6997 8.11692,359.898785 C 343.32022,78.571887 181.27977,96.100656 79.086639,7.5260657 -23.106118,-81.048524 -26.740134,-242.17364 70.970104,-352.37272 168.67996,-462.5718 330.72041,-480.10057 432.91316,-391.52598 Z"
       id="path27" />
    <path
       style="opacity:1;fill:#000000;fill-opacity:0.49019608;stroke-width:11.10955811"
       inkscape:connector-curvature="0"
       d="m 511.63543,-223.09644 c -1.55112,61.31165 -25.16107,124.154612 -70.9663,175.81448 C 342.95927,62.917159 180.91883,80.44589 78.725694,-8.128662 30.826985,-49.644316 4.496906,-107.07711 0.19391381,-167.77115 0.79901618,-101.41447 27.117379,-37.517777 79.078702,7.5191114 181.27146,96.093664 343.31984,78.55624 441.02214,-31.634187 490.72708,-87.692291 514.02712,-156.92515 511.63543,-223.09644 Z"
       id="path51" />
    <path
       style="fill:#651317;fill-opacity:1;stroke-width:0.60946941"
       d="M 261.088,-16.711154 C 181.36835,-24.342324 120,-91.90733 120,-172.04551 c 0,-41.34976 16.40788,-80.84845 45.83393,-110.33604 60.72878,-60.8558 159.56014,-60.82512 220.45369,0.0684 41.70929,41.70929 56.29492,102.97358 37.86025,159.02516 C 401.4095,-54.150716 333.51976,-9.777624 261.088,-16.711154 Z m 33.21608,-49.615773 c 9.11101,-1.604867 19.12698,-4.882941 27.73086,-9.075901 4.3577,-2.123654 8.47162,-4.291872 9.14204,-4.818262 1.17086,-0.91931 -1.67758,-3.85473 -72.22141,-74.42657 -40.39219,-40.40823 -73.71493,-73.38976 -74.05053,-73.2923 -0.3356,0.0975 -2.59211,4.14292 -5.01448,8.98991 -4.74388,9.49219 -7.82856,18.7156 -9.67375,28.92519 -1.54002,8.52104 -1.54002,27.43766 0,35.9587 3.85615,21.33636 13.52276,40.38508 28.40058,55.96527 17.37412,18.194339 40.04519,29.555738 65.21322,32.681006 6.50623,0.807918 23.63121,0.298195 30.47347,-0.907043 z m 77.84536,-58.814043 c 4.74388,-9.4922 7.82856,-18.7156 9.67375,-28.92519 1.54002,-8.52104 1.54002,-27.43766 0,-35.9587 -7.26705,-40.20915 -36.24322,-72.97859 -74.84415,-84.642 -11.36442,-3.43381 -17.50465,-4.28334 -30.95904,-4.28334 -13.45407,0 -19.52182,0.83978 -31.08294,4.30191 -6.47133,1.93793 -21.23093,8.54605 -24.07404,10.77836 -1.17086,0.91932 1.67758,3.85473 72.22141,74.42657 40.39219,40.40823 73.71493,73.38976 74.05053,73.2923 0.3356,-0.0975 2.59212,-4.14292 5.01448,-8.98991 z"
       id="path52"
       inkscape:connector-curvature="0" />
    <path
       inkscape:connector-curvature="0"
       id="path50"
       d="M 241.088,-36.711154 C 161.36835,-44.342324 100,-111.90733 100,-192.04551 c 0,-41.34976 16.40788,-80.84845 45.83393,-110.33604 60.72878,-60.8558 159.56014,-60.82512 220.45369,0.0684 41.70929,41.70929 56.29492,102.97358 37.86025,159.02516 C 381.4095,-74.150716 313.51976,-29.777624 241.088,-36.711154 Z m 33.21608,-49.615773 c 9.11101,-1.604867 19.12698,-4.882941 27.73086,-9.075901 4.3577,-2.123654 8.47162,-4.291872 9.14204,-4.818262 1.17086,-0.91931 -1.67758,-3.85473 -72.22141,-74.42657 -40.39219,-40.40823 -73.71493,-73.38976 -74.05053,-73.2923 -0.3356,0.0975 -2.59211,4.14292 -5.01448,8.98991 -4.74388,9.49219 -7.82856,18.7156 -9.67375,28.92519 -1.54002,8.52104 -1.54002,27.43766 0,35.9587 3.85615,21.33636 13.52276,40.38508 28.40058,55.96527 17.37412,18.194339 40.04519,29.555738 65.21322,32.681006 6.50623,0.807918 23.63121,0.298195 30.47347,-0.907043 z m 77.84536,-58.814043 c 4.74388,-9.4922 7.82856,-18.7156 9.67375,-28.92519 1.54002,-8.52104 1.54002,-27.43766 0,-35.9587 -7.26705,-40.20915 -36.24322,-72.97859 -74.84415,-84.642 -11.36442,-3.43381 -17.50465,-4.28334 -30.95904,-4.28334 -13.45407,0 -19.52182,0.83978 -31.08294,4.30191 -6.47133,1.93793 -21.23093,8.54605 -24.07404,10.77836 -1.17086,0.91932 1.67758,3.85473 72.22141,74.42657 40.39219,40.40823 73.71493,73.38976 74.05053,73.2923 0.3356,-0.0975 2.59212,-4.14292 5.01448,-8.98991 z"
       style="fill:#ffffff;stroke-width:0.60946941" />
  </g>
</svg>
