<?xml version="1.0" encoding="UTF-8" standalone="no"?>
<svg
   xmlns:dc="http://purl.org/dc/elements/1.1/"
   xmlns:cc="http://creativecommons.org/ns#"
   xmlns:rdf="http://www.w3.org/1999/02/22-rdf-syntax-ns#"
   xmlns:svg="http://www.w3.org/2000/svg"
   xmlns="http://www.w3.org/2000/svg"
   xmlns:sodipodi="http://sodipodi.sourceforge.net/DTD/sodipodi-0.dtd"
   xmlns:inkscape="http://www.inkscape.org/namespaces/inkscape"
   viewBox="0 0 64 64"
   version="1.1"
   id="svg6"
   sodipodi:docname="akonadi-phone-home.svg"
   width="64"
   height="64"
   inkscape:version="0.92.2 5c3e80d, 2017-08-06">
  <metadata
     id="metadata10">
    <rdf:RDF>
      <cc:Work
         rdf:about="">
        <dc:format>image/svg+xml</dc:format>
        <dc:type
           rdf:resource="http://purl.org/dc/dcmitype/StillImage" />
        <dc:title></dc:title>
      </cc:Work>
    </rdf:RDF>
  </metadata>
  <sodipodi:namedview
     pagecolor="#ffffff"
     bordercolor="#666666"
     borderopacity="1"
     objecttolerance="10"
     gridtolerance="10"
     guidetolerance="10"
     inkscape:pageopacity="0"
     inkscape:pageshadow="2"
     inkscape:window-width="1366"
     inkscape:window-height="717"
     id="namedview8"
     showgrid="false"
     inkscape:zoom="5.2149125"
     inkscape:cx="19.454967"
     inkscape:cy="34.195665"
     inkscape:window-x="0"
     inkscape:window-y="24"
     inkscape:window-maximized="1"
     inkscape:current-layer="svg6" />
  <defs
     id="defs3051">
    <style
       type="text/css"
       id="current-color-scheme">
      .ColorScheme-Text {
        color:#4d4d4d;
      }
      </style>
  </defs>
  <g
     id="g42"
     transform="matrix(0.125,0,0,0.125,-1.4591767e-5,55.999967)">
    <path
       id="path1148"
       d="m 432.91318,-391.52607 c 102.1931,88.57459 105.82677,249.69971 8.11688,359.898792 C 343.3202,78.571803 181.27975,96.100572 79.086619,7.525982 -23.106138,-81.048608 -26.740153,-242.17372 70.970084,-352.37281 168.67994,-462.57189 330.72039,-480.10066 432.91318,-391.52607 Z"
       inkscape:connector-curvature="0"
       style="fill:#3689e6;fill-opacity:1;stroke-width:11.10955811" />
    <path
       id="path1150"
       d="m 511.63545,-223.09652 c -1.55116,61.31165 -25.16107,124.154608 -70.9663,175.814476 C 342.95929,62.917076 180.91881,80.445806 78.725674,-8.1287457 30.826965,-49.6444 4.4968862,-107.07719 0.19389407,-167.77123 0.79899644,-101.41455 27.117359,-37.517861 79.078682,7.5190277 181.27144,96.09358 343.31982,78.556156 441.02216,-31.63427 c 49.70494,-56.058105 73.00497,-125.29096 70.61329,-191.46225 z"
       inkscape:connector-curvature="0"
       style="opacity:1;fill:#000000;fill-opacity:0.49019608;stroke-width:11.10955811" />
    <path
       style="fill:#1c4675;fill-opacity:1;stroke-width:0.6097784"
       d="m 172.5387,-17.1772 c -5.72467,-1.978 -8.73185,-4.6369 -11.84045,-10.469 l -1.45262,-2.7253 -0.16657,-61.0855 -0.16658,-61.08552 -12.33388,-0.19723 c -11.06475,-0.17693 -12.62392,-0.33133 -15.15253,-1.50052 -6.50858,-3.00947 -10.77908,-9.14361 -11.35427,-16.30929 -0.41887,-5.21821 0.97397,-9.47296 4.72971,-14.448 3.7313,-4.94269 135.91935,-136.93993 139.63088,-139.42934 7.51356,-5.0395 15.71451,-5.03302 23.17158,0.0183 1.50921,1.02231 12.65793,11.71045 24.77494,23.75142 l 22.03094,21.89268 0.26461,-7.82053 c 0.23685,-7.00001 0.43648,-8.15427 1.90281,-11.00148 2.06837,-4.01622 5.064,-7.02453 9.12849,-9.16712 l 3.18095,-1.67683 h 14.93957 14.93957 l 3.18095,1.67683 c 4.22882,2.22921 7.30084,5.40253 9.24644,9.55133 l 1.59751,3.40652 0.17089,36.87724 0.17089,36.87724 16.64561,16.78326 c 9.15508,9.23079 17.49342,18.03469 18.52963,19.56423 7.14625,10.54836 3.56669,24.24518 -7.69746,29.45354 -2.52868,1.16923 -4.08774,1.32359 -15.15521,1.50056 l -12.33657,0.19726 -0.16389,60.78055 -0.16389,60.7806 -1.59751,3.4065 c -2.03059,4.3301 -5.30062,7.6001 -9.63065,9.6307 l -3.40652,1.5975 -31.54259,0.1733 -31.54259,0.1733 -0.16588,-51.3947 -0.16589,-51.3947 -1.5099,-3.0489 c -1.92506,-3.8872 -5.57889,-7.54102 -9.46612,-9.46608 l -3.04889,-1.5099 h -24.69603 -24.69602 l -3.04889,1.5099 c -3.88723,1.92506 -7.54105,5.57888 -9.46612,9.46608 l -1.50989,3.0489 -0.16588,51.3739 -0.16587,51.3738 -30.62793,-0.02 c -27.85864,-0.018 -30.91464,-0.119 -33.79888,-1.1156 z"
       id="path36"
       inkscape:connector-curvature="0" />
    <path
       inkscape:connector-curvature="0"
       id="path872"
       d="m 152.5387,-37.1772 c -5.72467,-1.978 -8.73185,-4.6369 -11.84045,-10.469 l -1.45262,-2.7253 -0.16657,-61.0855 -0.16658,-61.08552 -12.33388,-0.19723 c -11.06475,-0.17693 -12.62392,-0.33133 -15.15253,-1.50052 -6.50858,-3.00947 -10.77908,-9.14361 -11.35427,-16.30929 -0.418867,-5.21821 0.97397,-9.47296 4.72971,-14.448 3.7313,-4.94269 135.91935,-136.93993 139.63088,-139.42934 7.51356,-5.0395 15.71451,-5.03302 23.17158,0.0183 1.50921,1.02231 12.65793,11.71045 24.77494,23.75142 l 22.03094,21.89268 0.26461,-7.82053 c 0.23685,-7.00001 0.43648,-8.15427 1.90281,-11.00148 2.06837,-4.01622 5.064,-7.02453 9.12849,-9.16712 l 3.18095,-1.67683 h 14.93957 14.93957 l 3.18095,1.67683 c 4.22882,2.22921 7.30084,5.40253 9.24644,9.55133 l 1.59751,3.40652 0.17089,36.87724 0.17089,36.87724 16.64561,16.78326 c 9.15508,9.23079 17.49342,18.03469 18.52963,19.56423 7.14625,10.54836 3.56669,24.24518 -7.69746,29.45354 -2.52868,1.16923 -4.08774,1.32359 -15.15521,1.50056 l -12.33657,0.19726 -0.16389,60.78055 -0.16389,60.7806 -1.59751,3.4065 c -2.03059,4.3301 -5.30062,7.6001 -9.63065,9.6307 l -3.40652,1.5975 -31.54259,0.1733 -31.54259,0.1733 -0.16588,-51.3947 -0.16589,-51.3947 -1.5099,-3.0489 c -1.92506,-3.8872 -5.57889,-7.54102 -9.46612,-9.46608 l -3.04889,-1.5099 h -24.69603 -24.69602 l -3.04889,1.5099 c -3.88723,1.92506 -7.54105,5.57888 -9.46612,9.46608 l -1.50989,3.0489 -0.16588,51.3739 -0.16587,51.3738 -30.62793,-0.02 c -27.85864,-0.018 -30.91464,-0.119 -33.79888,-1.1156 z"
       style="fill:#ffffff;stroke-width:0.6097784" />
  </g>
</svg>
