<?xml version="1.0" encoding="UTF-8" standalone="no"?>
<svg
   xmlns:dc="http://purl.org/dc/elements/1.1/"
   xmlns:cc="http://creativecommons.org/ns#"
   xmlns:rdf="http://www.w3.org/1999/02/22-rdf-syntax-ns#"
   xmlns:svg="http://www.w3.org/2000/svg"
   xmlns="http://www.w3.org/2000/svg"
   xmlns:sodipodi="http://sodipodi.sourceforge.net/DTD/sodipodi-0.dtd"
   xmlns:inkscape="http://www.inkscape.org/namespaces/inkscape"
   viewBox="0 0 64 64"
   version="1.1"
   id="svg6"
   sodipodi:docname="align-horizontal-baseline.svg"
   width="64"
   height="64"
   inkscape:version="0.92.2 5c3e80d, 2017-08-06">
  <metadata
     id="metadata10">
    <rdf:RDF>
      <cc:Work
         rdf:about="">
        <dc:format>image/svg+xml</dc:format>
        <dc:type
           rdf:resource="http://purl.org/dc/dcmitype/StillImage" />
        <dc:title />
      </cc:Work>
    </rdf:RDF>
  </metadata>
  <sodipodi:namedview
     pagecolor="#ffffff"
     bordercolor="#666666"
     borderopacity="1"
     objecttolerance="10"
     gridtolerance="10"
     guidetolerance="10"
     inkscape:pageopacity="0"
     inkscape:pageshadow="2"
     inkscape:window-width="1366"
     inkscape:window-height="717"
     id="namedview8"
     showgrid="false"
     inkscape:zoom="3.4766084"
     inkscape:cx="71.118136"
     inkscape:cy="38.419214"
     inkscape:window-x="0"
     inkscape:window-y="24"
     inkscape:window-maximized="1"
     inkscape:current-layer="svg6" />
  <defs
     id="defs3051">
    <style
       type="text/css"
       id="current-color-scheme">
      .ColorScheme-Text {
        color:#4d4d4d;
      }
      </style>
  </defs>
  <g
     id="g72"
     transform="matrix(0.125,0,0,0.125,-1.4591767e-5,55.999967)">
    <path
       id="path1148"
       d="m 432.91318,-391.52606 c 102.19309,88.57459 105.82677,249.6997 8.11688,359.898782 C 343.3202,78.571799 181.27975,96.100574 79.086619,7.5259845 -23.106138,-81.048605 -26.740153,-242.17371 70.970084,-352.3728 168.67994,-462.57188 330.72039,-480.10065 432.91318,-391.52606 Z"
       inkscape:connector-curvature="0"
       style="fill:#3689e6;fill-opacity:1;stroke-width:11.10955811" />
    <path
       id="path1150"
       d="m 511.63545,-223.09651 c -1.55116,61.31164 -25.16107,124.154601 -70.9663,175.814464 C 342.95929,62.917071 180.91881,80.445807 78.725674,-8.1287431 30.826964,-49.644398 4.496886,-107.07719 0.19389394,-167.77123 0.79899625,-101.41455 27.117359,-37.517862 79.078682,7.5190245 181.27144,96.093574 343.31982,78.556151 441.02216,-31.63427 c 49.70494,-56.058095 73.00497,-125.29096 70.61329,-191.46224 z"
       inkscape:connector-curvature="0"
       style="opacity:1;fill:#000000;fill-opacity:0.49019608;stroke-width:11.10955811" />
    <g
       transform="matrix(8,0,0,7.9999998,20.000122,-427.99973)"
       style="fill:#1c4675;fill-opacity:1"
       id="g60">
      <rect
         transform="rotate(-90)"
         ry="1.625"
         y="23.249985"
         x="-51.499966"
         height="3.25"
         width="39"
         id="rect54"
         style="opacity:1;fill:#1c4675;fill-opacity:1;stroke:none;stroke-width:0.47244096;stroke-miterlimit:4;stroke-dasharray:none;stroke-dashoffset:0;stroke-opacity:1" />
      <path
         d="m 39.437419,26.594103 q -0.241253,0 -0.876122,-0.558687 -0.571383,-0.520595 -0.850727,-0.926912 -1.21895,0.660267 -2.145865,0.990397 -0.92691,0.342833 -1.549085,0.342833 -2.971195,0 -4.32982,-1.676061 -1.282439,-1.574481 -1.282439,-4.825019 0,-3.072773 2.107774,-5.256732 2.120466,-2.183955 5.05357,-2.183955 1.104677,0 2.475996,0.571382 1.726851,0.711057 1.726851,1.714153 0,0.342831 -0.253948,0.609476 -0.126974,0.482501 -0.203159,1.587179 -0.06349,1.104675 -0.07618,2.831522 -0.0127,1.57448 0.215856,2.488695 0.126974,0.558687 0.799937,2.234745 0.08888,0.228554 0.292042,0.672964 l 0.07618,0.215856 q 0,0.507898 -0.355529,0.83803 -0.355528,0.330134 -0.825331,0.330134 z m -2.641062,-8.824707 q 0,-0.54599 0.06349,-1.18086 0.07618,-0.647569 0.215856,-1.371319 -0.469806,-0.241251 -0.812636,-0.355529 -0.330134,-0.114279 -0.53329,-0.114279 -1.968102,0 -3.402909,1.612574 -1.422113,1.599875 -1.422113,3.694948 0,2.082378 0.736452,3.123566 0.736451,1.041189 2.20935,1.041189 1.218953,0 2.06968,-0.44441 0.457107,-0.241253 1.282438,-0.965004 -0.406315,-3.364817 -0.406315,-5.040876 z"
         style="font-style:normal;font-variant:normal;font-weight:normal;font-stretch:normal;font-size:133.33332825px;line-height:0;font-family:'Comic Sans MS';-inkscape-font-specification:'Comic Sans MS';letter-spacing:0px;word-spacing:0px;fill:#1c4675;fill-opacity:1;stroke:none;stroke-width:0.19503236"
         id="path56"
         inkscape:connector-curvature="0" />
      <path
         d="m 40.592885,32.822063 -4.393309,9.497668 q -1.625269,3.466396 -2.488694,5.802723 l -0.838028,2.463299 q -0.330135,0.914214 -1.142767,0.914214 -0.533293,0 -0.926913,-0.355528 -0.380922,-0.34283 -0.380922,-0.863424 0,-1.269744 2.742643,-7.351808 l -4.545675,-8.74852 -0.571386,-0.926913 q -0.342829,-0.58408 -0.342829,-0.9777 0,-0.520595 0.393617,-0.914214 0.406319,-0.39362 0.901518,-0.39362 0.58408,0 0.901519,0.44441 2.15856,2.996591 4.634557,8.532666 l 1.879216,-4.380611 q 1.015794,-2.272838 1.955403,-3.910804 0.406319,-0.711056 1.066584,-0.711056 0.520592,0 0.914213,0.368225 0.406318,0.368226 0.406318,0.876122 0,0.279344 -0.165065,0.634871 z"
         style="font-style:normal;font-variant:normal;font-weight:normal;font-stretch:normal;font-size:133.33332825px;line-height:1.25;font-family:'Comic Sans MS';-inkscape-font-specification:'Comic Sans MS';letter-spacing:0px;word-spacing:0px;fill:#1c4675;fill-opacity:1;stroke:none;stroke-width:0.19503236"
         id="path58"
         inkscape:connector-curvature="0" />
    </g>
    <g
       transform="matrix(8,0,0,7.9999998,1.1657699e-4,-447.99972)"
       id="g52">
      <rect
         style="opacity:1;fill:#ffffff;fill-opacity:1;stroke:none;stroke-width:0.47244096;stroke-miterlimit:4;stroke-dasharray:none;stroke-dashoffset:0;stroke-opacity:1"
         id="rect840"
         width="39"
         height="3.25"
         x="-51.499966"
         y="23.249985"
         ry="1.625"
         transform="rotate(-90)" />
      <path
         inkscape:connector-curvature="0"
         id="path46"
         style="font-style:normal;font-variant:normal;font-weight:normal;font-stretch:normal;font-size:133.33332825px;line-height:0;font-family:'Comic Sans MS';-inkscape-font-specification:'Comic Sans MS';letter-spacing:0px;word-spacing:0px;fill:#ffffff;fill-opacity:1;stroke:none;stroke-width:0.19503236"
         d="m 39.437419,26.594103 q -0.241253,0 -0.876122,-0.558687 -0.571383,-0.520595 -0.850727,-0.926912 -1.21895,0.660267 -2.145865,0.990397 -0.92691,0.342833 -1.549085,0.342833 -2.971195,0 -4.32982,-1.676061 -1.282439,-1.574481 -1.282439,-4.825019 0,-3.072773 2.107774,-5.256732 2.120466,-2.183955 5.05357,-2.183955 1.104677,0 2.475996,0.571382 1.726851,0.711057 1.726851,1.714153 0,0.342831 -0.253948,0.609476 -0.126974,0.482501 -0.203159,1.587179 -0.06349,1.104675 -0.07618,2.831522 -0.0127,1.57448 0.215856,2.488695 0.126974,0.558687 0.799937,2.234745 0.08888,0.228554 0.292042,0.672964 l 0.07618,0.215856 q 0,0.507898 -0.355529,0.83803 -0.355528,0.330134 -0.825331,0.330134 z m -2.641062,-8.824707 q 0,-0.54599 0.06349,-1.18086 0.07618,-0.647569 0.215856,-1.371319 -0.469806,-0.241251 -0.812636,-0.355529 -0.330134,-0.114279 -0.53329,-0.114279 -1.968102,0 -3.402909,1.612574 -1.422113,1.599875 -1.422113,3.694948 0,2.082378 0.736452,3.123566 0.736451,1.041189 2.20935,1.041189 1.218953,0 2.06968,-0.44441 0.457107,-0.241253 1.282438,-0.965004 -0.406315,-3.364817 -0.406315,-5.040876 z" />
      <path
         inkscape:connector-curvature="0"
         id="path48"
         style="font-style:normal;font-variant:normal;font-weight:normal;font-stretch:normal;font-size:133.33332825px;line-height:1.25;font-family:'Comic Sans MS';-inkscape-font-specification:'Comic Sans MS';letter-spacing:0px;word-spacing:0px;fill:#ffffff;fill-opacity:1;stroke:none;stroke-width:0.19503236"
         d="m 40.592885,32.822063 -4.393309,9.497668 q -1.625269,3.466396 -2.488694,5.802723 l -0.838028,2.463299 q -0.330135,0.914214 -1.142767,0.914214 -0.533293,0 -0.926913,-0.355528 -0.380922,-0.34283 -0.380922,-0.863424 0,-1.269744 2.742643,-7.351808 l -4.545675,-8.74852 -0.571386,-0.926913 q -0.342829,-0.58408 -0.342829,-0.9777 0,-0.520595 0.393617,-0.914214 0.406319,-0.39362 0.901518,-0.39362 0.58408,0 0.901519,0.44441 2.15856,2.996591 4.634557,8.532666 l 1.879216,-4.380611 q 1.015794,-2.272838 1.955403,-3.910804 0.406319,-0.711056 1.066584,-0.711056 0.520592,0 0.914213,0.368225 0.406318,0.368226 0.406318,0.876122 0,0.279344 -0.165065,0.634871 z" />
    </g>
  </g>
</svg>
