<?xml version="1.0" encoding="UTF-8" standalone="no"?>
<svg
   xmlns:dc="http://purl.org/dc/elements/1.1/"
   xmlns:cc="http://creativecommons.org/ns#"
   xmlns:rdf="http://www.w3.org/1999/02/22-rdf-syntax-ns#"
   xmlns:svg="http://www.w3.org/2000/svg"
   xmlns="http://www.w3.org/2000/svg"
   xmlns:sodipodi="http://sodipodi.sourceforge.net/DTD/sodipodi-0.dtd"
   xmlns:inkscape="http://www.inkscape.org/namespaces/inkscape"
   viewBox="0 0 64 64"
   version="1.1"
   id="svg6"
   sodipodi:docname="amarok_change_language.svg"
   width="64"
   height="64"
   inkscape:version="0.92.2 5c3e80d, 2017-08-06">
  <metadata
     id="metadata10">
    <rdf:RDF>
      <cc:Work
         rdf:about="">
        <dc:format>image/svg+xml</dc:format>
        <dc:type
           rdf:resource="http://purl.org/dc/dcmitype/StillImage" />
        <dc:title></dc:title>
      </cc:Work>
    </rdf:RDF>
  </metadata>
  <sodipodi:namedview
     pagecolor="#ffffff"
     bordercolor="#666666"
     borderopacity="1"
     objecttolerance="10"
     gridtolerance="10"
     guidetolerance="10"
     inkscape:pageopacity="0"
     inkscape:pageshadow="2"
     inkscape:window-width="1366"
     inkscape:window-height="717"
     id="namedview8"
     showgrid="false"
     inkscape:zoom="5.2149125"
     inkscape:cx="35.560662"
     inkscape:cy="34.5574"
     inkscape:window-x="0"
     inkscape:window-y="24"
     inkscape:window-maximized="1"
     inkscape:current-layer="svg6" />
  <defs
     id="defs3051">
    <style
       type="text/css"
       id="current-color-scheme">
      .ColorScheme-Text {
        color:#4d4d4d;
      }
      </style>
  </defs>
  <g
     transform="matrix(0.125,0,0,0.125,7.3519612e-7,-67.545272)"
     id="g831">
    <path
       style="fill:#3689e6;fill-opacity:1;stroke-width:11.10955238"
       inkscape:connector-curvature="0"
       d="m 432.91336,596.83615 c 102.1928,88.57459 105.82666,249.69971 8.11679,359.89879 C 343.32009,1066.934 181.27947,1084.4628 79.086668,995.8882 -23.106173,907.31361 -26.740033,746.18849 70.969876,635.98941 168.67975,525.79033 330.72029,508.26156 432.91336,596.83615 Z"
       id="path911" />
    <path
       style="opacity:1;fill:#000000;fill-opacity:0.49019608;stroke-width:11.10955238"
       inkscape:connector-curvature="0"
       d="M 511.635,765.2657 C 510.0836,826.57736 486.47379,889.4203 440.66869,941.08019 342.95882,1051.2793 180.91852,1068.808 78.725714,980.23345 30.82711,938.71782 4.4968351,881.28501 0.19384574,820.59097 0.79909653,886.94765 27.117401,950.84437 79.078618,995.88122 181.27143,1084.4558 343.31941,1066.9184 441.02159,956.72796 490.72648,900.66982 514.02654,831.43699 511.635,765.2657 Z"
       id="path913" />
    <path
       style="fill:#000000;fill-opacity:0.49019608;stroke-width:1.5132848"
       d="m 134.0635,970.54861 c -9.74767,-5.33156 -8.98567,-10.59122 4.4386,-30.63737 12.65811,-18.90205 17.50403,-29.77869 17.50403,-39.28773 0,-5.39671 -1.16322,-7.98724 -6.90899,-15.38668 -22.03126,-28.37189 -32.43237,-64.85943 -28.15121,-98.75554 3.77656,-29.90101 15.61572,-54.44161 37.19109,-77.09101 46.8598,-49.19251 118.05637,-63.43507 184.00314,-36.80897 17.58678,7.10068 32.08424,17.09944 48.39365,33.37662 28.85984,28.8028 41.15268,57.2934 41.46152,96.09358 0.30513,38.33214 -14.35844,71.24006 -44.27417,99.35999 -40.27161,37.85416 -99.45512,52.35681 -154.25802,37.80025 l -11.07013,-2.9404 -15.41235,9.80123 c -32.89831,20.92114 -61.72534,30.59748 -72.91716,24.47603 z M 305.06468,877.7452 c 5.82615,-2.76214 12.93164,-6.67973 15.78998,-8.70578 l 5.19698,-3.68371 11.71558,7.84169 c 6.44357,4.31292 13.85745,8.72888 16.4753,9.81323 4.28147,1.77344 5.07292,1.65833 7.87692,-1.14568 3.72443,-3.72444 2.78876,-10.2529 -1.67241,-11.66882 -2.22489,-0.70616 -20.27526,-11.64756 -22.54254,-13.66437 -0.24884,-0.22136 3.09774,-5.07922 7.43687,-10.79523 7.57573,-9.97966 15.19429,-24.44972 17.30894,-32.87519 0.85859,-3.42087 1.81282,-4.00005 6.59038,-4.00005 6.30792,0 9.21831,-2.14998 9.21831,-6.80978 0,-5.98189 -2.70442,-6.80978 -22.24528,-6.80978 h -18.6134 v -7.82559 c 0,-7.60786 -2.81886,-13.3604 -6.54685,-13.3604 -4.26415,0 -7.07272,5.20098 -7.07272,13.09747 v 8.08852 h -18.6134 c -19.54087,0 -22.24529,0.82789 -22.24529,6.80978 0,6.39151 2.10998,6.80978 34.35157,6.80978 23.57477,0 30.71624,0.43996 30.70489,1.89161 -0.029,3.7119 -7.25794,17.18324 -14.36776,26.77477 l -7.22752,9.75032 -3.6807,-4.45382 c -2.02438,-2.4496 -6.3768,-8.02896 -9.67204,-12.39857 -6.83474,-9.06311 -12.30248,-10.63269 -15.16372,-4.35295 -1.98498,4.35657 -1.14052,6.13899 9.46272,19.97304 6.05836,7.90437 7.28165,10.37872 5.65879,11.4459 -6.24802,4.10867 -17.69644,10.19349 -20.98652,11.15427 -8.44098,2.46501 -11.20312,7.99851 -6.55588,13.13366 2.97294,3.28506 4.76567,2.91262 19.4188,-4.03432 z M 190.72601,828.57985 c 1.55666,-0.83311 4.57768,-6.74087 6.98857,-13.66654 l 4.24664,-12.19907 16.60876,0.42528 16.60877,0.42527 3.56344,10.5721 c 1.95989,5.81464 4.87178,11.88042 6.47085,13.47951 2.75327,2.75327 3.11321,2.77258 6.78866,0.36434 2.13467,-1.3987 3.88123,-3.49731 3.88123,-4.66358 0,-2.12824 -27.1292,-81.79256 -31.04758,-91.17059 -1.55194,-3.71429 -3.03673,-5.00266 -5.76539,-5.00266 -2.02133,0 -4.41266,0.88868 -5.3141,1.97482 -0.90142,1.08616 -8.80023,22.61132 -17.55289,47.83369 -17.01176,49.02241 -17.30726,50.82242 -8.6967,52.97538 0.2628,0.0657 1.71168,-0.54087 3.21974,-1.34795 z m 16.7318,-41.54777 c 0,-2.98625 11.32025,-31.19909 11.84917,-29.53105 0.37996,1.19817 2.86942,8.47755 5.53217,16.17639 l 4.84134,13.99788 h -11.11134 c -6.11123,0 -11.11134,-0.28944 -11.11134,-0.64322 z"
       id="path882"
       inkscape:connector-curvature="0" />
    <path
       inkscape:connector-curvature="0"
       id="path880"
       d="m 114.0635,950.54861 c -9.74767,-5.33156 -8.98567,-10.59122 4.4386,-30.63737 12.65811,-18.90205 17.50403,-29.77869 17.50403,-39.28773 0,-5.39671 -1.16322,-7.98724 -6.90899,-15.38668 -22.03126,-28.37189 -32.432372,-64.85943 -28.15121,-98.75554 3.77656,-29.90101 15.61572,-54.44161 37.19109,-77.09101 46.8598,-49.19251 118.05637,-63.43507 184.00314,-36.80897 17.58678,7.10068 32.08424,17.09944 48.39365,33.37662 28.85984,28.8028 41.15268,57.2934 41.46152,96.09358 0.30513,38.33214 -14.35844,71.24006 -44.27417,99.35999 -40.27161,37.85416 -99.45512,52.35681 -154.25802,37.80025 l -11.07013,-2.9404 -15.41235,9.80123 c -32.89831,20.92114 -61.72534,30.59748 -72.91716,24.47603 z M 285.06468,857.7452 c 5.82615,-2.76214 12.93164,-6.67973 15.78998,-8.70578 l 5.19698,-3.68371 11.71558,7.84169 c 6.44357,4.31292 13.85745,8.72888 16.4753,9.81323 4.28147,1.77344 5.07292,1.65833 7.87692,-1.14568 3.72443,-3.72444 2.78876,-10.2529 -1.67241,-11.66882 -2.22489,-0.70616 -20.27526,-11.64756 -22.54254,-13.66437 -0.24884,-0.22136 3.09774,-5.07922 7.43687,-10.79523 7.57573,-9.97966 15.19429,-24.44972 17.30894,-32.87519 0.85859,-3.42087 1.81282,-4.00005 6.59038,-4.00005 6.30792,0 9.21831,-2.14998 9.21831,-6.80978 0,-5.98189 -2.70442,-6.80978 -22.24528,-6.80978 h -18.6134 v -7.82559 c 0,-7.60786 -2.81886,-13.3604 -6.54685,-13.3604 -4.26415,0 -7.07272,5.20098 -7.07272,13.09747 v 8.08852 h -18.6134 c -19.54087,0 -22.24529,0.82789 -22.24529,6.80978 0,6.39151 2.10998,6.80978 34.35157,6.80978 23.57477,0 30.71624,0.43996 30.70489,1.89161 -0.029,3.7119 -7.25794,17.18324 -14.36776,26.77477 l -7.22752,9.75032 -3.6807,-4.45382 c -2.02438,-2.4496 -6.3768,-8.02896 -9.67204,-12.39857 -6.83474,-9.06311 -12.30248,-10.63269 -15.16372,-4.35295 -1.98498,4.35657 -1.14052,6.13899 9.46272,19.97304 6.05836,7.90437 7.28165,10.37872 5.65879,11.4459 -6.24802,4.10867 -17.69644,10.19349 -20.98652,11.15427 -8.44098,2.46501 -11.20312,7.99851 -6.55588,13.13366 2.97294,3.28506 4.76567,2.91262 19.4188,-4.03432 z M 170.72601,808.57985 c 1.55666,-0.83311 4.57768,-6.74087 6.98857,-13.66654 l 4.24664,-12.19907 16.60876,0.42528 16.60877,0.42527 3.56344,10.5721 c 1.95989,5.81464 4.87178,11.88042 6.47085,13.47951 2.75327,2.75327 3.11321,2.77258 6.78866,0.36434 2.13467,-1.3987 3.88123,-3.49731 3.88123,-4.66358 0,-2.12824 -27.1292,-81.79256 -31.04758,-91.17059 -1.55194,-3.71429 -3.03673,-5.00266 -5.76539,-5.00266 -2.02133,0 -4.41266,0.88868 -5.3141,1.97482 -0.90142,1.08616 -8.80023,22.61132 -17.55289,47.83369 -17.01176,49.02241 -17.30726,50.82242 -8.6967,52.97538 0.2628,0.0657 1.71168,-0.54087 3.21974,-1.34795 z m 16.7318,-41.54777 c 0,-2.98625 11.32025,-31.19909 11.84917,-29.53105 0.37996,1.19817 2.86942,8.47755 5.53217,16.17639 l 4.84134,13.99788 h -11.11134 c -6.11123,0 -11.11134,-0.28944 -11.11134,-0.64322 z"
       style="fill:#ffffff;stroke-width:1.5132848" />
  </g>
</svg>
