<?xml version="1.0" encoding="UTF-8" standalone="no"?>
<svg
   xmlns:dc="http://purl.org/dc/elements/1.1/"
   xmlns:cc="http://creativecommons.org/ns#"
   xmlns:rdf="http://www.w3.org/1999/02/22-rdf-syntax-ns#"
   xmlns:svg="http://www.w3.org/2000/svg"
   xmlns="http://www.w3.org/2000/svg"
   xmlns:sodipodi="http://sodipodi.sourceforge.net/DTD/sodipodi-0.dtd"
   xmlns:inkscape="http://www.inkscape.org/namespaces/inkscape"
   viewBox="0 0 64 64"
   version="1.1"
   id="svg6"
   sodipodi:docname="view-services-scripted-amarok.svg"
   width="64"
   height="64"
   inkscape:version="0.92.2 5c3e80d, 2017-08-06">
  <metadata
     id="metadata10">
    <rdf:RDF>
      <cc:Work
         rdf:about="">
        <dc:format>image/svg+xml</dc:format>
        <dc:type
           rdf:resource="http://purl.org/dc/dcmitype/StillImage" />
        <dc:title />
      </cc:Work>
    </rdf:RDF>
  </metadata>
  <sodipodi:namedview
     pagecolor="#ffffff"
     bordercolor="#666666"
     borderopacity="1"
     objecttolerance="10"
     gridtolerance="10"
     guidetolerance="10"
     inkscape:pageopacity="0"
     inkscape:pageshadow="2"
     inkscape:window-width="1366"
     inkscape:window-height="717"
     id="namedview8"
     showgrid="false"
     inkscape:zoom="2.6074563"
     inkscape:cx="0.70614222"
     inkscape:cy="45.349495"
     inkscape:window-x="0"
     inkscape:window-y="24"
     inkscape:window-maximized="1"
     inkscape:current-layer="svg6" />
  <defs
     id="defs3051">
    <style
       type="text/css"
       id="current-color-scheme">
      .ColorScheme-Text {
        color:#4d4d4d;
      }
      </style>
  </defs>
  <g
     id="g828">
    <g
       style="fill:#8a715e;fill-opacity:1"
       id="g29"
       transform="matrix(1.0055982,0.87159111,-0.96148519,1.0843806,30.941288,-14.943321)">
      <path
         id="path27"
         d="M 24,1 C 36.703,1 47,11.297 47,24 47,36.703 36.703,47 24,47 11.297,47 1,36.703 1,24 1,11.297 11.297,1 24,1 Z"
         inkscape:connector-curvature="0"
         style="fill:#8a715e;fill-opacity:1" />
    </g>
    <path
       style="opacity:1;fill:#000000;fill-opacity:0.49019608;stroke-width:1.38869476"
       inkscape:connector-curvature="0"
       d="M 63.954439,28.112941 C 63.760514,35.776897 60.809284,43.632265 55.08364,50.089751 42.869894,63.864638 22.614836,66.055731 9.840722,54.983909 3.8533903,49.794456 0.56210263,42.615354 0.02422848,35.028599 0.09988482,43.323184 3.3896762,51.310274 9.884835,56.939881 22.658949,68.011703 42.914968,65.819525 55.127753,52.045723 61.34087,45.038456 64.253381,36.384352 63.954439,28.112941 Z"
       id="path51" />
    <path
       style="fill:#000000;fill-opacity:0.49019608;stroke-width:0.23562813"
       d="m 15.988246,44.089779 c -0.888887,-0.747959 -1.162587,-1.85273 -0.720036,-2.906444 0.171991,-0.409515 1.611614,-2.171735 3.19916,-3.916064 1.587541,-1.744311 2.886439,-3.240561 2.886439,-3.324995 0,-0.08442 -1.298898,-1.585309 -2.886439,-3.335295 -3.175127,-3.500009 -3.454942,-3.892079 -3.467167,-4.858173 -0.02243,-1.776218 1.822271,-3.071415 3.270603,-2.296286 0.231244,0.123753 1.851005,1.79376 3.599495,3.711137 5.2601,5.768203 5.138584,5.607383 5.138584,6.800808 0,1.005443 -0.112381,1.173009 -2.79553,4.168075 -5.185724,5.78857 -5.726249,6.313824 -6.64263,6.454915 -0.676197,0.104117 -0.981337,0.0082 -1.582479,-0.497678 z m 14.3691,-1.948835 0.06813,-2.06603 h 5.537268 5.537259 v 2.002836 2.002847 l -5.605407,0.06321 -5.605409,0.06324 z"
       id="path920"
       inkscape:connector-curvature="0" />
    <path
       inkscape:connector-curvature="0"
       id="path908"
       d="m 13.488244,41.589797 c -0.888888,-0.74796 -1.162588,-1.85273 -0.720036,-2.906443 0.171991,-0.409515 1.611613,-2.171735 3.19916,-3.916062 1.587541,-1.744313 2.886438,-3.240563 2.886438,-3.324997 0,-0.08442 -1.298897,-1.585309 -2.886438,-3.335296 C 12.79224,24.60699 12.512425,24.21492 12.5002,23.248826 c -0.02243,-1.776215 1.822271,-3.071412 3.270604,-2.296285 0.231244,0.123753 1.851005,1.79376 3.599494,3.711139 5.260101,5.7682 5.138585,5.607383 5.138585,6.800805 0,1.005444 -0.112382,1.17301 -2.79553,4.168079 -5.185725,5.788567 -5.726249,6.313823 -6.64263,6.454912 -0.676199,0.104116 -0.981338,0.0082 -1.582479,-0.497679 z m 14.369099,-1.948832 0.06813,-2.066032 h 5.537265 5.537263 v 2.002838 2.002848 l -5.605411,0.06321 -5.605407,0.06324 z"
       style="fill:#ffffff;stroke-width:0.23562813" />
  </g>
</svg>
