<?xml version="1.0" encoding="UTF-8" standalone="no"?>
<svg
   xmlns:dc="http://purl.org/dc/elements/1.1/"
   xmlns:cc="http://creativecommons.org/ns#"
   xmlns:rdf="http://www.w3.org/1999/02/22-rdf-syntax-ns#"
   xmlns:svg="http://www.w3.org/2000/svg"
   xmlns="http://www.w3.org/2000/svg"
   xmlns:sodipodi="http://sodipodi.sourceforge.net/DTD/sodipodi-0.dtd"
   xmlns:inkscape="http://www.inkscape.org/namespaces/inkscape"
   viewBox="0 0 64 64"
   version="1.1"
   id="svg6"
   sodipodi:docname="bitmap-trace.svg"
   width="64"
   height="64"
   inkscape:version="0.92.2 5c3e80d, 2017-08-06">
  <metadata
     id="metadata10">
    <rdf:RDF>
      <cc:Work
         rdf:about="">
        <dc:format>image/svg+xml</dc:format>
        <dc:type
           rdf:resource="http://purl.org/dc/dcmitype/StillImage" />
        <dc:title></dc:title>
      </cc:Work>
    </rdf:RDF>
  </metadata>
  <sodipodi:namedview
     pagecolor="#ffffff"
     bordercolor="#666666"
     borderopacity="1"
     objecttolerance="10"
     gridtolerance="10"
     guidetolerance="10"
     inkscape:pageopacity="0"
     inkscape:pageshadow="2"
     inkscape:window-width="1366"
     inkscape:window-height="717"
     id="namedview8"
     showgrid="false"
     inkscape:zoom="5.2149125"
     inkscape:cx="26.945944"
     inkscape:cy="36.089926"
     inkscape:window-x="0"
     inkscape:window-y="24"
     inkscape:window-maximized="1"
     inkscape:current-layer="svg6" />
  <defs
     id="defs3051">
    <style
       type="text/css"
       id="current-color-scheme">
      .ColorScheme-Text {
        color:#4d4d4d;
      }
      </style>
  </defs>
  <g
     id="g868"
     transform="matrix(0.125,0,0,0.125,3.6080908e-7,55.999997)">
    <path
       id="path943"
       d="m 432.91326,-391.52604 c 102.19291,88.57459 105.82678,249.69971 8.1168,359.89879 C 343.32009,78.57182 181.27965,96.10062 79.086738,7.52602 c -102.19294,-88.5746 -105.82677,-249.69972 -8.1168,-359.8988 97.709972,-110.19908 259.750422,-127.72785 361.943322,-39.15326 z"
       inkscape:connector-curvature="0"
       style="fill:#68b723;fill-opacity:1;stroke-width:11.10955811" />
    <path
       id="path947"
       d="m 511.6355,-223.09649 c -1.55139,61.31164 -25.16123,124.1546 -70.96638,175.81447 C 342.95915,62.91712 180.9187,80.44582 78.725758,-8.12872 30.827128,-49.64437 4.4968168,-107.07717 0.19382677,-167.7712 0.79907677,-101.41453 27.117408,-37.51783 79.078688,7.51902 181.2716,96.09362 343.31975,78.55622 441.02201,-31.63424 c 49.70495,-56.05811 73.00502,-125.29097 70.61349,-191.46225 z"
       inkscape:connector-curvature="0"
       style="opacity:1;fill:#000000;fill-opacity:0.49019608;stroke-width:11.10955811" />
    <path
       style="fill:#000000;fill-opacity:0.49019608;stroke-width:0.70588142"
       d="M 359.29385,-298.92843 H 245.77375 132.25371 l -3.82858,1.94115 c -2.50719,1.27141 -4.56052,2.99724 -5.95037,5.00187 l -2.12175,3.06062 -0.18483,85.70393 L 120,-125.19202 v 36.70997 15.916783 c 0,15.79698 0.0151,15.94227 1.83228,19.2822 2.09541,3.84997 4.91414,6.17867 9.05236,7.47925 2.30896,0.72589 31.28766,0.8798 146.174,0.77352 l 143.29393,-0.1338 2.88972,-1.5468 c 3.73631,-1.99942 7.07385,-5.83241 8.00865,-9.19861 0.50259,-1.8096 0.7417,-39.323133 0.74452,-116.761283 l 0.005,-114.09635 -1.97151,-3.77483 c -1.4352,-2.74689 -2.9099,-4.35625 -5.41288,-5.90487 l -3.4414,-2.12866 -16.43383,-0.21241 -16.43377,-0.21241 z m -210.35269,28.94112 H 275.99984 403.0585 v 98.1175 98.117563 H 275.99984 148.94116 v -98.117563 z m 62.51739,17.75182 c -0.73609,-0.0113 -1.48032,0.008 -2.23066,0.0537 -9.2696,0.59487 -16.83597,5.87206 -21.02618,14.66496 -1.91663,4.0219 -2.18468,5.3288 -2.17832,10.58823 0.008,4.97684 0.32276,6.67725 1.85294,9.96781 3.32905,7.15864 9.43086,12.44071 16.77984,14.52433 4.62542,1.31145 11.98826,0.66896 16.6144,-1.44896 11.67309,-5.34413 17.72257,-18.66552 13.91911,-30.64931 -3.38837,-10.67607 -12.6894,-17.52169 -23.73113,-17.70083 z m 107.55594,38.25546 c -0.80979,0.0113 -1.6035,0.20787 -2.33823,0.59421 -0.9717,0.5107 -13.23815,16.01607 -27.25915,34.45724 -14.02106,18.4411 -26.11284,34.1583 -26.87037,34.92595 -2.04721,2.07447 -6.541,1.89207 -8.69533,-0.353 -0.92287,-0.96174 -6.3615,-7.94365 -12.08543,-15.51422 -5.72397,-7.57058 -11.03852,-14.32059 -11.81112,-14.99998 -2.14983,-1.89048 -5.79999,-1.57818 -8.24998,0.7059 -1.14524,1.06764 -14.06088,19.25292 -28.70125,40.41171 -14.64039,21.15875 -27.22911,39.34404 -27.97606,40.41175 l -1.35938,1.94109 h 112.28338 112.28337 v -17.68556 -17.68566 l -31.16076,-41.43193 c -17.13874,-22.7875 -31.95401,-42.28987 -32.92279,-43.33866 -1.49382,-1.61732 -3.35534,-2.46726 -5.1369,-2.43888 z"
       id="path862"
       inkscape:connector-curvature="0"
       sodipodi:nodetypes="cccccccccsccccccsccccccccccccccccccscsscscccsscsccsccccccccc" />
    <path
       sodipodi:nodetypes="cccccccccsccccccsccccccccccccccccccscsscscccsscsccsccccccccc"
       inkscape:connector-curvature="0"
       id="path838-3"
       d="M 339.29385,-318.92843 H 225.77375 112.25371 l -3.82858,1.94115 c -2.50719,1.27141 -4.56052,2.99724 -5.95037,5.00187 l -2.12175,3.06062 -0.18483,85.70393 L 100,-145.19202 v 36.70997 15.916783 c 0,15.79698 0.0151,15.94227 1.83228,19.2822 2.09541,3.84997 4.91414,6.17867 9.05236,7.47925 2.30896,0.72589 31.28766,0.8798 146.174,0.77352 l 143.29393,-0.1338 2.88972,-1.5468 c 3.73631,-1.99942 7.07385,-5.83241 8.00865,-9.19861 0.50259,-1.8096 0.7417,-39.323133 0.74452,-116.761283 l 0.005,-114.09635 -1.97151,-3.77483 c -1.4352,-2.74689 -2.9099,-4.35625 -5.41288,-5.90487 l -3.4414,-2.12866 -16.43383,-0.21241 -16.43377,-0.21241 z m -210.35269,28.94112 H 255.99984 383.0585 v 98.1175 98.117563 H 255.99984 128.94116 v -98.117563 z m 62.51739,17.75182 c -0.73609,-0.0113 -1.48032,0.008 -2.23066,0.0537 -9.2696,0.59487 -16.83597,5.87206 -21.02618,14.66496 -1.91663,4.0219 -2.18468,5.3288 -2.17832,10.58823 0.008,4.97684 0.32276,6.67725 1.85294,9.96781 3.32905,7.15864 9.43086,12.44071 16.77984,14.52433 4.62542,1.31145 11.98826,0.66896 16.6144,-1.44896 11.67309,-5.34413 17.72257,-18.66552 13.91911,-30.64931 -3.38837,-10.67607 -12.6894,-17.52169 -23.73113,-17.70083 z m 107.55594,38.25546 c -0.80979,0.0113 -1.6035,0.20787 -2.33823,0.59421 -0.9717,0.5107 -13.23815,16.01607 -27.25915,34.45724 -14.02106,18.4411 -26.11284,34.1583 -26.87037,34.92595 -2.04721,2.07447 -6.541,1.89207 -8.69533,-0.353 -0.92287,-0.96174 -6.3615,-7.94365 -12.08543,-15.51422 -5.72397,-7.57058 -11.03852,-14.32059 -11.81112,-14.99998 -2.14983,-1.89048 -5.79999,-1.57818 -8.24998,0.7059 -1.14524,1.06764 -14.06088,19.25292 -28.70125,40.41171 -14.64039,21.15875 -27.22911,39.34404 -27.97606,40.41175 l -1.35938,1.94109 h 112.28338 112.28337 v -17.68556 -17.68566 l -31.16076,-41.43193 c -17.13874,-22.7875 -31.95401,-42.28987 -32.92279,-43.33866 -1.49382,-1.61732 -3.35534,-2.46726 -5.1369,-2.43888 z"
       style="fill:#ffffff;stroke-width:0.70588142" />
  </g>
</svg>
