<?xml version="1.0" encoding="UTF-8" standalone="no"?>
<svg
   xmlns:dc="http://purl.org/dc/elements/1.1/"
   xmlns:cc="http://creativecommons.org/ns#"
   xmlns:rdf="http://www.w3.org/1999/02/22-rdf-syntax-ns#"
   xmlns:svg="http://www.w3.org/2000/svg"
   xmlns="http://www.w3.org/2000/svg"
   xmlns:sodipodi="http://sodipodi.sourceforge.net/DTD/sodipodi-0.dtd"
   xmlns:inkscape="http://www.inkscape.org/namespaces/inkscape"
   viewBox="0 0 64 64"
   version="1.1"
   id="svg7"
   sodipodi:docname="call-end-symbolic.svg"
   width="64"
   height="64"
   inkscape:version="0.92.2 5c3e80d, 2017-08-06">
  <metadata
     id="metadata11">
    <rdf:RDF>
      <cc:Work
         rdf:about="">
        <dc:format>image/svg+xml</dc:format>
        <dc:type
           rdf:resource="http://purl.org/dc/dcmitype/StillImage" />
        <dc:title />
      </cc:Work>
    </rdf:RDF>
  </metadata>
  <sodipodi:namedview
     pagecolor="#ffffff"
     bordercolor="#666666"
     borderopacity="1"
     objecttolerance="10"
     gridtolerance="10"
     guidetolerance="10"
     inkscape:pageopacity="0"
     inkscape:pageshadow="2"
     inkscape:window-width="1366"
     inkscape:window-height="717"
     id="namedview9"
     showgrid="false"
     inkscape:zoom="2.6074563"
     inkscape:cx="45.761539"
     inkscape:cy="18.188099"
     inkscape:window-x="0"
     inkscape:window-y="24"
     inkscape:window-maximized="1"
     inkscape:current-layer="svg7" />
  <defs
     id="defs3051">
    <style
       type="text/css"
       id="current-color-scheme">
      .ColorScheme-Text {
        color:#4d4d4d;
      }
      </style>
  </defs>
  <g
     id="g840"
     transform="matrix(0.125,0,0,0.125,6.1868113e-8,56.000004)">
    <path
       style="fill:#c6262e;fill-opacity:1;stroke-width:11.10955811"
       inkscape:connector-curvature="0"
       d="m 432.91328,-391.52606 c 102.1929,88.5746 105.82676,249.69974 8.1168,359.89882 C 343.32007,78.571848 181.27963,96.100616 79.086738,7.526016 -23.106204,-81.048568 -26.740031,-242.17372 70.969938,-352.3728 168.67989,-462.57188 330.72033,-480.10064 432.91328,-391.52606 Z"
       id="path27-5" />
    <path
       style="opacity:1;fill:#000000;fill-opacity:0.49019608;stroke-width:11.10955811"
       inkscape:connector-curvature="0"
       d="m 511.6355,-223.09648 c -1.55138,61.31162 -25.16122,124.154568 -70.96637,175.81444 C 342.95912,62.91708 180.91868,80.445808 78.725756,-8.128744 30.827124,-49.64436 4.4968185,-107.0772 0.19382651,-167.77118 0.79908011,-101.41456 27.117404,-37.517824 79.078688,7.519024 181.27158,96.093624 343.31972,78.55616 441.02203,-31.634232 490.72697,-87.692376 514.02704,-156.92522 511.6355,-223.09648 Z"
       id="path51-6" />
    <path
       style="fill:#000000;fill-opacity:0.49019608;stroke-width:0.64081132"
       d="m 350.70292,-16.577051 c -32.04248,-3.328342 -69.44997,-21.219057 -106.69509,-51.028593 -33.43167,-26.757406 -68.44274,-64.197036 -89.57451,-95.787886 -28.69601,-42.89898 -39.95724,-83.67367 -31.89109,-115.47134 1.57284,-6.20031 5.02419,-14.36478 7.14366,-16.89894 l 1.21874,-1.45719 38.67737,38.69471 38.67737,38.69472 -1.82344,2.75539 c -1.47929,2.23536 -1.86673,3.61289 -2.05286,7.29887 -0.40864,8.09267 3.43644,15.8878 14.99763,30.4047 16.79552,21.08941 36.73953,40.76096 61.02028,60.18665 17.52854,14.02362 26.57966,19.385 33.58084,19.89142 4.51295,0.32644 6.00998,-0.0274 9.15939,-2.16459 l 2.46273,-1.67127 37.86154,37.881679 37.86153,37.881663 -1.60203,1.277842 c -2.91349,2.323928 -11.7743,6.270685 -16.9815,7.563855 -10.03773,2.492801 -20.60973,3.135663 -32.04056,1.94831 z m 18.41682,-54.573491 -37.96607,-37.970088 11.69706,-11.62221 c 6.43338,-6.39221 12.40389,-11.98253 13.2678,-12.42291 2.29401,-1.16939 7.70422,-0.98922 10.29926,0.34299 3.04535,1.56338 63.07181,61.426922 64.51005,64.334968 1.41472,2.86048 1.43218,8.044624 0.0358,10.640576 -0.56873,1.057339 -6.17392,7.039909 -12.45597,13.294599 l -11.4219,11.372158 -37.96606,-37.970083 z m -193.67607,-193.676088 -38.76246,-38.76644 10.56875,-10.60667 c 5.81281,-5.83367 11.52339,-11.20392 12.69016,-11.93389 3.09294,-1.93503 6.37614,-2.5081 9.7336,-1.69896 2.65189,0.6391 5.47726,3.27607 35.15433,32.81034 32.14006,31.98542 34.64993,34.79693 34.67645,38.84392 0.0315,4.80295 -1.12065,6.43645 -12.99428,18.42333 -6.37137,6.43214 -11.74626,11.6948 -11.9442,11.6948 -0.19794,0 -17.803,-17.44489 -39.12235,-38.76643 z"
       id="path29"
       inkscape:connector-curvature="0" />
    <path
       inkscape:connector-curvature="0"
       id="path27"
       d="m 330.70292,-36.577051 c -32.04248,-3.328342 -69.44997,-21.219057 -106.69509,-51.028593 -33.43167,-26.757406 -68.44274,-64.197036 -89.57451,-95.787886 -28.69601,-42.89898 -39.957241,-83.67367 -31.89109,-115.47134 1.57284,-6.20031 5.02419,-14.36478 7.14366,-16.89894 l 1.21874,-1.45719 38.67737,38.69471 38.67737,38.69472 -1.82344,2.75539 c -1.47929,2.23536 -1.86673,3.61289 -2.05286,7.29887 -0.40864,8.09267 3.43644,15.8878 14.99763,30.4047 16.79552,21.08941 36.73953,40.76096 61.02028,60.18665 17.52854,14.02362 26.57966,19.385 33.58084,19.89142 4.51295,0.32644 6.00998,-0.0274 9.15939,-2.16459 l 2.46273,-1.67127 37.86154,37.881679 37.86153,37.881663 -1.60203,1.277842 c -2.91349,2.323928 -11.7743,6.270685 -16.9815,7.563855 -10.03773,2.492801 -20.60973,3.135663 -32.04056,1.94831 z m 18.41682,-54.573491 -37.96607,-37.970088 11.69706,-11.62221 c 6.43338,-6.39221 12.40389,-11.98253 13.2678,-12.42291 2.29401,-1.16939 7.70422,-0.98922 10.29926,0.34299 3.04535,1.56338 63.07181,61.426922 64.51005,64.334968 1.41472,2.86048 1.43218,8.044624 0.0358,10.640576 -0.56873,1.057339 -6.17392,7.039909 -12.45597,13.294599 l -11.4219,11.372158 -37.96606,-37.970083 z m -193.67607,-193.676088 -38.76246,-38.76644 10.56875,-10.60667 c 5.81281,-5.83367 11.52339,-11.20392 12.69016,-11.93389 3.09294,-1.93503 6.37614,-2.5081 9.7336,-1.69896 2.65189,0.6391 5.47726,3.27607 35.15433,32.81034 32.14006,31.98542 34.64993,34.79693 34.67645,38.84392 0.0315,4.80295 -1.12065,6.43645 -12.99428,18.42333 -6.37137,6.43214 -11.74626,11.6948 -11.9442,11.6948 -0.19794,0 -17.803,-17.44489 -39.12235,-38.76643 z"
       style="fill:#ffffff;stroke-width:0.64081132" />
  </g>
</svg>
