<?xml version="1.0" encoding="UTF-8" standalone="no"?>
<svg
   xmlns:dc="http://purl.org/dc/elements/1.1/"
   xmlns:cc="http://creativecommons.org/ns#"
   xmlns:rdf="http://www.w3.org/1999/02/22-rdf-syntax-ns#"
   xmlns:svg="http://www.w3.org/2000/svg"
   xmlns="http://www.w3.org/2000/svg"
   xmlns:sodipodi="http://sodipodi.sourceforge.net/DTD/sodipodi-0.dtd"
   xmlns:inkscape="http://www.inkscape.org/namespaces/inkscape"
   viewBox="0 0 64 64"
   version="1.1"
   id="svg6"
   sodipodi:docname="code-typedef.svg"
   width="64"
   height="64"
   inkscape:version="0.92.2 5c3e80d, 2017-08-06">
  <metadata
     id="metadata10">
    <rdf:RDF>
      <cc:Work
         rdf:about="">
        <dc:format>image/svg+xml</dc:format>
        <dc:type
           rdf:resource="http://purl.org/dc/dcmitype/StillImage" />
        <dc:title></dc:title>
      </cc:Work>
    </rdf:RDF>
  </metadata>
  <sodipodi:namedview
     pagecolor="#ffffff"
     bordercolor="#666666"
     borderopacity="1"
     objecttolerance="10"
     gridtolerance="10"
     guidetolerance="10"
     inkscape:pageopacity="0"
     inkscape:pageshadow="2"
     inkscape:window-width="1366"
     inkscape:window-height="717"
     id="namedview8"
     showgrid="false"
     inkscape:zoom="4.9166667"
     inkscape:cx="22.284267"
     inkscape:cy="32.771353"
     inkscape:window-x="0"
     inkscape:window-y="24"
     inkscape:window-maximized="1"
     inkscape:current-layer="svg6" />
  <defs
     id="defs3051">
    <style
       type="text/css"
       id="current-color-scheme">
      .ColorScheme-Text {
        color:#4d4d4d;
      }
      </style>
  </defs>
  <g
     id="g874"
     transform="matrix(0.125,0,0,0.125,-1.576692e-8,56.000005)">
    <path
       style="fill:#3689e6;fill-opacity:1;stroke-width:11.10955811"
       inkscape:connector-curvature="0"
       d="m 432.91327,-391.52603 c 102.19291,88.57459 105.82678,249.69971 8.1168,359.89879 C 343.3201,78.57183 181.27964,96.10063 79.086729,7.52602 -23.106186,-81.04857 -26.740042,-242.17369 70.969928,-352.37277 168.6799,-462.57185 330.72036,-480.10062 432.91327,-391.52603 Z"
       id="path27" />
    <path
       style="opacity:1;fill:#000000;fill-opacity:0.49019608;stroke-width:11.10955811"
       inkscape:connector-curvature="0"
       d="m 511.63551,-223.09648 c -1.55139,61.31165 -25.16123,124.15461 -70.96638,175.81447 C 342.95915,62.91713 180.91869,80.44583 78.725776,-8.12871 30.827124,-49.64436 4.4968216,-107.07716 0.1938277,-167.77119 0.79907936,-101.41452 27.117411,-37.51782 79.078682,7.51907 181.27159,96.09363 343.31975,78.55623 441.02202,-31.63423 c 49.70495,-56.05811 73.00502,-125.29096 70.61349,-191.46225 z"
       id="path51" />
    <g
       style="fill:#000000;fill-opacity:0.49019608"
       transform="translate(20,20)"
       id="g860">
      <rect
         ry="22.406013"
         y="-308.61017"
         x="139"
         height="175.11017"
         width="273"
         id="rect852"
         style="opacity:1;fill:#000000;fill-opacity:0.49019608;stroke:none;stroke-width:35.05990982;stroke-linecap:round;stroke-miterlimit:4;stroke-dasharray:none;stroke-dashoffset:0;stroke-opacity:1" />
      <rect
         ry="22.406"
         y="-94.5"
         x="139"
         height="58.5"
         width="273"
         id="rect854"
         style="opacity:1;fill:#000000;fill-opacity:0.49019608;stroke:none;stroke-width:35;stroke-linecap:round;stroke-miterlimit:4;stroke-dasharray:none;stroke-dashoffset:0;stroke-opacity:1" />
      <path
         inkscape:connector-curvature="0"
         id="path856"
         d="m 139,-75 v 19.5 h -39 v -156 h 39 v 19.5 h -19.5 v 117 z"
         style="fill:#000000;fill-opacity:0.49019608;stroke:none;stroke-width:1px;stroke-linecap:butt;stroke-linejoin:miter;stroke-opacity:1" />
      <path
         inkscape:connector-curvature="0"
         id="path858"
         d="m 139.32422,-346.95898 a 37.5,37.5 0 0 0 -37.5,37.5 A 37.5,37.5 0 0 0 139,-271.97461 v -14.23047 c 0,-12.41293 9.99332,-22.4043 22.40625,-22.4043 h 15.375 a 37.5,37.5 0 0 0 0.043,-0.8496 37.5,37.5 0 0 0 -37.5,-37.5 z"
         style="opacity:1;fill:#000000;fill-opacity:0.49019608;stroke:none;stroke-width:34.05639267;stroke-linecap:round;stroke-miterlimit:4;stroke-dasharray:none;stroke-dashoffset:0;stroke-opacity:1" />
    </g>
    <g
       id="g850">
      <rect
         style="opacity:1;fill:#ffffff;fill-opacity:1;stroke:none;stroke-width:35.05990982;stroke-linecap:round;stroke-miterlimit:4;stroke-dasharray:none;stroke-dashoffset:0;stroke-opacity:1"
         id="rect835"
         width="273"
         height="175.11017"
         x="139"
         y="-308.61017"
         ry="22.406013" />
      <rect
         style="opacity:1;fill:#ffffff;fill-opacity:1;stroke:none;stroke-width:35;stroke-linecap:round;stroke-miterlimit:4;stroke-dasharray:none;stroke-dashoffset:0;stroke-opacity:1"
         id="rect837"
         width="273"
         height="58.5"
         x="139"
         y="-94.5"
         ry="22.406" />
      <path
         style="fill:#ffffff;fill-opacity:1;stroke:none;stroke-width:1px;stroke-linecap:butt;stroke-linejoin:miter;stroke-opacity:1"
         d="m 139,-75 v 19.5 h -39 v -156 h 39 v 19.5 h -19.5 v 117 z"
         id="path839"
         inkscape:connector-curvature="0" />
      <path
         style="opacity:1;fill:#ffffff;fill-opacity:1;stroke:none;stroke-width:34.05639267;stroke-linecap:round;stroke-miterlimit:4;stroke-dasharray:none;stroke-dashoffset:0;stroke-opacity:1"
         d="m 139.32422,-346.95898 a 37.5,37.5 0 0 0 -37.5,37.5 A 37.5,37.5 0 0 0 139,-271.97461 v -14.23047 c 0,-12.41293 9.99332,-22.4043 22.40625,-22.4043 h 15.375 a 37.5,37.5 0 0 0 0.043,-0.8496 37.5,37.5 0 0 0 -37.5,-37.5 z"
         id="path841"
         inkscape:connector-curvature="0" />
    </g>
  </g>
</svg>
