<?xml version="1.0" encoding="UTF-8" standalone="no"?>
<svg
   xmlns:dc="http://purl.org/dc/elements/1.1/"
   xmlns:cc="http://creativecommons.org/ns#"
   xmlns:rdf="http://www.w3.org/1999/02/22-rdf-syntax-ns#"
   xmlns:svg="http://www.w3.org/2000/svg"
   xmlns="http://www.w3.org/2000/svg"
   xmlns:sodipodi="http://sodipodi.sourceforge.net/DTD/sodipodi-0.dtd"
   xmlns:inkscape="http://www.inkscape.org/namespaces/inkscape"
   viewBox="0 0 64 64"
   version="1.1"
   id="svg6"
   sodipodi:docname="code-context.svg"
   width="64"
   height="64"
   inkscape:version="0.92.2 5c3e80d, 2017-08-06">
  <metadata
     id="metadata10">
    <rdf:RDF>
      <cc:Work
         rdf:about="">
        <dc:format>image/svg+xml</dc:format>
        <dc:type
           rdf:resource="http://purl.org/dc/dcmitype/StillImage" />
        <dc:title></dc:title>
      </cc:Work>
    </rdf:RDF>
  </metadata>
  <sodipodi:namedview
     pagecolor="#ffffff"
     bordercolor="#666666"
     borderopacity="1"
     objecttolerance="10"
     gridtolerance="10"
     guidetolerance="10"
     inkscape:pageopacity="0"
     inkscape:pageshadow="2"
     inkscape:window-width="1366"
     inkscape:window-height="717"
     id="namedview8"
     showgrid="false"
     inkscape:zoom="2.4583333"
     inkscape:cx="27.837316"
     inkscape:cy="43.620059"
     inkscape:window-x="0"
     inkscape:window-y="24"
     inkscape:window-maximized="1"
     inkscape:current-layer="svg6" />
  <defs
     id="defs3051">
    <style
       type="text/css"
       id="current-color-scheme">
      .ColorScheme-Text {
        color:#4d4d4d;
      }
      </style>
  </defs>
  <g
     id="g847"
     transform="matrix(0.125,0,0,0.125,-1.576692e-8,55.999978)">
    <path
       style="fill:#3689e6;fill-opacity:1;stroke-width:11.10955811"
       inkscape:connector-curvature="0"
       d="m 432.91327,-391.52606 c 102.19291,88.57459 105.82678,249.69971 8.1168,359.89879 C 343.3201,78.5718 181.27964,96.1006 79.086729,7.52599 -23.106186,-81.0486 -26.740042,-242.17372 70.969928,-352.3728 168.6799,-462.57188 330.72036,-480.10065 432.91327,-391.52606 Z"
       id="path27" />
    <path
       style="opacity:1;fill:#000000;fill-opacity:0.49019608;stroke-width:11.10955811"
       inkscape:connector-curvature="0"
       d="M 511.63551,-223.09651 C 510.08412,-161.78486 486.47428,-98.9419 440.66913,-47.28204 342.95915,62.9171 180.91869,80.4458 78.725776,-8.12874 30.827124,-49.64439 4.4968216,-107.07719 0.1938277,-167.77122 0.79907936,-101.41455 27.117411,-37.51785 79.078682,7.51904 181.27159,96.0936 343.31975,78.5562 441.02202,-31.63426 c 49.70495,-56.05811 73.00502,-125.29096 70.61349,-191.46225 z"
       id="path51" />
    <path
       style="fill:#000000;fill-opacity:0.49019608;stroke-width:3.4766798"
       d="m 166.69533,-27.901397 c -16.758,-15.895437 -10.69684,-34.471997 -11.51886,-61.145043 -1.71297,-55.58248 -4.68046,-63.83708 -24.86642,-69.17055 C 121.43639,-160.56156 120,-162.54951 120,-172.48568 c 0,-10.03668 1.46521,-11.99225 11.21728,-14.97174 19.75236,-6.03475 22.23563,-13.15979 23.95919,-68.74381 0.22043,-25.74737 -2.95404,-44.15313 11.70954,-61.06138 8.07306,-9.30883 12.5049,-11.48847 21.41177,-10.53048 9.54393,1.02652 11.23163,2.62779 11.23163,10.65642 0,5.19661 -2.0647,10.69544 -4.58824,12.21963 -17.66314,10.66829 -16.7243,7.67845 -18.35294,58.44699 -1.35925,42.37087 -2.34486,49.09913 -8.85813,60.46891 -5.87139,10.24932 -6.61948,14.04514 -3.76202,19.08866 10.00495,17.65934 12.62015,32.9001 12.62015,73.54763 0.34699,23.201986 -6.1335,38.509746 10.83897,47.671196 12.33948,6.66058 16.0361,14.878933 10.54047,23.433512 -6.15818,9.585912 -20.27492,7.039362 -31.27234,-5.641255 z m 185.42055,5.821754 c -3.19821,-10.767009 0.36915,-19.425521 9.27048,-22.500821 18.70598,-6.2897 13.92442,-35.679086 13.97857,-53.210076 0.041,-34.90276 1.00572,-42.24532 7.68215,-58.46692 l 7.63532,-18.55138 -6.87062,-11.99277 c -5.96556,-10.41298 -7.07209,-18.27307 -8.40001,-59.66844 -0.73027,-29.43098 1.15007,-45.94325 -17.58824,-57.82387 -2.94412,-1.8669 -5.35294,-7.64614 -5.35294,-12.84275 0,-8.02863 1.68768,-9.6299 11.23163,-10.65642 8.90687,-0.95799 13.33871,1.22165 21.41177,10.53048 16.96162,16.1233 10.8706,34.00601 11.70954,61.06138 1.72356,55.58402 4.20683,62.70906 23.95919,68.74381 9.75207,2.97949 11.21728,4.93506 11.21728,14.97174 0,9.93617 -1.43639,11.92412 -10.31003,14.26869 -20.18598,5.33347 -23.15347,13.58807 -24.86644,69.17055 -2.47711,32.508806 6.42334,40.456766 -11.51886,61.145043 -11.08196,12.778115 -30.12998,16.119407 -33.18879,5.821754 z"
       id="path841"
       inkscape:connector-curvature="0"
       sodipodi:nodetypes="cccscccsscsscccscsccscsccsscccscccs" />
    <path
       sodipodi:nodetypes="cccscccsscsscccscsccscsccsscccscccs"
       inkscape:connector-curvature="0"
       id="path846"
       d="m 146.69533,-47.901397 c -16.758,-15.895437 -10.69684,-34.471997 -11.51886,-61.145043 -1.71297,-55.58248 -4.68046,-63.83708 -24.86642,-69.17055 C 101.43639,-180.56156 100,-182.54951 100,-192.48568 c 0,-10.03668 1.46521,-11.99225 11.21728,-14.97174 19.75236,-6.03475 22.23563,-13.15979 23.95919,-68.74381 0.22043,-25.74737 -2.95404,-44.15313 11.70954,-61.06138 8.07306,-9.30883 12.5049,-11.48847 21.41177,-10.53048 9.54393,1.02652 11.23163,2.62779 11.23163,10.65642 0,5.19661 -2.0647,10.69544 -4.58824,12.21963 -17.66314,10.66829 -16.7243,7.67845 -18.35294,58.44699 -1.35925,42.37087 -2.34486,49.09913 -8.85813,60.46891 -5.87139,10.24932 -6.61948,14.04514 -3.76202,19.08866 10.00495,17.65934 12.62015,32.9001 12.62015,73.54763 0.34699,23.201986 -6.1335,38.509746 10.83897,47.671196 12.33948,6.66058 16.0361,14.878933 10.54047,23.433512 -6.15818,9.585912 -20.27492,7.039362 -31.27234,-5.641255 z m 185.42055,5.821754 c -3.19821,-10.767009 0.36915,-19.425521 9.27048,-22.500821 18.70598,-6.2897 13.92442,-35.679086 13.97857,-53.210076 0.041,-34.90276 1.00572,-42.24532 7.68215,-58.46692 l 7.63532,-18.55138 -6.87062,-11.99277 c -5.96556,-10.41298 -7.07209,-18.27307 -8.40001,-59.66844 -0.73027,-29.43098 1.15007,-45.94325 -17.58824,-57.82387 -2.94412,-1.8669 -5.35294,-7.64614 -5.35294,-12.84275 0,-8.02863 1.68768,-9.6299 11.23163,-10.65642 8.90687,-0.95799 13.33871,1.22165 21.41177,10.53048 16.96162,16.1233 10.8706,34.00601 11.70954,61.06138 1.72356,55.58402 4.20683,62.70906 23.95919,68.74381 9.75207,2.97949 11.21728,4.93506 11.21728,14.97174 0,9.93617 -1.43639,11.92412 -10.31003,14.26869 -20.18598,5.33347 -23.15347,13.58807 -24.86644,69.17055 -2.47711,32.508806 6.42334,40.456766 -11.51886,61.145043 -11.08196,12.778115 -30.12998,16.119407 -33.18879,5.821754 z"
       style="fill:#ffffff;stroke-width:3.4766798" />
  </g>
</svg>
