<?xml version="1.0" encoding="UTF-8" standalone="no"?>
<svg
   xmlns:dc="http://purl.org/dc/elements/1.1/"
   xmlns:cc="http://creativecommons.org/ns#"
   xmlns:rdf="http://www.w3.org/1999/02/22-rdf-syntax-ns#"
   xmlns:svg="http://www.w3.org/2000/svg"
   xmlns="http://www.w3.org/2000/svg"
   xmlns:sodipodi="http://sodipodi.sourceforge.net/DTD/sodipodi-0.dtd"
   xmlns:inkscape="http://www.inkscape.org/namespaces/inkscape"
   viewBox="0 0 64 64"
   version="1.1"
   id="svg6"
   sodipodi:docname="composition.svg"
   width="64"
   height="64"
   inkscape:version="0.92.2 5c3e80d, 2017-08-06">
  <metadata
     id="metadata10">
    <rdf:RDF>
      <cc:Work
         rdf:about="">
        <dc:format>image/svg+xml</dc:format>
        <dc:type
           rdf:resource="http://purl.org/dc/dcmitype/StillImage" />
        <dc:title></dc:title>
      </cc:Work>
    </rdf:RDF>
  </metadata>
  <sodipodi:namedview
     pagecolor="#ffffff"
     bordercolor="#666666"
     borderopacity="1"
     objecttolerance="10"
     gridtolerance="10"
     guidetolerance="10"
     inkscape:pageopacity="0"
     inkscape:pageshadow="2"
     inkscape:window-width="1366"
     inkscape:window-height="717"
     id="namedview8"
     showgrid="false"
     inkscape:zoom="5.2149125"
     inkscape:cx="49.112218"
     inkscape:cy="19.484708"
     inkscape:window-x="0"
     inkscape:window-y="24"
     inkscape:window-maximized="1"
     inkscape:current-layer="svg6" />
  <defs
     id="defs3051">
    <style
       type="text/css"
       id="current-color-scheme">
      .ColorScheme-Text {
        color:#4d4d4d;
      }
      </style>
  </defs>
  <g
     id="g876"
     transform="matrix(0.125,0,0,0.125,2.8323279e-7,56)">
    <path
       id="path1148"
       d="m 432.9132,-391.52603 c 102.19309,88.57459 105.82677,249.69971 8.11688,359.898787 C 343.32022,78.571837 181.27977,96.100613 79.086636,7.5260212 -23.106121,-81.048571 -26.740136,-242.17368 70.970101,-352.37277 168.67996,-462.57185 330.72041,-480.10062 432.9132,-391.52603 Z"
       inkscape:connector-curvature="0"
       style="fill:#3689e6;fill-opacity:1;stroke-width:11.10955811" />
    <path
       id="path1150"
       d="m 511.63547,-223.09648 c -1.55116,61.31165 -25.16107,124.154606 -70.9663,175.814469 C 342.95931,62.917109 180.91883,80.445845 78.725691,-8.1287068 30.826981,-49.644363 4.4969027,-107.07715 0.19391062,-167.77119 0.79901293,-101.41451 27.117376,-37.517827 79.078699,7.5190612 181.27146,96.093613 343.31984,78.556189 441.02218,-31.634235 490.72712,-87.692331 514.02715,-156.92519 511.63547,-223.09648 Z"
       inkscape:connector-curvature="0"
       style="opacity:1;fill:#000000;fill-opacity:0.49019608;stroke-width:11.10955811" />
    <rect
       style="opacity:1;fill:#000000;fill-opacity:0.49019608;stroke:none;stroke-width:4.04025793;stroke-miterlimit:4;stroke-dasharray:none;stroke-dashoffset:0;stroke-opacity:1"
       id="rect858"
       width="60.27058"
       height="133.05507"
       x="247.22905"
       y="-327.99969" />
    <path
       id="path860"
       d="m 307.63672,-211.30664 -0.13672,0.002 v 16.35938 h -60.27148 v -15.16407 h -0.008 L 176.47461,-116 276.3457,-14.947266 375.90234,-116 Z m -30.5293,22.19141 52.05469,68.40429 -52.65039,53.441409 -52.81641,-53.441409 z"
       style="fill:#000000;fill-opacity:0.49019608;stroke:none;stroke-width:1px;stroke-linecap:butt;stroke-linejoin:miter;stroke-opacity:1"
       inkscape:connector-curvature="0" />
    <g
       id="g856">
      <rect
         style="opacity:1;fill:#ffffff;fill-opacity:1;stroke:none;stroke-width:4.04025793;stroke-miterlimit:4;stroke-dasharray:none;stroke-dashoffset:0;stroke-opacity:1"
         id="rect34"
         width="60.27058"
         height="133.05507"
         x="227.22865"
         y="-347.99997" />
      <path
         style="fill:#ffffff;fill-opacity:1;stroke:none;stroke-width:1px;stroke-linecap:butt;stroke-linejoin:miter;stroke-opacity:1"
         d="M 287.63672,-231.30664 227.2207,-230.10938 156.47461,-136 256.3457,-34.947266 355.90234,-136 Z m -30.5293,22.19141 52.05469,68.40429 -52.65039,53.441409 -52.81641,-53.441409 z"
         id="path831"
         inkscape:connector-curvature="0" />
    </g>
  </g>
</svg>
