<?xml version="1.0" encoding="UTF-8" standalone="no"?>
<svg
   xmlns:dc="http://purl.org/dc/elements/1.1/"
   xmlns:cc="http://creativecommons.org/ns#"
   xmlns:rdf="http://www.w3.org/1999/02/22-rdf-syntax-ns#"
   xmlns:svg="http://www.w3.org/2000/svg"
   xmlns="http://www.w3.org/2000/svg"
   xmlns:sodipodi="http://sodipodi.sourceforge.net/DTD/sodipodi-0.dtd"
   xmlns:inkscape="http://www.inkscape.org/namespaces/inkscape"
   viewBox="0 0 64 64"
   version="1.1"
   id="svg6"
   sodipodi:docname="debug-run.svg"
   width="64"
   height="64"
   inkscape:version="0.92.2 5c3e80d, 2017-08-06">
  <metadata
     id="metadata10">
    <rdf:RDF>
      <cc:Work
         rdf:about="">
        <dc:format>image/svg+xml</dc:format>
        <dc:type
           rdf:resource="http://purl.org/dc/dcmitype/StillImage" />
        <dc:title></dc:title>
      </cc:Work>
    </rdf:RDF>
  </metadata>
  <sodipodi:namedview
     pagecolor="#ffffff"
     bordercolor="#666666"
     borderopacity="1"
     objecttolerance="10"
     gridtolerance="10"
     guidetolerance="10"
     inkscape:pageopacity="0"
     inkscape:pageshadow="2"
     inkscape:window-width="1366"
     inkscape:window-height="717"
     id="namedview8"
     showgrid="false"
     inkscape:zoom="0.43457604"
     inkscape:cx="175.28494"
     inkscape:cy="268.74013"
     inkscape:window-x="0"
     inkscape:window-y="24"
     inkscape:window-maximized="1"
     inkscape:current-layer="svg6" />
  <defs
     id="defs3051">
    <style
       type="text/css"
       id="current-color-scheme">
      .ColorScheme-Text {
        color:#4d4d4d;
      }
      </style>
  </defs>
  <g
     id="g885"
     transform="matrix(0.125,0,0,0.125,-1.576692e-8,56)">
    <path
       style="fill:#3689e6;fill-opacity:1;stroke-width:11.10955811"
       inkscape:connector-curvature="0"
       d="m 432.91327,-391.52604 c 102.19291,88.57459 105.82678,249.69971 8.1168,359.898794 C 343.3201,78.571824 181.27964,96.100624 79.086729,7.5260143 -23.106186,-81.048576 -26.740042,-242.1737 70.969928,-352.37278 168.6799,-462.57186 330.72036,-480.10063 432.91327,-391.52604 Z"
       id="path27" />
    <path
       style="opacity:1;fill:#000000;fill-opacity:0.49019608;stroke-width:11.10955811"
       inkscape:connector-curvature="0"
       d="m 511.63551,-223.09649 c -1.55139,61.31165 -25.16123,124.154614 -70.96638,175.814474 C 342.95915,62.917124 180.91869,80.445824 78.725776,-8.1287157 30.827124,-49.644366 4.4968216,-107.07717 0.19382772,-167.7712 0.79907938,-101.41453 27.117411,-37.517826 79.078682,7.5190643 181.27159,96.093624 343.31975,78.556224 441.02202,-31.634236 490.72697,-87.692346 514.02704,-156.9252 511.63551,-223.09649 Z"
       id="path51" />
    <g
       style="fill:#000000;fill-opacity:0.49019608"
       transform="translate(20,20.000014)"
       id="g68">
      <g
         style="fill:#000000;fill-opacity:0.49019608"
         id="g64"
         transform="translate(1.576692e-8,-989.36219)">
        <path
           style="fill:#000000;fill-opacity:0.49019608;stroke-width:1.59183669"
           d="m 125.24365,918.37836 c -8.44863,-2.04583 -16.30958,-7.97562 -20.88019,-15.7507 L 100,895.20498 V 796.5111 697.81722 l 4.41986,-7.51891 c 2.86612,-4.87575 7.06303,-9.07266 11.93878,-11.93878 l 7.51891,-4.41986 H 256 388.12245 l 7.51891,4.41986 c 4.87575,2.86612 9.07266,7.06303 11.93878,11.93878 L 412,697.81722 v 98.81871 98.81871 l -4.78971,7.74718 c -3.40167,5.50208 -7.07945,8.92572 -12.69087,11.81395 l -7.90116,4.06676 -128.18668,0.25343 c -70.50267,0.13945 -130.43724,-0.29153 -133.18793,-0.9576 z m 261.35931,-24.69287 c 3.11589,-3.11588 3.90724,-5.53391 3.90724,-11.93878 v -8.03153 H 256 121.4898 v 8.03153 c 0,6.40487 0.79135,8.8229 3.90722,11.93878 l 3.90725,3.90724 H 256 382.69573 Z m 3.90724,-115.55288 v -74.88867 l -3.90724,-3.90723 -3.90723,-3.90724 H 256.28702 c -125.47392,0 -126.43972,0.0244 -130.60296,3.29921 l -4.19426,3.2992 v 75.49671 75.49671 H 256 390.5102 Z"
           id="path62"
           inkscape:connector-curvature="0"
           sodipodi:nodetypes="cscccsscccsscccsccsccscccscccccccccsccccccc" />
      </g>
      <path
         inkscape:connector-curvature="0"
         id="path66"
         d="m 183.58821,-234.11646 h 75.86007 v -37.92996 l 75.86006,56.89501 -75.86006,56.89502 v -37.93004 h -75.86007 z"
         style="fill:#000000;fill-opacity:0.49019608;stroke:none;stroke-width:0.97256482px;stroke-linecap:butt;stroke-linejoin:miter;stroke-opacity:1" />
    </g>
    <g
       id="g60">
      <g
         transform="translate(1.576692e-8,-989.36219)"
         id="g846">
        <path
           sodipodi:nodetypes="cscccsscccsscccsccsccscccscccccccccsccccccc"
           inkscape:connector-curvature="0"
           id="path941"
           d="m 125.24365,918.37836 c -8.44863,-2.04583 -16.30958,-7.97562 -20.88019,-15.7507 L 100,895.20498 V 796.5111 697.81722 l 4.41986,-7.51891 c 2.86612,-4.87575 7.06303,-9.07266 11.93878,-11.93878 l 7.51891,-4.41986 H 256 388.12245 l 7.51891,4.41986 c 4.87575,2.86612 9.07266,7.06303 11.93878,11.93878 L 412,697.81722 v 98.81871 98.81871 l -4.78971,7.74718 c -3.40167,5.50208 -7.07945,8.92572 -12.69087,11.81395 l -7.90116,4.06676 -128.18668,0.25343 c -70.50267,0.13945 -130.43724,-0.29153 -133.18793,-0.9576 z m 261.35931,-24.69287 c 3.11589,-3.11588 3.90724,-5.53391 3.90724,-11.93878 v -8.03153 H 256 121.4898 v 8.03153 c 0,6.40487 0.79135,8.8229 3.90722,11.93878 l 3.90725,3.90724 H 256 382.69573 Z m 3.90724,-115.55288 v -74.88867 l -3.90724,-3.90723 -3.90723,-3.90724 H 256.28702 c -125.47392,0 -126.43972,0.0244 -130.60296,3.29921 l -4.19426,3.2992 v 75.49671 75.49671 H 256 390.5102 Z"
           style="fill:#ffffff;stroke-width:1.59183669" />
      </g>
      <path
         style="fill:#ffffff;fill-opacity:1;stroke:none;stroke-width:0.97256482px;stroke-linecap:butt;stroke-linejoin:miter;stroke-opacity:1"
         d="m 183.58821,-234.11646 h 75.86007 v -37.92996 l 75.86006,56.89501 -75.86006,56.89502 v -37.93004 h -75.86007 z"
         id="path837"
         inkscape:connector-curvature="0" />
    </g>
  </g>
</svg>
