<?xml version="1.0" encoding="UTF-8" standalone="no"?>
<svg
   xmlns:dc="http://purl.org/dc/elements/1.1/"
   xmlns:cc="http://creativecommons.org/ns#"
   xmlns:rdf="http://www.w3.org/1999/02/22-rdf-syntax-ns#"
   xmlns:svg="http://www.w3.org/2000/svg"
   xmlns="http://www.w3.org/2000/svg"
   xmlns:sodipodi="http://sodipodi.sourceforge.net/DTD/sodipodi-0.dtd"
   xmlns:inkscape="http://www.inkscape.org/namespaces/inkscape"
   viewBox="0 0 64 64"
   version="1.1"
   id="svg8"
   sodipodi:docname="dialog-tile-clones.svg"
   width="64"
   height="64"
   inkscape:version="0.92.2 5c3e80d, 2017-08-06">
  <metadata
     id="metadata12">
    <rdf:RDF>
      <cc:Work
         rdf:about="">
        <dc:format>image/svg+xml</dc:format>
        <dc:type
           rdf:resource="http://purl.org/dc/dcmitype/StillImage" />
        <dc:title></dc:title>
      </cc:Work>
    </rdf:RDF>
  </metadata>
  <sodipodi:namedview
     pagecolor="#ffffff"
     bordercolor="#666666"
     borderopacity="1"
     objecttolerance="10"
     gridtolerance="10"
     guidetolerance="10"
     inkscape:pageopacity="0"
     inkscape:pageshadow="2"
     inkscape:window-width="1366"
     inkscape:window-height="717"
     id="namedview10"
     showgrid="false"
     inkscape:zoom="3.6875"
     inkscape:cx="45.88267"
     inkscape:cy="37.827279"
     inkscape:window-x="0"
     inkscape:window-y="24"
     inkscape:window-maximized="1"
     inkscape:current-layer="svg8" />
  <defs
     id="defs3051">
    <style
       type="text/css"
       id="current-color-scheme">
      .ColorScheme-Text {
        color:#4d4d4d;
      }
      .ColorScheme-Highlight {
        color:#3daee9;
      }
      </style>
  </defs>
  <g
     id="g880"
     transform="matrix(0.125,0,0,0.125,-1.576692e-8,56.000005)">
    <path
       style="fill:#3689e6;fill-opacity:1;stroke-width:11.10955811"
       inkscape:connector-curvature="0"
       d="m 432.91327,-391.52603 c 102.19291,88.57459 105.82678,249.69971 8.1168,359.89879 C 343.3201,78.57183 181.27964,96.10063 79.086729,7.52602 -23.106186,-81.04857 -26.740042,-242.17369 70.969928,-352.37277 168.6799,-462.57185 330.72036,-480.10062 432.91327,-391.52603 Z"
       id="path27" />
    <path
       style="opacity:1;fill:#000000;fill-opacity:0.49019608;stroke-width:11.10955811"
       inkscape:connector-curvature="0"
       d="m 511.63551,-223.09648 c -1.55139,61.31165 -25.16123,124.15461 -70.96638,175.81447 C 342.95915,62.91713 180.91869,80.44583 78.725776,-8.12871 30.827124,-49.64436 4.4968216,-107.07716 0.1938277,-167.77119 0.79907936,-101.41452 27.117411,-37.51782 79.078682,7.51907 181.27159,96.09363 343.31975,78.55623 441.02202,-31.63423 c 49.70495,-56.05811 73.00502,-125.29096 70.61349,-191.46225 z"
       id="path51" />
    <g
       transform="translate(20,20)"
       style="fill:#000000;fill-opacity:0.49019608"
       id="g866">
      <rect
         ry="10.994157"
         y="-344.04352"
         x="100"
         height="124.22236"
         width="124.22236"
         id="rect858"
         style="opacity:1;fill:#000000;fill-opacity:0.49019608;stroke:none;stroke-width:33.4444809;stroke-miterlimit:4;stroke-dasharray:none;stroke-dashoffset:0;stroke-opacity:1" />
      <rect
         ry="10.994157"
         y="-344.04352"
         x="273.91132"
         height="124.22236"
         width="124.22236"
         id="rect860"
         style="opacity:1;fill:#000000;fill-opacity:0.49019608;stroke:none;stroke-width:33.4444809;stroke-miterlimit:4;stroke-dasharray:none;stroke-dashoffset:0;stroke-opacity:1" />
      <rect
         ry="10.994157"
         y="-170.1322"
         x="100"
         height="124.22236"
         width="124.22236"
         id="rect862"
         style="opacity:1;fill:#000000;fill-opacity:0.49019608;stroke:none;stroke-width:33.4444809;stroke-miterlimit:4;stroke-dasharray:none;stroke-dashoffset:0;stroke-opacity:1" />
      <path
         style="fill:#000000;fill-opacity:0.49019608;stroke-width:1.35136461"
         d="m 324.48647,-50.532747 c -32.67011,22.892201 -77.55561,2.238465 -81.06025,-37.301149 -3.08195,-34.770674 26.71441,-61.391134 61.50096,-54.946564 l 8.42364,1.56234 28.54305,-34.09508 28.5438,-34.09598 12.95256,10.84335 12.95251,10.84333 -5.64199,6.73943 -5.64195,6.73939 13.47059,11.27705 13.47061,11.27707 -10.84338,12.95254 -10.84335,12.95254 -13.4706,-11.27705 -13.47059,-11.27704 -12.12987,14.48928 -12.12986,14.4893 2.91063,6.78779 c 5.98636,13.963328 4.81574,31.997339 -2.97228,45.89042 -4.6472,8.289598 -6.89203,10.784817 -14.59858,16.134306 z m -12.51325,-40.393915 c 0.92665,-10.328268 -7.16427,-19.035458 -17.65937,-19.010118 -10.45593,0.0269 -17.84119,8.51342 -16.85825,19.392233 0.48077,5.424235 1.3146,7.073575 5.24822,10.366653 7.31706,6.125568 15.65438,6.867021 22.46863,1.994832 3.37378,-2.353296 6.44881,-8.075788 6.82597,-12.717813 z"
         id="path864"
         inkscape:connector-curvature="0" />
    </g>
    <g
       id="g856">
      <rect
         style="opacity:1;fill:#ffffff;fill-opacity:1;stroke:none;stroke-width:33.4444809;stroke-miterlimit:4;stroke-dasharray:none;stroke-dashoffset:0;stroke-opacity:1"
         id="rect840"
         width="124.22236"
         height="124.22236"
         x="100"
         y="-344.04352"
         ry="10.994157" />
      <rect
         style="opacity:1;fill:#ffffff;fill-opacity:1;stroke:none;stroke-width:33.4444809;stroke-miterlimit:4;stroke-dasharray:none;stroke-dashoffset:0;stroke-opacity:1"
         id="rect842"
         width="124.22236"
         height="124.22236"
         x="273.91132"
         y="-344.04352"
         ry="10.994157" />
      <rect
         style="opacity:1;fill:#ffffff;fill-opacity:1;stroke:none;stroke-width:33.4444809;stroke-miterlimit:4;stroke-dasharray:none;stroke-dashoffset:0;stroke-opacity:1"
         id="rect844"
         width="124.22236"
         height="124.22236"
         x="100"
         y="-170.1322"
         ry="10.994157" />
      <path
         inkscape:connector-curvature="0"
         id="path1344"
         d="m 324.48647,-50.532747 c -32.67011,22.892201 -77.55561,2.238465 -81.06025,-37.301149 -3.08195,-34.770674 26.71441,-61.391134 61.50096,-54.946564 l 8.42364,1.56234 28.54305,-34.09508 28.5438,-34.09598 12.95256,10.84335 12.95251,10.84333 -5.64199,6.73943 -5.64195,6.73939 13.47059,11.27705 13.47061,11.27707 -10.84338,12.95254 -10.84335,12.95254 -13.4706,-11.27705 -13.47059,-11.27704 -12.12987,14.48928 -12.12986,14.4893 2.91063,6.78779 c 5.98636,13.963328 4.81574,31.997339 -2.97228,45.89042 -4.6472,8.289598 -6.89203,10.784817 -14.59858,16.134306 z m -12.51325,-40.393915 c 0.92665,-10.328268 -7.16427,-19.035458 -17.65937,-19.010118 -10.45593,0.0269 -17.84119,8.51342 -16.85825,19.392233 0.48077,5.424235 1.3146,7.073575 5.24822,10.366653 7.31706,6.125568 15.65438,6.867021 22.46863,1.994832 3.37378,-2.353296 6.44881,-8.075788 6.82597,-12.717813 z"
         style="fill:#ffffff;stroke-width:1.35136461" />
    </g>
  </g>
</svg>
