<?xml version="1.0" encoding="UTF-8" standalone="no"?>
<svg
   xmlns:dc="http://purl.org/dc/elements/1.1/"
   xmlns:cc="http://creativecommons.org/ns#"
   xmlns:rdf="http://www.w3.org/1999/02/22-rdf-syntax-ns#"
   xmlns:svg="http://www.w3.org/2000/svg"
   xmlns="http://www.w3.org/2000/svg"
   xmlns:sodipodi="http://sodipodi.sourceforge.net/DTD/sodipodi-0.dtd"
   xmlns:inkscape="http://www.inkscape.org/namespaces/inkscape"
   viewBox="0 0 64 64"
   version="1.1"
   id="svg6"
   sodipodi:docname="dialog-scripts.svg"
   width="64"
   height="64"
   inkscape:version="0.92.2 5c3e80d, 2017-08-06">
  <metadata
     id="metadata10">
    <rdf:RDF>
      <cc:Work
         rdf:about="">
        <dc:format>image/svg+xml</dc:format>
        <dc:type
           rdf:resource="http://purl.org/dc/dcmitype/StillImage" />
        <dc:title></dc:title>
      </cc:Work>
    </rdf:RDF>
  </metadata>
  <sodipodi:namedview
     pagecolor="#ffffff"
     bordercolor="#666666"
     borderopacity="1"
     objecttolerance="10"
     gridtolerance="10"
     guidetolerance="10"
     inkscape:pageopacity="0"
     inkscape:pageshadow="2"
     inkscape:window-width="1366"
     inkscape:window-height="717"
     id="namedview8"
     showgrid="false"
     inkscape:zoom="5.2149125"
     inkscape:cx="7.3341259"
     inkscape:cy="36.981309"
     inkscape:window-x="0"
     inkscape:window-y="24"
     inkscape:window-maximized="1"
     inkscape:current-layer="svg6" />
  <defs
     id="defs3051">
    <style
       type="text/css"
       id="current-color-scheme">
      .ColorScheme-Text {
        color:#4d4d4d;
      }
      </style>
  </defs>
  <g
     id="g833"
     transform="matrix(0.125,0,0,0.125,7.5874038e-8,55.999995)">
    <g
       style="fill:#7c6655;fill-opacity:1"
       id="g29"
       transform="matrix(8.0447856,6.9727289,-7.6918815,8.6750446,247.5303,-567.54653)">
      <path
         id="path27"
         d="M 24,1 C 36.703,1 47,11.297 47,24 47,36.703 36.703,47 24,47 11.297,47 1,36.703 1,24 1,11.297 11.297,1 24,1 Z"
         inkscape:connector-curvature="0"
         style="fill:#7c6655;fill-opacity:1" />
    </g>
    <path
       style="opacity:1;fill:#000000;fill-opacity:0.49019608;stroke-width:11.10955811"
       inkscape:connector-curvature="0"
       d="m 511.63551,-223.09643 c -1.5514,61.31165 -25.16124,124.154592 -70.96639,175.814482 C 342.95915,62.917144 180.91869,80.445889 78.725775,-8.1286864 30.827122,-49.644314 4.4968204,-107.07713 0.19382724,-167.77117 0.79907796,-101.41449 27.117409,-37.517769 79.078679,7.5190871 181.27159,96.093662 343.31974,78.556242 441.02202,-31.634174 490.72696,-87.692312 514.02705,-156.92514 511.63551,-223.09643 Z"
       id="path51" />
    <path
       style="fill:#000000;fill-opacity:0.49019608;stroke-width:1.88502502"
       d="m 127.90597,-95.281731 c -7.1111,-5.983669 -9.3007,-14.821839 -5.76029,-23.251549 1.37593,-3.27612 12.89291,-17.37388 25.59328,-31.32851 12.70033,-13.95449 23.09151,-25.92449 23.09151,-26.59996 0,-0.67537 -10.39118,-12.68247 -23.09151,-26.68236 -25.40102,-28.00007 -27.63954,-31.13663 -27.73734,-38.86539 -0.17943,-14.20974 14.57817,-24.57132 26.16483,-18.37028 1.84995,0.99002 14.80804,14.35008 28.79596,29.68909 42.0808,46.14563 41.10867,44.85907 41.10867,54.40647 0,8.04354 -0.89905,9.38407 -22.36424,33.3446 -41.48579,46.308559 -45.80999,50.510589 -53.14104,51.639319 -5.40958,0.83293 -7.8507,0.0652 -12.65983,-3.98143 z m 114.9528,-15.590679 0.54505,-16.52824 h 44.29815 44.29807 v 16.02269 16.022779 l -44.84326,0.50572 -44.84327,0.50595 z"
       id="path920"
       inkscape:connector-curvature="0" />
    <path
       inkscape:connector-curvature="0"
       id="path908"
       d="m 107.90595,-115.28158 c -7.1111,-5.98368 -9.300702,-14.82184 -5.76029,-23.25155 1.37593,-3.27612 12.89291,-17.37388 25.59328,-31.32849 12.70033,-13.95451 23.09151,-25.92451 23.09151,-26.59998 0,-0.67537 -10.39118,-12.68247 -23.09151,-26.68237 -25.40102,-28.00007 -27.63954,-31.13663 -27.73734,-38.86538 -0.179431,-14.20972 14.57817,-24.5713 26.16483,-18.37028 1.84995,0.99002 14.80804,14.35008 28.79595,29.68911 42.08081,46.1456 41.10868,44.85906 41.10868,54.40644 0,8.04355 -0.89905,9.38408 -22.36424,33.34463 -41.4858,46.30854 -45.80999,50.51059 -53.14104,51.6393 -5.40959,0.83293 -7.8507,0.0652 -12.65983,-3.98143 z m 114.95279,-15.59066 0.54503,-16.52826 h 44.29812 44.2981 v 16.02271 16.02278 l -44.84329,0.50572 -44.84325,0.50595 z"
       style="fill:#ffffff;stroke-width:1.88502502" />
  </g>
</svg>
