<?xml version="1.0" encoding="UTF-8" standalone="no"?>
<svg
   xmlns:dc="http://purl.org/dc/elements/1.1/"
   xmlns:cc="http://creativecommons.org/ns#"
   xmlns:rdf="http://www.w3.org/1999/02/22-rdf-syntax-ns#"
   xmlns:svg="http://www.w3.org/2000/svg"
   xmlns="http://www.w3.org/2000/svg"
   xmlns:sodipodi="http://sodipodi.sourceforge.net/DTD/sodipodi-0.dtd"
   xmlns:inkscape="http://www.inkscape.org/namespaces/inkscape"
   viewBox="0 0 64 64"
   version="1.1"
   id="svg6"
   sodipodi:docname="distribute-vertical-equal.svg"
   width="64"
   height="64"
   inkscape:version="0.92.2 5c3e80d, 2017-08-06">
  <metadata
     id="metadata10">
    <rdf:RDF>
      <cc:Work
         rdf:about="">
        <dc:format>image/svg+xml</dc:format>
        <dc:type
           rdf:resource="http://purl.org/dc/dcmitype/StillImage" />
        <dc:title></dc:title>
      </cc:Work>
    </rdf:RDF>
  </metadata>
  <sodipodi:namedview
     pagecolor="#ffffff"
     bordercolor="#666666"
     borderopacity="1"
     objecttolerance="10"
     gridtolerance="10"
     guidetolerance="10"
     inkscape:pageopacity="0"
     inkscape:pageshadow="2"
     inkscape:window-width="1366"
     inkscape:window-height="717"
     id="namedview8"
     showgrid="false"
     inkscape:zoom="2.4583333"
     inkscape:cx="68.389786"
     inkscape:cy="26.84395"
     inkscape:window-x="0"
     inkscape:window-y="24"
     inkscape:window-maximized="1"
     inkscape:current-layer="svg6" />
  <defs
     id="defs3051">
    <style
       type="text/css"
       id="current-color-scheme">
      .ColorScheme-Text {
        color:#4d4d4d;
      }
      </style>
  </defs>
  <g
     id="g871">
    <path
       id="path1148"
       d="M 54.114148,7.05925 C 66.888286,18.131073 67.342496,38.271711 55.128758,52.046595 42.915028,65.82148 22.659969,68.012576 9.8858294,56.940753 -2.8882603,45.868929 -3.3425203,25.728291 8.8712592,11.953405 21.084999,-1.82148 41.340048,-4.012575 54.114148,7.05925 Z"
       inkscape:connector-curvature="0"
       style="fill:#3689e6;fill-opacity:1;stroke-width:1.38869464" />
    <path
       id="path1150"
       d="M 63.954426,28.112941 C 63.760536,35.776896 60.809298,43.632266 55.083648,50.089749 42.869908,63.864639 22.614849,66.05573 9.8407094,54.983912 3.8533694,49.794455 0.56210956,42.615356 0.02423958,35.028601 c 0.0756,8.294585 3.36542982,16.281671 9.86059982,21.911282 12.7740896,11.071818 33.0301386,8.879641 45.2429286,-4.894162 6.21312,-7.007262 9.125618,-15.66137 8.826658,-23.93278 z"
       inkscape:connector-curvature="0"
       style="opacity:1;fill:#000000;fill-opacity:0.49019608;stroke-width:1.38869464" />
    <g
       style="fill:#000000;fill-opacity:0.49019608"
       transform="matrix(0,0.125,-0.125,0,9.9630128,1.9629838)"
       id="g887">
      <path
         inkscape:connector-curvature="0"
         id="path879"
         d="m 213.20334,-268.39331 c 12.61958,0 22.78019,10.15866 22.78019,22.77825 v 182.700105 c 0,12.619586 -10.16061,22.780189 -22.78019,22.780189 h -90.4251 C 110.15866,-40.134766 100,-50.295369 100,-62.914955 V -245.61506 c 0,-12.61959 10.15866,-22.77825 22.77824,-22.77825 z m -57.26236,85.83329 a 9.7296961,9.7296961 0 0 0 -0.002,0 9.7296961,9.7296961 0 0 0 -7.04994,16.59303 l 41.31836,42.6961 -41.31836,42.694147 a 9.7296961,9.7296961 0 0 0 7.04994,16.594968 9.7296961,9.7296961 0 0 0 6.93336,-3.064433 l 47.48804,-49.069812 a 9.7296961,9.7296961 0 0 0 2.80598,-7.09269 9.7296961,9.7296961 0 0 0 -2.80598,-7.21707 l -47.48804,-49.07174 a 9.7296961,9.7296961 0 0 0 -6.93141,-3.0625 z"
         style="opacity:1;fill:#000000;fill-opacity:0.49019608;stroke:none;stroke-width:19.89841652;stroke-linecap:round;stroke-miterlimit:4;stroke-dasharray:none;stroke-dashoffset:0;stroke-opacity:1" />
      <path
         inkscape:connector-curvature="0"
         style="opacity:1;fill:#000000;fill-opacity:0.49019608;stroke:none;stroke-width:19.89841652;stroke-linecap:round;stroke-miterlimit:4;stroke-dasharray:none;stroke-dashoffset:0;stroke-opacity:1"
         d="m 298.79666,-270.68271 c -12.61958,0 -22.78019,10.15866 -22.78019,22.77824 v 182.70011 c 0,12.619585 10.16061,22.780189 22.78019,22.780189 h 90.4251 C 401.84134,-42.424171 412,-52.584775 412,-65.20436 v -182.70011 c 0,-12.61958 -10.15866,-22.77824 -22.77824,-22.77824 z m 57.26236,85.83329 a 9.7296961,9.7296961 0 0 1 0.002,0 9.7296961,9.7296961 0 0 1 7.04995,16.59302 l -41.31836,42.69611 41.31836,42.694142 a 9.7296961,9.7296961 0 0 1 -7.04995,16.594968 9.7296961,9.7296961 0 0 1 -6.93335,-3.064434 l -47.48804,-49.069806 a 9.7296961,9.7296961 0 0 1 -2.80598,-7.09269 9.7296961,9.7296961 0 0 1 2.80598,-7.21707 l 47.48804,-49.07174 a 9.7296961,9.7296961 0 0 1 6.9314,-3.0625 z"
         id="path881" />
      <path
         inkscape:connector-curvature="0"
         id="path883"
         d="m 220.47461,-352.16992 c -8.56353,0 -15.45703,6.89546 -15.45703,15.45898 v 68.31836 h 8.18554 c 12.1263,0 21.97655,9.38041 22.72852,21.31055 v -89.62891 c 0,-8.56352 -6.89351,-15.45898 -15.45703,-15.45898 z"
         style="opacity:1;fill:#000000;fill-opacity:0.49019608;stroke:none;stroke-width:20;stroke-linecap:round;stroke-miterlimit:4;stroke-dasharray:none;stroke-dashoffset:0;stroke-opacity:1" />
      <path
         inkscape:connector-curvature="0"
         id="path885"
         d="m 291.46875,-352.45703 c -8.56352,0 -15.45898,6.8935 -15.45898,15.45703 v 92.33984 c 0,0.0389 0.006,0.0764 0.006,0.11524 v -3.35938 c 1e-5,-12.61958 10.16168,-22.77929 22.78126,-22.77929 h 8.1289 V -337 c 0,-8.56353 -6.89351,-15.45703 -15.45703,-15.45703 z"
         style="opacity:1;fill:#000000;fill-opacity:0.49019608;stroke:none;stroke-width:20;stroke-linecap:round;stroke-miterlimit:4;stroke-dasharray:none;stroke-dashoffset:0;stroke-opacity:1" />
    </g>
    <g
       transform="matrix(0,0.125,-0.125,0,7.4630128,-0.53698725)"
       id="g877">
      <path
         style="opacity:1;fill:#ffffff;fill-opacity:1;stroke:none;stroke-width:19.89841652;stroke-linecap:round;stroke-miterlimit:4;stroke-dasharray:none;stroke-dashoffset:0;stroke-opacity:1"
         d="m 213.20334,-268.39331 c 12.61958,0 22.78019,10.15866 22.78019,22.77825 v 182.700105 c 0,12.619586 -10.16061,22.780189 -22.78019,22.780189 h -90.4251 C 110.15866,-40.134766 100,-50.295369 100,-62.914955 V -245.61506 c 0,-12.61959 10.15866,-22.77825 22.77824,-22.77825 z m -57.26236,85.83329 a 9.7296961,9.7296961 0 0 0 -0.002,0 9.7296961,9.7296961 0 0 0 -7.04994,16.59303 l 41.31836,42.6961 -41.31836,42.694147 a 9.7296961,9.7296961 0 0 0 7.04994,16.594968 9.7296961,9.7296961 0 0 0 6.93336,-3.064433 l 47.48804,-49.069812 a 9.7296961,9.7296961 0 0 0 2.80598,-7.09269 9.7296961,9.7296961 0 0 0 -2.80598,-7.21707 l -47.48804,-49.07174 a 9.7296961,9.7296961 0 0 0 -6.93141,-3.0625 z"
         id="rect872"
         inkscape:connector-curvature="0" />
      <path
         id="path878"
         d="m 298.79666,-270.68271 c -12.61958,0 -22.78019,10.15866 -22.78019,22.77824 v 182.70011 c 0,12.619585 10.16061,22.780189 22.78019,22.780189 h 90.4251 C 401.84134,-42.424171 412,-52.584775 412,-65.20436 v -182.70011 c 0,-12.61958 -10.15866,-22.77824 -22.77824,-22.77824 z m 57.26236,85.83329 a 9.7296961,9.7296961 0 0 1 0.002,0 9.7296961,9.7296961 0 0 1 7.04995,16.59302 l -41.31836,42.69611 41.31836,42.694142 a 9.7296961,9.7296961 0 0 1 -7.04995,16.594968 9.7296961,9.7296961 0 0 1 -6.93335,-3.064434 l -47.48804,-49.069806 a 9.7296961,9.7296961 0 0 1 -2.80598,-7.09269 9.7296961,9.7296961 0 0 1 2.80598,-7.21707 l 47.48804,-49.07174 a 9.7296961,9.7296961 0 0 1 6.9314,-3.0625 z"
         style="opacity:1;fill:#ffffff;fill-opacity:1;stroke:none;stroke-width:19.89841652;stroke-linecap:round;stroke-miterlimit:4;stroke-dasharray:none;stroke-dashoffset:0;stroke-opacity:1"
         inkscape:connector-curvature="0" />
      <path
         style="opacity:1;fill:#ffffff;fill-opacity:1;stroke:none;stroke-width:20;stroke-linecap:round;stroke-miterlimit:4;stroke-dasharray:none;stroke-dashoffset:0;stroke-opacity:1"
         d="m 220.47461,-352.16992 c -8.56353,0 -15.45703,6.89546 -15.45703,15.45898 v 68.31836 h 8.18554 c 12.1263,0 21.97655,9.38041 22.72852,21.31055 v -89.62891 c 0,-8.56352 -6.89351,-15.45898 -15.45703,-15.45898 z"
         id="rect863"
         inkscape:connector-curvature="0" />
      <path
         style="opacity:1;fill:#ffffff;fill-opacity:1;stroke:none;stroke-width:20;stroke-linecap:round;stroke-miterlimit:4;stroke-dasharray:none;stroke-dashoffset:0;stroke-opacity:1"
         d="m 291.46875,-352.45703 c -8.56352,0 -15.45898,6.8935 -15.45898,15.45703 v 92.33984 c 0,0.0389 0.006,0.0764 0.006,0.11524 v -3.35938 c 1e-5,-12.61958 10.16168,-22.77929 22.78126,-22.77929 h 8.1289 V -337 c 0,-8.56353 -6.89351,-15.45703 -15.45703,-15.45703 z"
         id="rect865"
         inkscape:connector-curvature="0" />
    </g>
  </g>
</svg>
