<?xml version="1.0" encoding="UTF-8" standalone="no"?>
<svg
   xmlns:dc="http://purl.org/dc/elements/1.1/"
   xmlns:cc="http://creativecommons.org/ns#"
   xmlns:rdf="http://www.w3.org/1999/02/22-rdf-syntax-ns#"
   xmlns:svg="http://www.w3.org/2000/svg"
   xmlns="http://www.w3.org/2000/svg"
   xmlns:sodipodi="http://sodipodi.sourceforge.net/DTD/sodipodi-0.dtd"
   xmlns:inkscape="http://www.inkscape.org/namespaces/inkscape"
   viewBox="0 0 64 64"
   version="1.1"
   id="svg6"
   sodipodi:docname="distribute-horizontal-page.svg"
   width="64"
   height="64"
   inkscape:version="0.92.2 5c3e80d, 2017-08-06">
  <metadata
     id="metadata10">
    <rdf:RDF>
      <cc:Work
         rdf:about="">
        <dc:format>image/svg+xml</dc:format>
        <dc:type
           rdf:resource="http://purl.org/dc/dcmitype/StillImage" />
        <dc:title></dc:title>
      </cc:Work>
    </rdf:RDF>
  </metadata>
  <sodipodi:namedview
     pagecolor="#ffffff"
     bordercolor="#666666"
     borderopacity="1"
     objecttolerance="10"
     gridtolerance="10"
     guidetolerance="10"
     inkscape:pageopacity="0"
     inkscape:pageshadow="2"
     inkscape:window-width="1366"
     inkscape:window-height="717"
     id="namedview8"
     showgrid="false"
     inkscape:zoom="0.61458333"
     inkscape:cx="259.19665"
     inkscape:cy="159.51814"
     inkscape:window-x="0"
     inkscape:window-y="24"
     inkscape:window-maximized="1"
     inkscape:current-layer="svg6" />
  <defs
     id="defs3051">
    <style
       type="text/css"
       id="current-color-scheme">
      .ColorScheme-Text {
        color:#4d4d4d;
      }
      </style>
  </defs>
  <g
     id="g861"
     transform="matrix(0.125,0,0,0.125,6.1868113e-8,60.999999)">
    <path
       style="fill:#3689e6;fill-opacity:1;stroke-width:11.10955906"
       inkscape:connector-curvature="0"
       d="m 432.91328,-431.52606 c 102.1929,88.57459 105.82676,249.69974 8.1168,359.89882 C 343.32007,38.57184 181.27963,56.100608 79.086738,-32.473984 -23.106204,-121.04856 -26.740031,-282.17372 70.969938,-392.37279 168.67989,-502.57187 330.72033,-520.10064 432.91328,-431.52606 Z"
       id="path27-5" />
    <path
       style="opacity:1;fill:#000000;fill-opacity:0.49019608;stroke-width:11.10955906"
       inkscape:connector-curvature="0"
       d="m 511.63551,-263.09648 c -1.55139,61.31161 -25.16123,124.15457 -70.96637,175.81444 C 342.95912,22.917072 180.91868,40.4458 78.725756,-48.128752 30.827124,-89.64436 4.4968184,-147.07719 0.19382632,-207.77119 0.79907984,-141.41455 27.117404,-77.517816 79.078686,-32.480976 181.27157,56.093616 343.31973,38.556152 441.02203,-71.634232 490.72698,-127.69238 514.02704,-196.92523 511.63551,-263.09648 Z"
       id="path51-6" />
    <g
       style="fill:#000000;fill-opacity:0.49019608"
       transform="translate(20,10)"
       id="g853">
      <path
         inkscape:connector-curvature="0"
         id="path851"
         d="m 115,-388 v 312 l 194.97656,-0.191406 h -16.27148 v -77.648434 h -0.01 v -16.27149 h 0.01 v -0.0469 h 16.27148 v 0.0469 H 387.9668 L 387.9707,-388 Z M 309.97656,-76.191406 387.9668,-153.83984 H 309.97656 Z M 157.81836,-340.47461 h 60.22852 c 5.40149,0 9.75,4.3485 9.75,9.75 v 133.44922 c 0,5.4015 -4.34851,9.75 -9.75,9.75 h -60.22852 c -5.4015,0 -9.75,-4.3485 -9.75,-9.75 v -133.44922 c 0,-5.4015 4.3485,-9.75 9.75,-9.75 z m 126,0 h 60.22852 c 5.40149,0 9.75,4.3485 9.75,9.75 v 133.44922 c 0,5.4015 -4.34851,9.75 -9.75,9.75 h -60.22852 c -5.4015,0 -9.75,-4.3485 -9.75,-9.75 v -133.44922 c 0,-5.4015 4.3485,-9.75 9.75,-9.75 z"
         style="fill:#000000;fill-opacity:0.49019608;stroke:none;stroke-width:1px;stroke-linecap:butt;stroke-linejoin:miter;stroke-opacity:1" />
    </g>
    <g
       id="g849">
      <path
         style="fill:#ffffff;stroke:none;stroke-width:1px;stroke-linecap:butt;stroke-linejoin:miter;stroke-opacity:1"
         d="m 115,-388 v 312 l 194.97656,-0.191406 h -16.27148 v -77.648434 h -0.01 v -16.27149 h 0.01 v -0.0469 h 16.27148 v 0.0469 H 387.9668 L 387.9707,-388 Z M 309.97656,-76.191406 387.9668,-153.83984 H 309.97656 Z M 157.81836,-340.47461 h 60.22852 c 5.40149,0 9.75,4.3485 9.75,9.75 v 133.44922 c 0,5.4015 -4.34851,9.75 -9.75,9.75 h -60.22852 c -5.4015,0 -9.75,-4.3485 -9.75,-9.75 v -133.44922 c 0,-5.4015 4.3485,-9.75 9.75,-9.75 z m 126,0 h 60.22852 c 5.40149,0 9.75,4.3485 9.75,9.75 v 133.44922 c 0,5.4015 -4.34851,9.75 -9.75,9.75 h -60.22852 c -5.4015,0 -9.75,-4.3485 -9.75,-9.75 v -133.44922 c 0,-5.4015 4.3485,-9.75 9.75,-9.75 z"
         id="path39"
         inkscape:connector-curvature="0" />
    </g>
  </g>
</svg>
