<?xml version="1.0" encoding="UTF-8" standalone="no"?>
<svg
   xmlns:dc="http://purl.org/dc/elements/1.1/"
   xmlns:cc="http://creativecommons.org/ns#"
   xmlns:rdf="http://www.w3.org/1999/02/22-rdf-syntax-ns#"
   xmlns:svg="http://www.w3.org/2000/svg"
   xmlns="http://www.w3.org/2000/svg"
   xmlns:sodipodi="http://sodipodi.sourceforge.net/DTD/sodipodi-0.dtd"
   xmlns:inkscape="http://www.inkscape.org/namespaces/inkscape"
   viewBox="0 0 64 64"
   version="1.1"
   id="svg8"
   sodipodi:docname="distribute-graph-directed.svg"
   width="64"
   height="64"
   inkscape:version="0.92.2 5c3e80d, 2017-08-06">
  <metadata
     id="metadata12">
    <rdf:RDF>
      <cc:Work
         rdf:about="">
        <dc:format>image/svg+xml</dc:format>
        <dc:type
           rdf:resource="http://purl.org/dc/dcmitype/StillImage" />
        <dc:title></dc:title>
      </cc:Work>
    </rdf:RDF>
  </metadata>
  <sodipodi:namedview
     pagecolor="#ffffff"
     bordercolor="#666666"
     borderopacity="1"
     objecttolerance="10"
     gridtolerance="10"
     guidetolerance="10"
     inkscape:pageopacity="0"
     inkscape:pageshadow="2"
     inkscape:window-width="1366"
     inkscape:window-height="717"
     id="namedview10"
     showgrid="false"
     inkscape:zoom="3.4766083"
     inkscape:cx="69.983832"
     inkscape:cy="4.0730651"
     inkscape:window-x="0"
     inkscape:window-y="24"
     inkscape:window-maximized="1"
     inkscape:current-layer="svg8" />
  <defs
     id="defs3051">
    <style
       type="text/css"
       id="current-color-scheme">
      .ColorScheme-Text {
        color:#4d4d4d;
      }
      .ColorScheme-Highlight {
        color:#3daee9;
      }
      </style>
  </defs>
  <g
     id="g897"
     transform="matrix(0.125,0,0,0.125,-1.576692e-8,56.000005)">
    <path
       style="fill:#3689e6;fill-opacity:1;stroke-width:11.10955811"
       inkscape:connector-curvature="0"
       d="m 432.91327,-391.52603 c 102.19291,88.57459 105.82678,249.69971 8.1168,359.89879 C 343.3201,78.57183 181.27964,96.10063 79.086729,7.52602 -23.106186,-81.04857 -26.740042,-242.17369 70.969928,-352.37277 168.6799,-462.57185 330.72036,-480.10062 432.91327,-391.52603 Z"
       id="path27" />
    <path
       style="opacity:1;fill:#000000;fill-opacity:0.49019608;stroke-width:11.10955811"
       inkscape:connector-curvature="0"
       d="m 511.63551,-223.09648 c -1.55139,61.31165 -25.16123,124.15461 -70.96638,175.81447 C 342.95915,62.91713 180.91869,80.44583 78.725776,-8.12871 30.827124,-49.64436 4.4968216,-107.07716 0.1938277,-167.77119 0.79907936,-101.41452 27.117411,-37.51782 79.078682,7.51907 181.27159,96.09363 343.31975,78.55623 441.02202,-31.63423 c 49.70495,-56.05811 73.00502,-125.29096 70.61349,-191.46225 z"
       id="path51" />
    <path
       id="rect855"
       d="m 253.93555,-210.39258 3.17383,3.4082 -14.70118,13.5586 -3.17578,-3.41992 v 53.21484 c 0,5.4015 4.3485,9.75 9.75,9.75 H 266.25 v -0.58789 c 5.75652,0.0136 11.75572,0.0858 19.5,0 v 0.58789 h 17.36719 c 5.4015,0 9.75,-4.3485 9.75,-9.75 v -53.65234 l -3.96094,4.31445 -14.625,-13.40625 3.6875,-4.01758 z"
       style="opacity:1;fill:#000000;fill-opacity:0.49019608;stroke:none;stroke-width:35;stroke-miterlimit:4;stroke-dasharray:none;stroke-dashoffset:0;stroke-opacity:1"
       inkscape:connector-curvature="0" />
    <path
       style="color:#4d4d4d;fill:#000000;fill-opacity:0.49019608;stroke:none;stroke-width:19.5"
       d="m 369.23482,-288.03096 -74.95314,81.65625 14.62501,13.40625 74.95313,-81.65625 c -2.76245,-2.64014 -9.23125,-8.24475 -14.625,-13.40625 z m -186.46876,1.21875 -14.625,13.40625 74.26758,79.98046 14.70117,-13.55858 z m 83.48437,152.34374 v 41.437504 h 19.5 v -41.437504 c -7.74428,0.0858 -13.74348,0.0136 -19.5,0 z"
       class="ColorScheme-Text"
       id="path857"
       inkscape:connector-curvature="0" />
    <path
       id="rect859"
       d="m 129.84766,-339.04688 c -5.4015,0 -9.75,4.34851 -9.75,9.75 v 57.01172 c 0,5.4015 4.3485,9.75 9.75,9.75 h 48.38672 l -10.09376,-10.87109 14.625,-13.40625 10.9668,11.77539 v -54.25977 c 0,-5.40149 -4.3485,-9.75 -9.75,-9.75 z"
       style="opacity:1;fill:#000000;fill-opacity:0.49019608;stroke:none;stroke-width:35;stroke-miterlimit:4;stroke-dasharray:none;stroke-dashoffset:0;stroke-opacity:1"
       inkscape:connector-curvature="0" />
    <path
       id="rect861"
       d="m 368.64062,-337.5 c -5.40149,0 -9.75,4.3485 -9.75,9.75 v 50.98828 l 10.34376,-11.26953 c 5.39375,5.1615 11.86254,10.76611 14.625,13.40625 l -12.51758,13.63672 h 51.43359 c 5.4015,0 9.75,-4.3485 9.75,-9.75 V -327.75 c 0,-5.4015 -4.3485,-9.75 -9.75,-9.75 z"
       style="opacity:1;fill:#000000;fill-opacity:0.49019608;stroke:none;stroke-width:35;stroke-miterlimit:4;stroke-dasharray:none;stroke-dashoffset:0;stroke-opacity:1"
       inkscape:connector-curvature="0" />
    <path
       id="rect863"
       d="m 247.83203,-97.037109 c -5.4015,0 -9.75,4.3485 -9.75,9.75 v 57.011718 c 0,5.4015 4.3485,9.75 9.75,9.75 h 54.13477 c 5.4015,0 9.75,-4.3485 9.75,-9.75 v -57.011718 c 0,-5.4015 -4.3485,-9.75 -9.75,-9.75 H 285.75 v 4.005859 h -19.5 v -4.005859 z"
       style="opacity:1;fill:#000000;fill-opacity:0.49019608;stroke:none;stroke-width:35;stroke-miterlimit:4;stroke-dasharray:none;stroke-dashoffset:0;stroke-opacity:1"
       inkscape:connector-curvature="0" />
    <g
       id="g853">
      <rect
         style="opacity:1;fill:#ffffff;fill-opacity:1;stroke:none;stroke-width:35;stroke-miterlimit:4;stroke-dasharray:none;stroke-dashoffset:0;stroke-opacity:1"
         id="rect844"
         width="73.634987"
         height="76.511353"
         x="219.23235"
         y="-220.3924"
         ry="9.75" />
      <path
         style="color:#4d4d4d;fill:#ffffff;fill-opacity:1;stroke:none;stroke-width:19.5"
         d="m 349.23438,-298.03124 -74.95314,81.65625 14.62501,13.40625 74.95313,-81.65625 c -2.76245,-2.64014 -9.23125,-8.24475 -14.625,-13.40625 z m -186.46876,1.21875 -14.625,13.40625 74.26758,79.98046 14.70117,-13.55858 z m 83.48437,152.34374 v 41.4375 h 19.5 v -41.4375 c -7.74428,0.0858 -13.74348,0.0136 -19.5,0 z"
         class="ColorScheme-Text"
         id="path4"
         inkscape:connector-curvature="0" />
      <rect
         style="opacity:1;fill:#ffffff;fill-opacity:1;stroke:none;stroke-width:35;stroke-miterlimit:4;stroke-dasharray:none;stroke-dashoffset:0;stroke-opacity:1"
         id="rect840"
         width="73.634987"
         height="76.511353"
         x="100.09756"
         y="-349.04623"
         ry="9.75" />
      <rect
         ry="9.75"
         y="-347.50089"
         x="338.88919"
         height="76.511353"
         width="73.634987"
         id="rect842"
         style="opacity:1;fill:#ffffff;fill-opacity:1;stroke:none;stroke-width:35;stroke-miterlimit:4;stroke-dasharray:none;stroke-dashoffset:0;stroke-opacity:1" />
      <rect
         ry="9.75"
         y="-107.03664"
         x="218.0818"
         height="76.511353"
         width="73.634987"
         id="rect846"
         style="opacity:1;fill:#ffffff;fill-opacity:1;stroke:none;stroke-width:35;stroke-miterlimit:4;stroke-dasharray:none;stroke-dashoffset:0;stroke-opacity:1" />
    </g>
  </g>
</svg>
