<?xml version="1.0" encoding="UTF-8" standalone="no"?>
<svg
   xmlns:dc="http://purl.org/dc/elements/1.1/"
   xmlns:cc="http://creativecommons.org/ns#"
   xmlns:rdf="http://www.w3.org/1999/02/22-rdf-syntax-ns#"
   xmlns:svg="http://www.w3.org/2000/svg"
   xmlns="http://www.w3.org/2000/svg"
   xmlns:sodipodi="http://sodipodi.sourceforge.net/DTD/sodipodi-0.dtd"
   xmlns:inkscape="http://www.inkscape.org/namespaces/inkscape"
   viewBox="0 0 64 64"
   version="1.1"
   id="svg6"
   sodipodi:docname="document-send.svg"
   width="64"
   height="64"
   inkscape:version="0.92.2 5c3e80d, 2017-08-06">
  <metadata
     id="metadata10">
    <rdf:RDF>
      <cc:Work
         rdf:about="">
        <dc:format>image/svg+xml</dc:format>
        <dc:type
           rdf:resource="http://purl.org/dc/dcmitype/StillImage" />
        <dc:title></dc:title>
      </cc:Work>
    </rdf:RDF>
  </metadata>
  <sodipodi:namedview
     pagecolor="#ffffff"
     bordercolor="#666666"
     borderopacity="1"
     objecttolerance="10"
     gridtolerance="10"
     guidetolerance="10"
     inkscape:pageopacity="0"
     inkscape:pageshadow="2"
     inkscape:window-width="1366"
     inkscape:window-height="717"
     id="namedview8"
     showgrid="false"
     inkscape:zoom="1.3037281"
     inkscape:cx="147.67988"
     inkscape:cy="41.661908"
     inkscape:window-x="0"
     inkscape:window-y="24"
     inkscape:window-maximized="1"
     inkscape:current-layer="svg6" />
  <defs
     id="defs3051">
    <style
       type="text/css"
       id="current-color-scheme">
      .ColorScheme-Text {
        color:#4d4d4d;
      }
      </style>
  </defs>
  <g
     id="g854"
     transform="matrix(0.125,0,0,0.125,-1.576692e-8,62)">
    <path
       id="path27"
       d="m 432.91327,-439.52603 c 102.19291,88.57459 105.82678,249.6997 8.1168,359.89879 C 343.3201,30.57184 181.27964,48.10061 79.086729,-40.47398 -23.106186,-129.04857 -26.740042,-290.17369 70.969928,-400.37277 168.6799,-510.57185 330.72036,-528.10062 432.91327,-439.52603 Z"
       inkscape:connector-curvature="0"
       style="fill:#3689e6;fill-opacity:1;stroke-width:11.10955811;image-rendering:optimizeSpeed" />
    <path
       id="path51"
       d="m 511.63551,-271.09649 c -1.55139,61.31165 -25.16123,124.15461 -70.96638,175.81448 C 342.95915,14.91711 180.91869,32.44584 78.725776,-56.12871 30.827124,-97.64437 4.4968216,-155.07716 0.1938277,-215.7712 0.79907936,-149.41452 27.117411,-85.51783 79.078682,-40.48094 181.27159,48.09361 343.31975,30.55619 441.02202,-79.63424 c 49.70495,-56.0581 73.00502,-125.29096 70.61349,-191.46225 z"
       inkscape:connector-curvature="0"
       style="opacity:1;fill:#000000;fill-opacity:0.49019608;stroke-width:11.10955811;image-rendering:optimizeSpeed" />
    <path
       style="fill:#000000;fill-opacity:0.49019608;stroke-width:0.609375"
       d="m 240.78622,-64.8252 c -3.8467,-1.671315 -3.78578,-0.967846 -3.78578,-43.7186 0,-41.67788 0.066,-42.63783 3.24567,-47.22613 0.88205,-1.27279 12.90942,-14.64759 26.72749,-29.72177 30.83436,-33.63729 106.76538,-116.26302 111.38191,-121.20226 1.85433,-1.98394 2.96016,-3.36958 2.45743,-3.0792 -0.50273,0.29039 -40.28496,32.92301 -88.40494,72.51694 -48.11999,39.59392 -87.78997,72.17379 -88.15551,72.39971 -0.93165,0.57579 -76.56079,-25.99737 -79.4703,-27.92279 -1.38737,-0.91812 -2.91534,-2.67694 -3.66362,-4.21711 -1.87586,-3.86108 -1.20734,-6.61713 2.43725,-10.04787 3.55393,-3.3454 294.92788,-167.13351 299.49467,-168.35296 2.64879,-0.70729 3.15048,-0.66662 5.17969,0.4199 1.65734,0.88741 2.48049,1.87897 3.13743,3.77935 0.85795,2.48181 0.19185,7.23145 -18.16009,129.49218 -10.47789,69.80374 -19.48169,128.11015 -20.00845,129.56979 -2.59464,7.18978 -9.96873,10.89591 -16.65175,8.36897 -1.17305,-0.44354 -21.25099,-7.51675 -44.61764,-15.71823 l -42.48483,-14.9118 -7.43944,12.24108 c -10.99154,18.08582 -26.90794,43.640264 -31.12098,49.966021 -5.87786,8.825469 -6.19834,9.059194 -10.09821,7.364779 z"
       id="path43"
       inkscape:connector-curvature="0" />
    <path
       inkscape:connector-curvature="0"
       id="path41"
       d="M 220.78578,-84.91809 C 216.93908,-86.589405 217,-85.885936 217,-128.63669 c 0,-41.67788 0.066,-42.63783 3.24567,-47.22613 0.88205,-1.27279 12.90942,-14.64759 26.72749,-29.72177 30.83436,-33.63729 106.76538,-116.26302 111.38191,-121.20226 1.85433,-1.98394 2.96016,-3.36958 2.45743,-3.0792 -0.50273,0.29039 -40.28496,32.92301 -88.40494,72.51694 -48.11999,39.59392 -87.78997,72.17379 -88.15551,72.39971 -0.93165,0.57579 -76.56079,-25.99737 -79.4703,-27.92279 -1.38737,-0.91812 -2.91534,-2.67694 -3.66362,-4.21711 -1.875857,-3.86108 -1.20734,-6.61713 2.43725,-10.04787 3.55393,-3.3454 294.92788,-167.13351 299.49467,-168.35296 2.64879,-0.70729 3.15048,-0.66662 5.17969,0.4199 1.65734,0.88741 2.48049,1.87897 3.13743,3.77935 0.85795,2.48181 0.19185,7.23145 -18.16009,129.49218 -10.47789,69.80374 -19.48169,128.11015 -20.00845,129.56979 -2.59464,7.18978 -9.96873,10.89591 -16.65175,8.36897 -1.17305,-0.44354 -21.25099,-7.51675 -44.61764,-15.71823 l -42.48483,-14.9118 -7.43944,12.24108 c -10.99154,18.08582 -26.90794,43.640264 -31.12098,49.966021 -5.87786,8.825469 -6.19834,9.059194 -10.09821,7.364779 z"
       style="fill:#ffffff;stroke-width:0.609375" />
  </g>
</svg>
