<?xml version="1.0" encoding="UTF-8" standalone="no"?>
<svg
   xmlns:dc="http://purl.org/dc/elements/1.1/"
   xmlns:cc="http://creativecommons.org/ns#"
   xmlns:rdf="http://www.w3.org/1999/02/22-rdf-syntax-ns#"
   xmlns:svg="http://www.w3.org/2000/svg"
   xmlns="http://www.w3.org/2000/svg"
   xmlns:sodipodi="http://sodipodi.sourceforge.net/DTD/sodipodi-0.dtd"
   xmlns:inkscape="http://www.inkscape.org/namespaces/inkscape"
   viewBox="0 0 64 64"
   version="1.1"
   id="svg5"
   sodipodi:docname="document-edit-decrypt-verify.svg"
   width="64"
   height="64"
   inkscape:version="0.92.2 5c3e80d, 2017-08-06">
  <metadata
     id="metadata9">
    <rdf:RDF>
      <cc:Work
         rdf:about="">
        <dc:format>image/svg+xml</dc:format>
        <dc:type
           rdf:resource="http://purl.org/dc/dcmitype/StillImage" />
        <dc:title></dc:title>
      </cc:Work>
    </rdf:RDF>
  </metadata>
  <sodipodi:namedview
     pagecolor="#ffffff"
     bordercolor="#666666"
     borderopacity="1"
     objecttolerance="10"
     gridtolerance="10"
     guidetolerance="10"
     inkscape:pageopacity="0"
     inkscape:pageshadow="2"
     inkscape:window-width="1366"
     inkscape:window-height="717"
     id="namedview7"
     showgrid="false"
     inkscape:zoom="3.6875"
     inkscape:cx="47.050718"
     inkscape:cy="16.625137"
     inkscape:window-x="0"
     inkscape:window-y="24"
     inkscape:window-maximized="1"
     inkscape:current-layer="svg5" />
  <defs
     id="defs3051">
    <style
       type="text/css"
       id="current-color-scheme">
      .ColorScheme-Text {
        color:#4d4d4d;
      }
      </style>
  </defs>
  <g
     id="g854"
     transform="matrix(0.125,0,0,0.125,6.1868113e-8,60)">
    <path
       style="fill:#3689e6;fill-opacity:1;stroke-width:11.10955906"
       inkscape:connector-curvature="0"
       d="m 432.91328,-423.52606 c 102.1929,88.57459 105.82676,249.69974 8.1168,359.898821 C 343.32007,46.571841 181.27963,64.100609 79.086738,-24.473983 -23.106204,-113.04856 -26.740031,-274.17372 70.969938,-384.37279 168.67989,-494.57187 330.72033,-512.10064 432.91328,-423.52606 Z"
       id="path27-5" />
    <path
       style="opacity:1;fill:#000000;fill-opacity:0.49019608;stroke-width:11.10955906"
       inkscape:connector-curvature="0"
       d="m 511.63551,-255.09648 c -1.55139,61.31161 -25.16123,124.15457 -70.96637,175.814441 C 342.95912,30.917073 180.91868,48.445801 78.725756,-40.128751 30.827124,-81.644359 4.4968183,-139.07719 0.19382626,-199.77119 0.79907978,-133.41455 27.117404,-69.517815 79.078686,-24.480975 181.27157,64.093617 343.31973,46.556153 441.02203,-63.634231 490.72698,-119.69238 514.02704,-188.92523 511.63551,-255.09648 Z"
       id="path51-6" />
    <path
       inkscape:connector-curvature="0"
       style="fill:#000000;fill-opacity:0.49019608;stroke:none;stroke-width:1px;stroke-linecap:butt;stroke-linejoin:miter;stroke-opacity:1"
       d="m 135,-360 v 39 h 39 v -39 z m 39,39 v 39 h 39 v -39 z m 39,0 h 39 v -39 h -39 z m 39,0 v 39 h 39 v -39 z m 39,0 h 39 v -39 h -39 z m 39,0 v 39 h 38.9707 v -39 z m 0,39 h -39 v 39 h 39 z m 0,39 v 39 h -39 v -39 h -39 v 39 h -39 v -39 h -39 v 39 h -39 v 156 c 30.65096,-0.03573 211.74313,-0.191406 178.70508,-0.191406 L 407.9668,-142.11133 V -204 h -38.9961 v -39 z m -156,0 v -39 h -39 v 39 z m 39,0 h 39 v -39 h -39 z m 156,-117 v 39 h 38.9707 v -39 z m 0,78 v 39 h 38.96875 v -39 z m -148.78125,87.54492 c 14.71555,0.11141 28.84014,5.77883 39.78516,16.0332 10.05566,9.42115 16.32445,21.45768 18.25195,35.04883 0.8326,5.87084 0.72296,13.67456 -0.25586,18.25586 l -0.27344,1.27539 26.27539,11.88282 c 24.42595,11.0459 26.40509,12.01183 28.10743,13.7246 1.55391,1.56347 1.99788,2.28091 2.93359,4.74219 0.93661,2.4621 1.0779,3.27712 0.93945,5.39258 -0.26614,4.06647 -2.81832,8.524884 -6.08789,10.632813 -2.1026,1.355558 -5.45098,2.203341 -8.17969,2.070313 -2.2642,-0.110341 -4.62532,-1.082598 -28.80273,-11.865236 l -26.33789,-11.74609 -0.77149,1.05078 c -2.77415,3.77528 -8.5336,9.04086 -13.47461,12.31836 -23.09735,15.321025 -53.56915,12.682223 -73.71093,-6.38281 -18.35304,-17.37192 -23.66931,-44.29962 -13.30274,-67.38282 3.80719,-8.47742 9.65568,-16.11735 16.58203,-21.66406 10.59808,-8.48705 21.92536,-12.75766 35.3711,-13.33398 0.98552,-0.0422 1.97013,-0.0602 2.95117,-0.0527 z m -0.81641,16.92383 c -2.70245,-1e-5 -5.42362,0.26246 -8.15039,0.78906 -4.91741,0.94966 -12.39807,4.16421 -16.45703,7.07031 -11.50469,8.23704 -18.23783,22.01014 -17.72461,36.25391 0.323,8.96373 3.89923,18.34862 9.64258,25.30469 9.84755,11.92687 25.65652,17.61731 40.74219,14.66406 4.15302,-0.81363 10.37417,-3.17668 13.81445,-5.24805 17.6377,-10.61951 25.0963,-32.196 17.78125,-51.4375 -4.08941,-10.75677 -11.7579,-18.89818 -22.22656,-23.59961 -5.62156,-2.52462 -11.47648,-3.79684 -17.42188,-3.79687 z m -13.63476,13.6875 c 0.61198,0.0218 1.21814,0.18421 1.98047,0.46875 2.19944,0.82094 3.38352,1.96444 4.16406,4.01758 1.17993,3.10366 0.2244,5.87567 -2.80469,8.13672 -5.85928,4.37361 -8.95236,10.9607 -8.61914,18.35547 0.17338,3.84737 -0.68391,6.17294 -2.77344,7.52539 -2.58472,1.67293 -5.50809,1.61872 -7.95898,-0.14649 -1.35289,-0.97443 -1.5449,-1.28041 -2.30274,-3.67773 -0.99671,-3.15299 -0.96159,-6.23245 0.12891,-11.26172 2.09064,-9.6418 8.46211,-19.53811 14.33594,-22.26563 1.79429,-0.83318 2.82964,-1.18864 3.84961,-1.15234 z"
       id="path848" />
    <path
       id="path39"
       d="m 115,-380 v 39 h 39 v -39 z m 39,39 v 39 h 39 v -39 z m 39,0 h 39 v -39 h -39 z m 39,0 v 39 h 39 v -39 z m 39,0 h 39 v -39 h -39 z m 39,0 v 39 h 38.9707 v -39 z m 0,39 h -39 v 39 h 39 z m 0,39 v 39 h -39 v -39 h -39 v 39 h -39 v -39 h -39 v 39 h -39 v 156 c 30.65096,-0.03573 211.74313,-0.191406 178.70508,-0.191406 L 387.9668,-162.11133 V -224 h -38.9961 v -39 z m -156,0 v -39 h -39 v 39 z m 39,0 h 39 v -39 h -39 z m 156,-117 v 39 h 38.9707 v -39 z m 0,78 v 39 h 38.96875 v -39 z m -148.78125,87.54492 c 14.71555,0.11141 28.84014,5.77883 39.78516,16.0332 10.05566,9.42115 16.32445,21.45768 18.25195,35.04883 0.8326,5.87084 0.72296,13.67456 -0.25586,18.25586 l -0.27344,1.27539 26.27539,11.88282 c 24.42595,11.0459 26.40509,12.01183 28.10743,13.7246 1.55391,1.56347 1.99788,2.28091 2.93359,4.74219 0.93661,2.4621 1.0779,3.27712 0.93945,5.39258 -0.26614,4.06647 -2.81832,8.524884 -6.08789,10.632813 -2.1026,1.355558 -5.45098,2.203341 -8.17969,2.070313 -2.2642,-0.110341 -4.62532,-1.082598 -28.80273,-11.865236 l -26.33789,-11.74609 -0.77149,1.05078 c -2.77415,3.77528 -8.5336,9.04086 -13.47461,12.31836 -23.09735,15.321025 -53.56915,12.682223 -73.71093,-6.38281 -18.35304,-17.37192 -23.66931,-44.29962 -13.30274,-67.38282 3.80719,-8.47742 9.65568,-16.11735 16.58203,-21.66406 10.59808,-8.48705 21.92536,-12.75766 35.3711,-13.33398 0.98552,-0.0422 1.97013,-0.0602 2.95117,-0.0527 z m -0.81641,16.92383 c -2.70245,-1e-5 -5.42362,0.26246 -8.15039,0.78906 -4.91741,0.94966 -12.39807,4.16421 -16.45703,7.07031 -11.50469,8.23704 -18.23783,22.01014 -17.72461,36.25391 0.323,8.96373 3.89923,18.34862 9.64258,25.30469 9.84755,11.92687 25.65652,17.61731 40.74219,14.66406 4.15302,-0.81363 10.37417,-3.17668 13.81445,-5.24805 17.6377,-10.61951 25.0963,-32.196 17.78125,-51.4375 -4.08941,-10.75677 -11.7579,-18.89818 -22.22656,-23.59961 -5.62156,-2.52462 -11.47648,-3.79684 -17.42188,-3.79687 z m -13.63476,13.6875 c 0.61198,0.0218 1.21814,0.18421 1.98047,0.46875 2.19944,0.82094 3.38352,1.96444 4.16406,4.01758 1.17993,3.10366 0.2244,5.87567 -2.80469,8.13672 -5.85928,4.37361 -8.95236,10.9607 -8.61914,18.35547 0.17338,3.84737 -0.68391,6.17294 -2.77344,7.52539 -2.58472,1.67293 -5.50809,1.61872 -7.95898,-0.14649 -1.35289,-0.97443 -1.5449,-1.28041 -2.30274,-3.67773 -0.99671,-3.15299 -0.96159,-6.23245 0.12891,-11.26172 2.09064,-9.6418 8.46211,-19.53811 14.33594,-22.26563 1.79429,-0.83318 2.82964,-1.18864 3.84961,-1.15234 z"
       style="fill:#ffffff;stroke:none;stroke-width:1px;stroke-linecap:butt;stroke-linejoin:miter;stroke-opacity:1"
       inkscape:connector-curvature="0" />
  </g>
</svg>
