<?xml version="1.0" encoding="UTF-8" standalone="no"?>
<svg
   xmlns:dc="http://purl.org/dc/elements/1.1/"
   xmlns:cc="http://creativecommons.org/ns#"
   xmlns:rdf="http://www.w3.org/1999/02/22-rdf-syntax-ns#"
   xmlns:svg="http://www.w3.org/2000/svg"
   xmlns="http://www.w3.org/2000/svg"
   xmlns:sodipodi="http://sodipodi.sourceforge.net/DTD/sodipodi-0.dtd"
   xmlns:inkscape="http://www.inkscape.org/namespaces/inkscape"
   viewBox="0 0 64 64"
   version="1.1"
   id="svg5"
   sodipodi:docname="document-save-as.svg"
   width="64"
   height="64"
   inkscape:version="0.92.2 5c3e80d, 2017-08-06">
  <metadata
     id="metadata9">
    <rdf:RDF>
      <cc:Work
         rdf:about="">
        <dc:format>image/svg+xml</dc:format>
        <dc:type
           rdf:resource="http://purl.org/dc/dcmitype/StillImage" />
        <dc:title></dc:title>
      </cc:Work>
    </rdf:RDF>
  </metadata>
  <sodipodi:namedview
     pagecolor="#ffffff"
     bordercolor="#666666"
     borderopacity="1"
     objecttolerance="10"
     gridtolerance="10"
     guidetolerance="10"
     inkscape:pageopacity="0"
     inkscape:pageshadow="2"
     inkscape:window-width="1366"
     inkscape:window-height="717"
     id="namedview7"
     showgrid="false"
     inkscape:zoom="5.2149125"
     inkscape:cx="-7.4769484"
     inkscape:cy="37.895624"
     inkscape:window-x="0"
     inkscape:window-y="24"
     inkscape:window-maximized="1"
     inkscape:current-layer="svg5" />
  <defs
     id="defs3051">
    <style
       type="text/css"
       id="current-color-scheme">
      .ColorScheme-Text {
        color:#4d4d4d;
      }
      </style>
  </defs>
  <g
     id="g841">
    <path
       id="path27"
       d="M 54.114159,7.0592459 C 66.888272,18.13107 67.342506,38.271709 55.128759,52.046595 42.915013,65.82148 22.659955,68.012576 9.8858411,56.940753 -2.8882733,45.868929 -3.3425053,25.728289 8.871241,11.953403 21.084987,-1.8214817 41.340045,-4.0125779 54.114159,7.0592459 Z"
       inkscape:connector-curvature="0"
       style="fill:#68b723;fill-opacity:1;stroke-width:1.38869476;image-rendering:optimizeSpeed" />
    <path
       id="path51"
       d="M 63.954439,28.112939 C 63.760515,35.776895 60.809285,43.632265 55.083641,50.089749 42.869894,63.864639 22.614836,66.05573 9.840722,54.983911 3.8533905,49.794454 0.5621027,42.615355 0.02422846,35.0286 0.09988492,43.323185 3.3896764,51.310271 9.8848353,56.939883 22.658949,68.011701 42.914969,65.819524 55.127752,52.04572 61.340871,45.038457 64.25338,36.38435 63.954439,28.112939 Z"
       inkscape:connector-curvature="0"
       style="opacity:1;fill:#000000;fill-opacity:0.49019608;stroke-width:1.38869476;image-rendering:optimizeSpeed" />
    <path
       style="fill:#000000;fill-opacity:0.49019608;stroke-width:0.02474518;image-rendering:optimizeSpeed"
       d="m 19.094269,53.976717 c -0.701588,-0.06266 -1.43645,-0.31805 -2.03905,-0.708624 -1.145438,-0.742413 -1.888975,-1.959475 -2.0277,-3.3191 -0.03668,-0.359451 -0.0367,-30.567657 -2.5e-5,-30.905092 0.20995,-1.931652 1.609,-3.504866 3.48965,-3.924072 0.155437,-0.03465 0.405112,-0.07518 0.554812,-0.09007 0.194425,-0.01934 4.033588,-0.02479 13.43664,-0.01908 12.368453,0.0075 13.174893,0.01057 13.337338,0.0507 1.079253,0.266589 2.133625,1.075527 4.554597,3.494396 2.329741,2.327717 3.235953,3.475996 3.486655,4.418006 0.03449,0.129623 0.07377,0.369031 0.08727,0.532022 0.03418,0.412646 0.03402,25.977912 -2.5e-4,26.364187 -0.05328,0.602 -0.19456,1.097025 -0.469984,1.646762 -0.234957,0.468975 -0.441636,0.75195 -0.840546,1.150863 -0.39891,0.398913 -0.681889,0.605587 -1.150859,0.84055 -0.555507,0.278312 -1.057352,0.420338 -1.662416,0.470462 -0.358711,0.02972 -30.422981,0.02786 -30.756206,-0.0019 z m 29.252225,-1.519875 c 0.547997,-0.138712 0.998201,-0.600437 1.112783,-1.14125 0.05431,-0.256362 0.05431,-15.376215 0,-15.632572 -0.113905,-0.537625 -0.551996,-0.991751 -1.089302,-1.129171 -0.191993,-0.0491 -0.280754,-0.04942 -13.880529,-0.04942 -12.145455,0 -13.703915,0.0042 -13.83479,0.03749 -0.432512,0.109942 -0.81,0.414774 -0.99545,0.803846 -0.05515,0.115684 -0.1124,0.269342 -0.127237,0.341465 -0.03817,0.1856 -0.03817,15.43855 0,15.62415 0.01484,0.07212 0.07209,0.225775 0.127237,0.341462 0.183075,0.3841 0.559188,0.69075 0.984075,0.802338 0.117825,0.03094 1.976664,0.03596 13.845912,0.03738 12.143354,0.0014 13.726668,-0.0026 13.857301,-0.03571 z M 43.866352,29.951386 c 0.48095,-0.123006 0.868234,-0.482064 1.058738,-0.981574 l 0.05507,-0.144402 0.0073,-5.481059 c 0.0053,-3.958834 -3.75e-4,-5.522291 -0.0203,-5.629529 -0.0152,-0.08166 -0.07283,-0.243121 -0.128064,-0.358805 -0.128015,-0.268095 -0.41424,-0.563731 -0.664048,-0.685883 -0.346357,-0.169364 0.586939,-0.155453 -10.42924,-0.155453 -8.74788,0 -9.991655,0.0045 -10.115567,0.0368 -0.393721,0.102551 -0.78826,0.419004 -0.964384,0.773516 -0.180856,0.36404 -0.168929,-0.08029 -0.161256,6.006982 l 0.0069,5.468686 0.06753,0.18503 c 0.134629,0.368897 0.414252,0.68803 0.746842,0.852365 0.348808,0.17235 -0.554309,0.15841 10.4098,0.160684 9.855122,0.0021 9.939017,0.0017 10.130647,-0.04736 z m -6.371607,-6.706015 v -5.245979 h 2.251811 2.251811 v 5.245979 5.245979 h -2.251811 -2.251811 z"
       id="path855"
       inkscape:connector-curvature="0" />
    <path
       inkscape:connector-curvature="0"
       id="path853"
       d="m 16.594269,51.476717 c -0.701588,-0.06266 -1.43645,-0.31805 -2.03905,-0.708624 -1.145438,-0.742413 -1.888975,-1.959475 -2.0277,-3.3191 -0.03668,-0.359451 -0.0367,-30.567657 -2.5e-5,-30.905092 0.20995,-1.931652 1.609,-3.504866 3.48965,-3.924072 0.155437,-0.03465 0.405112,-0.07518 0.554812,-0.09007 0.194425,-0.01934 4.033588,-0.02479 13.43664,-0.01908 12.368453,0.0075 13.174893,0.01057 13.337338,0.0507 1.079253,0.266589 2.133625,1.075527 4.554597,3.494396 2.329741,2.327717 3.235953,3.475996 3.486655,4.418006 0.03449,0.129623 0.07377,0.369031 0.08727,0.532022 0.03418,0.412646 0.03402,25.977912 -2.5e-4,26.364187 -0.05328,0.602 -0.19456,1.097025 -0.469984,1.646762 -0.234957,0.468975 -0.441636,0.75195 -0.840546,1.150863 -0.39891,0.398913 -0.681889,0.605587 -1.150859,0.84055 -0.555507,0.278312 -1.057352,0.420338 -1.662416,0.470462 -0.358711,0.02972 -30.422981,0.02786 -30.756206,-0.0019 z m 29.252225,-1.519875 c 0.547997,-0.138712 0.998201,-0.600437 1.112783,-1.14125 0.05431,-0.256362 0.05431,-15.376215 0,-15.632572 -0.113905,-0.537625 -0.551996,-0.991751 -1.089302,-1.129171 -0.191993,-0.0491 -0.280754,-0.04942 -13.880529,-0.04942 -12.145455,0 -13.703915,0.0042 -13.83479,0.03749 -0.432512,0.109942 -0.81,0.414774 -0.99545,0.803846 -0.05515,0.115684 -0.1124,0.269342 -0.127237,0.341465 -0.03817,0.1856 -0.03817,15.43855 0,15.62415 0.01484,0.07212 0.07209,0.225775 0.127237,0.341462 0.183075,0.3841 0.559188,0.69075 0.984075,0.802338 0.117825,0.03094 1.976664,0.03596 13.845911,0.03738 12.143355,0.0014 13.726669,-0.0026 13.857302,-0.03571 z M 41.366352,27.451386 c 0.48095,-0.123006 0.868234,-0.482064 1.058738,-0.981574 l 0.05507,-0.144402 0.0073,-5.481059 c 0.0053,-3.958834 -3.75e-4,-5.522291 -0.0203,-5.629529 -0.0152,-0.08166 -0.07283,-0.243121 -0.128064,-0.358805 -0.128015,-0.268095 -0.41424,-0.563731 -0.664048,-0.685883 -0.346357,-0.169364 0.586939,-0.155453 -10.42924,-0.155453 -8.74788,0 -9.991655,0.0045 -10.115567,0.0368 -0.393721,0.102551 -0.78826,0.419004 -0.964384,0.773516 -0.180856,0.36404 -0.168929,-0.08029 -0.161256,6.006982 l 0.0069,5.468686 0.06753,0.18503 c 0.134629,0.368897 0.414252,0.68803 0.746842,0.852365 0.348808,0.17235 -0.554309,0.15841 10.4098,0.160684 9.855122,0.0021 9.939017,0.0017 10.130647,-0.04736 z m -6.371607,-6.706015 v -5.245979 h 2.251811 2.251811 v 5.245979 5.245979 h -2.251811 -2.251811 z"
       style="fill:#ffffff;stroke-width:0.02474518;image-rendering:optimizeSpeed" />
  </g>
</svg>
