<?xml version="1.0" encoding="UTF-8" standalone="no"?>
<svg
   xmlns:dc="http://purl.org/dc/elements/1.1/"
   xmlns:cc="http://creativecommons.org/ns#"
   xmlns:rdf="http://www.w3.org/1999/02/22-rdf-syntax-ns#"
   xmlns:svg="http://www.w3.org/2000/svg"
   xmlns="http://www.w3.org/2000/svg"
   xmlns:sodipodi="http://sodipodi.sourceforge.net/DTD/sodipodi-0.dtd"
   xmlns:inkscape="http://www.inkscape.org/namespaces/inkscape"
   viewBox="0 0 64 64"
   version="1.1"
   id="svg5"
   sodipodi:docname="document-edit-encrypt.svg"
   width="64"
   height="64"
   inkscape:version="0.92.2 5c3e80d, 2017-08-06">
  <metadata
     id="metadata9">
    <rdf:RDF>
      <cc:Work
         rdf:about="">
        <dc:format>image/svg+xml</dc:format>
        <dc:type
           rdf:resource="http://purl.org/dc/dcmitype/StillImage" />
        <dc:title></dc:title>
      </cc:Work>
    </rdf:RDF>
  </metadata>
  <sodipodi:namedview
     pagecolor="#ffffff"
     bordercolor="#666666"
     borderopacity="1"
     objecttolerance="10"
     gridtolerance="10"
     guidetolerance="10"
     inkscape:pageopacity="0"
     inkscape:pageshadow="2"
     inkscape:window-width="1366"
     inkscape:window-height="717"
     id="namedview7"
     showgrid="false"
     inkscape:zoom="0.65186407"
     inkscape:cx="295.11072"
     inkscape:cy="135.93633"
     inkscape:window-x="0"
     inkscape:window-y="24"
     inkscape:window-maximized="1"
     inkscape:current-layer="svg5" />
  <defs
     id="defs3051">
    <style
       type="text/css"
       id="current-color-scheme">
      .ColorScheme-Text {
        color:#4d4d4d;
      }
      </style>
  </defs>
  <g
     id="g920"
     transform="matrix(0.125,0,0,0.12499999,0,59.999999)">
    <path
       style="fill:#3689e6;fill-opacity:1;stroke-width:11.10955906"
       inkscape:connector-curvature="0"
       d="m 432.91328,-423.52606 c 102.1929,88.57459 105.82676,249.69974 8.1168,359.89882 C 343.32007,46.57184 181.27963,64.100608 79.086738,-24.473984 -23.106204,-113.04856 -26.740031,-274.17372 70.969938,-384.37279 168.67989,-494.57187 330.72033,-512.10064 432.91328,-423.52606 Z"
       id="path27-5" />
    <path
       style="opacity:1;fill:#000000;fill-opacity:0.49019608;stroke-width:11.10955906"
       inkscape:connector-curvature="0"
       d="m 511.63551,-255.09648 c -1.55139,61.31161 -25.16123,124.15457 -70.96637,175.81444 C 342.95912,30.917072 180.91868,48.4458 78.725756,-40.128752 30.827124,-81.64436 4.4968184,-139.07719 0.19382632,-199.77119 0.79907984,-133.41455 27.117404,-69.517816 79.078686,-24.480976 181.27157,64.093616 343.31973,46.556152 441.02203,-63.634232 490.72698,-119.69238 514.02704,-188.92523 511.63551,-255.09648 Z"
       id="path51-6" />
    <path
       inkscape:connector-curvature="0"
       style="fill:#000000;fill-opacity:0.49019608;stroke:none;stroke-width:1px;stroke-linecap:butt;stroke-linejoin:miter;stroke-opacity:1"
       d="m 135,-360 v 156 h 39 v 39 h 39 v -39 h 39 v 39 h 39 v -39 h 39 v 39 h 39 v -39 h 38.96875 l 0.002,-156 z m 234,195 v 39 h 22.79688 l 16.16992,-16.11133 V -165 Z m 0,39 h -39 v 39 h 22.6543 L 369,-103.28711 Z m -39,39 h -39 v 38.833984 c 2.69041,-0.0053 27.58842,-0.02539 22.70508,-0.02539 L 330,-64.427734 Z m -39,0 v -39 h -39 v 39 z m -39,0 h -39 v 38.923828 c 23.11233,-0.02175 20.05991,-0.0259 39,-0.04492 z m -39,0 v -39 h -39 v 39 z m -39,0 h -39 v 39 c 5.27828,-0.0062 26.66083,-0.02525 39,-0.03711 z m 0,-39 v -39 h -39 v 39 z m 39,0 h 39 v -39 h -39 z m 78,0 h 39 v -39 h -39 z"
       id="path914" />
    <path
       id="path39"
       d="m 115,-380 v 156 h 39 v 39 h 39 v -39 h 39 v 39 h 39 v -39 h 39 v 39 h 39 v -39 h 38.96875 l 0.002,-156 z m 234,195 v 39 h 22.79688 l 16.16992,-16.11133 V -185 Z m 0,39 h -39 v 39 h 22.6543 L 349,-123.28711 Z m -39,39 h -39 v 38.833984 c 2.69041,-0.0053 27.58842,-0.02539 22.70508,-0.02539 L 310,-84.427734 Z m -39,0 v -39 h -39 v 39 z m -39,0 h -39 v 38.923828 c 23.11233,-0.02175 20.05991,-0.0259 39,-0.04492 z m -39,0 v -39 h -39 v 39 z m -39,0 h -39 v 39 c 5.27828,-0.0062 26.66083,-0.02525 39,-0.03711 z m 0,-39 v -39 h -39 v 39 z m 39,0 h 39 v -39 h -39 z m 78,0 h 39 v -39 h -39 z"
       style="fill:#ffffff;stroke:none;stroke-width:1px;stroke-linecap:butt;stroke-linejoin:miter;stroke-opacity:1"
       inkscape:connector-curvature="0" />
  </g>
</svg>
