<?xml version="1.0" encoding="UTF-8" standalone="no"?>
<svg
   xmlns:dc="http://purl.org/dc/elements/1.1/"
   xmlns:cc="http://creativecommons.org/ns#"
   xmlns:rdf="http://www.w3.org/1999/02/22-rdf-syntax-ns#"
   xmlns:svg="http://www.w3.org/2000/svg"
   xmlns="http://www.w3.org/2000/svg"
   xmlns:sodipodi="http://sodipodi.sourceforge.net/DTD/sodipodi-0.dtd"
   xmlns:inkscape="http://www.inkscape.org/namespaces/inkscape"
   viewBox="0 0 64 64"
   version="1.1"
   id="svg5"
   sodipodi:docname="document-export.svg"
   width="64"
   height="64"
   inkscape:version="0.92.2 5c3e80d, 2017-08-06">
  <metadata
     id="metadata9">
    <rdf:RDF>
      <cc:Work
         rdf:about="">
        <dc:format>image/svg+xml</dc:format>
        <dc:type
           rdf:resource="http://purl.org/dc/dcmitype/StillImage" />
        <dc:title></dc:title>
      </cc:Work>
    </rdf:RDF>
  </metadata>
  <sodipodi:namedview
     pagecolor="#ffffff"
     bordercolor="#666666"
     borderopacity="1"
     objecttolerance="10"
     gridtolerance="10"
     guidetolerance="10"
     inkscape:pageopacity="0"
     inkscape:pageshadow="2"
     inkscape:window-width="1366"
     inkscape:window-height="717"
     id="namedview7"
     showgrid="false"
     inkscape:zoom="3.6875"
     inkscape:cx="29.96752"
     inkscape:cy="36.708068"
     inkscape:window-x="0"
     inkscape:window-y="24"
     inkscape:window-maximized="1"
     inkscape:current-layer="svg5" />
  <defs
     id="defs3051">
    <style
       type="text/css"
       id="current-color-scheme">
      .ColorScheme-Text {
        color:#4d4d4d;
      }
      </style>
  </defs>
  <g
     id="g854">
    <path
       id="path848"
       d="M 54.114161,7.0592421 C 66.888275,18.131067 67.342508,38.271708 55.128761,52.046594 42.915015,65.821478 22.659958,68.012578 9.8858433,56.940752 -2.8882758,45.868928 -3.3425042,25.728286 8.8712432,11.9534 21.08499,-1.8214861 41.340048,-4.0125826 54.114161,7.0592421 Z"
       inkscape:connector-curvature="0"
       style="fill:#7f6421;fill-opacity:1;stroke-width:1.38869488" />
    <path
       style="fill:#ffffff;fill-opacity:1;stroke-width:1.2913636"
       inkscape:connector-curvature="0"
       d="M 52.419519,8.8796472 C 64.298316,19.175468 64.720716,37.904485 53.363008,50.713914 42.005301,63.52334 23.169887,65.560866 11.291086,55.265047 -0.58771495,44.96923 -1.0101103,26.24021 10.347598,13.43078 21.705306,0.62135532 40.54072,-1.4161748 52.419519,8.8796472 Z"
       id="path849" />
    <path
       inkscape:connector-curvature="0"
       id="path843"
       d="M 34.98019,0.00222152 C 25.586136,-0.06074098 15.898003,4.0285518 8.8713014,11.953391 -3.342447,25.728277 -2.8881695,45.868875 9.8859492,56.9407 22.660063,68.012528 42.915126,65.821541 55.128874,52.046656 59.144736,47.517497 61.7906,42.300051 63.079796,36.943142 60.627299,32.457084 54.611149,21.862273 48.32931,13.93435 43.967481,8.4295434 38.832117,3.456728 34.98019,0.00222152 Z"
       style="fill:#f9c440;fill-opacity:1;stroke:none;stroke-width:0.125px;stroke-linecap:butt;stroke-linejoin:miter;stroke-opacity:1" />
    <path
       id="path850"
       d="M 63.95444,28.112938 C 63.760518,35.776893 60.809287,43.632265 55.083643,50.089748 42.869897,63.86464 22.614839,66.055728 9.8407204,54.983911 3.853391,49.794454 0.56210248,42.615354 0.0242284,35.028599 0.0998851,43.323184 3.3896759,51.310272 9.8848371,56.939884 22.658952,68.011703 42.914972,65.819528 55.127754,52.045721 61.340874,45.038456 64.253383,36.384349 63.95444,28.112938 Z"
       inkscape:connector-curvature="0"
       style="opacity:1;fill:#000000;fill-opacity:0.49019608;stroke-width:1.38869488" />
    <g
       transform="translate(2)"
       id="g845">
      <path
         sodipodi:nodetypes="cccccccsccccscsccsccccc"
         inkscape:connector-curvature="0"
         id="path41"
         d="M 57.500422,39.161212 C 57.343508,38.6976 56.967057,38.16173 56.233724,37.358102 55.636592,36.703727 41.603592,22.686867 41.262624,22.404218 c -0.86949,-0.720776 -1.346395,-0.860531 -1.614481,-0.473117 -0.10425,0.150661 -0.165581,0.330851 -0.229201,0.673395 -0.04664,0.251062 -0.05336,0.67589 -0.06253,3.9461 l -0.01028,3.664749 h -7.731297 c -8.397026,0 -8.047514,-0.0068 -8.743461,0.169754 -2.319144,0.5883 -4.007961,2.54763 -4.249309,4.929955 -0.04451,0.43946 -0.04462,8.220207 -1.19e-4,8.661197 0.271812,2.693069 2.384213,4.792549 5.098307,5.067105 0.215125,0.02176 2.867352,0.0326 7.975302,0.0326 h 7.652989 v 3.487016 c 0,2.196203 0.01195,3.598895 0.03233,3.789239 0.06496,0.607416 0.201358,0.983045 0.411302,1.132687 0.1662,0.118467 0.417587,0.101836 0.720011,-0.04763 0.431349,-0.213177 0.822667,-0.542729 1.870829,-1.575538 2.517857,-2.480964 13.272933,-13.205783 13.7024,-13.663849 0.88324,-0.942049 1.293912,-1.522831 1.45111,-2.052181 0.08122,-0.273489 0.06623,-0.682143 -0.03607,-0.984489 z"
         style="fill:#000000;fill-opacity:0.49019608;stroke-width:0.03112313" />
      <path
         style="fill:#ffffff;stroke-width:0.03112313"
         d="m 55.000442,36.661201 c -0.156914,-0.463613 -0.533365,-0.999483 -1.266697,-1.80311 -0.597133,-0.654375 -14.630133,-14.671235 -14.9711,-14.953884 -0.86949,-0.720776 -1.346395,-0.860531 -1.614482,-0.473118 -0.10425,0.150662 -0.165581,0.330852 -0.229201,0.673395 -0.04664,0.251063 -0.05336,0.67589 -0.06253,3.946101 l -0.01028,3.664749 h -7.731297 c -8.397026,0 -8.047514,-0.0068 -8.743461,0.169754 -2.319144,0.5883 -4.007961,2.54763 -4.249309,4.929955 -0.04451,0.43946 -0.04462,8.220206 -1.18e-4,8.661196 0.271811,2.693069 2.384212,4.792549 5.098306,5.067105 0.215125,0.02176 2.867352,0.0326 7.975302,0.0326 h 7.652989 v 3.487016 c 0,2.196203 0.01195,3.598895 0.03233,3.789239 0.06496,0.607416 0.201358,0.983045 0.411302,1.132687 0.1662,0.118467 0.417587,0.101836 0.720011,-0.04763 0.431349,-0.213177 0.822668,-0.542729 1.870829,-1.575538 2.517858,-2.480964 13.272934,-13.205782 13.7024,-13.663848 0.88324,-0.942049 1.293912,-1.522832 1.45111,-2.052182 0.08122,-0.273488 0.06623,-0.682142 -0.03607,-0.984489 z"
         id="path877"
         inkscape:connector-curvature="0"
         sodipodi:nodetypes="cccccccsccccscsccsccccc" />
    </g>
  </g>
</svg>
