<?xml version="1.0" encoding="UTF-8" standalone="no"?>
<svg
   xmlns:dc="http://purl.org/dc/elements/1.1/"
   xmlns:cc="http://creativecommons.org/ns#"
   xmlns:rdf="http://www.w3.org/1999/02/22-rdf-syntax-ns#"
   xmlns:svg="http://www.w3.org/2000/svg"
   xmlns="http://www.w3.org/2000/svg"
   xmlns:sodipodi="http://sodipodi.sourceforge.net/DTD/sodipodi-0.dtd"
   xmlns:inkscape="http://www.inkscape.org/namespaces/inkscape"
   viewBox="0 0 64 64"
   version="1.1"
   id="svg8"
   sodipodi:docname="document-unequal.svg"
   width="64"
   height="64"
   inkscape:version="0.92.2 5c3e80d, 2017-08-06">
  <metadata
     id="metadata12">
    <rdf:RDF>
      <cc:Work
         rdf:about="">
        <dc:format>image/svg+xml</dc:format>
        <dc:type
           rdf:resource="http://purl.org/dc/dcmitype/StillImage" />
        <dc:title></dc:title>
      </cc:Work>
    </rdf:RDF>
  </metadata>
  <sodipodi:namedview
     pagecolor="#ffffff"
     bordercolor="#666666"
     borderopacity="1"
     objecttolerance="10"
     gridtolerance="10"
     guidetolerance="10"
     inkscape:pageopacity="0"
     inkscape:pageshadow="2"
     inkscape:window-width="1366"
     inkscape:window-height="717"
     id="namedview10"
     showgrid="false"
     inkscape:zoom="0.65186407"
     inkscape:cx="288.70485"
     inkscape:cy="295.52435"
     inkscape:window-x="0"
     inkscape:window-y="24"
     inkscape:window-maximized="1"
     inkscape:current-layer="svg8" />
  <defs
     id="defs3051">
    <style
       type="text/css"
       id="current-color-scheme">
      .ColorScheme-Text {
        color:#4d4d4d;
      }
      .ColorScheme-NegativeText {
        color:#da4453;
      }
      </style>
  </defs>
  <g
     id="g865"
     transform="matrix(0.125,0,0,0.125,6.1868113e-8,55.999999)">
    <path
       style="fill:#3689e6;fill-opacity:1;stroke-width:11.10955906"
       inkscape:connector-curvature="0"
       d="m 432.91328,-391.52606 c 102.1929,88.57459 105.82676,249.69974 8.1168,359.89882 C 343.32007,78.57184 181.27963,96.100608 79.086738,7.526016 -23.106204,-81.04856 -26.740031,-242.17372 70.969938,-352.37279 168.67989,-462.57187 330.72033,-480.10064 432.91328,-391.52606 Z"
       id="path27-5" />
    <path
       style="opacity:1;fill:#000000;fill-opacity:0.49019608;stroke-width:11.10955906"
       inkscape:connector-curvature="0"
       d="m 511.63551,-223.09648 c -1.55139,61.31161 -25.16123,124.154568 -70.96637,175.81444 C 342.95912,62.917072 180.91868,80.4458 78.725756,-8.128752 30.827124,-49.64436 4.4968184,-107.07719 0.19382632,-167.77119 0.79907984,-101.41455 27.117404,-37.517816 79.078686,7.519024 181.27157,96.093616 343.31973,78.556152 441.02203,-31.634232 490.72698,-87.692376 514.02704,-156.92523 511.63551,-223.09648 Z"
       id="path51-6" />
    <path
       style="fill:#000000;fill-opacity:0.49019608;stroke-width:1.73719752"
       d="m 202.82334,-19.23381 c -7.65562,-3.47678 -12.86952,-9.67485 -16.06581,-19.09839 -3.19957,-9.43326 -2.41465,-13.85849 5.84287,-32.94122 4.28395,-9.89998 7.78901,-18.30367 7.78901,-18.67488 0,-0.37118 -11.76491,-0.6749 -26.14423,-0.6749 -29.06958,0 -32.20475,-0.84921 -41.2755,-11.18024 -10.14906,-11.55912 -10.63563,-26.11301 -1.28296,-38.37497 8.73371,-11.45049 11.20664,-12.01913 56.46512,-12.9839 l 40.74698,-0.8686 8.13875,-18.24057 8.13877,-18.24058 -48.88573,-0.86859 c -41.10588,-0.73037 -49.71512,-1.32615 -54.09732,-3.74365 -5.94387,-3.27899 -11.6076,-9.11247 -14.74954,-15.19156 -2.77199,-5.36332 -2.77472,-19.2974 -0.005,-24.6687 2.70388,-5.24328 10.19838,-13.39315 14.75437,-16.04461 2.39255,-1.3924 23.41812,-2.29246 67.52528,-2.8906 l 64.05089,-0.86859 12.57129,-28.33479 c 6.9142,-15.58414 14.20287,-30.54165 16.19705,-33.23891 8.95993,-12.11895 27.78509,-15.31819 41.23246,-7.00725 7.1822,4.43883 14.67782,18.18788 14.65876,26.8882 -0.007,2.86638 -3.51647,13.31158 -7.80041,23.21157 -4.28395,9.89998 -7.78901,18.30367 -7.78901,18.67487 0,0.37119 11.28434,0.6749 25.07628,0.6749 13.79196,0 27.27695,0.83148 29.96665,1.84772 20.94856,7.9149 26.93504,36.64314 10.70133,51.35403 -8.89914,8.06435 -11.00184,8.4313 -53.50619,9.33737 l -40.74645,0.86859 -8.13971,18.24058 -8.13971,18.24057 48.88617,0.8686 c 54.02783,0.95996 55.73376,1.29427 64.26055,12.59286 4.36716,5.7868 8.35641,17.32962 7.25002,20.97779 -0.34058,1.12305 -1.0867,4.17735 -1.65805,6.78733 -1.14252,5.21929 -9.79632,15.90252 -15.55871,19.20742 -2.61132,1.49767 -22.16144,2.35576 -67.75096,2.97371 l -64.08049,0.8686 -12.92012,29.53236 c -7.10607,16.2428 -14.6207,31.39439 -16.69919,33.67022 C 234.69833,-20.98696 223.4707,-16 216.02401,-16 c -3.3441,0 -9.28448,-1.45522 -13.20084,-3.23381 z"
       id="path859"
       inkscape:connector-curvature="0" />
    <path
       inkscape:connector-curvature="0"
       id="path857"
       d="m 182.82334,-39.23381 c -7.65562,-3.47678 -12.86952,-9.67485 -16.06581,-19.09839 -3.19957,-9.43326 -2.41465,-13.85849 5.84287,-32.94122 4.28395,-9.89998 7.78901,-18.30367 7.78901,-18.67488 0,-0.37118 -11.76491,-0.6749 -26.14423,-0.6749 -29.06958,0 -32.20475,-0.84921 -41.2755,-11.18024 -10.14906,-11.55912 -10.63563,-26.11301 -1.28296,-38.37497 8.73371,-11.45049 11.20664,-12.01913 56.46512,-12.9839 l 40.74698,-0.8686 8.13875,-18.24057 8.13877,-18.24058 -48.88573,-0.86859 c -41.10588,-0.73037 -49.71512,-1.32615 -54.09732,-3.74365 -5.94387,-3.27899 -11.6076,-9.11247 -14.74954,-15.19156 -2.77199,-5.36332 -2.77472,-19.2974 -0.005,-24.6687 2.70388,-5.24328 10.19838,-13.39315 14.75437,-16.04461 2.39255,-1.3924 23.41812,-2.29246 67.52528,-2.8906 l 64.05089,-0.86859 12.57129,-28.33479 c 6.9142,-15.58414 14.20287,-30.54165 16.19705,-33.23891 8.95993,-12.11895 27.78509,-15.31819 41.23246,-7.00725 7.1822,4.43883 14.67782,18.18788 14.65876,26.8882 -0.007,2.86638 -3.51647,13.31158 -7.80041,23.21157 -4.28395,9.89998 -7.78901,18.30367 -7.78901,18.67487 0,0.37119 11.28434,0.6749 25.07628,0.6749 13.79196,0 27.27695,0.83148 29.96665,1.84772 20.94856,7.9149 26.93504,36.64314 10.70133,51.35403 -8.89914,8.06435 -11.00184,8.4313 -53.50619,9.33737 l -40.74645,0.86859 -8.13971,18.24058 -8.13971,18.24057 48.88617,0.8686 c 54.02783,0.95996 55.73376,1.29427 64.26055,12.59286 4.36716,5.7868 8.35641,17.32962 7.25002,20.97779 -0.34058,1.12305 -1.0867,4.17735 -1.65805,6.78733 -1.14252,5.21929 -9.79632,15.90252 -15.55871,19.20742 -2.61132,1.49767 -22.16144,2.35576 -67.75096,2.97371 l -64.08049,0.8686 -12.92012,29.53236 c -7.10607,16.2428 -14.6207,31.39439 -16.69919,33.67022 C 214.69833,-40.98696 203.4707,-36 196.02401,-36 c -3.3441,0 -9.28448,-1.45522 -13.20084,-3.23381 z"
       style="fill:#ffffff;stroke-width:1.73719752" />
  </g>
</svg>
