<?xml version="1.0" encoding="UTF-8" standalone="no"?>
<svg
   xmlns:dc="http://purl.org/dc/elements/1.1/"
   xmlns:cc="http://creativecommons.org/ns#"
   xmlns:rdf="http://www.w3.org/1999/02/22-rdf-syntax-ns#"
   xmlns:svg="http://www.w3.org/2000/svg"
   xmlns="http://www.w3.org/2000/svg"
   xmlns:sodipodi="http://sodipodi.sourceforge.net/DTD/sodipodi-0.dtd"
   xmlns:inkscape="http://www.inkscape.org/namespaces/inkscape"
   viewBox="0 0 64 64"
   version="1.1"
   id="svg6"
   sodipodi:docname="star-shape.svg"
   width="64"
   height="64"
   inkscape:version="0.92.2 5c3e80d, 2017-08-06">
  <metadata
     id="metadata10">
    <rdf:RDF>
      <cc:Work
         rdf:about="">
        <dc:format>image/svg+xml</dc:format>
        <dc:type
           rdf:resource="http://purl.org/dc/dcmitype/StillImage" />
        <dc:title />
      </cc:Work>
    </rdf:RDF>
  </metadata>
  <sodipodi:namedview
     pagecolor="#ffffff"
     bordercolor="#666666"
     borderopacity="1"
     objecttolerance="10"
     gridtolerance="10"
     guidetolerance="10"
     inkscape:pageopacity="0"
     inkscape:pageshadow="2"
     inkscape:window-width="1366"
     inkscape:window-height="717"
     id="namedview8"
     showgrid="false"
     inkscape:zoom="4.9166667"
     inkscape:cx="22.925607"
     inkscape:cy="26.88388"
     inkscape:window-x="0"
     inkscape:window-y="24"
     inkscape:window-maximized="1"
     inkscape:current-layer="svg6" />
  <defs
     id="defs3051">
    <style
       type="text/css"
       id="current-color-scheme">
      .ColorScheme-Text {
        color:#4d4d4d;
      }
      </style>
  </defs>
  <g
     id="g845"
     transform="matrix(0.125,0,0,0.125,0,56)">
    <path
       style="fill:#3689e6;fill-opacity:1;stroke-width:11.10955906"
       inkscape:connector-curvature="0"
       d="m 432.91328,-391.52606 c 102.1929,88.57459 105.82676,249.69974 8.1168,359.898821 C 343.32007,78.571841 181.27963,96.100609 79.086738,7.5260172 -23.106204,-81.048559 -26.740031,-242.17372 70.969938,-352.37279 168.67989,-462.57187 330.72033,-480.10064 432.91328,-391.52606 Z"
       id="path27-5" />
    <path
       style="opacity:1;fill:#000000;fill-opacity:0.49019608;stroke-width:11.10955906"
       inkscape:connector-curvature="0"
       d="m 511.63551,-223.09648 c -1.55139,61.31161 -25.16123,124.154569 -70.96637,175.814441 C 342.95912,62.917073 180.91868,80.445801 78.725756,-8.1287508 30.827124,-49.644359 4.496818,-107.07719 0.19382603,-167.77119 0.79907955,-101.41455 27.117404,-37.517815 79.078686,7.5190252 181.27157,96.093617 343.31973,78.556153 441.02203,-31.634231 490.72698,-87.692367 514.02704,-156.92523 511.63551,-223.09648 Z"
       id="path51-6" />
    <path
       style="fill:#000000;fill-opacity:0.49019608;stroke-width:1.13736749"
       d="m 365.30937,-21.480658 c -3.47861,-1.43121 -23.69533,-11.62 -44.926,-22.64159 -21.23068,-11.02171 -39.92692,-20.36599 -41.54722,-20.76472 -2.35302,-0.5792 -11.90463,3.7546 -47.4537,21.53112 -24.47921,12.241 -45.7642,22.25645 -47.29995,22.25645 -3.53575,0 -7.09408,-4.42416 -8.03147,-9.98549 -0.41493,-2.46168 1.47088,-23.02248 4.50865,-49.157602 2.87206,-24.70933 4.93584,-46.49833 4.5862,-48.41993 -0.34962,-1.92151 -1.78119,-5.043 -3.18125,-6.93659 -2.83221,-3.83053 -30.7092,-34.39009 -47.58463,-52.16364 -7.58015,-7.98357 -11.55353,-13.16313 -12.99667,-16.94192 -4.12212,-10.79357 -2.27657,-11.5547 52.38262,-21.60377 33.75516,-6.20588 45.80233,-8.84424 48.09239,-10.53235 1.88889,-1.39239 8.40052,-12.20389 17.0555,-28.31792 26.79999,-49.89671 29.23987,-54.2027 32.56358,-57.4692 4.09104,-4.02063 5.21872,-4.06924 9.56473,-0.41233 3.9031,3.28424 32.61032,51.97266 44.39097,75.2886 3.28639,6.5043 9.03686,12.85961 13.21556,14.60558 1.8952,0.79187 12.39541,3.00752 23.33381,4.92366 31.8757,5.58386 58.9162,11.28881 63.24628,13.34356 5.68273,2.69663 7.81208,6.29012 6.29907,10.63032 -2.69738,7.73768 -11.43248,17.98132 -43.01421,50.44265 -10.84619,11.14826 -20.03122,21.50815 -20.41115,23.02195 -0.37994,1.5138 1.4133,17.4714 3.98496,35.4614 9.30865,65.118362 9.71456,70.310672 5.80225,74.223022 -2.88742,2.88738 -4.77399,2.83022 -12.58032,-0.38126 z"
       id="path839"
       inkscape:connector-curvature="0" />
    <path
       inkscape:connector-curvature="0"
       id="path844"
       d="m 345.30937,-41.480658 c -3.47861,-1.43121 -23.69533,-11.62 -44.926,-22.64159 -21.23068,-11.02171 -39.92692,-20.36599 -41.54722,-20.76472 -2.35302,-0.5792 -11.90463,3.7546 -47.4537,21.53112 -24.47921,12.241 -45.7642,22.25645 -47.29995,22.25645 -3.53575,0 -7.09408,-4.42416 -8.03147,-9.98549 -0.41493,-2.46168 1.47088,-23.02248 4.50865,-49.157602 2.87206,-24.70933 4.93584,-46.49833 4.5862,-48.41993 -0.34962,-1.92151 -1.78119,-5.043 -3.18125,-6.93659 -2.83221,-3.83053 -30.7092,-34.39009 -47.58463,-52.16364 -7.58015,-7.98357 -11.55353,-13.16313 -12.99667,-16.94192 -4.122115,-10.79357 -2.276565,-11.5547 52.38262,-21.60377 33.75516,-6.20588 45.80233,-8.84424 48.09239,-10.53235 1.88889,-1.39239 8.40052,-12.20389 17.0555,-28.31792 26.79999,-49.89671 29.23987,-54.2027 32.56358,-57.4692 4.09104,-4.02063 5.21872,-4.06924 9.56473,-0.41233 3.9031,3.28424 32.61032,51.97266 44.39097,75.2886 3.28639,6.5043 9.03686,12.85961 13.21556,14.60558 1.8952,0.79187 12.39541,3.00752 23.33381,4.92366 31.8757,5.58386 58.9162,11.28881 63.24628,13.34356 5.68273,2.69663 7.81208,6.29012 6.29907,10.63032 -2.69738,7.73768 -11.43248,17.98132 -43.01421,50.44265 -10.84619,11.14826 -20.03122,21.50815 -20.41115,23.02195 -0.37994,1.5138 1.4133,17.4714 3.98496,35.4614 9.30865,65.118362 9.71456,70.310672 5.80225,74.223022 -2.88742,2.88738 -4.77399,2.83022 -12.58032,-0.38126 z"
       style="fill:#ffffff;fill-opacity:1;stroke-width:1.13736749" />
  </g>
</svg>
