<?xml version="1.0" encoding="UTF-8" standalone="no"?>
<svg
   xmlns:dc="http://purl.org/dc/elements/1.1/"
   xmlns:cc="http://creativecommons.org/ns#"
   xmlns:rdf="http://www.w3.org/1999/02/22-rdf-syntax-ns#"
   xmlns:svg="http://www.w3.org/2000/svg"
   xmlns="http://www.w3.org/2000/svg"
   xmlns:sodipodi="http://sodipodi.sourceforge.net/DTD/sodipodi-0.dtd"
   xmlns:inkscape="http://www.inkscape.org/namespaces/inkscape"
   viewBox="0 0 64 64"
   version="1.1"
   id="svg12"
   sodipodi:docname="draw-cuboid.svg"
   width="64"
   height="64"
   inkscape:version="0.92.2 5c3e80d, 2017-08-06">
  <metadata
     id="metadata16">
    <rdf:RDF>
      <cc:Work
         rdf:about="">
        <dc:format>image/svg+xml</dc:format>
        <dc:type
           rdf:resource="http://purl.org/dc/dcmitype/StillImage" />
        <dc:title></dc:title>
      </cc:Work>
    </rdf:RDF>
  </metadata>
  <sodipodi:namedview
     pagecolor="#ffffff"
     bordercolor="#666666"
     borderopacity="1"
     objecttolerance="10"
     gridtolerance="10"
     guidetolerance="10"
     inkscape:pageopacity="0"
     inkscape:pageshadow="2"
     inkscape:window-width="1366"
     inkscape:window-height="717"
     id="namedview14"
     showgrid="false"
     inkscape:zoom="3.4766083"
     inkscape:cx="63.225286"
     inkscape:cy="17.271128"
     inkscape:window-x="0"
     inkscape:window-y="24"
     inkscape:window-maximized="1"
     inkscape:current-layer="svg12" />
  <defs
     id="defs3051">
    <style
       type="text/css"
       id="current-color-scheme">
      .ColorScheme-Text {
        color:#4d4d4d;
      }
      </style>
  </defs>
  <g
     id="g888"
     transform="matrix(0.125,0,0,0.125,6.1868113e-8,61)">
    <path
       style="fill:#3689e6;fill-opacity:1;stroke-width:11.10955906"
       inkscape:connector-curvature="0"
       d="m 432.91328,-431.52606 c 102.1929,88.57459 105.82676,249.69974 8.1168,359.898821 C 343.32007,38.571841 181.27963,56.100609 79.086738,-32.473983 -23.106204,-121.04856 -26.740031,-282.17372 70.969938,-392.37279 168.67989,-502.57187 330.72033,-520.10064 432.91328,-431.52606 Z"
       id="path27-5" />
    <path
       style="opacity:1;fill:#000000;fill-opacity:0.49019608;stroke-width:11.10955906"
       inkscape:connector-curvature="0"
       d="m 511.63551,-263.09648 c -1.55139,61.31161 -25.16123,124.15457 -70.96637,175.814441 C 342.95912,22.917073 180.91868,40.445801 78.725756,-48.128751 30.827124,-89.644359 4.4968183,-147.07719 0.19382626,-207.77119 0.79907978,-141.41455 27.117404,-77.517815 79.078686,-32.480975 181.27157,56.093617 343.31973,38.556153 441.02203,-71.634231 490.72698,-127.69237 514.02704,-196.92523 511.63551,-263.09648 Z"
       id="path51-6" />
    <g
       style="fill:#000000;fill-opacity:0.49019608"
       transform="translate(20.000001,20)"
       id="g876">
      <path
         inkscape:connector-curvature="0"
         id="path870"
         class="ColorScheme-Text"
         d="m 367.89916,-353.31781 c -0.16262,-0.16342 -37.25111,-7.83975 -82.41193,-17.06617 l -82.11111,-16.76387 -51.04032,50.78897 c -28.08549,27.94717 -50.92058,50.95965 -50.73961,51.14152 0.18072,0.18161 37.28607,7.84117 82.46232,17.01605 l 82.13643,16.68852 51.01513,-50.76389 c 28.05195,-27.91381 50.85209,-50.87732 50.68909,-51.04113 z"
         style="color:#4d4d4d;fill:#000000;fill-opacity:0.49019608;stroke:none;stroke-width:18.19656563" />
      <path
         inkscape:connector-curvature="0"
         id="path872"
         class="ColorScheme-Text"
         d="M 264.52667,-237.41855 C 262.99344,-238.83807 99.986051,-270.91433 100,-269.79101 c 0.009,0.55356 7.07494,37.15287 15.73219,81.31175 8.65727,44.15889 15.97604,80.35358 16.28734,80.40842 13.56493,2.93126 163.6885,32.27469 164.075,32.069772 0.83527,-0.44533 -30.48587,-160.330132 -31.56786,-161.417482 z"
         style="color:#4d4d4d;fill:#000000;fill-opacity:0.49019608;stroke:none;stroke-width:18.19656563" />
      <path
         inkscape:connector-curvature="0"
         id="path874"
         class="ColorScheme-Text"
         d="m 379.56002,-343.21159 c -0.16172,-0.16252 -22.89718,22.1643 -50.48457,49.63432 l -50.1335,49.93675 16.10662,82.34304 c 8.85792,45.27636 16.12975,82.416679 16.20676,82.494072 0.0602,0.104389 22.75834,-22.345442 50.43494,-49.885742 L 412,-178.75112 395.94302,-260.84273 c -8.84402,-45.1463 -16.22127,-82.20632 -16.38298,-82.36884 z"
         style="color:#4d4d4d;fill:#000000;fill-opacity:0.49019608;stroke:none;stroke-width:18.19656563" />
    </g>
    <g
       id="g868">
      <path
         style="color:#4d4d4d;fill:#ffffff;fill-opacity:1;stroke:none;stroke-width:18.19656563"
         d="m 367.89916,-353.31781 c -0.16262,-0.16342 -37.25111,-7.83975 -82.41193,-17.06617 l -82.11111,-16.76387 -51.04032,50.78897 c -28.08549,27.94717 -50.92058,50.95965 -50.73961,51.14152 0.18072,0.18161 37.28607,7.84117 82.46232,17.01605 l 82.13643,16.68852 51.01513,-50.76389 c 28.05195,-27.91381 50.85209,-50.87732 50.68909,-51.04113 z"
         class="ColorScheme-Text"
         id="path6"
         inkscape:connector-curvature="0" />
      <path
         style="color:#4d4d4d;fill:#ffffff;fill-opacity:1;stroke:none;stroke-width:18.19656563"
         d="M 264.52667,-237.41855 C 262.99344,-238.83807 99.986051,-270.91433 100,-269.79101 c 0.009,0.55356 7.07494,37.15287 15.73219,81.31175 8.65727,44.15889 15.97604,80.35358 16.28734,80.40842 13.56493,2.93126 163.6885,32.27469 164.075,32.069772 0.83527,-0.44533 -30.48587,-160.330132 -31.56786,-161.417482 z"
         class="ColorScheme-Text"
         id="path8"
         inkscape:connector-curvature="0" />
      <path
         style="color:#4d4d4d;fill:#ffffff;fill-opacity:1;stroke:none;stroke-width:18.19656563"
         d="m 379.56002,-343.21159 c -0.16172,-0.16252 -22.89718,22.1643 -50.48457,49.63432 l -50.1335,49.93675 16.10662,82.34304 c 8.85792,45.27636 16.12975,82.416679 16.20676,82.494072 0.0602,0.104389 22.75834,-22.345442 50.43494,-49.885742 L 412,-178.75112 395.94302,-260.84273 c -8.84402,-45.1463 -16.22127,-82.20632 -16.38298,-82.36884 z"
         class="ColorScheme-Text"
         id="path10"
         inkscape:connector-curvature="0" />
    </g>
  </g>
</svg>
