<?xml version="1.0" encoding="UTF-8" standalone="no"?>
<svg
   xmlns:dc="http://purl.org/dc/elements/1.1/"
   xmlns:cc="http://creativecommons.org/ns#"
   xmlns:rdf="http://www.w3.org/1999/02/22-rdf-syntax-ns#"
   xmlns:svg="http://www.w3.org/2000/svg"
   xmlns="http://www.w3.org/2000/svg"
   xmlns:sodipodi="http://sodipodi.sourceforge.net/DTD/sodipodi-0.dtd"
   xmlns:inkscape="http://www.inkscape.org/namespaces/inkscape"
   viewBox="0 0 64 64"
   version="1.1"
   id="svg6"
   sodipodi:docname="draw-polyline.svg"
   width="64"
   height="64"
   inkscape:version="0.92.2 5c3e80d, 2017-08-06">
  <metadata
     id="metadata10">
    <rdf:RDF>
      <cc:Work
         rdf:about="">
        <dc:format>image/svg+xml</dc:format>
        <dc:type
           rdf:resource="http://purl.org/dc/dcmitype/StillImage" />
        <dc:title></dc:title>
      </cc:Work>
    </rdf:RDF>
  </metadata>
  <sodipodi:namedview
     pagecolor="#ffffff"
     bordercolor="#666666"
     borderopacity="1"
     objecttolerance="10"
     gridtolerance="10"
     guidetolerance="10"
     inkscape:pageopacity="0"
     inkscape:pageshadow="2"
     inkscape:window-width="1366"
     inkscape:window-height="717"
     id="namedview8"
     showgrid="false"
     inkscape:zoom="0.61458333"
     inkscape:cx="239.99888"
     inkscape:cy="176.46771"
     inkscape:window-x="0"
     inkscape:window-y="24"
     inkscape:window-maximized="1"
     inkscape:current-layer="svg6" />
  <defs
     id="defs3051">
    <style
       type="text/css"
       id="current-color-scheme">
      .ColorScheme-Text {
        color:#4d4d4d;
      }
      </style>
  </defs>
  <g
     id="g843"
     transform="matrix(0.125,0,0,0.125,-2.5659518e-7,55.999996)">
    <path
       style="fill:#3689e6;fill-opacity:1;stroke-width:11.10955811"
       inkscape:connector-curvature="0"
       d="m 432.91327,-391.52602 c 102.19291,88.57459 105.82677,249.6997 8.1168,359.89878 C 343.3201,78.571837 181.27964,96.100604 79.086724,7.5260146 -23.106183,-81.048567 -26.740043,-242.17368 70.969925,-352.37276 168.67989,-462.57184 330.72036,-480.10061 432.91327,-391.52602 Z"
       id="path27" />
    <path
       style="opacity:1;fill:#000000;fill-opacity:0.49019608;stroke-width:11.10955811"
       inkscape:connector-curvature="0"
       d="m 511.63551,-223.09648 c -1.55139,61.31164 -25.16123,124.154601 -70.96639,175.814472 C 342.95915,62.917109 180.91868,80.445837 78.725775,-8.128713 30.827126,-49.64436 4.4968263,-107.07716 0.1938263,-167.77119 0.79908628,-101.41452 27.117416,-37.517824 79.078684,7.5190546 181.27159,96.093612 343.31975,78.556189 441.02202,-31.634232 490.72696,-87.692343 514.02704,-156.9252 511.63551,-223.09648 Z"
       id="path51" />
    <path
       style="fill:#000000;fill-opacity:0.49019608;stroke:none;stroke-width:1px;stroke-linecap:butt;stroke-linejoin:miter;stroke-opacity:1"
       d="M 193.41177,-26 V -99.41177 H 120 v -220.23529 h 110.11765 v 91.62132 L 432,-26.143373 Z"
       id="path837"
       inkscape:connector-curvature="0" />
    <path
       inkscape:connector-curvature="0"
       id="path835"
       d="m 173.41177,-46 v -73.41177 H 100 v -220.23529 h 110.11765 v 91.62132 L 412,-46.143373 Z"
       style="fill:#ffffff;stroke:none;stroke-width:1px;stroke-linecap:butt;stroke-linejoin:miter;stroke-opacity:1" />
  </g>
</svg>
