<?xml version="1.0" encoding="UTF-8" standalone="no"?>
<svg
   xmlns:dc="http://purl.org/dc/elements/1.1/"
   xmlns:cc="http://creativecommons.org/ns#"
   xmlns:rdf="http://www.w3.org/1999/02/22-rdf-syntax-ns#"
   xmlns:svg="http://www.w3.org/2000/svg"
   xmlns="http://www.w3.org/2000/svg"
   xmlns:sodipodi="http://sodipodi.sourceforge.net/DTD/sodipodi-0.dtd"
   xmlns:inkscape="http://www.inkscape.org/namespaces/inkscape"
   viewBox="0 0 64 64"
   version="1.1"
   id="svg6"
   sodipodi:docname="choice-round.svg"
   width="64"
   height="64"
   inkscape:version="0.92.2 5c3e80d, 2017-08-06">
  <metadata
     id="metadata10">
    <rdf:RDF>
      <cc:Work
         rdf:about="">
        <dc:format>image/svg+xml</dc:format>
        <dc:type
           rdf:resource="http://purl.org/dc/dcmitype/StillImage" />
        <dc:title></dc:title>
      </cc:Work>
    </rdf:RDF>
  </metadata>
  <sodipodi:namedview
     pagecolor="#ffffff"
     bordercolor="#666666"
     borderopacity="1"
     objecttolerance="10"
     gridtolerance="10"
     guidetolerance="10"
     inkscape:pageopacity="0"
     inkscape:pageshadow="2"
     inkscape:window-width="1366"
     inkscape:window-height="717"
     id="namedview8"
     showgrid="false"
     inkscape:zoom="2.8284271"
     inkscape:cx="76.33427"
     inkscape:cy="19.285967"
     inkscape:window-x="0"
     inkscape:window-y="24"
     inkscape:window-maximized="1"
     inkscape:current-layer="svg6" />
  <defs
     id="defs3051">
    <style
       type="text/css"
       id="current-color-scheme">
      .ColorScheme-Text {
        color:#4d4d4d;
      }
      </style>
  </defs>
  <g
     id="g857"
     transform="matrix(0.125,0,0,0.125,-1.576692e-8,55.999996)">
    <path
       style="fill:#3689e6;fill-opacity:1;stroke-width:11.10955811"
       inkscape:connector-curvature="0"
       d="m 432.91327,-391.52604 c 102.19291,88.57459 105.82678,249.69971 8.1168,359.89879 C 343.3201,78.57182 181.27964,96.10062 79.086729,7.52601 -23.106186,-81.04858 -26.740042,-242.1737 70.969928,-352.37278 168.6799,-462.57186 330.72036,-480.10063 432.91327,-391.52604 Z"
       id="path27" />
    <path
       style="opacity:1;fill:#000000;fill-opacity:0.49019608;stroke-width:11.10955811"
       inkscape:connector-curvature="0"
       d="m 511.63551,-223.09649 c -1.55139,61.31165 -25.16123,124.15461 -70.96638,175.81447 C 342.95915,62.91712 180.91869,80.44582 78.725776,-8.12872 30.827124,-49.64437 4.4968216,-107.07717 0.1938277,-167.7712 0.79907936,-101.41453 27.117411,-37.51783 79.078682,7.51906 181.27159,96.09362 343.31975,78.55622 441.02202,-31.63424 c 49.70495,-56.05811 73.00502,-125.29096 70.61349,-191.46225 z"
       id="path51" />
    <path
       style="color:#000000;font-style:normal;font-variant:normal;font-weight:normal;font-stretch:normal;font-size:medium;line-height:normal;font-family:sans-serif;font-variant-ligatures:normal;font-variant-position:normal;font-variant-caps:normal;font-variant-numeric:normal;font-variant-alternates:normal;font-feature-settings:normal;text-indent:0;text-align:start;text-decoration:none;text-decoration-line:none;text-decoration-style:solid;text-decoration-color:#000000;letter-spacing:normal;word-spacing:normal;text-transform:none;writing-mode:lr-tb;direction:ltr;text-orientation:mixed;dominant-baseline:auto;baseline-shift:baseline;text-anchor:start;white-space:normal;shape-padding:0;clip-rule:nonzero;display:inline;overflow:visible;visibility:visible;opacity:1;isolation:auto;mix-blend-mode:normal;color-interpolation:sRGB;color-interpolation-filters:linearRGB;solid-color:#000000;solid-opacity:1;vector-effect:none;fill:#000000;fill-opacity:0.49019608;fill-rule:nonzero;stroke:none;stroke-width:32.54906464;stroke-linecap:round;stroke-linejoin:miter;stroke-miterlimit:4;stroke-dasharray:none;stroke-dashoffset:0;stroke-opacity:1;color-rendering:auto;image-rendering:auto;shape-rendering:auto;text-rendering:auto;enable-background:accumulate"
       d="m 276,-328 c -85.96365,0 -156,70.03635 -156,156 0,85.96365 70.03635,156 156,156 85.96365,0 156,-70.03635 156,-156 0,-85.96365 -70.03635,-156 -156,-156 z m 0,32.54883 c 68.37283,0 123.45117,55.07834 123.45117,123.45117 0,68.37283 -55.07834,123.451172 -123.45117,123.451172 -68.37283,0 -123.45117,-55.078342 -123.45117,-123.451172 0,-68.37283 55.07834,-123.45117 123.45117,-123.45117 z"
       id="path851"
       inkscape:connector-curvature="0" />
    <path
       inkscape:connector-curvature="0"
       id="path847"
       d="m 256,-348 c -85.96365,0 -156,70.03635 -156,156 0,85.96365 70.03635,156 156,156 85.96365,0 156,-70.03635 156,-156 0,-85.96365 -70.03635,-156 -156,-156 z m 0,32.54883 c 68.37283,0 123.45117,55.07834 123.45117,123.45117 0,68.37283 -55.07834,123.451172 -123.45117,123.451172 -68.37283,0 -123.45117,-55.078342 -123.45117,-123.451172 0,-68.37283 55.07834,-123.45117 123.45117,-123.45117 z"
       style="color:#000000;font-style:normal;font-variant:normal;font-weight:normal;font-stretch:normal;font-size:medium;line-height:normal;font-family:sans-serif;font-variant-ligatures:normal;font-variant-position:normal;font-variant-caps:normal;font-variant-numeric:normal;font-variant-alternates:normal;font-feature-settings:normal;text-indent:0;text-align:start;text-decoration:none;text-decoration-line:none;text-decoration-style:solid;text-decoration-color:#000000;letter-spacing:normal;word-spacing:normal;text-transform:none;writing-mode:lr-tb;direction:ltr;text-orientation:mixed;dominant-baseline:auto;baseline-shift:baseline;text-anchor:start;white-space:normal;shape-padding:0;clip-rule:nonzero;display:inline;overflow:visible;visibility:visible;opacity:1;isolation:auto;mix-blend-mode:normal;color-interpolation:sRGB;color-interpolation-filters:linearRGB;solid-color:#000000;solid-opacity:1;vector-effect:none;fill:#ffffff;fill-opacity:1;fill-rule:nonzero;stroke:none;stroke-width:32.54906464;stroke-linecap:round;stroke-linejoin:miter;stroke-miterlimit:4;stroke-dasharray:none;stroke-dashoffset:0;stroke-opacity:1;color-rendering:auto;image-rendering:auto;shape-rendering:auto;text-rendering:auto;enable-background:accumulate" />
  </g>
</svg>
