<?xml version="1.0" encoding="UTF-8" standalone="no"?>
<svg
   xmlns:dc="http://purl.org/dc/elements/1.1/"
   xmlns:cc="http://creativecommons.org/ns#"
   xmlns:rdf="http://www.w3.org/1999/02/22-rdf-syntax-ns#"
   xmlns:svg="http://www.w3.org/2000/svg"
   xmlns="http://www.w3.org/2000/svg"
   xmlns:sodipodi="http://sodipodi.sourceforge.net/DTD/sodipodi-0.dtd"
   xmlns:inkscape="http://www.inkscape.org/namespaces/inkscape"
   viewBox="0 0 64 64"
   version="1.1"
   id="svg6"
   sodipodi:docname="createpath.svg"
   width="64"
   height="64"
   inkscape:version="0.92.2 5c3e80d, 2017-08-06">
  <metadata
     id="metadata10">
    <rdf:RDF>
      <cc:Work
         rdf:about="">
        <dc:format>image/svg+xml</dc:format>
        <dc:type
           rdf:resource="http://purl.org/dc/dcmitype/StillImage" />
        <dc:title></dc:title>
      </cc:Work>
    </rdf:RDF>
  </metadata>
  <sodipodi:namedview
     pagecolor="#ffffff"
     bordercolor="#666666"
     borderopacity="1"
     objecttolerance="10"
     gridtolerance="10"
     guidetolerance="10"
     inkscape:pageopacity="0"
     inkscape:pageshadow="2"
     inkscape:window-width="1366"
     inkscape:window-height="717"
     id="namedview8"
     showgrid="false"
     inkscape:zoom="1.7383042"
     inkscape:cx="21.163082"
     inkscape:cy="-45.091904"
     inkscape:window-x="0"
     inkscape:window-y="24"
     inkscape:window-maximized="1"
     inkscape:current-layer="svg6" />
  <defs
     id="defs3051">
    <style
       type="text/css"
       id="current-color-scheme">
      .ColorScheme-Text {
        color:#4d4d4d;
      }
      </style>
  </defs>
  <g
     id="g905"
     transform="matrix(0.125,0,0,0.125,-1.576692e-8,56.000005)">
    <path
       style="fill:#3689e6;fill-opacity:1;stroke-width:11.10955811"
       inkscape:connector-curvature="0"
       d="m 432.91327,-391.52603 c 102.19291,88.57459 105.82678,249.69971 8.1168,359.89879 C 343.3201,78.57183 181.27964,96.10063 79.086729,7.52602 -23.106186,-81.04857 -26.740042,-242.17369 70.969928,-352.37277 168.6799,-462.57185 330.72036,-480.10062 432.91327,-391.52603 Z"
       id="path27" />
    <path
       style="opacity:1;fill:#000000;fill-opacity:0.49019608;stroke-width:11.10955811"
       inkscape:connector-curvature="0"
       d="m 511.63551,-223.09648 c -1.55139,61.31165 -25.16123,124.15461 -70.96638,175.81447 C 342.95915,62.91713 180.91869,80.44583 78.725776,-8.12871 30.827124,-49.64436 4.4968216,-107.07716 0.1938277,-167.77119 0.79907936,-101.41452 27.117411,-37.51782 79.078682,7.51907 181.27159,96.09363 343.31975,78.55623 441.02202,-31.63423 c 49.70495,-56.05811 73.00502,-125.29096 70.61349,-191.46225 z"
       id="path51" />
    <g
       style="fill:#000000;fill-opacity:0.49019608"
       id="g889"
       transform="matrix(0.96388772,0,0,0.96388772,34.878307,12.002271)">
      <path
         id="path879"
         d="m 314.90238,-346.19495 c -7.51983,0.004 -14.09262,1.0256 -18.13477,3.12503 -1.38088,0.7168 -38.55636,37.39868 -82.61318,81.5155 -76.18175,76.28559 -80.23103,80.46879 -82.69518,85.4335 -12.59991,25.38517 -35.75412,93.39285 -41.20899,121.03505 -2.91512,14.7723 -2.60888,19.39894 1.35936,20.5351 3.52327,1.00872 13.5963,-0.4504 27.97068,-4.05272 33.18756,-8.31695 88.31605,-27.67212 111.19131,-39.03899 4.22903,-2.10152 12.12422,-9.76903 84.87485,-82.41982 44.11691,-44.05635 80.8003,-81.2323 81.5175,-82.61318 4.8256,-9.29111 4.002,-31.60148 -1.78903,-48.4765 -8.38663,-24.43861 -25.69229,-41.74227 -50.13082,-50.1289 -9.43919,-3.23928 -20.6735,-4.91871 -30.34173,-4.91407 z m 11.66007,23.99613 a 5.0004939,5.0004939 0 0 1 3.78711,8.51751 L 181.74039,-159.6483 a 5.0004939,5.0004939 0 1 1 -7.19728,-6.94335 l 148.60926,-154.03301 a 5.0004939,5.0004939 0 0 1 3.41008,-1.57416 z m 37.96675,36.88075 a 5.0004939,5.0004939 0 0 1 3.78712,8.51759 l -148.60918,154.03301 a 5.0004939,5.0004939 0 1 1 -7.19727,-6.94335 l 148.60918,-154.03301 a 5.0004939,5.0004939 0 0 1 3.41015,-1.57424 z m -225.53092,132.24208 2.96679,2.54096 c 3.66952,3.14103 9.08711,5.22375 15.21479,5.85159 3.99735,0.4096 4.58431,0.6472 4.06447,1.63864 -2.15528,4.11047 -1.21712,12.23342 2.1836,18.91214 1.99728,3.92255 10.86198,12.79446 14.77534,14.78702 6.58719,3.35407 14.83574,4.30567 18.93558,2.1856 0.99024,-0.512 1.22768,0.0816 1.63671,4.07415 0.6248,6.09599 2.7088,11.54039 5.7988,15.15038 l 2.48631,2.90432 -4.82223,2.14456 c -7.36303,3.27399 -21.07101,8.39599 -38.89843,14.5351 -8.87727,3.05703 -17.10926,5.76447 -18.29294,6.01759 -2.03296,0.4344 -2.90552,-0.2936 -15.77926,-13.1875 l -13.62886,-13.65039 5.64647,-16.67182 c 4.96071,-14.65198 13.06974,-36.47699 16.5371,-44.50778 z"
         style="fill:#000000;fill-opacity:0.49019608;stroke-width:0.71735865"
         inkscape:connector-curvature="0" />
      <rect
         ry="13.370017"
         y="-94.499969"
         x="353.50003"
         height="58.499973"
         width="58.49992"
         id="rect881"
         style="opacity:1;fill:#000000;fill-opacity:0.49019608;stroke:none;stroke-width:35;stroke-linecap:round;stroke-miterlimit:4;stroke-dasharray:none;stroke-dashoffset:0;stroke-opacity:1" />
      <rect
         style="opacity:1;fill:#000000;fill-opacity:0.49019608;stroke:none;stroke-width:35;stroke-linecap:round;stroke-miterlimit:4;stroke-dasharray:none;stroke-dashoffset:0;stroke-opacity:1"
         id="rect883"
         width="58.49992"
         height="58.499973"
         x="100"
         y="-347.99997"
         ry="13.370017" />
      <path
         id="path885"
         d="m 119.5,-289.5 v 141.66602 c 4.38278,-11.42926 8.55835,-21.43581 11.95898,-28.28711 0.94685,-1.90768 2.22925,-3.79565 7.64649,-9.60743 L 138.99805,-289.5 Z"
         style="fill:#000000;fill-opacity:0.49019608;stroke:none;stroke-width:1px;stroke-linecap:butt;stroke-linejoin:miter;stroke-opacity:1"
         inkscape:connector-curvature="0" />
      <path
         id="path887"
         d="m 225.17188,-75 c -13.02742,5.929865 -32.43655,13.342029 -52.43946,20.205078 L 353.5,-55.576172 V -75 Z"
         style="fill:#000000;fill-opacity:0.49019608;stroke:none;stroke-width:1px;stroke-linecap:butt;stroke-linejoin:miter;stroke-opacity:1"
         inkscape:connector-curvature="0" />
    </g>
    <g
       transform="matrix(0.96388772,0,0,0.96388772,14.878307,-7.9977293)"
       id="g865">
      <path
         inkscape:connector-curvature="0"
         style="fill:#ffffff;stroke-width:0.71735865"
         d="m 314.90238,-346.19495 c -7.51983,0.004 -14.09262,1.0256 -18.13477,3.12503 -1.38088,0.7168 -38.55636,37.39868 -82.61318,81.5155 -76.18175,76.28559 -80.23103,80.46879 -82.69518,85.4335 -12.59991,25.38517 -35.75412,93.39285 -41.20899,121.03505 -2.91512,14.7723 -2.60888,19.39894 1.35936,20.5351 3.52327,1.00872 13.5963,-0.4504 27.97068,-4.05272 33.18756,-8.31695 88.31605,-27.67212 111.19131,-39.03899 4.22903,-2.10152 12.12422,-9.76903 84.87485,-82.41982 44.11691,-44.05635 80.8003,-81.2323 81.5175,-82.61318 4.8256,-9.29111 4.002,-31.60148 -1.78903,-48.4765 -8.38663,-24.43861 -25.69229,-41.74227 -50.13082,-50.1289 -9.43919,-3.23928 -20.6735,-4.91871 -30.34173,-4.91407 z m 11.66007,23.99613 a 5.0004939,5.0004939 0 0 1 3.78711,8.51751 L 181.74039,-159.6483 a 5.0004939,5.0004939 0 1 1 -7.19728,-6.94335 l 148.60926,-154.03301 a 5.0004939,5.0004939 0 0 1 3.41008,-1.57416 z m 37.96675,36.88075 a 5.0004939,5.0004939 0 0 1 3.78712,8.51759 l -148.60918,154.03301 a 5.0004939,5.0004939 0 1 1 -7.19727,-6.94335 l 148.60918,-154.03301 a 5.0004939,5.0004939 0 0 1 3.41015,-1.57424 z m -225.53092,132.24208 2.96679,2.54096 c 3.66952,3.14103 9.08711,5.22375 15.21479,5.85159 3.99735,0.4096 4.58431,0.6472 4.06447,1.63864 -2.15528,4.11047 -1.21712,12.23342 2.1836,18.91214 1.99728,3.92255 10.86198,12.79446 14.77534,14.78702 6.58719,3.35407 14.83574,4.30567 18.93558,2.1856 0.99024,-0.512 1.22768,0.0816 1.63671,4.07415 0.6248,6.09599 2.7088,11.54039 5.7988,15.15038 l 2.48631,2.90432 -4.82223,2.14456 c -7.36303,3.27399 -21.07101,8.39599 -38.89843,14.5351 -8.87727,3.05703 -17.10926,5.76447 -18.29294,6.01759 -2.03296,0.4344 -2.90552,-0.2936 -15.77926,-13.1875 l -13.62886,-13.65039 5.64647,-16.67182 c 4.96071,-14.65198 13.06974,-36.47699 16.5371,-44.50778 z"
         id="path928" />
      <rect
         style="opacity:1;fill:#ffffff;fill-opacity:1;stroke:none;stroke-width:35;stroke-linecap:round;stroke-miterlimit:4;stroke-dasharray:none;stroke-dashoffset:0;stroke-opacity:1"
         id="rect841"
         width="58.49992"
         height="58.499973"
         x="353.50003"
         y="-94.499969"
         ry="13.370017" />
      <rect
         ry="13.370017"
         y="-347.99997"
         x="100"
         height="58.499973"
         width="58.49992"
         id="rect843"
         style="opacity:1;fill:#ffffff;fill-opacity:1;stroke:none;stroke-width:35;stroke-linecap:round;stroke-miterlimit:4;stroke-dasharray:none;stroke-dashoffset:0;stroke-opacity:1" />
      <path
         inkscape:connector-curvature="0"
         style="fill:#ffffff;fill-opacity:1;stroke:none;stroke-width:1px;stroke-linecap:butt;stroke-linejoin:miter;stroke-opacity:1"
         d="m 119.5,-289.5 v 141.66602 c 4.38278,-11.42926 8.55835,-21.43581 11.95898,-28.28711 0.94685,-1.90768 2.22925,-3.79565 7.64649,-9.60743 L 138.99805,-289.5 Z"
         id="path845" />
      <path
         inkscape:connector-curvature="0"
         style="fill:#ffffff;fill-opacity:1;stroke:none;stroke-width:1px;stroke-linecap:butt;stroke-linejoin:miter;stroke-opacity:1"
         d="m 225.17188,-75 c -13.02742,5.929865 -32.43655,13.342029 -52.43946,20.205078 L 353.5,-55.576172 V -75 Z"
         id="path855" />
    </g>
  </g>
</svg>
