<?xml version="1.0" encoding="UTF-8" standalone="no"?>
<svg
   xmlns:dc="http://purl.org/dc/elements/1.1/"
   xmlns:cc="http://creativecommons.org/ns#"
   xmlns:rdf="http://www.w3.org/1999/02/22-rdf-syntax-ns#"
   xmlns:svg="http://www.w3.org/2000/svg"
   xmlns="http://www.w3.org/2000/svg"
   xmlns:sodipodi="http://sodipodi.sourceforge.net/DTD/sodipodi-0.dtd"
   xmlns:inkscape="http://www.inkscape.org/namespaces/inkscape"
   viewBox="0 0 64 64"
   version="1.1"
   id="svg6"
   sodipodi:docname="draw-polygon.svg"
   width="64"
   height="64"
   inkscape:version="0.92.2 5c3e80d, 2017-08-06">
  <metadata
     id="metadata10">
    <rdf:RDF>
      <cc:Work
         rdf:about="">
        <dc:format>image/svg+xml</dc:format>
        <dc:type
           rdf:resource="http://purl.org/dc/dcmitype/StillImage" />
        <dc:title></dc:title>
      </cc:Work>
    </rdf:RDF>
  </metadata>
  <sodipodi:namedview
     pagecolor="#ffffff"
     bordercolor="#666666"
     borderopacity="1"
     objecttolerance="10"
     gridtolerance="10"
     guidetolerance="10"
     inkscape:pageopacity="0"
     inkscape:pageshadow="2"
     inkscape:window-width="1366"
     inkscape:window-height="717"
     id="namedview8"
     showgrid="false"
     inkscape:zoom="0.61458333"
     inkscape:cx="525.98377"
     inkscape:cy="184.22493"
     inkscape:window-x="0"
     inkscape:window-y="24"
     inkscape:window-maximized="1"
     inkscape:current-layer="svg6" />
  <defs
     id="defs3051">
    <style
       type="text/css"
       id="current-color-scheme">
      .ColorScheme-Text {
        color:#4d4d4d;
      }
      </style>
  </defs>
  <g
     id="g843"
     transform="matrix(0.125,0,0,0.125,-2.5659518e-7,60.999996)">
    <path
       style="fill:#3689e6;fill-opacity:1;stroke-width:11.10955811"
       inkscape:connector-curvature="0"
       d="m 432.91327,-431.52602 c 102.19291,88.57459 105.82677,249.6997 8.1168,359.89878 C 343.3201,38.571837 181.27964,56.100604 79.086724,-32.473985 -23.106183,-121.04857 -26.740043,-282.17368 70.969925,-392.37276 168.67989,-502.57184 330.72036,-520.10061 432.91327,-431.52602 Z"
       id="path27" />
    <path
       style="opacity:1;fill:#000000;fill-opacity:0.49019608;stroke-width:11.10955811"
       inkscape:connector-curvature="0"
       d="m 511.63551,-263.09648 c -1.55139,61.31164 -25.16123,124.1546 -70.96639,175.814472 C 342.95915,22.917109 180.91868,40.445837 78.725775,-48.128713 30.827126,-89.64436 4.4968263,-147.07716 0.1938263,-207.77119 0.79908628,-141.41452 27.117416,-77.517824 79.078684,-32.480945 181.27159,56.093612 343.31975,38.556189 441.02202,-71.634232 490.72696,-127.69234 514.02704,-196.9252 511.63551,-263.09648 Z"
       id="path51" />
    <path
       style="fill:#000000;fill-opacity:0.49019608;stroke:none;stroke-width:1px;stroke-linecap:butt;stroke-linejoin:miter;stroke-opacity:1"
       d="M 206.30582,-56 H 345.3209 L 432,-206.10194 276.29863,-361.8033 120,-205.50467 Z"
       id="path837"
       inkscape:connector-curvature="0" />
    <path
       inkscape:connector-curvature="0"
       id="path835"
       d="M 186.30582,-76 H 325.3209 L 412,-226.10194 256.29863,-381.8033 100,-225.50467 Z"
       style="fill:#ffffff;fill-opacity:1;stroke:none;stroke-width:1px;stroke-linecap:butt;stroke-linejoin:miter;stroke-opacity:1" />
  </g>
</svg>
