<?xml version="1.0" encoding="UTF-8" standalone="no"?>
<svg
   xmlns:dc="http://purl.org/dc/elements/1.1/"
   xmlns:cc="http://creativecommons.org/ns#"
   xmlns:rdf="http://www.w3.org/1999/02/22-rdf-syntax-ns#"
   xmlns:svg="http://www.w3.org/2000/svg"
   xmlns="http://www.w3.org/2000/svg"
   xmlns:sodipodi="http://sodipodi.sourceforge.net/DTD/sodipodi-0.dtd"
   xmlns:inkscape="http://www.inkscape.org/namespaces/inkscape"
   viewBox="0 0 64 64"
   version="1.1"
   id="svg6"
   sodipodi:docname="cross-shape.svg"
   width="64"
   height="64"
   inkscape:version="0.92.2 5c3e80d, 2017-08-06">
  <metadata
     id="metadata10">
    <rdf:RDF>
      <cc:Work
         rdf:about="">
        <dc:format>image/svg+xml</dc:format>
        <dc:type
           rdf:resource="http://purl.org/dc/dcmitype/StillImage" />
        <dc:title></dc:title>
      </cc:Work>
    </rdf:RDF>
  </metadata>
  <sodipodi:namedview
     pagecolor="#ffffff"
     bordercolor="#666666"
     borderopacity="1"
     objecttolerance="10"
     gridtolerance="10"
     guidetolerance="10"
     inkscape:pageopacity="0"
     inkscape:pageshadow="2"
     inkscape:window-width="1366"
     inkscape:window-height="717"
     id="namedview8"
     showgrid="false"
     inkscape:zoom="3.4766083"
     inkscape:cx="41.177739"
     inkscape:cy="34.091335"
     inkscape:window-x="0"
     inkscape:window-y="24"
     inkscape:window-maximized="1"
     inkscape:current-layer="svg6" />
  <defs
     id="defs3051">
    <style
       type="text/css"
       id="current-color-scheme">
      .ColorScheme-Text {
        color:#4d4d4d;
      }
      </style>
  </defs>
  <g
     id="g839"
     transform="matrix(0.125,0,0,0.125,-1.7963685e-8,56)">
    <path
       id="path1148"
       d="m 432.91323,-391.52604 c 102.19304,88.57458 105.82672,249.69971 8.11688,359.898788 C 343.32019,78.571838 181.27979,96.100614 79.086667,7.5260204 -23.106135,-81.048581 -26.740135,-242.1737 70.970107,-352.37279 168.67995,-462.57187 330.72043,-480.10063 432.91323,-391.52604 Z"
       inkscape:connector-curvature="0"
       style="fill:#3689e6;fill-opacity:1;stroke-width:11.10955811" />
    <path
       id="path1150"
       d="m 511.63547,-223.0965 c -1.55112,61.31165 -25.16104,124.154614 -70.96632,175.814479 C 342.95931,62.91711 180.91883,80.445846 78.725707,-8.1287079 30.826986,-49.644373 4.4969055,-107.07717 0.19394546,-167.77121 0.79874547,-101.41453 27.117386,-37.517837 79.078667,7.5190604 181.27147,96.093614 343.31987,78.55619 441.02219,-31.634244 490.72715,-87.69235 514.02715,-156.92521 511.63547,-223.0965 Z"
       inkscape:connector-curvature="0"
       style="opacity:1;fill:#000000;fill-opacity:0.49019608;stroke-width:11.10955811" />
    <path
       style="color:#000000;font-style:normal;font-variant:normal;font-weight:normal;font-stretch:normal;font-size:medium;line-height:normal;font-family:sans-serif;font-variant-ligatures:normal;font-variant-position:normal;font-variant-caps:normal;font-variant-numeric:normal;font-variant-alternates:normal;font-feature-settings:normal;text-indent:0;text-align:start;text-decoration:none;text-decoration-line:none;text-decoration-style:solid;text-decoration-color:#000000;letter-spacing:normal;word-spacing:normal;text-transform:none;writing-mode:lr-tb;direction:ltr;text-orientation:mixed;dominant-baseline:auto;baseline-shift:baseline;text-anchor:start;white-space:normal;shape-padding:0;clip-rule:nonzero;display:inline;overflow:visible;visibility:visible;opacity:1;isolation:auto;mix-blend-mode:normal;color-interpolation:sRGB;color-interpolation-filters:linearRGB;solid-color:#000000;solid-opacity:1;vector-effect:none;fill:#000000;fill-opacity:0.49019608;fill-rule:nonzero;stroke:none;stroke-width:29.27614403;stroke-linecap:butt;stroke-linejoin:miter;stroke-miterlimit:4;stroke-dasharray:none;stroke-dashoffset:0;stroke-opacity:1;color-rendering:auto;image-rendering:auto;shape-rendering:auto;text-rendering:auto;enable-background:accumulate"
       d="m 249.9707,-328.00021 -6.08984,3.20898 c -6.03567,3.18042 -11.25903,8.40112 -14.44141,14.43555 l -3.19922,6.06836 -0.16406,50.17773 -0.10547,32.03907 -32.05664,0.10547 -50.19336,0.16406 -6.06836,3.19726 c -6.0351,3.18032 -11.2589,8.4027 -14.4414,14.4375 L 120,-198.07638 v 26.02148 26.04102 l 3.17188,5.98242 c 3.34492,6.30785 8.26228,11.22389 14.57226,14.56641 v -0.002 l 5.95898,3.15821 50.21094,0.16406 32.05664,0.10547 0.10547,32.039062 0.16406,50.195312 3.16016,5.960938 c 2.52055,4.753147 5.94583,8.681309 10.10742,11.740234 v 2.515625 l 11.03516,2.802735 c 0.005,0.0013 6.1e-4,-0.0013 0.006,0 3.10709,0.787783 2.74712,0.457056 3.39258,0.5 0.64654,0.04302 1.27794,0.06968 2.00781,0.0957 1.45974,0.05206 3.27242,0.09063 5.41797,0.121094 4.29109,0.06094 9.86805,0.08531 15.80859,0.05664 l 24.90039,-0.113281 5.95117,-3.152344 c 6.46797,-3.42737 11.69586,-8.716157 14.88086,-15.417968 l 2.85157,-6 0.16211,-49.582025 0.10351,-31.761722 32.05859,-0.10352 50.2129,-0.16601 5.95898,-3.15821 c 6.46835,-3.42737 11.69593,-8.71433 14.88086,-15.41601 L 432,-146.90646 v -25.14844 -25.10937 l -2.83594,-6.04297 c -3.06273,-6.52835 -8.49753,-12.06671 -14.8164,-15.39649 l -6.06836,-3.19726 -50.19532,-0.16406 -32.05859,-0.10547 -0.10351,-31.76172 -0.16211,-49.54297 -2.82422,-6.01953 c -3.06269,-6.52826 -8.49939,-12.06669 -14.81836,-15.39649 l -6.08985,-3.20898 H 276 Z m 7.30469,29.27539 H 276 294.72266 c 1.02469,0.56924 1.28618,0.86245 1.70898,1.76367 l 0.0742,0.15821 0.13867,43.0664 0.19922,60.84571 61.14258,0.20117 42.95117,0.14257 c 1.04268,0.57692 1.29717,0.8665 1.72266,1.77344 l 0.0644,0.13672 v 18.58203 18.54492 l -0.0293,0.0606 c -0.26405,0.55562 -1.05033,1.33646 -1.91992,1.88867 l -42.78906,0.14063 -61.14258,0.20117 -0.19922,60.847662 -0.13867,43.02734 -0.041,0.08203 c -0.26487,0.556672 -1.04997,1.34243 -1.92187,1.894531 l -17.50586,0.08008 h -0.002 c -5.77505,0.02787 -11.22164,0.0045 -15.25391,-0.05273 -1.83853,-0.02611 -3.2732,-0.06212 -4.36719,-0.09766 -0.34944,-0.295054 -1.33569,-1.05626 -1.92187,-1.886719 l -0.14063,-42.771482 -0.20117,-61.123052 -61.14062,-0.20117 -42.78516,-0.14063 c -0.66697,-0.43962 -1.50254,-1.27896 -1.94922,-1.94922 v -18.54492 -18.71289 c 0.49284,-0.89337 0.88128,-1.28218 1.78711,-1.7793 l 42.94727,-0.14257 61.14062,-0.20117 0.20117,-61.12305 0.14063,-42.92383 c 0.4974,-0.90566 0.88509,-1.29245 1.7832,-1.78711 z"
       id="path833"
       inkscape:connector-curvature="0" />
    <path
       inkscape:connector-curvature="0"
       id="path844"
       d="m 229.9707,-348 -6.08984,3.20898 c -6.03567,3.18042 -11.25903,8.40112 -14.44141,14.43555 l -3.19922,6.06836 -0.16406,50.17773 -0.10547,32.03907 -32.05664,0.10547 -50.19336,0.16406 -6.06836,3.19726 c -6.0351,3.18032 -11.2589,8.4027 -14.4414,14.4375 L 100,-218.07617 v 26.02148 26.04102 l 3.17188,5.98242 c 3.34492,6.30785 8.26228,11.22389 14.57226,14.56641 v -0.002 l 5.95898,3.15821 50.21094,0.16406 32.05664,0.10547 0.10547,32.03906 0.16406,50.195312 3.16016,5.960938 c 2.52055,4.753147 5.94583,8.681309 10.10742,11.740234 v 2.515625 l 11.03516,2.802735 c 0.005,0.0013 6.1e-4,-0.0013 0.006,0 3.10709,0.787783 2.74712,0.457056 3.39258,0.5 0.64654,0.04302 1.27794,0.06968 2.00781,0.0957 1.45974,0.05206 3.27242,0.09063 5.41797,0.121094 4.29109,0.06094 9.86805,0.08531 15.80859,0.05664 l 24.90039,-0.113281 5.95117,-3.152344 c 6.46797,-3.42737 11.69586,-8.716157 14.88086,-15.417968 l 2.85157,-6 0.16211,-49.582025 0.10351,-31.76172 32.05859,-0.10352 50.2129,-0.16601 5.95898,-3.15821 c 6.46835,-3.42737 11.69593,-8.71433 14.88086,-15.41601 L 412,-166.90625 v -25.14844 -25.10937 l -2.83594,-6.04297 c -3.06273,-6.52835 -8.49753,-12.06671 -14.8164,-15.39649 l -6.06836,-3.19726 -50.19532,-0.16406 -32.05859,-0.10547 -0.10351,-31.76172 -0.16211,-49.54297 -2.82422,-6.01953 c -3.06269,-6.52826 -8.49939,-12.06669 -14.81836,-15.39649 L 282.02734,-348 H 256 Z m 7.30469,29.27539 H 256 274.72266 c 1.02469,0.56924 1.28618,0.86245 1.70898,1.76367 l 0.0742,0.15821 0.13867,43.0664 0.19922,60.84571 61.14258,0.20117 42.95117,0.14257 c 1.04268,0.57692 1.29717,0.8665 1.72266,1.77344 l 0.0644,0.13672 v 18.58203 18.54492 l -0.0293,0.0606 c -0.26405,0.55562 -1.05033,1.33646 -1.91992,1.88867 l -42.78906,0.14063 -61.14258,0.20117 -0.19922,60.84766 -0.13867,43.02734 -0.041,0.08203 c -0.26487,0.556672 -1.04997,1.34243 -1.92187,1.894531 l -17.50586,0.08008 h -0.002 c -5.77505,0.02787 -11.22164,0.0045 -15.25391,-0.05273 -1.83853,-0.02611 -3.2732,-0.06212 -4.36719,-0.09766 -0.34944,-0.295054 -1.33569,-1.05626 -1.92187,-1.886719 l -0.14063,-42.771482 -0.20117,-61.12305 -61.14062,-0.20117 -42.78516,-0.14063 c -0.66697,-0.43962 -1.50254,-1.27896 -1.94922,-1.94922 v -18.54492 -18.71289 c 0.49284,-0.89337 0.88128,-1.28218 1.78711,-1.7793 l 42.94727,-0.14257 61.14062,-0.20117 0.20117,-61.12305 0.14063,-42.92383 c 0.4974,-0.90566 0.88509,-1.29245 1.7832,-1.78711 z"
       style="color:#000000;font-style:normal;font-variant:normal;font-weight:normal;font-stretch:normal;font-size:medium;line-height:normal;font-family:sans-serif;font-variant-ligatures:normal;font-variant-position:normal;font-variant-caps:normal;font-variant-numeric:normal;font-variant-alternates:normal;font-feature-settings:normal;text-indent:0;text-align:start;text-decoration:none;text-decoration-line:none;text-decoration-style:solid;text-decoration-color:#000000;letter-spacing:normal;word-spacing:normal;text-transform:none;writing-mode:lr-tb;direction:ltr;text-orientation:mixed;dominant-baseline:auto;baseline-shift:baseline;text-anchor:start;white-space:normal;shape-padding:0;clip-rule:nonzero;display:inline;overflow:visible;visibility:visible;opacity:1;isolation:auto;mix-blend-mode:normal;color-interpolation:sRGB;color-interpolation-filters:linearRGB;solid-color:#000000;solid-opacity:1;vector-effect:none;fill:#ffffff;fill-opacity:1;fill-rule:nonzero;stroke:none;stroke-width:29.27614403;stroke-linecap:butt;stroke-linejoin:miter;stroke-miterlimit:4;stroke-dasharray:none;stroke-dashoffset:0;stroke-opacity:1;color-rendering:auto;image-rendering:auto;shape-rendering:auto;text-rendering:auto;enable-background:accumulate" />
  </g>
</svg>
