<?xml version="1.0" encoding="UTF-8" standalone="no"?>
<svg
   xmlns:dc="http://purl.org/dc/elements/1.1/"
   xmlns:cc="http://creativecommons.org/ns#"
   xmlns:rdf="http://www.w3.org/1999/02/22-rdf-syntax-ns#"
   xmlns:svg="http://www.w3.org/2000/svg"
   xmlns="http://www.w3.org/2000/svg"
   xmlns:sodipodi="http://sodipodi.sourceforge.net/DTD/sodipodi-0.dtd"
   xmlns:inkscape="http://www.inkscape.org/namespaces/inkscape"
   viewBox="0 0 64 64"
   version="1.1"
   id="svg6"
   sodipodi:docname="draw-triangle4.svg"
   width="64"
   height="64"
   inkscape:version="0.92.2 5c3e80d, 2017-08-06">
  <metadata
     id="metadata10">
    <rdf:RDF>
      <cc:Work
         rdf:about="">
        <dc:format>image/svg+xml</dc:format>
        <dc:type
           rdf:resource="http://purl.org/dc/dcmitype/StillImage" />
        <dc:title></dc:title>
      </cc:Work>
    </rdf:RDF>
  </metadata>
  <sodipodi:namedview
     pagecolor="#ffffff"
     bordercolor="#666666"
     borderopacity="1"
     objecttolerance="10"
     gridtolerance="10"
     guidetolerance="10"
     inkscape:pageopacity="0"
     inkscape:pageshadow="2"
     inkscape:window-width="1366"
     inkscape:window-height="717"
     id="namedview8"
     showgrid="false"
     inkscape:zoom="0.61458333"
     inkscape:cx="162.02204"
     inkscape:cy="210.2961"
     inkscape:window-x="0"
     inkscape:window-y="24"
     inkscape:window-maximized="1"
     inkscape:current-layer="svg6" />
  <defs
     id="defs3051">
    <style
       type="text/css"
       id="current-color-scheme">
      .ColorScheme-Text {
        color:#4d4d4d;
      }
      </style>
  </defs>
  <g
     id="g839"
     transform="matrix(0.125,0,0,0.125,2.0018311e-7,56.000001)">
    <path
       style="fill:#3689e6;fill-opacity:1;stroke-width:11.10955811"
       inkscape:connector-curvature="0"
       d="m 432.91327,-391.52602 c 102.19292,88.57459 105.82677,249.6997 8.1168,359.898785 C 343.3201,78.571842 181.27964,96.100609 79.086724,7.526021 -23.106183,-81.04857 -26.740042,-242.17367 70.969926,-352.37275 168.67989,-462.57183 330.72036,-480.10061 432.91327,-391.52602 Z"
       id="path27" />
    <path
       style="opacity:1;fill:#000000;fill-opacity:0.49019608;stroke-width:11.10955811"
       inkscape:connector-curvature="0"
       d="m 511.63551,-223.09647 c -1.55139,61.31163 -25.16123,124.1546 -70.96639,175.814467 C 342.95915,62.917114 180.91868,80.445842 78.725775,-8.128708 30.827127,-49.644355 4.4968266,-107.07715 0.1938266,-167.77119 0.79908658,-101.41452 27.117417,-37.517819 79.078684,7.51906 181.27159,96.093617 343.31975,78.556194 441.02202,-31.634227 490.72696,-87.69233 514.02704,-156.92519 511.63551,-223.09647 Z"
       id="path51" />
    <path
       style="color:#4d4d4d;fill:#000000;fill-opacity:0.49019608;stroke:none;stroke-width:17.33333397"
       d="M 276,-36 131.17188,-293.52864 120,-313.33333 H 139.5 409.45313 432 l -11.17187,19.80469 z"
       class="ColorScheme-Text"
       id="path835"
       inkscape:connector-curvature="0"
       sodipodi:nodetypes="cccccccc" />
    <path
       sodipodi:nodetypes="cccccccc"
       inkscape:connector-curvature="0"
       id="path4"
       class="ColorScheme-Text"
       d="M 256,-56 111.17188,-313.52864 100,-333.33333 H 119.5 389.45313 412 l -11.17187,19.80469 z"
       style="color:#4d4d4d;fill:#ffffff;fill-opacity:1;stroke:none;stroke-width:17.33333397" />
  </g>
</svg>
