<?xml version="1.0" encoding="UTF-8" standalone="no"?>
<svg
   xmlns:dc="http://purl.org/dc/elements/1.1/"
   xmlns:cc="http://creativecommons.org/ns#"
   xmlns:rdf="http://www.w3.org/1999/02/22-rdf-syntax-ns#"
   xmlns:svg="http://www.w3.org/2000/svg"
   xmlns="http://www.w3.org/2000/svg"
   xmlns:sodipodi="http://sodipodi.sourceforge.net/DTD/sodipodi-0.dtd"
   xmlns:inkscape="http://www.inkscape.org/namespaces/inkscape"
   viewBox="0 0 64 64"
   version="1.1"
   id="svg6"
   sodipodi:docname="arrow.svg"
   width="64"
   height="64"
   inkscape:version="0.92.2 5c3e80d, 2017-08-06">
  <metadata
     id="metadata10">
    <rdf:RDF>
      <cc:Work
         rdf:about="">
        <dc:format>image/svg+xml</dc:format>
        <dc:type
           rdf:resource="http://purl.org/dc/dcmitype/StillImage" />
        <dc:title></dc:title>
      </cc:Work>
    </rdf:RDF>
  </metadata>
  <sodipodi:namedview
     pagecolor="#ffffff"
     bordercolor="#666666"
     borderopacity="1"
     objecttolerance="10"
     gridtolerance="10"
     guidetolerance="10"
     inkscape:pageopacity="0"
     inkscape:pageshadow="2"
     inkscape:window-width="1366"
     inkscape:window-height="717"
     id="namedview8"
     showgrid="false"
     inkscape:zoom="2.6074563"
     inkscape:cx="41.23744"
     inkscape:cy="25.070972"
     inkscape:window-x="0"
     inkscape:window-y="24"
     inkscape:window-maximized="1"
     inkscape:current-layer="svg6" />
  <defs
     id="defs3051">
    <style
       type="text/css"
       id="current-color-scheme">
      .ColorScheme-Text {
        color:#4d4d4d;
      }
      </style>
  </defs>
  <g
     id="g838"
     transform="matrix(0.125,0,0,0.125,2.8345136e-7,56)">
    <path
       id="path850"
       d="m 432.91326,-391.52606 c 102.19291,88.57458 105.82678,249.69973 8.1168,359.898824 C 343.32005,78.57184 181.27961,96.10061 79.086742,7.5260195 -23.106205,-81.048566 -26.740032,-242.17373 70.969942,-352.3728 168.67988,-462.57189 330.72032,-480.10065 432.91326,-391.52606 Z"
       inkscape:connector-curvature="0"
       style="fill:#3689e6;fill-opacity:1;stroke-width:11.10955906" />
    <path
       style="color:#4d4d4d;fill:#000000;fill-opacity:0.49019608;stroke:none;stroke-width:14.16822052"
       d="m 129.47475,-327.36455 c -7.38231,2.59425 -11.26381,10.68188 -8.66956,18.06421 2.59427,7.38231 10.6819,11.26381 18.06421,8.66955 7.38233,-2.59425 11.26382,-10.68189 8.66957,-18.06421 -2.59427,-7.38233 -10.68189,-11.26382 -18.06422,-8.66955 z m 45.52308,44.07288 L 269.07532,-16 c 0,0 14.51717,-92.01122 44.12275,-124.08966 C 342.80366,-172.1681 432,-193.39496 432,-193.39496 Z"
       class="ColorScheme-Text"
       id="path24"
       inkscape:connector-curvature="0"
       sodipodi:nodetypes="scssscczcc" />
    <path
       sodipodi:nodetypes="scssscczcc"
       inkscape:connector-curvature="0"
       id="path4"
       class="ColorScheme-Text"
       d="m 109.47475,-347.36455 c -7.38231,2.59425 -11.263809,10.68188 -8.66956,18.06421 2.59427,7.38231 10.6819,11.26381 18.06421,8.66955 7.38233,-2.59425 11.26382,-10.68189 8.66957,-18.06421 -2.59427,-7.38233 -10.68189,-11.26382 -18.06422,-8.66955 z m 45.52308,44.07288 L 249.07532,-36 c 0,0 14.51717,-92.01122 44.12275,-124.08966 C 322.80366,-192.1681 412,-213.39496 412,-213.39496 Z"
       style="color:#4d4d4d;fill:#ffffff;fill-opacity:1;stroke:none;stroke-width:14.16822052" />
    <path
       id="path852"
       d="m 511.6355,-223.09649 c -1.55139,61.31161 -25.16123,124.154574 -70.96638,175.814444 C 342.95911,62.91707 180.91867,80.4458 78.725762,-8.1287505 30.827125,-49.644356 4.4968179,-107.0772 0.1938259,-167.77119 0.7990799,-101.41456 27.117405,-37.517826 79.078692,7.5190195 181.27156,96.09361 343.31971,78.55615 441.02201,-31.634236 490.72696,-87.692376 514.02703,-156.92524 511.6355,-223.09649 Z"
       inkscape:connector-curvature="0"
       style="opacity:1;fill:#000000;fill-opacity:0.49019608;stroke-width:11.10955906" />
  </g>
</svg>
