<?xml version="1.0" encoding="UTF-8" standalone="no"?>
<svg
   xmlns:dc="http://purl.org/dc/elements/1.1/"
   xmlns:cc="http://creativecommons.org/ns#"
   xmlns:rdf="http://www.w3.org/1999/02/22-rdf-syntax-ns#"
   xmlns:svg="http://www.w3.org/2000/svg"
   xmlns="http://www.w3.org/2000/svg"
   xmlns:sodipodi="http://sodipodi.sourceforge.net/DTD/sodipodi-0.dtd"
   xmlns:inkscape="http://www.inkscape.org/namespaces/inkscape"
   viewBox="0 0 64 64"
   version="1.1"
   id="svg6"
   sodipodi:docname="edit-image-face-add.svg"
   width="64"
   height="64"
   inkscape:version="0.92.2 5c3e80d, 2017-08-06">
  <metadata
     id="metadata10">
    <rdf:RDF>
      <cc:Work
         rdf:about="">
        <dc:format>image/svg+xml</dc:format>
        <dc:type
           rdf:resource="http://purl.org/dc/dcmitype/StillImage" />
        <dc:title></dc:title>
      </cc:Work>
    </rdf:RDF>
  </metadata>
  <sodipodi:namedview
     pagecolor="#ffffff"
     bordercolor="#666666"
     borderopacity="1"
     objecttolerance="10"
     gridtolerance="10"
     guidetolerance="10"
     inkscape:pageopacity="0"
     inkscape:pageshadow="2"
     inkscape:window-width="1366"
     inkscape:window-height="717"
     id="namedview8"
     showgrid="false"
     inkscape:zoom="0.61458333"
     inkscape:cx="389.98858"
     inkscape:cy="310.28583"
     inkscape:window-x="0"
     inkscape:window-y="24"
     inkscape:window-maximized="1"
     inkscape:current-layer="svg6" />
  <defs
     id="defs3051">
    <style
       type="text/css"
       id="current-color-scheme">
      .ColorScheme-Text {
        color:#4d4d4d;
      }
      </style>
  </defs>
  <g
     id="g844"
     transform="matrix(0.125,0,0,0.125,2.2258348e-4,56.000013)">
    <path
       style="fill:#3689e6;fill-opacity:1;stroke-width:11.10955811"
       inkscape:connector-curvature="0"
       d="m 432.91346,-391.52601 c 102.19296,88.57472 105.82688,249.69983 8.1168,359.898868 C 343.32019,78.571895 181.27987,96.100534 79.086916,7.5261371 -23.106041,-81.04858 -26.739641,-242.1737 70.970116,-352.37273 168.68019,-462.57177 330.72051,-480.10073 432.91346,-391.52601 Z"
       id="path52" />
    <path
       style="opacity:1;fill:#000000;fill-opacity:0.49019608;stroke-width:11.10955811"
       inkscape:connector-curvature="0"
       d="M 511.6357,-223.09658 C 510.0837,-161.7849 486.47442,-98.9417 440.6693,-47.281861 342.95955,62.917175 180.91891,80.445815 78.725956,-8.1285824 30.827397,-49.644421 4.4971582,-107.07706 0.19411835,-167.77114 0.79891833,-101.41434 27.117638,-37.517702 79.078916,7.5190971 181.27187,96.093814 343.31987,78.556215 441.02226,-31.634182 490.72722,-87.69242 514.02738,-156.92506 511.6357,-223.09658 Z"
       id="path54" />
    <path
       inkscape:connector-curvature="0"
       style="opacity:1;fill:#000000;fill-opacity:0.49019608;stroke:none;stroke-width:3.91188979;stroke-miterlimit:4;stroke-dasharray:none;stroke-dashoffset:0;stroke-opacity:1"
       d="m 161.42006,-328.00015 c -22.9465,0 -41.41992,18.47342 -41.41992,41.41992 v 229.160159 c 0,22.946502 18.47342,41.419922 41.41992,41.419922 h 110.16797 c -2.9975,0.0037 -5.61445,-0.06134 -7.47461,-0.210938 h -0.002 c -6.45728,-0.521599 -18.93892,-2.646537 -26.17188,-4.460937 -20.0416,-5.02496 -38.82127,-14.040474 -56.10351,-26.933594 -7.4816,-5.581119 -23.15859,-20.931199 -28.53906,-27.943359 -23.00992,-29.986563 -34.50063,-65.123373 -33.19727,-101.519533 1.1744,-32.79488 11.80021,-62.90047 31.48437,-89.20703 6.3616,-8.50176 21.79224,-23.93336 30.29688,-30.29688 22.60128,-16.91168 48.31161,-27.23359 76.37305,-30.66015 7.6032,-0.928 28.21218,-0.91778 35.69921,0.0156 28.46945,3.5568 53.70713,13.68258 76.37305,30.64258 8.50464,6.36384 23.93723,21.79512 30.29883,30.29688 16.41504,21.9376 26.2242,45.80958 30.35156,73.86718 0.6848,4.65472 1.02484,12.47849 1.02344,20.31641 v -114.48633 c 0,-22.9465 -18.47342,-41.41992 -41.41992,-41.41992 z m 270.58008,155.90625 c -10e-4,7.83792 -0.34405,15.69102 -1.03125,20.4043 -4.17376,28.64256 -14.69495,53.643311 -32.01367,76.082029 -5.53216,7.16768 -21.12952,22.452581 -28.58008,28.00586 -21.6128,16.10848 -45.16221,25.988139 -71.67773,30.074218 -5.69784,0.8784 -18.11686,1.516094 -27.10938,1.527344 h 118.99219 c 22.9465,0 41.41992,-18.47342 41.41992,-41.419922 z M 276.10366,-311.23843 c -7.51584,0 -15.03192,0.34556 -19.52344,1.03516 -55.42144,8.50592 -99.26517,46.84443 -114.63477,100.24218 -6.39584,22.22144 -6.95236,47.04617 -1.56836,69.98633 3.98208,16.96576 12.1876,34.89402 22.6836,49.562501 l 2.69922,3.77344 3.28711,-5.90625 c 1.80799,-3.24928 4.85641,-8.132171 6.77929,-10.849611 h 0.004 c 9.7792,-13.82048 22.83531,-25.80356 37.91211,-34.79492 6.13792,-3.66048 15.41579,-8.11029 19.96875,-9.57813 1.6864,-0.544 3.25525,-1.15919 3.48437,-1.36719 0.224,-0.192 -1.69526,-1.93959 -4.27734,-3.85351 -2.5824,-1.9136 -6.70714,-5.60146 -9.16602,-8.19922 -17.83616,-18.84256 -24.3335,-45.48136 -17.11718,-70.17383 7.19264,-24.6128 26.75177,-43.50125 51.72265,-49.95117 13.312,-3.4384 30.46526,-2.52586 42.84766,2.27734 25.69728,9.97088 42.97785,31.64968 46.59961,58.45704 0.4352,3.22144 0.79101,7.4885 0.79101,9.48242 0,22.15232 -11.45868,44.89102 -29.27148,58.08398 -2.6016,1.9264 -4.54162,3.67023 -4.3125,3.87695 0.224,0.192 1.79829,0.82319 3.48437,1.36719 4.54848,1.4656 13.82667,5.91569 19.96875,9.57617 18.86272,11.24256 34.36247,27.06567 44.67383,45.607431 l 3.30664,5.94531 2.69922,-3.77344 c 25.44544,-35.561281 32.99166,-80.437431 20.4707,-121.753911 -15.80384,-52.14879 -59.42287,-89.66206 -113.99023,-98.0371 -4.49152,-0.68961 -12.00564,-1.03516 -19.52148,-1.03516 z"
       id="path838" />
    <path
       id="rect835"
       d="M 141.41992,-348 C 118.47342,-348 100,-329.52658 100,-306.58008 V -77.419922 C 100,-54.47342 118.47342,-36 141.41992,-36 h 110.16797 c -2.9975,0.0037 -5.61445,-0.06134 -7.47461,-0.210938 h -0.002 c -6.45728,-0.521599 -18.93892,-2.646537 -26.17188,-4.460937 -20.0416,-5.02496 -38.82127,-14.040474 -56.10351,-26.933594 -7.4816,-5.581119 -23.15859,-20.931199 -28.53906,-27.943359 -23.00992,-29.986562 -34.500636,-65.123372 -33.19727,-101.519532 1.1744,-32.79488 11.80021,-62.90047 31.48437,-89.20703 6.3616,-8.50176 21.79224,-23.93336 30.29688,-30.29688 22.60128,-16.91168 48.31161,-27.23359 76.37305,-30.66015 7.6032,-0.928 28.21218,-0.91778 35.69921,0.0156 28.46945,3.5568 53.70713,13.68258 76.37305,30.64258 8.50464,6.36384 23.93723,21.79512 30.29883,30.29688 16.41504,21.9376 26.2242,45.80958 30.35156,73.86718 0.6848,4.65472 1.02484,12.47849 1.02344,20.31641 V -306.58008 C 412,-329.52658 393.52658,-348 370.58008,-348 Z M 412,-192.09375 c -0.001,7.83792 -0.34405,15.69102 -1.03125,20.4043 -4.17376,28.64256 -14.69495,53.64331 -32.01367,76.082028 -5.53216,7.16768 -21.12952,22.452581 -28.58008,28.00586 -21.6128,16.10848 -45.16221,25.988139 -71.67773,30.074218 -5.69784,0.8784 -18.11686,1.516094 -27.10938,1.527344 H 370.58008 C 393.52658,-36 412,-54.47342 412,-77.419922 Z M 256.10352,-331.23828 c -7.51584,0 -15.03192,0.34556 -19.52344,1.03516 -55.42144,8.50592 -99.26517,46.84443 -114.63477,100.24218 -6.39584,22.22144 -6.95236,47.04617 -1.56836,69.98633 3.98208,16.96576 12.1876,34.89402 22.6836,49.5625 l 2.69922,3.77344 3.28711,-5.90625 c 1.80799,-3.24928 4.85641,-8.13217 6.77929,-10.84961 h 0.004 c 9.7792,-13.82048 22.83531,-25.80356 37.91211,-34.79492 6.13792,-3.66048 15.41579,-8.11029 19.96875,-9.57813 1.6864,-0.544 3.25525,-1.15919 3.48437,-1.36719 0.224,-0.192 -1.69526,-1.93959 -4.27734,-3.85351 -2.5824,-1.9136 -6.70714,-5.60146 -9.16602,-8.19922 -17.83616,-18.84256 -24.3335,-45.48136 -17.11718,-70.17383 7.19264,-24.6128 26.75177,-43.50125 51.72265,-49.95117 13.312,-3.4384 30.46526,-2.52586 42.84766,2.27734 25.69728,9.97088 42.97785,31.64968 46.59961,58.45704 0.4352,3.22144 0.79101,7.4885 0.79101,9.48242 0,22.15232 -11.45868,44.89102 -29.27148,58.08398 -2.6016,1.9264 -4.54162,3.67023 -4.3125,3.87695 0.224,0.192 1.79829,0.82319 3.48437,1.36719 4.54848,1.4656 13.82667,5.91569 19.96875,9.57617 18.86272,11.24256 34.36247,27.06567 44.67383,45.60743 l 3.30664,5.94531 2.69922,-3.77344 c 25.44544,-35.56128 32.99166,-80.43743 20.4707,-121.75391 -15.80384,-52.14879 -59.42287,-89.66206 -113.99023,-98.0371 -4.49152,-0.68961 -12.00564,-1.03516 -19.52148,-1.03516 z"
       style="opacity:1;fill:#ffffff;fill-opacity:1;stroke:none;stroke-width:3.91188979;stroke-miterlimit:4;stroke-dasharray:none;stroke-dashoffset:0;stroke-opacity:1"
       inkscape:connector-curvature="0" />
  </g>
</svg>
