<?xml version="1.0" encoding="UTF-8" standalone="no"?>
<svg
   xmlns:dc="http://purl.org/dc/elements/1.1/"
   xmlns:cc="http://creativecommons.org/ns#"
   xmlns:rdf="http://www.w3.org/1999/02/22-rdf-syntax-ns#"
   xmlns:svg="http://www.w3.org/2000/svg"
   xmlns="http://www.w3.org/2000/svg"
   xmlns:sodipodi="http://sodipodi.sourceforge.net/DTD/sodipodi-0.dtd"
   xmlns:inkscape="http://www.inkscape.org/namespaces/inkscape"
   viewBox="0 0 64 64"
   version="1.1"
   id="svg6"
   sodipodi:docname="cloud-download.svg"
   width="64"
   height="64"
   inkscape:version="0.92.2 5c3e80d, 2017-08-06">
  <metadata
     id="metadata10">
    <rdf:RDF>
      <cc:Work
         rdf:about="">
        <dc:format>image/svg+xml</dc:format>
        <dc:type
           rdf:resource="http://purl.org/dc/dcmitype/StillImage" />
        <dc:title></dc:title>
      </cc:Work>
    </rdf:RDF>
  </metadata>
  <sodipodi:namedview
     pagecolor="#ffffff"
     bordercolor="#666666"
     borderopacity="1"
     objecttolerance="10"
     gridtolerance="10"
     guidetolerance="10"
     inkscape:pageopacity="0"
     inkscape:pageshadow="2"
     inkscape:window-width="1366"
     inkscape:window-height="717"
     id="namedview8"
     showgrid="false"
     inkscape:zoom="0.61458333"
     inkscape:cx="71.342693"
     inkscape:cy="194.70951"
     inkscape:window-x="0"
     inkscape:window-y="24"
     inkscape:window-maximized="1"
     inkscape:current-layer="svg6" />
  <defs
     id="defs3051">
    <style
       type="text/css"
       id="current-color-scheme">
      .ColorScheme-Text {
        color:#4d4d4d;
      }
      </style>
  </defs>
  <g
     id="g847"
     transform="matrix(0.125,0,0,0.125,-1.576692e-8,60.999978)">
    <path
       style="fill:#3689e6;fill-opacity:1;stroke-width:11.10955811"
       inkscape:connector-curvature="0"
       d="m 432.91327,-431.52606 c 102.19291,88.57459 105.82678,249.69971 8.1168,359.89879 C 343.3201,38.5718 181.27964,56.1006 79.086729,-32.47401 -23.106186,-121.0486 -26.740042,-282.17372 70.969928,-392.3728 168.6799,-502.57188 330.72036,-520.10065 432.91327,-431.52606 Z"
       id="path27" />
    <path
       style="opacity:1;fill:#000000;fill-opacity:0.49019608;stroke-width:11.10955811"
       inkscape:connector-curvature="0"
       d="m 511.63551,-263.09651 c -1.55139,61.31165 -25.16123,124.15461 -70.96638,175.81447 C 342.95915,22.9171 180.91869,40.4458 78.725776,-48.12874 30.827124,-89.64439 4.4968216,-147.07719 0.1938277,-207.77122 0.79907936,-141.41455 27.117411,-77.51785 79.078682,-32.48096 181.27159,56.0936 343.31975,38.5562 441.02202,-71.63426 c 49.70495,-56.05811 73.00502,-125.29096 70.61349,-191.46225 z"
       id="path51" />
    <path
       style="fill:#000000;fill-opacity:0.49019608;stroke-width:0.19796954"
       d="M 152.74447,-56.186218 C 137.17368,-57.577008 124.1184,-69.147918 120.82269,-84.47852 120.04192,-88.11045 120,-89.67435 120,-115.18476 v -24.72522 h 11.97203 11.97207 l 0.0548,25.09263 0.0544,25.09262 0.46194,1.28682 c 0.73644,2.05153 1.57746,3.35845 3.18493,4.94925 1.5747,1.55838 3.01156,2.40348 5.27285,3.10133 1.1359,0.35036 5.40167,0.36321 122.92797,0.36321 115.64712,0 121.81508,-0.0189 123.01394,-0.34885 4.11523,-1.13699 7.43827,-4.42231 8.67663,-8.57816 0.32315,-1.08465 0.35263,-2.97657 0.40739,-26.06423 l 0.059,-24.89465 h 11.97132 11.97131 l -0.002,24.30073 c -0.002,14.77807 -0.0805,25.18912 -0.2022,26.56774 -0.4263,4.81625 -1.55653,8.77655 -3.76003,13.174642 -1.87975,3.75194 -3.53325,6.01587 -6.72465,9.20727 -3.19139,3.19139 -5.45533,4.8449 -9.20723,6.72465 -4.44423,2.22659 -8.45919,3.36283 -13.29989,3.76392 -2.86984,0.23773 -243.39428,0.22299 -246.06021,-0.0151 z m 120.17405,-64.277712 c -2.94894,-0.9981 -6.35755,-3.39265 -11.46928,-8.05727 -4.1624,-3.79827 -93.32153,-93.06006 -95.11941,-95.2289 -4.58476,-5.5307 -5.4737,-8.56422 -3.00941,-10.26947 0.95829,-0.66312 2.10447,-1.05324 4.28333,-1.45792 1.59697,-0.29669 4.29925,-0.3394 25.10056,-0.39771 l 23.31092,-0.0654 v -49.17762 c 0,-53.4122 -0.0431,-51.18901 1.07977,-55.61582 3.74208,-14.75172 16.20507,-25.49405 31.35871,-27.02922 2.79534,-0.28308 52.2875,-0.28384 55.09255,-7.5e-4 17.13029,1.72894 30.48484,15.16562 32.23124,32.42955 0.13833,1.36838 0.2075,18.23879 0.2075,50.72969 v 48.67952 h 22.1805 c 13.96981,0 22.89218,0.076 24.10295,0.20561 3.8637,0.41322 6.253,1.28081 7.20488,2.61623 0.75356,1.05717 0.64777,2.65621 -0.30312,4.57988 -1.35602,2.74371 -3.4523,5.23283 -10.02187,11.90003 -15.78112,16.01571 -84.00034,84.42712 -86.91406,87.15889 -5.99221,5.61816 -9.68647,8.23038 -13.05358,9.23029 -1.73964,0.51662 -4.33901,0.4213 -6.26222,-0.22942 z"
       id="path841"
       inkscape:connector-curvature="0" />
    <path
       inkscape:connector-curvature="0"
       id="path899"
       d="m 132.74447,-76.186218 c -15.57079,-1.39079 -28.62607,-12.9617 -31.92178,-28.292302 C 100.04192,-108.11045 100,-109.67435 100,-135.18476 v -24.72522 h 11.97203 11.97207 l 0.0548,25.09263 0.0544,25.09262 0.46194,1.28682 c 0.73644,2.05153 1.57746,3.35845 3.18493,4.94925 1.5747,1.55838 3.01156,2.40348 5.27285,3.10133 1.1359,0.35036 5.40167,0.36321 122.92797,0.36321 115.64712,0 121.81508,-0.0189 123.01394,-0.34885 4.11523,-1.13699 7.43827,-4.42231 8.67663,-8.57816 0.32315,-1.08465 0.35263,-2.97657 0.40739,-26.06423 l 0.059,-24.89465 h 11.97132 11.97131 l -0.002,24.30073 c -0.002,14.77807 -0.0805,25.18912 -0.2022,26.56774 -0.4263,4.81625 -1.55653,8.77655 -3.76003,13.174642 -1.87975,3.75194 -3.53325,6.01587 -6.72465,9.20727 -3.19139,3.19139 -5.45533,4.8449 -9.20723,6.72465 -4.44423,2.22659 -8.45919,3.36283 -13.29989,3.76392 -2.86984,0.23773 -243.39428,0.22299 -246.06021,-0.0151 z m 120.17405,-64.277712 c -2.94894,-0.9981 -6.35755,-3.39265 -11.46928,-8.05727 -4.1624,-3.79827 -93.32153,-93.06006 -95.11941,-95.2289 -4.58476,-5.5307 -5.4737,-8.56422 -3.00941,-10.26947 0.95829,-0.66312 2.10447,-1.05324 4.28333,-1.45792 1.59697,-0.29669 4.29925,-0.3394 25.10056,-0.39771 l 23.31092,-0.0654 v -49.17762 c 0,-53.4122 -0.0431,-51.18901 1.07977,-55.61582 3.74208,-14.75172 16.20507,-25.49405 31.35871,-27.02922 2.79534,-0.28308 52.2875,-0.28384 55.09255,-7.5e-4 17.13029,1.72894 30.48484,15.16562 32.23124,32.42955 0.13833,1.36838 0.2075,18.23879 0.2075,50.72969 v 48.67952 h 22.1805 c 13.96981,0 22.89218,0.076 24.10295,0.20561 3.8637,0.41322 6.253,1.28081 7.20488,2.61623 0.75356,1.05717 0.64777,2.65621 -0.30312,4.57988 -1.35602,2.74371 -3.4523,5.23283 -10.02187,11.90003 -15.78112,16.01571 -84.00034,84.42712 -86.91406,87.15889 -5.99221,5.61816 -9.68647,8.23038 -13.05358,9.23029 -1.73964,0.51662 -4.33901,0.4213 -6.26222,-0.22942 z"
       style="fill:#ffffff;stroke-width:0.19796954" />
  </g>
</svg>
