<?xml version="1.0" encoding="UTF-8" standalone="no"?>
<svg
   xmlns:dc="http://purl.org/dc/elements/1.1/"
   xmlns:cc="http://creativecommons.org/ns#"
   xmlns:rdf="http://www.w3.org/1999/02/22-rdf-syntax-ns#"
   xmlns:svg="http://www.w3.org/2000/svg"
   xmlns="http://www.w3.org/2000/svg"
   xmlns:sodipodi="http://sodipodi.sourceforge.net/DTD/sodipodi-0.dtd"
   xmlns:inkscape="http://www.inkscape.org/namespaces/inkscape"
   viewBox="0 0 64 64"
   version="1.1"
   id="svg6"
   sodipodi:docname="edit-paste.svg"
   width="64"
   height="64"
   inkscape:version="0.92.2 5c3e80d, 2017-08-06">
  <metadata
     id="metadata10">
    <rdf:RDF>
      <cc:Work
         rdf:about="">
        <dc:format>image/svg+xml</dc:format>
        <dc:type
           rdf:resource="http://purl.org/dc/dcmitype/StillImage" />
        <dc:title></dc:title>
      </cc:Work>
    </rdf:RDF>
  </metadata>
  <sodipodi:namedview
     pagecolor="#ffffff"
     bordercolor="#666666"
     borderopacity="1"
     objecttolerance="10"
     gridtolerance="10"
     guidetolerance="10"
     inkscape:pageopacity="0"
     inkscape:pageshadow="2"
     inkscape:window-width="1366"
     inkscape:window-height="717"
     id="namedview8"
     showgrid="false"
     inkscape:zoom="1.7383042"
     inkscape:cx="-80.925365"
     inkscape:cy="-46.839755"
     inkscape:window-x="0"
     inkscape:window-y="24"
     inkscape:window-maximized="1"
     inkscape:current-layer="svg6" />
  <defs
     id="defs3051">
    <style
       type="text/css"
       id="current-color-scheme">
      .ColorScheme-Text {
        color:#4d4d4d;
      }
      </style>
  </defs>
  <g
     id="g892"
     transform="matrix(0.125,0,0,0.125,6.1868113e-8,55.999999)">
    <path
       style="fill:#3689e6;fill-opacity:1;stroke-width:11.10955906"
       inkscape:connector-curvature="0"
       d="m 432.91328,-391.52606 c 102.1929,88.57459 105.82676,249.69974 8.1168,359.89882 C 343.32007,78.57184 181.27963,96.100608 79.086738,7.526016 -23.106204,-81.04856 -26.740031,-242.17372 70.969938,-352.37279 168.67989,-462.57187 330.72033,-480.10064 432.91328,-391.52606 Z"
       id="path27-5" />
    <path
       style="opacity:1;fill:#000000;fill-opacity:0.49019608;stroke-width:11.10955906"
       inkscape:connector-curvature="0"
       d="m 511.63551,-223.09648 c -1.55139,61.31161 -25.16123,124.15457 -70.96637,175.81444 C 342.95912,62.917072 180.91868,80.4458 78.725756,-8.128752 30.827124,-49.64436 4.4968184,-107.07719 0.19382632,-167.77119 0.79907984,-101.41455 27.117404,-37.517816 79.078686,7.519024 181.27157,96.093616 343.31973,78.556152 441.02203,-31.634232 490.72698,-87.69238 514.02704,-156.92523 511.63551,-223.09648 Z"
       id="path51-6" />
    <path
       inkscape:connector-curvature="0"
       style="fill:#000000;fill-opacity:0.49019608;stroke-width:0.74462998"
       d="m 234.83984,-328 -0.46484,2.32617 c -0.25597,1.27983 -0.46484,5.09824 -0.46484,8.48438 0,4.92711 -0.23512,6.24764 -1.17774,6.60937 -0.64782,0.24859 -6.78008,0.45117 -13.62695,0.45117 -8.68963,0 -12.72002,0.27084 -13.34375,0.89453 -1.24296,1.24298 -1.24296,20.79805 0,22.04102 0.68216,0.68215 17.23623,0.89258 69.96875,0.89258 67.53079,0 69.09409,-0.0313 69.84765,-1.43945 1.11102,-2.07595 1.0063,-20.36482 -0.12304,-21.49415 -0.63885,-0.63886 -5.39935,-0.89453 -16.70117,-0.89453 -13.37756,0 -15.98826,-0.17966 -16.97852,-1.16992 -0.88741,-0.8874 -1.16992,-2.76193 -1.16992,-7.75781 0,-3.62317 -0.20257,-7.11782 -0.45117,-7.76563 C 309.75045,-327.8747 305.7168,-328 272.27148,-328 Z m 143.42578,29.70898 c -9.67817,0.0211 -19.32914,0.38011 -19.89062,1.05664 -0.4783,0.57631 -0.89921,5.25857 -1.02148,11.35547 l -0.20704,10.375 -81.125,0.18946 c -55.93293,0.13064 -81.36879,-0.0524 -81.91015,-0.5918 -0.43811,-0.43647 -0.94852,-5.45805 -1.15625,-11.35937 l -0.37305,-10.57618 -18.61523,-0.21093 c -10.23866,-0.11525 -19.36953,-0.0243 -20.29102,0.20117 L 152,-297.44141 v 140.22461 c 0,77.12344 0.22306,140.447676 0.49609,140.720706 0.27303,0.273031 14.44726,0.496094 31.49805,0.496094 23.11938,0 214.49379,-0.22816 215.16016,-0.894531 l -0.83008,-280.425779 c -0.67384,-0.67386 -10.38038,-0.99181 -20.0586,-0.97071 z m -203.68945,60.86719 h 200.13477 v 14.64453 H 174.57617 Z m 0,42 h 200.13477 v 14.64453 H 174.57617 Z m 0,44 h 200.13477 v 14.64453 H 174.57617 Z m 0,42 H 374.71094 V -94.7793 H 174.57617 Z m 0,42.000002 h 200.13477 v 14.644531 H 174.57617 Z"
       id="path886" />
    <path
       id="path841"
       d="m 214.83984,-348 -0.46484,2.32617 c -0.25597,1.27983 -0.46484,5.09824 -0.46484,8.48438 0,4.92711 -0.23512,6.24764 -1.17774,6.60937 -0.64782,0.24859 -6.78008,0.45117 -13.62695,0.45117 -8.68963,0 -12.72002,0.27084 -13.34375,0.89453 -1.24296,1.24298 -1.24296,20.79805 0,22.04102 0.68216,0.68215 17.23623,0.89258 69.96875,0.89258 67.53079,0 69.09409,-0.0313 69.84765,-1.43945 1.11102,-2.07595 1.0063,-20.36482 -0.12304,-21.49415 -0.63885,-0.63886 -5.39935,-0.89453 -16.70117,-0.89453 -13.37756,0 -15.98826,-0.17966 -16.97852,-1.16992 -0.88741,-0.8874 -1.16992,-2.76193 -1.16992,-7.75781 0,-3.62317 -0.20257,-7.11782 -0.45117,-7.76563 C 289.75045,-347.8747 285.7168,-348 252.27148,-348 Z m 143.42578,29.70898 c -9.67817,0.0211 -19.32914,0.38011 -19.89062,1.05664 -0.4783,0.57631 -0.89921,5.25857 -1.02148,11.35547 l -0.20704,10.375 -81.125,0.18946 c -55.93293,0.13064 -81.36879,-0.0524 -81.91015,-0.5918 -0.43811,-0.43647 -0.94852,-5.45805 -1.15625,-11.35937 l -0.37305,-10.57618 -18.61523,-0.21093 c -10.23866,-0.11525 -19.36953,-0.0243 -20.29102,0.20117 L 132,-317.44141 v 140.22461 c 0,77.12344 0.22306,140.447676 0.49609,140.720706 0.27303,0.273031 14.44726,0.496094 31.49805,0.496094 23.11938,0 214.49379,-0.22816 215.16016,-0.894531 l -0.83008,-280.425779 c -0.67384,-0.67386 -10.38038,-0.99181 -20.0586,-0.97071 z m -203.68945,60.86719 h 200.13477 v 14.64453 H 154.57617 Z m 0,42 h 200.13477 v 14.64453 H 154.57617 Z m 0,44 h 200.13477 v 14.64453 H 154.57617 Z m 0,42 h 200.13477 v 14.64453 H 154.57617 Z m 0,42.000002 h 200.13477 v 14.644531 H 154.57617 Z"
       style="fill:#ffffff;stroke-width:0.74462998"
       inkscape:connector-curvature="0" />
  </g>
</svg>
