<?xml version="1.0" encoding="UTF-8" standalone="no"?>
<svg
   xmlns:dc="http://purl.org/dc/elements/1.1/"
   xmlns:cc="http://creativecommons.org/ns#"
   xmlns:rdf="http://www.w3.org/1999/02/22-rdf-syntax-ns#"
   xmlns:svg="http://www.w3.org/2000/svg"
   xmlns="http://www.w3.org/2000/svg"
   xmlns:sodipodi="http://sodipodi.sourceforge.net/DTD/sodipodi-0.dtd"
   xmlns:inkscape="http://www.inkscape.org/namespaces/inkscape"
   viewBox="0 0 64 64"
   version="1.1"
   id="svg10"
   sodipodi:docname="albumfolder-user-trash.svg"
   width="64"
   height="64"
   inkscape:version="0.92.2 5c3e80d, 2017-08-06">
  <metadata
     id="metadata16">
    <rdf:RDF>
      <cc:Work
         rdf:about="">
        <dc:format>image/svg+xml</dc:format>
        <dc:type
           rdf:resource="http://purl.org/dc/dcmitype/StillImage" />
        <dc:title></dc:title>
      </cc:Work>
    </rdf:RDF>
  </metadata>
  <defs
     id="defs14" />
  <sodipodi:namedview
     pagecolor="#ffffff"
     bordercolor="#666666"
     borderopacity="1"
     objecttolerance="10"
     gridtolerance="10"
     guidetolerance="10"
     inkscape:pageopacity="0"
     inkscape:pageshadow="2"
     inkscape:window-width="1366"
     inkscape:window-height="717"
     id="namedview12"
     showgrid="false"
     inkscape:zoom="3.6875"
     inkscape:cx="44.867444"
     inkscape:cy="30.660601"
     inkscape:window-x="0"
     inkscape:window-y="24"
     inkscape:window-maximized="1"
     inkscape:current-layer="svg10" />
  <g
     transform="scale(0.125)"
     id="g827">
    <path
       style="fill:#c6262e;fill-opacity:1;stroke-width:11.10955811"
       inkscape:connector-curvature="0"
       d="M 432.91327,56.473974 C 535.10618,145.04856 538.74004,306.17368 441.03007,416.37276 343.3201,526.57184 181.27965,544.10061 79.086741,455.52602 -23.106205,366.95143 -26.740032,205.82632 70.96994,95.627234 168.67992,-14.571847 330.72036,-32.100616 432.91327,56.473974 Z"
       id="path891" />
    <path
       style="opacity:1;fill:#000000;fill-opacity:0.49019608;stroke-width:11.10955811"
       inkscape:connector-curvature="0"
       d="M 511.6355,224.90352 C 510.08412,286.21517 486.47428,349.05813 440.66912,400.718 342.95915,510.91712 180.91871,528.44585 78.725758,439.87129 30.827124,398.35564 4.4968186,340.92285 0.19382637,280.22881 0.79907992,346.58549 27.117405,410.48218 79.07869,455.51907 c 102.19291,88.57455 264.24107,71.03713 361.94333,-39.1533 49.70494,-56.0581 73.00501,-125.29096 70.61348,-191.46225 z"
       id="path897" />
    <path
       style="fill:#000000;fill-opacity:0.49019608;stroke-width:1.56093693"
       d="m 306.27817,397.5124 c -10.12258,-15.54565 -18.40468,-29.15821 -18.40468,-30.25013 0,-3.55277 33.50085,-60.11626 35.60505,-60.11626 2.69271,0 3.93869,3.53492 3.93869,11.17433 v 6.23618 l 38.63319,-0.51034 c 43.02917,-0.5684 46.16908,-1.22875 58.87695,-12.38229 5.38592,-4.72714 5.81578,-4.87764 3.98733,-1.396 -11.17801,21.28451 -46.27944,84.15772 -48.23706,86.40157 -5.25033,6.01802 -10.3247,7.25464 -29.76884,7.25464 h -18.80876 v 8.45749 c 0,21.07689 -3.86459,18.85153 -25.82187,-14.86919 z m -115.72237,3.89346 c -7.37321,-3.63616 -10.51864,-11.4722 -10.58067,-26.35909 -0.0587,-14.08688 3.11713,-22.38683 14.81832,-38.72736 l 6.35969,-8.88122 h 35.81565 35.81564 v 38.24296 38.24295 l -38.63319,-0.0356 c -31.88017,-0.0293 -39.50059,-0.4633 -43.59542,-2.4827 z m -45.24076,-61.10252 c -13.0169,-22.95837 -24.14676,-43.38399 -24.73304,-45.3903 -1.88778,-6.46036 0.64049,-13.50949 10.18317,-28.39196 5.1368,-8.01116 9.33962,-15.08241 9.33962,-15.71386 0,-0.63146 -3.51211,-3.30912 -7.80469,-5.95037 -7.49082,-4.60915 -9.97526,-8.94373 -5.85351,-10.21257 1.07314,-0.33035 17.40445,-0.97513 36.29178,-1.43284 l 34.34062,-0.83219 15.9996,30.27719 c 8.79978,16.65245 15.99961,31.3677 15.99961,32.70056 0,3.532 -4.04271,2.9709 -10.57467,-1.46768 -4.50823,-3.06342 -6.10368,-3.47844 -7.50083,-1.95117 -0.97602,1.06694 -9.9628,14.86408 -19.97063,30.66029 -19.67918,31.06139 -23.85052,40.98537 -22.10892,52.59918 0.5669,3.78035 0.81208,6.8677 0.54485,6.86079 -0.26724,-0.006 -11.13607,-18.7967 -24.15296,-41.75507 z m 214.3874,-32.76709 c -14.62852,-23.42452 -34.25426,-56.67791 -33.71681,-57.12899 5.11666,-4.29438 64.4578,-36.92099 65.35875,-35.93517 0.68316,0.7475 10.11015,14.97569 20.94887,31.61817 C 426.28869,267.5798 432,277.69005 432,280.97545 c 0,6.86469 -4.27703,14.64167 -11.5191,20.94539 -11.27247,9.81188 -16.5401,11.39609 -38.02107,11.43464 l -19.10189,0.0343 z m -161.7055,-86.18973 c -16.62861,-11.14436 -30.42825,-20.45688 -30.66587,-20.6945 -0.90316,-0.90315 36.81077,-59.87191 39.90322,-62.39188 5.17077,-4.21357 16.17238,-5.17986 24.1756,-2.12339 9.25118,3.53304 21.66351,17.26817 30.18559,33.40247 l 6.76184,12.80172 -3.95893,6.59905 c -9.39835,15.66592 -33.4083,51.74921 -34.72648,52.18861 -0.79261,0.26421 -15.04635,-8.63774 -31.67497,-19.78208 z m 108.40745,3.63961 c -30.38307,-2.64278 -33.39511,-4.44407 -19.38376,-11.59213 7.6534,-3.90447 8.09716,-2.13198 -9.06716,-36.21669 -15.48677,-30.75351 -25.08004,-42.68869 -38.4415,-47.82596 l -8.09237,-3.11137 46.94028,-0.0813 c 63.10545,-0.10942 63.98448,0.22217 78.78391,29.71347 l 7.68866,15.32147 8.6533,-3.82689 c 4.7593,-2.10479 9.4154,-3.8269 10.34687,-3.8269 3.98935,0 -0.59293,10.49857 -15.89099,36.40815 l -16.29039,27.59027 -10.16584,-0.19246 c -5.59121,-0.10583 -21.37767,-1.1677 -35.08101,-2.35963 z"
       id="path880"
       inkscape:connector-curvature="0" />
    <path
       inkscape:connector-curvature="0"
       id="path878"
       d="m 286.27814,377.5124 c -10.12258,-15.54565 -18.40468,-29.15821 -18.40468,-30.25013 0,-3.55277 33.50085,-60.11626 35.60505,-60.11626 2.69271,0 3.93869,3.53492 3.93869,11.17433 v 6.23618 l 38.63319,-0.51034 c 43.02917,-0.5684 46.16908,-1.22875 58.87695,-12.38229 5.38592,-4.72714 5.81578,-4.87764 3.98733,-1.396 -11.17801,21.28451 -46.27944,84.15772 -48.23706,86.40157 -5.25033,6.01802 -10.3247,7.25464 -29.76884,7.25464 h -18.80876 v 8.45749 c 0,21.07689 -3.86459,18.85153 -25.82187,-14.86919 z m -115.72237,3.89346 c -7.37321,-3.63616 -10.51864,-11.4722 -10.58067,-26.35909 -0.0587,-14.08688 3.11713,-22.38683 14.81832,-38.72736 l 6.35969,-8.88122 h 35.81565 35.81564 v 38.24296 38.24295 l -38.63319,-0.0356 c -31.88017,-0.0293 -39.50059,-0.4633 -43.59542,-2.4827 z m -45.24076,-61.10252 c -13.0169,-22.95837 -24.14676,-43.38399 -24.73304,-45.3903 -1.887783,-6.46036 0.64049,-13.50949 10.18317,-28.39196 5.1368,-8.01116 9.33962,-15.08241 9.33962,-15.71386 0,-0.63146 -3.51211,-3.30912 -7.80469,-5.95037 -7.49082,-4.60915 -9.97526,-8.94373 -5.85351,-10.21257 1.07314,-0.33035 17.40445,-0.97513 36.29178,-1.43284 l 34.34062,-0.83219 15.9996,30.27719 c 8.79978,16.65245 15.99961,31.3677 15.99961,32.70056 0,3.532 -4.04271,2.9709 -10.57467,-1.46768 -4.50823,-3.06342 -6.10368,-3.47844 -7.50083,-1.95117 -0.97602,1.06694 -9.9628,14.86408 -19.97063,30.66029 -19.67918,31.06139 -23.85052,40.98537 -22.10892,52.59918 0.5669,3.78035 0.81208,6.8677 0.54485,6.86079 -0.26724,-0.006 -11.13607,-18.7967 -24.15296,-41.75507 z m 214.3874,-32.76709 c -14.62852,-23.42452 -34.25426,-56.67791 -33.71681,-57.12899 5.11666,-4.29438 64.4578,-36.92099 65.35875,-35.93517 0.68316,0.7475 10.11015,14.97569 20.94887,31.61817 13.99544,21.48954 19.70675,31.59979 19.70675,34.88519 0,6.86469 -4.27703,14.64167 -11.5191,20.94539 -11.27247,9.81188 -16.5401,11.39609 -38.02107,11.43464 l -19.10189,0.0343 z m -161.7055,-86.18973 c -16.62861,-11.14436 -30.42825,-20.45688 -30.66587,-20.6945 -0.90316,-0.90315 36.81077,-59.87191 39.90322,-62.39188 5.17077,-4.21357 16.17238,-5.17986 24.1756,-2.12339 9.25118,3.53304 21.66351,17.26817 30.18559,33.40247 l 6.76184,12.80172 -3.95893,6.59905 c -9.39835,15.66592 -33.4083,51.74921 -34.72648,52.18861 -0.79261,0.26421 -15.04635,-8.63774 -31.67497,-19.78208 z m 108.40745,3.63961 c -30.38307,-2.64278 -33.39511,-4.44407 -19.38376,-11.59213 7.6534,-3.90447 8.09716,-2.13198 -9.06716,-36.21669 -15.48677,-30.75351 -25.08004,-42.68869 -38.4415,-47.82596 l -8.09237,-3.11137 46.94028,-0.0813 c 63.10545,-0.10942 63.98448,0.22217 78.78391,29.71347 l 7.68866,15.32147 8.6533,-3.82689 c 4.7593,-2.10479 9.4154,-3.8269 10.34687,-3.8269 3.98935,0 -0.59293,10.49857 -15.89099,36.40815 l -16.29039,27.59027 -10.16584,-0.19246 c -5.59121,-0.10583 -21.37767,-1.1677 -35.08101,-2.35963 z"
       style="fill:#ffffff;stroke-width:1.56093693" />
  </g>
</svg>
