<?xml version="1.0" encoding="UTF-8" standalone="no"?>
<svg
   xmlns:dc="http://purl.org/dc/elements/1.1/"
   xmlns:cc="http://creativecommons.org/ns#"
   xmlns:rdf="http://www.w3.org/1999/02/22-rdf-syntax-ns#"
   xmlns:svg="http://www.w3.org/2000/svg"
   xmlns="http://www.w3.org/2000/svg"
   xmlns:sodipodi="http://sodipodi.sourceforge.net/DTD/sodipodi-0.dtd"
   xmlns:inkscape="http://www.inkscape.org/namespaces/inkscape"
   viewBox="0 0 64 64"
   version="1.1"
   id="svg8"
   sodipodi:docname="edit-text-frame-update.svg"
   width="64"
   height="64"
   inkscape:version="0.92.2 5c3e80d, 2017-08-06">
  <metadata
     id="metadata12">
    <rdf:RDF>
      <cc:Work
         rdf:about="">
        <dc:format>image/svg+xml</dc:format>
        <dc:type
           rdf:resource="http://purl.org/dc/dcmitype/StillImage" />
        <dc:title></dc:title>
      </cc:Work>
    </rdf:RDF>
  </metadata>
  <sodipodi:namedview
     pagecolor="#ffffff"
     bordercolor="#666666"
     borderopacity="1"
     objecttolerance="10"
     gridtolerance="10"
     guidetolerance="10"
     inkscape:pageopacity="0"
     inkscape:pageshadow="2"
     inkscape:window-width="1366"
     inkscape:window-height="717"
     id="namedview10"
     showgrid="false"
     inkscape:zoom="0.43457604"
     inkscape:cx="331.6487"
     inkscape:cy="269.45544"
     inkscape:window-x="0"
     inkscape:window-y="24"
     inkscape:window-maximized="1"
     inkscape:current-layer="svg8" />
  <defs
     id="defs3051">
    <style
       type="text/css"
       id="current-color-scheme">
      .ColorScheme-Text {
        color:#4d4d4d;
      }
      .ColorScheme-Highlight {
        color:#3daee9;
      }
      </style>
  </defs>
  <g
     id="g874"
     transform="matrix(0.125,0,0,0.125,6.1868113e-8,55.999999)">
    <path
       style="fill:#3689e6;fill-opacity:1;stroke-width:11.10955906"
       inkscape:connector-curvature="0"
       d="m 432.91328,-391.52606 c 102.1929,88.57459 105.82676,249.69974 8.1168,359.89882 C 343.32007,78.57184 181.27963,96.100608 79.086738,7.526016 -23.106204,-81.04856 -26.740031,-242.17372 70.969938,-352.37279 168.67989,-462.57187 330.72033,-480.10064 432.91328,-391.52606 Z"
       id="path27-5" />
    <path
       style="opacity:1;fill:#000000;fill-opacity:0.49019608;stroke-width:11.10955906"
       inkscape:connector-curvature="0"
       d="m 511.63551,-223.09648 c -1.55139,61.31161 -25.16123,124.154568 -70.96637,175.81444 C 342.95912,62.917072 180.91868,80.4458 78.725756,-8.128752 30.827124,-49.64436 4.4968184,-107.07719 0.19382632,-167.77119 0.79907984,-101.41455 27.117404,-37.517816 79.078686,7.519024 181.27157,96.093616 343.31973,78.556152 441.02203,-31.634232 490.72698,-87.692376 514.02704,-156.92523 511.63551,-223.09648 Z"
       id="path51-6" />
    <path
       inkscape:connector-curvature="0"
       style="fill:#000000;fill-opacity:0.49019608;stroke:none;stroke-width:1px;stroke-linecap:butt;stroke-linejoin:miter;stroke-opacity:1"
       d="m 135,-328 v 312 h 272.9707 l -0.004,-217.88867 h -77.99024 v 0.0469 h -16.27148 v -0.0469 h -0.01 v -16.27149 h 0.01 v -77.64843 h 16.27148 z m 194.97656,0.19141 v 77.64843 h 77.99024 z m -93.05273,16.10937 c 0.35037,0 1.34185,0.20956 2.20117,0.46484 3.16444,0.93973 5.39952,4.0216 5.39258,7.43555 -0.005,2.2716 -0.69164,3.80858 -2.90625,6.50195 -0.9378,1.14054 -2.10772,2.57201 -2.59961,3.18165 -15.8572,19.65312 -31.59642,38.98142 -32.59766,40.03125 -2.10731,2.20958 -4.84788,2.90599 -7.94531,2.01953 -1.92499,-0.55094 -3.87727,-2.50236 -9.83789,-9.83594 -4.3181,-5.31275 -6.71155,-8.23302 -10.88281,-13.2793 -1.08425,-1.3117 -3.62064,-4.39799 -5.63672,-6.85742 -2.01611,-2.4594 -3.9492,-4.80689 -4.29492,-5.2168 -4.4692,-5.29894 -10.21252,-12.56171 -10.52539,-13.31054 -0.71532,-1.71201 -0.7776,-3.97285 -0.15625,-5.71875 0.75254,-2.11427 2.61476,-4.00131 4.57617,-4.63477 1.84159,-0.59475 3.00644,-0.60818 4.82617,-0.0605 2.54755,0.7667 1.23652,-0.70038 22.39062,25.06641 4.8384,5.89342 6.70963,8.16828 11.15821,13.56445 l 0.61328,0.74414 0.82226,-0.92773 c 0.97125,-1.09666 1.9368,-2.27861 17.7461,-21.76758 6.66803,-8.22003 12.53609,-15.29389 13.04101,-15.71875 0.91762,-0.77213 3.41321,-1.68164 4.61524,-1.68164 z m -81.87305,86.88477 h 128.54297 v 18.71289 H 155.05078 Z m 0,50 h 228.60938 v 18.71289 H 155.05078 Z m 0,52 h 228.60938 v 18.71289 H 155.05078 Z m 0,49.999997 h 228.60938 v 18.712891 H 155.05078 Z"
       id="path868" />
    <path
       id="path39"
       d="m 115,-348 v 312 h 272.9707 l -0.004,-217.88867 h -77.99024 v 0.0469 h -16.27148 v -0.0469 h -0.01 v -16.27149 h 0.01 v -77.64843 h 16.27148 z m 194.97656,0.19141 v 77.64843 h 77.99024 z m -93.05273,16.10937 c 0.35037,0 1.34185,0.20956 2.20117,0.46484 3.16444,0.93973 5.39952,4.0216 5.39258,7.43555 -0.005,2.2716 -0.69164,3.80858 -2.90625,6.50195 -0.9378,1.14054 -2.10772,2.57201 -2.59961,3.18165 -15.8572,19.65312 -31.59642,38.98142 -32.59766,40.03125 -2.10731,2.20958 -4.84788,2.90599 -7.94531,2.01953 -1.92499,-0.55094 -3.87727,-2.50236 -9.83789,-9.83594 -4.3181,-5.31275 -6.71155,-8.23302 -10.88281,-13.2793 -1.08425,-1.3117 -3.62064,-4.39799 -5.63672,-6.85742 -2.01611,-2.4594 -3.9492,-4.80689 -4.29492,-5.2168 -4.4692,-5.29894 -10.21252,-12.56171 -10.52539,-13.31054 -0.71532,-1.71201 -0.7776,-3.97285 -0.15625,-5.71875 0.75254,-2.11427 2.61476,-4.00131 4.57617,-4.63477 1.84159,-0.59475 3.00644,-0.60818 4.82617,-0.0605 2.54755,0.7667 1.23652,-0.70038 22.39062,25.06641 4.8384,5.89342 6.70963,8.16828 11.15821,13.56445 l 0.61328,0.74414 0.82226,-0.92773 c 0.97125,-1.09666 1.9368,-2.27861 17.7461,-21.76758 6.66803,-8.22003 12.53609,-15.29389 13.04101,-15.71875 0.91762,-0.77213 3.41321,-1.68164 4.61524,-1.68164 z m -81.87305,86.88477 h 128.54297 v 18.71289 H 135.05078 Z m 0,50 h 228.60938 v 18.71289 H 135.05078 Z m 0,52 h 228.60938 v 18.71289 H 135.05078 Z m 0,49.999997 h 228.60938 v 18.712891 H 135.05078 Z"
       style="fill:#ffffff;stroke:none;stroke-width:1px;stroke-linecap:butt;stroke-linejoin:miter;stroke-opacity:1"
       inkscape:connector-curvature="0" />
  </g>
</svg>
