<?xml version="1.0" encoding="UTF-8" standalone="no"?>
<svg
   xmlns:dc="http://purl.org/dc/elements/1.1/"
   xmlns:cc="http://creativecommons.org/ns#"
   xmlns:rdf="http://www.w3.org/1999/02/22-rdf-syntax-ns#"
   xmlns:svg="http://www.w3.org/2000/svg"
   xmlns="http://www.w3.org/2000/svg"
   xmlns:sodipodi="http://sodipodi.sourceforge.net/DTD/sodipodi-0.dtd"
   xmlns:inkscape="http://www.inkscape.org/namespaces/inkscape"
   viewBox="0 0 64 64"
   version="1.1"
   id="svg10"
   sodipodi:docname="escape-direction-down.svg"
   width="64"
   height="64"
   inkscape:version="0.92.2 5c3e80d, 2017-08-06">
  <metadata
     id="metadata14">
    <rdf:RDF>
      <cc:Work
         rdf:about="">
        <dc:format>image/svg+xml</dc:format>
        <dc:type
           rdf:resource="http://purl.org/dc/dcmitype/StillImage" />
        <dc:title></dc:title>
      </cc:Work>
    </rdf:RDF>
  </metadata>
  <sodipodi:namedview
     pagecolor="#ffffff"
     bordercolor="#666666"
     borderopacity="1"
     objecttolerance="10"
     gridtolerance="10"
     guidetolerance="10"
     inkscape:pageopacity="0"
     inkscape:pageshadow="2"
     inkscape:window-width="1366"
     inkscape:window-height="717"
     id="namedview12"
     showgrid="false"
     inkscape:zoom="0.65186407"
     inkscape:cx="635.97635"
     inkscape:cy="317.59752"
     inkscape:window-x="0"
     inkscape:window-y="24"
     inkscape:window-maximized="1"
     inkscape:current-layer="svg10" />
  <defs
     id="defs3051">
    <style
       type="text/css"
       id="current-color-scheme">
      .ColorScheme-Text {
        color:#4d4d4d;
      }
      .ColorScheme-Highlight {
        color:#3daee9;
      }
      .ColorScheme-NegativeText {
        color:#da4453;
      }
      </style>
  </defs>
  <g
     id="g898"
     transform="matrix(0.125,0,0,0.125,-2.5659518e-7,56)">
    <path
       style="fill:#c6262e;fill-opacity:1;stroke-width:11.10955811"
       inkscape:connector-curvature="0"
       d="m 432.91327,-391.52602 c 102.19291,88.57459 105.82677,249.6997 8.1168,359.898784 C 343.3201,78.571841 181.27964,96.100608 79.086724,7.526019 -23.106183,-81.048563 -26.740043,-242.17368 70.969925,-352.37276 168.67989,-462.57184 330.72036,-480.10061 432.91327,-391.52602 Z"
       id="path27" />
    <path
       style="opacity:1;fill:#000000;fill-opacity:0.49019608;stroke-width:11.10955811"
       inkscape:connector-curvature="0"
       d="m 511.63551,-223.09648 c -1.55139,61.31164 -25.16123,124.154605 -70.96639,175.814476 C 342.95915,62.917113 180.91868,80.445841 78.725775,-8.1287086 30.827126,-49.644356 4.4968266,-107.07716 0.19382659,-167.77119 0.79908657,-101.41452 27.117416,-37.51782 79.078684,7.519059 181.27159,96.093616 343.31975,78.556193 441.02202,-31.634228 490.72696,-87.692339 514.02704,-156.9252 511.63551,-223.09648 Z"
       id="path51" />
    <path
       style="color:#000000;font-style:normal;font-variant:normal;font-weight:normal;font-stretch:normal;font-size:medium;line-height:normal;font-family:sans-serif;font-variant-ligatures:normal;font-variant-position:normal;font-variant-caps:normal;font-variant-numeric:normal;font-variant-alternates:normal;font-feature-settings:normal;text-indent:0;text-align:start;text-decoration:none;text-decoration-line:none;text-decoration-style:solid;text-decoration-color:#000000;letter-spacing:normal;word-spacing:normal;text-transform:none;writing-mode:lr-tb;direction:ltr;text-orientation:mixed;dominant-baseline:auto;baseline-shift:baseline;text-anchor:start;white-space:normal;shape-padding:0;clip-rule:nonzero;display:inline;overflow:visible;visibility:visible;opacity:1;isolation:auto;mix-blend-mode:normal;color-interpolation:sRGB;color-interpolation-filters:linearRGB;solid-color:#000000;solid-opacity:1;vector-effect:none;fill:#000000;fill-opacity:0.49019608;fill-rule:nonzero;stroke:none;stroke-width:33.89756775;stroke-linecap:butt;stroke-linejoin:miter;stroke-miterlimit:4;stroke-dasharray:none;stroke-dashoffset:0;stroke-opacity:1;color-rendering:auto;image-rendering:auto;shape-rendering:auto;text-rendering:auto;enable-background:accumulate"
       d="m 149.77344,-327.99999 c -16.20147,0 -29.77344,13.57198 -29.77344,29.77344 V -45.77344 C 120,-29.571976 133.57197,-16 149.77344,-16 h 252.45311 c 16.20147,0 29.77344,-13.571976 29.77344,-29.77344 v -252.45311 c 0,-16.20146 -13.57198,-29.77344 -29.77344,-29.77344 z m 4.125,33.89844 H 398.10155 V -49.898439 H 153.89844 Z"
       id="path64"
       inkscape:connector-curvature="0" />
    <path
       id="path66"
       d="m 302.01367,-127.03125 c -7.65366,4.43151 -16.53298,6.97852 -26.01367,6.97852 -9.4729,0 -18.34474,-2.544 -25.99414,-6.96875 v 77.123042 h 52.00781 z"
       style="color:#da4453;fill:#000000;fill-opacity:0.49019608;stroke:none;stroke-width:26"
       inkscape:connector-curvature="0" />
    <path
       style="color:#3daee9;fill:#000000;fill-opacity:0.49019608;stroke:none;stroke-width:26"
       d="m 276,-224.065 c -28.7235,0 -52.0065,23.283 -52.0065,52.0065 0,28.7235 23.283,52.0065 52.0065,52.0065 28.7235,0 52.0065,-23.283 52.0065,-52.0065 0,-28.7235 -23.283,-52.0065 -52.0065,-52.0065 m 0,25.9935 c 14.352,0 25.9935,11.6415 25.9935,25.9935 0,14.352 -11.6415,25.9935 -25.9935,25.9935 -14.352,0 -25.9935,-11.6415 -25.9935,-25.9935 0,-14.352 11.6415,-25.9935 25.9935,-25.9935"
       class="ColorScheme-Highlight"
       id="path68"
       inkscape:connector-curvature="0" />
    <g
       id="g62">
      <path
         style="color:#000000;font-style:normal;font-variant:normal;font-weight:normal;font-stretch:normal;font-size:medium;line-height:normal;font-family:sans-serif;font-variant-ligatures:normal;font-variant-position:normal;font-variant-caps:normal;font-variant-numeric:normal;font-variant-alternates:normal;font-feature-settings:normal;text-indent:0;text-align:start;text-decoration:none;text-decoration-line:none;text-decoration-style:solid;text-decoration-color:#000000;letter-spacing:normal;word-spacing:normal;text-transform:none;writing-mode:lr-tb;direction:ltr;text-orientation:mixed;dominant-baseline:auto;baseline-shift:baseline;text-anchor:start;white-space:normal;shape-padding:0;clip-rule:nonzero;display:inline;overflow:visible;visibility:visible;opacity:1;isolation:auto;mix-blend-mode:normal;color-interpolation:sRGB;color-interpolation-filters:linearRGB;solid-color:#000000;solid-opacity:1;vector-effect:none;fill:#ffffff;fill-opacity:1;fill-rule:nonzero;stroke:none;stroke-width:33.89756775;stroke-linecap:butt;stroke-linejoin:miter;stroke-miterlimit:4;stroke-dasharray:none;stroke-dashoffset:0;stroke-opacity:1;color-rendering:auto;image-rendering:auto;shape-rendering:auto;text-rendering:auto;enable-background:accumulate"
         d="m 129.77344,-347.99999 c -16.20147,0 -29.773443,13.57198 -29.773443,29.77344 v 252.453114 c 0,16.201464 13.571973,29.77344 29.773443,29.77344 h 252.45311 c 16.20147,0 29.77344,-13.571976 29.77344,-29.77344 V -318.22655 c 0,-16.20146 -13.57198,-29.77344 -29.77344,-29.77344 z m 4.125,33.89844 H 378.10155 V -69.898435 H 133.89844 Z"
         id="rect840"
         inkscape:connector-curvature="0" />
      <path
         style="color:#da4453;fill:#ffffff;fill-opacity:1;stroke:none;stroke-width:26"
         class="ColorScheme-NegativeText"
         d="M 230.0065,-166.065 H 282.013 V -36 h -52.0065 z"
         id="path6"
         inkscape:connector-curvature="0" />
      <path
         style="color:#3daee9;fill:#ffffff;fill-opacity:1;stroke:none;stroke-width:26"
         d="m 256,-244.065 c -28.7235,0 -52.0065,23.283 -52.0065,52.0065 0,28.7235 23.283,52.0065 52.0065,52.0065 28.7235,0 52.0065,-23.283 52.0065,-52.0065 0,-28.7235 -23.283,-52.0065 -52.0065,-52.0065 m 0,25.9935 c 14.352,0 25.9935,11.6415 25.9935,25.9935 0,14.352 -11.6415,25.9935 -25.9935,25.9935 -14.352,0 -25.9935,-11.6415 -25.9935,-25.9935 0,-14.352 11.6415,-25.9935 25.9935,-25.9935"
         class="ColorScheme-Highlight"
         id="path8"
         inkscape:connector-curvature="0" />
    </g>
  </g>
</svg>
