<?xml version="1.0" encoding="UTF-8" standalone="no"?>
<svg
   xmlns:dc="http://purl.org/dc/elements/1.1/"
   xmlns:cc="http://creativecommons.org/ns#"
   xmlns:rdf="http://www.w3.org/1999/02/22-rdf-syntax-ns#"
   xmlns:svg="http://www.w3.org/2000/svg"
   xmlns="http://www.w3.org/2000/svg"
   xmlns:sodipodi="http://sodipodi.sourceforge.net/DTD/sodipodi-0.dtd"
   xmlns:inkscape="http://www.inkscape.org/namespaces/inkscape"
   viewBox="0 0 64 64"
   version="1.1"
   id="svg10"
   sodipodi:docname="escape-direction-right.svg"
   width="64"
   height="64"
   inkscape:version="0.92.2 5c3e80d, 2017-08-06">
  <metadata
     id="metadata14">
    <rdf:RDF>
      <cc:Work
         rdf:about="">
        <dc:format>image/svg+xml</dc:format>
        <dc:type
           rdf:resource="http://purl.org/dc/dcmitype/StillImage" />
        <dc:title></dc:title>
      </cc:Work>
    </rdf:RDF>
  </metadata>
  <sodipodi:namedview
     pagecolor="#ffffff"
     bordercolor="#666666"
     borderopacity="1"
     objecttolerance="10"
     gridtolerance="10"
     guidetolerance="10"
     inkscape:pageopacity="0"
     inkscape:pageshadow="2"
     inkscape:window-width="1366"
     inkscape:window-height="717"
     id="namedview12"
     showgrid="false"
     inkscape:zoom="3.6875"
     inkscape:cx="30.967427"
     inkscape:cy="8.8519871"
     inkscape:window-x="0"
     inkscape:window-y="24"
     inkscape:window-maximized="1"
     inkscape:current-layer="svg10" />
  <defs
     id="defs3051">
    <style
       type="text/css"
       id="current-color-scheme">
      .ColorScheme-Text {
        color:#4d4d4d;
      }
      .ColorScheme-Highlight {
        color:#3daee9;
      }
      .ColorScheme-NegativeText {
        color:#da4453;
      }
      </style>
  </defs>
  <g
     id="g64">
    <path
       style="fill:#c6262e;fill-opacity:1;stroke-width:1.38869476"
       inkscape:connector-curvature="0"
       d="M 54.114159,7.0592475 C 66.888273,18.131071 67.342505,38.27171 55.128759,52.046595 42.915013,65.82148 22.659955,68.012576 9.8858405,56.940752 -2.8882728,45.86893 -3.3425053,25.72829 8.8712407,11.953405 21.084986,-1.82148 41.340045,-4.0125763 54.114159,7.0592475 Z"
       id="path27" />
    <path
       style="opacity:1;fill:#000000;fill-opacity:0.49019608;stroke-width:1.38869476"
       inkscape:connector-curvature="0"
       d="M 63.954439,28.11294 C 63.760515,35.776895 60.809285,43.632266 55.08364,50.089749 42.869894,63.864639 22.614835,66.05573 9.8407219,54.983911 3.8533908,49.794455 0.56210336,42.615355 0.02422836,35.028601 0.09988586,43.323185 3.389677,51.310272 9.8848355,56.939882 22.658949,68.011702 42.914969,65.819524 55.127753,52.045721 61.34087,45.038458 64.25338,36.38435 63.954439,28.11294 Z"
       id="path51" />
    <g
       transform="rotate(-90,34.5,34.5)"
       id="g52">
      <path
         inkscape:connector-curvature="0"
         id="path64"
         d="M 18.72168,15.000001 C 16.696496,15.000001 15,16.696499 15,18.721681 V 50.27832 C 15,52.303503 16.696496,54 18.72168,54 h 31.556639 c 2.025184,0 3.72168,-1.696497 3.72168,-3.72168 V 18.721681 c 0,-2.025182 -1.696498,-3.72168 -3.72168,-3.72168 z m 0.515625,4.237305 H 49.762694 V 49.762695 H 19.237305 Z"
         style="color:#000000;font-style:normal;font-variant:normal;font-weight:normal;font-stretch:normal;font-size:medium;line-height:normal;font-family:sans-serif;font-variant-ligatures:normal;font-variant-position:normal;font-variant-caps:normal;font-variant-numeric:normal;font-variant-alternates:normal;font-feature-settings:normal;text-indent:0;text-align:start;text-decoration:none;text-decoration-line:none;text-decoration-style:solid;text-decoration-color:#000000;letter-spacing:normal;word-spacing:normal;text-transform:none;writing-mode:lr-tb;direction:ltr;text-orientation:mixed;dominant-baseline:auto;baseline-shift:baseline;text-anchor:start;white-space:normal;shape-padding:0;clip-rule:nonzero;display:inline;overflow:visible;visibility:visible;opacity:1;isolation:auto;mix-blend-mode:normal;color-interpolation:sRGB;color-interpolation-filters:linearRGB;solid-color:#000000;solid-opacity:1;vector-effect:none;fill:#000000;fill-opacity:0.49019608;fill-rule:nonzero;stroke:none;stroke-width:4.23719597;stroke-linecap:butt;stroke-linejoin:miter;stroke-miterlimit:4;stroke-dasharray:none;stroke-dashoffset:0;stroke-opacity:1;color-rendering:auto;image-rendering:auto;shape-rendering:auto;text-rendering:auto;enable-background:accumulate" />
      <path
         inkscape:connector-curvature="0"
         style="color:#da4453;fill:#000000;fill-opacity:0.49019608;stroke:none;stroke-width:3.25"
         d="m 37.751709,40.121094 c -0.956708,0.553938 -2.066623,0.872315 -3.251709,0.872315 -1.184112,0 -2.293092,-0.318 -3.249267,-0.871094 v 9.64038 h 6.500976 z"
         id="path66" />
      <path
         inkscape:connector-curvature="0"
         id="path68"
         class="ColorScheme-Highlight"
         d="m 34.5,27.991875 c -3.590437,0 -6.500812,2.910375 -6.500812,6.500813 0,3.590437 2.910375,6.500812 6.500812,6.500812 3.590438,0 6.500813,-2.910375 6.500813,-6.500812 0,-3.590438 -2.910375,-6.500813 -6.500813,-6.500813 m 0,3.249188 c 1.794,0 3.249188,1.455187 3.249188,3.249187 0,1.794 -1.455188,3.249188 -3.249188,3.249188 -1.794,0 -3.249187,-1.455188 -3.249187,-3.249188 0,-1.794 1.455187,-3.249187 3.249187,-3.249187"
         style="color:#3daee9;fill:#000000;fill-opacity:0.49019608;stroke:none;stroke-width:3.25" />
    </g>
    <g
       transform="matrix(0,-0.125,0.125,0,55.999998,64)"
       id="g62">
      <path
         style="color:#000000;font-style:normal;font-variant:normal;font-weight:normal;font-stretch:normal;font-size:medium;line-height:normal;font-family:sans-serif;font-variant-ligatures:normal;font-variant-position:normal;font-variant-caps:normal;font-variant-numeric:normal;font-variant-alternates:normal;font-feature-settings:normal;text-indent:0;text-align:start;text-decoration:none;text-decoration-line:none;text-decoration-style:solid;text-decoration-color:#000000;letter-spacing:normal;word-spacing:normal;text-transform:none;writing-mode:lr-tb;direction:ltr;text-orientation:mixed;dominant-baseline:auto;baseline-shift:baseline;text-anchor:start;white-space:normal;shape-padding:0;clip-rule:nonzero;display:inline;overflow:visible;visibility:visible;opacity:1;isolation:auto;mix-blend-mode:normal;color-interpolation:sRGB;color-interpolation-filters:linearRGB;solid-color:#000000;solid-opacity:1;vector-effect:none;fill:#ffffff;fill-opacity:1;fill-rule:nonzero;stroke:none;stroke-width:33.89756775;stroke-linecap:butt;stroke-linejoin:miter;stroke-miterlimit:4;stroke-dasharray:none;stroke-dashoffset:0;stroke-opacity:1;color-rendering:auto;image-rendering:auto;shape-rendering:auto;text-rendering:auto;enable-background:accumulate"
         d="m 129.77344,-347.99999 c -16.20147,0 -29.773443,13.57198 -29.773443,29.77344 v 252.453114 c 0,16.201464 13.571973,29.77344 29.773443,29.77344 h 252.45311 c 16.20147,0 29.77344,-13.571976 29.77344,-29.77344 V -318.22655 c 0,-16.20146 -13.57198,-29.77344 -29.77344,-29.77344 z m 4.125,33.89844 H 378.10155 V -69.898435 H 133.89844 Z"
         id="rect840"
         inkscape:connector-curvature="0" />
      <path
         style="color:#da4453;fill:#ffffff;fill-opacity:1;stroke:none;stroke-width:26"
         class="ColorScheme-NegativeText"
         d="M 230.0065,-166.065 H 282.013 V -36 h -52.0065 z"
         id="path6"
         inkscape:connector-curvature="0" />
      <path
         style="color:#3daee9;fill:#ffffff;fill-opacity:1;stroke:none;stroke-width:26"
         d="m 256,-244.065 c -28.7235,0 -52.0065,23.283 -52.0065,52.0065 0,28.7235 23.283,52.0065 52.0065,52.0065 28.7235,0 52.0065,-23.283 52.0065,-52.0065 0,-28.7235 -23.283,-52.0065 -52.0065,-52.0065 m 0,25.9935 c 14.352,0 25.9935,11.6415 25.9935,25.9935 0,14.352 -11.6415,25.9935 -25.9935,25.9935 -14.352,0 -25.9935,-11.6415 -25.9935,-25.9935 0,-14.352 11.6415,-25.9935 25.9935,-25.9935"
         class="ColorScheme-Highlight"
         id="path8"
         inkscape:connector-curvature="0" />
    </g>
  </g>
</svg>
