<?xml version="1.0" encoding="UTF-8" standalone="no"?>
<svg
   xmlns:dc="http://purl.org/dc/elements/1.1/"
   xmlns:cc="http://creativecommons.org/ns#"
   xmlns:rdf="http://www.w3.org/1999/02/22-rdf-syntax-ns#"
   xmlns:svg="http://www.w3.org/2000/svg"
   xmlns="http://www.w3.org/2000/svg"
   xmlns:sodipodi="http://sodipodi.sourceforge.net/DTD/sodipodi-0.dtd"
   xmlns:inkscape="http://www.inkscape.org/namespaces/inkscape"
   viewBox="0 0 64 64"
   version="1.1"
   id="svg8"
   sodipodi:docname="exchange-positions-zorder.svg"
   width="64"
   height="64"
   inkscape:version="0.92.2 5c3e80d, 2017-08-06">
  <metadata
     id="metadata12">
    <rdf:RDF>
      <cc:Work
         rdf:about="">
        <dc:format>image/svg+xml</dc:format>
        <dc:type
           rdf:resource="http://purl.org/dc/dcmitype/StillImage" />
        <dc:title></dc:title>
      </cc:Work>
    </rdf:RDF>
  </metadata>
  <sodipodi:namedview
     pagecolor="#ffffff"
     bordercolor="#666666"
     borderopacity="1"
     objecttolerance="10"
     gridtolerance="10"
     guidetolerance="10"
     inkscape:pageopacity="0"
     inkscape:pageshadow="2"
     inkscape:window-width="1366"
     inkscape:window-height="717"
     id="namedview10"
     showgrid="false"
     inkscape:zoom="2.4583333"
     inkscape:cx="75.588697"
     inkscape:cy="-6.986809"
     inkscape:window-x="0"
     inkscape:window-y="24"
     inkscape:window-maximized="1"
     inkscape:current-layer="svg8" />
  <defs
     id="defs3051">
    <style
       type="text/css"
       id="current-color-scheme">
      .ColorScheme-Text {
        color:#4d4d4d;
      }
      .ColorScheme-Highlight {
        color:#3daee9;
      }
      </style>
  </defs>
  <g
     id="g909"
     transform="matrix(0.125,0,0,0.125,-5.8280086e-8,56)">
    <path
       id="path850"
       d="m 432.91324,-391.52607 c 102.19296,88.57459 105.8268,249.69974 8.1168,359.898838 C 343.32004,78.571841 181.27964,96.100609 79.086758,7.5260163 -23.106204,-81.048568 -26.740044,-242.17373 70.969957,-352.3728 168.67988,-462.57191 330.72036,-480.10063 432.91324,-391.52607 Z"
       inkscape:connector-curvature="0"
       style="fill:#3689e6;fill-opacity:1;stroke-width:11.10955906" />
    <path
       id="path852"
       d="m 511.63548,-223.09649 c -1.55136,61.31161 -25.1612,124.15457 -70.96632,175.814442 C 342.95908,62.917073 180.91868,80.445801 78.725798,-8.1287438 30.827157,-49.64436 4.4968366,-107.0772 0.19379644,-167.77119 0.79939645,-101.41456 27.117397,-37.517824 79.078678,7.5190163 181.27156,96.093609 343.31972,78.556153 441.02204,-31.634232 490.727,-87.692376 514.027,-156.92524 511.63548,-223.09649 Z"
       inkscape:connector-curvature="0"
       style="opacity:1;fill:#000000;fill-opacity:0.49019608;stroke-width:11.10955906" />
    <g
       style="fill:#000000;fill-opacity:0.49019608"
       transform="translate(20,10.927417)"
       id="g893">
      <rect
         ry="29.914213"
         y="-348"
         x="100"
         height="136.5"
         width="156"
         id="rect883"
         style="opacity:1;fill:#000000;fill-opacity:0.49019608;stroke:none;stroke-width:0.37795272;stroke-miterlimit:4;stroke-dasharray:none;stroke-dashoffset:0;stroke-opacity:1" />
      <path
         sodipodi:nodetypes="ccsssccccscccc"
         inkscape:connector-curvature="0"
         id="path885"
         d="m 232.53851,-44.6058 c -28.98484,-1.550352 -56.00254,-12.195848 -78.48718,-30.925376 -3.50554,-2.919976 -10.86701,-10.134568 -14.0249,-13.744944 -19.75777,-22.5887 -30.98973,-49.79468 -32.8495,-79.56793 -0.69288,-11.09234 0.13488,-15.81473 3.74481,-21.36577 3.62584,-5.57547 8.94138,-9.31053 15.43617,-10.84669 2.69436,-0.6372 8.30252,-0.63016 10.90522,0.0128 7.56834,1.87273 13.68187,6.84427 16.92379,13.76227 1.77363,3.78488 2.15477,5.8899 2.43315,13.43797 0.38104,10.33028 1.3929,18.00675 3.5083,26.61475 10.74719,43.73238 45.8711,94.927632 87.13492,102.529336 v 0 c -3.94594,0.2468 -11.01578,0.29112 -14.72478,0.0924 z"
         style="fill:#000000;fill-opacity:0.49019608;stroke-width:0.2701796" />
      <path
         style="fill:#000000;fill-opacity:0.49019608;stroke-width:0.2701796"
         d="m 277.38795,-334.64986 c 28.98484,1.55035 56.00253,12.19585 78.48717,30.92538 3.50555,2.91997 10.86701,10.13456 14.02491,13.74494 19.75776,22.5887 30.98972,49.79468 32.84949,79.56793 0.69288,11.09234 -0.13488,15.81473 -3.74481,21.36577 -3.62584,5.57547 -8.94138,9.31053 -15.43616,10.84669 -2.69436,0.6372 -8.30252,0.63016 -10.90523,-0.0128 -7.56833,-1.87273 -13.68187,-6.84427 -16.92379,-13.76227 -1.77362,-3.78488 -2.15477,-5.8899 -2.43314,-13.43797 -0.381,-10.33028 -1.39291,-18.00676 -3.50831,-26.61476 -10.74719,-43.73237 -45.87109,-94.92762 -87.13493,-102.52932 v 0 c 3.94596,-0.2468 11.0158,-0.29112 14.7248,-0.0924 z"
         id="path887"
         inkscape:connector-curvature="0"
         sodipodi:nodetypes="ccsssccccscccc" />
      <path
         inkscape:connector-curvature="0"
         id="path889"
         d="m 239.07023,-98.233464 c 0.9278,-2.606596 3.22352,-4.930886 5.64165,-5.711866 2.27043,-0.73328 3.70492,-0.75168 5.94839,-0.0768 3.14077,0.94526 1.52649,-0.86192 27.6066,30.905032 5.96508,7.265784 8.27056,10.068392 13.75505,16.721128 l 0.75744,0.918824 1.01317,-1.143984 c 1.19742,-1.352024 2.38619,-2.810368 21.87688,-26.837568 8.22075,-10.134184 15.45617,-18.854352 16.07867,-19.378162 1.1313,-0.95191 4.20917,-2.0731 5.69111,-2.0731 0.43192,0 1.65223,0.25736 2.71167,0.572 3.9013,1.15858 6.65723,4.958582 6.64868,9.167526 -0.006,2.800568 -0.8526,4.695312 -3.58291,8.015856 -1.15619,1.406136 -2.59831,3.171544 -3.20473,3.923136 -19.54975,24.2296 -38.95378,48.058664 -40.18815,49.352952 -2.59804,2.724096 -5.97721,3.583104 -9.79595,2.4902 -2.37324,-0.6792 -4.78025,-3.085872 -12.12887,-12.127192 -5.32362,-6.54988 -8.27451,-10.150664 -13.41711,-16.37204 -1.33673,-1.617136 -4.46406,-5.421072 -6.94963,-8.4532 -2.48556,-3.03212 -4.86795,-5.926424 -5.29417,-6.431768 -5.50991,-6.532888 -12.59066,-15.487752 -12.9764,-16.41096 -0.88189,-2.110656 -0.95756,-4.897824 -0.19144,-7.050272 z"
         style="fill:#000000;fill-opacity:0.49019608;stroke-width:0.36753017" />
      <path
         style="fill:#000000;fill-opacity:0.49019608;stroke-width:0.36753017"
         d="m 406.17737,-109.11845 c -0.92779,2.6066 -3.22351,4.9309 -5.64165,5.71187 -2.27043,0.73328 -3.70492,0.75176 -5.94839,0.0768 -3.14077,-0.94524 -1.52648,0.86192 -27.60659,-30.905 -5.96508,-7.2658 -8.27056,-10.0684 -13.75505,-16.72114 l -0.75752,-0.91882 -1.01317,1.14399 c -1.19741,1.35202 -2.38618,2.81037 -21.87687,26.83757 -8.22076,10.13418 -15.45618,18.85435 -16.07868,19.37816 -1.13129,0.9519 -4.20916,2.07308 -5.6911,2.07308 -0.43192,0 -1.65223,-0.25736 -2.71168,-0.572 -3.90129,-1.15856 -6.65723,-4.95856 -6.64868,-9.16751 0.006,-2.80057 0.8526,-4.69532 3.58292,-8.01586 1.15618,-1.40613 2.59831,-3.17154 3.20472,-3.92313 19.54976,-24.2296 38.95379,-48.05866 40.18816,-49.35295 2.59804,-2.7241 5.97721,-3.58311 9.79594,-2.4902 2.37325,0.6792 4.78026,3.08587 12.12888,12.12719 5.32362,6.54988 8.27451,10.15066 13.4171,16.37204 1.33673,1.61714 4.46407,5.42107 6.94964,8.45319 2.48556,3.03213 4.86794,5.92643 5.29416,6.43178 5.50991,6.53289 12.59066,15.48775 12.97641,16.41095 0.88188,2.11066 0.95755,4.89783 0.19144,7.05028 z"
         id="path891"
         inkscape:connector-curvature="0" />
    </g>
    <g
       id="g881">
      <rect
         style="opacity:1;fill:#ffffff;fill-opacity:1;stroke:none;stroke-width:0.37795272;stroke-miterlimit:4;stroke-dasharray:none;stroke-dashoffset:0;stroke-opacity:1"
         id="rect829"
         width="156"
         height="136.5"
         x="100"
         y="-348"
         ry="29.914213" />
      <path
         style="fill:#ffffff;stroke-width:0.2701796"
         d="m 232.53851,-44.6058 c -28.98484,-1.550352 -56.00254,-12.195848 -78.48718,-30.925376 -3.50554,-2.919976 -10.86701,-10.134568 -14.0249,-13.744944 -19.75777,-22.5887 -30.98973,-49.79468 -32.8495,-79.56793 -0.69288,-11.09234 0.13488,-15.81473 3.74481,-21.36577 3.62584,-5.57547 8.94138,-9.31053 15.43617,-10.84669 2.69436,-0.6372 8.30252,-0.63016 10.90522,0.0128 7.56834,1.87273 13.68187,6.84427 16.92379,13.76227 1.77363,3.78488 2.15477,5.8899 2.43315,13.43797 0.38104,10.33028 1.3929,18.00675 3.5083,26.61475 10.74719,43.73238 45.8711,94.927632 87.13492,102.529336 v 0 c -3.94594,0.2468 -11.01578,0.29112 -14.72478,0.0924 z"
         id="path844"
         inkscape:connector-curvature="0"
         sodipodi:nodetypes="ccsssccccscccc" />
      <path
         sodipodi:nodetypes="ccsssccccscccc"
         inkscape:connector-curvature="0"
         id="path839"
         d="m 277.38795,-334.64986 c 28.98484,1.55035 56.00253,12.19585 78.48717,30.92538 3.50555,2.91997 10.86701,10.13456 14.02491,13.74494 19.75776,22.5887 30.98972,49.79468 32.84949,79.56793 0.69288,11.09234 -0.13488,15.81473 -3.74481,21.36577 -3.62584,5.57547 -8.94138,9.31053 -15.43616,10.84669 -2.69436,0.6372 -8.30252,0.63016 -10.90523,-0.0128 -7.56833,-1.87273 -13.68187,-6.84427 -16.92379,-13.76227 -1.77362,-3.78488 -2.15477,-5.8899 -2.43314,-13.43797 -0.381,-10.33028 -1.39291,-18.00676 -3.50831,-26.61476 -10.74719,-43.73237 -45.87109,-94.92762 -87.13493,-102.52932 v 0 c 3.94596,-0.2468 11.0158,-0.29112 14.7248,-0.0924 z"
         style="fill:#ffffff;stroke-width:0.2701796" />
      <path
         style="fill:#ffffff;stroke-width:0.36753017"
         d="m 239.07023,-98.233464 c 0.9278,-2.606596 3.22352,-4.930886 5.64165,-5.711866 2.27043,-0.73328 3.70492,-0.75168 5.94839,-0.0768 3.14077,0.94526 1.52649,-0.86192 27.6066,30.905032 5.96508,7.265784 8.27056,10.068392 13.75505,16.721128 l 0.75744,0.918824 1.01317,-1.143984 c 1.19742,-1.352024 2.38619,-2.810368 21.87688,-26.837568 8.22075,-10.134184 15.45617,-18.854352 16.07867,-19.378162 1.1313,-0.95191 4.20917,-2.0731 5.69111,-2.0731 0.43192,0 1.65223,0.25736 2.71167,0.572 3.9013,1.15858 6.65723,4.958582 6.64868,9.167526 -0.006,2.800568 -0.8526,4.695312 -3.58291,8.015856 -1.15619,1.406136 -2.59831,3.171544 -3.20473,3.923136 -19.54975,24.2296 -38.95378,48.058664 -40.18815,49.352952 -2.59804,2.724096 -5.97721,3.583104 -9.79595,2.4902 -2.37324,-0.6792 -4.78025,-3.085872 -12.12887,-12.127192 -5.32362,-6.54988 -8.27451,-10.150664 -13.41711,-16.37204 -1.33673,-1.617136 -4.46406,-5.421072 -6.94963,-8.4532 -2.48556,-3.03212 -4.86795,-5.926424 -5.29417,-6.431768 -5.50991,-6.532888 -12.59066,-15.487752 -12.9764,-16.41096 -0.88189,-2.110656 -0.95756,-4.897824 -0.19144,-7.050272 z"
         id="path855"
         inkscape:connector-curvature="0" />
      <path
         inkscape:connector-curvature="0"
         id="path874"
         d="m 406.17737,-109.11845 c -0.92779,2.6066 -3.22351,4.9309 -5.64165,5.71187 -2.27043,0.73328 -3.70492,0.75176 -5.94839,0.0768 -3.14077,-0.94524 -1.52648,0.86192 -27.60659,-30.905 -5.96508,-7.2658 -8.27056,-10.0684 -13.75505,-16.72114 l -0.75752,-0.91882 -1.01317,1.14399 c -1.19741,1.35202 -2.38618,2.81037 -21.87687,26.83757 -8.22076,10.13418 -15.45618,18.85435 -16.07868,19.37816 -1.13129,0.9519 -4.20916,2.07308 -5.6911,2.07308 -0.43192,0 -1.65223,-0.25736 -2.71168,-0.572 -3.90129,-1.15856 -6.65723,-4.95856 -6.64868,-9.16751 0.006,-2.80057 0.8526,-4.69532 3.58292,-8.01586 1.15618,-1.40613 2.59831,-3.17154 3.20472,-3.92313 19.54976,-24.2296 38.95379,-48.05866 40.18816,-49.35295 2.59804,-2.7241 5.97721,-3.58311 9.79594,-2.4902 2.37325,0.6792 4.78026,3.08587 12.12888,12.12719 5.32362,6.54988 8.27451,10.15066 13.4171,16.37204 1.33673,1.61714 4.46407,5.42107 6.94964,8.45319 2.48556,3.03213 4.86794,5.92643 5.29416,6.43178 5.50991,6.53289 12.59066,15.48775 12.97641,16.41095 0.88188,2.11066 0.95755,4.89783 0.19144,7.05028 z"
         style="fill:#ffffff;stroke-width:0.36753017" />
    </g>
  </g>
</svg>
