<?xml version="1.0" encoding="UTF-8" standalone="no"?>
<svg
   xmlns:dc="http://purl.org/dc/elements/1.1/"
   xmlns:cc="http://creativecommons.org/ns#"
   xmlns:rdf="http://www.w3.org/1999/02/22-rdf-syntax-ns#"
   xmlns:svg="http://www.w3.org/2000/svg"
   xmlns="http://www.w3.org/2000/svg"
   xmlns:sodipodi="http://sodipodi.sourceforge.net/DTD/sodipodi-0.dtd"
   xmlns:inkscape="http://www.inkscape.org/namespaces/inkscape"
   viewBox="0 0 64 64"
   version="1.1"
   id="svg6"
   sodipodi:docname="favorite-genres-amarok.svg"
   width="64"
   height="64"
   inkscape:version="0.92.2 5c3e80d, 2017-08-06">
  <metadata
     id="metadata10">
    <rdf:RDF>
      <cc:Work
         rdf:about="">
        <dc:format>image/svg+xml</dc:format>
        <dc:type
           rdf:resource="http://purl.org/dc/dcmitype/StillImage" />
        <dc:title></dc:title>
      </cc:Work>
    </rdf:RDF>
  </metadata>
  <sodipodi:namedview
     pagecolor="#ffffff"
     bordercolor="#666666"
     borderopacity="1"
     objecttolerance="10"
     gridtolerance="10"
     guidetolerance="10"
     inkscape:pageopacity="0"
     inkscape:pageshadow="2"
     inkscape:window-width="1366"
     inkscape:window-height="717"
     id="namedview8"
     showgrid="false"
     inkscape:zoom="2.6074563"
     inkscape:cx="24.848915"
     inkscape:cy="24.357982"
     inkscape:window-x="0"
     inkscape:window-y="24"
     inkscape:window-maximized="1"
     inkscape:current-layer="svg6" />
  <defs
     id="defs3051">
    <style
       type="text/css"
       id="current-color-scheme">
      .ColorScheme-Text {
        color:#4d4d4d;
      }
      </style>
  </defs>
  <g
     id="g835"
     transform="matrix(0.125,0,0,0.125,-1.5829374e-7,55.999999)">
    <path
       id="path850"
       d="m 432.91324,-391.52605 c 102.19296,88.57455 105.8268,249.69976 8.1168,359.898796 C 343.32004,78.571867 181.27964,96.100587 79.086757,7.5260268 -23.106204,-81.048534 -26.740044,-242.17374 70.969957,-352.37278 168.67988,-462.57189 330.72028,-480.10061 432.91324,-391.52605 Z"
       inkscape:connector-curvature="0"
       style="fill:#3689e6;fill-opacity:1;stroke-width:11.10955906" />
    <path
       id="path852"
       d="m 511.63548,-223.09645 c -1.55136,61.3116 -25.1612,124.154556 -70.9664,175.814396 C 342.95908,62.917067 180.91868,80.445787 78.725717,-8.1287733 30.827157,-49.644374 4.4968361,-107.07717 0.19379608,-167.77117 0.79939608,-101.41453 27.117397,-37.517814 79.078677,7.5189868 181.27156,96.093627 343.31972,78.556187 441.02204,-31.634214 490.72692,-87.692374 514.027,-156.92525 511.63548,-223.09645 Z"
       inkscape:connector-curvature="0"
       style="opacity:1;fill:#000000;fill-opacity:0.49019608;stroke-width:11.10955906" />
    <path
       style="color:#4d4d4d;fill:#000000;fill-opacity:0.49019608;stroke:none;stroke-width:26"
       d="m 282.00005,-328 c -38.83178,0 -74.53812,8.55592 -100.59766,25.89844 -26.05954,17.34251 -42.43536,43.62863 -42.40234,78.55859 0.182,39.47528 25.17596,90.41071 55.35156,132.03125 15.0878,20.810138 31.48187,39.29502 46.82031,52.76172 15.33792,13.4667 29.532,22.0259 40.72657,22.75 h 0.10156 0.10156 c 11.19456,-0.7254 25.38864,-9.2833 40.72656,-22.75 15.33817,-13.4667 31.73226,-31.951582 46.82032,-52.76172 30.17586,-41.62054 55.16722,-92.55597 55.35156,-132.03125 0.0257,-34.92996 -16.3428,-61.21608 -42.40234,-78.55859 C 356.53817,-319.44408 320.83157,-328 282.00005,-328 Z m 0,52 23.8164,51.39063 53.82813,8.3789 -39.20313,39.8125 8.88672,56.41797 -48.08984,-26.8125 -48.34375,26.50781 9.54687,-56.36718 -38.79687,-40.06641 53.98047,-8.07422 z"
       class="ColorScheme-Text"
       id="path829"
       inkscape:connector-curvature="0" />
    <path
       inkscape:connector-curvature="0"
       id="path4"
       class="ColorScheme-Text"
       d="m 262.00005,-348 c -38.83178,0 -74.53812,8.55592 -100.59766,25.89844 -26.05954,17.34251 -42.43536,43.62863 -42.40234,78.55859 0.182,39.47528 25.17596,90.41071 55.35156,132.03125 15.0878,20.810138 31.48187,39.29502 46.82031,52.76172 15.33792,13.4667 29.532,22.0259 40.72657,22.75 h 0.10156 0.10156 c 11.19456,-0.7254 25.38864,-9.2833 40.72656,-22.75 15.33817,-13.4667 31.73226,-31.951582 46.82032,-52.76172 30.17586,-41.62054 55.16722,-92.55597 55.35156,-132.03125 0.0257,-34.92996 -16.3428,-61.21608 -42.40234,-78.55859 C 336.53817,-339.44408 300.83157,-348 262.00005,-348 Z m 0,52 23.8164,51.39063 53.82813,8.3789 -39.20313,39.8125 8.88672,56.41797 -48.08984,-26.8125 -48.34375,26.50781 9.54687,-56.36718 -38.79687,-40.06641 53.98047,-8.07422 z"
       style="color:#4d4d4d;fill:#ffffff;fill-opacity:1;stroke:none;stroke-width:26" />
  </g>
</svg>
