<?xml version="1.0" encoding="UTF-8" standalone="no"?>
<svg
   xmlns:dc="http://purl.org/dc/elements/1.1/"
   xmlns:cc="http://creativecommons.org/ns#"
   xmlns:rdf="http://www.w3.org/1999/02/22-rdf-syntax-ns#"
   xmlns:svg="http://www.w3.org/2000/svg"
   xmlns="http://www.w3.org/2000/svg"
   xmlns:sodipodi="http://sodipodi.sourceforge.net/DTD/sodipodi-0.dtd"
   xmlns:inkscape="http://www.inkscape.org/namespaces/inkscape"
   viewBox="0 0 64 64"
   version="1.1"
   id="svg6"
   sodipodi:docname="feed-subscribe.svg"
   width="64"
   height="64"
   inkscape:version="0.92.2 5c3e80d, 2017-08-06">
  <metadata
     id="metadata10">
    <rdf:RDF>
      <cc:Work
         rdf:about="">
        <dc:format>image/svg+xml</dc:format>
        <dc:type
           rdf:resource="http://purl.org/dc/dcmitype/StillImage" />
        <dc:title></dc:title>
      </cc:Work>
    </rdf:RDF>
  </metadata>
  <sodipodi:namedview
     pagecolor="#ffffff"
     bordercolor="#666666"
     borderopacity="1"
     objecttolerance="10"
     gridtolerance="10"
     guidetolerance="10"
     inkscape:pageopacity="0"
     inkscape:pageshadow="2"
     inkscape:window-width="1366"
     inkscape:window-height="717"
     id="namedview8"
     showgrid="false"
     inkscape:zoom="1.7383042"
     inkscape:cx="77.510192"
     inkscape:cy="41.765589"
     inkscape:window-x="0"
     inkscape:window-y="24"
     inkscape:window-maximized="1"
     inkscape:current-layer="svg6" />
  <defs
     id="defs3051">
    <style
       type="text/css"
       id="current-color-scheme">
      .ColorScheme-Text {
        color:#4d4d4d;
      }
      </style>
  </defs>
  <g
     id="g841"
     transform="matrix(0.125,0,0,0.125,2.4478232e-8,56)">
    <path
       id="path850"
       d="m 432.91327,-391.52606 c 102.19291,88.57458 105.82678,249.69973 8.1168,359.898827 C 343.32006,78.571841 181.27962,96.100609 79.086739,7.526016 -23.106202,-81.048569 -26.740034,-242.17373 70.96994,-352.3728 c 97.70994,-110.19909 259.75038,-127.72785 361.94333,-39.15326 z"
       inkscape:connector-curvature="0"
       style="fill:#3689e6;fill-opacity:1;stroke-width:11.10955906" />
    <path
       id="path852"
       d="m 511.63551,-223.09649 c -1.55139,61.31161 -25.16123,124.154569 -70.96638,175.814441 C 342.95912,62.917073 180.91867,80.445801 78.725759,-8.1287442 30.827126,-49.644361 4.4968174,-107.0772 0.19382211,-167.77119 0.79910212,-101.41456 27.117406,-37.517825 79.078689,7.519016 181.27156,96.093609 343.31972,78.556153 441.02202,-31.634233 490.72697,-87.692377 514.02704,-156.92524 511.63551,-223.09649 Z"
       inkscape:connector-curvature="0"
       style="opacity:1;fill:#000000;fill-opacity:0.49019608;stroke-width:11.10955906" />
    <path
       style="fill:#000000;fill-opacity:0.49019608;stroke-width:0.4989084"
       d="m 285.13552,-16.431594 c -5.51613,-1.10721 -13.33312,-5.80933 -14.99266,-9.01851 -0.4117,-0.79622 -0.92523,-1.44756 -1.14116,-1.44756 -0.39994,0 -2.14424,-3.69522 -3.37564,-7.15116 -0.38927,-1.09256 -0.89152,-5.9061 -1.17125,-11.22542 -0.72967,-13.87481 -2.79524,-24.40872 -7.10892,-36.253826 -9.41911,-25.86447 -26.71509,-46.94898 -50.87873,-62.02346 -1.45952,-0.91058 -5.57229,-3.0829 -9.13949,-4.82753 -16.37967,-8.01082 -30.7847,-11.49954 -51.46766,-12.46483 -10.77218,-0.50274 -16.76119,-3.65981 -22.11684,-11.65876 -4.99,-7.45284 -4.99113,-19.08288 -0.002,-26.61419 3.23,-4.87642 7.99525,-8.49655 14.05272,-10.67577 2.57624,-0.92682 16.73711,-1.03004 24.06912,-0.17545 29.30741,3.41599 53.58569,12.18596 77.37356,27.94943 9.29211,6.15757 16.35685,12.01935 25.47295,21.13546 9.11853,9.11851 14.98289,16.18677 21.1342,25.47292 15.18587,22.92485 23.45748,45.04963 27.51201,73.589006 0.77869,5.48099 1.37304,20.19287 0.96823,23.96682 -1.47063,13.71075 -15.67376,24.13541 -29.18784,21.42283 z m 117.49299,0.0601 c -6.13772,-1.40309 -10.1049,-3.64915 -14.02891,-7.94273 -5.22442,-5.71629 -6.2123,-9.29522 -6.91028,-25.03477 -1.31472,-29.64825 -6.73881,-55.086126 -17.23379,-80.823176 -19.59892,-48.06231 -55.00511,-88.93228 -100.02468,-115.45977 -7.04571,-4.15163 -23.88295,-12.46323 -30.847,-15.22742 -26.43645,-10.49326 -50.85495,-15.65666 -80.40958,-17.00296 -15.78229,-0.71894 -19.14508,-1.6487 -25.00848,-6.91444 -5.54382,-4.97876 -8.02759,-10.50165 -8.10276,-18.01722 -0.1113,-11.12548 6.03877,-19.94436 16.63975,-23.8606 2.48482,-0.91795 4.60181,-1.25804 8.98787,-1.44388 6.13131,-0.2598 23.52279,0.81136 34.17522,2.10487 23.1079,2.80597 49.21041,9.44158 70.09663,17.81951 6.43385,2.58076 7.41356,2.99678 14.29752,6.07125 8.49214,3.79272 24.44025,12.3803 31.92183,17.18897 1.13626,0.7303 3.15684,1.99608 4.49018,2.81281 4.13425,2.53245 16.1089,11.17667 22.28025,16.08356 20.90731,16.62365 39.72528,36.35157 55.26055,57.93272 4.5462,6.31545 5.60618,7.90762 11.68054,17.54517 4.81157,7.63398 14.24154,25.67698 18.12195,34.67413 13.95591,32.35796 21.321,63.7227 23.59068,100.462576 0.9847,15.93968 0.25959,21.36236 -3.73298,27.91674 -2.89138,4.7466 -7.17615,8.05187 -13.08731,10.0953 -3.23477,1.11832 -9.44709,1.63942 -12.1572,1.01984 z m -242.71898,-7.5462 c -16.41407,-1.7691 -30.38657,-16.00833 -32.17799,-32.79211 -1.2871,-12.05886 2.74564,-22.96184 11.60605,-31.378356 6.75194,-6.4137 14.39347,-9.63218 23.82744,-10.03562 4.77571,-0.20433 6.46649,-0.0658 9.97817,0.81494 14.24037,3.57303 24.39647,13.7305 27.9872,27.990826 1.46831,5.83145 1.15217,13.91838 -0.77089,19.71954 -4.63001,13.96693 -17.12651,24.19078 -31.40756,25.69564 -2.50372,0.26389 -4.77674,0.45314 -5.05114,0.42069 -0.2744,-0.0329 -2.07048,-0.2285 -3.99128,-0.43555 z"
       id="path835"
       inkscape:connector-curvature="0" />
    <path
       inkscape:connector-curvature="0"
       id="path842"
       d="m 265.13552,-36.431594 c -5.51613,-1.10721 -13.33312,-5.80933 -14.99266,-9.01851 -0.4117,-0.79622 -0.92523,-1.44756 -1.14116,-1.44756 -0.39994,0 -2.14424,-3.69522 -3.37564,-7.15116 -0.38927,-1.09256 -0.89152,-5.9061 -1.17125,-11.22542 -0.72967,-13.87481 -2.79524,-24.40872 -7.10892,-36.253826 -9.41911,-25.86447 -26.71509,-46.94898 -50.87873,-62.02346 -1.45952,-0.91058 -5.57229,-3.0829 -9.13949,-4.82753 -16.37967,-8.01082 -30.7847,-11.49954 -51.46766,-12.46483 -10.77218,-0.50274 -16.76119,-3.65981 -22.11684,-11.65876 -4.989996,-7.45284 -4.991126,-19.08288 -0.002,-26.61419 3.23,-4.87642 7.99525,-8.49655 14.05272,-10.67577 2.57624,-0.92682 16.73711,-1.03004 24.06912,-0.17545 29.30741,3.41599 53.58569,12.18596 77.37356,27.94943 9.29211,6.15757 16.35685,12.01935 25.47295,21.13546 9.11853,9.11851 14.98289,16.18677 21.1342,25.47292 15.18587,22.92485 23.45748,45.04963 27.51201,73.589006 0.77869,5.48099 1.37304,20.19287 0.96823,23.96682 -1.47063,13.71075 -15.67376,24.13541 -29.18784,21.42283 z m 117.49299,0.0601 c -6.13772,-1.40309 -10.1049,-3.64915 -14.02891,-7.94273 -5.22442,-5.71629 -6.2123,-9.29522 -6.91028,-25.03477 -1.31472,-29.64825 -6.73881,-55.086126 -17.23379,-80.823176 -19.59892,-48.06231 -55.00511,-88.93228 -100.02468,-115.45977 -7.04571,-4.15163 -23.88295,-12.46323 -30.847,-15.22742 -26.43645,-10.49326 -50.85495,-15.65666 -80.40958,-17.00296 -15.78229,-0.71894 -19.14508,-1.6487 -25.00848,-6.91444 -5.54382,-4.97876 -8.02759,-10.50165 -8.10276,-18.01722 -0.111296,-11.12548 6.03877,-19.94436 16.63975,-23.8606 2.48482,-0.91795 4.60181,-1.25804 8.98787,-1.44388 6.13131,-0.2598 23.52279,0.81136 34.17522,2.10487 23.1079,2.80597 49.21041,9.44158 70.09663,17.81951 6.43385,2.58076 7.41356,2.99678 14.29752,6.07125 8.49214,3.79272 24.44025,12.3803 31.92183,17.18897 1.13626,0.7303 3.15684,1.99608 4.49018,2.81281 4.13425,2.53245 16.1089,11.17667 22.28025,16.08356 20.90731,16.62365 39.72528,36.35157 55.26055,57.93272 4.5462,6.31545 5.60618,7.90762 11.68054,17.54517 4.81157,7.63398 14.24154,25.67698 18.12195,34.67413 13.95591,32.35796 21.321,63.7227 23.59068,100.462576 0.9847,15.93968 0.25959,21.36236 -3.73298,27.91674 -2.89138,4.7466 -7.17615,8.05187 -13.08731,10.0953 -3.23477,1.11832 -9.44709,1.63942 -12.1572,1.01984 z m -242.71898,-7.5462 c -16.41407,-1.7691 -30.38657,-16.00833 -32.17799,-32.79211 -1.2871,-12.05886 2.74564,-22.96184 11.60605,-31.378356 6.75194,-6.4137 14.39347,-9.63218 23.82744,-10.03562 4.77571,-0.20433 6.46649,-0.0658 9.97817,0.81494 14.24037,3.57303 24.39647,13.7305 27.9872,27.990826 1.46831,5.83145 1.15217,13.91838 -0.77089,19.71954 -4.63001,13.96693 -17.12651,24.19078 -31.40756,25.69564 -2.50372,0.26389 -4.77674,0.45314 -5.05114,0.42069 -0.2744,-0.0329 -2.07048,-0.2285 -3.99128,-0.43555 z"
       style="fill:#ffffff;stroke-width:0.4989084" />
  </g>
</svg>
