<?xml version="1.0" encoding="UTF-8" standalone="no"?>
<svg
   xmlns:dc="http://purl.org/dc/elements/1.1/"
   xmlns:cc="http://creativecommons.org/ns#"
   xmlns:rdf="http://www.w3.org/1999/02/22-rdf-syntax-ns#"
   xmlns:svg="http://www.w3.org/2000/svg"
   xmlns="http://www.w3.org/2000/svg"
   xmlns:sodipodi="http://sodipodi.sourceforge.net/DTD/sodipodi-0.dtd"
   xmlns:inkscape="http://www.inkscape.org/namespaces/inkscape"
   viewBox="0 0 64 64"
   version="1.1"
   id="svg6"
   sodipodi:docname="edit-find.svg"
   width="64"
   height="64"
   inkscape:version="0.92.2 5c3e80d, 2017-08-06">
  <metadata
     id="metadata10">
    <rdf:RDF>
      <cc:Work
         rdf:about="">
        <dc:format>image/svg+xml</dc:format>
        <dc:type
           rdf:resource="http://purl.org/dc/dcmitype/StillImage" />
        <dc:title></dc:title>
      </cc:Work>
    </rdf:RDF>
  </metadata>
  <sodipodi:namedview
     pagecolor="#ffffff"
     bordercolor="#666666"
     borderopacity="1"
     objecttolerance="10"
     gridtolerance="10"
     guidetolerance="10"
     inkscape:pageopacity="0"
     inkscape:pageshadow="2"
     inkscape:window-width="1366"
     inkscape:window-height="717"
     id="namedview8"
     showgrid="false"
     inkscape:zoom="2.4583333"
     inkscape:cx="-4.9570624"
     inkscape:cy="46.98578"
     inkscape:window-x="0"
     inkscape:window-y="24"
     inkscape:window-maximized="1"
     inkscape:current-layer="svg6" />
  <defs
     id="defs3051">
    <style
       type="text/css"
       id="current-color-scheme">
      .ColorScheme-Text {
        color:#4d4d4d;
      }
      </style>
  </defs>
  <g
     id="g856"
     transform="matrix(0.125,0,0,0.125,1.6302617e-7,55.999999)">
    <path
       style="fill:#3689e6;fill-opacity:1;stroke-width:11.10955906"
       inkscape:connector-curvature="0"
       d="m 432.91329,-391.52606 c 102.1929,88.57459 105.82674,249.69974 8.1168,359.89882 C 343.32008,78.571841 181.27963,96.100609 79.08674,7.5260161 -23.106204,-81.048561 -26.740032,-242.17372 70.96994,-352.3728 c 97.70995,-110.19907 259.75038,-127.72785 361.94335,-39.15326 z"
       id="path27-5" />
    <path
       style="opacity:1;fill:#000000;fill-opacity:0.49019608;stroke-width:11.10955906"
       inkscape:connector-curvature="0"
       d="M 511.63553,-223.09648 C 510.08411,-161.78487 486.4743,-98.941913 440.66915,-47.282041 342.95912,62.917073 180.91868,80.445801 78.725758,-8.1287521 30.827126,-49.644361 4.4968185,-107.07719 0.19382632,-167.77119 0.79907985,-101.41455 27.117406,-37.517816 79.078686,7.5190241 181.27157,96.093617 343.31974,78.556153 441.02203,-31.634232 c 49.70496,-56.058145 73.00502,-125.290998 70.6135,-191.462248 z"
       id="path51-6" />
    <path
       style="fill:#000000;fill-opacity:0.49019608;stroke-width:0.74617493"
       d="m 141.47678,-16.46232 c -7.77761,-1.652474 -15.89299,-8.315514 -19.35501,-15.891284 -1.80101,-3.94107 -2.12177,-5.60176 -2.12177,-10.98549 0,-5.38193 0.32717,-7.07694 2.16037,-11.19262 2.00831,-4.50869 5.0865,-7.79149 43.72974,-46.635926 l 41.56934,-41.78579 -1.44679,-2.23853 c -5.19754,-8.04168 -11.07362,-22.87035 -13.74704,-34.69142 -6.18904,-27.36607 -2.95653,-54.91663 9.41218,-80.21948 14.36013,-29.37678 39.42267,-51.4089 70.0393,-61.57058 26.10684,-8.66488 50.85214,-8.73455 77.26425,-0.21753 17.26158,5.5663 33.98249,15.91576 47.41349,29.34675 36.57132,36.57133 45.97338,91.87864 23.52723,138.39815 -24.6338,51.05345 -80.93226,78.225776 -136.18808,65.73086 -11.82036,-2.67296 -26.64933,-8.54908 -34.69144,-13.74686 l -2.23852,-1.44676 -41.7858,41.569326 c -38.35963,38.16095 -42.165,41.73514 -46.41065,43.59049 -5.11662,2.236067 -12.12921,3.04932 -17.1308,1.986694 z m 184.10375,-104.93995 c 30.96641,-5.31484 57.03704,-27.66749 67.18818,-57.60643 5.92042,-17.46119 5.93629,-37.99121 0.0428,-55.35114 -9.36504,-27.58567 -32.23476,-49.0088 -60.19737,-56.38966 -9.86546,-2.60403 -26.4896,-3.30963 -36.57416,-1.55237 -17.89446,3.11819 -33.71703,11.36199 -46.67177,24.31673 -16.58577,16.58577 -25.32251,37.71257 -25.32251,61.23378 0,42.07424 29.92186,77.87936 71.33214,85.35745 8.07719,1.45862 21.67734,1.4549 30.2027,-0.008 z m 33.65462,-82.5286 c -4.97437,-1.06618 -8.30103,-4.88708 -10.76423,-12.36348 -4.73436,-14.36984 -15.42707,-24.70702 -29.79793,-28.80716 -7.42939,-2.11967 -11.2689,-6.72243 -11.2689,-13.50901 0,-4.48947 1.4331,-7.53205 5.0389,-10.69799 3.33272,-2.92617 5.18093,-3.39163 11.63402,-2.92991 13.2031,0.94468 32.56408,15.22279 43.56134,32.12512 5.73628,8.81645 8.04087,14.67537 8.42671,21.42314 0.29336,5.13054 0.14958,5.85452 -1.72743,8.69881 -3.40034,5.1526 -8.94924,7.37932 -15.10248,6.06048 z"
       id="path850"
       inkscape:connector-curvature="0" />
    <path
       inkscape:connector-curvature="0"
       id="path851"
       d="m 121.47678,-36.46232 c -7.77761,-1.652474 -15.89299,-8.315514 -19.35501,-15.891284 -1.80101,-3.94107 -2.12177,-5.60176 -2.12177,-10.98549 0,-5.38193 0.32717,-7.07694 2.16037,-11.19262 2.00831,-4.50869 5.0865,-7.79149 43.72974,-46.635926 l 41.56934,-41.78579 -1.44679,-2.23853 c -5.19754,-8.04168 -11.07362,-22.87035 -13.74704,-34.69142 -6.18904,-27.36607 -2.95653,-54.91663 9.41218,-80.21948 14.36013,-29.37678 39.42267,-51.4089 70.0393,-61.57058 26.10684,-8.66488 50.85214,-8.73455 77.26425,-0.21753 17.26158,5.5663 33.98249,15.91576 47.41349,29.34675 36.57132,36.57133 45.97338,91.87864 23.52723,138.39815 -24.6338,51.05345 -80.93226,78.225776 -136.18808,65.73086 -11.82036,-2.67296 -26.64933,-8.54908 -34.69144,-13.74686 l -2.23852,-1.44676 -41.7858,41.569326 c -38.35963,38.16095 -42.165,41.73514 -46.41065,43.59049 -5.11662,2.236067 -12.12921,3.04932 -17.1308,1.986694 z m 184.10375,-104.93995 c 30.96641,-5.31484 57.03704,-27.66749 67.18818,-57.60643 5.92042,-17.46119 5.93629,-37.99121 0.0428,-55.35114 -9.36504,-27.58567 -32.23476,-49.0088 -60.19737,-56.38966 -9.86546,-2.60403 -26.4896,-3.30963 -36.57416,-1.55237 -17.89446,3.11819 -33.71703,11.36199 -46.67177,24.31673 -16.58577,16.58577 -25.32251,37.71257 -25.32251,61.23378 0,42.07424 29.92186,77.87936 71.33214,85.35745 8.07719,1.45862 21.67734,1.4549 30.2027,-0.008 z m 33.65462,-82.5286 c -4.97437,-1.06618 -8.30103,-4.88708 -10.76423,-12.36348 -4.73436,-14.36984 -15.42707,-24.70702 -29.79793,-28.80716 -7.42939,-2.11967 -11.2689,-6.72243 -11.2689,-13.50901 0,-4.48947 1.4331,-7.53205 5.0389,-10.69799 3.33272,-2.92617 5.18093,-3.39163 11.63402,-2.92991 13.2031,0.94468 32.56408,15.22279 43.56134,32.12512 5.73628,8.81645 8.04087,14.67537 8.42671,21.42314 0.29336,5.13054 0.14958,5.85452 -1.72743,8.69881 -3.40034,5.1526 -8.94924,7.37932 -15.10248,6.06048 z"
       style="fill:#ffffff;stroke-width:0.74617493" />
  </g>
</svg>
