<?xml version="1.0" encoding="UTF-8" standalone="no"?>
<svg
   xmlns:dc="http://purl.org/dc/elements/1.1/"
   xmlns:cc="http://creativecommons.org/ns#"
   xmlns:rdf="http://www.w3.org/1999/02/22-rdf-syntax-ns#"
   xmlns:svg="http://www.w3.org/2000/svg"
   xmlns="http://www.w3.org/2000/svg"
   xmlns:sodipodi="http://sodipodi.sourceforge.net/DTD/sodipodi-0.dtd"
   xmlns:inkscape="http://www.inkscape.org/namespaces/inkscape"
   viewBox="0 0 64 64"
   version="1.1"
   id="svg6"
   sodipodi:docname="filename-filetype-amarok.svg"
   width="64"
   height="64"
   inkscape:version="0.92.2 5c3e80d, 2017-08-06">
  <metadata
     id="metadata10">
    <rdf:RDF>
      <cc:Work
         rdf:about="">
        <dc:format>image/svg+xml</dc:format>
        <dc:type
           rdf:resource="http://purl.org/dc/dcmitype/StillImage" />
        <dc:title></dc:title>
      </cc:Work>
    </rdf:RDF>
  </metadata>
  <sodipodi:namedview
     pagecolor="#ffffff"
     bordercolor="#666666"
     borderopacity="1"
     objecttolerance="10"
     gridtolerance="10"
     guidetolerance="10"
     inkscape:pageopacity="0"
     inkscape:pageshadow="2"
     inkscape:window-width="1366"
     inkscape:window-height="717"
     id="namedview8"
     showgrid="false"
     inkscape:zoom="0.65186407"
     inkscape:cx="298.52407"
     inkscape:cy="158.15633"
     inkscape:window-x="0"
     inkscape:window-y="24"
     inkscape:window-maximized="1"
     inkscape:current-layer="svg6" />
  <defs
     id="defs3051">
    <style
       type="text/css"
       id="current-color-scheme">
      .ColorScheme-Text {
        color:#4d4d4d;
      }
      </style>
  </defs>
  <g
     id="g841"
     transform="matrix(0.125,0,0,0.125,-1.7756208e-8,56)">
    <path
       id="path850"
       d="m 432.91327,-391.52607 c 102.19291,88.57458 105.82678,249.69974 8.1168,359.898837 C 343.32006,78.571841 181.27962,96.100609 79.086739,7.526016 -23.106206,-81.04857 -26.74003,-242.17373 70.969939,-352.37281 168.67988,-462.57189 330.72032,-480.10066 432.91327,-391.52607 Z"
       inkscape:connector-curvature="0"
       style="fill:#3689e6;fill-opacity:1;stroke-width:11.10955906" />
    <path
       id="path852"
       d="m 511.63551,-223.09649 c -1.55139,61.31161 -25.16123,124.15457 -70.96639,175.81444 C 342.95911,62.917072 180.91868,80.445801 78.725755,-8.128745 30.827121,-49.644362 4.4968187,-107.0772 0.1938266,-167.77119 0.79910662,-101.41456 27.117401,-37.517826 79.078691,7.519016 181.27156,96.093609 343.31971,78.556153 441.02202,-31.634233 490.72697,-87.69238 514.02704,-156.92524 511.63551,-223.09649 Z"
       inkscape:connector-curvature="0"
       style="opacity:1;fill:#000000;fill-opacity:0.49019608;stroke-width:11.10955906" />
    <path
       style="fill:#000000;fill-opacity:0.49019608;stroke-width:0.20057875"
       d="m 177.92718,-16.04954 c -18.38988,-1.197603 -32.94169,-9.419103 -39.36505,-22.240603 -5.25325,-10.4859 -4.67273,-23.4371 1.58675,-35.400315 5.15688,-9.855792 13.91948,-18.717302 24.84795,-25.128292 11.20823,-6.57521 23.73396,-10.1244 37.10008,-10.5125 8.21825,-0.2385 16.15865,1.0791 20.90533,3.469 0.74191,0.3735 1.39629,0.679 1.45421,0.679 0.0579,0 0.10528,-32.5498 0.10528,-72.333 0,-64.2197 0.0348,-72.5721 0.3103,-74.46491 0.93895,-6.4509 3.67911,-12.8146 7.98755,-18.55019 1.61423,-2.1488 5.60721,-6.24521 7.74771,-7.9481 3.02403,-2.40591 7.02796,-4.758 10.2906,-6.0453 0.57356,-0.2263 9.88837,-3.1187 20.69956,-6.4273 80.04839,-24.49861 117.47449,-35.927 118.74702,-36.26025 2.63095,-0.68916 4.55735,-0.87132 7.98572,-0.75521 3.53892,0.11985 5.17668,0.44365 7.82881,1.54776 6.52386,2.7159 10.95339,8.4718 12.25245,15.92129 0.27756,1.59161 0.31038,12.6668 0.30931,104.40031 -0.002,108.3965 0.0336,103.8248 -0.8201,107.63439 -4.11112,18.34581 -20.50502,34.628417 -42.1849,41.898217 -17.63096,5.9122 -37.40069,5.0711 -51.66698,-2.1982 -4.43957,-2.2621 -8.06159,-4.9378 -11.43605,-8.4482 -4.25337,-4.424605 -6.99013,-9.222905 -8.52009,-14.938307 -1.5226,-5.688 -1.52042,-12.7744 0.006,-18.83641 3.05308,-12.12649 11.74361,-23.69139 23.94529,-31.86519 10.24015,-6.8596 21.39893,-10.8932 34.21527,-12.3675 3.65453,-0.4205 11.9896,-0.4836 15.24398,-0.1157 6.07818,0.6875 11.9358,2.15469 15.99616,4.0067 l 1.3539,0.6175 -0.002,-49.2796 c 0,-32.505 -0.0711,-49.7234 -0.20607,-50.58341 -0.43553,-2.7752 -2.04477,-4.9269 -4.3762,-5.85129 -0.98206,-0.3895 -1.49272,-0.44781 -3.84049,-0.43931 -2.3544,0.0113 -2.94342,0.082 -4.51303,0.5562 -1.60813,0.48651 -26.77883,8.36731 -60.27391,18.8713 -6.45362,2.02381 -21.43686,6.716 -33.29607,10.42731 -11.85921,3.71109 -22.82586,7.1536 -24.37031,7.64979 -4.27635,1.37411 -7.7903,3.42151 -10.60825,6.1808 -2.16477,2.11981 -3.45236,4.13661 -4.36242,6.8328 l -0.4739,1.40411 -0.10142,64.3858 -0.10143,64.385807 -0.46986,2.5072 c -2.20602,11.7717 -8.38843,22.1902 -18.18156,30.6393 -10.57956,9.12771 -24.1451,14.869195 -39.21315,16.596994 -2.66122,0.305102 -10.17339,0.531308 -12.53616,0.377509 z"
       id="path835"
       inkscape:connector-curvature="0" />
    <path
       inkscape:connector-curvature="0"
       id="path851"
       d="m 157.92718,-36.04954 c -18.38988,-1.197603 -32.94169,-9.419103 -39.36505,-22.240603 -5.25325,-10.4859 -4.67273,-23.4371 1.58675,-35.400315 5.15688,-9.855792 13.91948,-18.717302 24.84795,-25.128292 11.20823,-6.57521 23.73396,-10.1244 37.10008,-10.5125 8.21825,-0.2385 16.15865,1.0791 20.90533,3.469 0.74191,0.3735 1.39629,0.679 1.45421,0.679 0.0579,0 0.10528,-32.5498 0.10528,-72.333 0,-64.2197 0.0348,-72.5721 0.3103,-74.46491 0.93895,-6.4509 3.67911,-12.8146 7.98755,-18.55019 1.61423,-2.1488 5.60721,-6.24521 7.74771,-7.9481 3.02403,-2.40591 7.02796,-4.758 10.2906,-6.0453 0.57356,-0.2263 9.88837,-3.1187 20.69956,-6.4273 80.04839,-24.49861 117.47449,-35.927 118.74702,-36.26025 2.63095,-0.68916 4.55735,-0.87132 7.98572,-0.75521 3.53892,0.11985 5.17668,0.44365 7.82881,1.54776 6.52386,2.7159 10.95339,8.4718 12.25245,15.92129 0.27756,1.59161 0.31038,12.6668 0.30931,104.40031 -0.002,108.3965 0.0336,103.8248 -0.8201,107.63439 -4.11112,18.34581 -20.50502,34.628417 -42.1849,41.898217 -17.63096,5.9122 -37.40069,5.0711 -51.66698,-2.1982 -4.43957,-2.2621 -8.06159,-4.9378 -11.43605,-8.4482 -4.25337,-4.424605 -6.99013,-9.222905 -8.52009,-14.938307 -1.5226,-5.688 -1.52042,-12.7744 0.006,-18.83641 3.05308,-12.12649 11.74361,-23.69139 23.94529,-31.86519 10.24015,-6.8596 21.39893,-10.8932 34.21527,-12.3675 3.65453,-0.4205 11.9896,-0.4836 15.24398,-0.1157 6.07818,0.6875 11.9358,2.15469 15.99616,4.0067 l 1.3539,0.6175 -0.002,-49.2796 c 0,-32.505 -0.0711,-49.7234 -0.20607,-50.58341 -0.43553,-2.7752 -2.04477,-4.9269 -4.3762,-5.85129 -0.98206,-0.3895 -1.49272,-0.44781 -3.84049,-0.43931 -2.3544,0.0113 -2.94342,0.082 -4.51303,0.5562 -1.60813,0.48651 -26.77883,8.36731 -60.27391,18.8713 -6.45362,2.02381 -21.43686,6.716 -33.29607,10.42731 -11.85921,3.71109 -22.82586,7.1536 -24.37031,7.64979 -4.27635,1.37411 -7.7903,3.42151 -10.60825,6.1808 -2.16477,2.11981 -3.45236,4.13661 -4.36242,6.8328 l -0.4739,1.40411 -0.10142,64.3858 -0.10143,64.385807 -0.46986,2.5072 c -2.20602,11.7717 -8.38843,22.1902 -18.18156,30.6393 -10.57956,9.12771 -24.1451,14.869195 -39.21315,16.596994 -2.66122,0.305102 -10.17339,0.531308 -12.53616,0.377509 z"
       style="fill:#ffffff;stroke-width:0.20057875" />
  </g>
</svg>
