<?xml version="1.0" encoding="UTF-8" standalone="no"?>
<svg
   xmlns:dc="http://purl.org/dc/elements/1.1/"
   xmlns:cc="http://creativecommons.org/ns#"
   xmlns:rdf="http://www.w3.org/1999/02/22-rdf-syntax-ns#"
   xmlns:svg="http://www.w3.org/2000/svg"
   xmlns="http://www.w3.org/2000/svg"
   xmlns:sodipodi="http://sodipodi.sourceforge.net/DTD/sodipodi-0.dtd"
   xmlns:inkscape="http://www.inkscape.org/namespaces/inkscape"
   viewBox="0 0 64 64"
   version="1.1"
   id="svg6"
   sodipodi:docname="fill-rule-even-odd.svg"
   width="64"
   height="64"
   inkscape:version="0.92.2 5c3e80d, 2017-08-06">
  <metadata
     id="metadata10">
    <rdf:RDF>
      <cc:Work
         rdf:about="">
        <dc:format>image/svg+xml</dc:format>
        <dc:type
           rdf:resource="http://purl.org/dc/dcmitype/StillImage" />
        <dc:title></dc:title>
      </cc:Work>
    </rdf:RDF>
  </metadata>
  <sodipodi:namedview
     pagecolor="#ffffff"
     bordercolor="#666666"
     borderopacity="1"
     objecttolerance="10"
     gridtolerance="10"
     guidetolerance="10"
     inkscape:pageopacity="0"
     inkscape:pageshadow="2"
     inkscape:window-width="1366"
     inkscape:window-height="717"
     id="namedview8"
     showgrid="false"
     inkscape:zoom="2.6074563"
     inkscape:cx="36.931523"
     inkscape:cy="32.789983"
     inkscape:window-x="0"
     inkscape:window-y="24"
     inkscape:window-maximized="1"
     inkscape:current-layer="svg6" />
  <defs
     id="defs3051">
    <style
       type="text/css"
       id="current-color-scheme">
      .ColorScheme-Text {
        color:#4d4d4d;
      }
      </style>
  </defs>
  <g
     id="g844"
     transform="matrix(0.125,0,0,0.125,-1.5431493e-7,62)">
    <path
       style="fill:#3689e6;fill-opacity:1;stroke-width:11.10955811"
       inkscape:connector-curvature="0"
       d="m 432.91328,-439.52603 c 102.1929,88.57459 105.82677,249.69971 8.1168,359.898789 C 343.3201,30.571824 181.27964,48.100624 79.086728,-40.473985 -23.106184,-129.04857 -26.740044,-290.17369 70.969928,-400.37278 168.6799,-510.57185 330.72037,-528.10062 432.91328,-439.52603 Z"
       id="path27" />
    <path
       style="opacity:1;fill:#000000;fill-opacity:0.49019608;stroke-width:11.10955811"
       inkscape:connector-curvature="0"
       d="m 511.63552,-271.09648 c -1.55139,61.31165 -25.16123,124.15461 -70.96639,175.814463 C 342.95916,14.917128 180.91869,32.445824 78.725776,-56.128713 30.82712,-97.644361 4.4968242,-155.07716 0.19382415,-215.77119 c 0.60528,66.35667 26.92358385,130.253365 78.88485585,175.290253 102.19291,88.574569 264.24108,71.037161 361.94334,-39.153296 49.70495,-56.058107 73.00503,-125.290957 70.6135,-191.462247 z"
       id="path51" />
    <path
       style="color:#4d4d4d;fill:#000000;fill-opacity:0.49019608;stroke:none;stroke-width:26.00093269"
       d="m 276.4316,-64 c 162.19382,0 201.01322,-312.0112 100.1556,-312.0112 -102.13167,0 -262.86943,249.66096 -99.58357,249.66096 161.10178,0 1.40405,-249.66096 -100.3376,-249.66096 C 74.924379,-376.0112 111.37769,-64 276.4316,-64"
       class="ColorScheme-Text"
       id="path30"
       inkscape:connector-curvature="0" />
    <path
       inkscape:connector-curvature="0"
       id="path4"
       class="ColorScheme-Text"
       d="m 256.4316,-84 c 162.19382,0 201.01322,-312.0112 100.1556,-312.0112 -102.13167,0 -262.86943,249.66096 -99.58357,249.66096 161.10178,0 1.40405,-249.66096 -100.3376,-249.66096 C 54.924379,-396.0112 91.377687,-84 256.4316,-84"
       style="color:#4d4d4d;fill:#ffffff;fill-opacity:1;stroke:none;stroke-width:26.00093269" />
  </g>
</svg>
