<?xml version="1.0" encoding="UTF-8" standalone="no"?>
<svg
   xmlns:dc="http://purl.org/dc/elements/1.1/"
   xmlns:cc="http://creativecommons.org/ns#"
   xmlns:rdf="http://www.w3.org/1999/02/22-rdf-syntax-ns#"
   xmlns:svg="http://www.w3.org/2000/svg"
   xmlns="http://www.w3.org/2000/svg"
   xmlns:sodipodi="http://sodipodi.sourceforge.net/DTD/sodipodi-0.dtd"
   xmlns:inkscape="http://www.inkscape.org/namespaces/inkscape"
   viewBox="0 0 64 64"
   version="1.1"
   id="svg5"
   sodipodi:docname="dirsync.svg"
   width="64"
   height="64"
   inkscape:version="0.92.2 5c3e80d, 2017-08-06">
  <metadata
     id="metadata9">
    <rdf:RDF>
      <cc:Work
         rdf:about="">
        <dc:format>image/svg+xml</dc:format>
        <dc:type
           rdf:resource="http://purl.org/dc/dcmitype/StillImage" />
        <dc:title></dc:title>
      </cc:Work>
    </rdf:RDF>
  </metadata>
  <sodipodi:namedview
     pagecolor="#ffffff"
     bordercolor="#666666"
     borderopacity="1"
     objecttolerance="10"
     gridtolerance="10"
     guidetolerance="10"
     inkscape:pageopacity="0"
     inkscape:pageshadow="2"
     inkscape:window-width="1366"
     inkscape:window-height="717"
     id="namedview7"
     showgrid="false"
     inkscape:zoom="1.84375"
     inkscape:cx="-51.072371"
     inkscape:cy="44.970518"
     inkscape:window-x="0"
     inkscape:window-y="24"
     inkscape:window-maximized="1"
     inkscape:current-layer="svg5" />
  <defs
     id="defs3051">
    <style
       type="text/css"
       id="current-color-scheme">
      .ColorScheme-Text {
        color:#4d4d4d;
      }
      </style>
  </defs>
  <g
     id="g853"
     transform="matrix(0.12500001,0,0,0.12500001,-1.5518193e-7,55.999998)">
    <path
       id="path848"
       d="m 432.91325,-391.52603 c 102.19291,88.57459 105.82677,249.69971 8.1168,359.89879 C 343.32009,78.57182 181.27965,96.10062 79.08674,7.52602 -23.106205,-81.04857 -26.740032,-242.17369 70.96994,-352.37277 c 97.70997,-110.19908 259.75042,-127.72785 361.94331,-39.15326 z"
       inkscape:connector-curvature="0"
       style="fill:#7f6421;fill-opacity:1;stroke-width:11.10955811" />
    <path
       style="fill:#ffffff;fill-opacity:1;stroke-width:10.33090782"
       inkscape:connector-curvature="0"
       d="m 419.35612,-376.96279 c 95.03037,82.36656 98.40957,232.19868 7.54791,334.67411 C 336.04238,60.18672 185.35908,76.48692 90.32868,-5.87962 -4.7017194,-88.24615 -8.0808816,-238.0783 82.780775,-340.55373 173.64243,-443.02912 324.32573,-459.32936 419.35612,-376.96279 Z"
       id="path849" />
    <path
       inkscape:connector-curvature="0"
       id="path843"
       d="m 279.8415,-447.98219 c -75.15243,-0.5037 -152.65749,32.21064 -208.871095,95.60935 -97.709979,110.19908 -94.075759,271.32385 8.117182,359.89844 102.192903,88.57462 264.233393,71.04672 361.943373,-39.15235 32.12689,-36.23327 53.2938,-77.97283 63.60737,-120.8281 -19.61998,-35.88846 -67.74917,-120.64694 -118.00388,-184.07032 -34.89463,-44.03845 -75.97754,-83.82097 -106.79295,-111.45702 z"
       style="fill:#f9c440;fill-opacity:1;stroke:none;stroke-width:0.99999994px;stroke-linecap:butt;stroke-linejoin:miter;stroke-opacity:1" />
    <path
       id="path850"
       d="M 511.63548,-223.09648 C 510.0841,-161.78484 486.47426,-98.94187 440.66911,-47.28201 342.95915,62.91712 180.9187,80.44582 78.725757,-8.12871 30.827125,-49.64436 4.4968193,-107.07716 0.19382704,-167.77119 0.79908059,-101.41452 27.117405,-37.51782 79.07869,7.51907 181.2716,96.09362 343.31975,78.55622 441.022,-31.63423 c 49.70495,-56.05811 73.00502,-125.29096 70.61348,-191.46225 z"
       inkscape:connector-curvature="0"
       style="opacity:1;fill:#000000;fill-opacity:0.49019608;stroke-width:11.10955811" />
    <path
       style="fill:#000000;fill-opacity:0.49019608;stroke-width:0.31848446"
       d="m 268.0383,-16.14635 c -34.16704,-1.82759 -66.01514,-14.37636 -92.51979,-36.45444 -4.13221,-3.44211 -12.80982,-11.94651 -16.53236,-16.20244 -23.2902,-26.62725 -36.53027,-58.69732 -38.72254,-93.79366 -0.81678,-13.07551 0.15935,-18.64222 4.41432,-25.1857 4.2741,-6.57231 10.53996,-10.97518 18.19595,-12.78596 3.17609,-0.75112 9.78692,-0.74311 12.8549,0.016 8.92153,2.20756 16.12805,8.0679 19.94956,16.22277 2.09073,4.46157 2.54004,6.94299 2.86819,15.84049 0.44924,12.17722 1.64198,21.22614 4.13558,31.37317 12.66864,51.55118 52.32055,90.68708 100.9619,99.64792 7.75488,1.42857 12.94851,1.89077 21.33841,1.89878 8.31983,0.008 12.70612,-0.33552 20.01546,-1.56398 20.63069,-3.46941 39.85306,-12.27643 56.89575,-26.06759 4.93954,-3.99712 15.32968,-14.51354 19.38045,-19.61587 11.16728,-14.06663 18.74504,-28.51955 24.71357,-47.13582 0.53331,-1.66408 0.88349,-2.52395 0.77754,-1.9108 -0.1057,0.61259 -0.83216,3.19267 -1.61435,5.73263 -5.99175,19.4562 -15.36515,36.91056 -28.50281,53.0752 -4.4992,5.53595 -15.98278,17.04701 -21.44002,21.49151 -26.14334,21.29133 -56.50578,33.22791 -89.81264,35.30839 -4.65143,0.29068 -12.98527,0.34273 -17.35739,0.1089 z m 158.97785,-117.3092 c 0.004,-0.26265 0.12412,-0.836 0.26426,-1.27394 0.20499,-0.63982 0.25704,-0.67105 0.26425,-0.15935 0.004,0.35073 -0.11371,0.9236 -0.26425,1.27394 -0.16736,0.38997 -0.26986,0.45163 -0.26426,0.15935 z m 0.60779,-2.73366 c 0.016,-0.37156 0.0905,-0.44603 0.19218,-0.19219 0.0921,0.22982 0.0809,0.50449 -0.024,0.61019 -0.1057,0.1057 -0.18097,-0.0825 -0.16736,-0.418 z m 0.3187,-1.27395 c 0.016,-0.37155 0.0905,-0.44682 0.19219,-0.19298 0.0921,0.22982 0.0809,0.50448 -0.024,0.61019 -0.10571,0.1057 -0.18098,-0.0825 -0.16737,-0.41801 z m 0.31871,-1.27394 c 0.016,-0.37156 0.0905,-0.44683 0.19218,-0.19298 0.0921,0.22982 0.0809,0.50448 -0.024,0.61018 -0.1057,0.1057 -0.18097,-0.0825 -0.16736,-0.418 z m 0.31871,-1.59249 c 0.016,-0.37155 0.0905,-0.44683 0.19218,-0.19298 0.0921,0.22982 0.0809,0.50448 -0.024,0.61018 -0.1057,0.1057 -0.18098,-0.0825 -0.16736,-0.418 z m -30.80943,-2.83328 c -5.88341,-1.06758 -10.79813,-3.58744 -15.19267,-7.7898 -2.75032,-2.63004 -4.64437,-5.26505 -6.25512,-8.70235 -2.09073,-4.46149 -2.54004,-6.94283 -2.8682,-15.84041 -0.44923,-12.17722 -1.64189,-21.22615 -4.13549,-31.37317 -12.6708,-51.55983 -52.3232,-90.6958 -100.9619,-99.64712 -22.13061,-4.07287 -44.48039,-1.88885 -65.4486,6.39534 -36.54349,14.43786 -65.31704,46.87309 -77.07585,86.88455 -0.77194,2.6274 -1.40992,4.57631 -1.4172,4.33064 -0.024,-0.79437 2.18906,-8.46597 3.8312,-13.28348 6.28283,-18.43234 15.65118,-35.04333 28.36003,-50.28532 3.42905,-4.11243 11.92929,-12.78972 16.20508,-16.54245 33.99696,-29.83809 78.26379,-43.40455 123.09419,-37.72462 30.86164,3.91007 59.67963,16.96597 83.28373,37.73159 3.67969,3.23735 11.83713,11.44763 14.84666,14.94299 22.6624,26.32111 35.59145,58.29814 37.73215,93.32161 0.76793,12.56422 -0.27707,18.17096 -4.62869,24.83608 -6.31902,9.6785 -18.0993,14.79109 -29.36932,12.74592 z m -274.29882,-62.1375 c 0.016,-0.37156 0.0905,-0.44683 0.19219,-0.19299 0.0921,0.22982 0.0809,0.50449 -0.024,0.61019 -0.1057,0.1057 -0.18097,-0.0825 -0.16736,-0.418 z m 0.31871,-1.27387 c 0.016,-0.37155 0.0905,-0.44602 0.19218,-0.19218 0.0921,0.22982 0.0809,0.50448 -0.024,0.61019 -0.1057,0.1057 -0.18097,-0.0825 -0.16736,-0.41801 z m 0.3187,-1.27394 c 0.016,-0.37156 0.0905,-0.44603 0.19219,-0.19218 0.0921,0.22982 0.0809,0.50448 -0.024,0.61018 -0.10571,0.1057 -0.18098,-0.0825 -0.16737,-0.418 z"
       id="path845"
       inkscape:connector-curvature="0" />
    <path
       inkscape:connector-curvature="0"
       id="path844"
       d="m 248.0383,-36.14635 c -34.16704,-1.82759 -66.01514,-14.37636 -92.51979,-36.45444 -4.13221,-3.44211 -12.80982,-11.94651 -16.53236,-16.20244 -23.2902,-26.62725 -36.53027,-58.69732 -38.72254,-93.79366 -0.816781,-13.07551 0.15935,-18.64222 4.41432,-25.1857 4.2741,-6.57231 10.53996,-10.97518 18.19595,-12.78596 3.17609,-0.75112 9.78692,-0.74311 12.8549,0.016 8.92153,2.20756 16.12805,8.0679 19.94956,16.22277 2.09073,4.46157 2.54004,6.94299 2.86819,15.84049 0.44924,12.17722 1.64198,21.22614 4.13558,31.37317 12.66864,51.55118 52.32055,90.68708 100.9619,99.64792 7.75488,1.42857 12.94851,1.89077 21.33841,1.89878 8.31983,0.008 12.70612,-0.33552 20.01546,-1.56398 20.63069,-3.46941 39.85306,-12.27643 56.89575,-26.06759 4.93954,-3.99712 15.32968,-14.51354 19.38045,-19.61587 11.16728,-14.06663 18.74504,-28.51955 24.71357,-47.13582 0.53331,-1.66408 0.88349,-2.52395 0.77754,-1.9108 -0.1057,0.61259 -0.83216,3.19267 -1.61435,5.73263 -5.99175,19.4562 -15.36515,36.91056 -28.50281,53.0752 -4.4992,5.53595 -15.98278,17.04701 -21.44002,21.49151 -26.14334,21.29133 -56.50578,33.22791 -89.81264,35.30839 -4.65143,0.29068 -12.98527,0.34273 -17.35739,0.1089 z m 158.97785,-117.3092 c 0.004,-0.26265 0.12412,-0.836 0.26426,-1.27394 0.20499,-0.63982 0.25704,-0.67105 0.26425,-0.15935 0.004,0.35073 -0.11371,0.9236 -0.26425,1.27394 -0.16736,0.38997 -0.26986,0.45163 -0.26426,0.15935 z m 0.60779,-2.73366 c 0.016,-0.37156 0.0905,-0.44603 0.19218,-0.19219 0.0921,0.22982 0.0809,0.50449 -0.024,0.61019 -0.1057,0.1057 -0.18097,-0.0825 -0.16736,-0.418 z m 0.3187,-1.27395 c 0.016,-0.37155 0.0905,-0.44682 0.19219,-0.19298 0.0921,0.22982 0.0809,0.50448 -0.024,0.61019 -0.10571,0.1057 -0.18098,-0.0825 -0.16737,-0.41801 z m 0.31871,-1.27394 c 0.016,-0.37156 0.0905,-0.44683 0.19218,-0.19298 0.0921,0.22982 0.0809,0.50448 -0.024,0.61018 -0.1057,0.1057 -0.18097,-0.0825 -0.16736,-0.418 z m 0.31871,-1.59249 c 0.016,-0.37155 0.0905,-0.44683 0.19218,-0.19298 0.0921,0.22982 0.0809,0.50448 -0.024,0.61018 -0.1057,0.1057 -0.18098,-0.0825 -0.16736,-0.418 z m -30.80943,-2.83328 c -5.88341,-1.06758 -10.79813,-3.58744 -15.19267,-7.7898 -2.75032,-2.63004 -4.64437,-5.26505 -6.25512,-8.70235 -2.09073,-4.46149 -2.54004,-6.94283 -2.8682,-15.84041 -0.44923,-12.17722 -1.64189,-21.22615 -4.13549,-31.37317 -12.6708,-51.55983 -52.3232,-90.6958 -100.9619,-99.64712 -22.13061,-4.07287 -44.48039,-1.88885 -65.4486,6.39534 -36.54349,14.43786 -65.31704,46.87309 -77.07585,86.88455 -0.77194,2.6274 -1.40992,4.57631 -1.4172,4.33064 -0.024,-0.79437 2.18906,-8.46597 3.8312,-13.28348 6.28283,-18.43234 15.65118,-35.04333 28.36003,-50.28532 3.42905,-4.11243 11.92929,-12.78972 16.20508,-16.54245 33.99696,-29.83809 78.26379,-43.40455 123.09419,-37.72462 30.86164,3.91007 59.67963,16.96597 83.28373,37.73159 3.67969,3.23735 11.83713,11.44763 14.84666,14.94299 22.6624,26.32111 35.59145,58.29814 37.73215,93.32161 0.76793,12.56422 -0.27707,18.17096 -4.62869,24.83608 -6.31902,9.6785 -18.0993,14.79109 -29.36932,12.74592 z m -274.29882,-62.1375 c 0.016,-0.37156 0.0905,-0.44683 0.19219,-0.19299 0.0921,0.22982 0.0809,0.50449 -0.024,0.61019 -0.1057,0.1057 -0.18097,-0.0825 -0.16736,-0.418 z m 0.31871,-1.27387 c 0.016,-0.37155 0.0905,-0.44602 0.19218,-0.19218 0.0921,0.22982 0.0809,0.50448 -0.024,0.61019 -0.1057,0.1057 -0.18097,-0.0825 -0.16736,-0.41801 z m 0.3187,-1.27394 c 0.016,-0.37156 0.0905,-0.44603 0.19219,-0.19218 0.0921,0.22982 0.0809,0.50448 -0.024,0.61018 -0.10571,0.1057 -0.18098,-0.0825 -0.16737,-0.418 z"
       style="fill:#ffffff;fill-opacity:0.99537036;stroke-width:0.31848446" />
  </g>
</svg>
