<?xml version="1.0" encoding="UTF-8" standalone="no"?>
<svg
   xmlns:dc="http://purl.org/dc/elements/1.1/"
   xmlns:cc="http://creativecommons.org/ns#"
   xmlns:rdf="http://www.w3.org/1999/02/22-rdf-syntax-ns#"
   xmlns:svg="http://www.w3.org/2000/svg"
   xmlns="http://www.w3.org/2000/svg"
   xmlns:sodipodi="http://sodipodi.sourceforge.net/DTD/sodipodi-0.dtd"
   xmlns:inkscape="http://www.inkscape.org/namespaces/inkscape"
   viewBox="0 0 64 64"
   version="1.1"
   id="svg6"
   sodipodi:docname="dialog-xml-editor.svg"
   width="64"
   height="64"
   inkscape:version="0.92.2 5c3e80d, 2017-08-06">
  <metadata
     id="metadata10">
    <rdf:RDF>
      <cc:Work
         rdf:about="">
        <dc:format>image/svg+xml</dc:format>
        <dc:type
           rdf:resource="http://purl.org/dc/dcmitype/StillImage" />
        <dc:title></dc:title>
      </cc:Work>
    </rdf:RDF>
  </metadata>
  <sodipodi:namedview
     pagecolor="#ffffff"
     bordercolor="#666666"
     borderopacity="1"
     objecttolerance="10"
     gridtolerance="10"
     guidetolerance="10"
     inkscape:pageopacity="0"
     inkscape:pageshadow="2"
     inkscape:window-width="1366"
     inkscape:window-height="717"
     id="namedview8"
     showgrid="false"
     inkscape:zoom="2.4583333"
     inkscape:cx="52.162432"
     inkscape:cy="17.412002"
     inkscape:window-x="0"
     inkscape:window-y="24"
     inkscape:window-maximized="1"
     inkscape:current-layer="svg6" />
  <defs
     id="defs3051">
    <style
       type="text/css"
       id="current-color-scheme">
      .ColorScheme-Text {
        color:#4d4d4d;
      }
      </style>
  </defs>
  <g
     id="g853"
     transform="matrix(0.125,0,0,0.125,-1.576692e-8,56)">
    <path
       style="fill:#3689e6;fill-opacity:1;stroke-width:11.10955811"
       inkscape:connector-curvature="0"
       d="m 432.91327,-391.52604 c 102.19291,88.57459 105.82678,249.69971 8.1168,359.898792 C 343.3201,78.571824 181.27964,96.100624 79.086729,7.5260162 -23.106186,-81.048576 -26.740042,-242.1737 70.969928,-352.37278 168.6799,-462.57186 330.72036,-480.10063 432.91327,-391.52604 Z"
       id="path27" />
    <path
       style="opacity:1;fill:#000000;fill-opacity:0.49019608;stroke-width:11.10955811"
       inkscape:connector-curvature="0"
       d="m 511.63551,-223.09649 c -1.55139,61.31166 -25.16123,124.154618 -70.96638,175.814474 C 342.95915,62.91712 180.91869,80.445824 78.725776,-8.1287118 30.827124,-49.644368 4.4968219,-107.07717 0.19382798,-167.7712 0.79907966,-101.41453 27.117412,-37.517824 79.078683,7.5190642 181.27159,96.093624 343.31975,78.556224 441.02202,-31.634232 490.72697,-87.692344 514.02704,-156.9252 511.63551,-223.09649 Z"
       id="path51" />
    <path
       style="fill:#000000;fill-opacity:0.49019608;stroke-width:0.74321789"
       d="m 197.59052,-93.128592 c -0.81754,-0.15659 -2.32255,-0.45971 -3.34448,-0.6735 -2.66153,-0.5569 -71.05357,-68.819968 -72.89777,-72.760328 -1.70068,-3.63373 -1.78956,-6.96624 -0.28308,-10.61473 1.28982,-3.12376 68.25565,-70.7695 72.04863,-72.78015 1.21674,-0.64497 3.97651,-1.1727 6.13282,-1.1727 9.46575,0 16.4448,9.51684 13.58169,18.52035 -0.72436,2.27782 -6.86638,8.84641 -29.62092,31.67801 l -28.7071,28.8043 28.39354,28.42348 c 28.63802,28.66816 30.67585,31.06586 30.67585,36.09247 0,2.75399 -1.35631,6.6681 -3.16697,9.139498 -2.52311,3.4437 -8.88301,6.09609 -12.81221,5.3433 z m 39.93725,-0.25101 c -6.80706,-1.50309 -11.80311,-8.099488 -11.16493,-14.741288 0.25926,-2.6979 7.77122,-19.09109 32.17168,-70.20747 18.13527,-37.9914 32.6532,-67.50744 33.73845,-68.59269 4.86065,-4.86064 11.84197,-5.67442 17.66324,-2.05891 4.47262,2.77788 6.57671,6.69331 6.54716,12.18345 -0.0208,3.83603 -1.97959,8.18309 -31.81802,70.6057 -17.88411,37.41396 -32.6704,67.441318 -33.79441,68.628218 -3.54073,3.7388 -8.42307,5.2694 -13.34317,4.18299 z m 112.317,0.0401 c -5.99816,-1.383 -10.30586,-6.0612 -11.13215,-12.089498 -0.93041,-6.78809 -0.89623,-6.8312 30.07537,-37.90766 l 28.70248,-28.79967 -28.70248,-28.79969 c -30.9716,-31.07651 -31.00578,-31.1196 -30.07537,-37.90766 0.62533,-4.56225 2.91849,-7.99302 6.9036,-10.32844 3.92653,-2.30111 9.75896,-2.64611 13.26997,-0.78496 3.79297,2.01062 70.7588,69.65639 72.04862,72.78015 1.50647,3.64849 1.41761,6.98099 -0.2831,10.61473 -1.96374,4.19577 -70.25395,72.211008 -73.08355,72.789308 -4.36454,0.8919 -5.46661,0.9538 -7.72339,0.43349 z"
       id="path847"
       inkscape:connector-curvature="0" />
    <path
       inkscape:connector-curvature="0"
       id="path865"
       d="m 177.59052,-113.12859 c -0.81754,-0.15659 -2.32255,-0.45971 -3.34448,-0.6735 -2.66153,-0.5569 -71.05357,-68.81997 -72.89777,-72.76033 -1.70068,-3.63373 -1.78956,-6.96624 -0.28308,-10.61473 1.28982,-3.12376 68.25565,-70.7695 72.04863,-72.78015 1.21674,-0.64497 3.97651,-1.1727 6.13282,-1.1727 9.46575,0 16.4448,9.51684 13.58169,18.52035 -0.72436,2.27782 -6.86638,8.84641 -29.62092,31.67801 l -28.7071,28.8043 28.39354,28.42348 c 28.63802,28.66816 30.67585,31.06586 30.67585,36.09247 0,2.75399 -1.35631,6.6681 -3.16697,9.1395 -2.52311,3.4437 -8.88301,6.09609 -12.81221,5.3433 z m 39.93725,-0.25101 c -6.80706,-1.50309 -11.80311,-8.09949 -11.16493,-14.74129 0.25926,-2.6979 7.77122,-19.09109 32.17168,-70.20747 18.13527,-37.9914 32.6532,-67.50744 33.73845,-68.59269 4.86065,-4.86064 11.84197,-5.67442 17.66324,-2.05891 4.47262,2.77788 6.57671,6.69331 6.54716,12.18345 -0.0208,3.83603 -1.97959,8.18309 -31.81802,70.6057 -17.88411,37.41396 -32.6704,67.44132 -33.79441,68.62822 -3.54073,3.7388 -8.42307,5.2694 -13.34317,4.18299 z m 112.317,0.0401 c -5.99816,-1.383 -10.30586,-6.0612 -11.13215,-12.0895 -0.93041,-6.78809 -0.89623,-6.8312 30.07537,-37.90766 l 28.70248,-28.79967 -28.70248,-28.79969 c -30.9716,-31.07651 -31.00578,-31.1196 -30.07537,-37.90766 0.62533,-4.56225 2.91849,-7.99302 6.9036,-10.32844 3.92653,-2.30111 9.75896,-2.64611 13.26997,-0.78496 3.79297,2.01062 70.7588,69.65639 72.04862,72.78015 1.50647,3.64849 1.41761,6.98099 -0.2831,10.61473 -1.96374,4.19577 -70.25395,72.21101 -73.08355,72.78931 -4.36454,0.8919 -5.46661,0.9538 -7.72339,0.43349 z"
       style="fill:#ffffff;stroke-width:0.74321789" />
  </g>
</svg>
