<?xml version="1.0" encoding="UTF-8" standalone="no"?>
<svg
   xmlns:dc="http://purl.org/dc/elements/1.1/"
   xmlns:cc="http://creativecommons.org/ns#"
   xmlns:rdf="http://www.w3.org/1999/02/22-rdf-syntax-ns#"
   xmlns:svg="http://www.w3.org/2000/svg"
   xmlns="http://www.w3.org/2000/svg"
   xmlns:sodipodi="http://sodipodi.sourceforge.net/DTD/sodipodi-0.dtd"
   xmlns:inkscape="http://www.inkscape.org/namespaces/inkscape"
   viewBox="0 0 64 64"
   version="1.1"
   id="svg8"
   sodipodi:docname="format-text-lowercase.svg"
   width="64"
   height="64"
   inkscape:version="0.92.2 5c3e80d, 2017-08-06">
  <metadata
     id="metadata12">
    <rdf:RDF>
      <cc:Work
         rdf:about="">
        <dc:format>image/svg+xml</dc:format>
        <dc:type
           rdf:resource="http://purl.org/dc/dcmitype/StillImage" />
        <dc:title></dc:title>
      </cc:Work>
    </rdf:RDF>
  </metadata>
  <sodipodi:namedview
     pagecolor="#ffffff"
     bordercolor="#666666"
     borderopacity="1"
     objecttolerance="10"
     gridtolerance="10"
     guidetolerance="10"
     inkscape:pageopacity="0"
     inkscape:pageshadow="2"
     inkscape:window-width="1366"
     inkscape:window-height="717"
     id="namedview10"
     showgrid="false"
     inkscape:zoom="0.61458333"
     inkscape:cx="-4.4294752"
     inkscape:cy="179.80512"
     inkscape:window-x="0"
     inkscape:window-y="24"
     inkscape:window-maximized="1"
     inkscape:current-layer="svg8" />
  <defs
     id="defs3051">
    <style
       type="text/css"
       id="current-color-scheme">
      .ColorScheme-Text {
        color:#4d4d4d;
      }
      .ColorScheme-Highlight {
        color:#3daee9;
      }
      </style>
  </defs>
  <g
     id="g876"
     transform="matrix(0.125,0,0,0.125,-1.5829374e-7,56)">
    <path
       id="path850"
       d="m 432.91324,-391.52606 c 102.19296,88.57458 105.8268,249.69973 8.1168,359.898828 C 343.32004,78.571841 181.27964,96.100609 79.086757,7.526016 -23.106204,-81.04857 -26.740044,-242.17373 70.969957,-352.3728 168.67988,-462.57189 330.72028,-480.10065 432.91324,-391.52606 Z"
       inkscape:connector-curvature="0"
       style="fill:#3689e6;fill-opacity:1;stroke-width:11.10955906" />
    <path
       id="path852"
       d="m 511.63548,-223.09649 c -1.55136,61.31161 -25.1612,124.15457 -70.9664,175.814442 C 342.95908,62.917073 180.91868,80.445801 78.725717,-8.128744 30.827077,-49.644362 4.4968361,-107.0772 0.19379608,-167.77119 0.79939608,-101.41456 27.117397,-37.517824 79.078677,7.519016 181.27156,96.093609 343.31972,78.556153 441.02204,-31.634232 490.72692,-87.69238 514.027,-156.92524 511.63548,-223.09649 Z"
       inkscape:connector-curvature="0"
       style="opacity:1;fill:#000000;fill-opacity:0.49019608;stroke-width:11.10955906" />
    <g
       style="fill:#000000;fill-opacity:0.49019608"
       transform="translate(19.999997,20.00003)"
       id="g862">
      <path
         inkscape:connector-curvature="0"
         id="path853"
         d="m 266.12867,-337.95161 c 1.26601,-3.55678 4.39858,-6.72834 7.69818,-7.794 3.09807,-1.00056 5.05549,-1.02575 8.11674,-0.10442 4.28567,1.28979 2.08293,-1.17612 37.67004,42.17077 8.13953,9.91437 11.28539,13.73862 18.76913,22.81647 l 1.03361,1.25376 1.38249,-1.561 c 1.63392,-1.84488 3.25605,-3.83482 29.85163,-36.62064 11.21748,-13.82839 21.09038,-25.72731 21.93984,-26.44206 1.54366,-1.29892 5.74351,-2.82879 7.76565,-2.82879 0.58948,0 2.25453,0.35126 3.70016,0.78056 5.32345,1.58089 9.08401,6.76611 9.07235,12.50933 -0.008,3.82145 -1.16342,6.40689 -4.88898,10.93788 -1.57767,1.9187 -3.5455,4.32765 -4.37298,5.35322 -26.67619,33.062 -53.15355,65.57744 -54.83792,67.34353 -3.54508,3.71711 -8.15604,4.88926 -13.36681,3.39796 -3.23837,-0.9268 -6.52281,-4.2108 -16.55022,-16.54794 -7.26425,-8.9375 -11.29081,-13.85088 -18.30803,-22.34014 -1.82402,-2.20662 -6.09133,-7.3972 -9.48297,-11.53462 -3.39164,-4.13742 -6.64246,-8.08678 -7.22406,-8.77634 -7.51843,-8.91431 -17.18029,-21.13349 -17.70666,-22.39323 -1.20337,-2.88006 -1.30662,-6.68322 -0.26134,-9.6203 z"
         style="fill:#000000;fill-opacity:0.49019608;stroke-width:0.50150549" />
      <g
         transform="matrix(7.5493729,0,0,7.5493729,-632.25968,1373.9854)"
         id="g860"
         style="font-style:normal;font-weight:normal;font-size:40px;line-height:1.25;font-family:sans-serif;letter-spacing:0px;word-spacing:0px;fill:#000000;fill-opacity:0.49019608;stroke:none"
         aria-label="ab">
        <path
           inkscape:connector-curvature="0"
           id="path856"
           style="font-style:normal;font-variant:normal;font-weight:normal;font-stretch:normal;font-family:'Comic Sans MS';-inkscape-font-specification:'Comic Sans MS';fill:#000000;fill-opacity:0.49019608"
           d="m 113.96875,-186.76855 q -0.37109,0 -1.34766,-0.85937 -0.8789,-0.80078 -1.30859,-1.42578 -1.875,1.01562 -3.30078,1.52343 -1.42578,0.52735 -2.38281,0.52735 -4.57032,0 -6.66016,-2.57813 -1.972656,-2.42187 -1.972656,-7.42187 0,-4.72657 3.242186,-8.08594 3.26172,-3.35938 7.77344,-3.35938 1.69922,0 3.80859,0.87891 2.65625,1.09375 2.65625,2.63672 0,0.52734 -0.39062,0.9375 -0.19531,0.74219 -0.3125,2.44141 -0.0977,1.69921 -0.11719,4.35546 -0.0195,2.42188 0.33203,3.82813 0.19531,0.85937 1.23047,3.4375 0.13672,0.35156 0.44922,1.03516 l 0.11719,0.33203 q 0,0.78125 -0.54688,1.28906 -0.54687,0.50781 -1.26953,0.50781 z m -4.0625,-13.57422 q 0,-0.83984 0.0977,-1.8164 0.11718,-0.9961 0.33203,-2.10938 -0.72266,-0.37109 -1.25,-0.54687 -0.50781,-0.17578 -0.82031,-0.17578 -3.02735,0 -5.23438,2.48046 -2.1875,2.46094 -2.1875,5.6836 0,3.20312 1.13281,4.80469 1.13282,1.60156 3.39844,1.60156 1.875,0 3.18359,-0.6836 0.70313,-0.37109 1.97266,-1.48437 -0.625,-5.17578 -0.625,-7.75391 z" />
        <path
           inkscape:connector-curvature="0"
           id="path858"
           style="font-style:normal;font-variant:normal;font-weight:normal;font-stretch:normal;font-family:'Comic Sans MS';-inkscape-font-specification:'Comic Sans MS';fill:#000000;fill-opacity:0.49019608"
           d="m 128.30469,-187.2373 q -2.98828,0 -5.42969,-1.17187 -0.625,0.9375 -1.52344,0.9375 -0.74218,0 -1.26953,-0.52735 -0.50781,-0.50781 -0.50781,-1.28906 0,-0.50781 0.0391,-1.50391 0.0586,-0.99609 0.0586,-1.5039 0,-2.07031 -0.11719,-6.19141 -0.0977,-4.14062 -0.0977,-6.21094 0,-1.42578 0.0195,-5.39062 0.0195,-3.98438 0.0195,-5.42969 0,-1.17187 0.48829,-2.10937 0.64453,-1.19141 1.77734,-1.19141 1.46484,0 1.46484,1.69922 0,0.27344 -0.0977,0.80078 -0.0977,0.52734 -0.0977,0.80078 l -0.0586,4.27735 -0.0391,4.98046 q 1.69922,-1.15234 3.22266,-1.71875 1.54297,-0.58593 2.89062,-0.58593 4.19922,0 6.81641,3.22265 2.46094,3.02735 2.46094,7.44141 0,4.45312 -2.8711,7.55859 -2.87109,3.10547 -7.14843,3.10547 z m 0.74218,-17.63672 q -1.60156,0 -3.28124,0.89844 -0.82032,0.44922 -2.8125,1.93359 l -0.0391,3.37891 0.0195,3.04688 0.0195,3.20312 q 0.9375,0.42969 2.63671,1.09375 1.21094,0.37109 2.71485,0.37109 2.83203,0 4.64843,-1.99218 1.81641,-1.99219 1.81641,-4.96094 0,-2.91016 -1.46484,-4.86328 -1.58203,-2.10938 -4.25782,-2.10938 z" />
      </g>
    </g>
    <g
       id="g851">
      <path
         style="fill:#ffffff;stroke-width:0.50150549"
         d="m 266.12867,-337.95161 c 1.26601,-3.55678 4.39858,-6.72834 7.69818,-7.794 3.09807,-1.00056 5.05549,-1.02575 8.11674,-0.10442 4.28567,1.28979 2.08293,-1.17612 37.67004,42.17077 8.13953,9.91437 11.28539,13.73862 18.76913,22.81647 l 1.03361,1.25376 1.38249,-1.561 c 1.63392,-1.84488 3.25605,-3.83482 29.85163,-36.62064 11.21748,-13.82839 21.09038,-25.72731 21.93984,-26.44206 1.54366,-1.29892 5.74351,-2.82879 7.76565,-2.82879 0.58948,0 2.25453,0.35126 3.70016,0.78056 5.32345,1.58089 9.08401,6.76611 9.07235,12.50933 -0.008,3.82145 -1.16342,6.40689 -4.88898,10.93788 -1.57767,1.9187 -3.5455,4.32765 -4.37298,5.35322 -26.67619,33.062 -53.15355,65.57744 -54.83792,67.34353 -3.54508,3.71711 -8.15604,4.88926 -13.36681,3.39796 -3.23837,-0.9268 -6.52281,-4.2108 -16.55022,-16.54794 -7.26425,-8.9375 -11.29081,-13.85088 -18.30803,-22.34014 -1.82402,-2.20662 -6.09133,-7.3972 -9.48297,-11.53462 -3.39164,-4.13742 -6.64246,-8.08678 -7.22406,-8.77634 -7.51843,-8.91431 -17.18029,-21.13349 -17.70666,-22.39323 -1.20337,-2.88006 -1.30662,-6.68322 -0.26134,-9.6203 z"
         id="path855"
         inkscape:connector-curvature="0" />
      <g
         aria-label="ab"
         style="font-style:normal;font-weight:normal;font-size:40px;line-height:1.25;font-family:sans-serif;letter-spacing:0px;word-spacing:0px;fill:#ffffff;fill-opacity:1;stroke:none"
         id="flowRoot834"
         transform="matrix(7.5493729,0,0,7.5493729,-632.25968,1373.9854)">
        <path
           d="m 113.96875,-186.76855 q -0.37109,0 -1.34766,-0.85937 -0.8789,-0.80078 -1.30859,-1.42578 -1.875,1.01562 -3.30078,1.52343 -1.42578,0.52735 -2.38281,0.52735 -4.57032,0 -6.66016,-2.57813 -1.972656,-2.42187 -1.972656,-7.42187 0,-4.72657 3.242186,-8.08594 3.26172,-3.35938 7.77344,-3.35938 1.69922,0 3.80859,0.87891 2.65625,1.09375 2.65625,2.63672 0,0.52734 -0.39062,0.9375 -0.19531,0.74219 -0.3125,2.44141 -0.0977,1.69921 -0.11719,4.35546 -0.0195,2.42188 0.33203,3.82813 0.19531,0.85937 1.23047,3.4375 0.13672,0.35156 0.44922,1.03516 l 0.11719,0.33203 q 0,0.78125 -0.54688,1.28906 -0.54687,0.50781 -1.26953,0.50781 z m -4.0625,-13.57422 q 0,-0.83984 0.0977,-1.8164 0.11718,-0.9961 0.33203,-2.10938 -0.72266,-0.37109 -1.25,-0.54687 -0.50781,-0.17578 -0.82031,-0.17578 -3.02735,0 -5.23438,2.48046 -2.1875,2.46094 -2.1875,5.6836 0,3.20312 1.13281,4.80469 1.13282,1.60156 3.39844,1.60156 1.875,0 3.18359,-0.6836 0.70313,-0.37109 1.97266,-1.48437 -0.625,-5.17578 -0.625,-7.75391 z"
           style="font-style:normal;font-variant:normal;font-weight:normal;font-stretch:normal;font-family:'Comic Sans MS';-inkscape-font-specification:'Comic Sans MS';fill:#ffffff"
           id="path842"
           inkscape:connector-curvature="0" />
        <path
           d="m 128.30469,-187.2373 q -2.98828,0 -5.42969,-1.17187 -0.625,0.9375 -1.52344,0.9375 -0.74218,0 -1.26953,-0.52735 -0.50781,-0.50781 -0.50781,-1.28906 0,-0.50781 0.0391,-1.50391 0.0586,-0.99609 0.0586,-1.5039 0,-2.07031 -0.11719,-6.19141 -0.0977,-4.14062 -0.0977,-6.21094 0,-1.42578 0.0195,-5.39062 0.0195,-3.98438 0.0195,-5.42969 0,-1.17187 0.48829,-2.10937 0.64453,-1.19141 1.77734,-1.19141 1.46484,0 1.46484,1.69922 0,0.27344 -0.0977,0.80078 -0.0977,0.52734 -0.0977,0.80078 l -0.0586,4.27735 -0.0391,4.98046 q 1.69922,-1.15234 3.22266,-1.71875 1.54297,-0.58593 2.89062,-0.58593 4.19922,0 6.81641,3.22265 2.46094,3.02735 2.46094,7.44141 0,4.45312 -2.8711,7.55859 -2.87109,3.10547 -7.14843,3.10547 z m 0.74218,-17.63672 q -1.60156,0 -3.28124,0.89844 -0.82032,0.44922 -2.8125,1.93359 l -0.0391,3.37891 0.0195,3.04688 0.0195,3.20312 q 0.9375,0.42969 2.63671,1.09375 1.21094,0.37109 2.71485,0.37109 2.83203,0 4.64843,-1.99218 1.81641,-1.99219 1.81641,-4.96094 0,-2.91016 -1.46484,-4.86328 -1.58203,-2.10938 -4.25782,-2.10938 z"
           style="font-style:normal;font-variant:normal;font-weight:normal;font-stretch:normal;font-family:'Comic Sans MS';-inkscape-font-specification:'Comic Sans MS';fill:#ffffff"
           id="path844"
           inkscape:connector-curvature="0" />
      </g>
    </g>
  </g>
</svg>
