<?xml version="1.0" encoding="UTF-8" standalone="no"?>
<svg
   xmlns:dc="http://purl.org/dc/elements/1.1/"
   xmlns:cc="http://creativecommons.org/ns#"
   xmlns:rdf="http://www.w3.org/1999/02/22-rdf-syntax-ns#"
   xmlns:svg="http://www.w3.org/2000/svg"
   xmlns="http://www.w3.org/2000/svg"
   xmlns:sodipodi="http://sodipodi.sourceforge.net/DTD/sodipodi-0.dtd"
   xmlns:inkscape="http://www.inkscape.org/namespaces/inkscape"
   viewBox="0 0 64 64"
   version="1.1"
   id="svg8"
   sodipodi:docname="format-border-set-all.svg"
   width="64"
   height="64"
   inkscape:version="0.92.2 5c3e80d, 2017-08-06">
  <metadata
     id="metadata12">
    <rdf:RDF>
      <cc:Work
         rdf:about="">
        <dc:format>image/svg+xml</dc:format>
        <dc:type
           rdf:resource="http://purl.org/dc/dcmitype/StillImage" />
        <dc:title></dc:title>
      </cc:Work>
    </rdf:RDF>
  </metadata>
  <sodipodi:namedview
     pagecolor="#ffffff"
     bordercolor="#666666"
     borderopacity="1"
     objecttolerance="10"
     gridtolerance="10"
     guidetolerance="10"
     inkscape:pageopacity="0"
     inkscape:pageshadow="2"
     inkscape:window-width="1366"
     inkscape:window-height="717"
     id="namedview10"
     showgrid="false"
     inkscape:zoom="4.9166667"
     inkscape:cx="47.654282"
     inkscape:cy="36.378166"
     inkscape:window-x="0"
     inkscape:window-y="24"
     inkscape:window-maximized="1"
     inkscape:current-layer="svg8" />
  <defs
     id="defs3051">
    <style
       type="text/css"
       id="current-color-scheme">
      .ColorScheme-Text {
        color:#4d4d4d;
      }
      </style>
  </defs>
  <g
     id="g1107"
     transform="matrix(0.125,0,0,0.125,6.1022918e-8,55.999999)">
    <path
       style="fill:#3689e6;fill-opacity:1;stroke-width:11.10955906"
       inkscape:connector-curvature="0"
       d="m 432.91324,-391.52606 c 102.19296,88.57457 105.8268,249.69973 8.1168,359.898827 C 343.32004,78.57184 181.27964,96.100608 79.086758,7.5260155 -23.106204,-81.048569 -26.740044,-242.17373 70.969958,-352.3728 168.67988,-462.57189 330.72036,-480.10065 432.91324,-391.52606 Z"
       id="path850" />
    <path
       style="opacity:1;fill:#000000;fill-opacity:0.49019608;stroke-width:11.10955906"
       inkscape:connector-curvature="0"
       d="m 511.63548,-223.09649 c -1.55136,61.3116 -25.1612,124.154569 -70.96632,175.814441 C 342.95908,62.917072 180.91868,80.4458 78.725798,-8.1287446 30.827156,-49.644361 4.4968364,-107.0772 0.19379639,-167.77119 0.79939639,-101.41456 27.117396,-37.517825 79.078678,7.5190155 181.27156,96.093608 343.31972,78.556152 441.02204,-31.634233 490.727,-87.692377 514.027,-156.92525 511.63548,-223.09649 Z"
       id="path852" />
    <ellipse
       ry="24.989559"
       rx="24.952599"
       style="opacity:1;fill:#000000;fill-opacity:0.49019608;stroke:none;stroke-width:280.63183594;stroke-miterlimit:4;stroke-dasharray:none;stroke-dashoffset:0;stroke-opacity:1"
       id="circle973"
       cx="144.95259"
       cy="-170.36023" />
    <ellipse
       ry="24.989559"
       rx="24.952599"
       cy="-303.01044"
       cx="145.23969"
       id="circle975"
       style="opacity:1;fill:#000000;fill-opacity:0.49019608;stroke:none;stroke-width:280.63183594;stroke-miterlimit:4;stroke-dasharray:none;stroke-dashoffset:0;stroke-opacity:1" />
    <ellipse
       ry="24.989559"
       rx="24.952599"
       cy="-40.989559"
       cx="144.95259"
       id="circle977"
       style="opacity:1;fill:#000000;fill-opacity:0.49019608;stroke:none;stroke-width:280.63183594;stroke-miterlimit:4;stroke-dasharray:none;stroke-dashoffset:0;stroke-opacity:1" />
    <ellipse
       ry="24.989559"
       rx="24.952599"
       cy="-170.36023"
       cx="276.7023"
       id="circle979"
       style="opacity:1;fill:#000000;fill-opacity:0.49019608;stroke:none;stroke-width:280.63183594;stroke-miterlimit:4;stroke-dasharray:none;stroke-dashoffset:0;stroke-opacity:1" />
    <ellipse
       ry="24.989559"
       rx="24.952599"
       style="opacity:1;fill:#000000;fill-opacity:0.49019608;stroke:none;stroke-width:280.63183594;stroke-miterlimit:4;stroke-dasharray:none;stroke-dashoffset:0;stroke-opacity:1"
       id="circle981"
       cx="276.98938"
       cy="-303.01044" />
    <ellipse
       ry="24.989559"
       rx="24.952599"
       style="opacity:1;fill:#000000;fill-opacity:0.49019608;stroke:none;stroke-width:280.63183594;stroke-miterlimit:4;stroke-dasharray:none;stroke-dashoffset:0;stroke-opacity:1"
       id="circle983"
       cx="276.7023"
       cy="-40.989559" />
    <ellipse
       ry="24.989559"
       rx="24.952599"
       style="opacity:1;fill:#000000;fill-opacity:0.49019608;stroke:none;stroke-width:280.63183594;stroke-miterlimit:4;stroke-dasharray:none;stroke-dashoffset:0;stroke-opacity:1"
       id="circle985"
       cx="406.76031"
       cy="-170.36023" />
    <ellipse
       ry="24.989559"
       rx="24.952599"
       cy="-303.01044"
       cx="407.04739"
       id="circle987"
       style="opacity:1;fill:#000000;fill-opacity:0.49019608;stroke:none;stroke-width:280.63183594;stroke-miterlimit:4;stroke-dasharray:none;stroke-dashoffset:0;stroke-opacity:1" />
    <ellipse
       ry="24.989559"
       rx="24.952599"
       cy="-40.989559"
       cx="406.76031"
       id="circle989"
       style="opacity:1;fill:#000000;fill-opacity:0.49019608;stroke:none;stroke-width:280.63183594;stroke-miterlimit:4;stroke-dasharray:none;stroke-dashoffset:0;stroke-opacity:1" />
    <path
       id="rect991"
       d="m 129.05078,-284.00195 v 94.41015 a 24.952599,24.989559 0 0 1 15.90234,-5.75781 24.952599,24.989559 0 0 1 15.76758,5.64453 v -93.70898 a 24.952599,24.989559 0 0 1 -15.48047,5.39258 24.952599,24.989559 0 0 1 -16.18945,-5.98047 z m 0,132.88672 v 90.894527 a 24.952599,24.989559 0 0 1 15.90234,-5.757813 24.952599,24.989559 0 0 1 15.76758,5.642578 v -90.675782 a 24.952599,24.989559 0 0 1 -15.76758,5.64063 24.952599,24.989559 0 0 1 -15.90234,-5.74414 z"
       style="opacity:1;fill:#000000;fill-opacity:0.49019608;stroke:none;stroke-width:24.97107124;stroke-miterlimit:4;stroke-dasharray:none;stroke-dashoffset:0;stroke-opacity:1"
       inkscape:connector-curvature="0" />
    <path
       id="rect993"
       d="m 260.80078,-284.00195 v 94.41015 a 24.952599,24.989559 0 0 1 15.90234,-5.75781 24.952599,24.989559 0 0 1 15.76563,5.64258 v -93.70703 a 24.952599,24.989559 0 0 1 -15.47852,5.39258 24.952599,24.989559 0 0 1 -16.18945,-5.98047 z m 0,132.88672 v 90.894527 a 24.952599,24.989559 0 0 1 15.90234,-5.757813 24.952599,24.989559 0 0 1 15.76563,5.640625 v -90.671879 a 24.952599,24.989559 0 0 1 -15.76563,5.63868 24.952599,24.989559 0 0 1 -15.90234,-5.74414 z"
       style="opacity:1;fill:#000000;fill-opacity:0.49019608;stroke:none;stroke-width:24.97107124;stroke-miterlimit:4;stroke-dasharray:none;stroke-dashoffset:0;stroke-opacity:1"
       inkscape:connector-curvature="0" />
    <path
       id="rect995"
       d="m 390.55469,-284.28711 v 94.96289 a 24.952599,24.989559 0 0 1 16.20508,-6.02539 24.952599,24.989559 0 0 1 15.46289,5.41016 v -93.25586 a 24.952599,24.989559 0 0 1 -15.17578,5.17383 24.952599,24.989559 0 0 1 -16.49219,-6.26563 z m 0,132.91797 v 91.416015 a 24.952599,24.989559 0 0 1 16.20508,-6.025391 24.952599,24.989559 0 0 1 15.46289,5.408204 V -150.75 a 24.952599,24.989559 0 0 1 -15.46289,5.37891 24.952599,24.989559 0 0 1 -16.20508,-5.99805 z"
       style="opacity:1;fill:#000000;fill-opacity:0.49019608;stroke:none;stroke-width:24.97107124;stroke-miterlimit:4;stroke-dasharray:none;stroke-dashoffset:0;stroke-opacity:1"
       inkscape:connector-curvature="0" />
    <path
       id="rect997"
       d="m 164.35547,-319.0332 a 24.952599,24.989559 0 0 1 5.83594,16.02343 24.952599,24.989559 0 0 1 -5.56055,15.69336 h 92.95312 a 24.952599,24.989559 0 0 1 -5.54687,-15.69336 24.952599,24.989559 0 0 1 5.80859,-16.02343 z m 131.75,0 a 24.952599,24.989559 0 0 1 5.83594,16.02343 24.952599,24.989559 0 0 1 -5.56055,15.69336 h 91.26172 a 24.952599,24.989559 0 0 1 -5.54688,-15.69336 24.952599,24.989559 0 0 1 5.8086,-16.02343 z"
       style="opacity:1;fill:#000000;fill-opacity:0.49019608;stroke:none;stroke-width:24.97107124;stroke-miterlimit:4;stroke-dasharray:none;stroke-dashoffset:0;stroke-opacity:1"
       inkscape:connector-curvature="0" />
    <path
       id="rect999"
       d="m 164.44922,-185.95117 a 24.952599,24.989559 0 0 1 5.45508,15.59179 24.952599,24.989559 0 0 1 -5.89258,16.125 h 93.66406 a 24.952599,24.989559 0 0 1 -5.92578,-16.125 24.952599,24.989559 0 0 1 5.48242,-15.59179 z m 131.75,0 a 24.952599,24.989559 0 0 1 5.45508,15.59179 24.952599,24.989559 0 0 1 -5.89258,16.125 h 91.97266 a 24.952599,24.989559 0 0 1 -5.92579,-16.125 24.952599,24.989559 0 0 1 5.48243,-15.59179 z"
       style="opacity:1;fill:#000000;fill-opacity:0.49019608;stroke:none;stroke-width:24.97107124;stroke-miterlimit:4;stroke-dasharray:none;stroke-dashoffset:0;stroke-opacity:1"
       inkscape:connector-curvature="0" />
    <path
       id="rect1001"
       d="m 164.86719,-56.005859 a 24.952599,24.989559 0 0 1 5.03711,15.015625 24.952599,24.989559 0 0 1 -6.42578,16.701172 h 94.70117 a 24.952599,24.989559 0 0 1 -6.42969,-16.701172 24.952599,24.989559 0 0 1 5.04492,-15.015625 z m 131.75,0 a 24.952599,24.989559 0 0 1 5.03711,15.015625 24.952599,24.989559 0 0 1 -6.42578,16.701172 h 93.00976 a 24.952599,24.989559 0 0 1 -6.42969,-16.701172 24.952599,24.989559 0 0 1 5.04493,-15.015625 z"
       style="opacity:1;fill:#000000;fill-opacity:0.49019608;stroke:none;stroke-width:24.97107124;stroke-miterlimit:4;stroke-dasharray:none;stroke-dashoffset:0;stroke-opacity:1"
       inkscape:connector-curvature="0" />
    <g
       transform="matrix(0.99810391,0,0,0.99958237,0.18796931,-0.01517374)"
       id="g971">
      <circle
         style="opacity:1;fill:#ffffff;fill-opacity:1;stroke:none;stroke-width:280.9569397;stroke-miterlimit:4;stroke-dasharray:none;stroke-dashoffset:0;stroke-opacity:1"
         id="path926"
         cx="124.13508"
         cy="-190.75723"
         r="25" />
      <circle
         r="25"
         cy="-323.46286"
         cx="124.42271"
         id="circle928"
         style="opacity:1;fill:#ffffff;fill-opacity:1;stroke:none;stroke-width:280.9569397;stroke-miterlimit:4;stroke-dasharray:none;stroke-dashoffset:0;stroke-opacity:1" />
      <circle
         r="25"
         cy="-61.332504"
         cx="124.13508"
         id="circle930"
         style="opacity:1;fill:#ffffff;fill-opacity:1;stroke:none;stroke-width:280.9569397;stroke-miterlimit:4;stroke-dasharray:none;stroke-dashoffset:0;stroke-opacity:1" />
      <circle
         r="25"
         cy="-190.75723"
         cx="256.13507"
         id="circle932"
         style="opacity:1;fill:#ffffff;fill-opacity:1;stroke:none;stroke-width:280.9569397;stroke-miterlimit:4;stroke-dasharray:none;stroke-dashoffset:0;stroke-opacity:1" />
      <circle
         style="opacity:1;fill:#ffffff;fill-opacity:1;stroke:none;stroke-width:280.9569397;stroke-miterlimit:4;stroke-dasharray:none;stroke-dashoffset:0;stroke-opacity:1"
         id="circle934"
         cx="256.4227"
         cy="-323.46286"
         r="25" />
      <circle
         style="opacity:1;fill:#ffffff;fill-opacity:1;stroke:none;stroke-width:280.9569397;stroke-miterlimit:4;stroke-dasharray:none;stroke-dashoffset:0;stroke-opacity:1"
         id="circle936"
         cx="256.13507"
         cy="-61.332504"
         r="25" />
      <circle
         style="opacity:1;fill:#ffffff;fill-opacity:1;stroke:none;stroke-width:280.9569397;stroke-miterlimit:4;stroke-dasharray:none;stroke-dashoffset:0;stroke-opacity:1"
         id="circle938"
         cx="386.44016"
         cy="-190.75723"
         r="25" />
      <circle
         r="25"
         cy="-323.46286"
         cx="386.72778"
         id="circle940"
         style="opacity:1;fill:#ffffff;fill-opacity:1;stroke:none;stroke-width:280.9569397;stroke-miterlimit:4;stroke-dasharray:none;stroke-dashoffset:0;stroke-opacity:1" />
      <circle
         r="25"
         cy="-61.332504"
         cx="386.44016"
         id="circle942"
         style="opacity:1;fill:#ffffff;fill-opacity:1;stroke:none;stroke-width:280.9569397;stroke-miterlimit:4;stroke-dasharray:none;stroke-dashoffset:0;stroke-opacity:1" />
      <rect
         style="opacity:1;fill:#ffffff;fill-opacity:1;stroke:none;stroke-width:25;stroke-miterlimit:4;stroke-dasharray:none;stroke-dashoffset:0;stroke-opacity:1"
         id="rect944"
         width="31.728813"
         height="261.96609"
         x="108.20339"
         y="-324.88135" />
      <rect
         y="-324.88135"
         x="240.2034"
         height="261.96609"
         width="31.728813"
         id="rect946"
         style="opacity:1;fill:#ffffff;fill-opacity:1;stroke:none;stroke-width:25;stroke-miterlimit:4;stroke-dasharray:none;stroke-dashoffset:0;stroke-opacity:1" />
      <rect
         style="opacity:1;fill:#ffffff;fill-opacity:1;stroke:none;stroke-width:25;stroke-miterlimit:4;stroke-dasharray:none;stroke-dashoffset:0;stroke-opacity:1"
         id="rect948"
         width="31.728813"
         height="261.96609"
         x="370.2034"
         y="-324.88135" />
      <rect
         y="121.66103"
         x="307.7627"
         height="261.96609"
         width="31.728813"
         id="rect950"
         style="opacity:1;fill:#ffffff;fill-opacity:1;stroke:none;stroke-width:25;stroke-miterlimit:4;stroke-dasharray:none;stroke-dashoffset:0;stroke-opacity:1"
         transform="rotate(-90)" />
      <rect
         transform="rotate(-90)"
         style="opacity:1;fill:#ffffff;fill-opacity:1;stroke:none;stroke-width:25;stroke-miterlimit:4;stroke-dasharray:none;stroke-dashoffset:0;stroke-opacity:1"
         id="rect952"
         width="31.728813"
         height="261.96609"
         x="174.62561"
         y="121.66103" />
      <rect
         y="121.66103"
         x="44.62561"
         height="261.96609"
         width="31.728813"
         id="rect954"
         style="opacity:1;fill:#ffffff;fill-opacity:1;stroke:none;stroke-width:25;stroke-miterlimit:4;stroke-dasharray:none;stroke-dashoffset:0;stroke-opacity:1"
         transform="rotate(-90)" />
    </g>
  </g>
</svg>
