<?xml version="1.0" encoding="UTF-8" standalone="no"?>
<svg
   xmlns:dc="http://purl.org/dc/elements/1.1/"
   xmlns:cc="http://creativecommons.org/ns#"
   xmlns:rdf="http://www.w3.org/1999/02/22-rdf-syntax-ns#"
   xmlns:svg="http://www.w3.org/2000/svg"
   xmlns="http://www.w3.org/2000/svg"
   xmlns:sodipodi="http://sodipodi.sourceforge.net/DTD/sodipodi-0.dtd"
   xmlns:inkscape="http://www.inkscape.org/namespaces/inkscape"
   viewBox="0 0 64 64"
   version="1.1"
   id="svg6"
   sodipodi:docname="format-text-color.svg"
   width="64"
   height="64"
   inkscape:version="0.92.2 5c3e80d, 2017-08-06">
  <metadata
     id="metadata10">
    <rdf:RDF>
      <cc:Work
         rdf:about="">
        <dc:format>image/svg+xml</dc:format>
        <dc:type
           rdf:resource="http://purl.org/dc/dcmitype/StillImage" />
        <dc:title></dc:title>
      </cc:Work>
    </rdf:RDF>
  </metadata>
  <sodipodi:namedview
     pagecolor="#ffffff"
     bordercolor="#666666"
     borderopacity="1"
     objecttolerance="10"
     gridtolerance="10"
     guidetolerance="10"
     inkscape:pageopacity="0"
     inkscape:pageshadow="2"
     inkscape:window-width="1366"
     inkscape:window-height="717"
     id="namedview8"
     showgrid="false"
     inkscape:zoom="0.61458333"
     inkscape:cx="553.14837"
     inkscape:cy="258.5387"
     inkscape:window-x="0"
     inkscape:window-y="24"
     inkscape:window-maximized="1"
     inkscape:current-layer="svg6" />
  <defs
     id="defs3051">
    <style
       type="text/css"
       id="current-color-scheme">
      .ColorScheme-Text {
        color:#4d4d4d;
      }
      </style>
  </defs>
  <g
     id="g863"
     transform="matrix(0.125,0,0,0.125,-9.2558159e-8,56)">
    <path
       id="path850"
       d="m 432.91324,-391.52606 c 102.19296,88.57458 105.8268,249.69973 8.1168,359.898828 C 343.32004,78.571841 181.27964,96.100609 79.086742,7.5260163 -23.106203,-81.048568 -26.740035,-242.17373 70.969942,-352.3728 168.67988,-462.57189 330.72036,-480.10065 432.91324,-391.52606 Z"
       inkscape:connector-curvature="0"
       style="fill:#3689e6;fill-opacity:1;stroke-width:11.10955906" />
    <path
       id="path852"
       d="m 511.63548,-223.09649 c -1.55136,61.31161 -25.1612,124.154569 -70.96632,175.814442 C 342.95908,62.917073 180.91868,80.445801 78.725758,-8.1287439 30.827126,-49.64436 4.4968212,-107.0772 0.19382915,-167.77119 0.79910915,-101.41456 27.117406,-37.517824 79.078686,7.5190163 181.27156,96.093609 343.31972,78.556153 441.02204,-31.634232 490.727,-87.692376 514.027,-156.92524 511.63548,-223.09649 Z"
       inkscape:connector-curvature="0"
       style="opacity:1;fill:#000000;fill-opacity:0.49019608;stroke-width:11.10955906" />
    <g
       style="fill:#000000;fill-opacity:0.49019608"
       transform="translate(19.999956,20.000036)"
       id="g851">
      <g
         transform="matrix(10.487132,0,0,10.487132,-1008.6909,2575.2241)"
         id="g847"
         style="font-style:normal;font-weight:normal;font-size:40px;line-height:1.25;font-family:sans-serif;letter-spacing:0px;word-spacing:0px;fill:#000000;fill-opacity:0.49019608;stroke:none"
         aria-label="T">
        <path
           inkscape:connector-curvature="0"
           id="path845"
           style="font-style:normal;font-variant:normal;font-weight:normal;font-stretch:normal;font-family:'Comic Sans MS';-inkscape-font-specification:'Comic Sans MS';fill:#000000;fill-opacity:0.49019608"
           d="m 130.15039,-273.81738 q -1.44531,0 -4.45312,-0.23437 -2.92969,-0.21485 -4.45313,-0.19531 h -1.38672 q 0.0586,2.69531 0.52735,8.75 0.42968,5.64453 0.42968,8.76953 0,0.68359 0.13672,2.07031 0.13672,1.38672 0.13672,2.08984 0,1.32813 -0.42969,2.28516 -0.54687,1.28906 -1.69922,1.28906 -0.78125,0 -1.40625,-0.54687 -0.625,-0.54688 -0.625,-1.40625 0,-0.29297 0.0977,-0.87891 0.0977,-0.58594 0.0977,-0.87891 0,-0.95703 -0.13672,-2.87109 -0.11719,-1.91406 -0.11719,-2.89062 0,-2.79297 -0.44922,-7.85157 -0.46875,-5.46875 -0.52734,-7.85156 l -1.77735,0.0195 q -4.27734,0 -6.71875,-0.625 -1.58203,-0.41015 -1.58203,-1.93359 0,-0.80078 0.50782,-1.40625 0.58593,-0.6836 1.5039,-0.625 0.6836,0.0391 3.125,0.35156 1.95313,0.23438 3.16406,0.23438 1.17188,0 3.55469,-0.0391 2.38281,-0.0586 3.55469,-0.0586 1.50391,0 4.45312,0.21484 2.96875,0.21485 4.47266,0.21485 0.83984,0 1.40625,0.58593 0.56641,0.56641 0.56641,1.42579 0,0.83984 -0.56641,1.42578 -0.56641,0.5664 -1.40625,0.5664 z" />
      </g>
      <path
         sodipodi:nodetypes="ccssscc"
         inkscape:connector-curvature="0"
         id="path849"
         class="ColorScheme-Text"
         d="m 355.7727,-258.16947 c -10.87559,38.06247 -37.51921,70.7837 -49.25486,96.98141 -4.10695,7.78911 -6.63718,16.53083 -6.63718,25.98106 0,30.96419 24.92785,55.892033 55.89204,55.892033 30.96418,0 55.89202,-24.927843 55.89202,-55.892033 0,-9.45023 -2.53023,-18.19195 -6.63717,-25.98106 -11.73566,-26.19771 -38.37939,-58.91894 -49.25485,-96.98141 z"
         style="color:#4d4d4d;fill:#000000;fill-opacity:0.49019608;stroke:none;stroke-width:22.35681152" />
    </g>
    <g
       id="g843">
      <g
         aria-label="T"
         style="font-style:normal;font-weight:normal;font-size:40px;line-height:1.25;font-family:sans-serif;letter-spacing:0px;word-spacing:0px;fill:#ffffff;fill-opacity:1;stroke:none"
         id="flowRoot829"
         transform="matrix(10.487132,0,0,10.487132,-1008.6909,2575.2241)">
        <path
           d="m 130.15039,-273.81738 q -1.44531,0 -4.45312,-0.23437 -2.92969,-0.21485 -4.45313,-0.19531 h -1.38672 q 0.0586,2.69531 0.52735,8.75 0.42968,5.64453 0.42968,8.76953 0,0.68359 0.13672,2.07031 0.13672,1.38672 0.13672,2.08984 0,1.32813 -0.42969,2.28516 -0.54687,1.28906 -1.69922,1.28906 -0.78125,0 -1.40625,-0.54687 -0.625,-0.54688 -0.625,-1.40625 0,-0.29297 0.0977,-0.87891 0.0977,-0.58594 0.0977,-0.87891 0,-0.95703 -0.13672,-2.87109 -0.11719,-1.91406 -0.11719,-2.89062 0,-2.79297 -0.44922,-7.85157 -0.46875,-5.46875 -0.52734,-7.85156 l -1.77735,0.0195 q -4.27734,0 -6.71875,-0.625 -1.58203,-0.41015 -1.58203,-1.93359 0,-0.80078 0.50782,-1.40625 0.58593,-0.6836 1.5039,-0.625 0.6836,0.0391 3.125,0.35156 1.95313,0.23438 3.16406,0.23438 1.17188,0 3.55469,-0.0391 2.38281,-0.0586 3.55469,-0.0586 1.50391,0 4.45312,0.21484 2.96875,0.21485 4.47266,0.21485 0.83984,0 1.40625,0.58593 0.56641,0.56641 0.56641,1.42579 0,0.83984 -0.56641,1.42578 -0.56641,0.5664 -1.40625,0.5664 z"
           style="font-style:normal;font-variant:normal;font-weight:normal;font-stretch:normal;font-family:'Comic Sans MS';-inkscape-font-specification:'Comic Sans MS';fill:#ffffff"
           id="path837"
           inkscape:connector-curvature="0" />
      </g>
      <path
         style="color:#4d4d4d;fill:#ffffff;fill-opacity:1;stroke:none;stroke-width:22.35681152"
         d="m 355.7727,-258.16947 c -10.87559,38.06247 -37.51921,70.7837 -49.25486,96.98141 -4.10695,7.78911 -6.63718,16.53083 -6.63718,25.98106 0,30.96419 24.92785,55.892033 55.89204,55.892033 30.96418,0 55.89202,-24.927843 55.89202,-55.892033 0,-9.45023 -2.53023,-18.19195 -6.63717,-25.98106 -11.73566,-26.19771 -38.37939,-58.91894 -49.25485,-96.98141 z"
         class="ColorScheme-Text"
         id="path4"
         inkscape:connector-curvature="0"
         sodipodi:nodetypes="ccssscc" />
    </g>
  </g>
</svg>
