<?xml version="1.0" encoding="UTF-8" standalone="no"?>
<svg
   xmlns:dc="http://purl.org/dc/elements/1.1/"
   xmlns:cc="http://creativecommons.org/ns#"
   xmlns:rdf="http://www.w3.org/1999/02/22-rdf-syntax-ns#"
   xmlns:svg="http://www.w3.org/2000/svg"
   xmlns="http://www.w3.org/2000/svg"
   xmlns:sodipodi="http://sodipodi.sourceforge.net/DTD/sodipodi-0.dtd"
   xmlns:inkscape="http://www.inkscape.org/namespaces/inkscape"
   viewBox="0 0 64 64"
   version="1.1"
   id="svg8"
   sodipodi:docname="format-text-uppercase.svg"
   width="64"
   height="64"
   inkscape:version="0.92.2 5c3e80d, 2017-08-06">
  <metadata
     id="metadata12">
    <rdf:RDF>
      <cc:Work
         rdf:about="">
        <dc:format>image/svg+xml</dc:format>
        <dc:type
           rdf:resource="http://purl.org/dc/dcmitype/StillImage" />
        <dc:title></dc:title>
      </cc:Work>
    </rdf:RDF>
  </metadata>
  <sodipodi:namedview
     pagecolor="#ffffff"
     bordercolor="#666666"
     borderopacity="1"
     objecttolerance="10"
     gridtolerance="10"
     guidetolerance="10"
     inkscape:pageopacity="0"
     inkscape:pageshadow="2"
     inkscape:window-width="1366"
     inkscape:window-height="717"
     id="namedview10"
     showgrid="false"
     inkscape:zoom="0.43457604"
     inkscape:cx="141.39861"
     inkscape:cy="253.85455"
     inkscape:window-x="0"
     inkscape:window-y="24"
     inkscape:window-maximized="1"
     inkscape:current-layer="svg8" />
  <defs
     id="defs3051">
    <style
       type="text/css"
       id="current-color-scheme">
      .ColorScheme-Text {
        color:#4d4d4d;
      }
      .ColorScheme-Highlight {
        color:#3daee9;
      }
      </style>
  </defs>
  <g
     id="g876"
     transform="matrix(0.125,0,0,0.125,2.3500741e-7,56)">
    <path
       id="path850"
       d="m 432.91327,-391.52606 c 102.19288,88.57456 105.8268,249.69968 8.1168,359.898804 C 343.32007,78.571868 181.27958,96.100588 79.086699,7.5260254 -23.106184,-81.048618 -26.740024,-242.17374 70.969899,-352.37279 168.6799,-462.57191 330.72031,-480.10071 432.91327,-391.52606 Z"
       inkscape:connector-curvature="0"
       style="fill:#3689e6;fill-opacity:1;stroke-width:11.10955906" />
    <path
       id="path852"
       d="m 511.63551,-223.09654 c -1.55136,61.31168 -25.1612,124.154642 -70.9664,175.814484 C 342.95911,62.917067 180.9187,80.445788 78.725739,-8.1287752 30.827098,-49.644377 4.4967764,-107.07718 0.19381621,-167.77118 0.79941623,-101.41454 27.117417,-37.517816 79.078699,7.5189854 181.27158,96.093628 343.31975,78.556108 441.02199,-31.634216 490.72695,-87.692378 514.02703,-156.92526 511.63551,-223.09654 Z"
       inkscape:connector-curvature="0"
       style="opacity:1;fill:#000000;fill-opacity:0.49019608;stroke-width:11.10955906" />
    <g
       style="fill:#000000;fill-opacity:0.49019608"
       transform="translate(19.999995,19.999963)"
       id="g862">
      <path
         inkscape:connector-curvature="0"
         id="path853"
         d="m 264.505,-250.47813 c 1.23107,3.45871 4.27731,6.54285 7.48594,7.57912 3.01264,0.97295 4.91605,0.99745 7.89293,0.10166 4.16751,-1.25424 2.0255,1.14367 36.63134,-41.00803 7.9151,-9.64101 10.97427,-13.3598 18.25166,-22.18735 l 1.00511,-1.21918 1.34437,1.51797 c 1.58886,1.79398 3.16627,3.72906 29.02854,35.61091 10.90819,13.4471 20.50888,25.01793 21.33491,25.71295 1.50109,1.26311 5.58514,2.7508 7.55153,2.7508 0.57318,0 2.19236,-0.34144 3.59813,-0.75904 5.17667,-1.53729 8.83355,-6.57953 8.8222,-12.16442 -0.007,-3.71606 -1.13134,-6.23022 -4.75418,-10.63629 -1.53416,-1.8658 -3.44773,-4.20832 -4.2524,-5.20562 -25.94065,-32.15039 -51.68797,-63.76929 -53.32589,-65.4867 -3.44734,-3.61458 -7.93116,-4.75443 -12.99826,-3.30424 -3.14908,0.90124 -6.34297,4.09469 -16.0939,16.09167 -7.06394,8.69105 -10.97949,13.46898 -17.80322,21.72416 -1.77372,2.14576 -5.92337,7.19322 -9.2215,11.21658 -3.29813,4.02335 -6.45931,7.8638 -7.02487,8.53435 -7.31113,8.66851 -16.70662,20.55076 -17.21845,21.7758 -1.17018,2.80063 -1.27059,6.49894 -0.25413,9.35501 z"
         style="fill:#000000;fill-opacity:0.49019608;stroke-width:0.48767766" />
      <g
         transform="matrix(6.1988361,0,0,6.1988361,-315.24937,1606.7344)"
         id="g860"
         style="font-style:normal;font-weight:normal;font-size:40px;line-height:1.25;font-family:sans-serif;letter-spacing:0px;word-spacing:0px;fill:#000000;fill-opacity:0.49019608;stroke:none"
         aria-label="AB">
        <path
           inkscape:connector-curvature="0"
           id="path856"
           style="font-style:normal;font-variant:normal;font-weight:normal;font-stretch:normal;font-family:'Comic Sans MS';-inkscape-font-specification:'Comic Sans MS';fill:#000000;fill-opacity:0.49019608"
           d="m 88.84375,-266.97167 q -1.796875,0 -3.125,-4.60938 -0.507813,-1.75781 -1.269531,-6.15234 -1.992188,0.27344 -5.214844,0.97656 l -5.195313,1.07422 q -0.976562,2.55859 -3.339843,7.48047 -0.625,1.09375 -1.699219,1.09375 -0.78125,0 -1.40625,-0.56641 -0.605469,-0.5664 -0.605469,-1.40625 0,-0.9375 2.949219,-7.1289 -0.332031,-0.50782 -0.332031,-1.17188 0,-1.58203 1.914062,-2.03125 2.226563,-4.17969 5.625,-9.60937 4.628906,-7.40235 5.761719,-7.40235 1.542969,0 2.109375,2.14844 l 1.230469,6.5625 2.910156,13.57422 1.113281,3.08594 q 0.566406,1.58203 0.566406,2.10937 0,0.83984 -0.605468,1.40625 -0.605469,0.56641 -1.386719,0.56641 z m -6.894531,-22.32422 -5.585938,9.0039 q 2.363281,-0.60546 7.167969,-1.46484 z" />
        <path
           inkscape:connector-curvature="0"
           id="path858"
           style="font-style:normal;font-variant:normal;font-weight:normal;font-stretch:normal;font-family:'Comic Sans MS';-inkscape-font-specification:'Comic Sans MS';fill:#000000;fill-opacity:0.49019608"
           d="m 111.03125,-268.33886 q -4.39453,1.71875 -11.230469,1.71875 -0.839844,0 -1.601562,-0.80078 -0.742188,-0.78125 -0.742188,-1.6211 v -5.68359 q 0,-2.79297 0.351563,-7.96875 0.390625,-5.58594 0.429687,-8.08594 -0.01953,-1.79687 0.214844,-5.35156 0.136719,-0.97656 0.644531,-1.28906 2.656254,-0.82031 6.035154,-0.82031 3.4375,0 6.60157,2.34375 3.65234,2.69531 3.65234,6.66015 0,5.01953 -3.90625,7.91016 2.92969,1.25 4.375,2.77344 1.46484,1.52343 1.46484,3.32031 0,2.36328 -2.55859,4.57031 -1.77734,1.5625 -3.73047,2.32422 z m -5.89844,-25.91797 q -2.1289,0 -2.98828,0.13672 l -0.0391,3.41797 -0.39063,7.55859 q 2.77344,0.23438 2.96875,0.21485 2.94922,-0.23438 4.82422,-1.83594 2.01172,-1.73828 2.01172,-4.47266 0,-1.85547 -2.05078,-3.4375 -2.05078,-1.58203 -4.33594,-1.58203 z m 2.1875,15.64453 -2.07031,-0.33203 q -0.25391,0 -0.78125,0.0391 -0.50781,0.0195 -0.78125,0.0195 -1.05469,0 -2.24609,-0.17578 -0.11719,2.46094 -0.11719,4.39453 v 4.04297 q 5.11719,-0.17578 8.33984,-1.44531 1.36719,-0.52734 2.61719,-1.64062 1.19141,-1.01563 1.19141,-1.52344 0,-0.91797 -2.5,-2.07031 -1.875,-0.87891 -3.65235,-1.3086 z" />
      </g>
    </g>
    <g
       id="g851">
      <path
         style="fill:#ffffff;stroke-width:0.48767766"
         d="m 264.505,-250.47813 c 1.23107,3.45871 4.27731,6.54285 7.48594,7.57912 3.01264,0.97295 4.91605,0.99745 7.89293,0.10166 4.16751,-1.25424 2.0255,1.14367 36.63134,-41.00803 7.9151,-9.64101 10.97427,-13.3598 18.25166,-22.18735 l 1.00511,-1.21918 1.34437,1.51797 c 1.58886,1.79398 3.16627,3.72906 29.02854,35.61091 10.90819,13.4471 20.50888,25.01793 21.33491,25.71295 1.50109,1.26311 5.58514,2.7508 7.55153,2.7508 0.57318,0 2.19236,-0.34144 3.59813,-0.75904 5.17667,-1.53729 8.83355,-6.57953 8.8222,-12.16442 -0.007,-3.71606 -1.13134,-6.23022 -4.75418,-10.63629 -1.53416,-1.8658 -3.44773,-4.20832 -4.2524,-5.20562 -25.94065,-32.15039 -51.68797,-63.76929 -53.32589,-65.4867 -3.44734,-3.61458 -7.93116,-4.75443 -12.99826,-3.30424 -3.14908,0.90124 -6.34297,4.09469 -16.0939,16.09167 -7.06394,8.69105 -10.97949,13.46898 -17.80322,21.72416 -1.77372,2.14576 -5.92337,7.19322 -9.2215,11.21658 -3.29813,4.02335 -6.45931,7.8638 -7.02487,8.53435 -7.31113,8.66851 -16.70662,20.55076 -17.21845,21.7758 -1.17018,2.80063 -1.27059,6.49894 -0.25413,9.35501 z"
         id="path855"
         inkscape:connector-curvature="0" />
      <g
         aria-label="AB"
         style="font-style:normal;font-weight:normal;font-size:40px;line-height:1.25;font-family:sans-serif;letter-spacing:0px;word-spacing:0px;fill:#ffffff;fill-opacity:1;stroke:none"
         id="flowRoot834"
         transform="matrix(6.1988361,0,0,6.1988361,-315.24937,1606.7344)">
        <path
           d="m 88.84375,-266.97167 q -1.796875,0 -3.125,-4.60938 -0.507813,-1.75781 -1.269531,-6.15234 -1.992188,0.27344 -5.214844,0.97656 l -5.195313,1.07422 q -0.976562,2.55859 -3.339843,7.48047 -0.625,1.09375 -1.699219,1.09375 -0.78125,0 -1.40625,-0.56641 -0.605469,-0.5664 -0.605469,-1.40625 0,-0.9375 2.949219,-7.1289 -0.332031,-0.50782 -0.332031,-1.17188 0,-1.58203 1.914062,-2.03125 2.226563,-4.17969 5.625,-9.60937 4.628906,-7.40235 5.761719,-7.40235 1.542969,0 2.109375,2.14844 l 1.230469,6.5625 2.910156,13.57422 1.113281,3.08594 q 0.566406,1.58203 0.566406,2.10937 0,0.83984 -0.605468,1.40625 -0.605469,0.56641 -1.386719,0.56641 z m -6.894531,-22.32422 -5.585938,9.0039 q 2.363281,-0.60546 7.167969,-1.46484 z"
           style="font-style:normal;font-variant:normal;font-weight:normal;font-stretch:normal;font-family:'Comic Sans MS';-inkscape-font-specification:'Comic Sans MS';fill:#ffffff"
           id="path842"
           inkscape:connector-curvature="0" />
        <path
           d="m 111.03125,-268.33886 q -4.39453,1.71875 -11.230469,1.71875 -0.839844,0 -1.601562,-0.80078 -0.742188,-0.78125 -0.742188,-1.6211 v -5.68359 q 0,-2.79297 0.351563,-7.96875 0.390625,-5.58594 0.429687,-8.08594 -0.01953,-1.79687 0.214844,-5.35156 0.136719,-0.97656 0.644531,-1.28906 2.656254,-0.82031 6.035154,-0.82031 3.4375,0 6.60157,2.34375 3.65234,2.69531 3.65234,6.66015 0,5.01953 -3.90625,7.91016 2.92969,1.25 4.375,2.77344 1.46484,1.52343 1.46484,3.32031 0,2.36328 -2.55859,4.57031 -1.77734,1.5625 -3.73047,2.32422 z m -5.89844,-25.91797 q -2.1289,0 -2.98828,0.13672 l -0.0391,3.41797 -0.39063,7.55859 q 2.77344,0.23438 2.96875,0.21485 2.94922,-0.23438 4.82422,-1.83594 2.01172,-1.73828 2.01172,-4.47266 0,-1.85547 -2.05078,-3.4375 -2.05078,-1.58203 -4.33594,-1.58203 z m 2.1875,15.64453 -2.07031,-0.33203 q -0.25391,0 -0.78125,0.0391 -0.50781,0.0195 -0.78125,0.0195 -1.05469,0 -2.24609,-0.17578 -0.11719,2.46094 -0.11719,4.39453 v 4.04297 q 5.11719,-0.17578 8.33984,-1.44531 1.36719,-0.52734 2.61719,-1.64062 1.19141,-1.01563 1.19141,-1.52344 0,-0.91797 -2.5,-2.07031 -1.875,-0.87891 -3.65235,-1.3086 z"
           style="font-style:normal;font-variant:normal;font-weight:normal;font-stretch:normal;font-family:'Comic Sans MS';-inkscape-font-specification:'Comic Sans MS';fill:#ffffff"
           id="path844"
           inkscape:connector-curvature="0" />
      </g>
    </g>
  </g>
</svg>
