<?xml version="1.0" encoding="UTF-8" standalone="no"?>
<svg
   xmlns:dc="http://purl.org/dc/elements/1.1/"
   xmlns:cc="http://creativecommons.org/ns#"
   xmlns:rdf="http://www.w3.org/1999/02/22-rdf-syntax-ns#"
   xmlns:svg="http://www.w3.org/2000/svg"
   xmlns="http://www.w3.org/2000/svg"
   xmlns:sodipodi="http://sodipodi.sourceforge.net/DTD/sodipodi-0.dtd"
   xmlns:inkscape="http://www.inkscape.org/namespaces/inkscape"
   viewBox="0 0 64 64"
   version="1.1"
   id="svg6"
   sodipodi:docname="gnumeric-bucket.svg"
   width="64"
   height="64"
   inkscape:version="0.92.2 5c3e80d, 2017-08-06">
  <metadata
     id="metadata10">
    <rdf:RDF>
      <cc:Work
         rdf:about="">
        <dc:format>image/svg+xml</dc:format>
        <dc:type
           rdf:resource="http://purl.org/dc/dcmitype/StillImage" />
        <dc:title></dc:title>
      </cc:Work>
    </rdf:RDF>
  </metadata>
  <sodipodi:namedview
     pagecolor="#ffffff"
     bordercolor="#666666"
     borderopacity="1"
     objecttolerance="10"
     gridtolerance="10"
     guidetolerance="10"
     inkscape:pageopacity="0"
     inkscape:pageshadow="2"
     inkscape:window-width="1366"
     inkscape:window-height="717"
     id="namedview8"
     showgrid="false"
     inkscape:zoom="0.61458333"
     inkscape:cx="425.15811"
     inkscape:cy="224.45397"
     inkscape:window-x="0"
     inkscape:window-y="24"
     inkscape:window-maximized="1"
     inkscape:current-layer="svg6" />
  <defs
     id="defs3051">
    <style
       type="text/css"
       id="current-color-scheme">
      .ColorScheme-Text {
        color:#4d4d4d;
      }
      </style>
  </defs>
  <g
     id="g875"
     transform="matrix(0.125,0,0,0.125,-1.576692e-8,61)">
    <path
       style="fill:#3689e6;fill-opacity:1;stroke-width:11.10955811"
       inkscape:connector-curvature="0"
       d="m 432.91327,-431.52603 c 102.19291,88.57459 105.82678,249.6997 8.1168,359.89879 C 343.3201,38.57184 181.27964,56.100608 79.086729,-32.473976 -23.106186,-121.04857 -26.740042,-282.17369 70.969928,-392.37277 168.6799,-502.57185 330.72036,-520.10062 432.91327,-431.52603 Z"
       id="path27" />
    <path
       style="opacity:1;fill:#000000;fill-opacity:0.49019608;stroke-width:11.10955811"
       inkscape:connector-curvature="0"
       d="m 511.63551,-263.09649 c -1.55139,61.31165 -25.16123,124.15462 -70.96638,175.814482 C 342.95915,22.917112 180.91869,40.44584 78.725776,-48.128712 30.827124,-89.64436 4.4968217,-147.07716 0.19382792,-207.7712 0.79907952,-141.41452 27.117412,-77.517824 79.078682,-32.480936 181.27159,56.093616 343.31975,38.556192 441.02202,-71.634232 490.72697,-127.69234 514.02704,-196.9252 511.63551,-263.09649 Z"
       id="path51" />
    <g
       style="fill:#000000;fill-opacity:0.49019608"
       transform="translate(20,20)"
       id="g861">
      <g
         style="fill:#000000;fill-opacity:0.49019608"
         transform="translate(1.576692e-8,-40)"
         id="g857">
        <path
           style="opacity:1;fill:#000000;fill-opacity:0.49019608;stroke:none;stroke-width:4.09563732;stroke-miterlimit:4;stroke-dasharray:none;stroke-dashoffset:0;stroke-opacity:1"
           d="m 114,-64 h 284 c 7.756,0 14,6.244 14,14 v 0 c 0,7.756 -6.244,14 -14,14 H 114 c -7.756,0 -14,-6.244 -14,-14 v 0 c 0,-7.756 6.244,-14 14,-14 z"
           id="path853"
           inkscape:connector-curvature="0" />
        <path
           inkscape:connector-curvature="0"
           style="fill:#000000;fill-opacity:0.49019608;stroke-width:0.65307224"
           d="m 322.70911,-348.00015 c -6.84587,0.004 -12.8297,0.93368 -16.50958,2.84495 -1.25718,0.65288 -35.10113,34.04718 -75.20979,74.21048 -69.35468,69.44921 -73.04105,73.25755 -75.28444,77.77735 -11.47073,23.11025 -32.54995,85.02337 -37.51599,110.188401 -2.65386,13.448512 -2.37512,17.660544 1.23757,18.694872 3.20754,0.918336 12.37784,-0.41008 25.46406,-3.689536 30.21346,-7.571592 80.40153,-25.192248 101.22683,-35.540527 3.85008,-1.91313 11.03769,-8.89353 77.26879,-75.03373 40.16332,-40.1082 73.55932,-73.95262 74.21226,-75.20978 4.39317,-8.45845 3.64333,-28.76946 -1.62873,-44.13225 -7.63503,-22.24848 -23.38982,-38.0015 -45.63831,-45.63653 -8.59327,-2.94899 -18.82083,-4.47793 -27.62267,-4.4737 z m 10.61522,21.84567 a 4.5523727,4.5523727 0 0 1 3.44773,7.75425 l -135.29153,140.22929 a 4.5523727,4.5523727 0 1 1 -6.55228,-6.32112 l 135.29152,-140.22929 a 4.5523727,4.5523727 0 0 1 3.10456,-1.43313 z m 34.56435,33.57572 a 4.5523727,4.5523727 0 0 1 3.44771,7.75426 l -135.29153,140.22928 a 4.5523727,4.5523727 0 1 1 -6.55226,-6.32112 l 135.29151,-140.22928 a 4.5523727,4.5523727 0 0 1 3.10457,-1.43314 z m -205.31994,120.3911 2.70092,2.31329 c 3.34067,2.8595 8.27278,4.75565 13.85135,5.32717 3.63912,0.37288 4.17348,0.5892 3.70021,1.49183 -1.96215,3.7421 -1.10803,11.13708 1.98791,17.21726 1.81831,3.57107 9.8886,11.64793 13.45127,13.46195 5.99683,3.05344 13.5062,3.91976 17.2386,1.98968 0.90151,-0.46616 1.11766,0.0744 1.49004,3.70911 0.56856,5.54969 2.46606,10.50618 5.27916,13.79266 l 2.26351,2.64403 -4.39011,1.95234 c -6.70314,2.9806 -19.18267,7.64357 -35.41248,13.232571 -8.08177,2.783088 -15.57606,5.247896 -16.65362,5.478312 -1.8508,0.39576 -2.64519,-0.2676 -14.36522,-12.005693 l -12.40753,-12.42709 5.14047,-15.1778 c 4.51621,-13.33889 11.89849,-33.20807 15.05512,-40.51918 z"
           id="path855" />
      </g>
      <path
         sodipodi:nodetypes="ccssscc"
         inkscape:connector-curvature="0"
         id="path859"
         class="ColorScheme-Text"
         d="m 367.20023,-253.30805 c -8.46279,29.61785 -29.19502,55.07947 -38.32706,75.4649 -3.19577,6.06102 -5.16463,12.86327 -5.16463,20.21685 0,24.0944 19.39729,43.4917 43.49169,43.4917 24.09439,0 43.49169,-19.3973 43.49169,-43.4917 0,-7.35358 -1.96871,-14.15583 -5.16464,-20.21685 -9.13187,-20.38543 -29.86444,-45.84705 -38.32705,-75.4649 z"
         style="color:#4d4d4d;fill:#000000;fill-opacity:0.49019608;stroke:none;stroke-width:17.39667892" />
    </g>
    <g
       id="g851">
      <g
         id="g856"
         transform="translate(1.576692e-8,-40)">
        <path
           inkscape:connector-curvature="0"
           id="rect862"
           d="m 114,-64 h 284 c 7.756,0 14,6.244 14,14 v 0 c 0,7.756 -6.244,14 -14,14 H 114 c -7.756,0 -14,-6.244 -14,-14 v 0 c 0,-7.756 6.244,-14 14,-14 z"
           style="opacity:1;fill:#f7fafe;fill-opacity:1;stroke:none;stroke-width:4.09563732;stroke-miterlimit:4;stroke-dasharray:none;stroke-dashoffset:0;stroke-opacity:1" />
        <path
           id="path928-3"
           d="m 322.70911,-348.00015 c -6.84587,0.004 -12.8297,0.93368 -16.50958,2.84495 -1.25718,0.65288 -35.10113,34.04718 -75.20979,74.21048 -69.35468,69.44921 -73.04105,73.25755 -75.28444,77.77735 -11.47073,23.11025 -32.54995,85.02337 -37.51599,110.188401 -2.65386,13.448512 -2.37512,17.660544 1.23757,18.694872 3.20754,0.918336 12.37784,-0.41008 25.46406,-3.689536 30.21346,-7.571592 80.40153,-25.192248 101.22683,-35.540527 3.85008,-1.91313 11.03769,-8.89353 77.26879,-75.03373 40.16332,-40.1082 73.55932,-73.95262 74.21226,-75.20978 4.39317,-8.45845 3.64333,-28.76946 -1.62873,-44.13225 -7.63503,-22.24848 -23.38982,-38.0015 -45.63831,-45.63653 -8.59327,-2.94899 -18.82083,-4.47793 -27.62267,-4.4737 z m 10.61522,21.84567 a 4.5523727,4.5523727 0 0 1 3.44773,7.75425 l -135.29153,140.22929 a 4.5523727,4.5523727 0 1 1 -6.55228,-6.32112 l 135.29152,-140.22929 a 4.5523727,4.5523727 0 0 1 3.10456,-1.43313 z m 34.56435,33.57572 a 4.5523727,4.5523727 0 0 1 3.44771,7.75426 l -135.29153,140.22928 a 4.5523727,4.5523727 0 1 1 -6.55226,-6.32112 l 135.29151,-140.22928 a 4.5523727,4.5523727 0 0 1 3.10457,-1.43314 z m -205.31994,120.3911 2.70092,2.31329 c 3.34067,2.8595 8.27278,4.75565 13.85135,5.32717 3.63912,0.37288 4.17348,0.5892 3.70021,1.49183 -1.96215,3.7421 -1.10803,11.13708 1.98791,17.21726 1.81831,3.57107 9.8886,11.64793 13.45127,13.46195 5.99683,3.05344 13.5062,3.91976 17.2386,1.98968 0.90151,-0.46616 1.11766,0.0744 1.49004,3.70911 0.56856,5.54969 2.46606,10.50618 5.27916,13.79266 l 2.26351,2.64403 -4.39011,1.95234 c -6.70314,2.9806 -19.18267,7.64357 -35.41248,13.232571 -8.08177,2.783088 -15.57606,5.247896 -16.65362,5.478312 -1.8508,0.39576 -2.64519,-0.2676 -14.36522,-12.005693 l -12.40753,-12.42709 5.14047,-15.1778 c 4.51621,-13.33889 11.89849,-33.20807 15.05512,-40.51918 z"
           style="fill:#ffffff;stroke-width:0.65307224"
           inkscape:connector-curvature="0" />
      </g>
      <path
         style="color:#4d4d4d;fill:#ffffff;fill-opacity:1;stroke:none;stroke-width:17.39667892"
         d="m 367.20023,-253.30805 c -8.46279,29.61785 -29.19502,55.07947 -38.32706,75.4649 -3.19577,6.06102 -5.16463,12.86327 -5.16463,20.21685 0,24.0944 19.39729,43.4917 43.49169,43.4917 24.09439,0 43.49169,-19.3973 43.49169,-43.4917 0,-7.35358 -1.96871,-14.15583 -5.16464,-20.21685 -9.13187,-20.38543 -29.86444,-45.84705 -38.32705,-75.4649 z"
         class="ColorScheme-Text"
         id="path4"
         inkscape:connector-curvature="0"
         sodipodi:nodetypes="ccssscc" />
    </g>
  </g>
</svg>
