<?xml version="1.0" encoding="UTF-8" standalone="no"?>
<svg
   xmlns:dc="http://purl.org/dc/elements/1.1/"
   xmlns:cc="http://creativecommons.org/ns#"
   xmlns:rdf="http://www.w3.org/1999/02/22-rdf-syntax-ns#"
   xmlns:svg="http://www.w3.org/2000/svg"
   xmlns="http://www.w3.org/2000/svg"
   xmlns:sodipodi="http://sodipodi.sourceforge.net/DTD/sodipodi-0.dtd"
   xmlns:inkscape="http://www.inkscape.org/namespaces/inkscape"
   viewBox="0 0 64 64"
   version="1.1"
   id="svg6"
   sodipodi:docname="gnumeric-object-checkbox.svg"
   width="64"
   height="64"
   inkscape:version="0.92.2 5c3e80d, 2017-08-06">
  <metadata
     id="metadata10">
    <rdf:RDF>
      <cc:Work
         rdf:about="">
        <dc:format>image/svg+xml</dc:format>
        <dc:type
           rdf:resource="http://purl.org/dc/dcmitype/StillImage" />
        <dc:title></dc:title>
      </cc:Work>
    </rdf:RDF>
  </metadata>
  <sodipodi:namedview
     pagecolor="#ffffff"
     bordercolor="#666666"
     borderopacity="1"
     objecttolerance="10"
     gridtolerance="10"
     guidetolerance="10"
     inkscape:pageopacity="0"
     inkscape:pageshadow="2"
     inkscape:window-width="1366"
     inkscape:window-height="717"
     id="namedview8"
     showgrid="false"
     inkscape:zoom="0.43457604"
     inkscape:cx="683.13356"
     inkscape:cy="71.808539"
     inkscape:window-x="0"
     inkscape:window-y="24"
     inkscape:window-maximized="1"
     inkscape:current-layer="svg6" />
  <defs
     id="defs3051">
    <style
       type="text/css"
       id="current-color-scheme">
      .ColorScheme-Text {
        color:#4d4d4d;
      }
      </style>
  </defs>
  <g
     id="g865"
     transform="matrix(0.125,0,0,0.125,2.3500741e-7,56)">
    <path
       id="path850"
       d="m 432.91327,-391.52607 c 102.19288,88.57458 105.8268,249.69974 8.1168,359.898836 C 343.32007,78.571841 181.27958,96.10061 79.086699,7.526015 -23.106184,-81.04857 -26.740024,-242.17374 70.969899,-352.37281 168.6799,-462.5719 330.72031,-480.10066 432.91327,-391.52607 Z"
       inkscape:connector-curvature="0"
       style="fill:#3689e6;fill-opacity:1;stroke-width:11.10955906" />
    <path
       id="path852"
       d="m 511.63551,-223.0965 c -1.55144,61.31161 -25.16128,124.15458 -70.9664,175.814449 C 342.95911,62.917073 180.91862,80.445801 78.725739,-8.128746 30.827098,-49.644363 4.4967761,-107.0772 0.19381594,-167.7712 0.79941596,-101.41456 27.117417,-37.517827 79.078699,7.519015 181.27158,96.09361 343.31967,78.556153 441.02199,-31.634234 490.72695,-87.69238 514.02703,-156.92525 511.63551,-223.0965 Z"
       inkscape:connector-curvature="0"
       style="opacity:1;fill:#000000;fill-opacity:0.49019608;stroke-width:11.10955906" />
    <path
       style="color:#4d4d4d;fill:#000000;fill-opacity:0.49019608;stroke:none;stroke-width:19.5"
       d="m 159,-328 c -21.606,0 -39,17.394 -39,39 V -55.000001 C 120,-33.394 137.394,-16 159,-16 h 234 c 21.60599,0 39,-17.394 39,-39.000001 V -289 c 0,-21.606 -17.39401,-39 -39,-39 z m 0,19.5 h 234 c 10.80299,0 19.49999,8.697 19.49999,19.5 v 233.999999 c 0,10.803 -8.697,19.500001 -19.5,19.500001 H 159 c -10.803,0 -19.5,-8.697001 -19.5,-19.500001 V -289 c 0,-10.803 8.697,-19.5 19.5,-19.5 z m 35.5,35.5 c -10.803,0 -19.5,8.697 -19.5,19.5 v 163 c 0,10.802999 8.697,19.499999 19.5,19.499999 h 163 c 10.80299,0 19.5,-8.697 19.5,-19.499999 v -163 c 0,-10.803 -8.69701,-19.5 -19.5,-19.5 z"
       class="ColorScheme-Text"
       id="path859"
       inkscape:connector-curvature="0"
       sodipodi:nodetypes="sssssssssssssssssssssssssss" />
    <path
       sodipodi:nodetypes="sssssssssssssssssssssssssss"
       inkscape:connector-curvature="0"
       id="path4"
       class="ColorScheme-Text"
       d="m 139,-348 c -21.606,0 -39,17.394 -39,39 V -75.000001 C 100,-53.394 117.394,-36 139,-36 h 234 c 21.60599,0 39,-17.394 39,-39.000001 V -309 c 0,-21.606 -17.39401,-39 -39,-39 z m 0,19.5 h 234 c 10.80299,0 19.49999,8.697 19.49999,19.5 v 233.999999 c 0,10.803 -8.697,19.500001 -19.5,19.500001 H 139 c -10.803,0 -19.5,-8.697001 -19.5,-19.500001 V -309 c 0,-10.803 8.697,-19.5 19.5,-19.5 z m 35.5,35.5 c -10.803,0 -19.5,8.697 -19.5,19.5 v 163 c 0,10.802999 8.697,19.499999 19.5,19.499999 h 163 c 10.80299,0 19.5,-8.697 19.5,-19.499999 v -163 c 0,-10.803 -8.69701,-19.5 -19.5,-19.5 z"
       style="color:#4d4d4d;fill:#ffffff;fill-opacity:1;stroke:none;stroke-width:19.5" />
  </g>
</svg>
