<?xml version="1.0" encoding="UTF-8" standalone="no"?>
<svg
   xmlns:dc="http://purl.org/dc/elements/1.1/"
   xmlns:cc="http://creativecommons.org/ns#"
   xmlns:rdf="http://www.w3.org/1999/02/22-rdf-syntax-ns#"
   xmlns:svg="http://www.w3.org/2000/svg"
   xmlns="http://www.w3.org/2000/svg"
   xmlns:sodipodi="http://sodipodi.sourceforge.net/DTD/sodipodi-0.dtd"
   xmlns:inkscape="http://www.inkscape.org/namespaces/inkscape"
   viewBox="0 0 64 64"
   version="1.1"
   id="svg10"
   sodipodi:docname="gnumeric-format-border-top-n-double-bottom.svg"
   width="64"
   height="64"
   inkscape:version="0.92.2 5c3e80d, 2017-08-06">
  <metadata
     id="metadata14">
    <rdf:RDF>
      <cc:Work
         rdf:about="">
        <dc:format>image/svg+xml</dc:format>
        <dc:type
           rdf:resource="http://purl.org/dc/dcmitype/StillImage" />
        <dc:title></dc:title>
      </cc:Work>
    </rdf:RDF>
  </metadata>
  <sodipodi:namedview
     pagecolor="#ffffff"
     bordercolor="#666666"
     borderopacity="1"
     objecttolerance="10"
     gridtolerance="10"
     guidetolerance="10"
     inkscape:pageopacity="0"
     inkscape:pageshadow="2"
     inkscape:window-width="1366"
     inkscape:window-height="717"
     id="namedview12"
     showgrid="false"
     inkscape:zoom="2.4583333"
     inkscape:cx="21.594583"
     inkscape:cy="2.9799674"
     inkscape:window-x="0"
     inkscape:window-y="24"
     inkscape:window-maximized="1"
     inkscape:current-layer="svg10" />
  <defs
     id="defs3051">
    <style
       type="text/css"
       id="current-color-scheme">
      .ColorScheme-Text {
        color:#4d4d4d;
      }
      </style>
  </defs>
  <g
     id="g953">
    <path
       style="fill:#3689e6;fill-opacity:1;stroke-width:1.38869488"
       inkscape:connector-curvature="0"
       d="M 54.114155,7.0592412 C 66.888275,18.131064 67.342505,38.271709 55.128755,52.046596 42.915005,65.82148 22.659955,68.012576 9.8858448,56.940752 -2.8882755,45.868929 -3.3425055,25.728284 8.8712448,11.9534 21.084985,-1.8214862 41.340045,-4.0125812 54.114155,7.0592412 Z"
       id="path850" />
    <path
       style="opacity:1;fill:#000000;fill-opacity:0.49019608;stroke-width:1.38869488"
       inkscape:connector-curvature="0"
       d="m 63.954435,28.112939 c -0.19392,7.66395 -3.14515,15.519321 -8.87079,21.976805 C 42.869885,63.864634 22.614835,66.055725 9.8407248,54.983907 3.8533945,49.794455 0.56210447,42.61535 0.02422447,35.028601 c 0.0757,8.294579 3.36545003,16.281671 9.86061033,21.911276 12.7741102,11.071824 33.0301302,8.879642 45.2429202,-4.894156 6.21312,-7.007269 9.12562,-15.661377 8.82668,-23.932782 z"
       id="path852" />
    <ellipse
       style="opacity:1;fill:#000000;fill-opacity:0.49019608;stroke:none;stroke-width:35.07897949;stroke-miterlimit:4;stroke-dasharray:none;stroke-dashoffset:0;stroke-opacity:1"
       id="ellipse909"
       cx="18.119076"
       cy="34.704971"
       rx="3.1190748"
       ry="3.1236949" />
    <ellipse
       cy="50.876305"
       cx="18.119076"
       id="ellipse913"
       style="opacity:1;fill:#000000;fill-opacity:0.49019608;stroke:none;stroke-width:35.07897949;stroke-miterlimit:4;stroke-dasharray:none;stroke-dashoffset:0;stroke-opacity:1"
       rx="3.1190748"
       ry="3.1236949" />
    <ellipse
       cy="34.704971"
       cx="34.587788"
       id="ellipse915"
       style="opacity:1;fill:#000000;fill-opacity:0.49019608;stroke:none;stroke-width:35.07897949;stroke-miterlimit:4;stroke-dasharray:none;stroke-dashoffset:0;stroke-opacity:1"
       rx="3.1190748"
       ry="3.1236949" />
    <ellipse
       style="opacity:1;fill:#000000;fill-opacity:0.49019608;stroke:none;stroke-width:35.07897949;stroke-miterlimit:4;stroke-dasharray:none;stroke-dashoffset:0;stroke-opacity:1"
       id="ellipse919"
       cx="34.587788"
       cy="50.876305"
       rx="3.1190748"
       ry="3.1236949" />
    <ellipse
       style="opacity:1;fill:#000000;fill-opacity:0.49019608;stroke:none;stroke-width:35.07897949;stroke-miterlimit:4;stroke-dasharray:none;stroke-dashoffset:0;stroke-opacity:1"
       id="ellipse921"
       cx="50.845043"
       cy="34.704971"
       rx="3.1190748"
       ry="3.1236949" />
    <ellipse
       cy="50.876305"
       cx="50.845043"
       id="ellipse925"
       style="opacity:1;fill:#000000;fill-opacity:0.49019608;stroke:none;stroke-width:35.07897949;stroke-miterlimit:4;stroke-dasharray:none;stroke-dashoffset:0;stroke-opacity:1"
       rx="3.1190748"
       ry="3.1236949" />
    <path
       id="path927"
       d="m 18.831542,47.838622 a 3.1190749,3.1236949 0 0 1 2.250489,2.073976 h 10.540771 a 3.1190749,3.1236949 0 0 1 2.254395,-2.073976 z m 16.46875,0 a 3.1190749,3.1236949 0 0 1 2.250489,2.073976 h 10.329346 a 3.1190749,3.1236949 0 0 1 2.254394,-2.073976 z m -14.242675,4.073976 a 3.1190749,3.1236949 0 0 1 -2.48291,2.051025 H 34.13916 a 3.1190749,3.1236949 0 0 1 -2.490234,-2.051025 z m 16.46875,0 a 3.1190749,3.1236949 0 0 1 -2.48291,2.051025 H 50.396485 A 3.1190749,3.1236949 0 0 1 47.90625,51.912598 Z"
       style="opacity:1;fill:#000000;fill-opacity:0.49019608;stroke:none;stroke-width:3.87979722;stroke-miterlimit:4;stroke-dasharray:none;stroke-dashoffset:0;stroke-opacity:1"
       inkscape:connector-curvature="0" />
    <ellipse
       ry="3.1236949"
       rx="3.1190748"
       cy="32.163406"
       cx="15.51096"
       id="path926"
       style="opacity:1;fill:#ffffff;fill-opacity:1;stroke:none;stroke-width:35.07897949;stroke-miterlimit:4;stroke-dasharray:none;stroke-dashoffset:0;stroke-opacity:1" />
    <ellipse
       ry="3.1236949"
       rx="3.1190748"
       style="opacity:1;fill:#ffffff;fill-opacity:1;stroke:none;stroke-width:35.07897949;stroke-miterlimit:4;stroke-dasharray:none;stroke-dashoffset:0;stroke-opacity:1"
       id="circle930"
       cx="15.51096"
       cy="48.33474" />
    <ellipse
       ry="3.1236949"
       rx="3.1190748"
       style="opacity:1;fill:#ffffff;fill-opacity:1;stroke:none;stroke-width:35.07897949;stroke-miterlimit:4;stroke-dasharray:none;stroke-dashoffset:0;stroke-opacity:1"
       id="circle932"
       cx="31.979673"
       cy="32.163406" />
    <ellipse
       ry="3.1236949"
       rx="3.1190748"
       cy="48.33474"
       cx="31.979673"
       id="circle936"
       style="opacity:1;fill:#ffffff;fill-opacity:1;stroke:none;stroke-width:35.07897949;stroke-miterlimit:4;stroke-dasharray:none;stroke-dashoffset:0;stroke-opacity:1" />
    <ellipse
       ry="3.1236949"
       rx="3.1190748"
       cy="32.163406"
       cx="48.236927"
       id="circle938"
       style="opacity:1;fill:#ffffff;fill-opacity:1;stroke:none;stroke-width:35.07897949;stroke-miterlimit:4;stroke-dasharray:none;stroke-dashoffset:0;stroke-opacity:1" />
    <ellipse
       ry="3.1236949"
       rx="3.1190748"
       style="opacity:1;fill:#ffffff;fill-opacity:1;stroke:none;stroke-width:35.07897949;stroke-miterlimit:4;stroke-dasharray:none;stroke-dashoffset:0;stroke-opacity:1"
       id="circle942"
       cx="48.236927"
       cy="48.33474" />
    <path
       inkscape:connector-curvature="0"
       id="rect954"
       d="m 15.202392,45.297119 v 2.073975 h 32.683594 v -2.073975 z m 0,4.073975 v 2.051025 h 32.683594 v -2.051025 z"
       style="opacity:1;fill:#ffffff;fill-opacity:1;stroke:none;stroke-width:3.87979722;stroke-miterlimit:4;stroke-dasharray:none;stroke-dashoffset:0;stroke-opacity:1" />
    <g
       transform="matrix(0.125,0,0,0.125,0.0361152,23.247)"
       id="g919">
      <ellipse
         ry="24.989559"
         rx="24.952599"
         cy="-40.989559"
         cx="144.95259"
         id="ellipse903"
         style="opacity:1;fill:#000000;fill-opacity:0.49019608;stroke:none;stroke-width:280.63183594;stroke-miterlimit:4;stroke-dasharray:none;stroke-dashoffset:0;stroke-opacity:1" />
      <ellipse
         ry="24.989559"
         rx="24.952599"
         style="opacity:1;fill:#000000;fill-opacity:0.49019608;stroke:none;stroke-width:280.63183594;stroke-miterlimit:4;stroke-dasharray:none;stroke-dashoffset:0;stroke-opacity:1"
         id="ellipse905"
         cx="276.7023"
         cy="-40.989559" />
      <ellipse
         ry="24.989559"
         rx="24.952599"
         cy="-40.989559"
         cx="406.76031"
         id="ellipse907"
         style="opacity:1;fill:#000000;fill-opacity:0.49019608;stroke:none;stroke-width:280.63183594;stroke-miterlimit:4;stroke-dasharray:none;stroke-dashoffset:0;stroke-opacity:1" />
      <path
         id="path909"
         d="m 164.86719,-56.005851 a 24.9526,24.98956 0 0 1 5.03711,15.015624 24.9526,24.98956 0 0 1 -6.42578,16.701168 h 94.70117 a 24.9526,24.98956 0 0 1 -6.42969,-16.701168 24.9526,24.98956 0 0 1 5.04492,-15.015624 z m 131.75001,0 a 24.9526,24.98956 0 0 1 5.0371,15.015624 24.9526,24.98956 0 0 1 -6.42578,16.701168 h 93.00976 a 24.9526,24.98956 0 0 1 -6.42968,-16.701168 24.9526,24.98956 0 0 1 5.04492,-15.015624 z"
         style="opacity:1;fill:#000000;fill-opacity:0.49019608;stroke:none;stroke-width:24.97107124;stroke-miterlimit:4;stroke-dasharray:none;stroke-dashoffset:0;stroke-opacity:1"
         inkscape:connector-curvature="0" />
      <ellipse
         ry="24.989559"
         rx="24.952599"
         style="opacity:1;fill:#ffffff;fill-opacity:1;stroke:none;stroke-width:280.63183594;stroke-miterlimit:4;stroke-dasharray:none;stroke-dashoffset:0;stroke-opacity:1"
         id="ellipse911-3"
         cx="124.08768"
         cy="-61.322079" />
      <ellipse
         ry="24.989559"
         rx="24.952599"
         cy="-61.322079"
         cx="255.83739"
         id="ellipse913-6"
         style="opacity:1;fill:#ffffff;fill-opacity:1;stroke:none;stroke-width:280.63183594;stroke-miterlimit:4;stroke-dasharray:none;stroke-dashoffset:0;stroke-opacity:1" />
      <ellipse
         ry="24.989559"
         rx="24.952599"
         style="opacity:1;fill:#ffffff;fill-opacity:1;stroke:none;stroke-width:280.63183594;stroke-miterlimit:4;stroke-dasharray:none;stroke-dashoffset:0;stroke-opacity:1"
         id="ellipse915-7"
         cx="385.89542"
         cy="-61.322079" />
      <rect
         transform="rotate(-90)"
         style="opacity:1;fill:#ffffff;fill-opacity:1;stroke:none;stroke-width:24.97107124;stroke-miterlimit:4;stroke-dasharray:none;stroke-dashoffset:0;stroke-opacity:1"
         id="rect917"
         width="31.715563"
         height="261.46939"
         x="44.622158"
         y="121.61832" />
    </g>
  </g>
</svg>
