<?xml version="1.0" encoding="UTF-8" standalone="no"?>
<svg
   xmlns:dc="http://purl.org/dc/elements/1.1/"
   xmlns:cc="http://creativecommons.org/ns#"
   xmlns:rdf="http://www.w3.org/1999/02/22-rdf-syntax-ns#"
   xmlns:svg="http://www.w3.org/2000/svg"
   xmlns="http://www.w3.org/2000/svg"
   xmlns:sodipodi="http://sodipodi.sourceforge.net/DTD/sodipodi-0.dtd"
   xmlns:inkscape="http://www.inkscape.org/namespaces/inkscape"
   viewBox="0 0 64 64"
   version="1.1"
   id="svg10"
   sodipodi:docname="gnumeric-format-precision-decrease.svg"
   width="64"
   height="64"
   inkscape:version="0.92.2 5c3e80d, 2017-08-06">
  <metadata
     id="metadata14">
    <rdf:RDF>
      <cc:Work
         rdf:about="">
        <dc:format>image/svg+xml</dc:format>
        <dc:type
           rdf:resource="http://purl.org/dc/dcmitype/StillImage" />
        <dc:title></dc:title>
      </cc:Work>
    </rdf:RDF>
  </metadata>
  <sodipodi:namedview
     pagecolor="#ffffff"
     bordercolor="#666666"
     borderopacity="1"
     objecttolerance="10"
     gridtolerance="10"
     guidetolerance="10"
     inkscape:pageopacity="0"
     inkscape:pageshadow="2"
     inkscape:window-width="1366"
     inkscape:window-height="717"
     id="namedview12"
     showgrid="false"
     inkscape:zoom="3.4766083"
     inkscape:cx="27.15178"
     inkscape:cy="26.454707"
     inkscape:window-x="0"
     inkscape:window-y="24"
     inkscape:window-maximized="1"
     inkscape:current-layer="svg10" />
  <defs
     id="defs3051">
    <style
       type="text/css"
       id="current-color-scheme">
      .ColorScheme-Text {
        color:#4d4d4d;
      }
      </style>
  </defs>
  <g
     id="g891"
     transform="matrix(0.125,0,0,0.125,-2.8794348e-8,56)">
    <path
       style="fill:#c6262e;fill-opacity:1;stroke-width:11.10955906"
       inkscape:connector-curvature="0"
       d="m 432.91328,-391.52606 c 102.1929,88.57459 105.82676,249.69974 8.1168,359.898821 C 343.32007,78.571841 181.27963,96.100609 79.08674,7.526017 -23.106206,-81.04856 -26.74003,-242.17372 70.96994,-352.37279 c 97.70995,-110.19908 259.75039,-127.72785 361.94334,-39.15327 z"
       id="path27-5" />
    <path
       style="opacity:1;fill:#000000;fill-opacity:0.49019608;stroke-width:11.10955906"
       inkscape:connector-curvature="0"
       d="m 511.63551,-223.09648 c -1.55139,61.31161 -25.16123,124.15457 -70.96636,175.814441 C 342.95912,62.917073 180.91868,80.445801 78.725757,-8.128751 30.827125,-49.644358 4.4968181,-107.07719 0.19382608,-167.77119 0.79910608,-101.41455 27.117402,-37.517815 79.078688,7.519025 181.27157,96.093617 343.31973,78.556153 441.02203,-31.634231 490.72699,-87.69237 514.02704,-156.92523 511.63551,-223.09648 Z"
       id="path51-6" />
    <g
       aria-label=".00"
       style="font-style:normal;font-weight:normal;font-size:40px;line-height:1.25;font-family:sans-serif;letter-spacing:0px;word-spacing:0px;fill:#000000;fill-opacity:0.49019608;stroke:none"
       id="g879"
       transform="matrix(5.7051429,0,0,5.7051429,-490.03798,1392.9852)">
      <path
         d="m 109.34961,-257.83495 q -1.01563,0 -1.71875,-0.70313 -0.70313,-0.70312 -0.70313,-1.71875 0,-0.99609 0.70313,-1.69922 0.70312,-0.72265 1.71875,-0.72265 0.99609,0 1.69922,0.72265 0.72265,0.70313 0.72265,1.69922 0,1.01563 -0.72265,1.71875 -0.70313,0.70313 -1.69922,0.70313 z"
         style="font-style:normal;font-variant:normal;font-weight:normal;font-stretch:normal;font-family:'Comic Sans MS';-inkscape-font-specification:'Comic Sans MS';fill:#000000;fill-opacity:0.49019608"
         id="path873"
         inkscape:connector-curvature="0" />
      <path
         d="m 126.06836,-258.88964 q -5.9375,0 -8.67188,-5.42969 -2.07031,-4.17969 -2.07031,-10.87891 0,-5.66406 2.69531,-9.88281 3.1836,-4.9414 8.65235,-4.9414 5.13672,0 8.00781,4.375 2.48047,3.78906 2.48047,9.23828 0,8.75 -2.77344,13.14453 -2.77344,4.375 -8.32031,4.375 z m 0.58594,-27.36328 q -3.63282,0 -5.76172,3.6914 -1.77735,3.08594 -1.77735,7.05078 0,6.42579 1.73829,9.64844 1.73828,3.22266 5.21484,3.22266 4.14062,0 5.9375,-4.72656 1.25,-3.28125 1.25,-8.32032 0,-5.29297 -1.66016,-7.92968 -1.64062,-2.63672 -4.9414,-2.63672 z"
         style="font-style:normal;font-variant:normal;font-weight:normal;font-stretch:normal;font-family:'Comic Sans MS';-inkscape-font-specification:'Comic Sans MS';fill:#000000;fill-opacity:0.49019608"
         id="path875"
         inkscape:connector-curvature="0" />
      <path
         d="m 150.52148,-258.88964 q -5.9375,0 -8.67187,-5.42969 -2.07031,-4.17969 -2.07031,-10.87891 0,-5.66406 2.69531,-9.88281 3.18359,-4.9414 8.65234,-4.9414 5.13672,0 8.00782,4.375 2.48046,3.78906 2.48046,9.23828 0,8.75 -2.77343,13.14453 -2.77344,4.375 -8.32032,4.375 z m 0.58594,-27.36328 q -3.63281,0 -5.76172,3.6914 -1.77734,3.08594 -1.77734,7.05078 0,6.42579 1.73828,9.64844 1.73828,3.22266 5.21484,3.22266 4.14063,0 5.9375,-4.72656 1.25,-3.28125 1.25,-8.32032 0,-5.29297 -1.66015,-7.92968 -1.64063,-2.63672 -4.94141,-2.63672 z"
         style="font-style:normal;font-variant:normal;font-weight:normal;font-stretch:normal;font-family:'Comic Sans MS';-inkscape-font-specification:'Comic Sans MS';fill:#000000;fill-opacity:0.49019608"
         id="path877"
         inkscape:connector-curvature="0" />
    </g>
    <g
       transform="matrix(5.7051429,0,0,5.7051429,-510.03798,1372.9852)"
       id="flowRoot829"
       style="font-style:normal;font-weight:normal;font-size:40px;line-height:1.25;font-family:sans-serif;letter-spacing:0px;word-spacing:0px;fill:#ffffff;fill-opacity:1;stroke:none"
       aria-label=".00">
      <path
         inkscape:connector-curvature="0"
         id="path837"
         style="font-style:normal;font-variant:normal;font-weight:normal;font-stretch:normal;font-family:'Comic Sans MS';-inkscape-font-specification:'Comic Sans MS';fill:#ffffff"
         d="m 109.34961,-257.83495 q -1.01563,0 -1.71875,-0.70313 -0.70313,-0.70312 -0.70313,-1.71875 0,-0.99609 0.70313,-1.69922 0.70312,-0.72265 1.71875,-0.72265 0.99609,0 1.69922,0.72265 0.72265,0.70313 0.72265,1.69922 0,1.01563 -0.72265,1.71875 -0.70313,0.70313 -1.69922,0.70313 z" />
      <path
         inkscape:connector-curvature="0"
         id="path839"
         style="font-style:normal;font-variant:normal;font-weight:normal;font-stretch:normal;font-family:'Comic Sans MS';-inkscape-font-specification:'Comic Sans MS';fill:#ffffff"
         d="m 126.06836,-258.88964 q -5.9375,0 -8.67188,-5.42969 -2.07031,-4.17969 -2.07031,-10.87891 0,-5.66406 2.69531,-9.88281 3.1836,-4.9414 8.65235,-4.9414 5.13672,0 8.00781,4.375 2.48047,3.78906 2.48047,9.23828 0,8.75 -2.77344,13.14453 -2.77344,4.375 -8.32031,4.375 z m 0.58594,-27.36328 q -3.63282,0 -5.76172,3.6914 -1.77735,3.08594 -1.77735,7.05078 0,6.42579 1.73829,9.64844 1.73828,3.22266 5.21484,3.22266 4.14062,0 5.9375,-4.72656 1.25,-3.28125 1.25,-8.32032 0,-5.29297 -1.66016,-7.92968 -1.64062,-2.63672 -4.9414,-2.63672 z" />
      <path
         inkscape:connector-curvature="0"
         id="path841"
         style="font-style:normal;font-variant:normal;font-weight:normal;font-stretch:normal;font-family:'Comic Sans MS';-inkscape-font-specification:'Comic Sans MS';fill:#ffffff"
         d="m 150.52148,-258.88964 q -5.9375,0 -8.67187,-5.42969 -2.07031,-4.17969 -2.07031,-10.87891 0,-5.66406 2.69531,-9.88281 3.18359,-4.9414 8.65234,-4.9414 5.13672,0 8.00782,4.375 2.48046,3.78906 2.48046,9.23828 0,8.75 -2.77343,13.14453 -2.77344,4.375 -8.32032,4.375 z m 0.58594,-27.36328 q -3.63281,0 -5.76172,3.6914 -1.77734,3.08594 -1.77734,7.05078 0,6.42579 1.73828,9.64844 1.73828,3.22266 5.21484,3.22266 4.14063,0 5.9375,-4.72656 1.25,-3.28125 1.25,-8.32032 0,-5.29297 -1.66015,-7.92968 -1.64063,-2.63672 -4.94141,-2.63672 z" />
    </g>
  </g>
</svg>
