<?xml version="1.0" encoding="UTF-8" standalone="no"?>
<svg
   xmlns:dc="http://purl.org/dc/elements/1.1/"
   xmlns:cc="http://creativecommons.org/ns#"
   xmlns:rdf="http://www.w3.org/1999/02/22-rdf-syntax-ns#"
   xmlns:svg="http://www.w3.org/2000/svg"
   xmlns="http://www.w3.org/2000/svg"
   xmlns:sodipodi="http://sodipodi.sourceforge.net/DTD/sodipodi-0.dtd"
   xmlns:inkscape="http://www.inkscape.org/namespaces/inkscape"
   viewBox="0 0 64 64"
   version="1.1"
   id="svg6"
   sodipodi:docname="gnumeric-pagesetup-hf-pages.svg"
   width="64"
   height="64"
   inkscape:version="0.92.2 5c3e80d, 2017-08-06">
  <metadata
     id="metadata10">
    <rdf:RDF>
      <cc:Work
         rdf:about="">
        <dc:format>image/svg+xml</dc:format>
        <dc:type
           rdf:resource="http://purl.org/dc/dcmitype/StillImage" />
        <dc:title></dc:title>
      </cc:Work>
    </rdf:RDF>
  </metadata>
  <sodipodi:namedview
     pagecolor="#ffffff"
     bordercolor="#666666"
     borderopacity="1"
     objecttolerance="10"
     gridtolerance="10"
     guidetolerance="10"
     inkscape:pageopacity="0"
     inkscape:pageshadow="2"
     inkscape:window-width="1366"
     inkscape:window-height="717"
     id="namedview8"
     showgrid="false"
     inkscape:zoom="3.6875"
     inkscape:cx="75.162433"
     inkscape:cy="31.465776"
     inkscape:window-x="0"
     inkscape:window-y="24"
     inkscape:window-maximized="1"
     inkscape:current-layer="svg6" />
  <defs
     id="defs3051">
    <style
       type="text/css"
       id="current-color-scheme">
      .ColorScheme-Text {
        color:#4d4d4d;
      }
      </style>
  </defs>
  <g
     id="g878"
     transform="matrix(0.125,0,0,0.125,-2.3289431e-8,56)">
    <path
       style="fill:#3689e6;fill-opacity:1;stroke-width:11.10955906"
       inkscape:connector-curvature="0"
       d="m 432.91329,-391.52606 c 102.1929,88.57459 105.82674,249.69974 8.1168,359.89882 C 343.32008,78.571841 181.27963,96.100609 79.08674,7.5260161 -23.106204,-81.048561 -26.740032,-242.17372 70.96994,-352.3728 c 97.70995,-110.19907 259.75038,-127.72785 361.94335,-39.15326 z"
       id="path27-5" />
    <path
       style="opacity:1;fill:#000000;fill-opacity:0.49019608;stroke-width:11.10955906"
       inkscape:connector-curvature="0"
       d="M 511.63553,-223.09648 C 510.08411,-161.78487 486.4743,-98.941913 440.66915,-47.282041 342.95912,62.917073 180.91868,80.445801 78.725758,-8.1287521 30.827126,-49.644361 4.4968185,-107.07719 0.19382632,-167.77119 0.79907985,-101.41455 27.117406,-37.517816 79.078686,7.5190241 181.27157,96.093617 343.31974,78.556153 441.02203,-31.634232 c 49.70496,-56.058145 73.00502,-125.290998 70.6135,-191.462248 z"
       id="path51-6" />
    <path
       sodipodi:nodetypes="ccccccc"
       style="fill:#000000;fill-opacity:0.49019608;stroke:none;stroke-width:0.85522228px;stroke-linecap:butt;stroke-linejoin:miter;stroke-opacity:1"
       d="m 136,-328.00001 v 266.829345 l 39.3586,-0.03843 V -296.51214 h 194.09202 l 0.002,-31.48787 z"
       id="path863"
       inkscape:connector-curvature="0" />
    <path
       style="fill:#000000;fill-opacity:0.49019608;stroke:none;stroke-width:0.85522228px;stroke-linecap:butt;stroke-linejoin:miter;stroke-opacity:1"
       d="M 189.04297,-282.83008 V -16 l 166.74805,-0.164062 H 341.875 V -82.57031 h -0.01 v -13.91602 h 0.01 v -0.0391 h 13.91602 v 0.0391 h 66.69921 l 0.004,-186.34375 z m 166.74805,266.666018 66.69921,-66.406248 h -66.69921 z m -58.4004,-226.507818 c 1.6448,0 2.99044,0.6738 4.03711,2.01954 1.09654,1.29591 1.64454,2.74098 1.64454,4.33593 0,1.9937 -0.64747,5.28367 -1.94336,9.86914 -2.19307,7.92492 -3.46363,12.68435 -3.8125,14.2793 h 36.25976 c 1.69463,-6.03091 4.01241,-14.0803 6.95313,-24.14844 1.29589,-4.2366 3.73753,-6.35547 7.32617,-6.35547 4.18676,0 6.28125,1.94434 6.28125,5.83204 0,3.38926 -2.06816,11.61319 -6.20508,24.67187 h 14.57813 c 5.08389,0 7.62695,1.86926 7.62695,5.60742 0,5.23344 -2.81705,7.84961 -8.44922,7.84961 -0.74764,0 -1.91873,-0.0506 -3.51367,-0.15039 -1.54512,-0.0998 -2.69184,-0.14844 -3.43945,-0.14844 h -10.91602 l -7.92383,31.02539 h 15.25195 c 3.63848,0 6.20398,0.27401 7.69922,0.82227 2.59182,0.99685 3.88867,2.9919 3.88868,5.98242 0,4.5855 -2.16763,6.87696 -6.50391,6.87696 h -24.07422 l -6.72852,24.29882 c -1.34576,4.8347 -4.13647,7.25196 -8.37304,7.25196 -4.08709,0 -6.13086,-1.96874 -6.13086,-5.90625 0,-2.94071 0.822,-7.2272 2.46679,-12.85938 2.29275,-7.82524 3.51452,-12.08739 3.66407,-12.78515 h -37.38281 c -1.49528,5.83152 -4.11145,14.40454 -7.84961,25.71875 -1.44544,3.5388 -3.88708,5.30859 -7.32618,5.30859 -3.98738,0 -5.98242,-1.96871 -5.98242,-5.90625 0,-1.94385 0.57433,-4.75895 1.72071,-8.44727 1.74446,-5.58232 3.48794,-11.14133 5.23242,-16.67382 h -14.2793 c -4.1369,0 -6.20508,-2.466 -6.20508,-7.40039 0,-1.94386 0.84638,-3.51473 2.54102,-4.71094 1.44543,-1.04668 3.19085,-1.57032 5.23437,-1.57032 l 17.1211,0.002 L 279,-199.00977 h -19.96289 c -4.73502,0 -7.10156,-2.49232 -7.10156,-7.47656 0,-3.788 3.68781,-5.68164 11.06445,-5.68164 h 19.73828 c 1.29589,-5.78171 3.2646,-13.65655 5.90625,-23.625 1.44544,-4.58547 4.35998,-6.87891 8.74609,-6.87891 z m -4.18554,43.66211 -9.3457,31.02735 h 37.38085 l 8.44922,-31.02735 z"
       id="path865"
       inkscape:connector-curvature="0" />
    <g
       id="g861">
      <path
         style="fill:#ffffff;stroke:none;stroke-width:0.85522228px;stroke-linecap:butt;stroke-linejoin:miter;stroke-opacity:1"
         d="m 116,-348.00001 v 266.829345 l 39.3586,-0.03843 V -316.51214 h 194.09202 l 0.002,-31.48787 z m 192.19116,217.79103 v 0.0401 h -0.009 v 13.91573 h 0.009 v 9.58784 l 23.60714,-23.50357 h -9.6914 v -0.0401 z"
         id="path39"
         inkscape:connector-curvature="0" />
      <path
         style="fill:#ffffff;stroke:none;stroke-width:0.85522228px;stroke-linecap:butt;stroke-linejoin:miter;stroke-opacity:1"
         d="M 169.04297,-302.83008 V -36 l 166.74805,-0.164062 H 321.875 v -66.406248 h -0.01 v -13.91602 h 0.01 v -0.0391 h 13.91602 v 0.0391 h 66.69921 l 0.004,-186.34375 z m 166.74805,266.666018 66.69921,-66.406248 h -66.69921 z m -58.4004,-226.507818 c 1.6448,0 2.99044,0.6738 4.03711,2.01954 1.09654,1.29591 1.64454,2.74098 1.64454,4.33593 0,1.9937 -0.64747,5.28367 -1.94336,9.86914 -2.19307,7.92492 -3.46363,12.68435 -3.8125,14.2793 h 36.25976 c 1.69463,-6.03091 4.01241,-14.0803 6.95313,-24.14844 1.29589,-4.2366 3.73753,-6.35547 7.32617,-6.35547 4.18676,0 6.28125,1.94434 6.28125,5.83204 0,3.38926 -2.06816,11.61319 -6.20508,24.67187 h 14.57813 c 5.08389,0 7.62695,1.86926 7.62695,5.60742 0,5.23344 -2.81705,7.84961 -8.44922,7.84961 -0.74764,0 -1.91873,-0.0506 -3.51367,-0.15039 -1.54512,-0.0998 -2.69184,-0.14844 -3.43945,-0.14844 h -10.91602 l -7.92383,31.02539 h 15.25195 c 3.63848,0 6.20398,0.27401 7.69922,0.82227 2.59182,0.99685 3.88867,2.9919 3.88868,5.98242 0,4.5855 -2.16763,6.87696 -6.50391,6.87696 h -24.07422 l -6.72852,24.29882 c -1.34576,4.8347 -4.13647,7.25196 -8.37304,7.25196 -4.08709,0 -6.13086,-1.96874 -6.13086,-5.90625 0,-2.94071 0.822,-7.2272 2.46679,-12.85938 2.29275,-7.82524 3.51452,-12.08739 3.66407,-12.78515 h -37.38281 c -1.49528,5.83152 -4.11145,14.40454 -7.84961,25.71875 -1.44544,3.5388 -3.88708,5.30859 -7.32618,5.30859 -3.98738,0 -5.98242,-1.96871 -5.98242,-5.90625 0,-1.94385 0.57433,-4.75895 1.72071,-8.44727 1.74446,-5.58232 3.48794,-11.14133 5.23242,-16.67382 h -14.2793 c -4.1369,0 -6.20508,-2.466 -6.20508,-7.40039 0,-1.94386 0.84638,-3.51473 2.54102,-4.71094 1.44543,-1.04668 3.19085,-1.57032 5.23437,-1.57032 l 17.1211,0.002 L 259,-219.00977 h -19.96289 c -4.73502,0 -7.10156,-2.49232 -7.10156,-7.47656 0,-3.788 3.68781,-5.68164 11.06445,-5.68164 h 19.73828 c 1.29589,-5.78171 3.2646,-13.65655 5.90625,-23.625 1.44544,-4.58547 4.35998,-6.87891 8.74609,-6.87891 z m -4.18554,43.66211 -9.3457,31.02735 h 37.38085 l 8.44922,-31.02735 z"
         id="path842"
         inkscape:connector-curvature="0" />
    </g>
  </g>
</svg>
