<?xml version="1.0" encoding="UTF-8" standalone="no"?>
<svg
   xmlns:dc="http://purl.org/dc/elements/1.1/"
   xmlns:cc="http://creativecommons.org/ns#"
   xmlns:rdf="http://www.w3.org/1999/02/22-rdf-syntax-ns#"
   xmlns:svg="http://www.w3.org/2000/svg"
   xmlns="http://www.w3.org/2000/svg"
   xmlns:sodipodi="http://sodipodi.sourceforge.net/DTD/sodipodi-0.dtd"
   xmlns:inkscape="http://www.inkscape.org/namespaces/inkscape"
   viewBox="0 0 64 64"
   version="1.1"
   id="svg6"
   sodipodi:docname="gnumeric-formulaguru.svg"
   width="64"
   height="64"
   inkscape:version="0.92.2 5c3e80d, 2017-08-06">
  <metadata
     id="metadata10">
    <rdf:RDF>
      <cc:Work
         rdf:about="">
        <dc:format>image/svg+xml</dc:format>
        <dc:type
           rdf:resource="http://purl.org/dc/dcmitype/StillImage" />
        <dc:title></dc:title>
      </cc:Work>
    </rdf:RDF>
  </metadata>
  <sodipodi:namedview
     pagecolor="#ffffff"
     bordercolor="#666666"
     borderopacity="1"
     objecttolerance="10"
     gridtolerance="10"
     guidetolerance="10"
     inkscape:pageopacity="0"
     inkscape:pageshadow="2"
     inkscape:window-width="1366"
     inkscape:window-height="717"
     id="namedview8"
     showgrid="false"
     inkscape:zoom="2.4583333"
     inkscape:cx="64.261558"
     inkscape:cy="44.499757"
     inkscape:window-x="0"
     inkscape:window-y="24"
     inkscape:window-maximized="1"
     inkscape:current-layer="svg6" />
  <defs
     id="defs3051">
    <style
       type="text/css"
       id="current-color-scheme">
      .ColorScheme-Text {
        color:#4d4d4d;
      }
      </style>
  </defs>
  <g
     id="g897"
     transform="matrix(0.125,0,0,0.125,-5.8280086e-8,56)">
    <path
       style="fill:#3689e6;fill-opacity:1;stroke-width:11.10955906"
       inkscape:connector-curvature="0"
       d="m 432.91324,-391.52606 c 102.19296,88.57457 105.8268,249.69973 8.1168,359.898822 C 343.32004,78.571843 181.27964,96.100611 79.086758,7.5260102 -23.106204,-81.048574 -26.740044,-242.17373 70.969957,-352.3728 168.67988,-462.57189 330.72036,-480.10065 432.91324,-391.52606 Z"
       id="path850" />
    <path
       style="opacity:1;fill:#000000;fill-opacity:0.49019608;stroke-width:11.10955906"
       inkscape:connector-curvature="0"
       d="m 511.63548,-223.09649 c -1.55136,61.3116 -25.1612,124.154571 -70.96632,175.814436 C 342.95908,62.917075 180.91868,80.445803 78.725798,-8.1287499 30.827156,-49.644366 4.4968364,-107.0772 0.19379644,-167.77119 0.79939645,-101.41456 27.117396,-37.51783 79.078678,7.5190102 181.27156,96.093611 343.31972,78.556155 441.02204,-31.634238 490.727,-87.692382 514.027,-156.92525 511.63548,-223.09649 Z"
       id="path852" />
    <g
       style="fill:#000000;fill-opacity:0.49019608"
       id="g883"
       transform="translate(12.21863,19.999995)">
      <g
         transform="matrix(9.0815243,0,0,9.0815243,-42.249022,-481.81957)"
         id="g877"
         style="font-style:normal;font-weight:normal;font-size:40px;line-height:1.25;font-family:sans-serif;letter-spacing:0px;word-spacing:0px;fill:#000000;fill-opacity:0.49019608;stroke:none"
         aria-label="f">
        <path
           inkscape:connector-curvature="0"
           id="path875"
           style="font-style:normal;font-variant:normal;font-weight:normal;font-stretch:normal;font-family:'Comic Sans MS';-inkscape-font-specification:'Comic Sans MS';fill:#000000;fill-opacity:0.49019608"
           d="m 33.097656,18.504889 q -4.726562,0 -5.292969,6.5625 l -0.05859,1.210938 q 3.320312,-0.234375 4.296875,-0.234375 3.105468,0 3.105468,1.953125 0,1.425781 -1.523437,1.699219 -0.664063,0.117187 -1.5625,0.09766 -0.878906,-0.03906 -4.492188,0.253906 l -0.15625,4.453125 q 0,1.210938 0.07813,3.632813 0.07813,2.421875 0.07813,3.613281 0,3.710937 -0.429687,5.78125 -0.332031,1.5625 -1.816406,1.5625 -0.800782,0 -1.367188,-0.527344 -0.566406,-0.507812 -0.566406,-1.289062 0,-0.15625 0.03906,-0.390625 0.410157,-2.539063 0.410157,-5.527344 l -0.05859,-5.332031 v -5.664063 q -2.441406,0.195313 -3.085938,0.195313 -1.972656,0 -1.972656,-1.894532 0,-1.933593 3.417969,-2.03125 l 1.875,-0.05859 q 0.05859,-1.09375 0.292969,-2.96875 0.507812,-4.335938 2.1875,-6.386719 2.03125,-2.480469 6.347656,-2.480469 2.792969,0 2.792969,1.894531 0,1.875 -2.539063,1.875 z" />
      </g>
      <g
         transform="matrix(6.6840732,0,0,6.6840732,-41.738309,-483.56532)"
         id="g881"
         style="font-style:normal;font-weight:normal;font-size:40px;line-height:1.25;font-family:sans-serif;letter-spacing:0px;word-spacing:0px;fill:#000000;fill-opacity:0.49019608;stroke:none"
         aria-label="x">
        <path
           inkscape:connector-curvature="0"
           id="path879"
           style="font-style:normal;font-variant:normal;font-weight:normal;font-stretch:normal;font-family:'Comic Sans MS';-inkscape-font-specification:'Comic Sans MS';fill:#000000;fill-opacity:0.49019608"
           d="m 64.384766,49.34278 -2.851563,2.675781 -3.476562,3.457031 6.367187,8.320313 q 0.488281,0.625 0.488281,1.230469 0,0.761718 -0.585937,1.347656 -0.585938,0.585937 -1.328125,0.585937 -0.742188,0 -1.347656,-0.722656 -1.796875,-2.089844 -6.328125,-8.046875 l -3.808594,3.925781 q -1.152344,1.035157 -3.359375,3.222657 -0.625,0.703125 -1.347656,0.703125 -0.742188,0 -1.328125,-0.585938 -0.566407,-0.585937 -0.566407,-1.347656 0,-0.605469 0.488282,-1.230469 0.546875,-0.722656 1.699218,-1.738281 1.347657,-1.191406 1.777344,-1.640625 l 4.160156,-4.355469 -2.558593,-3.691406 q -1.542969,-2.207031 -2.695313,-3.222656 -0.742187,-0.664063 -0.742187,-1.445313 0,-0.78125 0.546875,-1.386719 0.566406,-0.605468 1.289062,-0.605468 1.152344,0 3.476563,3.007812 l 3.378906,4.667969 3.828125,-3.515625 q 2.382812,-2.246094 3.222656,-3.515625 0.625,-0.917969 1.484375,-0.917969 0.761719,0 1.347656,0.566406 0.585938,0.566407 0.585938,1.308594 0,1.074219 -1.816406,2.949219 z" />
      </g>
    </g>
    <g
       transform="translate(-7.7813696)"
       id="g873">
      <g
         aria-label="f"
         style="font-style:normal;font-weight:normal;font-size:40px;line-height:1.25;font-family:sans-serif;letter-spacing:0px;word-spacing:0px;fill:#ffffff;fill-opacity:1;stroke:none"
         id="flowRoot847"
         transform="matrix(9.0815243,0,0,9.0815243,-42.249022,-481.81957)">
        <path
           d="m 33.097656,18.504889 q -4.726562,0 -5.292969,6.5625 l -0.05859,1.210938 q 3.320312,-0.234375 4.296875,-0.234375 3.105468,0 3.105468,1.953125 0,1.425781 -1.523437,1.699219 -0.664063,0.117187 -1.5625,0.09766 -0.878906,-0.03906 -4.492188,0.253906 l -0.15625,4.453125 q 0,1.210938 0.07813,3.632813 0.07813,2.421875 0.07813,3.613281 0,3.710937 -0.429687,5.78125 -0.332031,1.5625 -1.816406,1.5625 -0.800782,0 -1.367188,-0.527344 -0.566406,-0.507812 -0.566406,-1.289062 0,-0.15625 0.03906,-0.390625 0.410157,-2.539063 0.410157,-5.527344 l -0.05859,-5.332031 v -5.664063 q -2.441406,0.195313 -3.085938,0.195313 -1.972656,0 -1.972656,-1.894532 0,-1.933593 3.417969,-2.03125 l 1.875,-0.05859 q 0.05859,-1.09375 0.292969,-2.96875 0.507812,-4.335938 2.1875,-6.386719 2.03125,-2.480469 6.347656,-2.480469 2.792969,0 2.792969,1.894531 0,1.875 -2.539063,1.875 z"
           style="font-style:normal;font-variant:normal;font-weight:normal;font-stretch:normal;font-family:'Comic Sans MS';-inkscape-font-specification:'Comic Sans MS';fill:#ffffff"
           id="path855"
           inkscape:connector-curvature="0" />
      </g>
      <g
         aria-label="x"
         style="font-style:normal;font-weight:normal;font-size:40px;line-height:1.25;font-family:sans-serif;letter-spacing:0px;word-spacing:0px;fill:#ffffff;fill-opacity:1;stroke:none"
         id="flowRoot858"
         transform="matrix(6.6840732,0,0,6.6840732,-41.738309,-483.56532)">
        <path
           d="m 64.384766,49.34278 -2.851563,2.675781 -3.476562,3.457031 6.367187,8.320313 q 0.488281,0.625 0.488281,1.230469 0,0.761718 -0.585937,1.347656 -0.585938,0.585937 -1.328125,0.585937 -0.742188,0 -1.347656,-0.722656 -1.796875,-2.089844 -6.328125,-8.046875 l -3.808594,3.925781 q -1.152344,1.035157 -3.359375,3.222657 -0.625,0.703125 -1.347656,0.703125 -0.742188,0 -1.328125,-0.585938 -0.566407,-0.585937 -0.566407,-1.347656 0,-0.605469 0.488282,-1.230469 0.546875,-0.722656 1.699218,-1.738281 1.347657,-1.191406 1.777344,-1.640625 l 4.160156,-4.355469 -2.558593,-3.691406 q -1.542969,-2.207031 -2.695313,-3.222656 -0.742187,-0.664063 -0.742187,-1.445313 0,-0.78125 0.546875,-1.386719 0.566406,-0.605468 1.289062,-0.605468 1.152344,0 3.476563,3.007812 l 3.378906,4.667969 3.828125,-3.515625 q 2.382812,-2.246094 3.222656,-3.515625 0.625,-0.917969 1.484375,-0.917969 0.761719,0 1.347656,0.566406 0.585938,0.566407 0.585938,1.308594 0,1.074219 -1.816406,2.949219 z"
           style="font-style:normal;font-variant:normal;font-weight:normal;font-stretch:normal;font-family:'Comic Sans MS';-inkscape-font-specification:'Comic Sans MS';fill:#ffffff"
           id="path866"
           inkscape:connector-curvature="0" />
      </g>
    </g>
  </g>
</svg>
