<?xml version="1.0" encoding="UTF-8" standalone="no"?>
<svg
   xmlns:dc="http://purl.org/dc/elements/1.1/"
   xmlns:cc="http://creativecommons.org/ns#"
   xmlns:rdf="http://www.w3.org/1999/02/22-rdf-syntax-ns#"
   xmlns:svg="http://www.w3.org/2000/svg"
   xmlns="http://www.w3.org/2000/svg"
   xmlns:sodipodi="http://sodipodi.sourceforge.net/DTD/sodipodi-0.dtd"
   xmlns:inkscape="http://www.inkscape.org/namespaces/inkscape"
   viewBox="0 0 64 64"
   version="1.1"
   id="svg6"
   sodipodi:docname="arrow-up.svg"
   width="64"
   height="64"
   inkscape:version="0.92.2 5c3e80d, 2017-08-06">
  <metadata
     id="metadata10">
    <rdf:RDF>
      <cc:Work
         rdf:about="">
        <dc:format>image/svg+xml</dc:format>
        <dc:type
           rdf:resource="http://purl.org/dc/dcmitype/StillImage" />
        <dc:title></dc:title>
      </cc:Work>
    </rdf:RDF>
  </metadata>
  <sodipodi:namedview
     pagecolor="#ffffff"
     bordercolor="#666666"
     borderopacity="1"
     objecttolerance="10"
     gridtolerance="10"
     guidetolerance="10"
     inkscape:pageopacity="0"
     inkscape:pageshadow="2"
     inkscape:window-width="1366"
     inkscape:window-height="717"
     id="namedview8"
     showgrid="false"
     inkscape:zoom="5.2149125"
     inkscape:cx="22.139908"
     inkscape:cy="19.387894"
     inkscape:window-x="0"
     inkscape:window-y="24"
     inkscape:window-maximized="1"
     inkscape:current-layer="svg6" />
  <defs
     id="defs3051">
    <style
       type="text/css"
       id="current-color-scheme">
      .ColorScheme-Text {
        color:#4d4d4d;
      }
      </style>
  </defs>
  <g
     id="g841"
     transform="matrix(0.125,0,0,0.125,2.8118476e-7,56)">
    <path
       id="path850"
       d="m 432.91326,-391.52606 c 102.19291,88.57458 105.82678,249.69973 8.1168,359.898824 C 343.32005,78.571839 181.27961,96.100609 79.086739,7.5260194 -23.106204,-81.048566 -26.740031,-242.17373 70.969939,-352.3728 168.67988,-462.57189 330.72032,-480.10065 432.91326,-391.52606 Z"
       inkscape:connector-curvature="0"
       style="fill:#3689e6;fill-opacity:1;stroke-width:11.10955906" />
    <path
       id="path852"
       d="m 511.6355,-223.09649 c -1.55139,61.31161 -25.16123,124.154574 -70.96638,175.814444 C 342.95911,62.917069 180.91867,80.445799 78.725759,-8.1287456 30.827126,-49.644356 4.4968187,-107.0772 0.19382668,-167.77119 0.79908068,-101.41456 27.117406,-37.517826 79.078689,7.5190194 181.27156,96.093609 343.31971,78.556149 441.02201,-31.634236 490.72696,-87.692376 514.02703,-156.92524 511.6355,-223.09649 Z"
       inkscape:connector-curvature="0"
       style="opacity:1;fill:#000000;fill-opacity:0.49019608;stroke-width:11.10955906" />
    <path
       style="fill:#000000;fill-opacity:0.49019608;stroke-width:1.05924559"
       d="m 121.517,-84.74137 c 2.67397,7.51239 9.29038,14.21115 16.2596,16.46196 6.54352,2.11332 10.67781,2.16652 17.14364,0.22059 9.05192,-2.72423 4.39944,2.48412 79.56401,-89.07023 17.19176,-20.94045 23.83628,-29.01776 39.64295,-48.19137 l 2.1831,-2.64811 2.92,3.29704 c 3.45101,3.89661 6.87716,8.09966 63.05057,77.34762 23.69278,29.20736 44.54569,54.33945 46.3398,55.84909 3.26044,2.74349 12.13108,5.97478 16.40212,5.97478 1.24498,0 4.76183,-0.7419 7.81521,-1.64865 11.24382,-3.33905 19.18659,-14.29091 19.16194,-26.42136 -0.0164,-8.0714 -2.45725,-13.53217 -10.32616,-23.10222 -3.3322,-4.05256 -7.48852,-9.14058 -9.23627,-11.30672 -56.34365,-69.83132 -112.2673,-138.50821 -115.82487,-142.23842 -7.48768,-7.85102 -17.2267,-10.32676 -28.23253,-7.17694 -6.83984,1.95753 -13.77702,8.89376 -34.95621,34.95143 -15.34302,18.87718 -23.84768,29.25488 -38.66898,47.18529 -3.85253,4.66068 -12.8657,15.62388 -20.02927,24.36265 -7.16357,8.73878 -14.02973,17.08034 -15.25813,18.5368 -15.87992,18.8282 -36.28711,44.63669 -37.39885,47.29743 -2.54165,6.08306 -2.75974,14.11584 -0.55167,20.31934 z"
       id="path835"
       inkscape:connector-curvature="0" />
    <path
       inkscape:connector-curvature="0"
       id="path855"
       d="m 101.517,-104.74137 c 2.67397,7.51239 9.29038,14.21115 16.2596,16.46196 6.54352,2.11332 10.67781,2.16652 17.14364,0.22059 9.05192,-2.72423 4.39944,2.48412 79.56401,-89.07023 17.19176,-20.94045 23.83628,-29.01776 39.64295,-48.19137 l 2.1831,-2.64811 2.92,3.29704 c 3.45101,3.89661 6.87716,8.09966 63.05057,77.34762 23.69278,29.20736 44.54569,54.33945 46.3398,55.84909 3.26044,2.74349 12.13108,5.97478 16.40212,5.97478 1.24498,0 4.76183,-0.7419 7.81521,-1.64865 11.24382,-3.33905 19.18659,-14.29091 19.16194,-26.42136 -0.0164,-8.0714 -2.45725,-13.53217 -10.32616,-23.10222 -3.3322,-4.05256 -7.48852,-9.14058 -9.23627,-11.30672 -56.34365,-69.83132 -112.2673,-138.50821 -115.82487,-142.23842 -7.48768,-7.85102 -17.2267,-10.32676 -28.23253,-7.17694 -6.83984,1.95753 -13.77702,8.89376 -34.95621,34.95143 -15.34302,18.87718 -23.84768,29.25488 -38.66898,47.18529 -3.85253,4.66068 -12.8657,15.62388 -20.02927,24.36265 -7.16357,8.73878 -14.02973,17.08034 -15.25813,18.5368 -15.87992,18.8282 -36.28711,44.63669 -37.39885,47.29743 -2.541651,6.08306 -2.759741,14.11584 -0.55167,20.31934 z"
       style="fill:#ffffff;stroke-width:1.05924559" />
  </g>
</svg>
