<?xml version="1.0" encoding="UTF-8" standalone="no"?>
<svg
   xmlns:dc="http://purl.org/dc/elements/1.1/"
   xmlns:cc="http://creativecommons.org/ns#"
   xmlns:rdf="http://www.w3.org/1999/02/22-rdf-syntax-ns#"
   xmlns:svg="http://www.w3.org/2000/svg"
   xmlns="http://www.w3.org/2000/svg"
   xmlns:sodipodi="http://sodipodi.sourceforge.net/DTD/sodipodi-0.dtd"
   xmlns:inkscape="http://www.inkscape.org/namespaces/inkscape"
   viewBox="0 0 64 64"
   version="1.1"
   id="svg6"
   sodipodi:docname="grid-axonometric.svg"
   width="64"
   height="64"
   inkscape:version="0.92.2 5c3e80d, 2017-08-06">
  <metadata
     id="metadata10">
    <rdf:RDF>
      <cc:Work
         rdf:about="">
        <dc:format>image/svg+xml</dc:format>
        <dc:type
           rdf:resource="http://purl.org/dc/dcmitype/StillImage" />
        <dc:title></dc:title>
      </cc:Work>
    </rdf:RDF>
  </metadata>
  <sodipodi:namedview
     pagecolor="#ffffff"
     bordercolor="#666666"
     borderopacity="1"
     objecttolerance="10"
     gridtolerance="10"
     guidetolerance="10"
     inkscape:pageopacity="0"
     inkscape:pageshadow="2"
     inkscape:window-width="1366"
     inkscape:window-height="717"
     id="namedview8"
     showgrid="false"
     inkscape:zoom="0.4609375"
     inkscape:cx="174.52393"
     inkscape:cy="182.4871"
     inkscape:window-x="0"
     inkscape:window-y="24"
     inkscape:window-maximized="1"
     inkscape:current-layer="svg6" />
  <defs
     id="defs3051">
    <style
       type="text/css"
       id="current-color-scheme">
      .ColorScheme-Text {
        color:#4d4d4d;
      }
      </style>
  </defs>
  <g
     id="g841"
     transform="matrix(0.125,0,0,0.125,-1.5518194e-7,56)">
    <path
       id="path850"
       d="m 432.91327,-391.52607 c 102.19291,88.57458 105.82678,249.69974 8.1168,359.898837 C 343.32006,78.571841 181.27961,96.100609 79.08674,7.5260154 -23.106205,-81.048571 -26.740032,-242.17373 70.96994,-352.37281 168.67988,-462.5719 330.72033,-480.10066 432.91327,-391.52607 Z"
       inkscape:connector-curvature="0"
       style="fill:#3689e6;fill-opacity:1;stroke-width:11.10955906" />
    <path
       id="path852"
       d="m 511.63551,-223.09649 c -1.55139,61.31161 -25.16123,124.154567 -70.96638,175.81444 C 342.95912,62.917073 180.91868,80.445801 78.72576,-8.1287449 30.827126,-49.644362 4.4968184,-107.0772 0.19382624,-167.7712 0.79908026,-101.41456 27.117406,-37.517826 79.07869,7.5190154 181.27156,96.093609 343.31972,78.556153 441.02202,-31.634233 490.72697,-87.692379 514.02704,-156.92524 511.63551,-223.09649 Z"
       inkscape:connector-curvature="0"
       style="opacity:1;fill:#000000;fill-opacity:0.49019608;stroke-width:11.10955906" />
    <path
       style="color:#4d4d4d;fill:#000000;fill-opacity:0.49019608;stroke:none;stroke-width:25.99994659"
       d="m 145.99995,-327.99935 v 66.42172 L 123.19922,-251.4214 120,-252.84333 v 2.84382 25.54292 2.89452 l 3.30078,-1.47264 22.69917,9.95309 v 85.36313 l -19.09371,8.32812 -1.625,-0.71084 L 120,-122.43704 v 28.4372 6.04296 l 6.85546,-2.99608 19.14449,8.53121 V -16 h 25.99995 v -54.894414 l 51.99989,23.105424 v 17.773407 l -31.28119,13.914027 -0.2028,0.1014 h 63.98423 l 19.49996,-8.683566 19.49996,8.683566 h 63.98426 l -0.2028,-0.1014 -31.28119,-13.914027 V -47.78899 l 51.99989,-23.105424 V -16 h 25.99995 v -66.42175 l 19.14449,-8.53121 6.85546,2.99608 v -6.04296 -22.3437 -6.09374 l -5.28124,2.33584 -1.625,0.71083 -19.09371,-8.32811 v -85.36311 l 22.69917,-9.95311 3.30078,1.47263 v -2.89452 -28.38666 l -3.19922,1.42194 -22.80073,-10.15623 v -66.42157 h -25.99995 v 54.89441 l -51.99989,-23.10542 v -17.77341 l 31.28054,-13.91402 0.2028,-0.1014 H 295.4993 l -19.49996,8.68356 -19.49996,-8.68356 h -63.98423 l 0.2028,0.1014 31.28119,13.91402 v 17.77341 l -51.99989,23.10542 v -54.89441 z m 129.99973,37.12101 25.99995,11.52733 v 83.38263 l -25.99995,11.37498 -25.99995,-11.37498 v -83.38263 z m -51.99989,23.10542 v 60.42957 L 171.9999,-230.0933 v -14.5742 z m 103.99978,0 51.99989,23.10542 v 14.5742 l -51.99989,22.74995 z m -155.99967,66.06628 51.99989,22.74995 v 17.11324 l -51.99989,22.74996 z m 207.99956,0 v 62.61315 l -51.99989,-22.74996 v -17.11324 z m -103.99978,45.4999 25.99995,11.37498 v 80.183417 l -25.99995,11.527336 -25.99995,-11.527336 v -80.183417 z m -51.99989,22.74996 v 57.230349 L 171.9999,-99.33185 v -11.37498 z m 103.99978,0 51.99989,22.74995 v 11.37498 l -51.99989,23.105419 z"
       class="ColorScheme-Text"
       id="path835"
       inkscape:connector-curvature="0" />
    <path
       inkscape:connector-curvature="0"
       id="path4"
       class="ColorScheme-Text"
       d="m 125.99995,-347.99935 v 66.42172 L 103.19922,-271.4214 100,-272.84333 v 2.84382 25.54292 2.89452 l 3.30078,-1.47264 22.69917,9.95309 v 85.36313 l -19.09371,8.32812 -1.625,-0.71084 L 100,-142.43704 v 28.4372 6.04296 l 6.85546,-2.99608 19.14449,8.53121 V -36 h 25.99995 v -54.894414 l 51.99989,23.105424 v 17.773407 l -31.28119,13.914027 -0.2028,0.1014 h 63.98423 l 19.49996,-8.683566 19.49996,8.683566 h 63.98426 l -0.2028,-0.1014 -31.28119,-13.914027 V -67.78899 l 51.99989,-23.105424 V -36 h 25.99995 v -66.42175 l 19.14449,-8.53121 6.85546,2.99608 v -6.04296 -22.3437 -6.09374 l -5.28124,2.33584 -1.625,0.71083 -19.09371,-8.32811 v -85.36311 l 22.69917,-9.95311 3.30078,1.47263 v -2.89452 -28.38666 l -3.19922,1.42194 -22.80073,-10.15623 v -66.42157 h -25.99995 v 54.89441 l -51.99989,-23.10542 v -17.77341 l 31.28054,-13.91402 0.2028,-0.1014 H 275.4993 l -19.49996,8.68356 -19.49996,-8.68356 h -63.98423 l 0.2028,0.1014 31.28119,13.91402 v 17.77341 l -51.99989,23.10542 v -54.89441 z m 129.99973,37.12101 25.99995,11.52733 v 83.38263 l -25.99995,11.37498 -25.99995,-11.37498 v -83.38263 z m -51.99989,23.10542 v 60.42957 L 151.9999,-250.0933 v -14.5742 z m 103.99978,0 51.99989,23.10542 v 14.5742 l -51.99989,22.74995 z m -155.99967,66.06628 51.99989,22.74995 v 17.11324 l -51.99989,22.74996 z m 207.99956,0 v 62.61315 l -51.99989,-22.74996 v -17.11324 z m -103.99978,45.4999 25.99995,11.37498 v 80.183417 l -25.99995,11.527336 -25.99995,-11.527336 v -80.183417 z m -51.99989,22.74996 v 57.230349 L 151.9999,-119.33185 v -11.37498 z m 103.99978,0 51.99989,22.74995 v 11.37498 l -51.99989,23.105419 z"
       style="color:#4d4d4d;fill:#ffffff;fill-opacity:1;stroke:none;stroke-width:25.99994659" />
  </g>
</svg>
