<?xml version="1.0" encoding="UTF-8" standalone="no"?>
<svg
   xmlns:dc="http://purl.org/dc/elements/1.1/"
   xmlns:cc="http://creativecommons.org/ns#"
   xmlns:rdf="http://www.w3.org/1999/02/22-rdf-syntax-ns#"
   xmlns:svg="http://www.w3.org/2000/svg"
   xmlns="http://www.w3.org/2000/svg"
   xmlns:sodipodi="http://sodipodi.sourceforge.net/DTD/sodipodi-0.dtd"
   xmlns:inkscape="http://www.inkscape.org/namespaces/inkscape"
   viewBox="0 0 64 64"
   version="1.1"
   id="svg5"
   sodipodi:docname="help-whatsthis.svg"
   width="64"
   height="64"
   inkscape:version="0.92.2 5c3e80d, 2017-08-06">
  <metadata
     id="metadata9">
    <rdf:RDF>
      <cc:Work
         rdf:about="">
        <dc:format>image/svg+xml</dc:format>
        <dc:type
           rdf:resource="http://purl.org/dc/dcmitype/StillImage" />
        <dc:title></dc:title>
      </cc:Work>
    </rdf:RDF>
  </metadata>
  <sodipodi:namedview
     pagecolor="#ffffff"
     bordercolor="#666666"
     borderopacity="1"
     objecttolerance="10"
     gridtolerance="10"
     guidetolerance="10"
     inkscape:pageopacity="0"
     inkscape:pageshadow="2"
     inkscape:window-width="1366"
     inkscape:window-height="717"
     id="namedview7"
     showgrid="false"
     inkscape:zoom="0.4609375"
     inkscape:cx="504.34807"
     inkscape:cy="207.61994"
     inkscape:window-x="0"
     inkscape:window-y="24"
     inkscape:window-maximized="1"
     inkscape:current-layer="svg5" />
  <defs
     id="defs3051">
    <style
       type="text/css"
       id="current-color-scheme">
      .ColorScheme-Text {
        color:#4d4d4d;
      }
      </style>
  </defs>
  <g
     id="g865"
     transform="matrix(0.125,0,0,0.125,-3.3612339e-8,56.000006)">
    <path
       id="path1165"
       d="m 432.91328,-391.52504 c 102.1929,88.57349 105.82677,249.69956 8.11678,359.89803 C 343.32007,78.571481 181.27962,96.100444 79.086743,7.5269386 -23.106206,-81.048877 -26.740033,-242.17262 70.969944,-352.37341 168.67988,-462.57187 330.72033,-480.10086 432.91328,-391.52504 Z"
       inkscape:connector-curvature="0"
       style="fill:#f9c440;fill-opacity:1;stroke-width:11.10954762" />
    <path
       id="path1167"
       d="m 511.63552,-223.096 c -1.55136,61.31187 -25.16124,124.15509 -70.96639,175.813453 C 342.95911,62.915913 180.91867,80.444877 78.725762,-8.1285889 30.827125,-49.644723 4.4968196,-107.07704 0.19382728,-167.77219 0.79908088,-101.41479 27.117406,-37.517328 79.078693,7.5176286 181.27157,96.093444 343.31972,78.555181 441.02203,-31.634 c 49.70494,-56.059223 73.00501,-125.29079 70.61349,-191.462 z"
       inkscape:connector-curvature="0"
       style="opacity:1;fill:#000000;fill-opacity:0.49019608;stroke-width:11.10954762" />
    <g
       style="fill:#000000;fill-opacity:0.49019608"
       transform="translate(20.000002,20.000048)"
       id="g855">
      <path
         inkscape:connector-curvature="0"
         id="path851"
         d="m 142.35251,-36.895949 c -10.06193,-3.193013 -14.34684,-13.088553 -12.92918,-29.858848 0.47476,-5.615698 6.24555,-32.688802 12.82395,-60.159873 6.57841,-27.47107 12.07563,-52.45429 12.21604,-55.51698 0.2546,-5.55518 0.2418,-5.56915 -4.61835,-5.17352 -2.68051,0.23273 -12.00007,3.82138 -20.71014,8.00581 -8.71007,4.18675 -16.01321,7.61016 -16.2292,7.61016 -0.21597,0 -2.0732,-2.86719 -4.12713,-6.37205 -3.18122,-5.42952 -3.43933,-6.6141 -1.74243,-8.00581 41.47888,-34.03397 97.96276,-59.52453 111.80215,-50.45749 6.1167,4.00988 8.05606,10.84273 7.13793,25.15077 -0.60998,9.50689 -4.02988,24.93668 -14.16848,63.93006 -8.90915,34.26437 -13.22531,53.296761 -12.9472,57.090213 0.41239,5.627328 0.47732,5.690168 5.58343,5.394599 5.53404,-0.32581 18.81064,-6.465147 28.84042,-13.346873 l 6.15729,-4.223989 4.61363,5.455107 c 2.5375,2.997524 4.62297,5.867048 4.63435,6.372066 0.0349,1.582537 -19.71056,18.608832 -30.78272,26.528525 -27.25879,19.5025 -61.55386,32.018554 -75.55436,27.578123 z m 49.33223,-244.046621 c -10.43573,-3.50719 -18.16779,-15.70441 -18.16779,-28.66031 0,-7.68464 4.55375,-18.45988 10.68242,-25.27646 8.36203,-9.29976 16.59799,-12.93262 29.7296,-13.11415 14.67804,-0.23273 22.66352,3.90981 28.247,14.54077 3.46733,6.60013 3.92003,8.78311 3.45456,16.64694 -1.2686,21.43415 -16.87255,36.11688 -39.39054,37.06641 -5.36101,0.23272 -11.91086,-0.32582 -14.55525,-1.21018 z"
         style="fill:#000000;fill-opacity:0.49019608;stroke-width:1.39246821" />
      <path
         sodipodi:nodetypes="ccccc"
         id="path853"
         class="ColorScheme-Text"
         d="m 251.3077,-270.42024 33.98652,176.012669 40.16665,-82.629709 81.24464,-15.64443 z"
         style="color:#4d4d4d;fill:#000000;fill-opacity:0.49019608;stroke:none;stroke-width:18.38603783"
         inkscape:connector-curvature="0" />
    </g>
    <g
       id="g849">
      <path
         style="fill:#ffffff;fill-opacity:1;stroke-width:1.39246821"
         d="m 142.35251,-36.895949 c -10.06193,-3.193013 -14.34684,-13.088553 -12.92918,-29.858848 0.47476,-5.615698 6.24555,-32.688802 12.82395,-60.159873 6.57841,-27.47107 12.07563,-52.45429 12.21604,-55.51698 0.2546,-5.55518 0.2418,-5.56915 -4.61835,-5.17352 -2.68051,0.23273 -12.00007,3.82138 -20.71014,8.00581 -8.71007,4.18675 -16.01321,7.61016 -16.2292,7.61016 -0.21597,0 -2.0732,-2.86719 -4.12713,-6.37205 -3.18122,-5.42952 -3.43933,-6.6141 -1.74243,-8.00581 41.47888,-34.03397 97.96276,-59.52453 111.80215,-50.45749 6.1167,4.00988 8.05606,10.84273 7.13793,25.15077 -0.60998,9.50689 -4.02988,24.93668 -14.16848,63.93006 -8.90915,34.26437 -13.22531,53.296761 -12.9472,57.090213 0.41239,5.627328 0.47732,5.690168 5.58343,5.394599 5.53404,-0.32581 18.81064,-6.465147 28.84042,-13.346873 l 6.15729,-4.223989 4.61363,5.455107 c 2.5375,2.997524 4.62297,5.867048 4.63435,6.372066 0.0349,1.582537 -19.71056,18.608832 -30.78272,26.528525 -27.25879,19.5025 -61.55386,32.018554 -75.55436,27.578123 z m 49.33223,-244.046621 c -10.43573,-3.50719 -18.16779,-15.70441 -18.16779,-28.66031 0,-7.68464 4.55375,-18.45988 10.68242,-25.27646 8.36203,-9.29976 16.59799,-12.93262 29.7296,-13.11415 14.67804,-0.23273 22.66352,3.90981 28.247,14.54077 3.46733,6.60013 3.92003,8.78311 3.45456,16.64694 -1.2686,21.43415 -16.87255,36.11688 -39.39054,37.06641 -5.36101,0.23272 -11.91086,-0.32582 -14.55525,-1.21018 z"
         id="path1251"
         inkscape:connector-curvature="0" />
      <path
         inkscape:connector-curvature="0"
         style="color:#4d4d4d;fill:#ffffff;fill-opacity:1;stroke:none;stroke-width:18.38603783"
         d="m 251.3077,-270.42024 33.98652,176.012669 40.16665,-82.629709 81.24464,-15.64443 z"
         class="ColorScheme-Text"
         id="path4"
         sodipodi:nodetypes="ccccc" />
    </g>
  </g>
</svg>
