<?xml version="1.0" encoding="UTF-8" standalone="no"?>
<svg
   xmlns:dc="http://purl.org/dc/elements/1.1/"
   xmlns:cc="http://creativecommons.org/ns#"
   xmlns:rdf="http://www.w3.org/1999/02/22-rdf-syntax-ns#"
   xmlns:svg="http://www.w3.org/2000/svg"
   xmlns="http://www.w3.org/2000/svg"
   xmlns:sodipodi="http://sodipodi.sourceforge.net/DTD/sodipodi-0.dtd"
   xmlns:inkscape="http://www.inkscape.org/namespaces/inkscape"
   viewBox="0 0 64 64"
   version="1.1"
   id="svg6"
   sodipodi:docname="gnumeric-column-hide.svg"
   inkscape:version="0.92.2 5c3e80d, 2017-08-06"
   width="64"
   height="64">
  <metadata
     id="metadata10">
    <rdf:RDF>
      <cc:Work
         rdf:about="">
        <dc:format>image/svg+xml</dc:format>
        <dc:type
           rdf:resource="http://purl.org/dc/dcmitype/StillImage" />
        <dc:title></dc:title>
      </cc:Work>
    </rdf:RDF>
  </metadata>
  <sodipodi:namedview
     pagecolor="#ffffff"
     bordercolor="#666666"
     borderopacity="1"
     objecttolerance="10"
     gridtolerance="10"
     guidetolerance="10"
     inkscape:pageopacity="0"
     inkscape:pageshadow="2"
     inkscape:window-width="1366"
     inkscape:window-height="717"
     id="namedview8"
     showgrid="false"
     inkscape:zoom="0.86915209"
     inkscape:cx="24.707784"
     inkscape:cy="4.3993862"
     inkscape:window-x="0"
     inkscape:window-y="24"
     inkscape:window-maximized="1"
     inkscape:current-layer="svg6" />
  <defs
     id="defs3051">
    <style
       type="text/css"
       id="current-color-scheme">
      .ColorScheme-Text {
        color:#4d4d4d;
      }
      </style>
  </defs>
  <g
     id="g890"
     transform="matrix(0.125,0,0,0.125,-1.576692e-8,61)">
    <path
       style="fill:#3689e6;fill-opacity:1;stroke-width:11.10955811"
       inkscape:connector-curvature="0"
       d="m 432.91327,-431.52604 c 102.19291,88.57459 105.82678,249.69971 8.1168,359.898792 C 343.3201,38.571824 181.27964,56.100624 79.086729,-32.473984 -23.106186,-121.04858 -26.740042,-282.1737 70.969928,-392.37278 168.6799,-502.57186 330.72036,-520.10063 432.91327,-431.52604 Z"
       id="path27" />
    <path
       style="opacity:1;fill:#000000;fill-opacity:0.49019608;stroke-width:11.10955811"
       inkscape:connector-curvature="0"
       d="m 511.63551,-263.09649 c -1.55139,61.31165 -25.16123,124.15462 -70.96638,175.814474 C 342.95915,22.91712 180.91869,40.445824 78.725776,-48.128712 30.827124,-89.644368 4.4968223,-147.07717 0.19382834,-207.7712 0.79908002,-141.41453 27.117412,-77.517824 79.078684,-32.480936 181.27159,56.093624 343.31975,38.556224 441.02202,-71.634232 490.72697,-127.69234 514.02704,-196.9252 511.63551,-263.09649 Z"
       id="path51" />
    <path
       style="fill:#000000;fill-opacity:0.49019608;stroke-width:0.64474446"
       d="m 264.01227,-112.38366 c -14.84137,-1.00648 -37.4914,-6.52385 -50.90095,-12.39906 l -3.18985,-1.39759 11.6655,-11.6655 11.6655,-11.66551 1.84027,1.30034 c 3.07147,2.17031 10.86589,5.87601 15.947,7.58168 15.94288,5.35185 33.52498,5.46035 48.94484,0.30205 45.61909,-15.26065 66.55145,-67.05872 44.25548,-109.51219 -1.74946,-3.33113 -3.18084,-6.37996 -3.18084,-6.77519 0,-0.39524 6.50197,-7.21576 14.44883,-15.15673 l 14.44882,-14.43812 4.35159,3.10523 c 21.46515,15.31722 42.76103,39.29973 55.41291,62.40368 3.5544,6.49081 3.20508,8.79861 -2.86177,18.90627 -8.611,14.34635 -20.16215,28.82384 -32.14607,40.28988 -36.531,34.95237 -82.86274,52.36498 -130.70126,49.12076 z m -87.08055,-32.78939 c -21.36548,-15.27416 -44.72585,-41.72882 -55.31667,-62.64387 -3.26297,-6.4438 -2.09907,-10.03513 8.31278,-25.65003 23.63182,-35.44119 59.89283,-63.15515 97.73446,-74.69755 17.29346,-5.27483 29.89898,-7.12303 48.60012,-7.12567 18.66238,-0.003 30.27223,1.72494 48.03346,7.14752 6.39575,1.95266 16.47624,5.69781 17.3778,6.45629 0.44573,0.37501 -22.09641,22.76493 -22.91971,22.76493 -0.39607,0 -3.44559,-1.43138 -6.77672,-3.18083 -18.69763,-9.81973 -40.56633,-11.70333 -60.08175,-5.17497 -40.99285,13.71307 -62.85386,57.48782 -49.12839,98.37529 1.70573,5.0813 5.41139,12.87556 7.58188,15.94728 l 1.30053,1.84054 -14.79993,14.79994 -14.79994,14.79993 z m 89.65952,-23.27437 c -4.83449,-1.03011 -9.99354,-3.04152 -9.99354,-3.89628 0,-0.28729 13.73496,-14.25503 30.52213,-31.0394 l 30.52212,-30.51706 1.33707,3.11796 c 7.09993,16.5565 2.3627,37.86262 -11.24644,50.58196 -11.20821,10.47538 -26.55766,14.86024 -41.14134,11.75282 z m -33.83446,-28.75265 c -1.65593,-3.77386 -3.23834,-11.88649 -3.23834,-16.60217 0,-8.17552 3.05371,-18.37115 7.51874,-25.1033 10.64511,-16.0502 29.48328,-24.05142 47.79527,-20.30031 5.18915,1.06297 10.44992,3.04904 10.44992,3.9451 0,0.67954 -60.12637,60.80085 -60.80596,60.80085 -0.2845,0 -1.05833,-1.23308 -1.71963,-2.74017 z"
       id="path884"
       inkscape:connector-curvature="0" />
    <path
       inkscape:connector-curvature="0"
       id="path828"
       d="m 244.01227,-132.38366 c -14.84137,-1.00648 -37.4914,-6.52385 -50.90095,-12.39906 l -3.18985,-1.39759 11.6655,-11.6655 11.6655,-11.66551 1.84027,1.30034 c 3.07147,2.17031 10.86589,5.87601 15.947,7.58168 15.94288,5.35185 33.52498,5.46035 48.94484,0.30205 45.61909,-15.26065 66.55145,-67.05872 44.25548,-109.51219 -1.74946,-3.33113 -3.18084,-6.37996 -3.18084,-6.77519 0,-0.39524 6.50197,-7.21576 14.44883,-15.15673 l 14.44882,-14.43812 4.35159,3.10523 c 21.46515,15.31722 42.76103,39.29973 55.41291,62.40368 3.5544,6.49081 3.20508,8.79861 -2.86177,18.90627 -8.611,14.34635 -20.16215,28.82384 -32.14607,40.28988 -36.531,34.95237 -82.86274,52.36498 -130.70126,49.12076 z m -87.08055,-32.78939 c -21.36548,-15.27416 -44.72585,-41.72882 -55.31667,-62.64387 -3.262967,-6.4438 -2.099067,-10.03513 8.31278,-25.65003 23.63182,-35.44119 59.89283,-63.15515 97.73446,-74.69755 17.29346,-5.27483 29.89898,-7.12303 48.60012,-7.12567 18.66238,-0.003 30.27223,1.72494 48.03346,7.14752 6.39575,1.95266 16.47624,5.69781 17.3778,6.45629 0.44573,0.37501 -22.09641,22.76493 -22.91971,22.76493 -0.39607,0 -3.44559,-1.43138 -6.77672,-3.18083 -18.69763,-9.81973 -40.56633,-11.70333 -60.08175,-5.17497 -40.99285,13.71307 -62.85386,57.48782 -49.12839,98.37529 1.70573,5.0813 5.41139,12.87556 7.58188,15.94728 l 1.30053,1.84054 -14.79993,14.79994 -14.79994,14.79993 z m 89.65952,-23.27437 c -4.83449,-1.03011 -9.99354,-3.04152 -9.99354,-3.89628 0,-0.28729 13.73496,-14.25503 30.52213,-31.0394 l 30.52212,-30.51706 1.33707,3.11796 c 7.09993,16.5565 2.3627,37.86262 -11.24644,50.58196 -11.20821,10.47538 -26.55766,14.86024 -41.14134,11.75282 z m -33.83446,-28.75265 c -1.65593,-3.77386 -3.23834,-11.88649 -3.23834,-16.60217 0,-8.17552 3.05371,-18.37115 7.51874,-25.1033 10.64511,-16.0502 29.48328,-24.05142 47.79527,-20.30031 5.18915,1.06297 10.44992,3.04904 10.44992,3.9451 0,0.67954 -60.12637,60.80085 -60.80596,60.80085 -0.2845,0 -1.05833,-1.23308 -1.71963,-2.74017 z"
       style="fill:#ffffff;stroke-width:0.64474446" />
  </g>
</svg>
