<?xml version="1.0" encoding="UTF-8" standalone="no"?>
<svg
   xmlns:dc="http://purl.org/dc/elements/1.1/"
   xmlns:cc="http://creativecommons.org/ns#"
   xmlns:rdf="http://www.w3.org/1999/02/22-rdf-syntax-ns#"
   xmlns:svg="http://www.w3.org/2000/svg"
   xmlns="http://www.w3.org/2000/svg"
   xmlns:sodipodi="http://sodipodi.sourceforge.net/DTD/sodipodi-0.dtd"
   xmlns:inkscape="http://www.inkscape.org/namespaces/inkscape"
   viewBox="0 0 64 64"
   version="1.1"
   id="svg6"
   sodipodi:docname="view-object-histogram-linear.svg"
   width="64"
   height="64"
   inkscape:version="0.92.2 5c3e80d, 2017-08-06">
  <metadata
     id="metadata10">
    <rdf:RDF>
      <cc:Work
         rdf:about="">
        <dc:format>image/svg+xml</dc:format>
        <dc:type
           rdf:resource="http://purl.org/dc/dcmitype/StillImage" />
        <dc:title></dc:title>
      </cc:Work>
    </rdf:RDF>
  </metadata>
  <sodipodi:namedview
     pagecolor="#ffffff"
     bordercolor="#666666"
     borderopacity="1"
     objecttolerance="10"
     gridtolerance="10"
     guidetolerance="10"
     inkscape:pageopacity="0"
     inkscape:pageshadow="2"
     inkscape:window-width="1366"
     inkscape:window-height="717"
     id="namedview8"
     showgrid="false"
     inkscape:zoom="1.7383042"
     inkscape:cx="71.667242"
     inkscape:cy="40.512"
     inkscape:window-x="0"
     inkscape:window-y="24"
     inkscape:window-maximized="1"
     inkscape:current-layer="svg6" />
  <defs
     id="defs3051">
    <style
       type="text/css"
       id="current-color-scheme">
      .ColorScheme-Text {
        color:#4d4d4d;
      }
      </style>
  </defs>
  <g
     id="g868"
     transform="matrix(0.125,0,0,0.125,-1.576692e-8,61)">
    <path
       sodipodi:nodetypes="sssss"
       style="fill:#3689e6;fill-opacity:1;stroke-width:11.10955811"
       inkscape:connector-curvature="0"
       d="m 432.91327,-431.52604 c 102.19291,88.57459 105.82678,249.69971 8.1168,359.898792 C 343.3201,38.571824 181.27964,56.100624 79.086729,-32.473984 -23.106186,-121.04858 -26.740042,-282.1737 70.969928,-392.37278 168.6799,-502.57186 330.72036,-520.10063 432.91327,-431.52604 Z"
       id="path27" />
    <path
       style="opacity:1;fill:#000000;fill-opacity:0.49019608;stroke-width:11.10955811"
       inkscape:connector-curvature="0"
       d="m 511.63551,-263.09649 c -1.55139,61.31165 -25.16123,124.15462 -70.96638,175.814474 C 342.95915,22.91712 180.91869,40.445824 78.725776,-48.128712 30.827124,-89.644368 4.4968223,-147.07717 0.19382834,-207.7712 0.79908002,-141.41453 27.117412,-77.517824 79.078684,-32.480936 181.27159,56.093624 343.31975,38.556224 441.02202,-71.634232 490.72697,-127.69234 514.02704,-196.9252 511.63551,-263.09649 Z"
       id="path51" />
    <g
       style="fill:#000000;fill-opacity:0.49019608"
       transform="translate(20,20.068359)"
       id="g856">
      <path
         sodipodi:nodetypes="ccccccccccccccccccccccccc"
         inkscape:connector-curvature="0"
         id="path850"
         class="ColorScheme-Text"
         d="M 138.21186,-132.89831 353.5,-134.5 V -154 H 334 314.5 v -19.5 H 295 v 19.5 h -19.5 v -19.5 H 256 V -310 h -19.5 v -78 H 217 v 39 h -19.5 v 58.5 H 178 v 39 H 158.5 V -193 H 139 v -195 z"
         style="color:#4d4d4d;fill:#000000;fill-opacity:0.49019608;stroke:none;stroke-width:19.5" />
      <path
         inkscape:connector-curvature="0"
         id="path852"
         d="m 135.41406,-388.06836 c -8.81662,0 -15.91406,7.09744 -15.91406,15.91406 V -135.5 h 40 v -236.6543 c 0,-8.81662 -7.09744,-15.91406 -15.91406,-15.91406 z M 119.5,-95.5 v 3.517578 c 0,8.81662 7.09744,15.914063 15.91406,15.914063 h 8.17188 c 8.81662,0 15.91406,-7.097443 15.91406,-15.914063 V -95.5 Z"
         style="opacity:1;fill:#000000;fill-opacity:0.49019608;stroke:none;stroke-width:28.03194618;stroke-miterlimit:4;stroke-dasharray:none;stroke-dashoffset:0;stroke-opacity:1" />
      <rect
         transform="rotate(90)"
         style="opacity:1;fill:#000000;fill-opacity:0.49019608;stroke:none;stroke-width:28.03194618;stroke-miterlimit:4;stroke-dasharray:none;stroke-dashoffset:0;stroke-opacity:1"
         id="rect854"
         width="40"
         height="312"
         x="-135.5"
         y="-412"
         ry="15.914475" />
    </g>
    <g
       id="g848">
      <path
         style="color:#4d4d4d;fill:#ffffff;fill-opacity:1;stroke:none;stroke-width:19.5"
         d="M 138.21186,-132.89831 353.5,-134.5 V -154 H 334 314.5 v -19.5 H 295 v 19.5 h -19.5 v -19.5 H 256 V -310 h -19.5 v -78 H 217 v 39 h -19.5 v 58.5 H 178 v 39 H 158.5 V -193 H 139 v -195 z"
         class="ColorScheme-Text"
         id="path4"
         inkscape:connector-curvature="0"
         sodipodi:nodetypes="ccccccccccccccccccccccccc" />
      <path
         style="opacity:1;fill:#ffffff;fill-opacity:1;stroke:none;stroke-width:28.03194618;stroke-miterlimit:4;stroke-dasharray:none;stroke-dashoffset:0;stroke-opacity:1"
         d="m 135.41406,-388.06836 c -8.81662,0 -15.91406,7.09744 -15.91406,15.91406 V -135.5 h 40 v -236.6543 c 0,-8.81662 -7.09744,-15.91406 -15.91406,-15.91406 z M 119.5,-95.5 v 3.517578 c 0,8.81662 7.09744,15.914063 15.91406,15.914063 h 8.17188 c 8.81662,0 15.91406,-7.097443 15.91406,-15.914063 V -95.5 Z"
         id="rect30"
         inkscape:connector-curvature="0" />
      <rect
         ry="15.914475"
         y="-412"
         x="-135.5"
         height="312"
         width="40"
         id="rect840"
         style="opacity:1;fill:#ffffff;fill-opacity:1;stroke:none;stroke-width:28.03194618;stroke-miterlimit:4;stroke-dasharray:none;stroke-dashoffset:0;stroke-opacity:1"
         transform="rotate(90)" />
    </g>
  </g>
</svg>
