<?xml version="1.0" encoding="UTF-8" standalone="no"?>
<svg
   xmlns:dc="http://purl.org/dc/elements/1.1/"
   xmlns:cc="http://creativecommons.org/ns#"
   xmlns:rdf="http://www.w3.org/1999/02/22-rdf-syntax-ns#"
   xmlns:svg="http://www.w3.org/2000/svg"
   xmlns="http://www.w3.org/2000/svg"
   xmlns:sodipodi="http://sodipodi.sourceforge.net/DTD/sodipodi-0.dtd"
   xmlns:inkscape="http://www.inkscape.org/namespaces/inkscape"
   viewBox="0 0 64 64"
   version="1.1"
   id="svg6"
   sodipodi:docname="im-ban-kick-user.svg"
   width="64"
   height="64"
   inkscape:version="0.92.2 5c3e80d, 2017-08-06">
  <metadata
     id="metadata10">
    <rdf:RDF>
      <cc:Work
         rdf:about="">
        <dc:format>image/svg+xml</dc:format>
        <dc:type
           rdf:resource="http://purl.org/dc/dcmitype/StillImage" />
        <dc:title></dc:title>
      </cc:Work>
    </rdf:RDF>
  </metadata>
  <sodipodi:namedview
     pagecolor="#ffffff"
     bordercolor="#666666"
     borderopacity="1"
     objecttolerance="10"
     gridtolerance="10"
     guidetolerance="10"
     inkscape:pageopacity="0"
     inkscape:pageshadow="2"
     inkscape:window-width="1366"
     inkscape:window-height="717"
     id="namedview8"
     showgrid="false"
     inkscape:zoom="4.9166667"
     inkscape:cx="-42.898797"
     inkscape:cy="13.710463"
     inkscape:window-x="0"
     inkscape:window-y="24"
     inkscape:window-maximized="1"
     inkscape:current-layer="svg6" />
  <defs
     id="defs3051">
    <style
       type="text/css"
       id="current-color-scheme">
      .ColorScheme-NegativeText {
        color:#da4453;
      }
      </style>
  </defs>
  <g
     id="g859"
     transform="matrix(0.125,0,0,0.125,3.0814785e-8,56)">
    <path
       style="fill:#c6262e;fill-opacity:1;stroke-width:11.10955238"
       inkscape:connector-curvature="0"
       d="m 432.91336,-391.52601 c 102.1928,88.57459 105.82666,249.69971 8.11678,359.898788 C 343.32009,78.571816 181.27947,96.100615 79.086672,7.5260409 -23.106167,-81.04855 -26.740027,-242.17367 70.969881,-352.37275 168.67975,-462.57183 330.72029,-480.1006 432.91336,-391.52601 Z"
       id="path911" />
    <path
       style="opacity:1;fill:#000000;fill-opacity:0.49019608;stroke-width:11.10955238"
       inkscape:connector-curvature="0"
       d="m 511.635,-223.09646 c -1.5514,61.31165 -25.16122,124.154599 -70.96631,175.814486 C 342.95882,62.917112 180.91853,80.445816 78.725719,-8.1287109 30.827116,-49.644342 4.4968412,-107.07715 0.19385196,-167.77119 0.79910275,-101.41451 27.117407,-37.51779 79.078623,7.5190569 181.27143,96.093615 343.31941,78.556216 441.02158,-31.634198 490.72648,-87.692342 514.02654,-156.92518 511.635,-223.09646 Z"
       id="path913" />
    <path
       style="fill:#000000;fill-opacity:0.49019608;stroke-width:0.73240042"
       d="m 123.08038,-60.723413 c -3.26225,-5.51214 -4.00024,-13.37552 -1.89319,-20.170667 l 1.22739,-3.95878 43.59259,-43.64329 43.59262,-43.6433 -43.35513,-43.8792 -43.35515,-43.87917 -1.20618,-3.96529 c -1.53592,-5.0486 -1.52022,-10.8576 0.0449,-15.8982 l 1.22739,-3.95873 21.03112,-20.91742 21.03113,-20.91734 4.12921,-1.26634 c 5.24407,-1.60831 10.3359,-1.59445 15.57112,0.0449 l 4.12233,1.28836 43.64349,43.59242 43.64304,43.59287 43.879,-43.35538 43.87892,-43.35529 4.12921,-1.26633 c 5.24404,-1.60832 10.336,-1.59445 15.57127,0.0449 l 4.1222,1.28836 20.91744,21.03123 20.91737,21.03105 1.26613,4.12911 c 1.68336,5.48953 1.58303,10.79334 -0.30159,15.96427 l -1.54795,4.24578 -43.33561,43.38225 -43.33557,43.38248 43.35823,43.88142 43.35784,43.88185 1.26613,4.129157 c 1.68335,5.48932 1.58302,10.79336 -0.3016,15.96417 l -1.54795,4.2457 -20.51179,20.40102 -20.51185,20.400917 -4.20558,1.483716 c -5.06234,1.786332 -10.82375,1.855869 -16.17765,0.195763 l -3.95868,-1.22739 -43.64615,-43.595066 -43.64617,-43.595097 -43.61666,43.099797 -43.61673,43.09983 -4.2055,1.483715 c -5.06235,1.786128 -10.82373,1.855868 -16.17767,0.195762 l -3.95869,-1.227387 -19.97508,-19.90239 c -10.98635,-10.94626 -20.49482,-20.78005 -21.12954,-21.85321 z"
       id="path853"
       inkscape:connector-curvature="0" />
    <path
       inkscape:connector-curvature="0"
       id="path844"
       d="m 103.08038,-80.723413 c -3.262251,-5.51214 -4.000241,-13.37552 -1.89319,-20.170667 l 1.22739,-3.95878 43.59259,-43.64329 43.59262,-43.6433 -43.35513,-43.8792 -43.35515,-43.87917 -1.20618,-3.96529 c -1.53592,-5.0486 -1.52022,-10.8576 0.0449,-15.8982 l 1.22739,-3.95873 21.03112,-20.91742 21.03113,-20.91734 4.12921,-1.26634 c 5.24407,-1.60831 10.3359,-1.59445 15.57112,0.0449 l 4.12233,1.28836 43.64349,43.59242 43.64304,43.59287 43.879,-43.35538 43.87892,-43.35529 4.12921,-1.26633 c 5.24404,-1.60832 10.336,-1.59445 15.57127,0.0449 l 4.1222,1.28836 20.91744,21.03123 20.91737,21.03105 1.26613,4.12911 c 1.68336,5.48953 1.58303,10.79334 -0.30159,15.96427 l -1.54795,4.24578 -43.33561,43.38225 -43.33557,43.38248 43.35823,43.88142 43.35784,43.88185 1.26613,4.129157 c 1.68335,5.48932 1.58302,10.79336 -0.3016,15.96417 l -1.54795,4.2457 -20.51179,20.40102 -20.51185,20.400917 -4.20558,1.483716 c -5.06234,1.786332 -10.82375,1.855869 -16.17765,0.195763 l -3.95868,-1.22739 -43.64615,-43.595066 -43.64617,-43.595097 -43.61666,43.099797 -43.61673,43.09983 -4.2055,1.483715 c -5.06235,1.786128 -10.82373,1.855868 -16.17767,0.195762 l -3.95869,-1.227387 -19.97508,-19.90239 c -10.98635,-10.94626 -20.49482,-20.78005 -21.12954,-21.85321 z"
       style="fill:#ffffff;stroke-width:0.73240042" />
  </g>
</svg>
