<?xml version="1.0" encoding="UTF-8" standalone="no"?>
<svg
   xmlns:dc="http://purl.org/dc/elements/1.1/"
   xmlns:cc="http://creativecommons.org/ns#"
   xmlns:rdf="http://www.w3.org/1999/02/22-rdf-syntax-ns#"
   xmlns:svg="http://www.w3.org/2000/svg"
   xmlns="http://www.w3.org/2000/svg"
   xmlns:sodipodi="http://sodipodi.sourceforge.net/DTD/sodipodi-0.dtd"
   xmlns:inkscape="http://www.inkscape.org/namespaces/inkscape"
   viewBox="0 0 64 64"
   version="1.1"
   id="svg6"
   sodipodi:docname="im-invisible-user.svg"
   width="64"
   height="64"
   inkscape:version="0.92.2 5c3e80d, 2017-08-06">
  <metadata
     id="metadata10">
    <rdf:RDF>
      <cc:Work
         rdf:about="">
        <dc:format>image/svg+xml</dc:format>
        <dc:type
           rdf:resource="http://purl.org/dc/dcmitype/StillImage" />
        <dc:title></dc:title>
      </cc:Work>
    </rdf:RDF>
  </metadata>
  <sodipodi:namedview
     pagecolor="#ffffff"
     bordercolor="#666666"
     borderopacity="1"
     objecttolerance="10"
     gridtolerance="10"
     guidetolerance="10"
     inkscape:pageopacity="0"
     inkscape:pageshadow="2"
     inkscape:window-width="1366"
     inkscape:window-height="717"
     id="namedview8"
     showgrid="false"
     inkscape:zoom="3.4766083"
     inkscape:cx="17.765735"
     inkscape:cy="27.212928"
     inkscape:window-x="0"
     inkscape:window-y="24"
     inkscape:window-maximized="1"
     inkscape:current-layer="svg6" />
  <defs
     id="defs3051">
    <style
       type="text/css"
       id="current-color-scheme">
      .ColorScheme-Text {
        color:#4d4d4d;
      }
      </style>
  </defs>
  <g
     id="g35"
     transform="matrix(3.9999999,0,0,3.9999999,-1766.7878,-2114.8001)">
    <path
       style="fill:#8a715e;fill-opacity:1;stroke-width:0.34717369"
       inkscape:connector-curvature="0"
       d="m 455.22549,530.46486 c 3.19353,2.76796 3.30709,7.80312 0.25365,11.24684 -3.05344,3.44372 -8.1172,3.99149 -11.31073,1.22354 -3.19353,-2.76796 -3.30708,-7.80312 -0.25365,-11.24684 3.05344,-3.44372 8.1172,-3.9915 11.31073,-1.22354 z"
       id="path52" />
    <path
       style="opacity:1;fill:#000000;fill-opacity:0.49019608;stroke-width:0.34717369"
       inkscape:connector-curvature="0"
       d="m 457.68556,535.72828 c -0.0485,1.91599 -0.78629,3.87984 -2.2177,5.49421 -3.05343,3.44372 -8.1172,3.99149 -11.31073,1.22354 -1.49683,-1.29737 -2.31965,-3.09214 -2.45412,-4.98883 0.0189,2.07365 0.84136,4.07042 2.46515,5.47782 3.19353,2.76796 8.25753,2.21991 11.31073,-1.22354 1.55328,-1.75182 2.28141,-3.91534 2.20667,-5.9832 z"
       id="path54" />
    <path
       style="fill:#000000;fill-opacity:0.49019608;stroke-width:0.01743139"
       d="m 449.95043,542.19346 c -0.20179,-0.0163 -0.59184,-0.0827 -0.81786,-0.1394 -0.6263,-0.15703 -1.2132,-0.43877 -1.75327,-0.84168 -0.2338,-0.17441 -0.72371,-0.65408 -0.89185,-0.87321 -0.71906,-0.93708 -1.07811,-2.03513 -1.03738,-3.17251 0.0367,-1.02484 0.36873,-1.96566 0.98387,-2.78774 0.1988,-0.26568 0.68104,-0.74791 0.94681,-0.94677 0.70629,-0.52849 1.50973,-0.85103 2.38665,-0.95811 0.2376,-0.029 0.88163,-0.0287 1.1156,4.7e-4 0.88967,0.11115 1.67834,0.42759 2.38665,0.95759 0.26577,0.19887 0.74801,0.68109 0.94681,0.94677 0.51297,0.68555 0.8195,1.43158 0.94848,2.30838 0.0428,0.29092 0.0426,0.97791 -2.5e-4,1.27249 -0.13043,0.89508 -0.45917,1.67638 -1.00038,2.37759 -0.17288,0.22399 -0.66034,0.70161 -0.89317,0.87515 -0.6754,0.50339 -1.41132,0.81218 -2.23993,0.93987 -0.23741,0.0366 -0.84823,0.0598 -1.08075,0.0411 z m -2.75882,-2.72447 c 0.3056,-0.43189 0.71362,-0.80637 1.18477,-1.08735 0.19181,-0.11439 0.48176,-0.25348 0.62403,-0.29935 0.0527,-0.017 0.10173,-0.0362 0.10889,-0.0427 0.007,-0.006 -0.053,-0.0606 -0.13369,-0.12041 -0.0807,-0.0598 -0.20959,-0.17508 -0.28643,-0.25626 -0.55738,-0.58883 -0.76044,-1.42126 -0.53494,-2.1929 0.22478,-0.76915 0.83601,-1.35945 1.61635,-1.56101 0.416,-0.10745 0.95207,-0.0789 1.33902,0.0712 0.80304,0.31159 1.34308,0.98903 1.45626,1.82676 0.0136,0.10067 0.0247,0.23402 0.0247,0.29633 0,0.69226 -0.35811,1.40283 -0.91476,1.81511 -0.0813,0.0602 -0.1419,0.11472 -0.13474,0.12118 0.007,0.006 0.0562,0.0257 0.10889,0.0427 0.14214,0.0458 0.43209,0.1849 0.62403,0.29929 0.58946,0.35133 1.07379,0.84579 1.39602,1.42522 l 0.10333,0.18582 0.0844,-0.11798 c 0.79517,-1.11129 1.03093,-2.51364 0.63965,-3.80478 -0.49387,-1.62965 -1.85691,-2.80194 -3.56214,-3.06366 -0.28072,-0.0431 -0.93948,-0.0431 -1.2202,0 -1.73192,0.26581 -3.10202,1.46391 -3.58232,3.13259 -0.19987,0.69442 -0.21725,1.47017 -0.049,2.18705 0.12444,0.53018 0.38083,1.09041 0.70883,1.5488 l 0.0844,0.11798 0.10267,-0.18462 c 0.0565,-0.10154 0.15182,-0.25409 0.21191,-0.33901 z"
       id="path56"
       inkscape:connector-curvature="0"
       sodipodi:nodetypes="ccssssscccccccccccccccccscccssccscccssssscccc" />
    <path
       sodipodi:nodetypes="ccssssscccccccccccccccccscccssccscccssssscccc"
       inkscape:connector-curvature="0"
       id="path58"
       d="m 449.32543,541.56846 c -0.20179,-0.0163 -0.59184,-0.0827 -0.81786,-0.1394 -0.6263,-0.15703 -1.2132,-0.43877 -1.75327,-0.84168 -0.2338,-0.17441 -0.72371,-0.65408 -0.89185,-0.87321 -0.71906,-0.93708 -1.07811,-2.03513 -1.03738,-3.17251 0.0367,-1.02484 0.36873,-1.96566 0.98387,-2.78774 0.1988,-0.26568 0.68104,-0.74791 0.94681,-0.94677 0.70629,-0.52849 1.50973,-0.85103 2.38665,-0.95811 0.2376,-0.029 0.88163,-0.0287 1.1156,4.7e-4 0.88967,0.11115 1.67834,0.42759 2.38665,0.95759 0.26577,0.19887 0.74801,0.68109 0.94681,0.94677 0.51297,0.68555 0.8195,1.43158 0.94848,2.30838 0.0428,0.29092 0.0426,0.97791 -2.5e-4,1.27249 -0.13043,0.89508 -0.45917,1.67638 -1.00038,2.37759 -0.17288,0.22399 -0.66034,0.70161 -0.89317,0.87515 -0.6754,0.50339 -1.41132,0.81218 -2.23993,0.93987 -0.23741,0.0366 -0.84823,0.0598 -1.08075,0.0411 z m -2.75882,-2.72447 c 0.3056,-0.43189 0.71362,-0.80637 1.18477,-1.08735 0.19181,-0.11439 0.48176,-0.25348 0.62403,-0.29935 0.0527,-0.017 0.10173,-0.0362 0.10889,-0.0427 0.007,-0.006 -0.053,-0.0606 -0.13369,-0.12041 -0.0807,-0.0598 -0.20959,-0.17508 -0.28643,-0.25626 -0.55738,-0.58883 -0.76044,-1.42126 -0.53494,-2.1929 0.22478,-0.76915 0.83601,-1.35945 1.61635,-1.56101 0.416,-0.10745 0.95207,-0.0789 1.33902,0.0712 0.80304,0.31159 1.34308,0.98903 1.45626,1.82676 0.0136,0.10067 0.0247,0.23402 0.0247,0.29633 0,0.69226 -0.35811,1.40283 -0.91476,1.81511 -0.0813,0.0602 -0.1419,0.11472 -0.13474,0.12118 0.007,0.006 0.0562,0.0257 0.10889,0.0427 0.14214,0.0458 0.43209,0.1849 0.62403,0.29929 0.58946,0.35133 1.07379,0.84579 1.39602,1.42522 l 0.10333,0.18582 0.0844,-0.11798 c 0.79517,-1.11129 1.03093,-2.51364 0.63965,-3.80478 -0.49387,-1.62965 -1.85691,-2.80194 -3.56214,-3.06366 -0.28072,-0.0431 -0.93948,-0.0431 -1.2202,0 -1.73192,0.26581 -3.10202,1.46391 -3.58232,3.13259 -0.19987,0.69442 -0.21725,1.47017 -0.049,2.18705 0.12444,0.53018 0.38083,1.09041 0.70883,1.5488 l 0.0844,0.11798 0.10267,-0.18462 c 0.0565,-0.10154 0.15182,-0.25409 0.21191,-0.33901 z"
       style="fill:#ffffff;stroke-width:0.01743139" />
  </g>
</svg>
