<?xml version="1.0" encoding="UTF-8" standalone="no"?>
<svg
   xmlns:dc="http://purl.org/dc/elements/1.1/"
   xmlns:cc="http://creativecommons.org/ns#"
   xmlns:rdf="http://www.w3.org/1999/02/22-rdf-syntax-ns#"
   xmlns:svg="http://www.w3.org/2000/svg"
   xmlns="http://www.w3.org/2000/svg"
   xmlns:sodipodi="http://sodipodi.sourceforge.net/DTD/sodipodi-0.dtd"
   xmlns:inkscape="http://www.inkscape.org/namespaces/inkscape"
   viewBox="0 0 64 64"
   version="1.1"
   id="svg6"
   sodipodi:docname="im-icq.svg"
   width="64"
   height="64"
   inkscape:version="0.92.2 5c3e80d, 2017-08-06">
  <metadata
     id="metadata10">
    <rdf:RDF>
      <cc:Work
         rdf:about="">
        <dc:format>image/svg+xml</dc:format>
        <dc:type
           rdf:resource="http://purl.org/dc/dcmitype/StillImage" />
        <dc:title></dc:title>
      </cc:Work>
    </rdf:RDF>
  </metadata>
  <sodipodi:namedview
     pagecolor="#ffffff"
     bordercolor="#666666"
     borderopacity="1"
     objecttolerance="10"
     gridtolerance="10"
     guidetolerance="10"
     inkscape:pageopacity="0"
     inkscape:pageshadow="2"
     inkscape:window-width="1366"
     inkscape:window-height="717"
     id="namedview8"
     showgrid="false"
     inkscape:zoom="2.4583333"
     inkscape:cx="118.22713"
     inkscape:cy="11.125292"
     inkscape:window-x="0"
     inkscape:window-y="24"
     inkscape:window-maximized="1"
     inkscape:current-layer="svg6" />
  <defs
     id="defs3051">
    <style
       type="text/css"
       id="current-color-scheme">
      .ColorScheme-Text {
        color:#4d4d4d;
      }
      </style>
  </defs>
  <g
     id="g838"
     transform="matrix(0.125,0,0,0.125,-4.240174e-8,60.999999)">
    <path
       style="fill:#3689e6;fill-opacity:1;stroke-width:11.10955715"
       inkscape:connector-curvature="0"
       d="m 432.91328,-431.52599 c 102.1929,88.57456 105.82676,249.69968 8.1168,359.898708 C 343.32011,38.571833 181.27966,56.100632 79.086753,-32.474004 -23.106203,-121.04856 -26.740042,-282.17367 70.969953,-392.37279 168.67989,-502.57182 330.72037,-520.10062 432.91328,-431.52599 Z"
       id="path890" />
    <path
       style="opacity:1;fill:#000000;fill-opacity:0.49019608;stroke-width:11.10955715"
       inkscape:connector-curvature="0"
       d="m 511.63555,-263.09647 c -1.5514,61.31168 -25.16124,124.15455 -70.96639,175.814469 C 342.95918,22.917114 180.91872,40.445833 78.725801,-48.128723 30.827147,-89.644319 4.4968439,-147.0772 0.19387607,-207.77119 0.79947604,-141.41456 27.117435,-77.517842 79.078705,-32.480964 181.27163,56.093592 343.31978,38.556233 441.02206,-71.634242 490.72699,-127.69232 514.02708,-196.92519 511.63555,-263.09647 Z"
       id="path892" />
    <path
       style="color:#4d4d4d;fill:#000000;fill-opacity:0.49019608;stroke:none;stroke-width:19.5"
       d="m 276,-368 a 38.99999,58.5 0 0 0 -39,58.5 38.99999,58.5 0 0 0 0.11425,3.61816 58.5,38.99999 45 0 0 -2.47558,-2.62793 58.5,38.99999 45 0 0 -68.93554,-13.7871 58.5,38.99999 45 0 0 13.78711,68.93554 58.5,38.99999 45 0 0 2.58984,2.47558 A 58.5,38.99999 0 0 0 178.5,-251 a 58.5,38.99999 0 0 0 -58.5,39 58.5,38.99999 0 0 0 58.5,39 58.5,38.99999 0 0 0 3.61817,-0.11425 38.99999,58.5 45 0 0 -2.62793,2.47558 38.99999,58.5 45 0 0 -13.78711,68.93554 38.99999,58.5 45 0 0 68.93554,-13.7871 38.99999,58.5 45 0 0 2.47558,-2.58985 A 38.99999,58.5 0 0 0 237,-114.5 a 38.99999,58.5 0 0 0 39,58.5 38.99999,58.5 0 0 0 39,-58.5 38.99999,58.5 0 0 0 -0.11425,-3.61817 58.5,38.99999 45 0 0 2.47558,2.62794 58.5,38.99999 45 0 0 68.93554,13.7871 58.5,38.99999 45 0 0 -13.7871,-68.93554 58.5,38.99999 45 0 0 -2.58985,-2.47558 A 58.5,38.99999 0 0 0 373.5,-173 a 58.5,38.99999 0 0 0 58.5,-39 58.5,38.99999 0 0 0 -58.5,-39 58.5,38.99999 0 0 0 -3.61817,0.11425 38.99999,58.5 45 0 0 2.62794,-2.47558 38.99999,58.5 45 0 0 13.7871,-68.93554 38.99999,58.5 45 0 0 -68.93554,13.7871 38.99999,58.5 45 0 0 -2.47558,2.58985 A 38.99999,58.5 0 0 0 315,-309.5 38.99999,58.5 0 0 0 276,-368 Z m 19.38575,109.1543 a 38.99999,58.5 45 0 0 8.18846,19.27149 38.99999,58.5 45 0 0 19.23341,8.18846 A 58.5,38.99999 0 0 0 315,-212 a 58.5,38.99999 0 0 0 7.84571,19.38575 58.5,38.99999 45 0 0 -19.2715,8.18846 58.5,38.99999 45 0 0 -8.18846,19.23341 A 38.99999,58.5 0 0 0 276,-173 a 38.99999,58.5 0 0 0 -19.38575,7.80762 38.99999,58.5 45 0 0 -8.18846,-19.23341 38.99999,58.5 45 0 0 -19.23341,-8.18846 A 58.5,38.99999 0 0 0 237,-212 a 58.5,38.99999 0 0 0 -7.80762,-19.38575 58.5,38.99999 45 0 0 19.23341,-8.18846 58.5,38.99999 45 0 0 8.18846,-19.23341 A 38.99999,58.5 0 0 0 276,-251 a 38.99999,58.5 0 0 0 19.38575,-7.8457 z M 276,-231.5 c -10.803,0 -19.5,8.697 -19.5,19.5 0,10.803 8.697,19.5 19.5,19.5 10.803,0 19.5,-8.697 19.5,-19.5 0,-10.803 -8.697,-19.5 -19.5,-19.5 z"
       class="ColorScheme-Text"
       id="path24"
       inkscape:connector-curvature="0" />
    <path
       inkscape:connector-curvature="0"
       id="path4"
       class="ColorScheme-Text"
       d="m 256,-388 a 38.99999,58.5 0 0 0 -39,58.5 38.99999,58.5 0 0 0 0.11425,3.61816 58.5,38.99999 45 0 0 -2.47558,-2.62793 58.5,38.99999 45 0 0 -68.93554,-13.7871 58.5,38.99999 45 0 0 13.78711,68.93554 58.5,38.99999 45 0 0 2.58984,2.47558 A 58.5,38.99999 0 0 0 158.5,-271 a 58.5,38.99999 0 0 0 -58.5,39 58.5,38.99999 0 0 0 58.5,39 58.5,38.99999 0 0 0 3.61817,-0.11425 38.99999,58.5 45 0 0 -2.62793,2.47558 38.99999,58.5 45 0 0 -13.78711,68.93554 38.99999,58.5 45 0 0 68.93554,-13.7871 38.99999,58.5 45 0 0 2.47558,-2.58985 A 38.99999,58.5 0 0 0 217,-134.5 a 38.99999,58.5 0 0 0 39,58.5 38.99999,58.5 0 0 0 39,-58.5 38.99999,58.5 0 0 0 -0.11425,-3.61817 58.5,38.99999 45 0 0 2.47558,2.62794 58.5,38.99999 45 0 0 68.93554,13.7871 58.5,38.99999 45 0 0 -13.7871,-68.93554 58.5,38.99999 45 0 0 -2.58985,-2.47558 A 58.5,38.99999 0 0 0 353.5,-193 a 58.5,38.99999 0 0 0 58.5,-39 58.5,38.99999 0 0 0 -58.5,-39 58.5,38.99999 0 0 0 -3.61817,0.11425 38.99999,58.5 45 0 0 2.62794,-2.47558 38.99999,58.5 45 0 0 13.7871,-68.93554 38.99999,58.5 45 0 0 -68.93554,13.7871 38.99999,58.5 45 0 0 -2.47558,2.58985 A 38.99999,58.5 0 0 0 295,-329.5 38.99999,58.5 0 0 0 256,-388 Z m 19.38575,109.1543 a 38.99999,58.5 45 0 0 8.18846,19.27149 38.99999,58.5 45 0 0 19.23341,8.18846 A 58.5,38.99999 0 0 0 295,-232 a 58.5,38.99999 0 0 0 7.84571,19.38575 58.5,38.99999 45 0 0 -19.2715,8.18846 58.5,38.99999 45 0 0 -8.18846,19.23341 A 38.99999,58.5 0 0 0 256,-193 a 38.99999,58.5 0 0 0 -19.38575,7.80762 38.99999,58.5 45 0 0 -8.18846,-19.23341 38.99999,58.5 45 0 0 -19.23341,-8.18846 A 58.5,38.99999 0 0 0 217,-232 a 58.5,38.99999 0 0 0 -7.80762,-19.38575 58.5,38.99999 45 0 0 19.23341,-8.18846 58.5,38.99999 45 0 0 8.18846,-19.23341 A 38.99999,58.5 0 0 0 256,-271 a 38.99999,58.5 0 0 0 19.38575,-7.8457 z M 256,-251.5 c -10.803,0 -19.5,8.697 -19.5,19.5 0,10.803 8.697,19.5 19.5,19.5 10.803,0 19.5,-8.697 19.5,-19.5 0,-10.803 -8.697,-19.5 -19.5,-19.5 z"
       style="color:#4d4d4d;fill:#ffffff;fill-opacity:1;stroke:none;stroke-width:19.5" />
  </g>
</svg>
