<?xml version="1.0" encoding="UTF-8" standalone="no"?>
<svg
   xmlns:dc="http://purl.org/dc/elements/1.1/"
   xmlns:cc="http://creativecommons.org/ns#"
   xmlns:rdf="http://www.w3.org/1999/02/22-rdf-syntax-ns#"
   xmlns:svg="http://www.w3.org/2000/svg"
   xmlns="http://www.w3.org/2000/svg"
   xmlns:sodipodi="http://sodipodi.sourceforge.net/DTD/sodipodi-0.dtd"
   xmlns:inkscape="http://www.inkscape.org/namespaces/inkscape"
   viewBox="0 0 64 64"
   version="1.1"
   id="svg6"
   sodipodi:docname="im-msn.svg"
   width="64"
   height="64"
   inkscape:version="0.92.2 5c3e80d, 2017-08-06">
  <metadata
     id="metadata10">
    <rdf:RDF>
      <cc:Work
         rdf:about="">
        <dc:format>image/svg+xml</dc:format>
        <dc:type
           rdf:resource="http://purl.org/dc/dcmitype/StillImage" />
        <dc:title></dc:title>
      </cc:Work>
    </rdf:RDF>
  </metadata>
  <sodipodi:namedview
     pagecolor="#ffffff"
     bordercolor="#666666"
     borderopacity="1"
     objecttolerance="10"
     gridtolerance="10"
     guidetolerance="10"
     inkscape:pageopacity="0"
     inkscape:pageshadow="2"
     inkscape:window-width="1366"
     inkscape:window-height="717"
     id="namedview8"
     showgrid="false"
     inkscape:zoom="0.43457604"
     inkscape:cx="789.29905"
     inkscape:cy="227.32385"
     inkscape:window-x="0"
     inkscape:window-y="24"
     inkscape:window-maximized="1"
     inkscape:current-layer="svg6" />
  <defs
     id="defs3051">
    <style
       type="text/css"
       id="current-color-scheme">
      .ColorScheme-Text {
        color:#4d4d4d;
      }
      </style>
  </defs>
  <g
     id="g838"
     transform="matrix(0.125,0,0,0.125,-2.3480626e-7,56)">
    <path
       style="fill:#3689e6;fill-opacity:1;stroke-width:11.10955811"
       inkscape:connector-curvature="0"
       d="m 432.91325,-391.52602 c 102.19295,88.57458 105.82679,249.6997 8.1168,359.898775 C 343.32013,78.571822 181.27966,96.100622 79.086741,7.5260253 -23.106207,-81.048571 -26.740031,-242.17368 70.969941,-352.37277 168.6799,-462.57185 330.72037,-480.10062 432.91325,-391.52602 Z"
       id="path890" />
    <path
       style="opacity:1;fill:#000000;fill-opacity:0.49019608;stroke-width:11.10955811"
       inkscape:connector-curvature="0"
       d="m 511.63556,-223.09648 c -1.55144,61.31166 -25.16128,124.154598 -70.96639,175.814484 C 342.95917,62.917119 180.9187,80.445822 78.725789,-8.1287261 30.827135,-49.644356 4.4968323,-107.07717 0.19384046,-167.77121 0.79912044,-101.41453 27.117423,-37.517805 79.078693,7.5190573 181.27158,96.093622 343.31973,78.556222 441.02205,-31.634213 490.727,-87.692355 514.02708,-156.92519 511.63556,-223.09648 Z"
       id="path892" />
    <path
       style="color:#4d4d4d;fill:#000000;fill-opacity:0.49019608;stroke:none;stroke-width:19.5"
       d="m 120,-328 v 136.5 H 256.5 V -328 Z m 175.5,0 v 136.5 H 432 V -328 Z M 120,-152.5 V -16 h 136.5 v -136.5 z m 175.5,0 V -16 H 432 v -136.5 z"
       class="ColorScheme-Text"
       id="path24"
       inkscape:connector-curvature="0" />
    <path
       inkscape:connector-curvature="0"
       id="path4"
       class="ColorScheme-Text"
       d="m 100,-348 v 136.5 H 236.5 V -348 Z m 175.5,0 v 136.5 H 412 V -348 Z M 100,-172.5 V -36 h 136.5 v -136.5 z m 175.5,0 V -36 H 412 v -136.5 z"
       style="color:#4d4d4d;fill:#ffffff;fill-opacity:1;stroke:none;stroke-width:19.5" />
  </g>
</svg>
