<?xml version="1.0" encoding="UTF-8" standalone="no"?>
<svg
   xmlns:dc="http://purl.org/dc/elements/1.1/"
   xmlns:cc="http://creativecommons.org/ns#"
   xmlns:rdf="http://www.w3.org/1999/02/22-rdf-syntax-ns#"
   xmlns:svg="http://www.w3.org/2000/svg"
   xmlns="http://www.w3.org/2000/svg"
   xmlns:sodipodi="http://sodipodi.sourceforge.net/DTD/sodipodi-0.dtd"
   xmlns:inkscape="http://www.inkscape.org/namespaces/inkscape"
   viewBox="0 0 64 64"
   version="1.1"
   id="svg6"
   sodipodi:docname="im-twitter.svg"
   width="64"
   height="64"
   inkscape:version="0.92.2 5c3e80d, 2017-08-06">
  <metadata
     id="metadata10">
    <rdf:RDF>
      <cc:Work
         rdf:about="">
        <dc:format>image/svg+xml</dc:format>
        <dc:type
           rdf:resource="http://purl.org/dc/dcmitype/StillImage" />
        <dc:title></dc:title>
      </cc:Work>
    </rdf:RDF>
  </metadata>
  <sodipodi:namedview
     pagecolor="#ffffff"
     bordercolor="#666666"
     borderopacity="1"
     objecttolerance="10"
     gridtolerance="10"
     guidetolerance="10"
     inkscape:pageopacity="0"
     inkscape:pageshadow="2"
     inkscape:window-width="1366"
     inkscape:window-height="717"
     id="namedview8"
     showgrid="false"
     inkscape:zoom="0.43457604"
     inkscape:cx="802.69778"
     inkscape:cy="420.02248"
     inkscape:window-x="0"
     inkscape:window-y="24"
     inkscape:window-maximized="1"
     inkscape:current-layer="svg6" />
  <defs
     id="defs3051">
    <style
       type="text/css"
       id="current-color-scheme">
      .ColorScheme-Text {
        color:#4d4d4d;
      }
      </style>
  </defs>
  <g
     id="g838"
     transform="matrix(0.125,0,0,0.125,-2.3480626e-7,56)">
    <path
       style="fill:#3689e6;fill-opacity:1;stroke-width:11.10955811"
       inkscape:connector-curvature="0"
       d="m 432.91325,-391.52603 c 102.19295,88.57459 105.82679,249.69971 8.1168,359.898785 C 343.32013,78.571822 181.27966,96.100622 79.086741,7.526025 -23.106207,-81.04857 -26.740031,-242.17368 70.969941,-352.37277 168.6799,-462.57186 330.72037,-480.10063 432.91325,-391.52603 Z"
       id="path890" />
    <path
       style="opacity:1;fill:#000000;fill-opacity:0.49019608;stroke-width:11.10955811"
       inkscape:connector-curvature="0"
       d="m 511.63556,-223.09648 c -1.55144,61.31166 -25.16128,124.1546 -70.96639,175.814484 C 342.95917,62.917119 180.9187,80.445822 78.725789,-8.128726 30.827135,-49.644357 4.4968323,-107.07717 0.19384046,-167.77121 0.79912044,-101.41453 27.117423,-37.517805 79.078693,7.519057 181.27158,96.093622 343.31973,78.556222 441.02205,-31.634213 490.727,-87.69236 514.02708,-156.92519 511.63556,-223.09648 Z"
       id="path892" />
    <path
       style="color:#4d4d4d;fill:#000000;fill-opacity:0.49019608;stroke:none;stroke-width:19.5"
       d="m 336.02344,-299.5 c -35.3496,0 -64.02246,28.64043 -64.02246,63.98438 0,5.01501 0.54764,9.90359 1.63769,14.58691 -53.19669,-2.66819 -100.36074,-28.12299 -131.92968,-66.84082 -5.5109,9.45087 -8.64551,20.41665 -8.64551,32.14453 0,22.20406 11.27421,41.80608 28.45019,53.28223 -10.49294,-0.32565 -20.35367,-3.20553 -28.98339,-7.99804 -0.006,0.273 0,0.52679 0,0.79979 0,31.00771 22.05923,56.84615 51.33984,62.72754 -5.36991,1.46445 -11.03377,2.24708 -16.87207,2.24706 -4.12406,0 -8.12638,-0.40156 -12.03515,-1.14256 8.14592,25.42449 31.78473,43.93208 59.79492,44.44629 -21.90669,17.16663 -49.49572,27.383813 -79.48536,27.383774 -5.16691,-1.17e-4 -10.26583,-0.28511 -15.27246,-0.87596 C 148.32668,-56.596671 181.96184,-46 218.10938,-46 c 117.73554,0 182.12695,-97.51582 182.12695,-182.08887 0,-2.77387 -0.0929,-5.51982 -0.19043,-8.26465 12.50815,-9.02343 23.37313,-20.30006 31.9541,-33.13476 -11.47751,5.0895 -23.80689,8.50717 -36.75294,10.05469 13.2134,-7.92032 23.32799,-20.43704 28.10744,-35.38184 -12.36846,7.33473 -26.05697,12.67042 -40.63771,15.53906 C 371.04234,-291.71366 354.43358,-299.5 336.02344,-299.5 Z"
       class="ColorScheme-Text"
       id="path24"
       inkscape:connector-curvature="0" />
    <path
       inkscape:connector-curvature="0"
       id="path4"
       class="ColorScheme-Text"
       d="m 316.02344,-319.5 c -35.3496,0 -64.02246,28.64043 -64.02246,63.98438 0,5.01501 0.54764,9.90359 1.63769,14.58691 -53.19669,-2.66819 -100.36074,-28.12299 -131.92968,-66.84082 -5.5109,9.45087 -8.64551,20.41665 -8.64551,32.14453 0,22.20406 11.27421,41.80608 28.45019,53.28223 -10.49294,-0.32565 -20.35367,-3.20553 -28.98339,-7.99804 -0.006,0.273 0,0.52679 0,0.79979 0,31.00771 22.05923,56.84615 51.33984,62.72754 -5.36991,1.46445 -11.03377,2.24708 -16.87207,2.24706 -4.12406,0 -8.12638,-0.40156 -12.03515,-1.14256 8.14592,25.42449 31.78473,43.93208 59.79492,44.44629 -21.90669,17.16663 -49.49572,27.383813 -79.48536,27.383774 -5.16691,-1.17e-4 -10.26583,-0.28511 -15.27246,-0.87596 C 128.32668,-76.596671 161.96184,-66 198.10938,-66 c 117.73554,0 182.12695,-97.51582 182.12695,-182.08887 0,-2.77387 -0.0929,-5.51982 -0.19043,-8.26465 12.50815,-9.02343 23.37313,-20.30006 31.9541,-33.13476 -11.47751,5.0895 -23.80689,8.50717 -36.75294,10.05469 13.2134,-7.92032 23.32799,-20.43704 28.10744,-35.38184 -12.36846,7.33473 -26.05697,12.67042 -40.63771,15.53906 C 351.04234,-311.71366 334.43358,-319.5 316.02344,-319.5 Z"
       style="color:#4d4d4d;fill:#ffffff;fill-opacity:1;stroke:none;stroke-width:19.5" />
  </g>
</svg>
