<?xml version="1.0" encoding="UTF-8" standalone="no"?>
<svg
   xmlns:dc="http://purl.org/dc/elements/1.1/"
   xmlns:cc="http://creativecommons.org/ns#"
   xmlns:rdf="http://www.w3.org/1999/02/22-rdf-syntax-ns#"
   xmlns:svg="http://www.w3.org/2000/svg"
   xmlns="http://www.w3.org/2000/svg"
   xmlns:sodipodi="http://sodipodi.sourceforge.net/DTD/sodipodi-0.dtd"
   xmlns:inkscape="http://www.inkscape.org/namespaces/inkscape"
   viewBox="0 0 64 64"
   id="svg2"
   version="1.1"
   inkscape:version="0.92.2 5c3e80d, 2017-08-06"
   sodipodi:docname="im-user-away.svg"
   width="64"
   height="64">
  <metadata
     id="metadata18">
    <rdf:RDF>
      <cc:Work
         rdf:about="">
        <dc:format>image/svg+xml</dc:format>
        <dc:type
           rdf:resource="http://purl.org/dc/dcmitype/StillImage" />
        <dc:title></dc:title>
      </cc:Work>
    </rdf:RDF>
  </metadata>
  <defs
     id="defs16" />
  <sodipodi:namedview
     pagecolor="#ffffff"
     bordercolor="#666666"
     borderopacity="1"
     objecttolerance="10"
     gridtolerance="10"
     guidetolerance="10"
     inkscape:pageopacity="0"
     inkscape:pageshadow="2"
     inkscape:window-width="1366"
     inkscape:window-height="717"
     id="namedview14"
     showgrid="false"
     inkscape:zoom="1.2291667"
     inkscape:cx="-212.34209"
     inkscape:cy="-59.124192"
     inkscape:window-x="0"
     inkscape:window-y="24"
     inkscape:window-maximized="1"
     inkscape:current-layer="svg2" />
  <g
     id="g829"
     transform="matrix(0.125,0,0,0.125,-53.089287,-4.0988394)">
    <path
       style="fill:#f9c440;fill-opacity:1;stroke-width:11.10955811"
       inkscape:connector-curvature="0"
       d="M 857.62757,89.264669 C 959.82048,177.83926 963.45435,338.96439 865.74437,449.16348 768.03439,559.36256 605.99394,576.89133 503.80103,488.31674 401.60811,399.74214 397.97425,238.61702 495.68423,128.41793 593.39421,18.218844 755.43466,0.69007428 857.62757,89.264669 Z"
       id="path52" />
    <path
       style="opacity:1;fill:#000000;fill-opacity:0.49019608;stroke-width:11.10955811"
       inkscape:connector-curvature="0"
       d="m 936.3498,257.69422 c -1.55138,61.31165 -25.16122,124.15462 -70.96637,175.81449 -97.70998,110.19912 -259.75043,127.72786 -361.94335,39.1533 -47.89867,-41.51566 -74.22898,-98.94845 -78.53197,-159.64249 0.60525,66.35668 26.92358,130.25337 78.88487,175.29026 102.19291,88.57456 264.24107,71.03714 361.94334,-39.1533 49.70495,-56.0581 73.00502,-125.29096 70.61348,-191.46226 z"
       id="path54" />
    <path
       style="fill:#000000;fill-opacity:0.49019608;stroke-width:0.55780452"
       d="m 688.82545,464.57985 c -6.45721,-0.52014 -18.93857,-2.64763 -26.17122,-4.46094 -20.04159,-5.02469 -38.82252,-14.04064 -56.10494,-26.93355 -7.48146,-5.58127 -23.15853,-20.9308 -28.53906,-27.94277 -23.00981,-29.9867 -34.49946,-65.12433 -33.1962,-101.52042 1.17434,-32.79489 11.79957,-62.90095 31.48384,-89.20771 6.36152,-8.50178 21.7934,-23.93295 30.29806,-30.29669 22.60112,-16.91161 48.31132,-27.23282 76.37258,-30.65934 7.60331,-0.92844 28.21221,-0.91888 35.69949,0.0151 28.46941,3.55683 53.70679,13.68279 76.37258,30.64282 8.50465,6.3637 23.93654,21.79487 30.29801,30.29666 16.41499,21.93762 26.22407,45.81044 30.35146,73.86811 1.36952,9.3095 1.36453,31.29309 -0.008,40.71969 -4.174,28.64247 -14.69367,53.64423 -32.01242,76.08295 -5.53217,7.16772 -21.13069,22.45149 -28.5812,28.0046 -21.61289,16.10861 -45.16226,25.98992 -71.67791,30.07601 -7.59712,1.17071 -27.14321,1.91338 -34.58389,1.31403 z m -88.28217,-87.18297 c 9.77919,-13.82071 22.83606,-25.8039 37.91286,-34.79524 6.13788,-3.66044 15.41605,-8.11128 19.96898,-9.57933 1.68737,-0.5441 3.25535,-1.15838 3.48442,-1.36509 0.22904,-0.20674 -1.69613,-1.94056 -4.27831,-3.853 -2.58213,-1.91244 -6.70669,-5.60262 -9.16573,-8.2004 -17.83601,-18.8425 -24.33396,-45.48016 -17.11782,-70.17268 7.19282,-24.61278 26.75203,-43.50248 51.72306,-49.95247 13.31188,-3.4385 30.4661,-2.52635 42.84874,2.27834 25.69716,9.97103 42.97848,31.64908 46.60029,58.4564 0.43521,3.22133 0.79128,7.48853 0.79128,9.48269 0,22.15207 -11.45949,44.89043 -29.27248,58.08344 -2.60047,1.92601 -4.54069,3.67098 -4.31161,3.87768 0.22904,0.20674 1.79709,0.82099 3.48442,1.36509 4.54859,1.46665 13.82707,5.91674 19.96899,9.5774 18.86283,11.24247 34.36154,27.06535 44.67262,45.607 l 3.30671,5.94629 2.70149,-3.77545 c 25.44548,-35.56123 32.98976,-80.4364 20.46875,-121.75287 -15.80376,-52.14872 -59.42109,-89.66227 -113.98852,-98.0371 -8.98307,-1.3787 -30.06327,-1.3787 -39.04634,0 -55.42137,8.5059 -99.26468,46.84506 -114.63417,100.24283 -6.39602,22.22143 -6.95218,47.04529 -1.56798,69.98574 3.98189,16.96566 12.18656,34.89306 22.68239,49.5614 l 2.70149,3.77545 3.28532,-5.90774 c 1.80691,-3.24926 4.85843,-8.13105 6.78115,-10.84838 z"
       id="path56"
       inkscape:connector-curvature="0"
       sodipodi:nodetypes="ccssssscccccccccccccccccscccssccscccssssscccc" />
    <path
       sodipodi:nodetypes="ccssssscccccccccccccccccscccssccscccssssscccc"
       inkscape:connector-curvature="0"
       id="path58"
       d="m 668.82545,444.57985 c -6.45721,-0.52013 -18.93857,-2.64763 -26.17122,-4.46094 -20.04159,-5.02469 -38.82252,-14.04064 -56.10494,-26.93355 -7.48146,-5.58127 -23.15853,-20.9308 -28.53906,-27.94277 -23.0098,-29.9867 -34.49946,-65.12433 -33.1962,-101.52042 1.1743,-32.79489 11.79957,-62.90094 31.48385,-89.20771 6.36151,-8.50178 21.7934,-23.93295 30.29805,-30.29669 22.60112,-16.91161 48.31132,-27.23282 76.37258,-30.65934 7.60331,-0.92844 28.21221,-0.91888 35.69949,0.0151 28.46941,3.55684 53.70679,13.6828 76.37258,30.64282 8.50465,6.36371 23.93654,21.79488 30.29802,30.29666 16.41498,21.93762 26.22406,45.81045 30.35146,73.86811 1.36951,9.30951 1.36452,31.29309 -0.008,40.71969 -4.174,28.64247 -14.69367,53.64423 -32.01241,76.08295 -5.53217,7.16772 -21.1307,22.45149 -28.58121,28.0046 -21.61289,16.10861 -45.16226,25.98992 -71.67791,30.07601 -7.59712,1.17071 -27.14321,1.91339 -34.58389,1.31403 z m -88.28217,-87.18297 c 9.77919,-13.82071 22.83606,-25.80389 37.91286,-34.79524 6.13788,-3.66043 15.41605,-8.11128 19.96898,-9.57933 1.68737,-0.5441 3.25535,-1.15838 3.48443,-1.36509 0.22904,-0.20674 -1.69614,-1.94056 -4.27832,-3.853 -2.58213,-1.91244 -6.70669,-5.60262 -9.16573,-8.2004 -17.83601,-18.8425 -24.33396,-45.48015 -17.11782,-70.17268 7.19282,-24.61278 26.75203,-43.50248 51.72307,-49.95247 13.31187,-3.4385 30.46609,-2.52635 42.84873,2.27834 25.69716,9.97104 42.97848,31.64908 46.60029,58.45641 0.43521,3.22132 0.79128,7.48853 0.79128,9.48268 0,22.15208 -11.45949,44.89043 -29.27248,58.08344 -2.60046,1.92601 -4.54068,3.67098 -4.31161,3.87768 0.22904,0.20674 1.79709,0.82099 3.48443,1.36509 4.54858,1.46665 13.82706,5.91674 19.96898,9.5774 18.86283,11.24247 34.36154,27.06535 44.67262,45.607 l 3.30671,5.94629 2.70149,-3.77544 c 25.44548,-35.56124 32.98976,-80.43641 20.46875,-121.75288 -15.80375,-52.14872 -59.42109,-89.66227 -113.98852,-98.0371 -8.98306,-1.37869 -30.06327,-1.37869 -39.04633,0 -55.42138,8.50591 -99.26473,46.84506 -114.63422,100.24283 -6.39598,22.22143 -6.95214,47.0453 -1.56793,69.98574 3.98184,16.96566 12.18655,34.89306 22.68234,49.56141 l 2.70153,3.77544 3.28532,-5.90774 c 1.80691,-3.24926 4.85843,-8.13105 6.78115,-10.84838 z"
       style="fill:#ffffff;stroke-width:0.55780452" />
  </g>
</svg>
