<?xml version="1.0" encoding="UTF-8" standalone="no"?>
<svg
   xmlns:dc="http://purl.org/dc/elements/1.1/"
   xmlns:cc="http://creativecommons.org/ns#"
   xmlns:rdf="http://www.w3.org/1999/02/22-rdf-syntax-ns#"
   xmlns:svg="http://www.w3.org/2000/svg"
   xmlns="http://www.w3.org/2000/svg"
   xmlns:sodipodi="http://sodipodi.sourceforge.net/DTD/sodipodi-0.dtd"
   xmlns:inkscape="http://www.inkscape.org/namespaces/inkscape"
   viewBox="0 0 64 64"
   version="1.1"
   id="svg6"
   sodipodi:docname="transform-move.svg"
   width="64"
   height="64"
   inkscape:version="0.92.2 5c3e80d, 2017-08-06">
  <metadata
     id="metadata10">
    <rdf:RDF>
      <cc:Work
         rdf:about="">
        <dc:format>image/svg+xml</dc:format>
        <dc:type
           rdf:resource="http://purl.org/dc/dcmitype/StillImage" />
        <dc:title></dc:title>
      </cc:Work>
    </rdf:RDF>
  </metadata>
  <sodipodi:namedview
     pagecolor="#ffffff"
     bordercolor="#666666"
     borderopacity="1"
     objecttolerance="10"
     gridtolerance="10"
     guidetolerance="10"
     inkscape:pageopacity="0"
     inkscape:pageshadow="2"
     inkscape:window-width="1366"
     inkscape:window-height="717"
     id="namedview8"
     showgrid="false"
     inkscape:zoom="1.7383042"
     inkscape:cx="14.89458"
     inkscape:cy="25.571194"
     inkscape:window-x="0"
     inkscape:window-y="24"
     inkscape:window-maximized="1"
     inkscape:current-layer="svg6" />
  <defs
     id="defs3051">
    <style
       type="text/css"
       id="current-color-scheme">
      .ColorScheme-Text {
        color:#4d4d4d;
      }
      </style>
  </defs>
  <g
     id="g916"
     transform="matrix(0.125,0,0,0.125,-1.576692e-8,56)">
    <path
       style="fill:#3689e6;fill-opacity:1;stroke-width:11.10955811"
       inkscape:connector-curvature="0"
       d="m 432.91327,-391.52604 c 102.19291,88.57459 105.82678,249.69971 8.1168,359.898792 C 343.3201,78.571824 181.27964,96.100624 79.086729,7.526016 -23.106186,-81.04858 -26.740042,-242.1737 70.969928,-352.37278 168.6799,-462.57186 330.72036,-480.10063 432.91327,-391.52604 Z"
       id="path27" />
    <path
       style="opacity:1;fill:#000000;fill-opacity:0.49019608;stroke-width:11.10955811"
       inkscape:connector-curvature="0"
       d="m 511.63551,-223.09649 c -1.55139,61.31165 -25.16123,124.15462 -70.96638,175.814474 C 342.95915,62.91712 180.91869,80.445824 78.725776,-8.128712 30.827124,-49.644368 4.4968223,-107.07717 0.19382834,-167.7712 0.79908002,-101.41453 27.117412,-37.517824 79.078684,7.519064 181.27159,96.093624 343.31975,78.556224 441.02202,-31.634232 490.72697,-87.69234 514.02704,-156.9252 511.63551,-223.09649 Z"
       id="path51" />
    <g
       style="fill:#000000;fill-opacity:0.49019608"
       transform="translate(19.999653,10.769367)"
       id="g896">
      <g
         style="fill:#000000;fill-opacity:0.49019608"
         id="g886">
        <path
           style="fill:#000000;fill-opacity:0.49019608;stroke-width:0.35381311"
           d="m 205.13205,-283.19654 c 0.89318,2.50932 3.10321,4.74686 5.43109,5.49867 2.18569,0.70591 3.56666,0.72368 5.72637,0.0738 3.02356,-0.90996 1.46952,0.82977 26.57629,-29.75158 5.74246,-6.99459 7.96187,-9.69261 13.24166,-16.09705 l 0.72921,-0.88452 0.97535,1.10128 c 1.15273,1.30158 2.29715,2.7055 21.06038,25.83594 7.91396,9.75595 14.87931,18.15065 15.4786,18.65493 1.08906,0.91637 4.05206,1.9957 5.47869,1.9957 0.41587,0 1.59057,-0.24772 2.61046,-0.55069 3.75571,-1.11532 6.40879,-4.77349 6.40057,-8.82536 -0.006,-2.69603 -0.8208,-4.52006 -3.44919,-7.71667 -1.11304,-1.35365 -2.50136,-3.05319 -3.08515,-3.77671 -18.8201,-23.32533 -37.49993,-46.26503 -38.68825,-47.511 -2.50107,-2.62243 -5.75411,-3.44939 -9.43032,-2.39727 -2.28467,0.65386 -4.60186,2.97072 -11.67621,11.67461 -5.12494,6.30543 -7.96569,9.77182 -12.91635,15.761 -1.28684,1.55676 -4.29744,5.21873 -6.69025,8.1377 -2.39282,2.91897 -4.68628,5.70523 -5.09659,6.19173 -5.30427,6.28908 -12.12073,14.90972 -12.49209,15.79847 -0.84898,2.03187 -0.92182,4.71502 -0.18437,6.78714 z"
           id="path882"
           inkscape:connector-curvature="0" />
        <path
           inkscape:connector-curvature="0"
           id="path884"
           d="m 205.13205,-99.56357 c 0.89318,-2.50932 3.10321,-4.74686 5.43109,-5.49867 2.18569,-0.70591 3.56666,-0.72368 5.72637,-0.0738 3.02356,0.90996 1.46952,-0.82977 26.57629,29.75158 5.74246,6.99459 7.96187,9.69261 13.24166,16.09705 l 0.72921,0.88452 0.97535,-1.10128 c 1.15273,-1.30158 2.29715,-2.7055 21.06038,-25.83594 7.91396,-9.75595 14.87931,-18.15065 15.4786,-18.65493 1.08906,-0.91637 4.05206,-1.9957 5.47869,-1.9957 0.41587,0 1.59057,0.24772 2.61046,0.55069 3.75571,1.11532 6.40879,4.77349 6.40057,8.82536 -0.006,2.69603 -0.8208,4.52006 -3.44919,7.71667 -1.11304,1.35365 -2.50136,3.05319 -3.08515,3.77671 -18.8201,23.32533 -37.49993,46.26503 -38.68825,47.511 -2.50107,2.62243 -5.75411,3.44939 -9.43032,2.39727 -2.28467,-0.65386 -4.60186,-2.97072 -11.67621,-11.67461 -5.12494,-6.30543 -7.96569,-9.77182 -12.91635,-15.761 -1.28684,-1.55676 -4.29744,-5.21873 -6.69025,-8.1377 -2.39282,-2.91897 -4.68628,-5.70523 -5.09659,-6.19173 -5.30427,-6.28908 -12.12073,-14.90972 -12.49209,-15.79847 -0.84898,-2.03187 -0.92182,-4.71502 -0.18437,-6.78714 z"
           style="fill:#000000;fill-opacity:0.49019608;stroke-width:0.35381311" />
      </g>
      <g
         style="fill:#000000;fill-opacity:0.49019608"
         transform="rotate(-90,256.73303,-191.38006)"
         id="g892">
        <path
           inkscape:connector-curvature="0"
           id="path888"
           d="m 205.13205,-283.19654 c 0.89318,2.50932 3.10321,4.74686 5.43109,5.49867 2.18569,0.70591 3.56666,0.72368 5.72637,0.0738 3.02356,-0.90996 1.46952,0.82977 26.57629,-29.75158 5.74246,-6.99459 7.96187,-9.69261 13.24166,-16.09705 l 0.72921,-0.88452 0.97535,1.10128 c 1.15273,1.30158 2.29715,2.7055 21.06038,25.83594 7.91396,9.75595 14.87931,18.15065 15.4786,18.65493 1.08906,0.91637 4.05206,1.9957 5.47869,1.9957 0.41587,0 1.59057,-0.24772 2.61046,-0.55069 3.75571,-1.11532 6.40879,-4.77349 6.40057,-8.82536 -0.006,-2.69603 -0.8208,-4.52006 -3.44919,-7.71667 -1.11304,-1.35365 -2.50136,-3.05319 -3.08515,-3.77671 -18.8201,-23.32533 -37.49993,-46.26503 -38.68825,-47.511 -2.50107,-2.62243 -5.75411,-3.44939 -9.43032,-2.39727 -2.28467,0.65386 -4.60186,2.97072 -11.67621,11.67461 -5.12494,6.30543 -7.96569,9.77182 -12.91635,15.761 -1.28684,1.55676 -4.29744,5.21873 -6.69025,8.1377 -2.39282,2.91897 -4.68628,5.70523 -5.09659,6.19173 -5.30427,6.28908 -12.12073,14.90972 -12.49209,15.79847 -0.84898,2.03187 -0.92182,4.71502 -0.18437,6.78714 z"
           style="fill:#000000;fill-opacity:0.49019608;stroke-width:0.35381311" />
        <path
           style="fill:#000000;fill-opacity:0.49019608;stroke-width:0.35381311"
           d="m 205.13205,-99.56357 c 0.89318,-2.50932 3.10321,-4.74686 5.43109,-5.49867 2.18569,-0.70591 3.56666,-0.72368 5.72637,-0.0738 3.02356,0.90996 1.46952,-0.82977 26.57629,29.75158 5.74246,6.99459 7.96187,9.69261 13.24166,16.09705 l 0.72921,0.88452 0.97535,-1.10128 c 1.15273,-1.30158 2.29715,-2.7055 21.06038,-25.83594 7.91396,-9.75595 14.87931,-18.15065 15.4786,-18.65493 1.08906,-0.91637 4.05206,-1.9957 5.47869,-1.9957 0.41587,0 1.59057,0.24772 2.61046,0.55069 3.75571,1.11532 6.40879,4.77349 6.40057,8.82536 -0.006,2.69603 -0.8208,4.52006 -3.44919,7.71667 -1.11304,1.35365 -2.50136,3.05319 -3.08515,3.77671 -18.8201,23.32533 -37.49993,46.26503 -38.68825,47.511 -2.50107,2.62243 -5.75411,3.44939 -9.43032,2.39727 -2.28467,-0.65386 -4.60186,-2.97072 -11.67621,-11.67461 -5.12494,-6.30543 -7.96569,-9.77182 -12.91635,-15.761 -1.28684,-1.55676 -4.29744,-5.21873 -6.69025,-8.1377 -2.39282,-2.91897 -4.68628,-5.70523 -5.09659,-6.19173 -5.30427,-6.28908 -12.12073,-14.90972 -12.49209,-15.79847 -0.84898,-2.03187 -0.92182,-4.71502 -0.18437,-6.78714 z"
           id="path890"
           inkscape:connector-curvature="0" />
      </g>
      <circle
         r="50"
         cy="-192"
         cx="256"
         id="circle894"
         style="opacity:1;fill:#000000;fill-opacity:0.49019608;stroke:none;stroke-width:24.01009369;stroke-miterlimit:4;stroke-dasharray:none;stroke-dashoffset:0;stroke-opacity:1" />
    </g>
    <g
       id="g880">
      <g
         id="g863">
        <path
           inkscape:connector-curvature="0"
           id="path855"
           d="m 205.13205,-283.19654 c 0.89318,2.50932 3.10321,4.74686 5.43109,5.49867 2.18569,0.70591 3.56666,0.72368 5.72637,0.0738 3.02356,-0.90996 1.46952,0.82977 26.57629,-29.75158 5.74246,-6.99459 7.96187,-9.69261 13.24166,-16.09705 l 0.72921,-0.88452 0.97535,1.10128 c 1.15273,1.30158 2.29715,2.7055 21.06038,25.83594 7.91396,9.75595 14.87931,18.15065 15.4786,18.65493 1.08906,0.91637 4.05206,1.9957 5.47869,1.9957 0.41587,0 1.59057,-0.24772 2.61046,-0.55069 3.75571,-1.11532 6.40879,-4.77349 6.40057,-8.82536 -0.006,-2.69603 -0.8208,-4.52006 -3.44919,-7.71667 -1.11304,-1.35365 -2.50136,-3.05319 -3.08515,-3.77671 -18.8201,-23.32533 -37.49993,-46.26503 -38.68825,-47.511 -2.50107,-2.62243 -5.75411,-3.44939 -9.43032,-2.39727 -2.28467,0.65386 -4.60186,2.97072 -11.67621,11.67461 -5.12494,6.30543 -7.96569,9.77182 -12.91635,15.761 -1.28684,1.55676 -4.29744,5.21873 -6.69025,8.1377 -2.39282,2.91897 -4.68628,5.70523 -5.09659,6.19173 -5.30427,6.28908 -12.12073,14.90972 -12.49209,15.79847 -0.84898,2.03187 -0.92182,4.71502 -0.18437,6.78714 z"
           style="fill:#ffffff;stroke-width:0.35381311" />
        <path
           style="fill:#ffffff;stroke-width:0.35381311"
           d="m 205.13205,-99.56357 c 0.89318,-2.50932 3.10321,-4.74686 5.43109,-5.49867 2.18569,-0.70591 3.56666,-0.72368 5.72637,-0.0738 3.02356,0.90996 1.46952,-0.82977 26.57629,29.75158 5.74246,6.99459 7.96187,9.69261 13.24166,16.09705 l 0.72921,0.88452 0.97535,-1.10128 c 1.15273,-1.30158 2.29715,-2.7055 21.06038,-25.83594 7.91396,-9.75595 14.87931,-18.15065 15.4786,-18.65493 1.08906,-0.91637 4.05206,-1.9957 5.47869,-1.9957 0.41587,0 1.59057,0.24772 2.61046,0.55069 3.75571,1.11532 6.40879,4.77349 6.40057,8.82536 -0.006,2.69603 -0.8208,4.52006 -3.44919,7.71667 -1.11304,1.35365 -2.50136,3.05319 -3.08515,3.77671 -18.8201,23.32533 -37.49993,46.26503 -38.68825,47.511 -2.50107,2.62243 -5.75411,3.44939 -9.43032,2.39727 -2.28467,-0.65386 -4.60186,-2.97072 -11.67621,-11.67461 -5.12494,-6.30543 -7.96569,-9.77182 -12.91635,-15.761 -1.28684,-1.55676 -4.29744,-5.21873 -6.69025,-8.1377 -2.39282,-2.91897 -4.68628,-5.70523 -5.09659,-6.19173 -5.30427,-6.28908 -12.12073,-14.90972 -12.49209,-15.79847 -0.84898,-2.03187 -0.92182,-4.71502 -0.18437,-6.78714 z"
           id="path859"
           inkscape:connector-curvature="0" />
      </g>
      <g
         id="g869"
         transform="rotate(-90,256.73303,-191.38006)">
        <path
           style="fill:#ffffff;stroke-width:0.35381311"
           d="m 205.13205,-283.19654 c 0.89318,2.50932 3.10321,4.74686 5.43109,5.49867 2.18569,0.70591 3.56666,0.72368 5.72637,0.0738 3.02356,-0.90996 1.46952,0.82977 26.57629,-29.75158 5.74246,-6.99459 7.96187,-9.69261 13.24166,-16.09705 l 0.72921,-0.88452 0.97535,1.10128 c 1.15273,1.30158 2.29715,2.7055 21.06038,25.83594 7.91396,9.75595 14.87931,18.15065 15.4786,18.65493 1.08906,0.91637 4.05206,1.9957 5.47869,1.9957 0.41587,0 1.59057,-0.24772 2.61046,-0.55069 3.75571,-1.11532 6.40879,-4.77349 6.40057,-8.82536 -0.006,-2.69603 -0.8208,-4.52006 -3.44919,-7.71667 -1.11304,-1.35365 -2.50136,-3.05319 -3.08515,-3.77671 -18.8201,-23.32533 -37.49993,-46.26503 -38.68825,-47.511 -2.50107,-2.62243 -5.75411,-3.44939 -9.43032,-2.39727 -2.28467,0.65386 -4.60186,2.97072 -11.67621,11.67461 -5.12494,6.30543 -7.96569,9.77182 -12.91635,15.761 -1.28684,1.55676 -4.29744,5.21873 -6.69025,8.1377 -2.39282,2.91897 -4.68628,5.70523 -5.09659,6.19173 -5.30427,6.28908 -12.12073,14.90972 -12.49209,15.79847 -0.84898,2.03187 -0.92182,4.71502 -0.18437,6.78714 z"
           id="path865"
           inkscape:connector-curvature="0" />
        <path
           inkscape:connector-curvature="0"
           id="path867"
           d="m 205.13205,-99.56357 c 0.89318,-2.50932 3.10321,-4.74686 5.43109,-5.49867 2.18569,-0.70591 3.56666,-0.72368 5.72637,-0.0738 3.02356,0.90996 1.46952,-0.82977 26.57629,29.75158 5.74246,6.99459 7.96187,9.69261 13.24166,16.09705 l 0.72921,0.88452 0.97535,-1.10128 c 1.15273,-1.30158 2.29715,-2.7055 21.06038,-25.83594 7.91396,-9.75595 14.87931,-18.15065 15.4786,-18.65493 1.08906,-0.91637 4.05206,-1.9957 5.47869,-1.9957 0.41587,0 1.59057,0.24772 2.61046,0.55069 3.75571,1.11532 6.40879,4.77349 6.40057,8.82536 -0.006,2.69603 -0.8208,4.52006 -3.44919,7.71667 -1.11304,1.35365 -2.50136,3.05319 -3.08515,3.77671 -18.8201,23.32533 -37.49993,46.26503 -38.68825,47.511 -2.50107,2.62243 -5.75411,3.44939 -9.43032,2.39727 -2.28467,-0.65386 -4.60186,-2.97072 -11.67621,-11.67461 -5.12494,-6.30543 -7.96569,-9.77182 -12.91635,-15.761 -1.28684,-1.55676 -4.29744,-5.21873 -6.69025,-8.1377 -2.39282,-2.91897 -4.68628,-5.70523 -5.09659,-6.19173 -5.30427,-6.28908 -12.12073,-14.90972 -12.49209,-15.79847 -0.84898,-2.03187 -0.92182,-4.71502 -0.18437,-6.78714 z"
           style="fill:#ffffff;stroke-width:0.35381311" />
      </g>
      <circle
         style="opacity:1;fill:#ffffff;fill-opacity:1;stroke:none;stroke-width:24.01009369;stroke-miterlimit:4;stroke-dasharray:none;stroke-dashoffset:0;stroke-opacity:1"
         id="path871"
         cx="256"
         cy="-192"
         r="50" />
    </g>
  </g>
</svg>
