<?xml version="1.0" encoding="UTF-8" standalone="no"?>
<svg
   xmlns:dc="http://purl.org/dc/elements/1.1/"
   xmlns:cc="http://creativecommons.org/ns#"
   xmlns:rdf="http://www.w3.org/1999/02/22-rdf-syntax-ns#"
   xmlns:svg="http://www.w3.org/2000/svg"
   xmlns="http://www.w3.org/2000/svg"
   xmlns:sodipodi="http://sodipodi.sourceforge.net/DTD/sodipodi-0.dtd"
   xmlns:inkscape="http://www.inkscape.org/namespaces/inkscape"
   viewBox="0 0 64 64"
   version="1.1"
   id="svg8"
   sodipodi:docname="insert-page-break.svg"
   width="64"
   height="64"
   inkscape:version="0.92.2 5c3e80d, 2017-08-06">
  <metadata
     id="metadata12">
    <rdf:RDF>
      <cc:Work
         rdf:about="">
        <dc:format>image/svg+xml</dc:format>
        <dc:type
           rdf:resource="http://purl.org/dc/dcmitype/StillImage" />
        <dc:title></dc:title>
      </cc:Work>
    </rdf:RDF>
  </metadata>
  <sodipodi:namedview
     pagecolor="#ffffff"
     bordercolor="#666666"
     borderopacity="1"
     objecttolerance="10"
     gridtolerance="10"
     guidetolerance="10"
     inkscape:pageopacity="0"
     inkscape:pageshadow="2"
     inkscape:window-width="1366"
     inkscape:window-height="717"
     id="namedview10"
     showgrid="false"
     inkscape:zoom="3.4766083"
     inkscape:cx="49.010111"
     inkscape:cy="10.459535"
     inkscape:window-x="0"
     inkscape:window-y="24"
     inkscape:window-maximized="1"
     inkscape:current-layer="svg8" />
  <defs
     id="defs3051">
    <style
       type="text/css"
       id="current-color-scheme">
      .ColorScheme-Text {
        color:#4d4d4d;
      }
      .ColorScheme-Highlight {
        color:#3daee9;
      }
      </style>
  </defs>
  <g
     id="g908"
     transform="matrix(0.125,0,0,0.125,6.1868113e-8,55.999999)">
    <path
       style="fill:#3689e6;fill-opacity:1;stroke-width:11.10955906"
       inkscape:connector-curvature="0"
       d="m 432.91328,-391.52606 c 102.1929,88.57459 105.82676,249.69974 8.1168,359.89882 C 343.32007,78.57184 181.27963,96.100608 79.086738,7.526016 -23.106204,-81.04856 -26.740031,-242.17372 70.969938,-352.37279 168.67989,-462.57187 330.72033,-480.10064 432.91328,-391.52606 Z"
       id="path27-5" />
    <path
       style="opacity:1;fill:#000000;fill-opacity:0.49019608;stroke-width:11.10955906"
       inkscape:connector-curvature="0"
       d="m 511.63551,-223.09648 c -1.55139,61.31161 -25.16123,124.154568 -70.96637,175.81444 C 342.95912,62.917072 180.91868,80.4458 78.725756,-8.128752 30.827124,-49.64436 4.4968184,-107.07719 0.19382632,-167.77119 0.79907984,-101.41455 27.117404,-37.517816 79.078686,7.519024 181.27157,96.093616 343.31973,78.556152 441.02203,-31.634232 490.72698,-87.692376 514.02704,-156.92523 511.63551,-223.09648 Z"
       id="path51-6" />
    <g
       style="fill:#000000;fill-opacity:0.49019608"
       transform="translate(20,20)"
       id="g892">
      <path
         sodipodi:nodetypes="ccccccccccccccccccccccc"
         inkscape:connector-curvature="0"
         id="path882"
         d="m 115,-348 v 106.36914 H 387.96875 L 387.9707,-348 Z m 0,174.66406 V -36 l 194.97656,-0.191406 h -16.27148 v -77.648434 h -0.01 v -16.27149 h 0.01 v -0.0469 h 16.27148 v 0.0469 h 77.99024 l 0.002,-43.22461 z m 194.97656,137.144534 77.99024,-77.648434 h -77.99024 z"
         style="fill:#000000;fill-opacity:0.49019608;stroke:none;stroke-width:1px;stroke-linecap:butt;stroke-linejoin:miter;stroke-opacity:1" />
      <g
         style="fill:#000000;fill-opacity:0.49019608"
         transform="translate(0,38)"
         id="g890">
        <rect
           style="opacity:1;fill:#000000;fill-opacity:0.49019608;stroke:none;stroke-width:3.77952766;stroke-miterlimit:4;stroke-dasharray:none;stroke-dashoffset:0;stroke-opacity:1"
           id="rect884"
           width="60.595455"
           height="46.788895"
           x="131.10765"
           y="-268.1254"
           ry="13.039529" />
        <rect
           ry="13.039529"
           y="-268.1254"
           x="219.70311"
           height="46.788895"
           width="60.595455"
           id="rect886"
           style="opacity:1;fill:#000000;fill-opacity:0.49019608;stroke:none;stroke-width:3.77952766;stroke-miterlimit:4;stroke-dasharray:none;stroke-dashoffset:0;stroke-opacity:1" />
        <rect
           style="opacity:1;fill:#000000;fill-opacity:0.49019608;stroke:none;stroke-width:3.77952766;stroke-miterlimit:4;stroke-dasharray:none;stroke-dashoffset:0;stroke-opacity:1"
           id="rect888"
           width="60.595455"
           height="46.788895"
           x="308.29855"
           y="-268.1254"
           ry="13.039529" />
      </g>
    </g>
    <g
       id="g880">
      <path
         style="fill:#ffffff;stroke:none;stroke-width:1px;stroke-linecap:butt;stroke-linejoin:miter;stroke-opacity:1"
         d="m 115,-348 v 106.36914 H 387.96875 L 387.9707,-348 Z m 0,174.66406 V -36 l 194.97656,-0.191406 h -16.27148 v -77.648434 h -0.01 v -16.27149 h 0.01 v -0.0469 h 16.27148 v 0.0469 h 77.99024 l 0.002,-43.22461 z m 194.97656,137.144534 77.99024,-77.648434 h -77.99024 z"
         id="path39"
         inkscape:connector-curvature="0"
         sodipodi:nodetypes="ccccccccccccccccccccccc" />
      <g
         id="g871"
         transform="translate(0,38)">
        <rect
           ry="13.039529"
           y="-268.1254"
           x="131.10765"
           height="46.788895"
           width="60.595455"
           id="rect850"
           style="opacity:1;fill:#ffffff;fill-opacity:1;stroke:none;stroke-width:3.77952766;stroke-miterlimit:4;stroke-dasharray:none;stroke-dashoffset:0;stroke-opacity:1" />
        <rect
           style="opacity:1;fill:#ffffff;fill-opacity:1;stroke:none;stroke-width:3.77952766;stroke-miterlimit:4;stroke-dasharray:none;stroke-dashoffset:0;stroke-opacity:1"
           id="rect852"
           width="60.595455"
           height="46.788895"
           x="219.70311"
           y="-268.1254"
           ry="13.039529" />
        <rect
           ry="13.039529"
           y="-268.1254"
           x="308.29855"
           height="46.788895"
           width="60.595455"
           id="rect854"
           style="opacity:1;fill:#ffffff;fill-opacity:1;stroke:none;stroke-width:3.77952766;stroke-miterlimit:4;stroke-dasharray:none;stroke-dashoffset:0;stroke-opacity:1" />
      </g>
    </g>
  </g>
</svg>
