<?xml version="1.0" encoding="UTF-8" standalone="no"?>
<svg
   xmlns:dc="http://purl.org/dc/elements/1.1/"
   xmlns:cc="http://creativecommons.org/ns#"
   xmlns:rdf="http://www.w3.org/1999/02/22-rdf-syntax-ns#"
   xmlns:svg="http://www.w3.org/2000/svg"
   xmlns="http://www.w3.org/2000/svg"
   xmlns:sodipodi="http://sodipodi.sourceforge.net/DTD/sodipodi-0.dtd"
   xmlns:inkscape="http://www.inkscape.org/namespaces/inkscape"
   viewBox="0 0 64 64"
   version="1.1"
   id="svg8"
   sodipodi:docname="insert-more-mark.svg"
   width="64"
   height="64"
   inkscape:version="0.92.2 5c3e80d, 2017-08-06">
  <metadata
     id="metadata12">
    <rdf:RDF>
      <cc:Work
         rdf:about="">
        <dc:format>image/svg+xml</dc:format>
        <dc:type
           rdf:resource="http://purl.org/dc/dcmitype/StillImage" />
        <dc:title></dc:title>
      </cc:Work>
    </rdf:RDF>
  </metadata>
  <sodipodi:namedview
     pagecolor="#ffffff"
     bordercolor="#666666"
     borderopacity="1"
     objecttolerance="10"
     gridtolerance="10"
     guidetolerance="10"
     inkscape:pageopacity="0"
     inkscape:pageshadow="2"
     inkscape:window-width="1366"
     inkscape:window-height="717"
     id="namedview10"
     showgrid="false"
     inkscape:zoom="0.5"
     inkscape:cx="866.02954"
     inkscape:cy="263.37263"
     inkscape:window-x="0"
     inkscape:window-y="24"
     inkscape:window-maximized="1"
     inkscape:current-layer="svg8" />
  <defs
     id="defs3051">
    <style
       type="text/css"
       id="current-color-scheme">
      .ColorScheme-Text {
        color:#4d4d4d;
      }
      .ColorScheme-Highlight {
        color:#3daee9;
      }
      </style>
  </defs>
  <g
     id="g894"
     transform="matrix(0.125,0,0,0.125,-1.576692e-8,56)">
    <path
       style="fill:#3689e6;fill-opacity:1;stroke-width:11.10955811"
       inkscape:connector-curvature="0"
       d="m 432.91327,-391.52604 c 102.19291,88.57459 105.82678,249.69971 8.1168,359.898794 C 343.3201,78.571824 181.27964,96.100624 79.086729,7.5260143 -23.106186,-81.048576 -26.740042,-242.1737 70.969928,-352.37278 168.6799,-462.57186 330.72036,-480.10063 432.91327,-391.52604 Z"
       id="path27" />
    <path
       style="opacity:1;fill:#000000;fill-opacity:0.49019608;stroke-width:11.10955811"
       inkscape:connector-curvature="0"
       d="m 511.63551,-223.09649 c -1.55139,61.31165 -25.16123,124.154614 -70.96638,175.814474 C 342.95915,62.917124 180.91869,80.445824 78.725776,-8.1287157 30.827124,-49.644366 4.4968216,-107.07717 0.19382772,-167.7712 0.79907938,-101.41453 27.117411,-37.517826 79.078682,7.5190643 181.27159,96.093624 343.31975,78.556224 441.02202,-31.634236 490.72697,-87.692346 514.02704,-156.9252 511.63551,-223.09649 Z"
       id="path51" />
    <g
       style="fill:#000000;fill-opacity:0.49019608"
       transform="translate(20,20)"
       id="g876">
      <rect
         ry="20"
         y="-348"
         x="100"
         height="40"
         width="312"
         id="rect864"
         style="opacity:1;fill:#000000;fill-opacity:0.49019608;stroke:none;stroke-width:23.06328011;stroke-miterlimit:4;stroke-dasharray:none;stroke-dashoffset:0;stroke-opacity:1" />
      <rect
         style="opacity:1;fill:#000000;fill-opacity:0.49019608;stroke:none;stroke-width:23.06328011;stroke-miterlimit:4;stroke-dasharray:none;stroke-dashoffset:0;stroke-opacity:1"
         id="rect866"
         width="312"
         height="40"
         x="100"
         y="-296"
         ry="20" />
      <rect
         ry="20"
         y="-154"
         x="100"
         height="40"
         width="312"
         id="rect868"
         style="opacity:1;fill:#000000;fill-opacity:0.49019608;stroke:none;stroke-width:23.06328011;stroke-miterlimit:4;stroke-dasharray:none;stroke-dashoffset:0;stroke-opacity:1" />
      <rect
         style="opacity:1;fill:#000000;fill-opacity:0.49019608;stroke:none;stroke-width:23.06328011;stroke-miterlimit:4;stroke-dasharray:none;stroke-dashoffset:0;stroke-opacity:1"
         id="rect870"
         width="312"
         height="40"
         x="100"
         y="-102"
         ry="20" />
      <rect
         style="opacity:1;fill:#000000;fill-opacity:0.49019608;stroke:none;stroke-width:18.64914322;stroke-miterlimit:4;stroke-dasharray:none;stroke-dashoffset:0;stroke-opacity:1"
         id="rect872"
         width="204"
         height="40"
         x="208"
         y="-218"
         ry="20" />
      <path
         inkscape:connector-curvature="0"
         id="path874"
         d="m 142.8124,-161.98672 c -1.33012,-0.33741 -2.6361,-1.41314 -3.34996,-2.75978 l -0.41608,-0.78457 -0.0445,-13.21536 -0.0445,-13.21536 -13.21536,-0.0445 -13.21536,-0.0445 -0.78452,-0.41608 c -0.99893,-0.52953 -1.87899,-1.40958 -2.40851,-2.40852 l -0.41614,-0.78461 v -6.35485 -6.35484 l 0.43142,-0.8185 c 0.54798,-1.03956 1.31933,-1.81091 2.35889,-2.35894 l 0.8185,-0.43142 13.21541,-0.0445 13.21532,-0.0445 0.0445,-13.21537 0.0445,-13.21536 0.43142,-0.8185 c 0.54803,-1.03956 1.31938,-1.81091 2.35894,-2.35889 l 0.8185,-0.43142 h 6.35485 6.35484 l 0.81855,0.43142 c 1.08814,0.5736 1.87864,1.39018 2.37928,2.45774 l 0.41113,0.87659 0.0445,13.13689 0.0445,13.1369 13.21621,0.0445 13.21615,0.0445 0.81855,0.43142 c 1.08814,0.57365 1.87865,1.39023 2.37928,2.45779 l 0.41113,0.87659 v 6.1979 6.19796 l -0.41014,0.86299 c -0.49376,1.03881 -1.35333,1.9245 -2.41436,2.48698 l -0.78456,0.41608 -13.21615,0.0445 -13.21621,0.0445 -0.0445,13.1369 -0.0445,13.13689 -0.41014,0.86303 c -0.49376,1.03882 -1.35333,1.92451 -2.41441,2.48693 l -0.78451,0.41608 -6.04103,0.0247 c -3.32255,0.0148 -6.25287,-0.0247 -6.51177,-0.092 z"
         style="fill:#000000;fill-opacity:0.49019608;stroke-width:0.15690969" />
    </g>
    <g
       style="fill:#ffffff;fill-opacity:1"
       id="g862">
      <rect
         style="opacity:1;fill:#ffffff;fill-opacity:1;stroke:none;stroke-width:23.06328011;stroke-miterlimit:4;stroke-dasharray:none;stroke-dashoffset:0;stroke-opacity:1"
         id="rect840"
         width="312"
         height="40"
         x="100"
         y="-348"
         ry="20" />
      <rect
         ry="20"
         y="-296"
         x="100"
         height="40"
         width="312"
         id="rect842"
         style="opacity:1;fill:#ffffff;fill-opacity:1;stroke:none;stroke-width:23.06328011;stroke-miterlimit:4;stroke-dasharray:none;stroke-dashoffset:0;stroke-opacity:1" />
      <rect
         style="opacity:1;fill:#ffffff;fill-opacity:1;stroke:none;stroke-width:23.06328011;stroke-miterlimit:4;stroke-dasharray:none;stroke-dashoffset:0;stroke-opacity:1"
         id="rect844"
         width="312"
         height="40"
         x="100"
         y="-154"
         ry="20" />
      <rect
         ry="20"
         y="-102"
         x="100"
         height="40"
         width="312"
         id="rect846"
         style="opacity:1;fill:#ffffff;fill-opacity:1;stroke:none;stroke-width:23.06328011;stroke-miterlimit:4;stroke-dasharray:none;stroke-dashoffset:0;stroke-opacity:1" />
      <rect
         ry="20"
         y="-218"
         x="208"
         height="40"
         width="204"
         id="rect848"
         style="opacity:1;fill:#ffffff;fill-opacity:1;stroke:none;stroke-width:18.64914322;stroke-miterlimit:4;stroke-dasharray:none;stroke-dashoffset:0;stroke-opacity:1" />
      <path
         style="fill:#ffffff;fill-opacity:1;stroke-width:0.15690969"
         d="m 142.8124,-161.98672 c -1.33012,-0.33741 -2.6361,-1.41314 -3.34996,-2.75978 l -0.41608,-0.78457 -0.0445,-13.21536 -0.0445,-13.21536 -13.21536,-0.0445 -13.21536,-0.0445 -0.78452,-0.41608 c -0.99893,-0.52953 -1.87899,-1.40958 -2.40851,-2.40852 l -0.41614,-0.78461 v -6.35485 -6.35484 l 0.43142,-0.8185 c 0.54798,-1.03956 1.31933,-1.81091 2.35889,-2.35894 l 0.8185,-0.43142 13.21541,-0.0445 13.21532,-0.0445 0.0445,-13.21537 0.0445,-13.21536 0.43142,-0.8185 c 0.54803,-1.03956 1.31938,-1.81091 2.35894,-2.35889 l 0.8185,-0.43142 h 6.35485 6.35484 l 0.81855,0.43142 c 1.08814,0.5736 1.87864,1.39018 2.37928,2.45774 l 0.41113,0.87659 0.0445,13.13689 0.0445,13.1369 13.21621,0.0445 13.21615,0.0445 0.81855,0.43142 c 1.08814,0.57365 1.87865,1.39023 2.37928,2.45779 l 0.41113,0.87659 v 6.1979 6.19796 l -0.41014,0.86299 c -0.49376,1.03881 -1.35333,1.9245 -2.41436,2.48698 l -0.78456,0.41608 -13.21615,0.0445 -13.21621,0.0445 -0.0445,13.1369 -0.0445,13.13689 -0.41014,0.86303 c -0.49376,1.03882 -1.35333,1.92451 -2.41441,2.48693 l -0.78451,0.41608 -6.04103,0.0247 c -3.32255,0.0148 -6.25287,-0.0247 -6.51177,-0.092 z"
         id="path844"
         inkscape:connector-curvature="0" />
    </g>
  </g>
</svg>
