<?xml version="1.0" encoding="UTF-8" standalone="no"?>
<svg
   xmlns:dc="http://purl.org/dc/elements/1.1/"
   xmlns:cc="http://creativecommons.org/ns#"
   xmlns:rdf="http://www.w3.org/1999/02/22-rdf-syntax-ns#"
   xmlns:svg="http://www.w3.org/2000/svg"
   xmlns="http://www.w3.org/2000/svg"
   xmlns:sodipodi="http://sodipodi.sourceforge.net/DTD/sodipodi-0.dtd"
   xmlns:inkscape="http://www.inkscape.org/namespaces/inkscape"
   viewBox="0 0 64 64"
   version="1.1"
   id="svg6"
   sodipodi:docname="insert-text-frame.svg"
   width="64"
   height="64"
   inkscape:version="0.92.2 5c3e80d, 2017-08-06">
  <metadata
     id="metadata10">
    <rdf:RDF>
      <cc:Work
         rdf:about="">
        <dc:format>image/svg+xml</dc:format>
        <dc:type
           rdf:resource="http://purl.org/dc/dcmitype/StillImage" />
        <dc:title></dc:title>
      </cc:Work>
    </rdf:RDF>
  </metadata>
  <sodipodi:namedview
     pagecolor="#ffffff"
     bordercolor="#666666"
     borderopacity="1"
     objecttolerance="10"
     gridtolerance="10"
     guidetolerance="10"
     inkscape:pageopacity="0"
     inkscape:pageshadow="2"
     inkscape:window-width="1366"
     inkscape:window-height="717"
     id="namedview8"
     showgrid="false"
     inkscape:zoom="1.7383042"
     inkscape:cx="9.4964032"
     inkscape:cy="67.898541"
     inkscape:window-x="0"
     inkscape:window-y="24"
     inkscape:window-maximized="1"
     inkscape:current-layer="svg6" />
  <defs
     id="defs3051">
    <style
       type="text/css"
       id="current-color-scheme">
      .ColorScheme-Text {
        color:#4d4d4d;
      }
      </style>
  </defs>
  <g
     id="g890"
     transform="matrix(0.125,0,0,0.125,-2.5659518e-7,56)">
    <path
       style="fill:#3689e6;fill-opacity:1;stroke-width:11.10955811"
       inkscape:connector-curvature="0"
       d="m 432.91327,-391.52602 c 102.19291,88.57459 105.82677,249.6997 8.1168,359.898784 C 343.3201,78.571841 181.27964,96.100608 79.086724,7.526019 -23.106183,-81.048563 -26.740043,-242.17368 70.969925,-352.37276 168.67989,-462.57184 330.72036,-480.10061 432.91327,-391.52602 Z"
       id="path27" />
    <path
       style="opacity:1;fill:#000000;fill-opacity:0.49019608;stroke-width:11.10955811"
       inkscape:connector-curvature="0"
       d="m 511.63551,-223.09648 c -1.55139,61.31164 -25.16123,124.154605 -70.96639,175.814476 C 342.95915,62.917113 180.91868,80.445841 78.725775,-8.1287086 30.827126,-49.644356 4.4968266,-107.07716 0.19382659,-167.77119 0.79908657,-101.41452 27.117416,-37.51782 79.078684,7.519059 181.27159,96.093616 343.31975,78.556193 441.02202,-31.634228 490.72696,-87.692339 514.02704,-156.9252 511.63551,-223.09648 Z"
       id="path51" />
    <g
       style="fill:#000000;fill-opacity:0.49019608"
       transform="translate(20,19.999825)"
       id="g876">
      <path
         inkscape:connector-curvature="0"
         id="path868"
         d="m 100,-348 v 58.5 h 19.5 v 195 H 100 V -36 h 58.5 V -55.5 H 300.29297 V -75 H 158.5 V -94.5 H 139 v -195 h 19.5 V -309 h 195 v 19.5 H 373 v 139.49805 h 19.5 V -289.5 H 412 V -348 h -58.5 v 19.5 h -195 V -348 Z"
         style="color:#4d4d4d;fill:#000000;fill-opacity:0.49019608;stroke:none;stroke-width:19.5" />
      <g
         transform="matrix(6.9942945,0,0,6.9942945,-1138.9182,1715.7036)"
         id="g872"
         style="font-style:normal;font-weight:normal;font-size:40px;line-height:1.25;font-family:sans-serif;letter-spacing:0px;word-spacing:0px;fill:#000000;fill-opacity:0.49019608;stroke:none"
         aria-label="T">
        <path
           inkscape:connector-curvature="0"
           id="path870"
           style="font-style:normal;font-variant:normal;font-weight:normal;font-stretch:normal;font-family:'Comic Sans MS';-inkscape-font-specification:'Comic Sans MS';fill:#000000;fill-opacity:0.49019608"
           d="m 210.68945,-281.87206 q -1.44531,0 -4.45312,-0.23438 -2.92969,-0.21484 -4.45313,-0.19531 h -1.38672 q 0.0586,2.69531 0.52735,8.75 0.42969,5.64453 0.42969,8.76953 0,0.68359 0.13671,2.07031 0.13672,1.38672 0.13672,2.08985 0,1.32812 -0.42968,2.28515 -0.54688,1.28906 -1.69922,1.28906 -0.78125,0 -1.40625,-0.54687 -0.625,-0.54688 -0.625,-1.40625 0,-0.29297 0.0976,-0.87891 0.0977,-0.58593 0.0977,-0.8789 0,-0.95703 -0.13672,-2.8711 -0.11719,-1.91406 -0.11719,-2.89062 0,-2.79297 -0.44922,-7.85156 -0.46875,-5.46875 -0.52734,-7.85157 l -1.77734,0.0195 q -4.27735,0 -6.71875,-0.625 -1.58203,-0.41015 -1.58203,-1.93359 0,-0.80078 0.50781,-1.40625 0.58594,-0.68359 1.5039,-0.625 0.6836,0.0391 3.125,0.35156 1.95313,0.23438 3.16407,0.23438 1.17187,0 3.55468,-0.0391 2.38282,-0.0586 3.55469,-0.0586 1.50391,0 4.45313,0.21485 2.96875,0.21484 4.47265,0.21484 0.83985,0 1.40625,0.58594 0.56641,0.5664 0.56641,1.42578 0,0.83984 -0.56641,1.42578 -0.5664,0.56641 -1.40625,0.56641 z" />
      </g>
      <path
         inkscape:connector-curvature="0"
         id="path874"
         d="m 364.24812,-23.63209 c -1.83038,-0.463863 -3.62744,-1.943816 -4.60976,-3.796212 l -0.57229,-1.079184 -0.0597,-18.178244 -0.0597,-18.178253 -18.18516,-0.05977 -18.18517,-0.05979 -1.07958,-0.572059 c -1.37464,-0.728173 -2.5856,-1.938682 -3.31426,-3.312781 l -0.5723,-1.079186 v -8.741311 -8.741349 l 0.59377,-1.125911 c 0.75409,-1.429935 1.81555,-2.49096 3.24602,-3.244768 l 1.12635,-0.593534 18.18517,-0.05981 18.18516,-0.05981 0.0597,-18.178258 0.0597,-18.17823 0.59376,-1.12594 c 0.7541,-1.4299 1.81554,-2.49096 3.24603,-3.24474 l 1.12631,-0.59353 h 8.74465 8.74472 l 1.12634,0.59353 c 1.4974,0.78905 2.58514,1.91227 3.27407,3.38077 l 0.56568,1.20575 0.0589,18.07031 0.0589,18.070338 18.18624,0.05981 18.1863,0.05981 1.12637,0.593534 c 1.49737,0.789056 2.58515,1.912272 3.27409,3.380765 l 0.56565,1.205755 v 8.525508 8.525479 l -0.56414,1.187103 c -0.67909,1.428933 -1.86231,2.647238 -3.32236,3.420886 l -1.07961,0.572061 -18.1863,0.05979 -18.18624,0.05979 -0.0589,18.070303 -0.0589,18.070305 -0.56415,1.18709 c -0.67911,1.428936 -1.86228,2.647238 -3.32237,3.420924 l -1.07957,0.572033 -8.31286,0.0376 c -4.57207,0.02207 -8.60432,-0.03601 -8.96056,-0.126431 z"
         style="fill:#000000;fill-opacity:0.49019608;stroke-width:0.21587645" />
    </g>
    <g
       id="g866">
      <path
         style="color:#4d4d4d;fill:#ffffff;fill-opacity:1;stroke:none;stroke-width:19.5"
         d="m 100,-348 v 58.5 h 19.5 v 195 H 100 V -36 h 58.5 V -55.5 H 300.29297 V -75 H 158.5 V -94.5 H 139 v -195 h 19.5 V -309 h 195 v 19.5 H 373 v 139.49805 h 19.5 V -289.5 H 412 V -348 h -58.5 v 19.5 h -195 V -348 Z"
         id="path4"
         inkscape:connector-curvature="0" />
      <g
         aria-label="T"
         style="font-style:normal;font-weight:normal;font-size:40px;line-height:1.25;font-family:sans-serif;letter-spacing:0px;word-spacing:0px;fill:#ffffff;fill-opacity:1;stroke:none"
         id="flowRoot821"
         transform="matrix(6.9942945,0,0,6.9942945,-1138.9182,1715.7036)">
        <path
           d="m 210.68945,-281.87206 q -1.44531,0 -4.45312,-0.23438 -2.92969,-0.21484 -4.45313,-0.19531 h -1.38672 q 0.0586,2.69531 0.52735,8.75 0.42969,5.64453 0.42969,8.76953 0,0.68359 0.13671,2.07031 0.13672,1.38672 0.13672,2.08985 0,1.32812 -0.42968,2.28515 -0.54688,1.28906 -1.69922,1.28906 -0.78125,0 -1.40625,-0.54687 -0.625,-0.54688 -0.625,-1.40625 0,-0.29297 0.0976,-0.87891 0.0977,-0.58593 0.0977,-0.8789 0,-0.95703 -0.13672,-2.8711 -0.11719,-1.91406 -0.11719,-2.89062 0,-2.79297 -0.44922,-7.85156 -0.46875,-5.46875 -0.52734,-7.85157 l -1.77734,0.0195 q -4.27735,0 -6.71875,-0.625 -1.58203,-0.41015 -1.58203,-1.93359 0,-0.80078 0.50781,-1.40625 0.58594,-0.68359 1.5039,-0.625 0.6836,0.0391 3.125,0.35156 1.95313,0.23438 3.16407,0.23438 1.17187,0 3.55468,-0.0391 2.38282,-0.0586 3.55469,-0.0586 1.50391,0 4.45313,0.21485 2.96875,0.21484 4.47265,0.21484 0.83985,0 1.40625,0.58594 0.56641,0.5664 0.56641,1.42578 0,0.83984 -0.56641,1.42578 -0.5664,0.56641 -1.40625,0.56641 z"
           style="font-style:normal;font-variant:normal;font-weight:normal;font-stretch:normal;font-family:'Comic Sans MS';-inkscape-font-specification:'Comic Sans MS';fill:#ffffff"
           id="path829"
           inkscape:connector-curvature="0" />
      </g>
      <path
         style="fill:#ffffff;stroke-width:0.21587645"
         d="m 364.24812,-23.63209 c -1.83038,-0.463863 -3.62744,-1.943816 -4.60976,-3.796212 l -0.57229,-1.079184 -0.0597,-18.178244 -0.0597,-18.178253 -18.18516,-0.05977 -18.18517,-0.05979 -1.07958,-0.572059 c -1.37464,-0.728173 -2.5856,-1.938682 -3.31426,-3.312781 l -0.5723,-1.079186 v -8.741311 -8.741349 l 0.59377,-1.125911 c 0.75409,-1.429935 1.81555,-2.49096 3.24602,-3.244768 l 1.12635,-0.593534 18.18517,-0.05981 18.18516,-0.05981 0.0597,-18.178258 0.0597,-18.17823 0.59376,-1.12594 c 0.7541,-1.4299 1.81554,-2.49096 3.24603,-3.24474 l 1.12631,-0.59353 h 8.74465 8.74472 l 1.12634,0.59353 c 1.4974,0.78905 2.58514,1.91227 3.27407,3.38077 l 0.56568,1.20575 0.0589,18.07031 0.0589,18.070338 18.18624,0.05981 18.1863,0.05981 1.12637,0.593534 c 1.49737,0.789056 2.58515,1.912272 3.27409,3.380765 l 0.56565,1.205755 v 8.525508 8.525479 l -0.56414,1.187103 c -0.67909,1.428933 -1.86231,2.647238 -3.32236,3.420886 l -1.07961,0.572061 -18.1863,0.05979 -18.18624,0.05979 -0.0589,18.070303 -0.0589,18.070305 -0.56415,1.18709 c -0.67911,1.428936 -1.86228,2.647238 -3.32237,3.420924 l -1.07957,0.572033 -8.31286,0.0376 c -4.57207,0.02207 -8.60432,-0.03601 -8.96056,-0.126431 z"
         id="path844"
         inkscape:connector-curvature="0" />
    </g>
  </g>
</svg>
