<?xml version="1.0" encoding="UTF-8" standalone="no"?>
<svg
   xmlns:dc="http://purl.org/dc/elements/1.1/"
   xmlns:cc="http://creativecommons.org/ns#"
   xmlns:rdf="http://www.w3.org/1999/02/22-rdf-syntax-ns#"
   xmlns:svg="http://www.w3.org/2000/svg"
   xmlns="http://www.w3.org/2000/svg"
   xmlns:sodipodi="http://sodipodi.sourceforge.net/DTD/sodipodi-0.dtd"
   xmlns:inkscape="http://www.inkscape.org/namespaces/inkscape"
   viewBox="0 0 64 64"
   version="1.1"
   id="svg6"
   sodipodi:docname="insert-image.svg"
   width="64"
   height="64"
   inkscape:version="0.92.2 5c3e80d, 2017-08-06">
  <metadata
     id="metadata10">
    <rdf:RDF>
      <cc:Work
         rdf:about="">
        <dc:format>image/svg+xml</dc:format>
        <dc:type
           rdf:resource="http://purl.org/dc/dcmitype/StillImage" />
        <dc:title></dc:title>
      </cc:Work>
    </rdf:RDF>
  </metadata>
  <sodipodi:namedview
     pagecolor="#ffffff"
     bordercolor="#666666"
     borderopacity="1"
     objecttolerance="10"
     gridtolerance="10"
     guidetolerance="10"
     inkscape:pageopacity="0"
     inkscape:pageshadow="2"
     inkscape:window-width="1366"
     inkscape:window-height="717"
     id="namedview8"
     showgrid="false"
     inkscape:zoom="1.2291667"
     inkscape:cx="49.554083"
     inkscape:cy="47.593331"
     inkscape:window-x="0"
     inkscape:window-y="24"
     inkscape:window-maximized="1"
     inkscape:current-layer="svg6" />
  <defs
     id="defs3051">
    <style
       type="text/css"
       id="current-color-scheme">
      .ColorScheme-Text {
        color:#4d4d4d;
      }
      </style>
  </defs>
  <g
     id="g862"
     transform="matrix(0.125,0,0,0.125,-1.576692e-8,56)">
    <path
       style="fill:#3689e6;fill-opacity:1;stroke-width:11.10955811"
       inkscape:connector-curvature="0"
       d="m 432.91327,-391.52604 c 102.19291,88.57459 105.82678,249.69971 8.1168,359.898794 C 343.3201,78.571824 181.27964,96.100624 79.086729,7.5260143 -23.106186,-81.048576 -26.740042,-242.1737 70.969928,-352.37278 168.6799,-462.57186 330.72036,-480.10063 432.91327,-391.52604 Z"
       id="path27" />
    <path
       style="opacity:1;fill:#000000;fill-opacity:0.49019608;stroke-width:11.10955811"
       inkscape:connector-curvature="0"
       d="m 511.63551,-223.09649 c -1.55139,61.31165 -25.16123,124.154614 -70.96638,175.814474 C 342.95915,62.917124 180.91869,80.445824 78.725776,-8.1287157 30.827124,-49.644366 4.4968216,-107.07717 0.19382772,-167.7712 0.79907938,-101.41453 27.117411,-37.517826 79.078682,7.5190643 181.27159,96.093624 343.31975,78.556224 441.02202,-31.634236 490.72697,-87.692346 514.02704,-156.9252 511.63551,-223.09649 Z"
       id="path51" />
    <g
       style="fill:#000000;fill-opacity:0.49019608"
       transform="translate(20,20.533608)"
       id="g852">
      <path
         inkscape:connector-curvature="0"
         id="path848"
         d="m 368.30664,-319 -29.01172,0.0703 H 225.77344 112.25391 l -3.82813,1.94141 c -2.50718,1.2714 -4.56132,2.99732 -5.95117,5.00195 l -2.12109,3.06055 -0.18555,85.70508 -0.16797,78.0293 v 36.70899 15.917967 c 0,15.796989 0.0148,15.94132 1.83203,19.28125 2.09541,3.84998 4.9145,6.177936 9.05274,7.478515 2.30895,0.725891 31.28733,0.879718 146.17382,0.773438 l 46.96875,-0.04297 a 80,80 0 0 1 -4.63672,-26.585937 80,80 0 0 1 0.10352,-2.091797 H 256 128.94141 v -98.117186 -98.11914 H 256 383.05859 v 98.11914 20.39258 a 80,80 0 0 1 28.91211,6.82031 c 0.01,-9.19098 0.025,-17.30957 0.0254,-28.01563 l 0.004,-114.0957 -1.9707,-3.77539 c -1.4352,-2.74689 -2.91108,-4.35568 -5.41407,-5.9043 l -3.4414,-2.1289 -16.4336,-0.21289 z m -176.84766,46.76367 c -0.7361,-0.0113 -1.48012,0.009 -2.23046,0.0547 -9.2696,0.59486 -16.83714,5.87114 -21.02735,14.66406 -1.91663,4.02191 -2.18408,5.32846 -2.17773,10.58789 0.008,4.97685 0.32333,6.67818 1.85351,9.96875 3.32905,7.15865 9.43031,12.43983 16.7793,14.52344 4.62542,1.31146 11.98909,0.67066 16.61523,-1.44727 11.67311,-5.34414 17.72143,-18.66657 13.91797,-30.65039 -3.38838,-10.67607 -12.68873,-17.52202 -23.73047,-17.70117 z m 107.55664,38.25586 c -0.80979,0.0113 -1.6051,0.20741 -2.33984,0.59375 -0.9717,0.51069 -13.23678,16.01584 -27.25781,34.45703 -14.02106,18.44114 -26.11356,34.16008 -26.87109,34.92774 -2.04722,2.07447 -6.54099,1.89156 -8.69532,-0.35352 -0.92288,-0.96174 -6.362,-7.94309 -12.08594,-15.51367 -5.72398,-7.57059 -11.03793,-14.3206 -11.81054,-15 -2.14983,-1.89048 -5.8,-1.579 -8.25,0.70508 -1.14524,1.06764 -14.06079,19.25329 -28.70117,40.41211 -14.64042,21.15877 -27.22962,39.3444 -27.97657,40.41211 l -1.35937,1.93945 h 112.2832 46.01563 a 80,80 0 0 1 50.99609,-55.67578 l -15.88867,-21.12695 c -17.13876,-22.78754 -31.95311,-42.28912 -32.92188,-43.3379 -1.49382,-1.61733 -3.35515,-2.46783 -5.13672,-2.43945 z"
         style="fill:#000000;fill-opacity:0.49019608;stroke-width:0.70588231" />
      <path
         inkscape:connector-curvature="0"
         id="path850"
         d="m 364.63688,-43.667032 c -2.00301,-0.47347 -3.96961,-1.984033 -5.04458,-3.874791 l -0.62624,-1.101508 -0.0654,-18.554402 -0.0654,-18.554388 -19.90045,-0.06106 -19.90045,-0.06106 -1.1814,-0.583885 c -1.50431,-0.74345 -2.82949,-1.979007 -3.62687,-3.38154 l -0.62624,-1.101508 v -8.922201 -8.922205 l 0.64976,-1.14919 c 0.8252,-1.45954 1.98676,-2.54253 3.55218,-3.31194 l 1.23257,-0.60579 19.90045,-0.061 19.90045,-0.061 0.0654,-18.55439 0.0654,-18.55438 0.64977,-1.14925 c 0.82519,-1.45948 1.98675,-2.54251 3.55216,-3.3119 l 1.23262,-0.60581 h 9.56944 9.56949 l 1.23261,0.60581 c 1.6386,0.80538 2.829,1.95185 3.5829,3.45072 l 0.61904,1.23073 0.0643,18.44423 0.0643,18.44424 19.90164,0.061 19.90168,0.061 1.23257,0.60579 c 1.63864,0.8054 2.829,1.95183 3.58291,3.45071 l 0.61902,1.23072 v 8.701905 8.701899 l -0.61735,1.211661 c -0.74316,1.458514 -2.03794,2.702017 -3.63575,3.491689 l -1.1814,0.583885 -19.90168,0.06106 -19.90164,0.06106 -0.0643,18.444235 -0.0643,18.444249 -0.61737,1.211657 c -0.74315,1.458507 -2.03797,2.702021 -3.63575,3.491689 l -1.18143,0.583889 -9.09689,0.03847 c -5.00333,0.02108 -9.41592,-0.03699 -9.80577,-0.129088 z"
         style="fill:#000000;fill-opacity:0.49019608;stroke-width:0.22815257" />
    </g>
    <g
       id="g846">
      <path
         style="fill:#ffffff;stroke-width:0.70588231"
         d="m 368.30664,-319 -29.01172,0.0703 H 225.77344 112.25391 l -3.82813,1.94141 c -2.50718,1.2714 -4.56132,2.99732 -5.95117,5.00195 l -2.12109,3.06055 -0.18555,85.70508 L 100,-145.19141 v 36.70899 15.917967 c 0,15.796989 0.0148,15.94132 1.83203,19.28125 2.09541,3.84998 4.9145,6.177936 9.05274,7.478515 2.30895,0.725891 31.28733,0.879718 146.17382,0.773438 l 46.96875,-0.04297 a 80,80 0 0 1 -4.63672,-26.585937 80,80 0 0 1 0.10352,-2.091797 H 256 128.94141 v -98.117187 -98.11914 H 256 383.05859 v 98.11914 20.39258 a 80,80 0 0 1 28.91211,6.82031 c 0.01,-9.19098 0.025,-17.30957 0.0254,-28.01563 l 0.004,-114.0957 -1.9707,-3.77539 c -1.4352,-2.74689 -2.91108,-4.35568 -5.41407,-5.9043 l -3.4414,-2.1289 -16.4336,-0.21289 z m -176.84766,46.76367 c -0.7361,-0.0113 -1.48012,0.009 -2.23046,0.0547 -9.2696,0.59486 -16.83714,5.87114 -21.02735,14.66406 -1.91663,4.02191 -2.18408,5.32846 -2.17773,10.58789 0.008,4.97685 0.32333,6.67818 1.85351,9.96875 3.32905,7.15865 9.43031,12.43983 16.7793,14.52344 4.62542,1.31146 11.98909,0.67066 16.61523,-1.44727 11.67311,-5.34414 17.72143,-18.66657 13.91797,-30.65039 -3.38838,-10.67607 -12.68873,-17.52202 -23.73047,-17.70117 z m 107.55664,38.25586 c -0.80979,0.0113 -1.6051,0.20741 -2.33984,0.59375 -0.9717,0.51069 -13.23678,16.01584 -27.25781,34.45703 -14.02106,18.44114 -26.11356,34.16008 -26.87109,34.92774 -2.04722,2.07447 -6.54099,1.89156 -8.69532,-0.35352 -0.92288,-0.96174 -6.362,-7.94309 -12.08594,-15.51367 -5.72398,-7.57059 -11.03793,-14.3206 -11.81054,-15 -2.14983,-1.89048 -5.8,-1.579 -8.25,0.70508 -1.14524,1.06764 -14.06079,19.25329 -28.70117,40.41211 -14.64042,21.15877 -27.22962,39.3444 -27.97657,40.41211 l -1.35937,1.93945 h 112.2832 46.01563 a 80,80 0 0 1 50.99609,-55.67578 l -15.88867,-21.12695 c -17.13876,-22.78754 -31.95311,-42.28912 -32.92188,-43.3379 -1.49382,-1.61733 -3.35515,-2.46783 -5.13672,-2.43945 z"
         id="path838-3"
         inkscape:connector-curvature="0" />
      <path
         style="fill:#ffffff;stroke-width:0.22815257"
         d="m 364.63688,-43.667032 c -2.00301,-0.47347 -3.96961,-1.984033 -5.04458,-3.874791 l -0.62624,-1.101508 -0.0654,-18.554402 -0.0654,-18.554388 -19.90045,-0.06106 -19.90045,-0.06106 -1.1814,-0.583885 c -1.50431,-0.74345 -2.82949,-1.979007 -3.62687,-3.38154 l -0.62624,-1.101508 v -8.922201 -8.922205 l 0.64976,-1.14919 c 0.8252,-1.45954 1.98676,-2.54253 3.55218,-3.31194 l 1.23257,-0.60579 19.90045,-0.061 19.90045,-0.061 0.0654,-18.55439 0.0654,-18.55438 0.64977,-1.14925 c 0.82519,-1.45948 1.98675,-2.54251 3.55216,-3.3119 l 1.23262,-0.60581 h 9.56944 9.56949 l 1.23261,0.60581 c 1.6386,0.80538 2.829,1.95185 3.5829,3.45072 l 0.61904,1.23073 0.0643,18.44423 0.0643,18.44424 19.90164,0.061 19.90168,0.061 1.23257,0.60579 c 1.63864,0.8054 2.829,1.95183 3.58291,3.45071 l 0.61902,1.23072 v 8.701905 8.701899 l -0.61735,1.211661 c -0.74316,1.458514 -2.03794,2.702017 -3.63575,3.491689 l -1.1814,0.583885 -19.90168,0.06106 -19.90164,0.06106 -0.0643,18.444235 -0.0643,18.444249 -0.61737,1.211657 c -0.74315,1.458507 -2.03797,2.702021 -3.63575,3.491689 l -1.18143,0.583889 -9.09689,0.03847 c -5.00333,0.02108 -9.41592,-0.03699 -9.80577,-0.129088 z"
         id="path844"
         inkscape:connector-curvature="0" />
    </g>
  </g>
</svg>
