<?xml version="1.0" encoding="UTF-8" standalone="no"?>
<svg
   xmlns:dc="http://purl.org/dc/elements/1.1/"
   xmlns:cc="http://creativecommons.org/ns#"
   xmlns:rdf="http://www.w3.org/1999/02/22-rdf-syntax-ns#"
   xmlns:svg="http://www.w3.org/2000/svg"
   xmlns="http://www.w3.org/2000/svg"
   xmlns:sodipodi="http://sodipodi.sourceforge.net/DTD/sodipodi-0.dtd"
   xmlns:inkscape="http://www.inkscape.org/namespaces/inkscape"
   viewBox="0 0 64 64"
   version="1.1"
   id="svg6"
   sodipodi:docname="displaymathmode.svg"
   width="64"
   height="64"
   inkscape:version="0.92.2 5c3e80d, 2017-08-06">
  <metadata
     id="metadata10">
    <rdf:RDF>
      <cc:Work
         rdf:about="">
        <dc:format>image/svg+xml</dc:format>
        <dc:type
           rdf:resource="http://purl.org/dc/dcmitype/StillImage" />
        <dc:title></dc:title>
      </cc:Work>
    </rdf:RDF>
  </metadata>
  <sodipodi:namedview
     pagecolor="#ffffff"
     bordercolor="#666666"
     borderopacity="1"
     objecttolerance="10"
     gridtolerance="10"
     guidetolerance="10"
     inkscape:pageopacity="0"
     inkscape:pageshadow="2"
     inkscape:window-width="1366"
     inkscape:window-height="717"
     id="namedview8"
     showgrid="false"
     inkscape:zoom="3.6875"
     inkscape:cx="-0.32746847"
     inkscape:cy="12.392007"
     inkscape:window-x="0"
     inkscape:window-y="24"
     inkscape:window-maximized="1"
     inkscape:current-layer="svg6" />
  <defs
     id="defs3051">
    <style
       type="text/css"
       id="current-color-scheme">
      .ColorScheme-Text {
        color:#4d4d4d;
      }
      </style>
  </defs>
  <g
     transform="matrix(0.125,0,0,0.125,-3.6226004e-6,-10e-7)"
     id="g827">
    <path
       style="fill:#3689e6;fill-opacity:1;stroke-width:11.10955143"
       inkscape:connector-curvature="0"
       d="M 432.91338,56.473967 C 535.10618,145.04856 538.74004,306.17367 441.03017,416.37276 343.32011,526.57184 181.2795,544.10061 79.086701,455.52602 -23.106137,366.95143 -26.739998,205.82631 70.969909,95.627227 168.67978,-14.571854 330.72031,-32.100623 432.91338,56.473967 Z"
       id="path911" />
    <path
       style="opacity:1;fill:#000000;fill-opacity:0.49019608;stroke-width:11.10955238"
       inkscape:connector-curvature="0"
       d="m 511.63502,224.90352 c -1.55139,61.31166 -25.1612,124.1546 -70.96631,175.81449 C 342.95884,510.9171 180.91855,528.44585 78.725749,439.87127 30.827146,398.35564 4.4968715,340.92283 0.19388224,280.22879 0.79913305,346.58547 27.117437,410.48219 79.078653,455.51904 181.27146,544.09362 343.31944,526.5562 441.02161,416.36578 490.7265,360.30764 514.02656,291.07481 511.63502,224.90352 Z"
       id="path913" />
    <path
       style="fill:#000000;fill-opacity:0.49019608;stroke-width:0.30295697"
       d="m 172.51419,431.897 c -5.53878,-0.64208 -9.67874,-1.83346 -14.0875,-4.05402 -10.58034,-5.32898 -17.41132,-14.51972 -19.59221,-26.36034 -0.73627,-3.99737 -0.72725,-13.01482 0.0168,-16.80226 1.75382,-8.92751 5.13763,-13.29979 15.84024,-20.46739 9.51391,-6.37152 13.20248,-9.19253 17.77166,-13.59177 12.55173,-12.08489 22.97694,-31.62688 30.92013,-57.95955 8.28491,-27.4655 14.32957,-62.81647 18.36098,-107.38056 0.50009,-5.52812 0.90926,-10.12928 0.90926,-10.22479 0,-0.31032 -29.7512,-0.18308 -33.94636,0.14518 -19.5642,1.53087 -33.92173,10.39606 -45.60481,28.15913 -1.36991,2.08282 -3.34317,5.35476 -4.385,7.27096 -4.29909,7.90711 -6.37531,9.65156 -11.52256,9.68132 -1.98958,0.0116 -6.71716,-0.87396 -7.18984,-1.34665 -0.24167,-0.24166 8.37627,-22.17984 12.97341,-33.02566 4.64677,-10.96289 10.95696,-24.07637 15.59877,-32.4164 1.20562,-2.16614 2.95562,-5.43955 3.88892,-7.27425 2.75086,-5.40769 6.04073,-8.88473 11.44764,-12.09892 11.0967,-6.59652 31.28081,-10.90092 60.40608,-12.88199 19.02463,-1.29403 43.50515,-1.56374 132.54368,-1.46023 l 74.98184,0.0871 0.0774,27.49204 0.0773,27.49204 -34.00853,0.077 -34.00851,0.0771 -0.82083,8.78575 c -2.9798,31.89357 -5.81154,66.82671 -7.19557,88.76639 -2.13018,33.76847 -2.41163,60.67363 -0.78017,74.58411 2.12745,18.13957 6.7167,26.22434 16.288,28.69419 2.72013,0.70193 8.82037,1.18347 12.82546,1.01242 4.39367,-0.18765 7.57248,-1.15033 11.4017,-3.45297 2.91356,-1.75203 7.43702,-5.93675 10.09038,-9.33478 6.90141,-8.83822 12.36873,-22.24033 13.12539,-32.17435 l 0.20381,-2.67566 6.2935,-0.0819 c 5.16466,-0.0672 6.32262,-0.006 6.45595,0.34147 0.20387,0.53123 -0.37488,15.60795 -0.78984,20.57631 -4.09562,49.03754 -23.00755,75.83145 -57.1305,80.94089 -17.29373,2.5895 -33.06154,-0.0898 -44.57941,-7.57498 -13.37177,-8.68996 -21.79432,-22.82732 -24.98746,-41.94171 -0.63881,-3.82395 -0.683,-4.97648 -0.67947,-17.72297 0.003,-13.09971 0.18092,-17.51379 1.22288,-30.44718 1.51848,-18.84808 3.24444,-33.78074 9.34948,-80.88951 4.34985,-33.56511 9.26194,-74.44577 9.26194,-77.08213 0,-0.42826 -3.23745,-0.47486 -32.99388,-0.47486 h -32.99388 l -0.1845,1.43905 c -0.10144,0.79148 -0.93579,9.55071 -1.85406,19.46498 -4.9767,53.73185 -7.87222,82.66459 -10.46012,104.52016 -6.92281,58.46488 -14.16361,89.23646 -25.34295,107.70121 -8.03823,13.2766 -18.79362,20.72577 -33.41011,23.13978 -3.99013,0.65899 -11.18785,1.05017 -13.78454,0.74916 z"
       id="path835"
       inkscape:connector-curvature="0" />
    <path
       inkscape:connector-curvature="0"
       id="path833"
       d="m 152.51419,411.89697 c -5.53878,-0.64208 -9.67874,-1.83346 -14.0875,-4.05402 -10.58034,-5.32898 -17.41132,-14.51972 -19.59221,-26.36034 -0.73627,-3.99737 -0.72725,-13.01482 0.0168,-16.80226 1.75382,-8.92751 5.13763,-13.29979 15.84024,-20.46739 9.51391,-6.37152 13.20248,-9.19253 17.77166,-13.59177 12.55173,-12.08489 22.97694,-31.62688 30.92013,-57.95955 8.28491,-27.4655 14.32957,-62.81647 18.36098,-107.38056 0.50009,-5.52812 0.90926,-10.12928 0.90926,-10.22479 0,-0.31032 -29.7512,-0.18308 -33.94636,0.14518 -19.5642,1.53087 -33.92173,10.39606 -45.60481,28.15913 -1.36991,2.08282 -3.34317,5.35476 -4.385,7.27096 -4.29909,7.90711 -6.37531,9.65156 -11.52256,9.68132 -1.98958,0.0116 -6.71716,-0.87396 -7.18984,-1.34665 -0.241663,-0.24166 8.37627,-22.17984 12.97341,-33.02566 4.64677,-10.96289 10.95696,-24.07637 15.59877,-32.4164 1.20562,-2.16614 2.95562,-5.43955 3.88892,-7.27425 2.75086,-5.40769 6.04073,-8.88473 11.44764,-12.09892 11.0967,-6.59652 31.28081,-10.90092 60.40608,-12.88199 19.02463,-1.294027 43.50515,-1.563736 132.54368,-1.460224 l 74.98184,0.08713 0.0774,27.492034 0.0773,27.49204 -34.00853,0.077 -34.00851,0.0771 -0.82083,8.78575 c -2.9798,31.89357 -5.81154,66.82671 -7.19557,88.76639 -2.13018,33.76847 -2.41163,60.67363 -0.78017,74.58411 2.12745,18.13957 6.7167,26.22434 16.288,28.69419 2.72013,0.70193 8.82037,1.18347 12.82546,1.01242 4.39367,-0.18765 7.57248,-1.15033 11.4017,-3.45297 2.91356,-1.75203 7.43702,-5.93675 10.09038,-9.33478 6.90141,-8.83822 12.36873,-22.24033 13.12539,-32.17435 l 0.20381,-2.67566 6.2935,-0.0819 c 5.16466,-0.0672 6.32262,-0.006 6.45595,0.34147 0.20387,0.53123 -0.37488,15.60795 -0.78984,20.57631 -4.09562,49.03754 -23.00755,75.83145 -57.1305,80.94089 -17.29373,2.5895 -33.06154,-0.0898 -44.57941,-7.57498 -13.37177,-8.68996 -21.79432,-22.82732 -24.98746,-41.94171 -0.63881,-3.82395 -0.683,-4.97648 -0.67947,-17.72297 0.003,-13.09971 0.18092,-17.51379 1.22288,-30.44718 1.51848,-18.84808 3.24444,-33.78074 9.34948,-80.88951 4.34985,-33.56511 9.26194,-74.44577 9.26194,-77.08213 0,-0.42826 -3.23745,-0.47486 -32.99388,-0.47486 h -32.99388 l -0.1845,1.43905 c -0.10144,0.79148 -0.93579,9.55071 -1.85406,19.46498 -4.9767,53.73185 -7.87222,82.66459 -10.46012,104.52016 -6.92281,58.46488 -14.16361,89.23646 -25.34295,107.70121 -8.03823,13.2766 -18.79362,20.72577 -33.41011,23.13978 -3.99013,0.65899 -11.18785,1.05017 -13.78454,0.74916 z"
       style="fill:#ffffff;stroke-width:0.30295697" />
  </g>
</svg>
