<?xml version="1.0" encoding="UTF-8" standalone="no"?>
<svg
   xmlns:dc="http://purl.org/dc/elements/1.1/"
   xmlns:cc="http://creativecommons.org/ns#"
   xmlns:rdf="http://www.w3.org/1999/02/22-rdf-syntax-ns#"
   xmlns:svg="http://www.w3.org/2000/svg"
   xmlns="http://www.w3.org/2000/svg"
   xmlns:sodipodi="http://sodipodi.sourceforge.net/DTD/sodipodi-0.dtd"
   xmlns:inkscape="http://www.inkscape.org/namespaces/inkscape"
   viewBox="0 0 64 64"
   version="1.1"
   id="svg6"
   sodipodi:docname="document-equal.svg"
   width="64"
   height="64"
   inkscape:version="0.92.2 5c3e80d, 2017-08-06">
  <metadata
     id="metadata10">
    <rdf:RDF>
      <cc:Work
         rdf:about="">
        <dc:format>image/svg+xml</dc:format>
        <dc:type
           rdf:resource="http://purl.org/dc/dcmitype/StillImage" />
        <dc:title></dc:title>
      </cc:Work>
    </rdf:RDF>
  </metadata>
  <sodipodi:namedview
     pagecolor="#ffffff"
     bordercolor="#666666"
     borderopacity="1"
     objecttolerance="10"
     gridtolerance="10"
     guidetolerance="10"
     inkscape:pageopacity="0"
     inkscape:pageshadow="2"
     inkscape:window-width="1366"
     inkscape:window-height="717"
     id="namedview8"
     showgrid="false"
     inkscape:zoom="3.6875"
     inkscape:cx="15.003331"
     inkscape:cy="9.5991783"
     inkscape:window-x="0"
     inkscape:window-y="24"
     inkscape:window-maximized="1"
     inkscape:current-layer="svg6" />
  <defs
     id="defs3051">
    <style
       type="text/css"
       id="current-color-scheme">
      .ColorScheme-Text {
        color:#4d4d4d;
      }
      </style>
  </defs>
  <g
     id="g847"
     transform="matrix(0.125,0,0,0.125,6.1868113e-8,55.999999)">
    <path
       style="fill:#3689e6;fill-opacity:1;stroke-width:11.10955906"
       inkscape:connector-curvature="0"
       d="m 432.91328,-391.52606 c 102.1929,88.57459 105.82676,249.69974 8.1168,359.89882 C 343.32007,78.57184 181.27963,96.100608 79.086738,7.526016 -23.106204,-81.04856 -26.740031,-242.17372 70.969938,-352.37279 168.67989,-462.57187 330.72033,-480.10064 432.91328,-391.52606 Z"
       id="path27-5" />
    <path
       style="opacity:1;fill:#000000;fill-opacity:0.49019608;stroke-width:11.10955906"
       inkscape:connector-curvature="0"
       d="m 511.63551,-223.09648 c -1.55139,61.31161 -25.16123,124.154568 -70.96637,175.81444 C 342.95912,62.917072 180.91868,80.4458 78.725756,-8.128752 30.827124,-49.64436 4.4968184,-107.07719 0.19382632,-167.77119 0.79907984,-101.41455 27.117404,-37.517816 79.078686,7.519024 181.27157,96.093616 343.31973,78.556152 441.02203,-31.634232 490.72698,-87.692376 514.02704,-156.92523 511.63551,-223.09648 Z"
       id="path51-6" />
    <path
       style="color:#4d4d4d;fill:#000000;fill-opacity:0.49019608;stroke:none;stroke-width:26"
       d="m 185,-328.00001 a 39.000391,39.000391 0 0 0 -39,39 39.000391,39.000391 0 0 0 26,36.71483 v 158.28517 c 0,28.73001 23.27,52.000008 52,52.000008 h 26 V -16 L 302,-54.999999 250,-94.00001 V -68 h -26 c -14.352,0 -26,-11.647997 -26,-26.00001 v -158.28517 a 39.000391,39.000391 0 0 0 26,-36.71483 39.000391,39.000391 0 0 0 -39,-39 z m 117,0 -52,39 52,39 v -26 h 26 c 14.352,0 26,11.648 26,26 V -91.71484 A 39.000391,39.000391 0 0 0 328,-54.999999 39.000391,39.000391 0 0 0 367,-16 39.000391,39.000391 0 0 0 406,-54.999999 39.000391,39.000391 0 0 0 380,-91.71484 v -158.28517 c 0,-28.73 -23.27,-52 -52,-52 h -26 z m -117,26 a 13,13 0 0 1 13,13 13,13 0 0 1 -13,13 13,13 0 0 1 -13,-13 13,13 0 0 1 13,-13 z M 367,-68 a 13,13 0 0 1 13,13.000001 13,13 0 0 1 -13,12.999997 A 13,13 0 0 1 354,-54.999999 13,13 0 0 1 367,-68 Z"
       class="ColorScheme-Text"
       id="path36"
       inkscape:connector-curvature="0" />
    <path
       inkscape:connector-curvature="0"
       id="path4"
       class="ColorScheme-Text"
       d="m 165,-348.00001 a 39.000391,39.000391 0 0 0 -39,39 39.000391,39.000391 0 0 0 26,36.71483 v 158.28517 c 0,28.73001 23.27,52.000008 52,52.000008 h 26 V -36 l 52,-38.999999 -52,-39.000011 V -88 h -26 c -14.352,0 -26,-11.647997 -26,-26.00001 v -158.28517 a 39.000391,39.000391 0 0 0 26,-36.71483 39.000391,39.000391 0 0 0 -39,-39 z m 117,0 -52,39 52,39 v -26 h 26 c 14.352,0 26,11.648 26,26 v 158.28517 A 39.000391,39.000391 0 0 0 308,-74.999999 39.000391,39.000391 0 0 0 347,-36 39.000391,39.000391 0 0 0 386,-74.999999 39.000391,39.000391 0 0 0 360,-111.71484 v -158.28517 c 0,-28.73 -23.27,-52 -52,-52 h -26 z m -117,26 a 13,13 0 0 1 13,13 13,13 0 0 1 -13,13 13,13 0 0 1 -13,-13 13,13 0 0 1 13,-13 z M 347,-88 a 13,13 0 0 1 13,13.000001 13,13 0 0 1 -13,12.999997 A 13,13 0 0 1 334,-74.999999 13,13 0 0 1 347,-88 Z"
       style="color:#4d4d4d;fill:#ffffff;fill-opacity:1;stroke:none;stroke-width:26" />
  </g>
</svg>
