<?xml version="1.0" encoding="UTF-8" standalone="no"?>
<svg
   xmlns:dc="http://purl.org/dc/elements/1.1/"
   xmlns:cc="http://creativecommons.org/ns#"
   xmlns:rdf="http://www.w3.org/1999/02/22-rdf-syntax-ns#"
   xmlns:svg="http://www.w3.org/2000/svg"
   xmlns="http://www.w3.org/2000/svg"
   xmlns:sodipodi="http://sodipodi.sourceforge.net/DTD/sodipodi-0.dtd"
   xmlns:inkscape="http://www.inkscape.org/namespaces/inkscape"
   viewBox="0 0 64 64"
   version="1.1"
   id="svg10"
   sodipodi:docname="kr_mountman.svg"
   width="64"
   height="64"
   inkscape:version="0.92.2 5c3e80d, 2017-08-06">
  <metadata
     id="metadata14">
    <rdf:RDF>
      <cc:Work
         rdf:about="">
        <dc:format>image/svg+xml</dc:format>
        <dc:type
           rdf:resource="http://purl.org/dc/dcmitype/StillImage" />
        <dc:title></dc:title>
      </cc:Work>
    </rdf:RDF>
  </metadata>
  <sodipodi:namedview
     pagecolor="#ffffff"
     bordercolor="#666666"
     borderopacity="1"
     objecttolerance="10"
     gridtolerance="10"
     guidetolerance="10"
     inkscape:pageopacity="0"
     inkscape:pageshadow="2"
     inkscape:window-width="1366"
     inkscape:window-height="717"
     id="namedview12"
     showgrid="false"
     inkscape:zoom="1.3037281"
     inkscape:cx="3.1488943"
     inkscape:cy="-85.142249"
     inkscape:window-x="0"
     inkscape:window-y="24"
     inkscape:window-maximized="1"
     inkscape:current-layer="svg10" />
  <defs
     id="defs3051">
    <style
       type="text/css"
       id="current-color-scheme">
      .ColorScheme-Text {
        color:#4d4d4d;
      }
      .ColorScheme-Highlight {
        color:#3daee9;
      }
      .ColorScheme-PositiveText {
        color:#27ae60;
      }
      </style>
  </defs>
  <g
     id="g843">
    <path
       id="path27"
       d="M 54.114159,7.0592459 C 66.888272,18.13107 67.342506,38.271709 55.128759,52.046595 42.915013,65.82148 22.659955,68.012576 9.8858411,56.940753 -2.8882733,45.868929 -3.3425053,25.728289 8.871241,11.953403 21.084987,-1.8214817 41.340045,-4.0125779 54.114159,7.0592459 Z"
       inkscape:connector-curvature="0"
       style="fill:#68b723;fill-opacity:1;stroke-width:1.38869476" />
    <path
       id="path51"
       d="M 63.954439,28.112939 C 63.760515,35.776895 60.809285,43.632265 55.083641,50.089749 42.869894,63.864639 22.614836,66.05573 9.840722,54.983911 3.8533905,49.794454 0.5621027,42.615355 0.02422846,35.0286 0.09988492,43.323185 3.3896764,51.310271 9.8848353,56.939883 22.658949,68.011701 42.914969,65.819524 55.127752,52.04572 61.340871,45.038457 64.25338,36.38435 63.954439,28.112939 Z"
       inkscape:connector-curvature="0"
       style="opacity:1;fill:#000000;fill-opacity:0.49019608;stroke-width:1.38869476" />
    <path
       style="fill:#000000;fill-opacity:0.49019608;stroke-width:0.17509556"
       d="m 20.180931,53.701502 c -0.875115,-0.399535 -1.879576,-1.542857 -2.150809,-2.448148 -0.291883,-0.974224 -0.289335,-32.527113 0.0027,-33.50186 0.113254,-0.378005 0.508665,-1.031227 0.878691,-1.451599 1.23169,-1.399274 0.391274,-1.332249 16.015979,-1.277305 l 13.861317,0.04874 0.759168,0.531837 c 0.434796,0.304601 0.96376,0.903095 1.238012,1.400764 l 0.478869,0.868927 -0.04113,16.822019 -0.04111,16.82202 -0.483019,0.729815 c -0.265655,0.401399 -0.81141,0.94717 -1.212799,1.212824 l -0.729786,0.483007 -13.932966,0.04159 C 21.585633,54.023643 20.85568,54.009553 20.180926,53.7015 Z m 4.809987,-3.953535 c 0.493369,-0.255132 1.065487,-1.199453 1.065487,-1.758668 0,-0.544462 -0.524712,-1.41247 -1.036644,-1.714875 -0.793826,-0.468924 -1.653687,-0.385658 -2.352371,0.227795 -0.75734,0.664953 -0.946785,1.503 -0.535628,2.369451 0.495694,1.044599 1.775295,1.436781 2.859156,0.876297 z m 20.853066,-0.139035 c 0.840344,-0.571932 1.250396,-1.210522 1.351122,-2.104155 0.124969,-1.10872 -0.20619,-1.94009 -1.078207,-2.706846 -0.738166,-0.649057 -8.569349,-6.410136 -9.279643,-6.826647 -0.199466,-0.116968 -0.504133,-0.215459 -0.67704,-0.21887 -0.44155,-0.0087 -1.17396,0.774521 -1.173822,1.25528 7.1e-5,0.243465 1.202922,2.052686 3.051006,4.589048 3.547123,4.868169 4.152455,5.619115 4.894054,6.071324 0.783204,0.477578 2.165164,0.449521 2.91253,-0.05913 z M 31.906385,40.328867 c -0.245728,-0.763057 -0.135141,-2.305601 0.22281,-3.107946 0.747683,-1.675916 2.217595,-2.618742 4.082752,-2.618742 1.394724,0 2.191849,0.341315 3.507332,1.501778 0.532643,0.469877 1.293132,1.110887 1.689976,1.424469 l 0.721534,0.570148 0.807145,-0.897738 c 1.756902,-1.954097 2.847889,-5.131192 2.668723,-7.771667 -0.30756,-4.53273 -3.066418,-8.196905 -7.426363,-9.863316 -1.043557,-0.398856 -1.444329,-0.452102 -3.456659,-0.459243 -1.947733,-0.0069 -2.462626,0.05297 -3.567696,0.414921 -3.493507,1.144254 -6.357355,4.226615 -7.276562,7.831765 -0.344021,1.349253 -0.349195,3.837455 -0.01096,5.271993 0.776399,3.292945 3.27659,6.19943 6.524924,7.585256 1.45959,0.6227 1.681048,0.640019 1.513047,0.118322 z m 1.4638,-8.705069 c -0.974953,-0.766898 -1.057832,-2.188619 -0.176456,-3.026949 0.616643,-0.586523 1.267286,-0.740929 2.043157,-0.484869 0.873664,0.288335 1.325253,0.930184 1.325253,1.883599 0,0.655675 -0.09606,0.877885 -0.595325,1.377151 -0.499265,0.499266 -0.721477,0.595325 -1.377152,0.595325 -0.512205,0 -0.932755,-0.11872 -1.219477,-0.344257 z"
       id="path869"
       inkscape:connector-curvature="0" />
    <path
       inkscape:connector-curvature="0"
       id="path867"
       d="m 17.680931,51.201502 c -0.875115,-0.399535 -1.879576,-1.542857 -2.150808,-2.448148 -0.291884,-0.974224 -0.289335,-32.527113 0.0027,-33.50186 0.113254,-0.378005 0.508665,-1.031227 0.878691,-1.451599 1.23169,-1.399274 0.391274,-1.33225 16.015979,-1.277305 l 13.861317,0.04874 0.759168,0.531837 c 0.434796,0.304601 0.96376,0.903095 1.238012,1.400764 l 0.478869,0.868927 -0.04113,16.822019 -0.04111,16.82202 -0.483019,0.729815 c -0.265655,0.401399 -0.81141,0.94717 -1.212799,1.212824 l -0.729786,0.483007 -13.932966,0.04159 C 19.085634,51.523643 18.355681,51.509553 17.680927,51.2015 Z m 4.809987,-3.953535 c 0.493369,-0.255132 1.065487,-1.199453 1.065487,-1.758668 0,-0.544462 -0.524712,-1.41247 -1.036644,-1.714875 -0.793826,-0.468924 -1.653687,-0.385658 -2.352371,0.227795 -0.75734,0.664953 -0.946785,1.503 -0.535628,2.369451 0.495694,1.044599 1.775295,1.436781 2.859156,0.876297 z m 20.853066,-0.139035 c 0.840344,-0.571932 1.250396,-1.210522 1.351122,-2.104155 0.124969,-1.10872 -0.20619,-1.94009 -1.078207,-2.706846 -0.738166,-0.649057 -8.569349,-6.410136 -9.279643,-6.826647 -0.199466,-0.116968 -0.504133,-0.215459 -0.67704,-0.21887 -0.44155,-0.0087 -1.17396,0.774521 -1.173822,1.25528 7.1e-5,0.243465 1.202922,2.052686 3.051006,4.589048 3.547123,4.868169 4.152455,5.619115 4.894054,6.071324 0.783204,0.477578 2.165164,0.449521 2.91253,-0.05913 z M 29.406385,37.828867 c -0.245728,-0.763057 -0.135141,-2.305601 0.22281,-3.107946 0.747682,-1.675916 2.217595,-2.618742 4.082752,-2.618742 1.394724,0 2.191849,0.341315 3.507332,1.501778 0.532643,0.469877 1.293132,1.110887 1.689976,1.424469 l 0.721534,0.570148 0.807145,-0.897738 c 1.756902,-1.954097 2.847889,-5.131192 2.668723,-7.771667 -0.30756,-4.53273 -3.066418,-8.196905 -7.426363,-9.863316 -1.043557,-0.398856 -1.444329,-0.452102 -3.456659,-0.459243 -1.947733,-0.0069 -2.462626,0.05297 -3.567696,0.414921 -3.493507,1.144254 -6.357355,4.226615 -7.276562,7.831765 -0.344021,1.349253 -0.349195,3.837455 -0.01096,5.271993 0.776399,3.292945 3.27659,6.19943 6.524924,7.585256 1.45959,0.6227 1.681048,0.640019 1.513047,0.118322 z m 1.4638,-8.705069 c -0.974953,-0.766898 -1.057833,-2.188619 -0.176456,-3.026949 0.616643,-0.586523 1.267286,-0.740929 2.043157,-0.484869 0.873664,0.288335 1.325253,0.930184 1.325253,1.883599 0,0.655675 -0.09606,0.877885 -0.595325,1.377151 -0.499265,0.499266 -0.721477,0.595325 -1.377152,0.595325 -0.512205,0 -0.932755,-0.11872 -1.219477,-0.344257 z"
       style="fill:#ffffff;stroke-width:0.17509556" />
  </g>
</svg>
