<?xml version="1.0" encoding="UTF-8" standalone="no"?>
<svg
   xmlns:dc="http://purl.org/dc/elements/1.1/"
   xmlns:cc="http://creativecommons.org/ns#"
   xmlns:rdf="http://www.w3.org/1999/02/22-rdf-syntax-ns#"
   xmlns:svg="http://www.w3.org/2000/svg"
   xmlns="http://www.w3.org/2000/svg"
   xmlns:sodipodi="http://sodipodi.sourceforge.net/DTD/sodipodi-0.dtd"
   xmlns:inkscape="http://www.inkscape.org/namespaces/inkscape"
   viewBox="0 0 64 64"
   version="1.1"
   id="svg6"
   sodipodi:docname="kstars_fitsviewer.svg"
   width="64"
   height="64"
   inkscape:version="0.92.2 5c3e80d, 2017-08-06">
  <metadata
     id="metadata10">
    <rdf:RDF>
      <cc:Work
         rdf:about="">
        <dc:format>image/svg+xml</dc:format>
        <dc:type
           rdf:resource="http://purl.org/dc/dcmitype/StillImage" />
        <dc:title></dc:title>
      </cc:Work>
    </rdf:RDF>
  </metadata>
  <sodipodi:namedview
     pagecolor="#ffffff"
     bordercolor="#666666"
     borderopacity="1"
     objecttolerance="10"
     gridtolerance="10"
     guidetolerance="10"
     inkscape:pageopacity="0"
     inkscape:pageshadow="2"
     inkscape:window-width="1366"
     inkscape:window-height="717"
     id="namedview8"
     showgrid="false"
     inkscape:zoom="2.4583333"
     inkscape:cx="15.26803"
     inkscape:cy="51.892641"
     inkscape:window-x="0"
     inkscape:window-y="24"
     inkscape:window-maximized="1"
     inkscape:current-layer="svg6" />
  <defs
     id="defs3051">
    <style
       type="text/css"
       id="current-color-scheme">
      .ColorScheme-Text {
        color:#4d4d4d;
      }
      </style>
  </defs>
  <g
     id="g843"
     transform="matrix(0.125,0,0,0.125,2.8118476e-7,56)">
    <path
       style="fill:#3689e6;fill-opacity:1;stroke-width:11.10955906"
       inkscape:connector-curvature="0"
       d="m 432.91328,-391.52606 c 102.1929,88.57459 105.82676,249.69974 8.1168,359.898821 C 343.32007,78.571841 181.27963,96.100609 79.086739,7.526017 -23.106204,-81.048559 -26.740031,-242.17372 70.969939,-352.37279 168.67989,-462.57187 330.72033,-480.10064 432.91328,-391.52606 Z"
       id="path27-5" />
    <path
       style="opacity:1;fill:#000000;fill-opacity:0.49019608;stroke-width:11.10955906"
       inkscape:connector-curvature="0"
       d="m 511.63551,-223.09648 c -1.55139,61.31161 -25.16123,124.154568 -70.96636,175.814441 C 342.95912,62.917073 180.91868,80.445801 78.725756,-8.1287511 30.827124,-49.644359 4.4968183,-107.07719 0.19382624,-167.77119 0.79907976,-101.41455 27.117404,-37.517815 79.078687,7.519025 181.27157,96.093617 343.31973,78.556153 441.02203,-31.634231 490.72699,-87.692375 514.02704,-156.92523 511.63551,-223.09648 Z"
       id="path51-6" />
    <path
       style="color:#4d4d4d;fill:#000000;fill-opacity:0.49019608;stroke:none;stroke-width:19.28507042"
       d="m 336.20035,-276.62326 c -49.00304,-56.18977 -127.64976,-67.79686 -175.67859,-25.91097 -48.0303,41.88716 -56.75035,104.0981 -7.74729,160.28789 -40.8361,-46.82509 -17.49953,-108.43413 22.52701,-143.34057 40.02588,-34.90719 105.58518,-25.23553 146.42127,21.58954 18.45647,21.16327 28.25535,46.26195 30.25012,70.67561 a 96.425351,75.529864 48.908356 0 0 -18.86592,-29.42658 96.425351,75.529864 48.908356 0 0 -120.32225,-23.01001 l -0.14193,0.12378 a 96.425351,75.529864 48.908356 0 0 -4.35121,4.29446 c -44.50416,43.74934 -43.25533,120.6038 4.16958,174.98399 49.00302,56.189761 128.57887,66.98657063 177.72249,24.128486 49.14507,-42.859356 58.36842,-105.509216 9.36537,-161.699006 40.83609,46.82506 16.83712,109.01182 -24.1167,144.726939 -40.95318,35.715879 -107.2601,26.696138 -148.09613,-20.128909 -21.19975,-24.30888 -31.26536,-54.01796 -30.41224,-81.9791 a 96.425351,75.529864 48.908356 0 0 22.32098,37.85831 96.425351,75.529864 48.908356 0 0 118.63354,24.28284 l 0.099,0.11355 c 0.27615,-0.24084 0.50014,-0.53095 0.77373,-0.77472 a 96.425351,75.529864 48.908356 0 0 0.78757,-0.5869 96.425351,75.529864 48.908356 0 0 5.42333,-5.52933 c 40.72691,-43.26075 37.69529,-117.4089 -8.76175,-170.6793 z"
       class="ColorScheme-Text"
       id="path32"
       inkscape:connector-curvature="0" />
    <path
       inkscape:connector-curvature="0"
       id="path4"
       class="ColorScheme-Text"
       d="m 316.20035,-296.62326 c -49.00304,-56.18977 -127.64976,-67.79686 -175.67859,-25.91097 -48.030297,41.88716 -56.750347,104.0981 -7.74729,160.28789 -40.836097,-46.82509 -17.49953,-108.43413 22.52701,-143.34057 40.02588,-34.90719 105.58518,-25.23553 146.42127,21.58954 18.45647,21.16327 28.25535,46.26195 30.25012,70.67561 a 96.425351,75.529864 48.908356 0 0 -18.86592,-29.42658 96.425351,75.529864 48.908356 0 0 -120.32225,-23.01001 l -0.14193,0.12378 a 96.425351,75.529864 48.908356 0 0 -4.35121,4.29446 c -44.50416,43.74934 -43.25533,120.6038 4.16958,174.98399 49.00302,56.189761 128.57887,66.986571 177.72249,24.128486 49.14507,-42.859356 58.36842,-105.509216 9.36537,-161.699006 40.83609,46.82506 16.83712,109.01182 -24.1167,144.726939 -40.95318,35.715879 -107.2601,26.696138 -148.09613,-20.128909 -21.19975,-24.30888 -31.26536,-54.01796 -30.41224,-81.9791 a 96.425351,75.529864 48.908356 0 0 22.32098,37.85831 96.425351,75.529864 48.908356 0 0 118.63354,24.28284 l 0.099,0.11355 c 0.27615,-0.24084 0.50014,-0.53095 0.77373,-0.77472 a 96.425351,75.529864 48.908356 0 0 0.78757,-0.5869 96.425351,75.529864 48.908356 0 0 5.42333,-5.52933 c 40.72691,-43.26075 37.69529,-117.4089 -8.76175,-170.6793 z"
       style="color:#4d4d4d;fill:#ffffff;fill-opacity:1;stroke:none;stroke-width:19.28507042" />
  </g>
</svg>
