<?xml version="1.0" encoding="UTF-8" standalone="no"?>
<svg
   xmlns:dc="http://purl.org/dc/elements/1.1/"
   xmlns:cc="http://creativecommons.org/ns#"
   xmlns:rdf="http://www.w3.org/1999/02/22-rdf-syntax-ns#"
   xmlns:svg="http://www.w3.org/2000/svg"
   xmlns="http://www.w3.org/2000/svg"
   xmlns:sodipodi="http://sodipodi.sourceforge.net/DTD/sodipodi-0.dtd"
   xmlns:inkscape="http://www.inkscape.org/namespaces/inkscape"
   viewBox="0 0 64 64"
   version="1.1"
   id="svg6"
   sodipodi:docname="layer-new.svg"
   width="64"
   height="64"
   inkscape:version="0.92.2 5c3e80d, 2017-08-06">
  <metadata
     id="metadata10">
    <rdf:RDF>
      <cc:Work
         rdf:about="">
        <dc:format>image/svg+xml</dc:format>
        <dc:type
           rdf:resource="http://purl.org/dc/dcmitype/StillImage" />
        <dc:title></dc:title>
      </cc:Work>
    </rdf:RDF>
  </metadata>
  <sodipodi:namedview
     pagecolor="#ffffff"
     bordercolor="#666666"
     borderopacity="1"
     objecttolerance="10"
     gridtolerance="10"
     guidetolerance="10"
     inkscape:pageopacity="0"
     inkscape:pageshadow="2"
     inkscape:window-width="1366"
     inkscape:window-height="717"
     id="namedview8"
     showgrid="false"
     inkscape:zoom="0.23046875"
     inkscape:cx="-678.25115"
     inkscape:cy="200.49153"
     inkscape:window-x="0"
     inkscape:window-y="24"
     inkscape:window-maximized="1"
     inkscape:current-layer="svg6" />
  <defs
     id="defs3051">
    <style
       type="text/css"
       id="current-color-scheme">
      .ColorScheme-Text {
        color:#4d4d4d;
      }
      </style>
  </defs>
  <g
     id="g868"
     transform="matrix(0.125,0,0,0.125,1.5690752e-8,56)">
    <path
       id="path850"
       d="m 432.91327,-391.52607 c 102.19288,88.57457 105.8268,249.69969 8.1168,359.898814 C 343.32007,78.571864 181.27958,96.100592 79.086698,7.526024 -23.106184,-81.048608 -26.740024,-242.17374 70.969898,-352.37279 168.6799,-462.57191 330.72031,-480.10071 432.91327,-391.52607 Z"
       inkscape:connector-curvature="0"
       style="fill:#3689e6;fill-opacity:1;stroke-width:11.10955906" />
    <path
       id="path852"
       d="m 511.63551,-223.09654 c -1.55136,61.31168 -25.1612,124.154652 -70.9664,175.814484 C 342.95911,62.917064 180.9187,80.445784 78.725738,-8.128776 30.827097,-49.644368 4.4967768,-107.07717 0.19381646,-167.77118 c 0.6056,66.35665 26.92360054,130.253364 78.88488154,175.290164 102.192882,88.57464 264.241052,71.03712 361.943292,-39.1532 49.70496,-56.058152 73.00504,-125.291044 70.61352,-191.462324 z"
       inkscape:connector-curvature="0"
       style="opacity:1;fill:#000000;fill-opacity:0.49019608;stroke-width:11.10955906" />
    <g
       style="fill:#000000;fill-opacity:0.49019608"
       transform="translate(20.000001)"
       id="g889">
      <path
         sodipodi:nodetypes="sssssssss"
         inkscape:connector-curvature="0"
         id="path885"
         d="m 190.41381,-328.69985 h 210.34688 c 5.65511,0 14.21199,6.21447 10.20777,10.20777 l -62.18404,62.01456 c -4.00422,3.9933 -9.96904,8.74951 -15.62414,8.74951 H 120.7649 c -5.6551,0 -14.19716,-6.19967 -10.20776,-10.20777 l 61.92933,-62.21963 c 3.9894,-4.0081 12.27224,-8.54444 17.92734,-8.54444 z"
         style="opacity:1;fill:#000000;fill-opacity:0.49019608;stroke:none;stroke-width:25.60621643;stroke-miterlimit:4;stroke-dasharray:none;stroke-dashoffset:0;stroke-opacity:1" />
      <path
         style="opacity:1;fill:#000000;fill-opacity:0.49019608;stroke:none;stroke-width:25.60621643;stroke-miterlimit:4;stroke-dasharray:none;stroke-dashoffset:0;stroke-opacity:1"
         d="m 180.88285,-221.97183 h 210.34688 c 5.6551,0 14.21199,6.21446 10.20777,10.20776 l -62.18404,62.01456 C 335.24924,-145.75621 329.28442,-141 323.62932,-141 H 111.23394 c -5.6551,0 -14.19716,-6.19966 -10.20777,-10.20776 l 61.92934,-62.21964 c 3.9894,-4.0081 12.27224,-8.54443 17.92734,-8.54443 z"
         id="path887"
         inkscape:connector-curvature="0"
         sodipodi:nodetypes="sssssssss" />
    </g>
    <g
       transform="translate(-1.0341741e-7,-20)"
       id="g883">
      <path
         style="opacity:1;fill:#ffffff;fill-opacity:1;stroke:none;stroke-width:25.60621643;stroke-miterlimit:4;stroke-dasharray:none;stroke-dashoffset:0;stroke-opacity:1"
         d="m 190.41381,-328.69985 h 210.34688 c 5.65511,0 14.21199,6.21447 10.20777,10.20777 l -62.18404,62.01456 c -4.00422,3.9933 -9.96904,8.74951 -15.62414,8.74951 H 120.7649 c -5.6551,0 -14.19716,-6.19967 -10.20776,-10.20777 l 61.92933,-62.21963 c 3.9894,-4.0081 12.27224,-8.54444 17.92734,-8.54444 z"
         id="path951"
         inkscape:connector-curvature="0"
         sodipodi:nodetypes="sssssssss" />
      <path
         sodipodi:nodetypes="sssssssss"
         inkscape:connector-curvature="0"
         id="path879"
         d="m 180.88285,-221.97183 h 210.34688 c 5.6551,0 14.21199,6.21446 10.20777,10.20776 l -62.18404,62.01456 C 335.24924,-145.75621 329.28442,-141 323.62932,-141 H 111.23394 c -5.6551,0 -14.19716,-6.19966 -10.20777,-10.20776 l 61.92934,-62.21964 c 3.9894,-4.0081 12.27224,-8.54443 17.92734,-8.54443 z"
         style="opacity:1;fill:#ffffff;fill-opacity:1;stroke:none;stroke-width:25.60621643;stroke-miterlimit:4;stroke-dasharray:none;stroke-dashoffset:0;stroke-opacity:1" />
    </g>
    <path
       style="fill:#000000;fill-opacity:0.49019608;stroke-width:0.21213906"
       d="m 333.78853,-16.128975 c -1.7987,-0.455833 -3.56465,-1.910163 -4.52995,-3.730489 l -0.56236,-1.060502 -0.0587,-17.863531 -0.0587,-17.863539 -17.87036,-0.05874 -17.87033,-0.05874 -1.06089,-0.562155 c -1.35084,-0.715567 -2.54084,-1.905118 -3.25688,-3.255429 l -0.56236,-1.060501 v -8.589983 -8.590001 l 0.58346,-1.10641 c 0.74104,-1.405195 1.78413,-2.447845 3.18982,-3.188605 l 1.10685,-0.58326 17.87033,-0.0587 17.87036,-0.0587 0.0587,-17.86354 0.0587,-17.86351 0.58346,-1.10645 c 0.74104,-1.40514 1.7841,-2.44784 3.18983,-3.18856 l 1.10682,-0.58326 h 8.59325 8.59331 l 1.10685,0.58326 c 1.47147,0.77539 2.54039,1.87915 3.2174,3.32223 l 0.55588,1.18487 0.0578,17.75747 0.0579,17.75749 17.8714,0.0587 17.87147,0.0587 1.10685,0.58326 c 1.47145,0.77539 2.54039,1.87916 3.2174,3.322245 l 0.55588,1.184874 v 8.377897 8.377886 l -0.55441,1.166551 c -0.66733,1.404195 -1.83003,2.601408 -3.26483,3.361662 l -1.06089,0.562159 -17.87147,0.05874 -17.8714,0.05874 -0.0579,17.757458 -0.0578,17.757462 -0.55437,1.166538 c -0.66734,1.404197 -1.83007,2.601407 -3.26484,3.361697 l -1.06092,0.562131 -8.16892,0.03695 c -4.49289,0.02169 -8.45537,-0.03539 -8.80544,-0.124243 z"
       id="path48"
       inkscape:connector-curvature="0" />
    <path
       inkscape:connector-curvature="0"
       id="path844"
       d="m 313.7882,-36.128975 c -1.7987,-0.455833 -3.56465,-1.910163 -4.52995,-3.730489 l -0.56236,-1.060502 -0.0587,-17.863531 -0.0587,-17.863539 -17.87036,-0.05874 -17.87033,-0.05874 -1.06089,-0.562155 c -1.35084,-0.715567 -2.54084,-1.905118 -3.25688,-3.255429 l -0.56236,-1.060501 v -8.589983 -8.590001 l 0.58346,-1.10641 c 0.74104,-1.405195 1.78413,-2.447845 3.18982,-3.188605 l 1.10685,-0.58326 17.87033,-0.0587 17.87036,-0.0587 0.0587,-17.86354 0.0587,-17.86351 0.58346,-1.10645 c 0.74104,-1.40514 1.7841,-2.44784 3.18983,-3.18856 l 1.10682,-0.58326 h 8.59325 8.59331 l 1.10685,0.58326 c 1.47147,0.77539 2.54039,1.87915 3.2174,3.32223 l 0.55588,1.18487 0.0578,17.75747 0.0579,17.75749 17.8714,0.0587 17.87147,0.0587 1.10685,0.58326 c 1.47145,0.77539 2.54039,1.87916 3.2174,3.322245 l 0.55588,1.184874 v 8.377897 8.377886 l -0.55441,1.166551 c -0.66733,1.404195 -1.83003,2.601408 -3.26483,3.361662 l -1.06089,0.562159 -17.87147,0.05874 -17.8714,0.05874 -0.0579,17.757458 -0.0578,17.757462 -0.55437,1.166538 c -0.66734,1.404197 -1.83007,2.601407 -3.26484,3.361697 l -1.06092,0.562131 -8.16892,0.03695 c -4.49289,0.02169 -8.45537,-0.03539 -8.80544,-0.124243 z"
       style="fill:#ffffff;stroke-width:0.21213906" />
  </g>
</svg>
