<?xml version="1.0" encoding="UTF-8" standalone="no"?>
<svg
   xmlns:dc="http://purl.org/dc/elements/1.1/"
   xmlns:cc="http://creativecommons.org/ns#"
   xmlns:rdf="http://www.w3.org/1999/02/22-rdf-syntax-ns#"
   xmlns:svg="http://www.w3.org/2000/svg"
   xmlns="http://www.w3.org/2000/svg"
   xmlns:sodipodi="http://sodipodi.sourceforge.net/DTD/sodipodi-0.dtd"
   xmlns:inkscape="http://www.inkscape.org/namespaces/inkscape"
   viewBox="0 0 64 64"
   version="1.1"
   id="svg8"
   sodipodi:docname="layer-bottom.svg"
   width="64"
   height="64"
   inkscape:version="0.92.2 5c3e80d, 2017-08-06">
  <metadata
     id="metadata12">
    <rdf:RDF>
      <cc:Work
         rdf:about="">
        <dc:format>image/svg+xml</dc:format>
        <dc:type
           rdf:resource="http://purl.org/dc/dcmitype/StillImage" />
        <dc:title />
      </cc:Work>
    </rdf:RDF>
  </metadata>
  <sodipodi:namedview
     pagecolor="#ffffff"
     bordercolor="#666666"
     borderopacity="1"
     objecttolerance="10"
     gridtolerance="10"
     guidetolerance="10"
     inkscape:pageopacity="0"
     inkscape:pageshadow="2"
     inkscape:window-width="1366"
     inkscape:window-height="717"
     id="namedview10"
     showgrid="false"
     inkscape:zoom="5.2149125"
     inkscape:cx="44.184881"
     inkscape:cy="38.835948"
     inkscape:window-x="0"
     inkscape:window-y="24"
     inkscape:window-maximized="1"
     inkscape:current-layer="svg8" />
  <defs
     id="defs3051">
    <style
       type="text/css"
       id="current-color-scheme">
      .ColorScheme-Text {
        color:#4d4d4d;
      }
      .ColorScheme-Highlight {
        color:#3daee9;
      }
      </style>
  </defs>
  <g
     id="g870"
     transform="matrix(0.125,0,0,0.125,1.5690752e-8,55.999999)">
    <path
       id="path850"
       d="m 432.91327,-391.52607 c 102.19288,88.57457 105.8268,249.69969 8.1168,359.898811 C 343.32007,78.571869 181.27958,96.100589 79.086698,7.526021 -23.106184,-81.048611 -26.740024,-242.17374 70.969898,-352.3728 168.6799,-462.57191 330.72031,-480.10071 432.91327,-391.52607 Z"
       inkscape:connector-curvature="0"
       style="fill:#3689e6;fill-opacity:1;stroke-width:11.10955906" />
    <path
       id="path852"
       d="m 511.63551,-223.09654 c -1.55136,61.31168 -25.1612,124.154649 -70.9664,175.814481 C 342.95911,62.917061 180.9187,80.445789 78.725738,-8.128779 30.827097,-49.644371 4.4967769,-107.07717 0.19381662,-167.77118 0.79941662,-101.41453 27.117417,-37.517819 79.078698,7.518981 181.27158,96.093621 343.31975,78.556109 441.02199,-31.634219 490.72695,-87.692371 514.02703,-156.92526 511.63551,-223.09654 Z"
       inkscape:connector-curvature="0"
       style="opacity:1;fill:#000000;fill-opacity:0.49019608;stroke-width:11.10955906" />
    <path
       id="rect964"
       d="m 202.09766,-326.67969 -4.12696,0.0192 c -8.54628,0.0384 -15.39548,6.94786 -15.35742,15.49414 l 0.66408,149.38086 29.31446,29.30469 c 2.26452,2.26378 3.76299,4.98799 4.53124,7.86328 0.82368,-1.90276 1.28524,-4.00183 1.2754,-6.21484 l -0.80469,-180.49024 c -0.0384,-8.54628 -6.94981,-15.39548 -15.49609,-15.35742 z"
       style="opacity:1;fill:#000000;fill-opacity:0.49019608;stroke:none;stroke-width:0.71914256;stroke-miterlimit:4;stroke-dasharray:none;stroke-dashoffset:0;stroke-opacity:1"
       inkscape:connector-curvature="0" />
    <path
       id="rect966"
       d="m 262.49023,-199.90625 c -4.47094,7.3e-4 -8.93993,1.71419 -12.36523,5.14062 l -31.86914,31.87891 0.14256,32.05468 c 0.0384,8.54629 -6.81308,15.45804 -15.35937,15.49609 l -4.12695,0.0176 c -7.14355,0.032 -13.12804,-4.7553 -14.92773,-11.31641 -2.54223,6.3048 -1.25156,13.76968 3.875,18.89455 6.85286,6.85058 17.88573,6.84896 24.73632,-0.004 l 62.26759,-62.28907 c 6.8506,-6.85288 6.84897,-17.88572 -0.004,-24.73632 -3.42644,-3.42531 -7.8982,-5.13747 -12.36915,-5.13672 z"
       style="opacity:1;fill:#000000;fill-opacity:0.49019608;stroke:none;stroke-width:0.71914256;stroke-miterlimit:4;stroke-dasharray:none;stroke-dashoffset:0;stroke-opacity:1"
       inkscape:connector-curvature="0" />
    <path
       id="rect968"
       d="m 137.50391,-200.31445 c -4.47095,7.3e-4 -8.94189,1.71419 -12.36719,5.14061 -6.8506,6.85288 -6.84897,17.88574 0.004,24.73634 l 62.71876,62.69726 c -5.12657,-5.12485 -6.41722,-12.58973 -3.875,-18.89453 1.7997,6.56109 7.78419,11.34823 14.92773,11.31641 l 4.12695,-0.0176 c 6.3324,-0.028 11.72579,-3.83488 14.08399,-9.27929 -0.76808,-2.87599 -2.26624,-5.60099 -4.53125,-7.86524 l -62.71875,-62.69727 c -3.42644,-3.42529 -7.8982,-5.13746 -12.36914,-5.13672 z m 56.14843,96.42773 c 1.05249,0.42808 2.13684,0.74896 3.23828,0.96288 -1.10148,-0.21392 -2.18575,-0.5348 -3.23828,-0.96288 z"
       style="opacity:1;fill:#000000;fill-opacity:0.49019608;stroke:none;stroke-width:0.71914256;stroke-miterlimit:4;stroke-dasharray:none;stroke-dashoffset:0;stroke-opacity:1"
       inkscape:connector-curvature="0" />
    <path
       style="opacity:1;fill:#000000;fill-opacity:0.49019608;stroke:none;stroke-width:25;stroke-miterlimit:4;stroke-dasharray:none;stroke-dashoffset:0;stroke-opacity:1"
       d="m 347.28817,-328.08856 h 75.36701 c 5.52122,0 13.87552,6.06735 9.9661,9.96611 l -60.71186,60.54639 c -3.90942,3.89876 -9.73302,8.54237 -15.25424,8.54237 h -77.36701 c -5.52122,0 -13.86105,-6.05289 -9.9661,-9.96611 l 60.46318,-60.7466 c 3.89496,-3.91321 11.9817,-8.34216 17.50292,-8.34216 z"
       id="path970"
       inkscape:connector-curvature="0"
       sodipodi:nodetypes="sssssssss" />
    <path
       sodipodi:nodetypes="sssssssss"
       inkscape:connector-curvature="0"
       id="path972"
       d="m 346.20343,-214.59704 h 75.36701 c 5.52122,0 13.87552,6.06735 9.9661,9.96611 l -60.71186,60.54639 c -3.90942,3.89876 -9.73302,8.54237 -15.25424,8.54237 h -77.36701 c -5.52122,0 -13.86105,-6.05289 -9.9661,-9.96611 l 60.46318,-60.7466 c 3.89496,-3.91321 11.9817,-8.34216 17.50292,-8.34216 z"
       style="opacity:1;fill:#000000;fill-opacity:0.49019608;stroke:none;stroke-width:25;stroke-miterlimit:4;stroke-dasharray:none;stroke-dashoffset:0;stroke-opacity:1" />
    <rect
       transform="matrix(-0.00445361,-0.99999008,-0.99999008,0.00445361,0,0)"
       rx="0"
       ry="15.426665"
       y="-199.06726"
       x="134.5197"
       height="34.981289"
       width="211.34508"
       id="rect865"
       style="opacity:1;fill:#ffffff;fill-opacity:1;stroke:none;stroke-width:0.71914256;stroke-miterlimit:4;stroke-dasharray:none;stroke-dashoffset:0;stroke-opacity:1" />
    <rect
       transform="matrix(0.70698937,-0.70722417,-0.70722417,-0.70698937,0,0)"
       rx="0"
       ry="17.490644"
       y="-45.894131"
       x="209.01587"
       height="34.981289"
       width="123.05687"
       id="rect867"
       style="opacity:1;fill:#ffffff;fill-opacity:1;stroke:none;stroke-width:0.71914256;stroke-miterlimit:4;stroke-dasharray:none;stroke-dashoffset:0;stroke-opacity:1" />
    <rect
       style="opacity:1;fill:#ffffff;fill-opacity:1;stroke:none;stroke-width:0.71914256;stroke-miterlimit:4;stroke-dasharray:none;stroke-dashoffset:0;stroke-opacity:1"
       id="rect869"
       width="123.66432"
       height="34.981289"
       x="-45.894131"
       y="-243.99716"
       ry="17.490644"
       rx="0"
       transform="matrix(-0.70722417,-0.70698937,-0.70698937,0.70722417,0,0)" />
    <path
       sodipodi:nodetypes="sssssssss"
       inkscape:connector-curvature="0"
       id="rect946"
       d="m 327.28817,-348.08856 h 75.36701 c 5.52122,0 13.87552,6.06734 9.9661,9.9661 l -60.71186,60.54639 c -3.90942,3.89876 -9.73302,8.54237 -15.25424,8.54237 h -77.36701 c -5.52122,0 -13.86105,-6.05289 -9.9661,-9.9661 l 60.46318,-60.7466 c 3.89496,-3.91321 11.9817,-8.34216 17.50292,-8.34216 z"
       style="opacity:1;fill:#ffffff;fill-opacity:1;stroke:none;stroke-width:25;stroke-miterlimit:4;stroke-dasharray:none;stroke-dashoffset:0;stroke-opacity:1" />
    <path
       style="opacity:1;fill:#ffffff;fill-opacity:1;stroke:none;stroke-width:25;stroke-miterlimit:4;stroke-dasharray:none;stroke-dashoffset:0;stroke-opacity:1"
       d="m 326.20343,-234.59704 h 75.36701 c 5.52122,0 13.87552,6.06734 9.9661,9.9661 l -60.71186,60.54639 c -3.90942,3.89876 -9.73302,8.54237 -15.25424,8.54237 h -77.36701 c -5.52122,0 -13.86105,-6.05289 -9.9661,-9.9661 l 60.46318,-60.7466 c 3.89496,-3.91322 11.9817,-8.34216 17.50292,-8.34216 z"
       id="path949"
       inkscape:connector-curvature="0"
       sodipodi:nodetypes="sssssssss" />
    <path
       style="opacity:1;fill:#000000;fill-opacity:0.49019608;stroke:none;stroke-width:25;stroke-miterlimit:4;stroke-dasharray:none;stroke-dashoffset:0;stroke-opacity:1"
       d="m 285.3121,-95.062495 c -5.52123,0 -13.60504,4.43053 -17.5,8.34374 l -60.45312,60.750003 C 203.46402,-22.055544 211.79088,-16 217.3121,-16 h 137.375 c 5.52121,0 11.34057,-4.648112 15.25,-8.546872 l 60.71875,-60.546883 c 3.90942,-3.89876 -4.44754,-9.96874 -9.96875,-9.96874 z m 41.34375,8.45312 a 28.904378,35.960215 54.628725 0 1 22.59375,11.515623 28.904378,35.960215 54.628725 0 1 -14.29687,44.265624 28.904378,35.960215 54.628725 0 1 -45.56251,-4.421872 28.904378,35.960215 54.628725 0 1 14.31251,-44.25 28.904378,35.960215 54.628725 0 1 22.95312,-7.109375 z"
       id="path49"
       inkscape:connector-curvature="0" />
    <path
       inkscape:connector-curvature="0"
       id="path951"
       d="m 265.3125,-115.06249 c -5.52123,0 -13.60504,4.43053 -17.5,8.34374 l -60.45312,60.750003 c -3.89496,3.913208 4.4319,9.968752 9.95312,9.968752 h 137.375 c 5.52121,0 11.34057,-4.648112 15.25,-8.546872 l 60.71875,-60.546883 c 3.90942,-3.89876 -4.44754,-9.96874 -9.96875,-9.96874 z m 41.34375,8.45312 a 28.904378,35.960215 54.628725 0 1 22.59375,11.515623 28.904378,35.960215 54.628725 0 1 -14.29687,44.265624 28.904378,35.960215 54.628725 0 1 -45.56251,-4.421872 28.904378,35.960215 54.628725 0 1 14.31251,-44.25 28.904378,35.960215 54.628725 0 1 22.95312,-7.109375 z"
       style="opacity:1;fill:#ffffff;fill-opacity:1;stroke:none;stroke-width:25;stroke-miterlimit:4;stroke-dasharray:none;stroke-dashoffset:0;stroke-opacity:1" />
  </g>
</svg>
