<?xml version="1.0" encoding="UTF-8" standalone="no"?>
<svg
   xmlns:dc="http://purl.org/dc/elements/1.1/"
   xmlns:cc="http://creativecommons.org/ns#"
   xmlns:rdf="http://www.w3.org/1999/02/22-rdf-syntax-ns#"
   xmlns:svg="http://www.w3.org/2000/svg"
   xmlns="http://www.w3.org/2000/svg"
   xmlns:sodipodi="http://sodipodi.sourceforge.net/DTD/sodipodi-0.dtd"
   xmlns:inkscape="http://www.inkscape.org/namespaces/inkscape"
   viewBox="0 0 64 64"
   version="1.1"
   id="svg6"
   sodipodi:docname="layer-visible-on.svg"
   width="64"
   height="64"
   inkscape:version="0.92.2 5c3e80d, 2017-08-06">
  <metadata
     id="metadata10">
    <rdf:RDF>
      <cc:Work
         rdf:about="">
        <dc:format>image/svg+xml</dc:format>
        <dc:type
           rdf:resource="http://purl.org/dc/dcmitype/StillImage" />
        <dc:title></dc:title>
      </cc:Work>
    </rdf:RDF>
  </metadata>
  <sodipodi:namedview
     pagecolor="#ffffff"
     bordercolor="#666666"
     borderopacity="1"
     objecttolerance="10"
     gridtolerance="10"
     guidetolerance="10"
     inkscape:pageopacity="0"
     inkscape:pageshadow="2"
     inkscape:window-width="1366"
     inkscape:window-height="717"
     id="namedview8"
     showgrid="false"
     inkscape:zoom="3.4766083"
     inkscape:cx="13.037391"
     inkscape:cy="17.30011"
     inkscape:window-x="0"
     inkscape:window-y="24"
     inkscape:window-maximized="1"
     inkscape:current-layer="svg6" />
  <defs
     id="defs3051">
    <style
       type="text/css"
       id="current-color-scheme">
      .ColorScheme-Text {
        color:#4d4d4d;
      }
      </style>
  </defs>
  <g
     id="g867"
     transform="matrix(0.125,0,0,0.125,3.0770575e-6,60.999997)">
    <path
       id="path850"
       d="m 432.91328,-431.52607 c 102.19288,88.57457 105.8268,249.69969 8.1168,359.89881 -97.71,110.19912 -259.75049,127.72785 -361.94338,39.15328 -102.19288,-88.57463 -105.82672,-249.69976 -8.1168,-359.89881 97.71001,-110.19912 259.75042,-127.72792 361.94338,-39.15328 z"
       inkscape:connector-curvature="0"
       style="fill:#3689e6;fill-opacity:1;stroke-width:11.10955906" />
    <path
       id="path852"
       d="m 511.63552,-263.09654 c -1.55136,61.31168 -25.1612,124.15465 -70.9664,175.81448 C 342.95912,22.91706 180.91871,40.44578 78.72574,-48.12878 30.8271,-89.64437 4.49678,-147.07717 0.19382,-207.77118 c 0.6056,66.35665 26.9236,130.25336 78.88488,175.29016 102.19289,88.57464 264.24106,71.03712 361.9433,-39.1532 49.70496,-56.05815 73.00504,-125.29104 70.61352,-191.46232 z"
       inkscape:connector-curvature="0"
       style="opacity:1;fill:#000000;fill-opacity:0.49019608;stroke-width:11.10955906" />
    <g
       style="fill:#000000;fill-opacity:0.49019608"
       transform="translate(19.999992,20)"
       id="g855">
      <path
         sodipodi:nodetypes="sssssssss"
         inkscape:connector-curvature="0"
         id="path848"
         d="M 190.41382,-381.69985 H 400.7607 c 5.65511,0 14.21199,6.21447 10.20777,10.20777 l -62.18404,62.01456 c -4.00422,3.9933 -9.96904,8.74951 -15.62414,8.74951 H 120.76491 c -5.6551,0 -14.19716,-6.19967 -10.20776,-10.20777 l 61.92933,-62.21963 c 3.9894,-4.0081 12.27224,-8.54444 17.92734,-8.54444 z"
         style="opacity:1;fill:#000000;fill-opacity:0.49019608;stroke:none;stroke-width:25.60621643;stroke-miterlimit:4;stroke-dasharray:none;stroke-dashoffset:0;stroke-opacity:1" />
      <path
         style="opacity:1;fill:#000000;fill-opacity:0.49019608;stroke:none;stroke-width:25.60621643;stroke-miterlimit:4;stroke-dasharray:none;stroke-dashoffset:0;stroke-opacity:1"
         d="m 180.88286,-274.97183 h 210.34688 c 5.6551,0 14.21199,6.21446 10.20777,10.20776 l -62.18404,62.01456 C 335.24925,-198.75621 329.28443,-194 323.62933,-194 H 111.23395 c -5.6551,0 -14.19716,-6.19966 -10.20777,-10.20776 l 61.92934,-62.21964 c 3.9894,-4.0081 12.27224,-8.54443 17.92734,-8.54443 z"
         id="path851"
         inkscape:connector-curvature="0"
         sodipodi:nodetypes="sssssssss" />
      <path
         sodipodi:nodetypes="sssssssss"
         inkscape:connector-curvature="0"
         id="path853"
         d="m 180.88286,-162.97183 h 210.34688 c 5.6551,0 14.21199,6.21446 10.20777,10.20776 l -62.18404,62.01456 C 335.24925,-86.75621 329.28443,-82 323.62933,-82 H 111.23395 c -5.6551,0 -14.19716,-6.19966 -10.20777,-10.20776 l 61.92934,-62.21964 c 3.9894,-4.0081 12.27224,-8.54443 17.92734,-8.54443 z"
         style="opacity:1;fill:#000000;fill-opacity:0.49019608;stroke:none;stroke-width:25.60621643;stroke-miterlimit:4;stroke-dasharray:none;stroke-dashoffset:0;stroke-opacity:1" />
    </g>
    <g
       id="g846">
      <path
         style="opacity:1;fill:#ffffff;fill-opacity:1;stroke:none;stroke-width:25.60621643;stroke-miterlimit:4;stroke-dasharray:none;stroke-dashoffset:0;stroke-opacity:1"
         d="M 190.41382,-381.69985 H 400.7607 c 5.65511,0 14.21199,6.21447 10.20777,10.20777 l -62.18404,62.01456 c -4.00422,3.9933 -9.96904,8.74951 -15.62414,8.74951 H 120.76491 c -5.6551,0 -14.19716,-6.19967 -10.20776,-10.20777 l 61.92933,-62.21963 c 3.9894,-4.0081 12.27224,-8.54444 17.92734,-8.54444 z"
         id="path951"
         inkscape:connector-curvature="0"
         sodipodi:nodetypes="sssssssss" />
      <path
         sodipodi:nodetypes="sssssssss"
         inkscape:connector-curvature="0"
         id="path879"
         d="m 180.88286,-274.97183 h 210.34688 c 5.6551,0 14.21199,6.21446 10.20777,10.20776 l -62.18404,62.01456 C 335.24925,-198.75621 329.28443,-194 323.62933,-194 H 111.23395 c -5.6551,0 -14.19716,-6.19966 -10.20777,-10.20776 l 61.92934,-62.21964 c 3.9894,-4.0081 12.27224,-8.54443 17.92734,-8.54443 z"
         style="opacity:1;fill:#ffffff;fill-opacity:1;stroke:none;stroke-width:25.60621643;stroke-miterlimit:4;stroke-dasharray:none;stroke-dashoffset:0;stroke-opacity:1" />
      <path
         style="opacity:1;fill:#ffffff;fill-opacity:1;stroke:none;stroke-width:25.60621643;stroke-miterlimit:4;stroke-dasharray:none;stroke-dashoffset:0;stroke-opacity:1"
         d="m 180.88286,-162.97183 h 210.34688 c 5.6551,0 14.21199,6.21446 10.20777,10.20776 l -62.18404,62.01456 C 335.24925,-86.75621 329.28443,-82 323.62933,-82 H 111.23395 c -5.6551,0 -14.19716,-6.19966 -10.20777,-10.20776 l 61.92934,-62.21964 c 3.9894,-4.0081 12.27224,-8.54443 17.92734,-8.54443 z"
         id="path849"
         inkscape:connector-curvature="0"
         sodipodi:nodetypes="sssssssss" />
    </g>
  </g>
</svg>
