<?xml version="1.0" encoding="UTF-8" standalone="no"?>
<svg
   xmlns:dc="http://purl.org/dc/elements/1.1/"
   xmlns:cc="http://creativecommons.org/ns#"
   xmlns:rdf="http://www.w3.org/1999/02/22-rdf-syntax-ns#"
   xmlns:svg="http://www.w3.org/2000/svg"
   xmlns="http://www.w3.org/2000/svg"
   xmlns:sodipodi="http://sodipodi.sourceforge.net/DTD/sodipodi-0.dtd"
   xmlns:inkscape="http://www.inkscape.org/namespaces/inkscape"
   viewBox="0 0 64 64"
   version="1.1"
   id="svg6"
   sodipodi:docname="bqm-add.svg"
   width="64"
   height="64"
   inkscape:version="0.92.2 5c3e80d, 2017-08-06">
  <metadata
     id="metadata10">
    <rdf:RDF>
      <cc:Work
         rdf:about="">
        <dc:format>image/svg+xml</dc:format>
        <dc:type
           rdf:resource="http://purl.org/dc/dcmitype/StillImage" />
        <dc:title></dc:title>
      </cc:Work>
    </rdf:RDF>
  </metadata>
  <sodipodi:namedview
     pagecolor="#ffffff"
     bordercolor="#666666"
     borderopacity="1"
     objecttolerance="10"
     gridtolerance="10"
     guidetolerance="10"
     inkscape:pageopacity="0"
     inkscape:pageshadow="2"
     inkscape:window-width="1366"
     inkscape:window-height="717"
     id="namedview8"
     showgrid="false"
     inkscape:zoom="2.4583333"
     inkscape:cx="88.069468"
     inkscape:cy="32.363151"
     inkscape:window-x="0"
     inkscape:window-y="24"
     inkscape:window-maximized="1"
     inkscape:current-layer="svg6" />
  <defs
     id="defs3051">
    <style
       type="text/css"
       id="current-color-scheme">
      .ColorScheme-Text {
        color:#4d4d4d;
      }
      </style>
  </defs>
  <g
     id="g847"
     transform="matrix(0.125,0,0,0.125,-1.4591767e-5,55.999967)">
    <path
       id="path1148"
       d="m 432.91318,-391.52607 c 102.1931,88.57459 105.82677,249.69971 8.11688,359.898792 C 343.3202,78.571803 181.27975,96.100572 79.086619,7.525982 -23.106138,-81.048608 -26.740153,-242.17372 70.970084,-352.37281 168.67994,-462.57189 330.72039,-480.10066 432.91318,-391.52607 Z"
       inkscape:connector-curvature="0"
       style="fill:#3689e6;fill-opacity:1;stroke-width:11.10955811" />
    <path
       id="path1150"
       d="m 511.63545,-223.09652 c -1.55116,61.31165 -25.16107,124.154608 -70.9663,175.814476 C 342.95929,62.917076 180.91881,80.445806 78.725674,-8.1287457 30.826965,-49.6444 4.4968862,-107.07719 0.19389407,-167.77123 0.79899644,-101.41455 27.117359,-37.517861 79.078682,7.5190277 181.27144,96.09358 343.31982,78.556156 441.02216,-31.63427 c 49.70494,-56.058105 73.00497,-125.29096 70.61329,-191.46225 z"
       inkscape:connector-curvature="0"
       style="opacity:1;fill:#000000;fill-opacity:0.49019608;stroke-width:11.10955811" />
    <path
       style="fill:#000000;fill-opacity:0.49019608;stroke-width:0.61045045"
       d="m 251.88208,-16.370994 c -5.17588,-1.3117 -10.25757,-5.49668 -13.03533,-10.73484 l -1.6183,-3.05169 -0.16906,-51.404026 -0.16907,-51.40405 -51.42361,-0.16907 -51.4236,-0.16907 -3.05284,-1.61766 c -3.88717,-2.05911 -7.31153,-5.48216 -9.37198,-9.36781 L 120,-147.3409 v -24.71849 -24.71857 l 1.67899,-3.18383 c 2.1324,-4.04355 5.134,-7.04388 9.17905,-9.17549 l 3.18507,-1.67838 51.4236,-0.16907 51.42361,-0.16907 0.16907,-51.40405 0.16906,-51.40396 1.67899,-3.1839 c 2.13241,-4.04345 5.13392,-7.0439 9.17905,-9.17542 l 3.18498,-1.67838 h 24.72793 24.72805 l 3.18507,1.67838 c 4.23428,2.23127 7.3102,5.40747 9.25834,9.56006 l 1.59961,3.40959 0.16649,51.0988 0.16649,51.09888 51.4267,0.16907 51.42681,0.16907 3.18507,1.67838 c 4.23427,2.23127 7.31027,5.40746 9.25839,9.56006 L 432,-196.16763 v 24.10824 24.10816 l -1.5953,3.35686 c -1.92032,4.04071 -5.26614,7.4858 -9.39492,9.67351 l -3.05282,1.61766 -51.42681,0.16907 -51.4267,0.16907 -0.16649,51.09879 -0.16649,51.098796 -1.59528,3.35683 c -1.92034,4.04071 -5.26612,7.4858 -9.3949,9.6736 l -3.05284,1.61759 -23.50687,0.10632 c -12.92877,0.062 -24.3311,-0.10187 -25.33852,-0.35755 z"
       id="path841"
       inkscape:connector-curvature="0" />
    <path
       inkscape:connector-curvature="0"
       id="path844"
       d="m 231.88208,-36.370994 c -5.17588,-1.3117 -10.25757,-5.49668 -13.03533,-10.73484 l -1.6183,-3.05169 -0.16906,-51.404026 -0.16907,-51.40405 -51.42361,-0.16907 -51.4236,-0.16907 -3.05284,-1.61766 c -3.88717,-2.05911 -7.31153,-5.48216 -9.37198,-9.36781 L 100,-167.3409 v -24.71849 -24.71857 l 1.67899,-3.18383 c 2.1324,-4.04355 5.134,-7.04388 9.17905,-9.17549 l 3.18507,-1.67838 51.4236,-0.16907 51.42361,-0.16907 0.16907,-51.40405 0.16906,-51.40396 1.67899,-3.1839 c 2.13241,-4.04345 5.13392,-7.0439 9.17905,-9.17542 l 3.18498,-1.67838 h 24.72793 24.72805 l 3.18507,1.67838 c 4.23428,2.23127 7.3102,5.40747 9.25834,9.56006 l 1.59961,3.40959 0.16649,51.0988 0.16649,51.09888 51.4267,0.16907 51.42681,0.16907 3.18507,1.67838 c 4.23427,2.23127 7.31027,5.40746 9.25839,9.56006 L 412,-216.16763 v 24.10824 24.10816 l -1.5953,3.35686 c -1.92032,4.04071 -5.26614,7.4858 -9.39492,9.67351 l -3.05282,1.61766 -51.42681,0.16907 -51.4267,0.16907 -0.16649,51.09879 -0.16649,51.098796 -1.59528,3.35683 c -1.92034,4.04071 -5.26612,7.4858 -9.3949,9.6736 l -3.05284,1.61759 -23.50687,0.10632 c -12.92877,0.062 -24.3311,-0.10187 -25.33852,-0.35755 z"
       style="fill:#ffffff;stroke-width:0.61045045" />
  </g>
</svg>
