<?xml version="1.0" encoding="UTF-8" standalone="no"?>
<svg
   xmlns:dc="http://purl.org/dc/elements/1.1/"
   xmlns:cc="http://creativecommons.org/ns#"
   xmlns:rdf="http://www.w3.org/1999/02/22-rdf-syntax-ns#"
   xmlns:svg="http://www.w3.org/2000/svg"
   xmlns="http://www.w3.org/2000/svg"
   xmlns:sodipodi="http://sodipodi.sourceforge.net/DTD/sodipodi-0.dtd"
   xmlns:inkscape="http://www.inkscape.org/namespaces/inkscape"
   viewBox="0 0 64 64"
   version="1.1"
   id="svg6"
   sodipodi:docname="list-add-font.svg"
   width="64"
   height="64"
   inkscape:version="0.92.2 5c3e80d, 2017-08-06">
  <metadata
     id="metadata10">
    <rdf:RDF>
      <cc:Work
         rdf:about="">
        <dc:format>image/svg+xml</dc:format>
        <dc:type
           rdf:resource="http://purl.org/dc/dcmitype/StillImage" />
        <dc:title />
      </cc:Work>
    </rdf:RDF>
  </metadata>
  <sodipodi:namedview
     pagecolor="#ffffff"
     bordercolor="#666666"
     borderopacity="1"
     objecttolerance="10"
     gridtolerance="10"
     guidetolerance="10"
     inkscape:pageopacity="0"
     inkscape:pageshadow="2"
     inkscape:window-width="1366"
     inkscape:window-height="717"
     id="namedview8"
     showgrid="false"
     inkscape:zoom="1.7383042"
     inkscape:cx="184.83581"
     inkscape:cy="-41.321663"
     inkscape:window-x="0"
     inkscape:window-y="24"
     inkscape:window-maximized="1"
     inkscape:current-layer="svg6" />
  <defs
     id="defs3051">
    <style
       type="text/css"
       id="current-color-scheme">
      .ColorScheme-Text {
        color:#4d4d4d;
      }
      </style>
  </defs>
  <g
     id="g865">
    <path
       id="path1148"
       d="M 54.11415,7.0592463 C 66.888287,18.13107 67.342496,38.27171 55.12876,52.046595 42.915027,65.82148 22.659971,68.012576 9.8858295,56.940753 -2.8882652,45.868929 -3.342517,25.72829 8.8712626,11.953404 21.084995,-1.8214812 41.340051,-4.0125775 54.11415,7.0592463 Z"
       inkscape:connector-curvature="0"
       style="fill:#3689e6;fill-opacity:1;stroke-width:1.38869476" />
    <path
       id="path1150"
       d="M 63.954434,28.11294 C 63.760539,35.776896 60.8093,43.632266 55.083646,50.089749 42.869914,63.864639 22.614854,66.05573 9.8407113,54.983911 3.8533727,49.794455 0.56211282,42.615356 0.02423881,35.028601 0.0998766,43.323186 3.389672,51.310272 9.8848373,56.939883 22.658932,68.011702 42.91498,65.819524 55.127772,52.045721 61.34089,45.038457 64.253394,36.384351 63.954434,28.11294 Z"
       inkscape:connector-curvature="0"
       style="opacity:1;fill:#000000;fill-opacity:0.49019608;stroke-width:1.38869476" />
    <path
       style="fill:#000000;fill-opacity:0.49019608;stroke-width:0.03273106"
       d="m 42.02191,53.980108 c -0.277521,-0.07033 -0.54999,-0.29472 -0.698927,-0.575579 l -0.08677,-0.163625 -0.0091,-2.756175 -0.0091,-2.756177 -2.757223,-0.0091 -2.757225,-0.0091 -0.163688,-0.08674 c -0.20836,-0.11035 -0.391967,-0.293886 -0.502443,-0.502227 L 34.950664,46.95776 V 45.632407 44.30705 l 0.09002,-0.170711 c 0.114335,-0.216805 0.275275,-0.377678 0.492161,-0.49197 l 0.170778,-0.08999 2.757225,-0.0091 2.757223,-0.0091 0.0091,-2.756177 0.0091,-2.756171 0.09002,-0.170714 c 0.114335,-0.216801 0.275269,-0.37768 0.49216,-0.491967 l 0.170772,-0.08999 h 1.32586 1.325865 l 0.170777,0.08999 c 0.227033,0.119636 0.391957,0.289937 0.496412,0.51259 l 0.08577,0.182815 0.0089,2.73981 0.0089,2.739814 2.75739,0.0091 2.757397,0.0091 0.170776,0.08999 c 0.227033,0.119636 0.391962,0.289936 0.496415,0.51259 l 0.08577,0.182815 v 1.292633 1.292628 l -0.08554,0.179988 c -0.102962,0.216653 -0.282359,0.401372 -0.503735,0.518673 l -0.163685,0.08673 -2.757397,0.0091 -2.75739,0.0091 -0.0089,2.739809 -0.0089,2.739809 -0.08554,0.179986 c -0.102965,0.216655 -0.282359,0.401373 -0.503734,0.518678 l -0.163688,0.08673 -1.260388,0.0057 c -0.693213,0.0033 -1.304583,-0.0055 -1.358599,-0.01917 z"
       id="path862"
       inkscape:connector-curvature="0" />
    <g
       id="flowRoot870"
       style="font-style:normal;font-weight:normal;font-size:40px;line-height:1.25;font-family:sans-serif;letter-spacing:0px;word-spacing:0px;fill:#000000;fill-opacity:0.49019608;stroke:none"
       transform="matrix(1.1892793,0,0,1.1892793,-157.61878,504.66137)"
       aria-label="F">
      <path
         id="path854"
         style="font-style:normal;font-variant:normal;font-weight:normal;font-stretch:normal;font-family:'Comic Sans MS';-inkscape-font-specification:'Comic Sans MS';fill:#000000;fill-opacity:0.49019608"
         d="m 164.78711,-406.67089 q -0.35156,0 -0.74219,-0.15625 -2.42187,-0.89844 -6.40625,-0.89844 -1.28906,0 -3.02734,0.19531 -1.71875,0.17578 -3.86719,0.56641 l -0.0391,8.4375 q 3.76953,-0.99609 5.66406,-0.99609 3.00781,0 6.23047,0.35156 1.83594,0.19531 1.83594,1.99219 0,0.8789 -0.56641,1.46484 -0.56641,0.56641 -1.40625,0.56641 -1.01562,0 -3.04687,-0.17579 -2.03125,-0.17578 -3.04688,-0.17578 -1.32812,0 -5.74219,1.13282 l -0.17578,13.4375 q 0,0.83984 -0.54687,1.40625 -0.54688,0.58593 -1.38672,0.58593 -0.83985,0 -1.40625,-0.58593 -0.54688,-0.56641 -0.54688,-1.40625 0,-3.84766 0.13672,-11.54297 0.15625,-7.71485 0.15625,-11.5625 0,-0.85938 -0.0391,-2.57813 -0.0195,-1.73828 -0.0195,-2.59765 0,-0.85938 0.52734,-1.44532 0.54688,-0.58593 1.40625,-0.58593 0.64453,0 1.15235,0.35156 2.42187,-0.42969 4.35546,-0.625 1.9336,-0.21485 3.39844,-0.21485 2.2461,0 5.13672,0.64454 3.92578,0.89843 3.92578,2.34375 0,0.78125 -0.50781,1.38671 -0.56641,0.6836 -1.40625,0.6836 z" />
    </g>
    <path
       inkscape:connector-curvature="0"
       id="path844"
       d="m 39.52191,51.480113 c -0.277521,-0.07033 -0.54999,-0.29472 -0.698927,-0.575579 l -0.08677,-0.163625 -0.0091,-2.756175 -0.0091,-2.756177 -2.757223,-0.0091 -2.757225,-0.0091 -0.163688,-0.08674 c -0.20836,-0.11035 -0.391967,-0.293886 -0.502443,-0.502227 l -0.08677,-0.163625 v -1.325353 -1.325357 l 0.09002,-0.170711 c 0.114335,-0.216805 0.275275,-0.377678 0.492161,-0.49197 l 0.170778,-0.08999 2.757225,-0.0091 2.757223,-0.0091 0.0091,-2.756177 0.0091,-2.756171 0.09002,-0.170714 c 0.114335,-0.216801 0.275269,-0.37768 0.49216,-0.491967 l 0.170772,-0.08999 h 1.32586 1.325865 l 0.170777,0.08999 c 0.227033,0.119636 0.391957,0.289937 0.496412,0.51259 l 0.08577,0.182815 0.0089,2.73981 0.0089,2.739814 2.75739,0.0091 2.757397,0.0091 0.170776,0.08999 c 0.227033,0.119636 0.391962,0.289936 0.496415,0.51259 l 0.08577,0.182815 v 1.292633 1.292628 l -0.08554,0.179988 c -0.102962,0.216653 -0.282359,0.401372 -0.503735,0.518673 l -0.163685,0.08674 -2.757397,0.0091 -2.75739,0.0091 -0.0089,2.739809 -0.0089,2.739809 -0.08554,0.179986 c -0.102965,0.216655 -0.282359,0.401373 -0.503734,0.518678 l -0.163688,0.08673 -1.260388,0.0057 c -0.693213,0.0033 -1.304583,-0.0055 -1.358599,-0.01917 z"
       style="fill:#ffffff;stroke-width:0.03273106" />
    <g
       id="flowRoot835"
       style="font-style:normal;font-weight:normal;font-size:40px;line-height:1.25;font-family:sans-serif;letter-spacing:0px;word-spacing:0px;fill:#ffffff;fill-opacity:1;stroke:none"
       transform="matrix(1.1892793,0,0,1.1892793,-160.11878,502.16138)"
       aria-label="F">
      <path
         id="path851"
         style="font-style:normal;font-variant:normal;font-weight:normal;font-stretch:normal;font-family:'Comic Sans MS';-inkscape-font-specification:'Comic Sans MS';fill:#ffffff"
         d="m 164.78711,-406.67089 q -0.35156,0 -0.74219,-0.15625 -2.42187,-0.89844 -6.40625,-0.89844 -1.28906,0 -3.02734,0.19531 -1.71875,0.17578 -3.86719,0.56641 l -0.0391,8.4375 q 3.76953,-0.99609 5.66406,-0.99609 3.00781,0 6.23047,0.35156 1.83594,0.19531 1.83594,1.99219 0,0.8789 -0.56641,1.46484 -0.56641,0.56641 -1.40625,0.56641 -1.01562,0 -3.04687,-0.17579 -2.03125,-0.17578 -3.04688,-0.17578 -1.32812,0 -5.74219,1.13282 l -0.17578,13.4375 q 0,0.83984 -0.54687,1.40625 -0.54688,0.58593 -1.38672,0.58593 -0.83985,0 -1.40625,-0.58593 -0.54688,-0.56641 -0.54688,-1.40625 0,-3.84766 0.13672,-11.54297 0.15625,-7.71485 0.15625,-11.5625 0,-0.85938 -0.0391,-2.57813 -0.0195,-1.73828 -0.0195,-2.59765 0,-0.85938 0.52734,-1.44532 0.54688,-0.58593 1.40625,-0.58593 0.64453,0 1.15235,0.35156 2.42187,-0.42969 4.35546,-0.625 1.9336,-0.21485 3.39844,-0.21485 2.2461,0 5.13672,0.64454 3.92578,0.89843 3.92578,2.34375 0,0.78125 -0.50781,1.38671 -0.56641,0.6836 -1.40625,0.6836 z" />
    </g>
  </g>
</svg>
