<?xml version="1.0" encoding="UTF-8" standalone="no"?>
<svg
   xmlns:dc="http://purl.org/dc/elements/1.1/"
   xmlns:cc="http://creativecommons.org/ns#"
   xmlns:rdf="http://www.w3.org/1999/02/22-rdf-syntax-ns#"
   xmlns:svg="http://www.w3.org/2000/svg"
   xmlns="http://www.w3.org/2000/svg"
   xmlns:sodipodi="http://sodipodi.sourceforge.net/DTD/sodipodi-0.dtd"
   xmlns:inkscape="http://www.inkscape.org/namespaces/inkscape"
   viewBox="0 0 64 64"
   version="1.1"
   id="svg8"
   sodipodi:docname="mail-deleted.svg"
   width="64"
   height="64"
   inkscape:version="0.92.2 5c3e80d, 2017-08-06">
  <metadata
     id="metadata12">
    <rdf:RDF>
      <cc:Work
         rdf:about="">
        <dc:format>image/svg+xml</dc:format>
        <dc:type
           rdf:resource="http://purl.org/dc/dcmitype/StillImage" />
        <dc:title></dc:title>
      </cc:Work>
    </rdf:RDF>
  </metadata>
  <sodipodi:namedview
     pagecolor="#ffffff"
     bordercolor="#666666"
     borderopacity="1"
     objecttolerance="10"
     gridtolerance="10"
     guidetolerance="10"
     inkscape:pageopacity="0"
     inkscape:pageshadow="2"
     inkscape:window-width="1366"
     inkscape:window-height="717"
     id="namedview10"
     showgrid="false"
     inkscape:zoom="3.6875"
     inkscape:cx="34.688082"
     inkscape:cy="22.479448"
     inkscape:window-x="0"
     inkscape:window-y="24"
     inkscape:window-maximized="1"
     inkscape:current-layer="svg8" />
  <defs
     id="defs3051">
    <style
       type="text/css"
       id="current-color-scheme">
      .ColorScheme-Text {
        color:#4d4d4d;
      }
      .ColorScheme-NegativeText {
        color:#da4453;
      }
      </style>
  </defs>
  <g
     id="g844">
    <path
       style="fill:#c6262e;fill-opacity:1;stroke-width:1.38869476"
       inkscape:connector-curvature="0"
       d="M 54.114159,7.0592473 C 66.888272,18.131071 67.342506,38.27171 55.128759,52.046595 42.915013,65.821481 22.659955,68.012577 9.8858411,56.940753 -2.8882733,45.86893 -3.3425053,25.72829 8.871241,11.953405 21.084987,-1.8214803 41.340045,-4.0125765 54.114159,7.0592473 Z"
       id="path27" />
    <path
       style="opacity:1;fill:#000000;fill-opacity:0.49019608;stroke-width:1.38869476"
       inkscape:connector-curvature="0"
       d="M 63.954439,28.11294 C 63.760515,35.776896 60.809285,43.632266 55.083641,50.08975 42.869894,63.86464 22.614836,66.055731 9.840722,54.983912 3.8533905,49.794455 0.5621027,42.615356 0.02422846,35.028601 0.09988492,43.323186 3.3896764,51.310273 9.8848353,56.939884 22.658949,68.011703 42.914969,65.819525 55.127752,52.045721 61.340871,45.038459 64.25338,36.384351 63.954439,28.11294 Z"
       id="path51" />
    <path
       style="fill:#000000;fill-opacity:0.49019608;stroke-width:0.08673378"
       d="m 17.587525,48.416423 c -0.190913,-0.06017 -0.455743,-0.166444 -0.588509,-0.236158 l -0.241397,-0.12676 6.031855,-6.102048 6.031862,-6.102052 1.365005,1.337537 c 0.750745,0.735652 1.576404,1.471493 1.83477,1.635242 1.436303,0.910251 3.171405,0.991463 4.697918,0.219868 0.41856,-0.211558 0.871865,-0.60119 1.994767,-1.714558 l 1.453122,-1.440789 6.08102,6.058662 6.080871,6.05881 -0.457474,0.217559 -0.457489,0.217578 -16.739566,0.04318 c -13.313377,0.03444 -16.810694,0.02088 -17.086756,-0.06611 z M 15.304084,46.401586 C 15.034928,45.714081 15.024868,45.311495 15.007125,34.520925 14.989564,23.752436 14.991898,23.570896 15.16517,23.00675 c 0.09682,-0.315255 0.208948,-0.573246 0.249165,-0.573308 0.05071,-9.3e-5 9.543229,9.502112 12.056755,12.068935 0.01001,0.01025 -2.701785,2.747117 -6.02623,6.081959 -6.041953,6.060836 -6.04451,6.06325 -6.140795,5.817274 z m 32.244624,-5.841619 -6.029984,-6.01114 6.008662,-6.088181 c 3.304763,-3.348506 6.033573,-6.088219 6.064032,-6.088248 0.03043,-4.2e-5 0.129358,0.224217 0.219812,0.498364 0.157695,0.477993 0.165179,0.954326 0.18222,11.600373 0.01701,10.64605 0.01105,11.122397 -0.145101,11.600895 -0.08957,0.274432 -0.186888,0.499011 -0.216269,0.499063 -0.02939,5.7e-5 -2.766912,-2.704932 -6.083377,-6.011078 z M 33.774125,37.549616 C 33.57482,37.484769 33.281879,37.3506 33.123145,37.251469 32.964405,37.152345 29.205283,33.451777 24.769529,29.028 l -8.065009,-8.043221 0.46259,-0.209835 0.462585,-0.209825 16.652829,-0.04981 c 16.459526,-0.04922 16.659373,-0.04777 17.216872,0.123345 0.310229,0.09523 0.608169,0.202738 0.662089,0.238922 0.06172,0.04139 -2.889903,3.08325 -7.966381,8.209886 -6.843994,6.911613 -8.129795,8.172434 -8.49639,8.331388 -0.533021,0.231112 -1.429018,0.291977 -1.924585,0.130737 z"
       id="path846"
       inkscape:connector-curvature="0" />
    <path
       inkscape:connector-curvature="0"
       id="path844"
       d="M 15.087523,45.916429 C 14.89661,45.856259 14.63178,45.749982 14.499014,45.68027 l -0.241398,-0.126761 6.031855,-6.102048 6.031863,-6.102051 1.365005,1.337536 c 0.750745,0.735653 1.576403,1.471494 1.83477,1.635241 1.436302,0.910253 3.171405,0.991465 4.697918,0.21987 0.418559,-0.21156 0.871864,-0.601191 1.994767,-1.71456 l 1.453122,-1.440788 6.081019,6.058663 6.080872,6.058809 -0.457473,0.217559 -0.457488,0.217579 -16.739569,0.04318 C 18.8609,46.01694 15.363584,46.003381 15.087521,45.916391 Z M 12.804081,43.901591 C 12.534925,43.214085 12.524865,42.8115 12.507122,32.020929 c -0.01756,-10.768488 -0.01523,-10.950028 0.158047,-11.514174 0.09682,-0.315256 0.208946,-0.573246 0.249163,-0.573308 0.05071,-9.5e-5 9.543229,9.50211 12.056755,12.068934 0.01001,0.01025 -2.701785,2.747116 -6.02623,6.081959 -6.041952,6.060836 -6.04451,6.063251 -6.140795,5.817275 z m 32.244624,-5.841619 -6.029984,-6.011141 6.008663,-6.088181 c 3.304765,-3.348505 6.033573,-6.088219 6.064032,-6.088246 0.03043,-4.3e-5 0.129359,0.224215 0.219813,0.498363 0.157696,0.477992 0.16518,0.954325 0.18222,11.600372 0.01701,10.64605 0.01105,11.122398 -0.1451,11.600896 -0.08957,0.274431 -0.186889,0.499011 -0.21627,0.499062 -0.02938,5.8e-5 -2.766912,-2.704931 -6.083379,-6.011078 z M 31.274122,35.049621 c -0.199303,-0.06485 -0.492246,-0.199016 -0.65098,-0.298149 -0.15874,-0.09912 -3.917862,-3.799691 -8.353616,-8.223467 l -8.065009,-8.043223 0.46259,-0.209835 0.462585,-0.209825 16.652829,-0.04981 c 16.459528,-0.04922 16.659375,-0.04777 17.216874,0.123345 0.310229,0.09523 0.608169,0.202738 0.662089,0.238922 0.06172,0.04139 -2.889905,3.083249 -7.966383,8.209885 -6.843993,6.911613 -8.129795,8.172435 -8.49639,8.331388 -0.53302,0.231113 -1.429017,0.291977 -1.924585,0.130738 z"
       style="fill:#ffffff;stroke-width:0.08673378" />
  </g>
</svg>
