<?xml version="1.0" encoding="UTF-8" standalone="no"?>
<svg
   xmlns:dc="http://purl.org/dc/elements/1.1/"
   xmlns:cc="http://creativecommons.org/ns#"
   xmlns:rdf="http://www.w3.org/1999/02/22-rdf-syntax-ns#"
   xmlns:svg="http://www.w3.org/2000/svg"
   xmlns="http://www.w3.org/2000/svg"
   xmlns:sodipodi="http://sodipodi.sourceforge.net/DTD/sodipodi-0.dtd"
   xmlns:inkscape="http://www.inkscape.org/namespaces/inkscape"
   viewBox="0 0 64 64"
   version="1.1"
   id="svg6"
   sodipodi:docname="mail-flag.svg"
   width="64"
   height="64"
   inkscape:version="0.92.2 5c3e80d, 2017-08-06">
  <metadata
     id="metadata10">
    <rdf:RDF>
      <cc:Work
         rdf:about="">
        <dc:format>image/svg+xml</dc:format>
        <dc:type
           rdf:resource="http://purl.org/dc/dcmitype/StillImage" />
        <dc:title></dc:title>
      </cc:Work>
    </rdf:RDF>
  </metadata>
  <sodipodi:namedview
     pagecolor="#ffffff"
     bordercolor="#666666"
     borderopacity="1"
     objecttolerance="10"
     gridtolerance="10"
     guidetolerance="10"
     inkscape:pageopacity="0"
     inkscape:pageshadow="2"
     inkscape:window-width="1366"
     inkscape:window-height="717"
     id="namedview8"
     showgrid="false"
     inkscape:zoom="3.6875"
     inkscape:cx="67.704551"
     inkscape:cy="-16.043829"
     inkscape:window-x="0"
     inkscape:window-y="24"
     inkscape:window-maximized="1"
     inkscape:current-layer="svg6" />
  <defs
     id="defs3051">
    <style
       type="text/css"
       id="current-color-scheme">
      .ColorScheme-Text {
        color:#4d4d4d;
      }
      </style>
  </defs>
  <g
     id="g865"
     transform="matrix(0.125,0,0,0.125,-1.576692e-8,56)">
    <path
       style="fill:#3689e6;fill-opacity:1;stroke-width:11.10955811"
       inkscape:connector-curvature="0"
       d="m 432.91327,-391.52603 c 102.19291,88.57459 105.82678,249.6997 8.1168,359.898789 C 343.3201,78.571841 181.27964,96.10061 79.086729,7.52602 -23.106186,-81.048566 -26.740042,-242.17369 70.969928,-352.37277 168.6799,-462.57185 330.72036,-480.10062 432.91327,-391.52603 Z"
       id="path27" />
    <path
       style="opacity:1;fill:#000000;fill-opacity:0.49019608;stroke-width:11.10955811"
       inkscape:connector-curvature="0"
       d="m 511.63551,-223.09649 c -1.55139,61.31165 -25.16123,124.154614 -70.96638,175.814484 C 342.95915,62.917113 180.91869,80.445844 78.725776,-8.128708 30.827124,-49.644362 4.4968216,-107.07716 0.1938277,-167.7712 0.79907936,-101.41452 27.117411,-37.517823 79.078682,7.519065 181.27159,96.093617 343.31975,78.556194 441.02202,-31.634233 490.72697,-87.692336 514.02704,-156.9252 511.63551,-223.09649 Z"
       id="path51" />
    <g
       style="fill:#000000;fill-opacity:0.49019608"
       transform="translate(20.00018,20.000232)"
       id="g855">
      <path
         inkscape:connector-curvature="0"
         id="path851"
         d="m 354.5293,-260.09961 c -10.96767,-0.009 -30.0254,0.0379 -49.10352,0.0859 -3.42236,1.01767 -7.2594,1.73016 -11.4375,2.08789 -1.45582,0.12479 -7.83654,0.38954 -14.17969,0.58789 -16.05009,0.50153 -20.52711,1.25045 -27.60351,4.61719 -3.6005,1.71299 -4.30494,2.22871 -7.5625,5.54882 -2.67972,2.73113 -4.00383,4.44453 -5.21289,6.74219 l -1.6211,3.08008 13.24805,28.11914 13.24805,28.12109 v 2.67774 c 0,2.19089 -0.1887,3.0378 -1.03907,4.6543 -1.53714,2.92131 -3.53642,4.21932 -6.78124,4.40429 -1.62648,0.0929 -3.09993,-0.0481 -3.99219,-0.38086 -1.97882,-0.73865 -3.11125,-1.53934 -4.20899,-2.97851 -0.52028,-0.68218 -14.39855,-29.7958 -30.84179,-64.69727 l -10.50977,-22.30664 -85.89453,0.25781 -3.70117,1.67774 -3.69922,1.67969 64.51953,64.3457 c 35.48603,35.39021 65.5582,64.99413 66.82813,65.78711 1.26986,0.79306 3.61455,1.86598 5.20898,2.38476 3.96454,1.28991 11.13232,0.80399 15.39648,-1.04492 2.93276,-1.27162 13.21876,-11.35944 67.97071,-66.65234 40.61182,-41.01309 64.22423,-65.34665 63.73047,-65.67774 -0.43136,-0.28947 -2.8131,-1.15026 -5.29493,-1.9121 -2.78749,-0.85557 -4.45889,-1.18141 -37.46679,-1.20899 z m 54.20117,15.07813 c -0.24367,2.2e-4 -22.0736,21.91899 -48.51172,48.70703 l -48.06836,48.70507 48.23828,48.089849 c 26.53174,26.44918 48.43289,48.08835 48.66797,48.08789 0.23505,-4.1e-4 1.01387,-1.796737 1.73047,-3.992187 1.2492,-3.827984 1.29623,-7.638239 1.16016,-92.806642 -0.13632,-85.16837 -0.19547,-88.9788 -1.45704,-92.80273 -0.72363,-2.19319 -1.51636,-3.98862 -1.75976,-3.98828 z m -305.41602,0.48828 c -0.32174,4.9e-4 -1.21763,2.06584 -1.99218,4.58789 -1.386188,4.51317 -1.406114,5.96538 -1.26563,92.11328 0.14194,86.324571 0.2237,89.544867 2.37695,95.044921 h -0.002 c 0.77028,1.96781 0.79133,1.947631 49.12695,-46.539063 26.59556,-26.678738 48.29104,-48.572298 48.21094,-48.654298 -20.10821,-20.53459 -96.04939,-96.55349 -96.45508,-96.55273 z m 107.25586,107.32812 -48.2539,48.816408 -48.25586,48.816406 1.93164,1.013672 c 1.06213,0.5577 3.17973,1.409265 4.70703,1.890625 2.2085,0.69592 30.18829,0.802864 136.69531,0.527344 l 133.91602,-0.345703 3.66015,-1.740234 3.66016,-1.740235 -48.64648,-48.470703 -48.64844,-48.46875 -11.625,11.52539 c -8.98322,8.90695 -12.61052,12.02432 -15.95899,13.7168 -12.21211,6.17276 -26.09356,5.52421 -37.58398,-1.75782 -2.06693,-1.30997 -8.67178,-7.19681 -14.67774,-13.08203 z"
         style="fill:#000000;fill-opacity:0.49019608;stroke-width:0.69387025" />
      <path
         inkscape:connector-curvature="0"
         id="path853"
         d="m 293.11133,-349.60742 c -0.14195,4e-5 -0.81133,1.14895 -1.48828,2.55273 -4.8107,9.9754 -14.05695,15.80908 -27.69532,17.47266 -1.97573,0.24101 -9.02603,0.59428 -15.66601,0.78515 -17.81972,0.51237 -22.69472,1.33349 -29.88867,5.03516 -5.21421,2.68296 -10.34738,8.34232 -12.6875,13.98828 l -0.85352,2.0586 -1.17969,-1.54688 c -1.81178,-2.3754 -4.29835,-3.47656 -7.84179,-3.47656 -2.61677,0 -3.07145,0.11386 -4.54688,1.13672 -2.43094,1.68538 -3.71875,4.44827 -3.71875,7.97656 v 2.73828 l 19.38672,41.15039 47.32813,-0.14062 c 22.03322,-0.0659 35.79402,-0.098 51.16601,-0.13672 2.62376,-0.7802 5.01068,-1.73591 7.08203,-2.875 4.868,-2.67703 10.76138,-9.49366 12.74024,-14.73633 0.46485,-1.23151 1.35521,0.79595 -20.38086,-46.45898 -6.02667,-13.10218 -11.0801,-24.20394 -11.22852,-24.67188 -0.14822,-0.46798 -0.38553,-0.8516 -0.52734,-0.85156 z"
         style="fill:#000000;fill-opacity:0.49019608;stroke-width:0.37813061" />
    </g>
    <g
       id="g849">
      <path
         style="fill:#ffffff;stroke-width:0.69387025"
         d="m 354.5293,-260.09961 c -10.96767,-0.009 -30.0254,0.0379 -49.10352,0.0859 -3.42236,1.01767 -7.2594,1.73016 -11.4375,2.08789 -1.45582,0.12479 -7.83654,0.38954 -14.17969,0.58789 -16.05009,0.50153 -20.52711,1.25045 -27.60351,4.61719 -3.6005,1.71299 -4.30494,2.22871 -7.5625,5.54882 -2.67972,2.73113 -4.00383,4.44453 -5.21289,6.74219 l -1.6211,3.08008 13.24805,28.11914 13.24805,28.12109 v 2.67774 c 0,2.19089 -0.1887,3.0378 -1.03907,4.6543 -1.53714,2.92131 -3.53642,4.21932 -6.78124,4.40429 -1.62648,0.0929 -3.09993,-0.0481 -3.99219,-0.38086 -1.97882,-0.73865 -3.11125,-1.53934 -4.20899,-2.97851 -0.52028,-0.68218 -14.39855,-29.7958 -30.84179,-64.69727 l -10.50977,-22.30664 -85.89453,0.25781 -3.70117,1.67774 -3.69922,1.67969 64.51953,64.3457 c 35.48603,35.39021 65.5582,64.99413 66.82813,65.78711 1.26986,0.79306 3.61455,1.86598 5.20898,2.38476 3.96454,1.28991 11.13232,0.80399 15.39648,-1.04492 2.93276,-1.27162 13.21876,-11.35944 67.97071,-66.65234 40.61182,-41.01309 64.22423,-65.34665 63.73047,-65.67774 -0.43136,-0.28947 -2.8131,-1.15026 -5.29493,-1.9121 -2.78749,-0.85557 -4.45889,-1.18141 -37.46679,-1.20899 z m 54.20117,15.07813 c -0.24367,2.2e-4 -22.0736,21.91899 -48.51172,48.70703 l -48.06836,48.70507 48.23828,48.089849 c 26.53174,26.44918 48.43289,48.08835 48.66797,48.08789 0.23505,-4.1e-4 1.01387,-1.796737 1.73047,-3.992187 1.2492,-3.827984 1.29623,-7.638239 1.16016,-92.806642 -0.13632,-85.16837 -0.19547,-88.9788 -1.45704,-92.80273 -0.72363,-2.19319 -1.51636,-3.98862 -1.75976,-3.98828 z m -305.41602,0.48828 c -0.32174,4.9e-4 -1.21763,2.06584 -1.99218,4.58789 -1.386188,4.51317 -1.406114,5.96538 -1.26563,92.11328 0.14194,86.324571 0.2237,89.544867 2.37695,95.044921 h -0.002 c 0.77028,1.96781 0.79133,1.947631 49.12695,-46.539063 26.59556,-26.678738 48.29104,-48.572298 48.21094,-48.654298 -20.10821,-20.53459 -96.04939,-96.55349 -96.45508,-96.55273 z m 107.25586,107.32812 -48.2539,48.816408 -48.25586,48.816406 1.93164,1.013672 c 1.06213,0.5577 3.17973,1.409265 4.70703,1.890625 2.2085,0.69592 30.18829,0.802864 136.69531,0.527344 l 133.91602,-0.345703 3.66015,-1.740234 3.66016,-1.740235 -48.64648,-48.470703 -48.64844,-48.46875 -11.625,11.52539 c -8.98322,8.90695 -12.61052,12.02432 -15.95899,13.7168 -12.21211,6.17276 -26.09356,5.52421 -37.58398,-1.75782 -2.06693,-1.30997 -8.67178,-7.19681 -14.67774,-13.08203 z"
         id="path844"
         inkscape:connector-curvature="0" />
      <path
         style="fill:#ffffff;stroke-width:0.37813061"
         d="m 293.11133,-349.60742 c -0.14195,4e-5 -0.81133,1.14895 -1.48828,2.55273 -4.8107,9.9754 -14.05695,15.80908 -27.69532,17.47266 -1.97573,0.24101 -9.02603,0.59428 -15.66601,0.78515 -17.81972,0.51237 -22.69472,1.33349 -29.88867,5.03516 -5.21421,2.68296 -10.34738,8.34232 -12.6875,13.98828 l -0.85352,2.0586 -1.17969,-1.54688 c -1.81178,-2.3754 -4.29835,-3.47656 -7.84179,-3.47656 -2.61677,0 -3.07145,0.11386 -4.54688,1.13672 -2.43094,1.68538 -3.71875,4.44827 -3.71875,7.97656 v 2.73828 l 19.38672,41.15039 47.32813,-0.14062 c 22.03322,-0.0659 35.79402,-0.098 51.16601,-0.13672 2.62376,-0.7802 5.01068,-1.73591 7.08203,-2.875 4.868,-2.67703 10.76138,-9.49366 12.74024,-14.73633 0.46485,-1.23151 1.35521,0.79595 -20.38086,-46.45898 -6.02667,-13.10218 -11.0801,-24.20394 -11.22852,-24.67188 -0.14822,-0.46798 -0.38553,-0.8516 -0.52734,-0.85156 z"
         id="path841"
         inkscape:connector-curvature="0" />
    </g>
  </g>
</svg>
