<?xml version="1.0" encoding="UTF-8" standalone="no"?>
<svg
   xmlns:dc="http://purl.org/dc/elements/1.1/"
   xmlns:cc="http://creativecommons.org/ns#"
   xmlns:rdf="http://www.w3.org/1999/02/22-rdf-syntax-ns#"
   xmlns:svg="http://www.w3.org/2000/svg"
   xmlns="http://www.w3.org/2000/svg"
   xmlns:sodipodi="http://sodipodi.sourceforge.net/DTD/sodipodi-0.dtd"
   xmlns:inkscape="http://www.inkscape.org/namespaces/inkscape"
   viewBox="0 0 64 64"
   version="1.1"
   id="svg6"
   sodipodi:docname="mail-receive.svg"
   width="64"
   height="64"
   inkscape:version="0.92.2 5c3e80d, 2017-08-06">
  <metadata
     id="metadata10">
    <rdf:RDF>
      <cc:Work
         rdf:about="">
        <dc:format>image/svg+xml</dc:format>
        <dc:type
           rdf:resource="http://purl.org/dc/dcmitype/StillImage" />
        <dc:title></dc:title>
      </cc:Work>
    </rdf:RDF>
  </metadata>
  <sodipodi:namedview
     pagecolor="#ffffff"
     bordercolor="#666666"
     borderopacity="1"
     objecttolerance="10"
     gridtolerance="10"
     guidetolerance="10"
     inkscape:pageopacity="0"
     inkscape:pageshadow="2"
     inkscape:window-width="1366"
     inkscape:window-height="717"
     id="namedview8"
     showgrid="false"
     inkscape:zoom="1.2291667"
     inkscape:cx="126.49"
     inkscape:cy="106.18206"
     inkscape:window-x="0"
     inkscape:window-y="24"
     inkscape:window-maximized="1"
     inkscape:current-layer="svg6" />
  <defs
     id="defs3051">
    <style
       type="text/css"
       id="current-color-scheme">
      .ColorScheme-Text {
        color:#4d4d4d;
      }
      </style>
  </defs>
  <g
     id="g859"
     transform="matrix(0.125,0,0,0.125,-1.576692e-8,56)">
    <path
       id="path27"
       d="m 432.91327,-391.52603 c 102.19291,88.57459 105.82678,249.6997 8.1168,359.89879 C 343.3201,78.57184 181.27964,96.10061 79.086729,7.52602 -23.106186,-81.04857 -26.740042,-242.17369 70.969928,-352.37277 168.6799,-462.57185 330.72036,-480.10062 432.91327,-391.52603 Z"
       inkscape:connector-curvature="0"
       style="fill:#3689e6;fill-opacity:1;stroke-width:11.10955811" />
    <path
       id="path51"
       d="m 511.63551,-223.09649 c -1.55139,61.31165 -25.16123,124.15461 -70.96638,175.81448 C 342.95915,62.91711 180.91869,80.44584 78.725776,-8.12871 30.827124,-49.64437 4.4968216,-107.07716 0.1938277,-167.7712 0.79907936,-101.41452 27.117411,-37.51783 79.078682,7.51906 181.27159,96.09361 343.31975,78.55619 441.02202,-31.63424 c 49.70495,-56.0581 73.00502,-125.29096 70.61349,-191.46225 z"
       inkscape:connector-curvature="0"
       style="opacity:1;fill:#000000;fill-opacity:0.49019608;stroke-width:11.10955811" />
    <g
       style="fill:#000000;fill-opacity:0.49019608"
       transform="translate(19.999999,20.000003)"
       id="g849">
      <path
         sodipodi:nodetypes="cccsscccccccccscccsssscccccccsscccssccsscssccscc"
         inkscape:connector-curvature="0"
         id="path845"
         d="m 141.44745,-38.38798 c -7.00092,-3.19628 -15.03661,-12.34286 -17.20647,-19.58519 -2.33507,-7.79379 -2.31468,-260.2169 0.0217,-268.01488 0.90603,-3.02404 4.06932,-8.24981 7.02953,-11.61279 9.85352,-11.1942 3.13019,-10.658 128.12783,-10.21844 l 110.89054,0.38995 6.07334,4.2547 c 3.47837,2.43681 7.71008,7.22476 9.9041,11.20611 l 3.83095,6.95142 -0.32904,134.57615 -0.3289,134.57616 -3.86415,5.83852 c -2.12524,3.21119 -6.49128,7.57736 -9.70239,9.70259 l -5.83829,3.86406 -111.46373,0.3327 c -105.90732,0.31611 -111.74694,0.2034 -117.14497,-2.26106 z m 38.47989,-31.62828 c 3.94696,-2.04106 8.5239,-9.59563 8.5239,-14.06935 0,-4.35569 -4.1977,-11.29976 -8.29315,-13.719 -6.35061,-3.75139 -13.2295,-3.08526 -18.81897,1.82236 -6.05872,5.31963 -7.57428,12.024 -4.28502,18.95561 3.96555,8.35679 14.20236,11.49425 22.87324,7.01038 z m 166.82453,-1.11228 c 6.72275,-4.57546 10.00317,-9.68418 10.80898,-16.83324 0.99975,-8.86976 -1.64952,-15.52072 -8.62566,-21.65477 -5.90533,-5.19246 -68.55479,-51.28109 -74.23714,-54.61318 -1.59573,-0.93574 -4.03307,-1.72367 -5.41632,-1.75096 -3.5324,-0.0698 -9.39168,6.19617 -9.39058,10.04224 5.7e-4,1.94772 9.62338,16.42149 24.40805,36.71239 28.37698,38.94535 33.21964,44.95292 39.15243,48.57059 6.26563,3.82062 17.32131,3.59617 23.30024,-0.47307 z m -111.50079,-74.24052 c -1.96582,-6.10446 -1.08113,-18.44481 1.78248,-24.86357 5.98146,-13.40733 17.74076,-20.94994 32.66202,-20.94994 11.15779,0 17.53479,2.73052 28.05865,12.01423 4.26115,3.75901 10.34506,8.88709 13.51981,11.39575 l 5.77227,4.56118 6.45716,-7.1819 c 14.05522,-15.63278 22.78311,-41.04954 21.34979,-62.17334 -2.46048,-36.26184 -24.53135,-65.57524 -59.41091,-78.90653 -8.34845,-3.19084 -11.55463,-3.61681 -27.65327,-3.67394 -15.58186,-0.0553 -19.70101,0.42375 -28.54157,3.31937 -27.94805,9.15403 -50.85884,33.81292 -58.21249,62.65412 -2.75217,10.79402 -2.79356,30.69964 -0.0877,42.17594 6.21119,26.34356 26.21272,49.59544 52.19939,60.68205 11.67672,4.9816 13.44839,5.12015 12.10438,0.94658 z"
         style="fill:#000000;fill-opacity:0.49019608;stroke-width:1.40076447" />
      <path
         sodipodi:nodetypes="cscccccsccccscscccccccc"
         inkscape:connector-curvature="0"
         id="path847"
         d="m 257.46568,-197.18852 c -1.32194,-0.44744 -2.84994,-1.52086 -5.14138,-3.61186 -1.86588,-1.70268 -41.83358,-41.71634 -42.63949,-42.68859 -2.05525,-2.47924 -2.45372,-3.83909 -1.34906,-4.60352 0.42958,-0.2973 0.94339,-0.47212 1.92011,-0.65355 0.71588,-0.13302 1.92726,-0.15204 11.25192,-0.17823 l 10.44964,-0.0287 v -22.04494 c 0,-23.94328 -0.018,-22.94667 0.48406,-24.9311 1.67748,-6.61277 7.26429,-11.42826 14.05725,-12.11646 1.25308,-0.12701 23.43908,-0.12732 24.69651,-3.1e-4 7.67908,0.775 13.66555,6.79832 14.44842,14.53727 0.0621,0.61343 0.0928,8.17598 0.0928,22.74077 v 21.82172 h 9.94292 c 6.26231,0 10.26194,0.0359 10.80471,0.0923 1.73199,0.1854 2.80303,0.57415 3.22976,1.17279 0.33781,0.47391 0.29047,1.19072 -0.13587,2.05303 -0.60787,1.22994 -1.54759,2.34574 -4.49257,5.33448 -7.07425,7.1794 -37.6551,37.84643 -38.96122,39.07099 -2.68617,2.51847 -4.34219,3.68947 -5.85158,4.13771 -0.77985,0.23167 -1.94508,0.18899 -2.8072,-0.10292 z"
         style="fill:#000000;fill-opacity:0.49019608;stroke-width:0.08874445" />
    </g>
    <g
       id="g843">
      <path
         style="fill:#ffffff;stroke-width:1.40076447"
         d="m 141.44745,-38.38798 c -7.00092,-3.19628 -15.03661,-12.34286 -17.20647,-19.58519 -2.33507,-7.79379 -2.31468,-260.2169 0.0217,-268.01488 0.90603,-3.02404 4.06932,-8.24981 7.02953,-11.61279 9.85352,-11.1942 3.13019,-10.658 128.12783,-10.21844 l 110.89054,0.38995 6.07334,4.2547 c 3.47837,2.43681 7.71008,7.22476 9.9041,11.20611 l 3.83095,6.95142 -0.32904,134.57615 -0.3289,134.57616 -3.86415,5.83852 c -2.12524,3.21119 -6.49128,7.57736 -9.70239,9.70259 l -5.83829,3.86406 -111.46373,0.3327 c -105.90732,0.31611 -111.74694,0.2034 -117.14497,-2.26106 z m 38.47989,-31.62828 c 3.94696,-2.04106 8.5239,-9.59563 8.5239,-14.06935 0,-4.35569 -4.1977,-11.29976 -8.29315,-13.719 -6.35061,-3.75139 -13.2295,-3.08526 -18.81897,1.82236 -6.05872,5.31963 -7.57428,12.024 -4.28502,18.95561 3.96555,8.35679 14.20236,11.49425 22.87324,7.01038 z m 166.82453,-1.11228 c 6.72275,-4.57546 10.00317,-9.68418 10.80898,-16.83324 0.99975,-8.86976 -1.64952,-15.52072 -8.62566,-21.65477 -5.90533,-5.19246 -68.55479,-51.28109 -74.23714,-54.61318 -1.59573,-0.93574 -4.03307,-1.72367 -5.41632,-1.75096 -3.5324,-0.0698 -9.39168,6.19617 -9.39058,10.04224 5.7e-4,1.94772 9.62338,16.42149 24.40805,36.71239 28.37698,38.94535 33.21964,44.95292 39.15243,48.57059 6.26563,3.82062 17.32131,3.59617 23.30024,-0.47307 z m -111.50079,-74.24052 c -1.96582,-6.10446 -1.08113,-18.44481 1.78248,-24.86357 5.98146,-13.40733 17.74076,-20.94994 32.66202,-20.94994 11.15779,0 17.53479,2.73052 28.05865,12.01423 4.26115,3.75901 10.34506,8.88709 13.51981,11.39575 l 5.77227,4.56118 6.45716,-7.1819 c 14.05522,-15.63278 22.78311,-41.04954 21.34979,-62.17334 -2.46048,-36.26184 -24.53135,-65.57524 -59.41091,-78.90653 -8.34845,-3.19084 -11.55463,-3.61681 -27.65327,-3.67394 -15.58186,-0.0553 -19.70101,0.42375 -28.54157,3.31937 -27.94805,9.15403 -50.85884,33.81292 -58.21249,62.65412 -2.75217,10.79402 -2.79356,30.69964 -0.0877,42.17594 6.21119,26.34356 26.21272,49.59544 52.19939,60.68205 11.67672,4.9816 13.44839,5.12015 12.10438,0.94658 z"
         id="path867"
         inkscape:connector-curvature="0"
         sodipodi:nodetypes="cccsscccccccccscccsssscccccccsscccssccsscssccscc" />
      <path
         style="fill:#ffffff;stroke-width:0.08874445"
         d="m 257.46568,-197.18852 c -1.32194,-0.44744 -2.84994,-1.52086 -5.14138,-3.61186 -1.86588,-1.70268 -41.83358,-41.71634 -42.63949,-42.68859 -2.05525,-2.47924 -2.45372,-3.83909 -1.34906,-4.60352 0.42958,-0.2973 0.94339,-0.47212 1.92011,-0.65355 0.71588,-0.13302 1.92726,-0.15204 11.25192,-0.17823 l 10.44964,-0.0287 v -22.04494 c 0,-23.94328 -0.018,-22.94667 0.48406,-24.9311 1.67748,-6.61277 7.26429,-11.42826 14.05725,-12.11646 1.25308,-0.12701 23.43908,-0.12732 24.69651,-3.1e-4 7.67908,0.775 13.66555,6.79832 14.44842,14.53727 0.0621,0.61343 0.0928,8.17598 0.0928,22.74077 v 21.82172 h 9.94292 c 6.26231,0 10.26194,0.0359 10.80471,0.0923 1.73199,0.1854 2.80303,0.57415 3.22976,1.17279 0.33781,0.47391 0.29047,1.19072 -0.13587,2.05303 -0.60787,1.22994 -1.54759,2.34574 -4.49257,5.33448 -7.07425,7.1794 -37.6551,37.84643 -38.96122,39.07099 -2.68617,2.51847 -4.34219,3.68947 -5.85158,4.13771 -0.77985,0.23167 -1.94508,0.18899 -2.8072,-0.10292 z"
         id="path899"
         inkscape:connector-curvature="0"
         sodipodi:nodetypes="cscccccsccccscscccccccc" />
    </g>
  </g>
</svg>
