<?xml version="1.0" encoding="UTF-8" standalone="no"?>
<svg
   xmlns:dc="http://purl.org/dc/elements/1.1/"
   xmlns:cc="http://creativecommons.org/ns#"
   xmlns:rdf="http://www.w3.org/1999/02/22-rdf-syntax-ns#"
   xmlns:svg="http://www.w3.org/2000/svg"
   xmlns="http://www.w3.org/2000/svg"
   xmlns:sodipodi="http://sodipodi.sourceforge.net/DTD/sodipodi-0.dtd"
   xmlns:inkscape="http://www.inkscape.org/namespaces/inkscape"
   viewBox="0 0 64 64"
   version="1.1"
   id="svg6"
   sodipodi:docname="mail-mark-read.svg"
   width="64"
   height="64"
   inkscape:version="0.92.2 5c3e80d, 2017-08-06">
  <metadata
     id="metadata10">
    <rdf:RDF>
      <cc:Work
         rdf:about="">
        <dc:format>image/svg+xml</dc:format>
        <dc:type
           rdf:resource="http://purl.org/dc/dcmitype/StillImage" />
        <dc:title></dc:title>
      </cc:Work>
    </rdf:RDF>
  </metadata>
  <sodipodi:namedview
     pagecolor="#ffffff"
     bordercolor="#666666"
     borderopacity="1"
     objecttolerance="10"
     gridtolerance="10"
     guidetolerance="10"
     inkscape:pageopacity="0"
     inkscape:pageshadow="2"
     inkscape:window-width="1366"
     inkscape:window-height="717"
     id="namedview8"
     showgrid="false"
     inkscape:zoom="7.375"
     inkscape:cx="16"
     inkscape:cy="16"
     inkscape:window-x="0"
     inkscape:window-y="24"
     inkscape:window-maximized="1"
     inkscape:current-layer="svg6" />
  <defs
     id="defs3051">
    <style
       type="text/css"
       id="current-color-scheme">
      .ColorScheme-Text {
        color:#4d4d4d;
      }
      </style>
  </defs>
  <g
     id="g884"
     transform="matrix(0.125,0,0,0.125,0,56)">
    <path
       style="fill:#68b723;fill-opacity:1;stroke-width:11.10955811"
       inkscape:connector-curvature="0"
       d="m 432.91327,-391.52603 c 102.19291,88.57459 105.82678,249.6997 8.1168,359.898789 C 343.3201,78.571841 181.27964,96.10061 79.086729,7.52602 -23.106186,-81.048566 -26.740042,-242.17369 70.969928,-352.37277 168.6799,-462.57185 330.72036,-480.10062 432.91327,-391.52603 Z"
       id="path27" />
    <path
       style="opacity:1;fill:#000000;fill-opacity:0.49019608;stroke-width:11.10955811"
       inkscape:connector-curvature="0"
       d="m 511.63551,-223.09649 c -1.55139,61.31165 -25.16123,124.154614 -70.96638,175.814484 C 342.95915,62.917113 180.91869,80.445844 78.725776,-8.128708 30.827124,-49.644362 4.4968216,-107.07716 0.1938277,-167.7712 0.79907936,-101.41452 27.117411,-37.517823 79.078682,7.519065 181.27159,96.093617 343.31975,78.556194 441.02202,-31.634233 490.72697,-87.692336 514.02704,-156.9252 511.63551,-223.09649 Z"
       id="path51" />
    <g
       style="fill:#000000;fill-opacity:0.49019608"
       transform="translate(20.000014,20)"
       id="g868">
      <path
         inkscape:connector-curvature="0"
         id="path858"
         d="m 112.71094,-348.81641 a 12.711699,12.711699 0 0 0 -12.70899,12.71094 v 120.63086 a 12.711699,12.711699 0 0 0 0.0352,0.96875 c 0.0991,-20.88317 0.43251,-22.66338 1.28516,-25.43945 0.77455,-2.52205 1.67044,-4.5874 1.99218,-4.58789 0.13601,-2.6e-4 9.94172,9.74381 22.10743,21.87695 v -100.73828 h 261.15039 l 0.006,100.45508 c 12.88852,-12.97835 21.99994,-22.0819 22.15235,-22.08203 0.2434,-3.4e-4 1.03613,1.79509 1.75976,3.98828 0.76999,2.33389 1.09058,4.89044 1.25586,25.71484 a 12.711699,12.711699 0 0 0 0.25196,-2.62891 l -0.006,-118.1582 a 12.711699,12.711699 0 0 0 -12.71094,-12.71094 z"
         style="color:#000000;font-style:normal;font-variant:normal;font-weight:normal;font-stretch:normal;font-size:medium;line-height:normal;font-family:sans-serif;font-variant-ligatures:normal;font-variant-position:normal;font-variant-caps:normal;font-variant-numeric:normal;font-variant-alternates:normal;font-feature-settings:normal;text-indent:0;text-align:start;text-decoration:none;text-decoration-line:none;text-decoration-style:solid;text-decoration-color:#000000;letter-spacing:normal;word-spacing:normal;text-transform:none;writing-mode:lr-tb;direction:ltr;text-orientation:mixed;dominant-baseline:auto;baseline-shift:baseline;text-anchor:start;white-space:normal;shape-padding:0;clip-rule:nonzero;display:inline;overflow:visible;visibility:visible;opacity:1;isolation:auto;mix-blend-mode:normal;color-interpolation:sRGB;color-interpolation-filters:linearRGB;solid-color:#000000;solid-opacity:1;vector-effect:none;fill:#000000;fill-opacity:0.49019608;fill-rule:nonzero;stroke:none;stroke-width:25.42085457;stroke-linecap:round;stroke-linejoin:round;stroke-miterlimit:4;stroke-dasharray:none;stroke-dashoffset:0;stroke-opacity:1;color-rendering:auto;image-rendering:auto;shape-rendering:auto;text-rendering:auto;enable-background:accumulate" />
      <path
         sodipodi:nodetypes="cccccccccccccccccccccccccccsccccccc"
         inkscape:connector-curvature="0"
         id="path860"
         d="m 120.70018,-36.668574 c -1.5273,-0.48136 -3.64594,-1.33157 -4.70807,-1.88927 l -1.93118,-1.01409 48.25484,-48.816384 48.2549,-48.816412 10.92004,10.70029 c 6.00596,5.88522 12.61123,11.77195 14.67816,13.08193 11.49042,7.28202 25.37124,7.93172 37.58335,1.75896 3.34847,-1.69248 6.97491,-4.80953 15.95813,-13.71648 l 11.62498,-11.52631 48.64815,48.469312 48.64698,48.470474 -3.65979,1.74047 -3.6599,1.74063 -133.91655,0.34545 c -106.50702,0.27552 -134.48555,0.16705 -136.69405,-0.52887 z m -18.26753,-16.1187 c -2.15325,-5.500054 -2.23373,-8.720734 -2.37567,-95.045306 -0.140485,-86.1479 -0.121814,-87.60022 1.26437,-92.11339 0.77455,-2.52205 1.67157,-4.58597 1.99331,-4.58646 0.40569,-7.6e-4 76.34583,76.01688 96.45404,96.55147 0.0801,0.082 -21.61428,21.97693 -48.20984,48.655672 -48.33562,48.486694 -48.35608,48.506014 -49.12636,46.538204 z m 257.95699,-46.732954 -48.23987,-48.089132 48.0693,-48.70545 c 26.43812,-26.78804 48.26859,-48.70575 48.51226,-48.70597 0.2434,-3.4e-4 1.03487,1.79372 1.7585,3.98691 1.26157,3.82393 1.32144,7.6346 1.45776,92.80297 0.13607,85.168402 0.0884,88.979192 -1.1608,92.807176 -0.7166,2.19545 -1.49511,3.99209 -1.73016,3.9925 -0.23508,4.6e-4 -22.13529,-21.639454 -48.66703,-48.088634 z"
         style="fill:#000000;fill-opacity:0.49019608;stroke-width:0.69387025" />
      <rect
         ry="14.55264"
         y="-304.83322"
         x="143.28952"
         height="29.10528"
         width="225.46222"
         id="rect862"
         style="opacity:1;fill:#000000;fill-opacity:0.49019608;stroke:none;stroke-width:35.38081741;stroke-linecap:round;stroke-linejoin:round;stroke-miterlimit:4;stroke-dasharray:none;stroke-dashoffset:0;stroke-opacity:1" />
      <rect
         style="opacity:1;fill:#000000;fill-opacity:0.49019608;stroke:none;stroke-width:35.38081741;stroke-linecap:round;stroke-linejoin:round;stroke-miterlimit:4;stroke-dasharray:none;stroke-dashoffset:0;stroke-opacity:1"
         id="rect864"
         width="225.46222"
         height="29.10528"
         x="143.28952"
         y="-257.23816"
         ry="14.55264" />
      <rect
         ry="14.55264"
         y="-213.23816"
         x="177.03889"
         height="29.10528"
         width="152.59425"
         id="rect866"
         style="opacity:1;fill:#000000;fill-opacity:0.49019608;stroke:none;stroke-width:29.10717583;stroke-linecap:round;stroke-linejoin:round;stroke-miterlimit:4;stroke-dasharray:none;stroke-dashoffset:0;stroke-opacity:1" />
    </g>
    <g
       id="g856">
      <path
         style="color:#000000;font-style:normal;font-variant:normal;font-weight:normal;font-stretch:normal;font-size:medium;line-height:normal;font-family:sans-serif;font-variant-ligatures:normal;font-variant-position:normal;font-variant-caps:normal;font-variant-numeric:normal;font-variant-alternates:normal;font-feature-settings:normal;text-indent:0;text-align:start;text-decoration:none;text-decoration-line:none;text-decoration-style:solid;text-decoration-color:#000000;letter-spacing:normal;word-spacing:normal;text-transform:none;writing-mode:lr-tb;direction:ltr;text-orientation:mixed;dominant-baseline:auto;baseline-shift:baseline;text-anchor:start;white-space:normal;shape-padding:0;clip-rule:nonzero;display:inline;overflow:visible;visibility:visible;opacity:1;isolation:auto;mix-blend-mode:normal;color-interpolation:sRGB;color-interpolation-filters:linearRGB;solid-color:#000000;solid-opacity:1;vector-effect:none;fill:#ffffff;fill-opacity:1;fill-rule:nonzero;stroke:none;stroke-width:25.42085457;stroke-linecap:round;stroke-linejoin:round;stroke-miterlimit:4;stroke-dasharray:none;stroke-dashoffset:0;stroke-opacity:1;color-rendering:auto;image-rendering:auto;shape-rendering:auto;text-rendering:auto;enable-background:accumulate"
         d="m 112.71094,-348.81641 a 12.711699,12.711699 0 0 0 -12.70899,12.71094 v 120.63086 a 12.711699,12.711699 0 0 0 0.0352,0.96875 c 0.0991,-20.88317 0.43251,-22.66338 1.28516,-25.43945 0.77455,-2.52205 1.67044,-4.5874 1.99218,-4.58789 0.13601,-2.6e-4 9.94172,9.74381 22.10743,21.87695 v -100.73828 h 261.15039 l 0.006,100.45508 c 12.88852,-12.97835 21.99994,-22.0819 22.15235,-22.08203 0.2434,-3.4e-4 1.03613,1.79509 1.75976,3.98828 0.76999,2.33389 1.09058,4.89044 1.25586,25.71484 a 12.711699,12.711699 0 0 0 0.25196,-2.62891 l -0.006,-118.1582 a 12.711699,12.711699 0 0 0 -12.71094,-12.71094 z"
         id="path838"
         inkscape:connector-curvature="0" />
      <path
         style="fill:#ffffff;stroke-width:0.69387025"
         d="m 120.70018,-36.668574 c -1.5273,-0.48136 -3.64594,-1.33157 -4.70807,-1.88927 l -1.93118,-1.01409 48.25484,-48.816384 48.2549,-48.816412 10.92004,10.70029 c 6.00596,5.88522 12.61123,11.77195 14.67816,13.08193 11.49042,7.28202 25.37124,7.93172 37.58335,1.75896 3.34847,-1.69248 6.97491,-4.80953 15.95813,-13.71648 l 11.62498,-11.52631 48.64815,48.469312 48.64698,48.470474 -3.65979,1.74047 -3.6599,1.74063 -133.91655,0.34545 c -106.50702,0.27552 -134.48555,0.16705 -136.69405,-0.52887 z m -18.26753,-16.1187 c -2.15325,-5.500054 -2.23373,-8.720734 -2.37567,-95.045306 -0.140485,-86.1479 -0.121814,-87.60022 1.26437,-92.11339 0.77455,-2.52205 1.67157,-4.58597 1.99331,-4.58646 0.40569,-7.6e-4 76.34583,76.01688 96.45404,96.55147 0.0801,0.082 -21.61428,21.97693 -48.20984,48.655672 -48.33562,48.486694 -48.35608,48.506014 -49.12636,46.538204 z m 257.95699,-46.732954 -48.23987,-48.089132 48.0693,-48.70545 c 26.43812,-26.78804 48.26859,-48.70575 48.51226,-48.70597 0.2434,-3.4e-4 1.03487,1.79372 1.7585,3.98691 1.26157,3.82393 1.32144,7.6346 1.45776,92.80297 0.13607,85.168402 0.0884,88.979192 -1.1608,92.807176 -0.7166,2.19545 -1.49511,3.99209 -1.73016,3.9925 -0.23508,4.6e-4 -22.13529,-21.639454 -48.66703,-48.088634 z"
         id="path844"
         inkscape:connector-curvature="0"
         sodipodi:nodetypes="cccccccccccccccccccccccccccsccccccc" />
      <rect
         style="opacity:1;fill:#ffffff;fill-opacity:1;stroke:none;stroke-width:35.38081741;stroke-linecap:round;stroke-linejoin:round;stroke-miterlimit:4;stroke-dasharray:none;stroke-dashoffset:0;stroke-opacity:1"
         id="rect842"
         width="225.46222"
         height="29.10528"
         x="143.28952"
         y="-304.83322"
         ry="14.55264" />
      <rect
         ry="14.55264"
         y="-257.23816"
         x="143.28952"
         height="29.10528"
         width="225.46222"
         id="rect844"
         style="opacity:1;fill:#ffffff;fill-opacity:1;stroke:none;stroke-width:35.38081741;stroke-linecap:round;stroke-linejoin:round;stroke-miterlimit:4;stroke-dasharray:none;stroke-dashoffset:0;stroke-opacity:1" />
      <rect
         style="opacity:1;fill:#ffffff;fill-opacity:1;stroke:none;stroke-width:29.10717583;stroke-linecap:round;stroke-linejoin:round;stroke-miterlimit:4;stroke-dasharray:none;stroke-dashoffset:0;stroke-opacity:1"
         id="rect846"
         width="152.59425"
         height="29.10528"
         x="177.03889"
         y="-213.23816"
         ry="14.55264" />
    </g>
  </g>
</svg>
