<?xml version="1.0" encoding="UTF-8" standalone="no"?>
<svg
   xmlns:dc="http://purl.org/dc/elements/1.1/"
   xmlns:cc="http://creativecommons.org/ns#"
   xmlns:rdf="http://www.w3.org/1999/02/22-rdf-syntax-ns#"
   xmlns:svg="http://www.w3.org/2000/svg"
   xmlns="http://www.w3.org/2000/svg"
   xmlns:sodipodi="http://sodipodi.sourceforge.net/DTD/sodipodi-0.dtd"
   xmlns:inkscape="http://www.inkscape.org/namespaces/inkscape"
   viewBox="0 0 64 64"
   version="1.1"
   id="svg6"
   sodipodi:docname="mail-mark-unread-new.svg"
   width="64"
   height="64"
   inkscape:version="0.92.2 5c3e80d, 2017-08-06">
  <metadata
     id="metadata10">
    <rdf:RDF>
      <cc:Work
         rdf:about="">
        <dc:format>image/svg+xml</dc:format>
        <dc:type
           rdf:resource="http://purl.org/dc/dcmitype/StillImage" />
        <dc:title></dc:title>
      </cc:Work>
    </rdf:RDF>
  </metadata>
  <sodipodi:namedview
     pagecolor="#ffffff"
     bordercolor="#666666"
     borderopacity="1"
     objecttolerance="10"
     gridtolerance="10"
     guidetolerance="10"
     inkscape:pageopacity="0"
     inkscape:pageshadow="2"
     inkscape:window-width="1366"
     inkscape:window-height="717"
     id="namedview8"
     showgrid="false"
     inkscape:zoom="3.6875"
     inkscape:cx="49.586458"
     inkscape:cy="30.306404"
     inkscape:window-x="0"
     inkscape:window-y="24"
     inkscape:window-maximized="1"
     inkscape:current-layer="svg6" />
  <defs
     id="defs3051">
    <style
       type="text/css"
       id="current-color-scheme">
      .ColorScheme-Text {
        color:#4d4d4d;
      }
      </style>
  </defs>
  <g
     id="g863"
     transform="matrix(0.125,0,0,0.125,0,56)">
    <path
       style="fill:#3689e6;fill-opacity:1;stroke-width:11.10955811"
       inkscape:connector-curvature="0"
       d="m 432.91328,-391.52603 c 102.1929,88.57459 105.82677,249.69971 8.11679,359.8988 C 343.3201,78.571831 181.27964,96.100616 79.086728,7.526014 -23.106186,-81.048568 -26.740042,-242.17369 70.969929,-352.37277 168.6799,-462.57185 330.72037,-480.10062 432.91328,-391.52603 Z"
       id="path27" />
    <path
       style="opacity:1;fill:#000000;fill-opacity:0.49019608;stroke-width:11.10955811"
       inkscape:connector-curvature="0"
       d="m 511.63552,-223.09649 c -1.55139,61.31165 -25.16124,124.154622 -70.96639,175.814488 C 342.95914,62.917105 180.91869,80.445844 78.725777,-8.128711 30.827124,-49.64437 4.4968217,-107.07716 0.1938276,-167.77119 0.79907931,-101.41453 27.117412,-37.517813 79.078682,7.519056 181.27159,96.093611 343.31975,78.556192 441.02204,-31.634235 c 49.70493,-56.058113 73.005,-125.290965 70.61348,-191.462255 z"
       id="path51" />
    <g
       style="fill:#000000;fill-opacity:0.49019608"
       transform="translate(20.000199,20.000131)"
       id="g853">
      <path
         inkscape:connector-curvature="0"
         id="path849"
         d="m 354.5293,-260.09961 c -8.36853,-0.007 -21.12856,0.0174 -34.05469,0.0449 l -24.64258,8.76563 20.4043,42.91992 -42.91992,-20.40234 -15.93164,44.78906 -15.9336,-44.78906 -42.91797,20.40234 20.40235,-42.91992 -23.64844,-8.41211 -74.25,0.22265 -3.70117,1.67774 -3.69922,1.67969 64.51953,64.3457 c 35.48603,35.39021 65.55813,64.9942 66.82813,65.78711 1.26985,0.79308 3.61457,1.86601 5.20898,2.38476 3.96453,1.28996 11.13232,0.80386 15.39648,-1.04492 2.93276,-1.27162 13.21878,-11.35944 67.97071,-66.65234 40.61184,-41.01309 64.22432,-65.34861 63.73047,-65.67969 -0.43136,-0.28949 -2.8131,-1.14831 -5.29493,-1.91015 -2.7875,-0.85557 -4.45889,-1.1814 -37.46679,-1.20899 z m 54.20117,15.07813 c -0.24367,2.2e-4 -22.0736,21.91898 -48.51172,48.70703 l -48.06836,48.70507 48.24023,48.089849 c 26.53175,26.44918 48.43097,48.08836 48.66602,48.08789 0.23505,-4.2e-4 1.01391,-1.796637 1.73047,-3.992187 1.24925,-3.827972 1.29514,-7.638235 1.16016,-92.806642 -0.13638,-85.16836 -0.19542,-88.9788 -1.45704,-92.80273 -0.72354,-2.19319 -1.51633,-3.98862 -1.75976,-3.98828 z m -305.41602,0.48828 c -0.32174,4.9e-4 -1.21762,2.06585 -1.99218,4.58789 -1.386079,4.51317 -1.406195,5.96536 -1.26563,92.11328 0.14195,86.324535 0.22371,89.544869 2.37695,95.044921 h -0.002 c 0.77028,1.96783 0.79133,1.947639 49.12695,-46.539063 26.59557,-26.678738 48.29104,-48.572898 48.21094,-48.654298 -20.1082,-20.5346 -96.04939,-96.55349 -96.45508,-96.55273 z m 107.25586,107.32812 -48.2539,48.816408 -48.25586,48.816406 1.93164,1.013672 c 1.06213,0.55762 3.17973,1.409345 4.70703,1.890625 2.2085,0.69632 30.1883,0.802894 136.69531,0.527344 l 133.91602,-0.345703 3.66015,-1.740234 3.66016,-1.740235 -48.64648,-48.470703 -48.64844,-48.46875 -11.625,11.52539 c -8.98322,8.90694 -12.61053,12.02441 -15.95899,13.7168 -12.21211,6.17277 -26.09356,5.52421 -37.58398,-1.75782 -2.06692,-1.30996 -8.67178,-7.19683 -14.67774,-13.08203 z"
         style="fill:#000000;fill-opacity:0.49019608;stroke-width:0.69387031" />
      <path
         inkscape:connector-curvature="0"
         id="path851"
         d="m 257.38477,-350.45703 -15.9336,44.78906 -42.91797,-20.4043 20.40235,42.91993 -44.78907,15.93164 21.14063,7.51953 58.97266,-0.17578 c 28.51359,-0.0853 48.55031,-0.14015 66.21484,-0.17774 l 20.14648,-7.16601 -44.78906,-15.93164 20.4043,-42.91993 -42.91992,20.4043 z"
         style="color:#4d4d4d;fill:#000000;fill-opacity:0.49019608;stroke:none;stroke-width:13.87288094" />
    </g>
    <g
       id="g847">
      <path
         style="fill:#ffffff;stroke-width:0.69387031"
         d="m 354.5293,-260.09961 c -8.36853,-0.007 -21.12856,0.0174 -34.05469,0.0449 l -24.64258,8.76563 20.4043,42.91992 -42.91992,-20.40234 -15.93164,44.78906 -15.9336,-44.78906 -42.91797,20.40234 20.40235,-42.91992 -23.64844,-8.41211 -74.25,0.22265 -3.70117,1.67774 -3.69922,1.67969 64.51953,64.3457 c 35.48603,35.39021 65.55813,64.9942 66.82813,65.78711 1.26985,0.79308 3.61457,1.86601 5.20898,2.38476 3.96453,1.28996 11.13232,0.80386 15.39648,-1.04492 2.93276,-1.27162 13.21878,-11.35944 67.97071,-66.65234 40.61184,-41.01309 64.22432,-65.34861 63.73047,-65.67969 -0.43136,-0.28949 -2.8131,-1.14831 -5.29493,-1.91015 -2.7875,-0.85557 -4.45889,-1.1814 -37.46679,-1.20899 z m 54.20117,15.07813 c -0.24367,2.2e-4 -22.0736,21.91898 -48.51172,48.70703 l -48.06836,48.70507 48.24023,48.089849 c 26.53175,26.44918 48.43097,48.08836 48.66602,48.08789 0.23505,-4.2e-4 1.01391,-1.796637 1.73047,-3.992187 1.24925,-3.827972 1.29514,-7.638235 1.16016,-92.806642 -0.13638,-85.16836 -0.19542,-88.9788 -1.45704,-92.80273 -0.72354,-2.19319 -1.51633,-3.98862 -1.75976,-3.98828 z m -305.41602,0.48828 c -0.32174,4.9e-4 -1.21762,2.06585 -1.99218,4.58789 -1.386079,4.51317 -1.406195,5.96536 -1.26563,92.11328 0.14195,86.324535 0.22371,89.544869 2.37695,95.044921 h -0.002 c 0.77028,1.96783 0.79133,1.947639 49.12695,-46.539063 26.59557,-26.678738 48.29104,-48.572898 48.21094,-48.654298 -20.1082,-20.5346 -96.04939,-96.55349 -96.45508,-96.55273 z m 107.25586,107.32812 -48.2539,48.816408 -48.25586,48.816406 1.93164,1.013672 c 1.06213,0.55762 3.17973,1.409345 4.70703,1.890625 2.2085,0.69632 30.1883,0.802894 136.69531,0.527344 l 133.91602,-0.345703 3.66015,-1.740234 3.66016,-1.740235 -48.64648,-48.470703 -48.64844,-48.46875 -11.625,11.52539 c -8.98322,8.90694 -12.61053,12.02441 -15.95899,13.7168 -12.21211,6.17277 -26.09356,5.52421 -37.58398,-1.75782 -2.06692,-1.30996 -8.67178,-7.19683 -14.67774,-13.08203 z"
         id="path844"
         inkscape:connector-curvature="0" />
      <path
         style="color:#4d4d4d;fill:#ffffff;fill-opacity:1;stroke:none;stroke-width:13.87288094"
         d="m 257.38477,-350.45703 -15.9336,44.78906 -42.91797,-20.4043 20.40235,42.91993 -44.78907,15.93164 21.14063,7.51953 58.97266,-0.17578 c 28.51359,-0.0853 48.55031,-0.14015 66.21484,-0.17774 l 20.14648,-7.16601 -44.78906,-15.93164 20.4043,-42.91993 -42.91992,20.4043 z"
         id="path839"
         inkscape:connector-curvature="0" />
    </g>
  </g>
</svg>
