<?xml version="1.0" encoding="UTF-8" standalone="no"?>
<svg
   xmlns:dc="http://purl.org/dc/elements/1.1/"
   xmlns:cc="http://creativecommons.org/ns#"
   xmlns:rdf="http://www.w3.org/1999/02/22-rdf-syntax-ns#"
   xmlns:svg="http://www.w3.org/2000/svg"
   xmlns="http://www.w3.org/2000/svg"
   xmlns:sodipodi="http://sodipodi.sourceforge.net/DTD/sodipodi-0.dtd"
   xmlns:inkscape="http://www.inkscape.org/namespaces/inkscape"
   viewBox="0 0 64 64"
   version="1.1"
   id="svg6"
   sodipodi:docname="mail-send.svg"
   width="64"
   height="64"
   inkscape:version="0.92.2 5c3e80d, 2017-08-06">
  <metadata
     id="metadata10">
    <rdf:RDF>
      <cc:Work
         rdf:about="">
        <dc:format>image/svg+xml</dc:format>
        <dc:type
           rdf:resource="http://purl.org/dc/dcmitype/StillImage" />
        <dc:title></dc:title>
      </cc:Work>
    </rdf:RDF>
  </metadata>
  <sodipodi:namedview
     pagecolor="#ffffff"
     bordercolor="#666666"
     borderopacity="1"
     objecttolerance="10"
     gridtolerance="10"
     guidetolerance="10"
     inkscape:pageopacity="0"
     inkscape:pageshadow="2"
     inkscape:window-width="1366"
     inkscape:window-height="717"
     id="namedview8"
     showgrid="false"
     inkscape:zoom="0.4609375"
     inkscape:cx="598.46845"
     inkscape:cy="104.38311"
     inkscape:window-x="0"
     inkscape:window-y="24"
     inkscape:window-maximized="1"
     inkscape:current-layer="svg6" />
  <defs
     id="defs3051">
    <style
       type="text/css"
       id="current-color-scheme">
      .ColorScheme-Text {
        color:#4d4d4d;
      }
      </style>
  </defs>
  <g
     id="g861"
     transform="matrix(0.125,0,0,0.125,0,56)">
    <path
       style="fill:#3689e6;fill-opacity:1;stroke-width:11.10955811"
       inkscape:connector-curvature="0"
       d="m 432.91328,-391.52603 c 102.1929,88.57459 105.82677,249.69971 8.11679,359.898799 C 343.3201,78.571833 181.27964,96.100617 79.086728,7.5260093 -23.106186,-81.048567 -26.740042,-242.17369 70.969929,-352.37277 168.6799,-462.57185 330.72037,-480.10062 432.91328,-391.52603 Z"
       id="path27" />
    <path
       style="opacity:1;fill:#000000;fill-opacity:0.49019608;stroke-width:11.10955811"
       inkscape:connector-curvature="0"
       d="m 511.63552,-223.09649 c -1.55139,61.31165 -25.16124,124.154619 -70.96639,175.814483 C 342.95914,62.917105 180.91869,80.445841 78.725777,-8.1287107 30.827124,-49.644375 4.496822,-107.07716 0.19382788,-167.77119 0.79907956,-101.41453 27.117412,-37.517815 79.078683,7.5190573 181.27159,96.093609 343.31975,78.556193 441.02204,-31.634239 c 49.70493,-56.058112 73.005,-125.290961 70.61348,-191.462251 z"
       id="path51" />
    <path
       inkscape:connector-curvature="0"
       style="fill:#000000;fill-opacity:0.49019608;stroke-width:0.69387031"
       d="m 374.52887,-284.10002 c -19.80474,-0.0165 -50.89095,0.075 -100.26953,0.22266 l -133.22266,0.39843 -3.70117,1.67774 -3.69922,1.67969 23.94726,23.88281 h 55.32032 v 28 h -27.24414 l 12.49609,12.46289 c 5.49193,5.4771 10.4752,10.42253 15.62109,15.53711 h 19.06836 v 18.9082 c 18.16027,17.95756 31.32907,30.83635 32.13868,31.3418 1.26985,0.79307 3.61457,1.86604 5.20898,2.38476 3.96453,1.28996 11.13232,0.80386 15.39648,-1.04492 2.93276,-1.27162 13.21878,-11.35943 67.97071,-66.65234 40.61184,-41.01308 64.22431,-65.34662 63.73047,-65.67774 -0.43136,-0.28948 -2.8131,-1.15026 -5.29493,-1.9121 -2.7875,-0.85558 -4.45889,-1.18141 -37.46679,-1.20899 z m 54.20117,15.07813 c -0.24367,2.2e-4 -22.0736,21.91898 -48.51172,48.70703 l -48.06836,48.70507 48.24023,48.08985 c 26.53175,26.449181 48.43098,48.088362 48.66602,48.08789 0.23505,-4.16e-4 1.01391,-1.796635 1.73047,-3.992187 1.24925,-3.827962 1.29512,-7.638242 1.16016,-92.806643 -0.13638,-85.16836 -0.19542,-88.97879 -1.45704,-92.80273 -0.72354,-2.19319 -1.51632,-3.98862 -1.75976,-3.98828 z m -305.41602,0.48828 c -0.32174,5e-4 -1.21762,2.06585 -1.99218,4.58789 -0.49428,1.60942 -0.81431,2.89641 -1.01563,7.70703 h 15.51758 c -7.53389,-7.49071 -12.40801,-12.29511 -12.50977,-12.29492 z m -3.30273,40.29492 c -0.01,6.43822 0.0133,18.84151 0.0215,28 h 71.74414 c -8.95841,-9.005 -18.55355,-18.63825 -27.90625,-28 z m 0.0449,56 c 3e-4,0.18537 -3e-4,0.22002 0,0.40625 0.0194,11.79308 0.0477,18.68495 0.0703,27.59375 h 72.22657 c 15.32158,-15.41849 27.47169,-27.6856 27.41601,-27.74219 -0.0645,-0.0658 -0.18831,-0.19085 -0.25391,-0.25781 z m 110.51367,11.0332 -16.77148,16.9668 h 34.33203 c -2.13975,-1.95758 -4.4011,-4.07113 -6.64063,-6.26563 z m 90.76563,0.29883 -11.625,11.52539 c -8.98322,8.90694 -12.61053,12.02441 -15.95899,13.7168 -12.21211,6.17277 -26.09356,5.52419 -37.58398,-1.75782 -1.10417,-0.6998 -3.53616,-2.74724 -6.44727,-5.36132 v 26.54492 h -63.59961 l -3.80468,3.84961 -23.87305,24.150391 H 272.73197 V -60.23869 H 149.06598 c 14.38302,0.292844 50.03875,0.300181 128.32812,0.09766 l 133.91602,-0.34375 3.66015,-1.742187 3.66016,-1.740235 -48.64648,-48.470698 z m -201.11328,44.66797 c 0.089,14.11461 0.23803,22.497031 0.49804,28.000001 h 15.69922 c 6.14806,-6.04899 14.8624,-14.762091 28.0625,-28.000001 z"
       id="path855" />
    <path
       id="path844"
       d="m 354.5293,-304.09961 c -19.80474,-0.0165 -50.89095,0.075 -100.26953,0.22266 l -133.22266,0.39843 -3.70117,1.67774 -3.69922,1.67969 23.94726,23.88281 h 55.32032 v 28 h -27.24414 l 12.49609,12.46289 c 5.49193,5.4771 10.4752,10.42253 15.62109,15.53711 h 19.06836 v 18.9082 c 18.16027,17.95756 31.32907,30.83635 32.13868,31.3418 1.26985,0.79307 3.61457,1.86604 5.20898,2.38476 3.96453,1.28996 11.13232,0.80386 15.39648,-1.04492 2.93276,-1.27162 13.21878,-11.35943 67.97071,-66.65234 40.61184,-41.01308 64.22431,-65.34662 63.73047,-65.67774 -0.43136,-0.28948 -2.8131,-1.15026 -5.29493,-1.9121 -2.7875,-0.85558 -4.45889,-1.18141 -37.46679,-1.20899 z m 54.20117,15.07813 c -0.24367,2.2e-4 -22.0736,21.91898 -48.51172,48.70703 l -48.06836,48.70507 48.24023,48.08985 c 26.53175,26.44918 48.43098,48.088361 48.66602,48.087889 0.23505,-4.16e-4 1.01391,-1.796635 1.73047,-3.992187 1.24925,-3.827962 1.29512,-7.638242 1.16016,-92.806642 -0.13638,-85.16836 -0.19542,-88.97879 -1.45704,-92.80273 -0.72354,-2.19319 -1.51632,-3.98862 -1.75976,-3.98828 z m -305.41602,0.48828 c -0.32174,5e-4 -1.21762,2.06585 -1.99218,4.58789 -0.49428,1.60942 -0.81431,2.89641 -1.01563,7.70703 h 15.51758 c -7.53389,-7.49071 -12.40801,-12.29511 -12.50977,-12.29492 z m -3.30273,40.29492 c -0.01,6.43822 0.0133,18.84151 0.0215,28 h 71.74414 c -8.95841,-9.005 -18.55355,-18.63825 -27.90625,-28 z m 0.0449,56 c 3e-4,0.18537 -3e-4,0.22002 0,0.40625 0.0194,11.79308 0.0477,18.68495 0.0703,27.59375 h 72.22657 c 15.32158,-15.41849 27.47169,-27.6856 27.41601,-27.74219 -0.0645,-0.0658 -0.18831,-0.19085 -0.25391,-0.25781 z m 110.51367,11.0332 -16.77148,16.9668 h 34.33203 c -2.13975,-1.95758 -4.4011,-4.07113 -6.64063,-6.26563 z m 90.76563,0.29883 -11.625,11.52539 c -8.98322,8.90694 -12.61053,12.02441 -15.95899,13.7168 -12.21211,6.17277 -26.09356,5.52419 -37.58398,-1.75782 -1.10417,-0.6998 -3.53616,-2.74724 -6.44727,-5.36132 v 26.54492 h -63.59961 l -3.80468,3.84961 -23.87305,24.15039 h 114.28906 v 27.999999 H 129.06641 c 14.38302,0.292844 50.03875,0.300181 128.32812,0.09766 l 133.91602,-0.34375 3.66015,-1.742187 3.66016,-1.740235 -48.64648,-48.470703 z m -201.11328,44.66797 c 0.089,14.11461 0.23803,22.49703 0.49804,28 h 15.69922 c 6.14806,-6.04899 14.8624,-14.76209 28.0625,-28 z"
       style="fill:#ffffff;stroke-width:0.69387031"
       inkscape:connector-curvature="0" />
  </g>
</svg>
