<?xml version="1.0" encoding="UTF-8" standalone="no"?>
<svg
   xmlns:dc="http://purl.org/dc/elements/1.1/"
   xmlns:cc="http://creativecommons.org/ns#"
   xmlns:rdf="http://www.w3.org/1999/02/22-rdf-syntax-ns#"
   xmlns:svg="http://www.w3.org/2000/svg"
   xmlns="http://www.w3.org/2000/svg"
   xmlns:sodipodi="http://sodipodi.sourceforge.net/DTD/sodipodi-0.dtd"
   xmlns:inkscape="http://www.inkscape.org/namespaces/inkscape"
   viewBox="0 0 64 64"
   version="1.1"
   id="svg6"
   sodipodi:docname="mail-attachment.svg"
   width="64"
   height="64"
   inkscape:version="0.92.2 5c3e80d, 2017-08-06">
  <metadata
     id="metadata10">
    <rdf:RDF>
      <cc:Work
         rdf:about="">
        <dc:format>image/svg+xml</dc:format>
        <dc:type
           rdf:resource="http://purl.org/dc/dcmitype/StillImage" />
        <dc:title></dc:title>
      </cc:Work>
    </rdf:RDF>
  </metadata>
  <sodipodi:namedview
     pagecolor="#ffffff"
     bordercolor="#666666"
     borderopacity="1"
     objecttolerance="10"
     gridtolerance="10"
     guidetolerance="10"
     inkscape:pageopacity="0"
     inkscape:pageshadow="2"
     inkscape:window-width="1366"
     inkscape:window-height="717"
     id="namedview8"
     showgrid="false"
     inkscape:zoom="0.65186407"
     inkscape:cx="430.70952"
     inkscape:cy="232.52522"
     inkscape:window-x="0"
     inkscape:window-y="24"
     inkscape:window-maximized="1"
     inkscape:current-layer="svg6" />
  <defs
     id="defs3051">
    <style
       type="text/css"
       id="current-color-scheme">
      .ColorScheme-Text {
        color:#4d4d4d;
      }
      </style>
  </defs>
  <g
     id="g879"
     transform="matrix(0.125,0,0,0.125,-1.576692e-8,56)">
    <path
       style="fill:#3689e6;fill-opacity:1;stroke-width:11.10955811"
       inkscape:connector-curvature="0"
       d="m 432.91327,-391.52603 c 102.19291,88.57459 105.82678,249.6997 8.1168,359.898789 C 343.3201,78.571841 181.27964,96.10061 79.086729,7.52602 -23.106186,-81.04857 -26.740042,-242.17369 70.969928,-352.37277 168.6799,-462.57185 330.72036,-480.10062 432.91327,-391.52603 Z"
       id="path27" />
    <path
       style="opacity:1;fill:#000000;fill-opacity:0.49019608;stroke-width:11.10955811"
       inkscape:connector-curvature="0"
       d="m 511.63551,-223.09649 c -1.55139,61.31165 -25.16123,124.15461 -70.96638,175.814484 C 342.95915,62.917113 180.91869,80.445844 78.725776,-8.128708 30.827124,-49.644362 4.4968216,-107.07716 0.1938277,-167.7712 0.79907936,-101.41452 27.117411,-37.517823 79.078682,7.519065 181.27159,96.093617 343.31975,78.556194 441.02202,-31.634233 490.72697,-87.69234 514.02704,-156.9252 511.63551,-223.09649 Z"
       id="path51" />
    <g
       style="fill:#000000;fill-opacity:0.49019608"
       transform="translate(20.00018,20.000222)"
       id="g869">
      <path
         inkscape:connector-curvature="0"
         id="path865"
         d="m 354.5293,-260.09961 c -9.4635,-0.008 -21.93421,0.013 -37.31446,0.0488 -4.23464,4.23619 -6.6264,6.63993 -11.80078,11.8164 -34.91962,34.9336 -52.97883,52.77149 -54.26562,53.60157 -2.51256,1.62072 -6.43319,3.03357 -9.66016,3.48242 -1.55604,0.21685 -8.53042,0.35184 -17.58789,0.33789 -12.13656,-0.0254 -15.35842,-0.11561 -16.83594,-0.51367 v 0.002 c -7.08507,-1.90215 -12.44212,-7.38658 -14.10547,-14.44336 -0.40583,-1.72167 -0.50331,-4.80604 -0.50586,-16.08398 -0.002,-8.12555 0.14822,-15.20215 0.36133,-16.94336 0.48575,-3.97779 1.65209,-7.55719 3.3125,-10.16016 0.37918,-0.59448 4.64014,-5.02039 10.25977,-10.7793 l -85.34961,0.25586 -3.70117,1.67774 -3.69922,1.67969 64.51953,64.3457 c 35.48603,35.39021 65.55819,64.99413 66.82813,65.78711 1.26985,0.79306 3.61455,1.86598 5.20898,2.38476 3.96454,1.28991 11.13232,0.80399 15.39648,-1.04492 2.93276,-1.27162 13.21876,-11.35944 67.97071,-66.65234 40.61182,-41.01309 64.22423,-65.34665 63.73047,-65.67774 -0.43136,-0.28947 -2.8131,-1.15026 -5.29493,-1.9121 -2.78749,-0.85558 -4.45889,-1.18141 -37.46679,-1.20899 z m -52.20118,0.0879 c -2.1528,0.006 -5.03789,0.0133 -7.30273,0.0195 -24.39675,24.39771 -24.51891,24.13318 -29.49023,24.70703 -1.76301,0.20419 -6.67716,0.31605 -11.12891,0.25391 -7.86478,-0.11413 -7.99973,-0.12772 -9.89453,-1.01172 -2.42353,-1.1351 -5.6143,-4.15665 -6.70703,-6.34961 l -0.83985,-1.68554 v -9.67383 c 0,-2.18118 0.0291,-4.23587 0.0723,-6.07422 l -16.14649,0.0488 c -11.0587,11.18792 -15.52514,15.87571 -15.94726,16.72461 -1.34828,2.71156 -1.59048,6.26196 -1.47266,21.69921 0.0887,12.41762 0.16526,13.91864 0.70313,15.11133 0.76222,1.68997 1.71951,2.71107 3.38867,3.60938 1.29618,0.69754 1.70158,0.7161 16.44531,0.8125 16.23536,0.10143 18.31984,-0.0379 20.94922,-1.47071 1.0273,-0.55932 18.04813,-17.36653 52.87695,-52.21679 1.81927,-1.8204 2.79342,-2.80144 4.49414,-4.50391 z m -22.4082,0.0625 c -8.80557,0.0255 -15.3125,0.0413 -25.66015,0.0723 l -6.19336,0.0176 c -0.0288,0.97588 -0.0509,2.17621 -0.0742,3.75586 -0.076,4.85315 0.0137,7.23457 0.29687,7.90625 0.728,1.75832 1.54849,1.92794 9.33985,1.91993 6.38483,-0.007 7.22332,-0.0766 8.57226,-0.68164 0.71924,-0.32386 4.79107,-4.18459 13.71875,-12.99024 z m 128.81055,14.92774 c -0.24367,2.2e-4 -22.0736,21.91899 -48.51172,48.70703 l -48.06836,48.70507 48.23828,48.089849 c 26.53174,26.44918 48.43289,48.08835 48.66797,48.08789 0.23505,-4.1e-4 1.01387,-1.796737 1.73047,-3.992187 1.2492,-3.82798 1.29623,-7.638242 1.16016,-92.806642 -0.13632,-85.16837 -0.19547,-88.9788 -1.45704,-92.80273 -0.72363,-2.19319 -1.51636,-3.98862 -1.75976,-3.98828 z m -305.41602,0.48828 c -0.32174,4.9e-4 -1.21763,2.06584 -1.99218,4.58789 -1.386192,4.51317 -1.406113,5.96538 -1.26563,92.11328 0.14194,86.324568 0.2237,89.544871 2.37695,95.044921 h -0.002 c 0.77028,1.96781 0.79133,1.947627 49.12695,-46.539063 26.59556,-26.678738 48.29104,-48.572298 48.21094,-48.654298 -20.10821,-20.53459 -96.04939,-96.55349 -96.45508,-96.55273 z m 107.25586,107.32812 -48.2539,48.816408 -48.25586,48.816406 1.93164,1.013672 c 1.06213,0.5577 3.17973,1.409265 4.70703,1.890625 2.2085,0.69592 30.18829,0.802864 136.69531,0.527344 l 133.91602,-0.345703 3.66015,-1.740234 3.66016,-1.740235 -48.64648,-48.470703 -48.64844,-48.46875 -11.625,11.52539 c -8.98322,8.90695 -12.61052,12.02432 -15.95899,13.7168 -12.21211,6.17276 -26.09356,5.52421 -37.58398,-1.75782 -2.06693,-1.30997 -8.67178,-7.19681 -14.67774,-13.08203 z"
         style="fill:#000000;fill-opacity:0.49019608;stroke-width:0.69387025" />
      <path
         inkscape:connector-curvature="0"
         id="path867"
         d="m 328.54102,-349.55859 c -4.80162,-0.1181 -9.83968,1.4256 -14.38086,4.55078 -1.11734,0.76895 -17.55672,16.96983 -38.5586,37.99609 -39.34475,39.39116 -37.48869,37.36904 -38.28515,41.67774 -0.11734,0.63659 -0.21543,2.78868 -0.2793,5.50781 l 11.0293,-0.0332 c 0.0902,-3.05345 0.2581,-3.66733 0.82226,-4.8496 0.63806,-1.33611 7.6234,-8.49949 35.71289,-36.61524 40.09987,-40.13754 36.23372,-36.80664 42.72852,-36.80664 5.79701,0 5.94607,0.0885 14.67773,8.74219 7.78362,7.714 8.50683,8.71707 9.27539,12.87305 0.44059,2.38459 -0.052,5.51505 -1.24414,7.91601 -0.64625,1.30172 -10.9052,11.74444 -47.71094,48.58789 4.67831,-0.0124 10.71521,-0.0294 14.88672,-0.0391 42.52151,-42.53707 42.40172,-42.55781 44.20704,-47.93555 1.13634,-3.38679 1.34971,-6.55986 0.66992,-9.91797 -1.37683,-6.79539 -3.54239,-10.01738 -13.0586,-19.42578 -7.41025,-7.32641 -8.72883,-8.42412 -12.26172,-10.20312 -2.55302,-1.28556 -5.3495,-1.95454 -8.23046,-2.02539 z m -36.26758,5.77343 c -0.6206,0.0178 -1.25241,0.15807 -1.86914,0.43946 -1.66303,0.75878 -60.31089,59.31707 -84.01758,83.61132 l 14.5039,-0.043 c 7.01969,-7.10171 16.13236,-16.26968 30.35547,-30.51368 24.99658,-25.03307 45.61476,-45.84072 45.81641,-46.24023 0.20289,-0.39913 0.36719,-1.33974 0.36719,-2.0918 0,-3.01567 -2.46698,-5.23929 -5.15625,-5.16211 z m 47.9375,25.69532 c -2.19048,0.0727 -6.49248,4.51899 -37.63282,35.61914 -10.29931,10.28606 -17.1812,17.11935 -22.6582,22.52148 5.18362,-0.015 10.42072,-0.0301 15.10547,-0.043 4.32028,-4.32045 7.79927,-7.79121 13.92578,-13.92383 39.34246,-39.38216 37.0798,-36.90433 36.50781,-39.95312 -0.28981,-1.54527 -2.03469,-3.32696 -3.76562,-3.8457 -0.58461,-0.17517 -0.97693,-0.39178 -1.48242,-0.375 z"
         style="fill:#000000;fill-opacity:0.49019608;stroke-width:0.33222443" />
    </g>
    <g
       id="g863">
      <path
         style="fill:#ffffff;stroke-width:0.69387025"
         d="m 354.5293,-260.09961 c -9.4635,-0.008 -21.93421,0.013 -37.31446,0.0488 -4.23464,4.23619 -6.6264,6.63993 -11.80078,11.8164 -34.91962,34.9336 -52.97883,52.77149 -54.26562,53.60157 -2.51256,1.62072 -6.43319,3.03357 -9.66016,3.48242 -1.55604,0.21685 -8.53042,0.35184 -17.58789,0.33789 -12.13656,-0.0254 -15.35842,-0.11561 -16.83594,-0.51367 v 0.002 c -7.08507,-1.90215 -12.44212,-7.38658 -14.10547,-14.44336 -0.40583,-1.72167 -0.50331,-4.80604 -0.50586,-16.08398 -0.002,-8.12555 0.14822,-15.20215 0.36133,-16.94336 0.48575,-3.97779 1.65209,-7.55719 3.3125,-10.16016 0.37918,-0.59448 4.64014,-5.02039 10.25977,-10.7793 l -85.34961,0.25586 -3.70117,1.67774 -3.69922,1.67969 64.51953,64.3457 c 35.48603,35.39021 65.55819,64.99413 66.82813,65.78711 1.26985,0.79306 3.61455,1.86598 5.20898,2.38476 3.96454,1.28991 11.13232,0.80399 15.39648,-1.04492 2.93276,-1.27162 13.21876,-11.35944 67.97071,-66.65234 40.61182,-41.01309 64.22423,-65.34665 63.73047,-65.67774 -0.43136,-0.28947 -2.8131,-1.15026 -5.29493,-1.9121 -2.78749,-0.85558 -4.45889,-1.18141 -37.46679,-1.20899 z m -52.20118,0.0879 c -2.1528,0.006 -5.03789,0.0133 -7.30273,0.0195 -24.39675,24.39771 -24.51891,24.13318 -29.49023,24.70703 -1.76301,0.20419 -6.67716,0.31605 -11.12891,0.25391 -7.86478,-0.11413 -7.99973,-0.12772 -9.89453,-1.01172 -2.42353,-1.1351 -5.6143,-4.15665 -6.70703,-6.34961 l -0.83985,-1.68554 v -9.67383 c 0,-2.18118 0.0291,-4.23587 0.0723,-6.07422 l -16.14649,0.0488 c -11.0587,11.18792 -15.52514,15.87571 -15.94726,16.72461 -1.34828,2.71156 -1.59048,6.26196 -1.47266,21.69921 0.0887,12.41762 0.16526,13.91864 0.70313,15.11133 0.76222,1.68997 1.71951,2.71107 3.38867,3.60938 1.29618,0.69754 1.70158,0.7161 16.44531,0.8125 16.23536,0.10143 18.31984,-0.0379 20.94922,-1.47071 1.0273,-0.55932 18.04813,-17.36653 52.87695,-52.21679 1.81927,-1.8204 2.79342,-2.80144 4.49414,-4.50391 z m -22.4082,0.0625 c -8.80557,0.0255 -15.3125,0.0413 -25.66015,0.0723 l -6.19336,0.0176 c -0.0288,0.97588 -0.0509,2.17621 -0.0742,3.75586 -0.076,4.85315 0.0137,7.23457 0.29687,7.90625 0.728,1.75832 1.54849,1.92794 9.33985,1.91993 6.38483,-0.007 7.22332,-0.0766 8.57226,-0.68164 0.71924,-0.32386 4.79107,-4.18459 13.71875,-12.99024 z m 128.81055,14.92774 c -0.24367,2.2e-4 -22.0736,21.91899 -48.51172,48.70703 l -48.06836,48.70507 48.23828,48.089849 c 26.53174,26.44918 48.43289,48.08835 48.66797,48.08789 0.23505,-4.1e-4 1.01387,-1.796737 1.73047,-3.992187 1.2492,-3.82798 1.29623,-7.638242 1.16016,-92.806642 -0.13632,-85.16837 -0.19547,-88.9788 -1.45704,-92.80273 -0.72363,-2.19319 -1.51636,-3.98862 -1.75976,-3.98828 z m -305.41602,0.48828 c -0.32174,4.9e-4 -1.21763,2.06584 -1.99218,4.58789 -1.386192,4.51317 -1.406113,5.96538 -1.26563,92.11328 0.14194,86.324568 0.2237,89.544871 2.37695,95.044921 h -0.002 c 0.77028,1.96781 0.79133,1.947627 49.12695,-46.539063 26.59556,-26.678738 48.29104,-48.572298 48.21094,-48.654298 -20.10821,-20.53459 -96.04939,-96.55349 -96.45508,-96.55273 z m 107.25586,107.32812 -48.2539,48.816408 -48.25586,48.816406 1.93164,1.013672 c 1.06213,0.5577 3.17973,1.409265 4.70703,1.890625 2.2085,0.69592 30.18829,0.802864 136.69531,0.527344 l 133.91602,-0.345703 3.66015,-1.740234 3.66016,-1.740235 -48.64648,-48.470703 -48.64844,-48.46875 -11.625,11.52539 c -8.98322,8.90695 -12.61052,12.02432 -15.95899,13.7168 -12.21211,6.17276 -26.09356,5.52421 -37.58398,-1.75782 -2.06693,-1.30997 -8.67178,-7.19681 -14.67774,-13.08203 z"
         id="path844"
         inkscape:connector-curvature="0" />
      <path
         style="fill:#ffffff;stroke-width:0.33222443"
         d="m 328.54102,-349.55859 c -4.80162,-0.1181 -9.83968,1.4256 -14.38086,4.55078 -1.11734,0.76895 -17.55672,16.96983 -38.5586,37.99609 -39.34475,39.39116 -37.48869,37.36904 -38.28515,41.67774 -0.11734,0.63659 -0.21543,2.78868 -0.2793,5.50781 l 11.0293,-0.0332 c 0.0902,-3.05345 0.2581,-3.66733 0.82226,-4.8496 0.63806,-1.33611 7.6234,-8.49949 35.71289,-36.61524 40.09987,-40.13754 36.23372,-36.80664 42.72852,-36.80664 5.79701,0 5.94607,0.0885 14.67773,8.74219 7.78362,7.714 8.50683,8.71707 9.27539,12.87305 0.44059,2.38459 -0.052,5.51505 -1.24414,7.91601 -0.64625,1.30172 -10.9052,11.74444 -47.71094,48.58789 4.67831,-0.0124 10.71521,-0.0294 14.88672,-0.0391 42.52151,-42.53707 42.40172,-42.55781 44.20704,-47.93555 1.13634,-3.38679 1.34971,-6.55986 0.66992,-9.91797 -1.37683,-6.79539 -3.54239,-10.01738 -13.0586,-19.42578 -7.41025,-7.32641 -8.72883,-8.42412 -12.26172,-10.20312 -2.55302,-1.28556 -5.3495,-1.95454 -8.23046,-2.02539 z m -36.26758,5.77343 c -0.6206,0.0178 -1.25241,0.15807 -1.86914,0.43946 -1.66303,0.75878 -60.31089,59.31707 -84.01758,83.61132 l 14.5039,-0.043 c 7.01969,-7.10171 16.13236,-16.26968 30.35547,-30.51368 24.99658,-25.03307 45.61476,-45.84072 45.81641,-46.24023 0.20289,-0.39913 0.36719,-1.33974 0.36719,-2.0918 0,-3.01567 -2.46698,-5.23929 -5.15625,-5.16211 z m 47.9375,25.69532 c -2.19048,0.0727 -6.49248,4.51899 -37.63282,35.61914 -10.29931,10.28606 -17.1812,17.11935 -22.6582,22.52148 5.18362,-0.015 10.42072,-0.0301 15.10547,-0.043 4.32028,-4.32045 7.79927,-7.79121 13.92578,-13.92383 39.34246,-39.38216 37.0798,-36.90433 36.50781,-39.95312 -0.28981,-1.54527 -2.03469,-3.32696 -3.76562,-3.8457 -0.58461,-0.17517 -0.97693,-0.39178 -1.48242,-0.375 z"
         id="path854"
         inkscape:connector-curvature="0" />
    </g>
  </g>
</svg>
