<?xml version="1.0" encoding="UTF-8" standalone="no"?>
<svg
   xmlns:dc="http://purl.org/dc/elements/1.1/"
   xmlns:cc="http://creativecommons.org/ns#"
   xmlns:rdf="http://www.w3.org/1999/02/22-rdf-syntax-ns#"
   xmlns:svg="http://www.w3.org/2000/svg"
   xmlns="http://www.w3.org/2000/svg"
   xmlns:sodipodi="http://sodipodi.sourceforge.net/DTD/sodipodi-0.dtd"
   xmlns:inkscape="http://www.inkscape.org/namespaces/inkscape"
   viewBox="0 0 64 64"
   version="1.1"
   id="svg6"
   sodipodi:docname="markasblank.svg"
   width="64"
   height="64"
   inkscape:version="0.92.2 5c3e80d, 2017-08-06">
  <metadata
     id="metadata10">
    <rdf:RDF>
      <cc:Work
         rdf:about="">
        <dc:format>image/svg+xml</dc:format>
        <dc:type
           rdf:resource="http://purl.org/dc/dcmitype/StillImage" />
        <dc:title></dc:title>
      </cc:Work>
    </rdf:RDF>
  </metadata>
  <sodipodi:namedview
     pagecolor="#ffffff"
     bordercolor="#666666"
     borderopacity="1"
     objecttolerance="10"
     gridtolerance="10"
     guidetolerance="10"
     inkscape:pageopacity="0"
     inkscape:pageshadow="2"
     inkscape:window-width="1366"
     inkscape:window-height="717"
     id="namedview8"
     showgrid="false"
     inkscape:zoom="0.4609375"
     inkscape:cx="436.07357"
     inkscape:cy="111.99795"
     inkscape:window-x="0"
     inkscape:window-y="24"
     inkscape:window-maximized="1"
     inkscape:current-layer="svg6" />
  <defs
     id="defs3051">
    <style
       type="text/css"
       id="current-color-scheme">
      .ColorScheme-Text {
        color:#4d4d4d;
      }
      </style>
  </defs>
  <g
     id="g971"
     transform="matrix(0.125,0,0,0.125,-1.5829374e-7,56)">
    <path
       id="path850"
       d="m 432.91324,-391.52606 c 102.19296,88.57458 105.8268,249.69973 8.1168,359.898828 C 343.32004,78.571841 181.27964,96.100609 79.086757,7.5260162 -23.106204,-81.048568 -26.740044,-242.17373 70.969957,-352.3728 168.67988,-462.57189 330.72036,-480.10065 432.91324,-391.52606 Z"
       inkscape:connector-curvature="0"
       style="fill:#3689e6;fill-opacity:1;stroke-width:11.10955906" />
    <path
       id="path852"
       d="m 511.63548,-223.09649 c -1.55136,61.31161 -25.1612,124.154569 -70.96632,175.814442 C 342.95908,62.917073 180.91868,80.445801 78.725797,-8.1287439 30.827157,-49.64436 4.4968361,-107.0772 0.19379608,-167.77119 0.79939608,-101.41456 27.117397,-37.517824 79.078677,7.5190162 181.27156,96.093609 343.31972,78.556153 441.02204,-31.634232 490.727,-87.692376 514.027,-156.92524 511.63548,-223.09649 Z"
       inkscape:connector-curvature="0"
       style="opacity:1;fill:#000000;fill-opacity:0.49019608;stroke-width:11.10955906" />
    <path
       id="rect882"
       d="m 211.21484,-112.75586 v 14.439454 c 0,7.999011 -6.43848,14.4375 -14.4375,14.4375 h 159.07813 c -7.99901,0 -14.4375,-6.438489 -14.4375,-14.4375 v -14.439454 z"
       style="opacity:1;fill:#000000;fill-opacity:0.49019608;stroke:none;stroke-width:0.22720517;stroke-miterlimit:4;stroke-dasharray:none;stroke-dashoffset:0;stroke-opacity:1"
       inkscape:connector-curvature="0" />
    <rect
       style="opacity:1;fill:#000000;fill-opacity:0.49019608;stroke:none;stroke-width:0.22720517;stroke-miterlimit:4;stroke-dasharray:none;stroke-dashoffset:0;stroke-opacity:1"
       id="rect884"
       width="28.877298"
       height="58.848694"
       x="182.33807"
       y="-142.72668"
       ry="14.438649" />
    <rect
       ry="14.438649"
       y="-142.72668"
       x="341.41705"
       height="58.848694"
       width="28.877298"
       id="rect886"
       style="opacity:1;fill:#000000;fill-opacity:0.49019608;stroke:none;stroke-width:0.22720517;stroke-miterlimit:4;stroke-dasharray:none;stroke-dashoffset:0;stroke-opacity:1" />
    <path
       id="rect890"
       d="m 120,-304.0332 v 264.066403 c 0,-13.278044 10.68875,-23.96875 23.9668,-23.96875 h 23.96875 V -280.06445 H 143.9668 c -13.27805,0 -23.9668,-10.69071 -23.9668,-23.96875 z m 5.45898,279.328122 c 0.48765,0.591383 1.00343,1.159679 1.54493,1.701172 -0.54152,-0.541518 -1.05725,-1.109765 -1.54493,-1.701172 z m 1.54493,1.701172 c 0.54149,0.541493 1.10979,1.057273 1.70117,1.544922 -0.59141,-0.487673 -1.15966,-1.003405 -1.70117,-1.544922 z m 5.52148,4.11914 c 0.67882,0.367772 1.37892,0.705654 2.0957,1.007813 -0.71734,-0.302404 -1.41638,-0.639697 -2.0957,-1.007813 z"
       style="opacity:1;fill:#000000;fill-opacity:0.49019608;stroke:none;stroke-width:0.37715164;stroke-miterlimit:4;stroke-dasharray:none;stroke-dashoffset:0;stroke-opacity:1"
       inkscape:connector-curvature="0" />
    <rect
       transform="rotate(90)"
       ry="23.967588"
       y="-217.68651"
       x="-328"
       height="97.686516"
       width="47.935177"
       id="rect892"
       style="opacity:1;fill:#000000;fill-opacity:0.49019608;stroke:none;stroke-width:0.37715164;stroke-miterlimit:4;stroke-dasharray:none;stroke-dashoffset:0;stroke-opacity:1" />
    <rect
       transform="rotate(90)"
       style="opacity:1;fill:#000000;fill-opacity:0.49019608;stroke:none;stroke-width:0.37715164;stroke-miterlimit:4;stroke-dasharray:none;stroke-dashoffset:0;stroke-opacity:1"
       id="rect894"
       width="47.935177"
       height="97.686516"
       x="-63.935184"
       y="-217.68651"
       ry="23.967588" />
    <path
       id="rect898"
       d="m 429.68555,-304.0332 c 0,13.27804 -10.68876,23.96875 -23.9668,23.96875 h -23.9668 v 216.128903 h 23.9668 c 13.27804,0 23.9668,10.690706 23.9668,23.96875 z m -7.00391,281.029294 c -0.41592,0.415922 -0.85125,0.810884 -1.29687,1.195312 0.44523,-0.384133 0.88129,-0.779735 1.29687,-1.195312 z m -5.51953,4.11914 c -0.57374,0.310903 -1.16455,0.595127 -1.76563,0.859375 0.6006,-0.264069 1.19234,-0.548724 1.76563,-0.859375 z"
       style="opacity:1;fill:#000000;fill-opacity:0.49019608;stroke:none;stroke-width:0.37715164;stroke-miterlimit:4;stroke-dasharray:none;stroke-dashoffset:0;stroke-opacity:1"
       inkscape:connector-curvature="0" />
    <rect
       transform="matrix(0,1,1,0,0,0)"
       style="opacity:1;fill:#000000;fill-opacity:0.49019608;stroke:none;stroke-width:0.37715164;stroke-miterlimit:4;stroke-dasharray:none;stroke-dashoffset:0;stroke-opacity:1"
       id="rect900"
       width="47.935177"
       height="97.686516"
       x="-328"
       y="332"
       ry="23.967588" />
    <rect
       transform="matrix(0,1,1,0,0,0)"
       ry="23.967588"
       y="332"
       x="-63.935184"
       height="97.686516"
       width="47.935177"
       id="rect902"
       style="opacity:1;fill:#000000;fill-opacity:0.49019608;stroke:none;stroke-width:0.37715164;stroke-miterlimit:4;stroke-dasharray:none;stroke-dashoffset:0;stroke-opacity:1" />
    <g
       id="g880">
      <g
         id="g850"
         transform="matrix(0.60114702,0,0,0.60114702,102.22337,-82.236698)">
        <rect
           ry="24.018499"
           y="-84.037003"
           x="100"
           height="48.036999"
           width="312.66272"
           id="rect829"
           style="opacity:1;fill:#ffffff;fill-opacity:1;stroke:none;stroke-width:0.37795275;stroke-miterlimit:4;stroke-dasharray:none;stroke-dashoffset:0;stroke-opacity:1" />
        <rect
           ry="24.018499"
           y="-133.89401"
           x="100"
           height="97.894012"
           width="48.036999"
           id="rect831"
           style="opacity:1;fill:#ffffff;fill-opacity:1;stroke:none;stroke-width:0.37795275;stroke-miterlimit:4;stroke-dasharray:none;stroke-dashoffset:0;stroke-opacity:1" />
        <rect
           style="opacity:1;fill:#ffffff;fill-opacity:1;stroke:none;stroke-width:0.37795275;stroke-miterlimit:4;stroke-dasharray:none;stroke-dashoffset:0;stroke-opacity:1"
           id="rect833"
           width="48.036999"
           height="97.894012"
           x="364.62573"
           y="-133.89401"
           ry="24.018499" />
      </g>
      <g
         transform="matrix(0,0.99788036,-0.99788036,0,64.076307,-447.78804)"
         id="g858">
        <rect
           style="opacity:1;fill:#ffffff;fill-opacity:1;stroke:none;stroke-width:0.37795275;stroke-miterlimit:4;stroke-dasharray:none;stroke-dashoffset:0;stroke-opacity:1"
           id="rect852"
           width="312.66272"
           height="48.036999"
           x="100"
           y="-84.037003"
           ry="24.018499" />
        <rect
           style="opacity:1;fill:#ffffff;fill-opacity:1;stroke:none;stroke-width:0.37795275;stroke-miterlimit:4;stroke-dasharray:none;stroke-dashoffset:0;stroke-opacity:1"
           id="rect854"
           width="48.036999"
           height="97.894012"
           x="100"
           y="-133.89401"
           ry="24.018499" />
        <rect
           ry="24.018499"
           y="-133.89401"
           x="364.62573"
           height="97.894012"
           width="48.036999"
           id="rect856"
           style="opacity:1;fill:#ffffff;fill-opacity:1;stroke:none;stroke-width:0.37795275;stroke-miterlimit:4;stroke-dasharray:none;stroke-dashoffset:0;stroke-opacity:1" />
      </g>
      <g
         id="g866"
         transform="matrix(0,0.99788036,0.99788036,0,445.61021,-447.78804)">
        <rect
           ry="24.018499"
           y="-84.037003"
           x="100"
           height="48.036999"
           width="312.66272"
           id="rect860"
           style="opacity:1;fill:#ffffff;fill-opacity:1;stroke:none;stroke-width:0.37795275;stroke-miterlimit:4;stroke-dasharray:none;stroke-dashoffset:0;stroke-opacity:1" />
        <rect
           ry="24.018499"
           y="-133.89401"
           x="100"
           height="97.894012"
           width="48.036999"
           id="rect862"
           style="opacity:1;fill:#ffffff;fill-opacity:1;stroke:none;stroke-width:0.37795275;stroke-miterlimit:4;stroke-dasharray:none;stroke-dashoffset:0;stroke-opacity:1" />
        <rect
           style="opacity:1;fill:#ffffff;fill-opacity:1;stroke:none;stroke-width:0.37795275;stroke-miterlimit:4;stroke-dasharray:none;stroke-dashoffset:0;stroke-opacity:1"
           id="rect864"
           width="48.036999"
           height="97.894012"
           x="364.62573"
           y="-133.89401"
           ry="24.018499" />
      </g>
    </g>
  </g>
</svg>
