<?xml version="1.0" encoding="UTF-8" standalone="no"?>
<svg
   xmlns:dc="http://purl.org/dc/elements/1.1/"
   xmlns:cc="http://creativecommons.org/ns#"
   xmlns:rdf="http://www.w3.org/1999/02/22-rdf-syntax-ns#"
   xmlns:svg="http://www.w3.org/2000/svg"
   xmlns="http://www.w3.org/2000/svg"
   xmlns:sodipodi="http://sodipodi.sourceforge.net/DTD/sodipodi-0.dtd"
   xmlns:inkscape="http://www.inkscape.org/namespaces/inkscape"
   height="64"
   viewBox="0 0 64 64"
   width="64"
   version="1.1"
   id="svg63"
   sodipodi:docname="media-album-track.svg"
   inkscape:version="0.92.2 5c3e80d, 2017-08-06">
  <metadata
     id="metadata69">
    <rdf:RDF>
      <cc:Work
         rdf:about="">
        <dc:format>image/svg+xml</dc:format>
        <dc:type
           rdf:resource="http://purl.org/dc/dcmitype/StillImage" />
      </cc:Work>
    </rdf:RDF>
  </metadata>
  <defs
     id="defs67" />
  <sodipodi:namedview
     pagecolor="#ffffff"
     bordercolor="#666666"
     borderopacity="1"
     objecttolerance="10"
     gridtolerance="10"
     guidetolerance="10"
     inkscape:pageopacity="0"
     inkscape:pageshadow="2"
     inkscape:window-width="1366"
     inkscape:window-height="717"
     id="namedview65"
     showgrid="false"
     inkscape:zoom="3.6875"
     inkscape:cx="32"
     inkscape:cy="32"
     inkscape:window-x="0"
     inkscape:window-y="24"
     inkscape:window-maximized="1"
     inkscape:current-layer="svg63" />
  <radialGradient
     id="a"
     cx="18.520836"
     cy="280.06671"
     gradientTransform="matrix(1.924123 0 0 1.9685039 .927271 -519.31368)"
     gradientUnits="userSpaceOnUse"
     r="12.699996">
    <stop
       offset="0"
       stop-color="#313437"
       id="stop2" />
    <stop
       offset=".97916687"
       stop-color="#313437"
       stop-opacity=".498039"
       id="stop4" />
    <stop
       offset="1"
       stop-color="#313437"
       stop-opacity="0"
       id="stop6" />
  </radialGradient>
  <linearGradient
     id="b"
     gradientTransform="matrix(1.924123 0 0 1.9685039 .927275 -519.3123)"
     gradientUnits="userSpaceOnUse"
     x1="19.049999"
     x2="19.049999"
     y1="292.50208"
     y2="267.63126">
    <stop
       offset="0"
       stop-color="#c6cdd1"
       id="stop9" />
    <stop
       offset="1"
       stop-color="#e0e5e7"
       id="stop11" />
  </linearGradient>
  <linearGradient
     id="c"
     gradientTransform="matrix(1.924123 0 0 1.9685039 -3.145448 -519.31231)"
     gradientUnits="userSpaceOnUse"
     x1="6.614583"
     x2="6.614583"
     y1="292.76672"
     y2="267.36673">
    <stop
       offset="0"
       stop-color="#42a603"
       id="stop14" />
    <stop
       offset="1"
       stop-color="#78da06"
       id="stop16" />
  </linearGradient>
  <linearGradient
     id="d"
     gradientTransform="matrix(1.27402 -.19577 .10158 1 -605.44329 -414.40881)"
     gradientUnits="userSpaceOnUse"
     x1="23.707218"
     x2="37.84013"
     y1="27.76189"
     y2="40.735416">
    <stop
       offset="0"
       stop-color="#ffc35a"
       id="stop19" />
    <stop
       offset="1"
       stop-color="#faae2a"
       id="stop21" />
  </linearGradient>
  <linearGradient
     id="e"
     gradientUnits="userSpaceOnUse"
     x1="19.027754"
     x2="32.370899"
     y1="25.424726"
     y2="42.685452">
    <stop
       offset="0"
       stop-color="#292c2f"
       id="stop24" />
    <stop
       offset="1"
       stop-opacity="0"
       id="stop26" />
  </linearGradient>
  <g
     id="g898">
    <path
       id="path850"
       d="M 54.114155,7.0592425 C 66.888275,18.131065 67.342505,38.271709 55.128755,52.046596 42.915005,65.82148 22.659955,68.012576 9.8858446,56.940752 -2.8882755,45.868929 -3.3425055,25.728284 8.8712446,11.9534 21.084985,-1.8214862 41.340045,-4.0125812 54.114155,7.0592425 Z"
       inkscape:connector-curvature="0"
       style="fill:#68b723;fill-opacity:1;stroke-width:1.38869488" />
    <path
       id="path852"
       d="m 63.954435,28.112939 c -0.19392,7.663951 -3.14515,15.519321 -8.87079,21.976805 -12.21375,13.77489 -32.46881,15.965981 -45.2429204,4.894163 -5.98733,-5.189452 -9.27862006,-12.368557 -9.81650007,-19.955306 0.0757,8.294579 3.36545007,16.281671 9.86061007,21.911276 12.7741104,11.071824 33.0301304,8.879642 45.2429204,-4.894156 6.21312,-7.007268 9.12563,-15.661376 8.82668,-23.932782 z"
       inkscape:connector-curvature="0"
       style="opacity:1;fill:#000000;fill-opacity:0.49019608;stroke-width:1.38869488" />
    <path
       style="opacity:1;fill:#000000;fill-opacity:0.49019608;stroke:none;stroke-width:0.04395063;stroke-miterlimit:4;stroke-dasharray:none;stroke-dashoffset:0;stroke-opacity:1"
       d="M 20.110353,15 C 17.279221,15 15,17.27922 15,20.110351 V 48.889648 C 15,51.720779 17.279221,54 20.110353,54 H 48.889649 C 51.72078,54 54,51.720779 54,48.889648 V 20.110351 C 54,17.27922 51.72078,15 48.889649,15 Z m 25.850097,2.253662 c 0.07754,-0.0013 0.161673,-2.5e-4 0.256104,0.0029 0.389905,0.0132 0.570347,0.04901 0.862549,0.170655 0.718775,0.299228 1.206726,0.933393 1.349852,1.75415 0.03058,0.175358 0.0343,1.395587 0.03418,11.502442 -2.5e-4,11.942723 0.0037,11.438915 -0.09033,11.858642 -0.452948,2.021273 -2.259341,3.815251 -4.64795,4.616212 -1.942514,0.651383 -4.120575,0.558717 -5.692383,-0.242188 -0.489135,-0.24923 -0.888225,-0.543901 -1.26001,-0.930664 -0.46862,-0.487486 -0.770155,-1.016295 -0.93872,-1.645996 -0.167755,-0.626683 -0.167407,-1.407306 7.5e-4,-2.075195 0.336379,-1.336053 1.293848,-2.610184 2.638184,-3.510743 1.128221,-0.755765 2.357474,-1.20036 3.769531,-1.362792 0.402643,-0.04633 1.321132,-0.05323 1.679688,-0.0127 0.669671,0.07575 1.315095,0.237358 1.762451,0.441406 l 0.14917,0.06812 -2.5e-4,-5.429444 c 0,-3.581278 -0.0078,-5.478246 -0.0227,-5.572997 -0.04799,-0.305763 -0.22531,-0.54293 -0.482177,-0.644776 -0.1082,-0.04291 -0.164672,-0.04928 -0.42334,-0.04834 -0.259399,0.0013 -0.324137,0.009 -0.49707,0.06128 -0.177178,0.0536 -2.950508,0.92181 -6.64087,2.079101 -0.711037,0.222975 -2.361853,0.740029 -3.668457,1.148926 -1.306603,0.408874 -2.514653,0.788104 -2.684815,0.842773 -0.471152,0.151393 -0.858473,0.3769 -1.168945,0.680908 -0.238506,0.233553 -0.380202,0.455874 -0.480468,0.75293 l -0.05225,0.15454 -0.01123,7.093995 -0.01122,7.09375 -0.05176,0.276123 c -0.243051,1.296963 -0.924204,2.444841 -2.003174,3.375733 -1.165616,1.005656 -2.660171,1.63825 -4.320312,1.828613 -0.293204,0.03361 -1.120783,0.05845 -1.381104,0.0415 -2.026129,-0.131948 -3.629458,-1.037571 -4.337158,-2.450196 -0.578785,-1.155297 -0.514842,-2.582329 0.174804,-3.90039 0.568165,-1.085875 1.533736,-2.062215 2.737794,-2.768555 1.234881,-0.724432 2.614772,-1.115444 4.087402,-1.158203 0.905457,-0.02628 1.78025,0.119014 2.303223,0.382324 0.08174,0.04115 0.154019,0.07471 0.1604,0.07471 0.0064,0 0.01148,-3.586317 0.01148,-7.969482 0,-7.075486 0.0038,-7.995559 0.03418,-8.204101 0.10345,-0.710737 0.405438,-1.412019 0.880127,-2.043947 0.17785,-0.236746 0.617683,-0.687868 0.853515,-0.875487 0.333176,-0.265074 0.774324,-0.52443 1.13379,-0.66626 0.06319,-0.02493 1.089625,-0.343478 2.280761,-0.708008 8.819434,-2.699165 12.942805,-3.958401 13.083008,-3.995117 0.217402,-0.05695 0.391146,-0.08237 0.62378,-0.08618 z"
       id="path838"
       inkscape:connector-curvature="0" />
    <path
       inkscape:connector-curvature="0"
       id="rect835"
       d="M 17.610353,12.5 C 14.779221,12.5 12.5,14.77922 12.5,17.610351 V 46.389648 C 12.5,49.220779 14.779221,51.5 17.610353,51.5 H 46.389649 C 49.22078,51.5 51.5,49.220779 51.5,46.389648 V 17.610351 C 51.5,14.77922 49.22078,12.5 46.389649,12.5 Z m 25.850097,2.253662 c 0.07754,-0.0013 0.161673,-2.5e-4 0.256104,0.0029 0.389905,0.01321 0.570347,0.04901 0.862549,0.170655 0.718775,0.299228 1.206726,0.933393 1.349852,1.75415 0.03058,0.175358 0.0343,1.395587 0.03418,11.502442 -2.5e-4,11.942723 0.0037,11.438915 -0.09033,11.858642 -0.452948,2.021273 -2.259341,3.815251 -4.64795,4.616212 -1.942514,0.651383 -4.120575,0.558717 -5.692383,-0.242188 -0.489135,-0.24923 -0.888225,-0.543901 -1.26001,-0.930664 -0.46862,-0.487486 -0.770155,-1.016295 -0.93872,-1.645996 -0.167755,-0.626683 -0.167407,-1.407306 7.5e-4,-2.075195 0.336379,-1.336053 1.293848,-2.610184 2.638184,-3.510743 1.128221,-0.755765 2.357474,-1.20036 3.769531,-1.362792 0.402643,-0.04633 1.321132,-0.05323 1.679688,-0.0127 0.669671,0.07575 1.315095,0.237358 1.762451,0.441406 l 0.14917,0.06812 -2.5e-4,-5.429444 c 0,-3.581278 -0.0078,-5.478246 -0.0227,-5.572997 -0.04799,-0.305763 -0.22531,-0.54293 -0.482177,-0.644776 -0.1082,-0.04291 -0.164672,-0.04928 -0.42334,-0.04834 -0.259399,0.0013 -0.324137,0.009 -0.49707,0.06128 -0.177178,0.0536 -2.950508,0.92181 -6.64087,2.079101 -0.711037,0.222975 -2.361853,0.740029 -3.668457,1.148926 -1.306603,0.408874 -2.514653,0.788104 -2.684815,0.842773 -0.471152,0.151393 -0.858473,0.3769 -1.168945,0.680908 -0.238506,0.233553 -0.380202,0.455874 -0.480468,0.75293 l -0.05225,0.15454 -0.01123,7.093995 -0.01122,7.09375 -0.05176,0.276123 c -0.243051,1.296963 -0.924204,2.444841 -2.003174,3.375733 -1.165616,1.005656 -2.660171,1.63825 -4.320312,1.828613 -0.293204,0.03361 -1.120783,0.05845 -1.381104,0.0415 -2.026129,-0.131948 -3.629458,-1.037571 -4.337158,-2.450196 -0.578785,-1.155297 -0.514842,-2.582329 0.174804,-3.90039 0.568165,-1.085875 1.533736,-2.062215 2.737794,-2.768555 1.234881,-0.724432 2.614772,-1.115444 4.087402,-1.158203 0.905457,-0.02628 1.78025,0.119014 2.303223,0.382324 0.08174,0.04115 0.154019,0.07471 0.1604,0.07471 0.0064,0 0.01148,-3.586317 0.01148,-7.969482 0,-7.075486 0.0038,-7.995559 0.03418,-8.204101 0.10345,-0.710737 0.405438,-1.412019 0.880127,-2.043947 0.17785,-0.236746 0.617683,-0.687868 0.853515,-0.875487 0.333176,-0.265074 0.774324,-0.52443 1.13379,-0.66626 0.06319,-0.02493 1.089625,-0.343478 2.280761,-0.708008 8.819434,-2.699165 12.942805,-3.958401 13.083008,-3.995117 0.217402,-0.05695 0.391146,-0.08238 0.62378,-0.08618 z"
       style="opacity:1;fill:#ffffff;fill-opacity:1;stroke:none;stroke-width:0.04395063;stroke-miterlimit:4;stroke-dasharray:none;stroke-dashoffset:0;stroke-opacity:1" />
  </g>
</svg>
