<?xml version="1.0" encoding="UTF-8" standalone="no"?>
<svg
   xmlns:dc="http://purl.org/dc/elements/1.1/"
   xmlns:cc="http://creativecommons.org/ns#"
   xmlns:rdf="http://www.w3.org/1999/02/22-rdf-syntax-ns#"
   xmlns:svg="http://www.w3.org/2000/svg"
   xmlns="http://www.w3.org/2000/svg"
   xmlns:sodipodi="http://sodipodi.sourceforge.net/DTD/sodipodi-0.dtd"
   xmlns:inkscape="http://www.inkscape.org/namespaces/inkscape"
   viewBox="0 0 64 64"
   version="1.1"
   id="svg8"
   sodipodi:docname="media-show-active-track-amarok.svg"
   width="64"
   height="64"
   inkscape:version="0.92.2 5c3e80d, 2017-08-06">
  <metadata
     id="metadata12">
    <rdf:RDF>
      <cc:Work
         rdf:about="">
        <dc:format>image/svg+xml</dc:format>
        <dc:type
           rdf:resource="http://purl.org/dc/dcmitype/StillImage" />
        <dc:title></dc:title>
      </cc:Work>
    </rdf:RDF>
  </metadata>
  <sodipodi:namedview
     pagecolor="#ffffff"
     bordercolor="#666666"
     borderopacity="1"
     objecttolerance="10"
     gridtolerance="10"
     guidetolerance="10"
     inkscape:pageopacity="0"
     inkscape:pageshadow="2"
     inkscape:window-width="1366"
     inkscape:window-height="717"
     id="namedview10"
     showgrid="false"
     inkscape:zoom="3.4766083"
     inkscape:cx="31.561511"
     inkscape:cy="43.878276"
     inkscape:window-x="0"
     inkscape:window-y="24"
     inkscape:window-maximized="1"
     inkscape:current-layer="svg8" />
  <defs
     id="defs3051">
    <style
       type="text/css"
       id="current-color-scheme">
      .ColorScheme-Text {
        color:#4d4d4d;
      }
      .ColorScheme-Highlight {
        color:#3daee9;
      }
      </style>
  </defs>
  <g
     id="g930"
     transform="matrix(0.125,0,0,0.125,-1.576692e-8,61)">
    <path
       id="path934"
       d="m 432.91327,-431.52603 c 102.19291,88.57459 105.82678,249.6997 8.1168,359.898789 C 343.3201,38.571841 181.27964,56.10061 79.086729,-32.47398 -23.106186,-121.04857 -26.740042,-282.17369 70.969928,-392.37277 168.6799,-502.57185 330.72036,-520.10062 432.91327,-431.52603 Z"
       inkscape:connector-curvature="0"
       style="fill:#3689e6;fill-opacity:1;stroke-width:11.10955811" />
    <path
       id="path936"
       d="m 511.63551,-263.09649 c -1.55139,61.31165 -25.16123,124.15461 -70.96638,175.814484 C 342.95915,22.917113 180.91869,40.445844 78.725776,-48.128708 30.827124,-89.644362 4.4968216,-147.07716 0.19382772,-207.7712 0.79907938,-141.41452 27.117411,-77.517823 79.078682,-32.480935 181.27159,56.093617 343.31975,38.556194 441.02202,-71.634233 490.72697,-127.69234 514.02704,-196.9252 511.63551,-263.09649 Z"
       inkscape:connector-curvature="0"
       style="opacity:1;fill:#000000;fill-opacity:0.49019608;stroke-width:11.10955811" />
    <g
       style="fill:#000000;fill-opacity:0.49019608"
       transform="translate(20,20.000207)"
       id="g105">
      <circle
         r="40.022964"
         cy="-347.97702"
         cx="140.02296"
         id="circle91"
         style="opacity:1;fill:#000000;fill-opacity:0.49019608;stroke:none;stroke-width:24.98007584;stroke-miterlimit:4;stroke-dasharray:none;stroke-dashoffset:0;stroke-opacity:1" />
      <circle
         style="opacity:1;fill:#000000;fill-opacity:0.49019608;stroke:none;stroke-width:24.98007584;stroke-miterlimit:4;stroke-dasharray:none;stroke-dashoffset:0;stroke-opacity:1"
         id="circle93"
         cx="140.02296"
         cy="-241.91617"
         r="40.022964" />
      <circle
         r="40.022964"
         cy="-133.85417"
         cx="140.02296"
         id="circle95"
         style="opacity:1;fill:#000000;fill-opacity:0.49019608;stroke:none;stroke-width:24.98007584;stroke-miterlimit:4;stroke-dasharray:none;stroke-dashoffset:0;stroke-opacity:1" />
      <rect
         ry="20.011482"
         y="-362.1496"
         x="215.4052"
         height="40.022964"
         width="195.58681"
         id="rect97"
         style="opacity:1;fill:#000000;fill-opacity:0.49019608;stroke:none;stroke-width:22.94246864;stroke-miterlimit:4;stroke-dasharray:none;stroke-dashoffset:0;stroke-opacity:1" />
      <rect
         style="opacity:1;fill:#000000;fill-opacity:0.49019608;stroke:none;stroke-width:16.22252083;stroke-miterlimit:4;stroke-dasharray:none;stroke-dashoffset:0;stroke-opacity:1"
         id="rect99"
         width="97.790344"
         height="40.022964"
         x="214.93034"
         y="-265.59421"
         ry="20.011482" />
      <rect
         ry="20.011482"
         y="-163.59421"
         x="214.93034"
         height="40.022964"
         width="195.58681"
         id="rect101"
         style="opacity:1;fill:#000000;fill-opacity:0.49019608;stroke:none;stroke-width:22.94246864;stroke-miterlimit:4;stroke-dasharray:none;stroke-dashoffset:0;stroke-opacity:1" />
      <path
         inkscape:connector-curvature="0"
         id="path103"
         d="m 400.40586,-302.11473 c 2.87827,1.0245 5.44479,3.55948 6.30715,6.22963 0.8097,2.50705 0.83008,4.09106 0.0846,6.56835 -1.04376,3.46811 0.95176,1.68558 -34.12597,30.48379 -8.02301,6.58677 -11.11773,9.1325 -18.46382,15.18862 l -1.01457,0.8364 1.26321,1.11875 c 1.49291,1.32222 3.10328,2.6349 29.63461,24.15694 11.19037,9.07752 20.81936,17.06702 21.39778,17.7544 1.0511,1.24918 2.28912,4.64783 2.28912,6.28422 0,0.47702 -0.28413,1.82443 -0.63165,2.99431 -1.2793,4.30788 -5.47534,7.35105 -10.12296,7.34161 -3.09242,-0.006 -5.18465,-0.94147 -8.85126,-3.95632 -1.55267,-1.2767 -3.5021,-2.86913 -4.332,-3.53876 -26.75487,-21.58723 -53.06741,-43.01357 -54.49657,-44.37658 -3.00801,-2.8688 -3.95656,-6.60017 -2.74975,-10.8169 0.75,-2.62058 3.40752,-5.27847 13.39114,-13.39297 7.23249,-5.87843 11.20858,-9.13689 18.07835,-14.81545 1.78566,-1.47602 5.98605,-4.9293 9.33419,-7.67393 3.34814,-2.74459 6.54408,-5.37526 7.1021,-5.84591 7.21377,-6.08416 17.10191,-13.90288 18.12133,-14.32883 2.33063,-0.97378 5.40828,-1.05736 7.78507,-0.21149 z"
         style="fill:#000000;fill-opacity:0.49019608;stroke-width:0.4058345" />
    </g>
    <g
       id="g89">
      <circle
         style="opacity:1;fill:#ffffff;fill-opacity:1;stroke:none;stroke-width:24.98007584;stroke-miterlimit:4;stroke-dasharray:none;stroke-dashoffset:0;stroke-opacity:1"
         id="path835"
         cx="140.02296"
         cy="-347.97702"
         r="40.022964" />
      <circle
         r="40.022964"
         cy="-241.91617"
         cx="140.02296"
         id="circle837"
         style="opacity:1;fill:#ffffff;fill-opacity:1;stroke:none;stroke-width:24.98007584;stroke-miterlimit:4;stroke-dasharray:none;stroke-dashoffset:0;stroke-opacity:1" />
      <circle
         style="opacity:1;fill:#ffffff;fill-opacity:1;stroke:none;stroke-width:24.98007584;stroke-miterlimit:4;stroke-dasharray:none;stroke-dashoffset:0;stroke-opacity:1"
         id="circle839"
         cx="140.02296"
         cy="-133.85417"
         r="40.022964" />
      <rect
         style="opacity:1;fill:#ffffff;fill-opacity:1;stroke:none;stroke-width:22.94246864;stroke-miterlimit:4;stroke-dasharray:none;stroke-dashoffset:0;stroke-opacity:1"
         id="rect841"
         width="195.58681"
         height="40.022964"
         x="215.4052"
         y="-362.1496"
         ry="20.011482" />
      <rect
         ry="20.011482"
         y="-265.59421"
         x="214.93034"
         height="40.022964"
         width="97.790344"
         id="rect843"
         style="opacity:1;fill:#ffffff;fill-opacity:1;stroke:none;stroke-width:16.22252083;stroke-miterlimit:4;stroke-dasharray:none;stroke-dashoffset:0;stroke-opacity:1" />
      <rect
         style="opacity:1;fill:#ffffff;fill-opacity:1;stroke:none;stroke-width:22.94246864;stroke-miterlimit:4;stroke-dasharray:none;stroke-dashoffset:0;stroke-opacity:1"
         id="rect74"
         width="195.58681"
         height="40.022964"
         x="214.93034"
         y="-163.59421"
         ry="20.011482" />
      <path
         style="fill:#ffffff;stroke-width:0.4058345"
         d="m 400.40586,-302.11473 c 2.87827,1.0245 5.44479,3.55948 6.30715,6.22963 0.8097,2.50705 0.83008,4.09106 0.0846,6.56835 -1.04376,3.46811 0.95176,1.68558 -34.12597,30.48379 -8.02301,6.58677 -11.11773,9.1325 -18.46382,15.18862 l -1.01457,0.8364 1.26321,1.11875 c 1.49291,1.32222 3.10328,2.6349 29.63461,24.15694 11.19037,9.07752 20.81936,17.06702 21.39778,17.7544 1.0511,1.24918 2.28912,4.64783 2.28912,6.28422 0,0.47702 -0.28413,1.82443 -0.63165,2.99431 -1.2793,4.30788 -5.47534,7.35105 -10.12296,7.34161 -3.09242,-0.006 -5.18465,-0.94147 -8.85126,-3.95632 -1.55267,-1.2767 -3.5021,-2.86913 -4.332,-3.53876 -26.75487,-21.58723 -53.06741,-43.01357 -54.49657,-44.37658 -3.00801,-2.8688 -3.95656,-6.60017 -2.74975,-10.8169 0.75,-2.62058 3.40752,-5.27847 13.39114,-13.39297 7.23249,-5.87843 11.20858,-9.13689 18.07835,-14.81545 1.78566,-1.47602 5.98605,-4.9293 9.33419,-7.67393 3.34814,-2.74459 6.54408,-5.37526 7.1021,-5.84591 7.21377,-6.08416 17.10191,-13.90288 18.12133,-14.32883 2.33063,-0.97378 5.40828,-1.05736 7.78507,-0.21149 z"
         id="path855"
         inkscape:connector-curvature="0" />
    </g>
  </g>
</svg>
