<?xml version="1.0" encoding="UTF-8" standalone="no"?>
<svg
   xmlns:dc="http://purl.org/dc/elements/1.1/"
   xmlns:cc="http://creativecommons.org/ns#"
   xmlns:rdf="http://www.w3.org/1999/02/22-rdf-syntax-ns#"
   xmlns:svg="http://www.w3.org/2000/svg"
   xmlns="http://www.w3.org/2000/svg"
   xmlns:sodipodi="http://sodipodi.sourceforge.net/DTD/sodipodi-0.dtd"
   xmlns:inkscape="http://www.inkscape.org/namespaces/inkscape"
   viewBox="0 0 64 64"
   version="1.1"
   id="svg6"
   sodipodi:docname="media-album-repeat-amarok.svg"
   width="64"
   height="64"
   inkscape:version="0.92.2 5c3e80d, 2017-08-06">
  <metadata
     id="metadata10">
    <rdf:RDF>
      <cc:Work
         rdf:about="">
        <dc:format>image/svg+xml</dc:format>
        <dc:type
           rdf:resource="http://purl.org/dc/dcmitype/StillImage" />
        <dc:title></dc:title>
      </cc:Work>
    </rdf:RDF>
  </metadata>
  <sodipodi:namedview
     pagecolor="#ffffff"
     bordercolor="#666666"
     borderopacity="1"
     objecttolerance="10"
     gridtolerance="10"
     guidetolerance="10"
     inkscape:pageopacity="0"
     inkscape:pageshadow="2"
     inkscape:window-width="1366"
     inkscape:window-height="717"
     id="namedview8"
     showgrid="false"
     inkscape:zoom="0.61458333"
     inkscape:cx="345.66879"
     inkscape:cy="177.03966"
     inkscape:window-x="0"
     inkscape:window-y="24"
     inkscape:window-maximized="1"
     inkscape:current-layer="svg6" />
  <defs
     id="defs3051">
    <style
       type="text/css"
       id="current-color-scheme">
      .ColorScheme-Text {
        color:#4d4d4d;
      }
      </style>
  </defs>
  <g
     id="g859"
     transform="matrix(0.125,0,0,0.125,-1.576692e-8,55.999978)">
    <path
       style="fill:#3689e6;fill-opacity:1;stroke-width:11.10955811"
       inkscape:connector-curvature="0"
       d="m 432.91327,-391.52606 c 102.19291,88.57459 105.82678,249.69971 8.1168,359.89879 C 343.3201,78.5718 181.27964,96.1006 79.086729,7.52599 -23.106186,-81.0486 -26.740042,-242.17372 70.969928,-352.3728 168.6799,-462.57188 330.72036,-480.10065 432.91327,-391.52606 Z"
       id="path27" />
    <path
       style="opacity:1;fill:#000000;fill-opacity:0.49019608;stroke-width:11.10955811"
       inkscape:connector-curvature="0"
       d="M 511.63551,-223.09651 C 510.08412,-161.78486 486.47428,-98.9419 440.66913,-47.28204 342.95915,62.9171 180.91869,80.4458 78.725776,-8.12874 30.827124,-49.64439 4.4968216,-107.07719 0.1938277,-167.77122 0.79907936,-101.41455 27.117411,-37.51785 79.078682,7.51904 181.27159,96.0936 343.31975,78.5562 441.02202,-31.63426 c 49.70495,-56.05811 73.00502,-125.29096 70.61349,-191.46225 z"
       id="path51" />
    <g
       style="fill:#000000;fill-opacity:0.49019608"
       transform="translate(20.000012,20.000052)"
       id="g849">
      <path
         inkscape:connector-curvature="0"
         id="path845"
         d="m 247.89617,-36.14562 c -34.13417,-1.82578 -65.95171,-14.36251 -92.43089,-36.41945 -4.12831,-3.43873 -12.79759,-11.93503 -16.5165,-16.18681 -23.26784,-26.60171 -36.49524,-58.641 -38.6854,-93.70364 -0.815985,-13.06295 0.15881,-18.6243 4.41009,-25.16152 4.26999,-6.56599 10.52988,-10.9646 18.1785,-12.77367 3.17302,-0.75043 9.77752,-0.74207 12.84259,0.0151 8.9129,2.20543 16.11255,8.06018 19.9304,16.20722 2.08872,4.45727 2.53759,6.93626 2.86542,15.82529 0.44869,12.16551 1.64036,21.20576 4.13157,31.34302 12.6565,51.5017 52.27037,90.6 100.86497,99.55219 7.74743,1.42726 12.93605,1.88897 21.31795,1.89698 8.3118,0.008 12.69391,-0.33486 19.99619,-1.56249 20.61092,-3.46605 39.81481,-12.26464 56.84116,-26.04253 4.93478,-3.9933 15.31495,-14.49963 19.36185,-19.59708 11.15652,-14.05308 18.72699,-28.49212 24.6898,-47.09053 0.53299,-1.6625 0.88267,-2.52148 0.77707,-1.90897 -0.10545,0.6124 -0.83138,3.18962 -1.61283,5.72716 -5.98598,19.43751 -15.3504,36.87507 -28.47539,53.0242 -4.49491,5.53066 -15.96744,17.03063 -21.41945,21.47089 -26.11823,21.27088 -56.45151,33.19597 -89.72637,35.27445 -4.64697,0.29064 -12.97282,0.3428 -17.34073,0.10885 z m 158.82521,-117.19654 c 0.004,-0.26267 0.12396,-0.83523 0.26418,-1.27268 0.20485,-0.63949 0.25663,-0.67064 0.26419,-0.15911 0.004,0.35036 -0.11376,0.92269 -0.26419,1.27271 -0.16743,0.3899 -0.26985,0.45158 -0.26418,0.15912 z m 0.60737,-2.73104 c 0.0151,-0.37115 0.0907,-0.44603 0.19237,-0.19238 0.0919,0.22979 0.0805,0.50415 -0.0265,0.60986 -0.10583,0.10583 -0.18104,-0.0824 -0.16706,-0.41767 z m 0.31823,-1.27272 c 0.0151,-0.37115 0.0907,-0.44603 0.19238,-0.19238 0.0918,0.22979 0.0805,0.50404 -0.0265,0.60975 -0.10582,0.10583 -0.18104,-0.0824 -0.16705,-0.41756 z m 0.31824,-1.27268 c 0.0151,-0.37115 0.0907,-0.44603 0.19238,-0.19238 0.0918,0.22979 0.0805,0.50415 -0.0265,0.60986 -0.10583,0.10583 -0.18104,-0.0824 -0.16706,-0.41756 z m 0.31823,-1.59096 c 0.0151,-0.37115 0.0907,-0.44602 0.19238,-0.19238 0.0918,0.2298 0.0805,0.50416 -0.0264,0.60987 -0.10583,0.10583 -0.18104,-0.0824 -0.16706,-0.41768 z m -30.7798,-2.83056 c -5.87777,-1.06658 -10.78775,-3.58405 -15.17805,-7.78239 -2.74775,-2.62745 -4.63994,-5.25997 -6.24918,-8.69397 -2.08868,-4.4572 -2.53754,-6.93619 -2.86542,-15.82519 -0.44866,-12.16554 -1.64035,-21.20579 -4.13155,-31.34305 -12.6586,-51.51031 -52.27294,-90.60873 -100.86496,-99.5514 -22.10932,-4.06896 -44.43766,-1.88704 -65.38569,6.38914 -36.50847,14.42404 -65.25437,46.82812 -77.00184,86.80113 -0.77144,2.62492 -1.40859,4.57194 -1.4159,4.32653 -0.0234,-0.79317 2.18701,-8.4579 3.82755,-13.27079 6.27679,-18.41461 15.63613,-35.00965 28.33282,-50.23699 3.42573,-4.10853 11.9178,-12.77745 16.18948,-16.52655 33.96435,-29.80947 78.18863,-43.3629 122.97604,-37.68846 30.832,3.90633 59.62231,16.94974 83.20371,37.69542 3.67615,3.23418 11.8258,11.43662 14.83245,14.92864 22.64059,26.29584 35.55724,58.2421 37.69588,93.23199 0.76721,12.55215 -0.27666,18.15348 -4.62425,24.81226 -6.31295,9.6692 -18.0819,14.77682 -29.34109,12.73368 z M 103.4682,-225.11799 c 0.0151,-0.37115 0.0906,-0.44603 0.19219,-0.19238 0.0918,0.22979 0.0805,0.50415 -0.0253,0.60986 -0.10568,0.10583 -0.18089,-0.082 -0.16713,-0.41767 z m 0.31816,-1.27268 c 0.0151,-0.37115 0.0906,-0.44603 0.19219,-0.19238 0.0919,0.22979 0.0806,0.50404 -0.0253,0.60986 -0.10571,0.10583 -0.18089,-0.0824 -0.16713,-0.41767 z m 0.31813,-1.27268 c 0.0151,-0.37115 0.0906,-0.44603 0.19219,-0.19238 0.0918,0.22979 0.0805,0.50404 -0.0253,0.60975 -0.10571,0.10583 -0.18088,-0.0824 -0.16713,-0.41756 z"
         style="fill:#000000;fill-opacity:0.49019608;stroke-width:0.31817862" />
      <path
         inkscape:connector-curvature="0"
         id="path847"
         d="m 201.80548,-115.21504 c -9.23879,-0.60165 -16.54935,-4.73201 -19.77634,-11.17332 -2.63916,-5.26792 -2.3475,-11.77439 0.79715,-17.78454 2.59072,-4.95137 6.99293,-9.40324 12.48317,-12.62401 5.63084,-3.30326 11.92357,-5.08632 18.63846,-5.28133 4.12875,-0.11977 8.11788,0.54212 10.50251,1.74279 0.37257,0.18769 0.70149,0.34121 0.73058,0.34121 0.0281,0 0.053,-16.35248 0.053,-36.33891 0,-32.2629 0.0161,-36.459 0.15593,-37.40992 0.47169,-3.24081 1.8483,-6.43781 4.01281,-9.31929 0.81096,-1.07951 2.81697,-3.13748 3.8923,-3.99297 1.51925,-1.2087 3.53074,-2.39036 5.16985,-3.0371 0.28815,-0.11368 4.96773,-1.56675 10.39909,-3.22896 40.21498,-12.30769 59.01722,-18.04911 59.65654,-18.21653 1.32175,-0.34646 2.28953,-0.43777 4.01191,-0.3794 1.77788,0.0602 2.60066,0.22305 3.93305,0.77756 3.27747,1.36445 5.50279,4.25607 6.15541,7.99859 0.13946,0.7996 0.15594,6.36359 0.15554,52.44898 -10e-4,54.45659 0.016,52.15985 -0.41199,54.07373 -2.06536,9.2166 -10.3014,17.39673 -21.19299,21.04893 -8.85751,2.97023 -18.78949,2.54765 -25.95662,-1.1043 -2.23038,-1.13643 -4.05001,-2.4807 -5.74529,-4.24426 -2.13681,-2.22283 -3.51175,-4.63342 -4.28035,-7.50472 -0.76496,-2.85756 -0.76383,-6.41765 0.003,-9.46314 1.53379,-6.09215 5.8998,-11.90214 12.02972,-16.00851 5.14447,-3.44614 10.75047,-5.47256 17.18917,-6.21323 1.83596,-0.21142 6.02337,-0.24316 7.65835,-0.0583 3.05355,0.34523 5.99631,1.08245 8.0362,2.01286 l 0.68014,0.31028 -10e-4,-24.75726 c 0,-16.32996 -0.0361,-24.98019 -0.10372,-25.41224 -0.21863,-1.39421 -1.02722,-2.47517 -2.19851,-2.93958 -0.49337,-0.19573 -0.74991,-0.22506 -1.92939,-0.22065 -1.18282,0.004 -1.47874,0.041 -2.26729,0.27933 -0.80791,0.24435 -13.45325,4.20358 -30.2806,9.48062 -3.24219,1.01673 -10.76953,3.374 -16.72739,5.23848 -5.95787,1.86441 -11.46734,3.59386 -12.24324,3.84315 -2.14836,0.69031 -3.91374,1.71892 -5.3294,3.10513 -1.08758,1.06493 -1.7344,2.07816 -2.19161,3.43268 l -0.23793,0.7054 -0.051,32.34636 -0.051,32.34633 -0.23591,1.25959 c -1.10826,5.9139 -4.21424,11.14801 -9.13413,15.39266 -5.31498,4.58564 -12.13007,7.47005 -19.70003,8.33807 -1.33695,0.15313 -5.11092,0.26687 -6.29795,0.18971 z"
         style="fill:#000000;fill-opacity:0.49019608;stroke-width:0.1007674" />
    </g>
    <g
       id="g843">
      <path
         style="fill:#ffffff;stroke-width:0.31817862"
         d="m 247.89617,-36.14562 c -34.13417,-1.82578 -65.95171,-14.36251 -92.43089,-36.41945 -4.12831,-3.43873 -12.79759,-11.93503 -16.5165,-16.18681 -23.26784,-26.60171 -36.49524,-58.641 -38.6854,-93.70364 -0.815985,-13.06295 0.15881,-18.6243 4.41009,-25.16152 4.26999,-6.56599 10.52988,-10.9646 18.1785,-12.77367 3.17302,-0.75043 9.77752,-0.74207 12.84259,0.0151 8.9129,2.20543 16.11255,8.06018 19.9304,16.20722 2.08872,4.45727 2.53759,6.93626 2.86542,15.82529 0.44869,12.16551 1.64036,21.20576 4.13157,31.34302 12.6565,51.5017 52.27037,90.6 100.86497,99.55219 7.74743,1.42726 12.93605,1.88897 21.31795,1.89698 8.3118,0.008 12.69391,-0.33486 19.99619,-1.56249 20.61092,-3.46605 39.81481,-12.26464 56.84116,-26.04253 4.93478,-3.9933 15.31495,-14.49963 19.36185,-19.59708 11.15652,-14.05308 18.72699,-28.49212 24.6898,-47.09053 0.53299,-1.6625 0.88267,-2.52148 0.77707,-1.90897 -0.10545,0.6124 -0.83138,3.18962 -1.61283,5.72716 -5.98598,19.43751 -15.3504,36.87507 -28.47539,53.0242 -4.49491,5.53066 -15.96744,17.03063 -21.41945,21.47089 -26.11823,21.27088 -56.45151,33.19597 -89.72637,35.27445 -4.64697,0.29064 -12.97282,0.3428 -17.34073,0.10885 z m 158.82521,-117.19654 c 0.004,-0.26267 0.12396,-0.83523 0.26418,-1.27268 0.20485,-0.63949 0.25663,-0.67064 0.26419,-0.15911 0.004,0.35036 -0.11376,0.92269 -0.26419,1.27271 -0.16743,0.3899 -0.26985,0.45158 -0.26418,0.15912 z m 0.60737,-2.73104 c 0.0151,-0.37115 0.0907,-0.44603 0.19237,-0.19238 0.0919,0.22979 0.0805,0.50415 -0.0265,0.60986 -0.10583,0.10583 -0.18104,-0.0824 -0.16706,-0.41767 z m 0.31823,-1.27272 c 0.0151,-0.37115 0.0907,-0.44603 0.19238,-0.19238 0.0918,0.22979 0.0805,0.50404 -0.0265,0.60975 -0.10582,0.10583 -0.18104,-0.0824 -0.16705,-0.41756 z m 0.31824,-1.27268 c 0.0151,-0.37115 0.0907,-0.44603 0.19238,-0.19238 0.0918,0.22979 0.0805,0.50415 -0.0265,0.60986 -0.10583,0.10583 -0.18104,-0.0824 -0.16706,-0.41756 z m 0.31823,-1.59096 c 0.0151,-0.37115 0.0907,-0.44602 0.19238,-0.19238 0.0918,0.2298 0.0805,0.50416 -0.0264,0.60987 -0.10583,0.10583 -0.18104,-0.0824 -0.16706,-0.41768 z m -30.7798,-2.83056 c -5.87777,-1.06658 -10.78775,-3.58405 -15.17805,-7.78239 -2.74775,-2.62745 -4.63994,-5.25997 -6.24918,-8.69397 -2.08868,-4.4572 -2.53754,-6.93619 -2.86542,-15.82519 -0.44866,-12.16554 -1.64035,-21.20579 -4.13155,-31.34305 -12.6586,-51.51031 -52.27294,-90.60873 -100.86496,-99.5514 -22.10932,-4.06896 -44.43766,-1.88704 -65.38569,6.38914 -36.50847,14.42404 -65.25437,46.82812 -77.00184,86.80113 -0.77144,2.62492 -1.40859,4.57194 -1.4159,4.32653 -0.0234,-0.79317 2.18701,-8.4579 3.82755,-13.27079 6.27679,-18.41461 15.63613,-35.00965 28.33282,-50.23699 3.42573,-4.10853 11.9178,-12.77745 16.18948,-16.52655 33.96435,-29.80947 78.18863,-43.3629 122.97604,-37.68846 30.832,3.90633 59.62231,16.94974 83.20371,37.69542 3.67615,3.23418 11.8258,11.43662 14.83245,14.92864 22.64059,26.29584 35.55724,58.2421 37.69588,93.23199 0.76721,12.55215 -0.27666,18.15348 -4.62425,24.81226 -6.31295,9.6692 -18.0819,14.77682 -29.34109,12.73368 z M 103.4682,-225.11799 c 0.0151,-0.37115 0.0906,-0.44603 0.19219,-0.19238 0.0918,0.22979 0.0805,0.50415 -0.0253,0.60986 -0.10568,0.10583 -0.18089,-0.082 -0.16713,-0.41767 z m 0.31816,-1.27268 c 0.0151,-0.37115 0.0906,-0.44603 0.19219,-0.19238 0.0919,0.22979 0.0806,0.50404 -0.0253,0.60986 -0.10571,0.10583 -0.18089,-0.0824 -0.16713,-0.41767 z m 0.31813,-1.27268 c 0.0151,-0.37115 0.0906,-0.44603 0.19219,-0.19238 0.0918,0.22979 0.0805,0.50404 -0.0253,0.60975 -0.10571,0.10583 -0.18088,-0.0824 -0.16713,-0.41756 z"
         id="path844"
         inkscape:connector-curvature="0" />
      <path
         style="fill:#ffffff;stroke-width:0.1007674"
         d="m 201.80548,-115.21504 c -9.23879,-0.60165 -16.54935,-4.73201 -19.77634,-11.17332 -2.63916,-5.26792 -2.3475,-11.77439 0.79715,-17.78454 2.59072,-4.95137 6.99293,-9.40324 12.48317,-12.62401 5.63084,-3.30326 11.92357,-5.08632 18.63846,-5.28133 4.12875,-0.11977 8.11788,0.54212 10.50251,1.74279 0.37257,0.18769 0.70149,0.34121 0.73058,0.34121 0.0281,0 0.053,-16.35248 0.053,-36.33891 0,-32.2629 0.0161,-36.459 0.15593,-37.40992 0.47169,-3.24081 1.8483,-6.43781 4.01281,-9.31929 0.81096,-1.07951 2.81697,-3.13748 3.8923,-3.99297 1.51925,-1.2087 3.53074,-2.39036 5.16985,-3.0371 0.28815,-0.11368 4.96773,-1.56675 10.39909,-3.22896 40.21498,-12.30769 59.01722,-18.04911 59.65654,-18.21653 1.32175,-0.34646 2.28953,-0.43777 4.01191,-0.3794 1.77788,0.0602 2.60066,0.22305 3.93305,0.77756 3.27747,1.36445 5.50279,4.25607 6.15541,7.99859 0.13946,0.7996 0.15594,6.36359 0.15554,52.44898 -10e-4,54.45659 0.016,52.15985 -0.41199,54.07373 -2.06536,9.2166 -10.3014,17.39673 -21.19299,21.04893 -8.85751,2.97023 -18.78949,2.54765 -25.95662,-1.1043 -2.23038,-1.13643 -4.05001,-2.4807 -5.74529,-4.24426 -2.13681,-2.22283 -3.51175,-4.63342 -4.28035,-7.50472 -0.76496,-2.85756 -0.76383,-6.41765 0.003,-9.46314 1.53379,-6.09215 5.8998,-11.90214 12.02972,-16.00851 5.14447,-3.44614 10.75047,-5.47256 17.18917,-6.21323 1.83596,-0.21142 6.02337,-0.24316 7.65835,-0.0583 3.05355,0.34523 5.99631,1.08245 8.0362,2.01286 l 0.68014,0.31028 -10e-4,-24.75726 c 0,-16.32996 -0.0361,-24.98019 -0.10372,-25.41224 -0.21863,-1.39421 -1.02722,-2.47517 -2.19851,-2.93958 -0.49337,-0.19573 -0.74991,-0.22506 -1.92939,-0.22065 -1.18282,0.004 -1.47874,0.041 -2.26729,0.27933 -0.80791,0.24435 -13.45325,4.20358 -30.2806,9.48062 -3.24219,1.01673 -10.76953,3.374 -16.72739,5.23848 -5.95787,1.86441 -11.46734,3.59386 -12.24324,3.84315 -2.14836,0.69031 -3.91374,1.71892 -5.3294,3.10513 -1.08758,1.06493 -1.7344,2.07816 -2.19161,3.43268 l -0.23793,0.7054 -0.051,32.34636 -0.051,32.34633 -0.23591,1.25959 c -1.10826,5.9139 -4.21424,11.14801 -9.13413,15.39266 -5.31498,4.58564 -12.13007,7.47005 -19.70003,8.33807 -1.33695,0.15313 -5.11092,0.26687 -6.29795,0.18971 z"
         id="path851"
         inkscape:connector-curvature="0" />
    </g>
  </g>
</svg>
