<?xml version="1.0" encoding="UTF-8" standalone="no"?>
<svg
   xmlns:dc="http://purl.org/dc/elements/1.1/"
   xmlns:cc="http://creativecommons.org/ns#"
   xmlns:rdf="http://www.w3.org/1999/02/22-rdf-syntax-ns#"
   xmlns:svg="http://www.w3.org/2000/svg"
   xmlns="http://www.w3.org/2000/svg"
   xmlns:sodipodi="http://sodipodi.sourceforge.net/DTD/sodipodi-0.dtd"
   xmlns:inkscape="http://www.inkscape.org/namespaces/inkscape"
   viewBox="0 0 64 64"
   version="1.1"
   id="svg5"
   sodipodi:docname="kt-stop.svg"
   width="64"
   height="64"
   inkscape:version="0.92.2 5c3e80d, 2017-08-06">
  <metadata
     id="metadata9">
    <rdf:RDF>
      <cc:Work
         rdf:about="">
        <dc:format>image/svg+xml</dc:format>
        <dc:type
           rdf:resource="http://purl.org/dc/dcmitype/StillImage" />
        <dc:title></dc:title>
      </cc:Work>
    </rdf:RDF>
  </metadata>
  <sodipodi:namedview
     pagecolor="#ffffff"
     bordercolor="#666666"
     borderopacity="1"
     objecttolerance="10"
     gridtolerance="10"
     guidetolerance="10"
     inkscape:pageopacity="0"
     inkscape:pageshadow="2"
     inkscape:window-width="1366"
     inkscape:window-height="717"
     id="namedview7"
     showgrid="false"
     inkscape:zoom="2.6074563"
     inkscape:cx="45.83452"
     inkscape:cy="71.595862"
     inkscape:window-x="0"
     inkscape:window-y="24"
     inkscape:window-maximized="1"
     inkscape:current-layer="svg5" />
  <defs
     id="defs3051">
    <style
       type="text/css"
       id="current-color-scheme">
      .ColorScheme-Text {
        color:#4d4d4d;
      }
      </style>
  </defs>
  <g
     id="g843"
     transform="matrix(0.125,0,0,0.125,-1.576692e-8,60.000032)">
    <path
       id="path934"
       d="m 432.91327,-423.52599 c 102.19291,88.57459 105.82678,249.6997 8.1168,359.898785 C 343.3201,46.571877 181.27964,64.100646 79.086729,-24.473944 -23.106186,-113.04853 -26.740042,-274.17365 70.969928,-384.37273 168.6799,-494.57181 330.72036,-512.10058 432.91327,-423.52599 Z"
       inkscape:connector-curvature="0"
       style="fill:#3689e6;fill-opacity:1;stroke-width:11.10955811" />
    <path
       id="path936"
       d="m 511.63551,-255.09645 c -1.55139,61.31165 -25.16123,124.15461 -70.96638,175.81448 C 342.95915,30.917149 180.91869,48.44588 78.725776,-40.128672 30.827124,-81.644326 4.4968216,-139.07712 0.19382768,-199.77116 0.79907934,-133.41448 27.117411,-69.517787 79.078682,-24.480899 181.27159,64.093653 343.31975,46.55623 441.02202,-63.634197 490.72697,-119.6923 514.02704,-188.92516 511.63551,-255.09645 Z"
       inkscape:connector-curvature="0"
       style="opacity:1;fill:#000000;fill-opacity:0.49019608;stroke-width:11.10955811" />
    <path
       sodipodi:nodetypes="csccscscc"
       style="fill:#000000;fill-opacity:0.49019608;stroke-width:3.62522864"
       d="M 143.20648,-56.850016 C 121.69901,-69.964977 120,-80.753635 120,-204.23484 c 0,-121.5723 0.7536,-126.59174 21.53762,-144.08233 17.81389,-12.42693 90.75774,-10.23371 133.29104,-9.80021 169.96345,-0.14702 156.94147,-12.76443 156.94147,153.83022 0,127.276123 -1.01394,133.90704 -22.43921,146.970902 C 397.92565,-50.362532 391.31325,-50 275.88505,-50 163.18624,-50 153.63071,-50.493266 143.20649,-56.850129 Z"
       id="path837"
       inkscape:connector-curvature="0" />
    <path
       inkscape:connector-curvature="0"
       id="path940"
       d="M 123.20647,-76.850071 C 101.69899,-89.965032 99.999985,-100.75369 99.999985,-224.2349 c 0,-121.57229 0.753595,-126.59173 21.537625,-144.08232 17.81389,-12.42694 90.75774,-10.23372 133.29103,-9.80021 169.96345,-0.14702 156.94147,-12.76444 156.94147,153.83022 0,127.276118 -1.01394,133.907035 -22.43921,146.970897 -11.40527,6.953726 -18.01767,7.316258 -133.44587,7.316258 -112.69881,0 -122.25434,-0.493266 -132.67856,-6.850129 z"
       style="fill:#ffffff;stroke-width:3.62522864"
       sodipodi:nodetypes="csccscscc" />
  </g>
</svg>
