<?xml version="1.0" encoding="UTF-8" standalone="no"?>
<svg
   xmlns:dc="http://purl.org/dc/elements/1.1/"
   xmlns:cc="http://creativecommons.org/ns#"
   xmlns:rdf="http://www.w3.org/1999/02/22-rdf-syntax-ns#"
   xmlns:svg="http://www.w3.org/2000/svg"
   xmlns="http://www.w3.org/2000/svg"
   xmlns:sodipodi="http://sodipodi.sourceforge.net/DTD/sodipodi-0.dtd"
   xmlns:inkscape="http://www.inkscape.org/namespaces/inkscape"
   viewBox="0 0 64 64"
   version="1.1"
   id="svg5"
   sodipodi:docname="media-eject.svg"
   width="64"
   height="64"
   inkscape:version="0.92.2 5c3e80d, 2017-08-06">
  <metadata
     id="metadata9">
    <rdf:RDF>
      <cc:Work
         rdf:about="">
        <dc:format>image/svg+xml</dc:format>
        <dc:type
           rdf:resource="http://purl.org/dc/dcmitype/StillImage" />
        <dc:title></dc:title>
      </cc:Work>
    </rdf:RDF>
  </metadata>
  <sodipodi:namedview
     pagecolor="#ffffff"
     bordercolor="#666666"
     borderopacity="1"
     objecttolerance="10"
     gridtolerance="10"
     guidetolerance="10"
     inkscape:pageopacity="0"
     inkscape:pageshadow="2"
     inkscape:window-width="1366"
     inkscape:window-height="717"
     id="namedview7"
     showgrid="false"
     inkscape:zoom="0.4609375"
     inkscape:cx="188.18327"
     inkscape:cy="186.99952"
     inkscape:window-x="0"
     inkscape:window-y="24"
     inkscape:window-maximized="1"
     inkscape:current-layer="svg5" />
  <defs
     id="defs3051">
    <style
       type="text/css"
       id="current-color-scheme">
      .ColorScheme-Text {
        color:#4d4d4d;
      }
      </style>
  </defs>
  <g
     id="g843"
     transform="matrix(0.125,0,0,0.125,-1.576692e-8,56.000032)">
    <path
       id="path958"
       d="m 432.91327,-391.52599 c 102.19291,88.57459 105.82678,249.6997 8.1168,359.898785 C 343.3201,78.571877 181.27964,96.100646 79.086729,7.5260556 -23.106186,-81.048534 -26.740042,-242.17365 70.969928,-352.37273 168.6799,-462.57181 330.72036,-480.10058 432.91327,-391.52599 Z"
       inkscape:connector-curvature="0"
       style="fill:#3689e6;fill-opacity:1;stroke-width:11.10955811" />
    <path
       id="path960"
       d="M 511.63551,-223.09645 C 510.08412,-161.7848 486.47428,-98.941838 440.66913,-47.28197 342.95915,62.917149 180.91869,80.44588 78.725776,-8.1286721 30.827124,-49.644326 4.4968216,-107.07712 0.19382768,-167.77116 0.79907934,-101.41448 27.117411,-37.517787 79.078682,7.5191013 181.27159,96.093653 343.31975,78.55623 441.02202,-31.634197 490.72697,-87.692301 514.02704,-156.92516 511.63551,-223.09645 Z"
       inkscape:connector-curvature="0"
       style="opacity:1;fill:#000000;fill-opacity:0.49019608;stroke-width:11.10955811" />
    <path
       sodipodi:nodetypes="ccccsccccsccccsccc"
       style="fill:#000000;fill-opacity:0.49019608;stroke-width:3.35651875"
       d="m 413.20988,-33.850355 c -11.48304,16.39419 -24.40732,18.062402 -138.11305,17.83155 -62.93945,-0.12699 -109.36524,-1.59591 -114.74691,-3.62823 -35.21458,-13.30133 -36.76112,-50.91039 -2.67904,-65.151765 9.65348,-4.0329 32.10183,-4.96531 119.53564,-4.96531 101.08476,0 108.45397,0.40596 120.83022,6.72359 7.24906,3.697995 14.74106,9.641415 16.64893,13.206195 5.01453,9.36865 4.25885,27.79642 -1.47579,35.98397 z m -1.54779,-92.953245 c -4.15408,2.22259 -53.19568,3.47471 -136.15983,3.47471 -82.96399,0 -132.00563,-1.2559 -136.15967,-3.47471 -9.21222,-4.93107 -8.22883,-19.87396 2.33612,-35.49683 37.63268,-55.64991 113.76688,-159.76948 118.79377,-162.46016 10.50402,-5.62122 25.91913,-3.74873 34.86289,4.23587 4.65275,4.15339 34.16065,43.80242 65.57295,88.10846 45.08092,63.58503 57.12722,82.82978 57.17961,91.34718 0.0506,7.27929 -2.04613,11.92112 -6.42599,14.26548 z"
       id="path837"
       inkscape:connector-curvature="0" />
    <path
       inkscape:connector-curvature="0"
       id="path964"
       d="m 393.20988,-53.850355 c -11.48304,16.39419 -24.40732,18.062402 -138.11305,17.83155 -62.93945,-0.12699 -109.36524,-1.59591 -114.74691,-3.62823 -35.21458,-13.30133 -36.76112,-50.91039 -2.67904,-65.151765 9.65348,-4.0329 32.10183,-4.96531 119.53564,-4.96531 101.08476,0 108.45397,0.40596 120.83022,6.72359 7.24906,3.697995 14.74106,9.641415 16.64893,13.206195 5.01453,9.36865 4.25885,27.79642 -1.47579,35.98397 z m -1.54779,-92.953245 c -4.15408,2.22259 -53.19568,3.47471 -136.15983,3.47471 -82.96399,0 -132.00563,-1.2559 -136.15967,-3.47471 -9.21222,-4.93107 -8.22883,-19.87396 2.33612,-35.49683 37.63268,-55.64991 113.76688,-159.76948 118.79377,-162.46016 10.50402,-5.62122 25.91913,-3.74873 34.86289,4.23587 4.65275,4.15339 34.16065,43.80242 65.57295,88.10846 45.08092,63.58503 57.12722,82.82978 57.17961,91.34718 0.0506,7.27929 -2.04613,11.92112 -6.42599,14.26548 z"
       style="fill:#ffffff;stroke-width:3.35651875"
       sodipodi:nodetypes="ccccsccccsccccsccc" />
  </g>
</svg>
