<?xml version="1.0" encoding="UTF-8" standalone="no"?>
<svg
   xmlns:dc="http://purl.org/dc/elements/1.1/"
   xmlns:cc="http://creativecommons.org/ns#"
   xmlns:rdf="http://www.w3.org/1999/02/22-rdf-syntax-ns#"
   xmlns:svg="http://www.w3.org/2000/svg"
   xmlns="http://www.w3.org/2000/svg"
   xmlns:sodipodi="http://sodipodi.sourceforge.net/DTD/sodipodi-0.dtd"
   xmlns:inkscape="http://www.inkscape.org/namespaces/inkscape"
   viewBox="0 0 64 64"
   version="1.1"
   id="svg8"
   sodipodi:docname="media-track-queue-amarok.svg"
   width="64"
   height="64"
   inkscape:version="0.92.2 5c3e80d, 2017-08-06">
  <metadata
     id="metadata12">
    <rdf:RDF>
      <cc:Work
         rdf:about="">
        <dc:format>image/svg+xml</dc:format>
        <dc:type
           rdf:resource="http://purl.org/dc/dcmitype/StillImage" />
        <dc:title></dc:title>
      </cc:Work>
    </rdf:RDF>
  </metadata>
  <sodipodi:namedview
     pagecolor="#ffffff"
     bordercolor="#666666"
     borderopacity="1"
     objecttolerance="10"
     gridtolerance="10"
     guidetolerance="10"
     inkscape:pageopacity="0"
     inkscape:pageshadow="2"
     inkscape:window-width="1366"
     inkscape:window-height="717"
     id="namedview10"
     showgrid="false"
     inkscape:zoom="3.4766083"
     inkscape:cx="98.134848"
     inkscape:cy="52.168643"
     inkscape:window-x="0"
     inkscape:window-y="24"
     inkscape:window-maximized="1"
     inkscape:current-layer="svg8" />
  <defs
     id="defs3051">
    <style
       type="text/css"
       id="current-color-scheme">
      .ColorScheme-Text {
        color:#4d4d4d;
      }
      .ColorScheme-Highlight {
        color:#3daee9;
      }
      </style>
  </defs>
  <g
     id="g964"
     transform="matrix(0.125,0,0,0.125,-3.1187481e-7,61)">
    <path
       id="path850"
       d="m 432.91327,-431.52606 c 102.19291,88.57458 105.82678,249.69973 8.1168,359.898828 C 343.32006,38.571841 181.27962,56.100609 79.086741,-32.473984 -23.106203,-121.04857 -26.740035,-282.17373 70.969941,-392.3728 168.67988,-502.57189 330.72032,-520.10065 432.91327,-431.52606 Z"
       inkscape:connector-curvature="0"
       style="fill:#3689e6;fill-opacity:1;stroke-width:11.10955906" />
    <g
       style="fill:#000000;fill-opacity:0.49019608"
       id="g128">
      <rect
         style="opacity:1;fill:#000000;fill-opacity:0.49019608;stroke:none;stroke-width:23.18455505;stroke-linecap:round;stroke-linejoin:round;stroke-miterlimit:4;stroke-dasharray:none;stroke-dashoffset:0;stroke-opacity:1"
         id="rect119"
         width="68.394867"
         height="40"
         x="255.45399"
         y="-251"
         ry="20" />
      <rect
         style="opacity:1;fill:#000000;fill-opacity:0.49019608;stroke:none;stroke-width:16.85423851;stroke-linecap:round;stroke-linejoin:round;stroke-miterlimit:4;stroke-dasharray:none;stroke-dashoffset:0;stroke-opacity:1"
         id="rect121"
         width="36.144661"
         height="40"
         x="256.50024"
         y="-192.5"
         ry="20" />
      <path
         inkscape:connector-curvature="0"
         id="path123"
         d="m 308.86328,-166.33311 c 1.04311,2.93061 3.62422,5.54382 6.34294,6.42187 2.55265,0.82443 4.16543,0.84518 6.68779,0.0861 3.53119,-1.06275 1.71625,0.96907 31.03825,-34.74669 6.70659,-8.16893 9.29865,-11.31995 15.46489,-18.79965 l 0.85165,-1.03303 1.13911,1.28619 c 1.34625,1.52006 2.68281,3.15972 24.59629,30.17363 9.24266,11.39392 17.37745,21.19804 18.07735,21.78697 1.2719,1.07024 4.73238,2.33077 6.39852,2.33077 0.48567,0 1.85762,-0.28929 3.04875,-0.64315 4.38627,-1.30257 7.4848,-5.57492 7.47518,-10.30707 -0.005,-3.14868 -0.9586,-5.27895 -4.02828,-9.01225 -1.29992,-1.58093 -2.92132,-3.5658 -3.60313,-4.41081 -21.97987,-27.2415 -43.79594,-54.03264 -45.18377,-55.4878 -2.92099,-3.06272 -6.72018,-4.02853 -11.01362,-2.79977 -2.66825,0.76364 -5.37448,3.4695 -13.63658,13.63471 -5.98538,7.36408 -9.30307,11.41245 -15.08492,18.40718 -1.50289,1.81814 -5.01896,6.09493 -7.8135,9.50397 -2.79456,3.40905 -5.47308,6.66311 -5.95228,7.23128 -6.19481,7.34498 -14.15576,17.41298 -14.58942,18.45093 -0.99153,2.37304 -1.07661,5.50665 -0.21535,7.92667 z"
         style="fill:#000000;fill-opacity:0.49019608;stroke-width:0.41321617" />
    </g>
    <path
       id="path852"
       d="m 511.63551,-263.09649 c -1.55139,61.31161 -25.16123,124.15457 -70.96638,175.814441 C 342.95912,22.917073 180.91867,40.445801 78.725761,-48.128744 30.827127,-89.644361 4.4968224,-147.0772 0.19383026,-207.77119 0.79907827,-141.41456 27.117407,-77.517825 79.078691,-32.480984 181.27156,56.093609 343.31972,38.556153 441.02202,-71.634232 490.72697,-127.69238 514.02704,-196.92524 511.63551,-263.09649 Z"
       inkscape:connector-curvature="0"
       style="opacity:1;fill:#000000;fill-opacity:0.49019608;stroke-width:11.10955906" />
    <rect
       style="opacity:1;fill:#000000;fill-opacity:0.49019608;stroke:none;stroke-width:0.37795275;stroke-miterlimit:4;stroke-dasharray:none;stroke-dashoffset:0;stroke-opacity:1"
       id="rect918"
       width="58.5"
       height="19.5"
       x="139.5"
       y="-368"
       ry="9.75" />
    <rect
       ry="9.75"
       y="-309.5"
       x="139.5"
       height="19.5"
       width="58.5"
       id="rect920"
       style="opacity:1;fill:#000000;fill-opacity:0.49019608;stroke:none;stroke-width:0.37795275;stroke-miterlimit:4;stroke-dasharray:none;stroke-dashoffset:0;stroke-opacity:1" />
    <path
       id="rect922"
       d="m 158.71094,-348.5 v 39 h 19.93359 v -39 z"
       style="opacity:1;fill:#000000;fill-opacity:0.49019608;stroke:none;stroke-width:0.37795275;stroke-miterlimit:4;stroke-dasharray:none;stroke-dashoffset:0;stroke-opacity:1"
       inkscape:connector-curvature="0" />
    <rect
       style="opacity:1;fill:#000000;fill-opacity:0.49019608;stroke:none;stroke-width:0.37795275;stroke-miterlimit:4;stroke-dasharray:none;stroke-dashoffset:0;stroke-opacity:1"
       id="rect924"
       width="97.5"
       height="19.5"
       x="120"
       y="-251"
       ry="9.75" />
    <rect
       style="opacity:1;fill:#000000;fill-opacity:0.49019608;stroke:none;stroke-width:0.37795275;stroke-miterlimit:4;stroke-dasharray:none;stroke-dashoffset:0;stroke-opacity:1"
       id="rect926"
       width="97.5"
       height="19.5"
       x="120"
       y="-192.5"
       ry="9.75" />
    <path
       id="rect928"
       d="m 139.5,-231.5 v 41 h 19.61914 v -41 z"
       style="opacity:1;fill:#000000;fill-opacity:0.49019608;stroke:none;stroke-width:0.37795275;stroke-miterlimit:4;stroke-dasharray:none;stroke-dashoffset:0;stroke-opacity:1"
       inkscape:connector-curvature="0" />
    <path
       id="rect930"
       d="m 178.49414,-231.5 v 41.28711 h 19.61719 V -231.5 Z"
       style="opacity:1;fill:#000000;fill-opacity:0.49019608;stroke:none;stroke-width:0.37795275;stroke-miterlimit:4;stroke-dasharray:none;stroke-dashoffset:0;stroke-opacity:1"
       inkscape:connector-curvature="0" />
    <rect
       style="opacity:1;fill:#000000;fill-opacity:0.49019608;stroke:none;stroke-width:37.24914169;stroke-linecap:round;stroke-linejoin:round;stroke-miterlimit:4;stroke-dasharray:none;stroke-dashoffset:0;stroke-opacity:1"
       id="rect932"
       width="176.54625"
       height="40"
       x="256.5"
       y="-368"
       ry="20" />
    <rect
       style="opacity:1;fill:#000000;fill-opacity:0.49019608;stroke:none;stroke-width:37.24914169;stroke-linecap:round;stroke-linejoin:round;stroke-miterlimit:4;stroke-dasharray:none;stroke-dashoffset:0;stroke-opacity:1"
       id="rect936"
       width="176.54625"
       height="40"
       x="255.45375"
       y="-134"
       ry="20" />
    <rect
       style="opacity:1;fill:#000000;fill-opacity:0.49019608;stroke:none;stroke-width:28.03412628;stroke-linecap:round;stroke-linejoin:round;stroke-miterlimit:4;stroke-dasharray:none;stroke-dashoffset:0;stroke-opacity:1"
       id="rect938"
       width="100"
       height="40"
       x="256.5"
       y="-309.5"
       ry="20" />
    <rect
       ry="9.75"
       y="-388"
       x="119.5"
       height="19.5"
       width="58.5"
       id="rect24"
       style="opacity:1;fill:#ffffff;fill-opacity:1;stroke:none;stroke-width:0.37795275;stroke-miterlimit:4;stroke-dasharray:none;stroke-dashoffset:0;stroke-opacity:1" />
    <rect
       style="opacity:1;fill:#ffffff;fill-opacity:1;stroke:none;stroke-width:0.37795275;stroke-miterlimit:4;stroke-dasharray:none;stroke-dashoffset:0;stroke-opacity:1"
       id="rect26"
       width="58.5"
       height="19.5"
       x="119.5"
       y="-329.5"
       ry="9.75" />
    <rect
       ry="0"
       y="-375.05084"
       x="138.71187"
       height="56.542374"
       width="19.932203"
       id="rect28"
       style="opacity:1;fill:#ffffff;fill-opacity:1;stroke:none;stroke-width:0.37795275;stroke-miterlimit:4;stroke-dasharray:none;stroke-dashoffset:0;stroke-opacity:1" />
    <rect
       ry="9.75"
       y="-271"
       x="100"
       height="19.5"
       width="97.5"
       id="rect30"
       style="opacity:1;fill:#ffffff;fill-opacity:1;stroke:none;stroke-width:0.37795275;stroke-miterlimit:4;stroke-dasharray:none;stroke-dashoffset:0;stroke-opacity:1" />
    <rect
       ry="9.75"
       y="-212.5"
       x="100"
       height="19.5"
       width="97.5"
       id="rect32"
       style="opacity:1;fill:#ffffff;fill-opacity:1;stroke:none;stroke-width:0.37795275;stroke-miterlimit:4;stroke-dasharray:none;stroke-dashoffset:0;stroke-opacity:1" />
    <rect
       ry="0"
       y="-254.67796"
       x="119.5"
       height="44.177967"
       width="19.618645"
       id="rect48"
       style="opacity:1;fill:#ffffff;fill-opacity:1;stroke:none;stroke-width:0.37795275;stroke-miterlimit:4;stroke-dasharray:none;stroke-dashoffset:0;stroke-opacity:1" />
    <rect
       style="opacity:1;fill:#ffffff;fill-opacity:1;stroke:none;stroke-width:0.37795275;stroke-miterlimit:4;stroke-dasharray:none;stroke-dashoffset:0;stroke-opacity:1"
       id="rect50"
       width="19.618645"
       height="44.177967"
       x="158.49327"
       y="-254.39032"
       ry="0" />
    <rect
       ry="20"
       y="-388"
       x="236.5"
       height="40"
       width="176.54625"
       id="rect70"
       style="opacity:1;fill:#ffffff;fill-opacity:1;stroke:none;stroke-width:37.24914169;stroke-linecap:round;stroke-linejoin:round;stroke-miterlimit:4;stroke-dasharray:none;stroke-dashoffset:0;stroke-opacity:1" />
    <rect
       style="opacity:1;fill:#ffffff;fill-opacity:1;stroke:none;stroke-width:23.18455505;stroke-linecap:round;stroke-linejoin:round;stroke-miterlimit:4;stroke-dasharray:none;stroke-dashoffset:0;stroke-opacity:1"
       id="rect880"
       width="68.394867"
       height="40"
       x="235.45375"
       y="-271"
       ry="20" />
    <rect
       ry="20"
       y="-154"
       x="235.45375"
       height="40"
       width="176.54625"
       id="rect882"
       style="opacity:1;fill:#ffffff;fill-opacity:1;stroke:none;stroke-width:37.24914169;stroke-linecap:round;stroke-linejoin:round;stroke-miterlimit:4;stroke-dasharray:none;stroke-dashoffset:0;stroke-opacity:1" />
    <rect
       ry="20"
       y="-329.5"
       x="236.5"
       height="40"
       width="100"
       id="rect884"
       style="opacity:1;fill:#ffffff;fill-opacity:1;stroke:none;stroke-width:28.03412628;stroke-linecap:round;stroke-linejoin:round;stroke-miterlimit:4;stroke-dasharray:none;stroke-dashoffset:0;stroke-opacity:1" />
    <rect
       style="opacity:1;fill:#ffffff;fill-opacity:1;stroke:none;stroke-width:16.85423851;stroke-linecap:round;stroke-linejoin:round;stroke-miterlimit:4;stroke-dasharray:none;stroke-dashoffset:0;stroke-opacity:1"
       id="rect886"
       width="36.144661"
       height="40"
       x="236.5"
       y="-212.5"
       ry="20" />
    <path
       inkscape:connector-curvature="0"
       id="path855"
       d="m 288.86303,-186.33311 c 1.04311,2.93061 3.62422,5.54382 6.34294,6.42187 2.55265,0.82443 4.16543,0.84518 6.68779,0.0861 3.53119,-1.06275 1.71625,0.96907 31.03825,-34.74669 6.70659,-8.16893 9.29865,-11.31995 15.46489,-18.79965 l 0.85165,-1.03303 1.13911,1.28619 c 1.34625,1.52006 2.68281,3.15972 24.59629,30.17363 9.24266,11.39392 17.37745,21.19804 18.07735,21.78697 1.2719,1.07024 4.73238,2.33077 6.39852,2.33077 0.48567,0 1.85762,-0.28929 3.04875,-0.64315 4.38627,-1.30257 7.4848,-5.57492 7.47518,-10.30707 -0.005,-3.14868 -0.9586,-5.27895 -4.02828,-9.01225 -1.29992,-1.58093 -2.92132,-3.5658 -3.60313,-4.41081 -21.97987,-27.2415 -43.79594,-54.03264 -45.18377,-55.4878 -2.92099,-3.06272 -6.72018,-4.02853 -11.01362,-2.79977 -2.66825,0.76364 -5.37448,3.4695 -13.63658,13.63471 -5.98538,7.36408 -9.30307,11.41245 -15.08492,18.40718 -1.50289,1.81814 -5.01896,6.09493 -7.8135,9.50397 -2.79456,3.40905 -5.47308,6.66311 -5.95228,7.23128 -6.19481,7.34498 -14.15576,17.41298 -14.58942,18.45093 -0.99153,2.37304 -1.07661,5.50665 -0.21535,7.92667 z"
       style="fill:#ffffff;stroke-width:0.41321617" />
  </g>
</svg>
