<?xml version="1.0" encoding="UTF-8" standalone="no"?>
<svg
   xmlns:dc="http://purl.org/dc/elements/1.1/"
   xmlns:cc="http://creativecommons.org/ns#"
   xmlns:rdf="http://www.w3.org/1999/02/22-rdf-syntax-ns#"
   xmlns:svg="http://www.w3.org/2000/svg"
   xmlns="http://www.w3.org/2000/svg"
   xmlns:sodipodi="http://sodipodi.sourceforge.net/DTD/sodipodi-0.dtd"
   xmlns:inkscape="http://www.inkscape.org/namespaces/inkscape"
   viewBox="0 0 64 64"
   version="1.1"
   id="svg5"
   sodipodi:docname="media-seek-backward.svg"
   width="64"
   height="64"
   inkscape:version="0.92.2 5c3e80d, 2017-08-06">
  <metadata
     id="metadata9">
    <rdf:RDF>
      <cc:Work
         rdf:about="">
        <dc:format>image/svg+xml</dc:format>
        <dc:type
           rdf:resource="http://purl.org/dc/dcmitype/StillImage" />
        <dc:title />
      </cc:Work>
    </rdf:RDF>
  </metadata>
  <sodipodi:namedview
     pagecolor="#ffffff"
     bordercolor="#666666"
     borderopacity="1"
     objecttolerance="10"
     gridtolerance="10"
     guidetolerance="10"
     inkscape:pageopacity="0"
     inkscape:pageshadow="2"
     inkscape:window-width="1366"
     inkscape:window-height="717"
     id="namedview7"
     showgrid="false"
     inkscape:zoom="2.6074563"
     inkscape:cx="69.890616"
     inkscape:cy="57.185902"
     inkscape:window-x="0"
     inkscape:window-y="24"
     inkscape:window-maximized="1"
     inkscape:current-layer="svg5" />
  <defs
     id="defs3051">
    <style
       type="text/css"
       id="current-color-scheme">
      .ColorScheme-Text {
        color:#4d4d4d;
      }
      </style>
  </defs>
  <g
     id="g33">
    <path
       id="path934"
       d="M 54.114159,7.0592463 C 66.888272,18.13107 67.342506,38.271709 55.128759,52.046595 42.915012,65.82148 22.659955,68.012576 9.8858411,56.940753 -2.8882733,45.868929 -3.3425053,25.728289 8.871241,11.953404 21.084987,-1.8214812 41.340045,-4.0125775 54.114159,7.0592463 Z"
       inkscape:connector-curvature="0"
       style="fill:#3689e6;fill-opacity:1;stroke-width:1.38869476" />
    <path
       id="path936"
       d="M 63.954439,28.112939 C 63.760515,35.776895 60.809285,43.632265 55.083641,50.089749 42.869894,63.864639 22.614836,66.05573 9.840722,54.983911 3.8533905,49.794455 0.56210268,42.615355 0.02422845,35.0286 0.09988491,43.323185 3.3896764,51.310272 9.8848352,56.939883 22.658949,68.011702 42.914969,65.819524 55.127752,52.045721 61.340871,45.038457 64.25338,36.38435 63.954439,28.112939 Z"
       inkscape:connector-curvature="0"
       style="opacity:1;fill:#000000;fill-opacity:0.49019608;stroke-width:1.38869476" />
    <path
       inkscape:connector-curvature="0"
       id="path861"
       d="m 52.526405,51.159497 c 1.344004,-0.315668 1.473594,-1.723666 1.473594,-16.013533 0,-8.258114 -0.152784,-14.377002 -0.373301,-14.956989 -0.463945,-1.220356 -1.332835,-1.578151 -2.637034,-1.085871 -0.552292,0.208489 -3.575229,2.196991 -6.717591,4.418909 -3.142359,2.221916 -5.819344,4.039847 -5.94893,4.039847 -0.130306,0 -0.23541,-1.692709 -0.23541,-3.761569 0,-4.080371 -0.364569,-4.952298 -2.070705,-4.952298 -0.882639,0 -19.059638,12.572273 -20.37701,14.093823 -0.813333,0.939487 -0.8593,2.885099 -0.09307,3.9779 0.660689,0.943268 18.403529,13.638771 19.806816,14.172264 0.694055,0.26389 1.178905,0.20359 1.838734,-0.228679 0.842975,-0.552363 0.895956,-0.810699 0.895956,-4.367 0,-2.442105 0.144051,-3.779893 0.407096,-3.779893 0.223954,0 2.8239,1.72925 5.777675,3.842785 5.462364,3.90847 7.163347,4.856473 8.253902,4.600304 z"
       style="fill:#000000;fill-opacity:0.49019608;stroke-width:0.37886354"
       sodipodi:nodetypes="csccssssccccssccc" />
    <path
       sodipodi:nodetypes="csccssssccccssccc"
       style="fill:#ffffff;stroke-width:0.37886354"
       d="m 50.026405,48.659497 c 1.344004,-0.315668 1.473594,-1.723666 1.473594,-16.013533 0,-8.258114 -0.152784,-14.377002 -0.373301,-14.956989 -0.463945,-1.220356 -1.332835,-1.578151 -2.637034,-1.085871 -0.552292,0.208489 -3.575229,2.196991 -6.717591,4.418909 -3.142359,2.221916 -5.819344,4.039847 -5.94893,4.039847 -0.130306,0 -0.23541,-1.692709 -0.23541,-3.761569 0,-4.080371 -0.364569,-4.952298 -2.070705,-4.952298 -0.882639,0 -19.059638,12.572273 -20.37701,14.093823 -0.813333,0.939487 -0.8593,2.885099 -0.09307,3.9779 0.660689,0.943268 18.403529,13.638771 19.806816,14.172264 0.694055,0.26389 1.178905,0.20359 1.838734,-0.228679 0.842975,-0.552363 0.895956,-0.810699 0.895956,-4.367 0,-2.442105 0.144051,-3.779893 0.407096,-3.779893 0.223954,0 2.8239,1.72925 5.777675,3.842785 5.462364,3.90847 7.163347,4.856473 8.253902,4.600304 z"
       id="path891"
       inkscape:connector-curvature="0" />
  </g>
</svg>
