<?xml version="1.0" encoding="UTF-8" standalone="no"?>
<svg
   xmlns:dc="http://purl.org/dc/elements/1.1/"
   xmlns:cc="http://creativecommons.org/ns#"
   xmlns:rdf="http://www.w3.org/1999/02/22-rdf-syntax-ns#"
   xmlns:svg="http://www.w3.org/2000/svg"
   xmlns="http://www.w3.org/2000/svg"
   xmlns:sodipodi="http://sodipodi.sourceforge.net/DTD/sodipodi-0.dtd"
   xmlns:inkscape="http://www.inkscape.org/namespaces/inkscape"
   viewBox="0 0 64 64"
   version="1.1"
   id="svg6"
   sodipodi:docname="media-record.svg"
   width="64"
   height="64"
   inkscape:version="0.92.2 5c3e80d, 2017-08-06">
  <metadata
     id="metadata10">
    <rdf:RDF>
      <cc:Work
         rdf:about="">
        <dc:format>image/svg+xml</dc:format>
        <dc:type
           rdf:resource="http://purl.org/dc/dcmitype/StillImage" />
        <dc:title></dc:title>
      </cc:Work>
    </rdf:RDF>
  </metadata>
  <sodipodi:namedview
     pagecolor="#ffffff"
     bordercolor="#666666"
     borderopacity="1"
     objecttolerance="10"
     gridtolerance="10"
     guidetolerance="10"
     inkscape:pageopacity="0"
     inkscape:pageshadow="2"
     inkscape:window-width="1366"
     inkscape:window-height="717"
     id="namedview8"
     showgrid="false"
     inkscape:zoom="0.65186407"
     inkscape:cx="384.00736"
     inkscape:cy="294.06284"
     inkscape:window-x="0"
     inkscape:window-y="24"
     inkscape:window-maximized="1"
     inkscape:current-layer="svg6" />
  <defs
     id="defs3051">
    <style
       type="text/css"
       id="current-color-scheme">
      .ColorScheme-Text {
        color:#4d4d4d;
      }
      </style>
  </defs>
  <g
     id="g841"
     transform="matrix(0.125,0,0,0.125,-5.4242393e-8,55.999998)">
    <path
       style="fill:#c6262e;fill-opacity:1;stroke-width:11.10955811"
       inkscape:connector-curvature="0"
       d="m 432.91316,-391.52603 c 102.19314,88.57459 105.82678,249.6997 8.11692,359.898787 C 343.32022,78.571839 181.27977,96.100608 79.086636,7.5260177 -23.106121,-81.048572 -26.740137,-242.17369 70.970101,-352.37277 168.67996,-462.57185 330.72041,-480.10062 432.91316,-391.52603 Z"
       id="path27" />
    <path
       style="opacity:1;fill:#000000;fill-opacity:0.49019608;stroke-width:11.10955811"
       inkscape:connector-curvature="0"
       d="m 511.63543,-223.09649 c -1.55112,61.31165 -25.16107,124.154614 -70.9663,175.814482 C 342.95927,62.917111 180.91883,80.445842 78.725691,-8.12871 30.826982,-49.644364 4.4969031,-107.07716 0.19391087,-167.7712 0.79901324,-101.41452 27.117376,-37.517825 79.078699,7.5190634 181.27146,96.093616 343.31984,78.556192 441.02214,-31.634235 490.72708,-87.692339 514.02712,-156.9252 511.63543,-223.09649 Z"
       id="path51" />
    <path
       style="fill:#000000;fill-opacity:0.49019608;stroke-width:0.60946941"
       d="M 261.088,-16.711154 C 181.36835,-24.342324 120,-91.907332 120,-172.04551 c 0,-41.34976 16.40788,-80.84845 45.83393,-110.33604 60.72878,-60.8558 159.56014,-60.82512 220.45369,0.0684 41.70929,41.70929 56.29492,102.97358 37.86025,159.02516 C 401.4095,-54.150716 333.51976,-9.777624 261.088,-16.711154 Z"
       id="path835"
       inkscape:connector-curvature="0"
       sodipodi:nodetypes="ssssss" />
    <path
       sodipodi:nodetypes="ssssss"
       inkscape:connector-curvature="0"
       id="path50"
       d="M 241.088,-36.711202 C 161.36835,-44.342372 99.999997,-111.90738 99.999997,-192.04556 c 0,-41.34976 16.407883,-80.84845 45.833933,-110.33604 60.72878,-60.8558 159.56014,-60.82512 220.45369,0.0684 41.70929,41.70929 56.29492,102.97358 37.86025,159.02516 C 381.4095,-74.150764 313.51976,-29.777672 241.088,-36.711202 Z"
       style="fill:#ffffff;stroke-width:0.60946941" />
  </g>
</svg>
