<?xml version="1.0" encoding="UTF-8" standalone="no"?>
<svg
   xmlns:dc="http://purl.org/dc/elements/1.1/"
   xmlns:cc="http://creativecommons.org/ns#"
   xmlns:rdf="http://www.w3.org/1999/02/22-rdf-syntax-ns#"
   xmlns:svg="http://www.w3.org/2000/svg"
   xmlns="http://www.w3.org/2000/svg"
   xmlns:sodipodi="http://sodipodi.sourceforge.net/DTD/sodipodi-0.dtd"
   xmlns:inkscape="http://www.inkscape.org/namespaces/inkscape"
   viewBox="0 0 64 64"
   version="1.1"
   id="svg6"
   sodipodi:docname="mergecell-vertical.svg"
   width="64"
   height="64"
   inkscape:version="0.92.2 5c3e80d, 2017-08-06">
  <metadata
     id="metadata10">
    <rdf:RDF>
      <cc:Work
         rdf:about="">
        <dc:format>image/svg+xml</dc:format>
        <dc:type
           rdf:resource="http://purl.org/dc/dcmitype/StillImage" />
        <dc:title></dc:title>
      </cc:Work>
    </rdf:RDF>
  </metadata>
  <sodipodi:namedview
     pagecolor="#ffffff"
     bordercolor="#666666"
     borderopacity="1"
     objecttolerance="10"
     gridtolerance="10"
     guidetolerance="10"
     inkscape:pageopacity="0"
     inkscape:pageshadow="2"
     inkscape:window-width="1366"
     inkscape:window-height="717"
     id="namedview8"
     showgrid="false"
     inkscape:zoom="2.6074563"
     inkscape:cx="79.130697"
     inkscape:cy="-17.816968"
     inkscape:window-x="0"
     inkscape:window-y="24"
     inkscape:window-maximized="1"
     inkscape:current-layer="svg6" />
  <defs
     id="defs3051">
    <style
       type="text/css"
       id="current-color-scheme">
      .ColorScheme-Text {
        color:#4d4d4d;
      }
      </style>
  </defs>
  <g
     id="g883">
    <path
       style="fill:#3689e6;fill-opacity:1;stroke-width:1.38869476"
       inkscape:connector-curvature="0"
       d="m 54.114159,7.059245 c 12.774113,11.071824 13.228347,31.212464 1.0146,44.987349 C 42.915013,65.821478 22.659955,68.012578 9.8858411,56.940752 -2.8882733,45.868928 -3.3425053,25.728287 8.871241,11.953403 21.084987,-1.8214825 41.340045,-4.0125788 54.114159,7.059245 Z"
       id="path27" />
    <path
       style="opacity:1;fill:#000000;fill-opacity:0.49019608;stroke-width:1.38869476"
       inkscape:connector-curvature="0"
       d="M 63.954439,28.112939 C 63.760515,35.776895 60.809285,43.632266 55.083641,50.089748 42.869894,63.86464 22.614836,66.055728 9.840722,54.983911 3.8533905,49.794454 0.56210278,42.615354 0.02422854,35.0286 0.099885,43.323184 3.3896764,51.310272 9.8848354,56.939883 22.658949,68.011703 42.914969,65.819528 55.127752,52.045721 61.340871,45.038457 64.25338,36.38435 63.954439,28.112939 Z"
       id="path51" />
    <g
       transform="matrix(0,1,1,0,0,0)"
       id="g867">
      <path
         inkscape:connector-curvature="0"
         id="path905"
         d="M 18.963867,15 C 16.80905,15 15,16.80905 15,18.963867 V 50.036133 C 15,52.19095 16.80905,54 18.963867,54 H 50.036132 C 52.19095,54 54,52.19095 54,50.036133 V 18.963867 C 54,16.80905 52.19095,15 50.036132,15 Z m 0.793213,4.75708 H 49.24292 V 49.24292 H 19.75708 Z"
         style="color:#000000;font-style:normal;font-variant:normal;font-weight:normal;font-stretch:normal;font-size:medium;line-height:normal;font-family:sans-serif;font-variant-ligatures:normal;font-variant-position:normal;font-variant-caps:normal;font-variant-numeric:normal;font-variant-alternates:normal;font-feature-settings:normal;text-indent:0;text-align:start;text-decoration:none;text-decoration-line:none;text-decoration-style:solid;text-decoration-color:#000000;letter-spacing:normal;word-spacing:normal;text-transform:none;writing-mode:lr-tb;direction:ltr;text-orientation:mixed;dominant-baseline:auto;baseline-shift:baseline;text-anchor:start;white-space:normal;shape-padding:0;clip-rule:nonzero;display:inline;overflow:visible;visibility:visible;opacity:1;isolation:auto;mix-blend-mode:normal;color-interpolation:sRGB;color-interpolation-filters:linearRGB;solid-color:#000000;solid-opacity:1;vector-effect:none;fill:#000000;fill-opacity:0.49019608;fill-rule:nonzero;stroke:none;stroke-width:4.75699139;stroke-linecap:butt;stroke-linejoin:miter;stroke-miterlimit:4;stroke-dasharray:none;stroke-dashoffset:0;stroke-opacity:1;color-rendering:auto;image-rendering:auto;shape-rendering:auto;text-rendering:auto;enable-background:accumulate" />
      <path
         inkscape:connector-curvature="0"
         style="opacity:1;fill:#000000;fill-opacity:0.49019608;stroke:none;stroke-width:4.44057417;stroke-miterlimit:4;stroke-dasharray:none;stroke-dashoffset:0;stroke-opacity:1"
         d="m 28.027832,19.75708 c -0.06654,0.155456 -0.104002,0.327169 -0.104005,0.508545 v 7.882569 h 2.440675 v -7.882569 c 0,-0.181376 -0.03771,-0.353089 -0.104248,-0.508545 z m -0.104005,10.831788 v 8.059326 h 2.440675 v -8.059326 z m 0,10.5 v 7.882812 c 0,0.09332 0.0105,0.183814 0.02905,0.27124 h 2.382324 c 0.01855,-0.08743 0.0293,-0.177914 0.0293,-0.27124 v -7.882812 z"
         id="rect907" />
      <path
         inkscape:connector-curvature="0"
         style="opacity:1;fill:#000000;fill-opacity:0.49019608;stroke:none;stroke-width:4.44057417;stroke-miterlimit:4;stroke-dasharray:none;stroke-dashoffset:0;stroke-opacity:1"
         d="m 38.528076,19.75708 c -0.06653,0.155449 -0.104248,0.327163 -0.104248,0.508545 v 7.882569 h 2.440674 v -7.882569 c 0,-0.181376 -0.0377,-0.3531 -0.104248,-0.508545 z"
         id="path909" />
      <path
         inkscape:connector-curvature="0"
         style="opacity:1;fill:#000000;fill-opacity:0.49019608;stroke:none;stroke-width:4.44057417;stroke-miterlimit:4;stroke-dasharray:none;stroke-dashoffset:0;stroke-opacity:1"
         d="m 20.041015,28.148194 c -0.09789,0 -0.192587,0.01186 -0.283935,0.03223 v 2.37622 c 0.09136,0.02036 0.186029,0.03223 0.283935,0.03223 H 48.74707 c 0.176356,0 0.343803,-0.03505 0.49585,-0.09815 v -2.24414 c -0.152048,-0.0631 -0.319494,-0.09839 -0.49585,-0.09839 z"
         id="rect911" />
      <path
         inkscape:connector-curvature="0"
         style="opacity:1;fill:#000000;fill-opacity:0.49019608;stroke:none;stroke-width:4.44057417;stroke-miterlimit:4;stroke-dasharray:none;stroke-dashoffset:0;stroke-opacity:1"
         d="m 20.041015,38.648194 c -0.09789,0 -0.192587,0.01186 -0.283935,0.03223 v 2.37622 c 0.09136,0.02036 0.186029,0.03223 0.283935,0.03223 H 48.74707 c 0.176356,0 0.343803,-0.03505 0.49585,-0.09814 v -2.24414 c -0.152048,-0.0631 -0.319494,-0.09839 -0.49585,-0.09839 z"
         id="rect913" />
    </g>
    <g
       transform="matrix(0,0.125,0.125,0,56,0)"
       id="g903">
      <path
         style="color:#000000;font-style:normal;font-variant:normal;font-weight:normal;font-stretch:normal;font-size:medium;line-height:normal;font-family:sans-serif;font-variant-ligatures:normal;font-variant-position:normal;font-variant-caps:normal;font-variant-numeric:normal;font-variant-alternates:normal;font-feature-settings:normal;text-indent:0;text-align:start;text-decoration:none;text-decoration-line:none;text-decoration-style:solid;text-decoration-color:#000000;letter-spacing:normal;word-spacing:normal;text-transform:none;writing-mode:lr-tb;direction:ltr;text-orientation:mixed;dominant-baseline:auto;baseline-shift:baseline;text-anchor:start;white-space:normal;shape-padding:0;clip-rule:nonzero;display:inline;overflow:visible;visibility:visible;opacity:1;isolation:auto;mix-blend-mode:normal;color-interpolation:sRGB;color-interpolation-filters:linearRGB;solid-color:#000000;solid-opacity:1;vector-effect:none;fill:#ffffff;fill-opacity:1;fill-rule:nonzero;stroke:none;stroke-width:38.05593109;stroke-linecap:butt;stroke-linejoin:miter;stroke-miterlimit:4;stroke-dasharray:none;stroke-dashoffset:0;stroke-opacity:1;color-rendering:auto;image-rendering:auto;shape-rendering:auto;text-rendering:auto;enable-background:accumulate"
         d="M 131.71094,-348 C 114.4724,-348 100,-333.5276 100,-316.28906 V -67.710938 C 100,-50.472397 114.4724,-36 131.71094,-36 H 380.28906 C 397.5276,-36 412,-50.472397 412,-67.710938 V -316.28906 C 412,-333.5276 397.5276,-348 380.28906,-348 Z m 6.3457,38.05664 H 373.94336 V -74.056641 H 138.05664 Z"
         id="rect840"
         inkscape:connector-curvature="0" />
      <rect
         style="opacity:1;fill:#ffffff;fill-opacity:1;stroke:none;stroke-width:35.52459335;stroke-miterlimit:4;stroke-dasharray:none;stroke-dashoffset:0;stroke-opacity:1"
         id="rect844"
         width="19.525423"
         height="249.76271"
         x="203.38985"
         y="-315.93222"
         ry="10.057558" />
      <path
         style="opacity:1;fill:#ffffff;fill-opacity:1;stroke:none;stroke-width:35.52459335;stroke-miterlimit:4;stroke-dasharray:none;stroke-dashoffset:0;stroke-opacity:1"
         d="m 297.15234,-315.93164 c -5.40854,0 -9.76172,4.48475 -9.76172,10.05664 v 63.06055 h 19.5254 V -305.875 c 0,-5.57189 -4.35513,-10.05664 -9.76368,-10.05664 z"
         id="rect846"
         inkscape:connector-curvature="0"
         sodipodi:nodetypes="ssccss" />
      <rect
         ry="10.057558"
         y="-380.03391"
         x="-242.81357"
         height="249.76271"
         width="19.525423"
         id="rect852"
         style="opacity:1;fill:#ffffff;fill-opacity:1;stroke:none;stroke-width:35.52459335;stroke-miterlimit:4;stroke-dasharray:none;stroke-dashoffset:0;stroke-opacity:1"
         transform="rotate(90)" />
      <rect
         style="opacity:1;fill:#ffffff;fill-opacity:1;stroke:none;stroke-width:35.52459335;stroke-miterlimit:4;stroke-dasharray:none;stroke-dashoffset:0;stroke-opacity:1"
         id="rect854"
         width="19.525423"
         height="249.76271"
         x="-158.81358"
         y="-380.03391"
         ry="10.057558"
         transform="rotate(90)" />
    </g>
  </g>
</svg>
