<?xml version="1.0" encoding="UTF-8" standalone="no"?>
<svg
   xmlns:dc="http://purl.org/dc/elements/1.1/"
   xmlns:cc="http://creativecommons.org/ns#"
   xmlns:rdf="http://www.w3.org/1999/02/22-rdf-syntax-ns#"
   xmlns:svg="http://www.w3.org/2000/svg"
   xmlns="http://www.w3.org/2000/svg"
   xmlns:sodipodi="http://sodipodi.sourceforge.net/DTD/sodipodi-0.dtd"
   xmlns:inkscape="http://www.inkscape.org/namespaces/inkscape"
   viewBox="0 0 64 64"
   version="1.1"
   id="svg6"
   sodipodi:docname="mergecell.svg"
   width="64"
   height="64"
   inkscape:version="0.92.2 5c3e80d, 2017-08-06">
  <metadata
     id="metadata10">
    <rdf:RDF>
      <cc:Work
         rdf:about="">
        <dc:format>image/svg+xml</dc:format>
        <dc:type
           rdf:resource="http://purl.org/dc/dcmitype/StillImage" />
        <dc:title></dc:title>
      </cc:Work>
    </rdf:RDF>
  </metadata>
  <sodipodi:namedview
     pagecolor="#ffffff"
     bordercolor="#666666"
     borderopacity="1"
     objecttolerance="10"
     gridtolerance="10"
     guidetolerance="10"
     inkscape:pageopacity="0"
     inkscape:pageshadow="2"
     inkscape:window-width="1366"
     inkscape:window-height="717"
     id="namedview8"
     showgrid="false"
     inkscape:zoom="5.2149125"
     inkscape:cx="36.520695"
     inkscape:cy="34.280657"
     inkscape:window-x="0"
     inkscape:window-y="24"
     inkscape:window-maximized="1"
     inkscape:current-layer="svg6" />
  <defs
     id="defs3051">
    <style
       type="text/css"
       id="current-color-scheme">
      .ColorScheme-Text {
        color:#4d4d4d;
      }
      </style>
  </defs>
  <g
     id="g953"
     transform="matrix(0.125,0,0,0.125,-1.576692e-8,56)">
    <path
       style="fill:#3689e6;fill-opacity:1;stroke-width:11.10955811"
       inkscape:connector-curvature="0"
       d="m 432.91327,-391.52604 c 102.19291,88.57459 105.82678,249.69971 8.1168,359.898792 C 343.3201,78.571824 181.27964,96.100624 79.086729,7.526016 -23.106186,-81.048576 -26.740042,-242.1737 70.969928,-352.37278 168.6799,-462.57186 330.72036,-480.10063 432.91327,-391.52604 Z"
       id="path27" />
    <path
       style="opacity:1;fill:#000000;fill-opacity:0.49019608;stroke-width:11.10955811"
       inkscape:connector-curvature="0"
       d="m 511.63551,-223.09649 c -1.55139,61.31165 -25.16123,124.154618 -70.96638,175.814474 C 342.95915,62.91712 180.91869,80.445824 78.725776,-8.128712 30.827124,-49.644368 4.4968223,-107.07717 0.19382834,-167.7712 0.79908002,-101.41453 27.117412,-37.517824 79.078684,7.519064 181.27159,96.093624 343.31975,78.556224 441.02202,-31.634232 490.72697,-87.692344 514.02704,-156.9252 511.63551,-223.09649 Z"
       id="path51" />
    <path
       style="color:#000000;font-style:normal;font-variant:normal;font-weight:normal;font-stretch:normal;font-size:medium;line-height:normal;font-family:sans-serif;font-variant-ligatures:normal;font-variant-position:normal;font-variant-caps:normal;font-variant-numeric:normal;font-variant-alternates:normal;font-feature-settings:normal;text-indent:0;text-align:start;text-decoration:none;text-decoration-line:none;text-decoration-style:solid;text-decoration-color:#000000;letter-spacing:normal;word-spacing:normal;text-transform:none;writing-mode:lr-tb;direction:ltr;text-orientation:mixed;dominant-baseline:auto;baseline-shift:baseline;text-anchor:start;white-space:normal;shape-padding:0;clip-rule:nonzero;display:inline;overflow:visible;visibility:visible;opacity:1;isolation:auto;mix-blend-mode:normal;color-interpolation:sRGB;color-interpolation-filters:linearRGB;solid-color:#000000;solid-opacity:1;vector-effect:none;fill:#000000;fill-opacity:0.49019608;fill-rule:nonzero;stroke:none;stroke-width:38.05593109;stroke-linecap:butt;stroke-linejoin:miter;stroke-miterlimit:4;stroke-dasharray:none;stroke-dashoffset:0;stroke-opacity:1;color-rendering:auto;image-rendering:auto;shape-rendering:auto;text-rendering:auto;enable-background:accumulate"
       d="M 151.71094,-328 C 134.4724,-328 120,-313.5276 120,-296.28906 V -47.710938 C 120,-30.472397 134.4724,-16 151.71094,-16 H 400.28906 C 417.5276,-16 432,-30.472397 432,-47.710938 V -296.28906 C 432,-313.5276 417.5276,-328 400.28906,-328 Z m 6.3457,38.05664 H 393.94336 V -54.056641 H 158.05664 Z"
       id="path908"
       inkscape:connector-curvature="0" />
    <path
       id="rect910"
       d="m 224.22266,-289.94336 c -0.5323,1.24365 -0.83204,2.61735 -0.83204,4.06836 v 229.648438 c 0,0.74659 0.084,1.470513 0.23243,2.169921 h 19.05859 c 0.14842,-0.699428 0.23438,-1.423308 0.23438,-2.169921 V -285.875 c 0,-1.45101 -0.30169,-2.82471 -0.83399,-4.06836 z"
       style="opacity:1;fill:#000000;fill-opacity:0.49019608;stroke:none;stroke-width:35.52459335;stroke-miterlimit:4;stroke-dasharray:none;stroke-dashoffset:0;stroke-opacity:1"
       inkscape:connector-curvature="0" />
    <path
       id="path912"
       d="m 308.22461,-289.94336 c -0.53223,1.24359 -0.83399,2.6173 -0.83399,4.06836 v 63.06055 h 19.5254 V -285.875 c 0,-1.45101 -0.3016,-2.8248 -0.83399,-4.06836 z"
       style="opacity:1;fill:#000000;fill-opacity:0.49019608;stroke:none;stroke-width:35.52459335;stroke-miterlimit:4;stroke-dasharray:none;stroke-dashoffset:0;stroke-opacity:1"
       inkscape:connector-curvature="0" />
    <path
       id="rect914"
       d="m 160.32812,-222.81445 c -0.78312,0 -1.5407,0.0949 -2.27148,0.25781 v 19.00976 c 0.73088,0.16292 1.48823,0.25782 2.27148,0.25782 h 63.0625 v -19.52539 z m 82.5879,0 v 19.52539 h 147.06054 c 1.41085,0 2.75042,-0.2804 3.9668,-0.78516 v -17.95312 c -1.21638,-0.50477 -2.55595,-0.78711 -3.9668,-0.78711 z"
       style="opacity:1;fill:#000000;fill-opacity:0.49019608;stroke:none;stroke-width:35.52459335;stroke-miterlimit:4;stroke-dasharray:none;stroke-dashoffset:0;stroke-opacity:1"
       inkscape:connector-curvature="0" />
    <path
       id="path916"
       d="m 160.32812,-138.81445 c -0.78308,0 -1.54077,0.0949 -2.27148,0.25781 v 19.00976 c 0.73071,0.16282 1.4884,0.25782 2.27148,0.25782 h 63.0625 v -19.52539 z"
       style="opacity:1;fill:#000000;fill-opacity:0.49019608;stroke:none;stroke-width:35.52459335;stroke-miterlimit:4;stroke-dasharray:none;stroke-dashoffset:0;stroke-opacity:1"
       inkscape:connector-curvature="0" />
    <g
       id="g906">
      <path
         style="color:#000000;font-style:normal;font-variant:normal;font-weight:normal;font-stretch:normal;font-size:medium;line-height:normal;font-family:sans-serif;font-variant-ligatures:normal;font-variant-position:normal;font-variant-caps:normal;font-variant-numeric:normal;font-variant-alternates:normal;font-feature-settings:normal;text-indent:0;text-align:start;text-decoration:none;text-decoration-line:none;text-decoration-style:solid;text-decoration-color:#000000;letter-spacing:normal;word-spacing:normal;text-transform:none;writing-mode:lr-tb;direction:ltr;text-orientation:mixed;dominant-baseline:auto;baseline-shift:baseline;text-anchor:start;white-space:normal;shape-padding:0;clip-rule:nonzero;display:inline;overflow:visible;visibility:visible;opacity:1;isolation:auto;mix-blend-mode:normal;color-interpolation:sRGB;color-interpolation-filters:linearRGB;solid-color:#000000;solid-opacity:1;vector-effect:none;fill:#ffffff;fill-opacity:1;fill-rule:nonzero;stroke:none;stroke-width:38.05593109;stroke-linecap:butt;stroke-linejoin:miter;stroke-miterlimit:4;stroke-dasharray:none;stroke-dashoffset:0;stroke-opacity:1;color-rendering:auto;image-rendering:auto;shape-rendering:auto;text-rendering:auto;enable-background:accumulate"
         d="M 131.71094,-348 C 114.4724,-348 100,-333.5276 100,-316.28906 V -67.710938 C 100,-50.472397 114.4724,-36 131.71094,-36 H 380.28906 C 397.5276,-36 412,-50.472397 412,-67.710938 V -316.28906 C 412,-333.5276 397.5276,-348 380.28906,-348 Z m 6.3457,38.05664 H 373.94336 V -74.056641 H 138.05664 Z"
         id="rect840"
         inkscape:connector-curvature="0" />
      <rect
         style="opacity:1;fill:#ffffff;fill-opacity:1;stroke:none;stroke-width:35.52459335;stroke-miterlimit:4;stroke-dasharray:none;stroke-dashoffset:0;stroke-opacity:1"
         id="rect844"
         width="19.525423"
         height="249.76271"
         x="203.38985"
         y="-315.93222"
         ry="10.057558" />
      <path
         style="opacity:1;fill:#ffffff;fill-opacity:1;stroke:none;stroke-width:35.52459335;stroke-miterlimit:4;stroke-dasharray:none;stroke-dashoffset:0;stroke-opacity:1"
         d="m 297.15234,-315.93164 c -5.40854,0 -9.76172,4.48475 -9.76172,10.05664 v 63.06055 h 19.5254 V -305.875 c 0,-5.57189 -4.35513,-10.05664 -9.76368,-10.05664 z"
         id="rect846"
         inkscape:connector-curvature="0"
         sodipodi:nodetypes="ssccss" />
      <rect
         ry="10.057558"
         y="-380.03391"
         x="-242.81357"
         height="249.76271"
         width="19.525423"
         id="rect852"
         style="opacity:1;fill:#ffffff;fill-opacity:1;stroke:none;stroke-width:35.52459335;stroke-miterlimit:4;stroke-dasharray:none;stroke-dashoffset:0;stroke-opacity:1"
         transform="rotate(90)" />
      <path
         style="opacity:1;fill:#ffffff;fill-opacity:1;stroke:none;stroke-width:35.52459335;stroke-miterlimit:4;stroke-dasharray:none;stroke-dashoffset:0;stroke-opacity:1"
         d="m 140.32812,-158.81445 c -5.57188,0 -10.05664,4.35513 -10.05664,9.76367 0,5.40854 4.48476,9.76172 10.05664,9.76172 h 63.0625 v -19.52539 z"
         id="rect854"
         inkscape:connector-curvature="0"
         sodipodi:nodetypes="sssccs" />
    </g>
  </g>
</svg>
