<?xml version="1.0" encoding="UTF-8" standalone="no"?>
<svg
   xmlns:dc="http://purl.org/dc/elements/1.1/"
   xmlns:cc="http://creativecommons.org/ns#"
   xmlns:rdf="http://www.w3.org/1999/02/22-rdf-syntax-ns#"
   xmlns:svg="http://www.w3.org/2000/svg"
   xmlns="http://www.w3.org/2000/svg"
   xmlns:sodipodi="http://sodipodi.sourceforge.net/DTD/sodipodi-0.dtd"
   xmlns:inkscape="http://www.inkscape.org/namespaces/inkscape"
   viewBox="0 0 64 64"
   version="1.1"
   id="svg8"
   sodipodi:docname="messagebox_warning.svg"
   width="64"
   height="64"
   inkscape:version="0.92.2 5c3e80d, 2017-08-06">
  <metadata
     id="metadata12">
    <rdf:RDF>
      <cc:Work
         rdf:about="">
        <dc:format>image/svg+xml</dc:format>
        <dc:type
           rdf:resource="http://purl.org/dc/dcmitype/StillImage" />
        <dc:title></dc:title>
      </cc:Work>
    </rdf:RDF>
  </metadata>
  <sodipodi:namedview
     pagecolor="#ffffff"
     bordercolor="#666666"
     borderopacity="1"
     objecttolerance="10"
     gridtolerance="10"
     guidetolerance="10"
     inkscape:pageopacity="0"
     inkscape:pageshadow="2"
     inkscape:window-width="1366"
     inkscape:window-height="717"
     id="namedview10"
     showgrid="false"
     inkscape:zoom="1.7383042"
     inkscape:cx="89.112451"
     inkscape:cy="1.4230541"
     inkscape:window-x="0"
     inkscape:window-y="24"
     inkscape:window-maximized="1"
     inkscape:current-layer="svg8" />
  <defs
     id="defs3051">
    <style
       type="text/css"
       id="current-color-scheme">
      .ColorScheme-Text {
        color:#4d4d4d;
      }
      .ColorScheme-NegativeText {
        color:#da4453;
      }
      </style>
  </defs>
  <g
     transform="matrix(0.47244092,0,0,0.47244092,-70.385695,-75.82697)"
     id="g905">
    <path
       style="fill:#c6262e;fill-opacity:1;stroke-width:2.93940401"
       inkscape:connector-curvature="0"
       d="m 263.52471,175.44243 c 27.03854,23.43536 28,66.06639 2.14757,95.22323 -25.85244,29.15684 -68.72564,33.79466 -95.76418,10.3593 -27.03855,-23.43536 -28,-66.06639 -2.14757,-95.22323 25.85243,-29.15684 68.72563,-33.79466 95.76418,-10.3593 z"
       id="path27-5" />
    <path
       style="opacity:1;fill:#000000;fill-opacity:0.49019608;stroke-width:2.93940401"
       inkscape:connector-curvature="0"
       d="m 284.3533,220.00609 c -0.41047,16.22203 -6.65724,32.84923 -18.77652,46.51757 -25.85244,29.15685 -68.72564,33.79466 -95.76419,10.35931 -12.67318,-10.98434 -19.63974,-26.18011 -20.77824,-42.23873 0.16014,17.55686 7.12353,34.46287 20.87162,46.37887 27.03854,23.43536 69.91378,18.79524 95.76418,-10.3593 13.1511,-14.83205 19.31591,-33.14991 18.68315,-50.65772 z"
       id="path51-6" />
    <g
       style="fill:#000000;fill-opacity:0.49019608"
       id="g1163"
       transform="translate(153.46288,5.431349)">
      <path
         sodipodi:open="true"
         sodipodi:end="6.2784904"
         sodipodi:start="0"
         d="m 77.516251,260.09808 a 9.0926666,9.2709541 0 0 1 -9.081995,9.27095 9.0926666,9.2709541 0 0 1 -9.103314,-9.24918 9.0926666,9.2709541 0 0 1 9.060625,-9.29266 9.0926666,9.2709541 0 0 1 9.124583,9.22737"
         sodipodi:ry="9.2709541"
         sodipodi:rx="9.0926666"
         sodipodi:cy="260.09808"
         sodipodi:cx="68.423584"
         id="path1159"
         style="fill:#000000;fill-opacity:0.49019608;stroke:none;stroke-width:9.42096996"
         sodipodi:type="arc" />
      <path
         sodipodi:nodetypes="ccczcc"
         inkscape:connector-curvature="0"
         id="path1161"
         d="m 65.57093,244.76489 h 5.170323 c 0,0 7.091526,-48.66491 7.30976,-48.85042 0,0 -0.977407,-9.25813 -9.449231,-9.09327 -8.471752,0.17804 -9.449195,9.09327 -9.449195,9.09327 z"
         style="fill:#000000;fill-opacity:0.49019608;stroke:none;stroke-width:9.42096996" />
    </g>
    <g
       transform="translate(148.17111,0.1396676)"
       id="g1157">
      <path
         sodipodi:type="arc"
         style="fill:#ffffff;fill-opacity:1;stroke:none;stroke-width:9.42096996"
         id="path2997-3"
         sodipodi:cx="68.423584"
         sodipodi:cy="260.09808"
         sodipodi:rx="9.0926666"
         sodipodi:ry="9.2709541"
         d="m 77.516251,260.09808 a 9.0926666,9.2709541 0 0 1 -9.081995,9.27095 9.0926666,9.2709541 0 0 1 -9.103314,-9.24918 9.0926666,9.2709541 0 0 1 9.060625,-9.29266 9.0926666,9.2709541 0 0 1 9.124583,9.22737"
         sodipodi:start="0"
         sodipodi:end="6.2784904"
         sodipodi:open="true" />
      <path
         style="fill:#ffffff;fill-opacity:1;stroke:none;stroke-width:9.42096996"
         d="m 65.57093,244.76489 h 5.170323 c 0,0 7.091526,-48.66491 7.30976,-48.85042 0,0 -0.977407,-9.25813 -9.449231,-9.09327 -8.471752,0.17804 -9.449195,9.09327 -9.449195,9.09327 z"
         id="path2999-5"
         inkscape:connector-curvature="0"
         sodipodi:nodetypes="ccczcc" />
    </g>
  </g>
</svg>
