<?xml version="1.0" encoding="UTF-8" standalone="no"?>
<!-- Created with Inkscape (http://www.inkscape.org/) -->

<svg
   xmlns:dc="http://purl.org/dc/elements/1.1/"
   xmlns:cc="http://creativecommons.org/ns#"
   xmlns:rdf="http://www.w3.org/1999/02/22-rdf-syntax-ns#"
   xmlns:svg="http://www.w3.org/2000/svg"
   xmlns="http://www.w3.org/2000/svg"
   xmlns:sodipodi="http://sodipodi.sourceforge.net/DTD/sodipodi-0.dtd"
   xmlns:inkscape="http://www.inkscape.org/namespaces/inkscape"
   id="svg3699"
   height="64"
   viewBox="0 0 64 64"
   width="64"
   version="1.1"
   sodipodi:docname="minuet-intervals.svg"
   inkscape:version="0.92.2 5c3e80d, 2017-08-06">
  <sodipodi:namedview
     pagecolor="#ffffff"
     bordercolor="#666666"
     borderopacity="1"
     objecttolerance="10"
     gridtolerance="10"
     guidetolerance="10"
     inkscape:pageopacity="0"
     inkscape:pageshadow="2"
     inkscape:window-width="1366"
     inkscape:window-height="717"
     id="namedview8"
     showgrid="false"
     inkscape:zoom="5.2149125"
     inkscape:cx="26.42754"
     inkscape:cy="36.506929"
     inkscape:window-x="0"
     inkscape:window-y="24"
     inkscape:window-maximized="1"
     inkscape:current-layer="svg3699" />
  <defs
     id="defs4339">
    <style
       id="current-color-scheme"
       type="text/css">.ColorScheme-Text {
        color:#4d4d4d;
      }</style>
  </defs>
  <metadata
     id="metadata3704">
    <rdf:RDF>
      <cc:Work
         rdf:about="">
        <dc:format>image/svg+xml</dc:format>
        <dc:type
           rdf:resource="http://purl.org/dc/dcmitype/StillImage" />
        <dc:title></dc:title>
      </cc:Work>
    </rdf:RDF>
  </metadata>
  <g
     id="g913"
     transform="matrix(0.125,0,0,0.125,1.0362683e-7,56.000001)">
    <path
       style="fill:#3689e6;fill-opacity:1;stroke-width:11.10955238"
       inkscape:connector-curvature="0"
       d="m 432.91337,-391.52601 c 102.1928,88.57459 105.82666,249.69971 8.11679,359.898788 C 343.3201,78.571818 181.27948,96.100618 79.086674,7.526038 -23.106167,-81.048552 -26.740027,-242.17367 70.969882,-352.37275 168.67976,-462.57183 330.7203,-480.1006 432.91337,-391.52601 Z"
       id="path911" />
    <path
       style="opacity:1;fill:#000000;fill-opacity:0.49019608;stroke-width:11.10955238"
       inkscape:connector-curvature="0"
       d="M 511.63501,-223.09646 C 510.08361,-161.7848 486.4738,-98.941862 440.6687,-47.281972 342.95883,62.917118 180.91853,80.445818 78.72572,-8.128712 30.827116,-49.644342 4.4968409,-107.07715 0.1938515,-167.77119 0.79910229,-101.41451 27.117407,-37.517792 79.078624,7.519058 181.27144,96.093618 343.31942,78.556218 441.0216,-31.634202 c 49.70489,-56.05814 73.00495,-125.290968 70.61341,-191.462258 z"
       id="path913" />
    <g
       style="fill:#000000;fill-opacity:0.49019608"
       transform="translate(20,20.08326)"
       id="g895">
      <path
         sodipodi:nodetypes="sssccsccssscssccs"
         inkscape:connector-curvature="0"
         id="path883"
         d="m 113,-312.61914 c -7.202,0 -13,5.798 -13,13 0,7.202 5.798,13 13,13 h 62.60352 c 3.83244,-9.51857 8.70094,-18.36082 14.85546,-26 z m 225.95117,0 c 15.08663,9.11863 27.96303,18.79561 36.8418,26 H 399 c 7.202,0 13,-5.798 13,-13 0,-7.202 -5.798,-13 -13,-13 z m -49.94531,4.01758 c -16.62689,-0.0518 -33.91737,3.54695 -50.46289,13.24023 -4.50718,2.64055 -8.69916,5.57773 -12.61914,8.74219 h 131.00586 c -17.37955,-9.59546 -37.52714,-21.88779 -67.92383,-21.98242 z"
         style="opacity:1;fill:#000000;fill-opacity:0.49019608;stroke:none;stroke-width:25;stroke-miterlimit:4;stroke-dasharray:none;stroke-dashoffset:0;stroke-opacity:1" />
      <path
         inkscape:connector-curvature="0"
         id="path885"
         d="m 113,-208.61914 c -7.202,0 -13,5.798 -13,13 0,7.202 5.798,13 13,13 h 52.06641 c -0.45045,-7.61998 -0.73722,-16.46099 -0.6211,-26 z m 70.6543,0 c -2.53382,9.43064 -4.26635,18.3 -5.44141,26 h 108.67969 a 52.5,52.5 0 0 1 -2.32422,-15.28125 52.5,52.5 0 0 1 1.12109,-10.71875 z m 204.74804,0 a 52.5,52.5 0 0 1 1.16602,10.71875 52.5,52.5 0 0 1 -2.2832,15.28125 H 399 c 7.202,0 13,-5.798 13,-13 0,-7.202 -5.798,-13 -13,-13 z"
         style="opacity:1;fill:#000000;fill-opacity:0.49019608;stroke:none;stroke-width:25;stroke-miterlimit:4;stroke-dasharray:none;stroke-dashoffset:0;stroke-opacity:1" />
      <path
         inkscape:connector-curvature="0"
         id="path887"
         d="m 113,-104.61914 c -7.202,0 -13,5.797999 -13,12.999999 0,7.202 5.798,13 13,13 h 15.7793 a 52.5,52.5 0 0 1 -2.21875,-14.964843 52.5,52.5 0 0 1 1.20117,-11.035156 z m 117.32227,0 a 52.5,52.5 0 0 1 1.23828,11.035156 52.5,52.5 0 0 1 -2.20508,14.964843 H 399 c 7.202,0 13,-5.798 13,-13 0,-7.202 -5.798,-12.999999 -13,-12.999999 z"
         style="opacity:1;fill:#000000;fill-opacity:0.49019608;stroke:none;stroke-width:25;stroke-miterlimit:4;stroke-dasharray:none;stroke-dashoffset:0;stroke-opacity:1" />
      <circle
         r="52.5"
         cy="-93.58326"
         cx="179.06012"
         id="circle889"
         style="opacity:1;fill:#000000;fill-opacity:0.49019608;stroke:none;stroke-width:24.98019218;stroke-miterlimit:4;stroke-dasharray:none;stroke-dashoffset:0;stroke-opacity:1" />
      <circle
         style="opacity:1;fill:#000000;fill-opacity:0.49019608;stroke:none;stroke-width:24.98019218;stroke-miterlimit:4;stroke-dasharray:none;stroke-dashoffset:0;stroke-opacity:1"
         id="circle891"
         cx="337.06851"
         cy="-197.89949"
         r="52.5" />
      <path
         sodipodi:nodetypes="czczc"
         inkscape:connector-curvature="0"
         id="path893"
         d="m 173.10488,-190.59919 c 0,0 -15.17308,-99.53051 45.95454,-132.87711 61.12762,-33.3466 137.96153,32.24863 137.96153,32.24863 0,0 -61.05008,-44.35489 -122.62997,-9.03342 -61.5799,35.32147 -61.2861,109.6619 -61.2861,109.6619 z"
         style="fill:#000000;fill-opacity:0.49019608;stroke:none;stroke-width:1.08123481px;stroke-linecap:butt;stroke-linejoin:miter;stroke-opacity:1" />
    </g>
    <g
       id="g881">
      <path
         style="opacity:1;fill:#ffffff;fill-opacity:1;stroke:none;stroke-width:25;stroke-miterlimit:4;stroke-dasharray:none;stroke-dashoffset:0;stroke-opacity:1"
         d="m 113,-312.61914 c -7.202,0 -13,5.798 -13,13 0,7.202 5.798,13 13,13 h 62.60352 c 3.83244,-9.51857 8.70094,-18.36082 14.85546,-26 z m 225.95117,0 c 15.08663,9.11863 27.96303,18.79561 36.8418,26 H 399 c 7.202,0 13,-5.798 13,-13 0,-7.202 -5.798,-13 -13,-13 z m -49.94531,4.01758 c -16.62689,-0.0518 -33.91737,3.54695 -50.46289,13.24023 -4.50718,2.64055 -8.69916,5.57773 -12.61914,8.74219 h 131.00586 c -17.37955,-9.59546 -37.52714,-21.88779 -67.92383,-21.98242 z"
         id="rect46"
         inkscape:connector-curvature="0"
         sodipodi:nodetypes="sssccsccssscssccs" />
      <path
         style="opacity:1;fill:#ffffff;fill-opacity:1;stroke:none;stroke-width:25;stroke-miterlimit:4;stroke-dasharray:none;stroke-dashoffset:0;stroke-opacity:1"
         d="m 113,-208.61914 c -7.202,0 -13,5.798 -13,13 0,7.202 5.798,13 13,13 h 52.06641 c -0.45045,-7.61998 -0.73722,-16.46099 -0.6211,-26 z m 70.6543,0 c -2.53382,9.43064 -4.26635,18.3 -5.44141,26 h 108.67969 a 52.5,52.5 0 0 1 -2.32422,-15.28125 52.5,52.5 0 0 1 1.12109,-10.71875 z m 204.74804,0 a 52.5,52.5 0 0 1 1.16602,10.71875 52.5,52.5 0 0 1 -2.2832,15.28125 H 399 c 7.202,0 13,-5.798 13,-13 0,-7.202 -5.798,-13 -13,-13 z"
         id="rect853"
         inkscape:connector-curvature="0" />
      <path
         style="opacity:1;fill:#ffffff;fill-opacity:1;stroke:none;stroke-width:25;stroke-miterlimit:4;stroke-dasharray:none;stroke-dashoffset:0;stroke-opacity:1"
         d="m 113,-104.61914 c -7.202,0 -13,5.797999 -13,12.999999 0,7.202 5.798,13 13,13 h 15.7793 a 52.5,52.5 0 0 1 -2.21875,-14.964843 52.5,52.5 0 0 1 1.20117,-11.035156 z m 117.32227,0 a 52.5,52.5 0 0 1 1.23828,11.035156 52.5,52.5 0 0 1 -2.20508,14.964843 H 399 c 7.202,0 13,-5.798 13,-13 0,-7.202 -5.798,-12.999999 -13,-12.999999 z"
         id="rect855"
         inkscape:connector-curvature="0" />
      <circle
         style="opacity:1;fill:#ffffff;fill-opacity:1;stroke:none;stroke-width:24.98019218;stroke-miterlimit:4;stroke-dasharray:none;stroke-dashoffset:0;stroke-opacity:1"
         id="path857"
         cx="179.06012"
         cy="-93.58326"
         r="52.5" />
      <circle
         r="52.5"
         cy="-197.89949"
         cx="337.06851"
         id="circle859"
         style="opacity:1;fill:#ffffff;fill-opacity:1;stroke:none;stroke-width:24.98019218;stroke-miterlimit:4;stroke-dasharray:none;stroke-dashoffset:0;stroke-opacity:1" />
      <path
         style="fill:#ffffff;stroke:none;stroke-width:1.08123481px;stroke-linecap:butt;stroke-linejoin:miter;stroke-opacity:1"
         d="m 173.10488,-190.59919 c 0,0 -15.17308,-99.53051 45.95454,-132.87711 61.12762,-33.3466 137.96153,32.24863 137.96153,32.24863 0,0 -61.05008,-44.35489 -122.62997,-9.03342 -61.5799,35.32147 -61.2861,109.6619 -61.2861,109.6619 z"
         id="path861"
         inkscape:connector-curvature="0"
         sodipodi:nodetypes="czczc" />
    </g>
  </g>
</svg>
