<?xml version="1.0" encoding="UTF-8" standalone="no"?>
<!-- Created with Inkscape (http://www.inkscape.org/) -->

<svg
   xmlns:dc="http://purl.org/dc/elements/1.1/"
   xmlns:cc="http://creativecommons.org/ns#"
   xmlns:rdf="http://www.w3.org/1999/02/22-rdf-syntax-ns#"
   xmlns:svg="http://www.w3.org/2000/svg"
   xmlns="http://www.w3.org/2000/svg"
   xmlns:sodipodi="http://sodipodi.sourceforge.net/DTD/sodipodi-0.dtd"
   xmlns:inkscape="http://www.inkscape.org/namespaces/inkscape"
   id="svg3699"
   height="64"
   viewBox="0 0 64 64"
   width="64"
   version="1.1"
   sodipodi:docname="minuet-rhythms.svg"
   inkscape:version="0.92.2 5c3e80d, 2017-08-06">
  <sodipodi:namedview
     pagecolor="#ffffff"
     bordercolor="#666666"
     borderopacity="1"
     objecttolerance="10"
     gridtolerance="10"
     guidetolerance="10"
     inkscape:pageopacity="0"
     inkscape:pageshadow="2"
     inkscape:window-width="1366"
     inkscape:window-height="717"
     id="namedview8"
     showgrid="false"
     inkscape:zoom="0.32593203"
     inkscape:cx="171.06025"
     inkscape:cy="516.65083"
     inkscape:window-x="0"
     inkscape:window-y="24"
     inkscape:window-maximized="1"
     inkscape:current-layer="svg3699" />
  <defs
     id="defs4339">
    <style
       id="current-color-scheme"
       type="text/css">.ColorScheme-Text {
        color:#4d4d4d;
      }</style>
  </defs>
  <metadata
     id="metadata3704">
    <rdf:RDF>
      <cc:Work
         rdf:about="">
        <dc:format>image/svg+xml</dc:format>
        <dc:type
           rdf:resource="http://purl.org/dc/dcmitype/StillImage" />
        <dc:title></dc:title>
      </cc:Work>
    </rdf:RDF>
  </metadata>
  <g
     id="g890"
     transform="matrix(0.125,0,0,0.125,-1.7756208e-8,56)">
    <path
       id="path850"
       d="m 432.91327,-391.52607 c 102.19291,88.57458 105.82678,249.69974 8.1168,359.898837 C 343.32006,78.571841 181.27962,96.100609 79.086739,7.526016 -23.106206,-81.04857 -26.74003,-242.17373 70.969939,-352.37281 168.67988,-462.57189 330.72032,-480.10066 432.91327,-391.52607 Z"
       inkscape:connector-curvature="0"
       style="fill:#3689e6;fill-opacity:1;stroke-width:11.10955906" />
    <path
       id="path852"
       d="m 511.63551,-223.09649 c -1.55139,61.31161 -25.16123,124.15457 -70.96639,175.81444 C 342.95911,62.917072 180.91868,80.445801 78.725755,-8.128745 30.827121,-49.644362 4.4968187,-107.0772 0.1938266,-167.77119 0.79910662,-101.41456 27.117401,-37.517826 79.078691,7.519016 181.27156,96.093609 343.31971,78.556153 441.02202,-31.634233 490.72697,-87.69238 514.02704,-156.92524 511.63551,-223.09649 Z"
       inkscape:connector-curvature="0"
       style="opacity:1;fill:#000000;fill-opacity:0.49019608;stroke-width:11.10955906" />
    <g
       style="fill:#000000;fill-opacity:0.49019608"
       transform="translate(19.999834,20.303754)"
       id="g874">
      <path
         sodipodi:nodetypes="cccccccscsccccccccccccccscccccc"
         inkscape:connector-curvature="0"
         id="path864"
         d="m 376.00586,-347.99609 c -2.11147,0.0345 -3.6889,0.26633 -5.66211,0.7832 -1.27253,0.33325 -38.6977,11.76311 -118.74609,36.26172 -10.81119,3.3086 -20.12566,6.19948 -20.69922,6.42578 -3.26264,1.2873 -7.26699,3.64096 -10.29102,6.04687 -2.1405,1.70289 -6.13382,5.79847 -7.74804,7.94727 -4.30845,5.73559 -7.04934,12.09988 -7.98829,18.55078 -0.2755,1.89281 -0.30859,10.24514 -0.30859,74.46485 0,39.57658 -0.048,59.77567 -0.10547,60.11132 4.26792,3.0747 9.2084,7.34325 13.36133,12.85547 9.58545,12.72285 10.50977,26.378908 10.50976,26.378908 l 0.10157,-52.386718 0.10156,-64.38477 0.47266,-1.40429 c 0.91006,-2.69619 2.19851,-4.71418 4.36328,-6.83399 2.81795,-2.75929 6.33107,-4.80557 10.60742,-6.17969 1.54445,-0.49619 12.51188,-3.9393 24.37109,-7.65039 11.85921,-3.71131 26.8413,-8.40392 33.29492,-10.42773 33.49508,-10.50399 58.66727,-18.38458 60.2754,-18.87109 1.56961,-0.4742 2.15731,-0.54534 4.51171,-0.55664 2.34777,-0.009 2.85974,0.05 3.8418,0.43945 2.33143,0.92439 3.93947,3.07636 4.375,5.85156 0.13497,0.86001 0.20703,18.07899 0.20703,50.58399 l 0.002,47.69726 c 4.43047,3.10636 9.70297,7.54062 14.10156,13.37891 5.82971,7.73783 8.44636,15.80127 9.60937,20.94726 0.16148,-10.37044 0.15508,-34.66744 0.15625,-98.13086 0.001,-91.73351 -0.031,-102.80878 -0.30859,-104.40039 -1.29906,-7.44949 -5.73005,-13.20597 -12.25391,-15.92187 -2.65213,-1.10411 -4.2892,-1.42703 -7.82812,-1.54688 -0.85709,-0.029 -1.6204,-0.0408 -2.32422,-0.0293 z"
         style="fill:#000000;fill-opacity:0.49019608;stroke-width:0.20057875" />
      <g
         transform="matrix(4.3615363,0,0,4.3615363,-402.94158,504.30198)"
         id="g868"
         style="font-style:normal;font-weight:normal;font-size:40px;line-height:1.25;font-family:sans-serif;letter-spacing:0px;word-spacing:0px;fill:#000000;fill-opacity:0.49019608;stroke:none"
         aria-label="x">
        <path
           inkscape:connector-curvature="0"
           id="path866"
           style="font-style:normal;font-variant:normal;font-weight:normal;font-stretch:normal;font-family:'Comic Sans MS';-inkscape-font-specification:'Comic Sans MS';fill:#000000;fill-opacity:0.49019608"
           d="m 139.98633,-139.73144 -2.85156,2.67578 -3.47657,3.45703 6.36719,8.32032 q 0.48828,0.625 0.48828,1.23046 0,0.76172 -0.58594,1.34766 -0.58593,0.58594 -1.32812,0.58594 -0.74219,0 -1.34766,-0.72266 -1.79687,-2.08984 -6.32812,-8.04687 l -3.8086,3.92578 q -1.15234,1.03515 -3.35937,3.22265 -0.625,0.70313 -1.34766,0.70313 -0.74218,0 -1.32812,-0.58594 -0.56641,-0.58594 -0.56641,-1.34765 0,-0.60547 0.48828,-1.23047 0.54688,-0.72266 1.69922,-1.73828 1.34766,-1.19141 1.77735,-1.64063 l 4.16015,-4.35547 -2.55859,-3.6914 q -1.54297,-2.20704 -2.69531,-3.22266 -0.74219,-0.66406 -0.74219,-1.44531 0,-0.78125 0.54687,-1.38672 0.56641,-0.60547 1.28907,-0.60547 1.15234,0 3.47656,3.00781 l 3.3789,4.66797 3.82813,-3.51562 q 2.38281,-2.2461 3.22266,-3.51563 0.625,-0.91797 1.48437,-0.91797 0.76172,0 1.34766,0.56641 0.58593,0.5664 0.58593,1.30859 0,1.07422 -1.8164,2.94922 z" />
      </g>
      <g
         aria-label="x"
         style="font-style:normal;font-weight:normal;font-size:40px;line-height:1.25;font-family:sans-serif;letter-spacing:0px;word-spacing:0px;fill:#000000;fill-opacity:0.49019608;stroke:none"
         id="g872"
         transform="matrix(4.3615363,0,0,4.3615363,-231.55175,483.75961)">
        <path
           d="m 139.98633,-139.73144 -2.85156,2.67578 -3.47657,3.45703 6.36719,8.32032 q 0.48828,0.625 0.48828,1.23046 0,0.76172 -0.58594,1.34766 -0.58593,0.58594 -1.32812,0.58594 -0.74219,0 -1.34766,-0.72266 -1.79687,-2.08984 -6.32812,-8.04687 l -3.8086,3.92578 q -1.15234,1.03515 -3.35937,3.22265 -0.625,0.70313 -1.34766,0.70313 -0.74218,0 -1.32812,-0.58594 -0.56641,-0.58594 -0.56641,-1.34765 0,-0.60547 0.48828,-1.23047 0.54688,-0.72266 1.69922,-1.73828 1.34766,-1.19141 1.77735,-1.64063 l 4.16015,-4.35547 -2.55859,-3.6914 q -1.54297,-2.20704 -2.69531,-3.22266 -0.74219,-0.66406 -0.74219,-1.44531 0,-0.78125 0.54687,-1.38672 0.56641,-0.60547 1.28907,-0.60547 1.15234,0 3.47656,3.00781 l 3.3789,4.66797 3.82813,-3.51562 q 2.38281,-2.2461 3.22266,-3.51563 0.625,-0.91797 1.48437,-0.91797 0.76172,0 1.34766,0.56641 0.58593,0.5664 0.58593,1.30859 0,1.07422 -1.8164,2.94922 z"
           style="font-style:normal;font-variant:normal;font-weight:normal;font-stretch:normal;font-family:'Comic Sans MS';-inkscape-font-specification:'Comic Sans MS';fill:#000000;fill-opacity:0.49019608"
           id="path870"
           inkscape:connector-curvature="0" />
      </g>
    </g>
    <g
       id="g862">
      <path
         style="fill:#ffffff;stroke-width:0.20057875"
         d="m 376.00586,-347.99609 c -2.11147,0.0345 -3.6889,0.26633 -5.66211,0.7832 -1.27253,0.33325 -38.6977,11.76311 -118.74609,36.26172 -10.81119,3.3086 -20.12566,6.19948 -20.69922,6.42578 -3.26264,1.2873 -7.26699,3.64096 -10.29102,6.04687 -2.1405,1.70289 -6.13382,5.79847 -7.74804,7.94727 -4.30845,5.73559 -7.04934,12.09988 -7.98829,18.55078 -0.2755,1.89281 -0.30859,10.24514 -0.30859,74.46485 0,39.57658 -0.048,59.77567 -0.10547,60.11132 4.26792,3.0747 9.2084,7.34325 13.36133,12.85547 9.58545,12.72285 10.50977,26.378908 10.50976,26.378908 l 0.10157,-52.386718 0.10156,-64.38477 0.47266,-1.40429 c 0.91006,-2.69619 2.19851,-4.71418 4.36328,-6.83399 2.81795,-2.75929 6.33107,-4.80557 10.60742,-6.17969 1.54445,-0.49619 12.51188,-3.9393 24.37109,-7.65039 11.85921,-3.71131 26.8413,-8.40392 33.29492,-10.42773 33.49508,-10.50399 58.66727,-18.38458 60.2754,-18.87109 1.56961,-0.4742 2.15731,-0.54534 4.51171,-0.55664 2.34777,-0.009 2.85974,0.05 3.8418,0.43945 2.33143,0.92439 3.93947,3.07636 4.375,5.85156 0.13497,0.86001 0.20703,18.07899 0.20703,50.58399 l 0.002,47.69726 c 4.43047,3.10636 9.70297,7.54062 14.10156,13.37891 5.82971,7.73783 8.44636,15.80127 9.60937,20.94726 0.16148,-10.37044 0.15508,-34.66744 0.15625,-98.13086 0.001,-91.73351 -0.031,-102.80878 -0.30859,-104.40039 -1.29906,-7.44949 -5.73005,-13.20597 -12.25391,-15.92187 -2.65213,-1.10411 -4.2892,-1.42703 -7.82812,-1.54688 -0.85709,-0.029 -1.6204,-0.0408 -2.32422,-0.0293 z"
         id="path851"
         inkscape:connector-curvature="0"
         sodipodi:nodetypes="cccccccscsccccccccccccccscccccc" />
      <g
         aria-label="x"
         style="font-style:normal;font-weight:normal;font-size:40px;line-height:1.25;font-family:sans-serif;letter-spacing:0px;word-spacing:0px;fill:#ffffff;fill-opacity:1;stroke:none"
         id="flowRoot839"
         transform="matrix(4.3615363,0,0,4.3615363,-402.94158,504.30198)">
        <path
           d="m 139.98633,-139.73144 -2.85156,2.67578 -3.47657,3.45703 6.36719,8.32032 q 0.48828,0.625 0.48828,1.23046 0,0.76172 -0.58594,1.34766 -0.58593,0.58594 -1.32812,0.58594 -0.74219,0 -1.34766,-0.72266 -1.79687,-2.08984 -6.32812,-8.04687 l -3.8086,3.92578 q -1.15234,1.03515 -3.35937,3.22265 -0.625,0.70313 -1.34766,0.70313 -0.74218,0 -1.32812,-0.58594 -0.56641,-0.58594 -0.56641,-1.34765 0,-0.60547 0.48828,-1.23047 0.54688,-0.72266 1.69922,-1.73828 1.34766,-1.19141 1.77735,-1.64063 l 4.16015,-4.35547 -2.55859,-3.6914 q -1.54297,-2.20704 -2.69531,-3.22266 -0.74219,-0.66406 -0.74219,-1.44531 0,-0.78125 0.54687,-1.38672 0.56641,-0.60547 1.28907,-0.60547 1.15234,0 3.47656,3.00781 l 3.3789,4.66797 3.82813,-3.51562 q 2.38281,-2.2461 3.22266,-3.51563 0.625,-0.91797 1.48437,-0.91797 0.76172,0 1.34766,0.56641 0.58593,0.5664 0.58593,1.30859 0,1.07422 -1.8164,2.94922 z"
           style="font-style:normal;font-variant:normal;font-weight:normal;font-stretch:normal;font-family:'Comic Sans MS';-inkscape-font-specification:'Comic Sans MS';fill:#ffffff"
           id="path847"
           inkscape:connector-curvature="0" />
      </g>
      <g
         transform="matrix(4.3615363,0,0,4.3615363,-231.55175,483.75961)"
         id="g855"
         style="font-style:normal;font-weight:normal;font-size:40px;line-height:1.25;font-family:sans-serif;letter-spacing:0px;word-spacing:0px;fill:#ffffff;fill-opacity:1;stroke:none"
         aria-label="x">
        <path
           inkscape:connector-curvature="0"
           id="path853"
           style="font-style:normal;font-variant:normal;font-weight:normal;font-stretch:normal;font-family:'Comic Sans MS';-inkscape-font-specification:'Comic Sans MS';fill:#ffffff"
           d="m 139.98633,-139.73144 -2.85156,2.67578 -3.47657,3.45703 6.36719,8.32032 q 0.48828,0.625 0.48828,1.23046 0,0.76172 -0.58594,1.34766 -0.58593,0.58594 -1.32812,0.58594 -0.74219,0 -1.34766,-0.72266 -1.79687,-2.08984 -6.32812,-8.04687 l -3.8086,3.92578 q -1.15234,1.03515 -3.35937,3.22265 -0.625,0.70313 -1.34766,0.70313 -0.74218,0 -1.32812,-0.58594 -0.56641,-0.58594 -0.56641,-1.34765 0,-0.60547 0.48828,-1.23047 0.54688,-0.72266 1.69922,-1.73828 1.34766,-1.19141 1.77735,-1.64063 l 4.16015,-4.35547 -2.55859,-3.6914 q -1.54297,-2.20704 -2.69531,-3.22266 -0.74219,-0.66406 -0.74219,-1.44531 0,-0.78125 0.54687,-1.38672 0.56641,-0.60547 1.28907,-0.60547 1.15234,0 3.47656,3.00781 l 3.3789,4.66797 3.82813,-3.51562 q 2.38281,-2.2461 3.22266,-3.51563 0.625,-0.91797 1.48437,-0.91797 0.76172,0 1.34766,0.56641 0.58593,0.5664 0.58593,1.30859 0,1.07422 -1.8164,2.94922 z" />
      </g>
    </g>
  </g>
</svg>
