<?xml version="1.0" encoding="UTF-8" standalone="no"?>
<svg
   xmlns:dc="http://purl.org/dc/elements/1.1/"
   xmlns:cc="http://creativecommons.org/ns#"
   xmlns:rdf="http://www.w3.org/1999/02/22-rdf-syntax-ns#"
   xmlns:svg="http://www.w3.org/2000/svg"
   xmlns="http://www.w3.org/2000/svg"
   xmlns:sodipodi="http://sodipodi.sourceforge.net/DTD/sodipodi-0.dtd"
   xmlns:inkscape="http://www.inkscape.org/namespaces/inkscape"
   viewBox="0 0 64 64"
   version="1.1"
   id="svg6"
   sodipodi:docname="network-server-database.svg"
   width="64"
   height="64"
   inkscape:version="0.92.2 5c3e80d, 2017-08-06">
  <metadata
     id="metadata10">
    <rdf:RDF>
      <cc:Work
         rdf:about="">
        <dc:format>image/svg+xml</dc:format>
        <dc:type
           rdf:resource="http://purl.org/dc/dcmitype/StillImage" />
        <dc:title />
      </cc:Work>
    </rdf:RDF>
  </metadata>
  <sodipodi:namedview
     pagecolor="#ffffff"
     bordercolor="#666666"
     borderopacity="1"
     objecttolerance="10"
     gridtolerance="10"
     guidetolerance="10"
     inkscape:pageopacity="0"
     inkscape:pageshadow="2"
     inkscape:window-width="1366"
     inkscape:window-height="717"
     id="namedview8"
     showgrid="false"
     inkscape:zoom="3.4766083"
     inkscape:cx="38.756828"
     inkscape:cy="27.199678"
     inkscape:window-x="0"
     inkscape:window-y="24"
     inkscape:window-maximized="1"
     inkscape:current-layer="svg6" />
  <defs
     id="defs3051">
    <style
       type="text/css"
       id="current-color-scheme">
      .ColorScheme-Text {
        color:#4d4d4d;
      }
      </style>
  </defs>
  <g
     id="g839"
     transform="matrix(0.125,0,0,0.125,-1.576692e-8,56.000005)">
    <path
       style="fill:#3689e6;fill-opacity:1;stroke-width:11.10955811"
       inkscape:connector-curvature="0"
       d="m 432.91327,-391.52603 c 102.19291,88.57459 105.82678,249.69971 8.1168,359.898788 C 343.3201,78.57183 181.27964,96.10063 79.086729,7.5260222 -23.106186,-81.04857 -26.740042,-242.17369 70.969928,-352.37277 168.6799,-462.57185 330.72036,-480.10062 432.91327,-391.52603 Z"
       id="path27" />
    <path
       style="opacity:1;fill:#000000;fill-opacity:0.49019608;stroke-width:11.10955811"
       inkscape:connector-curvature="0"
       d="m 511.63551,-223.09648 c -1.55139,61.31165 -25.16123,124.154606 -70.96638,175.81447 C 342.95915,62.917126 180.91869,80.44583 78.725776,-8.1287138 30.827124,-49.644362 4.4968217,-107.07716 0.1938279,-167.77119 0.7990795,-101.41452 27.117412,-37.517826 79.078682,7.5190702 181.27159,96.09363 343.31975,78.55623 441.02202,-31.634234 490.72697,-87.692338 514.02704,-156.92519 511.63551,-223.09648 Z"
       id="path51" />
    <path
       inkscape:connector-curvature="0"
       id="path833"
       d="m 237.65122,-17.581053 c -16.45595,-2.314813 -34.84126,-6.523069 -46.28961,-10.595316 -23.95027,-8.519063 -43.5873,-22.381314 -50.0355,-35.321203 C 138.123,-69.925392 138,-71.018732 138,-93.06457 c 0,-12.80188 0.51291,-22.89232 1.16365,-22.89232 0.64,0 2.65651,2.54741 4.48116,5.66092 16.8523,28.75625 76.81011,47.865268 142.22473,45.327898 60.53217,-2.34784 108.52783,-20.564088 121.64009,-46.167008 1.72038,-3.35916 3.67062,-6.10762 4.33388,-6.10762 2.18564,0 2.93031,8.8831 2.35072,28.04079 -0.51849,17.136918 -0.87838,19.489118 -3.8746,25.323438 -10.45712,20.362459 -40.56403,36.106796 -85.14782,44.528096 -18.6553,3.523558 -67.96276,4.520369 -87.52059,1.769323 z m 7.07201,-62.526677 c -39.71609,-3.98996 -76.51271,-17.54056 -93.85677,-34.56336 -11.44347,-11.23148 -12.15543,-13.49722 -12.62616,-40.18196 -0.27073,-15.34633 0.0398,-22.8233 0.94823,-22.8233 0.74297,0 2.79082,2.28106 4.55077,5.06899 11.17068,17.69556 40.29206,32.50683 78.35386,39.85131 75.88752,14.64333 164.68574,-4.85847 184.85585,-40.59786 2.13991,-3.79177 4.37871,-6.89408 4.97506,-6.89408 1.95788,0 2.86502,11.51733 2.27573,28.89316 -0.51976,15.32535 -0.93967,17.82074 -4.07809,24.23538 -16.18424,33.0794 -91.36751,54.448898 -165.39848,47.01172 z m 3.85747,-62.99842 c -50.95231,-4.50127 -94.31215,-23.49511 -106.44204,-46.62712 -3.24403,-6.18643 -3.48194,-7.81527 -3.90795,-26.75421 -0.55441,-24.6486 0.27172,-27.00097 6.22464,-17.72418 10.82691,16.87233 36.28982,29.83965 73.16189,37.25871 80.90381,16.27876 171.40646,-3.68811 190.92121,-42.1214 1.16705,-2.2984 2.59562,-4.17893 3.17466,-4.17893 1.63598,0 2.81707,34.6929 1.46406,43.00591 -6.14861,37.77858 -82.7507,64.37177 -164.59647,57.14122 z m 6.29216,-62.98959 c -53.01041,-3.37044 -101.35775,-24.01342 -112.55443,-48.05771 -15.34175,-32.94562 30.98419,-65.11344 104.82352,-72.7873 20.78312,-2.15991 61.06913,-0.86999 79.3157,2.53961 21.42917,4.00435 35.66787,8.48934 51.64183,16.2664 23.40594,11.39543 35.06644,24.99559 35.06644,40.89956 0,37.92348 -73.98541,66.49975 -158.29306,61.13944 z"
       style="fill:#000000;fill-opacity:0.49019608;stroke-width:1.13454545" />
    <path
       style="fill:#ffffff;fill-opacity:1;stroke-width:1.13454545"
       d="m 217.65122,-37.581053 c -16.45595,-2.314813 -34.84126,-6.523069 -46.28961,-10.595316 -23.95027,-8.519063 -43.5873,-22.381314 -50.0355,-35.321203 C 118.123,-89.925392 118,-91.018732 118,-113.06457 c 0,-12.80188 0.51291,-22.89232 1.16365,-22.89232 0.64,0 2.65651,2.54741 4.48116,5.66092 16.8523,28.75625 76.81011,47.865268 142.22473,45.327898 60.53217,-2.34784 108.52783,-20.564088 121.64009,-46.167008 1.72038,-3.35916 3.67062,-6.10762 4.33388,-6.10762 2.18564,0 2.93031,8.8831 2.35072,28.04079 -0.51849,17.136918 -0.87838,19.489118 -3.8746,25.323438 -10.45712,20.362459 -40.56403,36.106796 -85.14782,44.528096 -18.6553,3.523558 -67.96276,4.520369 -87.52059,1.769323 z m 7.07201,-62.526677 c -39.71609,-3.98996 -76.51271,-17.54056 -93.85677,-34.56336 -11.44347,-11.23148 -12.15543,-13.49722 -12.62616,-40.18196 -0.27073,-15.34633 0.0398,-22.8233 0.94823,-22.8233 0.74297,0 2.79082,2.28106 4.55077,5.06899 11.17068,17.69556 40.29206,32.50683 78.35386,39.85131 75.88752,14.64333 164.68574,-4.85847 184.85585,-40.59786 2.13991,-3.79177 4.37871,-6.89408 4.97506,-6.89408 1.95788,0 2.86502,11.51733 2.27573,28.89316 -0.51976,15.32535 -0.93967,17.82074 -4.07809,24.23538 -16.18424,33.0794 -91.36751,54.448898 -165.39848,47.01172 z m 3.85747,-62.99842 c -50.95231,-4.50127 -94.31215,-23.49511 -106.44204,-46.62712 -3.24403,-6.18643 -3.48194,-7.81527 -3.90795,-26.75421 -0.55441,-24.6486 0.27172,-27.00097 6.22464,-17.72418 10.82691,16.87233 36.28982,29.83965 73.16189,37.25871 80.90381,16.27876 171.40646,-3.68811 190.92121,-42.1214 1.16705,-2.2984 2.59562,-4.17893 3.17466,-4.17893 1.63598,0 2.81707,34.6929 1.46406,43.00591 -6.14861,37.77858 -82.7507,64.37177 -164.59647,57.14122 z m 6.29216,-62.98959 c -53.01041,-3.37044 -101.35775,-24.01342 -112.55443,-48.05771 -15.34175,-32.94562 30.98419,-65.11344 104.82352,-72.7873 20.78312,-2.15991 61.06913,-0.86999 79.3157,2.53961 21.42917,4.00435 35.66787,8.48934 51.64183,16.2664 23.40594,11.39543 35.06644,24.99559 35.06644,40.89956 0,37.92348 -73.98541,66.49975 -158.29306,61.13944 z"
       id="path3026"
       inkscape:connector-curvature="0" />
  </g>
</svg>
