<?xml version="1.0" encoding="UTF-8" standalone="no"?>
<!-- Created with Inkscape (http://www.inkscape.org/) -->

<svg
   xmlns:dc="http://purl.org/dc/elements/1.1/"
   xmlns:cc="http://creativecommons.org/ns#"
   xmlns:rdf="http://www.w3.org/1999/02/22-rdf-syntax-ns#"
   xmlns:svg="http://www.w3.org/2000/svg"
   xmlns="http://www.w3.org/2000/svg"
   xmlns:sodipodi="http://sodipodi.sourceforge.net/DTD/sodipodi-0.dtd"
   xmlns:inkscape="http://www.inkscape.org/namespaces/inkscape"
   width="64"
   height="64"
   id="svg2"
   version="1.1"
   inkscape:version="0.92.2 5c3e80d, 2017-08-06"
   sodipodi:docname="new-command-alarm.svg">
  <defs
     id="defs4" />
  <sodipodi:namedview
     id="base"
     pagecolor="#ffffff"
     bordercolor="#666666"
     borderopacity="1.0"
     inkscape:pageopacity="0.0"
     inkscape:pageshadow="2"
     inkscape:zoom="0.49497475"
     inkscape:cx="-240.49156"
     inkscape:cy="207.90362"
     inkscape:document-units="px"
     inkscape:current-layer="layer1"
     showgrid="false"
     inkscape:window-width="1366"
     inkscape:window-height="717"
     inkscape:window-x="0"
     inkscape:window-y="24"
     inkscape:window-maximized="1" />
  <metadata
     id="metadata7">
    <rdf:RDF>
      <cc:Work
         rdf:about="">
        <dc:format>image/svg+xml</dc:format>
        <dc:type
           rdf:resource="http://purl.org/dc/dcmitype/StillImage" />
        <dc:title></dc:title>
      </cc:Work>
    </rdf:RDF>
  </metadata>
  <g
     inkscape:label="Layer 1"
     inkscape:groupmode="layer"
     id="layer1"
     transform="translate(0,-988.36218)">
    <g
       id="g834"
       transform="matrix(0.12500001,0,0,0.12500001,-1.5518193e-7,920.8169)">
      <path
         id="path848"
         d="m 432.91325,596.83615 c 102.19291,88.57459 105.82677,249.69971 8.1168,359.89879 C 343.32009,1066.934 181.27965,1084.4628 79.08674,995.8882 -23.106205,907.31361 -26.740032,746.18849 70.96994,635.98941 168.67991,525.79033 330.72036,508.26156 432.91325,596.83615 Z"
         inkscape:connector-curvature="0"
         style="fill:#7f6421;fill-opacity:1;stroke-width:11.10955811" />
      <path
         style="fill:#ffffff;fill-opacity:1;stroke-width:10.33090782"
         inkscape:connector-curvature="0"
         d="m 419.35612,611.39939 c 95.03037,82.36656 98.40957,232.19868 7.54791,334.67411 C 336.04238,1048.5489 185.35908,1064.8491 90.32868,982.48256 -4.7017196,900.11603 -8.0808818,750.28388 82.780775,647.80845 173.64243,545.33306 324.32573,529.03282 419.35612,611.39939 Z"
         id="path849" />
      <path
         inkscape:connector-curvature="0"
         id="path843"
         d="m 279.8415,540.37999 c -75.15243,-0.5037 -152.65749,32.21064 -208.871095,95.60935 -97.709979,110.19908 -94.075759,271.32385 8.117182,359.89844 102.192903,88.57462 264.233393,71.04672 361.943373,-39.15235 32.12689,-36.23327 53.2938,-77.97283 63.60737,-120.8281 C 485.01835,800.01887 436.88916,715.26039 386.63445,651.83701 351.73982,607.79856 310.65691,568.01604 279.8415,540.37999 Z"
         style="fill:#f9c440;fill-opacity:1;stroke:none;stroke-width:0.99999994px;stroke-linecap:butt;stroke-linejoin:miter;stroke-opacity:1" />
      <path
         id="path850"
         d="M 511.63548,765.2657 C 510.0841,826.57734 486.47426,889.42031 440.66911,941.08017 342.95915,1051.2793 180.9187,1068.808 78.725757,980.23347 30.827125,938.71782 4.4968191,881.28502 0.19382686,820.59099 0.79908041,886.94766 27.117405,950.84436 79.07869,995.88125 181.2716,1084.4558 343.31975,1066.9184 441.022,956.72795 490.72695,900.66984 514.02702,831.43699 511.63548,765.2657 Z"
         inkscape:connector-curvature="0"
         style="opacity:1;fill:#000000;fill-opacity:0.49019608;stroke-width:11.10955811" />
      <path
         style="fill:#000000;fill-opacity:0.49019608;stroke-width:1.88502502"
         d="m 153.90597,912.08059 c -7.1111,-5.98367 -9.3007,-14.82184 -5.7603,-23.25154 1.37593,-3.27613 12.89291,-17.37389 25.59328,-31.32851 12.70033,-13.9545 23.09151,-25.92449 23.09151,-26.59997 0,-0.6754 -10.39118,-12.68247 -23.09151,-26.68237 -25.40102,-28.00006 -27.63954,-31.13662 -27.73733,-38.86537 -0.17949,-14.20974 14.57816,-24.57132 26.16482,-18.37028 1.84995,0.99 14.80804,14.35007 28.79596,29.68909 42.0808,46.14562 41.10868,44.85906 41.10868,54.40645 0,8.04356 -0.89905,9.38408 -22.36425,33.34462 -41.48579,46.30855 -45.80999,50.51059 -53.14104,51.63931 -5.40958,0.83289 -7.8507,0.0642 -12.65982,-3.98143 z m 114.95279,-15.59067 0.54502,-16.52825 H 313.70191 358 v 16.0227 16.02278 l -44.84327,0.50582 -44.84327,0.50585 z"
         id="path844"
         inkscape:connector-curvature="0" />
      <path
         inkscape:connector-curvature="0"
         id="path908"
         d="m 133.90597,892.08059 c -7.1111,-5.98367 -9.3007,-14.82184 -5.7603,-23.25154 1.37593,-3.27613 12.89291,-17.37389 25.59328,-31.32851 12.70033,-13.9545 23.09151,-25.92449 23.09151,-26.59997 0,-0.6754 -10.39118,-12.68247 -23.09151,-26.68237 -25.40102,-28.00006 -27.63954,-31.13662 -27.73733,-38.86537 -0.17949,-14.20974 14.57816,-24.57132 26.16482,-18.37028 1.84995,0.99 14.80804,14.35007 28.79596,29.68909 42.0808,46.14562 41.10868,44.85906 41.10868,54.40645 0,8.04356 -0.89905,9.38408 -22.36425,33.34462 -41.48579,46.30855 -45.80999,50.51059 -53.14104,51.63931 -5.40958,0.83289 -7.8507,0.0642 -12.65982,-3.98143 z m 114.95279,-15.59067 0.54502,-16.52825 H 293.70191 338 v 16.0227 16.02278 l -44.84327,0.50582 -44.84327,0.50585 z"
         style="fill:#ffffff;stroke-width:1.88502502" />
    </g>
  </g>
</svg>
