<?xml version="1.0" encoding="UTF-8" standalone="no"?>
<svg
   xmlns:dc="http://purl.org/dc/elements/1.1/"
   xmlns:cc="http://creativecommons.org/ns#"
   xmlns:rdf="http://www.w3.org/1999/02/22-rdf-syntax-ns#"
   xmlns:svg="http://www.w3.org/2000/svg"
   xmlns="http://www.w3.org/2000/svg"
   xmlns:sodipodi="http://sodipodi.sourceforge.net/DTD/sodipodi-0.dtd"
   xmlns:inkscape="http://www.inkscape.org/namespaces/inkscape"
   viewBox="0 0 64 64"
   version="1.1"
   id="svg6"
   sodipodi:docname="news-unsubscribe.svg"
   width="64"
   height="64"
   inkscape:version="0.92.2 5c3e80d, 2017-08-06">
  <metadata
     id="metadata10">
    <rdf:RDF>
      <cc:Work
         rdf:about="">
        <dc:format>image/svg+xml</dc:format>
        <dc:type
           rdf:resource="http://purl.org/dc/dcmitype/StillImage" />
        <dc:title></dc:title>
      </cc:Work>
    </rdf:RDF>
  </metadata>
  <sodipodi:namedview
     pagecolor="#ffffff"
     bordercolor="#666666"
     borderopacity="1"
     objecttolerance="10"
     gridtolerance="10"
     guidetolerance="10"
     inkscape:pageopacity="0"
     inkscape:pageshadow="2"
     inkscape:window-width="1366"
     inkscape:window-height="717"
     id="namedview8"
     showgrid="false"
     inkscape:zoom="3.4766083"
     inkscape:cx="17.631888"
     inkscape:cy="49.465639"
     inkscape:window-x="0"
     inkscape:window-y="24"
     inkscape:window-maximized="1"
     inkscape:current-layer="svg6" />
  <defs
     id="defs3051">
    <style
       type="text/css"
       id="current-color-scheme">
      .ColorScheme-NegativeText {
        color:#da4453;
      }
      </style>
  </defs>
  <g
     id="g855">
    <path
       style="fill:#c6262e;fill-opacity:1;stroke-width:1.38869464"
       inkscape:connector-curvature="0"
       d="M 54.114159,7.0592488 C 66.888273,18.131071 67.342505,38.271711 55.128759,52.046596 42.915013,65.82148 22.659954,68.012576 9.8858406,56.940753 -2.8882725,45.868929 -3.3425056,25.72829 8.8712406,11.953405 21.084986,-1.8214788 41.340046,-4.012575 54.114159,7.0592488 Z"
       id="path941" />
    <path
       style="opacity:1;fill:#000000;fill-opacity:0.49019608;stroke-width:1.38869464"
       inkscape:connector-curvature="0"
       d="M 63.954438,28.112941 C 63.760515,35.776896 60.809285,43.632266 55.083641,50.08975 42.869895,63.864639 22.614835,66.055731 9.8407225,54.983912 3.8533887,49.794455 0.56210532,42.615356 0.02422659,35.028602 0.09988328,43.323186 3.3896785,51.310273 9.8848344,56.939884 22.658948,68.011702 42.914966,65.819524 55.127753,52.045721 c 6.213118,-7.007262 9.125627,-15.66137 8.826685,-23.93278 z"
       id="path943" />
    <g
       style="fill:#000000;fill-opacity:0.49019608"
       transform="matrix(0.125,0,0,0.125,2.4999977,58.499995)"
       id="g871">
      <path
         inkscape:connector-curvature="0"
         id="path867"
         d="m 109.9668,-309 c -5.52122,0 -9.9668,4.44558 -9.9668,9.9668 V -45.966797 C 100,-40.445578 104.44558,-36 109.9668,-36 H 402.0332 C 407.55442,-36 412,-40.445578 412,-45.966797 V -299.0332 c 0,-5.52122 -4.44558,-9.9668 -9.9668,-9.9668 z m 39,39 h 58.0664 c 5.52122,0 9.9668,4.44558 9.9668,9.9668 v 58.0664 c 0,5.52122 -4.44558,9.9668 -9.9668,9.9668 h -58.0664 c -5.52122,0 -9.9668,-4.44558 -9.9668,-9.9668 v -58.0664 c 0,-5.52122 4.44558,-9.9668 9.9668,-9.9668 z m 116.7832,0 h 97.5 c 5.4015,0 9.75,4.3485 9.75,9.75 0,5.4015 -4.3485,9.75 -9.75,9.75 h -97.5 c -5.4015,0 -9.75,-4.3485 -9.75,-9.75 0,-5.4015 4.3485,-9.75 9.75,-9.75 z m 0,58.5 h 97.5 c 5.4015,0 9.75,4.3485 9.75,9.75 0,5.4015 -4.3485,9.75 -9.75,9.75 h -97.5 c -5.4015,0 -9.75,-4.3485 -9.75,-9.75 0,-5.4015 4.3485,-9.75 9.75,-9.75 z m -116.7832,39 h 214.0664 c 5.52122,0 9.9668,4.44558 9.9668,9.9668 v 77.566403 C 373,-79.445578 368.55442,-75 363.0332,-75 H 148.9668 C 143.44558,-75 139,-79.445578 139,-84.966797 V -162.5332 c 0,-5.52122 4.44558,-9.9668 9.9668,-9.9668 z"
         style="opacity:1;fill:#000000;fill-opacity:0.49019608;stroke:none;stroke-width:25;stroke-miterlimit:4;stroke-dasharray:none;stroke-dashoffset:0;stroke-opacity:1" />
      <path
         inkscape:connector-curvature="0"
         id="path869"
         d="m 129.4668,-348 c -5.52122,0 -9.9668,4.44558 -9.9668,9.9668 V -309 h 273.44922 v -29.0332 c 0,-5.52122 -4.44558,-9.9668 -9.9668,-9.9668 z"
         style="opacity:1;fill:#000000;fill-opacity:0.49019608;stroke:none;stroke-width:25;stroke-miterlimit:4;stroke-dasharray:none;stroke-dashoffset:0;stroke-opacity:1" />
    </g>
    <g
       transform="matrix(0.125,0,0,0.125,-2.2675846e-6,55.999995)"
       id="g865">
      <path
         style="opacity:1;fill:#ffffff;fill-opacity:0.96296297;stroke:none;stroke-width:25;stroke-miterlimit:4;stroke-dasharray:none;stroke-dashoffset:0;stroke-opacity:1"
         d="m 109.9668,-309 c -5.52122,0 -9.9668,4.44558 -9.9668,9.9668 V -45.966797 C 100,-40.445578 104.44558,-36 109.9668,-36 H 402.0332 C 407.55442,-36 412,-40.445578 412,-45.966797 V -299.0332 c 0,-5.52122 -4.44558,-9.9668 -9.9668,-9.9668 z m 39,39 h 58.0664 c 5.52122,0 9.9668,4.44558 9.9668,9.9668 v 58.0664 c 0,5.52122 -4.44558,9.9668 -9.9668,9.9668 h -58.0664 c -5.52122,0 -9.9668,-4.44558 -9.9668,-9.9668 v -58.0664 c 0,-5.52122 4.44558,-9.9668 9.9668,-9.9668 z m 116.7832,0 h 97.5 c 5.4015,0 9.75,4.3485 9.75,9.75 0,5.4015 -4.3485,9.75 -9.75,9.75 h -97.5 c -5.4015,0 -9.75,-4.3485 -9.75,-9.75 0,-5.4015 4.3485,-9.75 9.75,-9.75 z m 0,58.5 h 97.5 c 5.4015,0 9.75,4.3485 9.75,9.75 0,5.4015 -4.3485,9.75 -9.75,9.75 h -97.5 c -5.4015,0 -9.75,-4.3485 -9.75,-9.75 0,-5.4015 4.3485,-9.75 9.75,-9.75 z m -116.7832,39 h 214.0664 c 5.52122,0 9.9668,4.44558 9.9668,9.9668 v 77.566403 C 373,-79.445578 368.55442,-75 363.0332,-75 H 148.9668 C 143.44558,-75 139,-79.445578 139,-84.966797 V -162.5332 c 0,-5.52122 4.44558,-9.9668 9.9668,-9.9668 z"
         id="rect844"
         inkscape:connector-curvature="0" />
      <path
         style="opacity:1;fill:#ffffff;fill-opacity:0.96296297;stroke:none;stroke-width:25;stroke-miterlimit:4;stroke-dasharray:none;stroke-dashoffset:0;stroke-opacity:1"
         d="m 129.4668,-348 c -5.52122,0 -9.9668,4.44558 -9.9668,9.9668 V -309 h 273.44922 v -29.0332 c 0,-5.52122 -4.44558,-9.9668 -9.9668,-9.9668 z"
         id="rect846"
         inkscape:connector-curvature="0" />
    </g>
  </g>
</svg>
