<?xml version="1.0" encoding="UTF-8" standalone="no"?>
<svg
   xmlns:dc="http://purl.org/dc/elements/1.1/"
   xmlns:cc="http://creativecommons.org/ns#"
   xmlns:rdf="http://www.w3.org/1999/02/22-rdf-syntax-ns#"
   xmlns:svg="http://www.w3.org/2000/svg"
   xmlns="http://www.w3.org/2000/svg"
   xmlns:sodipodi="http://sodipodi.sourceforge.net/DTD/sodipodi-0.dtd"
   xmlns:inkscape="http://www.inkscape.org/namespaces/inkscape"
   viewBox="0 0 64 64"
   version="1.1"
   id="svg6"
   sodipodi:docname="news-subscribe.svg"
   width="64"
   height="64"
   inkscape:version="0.92.2 5c3e80d, 2017-08-06">
  <metadata
     id="metadata10">
    <rdf:RDF>
      <cc:Work
         rdf:about="">
        <dc:format>image/svg+xml</dc:format>
        <dc:type
           rdf:resource="http://purl.org/dc/dcmitype/StillImage" />
        <dc:title></dc:title>
      </cc:Work>
    </rdf:RDF>
  </metadata>
  <sodipodi:namedview
     pagecolor="#ffffff"
     bordercolor="#666666"
     borderopacity="1"
     objecttolerance="10"
     gridtolerance="10"
     guidetolerance="10"
     inkscape:pageopacity="0"
     inkscape:pageshadow="2"
     inkscape:window-width="1366"
     inkscape:window-height="717"
     id="namedview8"
     showgrid="false"
     inkscape:zoom="0.43457604"
     inkscape:cx="-148.7353"
     inkscape:cy="87.420536"
     inkscape:window-x="0"
     inkscape:window-y="24"
     inkscape:window-maximized="1"
     inkscape:current-layer="svg6" />
  <defs
     id="defs3051">
    <style
       type="text/css"
       id="current-color-scheme">
      .ColorScheme-Text {
        color:#4d4d4d;
      }
      </style>
  </defs>
  <g
     id="g881"
     transform="matrix(0.125,0,0,0.125,1.5873092e-5,56.000037)">
    <path
       style="fill:#3689e6;fill-opacity:1;stroke-width:11.10955715"
       inkscape:connector-curvature="0"
       d="m 432.91329,-391.52597 c 102.19291,88.57458 105.82677,249.6997 8.1168,359.898774 C 343.32012,78.571883 181.27965,96.100651 79.086743,7.5260634 -23.106162,-81.048524 -26.740027,-242.17364 70.969943,-352.37272 168.67991,-462.57179 330.72039,-480.10056 432.91329,-391.52597 Z"
       id="path941" />
    <path
       style="opacity:1;fill:#000000;fill-opacity:0.49019608;stroke-width:11.10955715"
       inkscape:connector-curvature="0"
       d="M 511.63552,-223.09643 C 510.08414,-161.78479 486.4743,-98.941828 440.66915,-47.281961 342.95918,62.917155 180.9187,80.445886 78.725798,-8.1286639 30.827128,-49.644317 4.4968607,-107.07711 0.19383087,-167.77114 0.79908441,-101.41447 27.117446,-37.517778 79.078693,7.5191091 181.2716,96.093659 343.31975,78.556236 441.02204,-31.634188 490.72699,-87.692291 514.02706,-156.92515 511.63552,-223.09643 Z"
       id="path943" />
    <g
       style="fill:#000000;fill-opacity:0.49019608"
       transform="translate(20,20)"
       id="g871">
      <path
         inkscape:connector-curvature="0"
         id="path867"
         d="m 109.9668,-309 c -5.52122,0 -9.9668,4.44558 -9.9668,9.9668 V -45.966797 C 100,-40.445578 104.44558,-36 109.9668,-36 H 402.0332 C 407.55442,-36 412,-40.445578 412,-45.966797 V -299.0332 c 0,-5.52122 -4.44558,-9.9668 -9.9668,-9.9668 z m 39,39 h 58.0664 c 5.52122,0 9.9668,4.44558 9.9668,9.9668 v 58.0664 c 0,5.52122 -4.44558,9.9668 -9.9668,9.9668 h -58.0664 c -5.52122,0 -9.9668,-4.44558 -9.9668,-9.9668 v -58.0664 c 0,-5.52122 4.44558,-9.9668 9.9668,-9.9668 z m 116.7832,0 h 97.5 c 5.4015,0 9.75,4.3485 9.75,9.75 0,5.4015 -4.3485,9.75 -9.75,9.75 h -97.5 c -5.4015,0 -9.75,-4.3485 -9.75,-9.75 0,-5.4015 4.3485,-9.75 9.75,-9.75 z m 0,58.5 h 97.5 c 5.4015,0 9.75,4.3485 9.75,9.75 0,5.4015 -4.3485,9.75 -9.75,9.75 h -97.5 c -5.4015,0 -9.75,-4.3485 -9.75,-9.75 0,-5.4015 4.3485,-9.75 9.75,-9.75 z m -116.7832,39 h 214.0664 c 5.52122,0 9.9668,4.44558 9.9668,9.9668 v 77.566403 C 373,-79.445578 368.55442,-75 363.0332,-75 H 148.9668 C 143.44558,-75 139,-79.445578 139,-84.966797 V -162.5332 c 0,-5.52122 4.44558,-9.9668 9.9668,-9.9668 z"
         style="opacity:1;fill:#000000;fill-opacity:0.49019608;stroke:none;stroke-width:25;stroke-miterlimit:4;stroke-dasharray:none;stroke-dashoffset:0;stroke-opacity:1" />
      <path
         inkscape:connector-curvature="0"
         id="path869"
         d="m 129.4668,-348 c -5.52122,0 -9.9668,4.44558 -9.9668,9.9668 V -309 h 273.44922 v -29.0332 c 0,-5.52122 -4.44558,-9.9668 -9.9668,-9.9668 z"
         style="opacity:1;fill:#000000;fill-opacity:0.49019608;stroke:none;stroke-width:25;stroke-miterlimit:4;stroke-dasharray:none;stroke-dashoffset:0;stroke-opacity:1" />
    </g>
    <g
       id="g865">
      <path
         style="opacity:1;fill:#ffffff;fill-opacity:0.96296297;stroke:none;stroke-width:25;stroke-miterlimit:4;stroke-dasharray:none;stroke-dashoffset:0;stroke-opacity:1"
         d="m 109.9668,-309 c -5.52122,0 -9.9668,4.44558 -9.9668,9.9668 V -45.966797 C 100,-40.445578 104.44558,-36 109.9668,-36 H 402.0332 C 407.55442,-36 412,-40.445578 412,-45.966797 V -299.0332 c 0,-5.52122 -4.44558,-9.9668 -9.9668,-9.9668 z m 39,39 h 58.0664 c 5.52122,0 9.9668,4.44558 9.9668,9.9668 v 58.0664 c 0,5.52122 -4.44558,9.9668 -9.9668,9.9668 h -58.0664 c -5.52122,0 -9.9668,-4.44558 -9.9668,-9.9668 v -58.0664 c 0,-5.52122 4.44558,-9.9668 9.9668,-9.9668 z m 116.7832,0 h 97.5 c 5.4015,0 9.75,4.3485 9.75,9.75 0,5.4015 -4.3485,9.75 -9.75,9.75 h -97.5 c -5.4015,0 -9.75,-4.3485 -9.75,-9.75 0,-5.4015 4.3485,-9.75 9.75,-9.75 z m 0,58.5 h 97.5 c 5.4015,0 9.75,4.3485 9.75,9.75 0,5.4015 -4.3485,9.75 -9.75,9.75 h -97.5 c -5.4015,0 -9.75,-4.3485 -9.75,-9.75 0,-5.4015 4.3485,-9.75 9.75,-9.75 z m -116.7832,39 h 214.0664 c 5.52122,0 9.9668,4.44558 9.9668,9.9668 v 77.566403 C 373,-79.445578 368.55442,-75 363.0332,-75 H 148.9668 C 143.44558,-75 139,-79.445578 139,-84.966797 V -162.5332 c 0,-5.52122 4.44558,-9.9668 9.9668,-9.9668 z"
         id="rect844"
         inkscape:connector-curvature="0" />
      <path
         style="opacity:1;fill:#ffffff;fill-opacity:0.96296297;stroke:none;stroke-width:25;stroke-miterlimit:4;stroke-dasharray:none;stroke-dashoffset:0;stroke-opacity:1"
         d="m 129.4668,-348 c -5.52122,0 -9.9668,4.44558 -9.9668,9.9668 V -309 h 273.44922 v -29.0332 c 0,-5.52122 -4.44558,-9.9668 -9.9668,-9.9668 z"
         id="rect846"
         inkscape:connector-curvature="0" />
    </g>
  </g>
</svg>
