<?xml version="1.0" encoding="UTF-8" standalone="no"?>
<svg
   xmlns:dc="http://purl.org/dc/elements/1.1/"
   xmlns:cc="http://creativecommons.org/ns#"
   xmlns:rdf="http://www.w3.org/1999/02/22-rdf-syntax-ns#"
   xmlns:svg="http://www.w3.org/2000/svg"
   xmlns="http://www.w3.org/2000/svg"
   xmlns:sodipodi="http://sodipodi.sourceforge.net/DTD/sodipodi-0.dtd"
   xmlns:inkscape="http://www.inkscape.org/namespaces/inkscape"
   viewBox="0 0 64 64"
   version="1.1"
   id="svg6"
   sodipodi:docname="object-rotate-right.svg"
   width="64"
   height="64"
   inkscape:version="0.92.2 5c3e80d, 2017-08-06">
  <metadata
     id="metadata10">
    <rdf:RDF>
      <cc:Work
         rdf:about="">
        <dc:format>image/svg+xml</dc:format>
        <dc:type
           rdf:resource="http://purl.org/dc/dcmitype/StillImage" />
        <dc:title></dc:title>
      </cc:Work>
    </rdf:RDF>
  </metadata>
  <sodipodi:namedview
     pagecolor="#ffffff"
     bordercolor="#666666"
     borderopacity="1"
     objecttolerance="10"
     gridtolerance="10"
     guidetolerance="10"
     inkscape:pageopacity="0"
     inkscape:pageshadow="2"
     inkscape:window-width="1366"
     inkscape:window-height="717"
     id="namedview8"
     showgrid="false"
     inkscape:zoom="3.4766083"
     inkscape:cx="81.299391"
     inkscape:cy="36.311586"
     inkscape:window-x="0"
     inkscape:window-y="24"
     inkscape:window-maximized="1"
     inkscape:current-layer="svg6" />
  <defs
     id="defs3051">
    <style
       type="text/css"
       id="current-color-scheme">
      .ColorScheme-Text {
        color:#4d4d4d;
      }
      </style>
  </defs>
  <g
     id="g34"
     transform="translate(0,40)">
    <path
       style="fill:#3689e6;fill-opacity:1;stroke-width:1.38869476"
       inkscape:connector-curvature="0"
       d="m 54.114159,-32.940755 c 12.774113,11.071824 13.228347,31.2124637 1.0146,44.987349 C 42.915013,25.821478 22.659955,28.012578 9.8858411,16.940752 -2.8882733,5.8689275 -3.3425053,-14.271713 8.871241,-28.046597 21.084987,-41.821483 41.340045,-44.012579 54.114159,-32.940755 Z"
       id="path27" />
    <path
       style="opacity:1;fill:#000000;fill-opacity:0.49019608;stroke-width:1.38869476"
       inkscape:connector-curvature="0"
       d="M 63.954439,-11.887061 C 63.760515,-4.223105 60.809285,3.6322663 55.083641,10.089748 42.869894,23.86464 22.614836,26.055728 9.840722,14.983911 3.8533905,9.794454 0.56210279,2.6153538 0.02422855,-4.9714 0.099885,3.3231838 3.3896765,11.310272 9.8848355,16.939883 22.658949,28.011703 42.914969,25.819528 55.127752,12.045721 61.340871,5.0384575 64.25338,-3.61565 63.954439,-11.887061 Z"
       id="path51" />
    <path
       inkscape:connector-curvature="0"
       style="opacity:1;fill:#000000;fill-opacity:0.49019608;stroke:none;stroke-width:6.59044218;stroke-miterlimit:4;stroke-dasharray:none;stroke-dashoffset:0;stroke-opacity:1"
       d="m 48.977539,-25 c 1.455491,0 2.627197,1.171706 2.627197,2.627198 V 11.372803 C 51.604736,12.828294 50.43303,14 48.977539,14 H 22.127197 C 20.671706,14 19.5,12.828294 19.5,11.372803 V -22.372802 C 19.5,-23.828294 20.671706,-25 22.127197,-25 Z m -12.091797,4.766846 c -0.967854,-0.021 -1.844434,0.7527 -1.840821,1.839112 0.0025,0.741695 0.122172,0.920565 1.643555,2.45996 l 1.362061,1.378418 h -1.394531 c -2.09319,0 -3.418464,0.223748 -5.026611,0.848877 -1.706543,0.663386 -3.020908,1.533157 -4.400391,2.911621 -1.078142,1.0773485 -1.754511,2.010676 -2.337403,3.2260748 -1.608925,3.354795 -1.543721,7.33949245 0.176514,10.8010249 1.751635,3.5247143 5.004717,5.8802629 9.018555,6.5305174 0.968296,0.1568728 3.392616,0.1000744 4.322265,-0.1013183 3.83008,-0.829722 6.748739,-3.1025011 8.43335,-6.5673828 0.328811,-0.6762525 0.369572,-0.810735 0.365722,-1.2041013 -0.0053,-0.5639537 -0.190265,-0.98811495 -0.58667,-1.34521495 -0.401118,-0.36134125 -0.728914,-0.489615 -1.251465,-0.48999 -0.82329,-5e-4 -1.33978,0.36928125 -1.803222,1.29101495 -0.857935,1.7063575 -2.164328,3.089485 -3.64331,3.85669 C 38.673011,5.850745 37.262288,6.1434505 35.682617,6.0822754 33.756816,6.0077394 32.156672,5.4703088 30.745605,4.4240725 29.171403,3.2568737 28.012188,1.2701363 27.616455,-0.93920875 27.449637,-1.870555 27.46123,-3.3235375 27.642333,-4.1884763 28.283571,-7.25098 30.726023,-9.71356 33.992676,-10.59082 c 0.502492,-0.13494 0.837629,-0.163875 2.275879,-0.19751 0.927605,-0.02168 1.686341,-0.02517 1.686278,-0.0078 -6.1e-5,0.01736 -0.590691,0.627517 -1.312743,1.355958 -1.45064,1.4634775 -1.621583,1.7176975 -1.621583,2.4113762 0,1.0380988 0.80227,1.8448575 1.83374,1.8444825 0.773909,-3.749e-4 0.80611,-0.026492 4.220215,-3.4309087 2.836781,-2.828734 3.132811,-3.146063 3.240968,-3.471679 0.147205,-0.443201 0.105798,-1.049737 -0.09863,-1.444336 -0.20964,-0.40466 -6.096618,-6.267149 -6.513915,-6.486816 -0.267996,-0.141074 -0.54614,-0.209208 -0.817139,-0.215088 z"
       id="path844" />
    <path
       id="rect835"
       d="m 46.477539,-27.5 c 1.455491,0 2.627197,1.171706 2.627197,2.627198 V 8.8728028 C 49.104736,10.328294 47.93303,11.5 46.477539,11.5 H 19.627197 C 18.171706,11.5 17,10.328294 17,8.8728028 V -24.872802 C 17,-26.328294 18.171706,-27.5 19.627197,-27.5 Z m -12.091797,4.766846 c -0.967854,-0.021 -1.844434,0.7527 -1.840821,1.839112 0.0025,0.741695 0.122172,0.920565 1.643555,2.45996 l 1.362061,1.378418 h -1.394531 c -2.09319,0 -3.418464,0.223748 -5.026611,0.848877 -1.706543,0.663386 -3.020908,1.533157 -4.400391,2.911621 -1.078142,1.077349 -1.754511,2.010676 -2.337403,3.226075 -1.608925,3.3547948 -1.543721,7.3394923 0.176514,10.80102475 1.751635,3.52471425 5.004717,5.88026285 9.018555,6.53051735 0.968296,0.1568728 3.392616,0.1000744 4.322265,-0.1013183 3.83008,-0.829722 6.748739,-3.102501 8.43335,-6.5673828 0.328811,-0.6762525 0.369572,-0.810735 0.365722,-1.20410125 -0.0053,-0.56395375 -0.190265,-0.98811495 -0.58667,-1.34521495 -0.401118,-0.3613413 -0.728914,-0.489615 -1.251465,-0.48999 -0.82329,-5e-4 -1.33978,0.3692812 -1.803222,1.291015 -0.857935,1.70635745 -2.164328,3.089485 -3.64331,3.85669 -1.250329,0.6485962 -2.661052,0.9413017 -4.240723,0.8801266 -1.925801,-0.074536 -3.525945,-0.6119666 -4.937012,-1.6582029 -1.574202,-1.16719875 -2.733417,-3.1539362 -3.12915,-5.3632812 -0.166818,-0.9313463 -0.155225,-2.3843288 0.02588,-3.2492675 0.641238,-3.0625038 3.08369,-5.5250838 6.350343,-6.4023438 0.502492,-0.13494 0.837629,-0.163875 2.275879,-0.19751 0.927605,-0.02168 1.686341,-0.02517 1.686278,-0.0078 -6.1e-5,0.01736 -0.590691,0.627516 -1.312743,1.355957 -1.45064,1.463478 -1.621583,1.717698 -1.621583,2.4113763 0,1.0380987 0.80227,1.8448575 1.83374,1.8444825 0.773909,-3.75e-4 0.80611,-0.026492 4.220215,-3.4309088 2.836781,-2.828734 3.132811,-3.146062 3.240968,-3.471679 0.147205,-0.443201 0.105798,-1.049737 -0.09863,-1.444336 -0.20964,-0.40466 -6.096618,-6.267149 -6.513915,-6.486816 -0.267996,-0.141074 -0.54614,-0.209208 -0.817139,-0.215088 z"
       style="opacity:1;fill:#ffffff;fill-opacity:1;stroke:none;stroke-width:6.59044218;stroke-miterlimit:4;stroke-dasharray:none;stroke-dashoffset:0;stroke-opacity:1"
       inkscape:connector-curvature="0" />
  </g>
</svg>
