<?xml version="1.0" encoding="UTF-8" standalone="no"?>
<svg
   xmlns:dc="http://purl.org/dc/elements/1.1/"
   xmlns:cc="http://creativecommons.org/ns#"
   xmlns:rdf="http://www.w3.org/1999/02/22-rdf-syntax-ns#"
   xmlns:svg="http://www.w3.org/2000/svg"
   xmlns="http://www.w3.org/2000/svg"
   xmlns:sodipodi="http://sodipodi.sourceforge.net/DTD/sodipodi-0.dtd"
   xmlns:inkscape="http://www.inkscape.org/namespaces/inkscape"
   viewBox="0 0 64 64"
   version="1.1"
   id="svg6"
   sodipodi:docname="object-rotate-left.svg"
   width="64"
   height="64"
   inkscape:version="0.92.2 5c3e80d, 2017-08-06">
  <metadata
     id="metadata10">
    <rdf:RDF>
      <cc:Work
         rdf:about="">
        <dc:format>image/svg+xml</dc:format>
        <dc:type
           rdf:resource="http://purl.org/dc/dcmitype/StillImage" />
        <dc:title></dc:title>
      </cc:Work>
    </rdf:RDF>
  </metadata>
  <sodipodi:namedview
     pagecolor="#ffffff"
     bordercolor="#666666"
     borderopacity="1"
     objecttolerance="10"
     gridtolerance="10"
     guidetolerance="10"
     inkscape:pageopacity="0"
     inkscape:pageshadow="2"
     inkscape:window-width="1366"
     inkscape:window-height="717"
     id="namedview8"
     showgrid="false"
     inkscape:zoom="2.4583333"
     inkscape:cx="139.41354"
     inkscape:cy="37.652843"
     inkscape:window-x="0"
     inkscape:window-y="24"
     inkscape:window-maximized="1"
     inkscape:current-layer="svg6" />
  <defs
     id="defs3051">
    <style
       type="text/css"
       id="current-color-scheme">
      .ColorScheme-Text {
        color:#4d4d4d;
      }
      </style>
  </defs>
  <g
     id="g850"
     transform="matrix(0.125,0,0,0.125,-1.576692e-8,56)">
    <path
       style="fill:#3689e6;fill-opacity:1;stroke-width:11.10955811"
       inkscape:connector-curvature="0"
       d="m 432.91327,-391.52604 c 102.19291,88.57459 105.82678,249.69971 8.1168,359.898792 C 343.3201,78.571824 181.27964,96.100624 79.086729,7.526016 -23.106186,-81.04858 -26.740042,-242.1737 70.969928,-352.37278 168.6799,-462.57186 330.72036,-480.10063 432.91327,-391.52604 Z"
       id="path27" />
    <path
       style="opacity:1;fill:#000000;fill-opacity:0.49019608;stroke-width:11.10955811"
       inkscape:connector-curvature="0"
       d="m 511.63551,-223.09649 c -1.55139,61.31165 -25.16123,124.15462 -70.96638,175.814474 C 342.95915,62.91712 180.91869,80.445824 78.725776,-8.128712 30.827124,-49.644368 4.4968223,-107.07717 0.19382836,-167.7712 0.79908004,-101.41453 27.117412,-37.517824 79.078684,7.519064 181.27159,96.093624 343.31975,78.556224 441.02202,-31.634232 490.72697,-87.69234 514.02704,-156.9252 511.63551,-223.09649 Z"
       id="path51" />
    <path
       inkscape:connector-curvature="0"
       style="opacity:1;fill:#000000;fill-opacity:0.49019608;stroke:none;stroke-width:52.72353745;stroke-miterlimit:4;stroke-dasharray:none;stroke-dashoffset:0;stroke-opacity:1"
       d="M 177.01758,-328 C 165.37365,-328 156,-318.62635 156,-306.98242 V -37.017578 C 156,-25.37365 165.37365,-16 177.01758,-16 h 214.80273 c 11.64393,0 21.01758,-9.37365 21.01758,-21.017578 V -306.98242 c 0,-11.64393 -9.37365,-21.01758 -21.01758,-21.01758 z m 96.73437,38.13477 c 7.74283,-0.16803 14.75547,6.0216 14.72657,14.71289 -0.0199,5.93356 -0.97738,7.36452 -13.14844,19.67968 l -10.89649,11.02735 h 11.15625 c 16.74552,0 27.34771,1.78998 40.21289,6.79101 13.65234,5.30709 24.16726,12.26526 35.20313,23.29297 8.62513,8.61879 14.03608,16.08541 18.69922,25.8086 12.8714,26.83836 12.34977,58.71594 -1.41211,86.4082 -14.01308,28.197714 -40.03774,47.042103 -72.14844,52.244139 -7.74637,1.254982 -27.14093,0.800595 -34.57812,-0.810547 -30.64064,-6.637776 -53.98991,-24.820008 -67.4668,-52.539062 -2.63049,-5.41002 -2.95658,-6.48588 -2.92578,-9.63281 0.0425,-4.51163 1.52212,-7.90492 4.69336,-10.76172 3.20895,-2.89073 5.83131,-3.91692 10.01172,-3.91992 6.58632,-0.004 10.71824,2.95425 14.42578,10.32812 6.86348,13.65086 17.31462,24.71588 29.14648,30.85352 10.00263,5.18877 21.28841,7.530414 33.92578,7.041013 15.40641,-0.59629 28.20756,-4.895733 39.4961,-13.265623 12.59361,-9.33759 21.86733,-25.23149 25.0332,-42.90625 1.33454,-7.45077 1.2418,-19.07463 -0.20703,-25.99414 -5.1299,-24.50003 -24.66952,-44.20067 -50.80274,-51.21875 -4.01994,-1.07952 -6.70103,-1.311 -18.20703,-1.58008 -7.42084,-0.17342 -13.49073,-0.20136 -13.49023,-0.0625 4.9e-4,0.13892 4.72553,5.02013 10.50195,10.84766 11.60512,11.70782 12.97266,13.74158 12.97266,19.29101 0,8.30479 -6.41816,14.75886 -14.66992,14.75586 -6.19127,-0.003 -6.44888,-0.21194 -33.76172,-27.44727 -22.69425,-22.62987 -25.06249,-25.1685 -25.92774,-27.77343 -1.17764,-3.54561 -0.84639,-8.3979 0.78907,-11.55469 1.67712,-3.23728 48.77294,-50.13719 52.11132,-51.89453 2.14397,-1.12859 4.36912,-1.67366 6.53711,-1.7207 z"
       id="path844" />
    <path
       id="rect835"
       d="M 157.01758,-348 C 145.37365,-348 136,-338.62635 136,-326.98242 V -57.017578 C 136,-45.37365 145.37365,-36 157.01758,-36 h 214.80273 c 11.64393,0 21.01758,-9.37365 21.01758,-21.017578 V -326.98242 c 0,-11.64393 -9.37365,-21.01758 -21.01758,-21.01758 z m 96.73437,38.13477 c 7.74283,-0.16803 14.75547,6.0216 14.72657,14.71289 -0.0199,5.93356 -0.97738,7.36452 -13.14844,19.67968 l -10.89649,11.02735 h 11.15625 c 16.74552,0 27.34771,1.78998 40.21289,6.79101 13.65234,5.30709 24.16726,12.26526 35.20313,23.29297 8.62513,8.61879 14.03608,16.08541 18.69922,25.8086 12.8714,26.83836 12.34977,58.71594 -1.41211,86.4082 -14.01308,28.197714 -40.03774,47.042103 -72.14844,52.244139 -7.74637,1.254982 -27.14093,0.800595 -34.57812,-0.810547 -30.64064,-6.637776 -53.98991,-24.820008 -67.4668,-52.539062 -2.63049,-5.41002 -2.95658,-6.48588 -2.92578,-9.63281 0.0425,-4.51163 1.52212,-7.90492 4.69336,-10.76172 3.20895,-2.89073 5.83131,-3.91692 10.01172,-3.91992 6.58632,-0.004 10.71824,2.95425 14.42578,10.32812 6.86348,13.65086 17.31462,24.71588 29.14648,30.85352 10.00263,5.18877 21.28841,7.530414 33.92578,7.041013 15.40641,-0.59629 28.20756,-4.895733 39.4961,-13.265623 12.59361,-9.33759 21.86733,-25.23149 25.0332,-42.90625 1.33454,-7.45077 1.2418,-19.07463 -0.20703,-25.99414 -5.1299,-24.50003 -24.66952,-44.20067 -50.80274,-51.21875 -4.01994,-1.07952 -6.70103,-1.311 -18.20703,-1.58008 -7.42084,-0.17342 -13.49073,-0.20136 -13.49023,-0.0625 4.9e-4,0.13892 4.72553,5.02013 10.50195,10.84766 11.60512,11.70782 12.97266,13.74158 12.97266,19.29101 0,8.30479 -6.41816,14.75886 -14.66992,14.75586 -6.19127,-0.003 -6.44888,-0.21194 -33.76172,-27.44727 -22.69425,-22.62987 -25.06249,-25.1685 -25.92774,-27.77343 -1.17764,-3.54561 -0.84639,-8.3979 0.78907,-11.55469 1.67712,-3.23728 48.77294,-50.13719 52.11132,-51.89453 2.14397,-1.12859 4.36912,-1.67366 6.53711,-1.7207 z"
       style="opacity:1;fill:#ffffff;fill-opacity:1;stroke:none;stroke-width:52.72353745;stroke-miterlimit:4;stroke-dasharray:none;stroke-dashoffset:0;stroke-opacity:1"
       inkscape:connector-curvature="0" />
  </g>
</svg>
