<?xml version="1.0" encoding="UTF-8" standalone="no"?>
<svg
   xmlns:dc="http://purl.org/dc/elements/1.1/"
   xmlns:cc="http://creativecommons.org/ns#"
   xmlns:rdf="http://www.w3.org/1999/02/22-rdf-syntax-ns#"
   xmlns:svg="http://www.w3.org/2000/svg"
   xmlns="http://www.w3.org/2000/svg"
   xmlns:sodipodi="http://sodipodi.sourceforge.net/DTD/sodipodi-0.dtd"
   xmlns:inkscape="http://www.inkscape.org/namespaces/inkscape"
   viewBox="0 0 64 64"
   version="1.1"
   id="svg8"
   sodipodi:docname="office-chart-area-stacked.svg"
   width="64"
   height="64"
   inkscape:version="0.92.2 5c3e80d, 2017-08-06">
  <metadata
     id="metadata12">
    <rdf:RDF>
      <cc:Work
         rdf:about="">
        <dc:format>image/svg+xml</dc:format>
        <dc:type
           rdf:resource="http://purl.org/dc/dcmitype/StillImage" />
        <dc:title></dc:title>
      </cc:Work>
    </rdf:RDF>
  </metadata>
  <sodipodi:namedview
     pagecolor="#ffffff"
     bordercolor="#666666"
     borderopacity="1"
     objecttolerance="10"
     gridtolerance="10"
     guidetolerance="10"
     inkscape:pageopacity="0"
     inkscape:pageshadow="2"
     inkscape:window-width="1366"
     inkscape:window-height="717"
     id="namedview10"
     showgrid="false"
     inkscape:zoom="3.4766083"
     inkscape:cx="38.471659"
     inkscape:cy="25.103168"
     inkscape:window-x="0"
     inkscape:window-y="24"
     inkscape:window-maximized="1"
     inkscape:current-layer="svg8" />
  <defs
     id="defs3051">
    <style
       type="text/css"
       id="current-color-scheme">
      .ColorScheme-Text {
        color:#4d4d4d;
      }
      </style>
  </defs>
  <g
     id="g886"
     transform="matrix(0.125,0,0,0.125,-1.5829374e-7,55.999999)">
    <path
       style="fill:#3689e6;fill-opacity:1;stroke-width:11.10955906"
       inkscape:connector-curvature="0"
       d="m 432.91324,-391.52606 c 102.19296,88.57457 105.8268,249.69973 8.1168,359.898826 C 343.32004,78.571841 181.27964,96.100609 79.086757,7.5260133 -23.106204,-81.04857 -26.740044,-242.17373 70.969957,-352.3728 168.67988,-462.57189 330.72036,-480.10065 432.91324,-391.52606 Z"
       id="path850" />
    <path
       style="opacity:1;fill:#000000;fill-opacity:0.49019608;stroke-width:11.10955906"
       inkscape:connector-curvature="0"
       d="m 511.63548,-223.09649 c -1.55136,61.3116 -25.1612,124.154569 -70.96632,175.81444 C 342.95908,62.917073 180.91868,80.445801 78.725797,-8.1287465 30.827156,-49.644362 4.4968362,-107.0772 0.1937962,-167.77119 0.7993962,-101.41456 27.117396,-37.517826 79.078677,7.5190133 181.27156,96.093609 343.31972,78.556153 441.02204,-31.634234 490.727,-87.692378 514.027,-156.92525 511.63548,-223.09649 Z"
       id="path852" />
    <path
       id="rect877"
       d="m 159.5,-328 c -11.08,0 -20,8.92 -20,20 v 232.511719 c 0.16686,-0.0041 0.33213,-0.01172 0.5,-0.01172 h 39.5 V -308 c 0,-11.08 -8.92,-20 -20,-20 z M 139.51172,-35.511719 C 139.77032,-24.660092 148.58394,-16 159.5,-16 c 10.91213,0 19.72361,-8.653863 19.98828,-19.5 H 140 c -0.16394,0 -0.32531,-0.0078 -0.48828,-0.01172 z"
       style="opacity:1;fill:#000000;fill-opacity:0.49019608;stroke:none;stroke-width:35.80574417;stroke-miterlimit:4;stroke-dasharray:none;stroke-dashoffset:0;stroke-opacity:1"
       inkscape:connector-curvature="0" />
    <rect
       ry="20"
       y="-432"
       x="-75.5"
       height="312"
       width="40"
       id="rect879"
       style="opacity:1;fill:#000000;fill-opacity:0.49019608;stroke:none;stroke-width:35.80574417;stroke-miterlimit:4;stroke-dasharray:none;stroke-dashoffset:0;stroke-opacity:1"
       transform="rotate(90)" />
    <path
       style="color:#000000;font-style:normal;font-variant:normal;font-weight:normal;font-stretch:normal;font-size:medium;line-height:normal;font-family:sans-serif;font-variant-ligatures:normal;font-variant-position:normal;font-variant-caps:normal;font-variant-numeric:normal;font-variant-alternates:normal;font-feature-settings:normal;text-indent:0;text-align:start;text-decoration:none;text-decoration-line:none;text-decoration-style:solid;text-decoration-color:#000000;letter-spacing:normal;word-spacing:normal;text-transform:none;writing-mode:lr-tb;direction:ltr;text-orientation:mixed;dominant-baseline:auto;baseline-shift:baseline;text-anchor:start;white-space:normal;shape-padding:0;clip-rule:nonzero;display:inline;overflow:visible;visibility:visible;opacity:1;isolation:auto;mix-blend-mode:normal;color-interpolation:sRGB;color-interpolation-filters:linearRGB;solid-color:#000000;solid-opacity:1;vector-effect:none;fill:#000000;fill-opacity:0.49019608;fill-rule:nonzero;stroke:none;stroke-width:20;stroke-linecap:round;stroke-linejoin:round;stroke-miterlimit:4;stroke-dasharray:none;stroke-dashoffset:0;stroke-opacity:1;color-rendering:auto;image-rendering:auto;shape-rendering:auto;text-rendering:auto;enable-background:accumulate"
       d="m 416.28125,-322.09961 c -2.59702,0.0774 -5.062,1.16243 -6.87305,3.02539 l -54.67578,54.67578 -34.44336,-34.34765 c -3.90616,-3.89367 -10.22715,-3.89028 -14.1289,0.008 l -85.67188,69.59766 -40.98828,-0.4336 v 19.96289 l 45.5625,0.33985 c 2.54287,-0.0787 4.96017,-1.12359 6.75977,-2.92188 l 81.41211,-65.3418 34.44531,34.34961 c 3.90716,3.89572 10.23117,3.89149 14.13281,-0.01 l 61.73633,-61.73633 c 6.54183,-6.35882 1.85145,-17.43874 -7.26758,-17.16797 z"
       id="path883"
       inkscape:connector-curvature="0" />
    <rect
       ry="20"
       y="-348"
       x="119.5"
       height="312"
       width="40"
       id="rect42"
       style="opacity:1;fill:#ffffff;fill-opacity:1;stroke:none;stroke-width:35.80574417;stroke-miterlimit:4;stroke-dasharray:none;stroke-dashoffset:0;stroke-opacity:1" />
    <rect
       transform="rotate(90)"
       style="opacity:1;fill:#ffffff;fill-opacity:1;stroke:none;stroke-width:35.80574417;stroke-miterlimit:4;stroke-dasharray:none;stroke-dashoffset:0;stroke-opacity:1"
       id="rect849"
       width="40"
       height="312"
       x="-95.5"
       y="-412"
       ry="20" />
    <path
       inkscape:connector-curvature="0"
       id="path863"
       d="m 396.28125,-342.09961 c -2.59702,0.0774 -5.062,1.16243 -6.87305,3.02539 l -54.67578,54.67578 -34.44336,-34.34765 c -3.90616,-3.89367 -10.22715,-3.89028 -14.1289,0.008 l -85.67188,69.59766 -40.98828,-0.4336 v 19.96289 l 45.5625,0.33985 c 2.54287,-0.0787 4.96017,-1.12359 6.75977,-2.92188 l 81.41211,-65.3418 34.44531,34.34961 c 3.90716,3.89572 10.23117,3.89149 14.13281,-0.01 l 61.73633,-61.73633 c 6.54183,-6.35882 1.85145,-17.43874 -7.26758,-17.16797 z"
       style="color:#000000;font-style:normal;font-variant:normal;font-weight:normal;font-stretch:normal;font-size:medium;line-height:normal;font-family:sans-serif;font-variant-ligatures:normal;font-variant-position:normal;font-variant-caps:normal;font-variant-numeric:normal;font-variant-alternates:normal;font-feature-settings:normal;text-indent:0;text-align:start;text-decoration:none;text-decoration-line:none;text-decoration-style:solid;text-decoration-color:#000000;letter-spacing:normal;word-spacing:normal;text-transform:none;writing-mode:lr-tb;direction:ltr;text-orientation:mixed;dominant-baseline:auto;baseline-shift:baseline;text-anchor:start;white-space:normal;shape-padding:0;clip-rule:nonzero;display:inline;overflow:visible;visibility:visible;opacity:1;isolation:auto;mix-blend-mode:normal;color-interpolation:sRGB;color-interpolation-filters:linearRGB;solid-color:#000000;solid-opacity:1;vector-effect:none;fill:#ffffff;fill-opacity:1;fill-rule:nonzero;stroke:none;stroke-width:20;stroke-linecap:round;stroke-linejoin:round;stroke-miterlimit:4;stroke-dasharray:none;stroke-dashoffset:0;stroke-opacity:1;color-rendering:auto;image-rendering:auto;shape-rendering:auto;text-rendering:auto;enable-background:accumulate" />
    <path
       inkscape:connector-curvature="0"
       style="color:#000000;font-style:normal;font-variant:normal;font-weight:normal;font-stretch:normal;font-size:medium;line-height:normal;font-family:sans-serif;font-variant-ligatures:normal;font-variant-position:normal;font-variant-caps:normal;font-variant-numeric:normal;font-variant-alternates:normal;font-feature-settings:normal;text-indent:0;text-align:start;text-decoration:none;text-decoration-line:none;text-decoration-style:solid;text-decoration-color:#000000;letter-spacing:normal;word-spacing:normal;text-transform:none;writing-mode:lr-tb;direction:ltr;text-orientation:mixed;dominant-baseline:auto;baseline-shift:baseline;text-anchor:start;white-space:normal;shape-padding:0;clip-rule:nonzero;display:inline;overflow:visible;visibility:visible;opacity:1;isolation:auto;mix-blend-mode:normal;color-interpolation:sRGB;color-interpolation-filters:linearRGB;solid-color:#000000;solid-opacity:1;vector-effect:none;fill:#000000;fill-opacity:0.49019608;fill-rule:nonzero;stroke:none;stroke-width:25;stroke-linecap:round;stroke-linejoin:round;stroke-miterlimit:4;stroke-dasharray:none;stroke-dashoffset:0;stroke-opacity:1;color-rendering:auto;image-rendering:auto;shape-rendering:auto;text-rendering:auto;enable-background:accumulate"
       d="m 269.07812,-164.07413 a 12.50125,12.50125 0 0 0 -8.83789,3.66211 l -35.33984,35.33789 H 179.5 v 25 h 50.57812 a 12.50125,12.50125 0 0 0 8.8379,-3.66016 l 35.33984,-35.33984 h 36.83398 l 35.33789,35.33984 a 12.50125,12.50125 0 0 0 8.89649,3.66016 l 66.63086,-0.30664 a 12.50125,12.50125 0 1 0 -0.11524,-25 l -61.41992,0.2832 -35.31445,-35.31445 a 12.50125,12.50125 0 0 0 -8.83985,-3.66211 z"
       id="path874" />
    <path
       id="path865"
       d="m 249.07812,-184.07422 a 12.50125,12.50125 0 0 0 -8.83789,3.66211 l -35.33984,35.33789 H 159.5 v 25 h 50.57812 a 12.50125,12.50125 0 0 0 8.8379,-3.66016 l 35.33984,-35.33984 h 36.83398 l 35.33789,35.33984 a 12.50125,12.50125 0 0 0 8.89649,3.66016 l 66.63086,-0.30664 a 12.50125,12.50125 0 1 0 -0.11524,-25 l -61.41992,0.2832 -35.31445,-35.31445 a 12.50125,12.50125 0 0 0 -8.83985,-3.66211 z"
       style="color:#000000;font-style:normal;font-variant:normal;font-weight:normal;font-stretch:normal;font-size:medium;line-height:normal;font-family:sans-serif;font-variant-ligatures:normal;font-variant-position:normal;font-variant-caps:normal;font-variant-numeric:normal;font-variant-alternates:normal;font-feature-settings:normal;text-indent:0;text-align:start;text-decoration:none;text-decoration-line:none;text-decoration-style:solid;text-decoration-color:#000000;letter-spacing:normal;word-spacing:normal;text-transform:none;writing-mode:lr-tb;direction:ltr;text-orientation:mixed;dominant-baseline:auto;baseline-shift:baseline;text-anchor:start;white-space:normal;shape-padding:0;clip-rule:nonzero;display:inline;overflow:visible;visibility:visible;opacity:1;isolation:auto;mix-blend-mode:normal;color-interpolation:sRGB;color-interpolation-filters:linearRGB;solid-color:#000000;solid-opacity:1;vector-effect:none;fill:#ffffff;fill-opacity:1;fill-rule:nonzero;stroke:none;stroke-width:25;stroke-linecap:round;stroke-linejoin:round;stroke-miterlimit:4;stroke-dasharray:none;stroke-dashoffset:0;stroke-opacity:1;color-rendering:auto;image-rendering:auto;shape-rendering:auto;text-rendering:auto;enable-background:accumulate"
       inkscape:connector-curvature="0" />
  </g>
</svg>
