<?xml version="1.0" encoding="UTF-8" standalone="no"?>
<svg
   xmlns:dc="http://purl.org/dc/elements/1.1/"
   xmlns:cc="http://creativecommons.org/ns#"
   xmlns:rdf="http://www.w3.org/1999/02/22-rdf-syntax-ns#"
   xmlns:svg="http://www.w3.org/2000/svg"
   xmlns="http://www.w3.org/2000/svg"
   xmlns:sodipodi="http://sodipodi.sourceforge.net/DTD/sodipodi-0.dtd"
   xmlns:inkscape="http://www.inkscape.org/namespaces/inkscape"
   viewBox="0 0 64 64"
   version="1.1"
   id="svg10"
   sodipodi:docname="package-remove.svg"
   width="64"
   height="64"
   inkscape:version="0.92.2 5c3e80d, 2017-08-06">
  <metadata
     id="metadata14">
    <rdf:RDF>
      <cc:Work
         rdf:about="">
        <dc:format>image/svg+xml</dc:format>
        <dc:type
           rdf:resource="http://purl.org/dc/dcmitype/StillImage" />
        <dc:title></dc:title>
      </cc:Work>
    </rdf:RDF>
  </metadata>
  <sodipodi:namedview
     pagecolor="#ffffff"
     bordercolor="#666666"
     borderopacity="1"
     objecttolerance="10"
     gridtolerance="10"
     guidetolerance="10"
     inkscape:pageopacity="0"
     inkscape:pageshadow="2"
     inkscape:window-width="1366"
     inkscape:window-height="717"
     id="namedview12"
     showgrid="false"
     inkscape:zoom="1.84375"
     inkscape:cx="-112.05665"
     inkscape:cy="73.52948"
     inkscape:window-x="0"
     inkscape:window-y="24"
     inkscape:window-maximized="1"
     inkscape:current-layer="svg10" />
  <defs
     id="defs3051">
    <style
       type="text/css"
       id="current-color-scheme">
      .ColorScheme-Text {
        color:#4d4d4d;
      }
      .ColorScheme-NegativeText {
        color:#da4453;
      }
      </style>
  </defs>
  <g
     id="g865"
     transform="matrix(0.125,0,0,0.125,1.2309213e-7,62.000001)">
    <path
       style="fill:#c6262e;fill-opacity:1;stroke-width:11.10955715"
       inkscape:connector-curvature="0"
       d="m 432.91327,-439.52601 c 102.19291,88.57458 105.82677,249.6997 8.1168,359.898778 C 343.3201,30.57184 181.27963,48.100608 79.086725,-40.473976 -23.10618,-129.04856 -26.740045,-290.17368 70.969925,-400.37276 168.67989,-510.57183 330.72037,-528.1006 432.91327,-439.52601 Z"
       id="path941" />
    <path
       inkscape:connector-curvature="0"
       style="fill:#000000;fill-opacity:0.49019608;stroke:none;stroke-width:1.04489362px;stroke-linecap:butt;stroke-linejoin:miter;stroke-opacity:1"
       d="m 421.99216,-331.52949 c -0.47352,-0.005 -0.75391,0.0274 -0.75391,0.0274 0,0 -89.80541,3.51763 -146.80859,3.93164 -57.00318,0.41397 -143.78711,-3.93164 -143.78711,-3.93164 0,0 -5.22791,0.0641 -8.16406,3.47851 -2.93617,3.41443 -2.41797,7.25586 -2.41797,7.25586 0,0 11.32242,86.7876 9.53711,129.10742 -1.78532,42.31974 -9.19532,90.66016 -9.19532,90.66016 0,0 -1.62106,4.5628 1.64063,8.47461 3.26173,3.91181 8.14648,3.38867 8.14648,3.38867 0,0 91.26212,-2.60055 147.26367,-2.57031 56.0016,0.0328 142.51368,2.68164 142.51368,2.68164 0,0 4.58305,0.42457 8.125,-2.13867 3.54221,-2.56316 3.58203,-6.73633 3.58203,-6.73633 0,0 -7.19903,-49.32098 -9.67969,-98.13086 -2.48065,-48.80988 9.98047,-124.58398 9.98047,-124.58398 0,0 0.50041,-4.62813 -2.87305,-8.01368 -2.53009,-2.53919 -5.68881,-2.88592 -7.10937,-2.90039 z m -204.99219,23.24414 c 8.28427,0 15,6.71573 15,15 0,8.28427 -6.71573,15 -15,15 -8.28427,0 -15,-6.71573 -15,-15 0,-8.28427 6.71573,-15 15,-15 z m 118,0 c 8.28427,0 15,6.71573 15,15 0,8.28427 -6.71573,15 -15,15 -8.28427,0 -15,-6.71573 -15,-15 0,-8.28427 6.71573,-15 15,-15 z m -101.09766,47.08985 c 1.14003,0.003 2.28018,0.18635 3.43555,0.54883 l 1.82031,0.56836 19.26172,19.24023 19.26367,19.24023 19.36719,-19.13476 19.36719,-19.13672 1.82226,-0.55859 c 2.31463,-0.70989 4.56231,-0.70349 6.87305,0.0215 l 1.82031,0.56836 9.23243,9.2832 9.23242,9.28125 0.55859,1.82422 c 0.743,2.42296 0.69899,4.76257 -0.13281,7.04492 l -0.6836,1.875 -19.12695,19.14649 -19.12695,19.14843 19.13672,19.36915 19.13672,19.36914 0.55859,1.82226 c 0.743,2.42285 0.69903,4.76263 -0.13281,7.04492 l -0.6836,1.875 -9.05273,9.00391 -9.05273,9.00586 -1.85743,0.6543 c -2.2344,0.78844 -4.77755,0.81856 -7.14062,0.0859 l -1.7461,-0.54101 -19.26562,-19.24219 -19.26367,-19.24219 -19.25196,19.02344 -19.25195,19.02344 -1.85547,0.6543 c -2.2344,0.78837 -4.77752,0.8186 -7.14062,0.0859 l -1.74805,-0.54101 -8.81641,-8.78516 c -4.84914,-4.83148 -9.04601,-9.17087 -9.32617,-9.64453 l -0.002,-0.006 c -1.43989,-2.43292 -1.76593,-5.90311 -0.83594,-8.90234 l 0.54297,-1.74805 19.24023,-19.26367 19.24024,-19.26172 -19.13477,-19.36719 -19.13671,-19.36719 -0.53321,-1.75195 c -0.67792,-2.22833 -0.67071,-4.79081 0.0215,-7.01562 l 0.54101,-1.74805 9.28321,-9.23242 9.2832,-9.23243 1.82226,-0.55859 c 1.1573,-0.35494 2.29748,-0.53076 3.4375,-0.52734 z"
       id="path857" />
    <path
       style="opacity:1;fill:#000000;fill-opacity:0.49019608;stroke-width:11.10955715"
       inkscape:connector-curvature="0"
       d="m 511.6355,-271.09647 c -1.55138,61.31164 -25.16122,124.1546 -70.96637,175.81447 C 342.95916,14.917112 180.91868,32.445848 78.72578,-56.128704 30.827109,-97.64436 4.4968424,-155.07715 0.19381255,-215.77118 0.79906607,-149.41451 27.117428,-85.517816 79.078675,-40.480928 181.27158,48.093616 343.31973,30.556192 441.02202,-79.634232 490.72697,-135.69233 514.02704,-204.92519 511.6355,-271.09647 Z"
       id="path943" />
    <path
       inkscape:connector-curvature="0"
       id="path863"
       d="m 275.84959,-389.38871 c -15.31222,-0.0464 -27.90713,6.7289 -37.11914,16.21679 -9.21202,9.4879 -15.47744,21.5603 -19.98633,33.37696 -9.01778,23.63332 -10.99414,46.90625 -10.99414,46.90625 l 14.94336,1.31055 c 0,0 1.96204,-21.63477 10.06445,-42.86915 4.05121,-10.61718 9.63941,-20.96793 16.73438,-28.27539 7.09497,-7.30745 15.25961,-11.69959 26.3125,-11.66601 11.00546,0.0336 19.28274,4.57524 26.53125,12.13672 7.24851,7.56147 13.01529,18.22995 17.23633,29.14257 8.44207,21.82526 10.72265,43.9961 10.72265,43.9961 l 14.92578,-1.49414 c 0,0 -2.31933,-23.76334 -11.66015,-47.91211 -4.67041,-12.07439 -11.0895,-24.4025 -20.39649,-34.11133 -9.30698,-9.70883 -21.95481,-16.71113 -37.31445,-16.75781 z"
       style="color:#000000;font-style:normal;font-variant:normal;font-weight:normal;font-stretch:normal;font-size:medium;line-height:normal;font-family:sans-serif;font-variant-ligatures:normal;font-variant-position:normal;font-variant-caps:normal;font-variant-numeric:normal;font-variant-alternates:normal;font-feature-settings:normal;text-indent:0;text-align:start;text-decoration:none;text-decoration-line:none;text-decoration-style:solid;text-decoration-color:#000000;letter-spacing:normal;word-spacing:normal;text-transform:none;writing-mode:lr-tb;direction:ltr;text-orientation:mixed;dominant-baseline:auto;baseline-shift:baseline;text-anchor:start;white-space:normal;shape-padding:0;clip-rule:nonzero;display:inline;overflow:visible;visibility:visible;opacity:1;isolation:auto;mix-blend-mode:normal;color-interpolation:sRGB;color-interpolation-filters:linearRGB;solid-color:#000000;solid-opacity:1;vector-effect:none;fill:#000000;fill-opacity:0.49019608;fill-rule:nonzero;stroke:none;stroke-width:15;stroke-linecap:butt;stroke-linejoin:miter;stroke-miterlimit:4;stroke-dasharray:none;stroke-dashoffset:0;stroke-opacity:1;color-rendering:auto;image-rendering:auto;shape-rendering:auto;text-rendering:auto;enable-background:accumulate" />
    <path
       id="path949"
       d="m 401.99219,-351.5293 c -0.47352,-0.005 -0.75391,0.0273 -0.75391,0.0273 0,0 -89.80541,3.51763 -146.80859,3.93164 -57.00318,0.41397 -143.78711,-3.93164 -143.78711,-3.93164 0,0 -5.22791,0.0641 -8.16406,3.47851 -2.936174,3.41443 -2.41797,7.25586 -2.41797,7.25586 0,0 11.32242,86.7876 9.53711,129.10742 -1.78532,42.31974 -9.19532,90.66016 -9.19532,90.66016 0,0 -1.621063,4.5628 1.64063,8.47461 3.26173,3.91181 8.14648,3.38867 8.14648,3.38867 0,0 91.26212,-2.60055 147.26367,-2.57031 56.0016,0.0328 142.51368,2.68164 142.51368,2.68164 0,0 4.58305,0.42457 8.125,-2.13867 3.54221,-2.56316 3.58203,-6.73633 3.58203,-6.73633 0,0 -7.19903,-49.32098 -9.67969,-98.13086 -2.48065,-48.80988 9.98047,-124.58398 9.98047,-124.58398 0,0 0.50041,-4.62813 -2.87305,-8.01368 -2.53009,-2.53919 -5.68881,-2.88592 -7.10937,-2.90039 z M 197,-328.28516 c 8.28427,0 15,6.71573 15,15 0,8.28427 -6.71573,15 -15,15 -8.28427,0 -15,-6.71573 -15,-15 0,-8.28427 6.71573,-15 15,-15 z m 118,0 c 8.28427,0 15,6.71573 15,15 0,8.28427 -6.71573,15 -15,15 -8.28427,0 -15,-6.71573 -15,-15 0,-8.28427 6.71573,-15 15,-15 z m -101.09766,47.08985 c 1.14003,0.003 2.28018,0.18635 3.43555,0.54883 l 1.82031,0.56836 19.26172,19.24023 19.26367,19.24023 19.36719,-19.13476 19.36719,-19.13672 1.82226,-0.55859 c 2.31463,-0.70989 4.56231,-0.70349 6.87305,0.0215 l 1.82031,0.56836 9.23243,9.2832 9.23242,9.28125 0.55859,1.82422 c 0.743,2.42296 0.69899,4.76257 -0.13281,7.04492 l -0.6836,1.875 -19.12695,19.14649 -19.12695,19.14843 19.13672,19.36915 19.13672,19.36914 0.55859,1.82226 c 0.743,2.42285 0.69903,4.76263 -0.13281,7.04492 l -0.6836,1.875 -9.05273,9.00391 -9.05273,9.00586 -1.85743,0.6543 c -2.2344,0.78844 -4.77755,0.81856 -7.14062,0.0859 l -1.7461,-0.54101 -19.26562,-19.24219 -19.26367,-19.24219 -19.25196,19.02344 -19.25195,19.02344 -1.85547,0.6543 c -2.2344,0.78837 -4.77752,0.8186 -7.14062,0.0859 l -1.74805,-0.54101 -8.81641,-8.78516 c -4.84914,-4.83148 -9.04601,-9.17087 -9.32617,-9.64453 l -0.002,-0.006 c -1.43989,-2.43292 -1.76593,-5.90311 -0.83594,-8.90234 l 0.54297,-1.74805 19.24023,-19.26367 19.24024,-19.26172 -19.13477,-19.36719 -19.13671,-19.36719 -0.53321,-1.75195 c -0.67792,-2.22833 -0.67071,-4.79081 0.0215,-7.01562 l 0.54101,-1.74805 9.28321,-9.23242 9.2832,-9.23243 1.82226,-0.55859 c 1.1573,-0.35494 2.29748,-0.53076 3.4375,-0.52734 z"
       style="fill:#ffffff;stroke:none;stroke-width:1.04489362px;stroke-linecap:butt;stroke-linejoin:miter;stroke-opacity:1"
       inkscape:connector-curvature="0" />
    <path
       sodipodi:nodetypes="czc"
       inkscape:connector-curvature="0"
       id="path951"
       d="m 195.22117,-312.23353 c 0,0 7.87529,-89.81548 60.60549,-89.65531 52.73019,0.16026 61.93089,92.02817 61.93089,92.02817"
       style="fill:none;stroke:#ffffff;stroke-width:15;stroke-linecap:butt;stroke-linejoin:miter;stroke-miterlimit:4;stroke-dasharray:none;stroke-opacity:1" />
  </g>
</svg>
