<?xml version="1.0" encoding="UTF-8" standalone="no"?>
<svg
   xmlns:dc="http://purl.org/dc/elements/1.1/"
   xmlns:cc="http://creativecommons.org/ns#"
   xmlns:rdf="http://www.w3.org/1999/02/22-rdf-syntax-ns#"
   xmlns:svg="http://www.w3.org/2000/svg"
   xmlns="http://www.w3.org/2000/svg"
   xmlns:sodipodi="http://sodipodi.sourceforge.net/DTD/sodipodi-0.dtd"
   xmlns:inkscape="http://www.inkscape.org/namespaces/inkscape"
   viewBox="0 0 64 64"
   version="1.1"
   id="svg10"
   sodipodi:docname="package-install.svg"
   width="64"
   height="64"
   inkscape:version="0.92.2 5c3e80d, 2017-08-06">
  <metadata
     id="metadata14">
    <rdf:RDF>
      <cc:Work
         rdf:about="">
        <dc:format>image/svg+xml</dc:format>
        <dc:type
           rdf:resource="http://purl.org/dc/dcmitype/StillImage" />
        <dc:title></dc:title>
      </cc:Work>
    </rdf:RDF>
  </metadata>
  <sodipodi:namedview
     pagecolor="#ffffff"
     bordercolor="#666666"
     borderopacity="1"
     objecttolerance="10"
     gridtolerance="10"
     guidetolerance="10"
     inkscape:pageopacity="0"
     inkscape:pageshadow="2"
     inkscape:window-width="1366"
     inkscape:window-height="717"
     id="namedview12"
     showgrid="false"
     inkscape:zoom="3.6875"
     inkscape:cx="34.383838"
     inkscape:cy="25.525055"
     inkscape:window-x="0"
     inkscape:window-y="24"
     inkscape:window-maximized="1"
     inkscape:current-layer="svg10" />
  <defs
     id="defs3051">
    <style
       type="text/css"
       id="current-color-scheme">
      .ColorScheme-Text {
        color:#4d4d4d;
      }
      .ColorScheme-PositiveText {
        color:#27ae60;
      }
      </style>
  </defs>
  <g
     id="g865"
     transform="matrix(0.125,0,0,0.125,1.2309213e-7,56.000001)">
    <path
       style="fill:#68b723;fill-opacity:1;stroke-width:11.10955715"
       inkscape:connector-curvature="0"
       d="m 432.91327,-391.52601 c 102.19291,88.57458 105.82677,249.6997 8.1168,359.898778 C 343.3201,78.57184 181.27963,96.100608 79.086725,7.526024 -23.10618,-81.04856 -26.740045,-242.17368 70.969925,-352.37276 168.67989,-462.57183 330.72037,-480.1006 432.91327,-391.52601 Z"
       id="path941" />
    <path
       inkscape:connector-curvature="0"
       style="fill:#000000;fill-opacity:0.49019608;stroke:none;stroke-width:1.04489362px;stroke-linecap:butt;stroke-linejoin:miter;stroke-opacity:1"
       d="m 421.99217,-283.52944 c -0.47352,-0.005 -0.75391,0.0274 -0.75391,0.0274 0,0 -89.80541,3.51763 -146.80859,3.93164 -57.00318,0.41397 -143.78711,-3.93164 -143.78711,-3.93164 0,0 -5.22791,0.0641 -8.16406,3.47851 -2.93617,3.41443 -2.41797,7.25586 -2.41797,7.25586 0,0 11.32242,86.7876 9.53711,129.10742 -1.78532,42.31974 -9.19532,90.66016 -9.19532,90.66016 0,0 -1.62106,4.562799 1.64063,8.474609 3.26173,3.91181 8.14648,3.388672 8.14648,3.388672 0,0 91.26212,-2.600552 147.26367,-2.570312 56.0016,0.0328 142.51368,2.68164 142.51368,2.68164 0,0 4.58305,0.424569 8.125,-2.138671 3.54221,-2.563161 3.58203,-6.736329 3.58203,-6.736329 0,0 -7.19903,-49.320979 -9.67969,-98.130859 -2.48065,-48.80988 9.98047,-124.58398 9.98047,-124.58398 0,0 0.50041,-4.62813 -2.87305,-8.01368 -2.53009,-2.53919 -5.68881,-2.88592 -7.10937,-2.90039 z m -204.99219,23.24414 c 8.28427,0 15,6.71573 15,15 0,8.28427 -6.71573,15 -15,15 -8.28427,0 -15,-6.71573 -15,-15 0,-8.28427 6.71573,-15 15,-15 z m 118,0 c 8.28427,0 15,6.71573 15,15 0,8.28427 -6.71573,15 -15,15 -8.28427,0 -15,-6.71573 -15,-15 0,-8.28427 6.71573,-15 15,-15 z m -61.16602,37.33008 c 6.36152,-1e-4 12.72376,0.0326 13.40625,0.10156 8.33581,0.8413 14.83378,7.38042 15.6836,15.78125 0.0673,0.66588 0.0996,8.8751 0.0996,24.68555 v 23.6875 h 10.79492 c 6.79789,0 11.13932,0.0405 11.72852,0.10156 1.88011,0.20087 3.04264,0.62165 3.50585,1.27149 0.36671,0.51445 0.31443,1.29243 -0.14843,2.22851 -0.65986,1.33511 -1.68012,2.54668 -4.87696,5.79102 -7.67929,7.79342 -40.87514,41.08476 -42.29296,42.41406 -2.91589,2.73387 -4.71309,4.00368 -6.35157,4.49024 -0.84654,0.25149 -2.11103,0.20557 -3.04687,-0.11133 -1.435,-0.48571 -3.09463,-1.65202 -5.58203,-3.92188 -2.02548,-1.84831 -45.41031,-45.28448 -46.28516,-46.33984 -2.23101,-2.69131 -2.66397,-4.16628 -1.46484,-4.99609 0.46634,-0.32272 1.02371,-0.51205 2.08398,-0.70899 0.7771,-0.14443 2.09269,-0.1669 12.21484,-0.19531 l 11.34375,-0.0293 v -23.93164 c 0,-25.99097 -0.0196,-24.90837 0.5254,-27.0625 1.82094,-7.17835 7.88585,-12.4053 15.25976,-13.15234 0.68014,-0.0689 7.04083,-0.10342 13.40234,-0.10352 z m -75.91015,110.97852 h 5.82617 5.82422 l 0.0273,12.20898 0.0274,12.21094 0.22461,0.62695 c 0.35854,0.99829 0.76855,1.6341 1.55078,2.40821 0.76628,0.7583 1.46603,1.16824 2.5664,1.50781 0.55274,0.17051 2.62868,0.17773 59.81836,0.17773 56.27524,0 59.27603,-0.0072 59.85938,-0.16992 2.00254,-0.55325 3.62006,-2.15155 4.22265,-4.17383 0.15727,-0.52779 0.17079,-1.44885 0.19727,-12.68359 l 0.0273,-12.11328 h 5.82618 5.82421 v 11.82422 c -9.7e-4,7.19119 -0.0405,12.25686 -0.0996,12.92773 -0.2075,2.34363 -0.75591,4.27194 -1.82812,6.41211 -0.91472,1.825728 -1.72048,2.927471 -3.27344,4.480469 -1.55299,1.552957 -2.65475,2.356781 -4.48047,3.271484 -2.16263,1.083477 -4.11519,1.636851 -6.4707,1.832031 -1.39649,0.115552 -118.43907,0.10791 -119.73633,-0.0078 -7.57693,-0.676781 -13.92949,-6.307518 -15.5332,-13.767582 -0.37996,-1.76733 -0.40039,-2.52776 -0.40039,-14.9414 z"
       id="path857" />
    <path
       style="opacity:1;fill:#000000;fill-opacity:0.49019608;stroke-width:11.10955715"
       inkscape:connector-curvature="0"
       d="M 511.6355,-223.09647 C 510.08412,-161.78483 486.47428,-98.941872 440.66913,-47.282 342.95916,62.917112 180.91868,80.445848 78.72578,-8.128704 30.827109,-49.64436 4.4968424,-107.07715 0.19381255,-167.77118 0.79906607,-101.41451 27.117428,-37.517816 79.078675,7.519072 181.27158,96.093616 343.31973,78.556192 441.02202,-31.634232 490.72697,-87.692328 514.02704,-156.92519 511.6355,-223.09647 Z"
       id="path943" />
    <path
       inkscape:connector-curvature="0"
       id="path863"
       d="m 275.84959,-341.38871 c -15.31222,-0.0464 -27.90713,6.7289 -37.11914,16.21679 -9.21202,9.4879 -15.47744,21.5603 -19.98633,33.37696 -9.01778,23.63332 -10.99414,46.90625 -10.99414,46.90625 l 14.94336,1.31055 c 0,0 1.96204,-21.63477 10.06445,-42.86915 4.05121,-10.61718 9.63941,-20.96793 16.73438,-28.27539 7.09497,-7.30745 15.25961,-11.69959 26.3125,-11.66601 11.00546,0.0336 19.28274,4.57524 26.53125,12.13672 7.24851,7.56147 13.01529,18.22995 17.23633,29.14257 8.44207,21.82526 10.72265,43.9961 10.72265,43.9961 l 14.92578,-1.49414 c 0,0 -2.31933,-23.76334 -11.66015,-47.91211 -4.67041,-12.07439 -11.0895,-24.4025 -20.39649,-34.11133 -9.30698,-9.70883 -21.95481,-16.71113 -37.31445,-16.75781 z"
       style="color:#000000;font-style:normal;font-variant:normal;font-weight:normal;font-stretch:normal;font-size:medium;line-height:normal;font-family:sans-serif;font-variant-ligatures:normal;font-variant-position:normal;font-variant-caps:normal;font-variant-numeric:normal;font-variant-alternates:normal;font-feature-settings:normal;text-indent:0;text-align:start;text-decoration:none;text-decoration-line:none;text-decoration-style:solid;text-decoration-color:#000000;letter-spacing:normal;word-spacing:normal;text-transform:none;writing-mode:lr-tb;direction:ltr;text-orientation:mixed;dominant-baseline:auto;baseline-shift:baseline;text-anchor:start;white-space:normal;shape-padding:0;clip-rule:nonzero;display:inline;overflow:visible;visibility:visible;opacity:1;isolation:auto;mix-blend-mode:normal;color-interpolation:sRGB;color-interpolation-filters:linearRGB;solid-color:#000000;solid-opacity:1;vector-effect:none;fill:#000000;fill-opacity:0.49019608;fill-rule:nonzero;stroke:none;stroke-width:15;stroke-linecap:butt;stroke-linejoin:miter;stroke-miterlimit:4;stroke-dasharray:none;stroke-dashoffset:0;stroke-opacity:1;color-rendering:auto;image-rendering:auto;shape-rendering:auto;text-rendering:auto;enable-background:accumulate" />
    <path
       id="path949"
       d="m 401.99219,-303.5293 c -0.47352,-0.005 -0.75391,0.0273 -0.75391,0.0273 0,0 -89.80541,3.51763 -146.80859,3.93164 -57.00318,0.41397 -143.78711,-3.93164 -143.78711,-3.93164 0,0 -5.22791,0.0641 -8.16406,3.47851 -2.936174,3.41443 -2.41797,7.25586 -2.41797,7.25586 0,0 11.32242,86.7876 9.53711,129.10742 C 107.81234,-121.34042 100.40234,-73 100.40234,-73 c 0,0 -1.621063,4.562799 1.64063,8.474609 3.26173,3.91181 8.14648,3.388672 8.14648,3.388672 0,0 91.26212,-2.600552 147.26367,-2.570312 56.0016,0.0328 142.51368,2.68164 142.51368,2.68164 0,0 4.58305,0.424569 8.125,-2.138671 3.54221,-2.563161 3.58203,-6.736329 3.58203,-6.736329 0,0 -7.19903,-49.320979 -9.67969,-98.130859 -2.48065,-48.80988 9.98047,-124.58398 9.98047,-124.58398 0,0 0.50041,-4.62813 -2.87305,-8.01368 -2.53009,-2.53919 -5.68881,-2.88592 -7.10937,-2.90039 z M 197,-280.28516 c 8.28427,0 15,6.71573 15,15 0,8.28427 -6.71573,15 -15,15 -8.28427,0 -15,-6.71573 -15,-15 0,-8.28427 6.71573,-15 15,-15 z m 118,0 c 8.28427,0 15,6.71573 15,15 0,8.28427 -6.71573,15 -15,15 -8.28427,0 -15,-6.71573 -15,-15 0,-8.28427 6.71573,-15 15,-15 z m -61.16602,37.33008 c 6.36152,-1e-4 12.72376,0.0327 13.40625,0.10156 8.33581,0.8413 14.83378,7.38042 15.6836,15.78125 0.0673,0.66588 0.0996,8.8751 0.0996,24.68555 v 23.6875 h 10.79492 c 6.79789,0 11.13932,0.0405 11.72852,0.10156 1.88011,0.20087 3.04264,0.62165 3.50585,1.27149 0.36671,0.51445 0.31443,1.29243 -0.14843,2.22851 -0.65986,1.33511 -1.68012,2.54668 -4.87696,5.79102 -7.67929,7.79342 -40.87514,41.08476 -42.29296,42.41406 -2.91589,2.73387 -4.71309,4.00368 -6.35157,4.49024 -0.84654,0.25149 -2.11103,0.20557 -3.04687,-0.11133 -1.435,-0.48571 -3.09463,-1.65202 -5.58203,-3.92188 -2.02548,-1.84831 -45.41031,-45.28448 -46.28516,-46.33984 -2.23101,-2.69131 -2.66397,-4.16628 -1.46484,-4.99609 0.46634,-0.32272 1.02371,-0.51205 2.08398,-0.70899 0.7771,-0.14443 2.09269,-0.1669 12.21484,-0.19531 l 11.34375,-0.0293 v -23.93164 c 0,-25.99097 -0.0196,-24.90837 0.5254,-27.0625 1.82094,-7.17835 7.88585,-12.4053 15.25976,-13.15234 0.68014,-0.0689 7.04083,-0.10342 13.40234,-0.10352 z m -75.91015,110.97852 h 5.82617 5.82422 l 0.0273,12.20898 0.0273,12.21094 0.22461,0.62695 c 0.35854,0.99829 0.76855,1.6341 1.55078,2.40821 0.76628,0.7583 1.46603,1.16824 2.5664,1.50781 0.55274,0.17051 2.62868,0.17773 59.81836,0.17773 56.27524,0 59.27603,-0.007 59.85938,-0.16992 2.00254,-0.55325 3.62006,-2.15155 4.22265,-4.17383 0.15727,-0.52779 0.17079,-1.44885 0.19727,-12.68359 l 0.0273,-12.11328 h 5.82618 5.82421 v 11.82422 c -9.7e-4,7.19119 -0.0405,12.25686 -0.0996,12.92773 -0.2075,2.34363 -0.75591,4.27194 -1.82812,6.41211 -0.91472,1.825728 -1.72048,2.927471 -3.27344,4.480469 -1.55299,1.552957 -2.65475,2.356781 -4.48047,3.271484 -2.16263,1.083477 -4.11519,1.636851 -6.4707,1.832031 -1.39649,0.115552 -118.43907,0.10791 -119.73633,-0.0078 -7.57693,-0.676781 -13.92949,-6.307518 -15.5332,-13.767582 -0.37996,-1.76733 -0.40039,-2.52776 -0.40039,-14.9414 z"
       style="fill:#ffffff;stroke:none;stroke-width:1.04489362px;stroke-linecap:butt;stroke-linejoin:miter;stroke-opacity:1"
       inkscape:connector-curvature="0" />
    <path
       sodipodi:nodetypes="czc"
       inkscape:connector-curvature="0"
       id="path951"
       d="m 195.22117,-264.23353 c 0,0 7.87529,-89.81548 60.60549,-89.65531 52.73019,0.16026 61.93089,92.02817 61.93089,92.02817"
       style="fill:none;stroke:#ffffff;stroke-width:15;stroke-linecap:butt;stroke-linejoin:miter;stroke-miterlimit:4;stroke-dasharray:none;stroke-opacity:1" />
  </g>
</svg>
