<?xml version="1.0" encoding="UTF-8" standalone="no"?>
<svg
   xmlns:dc="http://purl.org/dc/elements/1.1/"
   xmlns:cc="http://creativecommons.org/ns#"
   xmlns:rdf="http://www.w3.org/1999/02/22-rdf-syntax-ns#"
   xmlns:svg="http://www.w3.org/2000/svg"
   xmlns="http://www.w3.org/2000/svg"
   xmlns:sodipodi="http://sodipodi.sourceforge.net/DTD/sodipodi-0.dtd"
   xmlns:inkscape="http://www.inkscape.org/namespaces/inkscape"
   viewBox="0 0 64 64"
   version="1.1"
   id="svg8"
   sodipodi:docname="installed.svg"
   width="64"
   height="64"
   inkscape:version="0.92.2 5c3e80d, 2017-08-06">
  <metadata
     id="metadata12">
    <rdf:RDF>
      <cc:Work
         rdf:about="">
        <dc:format>image/svg+xml</dc:format>
        <dc:type
           rdf:resource="http://purl.org/dc/dcmitype/StillImage" />
        <dc:title></dc:title>
      </cc:Work>
    </rdf:RDF>
  </metadata>
  <sodipodi:namedview
     pagecolor="#ffffff"
     bordercolor="#666666"
     borderopacity="1"
     objecttolerance="10"
     gridtolerance="10"
     guidetolerance="10"
     inkscape:pageopacity="0"
     inkscape:pageshadow="2"
     inkscape:window-width="1366"
     inkscape:window-height="717"
     id="namedview10"
     showgrid="false"
     inkscape:zoom="2.6074563"
     inkscape:cx="30.228701"
     inkscape:cy="7.0180965"
     inkscape:window-x="0"
     inkscape:window-y="24"
     inkscape:window-maximized="1"
     inkscape:current-layer="svg8" />
  <defs
     id="defs3051">
    <style
       type="text/css"
       id="current-color-scheme">
      .ColorScheme-Text {
        color:#4d4d4d;
      }
      .ColorScheme-Highlight {
        color:#3daee9;
      }
      </style>
  </defs>
  <g
     id="g884"
     transform="matrix(0.125,0,0,0.125,1.5873092e-5,56.000037)">
    <path
       style="fill:#3689e6;fill-opacity:1;stroke-width:11.10955715"
       inkscape:connector-curvature="0"
       d="m 432.91329,-391.52597 c 102.19291,88.57458 105.82677,249.6997 8.1168,359.898774 C 343.32012,78.571883 181.27965,96.100651 79.086743,7.5260634 -23.106162,-81.048524 -26.740027,-242.17364 70.969943,-352.37272 168.67991,-462.57179 330.72039,-480.10056 432.91329,-391.52597 Z"
       id="path941" />
    <path
       style="opacity:1;fill:#000000;fill-opacity:0.49019608;stroke-width:11.10955715"
       inkscape:connector-curvature="0"
       d="M 511.63552,-223.09643 C 510.08414,-161.78479 486.4743,-98.941828 440.66915,-47.281961 342.95918,62.917155 180.9187,80.445886 78.725798,-8.1286639 30.827128,-49.644317 4.4968607,-107.07711 0.19383087,-167.77114 0.79908441,-101.41447 27.117446,-37.517778 79.078693,7.5191091 181.2716,96.093659 343.31975,78.556236 441.02204,-31.634188 490.72699,-87.692291 514.02706,-156.92515 511.63552,-223.09643 Z"
       id="path943" />
    <g
       id="g874">
      <path
         inkscape:connector-curvature="0"
         id="path862"
         d="m 421.99268,-283.5292 c -0.47352,-0.005 -0.75391,0.0273 -0.75391,0.0273 0,0 -89.80541,3.51763 -146.80859,3.93164 -57.00318,0.41397 -143.78711,-3.93164 -143.78711,-3.93164 0,0 -5.22791,0.0641 -8.16406,3.47851 -2.93617,3.41443 -2.41797,7.25586 -2.41797,7.25586 0,0 11.32242,86.7876 9.53711,129.10742 -1.78532,42.31979 -9.19532,90.660211 -9.19532,90.660211 0,0 -1.62106,4.562799 1.64063,8.474609 3.26173,3.91181 8.14648,3.388672 8.14648,3.388672 0,0 91.26211,-2.600552 147.26367,-2.570312 56.0016,0.0328 142.51368,2.68164 142.51368,2.68164 0,0 4.58305,0.424569 8.125,-2.138671 3.54221,-2.563161 3.58203,-6.736329 3.58203,-6.736329 0,0 -7.19903,-49.320979 -9.67969,-98.13086 -2.48065,-48.80988 9.98047,-124.58398 9.98047,-124.58398 0,0 0.50041,-4.62813 -2.87305,-8.01368 -2.53009,-2.53919 -5.68881,-2.88592 -7.10937,-2.90039 z m -204.99219,23.24414 c 8.28427,0 15,6.71573 15,15 0,8.28427 -6.71573,15 -15,15 -8.28427,0 -15,-6.71573 -15,-15 0,-8.28427 6.71573,-15 15,-15 z m 118,0 c 8.28427,0 15,6.71573 15,15 0,8.28427 -6.71573,15 -15,15 -8.28427,0 -15,-6.71573 -15,-15 0,-8.28427 6.71573,-15 15,-15 z m 0.22852,50.98047 c 0.56875,0.002 1.13356,0.0509 1.66406,0.15039 1.4891,0.2793 3.30628,1.7699 9.26367,7.60157 10.83647,10.60774 12.51851,12.66222 12.80469,15.64062 0.16398,1.70763 -0.0363,2.96544 -0.66602,4.18555 -1.1508,2.22543 -24.77142,29.44901 -68.98437,79.5039 -25.36732,28.71919 -27.40168,30.8937 -29.39453,31.44727 -2.37485,0.65963 -3.0497,0.633427 -4.92969,-0.189453 -1.75351,-0.76737 -40.14032,-38.068847 -51.61524,-50.156247 -7.31091,-7.70117 -7.63294,-8.13058 -7.85742,-10.4668 -0.15224,-1.58513 0.0343,-2.95732 0.53906,-3.92773 0.89766,-1.73313 8.70121,-10.93909 14.23047,-16.78711 3.73591,-3.9513 3.88173,-4.04581 6.62696,-4.27344 2.65373,-0.22017 2.94723,-0.12178 5.35156,1.79101 1.39914,1.11317 8.70981,8.04024 16.24609,15.39258 7.53628,7.35235 14.16953,13.61554 14.73828,13.91992 2.37032,1.26855 3.7453,0.22187 12.67774,-9.65625 4.74986,-5.25282 21.14041,-23.70733 36.42383,-41.00976 15.28346,-17.30243 28.14378,-31.73919 28.57812,-32.08203 0.86517,-0.68287 2.59647,-1.09085 4.30274,-1.08399 z"
         style="fill:#000000;fill-opacity:0.49019608;stroke:none;stroke-width:1.04489362px;stroke-linecap:butt;stroke-linejoin:miter;stroke-opacity:1" />
      <path
         style="color:#000000;font-style:normal;font-variant:normal;font-weight:normal;font-stretch:normal;font-size:medium;line-height:normal;font-family:sans-serif;font-variant-ligatures:normal;font-variant-position:normal;font-variant-caps:normal;font-variant-numeric:normal;font-variant-alternates:normal;font-feature-settings:normal;text-indent:0;text-align:start;text-decoration:none;text-decoration-line:none;text-decoration-style:solid;text-decoration-color:#000000;letter-spacing:normal;word-spacing:normal;text-transform:none;writing-mode:lr-tb;direction:ltr;text-orientation:mixed;dominant-baseline:auto;baseline-shift:baseline;text-anchor:start;white-space:normal;shape-padding:0;clip-rule:nonzero;display:inline;overflow:visible;visibility:visible;opacity:1;isolation:auto;mix-blend-mode:normal;color-interpolation:sRGB;color-interpolation-filters:linearRGB;solid-color:#000000;solid-opacity:1;vector-effect:none;fill:#000000;fill-opacity:0.49019608;fill-rule:nonzero;stroke:none;stroke-width:15;stroke-linecap:butt;stroke-linejoin:miter;stroke-miterlimit:4;stroke-dasharray:none;stroke-dashoffset:0;stroke-opacity:1;color-rendering:auto;image-rendering:auto;shape-rendering:auto;text-rendering:auto;enable-background:accumulate"
         d="m 275.84961,-341.38867 c -15.31222,-0.0465 -27.90713,6.7289 -37.11914,16.21679 -9.21202,9.4879 -15.47744,21.5603 -19.98633,33.37696 -9.01778,23.63332 -10.99414,46.90625 -10.99414,46.90625 l 14.94336,1.31055 c 0,0 1.96204,-21.63477 10.06445,-42.86915 4.05121,-10.61718 9.63941,-20.96793 16.73438,-28.27539 7.09497,-7.30745 15.25961,-11.69959 26.3125,-11.66601 11.00546,0.0335 19.28274,4.57524 26.53125,12.13672 7.24851,7.56147 13.01529,18.22995 17.23633,29.14257 8.44207,21.82526 10.72265,43.9961 10.72265,43.9961 l 14.92578,-1.49414 c 0,0 -2.31933,-23.76334 -11.66015,-47.91211 -4.67041,-12.07439 -11.0895,-24.4025 -20.39649,-34.11133 -9.30698,-9.70883 -21.95481,-16.71113 -37.31445,-16.75781 z"
         id="path864"
         inkscape:connector-curvature="0" />
    </g>
    <g
       id="g860">
      <path
         style="fill:#ffffff;stroke:none;stroke-width:1.04489362px;stroke-linecap:butt;stroke-linejoin:miter;stroke-opacity:1"
         d="m 401.99219,-303.5293 c -0.47352,-0.005 -0.75391,0.0273 -0.75391,0.0273 0,0 -89.80541,3.51763 -146.80859,3.93164 -57.00318,0.41397 -143.78711,-3.93164 -143.78711,-3.93164 0,0 -5.22791,0.0641 -8.16406,3.47851 -2.936172,3.41443 -2.41797,7.25586 -2.41797,7.25586 0,0 11.32242,86.7876 9.53711,129.10742 C 107.81234,-121.34042 100.40234,-73 100.40234,-73 c 0,0 -1.621064,4.562799 1.64063,8.474609 3.26173,3.91181 8.14648,3.388672 8.14648,3.388672 0,0 91.26211,-2.600552 147.26367,-2.570312 56.0016,0.0328 142.51368,2.68164 142.51368,2.68164 0,0 4.58305,0.424569 8.125,-2.138671 3.54221,-2.563161 3.58203,-6.736329 3.58203,-6.736329 0,0 -7.19903,-49.320979 -9.67969,-98.130859 -2.48065,-48.80988 9.98047,-124.58398 9.98047,-124.58398 0,0 0.50041,-4.62813 -2.87305,-8.01368 -2.53009,-2.53919 -5.68881,-2.88592 -7.10937,-2.90039 z M 197,-280.28516 c 8.28427,0 15,6.71573 15,15 0,8.28427 -6.71573,15 -15,15 -8.28427,0 -15,-6.71573 -15,-15 0,-8.28427 6.71573,-15 15,-15 z m 118,0 c 8.28427,0 15,6.71573 15,15 0,8.28427 -6.71573,15 -15,15 -8.28427,0 -15,-6.71573 -15,-15 0,-8.28427 6.71573,-15 15,-15 z m 0.22852,50.98047 c 0.56875,0.002 1.13356,0.0509 1.66406,0.15039 1.4891,0.2793 3.30628,1.7699 9.26367,7.60157 10.83647,10.60774 12.51851,12.66222 12.80469,15.64062 0.16398,1.70763 -0.0363,2.96544 -0.66602,4.18555 -1.1508,2.22543 -24.77142,29.44901 -68.98437,79.5039 -25.36732,28.719189 -27.40168,30.893699 -29.39453,31.447269 -2.37485,0.65963 -3.0497,0.633427 -4.92969,-0.189453 -1.75351,-0.76737 -40.14032,-38.068846 -51.61524,-50.156246 -7.31091,-7.70117 -7.63294,-8.13058 -7.85742,-10.4668 -0.15224,-1.58513 0.0343,-2.95732 0.53906,-3.92773 0.89766,-1.73313 8.70121,-10.93909 14.23047,-16.78711 3.73591,-3.9513 3.88173,-4.04581 6.62696,-4.27344 2.65373,-0.22017 2.94723,-0.12178 5.35156,1.79101 1.39914,1.11317 8.70981,8.04024 16.24609,15.39258 7.53628,7.35235 14.16953,13.61554 14.73828,13.91992 2.37032,1.26855 3.7453,0.22187 12.67774,-9.65625 4.74986,-5.25282 21.14041,-23.70733 36.42383,-41.00976 15.28346,-17.30243 28.14378,-31.73919 28.57812,-32.08203 0.86517,-0.68287 2.59647,-1.09085 4.30274,-1.08399 z"
         id="path949"
         inkscape:connector-curvature="0" />
      <path
         style="fill:none;stroke:#ffffff;stroke-width:15;stroke-linecap:butt;stroke-linejoin:miter;stroke-miterlimit:4;stroke-dasharray:none;stroke-opacity:1"
         d="m 195.22119,-264.23349 c 0,0 7.87529,-89.81548 60.60549,-89.65531 52.73019,0.16026 61.93089,92.02817 61.93089,92.02817"
         id="path951"
         inkscape:connector-curvature="0"
         sodipodi:nodetypes="czc" />
    </g>
  </g>
</svg>
