<?xml version="1.0" encoding="UTF-8" standalone="no"?>
<svg
   xmlns:dc="http://purl.org/dc/elements/1.1/"
   xmlns:cc="http://creativecommons.org/ns#"
   xmlns:rdf="http://www.w3.org/1999/02/22-rdf-syntax-ns#"
   xmlns:svg="http://www.w3.org/2000/svg"
   xmlns="http://www.w3.org/2000/svg"
   xmlns:sodipodi="http://sodipodi.sourceforge.net/DTD/sodipodi-0.dtd"
   xmlns:inkscape="http://www.inkscape.org/namespaces/inkscape"
   viewBox="0 0 64 64"
   version="1.1"
   id="svg10"
   sodipodi:docname="outdated.svg"
   width="64"
   height="64"
   inkscape:version="0.92.2 5c3e80d, 2017-08-06">
  <metadata
     id="metadata14">
    <rdf:RDF>
      <cc:Work
         rdf:about="">
        <dc:format>image/svg+xml</dc:format>
        <dc:type
           rdf:resource="http://purl.org/dc/dcmitype/StillImage" />
        <dc:title></dc:title>
      </cc:Work>
    </rdf:RDF>
  </metadata>
  <sodipodi:namedview
     pagecolor="#ffffff"
     bordercolor="#666666"
     borderopacity="1"
     objecttolerance="10"
     gridtolerance="10"
     guidetolerance="10"
     inkscape:pageopacity="0"
     inkscape:pageshadow="2"
     inkscape:window-width="1366"
     inkscape:window-height="717"
     id="namedview12"
     showgrid="false"
     inkscape:zoom="1.3037281"
     inkscape:cx="-108.76701"
     inkscape:cy="-43.702845"
     inkscape:window-x="0"
     inkscape:window-y="24"
     inkscape:window-maximized="1"
     inkscape:current-layer="svg10" />
  <defs
     id="defs3051">
    <style
       type="text/css"
       id="current-color-scheme">
      .ColorScheme-Text {
        color:#4d4d4d;
      }
      .ColorScheme-NegativeText {
        color:#da4453;
      }
      </style>
  </defs>
  <g
     id="g865">
    <path
       style="fill:#c6262e;fill-opacity:1;stroke-width:1.38869464"
       inkscape:connector-curvature="0"
       d="M 54.114159,7.0592488 C 66.888273,18.131071 67.342505,38.271711 55.128759,52.046596 42.915013,65.82148 22.659954,68.012576 9.8858406,56.940753 -2.8882725,45.86893 -3.3425056,25.72829 8.8712406,11.953405 21.084986,-1.8214788 41.340046,-4.012575 54.114159,7.0592488 Z"
       id="path941" />
    <path
       inkscape:connector-curvature="0"
       style="fill:#000000;stroke:none;stroke-width:0.1306117px;stroke-linecap:butt;stroke-linejoin:miter;stroke-opacity:1;fill-opacity:0.49019608"
       d="m 52.654781,20.562232 c -0.05919,-6.24e-4 -0.09375,0.0039 -0.09375,0.0039 0,0 -11.226166,0.438483 -18.351563,0.490234 -7.125398,0.05175 -17.972656,-0.490234 -17.972656,-0.490234 0,0 -0.652513,0.0068 -1.019531,0.433594 -0.367022,0.426804 -0.302734,0.908203 -0.302735,0.908203 0,0 1.414571,10.848694 1.191407,16.138672 -0.223165,5.289967 -1.148438,11.332031 -1.148438,11.332031 0,0 -0.202634,0.569618 0.205078,1.058594 0.407716,0.488976 1.017579,0.423828 1.017579,0.423828 0,0 11.408008,-0.324093 18.408203,-0.320313 7.0002,0.0041 17.814453,0.333985 17.814453,0.333985 0,0 0.572881,0.05283 1.015625,-0.267578 0.442776,-0.320395 0.447265,-0.841797 0.447265,-0.841797 0,0 -0.898901,-6.16439 -1.208984,-12.265625 -0.310081,-6.101235 1.246094,-15.572266 1.246094,-15.572266 0,0 0.06231,-0.578759 -0.359375,-1.001953 -0.316262,-0.317399 -0.711102,-0.361472 -0.888672,-0.363281 z m -25.623047,2.90625 c 1.035533,0 1.875,0.839466 1.875,1.875 0,1.035534 -0.839467,1.875 -1.875,1.875 -1.035534,0 -1.875,-0.839466 -1.875,-1.875 0,-1.035534 0.839466,-1.875 1.875,-1.875 z m 14.75,0 c 1.035533,0 1.875,0.839466 1.875,1.875 0,1.035534 -0.839467,1.875 -1.875,1.875 -1.035534,0 -1.875,-0.839466 -1.875,-1.875 0,-1.035534 0.839466,-1.875 1.875,-1.875 z m -7.566406,4.658203 c 0.322905,-0.01039 0.64875,-0.0054 0.976562,0.01563 4.313752,0.276831 7.924809,3.445856 8.830078,7.748047 0.155683,0.739868 0.212649,2.217347 0.117188,3.037109 -0.380125,3.264327 -2.441226,6.141557 -5.427734,7.582031 -1.074009,0.518025 -2.268118,0.847876 -3.314454,0.91211 -0.269119,0.01652 -0.591858,0.03768 -0.716796,0.04687 -0.124939,0.0092 -0.523505,-0.0036 -0.884766,-0.02734 -1.18072,-0.07729 -2.457224,-0.426386 -3.544922,-0.970703 -2.662481,-1.332386 -4.508923,-3.680722 -5.171875,-6.576172 -0.774757,-3.383757 0.414888,-7.056731 3.027344,-9.345703 1.727167,-1.513303 3.849041,-2.349135 6.109375,-2.421875 z m 0.08008,1.923828 c -0.761329,0.01975 -1.518503,0.148465 -2.230469,0.386719 -2.48305,0.830932 -4.404063,2.906385 -5.052734,5.457031 -1.003873,3.947344 1.239183,8.006241 5.128906,9.277344 0.472156,0.154293 1.322309,0.318675 1.886719,0.365234 0.403237,0.03326 1.345257,-0.0233 1.873047,-0.113281 1.434329,-0.244543 2.852319,-0.971061 3.953125,-2.023438 1.128002,-1.078376 1.834355,-2.297588 2.224609,-3.83789 0.142092,-0.560828 0.154297,-0.691733 0.154297,-1.769532 0,-1.077798 -0.01221,-1.208704 -0.154297,-1.769531 -0.57973,-2.288149 -2.064231,-4.15518 -4.123047,-5.183593 -1.108547,-0.553738 -2.391274,-0.821979 -3.660156,-0.789063 z m 0.197266,0.984375 c 0.360256,0 0.679487,0.163869 0.849609,0.4375 l 0.132812,0.214844 0.01563,2.86914 0.01563,2.867188 1.386719,1.390625 c 0.76295,0.76525 1.414552,1.464805 1.447266,1.552734 0.291013,0.782172 -0.596263,1.576477 -1.332032,1.19336 -0.25009,-0.130222 -3.197863,-3.077848 -3.328124,-3.328125 -0.106959,-0.205503 -0.108749,-0.332287 -0.09375,-3.417969 0.0153,-3.149783 0.01603,-3.205702 0.132812,-3.363281 0.204355,-0.275733 0.465848,-0.416016 0.773438,-0.416016 z"
       id="path857" />
    <path
       style="opacity:1;fill:#000000;fill-opacity:0.49019608;stroke-width:1.38869464"
       inkscape:connector-curvature="0"
       d="M 63.954438,28.112941 C 63.760515,35.776896 60.809285,43.632266 55.083641,50.08975 42.869895,63.864639 22.614835,66.055731 9.8407225,54.983912 3.8533887,49.794455 0.56210532,42.615356 0.02422659,35.028602 0.09988328,43.323186 3.3896785,51.310273 9.8848344,56.939884 22.658948,68.011702 42.914966,65.819524 55.127753,52.045721 c 6.213118,-7.007262 9.125627,-15.66137 8.826685,-23.93278 z"
       id="path943" />
    <path
       inkscape:connector-curvature="0"
       id="path863"
       d="m 34.481199,13.326411 c -1.914028,-0.0058 -3.488391,0.841113 -4.639893,2.027099 -1.151502,1.185988 -1.93468,2.695037 -2.498291,4.17212 -1.127222,2.954165 -1.374267,5.863281 -1.374267,5.863281 l 1.86792,0.163819 c 0,0 0.245255,-2.704346 1.258056,-5.358644 0.506401,-1.327147 1.204926,-2.620991 2.091797,-3.534424 0.886872,-0.913431 1.907452,-1.462448 3.289063,-1.458251 1.375682,0.0042 2.410342,0.571905 3.316406,1.51709 0.906064,0.945184 1.626911,2.278744 2.154541,3.642821 1.055259,2.728158 1.340332,5.499513 1.340332,5.499513 l 1.865722,-0.186768 c 0,0 -0.289916,-2.970417 -1.457519,-5.989013 -0.583801,-1.509299 -1.386187,-3.050313 -2.549561,-4.263917 -1.163372,-1.213603 -2.744351,-2.088891 -4.664306,-2.094726 z"
       style="color:#000000;font-style:normal;font-variant:normal;font-weight:normal;font-stretch:normal;font-size:medium;line-height:normal;font-family:sans-serif;font-variant-ligatures:normal;font-variant-position:normal;font-variant-caps:normal;font-variant-numeric:normal;font-variant-alternates:normal;font-feature-settings:normal;text-indent:0;text-align:start;text-decoration:none;text-decoration-line:none;text-decoration-style:solid;text-decoration-color:#000000;letter-spacing:normal;word-spacing:normal;text-transform:none;writing-mode:lr-tb;direction:ltr;text-orientation:mixed;dominant-baseline:auto;baseline-shift:baseline;text-anchor:start;white-space:normal;shape-padding:0;clip-rule:nonzero;display:inline;overflow:visible;visibility:visible;opacity:1;isolation:auto;mix-blend-mode:normal;color-interpolation:sRGB;color-interpolation-filters:linearRGB;solid-color:#000000;solid-opacity:1;vector-effect:none;fill:#000000;fill-opacity:0.49019608;fill-rule:nonzero;stroke:none;stroke-width:1.875;stroke-linecap:butt;stroke-linejoin:miter;stroke-miterlimit:4;stroke-dasharray:none;stroke-dashoffset:0;stroke-opacity:1;color-rendering:auto;image-rendering:auto;shape-rendering:auto;text-rendering:auto;enable-background:accumulate" />
    <path
       id="path949"
       d="M 50.248047 18.058594 C 50.188857 18.05797 50.154297 18.0625 50.154297 18.0625 C 50.154297 18.0625 38.928131 18.500983 31.802734 18.552734 C 24.677336 18.604484 13.830078 18.0625 13.830078 18.0625 C 13.830078 18.0625 13.177565 18.06928 12.810547 18.496094 C 12.443525 18.922898 12.507813 19.404297 12.507812 19.404297 C 12.507812 19.404297 13.922383 30.252991 13.699219 35.542969 C 13.476054 40.832936 12.550781 46.875 12.550781 46.875 C 12.550781 46.875 12.348147 47.444618 12.755859 47.933594 C 13.163575 48.42257 13.773438 48.357422 13.773438 48.357422 C 13.773438 48.357422 25.181446 48.033329 32.181641 48.037109 C 39.181841 48.041209 49.996094 48.371094 49.996094 48.371094 C 49.996094 48.371094 50.568975 48.42392 51.011719 48.103516 C 51.454495 47.783121 51.458984 47.261719 51.458984 47.261719 C 51.458984 47.261719 50.560083 41.097329 50.25 34.996094 C 49.939919 28.894859 51.496094 19.423828 51.496094 19.423828 C 51.496094 19.423828 51.5584 18.845069 51.136719 18.421875 C 50.820457 18.104476 50.425617 18.060403 50.248047 18.058594 z M 24.625 20.964844 C 25.660533 20.964844 26.5 21.80431 26.5 22.839844 C 26.5 23.875378 25.660533 24.714844 24.625 24.714844 C 23.589466 24.714844 22.75 23.875378 22.75 22.839844 C 22.75 21.80431 23.589466 20.964844 24.625 20.964844 z M 39.375 20.964844 C 40.410533 20.964844 41.25 21.80431 41.25 22.839844 C 41.25 23.875378 40.410533 24.714844 39.375 24.714844 C 38.339466 24.714844 37.5 23.875378 37.5 22.839844 C 37.5 21.80431 38.339466 20.964844 39.375 20.964844 z M 31.808594 25.623047 C 32.131499 25.612655 32.457344 25.617635 32.785156 25.638672 C 37.098908 25.915503 40.709965 29.084528 41.615234 33.386719 C 41.770917 34.126587 41.827883 35.604066 41.732422 36.423828 C 41.352297 39.688155 39.291196 42.565385 36.304688 44.005859 C 35.230679 44.523884 34.03657 44.853735 32.990234 44.917969 C 32.721115 44.934489 32.398376 44.955654 32.273438 44.964844 C 32.148499 44.974044 31.749933 44.9612 31.388672 44.9375 C 30.207952 44.86021 28.931448 44.511114 27.84375 43.966797 C 25.181269 42.634411 23.334827 40.286075 22.671875 37.390625 C 21.897118 34.006868 23.086763 30.333894 25.699219 28.044922 C 27.426386 26.531619 29.54826 25.695787 31.808594 25.623047 z M 31.888672 27.546875 C 31.127343 27.566624 30.370169 27.69534 29.658203 27.933594 C 27.175153 28.764526 25.25414 30.839979 24.605469 33.390625 C 23.601596 37.337969 25.844652 41.396866 29.734375 42.667969 C 30.206531 42.822262 31.056684 42.986644 31.621094 43.033203 C 32.024331 43.066463 32.966351 43.009907 33.494141 42.919922 C 34.92847 42.675379 36.34646 41.948861 37.447266 40.896484 C 38.575268 39.818108 39.281621 38.598896 39.671875 37.058594 C 39.813967 36.497766 39.826172 36.366861 39.826172 35.289062 C 39.826172 34.211264 39.813957 34.080358 39.671875 33.519531 C 39.092145 31.231382 37.607644 29.364351 35.548828 28.335938 C 34.440281 27.7822 33.157554 27.513959 31.888672 27.546875 z M 32.085938 28.53125 C 32.446194 28.53125 32.765425 28.695119 32.935547 28.96875 L 33.068359 29.183594 L 33.083984 32.052734 L 33.099609 34.919922 L 34.486328 36.310547 C 35.249278 37.075797 35.90088 37.775352 35.933594 37.863281 C 36.224607 38.645453 35.337331 39.439758 34.601562 39.056641 C 34.351472 38.926419 31.403699 35.978793 31.273438 35.728516 C 31.166479 35.523013 31.164689 35.396229 31.179688 32.310547 C 31.194987 29.160764 31.195717 29.104845 31.3125 28.947266 C 31.516855 28.671533 31.778348 28.53125 32.085938 28.53125 z "
       style="fill:#ffffff;stroke:none;stroke-width:0.1306117px;stroke-linecap:butt;stroke-linejoin:miter;stroke-opacity:1" />
    <path
       sodipodi:nodetypes="czc"
       inkscape:connector-curvature="0"
       id="path951"
       d="m 24.402646,22.970809 c 0,0 0.984412,-11.226935 7.575687,-11.206914 6.591273,0.02003 7.741361,11.503521 7.741361,11.503521"
       style="fill:none;stroke:#ffffff;stroke-width:1.875;stroke-linecap:butt;stroke-linejoin:miter;stroke-miterlimit:4;stroke-dasharray:none;stroke-opacity:1" />
  </g>
</svg>
