<?xml version="1.0" encoding="UTF-8" standalone="no"?>
<svg
   xmlns:dc="http://purl.org/dc/elements/1.1/"
   xmlns:cc="http://creativecommons.org/ns#"
   xmlns:rdf="http://www.w3.org/1999/02/22-rdf-syntax-ns#"
   xmlns:svg="http://www.w3.org/2000/svg"
   xmlns="http://www.w3.org/2000/svg"
   xmlns:sodipodi="http://sodipodi.sourceforge.net/DTD/sodipodi-0.dtd"
   xmlns:inkscape="http://www.inkscape.org/namespaces/inkscape"
   viewBox="0 0 64 64"
   version="1.1"
   id="svg8"
   sodipodi:docname="path-union.svg"
   width="64"
   height="64"
   inkscape:version="0.92.2 5c3e80d, 2017-08-06">
  <metadata
     id="metadata12">
    <rdf:RDF>
      <cc:Work
         rdf:about="">
        <dc:format>image/svg+xml</dc:format>
        <dc:type
           rdf:resource="http://purl.org/dc/dcmitype/StillImage" />
        <dc:title></dc:title>
      </cc:Work>
    </rdf:RDF>
  </metadata>
  <sodipodi:namedview
     pagecolor="#ffffff"
     bordercolor="#666666"
     borderopacity="1"
     objecttolerance="10"
     gridtolerance="10"
     guidetolerance="10"
     inkscape:pageopacity="0"
     inkscape:pageshadow="2"
     inkscape:window-width="1366"
     inkscape:window-height="717"
     id="namedview10"
     showgrid="false"
     inkscape:zoom="0.65186407"
     inkscape:cx="572.60004"
     inkscape:cy="228.2561"
     inkscape:window-x="0"
     inkscape:window-y="24"
     inkscape:window-maximized="1"
     inkscape:current-layer="svg8" />
  <defs
     id="defs3051">
    <style
       type="text/css"
       id="current-color-scheme">
      .ColorScheme-Text {
        color:#4d4d4d;
      }
      </style>
  </defs>
  <g
     id="g860"
     transform="matrix(0.125,0,0,0.125,2.8323279e-7,56.000001)">
    <path
       id="path1148"
       d="m 432.9132,-391.52603 c 102.1931,88.57459 105.82677,249.69971 8.11688,359.898791 C 343.32022,78.571842 181.27977,96.100611 79.086636,7.5260214 -23.106121,-81.048569 -26.740136,-242.17368 70.970101,-352.37277 168.67996,-462.57185 330.72041,-480.10062 432.9132,-391.52603 Z"
       inkscape:connector-curvature="0"
       style="fill:#3689e6;fill-opacity:1;stroke-width:11.10955811" />
    <path
       id="path1150"
       d="m 511.63547,-223.09648 c -1.55116,61.31165 -25.16107,124.154607 -70.9663,175.814475 C 342.95931,62.917115 180.91883,80.445845 78.725691,-8.1287063 30.826982,-49.644361 4.4969029,-107.07715 0.19391075,-167.77119 0.79901312,-101.41451 27.117376,-37.517822 79.078699,7.5190671 181.27146,96.093619 343.31984,78.556195 441.02218,-31.634231 490.72712,-87.692336 514.02715,-156.92519 511.63547,-223.09648 Z"
       inkscape:connector-curvature="0"
       style="opacity:1;fill:#000000;fill-opacity:0.49019608;stroke-width:11.10955811" />
    <path
       style="color:#3daee9;fill:#000000;fill-opacity:0.49019608;stroke:none;stroke-width:25.9957695"
       d="m 315.03809,-328 c -59.5143,0.0706 -109.48627,44.83493 -116.09893,104.00001 H 120 V -16 H 327.93231 V -94.761721 C 387.15689,-101.33299 431.97526,-151.39281 432,-210.99999 c 10e-6,-64.61731 -52.36562,-117 -116.96191,-117.00001 z"
       class="ColorScheme-Highlight"
       id="path854"
       inkscape:connector-curvature="0"
       sodipodi:nodetypes="cccccccc" />
    <path
       sodipodi:nodetypes="cccccccc"
       inkscape:connector-curvature="0"
       id="path6"
       class="ColorScheme-Highlight"
       d="m 295.03809,-348 c -59.5143,0.0706 -109.48627,44.83493 -116.09893,104.00001 H 100 v 207.999991 h 207.93231 v -78.761721 c 59.22458,-6.57127 104.04295,-56.63109 104.06769,-116.23827 10e-6,-64.61731 -52.36562,-117 -116.96191,-117.00001 z"
       style="color:#3daee9;fill:#ffffff;fill-opacity:1;stroke:none;stroke-width:25.9957695" />
  </g>
</svg>
