<?xml version="1.0" encoding="UTF-8" standalone="no"?>
<svg
   xmlns:dc="http://purl.org/dc/elements/1.1/"
   xmlns:cc="http://creativecommons.org/ns#"
   xmlns:rdf="http://www.w3.org/1999/02/22-rdf-syntax-ns#"
   xmlns:svg="http://www.w3.org/2000/svg"
   xmlns="http://www.w3.org/2000/svg"
   xmlns:sodipodi="http://sodipodi.sourceforge.net/DTD/sodipodi-0.dtd"
   xmlns:inkscape="http://www.inkscape.org/namespaces/inkscape"
   viewBox="0 0 64 64"
   version="1.1"
   id="svg8"
   sodipodi:docname="path-break-apart.svg"
   width="64"
   height="64"
   inkscape:version="0.92.2 5c3e80d, 2017-08-06">
  <metadata
     id="metadata12">
    <rdf:RDF>
      <cc:Work
         rdf:about="">
        <dc:format>image/svg+xml</dc:format>
        <dc:type
           rdf:resource="http://purl.org/dc/dcmitype/StillImage" />
        <dc:title />
      </cc:Work>
    </rdf:RDF>
  </metadata>
  <sodipodi:namedview
     pagecolor="#ffffff"
     bordercolor="#666666"
     borderopacity="1"
     objecttolerance="10"
     gridtolerance="10"
     guidetolerance="10"
     inkscape:pageopacity="0"
     inkscape:pageshadow="2"
     inkscape:window-width="1366"
     inkscape:window-height="717"
     id="namedview10"
     showgrid="false"
     inkscape:zoom="3.6875"
     inkscape:cx="10.212556"
     inkscape:cy="24.478586"
     inkscape:window-x="0"
     inkscape:window-y="24"
     inkscape:window-maximized="1"
     inkscape:current-layer="svg8" />
  <defs
     id="defs3051">
    <style
       type="text/css"
       id="current-color-scheme">
      .ColorScheme-Text {
        color:#4d4d4d;
      }
      .ColorScheme-Highlight {
        color:#3daee9;
      }
      </style>
  </defs>
  <g
     id="g846"
     transform="matrix(0.125,0,0,0.125,2.8323279e-7,56.000001)">
    <path
       id="path1148"
       d="m 432.9132,-391.52603 c 102.1931,88.57459 105.82677,249.69971 8.11688,359.89879 C 343.32022,78.571841 181.27977,96.10061 79.086636,7.52602 -23.106121,-81.04857 -26.740136,-242.17368 70.970101,-352.37277 168.67996,-462.57185 330.72041,-480.10062 432.9132,-391.52603 Z"
       inkscape:connector-curvature="0"
       style="fill:#3689e6;fill-opacity:1;stroke-width:11.10955811" />
    <path
       id="path1150"
       d="m 511.63547,-223.09648 c -1.55116,61.31165 -25.16107,124.154606 -70.9663,175.814474 C 342.95931,62.917114 180.91883,80.445844 78.725691,-8.1287077 30.826982,-49.644362 4.4969029,-107.07715 0.19391075,-167.77119 0.79901312,-101.41451 27.117376,-37.517823 79.078699,7.5190657 181.27146,96.093618 343.31984,78.556194 441.02218,-31.634232 490.72712,-87.692337 514.02715,-156.92519 511.63547,-223.09648 Z"
       inkscape:connector-curvature="0"
       style="opacity:1;fill:#000000;fill-opacity:0.49019608;stroke-width:11.10955811" />
    <path
       style="color:#3daee9;fill:#000000;fill-opacity:0.49019608;stroke:none;stroke-width:25.9957695"
       d="M 315.03809,-328 A 116.96193,117 0 0 0 198.93916,-223.99999 H 120 V -16 H 327.93231 V -94.76172 A 116.96193,117 0 0 0 432,-210.99999 116.96193,117 0 0 0 315.03809,-328 Z m 0,26 a 90.970389,91.000003 0 0 1 90.97037,91.00001 90.970389,91.000003 0 0 1 -78.07615,89.98437 V -223.99999 H 225.13375 A 90.970389,91.000003 0 0 1 315.03809,-302 Z m -169.04655,104.00001 h 52.89686 a 116.96193,117 0 0 0 103.05237,103.13671 v 52.863279 H 145.99154 Z m 79.09145,0 h 76.85778 v 76.9336 a 90.970389,91.000003 0 0 1 -76.85778,-76.9336 z"
       class="ColorScheme-Highlight"
       id="path840"
       inkscape:connector-curvature="0" />
    <path
       inkscape:connector-curvature="0"
       id="path6"
       class="ColorScheme-Highlight"
       d="M 295.03809,-348 A 116.96193,117 0 0 0 178.93916,-243.99999 H 100 V -36 h 207.93231 v -78.76172 A 116.96193,117 0 0 0 412,-230.99999 116.96193,117 0 0 0 295.03809,-348 Z m 0,26 a 90.970389,91.000003 0 0 1 90.97037,91.00001 90.970389,91.000003 0 0 1 -78.07615,89.98437 V -243.99999 H 205.13375 A 90.970389,91.000003 0 0 1 295.03809,-322 Z m -169.04655,104.00001 h 52.89686 a 116.96193,117 0 0 0 103.05237,103.13671 v 52.863279 H 125.99154 Z m 79.09145,0 h 76.85778 v 76.9336 a 90.970389,91.000003 0 0 1 -76.85778,-76.9336 z"
       style="color:#3daee9;fill:#ffffff;fill-opacity:1;stroke:none;stroke-width:25.9957695" />
  </g>
</svg>
