<?xml version="1.0" encoding="UTF-8" standalone="no"?>
<svg
   xmlns:dc="http://purl.org/dc/elements/1.1/"
   xmlns:cc="http://creativecommons.org/ns#"
   xmlns:rdf="http://www.w3.org/1999/02/22-rdf-syntax-ns#"
   xmlns:svg="http://www.w3.org/2000/svg"
   xmlns="http://www.w3.org/2000/svg"
   xmlns:sodipodi="http://sodipodi.sourceforge.net/DTD/sodipodi-0.dtd"
   xmlns:inkscape="http://www.inkscape.org/namespaces/inkscape"
   viewBox="0 0 64 64"
   version="1.1"
   id="svg6"
   sodipodi:docname="path-cut.svg"
   width="64"
   height="64"
   inkscape:version="0.92.2 5c3e80d, 2017-08-06">
  <metadata
     id="metadata10">
    <rdf:RDF>
      <cc:Work
         rdf:about="">
        <dc:format>image/svg+xml</dc:format>
        <dc:type
           rdf:resource="http://purl.org/dc/dcmitype/StillImage" />
        <dc:title></dc:title>
      </cc:Work>
    </rdf:RDF>
  </metadata>
  <sodipodi:namedview
     pagecolor="#ffffff"
     bordercolor="#666666"
     borderopacity="1"
     objecttolerance="10"
     gridtolerance="10"
     guidetolerance="10"
     inkscape:pageopacity="0"
     inkscape:pageshadow="2"
     inkscape:window-width="1366"
     inkscape:window-height="717"
     id="namedview8"
     showgrid="false"
     inkscape:zoom="5.2149125"
     inkscape:cx="48.217595"
     inkscape:cy="33.300335"
     inkscape:window-x="0"
     inkscape:window-y="24"
     inkscape:window-maximized="1"
     inkscape:current-layer="svg6" />
  <defs
     id="defs3051">
    <style
       type="text/css"
       id="current-color-scheme">
      .ColorScheme-Text {
        color:#4d4d4d;
      }
      .ColorScheme-Highlight {
        color:#3daee9;
      }
      </style>
  </defs>
  <g
     id="g841"
     transform="matrix(0.125,0,0,0.125,2.8323279e-7,56.000001)">
    <path
       id="path1148"
       d="m 432.9132,-391.52603 c 102.1931,88.57459 105.82677,249.69971 8.11688,359.89879 C 343.32022,78.571841 181.27977,96.10061 79.086636,7.52602 -23.106121,-81.04857 -26.740136,-242.17368 70.970101,-352.37277 168.67996,-462.57185 330.72041,-480.10062 432.9132,-391.52603 Z"
       inkscape:connector-curvature="0"
       style="fill:#3689e6;fill-opacity:1;stroke-width:11.10955811" />
    <path
       id="path1150"
       d="m 511.63547,-223.09648 c -1.55116,61.31165 -25.16107,124.154606 -70.9663,175.814474 C 342.95931,62.917114 180.91883,80.445844 78.725691,-8.1287077 30.826982,-49.644362 4.4969029,-107.07715 0.19391075,-167.77119 0.79901312,-101.41451 27.117376,-37.517823 79.078699,7.5190657 181.27146,96.093618 343.31984,78.556194 441.02218,-31.634232 490.72712,-87.692337 514.02715,-156.92519 511.63547,-223.09648 Z"
       inkscape:connector-curvature="0"
       style="opacity:1;fill:#000000;fill-opacity:0.49019608;stroke-width:11.10955811" />
    <path
       style="color:#4d4d4d;fill:#000000;fill-opacity:0.49019608;stroke:none;stroke-width:26.06734085"
       d="m 302.47138,-327.99601 a 117.30303,117.30303 0 0 0 -33.9079,9.06247 l 13.13223,22.75926 a 91.235692,91.235692 0 0 1 20.77567,-5.55072 z m 26.06734,0.0469 v 26.27588 a 91.235692,91.235692 0 0 1 20.77242,5.49898 l 13.08906,-22.6513 a 117.30303,117.30303 0 0 0 -33.86148,-9.11826 m -82.52961,22.09612 a 117.30303,117.30303 0 0 0 -24.84544,24.84547 l 22.76047,13.0862 a 91.235692,91.235692 0 0 1 15.11864,-15.27547 z m 138.99147,0.004 -13.0858,22.75679 a 91.235692,91.235692 0 0 1 15.27546,15.11866 l 22.67859,-13.03328 A 117.30303,117.30303 0 0 0 385.001,-305.84736 m 37.92756,47.3941 -22.75678,13.13794 a 91.235692,91.235692 0 0 1 5.55072,20.77567 H 432 a 117.30303,117.30303 0 0 0 -9.06899,-33.9079 m -214.75007,0.0521 a 117.30303,117.30303 0 0 0 -9.11348,33.85699 H 120 V -16 h 208.53872 v -79.01 a 117.30303,117.30303 0 0 0 33.90791,-9.06901 l -13.13224,-22.75924 a 91.235692,91.235692 0 0 1 -33.80934,6.56897 91.235692,91.235692 0 0 1 -90.2175,-78.20202 91.235692,91.235692 0 0 1 -1.01819,-13.03367 91.235692,91.235692 0 0 1 1.06928,-13.03367 91.235692,91.235692 0 0 1 5.49847,-20.77241 z m -62.1136,59.92433 h 52.9167 a 117.30303,117.30303 0 0 0 103.48734,103.40358 v 53.000199 H 146.06734 Z m 259.60423,0 a 91.235692,91.235692 0 0 1 -5.49857,20.77241 l 22.6513,13.08906 a 117.30303,117.30303 0 0 0 9.11827,-33.86147 z m -18.58315,43.37769 a 91.235692,91.235692 0 0 1 -15.12109,15.27382 l 13.03325,22.65252 a 117.30303,117.30303 0 0 0 24.84583,-24.84176 z"
       class="ColorScheme-Text"
       id="path835"
       inkscape:connector-curvature="0" />
    <path
       inkscape:connector-curvature="0"
       id="path4"
       class="ColorScheme-Text"
       d="m 282.47138,-347.99601 a 117.30303,117.30303 0 0 0 -33.9079,9.06247 l 13.13223,22.75926 a 91.235692,91.235692 0 0 1 20.77567,-5.55072 z m 26.06734,0.0469 v 26.27588 a 91.235692,91.235692 0 0 1 20.77242,5.49898 l 13.08906,-22.6513 a 117.30303,117.30303 0 0 0 -33.86148,-9.11826 m -82.52961,22.09612 a 117.30303,117.30303 0 0 0 -24.84544,24.84547 l 22.76047,13.0862 a 91.235692,91.235692 0 0 1 15.11864,-15.27547 z m 138.99147,0.004 -13.0858,22.75679 a 91.235692,91.235692 0 0 1 15.27546,15.11866 l 22.67859,-13.03328 A 117.30303,117.30303 0 0 0 365.001,-325.84736 m 37.92756,47.3941 -22.75678,13.13794 a 91.235692,91.235692 0 0 1 5.55072,20.77567 H 412 a 117.30303,117.30303 0 0 0 -9.06899,-33.9079 m -214.75007,0.0521 a 117.30303,117.30303 0 0 0 -9.11348,33.85699 H 100 V -36 h 208.53872 v -79.01 a 117.30303,117.30303 0 0 0 33.90791,-9.06901 l -13.13224,-22.75924 a 91.235692,91.235692 0 0 1 -33.80934,6.56897 91.235692,91.235692 0 0 1 -90.2175,-78.20202 91.235692,91.235692 0 0 1 -1.01819,-13.03367 91.235692,91.235692 0 0 1 1.06928,-13.03367 91.235692,91.235692 0 0 1 5.49847,-20.77241 z m -62.1136,59.92433 h 52.9167 a 117.30303,117.30303 0 0 0 103.48734,103.40358 v 53.000199 H 126.06734 Z m 259.60423,0 a 91.235692,91.235692 0 0 1 -5.49857,20.77241 l 22.6513,13.08906 a 117.30303,117.30303 0 0 0 9.11827,-33.86147 z m -18.58315,43.37769 a 91.235692,91.235692 0 0 1 -15.12109,15.27382 l 13.03325,22.65252 a 117.30303,117.30303 0 0 0 24.84583,-24.84176 z"
       style="color:#4d4d4d;fill:#ffffff;fill-opacity:1;stroke:none;stroke-width:26.06734085" />
  </g>
</svg>
