<?xml version="1.0" encoding="UTF-8" standalone="no"?>
<svg
   xmlns:dc="http://purl.org/dc/elements/1.1/"
   xmlns:cc="http://creativecommons.org/ns#"
   xmlns:rdf="http://www.w3.org/1999/02/22-rdf-syntax-ns#"
   xmlns:svg="http://www.w3.org/2000/svg"
   xmlns="http://www.w3.org/2000/svg"
   xmlns:sodipodi="http://sodipodi.sourceforge.net/DTD/sodipodi-0.dtd"
   xmlns:inkscape="http://www.inkscape.org/namespaces/inkscape"
   viewBox="0 0 64 64"
   version="1.1"
   id="svg6"
   sodipodi:docname="path-simplify.svg"
   width="64"
   height="64"
   inkscape:version="0.92.2 5c3e80d, 2017-08-06">
  <metadata
     id="metadata10">
    <rdf:RDF>
      <cc:Work
         rdf:about="">
        <dc:format>image/svg+xml</dc:format>
        <dc:type
           rdf:resource="http://purl.org/dc/dcmitype/StillImage" />
        <dc:title></dc:title>
      </cc:Work>
    </rdf:RDF>
  </metadata>
  <sodipodi:namedview
     pagecolor="#ffffff"
     bordercolor="#666666"
     borderopacity="1"
     objecttolerance="10"
     gridtolerance="10"
     guidetolerance="10"
     inkscape:pageopacity="0"
     inkscape:pageshadow="2"
     inkscape:window-width="1366"
     inkscape:window-height="717"
     id="namedview8"
     showgrid="false"
     showguides="false"
     inkscape:zoom="2.4583333"
     inkscape:cx="-36.576713"
     inkscape:cy="71.220997"
     inkscape:window-x="0"
     inkscape:window-y="24"
     inkscape:window-maximized="1"
     inkscape:current-layer="svg6" />
  <defs
     id="defs3051">
    <style
       type="text/css"
       id="current-color-scheme">
      .ColorScheme-Text {
        color:#4d4d4d;
      }
      </style>
  </defs>
  <g
     id="g886"
     transform="matrix(0.125,0,0,0.125,2.8323279e-7,56.000001)">
    <path
       id="path1148"
       d="m 432.9132,-391.52603 c 102.1931,88.57459 105.82677,249.69971 8.11688,359.89879 C 343.32022,78.571841 181.27977,96.10061 79.086636,7.52602 -23.106121,-81.04857 -26.740136,-242.17368 70.970101,-352.37277 168.67996,-462.57185 330.72041,-480.10062 432.9132,-391.52603 Z"
       inkscape:connector-curvature="0"
       style="fill:#3689e6;fill-opacity:1;stroke-width:11.10955811" />
    <path
       id="path1150"
       d="m 511.63547,-223.09648 c -1.55116,61.31165 -25.16107,124.154606 -70.9663,175.814474 C 342.95931,62.917114 180.91883,80.445844 78.725691,-8.1287077 30.826982,-49.644362 4.4969029,-107.07715 0.19391075,-167.77119 0.79901312,-101.41451 27.117376,-37.517823 79.078699,7.5190657 181.27146,96.093618 343.31984,78.556194 441.02218,-31.634232 490.72712,-87.692337 514.02715,-156.92519 511.63547,-223.09648 Z"
       inkscape:connector-curvature="0"
       style="opacity:1;fill:#000000;fill-opacity:0.49019608;stroke-width:11.10955811" />
    <g
       transform="translate(20,20)"
       id="g874"
       style="fill:#000000;fill-opacity:0.49019608">
      <path
         inkscape:connector-curvature="0"
         id="path868"
         d="m 364.02667,-347.97583 c -7.56302,-0.3767 -15.07407,3.70169 -19.46814,8.65742 -4.39405,4.95575 -6.85119,10.44098 -8.91968,16.14982 -4.13699,11.41768 -6.46993,24.42356 -9.13979,36.96566 -2.66986,12.54209 -5.71377,24.53211 -9.1838,31.77235 -3.47004,7.24025 -4.66907,8.04104 -7.57705,8.072 -1.52178,0.0162 -1.4573,-0.05 -2.28908,-0.77734 -0.83177,-0.72728 -2.33408,-2.67528 -3.82246,-6.07727 -2.97676,-6.80399 -5.49082,-18.61298 -7.86503,-31.12295 -2.37419,-12.50996 -4.61314,-25.71065 -9.65702,-37.61312 -2.52194,-5.95123 -5.83157,-11.78739 -11.09504,-16.54333 -5.26347,-4.75595 -12.77416,-7.85561 -20.35772,-7.7851 -7.42163,0.069 -14.75727,3.06768 -19.95969,7.74632 -5.20242,4.67865 -8.45022,10.45343 -10.84008,16.27389 -4.77973,11.64092 -6.5873,24.31415 -8.51799,36.26584 -1.93071,11.9517 -3.97905,23.18685 -6.54258,29.53725 -1.28177,3.17519 -2.58572,4.91502 -3.21901,5.49571 -0.63328,0.58067 -0.38529,0.58591 -1.76266,0.60481 -2.53471,0.0347 -3.57318,-0.52872 -7.06898,-7.35862 -3.49581,-6.82992 -6.74908,-18.29594 -9.67537,-30.33979 -2.92629,-12.04387 -5.55996,-24.58341 -9.94317,-35.60869 -2.19159,-5.51265 -4.77278,-10.81447 -9.20031,-15.55081 -4.42752,-4.73635 -11.77469,-8.58854 -19.20768,-8.19026 -10.64259,0.57027 -19.94631,6.89077 -25.15046,14.36638 -5.20416,7.47561 -7.43295,15.61031 -8.73443,23.03738 -2.60295,14.85417 -1.1372,28.41096 -1.1372,28.41096 l 28.02832,-3.02603 c 0,0 -0.85556,-10.45409 0.81071,-19.96288 0.83313,-4.7544 2.38488,-8.88769 3.72525,-10.81307 0.87986,-1.26389 1.41804,-1.70343 2.24138,-1.95403 0.64004,0.95201 1.58678,2.54113 2.65041,5.21656 2.82955,7.1173 5.60266,19.02229 8.62988,31.48158 3.02723,12.45928 6.27336,25.55403 12.18272,37.0994 5.90935,11.54538 17.181,23.17188 32.21393,22.96566 7.40646,-0.1016 14.71758,-3.17362 19.85882,-7.88784 5.14125,-4.71423 8.32419,-10.48859 10.67134,-16.30296 4.6943,-11.62873 6.47382,-24.28211 8.40061,-36.20963 1.92678,-11.92753 4.00517,-23.12248 6.59209,-29.42286 1.29346,-3.1502 2.59831,-4.86323 3.25202,-5.45113 0.65372,-0.5879 0.47874,-0.63573 1.94976,-0.6494 1.30909,-0.0122 1.04529,-0.0394 1.80117,0.64359 0.75587,0.68299 2.23821,2.65189 3.69223,6.08308 2.90806,6.86237 5.36209,18.73735 7.7458,31.29741 2.38372,12.56007 4.69101,25.81619 9.91749,37.76238 2.61323,5.9731 6.05832,11.82136 11.43436,16.52202 5.37604,4.70066 12.90979,7.69371 20.53196,7.61257 15.3799,-0.16373 26.64395,-12.33047 32.42487,-24.39241 5.78094,-12.06193 8.77476,-25.70779 11.53892,-38.69287 2.76416,-12.98509 5.26215,-25.40015 7.96223,-32.85212 0.99347,-2.74185 1.89864,-4.38497 2.52753,-5.39684 0.75803,0.24118 1.22734,0.6638 2.02128,1.83966 1.24649,1.84613 2.71154,5.97963 3.42077,10.77624 1.41844,9.59321 0.23844,20.22459 0.23844,20.22459 l 27.92377,3.95264 c 0,0 1.90222,-13.70025 -0.32649,-28.77347 -1.11436,-7.5366 -3.15485,-15.82029 -8.32357,-23.47548 -5.16873,-7.65519 -14.64607,-14.06707 -25.40358,-14.60287 z"
         style="color:#000000;font-style:normal;font-variant:normal;font-weight:normal;font-stretch:normal;font-size:medium;line-height:normal;font-family:sans-serif;font-variant-ligatures:normal;font-variant-position:normal;font-variant-caps:normal;font-variant-numeric:normal;font-variant-alternates:normal;font-feature-settings:normal;text-indent:0;text-align:start;text-decoration:none;text-decoration-line:none;text-decoration-style:solid;text-decoration-color:#000000;letter-spacing:normal;word-spacing:normal;text-transform:none;writing-mode:lr-tb;direction:ltr;text-orientation:mixed;dominant-baseline:auto;baseline-shift:baseline;text-anchor:start;white-space:normal;shape-padding:0;clip-rule:nonzero;display:inline;overflow:visible;visibility:visible;opacity:1;isolation:auto;mix-blend-mode:normal;color-interpolation:sRGB;color-interpolation-filters:linearRGB;solid-color:#000000;solid-opacity:1;vector-effect:none;fill:#000000;fill-opacity:0.49019608;fill-rule:nonzero;stroke:none;stroke-width:28.96336555;stroke-linecap:butt;stroke-linejoin:miter;stroke-miterlimit:4;stroke-dasharray:none;stroke-dashoffset:0;stroke-opacity:1;color-rendering:auto;image-rendering:auto;shape-rendering:auto;text-rendering:auto;enable-background:accumulate" />
      <path
         inkscape:connector-curvature="0"
         id="path870"
         d="m 196.4419,-191.10298 c -22.49473,1.38982 -43.85656,14.09606 -61.43081,25.99362 C 114.92622,-151.51215 100,-137.46799 100,-137.46799 l 18.7161,22.25809 c 0,0 13.48107,-12.63393 31.49128,-24.82663 18.01021,-12.1927 40.76242,-22.44109 53.49792,-21.27139 11.41409,1.04835 25.90108,15.8194 41.80127,34.79063 15.9002,18.97124 33.30263,42.192426 60.7485,44.357234 26.26395,2.071582 51.14186,-13.403044 71.07317,-27.680134 C 397.25954,-124.11729 412,-138.76874 412,-138.76874 l -19.28104,-21.71143 c 0,0 -13.32959,13.19242 -31.1978,25.99168 -17.86821,12.79927 -40.51814,23.634 -53.16961,22.63611 -11.46954,-0.90466 -25.88314,-15.47082 -41.75542,-34.40874 -15.87227,-18.93792 -33.11537,-42.19917 -60.45318,-44.71004 -3.25205,-0.29869 -6.48752,-0.33037 -9.70105,-0.13182 z"
         style="color:#000000;font-style:normal;font-variant:normal;font-weight:normal;font-stretch:normal;font-size:medium;line-height:normal;font-family:sans-serif;font-variant-ligatures:normal;font-variant-position:normal;font-variant-caps:normal;font-variant-numeric:normal;font-variant-alternates:normal;font-feature-settings:normal;text-indent:0;text-align:start;text-decoration:none;text-decoration-line:none;text-decoration-style:solid;text-decoration-color:#000000;letter-spacing:normal;word-spacing:normal;text-transform:none;writing-mode:lr-tb;direction:ltr;text-orientation:mixed;dominant-baseline:auto;baseline-shift:baseline;text-anchor:start;white-space:normal;shape-padding:0;clip-rule:nonzero;display:inline;overflow:visible;visibility:visible;opacity:1;isolation:auto;mix-blend-mode:normal;color-interpolation:sRGB;color-interpolation-filters:linearRGB;solid-color:#000000;solid-opacity:1;vector-effect:none;fill:#000000;fill-opacity:0.49019608;fill-rule:nonzero;stroke:none;stroke-width:28.96336555;stroke-linecap:butt;stroke-linejoin:miter;stroke-miterlimit:4;stroke-dasharray:none;stroke-dashoffset:0;stroke-opacity:1;color-rendering:auto;image-rendering:auto;shape-rendering:auto;text-rendering:auto;enable-background:accumulate" />
      <path
         inkscape:connector-curvature="0"
         id="path872"
         d="M 109.35806,-65.775679 V -36 h 293.00142 v -29.775679 z"
         style="color:#000000;font-style:normal;font-variant:normal;font-weight:normal;font-stretch:normal;font-size:medium;line-height:normal;font-family:sans-serif;font-variant-ligatures:normal;font-variant-position:normal;font-variant-caps:normal;font-variant-numeric:normal;font-variant-alternates:normal;font-feature-settings:normal;text-indent:0;text-align:start;text-decoration:none;text-decoration-line:none;text-decoration-style:solid;text-decoration-color:#000000;letter-spacing:normal;word-spacing:normal;text-transform:none;writing-mode:lr-tb;direction:ltr;text-orientation:mixed;dominant-baseline:auto;baseline-shift:baseline;text-anchor:start;white-space:normal;shape-padding:0;clip-rule:nonzero;display:inline;overflow:visible;visibility:visible;opacity:1;isolation:auto;mix-blend-mode:normal;color-interpolation:sRGB;color-interpolation-filters:linearRGB;solid-color:#000000;solid-opacity:1;vector-effect:none;fill:#000000;fill-opacity:0.49019608;fill-rule:nonzero;stroke:none;stroke-width:28.96336555;stroke-linecap:butt;stroke-linejoin:miter;stroke-miterlimit:4;stroke-dasharray:none;stroke-dashoffset:0;stroke-opacity:1;color-rendering:auto;image-rendering:auto;shape-rendering:auto;text-rendering:auto;enable-background:accumulate" />
    </g>
    <g
       style="fill:#ffffff"
       id="g866">
      <path
         style="color:#000000;font-style:normal;font-variant:normal;font-weight:normal;font-stretch:normal;font-size:medium;line-height:normal;font-family:sans-serif;font-variant-ligatures:normal;font-variant-position:normal;font-variant-caps:normal;font-variant-numeric:normal;font-variant-alternates:normal;font-feature-settings:normal;text-indent:0;text-align:start;text-decoration:none;text-decoration-line:none;text-decoration-style:solid;text-decoration-color:#000000;letter-spacing:normal;word-spacing:normal;text-transform:none;writing-mode:lr-tb;direction:ltr;text-orientation:mixed;dominant-baseline:auto;baseline-shift:baseline;text-anchor:start;white-space:normal;shape-padding:0;clip-rule:nonzero;display:inline;overflow:visible;visibility:visible;opacity:1;isolation:auto;mix-blend-mode:normal;color-interpolation:sRGB;color-interpolation-filters:linearRGB;solid-color:#000000;solid-opacity:1;vector-effect:none;fill:#ffffff;fill-opacity:1;fill-rule:nonzero;stroke:none;stroke-width:28.96336555;stroke-linecap:butt;stroke-linejoin:miter;stroke-miterlimit:4;stroke-dasharray:none;stroke-dashoffset:0;stroke-opacity:1;color-rendering:auto;image-rendering:auto;shape-rendering:auto;text-rendering:auto;enable-background:accumulate"
         d="m 364.02667,-347.97583 c -7.56302,-0.3767 -15.07407,3.70169 -19.46814,8.65742 -4.39405,4.95575 -6.85119,10.44098 -8.91968,16.14982 -4.13699,11.41768 -6.46993,24.42356 -9.13979,36.96566 -2.66986,12.54209 -5.71377,24.53211 -9.1838,31.77235 -3.47004,7.24025 -4.66907,8.04104 -7.57705,8.072 -1.52178,0.0162 -1.4573,-0.05 -2.28908,-0.77734 -0.83177,-0.72728 -2.33408,-2.67528 -3.82246,-6.07727 -2.97676,-6.80399 -5.49082,-18.61298 -7.86503,-31.12295 -2.37419,-12.50996 -4.61314,-25.71065 -9.65702,-37.61312 -2.52194,-5.95123 -5.83157,-11.78739 -11.09504,-16.54333 -5.26347,-4.75595 -12.77416,-7.85561 -20.35772,-7.7851 -7.42163,0.069 -14.75727,3.06768 -19.95969,7.74632 -5.20242,4.67865 -8.45022,10.45343 -10.84008,16.27389 -4.77973,11.64092 -6.5873,24.31415 -8.51799,36.26584 -1.93071,11.9517 -3.97905,23.18685 -6.54258,29.53725 -1.28177,3.17519 -2.58572,4.91502 -3.21901,5.49571 -0.63328,0.58067 -0.38529,0.58591 -1.76266,0.60481 -2.53471,0.0347 -3.57318,-0.52872 -7.06898,-7.35862 -3.49581,-6.82992 -6.74908,-18.29594 -9.67537,-30.33979 -2.92629,-12.04387 -5.55996,-24.58341 -9.94317,-35.60869 -2.19159,-5.51265 -4.77278,-10.81447 -9.20031,-15.55081 -4.42752,-4.73635 -11.77469,-8.58854 -19.20768,-8.19026 -10.64259,0.57027 -19.94631,6.89077 -25.15046,14.36638 -5.20416,7.47561 -7.43295,15.61031 -8.73443,23.03738 -2.60295,14.85417 -1.1372,28.41096 -1.1372,28.41096 l 28.02832,-3.02603 c 0,0 -0.85556,-10.45409 0.81071,-19.96288 0.83313,-4.7544 2.38488,-8.88769 3.72525,-10.81307 0.87986,-1.26389 1.41804,-1.70343 2.24138,-1.95403 0.64004,0.95201 1.58678,2.54113 2.65041,5.21656 2.82955,7.1173 5.60266,19.02229 8.62988,31.48158 3.02723,12.45928 6.27336,25.55403 12.18272,37.0994 5.90935,11.54538 17.181,23.17188 32.21393,22.96566 7.40646,-0.1016 14.71758,-3.17362 19.85882,-7.88784 5.14125,-4.71423 8.32419,-10.48859 10.67134,-16.30296 4.6943,-11.62873 6.47382,-24.28211 8.40061,-36.20963 1.92678,-11.92753 4.00517,-23.12248 6.59209,-29.42286 1.29346,-3.1502 2.59831,-4.86323 3.25202,-5.45113 0.65372,-0.5879 0.47874,-0.63573 1.94976,-0.6494 1.30909,-0.0122 1.04529,-0.0394 1.80117,0.64359 0.75587,0.68299 2.23821,2.65189 3.69223,6.08308 2.90806,6.86237 5.36209,18.73735 7.7458,31.29741 2.38372,12.56007 4.69101,25.81619 9.91749,37.76238 2.61323,5.9731 6.05832,11.82136 11.43436,16.52202 5.37604,4.70066 12.90979,7.69371 20.53196,7.61257 15.3799,-0.16373 26.64395,-12.33047 32.42487,-24.39241 5.78094,-12.06193 8.77476,-25.70779 11.53892,-38.69287 2.76416,-12.98509 5.26215,-25.40015 7.96223,-32.85212 0.99347,-2.74185 1.89864,-4.38497 2.52753,-5.39684 0.75803,0.24118 1.22734,0.6638 2.02128,1.83966 1.24649,1.84613 2.71154,5.97963 3.42077,10.77624 1.41844,9.59321 0.23844,20.22459 0.23844,20.22459 l 27.92377,3.95264 c 0,0 1.90222,-13.70025 -0.32649,-28.77347 -1.11436,-7.5366 -3.15485,-15.82029 -8.32357,-23.47548 -5.16873,-7.65519 -14.64607,-14.06707 -25.40358,-14.60287 z"
         id="path835"
         inkscape:connector-curvature="0" />
      <path
         style="color:#000000;font-style:normal;font-variant:normal;font-weight:normal;font-stretch:normal;font-size:medium;line-height:normal;font-family:sans-serif;font-variant-ligatures:normal;font-variant-position:normal;font-variant-caps:normal;font-variant-numeric:normal;font-variant-alternates:normal;font-feature-settings:normal;text-indent:0;text-align:start;text-decoration:none;text-decoration-line:none;text-decoration-style:solid;text-decoration-color:#000000;letter-spacing:normal;word-spacing:normal;text-transform:none;writing-mode:lr-tb;direction:ltr;text-orientation:mixed;dominant-baseline:auto;baseline-shift:baseline;text-anchor:start;white-space:normal;shape-padding:0;clip-rule:nonzero;display:inline;overflow:visible;visibility:visible;opacity:1;isolation:auto;mix-blend-mode:normal;color-interpolation:sRGB;color-interpolation-filters:linearRGB;solid-color:#000000;solid-opacity:1;vector-effect:none;fill:#ffffff;fill-opacity:1;fill-rule:nonzero;stroke:none;stroke-width:28.96336555;stroke-linecap:butt;stroke-linejoin:miter;stroke-miterlimit:4;stroke-dasharray:none;stroke-dashoffset:0;stroke-opacity:1;color-rendering:auto;image-rendering:auto;shape-rendering:auto;text-rendering:auto;enable-background:accumulate"
         d="m 196.4419,-191.10298 c -22.49473,1.38982 -43.85656,14.09606 -61.43081,25.99362 C 114.92622,-151.51215 100,-137.46799 100,-137.46799 l 18.7161,22.25809 c 0,0 13.48107,-12.63393 31.49128,-24.82663 18.01021,-12.1927 40.76242,-22.44109 53.49792,-21.27139 11.41409,1.04835 25.90108,15.8194 41.80127,34.79063 15.9002,18.97124 33.30263,42.192426 60.7485,44.357234 26.26395,2.071582 51.14186,-13.403044 71.07317,-27.680134 C 397.25954,-124.11729 412,-138.76874 412,-138.76874 l -19.28104,-21.71143 c 0,0 -13.32959,13.19242 -31.1978,25.99168 -17.86821,12.79927 -40.51814,23.634 -53.16961,22.63611 -11.46954,-0.90466 -25.88314,-15.47082 -41.75542,-34.40874 -15.87227,-18.93792 -33.11537,-42.19917 -60.45318,-44.71004 -3.25205,-0.29869 -6.48752,-0.33037 -9.70105,-0.13182 z"
         id="path839"
         inkscape:connector-curvature="0" />
      <path
         style="color:#000000;font-style:normal;font-variant:normal;font-weight:normal;font-stretch:normal;font-size:medium;line-height:normal;font-family:sans-serif;font-variant-ligatures:normal;font-variant-position:normal;font-variant-caps:normal;font-variant-numeric:normal;font-variant-alternates:normal;font-feature-settings:normal;text-indent:0;text-align:start;text-decoration:none;text-decoration-line:none;text-decoration-style:solid;text-decoration-color:#000000;letter-spacing:normal;word-spacing:normal;text-transform:none;writing-mode:lr-tb;direction:ltr;text-orientation:mixed;dominant-baseline:auto;baseline-shift:baseline;text-anchor:start;white-space:normal;shape-padding:0;clip-rule:nonzero;display:inline;overflow:visible;visibility:visible;opacity:1;isolation:auto;mix-blend-mode:normal;color-interpolation:sRGB;color-interpolation-filters:linearRGB;solid-color:#000000;solid-opacity:1;vector-effect:none;fill:#ffffff;fill-opacity:1;fill-rule:nonzero;stroke:none;stroke-width:28.96336555;stroke-linecap:butt;stroke-linejoin:miter;stroke-miterlimit:4;stroke-dasharray:none;stroke-dashoffset:0;stroke-opacity:1;color-rendering:auto;image-rendering:auto;shape-rendering:auto;text-rendering:auto;enable-background:accumulate"
         d="M 109.35806,-65.775679 V -36 h 293.00142 v -29.775679 z"
         id="path841"
         inkscape:connector-curvature="0" />
    </g>
  </g>
</svg>
