<?xml version="1.0" encoding="UTF-8" standalone="no"?>
<svg
   xmlns:dc="http://purl.org/dc/elements/1.1/"
   xmlns:cc="http://creativecommons.org/ns#"
   xmlns:rdf="http://www.w3.org/1999/02/22-rdf-syntax-ns#"
   xmlns:svg="http://www.w3.org/2000/svg"
   xmlns="http://www.w3.org/2000/svg"
   xmlns:sodipodi="http://sodipodi.sourceforge.net/DTD/sodipodi-0.dtd"
   xmlns:inkscape="http://www.inkscape.org/namespaces/inkscape"
   viewBox="0 0 64 64"
   version="1.1"
   id="svg5"
   sodipodi:docname="percent.svg"
   width="64"
   height="64"
   inkscape:version="0.92.2 5c3e80d, 2017-08-06">
  <metadata
     id="metadata9">
    <rdf:RDF>
      <cc:Work
         rdf:about="">
        <dc:format>image/svg+xml</dc:format>
        <dc:type
           rdf:resource="http://purl.org/dc/dcmitype/StillImage" />
        <dc:title></dc:title>
      </cc:Work>
    </rdf:RDF>
  </metadata>
  <sodipodi:namedview
     pagecolor="#ffffff"
     bordercolor="#666666"
     borderopacity="1"
     objecttolerance="10"
     gridtolerance="10"
     guidetolerance="10"
     inkscape:pageopacity="0"
     inkscape:pageshadow="2"
     inkscape:window-width="1366"
     inkscape:window-height="717"
     id="namedview7"
     showgrid="false"
     inkscape:zoom="2.6074563"
     inkscape:cx="-29.893335"
     inkscape:cy="57.97882"
     inkscape:window-x="0"
     inkscape:window-y="24"
     inkscape:window-maximized="1"
     inkscape:current-layer="svg5" />
  <defs
     id="defs3051">
    <style
       type="text/css"
       id="current-color-scheme">
      .ColorScheme-Text {
        color:#4d4d4d;
      }
      </style>
  </defs>
  <g
     id="g846"
     transform="matrix(0.125,0,0,0.125,-1.7784555e-8,56)">
    <path
       style="fill:#3689e6;fill-opacity:1;stroke-width:11.10955906"
       inkscape:connector-curvature="0"
       d="m 432.91328,-391.52606 c 102.1929,88.5746 105.82676,249.69974 8.1168,359.898821 C 343.32007,78.571841 181.27963,96.100609 79.08674,7.526017 -23.106202,-81.04856 -26.740034,-242.17371 70.96994,-352.37278 c 97.70995,-110.19908 259.75039,-127.72786 361.94334,-39.15328 z"
       id="path27-5" />
    <path
       style="opacity:1;fill:#000000;fill-opacity:0.49019608;stroke-width:11.10955906"
       inkscape:connector-curvature="0"
       d="m 511.63551,-223.09648 c -1.55139,61.31161 -25.16123,124.15457 -70.96636,175.814441 C 342.95912,62.917073 180.91868,80.445801 78.725757,-8.128751 30.827125,-49.644358 4.4968199,-107.07719 0.19382791,-167.77119 0.79908392,-101.41455 27.117405,-37.517815 79.078688,7.519025 181.27157,96.093617 343.31973,78.556153 441.02203,-31.634231 490.72699,-87.69237 514.02704,-156.92523 511.63551,-223.09648 Z"
       id="path51-6" />
    <g
       aria-label="%"
       style="font-style:normal;font-weight:normal;font-size:40px;line-height:1.25;font-family:sans-serif;letter-spacing:0px;word-spacing:0px;fill:#000000;fill-opacity:0.49019608;stroke:none"
       id="g838"
       transform="matrix(9.554067,0,0,9.554067,-1053.3441,2334.7576)">
      <path
         d="m 130.68555,-266.96581 q -2.73438,0 -4.31641,-1.89454 -1.46484,-1.77734 -1.46484,-4.53125 0,-1.91406 1.99218,-3.65234 1.91407,-1.66016 3.84766,-1.66016 2.83203,0 4.51172,1.875 1.60156,1.81641 1.60156,4.66797 0,2.38282 -1.99219,3.84766 -1.77734,1.34766 -4.17968,1.34766 z m 15.44922,-8.33985 q -0.72266,1.17188 -1.54297,3.10547 l -1.38672,3.16406 -3.86719,8.30078 -4.375,9.21875 q -0.60547,1.50391 -1.97266,4.4336 -0.54687,1.03515 -1.46484,1.03515 -0.64453,0 -1.17187,-0.46875 -0.50782,-0.44921 -0.50782,-1.13281 0,-0.29297 0.11719,-0.64453 0.95703,-2.63672 3.08594,-6.89453 2.51953,-5.01953 3.28125,-6.81641 l 5.27344,-11.71875 q 1.05468,-2.59765 1.93359,-3.55468 0.60547,-0.66407 1.25,-0.66407 0.66406,0 1.17187,0.50782 0.52735,0.48828 0.52735,1.15234 0,0.42969 -0.35156,0.97656 z m 0.50781,29.04297 q -2.65625,0 -4.41406,-1.58203 -1.83594,-1.66016 -1.83594,-4.31641 0,-2.89062 1.64062,-4.78515 1.71875,-2.03125 4.57032,-2.03125 2.65625,0 4.64843,1.48437 2.20703,1.66016 2.20703,4.25781 0,2.98829 -1.91406,4.98047 -1.91406,1.99219 -4.90234,1.99219 z m -15.95703,-29.16016 q -0.89844,0 -1.67969,0.58594 -0.83984,0.64453 -0.83984,1.44531 0,1.5625 0.625,2.36329 0.64453,0.78125 1.89453,0.78125 1.05468,0 1.91406,-0.46875 0.97656,-0.54688 0.97656,-1.44532 0,-1.64062 -0.72265,-2.4414 -0.72266,-0.82032 -2.16797,-0.82032 z m 15.91797,19.72657 q -1.40625,0 -2.20704,1.05468 -0.72265,0.97657 -0.72265,2.48047 0,1.3086 0.83984,1.97266 0.85938,0.66406 2.5586,0.66406 1.5625,0 2.32421,-0.91797 0.78125,-0.9375 0.78125,-2.79297 0,-1.13281 -1.21093,-1.85546 -1.05469,-0.60547 -2.36328,-0.60547 z"
         style="font-style:normal;font-variant:normal;font-weight:normal;font-stretch:normal;font-family:'Comic Sans MS';-inkscape-font-specification:'Comic Sans MS';fill:#000000;fill-opacity:0.49019608"
         id="path836"
         inkscape:connector-curvature="0" />
    </g>
    <g
       transform="matrix(9.554067,0,0,9.554067,-1073.3441,2314.7576)"
       id="flowRoot825"
       style="font-style:normal;font-weight:normal;font-size:40px;line-height:1.25;font-family:sans-serif;letter-spacing:0px;word-spacing:0px;fill:#ffffff;fill-opacity:1;stroke:none"
       aria-label="%">
      <path
         inkscape:connector-curvature="0"
         id="path833"
         style="font-style:normal;font-variant:normal;font-weight:normal;font-stretch:normal;font-family:'Comic Sans MS';-inkscape-font-specification:'Comic Sans MS';fill:#ffffff"
         d="m 130.68555,-266.96581 q -2.73438,0 -4.31641,-1.89454 -1.46484,-1.77734 -1.46484,-4.53125 0,-1.91406 1.99218,-3.65234 1.91407,-1.66016 3.84766,-1.66016 2.83203,0 4.51172,1.875 1.60156,1.81641 1.60156,4.66797 0,2.38282 -1.99219,3.84766 -1.77734,1.34766 -4.17968,1.34766 z m 15.44922,-8.33985 q -0.72266,1.17188 -1.54297,3.10547 l -1.38672,3.16406 -3.86719,8.30078 -4.375,9.21875 q -0.60547,1.50391 -1.97266,4.4336 -0.54687,1.03515 -1.46484,1.03515 -0.64453,0 -1.17187,-0.46875 -0.50782,-0.44921 -0.50782,-1.13281 0,-0.29297 0.11719,-0.64453 0.95703,-2.63672 3.08594,-6.89453 2.51953,-5.01953 3.28125,-6.81641 l 5.27344,-11.71875 q 1.05468,-2.59765 1.93359,-3.55468 0.60547,-0.66407 1.25,-0.66407 0.66406,0 1.17187,0.50782 0.52735,0.48828 0.52735,1.15234 0,0.42969 -0.35156,0.97656 z m 0.50781,29.04297 q -2.65625,0 -4.41406,-1.58203 -1.83594,-1.66016 -1.83594,-4.31641 0,-2.89062 1.64062,-4.78515 1.71875,-2.03125 4.57032,-2.03125 2.65625,0 4.64843,1.48437 2.20703,1.66016 2.20703,4.25781 0,2.98829 -1.91406,4.98047 -1.91406,1.99219 -4.90234,1.99219 z m -15.95703,-29.16016 q -0.89844,0 -1.67969,0.58594 -0.83984,0.64453 -0.83984,1.44531 0,1.5625 0.625,2.36329 0.64453,0.78125 1.89453,0.78125 1.05468,0 1.91406,-0.46875 0.97656,-0.54688 0.97656,-1.44532 0,-1.64062 -0.72265,-2.4414 -0.72266,-0.82032 -2.16797,-0.82032 z m 15.91797,19.72657 q -1.40625,0 -2.20704,1.05468 -0.72265,0.97657 -0.72265,2.48047 0,1.3086 0.83984,1.97266 0.85938,0.66406 2.5586,0.66406 1.5625,0 2.32421,-0.91797 0.78125,-0.9375 0.78125,-2.79297 0,-1.13281 -1.21093,-1.85546 -1.05469,-0.60547 -2.36328,-0.60547 z" />
    </g>
  </g>
</svg>
