<?xml version="1.0" encoding="UTF-8" standalone="no"?>
<svg
   xmlns:dc="http://purl.org/dc/elements/1.1/"
   xmlns:cc="http://creativecommons.org/ns#"
   xmlns:rdf="http://www.w3.org/1999/02/22-rdf-syntax-ns#"
   xmlns:svg="http://www.w3.org/2000/svg"
   xmlns="http://www.w3.org/2000/svg"
   xmlns:sodipodi="http://sodipodi.sourceforge.net/DTD/sodipodi-0.dtd"
   xmlns:inkscape="http://www.inkscape.org/namespaces/inkscape"
   viewBox="0 0 64 64"
   version="1.1"
   id="svg78"
   sodipodi:docname="pixelart-trace.svg"
   width="64"
   height="64"
   inkscape:version="0.92.2 5c3e80d, 2017-08-06">
  <metadata
     id="metadata84">
    <rdf:RDF>
      <cc:Work
         rdf:about="">
        <dc:format>image/svg+xml</dc:format>
        <dc:type
           rdf:resource="http://purl.org/dc/dcmitype/StillImage" />
        <dc:title></dc:title>
      </cc:Work>
    </rdf:RDF>
  </metadata>
  <defs
     id="defs82" />
  <sodipodi:namedview
     pagecolor="#ffffff"
     bordercolor="#666666"
     borderopacity="1"
     objecttolerance="10"
     gridtolerance="10"
     guidetolerance="10"
     inkscape:pageopacity="0"
     inkscape:pageshadow="2"
     inkscape:window-width="1366"
     inkscape:window-height="717"
     id="namedview80"
     showgrid="false"
     inkscape:zoom="3.6875"
     inkscape:cx="64.441281"
     inkscape:cy="28.607037"
     inkscape:window-x="0"
     inkscape:window-y="24"
     inkscape:window-maximized="1"
     inkscape:current-layer="svg78" />
  <g
     id="g1034"
     transform="matrix(0.125,0,0,0.125,2.8323279e-7,56.000001)">
    <path
       id="path1148"
       d="m 432.9132,-391.52603 c 102.1931,88.57459 105.82677,249.69971 8.11688,359.898791 C 343.32022,78.571842 181.27977,96.100611 79.086636,7.5260214 -23.106121,-81.048569 -26.740136,-242.17368 70.970101,-352.37277 168.67996,-462.57185 330.72041,-480.10062 432.9132,-391.52603 Z"
       inkscape:connector-curvature="0"
       style="fill:#3689e6;fill-opacity:1;stroke-width:11.10955811" />
    <path
       id="path1150"
       d="m 511.63547,-223.09648 c -1.55116,61.31165 -25.16107,124.154607 -70.9663,175.814475 C 342.95931,62.917115 180.91883,80.445845 78.725691,-8.1287063 30.826982,-49.644361 4.4969029,-107.07715 0.19391075,-167.77119 0.79901312,-101.41451 27.117376,-37.517822 79.078699,7.5190671 181.27146,96.093619 343.31984,78.556195 441.02218,-31.634231 490.72712,-87.692336 514.02715,-156.92519 511.63547,-223.09648 Z"
       inkscape:connector-curvature="0"
       style="opacity:1;fill:#000000;fill-opacity:0.49019608;stroke-width:11.10955811" />
    <path
       id="rect987"
       d="m 120,-328 v 312 h 306.10352 c 1.98598,-1.933596 3.95401,-3.896547 5.89648,-5.898438 V -328 Z"
       style="opacity:1;fill:#000000;fill-opacity:0.49019608;stroke:none;stroke-width:25;stroke-miterlimit:4;stroke-dasharray:none;stroke-dashoffset:0;stroke-opacity:1"
       inkscape:connector-curvature="0" />
    <g
       id="g985">
      <path
         style="color:#000000;fill:#f37329;fill-opacity:1;stroke-width:26"
         inkscape:connector-curvature="0"
         id="path2"
         d="m 152,-296 h 52 v 52 h -52 z" />
      <path
         style="color:#000000;fill:#68b723;fill-opacity:1;stroke-width:26"
         inkscape:connector-curvature="0"
         id="path4"
         d="m 100,-192 h 52 v 52 h -52 z" />
      <path
         style="color:#000000;fill:#f9c440;fill-opacity:1;stroke-width:26"
         inkscape:connector-curvature="0"
         id="path6"
         d="m 308,-296 h 52 v 52 h -52 z" />
      <path
         style="color:#000000;fill:#3689e6;fill-opacity:1;stroke-width:26"
         inkscape:connector-curvature="0"
         id="path8"
         d="m 100,-296 h 52 v 52 h -52 z" />
      <path
         style="color:#000000;fill:#c6262e;fill-opacity:1;stroke-width:26"
         inkscape:connector-curvature="0"
         id="path10"
         d="m 256,-296 h 52 v 52 h -52 z" />
      <path
         style="color:#000000;fill:#68b723;fill-opacity:1;stroke-width:26"
         inkscape:connector-curvature="0"
         id="path12"
         d="m 204,-296 h 52 v 52 h -52 z" />
      <path
         style="color:#000000;fill:#f9c440;fill-opacity:1;stroke-width:26"
         inkscape:connector-curvature="0"
         id="path14"
         d="m 204,-244 h 52 v 52 h -52 z" />
      <path
         style="color:#000000;fill:#3689e6;fill-opacity:1;stroke-width:26"
         inkscape:connector-curvature="0"
         id="path16"
         d="m 152,-244 h 52 v 52 h -52 z" />
      <path
         style="color:#000000;fill:#c6262e;fill-opacity:1;stroke-width:26"
         inkscape:connector-curvature="0"
         id="path18"
         d="m 100,-244 h 52 v 52 h -52 z" />
      <path
         style="color:#000000;fill:#68b723;fill-opacity:1;stroke-width:26"
         inkscape:connector-curvature="0"
         id="path20"
         d="m 308,-244 h 52 v 52 h -52 z" />
      <path
         style="color:#000000;fill:#f37329;fill-opacity:1;stroke-width:26"
         inkscape:connector-curvature="0"
         id="path22"
         d="m 256,-244 h 52 v 52 h -52 z" />
      <path
         style="color:#000000;fill:#f9c440;fill-opacity:1;stroke-width:26"
         inkscape:connector-curvature="0"
         id="path24"
         d="m 308,-192 h 52 v 52 h -52 z" />
      <path
         style="color:#000000;fill:#3689e6;fill-opacity:1;stroke-width:26"
         inkscape:connector-curvature="0"
         id="path26"
         d="m 256,-192 h 52 v 52 h -52 z" />
      <path
         style="color:#000000;fill:#c6262e;fill-opacity:1;stroke-width:26"
         inkscape:connector-curvature="0"
         id="path28"
         d="m 204,-192 h 52 v 52 h -52 z" />
      <path
         style="color:#000000;fill:#f37329;fill-opacity:1;stroke-width:26"
         inkscape:connector-curvature="0"
         id="path30"
         d="m 152,-192 h 52 v 52 h -52 z" />
      <path
         style="color:#000000;fill:#f9c440;fill-opacity:1;stroke-width:26"
         inkscape:connector-curvature="0"
         id="path32"
         d="m 256,-140 h 52 v 52 h -52 z" />
      <path
         style="color:#000000;fill:#3689e6;fill-opacity:1;stroke-width:26"
         inkscape:connector-curvature="0"
         id="path34"
         d="m 204,-140 h 52 v 52 h -52 z" />
      <path
         style="color:#000000;fill:#c6262e;fill-opacity:1;stroke-width:26"
         inkscape:connector-curvature="0"
         id="path36"
         d="m 152,-140 h 52 v 52 h -52 z" />
      <path
         style="color:#000000;fill:#68b723;fill-opacity:1;stroke-width:26"
         inkscape:connector-curvature="0"
         id="path38"
         d="m 308,-140 h 52 v 52 h -52 z" />
      <path
         style="color:#000000;fill:#f9c440;fill-opacity:1;stroke-width:26"
         inkscape:connector-curvature="0"
         id="path40"
         d="m 152,-88 h 52 v 52 h -52 z" />
      <path
         style="color:#000000;fill:#3689e6;fill-opacity:1;stroke-width:26"
         inkscape:connector-curvature="0"
         id="path42"
         d="m 100,-88 h 52 v 52 h -52 z" />
      <path
         style="color:#000000;fill:#c6262e;fill-opacity:1;stroke-width:26"
         inkscape:connector-curvature="0"
         id="path44"
         d="m 360,-244 h 52 v 52 h -52 z" />
      <path
         style="color:#000000;fill:#3689e6;fill-opacity:1;stroke-width:26"
         inkscape:connector-curvature="0"
         id="path46"
         d="m 360,-192 h 52 v 52 h -52 z" />
      <path
         style="color:#000000;fill:#f37329;fill-opacity:1;stroke-width:26"
         inkscape:connector-curvature="0"
         id="path48"
         d="m 100,-140 h 52 v 52 h -52 z" />
      <path
         style="color:#000000;fill:#68b723;fill-opacity:1;stroke-width:26"
         inkscape:connector-curvature="0"
         id="path50"
         d="m 360,-296 h 52 v 52 h -52 z" />
      <path
         style="color:#000000;fill:#f9c440;fill-opacity:1;stroke-width:26"
         inkscape:connector-curvature="0"
         id="path52"
         d="m 100,-348 h 52 v 52 h -52 z" />
      <path
         style="color:#000000;fill:#3689e6;fill-opacity:1;stroke-width:26"
         inkscape:connector-curvature="0"
         id="path54"
         d="m 204,-348 h 52 v 52 h -52 z" />
      <path
         style="color:#000000;fill:#c6262e;fill-opacity:1;stroke-width:26"
         inkscape:connector-curvature="0"
         id="path56"
         d="m 152,-348 h 52 v 52 h -52 z" />
      <path
         style="color:#000000;fill:#68b723;fill-opacity:1;stroke-width:26"
         inkscape:connector-curvature="0"
         id="path58"
         d="m 308,-348 h 52 v 52 h -52 z" />
      <path
         style="color:#000000;fill:#f37329;fill-opacity:1;stroke-width:26"
         inkscape:connector-curvature="0"
         id="path60"
         d="m 360,-348 h 52 v 52 h -52 z" />
      <path
         style="color:#000000;fill:#f9c440;fill-opacity:1;stroke-width:26"
         inkscape:connector-curvature="0"
         id="path62"
         d="m 256,-348 h 52 v 52 h -52 z" />
      <path
         style="color:#000000;fill:#c6262e;fill-opacity:1;stroke-width:26"
         inkscape:connector-curvature="0"
         id="path64"
         d="m 360,-140 h 52 v 52 h -52 z" />
      <path
         style="color:#000000;fill:#f9c440;fill-opacity:1;stroke-width:26"
         inkscape:connector-curvature="0"
         id="path66"
         d="m 308,-88 h 52 v 52 h -52 z" />
      <path
         style="color:#000000;fill:#c6262e;fill-opacity:1;stroke-width:26"
         inkscape:connector-curvature="0"
         id="path68"
         d="m 256,-88 h 52 v 52 h -52 z" />
      <g
         style="color:#000000;fill:#68b723;fill-opacity:1"
         id="g74"
         transform="matrix(26,0,0,26,-10916.46,-14226.54)">
        <path
           inkscape:connector-curvature="0"
           id="path70"
           d="m 427.71,543.79 h 2 v 2 h -2 z"
           style="fill:#68b723;fill-opacity:1" />
        <path
           inkscape:connector-curvature="0"
           id="path72"
           d="m 433.71,543.79 h 2 v 2 h -2 z"
           style="fill:#68b723;fill-opacity:1" />
      </g>
    </g>
  </g>
</svg>
