<?xml version="1.0" encoding="UTF-8" standalone="no"?>
<svg
   xmlns:dc="http://purl.org/dc/elements/1.1/"
   xmlns:cc="http://creativecommons.org/ns#"
   xmlns:rdf="http://www.w3.org/1999/02/22-rdf-syntax-ns#"
   xmlns:svg="http://www.w3.org/2000/svg"
   xmlns="http://www.w3.org/2000/svg"
   xmlns:sodipodi="http://sodipodi.sourceforge.net/DTD/sodipodi-0.dtd"
   xmlns:inkscape="http://www.inkscape.org/namespaces/inkscape"
   viewBox="0 0 64 64"
   version="1.1"
   id="svg6"
   sodipodi:docname="plugins.svg"
   width="64"
   height="64"
   inkscape:version="0.92.2 5c3e80d, 2017-08-06">
  <metadata
     id="metadata10">
    <rdf:RDF>
      <cc:Work
         rdf:about="">
        <dc:format>image/svg+xml</dc:format>
        <dc:type
           rdf:resource="http://purl.org/dc/dcmitype/StillImage" />
        <dc:title></dc:title>
      </cc:Work>
    </rdf:RDF>
  </metadata>
  <sodipodi:namedview
     pagecolor="#ffffff"
     bordercolor="#666666"
     borderopacity="1"
     objecttolerance="10"
     gridtolerance="10"
     guidetolerance="10"
     inkscape:pageopacity="0"
     inkscape:pageshadow="2"
     inkscape:window-width="1366"
     inkscape:window-height="717"
     id="namedview8"
     showgrid="false"
     inkscape:zoom="1.7383042"
     inkscape:cx="64.745558"
     inkscape:cy="40.452007"
     inkscape:window-x="0"
     inkscape:window-y="24"
     inkscape:window-maximized="1"
     inkscape:current-layer="svg6" />
  <defs
     id="defs3051">
    <style
       type="text/css"
       id="current-color-scheme">
      .ColorScheme-Text {
        color:#4d4d4d;
      }
      </style>
  </defs>
  <g
     id="g841"
     transform="matrix(0.125,0,0,0.125,6.4134718e-8,56)">
    <path
       id="path850"
       d="m 432.91327,-391.52606 c 102.19291,88.57458 105.82678,249.69973 8.1168,359.898828 C 343.32006,78.571841 181.27962,96.100609 79.086741,7.526016 -23.106205,-81.04857 -26.740032,-242.17373 70.969941,-352.3728 168.67988,-462.57189 330.72032,-480.10065 432.91327,-391.52606 Z"
       inkscape:connector-curvature="0"
       style="fill:#3689e6;fill-opacity:1;stroke-width:11.10955906" />
    <path
       id="path852"
       d="m 511.63551,-223.09649 c -1.55139,61.31161 -25.16123,124.15457 -70.96638,175.814441 C 342.95912,62.917073 180.91867,80.445801 78.725757,-8.128744 30.827125,-49.64436 4.4968179,-107.0772 0.19382585,-167.77119 0.79907946,-101.41456 27.117405,-37.517825 79.078685,7.519016 181.27156,96.093609 343.31972,78.556153 441.02202,-31.634232 490.72697,-87.69238 514.02704,-156.92524 511.63551,-223.09649 Z"
       inkscape:connector-curvature="0"
       style="opacity:1;fill:#000000;fill-opacity:0.49019608;stroke-width:11.10955906" />
    <path
       style="fill:#000000;fill-opacity:0.49019608;stroke:none;stroke-width:1.17166722"
       d="m 120.6835,-148.59121 h 22.55421 c 0,0 10.15387,-18.35808 32.80607,-17.76994 22.65217,0.58816 31.47788,18.73656 31.43914,34.17305 -0.0387,15.43648 -12.34406,32.51599 -32.80604,33.14776 -20.46201,0.63187 -30.07226,-17.76998 -30.07226,-17.76998 H 120.6835 l -0.34176,86.115857 c 0,0 0.58403,6.740948 2.39216,9.226759 1.80811,2.485812 7.51801,4.784152 7.51801,4.784152 h 90.55848 v -21.870645 c 0,0 -17.03359,-9.781869 -17.42817,-29.730359 -0.39468,-19.948564 17.49883,-32.999414 32.80605,-33.489644 15.30721,-0.4901 33.03817,12.01334 34.17304,32.806224 1.13486,20.792755 -18.11168,31.097162 -18.11168,31.097162 V -16 l 92.60889,-1.025209 c 0,0 4.88207,-2.517908 6.49286,-5.125922 1.61077,-2.608139 2.0504,-9.910198 2.0504,-9.910198 v -84.748991 l 15.71953,-0.34166 c 0,0 8.53905,18.53402 29.7305,17.76998 21.19151,-0.76405 32.01872,-16.41283 32.80614,-32.12267 0.78741,-15.70983 -12.43387,-35.10481 -32.80614,-34.85647 -20.37228,0.24835 -29.7305,18.1117 -29.7305,18.1117 l -16.06129,-0.34177 v -89.875 l -4.10079,-7.51806 -6.83461,-3.41729 -89.53324,1.02518 0.34167,-16.06132 c 0,0 16.46964,-8.49622 17.42826,-28.70533 0.95862,-20.20911 -17.81706,-34.95605 -33.48955,-34.85647 -15.67257,0.0996 -33.26374,11.83478 -33.48954,32.46436 -0.2259,20.62959 17.76993,31.43917 17.76993,31.43917 v 15.37786 h -88.50809 l -8.54326,3.41729 -4.1008,9.22673 z"
       id="path835"
       inkscape:connector-curvature="0"
       sodipodi:nodetypes="cczzzccczccczzzccczccczzzccccccczzzcccccc" />
    <path
       sodipodi:nodetypes="cczzzccczccczzzccczccczzzccccccczzzcccccc"
       inkscape:connector-curvature="0"
       id="path3057"
       d="m 100.6835,-168.59121 h 22.55421 c 0,0 10.15387,-18.35808 32.80607,-17.76994 22.65217,0.58816 31.47788,18.73656 31.43914,34.17305 -0.0387,15.43648 -12.34406,32.51599 -32.80604,33.14776 -20.46201,0.63187 -30.07226,-17.76998 -30.07226,-17.76998 H 100.6835 l -0.34176,86.115857 c 0,0 0.58403,6.740948 2.39216,9.226759 1.80811,2.485812 7.51801,4.784152 7.51801,4.784152 h 90.55848 v -21.870645 c 0,0 -17.03359,-9.781869 -17.42817,-29.730359 -0.39468,-19.948564 17.49883,-32.999414 32.80605,-33.489644 15.30721,-0.4901 33.03817,12.01334 34.17304,32.806224 1.13486,20.792755 -18.11168,31.097162 -18.11168,31.097162 V -36 l 92.60889,-1.025209 c 0,0 4.88207,-2.517908 6.49286,-5.125922 1.61077,-2.608139 2.0504,-9.910198 2.0504,-9.910198 v -84.748991 l 15.71953,-0.34166 c 0,0 8.53905,18.53402 29.7305,17.76998 21.19151,-0.76405 32.01872,-16.41283 32.80614,-32.12267 0.78741,-15.70983 -12.43387,-35.10481 -32.80614,-34.85647 -20.37228,0.24835 -29.7305,18.1117 -29.7305,18.1117 l -16.06129,-0.34177 v -89.875 l -4.10079,-7.51806 -6.83461,-3.41729 -89.53324,1.02518 0.34167,-16.06132 c 0,0 16.46964,-8.49622 17.42826,-28.70533 0.95862,-20.20911 -17.81706,-34.95605 -33.48955,-34.85647 -15.67257,0.0996 -33.26374,11.83478 -33.48954,32.46436 -0.2259,20.62959 17.76993,31.43917 17.76993,31.43917 v 15.37786 h -88.50809 l -8.54326,3.41729 -4.1008,9.22673 z"
       style="fill:#ffffff;fill-opacity:1;stroke:none;stroke-width:1.17166722" />
  </g>
</svg>
