<?xml version="1.0" encoding="UTF-8" standalone="no"?>
<svg
   xmlns:dc="http://purl.org/dc/elements/1.1/"
   xmlns:cc="http://creativecommons.org/ns#"
   xmlns:rdf="http://www.w3.org/1999/02/22-rdf-syntax-ns#"
   xmlns:svg="http://www.w3.org/2000/svg"
   xmlns="http://www.w3.org/2000/svg"
   xmlns:sodipodi="http://sodipodi.sourceforge.net/DTD/sodipodi-0.dtd"
   xmlns:inkscape="http://www.inkscape.org/namespaces/inkscape"
   viewBox="0 0 64 64"
   version="1.1"
   id="svg6"
   sodipodi:docname="preflight-verifier.svg"
   width="64"
   height="64"
   inkscape:version="0.92.2 5c3e80d, 2017-08-06">
  <metadata
     id="metadata10">
    <rdf:RDF>
      <cc:Work
         rdf:about="">
        <dc:format>image/svg+xml</dc:format>
        <dc:type
           rdf:resource="http://purl.org/dc/dcmitype/StillImage" />
        <dc:title></dc:title>
      </cc:Work>
    </rdf:RDF>
  </metadata>
  <sodipodi:namedview
     pagecolor="#ffffff"
     bordercolor="#666666"
     borderopacity="1"
     objecttolerance="10"
     gridtolerance="10"
     guidetolerance="10"
     inkscape:pageopacity="0"
     inkscape:pageshadow="2"
     inkscape:window-width="1366"
     inkscape:window-height="717"
     id="namedview8"
     showgrid="false"
     inkscape:zoom="3.4766083"
     inkscape:cx="54.856822"
     inkscape:cy="11.000721"
     inkscape:window-x="0"
     inkscape:window-y="24"
     inkscape:window-maximized="1"
     inkscape:current-layer="svg6" />
  <defs
     id="defs3051">
    <style
       type="text/css"
       id="current-color-scheme">
      .ColorScheme-Text {
        color:#4d4d4d;
      }
      </style>
  </defs>
  <g
     id="g907"
     transform="matrix(0.125,0,0,0.125,1.0362683e-7,56.000003)">
    <path
       style="fill:#3689e6;fill-opacity:1;stroke-width:11.10955238"
       inkscape:connector-curvature="0"
       d="m 432.91337,-391.52601 c 102.1928,88.57459 105.82666,249.69971 8.11679,359.89879 C 343.3201,78.57182 181.27948,96.10062 79.086674,7.52604 -23.106167,-81.04855 -26.740027,-242.17367 70.969882,-352.37275 168.67976,-462.57183 330.7203,-480.1006 432.91337,-391.52601 Z"
       id="path911" />
    <path
       style="opacity:1;fill:#000000;fill-opacity:0.49019608;stroke-width:11.10955238"
       inkscape:connector-curvature="0"
       d="M 511.63501,-223.09646 C 510.08361,-161.7848 486.4738,-98.94186 440.6687,-47.28197 342.95883,62.91712 180.91853,80.44582 78.72572,-8.12871 30.827116,-49.64434 4.496841,-107.07715 0.19385162,-167.77119 0.79910241,-101.41451 27.117407,-37.51779 79.078624,7.51906 181.27144,96.09362 343.31942,78.55622 441.0216,-31.6342 c 49.70489,-56.05814 73.00495,-125.29097 70.61341,-191.46226 z"
       id="path913" />
    <g
       style="fill:#000000;fill-opacity:0.49019608"
       id="g897"
       transform="matrix(1.0161277,0,0,1.0161277,18.38723,18.437224)">
      <path
         id="path893"
         d="m 119.55859,-333.03906 c -10.83586,0 -19.55859,8.72273 -19.55859,19.55859 v 252.158204 c 0,10.83586 8.72273,19.558594 19.55859,19.558594 H 335.9668 c 10.83586,0 19.55859,-8.722734 19.55859,-19.558594 v -21.734375 c -1.8241,2.067354 -3.16401,3.597817 -5.08398,5.771485 -20.59998,23.321871 -22.25079,25.089561 -23.86914,25.539062 -1.92851,0.535694 -2.47723,0.513976 -4.00391,-0.154297 -1.424,-0.62315 -32.59566,-30.914648 -41.91406,-40.730468 -5.93695,-6.253841 -6.19855,-6.602818 -6.38086,-8.500001 -0.12356,-1.28723 0.0276,-2.40141 0.4375,-3.18945 0.72896,-1.40742 7.06455,-8.88187 11.55468,-13.63086 3.03382,-3.20876 3.15351,-3.28583 5.38282,-3.47071 2.155,-0.17879 2.39323,-0.10012 4.3457,1.45313 1.1362,0.90401 7.0734,6.52944 13.19336,12.5 6.11999,5.9706 11.50494,11.057509 11.9668,11.304688 1.92485,1.030141 3.04311,0.179896 10.29687,-7.841798 3.26735,-3.61331 13.53304,-15.17436 24.07422,-27.08789 v -182.38672 c 0,-10.83586 -8.72273,-19.55859 -19.55859,-19.55859 z m 36.38086,36.38086 h 51.83008 c 10.83585,0 19.56055,8.72274 19.56055,19.55859 v 51.83008 c 0,10.83585 -8.7247,19.56055 -19.56055,19.56055 h -51.83008 c -10.83585,0 -19.56054,-8.7247 -19.56054,-19.56055 v -51.83008 c 0,-10.83585 8.72469,-19.55859 19.56054,-19.55859 z m 98.67578,0 h 54.56836 c 5.03861,0 9.09571,4.05514 9.09571,9.09375 0,5.03861 -4.0571,9.0957 -9.09571,9.0957 h -54.56836 c -5.03861,0 -9.0957,-4.05709 -9.0957,-9.0957 0,-5.03861 4.05709,-9.09375 9.0957,-9.09375 z m 0,36.3789 h 54.56836 c 5.03861,0 9.09571,4.0571 9.09571,9.09571 0,5.0386 -4.0571,9.09375 -9.09571,9.09375 h -54.56836 c -5.0386,0 -9.0957,-4.05515 -9.0957,-9.09375 0,-5.03861 4.0571,-9.09571 9.0957,-9.09571 z m 0,36.38086 h 54.56836 c 5.03861,0 9.09571,4.05514 9.09571,9.09375 0,5.03861 -4.0571,9.09571 -9.09571,9.09571 h -54.56836 c -5.0386,0 -9.0957,-4.0571 -9.0957,-9.09571 0,-5.03861 4.0571,-9.09375 9.0957,-9.09375 z m -109.14062,36.37891 h 163.70898 c 5.03861,0 9.09571,4.05709 9.09571,9.0957 0,5.03861 -4.0571,9.09375 -9.09571,9.09375 H 145.47461 c -5.03861,0 -9.0957,-4.05514 -9.0957,-9.09375 0,-5.03861 4.05709,-9.0957 9.0957,-9.0957 z m 0,36.38086 h 109.14062 c 5.03861,0 9.09375,4.05514 9.09375,9.09375 0,5.03861 -4.05514,9.0957 -9.09375,9.0957 H 145.47461 c -5.03861,0 -9.0957,-4.05709 -9.0957,-9.0957 0,-5.03861 4.05709,-9.09375 9.0957,-9.09375 z m 0,36.3789 h 109.14062 c 5.03861,0 9.09375,4.0571 9.09375,9.09571 0,5.03861 -4.05514,9.093747 -9.09375,9.093748 H 145.47461 c -5.03861,0 -9.0957,-4.055138 -9.0957,-9.093748 0,-5.03861 4.05709,-9.09571 9.0957,-9.09571 z"
         style="opacity:1;fill:#000000;fill-opacity:0.49019608;stroke:none;stroke-width:25;stroke-miterlimit:4;stroke-dasharray:none;stroke-dashoffset:0;stroke-opacity:1"
         inkscape:connector-curvature="0" />
      <path
         id="path895"
         d="m 387.73047,-164.24219 c -1.3856,-0.006 -2.79156,0.32633 -3.49414,0.88086 -0.35271,0.27838 -10.79584,12.002 -23.20703,26.05274 -1.89793,2.14865 -3.60094,4.06412 -5.50391,6.21484 v 48.037109 c 32.28696,-36.592529 50.051,-57.078559 50.93555,-58.789059 0.5114,-0.99086 0.67612,-2.01173 0.54297,-3.39844 -0.23239,-2.41867 -1.59851,-4.08892 -10.39844,-12.70313 -4.83782,-4.73574 -6.31419,-5.94506 -7.52344,-6.17187 -0.4308,-0.0808 -0.8897,-0.12119 -1.35156,-0.12305 z"
         style="fill:#000000;fill-opacity:0.49019608;stroke-width:0.41539505"
         inkscape:connector-curvature="0" />
    </g>
    <g
       transform="matrix(1.0161277,0,0,1.0161277,-1.612771,-1.562776)"
       id="g891">
      <path
         inkscape:connector-curvature="0"
         style="opacity:1;fill:#ffffff;fill-opacity:1;stroke:none;stroke-width:25;stroke-miterlimit:4;stroke-dasharray:none;stroke-dashoffset:0;stroke-opacity:1"
         d="m 119.55859,-333.03906 c -10.83586,0 -19.55859,8.72273 -19.55859,19.55859 v 252.158204 c 0,10.83586 8.72273,19.558594 19.55859,19.558594 H 335.9668 c 10.83586,0 19.55859,-8.722734 19.55859,-19.558594 v -21.734375 c -1.8241,2.067354 -3.16401,3.597817 -5.08398,5.771485 -20.59998,23.321871 -22.25079,25.089561 -23.86914,25.539062 -1.92851,0.535694 -2.47723,0.513976 -4.00391,-0.154297 -1.424,-0.62315 -32.59566,-30.914648 -41.91406,-40.730468 -5.93695,-6.253841 -6.19855,-6.602818 -6.38086,-8.500001 -0.12356,-1.28723 0.0276,-2.40141 0.4375,-3.18945 0.72896,-1.40742 7.06455,-8.88187 11.55468,-13.63086 3.03382,-3.20876 3.15351,-3.28583 5.38282,-3.47071 2.155,-0.17879 2.39323,-0.10012 4.3457,1.45313 1.1362,0.90401 7.0734,6.52944 13.19336,12.5 6.11999,5.9706 11.50494,11.057509 11.9668,11.304688 1.92485,1.030141 3.04311,0.179896 10.29687,-7.841798 3.26735,-3.61331 13.53304,-15.17436 24.07422,-27.08789 v -182.38672 c 0,-10.83586 -8.72273,-19.55859 -19.55859,-19.55859 z m 36.38086,36.38086 h 51.83008 c 10.83585,0 19.56055,8.72274 19.56055,19.55859 v 51.83008 c 0,10.83585 -8.7247,19.56055 -19.56055,19.56055 h -51.83008 c -10.83585,0 -19.56054,-8.7247 -19.56054,-19.56055 v -51.83008 c 0,-10.83585 8.72469,-19.55859 19.56054,-19.55859 z m 98.67578,0 h 54.56836 c 5.03861,0 9.09571,4.05514 9.09571,9.09375 0,5.03861 -4.0571,9.0957 -9.09571,9.0957 h -54.56836 c -5.03861,0 -9.0957,-4.05709 -9.0957,-9.0957 0,-5.03861 4.05709,-9.09375 9.0957,-9.09375 z m 0,36.3789 h 54.56836 c 5.03861,0 9.09571,4.0571 9.09571,9.09571 0,5.0386 -4.0571,9.09375 -9.09571,9.09375 h -54.56836 c -5.0386,0 -9.0957,-4.05515 -9.0957,-9.09375 0,-5.03861 4.0571,-9.09571 9.0957,-9.09571 z m 0,36.38086 h 54.56836 c 5.03861,0 9.09571,4.05514 9.09571,9.09375 0,5.03861 -4.0571,9.09571 -9.09571,9.09571 h -54.56836 c -5.0386,0 -9.0957,-4.0571 -9.0957,-9.09571 0,-5.03861 4.0571,-9.09375 9.0957,-9.09375 z m -109.14062,36.37891 h 163.70898 c 5.03861,0 9.09571,4.05709 9.09571,9.0957 0,5.03861 -4.0571,9.09375 -9.09571,9.09375 H 145.47461 c -5.03861,0 -9.0957,-4.05514 -9.0957,-9.09375 0,-5.03861 4.05709,-9.0957 9.0957,-9.0957 z m 0,36.38086 h 109.14062 c 5.03861,0 9.09375,4.05514 9.09375,9.09375 0,5.03861 -4.05514,9.0957 -9.09375,9.0957 H 145.47461 c -5.03861,0 -9.0957,-4.05709 -9.0957,-9.0957 0,-5.03861 4.05709,-9.09375 9.0957,-9.09375 z m 0,36.3789 h 109.14062 c 5.03861,0 9.09375,4.0571 9.09375,9.09571 0,5.03861 -4.05514,9.093747 -9.09375,9.093748 H 145.47461 c -5.03861,0 -9.0957,-4.055138 -9.0957,-9.093748 0,-5.03861 4.05709,-9.09571 9.0957,-9.09571 z"
         id="rect853" />
      <path
         inkscape:connector-curvature="0"
         style="fill:#ffffff;stroke-width:0.41539505"
         d="m 387.73047,-164.24219 c -1.3856,-0.006 -2.79156,0.32633 -3.49414,0.88086 -0.35271,0.27838 -10.79584,12.002 -23.20703,26.05274 -1.89793,2.14865 -3.60094,4.06412 -5.50391,6.21484 v 48.037109 c 32.28696,-36.592529 50.051,-57.078559 50.93555,-58.789059 0.5114,-0.99086 0.67612,-2.01173 0.54297,-3.39844 -0.23239,-2.41867 -1.59851,-4.08892 -10.39844,-12.70313 -4.83782,-4.73574 -6.31419,-5.94506 -7.52344,-6.17187 -0.4308,-0.0808 -0.8897,-0.12119 -1.35156,-0.12305 z"
         id="path846" />
    </g>
  </g>
</svg>
