<?xml version="1.0" encoding="UTF-8" standalone="no"?>
<svg
   xmlns:dc="http://purl.org/dc/elements/1.1/"
   xmlns:cc="http://creativecommons.org/ns#"
   xmlns:rdf="http://www.w3.org/1999/02/22-rdf-syntax-ns#"
   xmlns:svg="http://www.w3.org/2000/svg"
   xmlns="http://www.w3.org/2000/svg"
   xmlns:sodipodi="http://sodipodi.sourceforge.net/DTD/sodipodi-0.dtd"
   xmlns:inkscape="http://www.inkscape.org/namespaces/inkscape"
   viewBox="0 0 64 64"
   version="1.1"
   id="svg6"
   sodipodi:docname="primarykey_constraint.svg"
   width="64"
   height="64"
   inkscape:version="0.92.2 5c3e80d, 2017-08-06">
  <metadata
     id="metadata10">
    <rdf:RDF>
      <cc:Work
         rdf:about="">
        <dc:format>image/svg+xml</dc:format>
        <dc:type
           rdf:resource="http://purl.org/dc/dcmitype/StillImage" />
        <dc:title></dc:title>
      </cc:Work>
    </rdf:RDF>
  </metadata>
  <sodipodi:namedview
     pagecolor="#ffffff"
     bordercolor="#666666"
     borderopacity="1"
     objecttolerance="10"
     gridtolerance="10"
     guidetolerance="10"
     inkscape:pageopacity="0"
     inkscape:pageshadow="2"
     inkscape:window-width="1366"
     inkscape:window-height="717"
     id="namedview8"
     showgrid="false"
     inkscape:zoom="1.84375"
     inkscape:cx="7.7669661"
     inkscape:cy="30.288902"
     inkscape:window-x="0"
     inkscape:window-y="24"
     inkscape:window-maximized="1"
     inkscape:current-layer="svg6" />
  <defs
     id="defs3051">
    <style
       type="text/css"
       id="current-color-scheme">
      .ColorScheme-Text {
        color:#4d4d4d;
      }
      </style>
  </defs>
  <g
     id="g874"
     transform="matrix(0.125,0,0,0.125,1.0362683e-7,56.000003)">
    <path
       style="fill:#3689e6;fill-opacity:1;stroke-width:11.10955238"
       inkscape:connector-curvature="0"
       d="m 432.91337,-391.52601 c 102.1928,88.57459 105.82666,249.69971 8.11679,359.89879 C 343.3201,78.57182 181.27948,96.10062 79.086674,7.52604 -23.106167,-81.04855 -26.740027,-242.17367 70.969882,-352.37275 168.67976,-462.57183 330.7203,-480.1006 432.91337,-391.52601 Z"
       id="path911" />
    <path
       style="opacity:1;fill:#000000;fill-opacity:0.49019608;stroke-width:11.10955238"
       inkscape:connector-curvature="0"
       d="M 511.63501,-223.09646 C 510.08361,-161.7848 486.4738,-98.94186 440.6687,-47.28197 342.95883,62.91712 180.91853,80.44582 78.72572,-8.12871 30.827116,-49.64434 4.496841,-107.07715 0.19385162,-167.77119 0.79910241,-101.41451 27.117407,-37.51779 79.078624,7.51906 181.27144,96.09362 343.31942,78.55622 441.0216,-31.6342 c 49.70489,-56.05814 73.00495,-125.29097 70.61341,-191.46226 z"
       id="path913" />
    <g
       aria-label="P"
       style="font-style:normal;font-weight:normal;font-size:40px;line-height:1.25;font-family:sans-serif;letter-spacing:0px;word-spacing:0px;fill:#000000;fill-opacity:0.49019608;stroke:none"
       id="g866"
       transform="matrix(10.015283,0,0,10.015283,-1399.1986,3020.0293)">
      <path
         d="m 164.54102,-315.07324 q -0.54688,0 -2.38282,-0.2539 -0.15625,2.94922 -0.15625,10.33203 0,0.78125 -0.50781,1.32812 -0.50781,0.52735 -1.26953,0.52735 -0.78125,0 -1.28906,-0.52735 -0.50782,-0.54687 -0.50782,-1.32812 v -5.74219 q 0,-2.87109 0.35157,-8.08594 0.39062,-5.64453 0.42968,-8.08593 v -2.69532 q 0,-1.93359 0.23438,-2.8125 0.44922,-1.71875 1.91406,-1.48437 0.625,-0.19531 1.77735,-0.29297 1.15234,-0.0977 2.83203,-0.0977 3.57422,0 6.69922,2.44141 3.4375,2.69531 3.4375,6.48438 0,4.84375 -3.67188,7.71484 -3.28125,2.57812 -7.89062,2.57812 z m 0.97656,-15.50781 q -0.85938,0 -1.54297,0.0391 -0.66406,0.0391 -1.13281,0.11719 l -0.0391,3.59375 -0.41015,7.77344 2.14844,0.25391 q 3.28125,0 5.52734,-1.66016 2.46094,-1.81641 2.46094,-4.90234 0,-2.1875 -2.34375,-3.76954 -2.16797,-1.44531 -4.66797,-1.44531 z"
         style="font-style:normal;font-variant:normal;font-weight:normal;font-stretch:normal;font-family:'Comic Sans MS';-inkscape-font-specification:'Comic Sans MS';fill:#000000;fill-opacity:0.49019608"
         id="path864"
         inkscape:connector-curvature="0" />
    </g>
    <g
       transform="matrix(10.015283,0,0,10.015283,-1419.1986,3000.0293)"
       id="flowRoot853"
       style="font-style:normal;font-weight:normal;font-size:40px;line-height:1.25;font-family:sans-serif;letter-spacing:0px;word-spacing:0px;fill:#ffffff;fill-opacity:1;stroke:none"
       aria-label="P">
      <path
         inkscape:connector-curvature="0"
         id="path861"
         style="font-style:normal;font-variant:normal;font-weight:normal;font-stretch:normal;font-family:'Comic Sans MS';-inkscape-font-specification:'Comic Sans MS';fill:#ffffff"
         d="m 164.54102,-315.07324 q -0.54688,0 -2.38282,-0.2539 -0.15625,2.94922 -0.15625,10.33203 0,0.78125 -0.50781,1.32812 -0.50781,0.52735 -1.26953,0.52735 -0.78125,0 -1.28906,-0.52735 -0.50782,-0.54687 -0.50782,-1.32812 v -5.74219 q 0,-2.87109 0.35157,-8.08594 0.39062,-5.64453 0.42968,-8.08593 v -2.69532 q 0,-1.93359 0.23438,-2.8125 0.44922,-1.71875 1.91406,-1.48437 0.625,-0.19531 1.77735,-0.29297 1.15234,-0.0977 2.83203,-0.0977 3.57422,0 6.69922,2.44141 3.4375,2.69531 3.4375,6.48438 0,4.84375 -3.67188,7.71484 -3.28125,2.57812 -7.89062,2.57812 z m 0.97656,-15.50781 q -0.85938,0 -1.54297,0.0391 -0.66406,0.0391 -1.13281,0.11719 l -0.0391,3.59375 -0.41015,7.77344 2.14844,0.25391 q 3.28125,0 5.52734,-1.66016 2.46094,-1.81641 2.46094,-4.90234 0,-2.1875 -2.34375,-3.76954 -2.16797,-1.44531 -4.66797,-1.44531 z" />
    </g>
  </g>
</svg>
