<?xml version="1.0" encoding="UTF-8" standalone="no"?>
<svg
   xmlns:dc="http://purl.org/dc/elements/1.1/"
   xmlns:cc="http://creativecommons.org/ns#"
   xmlns:rdf="http://www.w3.org/1999/02/22-rdf-syntax-ns#"
   xmlns:svg="http://www.w3.org/2000/svg"
   xmlns="http://www.w3.org/2000/svg"
   xmlns:sodipodi="http://sodipodi.sourceforge.net/DTD/sodipodi-0.dtd"
   xmlns:inkscape="http://www.inkscape.org/namespaces/inkscape"
   viewBox="0 0 64 64"
   version="1.1"
   id="svg6"
   sodipodi:docname="process-stop.svg"
   width="64"
   height="64"
   inkscape:version="0.92.2 5c3e80d, 2017-08-06">
  <metadata
     id="metadata10">
    <rdf:RDF>
      <cc:Work
         rdf:about="">
        <dc:format>image/svg+xml</dc:format>
        <dc:type
           rdf:resource="http://purl.org/dc/dcmitype/StillImage" />
        <dc:title></dc:title>
      </cc:Work>
    </rdf:RDF>
  </metadata>
  <sodipodi:namedview
     pagecolor="#ffffff"
     bordercolor="#666666"
     borderopacity="1"
     objecttolerance="10"
     gridtolerance="10"
     guidetolerance="10"
     inkscape:pageopacity="0"
     inkscape:pageshadow="2"
     inkscape:window-width="1366"
     inkscape:window-height="717"
     id="namedview8"
     showgrid="false"
     inkscape:zoom="3.4766083"
     inkscape:cx="-2.6999671"
     inkscape:cy="25.145426"
     inkscape:window-x="0"
     inkscape:window-y="24"
     inkscape:window-maximized="1"
     inkscape:current-layer="svg6" />
  <defs
     id="defs3051">
    <style
       type="text/css"
       id="current-color-scheme">
      .ColorScheme-NegativeText {
        color:#da4453;
      }
      </style>
  </defs>
  <g
     id="g890"
     transform="matrix(0.125,0,0,0.125,1.0362683e-7,56.000003)">
    <path
       style="fill:#c6262e;fill-opacity:1;stroke-width:11.10955238"
       inkscape:connector-curvature="0"
       d="m 432.91337,-391.52601 c 102.1928,88.57459 105.82666,249.69971 8.11679,359.89879 C 343.3201,78.57182 181.27948,96.10062 79.086674,7.52604 -23.106167,-81.04855 -26.740027,-242.17367 70.969882,-352.37275 168.67976,-462.57183 330.7203,-480.1006 432.91337,-391.52601 Z"
       id="path911" />
    <path
       style="opacity:1;fill:#000000;fill-opacity:0.49019608;stroke-width:11.10955238"
       inkscape:connector-curvature="0"
       d="M 511.63501,-223.09646 C 510.08361,-161.7848 486.4738,-98.94186 440.6687,-47.28197 342.95883,62.91712 180.91853,80.44582 78.72572,-8.12871 30.827116,-49.64434 4.496841,-107.07715 0.19385162,-167.77119 0.79910241,-101.41451 27.117407,-37.51779 79.078624,7.51906 181.27144,96.09362 343.31942,78.55622 441.0216,-31.6342 c 49.70489,-56.05814 73.00495,-125.29097 70.61341,-191.46226 z"
       id="path913" />
    <g
       style="fill:#000000;fill-opacity:0.49019608"
       transform="translate(20.188028,18.850474)"
       id="g878">
      <rect
         ry="15.457627"
         y="-211.53809"
         x="187.75"
         height="39"
         width="136.5"
         id="rect872"
         style="opacity:1;fill:#000000;fill-opacity:0.49019608;stroke:none;stroke-width:25;stroke-miterlimit:4;stroke-dasharray:none;stroke-dashoffset:0;stroke-opacity:1" />
      <path
         inkscape:connector-curvature="0"
         id="path874"
         d="m 134.09766,-274.96484 a 20.002,20.002 0 0 0 -17.11328,11.09375 c 0,0 -13.84099,26.75715 -16.68946,62.96679 -2.848471,36.20965 6.08046,84.58485 48.97656,123.511722 42.28992,38.376777 88.36137,45.395332 122.15625,41.654297 33.79489,-3.741036 57.51954,-17.84375 57.51954,-17.84375 a 20.002,20.002 0 1 0 -20.43946,-34.38086 c 0,0 -16.27303,9.676378 -41.48047,12.466797 -25.20743,2.79042 -57.14281,-0.906672 -90.875,-31.517576 -33.12599,-30.06081 -38.16782,-62.9484 -35.98046,-90.75391 2.18735,-27.80551 12.38867,-47.8164 12.38867,-47.8164 a 20.002,20.002 0 0 0 -18.46289,-29.38086 z"
         style="color:#000000;font-style:normal;font-variant:normal;font-weight:normal;font-stretch:normal;font-size:medium;line-height:normal;font-family:sans-serif;font-variant-ligatures:normal;font-variant-position:normal;font-variant-caps:normal;font-variant-numeric:normal;font-variant-alternates:normal;font-feature-settings:normal;text-indent:0;text-align:start;text-decoration:none;text-decoration-line:none;text-decoration-style:solid;text-decoration-color:#000000;letter-spacing:normal;word-spacing:normal;text-transform:none;writing-mode:lr-tb;direction:ltr;text-orientation:mixed;dominant-baseline:auto;baseline-shift:baseline;text-anchor:start;white-space:normal;shape-padding:0;clip-rule:nonzero;display:inline;overflow:visible;visibility:visible;opacity:1;isolation:auto;mix-blend-mode:normal;color-interpolation:sRGB;color-interpolation-filters:linearRGB;solid-color:#000000;solid-opacity:1;vector-effect:none;fill:#000000;fill-opacity:0.49019608;fill-rule:nonzero;stroke:none;stroke-width:40;stroke-linecap:round;stroke-linejoin:miter;stroke-miterlimit:4;stroke-dasharray:none;stroke-dashoffset:0;stroke-opacity:1;color-rendering:auto;image-rendering:auto;shape-rendering:auto;text-rendering:auto;enable-background:accumulate" />
      <path
         style="color:#000000;font-style:normal;font-variant:normal;font-weight:normal;font-stretch:normal;font-size:medium;line-height:normal;font-family:sans-serif;font-variant-ligatures:normal;font-variant-position:normal;font-variant-caps:normal;font-variant-numeric:normal;font-variant-alternates:normal;font-feature-settings:normal;text-indent:0;text-align:start;text-decoration:none;text-decoration-line:none;text-decoration-style:solid;text-decoration-color:#000000;letter-spacing:normal;word-spacing:normal;text-transform:none;writing-mode:lr-tb;direction:ltr;text-orientation:mixed;dominant-baseline:auto;baseline-shift:baseline;text-anchor:start;white-space:normal;shape-padding:0;clip-rule:nonzero;display:inline;overflow:visible;visibility:visible;opacity:1;isolation:auto;mix-blend-mode:normal;color-interpolation:sRGB;color-interpolation-filters:linearRGB;solid-color:#000000;solid-opacity:1;vector-effect:none;fill:#000000;fill-opacity:0.49019608;fill-rule:nonzero;stroke:none;stroke-width:40;stroke-linecap:round;stroke-linejoin:miter;stroke-miterlimit:4;stroke-dasharray:none;stroke-dashoffset:0;stroke-opacity:1;color-rendering:auto;image-rendering:auto;shape-rendering:auto;text-rendering:auto;enable-background:accumulate"
         d="m 378.54925,-110.32665 a 20.002,20.002 0 0 0 17.11328,-11.09375 c 0,0 13.84099,-26.75715 16.68946,-62.96678 2.84847,-36.20965 -6.08046,-84.58485 -48.97656,-123.51172 -42.28992,-38.37678 -88.36137,-45.39534 -122.15625,-41.6543 -33.79489,3.74103 -57.51954,17.84375 -57.51954,17.84375 a 20.002,20.002 0 1 0 20.43946,34.38086 c 0,0 16.27303,-9.67638 41.48047,-12.4668 25.20743,-2.79042 57.14281,0.90667 90.875,31.51758 33.12599,30.06081 38.16782,62.9484 35.98046,90.75391 -2.18735,27.8055 -12.38867,47.81639 -12.38867,47.81639 a 20.002,20.002 0 0 0 18.46289,29.38086 z"
         id="path876"
         inkscape:connector-curvature="0" />
    </g>
    <g
       transform="translate(0.1880276,-1.1495256)"
       id="g870">
      <rect
         style="opacity:1;fill:#ffffff;fill-opacity:1;stroke:none;stroke-width:25;stroke-miterlimit:4;stroke-dasharray:none;stroke-dashoffset:0;stroke-opacity:1"
         id="rect853"
         width="136.5"
         height="39"
         x="187.75"
         y="-211.53809"
         ry="15.457627" />
      <path
         style="color:#000000;font-style:normal;font-variant:normal;font-weight:normal;font-stretch:normal;font-size:medium;line-height:normal;font-family:sans-serif;font-variant-ligatures:normal;font-variant-position:normal;font-variant-caps:normal;font-variant-numeric:normal;font-variant-alternates:normal;font-feature-settings:normal;text-indent:0;text-align:start;text-decoration:none;text-decoration-line:none;text-decoration-style:solid;text-decoration-color:#000000;letter-spacing:normal;word-spacing:normal;text-transform:none;writing-mode:lr-tb;direction:ltr;text-orientation:mixed;dominant-baseline:auto;baseline-shift:baseline;text-anchor:start;white-space:normal;shape-padding:0;clip-rule:nonzero;display:inline;overflow:visible;visibility:visible;opacity:1;isolation:auto;mix-blend-mode:normal;color-interpolation:sRGB;color-interpolation-filters:linearRGB;solid-color:#000000;solid-opacity:1;vector-effect:none;fill:#ffffff;fill-opacity:1;fill-rule:nonzero;stroke:none;stroke-width:40;stroke-linecap:round;stroke-linejoin:miter;stroke-miterlimit:4;stroke-dasharray:none;stroke-dashoffset:0;stroke-opacity:1;color-rendering:auto;image-rendering:auto;shape-rendering:auto;text-rendering:auto;enable-background:accumulate"
         d="m 134.09766,-274.96484 a 20.002,20.002 0 0 0 -17.11328,11.09375 c 0,0 -13.84099,26.75715 -16.68946,62.96679 -2.848471,36.20965 6.08046,84.58485 48.97656,123.511722 42.28992,38.376777 88.36137,45.395332 122.15625,41.654297 33.79489,-3.741036 57.51954,-17.84375 57.51954,-17.84375 a 20.002,20.002 0 1 0 -20.43946,-34.38086 c 0,0 -16.27303,9.676378 -41.48047,12.466797 -25.20743,2.79042 -57.14281,-0.906672 -90.875,-31.517576 -33.12599,-30.06081 -38.16782,-62.9484 -35.98046,-90.75391 2.18735,-27.80551 12.38867,-47.8164 12.38867,-47.8164 a 20.002,20.002 0 0 0 -18.46289,-29.38086 z"
         id="path861"
         inkscape:connector-curvature="0" />
      <path
         inkscape:connector-curvature="0"
         id="path865"
         d="m 378.54925,-110.32665 a 20.002,20.002 0 0 0 17.11328,-11.09375 c 0,0 13.84099,-26.75715 16.68946,-62.96678 2.84847,-36.20965 -6.08046,-84.58485 -48.97656,-123.51172 -42.28992,-38.37678 -88.36137,-45.39534 -122.15625,-41.6543 -33.79489,3.74103 -57.51954,17.84375 -57.51954,17.84375 a 20.002,20.002 0 1 0 20.43946,34.38086 c 0,0 16.27303,-9.67638 41.48047,-12.4668 25.20743,-2.79042 57.14281,0.90667 90.875,31.51758 33.12599,30.06081 38.16782,62.9484 35.98046,90.75391 -2.18735,27.8055 -12.38867,47.81639 -12.38867,47.81639 a 20.002,20.002 0 0 0 18.46289,29.38086 z"
         style="color:#000000;font-style:normal;font-variant:normal;font-weight:normal;font-stretch:normal;font-size:medium;line-height:normal;font-family:sans-serif;font-variant-ligatures:normal;font-variant-position:normal;font-variant-caps:normal;font-variant-numeric:normal;font-variant-alternates:normal;font-feature-settings:normal;text-indent:0;text-align:start;text-decoration:none;text-decoration-line:none;text-decoration-style:solid;text-decoration-color:#000000;letter-spacing:normal;word-spacing:normal;text-transform:none;writing-mode:lr-tb;direction:ltr;text-orientation:mixed;dominant-baseline:auto;baseline-shift:baseline;text-anchor:start;white-space:normal;shape-padding:0;clip-rule:nonzero;display:inline;overflow:visible;visibility:visible;opacity:1;isolation:auto;mix-blend-mode:normal;color-interpolation:sRGB;color-interpolation-filters:linearRGB;solid-color:#000000;solid-opacity:1;vector-effect:none;fill:#ffffff;fill-opacity:1;fill-rule:nonzero;stroke:none;stroke-width:40;stroke-linecap:round;stroke-linejoin:miter;stroke-miterlimit:4;stroke-dasharray:none;stroke-dashoffset:0;stroke-opacity:1;color-rendering:auto;image-rendering:auto;shape-rendering:auto;text-rendering:auto;enable-background:accumulate" />
    </g>
  </g>
</svg>
