<?xml version="1.0" encoding="UTF-8" standalone="no"?>
<svg
   xmlns:dc="http://purl.org/dc/elements/1.1/"
   xmlns:cc="http://creativecommons.org/ns#"
   xmlns:rdf="http://www.w3.org/1999/02/22-rdf-syntax-ns#"
   xmlns:svg="http://www.w3.org/2000/svg"
   xmlns="http://www.w3.org/2000/svg"
   xmlns:sodipodi="http://sodipodi.sourceforge.net/DTD/sodipodi-0.dtd"
   xmlns:inkscape="http://www.inkscape.org/namespaces/inkscape"
   viewBox="0 0 64 64"
   version="1.1"
   id="svg6"
   sodipodi:docname="retweet.svg"
   width="64"
   height="64"
   inkscape:version="0.92.2 5c3e80d, 2017-08-06">
  <metadata
     id="metadata10">
    <rdf:RDF>
      <cc:Work
         rdf:about="">
        <dc:format>image/svg+xml</dc:format>
        <dc:type
           rdf:resource="http://purl.org/dc/dcmitype/StillImage" />
        <dc:title></dc:title>
      </cc:Work>
    </rdf:RDF>
  </metadata>
  <sodipodi:namedview
     pagecolor="#ffffff"
     bordercolor="#666666"
     borderopacity="1"
     objecttolerance="10"
     gridtolerance="10"
     guidetolerance="10"
     inkscape:pageopacity="0"
     inkscape:pageshadow="2"
     inkscape:window-width="1366"
     inkscape:window-height="717"
     id="namedview8"
     showgrid="false"
     inkscape:zoom="5.2149125"
     inkscape:cx="28.446485"
     inkscape:cy="33.083967"
     inkscape:window-x="0"
     inkscape:window-y="24"
     inkscape:window-maximized="1"
     inkscape:current-layer="svg6" />
  <defs
     id="defs3051">
    <style
       type="text/css"
       id="current-color-scheme">
      .ColorScheme-Text {
        color:#4d4d4d;
      }
      </style>
  </defs>
  <g
     id="g934"
     transform="matrix(0.125,0,0,0.125,-1.576692e-8,56)">
    <path
       style="fill:#3689e6;fill-opacity:1;stroke-width:11.10955811"
       inkscape:connector-curvature="0"
       d="m 432.91327,-391.52603 c 102.19291,88.57459 105.82678,249.69971 8.1168,359.898791 C 343.3201,78.571841 181.27964,96.100609 79.086729,7.5260171 -23.106186,-81.048567 -26.740042,-242.17369 70.969928,-352.37277 168.6799,-462.57185 330.72036,-480.10062 432.91327,-391.52603 Z"
       id="path27" />
    <path
       style="opacity:1;fill:#000000;fill-opacity:0.49019608;stroke-width:11.10955811"
       inkscape:connector-curvature="0"
       d="m 511.63551,-223.09648 c -1.55139,61.31164 -25.16123,124.154601 -70.96638,175.814473 C 342.95915,62.917113 180.91869,80.445841 78.725776,-8.1287029 30.827124,-49.644359 4.4968223,-107.07716 0.1938283,-167.77119 0.79907934,-101.41452 27.117412,-37.517815 79.078683,7.5190571 181.27159,96.093617 343.31975,78.556193 441.02202,-31.634223 490.72697,-87.692335 514.02704,-156.9252 511.63551,-223.09648 Z"
       id="path51" />
    <path
       inkscape:connector-curvature="0"
       style="color:#000000;font-style:normal;font-variant:normal;font-weight:normal;font-stretch:normal;font-size:medium;line-height:normal;font-family:sans-serif;font-variant-ligatures:normal;font-variant-position:normal;font-variant-caps:normal;font-variant-numeric:normal;font-variant-alternates:normal;font-feature-settings:normal;text-indent:0;text-align:start;text-decoration:none;text-decoration-line:none;text-decoration-style:solid;text-decoration-color:#000000;letter-spacing:normal;word-spacing:normal;text-transform:none;writing-mode:lr-tb;direction:ltr;text-orientation:mixed;dominant-baseline:auto;baseline-shift:baseline;text-anchor:start;white-space:normal;shape-padding:0;clip-rule:nonzero;display:inline;overflow:visible;visibility:visible;opacity:1;isolation:auto;mix-blend-mode:normal;color-interpolation:sRGB;color-interpolation-filters:linearRGB;solid-color:#000000;solid-opacity:1;vector-effect:none;fill:#000000;fill-opacity:0.49019608;fill-rule:nonzero;stroke:none;stroke-width:30;stroke-linecap:round;stroke-linejoin:miter;stroke-miterlimit:4;stroke-dasharray:none;stroke-dashoffset:0;stroke-opacity:1;color-rendering:auto;image-rendering:auto;shape-rendering:auto;text-rendering:auto;enable-background:accumulate"
       d="m 248.14413,-326.38119 c -15.20735,-0.0267 -25.41601,2.00976 -25.41601,2.00976 a 15.0015,15.0015 0 1 0 5.3418,29.51953 c 0,0 58.85872,-9.29667 91.92382,25.45899 15.89601,16.70873 22.98416,44.98073 24.94336,69.57617 0.94912,11.91503 0.81155,22.59534 0.42383,30.50195 l 14.52149,15.9336 15.43945,-14.61524 c 0.43489,-9.00135 0.57305,-20.9775 -0.48047,-34.20312 -2.23221,-28.02268 -9.26938,-62.81016 -33.11133,-87.8711 -29.00674,-30.4898 -68.24034,-36.26609 -93.58594,-36.31054 z"
       id="path878" />
    <path
       style="color:#000000;font-style:normal;font-variant:normal;font-weight:normal;font-stretch:normal;font-size:medium;line-height:normal;font-family:sans-serif;font-variant-ligatures:normal;font-variant-position:normal;font-variant-caps:normal;font-variant-numeric:normal;font-variant-alternates:normal;font-feature-settings:normal;text-indent:0;text-align:start;text-decoration:none;text-decoration-line:none;text-decoration-style:solid;text-decoration-color:#000000;letter-spacing:normal;word-spacing:normal;text-transform:none;writing-mode:lr-tb;direction:ltr;text-orientation:mixed;dominant-baseline:auto;baseline-shift:baseline;text-anchor:start;white-space:normal;shape-padding:0;clip-rule:nonzero;display:inline;overflow:visible;visibility:visible;opacity:1;isolation:auto;mix-blend-mode:normal;color-interpolation:sRGB;color-interpolation-filters:linearRGB;solid-color:#000000;solid-opacity:1;vector-effect:none;fill:#000000;fill-opacity:0.49019608;fill-rule:nonzero;stroke:none;stroke-width:30;stroke-linecap:round;stroke-linejoin:round;stroke-miterlimit:4;stroke-dasharray:none;stroke-dashoffset:0;stroke-opacity:1;color-rendering:auto;image-rendering:auto;shape-rendering:auto;text-rendering:auto;enable-background:accumulate"
       d="m 304.41171,-207.71518 a 15.0015,15.0015 0 0 0 -11.63086,25.2461 l 55.22657,60.5957 a 15.0015,15.0015 0 0 0 21.39843,0.78906 l 57.52735,-54.45898 a 15.0015,15.0015 0 1 0 -20.625,-21.78711 l -46.42578,43.94922 -44.92969,-49.29688 a 15.0015,15.0015 0 0 0 -10.54102,-5.03711 z"
       id="path880"
       inkscape:connector-curvature="0" />
    <path
       inkscape:connector-curvature="0"
       id="path886"
       d="m 303.59916,-21.00025 c 15.20735,0.0267 25.41601,-2.00976 25.41601,-2.00976 a 15.0015,15.0015 0 1 0 -5.3418,-29.51953 c 0,0 -58.85872,9.29667 -91.92382,-25.45899 -15.89601,-16.70873 -22.98416,-44.98073 -24.94336,-69.57617 -0.94912,-11.91503 -0.81155,-22.59534 -0.42383,-30.50195 l -14.52149,-15.9336 -15.43945,14.61524 c -0.43489,9.00135 -0.57305,20.9775 0.48047,34.20312 2.23221,28.02268 9.26938,62.81016 33.11133,87.8711 29.00674,30.4898 68.24034,36.26609 93.58594,36.31054 z"
       style="color:#000000;font-style:normal;font-variant:normal;font-weight:normal;font-stretch:normal;font-size:medium;line-height:normal;font-family:sans-serif;font-variant-ligatures:normal;font-variant-position:normal;font-variant-caps:normal;font-variant-numeric:normal;font-variant-alternates:normal;font-feature-settings:normal;text-indent:0;text-align:start;text-decoration:none;text-decoration-line:none;text-decoration-style:solid;text-decoration-color:#000000;letter-spacing:normal;word-spacing:normal;text-transform:none;writing-mode:lr-tb;direction:ltr;text-orientation:mixed;dominant-baseline:auto;baseline-shift:baseline;text-anchor:start;white-space:normal;shape-padding:0;clip-rule:nonzero;display:inline;overflow:visible;visibility:visible;opacity:1;isolation:auto;mix-blend-mode:normal;color-interpolation:sRGB;color-interpolation-filters:linearRGB;solid-color:#000000;solid-opacity:1;vector-effect:none;fill:#000000;fill-opacity:0.49019608;fill-rule:nonzero;stroke:none;stroke-width:30;stroke-linecap:round;stroke-linejoin:miter;stroke-miterlimit:4;stroke-dasharray:none;stroke-dashoffset:0;stroke-opacity:1;color-rendering:auto;image-rendering:auto;shape-rendering:auto;text-rendering:auto;enable-background:accumulate" />
    <path
       inkscape:connector-curvature="0"
       id="path888"
       d="m 247.33158,-139.66626 a 15.0015,15.0015 0 0 0 11.63086,-25.2461 l -55.22657,-60.5957 a 15.0015,15.0015 0 0 0 -21.39843,-0.78906 l -57.52735,54.45898 a 15.0015,15.0015 0 1 0 20.625,21.78711 l 46.42578,-43.94922 44.92969,49.29688 a 15.0015,15.0015 0 0 0 10.54102,5.03711 z"
       style="color:#000000;font-style:normal;font-variant:normal;font-weight:normal;font-stretch:normal;font-size:medium;line-height:normal;font-family:sans-serif;font-variant-ligatures:normal;font-variant-position:normal;font-variant-caps:normal;font-variant-numeric:normal;font-variant-alternates:normal;font-feature-settings:normal;text-indent:0;text-align:start;text-decoration:none;text-decoration-line:none;text-decoration-style:solid;text-decoration-color:#000000;letter-spacing:normal;word-spacing:normal;text-transform:none;writing-mode:lr-tb;direction:ltr;text-orientation:mixed;dominant-baseline:auto;baseline-shift:baseline;text-anchor:start;white-space:normal;shape-padding:0;clip-rule:nonzero;display:inline;overflow:visible;visibility:visible;opacity:1;isolation:auto;mix-blend-mode:normal;color-interpolation:sRGB;color-interpolation-filters:linearRGB;solid-color:#000000;solid-opacity:1;vector-effect:none;fill:#000000;fill-opacity:0.49019608;fill-rule:nonzero;stroke:none;stroke-width:30;stroke-linecap:round;stroke-linejoin:round;stroke-miterlimit:4;stroke-dasharray:none;stroke-dashoffset:0;stroke-opacity:1;color-rendering:auto;image-rendering:auto;shape-rendering:auto;text-rendering:auto;enable-background:accumulate" />
    <path
       id="path835"
       d="m 228.14413,-346.38119 c -15.20735,-0.0267 -25.41601,2.00976 -25.41601,2.00976 a 15.0015,15.0015 0 1 0 5.3418,29.51953 c 0,0 58.85872,-9.29667 91.92382,25.45899 15.89601,16.70873 22.98416,44.98073 24.94336,69.57617 0.94912,11.91503 0.81155,22.59534 0.42383,30.50195 l 14.52149,15.9336 15.43945,-14.61524 c 0.43489,-9.00135 0.57305,-20.9775 -0.48047,-34.20312 -2.23221,-28.02268 -9.26938,-62.81016 -33.11133,-87.8711 -29.00674,-30.4898 -68.24034,-36.26609 -93.58594,-36.31054 z"
       style="color:#000000;font-style:normal;font-variant:normal;font-weight:normal;font-stretch:normal;font-size:medium;line-height:normal;font-family:sans-serif;font-variant-ligatures:normal;font-variant-position:normal;font-variant-caps:normal;font-variant-numeric:normal;font-variant-alternates:normal;font-feature-settings:normal;text-indent:0;text-align:start;text-decoration:none;text-decoration-line:none;text-decoration-style:solid;text-decoration-color:#000000;letter-spacing:normal;word-spacing:normal;text-transform:none;writing-mode:lr-tb;direction:ltr;text-orientation:mixed;dominant-baseline:auto;baseline-shift:baseline;text-anchor:start;white-space:normal;shape-padding:0;clip-rule:nonzero;display:inline;overflow:visible;visibility:visible;opacity:1;isolation:auto;mix-blend-mode:normal;color-interpolation:sRGB;color-interpolation-filters:linearRGB;solid-color:#000000;solid-opacity:1;vector-effect:none;fill:#ffffff;fill-opacity:1;fill-rule:nonzero;stroke:none;stroke-width:30;stroke-linecap:round;stroke-linejoin:miter;stroke-miterlimit:4;stroke-dasharray:none;stroke-dashoffset:0;stroke-opacity:1;color-rendering:auto;image-rendering:auto;shape-rendering:auto;text-rendering:auto;enable-background:accumulate"
       inkscape:connector-curvature="0" />
    <path
       inkscape:connector-curvature="0"
       id="path843"
       d="m 284.41171,-227.71518 a 15.0015,15.0015 0 0 0 -11.63086,25.2461 l 55.22657,60.5957 a 15.0015,15.0015 0 0 0 21.39843,0.78906 l 57.52735,-54.45898 a 15.0015,15.0015 0 1 0 -20.625,-21.78711 l -46.42578,43.94922 -44.92969,-49.29688 a 15.0015,15.0015 0 0 0 -10.54102,-5.03711 z"
       style="color:#000000;font-style:normal;font-variant:normal;font-weight:normal;font-stretch:normal;font-size:medium;line-height:normal;font-family:sans-serif;font-variant-ligatures:normal;font-variant-position:normal;font-variant-caps:normal;font-variant-numeric:normal;font-variant-alternates:normal;font-feature-settings:normal;text-indent:0;text-align:start;text-decoration:none;text-decoration-line:none;text-decoration-style:solid;text-decoration-color:#000000;letter-spacing:normal;word-spacing:normal;text-transform:none;writing-mode:lr-tb;direction:ltr;text-orientation:mixed;dominant-baseline:auto;baseline-shift:baseline;text-anchor:start;white-space:normal;shape-padding:0;clip-rule:nonzero;display:inline;overflow:visible;visibility:visible;opacity:1;isolation:auto;mix-blend-mode:normal;color-interpolation:sRGB;color-interpolation-filters:linearRGB;solid-color:#000000;solid-opacity:1;vector-effect:none;fill:#ffffff;fill-opacity:1;fill-rule:nonzero;stroke:none;stroke-width:30;stroke-linecap:round;stroke-linejoin:round;stroke-miterlimit:4;stroke-dasharray:none;stroke-dashoffset:0;stroke-opacity:1;color-rendering:auto;image-rendering:auto;shape-rendering:auto;text-rendering:auto;enable-background:accumulate" />
    <path
       style="color:#000000;font-style:normal;font-variant:normal;font-weight:normal;font-stretch:normal;font-size:medium;line-height:normal;font-family:sans-serif;font-variant-ligatures:normal;font-variant-position:normal;font-variant-caps:normal;font-variant-numeric:normal;font-variant-alternates:normal;font-feature-settings:normal;text-indent:0;text-align:start;text-decoration:none;text-decoration-line:none;text-decoration-style:solid;text-decoration-color:#000000;letter-spacing:normal;word-spacing:normal;text-transform:none;writing-mode:lr-tb;direction:ltr;text-orientation:mixed;dominant-baseline:auto;baseline-shift:baseline;text-anchor:start;white-space:normal;shape-padding:0;clip-rule:nonzero;display:inline;overflow:visible;visibility:visible;opacity:1;isolation:auto;mix-blend-mode:normal;color-interpolation:sRGB;color-interpolation-filters:linearRGB;solid-color:#000000;solid-opacity:1;vector-effect:none;fill:#ffffff;fill-opacity:1;fill-rule:nonzero;stroke:none;stroke-width:30;stroke-linecap:round;stroke-linejoin:miter;stroke-miterlimit:4;stroke-dasharray:none;stroke-dashoffset:0;stroke-opacity:1;color-rendering:auto;image-rendering:auto;shape-rendering:auto;text-rendering:auto;enable-background:accumulate"
       d="m 283.59916,-41.00027 c 15.20735,0.0267 25.41601,-2.00976 25.41601,-2.00976 a 15.0015,15.0015 0 1 0 -5.3418,-29.51953 c 0,0 -58.85872,9.29667 -91.92382,-25.45899 -15.89601,-16.70873 -22.98416,-44.98073 -24.94336,-69.57617 -0.94912,-11.91503 -0.81155,-22.59534 -0.42383,-30.50195 l -14.52149,-15.9336 -15.43945,14.61524 c -0.43489,9.00135 -0.57305,20.9775 0.48047,34.20312 2.23221,28.02268 9.26938,62.81016 33.11133,87.8711 29.00674,30.4898 68.24034,36.26609 93.58594,36.31054 z"
       id="path860"
       inkscape:connector-curvature="0" />
    <path
       style="color:#000000;font-style:normal;font-variant:normal;font-weight:normal;font-stretch:normal;font-size:medium;line-height:normal;font-family:sans-serif;font-variant-ligatures:normal;font-variant-position:normal;font-variant-caps:normal;font-variant-numeric:normal;font-variant-alternates:normal;font-feature-settings:normal;text-indent:0;text-align:start;text-decoration:none;text-decoration-line:none;text-decoration-style:solid;text-decoration-color:#000000;letter-spacing:normal;word-spacing:normal;text-transform:none;writing-mode:lr-tb;direction:ltr;text-orientation:mixed;dominant-baseline:auto;baseline-shift:baseline;text-anchor:start;white-space:normal;shape-padding:0;clip-rule:nonzero;display:inline;overflow:visible;visibility:visible;opacity:1;isolation:auto;mix-blend-mode:normal;color-interpolation:sRGB;color-interpolation-filters:linearRGB;solid-color:#000000;solid-opacity:1;vector-effect:none;fill:#ffffff;fill-opacity:1;fill-rule:nonzero;stroke:none;stroke-width:30;stroke-linecap:round;stroke-linejoin:round;stroke-miterlimit:4;stroke-dasharray:none;stroke-dashoffset:0;stroke-opacity:1;color-rendering:auto;image-rendering:auto;shape-rendering:auto;text-rendering:auto;enable-background:accumulate"
       d="m 227.33158,-159.66628 a 15.0015,15.0015 0 0 0 11.63086,-25.2461 l -55.22657,-60.5957 a 15.0015,15.0015 0 0 0 -21.39843,-0.78906 l -57.52735,54.45898 a 15.0015,15.0015 0 1 0 20.625,21.78711 l 46.42578,-43.94922 44.92969,49.29688 a 15.0015,15.0015 0 0 0 10.54102,5.03711 z"
       id="path862"
       inkscape:connector-curvature="0" />
  </g>
</svg>
