<?xml version="1.0" encoding="UTF-8" standalone="no"?>
<svg
   xmlns:dc="http://purl.org/dc/elements/1.1/"
   xmlns:cc="http://creativecommons.org/ns#"
   xmlns:rdf="http://www.w3.org/1999/02/22-rdf-syntax-ns#"
   xmlns:svg="http://www.w3.org/2000/svg"
   xmlns="http://www.w3.org/2000/svg"
   xmlns:sodipodi="http://sodipodi.sourceforge.net/DTD/sodipodi-0.dtd"
   xmlns:inkscape="http://www.inkscape.org/namespaces/inkscape"
   viewBox="0 0 64 64"
   version="1.1"
   id="svg8"
   sodipodi:docname="selection-move-to-layer-below.svg"
   width="64"
   height="64"
   inkscape:version="0.92.2 5c3e80d, 2017-08-06">
  <metadata
     id="metadata12">
    <rdf:RDF>
      <cc:Work
         rdf:about="">
        <dc:format>image/svg+xml</dc:format>
        <dc:type
           rdf:resource="http://purl.org/dc/dcmitype/StillImage" />
        <dc:title></dc:title>
      </cc:Work>
    </rdf:RDF>
  </metadata>
  <sodipodi:namedview
     pagecolor="#ffffff"
     bordercolor="#666666"
     borderopacity="1"
     objecttolerance="10"
     gridtolerance="10"
     guidetolerance="10"
     inkscape:pageopacity="0"
     inkscape:pageshadow="2"
     inkscape:window-width="1366"
     inkscape:window-height="717"
     id="namedview10"
     showgrid="false"
     inkscape:zoom="3.6875"
     inkscape:cx="18.325776"
     inkscape:cy="35.754924"
     inkscape:window-x="0"
     inkscape:window-y="24"
     inkscape:window-maximized="1"
     inkscape:current-layer="svg8" />
  <defs
     id="defs3051">
    <style
       type="text/css"
       id="current-color-scheme">
      .ColorScheme-Text {
        color:#4d4d4d;
      }
      .ColorScheme-Highlight {
        color:#3daee9;
      }
      </style>
  </defs>
  <g
     id="g886"
     transform="matrix(0.125,0,0,0.125,0,56)">
    <path
       id="path850"
       d="m 432.91327,-391.52607 c 102.19288,88.57457 105.8268,249.69969 8.1168,359.898814 C 343.32007,78.571864 181.27958,96.100592 79.086698,7.526024 -23.106184,-81.048608 -26.740024,-242.17374 70.969898,-352.37279 168.6799,-462.57191 330.72031,-480.10071 432.91327,-391.52607 Z"
       inkscape:connector-curvature="0"
       style="fill:#3689e6;fill-opacity:1;stroke-width:11.10955906" />
    <path
       id="path852"
       d="m 511.63551,-223.09654 c -1.55136,61.31168 -25.1612,124.154652 -70.9664,175.814484 C 342.95911,62.917064 180.9187,80.445784 78.725738,-8.128776 30.827097,-49.644368 4.4967768,-107.07717 0.19381646,-167.77118 c 0.6056,66.35665 26.92360054,130.253364 78.88488154,175.290164 102.192882,88.57464 264.241052,71.03712 361.943292,-39.1532 49.70496,-56.058152 73.00504,-125.291044 70.61352,-191.462324 z"
       inkscape:connector-curvature="0"
       style="opacity:1;fill:#000000;fill-opacity:0.49019608;stroke-width:11.10955906" />
    <g
       style="fill:#000000;fill-opacity:0.49019608"
       transform="translate(20.000004,20)"
       id="g64">
      <g
         style="fill:#000000;fill-opacity:0.49019608"
         transform="translate(-1.0341741e-7,49)"
         id="g60">
        <path
           style="opacity:1;fill:#000000;fill-opacity:0.49019608;stroke:none;stroke-width:25.60621643;stroke-miterlimit:4;stroke-dasharray:none;stroke-dashoffset:0;stroke-opacity:1"
           d="m 190.41381,-396.69985 h 210.34688 c 5.65511,0 14.21199,6.21447 10.20777,10.20777 l -62.18404,62.01456 c -4.00422,3.9933 -9.96904,8.74951 -15.62414,8.74951 H 120.7649 c -5.6551,0 -14.19716,-6.19967 -10.20776,-10.20777 l 61.92933,-62.21963 c 3.9894,-4.0081 12.27224,-8.54444 17.92734,-8.54444 z"
           id="path56"
           inkscape:connector-curvature="0"
           sodipodi:nodetypes="sssssssss" />
        <path
           sodipodi:nodetypes="sssssssss"
           inkscape:connector-curvature="0"
           id="path58"
           d="m 180.88285,-165.97183 h 210.34688 c 5.6551,0 14.21199,6.21446 10.20777,10.20776 l -62.18404,62.01456 C 335.24924,-89.756205 329.28442,-85 323.62932,-85 H 111.23394 c -5.6551,0 -14.197165,-6.199665 -10.20777,-10.20776 l 61.92934,-62.21964 c 3.9894,-4.0081 12.27224,-8.54443 17.92734,-8.54443 z"
           style="opacity:1;fill:#000000;fill-opacity:0.49019608;stroke:none;stroke-width:25.60621643;stroke-miterlimit:4;stroke-dasharray:none;stroke-dashoffset:0;stroke-opacity:1" />
      </g>
      <path
         inkscape:connector-curvature="0"
         id="path62"
         d="m 174.10545,-238.04721 c 1.42827,-4.01263 4.96233,-7.59071 8.68482,-8.79293 3.49513,-1.12879 5.70342,-1.1572 9.15706,-0.11794 4.83495,1.45511 2.34989,-1.32684 42.49797,47.5756 9.18274,11.18506 12.73184,15.49941 21.17473,25.74072 l 1.16607,1.41447 1.55968,-1.76106 c 1.84329,-2.08133 3.67332,-4.32633 33.67756,-41.31416 12.65517,-15.60069 23.79344,-29.02463 24.75172,-29.83101 1.74154,-1.46537 6.47967,-3.19131 8.76098,-3.19131 0.66497,0 2.54346,0.39612 4.17438,0.8806 6.00573,1.7835 10.24823,7.63327 10.23506,14.11258 -0.009,4.31121 -1.31248,7.22802 -5.51557,12.33974 -1.77982,2.16462 -3.99986,4.8823 -4.93341,6.03933 -30.09517,37.29938 -59.96596,73.98215 -61.8662,75.97461 -3.99944,4.19352 -9.20141,5.51587 -15.08002,3.83347 -3.6534,-1.04558 -7.35877,-4.75048 -18.67133,-18.66882 -8.19527,-10.08298 -12.7379,-15.62607 -20.65452,-25.20334 -2.05775,-2.48945 -6.87202,-8.34529 -10.69831,-13.013 -3.82633,-4.66766 -7.49379,-9.1232 -8.14993,-9.90117 -8.48203,-10.05678 -19.38225,-23.84202 -19.97608,-25.26321 -1.35756,-3.24921 -1.47404,-7.53977 -0.29483,-10.85329 z"
         style="fill:#000000;fill-opacity:0.49019608;stroke-width:0.56578088" />
    </g>
    <g
       id="g54">
      <g
         id="g883"
         transform="translate(-1.0341741e-7,49)">
        <path
           sodipodi:nodetypes="sssssssss"
           inkscape:connector-curvature="0"
           id="path951"
           d="m 190.41381,-396.69985 h 210.34688 c 5.65511,0 14.21199,6.21447 10.20777,10.20777 l -62.18404,62.01456 c -4.00422,3.9933 -9.96904,8.74951 -15.62414,8.74951 H 120.7649 c -5.6551,0 -14.19716,-6.19967 -10.20776,-10.20777 l 61.92933,-62.21963 c 3.9894,-4.0081 12.27224,-8.54444 17.92734,-8.54444 z"
           style="opacity:1;fill:#ffffff;fill-opacity:1;stroke:none;stroke-width:25.60621643;stroke-miterlimit:4;stroke-dasharray:none;stroke-dashoffset:0;stroke-opacity:1" />
        <path
           style="opacity:1;fill:#ffffff;fill-opacity:1;stroke:none;stroke-width:25.60621643;stroke-miterlimit:4;stroke-dasharray:none;stroke-dashoffset:0;stroke-opacity:1"
           d="m 180.88285,-165.97183 h 210.34688 c 5.6551,0 14.21199,6.21446 10.20777,10.20776 l -62.18404,62.01456 C 335.24924,-89.756205 329.28442,-85 323.62932,-85 H 111.23394 c -5.6551,0 -14.197165,-6.199665 -10.20777,-10.20776 l 61.92934,-62.21964 c 3.9894,-4.0081 12.27224,-8.54443 17.92734,-8.54443 z"
           id="path879"
           inkscape:connector-curvature="0"
           sodipodi:nodetypes="sssssssss" />
      </g>
      <path
         style="fill:#ffffff;stroke-width:0.56578088"
         d="m 174.10545,-238.04721 c 1.42827,-4.01263 4.96233,-7.59071 8.68482,-8.79293 3.49513,-1.12879 5.70342,-1.1572 9.15706,-0.11794 4.83495,1.45511 2.34989,-1.32684 42.49797,47.5756 9.18274,11.18506 12.73184,15.49941 21.17473,25.74072 l 1.16607,1.41447 1.55968,-1.76106 c 1.84329,-2.08133 3.67332,-4.32633 33.67756,-41.31416 12.65517,-15.60069 23.79344,-29.02463 24.75172,-29.83101 1.74154,-1.46537 6.47967,-3.19131 8.76098,-3.19131 0.66497,0 2.54346,0.39612 4.17438,0.8806 6.00573,1.7835 10.24823,7.63327 10.23506,14.11258 -0.009,4.31121 -1.31248,7.22802 -5.51557,12.33974 -1.77982,2.16462 -3.99986,4.8823 -4.93341,6.03933 -30.09517,37.29938 -59.96596,73.98215 -61.8662,75.97461 -3.99944,4.19352 -9.20141,5.51587 -15.08002,3.83347 -3.6534,-1.04558 -7.35877,-4.75048 -18.67133,-18.66882 -8.19527,-10.08298 -12.7379,-15.62607 -20.65452,-25.20334 -2.05775,-2.48945 -6.87202,-8.34529 -10.69831,-13.013 -3.82633,-4.66766 -7.49379,-9.1232 -8.14993,-9.90117 -8.48203,-10.05678 -19.38225,-23.84202 -19.97608,-25.26321 -1.35756,-3.24921 -1.47404,-7.53977 -0.29483,-10.85329 z"
         id="path855"
         inkscape:connector-curvature="0" />
    </g>
  </g>
</svg>
