<?xml version="1.0" encoding="UTF-8" standalone="no"?>
<svg
   xmlns:dc="http://purl.org/dc/elements/1.1/"
   xmlns:cc="http://creativecommons.org/ns#"
   xmlns:rdf="http://www.w3.org/1999/02/22-rdf-syntax-ns#"
   xmlns:svg="http://www.w3.org/2000/svg"
   xmlns="http://www.w3.org/2000/svg"
   xmlns:sodipodi="http://sodipodi.sourceforge.net/DTD/sodipodi-0.dtd"
   xmlns:inkscape="http://www.inkscape.org/namespaces/inkscape"
   viewBox="0 0 64 64"
   version="1.1"
   id="svg6"
   sodipodi:docname="shape-choose.svg"
   width="64"
   height="64"
   inkscape:version="0.92.2 5c3e80d, 2017-08-06">
  <metadata
     id="metadata10">
    <rdf:RDF>
      <cc:Work
         rdf:about="">
        <dc:format>image/svg+xml</dc:format>
        <dc:type
           rdf:resource="http://purl.org/dc/dcmitype/StillImage" />
        <dc:title></dc:title>
      </cc:Work>
    </rdf:RDF>
  </metadata>
  <sodipodi:namedview
     pagecolor="#ffffff"
     bordercolor="#666666"
     borderopacity="1"
     objecttolerance="10"
     gridtolerance="10"
     guidetolerance="10"
     inkscape:pageopacity="0"
     inkscape:pageshadow="2"
     inkscape:window-width="1366"
     inkscape:window-height="717"
     id="namedview8"
     showgrid="false"
     inkscape:zoom="4.9166667"
     inkscape:cx="14.168295"
     inkscape:cy="46.174701"
     inkscape:window-x="0"
     inkscape:window-y="24"
     inkscape:window-maximized="1"
     inkscape:current-layer="svg6" />
  <defs
     id="defs3051">
    <style
       type="text/css"
       id="current-color-scheme">
      .ColorScheme-Text {
        color:#4d4d4d;
      }
      </style>
  </defs>
  <g
     id="g880"
     transform="matrix(0.125,0,0,0.125,-2.5659518e-7,56)">
    <path
       style="fill:#3689e6;fill-opacity:1;stroke-width:11.10955811"
       inkscape:connector-curvature="0"
       d="m 432.91327,-391.52602 c 102.19291,88.57459 105.82677,249.6997 8.1168,359.898784 C 343.3201,78.571841 181.27964,96.100608 79.086724,7.526019 -23.106183,-81.048563 -26.740043,-242.17368 70.969925,-352.37276 168.67989,-462.57184 330.72036,-480.10061 432.91327,-391.52602 Z"
       id="path27" />
    <path
       style="opacity:1;fill:#000000;fill-opacity:0.49019608;stroke-width:11.10955811"
       inkscape:connector-curvature="0"
       d="m 511.63551,-223.09648 c -1.55139,61.31164 -25.16123,124.154605 -70.96639,175.814476 C 342.95915,62.917113 180.91868,80.445841 78.725775,-8.1287086 30.827126,-49.644356 4.4968266,-107.07716 0.19382659,-167.77119 0.79908657,-101.41452 27.117416,-37.51782 79.078684,7.519059 181.27159,96.093616 343.31975,78.556193 441.02202,-31.634228 490.72696,-87.692339 514.02704,-156.9252 511.63551,-223.09648 Z"
       id="path51" />
    <path
       inkscape:connector-curvature="0"
       style="color:#000000;font-style:normal;font-variant:normal;font-weight:normal;font-stretch:normal;font-size:medium;line-height:normal;font-family:sans-serif;font-variant-ligatures:normal;font-variant-position:normal;font-variant-caps:normal;font-variant-numeric:normal;font-variant-alternates:normal;font-feature-settings:normal;text-indent:0;text-align:start;text-decoration:none;text-decoration-line:none;text-decoration-style:solid;text-decoration-color:#000000;letter-spacing:normal;word-spacing:normal;text-transform:none;writing-mode:lr-tb;direction:ltr;text-orientation:mixed;dominant-baseline:auto;baseline-shift:baseline;text-anchor:start;white-space:normal;shape-padding:0;clip-rule:nonzero;display:inline;overflow:visible;visibility:visible;opacity:1;isolation:auto;mix-blend-mode:normal;color-interpolation:sRGB;color-interpolation-filters:linearRGB;solid-color:#000000;solid-opacity:1;vector-effect:none;fill:#000000;fill-opacity:0.49019608;fill-rule:nonzero;stroke:none;stroke-width:33.89756775;stroke-linecap:butt;stroke-linejoin:miter;stroke-miterlimit:4;stroke-dasharray:none;stroke-dashoffset:0;stroke-opacity:1;color-rendering:auto;image-rendering:auto;shape-rendering:auto;text-rendering:auto;enable-background:accumulate"
       d="M 149.77344,-328 C 133.57197,-328 120,-314.42802 120,-298.22656 V -45.773438 C 120,-29.571973 133.57197,-16 149.77344,-16 H 402.22656 C 418.42803,-16 432,-29.571973 432,-45.773438 V -298.22656 C 432,-314.42802 418.42802,-328 402.22656,-328 Z m 166.05664,29.97656 h 59 c 15.01149,0 27.09765,12.08421 27.09765,27.09571 v 59 c 0,15.01149 -12.08616,27.09765 -27.09765,27.09765 h -59 c -15.0115,0 -27.09766,-12.08616 -27.09766,-27.09765 v -59 c 0,-15.0115 12.08616,-27.09571 27.09766,-27.09571 z m -114.82813,0.34375 a 55.145828,55.145828 0 0 1 55.14649,55.14649 55.145828,55.145828 0 0 1 -55.14649,55.14648 55.145828,55.145828 0 0 1 -55.14648,-55.14648 55.145828,55.145828 0 0 1 55.14648,-55.14649 z m -15.10547,144.19531 h 29.78711 c 10.56143,0 19.06446,8.50303 19.06446,19.06446 v 75.066404 c 0,10.561432 -8.50303,19.0625 -19.06446,19.0625 h -29.78711 c -10.56143,0 -19.06445,-8.501068 -19.06445,-19.0625 v -75.066404 c 0,-10.56143 8.50302,-19.06446 19.06445,-19.06446 z m 159.4336,0 56.59765,113.193364 H 288.73242 Z"
       id="path874" />
    <path
       id="rect840"
       d="M 129.77344,-348 C 113.57197,-348 100,-334.42802 100,-318.22656 V -65.773438 C 100,-49.571973 113.57197,-36 129.77344,-36 H 382.22656 C 398.42803,-36 412,-49.571973 412,-65.773438 V -318.22656 C 412,-334.42802 398.42802,-348 382.22656,-348 Z m 166.05664,29.97656 h 59 c 15.01149,0 27.09765,12.08421 27.09765,27.09571 v 59 c 0,15.01149 -12.08616,27.09765 -27.09765,27.09765 h -59 c -15.0115,0 -27.09766,-12.08616 -27.09766,-27.09765 v -59 c 0,-15.0115 12.08616,-27.09571 27.09766,-27.09571 z m -114.82813,0.34375 a 55.145828,55.145828 0 0 1 55.14649,55.14649 55.145828,55.145828 0 0 1 -55.14649,55.14648 55.145828,55.145828 0 0 1 -55.14648,-55.14648 55.145828,55.145828 0 0 1 55.14648,-55.14649 z m -15.10547,144.19531 h 29.78711 c 10.56143,0 19.06446,8.50303 19.06446,19.06446 v 75.066404 c 0,10.561432 -8.50303,19.0625 -19.06446,19.0625 h -29.78711 c -10.56143,0 -19.06445,-8.501068 -19.06445,-19.0625 v -75.066404 c 0,-10.56143 8.50302,-19.06446 19.06445,-19.06446 z m 159.4336,0 56.59765,113.193364 H 268.73242 Z"
       style="color:#000000;font-style:normal;font-variant:normal;font-weight:normal;font-stretch:normal;font-size:medium;line-height:normal;font-family:sans-serif;font-variant-ligatures:normal;font-variant-position:normal;font-variant-caps:normal;font-variant-numeric:normal;font-variant-alternates:normal;font-feature-settings:normal;text-indent:0;text-align:start;text-decoration:none;text-decoration-line:none;text-decoration-style:solid;text-decoration-color:#000000;letter-spacing:normal;word-spacing:normal;text-transform:none;writing-mode:lr-tb;direction:ltr;text-orientation:mixed;dominant-baseline:auto;baseline-shift:baseline;text-anchor:start;white-space:normal;shape-padding:0;clip-rule:nonzero;display:inline;overflow:visible;visibility:visible;opacity:1;isolation:auto;mix-blend-mode:normal;color-interpolation:sRGB;color-interpolation-filters:linearRGB;solid-color:#000000;solid-opacity:1;vector-effect:none;fill:#ffffff;fill-opacity:1;fill-rule:nonzero;stroke:none;stroke-width:33.89756775;stroke-linecap:butt;stroke-linejoin:miter;stroke-miterlimit:4;stroke-dasharray:none;stroke-dashoffset:0;stroke-opacity:1;color-rendering:auto;image-rendering:auto;shape-rendering:auto;text-rendering:auto;enable-background:accumulate"
       inkscape:connector-curvature="0" />
  </g>
</svg>
