<?xml version="1.0" encoding="UTF-8" standalone="no"?>
<svg
   xmlns:dc="http://purl.org/dc/elements/1.1/"
   xmlns:cc="http://creativecommons.org/ns#"
   xmlns:rdf="http://www.w3.org/1999/02/22-rdf-syntax-ns#"
   xmlns:svg="http://www.w3.org/2000/svg"
   xmlns="http://www.w3.org/2000/svg"
   xmlns:sodipodi="http://sodipodi.sourceforge.net/DTD/sodipodi-0.dtd"
   xmlns:inkscape="http://www.inkscape.org/namespaces/inkscape"
   viewBox="0 0 64 64"
   version="1.1"
   id="svg8"
   sodipodi:docname="snap-text-baseline.svg"
   width="64"
   height="64"
   inkscape:version="0.92.2 5c3e80d, 2017-08-06">
  <metadata
     id="metadata12">
    <rdf:RDF>
      <cc:Work
         rdf:about="">
        <dc:format>image/svg+xml</dc:format>
        <dc:type
           rdf:resource="http://purl.org/dc/dcmitype/StillImage" />
        <dc:title></dc:title>
      </cc:Work>
    </rdf:RDF>
  </metadata>
  <sodipodi:namedview
     pagecolor="#ffffff"
     bordercolor="#666666"
     borderopacity="1"
     objecttolerance="10"
     gridtolerance="10"
     guidetolerance="10"
     inkscape:pageopacity="0"
     inkscape:pageshadow="2"
     inkscape:window-width="1366"
     inkscape:window-height="717"
     id="namedview10"
     showgrid="false"
     inkscape:zoom="3.4766083"
     inkscape:cx="34.080625"
     inkscape:cy="63.800984"
     inkscape:window-x="0"
     inkscape:window-y="24"
     inkscape:window-maximized="1"
     inkscape:current-layer="svg8" />
  <defs
     id="defs3051">
    <style
       type="text/css"
       id="current-color-scheme">
      .ColorScheme-Text {
        color:#4d4d4d;
      }
      .ColorScheme-Highlight {
        color:#3daee9;
      }
      </style>
  </defs>
  <g
     id="g888"
     transform="matrix(0.125,0,0,0.125,4.6915712e-8,56.000001)">
    <path
       style="fill:#3689e6;fill-opacity:1;stroke-width:11.10955811"
       inkscape:connector-curvature="0"
       d="m 432.91317,-391.52604 c 102.19314,88.57459 105.82678,249.69971 8.11692,359.8988 C 343.32022,78.571843 181.27977,96.100612 79.086638,7.5260174 -23.106121,-81.048569 -26.740138,-242.17369 70.970103,-352.37278 168.67996,-462.57186 330.72042,-480.10063 432.91317,-391.52604 Z"
       id="path27" />
    <path
       style="opacity:1;fill:#000000;fill-opacity:0.49019608;stroke-width:11.10955811"
       inkscape:connector-curvature="0"
       d="m 511.63544,-223.09649 c -1.55112,61.31165 -25.16107,124.154609 -70.9663,175.814482 C 342.95927,62.917115 180.91883,80.445843 78.725693,-8.128711 30.826983,-49.644368 4.4969031,-107.07716 0.19391083,-167.7712 0.79901325,-101.41452 27.117377,-37.517824 79.078701,7.5190654 181.27146,96.09362 343.31985,78.556195 441.02215,-31.634232 490.72709,-87.692337 514.02713,-156.9252 511.63544,-223.09649 Z"
       id="path51" />
    <g
       style="fill:#000000;fill-opacity:0.49019608"
       id="g876"
       transform="matrix(0.97865242,0,0,0.97865242,30.897532,12.571055)">
      <g
         transform="matrix(10.593105,0,0,10.593105,-1465.6071,3053.0176)"
         id="g872"
         style="font-style:normal;font-weight:normal;font-size:40px;line-height:1.25;font-family:sans-serif;letter-spacing:0px;word-spacing:0px;fill:#000000;fill-opacity:0.49019608;stroke:none"
         aria-label="A">
        <path
           id="path870"
           transform="matrix(0.09440103,0,0,0.09440103,138.35482,-288.208)"
           d="m 298.62109,-348 c -7.99998,0 -28.34547,26.13822 -61.03515,78.41406 -23.99995,38.34485 -43.86175,72.27578 -59.58594,101.79297 -13.51723,3.17242 -20.27539,10.34517 -20.27539,21.51758 0,4.68971 1.17276,8.82787 3.51758,12.41406 -2.45968,5.16369 -4.74878,10.02176 -6.91797,14.66797 h 38.08203 c 2.85011,0 5.52855,0.69426 7.89258,1.9082 1.61242,-3.91716 3.11385,-7.64508 4.39062,-10.99023 l 55.03516,-11.37891 c 22.75858,-4.96548 41.17125,-8.41465 55.24023,-10.3457 5.37932,31.03448 9.86303,52.758027 13.44922,65.171875 C 337.79341,-52.276431 348.82796,-36 361.51758,-36 c 5.51724,0 10.41358,-1.999973 14.68945,-6 4.27587,-3.999956 6.41406,-8.965405 6.41406,-14.896484 0,-3.724112 -1.99997,-11.173297 -6,-22.345704 L 364.82812,-111.93164 334,-255.72461 320.96484,-325.24219 C 316.96482,-340.41455 309.51766,-348 298.62109,-348 Z m -10.13867,75.51758 16.75977,79.86133 c -33.93106,6.069 -59.24199,11.2417 -75.93164,15.51757 z"
           style="font-style:normal;font-variant:normal;font-weight:normal;font-stretch:normal;font-family:'Comic Sans MS';-inkscape-font-specification:'Comic Sans MS';fill:#000000;fill-opacity:0.49019608;stroke-width:10.59310532"
           inkscape:connector-curvature="0" />
      </g>
      <rect
         ry="17.249992"
         y="-119.19428"
         x="119.65685"
         height="90"
         width="90"
         id="rect874"
         style="opacity:1;fill:#000000;fill-opacity:0.49019608;stroke:none;stroke-width:31.50017929;stroke-linecap:round;stroke-miterlimit:4;stroke-dasharray:none;stroke-dashoffset:0;stroke-opacity:1" />
    </g>
    <g
       transform="matrix(0.97865242,0,0,0.97865242,10.897532,-7.4289448)"
       id="g860">
      <g
         aria-label="A"
         style="font-style:normal;font-weight:normal;font-size:40px;line-height:1.25;font-family:sans-serif;letter-spacing:0px;word-spacing:0px;fill:#ffffff;fill-opacity:1;stroke:none"
         id="flowRoot840"
         transform="matrix(10.593105,0,0,10.593105,-1465.6071,3053.0176)">
        <path
           inkscape:connector-curvature="0"
           style="font-style:normal;font-variant:normal;font-weight:normal;font-stretch:normal;font-family:'Comic Sans MS';-inkscape-font-specification:'Comic Sans MS';fill:#ffffff;stroke-width:10.59310532"
           d="m 298.62109,-348 c -7.99998,0 -28.34547,26.13822 -61.03515,78.41406 -23.99995,38.34485 -43.86175,72.27578 -59.58594,101.79297 -13.51723,3.17242 -20.27539,10.34517 -20.27539,21.51758 0,4.68971 1.17276,8.82787 3.51758,12.41406 -2.45968,5.16369 -4.74878,10.02176 -6.91797,14.66797 h 38.08203 c 2.85011,0 5.52855,0.69426 7.89258,1.9082 1.61242,-3.91716 3.11385,-7.64508 4.39062,-10.99023 l 55.03516,-11.37891 c 22.75858,-4.96548 41.17125,-8.41465 55.24023,-10.3457 5.37932,31.03448 9.86303,52.758027 13.44922,65.171875 C 337.79341,-52.276431 348.82796,-36 361.51758,-36 c 5.51724,0 10.41358,-1.999973 14.68945,-6 4.27587,-3.999956 6.41406,-8.965405 6.41406,-14.896484 0,-3.724112 -1.99997,-11.173297 -6,-22.345704 L 364.82812,-111.93164 334,-255.72461 320.96484,-325.24219 C 316.96482,-340.41455 309.51766,-348 298.62109,-348 Z m -10.13867,75.51758 16.75977,79.86133 c -33.93106,6.069 -59.24199,11.2417 -75.93164,15.51757 z"
           transform="matrix(0.09440103,0,0,0.09440103,138.35482,-288.208)"
           id="path848" />
      </g>
      <rect
         style="opacity:1;fill:#ffffff;fill-opacity:1;stroke:none;stroke-width:31.50017929;stroke-linecap:round;stroke-miterlimit:4;stroke-dasharray:none;stroke-dashoffset:0;stroke-opacity:1"
         id="rect851"
         width="90"
         height="90"
         x="119.65685"
         y="-119.19428"
         ry="17.249992" />
    </g>
  </g>
</svg>
