<?xml version="1.0" encoding="UTF-8" standalone="no"?>
<svg
   xmlns:dc="http://purl.org/dc/elements/1.1/"
   xmlns:cc="http://creativecommons.org/ns#"
   xmlns:rdf="http://www.w3.org/1999/02/22-rdf-syntax-ns#"
   xmlns:svg="http://www.w3.org/2000/svg"
   xmlns="http://www.w3.org/2000/svg"
   xmlns:sodipodi="http://sodipodi.sourceforge.net/DTD/sodipodi-0.dtd"
   xmlns:inkscape="http://www.inkscape.org/namespaces/inkscape"
   viewBox="0 0 64 64"
   version="1.1"
   id="svg8"
   sodipodi:docname="snap-bounding-box-midpoints.svg"
   width="64"
   height="64"
   inkscape:version="0.92.2 5c3e80d, 2017-08-06">
  <metadata
     id="metadata12">
    <rdf:RDF>
      <cc:Work
         rdf:about="">
        <dc:format>image/svg+xml</dc:format>
        <dc:type
           rdf:resource="http://purl.org/dc/dcmitype/StillImage" />
        <dc:title></dc:title>
      </cc:Work>
    </rdf:RDF>
  </metadata>
  <sodipodi:namedview
     pagecolor="#ffffff"
     bordercolor="#666666"
     borderopacity="1"
     objecttolerance="10"
     gridtolerance="10"
     guidetolerance="10"
     inkscape:pageopacity="0"
     inkscape:pageshadow="2"
     inkscape:window-width="1366"
     inkscape:window-height="717"
     id="namedview10"
     showgrid="false"
     inkscape:zoom="1.7383042"
     inkscape:cx="76.729112"
     inkscape:cy="21.493795"
     inkscape:window-x="0"
     inkscape:window-y="24"
     inkscape:window-maximized="1"
     inkscape:current-layer="svg8" />
  <defs
     id="defs3051">
    <style
       type="text/css"
       id="current-color-scheme">
      .ColorScheme-Text {
        color:#4d4d4d;
      }
      .ColorScheme-Highlight {
        color:#3daee9;
      }
      </style>
  </defs>
  <g
     id="g895"
     transform="matrix(0.125,0,0,0.125,-1.576692e-8,56)">
    <path
       style="fill:#3689e6;fill-opacity:1;stroke-width:11.10955811"
       inkscape:connector-curvature="0"
       d="m 432.91327,-391.52604 c 102.19291,88.57459 105.82678,249.69971 8.1168,359.898792 C 343.3201,78.571824 181.27964,96.100624 79.086729,7.526016 -23.106186,-81.04858 -26.740042,-242.1737 70.969928,-352.37278 168.6799,-462.57186 330.72036,-480.10063 432.91327,-391.52604 Z"
       id="path27" />
    <path
       style="opacity:1;fill:#000000;fill-opacity:0.49019608;stroke-width:11.10955811"
       inkscape:connector-curvature="0"
       d="m 511.63551,-223.09649 c -1.55139,61.31165 -25.16123,124.15462 -70.96638,175.814474 C 342.95915,62.91712 180.91869,80.445824 78.725776,-8.128712 30.827124,-49.644368 4.4968223,-107.07717 0.19382834,-167.7712 0.79908002,-101.41453 27.117412,-37.517824 79.078684,7.519064 181.27159,96.093624 343.31975,78.556224 441.02202,-31.634232 490.72697,-87.69234 514.02704,-156.9252 511.63551,-223.09649 Z"
       id="path51" />
    <path
       style="color:#4d4d4d;fill:#000000;fill-opacity:0.49019608;stroke:none;stroke-width:19.5"
       d="m 198,-289.00001 v 19.5 h 39 v -19.5 z m 58.5,0 v 19.5 h 39 v -19.5 z m 58.5,0 v 19.5 h 39 v -19.5 z m -156,39 v 39 h 19.5 v -39 z m 214.5,0 v 35 H 393 v -35 z m -214.5,58.5 v 39 h 19.5 v -39 z m 0,58.5 v 39.000002 h 19.5 v -39.000002 z m 214.5,4 v 35.000002 H 393 v -35.000002 z m -175.5,54.5 v 19.5 h 39 v -19.499999 z m 58.5,0 v 19.5 h 39 v -19.499999 z m 58.5,0 v 19.5 h 39 v -19.499999 z"
       class="ColorScheme-Text"
       id="path850"
       inkscape:connector-curvature="0"
       sodipodi:nodetypes="ccccccccccccccccccccccccccccccccccccccccccccccccccccccc" />
    <rect
       style="opacity:1;fill:#000000;fill-opacity:0.49019608;stroke:none;stroke-width:25;stroke-miterlimit:4;stroke-dasharray:none;stroke-dashoffset:0;stroke-opacity:1"
       id="rect852"
       width="70.847458"
       height="71.118645"
       x="120"
       y="-328"
       ry="15.911" />
    <rect
       ry="15.911"
       y="-328"
       x="361.15253"
       height="71.118645"
       width="70.847458"
       id="rect854"
       style="opacity:1;fill:#000000;fill-opacity:0.49019608;stroke:none;stroke-width:25;stroke-miterlimit:4;stroke-dasharray:none;stroke-dashoffset:0;stroke-opacity:1" />
    <rect
       style="opacity:1;fill:#000000;fill-opacity:0.49019608;stroke:none;stroke-width:25;stroke-miterlimit:4;stroke-dasharray:none;stroke-dashoffset:0;stroke-opacity:1"
       id="rect856"
       width="70.847458"
       height="71.118645"
       x="361.15253"
       y="-87.11866"
       ry="15.911" />
    <rect
       ry="15.911"
       y="-87.118645"
       x="120"
       height="71.118645"
       width="70.847458"
       id="rect858"
       style="opacity:1;fill:#000000;fill-opacity:0.49019608;stroke:none;stroke-width:25;stroke-miterlimit:4;stroke-dasharray:none;stroke-dashoffset:0;stroke-opacity:1" />
    <path
       inkscape:connector-curvature="0"
       style="opacity:1;fill:#000000;fill-opacity:0.49019608;stroke:none;stroke-width:25;stroke-miterlimit:4;stroke-dasharray:none;stroke-dashoffset:0;stroke-opacity:1"
       d="m 372.75815,-207.74614 c -8.81469,0 -15.91015,7.09741 -15.91015,15.91211 v 39.29492 c 0,8.81469 7.09546,15.91211 15.91015,15.91211 h 39.02539 c 8.8147,0 15.91211,-7.09742 15.91211,-15.91211 v -39.29492 c 0,-8.8147 -7.09741,-15.91211 -15.91211,-15.91211 z m 6.91016,12.61132 h 25.1582 c 5.68282,0 10.25781,4.575 10.25781,10.25782 v 25.33398 c 0,5.68282 -4.57499,10.25781 -10.25781,10.25781 h -25.1582 c -5.68282,0 -10.25781,-4.57499 -10.25781,-10.25781 V -184.877 c 0,-5.68282 4.57499,-10.25782 10.25781,-10.25782 z"
       id="path879" />
    <path
       sodipodi:nodetypes="ccccccccccccccccccccccccccccccccccccccccccccccccccccccc"
       inkscape:connector-curvature="0"
       id="path4-3"
       class="ColorScheme-Text"
       d="m 178,-309 v 19.5 h 39 V -309 Z m 58.5,0 v 19.5 h 39 V -309 Z m 58.5,0 v 19.5 h 39 V -309 Z m -156,39 v 39 h 19.5 v -39 z m 214.5,0 v 33 H 373 v -33 z M 139,-211.5 v 39 h 19.5 v -39 z m 0,58.5 v 39 h 19.5 v -39 z m 214.5,6 v 33 H 373 v -33 z M 178,-94.500002 v 19.5 h 39 v -19.499999 z m 58.5,0 v 19.5 h 39 v -19.499999 z m 58.5,0 v 19.5 h 39 v -19.499999 z"
       style="color:#4d4d4d;fill:#ffffff;fill-opacity:1;stroke:none;stroke-width:19.5" />
    <rect
       ry="15.911"
       y="-348"
       x="100"
       height="71.118645"
       width="70.847458"
       id="rect835"
       style="opacity:1;fill:#ffffff;fill-opacity:1;stroke:none;stroke-width:25;stroke-miterlimit:4;stroke-dasharray:none;stroke-dashoffset:0;stroke-opacity:1" />
    <rect
       style="opacity:1;fill:#ffffff;fill-opacity:1;stroke:none;stroke-width:25;stroke-miterlimit:4;stroke-dasharray:none;stroke-dashoffset:0;stroke-opacity:1"
       id="rect837"
       width="70.847458"
       height="71.118645"
       x="341.15253"
       y="-348"
       ry="15.911" />
    <rect
       ry="15.911"
       y="-107.11865"
       x="341.15253"
       height="71.118645"
       width="70.847458"
       id="rect839"
       style="opacity:1;fill:#ffffff;fill-opacity:1;stroke:none;stroke-width:25;stroke-miterlimit:4;stroke-dasharray:none;stroke-dashoffset:0;stroke-opacity:1" />
    <rect
       style="opacity:1;fill:#ffffff;fill-opacity:1;stroke:none;stroke-width:25;stroke-miterlimit:4;stroke-dasharray:none;stroke-dashoffset:0;stroke-opacity:1"
       id="rect841"
       width="70.847458"
       height="71.118645"
       x="100"
       y="-107.11864"
       ry="15.911" />
    <path
       id="rect867"
       d="m 352.75781,-227.74609 c -8.81469,0 -15.91015,7.09741 -15.91015,15.91211 v 39.29492 c 0,8.81469 7.09546,15.91211 15.91015,15.91211 h 39.02539 c 8.8147,0 15.91211,-7.09742 15.91211,-15.91211 v -39.29492 c 0,-8.8147 -7.09741,-15.91211 -15.91211,-15.91211 z m 6.91016,12.61132 h 25.1582 c 5.68282,0 10.25781,4.575 10.25781,10.25782 v 25.33398 c 0,5.68282 -4.57499,10.25781 -10.25781,10.25781 h -25.1582 c -5.68282,0 -10.25781,-4.57499 -10.25781,-10.25781 v -25.33398 c 0,-5.68282 4.57499,-10.25782 10.25781,-10.25782 z"
       style="opacity:1;fill:#ffffff;fill-opacity:1;stroke:none;stroke-width:25;stroke-miterlimit:4;stroke-dasharray:none;stroke-dashoffset:0;stroke-opacity:1"
       inkscape:connector-curvature="0" />
  </g>
</svg>
