<?xml version="1.0" encoding="UTF-8" standalone="no"?>
<svg
   xmlns:dc="http://purl.org/dc/elements/1.1/"
   xmlns:cc="http://creativecommons.org/ns#"
   xmlns:rdf="http://www.w3.org/1999/02/22-rdf-syntax-ns#"
   xmlns:svg="http://www.w3.org/2000/svg"
   xmlns="http://www.w3.org/2000/svg"
   xmlns:sodipodi="http://sodipodi.sourceforge.net/DTD/sodipodi-0.dtd"
   xmlns:inkscape="http://www.inkscape.org/namespaces/inkscape"
   viewBox="0 0 64 64"
   version="1.1"
   id="svg8"
   sodipodi:docname="snap-nodes-rotation-center.svg"
   width="64"
   height="64"
   inkscape:version="0.92.2 5c3e80d, 2017-08-06">
  <metadata
     id="metadata12">
    <rdf:RDF>
      <cc:Work
         rdf:about="">
        <dc:format>image/svg+xml</dc:format>
        <dc:type
           rdf:resource="http://purl.org/dc/dcmitype/StillImage" />
        <dc:title></dc:title>
      </cc:Work>
    </rdf:RDF>
  </metadata>
  <sodipodi:namedview
     pagecolor="#ffffff"
     bordercolor="#666666"
     borderopacity="1"
     objecttolerance="10"
     gridtolerance="10"
     guidetolerance="10"
     inkscape:pageopacity="0"
     inkscape:pageshadow="2"
     inkscape:window-width="1366"
     inkscape:window-height="717"
     id="namedview10"
     showgrid="false"
     inkscape:zoom="2.4583333"
     inkscape:cx="83.795268"
     inkscape:cy="71.871047"
     inkscape:window-x="0"
     inkscape:window-y="24"
     inkscape:window-maximized="1"
     inkscape:current-layer="svg8" />
  <defs
     id="defs3051">
    <style
       type="text/css"
       id="current-color-scheme">
      .ColorScheme-Text {
        color:#4d4d4d;
      }
      .ColorScheme-Highlight {
        color:#3daee9;
      }
      </style>
  </defs>
  <g
     id="g899"
     transform="matrix(0.125,0,0,0.125,4.6915712e-8,56.000001)">
    <path
       style="fill:#3689e6;fill-opacity:1;stroke-width:11.10955811"
       inkscape:connector-curvature="0"
       d="m 432.91317,-391.52604 c 102.19314,88.57459 105.82678,249.69971 8.11692,359.8988 C 343.32022,78.571843 181.27977,96.100612 79.086638,7.5260174 -23.106121,-81.048569 -26.740138,-242.17369 70.970103,-352.37278 168.67996,-462.57186 330.72042,-480.10063 432.91317,-391.52604 Z"
       id="path27" />
    <path
       style="opacity:1;fill:#000000;fill-opacity:0.49019608;stroke-width:11.10955811"
       inkscape:connector-curvature="0"
       d="m 511.63544,-223.09649 c -1.55112,61.31165 -25.16107,124.154609 -70.9663,175.814482 C 342.95927,62.917115 180.91883,80.445843 78.725693,-8.128711 30.826983,-49.644368 4.4969031,-107.07716 0.19391083,-167.7712 0.79901325,-101.41452 27.117377,-37.517824 79.078701,7.5190654 181.27146,96.09362 343.31985,78.556195 441.02215,-31.634232 490.72709,-87.692337 514.02713,-156.9252 511.63544,-223.09649 Z"
       id="path51" />
    <g
       style="fill:#000000;fill-opacity:0.49019608"
       transform="translate(24.501259,20)"
       id="g879">
      <path
         sodipodi:nodetypes="sssss"
         inkscape:connector-curvature="0"
         id="path865"
         class="ColorScheme-Highlight"
         d="m 334,-202 c -43.07821,0 -78,34.92179 -78,78 0,43.07821 34.92179,78 78,78 43.07821,0 78,-34.92179 78,-78 0,-43.07821 -34.92179,-78 -78,-78 z"
         style="color:#3daee9;fill:#000000;fill-opacity:0.49019608;stroke:none;stroke-width:19.5" />
      <path
         style="color:#3daee9;fill:#000000;fill-opacity:0.49019608;stroke:none;stroke-width:5.46610165"
         d="m 195.88796,-105.26119 c -12.07538,0 -21.86441,9.789028 -21.86441,21.864406 0,12.075377 9.78903,21.864405 21.86441,21.864405 12.07537,0 21.8644,-9.789028 21.8644,-21.864405 0,-12.075378 -9.78903,-21.864406 -21.8644,-21.864406 z"
         class="ColorScheme-Highlight"
         id="path867"
         inkscape:connector-curvature="0"
         sodipodi:nodetypes="sssss" />
      <path
         sodipodi:nodetypes="sssss"
         inkscape:connector-curvature="0"
         id="path869"
         class="ColorScheme-Highlight"
         d="m 138.9359,-142.65396 c -12.07538,0 -21.86441,9.78903 -21.86441,21.86441 0,12.07538 9.78903,21.864406 21.86441,21.864406 12.07537,0 21.8644,-9.789026 21.8644,-21.864406 0,-12.07538 -9.78903,-21.86441 -21.8644,-21.86441 z"
         style="color:#3daee9;fill:#000000;fill-opacity:0.49019608;stroke:none;stroke-width:5.46610165" />
      <path
         style="color:#3daee9;fill:#000000;fill-opacity:0.49019608;stroke:none;stroke-width:5.46610165"
         d="m 117.36315,-203.05765 c -12.07538,0 -21.864409,9.78903 -21.864409,21.86441 0,12.07538 9.789029,21.8644 21.864409,21.8644 12.07537,0 21.8644,-9.78902 21.8644,-21.8644 0,-12.07538 -9.78903,-21.86441 -21.8644,-21.86441 z"
         class="ColorScheme-Highlight"
         id="path871"
         inkscape:connector-curvature="0"
         sodipodi:nodetypes="sssss" />
      <path
         sodipodi:nodetypes="sssss"
         inkscape:connector-curvature="0"
         id="path873"
         class="ColorScheme-Highlight"
         d="m 139.22353,-259.1468 c -12.07538,0 -21.8644,9.78903 -21.8644,21.86441 0,12.07538 9.78902,21.8644 21.8644,21.8644 12.07537,0 21.8644,-9.78902 21.8644,-21.8644 0,-12.07538 -9.78903,-21.86441 -21.8644,-21.86441 z"
         style="color:#3daee9;fill:#000000;fill-opacity:0.49019608;stroke:none;stroke-width:5.46610165" />
      <path
         style="color:#3daee9;fill:#000000;fill-opacity:0.49019608;stroke:none;stroke-width:5.46610165"
         d="m 198.47668,-296.8272 c -12.07538,0 -21.8644,9.78903 -21.8644,21.86441 0,12.07538 9.78902,21.8644 21.8644,21.8644 12.07537,0 21.8644,-9.78902 21.8644,-21.8644 0,-12.07538 -9.78903,-21.86441 -21.8644,-21.86441 z"
         class="ColorScheme-Highlight"
         id="path875"
         inkscape:connector-curvature="0"
         sodipodi:nodetypes="sssss" />
      <path
         inkscape:connector-curvature="0"
         id="path877"
         d="m 210.76067,-199.89106 c -3.63386,-1.29344 -6.87414,-4.49391 -7.96287,-7.865 -1.02227,-3.16521 -1.04799,-5.16503 -0.10684,-8.29266 1.31776,-4.37853 -1.20158,-2.12806 43.08461,-38.48626 10.12922,-8.31593 14.03632,-11.53 23.31086,-19.1759 l 1.28096,-1.05602 -1.59482,-1.41244 c -1.88487,-1.66927 -3.91795,-3.32657 -37.41422,-30.49848 -14.12803,-11.46055 -26.2848,-21.54741 -27.015,-22.41525 -1.3271,-1.57712 -2.89011,-5.86799 -2.89011,-7.93396 0,-0.6022 0.35872,-2.30336 0.79746,-3.78032 1.61515,-5.43882 6.91272,-9.28081 12.78041,-9.2689 3.90427,0.007 6.5457,1.18857 11.1749,4.99491 1.96028,1.61182 4.42143,3.62229 5.46923,4.46772 33.77842,27.25427 66.99849,54.30532 68.80281,56.02619 3.79766,3.62189 4.99524,8.33283 3.47161,13.65651 -0.94688,3.30855 -4.30205,6.66413 -16.90652,16.90881 -9.13121,7.42166 -14.15103,11.53548 -22.82424,18.70476 -2.25445,1.86352 -7.55751,6.22335 -11.78455,9.68844 -4.2271,3.46515 -8.26201,6.78642 -8.96655,7.3806 -9.10748,7.68136 -21.59143,17.55262 -22.87846,18.0904 -2.94245,1.22941 -6.82803,1.3349 -9.82877,0.26701 z"
         style="display:inline;fill:#000000;fill-opacity:0.49019608;stroke-width:0.51237279" />
    </g>
    <g
       transform="translate(4.501259)"
       id="g863">
      <path
         style="color:#3daee9;fill:#ffffff;fill-opacity:1;stroke:none;stroke-width:19.5"
         d="m 334,-202 c -43.07821,0 -78,34.92179 -78,78 0,43.07821 34.92179,78 78,78 43.07821,0 78,-34.92179 78,-78 0,-43.07821 -34.92179,-78 -78,-78 z"
         class="ColorScheme-Highlight"
         id="path6"
         inkscape:connector-curvature="0"
         sodipodi:nodetypes="sssss" />
      <path
         sodipodi:nodetypes="sssss"
         inkscape:connector-curvature="0"
         id="path840"
         class="ColorScheme-Highlight"
         d="m 195.88796,-105.26119 c -12.07538,0 -21.86441,9.789028 -21.86441,21.864406 0,12.075377 9.78903,21.864405 21.86441,21.864405 12.07537,0 21.8644,-9.789028 21.8644,-21.864405 0,-12.075378 -9.78903,-21.864406 -21.8644,-21.864406 z"
         style="color:#3daee9;fill:#ffffff;fill-opacity:1;stroke:none;stroke-width:5.46610165" />
      <path
         style="color:#3daee9;fill:#ffffff;fill-opacity:1;stroke:none;stroke-width:5.46610165"
         d="m 138.9359,-142.65396 c -12.07538,0 -21.86441,9.78903 -21.86441,21.86441 0,12.07538 9.78903,21.864406 21.86441,21.864406 12.07537,0 21.8644,-9.789026 21.8644,-21.864406 0,-12.07538 -9.78903,-21.86441 -21.8644,-21.86441 z"
         class="ColorScheme-Highlight"
         id="path842"
         inkscape:connector-curvature="0"
         sodipodi:nodetypes="sssss" />
      <path
         sodipodi:nodetypes="sssss"
         inkscape:connector-curvature="0"
         id="path844"
         class="ColorScheme-Highlight"
         d="m 117.36315,-203.05765 c -12.07538,0 -21.864409,9.78903 -21.864409,21.86441 0,12.07538 9.789029,21.8644 21.864409,21.8644 12.07537,0 21.8644,-9.78902 21.8644,-21.8644 0,-12.07538 -9.78903,-21.86441 -21.8644,-21.86441 z"
         style="color:#3daee9;fill:#ffffff;fill-opacity:1;stroke:none;stroke-width:5.46610165" />
      <path
         style="color:#3daee9;fill:#ffffff;fill-opacity:1;stroke:none;stroke-width:5.46610165"
         d="m 139.22353,-259.1468 c -12.07538,0 -21.8644,9.78903 -21.8644,21.86441 0,12.07538 9.78902,21.8644 21.8644,21.8644 12.07537,0 21.8644,-9.78902 21.8644,-21.8644 0,-12.07538 -9.78903,-21.86441 -21.8644,-21.86441 z"
         class="ColorScheme-Highlight"
         id="path846"
         inkscape:connector-curvature="0"
         sodipodi:nodetypes="sssss" />
      <path
         sodipodi:nodetypes="sssss"
         inkscape:connector-curvature="0"
         id="path848"
         class="ColorScheme-Highlight"
         d="m 198.47668,-296.8272 c -12.07538,0 -21.8644,9.78903 -21.8644,21.86441 0,12.07538 9.78902,21.8644 21.8644,21.8644 12.07537,0 21.8644,-9.78902 21.8644,-21.8644 0,-12.07538 -9.78903,-21.86441 -21.8644,-21.86441 z"
         style="color:#3daee9;fill:#ffffff;fill-opacity:1;stroke:none;stroke-width:5.46610165" />
      <path
         style="display:inline;fill:#ffffff;stroke-width:0.51237279"
         d="m 210.76067,-199.89106 c -3.63386,-1.29344 -6.87414,-4.49391 -7.96287,-7.865 -1.02227,-3.16521 -1.04799,-5.16503 -0.10684,-8.29266 1.31776,-4.37853 -1.20158,-2.12806 43.08461,-38.48626 10.12922,-8.31593 14.03632,-11.53 23.31086,-19.1759 l 1.28096,-1.05602 -1.59482,-1.41244 c -1.88487,-1.66927 -3.91795,-3.32657 -37.41422,-30.49848 -14.12803,-11.46055 -26.2848,-21.54741 -27.015,-22.41525 -1.3271,-1.57712 -2.89011,-5.86799 -2.89011,-7.93396 0,-0.6022 0.35872,-2.30336 0.79746,-3.78032 1.61515,-5.43882 6.91272,-9.28081 12.78041,-9.2689 3.90427,0.007 6.5457,1.18857 11.1749,4.99491 1.96028,1.61182 4.42143,3.62229 5.46923,4.46772 33.77842,27.25427 66.99849,54.30532 68.80281,56.02619 3.79766,3.62189 4.99524,8.33283 3.47161,13.65651 -0.94688,3.30855 -4.30205,6.66413 -16.90652,16.90881 -9.13121,7.42166 -14.15103,11.53548 -22.82424,18.70476 -2.25445,1.86352 -7.55751,6.22335 -11.78455,9.68844 -4.2271,3.46515 -8.26201,6.78642 -8.96655,7.3806 -9.10748,7.68136 -21.59143,17.55262 -22.87846,18.0904 -2.94245,1.22941 -6.82803,1.3349 -9.82877,0.26701 z"
         id="path855"
         inkscape:connector-curvature="0" />
    </g>
  </g>
</svg>
