<?xml version="1.0" encoding="UTF-8" standalone="no"?>
<svg
   xmlns:dc="http://purl.org/dc/elements/1.1/"
   xmlns:cc="http://creativecommons.org/ns#"
   xmlns:rdf="http://www.w3.org/1999/02/22-rdf-syntax-ns#"
   xmlns:svg="http://www.w3.org/2000/svg"
   xmlns="http://www.w3.org/2000/svg"
   xmlns:sodipodi="http://sodipodi.sourceforge.net/DTD/sodipodi-0.dtd"
   xmlns:inkscape="http://www.inkscape.org/namespaces/inkscape"
   viewBox="0 0 64 64"
   version="1.1"
   id="svg8"
   sodipodi:docname="snap-bounding-box.svg"
   width="64"
   height="64"
   inkscape:version="0.92.2 5c3e80d, 2017-08-06">
  <metadata
     id="metadata12">
    <rdf:RDF>
      <cc:Work
         rdf:about="">
        <dc:format>image/svg+xml</dc:format>
        <dc:type
           rdf:resource="http://purl.org/dc/dcmitype/StillImage" />
        <dc:title></dc:title>
      </cc:Work>
    </rdf:RDF>
  </metadata>
  <sodipodi:namedview
     pagecolor="#ffffff"
     bordercolor="#666666"
     borderopacity="1"
     objecttolerance="10"
     gridtolerance="10"
     guidetolerance="10"
     inkscape:pageopacity="0"
     inkscape:pageshadow="2"
     inkscape:window-width="1366"
     inkscape:window-height="717"
     id="namedview10"
     showgrid="false"
     inkscape:zoom="6.9532167"
     inkscape:cx="43.212747"
     inkscape:cy="30.082985"
     inkscape:window-x="0"
     inkscape:window-y="24"
     inkscape:window-maximized="1"
     inkscape:current-layer="svg8" />
  <defs
     id="defs3051">
    <style
       type="text/css"
       id="current-color-scheme">
      .ColorScheme-Text {
        color:#4d4d4d;
      }
      .ColorScheme-Highlight {
        color:#3daee9;
      }
      </style>
  </defs>
  <g
     id="g905"
     transform="matrix(0.125,0,0,0.125,-1.576692e-8,61)">
    <path
       style="fill:#3689e6;fill-opacity:1;stroke-width:11.10955811"
       inkscape:connector-curvature="0"
       d="m 432.91327,-431.52604 c 102.19291,88.57459 105.82678,249.69971 8.1168,359.898792 C 343.3201,38.571824 181.27964,56.100624 79.086729,-32.473984 -23.106186,-121.04858 -26.740042,-282.1737 70.969928,-392.37278 168.6799,-502.57186 330.72036,-520.10063 432.91327,-431.52604 Z"
       id="path27" />
    <path
       style="opacity:1;fill:#000000;fill-opacity:0.49019608;stroke-width:11.10955811"
       inkscape:connector-curvature="0"
       d="m 511.63551,-263.09649 c -1.55139,61.31165 -25.16123,124.15462 -70.96638,175.814474 C 342.95915,22.91712 180.91869,40.445824 78.725776,-48.128712 30.827124,-89.644368 4.4968223,-147.07717 0.19382836,-207.7712 0.79908004,-141.41453 27.117412,-77.517824 79.078684,-32.480936 181.27159,56.093624 343.31975,38.556224 441.02202,-71.634232 490.72697,-127.69234 514.02704,-196.9252 511.63551,-263.09649 Z"
       id="path51" />
    <g
       style="fill:#000000;fill-opacity:0.49019608"
       transform="translate(20,19.999992)"
       id="g887">
      <path
         sodipodi:nodetypes="ccccccccccccccccccccccccccccccccccccccccccccccccccccccc"
         inkscape:connector-curvature="0"
         id="path875"
         class="ColorScheme-Text"
         d="m 178,-349 v 19.5 h 39 V -349 Z m 58.5,0 v 19.5 h 39 V -349 Z m 58.5,0 v 19.5 h 39 V -349 Z m -156,39 v 39 h 19.5 v -39 z m 214.5,0 v 39 H 373 v -39 z M 139,-251.5 v 39 h 19.5 v -39 z m 214.5,0 v 39 H 373 v -39 z M 139,-193 v 39 h 19.5 v -39 z m 214.5,0 v 39 H 373 v -39 z M 178,-134.5 v 19.5 h 33 v -19.5 z m 123,0 v 19.5 h 33 v -19.5 z"
         style="color:#4d4d4d;fill:#000000;fill-opacity:0.49019608;stroke:none;stroke-width:19.5" />
      <rect
         ry="15.911"
         y="-388"
         x="100"
         height="71.118645"
         width="70.847458"
         id="rect877"
         style="opacity:1;fill:#000000;fill-opacity:0.49019608;stroke:none;stroke-width:25;stroke-miterlimit:4;stroke-dasharray:none;stroke-dashoffset:0;stroke-opacity:1" />
      <rect
         style="opacity:1;fill:#000000;fill-opacity:0.49019608;stroke:none;stroke-width:25;stroke-miterlimit:4;stroke-dasharray:none;stroke-dashoffset:0;stroke-opacity:1"
         id="rect879"
         width="70.847458"
         height="71.118645"
         x="341.15253"
         y="-388"
         ry="15.911" />
      <rect
         ry="15.911"
         y="-147.11865"
         x="341.15253"
         height="71.118645"
         width="70.847458"
         id="rect881"
         style="opacity:1;fill:#000000;fill-opacity:0.49019608;stroke:none;stroke-width:25;stroke-miterlimit:4;stroke-dasharray:none;stroke-dashoffset:0;stroke-opacity:1" />
      <rect
         style="opacity:1;fill:#000000;fill-opacity:0.49019608;stroke:none;stroke-width:25;stroke-miterlimit:4;stroke-dasharray:none;stroke-dashoffset:0;stroke-opacity:1"
         id="rect883"
         width="70.847458"
         height="71.118645"
         x="100"
         y="-147.11864"
         ry="15.911" />
      <path
         sodipodi:nodetypes="ssssssssss"
         inkscape:connector-curvature="0"
         id="path885"
         class="ColorScheme-Highlight"
         d="m 256,-232 c -21.53911,0 -39,17.46089 -39,39 0,21.53911 17.46089,39 39,39 21.53911,0 39,-17.46089 39,-39 0,-21.53911 -17.46089,-39 -39,-39 z m 0,78 c -21.53911,0 -39,17.46089 -39,39 0,21.539105 17.46089,39 39,39 21.53911,0 39,-17.460895 39,-39 0,-21.53911 -17.46089,-39 -39,-39 z"
         style="color:#3daee9;fill:#000000;fill-opacity:0.49019608;stroke:none;stroke-width:19.5" />
    </g>
    <g
       id="g873">
      <path
         style="color:#4d4d4d;fill:#ffffff;fill-opacity:1;stroke:none;stroke-width:19.5"
         d="m 178,-349 v 19.5 h 39 V -349 Z m 58.5,0 v 19.5 h 39 V -349 Z m 58.5,0 v 19.5 h 39 V -349 Z m -156,39 v 39 h 19.5 v -39 z m 214.5,0 v 39 H 373 v -39 z M 139,-251.5 v 39 h 19.5 v -39 z m 214.5,0 v 39 H 373 v -39 z M 139,-193 v 39 h 19.5 v -39 z m 214.5,0 v 39 H 373 v -39 z M 178,-134.5 v 19.5 h 33 v -19.5 z m 123,0 v 19.5 h 33 v -19.5 z"
         class="ColorScheme-Text"
         id="path4-3"
         inkscape:connector-curvature="0"
         sodipodi:nodetypes="ccccccccccccccccccccccccccccccccccccccccccccccccccccccc" />
      <rect
         style="opacity:1;fill:#ffffff;fill-opacity:1;stroke:none;stroke-width:25;stroke-miterlimit:4;stroke-dasharray:none;stroke-dashoffset:0;stroke-opacity:1"
         id="rect835"
         width="70.847458"
         height="71.118645"
         x="100"
         y="-388"
         ry="15.911" />
      <rect
         ry="15.911"
         y="-388"
         x="341.15253"
         height="71.118645"
         width="70.847458"
         id="rect837"
         style="opacity:1;fill:#ffffff;fill-opacity:1;stroke:none;stroke-width:25;stroke-miterlimit:4;stroke-dasharray:none;stroke-dashoffset:0;stroke-opacity:1" />
      <rect
         style="opacity:1;fill:#ffffff;fill-opacity:1;stroke:none;stroke-width:25;stroke-miterlimit:4;stroke-dasharray:none;stroke-dashoffset:0;stroke-opacity:1"
         id="rect839"
         width="70.847458"
         height="71.118645"
         x="341.15253"
         y="-147.11865"
         ry="15.911" />
      <rect
         ry="15.911"
         y="-147.11864"
         x="100"
         height="71.118645"
         width="70.847458"
         id="rect841"
         style="opacity:1;fill:#ffffff;fill-opacity:1;stroke:none;stroke-width:25;stroke-miterlimit:4;stroke-dasharray:none;stroke-dashoffset:0;stroke-opacity:1" />
      <path
         style="color:#3daee9;fill:#ffffff;fill-opacity:1;stroke:none;stroke-width:19.5"
         d="m 256,-232 c -21.53911,0 -39,17.46089 -39,39 0,21.53911 17.46089,39 39,39 21.53911,0 39,-17.46089 39,-39 0,-21.53911 -17.46089,-39 -39,-39 z m 0,78 c -21.53911,0 -39,17.46089 -39,39 0,21.539105 17.46089,39 39,39 21.53911,0 39,-17.460895 39,-39 0,-21.53911 -17.46089,-39 -39,-39 z"
         class="ColorScheme-Highlight"
         id="path6"
         inkscape:connector-curvature="0"
         sodipodi:nodetypes="ssssssssss" />
    </g>
  </g>
</svg>
