<?xml version="1.0" encoding="UTF-8" standalone="no"?>
<svg
   xmlns:dc="http://purl.org/dc/elements/1.1/"
   xmlns:cc="http://creativecommons.org/ns#"
   xmlns:rdf="http://www.w3.org/1999/02/22-rdf-syntax-ns#"
   xmlns:svg="http://www.w3.org/2000/svg"
   xmlns="http://www.w3.org/2000/svg"
   xmlns:sodipodi="http://sodipodi.sourceforge.net/DTD/sodipodi-0.dtd"
   xmlns:inkscape="http://www.inkscape.org/namespaces/inkscape"
   viewBox="0 0 64 64"
   version="1.1"
   id="svg8"
   sodipodi:docname="standard-connector.svg"
   width="64"
   height="64"
   inkscape:version="0.92.2 5c3e80d, 2017-08-06">
  <metadata
     id="metadata12">
    <rdf:RDF>
      <cc:Work
         rdf:about="">
        <dc:format>image/svg+xml</dc:format>
        <dc:type
           rdf:resource="http://purl.org/dc/dcmitype/StillImage" />
        <dc:title></dc:title>
      </cc:Work>
    </rdf:RDF>
  </metadata>
  <sodipodi:namedview
     pagecolor="#ffffff"
     bordercolor="#666666"
     borderopacity="1"
     objecttolerance="10"
     gridtolerance="10"
     guidetolerance="10"
     inkscape:pageopacity="0"
     inkscape:pageshadow="2"
     inkscape:window-width="1366"
     inkscape:window-height="717"
     id="namedview10"
     showgrid="false"
     inkscape:zoom="1.84375"
     inkscape:cx="17.785556"
     inkscape:cy="29.649965"
     inkscape:window-x="0"
     inkscape:window-y="24"
     inkscape:window-maximized="1"
     inkscape:current-layer="svg8" />
  <defs
     id="defs3051">
    <style
       type="text/css"
       id="current-color-scheme">
      .ColorScheme-Text {
        color:#4d4d4d;
      }
      .ColorScheme-Highlight {
        color:#3daee9;
      }
      </style>
  </defs>
  <g
     id="g891"
     transform="matrix(0.125,0,0,0.125,6.1868113e-8,56)">
    <path
       style="fill:#3689e6;fill-opacity:1;stroke-width:11.10955906"
       inkscape:connector-curvature="0"
       d="m 432.91328,-391.52606 c 102.1929,88.57459 105.82676,249.69974 8.1168,359.898821 C 343.32007,78.571841 181.27963,96.100609 79.086738,7.526017 -23.106204,-81.04856 -26.740031,-242.17372 70.969938,-352.37279 168.67989,-462.57187 330.72033,-480.10064 432.91328,-391.52606 Z"
       id="path27-5" />
    <path
       style="opacity:1;fill:#000000;fill-opacity:0.49019608;stroke-width:11.10955906"
       inkscape:connector-curvature="0"
       d="m 511.63551,-223.09648 c -1.55139,61.31161 -25.16123,124.15457 -70.96637,175.814441 C 342.95912,62.917073 180.91868,80.445801 78.725756,-8.128751 30.827124,-49.644359 4.4968181,-107.07719 0.19382614,-167.77119 0.79907966,-101.41455 27.117404,-37.517815 79.078686,7.519025 181.27157,96.093617 343.31973,78.556153 441.02203,-31.634231 490.72698,-87.69237 514.02704,-156.92523 511.63551,-223.09648 Z"
       id="path51-6" />
    <g
       style="fill:#000000;fill-opacity:0.49019608"
       transform="translate(20,19.999996)"
       id="g879">
      <path
         inkscape:connector-curvature="0"
         id="path873"
         d="m 293.98633,-321.86914 -93.58008,221.999999 h -17.14063 a 44.004761,44.004765 0 0 1 4.74415,19.865235 44.004761,44.004765 0 0 1 -3.95313,18.126953 h 33.95703 l 93.54102,-221.999997 h 16.90234 a 44.004761,44.004765 0 0 1 -4.86719,-20.10157 44.004761,44.004765 0 0 1 3.83789,-17.89062 h -19.42187 z"
         style="color:#4d4d4d;fill:#000000;fill-opacity:0.49019608;stroke:none;stroke-width:26" />
      <ellipse
         ry="44.004765"
         rx="44.004761"
         cy="-80.004761"
         cx="144.00476"
         id="ellipse875"
         style="opacity:1;fill:#000000;fill-opacity:0.49019608;stroke:none;stroke-width:30;stroke-linecap:round;stroke-linejoin:round;stroke-miterlimit:4;stroke-dasharray:none;stroke-dashoffset:0;stroke-opacity:1" />
      <ellipse
         style="opacity:1;fill:#000000;fill-opacity:0.49019608;stroke:none;stroke-width:30;stroke-linecap:round;stroke-linejoin:round;stroke-miterlimit:4;stroke-dasharray:none;stroke-dashoffset:0;stroke-opacity:1"
         id="ellipse877"
         cx="367.59427"
         cy="-303.97784"
         rx="44.004761"
         ry="44.004765" />
    </g>
    <g
       id="g871">
      <path
         style="color:#4d4d4d;fill:#ffffff;fill-opacity:1;stroke:none;stroke-width:26"
         d="m 293.98633,-321.86914 -93.58008,221.999999 h -17.14063 a 44.004761,44.004765 0 0 1 4.74415,19.865235 44.004761,44.004765 0 0 1 -3.95313,18.126953 h 33.95703 l 93.54102,-221.999997 h 16.90234 a 44.004761,44.004765 0 0 1 -4.86719,-20.10157 44.004761,44.004765 0 0 1 3.83789,-17.89062 h -19.42187 z"
         id="path4"
         inkscape:connector-curvature="0" />
      <ellipse
         style="opacity:1;fill:#ffffff;fill-opacity:1;stroke:none;stroke-width:30;stroke-linecap:round;stroke-linejoin:round;stroke-miterlimit:4;stroke-dasharray:none;stroke-dashoffset:0;stroke-opacity:1"
         id="path855"
         cx="144.00476"
         cy="-80.004761"
         rx="44.004761"
         ry="44.004765" />
      <ellipse
         ry="44.004765"
         rx="44.004761"
         cy="-303.97784"
         cx="367.59427"
         id="ellipse857"
         style="opacity:1;fill:#ffffff;fill-opacity:1;stroke:none;stroke-width:30;stroke-linecap:round;stroke-linejoin:round;stroke-miterlimit:4;stroke-dasharray:none;stroke-dashoffset:0;stroke-opacity:1" />
    </g>
  </g>
</svg>
