<?xml version="1.0" encoding="UTF-8" standalone="no"?>
<svg
   xmlns:dc="http://purl.org/dc/elements/1.1/"
   xmlns:cc="http://creativecommons.org/ns#"
   xmlns:rdf="http://www.w3.org/1999/02/22-rdf-syntax-ns#"
   xmlns:svg="http://www.w3.org/2000/svg"
   xmlns="http://www.w3.org/2000/svg"
   xmlns:sodipodi="http://sodipodi.sourceforge.net/DTD/sodipodi-0.dtd"
   xmlns:inkscape="http://www.inkscape.org/namespaces/inkscape"
   viewBox="0 0 64 64"
   version="1.1"
   id="svg6"
   sodipodi:docname="stroke-cap-round.svg"
   width="64"
   height="64"
   inkscape:version="0.92.2 5c3e80d, 2017-08-06">
  <metadata
     id="metadata10">
    <rdf:RDF>
      <cc:Work
         rdf:about="">
        <dc:format>image/svg+xml</dc:format>
        <dc:type
           rdf:resource="http://purl.org/dc/dcmitype/StillImage" />
        <dc:title></dc:title>
      </cc:Work>
    </rdf:RDF>
  </metadata>
  <sodipodi:namedview
     pagecolor="#ffffff"
     bordercolor="#666666"
     borderopacity="1"
     objecttolerance="10"
     gridtolerance="10"
     guidetolerance="10"
     inkscape:pageopacity="0"
     inkscape:pageshadow="2"
     inkscape:window-width="1366"
     inkscape:window-height="717"
     id="namedview8"
     showgrid="false"
     inkscape:zoom="0.30729167"
     inkscape:cx="92.86456"
     inkscape:cy="108.4323"
     inkscape:window-x="0"
     inkscape:window-y="24"
     inkscape:window-maximized="1"
     inkscape:current-layer="svg6" />
  <defs
     id="defs3051">
    <style
       type="text/css"
       id="current-color-scheme">
      .ColorScheme-Text {
        color:#4d4d4d;
      }
      </style>
  </defs>
  <g
     id="g841"
     transform="matrix(0.125,0,0,0.125,4.6915712e-8,56.000001)">
    <path
       style="fill:#3689e6;fill-opacity:1;stroke-width:11.10955811"
       inkscape:connector-curvature="0"
       d="m 432.91317,-391.52604 c 102.19314,88.57459 105.82678,249.69971 8.11692,359.8988 C 343.32022,78.571843 181.27977,96.100612 79.086638,7.5260174 -23.106121,-81.048569 -26.740138,-242.17369 70.970103,-352.37278 168.67996,-462.57186 330.72042,-480.10063 432.91317,-391.52604 Z"
       id="path27" />
    <path
       style="opacity:1;fill:#000000;fill-opacity:0.49019608;stroke-width:11.10955811"
       inkscape:connector-curvature="0"
       d="m 511.63544,-223.09649 c -1.55112,61.31165 -25.16107,124.154609 -70.9663,175.814482 C 342.95927,62.917115 180.91883,80.445843 78.725693,-8.128711 30.826983,-49.644368 4.4969031,-107.07716 0.19391083,-167.7712 0.79901325,-101.41452 27.117377,-37.517824 79.078701,7.5190654 181.27146,96.09362 343.31985,78.556195 441.02215,-31.634232 490.72709,-87.692337 514.02713,-156.9252 511.63544,-223.09649 Z"
       id="path51" />
    <path
       style="color:#4d4d4d;fill:#000000;fill-opacity:0.49019608;stroke:none;stroke-width:19.5"
       d="m 276,-328 c -54.01498,0 -97.5,43.48502 -97.5,97.5 v 117 97.5 H 198 256.5 V -17.942376 -21.370124 -54.999999 -211 -230.5 c 0,-10.803 8.697,-19.5 19.5,-19.5 10.803,0 19.5,8.697 19.5,19.5 V -54.999999 -35.5 -21.370124 -17.942376 -16 h 19.5 39 19.5 V -35.5 -211 -230.5 c 0,-54.015 -43.48502,-97.5 -97.5,-97.5 z"
       class="ColorScheme-Text"
       id="path835"
       inkscape:connector-curvature="0"
       sodipodi:nodetypes="ssccccccccsssccccccccccss" />
    <path
       sodipodi:nodetypes="ssccccccccsssccccccccccss"
       inkscape:connector-curvature="0"
       id="path4"
       class="ColorScheme-Text"
       d="m 256,-348 c -54.01498,0 -97.5,43.48502 -97.5,97.5 v 117 97.5 H 178 236.5 V -37.942376 -41.370124 -74.999999 -231 -250.5 c 0,-10.803 8.697,-19.5 19.5,-19.5 10.803,0 19.5,8.697 19.5,19.5 V -74.999999 -55.5 -41.370124 -37.942376 -36 h 19.5 39 19.5 V -55.5 -231 -250.5 c 0,-54.015 -43.48502,-97.5 -97.5,-97.5 z"
       style="color:#4d4d4d;fill:#ffffff;fill-opacity:1;stroke:none;stroke-width:19.5" />
  </g>
</svg>
