<?xml version="1.0" encoding="UTF-8" standalone="no"?>
<svg
   xmlns:dc="http://purl.org/dc/elements/1.1/"
   xmlns:cc="http://creativecommons.org/ns#"
   xmlns:rdf="http://www.w3.org/1999/02/22-rdf-syntax-ns#"
   xmlns:svg="http://www.w3.org/2000/svg"
   xmlns="http://www.w3.org/2000/svg"
   xmlns:sodipodi="http://sodipodi.sourceforge.net/DTD/sodipodi-0.dtd"
   xmlns:inkscape="http://www.inkscape.org/namespaces/inkscape"
   viewBox="0 0 64 64"
   version="1.1"
   id="svg6"
   sodipodi:docname="symbols.svg"
   width="64"
   height="64"
   inkscape:version="0.92.2 5c3e80d, 2017-08-06">
  <metadata
     id="metadata10">
    <rdf:RDF>
      <cc:Work
         rdf:about="">
        <dc:format>image/svg+xml</dc:format>
        <dc:type
           rdf:resource="http://purl.org/dc/dcmitype/StillImage" />
        <dc:title></dc:title>
      </cc:Work>
    </rdf:RDF>
  </metadata>
  <sodipodi:namedview
     pagecolor="#ffffff"
     bordercolor="#666666"
     borderopacity="1"
     objecttolerance="10"
     gridtolerance="10"
     guidetolerance="10"
     inkscape:pageopacity="0"
     inkscape:pageshadow="2"
     inkscape:window-width="1366"
     inkscape:window-height="717"
     id="namedview8"
     showgrid="false"
     inkscape:zoom="0.4609375"
     inkscape:cx="509.7848"
     inkscape:cy="217.32592"
     inkscape:window-x="0"
     inkscape:window-y="24"
     inkscape:window-maximized="1"
     inkscape:current-layer="svg6" />
  <defs
     id="defs3051">
    <style
       type="text/css"
       id="current-color-scheme">
      .ColorScheme-Text {
        color:#4d4d4d;
      }
      </style>
  </defs>
  <g
     id="g844"
     transform="matrix(0.125,0,0,0.125,4.2184711e-7,62)">
    <path
       style="fill:#3689e6;fill-opacity:1;stroke-width:11.10955811"
       inkscape:connector-curvature="0"
       d="m 432.91315,-439.52602 c 102.19314,88.57459 105.82678,249.6997 8.11692,359.898784 C 343.3202,30.571841 181.27976,48.100608 79.086634,-40.47398 -23.10612,-129.04856 -26.740137,-290.17367 70.970104,-400.37277 168.67995,-510.57184 330.7204,-528.10061 432.91315,-439.52602 Z"
       id="path27" />
    <path
       style="opacity:1;fill:#000000;fill-opacity:0.49019608;stroke-width:11.10955811"
       inkscape:connector-curvature="0"
       d="m 511.63542,-271.09647 c -1.55112,61.31164 -25.16108,124.1546 -70.9663,175.814466 C 342.95925,14.917113 180.91882,32.445841 78.725694,-56.128708 30.826984,-97.644364 4.4969035,-155.07715 0.19391052,-215.77119 0.79901352,-149.41451 27.117374,-85.51782 79.078694,-40.480932 181.27144,48.093616 343.31983,30.556193 441.02213,-79.634228 490.72706,-135.69233 514.0271,-204.92519 511.63542,-271.09647 Z"
       id="path51" />
    <path
       style="color:#4d4d4d;fill:#000000;fill-opacity:0.49019608;stroke:none;stroke-width:26"
       d="M 275.99999,-376 C 189.836,-376 120,-306.16399 120,-219.99999 120,-133.836 189.836,-64 275.99999,-64 362.164,-64 432,-133.836 432,-219.99999 432,-306.16399 362.164,-376 275.99999,-376 M 224,-298 c 14.35199,0 26,11.648 26,26.00001 0,14.352 -11.64801,26 -26,26 -14.352,0 -26,-11.648 -26,-26 C 198,-286.352 209.648,-298 224,-298 m 104,0 c 14.352,0 26,11.648 26,26.00001 0,14.352 -11.648,26 -26,26 -14.352,0 -26,-11.648 -26,-26 C 302,-286.352 313.648,-298 328,-298 M 198,-193.99999 H 354 C 354,-150.918 319.082,-116 275.99999,-116 232.918,-116 198,-150.918 198,-193.99999"
       class="ColorScheme-Text"
       id="path30"
       inkscape:connector-curvature="0" />
    <path
       inkscape:connector-curvature="0"
       id="path4"
       class="ColorScheme-Text"
       d="M 255.99999,-396 C 169.836,-396 100,-326.16399 100,-239.99999 100,-153.836 169.836,-84 255.99999,-84 342.164,-84 412,-153.836 412,-239.99999 412,-326.16399 342.164,-396 255.99999,-396 M 204,-318 c 14.35199,0 26,11.648 26,26.00001 0,14.352 -11.64801,26 -26,26 -14.352,0 -26,-11.648 -26,-26 C 178,-306.352 189.648,-318 204,-318 m 104,0 c 14.352,0 26,11.648 26,26.00001 0,14.352 -11.648,26 -26,26 -14.352,0 -26,-11.648 -26,-26 C 282,-306.352 293.648,-318 308,-318 M 178,-213.99999 H 334 C 334,-170.918 299.082,-136 255.99999,-136 212.918,-136 178,-170.918 178,-213.99999"
       style="color:#4d4d4d;fill:#ffffff;fill-opacity:1;stroke:none;stroke-width:26" />
  </g>
</svg>
