<?xml version="1.0" encoding="UTF-8" standalone="no"?>
<svg
   xmlns:dc="http://purl.org/dc/elements/1.1/"
   xmlns:cc="http://creativecommons.org/ns#"
   xmlns:rdf="http://www.w3.org/1999/02/22-rdf-syntax-ns#"
   xmlns:svg="http://www.w3.org/2000/svg"
   xmlns="http://www.w3.org/2000/svg"
   xmlns:sodipodi="http://sodipodi.sourceforge.net/DTD/sodipodi-0.dtd"
   xmlns:inkscape="http://www.inkscape.org/namespaces/inkscape"
   viewBox="0 0 64 64"
   version="1.1"
   id="svg6"
   sodipodi:docname="system-shutdown-symbolic.svg"
   width="64"
   height="64"
   inkscape:version="0.92.2 5c3e80d, 2017-08-06">
  <metadata
     id="metadata10">
    <rdf:RDF>
      <cc:Work
         rdf:about="">
        <dc:format>image/svg+xml</dc:format>
        <dc:type
           rdf:resource="http://purl.org/dc/dcmitype/StillImage" />
        <dc:title />
      </cc:Work>
    </rdf:RDF>
  </metadata>
  <sodipodi:namedview
     pagecolor="#ffffff"
     bordercolor="#666666"
     borderopacity="1"
     objecttolerance="10"
     gridtolerance="10"
     guidetolerance="10"
     inkscape:pageopacity="0"
     inkscape:pageshadow="2"
     inkscape:window-width="1366"
     inkscape:window-height="717"
     id="namedview8"
     showgrid="false"
     inkscape:zoom="1.84375"
     inkscape:cx="-11.75672"
     inkscape:cy="37.243427"
     inkscape:window-x="0"
     inkscape:window-y="24"
     inkscape:window-maximized="1"
     inkscape:current-layer="svg6" />
  <defs
     id="defs3051">
    <style
       type="text/css"
       id="current-color-scheme">
      .ColorScheme-Text {
        color:#bebebe;
      }
      </style>
  </defs>
  <g
     id="g825">
    <path
       style="fill:#c6262e;fill-opacity:1;stroke-width:1.38869476"
       inkscape:connector-curvature="0"
       d="M 54.114159,7.0592437 C 66.888272,18.131067 67.342506,38.271706 55.128759,52.046591 42.915013,65.821482 22.659955,68.01257 9.8858411,56.940749 -2.8882733,45.868925 -3.3425053,25.728286 8.871241,11.953401 21.084987,-1.821485 41.340045,-4.01258 54.114159,7.0592437 Z"
       id="path27" />
    <path
       style="opacity:1;fill:#000000;fill-opacity:0.49019608;stroke-width:1.38869476"
       inkscape:connector-curvature="0"
       d="M 63.954439,28.112937 C 63.760514,35.776895 60.809285,43.632262 55.083641,50.089749 42.869895,63.864632 22.614836,66.055732 9.8407227,54.983906 3.853391,49.794452 0.56210324,42.615351 0.024229,35.028596 0.09988545,43.323181 3.3896769,51.310271 9.8848358,56.939877 22.65895,68.011695 42.914969,65.81952 55.127754,52.04572 61.340871,45.038452 64.253381,36.384349 63.954439,28.112937 Z"
       id="path51" />
    <path
       style="fill:#000000;fill-opacity:0.49019608;stroke-width:0.02494289"
       d="m 33.507574,53.78704 c -0.06859,-0.005 -0.287467,-0.02102 -0.486388,-0.03557 -3.608129,-0.263533 -7.130629,-1.581916 -10.064454,-3.766866 -2.039766,-1.519105 -3.778414,-3.438638 -5.082257,-5.610997 -2.189306,-3.647651 -3.107979,-7.90611 -2.623189,-12.159657 0.569033,-4.99267 3.058839,-9.547341 6.982103,-12.772554 0.554261,-0.455641 0.831082,-0.606217 1.282715,-0.69773 0.316597,-0.06415 0.815025,-0.04115 1.099331,0.05074 1.34036,0.433204 1.983489,1.872184 1.396539,3.124705 -0.186829,0.398684 -0.347572,0.579194 -0.971424,1.090914 -1.473281,1.208461 -2.730783,2.747348 -3.648399,4.464775 -1.676241,3.137291 -2.159304,6.831028 -1.352967,10.34546 0.886006,3.861675 3.325307,7.229263 6.746281,9.31362 1.987405,1.210895 4.220757,1.919793 6.634809,2.105971 0.499182,0.03851 1.650132,0.03832 2.145087,-3.75e-4 1.31228,-0.102562 2.596119,-0.361497 3.736244,-0.753557 4.297496,-1.477791 7.653193,-4.795431 9.173394,-9.069364 0.9185,-2.582306 1.095807,-5.504854 0.496814,-8.189097 -0.397559,-1.781543 -1.081862,-3.400697 -2.07617,-4.912479 -0.857933,-1.304434 -1.77748,-2.32484 -3.060767,-3.396483 -0.218976,-0.182862 -0.457487,-0.405435 -0.530023,-0.494607 -0.167043,-0.205348 -0.362949,-0.598758 -0.43473,-0.873 -0.07934,-0.303109 -0.07885,-0.797915 0.0011,-1.097476 0.216672,-0.812127 0.831252,-1.431577 1.636195,-1.649159 0.286116,-0.07734 0.837581,-0.07808 1.122428,-0.0014 0.325563,0.08752 0.660084,0.269637 0.997717,0.543162 0.79687,0.645561 1.692132,1.494972 2.310866,2.192503 2.451982,2.764257 4.035426,6.05863 4.646187,9.666454 0.197514,1.166735 0.251405,1.858913 0.251405,3.229015 0,1.364721 -0.05296,2.048641 -0.249491,3.221873 -1.016541,6.068433 -4.925665,11.340326 -10.466202,14.114868 -2.185803,1.094584 -4.438162,1.73047 -6.981249,1.970948 -0.3857,0.03647 -2.302413,0.0696 -2.631475,0.0455 z m 0.4365,-17.882646 c -1.237361,-0.225118 -2.213114,-1.217457 -2.432148,-2.473488 -0.03244,-0.186014 -0.03719,-1.215785 -0.0371,-8.048344 9.4e-5,-6.927032 0.0045,-7.862413 0.03842,-8.071303 0.243182,-1.499528 1.609371,-2.595917 3.12941,-2.511407 1.262662,0.0702 2.314086,0.875339 2.718184,2.08149 0.160398,0.478762 0.151402,-0.06077 0.143452,8.602715 -0.0069,7.495824 -0.0094,7.88632 -0.05228,8.064335 -0.09938,0.41264 -0.238807,0.740084 -0.450797,1.058689 -0.448195,0.673591 -1.172432,1.147843 -1.981117,1.29729 -0.256776,0.04745 -0.815272,0.04747 -1.076024,2.3e-5 z"
       id="path872"
       inkscape:connector-curvature="0" />
    <path
       inkscape:connector-curvature="0"
       id="path870"
       d="m 31.007572,51.287034 c -0.06859,-0.005 -0.287466,-0.02102 -0.486387,-0.03557 -3.608129,-0.263533 -7.130629,-1.581918 -10.064454,-3.766866 -2.039766,-1.519107 -3.778415,-3.438639 -5.082257,-5.610998 -2.189307,-3.64765 -3.107979,-7.90611 -2.623189,-12.159656 0.569032,-4.992671 3.05884,-9.547343 6.982102,-12.772555 0.554262,-0.455641 0.831083,-0.606218 1.282715,-0.697729 0.316599,-0.06415 0.815025,-0.04115 1.099332,0.05074 1.34036,0.433205 1.983488,1.872184 1.396538,3.124705 -0.186828,0.398684 -0.347571,0.579194 -0.971423,1.090914 -1.473282,1.208461 -2.730783,2.747348 -3.648399,4.464775 -1.676241,3.137291 -2.159304,6.831029 -1.352968,10.34546 0.886008,3.861675 3.325308,7.229263 6.746282,9.31362 1.987405,1.210895 4.220757,1.919793 6.634808,2.105973 0.499183,0.0385 1.650133,0.03831 2.145088,-3.75e-4 1.31228,-0.102563 2.596119,-0.361498 3.736244,-0.753558 4.297496,-1.47779 7.653192,-4.795431 9.173393,-9.069364 0.918503,-2.582305 1.095807,-5.504853 0.496813,-8.189097 -0.397555,-1.781543 -1.08186,-3.400696 -2.076169,-4.912479 -0.857932,-1.304434 -1.77748,-2.32484 -3.060766,-3.396482 -0.218976,-0.182863 -0.457488,-0.405435 -0.530024,-0.494608 -0.167042,-0.205346 -0.362949,-0.598757 -0.43473,-0.873 -0.07934,-0.303109 -0.07885,-0.797915 0.0011,-1.097476 0.216673,-0.812125 0.831253,-1.431577 1.636195,-1.649159 0.286116,-0.07734 0.837581,-0.07808 1.122429,-0.0014 0.325562,0.08752 0.660084,0.269636 0.997716,0.543161 0.79687,0.645562 1.692133,1.494972 2.310866,2.192504 2.451985,2.764256 4.035428,6.058629 4.64619,9.666453 0.197513,1.166735 0.251404,1.858914 0.251404,3.229017 0,1.364721 -0.05296,2.04864 -0.249491,3.221872 -1.016541,6.068433 -4.925665,11.340325 -10.466204,14.114868 -2.185802,1.094583 -4.438161,1.730471 -6.981249,1.970947 -0.3857,0.03647 -2.302412,0.0696 -2.631475,0.0455 z m 0.4365,-17.882645 C 30.206711,33.17927 29.230959,32.186931 29.011925,30.9309 c -0.03244,-0.186014 -0.03719,-1.215784 -0.0371,-8.048344 9.3e-5,-6.927032 0.0045,-7.862414 0.03842,-8.071304 0.243183,-1.499527 1.609372,-2.595916 3.12941,-2.511406 1.262663,0.0702 2.314087,0.875339 2.718184,2.08149 0.160399,0.478763 0.151403,-0.06077 0.143453,8.602715 -0.0069,7.495824 -0.0094,7.88632 -0.05228,8.064335 -0.09938,0.41264 -0.238808,0.740084 -0.450798,1.058689 -0.448195,0.673593 -1.172431,1.147843 -1.981116,1.29729 -0.256776,0.04745 -0.815273,0.04747 -1.076025,2.4e-5 z"
       style="fill:#ffffff;stroke-width:0.02494289" />
  </g>
</svg>
