<?xml version="1.0" encoding="UTF-8" standalone="no"?>
<svg
   xmlns:dc="http://purl.org/dc/elements/1.1/"
   xmlns:cc="http://creativecommons.org/ns#"
   xmlns:rdf="http://www.w3.org/1999/02/22-rdf-syntax-ns#"
   xmlns:svg="http://www.w3.org/2000/svg"
   xmlns="http://www.w3.org/2000/svg"
   xmlns:sodipodi="http://sodipodi.sourceforge.net/DTD/sodipodi-0.dtd"
   xmlns:inkscape="http://www.inkscape.org/namespaces/inkscape"
   viewBox="0 0 64 64"
   version="1.1"
   id="svg6"
   sodipodi:docname="CVnamespace.svg"
   width="64"
   height="64"
   inkscape:version="0.92.2 5c3e80d, 2017-08-06">
  <metadata
     id="metadata10">
    <rdf:RDF>
      <cc:Work
         rdf:about="">
        <dc:format>image/svg+xml</dc:format>
        <dc:type
           rdf:resource="http://purl.org/dc/dcmitype/StillImage" />
        <dc:title></dc:title>
      </cc:Work>
    </rdf:RDF>
  </metadata>
  <sodipodi:namedview
     pagecolor="#ffffff"
     bordercolor="#666666"
     borderopacity="1"
     objecttolerance="10"
     gridtolerance="10"
     guidetolerance="10"
     inkscape:pageopacity="0"
     inkscape:pageshadow="2"
     inkscape:window-width="1366"
     inkscape:window-height="717"
     id="namedview8"
     showgrid="false"
     inkscape:zoom="2.4583333"
     inkscape:cx="20.509325"
     inkscape:cy="16.913596"
     inkscape:window-x="0"
     inkscape:window-y="24"
     inkscape:window-maximized="1"
     inkscape:current-layer="svg6" />
  <defs
     id="defs3051">
    <style
       type="text/css"
       id="current-color-scheme">
      .ColorScheme-Text {
        color:#4d4d4d;
      }
      </style>
  </defs>
  <g
     id="g876"
     transform="matrix(0.125,0,0,0.125,-1.576692e-8,56.000005)">
    <path
       style="fill:#3689e6;fill-opacity:1;stroke-width:11.10955811"
       inkscape:connector-curvature="0"
       d="m 432.91327,-391.52603 c 102.19291,88.57459 105.82678,249.69971 8.1168,359.89879 C 343.3201,78.57183 181.27964,96.10063 79.086729,7.52602 -23.106186,-81.04857 -26.740042,-242.17369 70.969928,-352.37277 168.6799,-462.57185 330.72036,-480.10062 432.91327,-391.52603 Z"
       id="path27" />
    <path
       style="opacity:1;fill:#000000;fill-opacity:0.49019608;stroke-width:11.10955811"
       inkscape:connector-curvature="0"
       d="m 511.63551,-223.09648 c -1.55139,61.31165 -25.16123,124.15461 -70.96638,175.81447 C 342.95915,62.91713 180.91869,80.44583 78.725776,-8.12871 30.827124,-49.64436 4.4968216,-107.07716 0.1938277,-167.77119 0.79907936,-101.41452 27.117411,-37.51782 79.078682,7.51907 181.27159,96.09363 343.31975,78.55623 441.02202,-31.63423 c 49.70495,-56.05811 73.00502,-125.29096 70.61349,-191.46225 z"
       id="path51" />
    <g
       style="fill:#000000;fill-opacity:0.49019608"
       transform="translate(20,20.000004)"
       id="g864">
      <g
         style="fill:#000000;fill-opacity:0.49019608"
         id="g860"
         transform="translate(0,-989.36218)">
        <path
           style="fill:#000000;fill-opacity:0.49019608;stroke-width:1.59183669"
           d="m 125.24365,918.37836 c -8.44863,-2.04583 -16.30958,-7.97562 -20.88019,-15.7507 L 100,895.20498 V 796.5111 697.81722 l 4.41986,-7.51891 c 2.86612,-4.87575 7.06303,-9.07266 11.93878,-11.93878 l 7.51891,-4.41986 H 256 388.12245 l 7.51891,4.41986 c 4.87575,2.86612 9.07266,7.06303 11.93878,11.93878 L 412,697.81722 v 98.81871 98.81871 l -4.78971,7.74718 c -3.40167,5.50208 -7.07945,8.92572 -12.69087,11.81395 l -7.90116,4.06676 -128.18668,0.25343 c -70.50267,0.13945 -130.43724,-0.29153 -133.18793,-0.9576 z m 261.35931,-24.69287 c 3.11589,-3.11588 3.90724,-5.53391 3.90724,-11.93878 v -8.03153 H 256 121.4898 v 8.03153 c 0,6.40487 0.79135,8.8229 3.90722,11.93878 l 3.90725,3.90724 H 256 382.69573 Z m 3.90724,-115.55288 v -74.88867 l -3.90724,-3.90723 -3.90723,-3.90724 H 256.28702 c -125.47392,0 -126.43972,0.0244 -130.60296,3.29921 l -4.19426,3.2992 v 75.49671 75.49671 H 256 390.5102 Z"
           id="path858"
           inkscape:connector-curvature="0"
           sodipodi:nodetypes="cscccsscccsscccsccsccscccscccccccccsccccccc" />
      </g>
      <path
         style="fill:#000000;fill-opacity:0.49019608;stroke-width:1.51095128"
         d="m 222.06008,-151.01356 c -2.0285,-2.89656 -2.35172,-11.26147 -2.35172,-60.85736 0,-50.7494 0.29124,-57.91283 2.46759,-61.0224 1.98046,-2.82781 3.42925,-3.36707 7.34057,-2.73234 5.42336,0.88014 75.74585,50.05596 80.83751,56.52919 3.44016,4.37341 3.77875,8.7133 1.06052,13.60457 -1.02621,1.84637 -19.11201,15.61487 -40.19065,30.59674 -40.51956,28.79975 -44.39884,30.68406 -49.16382,23.8816 z"
         id="path862"
         inkscape:connector-curvature="0"
         sodipodi:nodetypes="cscscccc" />
    </g>
    <g
       id="g856">
      <g
         transform="translate(0,-989.36218)"
         id="g846">
        <path
           sodipodi:nodetypes="cscccsscccsscccsccsccscccscccccccccsccccccc"
           inkscape:connector-curvature="0"
           id="path941"
           d="m 125.24365,918.37836 c -8.44863,-2.04583 -16.30958,-7.97562 -20.88019,-15.7507 L 100,895.20498 V 796.5111 697.81722 l 4.41986,-7.51891 c 2.86612,-4.87575 7.06303,-9.07266 11.93878,-11.93878 l 7.51891,-4.41986 H 256 388.12245 l 7.51891,4.41986 c 4.87575,2.86612 9.07266,7.06303 11.93878,11.93878 L 412,697.81722 v 98.81871 98.81871 l -4.78971,7.74718 c -3.40167,5.50208 -7.07945,8.92572 -12.69087,11.81395 l -7.90116,4.06676 -128.18668,0.25343 c -70.50267,0.13945 -130.43724,-0.29153 -133.18793,-0.9576 z m 261.35931,-24.69287 c 3.11589,-3.11588 3.90724,-5.53391 3.90724,-11.93878 v -8.03153 H 256 121.4898 v 8.03153 c 0,6.40487 0.79135,8.8229 3.90722,11.93878 l 3.90725,3.90724 H 256 382.69573 Z m 3.90724,-115.55288 v -74.88867 l -3.90724,-3.90723 -3.90723,-3.90724 H 256.28702 c -125.47392,0 -126.43972,0.0244 -130.60296,3.29921 l -4.19426,3.2992 v 75.49671 75.49671 H 256 390.5102 Z"
           style="fill:#ffffff;stroke-width:1.59183669" />
      </g>
      <path
         sodipodi:nodetypes="cscscccc"
         inkscape:connector-curvature="0"
         id="path890"
         d="m 222.06008,-151.01356 c -2.0285,-2.89656 -2.35172,-11.26147 -2.35172,-60.85736 0,-50.7494 0.29124,-57.91283 2.46759,-61.0224 1.98046,-2.82781 3.42925,-3.36707 7.34057,-2.73234 5.42336,0.88014 75.74585,50.05596 80.83751,56.52919 3.44016,4.37341 3.77875,8.7133 1.06052,13.60457 -1.02621,1.84637 -19.11201,15.61487 -40.19065,30.59674 -40.51956,28.79975 -44.39884,30.68406 -49.16382,23.8816 z"
         style="fill:#ffffff;stroke-width:1.51095128" />
    </g>
  </g>
</svg>
