<?xml version="1.0" encoding="UTF-8" standalone="no"?>
<svg
   xmlns:dc="http://purl.org/dc/elements/1.1/"
   xmlns:cc="http://creativecommons.org/ns#"
   xmlns:rdf="http://www.w3.org/1999/02/22-rdf-syntax-ns#"
   xmlns:svg="http://www.w3.org/2000/svg"
   xmlns="http://www.w3.org/2000/svg"
   xmlns:sodipodi="http://sodipodi.sourceforge.net/DTD/sodipodi-0.dtd"
   xmlns:inkscape="http://www.inkscape.org/namespaces/inkscape"
   viewBox="0 0 64 64"
   version="1.1"
   id="svg6"
   sodipodi:docname="system-lock-screen.svg"
   width="64"
   height="64"
   inkscape:version="0.92.2 5c3e80d, 2017-08-06">
  <metadata
     id="metadata10">
    <rdf:RDF>
      <cc:Work
         rdf:about="">
        <dc:format>image/svg+xml</dc:format>
        <dc:type
           rdf:resource="http://purl.org/dc/dcmitype/StillImage" />
        <dc:title></dc:title>
      </cc:Work>
    </rdf:RDF>
  </metadata>
  <sodipodi:namedview
     pagecolor="#ffffff"
     bordercolor="#666666"
     borderopacity="1"
     objecttolerance="10"
     gridtolerance="10"
     guidetolerance="10"
     inkscape:pageopacity="0"
     inkscape:pageshadow="2"
     inkscape:window-width="1366"
     inkscape:window-height="717"
     id="namedview8"
     showgrid="false"
     inkscape:zoom="0.4609375"
     inkscape:cx="515.19952"
     inkscape:cy="312.75356"
     inkscape:window-x="0"
     inkscape:window-y="24"
     inkscape:window-maximized="1"
     inkscape:current-layer="svg6" />
  <defs
     id="defs3051">
    <style
       type="text/css"
       id="current-color-scheme">
      .ColorScheme-Text {
        color:#4d4d4d;
      }
      </style>
  </defs>
  <g
     id="g868"
     transform="matrix(0.125,0,0,0.125,6.6401318e-8,56.000015)">
    <path
       style="fill:#f9c440;fill-opacity:1;stroke-width:11.10955811"
       inkscape:connector-curvature="0"
       d="m 432.91328,-391.52603 c 102.19291,88.57459 105.82677,249.69972 8.1168,359.8988 C 343.32011,78.57184 181.27966,96.10064 79.086744,7.52604 -23.106206,-81.04856 -26.740033,-242.17368 70.969944,-352.37277 168.67988,-462.57186 330.72037,-480.10063 432.91328,-391.52603 Z"
       id="path890" />
    <path
       style="opacity:1;fill:#000000;fill-opacity:0.49019608;stroke-width:11.10955811"
       inkscape:connector-curvature="0"
       d="m 511.63555,-223.09647 c -1.5514,61.31166 -25.16123,124.1546 -70.96639,175.81449 C 342.95918,62.91714 180.91871,80.44584 78.725795,-8.12871 30.827138,-49.64434 4.4968342,-107.07716 0.19383968,-167.7712 0.79909162,-101.41452 27.117425,-37.51779 79.078699,7.51907 181.27162,96.09364 343.31978,78.55624 441.02206,-31.6342 490.727,-87.69234 514.02709,-156.92518 511.63555,-223.09647 Z"
       id="path892" />
    <g
       style="fill:#000000;fill-opacity:0.49019608"
       id="g50"
       transform="matrix(0.80358307,0,0,0.80358307,40.579322,-17.13338)">
      <path
         sodipodi:nodetypes="ccccsccccccccccsscccccccccccsccccc"
         inkscape:connector-curvature="0"
         id="path46"
         d="m 98.903212,-201.00792 c 0.0403,-0.5529 0.16925,-2.31694 0.28692,-3.92018 2.124068,-29.0806 12.749868,-57.47104 30.359998,-81.11695 12.24364,-16.43994 27.71456,-30.45301 45.22322,-40.96162 29.39911,-17.64528 63.7212,-25.04952 98.00364,-21.14224 40.23971,4.58624 76.94918,24.65346 102.94354,56.27393 3.67234,4.46719 4.88597,6.69829 5.62352,10.33831 0.51743,2.55171 0.33206,6.56893 -0.40863,8.86039 -3.49156,10.80296 -15.08937,15.98642 -25.18436,11.25576 -3.21325,-1.50581 -4.66812,-2.80141 -8.79245,-7.82948 -9.73987,-11.87426 -22.14293,-22.00938 -35.98497,-29.40516 -25.28575,-13.51006 -55.05626,-17.4034 -83.38174,-10.90459 -31.12407,7.14101 -58.26597,26.80114 -75.06538,54.37336 -9.75946,16.01793 -15.47301,34.01815 -16.97357,53.47485 -0.3103,4.02326 -0.30869,13.29962 0.003,17.28879 0.82661,10.57664 2.91352,20.92406 6.07342,30.11322 11.91061,34.63666 38.65001,61.682729 73.09678,73.935149 20.81267,7.40287 44.36767,8.83195 66.00204,4.00416 14.35875,-3.20415 27.40868,-8.71951 39.59324,-16.73339 10.51345,-6.914699 18.73761,-14.326029 27.37483,-24.668939 1.4738,-1.76492 3.26766,-3.68725 3.98635,-4.2719 1.65507,-1.3463 4.82585,-2.92521 7.03615,-3.50382 2.44299,-0.63913 6.43103,-0.6351 8.84541,0.008 6.54556,1.74639 11.53816,6.69975 13.2918,13.18735 0.62302,2.30606 0.62947,6.75068 0.008,9.0465 -0.70523,2.62393 -2.17323,5.320079 -4.37773,8.041289 -5.20304,6.42256 -12.04907,13.63821 -17.67106,18.62501 -22.27914,19.76241 -48.831,32.52453 -77.9091,37.44709 -9.40354,1.59188 -14.98233,2.02622 -26.02506,2.02622 -10.99929,0 -16.51151,-0.42716 -25.96744,-2.01082 -48.90998,-8.19305 -91.40006,-39.69955 -113.76221,-84.354869 -8.82204,-17.61699 -13.94715,-35.77043 -15.885268,-56.26708 -0.29418,-3.10864 -0.56096,-18.55683 -0.36672,-21.20897 z"
         style="fill:#000000;fill-opacity:0.49019608;stroke-width:0.20103325" />
      <path
         style="fill:#000000;fill-opacity:0.49019608;stroke-width:2.22099829"
         d="m 238.39736,-111.6557 c -63.31608,-17.02004 -84.64222,-95.37509 -38.51123,-141.50604 40.56703,-40.56703 105.54969,-31.10184 134.12802,19.5357 l 6.91805,12.26385 h 73.08004 73.08199 v 27.76271 27.76267 h -14.44539 -14.44539 v 28.87313 28.87314 H 430.44072 402.678 v -28.87314 -28.87313 h -31.05663 -31.05665 l -5.48333,10.82914 c -11.28118,22.27544 -35.24289,39.82609 -60.96749,44.66876 -15.34949,2.88907 -20.86231,2.69254 -35.73423,-1.37563 z m 37.70347,-58.38501 c 13.99344,-9.72853 16.43044,-29.11093 5.32615,-42.31029 -11.06498,-13.14826 -29.55118,-13.50202 -42.22382,-0.78614 -6.32848,6.32844 -7.52735,9.11928 -7.52735,17.55069 0,15.68356 7.86149,26.97259 21.19053,30.41982 6.52501,1.76897 16.98074,-0.39307 23.2286,-4.81511 z"
         id="path48"
         inkscape:connector-curvature="0" />
    </g>
    <g
       transform="matrix(0.80358307,0,0,0.80358307,20.579322,-37.13338)"
       id="g44">
      <path
         style="fill:#ffffff;stroke-width:0.20103325"
         d="m 98.903212,-201.00792 c 0.0403,-0.5529 0.16925,-2.31694 0.28692,-3.92018 2.124068,-29.0806 12.749868,-57.47104 30.359998,-81.11695 12.24364,-16.43994 27.71456,-30.45301 45.22322,-40.96162 29.39911,-17.64528 63.7212,-25.04952 98.00364,-21.14224 40.23971,4.58624 76.94918,24.65346 102.94354,56.27393 3.67234,4.46719 4.88597,6.69829 5.62352,10.33831 0.51743,2.55171 0.33206,6.56893 -0.40863,8.86039 -3.49156,10.80296 -15.08937,15.98642 -25.18436,11.25576 -3.21325,-1.50581 -4.66812,-2.80141 -8.79245,-7.82948 -9.73987,-11.87426 -22.14293,-22.00938 -35.98497,-29.40516 -25.28575,-13.51006 -55.05626,-17.4034 -83.38174,-10.90459 -31.12407,7.14101 -58.26597,26.80114 -75.06538,54.37336 -9.75946,16.01793 -15.47301,34.01815 -16.97357,53.47485 -0.3103,4.02326 -0.30869,13.29962 0.003,17.28879 0.82661,10.57664 2.91352,20.92406 6.07342,30.11322 11.91061,34.63666 38.65001,61.682729 73.09678,73.935149 20.81267,7.40287 44.36767,8.83195 66.00204,4.00416 14.35875,-3.20415 27.40868,-8.71951 39.59324,-16.73339 10.51345,-6.914699 18.73761,-14.326029 27.37483,-24.668939 1.4738,-1.76492 3.26766,-3.68725 3.98635,-4.2719 1.65507,-1.3463 4.82585,-2.92521 7.03615,-3.50382 2.44299,-0.63913 6.43103,-0.6351 8.84541,0.008 6.54556,1.74639 11.53816,6.69975 13.2918,13.18735 0.62302,2.30606 0.62947,6.75068 0.008,9.0465 -0.70523,2.62393 -2.17323,5.320079 -4.37773,8.041289 -5.20304,6.42256 -12.04907,13.63821 -17.67106,18.62501 -22.27914,19.76241 -48.831,32.52453 -77.9091,37.44709 -9.40354,1.59188 -14.98233,2.02622 -26.02506,2.02622 -10.99929,0 -16.51151,-0.42716 -25.96744,-2.01082 -48.90998,-8.19305 -91.40006,-39.69955 -113.76221,-84.354869 -8.82204,-17.61699 -13.94715,-35.77043 -15.885268,-56.26708 -0.29418,-3.10864 -0.56096,-18.55683 -0.36672,-21.20897 z"
         id="path870"
         inkscape:connector-curvature="0"
         sodipodi:nodetypes="ccccsccccccccccsscccccccccccsccccc" />
      <path
         inkscape:connector-curvature="0"
         id="path1344"
         d="m 238.39736,-111.6557 c -63.31608,-17.02004 -84.64222,-95.37509 -38.51123,-141.50604 40.56703,-40.56703 105.54969,-31.10184 134.12802,19.5357 l 6.91805,12.26385 h 73.08004 73.08199 v 27.76271 27.76267 h -14.44539 -14.44539 v 28.87313 28.87314 H 430.44072 402.678 v -28.87314 -28.87313 h -31.05663 -31.05665 l -5.48333,10.82914 c -11.28118,22.27544 -35.24289,39.82609 -60.96749,44.66876 -15.34949,2.88907 -20.86231,2.69254 -35.73423,-1.37563 z m 37.70347,-58.38501 c 13.99344,-9.72853 16.43044,-29.11093 5.32615,-42.31029 -11.06498,-13.14826 -29.55118,-13.50202 -42.22382,-0.78614 -6.32848,6.32844 -7.52735,9.11928 -7.52735,17.55069 0,15.68356 7.86149,26.97259 21.19053,30.41982 6.52501,1.76897 16.98074,-0.39307 23.2286,-4.81511 z"
         style="fill:#ffffff;stroke-width:2.22099829" />
    </g>
  </g>
</svg>
