<?xml version="1.0" encoding="UTF-8" standalone="no"?>
<svg
   xmlns:dc="http://purl.org/dc/elements/1.1/"
   xmlns:cc="http://creativecommons.org/ns#"
   xmlns:rdf="http://www.w3.org/1999/02/22-rdf-syntax-ns#"
   xmlns:svg="http://www.w3.org/2000/svg"
   xmlns="http://www.w3.org/2000/svg"
   xmlns:sodipodi="http://sodipodi.sourceforge.net/DTD/sodipodi-0.dtd"
   xmlns:inkscape="http://www.inkscape.org/namespaces/inkscape"
   viewBox="0 0 64 64"
   version="1.1"
   id="svg6"
   sodipodi:docname="action-rss_tag.svg"
   width="64"
   height="64"
   inkscape:version="0.92.2 5c3e80d, 2017-08-06">
  <metadata
     id="metadata10">
    <rdf:RDF>
      <cc:Work
         rdf:about="">
        <dc:format>image/svg+xml</dc:format>
        <dc:type
           rdf:resource="http://purl.org/dc/dcmitype/StillImage" />
        <dc:title></dc:title>
      </cc:Work>
    </rdf:RDF>
  </metadata>
  <sodipodi:namedview
     pagecolor="#ffffff"
     bordercolor="#666666"
     borderopacity="1"
     objecttolerance="10"
     gridtolerance="10"
     guidetolerance="10"
     inkscape:pageopacity="0"
     inkscape:pageshadow="2"
     inkscape:window-width="1366"
     inkscape:window-height="717"
     id="namedview8"
     showgrid="false"
     inkscape:zoom="4.9166667"
     inkscape:cx="50.419531"
     inkscape:cy="24.038923"
     inkscape:window-x="0"
     inkscape:window-y="24"
     inkscape:window-maximized="1"
     inkscape:current-layer="svg6" />
  <defs
     id="defs3051">
    <style
       type="text/css"
       id="current-color-scheme">
      .ColorScheme-Text {
        color:#4d4d4d;
      }
      </style>
  </defs>
  <g
     id="g78"
     transform="matrix(0.125,0,0,0.125,-1.4591767e-5,55.999967)">
    <path
       id="path1148"
       d="m 432.91318,-391.52607 c 102.1931,88.57459 105.82677,249.69971 8.11688,359.898792 C 343.3202,78.571803 181.27975,96.100572 79.086619,7.525982 -23.106138,-81.048608 -26.740153,-242.17372 70.970084,-352.37281 168.67994,-462.57189 330.72039,-480.10066 432.91318,-391.52607 Z"
       inkscape:connector-curvature="0"
       style="fill:#3689e6;fill-opacity:1;stroke-width:11.10955811" />
    <path
       id="path1150"
       d="m 511.63545,-223.09652 c -1.55116,61.31165 -25.16107,124.154608 -70.9663,175.814476 C 342.95929,62.917076 180.91881,80.445806 78.725674,-8.1287457 30.826965,-49.6444 4.4968862,-107.07719 0.19389407,-167.77123 0.79899644,-101.41455 27.117359,-37.517861 79.078682,7.5190277 181.27144,96.09358 343.31982,78.556156 441.02216,-31.63427 c 49.70494,-56.058105 73.00497,-125.29096 70.61329,-191.46225 z"
       inkscape:connector-curvature="0"
       style="opacity:1;fill:#000000;fill-opacity:0.49019608;stroke-width:11.10955811" />
    <g
       style="fill:#1c4675;fill-opacity:1"
       id="g68"
       transform="matrix(0.8572381,0,0,0.8572381,68.502302,-20.850887)">
      <path
         inkscape:connector-curvature="0"
         id="path64"
         d="m 278.45281,-46.370639 c -1.67639,-0.348193 -4.2113,-1.230839 -5.63313,-1.961432 -3.61075,-1.855338 -148.90122,-147.037749 -152.35617,-152.242859 -3.55034,-5.34881 -7.16814,-13.76693 -9.00777,-20.95982 -1.40101,-5.47787 -1.46217,-8.10303 -1.45532,-62.46562 l 0.007,-56.74744 1.75023,-3.75895 c 2.43158,-5.2223 6.40625,-9.36541 11.28222,-11.76033 l 4.14041,-2.03373 h 57.41296 57.41297 l 5.77423,1.67246 c 7.31114,2.11761 15.12983,5.72062 20.64443,9.51338 2.47218,1.70028 35.41932,34.13996 77.53091,76.33676 81.70136,81.86666 75.99736,75.39351 75.93914,86.17904 -0.0548,10.13592 3.52721,6.02603 -64.53874,74.05347 -48.31025,48.282921 -61.92257,61.4951 -64.51939,62.622778 -3.99199,1.73355 -10.25673,2.409618 -14.38429,1.552293 z M 196.29556,-242.39882 c 12.83713,-2.00179 23.99275,-11.62958 27.8185,-24.0086 4.87221,-15.76505 -2.28548,-33.29462 -16.70234,-40.90489 -5.68941,-3.00328 -11.11563,-4.06368 -18.89197,-3.69189 -5.39311,0.25784 -7.36916,0.71274 -11.50651,2.64884 -6.4344,3.01102 -10.17442,6.01254 -14.04743,11.27365 -10.09184,13.70879 -8.23135,34.35687 4.09949,45.49704 5.7173,5.16524 11.34748,7.93223 18.62532,9.15354 5.12156,0.85947 5.29707,0.86001 10.60494,0.0323 z"
         style="fill:#1c4675;fill-opacity:1;stroke-width:0.73137534" />
      <path
         sodipodi:nodetypes="cccccccccccsccc"
         inkscape:connector-curvature="0"
         id="path66"
         d="m 100.00781,-330.74805 -18.455076,53.66211 c -17.679472,51.40746 -18.475723,53.9111 -18.93164,59.54688 -0.598666,7.40024 0.08646,16.53754 1.705078,22.75 1.575128,6.04557 91.776428,190.5735556 94.587888,193.5019506 1.10678,1.15280789 3.21543,2.813037 4.6875,3.6875 h 0.002 c 3.62483,2.1521263 9.76731,3.5485977 14.10546,3.2070313 2.82237,-0.222212 19.99238,-8.2912338 81.375,-38.2460939 3.14,-1.532323 5.3301,-2.600962 8.23438,-4.017578 -1.54759,-0.428017 -3.36665,-1.094424 -4.49805,-1.675781 -3.61075,-1.855338 -148.90247,-147.037079 -152.35742,-152.242189 -3.55034,-5.34881 -7.16818,-13.76805 -9.00781,-20.96094 C 100.05407,-217.01303 99.993147,-219.63741 100,-274 Z"
         style="fill:#1c4675;fill-opacity:1;stroke-width:0.73137534" />
    </g>
    <g
       transform="matrix(0.8572381,0,0,0.8572381,48.502302,-40.850887)"
       id="g62">
      <path
         style="fill:#ffffff;stroke-width:0.73137534"
         d="m 278.45281,-46.370639 c -1.67639,-0.348193 -4.2113,-1.230839 -5.63313,-1.961432 -3.61075,-1.855338 -148.90122,-147.037749 -152.35617,-152.242859 -3.55034,-5.34881 -7.16814,-13.76693 -9.00777,-20.95982 -1.40101,-5.47787 -1.46217,-8.10303 -1.45532,-62.46562 l 0.007,-56.74744 1.75023,-3.75895 c 2.43158,-5.2223 6.40625,-9.36541 11.28222,-11.76033 l 4.14041,-2.03373 h 57.41296 57.41297 l 5.77423,1.67246 c 7.31114,2.11761 15.12983,5.72062 20.64443,9.51338 2.47218,1.70028 35.41932,34.13996 77.53091,76.33676 81.70136,81.86666 75.99736,75.39351 75.93914,86.17904 -0.0548,10.13592 3.52721,6.02603 -64.53874,74.05347 -48.31025,48.282921 -61.92257,61.4951 -64.51939,62.622778 -3.99199,1.73355 -10.25673,2.409618 -14.38429,1.552293 z M 196.29556,-242.39882 c 12.83713,-2.00179 23.99275,-11.62958 27.8185,-24.0086 4.87221,-15.76505 -2.28548,-33.29462 -16.70234,-40.90489 -5.68941,-3.00328 -11.11563,-4.06368 -18.89197,-3.69189 -5.39311,0.25784 -7.36916,0.71274 -11.50651,2.64884 -6.4344,3.01102 -10.17442,6.01254 -14.04743,11.27365 -10.09184,13.70879 -8.23135,34.35687 4.09949,45.49704 5.7173,5.16524 11.34748,7.93223 18.62532,9.15354 5.12156,0.85947 5.29707,0.86001 10.60494,0.0323 z"
         id="path41"
         inkscape:connector-curvature="0" />
      <path
         style="fill:#ffffff;stroke-width:0.73137534"
         d="m 100.00781,-330.74805 -18.455076,53.66211 c -17.679472,51.40746 -18.475723,53.9111 -18.93164,59.54688 -0.598666,7.40024 0.08646,16.53754 1.705078,22.75 1.575128,6.04557 91.776428,190.5735556 94.587888,193.5019506 1.10678,1.15280789 3.21543,2.813037 4.6875,3.6875 h 0.002 c 3.62483,2.1521263 9.76731,3.5485977 14.10546,3.2070313 2.82237,-0.222212 19.99238,-8.2912338 81.375,-38.2460939 3.14,-1.532323 5.3301,-2.600962 8.23438,-4.017578 -1.54759,-0.428017 -3.36665,-1.094424 -4.49805,-1.675781 -3.61075,-1.855338 -148.90247,-147.037079 -152.35742,-152.242189 -3.55034,-5.34881 -7.16818,-13.76805 -9.00781,-20.96094 C 100.05407,-217.01303 99.993147,-219.63741 100,-274 Z"
         id="path55"
         inkscape:connector-curvature="0"
         sodipodi:nodetypes="cccccccccccsccc" />
    </g>
  </g>
</svg>
