<?xml version="1.0" encoding="UTF-8" standalone="no"?>
<svg
   xmlns:dc="http://purl.org/dc/elements/1.1/"
   xmlns:cc="http://creativecommons.org/ns#"
   xmlns:rdf="http://www.w3.org/1999/02/22-rdf-syntax-ns#"
   xmlns:svg="http://www.w3.org/2000/svg"
   xmlns="http://www.w3.org/2000/svg"
   xmlns:sodipodi="http://sodipodi.sourceforge.net/DTD/sodipodi-0.dtd"
   xmlns:inkscape="http://www.inkscape.org/namespaces/inkscape"
   viewBox="0 0 64 64"
   version="1.1"
   id="svg6"
   sodipodi:docname="task-new.svg"
   width="64"
   height="64"
   inkscape:version="0.92.2 5c3e80d, 2017-08-06">
  <metadata
     id="metadata10">
    <rdf:RDF>
      <cc:Work
         rdf:about="">
        <dc:format>image/svg+xml</dc:format>
        <dc:type
           rdf:resource="http://purl.org/dc/dcmitype/StillImage" />
        <dc:title></dc:title>
      </cc:Work>
    </rdf:RDF>
  </metadata>
  <sodipodi:namedview
     pagecolor="#ffffff"
     bordercolor="#666666"
     borderopacity="1"
     objecttolerance="10"
     gridtolerance="10"
     guidetolerance="10"
     inkscape:pageopacity="0"
     inkscape:pageshadow="2"
     inkscape:window-width="1366"
     inkscape:window-height="717"
     id="namedview8"
     showgrid="false"
     inkscape:zoom="1.7383042"
     inkscape:cx="76.285659"
     inkscape:cy="23.079229"
     inkscape:window-x="0"
     inkscape:window-y="24"
     inkscape:window-maximized="1"
     inkscape:current-layer="svg6" />
  <defs
     id="defs3051">
    <style
       type="text/css"
       id="current-color-scheme">
      .ColorScheme-Text {
        color:#4d4d4d;
      }
      </style>
  </defs>
  <g
     id="g862"
     transform="matrix(0.125,0,0,0.125,1.2309213e-7,56)">
    <path
       id="path842"
       d="m 432.91327,-391.52602 c 102.19292,88.5746 105.82677,249.6997 8.1168,359.898781 C 343.3201,78.571841 181.27963,96.100609 79.086725,7.5260171 -23.10618,-81.048567 -26.740045,-242.17368 70.969925,-352.37276 168.6799,-462.57184 330.72038,-480.10061 432.91327,-391.52602 Z"
       inkscape:connector-curvature="0"
       style="fill:#68b723;fill-opacity:1;stroke-width:11.10955715" />
    <path
       id="path845"
       d="m 511.63551,-223.09648 c -1.55139,61.31165 -25.16123,124.154609 -70.96637,175.814473 C 342.95916,62.917113 180.91868,80.445841 78.72578,-8.128703 30.827148,-49.644359 4.4968426,-107.07716 0.19385057,-167.77118 0.7991041,-101.41452 27.117428,-37.517823 79.078675,7.5190651 181.27162,96.093617 343.31976,78.556193 441.02203,-31.634231 490.72698,-87.692335 514.02704,-156.92519 511.63551,-223.09648 Z"
       inkscape:connector-curvature="0"
       style="opacity:1;fill:#000000;fill-opacity:0.49019608;stroke-width:11.10955715" />
    <g
       style="fill:#000000;fill-opacity:0.49019608"
       transform="translate(20.00004,19.999965)"
       id="g852">
      <path
         sodipodi:nodetypes="ccsccccccccsccccccccccccccccscccccsccscccsccccccccccccccccscccccccccccccccccc"
         style="fill:#000000;fill-opacity:0.49019608;stroke-width:0.39013535"
         d="m 106.6532,-38.667439 c -2.35457,-0.831304 -5.17822,-3.719016 -6.00276,-6.139008 -0.60224,-1.767464 -0.65048,-11.947584 -0.65048,-137.396833 0,-134.38688 0.0076,-135.50479 0.77776,-137.56662 0.91057,-2.43365 2.97986,-4.60102 5.46444,-5.72335 1.65956,-0.7496 2.52597,-0.79352 15.83921,-0.8016 l 14.08361,-0.008 -0.0224,9.26575 c -0.0264,9.77808 0.35072,12.84618 2.12314,17.34288 2.6453,6.71115 8.4579,11.86616 15.57411,13.81221 4.03903,1.10452 10.65971,0.9403 14.63009,-0.3628 8.60644,-2.82486 13.52652,-8.29273 15.87364,-17.64091 0.79664,-3.17287 0.87422,-4.36849 0.84087,-12.95622 l -0.0376,-9.4608 h 69.45271 69.4529 l -0.26496,6.53477 c -0.3024,7.45206 0.16216,13.38887 1.36528,17.45858 2.4816,8.3935 8.30661,14.24659 16.34117,16.41997 3.11357,0.84223 9.83565,0.95369 12.87445,0.21352 6.78272,-1.65217 12.85079,-6.33141 15.41896,-11.88996 2.71167,-5.86904 3.51962,-11.46404 3.14964,-21.81188 l -0.24752,-6.92493 14.15007,0.008 c 13.38485,0.008 14.24504,0.0512 15.90568,0.80234 2.14908,0.97168 4.08235,2.77215 5.20347,4.84604 l 0.84363,1.56058 0.0998,136.14745 c 0.11224,153.408157 0.42952,138.405885 -2.99815,141.833541 -3.44757,3.447568 12.89265,3.115424 -151.56718,3.080728 -131.56222,-0.0264 -146.10954,-0.09112 -147.67336,-0.64328 z m 275.60972,-20.921048 c 2.34951,-1.0964 4.53279,-3.41544 5.41527,-5.751992 0.6,-1.588488 0.64096,-9.27624 0.54288,-101.982801 -0.1024,-96.86097 -0.1308,-100.31433 -0.83194,-101.72504 -1.08091,-2.1744 -3.55151,-4.44218 -5.59979,-5.1401 -1.63672,-0.55768 -13.89559,-0.61712 -127.31615,-0.61712 -136.89588,0 -127.02617,-0.1644 -130.08412,2.16794 -0.7444,0.56776 -1.87657,2.0866 -2.52966,3.39356 l -1.1822,2.36584 0.008,100.10494 c 0.008,99.828125 0.0112,100.109821 0.80232,101.860565 1.28661,2.845576 3.70109,4.99608 6.59917,5.877624 0.53784,0.16368 57.50845,0.31064 126.60143,0.32728 l 125.6236,0.0304 1.95069,-0.910304 z M 156.85618,-294.34666 c -3.98816,-0.93963 -8.4576,-4.70305 -10.286,-8.66116 l -1.11942,-2.42336 v -16.58895 -16.58895 l 1.26826,-2.52771 c 0.69752,-1.39019 1.68541,-2.99509 2.19524,-3.56644 4.43046,-4.96483 11.29212,-6.60665 17.60382,-4.21213 3.21543,1.21988 7.10392,5.08456 8.42358,8.37199 l 0.93968,2.34081 v 16.19063 c 0,16.03204 -0.008,16.21259 -0.90536,18.4326 -1.05376,2.60954 -4.09674,6.1194 -6.5537,7.55925 -3.21622,1.88485 -7.8333,2.55284 -11.5661,1.67342 z m 187.28113,-0.12736 c -2.63765,-0.762 -4.93708,-2.21567 -7.00977,-4.43153 -4.10328,-4.38675 -4.30515,-5.56815 -4.14788,-24.27666 0.12472,-14.81745 0.13872,-15.05182 1.06586,-17.36104 0.68152,-1.69772 1.64614,-3.04724 3.51122,-4.91236 3.46613,-3.46609 5.83952,-4.42515 10.9595,-4.42851 3.37424,-10e-4 3.936,0.1092 6.27087,1.24267 3.12911,1.51911 6.22115,4.65411 7.69755,7.80461 l 1.05176,2.24428 v 16.58895 16.58899 l -1.24638,2.5318 c -1.56922,3.1875 -4.29014,5.92958 -7.40582,7.46343 -1.97208,0.97085 -3.01672,1.21704 -5.6611,1.33417 -2.00485,0.0888 -3.94636,-0.06 -5.08581,-0.3888 z"
         id="path847"
         inkscape:connector-curvature="0" />
      <path
         inkscape:connector-curvature="0"
         id="path850"
         d="m 226.87446,-79.978031 c -2.028,-0.887456 -46.42263,-44.028059 -59.69352,-58.007309 -8.45516,-8.9065 -8.82796,-9.40309 -9.08758,-12.10496 -0.17616,-1.83324 0.0416,-3.41999 0.62264,-4.54229 1.03814,-2.00439 10.06298,-12.65012 16.45762,-19.41344 4.32065,-4.56977 4.49104,-4.67963 7.66598,-4.94293 3.06905,-0.25456 3.40846,-0.14088 6.18912,2.0715 1.6181,1.28743 10.07313,9.29784 18.78894,17.80092 8.71584,8.50308 16.38513,15.74816 17.04289,16.10017 2.7413,1.46711 4.3328,0.2548 14.66328,-11.16955 5.49328,-6.07494 24.44957,-27.41757 42.12509,-47.42806 17.67553,-20.0105 32.5483,-36.7071 33.0506,-37.10356 1.3341,-1.05299 4.44678,-1.5399 6.90092,-1.0795 1.72215,0.32304 3.82325,2.04735 10.71307,8.79178 12.53252,12.26801 14.47875,14.64531 14.80973,18.08988 0.18976,1.97489 -0.0424,3.42936 -0.77192,4.84047 -1.33091,2.57369 -28.64846,34.05633 -79.78134,91.94553 -29.33766,33.214109 -31.68886,35.729669 -33.99365,36.369853 -2.74651,0.76288 -3.52766,0.73296 -5.7019,-0.21848 z"
         style="fill:#000000;fill-opacity:0.49019608;stroke-width:0.59158897" />
    </g>
    <g
       id="g843">
      <path
         inkscape:connector-curvature="0"
         id="path849"
         d="m 106.6532,-38.667439 c -2.35457,-0.831304 -5.17822,-3.719016 -6.00276,-6.139008 -0.60224,-1.767464 -0.65048,-11.947584 -0.65048,-137.396833 0,-134.38688 0.0076,-135.50479 0.77776,-137.56662 0.91057,-2.43365 2.97986,-4.60102 5.46444,-5.72335 1.65956,-0.7496 2.52597,-0.79352 15.83921,-0.8016 l 14.08361,-0.008 -0.0224,9.26575 c -0.0264,9.77808 0.35072,12.84618 2.12314,17.34288 2.6453,6.71115 8.4579,11.86616 15.57411,13.81221 4.03903,1.10452 10.65971,0.9403 14.63009,-0.3628 8.60644,-2.82486 13.52652,-8.29273 15.87364,-17.64091 0.79664,-3.17287 0.87422,-4.36849 0.84087,-12.95622 l -0.0376,-9.4608 h 69.45271 69.4529 l -0.26496,6.53477 c -0.3024,7.45206 0.16216,13.38887 1.36528,17.45858 2.4816,8.3935 8.30661,14.24659 16.34117,16.41997 3.11357,0.84223 9.83565,0.95369 12.87445,0.21352 6.78272,-1.65217 12.85079,-6.33141 15.41896,-11.88996 2.71167,-5.86904 3.51962,-11.46404 3.14964,-21.81188 l -0.24752,-6.92493 14.15007,0.008 c 13.38485,0.008 14.24504,0.0512 15.90568,0.80234 2.14908,0.97168 4.08235,2.77215 5.20347,4.84604 l 0.84363,1.56058 0.0998,136.14745 c 0.11224,153.408157 0.42952,138.405885 -2.99815,141.833541 -3.44757,3.447568 12.89265,3.115424 -151.56718,3.080728 -131.56222,-0.0264 -146.10954,-0.09112 -147.67336,-0.64328 z m 275.60972,-20.921048 c 2.34951,-1.0964 4.53279,-3.41544 5.41527,-5.751992 0.6,-1.588488 0.64096,-9.27624 0.54288,-101.982801 -0.1024,-96.86097 -0.1308,-100.31433 -0.83194,-101.72504 -1.08091,-2.1744 -3.55151,-4.44218 -5.59979,-5.1401 -1.63672,-0.55768 -13.89559,-0.61712 -127.31615,-0.61712 -136.89588,0 -127.02617,-0.1644 -130.08412,2.16794 -0.7444,0.56776 -1.87657,2.0866 -2.52966,3.39356 l -1.1822,2.36584 0.008,100.10494 c 0.008,99.828125 0.0112,100.109821 0.80232,101.860565 1.28661,2.845576 3.70109,4.99608 6.59917,5.877624 0.53784,0.16368 57.50845,0.31064 126.60143,0.32728 l 125.6236,0.0304 1.95069,-0.910304 z M 156.85618,-294.34666 c -3.98816,-0.93963 -8.4576,-4.70305 -10.286,-8.66116 l -1.11942,-2.42336 v -16.58895 -16.58895 l 1.26826,-2.52771 c 0.69752,-1.39019 1.68541,-2.99509 2.19524,-3.56644 4.43046,-4.96483 11.29212,-6.60665 17.60382,-4.21213 3.21543,1.21988 7.10392,5.08456 8.42358,8.37199 l 0.93968,2.34081 v 16.19063 c 0,16.03204 -0.008,16.21259 -0.90536,18.4326 -1.05376,2.60954 -4.09674,6.1194 -6.5537,7.55925 -3.21622,1.88485 -7.8333,2.55284 -11.5661,1.67342 z m 187.28113,-0.12736 c -2.63765,-0.762 -4.93708,-2.21567 -7.00977,-4.43153 -4.10328,-4.38675 -4.30515,-5.56815 -4.14788,-24.27666 0.12472,-14.81745 0.13872,-15.05182 1.06586,-17.36104 0.68152,-1.69772 1.64614,-3.04724 3.51122,-4.91236 3.46613,-3.46609 5.83952,-4.42515 10.9595,-4.42851 3.37424,-10e-4 3.936,0.1092 6.27087,1.24267 3.12911,1.51911 6.22115,4.65411 7.69755,7.80461 l 1.05176,2.24428 v 16.58895 16.58899 l -1.24638,2.5318 c -1.56922,3.1875 -4.29014,5.92958 -7.40582,7.46343 -1.97208,0.97085 -3.01672,1.21704 -5.6611,1.33417 -2.00485,0.0888 -3.94636,-0.06 -5.08581,-0.3888 z"
         style="fill:#ffffff;stroke-width:0.39013535"
         sodipodi:nodetypes="ccsccccccccsccccccccccccccccscccccsccscccsccccccccccccccccscccccccccccccccccc" />
      <path
         style="fill:#ffffff;stroke-width:0.59158897"
         d="m 226.87446,-79.978031 c -2.028,-0.887456 -46.42263,-44.028059 -59.69352,-58.007309 -8.45516,-8.9065 -8.82796,-9.40309 -9.08758,-12.10496 -0.17616,-1.83324 0.0416,-3.41999 0.62264,-4.54229 1.03814,-2.00439 10.06298,-12.65012 16.45762,-19.41344 4.32065,-4.56977 4.49104,-4.67963 7.66598,-4.94293 3.06905,-0.25456 3.40846,-0.14088 6.18912,2.0715 1.6181,1.28743 10.07313,9.29784 18.78894,17.80092 8.71584,8.50308 16.38513,15.74816 17.04289,16.10017 2.7413,1.46711 4.3328,0.2548 14.66328,-11.16955 5.49328,-6.07494 24.44957,-27.41757 42.12509,-47.42806 17.67553,-20.0105 32.5483,-36.7071 33.0506,-37.10356 1.3341,-1.05299 4.44678,-1.5399 6.90092,-1.0795 1.72215,0.32304 3.82325,2.04735 10.71307,8.79178 12.53252,12.26801 14.47875,14.64531 14.80973,18.08988 0.18976,1.97489 -0.0424,3.42936 -0.77192,4.84047 -1.33091,2.57369 -28.64846,34.05633 -79.78134,91.94553 -29.33766,33.214109 -31.68886,35.729669 -33.99365,36.369853 -2.74651,0.76288 -3.52766,0.73296 -5.7019,-0.21848 z"
         id="path846"
         inkscape:connector-curvature="0" />
    </g>
  </g>
</svg>
