<?xml version="1.0" encoding="UTF-8" standalone="no"?>
<svg
   xmlns:dc="http://purl.org/dc/elements/1.1/"
   xmlns:cc="http://creativecommons.org/ns#"
   xmlns:rdf="http://www.w3.org/1999/02/22-rdf-syntax-ns#"
   xmlns:svg="http://www.w3.org/2000/svg"
   xmlns="http://www.w3.org/2000/svg"
   xmlns:sodipodi="http://sodipodi.sourceforge.net/DTD/sodipodi-0.dtd"
   xmlns:inkscape="http://www.inkscape.org/namespaces/inkscape"
   viewBox="0 0 64 64"
   version="1.1"
   id="svg8"
   sodipodi:docname="text_vert_kern.svg"
   width="64"
   height="64"
   inkscape:version="0.92.2 5c3e80d, 2017-08-06">
  <metadata
     id="metadata12">
    <rdf:RDF>
      <cc:Work
         rdf:about="">
        <dc:format>image/svg+xml</dc:format>
        <dc:type
           rdf:resource="http://purl.org/dc/dcmitype/StillImage" />
        <dc:title></dc:title>
      </cc:Work>
    </rdf:RDF>
  </metadata>
  <sodipodi:namedview
     pagecolor="#ffffff"
     bordercolor="#666666"
     borderopacity="1"
     objecttolerance="10"
     gridtolerance="10"
     guidetolerance="10"
     inkscape:pageopacity="0"
     inkscape:pageshadow="2"
     inkscape:window-width="1366"
     inkscape:window-height="717"
     id="namedview10"
     showgrid="false"
     inkscape:zoom="0.30729167"
     inkscape:cx="218.71877"
     inkscape:cy="223.05365"
     inkscape:window-x="0"
     inkscape:window-y="24"
     inkscape:window-maximized="1"
     inkscape:current-layer="svg8" />
  <defs
     id="defs3051">
    <style
       type="text/css"
       id="current-color-scheme">
      .ColorScheme-Text {
        color:#4d4d4d;
      }
      .ColorScheme-Highlight {
        color:#3daee9;
      }
      </style>
  </defs>
  <g
     id="g928"
     transform="matrix(0.125,0,0,0.125,2.8323279e-7,56.000001)">
    <path
       id="path1148"
       d="m 432.9132,-391.52603 c 102.1931,88.57459 105.82677,249.69971 8.11688,359.89879 C 343.32022,78.571841 181.27977,96.10061 79.086636,7.52602 -23.106121,-81.04857 -26.740136,-242.17368 70.970101,-352.37277 168.67996,-462.57185 330.72041,-480.10062 432.9132,-391.52603 Z"
       inkscape:connector-curvature="0"
       style="fill:#3689e6;fill-opacity:1;stroke-width:11.10955811" />
    <path
       id="path1150"
       d="m 511.63547,-223.09648 c -1.55116,61.31165 -25.16107,124.15461 -70.9663,175.814474 C 342.95931,62.917114 180.91883,80.445844 78.725691,-8.128708 30.826982,-49.644362 4.4969029,-107.07715 0.19391075,-167.77119 0.79901312,-101.41451 27.117376,-37.517823 79.078699,7.519066 181.27146,96.093618 343.31984,78.556194 441.02218,-31.634232 490.72712,-87.69234 514.02715,-156.92519 511.63547,-223.09648 Z"
       inkscape:connector-curvature="0"
       style="opacity:1;fill:#000000;fill-opacity:0.49019608;stroke-width:11.10955811" />
    <g
       style="fill:#000000;fill-opacity:0.49019608"
       transform="translate(19.999997,20)"
       id="g910">
      <g
         transform="matrix(6.8895977,0,0,6.8895977,-523.42785,1120.4686)"
         id="g900"
         style="font-style:normal;font-weight:normal;font-size:40px;line-height:1.25;font-family:sans-serif;letter-spacing:0px;word-spacing:0px;fill:#000000;fill-opacity:0.49019608;stroke:none"
         aria-label="a">
        <path
           inkscape:connector-curvature="0"
           id="path898"
           style="font-style:normal;font-variant:normal;font-weight:normal;font-stretch:normal;font-family:'Comic Sans MS';-inkscape-font-specification:'Comic Sans MS';fill:#000000;fill-opacity:0.49019608"
           d="m 107.46094,-178.63183 q -0.3711,0 -1.34766,-0.85937 -0.8789,-0.80079 -1.30859,-1.42579 -1.875,1.01563 -3.30078,1.52344 -1.42578,0.52735 -2.382816,0.52735 -4.570313,0 -6.660157,-2.57813 -1.972656,-2.42187 -1.972656,-7.42187 0,-4.72657 3.242188,-8.08594 3.261718,-3.35938 7.773441,-3.35938 1.69922,0 3.80859,0.87891 2.65625,1.09375 2.65625,2.63672 0,0.52734 -0.39062,0.9375 -0.19532,0.74219 -0.3125,2.4414 -0.0977,1.69922 -0.11719,4.35547 -0.0195,2.42188 0.33203,3.82813 0.19531,0.85937 1.23047,3.4375 0.13672,0.35156 0.44922,1.03515 l 0.11718,0.33204 q 0,0.78125 -0.54687,1.28906 -0.54688,0.50781 -1.26953,0.50781 z m -4.0625,-13.57422 q 0,-0.83984 0.0977,-1.8164 0.11719,-0.9961 0.33204,-2.10938 -0.72266,-0.37109 -1.25,-0.54687 -0.50782,-0.17579 -0.82032,-0.17579 -3.027341,0 -5.234373,2.48047 -2.1875,2.46094 -2.1875,5.6836 0,3.20312 1.132813,4.80468 1.132812,1.60157 3.398437,1.60157 1.875003,0 3.183593,-0.6836 0.70313,-0.37109 1.97266,-1.48437 -0.625,-5.17578 -0.625,-7.75391 z" />
      </g>
      <path
         inkscape:connector-curvature="0"
         id="path902"
         d="m 253.97933,-332.73317 a 15.0015,15.0015 0 0 0 -14.77344,15.21094 v 248.308593 a 15.0015,15.0015 0 1 0 30,0 V -317.52223 a 15.0015,15.0015 0 0 0 -15.22656,-15.21094 z"
         style="color:#000000;font-style:normal;font-variant:normal;font-weight:normal;font-stretch:normal;font-size:medium;line-height:normal;font-family:sans-serif;font-variant-ligatures:normal;font-variant-position:normal;font-variant-caps:normal;font-variant-numeric:normal;font-variant-alternates:normal;font-feature-settings:normal;text-indent:0;text-align:start;text-decoration:none;text-decoration-line:none;text-decoration-style:solid;text-decoration-color:#000000;letter-spacing:normal;word-spacing:normal;text-transform:none;writing-mode:lr-tb;direction:ltr;text-orientation:mixed;dominant-baseline:auto;baseline-shift:baseline;text-anchor:start;white-space:normal;shape-padding:0;clip-rule:nonzero;display:inline;overflow:visible;visibility:visible;opacity:1;isolation:auto;mix-blend-mode:normal;color-interpolation:sRGB;color-interpolation-filters:linearRGB;solid-color:#000000;solid-opacity:1;vector-effect:none;fill:#000000;fill-opacity:0.49019608;fill-rule:nonzero;stroke:none;stroke-width:30;stroke-linecap:round;stroke-linejoin:miter;stroke-miterlimit:4;stroke-dasharray:none;stroke-dashoffset:0;stroke-opacity:1;color-rendering:auto;image-rendering:auto;shape-rendering:auto;text-rendering:auto;enable-background:accumulate" />
      <path
         inkscape:connector-curvature="0"
         id="path904"
         d="m 406.14258,-151.73242 -136.9375,0.4375 v 30 l 137.03125,-0.4375 c 8.36479,0.0879 15.18455,-6.68362 15.1582,-15.04883 -0.0264,-8.36521 -6.88788,-15.09181 -15.25195,-14.95117 z"
         style="color:#000000;font-style:normal;font-variant:normal;font-weight:normal;font-stretch:normal;font-size:medium;line-height:normal;font-family:sans-serif;font-variant-ligatures:normal;font-variant-position:normal;font-variant-caps:normal;font-variant-numeric:normal;font-variant-alternates:normal;font-feature-settings:normal;text-indent:0;text-align:start;text-decoration:none;text-decoration-line:none;text-decoration-style:solid;text-decoration-color:#000000;letter-spacing:normal;word-spacing:normal;text-transform:none;writing-mode:lr-tb;direction:ltr;text-orientation:mixed;dominant-baseline:auto;baseline-shift:baseline;text-anchor:start;white-space:normal;shape-padding:0;clip-rule:nonzero;display:inline;overflow:visible;visibility:visible;opacity:1;isolation:auto;mix-blend-mode:normal;color-interpolation:sRGB;color-interpolation-filters:linearRGB;solid-color:#000000;solid-opacity:1;vector-effect:none;fill:#000000;fill-opacity:0.49019608;fill-rule:nonzero;stroke:none;stroke-width:30;stroke-linecap:round;stroke-linejoin:miter;stroke-miterlimit:4;stroke-dasharray:none;stroke-dashoffset:0;stroke-opacity:1;color-rendering:auto;image-rendering:auto;shape-rendering:auto;text-rendering:auto;enable-background:accumulate" />
      <g
         aria-label="a"
         style="font-style:normal;font-weight:normal;font-size:40px;line-height:1.25;font-family:sans-serif;letter-spacing:0px;word-spacing:0px;fill:#000000;fill-opacity:0.49019608;stroke:none"
         id="g908"
         transform="matrix(-6.8895977,0,0,6.8895977,1034.6633,1072.1456)">
        <path
           d="m 107.46094,-178.63183 q -0.3711,0 -1.34766,-0.85937 -0.8789,-0.80079 -1.30859,-1.42579 -1.875,1.01563 -3.30078,1.52344 -1.42578,0.52735 -2.382816,0.52735 -4.570313,0 -6.660157,-2.57813 -1.972656,-2.42187 -1.972656,-7.42187 0,-4.72657 3.242188,-8.08594 3.261718,-3.35938 7.773441,-3.35938 1.69922,0 3.80859,0.87891 2.65625,1.09375 2.65625,2.63672 0,0.52734 -0.39062,0.9375 -0.19532,0.74219 -0.3125,2.4414 -0.0977,1.69922 -0.11719,4.35547 -0.0195,2.42188 0.33203,3.82813 0.19531,0.85937 1.23047,3.4375 0.13672,0.35156 0.44922,1.03515 l 0.11718,0.33204 q 0,0.78125 -0.54687,1.28906 -0.54688,0.50781 -1.26953,0.50781 z m -4.0625,-13.57422 q 0,-0.83984 0.0977,-1.8164 0.11719,-0.9961 0.33204,-2.10938 -0.72266,-0.37109 -1.25,-0.54687 -0.50782,-0.17579 -0.82032,-0.17579 -3.027341,0 -5.234373,2.48047 -2.1875,2.46094 -2.1875,5.6836 0,3.20312 1.132813,4.80468 1.132812,1.60157 3.398437,1.60157 1.875003,0 3.183593,-0.6836 0.70313,-0.37109 1.97266,-1.48437 -0.625,-5.17578 -0.625,-7.75391 z"
           style="font-style:normal;font-variant:normal;font-weight:normal;font-stretch:normal;font-family:'Comic Sans MS';-inkscape-font-specification:'Comic Sans MS';fill:#000000;fill-opacity:0.49019608"
           id="path906"
           inkscape:connector-curvature="0" />
      </g>
    </g>
    <g
       id="g896">
      <g
         aria-label="a"
         style="font-style:normal;font-weight:normal;font-size:40px;line-height:1.25;font-family:sans-serif;letter-spacing:0px;word-spacing:0px;fill:#ffffff;fill-opacity:1;stroke:none"
         id="flowRoot852"
         transform="matrix(6.8895977,0,0,6.8895977,-523.42785,1120.4686)">
        <path
           d="m 107.46094,-178.63183 q -0.3711,0 -1.34766,-0.85937 -0.8789,-0.80079 -1.30859,-1.42579 -1.875,1.01563 -3.30078,1.52344 -1.42578,0.52735 -2.382816,0.52735 -4.570313,0 -6.660157,-2.57813 -1.972656,-2.42187 -1.972656,-7.42187 0,-4.72657 3.242188,-8.08594 3.261718,-3.35938 7.773441,-3.35938 1.69922,0 3.80859,0.87891 2.65625,1.09375 2.65625,2.63672 0,0.52734 -0.39062,0.9375 -0.19532,0.74219 -0.3125,2.4414 -0.0977,1.69922 -0.11719,4.35547 -0.0195,2.42188 0.33203,3.82813 0.19531,0.85937 1.23047,3.4375 0.13672,0.35156 0.44922,1.03515 l 0.11718,0.33204 q 0,0.78125 -0.54687,1.28906 -0.54688,0.50781 -1.26953,0.50781 z m -4.0625,-13.57422 q 0,-0.83984 0.0977,-1.8164 0.11719,-0.9961 0.33204,-2.10938 -0.72266,-0.37109 -1.25,-0.54687 -0.50782,-0.17579 -0.82032,-0.17579 -3.027341,0 -5.234373,2.48047 -2.1875,2.46094 -2.1875,5.6836 0,3.20312 1.132813,4.80468 1.132812,1.60157 3.398437,1.60157 1.875003,0 3.183593,-0.6836 0.70313,-0.37109 1.97266,-1.48437 -0.625,-5.17578 -0.625,-7.75391 z"
           style="font-style:normal;font-variant:normal;font-weight:normal;font-stretch:normal;font-family:'Comic Sans MS';-inkscape-font-specification:'Comic Sans MS';fill:#ffffff"
           id="path860"
           inkscape:connector-curvature="0" />
      </g>
      <path
         style="color:#000000;font-style:normal;font-variant:normal;font-weight:normal;font-stretch:normal;font-size:medium;line-height:normal;font-family:sans-serif;font-variant-ligatures:normal;font-variant-position:normal;font-variant-caps:normal;font-variant-numeric:normal;font-variant-alternates:normal;font-feature-settings:normal;text-indent:0;text-align:start;text-decoration:none;text-decoration-line:none;text-decoration-style:solid;text-decoration-color:#000000;letter-spacing:normal;word-spacing:normal;text-transform:none;writing-mode:lr-tb;direction:ltr;text-orientation:mixed;dominant-baseline:auto;baseline-shift:baseline;text-anchor:start;white-space:normal;shape-padding:0;clip-rule:nonzero;display:inline;overflow:visible;visibility:visible;opacity:1;isolation:auto;mix-blend-mode:normal;color-interpolation:sRGB;color-interpolation-filters:linearRGB;solid-color:#000000;solid-opacity:1;vector-effect:none;fill:#ffffff;fill-opacity:1;fill-rule:nonzero;stroke:none;stroke-width:30;stroke-linecap:round;stroke-linejoin:miter;stroke-miterlimit:4;stroke-dasharray:none;stroke-dashoffset:0;stroke-opacity:1;color-rendering:auto;image-rendering:auto;shape-rendering:auto;text-rendering:auto;enable-background:accumulate"
         d="m 253.97933,-332.73317 a 15.0015,15.0015 0 0 0 -14.77344,15.21094 v 248.308593 a 15.0015,15.0015 0 1 0 30,0 V -317.52223 a 15.0015,15.0015 0 0 0 -15.22656,-15.21094 z"
         id="path882"
         inkscape:connector-curvature="0" />
      <path
         style="color:#000000;font-style:normal;font-variant:normal;font-weight:normal;font-stretch:normal;font-size:medium;line-height:normal;font-family:sans-serif;font-variant-ligatures:normal;font-variant-position:normal;font-variant-caps:normal;font-variant-numeric:normal;font-variant-alternates:normal;font-feature-settings:normal;text-indent:0;text-align:start;text-decoration:none;text-decoration-line:none;text-decoration-style:solid;text-decoration-color:#000000;letter-spacing:normal;word-spacing:normal;text-transform:none;writing-mode:lr-tb;direction:ltr;text-orientation:mixed;dominant-baseline:auto;baseline-shift:baseline;text-anchor:start;white-space:normal;shape-padding:0;clip-rule:nonzero;display:inline;overflow:visible;visibility:visible;opacity:1;isolation:auto;mix-blend-mode:normal;color-interpolation:sRGB;color-interpolation-filters:linearRGB;solid-color:#000000;solid-opacity:1;vector-effect:none;fill:#ffffff;fill-opacity:1;fill-rule:nonzero;stroke:none;stroke-width:30;stroke-linecap:round;stroke-linejoin:miter;stroke-miterlimit:4;stroke-dasharray:none;stroke-dashoffset:0;stroke-opacity:1;color-rendering:auto;image-rendering:auto;shape-rendering:auto;text-rendering:auto;enable-background:accumulate"
         d="m 406.14258,-151.73242 -136.9375,0.4375 v 30 l 137.03125,-0.4375 c 8.36479,0.0879 15.18455,-6.68362 15.1582,-15.04883 -0.0264,-8.36521 -6.88788,-15.09181 -15.25195,-14.95117 z"
         id="path884"
         inkscape:connector-curvature="0" />
      <g
         transform="matrix(-6.8895977,0,0,6.8895977,1034.6633,1072.1456)"
         id="g885"
         style="font-style:normal;font-weight:normal;font-size:40px;line-height:1.25;font-family:sans-serif;letter-spacing:0px;word-spacing:0px;fill:#ffffff;fill-opacity:1;stroke:none"
         aria-label="a">
        <path
           inkscape:connector-curvature="0"
           id="path883"
           style="font-style:normal;font-variant:normal;font-weight:normal;font-stretch:normal;font-family:'Comic Sans MS';-inkscape-font-specification:'Comic Sans MS';fill:#ffffff"
           d="m 107.46094,-178.63183 q -0.3711,0 -1.34766,-0.85937 -0.8789,-0.80079 -1.30859,-1.42579 -1.875,1.01563 -3.30078,1.52344 -1.42578,0.52735 -2.382816,0.52735 -4.570313,0 -6.660157,-2.57813 -1.972656,-2.42187 -1.972656,-7.42187 0,-4.72657 3.242188,-8.08594 3.261718,-3.35938 7.773441,-3.35938 1.69922,0 3.80859,0.87891 2.65625,1.09375 2.65625,2.63672 0,0.52734 -0.39062,0.9375 -0.19532,0.74219 -0.3125,2.4414 -0.0977,1.69922 -0.11719,4.35547 -0.0195,2.42188 0.33203,3.82813 0.19531,0.85937 1.23047,3.4375 0.13672,0.35156 0.44922,1.03515 l 0.11718,0.33204 q 0,0.78125 -0.54687,1.28906 -0.54688,0.50781 -1.26953,0.50781 z m -4.0625,-13.57422 q 0,-0.83984 0.0977,-1.8164 0.11719,-0.9961 0.33204,-2.10938 -0.72266,-0.37109 -1.25,-0.54687 -0.50782,-0.17579 -0.82032,-0.17579 -3.027341,0 -5.234373,2.48047 -2.1875,2.46094 -2.1875,5.6836 0,3.20312 1.132813,4.80468 1.132812,1.60157 3.398437,1.60157 1.875003,0 3.183593,-0.6836 0.70313,-0.37109 1.97266,-1.48437 -0.625,-5.17578 -0.625,-7.75391 z" />
      </g>
    </g>
  </g>
</svg>
