<?xml version="1.0" encoding="UTF-8" standalone="no"?>
<svg
   xmlns:dc="http://purl.org/dc/elements/1.1/"
   xmlns:cc="http://creativecommons.org/ns#"
   xmlns:rdf="http://www.w3.org/1999/02/22-rdf-syntax-ns#"
   xmlns:svg="http://www.w3.org/2000/svg"
   xmlns="http://www.w3.org/2000/svg"
   xmlns:sodipodi="http://sodipodi.sourceforge.net/DTD/sodipodi-0.dtd"
   xmlns:inkscape="http://www.inkscape.org/namespaces/inkscape"
   viewBox="0 0 64 64"
   version="1.1"
   id="svg8"
   sodipodi:docname="text_remove_kerns.svg"
   width="64"
   height="64"
   inkscape:version="0.92.2 5c3e80d, 2017-08-06">
  <metadata
     id="metadata12">
    <rdf:RDF>
      <cc:Work
         rdf:about="">
        <dc:format>image/svg+xml</dc:format>
        <dc:type
           rdf:resource="http://purl.org/dc/dcmitype/StillImage" />
        <dc:title></dc:title>
      </cc:Work>
    </rdf:RDF>
  </metadata>
  <sodipodi:namedview
     pagecolor="#ffffff"
     bordercolor="#666666"
     borderopacity="1"
     objecttolerance="10"
     gridtolerance="10"
     guidetolerance="10"
     inkscape:pageopacity="0"
     inkscape:pageshadow="2"
     inkscape:window-width="1366"
     inkscape:window-height="717"
     id="namedview10"
     showgrid="false"
     inkscape:zoom="1.7383042"
     inkscape:cx="46.827267"
     inkscape:cy="71.25999"
     inkscape:window-x="0"
     inkscape:window-y="24"
     inkscape:window-maximized="1"
     inkscape:current-layer="svg8" />
  <defs
     id="defs3051">
    <style
       type="text/css"
       id="current-color-scheme">
      .ColorScheme-Text {
        color:#4d4d4d;
      }
      .ColorScheme-NegativeText {
        color:#da4453;
      }
      </style>
  </defs>
  <g
     id="g909"
     transform="matrix(0.125,0,0,0.125,6.3916148e-8,55.999994)">
    <path
       id="path1148"
       d="m 432.91319,-391.52603 c 102.1931,88.57459 105.82677,249.69971 8.11688,359.898785 C 343.32021,78.571833 181.27977,96.100601 79.086635,7.526018 -23.106121,-81.04857 -26.740136,-242.17368 70.9701,-352.37277 c 97.70986,-110.19908 259.7503,-127.72785 361.94309,-39.15326 z"
       inkscape:connector-curvature="0"
       style="fill:#c6262e;fill-opacity:1;stroke-width:11.10955811" />
    <path
       id="path1150"
       d="m 511.63547,-223.09648 c -1.55116,61.31164 -25.16108,124.1546 -70.96631,175.814467 C 342.95931,62.917106 180.91883,80.445833 78.725689,-8.128709 30.826981,-49.644365 4.4969024,-107.07716 0.19391033,-167.7712 0.79901272,-101.41452 27.117376,-37.517829 79.078697,7.519058 181.27145,96.093609 343.31984,78.556185 441.02217,-31.634237 490.72711,-87.69234 514.02715,-156.9252 511.63547,-223.09648 Z"
       inkscape:connector-curvature="0"
       style="opacity:1;fill:#000000;fill-opacity:0.49019608;stroke-width:11.10955811" />
    <g
       aria-label="VA"
       style="font-style:normal;font-weight:normal;font-size:40px;line-height:1.25;font-family:sans-serif;letter-spacing:0px;word-spacing:0px;fill:#000000;fill-opacity:0.49019608;stroke:none"
       id="g899"
       transform="matrix(6.291611,0,0,6.291611,-447.96535,1716.3673)">
      <path
         d="m 112.94922,-312.74511 q -1.21094,1.81641 -1.97266,3.80859 l -1.48437,4.27735 -5.25391,14.19922 q -0.91797,2.5 -2.14844,4.88281 -0.625,1.17187 -1.75781,1.17187 -1.503905,0 -2.109374,-1.52343 -2.363281,-5.9375 -5.253906,-17.08985 l -1.542969,-5.37109 q -1.152344,-4.0625 -1.152344,-5.3125 0,-0.87891 0.625,-1.44531 0.566407,-0.52735 1.367188,-0.52735 1.484375,0 1.914062,1.60156 l 0.722657,3.39844 1.875,6.64063 q 1.875,7.26562 3.652346,12.51953 l 0.11719,-0.3125 5.23437,-14.17969 1.66016,-4.78516 q 1.11328,-2.89062 2.36328,-4.375 0.64453,-0.78125 1.52344,-0.78125 0.78125,0 1.38671,0.60547 0.625,0.58594 0.625,1.42578 0,0.58594 -0.39062,1.17188 z"
         style="font-style:normal;font-variant:normal;font-weight:normal;font-stretch:normal;font-family:'Comic Sans MS';-inkscape-font-specification:'Comic Sans MS';fill:#000000;fill-opacity:0.49019608"
         id="path895"
         inkscape:connector-curvature="0" />
      <path
         d="m 137.87109,-285.38183 q -1.79687,0 -3.125,-4.60937 -0.50781,-1.75782 -1.26953,-6.15235 -1.99219,0.27344 -5.21484,0.97656 l -5.19531,1.07422 q -0.97657,2.5586 -3.33985,7.48047 -0.625,1.09375 -1.69922,1.09375 -0.78125,0 -1.40625,-0.5664 -0.60546,-0.56641 -0.60546,-1.40625 0,-0.9375 2.94921,-7.12891 -0.33203,-0.50781 -0.33203,-1.17188 0,-1.58203 1.91407,-2.03125 2.22656,-4.17968 5.625,-9.60937 4.6289,-7.40234 5.76171,-7.40234 1.54297,0 2.10938,2.14843 l 1.23047,6.5625 2.91015,13.57422 1.11328,3.08594 q 0.56641,1.58203 0.56641,2.10937 0,0.83985 -0.60547,1.40625 -0.60547,0.56641 -1.38672,0.56641 z m -6.89453,-22.32422 -5.58593,9.00391 q 2.36328,-0.60547 7.16796,-1.46485 z"
         style="font-style:normal;font-variant:normal;font-weight:normal;font-stretch:normal;font-family:'Comic Sans MS';-inkscape-font-specification:'Comic Sans MS';fill:#000000;fill-opacity:0.49019608"
         id="path897"
         inkscape:connector-curvature="0" />
    </g>
    <g
       transform="matrix(6.291611,0,0,6.291611,-467.96535,1696.3673)"
       id="flowRoot882"
       style="font-style:normal;font-weight:normal;font-size:40px;line-height:1.25;font-family:sans-serif;letter-spacing:0px;word-spacing:0px;fill:#ffffff;fill-opacity:1;stroke:none"
       aria-label="VA">
      <path
         inkscape:connector-curvature="0"
         id="path890"
         style="font-style:normal;font-variant:normal;font-weight:normal;font-stretch:normal;font-family:'Comic Sans MS';-inkscape-font-specification:'Comic Sans MS';fill:#ffffff"
         d="m 112.94922,-312.74511 q -1.21094,1.81641 -1.97266,3.80859 l -1.48437,4.27735 -5.25391,14.19922 q -0.91797,2.5 -2.14844,4.88281 -0.625,1.17187 -1.75781,1.17187 -1.503905,0 -2.109374,-1.52343 -2.363281,-5.9375 -5.253906,-17.08985 l -1.542969,-5.37109 q -1.152344,-4.0625 -1.152344,-5.3125 0,-0.87891 0.625,-1.44531 0.566407,-0.52735 1.367188,-0.52735 1.484375,0 1.914062,1.60156 l 0.722657,3.39844 1.875,6.64063 q 1.875,7.26562 3.652346,12.51953 l 0.11719,-0.3125 5.23437,-14.17969 1.66016,-4.78516 q 1.11328,-2.89062 2.36328,-4.375 0.64453,-0.78125 1.52344,-0.78125 0.78125,0 1.38671,0.60547 0.625,0.58594 0.625,1.42578 0,0.58594 -0.39062,1.17188 z" />
      <path
         inkscape:connector-curvature="0"
         id="path892"
         style="font-style:normal;font-variant:normal;font-weight:normal;font-stretch:normal;font-family:'Comic Sans MS';-inkscape-font-specification:'Comic Sans MS';fill:#ffffff"
         d="m 137.87109,-285.38183 q -1.79687,0 -3.125,-4.60937 -0.50781,-1.75782 -1.26953,-6.15235 -1.99219,0.27344 -5.21484,0.97656 l -5.19531,1.07422 q -0.97657,2.5586 -3.33985,7.48047 -0.625,1.09375 -1.69922,1.09375 -0.78125,0 -1.40625,-0.5664 -0.60546,-0.56641 -0.60546,-1.40625 0,-0.9375 2.94921,-7.12891 -0.33203,-0.50781 -0.33203,-1.17188 0,-1.58203 1.91407,-2.03125 2.22656,-4.17968 5.625,-9.60937 4.6289,-7.40234 5.76171,-7.40234 1.54297,0 2.10938,2.14843 l 1.23047,6.5625 2.91015,13.57422 1.11328,3.08594 q 0.56641,1.58203 0.56641,2.10937 0,0.83985 -0.60547,1.40625 -0.60547,0.56641 -1.38672,0.56641 z m -6.89453,-22.32422 -5.58593,9.00391 q 2.36328,-0.60547 7.16796,-1.46485 z" />
    </g>
  </g>
</svg>
