<?xml version="1.0" encoding="UTF-8" standalone="no"?>
<svg
   xmlns:dc="http://purl.org/dc/elements/1.1/"
   xmlns:cc="http://creativecommons.org/ns#"
   xmlns:rdf="http://www.w3.org/1999/02/22-rdf-syntax-ns#"
   xmlns:svg="http://www.w3.org/2000/svg"
   xmlns="http://www.w3.org/2000/svg"
   xmlns:sodipodi="http://sodipodi.sourceforge.net/DTD/sodipodi-0.dtd"
   xmlns:inkscape="http://www.inkscape.org/namespaces/inkscape"
   viewBox="0 0 64 64"
   version="1.1"
   id="svg8"
   sodipodi:docname="text-remove-from-path.svg"
   width="64"
   height="64"
   inkscape:version="0.92.2 5c3e80d, 2017-08-06">
  <metadata
     id="metadata12">
    <rdf:RDF>
      <cc:Work
         rdf:about="">
        <dc:format>image/svg+xml</dc:format>
        <dc:type
           rdf:resource="http://purl.org/dc/dcmitype/StillImage" />
        <dc:title></dc:title>
      </cc:Work>
    </rdf:RDF>
  </metadata>
  <sodipodi:namedview
     pagecolor="#ffffff"
     bordercolor="#666666"
     borderopacity="1"
     objecttolerance="10"
     gridtolerance="10"
     guidetolerance="10"
     inkscape:pageopacity="0"
     inkscape:pageshadow="2"
     inkscape:window-width="1366"
     inkscape:window-height="717"
     id="namedview10"
     showgrid="false"
     inkscape:zoom="1.84375"
     inkscape:cx="8.5723477"
     inkscape:cy="22.618397"
     inkscape:window-x="0"
     inkscape:window-y="24"
     inkscape:window-maximized="1"
     inkscape:current-layer="svg8" />
  <defs
     id="defs3051">
    <style
       type="text/css"
       id="current-color-scheme">
      .ColorScheme-Text {
        color:#4d4d4d;
      }
      .ColorScheme-NegativeText {
        color:#da4453;
      }
      </style>
  </defs>
  <g
     id="g897">
    <path
       id="path1148"
       d="M 54.11415,7.0592463 C 66.888287,18.13107 67.342496,38.27171 55.12876,52.046595 42.915027,65.82148 22.659971,68.012576 9.8858295,56.940753 -2.8882652,45.868929 -3.342517,25.72829 8.8712626,11.953404 21.084995,-1.8214812 41.340051,-4.0125775 54.11415,7.0592463 Z"
       inkscape:connector-curvature="0"
       style="fill:#c6262e;fill-opacity:1;stroke-width:1.38869476" />
    <path
       id="path1150"
       d="M 63.954434,28.11294 C 63.760539,35.776896 60.8093,43.632266 55.083646,50.089749 42.869914,63.864639 22.614854,66.05573 9.8407113,54.983912 3.8533727,49.794455 0.56211282,42.615356 0.0242388,35.028601 0.0998766,43.323186 3.389672,51.310272 9.8848373,56.939883 22.658932,68.011702 42.91498,65.819524 55.127772,52.045721 61.34089,45.038458 64.253394,36.384351 63.954434,28.11294 Z"
       inkscape:connector-curvature="0"
       style="opacity:1;fill:#000000;fill-opacity:0.49019608;stroke-width:1.38869476" />
    <g
       style="fill:#000000;fill-opacity:0.49019608"
       transform="matrix(0.125,0,0,0.125,2.9229911,58.266845)"
       id="g100">
      <path
         inkscape:connector-curvature="0"
         id="path86"
         class="ColorScheme-Highlight"
         d="M 419.7969,-217.99605 A 181.99577,181.99577 0 0 0 237.80112,-36.000274 h 25.9994 A 155.99638,155.99638 0 0 1 419.7969,-191.99665 Z"
         style="color:#3daee9;fill:#000000;fill-opacity:0.49019608;stroke:none;stroke-width:25.99939728" />
      <g
         transform="matrix(2.7897229,-5.043538,5.043538,2.7897229,1080.4744,-35.509476)"
         id="g90"
         style="font-style:normal;font-weight:normal;font-size:40px;line-height:1.25;font-family:sans-serif;letter-spacing:0px;word-spacing:0px;fill:#000000;fill-opacity:0.49019608;stroke:none"
         aria-label="a">
        <path
           inkscape:connector-curvature="0"
           id="path88"
           style="font-style:normal;font-variant:normal;font-weight:normal;font-stretch:normal;font-family:'Comic Sans MS';-inkscape-font-specification:'Comic Sans MS';fill:#000000;fill-opacity:0.49019608"
           d="m -61.216797,-134.70019 q -0.371094,0 -1.347656,-0.85937 -0.878906,-0.80079 -1.308594,-1.42579 -1.875,1.01563 -3.300781,1.52344 -1.425781,0.52735 -2.382813,0.52735 -4.570312,0 -6.660156,-2.57813 -1.972656,-2.42187 -1.972656,-7.42187 0,-4.72657 3.242187,-8.08594 3.261719,-3.35938 7.773438,-3.35938 1.699219,0 3.808594,0.87891 2.65625,1.09375 2.65625,2.63672 0,0.52734 -0.390625,0.9375 -0.195313,0.74219 -0.3125,2.4414 -0.09766,1.69922 -0.117188,4.35547 -0.01953,2.42188 0.332031,3.82813 0.195313,0.85937 1.230469,3.4375 0.136719,0.35156 0.449219,1.03515 l 0.117187,0.33204 q 0,0.78125 -0.546875,1.28906 -0.546875,0.50781 -1.269531,0.50781 z m -4.0625,-13.57422 q 0,-0.83984 0.09766,-1.8164 0.117188,-0.9961 0.332032,-2.10938 -0.722657,-0.37109 -1.25,-0.54687 -0.507813,-0.17579 -0.820313,-0.17579 -3.027344,0 -5.234375,2.48047 -2.1875,2.46094 -2.1875,5.6836 0,3.20312 1.132813,4.80468 1.132812,1.60157 3.398437,1.60157 1.875,0 3.183594,-0.6836 0.703125,-0.37109 1.972656,-1.48437 -0.625,-5.17578 -0.625,-7.75391 z" />
      </g>
      <g
         transform="matrix(3.813908,-4.1110628,4.1110628,3.813908,1191.5897,1217.6921)"
         id="g94"
         style="font-style:normal;font-weight:normal;font-size:40px;line-height:1.25;font-family:sans-serif;letter-spacing:0px;word-spacing:0px;fill:#000000;fill-opacity:0.49019608;stroke:none"
         aria-label="b">
        <path
           inkscape:connector-curvature="0"
           id="path92"
           style="font-style:normal;font-variant:normal;font-weight:normal;font-stretch:normal;font-family:'Comic Sans MS';-inkscape-font-specification:'Comic Sans MS';fill:#000000;fill-opacity:0.49019608"
           d="m 74.751953,-290.28808 q -2.988281,0 -5.429687,-1.17187 -0.625,0.9375 -1.523438,0.9375 -0.742187,0 -1.269531,-0.52735 -0.507813,-0.50781 -0.507813,-1.28906 0,-0.50781 0.03906,-1.50391 0.05859,-0.99609 0.05859,-1.5039 0,-2.07032 -0.117188,-6.19141 -0.09766,-4.14062 -0.09766,-6.21094 0,-1.42578 0.01953,-5.39062 0.01953,-3.98438 0.01953,-5.42969 0,-1.17187 0.488282,-2.10937 0.644531,-1.19141 1.777343,-1.19141 1.464844,0 1.464844,1.69922 0,0.27344 -0.09766,0.80078 -0.09766,0.52734 -0.09766,0.80078 l -0.05859,4.27734 -0.03906,4.98047 q 1.699219,-1.15234 3.222657,-1.71875 1.542968,-0.58593 2.890625,-0.58593 4.199218,0 6.816406,3.22265 2.460937,3.02735 2.460937,7.44141 0,4.45312 -2.871093,7.55859 -2.871094,3.10547 -7.148438,3.10547 z m 0.742188,-17.63672 q -1.601563,0 -3.28125,0.89844 -0.820313,0.44922 -2.8125,1.93359 l -0.03906,3.37891 0.01953,3.04687 0.01953,3.20313 q 0.9375,0.42969 2.636718,1.09375 1.210938,0.37109 2.714844,0.37109 2.832031,0 4.648438,-1.99218 1.816406,-1.99219 1.816406,-4.96094 0,-2.91016 -1.464844,-4.86328 -1.582031,-2.10938 -4.257812,-2.10938 z" />
      </g>
      <g
         transform="matrix(4.4503575,-1.7077302,1.7077302,4.4503575,-456.11476,1764.6674)"
         id="g98"
         style="font-style:normal;font-weight:normal;font-size:40px;line-height:1.25;font-family:sans-serif;letter-spacing:0px;word-spacing:0px;fill:#000000;fill-opacity:0.49019608;stroke:none"
         aria-label="c">
        <path
           inkscape:connector-curvature="0"
           id="path96"
           style="font-style:normal;font-variant:normal;font-weight:normal;font-stretch:normal;font-family:'Comic Sans MS';-inkscape-font-specification:'Comic Sans MS';fill:#000000;fill-opacity:0.49019608"
           d="m 316.05469,-330.75878 q -4.00391,0 -6.67969,-2.42188 -2.8125,-2.53906 -2.8125,-6.69922 0,-3.96484 2.63672,-8.18359 2.92969,-4.6875 6.60156,-4.6875 1.91406,0 4.27734,0.89844 2.98829,1.15234 2.98829,2.8125 0,0.74218 -0.48829,1.32812 -0.48828,0.56641 -1.21093,0.56641 -0.56641,0 -0.9961,-0.33203 -0.41015,-0.35157 -0.80078,-0.6836 -1.15234,-0.91797 -3.76953,-0.91797 -1.99219,0 -3.94531,3.55469 -1.77735,3.26172 -1.77735,5.64453 0,2.57813 1.75782,4.0625 1.64062,1.38672 4.21875,1.38672 1.17187,0 2.5,-0.625 l 2.26562,-1.21094 q 0.58594,-0.3125 0.83985,-0.3125 0.72265,0 1.25,0.58594 0.52734,0.56641 0.52734,1.3086 0,1.42578 -3.00781,2.7539 -2.63672,1.17188 -4.375,1.17188 z" />
      </g>
    </g>
    <g
       transform="matrix(0.125,0,0,0.125,0.42299115,55.766845)"
       id="g84">
      <path
         style="color:#3daee9;fill:#ffffff;fill-opacity:1;stroke:none;stroke-width:25.99939728"
         d="M 419.7969,-217.99605 A 181.99577,181.99577 0 0 0 237.80112,-36.000274 h 25.9994 A 155.99638,155.99638 0 0 1 419.7969,-191.99665 Z"
         class="ColorScheme-Highlight"
         id="path6-3"
         inkscape:connector-curvature="0" />
      <g
         aria-label="a"
         style="font-style:normal;font-weight:normal;font-size:40px;line-height:1.25;font-family:sans-serif;letter-spacing:0px;word-spacing:0px;fill:#ffffff;fill-opacity:1;stroke:none"
         id="flowRoot44"
         transform="matrix(2.7897229,-5.043538,5.043538,2.7897229,1080.4744,-35.509476)">
        <path
           d="m -61.216797,-134.70019 q -0.371094,0 -1.347656,-0.85937 -0.878906,-0.80079 -1.308594,-1.42579 -1.875,1.01563 -3.300781,1.52344 -1.425781,0.52735 -2.382813,0.52735 -4.570312,0 -6.660156,-2.57813 -1.972656,-2.42187 -1.972656,-7.42187 0,-4.72657 3.242187,-8.08594 3.261719,-3.35938 7.773438,-3.35938 1.699219,0 3.808594,0.87891 2.65625,1.09375 2.65625,2.63672 0,0.52734 -0.390625,0.9375 -0.195313,0.74219 -0.3125,2.4414 -0.09766,1.69922 -0.117188,4.35547 -0.01953,2.42188 0.332031,3.82813 0.195313,0.85937 1.230469,3.4375 0.136719,0.35156 0.449219,1.03515 l 0.117187,0.33204 q 0,0.78125 -0.546875,1.28906 -0.546875,0.50781 -1.269531,0.50781 z m -4.0625,-13.57422 q 0,-0.83984 0.09766,-1.8164 0.117188,-0.9961 0.332032,-2.10938 -0.722657,-0.37109 -1.25,-0.54687 -0.507813,-0.17579 -0.820313,-0.17579 -3.027344,0 -5.234375,2.48047 -2.1875,2.46094 -2.1875,5.6836 0,3.20312 1.132813,4.80468 1.132812,1.60157 3.398437,1.60157 1.875,0 3.183594,-0.6836 0.703125,-0.37109 1.972656,-1.48437 -0.625,-5.17578 -0.625,-7.75391 z"
           style="font-style:normal;font-variant:normal;font-weight:normal;font-stretch:normal;font-family:'Comic Sans MS';-inkscape-font-specification:'Comic Sans MS';fill:#ffffff"
           id="path52"
           inkscape:connector-curvature="0" />
      </g>
      <g
         aria-label="b"
         style="font-style:normal;font-weight:normal;font-size:40px;line-height:1.25;font-family:sans-serif;letter-spacing:0px;word-spacing:0px;fill:#ffffff;fill-opacity:1;stroke:none"
         id="flowRoot55"
         transform="matrix(3.813908,-4.1110628,4.1110628,3.813908,1191.5897,1217.6921)">
        <path
           d="m 74.751953,-290.28808 q -2.988281,0 -5.429687,-1.17187 -0.625,0.9375 -1.523438,0.9375 -0.742187,0 -1.269531,-0.52735 -0.507813,-0.50781 -0.507813,-1.28906 0,-0.50781 0.03906,-1.50391 0.05859,-0.99609 0.05859,-1.5039 0,-2.07032 -0.117188,-6.19141 -0.09766,-4.14062 -0.09766,-6.21094 0,-1.42578 0.01953,-5.39062 0.01953,-3.98438 0.01953,-5.42969 0,-1.17187 0.488282,-2.10937 0.644531,-1.19141 1.777343,-1.19141 1.464844,0 1.464844,1.69922 0,0.27344 -0.09766,0.80078 -0.09766,0.52734 -0.09766,0.80078 l -0.05859,4.27734 -0.03906,4.98047 q 1.699219,-1.15234 3.222657,-1.71875 1.542968,-0.58593 2.890625,-0.58593 4.199218,0 6.816406,3.22265 2.460937,3.02735 2.460937,7.44141 0,4.45312 -2.871093,7.55859 -2.871094,3.10547 -7.148438,3.10547 z m 0.742188,-17.63672 q -1.601563,0 -3.28125,0.89844 -0.820313,0.44922 -2.8125,1.93359 l -0.03906,3.37891 0.01953,3.04687 0.01953,3.20313 q 0.9375,0.42969 2.636718,1.09375 1.210938,0.37109 2.714844,0.37109 2.832031,0 4.648438,-1.99218 1.816406,-1.99219 1.816406,-4.96094 0,-2.91016 -1.464844,-4.86328 -1.582031,-2.10938 -4.257812,-2.10938 z"
           style="font-style:normal;font-variant:normal;font-weight:normal;font-stretch:normal;font-family:'Comic Sans MS';-inkscape-font-specification:'Comic Sans MS';fill:#ffffff"
           id="path63"
           inkscape:connector-curvature="0" />
      </g>
      <g
         aria-label="c"
         style="font-style:normal;font-weight:normal;font-size:40px;line-height:1.25;font-family:sans-serif;letter-spacing:0px;word-spacing:0px;fill:#ffffff;fill-opacity:1;stroke:none"
         id="flowRoot66"
         transform="matrix(4.4503575,-1.7077302,1.7077302,4.4503575,-456.11476,1764.6674)">
        <path
           d="m 316.05469,-330.75878 q -4.00391,0 -6.67969,-2.42188 -2.8125,-2.53906 -2.8125,-6.69922 0,-3.96484 2.63672,-8.18359 2.92969,-4.6875 6.60156,-4.6875 1.91406,0 4.27734,0.89844 2.98829,1.15234 2.98829,2.8125 0,0.74218 -0.48829,1.32812 -0.48828,0.56641 -1.21093,0.56641 -0.56641,0 -0.9961,-0.33203 -0.41015,-0.35157 -0.80078,-0.6836 -1.15234,-0.91797 -3.76953,-0.91797 -1.99219,0 -3.94531,3.55469 -1.77735,3.26172 -1.77735,5.64453 0,2.57813 1.75782,4.0625 1.64062,1.38672 4.21875,1.38672 1.17187,0 2.5,-0.625 l 2.26562,-1.21094 q 0.58594,-0.3125 0.83985,-0.3125 0.72265,0 1.25,0.58594 0.52734,0.56641 0.52734,1.3086 0,1.42578 -3.00781,2.7539 -2.63672,1.17188 -4.375,1.17188 z"
           style="font-style:normal;font-variant:normal;font-weight:normal;font-stretch:normal;font-family:'Comic Sans MS';-inkscape-font-specification:'Comic Sans MS';fill:#ffffff"
           id="path74"
           inkscape:connector-curvature="0" />
      </g>
    </g>
  </g>
</svg>
