<?xml version="1.0" encoding="UTF-8" standalone="no"?>
<svg
   xmlns:dc="http://purl.org/dc/elements/1.1/"
   xmlns:cc="http://creativecommons.org/ns#"
   xmlns:rdf="http://www.w3.org/1999/02/22-rdf-syntax-ns#"
   xmlns:svg="http://www.w3.org/2000/svg"
   xmlns="http://www.w3.org/2000/svg"
   xmlns:sodipodi="http://sodipodi.sourceforge.net/DTD/sodipodi-0.dtd"
   xmlns:inkscape="http://www.inkscape.org/namespaces/inkscape"
   viewBox="0 0 64 64"
   version="1.1"
   id="svg6"
   sodipodi:docname="gtk-cdrom.svg"
   width="64"
   height="64"
   inkscape:version="0.92.2 5c3e80d, 2017-08-06">
  <metadata
     id="metadata10">
    <rdf:RDF>
      <cc:Work
         rdf:about="">
        <dc:format>image/svg+xml</dc:format>
        <dc:type
           rdf:resource="http://purl.org/dc/dcmitype/StillImage" />
        <dc:title></dc:title>
      </cc:Work>
    </rdf:RDF>
  </metadata>
  <sodipodi:namedview
     pagecolor="#ffffff"
     bordercolor="#666666"
     borderopacity="1"
     objecttolerance="10"
     gridtolerance="10"
     guidetolerance="10"
     inkscape:pageopacity="0"
     inkscape:pageshadow="2"
     inkscape:window-width="1366"
     inkscape:window-height="717"
     id="namedview8"
     showgrid="false"
     inkscape:zoom="0.61458333"
     inkscape:cx="237.46071"
     inkscape:cy="320.17862"
     inkscape:window-x="0"
     inkscape:window-y="24"
     inkscape:window-maximized="1"
     inkscape:current-layer="svg6" />
  <defs
     id="defs3051">
    <style
       type="text/css"
       id="current-color-scheme">
      .ColorScheme-Text {
        color:#4d4d4d;
      }
      </style>
  </defs>
  <g
     id="g847"
     transform="matrix(0.125,0,0,0.125,2.8118476e-7,56)">
    <path
       id="path850"
       d="m 432.91326,-391.52606 c 102.19291,88.57458 105.82678,249.69973 8.1168,359.898824 C 343.32005,78.571839 181.27961,96.100609 79.086739,7.5260194 -23.106204,-81.048566 -26.740031,-242.17373 70.969939,-352.3728 168.67988,-462.57189 330.72032,-480.10065 432.91326,-391.52606 Z"
       inkscape:connector-curvature="0"
       style="fill:#3689e6;fill-opacity:1;stroke-width:11.10955906" />
    <path
       id="path852"
       d="m 511.6355,-223.09649 c -1.55139,61.31161 -25.16123,124.154574 -70.96638,175.814444 C 342.95911,62.917069 180.91867,80.445799 78.725759,-8.1287456 30.827126,-49.644356 4.4968187,-107.0772 0.19382668,-167.77119 0.79908068,-101.41456 27.117406,-37.517826 79.078689,7.5190194 181.27156,96.093609 343.31971,78.556149 441.02201,-31.634236 490.72696,-87.692376 514.02703,-156.92524 511.6355,-223.09649 Z"
       inkscape:connector-curvature="0"
       style="opacity:1;fill:#000000;fill-opacity:0.49019608;stroke-width:11.10955906" />
    <path
       style="fill:#000000;fill-opacity:0.49019608;stroke-width:1.51052213"
       d="m 250.81628,-17.509256 c -50.16057,-8.888379 -92.09621,-40.005219 -114.36843,-84.862944 -16.78207,-33.80026 -20.85604,-71.81933 -11.60408,-108.29166 20.30573,-80.04749 102.13143,-130.92985 182.88708,-113.72619 87.29386,18.59653 141.60596,106.12561 119.226,192.14399 -14.7803,56.808685 -60.86607,100.605515 -119.226,113.304338 -14.86027,3.233522 -42.78428,3.936339 -56.91457,1.432466 z m -13.68683,-59.613109 15.06808,-37.603065 -9.01328,-5.82445 c -8.07152,-5.21588 -22.30842,-21.07838 -22.30842,-24.85565 0,-0.74847 -0.71701,-1.36085 -1.59336,-1.36085 -0.87636,0 -17.90409,6.96728 -37.83939,15.48285 -30.53494,13.04331 -36.13343,15.91407 -35.53141,18.2197 3.40261,13.03137 28.17791,44.005765 45.18367,56.489135 7.10098,5.2126 27.74526,16.92349 29.99563,17.01565 0.53373,0.0219 7.75105,-16.88164 16.03848,-37.56332 z m 60.02775,-51.895195 c 8.99211,-4.63512 17.23456,-12.94139 22.10921,-22.28039 5.07746,-13.63131 5.72948,-29.7212 -0.46768,-41.53936 -4.80563,-9.05224 -13.13545,-17.2751 -22.39679,-22.10921 -23.4834,-9.84339 -50.27595,-1.46212 -63.1809,22.10921 -8.14211,18.28006 -3.4299,41.26993 8.58461,54.12915 16.59113,14.25549 37.69431,18.6313 55.35155,9.6906 z m -29.42507,-24.85153 c -6.61093,-3.41529 -12.1143,-11.51111 -12.1143,-17.82091 0,-11.00993 12.91233,-21.70639 23.74897,-19.67343 7.14205,1.33985 14.97667,9.17448 16.31652,16.31652 2.83643,15.1194 -14.39968,28.17874 -27.95119,21.17782 z m 101.72907,-57.96863 c 19.21869,-8.37327 35.54134,-15.80288 36.27258,-16.51026 1.68615,-1.63115 -7.77558,-18.97142 -16.41919,-30.09103 -7.14595,-9.19291 -19.24591,-21.1495 -28.71546,-28.37521 -9.29588,-7.09316 -26.49029,-16.09493 -27.88708,-14.59966 -1.66069,1.77777 -31.77855,70.90077 -31.77855,72.93446 0,0.87668 2.54901,2.91234 5.66447,4.52369 6.45951,3.34096 18.25871,15.15643 22.402,22.43292 1.53744,2.70006 3.40796,4.9092 4.15675,4.9092 0.74877,0 17.08578,-6.85085 36.30448,-15.22411 z"
       id="path841"
       inkscape:connector-curvature="0"
       sodipodi:nodetypes="sssssssscsssscscscccccccssccssscscsccss" />
    <path
       sodipodi:nodetypes="sssssssscsssscscscccccccssccssscscsccss"
       inkscape:connector-curvature="0"
       id="path854"
       d="m 230.81628,-37.509256 c -50.16057,-8.888379 -92.09621,-40.005219 -114.36843,-84.862944 -16.78207,-33.80026 -20.856041,-71.81933 -11.60408,-108.29166 20.30573,-80.04749 102.13143,-130.92985 182.88708,-113.72619 87.29386,18.59653 141.60596,106.12561 119.226,192.14399 -14.7803,56.808685 -60.86607,100.605515 -119.226,113.304338 -14.86027,3.233522 -42.78428,3.936339 -56.91457,1.432466 z m -13.68683,-59.613109 15.06808,-37.603065 -9.01328,-5.82445 c -8.07152,-5.21588 -22.30842,-21.07838 -22.30842,-24.85565 0,-0.74847 -0.71701,-1.36085 -1.59336,-1.36085 -0.87636,0 -17.90409,6.96728 -37.83939,15.48285 -30.53494,13.04331 -36.13343,15.91407 -35.53141,18.2197 3.40261,13.03137 28.17791,44.005765 45.18367,56.489135 7.10098,5.2126 27.74526,16.92349 29.99563,17.01565 0.53373,0.0219 7.75105,-16.88164 16.03848,-37.56332 z m 60.02775,-51.895195 c 8.99211,-4.63512 17.23456,-12.94139 22.10921,-22.28039 5.07746,-13.63131 5.72948,-29.7212 -0.46768,-41.53936 -4.80563,-9.05224 -13.13545,-17.2751 -22.39679,-22.10921 -23.4834,-9.84339 -50.27595,-1.46212 -63.1809,22.10921 -8.14211,18.28006 -3.4299,41.26993 8.58461,54.12915 16.59113,14.25549 37.69431,18.6313 55.35155,9.6906 z m -29.42507,-24.85153 c -6.61093,-3.41529 -12.1143,-11.51111 -12.1143,-17.82091 0,-11.00993 12.91233,-21.70639 23.74897,-19.67343 7.14205,1.33985 14.97667,9.17448 16.31652,16.31652 2.83643,15.1194 -14.39968,28.17874 -27.95119,21.17782 z m 101.72907,-57.96863 c 19.21869,-8.37327 35.54134,-15.80288 36.27258,-16.51026 1.68615,-1.63115 -7.77558,-18.97142 -16.41919,-30.09103 -7.14595,-9.19291 -19.24591,-21.1495 -28.71546,-28.37521 -9.29588,-7.09316 -26.49029,-16.09493 -27.88708,-14.59966 -1.66069,1.77777 -31.77855,70.90077 -31.77855,72.93446 0,0.87668 2.54901,2.91234 5.66447,4.52369 6.45951,3.34096 18.25871,15.15643 22.402,22.43292 1.53744,2.70006 3.40796,4.9092 4.15675,4.9092 0.74877,0 17.08578,-6.85085 36.30448,-15.22411 z"
       style="fill:#ffffff;stroke-width:1.51052213" />
  </g>
</svg>
