<?xml version="1.0" encoding="UTF-8" standalone="no"?>
<svg
   xmlns:dc="http://purl.org/dc/elements/1.1/"
   xmlns:cc="http://creativecommons.org/ns#"
   xmlns:rdf="http://www.w3.org/1999/02/22-rdf-syntax-ns#"
   xmlns:svg="http://www.w3.org/2000/svg"
   xmlns="http://www.w3.org/2000/svg"
   xmlns:sodipodi="http://sodipodi.sourceforge.net/DTD/sodipodi-0.dtd"
   xmlns:inkscape="http://www.inkscape.org/namespaces/inkscape"
   viewBox="0 0 64 64"
   version="1.1"
   id="svg6"
   sodipodi:docname="tools-report-bug.svg"
   width="64"
   height="64"
   inkscape:version="0.92.2 5c3e80d, 2017-08-06">
  <metadata
     id="metadata10">
    <rdf:RDF>
      <cc:Work
         rdf:about="">
        <dc:format>image/svg+xml</dc:format>
        <dc:type
           rdf:resource="http://purl.org/dc/dcmitype/StillImage" />
        <dc:title></dc:title>
      </cc:Work>
    </rdf:RDF>
  </metadata>
  <sodipodi:namedview
     pagecolor="#ffffff"
     bordercolor="#666666"
     borderopacity="1"
     objecttolerance="10"
     gridtolerance="10"
     guidetolerance="10"
     inkscape:pageopacity="0"
     inkscape:pageshadow="2"
     inkscape:window-width="1366"
     inkscape:window-height="717"
     id="namedview8"
     showgrid="false"
     inkscape:zoom="3.4766083"
     inkscape:cx="7.3556409"
     inkscape:cy="24.961246"
     inkscape:window-x="0"
     inkscape:window-y="24"
     inkscape:window-maximized="1"
     inkscape:current-layer="svg6" />
  <defs
     id="defs3051">
    <style
       type="text/css"
       id="current-color-scheme">
      .ColorScheme-Text {
        color:#4d4d4d;
      }
      </style>
  </defs>
  <g
     id="g845"
     transform="matrix(0.125,0,0,0.125,0,56.000034)">
    <path
       style="fill:#c6262e;fill-opacity:1;stroke-width:11.10955811"
       inkscape:connector-curvature="0"
       d="m 432.91327,-391.52599 c 102.19291,88.57459 105.82678,249.69971 8.1168,359.898789 C 343.3201,78.571879 181.27964,96.100647 79.086728,7.5260631 -23.106186,-81.048529 -26.740042,-242.17365 70.969929,-352.37273 168.6799,-462.57181 330.72036,-480.10058 432.91327,-391.52599 Z"
       id="path27" />
    <path
       style="opacity:1;fill:#000000;fill-opacity:0.49019608;stroke-width:11.10955811"
       inkscape:connector-curvature="0"
       d="m 511.63551,-223.09642 c -1.5514,61.31165 -25.16124,124.154591 -70.96639,175.814482 C 342.95915,62.917157 180.91869,80.445904 78.72578,-8.1286695 30.827126,-49.644297 4.4968248,-107.07712 0.19383124,-167.77115 0.79908239,-101.41448 27.117414,-37.517751 79.078684,7.5191041 181.2716,96.093678 343.31975,78.556255 441.02202,-31.634164 490.72696,-87.692303 514.02705,-156.92513 511.63551,-223.09642 Z"
       id="path51" />
    <path
       style="fill:#000000;fill-opacity:0.49019608;stroke-width:0.49850711"
       d="m 136.32106,-18.198841 c -2.48641,-0.79664 -5.34376,-3.86355 -6.31014,-6.7731 -0.78656,-2.36803 -0.78728,-2.81477 -0.0112,-6.91265 0.456,-2.40952 1.13426,-6.28777 1.5073,-8.61831 0.37304,-2.33049 1.36937,-8.05088 2.21406,-12.71191 0.8447,-4.66102 2.2022,-12.28822 3.0167,-16.94925 0.81452,-4.66103 2.1555,-12.28819 2.97997,-16.94925 0.82445,-4.66103 2.17891,-12.38211 3.00987,-17.157919 0.83096,-4.77586 1.6416,-8.89486 1.80138,-9.15342 0.15976,-0.25856 1.5517,-1.02247 3.09313,-1.6976 7.4478,-3.2622 16.46543,-7.266 18.25631,-8.10581 2.4075,-1.12898 20.0183,-9.00049 23.21075,-10.37454 l 2.27346,-0.97852 -0.0304,-15.14963 -0.0304,-15.14967 -2.24328,-0.6036 c -2.32935,-0.6268 -8.77454,-2.4096 -18.19551,-5.03305 -3.01596,-0.83985 -10.0823,-2.79008 -15.70298,-4.33383 -5.62067,-1.54375 -10.47013,-3.07253 -10.77661,-3.39727 -0.50608,-0.53632 -1.76397,-4.37223 -6.24189,-19.03517 -0.83732,-2.74179 -2.05295,-6.66755 -2.7014,-8.72387 -0.64848,-2.05636 -2.4319,-7.77672 -3.96318,-12.71195 -1.53128,-4.93519 -3.31999,-10.65558 -3.97491,-12.71191 -2.50741,-7.87279 -2.86607,-9.90474 -2.22211,-12.58904 1.48268,-6.18049 8.42424,-9.56269 14.17714,-6.90759 3.65946,1.68897 4.8857,3.69593 7.49586,12.26828 1.00181,3.29012 2.35321,7.66454 3.00312,9.72087 0.64992,2.05633 2.32215,7.44022 3.71609,11.96417 1.39395,4.52394 3.29931,10.69301 4.23413,13.70895 0.93485,3.01599 1.84538,6.10069 2.02343,6.85497 0.36632,1.55161 0.18984,1.48921 18.66017,6.59735 5.62066,1.55449 11.4171,3.18244 12.88095,3.61769 3.01194,0.8956 3.24841,0.7516 3.82663,-2.33057 0.18328,-0.97678 0.59296,-1.94128 0.91054,-2.14337 0.75488,-0.48032 160.4207,-0.48032 161.17556,0 0.31752,0.20224 0.72728,1.16659 0.91053,2.14337 0.57824,3.08239 0.81485,3.22636 3.82664,2.32865 1.46384,-0.43632 5.24132,-1.49402 8.39438,-2.35038 6.97194,-1.89354 15.05335,-4.17981 19.51546,-5.52094 2.84504,-0.85512 3.3586,-1.18833 3.62929,-2.35461 0.17336,-0.7472 1.08173,-3.82617 2.01848,-6.84216 0.93675,-3.01594 3.40948,-10.9796 5.49499,-17.69699 6.87382,-22.14097 7.368,-23.66374 8.25052,-25.42387 4.08044,-8.13831 16.1769,-6.90091 18.74036,1.91702 1.0322,3.55056 1.4592,1.72838 -6.03416,25.75011 -1.45399,4.66107 -3.46976,11.16658 -4.47953,14.45673 -1.00975,3.29012 -2.80944,9.12265 -3.99935,12.96118 -1.18987,3.83852 -2.55164,8.38389 -3.02612,10.10089 l -0.86271,3.12178 -3.29749,0.96786 c -4.73737,1.39045 -30.20777,8.46501 -33.4572,9.29291 -1.508,0.38424 -4.53642,1.23341 -6.72985,1.88701 l -3.98805,1.18839 -0.004,15.09212 -0.004,15.09214 2.24753,0.96703 c 1.23615,0.53192 6.50978,2.87463 11.71919,5.20607 19.61601,8.77908 26.57578,11.88476 29.72197,13.26282 1.54145,0.67512 2.93019,1.43395 3.08614,1.68627 0.25776,0.41712 1.92968,9.51035 5.06884,27.568929 0.64336,3.70145 1.77025,10.09481 2.50409,14.20747 0.73384,4.1127 1.96452,11.06687 2.7349,15.45374 0.77032,4.38685 2.13562,12.01402 3.03394,16.94921 0.89832,4.93523 1.6337,10.09478 1.63416,11.46569 0.002,5.29274 -4.24559,9.74744 -9.63549,10.10589 -2.41361,0.16064 -3.09275,-0.0224 -5.48693,-1.47179 -3.42226,-2.07288 -4.79532,-4.449 -5.76556,-9.97764 -0.3996,-2.27702 -1.28576,-7.28063 -1.96921,-11.11915 -1.12138,-6.2984 -3.03077,-17.09393 -7.2739,-41.12685 -0.79872,-4.52395 -1.81794,-10.38233 -2.26487,-13.01863 l -0.81264,-4.7933 -2.05339,-0.893099 c -1.12937,-0.4912 -6.16198,-2.76469 -11.18358,-5.05221 -5.02112,-2.28752 -9.21401,-4.15915 -9.31703,-4.15915 -0.10304,0 -2.12069,-0.89729 -4.48367,-1.99404 -2.36298,-1.0967 -4.61089,-1.994 -4.99537,-1.994 -0.65584,0 -0.92749,0.73632 -2.29944,6.23134 -0.27384,1.09671 -1.25397,4.2373 -2.17813,6.97909 -12.04913,35.747149 -35.9091,60.926479 -63.8076,67.335839 -5.1523,1.18367 -7.0539,1.37431 -13.70896,1.37431 -6.65503,0 -8.55664,-0.19048 -13.70894,-1.37431 -20.61912,-4.73704 -38.46783,-19.09629 -52.42085,-42.17254 -5.05282,-8.35657 -11.22121,-23.00405 -13.58842,-32.267039 -0.29776,-1.16526 -0.7744,-3.01594 -1.05914,-4.11269 -0.2916,-1.12312 -0.82072,-1.994 -1.21149,-1.994 -0.3816,0 -2.11148,0.6496 -3.84423,1.44355 -5.23931,2.40068 -22.91715,10.32057 -25.63658,11.48549 l -2.54586,1.090589 -0.81869,4.8297 c -0.45024,2.65637 -1.49499,8.64333 -2.32158,13.30435 -0.8266,4.66107 -2.17205,12.28823 -2.98989,16.94926 -0.81784,4.66102 -2.04896,11.61521 -2.73582,15.45373 -0.68688,3.83849 -1.8139,10.34404 -2.50456,14.45669 -1.86777,11.12225 -2.86386,13.24793 -7.24944,15.47025 -2.5726,1.30364 -5.05491,1.49443 -7.83903,0.60248 z m 76.41573,-184.319929 c -0.72136,-1.16716 0.94415,-14.35215 2.55019,-20.18846 3.04521,-11.0663 7.81165,-20.20173 14.7416,-28.25397 l 2.43568,-2.8302 -1.2472,-4.8967 c -6.40268,-25.1384 -22.59208,-43.51 -46.39602,-52.6498 -2.46761,-0.9475 -5.72036,-2.0054 -7.22835,-2.351 -1.50798,-0.3454 -3.3026,-0.9132 -3.98807,-1.2617 -3.82568,-1.9447 -5.12608,-6.2684 -3.2504,-10.8074 0.55672,-1.3472 4.75083,-3.879 6.42583,-3.879 1.88481,0 8.62357,2.0152 14.52158,4.3426 20.74559,8.1865 38.63538,24.3785 47.80136,43.2648 2.42664,5 4.22951,9.4092 5.38686,13.1742 0.55392,1.8021 1.10649,3.4416 1.22782,3.6434 0.12128,0.2019 2.02029,-0.538 4.21989,-1.644 9.62086,-4.8372 15.25146,-6.1203 26.85803,-6.1203 11.61322,0 17.78555,1.4138 27.02987,6.1915 l 3.84926,1.9895 0.70664,-1.6912 c 0.38864,-0.9301 0.87046,-2.4524 1.07074,-3.3828 0.41816,-1.9426 5.99955,-14.7763 6.91456,-15.8991 0.3352,-0.4113 1.48581,-2.2059 2.55702,-3.988 7.26796,-12.0918 20.22202,-23.9586 34.14355,-31.2777 7.78078,-4.0907 20.1691,-8.6029 23.61934,-8.6029 1.79891,0 5.9676,2.4686 6.55045,3.879 2.20659,5.3398 -0.0672,10.2434 -5.36253,11.5644 -5.64183,1.4075 -11.13172,3.4676 -16.5819,6.2223 -20.05255,10.1354 -32.91518,26.403 -38.94132,49.2495 l -1.2827,4.863 2.45481,2.8638 c 10.5104,12.26178 15.8527,26.05551 17.37544,44.86311 l 0.33296,4.1127 h -64.09311 c -42.28234,0 -64.19819,-0.17008 -64.40186,-0.4996 z"
       id="path838"
       inkscape:connector-curvature="0" />
    <path
       inkscape:connector-curvature="0"
       id="path852"
       d="m 116.32082,-38.198849 c -2.48641,-0.79664 -5.34376,-3.863552 -6.31014,-6.773104 -0.78656,-2.368024 -0.78728,-2.814768 -0.0112,-6.912648 0.456,-2.40952 1.13426,-6.287768 1.5073,-8.618304 0.37304,-2.330496 1.36937,-8.05088 2.21406,-12.711912 0.8447,-4.661024 2.2022,-12.288224 3.0167,-16.949256 0.81452,-4.661024 2.1555,-12.288187 2.97997,-16.949247 0.82445,-4.66103 2.17891,-12.38211 3.00987,-17.15792 0.83096,-4.77586 1.6416,-8.89486 1.80138,-9.15342 0.15976,-0.25856 1.5517,-1.02247 3.09313,-1.6976 7.4478,-3.2622 16.46543,-7.266 18.25631,-8.10581 2.4075,-1.12898 20.0183,-9.00049 23.21075,-10.37454 l 2.27346,-0.97852 -0.0304,-15.14963 -0.0304,-15.14967 -2.24328,-0.6036 c -2.32935,-0.6268 -8.77454,-2.4096 -18.19551,-5.03305 -3.01596,-0.83985 -10.0823,-2.79008 -15.70298,-4.33383 -5.62067,-1.54375 -10.47013,-3.07253 -10.77661,-3.39727 -0.50608,-0.53632 -1.76397,-4.37223 -6.24189,-19.03517 -0.83732,-2.74179 -2.05295,-6.66755 -2.7014,-8.72387 -0.64848,-2.05636 -2.4319,-7.77672 -3.96318,-12.71195 -1.53128,-4.93519 -3.31999,-10.65558 -3.97491,-12.71191 -2.50741,-7.87279 -2.86607,-9.90474 -2.22211,-12.58904 1.48268,-6.18051 8.42424,-9.5627 14.17714,-6.90758 3.65946,1.68896 4.8857,3.69592 7.49586,12.26827 1.00181,3.29012 2.35321,7.66454 3.00312,9.72087 0.64992,2.05633 2.32215,7.44022 3.71609,11.96417 1.39395,4.52394 3.29931,10.69301 4.23413,13.70895 0.93485,3.01599 1.84538,6.10069 2.02343,6.85497 0.36632,1.55161 0.18984,1.48921 18.66017,6.59735 5.62066,1.55449 11.4171,3.18244 12.88095,3.61769 3.01194,0.8956 3.24841,0.7516 3.82663,-2.33057 0.18328,-0.97678 0.59296,-1.94128 0.91054,-2.14337 0.75488,-0.48032 160.4207,-0.48032 161.17556,0 0.31752,0.20224 0.72728,1.16659 0.91053,2.14337 0.57824,3.08239 0.81485,3.22636 3.82664,2.32865 1.46384,-0.43632 5.24132,-1.49402 8.39438,-2.35038 6.97194,-1.89354 15.05335,-4.17981 19.51546,-5.52094 2.84504,-0.85512 3.3586,-1.18833 3.62929,-2.35461 0.17336,-0.7472 1.08173,-3.82617 2.01848,-6.84216 0.93675,-3.01594 3.40948,-10.9796 5.49499,-17.69699 6.87382,-22.14097 7.368,-23.66374 8.25052,-25.42387 4.08044,-8.1383 16.1769,-6.90088 18.74036,1.91702 1.0322,3.55056 1.4592,1.72838 -6.03416,25.75011 -1.45399,4.66107 -3.46976,11.16658 -4.47953,14.45673 -1.00975,3.29012 -2.80944,9.12265 -3.99935,12.96118 -1.18987,3.83852 -2.55164,8.38389 -3.02612,10.10089 l -0.86271,3.12178 -3.29749,0.96786 c -4.73737,1.39045 -30.20777,8.46501 -33.4572,9.29291 -1.508,0.38424 -4.53642,1.23341 -6.72985,1.88701 l -3.98805,1.18839 -0.004,15.09212 -0.004,15.09214 2.24753,0.96703 c 1.23615,0.53192 6.50978,2.87463 11.71919,5.20607 19.61601,8.77908 26.57578,11.88476 29.72197,13.26282 1.54145,0.67512 2.93019,1.43395 3.08614,1.68627 0.25776,0.41712 1.92968,9.51035 5.06884,27.56893 0.64336,3.70145 1.77025,10.094815 2.50409,14.207471 0.73384,4.112696 1.96452,11.066872 2.7349,15.453736 0.77032,4.386856 2.13562,12.014024 3.03394,16.949216 0.89832,4.935232 1.6337,10.094776 1.63416,11.465688 0.002,5.292736 -4.24559,9.74744 -9.63549,10.105888 -2.41361,0.16064 -3.09275,-0.0224 -5.48693,-1.471784 -3.42226,-2.07288 -4.79532,-4.449 -5.76556,-9.977648 -0.3996,-2.277016 -1.28576,-7.280624 -1.96921,-11.119144 -1.12138,-6.2984 -3.03077,-17.093936 -7.2739,-41.126853 -0.79872,-4.52395 -1.81794,-10.38233 -2.26487,-13.01863 l -0.81264,-4.7933 -2.05339,-0.8931 c -1.12937,-0.4912 -6.16198,-2.76469 -11.18358,-5.05221 -5.02112,-2.28752 -9.21401,-4.15915 -9.31703,-4.15915 -0.10304,0 -2.12069,-0.89729 -4.48367,-1.99404 -2.36298,-1.0967 -4.61089,-1.994 -4.99537,-1.994 -0.65584,0 -0.92749,0.73632 -2.29944,6.23134 -0.27384,1.09671 -1.25397,4.2373 -2.17813,6.97909 -12.04913,35.747149 -35.9091,60.926477 -63.8076,67.335837 -5.1523,1.183672 -7.0539,1.374312 -13.70896,1.374312 -6.65503,0 -8.55664,-0.19048 -13.70894,-1.374312 -20.61912,-4.737032 -38.46783,-19.096288 -52.42085,-42.172536 -5.05282,-8.356571 -11.22121,-23.004051 -13.58842,-32.267041 -0.29776,-1.16526 -0.7744,-3.01594 -1.05914,-4.11269 -0.2916,-1.12312 -0.82072,-1.994 -1.21149,-1.994 -0.3816,0 -2.11148,0.6496 -3.84423,1.44355 -5.23931,2.40068 -22.91715,10.32057 -25.63658,11.48549 l -2.54586,1.09059 -0.81869,4.8297 c -0.45024,2.65637 -1.49499,8.64333 -2.32158,13.30435 -0.8266,4.661067 -2.17205,12.288235 -2.98989,16.949259 -0.81784,4.661024 -2.04896,11.615208 -2.73582,15.453736 -0.68688,3.838488 -1.8139,10.344032 -2.50456,14.456688 -1.86777,11.122248 -2.86386,13.247928 -7.24944,15.470248 -2.5726,1.30364 -5.05491,1.494432 -7.83903,0.60248 z m 76.41573,-184.319931 c -0.72136,-1.16716 0.94415,-14.35215 2.55019,-20.18846 3.04521,-11.0663 7.81165,-20.20173 14.7416,-28.25401 l 2.43568,-2.83011 -1.2472,-4.89672 c -6.40268,-25.13839 -22.59208,-43.50999 -46.39602,-52.64987 -2.46761,-0.9475 -5.72036,-2.00539 -7.22835,-2.35091 -1.50798,-0.34544 -3.3026,-0.91328 -3.98807,-1.26172 -3.82568,-1.94468 -5.12608,-6.26838 -3.2504,-10.8074 0.55672,-1.34718 4.75083,-3.87905 6.42583,-3.87905 1.88481,0 8.62357,2.01521 14.52158,4.34264 20.74559,8.18645 38.63538,24.37845 47.80136,43.26482 2.42664,5.00001 4.22951,9.40914 5.38686,13.17415 0.55392,1.80212 1.10649,3.44164 1.22782,3.64343 0.12128,0.20184 2.02029,-0.538 4.21989,-1.64399 9.62086,-4.83726 15.25146,-6.12034 26.85803,-6.12034 11.61322,0 17.78555,1.41385 27.02987,6.19155 l 3.84926,1.98943 0.70664,-1.69115 c 0.38864,-0.93014 0.87046,-2.45238 1.07074,-3.38279 0.41816,-1.94264 5.99955,-14.77637 6.91456,-15.89911 0.3352,-0.41128 1.48581,-2.20588 2.55702,-3.98804 7.26796,-12.09181 20.22202,-23.95855 34.14355,-31.27767 7.78078,-4.0907 20.1691,-8.60293 23.61934,-8.60293 1.79891,0 5.9676,2.46864 6.55045,3.87905 2.20659,5.33979 -0.0672,10.24338 -5.36253,11.5644 -5.64183,1.40746 -11.13172,3.46753 -16.5819,6.22232 -20.05255,10.1354 -32.91518,26.40291 -38.94132,49.24944 l -1.2827,4.863 2.45481,2.86386 c 10.5104,12.26173 15.8527,26.05546 17.37544,44.86306 l 0.33296,4.1127 h -64.09311 c -42.28234,0 -64.19819,-0.17008 -64.40186,-0.4996 z"
       style="fill:#ffffff;stroke-width:0.49850711" />
  </g>
</svg>
