<?xml version="1.0" encoding="UTF-8" standalone="no"?>
<svg
   xmlns:dc="http://purl.org/dc/elements/1.1/"
   xmlns:cc="http://creativecommons.org/ns#"
   xmlns:rdf="http://www.w3.org/1999/02/22-rdf-syntax-ns#"
   xmlns:svg="http://www.w3.org/2000/svg"
   xmlns="http://www.w3.org/2000/svg"
   xmlns:sodipodi="http://sodipodi.sourceforge.net/DTD/sodipodi-0.dtd"
   xmlns:inkscape="http://www.inkscape.org/namespaces/inkscape"
   viewBox="0 0 64 64"
   version="1.1"
   id="svg6"
   sodipodi:docname="tools-media-optical-erase.svg"
   width="64"
   height="64"
   inkscape:version="0.92.2 5c3e80d, 2017-08-06">
  <metadata
     id="metadata10">
    <rdf:RDF>
      <cc:Work
         rdf:about="">
        <dc:format>image/svg+xml</dc:format>
        <dc:type
           rdf:resource="http://purl.org/dc/dcmitype/StillImage" />
        <dc:title></dc:title>
      </cc:Work>
    </rdf:RDF>
  </metadata>
  <sodipodi:namedview
     pagecolor="#ffffff"
     bordercolor="#666666"
     borderopacity="1"
     objecttolerance="10"
     gridtolerance="10"
     guidetolerance="10"
     inkscape:pageopacity="0"
     inkscape:pageshadow="2"
     inkscape:window-width="1366"
     inkscape:window-height="717"
     id="namedview8"
     showgrid="false"
     inkscape:zoom="0.10864401"
     inkscape:cx="-2411.5391"
     inkscape:cy="1187.0115"
     inkscape:window-x="0"
     inkscape:window-y="24"
     inkscape:window-maximized="1"
     inkscape:current-layer="svg6" />
  <defs
     id="defs3051">
    <style
       type="text/css"
       id="current-color-scheme">
      .ColorScheme-Text {
        color:#4d4d4d;
      }
      </style>
  </defs>
  <g
     id="g848"
     transform="matrix(0.125,0,0,0.125,2.8118476e-7,56)">
    <path
       id="path850"
       d="m 432.91326,-391.52606 c 102.19291,88.57458 105.82678,249.69973 8.1168,359.898824 C 343.32005,78.571839 181.27961,96.100609 79.086739,7.5260194 -23.106204,-81.048566 -26.740031,-242.17373 70.969939,-352.3728 168.67988,-462.57189 330.72032,-480.10065 432.91326,-391.52606 Z"
       inkscape:connector-curvature="0"
       style="fill:#3689e6;fill-opacity:1;stroke-width:11.10955906" />
    <path
       id="path852"
       d="m 511.6355,-223.09649 c -1.55139,61.31161 -25.16123,124.154574 -70.96638,175.814444 C 342.95911,62.917069 180.91867,80.445799 78.725759,-8.1287456 30.827126,-49.644356 4.4968187,-107.0772 0.19382668,-167.77119 0.79908068,-101.41456 27.117406,-37.517826 79.078689,7.5190194 181.27156,96.093609 343.31971,78.556149 441.02201,-31.634236 490.72696,-87.692376 514.02703,-156.92524 511.6355,-223.09649 Z"
       inkscape:connector-curvature="0"
       style="opacity:1;fill:#000000;fill-opacity:0.49019608;stroke-width:11.10955906" />
    <path
       inkscape:connector-curvature="0"
       style="fill:#000000;fill-opacity:0.49019608;stroke-width:1.51052213"
       d="m 277.51971,-327.72635 c -70.03954,-0.69151 -134.90827,47.02094 -152.67578,117.0625 -9.25196,36.47233 -5.17856,74.49075 11.60352,108.29101 22.27222,44.857727 64.20857,75.974904 114.36914,84.863283 14.13029,2.503873 42.05379,1.801882 56.91406,-1.43164 58.35993,-12.698823 104.44626,-56.496003 119.22656,-113.304683 22.37996,-86.01838 -31.9327,-173.548 -119.22656,-192.14453 -10.09446,-2.15046 -20.20529,-3.23716 -30.21094,-3.33594 z m 55.63281,26.15234 c 3.074,-0.21712 18.73238,8.10993 27.44727,14.75977 9.46955,7.22571 21.56889,19.18209 28.71484,28.375 8.64361,11.11961 18.10607,28.46064 16.41993,30.09179 -0.73125,0.70738 -17.05475,8.1365 -36.27344,16.50977 -19.2187,8.37326 -35.55592,15.22461 -36.30469,15.22461 -0.74879,0 -2.61881,-2.2101 -4.15625,-4.91016 -4.14329,-7.27649 -15.94283,-19.09068 -22.40234,-22.43164 -3.11546,-1.61135 -5.66407,-3.64676 -5.66407,-4.52344 0,-2.03369 30.11861,-71.15777 31.7793,-72.93554 0.0873,-0.0935 0.23452,-0.14568 0.43945,-0.16016 z m -56.96679,82.58008 c 6.74564,-0.0472 13.61209,1.27842 20.21679,4.04687 9.26134,4.83411 17.59086,13.05714 22.39649,22.10938 6.19716,11.81816 5.54425,27.90775 0.46679,41.53906 -4.87464,9.339 -13.11726,17.64613 -22.10937,22.28125 -17.65724,8.9407 -38.76043,4.56409 -55.35156,-9.6914 -12.01451,-12.85922 -16.7261,-35.84885 -8.58399,-54.12891 9.27544,-16.94189 25.72598,-26.03554 42.96485,-26.15625 z m 0.0918,27.38476 c -10.05403,0.22175 -20.66015,9.94218 -20.66015,19.91993 0,6.3098 5.5043,14.40502 12.11523,17.82031 13.55151,7.00092 30.7876,-6.05833 27.95117,-21.17774 -1.33985,-7.14204 -9.17435,-14.97655 -16.3164,-16.3164 -1.01594,-0.19059 -2.04977,-0.26903 -3.08985,-0.2461 z m -56.99414,44.84376 c 0.87635,-1e-5 1.5918,0.6109 1.5918,1.35937 0,3.77727 14.23707,19.63959 22.30859,24.85547 l 9.01368,5.82617 -15.06836,37.601562 c -8.28743,20.68168 -15.50338,37.586353 -16.03711,37.564453 -2.25037,-0.09216 -22.89512,-11.803025 -29.9961,-17.015625 -17.00576,-12.48337 -41.78098,-43.45886 -45.18359,-56.49023 -0.60202,-2.30563 4.99631,-5.17544 35.53125,-18.21875 19.9353,-8.51557 36.96348,-15.48242 37.83984,-15.48242 z m 131.81055,3.32421 c 0.18091,0.001 0.34964,0.0118 0.50195,0.0352 0.53755,0.0824 1.6091,0.45426 2.38086,0.82617 1.23132,0.59341 3.37173,2.6477 17.47071,16.76563 18.19819,18.22264 17.37464,17.23781 17.375,20.78906 2.4e-4,3.54062 1.47792,1.85268 -25.60743,29.230467 -13.18389,13.326259 -24.65418,24.745869 -25.49023,25.376953 -2.10409,1.588223 -5.72695,3.41111 -7.86914,3.958985 -1.58439,0.405213 -2.57591,0.458632 -8.48047,0.447265 -5.7464,-0.01107 -6.91987,-0.07434 -8.34961,-0.449219 -2.12672,-0.557603 -5.08244,-2.037661 -7.42773,-3.716796 -2.42658,-1.737348 -20.41129,-20.724513 -21.36914,-22.560547 -0.5288,-1.013597 -0.63102,-1.509124 -0.63672,-3.078125 -0.0135,-3.618394 -2.77024,-0.567818 31.65039,-35.042973 16.93081,-16.95758 31.18089,-31.08693 31.66601,-31.40039 1.05439,-0.68128 2.91918,-1.19027 4.18555,-1.18164 z m -32.89844,40.61329 -13.66406,13.666009 -13.66602,13.666016 3.42579,3.582032 c 8.17052,8.540068 15.31564,15.601989 16.65039,16.458984 3.00494,1.92935 3.16787,1.96056 10.55078,1.966797 l 6.56836,0.0039 1.38281,-0.693359 c 0.76011,-0.382003 2.01544,-1.250247 2.79102,-1.929688 1.44803,-1.268565 16.01367,-16.317387 16.01367,-16.544922 0,-0.06964 -6.7629,-6.886667 -15.02735,-15.150386 z"
       id="path842" />
    <path
       id="path854"
       d="m 257.51953,-347.72656 c -70.03954,-0.69151 -134.90827,47.02094 -152.67578,117.0625 -9.251961,36.47233 -5.178554,74.49075 11.60352,108.29101 22.27222,44.857728 64.20857,75.974905 114.36914,84.863284 14.13029,2.503873 42.05379,1.801882 56.91406,-1.43164 58.35993,-12.698823 104.44626,-56.496003 119.22656,-113.304684 22.37996,-86.01838 -31.9327,-173.548 -119.22656,-192.14453 -10.09446,-2.15046 -20.20529,-3.23716 -30.21094,-3.33594 z m 55.63281,26.15234 c 3.074,-0.21712 18.73238,8.10993 27.44727,14.75977 9.46955,7.22571 21.56889,19.18209 28.71484,28.375 8.64361,11.11961 18.10607,28.46064 16.41993,30.09179 -0.73125,0.70738 -17.05475,8.1365 -36.27344,16.50977 -19.2187,8.37326 -35.55592,15.22461 -36.30469,15.22461 -0.74879,0 -2.61881,-2.2101 -4.15625,-4.91016 -4.14329,-7.27649 -15.94283,-19.09068 -22.40234,-22.43164 -3.11546,-1.61135 -5.66407,-3.64676 -5.66407,-4.52344 0,-2.03369 30.11861,-71.15777 31.7793,-72.93554 0.0873,-0.0935 0.23452,-0.14568 0.43945,-0.16016 z m -56.96679,82.58008 c 6.74564,-0.0472 13.61209,1.27842 20.21679,4.04687 9.26134,4.83411 17.59086,13.05714 22.39649,22.10938 6.19716,11.81816 5.54425,27.90775 0.46679,41.53906 -4.87464,9.339 -13.11726,17.64613 -22.10937,22.28125 -17.65724,8.9407 -38.76043,4.56409 -55.35156,-9.6914 -12.01451,-12.85922 -16.7261,-35.84885 -8.58399,-54.12891 9.27544,-16.94189 25.72598,-26.03554 42.96485,-26.15625 z m 0.0918,27.38476 c -10.05403,0.22175 -20.66015,9.94218 -20.66015,19.91993 0,6.3098 5.5043,14.40502 12.11523,17.82031 13.55151,7.00092 30.7876,-6.05833 27.95117,-21.17774 -1.33985,-7.14204 -9.17435,-14.97655 -16.3164,-16.3164 -1.01594,-0.19059 -2.04977,-0.26903 -3.08985,-0.2461 z m -56.99414,44.84376 c 0.87635,-10e-6 1.5918,0.6109 1.5918,1.35937 0,3.77727 14.23707,19.63959 22.30859,24.85547 l 9.01368,5.82617 -15.06836,37.601563 c -8.28743,20.68168 -15.50338,37.586353 -16.03711,37.564453 -2.25037,-0.09216 -22.89512,-11.803025 -29.9961,-17.015625 -17.00576,-12.48337 -41.78098,-43.458861 -45.18359,-56.490231 -0.60202,-2.30563 4.99631,-5.17544 35.53125,-18.21875 19.9353,-8.51557 36.96348,-15.48242 37.83984,-15.48242 z m 131.81055,3.32421 c 0.18091,0.001 0.34964,0.0118 0.50195,0.0352 0.53755,0.0824 1.6091,0.45426 2.38086,0.82617 1.23132,0.59341 3.37173,2.6477 17.47071,16.76563 18.19819,18.22264 17.37464,17.23781 17.375,20.78906 2.4e-4,3.54062 1.47792,1.85268 -25.60743,29.230468 -13.18389,13.326259 -24.65418,24.745869 -25.49023,25.376953 -2.10409,1.588223 -5.72695,3.41111 -7.86914,3.958985 -1.58439,0.405213 -2.57591,0.458632 -8.48047,0.447265 -5.7464,-0.01107 -6.91987,-0.07434 -8.34961,-0.449219 -2.12672,-0.557603 -5.08244,-2.037661 -7.42773,-3.716796 -2.42658,-1.737348 -20.41129,-20.724513 -21.36914,-22.560547 -0.5288,-1.013597 -0.63102,-1.509124 -0.63672,-3.078125 -0.0135,-3.618394 -2.77024,-0.567818 31.65039,-35.042974 16.93081,-16.95758 31.18089,-31.08693 31.66601,-31.40039 1.05439,-0.68128 2.91918,-1.19027 4.18555,-1.18164 z m -32.89844,40.61329 -13.66406,13.66601 -13.66602,13.666016 3.42579,3.582032 c 8.17052,8.540068 15.31564,15.601989 16.65039,16.458984 3.00494,1.92935 3.16787,1.96056 10.55078,1.966797 l 6.56836,0.0039 1.38281,-0.693359 c 0.76011,-0.382003 2.01544,-1.250247 2.79102,-1.929688 1.44803,-1.268565 16.01367,-16.317387 16.01367,-16.544922 0,-0.06964 -6.7629,-6.886667 -15.02735,-15.150386 z"
       style="fill:#ffffff;stroke-width:1.51052213"
       inkscape:connector-curvature="0" />
  </g>
</svg>
