<?xml version="1.0" encoding="UTF-8" standalone="no"?>
<svg
   xmlns:dc="http://purl.org/dc/elements/1.1/"
   xmlns:cc="http://creativecommons.org/ns#"
   xmlns:rdf="http://www.w3.org/1999/02/22-rdf-syntax-ns#"
   xmlns:svg="http://www.w3.org/2000/svg"
   xmlns="http://www.w3.org/2000/svg"
   xmlns:sodipodi="http://sodipodi.sourceforge.net/DTD/sodipodi-0.dtd"
   xmlns:inkscape="http://www.inkscape.org/namespaces/inkscape"
   viewBox="0 0 64 64"
   version="1.1"
   id="svg6"
   sodipodi:docname="kruler-north.svg"
   width="64"
   height="64"
   inkscape:version="0.92.2 5c3e80d, 2017-08-06">
  <metadata
     id="metadata10">
    <rdf:RDF>
      <cc:Work
         rdf:about="">
        <dc:format>image/svg+xml</dc:format>
        <dc:type
           rdf:resource="http://purl.org/dc/dcmitype/StillImage" />
        <dc:title></dc:title>
      </cc:Work>
    </rdf:RDF>
  </metadata>
  <sodipodi:namedview
     pagecolor="#ffffff"
     bordercolor="#666666"
     borderopacity="1"
     objecttolerance="10"
     gridtolerance="10"
     guidetolerance="10"
     inkscape:pageopacity="0"
     inkscape:pageshadow="2"
     inkscape:window-width="1366"
     inkscape:window-height="717"
     id="namedview8"
     showgrid="false"
     inkscape:zoom="3.4766083"
     inkscape:cx="13.422556"
     inkscape:cy="47.338279"
     inkscape:window-x="0"
     inkscape:window-y="24"
     inkscape:window-maximized="1"
     inkscape:current-layer="svg6" />
  <defs
     id="defs3051">
    <style
       type="text/css"
       id="current-color-scheme">
      .ColorScheme-Text {
        color:#4d4d4d;
      }
      </style>
  </defs>
  <g
     id="g863"
     transform="matrix(0.125,0,0,0.125,6.1868113e-8,61)">
    <path
       style="fill:#3689e6;fill-opacity:1;stroke-width:11.10955906"
       inkscape:connector-curvature="0"
       d="m 432.91328,-431.52606 c 102.1929,88.57459 105.82676,249.69974 8.1168,359.898821 C 343.32007,38.571841 181.27963,56.100609 79.086738,-32.473983 -23.106204,-121.04856 -26.740031,-282.17372 70.969938,-392.37279 168.67989,-502.57187 330.72033,-520.10064 432.91328,-431.52606 Z"
       id="path27-5" />
    <path
       style="opacity:1;fill:#000000;fill-opacity:0.49019608;stroke-width:11.10955906"
       inkscape:connector-curvature="0"
       d="m 511.63551,-263.09648 c -1.55139,61.31161 -25.16123,124.15457 -70.96637,175.814441 C 342.95912,22.917073 180.91868,40.445801 78.725756,-48.128751 30.827124,-89.644359 4.4968182,-147.07719 0.1938262,-207.77119 0.79907972,-141.41455 27.117404,-77.517815 79.078686,-32.480975 181.27157,56.093617 343.31973,38.556153 441.02203,-71.634231 490.72698,-127.69237 514.02704,-196.92523 511.63551,-263.09648 Z"
       id="path51-6" />
    <g
       style="fill:#000000;fill-opacity:0.49019608"
       transform="rotate(-90,256,-212.38752)"
       id="g865">
      <path
         inkscape:connector-curvature="0"
         id="path859"
         d="m 99.907653,-125.63495 c 1.203277,-3.38062 4.180737,-6.39509 7.316917,-7.408 2.94462,-0.95098 4.80505,-0.97493 7.71472,-0.0994 4.07341,1.22592 1.97976,-1.11785 35.80425,40.082116 7.73639,9.423335 10.72648,13.058157 17.83955,21.686386 l 0.98242,1.191687 1.31401,-1.483687 c 1.553,-1.75351 3.09479,-3.644902 28.37312,-34.806862 10.66189,-13.14347 20.04581,-24.45309 20.85319,-25.13241 1.4672,-1.23461 5.45904,-2.6887 7.38103,-2.6887 0.56024,0 2.14286,0.33373 3.51688,0.7419 5.0598,1.50258 8.6341,6.43101 8.62301,11.88975 -0.006,3.6322 -1.10579,6.08956 -4.64683,10.39615 -1.49953,1.82367 -3.36989,4.1133 -4.1564,5.08808 -25.35494,31.424513 -50.52091,62.329492 -52.12185,64.008107 -3.3695,3.533005 -7.75208,4.647098 -12.70478,3.229666 -3.07796,-0.880899 -6.19974,-4.002246 -15.7305,-15.728354 -6.90445,-8.494847 -10.7316,-13.164863 -17.40125,-21.233645 -1.73368,-2.097314 -5.78964,-7.030817 -9.01329,-10.963326 -3.22367,-3.932511 -6.31349,-7.68624 -6.86626,-8.341668 -7.14606,-8.47281 -16.32941,-20.08678 -16.82968,-21.28412 -1.14377,-2.7374 -1.241912,-6.3522 -0.248401,-9.14382 z"
         style="fill:#000000;fill-opacity:0.49019608;stroke-width:0.47666654" />
      <path
         style="fill:#000000;fill-opacity:0.49019608;stroke-width:0.47666654"
         d="m 99.907653,-257.00132 c 1.203277,3.38062 4.180737,6.39509 7.316917,7.408 2.94462,0.95098 4.80505,0.97493 7.71472,0.0994 4.07341,-1.22592 1.97976,1.11785 35.80425,-40.08212 7.73639,-9.42333 10.72648,-13.05815 17.83955,-21.68638 l 0.98242,-1.19169 1.31401,1.48369 c 1.553,1.75351 3.09479,3.6449 28.37312,34.80686 10.66189,13.14347 20.04581,24.45309 20.85319,25.13241 1.4672,1.23461 5.45904,2.6887 7.38103,2.6887 0.56024,0 2.14286,-0.33373 3.51688,-0.7419 5.0598,-1.50258 8.6341,-6.43101 8.62301,-11.88975 -0.006,-3.6322 -1.10579,-6.08956 -4.64683,-10.39615 -1.49953,-1.82367 -3.36989,-4.1133 -4.1564,-5.08808 -25.35494,-31.42451 -50.52091,-62.32949 -52.12185,-64.00811 -3.3695,-3.533 -7.75208,-4.64709 -12.70478,-3.22966 -3.07796,0.8809 -6.19974,4.00224 -15.7305,15.72835 -6.90445,8.49485 -10.7316,13.16486 -17.40125,21.23365 -1.73368,2.09731 -5.78964,7.03081 -9.01329,10.96332 -3.22367,3.93251 -6.31349,7.68624 -6.86626,8.34167 -7.14606,8.47281 -16.32941,20.08678 -16.82968,21.28412 -1.14377,2.7374 -1.241912,6.3522 -0.248401,9.14382 z"
         id="path861"
         inkscape:connector-curvature="0" />
      <path
         inkscape:connector-curvature="0"
         id="path863"
         d="M 287.66016,-348 C 270.11996,-348 256,-333.88004 256,-316.33984 V -67.660156 C 256,-50.119956 270.11996,-36 287.66016,-36 h 92.67968 C 397.88004,-36 412,-50.119956 412,-67.660156 V -114 H 347.55469 C 340.04563,-114 334,-120.04563 334,-127.55469 c 0,-7.50905 6.04563,-13.55469 13.55469,-13.55469 H 412 v -49.78124 H 347.55469 C 340.04563,-190.89062 334,-196.93626 334,-204.44531 334,-211.95437 340.04563,-218 347.55469,-218 H 412 v -50.89062 H 347.55469 C 340.04563,-268.89062 334,-274.93626 334,-282.44531 334,-289.95437 340.04563,-296 347.55469,-296 H 412 v -20.33984 C 412,-333.88004 397.88004,-348 380.33984,-348 Z"
         style="opacity:1;fill:#000000;fill-opacity:0.49019608;stroke:none;stroke-width:25;stroke-miterlimit:4;stroke-dasharray:none;stroke-dashoffset:0;stroke-opacity:1" />
    </g>
    <g
       transform="rotate(-90,235.61248,-212)"
       id="g857">
      <path
         style="fill:#ffffff;stroke-width:0.47666654"
         d="m 99.907653,-125.63495 c 1.203277,-3.38062 4.180737,-6.39509 7.316917,-7.408 2.94462,-0.95098 4.80505,-0.97493 7.71472,-0.0994 4.07341,1.22592 1.97976,-1.11785 35.80425,40.082116 7.73639,9.423335 10.72648,13.058157 17.83955,21.686386 l 0.98242,1.191687 1.31401,-1.483687 c 1.553,-1.75351 3.09479,-3.644902 28.37312,-34.806862 10.66189,-13.14347 20.04581,-24.45309 20.85319,-25.13241 1.4672,-1.23461 5.45904,-2.6887 7.38103,-2.6887 0.56024,0 2.14286,0.33373 3.51688,0.7419 5.0598,1.50258 8.6341,6.43101 8.62301,11.88975 -0.006,3.6322 -1.10579,6.08956 -4.64683,10.39615 -1.49953,1.82367 -3.36989,4.1133 -4.1564,5.08808 -25.35494,31.424513 -50.52091,62.329492 -52.12185,64.008107 -3.3695,3.533005 -7.75208,4.647098 -12.70478,3.229666 -3.07796,-0.880899 -6.19974,-4.002246 -15.7305,-15.728354 -6.90445,-8.494847 -10.7316,-13.164863 -17.40125,-21.233645 -1.73368,-2.097314 -5.78964,-7.030817 -9.01329,-10.963326 -3.22367,-3.932511 -6.31349,-7.68624 -6.86626,-8.341668 -7.14606,-8.47281 -16.32941,-20.08678 -16.82968,-21.28412 -1.14377,-2.7374 -1.241912,-6.3522 -0.248401,-9.14382 z"
         id="path855"
         inkscape:connector-curvature="0" />
      <path
         inkscape:connector-curvature="0"
         id="path841"
         d="m 99.907653,-257.00132 c 1.203277,3.38062 4.180737,6.39509 7.316917,7.408 2.94462,0.95098 4.80505,0.97493 7.71472,0.0994 4.07341,-1.22592 1.97976,1.11785 35.80425,-40.08212 7.73639,-9.42333 10.72648,-13.05815 17.83955,-21.68638 l 0.98242,-1.19169 1.31401,1.48369 c 1.553,1.75351 3.09479,3.6449 28.37312,34.80686 10.66189,13.14347 20.04581,24.45309 20.85319,25.13241 1.4672,1.23461 5.45904,2.6887 7.38103,2.6887 0.56024,0 2.14286,-0.33373 3.51688,-0.7419 5.0598,-1.50258 8.6341,-6.43101 8.62301,-11.88975 -0.006,-3.6322 -1.10579,-6.08956 -4.64683,-10.39615 -1.49953,-1.82367 -3.36989,-4.1133 -4.1564,-5.08808 -25.35494,-31.42451 -50.52091,-62.32949 -52.12185,-64.00811 -3.3695,-3.533 -7.75208,-4.64709 -12.70478,-3.22966 -3.07796,0.8809 -6.19974,4.00224 -15.7305,15.72835 -6.90445,8.49485 -10.7316,13.16486 -17.40125,21.23365 -1.73368,2.09731 -5.78964,7.03081 -9.01329,10.96332 -3.22367,3.93251 -6.31349,7.68624 -6.86626,8.34167 -7.14606,8.47281 -16.32941,20.08678 -16.82968,21.28412 -1.14377,2.7374 -1.241912,6.3522 -0.248401,9.14382 z"
         style="fill:#ffffff;stroke-width:0.47666654" />
      <path
         style="opacity:1;fill:#ffffff;fill-opacity:1;stroke:none;stroke-width:25;stroke-miterlimit:4;stroke-dasharray:none;stroke-dashoffset:0;stroke-opacity:1"
         d="M 287.66016,-348 C 270.11996,-348 256,-333.88004 256,-316.33984 V -67.660156 C 256,-50.119956 270.11996,-36 287.66016,-36 h 92.67968 C 397.88004,-36 412,-50.119956 412,-67.660156 V -114 H 347.55469 C 340.04563,-114 334,-120.04563 334,-127.55469 c 0,-7.50905 6.04563,-13.55469 13.55469,-13.55469 H 412 v -49.78124 H 347.55469 C 340.04563,-190.89062 334,-196.93626 334,-204.44531 334,-211.95437 340.04563,-218 347.55469,-218 H 412 v -50.89062 H 347.55469 C 340.04563,-268.89062 334,-274.93626 334,-282.44531 334,-289.95437 340.04563,-296 347.55469,-296 H 412 v -20.33984 C 412,-333.88004 397.88004,-348 380.33984,-348 Z"
         id="rect843"
         inkscape:connector-curvature="0" />
    </g>
  </g>
</svg>
