<?xml version="1.0" encoding="UTF-8" standalone="no"?>
<svg
   xmlns:dc="http://purl.org/dc/elements/1.1/"
   xmlns:cc="http://creativecommons.org/ns#"
   xmlns:rdf="http://www.w3.org/1999/02/22-rdf-syntax-ns#"
   xmlns:svg="http://www.w3.org/2000/svg"
   xmlns="http://www.w3.org/2000/svg"
   xmlns:sodipodi="http://sodipodi.sourceforge.net/DTD/sodipodi-0.dtd"
   xmlns:inkscape="http://www.inkscape.org/namespaces/inkscape"
   viewBox="0 0 64 64"
   version="1.1"
   id="svg8"
   sodipodi:docname="tools-check-spelling.svg"
   width="64"
   height="64"
   inkscape:version="0.92.2 5c3e80d, 2017-08-06">
  <metadata
     id="metadata12">
    <rdf:RDF>
      <cc:Work
         rdf:about="">
        <dc:format>image/svg+xml</dc:format>
        <dc:type
           rdf:resource="http://purl.org/dc/dcmitype/StillImage" />
        <dc:title></dc:title>
      </cc:Work>
    </rdf:RDF>
  </metadata>
  <sodipodi:namedview
     pagecolor="#ffffff"
     bordercolor="#666666"
     borderopacity="1"
     objecttolerance="10"
     gridtolerance="10"
     guidetolerance="10"
     inkscape:pageopacity="0"
     inkscape:pageshadow="2"
     inkscape:window-width="1366"
     inkscape:window-height="717"
     id="namedview10"
     showgrid="false"
     inkscape:zoom="0.30729167"
     inkscape:cx="-329.62513"
     inkscape:cy="379.52565"
     inkscape:window-x="0"
     inkscape:window-y="24"
     inkscape:window-maximized="1"
     inkscape:current-layer="svg8" />
  <defs
     id="defs3051">
    <style
       type="text/css"
       id="current-color-scheme">
      .ColorScheme-Text {
        color:#4d4d4d;
      }
      .ColorScheme-PositiveText {
        color:#27ae60;
      }
      </style>
  </defs>
  <g
     id="g895"
     transform="matrix(0.125,0,0,0.125,8.3401853e-8,56)">
    <path
       id="path850"
       d="m 432.91327,-391.52607 c 102.19288,88.57458 105.8268,249.69974 8.1168,359.898836 C 343.32007,78.571841 181.27958,96.10061 79.086741,7.5260148 -23.106206,-81.048572 -26.740031,-242.17374 70.969941,-352.37281 168.6799,-462.5719 330.72031,-480.10066 432.91327,-391.52607 Z"
       inkscape:connector-curvature="0"
       style="fill:#68b723;fill-opacity:1;stroke-width:11.10955906" />
    <path
       id="path852"
       d="m 511.63551,-223.0965 c -1.55136,61.31161 -25.1612,124.154575 -70.9664,175.814449 C 342.95911,62.917073 180.9187,80.445801 78.725765,-8.1287457 30.827123,-49.644363 4.4968183,-107.0772 0.19382613,-167.7712 0.79910615,-101.41456 27.117403,-37.517827 79.078693,7.5190148 181.27158,96.09361 343.31975,78.556153 441.02199,-31.634234 490.72695,-87.69238 514.02703,-156.92525 511.63551,-223.0965 Z"
       inkscape:connector-curvature="0"
       style="opacity:1;fill:#000000;fill-opacity:0.49019608;stroke-width:11.10955906" />
    <g
       style="fill:#000000;fill-opacity:0.49019608"
       transform="translate(20,20)"
       id="g883">
      <rect
         ry="20"
         y="-76"
         x="100"
         height="40"
         width="312"
         id="rect877"
         style="opacity:1;fill:#000000;fill-opacity:0.49019608;stroke:none;stroke-width:23.17386436;stroke-miterlimit:4;stroke-dasharray:none;stroke-dashoffset:0;stroke-opacity:1" />
      <g
         transform="matrix(8.6789628,0,0,8.6789628,-1181.6454,2627.8325)"
         id="g881"
         style="font-style:normal;font-weight:normal;font-size:40px;line-height:1.25;font-family:sans-serif;letter-spacing:0px;word-spacing:0px;fill:#000000;fill-opacity:0.49019608;stroke:none"
         aria-label="A">
        <path
           inkscape:connector-curvature="0"
           id="path879"
           style="font-style:normal;font-variant:normal;font-weight:normal;font-stretch:normal;font-family:'Comic Sans MS';-inkscape-font-specification:'Comic Sans MS';fill:#000000;fill-opacity:0.49019608"
           d="m 175.73633,-312.75878 q -1.79688,0 -3.125,-4.60938 -0.50781,-1.75781 -1.26953,-6.15234 -1.99219,0.27344 -5.21485,0.97656 l -5.19531,1.07422 q -0.97656,2.55859 -3.33984,7.48047 -0.625,1.09375 -1.69922,1.09375 -0.78125,0 -1.40625,-0.56641 -0.60547,-0.5664 -0.60547,-1.40625 0,-0.9375 2.94922,-7.1289 -0.33203,-0.50782 -0.33203,-1.17188 0,-1.58203 1.91406,-2.03125 2.22656,-4.17969 5.625,-9.60937 4.62891,-7.40235 5.76172,-7.40235 1.54297,0 2.10937,2.14844 l 1.23047,6.5625 2.91016,13.57422 1.11328,3.08594 q 0.56641,1.58203 0.56641,2.10937 0,0.83984 -0.60547,1.40625 -0.60547,0.56641 -1.38672,0.56641 z m -6.89453,-22.32422 -5.58594,9.0039 q 2.36328,-0.60546 7.16797,-1.46484 z" />
      </g>
    </g>
    <g
       id="g875">
      <rect
         style="opacity:1;fill:#ffffff;fill-opacity:1;stroke:none;stroke-width:23.17386436;stroke-miterlimit:4;stroke-dasharray:none;stroke-dashoffset:0;stroke-opacity:1"
         id="rect829"
         width="312"
         height="40"
         x="100"
         y="-76"
         ry="20" />
      <g
         aria-label="A"
         style="font-style:normal;font-weight:normal;font-size:40px;line-height:1.25;font-family:sans-serif;letter-spacing:0px;word-spacing:0px;fill:#ffffff;fill-opacity:1;stroke:none"
         id="flowRoot861"
         transform="matrix(8.6789628,0,0,8.6789628,-1181.6454,2627.8325)">
        <path
           d="m 175.73633,-312.75878 q -1.79688,0 -3.125,-4.60938 -0.50781,-1.75781 -1.26953,-6.15234 -1.99219,0.27344 -5.21485,0.97656 l -5.19531,1.07422 q -0.97656,2.55859 -3.33984,7.48047 -0.625,1.09375 -1.69922,1.09375 -0.78125,0 -1.40625,-0.56641 -0.60547,-0.5664 -0.60547,-1.40625 0,-0.9375 2.94922,-7.1289 -0.33203,-0.50782 -0.33203,-1.17188 0,-1.58203 1.91406,-2.03125 2.22656,-4.17969 5.625,-9.60937 4.62891,-7.40235 5.76172,-7.40235 1.54297,0 2.10937,2.14844 l 1.23047,6.5625 2.91016,13.57422 1.11328,3.08594 q 0.56641,1.58203 0.56641,2.10937 0,0.83984 -0.60547,1.40625 -0.60547,0.56641 -1.38672,0.56641 z m -6.89453,-22.32422 -5.58594,9.0039 q 2.36328,-0.60546 7.16797,-1.46484 z"
           style="font-style:normal;font-variant:normal;font-weight:normal;font-stretch:normal;font-family:'Comic Sans MS';-inkscape-font-specification:'Comic Sans MS';fill:#ffffff"
           id="path869"
           inkscape:connector-curvature="0" />
      </g>
    </g>
  </g>
</svg>
