<?xml version="1.0" encoding="UTF-8" standalone="no"?>
<svg
   xmlns:dc="http://purl.org/dc/elements/1.1/"
   xmlns:cc="http://creativecommons.org/ns#"
   xmlns:rdf="http://www.w3.org/1999/02/22-rdf-syntax-ns#"
   xmlns:svg="http://www.w3.org/2000/svg"
   xmlns="http://www.w3.org/2000/svg"
   xmlns:sodipodi="http://sodipodi.sourceforge.net/DTD/sodipodi-0.dtd"
   xmlns:inkscape="http://www.inkscape.org/namespaces/inkscape"
   viewBox="0 0 64 64"
   version="1.1"
   id="svg8"
   sodipodi:docname="transform-affect-pattern.svg"
   width="64"
   height="64"
   inkscape:version="0.92.2 5c3e80d, 2017-08-06">
  <metadata
     id="metadata12">
    <rdf:RDF>
      <cc:Work
         rdf:about="">
        <dc:format>image/svg+xml</dc:format>
        <dc:type
           rdf:resource="http://purl.org/dc/dcmitype/StillImage" />
        <dc:title></dc:title>
      </cc:Work>
    </rdf:RDF>
  </metadata>
  <sodipodi:namedview
     pagecolor="#ffffff"
     bordercolor="#666666"
     borderopacity="1"
     objecttolerance="10"
     gridtolerance="10"
     guidetolerance="10"
     inkscape:pageopacity="0"
     inkscape:pageshadow="2"
     inkscape:window-width="1366"
     inkscape:window-height="717"
     id="namedview10"
     showgrid="false"
     inkscape:zoom="0.4609375"
     inkscape:cx="-168.05429"
     inkscape:cy="352.73247"
     inkscape:window-x="0"
     inkscape:window-y="24"
     inkscape:window-maximized="1"
     inkscape:current-layer="svg8" />
  <defs
     id="defs3051">
    <style
       type="text/css"
       id="current-color-scheme">
      .ColorScheme-Text {
        color:#4d4d4d;
      }
      .ColorScheme-Highlight {
        color:#3daee9;
      }
      </style>
  </defs>
  <g
     id="g878"
     transform="matrix(0.125,0,0,0.125,-2.8300937e-7,56)">
    <path
       id="path850"
       d="m 432.9133,-391.52608 c 102.19288,88.57458 105.82672,249.69975 8.1168,359.898847 C 343.3201,78.571841 181.27961,96.100609 79.086729,7.526016 -23.106236,-81.048569 -26.739996,-242.17375 70.969929,-352.37282 168.67985,-462.5719 330.72034,-480.10067 432.9133,-391.52608 Z"
       inkscape:connector-curvature="0"
       style="fill:#3689e6;fill-opacity:1;stroke-width:11.10955906" />
    <path
       id="path852"
       d="m 511.63554,-223.09651 c -1.55144,61.31162 -25.16128,124.154588 -70.9664,175.814461 C 342.95914,62.917072 180.91865,80.445801 78.725769,-8.1287442 30.827128,-49.644361 4.4968059,-107.07721 0.19384574,-167.7712 0.79864575,-101.41457 27.117446,-37.517825 79.078729,7.519016 181.27153,96.093609 343.3197,78.556153 441.02202,-31.634233 490.72698,-87.692385 514.02706,-156.92525 511.63554,-223.09651 Z"
       inkscape:connector-curvature="0"
       style="opacity:1;fill:#000000;fill-opacity:0.49019608;stroke-width:11.10955906" />
    <g
       style="fill:#000000;fill-opacity:0.49019608"
       id="g868"
       transform="translate(20.60112,19.404109)">
      <path
         inkscape:connector-curvature="0"
         id="path864"
         d="m 151.2072,-179.29783 c -3.48163,1.23927 -6.5862,4.30564 -7.62933,7.53554 -0.97941,3.0326 -1.00406,4.94865 -0.10233,7.94525 1.26255,4.19513 -1.15125,2.03893 41.27971,36.87403 9.70488,7.96754 13.44831,11.04694 22.33433,18.37258 l 1.22726,1.01176 -1.52802,1.35329 c -1.80587,1.59934 -3.75377,3.1872 -35.84683,29.22085 -13.53619,10.980419 -25.18368,20.644748 -25.88331,21.476216 -1.27148,1.511072 -2.76902,5.622182 -2.76902,7.6016 0,0.576979 0.3437,2.20688 0.76407,3.621965 1.54747,5.210969 6.62311,8.892034 12.245,8.880613 3.74068,-0.0074 6.2715,-1.138829 10.70677,-4.785671 1.87816,-1.544293 4.2362,-3.470545 5.2401,-4.280546 32.36339,-26.112545 64.19178,-52.030443 65.92055,-53.679174 3.63854,-3.470173 4.78594,-7.983743 3.32614,-13.084423 -0.90721,-3.16993 -4.12183,-6.38494 -16.19828,-16.20046 -8.74863,-7.11076 -13.55822,-11.05224 -21.86808,-17.92122 -2.15998,-1.78544 -7.24089,-5.96261 -11.29088,-9.28255 -4.05001,-3.31998 -7.9159,-6.50212 -8.59091,-7.07142 -8.72593,-7.35956 -20.68691,-16.8173 -21.92005,-17.33255 -2.8192,-1.1779 -6.54201,-1.27898 -9.41701,-0.25583 z"
         style="fill:#000000;fill-opacity:0.49019608;stroke-width:0.49090862" />
      <path
         inkscape:connector-curvature="0"
         id="path866"
         class="ColorScheme-Text"
         d="m 103.39888,-347.40411 v 50.60827 l 25.30414,-25.30413 50.60827,50.60827 50.60827,-50.60827 50.60827,50.60827 50.60828,-50.60827 50.60827,50.60827 -50.60827,50.60827 50.60827,50.60827 -50.60827,50.60827 h 75.91241 v -227.73722 z m 227.73723,227.73722 -50.60828,-50.60827 v 50.60827 z m -50.60828,-50.60827 50.60828,-50.60827 -50.60828,-50.60827 -50.60827,50.60827 h 50.60827 z m -50.60827,-50.60827 -50.60827,-50.60827 -50.60827,50.60827 z m -101.21654,0 -25.30414,-25.30413 v 25.30413 z"
         style="color:#4d4d4d;fill:#000000;fill-opacity:0.49019608;stroke:none;stroke-width:25.30413628" />
    </g>
    <g
       transform="translate(0.60112,-0.5958905)"
       id="g856">
      <path
         style="fill:#ffffff;stroke-width:0.49090862"
         d="m 151.2072,-179.29783 c -3.48163,1.23927 -6.5862,4.30564 -7.62933,7.53554 -0.97941,3.0326 -1.00406,4.94865 -0.10233,7.94525 1.26255,4.19513 -1.15125,2.03893 41.27971,36.87403 9.70488,7.96754 13.44831,11.04694 22.33433,18.37258 l 1.22726,1.01176 -1.52802,1.35329 c -1.80587,1.59934 -3.75377,3.1872 -35.84683,29.22085 -13.53619,10.980419 -25.18368,20.644748 -25.88331,21.476216 -1.27148,1.511072 -2.76902,5.622182 -2.76902,7.6016 0,0.576979 0.3437,2.20688 0.76407,3.621965 1.54747,5.210969 6.62311,8.892034 12.245,8.880613 3.74068,-0.0074 6.2715,-1.138829 10.70677,-4.785671 1.87816,-1.544293 4.2362,-3.470545 5.2401,-4.280546 32.36339,-26.112545 64.19178,-52.030443 65.92055,-53.679174 3.63854,-3.470173 4.78594,-7.983743 3.32614,-13.084423 -0.90721,-3.16993 -4.12183,-6.38494 -16.19828,-16.20046 -8.74863,-7.11076 -13.55822,-11.05224 -21.86808,-17.92122 -2.15998,-1.78544 -7.24089,-5.96261 -11.29088,-9.28255 -4.05001,-3.31998 -7.9159,-6.50212 -8.59091,-7.07142 -8.72593,-7.35956 -20.68691,-16.8173 -21.92005,-17.33255 -2.8192,-1.1779 -6.54201,-1.27898 -9.41701,-0.25583 z"
         id="path855"
         inkscape:connector-curvature="0" />
      <path
         style="color:#4d4d4d;fill:#ffffff;fill-opacity:1;stroke:none;stroke-width:25.30413628"
         d="m 103.39888,-347.40411 v 50.60827 l 25.30414,-25.30413 50.60827,50.60827 50.60827,-50.60827 50.60827,50.60827 50.60828,-50.60827 50.60827,50.60827 -50.60827,50.60827 50.60827,50.60827 -50.60827,50.60827 h 75.91241 v -227.73722 z m 227.73723,227.73722 -50.60828,-50.60827 v 50.60827 z m -50.60828,-50.60827 50.60828,-50.60827 -50.60828,-50.60827 -50.60827,50.60827 h 50.60827 z m -50.60827,-50.60827 -50.60827,-50.60827 -50.60827,50.60827 z m -101.21654,0 -25.30414,-25.30413 v 25.30413 z"
         class="ColorScheme-Text"
         id="path4"
         inkscape:connector-curvature="0" />
    </g>
  </g>
</svg>
