<?xml version="1.0" encoding="UTF-8" standalone="no"?>
<svg
   xmlns:dc="http://purl.org/dc/elements/1.1/"
   xmlns:cc="http://creativecommons.org/ns#"
   xmlns:rdf="http://www.w3.org/1999/02/22-rdf-syntax-ns#"
   xmlns:svg="http://www.w3.org/2000/svg"
   xmlns="http://www.w3.org/2000/svg"
   xmlns:sodipodi="http://sodipodi.sourceforge.net/DTD/sodipodi-0.dtd"
   xmlns:inkscape="http://www.inkscape.org/namespaces/inkscape"
   viewBox="0 0 64 64"
   version="1.1"
   id="svg6"
   sodipodi:docname="transform-move-horizontal.svg"
   width="64"
   height="64"
   inkscape:version="0.92.2 5c3e80d, 2017-08-06">
  <metadata
     id="metadata10">
    <rdf:RDF>
      <cc:Work
         rdf:about="">
        <dc:format>image/svg+xml</dc:format>
        <dc:type
           rdf:resource="http://purl.org/dc/dcmitype/StillImage" />
        <dc:title></dc:title>
      </cc:Work>
    </rdf:RDF>
  </metadata>
  <sodipodi:namedview
     pagecolor="#ffffff"
     bordercolor="#666666"
     borderopacity="1"
     objecttolerance="10"
     gridtolerance="10"
     guidetolerance="10"
     inkscape:pageopacity="0"
     inkscape:pageshadow="2"
     inkscape:window-width="1366"
     inkscape:window-height="717"
     id="namedview8"
     showgrid="false"
     inkscape:zoom="0.61458333"
     inkscape:cx="16.184535"
     inkscape:cy="269.02163"
     inkscape:window-x="0"
     inkscape:window-y="24"
     inkscape:window-maximized="1"
     inkscape:current-layer="svg6" />
  <defs
     id="defs3051">
    <style
       type="text/css"
       id="current-color-scheme">
      .ColorScheme-Text {
        color:#4d4d4d;
      }
      </style>
  </defs>
  <g
     id="g872"
     transform="matrix(0.125,0,0,0.125,2.0156044e-7,56)">
    <path
       id="path850"
       d="m 432.91327,-391.52602 c 102.19291,88.57457 105.82678,249.69971 8.1168,359.898795 C 343.32006,78.571839 181.27962,96.100607 79.08674,7.5260228 -23.106206,-81.048561 -26.74003,-242.17371 70.96994,-352.37277 168.67988,-462.57185 330.72032,-480.1006 432.91327,-391.52602 Z"
       inkscape:connector-curvature="0"
       style="fill:#3689e6;fill-opacity:1;stroke-width:11.10955906" />
    <path
       id="path852"
       d="m 511.63551,-223.09647 c -1.55139,61.31161 -25.16123,124.154557 -70.96638,175.814429 C 342.95912,62.917071 180.91867,80.445799 78.72576,-8.1287372 30.827126,-49.644353 4.4968176,-107.07719 0.1938255,-167.77117 0.7990799,-101.41455 27.117406,-37.517817 79.07869,7.5190228 181.27156,96.093607 343.31972,78.556151 441.02202,-31.634225 490.72697,-87.692361 514.02704,-156.92522 511.63551,-223.09647 Z"
       inkscape:connector-curvature="0"
       style="opacity:1;fill:#000000;fill-opacity:0.49019608;stroke-width:11.10955906" />
    <g
       style="fill:#000000;fill-opacity:0.49019608"
       transform="translate(20.000001,19.999999)"
       id="g860">
      <path
         style="fill:#000000;fill-opacity:0.49019608;stroke-width:0.51681256"
         d="m 317.35533,-116.74015 c -3.66534,-1.30466 -6.93371,-4.53285 -8.03189,-7.93316 -1.03111,-3.19264 -1.05706,-5.20978 -0.10763,-8.36449 1.32918,-4.4165 -1.21201,-2.14653 43.45794,-38.8198 10.21698,-8.38797 14.15795,-11.62987 23.51288,-19.34204 l 1.29202,-1.06515 -1.60864,-1.42468 c -1.90119,-1.68379 -3.95186,-3.35541 -37.7384,-30.7628 -14.25045,-11.55985 -26.51256,-21.7341 -27.24912,-22.60947 -1.33856,-1.59079 -2.91513,-5.91883 -2.91513,-8.00271 0,-0.60742 0.36198,-2.32332 0.80439,-3.81308 1.62914,-5.48593 6.97263,-9.36126 12.89114,-9.34923 3.93809,0.008 6.60242,1.19891 11.27172,5.0382 1.97727,1.62578 4.45975,3.6537 5.51662,4.50644 34.07114,27.49041 67.57904,54.77592 69.39902,56.51169 3.83057,3.65329 5.0385,8.40502 3.50168,13.77482 -0.95508,3.33722 -4.33932,6.72189 -17.05302,17.05536 -9.2103,7.48596 -14.27364,11.63544 -23.02201,18.86686 -2.27397,1.87967 -7.62299,6.27724 -11.88667,9.77239 -4.26372,3.49516 -8.33361,6.8452 -9.04424,7.44455 -9.1864,7.74791 -21.77853,17.7047 -23.07671,18.24713 -2.96798,1.24009 -6.88722,1.3465 -9.91394,0.26917 z"
         id="path854"
         inkscape:connector-curvature="0" />
      <path
         inkscape:connector-curvature="0"
         id="path856"
         d="m 194.64467,-116.74015 c 3.66536,-1.30466 6.93372,-4.53285 8.0319,-7.93316 1.0311,-3.19264 1.05706,-5.20978 0.10762,-8.36449 -1.32917,-4.4165 1.21201,-2.14653 -43.45793,-38.8198 -10.21697,-8.38797 -14.15795,-11.62987 -23.51287,-19.34204 l -1.29205,-1.06515 1.60866,-1.42468 c 1.90119,-1.68379 3.95187,-3.35541 37.7384,-30.7628 14.25045,-11.55985 26.51255,-21.7341 27.24911,-22.60947 1.33857,-1.59079 2.91514,-5.91883 2.91514,-8.00271 0,-0.60742 -0.36199,-2.32332 -0.80439,-3.81308 -1.62915,-5.48593 -6.97262,-9.36126 -12.89115,-9.34923 -3.93809,0.008 -6.60243,1.19891 -11.27171,5.0382 -1.97727,1.62578 -4.45975,3.6537 -5.51662,4.50644 -34.07115,27.49041 -67.57904,54.77592 -69.39903,56.51169 -3.83057,3.65329 -5.038507,8.40502 -3.50168,13.77482 0.95509,3.33722 4.33933,6.72189 17.05303,17.05536 9.2103,7.48596 14.27363,11.63544 23.02201,18.86686 2.27396,1.87967 7.62299,6.27724 11.88667,9.77239 4.26372,3.49516 8.33361,6.8452 9.04424,7.44455 9.1864,7.74791 21.77852,17.7047 23.07672,18.24713 2.96797,1.24009 6.8872,1.3465 9.91393,0.26917 z"
         style="fill:#000000;fill-opacity:0.49019608;stroke-width:0.51681256" />
      <circle
         r="45"
         cy="-194.15254"
         cx="256.08478"
         id="circle858"
         style="opacity:1;fill:#000000;fill-opacity:0.49019608;stroke:none;stroke-width:20.22256279;stroke-linecap:round;stroke-linejoin:round;stroke-miterlimit:4;stroke-dasharray:none;stroke-dashoffset:0;stroke-opacity:1" />
    </g>
    <g
       id="g852">
      <path
         inkscape:connector-curvature="0"
         id="path855"
         d="m 317.35533,-116.74015 c -3.66534,-1.30466 -6.93371,-4.53285 -8.03189,-7.93316 -1.03111,-3.19264 -1.05706,-5.20978 -0.10763,-8.36449 1.32918,-4.4165 -1.21201,-2.14653 43.45794,-38.8198 10.21698,-8.38797 14.15795,-11.62987 23.51288,-19.34204 l 1.29202,-1.06515 -1.60864,-1.42468 c -1.90119,-1.68379 -3.95186,-3.35541 -37.7384,-30.7628 -14.25045,-11.55985 -26.51256,-21.7341 -27.24912,-22.60947 -1.33856,-1.59079 -2.91513,-5.91883 -2.91513,-8.00271 0,-0.60742 0.36198,-2.32332 0.80439,-3.81308 1.62914,-5.48593 6.97263,-9.36126 12.89114,-9.34923 3.93809,0.008 6.60242,1.19891 11.27172,5.0382 1.97727,1.62578 4.45975,3.6537 5.51662,4.50644 34.07114,27.49041 67.57904,54.77592 69.39902,56.51169 3.83057,3.65329 5.0385,8.40502 3.50168,13.77482 -0.95508,3.33722 -4.33932,6.72189 -17.05302,17.05536 -9.2103,7.48596 -14.27364,11.63544 -23.02201,18.86686 -2.27397,1.87967 -7.62299,6.27724 -11.88667,9.77239 -4.26372,3.49516 -8.33361,6.8452 -9.04424,7.44455 -9.1864,7.74791 -21.77853,17.7047 -23.07671,18.24713 -2.96798,1.24009 -6.88722,1.3465 -9.91394,0.26917 z"
         style="fill:#ffffff;stroke-width:0.51681256" />
      <path
         style="fill:#ffffff;stroke-width:0.51681256"
         d="m 194.64467,-116.74015 c 3.66536,-1.30466 6.93372,-4.53285 8.0319,-7.93316 1.0311,-3.19264 1.05706,-5.20978 0.10762,-8.36449 -1.32917,-4.4165 1.21201,-2.14653 -43.45793,-38.8198 -10.21697,-8.38797 -14.15795,-11.62987 -23.51287,-19.34204 l -1.29205,-1.06515 1.60866,-1.42468 c 1.90119,-1.68379 3.95187,-3.35541 37.7384,-30.7628 14.25045,-11.55985 26.51255,-21.7341 27.24911,-22.60947 1.33857,-1.59079 2.91514,-5.91883 2.91514,-8.00271 0,-0.60742 -0.36199,-2.32332 -0.80439,-3.81308 -1.62915,-5.48593 -6.97262,-9.36126 -12.89115,-9.34923 -3.93809,0.008 -6.60243,1.19891 -11.27171,5.0382 -1.97727,1.62578 -4.45975,3.6537 -5.51662,4.50644 -34.07115,27.49041 -67.57904,54.77592 -69.39903,56.51169 -3.83057,3.65329 -5.038507,8.40502 -3.50168,13.77482 0.95509,3.33722 4.33933,6.72189 17.05303,17.05536 9.2103,7.48596 14.27363,11.63544 23.02201,18.86686 2.27396,1.87967 7.62299,6.27724 11.88667,9.77239 4.26372,3.49516 8.33361,6.8452 9.04424,7.44455 9.1864,7.74791 21.77852,17.7047 23.07672,18.24713 2.96797,1.24009 6.8872,1.3465 9.91393,0.26917 z"
         id="path834"
         inkscape:connector-curvature="0" />
      <circle
         style="opacity:1;fill:#ffffff;fill-opacity:1;stroke:none;stroke-width:20.22256279;stroke-linecap:round;stroke-linejoin:round;stroke-miterlimit:4;stroke-dasharray:none;stroke-dashoffset:0;stroke-opacity:1"
         id="path847"
         cx="256.08478"
         cy="-194.15254"
         r="45" />
    </g>
  </g>
</svg>
