<?xml version="1.0" encoding="UTF-8" standalone="no"?>
<svg
   xmlns:dc="http://purl.org/dc/elements/1.1/"
   xmlns:cc="http://creativecommons.org/ns#"
   xmlns:rdf="http://www.w3.org/1999/02/22-rdf-syntax-ns#"
   xmlns:svg="http://www.w3.org/2000/svg"
   xmlns="http://www.w3.org/2000/svg"
   xmlns:sodipodi="http://sodipodi.sourceforge.net/DTD/sodipodi-0.dtd"
   xmlns:inkscape="http://www.inkscape.org/namespaces/inkscape"
   viewBox="0 0 64 64"
   version="1.1"
   id="svg8"
   sodipodi:docname="unmarkasblank.svg"
   width="64"
   height="64"
   inkscape:version="0.92.2 5c3e80d, 2017-08-06">
  <metadata
     id="metadata12">
    <rdf:RDF>
      <cc:Work
         rdf:about="">
        <dc:format>image/svg+xml</dc:format>
        <dc:type
           rdf:resource="http://purl.org/dc/dcmitype/StillImage" />
        <dc:title></dc:title>
      </cc:Work>
    </rdf:RDF>
  </metadata>
  <sodipodi:namedview
     pagecolor="#ffffff"
     bordercolor="#666666"
     borderopacity="1"
     objecttolerance="10"
     gridtolerance="10"
     guidetolerance="10"
     inkscape:pageopacity="0"
     inkscape:pageshadow="2"
     inkscape:window-width="1366"
     inkscape:window-height="717"
     id="namedview10"
     showgrid="false"
     inkscape:zoom="3.6875"
     inkscape:cx="23.129308"
     inkscape:cy="21.015462"
     inkscape:window-x="0"
     inkscape:window-y="24"
     inkscape:window-maximized="1"
     inkscape:current-layer="svg8" />
  <defs
     id="defs3051">
    <style
       type="text/css"
       id="current-color-scheme">
      .ColorScheme-Text {
        color:#4d4d4d;
      }
      .ColorScheme-NegativeText {
        color:#da4453;
      }
      </style>
  </defs>
  <g
     id="g921">
    <path
       id="path850"
       d="M 54.114155,7.0592425 C 66.888275,18.131065 67.342505,38.271709 55.128755,52.046596 42.915005,65.82148 22.659955,68.012576 9.8858446,56.940752 -2.8882755,45.868929 -3.3425055,25.728284 8.8712446,11.9534 21.084985,-1.8214862 41.340045,-4.0125812 54.114155,7.0592425 Z"
       inkscape:connector-curvature="0"
       style="fill:#c6262e;fill-opacity:1;stroke-width:1.38869488" />
    <path
       id="path852"
       d="m 63.954435,28.112939 c -0.19392,7.663951 -3.14515,15.519321 -8.87079,21.976805 -12.21376,13.77489 -32.46881,15.965981 -45.2429204,4.894163 -5.98733,-5.189452 -9.27862006,-12.368557 -9.81650007,-19.955306 0.0757,8.294579 3.36545007,16.281671 9.86061007,21.911276 12.7741104,11.071824 33.0301304,8.879642 45.2429204,-4.894156 6.21312,-7.007268 9.12562,-15.661376 8.82668,-23.932782 z"
       inkscape:connector-curvature="0"
       style="opacity:1;fill:#000000;fill-opacity:0.49019608;stroke-width:1.38869488" />
    <path
       id="rect882"
       d="m 26.401855,41.905518 v 1.804931 c 0,0.999877 -0.80481,1.804688 -1.804687,1.804688 h 19.884766 c -0.999876,0 -1.804688,-0.804811 -1.804688,-1.804688 v -1.804931 z"
       style="opacity:1;fill:#000000;fill-opacity:0.49019608;stroke:none;stroke-width:0.02840065;stroke-miterlimit:4;stroke-dasharray:none;stroke-dashoffset:0;stroke-opacity:1"
       inkscape:connector-curvature="0" />
    <rect
       style="opacity:1;fill:#000000;fill-opacity:0.49019608;stroke:none;stroke-width:0.02840065;stroke-miterlimit:4;stroke-dasharray:none;stroke-dashoffset:0;stroke-opacity:1"
       id="rect884"
       width="3.6096623"
       height="7.3560867"
       x="22.792259"
       y="38.159164"
       ry="1.8048311" />
    <rect
       ry="1.8048311"
       y="38.159164"
       x="42.677132"
       height="7.3560867"
       width="3.6096623"
       id="rect886"
       style="opacity:1;fill:#000000;fill-opacity:0.49019608;stroke:none;stroke-width:0.02840065;stroke-miterlimit:4;stroke-dasharray:none;stroke-dashoffset:0;stroke-opacity:1" />
    <path
       id="rect890"
       d="m 15,17.99585 v 33.0083 c 0,-1.659755 1.336094,-2.996093 2.99585,-2.996093 h 2.996094 V 20.991944 H 17.99585 C 16.336094,20.991944 15,19.655605 15,17.99585 Z m 0.682373,34.916015 c 0.06096,0.07392 0.125428,0.14496 0.193116,0.212647 -0.06769,-0.06769 -0.132156,-0.138721 -0.193116,-0.212647 z m 0.193116,0.212647 c 0.06769,0.06769 0.138724,0.132159 0.212646,0.193115 -0.07393,-0.06096 -0.144957,-0.125426 -0.212646,-0.193115 z m 0.690185,0.514892 c 0.08485,0.04597 0.172365,0.08821 0.261962,0.125977 -0.08967,-0.0378 -0.177047,-0.07996 -0.261962,-0.125977 z"
       style="opacity:1;fill:#000000;fill-opacity:0.49019608;stroke:none;stroke-width:0.04714395;stroke-miterlimit:4;stroke-dasharray:none;stroke-dashoffset:0;stroke-opacity:1"
       inkscape:connector-curvature="0" />
    <rect
       transform="rotate(90)"
       ry="2.9959486"
       y="-27.210814"
       x="15"
       height="12.210814"
       width="5.9918971"
       id="rect892"
       style="opacity:1;fill:#000000;fill-opacity:0.49019608;stroke:none;stroke-width:0.04714395;stroke-miterlimit:4;stroke-dasharray:none;stroke-dashoffset:0;stroke-opacity:1" />
    <rect
       transform="rotate(90)"
       style="opacity:1;fill:#000000;fill-opacity:0.49019608;stroke:none;stroke-width:0.04714395;stroke-miterlimit:4;stroke-dasharray:none;stroke-dashoffset:0;stroke-opacity:1"
       id="rect894"
       width="5.9918971"
       height="12.210814"
       x="48.008102"
       y="-27.210814"
       ry="2.9959486" />
    <path
       id="rect898"
       d="m 53.710694,17.99585 c 0,1.659755 -1.336095,2.996094 -2.99585,2.996094 h -2.99585 v 27.016113 h 2.99585 c 1.659755,0 2.99585,1.336338 2.99585,2.996093 z m -0.875489,35.128662 c -0.05199,0.05199 -0.106406,0.10136 -0.162109,0.149414 0.05565,-0.04802 0.110162,-0.09747 0.162109,-0.149414 z m -0.689941,0.514892 c -0.07172,0.03886 -0.145569,0.07439 -0.220704,0.107422 0.07507,-0.03301 0.149043,-0.06859 0.220704,-0.107422 z"
       style="opacity:1;fill:#000000;fill-opacity:0.49019608;stroke:none;stroke-width:0.04714395;stroke-miterlimit:4;stroke-dasharray:none;stroke-dashoffset:0;stroke-opacity:1"
       inkscape:connector-curvature="0" />
    <rect
       transform="matrix(0,1,1,0,0,0)"
       style="opacity:1;fill:#000000;fill-opacity:0.49019608;stroke:none;stroke-width:0.04714395;stroke-miterlimit:4;stroke-dasharray:none;stroke-dashoffset:0;stroke-opacity:1"
       id="rect900"
       width="5.9918971"
       height="12.210814"
       x="15"
       y="41.5"
       ry="2.9959486" />
    <rect
       transform="matrix(0,1,1,0,0,0)"
       ry="2.9959486"
       y="41.5"
       x="48.008102"
       height="12.210814"
       width="5.9918971"
       id="rect902"
       style="opacity:1;fill:#000000;fill-opacity:0.49019608;stroke:none;stroke-width:0.04714395;stroke-miterlimit:4;stroke-dasharray:none;stroke-dashoffset:0;stroke-opacity:1" />
    <g
       transform="matrix(0.125,0,0,0.125,2.2613392e-8,56)"
       id="g880">
      <g
         id="g850"
         transform="matrix(0.60114702,0,0,0.60114702,102.22337,-82.236698)">
        <rect
           ry="24.018499"
           y="-84.037003"
           x="100"
           height="48.036999"
           width="312.66272"
           id="rect829"
           style="opacity:1;fill:#ffffff;fill-opacity:1;stroke:none;stroke-width:0.37795275;stroke-miterlimit:4;stroke-dasharray:none;stroke-dashoffset:0;stroke-opacity:1" />
        <rect
           ry="24.018499"
           y="-133.89401"
           x="100"
           height="97.894012"
           width="48.036999"
           id="rect831"
           style="opacity:1;fill:#ffffff;fill-opacity:1;stroke:none;stroke-width:0.37795275;stroke-miterlimit:4;stroke-dasharray:none;stroke-dashoffset:0;stroke-opacity:1" />
        <rect
           style="opacity:1;fill:#ffffff;fill-opacity:1;stroke:none;stroke-width:0.37795275;stroke-miterlimit:4;stroke-dasharray:none;stroke-dashoffset:0;stroke-opacity:1"
           id="rect833"
           width="48.036999"
           height="97.894012"
           x="364.62573"
           y="-133.89401"
           ry="24.018499" />
      </g>
      <g
         transform="matrix(0,0.99788036,-0.99788036,0,64.076307,-447.78804)"
         id="g858">
        <rect
           style="opacity:1;fill:#ffffff;fill-opacity:1;stroke:none;stroke-width:0.37795275;stroke-miterlimit:4;stroke-dasharray:none;stroke-dashoffset:0;stroke-opacity:1"
           id="rect852"
           width="312.66272"
           height="48.036999"
           x="100"
           y="-84.037003"
           ry="24.018499" />
        <rect
           style="opacity:1;fill:#ffffff;fill-opacity:1;stroke:none;stroke-width:0.37795275;stroke-miterlimit:4;stroke-dasharray:none;stroke-dashoffset:0;stroke-opacity:1"
           id="rect854"
           width="48.036999"
           height="97.894012"
           x="100"
           y="-133.89401"
           ry="24.018499" />
        <rect
           ry="24.018499"
           y="-133.89401"
           x="364.62573"
           height="97.894012"
           width="48.036999"
           id="rect856"
           style="opacity:1;fill:#ffffff;fill-opacity:1;stroke:none;stroke-width:0.37795275;stroke-miterlimit:4;stroke-dasharray:none;stroke-dashoffset:0;stroke-opacity:1" />
      </g>
      <g
         id="g866"
         transform="matrix(0,0.99788036,0.99788036,0,445.61021,-447.78804)">
        <rect
           ry="24.018499"
           y="-84.037003"
           x="100"
           height="48.036999"
           width="312.66272"
           id="rect860"
           style="opacity:1;fill:#ffffff;fill-opacity:1;stroke:none;stroke-width:0.37795275;stroke-miterlimit:4;stroke-dasharray:none;stroke-dashoffset:0;stroke-opacity:1" />
        <rect
           ry="24.018499"
           y="-133.89401"
           x="100"
           height="97.894012"
           width="48.036999"
           id="rect862"
           style="opacity:1;fill:#ffffff;fill-opacity:1;stroke:none;stroke-width:0.37795275;stroke-miterlimit:4;stroke-dasharray:none;stroke-dashoffset:0;stroke-opacity:1" />
        <rect
           style="opacity:1;fill:#ffffff;fill-opacity:1;stroke:none;stroke-width:0.37795275;stroke-miterlimit:4;stroke-dasharray:none;stroke-dashoffset:0;stroke-opacity:1"
           id="rect864"
           width="48.036999"
           height="97.894012"
           x="364.62573"
           y="-133.89401"
           ry="24.018499" />
      </g>
    </g>
  </g>
</svg>
