<?xml version="1.0" encoding="UTF-8" standalone="no"?>
<svg
   xmlns:dc="http://purl.org/dc/elements/1.1/"
   xmlns:cc="http://creativecommons.org/ns#"
   xmlns:rdf="http://www.w3.org/1999/02/22-rdf-syntax-ns#"
   xmlns:svg="http://www.w3.org/2000/svg"
   xmlns="http://www.w3.org/2000/svg"
   xmlns:sodipodi="http://sodipodi.sourceforge.net/DTD/sodipodi-0.dtd"
   xmlns:inkscape="http://www.inkscape.org/namespaces/inkscape"
   viewBox="0 0 64 64"
   version="1.1"
   id="svg6"
   sodipodi:docname="group.svg"
   width="64"
   height="64"
   inkscape:version="0.92.2 5c3e80d, 2017-08-06">
  <metadata
     id="metadata10">
    <rdf:RDF>
      <cc:Work
         rdf:about="">
        <dc:format>image/svg+xml</dc:format>
        <dc:type
           rdf:resource="http://purl.org/dc/dcmitype/StillImage" />
        <dc:title></dc:title>
      </cc:Work>
    </rdf:RDF>
  </metadata>
  <sodipodi:namedview
     pagecolor="#ffffff"
     bordercolor="#666666"
     borderopacity="1"
     objecttolerance="10"
     gridtolerance="10"
     guidetolerance="10"
     inkscape:pageopacity="0"
     inkscape:pageshadow="2"
     inkscape:window-width="1366"
     inkscape:window-height="717"
     id="namedview8"
     showgrid="false"
     inkscape:zoom="0.43457604"
     inkscape:cx="349.42068"
     inkscape:cy="68.324783"
     inkscape:window-x="0"
     inkscape:window-y="24"
     inkscape:window-maximized="1"
     inkscape:current-layer="svg6" />
  <defs
     id="defs3051">
    <style
       type="text/css"
       id="current-color-scheme">
      .ColorScheme-Text {
        color:#4d4d4d;
      }
      </style>
  </defs>
  <g
     id="g865"
     transform="matrix(0.125,0,0,0.125,2.8118476e-7,56)">
    <path
       id="path850"
       d="m 432.91326,-391.52606 c 102.19291,88.57458 105.82678,249.69973 8.1168,359.898824 C 343.32005,78.571839 181.27961,96.100609 79.086739,7.5260194 -23.106204,-81.048566 -26.740031,-242.17373 70.969939,-352.3728 168.67988,-462.57189 330.72032,-480.10065 432.91326,-391.52606 Z"
       inkscape:connector-curvature="0"
       style="fill:#3689e6;fill-opacity:1;stroke-width:11.10955906" />
    <path
       id="path852"
       d="m 511.6355,-223.09649 c -1.55139,61.31161 -25.16123,124.154574 -70.96638,175.814444 C 342.95911,62.917069 180.91867,80.445799 78.725759,-8.1287456 30.827126,-49.644356 4.4968187,-107.0772 0.19382668,-167.77119 0.79908068,-101.41456 27.117406,-37.517826 79.078689,7.5190194 181.27156,96.093609 343.31971,78.556149 441.02201,-31.634236 490.72696,-87.692376 514.02703,-156.92524 511.6355,-223.09649 Z"
       inkscape:connector-curvature="0"
       style="opacity:1;fill:#000000;fill-opacity:0.49019608;stroke-width:11.10955906" />
    <g
       style="fill:#000000;fill-opacity:0.49019608"
       id="g855"
       transform="matrix(0.95053368,0,0,0.95053368,30.535133,17.651443)">
      <path
         id="path851"
         d="m 208.80924,-300.18896 c -7.07633,-0.37738 -14.24052,0.21133 -20.52012,1.82652 -23.55879,6.08518 -42.03775,23.8927 -48.82365,47.11366 -6.80824,23.29613 -0.67022,48.44143 16.15671,66.21845 2.31862,2.45147 6.2316,5.91914 8.66797,7.72452 2.43637,1.80539 4.22092,3.47462 4.00959,3.65576 -0.21133,0.21133 -1.7118,0.78495 -3.30193,1.29819 -4.29549,1.38574 -13.01931,5.56832 -18.81014,9.0218 -14.22421,8.48291 -26.56606,19.80492 -35.79225,32.84386 -1.81444,2.56317 -4.66231,7.1355 -6.36807,10.20104 l -3.12531,5.60183 c 0,0 -2.8379,4.77462 -4.12763,7.78339 -0.99931,2.33372 -2.0288,5.88683 -2.65374,7.960311 6.60144,7.272872 16.2503,16.810026 21.93515,21.050874 16.30494,12.164022 34.04302,20.673494 52.95128,25.414295 6.82394,1.711797 18.61451,3.753273 24.70663,4.245377 7.01988,0.564561 25.44056,-0.120762 32.60807,-1.237807 25.01608,-3.855015 47.24287,-13.224008 67.63348,-28.421563 5.69663,-4.245679 15.46444,-13.825703 22.11207,-21.168617 -0.89364,-2.78657 -1.63028,-5.48107 -2.7111,-7.31182 -1.70576,-2.88922 -4.24538,-8.31414 -4.24538,-8.31414 l -3.12531,-5.60153 c -9.72826,-17.49323 -24.36427,-32.43809 -42.16032,-43.04489 -5.79474,-3.45349 -14.51887,-7.63909 -18.81014,-9.02181 -1.59103,-0.51323 -3.09089,-1.11704 -3.30222,-1.29818 -0.21134,-0.18115 1.61518,-1.8386 4.06876,-3.65576 16.8055,-12.44691 27.65472,-33.93856 27.65472,-54.83818 0,-1.88086 -0.35624,-5.86449 -0.76683,-8.90376 -3.41695,-25.29142 -19.74423,-45.78468 -43.98835,-55.19171 -5.84094,-2.26428 -12.795,-3.57454 -19.87133,-3.95072 z"
         style="fill:#000000;fill-opacity:0.49019608;stroke-width:0.52626097"
         inkscape:connector-curvature="0" />
      <path
         inkscape:connector-curvature="0"
         id="path853"
         d="m 309.79102,-352.3125 c -5.29462,0.0821 -10.50124,0.71634 -15.21094,1.92773 -23.55879,6.08518 -42.03832,23.89233 -48.82422,47.11329 -0.002,0.006 -0.002,0.0118 -0.004,0.0176 0.99994,0.3167 1.98392,0.64899 2.92969,1.01563 24.24412,9.40703 40.57133,29.89998 43.98828,55.1914 0.41059,3.03928 0.76563,7.02344 0.76563,8.9043 0,20.89962 -10.8488,42.39098 -27.6543,54.83789 -2.45358,1.81716 -4.2797,3.47315 -4.06836,3.6543 0.21133,0.18114 1.71171,0.7856 3.30273,1.29883 4.29127,1.38272 13.01581,5.56799 18.81055,9.02148 17.79605,10.6068 32.4319,25.55169 42.16016,43.04492 l 3.125,5.60157 c 0,0 2.53838,5.42523 4.24414,8.31445 1.08082,1.83075 1.8173,4.52593 2.71094,7.3125 -1.02638,1.13372 -2.14235,2.3285 -3.29102,3.54101 24.94957,-3.87056 47.12444,-13.23002 67.4707,-28.39453 5.69663,-4.24568 15.4637,-13.82505 22.11133,-21.16796 -0.89364,-2.78658 -1.63012,-5.48175 -2.71094,-7.3125 -1.70576,-2.88922 -4.24414,-8.31446 -4.24414,-8.31446 l -3.125,-5.60156 c -9.72826,-17.49323 -24.3641,-32.43812 -42.16015,-43.04492 -5.79474,-3.45349 -14.51928,-7.63877 -18.81055,-9.02149 -1.59103,-0.51323 -3.0914,-1.11768 -3.30273,-1.29883 -0.21134,-0.18115 1.61478,-1.83713 4.06836,-3.65429 16.8055,-12.44691 27.65429,-33.94023 27.65429,-54.83985 0,-1.88086 -0.35503,-5.86307 -0.76562,-8.90234 -3.41695,-25.29142 -19.74416,-45.78438 -43.98828,-55.19141 -5.84094,-2.26428 -12.79477,-3.57499 -19.8711,-3.95117 h -0.002 c -1.76908,-0.0943 -3.54372,-0.12892 -5.30859,-0.10156 z"
         style="fill:#000000;fill-opacity:0.49019608;stroke-width:0.52626097" />
    </g>
    <g
       transform="matrix(0.95053368,0,0,0.95053368,10.535133,-2.3485569)"
       id="g848">
      <path
         inkscape:connector-curvature="0"
         style="fill:#ffffff;stroke-width:0.52626097"
         d="m 208.80924,-300.18896 c -7.07633,-0.37738 -14.24052,0.21133 -20.52012,1.82652 -23.55879,6.08518 -42.03775,23.8927 -48.82365,47.11366 -6.80824,23.29613 -0.67022,48.44143 16.15671,66.21845 2.31862,2.45147 6.2316,5.91914 8.66797,7.72452 2.43637,1.80539 4.22092,3.47462 4.00959,3.65576 -0.21133,0.21133 -1.7118,0.78495 -3.30193,1.29819 -4.29549,1.38574 -13.01931,5.56832 -18.81014,9.0218 -14.22421,8.48291 -26.56606,19.80492 -35.79225,32.84386 -1.81444,2.56317 -4.66231,7.1355 -6.36807,10.20104 l -3.12531,5.60183 c 0,0 -2.8379,4.77462 -4.12763,7.78339 -0.99931,2.33372 -2.0288,5.88683 -2.65374,7.960311 6.60144,7.272872 16.2503,16.810026 21.93515,21.050874 16.30494,12.164022 34.04302,20.673494 52.95128,25.414295 6.82394,1.711797 18.61451,3.753273 24.70663,4.245377 7.01988,0.564561 25.44056,-0.120762 32.60807,-1.237807 25.01608,-3.855015 47.24287,-13.224008 67.63348,-28.421563 5.69663,-4.245679 15.46444,-13.825703 22.11207,-21.168617 -0.89364,-2.78657 -1.63028,-5.48107 -2.7111,-7.31182 -1.70576,-2.88922 -4.24538,-8.31414 -4.24538,-8.31414 l -3.12531,-5.60153 c -9.72826,-17.49323 -24.36427,-32.43809 -42.16032,-43.04489 -5.79474,-3.45349 -14.51887,-7.63909 -18.81014,-9.02181 -1.59103,-0.51323 -3.09089,-1.11704 -3.30222,-1.29818 -0.21134,-0.18115 1.61518,-1.8386 4.06876,-3.65576 16.8055,-12.44691 27.65472,-33.93856 27.65472,-54.83818 0,-1.88086 -0.35624,-5.86449 -0.76683,-8.90376 -3.41695,-25.29142 -19.74423,-45.78468 -43.98835,-55.19171 -5.84094,-2.26428 -12.795,-3.57454 -19.87133,-3.95072 z"
         id="path58" />
      <path
         style="fill:#ffffff;stroke-width:0.52626097"
         d="m 309.79102,-352.3125 c -5.29462,0.0821 -10.50124,0.71634 -15.21094,1.92773 -23.55879,6.08518 -42.03832,23.89233 -48.82422,47.11329 -0.002,0.006 -0.002,0.0118 -0.004,0.0176 0.99994,0.3167 1.98392,0.64899 2.92969,1.01563 24.24412,9.40703 40.57133,29.89998 43.98828,55.1914 0.41059,3.03928 0.76563,7.02344 0.76563,8.9043 0,20.89962 -10.8488,42.39098 -27.6543,54.83789 -2.45358,1.81716 -4.2797,3.47315 -4.06836,3.6543 0.21133,0.18114 1.71171,0.7856 3.30273,1.29883 4.29127,1.38272 13.01581,5.56799 18.81055,9.02148 17.79605,10.6068 32.4319,25.55169 42.16016,43.04492 l 3.125,5.60157 c 0,0 2.53838,5.42523 4.24414,8.31445 1.08082,1.83075 1.8173,4.52593 2.71094,7.3125 -1.02638,1.13372 -2.14235,2.3285 -3.29102,3.54101 24.94957,-3.87056 47.12444,-13.23002 67.4707,-28.39453 5.69663,-4.24568 15.4637,-13.82505 22.11133,-21.16796 -0.89364,-2.78658 -1.63012,-5.48175 -2.71094,-7.3125 -1.70576,-2.88922 -4.24414,-8.31446 -4.24414,-8.31446 l -3.125,-5.60156 c -9.72826,-17.49323 -24.3641,-32.43812 -42.16015,-43.04492 -5.79474,-3.45349 -14.51928,-7.63877 -18.81055,-9.02149 -1.59103,-0.51323 -3.0914,-1.11768 -3.30273,-1.29883 -0.21134,-0.18115 1.61478,-1.83713 4.06836,-3.65429 16.8055,-12.44691 27.65429,-33.94023 27.65429,-54.83985 0,-1.88086 -0.35503,-5.86307 -0.76562,-8.90234 -3.41695,-25.29142 -19.74416,-45.78438 -43.98828,-55.19141 -5.84094,-2.26428 -12.79477,-3.57499 -19.8711,-3.95117 h -0.002 c -1.76908,-0.0943 -3.54372,-0.12892 -5.30859,-0.10156 z"
         id="path841"
         inkscape:connector-curvature="0" />
    </g>
  </g>
</svg>
