<?xml version="1.0" encoding="UTF-8" standalone="no"?>
<svg
   xmlns:dc="http://purl.org/dc/elements/1.1/"
   xmlns:cc="http://creativecommons.org/ns#"
   xmlns:rdf="http://www.w3.org/1999/02/22-rdf-syntax-ns#"
   xmlns:svg="http://www.w3.org/2000/svg"
   xmlns="http://www.w3.org/2000/svg"
   xmlns:sodipodi="http://sodipodi.sourceforge.net/DTD/sodipodi-0.dtd"
   xmlns:inkscape="http://www.inkscape.org/namespaces/inkscape"
   viewBox="0 0 64 64"
   version="1.1"
   id="svg6"
   sodipodi:docname="view-bank-account-checking.svg"
   width="64"
   height="64"
   inkscape:version="0.92.2 5c3e80d, 2017-08-06">
  <metadata
     id="metadata10">
    <rdf:RDF>
      <cc:Work
         rdf:about="">
        <dc:format>image/svg+xml</dc:format>
        <dc:type
           rdf:resource="http://purl.org/dc/dcmitype/StillImage" />
        <dc:title></dc:title>
      </cc:Work>
    </rdf:RDF>
  </metadata>
  <sodipodi:namedview
     pagecolor="#ffffff"
     bordercolor="#666666"
     borderopacity="1"
     objecttolerance="10"
     gridtolerance="10"
     guidetolerance="10"
     inkscape:pageopacity="0"
     inkscape:pageshadow="2"
     inkscape:window-width="1366"
     inkscape:window-height="717"
     id="namedview8"
     showgrid="false"
     inkscape:zoom="0.61458333"
     inkscape:cx="35.325608"
     inkscape:cy="213.91127"
     inkscape:window-x="0"
     inkscape:window-y="24"
     inkscape:window-maximized="1"
     inkscape:current-layer="svg6" />
  <defs
     id="defs3051">
    <style
       type="text/css"
       id="current-color-scheme">
      .ColorScheme-Text {
        color:#4d4d4d;
      }
      .ColorScheme-NegativeText {
        color:#da4453;
      }
      </style>
  </defs>
  <g
     id="g881"
     transform="matrix(0.125,0,0,0.125,1.2309213e-7,56)">
    <path
       id="path842"
       d="m 432.91327,-391.52602 c 102.19292,88.5746 105.82677,249.6997 8.1168,359.898781 C 343.3201,78.571841 181.27963,96.100609 79.086725,7.5260171 -23.10618,-81.048567 -26.740045,-242.17368 70.969925,-352.37276 168.6799,-462.57184 330.72038,-480.10061 432.91327,-391.52602 Z"
       inkscape:connector-curvature="0"
       style="fill:#3689e6;fill-opacity:1;stroke-width:11.10955715" />
    <path
       id="path845"
       d="m 511.63551,-223.09648 c -1.55139,61.31165 -25.16123,124.154609 -70.96637,175.814473 C 342.95916,62.917113 180.91868,80.445841 78.72578,-8.128703 30.827148,-49.644359 4.4968426,-107.07716 0.19385057,-167.77118 0.7991041,-101.41452 27.117428,-37.517823 79.078675,7.5190651 181.27162,96.093617 343.31976,78.556193 441.02203,-31.634231 490.72698,-87.692335 514.02704,-156.92519 511.63551,-223.09648 Z"
       inkscape:connector-curvature="0"
       style="opacity:1;fill:#000000;fill-opacity:0.49019608;stroke-width:11.10955715" />
    <g
       style="fill:#000000;fill-opacity:0.49019608"
       transform="translate(20,20.838339)"
       id="g62">
      <g
         style="fill:#000000;fill-opacity:0.49019608"
         id="g58">
        <path
           style="fill:#000000;fill-opacity:0.49019608;stroke-width:0.39013535"
           d="m 160.53125,-350 c -4.37545,0.0402 -8.57125,1.88355 -11.61719,5.29688 -0.50983,0.57134 -1.49779,2.17621 -2.19531,3.5664 l -1.26758,2.52734 v 16.58985 16.58789 l 1.11914,2.42383 c 1.8284,3.95811 6.297,7.72248 10.28516,8.66211 3.7328,0.87942 8.35019,0.21102 11.56641,-1.67383 2.45696,-1.43985 5.50092,-4.95101 6.55468,-7.56055 0.89736,-2.22001 0.9043,-2.3996 0.9043,-18.43164 v -16.1914 l -0.93945,-2.33985 c -1.31966,-3.28743 -5.2084,-7.15317 -8.42383,-8.37305 -1.97241,-0.74828 -3.99749,-1.10227 -5.98633,-1.08398 z m 187.98437,0.11523 c -5.11998,0.003 -7.49285,0.9636 -10.95898,4.42969 -1.86508,1.86512 -2.8302,3.21439 -3.51172,4.91211 -0.92714,2.30922 -0.93973,2.54388 -1.06445,17.36133 -0.15727,18.70851 0.0432,19.88864 4.14648,24.27539 2.07269,2.21586 4.37212,3.66964 7.00977,4.43164 1.13945,0.3288 3.08109,0.47747 5.08594,0.38867 2.64438,-0.11713 3.69003,-0.36313 5.66211,-1.33398 3.11568,-1.53385 5.83703,-4.27539 7.40625,-7.46289 l 1.24609,-2.53125 v -16.58985 -16.58789 l -1.05273,-2.24414 c -1.47641,-3.1505 -4.56816,-6.28557 -7.69727,-7.80468 -2.33487,-1.13348 -2.89725,-1.24515 -6.27149,-1.24415 z m -212.35156,23.58204 -14.08203,0.008 c -13.31324,0.008 -14.18028,0.0512 -15.83984,0.80078 -2.48458,1.12233 -4.55428,3.29096 -5.46485,5.72461 -0.77016,2.06183 -0.77734,3.17952 -0.77734,137.56641 0,125.449244 0.0482,135.629015 0.65039,137.396479 0.82454,2.419992 3.64738,5.307368 6.00195,6.138672 h 0.002 c 1.56382,0.55216 16.10965,0.618131 147.67187,0.644531 0.46405,9.8e-5 0.58375,-1.02e-4 1.04492,0 -4.26395,-1.839172 -7.70025,-5.568265 -9.07226,-9.976562 -0.46575,-1.496457 -0.65162,-3.556935 -0.73633,-10.712891 -64.69527,-0.02723 -116.96384,-0.166228 -117.47656,-0.322265 -2.89808,-0.881544 -5.31105,-3.031377 -6.59766,-5.876953 -0.79112,-1.750744 -0.79473,-2.033203 -0.80273,-101.861331 l -0.008,-100.10547 1.18165,-2.36523 c 0.65309,-1.30696 1.78489,-2.82482 2.52929,-3.39258 3.05795,-2.33234 -6.81189,-2.16797 130.08399,-2.16797 113.42056,0 125.67968,0.0595 127.3164,0.61719 2.04828,0.69792 4.5187,2.96427 5.59961,5.13867 0.70114,1.41071 0.72963,4.86364 0.83203,101.72461 0.004,3.83704 0.002,5.52482 0.006,9.07617 9.04281,0.0639 13.91245,0.16831 14.70508,0.33789 2.24818,0.48077 4.23678,1.3476 5.98047,2.59766 -0.01,-10.20595 -0.0106,-15.36234 -0.0195,-27.625 l -0.0996,-136.14844 -0.84375,-1.56054 c -1.12112,-2.07389 -3.05405,-3.87403 -5.20313,-4.84571 -1.66064,-0.75114 -2.5214,-0.79473 -15.90625,-0.80273 l -14.15039,-0.008 0.24805,6.92578 c 0.36998,10.34784 -0.43872,15.9415 -3.15039,21.81054 -2.56817,5.55855 -8.63525,10.23846 -15.41797,11.89063 -3.0388,0.74017 -9.76143,0.62934 -12.875,-0.21289 -8.03456,-2.17338 -13.8602,-8.02642 -16.3418,-16.41992 -1.20312,-4.06971 -1.66763,-10.00693 -1.36523,-17.45899 l 0.26562,-6.53515 h -69.45312 -69.45313 l 0.0371,9.46093 c 0.0333,8.58773 -0.0432,9.78416 -0.83984,12.95703 -2.34712,9.34818 -7.26661,14.81577 -15.87305,17.64063 -3.97038,1.3031 -10.59183,1.46585 -14.63086,0.36133 -7.11621,-1.94605 -12.92892,-7.0994 -15.57422,-13.81055 -1.77241,-4.4967 -2.14944,-7.56567 -2.12304,-17.34375 z"
           id="path54"
           inkscape:connector-curvature="0"
           sodipodi:nodetypes="scccccccccscccscccccccccccccccccccscccccccccccccsccscccsccccccccsccccccsccccc" />
        <path
           style="fill:#000000;fill-opacity:0.49019608;stroke-width:0.40665329"
           d="m 266.03329,-37.407261 c -4.69094,-1.444681 -8.57378,-5.301007 -10.02173,-9.953296 -0.7172,-2.304345 -0.76478,-4.18789 -0.76478,-30.276725 v -27.819528 h 80.3272 80.32721 l -0.11483,28.364073 -0.11485,28.364065 -0.94368,2.336898 c -1.31728,3.262063 -4.3709,6.475361 -7.7209,8.124621 l -2.70442,1.331427 -68.12307,0.07575 c -60.18122,0.06692 -68.35893,0.0033 -70.14615,-0.54729 z m 77.05061,-52.800052 v -3.863205 h -30.499 -30.499 v 3.863205 3.863213 h 30.499 30.499 z m -87.76716,-41.985937 c 0.13221,-7.55977 0.14426,-7.64864 1.39178,-10.269 0.69213,-1.4538 2.06458,-3.44942 3.04989,-4.43475 0.98532,-0.98532 2.98096,-2.35777 4.43475,-3.04989 l 2.64324,-1.25841 67.30113,-0.12517 c 50.46095,-0.0938 67.86076,-0.006 69.53771,0.35313 4.14118,0.88558 7.35588,3.14247 9.71689,6.8218 1.99897,3.11512 2.52066,5.97925 2.3919,13.13185 l -0.11252,6.25085 -80.24407,0.10267 -80.24405,0.10268 z"
           id="path56"
           inkscape:connector-curvature="0"
           sodipodi:nodetypes="ccscccccsscsccccccccccsssscscsscccs" />
      </g>
      <path
         inkscape:connector-curvature="0"
         id="path60"
         d="m 193.9747,-131.12411 c -14.35291,-0.76771 -27.7317,-6.03921 -38.86579,-15.31383 -1.7359,-1.44593 -5.3812,-5.01849 -6.94495,-6.80631 -9.78377,-11.18562 -15.34569,-24.65765 -16.26662,-39.40096 -0.34311,-5.49277 0.0668,-7.83123 1.85437,-10.58004 1.79547,-2.7609 4.42766,-4.61045 7.64379,-5.37113 1.3342,-0.31555 4.11129,-0.31204 5.40011,0.006 3.74774,0.92735 6.77508,3.38919 8.38044,6.81489 0.87827,1.87422 1.06701,2.9166 1.20486,6.6543 0.18867,5.11542 0.68974,8.91671 1.73727,13.17927 5.32186,21.65568 21.9789,38.09593 42.41219,41.86019 3.25768,0.60014 5.43941,0.79428 8.96388,0.79765 3.49498,0.003 5.33759,-0.14081 8.4081,-0.657 8.66658,-1.45743 16.74152,-5.15711 23.90085,-10.9505 2.075,-1.67912 6.43971,-6.09687 8.14136,-8.24027 4.69115,-5.90911 7.87442,-11.9805 10.38169,-19.80086 0.22411,-0.69906 0.37115,-1.06024 0.32675,-0.80269 -0.0443,0.25751 -0.34959,1.34119 -0.67817,2.40819 -2.51702,8.17317 -6.45462,15.50541 -11.97347,22.29587 -1.89005,2.32555 -6.71408,7.16112 -9.00657,9.02819 -10.98231,8.94408 -23.737,13.9584 -37.72858,14.83236 -1.95398,0.12222 -5.45487,0.14415 -7.29151,0.0458 z m 66.7836,-49.27937 c 0.002,-0.11045 0.0521,-0.3512 0.11109,-0.53514 0.0861,-0.2689 0.10791,-0.28199 0.11109,-0.0669 0.002,0.14733 -0.0478,0.38798 -0.11109,0.53516 -0.0704,0.16395 -0.11347,0.18988 -0.11109,0.0669 z m 0.25539,-1.14836 c 0.006,-0.15607 0.0382,-0.18755 0.0809,-0.0809 0.0386,0.0966 0.0338,0.21199 -0.0112,0.25645 -0.0445,0.0445 -0.0761,-0.0347 -0.0703,-0.17564 z m 0.13381,-0.53516 c 0.006,-0.15607 0.0382,-0.18755 0.0809,-0.0809 0.0386,0.0966 0.0339,0.21193 -0.0111,0.25639 -0.0445,0.0445 -0.0761,-0.0347 -0.0702,-0.17558 z m 0.13382,-0.53514 c 0.006,-0.15607 0.0382,-0.18755 0.0809,-0.0809 0.0386,0.0966 0.0339,0.21198 -0.0112,0.25643 -0.0445,0.0445 -0.0761,-0.0347 -0.0703,-0.17558 z m 0.13382,-0.66898 c 0.006,-0.15606 0.0382,-0.18754 0.0809,-0.0809 0.0386,0.0966 0.0339,0.21199 -0.0112,0.25644 -0.0445,0.0445 -0.0761,-0.0347 -0.0702,-0.17562 z m -12.94245,-1.1902 c -2.47152,-0.44849 -4.53609,-1.50704 -6.38215,-3.27239 -1.15538,-1.1048 -1.95101,-2.21173 -2.62768,-3.65567 -0.87826,-1.87419 -1.067,-2.91657 -1.20486,-6.65426 -0.18866,-5.11543 -0.68975,-8.91671 -1.73726,-13.17928 -5.32275,-21.65932 -21.97998,-38.09961 -42.41219,-41.85986 -9.29663,-1.71094 -18.68537,-0.79348 -27.4937,2.68654 -15.35127,6.06508 -27.43848,19.69051 -32.37811,36.49856 -0.32439,1.10374 -0.5923,1.92244 -0.59537,1.81924 -0.01,-0.33352 0.91961,-3.55642 1.60943,-5.58017 2.6393,-7.74306 6.57476,-14.72102 11.91352,-21.12389 1.44047,-1.72758 5.01126,-5.37273 6.80744,-6.94916 14.28149,-12.53444 32.87714,-18.23345 51.70957,-15.84744 12.96439,1.64256 25.07028,7.12711 34.9859,15.85036 1.54577,1.35992 4.97257,4.80892 6.23682,6.27726 9.52002,11.05701 14.95128,24.48993 15.85055,39.20265 0.3226,5.278 -0.11633,7.63327 -1.94443,10.43318 -2.6545,4.06576 -7.60316,6.21343 -12.33748,5.35433 z m -115.22777,-26.10281 c 0.006,-0.15607 0.0381,-0.18755 0.0808,-0.0809 0.0386,0.0966 0.0339,0.21198 -0.0106,0.25643 -0.0444,0.0445 -0.0761,-0.0345 -0.0703,-0.17562 z m 0.13377,-0.53515 c 0.006,-0.15606 0.0382,-0.18754 0.0808,-0.0809 0.0386,0.0966 0.0339,0.21194 -0.0106,0.25643 -0.0444,0.0445 -0.0761,-0.0346 -0.0703,-0.17562 z m 0.13377,-0.53514 c 0.006,-0.15606 0.0381,-0.18754 0.0808,-0.0809 0.0386,0.0966 0.0339,0.21194 -0.0106,0.25639 -0.0444,0.0445 -0.0761,-0.0347 -0.0703,-0.17558 z"
         style="fill:#000000;fill-opacity:0.49019608;stroke-width:0.13378932" />
    </g>
    <g
       id="g52">
      <g
         id="g50">
        <path
           sodipodi:nodetypes="scccccccccscccscccccccccccccccccccscccccccccccccsccscccsccccccccsccccccsccccc"
           inkscape:connector-curvature="0"
           id="path849"
           d="m 160.53125,-350 c -4.37545,0.0402 -8.57125,1.88355 -11.61719,5.29688 -0.50983,0.57134 -1.49779,2.17621 -2.19531,3.5664 l -1.26758,2.52734 v 16.58985 16.58789 l 1.11914,2.42383 c 1.8284,3.95811 6.297,7.72248 10.28516,8.66211 3.7328,0.87942 8.35019,0.21102 11.56641,-1.67383 2.45696,-1.43985 5.50092,-4.95101 6.55468,-7.56055 0.89736,-2.22001 0.9043,-2.3996 0.9043,-18.43164 v -16.1914 l -0.93945,-2.33985 c -1.31966,-3.28743 -5.2084,-7.15317 -8.42383,-8.37305 -1.97241,-0.74828 -3.99749,-1.10227 -5.98633,-1.08398 z m 187.98437,0.11523 c -5.11998,0.003 -7.49285,0.9636 -10.95898,4.42969 -1.86508,1.86512 -2.8302,3.21439 -3.51172,4.91211 -0.92714,2.30922 -0.93973,2.54388 -1.06445,17.36133 -0.15727,18.70851 0.0432,19.88864 4.14648,24.27539 2.07269,2.21586 4.37212,3.66964 7.00977,4.43164 1.13945,0.3288 3.08109,0.47747 5.08594,0.38867 2.64438,-0.11713 3.69003,-0.36313 5.66211,-1.33398 3.11568,-1.53385 5.83703,-4.27539 7.40625,-7.46289 l 1.24609,-2.53125 v -16.58985 -16.58789 l -1.05273,-2.24414 c -1.47641,-3.1505 -4.56816,-6.28557 -7.69727,-7.80468 -2.33487,-1.13348 -2.89725,-1.24515 -6.27149,-1.24415 z m -212.35156,23.58204 -14.08203,0.008 c -13.31324,0.008 -14.18028,0.0512 -15.83984,0.80078 -2.48458,1.12233 -4.55428,3.29096 -5.46485,5.72461 -0.77016,2.06183 -0.77734,3.17952 -0.77734,137.56641 0,125.449244 0.0482,135.629015 0.65039,137.396479 0.82454,2.419992 3.64738,5.307368 6.00195,6.138672 h 0.002 c 1.56382,0.55216 16.10965,0.618131 147.67187,0.644531 0.46405,9.8e-5 0.58375,-1.02e-4 1.04492,0 -4.26395,-1.839172 -7.70025,-5.568265 -9.07226,-9.976562 -0.46575,-1.496457 -0.65162,-3.556935 -0.73633,-10.712891 -64.69527,-0.02723 -116.96384,-0.166228 -117.47656,-0.322265 -2.89808,-0.881544 -5.31105,-3.031377 -6.59766,-5.876953 -0.79112,-1.750744 -0.79473,-2.033203 -0.80273,-101.861331 l -0.008,-100.10547 1.18165,-2.36523 c 0.65309,-1.30696 1.78489,-2.82482 2.52929,-3.39258 3.05795,-2.33234 -6.81189,-2.16797 130.08399,-2.16797 113.42056,0 125.67968,0.0595 127.3164,0.61719 2.04828,0.69792 4.5187,2.96427 5.59961,5.13867 0.70114,1.41071 0.72963,4.86364 0.83203,101.72461 0.004,3.83704 0.002,5.52482 0.006,9.07617 9.04281,0.0639 13.91245,0.16831 14.70508,0.33789 2.24818,0.48077 4.23678,1.3476 5.98047,2.59766 -0.01,-10.20595 -0.0106,-15.36234 -0.0195,-27.625 l -0.0996,-136.14844 -0.84375,-1.56054 c -1.12112,-2.07389 -3.05405,-3.87403 -5.20313,-4.84571 -1.66064,-0.75114 -2.5214,-0.79473 -15.90625,-0.80273 l -14.15039,-0.008 0.24805,6.92578 c 0.36998,10.34784 -0.43872,15.9415 -3.15039,21.81054 -2.56817,5.55855 -8.63525,10.23846 -15.41797,11.89063 -3.0388,0.74017 -9.76143,0.62934 -12.875,-0.21289 -8.03456,-2.17338 -13.8602,-8.02642 -16.3418,-16.41992 -1.20312,-4.06971 -1.66763,-10.00693 -1.36523,-17.45899 l 0.26562,-6.53515 h -69.45312 -69.45313 l 0.0371,9.46093 c 0.0333,8.58773 -0.0432,9.78416 -0.83984,12.95703 -2.34712,9.34818 -7.26661,14.81577 -15.87305,17.64063 -3.97038,1.3031 -10.59183,1.46585 -14.63086,0.36133 -7.11621,-1.94605 -12.92892,-7.0994 -15.57422,-13.81055 -1.77241,-4.4967 -2.14944,-7.56567 -2.12304,-17.34375 z"
           style="fill:#ffffff;stroke-width:0.39013535" />
        <path
           sodipodi:nodetypes="ccscccccsscsccccccccccsssscscsscccs"
           inkscape:connector-curvature="0"
           id="path43"
           d="m 266.03329,-37.407261 c -4.69094,-1.444681 -8.57378,-5.301007 -10.02173,-9.953296 -0.7172,-2.304345 -0.76478,-4.18789 -0.76478,-30.276725 v -27.819528 h 80.3272 80.32721 l -0.11483,28.364073 -0.11485,28.364065 -0.94368,2.336898 c -1.31728,3.262063 -4.3709,6.475361 -7.7209,8.124621 l -2.70442,1.331427 -68.12307,0.07575 c -60.18122,0.06692 -68.35893,0.0033 -70.14615,-0.54729 z m 77.05061,-52.800052 v -3.863205 h -30.499 -30.499 v 3.863205 3.863213 h 30.499 30.499 z m -87.76716,-41.985937 c 0.13221,-7.55977 0.14426,-7.64864 1.39178,-10.269 0.69213,-1.4538 2.06458,-3.44942 3.04989,-4.43475 0.98532,-0.98532 2.98096,-2.35777 4.43475,-3.04989 l 2.64324,-1.25841 67.30113,-0.12517 c 50.46095,-0.0938 67.86076,-0.006 69.53771,0.35313 4.14118,0.88558 7.35588,3.14247 9.71689,6.8218 1.99897,3.11512 2.52066,5.97925 2.3919,13.13185 l -0.11252,6.25085 -80.24407,0.10267 -80.24405,0.10268 z"
           style="fill:#ffffff;stroke-width:0.40665329" />
      </g>
      <path
         style="fill:#ffffff;stroke-width:0.13378932"
         d="m 193.9747,-131.12411 c -14.35291,-0.76771 -27.7317,-6.03921 -38.86579,-15.31383 -1.7359,-1.44593 -5.3812,-5.01849 -6.94495,-6.80631 -9.78377,-11.18562 -15.34569,-24.65765 -16.26662,-39.40096 -0.34311,-5.49277 0.0668,-7.83123 1.85437,-10.58004 1.79547,-2.7609 4.42766,-4.61045 7.64379,-5.37113 1.3342,-0.31555 4.11129,-0.31204 5.40011,0.006 3.74774,0.92735 6.77508,3.38919 8.38044,6.81489 0.87827,1.87422 1.06701,2.9166 1.20486,6.6543 0.18867,5.11542 0.68974,8.91671 1.73727,13.17927 5.32186,21.65568 21.9789,38.09593 42.41219,41.86019 3.25768,0.60014 5.43941,0.79428 8.96388,0.79765 3.49498,0.003 5.33759,-0.14081 8.4081,-0.657 8.66658,-1.45743 16.74152,-5.15711 23.90085,-10.9505 2.075,-1.67912 6.43971,-6.09687 8.14136,-8.24027 4.69115,-5.90911 7.87442,-11.9805 10.38169,-19.80086 0.22411,-0.69906 0.37115,-1.06024 0.32675,-0.80269 -0.0443,0.25751 -0.34959,1.34119 -0.67817,2.40819 -2.51702,8.17317 -6.45462,15.50541 -11.97347,22.29587 -1.89005,2.32555 -6.71408,7.16112 -9.00657,9.02819 -10.98231,8.94408 -23.737,13.9584 -37.72858,14.83236 -1.95398,0.12222 -5.45487,0.14415 -7.29151,0.0458 z m 66.7836,-49.27937 c 0.002,-0.11045 0.0521,-0.3512 0.11109,-0.53514 0.0861,-0.2689 0.10791,-0.28199 0.11109,-0.0669 0.002,0.14733 -0.0478,0.38798 -0.11109,0.53516 -0.0704,0.16395 -0.11347,0.18988 -0.11109,0.0669 z m 0.25539,-1.14836 c 0.006,-0.15607 0.0382,-0.18755 0.0809,-0.0809 0.0386,0.0966 0.0338,0.21199 -0.0112,0.25645 -0.0445,0.0445 -0.0761,-0.0347 -0.0703,-0.17564 z m 0.13381,-0.53516 c 0.006,-0.15607 0.0382,-0.18755 0.0809,-0.0809 0.0386,0.0966 0.0339,0.21193 -0.0111,0.25639 -0.0445,0.0445 -0.0761,-0.0347 -0.0702,-0.17558 z m 0.13382,-0.53514 c 0.006,-0.15607 0.0382,-0.18755 0.0809,-0.0809 0.0386,0.0966 0.0339,0.21198 -0.0112,0.25643 -0.0445,0.0445 -0.0761,-0.0347 -0.0703,-0.17558 z m 0.13382,-0.66898 c 0.006,-0.15606 0.0382,-0.18754 0.0809,-0.0809 0.0386,0.0966 0.0339,0.21199 -0.0112,0.25644 -0.0445,0.0445 -0.0761,-0.0347 -0.0702,-0.17562 z m -12.94245,-1.1902 c -2.47152,-0.44849 -4.53609,-1.50704 -6.38215,-3.27239 -1.15538,-1.1048 -1.95101,-2.21173 -2.62768,-3.65567 -0.87826,-1.87419 -1.067,-2.91657 -1.20486,-6.65426 -0.18866,-5.11543 -0.68975,-8.91671 -1.73726,-13.17928 -5.32275,-21.65932 -21.97998,-38.09961 -42.41219,-41.85986 -9.29663,-1.71094 -18.68537,-0.79348 -27.4937,2.68654 -15.35127,6.06508 -27.43848,19.69051 -32.37811,36.49856 -0.32439,1.10374 -0.5923,1.92244 -0.59537,1.81924 -0.01,-0.33352 0.91961,-3.55642 1.60943,-5.58017 2.6393,-7.74306 6.57476,-14.72102 11.91352,-21.12389 1.44047,-1.72758 5.01126,-5.37273 6.80744,-6.94916 14.28149,-12.53444 32.87714,-18.23345 51.70957,-15.84744 12.96439,1.64256 25.07028,7.12711 34.9859,15.85036 1.54577,1.35992 4.97257,4.80892 6.23682,6.27726 9.52002,11.05701 14.95128,24.48993 15.85055,39.20265 0.3226,5.278 -0.11633,7.63327 -1.94443,10.43318 -2.6545,4.06576 -7.60316,6.21343 -12.33748,5.35433 z m -115.22777,-26.10281 c 0.006,-0.15607 0.0381,-0.18755 0.0808,-0.0809 0.0386,0.0966 0.0339,0.21198 -0.0106,0.25643 -0.0444,0.0445 -0.0761,-0.0345 -0.0703,-0.17562 z m 0.13377,-0.53515 c 0.006,-0.15606 0.0382,-0.18754 0.0808,-0.0809 0.0386,0.0966 0.0339,0.21194 -0.0106,0.25643 -0.0444,0.0445 -0.0761,-0.0346 -0.0703,-0.17562 z m 0.13377,-0.53514 c 0.006,-0.15606 0.0381,-0.18754 0.0808,-0.0809 0.0386,0.0966 0.0339,0.21194 -0.0106,0.25639 -0.0444,0.0445 -0.0761,-0.0347 -0.0703,-0.17558 z"
         id="path844"
         inkscape:connector-curvature="0" />
    </g>
  </g>
</svg>
