<?xml version="1.0" encoding="UTF-8" standalone="no"?>
<svg
   xmlns:dc="http://purl.org/dc/elements/1.1/"
   xmlns:cc="http://creativecommons.org/ns#"
   xmlns:rdf="http://www.w3.org/1999/02/22-rdf-syntax-ns#"
   xmlns:svg="http://www.w3.org/2000/svg"
   xmlns="http://www.w3.org/2000/svg"
   xmlns:sodipodi="http://sodipodi.sourceforge.net/DTD/sodipodi-0.dtd"
   xmlns:inkscape="http://www.inkscape.org/namespaces/inkscape"
   viewBox="0 0 64 64"
   version="1.1"
   id="svg6"
   sodipodi:docname="view-calendar-journal.svg"
   width="64"
   height="64"
   inkscape:version="0.92.2 5c3e80d, 2017-08-06">
  <metadata
     id="metadata10">
    <rdf:RDF>
      <cc:Work
         rdf:about="">
        <dc:format>image/svg+xml</dc:format>
        <dc:type
           rdf:resource="http://purl.org/dc/dcmitype/StillImage" />
        <dc:title></dc:title>
      </cc:Work>
    </rdf:RDF>
  </metadata>
  <sodipodi:namedview
     pagecolor="#ffffff"
     bordercolor="#666666"
     borderopacity="1"
     objecttolerance="10"
     gridtolerance="10"
     guidetolerance="10"
     inkscape:pageopacity="0"
     inkscape:pageshadow="2"
     inkscape:window-width="1366"
     inkscape:window-height="717"
     id="namedview8"
     showgrid="false"
     inkscape:zoom="0.61458333"
     inkscape:cx="405.48703"
     inkscape:cy="202.8374"
     inkscape:window-x="0"
     inkscape:window-y="24"
     inkscape:window-maximized="1"
     inkscape:current-layer="svg6" />
  <defs
     id="defs3051">
    <style
       type="text/css"
       id="current-color-scheme">
      .ColorScheme-Text {
        color:#4d4d4d;
      }
      </style>
  </defs>
  <g
     id="g854"
     transform="matrix(0.125,0,0,0.125,7.3362504e-8,56)">
    <path
       style="fill:#3689e6;fill-opacity:1;stroke-width:11.10955811"
       inkscape:connector-curvature="0"
       d="m 432.91322,-391.52602 c 102.19295,88.57472 105.82687,249.69984 8.1168,359.898874 C 343.31994,78.571875 181.27962,96.100515 79.086658,7.5261332 -23.106292,-81.048584 -26.739896,-242.1737 70.969858,-352.37274 168.67994,-462.57178 330.72026,-480.10074 432.91322,-391.52602 Z"
       id="path52" />
    <path
       style="opacity:1;fill:#000000;fill-opacity:0.49019608;stroke-width:11.10955811"
       inkscape:connector-curvature="0"
       d="m 511.63545,-223.09658 c -1.552,61.31168 -25.16127,124.154876 -70.96639,175.814716 C 342.9593,62.917156 180.91866,80.445795 78.725698,-8.1285868 30.827138,-49.644424 4.4969079,-107.07706 0.19386792,-167.77114 0.79866792,-101.41434 27.117388,-37.517706 79.078658,7.5190932 181.27162,96.093795 343.31962,78.556195 441.02202,-31.634186 490.72697,-87.692424 514.02713,-156.92506 511.63545,-223.09658 Z"
       id="path54" />
    <path
       inkscape:connector-curvature="0"
       style="fill:#000000;fill-opacity:0.49019608;stroke-width:0.86791039"
       d="m 181.35742,-327.99952 -5.85156,2.27734 c -13.35327,5.19512 -23.18283,13.80604 -28.80859,25.23828 -4.22932,8.59454 -5.6635,16.16718 -5.68165,29.98438 L 141,-259.00147 h 18.20508 18.20703 l 1.53711,2.34765 c 2.12618,3.24522 2.1272,12.88183 0.002,16.13086 l -1.53906,2.35156 H 159.20703 141 v 27.77344 27.77344 h 18.58203 18.58399 l 2.13867,2.54102 c 2.68883,3.19551 3.56733,7.71099 2.36719,12.16796 -1.5937,5.91851 -2.358,6.1211 -23.20508,6.1211 H 141 v 27.77344 27.77343 h 19.07422 19.07422 l 1.53906,2.34766 c 1.12213,1.71259 1.53906,4.081746 1.53906,8.753906 0,9.83451 0.25375,9.72656 -22.66211,9.72656 H 141 v 12.466795 c 2e-5,14.20606 0.75487,19.267171 4.01367,26.863281 3.0248,11.19099 8.83072,16.049343 16.94141,21.570313 l 6.25586,2.970703 c 11.97638,5.68753 8.93421,5.530215 108.26172,5.546875 86.72022,0.0145 90.14331,-0.0455 96.60937,-1.699219 9.55614,-2.44405 16.47538,-6.388256 23.5918,-13.447266 4.40476,-4.36923 7.05763,-7.950248 9.34179,-12.611328 5.97454,-12.19159 5.74107,-7.095148 5.75782,-124.73242 l 0.01,-67.6582 h -0.19726 l -0.25,-50.61133 c 0,0 -1.76735,-5.44755 -2.87891,-8.49609 -5.21285,-14.29674 -16.91112,-25.49045 -32.14453,-30.75586 l -5.75024,-1.98633 h -94.60156 z m 142.81836,72.31445 c 5.09519,-0.002 11.0158,0.88279 15.99024,2.58985 12.87907,4.41974 22.00023,13.5389 26.41992,26.41797 3.05187,8.89311 3.48448,20.65046 0.9414,25.54687 -0.378,0.72772 -19.70948,20.31948 -42.95898,43.53711 -38.33951,38.28686 -42.49978,42.32613 -44.72852,43.43359 -12.05522,5.99036 -41.10785,16.191236 -58.59765,20.574216 -7.57527,1.89842 -12.88348,2.66642 -14.74024,2.13477 -2.09129,-0.59875 -2.25305,-3.03532 -0.71679,-10.820306 2.87471,-14.5674 15.07666,-50.40721 21.71679,-63.78516 1.29865,-2.61639 3.43241,-4.82104 43.58008,-45.02344 23.21783,-23.2495 42.80935,-42.58081 43.53711,-42.95898 2.13017,-1.10636 5.59375,-1.64449 9.55664,-1.64649 z m 6.14453,12.64453 a 2.6352526,2.6352526 0 0 0 -1.79687,0.83008 l -78.31641,81.17578 A 2.6352526,2.6352526 0 1 0 254,-157.37647 l 78.31641,-81.17383 a 2.6352526,2.6352526 0 0 0 -1.9961,-4.49024 z m 20.00977,19.4375 a 2.6352526,2.6352526 0 0 0 -1.79688,0.82813 l -78.31836,81.17578 a 2.6354977,2.6354977 0 1 0 3.79297,3.66016 l 78.31836,-81.17578 a 2.6352526,2.6352526 0 0 0 -1.99609,-4.48829 z m -118.85547,69.69141 -0.61914,1.43555 c -1.8273,4.23221 -6.10052,15.73354 -8.71485,23.45508 l -2.97656,8.78515 7.1836,7.19531 c 6.7844,6.79503 7.24305,7.17816 8.31445,6.94922 0.62376,-0.13335 4.96227,-1.56081 9.64062,-3.17187 9.39502,-3.23534 16.61975,-5.93478 20.5,-7.66016 l 2.54102,-1.1289 -1.31055,-1.53125 c -1.62846,-1.90247 -2.72541,-4.77179 -3.05468,-7.98438 -0.21557,-2.1041 -0.34143,-2.41631 -0.86329,-2.14648 -2.16057,1.11727 -6.50712,0.6152 -9.97851,-1.15235 -2.06234,-1.05012 -6.73455,-5.72579 -7.78711,-7.79297 -1.79217,-3.51968 -2.28626,-7.80061 -1.15039,-9.96679 0.27395,-0.52252 -0.036,-0.64742 -2.14258,-0.86328 -3.22928,-0.33083 -6.08374,-1.4287 -8.01758,-3.08399 z"
       id="path43" />
    <path
       id="path36"
       d="m 161.35742,-348 -5.85156,2.27734 c -13.35327,5.19512 -23.18283,13.80604 -28.80859,25.23828 -4.22932,8.59454 -5.6635,16.16718 -5.68165,29.98438 L 121,-279.00195 h 18.20508 18.20703 l 1.53711,2.34765 c 2.12618,3.24522 2.1272,12.88183 0.002,16.13086 l -1.53906,2.35156 H 139.20703 121 v 27.77344 27.77344 h 18.58203 18.58399 l 2.13867,2.54102 c 2.68883,3.19551 3.56733,7.71099 2.36719,12.16796 -1.5937,5.91851 -2.358,6.1211 -23.20508,6.1211 H 121 v 27.77344 27.77343 h 19.07422 19.07422 l 1.53906,2.34766 c 1.12213,1.71259 1.53906,4.08175 1.53906,8.75391 0,9.83451 0.25375,9.72656 -22.66211,9.72656 H 121 v 12.466795 c 2e-5,14.20606 0.75487,19.267171 4.01367,26.863281 3.0248,11.19099 8.83072,16.049343 16.94141,21.570313 l 6.25586,2.970703 c 11.97638,5.68753 8.93421,5.530215 108.26172,5.546875 86.72022,0.0145 90.14331,-0.0455 96.60937,-1.699219 9.55614,-2.44405 16.47538,-6.388256 23.5918,-13.447266 4.40476,-4.36923 7.05763,-7.950248 9.34179,-12.611328 5.97454,-12.19159 5.74107,-7.095148 5.75782,-124.732424 l 0.01,-67.6582 h -0.19726 l -0.25,-50.61133 c 0,0 -1.76735,-5.44755 -2.87891,-8.49609 -5.21285,-14.29674 -16.91112,-25.49045 -32.14453,-30.75586 L 350.5625,-348 h -94.60156 z m 142.81836,72.31445 c 5.09519,-0.002 11.0158,0.88279 15.99024,2.58985 12.87907,4.41974 22.00023,13.5389 26.41992,26.41797 3.05187,8.89311 3.48448,20.65046 0.9414,25.54687 -0.378,0.72772 -19.70948,20.31948 -42.95898,43.53711 -38.33951,38.28686 -42.49978,42.32613 -44.72852,43.43359 -12.05522,5.99036 -41.10785,16.19124 -58.59765,20.57422 -7.57527,1.89842 -12.88348,2.66642 -14.74024,2.13477 -2.09129,-0.59875 -2.25305,-3.03532 -0.71679,-10.82031 2.87471,-14.5674 15.07666,-50.40721 21.71679,-63.78516 1.29865,-2.61639 3.43241,-4.82104 43.58008,-45.02344 23.21783,-23.2495 42.80935,-42.58081 43.53711,-42.95898 2.13017,-1.10636 5.59375,-1.64449 9.55664,-1.64649 z m 6.14453,12.64453 a 2.6352526,2.6352526 0 0 0 -1.79687,0.83008 l -78.31641,81.17578 A 2.6352526,2.6352526 0 1 0 234,-177.37695 l 78.31641,-81.17383 a 2.6352526,2.6352526 0 0 0 -1.9961,-4.49024 z m 20.00977,19.4375 a 2.6352526,2.6352526 0 0 0 -1.79688,0.82813 l -78.31836,81.17578 a 2.6354977,2.6354977 0 1 0 3.79297,3.66016 l 78.31836,-81.17578 a 2.6352526,2.6352526 0 0 0 -1.99609,-4.48829 z m -118.85547,69.69141 -0.61914,1.43555 c -1.8273,4.23221 -6.10052,15.73354 -8.71485,23.45508 l -2.97656,8.78515 7.1836,7.19531 c 6.7844,6.79503 7.24305,7.17816 8.31445,6.94922 0.62376,-0.13335 4.96227,-1.56081 9.64062,-3.17187 9.39502,-3.23534 16.61975,-5.93478 20.5,-7.66016 l 2.54102,-1.1289 -1.31055,-1.53125 c -1.62846,-1.90247 -2.72541,-4.77179 -3.05468,-7.98438 -0.21557,-2.1041 -0.34143,-2.41631 -0.86329,-2.14648 -2.16057,1.11727 -6.50712,0.6152 -9.97851,-1.15235 -2.06234,-1.05012 -6.73455,-5.72579 -7.78711,-7.79297 -1.79217,-3.51968 -2.28626,-7.80061 -1.15039,-9.96679 0.27395,-0.52252 -0.036,-0.64742 -2.14258,-0.86328 -3.22928,-0.33083 -6.08374,-1.4287 -8.01758,-3.08399 z"
       style="fill:#ffffff;stroke-width:0.86791039"
       inkscape:connector-curvature="0" />
  </g>
</svg>
