<?xml version="1.0" encoding="UTF-8" standalone="no"?>
<svg
   xmlns:dc="http://purl.org/dc/elements/1.1/"
   xmlns:cc="http://creativecommons.org/ns#"
   xmlns:rdf="http://www.w3.org/1999/02/22-rdf-syntax-ns#"
   xmlns:svg="http://www.w3.org/2000/svg"
   xmlns="http://www.w3.org/2000/svg"
   xmlns:sodipodi="http://sodipodi.sourceforge.net/DTD/sodipodi-0.dtd"
   xmlns:inkscape="http://www.inkscape.org/namespaces/inkscape"
   viewBox="0 0 64 64"
   version="1.1"
   id="svg6"
   sodipodi:docname="view-file-columns.svg"
   width="64"
   height="64"
   inkscape:version="0.92.2 5c3e80d, 2017-08-06">
  <metadata
     id="metadata10">
    <rdf:RDF>
      <cc:Work
         rdf:about="">
        <dc:format>image/svg+xml</dc:format>
        <dc:type
           rdf:resource="http://purl.org/dc/dcmitype/StillImage" />
        <dc:title></dc:title>
      </cc:Work>
    </rdf:RDF>
  </metadata>
  <sodipodi:namedview
     pagecolor="#ffffff"
     bordercolor="#666666"
     borderopacity="1"
     objecttolerance="10"
     gridtolerance="10"
     guidetolerance="10"
     inkscape:pageopacity="0"
     inkscape:pageshadow="2"
     inkscape:window-width="1366"
     inkscape:window-height="717"
     id="namedview8"
     showgrid="false"
     showguides="false"
     inkscape:zoom="0.43457604"
     inkscape:cx="172.62673"
     inkscape:cy="171.22266"
     inkscape:window-x="0"
     inkscape:window-y="24"
     inkscape:window-maximized="1"
     inkscape:current-layer="svg6" />
  <defs
     id="defs3051">
    <style
       type="text/css"
       id="current-color-scheme">
      .ColorScheme-Text {
        color:#4d4d4d;
      }
      </style>
  </defs>
  <g
     id="g870"
     transform="matrix(0.125,0,0,0.125,-1.576692e-8,56)">
    <path
       style="fill:#3689e6;fill-opacity:1;stroke-width:11.10955811"
       inkscape:connector-curvature="0"
       d="m 432.91327,-391.52604 c 102.19291,88.57459 105.82678,249.69971 8.1168,359.898794 C 343.3201,78.571824 181.27964,96.100624 79.086729,7.5260143 -23.106186,-81.048576 -26.740042,-242.1737 70.969928,-352.37278 168.6799,-462.57186 330.72036,-480.10063 432.91327,-391.52604 Z"
       id="path27" />
    <path
       style="opacity:1;fill:#000000;fill-opacity:0.49019608;stroke-width:11.10955811"
       inkscape:connector-curvature="0"
       d="m 511.63551,-223.09649 c -1.55139,61.31165 -25.16123,124.154614 -70.96638,175.814474 C 342.95915,62.917124 180.91869,80.445824 78.725776,-8.1287157 30.827124,-49.644366 4.4968216,-107.07717 0.19382772,-167.7712 0.79907938,-101.41453 27.117411,-37.517826 79.078682,7.5190643 181.27159,96.093624 343.31975,78.556224 441.02202,-31.634236 490.72697,-87.692346 514.02704,-156.9252 511.63551,-223.09649 Z"
       id="path51" />
    <g
       style="fill:#000000;fill-opacity:0.49019608"
       transform="translate(20,20)"
       id="g858">
      <path
         inkscape:connector-curvature="0"
         id="path852"
         d="m 232.47852,-329.64648 c -12.38766,0 -22.36133,9.97172 -22.36133,22.35937 v 248.925782 c 0,12.387654 9.97367,22.361328 22.36133,22.361328 h 47.04296 c 12.38766,0 22.36133,-9.973674 22.36133,-22.361328 V -307.28711 c 0,-12.38765 -9.97367,-22.35937 -22.36133,-22.35937 z m 13.30664,18.35156 h 20.42968 c 9.59196,0 17.31446,7.72249 17.31446,17.31445 v 222.314454 c 0,9.591957 -7.7225,17.3125 -17.31446,17.3125 h -20.42968 c -9.59196,0 -17.31446,-7.720543 -17.31446,-17.3125 V -293.98047 c 0,-9.59196 7.7225,-17.31445 17.31446,-17.31445 z"
         style="opacity:1;fill:#000000;fill-opacity:0.49019608;stroke:none;stroke-width:1.88976383;stroke-linecap:butt;stroke-linejoin:miter;stroke-miterlimit:4;stroke-dasharray:none;stroke-dashoffset:0;stroke-opacity:1" />
      <rect
         ry="22.360386"
         y="-329.64706"
         x="100"
         height="293.64706"
         width="91.764702"
         id="rect854"
         style="opacity:1;fill:#000000;fill-opacity:0.49019608;stroke:none;stroke-width:1.88976383;stroke-linecap:butt;stroke-linejoin:miter;stroke-miterlimit:4;stroke-dasharray:none;stroke-dashoffset:0;stroke-opacity:1" />
      <rect
         style="opacity:1;fill:#000000;fill-opacity:0.49019608;stroke:none;stroke-width:1.88976383;stroke-linecap:butt;stroke-linejoin:miter;stroke-miterlimit:4;stroke-dasharray:none;stroke-dashoffset:0;stroke-opacity:1"
         id="rect856"
         width="91.764702"
         height="293.64706"
         x="320.23529"
         y="-329.64706"
         ry="22.360386" />
    </g>
    <g
       id="g850">
      <path
         style="opacity:1;fill:#ffffff;fill-opacity:1;stroke:none;stroke-width:1.88976383;stroke-linecap:butt;stroke-linejoin:miter;stroke-miterlimit:4;stroke-dasharray:none;stroke-dashoffset:0;stroke-opacity:1"
         d="m 232.47852,-329.64648 c -12.38766,0 -22.36133,9.97172 -22.36133,22.35937 v 248.925782 c 0,12.387654 9.97367,22.361328 22.36133,22.361328 h 47.04296 c 12.38766,0 22.36133,-9.973674 22.36133,-22.361328 V -307.28711 c 0,-12.38765 -9.97367,-22.35937 -22.36133,-22.35937 z m 13.30664,18.35156 h 20.42968 c 9.59196,0 17.31446,7.72249 17.31446,17.31445 v 222.314454 c 0,9.591957 -7.7225,17.3125 -17.31446,17.3125 h -20.42968 c -9.59196,0 -17.31446,-7.720543 -17.31446,-17.3125 V -293.98047 c 0,-9.59196 7.7225,-17.31445 17.31446,-17.31445 z"
         id="rect842"
         inkscape:connector-curvature="0" />
      <rect
         style="opacity:1;fill:#ffffff;fill-opacity:1;stroke:none;stroke-width:1.88976383;stroke-linecap:butt;stroke-linejoin:miter;stroke-miterlimit:4;stroke-dasharray:none;stroke-dashoffset:0;stroke-opacity:1"
         id="rect30"
         width="91.764702"
         height="293.64706"
         x="100"
         y="-329.64706"
         ry="22.360386" />
      <rect
         ry="22.360386"
         y="-329.64706"
         x="320.23529"
         height="293.64706"
         width="91.764702"
         id="rect840"
         style="opacity:1;fill:#ffffff;fill-opacity:1;stroke:none;stroke-width:1.88976383;stroke-linecap:butt;stroke-linejoin:miter;stroke-miterlimit:4;stroke-dasharray:none;stroke-dashoffset:0;stroke-opacity:1" />
    </g>
  </g>
</svg>
