<?xml version="1.0" encoding="UTF-8" standalone="no"?>
<svg
   xmlns:dc="http://purl.org/dc/elements/1.1/"
   xmlns:cc="http://creativecommons.org/ns#"
   xmlns:rdf="http://www.w3.org/1999/02/22-rdf-syntax-ns#"
   xmlns:svg="http://www.w3.org/2000/svg"
   xmlns="http://www.w3.org/2000/svg"
   xmlns:sodipodi="http://sodipodi.sourceforge.net/DTD/sodipodi-0.dtd"
   xmlns:inkscape="http://www.inkscape.org/namespaces/inkscape"
   viewBox="0 0 64 64"
   version="1.1"
   id="svg6"
   sodipodi:docname="view-calendar-wedding-anniversary.svg"
   width="64"
   height="64"
   inkscape:version="0.92.2 5c3e80d, 2017-08-06">
  <metadata
     id="metadata10">
    <rdf:RDF>
      <cc:Work
         rdf:about="">
        <dc:format>image/svg+xml</dc:format>
        <dc:type
           rdf:resource="http://purl.org/dc/dcmitype/StillImage" />
        <dc:title></dc:title>
      </cc:Work>
    </rdf:RDF>
  </metadata>
  <sodipodi:namedview
     pagecolor="#ffffff"
     bordercolor="#666666"
     borderopacity="1"
     objecttolerance="10"
     gridtolerance="10"
     guidetolerance="10"
     inkscape:pageopacity="0"
     inkscape:pageshadow="2"
     inkscape:window-width="1366"
     inkscape:window-height="717"
     id="namedview8"
     showgrid="false"
     inkscape:zoom="0.86915209"
     inkscape:cx="189.43459"
     inkscape:cy="244.10589"
     inkscape:window-x="0"
     inkscape:window-y="24"
     inkscape:window-maximized="1"
     inkscape:current-layer="svg6" />
  <defs
     id="defs3051">
    <style
       type="text/css"
       id="current-color-scheme">
      .ColorScheme-Text {
        color:#4d4d4d;
      }
      </style>
  </defs>
  <g
     id="g881"
     transform="matrix(0.125,0,0,0.125,1.2309213e-7,56)">
    <path
       id="path842"
       d="m 432.91328,-391.52602 c 102.1929,88.57458 105.82676,249.6997 8.1168,359.898779 C 343.3201,78.57184 181.27963,96.100608 79.086725,7.5260234 -23.10618,-81.048569 -26.740045,-242.17368 70.969925,-352.37276 168.67989,-462.57184 330.72037,-480.10062 432.91328,-391.52602 Z"
       inkscape:connector-curvature="0"
       style="fill:#3689e6;fill-opacity:1;stroke-width:11.10955715" />
    <path
       id="path845"
       d="m 511.6355,-223.09648 c -1.55138,61.31165 -25.16122,124.154615 -70.96637,175.814471 C 342.95916,62.917112 180.91868,80.44584 78.725781,-8.1287047 30.827148,-49.644361 4.4968425,-107.07716 0.19385041,-167.77119 0.79910394,-101.41452 27.117428,-37.517825 79.078676,7.5190634 181.27161,96.093616 343.31976,78.556192 441.02202,-31.634233 490.72697,-87.692337 514.02704,-156.92519 511.6355,-223.09648 Z"
       inkscape:connector-curvature="0"
       style="opacity:1;fill:#000000;fill-opacity:0.49019608;stroke-width:11.10955715" />
    <g
       style="fill:#000000;fill-opacity:0.49019608"
       transform="translate(20.000039,19.999975)"
       id="g871">
      <path
         sodipodi:nodetypes="ccscccccccccccccccscccccccccscccccsccscccsccscccccccccccccscccccccccccccccscc"
         style="fill:#000000;fill-opacity:0.49019608;stroke-width:0.39013535"
         d="m 106.6532,-38.667441 c -2.35457,-0.831304 -5.17822,-3.719016 -6.00276,-6.139008 -0.60224,-1.767464 -0.650479,-11.947584 -0.650479,-137.396831 0,-134.38688 0.0076,-135.5048 0.777759,-137.56664 0.91057,-2.43364 2.97986,-4.601 5.46444,-5.72333 1.65956,-0.7496 2.52597,-0.79352 15.83921,-0.8016 l 14.08362,-0.008 -0.0224,9.26573 c -0.0264,9.7781 0.35072,12.8462 2.12315,17.3429 2.64529,6.71114 8.45789,11.86615 15.57411,13.81221 4.03902,1.10452 10.6597,0.94029 14.63009,-0.3628 8.60644,-2.82487 13.52652,-8.29275 15.87364,-17.64091 0.79664,-3.17288 0.87421,-4.36849 0.84087,-12.95622 l -0.0376,-9.4608 h 69.4527 69.45291 l -0.26496,6.53477 c -0.3024,7.45205 0.16216,13.38885 1.36528,17.45857 2.4816,8.39351 8.30661,14.2466 16.34117,16.41997 3.11357,0.84223 9.83565,0.9537 12.87446,0.21352 6.78271,-1.65218 12.85078,-6.33142 15.41896,-11.88997 2.71166,-5.86904 3.51961,-11.46403 3.14964,-21.81188 l -0.24752,-6.92493 14.15006,0.008 c 13.38485,0.008 14.24504,0.0512 15.90568,0.80235 2.14908,0.97168 4.08235,2.77214 5.20347,4.84604 l 0.84363,1.56057 0.0998,136.14746 c 0.11224,153.408157 0.42952,138.405885 -2.99815,141.833541 -3.44757,3.447568 12.89265,3.115424 -151.56718,3.080728 -131.56222,-0.0264 -146.10954,-0.09112 -147.67336,-0.64328 z m 275.60972,-20.921048 c 2.3495,-1.0964 4.5328,-3.41544 5.41528,-5.751992 0.6,-1.588488 0.64096,-9.27624 0.54288,-101.982799 -0.1024,-96.86097 -0.1308,-100.31433 -0.83196,-101.72504 -1.08091,-2.1744 -3.55151,-4.44219 -5.59977,-5.14012 -1.63674,-0.55768 -13.89559,-0.61712 -127.31616,-0.61712 -136.89588,0 -127.02617,-0.1644 -130.08412,2.16795 -0.7444,0.56776 -1.87657,2.08659 -2.52967,3.39355 l -1.1822,2.36584 0.008,100.10495 c 0.008,99.828133 0.0112,100.109821 0.80232,101.860573 1.28662,2.845568 3.7011,4.99608 6.59917,5.877616 0.53784,0.16368 57.50846,0.31064 126.60143,0.32728 l 125.6236,0.0304 1.95069,-0.910304 z M 156.85617,-294.34666 c -3.98816,-0.93963 -8.4576,-4.70306 -10.28599,-8.66116 l -1.11942,-2.42336 v -16.58895 -16.58895 l 1.26826,-2.52772 c 0.69752,-1.39019 1.68541,-2.99508 2.19523,-3.56644 4.43047,-4.96483 11.29213,-6.60664 17.60383,-4.21212 3.21543,1.21988 7.10392,5.08456 8.42358,8.37199 l 0.93967,2.34081 v 16.19063 c 0,16.03204 -0.008,16.21258 -0.90535,18.4326 -1.05377,2.60953 -4.09674,6.1194 -6.5537,7.55925 -3.21623,1.88484 -7.8333,2.55284 -11.56611,1.67342 z m 187.28114,-0.12736 c -2.63765,-0.762 -4.93708,-2.21566 -7.00977,-4.43153 -4.10329,-4.38675 -4.30515,-5.56815 -4.14788,-24.27665 0.12472,-14.81746 0.13872,-15.05183 1.06586,-17.36104 0.68152,-1.69772 1.64614,-3.04724 3.51122,-4.91236 3.46613,-3.4661 5.83952,-4.42516 10.9595,-4.42852 3.37424,-10e-4 3.936,0.1092 6.27087,1.24268 3.12911,1.5191 6.22114,4.6541 7.69754,7.8046 l 1.05177,2.24428 v 16.58896 16.58898 l -1.24638,2.5318 c -1.56922,3.1875 -4.29014,5.92958 -7.40583,7.46343 -1.97208,0.97085 -3.01671,1.21704 -5.66109,1.33417 -2.00485,0.0888 -3.94636,-0.06 -5.08581,-0.3888 z"
         id="path867"
         inkscape:connector-curvature="0" />
      <path
         sodipodi:nodetypes="ssscssscsccscsscccsscsccccscsc"
         inkscape:connector-curvature="0"
         id="path869"
         class="ColorScheme-Text"
         d="m 226.75,-231 c -37.8105,0 -68.25,30.43951 -68.25,68.25 0,37.8105 30.4395,68.250001 68.25,68.250001 10.52243,0 20.3665,-2.523475 29.25,-6.741211 8.8835,4.217736 18.72757,6.741211 29.25001,6.741211 37.8105,0 68.25,-30.439501 68.25,-68.250001 0,-37.81049 -30.4395,-68.25 -68.25,-68.25 -10.52244,0 -20.36651,2.52349 -29.25001,6.74121 C 247.1165,-228.47651 237.27243,-231 226.75,-231 Z m 0,19.5 c 3.35014,0 6.63144,0.35256 9.78808,0.99021 C 224.48281,-198.21293 217,-181.41056 217,-162.75002 c 0,18.66055 7.48281,35.46296 19.53808,47.75977 -3.15664,0.63765 -6.43794,0.99021 -9.78808,0.99021 -27.0075,0 -48.75,-21.7425 -48.75,-48.75 0,-27.0075 21.7425,-48.75 48.75,-48.75 z m 58.50001,0 c 27.0075,0 48.75,21.7425 48.75,48.75 0,27.0075 -21.7425,48.75 -48.75,48.75 -3.35012,0 -6.63143,-0.35256 -9.78809,-0.99021 12.05527,-12.29685 19.53809,-29.09922 19.53809,-47.75977 0,-18.66054 -7.48282,-35.46294 -19.53809,-47.75976 3.15666,-0.63766 6.43797,-0.99021 9.78809,-0.99021 z M 256,-201.59766 c 11.79738,8.88137 19.5,22.8781 19.5,38.84766 0,15.96957 -7.70262,29.96633 -19.5,38.84767 -11.79738,-8.88139 -19.5,-22.8781 -19.5,-38.84767 0,-15.96956 7.70262,-29.96633 19.5,-38.84766 z"
         style="color:#4d4d4d;fill:#000000;fill-opacity:0.49019608;stroke:none;stroke-width:19.5" />
    </g>
    <g
       id="g865">
      <path
         inkscape:connector-curvature="0"
         id="path849"
         d="m 106.6532,-38.667441 c -2.35457,-0.831304 -5.17822,-3.719016 -6.00276,-6.139008 -0.60224,-1.767464 -0.650479,-11.947584 -0.650479,-137.396831 0,-134.38688 0.0076,-135.5048 0.777759,-137.56664 0.91057,-2.43364 2.97986,-4.601 5.46444,-5.72333 1.65956,-0.7496 2.52597,-0.79352 15.83921,-0.8016 l 14.08362,-0.008 -0.0224,9.26573 c -0.0264,9.7781 0.35072,12.8462 2.12315,17.3429 2.64529,6.71114 8.45789,11.86615 15.57411,13.81221 4.03902,1.10452 10.6597,0.94029 14.63009,-0.3628 8.60644,-2.82487 13.52652,-8.29275 15.87364,-17.64091 0.79664,-3.17288 0.87421,-4.36849 0.84087,-12.95622 l -0.0376,-9.4608 h 69.4527 69.45291 l -0.26496,6.53477 c -0.3024,7.45205 0.16216,13.38885 1.36528,17.45857 2.4816,8.39351 8.30661,14.2466 16.34117,16.41997 3.11357,0.84223 9.83565,0.9537 12.87446,0.21352 6.78271,-1.65218 12.85078,-6.33142 15.41896,-11.88997 2.71166,-5.86904 3.51961,-11.46403 3.14964,-21.81188 l -0.24752,-6.92493 14.15006,0.008 c 13.38485,0.008 14.24504,0.0512 15.90568,0.80235 2.14908,0.97168 4.08235,2.77214 5.20347,4.84604 l 0.84363,1.56057 0.0998,136.14746 c 0.11224,153.408157 0.42952,138.405885 -2.99815,141.833541 -3.44757,3.447568 12.89265,3.115424 -151.56718,3.080728 -131.56222,-0.0264 -146.10954,-0.09112 -147.67336,-0.64328 z m 275.60972,-20.921048 c 2.3495,-1.0964 4.5328,-3.41544 5.41528,-5.751992 0.6,-1.588488 0.64096,-9.27624 0.54288,-101.982799 -0.1024,-96.86097 -0.1308,-100.31433 -0.83196,-101.72504 -1.08091,-2.1744 -3.55151,-4.44219 -5.59977,-5.14012 -1.63674,-0.55768 -13.89559,-0.61712 -127.31616,-0.61712 -136.89588,0 -127.02617,-0.1644 -130.08412,2.16795 -0.7444,0.56776 -1.87657,2.08659 -2.52967,3.39355 l -1.1822,2.36584 0.008,100.10495 c 0.008,99.828133 0.0112,100.109821 0.80232,101.860573 1.28662,2.845568 3.7011,4.99608 6.59917,5.877616 0.53784,0.16368 57.50846,0.31064 126.60143,0.32728 l 125.6236,0.0304 1.95069,-0.910304 z M 156.85617,-294.34666 c -3.98816,-0.93963 -8.4576,-4.70306 -10.28599,-8.66116 l -1.11942,-2.42336 v -16.58895 -16.58895 l 1.26826,-2.52772 c 0.69752,-1.39019 1.68541,-2.99508 2.19523,-3.56644 4.43047,-4.96483 11.29213,-6.60664 17.60383,-4.21212 3.21543,1.21988 7.10392,5.08456 8.42358,8.37199 l 0.93967,2.34081 v 16.19063 c 0,16.03204 -0.008,16.21258 -0.90535,18.4326 -1.05377,2.60953 -4.09674,6.1194 -6.5537,7.55925 -3.21623,1.88484 -7.8333,2.55284 -11.56611,1.67342 z m 187.28114,-0.12736 c -2.63765,-0.762 -4.93708,-2.21566 -7.00977,-4.43153 -4.10329,-4.38675 -4.30515,-5.56815 -4.14788,-24.27665 0.12472,-14.81746 0.13872,-15.05183 1.06586,-17.36104 0.68152,-1.69772 1.64614,-3.04724 3.51122,-4.91236 3.46613,-3.4661 5.83952,-4.42516 10.9595,-4.42852 3.37424,-10e-4 3.936,0.1092 6.27087,1.24268 3.12911,1.5191 6.22114,4.6541 7.69754,7.8046 l 1.05177,2.24428 v 16.58896 16.58898 l -1.24638,2.5318 c -1.56922,3.1875 -4.29014,5.92958 -7.40583,7.46343 -1.97208,0.97085 -3.01671,1.21704 -5.66109,1.33417 -2.00485,0.0888 -3.94636,-0.06 -5.08581,-0.3888 z"
         style="fill:#ffffff;stroke-width:0.39013535"
         sodipodi:nodetypes="ccscccccccccccccccscccccccccscccccsccscccsccscccccccccccccscccccccccccccccscc" />
      <path
         style="color:#4d4d4d;fill:#ffffff;fill-opacity:1;stroke:none;stroke-width:19.5"
         d="m 226.75,-231 c -37.8105,0 -68.25,30.43951 -68.25,68.25 0,37.8105 30.4395,68.250001 68.25,68.250001 10.52243,0 20.3665,-2.523475 29.25,-6.741211 8.8835,4.217736 18.72757,6.741211 29.25001,6.741211 37.8105,0 68.25,-30.439501 68.25,-68.250001 0,-37.81049 -30.4395,-68.25 -68.25,-68.25 -10.52244,0 -20.36651,2.52349 -29.25001,6.74121 C 247.1165,-228.47651 237.27243,-231 226.75,-231 Z m 0,19.5 c 3.35014,0 6.63144,0.35256 9.78808,0.99021 C 224.48281,-198.21293 217,-181.41056 217,-162.75002 c 0,18.66055 7.48281,35.46296 19.53808,47.75977 -3.15664,0.63765 -6.43794,0.99021 -9.78808,0.99021 -27.0075,0 -48.75,-21.7425 -48.75,-48.75 0,-27.0075 21.7425,-48.75 48.75,-48.75 z m 58.50001,0 c 27.0075,0 48.75,21.7425 48.75,48.75 0,27.0075 -21.7425,48.75 -48.75,48.75 -3.35012,0 -6.63143,-0.35256 -9.78809,-0.99021 12.05527,-12.29685 19.53809,-29.09922 19.53809,-47.75977 0,-18.66054 -7.48282,-35.46294 -19.53809,-47.75976 3.15666,-0.63766 6.43797,-0.99021 9.78809,-0.99021 z M 256,-201.59766 c 11.79738,8.88137 19.5,22.8781 19.5,38.84766 0,15.96957 -7.70262,29.96633 -19.5,38.84767 -11.79738,-8.88139 -19.5,-22.8781 -19.5,-38.84767 0,-15.96956 7.70262,-29.96633 19.5,-38.84766 z"
         class="ColorScheme-Text"
         id="path4"
         inkscape:connector-curvature="0"
         sodipodi:nodetypes="ssscssscsccscsscccsscsccccscsc" />
    </g>
  </g>
</svg>
