<?xml version="1.0" encoding="UTF-8" standalone="no"?>
<svg
   xmlns:dc="http://purl.org/dc/elements/1.1/"
   xmlns:cc="http://creativecommons.org/ns#"
   xmlns:rdf="http://www.w3.org/1999/02/22-rdf-syntax-ns#"
   xmlns:svg="http://www.w3.org/2000/svg"
   xmlns="http://www.w3.org/2000/svg"
   xmlns:sodipodi="http://sodipodi.sourceforge.net/DTD/sodipodi-0.dtd"
   xmlns:inkscape="http://www.inkscape.org/namespaces/inkscape"
   viewBox="0 0 64 64"
   version="1.1"
   id="svg6"
   sodipodi:docname="view-readermode.svg"
   width="64"
   height="64"
   inkscape:version="0.92.2 5c3e80d, 2017-08-06">
  <metadata
     id="metadata10">
    <rdf:RDF>
      <cc:Work
         rdf:about="">
        <dc:format>image/svg+xml</dc:format>
        <dc:type
           rdf:resource="http://purl.org/dc/dcmitype/StillImage" />
        <dc:title></dc:title>
      </cc:Work>
    </rdf:RDF>
  </metadata>
  <sodipodi:namedview
     pagecolor="#ffffff"
     bordercolor="#666666"
     borderopacity="1"
     objecttolerance="10"
     gridtolerance="10"
     guidetolerance="10"
     inkscape:pageopacity="0"
     inkscape:pageshadow="2"
     inkscape:window-width="1366"
     inkscape:window-height="717"
     id="namedview8"
     showgrid="false"
     inkscape:zoom="0.32593203"
     inkscape:cx="705.69615"
     inkscape:cy="501.28137"
     inkscape:window-x="0"
     inkscape:window-y="24"
     inkscape:window-maximized="1"
     inkscape:current-layer="svg6" />
  <defs
     id="defs3051">
    <style
       type="text/css"
       id="current-color-scheme">
      .ColorScheme-Text {
        color:#4d4d4d;
      }
      </style>
  </defs>
  <g
     id="g841"
     transform="matrix(0.125,0,0,0.125,-9.3957912e-8,56.000069)">
    <path
       id="path881"
       d="m 432.91329,-391.52595 c 102.19291,88.57459 105.82677,249.69971 8.1168,359.89879 C 343.32012,78.5719 181.27964,96.1007 79.086727,7.5261 -23.106181,-81.04849 -26.740046,-242.17361 70.969927,-352.37269 168.6799,-462.57177 330.72038,-480.10054 432.91329,-391.52595 Z"
       inkscape:connector-curvature="0"
       style="fill:#3689e6;fill-opacity:1;stroke-width:11.10955811" />
    <path
       id="path883"
       d="m 511.63551,-223.0964 c -1.5514,61.31166 -25.16123,124.1546 -70.96638,175.81449 C 342.95916,62.9172 180.91869,80.4459 78.72578,-8.12865 30.827126,-49.64428 4.496824,-107.07709 0.19383011,-167.77113 0.79908167,-101.41445 27.117413,-37.51773 79.078684,7.51912 181.2716,96.0937 343.31975,78.5563 441.02203,-31.63414 c 49.70494,-56.05814 73.00502,-125.29097 70.61348,-191.46226 z"
       inkscape:connector-curvature="0"
       style="opacity:1;fill:#000000;fill-opacity:0.49019608;stroke-width:11.10955811" />
    <path
       style="color:#4d4d4d;fill:#000000;fill-opacity:0.49019608;stroke:none;stroke-width:19.496521"
       d="m 217.48708,-264.21696 c -38.99305,0 -58.89568,29.24478 -77.98609,29.24478 -19.09099,0 -19.49652,-9.74826 -19.49652,-9.74826 v 155.97218 c 0,0 -0.81301,9.74826 19.49652,9.74826 20.30894,0 38.99304,-29.24478 77.98609,-29.24478 38.99304,0 58.48956,19.49652 58.48956,19.49652 0,0 19.49653,-19.49652 58.48958,-19.49652 38.99304,0 56.45861,29.24478 77.98609,29.24478 21.52747,0 19.49652,-9.74826 19.49652,-9.74826 v -154.75365 c -0.72332,2.74121 -4.26487,8.52973 -19.49652,8.52973 -20.30895,0 -38.99305,-29.24478 -77.98609,-29.24478 -38.99305,0 -58.48958,19.49652 -58.48958,19.49652 0,0 -19.49652,-19.49652 -58.48956,-19.49652 z"
       class="ColorScheme-Text"
       id="path835"
       inkscape:connector-curvature="0"
       sodipodi:nodetypes="ssccsscssccsscs" />
    <path
       sodipodi:nodetypes="ssccsscssccsscs"
       inkscape:connector-curvature="0"
       id="path4"
       class="ColorScheme-Text"
       d="m 197.48708,-284.21696 c -38.99305,0 -58.89568,29.24478 -77.98609,29.24478 -19.09099,0 -19.49652,-9.74826 -19.49652,-9.74826 v 155.97218 c 0,0 -0.813009,9.74826 19.49652,9.74826 20.30894,0 38.99304,-29.24478 77.98609,-29.24478 38.99304,0 58.48956,19.49652 58.48956,19.49652 0,0 19.49653,-19.49652 58.48958,-19.49652 38.99304,0 56.45861,29.24478 77.98609,29.24478 21.52747,0 19.49652,-9.74826 19.49652,-9.74826 v -154.75365 c -0.72332,2.74121 -4.26487,8.52973 -19.49652,8.52973 -20.30895,0 -38.99305,-29.24478 -77.98609,-29.24478 -38.99305,0 -58.48958,19.49652 -58.48958,19.49652 0,0 -19.49652,-19.49652 -58.48956,-19.49652 z"
       style="color:#4d4d4d;fill:#ffffff;fill-opacity:1;stroke:none;stroke-width:19.496521" />
  </g>
</svg>
