<?xml version="1.0" encoding="UTF-8" standalone="no"?>
<svg
   xmlns:dc="http://purl.org/dc/elements/1.1/"
   xmlns:cc="http://creativecommons.org/ns#"
   xmlns:rdf="http://www.w3.org/1999/02/22-rdf-syntax-ns#"
   xmlns:svg="http://www.w3.org/2000/svg"
   xmlns="http://www.w3.org/2000/svg"
   xmlns:sodipodi="http://sodipodi.sourceforge.net/DTD/sodipodi-0.dtd"
   xmlns:inkscape="http://www.inkscape.org/namespaces/inkscape"
   viewBox="0 0 64 64"
   version="1.1"
   id="svg6"
   sodipodi:docname="view-certificate-server-configure.svg"
   width="64"
   height="64"
   inkscape:version="0.92.2 5c3e80d, 2017-08-06">
  <metadata
     id="metadata10">
    <rdf:RDF>
      <cc:Work
         rdf:about="">
        <dc:format>image/svg+xml</dc:format>
        <dc:type
           rdf:resource="http://purl.org/dc/dcmitype/StillImage" />
        <dc:title></dc:title>
      </cc:Work>
    </rdf:RDF>
  </metadata>
  <sodipodi:namedview
     pagecolor="#ffffff"
     bordercolor="#666666"
     borderopacity="1"
     objecttolerance="10"
     gridtolerance="10"
     guidetolerance="10"
     inkscape:pageopacity="0"
     inkscape:pageshadow="2"
     inkscape:window-width="1366"
     inkscape:window-height="717"
     id="namedview8"
     showgrid="false"
     inkscape:zoom="3.4766083"
     inkscape:cx="102.11916"
     inkscape:cy="9.8730654"
     inkscape:window-x="0"
     inkscape:window-y="24"
     inkscape:window-maximized="1"
     inkscape:current-layer="svg6" />
  <defs
     id="defs3051">
    <style
       type="text/css"
       id="current-color-scheme">
      .ColorScheme-Text {
        color:#4d4d4d;
      }
      </style>
  </defs>
  <g
     id="g839"
     transform="translate(0,40)">
    <path
       style="fill:#8a715e;fill-opacity:1;stroke-width:1.38869476"
       inkscape:connector-curvature="0"
       d="m 54.114159,-32.940755 c 12.774113,11.071824 13.228347,31.2124637 1.0146,44.987349 C 42.915013,25.821478 22.659955,28.012578 9.8858411,16.940752 -2.8882733,5.868928 -3.3425053,-14.271713 8.871241,-28.046597 21.084987,-41.821483 41.340045,-44.012579 54.114159,-32.940755 Z"
       id="path27" />
    <path
       style="opacity:1;fill:#000000;fill-opacity:0.49019608;stroke-width:1.38869476"
       inkscape:connector-curvature="0"
       d="M 63.954439,-11.887061 C 63.760515,-4.223105 60.809285,3.632265 55.083641,10.089748 42.869894,23.86464 22.614836,26.055728 9.840722,14.98391 3.8533905,9.794454 0.56210287,2.6153538 0.02422858,-4.9714 0.09988508,3.3231838 3.3896765,11.310271 9.8848355,16.939883 22.658949,28.011703 42.914969,25.819528 55.127752,12.04572 61.340871,5.038457 64.25338,-3.61565 63.954439,-11.887061 Z"
       id="path51" />
    <path
       sodipodi:nodetypes="ssssssssscccccccccccccccccsccccsssssssccccccccccsssccsccssccsscccscccsscccccscscsscscccscssccccc"
       style="opacity:1;fill:#000000;fill-opacity:0.49019608;stroke:none;stroke-width:0.23622048;stroke-linecap:butt;stroke-linejoin:miter;stroke-miterlimit:4;stroke-dasharray:none;stroke-dashoffset:0;stroke-opacity:1"
       d="M 17.337891,-20 C 16.042975,-20 15,-18.957026 15,-17.662109 V 6.912109 C 15,8.207025 16.042975,9.25 17.337891,9.25 H 51.662109 C 52.957026,9.25 54,8.207025 54,6.912109 V -17.662109 C 54,-18.957026 52.957026,-20 51.662109,-20 Z m 12.689453,2.070313 1.089843,1.166015 1.087891,1.166016 -0.605469,0.566406 -0.607422,0.566406 1.132813,1.212891 1.134766,1.210937 -1.166016,1.089843 -1.166016,1.0898455 -1.132811,-1.2128915 -1.132814,-1.210937 -1.302734,1.21875 -1.304688,1.2187497 0.195313,0.6699225 c 0.400491,1.377705 0.08319,3.052965 -0.806641,4.265625 -0.530965,0.7235563 -0.770783,0.9329313 -1.554686,1.3457025 l 0.0039,0.00195 c -3.32565,1.7699399 -7.296282,-0.683165 -7.169922,-4.4296888 0.111117,-3.2946459 3.211894,-5.4476159 6.398438,-4.4433589 l 0.771484,0.244142 3.066406,-2.867189 z m 5.691406,5.242187 h 12.1875 c 0.675187,0 1.21875,0.543562 1.21875,1.21875 0,0.675187 -0.543563,1.21875 -1.21875,1.21875 h -12.1875 c -0.675188,0 -1.21875,-0.543563 -1.21875,-1.21875 0,-0.675188 0.543562,-1.21875 1.21875,-1.21875 z m -14.152344,3.1953125 c -0.894711,-0.01519 -1.592096,0.6681838 -1.623047,1.634765 -0.01734,0.5139663 0.04221,0.6792788 0.373047,1.0332038 0.61539,0.6583475 1.389211,0.8236112 2.083985,0.4453125 0.343313,-0.1817713 0.6964,-0.6825038 0.785156,-1.1132813 l -0.002,-0.0039 c 0.205675,-0.9574463 -0.451506,-1.866015 -1.435546,-1.984375 -0.06127,-0.0074 -0.121995,-0.010713 -0.181641,-0.011712 z M 35.71875,-7.8125 h 9.75 c 0.675187,0 1.21875,0.5435625 1.21875,1.21875 0,0.6751875 -0.543563,1.21875 -1.21875,1.21875 h -9.75 c -1.819146,-0.6609684 -1.120384,-1.8623006 0,-2.4375 z m 8.425781,3.7851563 c 0.808814,-0.014999 1.81551,0.038004 2.34375,0.1367187 0.82717,0.1545687 1.37559,0.326755 1.992188,0.6269525 0.903474,0.4398638 1.353515,0.9642288 1.353515,1.578125 0,1.463855 -2.855085,2.568235 -6.109375,2.36132875 -2.046211,-0.13009875 -3.911558,-0.927355 -4.34375,-1.85546875 -0.592195,-1.2717075 1.19471,-2.5143337 4.044922,-2.8105463 0.200558,-0.020844 0.449146,-0.03211 0.71875,-0.03711 z m 5.634766,3.26757745 c 0.06315,0 0.10886,1.33927375 0.05664,1.6601575 C 49.598601,2.3586525 46.641685,3.3865225 43.482422,3.1074225 41.515654,2.9336738 39.841262,2.1995425 39.373047,1.3066413 39.247827,1.0678475 39.239099,1.004485 39.222656,0.2734375 c -0.0214,-0.95144 0.01044,-1.04168 0.240235,-0.68359375 0.417921,0.65127125 1.40095,1.151125 2.824218,1.43749995 3.122901,0.6283638 6.615867,-0.1414712 7.369141,-1.62499995 0.04504,-0.08873 0.100696,-0.16211 0.123047,-0.16211 z m 0.0078,2.43359375 c 0.07558,0 0.110641,0.4445225 0.08789,1.115235 -0.02007,0.59156 -0.03706,0.68794 -0.158202,0.9355463 -0.624715,1.2768687 -3.52716,2.1015287 -6.384767,1.8144537 -1.533048,-0.1540125 -2.951608,-0.6769 -3.621093,-1.333985 -0.441719,-0.433535 -0.470113,-0.5227 -0.488282,-1.5527337 -0.01047,-0.5923713 0.002,-0.88086 0.03711,-0.88086 0.02869,0 0.107847,0.089654 0.175782,0.1972662 0.43119,0.6830525 1.554245,1.2536125 3.023436,1.5371088 2.929271,0.5652337 6.358151,-0.18686 7.136719,-1.5664063 0.0826,-0.14636 0.168387,-0.265625 0.191406,-0.265625 z m -0.0039,2.4316413 c 0.08436,0 0.114169,0.3425387 0.0918,1.0820312 -0.02001,0.6614875 -0.03473,0.7513575 -0.150391,0.976562 C 49.320971,6.950055 48.15845,7.55775 46.437507,7.882812 45.71741,8.018822 43.81549,8.057357 43.060555,7.951172 42.425351,7.861822 41.715354,7.700156 41.273445,7.542969 40.34896,7.21413 39.590706,6.679168 39.341805,6.179688 39.218165,5.9315725 39.212899,5.8900363 39.212899,5.0390625 c 0,-0.494155 0.01981,-0.884765 0.04492,-0.884765 0.02471,0 0.103396,0.098565 0.173829,0.21875 0.650501,1.1099937 2.965217,1.8479435 5.490233,1.7499995 2.336553,-0.09063 4.189178,-0.7949245 4.695313,-1.7832033 0.0664,-0.1296637 0.140415,-0.234375 0.166015,-0.2343749 z"
       id="path836"
       inkscape:connector-curvature="0" />
    <path
       sodipodi:nodetypes="ssssssssscccccccccccccccccsccccssssssscccccccccssssssssccssccsscccscccsscccccscscsscscccscssccccc"
       inkscape:connector-curvature="0"
       id="rect34"
       d="M 14.837891,-22.5 C 13.542975,-22.5 12.5,-21.457026 12.5,-20.162109 V 4.412109 C 12.5,5.707025 13.542975,6.75 14.837891,6.75 H 49.162109 C 50.457026,6.75 51.5,5.707025 51.5,4.412109 V -20.162109 C 51.5,-21.457026 50.457026,-22.5 49.162109,-22.5 Z m 12.689453,2.070313 1.089843,1.166015 1.087891,1.166016 -0.605469,0.566406 -0.607422,0.566406 1.132813,1.212891 1.134766,1.210937 -1.166016,1.089843 -1.166016,1.089845 -1.132811,-1.212891 -1.132814,-1.210937 -1.302734,1.21875 -1.304688,1.21875 0.195313,0.669922 c 0.400491,1.377705 0.08319,3.0529652 -0.806641,4.2656252 -0.530965,0.7235563 -0.770783,0.9329313 -1.554686,1.3457026 l 0.0039,0.00195 c -3.32565,1.7699399 -7.296282,-0.683165 -7.169922,-4.4296888 0.111117,-3.294646 3.211894,-5.447616 6.398438,-4.443359 l 0.771484,0.244142 3.066406,-2.867189 z m 5.691406,5.242187 h 12.1875 c 0.675187,0 1.21875,0.543562 1.21875,1.21875 0,0.675187 -0.543563,1.21875 -1.21875,1.21875 H 33.21875 C 32.543562,-12.75 32,-13.293563 32,-13.96875 c 0,-0.675188 0.543562,-1.21875 1.21875,-1.21875 z m -14.152344,3.195312 c -0.894711,-0.01519 -1.592096,0.668184 -1.623047,1.634766 -0.01734,0.5139658 0.04221,0.6792783 0.373047,1.0332032 0.61539,0.6583476 1.389211,0.8236113 2.083985,0.4453125 0.343313,-0.1817712 0.6964,-0.6825037 0.785156,-1.1132812 l -0.002,-0.0039 c 0.205675,-0.9574465 -0.451506,-1.8660155 -1.435546,-1.9843755 -0.06127,-0.0074 -0.121995,-0.01071 -0.181641,-0.01171 z M 33.21875,-10.3125 h 9.75 c 0.675187,0 1.21875,0.5435625 1.21875,1.21875 0,0.6751875 -0.543563,1.21875 -1.21875,1.21875 h -9.75 C 32.543562,-7.875 32,-8.4185625 32,-9.09375 c 0,-0.6751875 0.543562,-1.21875 1.21875,-1.21875 z m 8.425781,3.7851563 c 0.808814,-0.014999 1.81551,0.038004 2.34375,0.1367187 0.82717,0.1545687 1.37559,0.326755 1.992188,0.6269525 0.903474,0.4398638 1.353515,0.9642288 1.353515,1.578125 0,1.463855 -2.855085,2.568235 -6.109375,2.3613288 -2.046211,-0.1300988 -3.911558,-0.927355 -4.34375,-1.8554688 -0.592195,-1.2717075 1.19471,-2.5143337 4.044922,-2.8105463 0.200558,-0.020844 0.449146,-0.03211 0.71875,-0.03711 z m 5.634766,3.2675775 c 0.06315,0 0.10886,1.3392737 0.05664,1.6601575 -0.237336,1.4582612 -3.194252,2.4861312 -6.353515,2.2070312 -1.966768,-0.17374875 -3.64116,-0.90788 -4.109375,-1.8007812 -0.12522,-0.2387938 -0.133948,-0.3021563 -0.150391,-1.0332038 -0.0214,-0.95144 0.01044,-1.04168 0.240235,-0.6835937 0.417921,0.6512712 1.40095,1.151125 2.824218,1.4375 3.122901,0.6283637 6.615867,-0.1414713 7.369141,-1.625 0.04504,-0.08873 0.100696,-0.16211 0.123047,-0.16211 z m 0.0078,2.4335937 c 0.07558,0 0.110641,0.4445225 0.08789,1.115235 -0.02007,0.59156 -0.03706,0.68794 -0.158202,0.9355463 -0.624715,1.2768687 -3.52716,2.1015287 -6.384767,1.8144537 -1.533048,-0.1540125 -2.951608,-0.6769 -3.621093,-1.333985 -0.441719,-0.433535 -0.470113,-0.5227 -0.488282,-1.55273375 -0.01047,-0.59237125 0.002,-0.88086 0.03711,-0.88086 0.02869,0 0.107847,0.0896537 0.175782,0.19726625 0.43119,0.6830525 1.554245,1.2536125 3.023436,1.5371087 2.929271,0.5652338 6.358151,-0.18685995 7.136719,-1.5664062 0.0826,-0.14636 0.168387,-0.265625 0.191406,-0.265625 z m -0.0039,2.4316413 c 0.08436,0 0.114169,0.3425387 0.0918,1.0820312 -0.02001,0.6614875 -0.03473,0.7513575 -0.150391,0.976562 C 46.820971,4.450055 45.65845,5.05775 43.937507,5.382812 43.21741,5.518822 41.31549,5.557357 40.560555,5.451172 39.925351,5.361822 39.215354,5.200156 38.773445,5.042969 37.84896,4.71413 37.090706,4.179168 36.841805,3.679688 36.718165,3.4315725 36.712899,3.3900363 36.712899,2.5390625 c 0,-0.494155 0.01981,-0.884765 0.04492,-0.884765 0.02471,0 0.103396,0.098565 0.173829,0.21875 0.650501,1.1099937 2.965217,1.8479435 5.490233,1.7499995 2.336553,-0.09063 4.189178,-0.7949245 4.695313,-1.7832033 0.0664,-0.1296637 0.140415,-0.234375 0.166015,-0.2343749 z"
       style="opacity:1;fill:#ffffff;fill-opacity:1;stroke:none;stroke-width:0.23622048;stroke-linecap:butt;stroke-linejoin:miter;stroke-miterlimit:4;stroke-dasharray:none;stroke-dashoffset:0;stroke-opacity:1" />
  </g>
</svg>
