<?xml version="1.0" encoding="UTF-8" standalone="no"?>
<svg
   xmlns:dc="http://purl.org/dc/elements/1.1/"
   xmlns:cc="http://creativecommons.org/ns#"
   xmlns:rdf="http://www.w3.org/1999/02/22-rdf-syntax-ns#"
   xmlns:svg="http://www.w3.org/2000/svg"
   xmlns="http://www.w3.org/2000/svg"
   xmlns:sodipodi="http://sodipodi.sourceforge.net/DTD/sodipodi-0.dtd"
   xmlns:inkscape="http://www.inkscape.org/namespaces/inkscape"
   viewBox="0 0 64 64"
   version="1.1"
   id="svg5"
   sodipodi:docname="view-list-details.svg"
   width="64"
   height="64"
   inkscape:version="0.92.2 5c3e80d, 2017-08-06">
  <metadata
     id="metadata9">
    <rdf:RDF>
      <cc:Work
         rdf:about="">
        <dc:format>image/svg+xml</dc:format>
        <dc:type
           rdf:resource="http://purl.org/dc/dcmitype/StillImage" />
        <dc:title></dc:title>
      </cc:Work>
    </rdf:RDF>
  </metadata>
  <sodipodi:namedview
     pagecolor="#ffffff"
     bordercolor="#666666"
     borderopacity="1"
     objecttolerance="10"
     gridtolerance="10"
     guidetolerance="10"
     inkscape:pageopacity="0"
     inkscape:pageshadow="2"
     inkscape:window-width="1366"
     inkscape:window-height="717"
     id="namedview7"
     showgrid="false"
     inkscape:zoom="1.84375"
     inkscape:cx="66.436488"
     inkscape:cy="15.912523"
     inkscape:window-x="0"
     inkscape:window-y="24"
     inkscape:window-maximized="1"
     inkscape:current-layer="svg5" />
  <defs
     id="defs3051">
    <style
       type="text/css"
       id="current-color-scheme">
      .ColorScheme-Text {
        color:#4d4d4d;
      }
      </style>
  </defs>
  <g
     id="g910"
     transform="matrix(0.125,0,0,0.125,2.8323279e-7,56.000001)">
    <path
       id="path1148"
       d="m 432.9132,-391.52603 c 102.1931,88.57459 105.82677,249.69971 8.11688,359.89879 C 343.32022,78.571841 181.27977,96.10061 79.086636,7.52602 -23.106121,-81.04857 -26.740136,-242.17368 70.970101,-352.37277 168.67996,-462.57185 330.72041,-480.10062 432.9132,-391.52603 Z"
       inkscape:connector-curvature="0"
       style="fill:#3689e6;fill-opacity:1;stroke-width:11.10955811" />
    <path
       id="path1150"
       d="m 511.63547,-223.09648 c -1.55116,61.31165 -25.16107,124.15461 -70.9663,175.814474 C 342.95931,62.917114 180.91883,80.445844 78.725691,-8.128708 30.826982,-49.644362 4.4969026,-107.07715 0.19391043,-167.77119 0.7990128,-101.41451 27.117376,-37.517823 79.078699,7.519066 181.27146,96.093618 343.31984,78.556194 441.02218,-31.634232 490.72712,-87.69234 514.02715,-156.92519 511.63547,-223.09648 Z"
       inkscape:connector-curvature="0"
       style="opacity:1;fill:#000000;fill-opacity:0.49019608;stroke-width:11.10955811" />
    <g
       style="fill:#000000;fill-opacity:0.49019608"
       transform="translate(20,20)"
       id="g892">
      <path
         inkscape:connector-curvature="0"
         id="path880"
         d="M 127.61914,-348 C 112.31841,-348 100,-335.68159 100,-320.38086 v 74.76172 C 100,-230.31841 112.31841,-218 127.61914,-218 h 74.76172 C 217.68159,-218 230,-230.31841 230,-245.61914 v -74.76172 C 230,-335.68159 217.68159,-348 202.38086,-348 Z m 7.47656,13 h 59.8086 c 12.24058,0 22.0957,9.85512 22.0957,22.0957 v 59.8086 C 217,-240.85512 207.14488,-231 194.9043,-231 H 135.0957 C 122.85512,-231 113,-240.85512 113,-253.0957 v -59.8086 C 113,-325.14488 122.85512,-335 135.0957,-335 Z"
         style="opacity:1;fill:#000000;fill-opacity:0.49019608;stroke:none;stroke-width:1.88976383;stroke-linecap:butt;stroke-linejoin:miter;stroke-miterlimit:4;stroke-dasharray:none;stroke-dashoffset:0;stroke-opacity:1" />
      <rect
         ry="27.618645"
         y="-166"
         x="100"
         height="130"
         width="130"
         id="rect882"
         style="opacity:1;fill:#000000;fill-opacity:0.49019608;stroke:none;stroke-width:1.88976383;stroke-linecap:butt;stroke-linejoin:miter;stroke-miterlimit:4;stroke-dasharray:none;stroke-dashoffset:0;stroke-opacity:1" />
      <rect
         ry="16.582851"
         y="-322"
         x="256"
         height="33.165703"
         width="155.89569"
         id="rect884"
         style="opacity:1;fill:#000000;fill-opacity:0.49019608;stroke:none;stroke-width:1.88976383;stroke-linecap:butt;stroke-linejoin:miter;stroke-miterlimit:4;stroke-dasharray:none;stroke-dashoffset:0;stroke-opacity:1" />
      <rect
         style="opacity:1;fill:#000000;fill-opacity:0.49019608;stroke:none;stroke-width:1.88976383;stroke-linecap:butt;stroke-linejoin:miter;stroke-miterlimit:4;stroke-dasharray:none;stroke-dashoffset:0;stroke-opacity:1"
         id="rect886"
         width="155.89569"
         height="33.165703"
         x="256"
         y="-277.16571"
         ry="16.582851" />
      <rect
         ry="16.199335"
         y="-95.16571"
         x="256"
         height="33.16571"
         width="104"
         id="rect888"
         style="opacity:1;fill:#000000;fill-opacity:0.49019608;stroke:none;stroke-width:1.88976383;stroke-linecap:butt;stroke-linejoin:miter;stroke-miterlimit:4;stroke-dasharray:none;stroke-dashoffset:0;stroke-opacity:1" />
      <rect
         style="opacity:1;fill:#000000;fill-opacity:0.49019608;stroke:none;stroke-width:1.88976383;stroke-linecap:butt;stroke-linejoin:miter;stroke-miterlimit:4;stroke-dasharray:none;stroke-dashoffset:0;stroke-opacity:1"
         id="rect890"
         width="104"
         height="33.16571"
         x="256"
         y="-140"
         ry="16.199335" />
    </g>
    <g
       id="g878">
      <path
         style="opacity:1;fill:#ffffff;fill-opacity:1;stroke:none;stroke-width:1.88976383;stroke-linecap:butt;stroke-linejoin:miter;stroke-miterlimit:4;stroke-dasharray:none;stroke-dashoffset:0;stroke-opacity:1"
         d="M 127.61914,-348 C 112.31841,-348 100,-335.68159 100,-320.38086 v 74.76172 C 100,-230.31841 112.31841,-218 127.61914,-218 h 74.76172 C 217.68159,-218 230,-230.31841 230,-245.61914 v -74.76172 C 230,-335.68159 217.68159,-348 202.38086,-348 Z m 7.47656,13 h 59.8086 c 12.24058,0 22.0957,9.85512 22.0957,22.0957 v 59.8086 C 217,-240.85512 207.14488,-231 194.9043,-231 H 135.0957 C 122.85512,-231 113,-240.85512 113,-253.0957 v -59.8086 C 113,-325.14488 122.85512,-335 135.0957,-335 Z"
         id="rect862"
         inkscape:connector-curvature="0" />
      <rect
         style="opacity:1;fill:#ffffff;fill-opacity:1;stroke:none;stroke-width:1.88976383;stroke-linecap:butt;stroke-linejoin:miter;stroke-miterlimit:4;stroke-dasharray:none;stroke-dashoffset:0;stroke-opacity:1"
         id="rect53"
         width="130"
         height="130"
         x="100"
         y="-166"
         ry="27.618645" />
      <rect
         style="opacity:1;fill:#ffffff;fill-opacity:1;stroke:none;stroke-width:1.88976383;stroke-linecap:butt;stroke-linejoin:miter;stroke-miterlimit:4;stroke-dasharray:none;stroke-dashoffset:0;stroke-opacity:1"
         id="rect57"
         width="155.89569"
         height="33.165703"
         x="256"
         y="-322"
         ry="16.582851" />
      <rect
         ry="16.582851"
         y="-277.16571"
         x="256"
         height="33.165703"
         width="155.89569"
         id="rect59"
         style="opacity:1;fill:#ffffff;fill-opacity:1;stroke:none;stroke-width:1.88976383;stroke-linecap:butt;stroke-linejoin:miter;stroke-miterlimit:4;stroke-dasharray:none;stroke-dashoffset:0;stroke-opacity:1" />
      <rect
         style="opacity:1;fill:#ffffff;fill-opacity:1;stroke:none;stroke-width:1.88976383;stroke-linecap:butt;stroke-linejoin:miter;stroke-miterlimit:4;stroke-dasharray:none;stroke-dashoffset:0;stroke-opacity:1"
         id="rect63"
         width="104"
         height="33.16571"
         x="256"
         y="-95.16571"
         ry="16.199335" />
      <rect
         ry="16.199335"
         y="-140"
         x="256"
         height="33.16571"
         width="104"
         id="rect65"
         style="opacity:1;fill:#ffffff;fill-opacity:1;stroke:none;stroke-width:1.88976383;stroke-linecap:butt;stroke-linejoin:miter;stroke-miterlimit:4;stroke-dasharray:none;stroke-dashoffset:0;stroke-opacity:1" />
    </g>
  </g>
</svg>
