<?xml version="1.0" encoding="UTF-8" standalone="no"?>
<svg
   xmlns:dc="http://purl.org/dc/elements/1.1/"
   xmlns:cc="http://creativecommons.org/ns#"
   xmlns:rdf="http://www.w3.org/1999/02/22-rdf-syntax-ns#"
   xmlns:svg="http://www.w3.org/2000/svg"
   xmlns="http://www.w3.org/2000/svg"
   xmlns:sodipodi="http://sodipodi.sourceforge.net/DTD/sodipodi-0.dtd"
   xmlns:inkscape="http://www.inkscape.org/namespaces/inkscape"
   viewBox="0 0 64 64"
   version="1.1"
   id="svg8"
   sodipodi:docname="view-pim-tasks-pending.svg"
   width="64"
   height="64"
   inkscape:version="0.92.2 5c3e80d, 2017-08-06">
  <metadata
     id="metadata12">
    <rdf:RDF>
      <cc:Work
         rdf:about="">
        <dc:format>image/svg+xml</dc:format>
        <dc:type
           rdf:resource="http://purl.org/dc/dcmitype/StillImage" />
        <dc:title></dc:title>
      </cc:Work>
    </rdf:RDF>
  </metadata>
  <sodipodi:namedview
     pagecolor="#ffffff"
     bordercolor="#666666"
     borderopacity="1"
     objecttolerance="10"
     gridtolerance="10"
     guidetolerance="10"
     inkscape:pageopacity="0"
     inkscape:pageshadow="2"
     inkscape:window-width="1366"
     inkscape:window-height="717"
     id="namedview10"
     showgrid="false"
     inkscape:zoom="3.4766083"
     inkscape:cx="-33.203595"
     inkscape:cy="46.915137"
     inkscape:window-x="0"
     inkscape:window-y="24"
     inkscape:window-maximized="1"
     inkscape:current-layer="svg8" />
  <defs
     id="defs3051">
    <style
       type="text/css"
       id="current-color-scheme">
      .ColorScheme-Text {
        color:#4d4d4d;
      }
      .ColorScheme-NeutralText {
        color:#f67400;
      }
      </style>
  </defs>
  <g
     id="g860">
    <path
       id="path842"
       d="M 54.114159,7.0592475 C 66.888272,18.131071 67.342505,38.27171 55.128759,52.046595 42.915012,65.82148 22.659954,68.012576 9.8858406,56.940753 -2.8882725,45.868929 -3.3425056,25.72829 8.8712406,11.953405 21.084986,-1.82148 41.340046,-4.0125763 54.114159,7.0592475 Z"
       inkscape:connector-curvature="0"
       style="fill:#c6262e;fill-opacity:1;stroke-width:1.38869464" />
    <path
       id="path845"
       d="M 63.954437,28.11294 C 63.760515,35.776896 60.809285,43.632267 55.083641,50.089749 42.869895,63.864639 22.614835,66.05573 9.8407225,54.983912 3.8533935,49.794455 0.56210533,42.615355 0.02423132,35.028601 0.09988801,43.323185 3.3896785,51.310272 9.8848344,56.939883 22.658951,68.011702 42.91497,65.819524 55.127752,52.045721 61.340871,45.038458 64.25338,36.384351 63.954437,28.11294 Z"
       inkscape:connector-curvature="0"
       style="opacity:1;fill:#000000;fill-opacity:0.49019608;stroke-width:1.38869464" />
    <g
       style="fill:#000000;fill-opacity:0.49019608"
       transform="matrix(0.125,0,0,0.125,2.5000019,58.499998)"
       id="g863">
      <path
         sodipodi:nodetypes="ccscccccccccccccccscccccccccscccccsccscccsccscccccccccccccsczcccccccccccccscc"
         style="fill:#000000;fill-opacity:0.49019608;stroke-width:0.39013538"
         d="m 106.6532,-38.66744 c -2.35457,-0.831307 -5.17822,-3.719018 -6.00276,-6.139011 -0.60227,-1.767458 -0.650455,-11.947578 -0.650455,-137.396829 0,-134.38688 0.0076,-135.50479 0.777745,-137.56663 0.91057,-2.43364 2.97986,-4.60101 5.46444,-5.72334 1.65956,-0.74963 2.52597,-0.79351 15.83921,-0.8016 l 14.08361,-0.008 -0.0227,9.26574 c -0.0265,9.77809 0.35074,12.84619 2.12315,17.34289 2.64529,6.71115 8.4579,11.86616 15.57411,13.81221 4.03903,1.10452 10.6597,0.9403 14.63009,-0.36284 8.60644,-2.82486 13.52652,-8.29274 15.87364,-17.64091 0.79661,-3.17287 0.87421,-4.36849 0.84087,-12.95622 l -0.0378,-9.4608 h 69.45271 69.4529 l -0.26495,6.53477 c -0.30236,7.45206 0.16214,13.38886 1.36528,17.45858 2.4816,8.3935 8.30661,14.24659 16.34117,16.41997 3.11357,0.84223 9.83565,0.95369 12.87446,0.21354 6.78271,-1.65218 12.85078,-6.33142 15.41896,-11.88997 2.71166,-5.86904 3.51961,-11.46403 3.14964,-21.81188 l -0.24756,-6.92493 14.15006,0.008 c 13.38485,0.008 14.24504,0.0514 15.90568,0.80235 2.14908,0.97168 4.08235,2.77214 5.20347,4.84604 l 0.84363,1.56057 0.0998,136.14746 c 0.11225,153.40815 0.4295,138.405882 -2.99815,141.833536 -3.44757,3.447571 12.89265,3.115427 -151.56718,3.080731 -131.56222,-0.02646 -146.10954,-0.09109 -147.67336,-0.643276 z m 275.60972,-20.921047 c 2.3495,-1.0964 4.53279,-3.41544 5.41527,-5.75199 0.6,-1.58849 0.64093,-9.27624 0.54285,-101.982803 -0.10242,-96.86097 -0.13077,-100.31433 -0.83195,-101.72504 -1.08091,-2.1744 -3.55151,-4.44219 -5.59978,-5.14011 -1.63673,-0.55771 -13.89559,-0.61713 -127.31615,-0.61713 -136.89588,0 -127.02617,-0.16441 -130.08412,2.16794 -0.74437,0.56776 -1.87657,2.0866 -2.52967,3.39356 l -1.1822,2.36584 0.008,100.10494 c 0.008,99.828133 0.0113,100.109823 0.80232,101.860573 1.28662,2.84557 3.7011,4.99608 6.59917,5.87762 0.53782,0.16365 57.50846,0.31068 126.60143,0.32731 l 125.6236,0.0302 1.95069,-0.9103 z M 156.85617,-294.34666 c -3.98816,-0.93963 -8.4576,-4.70305 -10.28599,-8.66116 l -1.11942,-2.42336 v -16.58895 -16.58895 l 1.26826,-2.52771 c 0.69755,-1.39019 1.68541,-2.99509 2.19523,-3.56644 4.43047,-4.96483 11.29213,-6.60665 17.60383,-4.21213 3.21543,1.21988 7.10392,5.08456 8.42358,8.37199 l 0.93967,2.34081 v 16.19063 c 0,16.03204 -0.008,16.21259 -0.90535,18.4326 -1.05377,2.60954 -4.09674,6.1194 -6.5537,7.55925 -3.21623,1.88485 -7.8333,2.55284 -11.56611,1.67342 z m 187.28114,-0.12737 c -2.63765,-0.76199 -4.93708,-2.21567 -7.00977,-4.43153 -4.10329,-4.38675 -4.30515,-5.56815 -4.14788,-24.27666 0.12472,-14.81745 0.1387,-15.05182 1.06586,-17.36104 0.68152,-1.69772 1.64614,-3.04724 3.51122,-4.91236 3.46613,-3.46609 5.83952,-4.42515 10.9595,-4.42851 3.37424,-10e-4 3.936,0.10923 6.27087,1.24267 3.12911,1.51911 6.22114,4.65411 7.69754,7.80461 l 1.05177,2.24428 v 16.58895 16.58899 l -1.24638,2.5318 c -1.56922,3.1875 -4.29014,5.92958 -7.40583,7.46343 -1.97208,0.97085 -3.01671,1.21704 -5.66109,1.33417 -2.00485,0.0888 -3.94636,-0.0597 -5.08581,-0.3888 z"
         id="path859"
         inkscape:connector-curvature="0" />
      <path
         inkscape:connector-curvature="0"
         id="path861"
         d="m 225.70785,-92.5939 c -1.85508,-0.811791 -42.46435,-40.27392 -54.60365,-53.06124 -7.73422,-8.14705 -8.07525,-8.60131 -8.31274,-11.0728 -0.16104,-1.67691 0.0399,-3.12837 0.56956,-4.15497 0.94959,-1.83349 9.20493,-11.57151 15.0543,-17.75815 3.95227,-4.18013 4.10813,-4.28062 7.01237,-4.52148 2.80733,-0.23291 3.1178,-0.1291 5.66139,1.89489 1.48011,1.17767 9.2142,8.50507 17.18689,16.28308 7.97265,7.77806 14.98802,14.40538 15.58971,14.72738 2.50752,1.342 3.96336,0.23291 13.41296,-10.21717 5.02489,-5.55692 22.36485,-25.07977 38.53325,-43.38405 16.1684,-18.30427 29.77303,-33.5772 30.23247,-33.93985 1.22036,-0.96321 4.06763,-1.40859 6.31255,-0.98748 1.57527,0.29548 3.49721,1.87279 9.79961,8.04217 11.46391,11.22195 13.2442,13.39656 13.54694,16.54741 0.17348,1.8065 -0.0399,3.13693 -0.70607,4.42773 -1.21742,2.35424 -26.20571,31.15248 -72.97868,84.10569 -26.83614,30.382041 -28.98687,32.683122 -31.09515,33.268701 -2.51231,0.697867 -3.22686,0.670496 -5.21571,-0.200089 z"
         style="fill:#000000;fill-opacity:0.49019608;stroke-width:0.54114634" />
    </g>
    <g
       transform="matrix(0.125,0,0,0.125,-1.7584586e-8,56)"
       id="g857">
      <path
         inkscape:connector-curvature="0"
         id="path849"
         d="m 106.6532,-38.66744 c -2.35457,-0.831307 -5.17822,-3.719018 -6.00276,-6.139011 -0.60227,-1.767458 -0.650455,-11.947578 -0.650455,-137.396829 0,-134.38688 0.0076,-135.50479 0.777745,-137.56663 0.91057,-2.43364 2.97986,-4.60101 5.46444,-5.72334 1.65956,-0.74963 2.52597,-0.79351 15.83921,-0.8016 l 14.08361,-0.008 -0.0227,9.26574 c -0.0265,9.77809 0.35074,12.84619 2.12315,17.34289 2.64529,6.71115 8.4579,11.86616 15.57411,13.81221 4.03903,1.10452 10.6597,0.9403 14.63009,-0.36284 8.60644,-2.82486 13.52652,-8.29274 15.87364,-17.64091 0.79661,-3.17287 0.87421,-4.36849 0.84087,-12.95622 l -0.0378,-9.4608 h 69.45271 69.4529 l -0.26495,6.53477 c -0.30236,7.45206 0.16214,13.38886 1.36528,17.45858 2.4816,8.3935 8.30661,14.24659 16.34117,16.41997 3.11357,0.84223 9.83565,0.95369 12.87446,0.21354 6.78271,-1.65218 12.85078,-6.33142 15.41896,-11.88997 2.71166,-5.86904 3.51961,-11.46403 3.14964,-21.81188 l -0.24756,-6.92493 14.15006,0.008 c 13.38485,0.008 14.24504,0.0514 15.90568,0.80235 2.14908,0.97168 4.08235,2.77214 5.20347,4.84604 l 0.84363,1.56057 0.0998,136.14746 c 0.11225,153.40815 0.4295,138.405882 -2.99815,141.833536 -3.44757,3.447571 12.89265,3.115427 -151.56718,3.080731 -131.56222,-0.02646 -146.10954,-0.09109 -147.67336,-0.643276 z m 275.60972,-20.921047 c 2.3495,-1.0964 4.53279,-3.41544 5.41527,-5.75199 0.6,-1.58849 0.64093,-9.27624 0.54285,-101.982803 -0.10242,-96.86097 -0.13077,-100.31433 -0.83195,-101.72504 -1.08091,-2.1744 -3.55151,-4.44219 -5.59978,-5.14011 -1.63673,-0.55771 -13.89559,-0.61713 -127.31615,-0.61713 -136.89588,0 -127.02617,-0.16441 -130.08412,2.16794 -0.74437,0.56776 -1.87657,2.0866 -2.52967,3.39356 l -1.1822,2.36584 0.008,100.10494 c 0.008,99.828133 0.0113,100.109823 0.80232,101.860573 1.28662,2.84557 3.7011,4.99608 6.59917,5.87762 0.53782,0.16365 57.50846,0.31068 126.60143,0.32731 l 125.6236,0.0302 1.95069,-0.9103 z M 156.85617,-294.34666 c -3.98816,-0.93963 -8.4576,-4.70305 -10.28599,-8.66116 l -1.11942,-2.42336 v -16.58895 -16.58895 l 1.26826,-2.52771 c 0.69755,-1.39019 1.68541,-2.99509 2.19523,-3.56644 4.43047,-4.96483 11.29213,-6.60665 17.60383,-4.21213 3.21543,1.21988 7.10392,5.08456 8.42358,8.37199 l 0.93967,2.34081 v 16.19063 c 0,16.03204 -0.008,16.21259 -0.90535,18.4326 -1.05377,2.60954 -4.09674,6.1194 -6.5537,7.55925 -3.21623,1.88485 -7.8333,2.55284 -11.56611,1.67342 z m 187.28114,-0.12737 c -2.63765,-0.76199 -4.93708,-2.21567 -7.00977,-4.43153 -4.10329,-4.38675 -4.30515,-5.56815 -4.14788,-24.27666 0.12472,-14.81745 0.1387,-15.05182 1.06586,-17.36104 0.68152,-1.69772 1.64614,-3.04724 3.51122,-4.91236 3.46613,-3.46609 5.83952,-4.42515 10.9595,-4.42851 3.37424,-10e-4 3.936,0.10923 6.27087,1.24267 3.12911,1.51911 6.22114,4.65411 7.69754,7.80461 l 1.05177,2.24428 v 16.58895 16.58899 l -1.24638,2.5318 c -1.56922,3.1875 -4.29014,5.92958 -7.40583,7.46343 -1.97208,0.97085 -3.01671,1.21704 -5.66109,1.33417 -2.00485,0.0888 -3.94636,-0.0597 -5.08581,-0.3888 z"
         style="fill:#ffffff;stroke-width:0.39013538"
         sodipodi:nodetypes="ccscccccccccccccccscccccccccscccccsccscccsccscccccccccccccsczcccccccccccccscc" />
      <path
         style="fill:#ffffff;stroke-width:0.54114634"
         d="m 225.70785,-92.5939 c -1.85508,-0.811791 -42.46435,-40.27392 -54.60365,-53.06124 -7.73422,-8.14705 -8.07525,-8.60131 -8.31274,-11.0728 -0.16104,-1.67691 0.0399,-3.12837 0.56956,-4.15497 0.94959,-1.83349 9.20493,-11.57151 15.0543,-17.75815 3.95227,-4.18013 4.10813,-4.28062 7.01237,-4.52148 2.80733,-0.23291 3.1178,-0.1291 5.66139,1.89489 1.48011,1.17767 9.2142,8.50507 17.18689,16.28308 7.97265,7.77806 14.98802,14.40538 15.58971,14.72738 2.50752,1.342 3.96336,0.23291 13.41296,-10.21717 5.02489,-5.55692 22.36485,-25.07977 38.53325,-43.38405 16.1684,-18.30427 29.77303,-33.5772 30.23247,-33.93985 1.22036,-0.96321 4.06763,-1.40859 6.31255,-0.98748 1.57527,0.29548 3.49721,1.87279 9.79961,8.04217 11.46391,11.22195 13.2442,13.39656 13.54694,16.54741 0.17348,1.8065 -0.0399,3.13693 -0.70607,4.42773 -1.21742,2.35424 -26.20571,31.15248 -72.97868,84.10569 -26.83614,30.382041 -28.98687,32.683122 -31.09515,33.268701 -2.51231,0.697867 -3.22686,0.670496 -5.21571,-0.200089 z"
         id="path846"
         inkscape:connector-curvature="0" />
    </g>
  </g>
</svg>
