<?xml version="1.0" encoding="UTF-8" standalone="no"?>
<svg
   xmlns:dc="http://purl.org/dc/elements/1.1/"
   xmlns:cc="http://creativecommons.org/ns#"
   xmlns:rdf="http://www.w3.org/1999/02/22-rdf-syntax-ns#"
   xmlns:svg="http://www.w3.org/2000/svg"
   xmlns="http://www.w3.org/2000/svg"
   xmlns:sodipodi="http://sodipodi.sourceforge.net/DTD/sodipodi-0.dtd"
   xmlns:inkscape="http://www.inkscape.org/namespaces/inkscape"
   viewBox="0 0 64 64"
   version="1.1"
   id="svg6"
   sodipodi:docname="auto-scale-y.svg"
   width="64"
   height="64"
   inkscape:version="0.92.2 5c3e80d, 2017-08-06">
  <metadata
     id="metadata10">
    <rdf:RDF>
      <cc:Work
         rdf:about="">
        <dc:format>image/svg+xml</dc:format>
        <dc:type
           rdf:resource="http://purl.org/dc/dcmitype/StillImage" />
        <dc:title></dc:title>
      </cc:Work>
    </rdf:RDF>
  </metadata>
  <sodipodi:namedview
     pagecolor="#ffffff"
     bordercolor="#666666"
     borderopacity="1"
     objecttolerance="10"
     gridtolerance="10"
     guidetolerance="10"
     inkscape:pageopacity="0"
     inkscape:pageshadow="2"
     inkscape:window-width="1366"
     inkscape:window-height="717"
     id="namedview8"
     showgrid="false"
     inkscape:zoom="5.2149125"
     inkscape:cx="14.04194"
     inkscape:cy="17.49221"
     inkscape:window-x="0"
     inkscape:window-y="24"
     inkscape:window-maximized="1"
     inkscape:current-layer="svg6" />
  <defs
     id="defs3051">
    <style
       type="text/css"
       id="current-color-scheme">
      .ColorScheme-Text {
        color:#4d4d4d;
      }
      </style>
  </defs>
  <g
     id="g961">
    <path
       id="path850"
       d="M 54.114162,7.0592412 C 66.888272,18.131065 67.342502,38.271709 55.128764,52.046596 42.915011,65.82148 22.659951,68.012576 9.8858411,56.940752 -2.8882794,45.868929 -3.3424995,25.728282 8.8712411,11.953399 21.084982,-1.8214875 41.340044,-4.0125825 54.114162,7.0592412 Z"
       inkscape:connector-curvature="0"
       style="fill:#3689e6;fill-opacity:1;stroke-width:1.388695" />
    <path
       id="path852"
       d="m 63.954444,28.112937 c -0.193931,7.663952 -3.145161,15.519322 -8.8708,21.976807 C 42.869891,63.864634 22.614831,66.055725 9.8407211,54.983907 3.8533908,49.794455 0.56210072,42.615349 0.02423071,35.0286 c 0.0756,8.29458 3.36545019,16.281672 9.86061039,21.911277 12.7740999,11.071824 33.0301219,8.879642 45.2429109,-4.894156 6.213122,-7.007269 9.12563,-15.661377 8.826692,-23.932784 z"
       inkscape:connector-curvature="0"
       style="opacity:1;fill:#000000;fill-opacity:0.49019608;stroke-width:1.388695" />
    <rect
       style="opacity:1;fill:#000000;fill-opacity:0.49019608;stroke:none;stroke-width:0.47244096;stroke-miterlimit:4;stroke-dasharray:none;stroke-dashoffset:0;stroke-opacity:1"
       id="rect899"
       width="26"
       height="26"
       x="21.5"
       y="21.491524"
       ry="2.4582126" />
    <path
       style="fill:#000000;fill-opacity:0.49019608;stroke-width:0.07564821"
       d="m 38.731964,19.103742 c -0.05108,-0.183808 -4.008853,-3.687075 -4.227393,-3.741925 -0.119975,-0.03011 -0.261527,10e-4 -0.391358,0.0861 -0.421816,0.276384 -3.887138,3.559706 -3.9289,3.72255 -0.07233,0.282056 0.03674,0.538536 0.283227,0.665998 0.207923,0.107522 0.642306,0.114478 4.089768,0.06549 3.370961,-0.0479 3.875059,-0.07004 3.999344,-0.175658 0.150792,-0.128148 0.232286,-0.417541 0.175312,-0.622555 z"
       id="path905"
       inkscape:connector-curvature="0"
       sodipodi:nodetypes="sccscscs" />
    <path
       sodipodi:nodetypes="sccscscs"
       inkscape:connector-curvature="0"
       id="path907"
       d="m 38.803872,49.927347 c -0.05108,0.183808 -4.008853,3.687075 -4.227394,3.741925 -0.119975,0.03011 -0.261526,-10e-4 -0.391357,-0.0861 -0.421816,-0.276384 -3.887137,-3.559706 -3.928899,-3.722549 -0.07233,-0.282057 0.03674,-0.538536 0.283227,-0.665999 0.207923,-0.107522 0.642306,-0.114478 4.089767,-0.06549 3.370961,0.0479 3.875059,0.07004 3.999344,0.175658 0.150792,0.128149 0.232286,0.417541 0.175312,0.622555 z"
       style="fill:#000000;fill-opacity:0.49019608;stroke-width:0.07564821" />
    <rect
       transform="rotate(-90)"
       style="opacity:1;fill:#000000;fill-opacity:0.49019608;stroke:none;stroke-width:0.47244096;stroke-miterlimit:4;stroke-dasharray:none;stroke-dashoffset:0;stroke-opacity:1"
       id="rect911"
       width="8.1165257"
       height="3.0593221"
       x="-23.116524"
       y="50.940678"
       ry="1.5296611" />
    <path
       id="rect913"
       d="m 47.404541,14.991455 c -0.847432,0 -1.529541,0.682353 -1.529541,1.529785 0,0.847433 0.682109,1.529541 1.529541,1.529541 h 3.536133 v -1.52124 C 50.940674,15.682109 51.623026,15 52.470459,15 c 0.421535,0 0.801978,0.168895 1.078125,0.442871 -0.276812,-0.279005 -0.660773,-0.451416 -1.08667,-0.451416 z"
       style="opacity:1;fill:#000000;fill-opacity:0.49019608;stroke:none;stroke-width:0.47244096;stroke-miterlimit:4;stroke-dasharray:none;stroke-dashoffset:0;stroke-opacity:1"
       inkscape:connector-curvature="0" />
    <path
       id="rect917"
       d="m 47.413086,50.932129 c -0.847432,0 -1.529541,0.682353 -1.529541,1.529785 0,0.847432 0.682109,1.529541 1.529541,1.529541 h 5.057373 c 0.425966,0 0.809848,-0.172577 1.08667,-0.45166 -0.276155,0.274044 -0.656775,0.443359 -1.078369,0.443359 -0.847433,0 -1.529541,-0.682353 -1.529541,-1.529785 v -1.52124 z"
       style="opacity:1;fill:#000000;fill-opacity:0.49019608;stroke:none;stroke-width:0.47244096;stroke-miterlimit:4;stroke-dasharray:none;stroke-dashoffset:0;stroke-opacity:1"
       inkscape:connector-curvature="0" />
    <rect
       transform="rotate(90)"
       style="opacity:1;fill:#000000;fill-opacity:0.49019608;stroke:none;stroke-width:0.47244096;stroke-miterlimit:4;stroke-dasharray:none;stroke-dashoffset:0;stroke-opacity:1"
       id="rect919"
       width="8.1165257"
       height="3.0593221"
       x="45.866524"
       y="-54.008476"
       ry="1.5296611" />
    <path
       id="rect923"
       d="M 16.529541,45.875 C 15.682109,45.875 15,46.557109 15,47.404541 v 5.057373 c 0,0.425897 0.172411,0.809858 0.451416,1.08667 -0.273976,-0.276146 -0.442871,-0.65659 -0.442871,-1.078125 0,-0.847432 0.682109,-1.529785 1.529541,-1.529785 h 1.52124 v -3.536133 c 0,-0.847432 -0.682352,-1.529541 -1.529785,-1.529541 z"
       style="opacity:1;fill:#000000;fill-opacity:0.49019608;stroke:none;stroke-width:0.47244096;stroke-miterlimit:4;stroke-dasharray:none;stroke-dashoffset:0;stroke-opacity:1"
       inkscape:connector-curvature="0" />
    <rect
       ry="1.5296611"
       y="-54"
       x="-23.125"
       height="3.0593221"
       width="8.1165257"
       id="rect925"
       style="opacity:1;fill:#000000;fill-opacity:0.49019608;stroke:none;stroke-width:0.47244096;stroke-miterlimit:4;stroke-dasharray:none;stroke-dashoffset:0;stroke-opacity:1"
       transform="scale(-1)" />
    <rect
       transform="scale(-1)"
       ry="1.5296611"
       y="-18.050846"
       x="-23.125"
       height="3.0593221"
       width="8.1165257"
       id="rect929"
       style="opacity:1;fill:#000000;fill-opacity:0.49019608;stroke:none;stroke-width:0.47244096;stroke-miterlimit:4;stroke-dasharray:none;stroke-dashoffset:0;stroke-opacity:1" />
    <path
       id="rect931"
       d="M 15.451416,15.442871 C 15.172411,15.719683 15,16.103644 15,16.529541 v 5.057373 c 0,0.847432 0.682109,1.529541 1.529541,1.529541 0.847433,0 1.529785,-0.682109 1.529785,-1.529541 v -3.536133 h -1.52124 c -0.847432,0 -1.529541,-0.682108 -1.529541,-1.529541 0,-0.421535 0.168895,-0.802222 0.442871,-1.078369 z"
       style="opacity:1;fill:#000000;fill-opacity:0.49019608;stroke:none;stroke-width:0.47244096;stroke-miterlimit:4;stroke-dasharray:none;stroke-dashoffset:0;stroke-opacity:1"
       inkscape:connector-curvature="0" />
    <rect
       ry="2.4582126"
       y="19"
       x="19"
       height="26"
       width="26"
       id="rect835"
       style="opacity:1;fill:#ffffff;fill-opacity:1;stroke:none;stroke-width:0.47244096;stroke-miterlimit:4;stroke-dasharray:none;stroke-dashoffset:0;stroke-opacity:1" />
    <path
       sodipodi:nodetypes="sccscscs"
       inkscape:connector-curvature="0"
       id="path849"
       d="m 36.231964,16.61222 c -0.05108,-0.183808 -4.008853,-3.687075 -4.227393,-3.741925 -0.119975,-0.03011 -0.261527,10e-4 -0.391358,0.0861 -0.421816,0.276384 -3.887138,3.559706 -3.9289,3.72255 -0.07233,0.282056 0.03674,0.538536 0.283227,0.665998 0.207923,0.107522 0.642306,0.114478 4.089768,0.06549 3.370961,-0.0479 3.875059,-0.07004 3.999344,-0.175658 0.150792,-0.128148 0.232286,-0.417541 0.175312,-0.622555 z"
       style="fill:#ffffff;stroke-width:0.07564821" />
    <path
       style="fill:#ffffff;stroke-width:0.07564821"
       d="m 36.303872,47.435825 c -0.05108,0.183808 -4.008853,3.687075 -4.227394,3.741925 -0.119975,0.03011 -0.261526,-0.001 -0.391357,-0.0861 -0.421816,-0.276385 -3.887137,-3.559707 -3.928899,-3.722551 -0.07233,-0.282056 0.03674,-0.538535 0.283227,-0.665998 0.207923,-0.107522 0.642306,-0.114478 4.089767,-0.06549 3.370961,0.0479 3.875059,0.07004 3.999344,0.175658 0.150792,0.128149 0.232286,0.417541 0.175312,0.622555 z"
       id="path851"
       inkscape:connector-curvature="0"
       sodipodi:nodetypes="sccscscs" />
    <g
       transform="matrix(0,-0.125,0.125,0,56,64)"
       id="g859">
      <rect
         style="opacity:1;fill:#ffffff;fill-opacity:1;stroke:none;stroke-width:3.77952766;stroke-miterlimit:4;stroke-dasharray:none;stroke-dashoffset:0;stroke-opacity:1"
         id="rect853"
         width="64.932205"
         height="24.474577"
         x="347"
         y="-60.474575"
         ry="12.237288" />
      <rect
         ry="12.237288"
         y="-412"
         x="-101"
         height="24.474577"
         width="64.932205"
         id="rect855"
         style="opacity:1;fill:#ffffff;fill-opacity:1;stroke:none;stroke-width:3.77952766;stroke-miterlimit:4;stroke-dasharray:none;stroke-dashoffset:0;stroke-opacity:1"
         transform="rotate(90)" />
    </g>
    <g
       id="g865"
       transform="matrix(0.125,0,0,0.125,0.00847626,56)">
      <rect
         ry="12.237288"
         y="-60.474575"
         x="347"
         height="24.474577"
         width="64.932205"
         id="rect861"
         style="opacity:1;fill:#ffffff;fill-opacity:1;stroke:none;stroke-width:3.77952766;stroke-miterlimit:4;stroke-dasharray:none;stroke-dashoffset:0;stroke-opacity:1" />
      <rect
         transform="rotate(90)"
         style="opacity:1;fill:#ffffff;fill-opacity:1;stroke:none;stroke-width:3.77952766;stroke-miterlimit:4;stroke-dasharray:none;stroke-dashoffset:0;stroke-opacity:1"
         id="rect863"
         width="64.932205"
         height="24.474577"
         x="-101"
         y="-412"
         ry="12.237288" />
    </g>
    <g
       transform="matrix(0,0.125,-0.125,0,8,0.0084775)"
       id="g871">
      <rect
         style="opacity:1;fill:#ffffff;fill-opacity:1;stroke:none;stroke-width:3.77952766;stroke-miterlimit:4;stroke-dasharray:none;stroke-dashoffset:0;stroke-opacity:1"
         id="rect867"
         width="64.932205"
         height="24.474577"
         x="347"
         y="-60.474575"
         ry="12.237288" />
      <rect
         ry="12.237288"
         y="-412"
         x="-101"
         height="24.474577"
         width="64.932205"
         id="rect869"
         style="opacity:1;fill:#ffffff;fill-opacity:1;stroke:none;stroke-width:3.77952766;stroke-miterlimit:4;stroke-dasharray:none;stroke-dashoffset:0;stroke-opacity:1"
         transform="rotate(90)" />
    </g>
    <rect
       transform="scale(-1)"
       style="opacity:1;fill:#ffffff;fill-opacity:1;stroke:none;stroke-width:0.47244096;stroke-miterlimit:4;stroke-dasharray:none;stroke-dashoffset:0;stroke-opacity:1"
       id="rect873"
       width="8.1165257"
       height="3.0593221"
       x="-20.625"
       y="-15.559322"
       ry="1.5296611" />
    <rect
       ry="1.5296611"
       y="12.5"
       x="-20.625"
       height="3.0593221"
       width="8.1165257"
       id="rect875"
       style="opacity:1;fill:#ffffff;fill-opacity:1;stroke:none;stroke-width:0.47244096;stroke-miterlimit:4;stroke-dasharray:none;stroke-dashoffset:0;stroke-opacity:1"
       transform="rotate(-90)" />
    <rect
       ry="1.5296611"
       y="-15.559322"
       x="-20.625"
       height="3.0593221"
       width="8.1165257"
       id="rect995"
       style="opacity:1;fill:#ffffff;fill-opacity:1;stroke:none;stroke-width:0.47244096;stroke-miterlimit:4;stroke-dasharray:none;stroke-dashoffset:0;stroke-opacity:1"
       transform="scale(-1)" />
  </g>
</svg>
