<?xml version="1.0" encoding="UTF-8" standalone="no"?>
<svg
   xmlns:dc="http://purl.org/dc/elements/1.1/"
   xmlns:cc="http://creativecommons.org/ns#"
   xmlns:rdf="http://www.w3.org/1999/02/22-rdf-syntax-ns#"
   xmlns:svg="http://www.w3.org/2000/svg"
   xmlns="http://www.w3.org/2000/svg"
   xmlns:sodipodi="http://sodipodi.sourceforge.net/DTD/sodipodi-0.dtd"
   xmlns:inkscape="http://www.inkscape.org/namespaces/inkscape"
   viewBox="0 0 64 64"
   version="1.1"
   id="svg6"
   sodipodi:docname="view-certificate-import.svg"
   width="64"
   height="64"
   inkscape:version="0.92.2 5c3e80d, 2017-08-06">
  <metadata
     id="metadata10">
    <rdf:RDF>
      <cc:Work
         rdf:about="">
        <dc:format>image/svg+xml</dc:format>
        <dc:type
           rdf:resource="http://purl.org/dc/dcmitype/StillImage" />
        <dc:title></dc:title>
      </cc:Work>
    </rdf:RDF>
  </metadata>
  <sodipodi:namedview
     pagecolor="#ffffff"
     bordercolor="#666666"
     borderopacity="1"
     objecttolerance="10"
     gridtolerance="10"
     guidetolerance="10"
     inkscape:pageopacity="0"
     inkscape:pageshadow="2"
     inkscape:window-width="1366"
     inkscape:window-height="717"
     id="namedview8"
     showgrid="false"
     inkscape:zoom="0.61458333"
     inkscape:cx="360.76976"
     inkscape:cy="330.06212"
     inkscape:window-x="0"
     inkscape:window-y="24"
     inkscape:window-maximized="1"
     inkscape:current-layer="svg6" />
  <defs
     id="defs3051">
    <style
       type="text/css"
       id="current-color-scheme">
      .ColorScheme-Text {
        color:#4d4d4d;
      }
      </style>
  </defs>
  <g
     id="g850"
     transform="matrix(0.125,0,0,0.125,-1.576692e-8,56)">
    <path
       style="fill:#f9c440;fill-opacity:1;stroke-width:11.10955811"
       inkscape:connector-curvature="0"
       d="m 432.91327,-391.52604 c 102.19291,88.57459 105.82678,249.69971 8.1168,359.898792 C 343.3201,78.571824 181.27964,96.100624 79.086729,7.5260162 -23.106186,-81.048576 -26.740042,-242.1737 70.969928,-352.37278 168.6799,-462.57186 330.72036,-480.10063 432.91327,-391.52604 Z"
       id="path27" />
    <path
       style="opacity:1;fill:#000000;fill-opacity:0.49019608;stroke-width:11.10955811"
       inkscape:connector-curvature="0"
       d="m 511.63551,-223.09649 c -1.55139,61.31165 -25.16123,124.15461 -70.96638,175.814474 C 342.95915,62.91712 180.91869,80.445824 78.725776,-8.1287198 30.827124,-49.644368 4.4968225,-107.07717 0.19382862,-167.7712 0.7990803,-101.41453 27.117412,-37.517832 79.078684,7.5190642 181.27159,96.093624 343.31975,78.556224 441.02202,-31.63424 c 49.70495,-56.058104 73.00502,-125.29096 70.61349,-191.46225 z"
       id="path51" />
    <path
       style="opacity:1;fill:#000000;fill-opacity:0.49019608;stroke:none;stroke-width:1.88976383;stroke-linecap:butt;stroke-linejoin:miter;stroke-miterlimit:4;stroke-dasharray:none;stroke-dashoffset:0;stroke-opacity:1"
       d="M 138.70313,-288 C 128.34379,-288 120,-279.65621 120,-269.29687 V -72.703128 C 120,-62.3438 128.34379,-54 138.70313,-54 H 413.29687 C 423.65621,-54 432,-62.3438 432,-72.703128 V -269.29687 C 432,-279.65621 423.65621,-288 413.29687,-288 Z m 101.51562,16.5625 8.71875,9.32812 8.70312,9.32813 -4.84375,4.53125 -4.85937,4.53125 9.0625,9.70313 9.07813,9.68749 -9.32813,8.71875 -9.32813,8.71876 -9.06249,-9.70313 -9.06251,-9.6875 -10.42187,9.75 -10.4375,9.75 1.5625,5.35938 c 3.20394,11.02164 0.66552,24.42372 -6.45313,34.125 -4.24772,5.78845 -6.16626,7.46345 -12.43749,10.76562 l 0.0312,0.0156 c -26.6052,14.15952 -58.37025,-5.46532 -57.35937,-35.43751 0.88893,-26.35717 25.69515,-43.58093 51.1875,-35.54687 l 6.17187,1.95313 24.53125,-22.93751 z M 285.75,-229.5 h 97.5 c 5.4015,0 9.75,4.3485 9.75,9.75 0,5.4015 -4.3485,9.75 -9.75,9.75 h -97.5 c -5.4015,0 -9.75,-4.3485 -9.75,-9.75 0,-5.4015 4.3485,-9.75 9.75,-9.75 z m -113.21875,25.5625 c -7.15769,-0.12152 -12.73677,5.34547 -12.98438,13.07812 -0.13872,4.11173 0.33771,5.43423 2.98438,8.26563 4.92312,5.26678 11.11369,6.58889 16.67188,3.5625 2.7465,-1.45417 5.5712,-5.46003 6.28125,-8.90625 l -0.0156,-0.0312 c 1.6454,-7.65957 -3.61205,-14.92812 -11.48437,-15.875 -0.49016,-0.0592 -0.97596,-0.0857 -1.45313,-0.0937 z M 285.75,-190.5 h 78 c 5.4015,0 9.75,4.3485 9.75,9.75 0,5.4015 -4.3485,9.75 -9.75,9.75 h -78 c -5.4015,0 -9.75,-4.3485 -9.75,-9.75 0,-5.4015 4.3485,-9.75 9.75,-9.75 z m -72.71875,25.125 c 0.27334,0.0857 0.49665,0.27109 0.6875,0.54687 0.29688,0.42904 0.47513,0.93088 0.65625,1.90626 0.1328,0.71488 0.16134,1.9382 0.1875,11.25 l 0.0156,10.42187 h 22.01562 c 23.91019,0 22.92457,-0.0182 24.90625,0.48438 6.60366,1.67516 11.40653,7.2633 12.09375,14.04687 0.12672,1.25134 0.12671,23.40054 0,24.65625 -0.774,7.6684 -6.78735,13.65572 -14.51562,14.4375 -0.61256,0.0616 -8.15845,0.0781 -22.70313,0.0781 H 214.5781 v 9.937494 c 0,6.2536 -0.0361,10.239256 -0.0937,10.781248 -0.18496,1.729592 -0.57407,2.80828 -1.17188,3.234376 -0.47328,0.33736 -1.18574,0.284976 -2.04688,-0.140624 -1.22824,-0.60704 -2.34352,-1.543488 -5.32812,-4.484376 -7.1695,-7.06444 -37.79274,-37.601928 -39.01563,-38.906248 -2.51499,-2.68245 -3.69301,-4.33646 -4.14062,-5.84375 -0.23128,-0.77872 -0.18191,-1.93595 0.10937,-2.79687 0.4468,-1.32012 1.52124,-2.85233 3.60938,-5.14063 1.70031,-1.8633 41.6541,-41.77329 42.625,-42.57813 1.85687,-1.53928 3.08622,-2.14788 3.90625,-1.89062 z M 285.75,-151.5 h 58.5 c 5.4015,0 9.75,4.3485 9.75,9.75 0,5.4015 -4.3485,9.75 -9.75,9.75 h -58.5 c -5.4015,0 -9.75,-4.3485 -9.75,-9.75 0,-5.4015 4.3485,-9.75 9.75,-9.75 z"
       id="path39"
       inkscape:connector-curvature="0" />
    <path
       inkscape:connector-curvature="0"
       id="rect34"
       d="M 118.70313,-308 C 108.34379,-308 100,-299.65621 100,-289.29687 V -92.703128 C 100,-82.3438 108.34379,-74 118.70313,-74 H 393.29687 C 403.65621,-74 412,-82.3438 412,-92.703128 V -289.29687 C 412,-299.65621 403.65621,-308 393.29687,-308 Z m 101.51562,16.5625 8.71875,9.32812 8.70312,9.32813 -4.84375,4.53125 -4.85937,4.53125 9.0625,9.70313 9.07813,9.68749 -9.32813,8.71875 -9.32813,8.71876 -9.06249,-9.70313 -9.06251,-9.6875 -10.42187,9.75 -10.4375,9.75 1.5625,5.35938 c 3.20394,11.02164 0.66552,24.42372 -6.45313,34.125 -4.24772,5.78845 -6.16626,7.46345 -12.43749,10.76562 l 0.0312,0.0156 c -26.6052,14.15952 -58.37025,-5.46532 -57.35937,-35.43751 0.88893,-26.35717 25.69515,-43.58093 51.1875,-35.54687 l 6.17187,1.95313 24.53125,-22.93751 z M 265.75,-249.5 h 97.5 c 5.4015,0 9.75,4.3485 9.75,9.75 0,5.4015 -4.3485,9.75 -9.75,9.75 h -97.5 c -5.4015,0 -9.75,-4.3485 -9.75,-9.75 0,-5.4015 4.3485,-9.75 9.75,-9.75 z m -113.21875,25.5625 c -7.15769,-0.12152 -12.73677,5.34547 -12.98438,13.07812 -0.13872,4.11173 0.33771,5.43423 2.98438,8.26563 4.92312,5.26678 11.11369,6.58889 16.67188,3.5625 2.7465,-1.45417 5.5712,-5.46003 6.28125,-8.90625 l -0.0156,-0.0312 c 1.6454,-7.65957 -3.61205,-14.92812 -11.48437,-15.875 -0.49016,-0.0592 -0.97596,-0.0857 -1.45313,-0.0937 z M 265.75,-210.5 h 78 c 5.4015,0 9.75,4.3485 9.75,9.75 0,5.4015 -4.3485,9.75 -9.75,9.75 h -78 c -5.4015,0 -9.75,-4.3485 -9.75,-9.75 0,-5.4015 4.3485,-9.75 9.75,-9.75 z m -72.71875,25.125 c 0.27334,0.0857 0.49665,0.27109 0.6875,0.54687 0.29688,0.42904 0.47513,0.93088 0.65625,1.90626 0.1328,0.71488 0.16134,1.9382 0.1875,11.25 l 0.0156,10.42187 h 22.01562 c 23.91019,0 22.92457,-0.0182 24.90625,0.48438 6.60366,1.67516 11.40653,7.2633 12.09375,14.04687 0.12672,1.25134 0.12671,23.40054 0,24.65625 -0.774,7.6684 -6.78735,13.65572 -14.51562,14.4375 -0.61256,0.0616 -8.15845,0.0781 -22.70313,0.0781 H 194.5781 v 9.937494 c 0,6.2536 -0.0361,10.239256 -0.0937,10.781248 -0.18496,1.729592 -0.57407,2.80828 -1.17188,3.234376 -0.47328,0.33736 -1.18574,0.284976 -2.04688,-0.140624 -1.22824,-0.60704 -2.34352,-1.543488 -5.32812,-4.484376 -7.1695,-7.06444 -37.79274,-37.601928 -39.01563,-38.906248 -2.51499,-2.68245 -3.69301,-4.33646 -4.14062,-5.84375 -0.23128,-0.77872 -0.18191,-1.93595 0.10937,-2.79687 0.4468,-1.32012 1.52124,-2.85233 3.60938,-5.14063 1.70031,-1.8633 41.6541,-41.77329 42.625,-42.57813 1.85687,-1.53928 3.08622,-2.14788 3.90625,-1.89062 z M 265.75,-171.5 h 58.5 c 5.4015,0 9.75,4.3485 9.75,9.75 0,5.4015 -4.3485,9.75 -9.75,9.75 h -58.5 c -5.4015,0 -9.75,-4.3485 -9.75,-9.75 0,-5.4015 4.3485,-9.75 9.75,-9.75 z"
       style="opacity:1;fill:#ffffff;fill-opacity:1;stroke:none;stroke-width:1.88976383;stroke-linecap:butt;stroke-linejoin:miter;stroke-miterlimit:4;stroke-dasharray:none;stroke-dashoffset:0;stroke-opacity:1" />
  </g>
</svg>
