<?xml version="1.0" encoding="UTF-8" standalone="no"?>
<svg
   xmlns:dc="http://purl.org/dc/elements/1.1/"
   xmlns:cc="http://creativecommons.org/ns#"
   xmlns:rdf="http://www.w3.org/1999/02/22-rdf-syntax-ns#"
   xmlns:svg="http://www.w3.org/2000/svg"
   xmlns="http://www.w3.org/2000/svg"
   xmlns:sodipodi="http://sodipodi.sourceforge.net/DTD/sodipodi-0.dtd"
   xmlns:inkscape="http://www.inkscape.org/namespaces/inkscape"
   viewBox="0 0 64 64"
   version="1.1"
   id="svg8"
   sodipodi:docname="view-calendar-week.svg"
   width="64"
   height="64"
   inkscape:version="0.92.2 5c3e80d, 2017-08-06">
  <metadata
     id="metadata12">
    <rdf:RDF>
      <cc:Work
         rdf:about="">
        <dc:format>image/svg+xml</dc:format>
        <dc:type
           rdf:resource="http://purl.org/dc/dcmitype/StillImage" />
        <dc:title></dc:title>
      </cc:Work>
    </rdf:RDF>
  </metadata>
  <sodipodi:namedview
     pagecolor="#ffffff"
     bordercolor="#666666"
     borderopacity="1"
     objecttolerance="10"
     gridtolerance="10"
     guidetolerance="10"
     inkscape:pageopacity="0"
     inkscape:pageshadow="2"
     inkscape:window-width="1366"
     inkscape:window-height="717"
     id="namedview10"
     showgrid="false"
     inkscape:zoom="0.86915209"
     inkscape:cx="43.190028"
     inkscape:cy="86.020167"
     inkscape:window-x="0"
     inkscape:window-y="24"
     inkscape:window-maximized="1"
     inkscape:current-layer="svg8" />
  <defs
     id="defs3051">
    <style
       type="text/css"
       id="current-color-scheme">
      .ColorScheme-Text {
        color:#4d4d4d;
      }
      .ColorScheme-PositiveText {
        color:#27ae60;
      }
      </style>
  </defs>
  <g
     id="g846"
     transform="matrix(0.125,0,0,0.125,1.2309213e-7,55.999999)">
    <path
       id="path842"
       d="m 432.91327,-391.52602 c 102.19291,88.57459 105.82677,249.6997 8.1168,359.898781 C 343.3201,78.57184 181.27963,96.100608 79.086725,7.52602 -23.10618,-81.048567 -26.740045,-242.17368 70.969925,-352.37276 168.67989,-462.57184 330.72037,-480.10061 432.91327,-391.52602 Z"
       inkscape:connector-curvature="0"
       style="fill:#3689e6;fill-opacity:1;stroke-width:11.10955715" />
    <path
       id="path845"
       d="m 511.6355,-223.09648 c -1.55138,61.31165 -25.16122,124.154613 -70.96637,175.814476 C 342.95916,62.917112 180.91868,80.445843 78.72578,-8.128707 30.827148,-49.64436 4.4968428,-107.07716 0.1938507,-167.77119 0.79910423,-101.41452 27.117428,-37.517821 79.078675,7.519066 181.27161,96.093616 343.31976,78.556193 441.02202,-31.634231 490.72697,-87.692337 514.02704,-156.92519 511.6355,-223.09648 Z"
       inkscape:connector-curvature="0"
       style="opacity:1;fill:#000000;fill-opacity:0.49019608;stroke-width:11.10955715" />
    <path
       inkscape:connector-curvature="0"
       id="path840"
       d="m 126.65321,-18.667453 c -2.35457,-0.831307 -5.17822,-3.719018 -6.00276,-6.139011 C 120.04818,-26.573922 120,-36.754042 120,-162.20329 c 0,-134.38688 0.008,-135.50479 0.77774,-137.56663 0.91058,-2.43364 2.97986,-4.60101 5.46444,-5.72334 1.65956,-0.74963 2.52597,-0.79351 15.83921,-0.8016 l 14.08361,-0.008 -0.0227,9.26574 c -0.0265,9.77809 0.35074,12.84619 2.12315,17.34289 2.64529,6.71115 8.4579,11.86616 15.57411,13.81221 4.03903,1.10452 10.6597,0.9403 14.63009,-0.36284 8.60644,-2.82486 13.52652,-8.29274 15.87364,-17.64091 0.79661,-3.17287 0.87421,-4.36849 0.84087,-12.95622 l -0.0378,-9.4608 h 69.45271 69.4529 l -0.26495,6.53477 c -0.30236,7.45206 0.16214,13.38886 1.36528,17.45858 2.48161,8.3935 8.30661,14.24659 16.34117,16.41997 3.11357,0.84223 9.83565,0.95369 12.87446,0.21354 6.78271,-1.65218 12.85078,-6.33142 15.41896,-11.88997 2.71166,-5.86904 3.51962,-11.46403 3.14964,-21.81188 l -0.24756,-6.92493 14.15006,0.008 c 13.38485,0.008 14.24504,0.0514 15.90568,0.80235 2.14908,0.97168 4.08235,2.77214 5.20347,4.84604 l 0.84363,1.56057 0.0998,136.14746 c 0.11226,153.4081475 0.4295,138.405879 -2.99815,141.833533 -3.44757,3.447571 12.89265,3.115427 -151.56718,3.080731 -131.56222,-0.02646 -146.10954,-0.09109 -147.67336,-0.643276 z M 402.26293,-39.5885 c 2.3495,-1.0964 4.53279,-3.41544 5.41528,-5.75199 0.6,-1.58849 0.64093,-9.27624 0.54284,-101.9828 -0.10241,-96.86097 -0.13077,-100.31433 -0.83195,-101.72504 -1.08091,-2.1744 -3.55151,-4.44219 -5.59978,-5.14011 -1.63672,-0.55771 -13.89559,-0.61713 -127.31615,-0.61713 -136.89588,0 -127.02617,-0.16441 -130.08412,2.16794 -0.74437,0.56776 -1.87657,2.0866 -2.52967,3.39356 l -1.1822,2.36584 0.008,100.10494 c 0.008,99.82813 0.0113,100.10982 0.80232,101.86057 1.28662,2.84557 3.7011,4.99608 6.59917,5.87762 0.53782,0.16365 57.50846,0.31068 126.60143,0.32731 l 125.6236,0.0302 1.95069,-0.9103 z m -248.29342,-61.40678 c -0.73576,-0.3753 -1.70135,-1.17781 -2.14575,-1.78363 -0.78821,-1.07452 -0.80797,-1.52039 -0.80797,-18.21022 0,-16.68982 0.0189,-17.13569 0.80797,-18.21021 1.80575,-2.46161 1.83887,-2.46573 19.67411,-2.46573 17.83525,0 17.86839,0.004 19.6741,2.46573 0.78822,1.07452 0.80799,1.52039 0.80799,18.21021 0,16.68983 -0.0189,17.1357 -0.80799,18.21022 -1.80571,2.46161 -1.83885,2.46573 -19.6741,2.46573 -14.64401,0 -16.31842,-0.065 -17.52836,-0.6821 z m 51.49788,0 c -0.73576,-0.3753 -1.70134,-1.17781 -2.14574,-1.78363 -0.78822,-1.07452 -0.80803,-1.52039 -0.80803,-18.21022 0,-16.68982 0.0189,-17.13569 0.80803,-18.21021 1.80571,-2.46161 1.83885,-2.46573 19.6741,-2.46573 17.83525,0 17.86836,0.004 19.6741,2.46573 0.78822,1.07452 0.80798,1.52039 0.80798,18.21021 0,16.68983 -0.0189,17.1357 -0.80798,18.21022 -1.80574,2.46161 -1.83886,2.46573 -19.6741,2.46573 -14.644,0 -16.31841,-0.065 -17.52836,-0.6821 z m 51.49784,0 c -0.73572,-0.3753 -1.70132,-1.17781 -2.14571,-1.78363 -0.78822,-1.07452 -0.80803,-1.52039 -0.80803,-18.21022 0,-16.68982 0.0189,-17.13569 0.80803,-18.21021 1.8057,-2.46161 1.83885,-2.46573 19.6741,-2.46573 17.83522,0 17.86836,0.004 19.67411,2.46573 0.78822,1.07452 0.80799,1.52039 0.80799,18.21021 0,16.68983 -0.0189,17.1357 -0.80799,18.21022 -1.80575,2.46161 -1.83889,2.46573 -19.67411,2.46573 -14.64401,0 -16.31841,-0.065 -17.52839,-0.6821 z m 51.49789,0 c -0.73577,-0.3753 -1.70133,-1.17781 -2.14576,-1.78363 -0.78823,-1.07452 -0.80799,-1.52039 -0.80799,-18.21022 0,-16.68982 0.0189,-17.13569 0.80799,-18.21021 1.80574,-2.46161 1.83889,-2.46573 19.6741,-2.46573 17.83525,0 17.86839,0.004 19.67411,2.46573 0.78825,1.07452 0.80802,1.52039 0.80802,18.21021 0,16.68983 -0.0189,17.1357 -0.80802,18.21022 -1.80571,2.46161 -1.83885,2.46573 -19.67411,2.46573 -14.64397,0 -16.31837,-0.065 -17.52834,-0.6821 z m 51.49786,0 c -0.73576,-0.3753 -1.70135,-1.17781 -2.14575,-1.78363 -0.78822,-1.07452 -0.80799,-1.52039 -0.80799,-18.21022 0,-16.68982 0.0189,-17.13569 0.80799,-18.21021 1.80575,-2.46161 1.83885,-2.46573 19.6741,-2.46573 17.83525,0 17.8684,0.004 19.67411,2.46573 0.78822,1.07452 0.80799,1.52039 0.80799,18.21021 0,16.68983 -0.0189,17.1357 -0.80799,18.21022 -1.80571,2.46161 -1.83886,2.46573 -19.67411,2.46573 -14.644,0 -16.31837,-0.065 -17.52835,-0.6821 z m -183.1048,-173.35139 c -3.98816,-0.93963 -8.4576,-4.70305 -10.28599,-8.66116 l -1.11942,-2.42336 v -16.58895 -16.58895 l 1.26826,-2.52771 c 0.69755,-1.39019 1.68541,-2.99509 2.19523,-3.56644 4.43047,-4.96483 11.29213,-6.60665 17.60383,-4.21213 3.21543,1.21988 7.10392,5.08456 8.42358,8.37199 l 0.93967,2.34081 v 16.19063 c 0,16.03204 -0.008,16.21259 -0.90535,18.4326 -1.05377,2.60954 -4.09674,6.1194 -6.5537,7.55925 -3.21623,1.88485 -7.8333,2.55284 -11.56611,1.67342 z m 187.28114,-0.12737 c -2.63765,-0.76199 -4.93708,-2.21567 -7.00977,-4.43153 -4.10329,-4.38675 -4.30515,-5.56815 -4.14788,-24.27666 0.12472,-14.81745 0.1387,-15.05182 1.06586,-17.36104 0.68152,-1.69772 1.64614,-3.04724 3.51122,-4.91236 3.46613,-3.46609 5.83952,-4.42515 10.9595,-4.42851 3.37424,-10e-4 3.936,0.10923 6.27087,1.24267 3.12911,1.51911 6.22114,4.65411 7.69754,7.80461 l 1.05177,2.24428 v 16.58895 16.58899 l -1.24638,2.5318 c -1.56922,3.1875 -4.29014,5.92958 -7.40583,7.46343 -1.97208,0.97085 -3.01671,1.21704 -5.66109,1.33417 -2.00485,0.0888 -3.94636,-0.0597 -5.08581,-0.3888 z"
       style="fill:#000000;fill-opacity:0.49019608;stroke-width:0.39013538"
       sodipodi:nodetypes="ccscccccccccccccccscccccccccscccccsccscccsccscccccscscscscccscscscscccscscscscccscscscscccscscscscccccccccccsczcccccccccccccscc" />
    <path
       sodipodi:nodetypes="ccscccccccccccccccscccccccccscccccsccscccsccscccccscscscscccscscscscccscscscscccscscscscccscscscscccccccccccsczcccccccccccccscc"
       style="fill:#ffffff;stroke-width:0.39013538"
       d="m 106.6532,-38.66744 c -2.35457,-0.831307 -5.17822,-3.719018 -6.00276,-6.139011 -0.60227,-1.767458 -0.650455,-11.947578 -0.650455,-137.396829 0,-134.38688 0.0076,-135.50479 0.777745,-137.56663 0.91057,-2.43364 2.97986,-4.60101 5.46444,-5.72334 1.65956,-0.74963 2.52597,-0.79351 15.83921,-0.8016 l 14.08361,-0.008 -0.0227,9.26574 c -0.0265,9.77809 0.35074,12.84619 2.12315,17.34289 2.64529,6.71115 8.4579,11.86616 15.57411,13.81221 4.03903,1.10452 10.6597,0.9403 14.63009,-0.36284 8.60644,-2.82486 13.52652,-8.29274 15.87364,-17.64091 0.79661,-3.17287 0.87421,-4.36849 0.84087,-12.95622 l -0.0378,-9.4608 h 69.45271 69.4529 l -0.26495,6.53477 c -0.30236,7.45206 0.16214,13.38886 1.36528,17.45858 2.4816,8.3935 8.30661,14.24659 16.34117,16.41997 3.11357,0.84223 9.83565,0.95369 12.87446,0.21354 6.78271,-1.65218 12.85078,-6.33142 15.41896,-11.88997 2.71166,-5.86904 3.51961,-11.46403 3.14964,-21.81188 l -0.24756,-6.92493 14.15006,0.008 c 13.38485,0.008 14.24504,0.0514 15.90568,0.80235 2.14908,0.97168 4.08235,2.77214 5.20347,4.84604 l 0.84363,1.56057 0.0998,136.14746 c 0.11225,153.40815 0.4295,138.405882 -2.99815,141.833536 -3.44757,3.447571 12.89265,3.115427 -151.56718,3.080731 -131.56222,-0.02646 -146.10954,-0.09109 -147.67336,-0.643276 z m 275.60972,-20.921047 c 2.3495,-1.0964 4.53279,-3.41544 5.41527,-5.75199 0.6,-1.58849 0.64093,-9.27624 0.54285,-101.982803 -0.10242,-96.86097 -0.13077,-100.31433 -0.83195,-101.72504 -1.08091,-2.1744 -3.55151,-4.44219 -5.59978,-5.14011 -1.63673,-0.55771 -13.89559,-0.61713 -127.31615,-0.61713 -136.89588,0 -127.02617,-0.16441 -130.08412,2.16794 -0.74437,0.56776 -1.87657,2.0866 -2.52967,3.39356 l -1.1822,2.36584 0.008,100.10494 c 0.008,99.828133 0.0113,100.109823 0.80232,101.860573 1.28662,2.84557 3.7011,4.99608 6.59917,5.87762 0.53782,0.16365 57.50846,0.31068 126.60143,0.32731 l 125.6236,0.0302 1.95069,-0.9103 z M 133.9695,-120.99527 c -0.73576,-0.3753 -1.70135,-1.17781 -2.14575,-1.78363 -0.78822,-1.07452 -0.80798,-1.52039 -0.80798,-18.21022 0,-16.68982 0.0189,-17.13569 0.80798,-18.21021 1.80575,-2.46161 1.83886,-2.46573 19.67411,-2.46573 17.83525,0 17.86839,0.004 19.6741,2.46573 0.78822,1.07452 0.80799,1.52039 0.80799,18.21021 0,16.68983 -0.0189,17.1357 -0.80799,18.21022 -1.80571,2.46161 -1.83885,2.46573 -19.6741,2.46573 -14.64401,0 -16.31842,-0.065 -17.52836,-0.6821 z m 51.49788,0 c -0.73576,-0.3753 -1.70135,-1.17781 -2.14575,-1.78363 -0.78822,-1.07452 -0.80803,-1.52039 -0.80803,-18.21022 0,-16.68982 0.0189,-17.13569 0.80803,-18.21021 1.80571,-2.46161 1.83885,-2.46573 19.6741,-2.46573 17.83525,0 17.86836,0.004 19.67411,2.46573 0.78822,1.07452 0.80798,1.52039 0.80798,18.21021 0,16.68983 -0.0189,17.1357 -0.80798,18.21022 -1.80575,2.46161 -1.83886,2.46573 -19.67411,2.46573 -14.644,0 -16.31841,-0.065 -17.52835,-0.6821 z m 51.49784,0 c -0.73572,-0.3753 -1.70132,-1.17781 -2.14571,-1.78363 -0.78822,-1.07452 -0.80803,-1.52039 -0.80803,-18.21022 0,-16.68982 0.0189,-17.13569 0.80803,-18.21021 1.8057,-2.46161 1.83885,-2.46573 19.6741,-2.46573 17.83521,0 17.86836,0.004 19.6741,2.46573 0.78822,1.07452 0.80799,1.52039 0.80799,18.21021 0,16.68983 -0.0189,17.1357 -0.80799,18.21022 -1.80574,2.46161 -1.83889,2.46573 -19.6741,2.46573 -14.64401,0 -16.31841,-0.065 -17.52839,-0.6821 z m 51.49788,0 c -0.73576,-0.3753 -1.70132,-1.17781 -2.14576,-1.78363 -0.78822,-1.07452 -0.80798,-1.52039 -0.80798,-18.21022 0,-16.68982 0.0189,-17.13569 0.80798,-18.21021 1.80575,-2.46161 1.8389,-2.46573 19.67411,-2.46573 17.83525,0 17.86839,0.004 19.6741,2.46573 0.78826,1.07452 0.80803,1.52039 0.80803,18.21021 0,16.68983 -0.0189,17.1357 -0.80803,18.21022 -1.80571,2.46161 -1.83885,2.46573 -19.6741,2.46573 -14.64397,0 -16.31838,-0.065 -17.52835,-0.6821 z m 51.49787,0 c -0.73576,-0.3753 -1.70135,-1.17781 -2.14575,-1.78363 -0.78822,-1.07452 -0.80799,-1.52039 -0.80799,-18.21022 0,-16.68982 0.0189,-17.13569 0.80799,-18.21021 1.80575,-2.46161 1.83885,-2.46573 19.6741,-2.46573 17.83525,0 17.8684,0.004 19.67411,2.46573 0.78822,1.07452 0.80799,1.52039 0.80799,18.21021 0,16.68983 -0.0189,17.1357 -0.80799,18.21022 -1.80571,2.46161 -1.83886,2.46573 -19.67411,2.46573 -14.644,0 -16.31837,-0.065 -17.52835,-0.6821 z m -183.1048,-173.35139 c -3.98816,-0.93963 -8.4576,-4.70305 -10.28599,-8.66116 l -1.11942,-2.42336 v -16.58895 -16.58895 l 1.26826,-2.52771 c 0.69755,-1.39019 1.68541,-2.99509 2.19523,-3.56644 4.43047,-4.96483 11.29213,-6.60665 17.60383,-4.21213 3.21543,1.21988 7.10392,5.08456 8.42358,8.37199 l 0.93967,2.34081 v 16.19063 c 0,16.03204 -0.008,16.21259 -0.90535,18.4326 -1.05377,2.60954 -4.09674,6.1194 -6.5537,7.55925 -3.21623,1.88485 -7.8333,2.55284 -11.56611,1.67342 z m 187.28114,-0.12737 c -2.63765,-0.76199 -4.93708,-2.21567 -7.00977,-4.43153 -4.10329,-4.38675 -4.30515,-5.56815 -4.14788,-24.27666 0.12472,-14.81745 0.1387,-15.05182 1.06586,-17.36104 0.68152,-1.69772 1.64614,-3.04724 3.51122,-4.91236 3.46613,-3.46609 5.83952,-4.42515 10.9595,-4.42851 3.37424,-10e-4 3.936,0.10923 6.27087,1.24267 3.12911,1.51911 6.22114,4.65411 7.69754,7.80461 l 1.05177,2.24428 v 16.58895 16.58899 l -1.24638,2.5318 c -1.56922,3.1875 -4.29014,5.92958 -7.40583,7.46343 -1.97208,0.97085 -3.01671,1.21704 -5.66109,1.33417 -2.00485,0.0888 -3.94636,-0.0597 -5.08581,-0.3888 z"
       id="path849"
       inkscape:connector-curvature="0" />
  </g>
</svg>
