<?xml version="1.0" encoding="UTF-8" standalone="no"?>
<svg
   xmlns:dc="http://purl.org/dc/elements/1.1/"
   xmlns:cc="http://creativecommons.org/ns#"
   xmlns:rdf="http://www.w3.org/1999/02/22-rdf-syntax-ns#"
   xmlns:svg="http://www.w3.org/2000/svg"
   xmlns="http://www.w3.org/2000/svg"
   xmlns:sodipodi="http://sodipodi.sourceforge.net/DTD/sodipodi-0.dtd"
   xmlns:inkscape="http://www.inkscape.org/namespaces/inkscape"
   viewBox="0 0 64 64"
   version="1.1"
   id="svg6"
   sodipodi:docname="view-media-title.svg"
   width="64"
   height="64"
   inkscape:version="0.92.2 5c3e80d, 2017-08-06">
  <metadata
     id="metadata10">
    <rdf:RDF>
      <cc:Work
         rdf:about="">
        <dc:format>image/svg+xml</dc:format>
        <dc:type
           rdf:resource="http://purl.org/dc/dcmitype/StillImage" />
        <dc:title></dc:title>
      </cc:Work>
    </rdf:RDF>
  </metadata>
  <sodipodi:namedview
     pagecolor="#ffffff"
     bordercolor="#666666"
     borderopacity="1"
     objecttolerance="10"
     gridtolerance="10"
     guidetolerance="10"
     inkscape:pageopacity="0"
     inkscape:pageshadow="2"
     inkscape:window-width="1366"
     inkscape:window-height="717"
     id="namedview8"
     showgrid="false"
     inkscape:zoom="0.43457604"
     inkscape:cx="484.46953"
     inkscape:cy="26.75246"
     inkscape:window-x="0"
     inkscape:window-y="24"
     inkscape:window-maximized="1"
     inkscape:current-layer="svg6" />
  <defs
     id="defs3051">
    <style
       type="text/css"
       id="current-color-scheme">
      .ColorScheme-Text {
        color:#4d4d4d;
      }
      </style>
  </defs>
  <g
     id="g854"
     transform="matrix(0.125,0,0,0.125,7.3362504e-8,56)">
    <path
       style="fill:#3689e6;fill-opacity:1;stroke-width:11.10955811"
       inkscape:connector-curvature="0"
       d="m 432.91322,-391.52602 c 102.19295,88.57472 105.82687,249.69984 8.1168,359.898874 C 343.31994,78.571875 181.27962,96.100515 79.086658,7.5261332 -23.106292,-81.048584 -26.739896,-242.1737 70.969858,-352.37274 168.67994,-462.57178 330.72026,-480.10074 432.91322,-391.52602 Z"
       id="path52" />
    <path
       style="opacity:1;fill:#000000;fill-opacity:0.49019608;stroke-width:11.10955811"
       inkscape:connector-curvature="0"
       d="m 511.63545,-223.09658 c -1.552,61.31168 -25.16127,124.154876 -70.96639,175.814716 C 342.9593,62.917156 180.91866,80.445795 78.725698,-8.1285868 30.827138,-49.644424 4.4969079,-107.07706 0.19386792,-167.77114 0.79866792,-101.41434 27.117388,-37.517706 79.078658,7.5190932 181.27162,96.093795 343.31962,78.556195 441.02202,-31.634186 490.72697,-87.692424 514.02713,-156.92506 511.63545,-223.09658 Z"
       id="path54" />
    <path
       inkscape:connector-curvature="0"
       style="fill:#000000;fill-opacity:0.49019608;stroke-width:0.86791039"
       d="m 181.35742,-327.99952 -5.85156,2.27734 c -13.35327,5.19512 -23.18283,13.80606 -28.80859,25.23828 -4.22932,8.59454 -5.66349,16.16718 -5.68165,29.98438 L 141,-259.00147 h 18.20508 18.20703 l 1.53711,2.34765 c 2.12618,3.24522 2.12715,12.88183 0.002,16.13086 l -1.53906,2.35156 H 159.20703 141 v 27.77344 27.77344 h 18.58203 18.58399 l 2.13867,2.54102 c 2.68883,3.19551 3.56733,7.71099 2.36719,12.16796 -1.59371,5.91851 -2.358,6.1211 -23.20508,6.1211 H 141 v 27.77344 27.77343 h 19.07422 19.07422 l 1.53906,2.34766 c 1.12213,1.71259 1.53906,4.081746 1.53906,8.753906 0,9.83451 0.25375,9.72656 -22.66211,9.72656 H 141 v 12.466795 c 2e-5,14.20606 0.75487,19.267171 4.01367,26.863281 3.0248,11.19099 8.83072,16.049343 16.94141,21.570313 l 6.25586,2.970703 c 11.97638,5.68753 8.93421,5.530215 108.26172,5.546875 86.72022,0.0145 90.14331,-0.0455 96.60937,-1.699219 9.55614,-2.44405 16.47538,-6.388255 23.5918,-13.447266 4.40476,-4.36923 7.05765,-7.950248 9.34179,-12.611328 5.97454,-12.19159 5.74107,-7.095143 5.75782,-124.73242 l 0.01,-67.6582 h -0.19726 l -0.25,-50.61133 c 0,0 -1.76735,-5.44755 -2.87891,-8.49609 -5.21285,-14.29674 -16.91112,-25.49045 -32.14453,-30.75586 l -5.75024,-1.98633 h -94.60156 z m 123.13867,76.88672 c 5.50542,0 9.26812,3.83228 11.28907,11.49805 l 6.58593,35.12304 15.57422,72.65235 5.95899,16.51562 c 2.02098,5.64478 3.03125,9.40748 3.03125,11.28906 0,2.99664 -1.07988,5.506386 -3.24024,7.527346 -2.16036,2.02098 -4.63433,3.03125 -7.42187,3.03125 -6.41138,0 -11.9858,-8.223366 -16.72461,-24.669916 -1.8119,-6.27198 -4.07706,-17.24779 -6.79492,-32.92774 -7.10826,0.97565 -16.41151,2.71779 -27.91016,5.22656 l -27.80664,5.74805 c -3.48443,9.12924 -9.44267,22.47557 -17.875,40.03711 -2.23004,3.902566 -5.26086,5.853516 -9.09375,5.853516 -2.78755,0 -5.2973,-1.01027 -7.52734,-3.03125 -2.16036,-2.02095 -3.24024,-4.530706 -3.24024,-7.527346 0,-3.34506 5.26216,-16.063 15.78516,-38.1543 -1.18471,-1.81189 -1.77735,-3.90203 -1.77735,-6.27148 0,-5.64478 3.41466,-9.26825 10.24414,-10.87109 7.94451,-14.91336 17.97963,-32.05622 30.10547,-51.42969 16.51624,-26.41205 26.79595,-39.61914 30.83789,-39.61914 z m -5.12304,38.1543 -29.89649,48.18945 c 8.43234,-2.16035 21.21985,-4.77352 38.36328,-7.83985 z"
       id="path43" />
    <path
       id="path36"
       d="m 161.35742,-348 -5.85156,2.27734 c -13.35327,5.19512 -23.18283,13.80606 -28.80859,25.23828 -4.22932,8.59454 -5.66349,16.16718 -5.68165,29.98438 L 121,-279.00195 h 18.20508 18.20703 l 1.53711,2.34765 c 2.12618,3.24522 2.12715,12.88183 0.002,16.13086 l -1.53906,2.35156 H 139.20703 121 v 27.77344 27.77344 h 18.58203 18.58399 l 2.13867,2.54102 c 2.68883,3.19551 3.56733,7.71099 2.36719,12.16796 -1.59371,5.91851 -2.358,6.1211 -23.20508,6.1211 H 121 v 27.77344 27.77343 h 19.07422 19.07422 l 1.53906,2.34766 c 1.12213,1.71259 1.53906,4.08175 1.53906,8.75391 0,9.83451 0.25375,9.72656 -22.66211,9.72656 H 121 v 12.466795 c 2e-5,14.20606 0.75487,19.267171 4.01367,26.863281 3.0248,11.19099 8.83072,16.049343 16.94141,21.570313 l 6.25586,2.970703 c 11.97638,5.68753 8.93421,5.530215 108.26172,5.546875 86.72022,0.0145 90.14331,-0.0455 96.60937,-1.699219 9.55614,-2.44405 16.47538,-6.388255 23.5918,-13.447266 4.40476,-4.36923 7.05765,-7.950248 9.34179,-12.611328 5.97454,-12.19159 5.74107,-7.095143 5.75782,-124.732424 l 0.01,-67.6582 h -0.19726 l -0.25,-50.61133 c 0,0 -1.76735,-5.44755 -2.87891,-8.49609 -5.21285,-14.29674 -16.91112,-25.49045 -32.14453,-30.75586 L 350.5625,-348 h -94.60156 z m 123.13867,76.88672 c 5.50542,0 9.26812,3.83228 11.28907,11.49805 l 6.58593,35.12304 15.57422,72.65235 5.95899,16.51562 c 2.02098,5.64478 3.03125,9.40748 3.03125,11.28906 0,2.99664 -1.07988,5.50639 -3.24024,7.52735 -2.16036,2.02098 -4.63433,3.03125 -7.42187,3.03125 -6.41138,0 -11.9858,-8.22337 -16.72461,-24.66992 -1.8119,-6.27198 -4.07706,-17.24779 -6.79492,-32.92774 -7.10826,0.97565 -16.41151,2.71779 -27.91016,5.22656 l -27.80664,5.74805 c -3.48443,9.12924 -9.44267,22.47557 -17.875,40.03711 -2.23004,3.90257 -5.26086,5.85352 -9.09375,5.85352 -2.78755,0 -5.2973,-1.01027 -7.52734,-3.03125 -2.16036,-2.02095 -3.24024,-4.53071 -3.24024,-7.52735 0,-3.34506 5.26216,-16.063 15.78516,-38.1543 -1.18471,-1.81189 -1.77735,-3.90203 -1.77735,-6.27148 0,-5.64478 3.41466,-9.26825 10.24414,-10.87109 7.94451,-14.91336 17.97963,-32.05622 30.10547,-51.42969 16.51624,-26.41205 26.79595,-39.61914 30.83789,-39.61914 z m -5.12304,38.1543 -29.89649,48.18945 c 8.43234,-2.16035 21.21985,-4.77352 38.36328,-7.83985 z"
       style="fill:#ffffff;stroke-width:0.86791039"
       inkscape:connector-curvature="0" />
  </g>
</svg>
