<?xml version="1.0" encoding="UTF-8" standalone="no"?>
<svg
   xmlns:dc="http://purl.org/dc/elements/1.1/"
   xmlns:cc="http://creativecommons.org/ns#"
   xmlns:rdf="http://www.w3.org/1999/02/22-rdf-syntax-ns#"
   xmlns:svg="http://www.w3.org/2000/svg"
   xmlns="http://www.w3.org/2000/svg"
   xmlns:sodipodi="http://sodipodi.sourceforge.net/DTD/sodipodi-0.dtd"
   xmlns:inkscape="http://www.inkscape.org/namespaces/inkscape"
   viewBox="0 0 64 64"
   version="1.1"
   id="svg6"
   sodipodi:docname="view-task-child.svg"
   width="64"
   height="64"
   inkscape:version="0.92.2 5c3e80d, 2017-08-06">
  <metadata
     id="metadata10">
    <rdf:RDF>
      <cc:Work
         rdf:about="">
        <dc:format>image/svg+xml</dc:format>
        <dc:type
           rdf:resource="http://purl.org/dc/dcmitype/StillImage" />
        <dc:title></dc:title>
      </cc:Work>
    </rdf:RDF>
  </metadata>
  <sodipodi:namedview
     pagecolor="#ffffff"
     bordercolor="#666666"
     borderopacity="1"
     objecttolerance="10"
     gridtolerance="10"
     guidetolerance="10"
     inkscape:pageopacity="0"
     inkscape:pageshadow="2"
     inkscape:window-width="1366"
     inkscape:window-height="717"
     id="namedview8"
     showgrid="false"
     inkscape:zoom="2.4583333"
     inkscape:cx="31.515573"
     inkscape:cy="-20.94768"
     inkscape:window-x="0"
     inkscape:window-y="24"
     inkscape:window-maximized="1"
     inkscape:current-layer="svg6" />
  <defs
     id="defs3051">
    <style
       type="text/css"
       id="current-color-scheme">
      .ColorScheme-Text {
        color:#4d4d4d;
      }
      </style>
  </defs>
  <g
     id="g878"
     transform="matrix(0.125,0,0,0.125,1.2309213e-7,60.999999)">
    <path
       id="path842"
       d="m 432.91327,-431.52602 c 102.19291,88.57459 105.82677,249.6997 8.1168,359.898781 C 343.3201,38.57184 181.27963,56.100608 79.086725,-32.47398 -23.10618,-121.04857 -26.740045,-282.17368 70.969925,-392.37276 168.67989,-502.57184 330.72037,-520.10061 432.91327,-431.52602 Z"
       inkscape:connector-curvature="0"
       style="fill:#3689e6;fill-opacity:1;stroke-width:11.10955715" />
    <path
       id="path845"
       d="m 511.6355,-263.09648 c -1.55138,61.31165 -25.16122,124.15461 -70.96637,175.814476 C 342.95916,22.917112 180.91868,40.445843 78.72578,-48.128707 30.827148,-89.64436 4.4968427,-147.07716 0.19385056,-207.77119 0.79910409,-141.41452 27.117428,-77.517821 79.078675,-32.480934 181.27161,56.093616 343.31976,38.556193 441.02202,-71.634231 490.72697,-127.69234 514.02704,-196.92519 511.6355,-263.09648 Z"
       inkscape:connector-curvature="0"
       style="opacity:1;fill:#000000;fill-opacity:0.49019608;stroke-width:11.10955715" />
    <g
       style="fill:#000000;fill-opacity:0.49019608"
       transform="translate(20,19.999977)"
       id="g866">
      <path
         sodipodi:nodetypes="scccccccccscccscccccccscccccccccccsccccccccccccsccsccsccccccccscccccccccccc"
         inkscape:connector-curvature="0"
         id="path860"
         d="m 160.53125,-390 c -4.37545,0.0402 -8.57124,1.88355 -11.61719,5.29688 -0.50982,0.57134 -1.49776,2.17621 -2.19531,3.5664 l -1.26758,2.52734 v 16.58985 16.58789 l 1.11914,2.42383 c 1.82839,3.95811 6.297,7.72248 10.28516,8.66211 3.73281,0.87942 8.35018,0.21102 11.56641,-1.67383 2.45696,-1.43985 5.50091,-4.95101 6.55468,-7.56055 0.89735,-2.22001 0.9043,-2.3996 0.9043,-18.43164 v -16.1914 l -0.93945,-2.33985 c -1.31966,-3.28743 -5.2084,-7.15317 -8.42383,-8.37305 -1.97241,-0.74828 -3.99749,-1.10227 -5.98633,-1.08398 z m 187.98437,0.11523 c -5.11998,0.003 -7.49285,0.9636 -10.95898,4.42969 -1.86508,1.86512 -2.8302,3.21439 -3.51172,4.91211 -0.92716,2.30922 -0.93973,2.54388 -1.06445,17.36133 -0.15727,18.70851 0.0432,19.88864 4.14648,24.27539 2.07269,2.21586 4.37212,3.66965 7.00977,4.43164 1.13945,0.3291 3.08109,0.47747 5.08594,0.38867 2.64438,-0.11713 3.69003,-0.36313 5.66211,-1.33398 3.11569,-1.53385 5.83703,-4.27539 7.40625,-7.46289 l 1.24609,-2.53125 v -16.58985 -16.58789 l -1.05273,-2.24414 c -1.47641,-3.1505 -4.56816,-6.28557 -7.69727,-7.80468 -2.33487,-1.13345 -2.89725,-1.24515 -6.27149,-1.24415 z m -212.35156,23.58204 -14.08203,0.008 c -13.31324,0.008 -14.18028,0.0512 -15.83984,0.80078 -2.48458,1.12233 -4.55428,3.29097 -5.46485,5.72461 C 100.0072,-357.70769 100,-356.59 100,-222.20312 c 0,125.449246 0.0481,135.629021 0.65039,137.396479 0.82454,2.419993 3.64738,5.307365 6.00195,6.138672 1.56382,0.552186 16.11161,0.618071 147.67383,0.644531 17.34772,0.0037 23.50276,0.0023 37.0625,0.0078 v -20.681641 l -36.70117,-0.0098 c -69.09297,-0.01663 -126.06374,-0.164475 -126.60156,-0.328125 -2.89807,-0.88154 -5.31104,-3.031386 -6.59766,-5.876956 -0.79102,-1.75075 -0.79473,-2.0332 -0.80273,-101.86133 l -0.008,-100.10547 1.18165,-2.36523 c 0.65309,-1.30696 1.78492,-2.82482 2.52929,-3.39258 3.05795,-2.33235 -6.81189,-2.16797 130.08399,-2.16797 113.42056,0 125.67967,0.0595 127.3164,0.61719 2.04827,0.69792 4.5187,2.96427 5.59961,5.13867 0.70118,1.41071 0.72961,4.86364 0.83203,101.72461 0.006,5.3778 0.005,5.89968 0.01,10.7207 h 20.67969 c -0.01,-10.41631 -0.0103,-13.7566 -0.0195,-26.33398 l -0.0996,-136.14844 -0.84375,-1.56054 c -1.12112,-2.0739 -3.05405,-3.87403 -5.20313,-4.84571 -1.66064,-0.75095 -2.51945,-0.79473 -15.9043,-0.80273 l -14.15039,-0.008 0.2461,6.92578 c 0.36997,10.34785 -0.43678,15.9415 -3.14844,21.81054 -2.56818,5.55855 -8.63721,10.23845 -15.41992,11.89063 -3.03881,0.74015 -9.75948,0.62934 -12.87305,-0.21289 -8.03456,-2.17338 -13.8602,-8.02642 -16.3418,-16.41992 -1.20314,-4.06972 -1.66759,-10.00693 -1.36523,-17.45899 l 0.26562,-6.53515 H 254.5997 185.14657 l 0.0371,9.46093 c 0.0333,8.58773 -0.0432,9.78221 -0.83984,12.95508 -2.34712,9.34817 -7.26856,14.81772 -15.875,17.64258 -3.97039,1.30314 -10.58988,1.46585 -14.62891,0.36133 -7.11621,-1.94605 -12.92893,-7.0994 -15.57422,-13.81055 -1.77241,-4.4967 -2.14954,-7.56566 -2.12304,-17.34375 z"
         style="fill:#000000;fill-opacity:0.49019608;stroke-width:0.39013538" />
      <path
         inkscape:connector-curvature="0"
         id="path862"
         d="m 225.70785,-132.5939 c -1.85508,-0.81179 -42.46435,-40.27392 -54.60365,-53.06124 -7.73422,-8.14705 -8.07525,-8.60131 -8.31274,-11.0728 -0.16104,-1.67691 0.0399,-3.12837 0.56956,-4.15497 0.94959,-1.83349 9.20493,-11.57151 15.0543,-17.75815 3.95227,-4.18013 4.10813,-4.28062 7.01237,-4.52148 2.80733,-0.23291 3.1178,-0.1291 5.66139,1.89489 1.48011,1.17767 9.2142,8.50507 17.18689,16.28308 7.97265,7.77806 14.98802,14.40538 15.58971,14.72738 2.50752,1.342 3.96336,0.23291 13.41296,-10.21717 5.02489,-5.55692 22.36485,-25.07977 38.53325,-43.38405 16.1684,-18.30427 29.77303,-33.5772 30.23247,-33.93985 1.22036,-0.96321 4.06763,-1.40859 6.31255,-0.98748 1.57527,0.29548 3.49721,1.87279 9.79961,8.04217 11.46391,11.22195 13.2442,13.39656 13.54694,16.54741 0.17348,1.8065 -0.0399,3.13693 -0.70607,4.42773 -1.21742,2.35424 -26.20571,31.15248 -72.97868,84.10569 -26.83614,30.38204 -28.98687,32.68312 -31.09515,33.2687 -2.51231,0.69787 -3.22686,0.6705 -5.21571,-0.20009 z"
         style="fill:#000000;fill-opacity:0.49019608;stroke-width:0.54114634" />
      <path
         inkscape:connector-curvature="0"
         id="path864"
         d="m 297.41368,-78.246258 c -0.86877,-0.306727 -1.91061,-1.372207 -2.21484,-2.265113 -0.22222,-0.652139 -0.24,-4.408301 -0.24,-50.695349 0,-49.58478 0.003,-49.99725 0.28697,-50.75801 0.33597,-0.89794 1.09948,-1.69763 2.01621,-2.11174 0.61233,-0.27659 0.93201,-0.29278 5.8442,-0.29577 l 5.19643,-0.003 -0.008,3.41878 c -0.01,3.60783 0.12941,4.73987 0.78338,6.39902 0.97603,2.47621 3.12071,4.37826 5.74638,5.09629 1.49029,0.40754 3.93312,0.34694 5.39807,-0.13388 3.17552,-1.04229 4.99089,-3.05977 5.8569,-6.50897 0.29393,-1.17069 0.32256,-1.61184 0.31026,-4.78046 l -0.014,-3.49075 h 25.62599 25.62606 l -0.0978,2.41113 c -0.11156,2.74959 0.0598,4.94009 0.50375,6.4417 0.91564,3.09695 3.06489,5.25657 6.02941,6.05848 1.14881,0.31076 3.62906,0.35189 4.75029,0.0788 2.50262,-0.6096 4.74156,-2.3361 5.68914,-4.38704 1.00052,-2.16551 1.29863,-4.22989 1.16212,-8.04794 l -0.0913,-2.55509 5.22095,0.003 c 4.93862,0.003 5.256,0.019 5.86873,0.29604 0.79295,0.35852 1.50626,1.02284 1.91992,1.78805 l 0.31128,0.5758 0.0368,50.23437 c 0.0414,56.603059 0.15847,51.067667 -1.10623,52.332369 -1.27205,1.272052 4.75701,1.149501 -55.92379,1.136699 -48.54255,-0.0098 -53.91008,-0.03361 -54.48709,-0.23735 z m 101.69181,-7.719245 c 0.86689,-0.40454 1.67246,-1.260197 1.99807,-2.122315 0.22139,-0.586106 0.23649,-3.422657 0.2003,-37.628632 -0.0378,-35.73882 -0.0482,-37.01301 -0.30697,-37.53352 -0.39882,-0.80229 -1.3104,-1.63903 -2.06615,-1.89655 -0.6039,-0.20577 -5.12706,-0.2277 -46.97588,-0.2277 -50.51052,0 -46.86889,-0.0607 -47.99718,0.79991 -0.27465,0.20948 -0.6924,0.76989 -0.93337,1.25212 l -0.4362,0.87293 0.003,36.93575 c 0.003,36.833616 0.004,36.937552 0.29603,37.583526 0.47473,1.049931 1.3656,1.843407 2.4349,2.168669 0.19844,0.06038 21.21892,0.114632 46.71217,0.120768 l 46.35138,0.01114 0.71975,-0.335873 z m -83.1684,-86.618797 c -1.47152,-0.3467 -3.12061,-1.73529 -3.79523,-3.19571 l -0.41303,-0.89415 v -6.12083 -6.12083 l 0.46795,-0.93265 c 0.25737,-0.51294 0.62186,-1.1051 0.80997,-1.31591 1.63472,-1.83188 4.16646,-2.43766 6.49529,-1.55416 1.1864,0.4501 2.62114,1.87606 3.10806,3.08902 l 0.34671,0.86369 v 5.97386 c 0,5.91535 -0.003,5.98197 -0.33405,6.80108 -0.38881,0.96285 -1.51158,2.25788 -2.41812,2.78914 -1.1867,0.69546 -2.89026,0.94193 -4.26755,0.61745 z m 69.10118,-0.047 c -0.97321,-0.28115 -1.82164,-0.81752 -2.5864,-1.6351 -1.51399,-1.61858 -1.58847,-2.05448 -1.53044,-8.95737 0.046,-5.4672 0.0512,-5.55367 0.39327,-6.40571 0.25146,-0.62641 0.60738,-1.12434 1.29554,-1.81251 1.27889,-1.27889 2.1546,-1.63275 4.04373,-1.63399 1.24499,-3.7e-4 1.45226,0.0403 2.31376,0.45851 1.15455,0.5605 2.29542,1.71722 2.84016,2.87967 l 0.38808,0.82807 v 6.12083 6.12084 l -0.45988,0.93416 c -0.579,1.1761 -1.58294,2.18784 -2.73253,2.75379 -0.72764,0.35821 -1.11308,0.44905 -2.08878,0.49227 -0.73973,0.0328 -1.45609,-0.022 -1.87651,-0.14346 z"
         style="fill:#000000;fill-opacity:0.49019608;stroke-width:0.14394838"
         sodipodi:nodetypes="ccscccccccccccccccscccccccccscccccsccscccsccscccccccccccccsczcccccccccccccscc" />
    </g>
    <g
       id="g858">
      <path
         style="fill:#ffffff;stroke-width:0.39013538"
         d="m 160.53125,-390 c -4.37545,0.0402 -8.57124,1.88355 -11.61719,5.29688 -0.50982,0.57134 -1.49776,2.17621 -2.19531,3.5664 l -1.26758,2.52734 v 16.58985 16.58789 l 1.11914,2.42383 c 1.82839,3.95811 6.297,7.72248 10.28516,8.66211 3.73281,0.87942 8.35018,0.21102 11.56641,-1.67383 2.45696,-1.43985 5.50091,-4.95101 6.55468,-7.56055 0.89735,-2.22001 0.9043,-2.3996 0.9043,-18.43164 v -16.1914 l -0.93945,-2.33985 c -1.31966,-3.28743 -5.2084,-7.15317 -8.42383,-8.37305 -1.97241,-0.74828 -3.99749,-1.10227 -5.98633,-1.08398 z m 187.98437,0.11523 c -5.11998,0.003 -7.49285,0.9636 -10.95898,4.42969 -1.86508,1.86512 -2.8302,3.21439 -3.51172,4.91211 -0.92716,2.30922 -0.93973,2.54388 -1.06445,17.36133 -0.15727,18.70851 0.0432,19.88864 4.14648,24.27539 2.07269,2.21586 4.37212,3.66965 7.00977,4.43164 1.13945,0.3291 3.08109,0.47747 5.08594,0.38867 2.64438,-0.11713 3.69003,-0.36313 5.66211,-1.33398 3.11569,-1.53385 5.83703,-4.27539 7.40625,-7.46289 l 1.24609,-2.53125 v -16.58985 -16.58789 l -1.05273,-2.24414 c -1.47641,-3.1505 -4.56816,-6.28557 -7.69727,-7.80468 -2.33487,-1.13345 -2.89725,-1.24515 -6.27149,-1.24415 z m -212.35156,23.58204 -14.08203,0.008 c -13.31324,0.008 -14.18028,0.0512 -15.83984,0.80078 -2.48458,1.12233 -4.55428,3.29097 -5.46485,5.72461 C 100.0072,-357.70769 100,-356.59 100,-222.20312 c 0,125.449246 0.0481,135.629021 0.65039,137.396479 0.82454,2.419993 3.64738,5.307365 6.00195,6.138672 1.56382,0.552186 16.11161,0.618071 147.67383,0.644531 17.34772,0.0037 23.50276,0.0023 37.0625,0.0078 v -20.681641 l -36.70117,-0.0098 c -69.09297,-0.01663 -126.06374,-0.164475 -126.60156,-0.328125 -2.89807,-0.88154 -5.31104,-3.031386 -6.59766,-5.876956 -0.79102,-1.75075 -0.79473,-2.0332 -0.80273,-101.86133 l -0.008,-100.10547 1.18165,-2.36523 c 0.65309,-1.30696 1.78492,-2.82482 2.52929,-3.39258 3.05795,-2.33235 -6.81189,-2.16797 130.08399,-2.16797 113.42056,0 125.67967,0.0595 127.3164,0.61719 2.04827,0.69792 4.5187,2.96427 5.59961,5.13867 0.70118,1.41071 0.72961,4.86364 0.83203,101.72461 0.006,5.3778 0.005,5.89968 0.01,10.7207 h 20.67969 c -0.01,-10.41631 -0.0103,-13.7566 -0.0195,-26.33398 l -0.0996,-136.14844 -0.84375,-1.56054 c -1.12112,-2.0739 -3.05405,-3.87403 -5.20313,-4.84571 -1.66064,-0.75095 -2.51945,-0.79473 -15.9043,-0.80273 l -14.15039,-0.008 0.2461,6.92578 c 0.36997,10.34785 -0.43678,15.9415 -3.14844,21.81054 -2.56818,5.55855 -8.63721,10.23845 -15.41992,11.89063 -3.03881,0.74015 -9.75948,0.62934 -12.87305,-0.21289 -8.03456,-2.17338 -13.8602,-8.02642 -16.3418,-16.41992 -1.20314,-4.06972 -1.66759,-10.00693 -1.36523,-17.45899 l 0.26562,-6.53515 H 254.5997 185.14657 l 0.0371,9.46093 c 0.0333,8.58773 -0.0432,9.78221 -0.83984,12.95508 -2.34712,9.34817 -7.26856,14.81772 -15.875,17.64258 -3.97039,1.30314 -10.58988,1.46585 -14.62891,0.36133 -7.11621,-1.94605 -12.92893,-7.0994 -15.57422,-13.81055 -1.77241,-4.4967 -2.14954,-7.56566 -2.12304,-17.34375 z"
         id="path849"
         inkscape:connector-curvature="0"
         sodipodi:nodetypes="scccccccccscccscccccccscccccccccccsccccccccccccsccsccsccccccccscccccccccccc" />
      <path
         style="fill:#ffffff;stroke-width:0.54114634"
         d="m 225.70785,-132.5939 c -1.85508,-0.81179 -42.46435,-40.27392 -54.60365,-53.06124 -7.73422,-8.14705 -8.07525,-8.60131 -8.31274,-11.0728 -0.16104,-1.67691 0.0399,-3.12837 0.56956,-4.15497 0.94959,-1.83349 9.20493,-11.57151 15.0543,-17.75815 3.95227,-4.18013 4.10813,-4.28062 7.01237,-4.52148 2.80733,-0.23291 3.1178,-0.1291 5.66139,1.89489 1.48011,1.17767 9.2142,8.50507 17.18689,16.28308 7.97265,7.77806 14.98802,14.40538 15.58971,14.72738 2.50752,1.342 3.96336,0.23291 13.41296,-10.21717 5.02489,-5.55692 22.36485,-25.07977 38.53325,-43.38405 16.1684,-18.30427 29.77303,-33.5772 30.23247,-33.93985 1.22036,-0.96321 4.06763,-1.40859 6.31255,-0.98748 1.57527,0.29548 3.49721,1.87279 9.79961,8.04217 11.46391,11.22195 13.2442,13.39656 13.54694,16.54741 0.17348,1.8065 -0.0399,3.13693 -0.70607,4.42773 -1.21742,2.35424 -26.20571,31.15248 -72.97868,84.10569 -26.83614,30.38204 -28.98687,32.68312 -31.09515,33.2687 -2.51231,0.69787 -3.22686,0.6705 -5.21571,-0.20009 z"
         id="path846"
         inkscape:connector-curvature="0" />
      <path
         sodipodi:nodetypes="ccscccccccccccccccscccccccccscccccsccscccsccscccccccccccccsczcccccccccccccscc"
         style="fill:#ffffff;stroke-width:0.14394838"
         d="m 297.41368,-78.246258 c -0.86877,-0.306727 -1.91061,-1.372207 -2.21484,-2.265113 -0.22222,-0.652139 -0.24,-4.408301 -0.24,-50.695349 0,-49.58478 0.003,-49.99725 0.28697,-50.75801 0.33597,-0.89794 1.09948,-1.69763 2.01621,-2.11174 0.61233,-0.27659 0.93201,-0.29278 5.8442,-0.29577 l 5.19643,-0.003 -0.008,3.41878 c -0.01,3.60783 0.12941,4.73987 0.78338,6.39902 0.97603,2.47621 3.12071,4.37826 5.74638,5.09629 1.49029,0.40754 3.93312,0.34694 5.39807,-0.13388 3.17552,-1.04229 4.99089,-3.05977 5.8569,-6.50897 0.29393,-1.17069 0.32256,-1.61184 0.31026,-4.78046 l -0.014,-3.49075 h 25.62599 25.62606 l -0.0978,2.41113 c -0.11156,2.74959 0.0598,4.94009 0.50375,6.4417 0.91564,3.09695 3.06489,5.25657 6.02941,6.05848 1.14881,0.31076 3.62906,0.35189 4.75029,0.0788 2.50262,-0.6096 4.74156,-2.3361 5.68914,-4.38704 1.00052,-2.16551 1.29863,-4.22989 1.16212,-8.04794 l -0.0913,-2.55509 5.22095,0.003 c 4.93862,0.003 5.256,0.019 5.86873,0.29604 0.79295,0.35852 1.50626,1.02284 1.91992,1.78805 l 0.31128,0.5758 0.0368,50.23437 c 0.0414,56.603059 0.15847,51.067667 -1.10623,52.332369 -1.27205,1.272052 4.75701,1.149501 -55.92379,1.136699 -48.54255,-0.0098 -53.91008,-0.03361 -54.48709,-0.23735 z m 101.69181,-7.719245 c 0.86689,-0.40454 1.67246,-1.260197 1.99807,-2.122315 0.22139,-0.586106 0.23649,-3.422657 0.2003,-37.628632 -0.0378,-35.73882 -0.0482,-37.01301 -0.30697,-37.53352 -0.39882,-0.80229 -1.3104,-1.63903 -2.06615,-1.89655 -0.6039,-0.20577 -5.12706,-0.2277 -46.97588,-0.2277 -50.51052,0 -46.86889,-0.0607 -47.99718,0.79991 -0.27465,0.20948 -0.6924,0.76989 -0.93337,1.25212 l -0.4362,0.87293 0.003,36.93575 c 0.003,36.833616 0.004,36.937552 0.29603,37.583526 0.47473,1.049931 1.3656,1.843407 2.4349,2.168669 0.19844,0.06038 21.21892,0.114632 46.71217,0.120768 l 46.35138,0.01114 0.71975,-0.335873 z m -83.1684,-86.618797 c -1.47152,-0.3467 -3.12061,-1.73529 -3.79523,-3.19571 l -0.41303,-0.89415 v -6.12083 -6.12083 l 0.46795,-0.93265 c 0.25737,-0.51294 0.62186,-1.1051 0.80997,-1.31591 1.63472,-1.83188 4.16646,-2.43766 6.49529,-1.55416 1.1864,0.4501 2.62114,1.87606 3.10806,3.08902 l 0.34671,0.86369 v 5.97386 c 0,5.91535 -0.003,5.98197 -0.33405,6.80108 -0.38881,0.96285 -1.51158,2.25788 -2.41812,2.78914 -1.1867,0.69546 -2.89026,0.94193 -4.26755,0.61745 z m 69.10118,-0.047 c -0.97321,-0.28115 -1.82164,-0.81752 -2.5864,-1.6351 -1.51399,-1.61858 -1.58847,-2.05448 -1.53044,-8.95737 0.046,-5.4672 0.0512,-5.55367 0.39327,-6.40571 0.25146,-0.62641 0.60738,-1.12434 1.29554,-1.81251 1.27889,-1.27889 2.1546,-1.63275 4.04373,-1.63399 1.24499,-3.7e-4 1.45226,0.0403 2.31376,0.45851 1.15455,0.5605 2.29542,1.71722 2.84016,2.87967 l 0.38808,0.82807 v 6.12083 6.12084 l -0.45988,0.93416 c -0.579,1.1761 -1.58294,2.18784 -2.73253,2.75379 -0.72764,0.35821 -1.11308,0.44905 -2.08878,0.49227 -0.73973,0.0328 -1.45609,-0.022 -1.87651,-0.14346 z"
         id="path850"
         inkscape:connector-curvature="0" />
    </g>
  </g>
</svg>
