<?xml version="1.0" encoding="UTF-8" standalone="no"?>
<svg
   xmlns:dc="http://purl.org/dc/elements/1.1/"
   xmlns:cc="http://creativecommons.org/ns#"
   xmlns:rdf="http://www.w3.org/1999/02/22-rdf-syntax-ns#"
   xmlns:svg="http://www.w3.org/2000/svg"
   xmlns="http://www.w3.org/2000/svg"
   xmlns:sodipodi="http://sodipodi.sourceforge.net/DTD/sodipodi-0.dtd"
   xmlns:inkscape="http://www.inkscape.org/namespaces/inkscape"
   viewBox="0 0 64 64"
   version="1.1"
   id="svg6"
   sodipodi:docname="view-time-schedule-child-insert.svg"
   width="64"
   height="64"
   inkscape:version="0.92.2 5c3e80d, 2017-08-06">
  <metadata
     id="metadata10">
    <rdf:RDF>
      <cc:Work
         rdf:about="">
        <dc:format>image/svg+xml</dc:format>
        <dc:type
           rdf:resource="http://purl.org/dc/dcmitype/StillImage" />
        <dc:title></dc:title>
      </cc:Work>
    </rdf:RDF>
  </metadata>
  <sodipodi:namedview
     pagecolor="#ffffff"
     bordercolor="#666666"
     borderopacity="1"
     objecttolerance="10"
     gridtolerance="10"
     guidetolerance="10"
     inkscape:pageopacity="0"
     inkscape:pageshadow="2"
     inkscape:window-width="1366"
     inkscape:window-height="717"
     id="namedview8"
     showgrid="false"
     inkscape:zoom="0.43457604"
     inkscape:cx="75.639929"
     inkscape:cy="260.18288"
     inkscape:window-x="0"
     inkscape:window-y="24"
     inkscape:window-maximized="1"
     inkscape:current-layer="svg6" />
  <defs
     id="defs3051">
    <style
       type="text/css"
       id="current-color-scheme">
      .ColorScheme-Text {
        color:#4d4d4d;
      }
      </style>
  </defs>
  <g
     id="g941">
    <path
       id="path1148"
       d="M 54.11415,7.0592474 C 66.888287,18.131071 67.342496,38.271711 55.12876,52.046596 42.915027,65.821481 22.659971,68.012577 9.8858297,56.940753 -2.8882648,45.868929 -3.3425167,25.728291 8.8712628,11.953405 21.084995,-1.82148 41.340051,-4.0125762 54.11415,7.0592474 Z"
       inkscape:connector-curvature="0"
       style="fill:#68b723;fill-opacity:1;stroke-width:1.38869476" />
    <path
       id="path1150"
       d="M 63.954433,28.112941 C 63.760538,35.776897 60.8093,43.632266 55.083646,50.08975 42.869914,63.86464 22.614854,66.055731 9.8407115,54.983912 3.853373,49.794455 0.56211314,42.615357 0.02423913,35.028602 0.09987692,43.323187 3.3896722,51.310273 9.8848375,56.939884 22.658933,68.011703 42.91498,65.819525 55.127772,52.045722 61.34089,45.038459 64.253393,36.384352 63.954433,28.112941 Z"
       inkscape:connector-curvature="0"
       style="opacity:1;fill:#000000;fill-opacity:0.49019608;stroke-width:1.38869476" />
    <g
       style="fill:#000000;fill-opacity:0.49019608"
       transform="matrix(0.125,0,0,0.125,2.4999468,58.500068)"
       id="g923">
      <path
         sodipodi:nodetypes="ssccsccccccccssccccccccsssscssccccssscs"
         inkscape:connector-curvature="0"
         id="path911"
         d="m 256,-347.92969 c -49.57073,0 -99.14256,0.34387 -103.38086,1.03125 -26.49154,4.29649 -47.29764,25.11604 -51.59766,51.62891 -1.350303,8.32601 -1.366529,198.274817 -0.0176,206.562499 2.12093,13.03032 7.53168,23.764032 16.92578,33.576172 9.12535,9.53144 21.30158,15.984033 34.25976,18.158203 2.76086,0.463207 44.27964,0.758752 78.2168,0.890625 l -14,-31.007813 h -7.29687 -9.76172 v -0.03125 l -7.7461,-0.02344 c -18.3291,-0.05754 -22.71428,-0.492865 -29.67968,-2.953125 -12.37136,-4.36968 -23.67277,-15.878222 -27.95508,-28.46875 -2.6894,-7.907151 -2.80274,-10.407301 -2.80274,-61.048821 v -66.14258 h 38.97266 29.21094 9.76172 7.29687 v -0.15625 H 411.9375 c -0.125,-36.15456 -0.44469,-66.18336 -0.96484,-69.39063 -2.17021,-13.38122 -8.46591,-25.39305 -18.17969,-34.6875 -9.81303,-9.3894 -20.54275,-14.81874 -33.41406,-16.90625 -4.2383,-0.68738 -53.80818,-1.03125 -103.37891,-1.03125 z m 0,31.13672 c 40.87257,0 81.74546,0.23291 84.73828,0.69727 10.37108,1.60913 18.90868,6.00593 26.39649,13.59375 5.7658,5.84282 9.28068,11.73611 11.65039,19.53711 1.63425,5.37989 1.66798,-12.16266 1.9082,6.8164 l 0.24609,19.33399 H 256.05078 131.16406 v -16.78321 c 0,-9.23004 0.29844,-0.70991 0.66406,-3.0664 1.577,-10.164 5.98764,-18.8392 13.29102,-26.14258 7.30339,-7.30338 15.97858,-11.71206 26.14258,-13.28906 2.99283,-0.46436 43.86571,-0.69727 84.73828,-0.69727 z"
         style="fill:#000000;fill-opacity:0.49019608;stroke-width:0.60895646" />
      <g
         style="fill:#000000;fill-opacity:0.49019608"
         id="g919"
         transform="translate(126.71186,121.08474)">
        <rect
           ry="9.75"
           y="-250.5"
           x="139"
           height="58.5"
           width="19.5"
           id="rect913"
           style="opacity:1;fill:#000000;fill-opacity:0.49019608;stroke:none;stroke-width:0.37795275;stroke-miterlimit:4;stroke-dasharray:none;stroke-dashoffset:0;stroke-opacity:1" />
        <rect
           style="opacity:1;fill:#000000;fill-opacity:0.49019608;stroke:none;stroke-width:0.37795275;stroke-miterlimit:4;stroke-dasharray:none;stroke-dashoffset:0;stroke-opacity:1"
           id="rect915"
           width="19.5"
           height="58.5"
           x="236.5"
           y="-250.5"
           ry="9.75" />
        <rect
           ry="0"
           y="-231"
           x="158.5"
           height="19.5"
           width="78"
           id="rect917"
           style="opacity:1;fill:#000000;fill-opacity:0.49019608;stroke:none;stroke-width:0.37795275;stroke-miterlimit:4;stroke-dasharray:none;stroke-dashoffset:0;stroke-opacity:1" />
      </g>
      <path
         inkscape:connector-curvature="0"
         style="fill:#000000;fill-opacity:0.49019608;stroke-width:0.34530658"
         d="m 323.54095,-212.87885 c -28.10891,0 -56.21843,0.195 -58.62174,0.58478 -15.02194,2.4363 -26.81996,14.24195 -29.25827,29.27598 -0.76569,4.72124 -0.7749,112.431022 -0.01,117.130522 1.20267,7.388796 4.27082,13.475309 9.5977,19.039248 5.1745,5.404769 12.07899,9.063688 19.42688,10.296544 4.28795,0.719417 112.985,0.74203 117.39411,0.02437 7.64627,-1.244576 13.74856,-4.398943 19.35489,-10.005268 5.60633,-5.606332 8.76179,-11.70862 10.00637,-19.354889 0.76765,-4.716174 0.75542,-112.410777 -0.0132,-117.150457 -1.23061,-7.58778 -4.80056,-14.39904 -10.30873,-19.66943 -5.56444,-5.32422 -11.64869,-8.40291 -18.94732,-9.58662 -2.40331,-0.38978 -30.51174,-0.58478 -58.62064,-0.58478 z m 0,17.65597 c 23.17664,0 46.35347,0.13208 48.05054,0.39538 5.88089,0.91246 10.7221,3.40565 14.96803,7.70829 3.26948,3.31316 5.26258,6.65492 6.60632,11.07845 0.92669,3.05065 0.94581,-6.89679 1.08203,3.86522 l 0.13955,10.96326 h -70.81767 -70.81657 v -9.51685 c 0,-5.23386 0.16923,-0.40255 0.37656,-1.7388 0.89422,-5.76345 3.39526,-10.6827 7.53662,-14.82405 4.14136,-4.14135 9.06059,-6.64128 14.82406,-7.53552 1.69707,-0.2633 24.87389,-0.39538 48.05053,-0.39538 z m 70.78777,51.61784 v 37.50812 c 0,18.014737 -0.12892,28.126921 -0.37766,29.730069 -0.89424,5.763457 -3.39416,10.682699 -7.53551,14.824055 -4.14136,4.141355 -9.06059,6.64239 -14.82406,7.536622 -1.60315,0.248736 -11.71644,0.376555 -29.73117,0.376555 h -22.07162 -5.22857 -17.60834 -5.53535 v -0.01772 l -4.39239,-0.01329 c -10.39345,-0.03263 -12.88005,-0.279477 -16.82975,-1.674559 -7.01513,-2.477811 -13.42357,-9.003689 -15.85183,-16.143102 -1.52502,-4.483722 -1.58929,-5.901423 -1.58929,-34.61751 v -37.50592 h 22.09931 16.56395 5.53535 22.83691 v 0.1617 l 34.74378,-0.0775 z"
         id="path921"
         sodipodi:nodetypes="ssccscssscsssscssccccssscscscscscccccccsscccccccc" />
    </g>
    <g
       transform="matrix(0.125,0,0,0.125,2.8323279e-7,56.000001)"
       id="g909">
      <path
         style="fill:#ffffff;fill-opacity:1;stroke-width:0.60895646"
         d="m 256,-347.92969 c -49.57073,0 -99.14256,0.34387 -103.38086,1.03125 -26.49154,4.29649 -47.29764,25.11604 -51.59766,51.62891 -1.350303,8.32601 -1.366529,198.274817 -0.0176,206.562499 2.12093,13.03032 7.53168,23.764032 16.92578,33.576172 9.12535,9.53144 21.30158,15.984033 34.25976,18.158203 2.76086,0.463207 44.27964,0.758752 78.2168,0.890625 l -14,-31.007813 h -7.29687 -9.76172 v -0.03125 l -7.7461,-0.02344 c -18.3291,-0.05754 -22.71428,-0.492865 -29.67968,-2.953125 -12.37136,-4.36968 -23.67277,-15.878222 -27.95508,-28.46875 -2.6894,-7.907151 -2.80274,-10.407301 -2.80274,-61.048821 v -66.14258 h 38.97266 29.21094 9.76172 7.29687 v -0.15625 H 411.9375 c -0.125,-36.15456 -0.44469,-66.18336 -0.96484,-69.39063 -2.17021,-13.38122 -8.46591,-25.39305 -18.17969,-34.6875 -9.81303,-9.3894 -20.54275,-14.81874 -33.41406,-16.90625 -4.2383,-0.68738 -53.80818,-1.03125 -103.37891,-1.03125 z m 0,31.13672 c 40.87257,0 81.74546,0.23291 84.73828,0.69727 10.37108,1.60913 18.90868,6.00593 26.39649,13.59375 5.7658,5.84282 9.28068,11.73611 11.65039,19.53711 1.63425,5.37989 1.66798,-12.16266 1.9082,6.8164 l 0.24609,19.33399 H 256.05078 131.16406 v -16.78321 c 0,-9.23004 0.29844,-0.70991 0.66406,-3.0664 1.577,-10.164 5.98764,-18.8392 13.29102,-26.14258 7.30339,-7.30338 15.97858,-11.71206 26.14258,-13.28906 2.99283,-0.46436 43.86571,-0.69727 84.73828,-0.69727 z"
         id="path851"
         inkscape:connector-curvature="0"
         sodipodi:nodetypes="ssccsccccccccssccccccccsssscssccccssscs" />
      <g
         transform="translate(126.71186,121.08474)"
         id="g852">
        <rect
           style="opacity:1;fill:#ffffff;fill-opacity:1;stroke:none;stroke-width:0.37795275;stroke-miterlimit:4;stroke-dasharray:none;stroke-dashoffset:0;stroke-opacity:1"
           id="rect846"
           width="19.5"
           height="58.5"
           x="139"
           y="-250.5"
           ry="9.75" />
        <rect
           ry="9.75"
           y="-250.5"
           x="236.5"
           height="58.5"
           width="19.5"
           id="rect848"
           style="opacity:1;fill:#ffffff;fill-opacity:1;stroke:none;stroke-width:0.37795275;stroke-miterlimit:4;stroke-dasharray:none;stroke-dashoffset:0;stroke-opacity:1" />
        <rect
           style="opacity:1;fill:#ffffff;fill-opacity:1;stroke:none;stroke-width:0.37795275;stroke-miterlimit:4;stroke-dasharray:none;stroke-dashoffset:0;stroke-opacity:1"
           id="rect850"
           width="78"
           height="19.5"
           x="158.5"
           y="-231"
           ry="0" />
      </g>
      <path
         sodipodi:nodetypes="ssccscssscsssscssccccssscscscscscccccccsscccccccc"
         id="path898"
         d="m 323.54095,-212.87885 c -28.10891,0 -56.21843,0.195 -58.62174,0.58478 -15.02194,2.4363 -26.81996,14.24195 -29.25827,29.27598 -0.76569,4.72124 -0.7749,112.431022 -0.01,117.130522 1.20267,7.388796 4.27082,13.475309 9.5977,19.039248 5.1745,5.404769 12.07899,9.063688 19.42688,10.296544 4.28795,0.719417 112.985,0.74203 117.39411,0.02437 7.64627,-1.244576 13.74856,-4.398943 19.35489,-10.005268 5.60633,-5.606332 8.76179,-11.70862 10.00637,-19.354889 0.76765,-4.716174 0.75542,-112.410777 -0.0132,-117.150457 -1.23061,-7.58778 -4.80056,-14.39904 -10.30873,-19.66943 -5.56444,-5.32422 -11.64869,-8.40291 -18.94732,-9.58662 -2.40331,-0.38978 -30.51174,-0.58478 -58.62064,-0.58478 z m 0,17.65597 c 23.17664,0 46.35347,0.13208 48.05054,0.39538 5.88089,0.91246 10.7221,3.40565 14.96803,7.70829 3.26948,3.31316 5.26258,6.65492 6.60632,11.07845 0.92669,3.05065 0.94581,-6.89679 1.08203,3.86522 l 0.13955,10.96326 h -70.81767 -70.81657 v -9.51685 c 0,-5.23386 0.16923,-0.40255 0.37656,-1.7388 0.89422,-5.76345 3.39526,-10.6827 7.53662,-14.82405 4.14136,-4.14135 9.06059,-6.64128 14.82406,-7.53552 1.69707,-0.2633 24.87389,-0.39538 48.05053,-0.39538 z m 70.78777,51.61784 v 37.50812 c 0,18.014737 -0.12892,28.126921 -0.37766,29.730069 -0.89424,5.763457 -3.39416,10.682699 -7.53551,14.824055 -4.14136,4.141355 -9.06059,6.64239 -14.82406,7.536622 -1.60315,0.248736 -11.71644,0.376555 -29.73117,0.376555 h -22.07162 -5.22857 -17.60834 -5.53535 v -0.01772 l -4.39239,-0.01329 c -10.39345,-0.03263 -12.88005,-0.279477 -16.82975,-1.674559 -7.01513,-2.477811 -13.42357,-9.003689 -15.85183,-16.143102 -1.52502,-4.483722 -1.58929,-5.901423 -1.58929,-34.61751 v -37.50592 h 22.09931 16.56395 5.53535 22.83691 v 0.1617 l 34.74378,-0.0775 z"
         style="fill:#ffffff;fill-opacity:1;stroke-width:0.34530658"
         inkscape:connector-curvature="0" />
    </g>
  </g>
</svg>
