<?xml version="1.0" encoding="UTF-8" standalone="no"?>
<svg
   xmlns:dc="http://purl.org/dc/elements/1.1/"
   xmlns:cc="http://creativecommons.org/ns#"
   xmlns:rdf="http://www.w3.org/1999/02/22-rdf-syntax-ns#"
   xmlns:svg="http://www.w3.org/2000/svg"
   xmlns="http://www.w3.org/2000/svg"
   xmlns:sodipodi="http://sodipodi.sourceforge.net/DTD/sodipodi-0.dtd"
   xmlns:inkscape="http://www.inkscape.org/namespaces/inkscape"
   viewBox="0 0 64 64"
   version="1.1"
   id="svg6"
   sodipodi:docname="zoom-previous.svg"
   width="64"
   height="64"
   inkscape:version="0.92.2 5c3e80d, 2017-08-06">
  <metadata
     id="metadata10">
    <rdf:RDF>
      <cc:Work
         rdf:about="">
        <dc:format>image/svg+xml</dc:format>
        <dc:type
           rdf:resource="http://purl.org/dc/dcmitype/StillImage" />
        <dc:title />
      </cc:Work>
    </rdf:RDF>
  </metadata>
  <sodipodi:namedview
     pagecolor="#ffffff"
     bordercolor="#666666"
     borderopacity="1"
     objecttolerance="10"
     gridtolerance="10"
     guidetolerance="10"
     inkscape:pageopacity="0"
     inkscape:pageshadow="2"
     inkscape:window-width="1366"
     inkscape:window-height="717"
     id="namedview8"
     showgrid="false"
     inkscape:zoom="1.3037281"
     inkscape:cx="-58.298742"
     inkscape:cy="45.102339"
     inkscape:window-x="0"
     inkscape:window-y="24"
     inkscape:window-maximized="1"
     inkscape:current-layer="svg6" />
  <defs
     id="defs3051">
    <style
       type="text/css"
       id="current-color-scheme">
      .ColorScheme-Text {
        color:#4d4d4d;
      }
      </style>
  </defs>
  <g
     id="g888">
    <path
       id="path850"
       d="M 54.114163,7.0592412 C 66.888273,18.131065 67.342503,38.271709 55.128764,52.046596 42.915011,65.82148 22.659951,68.012576 9.8858412,56.940752 -2.8882793,45.868929 -3.3424995,25.728282 8.8712412,11.953399 21.084983,-1.8214875 41.340044,-4.0125825 54.114163,7.0592412 Z"
       inkscape:connector-curvature="0"
       style="fill:#3689e6;fill-opacity:1;stroke-width:1.388695" />
    <path
       id="path852"
       d="m 63.954444,28.112937 c -0.193931,7.663952 -3.145161,15.519322 -8.8708,21.976807 C 42.869891,63.864634 22.614831,66.055725 9.8407212,54.983907 3.8533908,49.794455 0.56210076,42.615349 0.02423074,35.0286 c 0.0756,8.29458 3.36545016,16.281672 9.86061046,21.911277 12.7740998,11.071824 33.0301218,8.879642 45.2429118,-4.894156 6.213121,-7.007269 9.12563,-15.661377 8.826691,-23.932784 z"
       inkscape:connector-curvature="0"
       style="opacity:1;fill:#000000;fill-opacity:0.49019608;stroke-width:1.388695" />
    <rect
       transform="rotate(-90)"
       style="opacity:1;fill:#000000;fill-opacity:0.49019608;stroke:none;stroke-width:0.47244096;stroke-miterlimit:4;stroke-dasharray:none;stroke-dashoffset:0;stroke-opacity:1"
       id="rect911"
       width="8.1165257"
       height="3.0593221"
       x="-23.116524"
       y="50.940678"
       ry="1.5296611" />
    <path
       id="rect913"
       d="m 47.404541,14.991455 c -0.847432,0 -1.529541,0.682353 -1.529541,1.529785 0,0.847433 0.682109,1.529541 1.529541,1.529541 h 3.536133 v -1.52124 C 50.940674,15.682109 51.623026,15 52.470459,15 c 0.421535,0 0.801979,0.168895 1.078125,0.442871 -0.276811,-0.279005 -0.660773,-0.451416 -1.08667,-0.451416 z"
       style="opacity:1;fill:#000000;fill-opacity:0.49019608;stroke:none;stroke-width:0.47244096;stroke-miterlimit:4;stroke-dasharray:none;stroke-dashoffset:0;stroke-opacity:1"
       inkscape:connector-curvature="0" />
    <path
       id="rect917"
       d="m 47.413086,50.932129 c -0.847432,0 -1.529541,0.682353 -1.529541,1.529785 0,0.847432 0.682109,1.529541 1.529541,1.529541 h 5.057373 c 0.425966,0 0.809849,-0.172577 1.08667,-0.45166 -0.276155,0.274044 -0.656775,0.443359 -1.078369,0.443359 -0.847432,0 -1.529541,-0.682353 -1.529541,-1.529785 v -1.52124 z"
       style="opacity:1;fill:#000000;fill-opacity:0.49019608;stroke:none;stroke-width:0.47244096;stroke-miterlimit:4;stroke-dasharray:none;stroke-dashoffset:0;stroke-opacity:1"
       inkscape:connector-curvature="0" />
    <rect
       transform="rotate(90)"
       style="opacity:1;fill:#000000;fill-opacity:0.49019608;stroke:none;stroke-width:0.47244096;stroke-miterlimit:4;stroke-dasharray:none;stroke-dashoffset:0;stroke-opacity:1"
       id="rect919"
       width="8.1165257"
       height="3.0593221"
       x="45.866524"
       y="-54.008476"
       ry="1.5296611" />
    <path
       id="rect923"
       d="M 16.529541,45.875 C 15.682109,45.875 15,46.557109 15,47.404541 v 5.057373 c 0,0.425897 0.172411,0.809858 0.451416,1.08667 -0.273976,-0.276146 -0.442871,-0.65659 -0.442871,-1.078125 0,-0.847432 0.682109,-1.529785 1.529541,-1.529785 h 1.52124 v -3.536133 c 0,-0.847432 -0.682352,-1.529541 -1.529785,-1.529541 z"
       style="opacity:1;fill:#000000;fill-opacity:0.49019608;stroke:none;stroke-width:0.47244096;stroke-miterlimit:4;stroke-dasharray:none;stroke-dashoffset:0;stroke-opacity:1"
       inkscape:connector-curvature="0" />
    <rect
       ry="1.5296611"
       y="-54"
       x="-23.125"
       height="3.0593221"
       width="8.1165257"
       id="rect925"
       style="opacity:1;fill:#000000;fill-opacity:0.49019608;stroke:none;stroke-width:0.47244096;stroke-miterlimit:4;stroke-dasharray:none;stroke-dashoffset:0;stroke-opacity:1"
       transform="scale(-1)" />
    <rect
       transform="scale(-1)"
       ry="1.5296611"
       y="-18.050846"
       x="-23.125"
       height="3.0593221"
       width="8.1165257"
       id="rect929"
       style="opacity:1;fill:#000000;fill-opacity:0.49019608;stroke:none;stroke-width:0.47244096;stroke-miterlimit:4;stroke-dasharray:none;stroke-dashoffset:0;stroke-opacity:1" />
    <path
       id="rect931"
       d="M 15.451416,15.442871 C 15.172411,15.719683 15,16.103644 15,16.529541 v 5.057373 c 0,0.847432 0.682109,1.529541 1.529541,1.529541 0.847433,0 1.529785,-0.682109 1.529785,-1.529541 v -3.536133 h -1.52124 c -0.847432,0 -1.529541,-0.682108 -1.529541,-1.529541 0,-0.421535 0.168895,-0.802222 0.442871,-1.078369 z"
       style="opacity:1;fill:#000000;fill-opacity:0.49019608;stroke:none;stroke-width:0.47244096;stroke-miterlimit:4;stroke-dasharray:none;stroke-dashoffset:0;stroke-opacity:1"
       inkscape:connector-curvature="0" />
    <g
       transform="matrix(0,-0.125,0.125,0,56,64)"
       id="g859">
      <rect
         style="opacity:1;fill:#ffffff;fill-opacity:1;stroke:none;stroke-width:3.77952766;stroke-miterlimit:4;stroke-dasharray:none;stroke-dashoffset:0;stroke-opacity:1"
         id="rect853"
         width="64.932205"
         height="24.474577"
         x="347"
         y="-60.474575"
         ry="12.237288" />
      <rect
         ry="12.237288"
         y="-412"
         x="-101"
         height="24.474577"
         width="64.932205"
         id="rect855"
         style="opacity:1;fill:#ffffff;fill-opacity:1;stroke:none;stroke-width:3.77952766;stroke-miterlimit:4;stroke-dasharray:none;stroke-dashoffset:0;stroke-opacity:1"
         transform="rotate(90)" />
    </g>
    <g
       id="g865"
       transform="matrix(0.125,0,0,0.125,0.00847629,56)">
      <rect
         ry="12.237288"
         y="-60.474575"
         x="347"
         height="24.474577"
         width="64.932205"
         id="rect861"
         style="opacity:1;fill:#ffffff;fill-opacity:1;stroke:none;stroke-width:3.77952766;stroke-miterlimit:4;stroke-dasharray:none;stroke-dashoffset:0;stroke-opacity:1" />
      <rect
         transform="rotate(90)"
         style="opacity:1;fill:#ffffff;fill-opacity:1;stroke:none;stroke-width:3.77952766;stroke-miterlimit:4;stroke-dasharray:none;stroke-dashoffset:0;stroke-opacity:1"
         id="rect863"
         width="64.932205"
         height="24.474577"
         x="-101"
         y="-412"
         ry="12.237288" />
    </g>
    <g
       transform="matrix(0,0.125,-0.125,0,8,0.0084775)"
       id="g871">
      <rect
         style="opacity:1;fill:#ffffff;fill-opacity:1;stroke:none;stroke-width:3.77952766;stroke-miterlimit:4;stroke-dasharray:none;stroke-dashoffset:0;stroke-opacity:1"
         id="rect867"
         width="64.932205"
         height="24.474577"
         x="347"
         y="-60.474575"
         ry="12.237288" />
      <rect
         ry="12.237288"
         y="-412"
         x="-101"
         height="24.474577"
         width="64.932205"
         id="rect869"
         style="opacity:1;fill:#ffffff;fill-opacity:1;stroke:none;stroke-width:3.77952766;stroke-miterlimit:4;stroke-dasharray:none;stroke-dashoffset:0;stroke-opacity:1"
         transform="rotate(90)" />
    </g>
    <rect
       transform="scale(-1)"
       style="opacity:1;fill:#ffffff;fill-opacity:1;stroke:none;stroke-width:0.47244096;stroke-miterlimit:4;stroke-dasharray:none;stroke-dashoffset:0;stroke-opacity:1"
       id="rect873"
       width="8.1165257"
       height="3.0593221"
       x="-20.625"
       y="-15.559322"
       ry="1.5296611" />
    <rect
       ry="1.5296611"
       y="12.5"
       x="-20.625"
       height="3.0593221"
       width="8.1165257"
       id="rect875"
       style="opacity:1;fill:#ffffff;fill-opacity:1;stroke:none;stroke-width:0.47244096;stroke-miterlimit:4;stroke-dasharray:none;stroke-dashoffset:0;stroke-opacity:1"
       transform="rotate(-90)" />
    <rect
       ry="1.5296611"
       y="-15.559322"
       x="-20.625"
       height="3.0593221"
       width="8.1165257"
       id="rect995"
       style="opacity:1;fill:#ffffff;fill-opacity:1;stroke:none;stroke-width:0.47244096;stroke-miterlimit:4;stroke-dasharray:none;stroke-dashoffset:0;stroke-opacity:1"
       transform="scale(-1)" />
    <path
       style="fill:#000000;fill-opacity:0.49019608;stroke-width:0.09337121"
       d="m 41.437188,49.244523 c 0.662209,-0.235702 1.2527,-0.81893 1.451106,-1.433263 0.186283,-0.576805 0.190973,-0.941232 0.01946,-1.511187 -0.240139,-0.797917 0.218969,-0.387806 -7.851433,-7.013471 -1.845876,-1.515432 -2.55788,-2.101142 -4.248008,-3.494477 l -0.233425,-0.19244 0.290628,-0.257394 c 0.343478,-0.304205 0.713972,-0.60621 6.818097,-5.55783 2.574593,-2.088491 4.789956,-3.926647 4.923026,-4.0848 0.241836,-0.2874 0.52667,-1.069336 0.52667,-1.445822 0,-0.109743 -0.06537,-0.41975 -0.145325,-0.688901 -0.294334,-0.99113 -1.259725,-1.691279 -2.329011,-1.6891 -0.71148,0.0014 -1.192844,0.216598 -2.036434,0.910238 -0.357229,0.293726 -0.80573,0.660101 -0.996674,0.814164 -6.155541,4.966626 -12.209325,9.896224 -12.53814,10.20982 -0.69206,0.660031 -0.910287,1.518515 -0.63264,2.488659 0.172553,0.602922 0.783974,1.214429 3.080925,3.08135 1.664003,1.35247 2.578784,2.102144 4.159326,3.408621 0.410837,0.339599 1.377229,1.134102 2.147537,1.765557 0.770313,0.631463 1.505617,1.236706 1.633996,1.344988 1.659686,1.399795 3.934672,3.198664 4.169211,3.296658 0.53622,0.224046 1.244294,0.24327 1.791126,0.04866 z"
       id="path933"
       inkscape:connector-curvature="0" />
    <path
       inkscape:connector-curvature="0"
       id="path855"
       d="m 38.93717,46.744476 c 0.662208,-0.235701 1.2527,-0.818929 1.451106,-1.433262 0.186282,-0.576805 0.190972,-0.941232 0.01946,-1.511187 -0.240138,-0.797917 0.218969,-0.387806 -7.851432,-7.013471 -1.845876,-1.515432 -2.55788,-2.101142 -4.248009,-3.494477 l -0.233425,-0.19244 0.290629,-0.257394 c 0.343477,-0.304205 0.713971,-0.60621 6.818096,-5.55783 2.574594,-2.088491 4.789956,-3.926647 4.923026,-4.0848 0.241837,-0.2874 0.52667,-1.069336 0.52667,-1.445822 0,-0.109743 -0.06537,-0.41975 -0.145325,-0.688902 -0.294333,-0.99113 -1.259725,-1.691279 -2.329011,-1.6891 -0.71148,0.0014 -1.192844,0.216599 -2.036434,0.910239 -0.357228,0.293726 -0.80573,0.660101 -0.996673,0.814164 -6.155542,4.966626 -12.209325,9.896223 -12.53814,10.20982 -0.69206,0.660031 -0.910288,1.518515 -0.63264,2.488658 0.172552,0.602923 0.783973,1.214429 3.080925,3.08135 1.664002,1.35247 2.578783,2.102144 4.159326,3.408622 0.410836,0.339598 1.377229,1.134102 2.147536,1.765557 0.770314,0.631463 1.505618,1.236706 1.633996,1.344988 1.659687,1.399795 3.934673,3.198664 4.169212,3.296658 0.53622,0.224046 1.244293,0.24327 1.791126,0.04866 z"
       style="fill:#ffffff;stroke-width:0.09337121" />
  </g>
</svg>
