<?xml version="1.0" encoding="UTF-8" standalone="no"?>
<!-- Created with Inkscape (http://www.inkscape.org/) -->

<svg
   xmlns:dc="http://purl.org/dc/elements/1.1/"
   xmlns:cc="http://creativecommons.org/ns#"
   xmlns:rdf="http://www.w3.org/1999/02/22-rdf-syntax-ns#"
   xmlns:svg="http://www.w3.org/2000/svg"
   xmlns="http://www.w3.org/2000/svg"
   xmlns:sodipodi="http://sodipodi.sourceforge.net/DTD/sodipodi-0.dtd"
   xmlns:inkscape="http://www.inkscape.org/namespaces/inkscape"
   width="250"
   height="250"
   id="svg2"
   version="1.1"
   inkscape:version="0.92.2 5c3e80d, 2017-08-06"
   sodipodi:docname="favorites.svg">
  <defs
     id="defs4" />
  <sodipodi:namedview
     id="base"
     pagecolor="#ffffff"
     bordercolor="#666666"
     borderopacity="1.0"
     inkscape:pageopacity="0.0"
     inkscape:pageshadow="2"
     inkscape:zoom="0.69999999"
     inkscape:cx="-63.241432"
     inkscape:cy="112.52181"
     inkscape:document-units="px"
     inkscape:current-layer="layer1"
     showgrid="false"
     inkscape:window-width="1366"
     inkscape:window-height="717"
     inkscape:window-x="0"
     inkscape:window-y="24"
     inkscape:window-maximized="1" />
  <metadata
     id="metadata7">
    <rdf:RDF>
      <cc:Work
         rdf:about="">
        <dc:format>image/svg+xml</dc:format>
        <dc:type
           rdf:resource="http://purl.org/dc/dcmitype/StillImage" />
        <dc:title></dc:title>
      </cc:Work>
    </rdf:RDF>
  </metadata>
  <g
     inkscape:label="Layer 1"
     inkscape:groupmode="layer"
     id="layer1"
     transform="translate(0,-802.36218)">
    <path
       style="fill:#f9c440;stroke-width:0.91135216;fill-opacity:1"
       d="m 196.56199,1050.3745 c -2.78735,-1.1468 -18.98664,-9.3109 -35.9984,-18.1423 -17.01176,-8.8315 -31.99272,-16.3189 -33.29104,-16.6384 -1.88543,-0.4641 -9.53897,3.0085 -38.023792,17.2525 -19.61475,9.8085 -36.670039,17.8337 -37.900607,17.8337 -2.833126,0 -5.68436,-3.545 -6.435466,-8.0012 -0.332484,-1.9725 1.17859,-18.4475 3.6127,-39.3891 2.301331,-19.79914 3.955001,-37.25828 3.674841,-38.79802 -0.280152,-1.53967 -1.427244,-4.04087 -2.549087,-5.55817 C 47.38174,955.86418 25.044417,931.37735 11.522429,917.13572 5.4485983,910.73863 2.2647922,906.58834 1.10843,903.56047 c -3.3029631,-8.6487 -1.82416502,-9.25858 41.973253,-17.31072 27.047413,-4.97266 36.700594,-7.08673 38.535569,-8.43938 1.513541,-1.1157 6.731193,-9.77876 13.666274,-22.69064 21.474344,-39.98134 23.429374,-43.43165 26.092604,-46.04904 3.27808,-3.22166 4.18167,-3.26061 7.66405,-0.33039 3.12748,2.6316 26.13006,41.64476 35.56969,60.3274 2.63332,5.21178 7.24107,10.30418 10.58939,11.70319 1.51859,0.63451 9.93222,2.40987 18.69696,3.94524 25.54143,4.47425 47.2085,9.04552 50.67811,10.69196 4.55347,2.16076 6.25968,5.04016 5.04733,8.51788 -2.16136,6.20007 -9.16064,14.40811 -34.46651,40.41879 -8.69086,8.9329 -16.05066,17.2341 -16.35509,18.44708 -0.30444,1.21298 1.13245,13.99952 3.19308,28.41458 7.45885,52.17818 7.7841,56.33868 4.64924,59.47358 -2.31364,2.3136 -3.82532,2.2678 -10.08039,-0.3055 z"
       id="path844"
       inkscape:connector-curvature="0" />
  </g>
</svg>
