<?xml version="1.0" encoding="UTF-8" standalone="no"?>
<!-- Created with Inkscape (http://www.inkscape.org/) -->

<svg
   xmlns:dc="http://purl.org/dc/elements/1.1/"
   xmlns:cc="http://creativecommons.org/ns#"
   xmlns:rdf="http://www.w3.org/1999/02/22-rdf-syntax-ns#"
   xmlns:svg="http://www.w3.org/2000/svg"
   xmlns="http://www.w3.org/2000/svg"
   xmlns:sodipodi="http://sodipodi.sourceforge.net/DTD/sodipodi-0.dtd"
   xmlns:inkscape="http://www.inkscape.org/namespaces/inkscape"
   width="512"
   height="512"
   id="svg2"
   version="1.1"
   inkscape:version="0.92.2 5c3e80d, 2017-08-06"
   sodipodi:docname="folder-html.svg">
  <defs
     id="defs4">
    <radialGradient
       id="polygon413_1_"
       cx="7976.3457"
       cy="-10508.842"
       r="13293.867"
       gradientTransform="matrix(0.0222,0,0,-0.0248,721.1671,674.6745)"
       gradientUnits="userSpaceOnUse">
      <stop
         offset="0"
         style="stop-color:#80FF80"
         id="stop388" />
      <stop
         offset="1"
         style="stop-color:#0f0"
         id="stop390" />
    </radialGradient>
  </defs>
  <sodipodi:namedview
     id="base"
     pagecolor="#ffffff"
     bordercolor="#666666"
     borderopacity="1.0"
     inkscape:pageopacity="0.0"
     inkscape:pageshadow="2"
     inkscape:zoom="0.49497474"
     inkscape:cx="406.49753"
     inkscape:cy="303.64236"
     inkscape:document-units="px"
     inkscape:current-layer="layer1"
     showgrid="false"
     inkscape:window-width="1366"
     inkscape:window-height="717"
     inkscape:window-x="0"
     inkscape:window-y="24"
     inkscape:window-maximized="1" />
  <metadata
     id="metadata7">
    <rdf:RDF>
      <cc:Work
         rdf:about="">
        <dc:format>image/svg+xml</dc:format>
        <dc:type
           rdf:resource="http://purl.org/dc/dcmitype/StillImage" />
        <dc:title />
      </cc:Work>
    </rdf:RDF>
  </metadata>
  <g
     inkscape:label="Layer 1"
     inkscape:groupmode="layer"
     id="layer1"
     transform="translate(0,-540.36218)">
    <g
       id="g876">
      <g
         id="g863"
         transform="matrix(3.7795276,0,0,3.7795276,2.5347738e-7,-70.157456)">
        <path
           style="fill:#d48e15;fill-opacity:1;stroke-width:2.93940377"
           inkscape:connector-curvature="0"
           d="m 114.54163,176.47539 c 27.03854,23.43536 28,66.06638 2.14757,95.22322 -25.852427,29.15684 -68.725627,33.79466 -95.764167,10.3593 -27.0385497,-23.43536 -27.9999997,-66.06638 -2.14757,-95.22322 25.85243,-29.15684 68.72563,-33.79466 95.764167,-10.3593 z"
           id="path848" />
        <path
           id="path849"
           d="m 110.95464,180.32858 c 25.14345,21.79282 26.03753,61.4359 1.99705,88.54919 -24.040477,27.11329 -63.908767,31.42605 -89.052227,9.63323 -25.1434597,-21.79281 -26.0375297,-61.4359 -1.99705,-88.54919 24.04048,-27.11328 63.90877,-31.42605 89.052227,-9.63323 z"
           inkscape:connector-curvature="0"
           style="fill:#ffffff;fill-opacity:1;stroke-width:2.73338604" />
        <path
           style="fill:#f9c440;fill-opacity:1;stroke:none;stroke-width:0.26458332px;stroke-linecap:butt;stroke-linejoin:miter;stroke-opacity:1"
           d="m 74.041395,161.53803 c -19.884078,-0.13327 -40.390627,8.5224 -55.263809,25.29664 -25.8524316,29.15684 -24.8908775,71.78777 2.147671,95.22313 27.03854,23.43536 69.91175,18.79778 95.764183,-10.35906 8.50024,-9.58672 14.10065,-20.63031 16.82945,-31.9691 -5.19112,-9.49549 -17.9253,-31.92117 -31.22186,-48.70194 -9.232538,-11.65184 -20.102389,-22.17763 -28.255635,-29.48967 z"
           id="path843"
           inkscape:connector-curvature="0" />
        <path
           style="opacity:0.1;stroke-width:2.93940377"
           inkscape:connector-curvature="0"
           d="m 135.37022,221.03904 c -0.41047,16.22204 -6.65724,32.84924 -18.77652,46.51758 C 90.741273,296.71347 47.868073,301.35128 20.829523,277.91593 8.1563433,266.93158 1.1897833,251.73582 0.05128329,235.67719 c 0.16014,17.55687 7.12353001,34.46287 20.87161971,46.37888 27.03854,23.43535 69.91378,18.79524 95.764167,-10.35931 13.1511,-14.83204 19.31591,-33.1499 18.68315,-50.65772 z"
           id="path850" />
      </g>
      <path
         style="fill:#e1b13a;fill-opacity:1;stroke-width:0.74321789"
         d="m 187.59052,886.23359 c -0.81754,-0.1566 -2.32256,-0.4597 -3.34448,-0.6735 -2.66152,-0.5569 -71.05356,-68.81997 -72.89776,-72.76033 -1.70069,-3.63374 -1.78957,-6.96625 -0.28309,-10.61472 1.28982,-3.12377 68.25565,-70.76952 72.04863,-72.78015 1.21674,-0.64499 3.97651,-1.1727 6.13282,-1.1727 9.46575,0 16.44481,9.51683 13.58169,18.52034 -0.72436,2.27783 -6.86638,8.84641 -29.62092,31.67801 l -28.70709,28.8043 28.39353,28.42348 c 28.63802,28.66817 30.67585,31.06587 30.67585,36.09247 0,2.754 -1.3563,6.6681 -3.16697,9.1395 -2.5231,3.4437 -8.883,6.0961 -12.81221,5.3433 z m 39.93725,-0.251 c -6.80705,-1.5031 -11.80311,-8.0995 -11.16492,-14.7413 0.25924,-2.6979 7.77121,-19.09109 32.17168,-70.20747 18.13526,-37.99141 32.6532,-67.50744 33.73845,-68.59268 4.86065,-4.86065 11.84197,-5.67443 17.66323,-2.05893 4.47263,2.77789 6.57671,6.69332 6.54717,12.18346 -0.0207,3.83603 -1.9796,8.18309 -31.81802,70.6057 -17.88412,37.41396 -32.67041,67.44132 -33.79442,68.62822 -3.54073,3.7388 -8.42307,5.2694 -13.34317,4.183 z m 112.31701,0.04 c -5.99816,-1.383 -10.30587,-6.0612 -11.13215,-12.0895 -0.93041,-6.7881 -0.89623,-6.8312 30.07537,-37.90766 L 387.49048,807.22575 358.788,778.42606 c -30.9716,-31.0765 -31.00578,-31.11958 -30.07537,-37.90766 0.62532,-4.56224 2.91847,-7.99301 6.90359,-10.32844 3.92653,-2.3011 9.75897,-2.6461 13.26997,-0.78495 3.79297,2.01063 70.7588,69.65638 72.04862,72.78015 1.50648,3.64848 1.41761,6.98098 -0.28309,10.61473 -1.96375,4.19577 -70.25396,72.211 -73.08356,72.7893 -4.36454,0.8919 -5.4666,0.9538 -7.72338,0.4335 z"
         id="path867"
         inkscape:connector-curvature="0" />
      <path
         inkscape:connector-curvature="0"
         id="path865"
         d="m 177.59052,876.23359 c -0.81754,-0.1566 -2.32256,-0.4597 -3.34448,-0.6735 -2.66152,-0.5569 -71.05356,-68.81997 -72.89776,-72.76033 -1.700693,-3.63374 -1.789571,-6.96625 -0.28309,-10.61472 1.28982,-3.12377 68.25565,-70.76952 72.04863,-72.78015 1.21674,-0.64499 3.97651,-1.1727 6.13282,-1.1727 9.46575,0 16.44481,9.51683 13.58169,18.52034 -0.72436,2.27783 -6.86638,8.84641 -29.62092,31.67801 l -28.70709,28.8043 28.39353,28.42348 c 28.63802,28.66817 30.67585,31.06587 30.67585,36.09247 0,2.754 -1.3563,6.6681 -3.16697,9.1395 -2.5231,3.4437 -8.883,6.0961 -12.81221,5.3433 z m 39.93725,-0.251 c -6.80705,-1.5031 -11.80311,-8.0995 -11.16492,-14.7413 0.25924,-2.6979 7.77121,-19.09109 32.17168,-70.20747 18.13526,-37.99141 32.6532,-67.50744 33.73845,-68.59268 4.86065,-4.86065 11.84197,-5.67443 17.66323,-2.05893 4.47263,2.77789 6.57671,6.69332 6.54717,12.18346 -0.0207,3.83603 -1.9796,8.18309 -31.81802,70.6057 -17.88412,37.41396 -32.67041,67.44132 -33.79442,68.62822 -3.54073,3.7388 -8.42307,5.2694 -13.34317,4.183 z m 112.31701,0.04 c -5.99816,-1.383 -10.30587,-6.0612 -11.13215,-12.0895 -0.93041,-6.7881 -0.89623,-6.8312 30.07537,-37.90766 L 377.49048,797.22575 348.788,768.42606 c -30.9716,-31.0765 -31.00578,-31.11958 -30.07537,-37.90766 0.62532,-4.56224 2.91847,-7.99301 6.90359,-10.32844 3.92653,-2.3011 9.75897,-2.6461 13.26997,-0.78495 3.79297,2.01063 70.7588,69.65638 72.04862,72.78015 1.50648,3.64848 1.41761,6.98098 -0.28309,10.61473 -1.96375,4.19577 -70.25396,72.211 -73.08356,72.7893 -4.36454,0.8919 -5.4666,0.9538 -7.72338,0.4335 z"
         style="fill:#ffffff;stroke-width:0.74321789" />
    </g>
  </g>
</svg>
