<?xml version="1.0" encoding="UTF-8" standalone="no"?>
<!-- Created with Inkscape (http://www.inkscape.org/) -->

<svg
   xmlns:dc="http://purl.org/dc/elements/1.1/"
   xmlns:cc="http://creativecommons.org/ns#"
   xmlns:rdf="http://www.w3.org/1999/02/22-rdf-syntax-ns#"
   xmlns:svg="http://www.w3.org/2000/svg"
   xmlns="http://www.w3.org/2000/svg"
   xmlns:sodipodi="http://sodipodi.sourceforge.net/DTD/sodipodi-0.dtd"
   xmlns:inkscape="http://www.inkscape.org/namespaces/inkscape"
   width="512"
   height="512"
   id="svg2"
   version="1.1"
   inkscape:version="0.92.2 5c3e80d, 2017-08-06"
   sodipodi:docname="folder-important.svg">
  <defs
     id="defs4" />
  <sodipodi:namedview
     id="base"
     pagecolor="#ffffff"
     bordercolor="#666666"
     borderopacity="1.0"
     inkscape:pageopacity="0.0"
     inkscape:pageshadow="2"
     inkscape:zoom="0.49497475"
     inkscape:cx="307.65792"
     inkscape:cy="248.11802"
     inkscape:document-units="px"
     inkscape:current-layer="layer1"
     showgrid="false"
     inkscape:window-width="1366"
     inkscape:window-height="717"
     inkscape:window-x="0"
     inkscape:window-y="24"
     inkscape:window-maximized="1" />
  <metadata
     id="metadata7">
    <rdf:RDF>
      <cc:Work
         rdf:about="">
        <dc:format>image/svg+xml</dc:format>
        <dc:type
           rdf:resource="http://purl.org/dc/dcmitype/StillImage" />
        <dc:title />
      </cc:Work>
    </rdf:RDF>
  </metadata>
  <g
     inkscape:label="Layer 1"
     inkscape:groupmode="layer"
     id="layer1"
     transform="translate(0,-540.36218)">
    <g
       id="g867">
      <path
         id="path848"
         d="m 432.91325,596.83615 c 102.19291,88.57459 105.82677,249.69971 8.1168,359.89879 C 343.32009,1066.934 181.27965,1084.4628 79.08674,995.8882 -23.106205,907.31361 -26.740032,746.18849 70.96994,635.98941 168.67991,525.79033 330.72036,508.26156 432.91325,596.83615 Z"
         inkscape:connector-curvature="0"
         style="fill:#d48e15;fill-opacity:1;stroke-width:11.10955811" />
      <path
         style="fill:#ffffff;fill-opacity:1;stroke-width:10.33090782"
         inkscape:connector-curvature="0"
         d="m 419.35612,611.39939 c 95.03037,82.36656 98.40957,232.19868 7.54791,334.67411 C 336.04238,1048.5489 185.35908,1064.8491 90.32868,982.48256 -4.7017196,900.11603 -8.0808818,750.28388 82.780775,647.80845 173.64243,545.33306 324.32573,529.03282 419.35612,611.39939 Z"
         id="path849" />
      <path
         inkscape:connector-curvature="0"
         id="path843"
         d="m 279.8415,540.37999 c -75.15243,-0.5037 -152.65749,32.21064 -208.871095,95.60935 -97.709979,110.19908 -94.075759,271.32385 8.117182,359.89844 102.192903,88.57462 264.233393,71.04672 361.943373,-39.15235 32.12689,-36.23327 53.2938,-77.97283 63.60737,-120.8281 C 485.01835,800.01887 436.88916,715.26039 386.63445,651.83701 351.73982,607.79856 310.65691,568.01604 279.8415,540.37999 Z"
         style="fill:#f9c440;fill-opacity:1;stroke:none;stroke-width:0.99999994px;stroke-linecap:butt;stroke-linejoin:miter;stroke-opacity:1" />
      <path
         id="path850"
         d="M 511.63548,765.2657 C 510.0841,826.57734 486.47426,889.42031 440.66911,941.08017 342.95915,1051.2793 180.9187,1068.808 78.725757,980.23347 30.827125,938.71782 4.4968191,881.28502 0.19382686,820.59099 0.79908041,886.94766 27.117405,950.84436 79.07869,995.88125 181.2716,1084.4558 343.31975,1066.9184 441.022,956.72795 490.72695,900.66984 514.02702,831.43699 511.63548,765.2657 Z"
         inkscape:connector-curvature="0"
         style="opacity:0.1;stroke-width:11.10955811" />
      <g
         style="fill:#e1b13a;fill-opacity:1"
         id="g855"
         transform="matrix(3.7795276,0,0,3.7795276,1.4311648,-55.725532)">
        <path
           sodipodi:open="true"
           sodipodi:end="6.2784904"
           sodipodi:start="0"
           d="m 77.516251,260.09808 a 9.0926666,9.2709541 0 0 1 -9.081995,9.27095 9.0926666,9.2709541 0 0 1 -9.103314,-9.24918 9.0926666,9.2709541 0 0 1 9.060625,-9.29266 9.0926666,9.2709541 0 0 1 9.124583,9.22737"
           sodipodi:ry="9.2709541"
           sodipodi:rx="9.0926666"
           sodipodi:cy="260.09808"
           sodipodi:cx="68.423584"
           id="path851"
           style="fill:#e1b13a;fill-opacity:1;stroke:none;stroke-width:9.42096996"
           sodipodi:type="arc" />
        <path
           sodipodi:nodetypes="ccczcc"
           inkscape:connector-curvature="0"
           id="path853"
           d="m 65.57093,244.76489 h 5.170323 c 0,0 7.091526,-48.66491 7.30976,-48.85042 0,0 -0.977407,-9.25813 -9.449231,-9.09327 -8.471752,0.17804 -9.449195,9.09327 -9.449195,9.09327 z"
           style="fill:#e1b13a;fill-opacity:1;stroke:none;stroke-width:9.42096996" />
      </g>
      <g
         transform="matrix(3.7795276,0,0,3.7795276,-8.5688352,-65.725532)"
         id="g1157">
        <path
           sodipodi:type="arc"
           style="fill:#ffffff;fill-opacity:1;stroke:none;stroke-width:9.42096996"
           id="path2997-3"
           sodipodi:cx="68.423584"
           sodipodi:cy="260.09808"
           sodipodi:rx="9.0926666"
           sodipodi:ry="9.2709541"
           d="m 77.516251,260.09808 a 9.0926666,9.2709541 0 0 1 -9.081995,9.27095 9.0926666,9.2709541 0 0 1 -9.103314,-9.24918 9.0926666,9.2709541 0 0 1 9.060625,-9.29266 9.0926666,9.2709541 0 0 1 9.124583,9.22737"
           sodipodi:start="0"
           sodipodi:end="6.2784904"
           sodipodi:open="true" />
        <path
           style="fill:#ffffff;fill-opacity:1;stroke:none;stroke-width:9.42096996"
           d="m 65.57093,244.76489 h 5.170323 c 0,0 7.091526,-48.66491 7.30976,-48.85042 0,0 -0.977407,-9.25813 -9.449231,-9.09327 -8.471752,0.17804 -9.449195,9.09327 -9.449195,9.09327 z"
           id="path2999-5"
           inkscape:connector-curvature="0"
           sodipodi:nodetypes="ccczcc" />
      </g>
    </g>
  </g>
</svg>
