<?xml version="1.0" encoding="UTF-8" standalone="no"?>
<!-- Created with Inkscape (http://www.inkscape.org/) -->

<svg
   xmlns:dc="http://purl.org/dc/elements/1.1/"
   xmlns:cc="http://creativecommons.org/ns#"
   xmlns:rdf="http://www.w3.org/1999/02/22-rdf-syntax-ns#"
   xmlns:svg="http://www.w3.org/2000/svg"
   xmlns="http://www.w3.org/2000/svg"
   xmlns:sodipodi="http://sodipodi.sourceforge.net/DTD/sodipodi-0.dtd"
   xmlns:inkscape="http://www.inkscape.org/namespaces/inkscape"
   width="512"
   height="512"
   id="svg2"
   version="1.1"
   inkscape:version="0.92.2 5c3e80d, 2017-08-06"
   sodipodi:docname="folder-builds.svg">
  <defs
     id="defs4" />
  <sodipodi:namedview
     id="base"
     pagecolor="#ffffff"
     bordercolor="#666666"
     borderopacity="1.0"
     inkscape:pageopacity="0.0"
     inkscape:pageshadow="2"
     inkscape:zoom="0.49497474"
     inkscape:cx="278.98305"
     inkscape:cy="335.64341"
     inkscape:document-units="px"
     inkscape:current-layer="layer1"
     showgrid="false"
     inkscape:window-width="1366"
     inkscape:window-height="717"
     inkscape:window-x="0"
     inkscape:window-y="24"
     inkscape:window-maximized="1" />
  <metadata
     id="metadata7">
    <rdf:RDF>
      <cc:Work
         rdf:about="">
        <dc:format>image/svg+xml</dc:format>
        <dc:type
           rdf:resource="http://purl.org/dc/dcmitype/StillImage" />
        <dc:title />
      </cc:Work>
    </rdf:RDF>
  </metadata>
  <g
     inkscape:label="Layer 1"
     inkscape:groupmode="layer"
     id="layer1"
     transform="translate(0,-540.36218)">
    <g
       id="g834">
      <g
         id="g863"
         transform="matrix(3.7795276,0,0,3.7795276,2.5347742e-7,-70.157456)">
        <path
           style="fill:#d48e15;fill-opacity:1;stroke-width:2.93940377"
           inkscape:connector-curvature="0"
           d="m 114.54163,176.47539 c 27.03854,23.43536 28,66.06638 2.14757,95.22322 -25.852427,29.15684 -68.725627,33.79466 -95.764167,10.3593 -27.0385497,-23.43536 -27.9999997,-66.06638 -2.14757,-95.22322 25.85243,-29.15684 68.72563,-33.79466 95.764167,-10.3593 z"
           id="path848" />
        <path
           id="path849"
           d="m 110.95464,180.32858 c 25.14345,21.79282 26.03753,61.4359 1.99705,88.54919 -24.040477,27.11329 -63.908767,31.42605 -89.052227,9.63323 -25.1434597,-21.79281 -26.0375297,-61.4359 -1.99705,-88.54919 24.04048,-27.11328 63.90877,-31.42605 89.052227,-9.63323 z"
           inkscape:connector-curvature="0"
           style="fill:#ffffff;fill-opacity:1;stroke-width:2.73338604" />
        <path
           style="fill:#f9c440;fill-opacity:1;stroke:none;stroke-width:0.26458332px;stroke-linecap:butt;stroke-linejoin:miter;stroke-opacity:1"
           d="m 74.041395,161.53803 c -19.884078,-0.13327 -40.390627,8.5224 -55.263809,25.29664 -25.8524316,29.15684 -24.8908775,71.78777 2.147671,95.22313 27.03854,23.43536 69.91175,18.79778 95.764183,-10.35906 8.50024,-9.58672 14.10065,-20.63031 16.82945,-31.9691 -5.19112,-9.49549 -17.9253,-31.92117 -31.22186,-48.70194 -9.232538,-11.65184 -20.102389,-22.17763 -28.255635,-29.48967 z"
           id="path843"
           inkscape:connector-curvature="0" />
        <path
           style="opacity:0.1;stroke-width:2.93940377"
           inkscape:connector-curvature="0"
           d="m 135.37022,221.03904 c -0.41047,16.22204 -6.65724,32.84924 -18.77652,46.51758 C 90.741273,296.71347 47.868073,301.35128 20.829523,277.91593 8.1563433,266.93158 1.1897833,251.73582 0.05128329,235.67719 c 0.16014,17.55687 7.12353001,34.46287 20.87161971,46.37888 27.03854,23.43535 69.91378,18.79524 95.764167,-10.35931 13.1511,-14.83204 19.31591,-33.1499 18.68315,-50.65772 z"
           id="path850" />
      </g>
      <path
         style="fill:#e1b13a;fill-opacity:1;stroke-width:0.609761"
         d="m 111.81421,950.57988 c -1.75694,-1.757 -1.78238,-1.8796 -1.78238,-8.5836 0,-6.7041 0.0254,-6.8266 1.78238,-8.5836 l 1.78237,-1.7824 h 84.47011 c 60.60775,0 84.88986,0.1913 85.95598,0.677 2.26672,1.0329 2.83985,3.065 2.83985,10.0695 0,6.2835 -0.038,6.4587 -1.78238,8.2031 l -1.78238,1.7823 h -84.85059 -84.85059 z m 87.24272,-118.9503 v -92.0739 h -7.25747 -7.25749 l -0.64709,1.8562 c -1.04026,2.9841 -3.06026,5.4001 -5.59688,6.6942 -2.25423,1.15 -3.6751,1.2057 -30.76116,1.2057 -22.47152,0 -28.80923,-0.1719 -30.36943,-0.8238 -2.60614,-1.0889 -5.69326,-4.6777 -6.48916,-7.5437 -0.96439,-3.4728 -0.87324,-64.8199 0.10115,-68.0721 0.95684,-3.1937 4.37593,-6.6127 7.56958,-7.5696 3.23576,-0.9694 54.25733,-1.0589 57.70614,-0.1011 3.13651,0.871 6.20248,3.7087 7.55153,6.9892 l 1.1209,2.7257 h 84.76094 84.76094 l 16.66699,16.6753 16.66699,16.6752 3.75585,-1.5313 c 4.98437,-2.0322 11.36147,-2.0875 16.42946,-0.1424 4.93599,1.8944 10.11227,6.8115 12.3683,11.7491 2.3368,5.1144 2.49407,12.5378 0.36535,17.2453 -2.04246,4.5167 -4.21215,7.3879 -7.32564,9.6941 -2.6345,1.9514 -2.86643,2.3694 -4.41105,7.9498 l -1.63033,5.89 3.49274,1.7632 c 4.80799,2.4271 7.10985,4.5073 9.03694,8.1667 1.45004,2.7537 1.64428,3.8051 1.64686,8.9146 0.002,5.071 -0.20985,6.2485 -1.70486,9.4513 -3.4573,7.4065 -9.67908,11.8677 -17.2432,12.364 -5.50596,0.3611 -9.92995,-0.9 -13.91587,-3.9669 -7.53137,-5.7949 -9.56199,-17.7408 -3.44627,-20.2741 1.57145,-0.6509 2.08613,-0.6163 3.37275,0.2267 0.83508,0.5472 1.67235,1.746 1.86061,2.664 1.35837,6.624 3.72155,9.9108 7.94298,11.0476 6.64023,1.788 13.46832,-4.454 12.20991,-11.162 -0.52303,-2.7879 -3.20111,-5.8519 -7.90972,-9.0495 -4.11062,-2.7915 -8.53222,-7.0994 -9.79701,-9.5453 -0.458,-0.8856 -1.51441,-3.9617 -2.34758,-6.8356 -1.42861,-4.9277 -1.75149,-5.4562 -5.67075,-9.2802 l -4.15587,-4.0549 h -50.7857 -50.78568 v 92.0739 92.074 l -7.46958,-6e-4 -7.46957,-7e-4 0.009,-7.6211 c 0.005,-4.1922 -0.13623,-7.6217 -0.31406,-7.6217 -0.17783,0 -3.745,3.4299 -7.92704,7.622 l -7.60372,7.6221 h -6.10178 -6.10179 l 14.01658,-14.0266 14.01658,-14.0265 -25.14969,-25.1497 -25.14969,-25.1497 v 39.1762 39.1763 h -7.31713 -7.31714 z m 65.02644,1.2195 c 0.006,-27.1648 -0.14954,-49.3906 -0.34568,-49.3906 -0.19614,0 -11.46697,11.1129 -25.04629,24.6953 l -24.68967,24.6953 24.68967,24.6953 c 13.57932,13.5825 24.84523,24.6953 25.03535,24.6953 0.19012,0 0.3506,-22.2257 0.35662,-49.3906 z m -15.63401,-77.7428 -15.54172,-15.5506 h -9.60822 -9.60822 v 40.7005 40.7007 l 25.14993,-25.1499 25.14994,-25.15 z m 15.68324,-1.3752 c 0.0749,-2.263 -0.0184,-6.3781 -0.20718,-9.1449 l -0.3433,-5.0305 h -9.23649 -9.23649 l 9.13116,9.1464 c 5.02215,5.0305 9.2718,9.1457 9.44368,9.1449 0.17187,0 0.37375,-1.853 0.44862,-4.1159 z m -59.58782,-29.2601 c 0,-0.5979 -19.06017,-19.6717 -19.65764,-19.6717 -0.56984,0 -0.62613,19.1474 -0.058,19.7156 0.5592,0.5592 19.7156,0.5165 19.7156,-0.044 z m 72.86644,-17.2327 -17.67518,-17.6831 -17.22969,17.2218 c -9.47633,9.4719 -17.22969,17.4293 -17.22969,17.6831 0,0.2537 15.70719,0.4613 34.90487,0.4613 h 34.90488 z m 100.61242,14.8512 0.74606,-2.527 -14.85745,-14.8482 -14.85745,-14.8482 -17.52896,17.5318 -17.52896,17.5318 31.64035,-0.1566 31.64035,-0.1566 z m -145.42985,-15.1561 17.37016,-17.3782 h -32.77064 -32.77064 v 2.2822 c 0,2.168 0.75393,3.0365 15.08701,17.3782 8.29786,8.3028 15.22807,15.096 15.40048,15.096 0.1724,0 8.13004,-7.8202 17.68363,-17.3782 z m 89.63487,0 17.37016,-17.3782 h -35.05323 -35.05324 l 17.37017,17.3782 c 9.55359,9.558 17.51097,17.3782 17.68307,17.3782 0.1721,0 8.12948,-7.8202 17.68307,-17.3782 z"
         id="path868"
         inkscape:connector-curvature="0"
         sodipodi:nodetypes="csccscscccccccccccsccsscscccccssscccccccccscccccccccccccccccsscccccccccccccsscssccccccccccsccccscscscccccssscccccccccccscccssssscccsss" />
      <path
         sodipodi:nodetypes="csccscscccccccccccsccsscscccccssscccccccccscccccccccccccccccsscccccccccccccsscssccccccccccsccccscscscccccssscccccccccccscccssssscccsss"
         inkscape:connector-curvature="0"
         id="path866"
         d="m 101.81421,940.57988 c -1.75694,-1.757 -1.78238,-1.8796 -1.78238,-8.5836 0,-6.7041 0.0254,-6.8266 1.78238,-8.5836 l 1.78237,-1.7824 h 84.47011 c 60.60775,0 84.88986,0.1913 85.95598,0.677 2.26672,1.0329 2.83985,3.065 2.83985,10.0695 0,6.2835 -0.038,6.4587 -1.78238,8.2031 l -1.78238,1.7823 h -84.85059 -84.85059 z m 87.24272,-118.9503 v -92.0739 h -7.25747 -7.25749 l -0.64709,1.8562 c -1.04026,2.9841 -3.06026,5.4001 -5.59688,6.6942 -2.25423,1.15 -3.6751,1.2057 -30.76116,1.2057 -22.47152,0 -28.80923,-0.1719 -30.36943,-0.8238 -2.60614,-1.0889 -5.69326,-4.6777 -6.48916,-7.5437 -0.964387,-3.4728 -0.873237,-64.8199 0.10115,-68.0721 0.95684,-3.1937 4.37593,-6.6127 7.56958,-7.5696 3.23576,-0.9694 54.25733,-1.0589 57.70614,-0.1011 3.13651,0.871 6.20248,3.7087 7.55153,6.9892 l 1.1209,2.7257 h 84.76094 84.76094 l 16.66699,16.6753 16.66699,16.6752 3.75585,-1.5313 c 4.98437,-2.0322 11.36147,-2.0875 16.42946,-0.1424 4.93599,1.8944 10.11227,6.8115 12.3683,11.7491 2.3368,5.1144 2.49407,12.5378 0.36535,17.2453 -2.04246,4.5167 -4.21215,7.3879 -7.32564,9.6941 -2.6345,1.9514 -2.86643,2.3694 -4.41105,7.9498 l -1.63033,5.89 3.49274,1.7632 c 4.80799,2.4271 7.10985,4.5073 9.03694,8.1667 1.45004,2.7537 1.64428,3.8051 1.64686,8.9146 0.002,5.071 -0.20985,6.2485 -1.70486,9.4513 -3.4573,7.4065 -9.67908,11.8677 -17.2432,12.364 -5.50596,0.3611 -9.92995,-0.9 -13.91587,-3.9669 -7.53137,-5.7949 -9.56199,-17.7408 -3.44627,-20.2741 1.57145,-0.6509 2.08613,-0.6163 3.37275,0.2267 0.83508,0.5472 1.67235,1.746 1.86061,2.664 1.35837,6.624 3.72155,9.9108 7.94298,11.0476 6.64023,1.788 13.46832,-4.454 12.20991,-11.162 -0.52303,-2.7879 -3.20111,-5.8519 -7.90972,-9.0495 -4.11062,-2.7915 -8.53222,-7.0994 -9.79701,-9.5453 -0.458,-0.8856 -1.51441,-3.9617 -2.34758,-6.8356 -1.42861,-4.9277 -1.75149,-5.4562 -5.67075,-9.2802 l -4.15587,-4.0549 h -50.7857 -50.78568 v 92.0739 92.074 l -7.46958,-6e-4 -7.46957,-7e-4 0.009,-7.6211 c 0.005,-4.1922 -0.13623,-7.6217 -0.31406,-7.6217 -0.17783,0 -3.745,3.4299 -7.92704,7.622 l -7.60372,7.6221 h -6.10178 -6.10179 l 14.01658,-14.0266 14.01658,-14.0265 -25.14969,-25.1497 -25.14969,-25.1497 v 39.1762 39.1763 h -7.31713 -7.31714 z m 65.02644,1.2195 c 0.006,-27.1648 -0.14954,-49.3906 -0.34568,-49.3906 -0.19614,0 -11.46697,11.1129 -25.04629,24.6953 l -24.68967,24.6953 24.68967,24.6953 c 13.57932,13.5825 24.84523,24.6953 25.03535,24.6953 0.19012,0 0.3506,-22.2257 0.35662,-49.3906 z m -15.63401,-77.7428 -15.54172,-15.5506 h -9.60822 -9.60822 v 40.7005 40.7007 l 25.14993,-25.1499 25.14994,-25.15 z m 15.68324,-1.3752 c 0.0749,-2.263 -0.0184,-6.3781 -0.20718,-9.1449 l -0.3433,-5.0305 h -9.23649 -9.23649 l 9.13116,9.1464 c 5.02215,5.0305 9.2718,9.1457 9.44368,9.1449 0.17187,0 0.37375,-1.853 0.44862,-4.1159 z m -59.58782,-29.2601 c 0,-0.5979 -19.06017,-19.6717 -19.65764,-19.6717 -0.56984,0 -0.62613,19.1474 -0.058,19.7156 0.5592,0.5592 19.7156,0.5165 19.7156,-0.044 z m 72.86644,-17.2327 -17.67518,-17.6831 -17.22969,17.2218 c -9.47633,9.4719 -17.22969,17.4293 -17.22969,17.6831 0,0.2537 15.70719,0.4613 34.90487,0.4613 h 34.90488 z m 100.61242,14.8512 0.74606,-2.527 -14.85745,-14.8482 -14.85745,-14.8482 -17.52896,17.5318 -17.52896,17.5318 31.64035,-0.1566 31.64035,-0.1566 z m -145.42985,-15.1561 17.37016,-17.3782 h -32.77064 -32.77064 v 2.2822 c 0,2.168 0.75393,3.0365 15.08701,17.3782 8.29786,8.3028 15.22807,15.096 15.40048,15.096 0.1724,0 8.13004,-7.8202 17.68363,-17.3782 z m 89.63487,0 17.37016,-17.3782 h -35.05323 -35.05324 l 17.37017,17.3782 c 9.55359,9.558 17.51097,17.3782 17.68307,17.3782 0.1721,0 8.12948,-7.8202 17.68307,-17.3782 z"
         style="fill:#ffffff;stroke-width:0.609761" />
    </g>
  </g>
</svg>
