<?xml version="1.0" encoding="UTF-8" standalone="no"?>
<!-- Created with Inkscape (http://www.inkscape.org/) -->

<svg
   xmlns:dc="http://purl.org/dc/elements/1.1/"
   xmlns:cc="http://creativecommons.org/ns#"
   xmlns:rdf="http://www.w3.org/1999/02/22-rdf-syntax-ns#"
   xmlns:svg="http://www.w3.org/2000/svg"
   xmlns="http://www.w3.org/2000/svg"
   xmlns:sodipodi="http://sodipodi.sourceforge.net/DTD/sodipodi-0.dtd"
   xmlns:inkscape="http://www.inkscape.org/namespaces/inkscape"
   width="512"
   height="512"
   id="svg2"
   version="1.1"
   inkscape:version="0.92.2 5c3e80d, 2017-08-06"
   sodipodi:docname="folder-print.svg">
  <defs
     id="defs4" />
  <sodipodi:namedview
     id="base"
     pagecolor="#ffffff"
     bordercolor="#666666"
     borderopacity="1.0"
     inkscape:pageopacity="0.0"
     inkscape:pageshadow="2"
     inkscape:zoom="0.49497475"
     inkscape:cx="211.58578"
     inkscape:cy="171.08435"
     inkscape:document-units="px"
     inkscape:current-layer="layer1"
     showgrid="false"
     inkscape:window-width="1366"
     inkscape:window-height="717"
     inkscape:window-x="0"
     inkscape:window-y="24"
     inkscape:window-maximized="1" />
  <metadata
     id="metadata7">
    <rdf:RDF>
      <cc:Work
         rdf:about="">
        <dc:format>image/svg+xml</dc:format>
        <dc:type
           rdf:resource="http://purl.org/dc/dcmitype/StillImage" />
        <dc:title />
      </cc:Work>
    </rdf:RDF>
  </metadata>
  <g
     inkscape:label="Layer 1"
     inkscape:groupmode="layer"
     id="layer1"
     transform="translate(0,-540.36218)">
    <g
       id="g837">
      <path
         id="path848"
         d="m 432.91325,596.83615 c 102.19291,88.57459 105.82677,249.69971 8.1168,359.89879 C 343.32009,1066.934 181.27965,1084.4628 79.08674,995.8882 -23.106205,907.31361 -26.740032,746.18849 70.96994,635.98941 168.67991,525.79033 330.72036,508.26156 432.91325,596.83615 Z"
         inkscape:connector-curvature="0"
         style="fill:#7f6421;fill-opacity:1;stroke-width:11.10955811" />
      <path
         style="fill:#ffffff;fill-opacity:1;stroke-width:10.33090782"
         inkscape:connector-curvature="0"
         d="m 419.35612,611.39939 c 95.03037,82.36656 98.40957,232.19868 7.54791,334.67411 C 336.04238,1048.5489 185.35908,1064.8491 90.32868,982.48256 -4.7017196,900.11603 -8.0808818,750.28388 82.780775,647.80845 173.64243,545.33306 324.32573,529.03282 419.35612,611.39939 Z"
         id="path849" />
      <path
         inkscape:connector-curvature="0"
         id="path843"
         d="m 279.8415,540.37999 c -75.15243,-0.5037 -152.65749,32.21064 -208.871095,95.60935 -97.709979,110.19908 -94.075759,271.32385 8.117182,359.89844 102.192903,88.57462 264.233393,71.04672 361.943373,-39.15235 32.12689,-36.23327 53.2938,-77.97283 63.60737,-120.8281 C 485.01835,800.01887 436.88916,715.26039 386.63445,651.83701 351.73982,607.79856 310.65691,568.01604 279.8415,540.37999 Z"
         style="fill:#f9c440;fill-opacity:1;stroke:none;stroke-width:0.99999994px;stroke-linecap:butt;stroke-linejoin:miter;stroke-opacity:1" />
      <path
         id="path850"
         d="M 511.63548,765.2657 C 510.0841,826.57734 486.47426,889.42031 440.66911,941.08017 342.95915,1051.2793 180.9187,1068.808 78.725757,980.23347 30.827125,938.71782 4.4968191,881.28502 0.19382686,820.59099 0.79908041,886.94766 27.117405,950.84436 79.07869,995.88125 181.2716,1084.4558 343.31975,1066.9184 441.022,956.72795 490.72695,900.66984 514.02702,831.43699 511.63548,765.2657 Z"
         inkscape:connector-curvature="0"
         style="opacity:1;stroke-width:11.10955811;fill:#000000;fill-opacity:0.49019608" />
      <path
         inkscape:connector-curvature="0"
         id="path921"
         d="m 165.80841,971.33976 c -3.41522,-1.05207 -8.07829,-5.0293 -9.90886,-8.45155 l -1.35058,-2.52492 -0.16705,-48.7768 -0.16706,-48.77685 h 14.6931 14.69307 v 39.32727 c 0,29.7724 0.17839,39.50563 0.73395,40.06122 1.06696,1.06696 184.62134,1.06696 185.6883,0 0.55563,-0.55559 0.73395,-10.28882 0.73395,-40.06122 v -39.32727 h 14.69306 14.69307 l -0.16706,48.77685 -0.16706,48.7768 -1.35057,2.52492 c -1.91218,3.57483 -6.4876,7.39513 -10.1647,8.48712 -4.50671,1.33833 -218.13631,1.30416 -222.48548,-0.034 z m 39.44398,-50.05909 c -2.02469,-2.02469 -2.07949,-2.21083 -2.07949,-7.06401 0,-3.16252 0.32466,-5.6126 0.88856,-6.70284 1.83995,-3.55805 -1.11794,-3.41968 73.11765,-3.41968 74.23555,0 71.27766,-0.13833 73.11761,3.41968 0.56375,1.09024 0.88856,3.54032 0.88856,6.70284 0,4.85318 -0.0548,5.03932 -2.07953,7.06401 l -2.0795,2.07954 H 277.17911 207.33193 Z M 127.026,915.00446 c -2.8385,-1.49642 -4.6444,-3.34522 -5.87766,-6.01738 -1.07482,-2.32883 -1.12974,-5.54279 -1.14255,-66.83928 -0.0151,-70.48385 -0.20183,-66.74227 3.53582,-70.67725 3.61542,-3.80621 3.22443,-3.75057 27.79635,-3.95542 l 22.47712,-0.18747 0.008,-46.90745 0.008,-46.90745 1.4304,-3.05809 c 0.7867,-1.68197 2.68448,-4.20941 4.21727,-5.61657 5.06853,-4.65309 2.627,-4.47522 61.4239,-4.47522 h 52.18265 v 15.90217 15.90217 h -44.269 c -40.42655,0 -44.34047,0.0877 -45.10708,1.01118 -0.69021,0.83142 -0.86876,8.60311 -1.00444,43.73095 l -0.16517,42.71973 h 74.62995 74.62998 v -14.67889 -14.67893 h 14.37309 14.37313 v 8.52658 8.52657 l 21.25383,0.18898 c 23.2204,0.20636 22.97598,0.17008 26.57307,3.95705 3.73651,3.9337 3.54928,0.21203 3.54928,70.54398 0,69.64637 0.14022,66.61092 -3.24023,70.23473 -2.77126,2.97101 -5.38862,3.77148 -12.33177,3.77148 h -6.44636 V 884.52212 853.02361 H 277.18085 144.45896 v 31.49851 31.49851 l -7.79819,-0.0227 c -5.89209,-0.0189 -8.24666,-0.26079 -9.63303,-0.99182 z m 34.60962,-104.35498 c 1.87934,-1.44291 2.39347,-3.44379 2.39347,-9.31461 0,-5.70297 -0.059,-5.95669 -1.7878,-7.68548 -1.75158,-1.75158 -1.91943,-1.78783 -8.28468,-1.78783 -6.08244,0 -6.59267,0.0956 -7.99813,1.50127 -1.41346,1.41343 -1.50126,1.898 -1.50126,8.28468 0,6.38669 0.0877,6.87126 1.50126,8.28469 1.41143,1.41143 1.89623,1.50009 8.10399,1.4818 4.22321,-0.0113 6.95248,-0.288 7.57315,-0.76452 z m 51.52233,78.45993 c -5.51682,-0.27099 -6.40176,-0.47418 -7.79913,-1.78946 -2.09178,-1.96898 -2.65508,-4.37529 -2.20985,-9.44031 0.32844,-3.73561 0.58594,-4.39004 2.34671,-5.9633 l 1.97787,-1.76723 h 69.77635 69.77635 l 2.0795,2.07953 c 2.04627,2.04624 2.07953,2.16465 2.07953,7.40062 0,5.23593 -0.034,5.35438 -2.07953,7.40062 -1.36124,1.36127 -2.68154,2.0897 -3.82262,2.10901 -13.02829,0.22035 -127.5572,0.19502 -132.12518,-0.0302 z M 313.76962,737.18253 c -3.77987,-1.34993 -7.04054,-4.41332 -9.05314,-8.50537 l -1.86315,-3.78815 0.15987,-31.95919 0.15987,-31.9592 38.53032,38.53414 38.53032,38.5341 -32.1083,-0.0265 c -24.89506,-0.0227 -32.6132,-0.20712 -34.35575,-0.82953 z"
         style="fill:#000000;fill-opacity:0.49019608;stroke-width:0.6116215" />
      <path
         style="fill:#ffffff;stroke-width:0.6116215"
         d="m 145.80842,951.33977 c -3.41522,-1.05207 -8.07829,-5.0293 -9.90883,-8.45155 l -1.35058,-2.52491 -0.16705,-48.77681 -0.16706,-48.77685 h 14.69307 14.6931 v 39.32727 c 0,29.7724 0.1784,39.50563 0.73395,40.06122 1.06692,1.06696 184.62134,1.06696 185.68826,0 0.55563,-0.55559 0.73395,-10.28882 0.73395,-40.06122 v -39.32727 h 14.6931 14.69307 l -0.16706,48.77685 -0.16705,48.77681 -1.35058,2.52491 c -1.91218,3.57483 -6.48763,7.39514 -10.16474,8.48712 -4.5067,1.33833 -218.13626,1.30416 -222.48548,-0.034 z m 39.44402,-50.05908 c -2.02474,-2.0247 -2.0795,-2.21084 -2.0795,-7.06402 0,-3.16252 0.32466,-5.6126 0.88857,-6.70284 1.83995,-3.55805 -1.11795,-3.41968 73.1176,-3.41968 74.23559,0 71.2777,-0.13833 73.11761,3.41968 0.56379,1.09024 0.8886,3.54032 0.8886,6.70284 0,4.85318 -0.0548,5.03932 -2.07953,7.06402 l -2.0795,2.07953 h -69.84718 -69.84718 z m -78.2264,-6.27621 c -2.8385,-1.49643 -4.6444,-3.34522 -5.87766,-6.01739 -1.07482,-2.32883 -1.12977,-5.54279 -1.14259,-66.83928 -0.0151,-70.48384 -0.201821,-66.74226 3.53587,-70.67724 3.61542,-3.80621 3.22442,-3.75058 27.79634,-3.95543 l 22.47708,-0.18746 0.008,-46.90746 0.008,-46.90745 1.4304,-3.05809 c 0.78667,-1.68197 2.68444,-4.20941 4.21723,-5.61657 5.06853,-4.65309 2.627,-4.47522 61.4239,-4.47522 h 52.18261 v 15.90217 15.90217 h -44.26745 c -40.42658,0 -44.34051,0.0877 -45.10707,1.01118 -0.69026,0.83142 -0.86877,8.60311 -1.00445,43.73095 l -0.16517,42.71973 h 74.62995 74.62995 V 744.9502 730.27127 h 14.37313 14.37309 v 8.52658 8.52658 l 21.25387,0.18897 c 23.22039,0.20636 22.97597,0.17008 26.57306,3.95705 3.73652,3.9337 3.54928,0.21204 3.54928,70.54398 0,69.64637 0.14022,66.61092 -3.24023,70.23473 -2.77126,2.97101 -5.38862,3.77148 -12.33176,3.77148 h -6.44637 v -31.49851 -31.4985 H 257.18236 124.46051 v 31.4985 31.49851 l -7.79819,-0.0227 c -5.89209,-0.0189 -8.24666,-0.26078 -9.63303,-0.99182 z m 34.60963,-104.35499 c 1.87933,-1.44291 2.39346,-3.44379 2.39346,-9.31461 0,-5.70296 -0.059,-5.95668 -1.78779,-7.68548 -1.75159,-1.75158 -1.91944,-1.78783 -8.28473,-1.78783 -6.08239,0 -6.59263,0.0956 -7.99808,1.50127 -1.41347,1.41343 -1.50127,1.898 -1.50127,8.28468 0,6.38669 0.0877,6.87126 1.50127,8.28469 1.41142,1.41143 1.89622,1.5001 8.10398,1.4818 4.22321,-0.0113 6.95244,-0.288 7.57316,-0.76452 z m 51.52229,78.45993 c -5.51683,-0.27099 -6.40173,-0.47418 -7.79909,-1.78945 -2.09182,-1.96899 -2.65512,-4.3753 -2.20986,-9.44032 0.32845,-3.73561 0.58591,-4.39003 2.34671,-5.9633 l 1.97787,-1.76723 h 69.77635 69.77635 l 2.0795,2.07953 c 2.04624,2.04624 2.07953,2.16465 2.07953,7.40062 0,5.23593 -0.034,5.35438 -2.07953,7.40062 -1.36123,1.36127 -2.68154,2.0897 -3.82261,2.10901 -13.0283,0.22035 -127.55721,0.19503 -132.12522,-0.0302 z M 293.76963,717.18254 c -3.77983,-1.34993 -7.04051,-4.41331 -9.05314,-8.50537 l -1.86316,-3.78815 0.15987,-31.95919 0.15988,-31.95919 38.53035,38.53413 38.53032,38.5341 -32.10833,-0.0265 c -24.89503,-0.0227 -32.61317,-0.20712 -34.35572,-0.82953 z"
         id="path923"
         inkscape:connector-curvature="0" />
    </g>
  </g>
</svg>
