<?xml version="1.0" encoding="UTF-8" standalone="no"?>
<!-- Created with Inkscape (http://www.inkscape.org/) -->

<svg
   xmlns:dc="http://purl.org/dc/elements/1.1/"
   xmlns:cc="http://creativecommons.org/ns#"
   xmlns:rdf="http://www.w3.org/1999/02/22-rdf-syntax-ns#"
   xmlns:svg="http://www.w3.org/2000/svg"
   xmlns="http://www.w3.org/2000/svg"
   xmlns:sodipodi="http://sodipodi.sourceforge.net/DTD/sodipodi-0.dtd"
   xmlns:inkscape="http://www.inkscape.org/namespaces/inkscape"
   width="512"
   height="512"
   id="svg2"
   version="1.1"
   inkscape:version="0.92.2 5c3e80d, 2017-08-06"
   sodipodi:docname="folder-remote.svg">
  <defs
     id="defs4">
    <radialGradient
       id="polygon413_1_"
       cx="7976.3457"
       cy="-10508.842"
       r="13293.867"
       gradientTransform="matrix(0.0222,0,0,-0.0248,721.1671,674.6745)"
       gradientUnits="userSpaceOnUse">
      <stop
         offset="0"
         style="stop-color:#80FF80"
         id="stop388" />
      <stop
         offset="1"
         style="stop-color:#0f0"
         id="stop390" />
    </radialGradient>
  </defs>
  <sodipodi:namedview
     id="base"
     pagecolor="#ffffff"
     bordercolor="#666666"
     borderopacity="1.0"
     inkscape:pageopacity="0.0"
     inkscape:pageshadow="2"
     inkscape:zoom="0.35"
     inkscape:cx="46.623401"
     inkscape:cy="297.93133"
     inkscape:document-units="px"
     inkscape:current-layer="layer1"
     showgrid="false"
     inkscape:window-width="1366"
     inkscape:window-height="717"
     inkscape:window-x="0"
     inkscape:window-y="24"
     inkscape:window-maximized="1" />
  <metadata
     id="metadata7">
    <rdf:RDF>
      <cc:Work
         rdf:about="">
        <dc:format>image/svg+xml</dc:format>
        <dc:type
           rdf:resource="http://purl.org/dc/dcmitype/StillImage" />
        <dc:title />
      </cc:Work>
    </rdf:RDF>
  </metadata>
  <g
     inkscape:label="Layer 1"
     inkscape:groupmode="layer"
     id="layer1"
     transform="translate(0,-540.36218)">
    <g
       id="g840">
      <path
         id="path848"
         d="m 432.91325,596.83615 c 102.19291,88.57459 105.82677,249.69971 8.1168,359.89879 C 343.32009,1066.934 181.27965,1084.4628 79.08674,995.8882 -23.106205,907.31361 -26.740032,746.18849 70.96994,635.98941 168.67991,525.79033 330.72036,508.26156 432.91325,596.83615 Z"
         inkscape:connector-curvature="0"
         style="fill:#7f6421;fill-opacity:1;stroke-width:11.10955811" />
      <path
         style="fill:#ffffff;fill-opacity:1;stroke-width:10.33090782"
         inkscape:connector-curvature="0"
         d="m 419.35612,611.39939 c 95.03037,82.36656 98.40957,232.19868 7.54791,334.67411 C 336.04238,1048.5489 185.35908,1064.8491 90.32868,982.48256 -4.7017196,900.11603 -8.0808818,750.28388 82.780775,647.80845 173.64243,545.33306 324.32573,529.03282 419.35612,611.39939 Z"
         id="path849" />
      <path
         inkscape:connector-curvature="0"
         id="path843"
         d="m 279.8415,540.37999 c -75.15243,-0.5037 -152.65749,32.21064 -208.871095,95.60935 -97.709979,110.19908 -94.075759,271.32385 8.117182,359.89844 102.192903,88.57462 264.233393,71.04672 361.943373,-39.15235 32.12689,-36.23327 53.2938,-77.97283 63.60737,-120.8281 C 485.01835,800.01887 436.88916,715.26039 386.63445,651.83701 351.73982,607.79856 310.65691,568.01604 279.8415,540.37999 Z"
         style="fill:#f9c440;fill-opacity:1;stroke:none;stroke-width:0.99999994px;stroke-linecap:butt;stroke-linejoin:miter;stroke-opacity:1" />
      <path
         id="path850"
         d="M 511.63548,765.2657 C 510.0841,826.57734 486.47426,889.42031 440.66911,941.08017 342.95915,1051.2793 180.9187,1068.808 78.725757,980.23347 30.827125,938.71782 4.4968191,881.28502 0.19382686,820.59099 0.79908041,886.94766 27.117405,950.84436 79.07869,995.88125 181.2716,1084.4558 343.31975,1066.9184 441.022,956.72795 490.72695,900.66984 514.02702,831.43699 511.63548,765.2657 Z"
         inkscape:connector-curvature="0"
         style="opacity:1;stroke-width:11.10955811;fill:#000000;fill-opacity:0.49019608" />
      <path
         style="fill:#000000;fill-opacity:0.49019608;stroke-width:0.20015281"
         d="m 206.9357,972.1073 c -3.01123,-0.46806 -6.17489,-1.78189 -8.69856,-3.61242 -0.73351,-0.53205 -17.11267,-16.75832 -37.55079,-37.20026 -38.65573,-38.66301 -37.48954,-37.44135 -39.00457,-40.86015 -2.82917,-6.38429 -2.05175,-13.81416 2.05241,-19.61497 0.6564,-0.92775 18.66112,-19.11653 53.2963,-53.84111 94.48997,-94.73388 104.60932,-104.81856 106.25253,-105.88846 1.87634,-1.22169 4.58272,-2.39227 6.80079,-2.94151 2.44341,-0.60503 6.23606,-0.59836 8.71811,0.0153 2.02194,0.49993 4.8465,1.7713 6.74168,3.0345 1.49861,0.99887 73.24082,72.55072 74.85497,74.65636 1.29415,1.68819 2.84171,4.85671 3.42153,7.00535 0.40149,1.48782 0.45771,2.15339 0.44803,5.30405 -0.0103,3.31534 -0.0535,3.74068 -0.54308,5.33179 -0.74399,2.4179 -1.37991,3.77898 -2.67519,5.72565 -0.94994,1.42766 -8.19946,8.74761 -47.68268,48.14593 -25.60932,25.55427 -60.79328,60.67078 -78.18656,78.03672 -17.39328,17.36592 -32.25383,32.07429 -33.02343,32.68526 -2.62064,2.08043 -5.9004,3.49508 -9.30889,4.01518 -2.24594,0.34271 -3.72108,0.34341 -5.9126,0.003 z m 7.6139,-35.73305 c 3.37224,-0.89041 7.29999,-3.37334 9.3071,-5.88345 2.89214,-3.61694 4.20321,-7.27728 4.20321,-11.7347 0,-3.56333 -0.81911,-6.52751 -2.63591,-9.53872 -2.31045,-3.82945 -6.51572,-6.93352 -10.97448,-8.10071 -2.19791,-0.57534 -6.38968,-0.63378 -8.45391,-0.11785 -3.56486,0.891 -6.45022,2.48912 -8.80962,4.87941 -2.32185,2.35225 -3.60239,4.45645 -4.67005,7.6739 -0.52818,1.59167 -0.56517,1.92054 -0.57408,5.10389 -0.0107,3.82471 0.171,4.75249 1.49426,7.62959 2.53579,5.51343 7.29556,9.23437 13.30752,10.40317 1.96194,0.38143 5.74797,0.22887 7.80596,-0.31453 z m -38.01576,-36.04242 c 6.4565,-1.14357 11.84014,-5.59083 14.09023,-11.63944 1.10332,-2.96593 1.41017,-7.0892 0.75132,-10.09569 -1.67499,-7.64334 -7.96083,-13.34571 -15.75552,-14.29304 -4.10634,-0.49906 -8.91892,0.68046 -12.31784,3.01896 -2.62719,1.80757 -5.2298,4.98918 -6.47093,7.9105 -1.11979,2.63572 -1.31367,3.70196 -1.30842,7.19524 0.004,2.90325 0.0553,3.36679 0.54509,4.96145 2.09518,6.82138 7.6675,11.79218 14.51443,12.94759 1.39825,0.23595 4.60498,0.23296 5.95164,-0.005 z m 74.80317,-0.47302 c 5.87513,-1.73912 10.29446,-5.97808 12.26196,-11.76146 0.7082,-2.08173 0.95689,-4.08894 0.83259,-6.71985 -0.21465,-4.54317 -1.76324,-8.15531 -4.9426,-11.5287 -2.37321,-2.51805 -5.47686,-4.31304 -8.93647,-5.16837 -2.24601,-0.55528 -6.06668,-0.59906 -8.15418,-0.0934 -6.74843,1.63457 -11.95946,6.71179 -13.67642,13.3252 -0.60604,2.33437 -0.69844,5.89874 -0.21055,8.12222 1.58837,7.23866 7.04481,12.64062 14.35988,14.21649 2.09403,0.45111 6.27076,0.25766 8.46579,-0.3921 z m -37.7297,-36.06069 c 3.44913,-0.70707 6.59625,-2.41831 9.15714,-4.9792 3.54411,-3.54411 5.31086,-7.81686 5.31086,-12.84394 0,-4.70896 -1.576,-8.82575 -4.65996,-12.17266 -4.09054,-4.43929 -9.55767,-6.53753 -15.35849,-5.89447 -7.90304,0.87612 -14.29832,6.65987 -15.92745,14.40446 -0.38869,1.84779 -0.37945,5.40529 0.0191,7.34946 0.70706,3.44913 2.41831,6.59626 4.9792,9.15715 2.51014,2.51015 5.67179,4.25098 9.01547,4.96405 1.88873,0.40277 5.53712,0.41019 7.46413,0.0152 z m 78.82271,-11.89908 c 17.97525,-1.43586 33.22965,-12.1872 40.7432,-28.71591 1.62177,-3.56769 3.02182,-8.45145 3.70088,-12.90986 0.43771,-2.87377 0.49392,-10.00075 0.101,-12.80978 -1.53407,-10.96743 -6.2837,-20.64641 -13.83486,-28.19316 -3.9132,-3.91092 -7.8718,-6.74167 -12.91758,-9.23718 -16.92439,-8.37041 -37.12707,-6.12808 -51.9282,5.76359 -16.82154,13.51493 -22.60483,36.8107 -14.1033,56.80984 8.0614,18.96377 27.76408,30.92798 48.23887,29.29246 z M 284.42236,827.365 c -4.85194,-0.8762 -9.56244,-3.40711 -13.05567,-7.01471 -4.85115,-5.00999 -7.38516,-12.21514 -6.68485,-19.00761 1.12519,-10.91358 8.71871,-19.35041 19.46782,-21.62987 2.27067,-0.48152 7.04261,-0.48152 9.31328,0 9.77611,2.07313 17.05831,9.31332 19.07494,18.96488 0.55345,2.64881 0.60618,6.69118 0.12002,9.20238 -1.9444,10.04365 -9.72131,17.76953 -19.62545,19.49667 -2.19858,0.3834 -6.4541,0.37759 -8.61009,-0.0117 z m 98.8958,-68.34998 c -1.40127,-0.32975 -2.9646,-1.21669 -4.22835,-2.39884 -2.1247,-1.98758 -3.11696,-4.41007 -3.11696,-7.60981 0,-3.64504 -2.30708,-9.97943 -5.34518,-14.67584 -4.87463,-7.53539 -12.14043,-13.52008 -19.92231,-16.40958 -3.12339,-1.15975 -4.92426,-1.51636 -7.66564,-1.51795 -3.7472,-0.002 -5.81501,-0.73958 -7.88852,-2.81308 -1.88359,-1.88359 -2.81167,-4.16477 -2.81167,-6.91098 0,-2.0638 0.52065,-3.82317 1.61742,-5.46562 1.03711,-1.55306 2.10665,-2.46413 3.97846,-3.38894 l 1.49276,-0.73753 3.91136,0.0156 c 2.76204,0.011 4.47013,0.1165 5.81284,0.35892 10.81796,1.95312 21.22458,7.81326 30.12476,16.96376 6.61838,6.80452 11.36003,14.41179 14.01951,22.49211 1.0819,3.28715 1.65459,6.21865 1.93546,9.90756 0.25479,3.34601 -0.003,5.21713 -0.9898,7.1866 -0.7037,1.40434 -2.65707,3.41355 -3.95853,4.07169 -2.13176,1.07803 -4.81775,1.43738 -6.96561,0.93191 z m 36.08785,-6.7632 c -2.3925,-0.77351 -4.13832,-2.09174 -5.44245,-4.10951 -1.05304,-1.62927 -1.36168,-2.78319 -1.56231,-5.84125 -0.43233,-6.5901 -2.31063,-13.00719 -5.9102,-20.19206 -3.99843,-7.98099 -8.21649,-13.67068 -15.58912,-21.02806 -7.0993,-7.08462 -13.3376,-11.65226 -21.18892,-15.51439 -6.98291,-3.43497 -13.3941,-5.25894 -19.65995,-5.59323 -4.49072,-0.23958 -6.34607,-0.95935 -8.43729,-3.27321 -4.37964,-4.84594 -2.91195,-12.55278 2.93308,-15.40167 1.99545,-0.97259 3.48537,-1.18548 6.61937,-0.94583 7.04645,0.53882 14.09542,2.21178 21.1018,5.00818 15.61981,6.2342 31.427,18.83475 43.06401,34.32805 5.67099,7.55024 10.13549,15.77717 12.93807,23.84154 2.7253,7.84201 4.39642,18.3343 3.47105,21.7933 -0.85517,3.19664 -3.34229,5.8425 -6.47636,6.8897 -1.59698,0.53361 -4.27488,0.55117 -5.86078,0.0385 z"
         id="path867"
         inkscape:connector-curvature="0" />
      <path
         inkscape:connector-curvature="0"
         id="path865"
         d="m 186.9357,952.1073 c -3.01123,-0.46806 -6.17489,-1.78189 -8.69856,-3.61242 -0.73351,-0.53205 -17.11267,-16.75832 -37.55079,-37.20026 -38.65573,-38.66301 -37.48954,-37.44135 -39.00457,-40.86015 -2.829172,-6.38429 -2.051748,-13.81416 2.05241,-19.61497 0.6564,-0.92775 18.66112,-19.11653 53.2963,-53.84111 94.48997,-94.73388 104.60932,-104.81856 106.25253,-105.88846 1.87634,-1.22169 4.58272,-2.39227 6.80079,-2.94151 2.44341,-0.60503 6.23606,-0.59836 8.71811,0.0153 2.02194,0.49993 4.8465,1.7713 6.74168,3.0345 1.49861,0.99887 73.24082,72.55072 74.85497,74.65636 1.29415,1.68819 2.84171,4.85671 3.42153,7.00535 0.40149,1.48782 0.45771,2.15339 0.44803,5.30405 -0.0103,3.31534 -0.0535,3.74068 -0.54308,5.33179 -0.74399,2.4179 -1.37991,3.77898 -2.67519,5.72565 -0.94994,1.42766 -8.19946,8.74761 -47.68268,48.14593 -25.60932,25.55427 -60.79328,60.67078 -78.18656,78.03672 -17.39328,17.36592 -32.25383,32.07429 -33.02343,32.68526 -2.62064,2.08043 -5.9004,3.49508 -9.30889,4.01518 -2.24594,0.34271 -3.72108,0.34341 -5.9126,0.003 z m 7.6139,-35.73305 c 3.37224,-0.89041 7.29999,-3.37334 9.3071,-5.88345 2.89214,-3.61694 4.20321,-7.27728 4.20321,-11.7347 0,-3.56333 -0.81911,-6.52751 -2.63591,-9.53872 -2.31045,-3.82945 -6.51572,-6.93352 -10.97448,-8.10071 -2.19791,-0.57534 -6.38968,-0.63378 -8.45391,-0.11785 -3.56486,0.891 -6.45022,2.48912 -8.80962,4.87941 -2.32185,2.35225 -3.60239,4.45645 -4.67005,7.6739 -0.52818,1.59167 -0.56517,1.92054 -0.57408,5.10389 -0.0107,3.82471 0.171,4.75249 1.49426,7.62959 2.53579,5.51343 7.29556,9.23437 13.30752,10.40317 1.96194,0.38143 5.74797,0.22887 7.80596,-0.31453 z m -38.01576,-36.04242 c 6.4565,-1.14357 11.84014,-5.59083 14.09023,-11.63944 1.10332,-2.96593 1.41017,-7.0892 0.75132,-10.09569 -1.67499,-7.64334 -7.96083,-13.34571 -15.75552,-14.29304 -4.10634,-0.49906 -8.91892,0.68046 -12.31784,3.01896 -2.62719,1.80757 -5.2298,4.98918 -6.47093,7.9105 -1.11979,2.63572 -1.31367,3.70196 -1.30842,7.19524 0.004,2.90325 0.0553,3.36679 0.54509,4.96145 2.09518,6.82138 7.6675,11.79218 14.51443,12.94759 1.39825,0.23595 4.60498,0.23296 5.95164,-0.005 z m 74.80317,-0.47302 c 5.87513,-1.73912 10.29446,-5.97808 12.26196,-11.76146 0.7082,-2.08173 0.95689,-4.08894 0.83259,-6.71985 -0.21465,-4.54317 -1.76324,-8.15531 -4.9426,-11.5287 -2.37321,-2.51805 -5.47686,-4.31304 -8.93647,-5.16837 -2.24601,-0.55528 -6.06668,-0.59906 -8.15418,-0.0934 -6.74843,1.63457 -11.95946,6.71179 -13.67642,13.3252 -0.60604,2.33437 -0.69844,5.89874 -0.21055,8.12222 1.58837,7.23866 7.04481,12.64062 14.35988,14.21649 2.09403,0.45111 6.27076,0.25766 8.46579,-0.3921 z m -37.7297,-36.06069 c 3.44913,-0.70707 6.59625,-2.41831 9.15714,-4.9792 3.54411,-3.54411 5.31086,-7.81686 5.31086,-12.84394 0,-4.70896 -1.576,-8.82575 -4.65996,-12.17266 -4.09054,-4.43929 -9.55767,-6.53753 -15.35849,-5.89447 -7.90304,0.87612 -14.29832,6.65987 -15.92745,14.40446 -0.38869,1.84779 -0.37945,5.40529 0.0191,7.34946 0.70706,3.44913 2.41831,6.59626 4.9792,9.15715 2.51014,2.51015 5.67179,4.25098 9.01547,4.96405 1.88873,0.40277 5.53712,0.41019 7.46413,0.0152 z m 78.82271,-11.89908 c 17.97525,-1.43586 33.22965,-12.1872 40.7432,-28.71591 1.62177,-3.56769 3.02182,-8.45145 3.70088,-12.90986 0.43771,-2.87377 0.49392,-10.00075 0.101,-12.80978 -1.53407,-10.96743 -6.2837,-20.64641 -13.83486,-28.19316 -3.9132,-3.91092 -7.8718,-6.74167 -12.91758,-9.23718 -16.92439,-8.37041 -37.12707,-6.12808 -51.9282,5.76359 -16.82154,13.51493 -22.60483,36.8107 -14.1033,56.80984 8.0614,18.96377 27.76408,30.92798 48.23887,29.29246 z M 264.42236,807.365 c -4.85194,-0.8762 -9.56244,-3.40711 -13.05567,-7.01471 -4.85115,-5.00999 -7.38516,-12.21514 -6.68485,-19.00761 1.12519,-10.91358 8.71871,-19.35041 19.46782,-21.62987 2.27067,-0.48152 7.04261,-0.48152 9.31328,0 9.77611,2.07313 17.05831,9.31332 19.07494,18.96488 0.55345,2.64881 0.60618,6.69118 0.12002,9.20238 -1.9444,10.04365 -9.72131,17.76953 -19.62545,19.49667 -2.19858,0.3834 -6.4541,0.37759 -8.61009,-0.0117 z m 98.8958,-68.34998 c -1.40127,-0.32975 -2.9646,-1.21669 -4.22835,-2.39884 -2.1247,-1.98758 -3.11696,-4.41007 -3.11696,-7.60981 0,-3.64504 -2.30708,-9.97943 -5.34518,-14.67584 -4.87463,-7.53539 -12.14043,-13.52008 -19.92231,-16.40958 -3.12339,-1.15975 -4.92426,-1.51636 -7.66564,-1.51795 -3.7472,-0.002 -5.81501,-0.73958 -7.88852,-2.81308 -1.88359,-1.88359 -2.81167,-4.16477 -2.81167,-6.91098 0,-2.0638 0.52065,-3.82317 1.61742,-5.46562 1.03711,-1.55306 2.10665,-2.46413 3.97846,-3.38894 l 1.49276,-0.73753 3.91136,0.0156 c 2.76204,0.011 4.47013,0.1165 5.81284,0.35892 10.81796,1.95312 21.22458,7.81326 30.12476,16.96376 6.61838,6.80452 11.36003,14.41179 14.01951,22.49211 1.0819,3.28715 1.65459,6.21865 1.93546,9.90756 0.25479,3.34601 -0.003,5.21713 -0.9898,7.1866 -0.7037,1.40434 -2.65707,3.41355 -3.95853,4.07169 -2.13176,1.07803 -4.81775,1.43738 -6.96561,0.93191 z m 36.08785,-6.7632 c -2.3925,-0.77351 -4.13832,-2.09174 -5.44245,-4.10951 -1.05304,-1.62927 -1.36168,-2.78319 -1.56231,-5.84125 -0.43233,-6.5901 -2.31063,-13.00719 -5.9102,-20.19206 -3.99843,-7.98099 -8.21649,-13.67068 -15.58912,-21.02806 -7.0993,-7.08462 -13.3376,-11.65226 -21.18892,-15.51439 -6.98291,-3.43497 -13.3941,-5.25894 -19.65995,-5.59323 -4.49072,-0.23958 -6.34607,-0.95935 -8.43729,-3.27321 -4.37964,-4.84594 -2.91195,-12.55278 2.93308,-15.40167 1.99545,-0.97259 3.48537,-1.18548 6.61937,-0.94583 7.04645,0.53882 14.09542,2.21178 21.1018,5.00818 15.61981,6.2342 31.427,18.83475 43.06401,34.32805 5.67099,7.55024 10.13549,15.77717 12.93807,23.84154 2.7253,7.84201 4.39642,18.3343 3.47105,21.7933 -0.85517,3.19664 -3.34229,5.8425 -6.47636,6.8897 -1.59698,0.53361 -4.27488,0.55117 -5.86078,0.0385 z"
         style="fill:#ffffff;stroke-width:0.20015281" />
    </g>
  </g>
</svg>
