<?xml version="1.0" encoding="UTF-8" standalone="no"?>
<!-- Created with Inkscape (http://www.inkscape.org/) -->

<svg
   xmlns:dc="http://purl.org/dc/elements/1.1/"
   xmlns:cc="http://creativecommons.org/ns#"
   xmlns:rdf="http://www.w3.org/1999/02/22-rdf-syntax-ns#"
   xmlns:svg="http://www.w3.org/2000/svg"
   xmlns="http://www.w3.org/2000/svg"
   xmlns:sodipodi="http://sodipodi.sourceforge.net/DTD/sodipodi-0.dtd"
   xmlns:inkscape="http://www.inkscape.org/namespaces/inkscape"
   width="512"
   height="512"
   id="svg2"
   version="1.1"
   inkscape:version="0.92.2 5c3e80d, 2017-08-06"
   sodipodi:docname="folder-html.svg">
  <defs
     id="defs4">
    <radialGradient
       id="polygon413_1_"
       cx="7976.3457"
       cy="-10508.842"
       r="13293.867"
       gradientTransform="matrix(0.0222,0,0,-0.0248,721.1671,674.6745)"
       gradientUnits="userSpaceOnUse">
      <stop
         offset="0"
         style="stop-color:#80FF80"
         id="stop388" />
      <stop
         offset="1"
         style="stop-color:#0f0"
         id="stop390" />
    </radialGradient>
  </defs>
  <sodipodi:namedview
     id="base"
     pagecolor="#ffffff"
     bordercolor="#666666"
     borderopacity="1.0"
     inkscape:pageopacity="0.0"
     inkscape:pageshadow="2"
     inkscape:zoom="0.49497474"
     inkscape:cx="370.13204"
     inkscape:cy="303.64236"
     inkscape:document-units="px"
     inkscape:current-layer="layer1"
     showgrid="false"
     inkscape:window-width="1366"
     inkscape:window-height="717"
     inkscape:window-x="0"
     inkscape:window-y="24"
     inkscape:window-maximized="1" />
  <metadata
     id="metadata7">
    <rdf:RDF>
      <cc:Work
         rdf:about="">
        <dc:format>image/svg+xml</dc:format>
        <dc:type
           rdf:resource="http://purl.org/dc/dcmitype/StillImage" />
        <dc:title />
      </cc:Work>
    </rdf:RDF>
  </metadata>
  <g
     inkscape:label="Layer 1"
     inkscape:groupmode="layer"
     id="layer1"
     transform="translate(0,-540.36218)">
    <g
       id="g837">
      <path
         id="path848"
         d="m 432.91325,596.83615 c 102.19291,88.57459 105.82677,249.69971 8.1168,359.89879 C 343.32009,1066.934 181.27965,1084.4628 79.08674,995.8882 -23.106205,907.31361 -26.740032,746.18849 70.96994,635.98941 168.67991,525.79033 330.72036,508.26156 432.91325,596.83615 Z"
         inkscape:connector-curvature="0"
         style="fill:#7f6421;fill-opacity:1;stroke-width:11.10955811" />
      <path
         style="fill:#ffffff;fill-opacity:1;stroke-width:10.33090782"
         inkscape:connector-curvature="0"
         d="m 419.35612,611.39939 c 95.03037,82.36656 98.40957,232.19868 7.54791,334.67411 C 336.04238,1048.5489 185.35908,1064.8491 90.32868,982.48256 -4.7017196,900.11603 -8.0808818,750.28388 82.780775,647.80845 173.64243,545.33306 324.32573,529.03282 419.35612,611.39939 Z"
         id="path849" />
      <path
         inkscape:connector-curvature="0"
         id="path843"
         d="m 279.8415,540.37999 c -75.15243,-0.5037 -152.65749,32.21064 -208.871095,95.60935 -97.709979,110.19908 -94.075759,271.32385 8.117182,359.89844 102.192903,88.57462 264.233393,71.04672 361.943373,-39.15235 32.12689,-36.23327 53.2938,-77.97283 63.60737,-120.8281 C 485.01835,800.01887 436.88916,715.26039 386.63445,651.83701 351.73982,607.79856 310.65691,568.01604 279.8415,540.37999 Z"
         style="fill:#f9c440;fill-opacity:1;stroke:none;stroke-width:0.99999994px;stroke-linecap:butt;stroke-linejoin:miter;stroke-opacity:1" />
      <path
         id="path850"
         d="M 511.63548,765.2657 C 510.0841,826.57734 486.47426,889.42031 440.66911,941.08017 342.95915,1051.2793 180.9187,1068.808 78.725757,980.23347 30.827125,938.71782 4.4968191,881.28502 0.19382686,820.59099 0.79908041,886.94766 27.117405,950.84436 79.07869,995.88125 181.2716,1084.4558 343.31975,1066.9184 441.022,956.72795 490.72695,900.66984 514.02702,831.43699 511.63548,765.2657 Z"
         inkscape:connector-curvature="0"
         style="opacity:1;fill:#000000;fill-opacity:0.49019608;stroke-width:11.10955811" />
      <path
         style="fill:#000000;fill-opacity:0.49019608;stroke-width:0.74321789"
         d="m 197.59052,896.23359 c -0.81754,-0.1566 -2.32256,-0.4597 -3.34448,-0.6735 -2.66152,-0.5569 -71.05356,-68.81997 -72.89776,-72.76033 -1.70069,-3.63374 -1.78957,-6.96625 -0.28309,-10.61472 1.28982,-3.12377 68.25565,-70.76952 72.04863,-72.78015 1.21674,-0.64499 3.97651,-1.1727 6.13282,-1.1727 9.46575,0 16.44481,9.51683 13.58169,18.52034 -0.72436,2.27783 -6.86638,8.84641 -29.62092,31.67801 l -28.70709,28.8043 28.39353,28.42348 c 28.63802,28.66817 30.67585,31.06587 30.67585,36.09247 0,2.754 -1.3563,6.6681 -3.16697,9.1395 -2.5231,3.4437 -8.883,6.0961 -12.81221,5.3433 z m 39.93725,-0.251 c -6.80705,-1.5031 -11.80311,-8.0995 -11.16492,-14.7413 0.25924,-2.6979 7.77121,-19.09109 32.17168,-70.20747 18.13526,-37.99141 32.6532,-67.50744 33.73845,-68.59268 4.86065,-4.86065 11.84197,-5.67443 17.66323,-2.05893 4.47263,2.77789 6.57671,6.69332 6.54717,12.18346 -0.0207,3.83603 -1.9796,8.18309 -31.81802,70.6057 -17.88412,37.41396 -32.67041,67.44132 -33.79442,68.62822 -3.54073,3.7388 -8.42307,5.2694 -13.34317,4.183 z m 112.31701,0.04 c -5.99816,-1.383 -10.30587,-6.0612 -11.13215,-12.0895 -0.93041,-6.7881 -0.89623,-6.8312 30.07537,-37.90766 L 397.49048,817.22575 368.788,788.42606 c -30.9716,-31.0765 -31.00578,-31.11958 -30.07537,-37.90766 0.62532,-4.56224 2.91847,-7.99301 6.90359,-10.32844 3.92653,-2.3011 9.75897,-2.6461 13.26997,-0.78495 3.79297,2.01063 70.7588,69.65638 72.04862,72.78015 1.50648,3.64848 1.41761,6.98098 -0.28309,10.61473 -1.96375,4.19577 -70.25396,72.211 -73.08356,72.7893 -4.36454,0.8919 -5.4666,0.9538 -7.72338,0.4335 z"
         id="path867"
         inkscape:connector-curvature="0" />
      <path
         inkscape:connector-curvature="0"
         id="path865"
         d="m 177.59052,876.23359 c -0.81754,-0.1566 -2.32256,-0.4597 -3.34448,-0.6735 -2.66152,-0.5569 -71.05356,-68.81997 -72.89776,-72.76033 -1.700693,-3.63374 -1.789571,-6.96625 -0.28309,-10.61472 1.28982,-3.12377 68.25565,-70.76952 72.04863,-72.78015 1.21674,-0.64499 3.97651,-1.1727 6.13282,-1.1727 9.46575,0 16.44481,9.51683 13.58169,18.52034 -0.72436,2.27783 -6.86638,8.84641 -29.62092,31.67801 l -28.70709,28.8043 28.39353,28.42348 c 28.63802,28.66817 30.67585,31.06587 30.67585,36.09247 0,2.754 -1.3563,6.6681 -3.16697,9.1395 -2.5231,3.4437 -8.883,6.0961 -12.81221,5.3433 z m 39.93725,-0.251 c -6.80705,-1.5031 -11.80311,-8.0995 -11.16492,-14.7413 0.25924,-2.6979 7.77121,-19.09109 32.17168,-70.20747 18.13526,-37.99141 32.6532,-67.50744 33.73845,-68.59268 4.86065,-4.86065 11.84197,-5.67443 17.66323,-2.05893 4.47263,2.77789 6.57671,6.69332 6.54717,12.18346 -0.0207,3.83603 -1.9796,8.18309 -31.81802,70.6057 -17.88412,37.41396 -32.67041,67.44132 -33.79442,68.62822 -3.54073,3.7388 -8.42307,5.2694 -13.34317,4.183 z m 112.31701,0.04 c -5.99816,-1.383 -10.30587,-6.0612 -11.13215,-12.0895 -0.93041,-6.7881 -0.89623,-6.8312 30.07537,-37.90766 L 377.49048,797.22575 348.788,768.42606 c -30.9716,-31.0765 -31.00578,-31.11958 -30.07537,-37.90766 0.62532,-4.56224 2.91847,-7.99301 6.90359,-10.32844 3.92653,-2.3011 9.75897,-2.6461 13.26997,-0.78495 3.79297,2.01063 70.7588,69.65638 72.04862,72.78015 1.50648,3.64848 1.41761,6.98098 -0.28309,10.61473 -1.96375,4.19577 -70.25396,72.211 -73.08356,72.7893 -4.36454,0.8919 -5.4666,0.9538 -7.72338,0.4335 z"
         style="fill:#ffffff;stroke-width:0.74321789" />
    </g>
  </g>
</svg>
