<?xml version="1.0" encoding="UTF-8" standalone="no"?>
<!-- Created with Inkscape (http://www.inkscape.org/) -->

<svg
   xmlns:dc="http://purl.org/dc/elements/1.1/"
   xmlns:cc="http://creativecommons.org/ns#"
   xmlns:rdf="http://www.w3.org/1999/02/22-rdf-syntax-ns#"
   xmlns:svg="http://www.w3.org/2000/svg"
   xmlns="http://www.w3.org/2000/svg"
   xmlns:sodipodi="http://sodipodi.sourceforge.net/DTD/sodipodi-0.dtd"
   xmlns:inkscape="http://www.inkscape.org/namespaces/inkscape"
   width="512"
   height="512"
   id="svg2"
   version="1.1"
   inkscape:version="0.92.2 5c3e80d, 2017-08-06"
   sodipodi:docname="folder-download.svg">
  <defs
     id="defs4" />
  <sodipodi:namedview
     id="base"
     pagecolor="#ffffff"
     bordercolor="#666666"
     borderopacity="1.0"
     inkscape:pageopacity="0.0"
     inkscape:pageshadow="2"
     inkscape:zoom="0.49497475"
     inkscape:cx="447.76353"
     inkscape:cy="38.965915"
     inkscape:document-units="px"
     inkscape:current-layer="layer1"
     showgrid="false"
     inkscape:window-width="1366"
     inkscape:window-height="717"
     inkscape:window-x="0"
     inkscape:window-y="24"
     inkscape:window-maximized="1" />
  <metadata
     id="metadata7">
    <rdf:RDF>
      <cc:Work
         rdf:about="">
        <dc:format>image/svg+xml</dc:format>
        <dc:type
           rdf:resource="http://purl.org/dc/dcmitype/StillImage" />
        <dc:title />
      </cc:Work>
    </rdf:RDF>
  </metadata>
  <g
     inkscape:label="Layer 1"
     inkscape:groupmode="layer"
     id="layer1"
     transform="translate(0,-540.36218)">
    <g
       id="g834">
      <path
         id="path848"
         d="m 432.91325,596.83615 c 102.19291,88.57459 105.82677,249.69971 8.1168,359.89879 C 343.32009,1066.934 181.27965,1084.4628 79.08674,995.8882 -23.106205,907.31361 -26.740032,746.18849 70.96994,635.98941 168.67991,525.79033 330.72036,508.26156 432.91325,596.83615 Z"
         inkscape:connector-curvature="0"
         style="fill:#7f6421;fill-opacity:1;stroke-width:11.10955811" />
      <path
         style="fill:#ffffff;fill-opacity:1;stroke-width:10.33090782"
         inkscape:connector-curvature="0"
         d="m 419.35612,611.39939 c 95.03037,82.36656 98.40957,232.19868 7.54791,334.67411 C 336.04238,1048.5489 185.35908,1064.8491 90.32868,982.48256 -4.7017196,900.11603 -8.0808818,750.28388 82.780775,647.80845 173.64243,545.33306 324.32573,529.03282 419.35612,611.39939 Z"
         id="path849" />
      <path
         inkscape:connector-curvature="0"
         id="path843"
         d="m 279.8415,540.37999 c -75.15243,-0.5037 -152.65749,32.21064 -208.871095,95.60935 -97.709979,110.19908 -94.075759,271.32385 8.117182,359.89844 102.192903,88.57462 264.233393,71.04672 361.943373,-39.15235 32.12689,-36.23327 53.2938,-77.97283 63.60737,-120.8281 C 485.01835,800.01887 436.88916,715.26039 386.63445,651.83701 351.73982,607.79856 310.65691,568.01604 279.8415,540.37999 Z"
         style="fill:#f9c440;fill-opacity:1;stroke:none;stroke-width:0.99999994px;stroke-linecap:butt;stroke-linejoin:miter;stroke-opacity:1" />
      <path
         id="path850"
         d="M 511.63548,765.2657 C 510.0841,826.57734 486.47426,889.42031 440.66911,941.08017 342.95915,1051.2793 180.9187,1068.808 78.725757,980.23347 30.827125,938.71782 4.4968191,881.28502 0.19382686,820.59099 0.79908041,886.94766 27.117405,950.84436 79.07869,995.88125 181.2716,1084.4558 343.31975,1066.9184 441.022,956.72795 490.72695,900.66984 514.02702,831.43699 511.63548,765.2657 Z"
         inkscape:connector-curvature="0"
         style="opacity:1;fill:#000000;fill-opacity:0.49019608;stroke-width:11.10955811" />
      <path
         style="fill:#000000;fill-opacity:0.49019608;stroke-width:0.19796954"
         d="M 152.74447,972.17596 C 137.17368,970.78517 124.1184,959.21426 120.82269,943.88366 120.04192,940.25173 120,938.68783 120,913.17742 V 888.4522 h 11.97203 11.97207 l 0.0548,25.09263 0.0544,25.09262 0.46194,1.28682 c 0.73644,2.05153 1.57746,3.35845 3.18493,4.94925 1.5747,1.55838 3.01156,2.40348 5.27285,3.10133 1.1359,0.35036 5.40167,0.36321 122.92797,0.36321 115.64712,0 121.81508,-0.0189 123.01394,-0.34885 4.11523,-1.13699 7.43827,-4.42231 8.67663,-8.57816 0.32315,-1.08465 0.35263,-2.97657 0.40739,-26.06423 l 0.059,-24.89465 h 11.97132 11.97131 l -0.002,24.30073 c -0.002,14.77807 -0.0805,25.18912 -0.2022,26.56774 -0.4263,4.81625 -1.55653,8.77655 -3.76003,13.17464 -1.87975,3.75194 -3.53325,6.01587 -6.72465,9.20727 -3.19139,3.19139 -5.45533,4.8449 -9.20723,6.72465 -4.44423,2.22659 -8.45919,3.36283 -13.29989,3.76392 -2.86984,0.23773 -243.39428,0.22299 -246.06021,-0.0151 z m 120.17405,-64.27771 c -2.94894,-0.9981 -6.35755,-3.39265 -11.46928,-8.05727 -4.1624,-3.79827 -93.32153,-93.06006 -95.11941,-95.2289 -4.58476,-5.5307 -5.4737,-8.56422 -3.00941,-10.26947 0.95829,-0.66312 2.10447,-1.05324 4.28333,-1.45792 1.59697,-0.29669 4.29925,-0.3394 25.10056,-0.39771 l 23.31092,-0.0654 v -49.17762 c 0,-53.4122 -0.0431,-51.18901 1.07977,-55.61582 3.74208,-14.75172 16.20507,-25.49405 31.35871,-27.02922 2.79534,-0.28308 52.2875,-0.28384 55.09255,-7.5e-4 17.13029,1.72894 30.48484,15.16562 32.23124,32.42955 0.13833,1.36838 0.2075,18.23879 0.2075,50.72969 v 48.67952 h 22.1805 c 13.96981,0 22.89218,0.076 24.10295,0.20561 3.8637,0.41322 6.253,1.28081 7.20488,2.61623 0.75356,1.05717 0.64777,2.65621 -0.30312,4.57988 -1.35602,2.74371 -3.4523,5.23283 -10.02187,11.90003 -15.78112,16.01571 -84.00034,84.42712 -86.91406,87.15889 -5.99221,5.61816 -9.68647,8.23038 -13.05358,9.23029 -1.73964,0.51662 -4.33901,0.4213 -6.26222,-0.22942 z"
         id="path837"
         inkscape:connector-curvature="0" />
      <path
         inkscape:connector-curvature="0"
         id="path899"
         d="M 132.74447,952.17596 C 117.17368,950.78517 104.1184,939.21426 100.82269,923.88366 100.04192,920.25173 100,918.68783 100,893.17742 V 868.4522 h 11.97203 11.97207 l 0.0548,25.09263 0.0544,25.09262 0.46194,1.28682 c 0.73644,2.05153 1.57746,3.35845 3.18493,4.94925 1.5747,1.55838 3.01156,2.40348 5.27285,3.10133 1.1359,0.35036 5.40167,0.36321 122.92797,0.36321 115.64712,0 121.81508,-0.0189 123.01394,-0.34885 4.11523,-1.13699 7.43827,-4.42231 8.67663,-8.57816 0.32315,-1.08465 0.35263,-2.97657 0.40739,-26.06423 l 0.059,-24.89465 h 11.97132 11.97131 l -0.002,24.30073 c -0.002,14.77807 -0.0805,25.18912 -0.2022,26.56774 -0.4263,4.81625 -1.55653,8.77655 -3.76003,13.17464 -1.87975,3.75194 -3.53325,6.01587 -6.72465,9.20727 -3.19139,3.19139 -5.45533,4.8449 -9.20723,6.72465 -4.44423,2.22659 -8.45919,3.36283 -13.29989,3.76392 -2.86984,0.23773 -243.39428,0.22299 -246.06021,-0.0151 z m 120.17405,-64.27771 c -2.94894,-0.9981 -6.35755,-3.39265 -11.46928,-8.05727 -4.1624,-3.79827 -93.32153,-93.06006 -95.11941,-95.2289 -4.58476,-5.5307 -5.4737,-8.56422 -3.00941,-10.26947 0.95829,-0.66312 2.10447,-1.05324 4.28333,-1.45792 1.59697,-0.29669 4.29925,-0.3394 25.10056,-0.39771 l 23.31092,-0.0654 v -49.17762 c 0,-53.4122 -0.0431,-51.18901 1.07977,-55.61582 3.74208,-14.75172 16.20507,-25.49405 31.35871,-27.02922 2.79534,-0.28308 52.2875,-0.28384 55.09255,-7.5e-4 17.13029,1.72894 30.48484,15.16562 32.23124,32.42955 0.13833,1.36838 0.2075,18.23879 0.2075,50.72969 v 48.67952 h 22.1805 c 13.96981,0 22.89218,0.076 24.10295,0.20561 3.8637,0.41322 6.253,1.28081 7.20488,2.61623 0.75356,1.05717 0.64777,2.65621 -0.30312,4.57988 -1.35602,2.74371 -3.4523,5.23283 -10.02187,11.90003 -15.78112,16.01571 -84.00034,84.42712 -86.91406,87.15889 -5.99221,5.61816 -9.68647,8.23038 -13.05358,9.23029 -1.73964,0.51662 -4.33901,0.4213 -6.26222,-0.22942 z"
         style="fill:#ffffff;stroke-width:0.19796954" />
    </g>
  </g>
</svg>
