<?xml version="1.0" encoding="UTF-8" standalone="no"?>
<!-- Created with Inkscape (http://www.inkscape.org/) -->

<svg
   xmlns:dc="http://purl.org/dc/elements/1.1/"
   xmlns:cc="http://creativecommons.org/ns#"
   xmlns:rdf="http://www.w3.org/1999/02/22-rdf-syntax-ns#"
   xmlns:svg="http://www.w3.org/2000/svg"
   xmlns="http://www.w3.org/2000/svg"
   xmlns:sodipodi="http://sodipodi.sourceforge.net/DTD/sodipodi-0.dtd"
   xmlns:inkscape="http://www.inkscape.org/namespaces/inkscape"
   width="512"
   height="512"
   id="svg2"
   version="1.1"
   inkscape:version="0.92.2 5c3e80d, 2017-08-06"
   sodipodi:docname="folder-picture.svg">
  <defs
     id="defs4" />
  <sodipodi:namedview
     id="base"
     pagecolor="#ffffff"
     bordercolor="#666666"
     borderopacity="1.0"
     inkscape:pageopacity="0.0"
     inkscape:pageshadow="2"
     inkscape:zoom="0.49497475"
     inkscape:cx="223.72005"
     inkscape:cy="183.0829"
     inkscape:document-units="px"
     inkscape:current-layer="layer1"
     showgrid="false"
     inkscape:window-width="1366"
     inkscape:window-height="717"
     inkscape:window-x="0"
     inkscape:window-y="24"
     inkscape:window-maximized="1" />
  <metadata
     id="metadata7">
    <rdf:RDF>
      <cc:Work
         rdf:about="">
        <dc:format>image/svg+xml</dc:format>
        <dc:type
           rdf:resource="http://purl.org/dc/dcmitype/StillImage" />
        <dc:title />
      </cc:Work>
    </rdf:RDF>
  </metadata>
  <g
     inkscape:label="Layer 1"
     inkscape:groupmode="layer"
     id="layer1"
     transform="translate(0,-540.36218)">
    <g
       transform="translate(1.7735078e-7,1.9364447e-6)"
       id="g837">
      <path
         id="path848"
         d="m 432.91325,596.83615 c 102.19291,88.57459 105.82677,249.69971 8.1168,359.89879 C 343.32009,1066.934 181.27965,1084.4628 79.08674,995.8882 -23.106205,907.31361 -26.740032,746.18849 70.96994,635.98941 168.67991,525.79033 330.72036,508.26156 432.91325,596.83615 Z"
         inkscape:connector-curvature="0"
         style="fill:#7f6421;fill-opacity:1;stroke-width:11.10955811" />
      <path
         style="fill:#ffffff;fill-opacity:1;stroke-width:10.33090782"
         inkscape:connector-curvature="0"
         d="m 419.35612,611.39939 c 95.03037,82.36656 98.40957,232.19868 7.54791,334.67411 C 336.04238,1048.5489 185.35908,1064.8491 90.32868,982.48256 -4.7017196,900.11603 -8.0808818,750.28388 82.780775,647.80845 173.64243,545.33306 324.32573,529.03282 419.35612,611.39939 Z"
         id="path849" />
      <path
         inkscape:connector-curvature="0"
         id="path843"
         d="m 279.8415,540.37999 c -75.15243,-0.5037 -152.65749,32.21064 -208.871095,95.60935 -97.709979,110.19908 -94.075759,271.32385 8.117182,359.89844 102.192903,88.57462 264.233393,71.04672 361.943373,-39.15235 32.12689,-36.23327 53.2938,-77.97283 63.60737,-120.8281 C 485.01835,800.01887 436.88916,715.26039 386.63445,651.83701 351.73982,607.79856 310.65691,568.01604 279.8415,540.37999 Z"
         style="fill:#f9c440;fill-opacity:1;stroke:none;stroke-width:0.99999994px;stroke-linecap:butt;stroke-linejoin:miter;stroke-opacity:1" />
      <path
         id="path850"
         d="M 511.63548,765.2657 C 510.0841,826.57734 486.47426,889.42031 440.66911,941.08017 342.95915,1051.2793 180.9187,1068.808 78.725757,980.23347 30.827125,938.71782 4.4968191,881.28502 0.19382686,820.59099 0.79908041,886.94766 27.117405,950.84436 79.07869,995.88125 181.2716,1084.4558 343.31975,1066.9184 441.022,956.72795 490.72695,900.66984 514.02702,831.43699 511.63548,765.2657 Z"
         inkscape:connector-curvature="0"
         style="opacity:1;fill:#000000;fill-opacity:0.49019608;stroke-width:11.10955811" />
      <path
         style="fill:#000000;fill-opacity:0.49019608;stroke-width:0.70588231"
         d="M 359.2941,703.43341 H 245.77388 132.25367 l -3.82858,1.94118 c -2.50721,1.27137 -4.56055,2.99725 -5.95037,5.00184 l -2.12178,3.06066 -0.18474,85.70403 L 120,877.17007 v 36.71 15.9168 c 0,15.797 0.0145,15.9423 1.83226,19.2822 2.0954,3.85 4.91416,6.1787 9.05239,7.4793 2.30895,0.7259 31.28769,0.8798 146.17416,0.7735 l 143.2941,-0.1338 2.88971,-1.5468 c 3.73639,-1.9994 7.07394,-5.8324 8.00873,-9.1986 0.50255,-1.8096 0.74166,-39.3232 0.74449,-116.76145 l 0.004,-114.0965 -1.97151,-3.77482 c -1.43499,-2.74689 -2.90968,-4.35627 -5.41268,-5.90487 l -3.44118,-2.12868 -16.43382,-0.21231 -16.43382,-0.21232 z M 148.94117,732.37458 H 275.99999 403.0588 v 98.11764 98.11765 H 275.99999 148.94117 v -98.11765 z m 62.51746,17.75184 c -0.73612,-0.0119 -1.48034,0.006 -2.2307,0.0538 -9.26957,0.59488 -16.83597,5.87207 -21.02619,14.66498 -1.91663,4.02193 -2.18466,5.32878 -2.17831,10.58823 0.006,4.97684 0.3227,6.67727 1.85294,9.96784 3.32905,7.15866 9.43088,12.44073 16.77987,14.52435 4.62543,1.31143 11.98826,0.66895 16.61443,-1.44898 11.67311,-5.34412 17.72258,-18.66551 13.91911,-30.64936 -3.38837,-10.67605 -12.6894,-17.5217 -23.73115,-17.70083 z m 107.55606,38.25551 c -0.8098,0.0129 -1.60353,0.20806 -2.33824,0.59421 -0.97168,0.5107 -13.23813,16.01608 -27.25919,34.45726 -14.02106,18.44117 -26.11284,34.15836 -26.8704,34.92601 -2.04722,2.07448 -6.54099,1.89208 -8.69531,-0.35294 -0.92291,-0.96177 -6.36153,-7.94366 -12.08548,-15.51425 -5.72395,-7.57059 -11.03849,-14.32059 -11.81112,-15 -2.14983,-1.89048 -5.79998,-1.57819 -8.25,0.70588 -1.14521,1.06765 -14.06088,19.25294 -28.70128,40.41177 -14.64041,21.1588 -27.22916,39.3441 -27.9761,40.4118 l -1.35938,1.9411 h 112.28354 112.28354 v -17.6856 -17.68568 l -31.16085,-41.43198 c -17.13876,-22.78751 -31.95404,-42.28992 -32.92279,-43.3387 -1.49388,-1.61732 -3.35541,-2.46729 -5.13694,-2.43888 z"
         id="path844"
         inkscape:connector-curvature="0"
         sodipodi:nodetypes="cccccccccsccccccsccccccccccccccccccscsscscccsscsccsccccccccc" />
      <path
         sodipodi:nodetypes="cccccccccsccccccsccccccccccccccccccscsscscccsscsccsccccccccc"
         inkscape:connector-curvature="0"
         id="path838"
         d="M 339.2941,683.43341 H 225.77388 112.25367 l -3.82858,1.94118 c -2.50721,1.27137 -4.56055,2.99725 -5.95037,5.00184 l -2.12178,3.06066 -0.18474,85.70403 L 100,857.17007 v 36.71 15.9168 c 0,15.797 0.0145,15.9423 1.83226,19.2822 2.0954,3.85 4.91416,6.1787 9.05239,7.4793 2.30895,0.7259 31.28769,0.8798 146.17416,0.7735 l 143.2941,-0.1338 2.88971,-1.5468 c 3.73639,-1.9994 7.07394,-5.8324 8.00873,-9.1986 0.50255,-1.8096 0.74166,-39.3232 0.74449,-116.76145 l 0.004,-114.0965 -1.97151,-3.77482 c -1.43499,-2.74689 -2.90968,-4.35627 -5.41268,-5.90487 l -3.44118,-2.12868 -16.43382,-0.21231 -16.43382,-0.21232 z M 128.94117,712.37458 H 255.99999 383.0588 v 98.11764 98.11765 H 255.99999 128.94117 v -98.11765 z m 62.51746,17.75184 c -0.73612,-0.0119 -1.48034,0.006 -2.2307,0.0538 -9.26957,0.59488 -16.83597,5.87207 -21.02619,14.66498 -1.91663,4.02193 -2.18466,5.32878 -2.17831,10.58823 0.006,4.97684 0.3227,6.67727 1.85294,9.96784 3.32905,7.15866 9.43088,12.44073 16.77987,14.52435 4.62543,1.31143 11.98826,0.66895 16.61443,-1.44898 11.67311,-5.34412 17.72258,-18.66551 13.91911,-30.64936 -3.38837,-10.67605 -12.6894,-17.5217 -23.73115,-17.70083 z m 107.55606,38.25551 c -0.8098,0.0129 -1.60353,0.20806 -2.33824,0.59421 -0.97168,0.5107 -13.23813,16.01608 -27.25919,34.45726 -14.02106,18.44117 -26.11284,34.15836 -26.8704,34.92601 -2.04722,2.07448 -6.54099,1.89208 -8.69531,-0.35294 -0.92291,-0.96177 -6.36153,-7.94366 -12.08548,-15.51425 -5.72395,-7.57059 -11.03849,-14.32059 -11.81112,-15 -2.14983,-1.89048 -5.79998,-1.57819 -8.25,0.70588 -1.14521,1.06765 -14.06088,19.25294 -28.70128,40.41177 -14.64041,21.1588 -27.22916,39.3441 -27.9761,40.4118 l -1.35938,1.9411 h 112.28354 112.28354 v -17.6856 -17.68568 l -31.16085,-41.43198 c -17.13876,-22.78751 -31.95404,-42.28992 -32.92279,-43.3387 -1.49388,-1.61732 -3.35541,-2.46729 -5.13694,-2.43888 z"
         style="fill:#ffffff;stroke-width:0.70588231" />
    </g>
  </g>
</svg>
