<?xml version="1.0" encoding="UTF-8" standalone="no"?>
<!-- Created with Inkscape (http://www.inkscape.org/) -->

<svg
   xmlns:dc="http://purl.org/dc/elements/1.1/"
   xmlns:cc="http://creativecommons.org/ns#"
   xmlns:rdf="http://www.w3.org/1999/02/22-rdf-syntax-ns#"
   xmlns:svg="http://www.w3.org/2000/svg"
   xmlns="http://www.w3.org/2000/svg"
   xmlns:sodipodi="http://sodipodi.sourceforge.net/DTD/sodipodi-0.dtd"
   xmlns:inkscape="http://www.inkscape.org/namespaces/inkscape"
   width="512"
   height="512"
   id="svg2"
   version="1.1"
   inkscape:version="0.92.2 5c3e80d, 2017-08-06"
   sodipodi:docname="folder-sound.svg">
  <defs
     id="defs4" />
  <sodipodi:namedview
     id="base"
     pagecolor="#ffffff"
     bordercolor="#666666"
     borderopacity="1.0"
     inkscape:pageopacity="0.0"
     inkscape:pageshadow="2"
     inkscape:zoom="0.35"
     inkscape:cx="559.0821"
     inkscape:cy="-0.7457646"
     inkscape:document-units="px"
     inkscape:current-layer="layer1"
     showgrid="false"
     inkscape:window-width="1366"
     inkscape:window-height="717"
     inkscape:window-x="0"
     inkscape:window-y="24"
     inkscape:window-maximized="1" />
  <metadata
     id="metadata7">
    <rdf:RDF>
      <cc:Work
         rdf:about="">
        <dc:format>image/svg+xml</dc:format>
        <dc:type
           rdf:resource="http://purl.org/dc/dcmitype/StillImage" />
        <dc:title />
      </cc:Work>
    </rdf:RDF>
  </metadata>
  <g
     inkscape:label="Layer 1"
     inkscape:groupmode="layer"
     id="layer1"
     transform="translate(0,-540.36218)">
    <g
       id="g834">
      <path
         id="path848"
         d="m 432.91325,596.83615 c 102.19291,88.57459 105.82677,249.69971 8.1168,359.89879 C 343.32009,1066.934 181.27965,1084.4628 79.08674,995.8882 -23.106205,907.31361 -26.740032,746.18849 70.96994,635.98941 168.67991,525.79033 330.72036,508.26156 432.91325,596.83615 Z"
         inkscape:connector-curvature="0"
         style="fill:#7f6421;fill-opacity:1;stroke-width:11.10955811" />
      <path
         style="fill:#ffffff;fill-opacity:1;stroke-width:10.33090782"
         inkscape:connector-curvature="0"
         d="m 419.35612,611.39939 c 95.03037,82.36656 98.40957,232.19868 7.54791,334.67411 C 336.04238,1048.5489 185.35908,1064.8491 90.32868,982.48256 -4.7017196,900.11603 -8.0808818,750.28388 82.780775,647.80845 173.64243,545.33306 324.32573,529.03282 419.35612,611.39939 Z"
         id="path849" />
      <path
         inkscape:connector-curvature="0"
         id="path843"
         d="m 279.8415,540.37999 c -75.15243,-0.5037 -152.65749,32.21064 -208.871095,95.60935 -97.709979,110.19908 -94.075759,271.32385 8.117182,359.89844 102.192903,88.57462 264.233393,71.04672 361.943373,-39.15235 32.12689,-36.23327 53.2938,-77.97283 63.60737,-120.8281 C 485.01835,800.01887 436.88916,715.26039 386.63445,651.83701 351.73982,607.79856 310.65691,568.01604 279.8415,540.37999 Z"
         style="fill:#f9c440;fill-opacity:1;stroke:none;stroke-width:0.99999994px;stroke-linecap:butt;stroke-linejoin:miter;stroke-opacity:1" />
      <path
         id="path850"
         d="M 511.63548,765.2657 C 510.0841,826.57734 486.47426,889.42031 440.66911,941.08017 342.95915,1051.2793 180.9187,1068.808 78.725757,980.23347 30.827125,938.71782 4.4968191,881.28502 0.19382686,820.59099 0.79908041,886.94766 27.117405,950.84436 79.07869,995.88125 181.2716,1084.4558 343.31975,1066.9184 441.022,956.72795 490.72695,900.66984 514.02702,831.43699 511.63548,765.2657 Z"
         inkscape:connector-curvature="0"
         style="opacity:1;stroke-width:11.10955811;fill:#000000;fill-opacity:0.49019608" />
      <path
         inkscape:connector-curvature="0"
         id="path910"
         d="m 141.83182,874.82455 c -15.18145,-19.3389 -21.30845,-33.74026 -21.8078,-51.25882 -0.90081,-31.60573 23.58546,-65.52208 64.49091,-89.32743 7.3183,-4.25897 10.35228,-5.64186 8.77769,-4.00101 -1.47405,1.53626 -9.00601,15.84858 -12.40214,23.56713 -22.31679,50.72016 -19.18968,104.32441 8.95177,153.4498 l 4.25998,7.43641 -5.40317,-2.85558 c -6.8216,-3.60522 -14.87902,-8.74088 -22.02728,-14.03966 -5.49229,-4.07131 -21.95316,-19.29355 -24.83996,-22.97084 z m 79.49431,52.65982 c -29.93053,-37.17218 -44.04438,-80.17882 -39.67336,-120.88959 2.40064,-22.35923 11.51146,-48.16445 24.47059,-69.30988 13.3954,-21.85735 32.72054,-42.41613 50.68683,-53.92256 22.30942,-14.28786 34.88693,-12.30138 48.11172,7.59893 27.6655,41.63036 36.29912,143.89258 18.28827,216.61943 -4.24827,17.15448 -8.93881,29.63724 -15.42682,41.05512 -4.57266,8.04714 -12.51383,16.38198 -18.11475,19.01276 -8.98507,4.22041 -21.1621,0.6757 -37.70075,-10.97439 -6.40327,-4.51053 -25.14871,-22.36777 -30.64173,-29.18982 z m 55.69338,9.38309 c 6.07654,2.26303 11.35185,0.25852 17.24667,-6.55313 14.03078,-16.21308 23.25887,-57.37036 23.54804,-105.02442 0.25777,-42.4427 -5.98008,-79.20835 -17.25539,-101.70554 -7.25326,-14.47211 -15.63012,-20.34924 -24.22987,-16.99937 -4.71111,1.83515 -10.89657,8.89935 -14.88851,17.00368 -17.06078,34.63642 -21.9993,105.54717 -11.12798,159.78301 2.75894,13.76409 8.45741,31.15994 12.7548,38.93696 3.71528,6.7234 9.71022,12.97905 13.95224,14.55881 z m -20.36243,-81.24767 c -2.20788,-15.1996 -2.85891,-36.42924 -1.62527,-52.99884 0.80659,-10.833 2.1083,-20.41969 2.87762,-21.19253 0.98971,-0.99428 7.7071,-1.17861 11.60659,-0.31862 5.17262,1.14082 9.8691,3.84212 14.23389,8.18691 4.69255,4.67112 7.45217,9.30679 10.09961,16.96593 1.74403,5.0454 2.10913,7.70256 2.10747,15.33584 -0.003,15.00987 -3.84518,24.64313 -13.37919,33.54804 -4.4581,4.16375 -5.55847,4.87487 -9.79272,6.32745 -4.64458,1.5933 -13.31387,1.92851 -14.68101,0.56765 -0.3307,-0.32919 -0.98165,-3.21898 -1.44699,-6.42194 z m 90.20576,32.25041 c -1.11209,-2.94426 -0.3617,-6.81778 1.72672,-8.91599 1.88999,-1.89868 5.71476,-2.98612 8.31246,-2.3633 2.45507,0.58859 3.37217,1.41238 19.98425,17.94845 16.61209,16.53604 17.44011,17.4494 18.03992,19.90175 0.65011,2.65772 -0.4438,6.43321 -2.44713,8.44573 -1.6664,1.6741 -6.22526,2.3859 -9.14332,1.42772 -2.25808,-0.74147 -4.26471,-2.56279 -18.9594,-17.20778 -14.9483,-14.89946 -16.5318,-16.63638 -17.5135,-19.23658 z m 24.32145,-62.31803 c -2.22168,-3.26785 -0.37848,-9.64951 3.46655,-12.00215 2.27047,-1.3892 50.63191,-1.51506 52.90786,-0.13795 4.17411,2.52604 5.7408,8.53912 3.24579,12.45724 -2.56891,4.03412 -3.803,4.22189 -28.70605,4.368 -13.08181,0.0767 -24.81925,-0.22601 -26.08312,-0.67283 -2.27614,-0.80455 -3.13508,-1.51805 -4.83103,-4.01265 z m -24.82991,-64.86296 c -0.45207,-1.187 -0.6943,-3.2744 -0.53828,-4.63881 l 0.28347,-2.48058 17.79821,-17.5192 c 19.70797,-19.39892 19.31837,-19.11689 24.63586,-17.8421 4.99117,1.19645 7.64871,6.18135 5.89569,11.05879 -1.01049,2.81151 -1.86667,3.73036 -18.25905,19.59488 -15.26574,14.77422 -17.44036,16.69595 -19.34797,17.09783 -4.44691,0.93698 -8.97154,-1.34132 -10.46816,-5.27089 z"
         style="fill:#000000;fill-opacity:0.49019608;stroke-width:0.68262184" />
      <path
         style="fill:#ffffff;stroke-width:0.68262184"
         d="m 121.83182,854.82455 c -15.18145,-19.3389 -21.30845,-33.74026 -21.8078,-51.25882 -0.90081,-31.60573 23.58546,-65.52208 64.49091,-89.32743 7.3183,-4.25897 10.35228,-5.64186 8.77769,-4.00101 -1.47405,1.53626 -9.00601,15.84858 -12.40214,23.56713 -22.31679,50.72016 -19.18968,104.32441 8.95177,153.4498 l 4.25998,7.43641 -5.40317,-2.85558 c -6.8216,-3.60522 -14.87902,-8.74088 -22.02728,-14.03966 -5.49229,-4.07131 -21.95316,-19.29355 -24.83996,-22.97084 z m 79.49431,52.65982 c -29.93053,-37.17218 -44.04438,-80.17882 -39.67336,-120.88959 2.40064,-22.35923 11.51146,-48.16445 24.47059,-69.30988 13.3954,-21.85735 32.72054,-42.41613 50.68683,-53.92256 22.30942,-14.28786 34.88693,-12.30138 48.11172,7.59893 27.6655,41.63036 36.29912,143.89258 18.28827,216.61943 -4.24827,17.15448 -8.93881,29.63724 -15.42682,41.05512 -4.57266,8.04714 -12.51383,16.38198 -18.11475,19.01276 -8.98507,4.22041 -21.1621,0.6757 -37.70075,-10.97439 -6.40327,-4.51053 -25.14871,-22.36777 -30.64173,-29.18982 z m 55.69338,9.38309 c 6.07654,2.26303 11.35185,0.25852 17.24667,-6.55313 14.03078,-16.21308 23.25887,-57.37036 23.54804,-105.02442 0.25777,-42.4427 -5.98008,-79.20835 -17.25539,-101.70554 -7.25326,-14.47211 -15.63012,-20.34924 -24.22987,-16.99937 -4.71111,1.83515 -10.89657,8.89935 -14.88851,17.00368 -17.06078,34.63642 -21.9993,105.54717 -11.12798,159.78301 2.75894,13.76409 8.45741,31.15994 12.7548,38.93696 3.71528,6.7234 9.71022,12.97905 13.95224,14.55881 z m -20.36243,-81.24767 c -2.20788,-15.1996 -2.85891,-36.42924 -1.62527,-52.99884 0.80659,-10.833 2.1083,-20.41969 2.87762,-21.19253 0.98971,-0.99428 7.7071,-1.17861 11.60659,-0.31862 5.17262,1.14082 9.8691,3.84212 14.23389,8.18691 4.69255,4.67112 7.45217,9.30679 10.09961,16.96593 1.74403,5.0454 2.10913,7.70256 2.10747,15.33584 -0.003,15.00987 -3.84518,24.64313 -13.37919,33.54804 -4.4581,4.16375 -5.55847,4.87487 -9.79272,6.32745 -4.64458,1.5933 -13.31387,1.92851 -14.68101,0.56765 -0.3307,-0.32919 -0.98165,-3.21898 -1.44699,-6.42194 z m 90.20576,32.25041 c -1.11209,-2.94426 -0.3617,-6.81778 1.72672,-8.91599 1.88999,-1.89868 5.71476,-2.98612 8.31246,-2.3633 2.45507,0.58859 3.37217,1.41238 19.98425,17.94845 16.61209,16.53604 17.44011,17.4494 18.03992,19.90175 0.65011,2.65772 -0.4438,6.43321 -2.44713,8.44573 -1.6664,1.6741 -6.22526,2.3859 -9.14332,1.42772 -2.25808,-0.74147 -4.26471,-2.56279 -18.9594,-17.20778 -14.9483,-14.89946 -16.5318,-16.63638 -17.5135,-19.23658 z m 24.32145,-62.31803 c -2.22168,-3.26785 -0.37848,-9.64951 3.46655,-12.00215 2.27047,-1.3892 50.63191,-1.51506 52.90786,-0.13795 4.17411,2.52604 5.7408,8.53912 3.24579,12.45724 -2.56891,4.03412 -3.803,4.22189 -28.70605,4.368 -13.08181,0.0767 -24.81925,-0.22601 -26.08312,-0.67283 -2.27614,-0.80455 -3.13508,-1.51805 -4.83103,-4.01265 z m -24.82991,-64.86296 c -0.45207,-1.187 -0.6943,-3.2744 -0.53828,-4.63881 l 0.28347,-2.48058 17.79821,-17.5192 c 19.70797,-19.39892 19.31837,-19.11689 24.63586,-17.8421 4.99117,1.19645 7.64871,6.18135 5.89569,11.05879 -1.01049,2.81151 -1.86667,3.73036 -18.25905,19.59488 -15.26574,14.77422 -17.44036,16.69595 -19.34797,17.09783 -4.44691,0.93698 -8.97154,-1.34132 -10.46816,-5.27089 z"
         id="path908"
         inkscape:connector-curvature="0" />
    </g>
  </g>
</svg>
