<?xml version="1.0" encoding="UTF-8" standalone="no"?>
<!-- Created with Inkscape (http://www.inkscape.org/) -->

<svg
   xmlns:dc="http://purl.org/dc/elements/1.1/"
   xmlns:cc="http://creativecommons.org/ns#"
   xmlns:rdf="http://www.w3.org/1999/02/22-rdf-syntax-ns#"
   xmlns:svg="http://www.w3.org/2000/svg"
   xmlns="http://www.w3.org/2000/svg"
   xmlns:sodipodi="http://sodipodi.sourceforge.net/DTD/sodipodi-0.dtd"
   xmlns:inkscape="http://www.inkscape.org/namespaces/inkscape"
   width="512"
   height="512"
   id="svg2"
   version="1.1"
   inkscape:version="0.92.2 5c3e80d, 2017-08-06"
   sodipodi:docname="folder-pink.svg">
  <defs
     id="defs4" />
  <sodipodi:namedview
     id="base"
     pagecolor="#ffffff"
     bordercolor="#666666"
     borderopacity="1.0"
     inkscape:pageopacity="0.0"
     inkscape:pageshadow="2"
     inkscape:zoom="0.49497475"
     inkscape:cx="616.5156"
     inkscape:cy="298.86957"
     inkscape:document-units="px"
     inkscape:current-layer="layer1"
     showgrid="false"
     inkscape:window-width="1366"
     inkscape:window-height="717"
     inkscape:window-x="0"
     inkscape:window-y="24"
     inkscape:window-maximized="1" />
  <metadata
     id="metadata7">
    <rdf:RDF>
      <cc:Work
         rdf:about="">
        <dc:format>image/svg+xml</dc:format>
        <dc:type
           rdf:resource="http://purl.org/dc/dcmitype/StillImage" />
        <dc:title />
      </cc:Work>
    </rdf:RDF>
  </metadata>
  <g
     inkscape:label="Layer 1"
     inkscape:groupmode="layer"
     id="layer1"
     transform="translate(0,-540.36218)">
    <g
       id="g825">
      <path
         id="path1049"
         d="m 432.9133,596.83615 c 102.19291,88.57459 105.82677,249.69971 8.1168,359.89879 C 343.32013,1066.934 181.27968,1084.4628 79.086775,995.8882 -23.106171,907.31361 -26.739998,746.18849 70.969975,635.98941 168.67995,525.79033 330.72039,508.26156 432.9133,596.83615 Z"
         inkscape:connector-curvature="0"
         style="fill:#3e1c5a;fill-opacity:1;stroke-width:11.10955811" />
      <path
         style="fill:#ffffff;fill-opacity:1;stroke-width:10.33090782"
         inkscape:connector-curvature="0"
         d="m 419.35617,611.39939 c 95.03036,82.36656 98.40956,232.19868 7.54791,334.6741 C 336.04242,1048.5489 185.35912,1064.8491 90.328715,982.48255 -4.7016856,900.11603 -8.0808479,750.28387 82.78081,647.80845 173.64247,545.33306 324.32577,529.03282 419.35617,611.39939 Z"
         id="path1051" />
      <path
         inkscape:connector-curvature="0"
         id="path1053"
         d="M 279.84152,540.37998 C 204.68913,539.87629 127.18406,572.59063 70.970466,635.98933 -26.739544,746.18842 -23.105302,907.31319 79.087644,995.88778 181.28055,1084.4624 343.32103,1066.9345 441.03101,956.73543 473.1579,920.50216 494.3248,878.7626 504.63838,835.90733 485.0184,800.01887 436.88921,715.26039 386.63449,651.83701 351.73986,607.79856 310.65696,568.01604 279.84152,540.37998 Z"
         style="fill:#7a36b1;fill-opacity:1;stroke:none;stroke-width:0.99999994px;stroke-linecap:butt;stroke-linejoin:miter;stroke-opacity:1" />
      <path
         id="path1055"
         d="M 511.63553,765.26569 C 510.08415,826.57734 486.47431,889.4203 440.66915,941.08017 342.95918,1051.2793 180.91874,1068.808 78.725792,980.23347 30.827159,938.71782 4.496853,881.28502 0.19386087,820.59099 0.79911442,886.94766 27.117439,950.84435 79.078725,995.88124 181.27163,1084.4558 343.31979,1066.9184 441.02205,956.72795 490.72699,900.66984 514.02706,831.43698 511.63553,765.26569 Z"
         inkscape:connector-curvature="0"
         style="opacity:1;stroke-width:11.10955811;fill:#000000;fill-opacity:0.49019608" />
    </g>
  </g>
</svg>
