<?xml version="1.0" encoding="UTF-8" standalone="no"?>
<!-- Created with Inkscape (http://www.inkscape.org/) -->

<svg
   xmlns:dc="http://purl.org/dc/elements/1.1/"
   xmlns:cc="http://creativecommons.org/ns#"
   xmlns:rdf="http://www.w3.org/1999/02/22-rdf-syntax-ns#"
   xmlns:svg="http://www.w3.org/2000/svg"
   xmlns="http://www.w3.org/2000/svg"
   xmlns:sodipodi="http://sodipodi.sourceforge.net/DTD/sodipodi-0.dtd"
   xmlns:inkscape="http://www.inkscape.org/namespaces/inkscape"
   width="512"
   height="512"
   id="svg2"
   version="1.1"
   inkscape:version="0.92.2 5c3e80d, 2017-08-06"
   sodipodi:docname="mail-message.svg">
  <defs
     id="defs4" />
  <sodipodi:namedview
     id="base"
     pagecolor="#ffffff"
     bordercolor="#666666"
     borderopacity="1.0"
     inkscape:pageopacity="0.0"
     inkscape:pageshadow="2"
     inkscape:zoom="0.49497475"
     inkscape:cx="180.57005"
     inkscape:cy="111.23857"
     inkscape:document-units="px"
     inkscape:current-layer="layer1"
     showgrid="false"
     inkscape:window-width="1366"
     inkscape:window-height="717"
     inkscape:window-x="0"
     inkscape:window-y="24"
     inkscape:window-maximized="1" />
  <metadata
     id="metadata7">
    <rdf:RDF>
      <cc:Work
         rdf:about="">
        <dc:format>image/svg+xml</dc:format>
        <dc:type
           rdf:resource="http://purl.org/dc/dcmitype/StillImage" />
        <dc:title />
      </cc:Work>
    </rdf:RDF>
  </metadata>
  <g
     inkscape:label="Layer 1"
     inkscape:groupmode="layer"
     id="layer1"
     transform="translate(0,-540.36218)">
    <g
       id="g850">
      <g
         id="g863"
         transform="matrix(3.7795276,0,0,3.7795276,2.5347737e-7,-70.157456)">
        <path
           style="fill:#d48e15;fill-opacity:1;stroke-width:2.93940377"
           inkscape:connector-curvature="0"
           d="m 114.54163,176.47539 c 27.03854,23.43536 28,66.06638 2.14757,95.22322 -25.852427,29.15684 -68.725627,33.79466 -95.764167,10.3593 -27.0385497,-23.43536 -27.9999997,-66.06638 -2.14757,-95.22322 25.85243,-29.15684 68.72563,-33.79466 95.764167,-10.3593 z"
           id="path848" />
        <path
           id="path849"
           d="m 110.95464,180.32858 c 25.14345,21.79282 26.03753,61.4359 1.99705,88.54919 -24.040477,27.11329 -63.908767,31.42605 -89.052227,9.63323 -25.1434597,-21.79281 -26.0375297,-61.4359 -1.99705,-88.54919 24.04048,-27.11328 63.90877,-31.42605 89.052227,-9.63323 z"
           inkscape:connector-curvature="0"
           style="fill:#ffffff;fill-opacity:1;stroke-width:2.73338604" />
        <path
           style="fill:#f9c440;fill-opacity:1;stroke:none;stroke-width:0.26458332px;stroke-linecap:butt;stroke-linejoin:miter;stroke-opacity:1"
           d="m 74.041395,161.53803 c -19.884078,-0.13327 -40.390627,8.5224 -55.263809,25.29664 -25.8524316,29.15684 -24.8908775,71.78777 2.147671,95.22313 27.03854,23.43536 69.91175,18.79778 95.764183,-10.35906 8.50024,-9.58672 14.10065,-20.63031 16.82945,-31.9691 -5.19112,-9.49549 -17.9253,-31.92117 -31.22186,-48.70194 -9.232538,-11.65184 -20.102389,-22.17763 -28.255635,-29.48967 z"
           id="path843"
           inkscape:connector-curvature="0" />
        <path
           style="opacity:0.1;stroke-width:2.93940377"
           inkscape:connector-curvature="0"
           d="m 135.37022,221.03904 c -0.41047,16.22204 -6.65724,32.84924 -18.77652,46.51758 C 90.741273,296.71347 47.868073,301.35128 20.829523,277.91593 8.1563433,266.93158 1.1897833,251.73582 0.05128329,235.67719 c 0.16014,17.55687 7.12353001,34.46287 20.87161971,46.37888 27.03854,23.43535 69.91378,18.79524 95.764167,-10.35931 13.1511,-14.83204 19.31591,-33.1499 18.68315,-50.65772 z"
           id="path850" />
      </g>
      <path
         style="fill:#e1b13a;fill-opacity:1;stroke-width:0.69387025"
         d="m 130.70019,917.6936 c -1.52729,-0.48136 -3.64593,-1.33156 -4.70806,-1.88927 l -1.93119,-1.01408 48.25485,-48.81638 48.25489,-48.81642 10.92004,10.7003 c 6.00596,5.88521 12.61124,11.77194 14.67816,13.08192 11.49042,7.28202 25.37125,7.93172 37.58335,1.75896 3.34847,-1.69247 6.97492,-4.80953 15.95814,-13.71647 l 11.62497,-11.52632 48.64816,48.46931 48.64698,48.47047 -3.65979,1.74048 -3.65991,1.74062 -133.91655,0.34545 c -106.50701,0.27553 -134.48554,0.16705 -136.69404,-0.52887 z m -18.26753,-16.1187 c -2.15325,-5.50004 -2.23372,-8.72073 -2.37566,-95.04529 -0.14049,-86.14791 -0.12182,-87.60023 1.26436,-92.1134 0.77456,-2.52204 1.67157,-4.58597 1.99332,-4.58646 0.40568,-7.5e-4 76.34583,76.01688 96.45403,96.55147 0.0801,0.082 -21.61427,21.97694 -48.20984,48.65568 -48.33562,48.48669 -48.35607,48.506 -49.12636,46.53819 z m 257.95699,-46.73295 -48.23986,-48.08912 48.06929,-48.70545 c 26.43812,-26.78805 48.2686,-48.70575 48.51226,-48.70598 0.2434,-3.4e-4 1.03487,1.79373 1.7585,3.98691 1.26157,3.82394 1.32144,7.63461 1.45777,92.80297 0.13606,85.16841 0.0884,88.97919 -1.16081,92.80717 -0.7166,2.19545 -1.49511,3.99209 -1.73015,3.99251 -0.23509,4.5e-4 -22.1353,-21.63946 -48.66703,-48.08863 z M 260.19299,830.75914 c -1.59443,-0.51878 -3.93796,-1.59213 -5.20783,-2.38519 -1.26993,-0.79298 -31.3429,-30.39753 -66.82893,-65.78774 l -64.52007,-64.34577 3.70072,-1.67868 3.70067,-1.6786 133.22263,-0.39848 c 131.67623,-0.39375 133.275,-0.38215 137.735,0.98676 2.48182,0.76184 4.86535,1.62191 5.2967,1.91138 0.49376,0.33109 -23.11923,24.66599 -63.73106,65.67908 -54.75195,55.2929 -65.03835,65.37948 -67.97112,66.6511 -4.26416,1.84891 -11.43214,2.33583 -15.39668,1.04591 z"
         id="path841"
         inkscape:connector-curvature="0" />
      <path
         inkscape:connector-curvature="0"
         id="path844"
         d="m 120.70019,907.6936 c -1.52729,-0.48136 -3.64593,-1.33156 -4.70806,-1.88927 l -1.93119,-1.01408 48.25485,-48.81638 48.25489,-48.81642 10.92004,10.7003 c 6.00596,5.88521 12.61124,11.77194 14.67816,13.08192 11.49042,7.28202 25.37125,7.93172 37.58335,1.75896 3.34847,-1.69247 6.97492,-4.80953 15.95814,-13.71647 l 11.62497,-11.52632 48.64816,48.46931 48.64698,48.47047 -3.65979,1.74048 -3.65991,1.74062 -133.91655,0.34545 c -106.50701,0.27553 -134.48554,0.16705 -136.69404,-0.52887 z m -18.26753,-16.1187 c -2.15325,-5.50004 -2.23372,-8.72073 -2.37566,-95.04529 -0.140493,-86.14791 -0.121823,-87.60023 1.26436,-92.1134 0.77456,-2.52204 1.67157,-4.58597 1.99332,-4.58646 0.40568,-7.5e-4 76.34583,76.01688 96.45403,96.55147 0.0801,0.082 -21.61427,21.97694 -48.20984,48.65568 -48.33562,48.48669 -48.35607,48.506 -49.12636,46.53819 z m 257.95699,-46.73295 -48.23986,-48.08912 48.06929,-48.70545 c 26.43812,-26.78805 48.2686,-48.70575 48.51226,-48.70598 0.2434,-3.4e-4 1.03487,1.79373 1.7585,3.98691 1.26157,3.82394 1.32144,7.63461 1.45777,92.80297 0.13606,85.16841 0.0884,88.97919 -1.16081,92.80717 -0.7166,2.19545 -1.49511,3.99209 -1.73015,3.99251 -0.23509,4.5e-4 -22.1353,-21.63946 -48.66703,-48.08863 z M 250.19299,820.75914 c -1.59443,-0.51878 -3.93796,-1.59213 -5.20783,-2.38519 -1.26993,-0.79298 -31.3429,-30.39753 -66.82893,-65.78774 l -64.52007,-64.34577 3.70072,-1.67868 3.70067,-1.6786 133.22263,-0.39848 c 131.67623,-0.39375 133.275,-0.38215 137.735,0.98676 2.48182,0.76184 4.86535,1.62191 5.2967,1.91138 0.49376,0.33109 -23.11923,24.66599 -63.73106,65.67908 -54.75195,55.2929 -65.03835,65.37948 -67.97112,66.6511 -4.26416,1.84891 -11.43214,2.33583 -15.39668,1.04591 z"
         style="fill:#ffffff;stroke-width:0.69387025" />
    </g>
  </g>
</svg>
