<?xml version="1.0" encoding="UTF-8" standalone="no"?>
<!-- Created with Inkscape (http://www.inkscape.org/) -->

<svg
   xmlns:dc="http://purl.org/dc/elements/1.1/"
   xmlns:cc="http://creativecommons.org/ns#"
   xmlns:rdf="http://www.w3.org/1999/02/22-rdf-syntax-ns#"
   xmlns:svg="http://www.w3.org/2000/svg"
   xmlns="http://www.w3.org/2000/svg"
   xmlns:sodipodi="http://sodipodi.sourceforge.net/DTD/sodipodi-0.dtd"
   xmlns:inkscape="http://www.inkscape.org/namespaces/inkscape"
   width="512"
   height="512"
   id="svg2"
   version="1.1"
   inkscape:version="0.92.2 5c3e80d, 2017-08-06"
   sodipodi:docname="network-server.svg">
  <defs
     id="defs4" />
  <sodipodi:namedview
     id="base"
     pagecolor="#ffffff"
     bordercolor="#666666"
     borderopacity="1.0"
     inkscape:pageopacity="0.0"
     inkscape:pageshadow="2"
     inkscape:zoom="0.49497475"
     inkscape:cx="72.42935"
     inkscape:cy="217.71569"
     inkscape:document-units="px"
     inkscape:current-layer="layer1"
     showgrid="false"
     inkscape:window-width="1366"
     inkscape:window-height="717"
     inkscape:window-x="0"
     inkscape:window-y="24"
     inkscape:window-maximized="1" />
  <metadata
     id="metadata7">
    <rdf:RDF>
      <cc:Work
         rdf:about="">
        <dc:format>image/svg+xml</dc:format>
        <dc:type
           rdf:resource="http://purl.org/dc/dcmitype/StillImage" />
        <dc:title />
      </cc:Work>
    </rdf:RDF>
  </metadata>
  <g
     inkscape:label="Layer 1"
     inkscape:groupmode="layer"
     id="layer1"
     transform="translate(0,-540.36218)">
    <g
       id="g837">
      <path
         id="path848"
         d="m 432.91325,596.83615 c 102.19291,88.57459 105.82677,249.69971 8.1168,359.89879 C 343.32009,1066.934 181.27965,1084.4628 79.08674,995.8882 -23.106205,907.31361 -26.740032,746.18849 70.96994,635.98941 168.67991,525.79033 330.72036,508.26156 432.91325,596.83615 Z"
         inkscape:connector-curvature="0"
         style="fill:#7f6421;fill-opacity:1;stroke-width:11.10955811" />
      <path
         style="fill:#ffffff;fill-opacity:1;stroke-width:10.33090782"
         inkscape:connector-curvature="0"
         d="m 419.35612,611.39939 c 95.03037,82.36656 98.40957,232.19868 7.54791,334.67411 C 336.04238,1048.5489 185.35908,1064.8491 90.32868,982.48256 -4.7017196,900.11603 -8.0808818,750.28388 82.780775,647.80845 173.64243,545.33306 324.32573,529.03282 419.35612,611.39939 Z"
         id="path849" />
      <path
         inkscape:connector-curvature="0"
         id="path843"
         d="m 279.8415,540.37999 c -75.15243,-0.5037 -152.65749,32.21064 -208.871095,95.60935 -97.709979,110.19908 -94.075759,271.32385 8.117182,359.89844 102.192903,88.57462 264.233393,71.04672 361.943373,-39.15235 32.12689,-36.23327 53.2938,-77.97283 63.60737,-120.8281 C 485.01835,800.01887 436.88916,715.26039 386.63445,651.83701 351.73982,607.79856 310.65691,568.01604 279.8415,540.37999 Z"
         style="fill:#f9c440;fill-opacity:1;stroke:none;stroke-width:0.99999994px;stroke-linecap:butt;stroke-linejoin:miter;stroke-opacity:1" />
      <path
         id="path850"
         d="M 511.63548,765.2657 C 510.0841,826.57734 486.47426,889.42031 440.66911,941.08017 342.95915,1051.2793 180.9187,1068.808 78.725757,980.23347 30.827125,938.71782 4.4968191,881.28502 0.19382686,820.59099 0.79908041,886.94766 27.117405,950.84436 79.07869,995.88125 181.2716,1084.4558 343.31975,1066.9184 441.022,956.72795 490.72695,900.66984 514.02702,831.43699 511.63548,765.2657 Z"
         inkscape:connector-curvature="0"
         style="opacity:1;stroke-width:11.10955811;fill:#000000;fill-opacity:0.49019608" />
      <path
         style="fill:#000000;fill-opacity:0.49019608;stroke-width:0.60968202"
         d="m 269.23814,971.5656 c -11.41164,-2.7652 -20.90573,-12.5545 -23.27472,-23.9985 -2.39277,-11.5589 2.14931,-23.69707 11.58406,-30.95694 l 3.59887,-2.76926 V 896.19575 878.5506 h 15.24205 15.24205 v 17.64515 17.64515 l 3.59887,2.76926 c 9.43708,7.26167 13.98492,19.42035 11.57912,30.95694 -2.4035,11.5255 -12.67529,21.7973 -24.20081,24.2008 -4.12389,0.86 -9.30941,0.7815 -13.36949,-0.2023 z M 160.47716,954.8872 c -11.37347,-5.9416 -11.16211,-21.53021 0.3765,-27.76788 2.40607,-1.3007 2.90068,-1.32071 36.93614,-1.49431 l 34.49742,-0.17595 -1.17437,4.44373 c -1.61687,6.11815 -1.60079,16.88591 0.0337,22.58171 l 1.18097,4.1154 H 198.032 163.73645 l -3.2593,-1.7027 z m 161.18823,-2.7175 c 1.60065,-6.079 1.57593,-16.23357 -0.0542,-22.27699 l -1.19867,-4.44381 34.53595,0.17603 c 34.07489,0.17368 34.5685,0.19363 36.97467,1.49439 11.49496,6.21408 11.70695,21.84878 0.3765,27.76788 l -3.25931,1.7027 h -34.2694 -34.26941 z M 176.62122,862.39777 c -11.61351,-2.52562 -21.53514,-12.4595 -23.93421,-23.96377 -3.27526,-15.70593 6.04451,-31.3873 21.55434,-36.26713 l 4.29309,-1.35072 h 97.85396 97.85396 l 4.29309,1.35072 c 15.87543,4.99486 25.31414,21.43163 21.29499,37.08357 -1.56545,6.09641 -3.84574,10.03263 -8.47027,14.62133 -4.84975,4.81218 -9.21753,7.22433 -15.48772,8.55326 -5.86342,1.24271 -193.52961,1.21704 -199.25123,-0.0273 z m 12.89193,-16.3745 c 5.6954,-2.65221 8.83595,-7.65611 8.83595,-14.07847 0,-11.60421 -12.10238,-19.0869 -22.38574,-13.84072 -2.86062,1.45939 -6.05302,4.92248 -7.34656,7.96953 -1.2846,3.02596 -1.25592,8.31378 0.0638,11.76372 1.26642,3.31062 5.89571,7.83821 9.04451,8.84583 3.62587,1.16028 8.46056,0.88964 11.78804,-0.65989 z m 129.97134,-7.68133 c 2.46277,-1.50166 3.44296,-3.33742 3.44296,-6.44817 0,-2.87831 -1.51668,-5.47789 -3.92157,-6.7215 -2.55379,-1.32062 -82.68117,-1.32062 -85.23496,0 -4.80006,2.4822 -5.39931,9.41623 -1.10621,12.79996 l 1.96047,1.5452 41.45838,0.004 c 39.98234,0.004 41.52753,-0.0377 43.40093,-1.17998 z m 31.83018,-0.37438 c 2.06233,-1.73534 3.2827,-5.15252 2.69442,-7.54469 -0.96587,-3.92756 -3.89659,-6.13396 -8.14764,-6.13396 -2.05556,0 -2.91193,0.38196 -4.56695,2.03698 -3.61455,3.61454 -3.58863,8.12139 0.0651,11.32945 2.87751,2.52649 7.16376,2.66092 9.95503,0.31222 z m 23.10667,0.0515 c 3.69271,-3.10721 4.03018,-7.8029 0.81907,-11.39676 -1.34737,-1.50797 -2.27675,-1.932 -4.69235,-2.14086 -7.65007,-0.66147 -11.50109,7.59705 -6.0735,13.02464 1.75588,1.75588 2.43165,2.02484 5.08744,2.02484 2.3706,0 3.46857,-0.34161 4.85934,-1.51186 z M 179.43541,792.60791 c -12.96516,-1.70173 -23.1743,-10.79612 -26.51427,-23.61911 -4.29311,-16.48236 6.88116,-34.08345 23.93224,-37.69673 6.1142,-1.29566 192.90892,-1.30567 199.01907,-0.0107 6.27019,1.32893 10.63797,3.74108 15.48772,8.55326 4.62453,4.5887 6.90482,8.52492 8.47027,14.62133 3.971,15.46445 -5.22196,31.71495 -20.97149,37.07151 l -4.00691,1.36278 -96.02491,0.0798 c -52.81371,0.0438 -97.53998,-0.11909 -99.39172,-0.36214 z m 10.18018,-16.68635 c 7.14094,-3.69273 10.38296,-11.52664 8.02594,-19.39367 -2.2398,-7.47579 -11.44636,-11.98311 -19.5297,-9.56128 -2.73069,0.81813 -7.42551,4.70052 -8.72654,7.21643 -4.43595,8.5782 -0.45274,18.93167 8.57472,22.28803 2.95573,1.09893 9.0208,0.81298 11.65558,-0.54951 z m 160.48407,-7.3874 c 4.73864,-2.45044 5.38756,-9.28432 1.21501,-12.79529 -1.44532,-1.21616 -2.52666,-1.5634 -4.86857,-1.5634 -2.55305,0 -3.34266,0.30433 -5.1956,2.00241 -6.63089,6.07676 0.83448,16.50083 8.84916,12.35628 z m 23.90012,-0.5083 c 2.43716,-1.63721 4.00959,-5.41236 3.3496,-8.04192 -0.23942,-0.95398 -1.35197,-2.65114 -2.4723,-3.77148 -1.78723,-1.78722 -2.42572,-2.03699 -5.20734,-2.03699 -2.77782,0 -3.42104,0.2507 -5.19518,2.02484 -6.70526,6.70526 1.66964,17.10271 9.52522,11.82555 z m -199.00897,-46.4694 c -11.16643,-3.06958 -20.35195,-13.05195 -22.43957,-24.38626 -2.75586,-14.9624 5.83313,-29.6612 20.58848,-35.23419 l 3.56567,-1.34673 97.54912,-0.18128 c 70.03459,-0.13016 98.58092,0.011 101.20721,0.50054 17.17451,3.2012 28.74253,21.27146 24.36827,38.06538 -2.8639,10.99525 -12.27375,20.40195 -22.84406,22.83641 -1.8365,0.42296 -35.19655,0.61878 -100.90237,0.59226 -79.42966,-0.0321 -98.71862,-0.1935 -101.09275,-0.84613 z m 11.96161,-14.97191 c 6.68959,-1.68895 11.39668,-7.90114 11.39668,-15.04077 0,-4.6084 -0.94604,-7.11052 -3.94245,-10.42719 -3.16646,-3.5049 -6.54187,-4.9834 -11.33967,-4.96703 -8.9596,0.0306 -15.41901,6.54161 -15.41037,15.53351 0.01,10.10344 9.44363,17.38893 19.29581,14.90148 z m 163.04522,-8.3035 c 3.02426,-1.4351 4.73955,-5.31832 3.83426,-8.68029 -1.29166,-4.79687 -6.01123,-7.05854 -10.54473,-5.05316 -5.79132,2.56178 -6.28581,10.26026 -0.8711,13.56181 2.39683,1.46144 4.75121,1.51474 7.58157,0.17164 z m 23.82415,-0.21195 c 4.02595,-2.45456 4.80512,-8.2646 1.56225,-11.64941 -3.47196,-3.62395 -8.34512,-3.56455 -11.46206,0.13973 -5.70222,6.7767 2.33551,16.1215 9.89981,11.50968 z"
         id="path885"
         inkscape:connector-curvature="0" />
      <path
         inkscape:connector-curvature="0"
         id="path883"
         d="m 249.23814,951.5656 c -11.41164,-2.7652 -20.90573,-12.5545 -23.27472,-23.9985 -2.39277,-11.5589 2.14931,-23.69707 11.58406,-30.95694 l 3.59887,-2.76926 V 876.19575 858.5506 h 15.24205 15.24205 v 17.64515 17.64515 l 3.59887,2.76926 c 9.43708,7.26167 13.98492,19.42035 11.57912,30.95694 -2.4035,11.5255 -12.67529,21.7973 -24.20081,24.2008 -4.12389,0.86 -9.30941,0.7815 -13.36949,-0.2023 z M 140.47716,934.8872 c -11.37347,-5.9416 -11.16211,-21.53021 0.3765,-27.76788 2.40607,-1.3007 2.90068,-1.32071 36.93614,-1.49431 l 34.49742,-0.17595 -1.17437,4.44373 c -1.61687,6.11815 -1.60079,16.88591 0.0337,22.58171 l 1.18097,4.1154 H 178.032 143.73645 l -3.2593,-1.7027 z m 161.18823,-2.7175 c 1.60065,-6.079 1.57593,-16.23357 -0.0542,-22.27699 l -1.19867,-4.44381 34.53595,0.17603 c 34.07489,0.17368 34.5685,0.19363 36.97467,1.49439 11.49496,6.21408 11.70695,21.84878 0.3765,27.76788 l -3.25931,1.7027 h -34.2694 -34.26941 z M 156.62122,842.39777 c -11.61351,-2.52562 -21.53514,-12.4595 -23.93421,-23.96377 -3.27526,-15.70593 6.04451,-31.3873 21.55434,-36.26713 l 4.29309,-1.35072 h 97.85396 97.85396 l 4.29309,1.35072 c 15.87543,4.99486 25.31414,21.43163 21.29499,37.08357 -1.56545,6.09641 -3.84574,10.03263 -8.47027,14.62133 -4.84975,4.81218 -9.21753,7.22433 -15.48772,8.55326 -5.86342,1.24271 -193.52961,1.21704 -199.25123,-0.0273 z m 12.89193,-16.3745 c 5.6954,-2.65221 8.83595,-7.65611 8.83595,-14.07847 0,-11.60421 -12.10238,-19.0869 -22.38574,-13.84072 -2.86062,1.45939 -6.05302,4.92248 -7.34656,7.96953 -1.2846,3.02596 -1.25592,8.31378 0.0638,11.76372 1.26642,3.31062 5.89571,7.83821 9.04451,8.84583 3.62587,1.16028 8.46056,0.88964 11.78804,-0.65989 z m 129.97134,-7.68133 c 2.46277,-1.50166 3.44296,-3.33742 3.44296,-6.44817 0,-2.87831 -1.51668,-5.47789 -3.92157,-6.7215 -2.55379,-1.32062 -82.68117,-1.32062 -85.23496,0 -4.80006,2.4822 -5.39931,9.41623 -1.10621,12.79996 l 1.96047,1.5452 41.45838,0.004 c 39.98234,0.004 41.52753,-0.0377 43.40093,-1.17998 z m 31.83018,-0.37438 c 2.06233,-1.73534 3.2827,-5.15252 2.69442,-7.54469 -0.96587,-3.92756 -3.89659,-6.13396 -8.14764,-6.13396 -2.05556,0 -2.91193,0.38196 -4.56695,2.03698 -3.61455,3.61454 -3.58863,8.12139 0.0651,11.32945 2.87751,2.52649 7.16376,2.66092 9.95503,0.31222 z m 23.10667,0.0515 c 3.69271,-3.10721 4.03018,-7.8029 0.81907,-11.39676 -1.34737,-1.50797 -2.27675,-1.932 -4.69235,-2.14086 -7.65007,-0.66147 -11.50109,7.59705 -6.0735,13.02464 1.75588,1.75588 2.43165,2.02484 5.08744,2.02484 2.3706,0 3.46857,-0.34161 4.85934,-1.51186 z M 159.43541,772.60791 c -12.96516,-1.70173 -23.1743,-10.79612 -26.51427,-23.61911 -4.29311,-16.48236 6.88116,-34.08345 23.93224,-37.69673 6.1142,-1.29566 192.90892,-1.30567 199.01907,-0.0107 6.27019,1.32893 10.63797,3.74108 15.48772,8.55326 4.62453,4.5887 6.90482,8.52492 8.47027,14.62133 3.971,15.46445 -5.22196,31.71495 -20.97149,37.07151 l -4.00691,1.36278 -96.02491,0.0798 c -52.81371,0.0438 -97.53998,-0.11909 -99.39172,-0.36214 z m 10.18018,-16.68635 c 7.14094,-3.69273 10.38296,-11.52664 8.02594,-19.39367 -2.2398,-7.47579 -11.44636,-11.98311 -19.5297,-9.56128 -2.73069,0.81813 -7.42551,4.70052 -8.72654,7.21643 -4.43595,8.5782 -0.45274,18.93167 8.57472,22.28803 2.95573,1.09893 9.0208,0.81298 11.65558,-0.54951 z m 160.48407,-7.3874 c 4.73864,-2.45044 5.38756,-9.28432 1.21501,-12.79529 -1.44532,-1.21616 -2.52666,-1.5634 -4.86857,-1.5634 -2.55305,0 -3.34266,0.30433 -5.1956,2.00241 -6.63089,6.07676 0.83448,16.50083 8.84916,12.35628 z m 23.90012,-0.5083 c 2.43716,-1.63721 4.00959,-5.41236 3.3496,-8.04192 -0.23942,-0.95398 -1.35197,-2.65114 -2.4723,-3.77148 -1.78723,-1.78722 -2.42572,-2.03699 -5.20734,-2.03699 -2.77782,0 -3.42104,0.2507 -5.19518,2.02484 -6.70526,6.70526 1.66964,17.10271 9.52522,11.82555 z m -199.00897,-46.4694 c -11.16643,-3.06958 -20.35195,-13.05195 -22.43957,-24.38626 -2.75586,-14.9624 5.83313,-29.6612 20.58848,-35.23419 l 3.56567,-1.34673 97.54912,-0.18128 c 70.03459,-0.13016 98.58092,0.011 101.20721,0.50054 17.17451,3.2012 28.74253,21.27146 24.36827,38.06538 -2.8639,10.99525 -12.27375,20.40195 -22.84406,22.83641 -1.8365,0.42296 -35.19655,0.61878 -100.90237,0.59226 -79.42966,-0.0321 -98.71862,-0.1935 -101.09275,-0.84613 z m 11.96161,-14.97191 c 6.68959,-1.68895 11.39668,-7.90114 11.39668,-15.04077 0,-4.6084 -0.94604,-7.11052 -3.94245,-10.42719 -3.16646,-3.5049 -6.54187,-4.9834 -11.33967,-4.96703 -8.9596,0.0306 -15.41901,6.54161 -15.41037,15.53351 0.01,10.10344 9.44363,17.38893 19.29581,14.90148 z m 163.04522,-8.3035 c 3.02426,-1.4351 4.73955,-5.31832 3.83426,-8.68029 -1.29166,-4.79687 -6.01123,-7.05854 -10.54473,-5.05316 -5.79132,2.56178 -6.28581,10.26026 -0.8711,13.56181 2.39683,1.46144 4.75121,1.51474 7.58157,0.17164 z m 23.82415,-0.21195 c 4.02595,-2.45456 4.80512,-8.2646 1.56225,-11.64941 -3.47196,-3.62395 -8.34512,-3.56455 -11.46206,0.13973 -5.70222,6.7767 2.33551,16.1215 9.89981,11.50968 z"
         style="fill:#ffffff;stroke-width:0.60968202" />
    </g>
  </g>
</svg>
