<?xml version="1.0" encoding="UTF-8" standalone="no"?>
<!-- Created with Inkscape (http://www.inkscape.org/) -->

<svg
   xmlns:dc="http://purl.org/dc/elements/1.1/"
   xmlns:cc="http://creativecommons.org/ns#"
   xmlns:rdf="http://www.w3.org/1999/02/22-rdf-syntax-ns#"
   xmlns:svg="http://www.w3.org/2000/svg"
   xmlns="http://www.w3.org/2000/svg"
   xmlns:xlink="http://www.w3.org/1999/xlink"
   xmlns:sodipodi="http://sodipodi.sourceforge.net/DTD/sodipodi-0.dtd"
   xmlns:inkscape="http://www.inkscape.org/namespaces/inkscape"
   id="svg2"
   version="1.1"
   inkscape:version="0.92.2 5c3e80d, 2017-08-06"
   width="512"
   height="512"
   sodipodi:docname="start-here-kde.svg"
   viewBox="0 0 512 512">
  <metadata
     id="metadata8">
    <rdf:RDF>
      <cc:Work
         rdf:about="">
        <dc:format>image/svg+xml</dc:format>
        <dc:type
           rdf:resource="http://purl.org/dc/dcmitype/StillImage" />
        <dc:title></dc:title>
      </cc:Work>
    </rdf:RDF>
  </metadata>
  <defs
     id="defs6">
    <linearGradient
       id="linearGradient3764"
       x1="1"
       x2="47"
       gradientUnits="userSpaceOnUse"
       gradientTransform="rotate(-90,23.999998,24)">
      <stop
         stop-color="#32a2f8"
         stop-opacity="1"
         id="stop7" />
      <stop
         offset="1"
         stop-color="#45a9f9"
         stop-opacity="1"
         id="stop9" />
    </linearGradient>
    <linearGradient
       inkscape:collect="always"
       xlink:href="#linearGradient3764"
       id="linearGradient3820"
       gradientUnits="userSpaceOnUse"
       x1="11.994687"
       y1="24.005501"
       x2="36"
       y2="24.005501" />
    <linearGradient
       id="linearGradient3012"
       x1="1"
       x2="47"
       gradientUnits="userSpaceOnUse"
       gradientTransform="rotate(-90,23.999998,24)">
      <stop
         stop-color="#32a2f8"
         stop-opacity="1"
         id="stop3014" />
      <stop
         offset="1"
         stop-color="#45a9f9"
         stop-opacity="1"
         id="stop3016" />
    </linearGradient>
    <clipPath
       id="clipPath-121880098">
      <g
         transform="translate(0,-1004.3622)"
         id="g17">
        <path
           style="fill:#1890d0"
           inkscape:connector-curvature="0"
           d="m -24,13 c 0,1.105 -0.672,2 -1.5,2 -0.828,0 -1.5,-0.895 -1.5,-2 0,-1.105 0.672,-2 1.5,-2 0.828,0 1.5,0.895 1.5,2 z"
           transform="matrix(15.333333,0,0,11.5,414.99999,878.8622)"
           id="path19" />
      </g>
    </clipPath>
    <linearGradient
       id="linearGradient3022"
       x1="1"
       x2="47"
       gradientUnits="userSpaceOnUse"
       gradientTransform="rotate(-90,23.999998,24)">
      <stop
         stop-color="#32a2f8"
         stop-opacity="1"
         id="stop3024" />
      <stop
         offset="1"
         stop-color="#45a9f9"
         stop-opacity="1"
         id="stop3026" />
    </linearGradient>
    <linearGradient
       id="linearGradient3029"
       x1="1"
       x2="47"
       gradientUnits="userSpaceOnUse"
       gradientTransform="rotate(-90,23.999998,24)">
      <stop
         stop-color="#32a2f8"
         stop-opacity="1"
         id="stop3031" />
      <stop
         offset="1"
         stop-color="#45a9f9"
         stop-opacity="1"
         id="stop3033" />
    </linearGradient>
  </defs>
  <sodipodi:namedview
     pagecolor="#ffffff"
     bordercolor="#666666"
     borderopacity="1"
     objecttolerance="10"
     gridtolerance="10"
     guidetolerance="10"
     inkscape:pageopacity="0"
     inkscape:pageshadow="2"
     inkscape:window-width="1366"
     inkscape:window-height="717"
     id="namedview4"
     showgrid="false"
     inkscape:zoom="0.5883789"
     inkscape:cx="307.30635"
     inkscape:cy="154.27599"
     inkscape:window-x="0"
     inkscape:window-y="24"
     inkscape:window-maximized="1"
     inkscape:current-layer="svg2"
     showguides="true"
     inkscape:guide-bbox="true"
     inkscape:document-units="px" />
  <path
     style="fill:#cccccc;fill-opacity:1;fill-rule:evenodd;stroke:none;stroke-width:1.02230215"
     d=""
     id="path3783"
     inkscape:connector-curvature="0" />
  <g
     id="g847">
    <path
       style="fill:#3689e6;fill-opacity:1;stroke-width:11.10955811"
       inkscape:connector-curvature="0"
       d="M 432.91327,56.473991 C 535.10618,145.04855 538.74005,306.17367 441.03007,416.37279 343.3201,526.57183 181.27964,544.10063 79.086727,455.52599 -23.106183,366.95143 -26.740043,205.82631 70.969927,95.627191 168.6799,-14.571848 330.72036,-32.100648 432.91327,56.473991 Z"
       id="path27" />
    <path
       style="opacity:0.1;stroke-width:11.10955811"
       inkscape:connector-curvature="0"
       d="M 511.63551,224.90351 C 510.08412,286.21519 486.47428,349.05815 440.66913,400.71799 342.95915,510.91711 180.91869,528.44583 78.725777,439.87127 30.827127,398.35559 4.4968166,340.92287 0.19382666,280.22879 0.79907666,346.58551 27.117407,410.48215 79.078687,455.51903 181.27159,544.09359 343.31975,526.55615 441.02202,416.36575 490.72697,360.30767 514.02704,291.07479 511.63551,224.90351 Z"
       id="path51" />
    <path
       inkscape:connector-curvature="0"
       style="fill:#317ccf;fill-opacity:1;fill-rule:evenodd;stroke:none;stroke-width:5.03225517"
       id="path841"
       d="m 290.85914,109.92627 -54.22396,3.86014 v 215.97306 l 54.22396,-6.60252 v -94.28111 c 23.5118,35.48213 42.39654,68.49483 73.87556,102.80721 l 56.14754,-16.14242 C 390.8199,280.70837 368.37388,250.03517 347.87745,216.59362 369.20571,185.16653 395.90177,153.58355 422,125.35385 l -58.18811,-14.27087 c -27.16396,30.60824 -51.32553,62.24321 -72.95275,94.0212 m -123.5246,-50.87077 c -0.76682,0.10367 -1.6766,0.55888 -2.39143,1.27372 -6.39459,6.04363 -12.43828,12.08732 -18.78083,18.13096 -2.79441,2.69039 0.0518,5.88769 1.27371,8.12327 l 12.89315,17.81906 9.64381,12.99706 c 1.3647,1.88458 1.78061,2.07953 1.06578,3.40522 -0.8578,1.3647 -1.57263,2.48246 -2.39148,3.8602 -12.54219,21.06834 -3.75617,22.69295 -30.60819,29.5424 l -20.56144,3.40528 c -3.04134,1.0138 -7.00545,0.90973 -7.21338,5.13385 0,8.5261 -0.26017,17.0132 -0.26017,25.48732 -0.156,3.91217 4.21109,4.26307 6.79752,4.92587 l 21.88714,3.80816 16.40233,2.98941 c 2.23553,0.29892 2.74243,-0.20783 3.24928,1.46862 6.70653,28.28177 15.47957,21.78317 0.85785,46.50372 l -11.77543,16.40233 c -1.57263,2.84634 -4.47101,5.64071 -1.52065,8.5261 6.19964,6.14765 12.13931,12.33426 18.3779,18.48191 2.74243,2.69045 6.29062,-0.0543 8.52615,-1.27371 l 18.13096,-12.59423 13.55599,-9.13696 c 1.88458,-1.5207 2.13151,-1.88458 3.50924,-1.06573 27.16396,16.59733 28.12573,4.61397 36.04096,32.54475 l 3.91213,20.00256 c 1.0138,2.98931 1.11776,6.8495 5.27682,7.00545 h 26.39715 c 3.96416,0 4.31506,-4.52299 4.82195,-7.00545 l 3.7042,-21.27628 2.63841,-15.73953 c 0.156,-1.52065 0.10417,-2.28746 0.40308,-2.79436 31.82992,-6.55049 23.91474,-15.79152 49.80493,-1.06578 l 16.80527,11.47646 c 3.09333,1.52069 6.04369,4.15906 8.98101,1.32574 6.23859,-5.88768 12.43823,-11.8274 18.68985,-17.66311 2.79436,-2.84634 0.0518,-6.09567 -1.27371,-8.27912 h -0.26017 l -12.23029,-16.80531 -8.07119,2.74243 c -2.07953,1.36469 -4.82195,0.85774 -7.26542,-2.33955 L 338.71427,321.8312 c -16.5063,22.23809 -43.20241,36.5999 -73.45965,36.5999 -49.80498,0 -90.47295,-39.55021 -90.47295,-88.08142 0,-34.46838 20.50946,-64.32274 50.25985,-78.76254 v -20.26253 c -1.01375,0.50695 -2.1835,0.76661 -3.0413,1.06583 -11.63246,4.71794 -12.38629,6.84945 -31.42703,-3.80816 l -16.80527,-11.67146 c -2.33949,-1.01379 -4.41902,-2.95031 -6.55053,-2.44346 m 57.72016,45.28194 c -25.27938,13.90694 -42.44858,40.56405 -42.44858,70.87333 0,44.72305 37.47073,81.2839 83.57146,81.2839 28.47668,0 53.45715,-14.06289 68.53378,-35.44313 l -0.8188,-1.72863 c -17.66306,19.09283 -37.62667,31.47902 -67.97489,32.14192 -37.82162,0.66274 -76.09811,-32.14192 -76.3061,-75.34428 -0.29891,-27.87885 12.89314,-46.60764 35.39115,-59.9557 v -11.72339 m 0.0518,0" />
    <path
       d="m 280.85914,99.92627 -54.22396,3.86014 v 215.97306 l 54.22396,-6.60252 v -94.28111 c 23.5118,35.48213 42.39654,68.49483 73.87556,102.80721 l 56.14754,-16.14242 C 380.8199,270.70837 358.37388,240.03517 337.87745,206.59362 359.20571,175.16653 385.90177,143.58355 412,115.35385 l -58.18811,-14.27087 c -27.16396,30.60824 -51.32553,62.24321 -72.95275,94.0212 m -123.5246,-50.87077 c -0.76682,0.10367 -1.6766,0.55888 -2.39143,1.27372 -6.39459,6.04363 -12.43828,12.08732 -18.78083,18.13096 -2.79441,2.69039 0.0518,5.88769 1.27371,8.12327 l 12.89315,17.81906 9.64381,12.99706 c 1.3647,1.88458 1.78061,2.07953 1.06578,3.40522 -0.8578,1.3647 -1.57263,2.48246 -2.39148,3.8602 -12.54219,21.06834 -3.75617,22.69295 -30.60819,29.5424 l -20.56144,3.40528 c -3.04134,1.0138 -7.00545,0.90973 -7.21338,5.13385 0,8.5261 -0.26017,17.0132 -0.26017,25.48732 -0.156002,3.91217 4.21109,4.26307 6.79752,4.92587 l 21.88714,3.80816 16.40233,2.98941 c 2.23553,0.29892 2.74243,-0.20783 3.24928,1.46862 6.70653,28.28177 15.47957,21.78317 0.85785,46.50372 l -11.77543,16.40233 c -1.57263,2.84634 -4.47101,5.64071 -1.52065,8.5261 6.19964,6.14765 12.13931,12.33426 18.3779,18.48191 2.74243,2.69045 6.29062,-0.0543 8.52615,-1.27371 l 18.13096,-12.59423 13.55599,-9.13696 c 1.88458,-1.5207 2.13151,-1.88458 3.50924,-1.06573 27.16396,16.59733 28.12573,4.61397 36.04096,32.54475 l 3.91213,20.00256 c 1.0138,2.98931 1.11776,6.8495 5.27682,7.00545 h 26.39715 c 3.96416,0 4.31506,-4.52299 4.82195,-7.00545 l 3.7042,-21.27628 2.63841,-15.73953 c 0.156,-1.52065 0.10417,-2.28746 0.40308,-2.79436 31.82992,-6.55049 23.91474,-15.79152 49.80493,-1.06578 l 16.80527,11.47646 c 3.09333,1.52069 6.04369,4.15906 8.98101,1.32574 6.23859,-5.88768 12.43823,-11.8274 18.68985,-17.66311 2.79436,-2.84634 0.0518,-6.09567 -1.27371,-8.27912 h -0.26017 l -12.23029,-16.80531 -8.07119,2.74243 c -2.07953,1.36469 -4.82195,0.85774 -7.26542,-2.33955 L 328.71427,311.8312 c -16.5063,22.23809 -43.20241,36.5999 -73.45965,36.5999 -49.80498,0 -90.47295,-39.55021 -90.47295,-88.08142 0,-34.46838 20.50946,-64.32274 50.25985,-78.76254 v -20.26253 c -1.01375,0.50695 -2.1835,0.76661 -3.0413,1.06583 -11.63246,4.71794 -12.38629,6.84945 -31.42703,-3.80816 l -16.80527,-11.67146 c -2.33949,-1.01379 -4.41902,-2.95031 -6.55053,-2.44346 m 57.72016,45.28194 c -25.27938,13.90694 -42.44858,40.56405 -42.44858,70.87333 0,44.72305 37.47073,81.2839 83.57146,81.2839 28.47668,0 53.45715,-14.06289 68.53378,-35.44313 l -0.8188,-1.72863 c -17.66306,19.09283 -37.62667,31.47902 -67.97489,32.14192 -37.82162,0.66274 -76.09811,-32.14192 -76.3061,-75.34428 -0.29891,-27.87885 12.89314,-46.60764 35.39115,-59.9557 v -11.72339 m 0.0518,0"
       id="path53"
       style="fill:#ffffff;fill-opacity:1;fill-rule:evenodd;stroke:none;stroke-width:5.03225517"
       inkscape:connector-curvature="0" />
  </g>
</svg>
